<?xml version="1.0" encoding="utf-8"?>
<!-- Generator: Adobe Illustrator 22.1.0, SVG Export Plug-In . SVG Version: 6.00 Build 0)  -->
<svg version="1.1" id="Capa_1" xmlns="http://www.w3.org/2000/svg" xmlns:xlink="http://www.w3.org/1999/xlink" x="0px" y="0px"
	 viewBox="0 0 256 256" style="enable-background:new 0 0 256 256;" xml:space="preserve">
<style type="text/css">
	.st0{fill:#050404;}
	.st1{fill:#26374B;}
	.st2{fill:#1F4259;}
	.st3{fill:#272A43;}
	.st4{fill:#22606C;}
	.st5{fill:#263E50;}
	.st6{fill:#2D2A3C;}
	.st7{fill:#258F8E;}
	.st8{fill:#235464;}
	.st9{fill:#42AE92;}
	.st10{fill:#29948E;}
	.st11{fill:#313646;}
	.st12{fill:#37AA98;}
	.st13{fill:#30263A;}
	.st14{fill:#3A9884;}
	.st15{fill:#27223D;}
	.st16{fill:#217E85;}
	.st17{fill:#343E4A;}
	.st18{fill:#1B6A78;}
	.st19{fill:#1E4F62;}
	.st20{fill:#2E897C;}
	.st21{fill:#241E39;}
	.st22{fill:#4ABEA4;}
	.st23{fill:#20767D;}
	.st24{fill:#2D7C73;}
	.st25{fill:#5AC9A4;}
	.st26{fill:#75E3B3;}
	.st27{fill:#030202;}
</style>
<g>
	<path class="st0" d="M254,129.7C253.8,199.1,198,255,128.6,255c-69,0-125-55.4-125.4-125.4C3.5,60.1,59.2,4.6,128.7,4.3
		C198.7,4.6,253.9,60.8,254,129.7z M174.9,74.1c1.1,0.1,2.2,0.1,3.3,0.2c0.7,0,1.5,0.1,2.3,0.1c1,0,2.1,0,3.1,0.1
		c0.6,0.2,1.2,0.3,1.9,0.2c2.1,0.1,4.3,0.3,6.5,0.4c0.8,0,1.5,0.1,2.3,0.2c0.6,0,1.2,0,1.9,0c0.4,0,0.8,0,1.2,0
		c2.5,0.4,5,0.3,7.5,0.5c2,0.1,3.9,0.2,5.9,0.4c1.8,0.1,3.5,0.2,5.3,0.3c1.6,0.1,3.2,0.3,4.8,0.4c1.9,0.1,3.8,0.2,5.7,0.3
		c0.6,0,1,0.2,1.2,0.8c0.1,0.2,0.2,0.4,0.3,0.6c0.7,1.5,1.5,3,2.3,4.6c0.3,0.7,0.7,1.3,1,1.9c0.2,1.1,1.1,2,1.3,3.3
		c-0.2,0.1-0.5,0.3-0.7,0.5c-1.6,1.3-3,2.7-4.6,3.9c-1.5,1.2-2.8,2.5-4.3,3.8c-0.9,0.8-1.8,1.7-2.7,2.5c-0.9,0.8-1.9,1.6-2.8,2.4
		c-0.8,0.7-1.6,1.5-2.5,2.3c-1.1,0.9-2.1,1.9-3.2,2.8c-0.2,0.1-0.4,0.1-0.5,0.3c-0.6,0.6-1.2,1.2-1.8,1.7c-1.3,1.2-2.5,2.3-3.8,3.4
		c-1.2,1-2.4,2-3.6,3.1c-1.4,1.2-2.8,2.5-4.2,3.7c-2,1.8-4.1,3.5-6,5.5c-1.3,0.9-2.3,2-3.5,3.1c1.4,1,2.7,2,4.2,2.7
		c0.2,0.2,0.4,0.4,0.6,0.5c2.8,1.9,5.7,3.7,8.6,5.5c0.9,0.6,1.8,1.1,2.7,1.7c0.9,0.6,1.9,1.2,2.8,1.9c0.2,0.4,0.6,0.6,1,0.6l0,0
		c0.1,0.1,0.3,0.3,0.4,0.5c1.4,1,2.8,1.9,4.2,2.9c7.3,4.8,14.6,9.7,21.8,14.5c1.3,0.8,2.6,1.7,3.9,2.5c1,0.7,2,1.4,3,2.1
		c1,0.7,1.9,1.5,3.2,1.9c0.6-1.7,1-3.3,1.3-5c0.5-2.3,1.1-4.6,1.6-6.9c0.3-1.4,0.4-2.8,0.7-4.3c0.5-2.1,0.7-4.4,0.9-6.6
		c0.3-2.4,0.5-4.8,0.5-7.2c0-0.7,0.1-1.3,0.2-2c0-3.9,0-7.8-0.3-11.6c-0.1-1.5-0.3-3.1-0.4-4.6c-0.1-0.9-0.2-1.7-0.4-2.6
		c-0.1-2.3-0.6-4.5-1-6.7c-1.9-10.3-5.2-20.1-9.7-29.6c-0.2-0.5-0.5-0.9-0.7-1.3c-1-2.5-2.3-4.7-3.6-7c-0.8-1.4-1.8-2.8-2.6-4.2
		c-0.1-0.2-0.1-0.4-0.2-0.6c-2.3-3.5-4.7-7-7.4-10.3c-0.1-0.1-0.2-0.2-0.3-0.3c-0.6-0.5-1.1-1-1.4-1.6c-0.2-0.2-0.3-0.5-0.5-0.7
		c-3-3.4-6-6.8-9.4-9.9c-3.3-3-6.6-5.9-10.2-8.6c-0.6-0.5-1.3-0.8-1.9-1.3c-0.3-0.6-1-0.9-1.5-1.3c-2.2-1.4-4.4-2.9-6.6-4.3
		c-2.2-1.3-4.5-2.6-6.7-3.8c-2.3-1.2-4.7-2.3-7.1-3.4c-0.1,0-0.2,0-0.3,0c-0.5-0.2-0.9-0.5-1.4-0.7c-6.1-2.6-12.4-4.6-18.8-6.3
		c-0.8-0.2-1.7-0.3-2.6-0.5c-0.1,0-0.2-0.1-0.3-0.2c-6.1-1.3-12.2-2.2-18.4-2.5c-3.2-0.2-6.3-0.1-9.5-0.1c-0.4,0-0.7,0-1.1,0
		c-2.2,0.1-4.3,0-6.5,0.3c-1.7,0.2-3.4,0.2-5.1,0.5c-1.9,0.2-3.7,0.6-5.5,0.8c-3.4,0.5-6.7,1.3-10,2c-1.2,0.3-2.4,0.7-3.5,1.1
		c-0.4,0.1-0.7,0.1-1.1,0.2c-3,1-6.1,2-9.1,3.2c-2.5,0.9-4.9,2-7.3,3.1c-2.7,1.2-5.3,2.5-7.8,4.1c-0.4,0.2-0.8,0.4-1.3,0.6
		c-3.6,2.1-7.1,4.3-10.4,6.7c-2.6,1.9-5.1,3.8-7.6,5.9c-1.1,0.9-2.1,2-3.3,2.9c-1.9,1.6-3.6,3.3-5.2,5.1c-0.3,0.3-0.7,0.5-0.9,0.8
		c-1.7,1.9-3.3,3.7-4.9,5.6c-1.6,2-3.2,3.9-4.7,5.9c-2,2.6-3.9,5.3-5.5,8c-1.6,2.7-3.3,5.5-4.8,8.3c-0.2,0.4-0.3,0.8-0.5,1.3
		c-0.2,0.3-0.5,0.7-0.7,1c-0.9,2-1.9,4-2.7,6.1c-1.2,2.7-2.3,5.4-3.2,8.2s-1.8,5.6-2.6,8.5c-0.5,1.7-0.7,3.4-1.1,5.2
		c-0.1,0.2-0.2,0.4-0.2,0.6c-0.2,1.3-0.5,2.7-0.7,4.1c-0.6,2.6-0.8,5.2-1.1,7.8c-0.1,1.7-0.5,3.4-0.4,5.1c0,0.1,0,0.3,0,0.5
		c-0.1,0.8-0.2,1.5-0.2,2.3c0,3.7,0,7.5,0,11.2c0,0.5,0,0.9,0,1.4c0.5,1.8,0.1,3.7,0.5,5.5c0.3,1.3,0.2,2.7,0.4,4
		c0.2,1.8,0.6,3.6,0.9,5.3c0.5,2.5,1,5,1.5,7.4c0.3,1.2,0.7,2.4,1,3.6c0.4,0.8,0.3,1.8,0.9,2.5c0,0.7,0.3,1.3,0.6,1.9
		c0.1,0.5,0.1,1,0.3,1.5c0.9,2.5,1.9,5,2.8,7.5c0.4,1.1,1,2.1,1.5,3.2c0.1,0.4,0.2,0.9,0.5,1.3c1.2,2.4,2.5,4.8,3.7,7.2
		c1.7,3.2,3.6,6.3,5.6,9.3c1.3,1.9,2.5,3.7,3.8,5.4c1.4,1.9,2.9,3.6,4.4,5.4c1.3,1.5,2.5,3,3.9,4.4c2.1,2.2,4.3,4.3,6.5,6.5
		c0.8,0.8,1.6,1.6,2.6,2.2c0.8,1.1,1.9,1.9,3.1,2.5c0,0,0,0.1,0.1,0.1c1.7,1.8,3.7,3.2,5.7,4.5c0,0,0.1,0,0.1,0
		c0.7,0.5,1.3,1.1,2,1.6c2,1.3,3.9,2.6,6,3.8c3.1,1.9,6.3,3.6,9.5,5.2c0.3,0.1,0.6,0.2,0.9,0.3c0.3,0.2,0.5,0.4,0.8,0.5
		c1.2,0.6,2.4,1.2,3.7,1.7c1.6,0.7,3.2,1.5,4.9,1.9c0.9,0.4,1.9,0.8,2.8,1.2c4.2,1.4,8.4,2.6,12.7,3.7c1.4,0.4,2.9,0.7,4.4,0.7
		c0.7,0.4,1.3,0.5,2,0.6c1.7,0.2,3.4,0.4,5.1,0.7c1.7,0.3,3.4,0.6,5.2,0.6c0.1,0,0.3,0,0.5,0c1.5,0.5,3,0.2,4.5,0.3
		c0.5,0,1,0,1.5,0.1c0.6,0,1.1,0.2,1.7,0.2c1.8,0,3.6,0,5.4,0c0.4,0,0.8,0,1.3-0.1c0.7,0,1.3-0.2,2-0.2c0.9,0,1.8,0,2.6,0
		c0.3,0,0.6-0.2,0.9-0.2c0.9,0,1.7,0,2.6-0.1c1.5-0.1,3-0.4,4.6-0.6c0.3,0,0.6,0,0.9,0c0.9-0.2,1.8-0.4,2.7-0.5
		c2.5-0.3,5-0.9,7.4-1.4c2.6-0.6,5.3-1.4,7.9-2.1c0.3-0.1,0.6-0.3,0.9-0.5c0.4-0.1,0.7-0.1,1.1-0.2c1.9-0.7,3.8-1.3,5.7-2
		c3.3-1.2,6.4-2.6,9.6-4.1c0.3-0.1,0.5-0.3,0.8-0.5c1.4-0.6,2.8-1.3,4.1-2c3-1.6,5.8-3.3,8.6-5.2c2.9-1.9,5.6-3.9,8.3-6
		c1-0.8,2-1.6,3-2.4c0.2-0.1,0.3-0.4,0.4-0.6c-0.1-0.1-0.1-0.2-0.1-0.2c-3.3-2.2-6.6-4.3-9.9-6.5c-0.2-0.1-0.6-0.1-0.9-0.2
		c0-0.4-0.2-0.7-0.6-0.9c-0.9-0.6-1.9-1.1-2.7-1.8c-1.6-1.1-3.1-2.2-4.7-3.2c-2-1.2-3.9-2.6-5.9-3.8c-2-1.2-3.9-2.5-5.9-3.8
		c-4-2.7-8.1-5.4-12.2-8.1c-2.7-1.8-5.5-3.5-8.2-5.3l0,0c-0.1-0.1-0.2-0.2-0.3-0.3c-1.8-1.2-3.5-2.4-5.3-3.5
		c-1.8-1.2-3.6-2.4-5.4-3.5c-0.2,0.2-0.3,0.4-0.4,0.6c-2.4,3.6-4.8,7.2-7.2,10.8c-1.5,2.3-3,4.6-4.5,6.8c-2.4,3.6-4.8,7.2-7.2,10.9
		c-0.2,0.3-0.3,0.7-0.5,0.9c-0.2,0.2-0.4,0.3-0.5,0.6c-0.4,0.7-0.8,1.3-1.2,2c-1.8,2.7-3.6,5.3-5.4,8c-0.1,0.2-0.2,0.5-0.3,0.7
		c-0.2,0.2-0.4,0.4-0.6,0.7c-1.3,2-2.6,3.9-3.8,5.8c-1.9,2.9-3.8,5.8-5.8,8.6c-0.7,1.1-1.4,2.1-2.1,3.2c-1.3,0-2.5,0.1-3.6,0
		c-1.1-0.2-2.3-0.2-3.4-0.2c-0.3,0-0.7,0-0.9-0.1c-0.8-0.3-1.6-0.2-2.5-0.2c-0.2,0-0.4,0-0.6,0c-1-0.1-1-0.1-1.3-1.2
		c-0.4-2-0.8-3.9-1.2-5.9c-0.7-3.1-1.3-6.1-1.9-9.2c0-0.2-0.2-0.4-0.3-0.6c0-0.5,0-1-0.1-1.5c0-0.5-0.2-0.9-0.7-1.3
		c-0.7,0-1.5,0-2.3,0c-0.4-0.4-0.8-0.3-1.3-0.2c-1.3,0-2.5,0-3.7-0.1c-0.4-0.4-0.8-0.3-1.3-0.2c-0.5,0-1,0-1.5,0
		c-0.5,0-1,0.1-1.5-0.3c0.1-0.3,0.2-0.6,0.4-0.9c0.4-0.6,0.7-1.1,1.1-1.7c1.6-2.4,3.2-4.8,4.8-7.2c0.8-1.2,1.5-2.3,2.2-3.5
		c0.3-0.5,0.5-0.9,0.4-1.4c-0.6-2.7-1.1-5.4-1.7-8.1c-0.1-0.6-0.3-1.2-0.4-1.8c-0.1-0.6-0.1-1.1-0.2-1.7c-0.2-1.2-0.5-2.3-0.7-3.5
		c-0.5-2.3-0.9-4.6-1.3-6.8c-0.6-2.9-1.2-5.8-1.8-8.6c-0.4-1.7-0.7-3.4-1-5.2c-3-1.9-5.9-3.8-8.9-5.7c-0.1-0.1-0.3-0.3-0.4-0.4
		c-2.3-1.5-4.5-3-6.8-4.5c-0.3-0.2-0.6-0.4-0.9-0.6c-6-4-12-8-18.1-12c-2.3-1.5-4.6-3-6.9-4.5c-2.4-1.7-4.9-3.3-7.3-4.9
		c-0.7-0.5-1.5-0.9-2.3-1.3c-0.2-0.2-0.4-0.4-0.7-0.6c-3.3-2.2-6.6-4.4-9.9-6.6c-0.8-0.6-1.6-1.1-2.4-1.6c0-0.4,0-0.6,0-0.9
		c0-1.2,0-2.4,0.2-3.5c0.2-1.3,0.1-2.6,0.1-3.9c0.3-0.9,0.2-2,0.3-2.9c0-0.8,0.1-0.9,1-1.1c3.4-0.7,6.7-1.4,10.1-2.1
		c2.9-0.6,5.9-1.2,8.8-1.8c1.8-0.4,3.5-0.7,5.3-1.1c3.4-0.7,6.8-1.4,10.2-2.1c2.8-0.6,5.6-1.1,8.3-1.7c0.5-0.1,1-0.3,1.4-0.5
		c0.7,0,1.4-0.1,2.1-0.2c2.8-0.6,5.5-1.2,8.3-1.7c1.1-0.2,2.2-0.6,3.3-0.7c1.6-0.2,3.3-0.6,4.8-1c2.3-0.4,4.6-0.9,7-1.3
		c0.3,0,0.5-0.3,0.7-0.5c0.1-2.4,0.3-4.7,0.4-7.1c0-1.4,0.5-2.7,0.1-4.2c0-0.1,0.1-0.3,0.1-0.5c0.1-1.5,0-3.1,0.3-4.6
		c0-0.2,0-0.4,0-0.6c0-1.3,0.1-2.6,0.2-3.9c0.1-1.9,0.3-3.7,0.5-5.6c0.1-1.5,0.1-3.1,0.3-4.6c0.2-2.6,0.3-5.2,0.4-7.8
		c0.1-2.3,0.2-4.6,0.4-7c0-0.1,0-0.2,0-0.3c0.2-2,0.4-3.9,0.5-5.9c0.1-2.6,0.3-5.2,0.4-7.8c0-0.1,0-0.2,0-0.3
		c0.2-2.3,0.4-4.5,0.5-6.8c0.1-2.6,0.3-5.2,0.4-7.8c0-0.8,0.2-1.4,1.1-1.7c0.3-0.1,0.7-0.3,1-0.5c1.1-0.6,2.2-1.2,3.3-1.7
		c0.4-0.1,0.7-0.3,1.1-0.5c1.5-0.7,3-1.4,4.5-2.2c0.6,0.7,1.2,1.4,1.8,2c2,2.3,4.1,4.6,6.2,6.9c1.1,1.3,2.1,2.5,3.3,3.8
		c0.7,0.7,1.2,1.5,2.1,2.1c1.2-0.6,2.3-1.2,3.5-1.7c1.2-0.6,2.4-1.2,3.6-1.8c1.2-0.5,2.2-1.3,3.5-1.5c0.3,0.7,0.1,1.4,0,2
		c0,0.6,0,1.1-0.1,1.7c0,1.3-0.1,2.7-0.2,4c-0.1,2.3-0.3,4.6-0.5,7c-0.1,1.2,0,2.2,1,3.1c0.6,0.5,0.9,1.1,1.4,1.6
		c1.2,1.3,2.4,2.7,3.6,4.1c1.3,1.4,2.6,2.8,3.9,4.2c0.4,0.5,0.8,1,1.3,1.5c0.8,0.9,1.7,1.9,2.5,2.8c0.1,0.2,0.2,0.4,0.4,0.5
		c2.3,2.6,4.6,5.2,6.9,7.8c0.8,0.9,1.6,1.7,2.4,2.6c0.1,0.2,0.3,0.4,0.5,0.6c0.5,0.7,1.1,0.9,2,0.9c1,0,2,0.1,2.9,0.1
		c1.3,0,2.6,0.1,4,0.2c1.7,0.1,3.5,0.2,5.2,0.4c0.2,0,0.4,0,0.6,0c1.5,0.1,3,0.1,4.5,0.2c1.1,0.1,2.2,0.2,3.3,0.3
		C172.6,74,173.8,74,174.9,74.1z M244.2,166.4c-0.3-0.3-0.6-0.5-0.9-0.7c-6.5-4.3-13-8.6-19.4-12.9c-7.5-5-15-10-22.5-15
		c-1.9-1.3-3.8-2.5-5.7-3.8c-2.6-1.7-5.2-3.3-7.7-5c-1.7-1.1-1.7-2.1-0.2-3.5c1.6-1.5,3.3-3,4.9-4.5c5.8-5.1,11.6-10.2,17.4-15.3
		c4.5-3.9,8.9-7.9,13.4-11.8c1.3-1.1,2.6-2.1,3.8-3.2c1.1-1,2.2-2,3.3-3c-1.5-3-2.9-5.9-4.4-8.7c-2.6-0.1-5.1-0.3-7.5-0.5
		c-2.2-0.1-4.5-0.2-6.7-0.4c-4-0.3-8.1-0.6-12.1-0.8c-2.4-0.1-4.7-0.3-7.2-0.4c-3.9-0.2-7.9-0.5-11.8-0.7c-3-0.2-6-0.4-9-0.6
		c-4.1-0.3-8.2-0.6-12.3-0.8c-3.2-0.2-6.3-0.4-9.5-0.6c-1,0-1.8-0.4-2.4-1.2c-2-2.3-3.9-4.5-5.9-6.8c-4.3-4.9-8.6-9.8-13-14.7
		c-1.6-1.8-3.2-3.6-4.7-5.3c-0.6-0.7-0.9-1.4-0.7-2.4c0.1-0.6,0.1-1.1,0.1-1.7c0.2-2.9,0.4-5.8,0.6-8.7c0-0.8,0.2-1.7,0-2.6
		c-0.3,0.1-0.6,0.1-0.8,0.2c-1.4,0.7-2.9,1.4-4.3,2.1c-1,0.5-2,1-3.1,1.5c-0.8,0.4-1.6,0.3-2.2-0.4c-0.3-0.3-0.6-0.6-0.8-0.9
		c-2.9-3.3-5.9-6.7-8.8-10c-0.8-1-1.6-2-2.7-2.8c-2.9,1.4-5.8,2.9-8.6,4.3c0,0.5-0.1,0.9-0.2,1.3c-0.2,3.7-0.5,7.4-0.7,11.2
		c-0.2,4-0.5,7.9-0.7,11.9c-0.3,4.4-0.6,8.8-0.8,13.2c-0.1,2.3-0.3,4.6-0.4,7c-0.3,4.2-0.6,8.5-0.8,12.7c-0.1,2.6-0.2,5.3-0.3,7.9
		c-0.1,2.6-0.3,5.3-0.5,7.9c0,0.6-0.1,1.3-0.2,1.9c-0.1,0.8-0.5,1.3-1.3,1.5c-0.7,0.2-1.3,0.3-2,0.5c-3.6,0.7-7.2,1.4-10.8,2.1
		c-4.9,1-9.8,2-14.6,2.9c-4.5,0.9-8.9,1.8-13.4,2.7c-4.3,0.9-8.5,1.7-12.8,2.6c-4.6,0.9-9.2,1.9-13.8,2.8c-0.9,0.2-1.8,0.4-2.7,0.7
		c-0.2,3.3-0.4,6.6-0.6,9.8c0.2,0.2,0.4,0.3,0.6,0.4c6.5,4.3,13,8.6,19.4,12.9c13,8.6,25.9,17.2,38.8,25.7c1.5,1,3,2,4.5,3
		c0.7,0.5,1.2,1,1.3,1.9c0.1,0.7,0.3,1.3,0.4,2c0.7,3.2,1.3,6.4,2,9.6c0.8,4,1.6,8.1,2.5,12.2c0.7,3.8,1.5,7.6,2.3,11.4
		c0.2,1,0,1.9-0.6,2.8c-2.3,3.3-4.5,6.7-6.7,10.1c-0.2,0.2-0.4,0.5-0.1,0.8c2.7,0.2,5.4,0.4,8.2,0.6c1.9,0.1,2.2,0.5,2.6,2.3
		c0,0,0,0.1,0,0.1c1,4.8,1.9,9.5,2.9,14.3c0.2,0.9,0.4,1.9,0.7,2.9c3.3,0.2,6.4,0.4,9.6,0.6c0.2-0.3,0.5-0.7,0.7-1
		c0.7-1,1.3-2.1,2-3.1c2.5-3.8,5.1-7.6,7.6-11.4c3.3-4.9,6.5-9.8,9.7-14.6c5-7.6,10-15.1,15-22.7c1.3-2,2.6-4,3.9-5.9
		c0.7-1.1,1.6-1.2,2.6-0.6c0.2,0.1,0.4,0.2,0.5,0.3c5,3.3,9.9,6.6,14.9,9.9c7.7,5.1,15.3,10.3,23.1,15.2c1.7,1.1,3.4,2.2,5.1,3.3
		c2.6,1.8,5.3,3.6,8,5.4c3,2,6.1,4,9.1,5.9c0.6,0.4,1.3,0.7,1.9,1.1c0.2-0.1,0.3-0.2,0.4-0.3c2.2-2.1,4.5-4.3,6.7-6.5
		c0.1-0.1,0.2-0.3,0.3-0.5c-3.1-2.1-6.2-4.1-9.2-6.2c-9-5.9-17.8-11.9-26.9-17.7c-5-3.2-9.9-6.5-14.8-9.7
		c-6.9-4.4-13.8-9.1-20.6-13.6c-0.9-0.6-1.9-1.2-3-1.9c-1.3,1.8-2.4,3.6-3.6,5.3c-1.2,1.8-2.4,3.6-3.6,5.4c-1.2,1.8-2.3,3.5-3.5,5.3
		c-1.2,1.8-2.4,3.6-3.6,5.4c-1.2,1.8-2.4,3.5-3.5,5.3c-1.2,1.8-2.4,3.6-3.6,5.4c-1.2,1.8-2.3,3.5-3.5,5.3c-1.2,1.8-2.4,3.6-3.6,5.4
		c-1.2,1.8-2.3,3.5-3.5,5.3c-1.2,1.8-2.4,3.6-3.6,5.4c-1.2,1.7-2.2,3.6-3.7,5.4c-1.1-5.3-2.1-10.4-3.2-15.6
		c11.4-17.2,22.8-34.5,34.2-51.8c0.2-0.3,0.4-0.6,0.6-0.9c0,0,0.1-0.1,0.1-0.1c0,0,0.1,0,0.2-0.1c0.6,0.4,1.3,0.8,1.9,1.2
		c10.8,7.2,21.6,14.4,32.4,21.6c7.4,4.9,14.7,9.8,22.1,14.7c9,5.9,18.1,11.9,27.1,17.8c0.2,0.1,0.6,0.2,0.9,0.4
		c1.3-1.5,2.6-2.9,3.8-4.4c1.3-1.5,2.5-3,3.6-4.7c-0.3-0.2-0.6-0.5-0.8-0.6c-5.8-3.9-11.6-7.8-17.5-11.6
		c-10.4-6.8-20.7-13.8-31.1-20.5c-6.7-4.4-13.4-8.9-20.1-13.3c-10.4-6.9-20.7-13.8-31.1-20.6c-7.7-5.1-15.3-10-23-15.1
		c-0.6-0.4-1.1-0.7-1.7-1.2c-3.5,5.3-6.9,10.4-10.3,15.7c-0.5-0.3-0.9-0.6-1.3-0.8c-3.1-2-6.1-4.1-9.2-6.1
		c-5.3-3.5-10.6-7-15.9-10.5c-0.2-0.1-0.3-0.3-0.6-0.6c14.8-3.1,29.6-6,44.4-8.7c41.8,27.6,83.6,55.3,125.5,82.9
		c1.3-1.7,5.2-9.2,5.4-10.6c-27.1-18.3-54.7-36.6-82.4-54.7c0.4-5.7,0.7-11.3,1.1-16.9c0.2,0,0.4-0.1,0.6-0.1
		c10.5,0.7,21,1.3,31.5,2c0,0,0.1,0,0.1,0.1c0,0,0,0.1,0.1,0.2c-0.7,0.7-1.4,1.4-2.2,2.1c-5.5,4.8-11,9.7-16.4,14.5
		c-0.6,0.5-1,1-1.5,1.5c0.4,0.3,0.7,0.5,0.9,0.7c3.8,2.5,7.5,5,11.2,7.5c10.1,6.6,20.1,13.3,30.2,19.9c3.8,2.5,7.6,5,11.4,7.6
		c5.7,3.8,11.3,7.5,17,11.2c0.2,0.1,0.5,0.3,0.9,0.5C242.1,172.9,243.2,169.7,244.2,166.4z"/>
	<path class="st1" d="M125.1,211.1c0.2-0.3,0.3-0.7,0.5-0.9c2.4-3.6,4.8-7.2,7.2-10.9c1.5-2.3,3-4.6,4.5-6.8
		c2.4-3.6,4.8-7.2,7.2-10.8c0.1-0.2,0.2-0.3,0.4-0.6c1.9,1.1,3.7,2.3,5.4,3.5c1.7,1.2,3.5,2.4,5.3,3.5c0.1,0.1,0.2,0.2,0.3,0.3l0,0
		c0,0.4,0,0.8,0.3,1.2c0.8,1.1,1.6,2.3,2.5,3.3c0.5,0.6,0.6,1.2,0.6,1.9c0,2,0,4,0,6c0,0.4,0,0.7,0,1.1c0.2,0.9,0.5,1.7,1.6,1.8
		c0.4,0,0.8,0.3,1.2,0.5c0.7,0.4,1.5,0.7,2.2,1.1c0.9,0.5,1.8,1.1,2.8,1.3c0.1,0,0.3,0.1,0.4,0.2c1.1,0.9,2.4,1.4,3.6,2.1
		c1.3,0.8,2.7,1.5,4.1,2.2c0.2,0.1,0.5,0.3,0.7,0.3c0.5,0,0.8,0.3,1.1,0.7c0.3,0.4,0.7,0.8,1.1,1.2c0.9,0,1.7,0,2.6,0
		c0.6,0,1.1,0.1,1.6,0.5c1.5,1,3,2,4.6,2.9c1.1,0.7,2.2,1.4,3.3,2c1.3,0.8,2.1,0.7,3.2-0.3c0.8-0.7,1.5-1.5,2.3-2.3
		c0.3-0.3,0.5-0.6,0.5-0.9c0.3,0,0.7,0,0.9,0.2c3.3,2.1,6.6,4.3,9.9,6.5c0,0,0,0.1,0.1,0.2c-0.1,0.1-0.2,0.4-0.4,0.6
		c-1,0.8-2,1.6-3,2.4c-2.7,2.1-5.4,4.1-8.3,6c-2.8,1.8-5.7,3.6-8.6,5.2c-1.3,0.7-2.7,1.5-4.1,2c0-1.1-0.1-2.3,0.5-3.3
		c0.1-0.2,0.1-0.5,0.1-0.7c0-1,0-2.1,0-3.1c0-0.7-0.2-1.3-0.8-1.8c-0.9,0.2-1.7,0.4-2.6,0.6c-1.8,0.4-3.7,0.7-5.4-0.3
		c-0.1,0-0.2,0-0.3,0c-0.8-0.3-1.7-0.5-2.5-0.8c-1.3-0.4-2.5-0.9-3.8-1.3c-1.3-0.4-2.4-1.2-3.1-2.4c-0.4-0.6-0.7-1.3-1.1-1.9
		c-0.4-0.7-0.9-1.5-1.3-2.3c-0.7-1.3-1.2-2.6-1.9-4c-1.4,0.4-2.6-0.6-4-0.8c-1.3-0.2-2.6-0.8-3.8-1.2c-0.8-0.2-1.5-0.6-2.3-0.7
		c-1-0.2-1.9-0.9-2.9-0.8c-0.9-0.6-2-0.4-2.9-1.1c-0.6,0-1-0.3-1.4-0.6c-0.5-0.3-0.9-0.4-1.5-0.4c-1.3,0-2.7,0-4,0
		c-0.7,0-1.3,0-1.8,0.3c-0.7,0.3-1.4,0.4-2.1,0.3c-1.5,0-3,0-4.5,0c-0.4,0-0.8,0-1.2,0.1c-0.7,0.3-1.3,0.1-1.9-0.3
		C125.7,211.3,125.4,211.2,125.1,211.1z"/>
	<path class="st2" d="M20.6,74.8c0.2-0.4,0.3-0.9,0.5-1.3c1.6-2.8,3.2-5.5,4.8-8.3c1.7-2.8,3.5-5.4,5.5-8c1.5-2,3.1-4,4.7-5.9
		c1.6-1.9,3.3-3.7,4.9-5.6c0.3-0.3,0.6-0.6,0.9-0.8c0,0.3,0.2,0.6,0.6,0.7c0.4,0,0.7,0,1.1,0c2,0,4,0,6,0c1,0,2,0.1,2.9,0.6
		c0.7,0.3,1.3,0.4,2,0.4c4.2,0,8.5,0,12.7,0c0,0.2,0,0.4,0,0.6c-0.3,0-0.6,0.2-0.7,0.5c-0.3,0.6-0.5,1.3-0.8,1.8
		c-0.7,1-1.1,2.1-1.7,3.1c-0.4,0.8-0.6,1.8-1.5,2.3c-0.1,0-0.4,0-0.5-0.2c-1-0.9-2-1.7-3-2.6c-1.6-1.6-3.3-3-5-4.3
		c-0.1-0.1-0.4-0.1-0.7-0.1c0,1.2,0,2.3-0.3,3.3c-0.4,1.5-0.4,3.1-0.9,4.5c0,0,0,0.1,0,0.1c-0.2,1.6-0.4,3.3-0.7,4.9
		c-0.2,0.8-0.2,1.8-0.7,2.5c-0.3,0.5-0.2,0.9,0.1,1.4c0.4,0.8,0.9,1.5,1.1,2.4c0.2,1.1,0.7,2,1.1,3.1c0.3,0.8,0.7,1.6,1,2.4
		c0.3,1.1,1.1,1.7,1.9,2.4c1,0.1,1.4,1,2.2,1.4c0.5,0.4,1,0.8,1.6,1.3c0,0.6-0.2,1.1-0.5,1.6c-1.2,2.5-2.4,4.9-3.5,7.4
		c-0.5,1.1-0.8,2.2-0.3,3.4c-0.1,0.3-0.3,0.7-0.1,1c0.3,0.6,0.7,1.2,0.9,1.8c1,2.3,1.9,4.7,2.9,7c0.1,0.3,0.3,0.7,0.5,1
		c0.4,0.6,0.3,1.2,0.1,1.7c-1.1,0.3-1.1,0.2-1.9,0c-0.5-0.1-1-0.4-1.5-0.4c-1,0-2-0.2-2.9-0.5c-0.3-0.1-0.6-0.1-0.9-0.1
		c-1.5,0.1-2.8-0.4-4.3-0.7c-0.2,0-0.4-0.3-0.6-0.5c0.2-0.4,0.3-0.7,0.5-1c0.7-1.3,1.4-2.5,2.2-3.7c1-1.6,1.8-3.4,3-4.9
		c0.4-0.5,0.6-1.1,0.5-1.7c-0.5-0.5-1.1-0.7-1.8-0.5c-1.7,0.6-3.5,0.5-5.1,1.1c-0.2,0.1-0.6,0.2-0.7,0c-0.7-0.4-1.3,0-2,0
		c-0.6-0.5-1.2-1-1.7-1.6c-1-1.2-2-2.4-3-3.5c-0.9-1-1.9-1.9-2.8-2.9c-0.6-0.6-1.2-0.8-1.9-0.7c-1.7,0-3.2,0.6-4.8,0.8
		c-1.9,0.3-3.7,0.7-5.6,0.7c-0.2,0-0.4,0-0.6,0c-0.4,0.1-0.7,0.4-0.6,0.8c0,0.2,0.1,0.5,0.2,0.7c0.5,0.8,1,1.5,1.8,2.1
		c0.2,0.2,0.5,0.4,0.7,0.6c0.7,0.8,1.3,1.7,2,2.6c0,0.6-0.4,0.9-1,0.9c-1,0-2,0-2.9,0c-0.5,0-0.9,0-1.3,0.1
		c-1.3,0.4-2.7,0.5-4.1,0.5c0.1-0.5,0-0.9,0.2-1.3c0.4-0.9,0.9-1.7,1.3-2.6c0.6-1.1,1.3-2.2,1.9-3.3c0.2-0.4,0.3-0.8,0.1-1.3
		c-0.1-0.4-0.2-0.9-0.2-1.3c0-0.7,0-1.4-0.2-2.1c-0.1-0.3,0-0.7-0.1-1.1c0-0.6,0-1.1,0-1.7C21.2,75.3,21,75,20.6,74.8z"/>
	<path class="st3" d="M125.1,211.1c0.3,0.1,0.6,0.2,0.8,0.4c0.6,0.5,1.1,0.7,1.9,0.3c0.4-0.1,0.8-0.1,1.2-0.1c1.5,0,3,0,4.5,0
		c0.7,0,1.4,0,2.1-0.3c0.6-0.2,1.2-0.3,1.8-0.3c1.3,0,2.7,0,4,0c0.6,0,1,0.1,1.5,0.4c0.4,0.3,0.8,0.6,1.4,0.6c0.8,0.7,2,0.5,2.9,1.1
		c1.1,0,1.9,0.7,2.9,0.8c0.8,0.2,1.5,0.5,2.3,0.7c1.3,0.4,2.5,1,3.8,1.2c1.3,0.2,2.6,1.2,4,0.8c0.7,1.4,1.3,2.7,1.9,4
		c0.4,0.8,0.8,1.5,1.3,2.3c0.4,0.7,0.7,1.3,1.1,1.9c0.7,1.2,1.7,2,3.1,2.4c1.3,0.4,2.5,0.9,3.8,1.3c0.8,0.3,1.7,0.6,2.5,0.8
		c0.1,0,0.2,0,0.3,0c1.8,1,3.6,0.7,5.4,0.3c0.8-0.2,1.7-0.4,2.6-0.6c0.6,0.5,0.8,1.1,0.8,1.8c0,1,0,2.1,0,3.1c0,0.3,0,0.6-0.1,0.7
		c-0.7,1.1-0.5,2.2-0.5,3.3c-0.3,0.2-0.5,0.4-0.8,0.5c-3.1,1.5-6.3,2.9-9.6,4.1c-1.9,0.7-3.8,1.3-5.7,2c-0.3,0.1-0.7,0.2-1.1,0.2
		c-0.4-0.2-0.7-0.4-1.1-0.6c-1-0.6-2-1.3-3.1-1.7c-1.1-0.4-1.9-1-2.6-1.8c-0.2-0.2-0.5-0.4-0.7-0.6c-0.1-0.3-0.1-0.7-0.3-0.9
		c-0.7-1-1.4-2-2.2-3c-0.9-1.1-1.5-2.3-2.5-3.3c-0.5-0.5-0.8-1-1.4-1.3c-1.9-0.9-3.9-1.8-5.8-2.7c-0.5-0.2-1.1-0.4-1.6-0.7
		c-1.3-0.7-2.7-1.2-3.8-2.3c-0.4-0.5-1-0.8-1.5-1c-0.8-0.3-1.5-0.7-2.1-1.3c-0.7-0.6-1.5-0.8-2.3-1.2c-0.3-0.1-0.8,0-1.2-0.1
		c-0.2,0.3-0.4,0.5-0.5,0.7c-0.4,1.1-1.3,1.9-2.1,2.6c-0.3,0.3-0.8,0.6-1.3,0.6c-0.7,0-1.2,0.3-1.8,0.7c-0.3-0.2-0.7-0.4-0.8-0.7
		c-0.3-0.4-0.7-0.7-1.1-0.8c-0.5-0.1-0.9-0.4-1.2-0.9c-0.2-0.3-0.5-0.6-0.8-0.7c-0.6-0.1-0.9-0.5-1.3-0.8c-1-0.9-2.1-1.6-3.6-1.1
		c-0.3,0.1-0.7,0-1.1,0c0.1-0.2,0.1-0.5,0.3-0.7c1.8-2.7,3.6-5.3,5.4-8c0.4-0.7,0.8-1.3,1.2-2C124.7,211.5,124.9,211.3,125.1,211.1z
		"/>
	<path class="st4" d="M96.2,21.1c-1.1,0.6-2.2,1.2-3.3,1.7c-0.3,0.2-0.6,0.4-1,0.5c-0.8,0.3-1,0.9-1.1,1.7c-0.1,2.6-0.2,5.2-0.4,7.8
		c-0.1,2.3-0.3,4.6-0.5,6.8c0,0.1,0,0.2,0,0.3c-0.1,2.6-0.2,5.2-0.4,7.8c-0.1,2-0.3,3.9-0.5,5.9c0,0.1,0,0.2,0,0.3
		c-0.1,2.3-0.3,4.6-0.4,7c-0.1,2.6-0.2,5.2-0.4,7.8c-0.1,1.5-0.2,3.1-0.3,4.6c-0.1,1.9-0.3,3.7-0.5,5.6c-0.1,1.3-0.1,2.6-0.2,3.9
		c-0.3,0-0.6,0-0.8,0c-0.7,0.4-1.3,0.1-2-0.1c-0.6-0.2-1.2-0.5-1.8-0.6c-1.4-0.2-2.8-0.6-4.2-1c-0.5-0.1-0.8-0.3-0.9-0.7
		c-0.1-0.4-0.2-0.9-0.3-1.3c-0.1-0.9,0.1-1.8,0.4-2.7c0.2-0.9,0.3-2,0.4-2.9c0,0,0-0.1,0-0.1c0.1-0.8,0.4-1.6,0.4-2.4
		c0-1.3,0.5-2.6,0.4-4c0-0.2,0-0.4,0.1-0.6c0.5-0.7,0.5-1.6,0.5-2.4c0-0.6,0-1.2,0.5-1.8c0.2-0.3,0.4-0.7,0.4-1.1
		c0-0.7,0-1.4-0.1-2.1c-0.2-1.4-0.6-2.8-0.5-4.3c0-0.7,0.1-1.4-0.1-2c-0.2-0.7-0.2-1.4-0.2-2.1c0-0.4,0-0.7,0-1.1
		c-0.2-0.7-0.2-1.5-0.3-2.3c0-0.8-0.3-1.6-0.3-2.5c0-0.7-0.3-1.3-1-1.6c0-0.7-0.7-0.9-0.8-1.4c-0.6-1.4-1.4-2.6-2.3-3.9
		c0-0.4-0.2-0.6-0.6-0.6c0-1-0.6-1.6-1.2-2.2c-0.4-0.4-0.8-0.7-1-1.3c0-0.2-0.2-0.5-0.4-0.7c-0.5-0.5-0.6-1.1-0.8-1.6
		c-0.2-0.6-0.3-1.2-0.5-1.8c-0.1-0.3-0.2-0.7-0.2-1.1c0-1.1-0.2-2-0.5-3.1c-0.1-0.5-0.1-0.9-0.2-1.3c2.5-1.6,5.2-2.8,7.8-4.1
		c2.4-1.1,4.8-2.1,7.3-3.1c3-1.1,6-2.1,9.1-3.2c0.3-0.1,0.7-0.1,1.1-0.2c0,1-0.1,2,0.5,3c0.1,0.1,0.1,0.4,0.1,0.6
		c0,0.8,0.1,1.5,0.3,2.3C96,19.7,96.1,20.4,96.2,21.1z"/>
	<path class="st5" d="M43.9,89.5c0.7-0.1,1.3-0.4,2,0c0.2,0.1,0.5,0,0.7,0c1.7-0.6,3.5-0.5,5.1-1.1c0.6-0.2,1.2,0,1.8,0.5
		c0.1,0.6-0.1,1.2-0.5,1.7c-1.2,1.5-2,3.3-3,4.9c-0.8,1.2-1.5,2.5-2.2,3.7c-0.2,0.3-0.3,0.7-0.5,1c0.2,0.2,0.4,0.4,0.6,0.5
		c1.4,0.3,2.8,0.7,4.3,0.7c0.3,0,0.7,0,0.9,0.1c0.9,0.4,1.9,0.5,2.9,0.5c0.5,0,1,0.2,1.5,0.4c0.7,0.2,0.7,0.2,1.9,0
		c0.2-0.6,0.2-1.2-0.1-1.7c-0.2-0.3-0.3-0.7-0.5-1c-1-2.3-1.9-4.7-2.9-7c-0.3-0.6-0.6-1.2-0.9-1.8c-0.2-0.4,0-0.7,0.1-1
		c0.1,0,0.2,0.1,0.3,0.1c1.3,1.8,2.7,3.6,4.1,5.4c1.2,1.6,2.3,3.2,3.4,4.7c0.1,0.3,0.2,0.6,0.2,0.9c0.1,0.4,0,0.8-0.4,0.9
		c-1,0.2-1.4,1.1-2.1,1.7c-0.4,0.4-0.5,0.9-0.4,1.4c-0.5,0.1-1,0.4-1.4,0.5c-2.8,0.6-5.6,1.1-8.3,1.7c-3.4,0.7-6.8,1.4-10.2,2.1
		c-1.8,0.4-3.5,0.7-5.3,1.1c-2.9,0.6-5.9,1.2-8.8,1.8c-3.4,0.7-6.8,1.4-10.1,2.1c-0.8,0.2-0.9,0.3-1,1.1c0,1,0,2-0.3,2.9
		c-0.3,0-0.6,0-0.8,0c-0.9-0.4-2-0.3-2.9-0.3c-0.3,0-0.5,0-0.8,0c-0.6,0-1-0.2-1.3-0.7c-0.2-0.4-0.3-0.8-0.8-0.8
		c0.3-2.6,0.6-5.2,1.1-7.8c0.3-1.3,0.5-2.7,0.7-4.1c0-0.2,0.2-0.4,0.2-0.6c1.3,0.1,2.6,0.5,3.9,0.4c0.2,0,0.4,0.1,0.6,0.1
		c1.2,0,2.4,0.1,3.6,0.1c0.3,0,0.7-0.3,1-0.4c0.1-0.6,0.1-1.1,0-1.6c-0.5-2-1.3-4-1.2-6.2c0-0.2-0.1-0.4-0.2-0.6
		c-0.2-1.2-0.5-2.4-0.4-3.7c0-0.5,0.1-0.9,0.7-1.2c1.4,0,2.7,0,4.1-0.5c0.4-0.1,0.9-0.1,1.3-0.1c1,0,2,0,2.9,0c0.6,0,0.9-0.3,1-0.9
		c0.5,0.5,1.1,1,1.6,1.5c1.2,0,2.4,0.1,3.6,0c0.8-0.1,1.6-0.2,2.5-0.2c2.3,0,4.6,0,6.8,0c0.4,0,0.7,0,1.1,0
		C43.6,90.3,43.9,90,43.9,89.5z"/>
	<path class="st6" d="M51.9,223.3c-1.2-0.6-2.2-1.4-3.1-2.5c-0.1-1.5-0.4-3-0.7-4.4c-0.1-0.5-0.1-0.9-0.3-1.3
		c-0.3-1.3-0.7-2.6-0.8-3.9c0-0.4-0.3-0.8-0.4-1.2c-0.1-0.2-0.3-0.5-0.3-0.7c0-0.8-0.5-1.2-1.2-1.4c-0.5-0.2-1-0.5-1.6-0.7
		c-0.9-0.4-1.9-0.8-2.8-1.2c-0.5-0.2-1.1-0.4-1.6-0.7c-1.5-0.7-3.1-1.2-4.5-2.1c-1.1-0.7-1.2-0.8-0.2-1.8c0.2-0.2,0.5-0.4,0.7-0.6
		c1.1-0.7,2.2-1.6,3.1-2.6c0.2-0.2,0.6-0.4,0.9-0.6c1.2-0.7,2.4-1.2,2.6-2.8c0-0.1,0.1-0.2,0.1-0.3c1.2-2.7,2.4-5.4,3.6-8.1
		c0.2-0.4,0.3-0.9,0.5-1.3c0.1-0.5,0.1-1-0.3-1.4c-0.3-0.3-0.5-0.7-0.7-1c-0.4-0.5-0.5-1-0.3-1.6c0.3-0.8,0.3-1.8,0.1-2.6
		c-0.3-1.8-0.3-3.7-0.6-5.5c-0.1-0.6-0.1-1.1-0.7-1.5c0.4-0.9,0.4-0.9,1.2-0.8c0.6,0.1,1.2,0.1,1.9,0.2c0.4,0,0.8,0,1.1,0.1
		c0.6,0.3,1.2,0.7,1.9,0.3c1.3,0.2,2.6,0.4,3.9,0.7c1.1,0.2,2.2,0.6,3.3,0.5c0.2,0,0.4,0.1,0.6,0.1c0.2,0.5,0.1,0.7-0.2,1
		c-1.1,0.9-2.2,1.7-3.2,2.7c-2.2,2.1-4.4,4.4-6.6,6.6c-0.3,0.3-0.6,0.7-1,1c0.3,0.7,0.5,1.5,0.9,2c0.4,0.6,1.2,0.8,1.8,1.3
		c0.1,1.3,0.7,2.2,2,2.7c0.4,0.1,0.6,0.4,0.7,0.8c0.2,1,0.8,1.6,1.7,2.1c0.5,0.3,0.7,0.7,0.8,1.3c0,0.4,0.2,0.8,0.3,1.2
		c0.3,0.8,0.7,1.5,0.8,2.3c0.1,0.6,0.4,1.2,0.5,1.8c0.2,1,0.9,1.5,1.8,1.8c1.7,0.5,3.4,1.1,5.2,1.6c0.2,0,0.4,0,0.6,0.1
		c0.8,0.5,1.7,0.5,2.6,0.5l0,0c0.1,0.2,0.2,0.3,0.3,0.5c0.7,1.6,1.4,3.3,2.4,4.8c0.9,1.5,1.6,3.1,2.5,4.7c-0.2,1-0.4,2.1,0,3.1
		c0.3,0.7,0.4,1.5,0.4,2.2c0,0.6,0,1.2,0.3,1.7c0.3,0.6,0.4,1.2,0.4,1.8c0,0.6,0,1.2,0.3,1.8c0.2,0.4,0.2,0.9,0.3,1.3
		c0,0.6,0,1.1,0,1.7l0,0c-0.4-0.1-0.8-0.1-1.2-0.3c-1.3-0.5-2.6-1.1-3.9-1.6c-1.4-0.5-2.9-1.1-4.3-1.8c-0.9-0.5-1.9-0.7-2.9-1.2
		c-0.5-0.2-0.8,0-1.2,0.2c-1.1-0.1-2.1,0.1-3.2,0.4C54.8,222.7,53.4,223,51.9,223.3z"/>
	<path class="st7" d="M136.3,57.4c-0.4-0.5-0.8-1-1.3-1.5c0.1-0.4,0.1-0.7,0.2-1c0.3-0.6,0.5-1.3,0.5-1.9c0-0.4,0.2-0.8,0.3-1.2
		c0.1-0.4,0.2-0.8,0.3-1.2c0.1-0.5,0.2-0.9,0.3-1.3c0.1-0.4,0.3-0.8,0.3-1.2c0-0.7,0.2-1.4,0.5-2.1c0.1-0.3,0.1-0.7,0.2-1
		c1-0.1,2,0.1,3.1,0.3c0.6,0.1,1.1,0.3,1.6,0.4c0.4,0.1,0.8,0.1,1.2,0.1c0.6,0,0.9-0.3,0.9-0.8c0-0.8,0.1-1.6,0.5-2.4
		c0.1-0.2,0.1-0.5,0.1-0.7c0-0.8,0-1.5,0.5-2.2c0.1-0.2,0.1-0.6,0.2-0.9c0.2-1.3,0.4-2.6,1.1-3.8c0.3-0.5,0.6-1.1,0.8-1.7
		c0.3-0.6,0.7-1.2,1.3-1.5c0.2-0.1,0.5-0.3,0.6-0.5c0.5-0.9,1.1-1.8,1.5-2.8c1.8,0.4,3.6,0.7,5.4,1.2c2.2,0.7,4.4,1,6.6,1.4
		c1,0.2,1.3,0,1.3-1.1c0-0.1,0-0.3,0-0.5c0-3.9,0-7.9,0-11.8c0-0.3,0-0.7,0-0.9c-0.1-0.4-0.2-0.8-0.6-1c-0.6,0.1-1,0.4-1.3,0.7
		c-2.8,2.7-5.7,5.4-8.5,8.2c-0.7,0.7-1.4,1.4-2.1,2.1c-0.3,0.2-0.6,0.5-0.8,0.7c-0.1-0.2-0.3-0.3-0.3-0.5c-0.1-0.7,0-1.3,0.2-2
		c0.5-1.5,0.4-3.3,1-4.8c0.1-0.2,0-0.5,0-0.8c0-0.2,0-0.5,0.1-0.7c0.7-1.9,0.7-3.9,1.1-5.9c0.3-1.2,0.3-1.3,1.7-1.6
		c0.9,0.1,1.7,0.3,2.6,0.5c6.4,1.6,12.7,3.7,18.8,6.3c0.5,0.2,0.9,0.5,1.4,0.7c-0.7,0.6-0.5,1.2-0.1,1.8c0.7,1.2,1.5,2.4,2.3,3.5
		c1,1.6,2.2,3.1,3.1,4.8c0.4,0.6,0.7,1.2,1.1,1.8c0.2,0.3,0.5,0.7,0.1,1.1c0,0-0.1,0-0.1,0c-1.7-0.7-3.4-1.4-5.1-2.2
		c-2-0.9-3.9-1.8-5.9-2.6c-0.3-0.1-0.7-0.2-1-0.3c-0.7-0.1-1.1,0.2-1.2,0.8c0,0.4,0,0.8,0,1.3c0,2.6,0,5.3,0,7.9
		c0,0.3-0.1,0.7-0.2,1.1c-1.3-0.4-2.5-0.1-3.5-0.8c-0.2-0.1-0.5-0.1-0.7,0c-1.4,0.1-2.7-0.3-4.1-0.5c-0.9-0.1-1.9-0.1-2.8,0
		c-0.5,0-0.8,0.5-0.7,1c0,0.1,0,0.3,0.1,0.5c0.7,1.6,1.3,3.3,2.1,4.8c0.7,1.5,1.1,3.2,2,4.5c0.2,1.3,0.8,2.3,1.3,3.4
		c0.7,1.4,1.3,2.9,2,4.4c0.2,0.6,0.4,1.3,0.5,1.9c-0.1,0-0.2,0-0.3,0c-0.5-0.3-1-0.3-1.5-0.3c-0.8,0-1.7,0-2.5,0
		c-0.4,0-0.9,0-1.2-0.1c-1.2-0.5-2.4-0.5-3.7-0.5c-1.4,0-2.9,0-4.2-0.7l0,0c0-0.5-0.4-0.8-0.7-1.2c-2.3-2.3-4.6-4.7-7-7
		c-0.2-0.2-0.5-0.4-0.7-0.6c-0.7,0.5-1.3,1.1-1.7,1.9c-0.1,0.3-0.3,0.6-0.5,0.8c-0.9,1.2-1.8,2.4-2.6,3.6c-0.6,0.8-1.4,1.5-1.7,2.6
		c0,0,0,0.1-0.1,0.1c-0.5,0.5-0.8,1-1.2,1.6C136.8,57.2,136.6,57.2,136.3,57.4z"/>
	<path class="st8" d="M78.1,42.8c0.7,0.3,0.9,0.9,1,1.6c0,0.8,0.2,1.6,0.3,2.5c0,0.8,0,1.5,0.3,2.3c0.1,0.3,0,0.7,0,1.1
		c0,0.7,0,1.4,0.2,2.1c0.2,0.7,0.1,1.3,0.1,2c-0.1,1.4,0.3,2.9,0.5,4.3c0.1,0.7,0.1,1.4,0.1,2.1c0,0.4-0.2,0.8-0.4,1.1
		c-0.5,0.6-0.5,1.1-0.5,1.8c0,0.8,0,1.7-0.5,2.4c-0.1,0.2-0.2,0.4-0.1,0.6c0.1,1.3-0.3,2.6-0.4,4c0,0.8-0.3,1.6-0.4,2.4
		c0,0,0,0.1,0,0.1c-0.1,1-0.1,2-0.4,2.9c-0.2,0.9-0.5,1.8-0.4,2.7c0,0.5,0.1,0.9,0.3,1.3c0.1,0.4,0.5,0.7,0.9,0.7
		c1.4,0.3,2.8,0.7,4.2,1c0.6,0.1,1.2,0.4,1.8,0.6c0.7,0.2,1.3,0.5,2,0.1c0.2-0.1,0.5,0,0.8,0c0,0.2,0.1,0.4,0,0.6
		c-0.3,1.5-0.2,3.1-0.3,4.6c0,0.1-0.1,0.3-0.1,0.5c0.3,1.4-0.1,2.8-0.1,4.2c-0.1,2.3-0.2,4.6-0.4,7.1c-0.2,0.1-0.5,0.4-0.7,0.5
		c-2.3,0.5-4.6,0.9-7,1.3c0-0.7,0.1-1.4-0.1-2c-0.4-1.1-0.6-2.2-0.5-3.3c0-0.8-0.4-1.4-1.3-1.5c-0.2-0.1-0.3-0.2-0.5-0.3
		c-1.4-0.3-2.9-0.7-4.3-1.2c-1-0.3-2-0.5-3-0.7l0,0c0-0.7,0.1-1.3,0.7-1.8c0.3-0.3,0.5-0.7,0.7-1c0.2-0.3,0.4-0.7,0.7-1
		c1-0.9,1.6-2.3,2.5-3.3c0.5-0.6,0.9-1.3,1.5-2c0.6-0.6,1-1.3,1-2.2c-0.2-0.1-0.4-0.3-0.6-0.4c-1.2-0.3-2.3-0.6-3.4-0.8
		c-1-0.2-2-0.2-2.9-0.4c-1-0.3-2-0.6-3-0.6c-0.2,0-0.5-0.1-0.7-0.2c-0.6-0.3-1.3-0.5-2-0.4c-0.3,0-0.6,0-0.9-0.1
		c-1.1-0.3-2.2-0.6-3.3-0.8c-0.5-0.4-1-0.8-1.6-1.3c0-1-0.1-1.9-0.7-2.8c-0.7-1.3-1.1-2.7-1.2-4.3c-0.1-1.1,0.4-1.8,1.3-2.3
		c0.9-0.5,1.8-0.9,2.6-1.3c1.5-0.6,3.1-1.2,4.6-1.8c1.8-0.7,3.6-1.6,5.3-2.4c0.1-0.1,0.2-0.3,0.4-0.4c-0.2-0.4-0.4-0.8-0.5-1.2
		c-0.2-0.7-0.3-1.3-0.5-2c-0.2-1.2-0.3-2.3-0.8-3.4c0-0.1,0-0.3,0-0.5c0.1-0.7-0.1-1.4-0.4-2.1c-0.1-0.3-0.2-0.7-0.2-1
		c-0.1-1.1-0.2-2.1-0.4-3.2c0-0.1-0.2-0.2-0.3-0.4c0-0.2,0-0.4,0-0.6c0.3-0.8,0.8-1.4,1.9-1.3c0.3,0,0.7-0.1,1-0.3
		c0.3-0.1,0.7-0.3,1-0.3c1.4,0,2.7-0.8,4.2-0.8c0.4,0,0.7-0.1,1.1-0.2C77.1,43.5,77.7,43.3,78.1,42.8z"/>
	<path class="st9" d="M220.3,99.1c0.9-0.8,1.8-1.7,2.7-2.5c1.4-1.3,2.7-2.6,4.3-3.8c1.6-1.2,3-2.6,4.6-3.9c0.2-0.2,0.5-0.4,0.7-0.5
		c-0.1-1.3-1.1-2.1-1.3-3.3c0.7,0,1.3,0,1.9,0c0.3-0.4,0.6-0.7,0.9-1c0.3-0.3,0.4-0.7,0.4-1.1c0.1-0.3,0.2-0.6,0.3-0.9
		c0.6-0.2,0.6-0.2,0.3-0.7c0.6-1.6,1.3-3.3,1.9-4.9c0-0.1,0.3-0.3,0.4-0.4c0.3,0.5,0.6,0.9,0.7,1.3c4.5,9.4,7.8,19.3,9.7,29.6
		c0.4,2.2,0.8,4.5,1,6.7c-0.5,0-0.8,0.2-1,0.7c-0.2,0.6-0.6,1.2-0.9,1.8c-0.8,1.1-1.4,2.2-2.2,3.4c-0.4,0.7-1,1.2-1.5,1.7
		c-0.3,0.3-0.7,0.2-1,0c-0.1-0.1-0.3-0.3-0.5-0.4c-1.3-1.3-2.5-2.7-3.7-4.2c-0.3-0.4-0.6-0.7-1-1c-0.2-0.2-0.6-0.3-0.8-0.3
		c-0.8,0-1.5-0.3-2.2-0.5c-1.2-0.2-2.3-0.5-3.4-0.8c-0.6-0.1-1.1-0.2-1.7-0.3c-0.6-0.1-1.1-0.2-1.7-0.3c-0.4,0-0.7-0.1-1.1-0.2
		c-1.2-0.3-2.4-0.7-3.6-1c-0.3-0.1-0.7,0-1.1,0c-0.1,0.4-0.2,0.7-0.3,1.1c-0.1,0.3-0.4,0.7-0.5,1c-0.3,1-0.4,2-0.8,3
		c-0.2,0.6-0.4,1.1-0.7,1.7c0,0.2-0.3,0.3-0.5,0.4c-0.3,0-0.7,0-0.9-0.2c-0.6-0.6-1.3-1-2-1.3c-0.6-0.3-1.2-0.6-1.7-1
		c-1-1-2.3-1.5-3.5-2.1c0-0.2,0-0.4,0-0.6c0.6-0.4,1.1-0.7,1.9-0.7c0.2,0,0.5,0,0.7-0.1c1.8-0.7,3.8-0.7,5.5-1.4
		c0.2-0.1,0.4,0,0.6-0.1c0.2,0,0.3-0.2,0.6-0.3c-1.3-1-2.7-1.8-4-2.5c-0.8-0.4-1.6-0.7-2.5-0.7c0.1-0.6,0-1.1-0.6-1.4
		c-0.4-0.2-0.7-0.4-1.1-0.6c1.1-0.9,2.1-1.9,3.2-2.8c0,0.6,0,1.1-0.2,1.7c-0.1,0.7-0.2,1.5,0,2.2c0.1,0,0.3,0.1,0.3,0.1
		c0.7-0.3,1.4-0.6,2.2-0.7c0.7-0.7,1.9-0.4,2.6-1.1c1.1,0,2-0.7,3.1-0.9c0.2,0,0.4-0.1,0.6-0.2c0.7-0.5,0.9-0.9,0.4-1.6
		c-0.2-0.3-0.5-0.7-0.7-1c-0.6-0.6-1.2-1.2-1.5-2C221.6,99.7,221.1,99.2,220.3,99.1z"/>
	<path class="st10" d="M166.5,56.8c-0.2-0.7-0.3-1.3-0.5-1.9c-0.6-1.5-1.3-2.9-2-4.4c-0.5-1.1-1.2-2.2-1.3-3.4c-1-1.3-1.3-3-2-4.5
		c-0.8-1.6-1.4-3.2-2.1-4.8c0-0.1-0.1-0.3-0.1-0.5c-0.1-0.5,0.2-1,0.7-1c0.9,0,1.9-0.1,2.8,0c1.3,0.2,2.7,0.6,4.1,0.5
		c0.2,0,0.6,0,0.7,0c1.1,0.7,2.3,0.4,3.5,0.8c0-0.4,0.2-0.7,0.2-1.1c0-2.6,0-5.3,0-7.9c0-0.4,0-0.8,0-1.3c0-0.7,0.5-1,1.2-0.8
		c0.4,0.1,0.7,0.2,1,0.3c2,0.9,3.9,1.8,5.9,2.6c1.7,0.7,3.4,1.4,5.1,2.2c0,0,0.1,0,0.1,0c0.4-0.4,0.1-0.8-0.1-1.1
		c-0.4-0.6-0.7-1.2-1.1-1.8c-1-1.6-2.1-3.2-3.1-4.8c-0.7-1.2-1.5-2.3-2.3-3.5c-0.4-0.6-0.6-1.3,0.1-1.8c0.1,0,0.2,0,0.3,0
		c2.4,1.1,4.7,2.2,7.1,3.4c2.3,1.2,4.6,2.5,6.7,3.8c2.2,1.3,4.4,2.8,6.6,4.3c0.6,0.4,1.2,0.7,1.5,1.3c-0.9,0.2-1.8,0.4-2.7,0.7
		c-1.3,0.5-2.6,1.1-4,1.6c-1.6,0.6-2.8,1.7-3.7,3.2c-1.1,1.9-2.1,3.9-3.3,5.8c-0.2,0.5-0.5,0.9-0.8,1.3c-0.7,0.8-1.1,1.8-1.3,2.7
		c-0.1,0.5-0.3,0.8-0.7,1.2c-0.2,0.3-0.5,0.6-0.7,0.8c-1,1.3-2,2.7-3,4.1c-1.4,2-2.9,3.9-4.3,5.9c-0.2,0.3-0.3,0.7-0.5,1.2
		c-0.1,0-0.2,0-0.3,0c-1-0.1-1.7-1.1-2.8-1.2c-1.1-0.7-2.4-1.1-3.6-1.6C167.7,57.1,167.1,57,166.5,56.8z"/>
	<path class="st11" d="M66,203.1c-0.9,0-1.8,0-2.6-0.5c-0.2-0.1-0.4-0.1-0.6-0.1c-1.7-0.5-3.4-1-5.2-1.6c-0.9-0.3-1.5-0.8-1.8-1.8
		c-0.1-0.6-0.4-1.2-0.5-1.8c-0.1-0.8-0.6-1.5-0.8-2.3c-0.1-0.4-0.3-0.8-0.3-1.2c0-0.6-0.3-1-0.8-1.3c-0.8-0.5-1.4-1.2-1.7-2.1
		c-0.1-0.4-0.3-0.7-0.7-0.8c-1.3-0.5-1.8-1.4-2-2.7c-0.7-0.5-1.3-0.7-1.8-1.3c-0.4-0.6-0.6-1.3-0.9-2c0.3-0.4,0.7-0.7,1-1
		c2.2-2.2,4.4-4.4,6.6-6.6c1-1,2.1-1.8,3.2-2.7c0.3-0.3,0.5-0.6,0.2-1c-0.2,0-0.4-0.1-0.6-0.1c-1.2,0.1-2.2-0.2-3.3-0.5
		c-1.3-0.3-2.6-0.5-3.9-0.7c-0.7,0.3-1.3,0-1.9-0.3c-0.3-0.1-0.7,0-1.1-0.1c-0.6,0-1.2-0.1-1.9-0.2c-0.7-0.1-0.8-0.1-1.2,0.8
		c-0.3,0.1-0.7,0.3-0.9,0.5c-0.4,0.2-0.7,0.2-0.9-0.1c0.4-0.7,0.4-1.2-0.1-1.9s-0.7-1.4-0.3-2.2c0-0.1,0-0.2,0-0.4
		c-0.2-0.3-0.6-0.7-0.8-1c-0.6-0.9-1.3-1.5-2.3-2c-0.8-0.4-1.6-1-2.3-1.5c-0.5-0.3-0.6-0.8-0.3-1.4c0.3-0.1,0.7-0.3,1.1-0.4
		c0.4-0.1,0.7-0.1,1.1,0c1.8,0.2,3.5-0.2,5.3-0.4c1-0.1,2-0.2,2.9-0.2c0.1,0,0.3,0,0.5,0c0.6,0,1-0.3,1.3-0.7
		c0.2-0.4,0.3-0.7,0.4-1.2c0.4-1.6,0.7-3.2,1.1-4.8c0.8,0,0.9,0,1.1,0.4c0.5,1.1,1,2.2,1.5,3.2c0.7,1.4,1.4,2.7,2.2,4.1
		c0.3,0.6,0.7,1.3,1.3,1.7c2.4-0.8,4.5-2,6.6-3.1c0.5-0.2,0.9-0.6,0.9-1.2c2.3,1.5,4.5,3,6.8,4.5c0.2,0.1,0.3,0.3,0.4,0.4
		c-0.6,0.4-0.2,1-0.5,1.4s-0.2,0.9,0,1.3c0.7,1.5,0.1,2.9-0.1,4.3c-0.9,0.3-1.5-0.2-2.1-0.6c-0.9-0.5-1.9-1.1-2.8-1.6
		c-0.2-0.1-0.6-0.1-0.7,0c-0.7,0.5-1.4,0.9-1.9,1.6c-0.5,0.7-1.1,1.1-1.8,1.4c-0.8,0.3-1.3,0.9-2,1.5c-0.3,0.3-0.5,0.7-0.5,1.1
		c-0.1,2.1,0.1,4.2-0.2,6.3c-0.2,1.1,0.7,1.6,1.6,1.2c1.3-0.6,2.6-0.9,3.9-1.4c0.8-0.3,1.5-0.6,2.3-0.8c1.3-0.4,2.2,0.4,2,1.7
		c-0.1,0.5-0.2,1-0.2,1.5c0,1.3,0,2.5,0,3.7c0,0.3,0,0.7,0,0.9c0.3,0.9,0.2,1.8,0.3,2.7c0,0.3,0,0.7,0,0.9c0.4,1,0.2,2,0.3,3.1
		c0,0.9-0.1,1.6-0.7,2.3c-0.4,0.5-0.6,1.1-0.6,1.7c0,0.2,0,0.4-0.1,0.6C66,200,65.9,201.5,66,203.1z"/>
	<path class="st12" d="M174.9,60.2c0.1-0.4,0.2-0.8,0.5-1.2c1.4-2,2.8-3.9,4.3-5.9c1-1.4,2-2.7,3-4.1c0.2-0.3,0.4-0.6,0.7-0.8
		c0.3-0.3,0.5-0.7,0.7-1.2c0.3-1,0.6-2,1.3-2.7c0.4-0.4,0.6-0.8,0.8-1.3c1.1-2,2.1-3.9,3.3-5.8c0.8-1.4,2-2.6,3.7-3.2
		c1.3-0.5,2.6-1.2,4-1.6c0.9-0.3,1.8-0.5,2.7-0.7c0.7,0.4,1.3,0.8,1.9,1.3c3.6,2.6,6.9,5.5,10.2,8.6c3.3,3.1,6.4,6.4,9.4,9.9
		c0.2,0.2,0.3,0.5,0.5,0.7c-0.3,0-0.6,0.1-0.7,0c-0.7-0.6-1.6-0.6-2.5-0.6c-0.2,0-0.5,0-0.7-0.1c-1.6-0.3-3.3-0.2-4.9-0.8
		c0,0-0.1,0-0.1,0c-1,0.1-1.9-0.2-2.7-0.4c-0.3,0-0.6-0.2-0.9-0.2c-1.3,0-2.6-0.2-3.9-0.6c-0.4-0.1-0.8-0.1-1.1,0.3
		c-0.4,2.2,0,4.4,0.3,6.5c0.2,1.4,0.1,2.9,0.2,4.3c0,0.6-0.3,1-0.7,1.3c-0.5,0-0.9,0-1.4-0.1c-1.7-0.4-3.3-0.6-5-0.8
		c-1-0.1-2-0.3-3-0.5c-1.2-0.3-2.4-0.5-3.7-0.4c-0.3-0.1-0.6-0.5-0.9,0c-3.3,0-6.7,0-10,0c-0.4,0-0.8-0.1-1.2,0
		C177.4,60.3,176.1,60.2,174.9,60.2z"/>
	<path class="st13" d="M41.7,171.6c0.3,0.4,0.6,0.3,0.9,0.1c0.3-0.2,0.6-0.3,0.9-0.5c0.5,0.4,0.6,0.9,0.7,1.5
		c0.3,1.8,0.2,3.7,0.6,5.5c0.1,0.8,0.2,1.8-0.1,2.6c-0.2,0.6-0.1,1.1,0.3,1.6c0.3,0.3,0.5,0.7,0.7,1c0.4,0.4,0.5,0.9,0.3,1.4
		c-0.1,0.5-0.3,0.9-0.5,1.3c-1.2,2.7-2.4,5.4-3.6,8.1c0,0.1-0.1,0.2-0.1,0.3c-0.1,1.6-1.4,2.1-2.6,2.8c-0.3,0.2-0.7,0.4-0.9,0.6
		c-0.9,1-2,1.8-3.1,2.6c-0.2,0.2-0.5,0.4-0.7,0.6c-1,0.9-0.9,1.1,0.2,1.8c1.4,0.9,3,1.4,4.5,2.1c0.5,0.3,1,0.5,1.6,0.7
		c0.9,0.4,1.9,0.8,2.8,1.2c0.5,0.2,1,0.5,1.6,0.7c0.7,0.3,1.2,0.6,1.2,1.4c0,0.2,0.2,0.5,0.3,0.7c0.1,0.4,0.4,0.7,0.4,1.2
		c0.2,1.3,0.5,2.6,0.8,3.9c0.1,0.5,0.2,0.9,0.3,1.3c0.3,1.4,0.6,2.9,0.7,4.4c-1-0.6-1.8-1.3-2.6-2.2c-2.1-2.2-4.4-4.3-6.5-6.5
		c-1.3-1.4-2.6-2.9-3.9-4.4c-1.5-1.8-3-3.5-4.4-5.4c-1.3-1.8-2.6-3.6-3.8-5.4c-2-3-3.9-6.1-5.6-9.3c-1.3-2.4-2.5-4.8-3.7-7.2
		c-0.2-0.4-0.3-0.9-0.5-1.3c0.4-0.1,0.7-0.2,0.7-0.7c0-0.7,0-1.3,0.1-2c0.1-1.3,0.3-2.6,0.5-3.9c0.7-0.5,1.4-0.9,2.3-1.1
		c0.1,0,0.1-0.1,0.2-0.2c0.3,0,0.6,0,0.9,0c0.5,0,0.9-0.2,1.3-0.6c0.3,0,0.6,0,0.9,0c0.6,0,1.2-0.1,1.6-0.6c0.3,0,0.6,0,0.9,0
		c0.4,0,0.6-0.2,0.6-0.6c0.7,0,1.4,0,2.1-0.3c1.5-0.7,1.9-0.4,1.9,1.3c0,3.2,0,6.3,0,9.5c0,0.4,0,0.8,0,1.3c0,0.2,0.3,0.5,0.5,0.7
		c0.7-0.3,1.1-0.8,1.4-1.3c0.4-0.5,0.8-1.1,1.3-1.5c0.9-0.9,1.9-1.7,2.4-3c0-0.1,0.2-0.2,0.3-0.4c1.1-1,2.1-2.1,2.8-3.4
		c0.1-0.2,0.2-0.4,0.4-0.5C41.4,171.7,41.6,171.7,41.7,171.6z"/>
	<path class="st14" d="M218.8,119.3c0.1-0.1,0.4-0.2,0.5-0.4c0.2-0.6,0.4-1.2,0.7-1.7c0.4-0.9,0.5-2,0.8-3c0.1-0.3,0.3-0.7,0.5-1
		c0.1-0.3,0.2-0.7,0.3-1.1c0.4,0,0.7,0,1.1,0c1.2,0.3,2.4,0.7,3.6,1c0.3,0.1,0.7,0.1,1.1,0.2c0.6,0.1,1.1,0.2,1.7,0.3
		c0.6,0.1,1.1,0.2,1.7,0.3c1.1,0.3,2.3,0.6,3.4,0.8c0.7,0.1,1.4,0.5,2.2,0.5c0.3,0,0.6,0.1,0.8,0.3c0.4,0.3,0.7,0.7,1,1
		c1.2,1.4,2.3,2.9,3.7,4.2c0.1,0.1,0.3,0.3,0.5,0.4c0.3,0.3,0.7,0.3,1,0c0.6-0.6,1.2-1.1,1.5-1.7c0.7-1.1,1.4-2.3,2.2-3.4
		c0.4-0.5,0.7-1.2,0.9-1.8c0.2-0.5,0.5-0.7,1-0.7c0.1,0.9,0.3,1.7,0.4,2.6c0.2,1.5,0.3,3.1,0.4,4.6c0.3,3.9,0.3,7.8,0.3,11.6
		c0,0.7-0.1,1.3-0.2,2c-0.2,0.1-0.6,0.1-0.7,0.2c-1.1,0.8-2.2,1.7-3.3,2.6c-0.3,0.2-0.5,0.6-0.5,0.9c-0.3,0-0.7,0-0.9,0.2
		c-0.5,0.4-1,0.5-1.6,0.4c-0.5,0-1,0-1.5,0c-0.6,0-1.3,0-1.9,0.2c-1.3,0.3-2.5,0.5-3.8,0.5c-0.7,0-1.4,0-2.2,0c-0.5,0-1,0.1-1.5,0.3
		c-1.2,0.6-2.4,1.1-3.6,1.7c-0.2,0.1-0.3,0.3-0.4,0.5c-0.2,0.1-0.4,0.2-0.6,0.3c0-0.2,0-0.4,0-0.6c0.1-0.2,0.2-0.4,0.2-0.6
		c0.1-0.5,0.4-1,0.3-1.3c-0.3-0.7-0.1-1.4,0.1-2.1c0.2-0.8,0.4-1.7,0.3-2.6c0-0.6,0-1.2,0.2-1.8c0.2-0.7,0.4-1.4,0.4-2.1
		c0-1.3,0.1-2.6,0.5-3.8c0.2-0.7,0.1-1.3,0.1-2c0-0.5-0.5-0.8-1-0.6c-0.2,0.1-0.5,0.2-0.7,0.3c-1.2,0.8-2.5,1.2-3.6,2.1
		c-0.3,0.3-0.7,0.5-1,0.7c-1.7,1-3.3,2-5,3.1c-0.7,0.5-1.5,0.9-2.3,1.3c-0.1,0.1-0.4,0-0.6,0c-0.2-0.1-0.3-0.4-0.2-0.7
		c0.3-0.9,0.6-1.8,0.8-2.6c0.9-2.5,1.8-5.1,2.8-7.6C218.8,120.7,218.9,120,218.8,119.3z"/>
	<path class="st15" d="M117.6,222.4c0.4,0,0.7,0.1,1.1,0c1.5-0.5,2.6,0.2,3.6,1.1c0.4,0.3,0.7,0.7,1.3,0.8c0.3,0.1,0.6,0.4,0.8,0.7
		c0.3,0.5,0.7,0.7,1.2,0.9c0.5,0.1,0.8,0.4,1.1,0.8c0.2,0.3,0.6,0.4,0.8,0.7c0.6-0.3,1.1-0.7,1.8-0.7c0.4,0,0.9-0.3,1.3-0.6
		c0.8-0.7,1.7-1.5,2.1-2.6c0.1-0.2,0.3-0.4,0.5-0.7c0.4,0,0.8-0.1,1.2,0.1c0.8,0.4,1.6,0.6,2.3,1.2c0.6,0.6,1.3,1,2.1,1.3
		c0.6,0.2,1.2,0.6,1.5,1c1.1,1.2,2.5,1.7,3.8,2.3c0.5,0.2,1.1,0.4,1.6,0.7c1.9,0.9,3.8,1.8,5.8,2.7c0.7,0.3,1,0.8,1.4,1.3
		c0.9,1.1,1.5,2.3,2.5,3.3c0.8,0.9,1.4,2,2.2,3c0.2,0.2,0.2,0.6,0.3,0.9c-4.7,0-9.4,0-14.1,0c0,0-0.1,0-0.1,0c0,0-0.1,0-0.2-0.1
		c-0.4-1.4-1.1-2.9-1.3-4.5c-0.2-2-1-4-1.1-6.1c0-0.3-0.2-0.6-0.7-0.6c-0.5,0.7-0.8,1.5-1.2,2.3c-0.9,2-1.7,4.1-2.6,6.1
		c-0.4,1-0.8,1.9-0.9,3c-1.4,0.2-2.6-0.3-3.9-0.8c-1-0.4-2-0.8-3-1.3c-1.3-0.7-2.7-1.3-3.7-2.5c-0.4-0.5-0.8-1.1-1.2-1.6
		c-0.8-1.2-1.9-2-2.9-3c-0.2-0.2-0.6-0.2-0.9,0c-0.5,0.3-0.7,0.8-0.9,1.4c-0.1,0.4,0,0.8,0.3,1.2c0.4,0.6,0.3,1.1-0.1,1.5
		c-0.1,0.1-0.3,0.3-0.4,0.5c-0.3,0.5-0.5,1-0.3,1.6c0.1,0.4,0.1,0.8,0,1.2c-0.1,0.7-0.7,1-1.4,0.7c-0.8-0.3-1.4-0.8-1.7-1.7
		c-0.1-0.5-0.3-1.1-0.6-1.4c-0.5-0.5-1.1-0.7-1.7-1.1c-0.8,0.2-1.2,0.8-1.5,1.4c-0.7,1.8-2.1,3.2-2.7,5c0,0.2-0.2,0.3-0.3,0.5
		c-0.9,1.6-2.1,3.1-2.7,4.9c-0.1,0.3-0.3,0.5-0.5,0.8c-0.1,0.2-0.2,0.5-0.2,0.7c-1.5,0-3-0.4-4.4-0.7c-4.3-1.1-8.6-2.2-12.7-3.7
		c-1-0.3-1.9-0.8-2.8-1.2c0.8-0.5,1.7-0.4,2.6-0.2c1.1,0.3,2.3,0.3,3.3-0.3c1-0.6,2-1.1,3.1-1.4c0.5-0.2,0.4-0.5,0.4-0.9
		c0.8,0,1.6-0.1,2.5,0.2c0.3,0.1,0.6,0,0.9,0.1c1.1,0,2.2,0,3.4,0.2c1.2,0.2,2.4,0,3.6,0c0.7-1.1,1.4-2.1,2.1-3.2
		c1.9-2.9,3.9-5.8,5.8-8.6c1.3-2,2.6-3.9,3.8-5.8C117.2,222.8,117.4,222.5,117.6,222.4z"/>
	<path class="st16" d="M151,28.4c-0.4,1-1,1.9-1.5,2.8c-0.1,0.2-0.4,0.4-0.6,0.5c-0.7,0.3-1,0.9-1.3,1.5c-0.3,0.6-0.5,1.1-0.8,1.7
		c-0.7,1.2-0.9,2.5-1.1,3.8c0,0.3,0,0.7-0.2,0.9c-0.4,0.7-0.5,1.4-0.5,2.2c0,0.2,0,0.6-0.1,0.7c-0.4,0.7-0.5,1.5-0.5,2.4
		c0,0.6-0.3,0.8-0.9,0.8c-0.4,0-0.8,0-1.2-0.1c-0.6-0.1-1.1-0.3-1.6-0.4c-1-0.3-2-0.4-3.1-0.3c0-0.7,0-1.3,0-2c0-0.3,0-0.7,0.1-0.9
		c0.6-1.8,0.7-3.6,1.2-5.4c0.3-1,0-1.8-0.5-2.6c-0.4-0.7-0.8-1.3-1-2c0-0.2-0.2-0.4-0.3-0.6c-1-1.5-1.9-3.1-2.6-4.7
		c-0.5-1-0.5-1.8,0-2.6c0.6-1.2,1.3-2.4,1.9-3.6c0.3-0.6,0.6-1.2,0.8-1.9c0.3-0.7-0.1-1.3-1-1.3c-0.6,0-1.2,0.1-1.7-0.1
		c-1.7-0.5-3.6-0.5-5.3-0.9c-2.1,0.7-4.2,1.3-6.3,2.1c-0.7,0.3-1.6,0.4-2.3,0.9c-0.4,0.3-1.1,0.2-1.6,0.3c0,0-0.1-0.1-0.3-0.2
		c0.6-1,1.3-2,2.1-2.9c1-1.3,2-2.5,2.9-3.8c0.6-0.7,1.1-1.5,1.8-2.2c0.6-0.6,1.2-1.2,1.3-2.1c3.2,0,6.3-0.1,9.5,0.1
		c6.2,0.4,12.3,1.2,18.4,2.5c0.1,0,0.2,0.1,0.3,0.2c-1.3,0.2-1.4,0.4-1.7,1.6c-0.5,2-0.5,3.9-1.1,5.9c-0.1,0.2,0,0.5-0.1,0.7
		c0,0.3,0,0.6,0,0.8c-0.6,1.5-0.5,3.3-1,4.8c-0.2,0.7-0.3,1.3-0.2,2c0,0.2,0.2,0.3,0.3,0.5C151,27.8,151,28.2,151,28.4z"/>
	<path class="st17" d="M66,203.1c0-1.5,0-3.1,0.6-4.6c0.1-0.2,0.1-0.4,0.1-0.6c0-0.7,0.2-1.3,0.6-1.7c0.6-0.7,0.7-1.4,0.7-2.3
		c0-1,0.1-2-0.3-3.1c-0.1-0.3,0-0.6,0-0.9c0-0.9,0-1.9-0.3-2.7c-0.1-0.3,0-0.6,0-0.9c0-1.3,0-2.5,0-3.7c0-0.5,0.1-1,0.2-1.5
		c0.2-1.3-0.7-2.1-2-1.7c-0.8,0.3-1.5,0.6-2.3,0.8c-1.3,0.5-2.6,0.8-3.9,1.4c-0.9,0.4-1.8,0-1.6-1.2c0.4-2.1,0.1-4.2,0.2-6.3
		c0-0.5,0.2-0.8,0.5-1.1c0.6-0.6,1.1-1.2,2-1.5c0.7-0.3,1.3-0.7,1.8-1.4c0.5-0.7,1.2-1.1,1.9-1.6c0.1-0.1,0.5-0.1,0.7,0
		c0.9,0.5,1.9,1.1,2.8,1.6c0.6,0.3,1.2,0.8,2.1,0.6c0.3-1.4,0.8-2.8,0.1-4.3c-0.2-0.5-0.3-0.9,0-1.3c0.2-0.5-0.1-1.1,0.5-1.4
		c3,1.9,5.9,3.8,8.9,5.7c0.4,1.8,0.7,3.5,1,5.2c0.6,2.9,1.2,5.8,1.8,8.6c0.5,2.3,0.9,4.6,1.3,6.8c0.2,1.2,0.5,2.3,0.7,3.5
		c0.1,0.6,0.1,1.1,0.2,1.7c-0.4,0-0.8,0-1.3,0c-0.2,0-0.5,0.1-0.7,0.2c-1.4,0.9-2.9,1.8-4.5,2.3c-0.3,0.1-0.6,0.3-0.8,0.4
		c-2,1-4,2.1-6,3.1c-0.8,0.4-1.6,0.7-2.3,1.2C67.7,202.7,66.9,203.2,66,203.1L66,203.1z"/>
	<path class="st18" d="M126.7,8.5c-0.1,0.9-0.7,1.5-1.3,2.1c-0.7,0.7-1.2,1.4-1.8,2.2c-1,1.3-2,2.5-2.9,3.8
		c-0.7,0.9-1.5,1.9-2.1,2.9c0.1,0.1,0.2,0.2,0.3,0.2c0.6-0.1,1.2,0,1.6-0.3c0.7-0.5,1.5-0.6,2.3-0.9c2.1-0.8,4.2-1.4,6.3-2.1
		c0,0.5,0,1,0.1,1.4c0.4,1.1,1,2.1,1.5,3.2c0.6,1.2,1.1,2.4,1.6,3.7c0.5,1.2,0.3,1.7-0.7,2.4c-0.8,0.5-1.4,1.2-2.1,1.9
		c-0.8,0.8-1.7,1.7-2.5,2.5c-0.3,0.4-0.7,0.6-1.2,0.6c0-0.6,0-1.1,0.1-1.7c0-0.7,0.2-1.3,0-2c-1.3,0.2-2.4,1-3.5,1.5
		c-1.2,0.6-2.4,1.2-3.6,1.8c-1.2,0.6-2.3,1.2-3.5,1.7c-0.9-0.5-1.5-1.3-2.1-2.1c-1.1-1.2-2.1-2.5-3.3-3.8c-2-2.3-4.1-4.6-6.2-6.9
		c-0.6-0.7-1.2-1.3-1.8-2c-1.5,0.7-3,1.5-4.5,2.2c-0.4,0.2-0.7,0.3-1.1,0.5c-0.1-0.7-0.2-1.4-0.4-2.1c-0.2-0.7-0.3-1.5-0.3-2.3
		c0-0.2,0-0.4-0.1-0.6c-0.6-0.9-0.5-2-0.5-3c1.2-0.4,2.4-0.8,3.5-1.1c3.3-0.8,6.6-1.6,10-2c1.9-0.3,3.7-0.6,5.5-0.8
		c1.7-0.2,3.4-0.2,5.1-0.5c2.2-0.3,4.3-0.2,6.5-0.3C126,8.5,126.3,8.5,126.7,8.5z"/>
	<path class="st17" d="M24.9,170.7c-0.3,0-0.6,0-0.9,0c-0.7-0.3-0.9-0.2-1.3,0.6c-0.3,0-0.6,0-0.9,0c-0.2-0.2-0.4-0.3-0.7-0.2
		c-0.2,0-0.5,0.1-0.8,0.2c0-0.4,0-0.7,0.2-0.8c0.4-0.4,0.8-0.8,1.3-1.1c0.8-0.4,1.4-1,1.6-2c0-0.2,0.1-0.5,0.3-0.7
		c0.2-0.3,0.5-0.7,0.8-0.9c1.3-0.8,2.7-1.7,4.1-2.4c1.2-0.6,2.5-1,3.7-1.5c0.6-0.2,1.2-0.6,1.9-0.6c0.8,0,1-0.5,0.7-1.3
		c-1-2.8-2.1-5.6-3.1-8.4c-0.6-1.5-1.1-3.1-1.5-4.7c-0.1-0.5-0.5-0.8-0.7-1.1c0.4-0.1,0.8-0.1,1.2-0.3c2-1.1,3.9-2.2,5.9-3.4
		c0.2-0.1,0.3-0.4,0.4-0.6c2.3,1.5,4.6,3,6.9,4.5c6,4,12,8,18.1,12c0.3,0.2,0.6,0.4,0.9,0.6c0,0.6-0.4,0.9-0.9,1.2
		c-2.2,1.1-4.3,2.3-6.6,3.1c-0.6-0.5-0.9-1.1-1.3-1.7c-0.7-1.3-1.5-2.7-2.2-4.1c-0.6-1.1-1-2.1-1.5-3.2c-0.2-0.4-0.3-0.4-1.1-0.4
		c-0.3,1.6-0.7,3.2-1.1,4.8c-0.1,0.4-0.2,0.8-0.4,1.2c-0.3,0.5-0.7,0.7-1.3,0.7c-0.1,0-0.3,0-0.5,0c-1,0-2,0.1-2.9,0.2
		c-1.7,0.2-3.5,0.6-5.3,0.4c-0.4,0-0.7,0-1.1,0c-0.4,0.1-0.8,0.2-1.1,0.4c-0.4,0.6-0.2,1.1,0.3,1.4c0.7,0.6,1.5,1.1,2.3,1.5
		c0.9,0.5,1.7,1.1,2.3,2c0.2,0.4,0.6,0.7,0.8,1c0,0.2,0,0.3,0,0.4c-0.4,0.8-0.2,1.5,0.3,2.2s0.5,1.2,0.1,1.9c-0.1,0-0.3,0-0.4,0.1
		c-0.1,0.1-0.3,0.3-0.4,0.5c-0.7,1.3-1.7,2.4-2.8,3.4c-0.1,0.1-0.2,0.2-0.3,0.4c-0.5,1.3-1.5,2-2.4,3c-0.5,0.5-0.8,1-1.3,1.5
		c-0.4,0.5-0.8,1-1.4,1.3c-0.2-0.2-0.5-0.4-0.5-0.7c-0.1-0.4,0-0.8,0-1.3c0-3.2,0-6.3,0-9.5c0-1.7-0.4-2-1.9-1.3
		c-0.7,0.3-1.4,0.2-2.1,0.3c-0.4,0-0.6,0.2-0.6,0.6c-0.3,0-0.6,0-0.9,0c-0.2-0.3-0.5-0.3-0.8-0.2C25.3,170,24.9,170.2,24.9,170.7z"
		/>
	<path class="st1" d="M8.1,116.2c0.5,0,0.7,0.5,0.8,0.8c0.2,0.6,0.7,0.8,1.3,0.7c0.3,0,0.5,0,0.8,0c1,0,2-0.1,2.9,0.3
		c0.2,0.1,0.5,0,0.8,0c0,1.3,0.1,2.6-0.1,3.9c-0.2,1.2-0.2,2.4-0.2,3.5c0,0.3,0,0.5,0,0.9c0.8,0.5,1.6,1.1,2.4,1.6
		c3.3,2.2,6.6,4.4,9.9,6.6c0.2,0.2,0.5,0.4,0.7,0.6c-0.4-0.1-0.8-0.1-1.2-0.2c-0.4,0-0.8-0.2-1.2,0.1c0,0.1,0,0.3,0,0.4
		c0.6,1.4,1.2,2.8,1.8,4.2c0.1,0.3,0.2,0.7,0.4,1c0.8,1.6,1.5,3.2,2,4.9c-0.2,0.3-0.5,0.5-0.8,0.3c-1.2-0.8-2.4-1.6-3.5-2.5
		c-0.6-0.5-1.3-0.8-2.1-1.1c0,0.6,0,1-0.2,1.4c-0.1,0.5-0.4,1-0.5,1.4c-0.1,0.2,0,0.5,0,0.8c0.1,0.7-0.3,1.4-0.5,2.1
		c-0.2,0.7-0.2,1.4-0.3,2.1c0,0,0,0.1,0,0.1c-0.4,0.7-0.4,1.5-0.2,2.2c0.1,0.3,0.1,0.6,0.1,0.9c-0.7-0.2-1.3-0.3-2-0.5
		c-0.2,0-0.4-0.1-0.6,0c-1.5,0.3-3.1,0.3-4.6,0.6c-0.8,0.1-1.6,0.2-2.1,0.8c0,1,0.1,1.9,0.2,2.8c0,1.7-0.1,3.5,0.1,5.3
		c-0.1,0-0.3,0.1-0.4,0.1c-0.3-1.2-0.7-2.4-1-3.6c-0.6-2.5-1.1-4.9-1.5-7.4c-0.3-1.8-0.7-3.5-0.9-5.3c-0.2-1.3-0.1-2.7-0.4-4
		c-0.4-1.9,0-3.7-0.5-5.5c-0.1-0.5,0-0.9,0-1.4c0-3.7,0-7.5,0-11.2c0-0.8,0.1-1.5,0.2-2.3c0-0.1,0-0.3,0-0.5
		C7.7,119.6,8,117.9,8.1,116.2z"/>
	<path class="st19" d="M78.1,42.8c-0.5,0.6-1.1,0.8-1.7,0.9c-0.4,0-0.7,0.1-1.1,0.2c-1.4,0-2.7,0.8-4.2,0.8c-0.3,0-0.7,0.2-1,0.3
		c-0.3,0.1-0.7,0.3-1,0.3c-1-0.1-1.5,0.4-1.9,1.3c-4.2,0-8.5,0-12.7,0c-0.7,0-1.3-0.1-2-0.4c-0.9-0.4-1.9-0.6-2.9-0.6c-2,0-4,0-6,0
		c-0.4,0-0.7,0-1.1,0c-0.4,0-0.5-0.3-0.6-0.7c1.6-1.8,3.3-3.5,5.2-5.1c1.1-0.9,2.2-1.9,3.3-2.9c2.4-2.1,5-4,7.6-5.9
		c3.3-2.4,6.8-4.6,10.4-6.7c0.4-0.2,0.8-0.4,1.3-0.6c0.1,0.5,0.1,0.9,0.2,1.3c0.2,1,0.5,2,0.5,3.1c0,0.3,0.1,0.7,0.2,1.1
		c0.1,0.6,0.3,1.2,0.5,1.8c0.2,0.6,0.3,1.2,0.8,1.6c0.2,0.1,0.3,0.4,0.4,0.7c0.1,0.6,0.6,0.9,1,1.3c0.7,0.6,1.3,1.3,1.2,2.2
		c0,0.4,0.2,0.6,0.6,0.6c0.8,1.3,1.7,2.5,2.3,3.9C77.5,41.8,78.1,42.1,78.1,42.8z"/>
	<path class="st20" d="M218.8,119.3c0,0.7,0,1.3-0.3,2c-0.9,2.5-1.9,5-2.8,7.6c-0.3,0.9-0.6,1.8-0.8,2.6c-0.1,0.3,0,0.6,0.2,0.7
		c0.1,0.1,0.4,0.1,0.6,0c0.8-0.4,1.5-0.9,2.3-1.3c1.7-1,3.3-2,5-3.1c0.4-0.2,0.7-0.4,1-0.7c1.1-0.9,2.5-1.3,3.6-2.1
		c0.2-0.1,0.5-0.2,0.7-0.3c0.5-0.2,1,0.1,1,0.6c0,0.7,0,1.3-0.1,2c-0.3,1.3-0.5,2.5-0.5,3.8c0,0.7-0.1,1.4-0.4,2.1
		c-0.2,0.6-0.3,1.2-0.2,1.8c0,0.9,0,1.8-0.3,2.6c-0.2,0.7-0.4,1.3-0.1,2.1c0.1,0.4-0.1,0.9-0.3,1.3c0,0.2-0.2,0.4-0.2,0.6
		c-0.1,0-0.3,0-0.5-0.1c-1.3-0.8-2.5-1.6-3.8-2.4c-0.7-0.5-1.4-1-2.2-1.4c-0.8-0.5-1.6-0.8-2.4-1.3c-1.1-0.7-2.1-1.4-3.2-2.1
		c-0.1-0.1-0.4-0.1-0.7-0.2c0,0.4,0,0.7,0,0.9c0.3,1.3,0.9,2.5,1.4,3.7c0.8,1.9,1.5,3.7,2.2,5.6c0.1,0.4,0.3,0.7,0.7,0.8
		c-0.1,0.2-0.1,0.4-0.2,0.6c-0.9-0.6-1.8-1.1-2.6-1.5c-1.7-1-3.4-2.1-5.2-3c-0.8-0.4-1.6-1.1-2.6-1l0,0c-0.2-0.6-0.2-0.6-1-0.6
		c-0.9-0.6-1.9-1.2-2.8-1.9c0-1.7,0-3.4,0.6-5c0-0.1,0-0.2,0-0.3c0.4-2,0.7-3.9,1.1-5.9c0.1-0.6,0.1-1.3,0.9-1.7
		c0.1-0.1,0.2-0.3,0.3-0.6c0.3-0.7,0.5-1.4,0.8-2.1c0.3-0.7,0.7-1.5,1-2.2c0.5-1.3,0.9-2.5,1.3-3.8c0.1-0.5,0.2-1,0.4-1.5
		c1.3,0.6,2.5,1.2,3.5,2.1c0.5,0.5,1.1,0.8,1.7,1c0.7,0.3,1.4,0.8,2,1.3C218.1,119.3,218.5,119.3,218.8,119.3z"/>
	<path class="st21" d="M105.5,248.5c0.1-0.2,0.1-0.5,0.2-0.7c0.1-0.3,0.4-0.5,0.5-0.8c0.6-1.8,1.8-3.3,2.7-4.9
		c0.1-0.2,0.3-0.3,0.3-0.5c0.6-1.9,2-3.3,2.7-5c0.3-0.7,0.7-1.3,1.5-1.4c0.6,0.4,1.2,0.6,1.7,1.1c0.3,0.3,0.5,0.9,0.6,1.4
		c0.2,0.9,0.9,1.4,1.7,1.7c0.7,0.3,1.3,0,1.4-0.7c0.1-0.4,0.1-0.8,0-1.2c-0.2-0.7,0-1.1,0.3-1.6c0.1-0.2,0.3-0.3,0.4-0.5
		c0.5-0.5,0.6-1,0.1-1.5c-0.3-0.4-0.5-0.7-0.3-1.2c0.1-0.6,0.4-1.1,0.9-1.4c0.3-0.2,0.6-0.2,0.9,0c1,1,2.1,1.9,2.9,3
		c0.4,0.6,0.7,1.1,1.2,1.6c1,1.2,2.4,1.8,3.7,2.5c1,0.5,2,0.9,3,1.3c1.2,0.5,2.5,1,3.9,0.8c0,0.8,0.2,1.7,0.5,2.4
		c0.8,2,1.3,4.1,1.8,6.2c0.1,0.5,0.1,0.9,0.2,1.3c-0.3,0.1-0.6,0.2-0.9,0.2c-0.9,0-1.8,0-2.6,0c-0.7,0-1.3,0.1-2,0.2
		c-0.4,0-0.8,0.1-1.3,0.1c-1.8,0-3.6,0-5.4,0c-0.6,0-1.1-0.1-1.7-0.2c-0.5,0-1-0.1-1.5-0.1c-1.5-0.1-3,0.1-4.5-0.3
		c-0.1,0-0.3,0-0.5,0c-1.8,0-3.5-0.3-5.2-0.6c-1.7-0.3-3.4-0.5-5.1-0.7C106.9,249,106.1,248.9,105.5,248.5z"/>
	<path class="st11" d="M66,203.1c0.9,0.1,1.7-0.3,2.5-0.8c0.7-0.5,1.5-0.8,2.3-1.2c2-1,4-2,6-3.1c0.3-0.1,0.5-0.3,0.8-0.4
		c1.6-0.6,3.1-1.4,4.5-2.3c0.2-0.1,0.5-0.2,0.7-0.2c0.4,0,0.8,0,1.3,0c0.1,0.6,0.3,1.2,0.4,1.8c0.6,2.7,1.1,5.4,1.7,8.1
		c0.1,0.6-0.1,1-0.4,1.4c-0.7,1.2-1.5,2.4-2.2,3.5c-1.6,2.4-3.2,4.8-4.8,7.2c-0.4,0.6-0.7,1.1-1.1,1.7c-0.1,0.2-0.2,0.6-0.4,0.9
		c0.5,0.4,1,0.2,1.5,0.3c0.5,0,1,0,1.5,0c0.4,0.4,0.8,0.2,1.3,0.2c1.3,0,2.5,0,3.7,0.1c0.4,0.4,0.8,0.2,1.3,0.2c0.8,0,1.6,0,2.3,0
		c0.6,0.3,0.7,0.8,0.7,1.3c0,0.5,0,1,0.1,1.5c-0.2,0.5-0.6,0.7-1.1,0.7c-0.7,0-1.3,0-2,0.1c-0.6,0.1-1.1,0.1-1.6-0.2
		c-1.3-0.7-1.4-0.7-2.7-0.3c-0.3,0.1-0.6,0.2-0.9,0.3c-2.6,0.9-5.2,1.8-7.7,2.7c-0.2,0.1-0.5,0-0.7,0.1c0-0.6,0-1.1,0-1.7
		c0-0.5-0.1-0.9-0.3-1.3c-0.3-0.6-0.3-1.2-0.3-1.8c0-0.6,0-1.3-0.4-1.8c-0.3-0.5-0.3-1.1-0.3-1.7c0-0.8-0.1-1.5-0.4-2.2
		c-0.5-1-0.3-2.1,0-3.1c-0.8-1.6-1.5-3.2-2.5-4.7c-0.9-1.5-1.7-3.2-2.4-4.8C66.2,203.4,66.1,203.2,66,203.1z"/>
	<path class="st22" d="M203.8,61.8c0.4-0.4,0.7-0.7,0.7-1.3c-0.1-1.4,0-2.9-0.2-4.3c-0.3-2.1-0.7-4.3-0.3-6.5
		c0.3-0.4,0.7-0.4,1.1-0.3c1.3,0.4,2.6,0.7,3.9,0.6c0.3,0,0.6,0.1,0.9,0.2c0.9,0.2,1.8,0.5,2.7,0.4c0,0,0.1,0,0.1,0
		c1.5,0.7,3.3,0.5,4.9,0.8c0.2,0,0.5,0.1,0.7,0.1c0.9,0,1.8,0,2.5,0.6c0.1,0.1,0.5,0,0.7,0c0.3,0.7,0.8,1.2,1.4,1.6
		c0.1,0.1,0.2,0.2,0.3,0.3c2.7,3.3,5.1,6.7,7.4,10.3c0.1,0.2,0.2,0.4,0.2,0.6c-0.6,0.1-1-0.1-1.5-0.3c-1.4-0.6-2.9-1.2-4.4-1.8
		c-3.2,1.6-6.4,3.2-9.6,4.7c-0.1,0-0.2,0.1-0.2,0.2c-0.1,0.2-0.2,0.4-0.2,0.6c0,0.1,0.3,0.4,0.4,0.4c0.8,0,1.5,0.3,2.3,0.5
		c0.2,0.1,0.5,0.1,0.7,0.2c2.1,0.3,4.2,0.9,6.4,1.4c0,0.3,0,0.6,0,0.8c-0.3,0.1-0.7,0.1-1,0.3c-0.3,0.1-0.6,0.4-0.9,0.5
		c-2.3,1.2-4.6,2.3-7,3.4c0,0.4,0,0.7,0,1c-1.8-0.1-3.5-0.2-5.3-0.3c0-0.4,0.3-0.6,0.7-0.5c1.3,0,2.6-0.5,3.9-0.8
		c0.2-0.7,0.2-1.3-0.1-1.9c-0.2-0.5-0.3-0.9-0.4-1.5c-0.1-0.7-0.4-1.3-0.5-2c-0.1-0.7-0.6-1.2-1.1-1.6c-0.9-0.6-1.6-1.4-2.6-1.9
		c-0.7-0.3-1.4-0.8-2-1.4C207,63.6,205.4,62.7,203.8,61.8z"/>
	<path class="st20" d="M166.5,56.8c0.6,0.2,1.2,0.4,1.7,0.7c1.2,0.6,2.5,0.9,3.6,1.6c1.1,0,1.8,1,2.8,1.2c0,0.6,0,1.3,0,1.9
		c-0.7,0-1.1,0.1-1.3,0.8c0,0.2-0.2,0.5-0.4,0.7c-0.9,1.4-1.5,2.9-2.2,4.4c-0.8,1.6-1.3,3.3-2.4,4.6c-0.2,0.3-0.2,0.7-0.3,1
		c-1.5-0.1-3-0.1-4.5-0.2c-0.2,0-0.4,0-0.6,0c-1.7-0.1-3.5-0.2-5.2-0.4c0-0.6-0.5-0.9-0.8-1.3c-0.8-0.8-1.6-1.6-2.3-2.5
		c-0.6-0.7-0.8-0.7-1.6-0.4c-0.5,0.2-1,0.3-1.4,0.6c-1.1,0.6-2.4,0.8-3.2,1.8c-0.8-0.9-1.6-1.7-2.4-2.6c-2.3-2.6-4.6-5.2-6.9-7.8
		c-0.1-0.1-0.2-0.3-0.4-0.5c0-0.6,0.3-0.8,0.8-0.9c0.4,0,0.7-0.1,1-0.2c0.9-0.5,1.9-0.7,2.9-1c1.3-0.5,2.7-0.7,4-1.2
		c1.2-0.4,2.3-0.9,3.5-1.1c0.2,0,0.4-0.1,0.6-0.2c0.4-0.4,1-0.3,1.5-0.4l0,0c0.3,0.8,0.3,1.7,0.3,2.6c0,0.8-0.1,1.6,0.1,2.3
		c0.2,0.9,0.2,1.8,0.2,2.7c0,1.2,0,2.4,0,3.6c0,0.4,0,0.8,0.2,1.2c0.2,0.7,0.7,0.8,1.2,0.4c0.2-0.2,0.5-0.4,0.7-0.7
		c3.2-3.2,6.4-6.4,9.6-9.6c0.3-0.3,0.5-0.6,0.8-0.9C166.3,56.8,166.4,56.8,166.5,56.8z"/>
	<path class="st5" d="M196.1,215.1c0,0.4-0.2,0.7-0.5,0.9c-0.8,0.7-1.5,1.5-2.3,2.3c-1.1,1-2,1.1-3.2,0.3c-1.1-0.7-2.2-1.4-3.3-2
		c-1.5-0.9-3.1-1.9-4.6-2.9c-0.5-0.3-1-0.5-1.6-0.5c-0.9,0-1.8,0-2.6,0c-0.4-0.4-0.7-0.8-1.1-1.2c-0.3-0.4-0.6-0.7-1.1-0.7
		c-0.2,0-0.5-0.2-0.7-0.3c-1.3-0.7-2.7-1.4-4.1-2.2c-1.2-0.7-2.5-1.2-3.6-2.1c-0.1-0.1-0.2-0.2-0.4-0.2c-1-0.2-1.9-0.8-2.8-1.3
		c-0.7-0.4-1.5-0.7-2.2-1.1c-0.4-0.2-0.7-0.4-1.2-0.5c-1.1-0.1-1.4-0.9-1.6-1.8c-0.1-0.3,0-0.7,0-1.1c0-2,0-4,0-6
		c0-0.7-0.1-1.3-0.6-1.9c-0.9-1.1-1.6-2.2-2.5-3.3c-0.3-0.4-0.4-0.7-0.3-1.2c2.7,1.8,5.5,3.5,8.2,5.3c4,2.7,8.1,5.4,12.2,8.1
		c2,1.3,3.9,2.6,5.9,3.8c2,1.2,3.9,2.6,5.9,3.8c1.6,1,3.2,2.1,4.7,3.2c0.9,0.6,1.8,1.2,2.7,1.8C195.8,214.5,196.1,214.7,196.1,215.1
		z"/>
	<path class="st23" d="M125.8,31.9c0.5,0,0.9-0.2,1.2-0.6c0.8-0.8,1.7-1.7,2.5-2.5c0.7-0.7,1.3-1.3,2.1-1.9c1-0.7,1.2-1.2,0.7-2.4
		c-0.5-1.3-1-2.5-1.6-3.7c-0.5-1.1-1-2.1-1.5-3.2c-0.2-0.4-0.1-0.9-0.1-1.4c1.8,0.4,3.6,0.3,5.3,0.9c0.5,0.1,1.1,0,1.7,0.1
		c0.8,0,1.3,0.6,1,1.3c-0.2,0.7-0.5,1.3-0.8,1.9c-0.6,1.2-1.3,2.4-1.9,3.6c-0.5,0.9-0.4,1.7,0,2.6c0.7,1.7,1.6,3.2,2.6,4.7
		c0.1,0.2,0.2,0.4,0.3,0.6c0.2,0.7,0.6,1.4,1,2c0.5,0.8,0.7,1.6,0.5,2.6c-0.6,1.8-0.7,3.6-1.2,5.4c-0.1,0.3-0.1,0.6-0.1,0.9
		c0,0.7,0,1.3,0,2c0,0.4-0.1,0.7-0.2,1c-0.2,0.7-0.5,1.3-0.5,2.1c0,0.4-0.2,0.8-0.3,1.2c-0.1,0.5-0.2,0.9-0.3,1.3
		c-0.1,0.4-0.2,0.8-0.3,1.2c-0.1,0.4-0.3,0.8-0.3,1.2c0,0.7-0.1,1.3-0.5,1.9c-0.1,0.3-0.1,0.7-0.2,1c-1.3-1.4-2.6-2.8-3.9-4.2
		c-1.2-1.3-2.4-2.7-3.6-4.1c-0.5-0.6-0.9-1.2-1.4-1.6c-1-0.8-1.2-1.9-1-3.1c0.2-2.3,0.4-4.6,0.5-7C125.7,34.6,125.8,33.2,125.8,31.9
		z"/>
	<path class="st6" d="M72.8,226.7c0.2,0,0.5,0,0.7-0.1c2.6-0.9,5.2-1.8,7.7-2.7c0.3-0.1,0.6-0.2,0.9-0.3c1.4-0.4,1.4-0.4,2.7,0.3
		c0.6,0.2,1,0.3,1.6,0.2c0.7-0.2,1.3-0.1,2-0.1c0.5,0,0.9-0.2,1.1-0.7c0.1,0.2,0.2,0.4,0.3,0.6c0.7,3.1,1.3,6.1,1.9,9.2
		c0.4,2,0.8,3.9,1.2,5.9c0.2,1.1,0.2,1.1,1.3,1.2c0.2,0,0.4,0,0.6,0c0,0.4,0,0.7-0.4,0.9c-1.1,0.4-2.1,0.9-3.1,1.4
		c-1.1,0.6-2.2,0.6-3.3,0.3c-0.9-0.2-1.7-0.3-2.6,0.2c-1.7-0.4-3.3-1.2-4.9-1.9c-1.3-0.5-2.5-1.1-3.7-1.7c-0.3-0.1-0.5-0.3-0.8-0.5
		c-0.1-1.5-0.7-2.7-2-3.6c-0.5-0.3-0.8-0.8-0.7-1.4c0-0.7,0.1-1.5-0.1-2.1c-0.2-0.9-0.2-1.7-0.2-2.6
		C73.2,228.3,73.1,227.5,72.8,226.7L72.8,226.7z"/>
	<path class="st11" d="M21.2,153.6c0-0.3,0-0.6-0.1-0.9c-0.3-0.8-0.2-1.5,0.2-2.2c0,0,0-0.1,0-0.1c0.1-0.7,0.1-1.4,0.3-2.1
		c0.2-0.7,0.6-1.3,0.5-2.1c0-0.2,0-0.5,0-0.8c0.1-0.5,0.4-1,0.5-1.4c0.1-0.4,0.1-0.9,0.2-1.4c0.9,0.2,1.5,0.6,2.1,1.1
		c1.1,0.9,2.3,1.7,3.5,2.5c0.3,0.2,0.6,0,0.8-0.3c0.1,0,0.2,0,0.3,0c0.3,0.4,0.6,0.7,0.7,1.1c0.5,1.6,1,3.2,1.5,4.7
		c1,2.8,2,5.6,3.1,8.4c0.3,0.8,0.1,1.3-0.7,1.3c-0.7,0-1.3,0.4-1.9,0.6c-1.3,0.5-2.6,0.9-3.7,1.5c-1.4,0.7-2.8,1.5-4.1,2.4
		c-0.3,0.2-0.6,0.6-0.8,0.9c-0.1,0.2-0.2,0.5-0.3,0.7c-0.2,0.9-0.8,1.5-1.6,2c-0.5,0.2-0.9,0.7-1.3,1.1c-0.1,0.1-0.1,0.5-0.2,0.8
		c0.4-0.1,0.6-0.1,0.8-0.2c0.3,0,0.5,0,0.7,0.2c-0.1,0-0.1,0.2-0.2,0.2c-0.9,0.1-1.6,0.5-2.3,1.1c-0.1,0-0.4,0-0.4-0.1
		c-0.8-1-1.7-1.9-2.4-3c-0.7-1.2-1.7-2.1-3.1-2.5c-0.3-0.6-0.7-1.2-0.6-1.9c0.7-0.1,1.3-0.4,2-0.3c1.1,0.1,2.2,0,3.4,0
		c0.6,0,1.1-0.1,1.7-0.2c0.3,0,0.6-0.1,0.9-0.1c1.3,0.1,2.6-0.2,4-0.3c0.4,0,0.7-0.2,0.7-0.7c-0.1-0.2-0.3-0.4-0.4-0.6
		c-1-2.4-2.1-4.7-3.3-7C21.5,155.1,21.2,154.4,21.2,153.6z"/>
	<path class="st24" d="M210.8,114.6c-0.1,0.5-0.2,1-0.4,1.5c-0.4,1.3-0.8,2.5-1.3,3.8c-0.3,0.7-0.7,1.5-1,2.2
		c-0.3,0.7-0.5,1.4-0.8,2.1c-0.1,0.2-0.1,0.5-0.3,0.6c-0.7,0.4-0.7,1.1-0.9,1.7c-0.4,2-0.7,3.9-1.1,5.9c0,0.1,0,0.2,0,0.3
		c-0.7,1.6-0.6,3.3-0.6,5c-0.9-0.6-1.8-1.1-2.7-1.7c-2.8-1.8-5.7-3.7-8.6-5.5c-0.2-0.1-0.4-0.3-0.6-0.5c0.1-0.3,0.4-0.4,0.7-0.4
		c0.6,0,1.3,0,1.9,0c0.2,0,0.5-0.1,0.8-0.1c-0.1-0.4-0.2-0.7-0.4-0.9c-1-1.4-2-2.7-3.2-3.9c-0.1-0.1-0.3-0.2-0.5-0.4
		c1.9-2,4-3.7,6-5.5c1.4-1.3,2.8-2.5,4.2-3.7c1.2-1.1,2.4-2.1,3.6-3.1c0,0.3,0.1,0.5,0.4,0.6c1,0.4,2.1,0.8,3.1,1.3
		c0.5,0.2,1,0.3,1.5,0.3C210.7,114.2,210.7,114.4,210.8,114.6z"/>
	<path class="st25" d="M203.8,61.8c1.6,1,3.2,1.9,4.6,3.1c0.6,0.6,1.3,1,2,1.4c1,0.5,1.7,1.3,2.6,1.9c0.6,0.4,1,0.9,1.1,1.6
		c0.1,0.7,0.4,1.3,0.5,2c0.1,0.5,0.2,1,0.4,1.5c0.3,0.6,0.3,1.2,0.1,1.9c-1.3,0.3-2.5,0.8-3.9,0.8c-0.4,0-0.6,0.1-0.7,0.5
		c-2-0.1-3.9-0.2-5.9-0.4c-0.1-0.2-0.2-0.5-0.3-0.7c-1.2-1.3-2.5-2.3-3.8-3.3c-0.8-0.6-1.6-1.1-2.2-1.9c-0.3-0.3-0.6-0.6-1-0.6
		c-0.2-0.5-0.7-0.7-1.2-0.6c-0.4,0-0.8,0.2-1.2,0.2c-0.6,0-0.8-0.1-1.1-0.7c-0.2-0.6-0.5-1.3-0.7-1.9c-0.7-1.9-1.5-3.7-2.3-5.5
		c-0.1-0.4-0.1-0.8-0.2-1.2c1.3-0.1,2.5,0.1,3.7,0.4c1,0.2,2,0.4,3,0.5c1.7,0.2,3.3,0.4,5,0.8C202.9,61.8,203.4,61.7,203.8,61.8z"/>
	<path class="st24" d="M208.2,140.2c1-0.1,1.8,0.5,2.6,1c1.8,1,3.5,2,5.2,3c0.8,0.5,1.7,1,2.6,1.5c0.1-0.2,0.2-0.4,0.2-0.6
		c0.7,0,1.3-0.1,2-0.4c1.1-0.5,2.3-0.9,3.5-1.2c0.8-0.1,1.5-0.5,2.3-0.7c0.3-0.1,0.5-0.4,0.7-0.6c0.2-0.1,0.4-0.2,0.6-0.3
		c2,3.9,3.9,7.8,5.9,11.8c0.3,0,0.6,0,0.9-0.1c0.3-0.1,0.5-0.3,0.8-0.5c1.9-0.7,3.7-1.5,5.6-2.3c1.6-0.7,3.2-1.2,4.7-1.9
		c0.9-0.4,1.8-0.7,2.7-0.8c-0.2,1.4-0.4,2.9-0.7,4.3c-0.5,2.3-1,4.6-1.6,6.9c-0.9,0-1.7,0-2.6,0.1c-0.6,0-1.2,0.2-1.8,0.2
		c-0.9,0-1.7,0-2.5,0.5c-0.2,0.1-0.4,0.1-0.6,0.2c-1.3-0.8-2.6-1.6-3.9-2.5c-7.3-4.8-14.6-9.6-21.8-14.5c-1.4-0.9-2.8-1.9-4.2-2.9
		C208.4,140.5,208.3,140.3,208.2,140.2z"/>
	<path class="st20" d="M248.4,148.3c-1,0.1-1.9,0.4-2.7,0.8c-1.5,0.7-3.1,1.3-4.7,1.9c-1.9,0.7-3.7,1.5-5.6,2.3
		c-0.3,0.1-0.5,0.3-0.8,0.5c-0.3,0.1-0.6,0.1-0.9,0.1c-2-3.9-3.9-7.9-5.9-11.8c0.1-0.1,0.2-0.4,0.4-0.5c1.2-0.6,2.4-1.1,3.6-1.7
		c0.5-0.2,1-0.3,1.5-0.3c0.7,0,1.4,0,2.2,0c1.3,0,2.6-0.1,3.8-0.5c0.6-0.1,1.2-0.1,1.9-0.2c0.5,0,1,0,1.5,0c0.6,0,1.1,0,1.6-0.4
		c0.2-0.2,0.6-0.1,0.9-0.2c0.9,0.9,1.7,1.9,2.6,2.7c0.4,0.3,0.9,0.5,1.3,0.7C249.1,143.9,248.9,146.1,248.4,148.3z"/>
	<path class="st21" d="M135.7,240.4c0-1.1,0.5-2,0.9-3c0.8-2,1.7-4.1,2.6-6.1c0.3-0.8,0.6-1.6,1.2-2.3c0.5,0,0.7,0.3,0.7,0.6
		c0,2.1,0.8,4,1.1,6.1c0.2,1.5,0.8,3.1,1.3,4.5c0.1,0.1,0.2,0.1,0.2,0.1c0,0,0.1,0,0.1,0c4.7,0,9.4,0,14.1,0
		c0.2,0.2,0.5,0.4,0.7,0.6c0.7,0.8,1.6,1.4,2.6,1.8c1.1,0.4,2,1.2,3.1,1.7c0.4,0.2,0.7,0.4,1.1,0.6c-0.3,0.2-0.6,0.4-0.9,0.5
		c-2.6,0.7-5.3,1.5-7.9,2.1c-2.5,0.6-4.9,1.2-7.4,1.4c-0.9,0.1-1.8,0.4-2.7,0.5c-0.3,0-0.6,0-0.9,0c-0.1-0.9-0.9-1.7-0.4-2.6
		c0-0.1,0-0.3-0.1-0.4c-0.5-0.7-0.5-1.6-0.5-2.4c0-0.6-0.2-1.1-0.5-1.6c-0.4-0.8-0.7-0.9-1.6-0.7c-1.3,0.2-2.6,0.1-3.9-0.5
		C137.6,240.9,136.7,240.4,135.7,240.4z"/>
	<path class="st26" d="M225,71.4c0-0.2,0-0.5,0-0.8c-2.1-0.5-4.2-1.1-6.4-1.4c-0.2,0-0.5-0.1-0.7-0.2c-0.7-0.2-1.5-0.5-2.3-0.5
		c-0.1,0-0.4-0.2-0.4-0.4c0-0.1,0.1-0.4,0.2-0.6c0-0.1,0.1-0.1,0.2-0.2c3.2-1.6,6.4-3.2,9.6-4.7c1.5,0.6,2.9,1.3,4.4,1.8
		c0.5,0.2,1,0.4,1.5,0.3c0.9,1.4,1.8,2.8,2.6,4.2c1.3,2.3,2.6,4.6,3.6,7c-0.1,0.1-0.4,0.2-0.4,0.4c-0.7,1.6-1.3,3.3-1.9,4.9
		c-0.3,0.1-0.3,0.4-0.3,0.7c-0.1,0.3-0.2,0.6-0.3,0.9c-0.4,0-0.9,0-1.1-0.4c-0.4-0.8-1.1-1.5-1.6-2.3c-1.6-2.2-3.2-4.6-4.8-6.8
		C226.3,72.7,225.7,71.9,225,71.4z"/>
	<path class="st2" d="M76.9,94.4c0.9,0.1,1.3,0.7,1.3,1.5c0,1.2,0.1,2.2,0.5,3.3c0.2,0.6,0.1,1.3,0.1,2c-1.6,0.4-3.2,0.8-4.8,1
		c-1.1,0.1-2.2,0.4-3.3,0.7c-2.8,0.6-5.5,1.2-8.3,1.7c-0.7,0.1-1.4,0.1-2.1,0.2c-0.1-0.5,0-1,0.4-1.4c0.7-0.6,1.2-1.4,2.1-1.7
		c0.4-0.1,0.5-0.5,0.4-0.9c0-0.3-0.2-0.6-0.2-0.9c0.4,0,0.6-0.3,0.6-0.7c0-1.1,0-2.2,0-3.3c0-0.6,0.1-1.3,0-1.9
		c-0.3-0.9-0.2-1.9-0.2-2.7c0-1,0.1-2-0.3-3.1c-0.1-0.3,0-0.6,0-0.9c0-0.3,0.4-0.6,0.7-0.4c0.9,0.5,1.8,1.1,2.3,2
		c0.4,0.6,0.7,1.2,1.2,1.6c0.6,0.6,1,1.5,2,1.6l0,0c0,0.3,0.1,0.7,0.4,0.8c0.3,0.2,0.7,0.3,1,0.4c1.3,0.3,2.6,0.3,3.9,0.9
		c0.6,0.2,1.2,0.3,1.8,0.3C76.4,94.7,76.7,94.5,76.9,94.4z"/>
	<path class="st1" d="M18.1,90.7c-0.5,0.2-0.6,0.7-0.7,1.2c-0.1,1.3,0.2,2.5,0.4,3.7c0,0.2,0.2,0.4,0.2,0.6c0,2.1,0.7,4.1,1.2,6.2
		c0.1,0.5,0.1,1,0,1.6c-0.3,0.1-0.7,0.4-1,0.4c-1.2,0-2.4,0-3.6-0.1c-0.2,0-0.4-0.1-0.6-0.1c-1.3,0.1-2.6-0.3-3.9-0.4
		c0.4-1.7,0.7-3.4,1.1-5.2c0.8-2.8,1.7-5.6,2.6-8.5c0.9-2.8,2-5.5,3.2-8.2c0.9-2,1.8-4,2.7-6.1c0.2-0.4,0.4-0.7,0.7-1
		c0.4,0.2,0.6,0.5,0.6,1c0,0.6,0,1.1,0,1.7c0,0.4,0,0.7,0.1,1.1c0.3,0.7,0.2,1.4,0.2,2.1c0,0.5,0.1,0.9,0.2,1.3
		c0.1,0.5,0.1,0.9-0.1,1.3c-0.7,1.1-1.3,2.2-1.9,3.3c-0.5,0.8-1,1.7-1.3,2.6C18.1,89.7,18.2,90.2,18.1,90.7z"/>
	<path class="st15" d="M72.8,226.7c0.3,0.8,0.3,1.6,0.3,2.4c0,0.9,0,1.7,0.2,2.6c0.2,0.7,0.1,1.4,0.1,2.1c0,0.7,0.2,1.1,0.7,1.4
		c1.3,0.8,2,2,2,3.6c-0.3-0.1-0.6-0.2-0.9-0.3c-3.3-1.6-6.4-3.3-9.5-5.2c-2-1.3-4-2.5-6-3.8c-0.7-0.5-1.4-1.1-2-1.6
		c0.2-0.3,0.6-0.6,0.6-0.9c0-1.2,0.6-2.2,0.8-3.3c0.1-0.6,0.2-1.2,0.2-1.8c0.4-0.2,0.7-0.4,1.2-0.2c1,0.4,2,0.7,2.9,1.2
		c1.4,0.7,2.8,1.3,4.3,1.8c1.3,0.5,2.6,1.1,3.9,1.6C72,226.5,72.4,226.6,72.8,226.7z"/>
	<path class="st9" d="M174.6,62.1c0-0.6,0-1.3,0-1.9c0.1,0,0.2,0,0.3,0c1.2,0,2.5,0.1,3.7-0.3c0.4-0.1,0.8,0,1.2,0c3.3,0,6.7,0,10,0
		c-0.1,0.4-0.2,0.8-0.3,1.2c-0.7,1.5-1.4,3.1-2.2,4.6c-0.5,1.1-1.1,2.1-1.5,3.2c-0.7,1.4-1.2,2.8-1.9,4.2c-0.2,0.5-0.3,1-0.3,1.5
		c-1,0-2.1,0-3.1-0.1c-0.3-1.9-1.4-3.4-2-5.1c-0.6-1.7-1.5-3.2-2.3-4.8c-0.3-0.6-0.7-1.1-0.7-1.9C175.4,62.2,175,62.1,174.6,62.1
		L174.6,62.1z"/>
	<path class="st6" d="M21.2,153.6c0,0.8,0.3,1.5,0.7,2.2c1.2,2.3,2.3,4.6,3.3,7c0.1,0.2,0.3,0.4,0.4,0.6c0,0.5-0.4,0.7-0.7,0.7
		c-1.3,0.1-2.6,0.5-4,0.3c-0.3,0-0.6,0-0.9,0.1c-0.6,0-1.1,0.2-1.7,0.2c-1.1,0-2.2,0.2-3.4,0c-0.7-0.1-1.3,0.2-2,0.3
		c-0.6-0.7-0.5-1.7-0.9-2.5c0.1,0,0.3-0.1,0.4-0.1c-0.2-1.8-0.1-3.5-0.1-5.3c0-0.9-0.1-1.7-0.2-2.8c0.5-0.6,1.3-0.7,2.1-0.8
		c1.5-0.3,3.1-0.3,4.6-0.6c0.2,0,0.4,0,0.6,0C19.9,153.2,20.5,153.4,21.2,153.6z"/>
	<path class="st23" d="M153.1,55.2c-0.5,0-1,0-1.5,0.4c-0.1,0.1-0.4,0.2-0.6,0.2c-1.3,0.1-2.4,0.7-3.5,1.1c-1.3,0.4-2.7,0.7-4,1.2
		c-1,0.3-2,0.6-2.9,1c-0.3,0.1-0.7,0.2-1,0.2c-0.6,0.1-0.8,0.4-0.8,0.9c-0.8-0.9-1.7-1.9-2.5-2.8c0.2-0.1,0.5-0.2,0.6-0.4
		c0.3-0.6,0.7-1.2,1.2-1.6c0,0,0.1-0.1,0.1-0.1c0.3-1,1.1-1.7,1.7-2.6c0.8-1.3,1.7-2.4,2.6-3.6c0.2-0.2,0.3-0.5,0.5-0.8
		c0.4-0.7,0.9-1.3,1.7-1.9c0.2,0.2,0.5,0.3,0.7,0.6c2.3,2.3,4.7,4.6,7,7C152.8,54.4,153.1,54.7,153.1,55.2z"/>
	<path class="st10" d="M183.6,74.5c0-0.5,0-1,0.3-1.5c0.7-1.4,1.2-2.8,1.9-4.2c0.5-1.1,1-2.1,1.5-3.2c0.7-1.5,1.4-3.1,2.2-4.6
		c0.2-0.4,0.2-0.8,0.3-1.2c0.3-0.5,0.6-0.1,0.9,0c0,0.4,0,0.8,0.2,1.2c0.7,1.9,1.5,3.7,2.3,5.5c0.2,0.6,0.5,1.3,0.7,1.9
		c0.2,0.6,0.5,0.7,1.1,0.7c0.4,0,0.8-0.2,1.2-0.2c0.5-0.1,0.9,0.1,1.2,0.6c0,2,0,3.9,0,5.9c-0.4,0-0.8,0-1.2,0
		c-0.4-1.5-0.8-3.1-1.3-4.6c-0.1-0.6-0.4-0.9-1-1.2c-0.3,0.1-0.7,0.3-1.1,0.5c-1.6,0.9-3.2,1.9-4.8,2.7c-0.7,0.4-1.3,0.7-2,1.2
		c-0.2,0.1-0.3,0.5-0.5,0.7C184.8,74.9,184.2,74.7,183.6,74.5z"/>
	<path class="st25" d="M225,71.4c0.7,0.6,1.3,1.3,1.8,2.1c1.7,2.2,3.2,4.6,4.8,6.8c0.6,0.7,1.2,1.4,1.6,2.3c0.2,0.4,0.7,0.4,1.1,0.4
		c0,0.4,0,0.8-0.4,1.1c-0.3,0.3-0.5,0.6-0.9,1c-0.6,0-1.2,0-1.9,0c-0.3-0.7-0.7-1.3-1-1.9c-0.7-1.5-1.5-3-2.3-4.6
		c-0.1-0.2-0.2-0.4-0.3-0.6c-0.2-0.5-0.6-0.7-1.2-0.8c-1.9-0.1-3.8-0.2-5.7-0.3c-1.6-0.1-3.2-0.2-4.8-0.4c0-0.3,0-0.6,0-1
		c2.3-1.1,4.6-2.3,7-3.4c0.3-0.1,0.6-0.4,0.9-0.5C224.3,71.6,224.7,71.5,225,71.4z"/>
	<path class="st15" d="M135.7,240.4c1,0,1.9,0.5,2.7,1c1.3,0.7,2.6,0.7,3.9,0.5c0.9-0.1,1.2,0,1.6,0.7c0.3,0.5,0.5,1,0.5,1.6
		c0,0.8,0,1.7,0.5,2.4c0.1,0.1,0.2,0.3,0.1,0.4c-0.6,1,0.2,1.8,0.4,2.6c-1.5,0.2-3,0.4-4.6,0.6c-0.9,0.1-1.7,0.1-2.6,0.1
		c0-0.5-0.1-0.9-0.2-1.3c-0.6-2.1-1-4.2-1.8-6.2C135.9,242.1,135.6,241.2,135.7,240.4z"/>
	<path class="st24" d="M29.6,145.8c-0.1,0-0.2,0-0.3,0c-0.5-1.7-1.2-3.3-2-4.9c-0.1-0.3-0.2-0.7-0.4-1c-0.6-1.4-1.2-2.8-1.8-4.2
		c0-0.1,0-0.3,0-0.4c0.4-0.3,0.8-0.2,1.2-0.1c0.4,0,0.8,0.1,1.2,0.2c0.7,0.5,1.5,0.9,2.3,1.3c2.5,1.6,4.9,3.3,7.3,4.9
		c-0.1,0.2-0.2,0.5-0.4,0.6c-2,1.2-3.9,2.3-5.9,3.4C30.4,145.6,30,145.7,29.6,145.8z"/>
	<path class="st20" d="M210.7,114c-0.5,0-1,0-1.5-0.3c-1-0.5-2-0.9-3.1-1.3c-0.3-0.1-0.4-0.3-0.4-0.6c1.3-1.2,2.5-2.3,3.8-3.4
		c0.2,0.1,0.5,0.3,0.7,0.2c1.1-0.3,2.2-0.2,3.3-0.3c0.9,0,1.7,0.2,2.5,0.7c1.3,0.7,2.7,1.5,4,2.5c-0.2,0.1-0.4,0.2-0.6,0.3
		c-0.2,0-0.4,0-0.6,0.1c-1.8,0.8-3.7,0.7-5.5,1.4c-0.2,0.1-0.5,0.1-0.7,0.1C211.8,113.3,211.3,113.6,210.7,114z"/>
	<path class="st22" d="M220.3,99.1c0.8,0.1,1.3,0.7,1.6,1.3c0.4,0.8,0.9,1.3,1.5,2c0.3,0.3,0.5,0.7,0.7,1c0.4,0.7,0.2,1.1-0.4,1.6
		c-0.2,0.1-0.4,0.2-0.6,0.2c-1.1,0.2-2,0.9-3.1,0.9c-0.7,0.7-1.9,0.4-2.6,1.1c-0.8,0-1.5,0.3-2.2,0.7c0,0-0.2,0-0.3-0.1
		c-0.2-0.7-0.1-1.5,0-2.2c0.1-0.6,0.1-1.1,0.2-1.7c0.8-0.7,1.6-1.5,2.5-2.3C218.4,100.7,219.4,99.9,220.3,99.1z"/>
	<path class="st24" d="M168.1,73.6c0.1-0.3,0-0.7,0.3-1c1-1.4,1.6-3.1,2.4-4.6c0.7-1.4,1.4-3,2.2-4.4c0.1-0.2,0.3-0.4,0.4-0.7
		c0.1-0.7,0.7-0.9,1.3-0.8l0,0c0,0.4-0.2,0.7-0.2,1.1c0,0.5-0.2,1,0,1.4c0.3,1,0.2,2,0.2,3.1c0,0.6,0,1.2,0.1,1.7
		c0.2,0.7,0.2,1.4,0.2,2.1c0,0.9,0,1.8,0,2.6c-1.2,0-2.3-0.1-3.5-0.2C170.3,73.8,169.2,73.7,168.1,73.6z"/>
	<path class="st14" d="M174.9,74.1c0-0.9,0-1.8,0-2.6c0-0.7,0-1.4-0.2-2.1c-0.1-0.5-0.1-1.1-0.1-1.7c0-1,0.1-2-0.2-3.1
		c-0.1-0.4,0-0.9,0-1.4c0-0.4,0.1-0.7,0.2-1.1c0.4,0,0.8,0.2,0.8,0.6c0,0.7,0.5,1.3,0.7,1.9c0.7,1.6,1.7,3.2,2.3,4.8
		c0.7,1.7,1.7,3.3,2,5.1c-0.7,0-1.5-0.1-2.3-0.1C177.2,74.2,176.1,74.2,174.9,74.1z"/>
	<path class="st20" d="M185.5,74.8c0.1-0.2,0.2-0.6,0.5-0.7c0.7-0.4,1.3-0.8,2-1.2c1.6-0.9,3.2-1.9,4.8-2.7c0.4-0.2,0.7-0.4,1.1-0.5
		c0.6,0.2,0.8,0.6,1,1.2c0.4,1.5,0.8,3.1,1.3,4.6c-0.6,0-1.2,0-1.9,0c-0.8,0-1.5-0.1-2.3-0.2C189.8,75,187.6,74.9,185.5,74.8z"/>
	<path class="st17" d="M13.4,166.9c1.4,0.4,2.4,1.3,3.1,2.5c0.7,1.1,1.6,2,2.4,3c0.1,0.1,0.3,0.1,0.4,0.1c-0.2,1.3-0.4,2.6-0.5,3.9
		c-0.1,0.7-0.1,1.3-0.1,2c0,0.4-0.3,0.6-0.7,0.7c-0.5-1.1-1.1-2.1-1.5-3.2c-1-2.5-1.9-5-2.8-7.5C13.5,167.9,13.5,167.4,13.4,166.9z"
		/>
	<path class="st22" d="M197.3,75.4c0-2,0-3.9,0-5.9c0.5,0,0.7,0.3,1,0.6c0.7,0.7,1.5,1.3,2.2,1.9c1.3,1,2.7,2,3.8,3.3
		c0.1,0.2,0.2,0.4,0.3,0.7C202.3,75.7,199.8,75.8,197.3,75.4z"/>
	<path class="st14" d="M148.5,71.1c0.9-1,2.2-1.2,3.2-1.8c0.4-0.2,0.9-0.4,1.4-0.6c0.8-0.3,1-0.2,1.6,0.4c0.7,0.8,1.5,1.7,2.3,2.5
		c0.3,0.4,0.8,0.7,0.8,1.3c-1.3,0-2.6-0.1-4-0.2c-1,0-2-0.1-2.9-0.1c-0.8,0-1.5-0.2-2-0.9C148.8,71.5,148.6,71.3,148.5,71.1z"/>
	<path class="st1" d="M59.5,222c0,0.6-0.1,1.2-0.2,1.8c-0.2,1.1-0.8,2.1-0.8,3.3c0,0.3-0.4,0.6-0.6,0.9c0,0-0.1,0-0.1,0
		c-2-1.3-4-2.8-5.7-4.5c0,0,0-0.1-0.1-0.1c1.4-0.3,2.9-0.6,4.4-0.9C57.3,222.2,58.3,221.9,59.5,222z"/>
	<path class="st14" d="M191.9,124.3c0.2,0.1,0.4,0.2,0.5,0.4c1.2,1.3,2.3,2.5,3.2,3.9c0.2,0.2,0.2,0.6,0.4,0.9
		c-0.3,0-0.6,0.1-0.8,0.1c-0.6,0-1.3,0-1.9,0c-0.3,0-0.6,0.1-0.7,0.4c-1.5-0.7-2.8-1.7-4.2-2.7C189.6,126.2,190.7,125.1,191.9,124.3
		z"/>
	<path class="st4" d="M238.6,160.5c0.2,0,0.4,0,0.6-0.2c0.8-0.5,1.6-0.5,2.5-0.5c0.6,0,1.2-0.1,1.8-0.2c0.9,0,1.7-0.1,2.6-0.1
		c-0.3,1.7-0.8,3.3-1.3,5c-1.3-0.3-2.2-1.2-3.2-1.9C240.6,161.9,239.6,161.2,238.6,160.5z"/>
	<path class="st9" d="M249.3,141.7c-0.5-0.2-1-0.3-1.3-0.7c-0.9-0.9-1.8-1.8-2.6-2.7c0-0.4,0.2-0.7,0.5-0.9c1.1-0.9,2.2-1.8,3.3-2.6
		c0.2-0.1,0.5-0.1,0.7-0.2C249.7,136.9,249.6,139.4,249.3,141.7z"/>
	<path class="st26" d="M213.5,108.4c-1.1,0-2.2,0-3.3,0.3c-0.2,0-0.4-0.1-0.7-0.2c0.6-0.6,1.2-1.2,1.8-1.7c0.1-0.1,0.4-0.2,0.5-0.3
		c0.4,0.2,0.7,0.4,1.1,0.6C213.5,107.3,213.6,107.8,213.5,108.4z"/>
	<path class="st24" d="M207.2,139.6c0.8,0,0.8,0,1,0.6C207.8,140.1,207.5,140,207.2,139.6z"/>
	<path class="st6" d="M81.6,220.2c-0.4,0-0.9,0.1-1.3-0.2C80.7,219.9,81.2,219.7,81.6,220.2z"/>
	<path class="st6" d="M86.6,220.4c-0.4,0-0.9,0.1-1.3-0.2C85.7,220.2,86.2,220.1,86.6,220.4z"/>
	<path class="st20" d="M223.4,54c-0.1-0.1-0.2-0.2-0.3-0.3C223.2,53.8,223.3,53.9,223.4,54z"/>
	<path class="st5" d="M155.9,188.4c-0.1-0.1-0.2-0.2-0.3-0.3C155.7,188.2,155.8,188.3,155.9,188.4z"/>
	<path class="st27" d="M89.7,162.1c-19.5-13-38.8-25.8-58.2-38.7c-0.1,0-0.1-0.2-0.2-0.3c5.2-1,10.2-2.1,15.4-3.1
		c22.3,14.7,44.6,29.5,66.8,44.2c0,0.1,0,0.1,0,0.2c0,0,0,0.1,0,0.1c-5.7,8.6-11.3,17.2-17,25.8c-0.2,0.3-0.4,0.6-0.7,0.8
		c0,0-0.1,0-0.2,0C93.6,181.6,91.6,171.8,89.7,162.1z"/>
	<path class="st27" d="M157.7,96.3c0.2-3.8,0.5-7.4,0.7-11.1c0.5,0,0.8-0.1,1.3,0c6.6,0.4,13.2,0.8,19.8,1.2c4,0.3,8,0.6,12.1,0.8
		c4,0.2,8.1,0.5,12.1,0.7c3.4,0.2,6.8,0.4,10.3,0.7c0,0.5-0.4,0.7-0.7,0.9c-3.2,2.8-6.3,5.5-9.4,8.4c-1,1-2,1.3-3.4,1.3
		c-4-0.3-8-0.6-12.1-0.8c-2-0.1-3.9-0.2-5.9-0.4c-4.2-0.2-8.4-0.5-12.5-0.7c-3.3-0.2-6.7-0.4-10.1-0.7
		C159.1,96.5,158.5,96.4,157.7,96.3z"/>
	<path class="st27" d="M102.2,36.9c0.8,0.9,1.3,1.5,1.9,2.1c2.7,3.1,5.4,6.1,8.1,9.2c0.4,0.5,0.6,0.9,0.6,1.5
		c-0.2,3.1-0.4,6.2-0.6,9.3c-0.1,1.8-0.2,3.6-0.3,5.4c-0.2,4.2-0.5,8.5-0.7,12.7c-0.3,5.1-0.7,10.2-1,15.3c0,0.2-0.1,0.5-0.1,0.8
		c-1.3,0.1-2.5-0.1-3.7-0.2c-1.3,0-2.5-0.1-3.7-0.2c-1.2-0.1-2.5,0-3.8-0.3c0.2-4.6,0.6-9.2,0.8-13.8c0.3-4.6,0.6-9.3,0.9-13.9
		c0.3-4.6,0.6-9.2,0.8-13.8C101.6,46.6,101.9,42,102.2,36.9z"/>
	<path class="st27" d="M145.8,95.5c-1.1,0.1-21.5-1.1-23.6-1.4c0,0,0-0.1-0.1-0.1c0,0,0-0.1,0-0.1c0-0.2,0-0.4,0-0.6
		c0.7-10.4,1.3-20.8,1.9-31.2c0.4-0.1,0.5,0.2,0.7,0.3c0.1,0.1,0.3,0.3,0.4,0.5c1.8,2,3.6,4.1,5.4,6.2c4.5,5.1,8.9,10.1,13.5,15.2
		c0.6,0,1.3,0.1,1.9,0.2c0.5,0,0.6,0.2,0.6,0.7c-0.2,3.1-0.3,6.2-0.5,9.3C145.9,94.7,145.8,95.1,145.8,95.5z"/>
	<path class="st0" d="M100.4,141.3c1.3-2,2.6-3.9,3.9-5.8c1.3,0.7,17.3,11.1,19.8,13c-1,2-2.5,3.9-3.8,5.9
		C113.6,150,107.1,145.7,100.4,141.3z"/>
	<path class="st0" d="M144.4,117.7c-2.4-1.3-15.6-10.2-16.5-11c0.1,0,0.1-0.1,0.2-0.1c5.6,0.3,11.2,0.7,16.8,1
		C145.1,108.8,144.8,114.6,144.4,117.7z"/>
	<path class="st19" d="M67.2,47.1c0.1,0.1,0.2,0.2,0.3,0.4c0.1,1.1,0.2,2.1,0.4,3.2c0,0.4,0.1,0.7,0.2,1c0.2,0.7,0.5,1.4,0.4,2.1
		c0,0.1,0,0.3,0,0.5c0.5,1.1,0.6,2.3,0.8,3.4c0.1,0.7,0.3,1.3,0.5,2c0.1,0.4,0.3,0.7,0.5,1.2c-0.1,0.1-0.2,0.3-0.4,0.4
		c-1.8,0.8-3.6,1.6-5.3,2.4c-1.5,0.7-3.1,1.2-4.6,1.8c-0.9,0.4-1.8,0.8-2.6,1.3c-0.9,0.5-1.3,1.2-1.3,2.3c0.1,1.5,0.5,3,1.2,4.3
		c0.5,0.9,0.7,1.8,0.7,2.8c-0.7-0.4-1.2-1.3-2.2-1.4c-0.7-0.7-1.5-1.3-1.9-2.4c-0.3-0.8-0.7-1.6-1-2.4c-0.4-1-0.8-2-1.1-3.1
		c-0.2-0.9-0.7-1.6-1.1-2.4c-0.2-0.5-0.4-1-0.1-1.4c0.5-0.8,0.5-1.7,0.7-2.5c0.3-1.6,0.5-3.3,0.7-4.9c0,0,0-0.1,0-0.1
		c0.5-1.5,0.5-3.1,0.9-4.5c0.3-1.1,0.3-2.1,0.3-3.3c0.3,0,0.5,0,0.7,0.1c1.8,1.3,3.5,2.7,5,4.3c0.9,0.9,2,1.8,3,2.6
		c0.1,0.1,0.4,0.1,0.5,0.2c1-0.6,1.1-1.5,1.5-2.3c0.6-1,1-2.1,1.7-3.1c0.4-0.6,0.6-1.2,0.8-1.8C66.7,47.3,66.9,47.1,67.2,47.1z"/>
	<path class="st19" d="M69.1,92.2c-1-0.1-1.4-1-2-1.6c-0.5-0.5-0.8-1.1-1.2-1.6c-0.6-0.9-1.4-1.5-2.3-2c-0.3-0.1-0.7,0-0.7,0.4
		c0,0.3-0.1,0.7,0,0.9c0.4,1,0.2,2,0.3,3.1c0,0.9,0,1.9,0.2,2.7c0.2,0.6,0,1.2,0,1.9c0,1.1,0,2.2,0,3.3c0,0.4-0.2,0.7-0.6,0.7
		c-1.2-1.6-2.3-3.2-3.4-4.7c-1.3-1.8-2.7-3.6-4.1-5.4c0-0.1-0.2-0.1-0.3-0.1c-0.5-1.2-0.2-2.3,0.3-3.4c1.2-2.5,2.4-5,3.5-7.4
		c0.2-0.5,0.6-1,0.5-1.6c1.1,0.3,2.2,0.6,3.3,0.8c0.3,0.1,0.6,0.1,0.9,0.1c0.7,0,1.3,0.1,2,0.4c0.2,0.1,0.5,0.2,0.7,0.2
		c1.1,0,2,0.3,3,0.6c0.9,0.2,2,0.2,2.9,0.4c1.2,0.2,2.3,0.5,3.4,0.8c0.2,0,0.3,0.2,0.6,0.4c-0.1,0.9-0.5,1.6-1,2.2
		c-0.6,0.6-1,1.3-1.5,2c-0.9,1.1-1.4,2.4-2.5,3.3c-0.3,0.3-0.5,0.7-0.7,1c-0.2,0.3-0.4,0.7-0.7,1C69.2,90.9,69,91.5,69.1,92.2z"/>
	<path class="st8" d="M43.9,89.5c0,0.6-0.3,0.9-0.8,0.9c-0.4,0-0.7,0-1.1,0c-2.3,0-4.6,0-6.8,0c-0.8,0-1.6,0.1-2.5,0.2
		c-1.2,0.2-2.5,0-3.6,0c-0.6-0.6-1.1-1-1.6-1.5c-0.7-0.9-1.3-1.7-2-2.6c-0.2-0.2-0.5-0.4-0.7-0.6c-0.8-0.6-1.3-1.3-1.8-2.1
		c-0.1-0.2-0.2-0.5-0.2-0.7c0-0.4,0.3-0.7,0.6-0.8c0.2,0,0.4,0,0.6,0c1.9,0,3.8-0.5,5.6-0.7c1.6-0.2,3.2-0.8,4.8-0.8
		c0.8,0,1.4,0.1,1.9,0.7c0.9,1,1.9,1.9,2.8,2.9c1,1.2,2,2.4,3,3.5C42.7,88.4,43.3,88.9,43.9,89.5z"/>
	<path class="st8" d="M75,37.5c-0.4,0-0.6-0.2-0.6-0.6C74.8,36.8,75,37.1,75,37.5z"/>
	<path class="st20" d="M151,28.4c0-0.3,0-0.6,0-0.9c0.3-0.2,0.6-0.4,0.8-0.7c0.7-0.7,1.4-1.4,2.1-2.1c2.8-2.7,5.7-5.4,8.5-8.2
		c0.4-0.4,0.8-0.7,1.3-0.7c0.4,0.2,0.5,0.6,0.6,1c0,0.3,0,0.6,0,0.9c0,3.9,0,7.9,0,11.8c0,0.1,0,0.3,0,0.5c0,1.1-0.3,1.3-1.3,1.1
		c-2.2-0.5-4.5-0.8-6.6-1.4C154.6,29.1,152.8,28.9,151,28.4z"/>
	<path class="st16" d="M166.2,56.8c-0.3,0.3-0.5,0.7-0.8,0.9c-3.2,3.2-6.4,6.4-9.6,9.6c-0.2,0.2-0.4,0.5-0.7,0.7
		c-0.5,0.4-1,0.3-1.2-0.4c-0.1-0.4-0.2-0.8-0.2-1.2c0-1.2,0-2.4,0-3.6c0-0.9,0-1.8-0.2-2.7c-0.2-0.7-0.1-1.5-0.1-2.3
		c0-0.9,0-1.8-0.3-2.6c1.3,0.7,2.8,0.7,4.2,0.7c1.3,0,2.5,0,3.7,0.5c0.4,0.1,0.8,0.1,1.2,0.1c0.8,0,1.7,0,2.5,0
		C165.2,56.5,165.7,56.5,166.2,56.8z"/>
	<path class="st19" d="M76.9,94.4c-0.2,0.1-0.5,0.3-0.7,0.3c-0.6,0-1.3-0.1-1.8-0.3c-1.3-0.6-2.6-0.6-3.9-0.9
		c-0.3-0.1-0.7-0.2-1-0.4c-0.3-0.1-0.4-0.5-0.4-0.8c1,0.2,2,0.4,3,0.7c1.4,0.5,2.8,0.8,4.3,1.2C76.6,94.2,76.7,94.3,76.9,94.4z"/>
	<path class="st25" d="M234.7,82c0-0.3,0-0.5,0.3-0.7C235.3,81.8,235.3,81.8,234.7,82z"/>
	<path class="st11" d="M24.9,170.7c0-0.5,0.4-0.7,0.7-0.8c0.3-0.1,0.6-0.1,0.8,0.2C26.1,170.5,25.5,170.7,24.9,170.7z"/>
	<path class="st11" d="M22.7,171.3c0.3-0.8,0.6-0.9,1.3-0.6C23.6,171.1,23.2,171.2,22.7,171.3z"/>
	<path class="st11" d="M27.4,170c0-0.4,0.2-0.6,0.6-0.6C28,169.8,27.8,170,27.4,170z"/>
	<path class="st9" d="M227.2,142.3c-0.2,0.2-0.4,0.5-0.7,0.6c-0.8,0.2-1.5,0.6-2.3,0.7c-1.2,0.2-2.3,0.7-3.5,1.2
		c-0.7,0.3-1.3,0.3-2,0.4c-0.3-0.2-0.5-0.5-0.7-0.8c-0.7-1.9-1.4-3.8-2.2-5.6c-0.5-1.2-1.1-2.4-1.4-3.7c-0.1-0.3,0-0.6,0-0.9
		c0.3,0.1,0.5,0.1,0.7,0.2c1.1,0.7,2.1,1.4,3.2,2.1c0.8,0.5,1.6,0.8,2.4,1.3c0.7,0.5,1.4,1,2.2,1.4c1.3,0.8,2.5,1.6,3.8,2.4
		c0.1,0.1,0.3,0,0.5,0.1C227.2,142,227.2,142.1,227.2,142.3z"/>
</g>
</svg>
