<?xml version="1.0" encoding="utf-8"?>
<!-- Generator: Adobe Illustrator 26.0.3, SVG Export Plug-In . SVG Version: 6.00 Build 0)  -->
<svg version="1.1" id="Слой_1" xmlns="http://www.w3.org/2000/svg" xmlns:xlink="http://www.w3.org/1999/xlink" x="0px" y="0px"
	 viewBox="0 0 256 256" style="enable-background:new 0 0 256 256;" xml:space="preserve">
<style type="text/css">
	.st0{fill:#FFFFFF;}
	.st1{fill:#8CC63F;}
	.st2{fill:#122130;}
</style>
<rect x="-1.5" y="-1.5" class="st0" width="259.1" height="259.1"/>
<g>
	<g>
		<path class="st1" d="M128.5,250.1c-16.1,0-31.8-3.3-46.5-9.7c-14.2-6.2-27-15.1-37.9-26.4c-11-11.3-19.5-24.5-25.6-39.1
			c-6.2-15.2-9.4-31.3-9.4-47.9s3.2-32.7,9.4-47.9c6-14.7,14.6-27.8,25.6-39.1C55,28.6,67.8,19.7,82,13.5
			c14.7-6.4,30.4-9.7,46.5-9.7s31.8,3.3,46.5,9.7c14.2,6.2,27,15.1,37.9,26.4c11,11.3,19.5,24.5,25.6,39.1
			c6.2,15.2,9.4,31.3,9.4,47.9s-3.2,32.7-9.4,47.9c-6,14.7-14.6,27.8-25.6,39.1c-11,11.3-23.7,20.2-37.9,26.4
			C160.3,246.8,144.6,250.1,128.5,250.1z M128.5,9.7C65.9,9.7,15,62.3,15,127s50.9,117.3,113.5,117.3S242,191.6,242,127
			S191.1,9.7,128.5,9.7z"/>
	</g>
	<g>
		<path class="st1" d="M178.9,102.7h-4.3V77.8c0-25.3-20.6-45.8-45.8-45.8c-25.3,0-45.8,20.6-45.8,45.8v24h-4.3v-24
			c0-13.4,5.2-26,14.7-35.5c9.5-9.5,22.1-14.7,35.5-14.7c13.4,0,26,5.2,35.5,14.7c9.5,9.5,14.7,22.1,14.7,35.5V102.7z"/>
	</g>
	<path class="st1" d="M83.7,93c-2.5-1-7.7,3.1-8.4,8c-0.7,4.8,1.7,10.1,7.7,11.7c6,1.6,8.2-2.1,6.6-5s-3.2-9.1-3.5-11.1
		C85.9,94.5,85.3,93.7,83.7,93z"/>
	<path class="st1" d="M173.4,93c2.5-1,7.7,3.1,8.4,8c0.7,4.8-1.7,10.1-7.7,11.7c-6,1.6-8.2-2.1-6.6-5s3.2-9.1,3.5-11.1
		C171.2,94.5,171.9,93.7,173.4,93z"/>
	<g>
		<path class="st1" d="M156.5,119.4l-0.5-2.8c9.8-1.9,12.6-8.4,12.6-8.5c0,0,0,0,0,0.1l2.7,0.9C171.3,109.2,168.1,117.2,156.5,119.4
			z"/>
	</g>
	<path class="st1" d="M154.3,123.4l-9,0.4c-3,0.1-5.6-2.2-5.8-5.2v0c-0.1-3,2.2-5.6,5.2-5.8l9-0.4c3-0.1,5.6,2.2,5.8,5.2v0
		C159.6,120.7,157.3,123.3,154.3,123.4z"/>
	<g>
		<path class="st2" d="M119.5,100.2c-1.2,0-2.1-0.9-2.1-2.1c0-0.5,0.2-0.9,0.4-1.3c-0.4-0.1-0.8-0.2-1.2-0.2c-2.2,0-3.9,1.8-3.9,3.9
			c0,2.2,1.8,3.9,3.9,3.9c2.2,0,3.9-1.8,3.9-3.9c0-0.2,0-0.4-0.1-0.6C120.3,100.1,119.9,100.2,119.5,100.2z"/>
		<path class="st2" d="M144,100.2c-1.2,0-2.1-0.9-2.1-2.1c0-0.5,0.2-0.9,0.4-1.3c-0.4-0.1-0.8-0.2-1.2-0.2c-2.2,0-3.9,1.8-3.9,3.9
			c0,2.2,1.8,3.9,3.9,3.9s3.9-1.8,3.9-3.9c0-0.2,0-0.4-0.1-0.6C144.8,100.1,144.4,100.2,144,100.2z"/>
		<path class="st2" d="M128.8,138.8c3.6,0,5.4-5.8,5.4-5.8h-10.8C123.4,133,125.2,138.8,128.8,138.8z"/>
		<path class="st2" d="M90.1,105.7c0.8,1.8,2,5.7,2.4,7.4c0.3,1.7,2.6,2.9,3.6,3.1s1.7,1.8,2.9,7.6c1.2,5.8,8.7,15.4,11.1,17.4
			c2.4,2,2.8,3.3,3.6,4.4c0.8,1,6.3,5.1,7.7,6.3c1.3,1.3,3.9,3.1,7.5,3.1c3.6,0,6.2-1.8,7.5-3.1c1.3-1.3,6.8-5.3,7.7-6.3
			c0.8-1,1.2-2.4,3.6-4.4c2.4-2,9.9-11.6,11.1-17.4c0-0.1,0-0.1,0-0.1c-1.2,0.6-2.4,0.9-3.3,1c-0.6,1.5-1.3,3.1-2.1,4.7
			c-2.2,4.5-6,7.9-6,7.9s1.3-4.8-1.4-10.2c-0.3-0.7-0.8-1.2-1.4-1.7c-0.6,0.4-1.2,0.6-2,0.6c-1.8,0-3.2-1.3-3.5-3
			c-4.8-1.2-10.3-1.1-10.3-1.1s-14.5-0.2-17.2,5.3c-2.7,5.4-1.4,10.2-1.4,10.2s-3.8-3.4-6-7.9c-2.2-4.5-3.6-8.7-3.5-10.8
			c0.1-2.1-0.9-3.6-2.1-4c-1.2-0.4-3.4-1.9-3.7-2.9c-0.3-1-0.1-2.9-0.1-2.9s-2.4-1.8-2.4-3.9c0-2,0.1-6.9-0.2-7.8s0-1.8,0-1.8
			s2.4,0.9,2.7,5.4h5.1c0,0-0.1-0.5-0.2-1.3c1,0.4,2.2,0.4,2.2,0.4s-0.7,4.9,1.5,8.1c2.3,3.1,6,3.3,10.8,3.3c4.8,0,6.1-0.2,8.7-2.2
			c2.6-2,3.5-3.9,3.8-6.8c0.2-2.9,2.5-3.1,2.5-3.1s2.3,0.2,2.5,3.1c0.2,2.9,1.2,4.7,3.8,6.8c2.6,2,3.9,2.2,8.7,2.2
			c4.8,0,8.6-0.1,10.8-3.3c2.3-3.1,1.5-8.1,1.5-8.1s1.4,0,2.5-0.6c0,0.3,0,0.6,0,1h3.9c0,0,0.5-3,1.7-3.5l0,0c0,0,0.2,0.4-0.1,1.3
			c-0.3,0.9,0.4,4.7,0.4,6.8c0,2-2.4,3.9-2.4,3.9s0.2,1.9-0.1,2.9c-0.1,0.3-0.5,0.8-0.9,1.2c0,0,0,0,0,0c1.6-0.4,3.3-2.2,4.6-3.8
			c0.4-1.2,0.8-2.4,1.2-3.2c0.8-1.8-0.2-6.9,0.5-8.6c0.7-1.7,0.8-5.1-0.5-5.8c-0.8-0.4-1.8-0.4-2.4-0.4c0.6-3.6,1.2-7.9,1.3-11.8
			c0.1-9.5-1-19.8-5.4-22.1c-4.4-2.3-9-7.2-16.9-9.9c-7.9-2.6-22.3-4.9-34.5,0.7C97.3,53.6,91.8,61.6,90.9,69
			c-0.9,7.4,1.5,19.5,1.3,21c0,0.2-0.1,0.5-0.1,0.8c-0.6,0-1.4,0-2.1,0.4c-1.3,0.7-1.2,4.2-0.5,5.8C90.2,98.8,89.3,103.8,90.1,105.7
			z M119.2,125.6c4.2-0.4,9.6-0.3,9.6-0.3s5.4-0.1,9.6,0.3c4.2,0.4,7.1,4.5,6,10.3c-1.1,5.9-6.9,6.6-8.7,5.7c-1.8-0.9-7-1.1-7-1.1
			s-5.2,0.2-7,1.1c-1.8,0.9-7.6,0.2-8.7-5.7C112.1,130,114.9,126,119.2,125.6z M124.6,99.6c-0.3,4.5-2.6,8.6-7.5,8.6s-4.6,0-7.1,0
			c-2.4,0-5.4-3.2-5.4-5.8c0-2.6,0-2.9,0-5.5s2.6-4.1,3.8-4.1c0,0,6.4,0,9.8,0S124.9,95.1,124.6,99.6z M154,102.4
			c0,2.6-2.9,5.8-5.4,5.8c-2.4,0-2.2,0-7.1,0s-7.2-4-7.5-8.6c-0.3-4.5,3-6.8,6.3-6.8c3.4,0,9.8,0,9.8,0c1.2,0,3.8,1.5,3.8,4.1
			S154,99.8,154,102.4z M100,72.9c1.8-2.1,5.6,0.1,9.6,1.2c4,1.1,15.7,1.1,23.5,0.4c7.9-0.7,10.7-1.7,13-3.7c2.3-2,6.1-1.8,8.6,2
			s1.7,9.6,0.5,14.9c0,0,0.7,0.7,1.4,2.1c-1.1-0.3-2.5-0.5-4.4-0.5c-6.7,0-8,0-12.5,0c-4.5,0-8.1,4.3-8.1,4.3h-2.3H127
			c0,0-3.6-4.3-8.1-4.3s-5.8,0-12.5,0c-3.6,0-5.7,0.7-6.8,1.4c0.4-2.2,1-4.4,0.4-6.7C99.4,81.7,98.2,75,100,72.9z"/>
		<path class="st2" d="M190.7,164.1c-12.5-7.4-32-12.8-34.8-18.2L135.8,216l-2.1-45.5l6.3-6.5l-5.8-7.3c0,0-1.9,1.9-5.4,2
			c-3.5-0.1-5.4-2-5.4-2l-5.8,7.3l6.3,6.5l-2.1,45.5l-20.2-70.2c-2.8,5.4-22.3,10.8-34.8,18.2S49,186.4,49,192.5
			c0,6.2,0,11.8,0,11.8c38,39.9,79.8,35.7,79.8,35.7s41.9,4.2,79.8-35.7c0,0,0-5.6,0-11.8C208.6,186.4,203.2,171.5,190.7,164.1z"/>
	</g>
</g>
</svg>
