<svg xmlns="http://www.w3.org/2000/svg" viewBox="0 0 256 256"><path d="M0 118l1-1c3.8-1.5 7.3-3.6 11.4-4.8s5.4-5.7 5.6-9.8a64.6 64.6 0 0 1 1.8-13.2 7.3 7.3 0 0 1 .6-2.1 4 4 0 0 1 2.7-2.4 2.1 2.1 0 0 1 1.3.5c2.9 2.4 1 4.8.1 7.2-3 8.4-2.3 16.8.3 25.1 2.3-5.1 6-9.6 5.6-15.6-.1-1.1.8-2.1 1.4-3.1s2.9-3.9 2.8-5.8c-.6-9.4 7.6-11.9 12.7-16.8s7.5-10.4 10.5-16c.5-1 .7-2.4-.6-3.1a3.1 3.1 0 0 0-3.3.3 19.3 19.3 0 0 0-6.7 7.2c-.8 1.5-1.4 3.4-3.1 3.8-8.4 2.1-12.7 8.7-17.1 15.3a2.5 2.5 0 0 1-3 1.3c-2.4-5.3.2-9.7 3.1-13.8a18.7 18.7 0 0 1 5.7-5.5c7.9-4.8 14.4-11.2 21-17.6 3.6-3.5 7.5-7.4 13.5-5.9a33.7 33.7 0 0 1 3.4.9c8.6 2.5 9.9 5.7 5.9 13.9-.9.9-2.1.8-3.3.8-3.9.2-8 4-7.2 7.7 1.2 5.7-1.3 8.8-5.7 11.3a6.5 6.5 0 0 0-1.6 1.3c3.7.7 5.7 3.2 3.7 5.2-4.3 4.2-4.5 10.5-8.3 15s-5.1 6.1-10 6.1c3.3.5 7.3-2.9 8.5 2.6a5.3 5.3 0 0 1-2.5 3.6c-3.2 6-9 10.1-11.9 16.4-4.1 9.1-5.4 19.2-10.1 28a5.7 5.7 0 0 1-.8 1.3c-1.4 1-2.6 2.4-4.6 1.7 0-4.9 2.5-9.1 3.5-13.6s.3-9.7-3.5-11.8c-2.2-1.2-2.8-5-5.6-4s-2.6 3.7-4.2 5.4-3.5 5.1-3 8.2c.9 5.9-2.7 8.9-6.9 11.8-2-4.1-.9-9-3.1-13z" fill="#ac9464"/><path d="M117.9.9a2.8 2.8 0 0 0 .1-.9h19c0 .3.1.6.1.9a24.6 24.6 0 0 1-19.2 0z" fill="#ebe7d4"/><path d="M118 256v-.9c6-2.9 12.2-1.9 18.3-.7l.7.7v.9z" fill="#cdbebb"/><path d="M255.1 117.9h.9v17h-.9c-2.6-3-1.3-6.6-1.6-10s-.5-4.9 1.6-7z" fill="#bab0a3"/><path d="M169.9 247.8c-10.6 4.3-21.7 6.2-32.9 7.3v-.4c-1-4.4-.7-8.3 4-10.5 1.4-.7 1.9-2.3 2.8-3.5s3.4-4.3 6.7-1.6 5.7 1 7.3-1.6 2.7-4.1 5.1-5.2.6-5.4 3.7-6.5c2.6 2.1 1.7 5.3 2 7.9.8 4.7 2.4 9.3 1.3 14.1z" fill="#9a7879"/><path d="M253.9 147c-1.2 5.4-1.5 11-3.8 16.1a6.4 6.4 0 0 1-6.4-1.2c-1.2-3.2-4.4-3.7-6.8-5.2s-2.6-2-3.8-3.1a4.3 4.3 0 0 1-1.1-2.6c0-1.2.2-3 1.2-2.9 5.1.7 7.8-3.2 11.1-5.7s3.7-.8 5.6-.9 3.1 2.1 2.1 3.7c-2.6 4.1 1.4 1.1 1.9 1.8z" fill="#856e51"/><path d="M244 161l6.1 2.1c0 1 .1 2.2-.9 2.9-3.1 1.6-.8 6.9-5.4 7.5-.7.1.4.9.5 1.4a2.5 2.5 0 0 1-.9 3.1 2.9 2.9 0 0 1-3.7-.4c-2-1.5-3.9-3.2-4.5-5.7s-1.9-2.9-3.9-2.7-1.5-2.4-.9-3.9c3.2-2.7 6-1.2 8.9.4-2.3-2.1-4.4-5.2-8-1.6a1.9 1.9 0 0 1-2.6 0 3.8 3.8 0 0 1-.6-1.3c.5-7.2 1.2-8.4 5.7-9.6 1.6.3 2.4 1.5 3.2 2.7s4.7 3.4 7 5.1z" fill="#c7b18a"/><path d="M250.1 141.9a27.8 27.8 0 0 0-12.7 7.7c-.9.8-2.5 2.4-3.5-.3-.2-.7-.7-.3-.8.2a7.6 7.6 0 0 0-.1 1.5c-3.1-.9-2.1-3.2-1.8-5.3 4.5-.3 6.2-5.6 11-6 1-.1 2.9-3.4 2.3-6s-.8-3.2.2-4.8a48.1 48.1 0 0 0 6.6-4.5 3.4 3.4 0 0 1 3.7.6l.1 10.1c0 3.4.4 5.6-.8 8.2-1.2-1.2-1.7-4.3-4.2-1.4z" fill="#8c7858"/><path d="M226.8 207.9a17.3 17.3 0 0 1-4.5 5.2c-2.5-.5-2.9.8-2.4 2.9l-2 1.9c-5.1-.3-6.9-2.7-6-8a35.8 35.8 0 0 0 2.9-2.6c.5-.7.2-.4-.4-.5s.3.4-.4.4c-4.1 4.6-4.9 4.7-9.3 1.4 0-2 1.6-3.4 2.3-5.1a74.1 74.1 0 0 0 6.3-8.2 2.6 2.6 0 0 1 1.9-.8 2.5 2.5 0 0 1 1.6 1.4c.5 2.7.8 5.6 4.3 6.3.5.1 1.1.5 1.1.9 0 3.1 2.8 3.5 4.6 4.8z" fill="#8a6c58"/><path d="M205 229a17.2 17.2 0 0 1-7.1 4.8c-5.2 4.4-7.9-.7-11.3-3.1-.9-.7-1.6-1.9-.6-2.4 4.4-2.2 2.2-4.5.4-6.9a2.8 2.8 0 0 1-.6-2.3 3.1 3.1 0 0 1 2.3-1.5c3.1.2 4.4 2.5 5.8 4.8a7.5 7.5 0 0 0 6.1 2.7c2.6 0 4.9.7 5 3.9z" fill="#63463b"/><path d="M232 169c2.1-1.7 4.1-1 4.3 2a3.5 3.5 0 0 0 1.5 3.3c1.6 1.1 2.7 4.5 5 3s-1.5-3.3-1.4-5.6c2.9 1.7 4.7 1.2 4.6-2.4s1.6-2.7 3.2-3.3a54.8 54.8 0 0 1-6.2 16c-1.6.2-3 .7-3.5 2.5s-1.2 2.2-2.8 1.4-.9-2.7-1.1-4-1.4-1.7-2.3-2.4c-4.3-3.5-4.5-4.9-1.3-8.7a1.9 1.9 0 0 1 0-1.8z" fill="#927651"/><path d="M205 208c4.1 4.2 6.4.3 9-2 .7 1.6-.1 2.8-1 4-1.7 4.8 1.7 6.3 4.9 7.9l-1 1a4.6 4.6 0 0 0-4.3 2.6c-.9 1.6-2.1 3-4.3 3s-5.9-3.2-9.3-3.8c-1.7-.3-2-1.9-1.8-3.5a2.5 2.5 0 0 1 1.3-1.7c3.8-1.4 6.8 1.3 10.5 2.4-1.2-4-6.1-5.4-5.2-9.8a.9.9 0 0 1 1.2-.1z" fill="#6c4d3d"/><path d="M226.8 207.9c-1.8-1.1-3.3.6-5.4.8 1.1-3.4 1-5.4-3-6.3s-2.6-3.8-2.3-6.3 2.5-.3 3.2.7 4.6 3.5 6.6 6.3a6.8 6.8 0 0 0-1.8-4c-.9-1-2.1-1.9-2.4-3.4 1.5-2.5 3.6-2.9 6.1-1.6a3.1 3.1 0 0 1 .9 1.1c.6 2.4 3.2 4.1 2.4 7s-2.6 4-4.3 5.7z" fill="#5c4034"/><path d="M197.9 216.9c.2 1.1 0 3 1.4 2.8 4.1-.4 6.4 3.1 9.7 4.3.4.2.5.5.4.7s-.3.4-.4.4c-.4 2.3-2.4 2.9-4 3.9-1.7-1.9-3.3-3.5-6.6-2.5s-4-1.6-5.4-3.4c2.1-1.7 2.3-4.9 4.9-6.2z" fill="#80614d"/><path d="M169.9 247.8c-2-5.7-1.9-11.8-2.9-17.7-.2-1.4.4-3-1-4.1s-1.1-2.5-.4-3.9 3.1-1 4.6-.2a5.1 5.1 0 0 1 2.4 3.9c-1.4 2.3-2.8 4.5-1.2 7.3s.8 6.4 1.5 9.5a4.7 4.7 0 0 1-1.8 4.8z" fill="#b7988f"/><path d="M237.7 191.9l-2.6 4.1c-2.7 1.6-5.3 3.4-7.1-1h0l-1.3-1.5c-1.2-1.2-3.8 2.6-4.2-.9a6.5 6.5 0 0 1 2.9-6.4 3.5 3.5 0 0 1 1.4-.6c1.4.1 2.8.4 3.4 1.9-.2 3.1.9 4.6 4.2 3.6a3.5 3.5 0 0 1 1.2-.7 1.9 1.9 0 0 1 2.1 1.5z" fill="#9a8167"/><g fill="#4e3332"><path d="M187.3 240.3c-2.4 2.1-5.3 2.8-8.2 3.7-1.3 0-2.8.1-3.9-1-2.4-3.5-1.7-7.3-1.1-11 1.2-2 2.2-1.1 2.7.3s2 4.5 3 6.8c1.7-.5 3.2-1.6 5.1-1a2.6 2.6 0 0 1 2.4 2.2z"/><path d="M186.9 230c.5.1 1.2 0 1.4.3 2.5 3.3 5.5 5 9.6 3.5a28.4 28.4 0 0 1-10.6 6.5l-.3-.3c-.8-1.9 1.3-3.3.7-5.1s-2.1-3-.8-4.9z"/></g><path d="M250.1 141.9c-.5-2.3.8-3 2.7-2.6s.4 2.8 1.5 4-.3 2.5-.4 3.7l-4.2 3.5c-2.8-3.2 4.5-5.6.4-8.6z" fill="#654d38"/><path d="M237.7 191.9l-2.7-.9c-1.4-2.5-1.5-4.5 2-5l2.2-2.1c1.4 0 2.3.5 1.9 2.2a14.8 14.8 0 0 1-3.4 5.8z" fill="#876b50"/><path d="M228 195c2 3 4.8.4 7.1 1-.5 2.6-2.4 4.3-4 6.2-.7-2.5-3.4-4.2-3.1-7.2z" fill="#745946"/><path d="M176 243c1.1.1 2.3-.1 3.1 1a16.4 16.4 0 0 1-8 3.4l.9-4.4c1.3-1.2 2.6-.9 4 0z" fill="#b07e60"/><path d="M209 225.1V224a6.5 6.5 0 0 0 3.1-3.6c.9-2.6 2.6-3.2 4.8-1.5-2.6 2.1-4.2 5.5-7.9 6.2z" fill="#5b3b29"/><path d="M241.1 186.1c-.6-.8-1.3-1.5-1.9-2.2s-.4-2.6 1.1-3.4 1.7 1.1 2.7 1.5a8.1 8.1 0 0 1-1.9 4.1z" fill="#c4b18b"/><path d="M219.9 216c-1.5-1.5-2.3-3.2-1.5-5.4 2.1-.2 2.2 2.5 3.9 2.5z" fill="#6e4e37"/><path d="M192 18c10.2 5.4 18.8 12.9 27 20.9-.1 1.7 1.1 2.7 2.2 3.6a31.9 31.9 0 0 0 5.6 5.4 1.8 1.8 0 0 1 1.2 1.9c1.6 3-.2 7 2.7 9.7s1.6 4.4 2.9 6.4c2.8 4.9 5.4 10 9.1 14.4 2.5 2.1 3.6 5.3 4.8 8.2s-1.3 3.6-.9 5.6c-1.1 2.2-.3 4.3.4 6.3a7.4 7.4 0 0 1-.8 5.3c-1.1 1.7-2 4-4.5 3.3s-6.2-1.8-6-5-3.3-7.5-3.7-11.8c-1 2.8-1.1 6-4.2 7.4s-5.3-1.1-9.1-1.6c4.2 8.9 3.8 17.3.3 25.5-1.1 2.4 0 5.5-2.7 7.3-5.6 1-7.5-1.1-7.5-8.5.1-1.8.8-3.6.2-5.5-3.1-9.4-1.3-18.4 3.4-26.8 2.6-4.5 1.7-9.4 1.7-14.1 0-2.8-3.1-3.8-4.9-5.4a14.7 14.7 0 0 0-5.6-3.1c-6.5-3.8-11.7-7.9-11.3-16.9a18.9 18.9 0 0 0-7.8-16.4c-1.4-1.1-2.9-2.2-3.6-4s-.4-4.6 2.7-4.2 4.8-1.2 5.5-4.1A4.9 4.9 0 0 1 192 18z" fill="#f0f0ec"/><path d="M192 18a34.3 34.3 0 0 0-2.2 5.6c-.6 2.9-1.8 5.6-5.7 3.5-.7-.4-1.5-.9-2.3-.1s-.4 1.8.1 2.7.7 1.7 1.4 2c6.1 3 8 8.7 9.9 14.6a11.4 11.4 0 0 1 .8 4.4A14.9 14.9 0 0 0 204 66c1.7 3.6-.4 4.6-3.4 5s-6.2-4.5-8.1-7.6a41.6 41.6 0 0 1-3.5-7 26.1 26.1 0 0 1-.5-7.9c.3-2.3-.6-4.2-1.6-6.2-4.7-8.5-13.2-12.8-20.3-18.6-1.5-1.2-2.5-.5-3.8.6-3.1 2.7-6.9 2.3-9.8-.6-7.9-8.1-7.8-9.3 1.2-16a9 9 0 0 1 3-1.7c2.3-.7 4.5.6 6.8 0a95.2 95.2 0 0 1 28 12z" fill="#eee9d7"/><path d="M164 6c-2.1 2-4.7.6-7 1s-5.7 2.3-8.6.2c-8-2.6-16.2-1.7-24.4-.8a3.3 3.3 0 0 0 2.9.9c1.2 0 2.4-.3 3.5-.2s5.1.5 5.5 3.2-2.2 3.2-4 3.8c-4.2 1.7-8.7 1.8-13.2 1.3-2.1-.3-4.4-1.1-3.6-4.2s-1.4-2-2.1-2.9-5.6-2.6-5.9-6.2L117.9.9h19.2A88.4 88.4 0 0 1 164 6z" fill="#d9cd9f"/><path d="M251 125.1c-.6 3.4-3.3 3.6-5.9 3.9-1.1-2.7 2-4.7 1.2-7.3a6.6 6.6 0 0 1 0-1.4c2.2-4.5 5.2-8.9 2.5-14.3a2.8 2.8 0 0 1-.3-1.3c.7-1.9 0-3.8-.4-5.6a3.4 3.4 0 0 1 .4-1.8c.8-1 1.9-.2 2.7-.6a74.2 74.2 0 0 1 3.7 20.3c-3.4 1.7-4.1 4.7-3.9 8.1z" fill="#99896e"/><path d="M242 81c-2.4-1.5-4.3-3.5-4.2-6.5a3 3 0 0 0-2.1-3c-3.3-.8-2.8-3.2-2.8-5.4l.6-.4c2.2.5 4.1 2.4 6.6 2.2A31.6 31.6 0 0 1 245 78c-.6 1.3-1.3 2.7-3 3z" fill="#b7a88d"/><path d="M232.9 66.1c-2.4-1.4-1.8-4.2-2.9-6.2s-.6-4.3 1-6.1a26 26 0 0 1 6.1 9.2c-1.1 1.2-2.7 1.8-3.9 2.9z" fill="#c8b683"/><path d="M251 125.1c-2.3-4.5-.5-8.1 3.9-8.1.1.3.1.6.2.9l-.1 7.1z" fill="#68533f"/><path d="M242 81a5.5 5.5 0 0 1 3-3 51.3 51.3 0 0 1 4.2 10.9c.1.4.2 1-.4 1.1s-1.4-.2-1.6-1.1c-2.7-2-2.5-5.9-5.2-7.9z" fill="#826e59"/><path d="M233.2 65.9c-.7-3.6 2-2.7 3.9-2.9a11.2 11.2 0 0 1 3 4.9c-3.3 3-4.8-.6-6.9-2z" fill="#a39064"/><path d="M231 53.8l-1 6.1c-4-2.7-2.4-6.5-2-10.1 1.3 1.1 2.8 2.1 3 4z" fill="#d2cca1"/><path d="M247.2 88.9c.6.2 1.3 1.4 2 0a3 3 0 0 1 .8 3.1c-.9 1.6-.2 3.4-.9 4.9V99c-3.9 0-2.4-3.1-2.9-5.1s-.8-3.6 1-5z" fill="#b6ae9c"/><path d="M249.1 96.9c-1.4-1.9-1.7-3.6.9-4.9a8.9 8.9 0 0 1 1.2 4.7c-.6 1.2-1.3.6-2.1.2z" fill="#786953"/><path d="M226.8 47.9c-2.9-.5-4.2-3-6-4.8-.1-.9.3-1.4 1.2-1.2a23.1 23.1 0 0 1 4.8 6z" fill="#6b6d5e"/><path d="M222 41.9l-1.2 1.2c-2.1-.7-3.9-1.6-1.8-4.2z" fill="#d7d4ba"/><path d="M3.1 154c1.3-1.9 1.8-4.3 4.3-5.3a2.7 2.7 0 0 0 1.5-3.3c-2.4-9.3 5.1-13.7 9.3-20.6 1.8 3.5 3.5 5.7 6.5 7.2s3.7 9 2.7 12.7-2.2 9.1-4.4 13.3c.2 1.9-1.3 2.9-2.3 4.2s-.2 2.3 1.3 2.8c5.9 1.1 10.3 5 15.1 8.3 1.9 1.4 3.1 3 2.1 5.5s-.2 4.2-.1 6.4 1.3 4 4.1 4.7c6.9 1.9 10.9 7.2 11.3 14.1.1 1.7-.4 3-1.9 3.7-3.8 1.7-7.2 4.1-10.9 5.9s-5.9.5-8.7-.5A121.2 121.2 0 0 1 3.1 154z" fill="#ae9b71"/><path d="M33 213.1c7.5 1.6 12.5-4.3 18.9-6.2a2.2 2.2 0 0 0 1.8-2.1c.4-6.2-5.3-13.1-11.8-13.7-3-.3-4.1-1.6-3.9-4.4s-2.2-6.4.6-9.5c.6-.7-.6-1.9-1.4-2.3-5.3-3.1-9.6-8.1-16.2-8.9 1.5-4 4.9-.7 7.1-2a15.3 15.3 0 0 1 3.7-.2c5.9.8 8.5 6 12.5 9.4 1.8 1.6 3.4 3.6 5.6 4.8s3.7 4.5 4.3 7.5.6 4 3.1 3.7 2.2-2.2 2.4-3.9 0-3 1.2-4.2c3.9.1 3.6 3.2 3 5.3-2 6.9 3.4 10.3 6.7 14.6 1.1 1.6 3-1.2 4.5.1s0 3.8-.8 5.5-2.2 3.8-1.9 6.1c.6 9.5 6.8 16.2 12 23.4 2.2 2.8 5.4 4.7 6.9 8-1.2 2.6-2.8 3.5-5 1a13.6 13.6 0 0 0-4.7-3.2 8.7 8.7 0 0 1-2.7-2.3c-3.1-2.8-6.4-5.3-9.1-8.5s-8.6-3.4-11.4-3.1-5.6.2-8.3.8A91.2 91.2 0 0 1 33 213.1z" fill="#a08c6a"/><path d="M82 241a6.4 6.4 0 0 1 4.9 2.8c1.6 3.1 2.6 1.6 4.1.2 3.5-.7 6.1 2 9.2 2.6s5.8 1.4 8.8.5a11.5 11.5 0 0 1 3.7 0c6.2 1.6 10.8-1.8 15.6-4.8 1.5-.5 2.5-2 4.1-2.5 2.6 1 1.1 3.9 3 6.1a38.4 38.4 0 0 1 22.4-21.9c2.9-.1 5.1-3 8.3-1.9 0 1.3-.1 2.6-.1 3.9.3 3.9.3 7.7-4.9 8.6-.6.1-1.2 1.1-1.5 1.9-2.2 5.4-6.2 6.4-10.8 2.5-1.7-1.5-2.5.1-3.1 1-1.8 2.7-2.8 5.5-6.5 6.9s-.2 5.4-2.1 7.8l-19.1.4c-11.8-1.2-23.4-3-34.3-7.9.1-2.2-2.4-3.8-1.7-6.2z" fill="#8b6b64"/><path d="M50.1 228.8a3.5 3.5 0 0 1 3.7-1.8 17.7 17.7 0 0 0 11.4-2.8c.9-.6 2.5-.8 2.3.3-.6 5.3 5.6 5.7 6.8 10 .5 1.7 4.9 1.5 5.7 4.5-3.4 3.6-5.2-1.4-8-1.4-1.2 0-1.8-1.8-3.1-2.6-1.3 1.3-1.2 4-3.8 3.8a75.4 75.4 0 0 1-15-10z" fill="#8c7560"/><path d="M65.1 238.8c2-2.5 4.9-2 7.6-2.1s4.2 4 7.3 2.3l2 2c.7 2.1 4.1 3.4 1.7 6.2a72.7 72.7 0 0 1-18.6-8.4z" fill="#6f554c"/><path d="M107.1 2.1c1.7 2.5 4.7 3.2 6.9 5.3s5.4 1.4 1.8 4.9c-.7.6.6 1.5 1.3 1.6 5.9.9 11.8.7 17.2-2.2 2-1.1 1-1.8-.4-2.7s-4.9-.5-7.2-.4-3.9-.7-5.9-.9c4.2-4.5 18.7-5.3 28.1-1.7-.8 2.6-.9 5.5-4.2 6.7s-1.3 2.2.1 3.2 3.3 2.2 3.9 4.3-1.2 4.1-3.5 5-3-1.2-4.1-2.3c-4.8-4.5-5-4.5-10.6-1.5s-12.1.9-18-1.1a23.8 23.8 0 0 0-10.6-1.1c-6 .6-11.9-.6-17.8-1.3S78.5 14.7 80 10c8.6-4 17.7-6.3 27.1-7.9z" fill="#e9dfb3"/><path d="M24 85h-.9c-1.5-1.2-3.1-2.7-2.5-4.5 2-5.9-1-9-5.6-11.5l1-1.9a39.5 39.5 0 0 0 5.7-1.4c2.3-1.6 3.2-3.4 1.9-6.4-2-4.6 1.8-5.7 5-7.1 1.6-.1 2.9.3 2.9 2.3s-2.3 1.4-2 2.6 2.2 1.2 3.4 1.5a6.9 6.9 0 0 0 2 .1c2.8-.3 15-11.2 15.6-13.9s-.8-2.8-1.6-4-2.7-2.4-4-3.7c.2-3.1 3.3-3 5-4.4a3.3 3.3 0 0 1 2.7.9c1.7 1.7 2.2 3.8 1.8 6.6 4.6-1.9 8.7-3 12.3-5.3s6.2-3.2 9.7-.9c1 2 .2 3.9-.6 5.7s-6.5.6-8.8 3.3c-3.8-.5-6.8 1-9.3 3.6-8.8 8.9-19 16.2-28.6 24.2-4.4 3.8-4.6 9.1-5.1 14.2z" fill="#b4a16f"/><path d="M80 10c0 5.8 1.2 7.1 7.3 6.9s12.6 1.9 19.2.4c3.1-.6 6.9 1.8 10.4 2.8A23.4 23.4 0 0 0 131 20c5.8-1.6 6.4-1.3 7.3 3-3.5 2.2-7.7 2.2-11.5 2.1-6.1-.1-12.3-.1-18.3-1.9a12.6 12.6 0 0 0-9.7.4 7.2 7.2 0 0 1-7.5 0c-4.1-2.3-8.7-1.2-13.2-.9s-5.7-.4-4.4-4.9c.6-1.9-1.3-3-.7-4.7a23.1 23.1 0 0 1 7-3.1z" fill="#decf9a"/><path d="M73 13.1c1.1 2.1 7.3 3.8.6 6.6a2 2 0 0 0 .1 1.3 2.2 2.2 0 0 0 2.7.7c3.2-1.3 6.6-.6 9.9-.7s4.8-.4 6.6 2.1 3.4-.2 5.1-.1l.3.6c.2 1.6-.5 3.4.7 4.9 2.3 3.3.7 5-2.5 6.1a3.5 3.5 0 0 1-1.4-.3c-4.5-2.9-8.2-7.2-14.2-7.8-3.2-.4-6.2.4-9.4.4-5.2 0-8.1-3.4-7.5-9a27.9 27.9 0 0 1 9-4.8z" fill="#d5c692"/><path d="M64 17.9c2.5 8 3.3 8.3 11.4 7.2 6-.7 11.6.6 16.2 5 1.4 1.4 2.9 2.6 4.4 3.9-2.2 3.3-4.6 3.1-7.5.9-4.9-3.7-10-6.3-16.5-3.8a12.2 12.2 0 0 1-5.4.2 14.7 14.7 0 0 0-9.8 2.4c-4.7-1.2-4.9-2.1-2.9-6.1s5.4-2.9 5-6.6a11.7 11.7 0 0 1 5.1-3.1z" fill="#c6b680"/><path d="M31 55c-.2-2.1-1.6-2-3.1-1.9s-1.7-1.8-.5-2.2c4.5-1.6 4.8-5.9 6.6-9.3a8.6 8.6 0 0 1 3.7-3.6c1.9-.8 3.6-2.9 5.9-.8 6 9.1 3.1 17.3-7.3 20.6-3.1 1-4.7.2-5.3-2.8z" fill="#c5b88e"/><path d="M20.9 88.9c-1.3 5.6-1 11.5-2.2 17.1-.9 4-2.8 8.4-8.5 8-2-.1-3.3 1.5-4.8 2.4s-2.7 1.8-4.4.6a15.7 15.7 0 0 1 1-8c2.2-1.7 5.2-1.9 7.6-3.4s3.8-3.4 2.8-6.4c1.7-3.1 3.6-6 4-9.7a2.8 2.8 0 0 1 1.7-1.3 3.2 3.2 0 0 1 2.8.7z" fill="#bfa970"/><path d="M18 89l-1.1 1c-1.4 1.9-1.8 4.5-3.8 6.1s-5.7 2.7-8.9 0c2.6-7.8 4.5-15.9 8.7-23.2 3.8.4 4.4 3.2 4.8 6.2a3.1 3.1 0 0 1-.3 1.3c-2.4 3 .5 5.7.6 8.6z" fill="#e9deae"/><path d="M34 41.6c.6 2.6-1.1 4.9-1.1 7.4s-2 1.7-3.3 2-3.2-.3-1.7 2.1c-3.6 2.4-6.3 4.8-.9 8.2.3.2.2.8.3 1.2-3.3-.4-1.8 4.9-5.2 4.4-1.5-.6-3.5-.5-3.6-2.8s2.9-3.5 2.6-6A82.5 82.5 0 0 1 34 41.6z" fill="#796f54"/><path d="M4.2 96.1c4.6 2.3 7.8.3 10.3-3.5.7-1 .7-2.6 2.4-2.6a9.8 9.8 0 0 1-3.9 9c-2.4 4.2-5.1 8-10.9 7z" fill="#decf98"/><path d="M15 69c4.3 1 8.8 1.8 7.1 8-.8 2.9.4 5.4 1 8l-2 2.1C19.2 85 16.4 83.5 17 80h0c1.7-2.4.5-4.3-1.1-6.1s-2.6-1.1-2-2.9a2.3 2.3 0 0 1 1.1-2z" fill="#c4b486"/><path d="M43.1 37.9c-1.9-1.8-3.6.5-5.4.1a46.9 46.9 0 0 1 11.2-10.1c4.3 1.5 4.6 2.4 1.4 5.2-.6 3-4.3 1.6-5.4 3.9s-.8 1.5-1.8.9z" fill="#51493b"/><path d="M50.3 33.1c2.5-2.5.7-3.9-1.4-5.2l10-6.9c2.6 1.4 2.7 3-.2 3.9s-3.1 3.1-4.5 4.8.9 2.4 1.8 3.3c-.2 3.1-.4 3.1-4 1z" fill="#a79c72"/><path d="M2.1 106c4.8-.6 7.4-4.4 10.9-7 2.2 4.5-.4 8.3-7.1 9.8a16.7 16.7 0 0 1-3.9.2c0-1 .1-2 .1-3z" fill="#d0bf87"/><path d="M13.9 71a37.9 37.9 0 0 1 3.8 3.2c2.1 2.2 2.6 4.2-.7 5.8a9.4 9.4 0 0 0-4.1-7.1 17.4 17.4 0 0 0 1-1.9z" fill="#d9cb9b"/><path d="M19 64c.5 1.6 2.2 1.7 3.1 2.9-2.1.1-4 2.4-6.1.2a5 5 0 0 1 1.7-3.1c.5-.6.9-.6 1.3 0z" fill="#878884"/><path d="M19 64h-1.3a16.6 16.6 0 0 1 3.4-5.9c1.3 2.6.6 4.6-2.1 5.9z" fill="#584e3f"/><path d="M32 165h-4c0-3.1-1.3-5.9-1-9v-1c3.6-6.2 7.8-12 10-18.8.8-2.3 2.5-3.9 3.9-5.7 3.6-5.1 4.7-11.7 9.2-16.4 1.4-1.4-.8-2.7-.1-4.1l2-3c-1.1-5.2 2.3-8.3 5.4-11.7s5.2-6.5 5.8-10.8 4.1-5.5 4.7-9.5 4.4-1.8 6.2 2.1a5.9 5.9 0 0 1-1.3 5c-4.7 5.1-6.4 11.8-9.9 17.4a8.8 8.8 0 0 1-2.5 5.1c-3.5 2.8-4.4 6.9-5.2 11-.7 2.3-.8 4.8-2 6.9-2.8 8.9-5.9 17.6-8.1 26.6-.3 1.2-.7 2.7.6 3.6s2.7.3 3.8-.4c3.6-2.4 4.9-6 4.4-10.2.1-1.8-1.9-4 1-5.2 3.5 1.8 4.5 4.8 3.6 8.5-.1 1.8.7 3.6.7 5.4s-.7 5.6-4.2 6.3c-1.6.3-2.6.7-2.7 2.8-.4 5.9-4.7 8.7-9.8 6A13.8 13.8 0 0 0 32 165z" fill="#8c7554"/><path d="M24 85c2.8-4.2 7-7.4 9-12.1a2.9 2.9 0 0 1 2.4-2.1c7.1-1.1 10.7-6.6 14.5-11.7a5.4 5.4 0 0 1 .9-1.2c2.2-2.2 5.1-4 7.9-2.2s.8 5-.2 6.7c-4.9 8.8-10.7 16.9-19.6 22.1-2.2 1.3-3 2.3-2.3 5.1s-2 6.8-3.7 9.8a8.1 8.1 0 0 0-1.3 4.4c.2 5.9-4 10.3-6.2 16.2-4.9-5.4-4.1-11.5-4-17.3s.1-9.4 3.3-13.5c1-1.2 0-2.8-.7-4.2z" fill="#a68c59"/><path d="M73.1 77.1c-.4-1.8-.8-3.5-3.2-2.5-.9.5-4.3.9-.7 2.8a1 1 0 0 1-.1.9c-6.4 5-5.5 14.5-12.2 19.4-2.5 1.8-4.9 4.3-3.5 8.1.1.2-.9.8-1.4 1.2-1.2-3.6-4.2-1.5-6.3-1.9s-3.1 1.5-4.9.4c.2-.4.4-1.1.7-1.1 8.3.3 11.2-6.5 15-11.8a6.8 6.8 0 0 0 1.2-4.7c-.4-2-.1-2.7 1.8-3.2s3.1-2.2 2.3-4.2-2.5-.9-3.8-.1a1.5 1.5 0 0 1-2.2-.4c-.6-.9.2-1.5.8-2a17.8 17.8 0 0 1 3.3-2.3c4.1-2.5 6.8-5 4.5-10.7-1.6-3.9 6.1-8.9 11.6-8 3.6-1 4.9 1.1 3.8 3.9s-1.3 8-2.7 11.9c-.9 1.8-1.5 4-4 4.3z" fill="#9f885b"/><path d="M76 73c1.3-4.2.3-8.7 3-12.8 1.3-2-1.2-2.8-3-3.2a.9.9 0 0 1 .1-.5c2.6-9.5 2.3-9.9-7.5-12.6A5.1 5.1 0 0 1 67 43c1-5.6 5.5-1.4 8-3s3.9 1.2 5.9.9l1.4.2a27.7 27.7 0 0 1 4.6 2.2l.4.2c2.2 1.3 5.7 2 5.1 5.3s-4.4.6-6.7 2.2c1.8 3 .8 5.7-1.3 8.4a25.7 25.7 0 0 0-3.6 8.1c-.8 2.4-1.2 5.4-4.8 5.5z" fill="#b2a070"/><path d="M50 110c2.3 1.8 2.4 3.7.5 5.9-5.2 5.8-7.4 13.4-11.5 19.8-2.4 3.7-5.2 7.7-7 12s-1.5 6.1-5 7.3a186.4 186.4 0 0 0 7.4-22.2c1-3.7 3-7.4 4-11.3.3-1 1.4-1.2 2.4-1.5 3.2-.8 5.2-2.1 4.5-6.2s2-3.8 4.7-3.8zm-23 46c1.2 2.9 3.8 5.6 1 9s-5-1.9-7 1c-3.2-.4-3.4-2.1-1.7-4.3A43.1 43.1 0 0 1 23 158c1.4-.5 2.3-2.1 4-2z" fill="#9e8359"/><path d="M17 80c.5 2.9 4.4 3.8 4.1 7.1-.1.6-.1 1.2-.2 1.8H18c-2.4-2.7-5.2-5.4-1-8.9z" fill="#decf98"/><path d="M232.1 145.1c.3 2-.8 4.1.9 5.9s.5 1.5.8 2.2c-4 2.1-4.1 6.1-4.8 9.8-1 .2-1.5-.4-1.8-1.2-2.5-5.9-.3-14.8 4.5-18 .6.3.7.7.4 1.3z" fill="#d2cbc2"/><path d="M244 161c-4 .6-5.1-2.7-7-5.1 2.5 1.5 6.8.5 7 5.1z" fill="#b8a177"/><path d="M231.9 143.8c-4.3 5.9-5.7 12.3-2.9 19.2 0 .3.1.6.1.8 1.1 2.9-.5 4.4-3 4.3a4.6 4.6 0 0 1-4.7-4.8c.1-4.3-.7-8.9.7-12.8 2.7-7.6.9-15 .3-22.5a1.9 1.9 0 0 1 .7-1.3c3.1-2.3 3.1-3.6-.3-9.1-2.1 1.4-1.3 5.3-4.8 5.4.1-.6-.1-1.4.2-1.9 3.8-7 2.7-14 0-21-.4-1.1-1.7-2.6-.3-3.6s2.7 0 4 .8c5.5 3.1 7.7 1.8 8.1-4.6.1-1.1-.7-3.1 1.2-3.2a3.3 3.3 0 0 1 3 3.5 6.6 6.6 0 0 0 2.7 6.4c.6.5 1.2 1.4.7 2.2-3.8 5.5 2.8 4.4 4.3 6.5s1.5-.4 2.2-1.2a8.6 8.6 0 0 0 1.9-6.9c3.9 0 1.8 3.4 2.9 5h.1c1 2-1.8 4.3.5 6.1-.8 2.4-2.6 2.5-4.8 2.4-5.7-.2-7.3.9-8.9 6.4s-2.7 9.2-3.7 13.8 1.5 6.8-.2 10.1z" fill="#e7e7e6"/><path d="M223 127c1.5 7.6 3.2 14.9.5 22.8-1.4 4.3-.9 9.4-.9 14.1a3.7 3.7 0 0 0 3.2 3.4c2.4.3 2.9-1.6 3.3-3.4h.9c1.1 3.6 1 6.8-2.2 9.4s-1.2 4-1.9 6a3.8 3.8 0 0 1-.9 1.3c-4 2.1-5.4-.6-6.1-3.7s.1-9.3.6-14c.2-1.8.9-3.5 1.1-5.3-.8-9.8 2.9-19.5.1-29.4-.3-.9-.4-2.4 1.4-2.6s1 .7.9 1.4z" fill="#d9d1cf"/><path d="M231 164c.4-3.1 3.2-4.2 6.1-2.2a19.2 19.2 0 0 1 5.5 5.5c-4.3.4-7.2-3.6-11.4-2.4-.7-.2-.7-.5-.2-.9z" fill="#ac936b"/><path d="M231 164c.1.3.1.6.2.9s-.7 3 .8 4.1l1 1c2.2 3.7-5.5.9-3.4 5.4s-2.2 3.9-4.6 4.6c-.3-3.6-.1-6.8 3.4-9s1.4-4.6 1.6-7z" fill="#d0c2bb"/><path d="M231.9 143.8c-1.2-3.5-.8-7.2-.9-10.8 1.8-1.3 3.1.4 4.5.9 3.2 1.2 5.1.2 5.5-3.3a49.5 49.5 0 0 0 .6-5.4c.1-5.6.3-5.7 5.4-3.2 1.5 2.9-1.7 4.5-1.9 7 1.5 4.5.7 8.8-2 12.9-2.2-1.5-4.3-1.9-5.3 2.4s-3.8.3-5.7.8a5.1 5.1 0 0 1-.2-1.3z" fill="#d3c9bb"/><path d="M214 196c-1.3 3.2-3.9 5.4-6.1 7.9-1.1-1.6-1.1-1.6-.1-3.9-1.7 2.6-2.1 5.9-4.3 8.2-.5 1.7-1 3.4-2.8 4.1s-2.7-2.2-1.9-4.1.8-3.4 1.3-5.2.7-4 1.9-5.7a30.6 30.6 0 0 0 3.7-8c.7-2.1 1.6-3.6 4.2-2.8s4.3 5.7 4.1 9.5z" fill="#c0a99a"/><path d="M214 196c-1.3-3-2-6.3-4-9 0-.2.1-.5.1-.7a49.1 49.1 0 0 0 4.6-10.2c.6-1.6.9-3.7 3.5-3.1-.9 5.8 1.3 11 3.5 16.1-.2 4.2-3.1 5.5-6.6 5.9z" fill="#c8b5ac"/><path d="M215.1 195c2.2-1.7 5.5-2.4 5.8-6.1a5.1 5.1 0 0 1 1.8-4.5c2.2-.8 2.4-5.5 6.2-3.3 1.3 1.1 3.9 1.6 2.9 3.8s-3.2.9-4.9 1a10 10 0 0 0-3.5 7.3c2.1-.8 4.4-1.9 4.6 1.8-2.3-1.4-4.1-.3-6 1-.2 2.3 1 2.7 2.9 2.1s1.1 2.3 2 3.3 1.8 2.8.1 3.7-1.7-1.4-2.6-2.2l-8.3-6.8z" fill="#7f6551"/><path d="M203 208c.8-3.1 3.4-5.3 3.7-8.8 2.4 1.6-.7 3.5 1.2 4.7-.6 1.6-1 3.3-2.9 4.1h-1c-.3.5-.6.5-1 0z" fill="#a89085"/><path d="M213 210a6.3 6.3 0 0 1 1-4c.8-1.2 1.9-1 3.7-.7-1.8 1.8-2.1 4.2-4.7 4.7z" fill="#6a4f3c"/><path d="M186.9 230l2.1 5c-2.6 1.7-3.7-.2-5.1-2-3.2-4-4.4-9.1-7.6-13.2s-6.1-3.4-7.6-6.8c2-4.9 6.1-8.6 8-13.6a2.5 2.5 0 0 1 2.3-1.8 2 2 0 0 1 1.9 2c-.2 3.3 3.4 6 1.5 9.7-.3.7 1.9 1.7 2 3.2 1 3.2-4.4 4.3-2.5 7.8.8-2.2 1.6-4.6 4.1-1.3a27.5 27.5 0 0 0 2.2 2.6c3 3.7 2.5 5.7-1.8 7.2 0 .1-.1.4-.1.5z" fill="#715a51"/><path d="M201 203c-.1 1.9.4 3.9-1.1 5.6s-.4 2.6 1.1 3.4c2.2 2.7 2.1 3-2.1 3.8l-1 1.1c-1.1 2.5-.7 6.2-4.9 6.2a11 11 0 0 0-5-5.2c-1.4-1-2.8-2-1.9-4.1 3.3-1 6.4-1.1 9 2.3a8.1 8.1 0 0 1 1-5.7c1.5-2.5.9-6.5 4.9-7.4z" fill="#b89a83"/><path d="M185.8 214c.6 1.4 2.2 2.2 2.2 3.9a1.9 1.9 0 0 1-2 1.1c-6.3-1.9-1 3.3-2.6 4.3-6.4-3.9-2.7-7.1.6-10.3 1.1-.5 1.5.1 1.8 1z" fill="#594039"/><path d="M228.1 182c-1-.9-1.7-.9-2.1.4a3.4 3.4 0 0 1-2.9 2.7c-1.1-2.3 1.3-3.4 1.9-5.1h0c.8-2.3 5.1-2.4 3.6-6.6-.8-2 4-.7 4.4-3.4 3.2 4.1-.3 3.4-2.6 3.6.2 4.3 5.2 4.2 6.6 7.4-2.6 3.9-5.9 1.4-8.9 1z" fill="#c1ac8b"/><path d="M228.1 182c3-.2 6.1.6 8.9-1v5c-2.2 1-2 3.1-2 5h0c-3 1.3-4-.9-5-3l-3.1-2.1c1.1-1.6 3.2-.2 4.4-1.4s-2.7-1-3.2-2.5z" fill="#af9674"/><path d="M198.9 215.8c1.1-1 4.2-1 2.1-3.8-.1-1.7 1.5-2.6 2-4h1a11.5 11.5 0 0 0 5.6 7c1.8 1 1.7 2.4.9 3.7s-2.6 1.8-3.7.3-5.2-2.4-7.9-3.2z" fill="#8e705a"/><path d="M224.9 198.1c-1.1 3.5-3.4 1-4.2.2s-.1-2.1 1.3-2.3z" fill="#9b8069"/><path d="M169 213c6.2 3.2 10.7 7.5 13.1 14.6.7 2.3 1.8 7.7 6.9 7.4 1.4 2.5-2 3-2 5l-1-1c-3.7-2.9-6.6-6.9-11.2-8.5a3.3 3.3 0 0 1-1.3.4c-5.4-.3-1.4-3.1-1.4-4.9l-2.1-3.2c-1.1-1.5-1.7-3.3-2.9-4.7s-3-5.6 1.1-7.5c1.2.5 1.6 1.2.8 2.4z" fill="#59403d"/><path d="M168.1 218c2.1 1 1.9 2.9 1.9 4.8a5.9 5.9 0 0 0-3.9-.7c-2.8.7-4.9 3.2-8.1 2.9-1.6-4.7 2.3-8.8 7.3-7.7a14.3 14.3 0 0 1 2.8.7z" fill="#5e4a51"/><path d="M173.9 230.1h1q.5.3.3.6c0 .3 0 .4-.1.4.3 4-1 8.1.9 12h-4c-1.7-3.1-.7-6.7-1.9-10 .6-2 2.7-1.8 3.8-3z" fill="#734c48"/><path d="M173.9 230.1c0 2.5-2.7 1.7-3.8 2.9-1.2-2.8-1.9-5.6 2-7 1.8.8-2.9 4.5 1.8 4.1z" fill="#8b6c5d"/><path d="M230 188c1.8.7 2.6 3.2 5 3-.2 1.3-.3 2.9-1.7 3.2s-1.8-1.2-2.3-2.2-1.8-1.5-2.5-2.3c-2.2-2.8 1-1.2 1.5-1.7z" fill="#876b50"/><path d="M175.1 231c-.1-.3-.1-.6-.2-1s.6-1.7.9-1.3c3.1 3.8 8.6 5.1 10.2 10.3-1.9.2-4.1-.7-5.4 2.1s-2.4 1-2.4-.9c0-3.5-2.7-5.9-3.1-9.2z" fill="#391f25"/><path d="M210 122c0 7.2 1 8.5 6 8a1.1 1.1 0 0 1 .3 1.1 4.2 4.2 0 0 1-1.1 1.5 7.8 7.8 0 0 0-2.6 3.4c-1 3.1-1.5 6.3-3.6 8.8-2.6 6-6.1 11.2-11.9 14.7-3 1.9-5.9 4.2-6.9 8.1-.3 1.3-1.4 2.4-3 .9-5.3-10-4.5-20.8-4-31.6a1.7 1.7 0 0 1 2.4-1c6.8 3.3 11.9-1 17.1-4.2 2.2-1.4 2.3-3.5 1.4-5.7s.2-5.5 1.6-8c3.4-.8 3.3 2.2 4.3 4z" fill="#dddae9"/><path d="M210 122c-1.5-1.2-2-3.3-4-4-1.3-3.7-1.5-7.6-1.7-11.5a24.6 24.6 0 0 0-.4-5.4c-.3-1.4-.1-3.2-1.9-3.7s-2.3 1.1-3 2.2a9.1 9.1 0 0 1-3 2.5c-4.7.6-5.8-.4-4-4.4s1.9-5.5.5-8.5a4.2 4.2 0 0 1 .5-4.3 37.8 37.8 0 0 0 7-14.9c2.9.2 4.2-1.1 4-4 4.2 1 6.9 4.4 10.2 6.8a3.1 3.1 0 0 1 1.7 2.9c-.8 6.1-.5 12.3-3.9 18.3a24.7 24.7 0 0 0-2.1 20.8c.8 2.5 1.1 4.8.1 7.2z" fill="#e8e1de"/><path d="M216 131v-1c2-2 .3-5 2-7a10.7 10.7 0 0 0 3-6c.4-2.2 2.3-2.6 3-1.1 1.3 3.1 3.4 6.1 2.9 9.7-.2 1.4-.9 3.1-2.9 1.5s-3.9-2.4-4.8 1.2c-.4 1.5-.4 3.9-3.2 2.7z" fill="#d9d1cf"/><path d="M248.9 105c-3-.5-.1-4.4-2.9-5-1.3-2-2-4.1.1-6.1 1.6 1.4.3 4.3 2.9 5.1.9 2 2.2 4-.1 6z" fill="#dcd6cb"/><path d="M148 20a27.5 27.5 0 0 0-2.6-2.2c-5.5-3.7-5.7-4 0-6.6 2.6-1.2.2-5.1 3.5-5.2 2.4 3 5.7-1.5 8.1 1a21.1 21.1 0 0 0-2.3 1.9c-7.7 6.9-7.7 6.9-.4 14.6 1.9 2 6.3 1.9 7.8-.5s2.9-2.3 4.8-.7c6.7 5.9 14.7 10 20.1 17.7 3.8 5.4 1.8 10.7 3 16-2.9 1.1-4.9-1.2-7.3-2a20.6 20.6 0 0 1-5.2-3.7 18.8 18.8 0 0 1-1.4-2.4c-2.3-6.7-1.5-8.8 3.9-9.4-3.2-1.3-4-4.6-6.5-6.3-1-.7-2-2.1-3.4-1.5s-.8 2-.9 3.2a10.3 10.3 0 0 1-.7 3.4c-1.5 3-3.3 4.3-5.9 1a3.9 3.9 0 0 1-.3-2.1c.4-3.4 3.7-6.2 2.9-10.4-3.3 2-5.4 5.8-9.7 4.2l-1.2-.7c-2.3-2.9-3.7-6.5-6.3-9.3z" fill="#e7e2c9"/><path d="M183 53l7 3c3.3 4.7 4.6 10.8 10 14 1.7 5.9-2.2 9.8-5.1 14.1-1.3 2-2.4 3.6-.6 6.1s.8 5-1 7.3-1.8 2.3-.9 3.6 2.3-.4 3.6-.1c.3 2.4-1.4 3.1-3.2 3.4s-2.7-1.4-3.2-2.9-2-4.1-2.6-6.3c-.2-4.8-.3-9.3 2.5-13.8s.4-17-3.7-21.4a8.9 8.9 0 0 1-2.8-7z" fill="#e0d8cc"/><path d="M247 122c-1.6 1.5-2.9-1-4.9-.3 2.1 3.4 0 6.8.4 10.4s-4.8 4.9-7.7 3c-1.2-.7-2.1-2.1-3.8-2.1.4-5 2.9-9.5 4-14.4s4.1-6.9 8.8-6.6a5.8 5.8 0 0 1 1.9.4c1.8.9 2.3-.8 3.3-1.4a2.6 2.6 0 0 1-1 4.4c-4.4 1.4-1.8 3.6-1 5.6a3.4 3.4 0 0 1 0 1z" fill="#e3dcd2"/><path d="M247 121c-2.6-1.3-3.3-3.8-5.7-6.9 4.6 1.7 7.6 1.8 7.7-3.1-1.5-2-.9-4 0-6 2.9 4 3.2 8 0 12.1a17.9 17.9 0 0 0-2 3.9z" fill="#d3c9bb"/><path d="M57 145c2.4-3.4-1.3-5.3-2-8a1.4 1.4 0 0 0-.2-.6c-1.5-3.5-.4-7.2.5-10.2 1.7-5.6 1.7-11.2 2.3-16.9A9.6 9.6 0 0 1 60 104l2-5c2.6-.1 2.7 1.8 2.1 3.3-1.5 3.9-1.3 7.8-1.4 11.8s0 7.4-2.5 10.9.9 13.7 4.1 15.7c8.2 5.2 9.8 12.9 8.7 21.7-.9 6.6-1.6 13.2-.1 19.8.8 3.5 3 6.4 3.5 9.9-1.7 2.7-1.7 5.5-.9 8.5l-.3.6-4.9 2.1c-.8-2.9-3.2-4.6-5.2-6.5-3.7-3.6-3.2-7.8-2.2-12.1A3 3 0 0 0 61 181l-.7-.3c-3.7-5.6-2.9-11.6-1.5-17.6s2.8-9.1.8-14a17.3 17.3 0 0 0-1.6-3 5.2 5.2 0 0 0-1-1.1z" fill="#a89471"/><path d="M109 248c-5.3 2.6-9.8-.7-14.5-2.1A14.8 14.8 0 0 1 91 244a25 25 0 0 1-6.9-7.2c-2.1-3.3-1.6-6.9-1-10.4a28.8 28.8 0 0 0 .2-9.7 4.1 4.1 0 0 1 .2-2.2 12.7 12.7 0 0 0 2.5-4.2c.6-1.6 1.7-2.4 3.4-1.2a8 8 0 0 1 2 2.9 2.3 2.3 0 0 1 .1 1.4 22.9 22.9 0 0 0 .3 6.9c.5 4.1 1.9 6.6 6.6 5.6a4.2 4.2 0 0 1 4.1 1.3c3 3.7 6.2 2.7 9.6.6s4.3-3.5 7.1-.9a1.8 1.8 0 0 1-.8 2.2c-5.2 2.2-7.2 7.4-10.8 11.1-.9.8-2.5 1.3-.9 2.9s3 2.7 2.3 4.9z" fill="#8e444d"/><path d="M57 145h1c4 6.3 3.7 11.7-.9 17.8-.7.9-1.4 1.7-1 2.7 1.1 2.7.6 5.6.6 8.4s1.2 5.7 4.3 7.1h0c0 2.2.1 4.3-.1 6.4a4.5 4.5 0 0 1-4 3.9 3.3 3.3 0 0 1-3.5-2.9c.7-9.3-8.4-11.2-12.6-16.8-2.2-2.8-4.4-6.3-8.8-6.6 3.3-2.6 6.6-3.4 10.3-.5 2 1.6 4.3 2.2 6.7.1s3.4-3 1.6-5.7-.3-2.6 1.8-2.9c6.1-1.1 6.5-1.9 5.1-8.1a25 25 0 0 1-.5-2.9z" fill="#988460"/><path d="M84.1 215.9c2 2.8 1.3 5.9.6 8.7s-.7 8.2-.6 12.2c-6.1-7-12-14-12.9-23.8.8-3.2 4.2-3.2 6.1-5.1s2 .7 2.6 1.9.9 5.4 4.2 6.1z" fill="#352226"/><path d="M84.1 215.9c-1.3 1-2.5 3.2-3.4-.4a64.9 64.9 0 0 0-2.8-7.5 9.2 9.2 0 0 1-6.7 5c-.8-4.7 3.5-7.6 4-11.8h-.1c1-1.2-.6-3.3 1-4s2.4 1.3 3.4 2.2a11.5 11.5 0 0 1 1.4 1.7 21.5 21.5 0 0 0 1.8 2.4c3.6 3.1 4 6.6 1.5 10.5z" fill="#442f2b"/><path d="M168.1 218c-1.1 0 0 2.3-1.7 1.6-5.5-2.1-8.3-.4-8.4 5.4-3.2 1.6-6.3 3.4-9.6 5-1.1.5-2.1 1-2.3 2.2-.4 2.8-.9 5.2-4.8 4.6-1.2-.2-1.6 1.8-2.1 3s-.3 2.4-.9 3.3-1.1 4.9-3.8 4.5-1.1-3.2-1.5-4.9-.1-2-1-2.7c-.2-7 2.1-10.3 8.5-12 4.5-1.2 8.7-3 12.1-6.3a13.8 13.8 0 0 0 4.8-4.5c4-1.9 5.7-6.4 9.5-8.5.9.5 1.6 1.2 1 2.4s-1.3 4.6.2 6.9z" fill="#6f5055"/><path d="M109 248c-1.5-2.3-2.6-4.9-5.7-5.6.8-1.9 2.2-2.2 3.7-2.4s5-1.8 5.8-5.2 3.9-2.5 6.4-2.1 1.1 3.7.2 5.6-2.7 4.2-1.9 6.9-2.2 3.2-4.5 2.8z" fill="#a2556e"/><path d="M141 228.9c-6.7.7-7.3 6.3-9 11.1-.1 1.9-1 3-3 3a2 2 0 0 1-.4-1.3 44.4 44.4 0 0 1 2.7-7.2c.8-1.7 1.8-3.6-.1-5.3s-2.7-1.7-4.1-2.4-2.3-1.8-.7-3.2a10 10 0 0 0 8.2-4.5c2.4-.5 3.3-4 6.4-3.3.9 1.7.2 3.3-.2 4.9-3.4 4.4-3.4 4.4.2 8.2z" fill="#aa959f"/><path d="M129 242.1v.9c-4.8 3.5-9.4 7.4-16 5 1.5-.8 3.2-1.2 4-3a2.4 2.4 0 0 1 2-1.6 3.3 3.3 0 0 1 1.4.1c3.1.9 5.3-3.7 8.6-1.4z" fill="#a38c90"/><path d="M177 48a2 2 0 0 1 1 2c.7 1.2 2.2 2.3 1.1 4a6.7 6.7 0 0 1-7.4.7c-2.9-1.5-4.3-.4-4.9 2.4l-.8 3.4c-.3 1.1-.8 2.3-2.1 2.4s-1.8-1.3-1.8-2.4c.1-3-3.3-3.4-4.1-5.8a5.4 5.4 0 0 1-1.1-2.6c-.3-3.2-1.9-4.8-5.2-4.3a8.7 8.7 0 0 1-4.8-.8 7 7 0 0 1-1.7-1.3c-1.8-1.2-2.2-5.2-6.1-2.6-1.2.8-3.2-.9-3.7-2.6s-2.6-5.6-.9-7.5 4.8.3 7.2 1.2 1.9 1.4 3.2 1.6c-.3-3.1-3.6-4.4-4.4-7.1s-3.2-3.1-2.5-5.7c-.8-4.6-4.5-2.5-7-3 3.8-3.3 7.1-2.5 10.1 1.2 1.2 1.4 2.6 2.5 3.9 3.8h.7c2.6 1 4.7 2.6 5.3 5.5s1.9 1.7 3.2 2.3c3 1.4 7 1.7 7.9 6 .1 1 .1 2 .3 3 .7 4.8 1 5 5.1 2.6a4.3 4.3 0 0 1 5.1.2c1.5 1.2 3 2.2 4.4 3.4z" fill="#dfd0a6"/><path d="M148 20c4.4 1.4 4.9 5.8 7 9-2.2 1.7-3.7.3-5.1-1.2A10.5 10.5 0 0 0 145 25h0c.7-1.8 3.7-2.3 3-5z" fill="#e8ddbb"/><path d="M82 42h-1c-5.4-.3-4.1-4.9-5-8a13.7 13.7 0 0 0-10.3 2.9c-3 2.5-7.2 2.1-10.3 4.7a1.7 1.7 0 0 1-2.4-2.2c1.5-2.4-.6-3.6-1-5.4 1.3-.5 3.5 2.5 4-1 2.8-3 6.3-3.3 10.1-3a28.2 28.2 0 0 0 10.3-1.4c4.4-1.4 8.4 1.8 11.5 4.3S93 35.8 96 34h0c2 1.3 3.4-.5 5-1.1s4.6-3.2 6.6-.5.5 5.6-1.1 8.1c4.5-2 9.1-2.8 12.9 1.9a5 5 0 0 0 3.5 5.3c1.6.6 3.8.9 3.1 3.6-4.3 1.6-8.1-.5-11.1-2.7s-6.5-2.4-9.6.4c6 2.4 8.1 6.4 7 12.8a3.3 3.3 0 0 1-1.9 2.7c-7.4 3.2-15.3 4.4-23.2 5.5-3.5.5-5.1-1.9-3.7-5.6a35.1 35.1 0 0 1 6.7-11.5l1.9-1.7c1.5-1.8 3.3-3.7 3.6-5.9.5-3.8-3.4-1.7-5.1-2.8s-3-3.8-5.5-1.3c-.8.9-2.1.1-3.1.8zm-38.9-4.1l1.8-.9c4.5-.3 6 3.8 7.3 6.4s-2.1 5.2-4.3 6.9a46.1 46.1 0 0 0-6.9 6.3c-3 3.6-6.5 4.2-10.6 2.7-1.3-.5-3-.1-3-2.4s2.3-1.5 3.6-1.9c.2 2.1 1.8 2 3.3 2 8-.2 13.5-9.2 10-16.4z" fill="#bdab7a"/><path d="M76 34c.6.6 1.7 1.4 1.6 1.6-1.7 3.7 1.4 4.8 3.4 6.4-2.4.4-4.2-.7-6-2l1-6z" fill="#b8a57a"/><path d="M138 23c0 2.3 5 1.5 3 5-6.6-2.7-13.3-1.3-20-.5-3 .4-6 .5-8.7-.9-4.5-2.3-9.7-1.9-14.3-3.6h0c2.1-2.5 5.2-2.6 7.8-1.9 10.6 3 21.4 2.8 32.2 1.9z" fill="#d5c692"/><path d="M119 43c-3.2-2.8-6.7-4-10.6-1.8-1.1.5-2.3 1.2-3.2.2s1.4-1.1 1.5-2.2-1-2.2 0-3.3 1.6-2.3.1-3.4-2.5 0-3.6.7-4.5 3-7.2.8c2-1.1 4.7-2 2-5-.6-4.8.4-5.9 4.8-4.3a72.1 72.1 0 0 0 16.5 3.3c5.5.6 8.6 4.5 11.7 8.4 1.2 1.3 1.2 3.1-1 4a4.8 4.8 0 0 0-1.7 1c-.5.7-.6 1.9-.1 2.3s.6-1.1 1.5-1 4.9-1.1 6.2.1c3.1 2.9 6.3 3.4 10.1 2.2l1 1a3 3 0 0 1 .6 3c-1.1 1.7-1.1 3.7-1.4 5.7s-.7 4.3-3.3 4.8-2.1-2.3-2.8-3.7-1.3-3.4-3.5-3.3a15.8 15.8 0 0 0 4.2 7.3 3 3 0 0 1 .4 3.5c-4.4 2-7 .7-9.1-4.8-1.2-2.9-1.5-6.1-4.5-8.1a15.4 15.4 0 0 0-4.8-2.4c-2.5-.7-4.1-2.2-3.8-5z" fill="#c6b581"/><path d="M146 45a3 3 0 0 0-2.3 1.6c-1.8 2.6-3.6 3-5-.2s-6.1-1.7-9.1-2.8c-.7-.2.6 1.7-.1 2.6-4.5-3.7-4.4-4.9.4-6.9 2-.9.6-2-.1-2.9-4.4-6.3-11-7.9-18-8.3a24.8 24.8 0 0 1-9.1-2.2c-3.5-1.8-5-.8-4.7 3.1-1.9-2-.9-4 0-6 4.1-.4 8.2-.7 11.9 1.5 6.8 4 14.2 1.4 21 .6A12.5 12.5 0 0 1 141 28c2 3.2 6.1 5.3 5.7 10.4-3.9-1.9-7.2-4.6-12.7-5.9 3 3.6 0 8.6 5.2 9.9 2.2.5.4-2.2 1.9-2.9 1.6 1.8 3.2 3.7 4.9 5.5z" fill="#d1c08b"/><path d="M85 41c-.3-.9-2-1.1-1.4-2.3s1.4-.5 2.2-.3c3.7 1 6.3 4.7 10.9 3.5 1.4-.4 1.8 2.6.8 3.6-2.4 2.5-3.4 5.8-6.2 8.2s-5.5 7.7-7.1 12.2c-.8 2.5.9 3.5 3.1 3 7.6-1.6 15.4-2.7 22.9-5.3.2-.1.6-.3.7-.6.8-3.2-1-6.2-.4-9.5.2-1.5-2.2-2.5-4.3-2.6s-3.4 1-3.7-1.2 1.8-2 3.1-2.8c3.8-2.5 6.6-2.6 10.3 1s6.3 3.3 10.1 3.1c1.9.4 3 1.8 4 3.3 2 4.1 1.7 8.8 3 13.1s1.2 7.4 6.6 6c1.3-.3 2.1 1 2.3 2.2s.4 4.9-1.7 5.9c-4.3 2-3.7 4.9-2.5 8.5a12.8 12.8 0 0 1-10.3 17.1c-2.7.5-4.5 1.3-4.7 4.3-2.3 1.4-5 .5-7.3 1.5s-2.9 2.4-2.5 4.6-.8 5.4-3.6 6.9-6.3 3.4-6.9 7.7c-.2 1.4-1.8 2.3-3.2 2.9-3.3 1.6-3.4 3-.8 5.8s6.5 5 9.1 8.2a12.5 12.5 0 0 0 2.2 1.6c1 .8 2 1.6 1.4 3.1s-4.4 3.6-7.7 3.3c-5.7-.6-8.1 1.2-9.5 6.8s-3.5 12.7-6.9 18.5a10.4 10.4 0 0 0-.6 8.6 25.9 25.9 0 0 0 1.4 4.2c1.5 3.3 2.3 6.6-1.2 8.9s-4.7-1.6-6.9-2.9l-.8-.9c-.4-2.6-3.8-4.1-2.9-7.2-5.9-9.7-6.1-20-4.3-30.9 1.4-8.6-.1-16.2-9.3-20.9a6.4 6.4 0 0 1-1.6-1.1c-2.7-2.8-3.2-14.8-.6-17.7s.9-7 1.2-10.3 0-6 1.4-9c.5-1.3 1.7-3.1-.8-4.1 3.1-5.5 4.6-11.9 9.1-16.6a7.2 7.2 0 0 0 2-5.3L76 73c4.1-2.5 3.1-7.4 5.3-10.8a62.2 62.2 0 0 1 3.5-5.4c1-1.4 1.6-2.6.3-4s-2.7-1.4-1.6-3.1 2.6-.4 3.8-.7 3.6 2 4.3-.2-2.1-2.6-3.5-3.6a13.9 13.9 0 0 0-2.1-1.1c.3-1.3-.9-2-1-3.1z" fill="#b8a57a"/><path d="M55 142c1.5 5.2-2.9 12.4-8 12.8-2.7.1-4.6-1.1-3.7-4.3L52 122a3.9 3.9 0 0 1 1 3.7 67.1 67.1 0 0 0-.8 17.9c.8-.5 1.2-2.1 2.8-1.6z" fill="#7b634a"/><path d="M55 142l-4.8 6.2c.6-9.4.4-17.8 1.8-26.2 1.5-2.1 1-4.8 2-7s1.3-2.3 2.5-2 .8 1.9 1 3c1 5.2-2.8 9.6-2.4 14.8.1 1.9-.1 4.1-.1 6.2h0c-1.8 1.7.8 3.3 0 5z" fill="#6a4f3b"/><path d="M55 137c-1.9-5.2 0-10.1 1.1-14.9a28.2 28.2 0 0 0 .9-6.4c0-4-1.9-.8-3-.7 1.1-4.1 1.3-8.8 6-11-.8 4.9-2.6 9.8-1.2 14.9a2.2 2.2 0 0 1 0 1.4c-4.1 4.9-1.8 11.3-3.8 16.7z" fill="#7b6044"/><path d="M85 41c1 .7 2.6.7 2.5 2.3s-1 .5-1.5.8L82 42c.7-1.3 1.9-.9 3-1z" fill="#dccc9e"/><path d="M216 131c2.5-.3 1.8-2.3 2-3.8s.5-3.1 2-2.7 4.4-.8 4 2.6h-1c-1.4-1.2-1.4-.6-1.2.8l1.7 14.2c.1.7.5 1.6.3 1.9-4.1 4.3-1.4 9.4-1.8 14.1-1 1.7-2.5 1.3-4 1 1.2-5.6-.6-11.3 1.5-17 1.5-4.1-1.2-7.5-4.6-10.1z" fill="#c8bbb7"/><path d="M219 159l3-1a48.4 48.4 0 0 0-1.9 18.9c.2 2.7 1.5 4.8 4.9 3.1.4 2.1-1.3 3.4-1.9 5.1l-2.2 3.8c-3.3-4.8-5.7-9.9-2.9-15.9-2.6-4.9-.5-9.4 1-14z" fill="#d0c2bb"/><path d="M201 203c-2.6 2-2.3 5.5-4 8-2.4-7.6-8.3-14.5-4.9-23.4.7-1.8 0-3.2-1.2-4.5s-2.6-2.3-2-4.3a3.2 3.2 0 0 1 3.4.4c1.1.8 2 1.2 2.7-.6 2.6-6.8 7.6-12.5 9.5-19.7.6-2.1 1.9-4.7 5.1-2.6.8 1.4.7 2.9.8 4.5a14.4 14.4 0 0 1-3.8 11.3c-2.4 2.8-3.8 6.3-2.2 10.1a2.1 2.1 0 0 1 .2 1.5c-2.5 4.5-1.3 9.5-1.6 14.3-1.9 1.2-.1 3.8-2 5z" fill="#a58579"/><path d="M203 198c-1-4.4-3.8-8.8.4-13.1.6-.6.3-1.6-.1-2.3-2.8-4.5-.4-8.4 2.2-11.3A12.4 12.4 0 0 0 209 161c1.4-2.4 1.2-5.4 2.6-7.8a6.6 6.6 0 0 1 4.6-2.5c3.7 2.7 1.9 6 .3 8.7s-1.5 5.6-2.2 8.4c-1.5 6.4-2.5 12.9-4.3 19.2h0c-2-.2-2.7.7-3.1 2.8a18.9 18.9 0 0 1-3.9 8.2z" fill="#b3978c"/><path d="M210 187c-.3-5.7-.1-11.4 3.3-16.4.7-1-.1-1.8-.2-2.7-.3-3.4-.4-6.5 2.5-9.2s2.1-5 .4-7.7a6.3 6.3 0 0 1-1.4-6.4c1.7-4.1.2-6.9-2.5-9.6.5-1.4 1-2.8 2.8-3.1 3.8.5 7.9 6.9 6.1 10.2s-1.7 6-1.2 9.4-.5 5-.8 7.5.3 6.7-.8 9.5-.2 3-.2 4.5c-2.9 2.1-2.5 5.8-4 8.7s-1.7 4.2-4 5.3z" fill="#c0aa9e"/><path d="M189 179a13.2 13.2 0 0 0 1.8 2.2c3.1 2.2 3.8 4.8 2.2 8.3s-1.1 6.8 1 10.3a23.7 23.7 0 0 1 3 11.2c-1.7 2.5-.5 5.5-1.8 9.6-.9-7-5.5-6.1-9.4-6.6l-1.8-1c-3-4.4-3-9.7-4.8-15.1-3.6 5.3-5.5 11.2-10.2 15.1l-1.1-1.9-.9-1.5a2.2 2.2 0 0 1-.6-1.3c3-5.6 5.5-11.5 10.7-15.7s3.8-7.4 4-11.7c1.3-2.6 2.2-5.6 5.7-6.2 1.5 1 2.7 2.2 2.2 4.3z" fill="#907064"/><path d="M184 136c0 11.2.1 22.3 4 33a2.5 2.5 0 0 1 .6 2.7c-3 3.2-4.9 1.1-6.3-1.5s-1.7-2.1-2.5 0l-2 5.4a47.2 47.2 0 0 1-3.4 13.9c-1.1 3.1-1.4 6.6-4.2 8.9s-3.9 2.3-5.9.8-1.2-3.9-.5-5.9a29 29 0 0 0 1-8.3c0-1-.1-2.1-1.6-1.9s-2.4.3-3-1.2.4-5.4-.3-8a47 47 0 0 1-.1-7.5c0-1.6-.3-3.7 1.6-4.3s2.6 1.1 3.6 2.2.8 1.5 2.1 1.8c.2-2.8-1.4-4.7-2.8-6.7-5.4-7.7-5.3-15.7-.9-23.8a22.1 22.1 0 0 0 1.2-4.2c1.4-5.6 5.4-7.5 10.5-5.1 1.2.5 2.3 1.4 3.7 1.1 3.4-.7 4.3 1.6 5 4.2s1 2.9.2 4.4z" fill="#f2f2f2"/><path d="M188 95c.8 2.5 2.3 4.6 3.3 7 1.6 3.9 3.2.3 4.7-1a12.5 12.5 0 0 0 1.2-.8c1.5-1.8 1.9-5.4 5-4.7s2.9 4.5 3 7c.2 5.2 1.8 10.3.8 15.5.8 2.8-2.9 5-1 7.9.6 1.3 1 2.5-.6 3.3-2.6-1.5-2.1-4.4-3.2-6.7s-1.7-3.4-1.7-5.4 3.9 0 2-2.8-1.1-5.1-4.5-5a5.8 5.8 0 0 0-4.1 1.1 10.4 10.4 0 0 0-2.3 2.4 40.1 40.1 0 0 0-4.9 7.9c-.9 1.8.2 4.5-2.4 5.5a3.6 3.6 0 0 1-1.5-1.5c-.8-2.2-1.3-4.5-2.9-6.6-.6 2-1.2 4.2-3.6 4.3s-3.3-1.9-3.6-3.6c-.9-5-4.9-2.7-7.6-3.5.9-5.9 3.5-8 8.5-6.8s9.9-1.4 11.3-7.2a9.5 9.5 0 0 1 1.2-3.7c.9-1 .9-2.9 2.9-2.6z" fill="#ccc3c5"/><path d="M188 172v-3c2.3-7.7 9.4-10.7 14.8-15.4 2.6-2.2 3.6-6.3 5.3-9.6a3.5 3.5 0 0 1 1 2.9c-2.7 9.1-6.4 17.7-14.3 23.7-2.4 1-3.9 4-7 3.4a1.7 1.7 0 0 1 .2-2z" fill="#dad7df"/><path d="M208.1 147v-3c2.8-2.4 1.9-6.3 4-9 4.3.5 5.8 3.9 4.6 7s-.5 6-.7 9c-4.3 1.9-3.8 7.3-7 10v-5a5.6 5.6 0 0 1-.4-6.8c.3-.6 1.8-1.9-.5-2.2z" fill="#a98a89"/><path d="M203.8 129c1.4-.7 1.1-1.9 1.2-3.1 3 4.8-.8 6.8-3.9 8.3-5.4 2.7-10.7 7.7-17.1 1.8-.4-1.3-.7-2.7-1.1-4s-.3-3-.4-4.4 1.9-.4 2.7.3c7.2 6.8 7.1 6.8 15.5 2.3 1-.6 1.8-1.6 3.1-1.2z" fill="#c1c1d1"/><path d="M188 95l-2 3c-3.1-3.1-2.8-7.4-2.6-11s0-6.7-1.6-9.8-1-4.2-1.6-6.2 1.4-5.6 1.8-8.5-1.2-5.5-2.7-7.9l-.3-.6-1-4 5 3c3 4.3 5 9.3 9.3 12.6.3.3.1 1.3 0 1.9-.7 3.8-1.5 7.6-.4 11.6a2.9 2.9 0 0 1-.6 2.7c-4.3 3.7-2.9 8.6-3.3 13.2z" fill="#dacbb6"/><path d="M177 48c-.8-.1-1.9.1-2.4-.4-3.2-3.3-6.1-3.9-9.2.3-1.3 1.8-2.8.7-3.2-1.1s-1.6-5.1-1.2-7.8c.6-.5.8-1.6 2-1 4.4 3.3 4.3-.7 5-3.2s-1.3-5.5 1.2-6.3 4.8 2.3 6.7 4.2 2.5 4.6 5.7 5a2.1 2.1 0 0 1 .9 2.6 2.3 2.3 0 0 1-1.7.4c-1.3-.2-2.4-2.4-3.9-.8s-1 3.7-.5 5.7a21 21 0 0 0 .6 2.4z" fill="#e8ddbb"/><path d="M163 38l-2 1c-1.1-4.2-5.4-5-8-4.9s-3.2-.1-3-2.3c.5-3.9-3.7-4.3-5-6.8a4 4 0 0 1 5 1.5c1.3 1.6 2.8 2.8 5 2.5h0a7.4 7.4 0 0 0 5 2.6c2.4.4 4 1.6 3 4.4z" fill="#e9dfb3"/><path d="M163 36c-.4-2.1-1-3.7-3.8-3.2s-3.8-1.4-4.2-3.8c3.4 1.3 5.6-.8 7.7-2.9s.5-3.1 2.4-2.2 2.2 2.4 1.7 4.2A26.2 26.2 0 0 1 163 36z" fill="#e8ddbb"/><path d="M61 181c-4.8-.5-6.5-3.3-5.7-10.1.2-1.9.7-3.4-.7-5a2 2 0 0 1 .3-3.1c7.5-4.9 4.8-11.4 3.1-17.8 3.5 3.1 4.5 6.7 3.5 11.4-1.8 8.1-4.5 16.3-.5 24.6zm15 12c.9 2.4 3 4.4 2.9 7.2l-2.6-2c-.6.6.1 2.2-1.2 2.9-.5-2.8-4.8-6 .9-8.1z" fill="#a08c6a"/><path d="M79.7 201.1c2.6-.3 3.7 4.7 6.8 1.8s.8-5.2-.3-8c-2-5.1-3-10 .7-15.4s4.6-10.8 5.9-16.5 4.9-8.7 10.7-7.2c3.4.9 5.2-1.3 7.5-2.8 4.2-3.1 6.8-3.1 11.2.3-.3 2-2.1 1.9-3.4 2.5s-4.4-.7-6.4.7a13.9 13.9 0 0 0-3.1 2.3c-1.3 1.2-2.5 2.7-4.5 2.8s-4.7.2-6.4 2.4c-3.5 5-5.6 10.1-3.2 16.2-2 1.9-2.7 4.2-3.1 7a103.1 103.1 0 0 0-.3 14.7 6.1 6.1 0 0 0 2.9 5.4 2.3 2.3 0 0 1 .6 2.8c-2.1 2.5-4.2.9-6.3-.1s-1.6.6-2.3 1.3.5 3.9-2.5 2.6c2.1-5.5-1.7-8.9-4.5-12.8z" fill="#a49373"/><path d="M91 213v-1c3.8-1.6 6.9.9 10.2 1.8s4.4 1.4 6.5-.4c6.6-2.8 9.8-1.3 11.4 5.2a4.4 4.4 0 0 1 0 3c-2.2 3.2-5.6 4.5-9.2 5.2-1 .2-2.2.7-2.9.1-5.3-3.9-12.4-5.4-16-11.6a1.8 1.8 0 0 1 0-2.3z" fill="#69343f"/><path d="M91 213a17.2 17.2 0 0 0 10.9 9c.5.1 1.2 0 1.4.3 5.4 7.3 10 2 14.8-.8l.9-.5c2.1.9 3.8 2.2 3.3 4.6s-1.6 2.5-3.3 1.4-4.6.3-6.2 1.9-6.1 2.2-9.5 1.5c-1-.2-1-.6-1-1.3.2-2.4-1.7-1.9-3.1-2.1s-5.8 2.3-7-1.2-3.7-8.3-1.2-12.8z" fill="#7e3b4a"/><path d="M119 227c6.5-2-.8-4 0-6a17.4 17.4 0 0 0-1-1.9c2.2-1.9 3.7-.1 5.3.9s3.7 1.4 3.7 3.9-.5 1.8.9 2.1 3.7.8 4.2 3.1c.1.8-.4 1.2-1.2 1.1-3.6-3.3-5.1.4-7.2 2.1s-3.1.9-4.7.7-5.7.6-6.2 4.9-3.2 3.1-5.8 2.1c2.5-5.7 6.9-9.7 12-13z" fill="#965060"/><path d="M108 214c-1.4 3.6-4.1 1.9-6.2 1.3-3.6-1-7-2.8-10.8-3.3a3.6 3.6 0 0 1-2-2c2-.4 4 1.1 6.1 0s2.8-.7 4.2.1 6.4 1.4 8.7 3.9z" fill="#87665e"/><path d="M163 182c2-1.3 3.9-2.2 3.2 1.6s.3 6.3-1 9.3-2.3 3.8-.4 5.6 3.4-.5 5.2-.5c1.5 2.1-.3 3.6-.9 5.3s-2.3 2.7-2.2 4.7v1.6c-3 2.8-4.8 6.8-9 8.4-1 .6-1.8 1.5-2.9 1.8-3.8 1.1-6.1-1.2-5.3-5s3.4-7.2 2.3-11.4a20.7 20.7 0 0 1 1-4.3c1-2.1 2.9-3.6 4.3-5.5l1.6-1.3c5.4-1.9 5.1-6 4.1-10.3z" fill="#e1e0ef"/><path d="M153 203c2.9 3.9-1.2 6.8-1.3 10.3 0 1.7-2.5 3.1-.7 4.9s3.6.8 5.5.1l1.5-.3c-.6 2.5-2.5 3.4-4.6 4.1a6.7 6.7 0 0 0-1.6 1.2c-5.3 3.3-7.6 2.2-8.6-3.9-.3-4.1 3.7-7.6 1.7-11.9 3.8.6 4.4-4.8 8.1-4.5z" fill="#cecee3"/><path d="M144 219c1.8 6 1.8 6 9.4 3.1-3.3 3.9-7.6 5.7-12.4 6.8-1.3-1.3-4.1.3-4.6-2.9s2-3.6 3.6-5 2.3-2.2 4-2z" fill="#c8bec9"/><path d="M119 233c1.2-1 2.3-1.9 4-1-.7 4.1.7 8.9-3.7 11.8L117 245c-1.5-1.3-2-2.3-.4-4.3s4-4.4 2.4-7.7z" fill="#b26887"/><path d="M144 219a5.6 5.6 0 0 1-4 2 9.3 9.3 0 0 1 .9-5c-2.3-4-.6-7 2.3-9.8s6.6-5.7 10.8-7.1c.3 1.4-.4 2.7-1 3.9s-3.1 2.4-3.6 3.9-2.2.4-3.9.5c4 4.6-1.3 7.6-1.5 11.6z" fill="#a8a8c1"/><path d="M127 223.9l-4-2.9c-1.4-.9.9-3.3 2-2.9 4.6 1.4 5.2-2.3 6.6-4.8s1.6-2.9 3.7-2.5c4.6 3.2 1.3 6.1-.4 9.1s-3.8 5.5-7.9 4z" fill="#5c4e5b"/><path d="M131.1 230.1l1-1c.9.1 1.9.4 1.7 1.3a41.3 41.3 0 0 1-4.8 11.7c-2.1.4-4.2.6-5.7 2.3s-2.4.7-3.3-.5c4.8-3.7 6.6-9.8 11.1-13.8z" fill="#b6a9b4"/><path d="M134.9 219.9c.1-3 3.6-5.9.1-8.9.7-2.4 3.7-2 4.9-3.9s2.6-1.4 4-.2a8.5 8.5 0 0 0-3 9.1c-2.3.9-3.2 3.8-6 3.9z" fill="#7b758b"/><path d="M131.1 230.1c-2.8 5.3-4.8 11.3-11.1 13.8h-.7c2.8-3.4 1-8.3 3.7-11.8 4.3-6.2 5-6.4 8.1-2z" fill="#452f4d"/><path d="M183 62c.7 3.3-2.2 5.8-2 9 .1 5.1-1.9 10.2 1.2 15.4 1.8 2.9-1.9 9.8-5.1 11.8-1.8-2-1.9-4.9-3.6-7 2.2-7.7-2.5-15.4 1-23.5-2.4 1.2-2.7 2.9-3.2 4.5a30.7 30.7 0 0 1-2.5 5.9c-1 1.7-2 4-4.5 3.1s-1.7-2.9-1.4-4.7a5.8 5.8 0 0 0-.4-3.8c-2.4 1.7-2.3 7.3-6.4 5.3s-2-4.8-.4-7.4c-.6 0-.7.6-1 .9s-1.8 3.3-3.8 2.3-1.8-3.2-.9-4.8c3.4-6.1 1.6-11.8-1.3-17.5 1.2-2.9 2.9-1.5 4.7-.7s2.8 3.7 5.6 3.2.9 2.5 3.4 2.7-1.2 3.8 1.4 5.5c2-2 1.4-4.9 2.1-7.4s2.7-3.8 4.3-2.4 5.8 1.4 8.8 1.6h0c1.6 2.5 2.3 5.5 4 8z" fill="#c7b390"/><path d="M159 54c-.5.9.4 3.4-2.2 1.2S153 49.8 149 51c-1.7.4-1.8-.8-2-2v-3c.8.2 1.6.8 2.3.6 6.6-1.8 8.9 1.7 9.7 7.4z" fill="#d1c08b"/><path d="M147 49l2 2c3.7 3.3 5.3 11.7 3.2 16.2-.6 1.2-1.1 2.4-1.6 3.6s-.6 2.1.7 2.5 1.2-.7 1.7-1.3 1.8-3.6 4.1-4.9c0 2.2.1 4-1.2 5.6s-.9 4 .8 4.7 2.7-1.3 3.2-2.9-.7-4.4 2.5-3.6 2.5 2.7 1.9 5.1-1.9 3.6.2 4.4 2.5-2 3.5-3.3c2.2-3 1.6-7.3 4.4-9.9.8-.8 1.5-2.3 2.8-1.6s.3 2 .1 3-.2 5-1.7 7.2c-.2.4-.4 1.3-.2 1.4 5.5 4.4.7 9.2.6 13.8-4.8.9-8.8 2.6-9.5 8.2a1.7 1.7 0 0 1-2.4 1.1 3.3 3.3 0 0 1-2.4-3.5 22.1 22.1 0 0 1 1.8-6.6c-.9 4.2-3.6 8.7-6.5 13.1-1.9 2.9-6.9 4.2-9.1 1.4s-4-2-6.3-.8c-3.9 3.5-8.9 4.9-13.2 7.5a3.7 3.7 0 0 1-2.9.1l-.5-.6c-1.3-2.2-4.8-4.6 1.8-4.6 10.2 0 15-9.4 10.6-20.1-1.3-2.9-1.1-3.7 1.9-4.3s3.9-3.1 3.7-6c-.2-1.2-1.1-2.2-2-1.6-5.7 3.3-5.4-1.3-6.2-4.5a14.2 14.2 0 0 0-.8-1.8 28.3 28.3 0 0 0-3-14 7.2 7.2 0 0 1-3-3c-.7-1.6-2.2-1.6-3.5-2.2s-5.6-2-3.5-5.8c.9 1.7 1.5 3.6 3.8 4.1 5.9 1.3 9.3 4.8 10.5 10.9.7 3.5 2.9 6.9 7.7 5 .2-.5 1.8.7 1-1s-1-2 0-3c3.3-.8 2.8-3.5 3-5.8s-.7-3.8 2-4.2z" fill="#bca885"/><path d="M142 59l.9 3.6c.2 1.2.5 1.4-.5 1.4s-.9-.6-1.4-1l-1-3c-1.9-2.9-3.1-6.2-5-9 3.1-1.5 4.4 1.2 5.7 2.9s.9 3.4 1.3 5.1z" fill="#ae9c6e"/><path d="M135 51c2.7 2.4 4.9 5.1 5 9-3.6-2-4.1-5.6-5-9z" fill="#bca885"/><path d="M115 112c2.4-2 5.4-.5 8-1.1v.2c-.6 1.7-3 3.2-.5 5.3s.7 2.3.3 3.7c-1.5 4.7.4 9.8-2.2 14.4-.9 1.6 1.3 2.4 2.4 3.4 3.4 3 3.4 3.4-.4 5.3s-2.5 2.3-.1 3.6 3.3 1.3 2.3 3.6a4.2 4.2 0 0 1-4.6 1.1c-3.7-1.3-7.4-1-11.2-.5a2 2 0 0 1-2-1c-.6-1.1.4-1.8.7-2.6 2-4.6 1.8-4.8-2.9-5.9-2.5-.6-3.8-2.4-4.2-4.9s1.8-3 3.7-3.5c8.4-2.5 10-5 10.5-13.9.2-2.4-1.1-4.8.2-7.2z" fill="#d3c89a"/><path d="M111 107c-5.9 4.6-11.7 8.5-20.1 5.4-4.1-1.6-3.1-5.3-5-7.7s2.6-2.1 4.3-2.9 3.3-4.1 2.6-6.7a96.4 96.4 0 0 0-3.9-12.2c-2.1-5-1.6-6.3 4.1-8.9.8 1.4.1 2.7-.2 4.1.9 5.2-.1 11 4.7 15 1.8 1.5 4 2.6 5 4.9-.1 4.3 1.9 6.8 6.3 7.2 1 .1 2.5-.1 2.2 1.8z" fill="#a49870"/><path d="M109 71.1c.5-2.9 2.3-2.3 4.1-1.4 3.8 1.9 6.6 2.7 7.6-3.2.5-2.9 4-3.9 6.7-4.2s2.1 2.6 2.7 4.4c2.1 5.8-.1 10.6-3.1 15.3a8.9 8.9 0 0 1-5.1.2 12.4 12.4 0 0 1-1.7-2.7 19.6 19.6 0 0 0-2.4-3.7 9.7 9.7 0 0 0-5.4-2c-1.6-.2-3.4-.4-3.4-2.7z" fill="#a28f6a"/><path d="M122 82a4.2 4.2 0 0 1 5 0v1c1.4 2.2 1.8 4.9 3 7.2s-.1 4.3-1.9 5.9-2 3.1-1.1 5.6c-2.5-3.4-4.1-2.1-6.2-.2s-6.2 4.2-9.8 5.5c-1-1.6-2.7-.4-4.1-.8-4.7-1.4-6-3.2-4.9-8.2 2.1-.8 3.7.2 5.4 1.2 3.6 2 7.1 2.5 9.8-1.7a5.1 5.1 0 0 1 2.7-2.1c5.9-1.3 5.9-1.3 3-6.8-1.1-2.1-3-4.1-.9-6.6z" fill="#9b8b65"/><path d="M115 112c3.1 6.3.3 12.3-1.4 18.2-.8 3-3.9 3.9-6.9 3.8s-4.5.6-5.7 3q-3.3.3-3-3c1.7 0 3.5-1.1 3.4-2.3-.3-5.6 4.3-6.7 7.7-8.6s3.4-3.3 2.4-6-.2-5.2 3.5-5.1z" fill="#c4b487"/><path d="M98 134a6.7 6.7 0 0 0 3 3c1.9 1.8 2.7 5.1 6.7 2.9 2-1.1 3.6 1.3 3 3s-.9 5.6-3.7 7.1c-2.7-3.2-6.3-5.3-9.2-8.3s-4.6-3.9.2-7.7z" fill="#c1b488"/><path d="M97 94c-4-3.2-6.6-11.5-5-16 1.5-2.2 2-5.8 6-4a6.5 6.5 0 0 1 4-1c2.1.2 4.3-.4 6.4.4s3.5.4 3.4 2.1-2.1 1.6-3.6 1.8-4.9-.2-7.3.5c-5.4 1.3-6.3 2.8-4.7 7.8.4 1.1.8 2.2 1.1 3.3s1.2 3.5-.3 5.1z" fill="#96855e"/><path d="M100 77c1.6-1.7 3.8-.7 5.6-.9a59.7 59.7 0 0 1 6.2-.1c-3.5-2-7.1-1.1-9.8-3a8.1 8.1 0 0 1 7-1.9c2.6 3.1 7.5.4 9.9 4a14.8 14.8 0 0 1-8.1 3.2c-3.1 0-6.3.4-9.5-.3a4.1 4.1 0 0 1-1.3-1z" fill="#715e46"/><path d="M109 151c2.2-2.8 5.1-2.2 8-1.5s5.2 1.6 8 .5h.6c1 .5 2.1.9 1.3 2.3a21.8 21.8 0 0 1-3.1 2.2 1.6 1.6 0 0 1-1.7-.6c-3.5-2.5-7.3-2.2-11.1-.9z" fill="#c1b488"/><path d="M128.1 96.1c1.1-2.7 2.2-5.2-.6-7.8-1-1-.4-3.5-.5-5.3 5.2 2.6 6.4 6.5 4 11.8-.7 1.5-1.5 1.9-2.9 1.3z" fill="#a28f6a"/><path d="M129 54c2.5 4.3 5.3 8.6 3 14z" fill="#bdab7a"/><path d="M98 74c-3.4-.8-3.8 3-6 4a6.2 6.2 0 0 1 1-4 3.3 3.3 0 0 1 5 0z" fill="#a28f6a"/><path d="M208.1 147c1.1-.4.8-2.3 2.7-2.3-.2 3.9-3.1 7.3-1.8 11.3-2.1 0-3.1 1.5-3.5 3.1-1.3 6.4-5.2 11.5-8.2 17a8.5 8.5 0 0 0-1.3 3.1c-.1 1.2.7 3.1-1.2 3.3s-2.2-1.3-2.8-2.5c-1.5-3.1.6-5.3 2.2-7.5s1.4-1.8-.2-2.5c7.3-6.1 10.8-14.5 14.1-23z" fill="#92716c"/><path d="M194 170l3.5-.7c-1.8 3.9-5.3 6.5-5.5 10.7l-3-1c-.5-1.3-2-2-1.9-3.6s-.2-1.4.9-1.4z" fill="#7d5b59"/><path d="M188 174l-.9 1.4c-2.9.9-3.5 3.8-5.3 5.7a9 9 0 0 0-.3 4.3 6 6 0 0 1-3 5.8c-2.1 1.2-3.9-.8-5.5-2.2 2.6-4.3 2.5-9.4 4-14 1.2.4 1.5 2.1 3 2.3a6.3 6.3 0 0 0-1-7.3c0-1.7 0-3.6 2.2-3.7s1.5 2 1.9 3.3 2.3 3.4 4.9 2.4z" fill="#dddae9"/><path d="M173 189c6.1 1.2 6.1 1.2 8.8-7.9.4 4.2.6 8.1-3.1 11.7-2.3 2.1-4.4 4.3-6.7 6.3s1.2 1.8 1.2 3.5c-5.5-2.3-2.7 5.2-6.3 5.4-1.8-2.2 1-3 1.4-4.5s1.9-3.4 1.7-5.5c1.7-2.8 2.2-5.9 3-9z" fill="#dad7df"/><path d="M183.1 126.9l-.2 5.1c-.9-2.2-1.5-4.7-5-3.1-1.1.5-2.1-.8-3.1-1.4s-4-2.6-5.9-.7-4.5 3.2-2.7 6.5c.6 1-.2 1.4-.7 2a18.8 18.8 0 0 0-1.2 21.6c1.6 2.6 3.7 5.1 4.5 8.2.3 1.2.8 2.9-.8 3.5s-2.4-.6-3.1-1.8-1.3-3.3-3.9-4.4v11.7a1.7 1.7 0 0 1-1.8-1.1c-1.1-7.8-6.3-14.6-5.7-22.9.2-2.4-1.5-3.4-3.9-3.3a15 15 0 0 0-6.2 1.6c-5.9 2.4-8.2 1.8-12.8-3-.7-2.9.4-5.1 3.2-5.7s2.9-2.3 1.4-4.2-2.6-6.2 1-8.8a4.4 4.4 0 0 0 1.8-4.4 11.4 11.4 0 0 1 1-6.3c2.3-3.2 5-1 7.5-.5s4.6.4 5.7 2.9 4.4 2.2 6.9 1.6c5.5-1.4 11-2.7 15.5 2.7a4.1 4.1 0 0 0 4.6 1c1.3-.4 2.6-.8 3.7.4l.2 2 .3.4z" fill="#e5e4dc"/><path d="M160 173l1 1.1c1.4 2.6-.4 5.2 0 7.9a1 1 0 0 1-1.3 0 3.9 3.9 0 0 1-.6-1.1 11.7 11.7 0 0 0-3.9-7.3c-.5-.5-1.3-.9-1.3-1.5-.2-7.4-4.9-11-11.2-13.1-2.4-1.1-4.7-2.8-7.5-1.2s-3.7.8-5-1.1a6.8 6.8 0 0 1-1-2.7c.3-3.3 3-2.3 4.9-2.8l1.5.3a66.5 66.5 0 0 1 17.6 6.9 18.1 18.1 0 0 1 4.9 9.5 11.7 11.7 0 0 0 1.9 5.1z" fill="#b1adaa"/><path d="M160.2 182.1h.8c.7 1.1 1.3.1 2 0 3.6 5.5 2 9.8-4.1 11a3.5 3.5 0 0 1-.7-3.1c1-2.6-.5-5.8 2-7.9z" fill="#d8d7dc"/><path d="M179 170c2-.1 3.1.6 3 2.8s.4 5.7-1.2 6.4c-3.1 1.2-3.1-2.2-3.8-4.2s.6-3.6 2-5z" fill="#dad7df"/><path d="M151 119c-.6-3.4-3-2.3-5-2-2.1-4-6.3-3.7-9.8-4.5-2-.5-3.9-.4-4.5-2.8s1.3-1.2 2.1-1.6c5.2-.7 10.5-1.6 15.2 2a2.8 2.8 0 0 0 4.3-.9c1.5-2.3 3.6-3.4 6.3-2.7s3-.9 3.8-2.4 2.8-3.4 4.9-2.6 5.4.4 7-2.6a2.1 2.1 0 0 1 1.7-.9c3.9-4.9 5.6-9.9 2.2-16-2.2-3.8 1.1-7.3 1.8-11 1.1 5.7 5.6 10.4 3.4 17.2-.7 2.3.2 6.6 1.6 9.8-.3 1.2-.8 2.5-1 3.8a9.5 9.5 0 0 1-13.4 7.5c-1.9-.9-3-.7-4.2.9L164 115c-1.7 3.6-4.1 5.7-8.2 3.7-1.8-.9-3.1 1.1-4.8.3z" fill="#ccbaa7"/><path d="M184.9 119.9c.9-3.1 3.2-5.4 5.1-7.9s4.1.5 6 1.2 3.4 1.8 3.9 4 2.1 2.8 2.2 4.7 1.4 6.7-3 8.3-6.9 3-10.6.5-4.8-6.4-3.6-10.8z" fill="#34304c"/><path d="M151 119c2-1 3.2-4.2 6.5-.8s4.2-2.1 6.5-3.2c4.8-1.9 8.1-.9 9.4 4.6.2 1 .8 2.8 2.7 1.6s1.3-3.6 0-6.1c5 1.7 5.5 5.6 6.8 9-4.3 2-7.6 1.1-11.2-2.4s-7.7-2-11.7-.7-6.5 1.1-9-2z" fill="#d6d1cf"/><path d="M184.9 119.9c.6 10.2 5.2 13.2 14.1 9.2a4.9 4.9 0 0 1 2.8 1.9c-2.2 2-5.1 2.8-7.8 3.7s-5.7-.4-7.6-3-2.2-3.2-3.3-4.8v-.8c1.8-1.7-.1-4.5 1.8-6.2z" fill="#62658b"/><path d="M199.9 117.2L196 114c-.2-2.1 1.4-.5 2-1s-1.3-1.7-2.5-1.9-2.7.1-3.5-1.2c4.4-3.4 7.9-2.7 9.6 2.2.7 1.9 3.1 3.2 2.2 5.9s-2.2-2.8-3.9-.8z" fill="#b0a3a3"/><path d="M192 109.9c4.3-.1 4.3-.1 8.3 4.3-1.5 1.1-2.8-1.6-4.3-.2l-6-2z" fill="#5f5460"/><path d="M201.8 131c-1.4 0-2.7 0-2.8-1.9 3.9-1.2 2.2-4.7 3.1-7.2a17.2 17.2 0 0 1 1.7 7.1z" fill="#50465b"/><path d="M183 62c-3.8-1.4-4.1-4.6-4-8 3.4 1.6 5.7 3.8 4 8z" fill="#dfd0a6"/><path d="M105.1 161.1l3.9-3.2c2.2.5 4.4-.2 6.5-.7a4.2 4.2 0 0 1 2.9.4c2.5 1.8 3.3 4.1 2.2 7-1 1.3-2.2.6-3.1.1-4.2-2.5-6.7-.6-8.9 3.1s-4.1 8.6-6.3 12.9 1.7 5 .6 7.6c-3.5 1.4-4.3-2-6.2-3.5s1-1.9-.9-2.3-.8-1.7-.4-2.7a4.9 4.9 0 0 1 .6-2.7c1.4-2.3.7-5.6 3.3-7.4 4.2-.1 5.8-2.6 5.9-6.4a6.1 6.1 0 0 1-.5-1.2.8.8 0 0 1 .4-1z" fill="#352c2e"/><path d="M96 180c-1.5 1.7 2.7 2.2.9 4s.2 1.3 1 1.5 1.8.8 1 2c-3.2 1.9-5.1 4.3-2.9 8.1.7 1.2 1.3 3 .4 3.8-2.8 2.4-1.4 5.8-2.4 8.6-2.4-.7-3.3-2.4-3.5-4.8a135.2 135.2 0 0 1 .8-20.1c.3-2.9 2.7-1.9 3.6-3.1s.8-.5 1.1 0z" fill="#857660"/><path d="M94 208c0-2.7-4-5.9 1.2-8.1 1.2-.5.5-2.8-.1-4-2.5-5.1-1.5-7.7 3.8-9 2.8 2.9 3.3 5.6 1.2 9.4a13.7 13.7 0 0 0-1.4 7.6c-.8 2.4 1.6 4.7.3 7.1a6 6 0 0 0-3.9-1l-1.1-2z" fill="#715f54"/><path d="M96 180h-1.1c-3.3-2.5-2.8-6.1-1.6-9s3.7-8.7 7.9-11.5c1.7-1 2.5 1.2 3.9 1.6a2.9 2.9 0 0 0-.2.9 2.4 2.4 0 0 1-1.1 1.6c-5.9 3.1-7.6 8.2-6.8 14.4-.9.4-.8 1.3-1 2z" fill="#877a5b"/><path d="M122.1 153.9l1.9.2c1.8-.2 3.9-.7 4.2 2.1-1.7 2.5-4.2 2-6.6 2a6.4 6.4 0 0 1-2.4-.5c-.9-.7-1.6-1.4-1.2-2.7a7.2 7.2 0 0 1 4.1-1.1z" fill="#807c62"/><path d="M118 155l1 1.9c.3 1-.1 1.3-1 1.1h-3c-1.8.5-2.6-.5-3.1-2.1 1.6-3 4-.6 6.1-.9z" fill="#5b563e"/><path d="M111.9 155.9l3.1 2.1c-2 .5-4.1 3.5-6-.1.6-1.2 1.4-2.1 2.9-2z" fill="#383133"/><path d="M99 211c0-2.4-3.6-4.3-1-7s5.8-7.4 4.1-12.6a1.9 1.9 0 0 1 .9-1.6c.6 0 1.2.1 1.3.5 1.8 7.8 8.6 11.7 13.1 17.3 1.9 2.3 4.4 2.5 6.8 1.8 4.5-1.3 9.2-1.4 13.8-2.2a2.6 2.6 0 0 1 2 .8c-.9 2.3-3.3 2.1-5 3s-3.4 5.1-4.8 7.8-2 3-3.4 1.2-2.6.6-3.8 1-2.8-2.5-5-1.9c-.9-5.8-3.2-7-10-5.1-3.2-.5-6.4-.8-9-3z" fill="#443037"/><path d="M140 208h-2c-.6-3.6-4.9-6-2.6-10.5s3-4.9 7.3-2.8c1.5.7 3.3 3.9 4.9 1.1s-1.6-3.3-3.5-4.1c-3.4-1.3-5.6-3.7-5.3-7.5s-2.7-5.2-3-8.2a3 3 0 0 1 2.7-.8 21.4 21.4 0 0 1 5.3 2l1 1a20.8 20.8 0 0 0 8.1 8.3c2.6 1.6 5 3.8 5.1 7.4s-2.6 3.5-4 5.2a23.6 23.6 0 0 1-10.1 7.8 6.6 6.6 0 0 0-3.9 1.1z" fill="#2a253f"/><path d="M158 193.9a32.9 32.9 0 0 0-9.5-9.1 9.3 9.3 0 0 1-4.5-6.8 2.8 2.8 0 0 1 3.1-1.3c3.5 2.6 6.3 5.9 9.5 8.7 1.4 1.2 2.6 2.6 2.5 4.6s-.1 2-.2 3z" fill="#403d5d"/><path d="M177 98a14.5 14.5 0 0 0-1.9 2.9c-1.1 2.4-2 4.1-5.2 2.2s-5.1-.9-6 2.6-1.5 3-4 2.1-4.4-.8-5.6 2.2-3 3.6-5.3 1.5c-4.5-4.1-9.9-2.4-15-2.5-.3-3.6 4.3-3.2 5-6 3-2.3 5.2-2 7.2.9s6.5.9 7.6-.6c3.9-5.4 5.6-12.1 9.7-18.7.6 4-1.7 6.2-1.9 8.9s-2.5 5 1.7 6.2c1-7.2 3.4-9.2 10.7-8.7 3.2 1.4 3.2 4.2 3 7z" fill="#c3af93"/><path d="M132 110c4 .9 8 2 12.1 2.5s1.1 3.1 1.9 4.5c-1.9-1.1-3.7-2.6-6-1s-2.8 0-4.3-.1-2.9-.6-4.9-.4c1.5 3.9 2.1 7.7-2.5 10a1.6 1.6 0 0 0-.7 2.2c3.2 4.1 1.5 8.8 1.4 13.2-.1 1.5 1.1 2.4 1.3 3.8s-1.1 2.6-1.7 3.8-1.7 2.7-3.6 1.5h0c-.6-1.4-1.9-1.7-3.1-2.2s-3.7-.9-3.5-3 2.1-2.8 4.1-2.8a8 8 0 0 0 1.8-.4c.5-1.6-.8-1.9-1.5-2.3-3.3-1.9-5.9-3.8-2.2-7.7.7-.7 1.1-2.9.7-3.2-3.1-2.3 0-5-.5-7.6-.8-4.3.4-4.5-2.4-7.6.8-2.3 3.5-.3 4.6-2.1h3c2.1.6 3.7-2.4 6-1.1z" fill="#e5dcb9"/><path d="M132 110c-2 .2-3.2 5-6 1.1 1.1-4.7 6.7-2.2 8.9-5.5.9-1.2 2.7-1.7 4.1-2.6-.1 3.3-4.3 3.2-5 6a2 2 0 0 0-2 1z" fill="#c4b487"/><path d="M97 94l-.9-5.1c.3-.1.8-.2 1 0 5.5 6.4 12.7 9 21 9.3-4.8 5.3-5.9 5.4-11.7 1.6A21.4 21.4 0 0 0 102 98z" fill="#7f7052"/><path d="M122 82c-.3 5.1 4.6 8.2 4.6 13.3-2.2-.8-4.2 2.3-6.6.6.5-4.3-.3-8.6-.2-12.9a6.1 6.1 0 0 1 .7-3.5l.6-.5c.9.8.7 2 .9 3z" fill="#564637"/><path d="M112 77.1l6.9-2 2.2 3.9-.4.2c-3.2 2.2-5.4 1.7-8.7-2.1z" fill="#3c2e2a"/><path d="M126 72.4a1.8 1.8 0 0 1 1.8 1.4c.2.8.1 1.8-1 1.8a1.8 1.8 0 0 1-1.6-1.7c-.1-.7 0-1.3.8-1.5z" fill="#897552"/><path d="M120.9 83c-.6 4.3 2.3 8.8-.9 12.9a21.1 21.1 0 0 0-1.9 2.3c-9.6 2.1-16.4-2.1-22-9.3-.5-1.2-1-2.4-1.4-3.7-1.8-4.6.2-7.6 5.3-8.2l1 .2c-3.3 8.9 1.8 17.1 11 17.4 2.7.1 5.6.2 4.8-4.5a7 7 0 0 1 4.1-7.1z" fill="#3c2e2a"/><path d="M120.9 83l-3 5.6c-.3.6-.8.9-.3 1.7a3.6 3.6 0 0 1-3 5.6c-8.1.5-14.5-3.6-16.5-12.1-.7-2.8.1-5.2 2.9-6.6h11c3 .4 5.2 4 8.7 2.1.1 1.1.1 2.4.2 3.7z" fill="#252126"/><path d="M125 150c1.6.2 2-1.4 3-2 3-.2 5.7 0 6 4-.8 1.6-3.8-.8-4 2.1-1.8.4-2.5-.6-3-2.1z" fill="#c9c6c3"/><path d="M127 152l3 2.1 1 1.9c.3.7-2 1.8-3-.1s-3.1-.2-4-1.8 1.5-2.1 3-2.1z" fill="#a4a08f"/><path d="M130 145c-4.3-3.1-2.3-7.4-1.7-11.1.3-1.7.4-2.8-.7-3.8-3.3-2.7-2-5.2.8-6.6s3-4 1.1-6.5c-.6-.8-1.8-1.5-.8-2.5a3.2 3.2 0 0 1 2.7-.9c2.7 1.3 6 .6 8.6 2.4-.4 2.2-1.3 4.3-.8 6.8a4.3 4.3 0 0 1-2.6 5.3c-3.1 1.4-3.1 3.6-.8 6.2s3.2 5.2-1.7 6.2c-2.6.5-2.5 2.7-3.1 4.5a.9.9 0 0 1-1 0z" fill="#ece7cf"/><path d="M130 145h1c4.5 4.1 8.9 4.1 14.3 1.1s10.1-.8 9.6 6.1 4.6 11.5 4.7 17.9a15.5 15.5 0 0 0 .4 2.9c-3.7-4-3.7-9.8-7-14-5.3-4.2-11.1-7.1-18-6.9h-1c-.9-3-4.1-2.5-6-4a3.1 3.1 0 0 1 2-3.1z" fill="#d6d3cc"/><path d="M143 158c3.5 2.1 8.2 2 10.2 6.8.7 1.7 1.8 3.3 1.3 4.9s.8 2.2 1.4 3.2c-1.7 2.2-3 4.7-5.8 5.8-.9-.1-2.4-.1-2.2-1.3s-.8-.9-1.5-1c-3.8-2.5-8.5-4.2-8.2-10s5.5-2.3 8.9-1.8c-.7-2.9-4.7-2.9-4.5-6.1z" fill="#888a90"/><path d="M139.1 166.1c-.4 5.7 5.1 6.7 7.9 9.9.2.3.3.5.2.7s-.2.3-.3.3l-2.9 1h0c-4.5-4.2-9.8-7.7-13-13.2-1.1-1.8-3.4-1.1-4.7-2.3s-5.3-1.8-5.4-5.4c2.4-.3 5 .4 7.1-1.2a2.7 2.7 0 0 0 3 .1c.7 2.2 2.5 1.2 3.9 1.2a5.2 5.2 0 0 1 2.1 1.8 18.9 18.9 0 0 1 2.1 7.1z" fill="#616261"/><path d="M150 178c2.4-1.2 2.6-5 5.9-5.1 2.6 2.1 4.5 4.5 4.1 8.1-3.2 4.4-5.9 3.1-10-3z" fill="#6b8aba"/><path d="M150 178c1.1 1.6 3.3 1.9 4.5 3.7s3.5-1.2 5.5-.7a4.3 4.3 0 0 1 .2 1.1c-.6 2.6 1 5.5-1.1 7.9-3.4-4.9-9-7.8-12.2-13a3.1 3.1 0 0 0 .1-1c2.6-1.8.9 3 3 2z" fill="#5b70a2"/><path d="M135 152.1c.4-2.8 3.2.9 3.8-1.5 5 2.4 11.4 2.3 14.2 8.4z" fill="#c9c6c3"/><path d="M136 159l-1.1-1.8c3-2.9 5.5-.4 8.1.8v.2c-2.1 2.5-4.5 1.9-7 .8z" fill="#87868a"/><path d="M193.8 129.6a10.6 10.6 0 0 1 3.4-6.5c2.3 4 2.1 4.3-3.4 6.5z" fill="#4b4764"/><path d="M136 176c2.8 2.5 4.4 5.4 4.1 9.5s2.9 4.8 5.9 5.5 4.6 1.8 3.5 4.7-1.9 3.8-4.4 1.9l-2.2-1.3a7.1 7.1 0 0 0-5.4-1.7c1.5 2.7-4.1 4.8-.6 7.9a4.5 4.5 0 0 1 1.1 5.5l-14.8 3c-6.7 1.2-8.4-5.5-12.3-8.5A19.9 19.9 0 0 1 103 190a.8.8 0 0 1-1.1-.5c-.1-.7.5-1.1 1-1.4-5.3-5.1-.3-9.6 1-14.2.5-2.2 2.1-4.1 3.2-6.1 4.2-7.1 6-7.5 12.9-2.8 5.3 3.8 11.7 5.9 16 11z" fill="#251d28"/><path d="M136 176c-5.4-3.6-12-5.4-16-11a8.2 8.2 0 0 0-2-7l1-1.1 1.9.2c1.2 2.7 5.7 1.3 6.1 4.9s1.7 6.4 5.9 8.2 5.8 2.3 7.2 5.4l-.2.4q-.3.3-.9 0z" fill="#383133"/><path d="M102.9 188.1c-.1.6-1.1 1.3.1 1.9-.3 3.5.1 6.9 3.5 10.3-4.3-.4-6.1 2.1-8.5 3.7-3-2.7-.1-6.7.6-7.5 3.1-3.5 1.3-6.4.3-9.6.3-1.6-4.1-.1-2-2.9 2.6.6 3 4.2 6 4.1z" fill="#584745"/><path d="M97 178c-3.6-7.2.6-12.9 7.9-16h.3c.6 4.2-2.9 5.7-5.2 7.9s-1.1 5.7-3 8.1z" fill="#615544"/><path d="M100 169.9c.3-3.5 4.7-4.4 5.2-7.9 4.6 3.4-.4 5.2-1.4 7.5s-2.2 3.6-3.8.4z" fill="#251d28"/><path d="M139 176c-1.1-2.8-3.6-3.6-6.1-4.6s-6.4-1.9-6-6.3c.1-2.3-3.1-.8-3.4-2.7s2.4-.1 3.5-.4 3.4-.6 4.5 1.4c2.7 5.1 7.6 8.3 11.5 12.4.6.5.7 1.4 1 2.2-1.8-.4-3.6-.6-5-2z" fill="#403d42"/><path d="M136 159l6.9-.8c1.2 2.9 4.8 3.3 6.5 6.3-1.9 1.5-4 2.4-5.9.4s-3.2-.2-4.4 1.2c-2.8-1.6-1.6-4.9-3.1-7.1z" fill="#6e6f6d"/><path d="M116.7 190.4c-5.5-.1-12.4-4.8-11.4-7.7s5-4.1 8.2-4.6 8.1 4.1 7.9 8-1.9 4.9-4.7 4.3z" fill="#12101b"/></svg>