<svg width="512" height="512" viewBox="0 0 512 512" fill="none" xmlns="http://www.w3.org/2000/svg">
<g clip-path="url(#clip0_264_83)">
<mask id="mask0_264_83" style="mask-type:luminance" maskUnits="userSpaceOnUse" x="0" y="0" width="512" height="512">
<path d="M512 0H0V512H512V0Z" fill="white"/>
</mask>
<g mask="url(#mask0_264_83)">
<path d="M256 512C397.385 512 512 397.385 512 256C512 114.615 397.385 0 256 0C114.615 0 0 114.615 0 256C0 397.385 114.615 512 256 512Z" fill="#0C0A31"/>
<path d="M362.458 129.467C363.118 129.368 363.771 129.274 364.431 129.174C365.118 129.8 365.832 130.404 366.492 131.063C371.439 136.027 376.42 140.958 381.239 146.038C381.699 146.52 381.539 148.293 381.012 148.897C376.314 154.287 371.594 159.667 366.636 164.819C361.372 170.287 355.766 175.418 350.464 180.853C346.087 185.34 342.037 190.143 337.666 194.631C331.71 200.736 325.511 206.598 319.616 212.758C318.813 213.6 318.575 215.8 319.068 216.936C322.242 224.204 325.395 231.384 327.317 239.196C329.688 248.83 330.154 258.271 327.993 267.883C327.588 269.673 326.857 271.384 326.309 273.141C325.184 276.736 323.993 280.315 322.985 283.938C321.993 287.517 318.458 290.886 321.932 294.941C322.142 295.185 321.688 295.994 321.522 296.62C320.353 295.955 319.417 295.418 318.475 294.875C318.292 295.085 318.109 295.301 317.926 295.512C318.342 296.143 318.669 296.869 319.195 297.396C321.245 299.44 323.417 301.362 325.428 303.434C333.383 311.617 341.206 319.933 349.256 328.022C357.118 335.922 365.228 343.567 373.151 351.407C375.494 353.728 377.411 356.498 379.805 358.758C382.597 361.396 382.868 362.238 380.104 365.013C374.924 370.227 369.644 375.335 364.408 380.487C363.96 380.421 363.511 380.354 363.062 380.282C361.727 379.013 360.353 377.789 359.062 376.476C351.544 368.825 344.087 361.113 336.53 353.501C329.921 346.847 323.217 340.293 316.541 333.706C310.968 328.21 305.345 322.77 299.793 317.246C298.309 315.772 296.913 315.601 295.034 316.526C291.527 318.254 288.037 320.199 284.314 321.274C276.32 323.584 268.264 325.894 260.076 327.301C249.732 329.08 240.032 325.351 230.469 322.011C226.707 320.698 223.334 318.288 219.683 316.592C218.586 316.083 216.768 315.717 215.943 316.271C213.544 317.889 211.372 319.894 209.311 321.95C205.406 325.833 201.71 329.922 197.804 333.8C192.048 339.506 186.137 345.052 180.381 350.753C171.056 359.988 161.827 369.313 152.491 378.537C151.838 379.18 150.674 379.34 149.716 379.634C146.924 380.481 146.663 377.623 145.411 376.432C141.151 372.371 137.245 367.939 133.034 363.817C131.201 362.016 131.882 360.847 133.317 359.418C138.159 354.587 142.957 349.711 147.788 344.869C154.314 338.332 160.852 331.806 167.389 325.279C173.544 319.135 179.738 313.03 185.854 306.847C189.051 303.617 192.231 300.348 195.145 296.869C195.871 296.005 196.12 293.938 195.594 292.958C191.156 284.697 187.466 276.321 185.749 266.908C184.32 259.052 184.342 251.34 185.433 243.678C186.779 234.232 190.973 225.606 195.25 217.135C196.442 214.775 196.22 213.141 194.248 211.379C191.572 208.991 189.09 206.382 186.547 203.85C174.885 192.249 163.173 180.692 151.594 169.008C145.145 162.498 138.879 155.811 132.663 149.08C132.109 148.476 132.12 146.636 132.63 145.894C134.12 143.722 135.882 141.711 137.743 139.833C140.419 137.135 143.45 134.775 145.998 131.972C148.602 129.102 149.815 128.681 152.641 131.268C156.225 134.553 159.666 138.005 163.106 141.451C172.652 151.013 182.142 160.625 191.694 170.177C199.106 177.589 206.658 184.875 213.982 192.371C215.832 194.265 217.289 194.182 219.367 193.035C225.777 189.501 232.381 186.653 239.55 184.648C252.242 181.096 264.63 181.274 276.951 185.34C283.012 187.34 288.829 190.154 294.613 192.902C297.046 194.055 298.752 194.365 300.519 191.972C301.677 190.398 303.223 189.102 304.63 187.717C309.55 182.858 314.519 178.049 319.406 173.157C324.142 168.415 328.741 163.54 333.5 158.825C341.156 151.24 348.935 143.772 356.58 136.171C358.685 134.077 360.508 131.695 362.458 129.44V129.467ZM320.486 256.448C319.777 249.728 319.688 244.576 318.613 239.639C316.425 229.6 311.588 220.853 304.552 213.285C298.159 206.409 291.306 200.149 282.342 196.908C277.101 195.013 271.71 192.991 266.237 192.426C259.694 191.745 252.924 191.999 246.392 192.875C239.511 193.8 233.189 196.725 226.835 199.822C219.173 203.556 212.89 208.925 207.816 215.08C200.691 223.722 195.45 233.711 194.635 245.545C193.749 258.398 194.298 270.836 200.087 282.686C204.447 291.612 210.203 299.451 218.364 305.019C223.705 308.659 229.843 311.157 235.732 313.944C238.752 315.373 241.948 317.102 245.162 317.324C256.176 318.083 267.256 318.603 277.899 314.515C279.998 313.706 282.392 313.429 284.253 312.271C290.752 308.232 297.395 304.448 302.708 298.648C308.973 291.811 313.998 284.216 316.791 275.517C318.901 268.93 319.489 261.85 320.486 256.443V256.448Z" fill="#1EFBD4"/>
<path d="M347.479 133.889C339.512 141.988 331.545 150.088 323.578 158.182C317.534 164.066 311.49 169.955 305.44 175.839C306.337 172.36 307.019 168.797 308.254 165.44C308.687 164.265 310.371 163.124 311.684 162.797C313.573 162.332 314.687 161.717 314.858 159.65C315.041 157.473 314.321 156.393 312.144 155.501C308.371 153.95 305.102 151.59 304.005 147.18C303.872 146.637 302.67 146.06 301.95 146.033C301.113 146.005 300.26 146.57 299.229 146.952C297.152 142.686 293.606 141.257 289.324 140.642C284.315 139.922 279.495 138.792 274.254 139.246C267.706 139.811 261.047 138.886 254.432 138.88C248.919 138.869 243.407 139.285 237.894 139.451C235.124 139.534 232.304 139.168 229.601 139.584C227.628 139.889 225.872 141.551 223.9 141.889C219.523 142.637 216.354 144.903 213.085 147.839C208.57 151.9 207.252 156.986 206.36 162.454C205.894 165.329 204.321 168.216 206.16 171.18C206.199 171.24 205.49 171.761 205.135 172.066C204.481 171.468 203.828 170.864 203.174 170.265C202.11 169.418 201.047 168.57 199.983 167.722C199.606 167.479 199.235 167.235 198.858 166.991C195.091 163.035 191.329 159.08 187.562 155.124C183.185 150.869 178.742 146.681 174.454 142.343C171.373 139.224 168.498 135.894 165.534 132.659C164.886 132.027 164.238 131.39 163.589 130.758L163.617 130.792C163.634 130.166 163.728 129.534 163.661 128.919C163.174 124.415 163.252 124.387 167.506 123.119C168.736 122.753 169.761 121.756 170.936 121.157C172.581 120.315 174.238 119.457 175.972 118.814C177.595 118.216 179.734 118.376 180.925 117.362C187.883 111.44 196.709 109.296 204.603 105.307C205.279 104.969 206.227 105.196 207.047 105.107C208.321 104.963 209.645 104.947 210.858 104.576C215.678 103.102 220.437 101.445 225.263 99.9994C227.922 99.2016 230.675 98.7418 233.368 98.0548C236.326 97.2958 238.919 94.4426 242.421 96.6975C242.98 97.0576 244.177 96.4149 245.085 96.2598C247.867 95.7834 250.659 94.8914 253.434 94.9468C258.482 95.0465 263.518 95.739 268.565 96.1435C274.216 96.5978 279.861 97.1075 285.518 97.4122C289.324 97.6172 293.146 97.5119 296.958 97.5341C303.506 97.5673 305.717 96.1213 308.277 103.196C309.069 105.39 311.806 107.047 313.95 108.526C315.59 109.656 318.349 109.595 319.434 110.986C321.047 113.047 322.393 114.88 325.146 115.318C325.706 115.407 326.415 116.216 326.581 116.825C327.224 119.163 328.897 119.324 330.93 119.468C334.121 119.7 337.301 120.221 340.443 120.825C341.163 120.963 342.005 121.839 342.254 122.565C342.398 122.975 341.457 123.761 340.997 124.371C340.299 125.296 339.601 126.221 338.903 127.146C340.221 127.396 341.944 128.299 342.781 127.778C345.412 126.132 346.227 127.767 346.858 129.634C347.313 130.975 347.296 132.476 347.495 133.905L347.479 133.889Z" fill="#F3F2FB"/>
<path d="M337.938 305.683C335.251 302.902 332.564 300.115 329.877 297.334C329.711 297.179 329.544 297.024 329.378 296.863C329.123 296.719 328.869 296.575 328.614 296.426C328.719 296.343 328.736 296.248 328.658 296.143L327.977 295.622L327.988 295.633C327.977 294.343 327.971 293.046 327.96 291.755C328.159 291.567 328.359 291.373 328.558 291.185C329.844 289.102 331.123 287.018 332.409 284.941C334.675 285.922 333.489 287.545 333.029 288.88C332.076 291.639 332.076 294.154 334.054 296.514C336.553 299.5 338.774 302.753 341.478 305.539C345.395 309.578 348.996 314.005 353.993 316.874C355.772 317.894 357.522 318.969 359.899 320.387C360.198 318.498 360.276 317.107 360.652 315.805C361.328 313.451 361.954 311.03 363.09 308.891C363.45 308.21 365.594 308.658 366.459 307.994C367.284 307.356 367.805 305.971 367.938 304.852C368.292 301.861 366.857 298.104 371.677 297.334C371.977 297.284 372.298 296.814 372.442 296.464C374.387 291.639 376.309 286.808 378.22 281.971C379.229 279.417 380.403 276.902 381.129 274.265C381.644 272.398 381.489 270.348 381.716 268.392C382.503 261.523 383.345 254.658 378.675 248.608C378.331 248.16 378.265 247.451 378.193 246.847C377.738 243.041 377.411 239.212 376.857 235.417C376.403 232.287 375.766 229.185 375.062 226.099C374.547 223.838 373.262 221.628 373.251 219.395C373.201 210.237 372.331 201.572 368.093 192.969C365.766 188.243 363.761 184.974 358.691 183.899C360.209 182.259 361.727 180.62 363.245 178.985C366.852 180.138 367.362 177.866 367.489 175.162C367.893 174.752 368.298 174.337 368.708 173.927C369.14 173.29 369.567 172.653 369.999 172.016C370.193 171.822 370.387 171.622 370.58 171.428C370.996 171.428 371.428 171.5 371.833 171.428C376.292 170.647 376.237 170.669 378.342 175.052C378.658 175.711 379.716 176.038 380.464 176.459C384.68 178.819 389.002 178.653 393.472 177.168C394.697 176.764 396.171 177.046 397.528 177.118C400.508 177.273 404.087 181.373 404.619 184.215C405.14 186.985 406.403 189.633 407.478 192.276C409.267 196.686 414.193 199.124 414.963 204.248C415.423 207.318 416.298 210.326 416.907 213.373C417.434 216.021 418.171 218.68 418.254 221.351C418.603 232.082 418.58 242.825 419.002 253.55C419.218 259.135 420.215 264.686 420.586 270.271C421.123 278.392 421.301 286.509 417.517 294.099C416.038 297.063 415.705 300.038 417.583 302.98C418.625 304.614 417.749 305.545 416.536 306.664C415.306 307.794 414.054 309.168 413.478 310.692C411.894 314.902 410.68 319.246 409.251 323.517C409.068 324.066 408.558 324.603 408.065 324.935C405.129 326.908 405.389 329.584 406.309 332.437C406.542 333.168 406.719 333.916 407.002 334.952C405.578 335.03 404.553 335.046 403.539 335.146C399.395 335.534 396.303 338.01 396.497 341.7C396.697 345.545 394.979 348.237 392.874 350.996C391.151 353.257 389.173 353.224 387.882 350.642C387.179 349.235 386.93 347.6 386.58 346.426C384.592 347.268 382.791 348.027 380.996 348.786L380.824 348.597C380.309 347.888 379.788 347.185 379.273 346.476C374.974 342.404 370.647 338.365 366.392 334.248C362.547 330.525 358.747 326.747 354.99 322.935C351.805 319.705 348.708 316.392 345.567 313.113C345.334 312.935 345.101 312.758 344.869 312.581C343.633 311.329 342.398 310.082 341.168 308.83C340.713 308.221 340.254 307.611 339.799 307.002L339.838 307.041C339.206 306.592 338.58 306.143 337.949 305.694L337.938 305.683Z" fill="#F3F2FB"/>
<path d="M135.533 163.889C142.087 170.354 148.624 176.836 155.201 183.274C156.22 184.271 157.428 185.074 158.552 185.966C161.195 188.825 163.865 191.667 166.475 194.553C168.735 197.052 170.929 199.606 173.156 202.138C170.824 201.728 168.491 201.329 166.164 200.914C164.99 200.703 163.827 200.454 162.658 200.227C162.951 198.925 163.245 197.623 163.605 196.044C163.012 195.412 162.231 194.199 161.117 193.534C160.264 193.024 159.001 193.207 157.915 193.08C157.965 193.927 158.015 194.775 158.059 195.623C158.098 196.31 158.253 197.013 158.142 197.678C157.444 201.877 151.538 206.121 147.333 205.396C145.206 205.03 143.705 205.756 142.536 207.506C139.993 211.318 138.336 215.368 138.569 220.077C138.68 222.348 137.644 223.828 135.472 224.997C134.253 225.65 133.234 227.606 133.056 229.085C132.558 233.207 132.475 237.384 132.364 241.54C132.303 243.828 132.552 246.116 132.58 248.409C132.63 252.875 132.724 257.346 132.58 261.806C132.491 264.592 131.677 267.379 131.766 270.149C131.965 276.143 132.569 282.127 132.94 288.116C133.206 292.376 134.696 293.939 138.713 295.08C140.109 295.479 142.176 297.152 142.17 298.232C142.131 304.725 146.164 309.224 149.361 314.121C150.652 316.099 152.525 317.102 155.189 317.03C157.965 316.952 160.635 317.634 162.996 315.285C163.782 314.498 165.55 314.692 166.868 314.437C163.25 318.149 159.677 321.905 156.009 325.562C148.381 333.174 140.707 340.736 133.051 348.315C132.048 347.855 131.062 347.351 130.043 346.936C128.486 346.304 126.912 345.263 125.333 345.235C122.32 345.185 120.813 344.243 121.001 341.036C121.112 339.207 120.713 337.534 118.502 336.886C117.932 336.72 117.511 335.761 117.189 335.085C116.652 333.961 116.541 332.493 115.738 331.667C112.724 328.581 112.198 324.614 111.688 320.714C111.156 316.653 109.134 314.465 105.128 314.404C99.8874 314.326 96.4636 309.506 97.9872 304.542C98.3251 303.445 97.9982 302.149 97.9872 300.941C97.9872 299.867 97.9816 298.797 98.0093 297.722C98.0426 296.398 98.2753 295.063 98.1312 293.761C97.688 289.745 96.6243 285.739 96.6631 281.739C96.796 268.753 95.8154 255.756 98.2808 242.803C99.555 236.088 99.3556 229.085 99.6991 222.21C100.004 216.022 100.203 209.822 100.308 203.628C100.358 200.675 101.644 198.991 104.513 198.348C105.245 198.182 106.214 197.745 106.497 197.157C107.821 194.393 109.151 191.6 110.092 188.692C111.206 185.246 112.043 181.7 112.752 178.143C113.123 176.282 114.087 175.938 115.754 175.739C117.333 175.551 119.25 175.168 120.303 174.138C123.35 171.152 123.799 163.811 121.533 160.271C121.25 159.833 121.012 159.368 120.746 158.925C119.993 157.667 119.411 156.16 121.184 155.6C121.882 155.384 123.555 156.548 123.948 157.445C124.602 158.947 124.586 160.736 124.912 162.781C128.369 163.135 131.948 163.495 135.527 163.861L135.533 163.889Z" fill="#F3F2FB"/>
<path d="M159.317 383.229C160.187 382.237 161.062 381.246 161.932 380.254C162.098 380.043 162.265 379.827 162.425 379.617C166.01 376.138 169.633 372.686 173.179 369.168C176.143 366.226 179.018 363.201 181.932 360.215C182.763 359.462 183.616 358.736 184.425 357.955C187.761 354.725 191.079 351.478 194.403 348.237C193.982 351.09 193.877 354.038 193.051 356.764C192.082 359.966 192.614 362.885 195.683 364.149C198.713 365.395 199.927 367.789 201.4 370.376C202.497 372.298 204.276 374.287 206.231 375.174C211.002 377.334 215.932 379.65 221.029 380.459C227.927 381.556 235.046 381.323 242.065 381.633C244.259 381.728 246.636 380.669 248.464 382.93C248.774 383.312 249.966 383.401 250.47 383.118C252.209 382.16 253.822 380.974 255.977 379.556C253.849 379.09 252.398 378.775 250.952 378.459C251.002 378.143 251.046 377.833 251.096 377.517H262.292C262.309 377.656 262.331 377.794 262.348 377.933C260.547 378.426 258.741 378.919 256.941 379.412C256.946 379.816 256.957 380.221 256.963 380.631C259.195 380.797 261.439 381.179 263.655 381.068C266.292 380.935 268.741 380.609 270.907 382.786C271.727 383.611 273.34 383.888 274.625 383.971C277.223 384.149 279.849 383.916 282.453 384.054C284.93 384.187 286.243 383.445 285.999 380.725C285.75 377.982 287.262 377.03 289.838 377.107C292.763 377.196 295.7 377.279 298.608 377.068C300.204 376.952 301.799 376.331 303.312 375.717C305.478 374.841 307.478 373.329 309.711 372.863C314.243 371.922 316.896 369.401 318.004 365.013C318.459 363.207 318.575 361.118 319.589 359.694C321.882 356.487 322.148 353.218 321.079 349.633C325.063 353.672 329.007 357.75 333.051 361.728C334.569 363.218 336.32 364.476 337.96 365.838C341.135 369.146 344.315 372.448 347.489 375.755C347.522 376.481 347.473 377.229 347.611 377.933C348.63 383.091 347.777 384.315 343.135 386.315C341.461 387.035 339.816 388.758 339.035 390.431C337.196 394.365 332.691 397.523 328.381 397.922C325.894 398.149 322.597 398.603 321.24 400.254C318.038 404.149 314.669 406.852 309.456 406.686C309.162 406.675 308.819 406.791 308.564 406.952C305.018 409.212 301.068 409.146 297.068 409.19C295.666 409.207 294.082 409.883 292.919 410.719C291.057 412.066 289.389 412.559 287.123 411.678C285.982 411.235 283.805 411.212 283.251 411.916C281.65 413.955 279.882 413.456 277.899 413.246C275.899 413.035 273.871 413.057 271.86 413.074C265.617 413.124 259.367 413.235 253.123 413.301C250.813 413.323 248.497 413.257 246.187 413.279C245.151 413.29 244.104 413.55 243.079 413.473C237.91 413.102 232.747 412.581 227.572 412.271C224.182 412.066 220.78 412.127 217.384 412.055C215.218 412.01 212.996 411.606 210.896 411.955C208.514 412.354 207.522 411.75 206.824 409.434C206.481 408.293 204.88 406.719 203.866 406.736C197.605 406.819 194.198 403.035 191.484 398.21C189.567 394.802 188.741 394.603 185.378 396.426C184.248 397.035 182.647 397.318 181.4 397.068C178.364 396.453 175.417 395.384 172.409 394.609C171.223 394.304 169.722 393.8 168.78 394.248C165.722 395.7 163.378 394.409 160.941 392.908C160.348 392.542 159.611 392.237 158.929 392.21C156.348 392.121 155.002 390.625 154.248 388.365C155.711 386.913 157.168 385.456 158.63 384.005C158.852 383.744 159.079 383.484 159.301 383.223L159.317 383.229Z" fill="#F3F2FB"/>
<path d="M337.972 365.839C336.326 364.476 334.581 363.218 333.063 361.728C329.019 357.75 325.074 353.673 321.091 349.634C313.218 341.528 305.346 333.412 297.44 325.335C297.135 325.024 296.47 325.074 295.972 324.958C296.088 322.376 294.792 322.21 292.836 323.096C291.711 323.606 290.542 324.033 289.423 324.559C286.692 325.844 283.905 327.046 281.301 328.559C280.659 328.93 280.631 330.36 280.321 331.301C273.545 332.587 266.819 334.398 259.983 334.974C254.731 335.418 249.318 334.492 244.022 333.844C235.379 332.786 227.207 330.177 219.65 325.728C218.925 325.301 217.279 325.357 216.725 325.889C209.85 332.454 203.102 339.146 196.321 345.806C195.872 346.415 195.429 347.019 194.98 347.628C194.792 347.833 194.603 348.038 194.415 348.243C191.091 351.484 187.772 354.731 184.437 357.961C183.634 358.742 182.775 359.468 181.944 360.221C180.991 359.999 179.695 359.274 179.135 359.65C176.055 361.695 172.913 363.761 170.26 366.304C168.116 368.36 166.969 371.468 164.781 373.451C161.069 376.825 157.224 379.634 151.983 381.296C143.623 383.944 140.376 377.839 136.071 373.927C133.445 371.54 131.938 367.501 130.88 363.922C129.8 360.282 130.764 356.576 133.578 353.584C139.085 347.733 144.437 341.728 150.005 335.933C158.913 326.67 167.916 317.495 176.952 308.354C179.656 305.617 182.62 303.135 185.418 300.492C187.03 298.974 187.994 297.213 186.886 294.941C186.736 294.099 186.587 293.263 186.437 292.42C188.426 292.592 189.174 292.016 188.166 289.961C187.54 288.686 187.418 287.163 186.792 285.889C185.401 283.041 183.833 280.282 181.988 276.83C181.639 278.736 181.468 279.661 181.301 280.581C181.124 280.492 180.825 280.437 180.797 280.315C178.504 270.337 176.321 260.476 177.274 249.983C178.337 238.315 180.537 227.207 186.382 216.947C186.764 216.276 186.415 214.664 185.822 214.049C182.72 210.83 179.434 207.794 176.21 204.697C175.606 204.26 174.997 203.822 174.393 203.384C173.983 202.974 173.578 202.564 173.168 202.154C170.947 199.623 168.747 197.069 166.487 194.57C163.872 191.678 161.207 188.841 158.564 185.983C161.329 184.775 159.606 183.085 158.692 182.044C156.299 179.318 153.6 176.858 151.052 174.271C149.634 172.83 148.282 171.334 146.886 169.866C146.177 169.124 145.578 168.143 144.714 167.711C142.481 166.603 141.456 165.052 141.606 162.492C141.656 161.661 140.947 160.437 140.215 159.966C138.005 158.553 135.606 157.44 133.301 156.171C132.858 155.927 132.371 155.573 132.149 155.146C130.731 152.431 129.118 149.778 128.066 146.924C126.581 142.902 129.839 140.598 132.127 138.304C136.166 134.26 140.509 130.515 144.841 126.775C145.595 126.127 147.124 125.567 147.905 125.894C153.202 128.121 158.775 129.683 162.171 135.262C164.01 138.282 167.567 140.243 170.276 142.758C174.891 147.046 179.423 151.423 184.06 155.689C185.279 156.808 186.969 158.852 187.573 155.141C191.34 159.096 195.102 163.052 198.869 167.008C198.282 167.207 197.689 167.401 196.67 167.744C201.102 172.775 205.146 177.49 209.346 182.066C211.152 184.038 213.323 185.534 216.199 183.877C217.8 183.65 219.462 183.623 220.991 183.163C226.792 181.407 232.57 179.551 238.326 177.65C246.72 174.88 255.373 175.074 264.038 175.268C265.301 175.412 266.559 175.556 267.822 175.695C268.443 175.761 269.063 175.822 269.684 175.888C272.681 176.498 275.689 177.057 278.675 177.733C279.894 178.01 281.058 178.542 282.249 178.952C282.437 179.961 282.276 181.456 282.88 181.889C284.487 183.046 286.387 183.839 288.243 184.603C290.337 185.467 292.476 186.249 294.653 186.847C295.479 187.074 297.257 187.351 295.95 185.357C297.678 183.667 299.407 181.977 301.135 180.282L301.102 180.31C301.301 180.077 301.501 179.844 301.7 179.611C302.952 178.354 304.204 177.102 305.462 175.844C311.506 169.961 317.551 164.077 323.601 158.188C324.304 160.382 325.573 159.617 326.659 158.659C327.977 157.49 329.063 156.055 330.387 154.897C337.163 149.002 344.011 143.201 350.764 137.285C352.382 135.866 353.495 133.783 355.257 132.642C357.44 131.235 360.049 130.498 362.476 129.473C360.526 131.722 358.703 134.11 356.598 136.204C348.952 143.805 341.174 151.268 333.517 158.858C328.758 163.573 324.16 168.448 319.423 173.19C314.537 178.082 309.567 182.891 304.648 187.75C303.24 189.135 301.7 190.431 300.537 192.005C298.77 194.398 297.063 194.088 294.631 192.936C288.847 190.188 283.03 187.373 276.969 185.373C264.653 181.307 252.26 181.129 239.567 184.681C232.398 186.686 225.8 189.534 219.384 193.069C217.307 194.21 215.85 194.298 213.999 192.404C206.675 184.902 199.124 177.623 191.711 170.21C182.16 160.659 172.67 151.046 163.124 141.484C159.684 138.038 156.249 134.587 152.659 131.301C149.833 128.714 148.62 129.135 146.016 132.005C143.467 134.808 140.437 137.168 137.761 139.866C135.9 141.739 134.138 143.756 132.648 145.927C132.138 146.67 132.127 148.509 132.681 149.113C138.891 155.844 145.163 162.537 151.612 169.041C163.19 180.725 174.902 192.276 186.564 203.883C189.107 206.415 191.589 209.024 194.265 211.412C196.238 213.168 196.459 214.808 195.268 217.168C190.991 225.639 186.797 234.26 185.451 243.711C184.359 251.373 184.337 259.091 185.767 266.941C187.479 276.354 191.174 284.731 195.612 292.991C196.138 293.972 195.883 296.038 195.163 296.902C192.249 300.382 189.069 303.645 185.872 306.88C179.756 313.063 173.562 319.168 167.407 325.312C160.869 331.839 154.332 338.365 147.805 344.902C142.974 349.745 138.177 354.62 133.335 359.451C131.9 360.88 131.218 362.055 133.052 363.85C137.257 367.972 141.163 372.404 145.429 376.465C146.681 377.656 146.941 380.515 149.733 379.667C150.692 379.379 151.855 379.213 152.509 378.57C161.844 369.346 171.08 360.022 180.398 350.786C186.154 345.085 192.071 339.54 197.822 333.833C201.733 329.955 205.429 325.866 209.329 321.983C211.39 319.933 213.562 317.922 215.961 316.304C216.786 315.75 218.603 316.11 219.7 316.625C223.351 318.321 226.72 320.731 230.487 322.044C240.049 325.384 249.745 329.113 260.094 327.335C268.282 325.927 276.332 323.617 284.332 321.307C288.055 320.232 291.545 318.288 295.052 316.559C296.93 315.634 298.326 315.8 299.811 317.279C305.357 322.803 310.986 328.243 316.559 333.739C323.24 340.321 329.944 346.88 336.548 353.534C344.105 361.146 351.562 368.858 359.08 376.509C360.371 377.822 361.745 379.052 363.08 380.315C359.202 380.299 356.387 378.498 353.673 375.739C350.121 372.127 346.066 368.974 342.016 365.911C341.152 365.257 339.357 365.833 337.994 365.844L337.972 365.839Z" fill="#1C3F77"/>
<path d="M176.204 204.681C179.428 207.783 182.713 210.819 185.816 214.033C186.409 214.648 186.758 216.26 186.375 216.93C180.53 227.191 178.331 238.299 177.267 249.966C176.309 260.459 178.497 270.326 180.791 280.299C180.819 280.421 181.123 280.481 181.295 280.565C182.364 283.268 183.433 285.966 184.497 288.67C184.669 288.908 184.841 289.152 185.012 289.39C185.483 290.398 185.96 291.407 186.431 292.409C186.58 293.252 186.73 294.088 186.879 294.93C181.76 299.983 176.647 305.047 171.517 310.088C170.641 310.952 169.688 311.739 168.774 312.559C168.553 312.775 168.325 312.991 168.104 313.207C167.694 313.617 167.284 314.022 166.874 314.432C165.555 314.686 163.788 314.493 163.001 315.279C160.641 317.628 157.971 316.947 155.195 317.024C152.53 317.096 150.658 316.094 149.367 314.116C146.17 309.218 142.137 304.725 142.176 298.227C142.181 297.146 140.115 295.468 138.719 295.074C134.702 293.927 133.206 292.371 132.946 288.11C132.575 282.116 131.971 276.138 131.771 270.144C131.683 267.373 132.497 264.587 132.586 261.8C132.724 257.34 132.63 252.869 132.586 248.404C132.564 246.116 132.309 243.822 132.37 241.534C132.486 237.373 132.564 233.196 133.062 229.08C133.24 227.601 134.259 225.645 135.478 224.991C137.65 223.828 138.686 222.343 138.575 220.071C138.342 215.368 139.999 211.312 142.541 207.501C143.71 205.75 145.212 205.024 147.339 205.39C151.544 206.116 157.456 201.872 158.148 197.673C158.259 197.008 158.098 196.304 158.065 195.617C158.021 194.77 157.971 193.922 157.921 193.074C159.001 193.202 160.27 193.019 161.123 193.528C162.231 194.193 163.018 195.407 163.611 196.038C163.256 197.617 162.957 198.919 162.663 200.221C163.832 200.454 165.001 200.697 166.17 200.908C168.497 201.329 170.83 201.728 173.162 202.132C173.572 202.542 173.976 202.952 174.386 203.362C174.99 203.8 175.6 204.238 176.204 204.675V204.681Z" fill="#FEFEFE"/>
<path d="M347.479 133.889C347.285 132.46 347.296 130.958 346.841 129.618C346.21 127.751 345.401 126.122 342.764 127.762C341.927 128.282 340.204 127.385 338.886 127.13C339.584 126.205 340.282 125.285 340.98 124.354C341.44 123.739 342.382 122.953 342.238 122.548C341.988 121.828 341.146 120.947 340.426 120.809C337.279 120.205 334.105 119.684 330.913 119.451C328.88 119.302 327.213 119.147 326.564 116.809C326.398 116.199 325.689 115.39 325.129 115.302C322.376 114.87 321.03 113.036 319.418 110.969C318.332 109.579 315.573 109.64 313.933 108.51C311.789 107.036 309.052 105.374 308.26 103.18C305.7 96.0995 303.49 97.5511 296.941 97.5178C293.124 97.4957 289.307 97.6009 285.501 97.3959C279.844 97.0912 274.199 96.5815 268.548 96.1272C263.506 95.7228 258.47 95.0303 253.418 94.9306C250.647 94.8752 247.85 95.7671 245.068 96.2436C244.16 96.3987 242.963 97.0414 242.404 96.6813C238.902 94.4264 236.309 97.2796 233.351 98.0386C230.658 98.7256 227.905 99.191 225.246 99.9832C220.42 101.429 215.661 103.086 210.841 104.559C209.628 104.931 208.304 104.947 207.03 105.091C206.215 105.18 205.262 104.953 204.586 105.291C196.686 109.28 187.861 111.424 180.908 117.346C179.717 118.36 177.573 118.199 175.955 118.798C174.226 119.44 172.57 120.293 170.919 121.141C169.744 121.739 168.719 122.737 167.489 123.102C163.235 124.377 163.157 124.399 163.645 128.903C163.711 129.518 163.622 130.155 163.6 130.775C160.398 127.834 157.102 124.98 154.049 121.883C153.14 120.964 152.448 119.357 152.465 118.077C152.592 106.703 150.409 108.665 160.398 102.399C174.852 93.3239 190.104 85.8336 206.808 81.7671C215.783 79.5788 224.719 76.8918 233.839 75.7339C243.6 74.4984 253.55 74.648 263.429 74.5095C268.01 74.443 272.614 74.9804 277.179 75.5067C280.919 75.9333 284.636 76.648 288.332 77.407C294.005 78.576 299.739 79.6009 305.296 81.1965C320.276 85.5067 334.736 91.1411 348.154 99.191C351.744 101.346 355.274 103.612 358.72 105.989C359.711 106.67 360.897 107.872 360.98 108.919C361.274 112.548 361.163 116.216 361.102 119.861C361.091 120.382 360.564 120.969 360.138 121.39C355.927 125.568 351.695 129.723 347.462 133.878L347.479 133.889Z" fill="#E6E7F5"/>
<path d="M154.265 388.37C155.019 390.631 156.365 392.126 158.946 392.215C159.628 392.237 160.365 392.542 160.958 392.913C163.395 394.42 165.739 395.711 168.797 394.254C169.744 393.805 171.24 394.309 172.426 394.614C175.434 395.39 178.381 396.459 181.417 397.074C182.664 397.329 184.265 397.046 185.395 396.431C188.758 394.608 189.584 394.813 191.501 398.215C194.221 403.041 197.622 406.819 203.883 406.741C204.897 406.73 206.498 408.304 206.841 409.439C207.539 411.755 208.531 412.365 210.913 411.96C213.007 411.606 215.229 412.01 217.401 412.06C220.797 412.132 224.204 412.071 227.589 412.276C232.764 412.592 237.922 413.107 243.096 413.478C244.121 413.55 245.168 413.29 246.204 413.284C248.514 413.262 250.83 413.329 253.14 413.306C259.384 413.246 265.634 413.135 271.877 413.079C273.894 413.063 275.922 413.041 277.916 413.251C279.899 413.462 281.667 413.955 283.268 411.921C283.816 411.223 285.994 411.24 287.14 411.683C289.406 412.564 291.074 412.071 292.935 410.725C294.099 409.883 295.683 409.207 297.085 409.196C301.085 409.151 305.035 409.218 308.581 406.957C308.836 406.797 309.174 406.68 309.473 406.692C314.686 406.858 318.055 404.16 321.257 400.259C322.609 398.608 325.911 398.154 328.398 397.927C332.708 397.528 337.213 394.37 339.052 390.437C339.833 388.764 341.478 387.041 343.152 386.32C347.794 384.32 348.647 383.101 347.628 377.938C347.49 377.229 347.539 376.487 347.506 375.761C351.816 380.16 356.149 384.536 360.404 388.991C360.908 389.517 361.434 390.741 361.174 391.157C359.645 393.606 361.246 395.927 361.345 398.259C361.456 400.919 360.409 402.586 358.398 403.988C344.254 413.816 328.78 421.002 312.581 426.614C302.387 430.149 291.839 432.586 281.091 433.506C269.451 434.503 257.75 434.813 246.071 435.39C245.512 435.417 244.908 435.157 244.37 434.919C242.642 434.16 241.157 433.622 239.068 434.586C237.634 435.251 235.456 434.531 233.667 434.154C226.088 432.581 218.487 431.068 210.969 429.207C205.14 427.761 199.34 426.093 193.683 424.071C180.066 419.212 167.55 412.176 155.561 404.149C153.351 402.669 152.016 400.891 152.365 397.993C152.625 395.833 152.215 393.589 152.498 391.434C152.636 390.354 153.656 389.384 154.276 388.365L154.265 388.37Z" fill="#E6E7F5"/>
<path d="M135.534 163.888C131.955 163.523 128.376 163.157 124.919 162.808C124.592 160.764 124.609 158.974 123.955 157.473C123.562 156.575 121.894 155.412 121.19 155.628C119.412 156.182 119.999 157.695 120.753 158.952C121.019 159.401 121.263 159.861 121.54 160.298C123.805 163.839 123.357 171.174 120.31 174.166C119.263 175.196 117.34 175.578 115.761 175.767C114.094 175.966 113.13 176.304 112.758 178.171C112.049 181.722 111.213 185.274 110.099 188.72C109.163 191.628 107.833 194.42 106.504 197.185C106.221 197.778 105.251 198.215 104.52 198.376C101.65 199.019 100.365 200.697 100.315 203.656C100.204 209.85 100.01 216.049 99.7057 222.238C99.3678 229.113 99.5672 236.116 98.2874 242.83C95.8221 255.783 96.8027 268.786 96.6697 281.767C96.6309 285.767 97.6891 289.772 98.1378 293.789C98.2819 295.091 98.0492 296.426 98.016 297.75C97.9883 298.825 97.9883 299.894 97.9938 300.969C97.9993 302.171 98.3262 303.473 97.9938 304.57C96.4758 309.534 99.8941 314.354 105.135 314.432C109.141 314.492 111.157 316.681 111.695 320.742C112.204 324.642 112.731 328.609 115.745 331.695C116.548 332.52 116.659 333.988 117.196 335.113C117.517 335.789 117.938 336.747 118.509 336.914C120.72 337.562 121.118 339.229 121.008 341.063C120.814 344.271 122.326 345.213 125.34 345.263C126.919 345.29 128.492 346.332 130.049 346.963C131.069 347.379 132.055 347.878 133.058 348.343C130.049 351.551 127.096 354.814 123.994 357.927C123.362 358.564 122.188 358.83 121.224 358.936C118.371 359.246 115.451 359.778 112.653 359.445C110.969 359.246 108.941 357.955 107.955 356.537C100.332 345.567 94.0437 333.817 89.196 321.395C86.0049 313.218 83.3678 304.786 81.0963 296.304C79.4619 290.215 78.8581 283.855 77.7666 277.623C75.9495 267.229 76.5146 256.742 76.8414 246.304C77.063 239.19 78.2985 232.105 79.1683 225.013C80.6088 213.268 83.9329 202.01 88.1046 190.98C92.2874 179.938 98.2764 169.811 103.7 159.379C107.512 152.049 112.509 149.373 120.204 150.814C121.606 151.074 123.24 151.501 124.21 152.426C128.099 156.132 131.772 160.06 135.528 163.911L135.534 163.888Z" fill="#E6E7F5"/>
<path d="M380.997 348.775C382.797 348.016 384.598 347.251 386.581 346.415C386.93 347.595 387.179 349.223 387.883 350.631C389.174 353.212 391.152 353.246 392.875 350.985C394.98 348.226 396.697 345.534 396.498 341.689C396.304 337.994 399.401 335.523 403.54 335.135C404.553 335.041 405.578 335.018 407.002 334.941C406.72 333.905 406.542 333.157 406.31 332.426C405.39 329.567 405.13 326.897 408.066 324.924C408.564 324.592 409.069 324.054 409.251 323.506C410.681 319.234 411.894 314.891 413.479 310.68C414.049 309.162 415.307 307.783 416.537 306.653C417.75 305.539 418.625 304.608 417.584 302.969C415.706 300.021 416.038 297.052 417.517 294.088C421.301 286.503 421.124 278.381 420.587 270.259C420.215 264.675 419.218 259.124 419.002 253.539C418.587 242.813 418.603 232.071 418.254 221.34C418.166 218.669 417.434 216.01 416.908 213.362C416.299 210.309 415.429 207.306 414.963 204.237C414.193 199.113 409.268 196.675 407.479 192.265C406.404 189.622 405.135 186.974 404.62 184.204C404.088 181.362 400.509 177.257 397.528 177.107C396.177 177.035 394.697 176.752 393.473 177.157C388.997 178.642 384.681 178.813 380.465 176.448C379.717 176.027 378.659 175.7 378.343 175.04C376.238 170.658 376.293 170.636 371.833 171.417C371.429 171.489 371.002 171.417 370.581 171.417C375.578 166.503 380.581 161.594 385.578 156.68C385.877 156.387 386.293 156.16 386.47 155.805C390.232 148.37 397.135 151.101 403.008 150.913C404.193 150.874 405.783 152.658 406.614 153.966C413.745 165.168 420.592 176.531 424.725 189.284C427.329 197.306 430.376 205.207 432.553 213.34C434.204 219.511 435.285 225.927 435.761 232.298C436.576 243.24 436.969 254.226 437.024 265.201C437.052 270.492 436.11 275.822 435.224 281.074C434.215 287.063 433.013 293.041 431.467 298.908C429.562 306.126 427.689 313.423 424.914 320.331C421.562 328.664 417.451 336.714 413.318 344.703C411.074 349.035 408.238 353.09 405.357 357.046C404.576 358.115 402.703 358.531 401.246 358.946C395.805 360.503 390.925 360.088 387.118 355.129C385.34 352.813 383.058 350.88 381.002 348.775H380.997Z" fill="#E6E7F5"/>
<path d="M363.245 178.974C361.727 180.614 360.209 182.254 358.691 183.888C354.984 187.34 351.195 190.708 347.588 194.265C340.957 200.792 334.491 207.49 327.821 213.977C325.948 215.794 327.023 217.013 328.004 218.465C325.117 218.581 326.203 220.343 326.713 221.739C327.45 223.756 327.45 226.487 330.68 226.315C330.873 226.304 331.034 225.628 331.211 225.262C332.873 231.152 335.355 236.958 335.987 242.958C336.813 250.797 336.43 258.803 336.048 266.708C335.887 270.038 334.391 273.307 333.505 276.598C331.361 279.102 328.774 281.357 327.206 284.177C325.876 286.57 325.677 289.606 325.056 292.376C324.774 293.628 324.591 294.98 326.608 294.891C327.067 295.141 327.527 295.384 327.993 295.634L327.982 295.623L328.663 296.143C328.735 296.254 328.724 296.348 328.619 296.426C326.713 297.44 326.242 298.603 328.048 300.238C330.419 302.387 332.79 304.548 334.995 306.864C337.134 309.102 338.879 311.739 341.112 313.861C348.319 320.714 355.749 327.323 362.929 334.204C366.203 337.34 369.023 340.947 372.159 344.232C375.511 347.744 379.101 350.936 381.494 355.379C383.782 359.634 383.854 365.207 380.63 368.825C377.544 372.287 374.635 375.916 371.383 379.213C369.538 381.08 367.283 383.091 364.414 380.504C369.649 375.351 374.929 370.238 380.109 365.03C382.868 362.254 382.602 361.412 379.81 358.775C377.416 356.515 375.5 353.745 373.156 351.423C365.234 343.584 357.123 335.938 349.261 328.038C341.211 319.949 333.389 311.634 325.433 303.451C323.416 301.379 321.245 299.456 319.2 297.412C318.674 296.886 318.353 296.16 317.932 295.528C318.114 295.318 318.297 295.102 318.48 294.891C319.422 295.429 320.364 295.966 321.527 296.636C321.693 296.01 322.148 295.202 321.937 294.958C318.463 290.897 321.998 287.528 322.99 283.955C323.993 280.326 325.184 276.747 326.314 273.157C326.862 271.401 327.599 269.689 327.998 267.9C330.159 258.287 329.693 248.841 327.322 239.213C325.4 231.401 322.247 224.221 319.073 216.952C318.574 215.816 318.818 213.617 319.621 212.775C325.516 206.614 331.716 200.753 337.671 194.647C342.048 190.16 346.092 185.351 350.469 180.869C355.771 175.434 361.378 170.304 366.641 164.836C371.599 159.683 376.319 154.304 381.018 148.913C381.544 148.309 381.705 146.537 381.245 146.055C376.419 140.974 371.444 136.038 366.497 131.08C365.838 130.42 365.123 129.816 364.436 129.19C368.524 127.722 371.649 130.143 374.286 132.381C377.544 135.152 380.07 138.78 382.951 142.005C385.472 144.825 384.175 148.06 383.466 150.863C382.369 155.218 379.616 158.62 376.026 161.589C372.973 164.116 370.674 167.578 368.22 170.758C367.849 171.24 368.441 172.465 368.591 173.345C368.68 173.528 368.718 173.722 368.713 173.922C368.308 174.332 367.904 174.747 367.494 175.157C366.081 176.431 364.669 177.706 363.25 178.98L363.245 178.974Z" fill="#1C3F77"/>
<path d="M368.703 173.916C368.708 173.711 368.67 173.523 368.581 173.34C369.052 172.897 369.523 172.448 369.994 172.005C369.562 172.642 369.135 173.279 368.703 173.916Z" fill="#E6E7F5"/>
<path d="M162.426 379.617C162.259 379.828 162.093 380.044 161.933 380.254C162.099 380.044 162.265 379.828 162.426 379.617Z" fill="#E6E7F5"/>
<path d="M320.486 256.448C319.489 261.856 318.901 268.936 316.791 275.523C314.004 284.221 308.979 291.817 302.707 298.653C297.389 304.454 290.752 308.232 284.253 312.277C282.392 313.435 279.998 313.712 277.899 314.52C267.256 318.609 256.176 318.088 245.162 317.329C241.948 317.108 238.752 315.379 235.732 313.95C229.843 311.163 223.705 308.665 218.364 305.025C210.203 299.457 204.447 291.617 200.087 282.692C194.292 270.842 193.749 258.404 194.635 245.551C195.45 233.717 200.685 223.734 207.815 215.086C212.885 208.936 219.167 203.562 226.835 199.828C233.189 196.731 239.511 193.8 246.392 192.881C252.924 192.005 259.699 191.75 266.237 192.432C271.705 193.002 277.101 195.019 282.342 196.914C291.311 200.155 298.159 206.415 304.552 213.29C311.588 220.858 316.425 229.606 318.613 239.645C319.688 244.581 319.777 249.734 320.486 256.454V256.448ZM230.32 281.534L230.453 281.667L232.619 283.191C233.007 283.523 233.389 283.85 233.777 284.182C236.918 286.16 239.865 288.587 243.234 290.033C250.563 293.174 258.153 294.903 265.954 291.363C272.237 290.127 277.766 287.135 282.231 282.792C285.378 279.728 287.444 275.562 289.993 271.883C290.746 270.177 291.494 268.476 292.248 266.77C292.735 265.54 293.223 264.304 293.71 263.074C294.07 261.872 294.779 260.653 294.73 259.468C294.591 256 294.153 252.543 293.832 249.086C293.699 247.878 293.572 246.664 293.439 245.457C293.317 245.014 293.195 244.57 293.079 244.127C292.818 243.518 292.558 242.914 292.297 242.304L288.037 233.789C286.674 231.983 285.583 229.85 283.893 228.421C277.527 223.019 270.752 218.576 262.004 217.601C256.309 216.964 250.824 216.98 245.522 218.953C236.779 222.194 229.261 227.174 224.763 235.695C222.586 239.817 219.749 243.739 219.865 248.742C217.976 252.399 218.358 256.105 219.599 259.833C219.699 260.255 219.799 260.67 219.899 261.091C219.96 261.529 220.015 261.966 220.076 262.399C220.353 266.764 222.414 270.36 224.979 273.739C225.405 274.365 225.827 274.991 226.253 275.612C226.724 276.426 227.195 277.241 227.666 278.05C227.865 278.293 228.059 278.537 228.259 278.775L229.383 279.994C229.699 280.504 230.015 281.014 230.331 281.529L230.32 281.534Z" fill="#1C3F77"/>
<path d="M269.666 175.877C269.046 175.811 268.425 175.75 267.805 175.683C266.542 175.539 265.284 175.395 264.021 175.257C255.362 175.057 246.702 174.863 238.309 177.639C232.553 179.539 226.774 181.395 220.974 183.151C219.445 183.617 217.783 183.639 216.182 183.866C212.497 179.933 208.813 175.999 205.129 172.066C205.489 171.761 206.193 171.24 206.154 171.179C204.315 168.215 205.882 165.329 206.353 162.453C207.245 156.991 208.564 151.899 213.079 147.838C216.342 144.902 219.517 142.631 223.893 141.888C225.866 141.55 227.622 139.888 229.594 139.584C232.303 139.168 235.123 139.534 237.888 139.451C243.4 139.284 248.913 138.874 254.425 138.88C261.04 138.891 267.7 139.816 274.248 139.246C279.495 138.791 284.315 139.916 289.317 140.642C293.594 141.257 297.14 142.692 299.223 146.952C300.254 146.575 301.107 146.005 301.943 146.032C302.669 146.054 303.866 146.631 303.999 147.179C305.096 151.589 308.364 153.949 312.137 155.5C314.315 156.392 315.029 157.473 314.852 159.65C314.68 161.717 313.567 162.331 311.677 162.797C310.359 163.124 308.68 164.265 308.248 165.44C307.013 168.797 306.331 172.359 305.434 175.838C304.182 177.096 302.93 178.348 301.672 179.606C301.472 179.838 301.273 180.071 301.074 180.304L301.107 180.276C296.326 181.279 292.137 179.944 287.727 177.944C283.672 176.104 279.018 175.462 274.558 174.708C273.035 174.448 271.301 175.445 269.661 175.866L269.666 175.877Z" fill="#FEFEFE"/>
<path d="M205.135 172.06C208.819 175.994 212.503 179.928 216.187 183.861C213.306 185.518 211.14 184.016 209.334 182.049C205.14 177.473 201.096 172.759 196.658 167.728C197.683 167.385 198.27 167.185 198.858 166.991C199.234 167.235 199.606 167.479 199.982 167.723C201.046 168.57 202.11 169.418 203.173 170.265C203.827 170.864 204.481 171.468 205.135 172.066V172.06Z" fill="#0C0A31"/>
<path d="M333.506 276.597C334.393 273.3 335.888 270.037 336.049 266.708C336.431 258.802 336.814 250.796 335.988 242.957C335.357 236.957 332.875 231.156 331.213 225.262C330.143 222.996 329.074 220.73 328.005 218.464C327.024 217.012 325.949 215.794 327.822 213.976C334.492 207.489 340.958 200.791 347.589 194.264C351.196 190.713 354.985 187.345 358.692 183.888C363.761 184.957 365.767 188.231 368.093 192.957C372.332 201.566 373.201 210.226 373.251 219.384C373.262 221.622 374.548 223.827 375.063 226.087C375.767 229.173 376.398 232.276 376.858 235.406C377.412 239.201 377.739 243.023 378.193 246.835C378.265 247.439 378.332 248.154 378.675 248.597C383.346 254.641 382.503 261.505 381.717 268.381C381.49 270.342 381.645 272.386 381.129 274.253C380.404 276.891 379.229 279.4 378.221 281.96C376.309 286.796 374.387 291.633 372.442 296.453C372.304 296.796 371.977 297.273 371.678 297.323C366.852 298.093 368.293 301.849 367.938 304.841C367.805 305.96 367.285 307.345 366.459 307.982C365.595 308.652 363.451 308.198 363.091 308.879C361.96 311.018 361.329 313.439 360.653 315.794C360.276 317.101 360.199 318.486 359.9 320.375C357.523 318.957 355.772 317.882 353.994 316.863C349.002 313.993 345.395 309.566 341.478 305.528C338.775 302.741 336.559 299.489 334.055 296.503C332.077 294.143 332.077 291.627 333.03 288.868C333.49 287.539 334.675 285.91 332.409 284.929C332.808 282.813 333.213 280.697 333.611 278.58L333.506 276.591V276.597Z" fill="#FEFEFE"/>
<path d="M333.507 276.598C333.54 277.262 333.579 277.922 333.612 278.587C331.928 282.786 330.244 286.985 328.56 291.179C328.36 291.368 328.161 291.562 327.961 291.75C327.507 292.797 327.058 293.844 326.604 294.891C324.587 294.98 324.77 293.628 325.053 292.376C325.673 289.606 325.873 286.57 327.202 284.177C328.77 281.357 331.357 279.096 333.501 276.598H333.507Z" fill="#0C0A31"/>
<path d="M328.559 291.18C330.243 286.98 331.927 282.781 333.611 278.587C333.212 280.703 332.808 282.82 332.409 284.936C331.124 287.019 329.844 289.102 328.559 291.18Z" fill="#E6E7F5"/>
<path d="M363.245 178.974C364.658 177.7 366.071 176.426 367.489 175.151C367.361 177.855 366.852 180.132 363.245 178.974Z" fill="#E6E7F5"/>
<path d="M326.603 294.891C327.057 293.844 327.506 292.797 327.96 291.75C327.971 293.041 327.977 294.337 327.988 295.628C327.528 295.379 327.068 295.135 326.603 294.886V294.891Z" fill="#E6E7F5"/>
<path d="M194.403 348.243C194.592 348.038 194.78 347.833 194.968 347.628C195.417 347.018 195.86 346.414 196.309 345.805C203.09 339.146 209.844 332.453 216.714 325.888C217.268 325.362 218.913 325.301 219.639 325.727C227.196 330.171 235.367 332.78 244.01 333.844C249.312 334.492 254.719 335.417 259.971 334.974C266.802 334.398 273.534 332.581 280.309 331.301C280.946 331.101 281.578 330.902 282.215 330.702C282.63 330.514 283.052 330.331 283.467 330.143C283.871 330.054 284.27 329.966 284.675 329.883C285.101 329.727 285.528 329.572 285.949 329.417C287.052 328.996 288.176 328.625 289.245 328.137C291.495 327.112 293.722 326.021 295.955 324.963C296.453 325.079 297.118 325.035 297.423 325.34C305.329 333.417 313.196 341.528 321.074 349.639C322.143 353.223 321.877 356.492 319.583 359.7C318.564 361.124 318.453 363.218 317.999 365.018C316.891 369.406 314.237 371.927 309.705 372.869C307.473 373.334 305.478 374.841 303.306 375.722C301.799 376.331 300.198 376.952 298.603 377.074C295.694 377.29 292.752 377.207 289.833 377.113C287.257 377.035 285.744 377.988 285.993 380.73C286.237 383.45 284.924 384.193 282.448 384.06C279.844 383.921 277.218 384.154 274.619 383.977C273.34 383.888 271.722 383.617 270.902 382.791C268.736 380.608 266.281 380.941 263.65 381.074C261.434 381.185 259.19 380.802 256.957 380.636C256.952 380.232 256.941 379.827 256.935 379.417C258.736 378.924 260.542 378.431 262.342 377.938C262.326 377.799 262.304 377.661 262.287 377.522H251.09C251.04 377.838 250.996 378.149 250.946 378.464C252.398 378.78 253.844 379.096 255.971 379.561C253.816 380.985 252.204 382.165 250.464 383.124C249.96 383.401 248.769 383.318 248.459 382.935C246.63 380.68 244.254 381.739 242.06 381.639C235.035 381.329 227.921 381.567 221.024 380.464C215.927 379.65 210.996 377.334 206.226 375.179C204.265 374.293 202.486 372.304 201.395 370.381C199.921 367.794 198.708 365.406 195.678 364.154C192.608 362.891 192.076 359.971 193.046 356.769C193.877 354.043 193.977 351.09 194.398 348.243H194.403ZM265.384 377.7L265.439 378.42C267.65 379.018 269.888 379.522 272.054 380.237C274.653 381.09 277.151 381.988 279.572 379.772C280.043 379.34 280.907 379.34 281.589 379.135C282.342 378.913 283.096 378.686 283.855 378.459C283.046 378.016 282.243 377.212 281.423 377.19C276.758 377.068 272.088 377.107 267.417 377.157C266.736 377.162 266.065 377.511 265.384 377.7Z" fill="#FEFEFE"/>
<path d="M269.667 175.877C271.307 175.456 273.041 174.459 274.564 174.719C279.024 175.473 283.678 176.116 287.733 177.955C292.143 179.955 296.332 181.285 301.113 180.282C299.384 181.972 297.656 183.661 295.927 185.357C291.362 183.218 286.797 181.08 282.226 178.947C281.035 178.531 279.877 178.005 278.653 177.728C275.672 177.052 272.658 176.492 269.661 175.883L269.667 175.877Z" fill="#F3F2FB"/>
<path d="M282.226 330.703C281.589 330.902 280.957 331.102 280.32 331.301C280.631 330.359 280.658 328.936 281.301 328.559C283.905 327.046 286.691 325.844 289.423 324.559C290.542 324.033 291.705 323.612 292.836 323.096C294.791 322.21 296.088 322.371 295.971 324.958C293.739 326.021 291.511 327.107 289.262 328.132C288.193 328.62 287.068 328.991 285.966 329.412C285.539 329.567 285.113 329.722 284.686 329.877C284.282 329.966 283.883 330.055 283.478 330.138C283.063 330.326 282.642 330.509 282.226 330.697V330.703Z" fill="#0C0A31"/>
<path d="M282.231 178.941C286.797 181.08 291.367 183.218 295.932 185.351C297.24 187.346 295.467 187.069 294.636 186.842C292.459 186.243 290.315 185.462 288.226 184.598C286.37 183.833 284.475 183.036 282.863 181.883C282.259 181.451 282.42 179.955 282.231 178.947V178.941Z" fill="#0C0A31"/>
<path d="M186.426 292.415C185.955 291.407 185.478 290.398 185.007 289.396C184.836 289.157 184.664 288.914 184.492 288.675C183.423 285.972 182.354 283.274 181.29 280.57C181.462 279.65 181.628 278.725 181.977 276.819C183.822 280.271 185.39 283.035 186.78 285.878C187.406 287.152 187.528 288.675 188.154 289.95C189.157 292.005 188.415 292.581 186.426 292.409V292.415Z" fill="#0C0A31"/>
<path d="M264.021 175.251C265.284 175.395 266.541 175.539 267.804 175.678C266.541 175.534 265.284 175.389 264.021 175.251Z" fill="#F3F2FB"/>
<path d="M328.004 218.465C329.073 220.731 330.143 222.997 331.212 225.263C331.035 225.628 330.879 226.31 330.68 226.315C327.45 226.487 327.45 223.75 326.713 221.739C326.204 220.343 325.118 218.581 328.004 218.465Z" fill="#0C0A31"/>
<path d="M293.439 245.445C293.572 246.653 293.7 247.866 293.833 249.074C293.046 250.692 292.304 252.326 291.467 253.916C289.628 257.418 290.376 260.537 293.711 263.063C293.223 264.293 292.736 265.529 292.248 266.758C289.334 268.457 288.582 270.162 289.993 271.872C287.445 275.545 285.373 279.717 282.232 282.781C277.772 287.124 272.237 290.121 265.955 291.351C265.168 291.085 264.365 290.548 263.594 290.592C258.968 290.864 254.431 291.578 250.087 288.77C248.121 287.495 245.401 287.44 243.074 286.664C240.126 285.684 237.24 284.52 234.309 283.484C234.226 283.456 233.96 283.933 233.777 284.171C233.389 283.839 233.007 283.512 232.619 283.179C231.899 282.67 231.173 282.16 230.453 281.656L230.32 281.523C230.004 281.013 229.689 280.504 229.373 279.988C228.996 279.584 228.619 279.174 228.248 278.77C228.049 278.526 227.855 278.282 227.655 278.044C227.184 277.229 226.714 276.415 226.243 275.606C227.639 273.745 225.977 273.961 224.968 273.733C222.409 270.354 220.342 266.758 220.065 262.393C220.004 261.955 219.949 261.517 219.888 261.085C219.788 260.664 219.689 260.249 219.589 259.828C219.678 256.132 219.766 252.432 219.855 248.736C219.738 243.733 222.575 239.811 224.752 235.689C229.251 227.163 236.769 222.188 245.511 218.947C250.813 216.98 256.298 216.963 261.993 217.595C270.741 218.576 277.517 223.019 283.883 228.415C285.567 229.844 286.658 231.977 288.027 233.783C287.539 240.088 287.927 240.858 292.287 242.299C292.547 242.908 292.808 243.512 293.068 244.121C293.19 244.564 293.312 245.008 293.428 245.451L293.439 245.445Z" fill="#FEFEFE"/>
<path d="M233.777 284.177C233.96 283.939 234.221 283.457 234.309 283.49C237.24 284.526 240.126 285.689 243.074 286.67C245.395 287.446 248.121 287.501 250.088 288.775C254.431 291.584 258.974 290.869 263.595 290.598C264.365 290.554 265.168 291.091 265.955 291.357C258.154 294.897 250.559 293.169 243.234 290.027C239.866 288.581 236.919 286.16 233.777 284.177Z" fill="#F3F2FB"/>
<path d="M293.711 263.069C290.37 260.543 289.622 257.424 291.467 253.922C292.304 252.332 293.046 250.692 293.833 249.08C294.154 252.543 294.592 255.994 294.73 259.462C294.78 260.648 294.071 261.867 293.711 263.069Z" fill="#F3F2FB"/>
<path d="M292.293 242.298C287.927 240.864 287.545 240.088 288.032 233.783C289.451 236.62 290.875 239.456 292.293 242.298Z" fill="#E6E7F5"/>
<path d="M219.86 248.736C219.771 252.432 219.682 256.132 219.594 259.828C218.353 256.099 217.976 252.387 219.86 248.736Z" fill="#E6E7F5"/>
<path d="M289.993 271.878C288.582 270.168 289.334 268.464 292.248 266.765C291.495 268.471 290.747 270.172 289.993 271.878Z" fill="#F3F2FB"/>
<path d="M224.969 273.733C225.977 273.961 227.639 273.744 226.243 275.606C225.816 274.98 225.395 274.354 224.969 273.733Z" fill="#F3F2FB"/>
<path d="M230.453 281.661C231.173 282.171 231.899 282.681 232.619 283.185C231.899 282.675 231.173 282.165 230.453 281.661Z" fill="#F3F2FB"/>
<path d="M293.439 245.446C293.317 245.003 293.195 244.559 293.079 244.116C293.201 244.559 293.323 245.003 293.439 245.446Z" fill="#E6E7F5"/>
<path d="M229.373 279.999C229.689 280.509 230.005 281.018 230.32 281.534C230.005 281.024 229.689 280.514 229.373 279.999Z" fill="#F3F2FB"/>
<path d="M219.889 261.085C219.95 261.523 220.005 261.96 220.066 262.392C220.005 261.955 219.95 261.517 219.889 261.085Z" fill="#E6E7F5"/>
<path d="M227.656 278.05C227.856 278.294 228.05 278.537 228.249 278.776C228.05 278.532 227.856 278.288 227.656 278.05Z" fill="#F3F2FB"/>
<path d="M265.384 377.7C266.06 377.512 266.736 377.168 267.417 377.157C272.087 377.107 276.758 377.069 281.423 377.19C282.243 377.213 283.046 378.016 283.855 378.459C283.101 378.686 282.348 378.908 281.589 379.135C280.907 379.34 280.043 379.34 279.572 379.772C277.146 381.988 274.652 381.091 272.054 380.238C269.882 379.523 267.644 379.019 265.439 378.42L265.384 377.7Z" fill="#F3F2FB"/>
</g>
</g>
<defs>
<clipPath id="clip0_264_83">
<rect width="512" height="512" fill="white"/>
</clipPath>
</defs>
</svg>
