<svg width="256" height="256" viewBox="0 0 256 256" fill="none" xmlns="http://www.w3.org/2000/svg">
<g clip-path="url(#clip0_47_19)">
<rect width="256" height="256" fill="white"/>
<path d="M256 256H0V0H256V256ZM159.93 194.182C159.366 193.396 158.602 192.775 157.718 192.383C156.833 191.992 155.86 191.844 154.899 191.955C152.115 192.23 149.318 192.397 146.528 192.595C146.332 192.633 146.148 192.717 145.99 192.838C145.018 193.478 144.218 193.254 143.13 192.8C141.779 192.237 140.282 191.558 138.688 191.955C138.016 192.122 137.408 192.474 136.71 192.595C134.426 192.902 125.37 192.442 123.219 191.955C119.823 191.094 116.266 191.094 112.87 191.955C112.244 192.074 111.6 192.054 110.982 191.898C107.968 191.149 107.027 191.206 104.077 191.846C102.906 192.102 101.587 192.346 100.442 191.61C98.144 190.118 95.584 190.899 93.1392 190.701C91.7696 192.154 89.8368 191.034 88.16 191.834C86.688 192.531 84.6208 191.981 82.6752 191.981C82.2016 190.342 81.6704 188.742 81.3056 187.11C81.0368 185.92 81.856 185.024 82.432 184.064C82.5711 183.672 82.6129 183.253 82.5536 182.842C82.5536 180.39 82.6432 177.933 82.5536 175.488C82.464 173.043 82.1568 170.758 81.9136 168.39C81.892 168.193 81.8379 168.001 81.7536 167.821C81.1136 166.349 81.2352 165.024 81.8048 163.443C82.2912 162.093 82.9056 160.57 82.5792 158.963C82.2528 157.357 82.0992 155.763 81.9392 154.112C81.696 151.821 82.3232 149.594 82.5088 147.334C82.7584 144.262 82.5728 141.158 82.5728 138.067C82.5728 137.638 82.72 137.133 82.5728 136.787C81.3312 134.387 81.4144 131.667 80.9856 129.146C80.512 126.362 80.7488 123.462 80.6784 120.614C80.6784 120.186 80.5056 119.571 80.7168 119.334C81.8688 118.253 80.8192 116.774 81.3568 115.757C82.0864 114.477 81.856 113.152 81.9392 111.834C81.9712 111.232 81.9968 110.63 82.0224 109.997C84.4224 110.176 86.4384 109.434 88.5056 108.934C89.1947 108.722 89.9278 108.695 90.6304 108.858C92.7572 109.517 94.9596 109.902 97.184 110.003C100.794 110.221 104.314 109.453 107.859 108.819C109.982 108.526 112.136 108.526 114.259 108.819C116.39 109.03 118.31 107.981 120.403 108.115C122.669 108.262 124.986 107.795 127.174 108.755C131.597 108.262 135.923 109.677 140.346 109.395C142.368 109.274 144.397 109.395 146.426 109.395C150.611 109.395 152.32 108.608 155.322 105.491C156.462 104.331 157.407 102.993 158.118 101.53C157.299 99.648 159.667 98.6816 159.437 96.9344C159.379 96.5248 160.077 95.9872 159.968 95.6544C159.813 94.7754 159.426 93.9536 158.848 93.2736C157.829 92.2962 156.649 91.5017 155.36 90.9248C154.547 90.5728 153.44 90.9248 152.512 90.8352C151.584 90.7456 150.592 90.2976 149.574 90.24C145.293 89.984 141.011 90.4896 136.704 89.6704C134.029 89.1648 131.174 89.5552 128.384 89.6C127.795 89.698 127.212 89.8262 126.637 89.984C124.928 90.1888 123.2 91.4496 121.6 90.7648C120 90.08 118.33 90.2656 116.704 90.24C112.013 90.176 107.322 90.24 102.624 90.1952C101.312 90.1952 100.064 90.368 98.6752 89.6832C98.0862 89.4473 97.4549 89.3352 96.8207 89.3539C96.1865 89.3726 95.5629 89.5217 94.9888 89.792C94.4864 90.0662 93.9336 90.2359 93.3639 90.2909C92.7942 90.3459 92.2192 90.285 91.6736 90.112C90.3936 89.6768 89.5232 89.8688 88.3072 90.112C85.6525 90.5756 82.9636 90.8154 80.2688 90.8288C77.0703 90.9872 73.8656 90.9722 70.6688 90.784C68.9792 90.6496 68.1088 91.9168 66.7584 92.2496C66.2784 93.9904 64.5248 94.7008 63.6224 96.0896C62.72 97.4784 61.6064 98.9312 62.0608 100.883C62.5152 102.835 61.1904 104.768 62.0224 106.771C62.1888 107.168 61.3056 108.115 61.4976 108.358C62.6112 109.818 62.0672 111.437 62.0352 112.934C61.9072 120.525 62.4448 128.122 61.5232 135.718C61.0496 139.603 61.6192 143.61 61.3888 147.539C61.1584 151.469 62.1248 155.456 62.1056 159.437C62.1056 160.845 61.5936 162.362 62.688 163.674C62.7731 163.862 62.8084 164.07 62.7904 164.276C62.7725 164.482 62.702 164.68 62.5856 164.851C61.76 165.549 62.208 166.432 62.08 167.226C61.5872 170.176 62.9824 172.986 62.72 175.917C62.72 176.173 63.0528 176.435 63.0912 176.71C63.3216 178.413 64.5376 180.115 63.9104 181.76C62.816 184.634 62.8032 187.68 62.0352 190.579C61.8048 191.45 61.3504 192.224 61.3952 193.203C61.5136 195.226 61.5136 197.254 61.3952 199.277C61.3456 199.782 61.4063 200.292 61.5732 200.772C61.7401 201.251 62.009 201.689 62.3616 202.054C63.4112 203.014 63.3536 204.058 63.36 205.203V207.84C64.2496 208.525 65.0496 209.51 66.0672 209.843C68.3648 210.605 70.688 211.334 73.1968 211.213C75.9616 211.085 78.752 211.328 81.5168 211.13C83.136 211.014 84.5952 211.546 85.9968 211.942C86.7459 212.221 87.5298 212.396 88.3264 212.461C89.8176 212.461 91.3152 212.55 92.8064 212.461C94.2976 212.371 95.84 211.821 97.344 211.878C107.187 212.198 116.986 210.746 126.829 211.194C127.538 211.199 128.239 211.049 128.883 210.752C130.317 210.221 131.834 209.952 133.363 209.958C137.952 209.862 142.534 209.958 147.123 209.92C148.045 209.92 148.954 209.875 149.747 210.56C150.501 211.1 151.434 211.329 152.352 211.2C153.734 211.149 155.117 211.2 156.378 211.2L158.33 209.35C159.085 206.208 159.744 203.59 160.333 200.934C160.531 200.038 160.973 198.829 160.57 198.24C159.674 196.922 160.224 195.59 159.93 194.182ZM172.154 127.622C173.434 128.902 174.441 130.429 175.111 132.11C175.781 133.792 176.101 135.592 176.051 137.402C175.974 139.859 175.411 142.426 176.64 144.806C176.198 148.282 177.126 151.661 177.28 155.098C177.523 159.674 175.93 163.942 175.251 168.358C174.987 169.744 174.249 170.995 173.165 171.898C172.058 172.755 170.445 173.011 169.018 173.389C166.618 174.029 164.442 175.245 162.17 176.16C159.091 177.44 157.05 183.686 158.291 186.733C158.554 187.373 158.739 188.237 159.808 188.32C160.501 188.355 161.169 188.593 161.728 189.005C162.317 189.504 162.598 190.355 163.136 190.925C163.573 191.34 164.075 191.681 164.621 191.936C165.541 192.364 166.542 192.59 167.556 192.599C168.571 192.608 169.575 192.399 170.502 191.987C172.624 191.146 174.645 190.072 176.531 188.787C177.811 187.891 179.507 187.834 180.864 186.867C182.509 185.728 184.442 185.056 185.286 182.976C185.815 181.542 186.637 180.235 187.699 179.136C188.282 178.566 188.448 177.555 188.755 176.723C189.498 174.726 189.12 172.486 190.035 170.547C190.95 168.608 190.938 166.381 191.181 164.339C191.61 160.768 191.219 157.101 191.322 153.459C191.424 149.818 191.744 146.419 191.962 142.854C192.25 137.696 190.816 132.614 191.322 127.45C191.433 126.737 191.375 126.008 191.153 125.322C190.931 124.636 190.55 124.012 190.042 123.501C188.73 122.176 188.166 120.301 186.33 119.283C184.318 118.071 182.443 116.646 180.736 115.034C179.19 113.577 177.389 112.416 175.424 111.61C171.885 110.272 168.346 109.165 164.544 109.37C163.439 109.421 162.347 109.636 161.306 110.01C160.603 110.377 159.956 110.842 159.386 111.392C159.098 113.133 159.386 114.726 158.803 116.403C158.221 118.08 159.078 120.07 159.821 121.958C160.838 124.57 162.381 125.728 164.941 125.978C165.43 126.066 165.915 126.18 166.394 126.317L172.154 127.622ZM86.656 84.416C88.2176 84.6016 89.7472 84.6016 90.9824 83.4112C92.6507 81.7908 93.9439 79.8248 94.7712 77.6512C95.6928 75.2832 95.3216 72.9088 95.296 70.5472C95.1908 69.1576 94.8556 67.795 94.304 66.5152C93.2915 64.0349 92.0307 61.6633 90.5408 59.4368C88.0768 55.4496 88.2112 53.6448 91.5008 49.6576C92.3248 48.68 93.2304 47.7744 94.208 46.9504C95.9621 45.3926 97.2847 43.4087 98.048 41.1904C98.624 39.6864 99.4496 38.0672 99.0848 36.5824C98.77 35.2992 98.5919 33.9863 98.5536 32.6656C98.5216 31.5648 96.6336 29.0944 95.6608 28.8256C93.8944 28.3328 92.8512 29.1264 92.8 31.0016C92.8 31.424 92.8 31.8528 92.8 32.2816C92.7424 36.2112 91.6736 39.7184 88.5568 42.3424C86.2588 44.1432 84.2775 46.3149 82.6944 48.768C81.8285 50.0097 81.3356 51.4731 81.2736 52.9856C81.2736 54.7904 81.2736 56.6016 81.2736 58.4128C81.2079 58.9289 81.2559 59.4532 81.4144 59.9488C82.4064 61.8688 83.5072 63.7888 84.544 65.7088C85.3888 67.2704 86.7392 68.8064 86.8928 70.4448C87.0848 72.5568 88.6656 74.7584 87.0272 76.928C86.5024 77.6256 87.8976 78.0736 87.1744 79.04C86.4512 80.0064 86.2976 81.4144 85.8432 82.7968L86.656 84.416ZM129.818 12.1792C130.731 13.8265 131.766 15.4032 132.915 16.896C134.195 18.4384 133.811 20.736 134.4 22.656C133.12 23.4176 134.4 25.216 133.12 25.9584C133.395 27.1424 132.883 28.1792 132.403 29.1584C131.923 30.1376 131.021 31.1616 130.65 32.2688C129.523 35.6416 127.008 38.3488 126.445 42.0608C126.022 44.8448 125.837 49.6576 127.661 53.0496C129.133 55.7824 130.413 58.496 129.926 61.7088C129.803 62.1266 129.803 62.571 129.926 62.9888C130.355 63.7824 130.784 64.7936 131.494 65.1584C132.205 65.5232 133.158 65.1968 134.099 64.7872C135.187 64.32 135.296 63.4752 135.61 62.8032C136.602 60.672 136.166 58.3232 136.339 56.064C136.449 54.6372 136.104 53.2123 135.354 51.9936C133.83 49.568 133.677 47.04 133.696 44.3136C133.662 42.5941 134.155 40.9054 135.11 39.4752C136.909 37.024 137.984 34.2336 139.418 31.6288C140.417 29.6905 141.067 27.5912 141.338 25.4272C141.674 23.2105 141.674 20.9559 141.338 18.7392C141.037 16.9408 140.006 15.2576 139.283 13.536C138.558 12.0236 137.456 10.7232 136.083 9.76C134.016 8.128 131.878 8.6912 130.522 11.0016C130.355 11.36 130.125 11.6864 129.818 12.1792ZM111.981 49.7408C113.958 47.008 115.968 44.4544 117.741 41.7344C119.2 39.4688 119.661 36.7552 120.301 34.176C120.646 32.8512 119.776 31.552 119.77 30.2976C119.77 27.9424 118.944 26.0352 117.901 23.9936C117.12 22.4512 116.019 22.0736 114.65 21.7792C114.103 21.7191 113.551 21.7191 113.005 21.7792C111.539 23.0592 110.918 24.0256 111.866 25.9328C113.184 28.5888 112.627 31.648 112.627 34.5536C112.627 34.816 112.314 35.0592 112.211 35.3344C111.219 38.0288 109.466 40.2176 107.693 42.4128C105.229 45.472 103.558 48.8576 103.712 52.896C103.744 53.7728 104.301 54.6432 104.288 55.5072C104.336 57.8243 105.121 60.0659 106.528 61.9072C108.494 64.6396 109.518 67.937 109.446 71.3024C109.446 73.3184 109.696 73.5296 111.827 73.6256C112.237 73.6256 112.653 73.6256 113.222 73.6256C113.997 72.5504 115.021 71.5712 115.488 70.368C116.021 68.851 116.344 67.2684 116.448 65.664C116.64 63.552 115.45 59.9808 114.01 58.0672C113.434 57.1421 112.952 56.1624 112.57 55.1424C111.674 53.28 112.211 51.424 111.981 49.7408ZM138.861 143.949C140.109 144.717 141.459 145.594 142.867 146.362C143.27 146.579 144.083 146.694 144.314 146.464C145.235 145.536 146.323 146.106 147.309 145.907C148.186 145.734 149.197 145.709 149.869 145.235C152.038 143.776 153.229 141.434 154.662 139.328C154.831 138.953 154.887 138.537 154.822 138.131C154.733 136.211 154.925 134.291 154.272 132.294C153.414 129.734 152.813 128.877 150.509 127.936C149.35 127.552 148.139 127.351 146.918 127.341C145.236 127.184 143.54 127.402 141.952 127.981C140.384 128.73 139.674 130.202 138.662 131.501C137.184 133.389 137.216 135.008 138.208 136.877C138.661 137.675 138.882 138.584 138.848 139.501C138.835 140.902 138.88 142.291 138.88 143.949H138.861ZM145.901 151.68H144.621C140.717 151.731 138.419 153.946 138.221 157.85C138.221 158.266 138.342 158.803 138.131 159.078C137.325 160.128 137.555 160.998 138.054 162.17C138.554 163.341 138.342 164.576 138.592 165.773C138.752 166.349 139.056 166.876 139.475 167.302C140.403 168.32 141.395 169.286 142.394 170.24C142.869 170.587 143.415 170.824 143.992 170.935C144.57 171.045 145.165 171.027 145.734 170.88C146.979 170.589 148.182 170.147 149.318 169.562C150.726 168.678 151.763 167.322 151.635 165.517C151.546 164.282 152.166 163.373 152.755 162.464C153.894 160.698 154.035 157.715 152.595 156.224C151.456 154.88 150.143 153.695 148.691 152.698C147.648 152.032 146.771 151.616 145.894 151.68H145.901Z" fill="black"/>
<path d="M159.93 194.182C160.224 195.565 159.674 196.896 160.57 198.214C160.96 198.803 160.531 200.013 160.333 200.909C159.744 203.552 159.053 206.182 158.33 209.325L156.378 211.174C155.098 211.174 153.734 211.136 152.352 211.174C151.434 211.303 150.501 211.074 149.747 210.534C148.954 209.856 148.045 209.894 147.123 209.894C142.534 209.894 137.952 209.837 133.363 209.933C131.834 209.927 130.317 210.195 128.883 210.726C128.239 211.023 127.538 211.174 126.829 211.168C116.986 210.72 107.187 212.173 97.344 211.853C95.84 211.808 94.3232 212.326 92.8064 212.435C91.2896 212.544 89.824 212.467 88.3264 212.435C87.5298 212.37 86.7459 212.195 85.9968 211.917C84.5696 211.52 83.1104 210.989 81.5168 211.104C78.7584 211.302 75.968 211.059 73.1968 211.187C70.688 211.309 68.3648 210.547 66.0672 209.817C65.0496 209.485 64.2496 208.499 63.36 207.814V205.177C63.36 204.032 63.4112 202.989 62.3616 202.029C62.009 201.663 61.74 201.226 61.5732 200.746C61.4063 200.267 61.3456 199.756 61.3952 199.251C61.5136 197.228 61.5136 195.2 61.3952 193.177C61.3504 192.198 61.8048 191.424 62.0352 190.554C62.8032 187.654 62.816 184.608 63.9104 181.734C64.5504 180.089 63.3216 178.387 63.0912 176.685C63.0528 176.409 62.7008 176.147 62.72 175.891C62.9632 172.96 61.568 170.131 62.08 167.2C62.208 166.406 61.76 165.523 62.5856 164.825C62.702 164.654 62.7725 164.456 62.7904 164.25C62.8084 164.044 62.7731 163.837 62.688 163.648C61.5936 162.336 62.1056 160.819 62.1056 159.411C62.1056 155.43 61.1584 151.526 61.3888 147.514C61.6192 143.501 61.0496 139.577 61.5232 135.693C62.4448 128.096 61.9072 120.499 62.0352 112.909C62.0672 111.411 62.6112 109.792 61.4976 108.333C61.3056 108.089 62.1888 107.142 62.0224 106.746C61.1904 104.742 62.5024 102.797 62.0608 100.857C61.6192 98.9183 62.7008 97.4847 63.6224 96.0639C64.544 94.6431 66.2784 93.9775 66.7584 92.2239C68.1088 91.8911 68.9792 90.6239 70.6688 90.7583C73.8656 90.9465 77.0703 90.9615 80.2688 90.8031C82.9636 90.7897 85.6525 90.5499 88.3072 90.0863C89.5232 89.8367 90.4192 89.6447 91.6736 90.0863C92.2192 90.2593 92.7942 90.3202 93.3639 90.2652C93.9336 90.2102 94.4864 90.0405 94.9888 89.7663C95.5629 89.496 96.1865 89.3469 96.8207 89.3282C97.4549 89.3095 98.0862 89.4216 98.6752 89.6575C100.038 90.3423 101.312 90.1567 102.624 90.1695C107.315 90.2271 112.006 90.1695 116.704 90.2143C118.33 90.2143 119.904 90.0287 121.6 90.7391C123.296 91.4495 124.928 90.1631 126.637 89.9583C127.212 89.8005 127.795 89.6724 128.384 89.5743C131.155 89.5295 134.01 89.1391 136.704 89.6447C141.011 90.4639 145.293 89.9583 149.574 90.2143C150.56 90.2719 151.494 90.7007 152.512 90.8095C153.53 90.9183 154.547 90.5471 155.36 90.8991C156.649 91.476 157.829 92.2706 158.848 93.2479C159.426 93.9279 159.813 94.7497 159.968 95.6287C160.064 95.9871 159.379 96.5247 159.437 96.9087C159.667 98.6559 157.299 99.6223 158.118 101.504C157.407 102.967 156.462 104.305 155.322 105.466C152.32 108.582 150.611 109.37 146.426 109.37C144.397 109.37 142.368 109.267 140.346 109.37C135.923 109.632 131.597 108.218 127.174 108.73C124.986 107.75 122.694 108.218 120.403 108.09C118.31 107.955 116.39 109.005 114.259 108.793C112.136 108.5 109.982 108.5 107.859 108.793C104.314 109.433 100.819 110.195 97.184 109.977C94.9596 109.876 92.7572 109.491 90.6304 108.832C89.9278 108.669 89.1947 108.696 88.5056 108.909C86.4384 109.408 84.4224 110.15 82.0224 109.971C82.0224 110.611 81.9712 111.206 81.9392 111.808C81.856 113.126 82.0864 114.419 81.3568 115.731C80.8 116.749 81.8496 118.227 80.7168 119.309C80.5056 119.514 80.6656 120.128 80.6784 120.589C80.7488 123.437 80.512 126.349 80.9856 129.12C81.4144 131.68 81.3312 134.362 82.5728 136.762C82.7456 137.094 82.5728 137.6 82.5728 138.042C82.5728 141.133 82.7584 144.237 82.5088 147.309C82.3232 149.568 81.696 151.789 81.9392 154.086C82.112 155.712 82.2784 157.344 82.5792 158.937C82.88 160.531 82.2912 162.086 81.8048 163.417C81.2352 164.998 81.088 166.323 81.7536 167.795C81.8379 167.975 81.892 168.167 81.9136 168.365C82.1376 170.733 82.432 173.094 82.5536 175.462C82.6752 177.83 82.5856 180.365 82.5536 182.816C82.6129 183.227 82.5711 183.647 82.432 184.038C81.856 184.998 81.0368 185.894 81.3056 187.085C81.6704 188.717 82.2016 190.285 82.6752 191.955C84.5952 191.955 86.688 192.505 88.16 191.808C89.8368 191.008 91.7696 192.128 93.1392 190.675C95.584 190.874 98.144 190.093 100.442 191.584C101.587 192.32 102.906 192.077 104.077 191.821C107.027 191.181 107.968 191.123 110.982 191.872C111.6 192.028 112.244 192.048 112.87 191.929C116.266 191.069 119.823 191.069 123.219 191.929C125.37 192.397 134.426 192.857 136.71 192.569C137.382 192.473 137.99 192.121 138.688 191.929C140.282 191.533 141.779 192.211 143.13 192.774C144.218 193.229 145.018 193.414 145.99 192.813C146.148 192.691 146.332 192.608 146.528 192.569C149.318 192.345 152.115 192.179 154.899 191.929C155.863 191.821 156.837 191.973 157.722 192.369C158.607 192.765 159.369 193.391 159.93 194.182V194.182Z" fill="white"/>
<path d="M172.154 127.655L166.432 126.426C165.954 126.289 165.469 126.175 164.979 126.087C162.419 125.837 160.877 124.679 159.859 122.067C159.117 120.147 158.24 118.285 158.842 116.512C159.443 114.739 159.136 113.242 159.424 111.501C159.995 110.951 160.641 110.486 161.344 110.119C162.386 109.745 163.477 109.53 164.582 109.479C168.422 109.274 171.936 110.381 175.462 111.719C177.428 112.525 179.228 113.686 180.774 115.143C182.481 116.755 184.357 118.18 186.368 119.392C188.205 120.41 188.768 122.285 190.08 123.61C190.588 124.121 190.969 124.745 191.191 125.431C191.414 126.117 191.471 126.846 191.36 127.559C190.835 132.717 192.269 137.799 192 142.963C191.808 146.496 191.494 150.003 191.36 153.568C191.226 157.133 191.648 160.858 191.219 164.448C190.976 166.49 191.021 168.685 190.074 170.656C189.126 172.627 189.517 174.835 188.794 176.832C188.486 177.664 188.32 178.675 187.738 179.245C186.676 180.344 185.854 181.651 185.325 183.085C184.48 185.165 182.547 185.837 180.902 186.976C179.546 187.917 177.862 187.975 176.57 188.896C174.684 190.182 172.662 191.255 170.541 192.096C169.614 192.508 168.609 192.717 167.594 192.708C166.58 192.699 165.579 192.473 164.659 192.045C164.113 191.79 163.612 191.449 163.174 191.034C162.637 190.445 162.355 189.594 161.766 189.114C161.207 188.703 160.54 188.464 159.846 188.429C158.778 188.346 158.566 187.488 158.33 186.842C157.094 183.795 159.13 177.517 162.208 176.269C164.48 175.354 166.656 174.131 169.056 173.498C170.483 173.12 172.096 172.858 173.203 172.007C174.288 171.104 175.025 169.853 175.29 168.467C175.968 164.051 177.562 159.783 177.318 155.207C177.133 151.77 176.205 148.391 176.678 144.915C175.475 142.535 176.038 139.968 176.09 137.511C176.145 135.686 175.824 133.869 175.147 132.173C174.47 130.478 173.451 128.939 172.154 127.655V127.655Z" fill="white"/>
<path d="M86.656 84.416L85.856 82.7713C86.3104 81.3889 86.464 79.9872 87.1872 79.0144C87.9104 78.0416 86.5152 77.6001 87.04 76.9025C88.6784 74.7329 87.0976 72.5312 86.9056 70.4192C86.752 68.7808 85.4016 67.2193 84.5568 65.6833C83.52 63.7633 82.4192 61.8817 81.4272 59.9233C81.2687 59.4277 81.2207 58.9034 81.2864 58.3873C81.2864 56.5761 81.2864 54.7649 81.2864 52.9601C81.3484 51.4475 81.8413 49.9842 82.7072 48.7425C84.2874 46.278 86.2689 44.0953 88.5696 42.2849C91.6864 39.6609 92.7552 36.1537 92.8128 32.2241C92.8128 31.8017 92.8128 31.3729 92.8128 30.9441C92.864 29.0689 93.9072 28.2753 95.6736 28.7681C96.6528 29.0369 98.5344 31.5073 98.5664 32.6081C98.6047 33.9288 98.7828 35.2417 99.0976 36.5249C99.4624 38.0097 98.6368 39.6288 98.0608 41.1328C97.2975 43.3512 95.9749 45.3351 94.2208 46.8928C93.2432 47.7168 92.3376 48.6225 91.5136 49.6001C88.224 53.5873 88.0896 55.392 90.5536 59.3792C92.0435 61.6058 93.3043 63.9773 94.3168 66.4576C94.8684 67.7375 95.2036 69.1 95.3088 70.4897C95.3088 72.8513 95.7056 75.2256 94.784 77.5936C93.9567 79.7672 92.6635 81.7332 90.9952 83.3536C89.7344 84.6016 88.2176 84.6016 86.656 84.416Z" fill="white"/>
<path d="M129.818 12.1792C130.125 11.6864 130.355 11.36 130.554 11.0144C131.91 8.70398 134.048 8.14078 136.115 9.77278C137.488 10.736 138.59 12.0364 139.315 13.5488C140.038 15.2704 141.069 16.9536 141.37 18.752C141.706 20.9687 141.706 23.2233 141.37 25.44C141.099 27.6039 140.449 29.7032 139.45 31.6416C138.016 34.2464 136.941 37.0368 135.142 39.488C134.187 40.9182 133.694 42.6069 133.728 44.3264C133.728 47.0272 133.862 49.5552 135.386 52.0064C136.136 53.2251 136.481 54.65 136.371 56.0768C136.198 58.3424 136.634 60.6848 135.642 62.816C135.328 63.488 135.219 64.3328 134.131 64.8C133.19 65.2096 132.211 65.5232 131.526 65.1712C130.842 64.8192 130.387 63.7952 129.958 63.0016C129.835 62.5838 129.835 62.1394 129.958 61.7216C130.445 58.5216 129.165 55.7952 127.693 53.0624C125.869 49.6704 126.054 44.8576 126.477 42.0736C127.04 38.3616 129.555 35.6736 130.682 32.2816C131.053 31.1744 131.923 30.24 132.435 29.1712C132.947 28.1024 133.427 27.136 133.152 25.9712C134.432 25.2096 133.152 23.4112 134.432 22.6688C133.843 20.7488 134.208 18.464 132.947 16.9088C131.787 15.4129 130.741 13.8319 129.818 12.1792Z" fill="white"/>
<path d="M111.981 49.741C112.211 51.4242 111.674 53.2802 112.57 55.117C112.952 56.137 113.434 57.1167 114.01 58.0418C115.45 59.9618 116.64 63.5266 116.448 65.6386C116.344 67.243 116.021 68.8256 115.488 70.3426C115.021 71.5458 113.997 72.525 113.222 73.6002C112.653 73.6002 112.237 73.6002 111.827 73.6002C109.696 73.5042 109.446 73.293 109.446 71.277C109.509 67.9218 108.483 64.6366 106.522 61.9138C105.114 60.0725 104.33 57.8309 104.282 55.5138C104.282 54.6498 103.738 53.7794 103.706 52.9026C103.552 48.8642 105.222 45.4786 107.686 42.4194C109.459 40.2242 111.213 38.0354 112.205 35.341C112.307 35.0658 112.621 34.8226 112.621 34.5602C112.621 31.6546 113.178 28.5954 111.859 25.9394C110.912 24.0194 111.533 23.053 112.998 21.7858C113.545 21.7257 114.097 21.7257 114.643 21.7858C116.013 22.061 117.114 22.4578 117.894 24.0002C118.938 26.0418 119.744 27.949 119.763 30.3042C119.763 31.5842 120.64 32.8642 120.294 34.1826C119.622 36.7426 119.187 39.4754 117.734 41.741C115.974 44.4546 113.958 46.9826 111.981 49.741Z" fill="white"/>
<path d="M138.88 143.949C138.88 142.291 138.835 140.902 138.88 139.52C138.914 138.603 138.693 137.694 138.24 136.896C137.248 135.027 137.216 133.408 138.694 131.52C139.706 130.24 140.416 128.749 141.984 128C143.572 127.421 145.268 127.203 146.95 127.36C148.171 127.37 149.382 127.571 150.541 127.955C152.845 128.896 153.446 129.728 154.304 132.314C154.944 134.285 154.765 136.198 154.854 138.15C154.919 138.556 154.863 138.972 154.694 139.347C153.261 141.453 152.07 143.827 149.901 145.254C149.203 145.728 148.192 145.754 147.341 145.926C146.355 146.125 145.267 145.555 144.346 146.483C144.115 146.714 143.302 146.598 142.899 146.381C141.478 145.594 140.128 144.717 138.88 143.949Z" fill="white"/>
<path d="M145.894 151.68C146.771 151.616 147.648 152.032 148.71 152.685C150.162 153.682 151.475 154.867 152.614 156.211C154.035 157.702 153.894 160.691 152.774 162.451C152.186 163.36 151.565 164.269 151.654 165.504C151.782 167.309 150.746 168.665 149.338 169.549C148.202 170.134 146.998 170.576 145.754 170.867C145.184 171.014 144.589 171.032 144.011 170.922C143.434 170.811 142.888 170.574 142.413 170.227C141.414 169.273 140.422 168.307 139.494 167.289C139.075 166.863 138.771 166.336 138.611 165.76C138.362 164.563 138.534 163.2 138.074 162.157C137.613 161.113 137.344 160.115 138.15 159.065C138.362 158.79 138.221 158.253 138.24 157.837C138.438 153.933 140.736 151.718 144.64 151.667L145.894 151.68Z" fill="white"/>
</g>
<defs>
<clipPath id="clip0_47_19">
<rect width="256" height="256" fill="white"/>
</clipPath>
</defs>
</svg>
