<?xml version="1.0" encoding="UTF-8"?>
<svg xmlns="http://www.w3.org/2000/svg" xmlns:xlink="http://www.w3.org/1999/xlink" width="256px" height="256px" viewBox="0 0 256 256" version="1.1">
<g id="surface1">
<path style=" stroke:none;fill-rule:nonzero;fill:rgb(0%,0%,0%);fill-opacity:1;" d="M 169.726562 220.75 C 159.398438 226.320312 148.667969 230.378906 137.226562 232.582031 C 132.84375 233.425781 128.613281 232.800781 124.386719 231.96875 C 110.878906 229.308594 98.179688 224.46875 86.28125 217.546875 C 72.515625 209.535156 60.515625 199.4375 50.398438 187.105469 C 42.007812 176.882812 35.320312 165.679688 31.058594 153.136719 C 27.386719 142.335938 26.03125 131.277344 27.484375 119.851562 C 28.894531 108.757812 34.023438 99.335938 39.972656 90.214844 C 43.480469 84.835938 47.714844 80.070312 52.457031 75.75 C 52.820312 75.417969 53.296875 75.203125 53.933594 74.800781 C 52.269531 73.507812 50.992188 72.570312 49.773438 71.5625 C 44.246094 67.007812 39.507812 61.746094 35.699219 55.667969 C 35.460938 55.292969 35.242188 54.90625 35.039062 54.511719 C 33.726562 51.984375 34.003906 50.71875 36.371094 49.183594 C 41.054688 46.15625 46.097656 43.839844 51.347656 41.996094 C 60.648438 38.730469 70.289062 37.28125 80.101562 37.410156 C 92.925781 37.574219 105.207031 40.175781 116.402344 46.785156 C 118.804688 48.203125 121.03125 49.851562 123.054688 51.773438 C 123.441406 52.144531 123.726562 52.679688 124.570312 52.710938 C 125.433594 50.539062 126.84375 48.664062 128.664062 47.078125 C 129.71875 46.160156 130.761719 45.644531 132.125 46.359375 C 132.824219 46.726562 133.523438 46.554688 134.214844 46.28125 C 135.355469 45.835938 136.285156 46.226562 137.050781 47.085938 C 137.84375 47.96875 137.960938 48.929688 137.394531 50 C 136.800781 51.113281 136.269531 52.257812 135.699219 53.410156 C 136.363281 53.707031 136.679688 53.285156 137.003906 53.058594 C 143.054688 48.734375 149.894531 46.203125 156.980469 44.195312 C 165.3125 41.835938 173.84375 41.242188 182.359375 42.105469 C 197.050781 43.59375 210.480469 48.558594 222.03125 58.074219 C 225.734375 61.125 229.15625 64.421875 232.089844 68.222656 C 232.492188 68.75 232.890625 69.289062 233.21875 69.863281 C 234.328125 71.789062 233.789062 73.484375 231.765625 74.351562 C 229.394531 75.363281 226.867188 75.730469 224.328125 76.03125 C 223.785156 76.09375 223.242188 76.144531 222.722656 76.199219 C 222.4375 77.003906 222.960938 77.449219 223.273438 77.929688 C 227.6875 84.71875 230.351562 92.191406 232.136719 100.046875 C 234 108.242188 234.15625 116.5625 233.597656 124.847656 C 233.054688 132.925781 231.246094 140.828125 228.75 148.566406 C 221.824219 170.042969 209.683594 188.160156 193.324219 203.53125 C 186.214844 210.214844 178.304688 215.851562 169.726562 220.75 M 114.105469 60.398438 C 111.210938 59.777344 108.273438 59.730469 105.328125 59.667969 C 92.34375 59.378906 80.273438 62.640625 69.050781 69.058594 C 61.375 73.449219 54.667969 79.019531 48.941406 85.808594 C 44.363281 91.230469 40.78125 97.238281 37.402344 103.441406 C 34.042969 109.605469 32.054688 116.136719 31.496094 123.054688 C 30.527344 135.019531 32.980469 146.4375 37.4375 157.507812 C 40.042969 163.984375 43.523438 169.96875 47.296875 175.800781 C 48.984375 178.410156 50.835938 180.917969 53.003906 183.164062 C 53.449219 183.625 53.847656 184.289062 54.664062 183.988281 C 55.429688 183.707031 55.453125 182.964844 55.542969 182.320312 C 55.640625 181.664062 55.605469 180.992188 55.667969 180.328125 C 56.09375 175.828125 60.378906 173.496094 64.265625 175.796875 C 67.289062 177.589844 70.425781 179.222656 72.335938 182.507812 C 74.738281 186.628906 77.175781 190.605469 76.011719 195.722656 C 75.515625 197.921875 74.933594 198.675781 72.621094 198.792969 C 71.867188 198.832031 71.328125 199.023438 71.058594 199.753906 C 70.773438 200.53125 70.675781 201.265625 71.445312 201.855469 C 71.707031 202.054688 71.945312 202.296875 72.199219 202.507812 C 77.730469 207.09375 83.691406 211.054688 89.886719 214.667969 C 101.65625 221.535156 114.351562 225.835938 127.734375 228.21875 C 128.910156 228.429688 129.714844 228.09375 130.464844 227.148438 C 136.773438 219.203125 141.496094 210.390625 144.957031 200.878906 C 147.820312 193.015625 149.917969 185 149.542969 176.527344 C 149.429688 173.984375 148.867188 171.542969 147.832031 169.214844 C 146.851562 169.433594 146.480469 170.097656 146.015625 170.621094 C 142.804688 174.246094 139.300781 177.558594 135.425781 180.472656 C 129.230469 185.136719 122.597656 189.019531 115.3125 191.738281 C 114.015625 192.222656 112.773438 192.421875 112.089844 190.832031 C 111.574219 189.632812 112.179688 188.753906 113.875 188.015625 C 116.058594 187.058594 118.269531 186.148438 120.402344 185.085938 C 130.609375 180.019531 139.214844 172.953125 146.355469 164.09375 C 156.726562 151.21875 162.28125 136.480469 162.816406 119.992188 C 163.074219 112.128906 161.667969 104.40625 158.917969 96.984375 C 153.480469 82.304688 143.636719 71.675781 129.460938 65.070312 C 124.660156 62.835938 119.605469 61.359375 114.105469 60.398438 M 229.511719 109.023438 C 228.980469 106.019531 228.5625 102.992188 227.902344 100.015625 C 225.410156 88.761719 220.476562 78.742188 212.242188 70.578125 C 201.199219 59.628906 187.53125 54.757812 172.253906 54.125 C 161.117188 53.667969 150.429688 56.125 140.070312 60.082031 C 138.238281 60.78125 136.324219 61.367188 134.6875 62.457031 C 134.878906 63.175781 135.402344 63.335938 135.8125 63.574219 C 139.777344 65.859375 143.40625 68.574219 146.742188 71.710938 C 157.460938 81.78125 163.761719 94.175781 165.96875 108.621094 C 167.261719 117.074219 166.886719 125.542969 165.03125 133.925781 C 162.660156 144.632812 158.261719 154.445312 151.886719 163.355469 C 151.128906 164.414062 151.234375 165.019531 152.089844 165.878906 C 155.273438 169.089844 158.9375 171.542969 163.226562 172.972656 C 166.753906 174.152344 170.269531 174.640625 173.496094 172.027344 C 174.296875 171.378906 175.230469 171.535156 175.898438 172.292969 C 176.667969 173.164062 176.597656 174.167969 175.832031 175.007812 C 174.171875 176.828125 171.996094 177.609375 169.601562 177.769531 C 164.265625 178.125 159.613281 176.167969 155.199219 173.421875 C 154.582031 173.039062 154.058594 172.417969 153.238281 172.367188 C 154.800781 193.410156 146.199219 211.078125 135.242188 227.929688 C 135.769531 228.464844 136.28125 228.285156 136.753906 228.203125 C 146.054688 226.585938 154.953125 223.664062 163.351562 219.398438 C 178.71875 211.601562 191.757812 200.875 202.664062 187.535156 C 217.160156 169.8125 226.632812 149.875 229.304688 126.96875 C 229.988281 121.109375 229.667969 115.210938 229.511719 109.023438 M 197.71875 50.273438 C 195.140625 50.5 192.503906 50.019531 189.910156 50.882812 C 191.996094 51.742188 192.949219 53.917969 195.144531 54.648438 C 198.621094 55.8125 201.8125 57.671875 204.875 59.679688 C 209.484375 62.699219 213.78125 66.097656 217.363281 70.332031 C 218.902344 72.148438 222.625 72.613281 224.628906 71.316406 C 225.183594 70.957031 225.425781 70.457031 225.492188 69.796875 C 225.667969 68.039062 225.136719 66.664062 223.835938 65.378906 C 216.5 58.128906 207.90625 53.085938 197.71875 50.273438 M 72.085938 57.203125 C 71.289062 57.800781 70.460938 58.363281 69.703125 59.003906 C 68.699219 59.851562 68.445312 61.007812 68.914062 62.164062 C 69.382812 63.324219 70.449219 62.847656 71.242188 62.609375 C 73.785156 61.835938 76.242188 60.828125 78.5625 59.519531 C 79.496094 58.992188 79.382812 58.34375 78.769531 57.613281 C 77.222656 55.757812 75.246094 55.582031 72.085938 57.203125 Z M 72.085938 57.203125 "/>
</g>
</svg>
