<?xml version="1.0" encoding="UTF-8" standalone="no"?>
<svg
   id="svg2"
   viewBox="0 0 256 255.99998"
   version="1.1"
   sodipodi:docname="IAQ-logo.svg"
   inkscape:version="1.2.1 (9c6d41e410, 2022-07-14)"
   width="256"
   height="256"
   inkscape:export-filename="IAQ-logo.png"
   inkscape:export-xdpi="96"
   inkscape:export-ydpi="96"
   xmlns:inkscape="http://www.inkscape.org/namespaces/inkscape"
   xmlns:sodipodi="http://sodipodi.sourceforge.net/DTD/sodipodi-0.dtd"
   xmlns="http://www.w3.org/2000/svg"
   xmlns:svg="http://www.w3.org/2000/svg"
   xmlns:rdf="http://www.w3.org/1999/02/22-rdf-syntax-ns#"
   xmlns:cc="http://creativecommons.org/ns#"
   xmlns:dc="http://purl.org/dc/elements/1.1/">
  <defs
     id="defs11726">
    <filter
       inkscape:menu-tooltip="Inkblot on blotting paper"
       inkscape:menu="Textures"
       inkscape:label="Blotting Paper"
       style="color-interpolation-filters:sRGB"
       id="filter3212"
       x="-0.24176463"
       y="-0.43465096"
       width="1.4835293"
       height="1.8693019">
      <feGaussianBlur
         result="result6"
         stdDeviation="8"
         in="SourceGraphic"
         id="feGaussianBlur3192" />
      <feComposite
         in2="SourceGraphic"
         in="result6"
         operator="xor"
         result="result10"
         id="feComposite3194" />
      <feGaussianBlur
         result="result2"
         stdDeviation="8"
         id="feGaussianBlur3196" />
      <feComposite
         in2="SourceGraphic"
         operator="atop"
         in="result10"
         result="result91"
         id="feComposite3198" />
      <feComposite
         result="result4"
         in="result2"
         operator="xor"
         in2="result91"
         id="feComposite3200" />
      <feGaussianBlur
         in="result4"
         result="result3"
         stdDeviation="4"
         id="feGaussianBlur3202" />
      <feSpecularLighting
         result="result5"
         specularExponent="5"
         specularConstant="1.10000002"
         surfaceScale="18"
         id="feSpecularLighting3206">
        <feDistantLight
           azimuth="235"
           elevation="55"
           id="feDistantLight3204" />
      </feSpecularLighting>
      <feComposite
         in="result3"
         k3="1.1"
         k2="0.5"
         operator="arithmetic"
         result="result7"
         in2="result5"
         k1="0.5"
         id="feComposite3208"
         k4="0" />
      <feComposite
         in="result7"
         operator="atop"
         in2="SourceGraphic"
         result="fbSourceGraphic"
         id="feComposite3210" />
      <feColorMatrix
         result="fbSourceGraphicAlpha"
         in="fbSourceGraphic"
         values="0 0 0 -1 0 0 0 0 -1 0 0 0 0 -1 0 0 0 0 1 0"
         id="feColorMatrix3214" />
      <feGaussianBlur
         id="feGaussianBlur3216"
         stdDeviation="0.4"
         result="blur"
         in="fbSourceGraphic" />
      <feComposite
         in2="blur"
         id="feComposite3218"
         in="fbSourceGraphic"
         operator="in"
         result="composite1" />
      <feComposite
         in2="composite1"
         id="feComposite3220"
         in="composite1"
         operator="in"
         result="fbSourceGraphic" />
      <feColorMatrix
         result="fbSourceGraphicAlpha"
         in="fbSourceGraphic"
         values="0 0 0 -1 0 0 0 0 -1 0 0 0 0 -1 0 0 0 0 1 0"
         id="feColorMatrix3456" />
      <feGaussianBlur
         id="feGaussianBlur3458"
         stdDeviation="3"
         in="fbSourceGraphic"
         result="result1" />
      <feTurbulence
         id="feTurbulence3460"
         type="turbulence"
         baseFrequency="0.05"
         numOctaves="5"
         result="result0" />
      <feDisplacementMap
         in2="result0"
         id="feDisplacementMap3462"
         in="result1"
         xChannelSelector="R"
         yChannelSelector="G"
         scale="3"
         result="result2" />
      <feBlend
         in2="result2"
         id="feBlend3464"
         result="result5"
         in="result2"
         mode="multiply" />
      <feGaussianBlur
         id="feGaussianBlur3466"
         stdDeviation="5"
         in="result2"
         result="result4" />
      <feComposite
         in2="result5"
         id="feComposite3468"
         operator="arithmetic"
         in="result4"
         k2="0.25"
         k3="1"
         k1="1"
         result="result92"
         k4="0" />
      <feComposite
         in2="result2"
         id="feComposite3470"
         operator="in" />
    </filter>
  </defs>
  <sodipodi:namedview
     id="namedview11724"
     pagecolor="#ffffff"
     bordercolor="#000000"
     borderopacity="0.25"
     inkscape:showpageshadow="2"
     inkscape:pageopacity="0.0"
     inkscape:pagecheckerboard="0"
     inkscape:deskcolor="#d1d1d1"
     showgrid="false"
     inkscape:zoom="0.72273553"
     inkscape:cx="166.72765"
     inkscape:cy="264.27371"
     inkscape:window-width="1920"
     inkscape:window-height="1017"
     inkscape:window-x="-8"
     inkscape:window-y="-8"
     inkscape:window-maximized="1"
     inkscape:current-layer="svg2" />
  <g
     id="layer4"
     transform="matrix(0.28146318,0,0,0.22222538,-16.310977,-11.991059)">
    <g
       id="g2896">
      <rect
         id="rect3045"
         fill-rule="evenodd"
         ry="0.45221001"
         height="1030.8"
         width="905.52002"
         y="54.110001"
         x="58.046001"
         fill="#fff728" />
      <path
         id="path3736"
         d="M 400.81,53.959 463,434.089 525.28,53.959 Z"
         fill="#c2f22c" />
      <path
         id="path3740"
         d="M 140.59,53.959 424.88,446.379 314.16,53.959 H 140.6 Z"
         fill="#c2f22c" />
      <path
         id="path3742"
         d="M 58.053,126.38 V 342.1 l 338.92,137.75 z"
         fill="#c2f22c" />
      <path
         id="path3744"
         d="M 60.375,448.12 V 602.9 l 326.38,-77.31 z"
         fill="#c2f22c" />
      <path
         id="path3746"
         d="M 396.97,571.31 58.03,709.84 V 926.96 L 396.97,571.3 Z"
         fill="#c2f22c" />
      <path
         id="path3748"
         d="M 424.88,604.81 74.76,1085.45 H 288.45 L 424.89,604.81 Z"
         fill="#c2f22c" />
      <path
         id="path3752"
         d="m 501.09,604.81 135.59,480.62 H 849.24 L 501.08,604.81 Z"
         fill="#c2f22c" />
      <path
         id="path3754"
         d="m 529,571.31 434.56,456.38 V 749.16 L 529,571.3 Z"
         fill="#c2f22c" />
      <path
         id="path3756"
         d="M 963.56,425.06 539.22,525.59 963.56,626.34 Z"
         fill="#c2f22c" />
      <path
         id="path3758"
         d="M 936.86,54.071 526.69,479.841 963.55,303.201 V 54.071 h -26.688 z"
         fill="#c2f22c" />
      <path
         id="path3760"
         d="M 613.28,53.969 501.09,448.689 788.97,53.969 Z"
         fill="#c2f22c" />
      <path
         id="use3981"
         d="m 58.118,54.094 v 27.79 c 64.642,106.23 178,225.52 217.16,293.28 -85.51,-51.08 -157.69,-96.17 -217.16,-136.4 v 50.383 c 71.47,47.44 158.9,100.86 265.09,163.04 l 67.246,39.367 -38.664,-67.561 c 0,0 -125.51,-219.48 -219.7,-369.89 H 58.123 Z m 139.49,0 c 41.13,89.216 99.7,198.43 177.64,335.38 l 38.538,67.748 0.28268,-77.862 c 0,0 0.69427,-167.36 -2.4499,-325.26 h -70.575 c 12.31,94.77 31.22,189.85 31.23,244.72 -53.09,-95.21 -95.92,-176.21 -128.5,-244.73 h -46.171 z m 262.54,0 c -5.2056,84.791 -7.7054,185.95 -8.4803,307.09 l -0.50253,77.924 39.167,-67.312 c 0,0 99.188,-170.02 179.69,-317.7 h -80.438 c -36.672,88.081 -67.745,179.63 -95.137,227.08 1.3076,-86.417 3.7333,-161.83 7.6951,-227.08 h -41.993 z m 273.1,0 c -56.62,80.146 -121.8,185.27 -201.24,320.82 l -39.418,67.219 67.623,-38.713 c 0,0 254.6,-145.49 403.35,-240.71 V 78.188 c -118.1,48.542 -273.34,201.9 -354.54,248.79 68.32,-114.28 125.98,-204.73 175.6,-272.89 h -51.385 z m 230.32,180.25 c -95.04,41.38 -214.33,104.65 -368.87,192.54 l -67.748,38.558 77.893,0.28008 c 0,0 191.94,0.79047 358.72,-3.2054 v -73.879 c -105.25,11.62 -216.8,35.27 -278.15,35.29 111.17,-61.95 202.98,-109.9 278.16,-143.9 v -45.684 z m -905.45,110.54 v 72.229 c 69.005,27.132 133.92,51.037 171.37,72.634 -62.828,-0.94287 -119.83,-2.4934 -171.37,-4.7924 v 42.012 c 72.532,3.2323 155.74,4.9388 251.36,5.5393 l 77.988,0.46681 -67.34,-39.149 c 0,0 -130.39,-76.015 -262.01,-148.94 z m 486.93,157.9 67.309,39.211 c 0,0 197.08,114.8 351.21,197.58 v -84.179 c -97.463,-42.95 -207.03,-78.497 -260.53,-109.36 101.6,1.5247 188.01,4.6205 260.53,9.9272 v -42.012 c -91.27,-6.7389 -203.11,-9.8109 -340.56,-10.674 l -77.956,-0.49792 z m -3.0152,41.421 38.695,67.561 c 0,0 178.48,312.11 269.49,447.01 31.903,47.29 72.137,80.953 113.35,99.801 l -0.13506,-71.528 c -103.5,-139.11 -205.8,-282.06 -306.21,-426.48 134.09,80.1 235.39,145.53 306.36,200.54 v -52.281 c -83.63,-62.1 -199.01,-134.38 -354.29,-225.31 l -67.246,-39.367 z m -247.81,25.798 c -47.543,-0.0267 -139.7,0.14335 -236.1,1.556 v 63.702 c 74.92,-11.18 144.89,-23.36 188.95,-23.37 -70.55,39.31 -133.28,72.95 -188.95,101.01 v 46.867 c 78.09,-38.54 170.01,-88.49 279.69,-150.87 l 67.717,-38.558 -77.893,-0.28007 c 0,0 -12.323,-0.0504 -33.419,-0.0623 v 6e-5 z m 224.48,8.558 -0.25127,77.862 c 6.3548,176.8 -9.2943,369.81 11.669,545.13 l 63.948,0.4046 c 22.556,-152.85 -20.993,-312.11 -33.844,-465 72.09,150.74 174.53,297.89 217.88,461.3 l 41.491,0.2489 c -60.77,-194.5 -163.13,-375.09 -262.34,-552.19 l -38.57,-67.748 z m -78.773,15.062 -67.623,38.713 c 0,0 -170.67,97.56 -314.18,185.19 v 90.465 c 98.62,-65.89 203.43,-163.43 265.3,-199.16 -98.26,164.34 -174.4,279.39 -236.35,349.68 -10.038,11.391 -19.678,21.652 -28.959,30.871 v 55.673 c 19.482,-16.028 39.412,-35.674 60.053,-59.097 74.556,-84.603 162.17,-220.04 282.33,-425.07 l 39.418,-67.281 z m 41.428,3.0498 -39.229,67.281 c 0,0 -181.15,310.6 -252.53,456.84 -11.874,24.329 -20.157,48.77 -25.127,72.54 l 56.787,0.3423 c 3.9958,-8.6134 11.751,-19.86 24.373,-34.356 83.022,-95.349 143.58,-320.13 192.41,-404.71 -5.8733,146.49 -1.1873,296.24 -33.89,440.22 l 42.402,0.2801 c 33.317,-171.14 32.003,-346.94 34.298,-520.54 l 0.50254,-77.893 z"
         style="color:#000000;text-indent:0;text-transform:none"
         fill="#45ff03" />
      <g
         id="g4360"
         transform="matrix(0.97103,0,0,1.0225,379.05,1926.7)">
        <path
           id="path4056"
           d="m -60.259,-1593.8 -35.436,50.67 1.3757,36.476 -53.732,10.371 -21.598,55.374 14.169,101.81 -0.0822,27.068 11.803,44.233 117.86,91.987 30.649,41.592 -0.68778,186.04 -2.3182,143.01 289.1,1.3222 -19.991,-302.81 19.947,-43.105 39.206,-93.802 17.526,-108.77 7.8962,-32.349 -13.949,-28.086 1.6232,-46.461 -23.331,-55.291 -48.643,-19.256 -23.688,13.396 -35.849,-35.816 -48.12,-2.9432 -12.133,10.481 -40.224,-35.265 -47.019,-6.0517 -33.428,31.029 -32.713,-34.688 -58.217,-0.1641 -3.87e-4,-9e-4 z"
           style="color:#000000"
           fill="#ffffff" />
        <path
           id="path3867"
           d="m -60.264,-1593.8 -35.459,50.704 1.4157,36.447 -53.732,10.404 -21.598,55.346 14.157,101.8 -0.099,27.064 11.82,44.25 117.87,91.99 30.652,41.584 -0.69137,186.06 -5.4518,147.07 h 8.1982 l 6.8016,-233.06 -7.3092,-120.57 -14.915,-26.208 66.639,27.92 51.823,-35.295 37.665,-33.056 15.244,-21.302 51.988,9.9101 -27.393,32.332 17.45,32.134 -20.479,33.846 -20.578,-10.536 10.305,19.524 -74.014,-7.2764 41.748,127.19 17.911,70.688 -20.841,-11.655 22.699,145.42 h 131.47 l -22.172,-305.56 19.952,-43.098 39.213,-93.768 17.516,-108.78 7.9018,-32.365 -13.96,-28.084 1.6463,-46.456 -23.343,-55.28 -48.662,-19.294 -23.673,13.433 -35.855,-35.822 -48.102,-2.9632 -12.149,10.503 -40.234,-35.262 -47.016,-6.0582 -33.418,31.048 -32.727,-34.702 -58.21,-0.1975 h 1.53e-4 z m 4.9716,3.8522 5.3337,17.648 3.029,15.145 -0.55976,19.458 -2.9302,15.672 -32.398,14.026 -5.0375,-36.052 32.562,-45.896 z m 115.53,20.874 21.993,19.524 -17.647,45.172 9.8114,29.994 8.7249,55.28 -11.293,18.339 -27.92,-19.919 -6.2556,-42.802 19.491,-54.391 -13.762,-26.076 16.857,-25.121 z m 105.46,15.639 16.232,13.367 -21.401,31.443 16.462,75.001 27.656,-34.274 -19.392,66.836 -26.636,5.8277 -23.409,-15.968 16.265,-124.26 14.223,-17.977 z m 101.47,28.644 -6.8154,26.241 2.3706,20.018 14.882,36.25 -19.722,33.286 -22.422,4.2472 -13.927,-12.412 30.949,-93.67 14.684,-13.96 z m -411.16,33.484 21.17,9.8115 10.141,31.41 4.1156,-32.595 57.387,-1.3499 -12.775,29.138 -18.668,28.282 -29.797,0.4939 -22.553,17.845 19.722,-3.918 16.561,24.594 -21.631,17.68 11.03,16.067 29.401,-2.7326 -8.2969,33.286 23.738,-16.824 -11.227,16.824 58.737,21.928 9.7786,-23.014 5.3337,52.745 24.43,-23.508 -12.61,76.483 -30.916,22.849 -118.23,-78.623 -13.071,-36.085 0.16458,-36.744 -13.268,-99.563 21.335,-44.481 z m 358.18,146.71 61.535,14.684 0.55965,16.363 -20.742,36.908 -24.232,8.9884 14.882,23.508 -52.745,-15.804 -21.895,-55.444 41.715,23.146 25.549,-22.619 -24.627,-29.73 z m -37.534,344.06 12.149,40.135 9.0213,17.582 -0.36211,64.762 -15.31,-61.667 -5.4983,-60.811 z"
           style="color:#000000"
           fill="#55d400" />
        <path
           id="path3949"
           d="m -34.123,-1593.9 19.853,8.3957 17.186,26.735 -53.14,36.513 38.62,-10.174 6.5849,44.678 -33.352,57.321 -62.457,22.882 4.8728,7.2764 -9.2517,5.1361 18.273,3.6545 -12.775,32.233 28.216,-3.5229 -12.61,25.319 14.849,0.099 15.804,-39.542 42.834,-5.3338 26.537,-17.186 -15.441,42.472 31.871,1.9426 4.5106,43.954 52.35,-16.462 6.1898,49.65 -2.7656,17.186 28.94,-29.335 13.4,20.084 13.269,27.031 -24.825,-95.777 2.8973,-32.036 15.968,16.791 22.158,11.063 -8.2969,-10.832 3.3583,-12.643 -0.62552,-0.6585 73.355,12.709 -10.964,-16.429 24.199,-4.4119 -25.78,-32.002 25.681,-71.413 9.4822,-42.736 -33.451,-30.422 -34.208,-4.6424 30.159,12.083 5.3666,42.834 9.1201,-6.091 -3.1607,45.896 -18.504,49.749 -29.434,33.352 -43.691,-11.787 -3.7864,-4.0168 1.2841,-23.409 15.639,-126.03 -11.458,-12.445 -29.731,-25.187 -38.752,-4.412 57.189,35.92 -2.7985,38.982 -0.46106,3.8522 -11.918,96.896 -15.507,23.607 -59.395,-7.6385 -12.742,-59.264 12.116,-32.628 9.6139,-25.944 -11.787,-23.212 -4.5106,-12.314 -20.709,-31.015 -18.635,-14.487 -24.825,-0.856 z m 316.37,70.228 21.664,15.079 12.808,23.08 -18.635,80.467 -31.146,27.426 -21.203,1.9096 8.5274,23.64 15.606,-1.9426 43.822,-13.433 7.1446,2.0742 3.2924,42.11 -9.2846,13.334 -7.4079,63.544 -31.64,-11.556 13.894,46.786 -23.969,-1.9425 4.2802,18.273 -28.644,84.122 2.7985,86.327 8.0335,120.6 -7.2762,50.045 h 38.192 l -0.16457,-17.944 -2.9303,-97.127 -5.2349,-138.32 23.574,-66.573 36.908,-70.129 10.108,-45.765 0.099,-68.976 8.0335,-30.652 -7.7043,-29.698 0.72434,-10.009 -4.0168,-32.101 -9.4822,-28.48 -24.002,-25.681 -26.768,-8.4945 z"
           style="color:#000000"
           fill="#112b00" />
      </g>
      <path
         id="path37"
         d="m 955.71,790.14 c 0,0 -56.421,-7.7013 -87.486,-3.7706 -16.726,2.1164 -76.568,-1.3087 -73.964,15.403 1.1626,7.4612 44.643,13.745 51.987,13.973 7.2187,0.22641 15.482,-4.4956 20.951,1.3133 -11.792,3.1708 -21.299,6.2557 -30.86,9.7858 -10.123,3.7388 -15.378,8.2356 -21.519,16.31 -29.56,23.39 -57.592,20.775 -82.103,50.2 -3.9246,6.3049 -3.905,13.829 -8.736,19.572 -2.0476,2.4344 -5.5544,4.7435 -8.1309,7.1592 -3.0521,2.8631 -5.8546,6.1132 -8.736,7.2017 -5.4519,2.0686 -10.523,1.1271 -14.56,1.9486 -3.7951,0.76884 -8.2526,2.3926 -11.081,4.5752 -3.587,2.7681 -5.578,8.9296 -10.476,11.735 -2.2751,1.3012 -5.5835,0.93179 -8.1309,1.9485 -6.5205,2.5989 -12.983,4.6712 -15.505,10.675 -0.9071,2.1591 2.4276,3.9206 1.8153,6.7781 -2.3393,1.4454 -5.9115,3.5 -5.8618,7.7948 h 6.5047 c 2.9301,-3.536 9.227,-7.7191 9.3411,-7.7948 -0.073,0.18695 -5.6986,14.63 -0.94547,19.572 h 5.0298 c -0.45027,-1.7169 -0.49098,-2.1048 3.1011,-1.8216 -3.259,-8.943 5.7865,-9.5368 5.824,-16.945 1.721,-1.6978 3.4416,-3.0215 5.4458,-3.0501 0.66805,-0.0171 2.1178,0.42356 2.1178,0.42356 l -5.824,10.675 h 14.106 v 0.12624 c 2.7919,0.0289 5.8378,0.20015 7.3368,-1.2708 3.6706,-3.6022 7.111,-7.7521 9.984,-12.794 5.1675,-0.78096 17.361,0.19993 19.212,-6.5239 1.8894,-8.3774 -4.6278,-15.564 -4.6516,-23.469 0.39211,-2.5566 3.7652,-3.8086 3.5171,-5.8461 6.1216,-2.1075 11.5,-6.3768 15.695,-11.734 2.9589,-4.475 4.336,-10.504 7.5636,-15.039 20.218,-22.643 61.177,2.7384 65.69,-37.067 9.0667,-6.7645 18.473,-19.8 27.494,-24.867 16.78,-1.8625 31.396,-10.015 47.727,-14.361 1.497,0.12289 0.85017,-2.4866 1.7396,-3.2619 0.61232,-0.53137 2.2331,0.4405 2.912,0 0.28322,-0.18299 0.42083,-1.8889 0.56732,-1.9487 1.3069,-0.53957 7.2003,-0.0426 8.736,-0.63549 2.0851,-0.80373 2.5353,-2.2767 4.0844,-2.6264 1.8286,-0.41611 4.3609,1.5552 5.824,-0.63546 9.7941,-0.0673 16.243,4.12 26.775,3.2619 4.71,-0.38223 9.3822,-3.1388 16.3,-2.6264 3.1223,0.23308 5.6767,2.3815 8.736,1.3133 0.7672,-0.23011 3.376,-1.3133 3.376,-1.3133 0,0 0.086,-14.794 0,-14.816 -1.7781,-0.45549 3.5353,-21.93 -1.1042,-13.685 l -9.818,6.1574 z m -542.93,20.393 c -16.129,1.3808 -22.726,14.801 -42.177,24.149 -12.339,6.0338 -20.743,10.592 -27.948,18.894 -1.946,2.2408 -4.1588,4.5718 -5.2189,6.524 -12.41,31.94 -45.956,-1.4064 -73.367,33.255 -16.269,5.9392 -24.464,8.0268 -34.944,14.996 -4.0856,1.7826 0.72768,-2.5911 -12.783,3.9398 -13.51,6.5309 -50.808,8.458 -66.976,31.941 -8.256,6.4027 -14.684,2.368 -23.863,2.5842 -10.64,0.25046 -21.758,13.036 -24.582,24.952 h 4.9542 c 0.1979,-2.504 1.9833,-5.5655 3.0633,-1.7369 1.2498,-5.5683 5.0428,-4.8778 7.8663,-4.2785 -0.88044,-8.0862 13.405,-9.4527 18.039,-8.4727 -0.33435,5.4557 -1.2028,8.8379 -6.429,9.7858 7.9361,10.557 13.999,-4.4768 16.905,-11.099 4.8516,-0.65224 5.9493,2.5156 9.9084,3.2618 3.9591,0.74621 10.797,0.10294 13.388,-3.2618 2.591,-3.3641 6.5532,-7.9612 1.4748,-17.284 7.2732,-5.664 55.399,-13.614 66.56,-16.903 11.161,-3.2892 6.2765,-11.927 13.463,-12.116 7.9874,-2.809 16.159,-4.3925 23.258,-9.7856 4.422,-1.9942 7.4716,-2.5296 10.74,-3.8126 3.2687,-1.2832 2.7983,-3.6132 3.8196,-5.2954 7.7223,-0.32489 14.515,-9.1229 22.124,-3.9398 1.1158,0.29287 3.0506,-0.27501 4.6517,0 2.8149,0.47989 5.7381,2.7323 10.513,1.9487 6.656,-1.0899 9.0086,-6.2039 15.127,-9.7434 2.6418,0.30103 3.8417,2.1811 5.2189,3.8973 -0.6184,2.7412 -1.5284,5.9026 -3.4793,7.8372 -3.1682,3.141 -12.213,6.7513 -18.039,7.1593 -3.0508,0.21546 -5.4709,-1.0014 -8.736,-1.3134 -20.601,-1.9683 -40.816,5.9938 -52.378,14.996 -1.6518,3.3632 -3.498,6.5394 -5.824,9.1504 3.2844,12.702 13.553,0.0737 19.779,-3.2619 5.4253,-2.9065 10.489,-6.9534 15.732,-3.9398 -0.30737,5.5241 -3.4744,7.9049 -4.6894,12.412 17.285,-2.7018 24.748,-8.0288 43.113,1.3132 4.1171,-3.869 10.327,-5.3707 17.434,-5.8885 -0.52037,2.1067 1.9151,0.91164 2.3447,1.9488 13.21,1.3204 22.659,-1.5547 27.948,-9.1081 0.93547,-8.5512 0.0812,-20.885 -3.4793,-26.731 -1.7996,-2.9524 -5.1941,-5.8119 -8.1688,-7.837 -2.9093,-1.9778 -7.3525,-2.1863 -9.9084,-5.8885 7.7561,-2.615 15.982,-4.6863 23.296,-7.7948 3.6802,-7.1846 12.089,-9.088 14.56,-17.623 9.3866,-5.557 29.856,-28.115 39.596,-24.147 6.7637,0.56799 13.539,-2.2822 20.346,-1.2708 3.6693,0.54483 7.1128,3.0284 10.513,3.8973 5.959,1.5251 13.48,3.1267 20.346,2.6264 4.2381,-0.30899 8.8603,-2.8295 13.388,-3.2618 2.8415,-0.26983 5.4592,0.32672 8.1688,0 3.4394,-0.41482 6.8415,-2.7431 10.476,-2.6264 4.5612,0.14638 9.7435,5.8995 13.955,0 17.702,1.9439 44.275,-14.153 69.283,-5.8886 2.0972,-0.39029 1.7552,2.1895 3.5171,1.9911 1.4645,-0.16502 1.9327,-1.7673 3.4793,-1.9911 11.372,-0.56246 26.519,-1.104 40.163,-1.2708 19.917,-0.2385 -48.214,-4.3897 -48.214,-4.3897 -63.919,-4.5149 12.795,-8.7543 -2.4218,-11.841 -33.86,-3.6958 -85.429,4.5265 -111.12,4.348 -4.9048,-0.0341 25.942,6.6467 20.398,7.0552 -21.215,1.563 -53.93,-4.5088 -94.166,-1.0641 z m 317.63,0.68056 c 0,0 -108.02,28.149 -161.26,29.993 -5.7193,-1.3611 -6.4893,-5.4875 -14.56,-4.5751 -3.2578,0.3699 -6.116,2.2505 -8.736,3.2618 -3.4442,1.3285 -6.8705,1.256 -10.476,2.6264 -8.2087,3.1234 -15.176,8.4112 -22.729,13.006 -4.4535,2.7083 -8.7381,5.3835 -13.388,7.837 -9.5072,5.0156 -17.556,12.378 -26.17,16.31 -15.363,5.6383 -39.637,20.458 -61.152,30.628 -2.09,0.73901 -5.0186,1.5257 -6.9586,2.6267 -2.5983,1.4748 -8.333,5.6796 -8.736,9.1079 -0.40298,3.4297 3.4424,11.92 5.2189,12.031 2.2043,-7.728 4.826,-11.028 7.072,-13.09 6.0727,6.8731 9.0521,7.792 15.052,-4.1514 6.2089,-0.53077 8.197,-1.3578 10.778,-6.7781 2.6481,11.691 -13.46,1.9471 -13.463,18.809 -0.42601,1.7812 1.9959,4.5925 2.0044,5.8885 2.7023,-0.45017 4.131,-8.626 4.7651,-11.396 20.882,-0.24795 27.989,-31.02 51.244,-39.101 1.2174,-0.27789 1.5179,0.42944 2.3069,0.63547 5.0186,-5.0293 12.35,-7.4998 18.644,-11.099 4.8274,-5.1716 11.639,-8.6972 18.039,-13.683 4.4377,-3.4595 10.021,-7.2518 16.3,-11.099 5.7266,-3.511 12.053,-8.5912 20.384,-6.5238 3.9634,0.98408 6.6415,6.5117 11.043,7.2017 2.5293,0.39719 6.4548,-0.35113 8.736,-0.67786 8.3587,-1.1875 16.564,-4.7548 26.208,-5.8461 -2.2909,3.2277 -6.4594,3.4935 -9.9084,4.5751 -9.4407,2.9581 -20.659,7.6003 -31.427,10.421 -4.2598,1.1143 -9.4473,0.48323 -13.993,1.9487 -4.1388,1.3338 -8.3391,4.6514 -11.61,7.1593 -6.0013,4.6037 -11.296,12.45 -19.817,14.361 -3.0061,0.67383 -6.7374,-0.63744 -9.8706,0.63536 -5.4192,2.2044 -8.7654,8.7543 -4.0844,15.039 -2.6575,0.0621 -6.9964,1.2709 -6.9964,1.2709 l 3.0633,6.1426 c 0,0 -0.49951,10.986 -2.0422,78.71 -0.3139,13.781 -0.60988,26.34597 -1.0211,45.58197 0,0 -8.5695,0.4238 -14.56,0.4238 0,-2.686 -0.24323,-4.189 0,-7.2865 -1.681,-1.1603 0.003,-3.117 -4.2356,-6.6087 3.3552,-2.4496 4.2455,8e-4 5.408,-8.0486 -2.8875,2.631 -3.2893,8.0738 -8.1688,8.4724 2.1653,2.8224 3.544,3.0505 3.8196,6.1849 -4.5607,0 -11.445,0.3775 -16.186,0.042 -1.1158,-1.5968 -1.4616,-4.2206 -0.2647,-6.651 -3.9312,0.118 -8.4765,-0.2815 -11.951,-2.2453 -8.1004,-6.7683 -4.136,-26.89297 7.4502,-20.29197 0.34597,-13.713 19.291,-11.66 22.388,-0.8048 0.91409,-1.0797 3.8962,3.3005 4.9164,6.3122 -0.005,-3.045 -0.57639,-7.6678 -3.1768,-7.6678 0,0 10.463,-12.563 14.863,-5.6341 l 0.71856,-1.7793 c -6.2936,-9.1075 -13.486,1.7919 -15.581,4.1091 -3.6487,-2.1906 -5.7365,-5.3842 -10.476,-6.1425 -5.415,-0.86652 -14.138,1.8354 -15.165,8.5997 -2.0894,-1.0803 -4.0858,-1.4439 -5.2945,-0.76264 0,-13.042 0.308,-5.7816 0,-27.959 -2.2746,-7.3866 -7.8902,-6.6936 -9.568,0.3813 0,19.753 0.003,44.68201 0.15128,60.49401 h -8.5469 c -0.58008,-25.78301 0,-38.93001 0,-85.78401 h -12.669 c -0.003,28.432 0.46725,57.591 0,85.78401 h -5.3702 c 0.0166,6.2759 0.59015,16.466 0.0377,20.969 -2.762,-10.004 -3.8953,-13.683 -3.8953,-13.683 0,0 0.11031,-1.4285 -2.0422,-7.2865 0.12264,-28.50901 0.97247,-56.80701 -0.22688,-85.78401 h -12.291 c 0,37.945 0.0152,56.871 -0.79421,90.69801 h -12.215 c -0.98146,-0.8676 0.94878,-4.3811 -0.60506,-5.8887 -3.4599,-1.5695 -9.0767,1.108 -13.955,-0.6352 -2.5668,0.1683 -1.1418,4.8253 -2.3447,6.5239 h -9.8706 c 3.0751,-6.4733 -0.27682,-14.195 -5.2567,-15.674 -0.27274,-2.3786 -0.23399,-5.1734 -3.4793,-7.7947 4.2086,5.852 -0.3547,20.384 -5.2945,17.03 v -5.0411 h -15.165 c -0.42773,-28.39701 0.0709,-56.79301 0,-85.19101 h -16.867 v 47.107 c 0.0135,-2.1e-4 0.0241,3.3e-4 0.038,0 -0.0599,12.39 -0.038,20.219 -0.038,38.04201 -5.7432,0 -7.1331,0.016 -12.177,-0.2118 -0.35647,-15.40001 0.42714,-30.89101 -0.15132,-46.21801 1.1766,-0.74825 5.4516,1.5429 7.7149,5.7612 1.2441,-4.7758 -3.9137,-7.6725 -7.5636,-9.108 v -34.568 c -5.1089,-0.81271 -11.839,-0.88203 -16.64,-0.80477 0,37.206 0.0315,43.931 0.15124,85.14898 -3.76,-0.3498 -7.2958,0 -11.572,0 -0.14037,-32.73698 0,-60.81298 0,-85.14898 -7.6437,0 -8.8119,0 -15.014,0.16929 0.11345,28.259 -0.16493,56.507 0,84.76799 -1.4568,0.2236 -11.254,0.063 -15.203,0.4237 0,8.3595 -0.0136,13.056 -0.52951,20.588 h -24.393 l 0.0754,-27.028 h -4.9164 c -0.0738,-4.9633 -0.0754,-10.23599 -0.0754,-14.36099 -4.907,0 -9.6422,-0.15651 -16.564,-0.16939 v 14.52998 c -15.905,0 -34.204,0.7296 -52.227,0 -0.084,-11.32498 -0.0751,-22.12298 -0.0751,-34.99198 -4.4336,0 -6.399,0 -8.9252,-0.0837 -0.3641,13.532 -0.0495,21.496 0,35.07598 h -15.468 c -0.21578,-9.54198 -0.13223,-15.83698 -0.26476,-22.11398 -3.471,0 -2.4373,0.11208 -4.0844,0 -0.28522,-3.949 -0.26477,-9.4953 -0.26462,-15.123 h -10.173 c -1.53e-4,6.1077 -0.01512,11.174 -0.34036,15.123 h -11.497 c -2.009,1.9159 -1.3557,1.1388 -3.8953,3.3469 -4.7385,-7.3036 -3.5356,-5.0192 -4.6516,-7.3288 -5.4111,-0.5437 -13.784,0.19922 -20.432,0.20522 l 0.81419,221.64996 c 332.02,-0.2991 693.41,1.7668 905.17,0.4244 0,0 -0.14829,-53.556 -0.14829,-180.77 h -26.742 v -7.4135 l -3.744,-3.1771 h -17.888 c 0,2.0107 0.038,3.1771 0.038,3.1771 h -1.248 c 0,0 0.13344,-19.36396 0,-29.52696 h -2.2313 c 1.3042,-0.59325 2.105,-1.9687 2.2313,-4.321 v -2.8807 c -2.4178,-14.699 2.5986,-15.111 7.7149,-25.29 2.3163,0.3782 5.5438,4.4023 8.1687,2.6265 6.9937,-1.2921 1.5853,-12.564 3.4793,-19.572 12.264,2.5067 6.2739,-6.5792 5.1434,-10.463 7.9315,-3.0733 17.753,-4.3248 21.632,-7.1171 3.8788,-2.7924 3.5496,-7.4602 5.1811,-11.311 l -0.52936,-16.733 c 0,0 -10.086,5.2901 -11.081,19.233 -0.29472,4.1295 -4.2838,-3.3117 -8.131,0 -31.966,2.6375 -21.894,21.416 -22.124,35.542 -13.379,-9.1625 -24.749,12.231 -16.564,27.07 -7.968,0.99601 -2.8051,9.8998 0.52942,13.217 -0.23144,0.27923 -2.7986,0 -2.7986,0 0,0 -0.038,14.87296 -0.038,33.63596 l -9.6058,-0.041 c 0,0 -3.4467,-4.7886 -3.3281,-8.7267 0.17427,-5.8156 6.8796,-7.4331 10.854,-10.379 -4.4812,0 -7.0892,-0.3403 -7.5636,-4.57516 -0.53007,-4.7879 5.0359,-7.8375 6.3913,-11.099 -6.5955,1.0721 -11.846,12.072 -5.8241,17.62296 -5.0078,6.7617 -13.104,-1.2242 -11.043,-9.15036 1.3167,-5.0442 6.0446,-3.3043 8.736,-6.5238 -7.059,-1.7989 -12.594,4.8957 -11.648,11.77696 0.73941,5.4293 5.8776,6.6039 9.3412,9.2351 -2.0755,4.6741 2.8363,11.819 2.8363,11.819 h -7.2233 v -8.43 h -19.06 v -54.56296 h -12.102 c -0.0205,20.187 0.52949,54.56296 0.52949,54.56296 h -30.708 v -41.26096 h -12.896 c -0.11407,7.0874 -0.11347,41.26096 -0.11347,41.26096 l -3.8953,0.1277 -0.22687,-37.65996 h -10.551 c 0,1.1918 -0.0394,25.12896 0,37.65996 l -5.6728,-0.1693 0.0755,19.995 -20.346,0.083 -0.11348,-6.4815 -35.058,0.042 0.11346,22.918 -8.6226,-0.2543 -0.0755,-50.70796 h -9.6815 l -0.15128,50.70796 c 0,0 -6.9771,0.2543 -13.955,0.2543 -8.5363,-8.4649 -8.7096,-23.486 5.9752,-22.749 -7.1681,-4.8926 -12.252,2.6936 -14.144,7.498 -0.11181,-3.1953 -0.11346,-2.1685 -0.11346,-4.7869 -5.1179,0.029 -7.5819,0 -11.988,0 v -54.68996 h -10.287 v 54.68996 h -7.904 c 0.0435,-16.031 -0.37036,-29.49396 0,-43.97196 h -8.6603 v 43.97196 c -1.9558,0 -4.003,0.2739 -6.7695,0 -9.5e-4,-25.821 -5e-5,-53.40096 0,-54.13996 h -8.8494 c 0.005,12.285 0.12803,18.571 0,30.75596 -1.4883,-4.2345 -6.4331,-7.19946 -13.35,-8.55746 8.0562,4.06156 11.47,7.32696 13.35,11.81896 0,9.7338 0.34005,15.088 -0.15127,20.122 h -13.199 c -0.0968,-3.37 -4.6141,-7.9986 -5.5593,-10.421 -13.087,0 -26.807,0.4202 -39.218,0 0.21794,-12.956 0,-13.248 0,-28.04396 -3.5664,-0.0826 -5.1675,0 -8.8495,0 0,8.0839 0.0136,18.30996 0.0377,28.04396 -10.313,0.065 -17.691,0.017 -26.927,0.2118 -4.651,13.977 -3.886,13.799 -6.5426,22.664 -5.6212,-0.3131 -8.1842,3.1227 -8.8873,7.5829 2.5596,-15.512 -3.4542,-21.732 -14.409,-20.038 -3.1169,-45.96196 -4.7273,-124.24996 -4.7273,-124.24996 l 2.1556,-7.1594 h -10.665 c 3.4817,-6.7307 12.42,-1.436 18.039,-0.72011 3.5846,-3.7334 8.5481,-1.9037 13.388,-3.262 3.351,-0.94343 6.0228,-3.9394 9.3411,-4.5751 3.3232,-0.63584 7.0484,0.7754 10.476,0 3.1356,-0.70909 5.5968,-3.5964 8.1309,-4.5752 4.7754,-8.7775 6.898,-20.55 15.732,-24.782 0.37153,1.4192 -1.6643,2.0652 0.56728,1.9486 6.3765,-4.6213 12.618,-9.3716 20.951,-7.1592 3.5277,-0.60875 6.6805,-2.9973 10.476,-3.8975 2.2884,-0.53816 4.7164,0.34711 6.9964,-0.67774 6.2515,-4.3205 15.037,-1.4754 20.951,-7.7948 2.6176,-0.31843 4.3863,0.31417 6.4291,0.63547 27.301,-10.944 61.641,3.8345 86.15,-20.885 1.2804,-1.1769 4.0844,-3.262 4.0844,-3.262 l 28.515,-7.7947 c -0.46808,-5.8392 47.805,-37.603 -34.339,0 h -1.4e-4 l -3.4e-4,-6.6e-4 h 9e-5 z m -248.92,187.29 c 9.5e-4,1.4704 -0.12098,2.58414 -0.22695,2.58414 0.73849,-0.1583 0.69065,-1.21524 0.22695,-2.58414 z m -98.63,-156.02 c 8.159,1.7703 -4.3485,11.577 -7.6015,14.361 -7.0408,6.0257 -11.929,6.8434 -20.951,7.837 5.447,-10.202 18.329,-12.094 27.38,-18.258 -0.46229,-2.2545 0.65441,-2.7794 1.1724,-3.9398 z m 570.79,2.2452 c -4.8727,0.15316 -10.461,2.7533 -14.938,11.48 -9.5786,-5.9717 -18.55,-6.5765 -23.258,2.584 -24.599,4.2548 -9.3523,35.667 -18.569,48.929 -3.7612,6.7551 -17.472,9.7859 -17.472,9.7859 0,0 7.3184,-30.301 -11.648,-19.487 -11.664,-12.541 -20.744,0 -11.686,8.8116 -9.0633,2.0939 -15.917,0 -14.22,21.054 0.60178,7.464 -10.205,-11.281 -16.489,7.0323 -13.018,-3.2856 -8.9578,7.9946 -13.009,11.099 -14.684,2.4186 -34.236,4.1182 -21.67,24.274 1.1891,1.9073 6.9964,4.194 6.9964,4.194 h 10.551 c 0,0 3.117,-1.9713 4.1222,-3.389 v -0.33906 l 8.2444,-0.46594 c 0,0 9.2916,-5.258 10.513,-12.37 1.2682,-0.1212 1.8437,0.52933 1.7396,1.9487 4.5527,-2.5053 9.8219,-1.1708 14.825,-3.1771 2.3375,-4.6354 7.2039,-16.014 11.383,-16.31 0.5971,-0.0416 1.1801,0.13129 1.7396,0.59321 2.9946,2.4751 -6.108,5.0632 -5.408,8.4301 -0.53483,5.2619 1.4712,7.2807 2.7607,8.0489 h 7.4502 c 5.2571,-2.2945 7.1528,-9.3499 7.7149,-10.21 3.668,-15.97 15.076,-13.661 24.128,-18.682 4.8213,-4.8219 5.3973,-11.97 8.1687,-19.529 1.2465,-3.4038 3.8356,-5.9442 5.2189,-9.1503 2.0234,-4.681 4.6286,-1.8758 9.6815,-10.125 1.5684,-5.2013 0.78813,-9.019 1.3993,-15.293 0.67161,-0.54507 7.904,1.6522 7.904,1.6522 0,0 -5.3673,-18.338 16.829,-7.1594 3.8326,-1.4491 5.4658,-10.069 9.6058,-10.802 2.5353,-0.4473 8.736,1.9487 8.736,1.9487 v -11.735 c 0,0 -5.0806,-3.8406 -11.346,-3.6431 z m -395.31,23.13 c 0.46641,0 0.95906,0.0369 1.4749,0.0841 -2.8551,4.0088 -17.452,16.273 -16.867,6.5237 6.6371,-0.51455 8.3952,-6.4984 15.392,-6.6085 v 6.6e-4 z m -205.2,19.656 c 3.7334,1.7448 8.0456,6.7217 7.6015,10.421 -0.80842,6.717 -9.4464,4.0492 -16.905,4.5751 0.14397,-2.6651 3.0264,-2.2575 4.6516,-3.2618 1.6495,-2.4999 3.3616,-4.9349 4.6517,-7.8373 v -3.8973 z m 352.24,46.302 c 1.6846,11.483 -10.929,12.548 -19.249,14.996 1.6592,-4.8829 3.164,-10.618 6.4291,-13.048 3.2651,-2.4293 8.5581,-1.2912 12.82,-1.9487 z m -454.27,14.403 c -12.427,1.2036 -18.119,9.9955 -20.8,22.113 -10.791,-2.337 -15.641,6.5083 -20.951,12.37 0.44775,3.3795 1.1561,3.6144 0,9.1502 2.1032,-1.3962 3.5707,-6.6641 2.3825,-8.6419 6.9173,-11.218 8.5734,-12.111 15.808,-6.5237 0.24377,-2.3807 1.2529,-4.666 1.248,-3.3044 -0.007,2.4521 -0.74987,14.898 6.2023,12.582 -4.2377,-5.4433 -3.62,-12.638 -1.1724,-17.623 2.22,-2.7468 3.5848,-4.4353 3.4793,-8.4726 0.92576,-1.4505 6.9964,-4.5751 6.9964,-4.5751 0,0 -2.1191,-0.86923 -0.60508,-2.5842 1.7957,-1.1186 5.3544,-2.7484 7.4123,-2.4994 v -1.991 z m 55.555,26.434 c -2.2959,1.7274 -5.1836,2.9869 -6.6938,5.8036 3.5803,-1.5041 4.3178,-2.7578 6.5426,-3.5161 l 0.15121,-2.2876 z m 17.623,0.97436 v 2.4146 c 11.353,2.3733 16.705,12.345 16.64,27.49298 4.2308,-4.3569 1.559,-16.17998 -1.1724,-20.88498 -3.308,-5.6988 -10.279,-6.9299 -15.468,-9.0232 z m 598.13,4.4481 c -2.2889,8.7e-4 -4.7,0.66373 -6.9586,2.0333 v 1.3556 c 12.349,-4.8972 18.557,0.88759 16.337,14.869 5.6016,-10.303 -1.2043,-18.262 -9.3789,-18.258 z m -178.05,7.5829 c -0.77499,0.026 -1.5529,0.1156 -2.3447,0.2541 -4.0577,0.70896 -6.3368,4.9575 -10.476,4.5751 0.19241,1.5225 0.71008,2.6829 1.1723,3.8973 3.5894,-0.32375 5.7919,-2.2096 8.1688,-3.8973 5.0924,2.3616 12.085,-0.87554 15.127,4.5752 1.975,3.52858 2.4061,11.84898 -1.1724,14.31798 2.5595,3.3146 6.7658,1.4219 8.1309,5.8886 0.86882,2.8502 -0.0722,7.2238 -0.416,8.6421 h 1.5127 c 1.3589,-2.8388 6.1407,-14.252 -4.576,-15.166 5.8168,-11.55698 -3.5023,-23.46998 -15.127,-23.08798 z m -226.19,9.4892 -0.30255,2.1604 c 5.1806,4.76528 6.6244,13.12798 4.1222,19.90998 10.248,-9.765 15.249,-3.7009 19.06,7.4982 0,-11.199 -2.8945,-17.433 -15.279,-13.641 0.18962,-6.8256 -4.3609,-12.39 -7.6015,-15.92798 z m -170.26,16.85998 c 4.1945,1.841 5.0356,7.0667 4.0844,13.048 -3.8144,0.3084 -8.6142,0.2965 -12.858,0.2965 v -3.2618 c 0,0 2.837,-0.2216 4.1222,-1.6097 2.5547,-1.7 3.7622,-4.9006 4.6516,-8.4726 z m 99.462,1.5252 c 3.9228,2.0065 6.2966,1.8101 9.5302,1.2285 -1.3023,1.6812 -0.70192,3.5759 -0.60508,5.4224 -2.5232,0 -6.4019,-0.042 -8.9251,-0.042 v -6.6089 z m -235.5,5.7287 v 3.0924 c 2.8645,1.9369 11.164,6.0706 18.419,0.075 -6.4299,1.7 -12.432,2.9514 -18.419,-3.1675 z m 683.87,3.6333 c 3.0042,-0.016 6.025,0 9.0386,0.042 v 4.6599 l -18.077,0.083 v -4.7022 c 3.0395,-0.031 6.0344,-0.066 9.0386,-0.083 v 3e-4 z m -199.83,18.216 c 1.5392,3.1926 3.1034,4.6247 4.5004,6.3542 H 695.92 c 0,-1.8837 -0.0587,-4.7044 0,-6.3542 z" />
      <path
         id="path9"
         d="m 832.71,860.6 c -0.24949,0.73998 -0.72272,1.2384 -1.6996,1.2047 -0.26366,-1.2838 0.80974,-1.1497 1.6996,-1.2047 z" />
      <path
         id="path17"
         d="m 284.82,962.72 c 6.3398,0.13373 9.1013,3.7014 7.152,11.147 -1.0047,-6.0208 -3.487,-7.9928 -7.152,-11.147 z" />
      <path
         id="path19"
         d="m 225.72,993.14 c -2.2705,1.4026 -3.8442,3.5442 -3.9643,7.2314 -4.3538,-1.6783 0.44965,-10.089 3.9643,-7.2314 z" />
      <path
         id="path23"
         d="m 932.36,1005.2 c 1.7291,0.088 1.8077,0.8981 2.9871,1.2461 13.605,-10.669 34.1,8.8572 19.405,21.7 8.4574,-16.419 -7.2815,-27.758 -18.575,-20.745 1.502,1.7666 2.8181,6.1238 -2.6867,11.653 4.0469,-5.7974 3.0326,-10.182 -1.13,-13.854 z" />
      <path
         id="path25"
         d="m 720.41,1012.9 c -8.4929,1.5277 -12.323,0.7516 -10.005,16.397 -12.155,-12.129 0.15143,-19.109 10.005,-16.397 z" />
      <path
         id="path29"
         d="m 479.59,1049.3 c -2.4596,3.1 -5.295,11.777 -3.8491,14.081 -3.6316,-6.6166 -0.98131,-10.278 3.8491,-14.081 z" />
      <path
         id="path31"
         d="m 173.63,1069.1 c 0.26486,1.8774 -1.4242,2.1528 -2.2646,1.2036 0.13768,-1.0571 0.97574,-1.3714 2.2646,-1.2036 z" />
      <path
         id="path33"
         d="m 177.03,1069.7 h 1.6985 c -0.0485,0.8554 -0.093,1.7083 0.56614,1.811 -0.0825,1.3136 -1.4243,1.2911 -2.832,1.2011 -0.46611,-1.6983 0.79801,-1.5593 0.56737,-3.0121 z" />
      <path
         id="path35"
         d="m 613.48,1012.2 c -2.6494,3.0574 -3.9411,4.3315 -5.5611,11.026 -1.275,-0.1013 -1.6125,-0.4401 -1.8552,-0.9392 2.5116,-19.458 18.566,-19.413 28.066,-20.687 -5.1569,1.4625 -7.6758,1.7008 -7.85,3.121 0.5897,0.3382 5.098,3.461 5.4046,7.4955 -6.2604,-11.037 -12.764,-4.4622 -17.517,-1.2392 3.022,1.7658 7.6652,2.7023 3.4709,10.047 0.49435,-3.811 1.1466,-6.2371 -4.158,-8.8242 z" />
      <path
         id="path3130"
         d="M 505.35,920.19 Z"
         fill-rule="evenodd" />
    </g>
  </g>
  <metadata
     id="metadata11721">
    <rdf:RDF>
      <cc:Work>
        <dc:format>image/svg+xml</dc:format>
        <dc:type
           rdf:resource="http://purl.org/dc/dcmitype/StillImage" />
        <cc:license
           rdf:resource="http://creativecommons.org/publicdomain/zero/1.0/" />
        <dc:publisher>
          <cc:Agent
             rdf:about="http://openclipart.org/">
            <dc:title>Openclipart</dc:title>
          </cc:Agent>
        </dc:publisher>
        <dc:date>2012-05-08T17:08:05</dc:date>
        <dc:description>clip art, clipart, ecology, green power, pollution, </dc:description>
        <dc:source>http://openclipart.org/detail/169939/green-power-against-pollution-by-cybergedeon</dc:source>
        <dc:creator>
          <cc:Agent>
            <dc:title>dominiquechappard</dc:title>
          </cc:Agent>
        </dc:creator>
        <dc:subject>
          <rdf:Bag>
            <rdf:li>clip art</rdf:li>
            <rdf:li>clipart</rdf:li>
            <rdf:li>ecology</rdf:li>
            <rdf:li>green power</rdf:li>
            <rdf:li>pollution</rdf:li>
          </rdf:Bag>
        </dc:subject>
      </cc:Work>
      <cc:License
         rdf:about="http://creativecommons.org/publicdomain/zero/1.0/">
        <cc:permits
           rdf:resource="http://creativecommons.org/ns#Reproduction" />
        <cc:permits
           rdf:resource="http://creativecommons.org/ns#Distribution" />
        <cc:permits
           rdf:resource="http://creativecommons.org/ns#DerivativeWorks" />
      </cc:License>
    </rdf:RDF>
  </metadata>
</svg>
