<?xml version="1.0" encoding="UTF-8" standalone="no"?>
<svg
   width="256"
   height="256"
   viewBox="0 0 192 192"
   version="1.1"
   id="svg13"
   xmlns="http://www.w3.org/2000/svg"
   xmlns:svg="http://www.w3.org/2000/svg">
  <defs
     id="defs13" />
  <g
     id="g15"
     transform="matrix(0.3554507,0,0,0.31206043,-56.71367,-50.270274)">
    <path
       fill="#dddddd"
       stroke="#dddddd"
       stroke-width="0.354576"
       opacity="1"
       d="m 300.35487,205.00732 c 123.15208,-19.90356 151.41998,5.76068 212.092,45.00305 l 133.75287,34.89926 c -17.42924,9.355 -40.08396,11.5507 -55.54962,13.09257 -42.00948,4.18818 -58.78365,5.2925 -92.51008,6.65234 -41.91979,1.69019 -58.55275,-1.15955 -67.56448,18.14431 -5.79702,12.41772 66.90965,76.61227 59.42666,106.02317 -27.3341,107.4331 -57.89473,297.97873 -85.24696,342.5584 -23.90004,-4.93171 -44.45501,-16.06602 -69.31984,-30.79824 -20.38524,-12.05625 -17.76574,-18.44408 -5.51152,-53.78278 3.70837,-10.6942 12.57042,-20.26355 8.73424,-39.91436 -6.88525,-35.26967 -22.08353,-81.37568 -35.64613,-125.1758 -7.34692,-23.72676 -15.51098,-46.28841 -21.76979,-64.88417 -5.94366,-17.65942 -6.65841,-26.21242 -3.95402,-34.32008 3.8167,-11.44234 22.66717,-37.04176 37.95399,-60.10402 11.65723,-17.58653 16.6942,-35.73229 16.63485,-36.00271 -0.65933,-3.00396 -24.84409,-67.89515 -31.52217,-121.39094 z"
       id="path9-7"
       style="fill:#999999" />
    <path
       fill="#010101"
       stroke="#010101"
       stroke-width="0.09375"
       opacity="1"
       d="m 313.50661,212.13364 c 67.0065,-12.21084 146.45134,16.07643 189.46996,48.44954 11.1,3.3 15.82343,3.21682 27.22343,5.41682 18.8,4.8 38.2,6.7 57,11.3 14.5,2.3 28.9,5.1 42.9,9.1 -38,2 -76,4 -114,5.2 -16,2.2 -32.1,1.4 -48.1,2.7 -6.5,0.4 -13.3,0 -18.9,3.7 -11.6,6.8 -25,10.8 -35,20.2 -1.1,1.3 -1.6,3.1 -2.2,4.7 13.2,21 28.7,40.5 40.9,62.1 5.5,9.5 12.5,18 17.4,27.8 2.1,3.8 5.2,7.5 4.3,12.1 -1.6,19.5 -6.4,38.6 -10.2,57.8 -7.2,25.8 -13.3011,52.39069 -19.6011,78.49069 -0.9193,3.08768 -1.27976,3.32259 -4,9.7 0.7,-10.2 -28.41645,-27.05069 -26.21645,-36.95069 4.3,-19.7 10.99288,-33.20739 15.89288,-52.80739 1.6,-12.3 10.28247,-14.95534 4.38247,-27.15534 -4.3,-9.2 11.94877,-26.83672 7.04877,-35.83672 -5,-11.5 -1.37041,-11.11589 -4.07041,-23.51589 0.4,13.7 -1.83616,12.97534 -5.23616,26.07534 -5.8,16.7 -10.5,33.7 -15.1,50.8 -3.2,16.6 4.1,32.4 9.5,47.7 5.5,17 20.78956,31.59852 15.36014,49.56931 C 441.06457,574.03786 440.8,581 439.6,585.9 c -2.7,12.7 -7,25 -9,38 -10.7,42.4 -19.4,85.3 -30.9,127.5 -0.8,-20.9 -1.7,-41.9 -5.5,-62.5 -15.91075,-79.54173 -26.77045,-160.91433 -57.8,-236.1 -5.7,-17.3 -15.4,-33.1 -19.2,-51 -0.5,-0.1 -1.3,-0.4 -1.8,-0.5 -3,8.9 1.02028,18.87425 -4.57972,26.17425 C 316.12905,438.5737 299.8,431.8 300.6,435 c 32.59394,108.87762 31.23959,88.67402 38.44165,118.20246 32.49016,98.8679 -4.88094,26.34937 59.45835,201.19754 0.2,2.2 0.2,4.4 0.2,6.6 -23.01653,-15.15012 -68.04179,-36.42633 -68.6,-36.6 4.3,-23.6 13.2,-46 19.6,-69.1 -10.5492,-53.10209 -28.75937,-104.07158 -42.19946,-153.45863 -3.3,-12 -15.72493,-45.55206 -19.92493,-57.15206 -6.62487,-28.53789 17.37217,-47.24967 23.94768,-57.30493 C 326.86923,370.35805 333.72083,348.12893 344,328 c 2.76168,-16.38864 -16.42179,-28.50667 5.85265,-38.67954 15.15524,11.0943 21.33623,41.73119 22.44735,58.07954 8.64448,24.08106 18.70054,51.39751 29.99775,73.01428 15.85943,-44.26686 5.65545,-9.73785 22.66397,-56.20302 -5.8,-6.2 -16.84406,-15.91013 -19.94406,-23.61013 -1.9,-7.1 -0.83695,-15.39106 -3.03695,-22.49106 -1.9,-6 1.71929,-9.31007 1.81929,-15.81007 0.1,-7.9 -60.19031,5.19036 -54.79031,-0.20964 3,-2.7 72.29031,-22.99036 75.89031,-24.49036 -0.1,-1.2 -0.32384,-2.11397 -0.52384,-3.21397 1.1,-0.5 0.84137,-1.35288 1.94137,-1.85288 4.9,-1.7 11.58247,-1.53315 16.78247,-2.13315 17.4,-1.8 34.8,-3.8 52,-7 -12.6,-8.6 -26,-16 -39.5,-23 -7.2,-3.4 -15,-4.9 -22.7,-6.5 -36.9,-6.1 -74.1,-9.9 -111,-16.5 6.9,12.1 11.4,25.5 17.9,37.7 6.9,12.6 11.4,26.4 19.1,38.5 8.8,-4.8 17.4,-9.8 26.2,-14.4 9.5,-5.2 20.5,-5.5 30.7,-8.1 l 13.86138,0.93425 c 0.1,0.5 -3.11702,10.64396 -3.01702,11.24396 -22.8,-0.4 -66.19866,17.86707 -85.69866,27.56707 -9.6097,-32.22402 -19.23184,-67.34831 -27.43909,-98.71164 z"
       id="path6" />
    <path
       fill="#fd0000"
       stroke="#fd0000"
       stroke-width="0.09375"
       opacity="1"
       d="m 321.9,217.4 c 36.9,6.6 74.1,10.4 111,16.5 7.7,1.6 15.5,3.1 22.7,6.5 13.5,7 26.9,14.4 39.5,23 -17.2,3.2 -34.6,5.2 -52,7 -5.2,0.6 -10.5,0.6 -15.4,2.3 -3.2,0.5 -16.91083,-1.24863 -17.81083,-6.84863 l 1.6442,-0.24797 c 7.1,-4.7 27.86663,-11.4034 21.76663,-17.9034 -4.7,-7 -9.44595,-4.34039 -16.84595,-2.44039 0.4,9.4 -5.15405,17.14039 -0.65405,25.84039 -10.2,2.6 -21.2,2.9 -30.7,8.1 -8.8,4.6 -17.4,9.6 -26.2,14.4 -7.7,-12.1 -12.2,-25.9 -19.1,-38.5 -6.5,-12.2 -11,-25.6 -17.9,-37.7 z"
       id="path7" />
    <path
       fill="#dddddd"
       stroke="#dddddd"
       stroke-width="0.09375"
       opacity="1"
       d="m 358.25511,303.64849 c 19.38358,-10.31559 34.46786,-13.74127 54.30612,-22.15714 -6.42398,2.67666 -8.23514,32.6422 -8.35673,42.24736 -0.0319,2.07494 5.93046,19.93659 24.1955,39.46129 -7.20614,14.05715 -25.21977,64.75866 -26.28137,66.70493 -7.2598,-16.87631 -42.87985,-116.48292 -43.86352,-126.25644 z"
       id="path9" />
    <path
       fill="#dddddd"
       stroke="#dddddd"
       stroke-width="0.09375"
       opacity="1"
       d="m 359.90054,357.9463 c 13.42356,36.83174 23.83416,66.02007 32.98604,85.54412 -7.94048,19.14964 -8.50158,37.33774 -17.99397,64.70712 C 360.08006,462.27904 348.90222,435.28918 328.3,382.1 c 9.25435,-24.27702 13.3418,-13.62999 31.60054,-24.1537 z"
       id="path10" />
    <path
       fill="#fd0000"
       stroke="#fd0000"
       stroke-width="0.09375"
       opacity="1"
       d="M 456.44397,411.47756 C 450.85079,466.05109 423.83359,520.90952 415.81968,567.49107 394.55184,539.1043 394.74047,539.12009 379.26271,517.80539 393.4298,480.98546 413.55572,416.21522 433.2168,368.78903 Z"
       id="path11" />
    <path
       fill="#dddddd"
       stroke="#dddddd"
       stroke-width="0.09375"
       opacity="1"
       d="m 315.4,401.3 c 0.5,0.1 1.3,0.4 1.8,0.5 49.4499,104.26457 77.68696,226.77732 82.5,349.6 l -1.2,3 c -2.3,-6.5 -4.8,-12.9 -7.9,-19.1 -5.5,-13.2 -8.6,-27.3 -13.5,-40.7 -7,-17.4 -10.8,-35.8 -16.2,-53.7 -9.7,-28.2 -15.8,-57.3 -25.1,-85.6 -6,-24.6 -13.9,-48.8 -21.2,-73.1 -3.7,-16 -9.3,-31.5 -14,-47.2 -0.8,-3.2 -2.3,-7.2 0.4,-10.1 5.6,-7.3 11.4,-14.7 14.4,-23.6 z"
       id="path12" />
    <ellipse
       style="fill:#000000;stroke-width:0.514192"
       id="path14"
       cx="424.16797"
       cy="254.46915"
       rx="14.576579"
       ry="14.968773" />
  </g>
</svg>
