<?xml version="1.0" standalone="no"?>
<!DOCTYPE svg PUBLIC "-//W3C//DTD SVG 20010904//EN"
 "http://www.w3.org/TR/2001/REC-SVG-20010904/DTD/svg10.dtd">
<svg version="1.0" xmlns="http://www.w3.org/2000/svg"
 width="500.000000pt" height="500.000000pt" viewBox="0 0 500.000000 500.000000"
 preserveAspectRatio="xMidYMid meet">

<g transform="translate(0.000000,500.000000) scale(0.100000,-0.100000)"
fill="#000000" stroke="none">
<path d="M1296 3854 c-9 -8 -16 -16 -17 -17 0 -1 -4 -48 -8 -104 -8 -114 -23
-143 -72 -143 -43 0 -75 16 -138 69 -105 86 -171 77 -222 -32 -39 -84 -63
-206 -55 -276 24 -200 170 -565 357 -889 140 -242 364 -563 528 -757 89 -105
383 -395 526 -520 425 -371 766 -525 1163 -525 506 0 830 188 924 537 24 92
29 293 10 409 -30 179 -112 385 -205 510 -173 233 -409 383 -726 459 -266 64
-486 162 -720 319 -250 168 -411 322 -634 609 -71 93 -173 213 -225 268 l-94
99 -188 0 c-158 0 -191 -3 -204 -16z"/>
</g>
</svg>
