<?xml version="1.0" encoding="UTF-8"?><svg id="a" xmlns="http://www.w3.org/2000/svg" xmlns:xlink="http://www.w3.org/1999/xlink" viewBox="0 0 256 256"><defs><style>.g{fill:url(#c);}.g,.h,.i,.j,.k,.l,.m,.n{stroke-width:0px;}.h{fill:url(#e);}.i{fill:#d0bece;}.j{fill:#fffef7;}.k{fill:url(#b);}.l{fill:#655493;}.m{fill:url(#d);}.n{fill:url(#f);}</style><linearGradient id="b" x1="-832.47" y1="-1331.03" x2="-832.17" y2="-1331.03" gradientTransform="translate(558252.18 -875868.76) rotate(.48) scale(661.65 -661.65)" gradientUnits="userSpaceOnUse"><stop offset="0" stop-color="#685592"/><stop offset=".06" stop-color="#685592"/><stop offset="1" stop-color="#a65e88"/></linearGradient><linearGradient id="c" x1="-832.47" y1="-1331.03" x2="-832.17" y2="-1331.03" gradientTransform="translate(558252.19 -875870.26) rotate(.48) scale(661.65 -661.65)" gradientUnits="userSpaceOnUse"><stop offset="0" stop-color="#685592"/><stop offset=".06" stop-color="#685592"/><stop offset="1" stop-color="#a65e88"/></linearGradient><linearGradient id="d" x1="-832.47" y1="-1331.03" x2="-832.17" y2="-1331.03" gradientTransform="translate(558252.2 -875871.13) rotate(.48) scale(661.65 -661.65)" gradientUnits="userSpaceOnUse"><stop offset="0" stop-color="#685592"/><stop offset=".06" stop-color="#685592"/><stop offset="1" stop-color="#a65e88"/></linearGradient><linearGradient id="e" x1="-832.47" y1="-1331.03" x2="-832.17" y2="-1331.03" gradientTransform="translate(558252.16 -875866.26) rotate(.48) scale(661.65 -661.65)" gradientUnits="userSpaceOnUse"><stop offset="0" stop-color="#685592"/><stop offset=".06" stop-color="#685592"/><stop offset="1" stop-color="#a65e88"/></linearGradient><linearGradient id="f" x1="-832.47" y1="-1331.02" x2="-832.17" y2="-1331.02" gradientTransform="translate(558252.15 -875864.88) rotate(.48) scale(661.65 -661.65)" gradientUnits="userSpaceOnUse"><stop offset="0" stop-color="#685592"/><stop offset=".06" stop-color="#685592"/><stop offset="1" stop-color="#a65e88"/></linearGradient></defs><ellipse class="l" cx="127.92" cy="127.66" rx="125.75" ry="125.76"/><path class="j" d="m215.39,215.14c-22.39,22.39-53.31,36.24-87.47,36.24s-65.08-13.85-87.47-36.24C18.06,192.75,4.22,161.83,4.22,127.66S18.07,62.57,40.45,40.18C62.84,17.79,93.76,3.95,127.92,3.95s65.08,13.85,87.47,36.24c22.39,22.39,36.23,53.31,36.23,87.48,0,34.17-13.85,65.09-36.23,87.48Z"/><path class="i" d="m123.6,48.84l.1-1.62c-2.17-.14-4.14-.21-5.92-.21-3.46,0-6.24.26-8.51.79-1.7.4-3.13.97-4.31,1.72-.89.57-1.63,1.25-2.23,2.01-.45.58-.8,1.2-1.09,1.85-.43.98-.68,2.02-.84,3.11s-.21,2.22-.21,3.41c0,8.13.05,65.77.05,65.77v1.53s1.53.08,1.53.08c.02,0,2.85.16,7.6.16,3.17,0,7.2-.07,11.83-.3h.03s.03,0,.03,0c4.6-.4,9.1-1.26,13.32-2.74,3.16-1.11,6.17-2.58,8.91-4.48,4.12-2.85,7.66-6.68,10.27-11.65,2.62-4.97,4.31-11.07,4.85-18.46v-.02s0-.02,0-.02c.05-1.1.08-2.18.08-3.24,0-6.46-.99-12.1-2.81-16.94-1.36-3.63-3.19-6.81-5.39-9.54-3.3-4.1-7.44-7.17-12.09-9.27-4.65-2.11-9.79-3.26-15.15-3.55l-.09,1.62.1-1.62-.1,1.62-.09,1.62c4.45.24,8.7,1.11,12.55,2.65,2.89,1.15,5.57,2.68,7.95,4.6,3.58,2.88,6.52,6.63,8.6,11.39,2.07,4.76,3.26,10.53,3.26,17.43,0,1-.03,2.03-.08,3.08l1.62.08-1.62-.12c-.46,6.25-1.77,11.41-3.72,15.64-1.47,3.18-3.29,5.84-5.41,8.09-3.17,3.37-7.01,5.79-11.3,7.5-4.29,1.71-9.04,2.68-13.97,3.11l.14,1.62-.08-1.62c-4.57.23-8.54.3-11.67.3-2.34,0-4.2-.04-5.48-.08-.64-.02-1.13-.04-1.46-.05-.16,0-.29-.01-.37-.02-.04,0-.07,0-.09,0h-.03s-.09,1.62-.09,1.62h1.62s0-3.6,0-9.13c-.01-16.59-.04-50.54-.04-56.63,0-1.72.13-3.19.46-4.35.25-.87.61-1.57,1.11-2.18.38-.45.86-.86,1.49-1.24.95-.56,2.26-1.04,4.04-1.37,1.78-.33,4.03-.51,6.82-.51,1.7,0,3.6.07,5.71.2h.02l.09-1.62Z"/><path class="i" d="m137.82,152.13l-1.4.82c8.41,14.44,16.89,28.37,26.47,40.28,2.43,3.02,5.01,5.68,7.93,7.97,4.38,3.44,9.51,6,15.92,7.7,6.41,1.7,14.08,2.56,23.66,2.63h1.48s1.01-9.89,1.01-9.89l-1.35-.35-.03.13.03-.13h0l-.03.13.03-.13c-.06-.02-2.15-.57-5.08-1.96-2.93-1.38-6.67-3.59-10.06-6.88-2.6-2.53-5.93-6.29-9.46-10.63-3.53-4.34-7.26-9.26-10.7-14.13-3.45-4.87-6.62-9.71-8.93-13.32-1.15-1.81-2.09-3.31-2.74-4.36-.32-.53-.58-.94-.75-1.22-.09-.14-.15-.25-.19-.32-.04-.07-.06-.11-.06-.11h0s-13.8-22.22-13.8-22.22l-1.38.86.6,1.51c.11-.04,8.88-3.58,19.61-12.27l.02-.02.02-.02c4.58-4.01,8.39-8.98,10.73-14.72,2.79-6.83,4.12-13.55,4.12-19.92,0-10.26-3.45-19.58-9.65-26.86-6.19-7.29-15.1-12.53-25.93-14.76-6.5-1.34-13.28-2.07-20.03-2.27h-.02s-.02,0-.02,0c-21.76,0-71.42.07-71.42.07h-1.59s-.2,10.5-.2,10.5l1.54.11h.02c.19.01,1.95.14,4.35.43,2.39.28,5.43.71,8.13,1.32,1.33.3,2.49.71,3.48,1.2,1.49.74,2.61,1.68,3.45,2.78.83,1.11,1.38,2.41,1.64,3.96.39,2.28.66,4.72.82,6.58.08.93.14,1.72.17,2.27.02.28.03.49.04.64,0,.07,0,.13,0,.17v.04s0,.01,0,.01l1.62-.08-1.62.02c.09,7.73.11,24.77.11,40.4,0,9.48,0,18.45,0,24.51v2.3c0,1.94-.01,12.51-.05,23.37-.02,5.43-.04,10.94-.06,15.48-.03,4.54-.06,8.12-.09,9.66l1.62.04-1.62-.11c-.03.43-.05.9-.07,1.42-.04.91-.1,1.95-.25,3.04-.23,1.63-.67,3.35-1.51,4.8-.42.73-.94,1.4-1.59,1.98-.65.59-1.44,1.1-2.43,1.51-1.38.57-3.09,1.05-4.85,1.42-2.64.57-5.41.91-7.51,1.11-1.05.1-1.93.16-2.55.2-.31.02-.55.03-.71.04-.08,0-.14,0-.19,0h-.05s-.01,0-.01,0l-1.53.06-.18,10.59,72.68.18.04-10.67-1.53-.09h-.01c-.27-.02-5.39-.36-11.6-1.52h-.02s-.02,0-.02,0c-1.9-.31-3.45-.81-4.71-1.49-.94-.51-1.73-1.13-2.4-1.87-1-1.11-1.76-2.52-2.3-4.38-.53-1.85-.83-4.13-.87-6.86-.05-2.84-.08-8-.1-13.9-.02-5.9-.02-12.56-.02-18.44,0-4.45,0-8.45,0-11.33,0-1.44,0-2.61,0-3.41s0-1.25,0-1.25h-1.62s0,1.62,0,1.62h11.42c2.8,0,5.78.11,8.42.82,1.32.35,2.56.86,3.67,1.55,1.11.7,2.1,1.59,2.96,2.77,1.93,2.67,3.85,5.6,5.29,7.85.72,1.13,1.32,2.09,1.74,2.77.21.34.37.61.48.79.06.09.1.16.13.21s.04.07.04.07l1.4-.83-1.4.82,1.4-.82,1.39-.84s-.97-1.62-2.44-3.91c-1.46-2.29-3.41-5.26-5.4-8.01-1.1-1.53-2.43-2.72-3.86-3.62-2.16-1.35-4.55-2.06-6.92-2.44-2.37-.38-4.74-.43-6.9-.43h-13.04v1.62s-.02,7.11-.02,16c0,5.88,0,12.54.02,18.45.02,5.91.05,11.06.1,13.95.05,2.6.3,4.9.8,6.95.38,1.53.9,2.91,1.59,4.15,1.04,1.85,2.48,3.36,4.27,4.45,1.79,1.1,3.91,1.8,6.35,2.19l.26-1.6-.3,1.6c6.62,1.23,11.97,1.56,12.01,1.57l.1-1.62h-1.62s-.02,5.89-.02,5.89l-66.14-.16.1-5.77-1.62-.03.06,1.62s2.65-.1,6.06-.53c1.71-.21,3.61-.5,5.5-.91,1.89-.4,3.75-.92,5.4-1.59,2.01-.83,3.56-2.07,4.67-3.49.84-1.07,1.44-2.23,1.87-3.39.65-1.74.94-3.49,1.09-5.02.08-.76.12-1.47.14-2.09.03-.62.05-1.15.08-1.55v-.04s0-.04,0-.04c.04-1.6.07-5.17.1-9.72.08-13.63.11-35.95.11-38.87v-2.3c0-6.06,0-15.03,0-24.51,0-15.64-.02-32.67-.11-40.44v-.06s-.07-1.34-.23-3.25c-.17-1.92-.43-4.43-.85-6.85-.23-1.32-.63-2.57-1.22-3.72-.88-1.72-2.19-3.19-3.85-4.34-1.66-1.15-3.67-1.98-5.99-2.5-2.97-.67-6.2-1.12-8.7-1.41-2.5-.29-4.26-.41-4.28-.41l-.11,1.62,1.62.03.14-7.36-1.62-.03v1.62s.78,0,2.18,0c9.8-.01,50.21-.07,69.24-.07v-1.63l-.05,1.62c6.58.19,13.19.9,19.47,2.2,10.19,2.1,18.42,6.99,24.11,13.68,5.69,6.7,8.87,15.23,8.87,24.76,0,5.91-1.23,12.22-3.88,18.69-2.12,5.2-5.61,9.77-9.87,13.5l1.07,1.22-1.02-1.26c-5.19,4.21-9.91,7.17-13.32,9.07-1.71.95-3.08,1.63-4.03,2.08-.47.22-.84.38-1.08.49-.12.05-.21.09-.27.12-.03.01-.05.02-.06.03h-.01s0,0,0,0l.23.57-.23-.57h0l.23.57-.23-.57-1.79.72,14.82,23.85,1.38-.86-1.39.84s5.83,9.66,12.8,19.52c3.49,4.93,7.25,9.9,10.83,14.3,3.58,4.4,6.96,8.23,9.72,10.91,3.78,3.67,7.9,6.06,11.08,7.55,3.18,1.49,5.43,2.08,5.5,2.1l.41-1.57-1.61-.16-.72,7.04,1.61.16v-1.62c-6.25-.05-11.64-.44-16.32-1.17-7.02-1.1-12.46-2.96-16.99-5.58-4.54-2.63-8.21-6.03-11.68-10.34-9.39-11.67-17.81-25.47-26.19-39.87h0s0-.02,0-.02l-1.4.84Z"/><polygon class="k" points="158.31 115.35 158.31 107.99 127.68 107.89 127.68 154.22 134.93 154.22 134.93 134.97 156.09 134.97 156.09 127.93 134.93 127.93 134.93 115.35 158.31 115.35"/><polygon class="g" points="210.35 115.35 210.35 107.99 179.72 107.89 179.72 154.22 186.97 154.22 186.97 134.97 208.13 134.97 208.13 127.93 186.97 127.93 186.97 115.35 210.35 115.35"/><rect class="m" x="231.43" y="107.88" width="7.76" height="46.57"/><path class="h" d="m101.51,154.51h8.34l-23.45-46.55-23.23,46.6h9.27l4.73-10.11h19.13l5.23,10.06Zm-21.23-16.76l5.93-12.68,6.59,12.68h-12.52Z"/><path class="n" d="m36.73,144.6c6.82-4.33,8.79-13.56,5.63-20.45-3.15-6.9-10.92-8.98-13.99-8.98h-15.92v-7.21h16.04c3.97.05,6.94.4,12.59,3.97s9.77,10.72,10.04,17.74c.27,7.02-1.39,11.13-5.29,16.38-3.91,5.25-11.99,8.45-16.72,8.45H12.49v-7.31h14.79c2.97,0,6.35-.52,9.45-2.57Z"/></svg>