<svg xmlns="http://www.w3.org/2000/svg" xmlns:xlink="http://www.w3.org/1999/xlink" width="256" zoomAndPan="magnify" viewBox="0 0 192 191.999996" height="256" preserveAspectRatio="xMidYMid meet" version="1.0"><defs><linearGradient x1="0" gradientTransform="matrix(0.75, 0, 0, 0.75, 0.000002, 0)" y1="128" x2="255.999989" gradientUnits="userSpaceOnUse" y2="128" id="d37afc91b6"><stop stop-opacity="1" stop-color="rgb(0%, 0%, 0%)" offset="0"/><stop stop-opacity="1" stop-color="rgb(0.0808716%, 0.0778198%, 0.312805%)" offset="0.00390625"/><stop stop-opacity="1" stop-color="rgb(0.161743%, 0.15564%, 0.627136%)" offset="0.0078125"/><stop stop-opacity="1" stop-color="rgb(0.242615%, 0.233459%, 0.941467%)" offset="0.0117188"/><stop stop-opacity="1" stop-color="rgb(0.323486%, 0.311279%, 1.255798%)" offset="0.015625"/><stop stop-opacity="1" stop-color="rgb(0.404358%, 0.389099%, 1.568604%)" offset="0.0195312"/><stop stop-opacity="1" stop-color="rgb(0.486755%, 0.468445%, 1.882935%)" offset="0.0234375"/><stop stop-opacity="1" stop-color="rgb(0.567627%, 0.546265%, 2.197266%)" offset="0.0273438"/><stop stop-opacity="1" stop-color="rgb(0.648499%, 0.624084%, 2.511597%)" offset="0.03125"/><stop stop-opacity="1" stop-color="rgb(0.72937%, 0.701904%, 2.825928%)" offset="0.0351562"/><stop stop-opacity="1" stop-color="rgb(0.811768%, 0.779724%, 3.140259%)" offset="0.0390625"/><stop stop-opacity="1" stop-color="rgb(0.892639%, 0.857544%, 3.453064%)" offset="0.0429688"/><stop stop-opacity="1" stop-color="rgb(0.973511%, 0.93689%, 3.767395%)" offset="0.046875"/><stop stop-opacity="1" stop-color="rgb(1.054382%, 1.014709%, 4.081726%)" offset="0.0507812"/><stop stop-opacity="1" stop-color="rgb(1.13678%, 1.092529%, 4.396057%)" offset="0.0546875"/><stop stop-opacity="1" stop-color="rgb(1.217651%, 1.170349%, 4.710388%)" offset="0.0585938"/><stop stop-opacity="1" stop-color="rgb(1.298523%, 1.249695%, 5.024719%)" offset="0.0625"/><stop stop-opacity="1" stop-color="rgb(1.379395%, 1.327515%, 5.337524%)" offset="0.0664062"/><stop stop-opacity="1" stop-color="rgb(1.461792%, 1.405334%, 5.651855%)" offset="0.0703125"/><stop stop-opacity="1" stop-color="rgb(1.542664%, 1.483154%, 5.966187%)" offset="0.0742188"/><stop stop-opacity="1" stop-color="rgb(1.623535%, 1.560974%, 6.280518%)" offset="0.078125"/><stop stop-opacity="1" stop-color="rgb(1.704407%, 1.638794%, 6.594849%)" offset="0.0820312"/><stop stop-opacity="1" stop-color="rgb(1.786804%, 1.71814%, 6.90918%)" offset="0.0859375"/><stop stop-opacity="1" stop-color="rgb(1.867676%, 1.795959%, 7.221985%)" offset="0.0898438"/><stop stop-opacity="1" stop-color="rgb(1.948547%, 1.873779%, 7.536316%)" offset="0.09375"/><stop stop-opacity="1" stop-color="rgb(2.029419%, 1.951599%, 7.850647%)" offset="0.0976562"/><stop stop-opacity="1" stop-color="rgb(2.111816%, 2.030945%, 8.164978%)" offset="0.101562"/><stop stop-opacity="1" stop-color="rgb(2.192688%, 2.108765%, 8.479309%)" offset="0.105469"/><stop stop-opacity="1" stop-color="rgb(2.27356%, 2.186584%, 8.79364%)" offset="0.109375"/><stop stop-opacity="1" stop-color="rgb(2.354431%, 2.264404%, 9.106445%)" offset="0.113281"/><stop stop-opacity="1" stop-color="rgb(2.436829%, 2.342224%, 9.420776%)" offset="0.117188"/><stop stop-opacity="1" stop-color="rgb(2.5177%, 2.420044%, 9.735107%)" offset="0.121094"/><stop stop-opacity="1" stop-color="rgb(2.598572%, 2.49939%, 10.049438%)" offset="0.125"/><stop stop-opacity="1" stop-color="rgb(2.679443%, 2.577209%, 10.36377%)" offset="0.128906"/><stop stop-opacity="1" stop-color="rgb(2.761841%, 2.655029%, 10.678101%)" offset="0.132812"/><stop stop-opacity="1" stop-color="rgb(2.842712%, 2.732849%, 10.990906%)" offset="0.136719"/><stop stop-opacity="1" stop-color="rgb(2.923584%, 2.812195%, 11.305237%)" offset="0.140625"/><stop stop-opacity="1" stop-color="rgb(3.004456%, 2.890015%, 11.619568%)" offset="0.144531"/><stop stop-opacity="1" stop-color="rgb(3.086853%, 2.967834%, 11.933899%)" offset="0.148438"/><stop stop-opacity="1" stop-color="rgb(3.167725%, 3.045654%, 12.246704%)" offset="0.152344"/><stop stop-opacity="1" stop-color="rgb(3.248596%, 3.123474%, 12.561035%)" offset="0.15625"/><stop stop-opacity="1" stop-color="rgb(3.329468%, 3.201294%, 12.875366%)" offset="0.160156"/><stop stop-opacity="1" stop-color="rgb(3.411865%, 3.28064%, 13.189697%)" offset="0.164062"/><stop stop-opacity="1" stop-color="rgb(3.492737%, 3.358459%, 13.504028%)" offset="0.167969"/><stop stop-opacity="1" stop-color="rgb(3.573608%, 3.436279%, 13.818359%)" offset="0.171875"/><stop stop-opacity="1" stop-color="rgb(3.65448%, 3.514099%, 14.131165%)" offset="0.175781"/><stop stop-opacity="1" stop-color="rgb(3.736877%, 3.593445%, 14.445496%)" offset="0.179688"/><stop stop-opacity="1" stop-color="rgb(3.817749%, 3.671265%, 14.759827%)" offset="0.183594"/><stop stop-opacity="1" stop-color="rgb(3.898621%, 3.749084%, 15.074158%)" offset="0.1875"/><stop stop-opacity="1" stop-color="rgb(3.979492%, 3.826904%, 15.388489%)" offset="0.191406"/><stop stop-opacity="1" stop-color="rgb(4.06189%, 3.904724%, 15.70282%)" offset="0.195312"/><stop stop-opacity="1" stop-color="rgb(4.142761%, 3.982544%, 16.015625%)" offset="0.199219"/><stop stop-opacity="1" stop-color="rgb(4.223633%, 4.06189%, 16.329956%)" offset="0.203125"/><stop stop-opacity="1" stop-color="rgb(4.304504%, 4.139709%, 16.644287%)" offset="0.207031"/><stop stop-opacity="1" stop-color="rgb(4.386902%, 4.217529%, 16.958618%)" offset="0.210938"/><stop stop-opacity="1" stop-color="rgb(4.467773%, 4.295349%, 17.272949%)" offset="0.214844"/><stop stop-opacity="1" stop-color="rgb(4.548645%, 4.374695%, 17.58728%)" offset="0.21875"/><stop stop-opacity="1" stop-color="rgb(4.629517%, 4.452515%, 17.900085%)" offset="0.222656"/><stop stop-opacity="1" stop-color="rgb(4.711914%, 4.530334%, 18.214417%)" offset="0.226562"/><stop stop-opacity="1" stop-color="rgb(4.792786%, 4.608154%, 18.528748%)" offset="0.230469"/><stop stop-opacity="1" stop-color="rgb(4.873657%, 4.685974%, 18.843079%)" offset="0.234375"/><stop stop-opacity="1" stop-color="rgb(4.954529%, 4.763794%, 19.15741%)" offset="0.238281"/><stop stop-opacity="1" stop-color="rgb(5.036926%, 4.84314%, 19.471741%)" offset="0.242188"/><stop stop-opacity="1" stop-color="rgb(5.117798%, 4.920959%, 19.784546%)" offset="0.246094"/><stop stop-opacity="1" stop-color="rgb(5.198669%, 4.998779%, 20.098877%)" offset="0.25"/><stop stop-opacity="1" stop-color="rgb(5.279541%, 5.076599%, 20.413208%)" offset="0.253906"/><stop stop-opacity="1" stop-color="rgb(5.361938%, 5.155945%, 20.727539%)" offset="0.257812"/><stop stop-opacity="1" stop-color="rgb(5.44281%, 5.233765%, 21.04187%)" offset="0.261719"/><stop stop-opacity="1" stop-color="rgb(5.523682%, 5.311584%, 21.356201%)" offset="0.265625"/><stop stop-opacity="1" stop-color="rgb(5.604553%, 5.389404%, 21.669006%)" offset="0.269531"/><stop stop-opacity="1" stop-color="rgb(5.686951%, 5.467224%, 21.983337%)" offset="0.273438"/><stop stop-opacity="1" stop-color="rgb(5.767822%, 5.545044%, 22.297668%)" offset="0.277344"/><stop stop-opacity="1" stop-color="rgb(5.848694%, 5.62439%, 22.612%)" offset="0.28125"/><stop stop-opacity="1" stop-color="rgb(5.929565%, 5.702209%, 22.924805%)" offset="0.285156"/><stop stop-opacity="1" stop-color="rgb(6.011963%, 5.780029%, 23.239136%)" offset="0.289062"/><stop stop-opacity="1" stop-color="rgb(6.092834%, 5.857849%, 23.553467%)" offset="0.292969"/><stop stop-opacity="1" stop-color="rgb(6.173706%, 5.937195%, 23.867798%)" offset="0.296875"/><stop stop-opacity="1" stop-color="rgb(6.254578%, 6.015015%, 24.182129%)" offset="0.300781"/><stop stop-opacity="1" stop-color="rgb(6.336975%, 6.092834%, 24.49646%)" offset="0.304688"/><stop stop-opacity="1" stop-color="rgb(6.417847%, 6.170654%, 24.809265%)" offset="0.308594"/><stop stop-opacity="1" stop-color="rgb(6.498718%, 6.248474%, 25.123596%)" offset="0.3125"/><stop stop-opacity="1" stop-color="rgb(6.57959%, 6.326294%, 25.437927%)" offset="0.316406"/><stop stop-opacity="1" stop-color="rgb(6.661987%, 6.40564%, 25.752258%)" offset="0.320312"/><stop stop-opacity="1" stop-color="rgb(6.742859%, 6.483459%, 26.066589%)" offset="0.324219"/><stop stop-opacity="1" stop-color="rgb(6.82373%, 6.561279%, 26.38092%)" offset="0.328125"/><stop stop-opacity="1" stop-color="rgb(6.904602%, 6.639099%, 26.693726%)" offset="0.332031"/><stop stop-opacity="1" stop-color="rgb(6.987%, 6.718445%, 27.008057%)" offset="0.335938"/><stop stop-opacity="1" stop-color="rgb(7.067871%, 6.796265%, 27.322388%)" offset="0.339844"/><stop stop-opacity="1" stop-color="rgb(7.148743%, 6.874084%, 27.636719%)" offset="0.34375"/><stop stop-opacity="1" stop-color="rgb(7.229614%, 6.951904%, 27.95105%)" offset="0.347656"/><stop stop-opacity="1" stop-color="rgb(7.312012%, 7.029724%, 28.265381%)" offset="0.351562"/><stop stop-opacity="1" stop-color="rgb(7.392883%, 7.107544%, 28.578186%)" offset="0.355469"/><stop stop-opacity="1" stop-color="rgb(7.473755%, 7.18689%, 28.892517%)" offset="0.359375"/><stop stop-opacity="1" stop-color="rgb(7.554626%, 7.264709%, 29.206848%)" offset="0.363281"/><stop stop-opacity="1" stop-color="rgb(7.637024%, 7.342529%, 29.521179%)" offset="0.367188"/><stop stop-opacity="1" stop-color="rgb(7.717896%, 7.420349%, 29.83551%)" offset="0.371094"/><stop stop-opacity="1" stop-color="rgb(7.798767%, 7.499695%, 30.149841%)" offset="0.375"/><stop stop-opacity="1" stop-color="rgb(7.879639%, 7.577515%, 30.462646%)" offset="0.378906"/><stop stop-opacity="1" stop-color="rgb(7.962036%, 7.655334%, 30.776978%)" offset="0.382812"/><stop stop-opacity="1" stop-color="rgb(8.042908%, 7.733154%, 31.091309%)" offset="0.386719"/><stop stop-opacity="1" stop-color="rgb(8.123779%, 7.810974%, 31.40564%)" offset="0.390625"/><stop stop-opacity="1" stop-color="rgb(8.204651%, 7.888794%, 31.719971%)" offset="0.394531"/><stop stop-opacity="1" stop-color="rgb(8.287048%, 7.96814%, 32.034302%)" offset="0.398438"/><stop stop-opacity="1" stop-color="rgb(8.36792%, 8.045959%, 32.347107%)" offset="0.402344"/><stop stop-opacity="1" stop-color="rgb(8.448792%, 8.123779%, 32.661438%)" offset="0.40625"/><stop stop-opacity="1" stop-color="rgb(8.529663%, 8.201599%, 32.975769%)" offset="0.410156"/><stop stop-opacity="1" stop-color="rgb(8.612061%, 8.280945%, 33.2901%)" offset="0.414062"/><stop stop-opacity="1" stop-color="rgb(8.692932%, 8.358765%, 33.602905%)" offset="0.417969"/><stop stop-opacity="1" stop-color="rgb(8.773804%, 8.436584%, 33.917236%)" offset="0.421875"/><stop stop-opacity="1" stop-color="rgb(8.854675%, 8.514404%, 34.231567%)" offset="0.425781"/><stop stop-opacity="1" stop-color="rgb(8.937073%, 8.592224%, 34.545898%)" offset="0.429688"/><stop stop-opacity="1" stop-color="rgb(9.017944%, 8.670044%, 34.860229%)" offset="0.433594"/><stop stop-opacity="1" stop-color="rgb(9.098816%, 8.74939%, 35.174561%)" offset="0.4375"/><stop stop-opacity="1" stop-color="rgb(9.179688%, 8.827209%, 35.487366%)" offset="0.441406"/><stop stop-opacity="1" stop-color="rgb(9.262085%, 8.905029%, 35.801697%)" offset="0.445312"/><stop stop-opacity="1" stop-color="rgb(9.342957%, 8.982849%, 36.116028%)" offset="0.449219"/><stop stop-opacity="1" stop-color="rgb(9.423828%, 9.062195%, 36.430359%)" offset="0.453125"/><stop stop-opacity="1" stop-color="rgb(9.5047%, 9.140015%, 36.74469%)" offset="0.457031"/><stop stop-opacity="1" stop-color="rgb(9.587097%, 9.217834%, 37.059021%)" offset="0.460938"/><stop stop-opacity="1" stop-color="rgb(9.667969%, 9.295654%, 37.371826%)" offset="0.464844"/><stop stop-opacity="1" stop-color="rgb(9.74884%, 9.373474%, 37.686157%)" offset="0.46875"/><stop stop-opacity="1" stop-color="rgb(9.829712%, 9.451294%, 38.000488%)" offset="0.472656"/><stop stop-opacity="1" stop-color="rgb(9.912109%, 9.53064%, 38.314819%)" offset="0.476562"/><stop stop-opacity="1" stop-color="rgb(9.992981%, 9.608459%, 38.62915%)" offset="0.480469"/><stop stop-opacity="1" stop-color="rgb(10.073853%, 9.686279%, 38.943481%)" offset="0.484375"/><stop stop-opacity="1" stop-color="rgb(10.154724%, 9.764099%, 39.256287%)" offset="0.488281"/><stop stop-opacity="1" stop-color="rgb(10.237122%, 9.843445%, 39.570618%)" offset="0.492188"/><stop stop-opacity="1" stop-color="rgb(10.317993%, 9.921265%, 39.884949%)" offset="0.496094"/><stop stop-opacity="1" stop-color="rgb(10.398865%, 9.999084%, 40.19928%)" offset="0.5"/><stop stop-opacity="1" stop-color="rgb(10.479736%, 10.076904%, 40.513611%)" offset="0.503906"/><stop stop-opacity="1" stop-color="rgb(10.562134%, 10.154724%, 40.827942%)" offset="0.507812"/><stop stop-opacity="1" stop-color="rgb(10.643005%, 10.232544%, 41.140747%)" offset="0.511719"/><stop stop-opacity="1" stop-color="rgb(10.723877%, 10.31189%, 41.455078%)" offset="0.515625"/><stop stop-opacity="1" stop-color="rgb(10.804749%, 10.389709%, 41.769409%)" offset="0.519531"/><stop stop-opacity="1" stop-color="rgb(10.887146%, 10.467529%, 42.08374%)" offset="0.523438"/><stop stop-opacity="1" stop-color="rgb(10.968018%, 10.545349%, 42.398071%)" offset="0.527344"/><stop stop-opacity="1" stop-color="rgb(11.048889%, 10.624695%, 42.712402%)" offset="0.53125"/><stop stop-opacity="1" stop-color="rgb(11.129761%, 10.702515%, 43.025208%)" offset="0.535156"/><stop stop-opacity="1" stop-color="rgb(11.212158%, 10.780334%, 43.339539%)" offset="0.539062"/><stop stop-opacity="1" stop-color="rgb(11.29303%, 10.858154%, 43.65387%)" offset="0.542969"/><stop stop-opacity="1" stop-color="rgb(11.373901%, 10.935974%, 43.968201%)" offset="0.546875"/><stop stop-opacity="1" stop-color="rgb(11.454773%, 11.013794%, 44.282532%)" offset="0.550781"/><stop stop-opacity="1" stop-color="rgb(11.53717%, 11.09314%, 44.596863%)" offset="0.554688"/><stop stop-opacity="1" stop-color="rgb(11.618042%, 11.170959%, 44.909668%)" offset="0.558594"/><stop stop-opacity="1" stop-color="rgb(11.698914%, 11.248779%, 45.223999%)" offset="0.5625"/><stop stop-opacity="1" stop-color="rgb(11.779785%, 11.326599%, 45.53833%)" offset="0.566406"/><stop stop-opacity="1" stop-color="rgb(11.862183%, 11.405945%, 45.852661%)" offset="0.570312"/><stop stop-opacity="1" stop-color="rgb(11.943054%, 11.483765%, 46.165466%)" offset="0.574219"/><stop stop-opacity="1" stop-color="rgb(12.023926%, 11.561584%, 46.479797%)" offset="0.578125"/><stop stop-opacity="1" stop-color="rgb(12.104797%, 11.639404%, 46.794128%)" offset="0.582031"/><stop stop-opacity="1" stop-color="rgb(12.187195%, 11.717224%, 47.108459%)" offset="0.585938"/><stop stop-opacity="1" stop-color="rgb(12.268066%, 11.795044%, 47.422791%)" offset="0.589844"/><stop stop-opacity="1" stop-color="rgb(12.348938%, 11.87439%, 47.737122%)" offset="0.59375"/><stop stop-opacity="1" stop-color="rgb(12.42981%, 11.952209%, 48.049927%)" offset="0.597656"/><stop stop-opacity="1" stop-color="rgb(12.512207%, 12.030029%, 48.364258%)" offset="0.601562"/><stop stop-opacity="1" stop-color="rgb(12.593079%, 12.107849%, 48.678589%)" offset="0.605469"/><stop stop-opacity="1" stop-color="rgb(12.67395%, 12.187195%, 48.99292%)" offset="0.609375"/><stop stop-opacity="1" stop-color="rgb(12.754822%, 12.265015%, 49.307251%)" offset="0.613281"/><stop stop-opacity="1" stop-color="rgb(12.837219%, 12.342834%, 49.621582%)" offset="0.617188"/><stop stop-opacity="1" stop-color="rgb(12.918091%, 12.420654%, 49.934387%)" offset="0.621094"/><stop stop-opacity="1" stop-color="rgb(12.998962%, 12.498474%, 50.248718%)" offset="0.625"/><stop stop-opacity="1" stop-color="rgb(13.079834%, 12.576294%, 50.563049%)" offset="0.628906"/><stop stop-opacity="1" stop-color="rgb(13.162231%, 12.65564%, 50.87738%)" offset="0.632812"/><stop stop-opacity="1" stop-color="rgb(13.243103%, 12.733459%, 51.191711%)" offset="0.636719"/><stop stop-opacity="1" stop-color="rgb(13.323975%, 12.811279%, 51.506042%)" offset="0.640625"/><stop stop-opacity="1" stop-color="rgb(13.404846%, 12.889099%, 51.818848%)" offset="0.644531"/><stop stop-opacity="1" stop-color="rgb(13.487244%, 12.968445%, 52.133179%)" offset="0.648438"/><stop stop-opacity="1" stop-color="rgb(13.568115%, 13.046265%, 52.44751%)" offset="0.652344"/><stop stop-opacity="1" stop-color="rgb(13.648987%, 13.124084%, 52.761841%)" offset="0.65625"/><stop stop-opacity="1" stop-color="rgb(13.729858%, 13.201904%, 53.076172%)" offset="0.660156"/><stop stop-opacity="1" stop-color="rgb(13.812256%, 13.279724%, 53.390503%)" offset="0.664062"/><stop stop-opacity="1" stop-color="rgb(13.893127%, 13.357544%, 53.703308%)" offset="0.667969"/><stop stop-opacity="1" stop-color="rgb(13.973999%, 13.43689%, 54.017639%)" offset="0.671875"/><stop stop-opacity="1" stop-color="rgb(14.054871%, 13.514709%, 54.33197%)" offset="0.675781"/><stop stop-opacity="1" stop-color="rgb(14.137268%, 13.592529%, 54.646301%)" offset="0.679688"/><stop stop-opacity="1" stop-color="rgb(14.21814%, 13.670349%, 54.960632%)" offset="0.683594"/><stop stop-opacity="1" stop-color="rgb(14.299011%, 13.749695%, 55.274963%)" offset="0.6875"/><stop stop-opacity="1" stop-color="rgb(14.379883%, 13.827515%, 55.587769%)" offset="0.691406"/><stop stop-opacity="1" stop-color="rgb(14.46228%, 13.905334%, 55.9021%)" offset="0.695312"/><stop stop-opacity="1" stop-color="rgb(14.543152%, 13.983154%, 56.216431%)" offset="0.699219"/><stop stop-opacity="1" stop-color="rgb(14.624023%, 14.060974%, 56.530762%)" offset="0.703125"/><stop stop-opacity="1" stop-color="rgb(14.704895%, 14.138794%, 56.843567%)" offset="0.707031"/><stop stop-opacity="1" stop-color="rgb(14.787292%, 14.21814%, 57.157898%)" offset="0.710938"/><stop stop-opacity="1" stop-color="rgb(14.868164%, 14.295959%, 57.472229%)" offset="0.714844"/><stop stop-opacity="1" stop-color="rgb(14.949036%, 14.373779%, 57.78656%)" offset="0.71875"/><stop stop-opacity="1" stop-color="rgb(15.029907%, 14.451599%, 58.100891%)" offset="0.722656"/><stop stop-opacity="1" stop-color="rgb(15.112305%, 14.530945%, 58.415222%)" offset="0.726562"/><stop stop-opacity="1" stop-color="rgb(15.193176%, 14.608765%, 58.728027%)" offset="0.730469"/><stop stop-opacity="1" stop-color="rgb(15.274048%, 14.686584%, 59.042358%)" offset="0.734375"/><stop stop-opacity="1" stop-color="rgb(15.354919%, 14.764404%, 59.356689%)" offset="0.738281"/><stop stop-opacity="1" stop-color="rgb(15.437317%, 14.842224%, 59.671021%)" offset="0.742188"/><stop stop-opacity="1" stop-color="rgb(15.518188%, 14.920044%, 59.985352%)" offset="0.746094"/><stop stop-opacity="1" stop-color="rgb(15.59906%, 14.99939%, 60.299683%)" offset="0.75"/><stop stop-opacity="1" stop-color="rgb(15.679932%, 15.077209%, 60.612488%)" offset="0.753906"/><stop stop-opacity="1" stop-color="rgb(15.762329%, 15.155029%, 60.926819%)" offset="0.757812"/><stop stop-opacity="1" stop-color="rgb(15.843201%, 15.232849%, 61.24115%)" offset="0.761719"/><stop stop-opacity="1" stop-color="rgb(15.924072%, 15.312195%, 61.555481%)" offset="0.765625"/><stop stop-opacity="1" stop-color="rgb(16.004944%, 15.390015%, 61.869812%)" offset="0.769531"/><stop stop-opacity="1" stop-color="rgb(16.087341%, 15.467834%, 62.184143%)" offset="0.773438"/><stop stop-opacity="1" stop-color="rgb(16.168213%, 15.545654%, 62.496948%)" offset="0.777344"/><stop stop-opacity="1" stop-color="rgb(16.249084%, 15.623474%, 62.811279%)" offset="0.78125"/><stop stop-opacity="1" stop-color="rgb(16.329956%, 15.701294%, 63.12561%)" offset="0.785156"/><stop stop-opacity="1" stop-color="rgb(16.412354%, 15.78064%, 63.439941%)" offset="0.789062"/><stop stop-opacity="1" stop-color="rgb(16.493225%, 15.858459%, 63.754272%)" offset="0.792969"/><stop stop-opacity="1" stop-color="rgb(16.574097%, 15.936279%, 64.068604%)" offset="0.796875"/><stop stop-opacity="1" stop-color="rgb(16.654968%, 16.014099%, 64.381409%)" offset="0.800781"/><stop stop-opacity="1" stop-color="rgb(16.737366%, 16.093445%, 64.69574%)" offset="0.804688"/><stop stop-opacity="1" stop-color="rgb(16.818237%, 16.171265%, 65.010071%)" offset="0.808594"/><stop stop-opacity="1" stop-color="rgb(16.899109%, 16.249084%, 65.324402%)" offset="0.8125"/><stop stop-opacity="1" stop-color="rgb(16.97998%, 16.326904%, 65.638733%)" offset="0.816406"/><stop stop-opacity="1" stop-color="rgb(17.062378%, 16.404724%, 65.953064%)" offset="0.820312"/><stop stop-opacity="1" stop-color="rgb(17.14325%, 16.482544%, 66.265869%)" offset="0.824219"/><stop stop-opacity="1" stop-color="rgb(17.224121%, 16.56189%, 66.5802%)" offset="0.828125"/><stop stop-opacity="1" stop-color="rgb(17.304993%, 16.639709%, 66.894531%)" offset="0.832031"/><stop stop-opacity="1" stop-color="rgb(17.38739%, 16.717529%, 67.208862%)" offset="0.835938"/><stop stop-opacity="1" stop-color="rgb(17.468262%, 16.795349%, 67.521667%)" offset="0.839844"/><stop stop-opacity="1" stop-color="rgb(17.549133%, 16.874695%, 67.835999%)" offset="0.84375"/><stop stop-opacity="1" stop-color="rgb(17.630005%, 16.952515%, 68.15033%)" offset="0.847656"/><stop stop-opacity="1" stop-color="rgb(17.712402%, 17.030334%, 68.464661%)" offset="0.851562"/><stop stop-opacity="1" stop-color="rgb(17.793274%, 17.108154%, 68.778992%)" offset="0.855469"/><stop stop-opacity="1" stop-color="rgb(17.874146%, 17.185974%, 69.093323%)" offset="0.859375"/><stop stop-opacity="1" stop-color="rgb(17.955017%, 17.263794%, 69.406128%)" offset="0.863281"/><stop stop-opacity="1" stop-color="rgb(18.037415%, 17.34314%, 69.720459%)" offset="0.867188"/><stop stop-opacity="1" stop-color="rgb(18.118286%, 17.420959%, 70.03479%)" offset="0.871094"/><stop stop-opacity="1" stop-color="rgb(18.199158%, 17.498779%, 70.349121%)" offset="0.875"/><stop stop-opacity="1" stop-color="rgb(18.280029%, 17.576599%, 70.663452%)" offset="0.878906"/><stop stop-opacity="1" stop-color="rgb(18.362427%, 17.655945%, 70.977783%)" offset="0.882812"/><stop stop-opacity="1" stop-color="rgb(18.443298%, 17.733765%, 71.290588%)" offset="0.886719"/><stop stop-opacity="1" stop-color="rgb(18.52417%, 17.811584%, 71.604919%)" offset="0.890625"/><stop stop-opacity="1" stop-color="rgb(18.605042%, 17.889404%, 71.91925%)" offset="0.894531"/><stop stop-opacity="1" stop-color="rgb(18.687439%, 17.967224%, 72.233582%)" offset="0.898438"/><stop stop-opacity="1" stop-color="rgb(18.768311%, 18.045044%, 72.547913%)" offset="0.902344"/><stop stop-opacity="1" stop-color="rgb(18.849182%, 18.12439%, 72.862244%)" offset="0.90625"/><stop stop-opacity="1" stop-color="rgb(18.930054%, 18.202209%, 73.175049%)" offset="0.910156"/><stop stop-opacity="1" stop-color="rgb(19.012451%, 18.280029%, 73.48938%)" offset="0.914062"/><stop stop-opacity="1" stop-color="rgb(19.093323%, 18.357849%, 73.803711%)" offset="0.917969"/><stop stop-opacity="1" stop-color="rgb(19.174194%, 18.437195%, 74.118042%)" offset="0.921875"/><stop stop-opacity="1" stop-color="rgb(19.255066%, 18.515015%, 74.432373%)" offset="0.925781"/><stop stop-opacity="1" stop-color="rgb(19.337463%, 18.592834%, 74.746704%)" offset="0.929688"/><stop stop-opacity="1" stop-color="rgb(19.418335%, 18.670654%, 75.059509%)" offset="0.933594"/><stop stop-opacity="1" stop-color="rgb(19.499207%, 18.748474%, 75.37384%)" offset="0.9375"/><stop stop-opacity="1" stop-color="rgb(19.580078%, 18.826294%, 75.688171%)" offset="0.941406"/><stop stop-opacity="1" stop-color="rgb(19.662476%, 18.90564%, 76.002502%)" offset="0.945312"/><stop stop-opacity="1" stop-color="rgb(19.743347%, 18.983459%, 76.316833%)" offset="0.949219"/><stop stop-opacity="1" stop-color="rgb(19.824219%, 19.061279%, 76.631165%)" offset="0.953125"/><stop stop-opacity="1" stop-color="rgb(19.90509%, 19.139099%, 76.94397%)" offset="0.957031"/><stop stop-opacity="1" stop-color="rgb(19.987488%, 19.218445%, 77.258301%)" offset="0.960938"/><stop stop-opacity="1" stop-color="rgb(20.068359%, 19.296265%, 77.572632%)" offset="0.964844"/><stop stop-opacity="1" stop-color="rgb(20.149231%, 19.374084%, 77.886963%)" offset="0.96875"/><stop stop-opacity="1" stop-color="rgb(20.230103%, 19.451904%, 78.199768%)" offset="0.972656"/><stop stop-opacity="1" stop-color="rgb(20.310974%, 19.529724%, 78.514099%)" offset="0.976562"/><stop stop-opacity="1" stop-color="rgb(20.391846%, 19.607544%, 78.82843%)" offset="0.980469"/><stop stop-opacity="1" stop-color="rgb(20.474243%, 19.68689%, 79.142761%)" offset="0.984375"/><stop stop-opacity="1" stop-color="rgb(20.555115%, 19.764709%, 79.457092%)" offset="0.988281"/><stop stop-opacity="1" stop-color="rgb(20.635986%, 19.842529%, 79.771423%)" offset="0.992188"/><stop stop-opacity="1" stop-color="rgb(20.716858%, 19.920349%, 80.084229%)" offset="0.996094"/><stop stop-opacity="1" stop-color="rgb(20.799255%, 19.999695%, 80.39856%)" offset="1"/></linearGradient><clipPath id="21a32ba7ff"><path d="M 63.921875 111 L 96 111 L 96 128.070312 L 63.921875 128.070312 Z M 63.921875 111 " clip-rule="nonzero"/></clipPath><clipPath id="b01a29449c"><path d="M 92 111 L 125 111 L 125 128.070312 L 92 128.070312 Z M 92 111 " clip-rule="nonzero"/></clipPath><clipPath id="5753f78249"><path d="M 63.921875 104 L 96 104 L 96 128.070312 L 63.921875 128.070312 Z M 63.921875 104 " clip-rule="nonzero"/></clipPath><clipPath id="ed9539a224"><path d="M 95 111 L 128.070312 111 L 128.070312 128.070312 L 95 128.070312 Z M 95 111 " clip-rule="nonzero"/></clipPath><clipPath id="fd89864523"><path d="M 95 63.921875 L 107 63.921875 L 107 112 L 95 112 Z M 95 63.921875 " clip-rule="nonzero"/></clipPath><clipPath id="42e66e20ee"><path d="M 63.921875 63.921875 L 96 63.921875 L 96 112 L 63.921875 112 Z M 63.921875 63.921875 " clip-rule="nonzero"/></clipPath><clipPath id="04691ac283"><path d="M 63.921875 68 L 96 68 L 96 111 L 63.921875 111 Z M 63.921875 68 " clip-rule="nonzero"/></clipPath><clipPath id="449c13e3c4"><path d="M 96 78 L 128.070312 78 L 128.070312 112 L 96 112 Z M 96 78 " clip-rule="nonzero"/></clipPath><clipPath id="4eb5fd5cf1"><path d="M 96 63.921875 L 128.070312 63.921875 L 128.070312 112 L 96 112 Z M 96 63.921875 " clip-rule="nonzero"/></clipPath><clipPath id="3d32945bff"><path d="M 63.921875 85 L 96 85 L 96 111 L 63.921875 111 Z M 63.921875 85 " clip-rule="nonzero"/></clipPath><clipPath id="c2184f99fb"><path d="M 96 96 L 128.070312 96 L 128.070312 113 L 96 113 Z M 96 96 " clip-rule="nonzero"/></clipPath><clipPath id="73e34d67ff"><path d="M 96 63.921875 L 126 63.921875 L 126 111 L 96 111 Z M 96 63.921875 " clip-rule="nonzero"/></clipPath><clipPath id="d8cf98ba2b"><path d="M 76 63.921875 L 97 63.921875 L 97 111 L 76 111 Z M 76 63.921875 " clip-rule="nonzero"/></clipPath><clipPath id="a3d8599c36"><path d="M 59.394531 59.394531 L 132.894531 59.394531 L 132.894531 132.894531 L 59.394531 132.894531 Z M 59.394531 59.394531 " clip-rule="nonzero"/></clipPath></defs><rect x="-19.2" width="230.4" fill="#ffffff" y="-19.2" height="230.399995" fill-opacity="1"/><rect x="-19.2" fill="url(#d37afc91b6)" width="230.4" y="-19.2" height="230.399995"/><g clip-path="url(#21a32ba7ff)"><path fill="#ffbd59" d="M 84.679688 172.167969 C 83.726562 172.039062 82.832031 171.785156 81.855469 171.605469 C 81.828125 171.605469 81.777344 171.554688 81.753906 171.554688 C 79.597656 171.089844 77.671875 170.476562 75.644531 169.808594 C 76.289062 162.289062 77.597656 155.003906 79.597656 147.535156 C 81.394531 140.941406 83.546875 134.859375 86.292969 128.703125 C 86.34375 128.597656 86.398438 128.472656 86.449219 128.367188 C 87.449219 126.238281 88.398438 124.1875 89.5 122.105469 C 89.578125 121.980469 89.628906 121.824219 89.734375 121.671875 C 89.785156 121.542969 89.835938 121.441406 89.886719 121.3125 C 90.503906 120.261719 91.015625 119.234375 91.605469 118.179688 C 91.707031 118.027344 91.785156 117.875 91.863281 117.71875 C 93.144531 115.488281 94.402344 113.382812 95.8125 111.277344 C 94.632812 112.511719 93.503906 113.742188 92.351562 115.050781 L 92.117188 115.359375 C 92.09375 115.382812 92.042969 115.410156 92.015625 115.4375 C 90.628906 117.078125 89.375 118.59375 88.011719 120.285156 C 86.859375 121.800781 85.832031 123.132812 84.703125 124.699219 C 84.625 124.828125 84.574219 124.902344 84.5 125.03125 C 84.140625 125.546875 83.804688 125.980469 83.472656 126.496094 C 83.367188 126.648438 83.265625 126.75 83.164062 126.90625 C 83.113281 126.984375 83.085938 127.058594 83.035156 127.136719 C 82.933594 127.289062 82.832031 127.394531 82.726562 127.546875 C 81.417969 129.546875 80.238281 131.292969 79.085938 133.320312 C 79.03125 133.398438 78.980469 133.449219 78.929688 133.527344 C 78.75 133.886719 78.546875 134.191406 78.339844 134.527344 C 77.75 135.554688 77.210938 136.527344 76.621094 137.554688 C 76.289062 138.171875 75.980469 138.761719 75.644531 139.375 C 74.542969 141.53125 73.464844 143.585938 72.515625 145.789062 C 72.488281 145.816406 72.464844 145.867188 72.4375 145.894531 C 71 149.050781 69.71875 152.15625 68.539062 155.414062 C 68.023438 156.824219 67.539062 158.183594 67.101562 159.648438 C 67.074219 159.722656 67.023438 159.800781 67 159.878906 C 66.460938 161.675781 65.894531 163.394531 65.40625 165.1875 C 65.125 165.011719 64.84375 164.882812 64.5625 164.703125 C 63.226562 163.90625 62.070312 163.164062 60.761719 162.289062 C 60.6875 162.238281 60.636719 162.1875 60.582031 162.136719 C 60.402344 162.007812 60.25 161.90625 60.070312 161.800781 C 59.96875 161.726562 59.890625 161.648438 59.789062 161.570312 C 58.992188 161.03125 58.351562 160.492188 57.632812 159.980469 C 58.683594 157.695312 59.710938 155.488281 60.917969 153.230469 C 60.96875 153.15625 60.96875 153.050781 61.019531 152.976562 C 61.96875 151.203125 62.867188 149.5625 63.867188 147.816406 C 63.917969 147.742188 63.96875 147.691406 64.023438 147.613281 C 64.972656 145.894531 65.921875 144.40625 67.023438 142.710938 C 67.792969 141.503906 68.460938 140.429688 69.332031 139.273438 C 69.359375 139.222656 69.359375 139.195312 69.386719 139.144531 C 69.617188 138.8125 69.820312 138.53125 70.078125 138.195312 C 71.589844 136.015625 73.027344 134.167969 74.644531 132.089844 C 74.695312 132.011719 74.773438 131.984375 74.824219 131.910156 C 75.464844 131.035156 76.109375 130.316406 76.773438 129.496094 C 77.082031 129.136719 77.363281 128.777344 77.699219 128.417969 C 77.828125 128.316406 77.902344 128.164062 78.03125 128.035156 C 78.058594 128.007812 78.109375 127.984375 78.132812 127.957031 C 78.339844 127.648438 78.570312 127.445312 78.800781 127.164062 C 79.855469 125.980469 80.855469 124.878906 81.957031 123.773438 C 82.007812 123.699219 82.058594 123.648438 82.113281 123.570312 C 85.011719 120.59375 87.78125 117.898438 90.988281 115.203125 C 91.015625 115.179688 91.042969 115.128906 91.066406 115.101562 C 92.066406 114.308594 92.941406 113.535156 93.941406 112.742188 C 94.042969 112.664062 94.121094 112.585938 94.222656 112.484375 C 94.429688 112.304688 94.632812 112.203125 94.839844 112.023438 C 95.171875 111.714844 95.558594 111.484375 95.867188 111.175781 C 95.867188 111.195312 95.875 111.203125 95.890625 111.203125 C 95.53125 111.945312 95.171875 112.664062 94.863281 113.433594 C 94.761719 113.714844 94.582031 113.972656 94.53125 114.28125 C 93.863281 115.71875 93.300781 117.179688 92.761719 118.667969 C 92.683594 118.875 92.582031 119.078125 92.503906 119.285156 C 91.582031 121.824219 90.734375 124.3125 89.914062 126.929688 C 89.886719 127.007812 89.886719 127.109375 89.859375 127.1875 C 89.757812 127.46875 89.679688 127.753906 89.578125 128.058594 C 89.554688 128.1875 89.527344 128.292969 89.476562 128.417969 C 89.449219 128.496094 89.449219 128.597656 89.425781 128.675781 C 87.167969 136.476562 85.730469 144.148438 84.984375 152.15625 C 84.371094 158.851562 84.265625 165.496094 84.679688 172.167969 Z M 84.679688 172.167969 " fill-opacity="1" fill-rule="nonzero"/></g><g clip-path="url(#b01a29449c)"><path fill="#ffbd59" d="M 95.738281 173.222656 C 94.554688 168.5 93.710938 163.804688 93.070312 158.902344 C 92.964844 158.03125 92.863281 157.183594 92.761719 156.3125 C 92.605469 154.644531 92.453125 153.027344 92.324219 151.382812 C 92.324219 151.257812 92.324219 151.101562 92.296875 150.972656 C 91.402344 137.578125 92.632812 124.1875 95.96875 111.226562 C 95.992188 111.40625 96.019531 111.5625 96.097656 111.742188 C 96.148438 111.945312 96.171875 112.152344 96.222656 112.382812 C 96.609375 113.871094 96.96875 115.257812 97.378906 116.71875 C 97.429688 116.847656 97.429688 116.976562 97.507812 117.078125 C 97.53125 117.15625 97.53125 117.257812 97.558594 117.335938 C 97.609375 117.464844 97.609375 117.589844 97.6875 117.695312 C 97.710938 117.769531 97.710938 117.875 97.738281 117.949219 C 97.789062 118.078125 97.816406 118.179688 97.867188 118.308594 C 97.917969 118.488281 97.945312 118.644531 97.996094 118.824219 C 98.816406 121.542969 99.714844 124.109375 100.6875 126.726562 C 100.816406 127.035156 100.945312 127.367188 101.046875 127.675781 C 101.152344 127.957031 101.332031 128.214844 101.382812 128.523438 C 102.640625 131.574219 103.898438 134.578125 105.410156 137.578125 C 105.488281 137.734375 105.539062 137.914062 105.617188 138.066406 C 105.71875 138.222656 105.769531 138.375 105.847656 138.53125 C 105.871094 138.554688 105.898438 138.605469 105.921875 138.632812 C 108.003906 142.789062 110.105469 146.5625 112.722656 150.5625 C 112.75 150.613281 112.75 150.640625 112.773438 150.691406 L 113.003906 151 C 113.03125 151.050781 113.03125 151.078125 113.058594 151.128906 L 113.289062 151.4375 C 113.3125 151.488281 113.3125 151.511719 113.339844 151.5625 L 113.570312 151.871094 C 114.417969 153.257812 115.289062 154.414062 116.238281 155.773438 C 118.113281 158.441406 119.855469 160.671875 121.882812 163.164062 C 121.910156 163.1875 121.960938 163.214844 121.988281 163.238281 C 122.398438 163.777344 122.808594 164.238281 123.242188 164.777344 C 123.269531 164.804688 123.320312 164.832031 123.347656 164.855469 C 123.578125 165.136719 123.78125 165.394531 124.011719 165.675781 C 124.191406 165.882812 124.371094 166.0625 124.550781 166.265625 C 124.039062 166.523438 123.550781 166.753906 123.039062 167.035156 C 122.113281 167.5 121.214844 167.882812 120.265625 168.269531 C 120.085938 168.34375 119.882812 168.449219 119.703125 168.523438 C 119.652344 168.523438 119.625 168.523438 119.574219 168.550781 C 118.394531 169.089844 117.164062 169.472656 115.957031 169.9375 C 115.367188 169.0625 114.851562 168.164062 114.289062 167.242188 C 114.058594 166.882812 113.851562 166.574219 113.671875 166.214844 C 113.621094 166.140625 113.570312 166.085938 113.519531 166.011719 C 113.492188 165.933594 113.441406 165.855469 113.390625 165.78125 C 113.363281 165.726562 113.363281 165.703125 113.339844 165.652344 C 113.289062 165.574219 113.238281 165.523438 113.183594 165.445312 C 113.160156 165.367188 113.109375 165.292969 113.058594 165.214844 C 113.03125 165.164062 113.03125 165.136719 113.003906 165.085938 C 112.980469 165.0625 112.953125 165.011719 112.929688 164.984375 C 112.902344 164.933594 112.902344 164.90625 112.878906 164.855469 C 111.621094 162.726562 110.542969 160.699219 109.414062 158.542969 C 109.363281 158.414062 109.3125 158.3125 109.257812 158.183594 C 106.335938 152.4375 103.949219 146.6875 101.921875 140.582031 C 100.867188 137.398438 99.996094 134.371094 99.175781 131.0625 C 99.125 130.832031 99.097656 130.652344 99.046875 130.421875 C 97.480469 123.953125 96.480469 117.769531 95.96875 111.332031 C 95.839844 112.433594 95.761719 113.535156 95.6875 114.640625 C 95.660156 114.769531 95.660156 114.898438 95.632812 115.023438 C 94.503906 131.035156 96.429688 146.867188 101.332031 162.316406 C 101.433594 162.648438 101.535156 162.957031 101.664062 163.289062 L 101.894531 164.058594 C 101.921875 164.136719 101.972656 164.214844 101.996094 164.292969 C 102.921875 167.113281 103.949219 169.832031 105.050781 172.554688 C 101.972656 173.015625 98.839844 173.246094 95.738281 173.222656 Z M 95.738281 173.222656 " fill-opacity="1" fill-rule="nonzero"/></g><g clip-path="url(#5753f78249)"><path fill="#ffbd59" d="M 49.523438 152.335938 C 49.472656 152.257812 49.421875 152.207031 49.34375 152.15625 C 47.726562 150.308594 46.367188 148.5625 44.929688 146.507812 C 44.75 146.226562 44.570312 145.996094 44.390625 145.714844 C 44.238281 145.433594 44.035156 145.199219 43.878906 144.917969 C 44.085938 144.6875 44.289062 144.457031 44.519531 144.25 C 44.597656 144.148438 44.699219 144.070312 44.777344 143.945312 C 44.804688 143.917969 44.855469 143.890625 44.878906 143.867188 C 47.292969 141.300781 49.703125 139.015625 52.347656 136.65625 C 52.371094 136.628906 52.398438 136.578125 52.425781 136.554688 C 52.578125 136.449219 52.679688 136.324219 52.835938 136.21875 C 53.296875 135.808594 53.734375 135.425781 54.21875 135.015625 C 54.246094 134.988281 54.269531 134.9375 54.296875 134.910156 C 54.503906 134.757812 54.683594 134.578125 54.914062 134.425781 C 54.9375 134.398438 54.964844 134.347656 54.988281 134.320312 C 55.347656 134.039062 55.65625 133.78125 56.015625 133.5 C 56.042969 133.472656 56.066406 133.421875 56.09375 133.398438 C 56.65625 132.960938 57.171875 132.550781 57.710938 132.089844 C 60.042969 130.214844 62.175781 128.625 64.6875 126.90625 C 64.972656 126.726562 65.175781 126.546875 65.433594 126.367188 C 65.484375 126.339844 65.511719 126.339844 65.5625 126.316406 C 65.742188 126.1875 65.894531 126.035156 66.074219 125.929688 C 66.28125 125.828125 66.433594 125.699219 66.613281 125.570312 C 66.664062 125.546875 66.691406 125.546875 66.742188 125.519531 C 66.894531 125.417969 67 125.316406 67.152344 125.210938 C 67.203125 125.1875 67.230469 125.1875 67.28125 125.160156 C 68.511719 124.339844 69.617188 123.621094 70.871094 122.878906 C 70.949219 122.824219 71 122.773438 71.078125 122.722656 C 71.128906 122.699219 71.15625 122.699219 71.207031 122.671875 C 71.285156 122.621094 71.335938 122.570312 71.410156 122.519531 C 72.644531 121.824219 73.746094 121.105469 74.980469 120.441406 C 75.902344 119.953125 76.773438 119.464844 77.699219 118.976562 C 78.699219 118.4375 79.675781 117.949219 80.675781 117.4375 C 81.855469 116.871094 82.957031 116.308594 84.164062 115.796875 C 84.191406 115.769531 84.242188 115.742188 84.265625 115.71875 C 85.652344 115.101562 87.011719 114.511719 88.398438 113.921875 C 89.476562 113.484375 90.527344 113.050781 91.605469 112.664062 C 91.8125 112.585938 91.992188 112.484375 92.222656 112.40625 C 92.375 112.382812 92.53125 112.304688 92.683594 112.226562 C 93.734375 111.84375 94.789062 111.457031 95.839844 111.125 C 95.8125 111.125 95.761719 111.097656 95.738281 111.097656 C 95.273438 111.175781 94.8125 111.253906 94.351562 111.304688 C 94.09375 111.355469 93.839844 111.433594 93.582031 111.433594 C 93.324219 111.457031 93.09375 111.535156 92.835938 111.585938 C 86.320312 112.714844 80.339844 114.28125 74.207031 116.359375 C 74.082031 116.386719 73.953125 116.4375 73.824219 116.488281 C 73.617188 116.539062 73.4375 116.617188 73.234375 116.667969 C 72.003906 117.105469 70.820312 117.566406 69.589844 118 C 69.4375 118.078125 69.28125 118.128906 69.128906 118.207031 C 67.023438 119.003906 64.996094 119.875 62.917969 120.773438 C 62.894531 120.796875 62.839844 120.824219 62.816406 120.851562 L 61.738281 121.3125 C 61.457031 121.441406 61.199219 121.570312 60.917969 121.695312 C 60.789062 121.75 60.710938 121.824219 60.582031 121.875 C 55.296875 124.367188 50.523438 127.007812 45.46875 130.316406 C 45.417969 130.34375 45.394531 130.34375 45.34375 130.371094 C 45.164062 130.496094 45.007812 130.625 44.804688 130.730469 L 44.265625 131.113281 C 44.214844 131.140625 44.1875 131.140625 44.136719 131.164062 C 43.828125 131.371094 43.570312 131.550781 43.261719 131.753906 C 42.929688 131.984375 42.621094 132.191406 42.289062 132.421875 C 41.800781 132.78125 41.390625 133.089844 40.902344 133.421875 C 40.441406 133.730469 40.054688 134.011719 39.621094 134.347656 C 39.285156 134.578125 38.976562 134.835938 38.644531 135.039062 C 38.234375 133.9375 37.773438 132.882812 37.386719 131.753906 C 37.105469 130.984375 36.875 130.214844 36.617188 129.445312 C 36.59375 129.367188 36.59375 129.265625 36.566406 129.1875 C 36.285156 128.394531 36.105469 127.574219 35.847656 126.75 C 35.796875 126.546875 35.769531 126.367188 35.71875 126.160156 C 36.15625 125.878906 36.644531 125.699219 37.105469 125.417969 C 37.183594 125.367188 37.285156 125.367188 37.363281 125.316406 C 39.695312 124.082031 41.980469 123.003906 44.367188 121.980469 L 44.828125 121.75 C 46.597656 120.976562 48.34375 120.285156 50.164062 119.59375 C 50.371094 119.515625 50.550781 119.414062 50.757812 119.335938 C 52.191406 118.824219 53.605469 118.285156 55.066406 117.820312 C 55.144531 117.796875 55.222656 117.746094 55.296875 117.71875 C 55.425781 117.695312 55.554688 117.644531 55.683594 117.617188 C 55.757812 117.589844 55.835938 117.539062 55.914062 117.515625 C 56.042969 117.488281 56.171875 117.4375 56.296875 117.410156 C 56.375 117.386719 56.453125 117.335938 56.53125 117.308594 C 59.199219 116.460938 61.765625 115.71875 64.507812 115 C 64.714844 114.949219 64.921875 114.921875 65.125 114.871094 C 69.921875 113.640625 74.464844 112.765625 79.316406 112.152344 C 79.441406 112.152344 79.570312 112.125 79.699219 112.125 C 82.007812 111.816406 84.265625 111.613281 86.578125 111.433594 C 86.703125 111.40625 86.832031 111.40625 86.960938 111.382812 C 89.886719 111.175781 92.785156 111.074219 95.6875 111.097656 C 94.992188 110.945312 94.273438 110.84375 93.554688 110.714844 C 92.171875 110.484375 90.863281 110.277344 89.476562 110.097656 C 89.347656 110.097656 89.21875 110.074219 89.089844 110.074219 C 84.214844 109.429688 79.46875 109.097656 74.621094 109.019531 C 71.050781 108.96875 67.511719 109.074219 63.917969 109.328125 C 63.792969 109.355469 63.664062 109.355469 63.535156 109.378906 C 53.449219 110.148438 43.570312 112.023438 34 115.078125 C 33.796875 111.972656 33.820312 108.867188 34.101562 105.761719 C 50.011719 103.222656 65.816406 103.582031 82.136719 107.171875 C 82.164062 107.171875 82.214844 107.226562 82.238281 107.226562 C 82.546875 107.300781 82.832031 107.351562 83.136719 107.40625 L 83.367188 107.480469 L 84.140625 107.636719 C 85.242188 107.917969 86.269531 108.175781 87.371094 108.457031 C 90.144531 109.226562 92.761719 110.023438 95.453125 110.917969 C 95.582031 110.972656 95.710938 111.046875 95.839844 111.046875 C 95.8125 111.046875 95.839844 111.097656 95.789062 111.097656 L 95.890625 111.097656 L 95.867188 111.097656 C 95.890625 111.097656 95.917969 111.125 95.917969 111.074219 C 95.890625 111.097656 95.96875 111.097656 95.941406 111.125 L 95.890625 111.125 L 95.917969 111.125 C 93.863281 112.152344 91.9375 113.28125 89.914062 114.433594 C 89.835938 114.488281 89.785156 114.539062 89.707031 114.589844 C 87.808594 115.667969 86.140625 116.796875 84.265625 117.976562 C 84.113281 118.078125 84.011719 118.179688 83.855469 118.285156 C 83.804688 118.308594 83.78125 118.308594 83.726562 118.335938 C 83.574219 118.4375 83.472656 118.539062 83.316406 118.644531 C 82.90625 118.898438 82.546875 119.15625 82.164062 119.4375 C 82.085938 119.488281 82.007812 119.515625 81.933594 119.566406 C 81.574219 119.824219 81.265625 120.054688 80.878906 120.3125 C 80.058594 120.875 79.390625 121.414062 78.597656 121.980469 C 77.648438 122.671875 76.878906 123.3125 75.953125 124.007812 C 75.644531 124.261719 75.335938 124.46875 75.054688 124.75 C 74.875 124.878906 74.722656 125.007812 74.542969 125.136719 C 74.003906 125.597656 73.492188 126.007812 72.953125 126.445312 L 71.875 127.367188 C 71.847656 127.394531 71.824219 127.445312 71.796875 127.46875 C 71.464844 127.699219 71.230469 127.984375 70.898438 128.214844 C 70.871094 128.238281 70.847656 128.292969 70.820312 128.316406 L 70.515625 128.546875 C 69.4375 129.546875 68.410156 130.421875 67.382812 131.449219 C 67.304688 131.5 67.253906 131.550781 67.179688 131.601562 C 63.996094 134.65625 61.148438 137.65625 58.25 141.019531 C 58.222656 141.042969 58.171875 141.070312 58.144531 141.09375 C 57.710938 141.660156 57.246094 142.121094 56.8125 142.710938 C 56.785156 142.738281 56.734375 142.761719 56.710938 142.789062 C 54.144531 145.996094 51.730469 149.023438 49.523438 152.335938 Z M 49.523438 152.335938 " fill-opacity="1" fill-rule="nonzero"/></g><g clip-path="url(#ed9539a224)"><path fill="#ffbd59" d="M 133.945312 160.261719 C 132.996094 159.542969 132.148438 158.800781 131.171875 158.03125 C 131.148438 158.003906 131.121094 157.953125 131.09375 157.929688 C 130.8125 157.695312 130.558594 157.492188 130.273438 157.261719 C 130.144531 157.132812 130.019531 157.03125 129.890625 156.902344 C 129.402344 156.492188 128.964844 156.105469 128.503906 155.695312 C 128.351562 155.59375 128.246094 155.464844 128.09375 155.363281 C 128.066406 155.335938 128.042969 155.285156 128.015625 155.257812 C 127.863281 155.15625 127.761719 155.027344 127.605469 154.925781 C 127.582031 154.898438 127.554688 154.847656 127.527344 154.824219 C 127.375 154.71875 127.246094 154.59375 127.117188 154.488281 C 126.988281 154.359375 126.863281 154.257812 126.734375 154.128906 C 126.707031 154.105469 126.683594 154.054688 126.65625 154.027344 C 126.527344 153.949219 126.476562 153.847656 126.347656 153.769531 C 126.324219 153.746094 126.296875 153.695312 126.273438 153.667969 C 126.195312 153.617188 126.144531 153.566406 126.066406 153.515625 C 125.605469 153.078125 125.195312 152.691406 124.730469 152.257812 L 124.371094 151.898438 C 122.628906 150.230469 121.089844 148.585938 119.421875 146.867188 C 119.371094 146.792969 119.316406 146.742188 119.265625 146.664062 C 118.472656 145.84375 117.753906 145.019531 116.984375 144.175781 C 116.289062 143.378906 115.648438 142.609375 114.957031 141.8125 C 114.851562 141.683594 114.75 141.53125 114.648438 141.402344 C 114.597656 141.328125 114.519531 141.300781 114.46875 141.222656 C 114.058594 140.710938 113.671875 140.222656 113.238281 139.710938 L 112.773438 139.09375 C 111.441406 137.503906 110.363281 135.964844 109.105469 134.269531 C 108.847656 133.910156 108.617188 133.578125 108.363281 133.21875 C 108.15625 132.910156 107.976562 132.652344 107.769531 132.371094 C 107.71875 132.292969 107.695312 132.21875 107.644531 132.140625 C 107.515625 131.960938 107.386719 131.804688 107.257812 131.628906 C 107.230469 131.574219 107.230469 131.550781 107.207031 131.5 C 106.746094 130.910156 106.410156 130.316406 105.976562 129.703125 C 105.949219 129.652344 105.949219 129.625 105.921875 129.574219 C 105.667969 129.214844 105.460938 128.882812 105.230469 128.496094 L 105 128.1875 C 104.28125 127.007812 103.640625 125.957031 102.945312 124.777344 C 102.84375 124.621094 102.769531 124.492188 102.664062 124.339844 C 101.585938 122.519531 100.664062 120.796875 99.6875 118.953125 C 99.558594 118.667969 99.433594 118.414062 99.277344 118.15625 C 99.226562 118.027344 99.175781 117.925781 99.125 117.796875 C 99.097656 117.769531 99.074219 117.71875 99.046875 117.695312 C 98.996094 117.566406 98.945312 117.464844 98.894531 117.335938 C 98.097656 115.796875 97.378906 114.28125 96.6875 112.714844 C 96.636719 112.585938 96.558594 112.511719 96.507812 112.382812 C 96.351562 111.972656 96.171875 111.585938 95.992188 111.203125 L 96.019531 111.226562 C 96.042969 111.175781 95.96875 111.175781 95.96875 111.125 L 95.96875 111.152344 L 95.96875 111.097656 C 96.019531 111.097656 96.019531 111.152344 96.019531 111.175781 C 96.042969 111.175781 96.070312 111.152344 96.097656 111.226562 L 96.070312 111.203125 C 97.25 111.585938 98.40625 112.023438 99.613281 112.382812 C 99.6875 112.40625 99.765625 112.460938 99.84375 112.484375 C 102.410156 113.332031 104.871094 113.972656 107.488281 114.691406 C 107.667969 114.742188 107.824219 114.742188 108.003906 114.792969 C 109.15625 115.101562 110.207031 115.332031 111.390625 115.589844 C 111.414062 115.589844 111.464844 115.640625 111.492188 115.640625 C 127.246094 119.078125 142.4375 119.488281 157.808594 117.230469 C 157.449219 120.386719 156.960938 123.519531 156.140625 126.570312 C 153.417969 126.597656 150.699219 126.445312 147.980469 126.238281 C 137.382812 125.519531 127.117188 123.519531 116.957031 120.207031 C 116.878906 120.183594 116.804688 120.132812 116.726562 120.105469 C 115.109375 119.617188 113.570312 119.027344 111.980469 118.464844 C 111.824219 118.386719 111.671875 118.335938 111.515625 118.257812 C 106.179688 116.257812 101.101562 113.921875 96.121094 111.226562 C 96.582031 111.613281 97.046875 111.945312 97.53125 112.332031 C 97.636719 112.40625 97.710938 112.511719 97.816406 112.585938 C 99.84375 114.152344 101.691406 115.488281 103.820312 116.976562 C 103.871094 117 103.898438 117 103.949219 117.027344 C 104.460938 117.386719 104.898438 117.695312 105.4375 118.027344 C 105.589844 118.128906 105.691406 118.234375 105.847656 118.335938 C 105.898438 118.359375 105.921875 118.359375 105.976562 118.386719 C 107.515625 119.414062 108.875 120.261719 110.441406 121.183594 C 110.671875 121.335938 110.851562 121.464844 111.082031 121.59375 C 113.210938 122.824219 115.210938 123.953125 117.394531 125.082031 C 119.550781 126.160156 121.628906 127.1875 123.808594 128.136719 C 123.9375 128.1875 124.011719 128.265625 124.140625 128.316406 C 124.910156 128.625 125.628906 128.984375 126.398438 129.292969 C 127.015625 129.523438 127.605469 129.804688 128.222656 130.011719 C 128.503906 130.113281 128.761719 130.265625 129.042969 130.371094 C 129.761719 130.601562 130.402344 130.910156 131.121094 131.140625 C 131.273438 131.214844 131.429688 131.292969 131.609375 131.34375 C 131.941406 131.449219 132.25 131.574219 132.582031 131.679688 C 132.710938 131.730469 132.816406 131.78125 132.941406 131.832031 C 133.6875 132.089844 134.40625 132.34375 135.148438 132.601562 C 135.277344 132.628906 135.40625 132.679688 135.535156 132.703125 C 135.613281 132.730469 135.6875 132.78125 135.765625 132.808594 C 135.894531 132.832031 136.023438 132.882812 136.152344 132.910156 C 137.742188 133.421875 139.28125 133.910156 140.898438 134.371094 C 141.027344 134.425781 141.128906 134.449219 141.257812 134.5 C 141.488281 134.550781 141.691406 134.601562 141.898438 134.65625 C 145.4375 135.65625 148.878906 136.449219 152.394531 137.144531 C 151.085938 139.992188 149.542969 142.710938 147.824219 145.328125 C 144.824219 144.226562 141.871094 143.070312 138.894531 141.789062 C 138.871094 141.761719 138.820312 141.738281 138.792969 141.710938 C 138.023438 141.402344 137.28125 141.019531 136.507812 140.710938 C 136.484375 140.683594 136.433594 140.660156 136.40625 140.632812 C 136.125 140.503906 135.867188 140.375 135.585938 140.25 C 130.480469 137.835938 125.835938 135.296875 120.933594 132.113281 C 120.882812 132.089844 120.859375 132.089844 120.804688 132.0625 C 119.316406 131.0625 118.007812 130.214844 116.546875 129.164062 C 116.417969 129.085938 116.339844 129.035156 116.214844 128.957031 C 114.1875 127.519531 112.492188 126.210938 110.542969 124.699219 C 110.464844 124.648438 110.441406 124.570312 110.363281 124.519531 C 109.722656 124.03125 109.15625 123.570312 108.566406 123.058594 C 108.4375 122.953125 108.285156 122.851562 108.15625 122.75 C 106.589844 121.390625 105.128906 120.183594 103.640625 118.746094 C 103.5625 118.695312 103.511719 118.644531 103.433594 118.59375 C 101.226562 116.539062 99.226562 114.539062 97.148438 112.355469 C 96.816406 111.972656 96.457031 111.613281 96.121094 111.226562 C 96.097656 111.203125 96.042969 111.203125 96.019531 111.175781 C 98.304688 114.847656 100.714844 118.234375 103.460938 121.773438 C 103.539062 121.875 103.640625 121.953125 103.71875 122.054688 C 105.976562 124.957031 108.183594 127.496094 110.644531 130.164062 C 110.851562 130.394531 111.054688 130.601562 111.285156 130.804688 C 111.335938 130.855469 111.390625 130.960938 111.441406 131.011719 C 111.722656 131.269531 111.980469 131.550781 112.261719 131.832031 C 112.519531 132.113281 112.800781 132.398438 113.058594 132.679688 C 114.132812 133.78125 115.1875 134.78125 116.289062 135.835938 C 118.1875 137.605469 119.984375 139.222656 122.011719 140.890625 C 122.039062 140.914062 122.0625 140.96875 122.089844 140.992188 C 123.191406 141.890625 124.191406 142.710938 125.320312 143.609375 C 126.605469 144.609375 127.734375 145.457031 129.070312 146.40625 C 129.8125 146.945312 130.453125 147.40625 131.199219 147.945312 C 131.25 147.972656 131.273438 147.972656 131.328125 147.996094 C 132.097656 148.585938 132.816406 149 133.585938 149.5625 C 133.636719 149.589844 133.660156 149.589844 133.710938 149.613281 L 134.019531 149.84375 C 134.25 149.972656 134.457031 150.128906 134.6875 150.28125 C 134.84375 150.359375 134.96875 150.460938 135.125 150.5625 C 135.175781 150.589844 135.199219 150.589844 135.253906 150.613281 L 135.558594 150.847656 C 135.765625 150.949219 135.917969 151.078125 136.125 151.179688 C 137.742188 152.207031 139.28125 153.128906 140.871094 154.054688 C 138.972656 155.976562 137.046875 157.773438 134.867188 159.519531 L 134.328125 159.980469 C 134.199219 160.082031 134.070312 160.160156 133.945312 160.261719 Z M 133.945312 160.261719 " fill-opacity="1" fill-rule="nonzero"/></g><path fill="#ffbd59" d="M 95.890625 111.203125 C 95.917969 111.203125 95.941406 111.203125 95.941406 111.175781 C 95.941406 111.203125 95.917969 111.203125 95.917969 111.226562 L 95.941406 111.226562 C 95.917969 111.226562 95.917969 111.203125 95.890625 111.203125 Z M 95.890625 111.203125 " fill-opacity="1" fill-rule="nonzero"/><path fill="#ffbd59" d="M 95.867188 111.046875 C 95.839844 111.023438 95.839844 110.996094 95.8125 110.972656 L 95.890625 111.046875 Z M 95.867188 111.046875 " fill-opacity="1" fill-rule="nonzero"/><g clip-path="url(#fd89864523)"><path fill="#ffbd59" d="M 95.96875 111.046875 C 95.96875 110.996094 95.992188 111.023438 96.019531 110.996094 C 96.042969 110.972656 95.96875 110.972656 95.992188 110.945312 C 95.992188 110.972656 95.96875 110.972656 95.96875 110.996094 C 95.96875 110.894531 95.992188 110.792969 96.019531 110.6875 C 97.585938 104.941406 98.636719 99.449219 99.378906 93.574219 C 99.433594 93.367188 99.457031 93.136719 99.484375 92.933594 C 100.046875 88.289062 100.304688 83.773438 100.382812 79.179688 C 100.507812 69.042969 99.355469 58.910156 97.148438 49.003906 C 100.226562 49.03125 103.304688 49.363281 106.359375 49.851562 C 106.410156 50.105469 106.410156 50.390625 106.4375 50.644531 C 106.566406 52.441406 106.640625 54.238281 106.695312 56.035156 C 106.71875 57.085938 106.71875 58.136719 106.71875 59.191406 C 106.746094 62.707031 106.640625 66.195312 106.335938 69.738281 L 106.335938 69.992188 C 106.308594 70.121094 106.308594 70.25 106.28125 70.378906 L 106.28125 70.632812 C 106.230469 70.941406 106.207031 71.226562 106.179688 71.53125 C 105.847656 75.382812 105.332031 79.050781 104.613281 82.949219 C 103.820312 87.3125 102.921875 91.289062 101.664062 95.445312 C 101.636719 95.523438 101.636719 95.625 101.613281 95.703125 C 101.5625 95.832031 101.535156 95.933594 101.511719 96.0625 C 100.945312 97.808594 100.433594 99.476562 99.84375 101.195312 C 99.816406 101.324219 99.765625 101.453125 99.738281 101.578125 C 99.433594 102.527344 99.097656 103.425781 98.738281 104.351562 C 98.609375 104.632812 98.535156 104.890625 98.429688 105.171875 C 97.660156 107.148438 96.839844 109.074219 96.042969 110.996094 C 95.992188 110.972656 96.042969 111.097656 95.96875 111.046875 Z M 95.96875 111.046875 " fill-opacity="1" fill-rule="nonzero"/></g><g clip-path="url(#42e66e20ee)"><path fill="#ffbd59" d="M 95.941406 111.046875 C 95.453125 109.84375 94.890625 108.636719 94.378906 107.429688 C 94.171875 106.96875 93.941406 106.53125 93.734375 106.042969 C 93.710938 106.019531 93.683594 105.96875 93.660156 105.941406 C 93.554688 105.710938 93.453125 105.453125 93.351562 105.222656 C 93.324219 105.199219 93.300781 105.148438 93.273438 105.121094 C 92.992188 104.53125 92.734375 103.964844 92.425781 103.402344 C 92.375 103.273438 92.324219 103.171875 92.273438 103.042969 C 92.246094 103.015625 92.222656 102.964844 92.195312 102.941406 C 92.144531 102.8125 92.09375 102.707031 92.042969 102.582031 C 92.015625 102.554688 91.992188 102.503906 91.964844 102.476562 C 90.707031 99.988281 89.449219 97.707031 88.011719 95.269531 C 87.960938 95.191406 87.910156 95.140625 87.859375 95.0625 C 86.832031 93.265625 85.78125 91.699219 84.652344 89.929688 C 84.550781 89.777344 84.445312 89.675781 84.34375 89.519531 C 84.320312 89.46875 84.320312 89.441406 84.292969 89.390625 C 84.140625 89.160156 83.984375 88.980469 83.855469 88.75 C 83.675781 88.492188 83.523438 88.261719 83.34375 88.007812 C 83.214844 87.828125 83.085938 87.671875 82.957031 87.492188 C 82.90625 87.414062 82.882812 87.339844 82.832031 87.261719 C 82.597656 86.929688 82.367188 86.671875 82.136719 86.339844 C 82.113281 86.285156 82.113281 86.261719 82.085938 86.210938 C 80.777344 84.4375 79.621094 82.875 78.261719 81.15625 C 78.210938 81.078125 78.132812 81.050781 78.082031 80.976562 C 77.648438 80.410156 77.238281 79.898438 76.773438 79.359375 C 76.671875 79.230469 76.570312 79.078125 76.464844 78.949219 C 76.414062 78.871094 76.339844 78.84375 76.289062 78.769531 C 76.132812 78.5625 75.953125 78.359375 75.800781 78.152344 C 75.414062 77.714844 75.082031 77.304688 74.695312 76.871094 C 74.671875 76.84375 74.621094 76.820312 74.59375 76.792969 C 74.464844 76.613281 74.335938 76.460938 74.183594 76.28125 C 73.746094 75.84375 73.386719 75.382812 72.953125 74.945312 C 72.847656 74.816406 72.746094 74.664062 72.617188 74.535156 C 71.128906 72.945312 69.71875 71.457031 68.203125 69.917969 C 67.921875 69.632812 67.613281 69.402344 67.359375 69.09375 C 67.203125 68.941406 67.050781 68.8125 66.871094 68.660156 L 65.945312 67.734375 C 65.84375 67.65625 65.765625 67.554688 65.636719 67.480469 C 65.613281 67.453125 65.585938 67.402344 65.5625 67.375 C 65.433594 67.300781 65.382812 67.195312 65.253906 67.121094 C 65.226562 67.09375 65.203125 67.042969 65.175781 67.015625 C 65.046875 66.941406 64.996094 66.835938 64.867188 66.761719 C 64.84375 66.734375 64.816406 66.683594 64.792969 66.65625 C 64.714844 66.605469 64.664062 66.554688 64.585938 66.503906 C 62.660156 64.683594 60.710938 63.066406 58.734375 61.398438 C 59.683594 60.679688 60.609375 59.984375 61.660156 59.34375 C 61.738281 59.292969 61.789062 59.242188 61.839844 59.191406 C 63.457031 58.164062 64.945312 57.242188 66.5625 56.394531 C 69.921875 60.089844 72.898438 63.808594 75.980469 68.015625 C 76.03125 68.09375 76.054688 68.171875 76.109375 68.25 C 76.414062 68.660156 76.671875 68.992188 76.953125 69.402344 C 77.210938 69.789062 77.441406 70.097656 77.699219 70.480469 C 77.828125 70.710938 77.980469 70.890625 78.132812 71.121094 C 78.160156 71.171875 78.160156 71.199219 78.1875 71.25 C 79.417969 73.019531 80.417969 74.585938 81.46875 76.382812 C 81.703125 76.765625 81.957031 77.101562 82.136719 77.511719 C 82.1875 77.589844 82.238281 77.640625 82.292969 77.714844 C 82.472656 78.074219 82.675781 78.382812 82.855469 78.742188 C 82.90625 78.820312 82.957031 78.871094 83.011719 78.949219 C 85.164062 82.746094 87.039062 86.414062 88.808594 90.339844 C 90.015625 93.0625 91.117188 95.753906 92.117188 98.550781 C 92.195312 98.707031 92.246094 98.859375 92.324219 99.039062 C 92.582031 99.859375 92.890625 100.65625 93.144531 101.476562 C 93.171875 101.554688 93.222656 101.632812 93.246094 101.707031 C 93.503906 102.527344 93.761719 103.324219 94.042969 104.144531 C 94.070312 104.222656 94.070312 104.324219 94.09375 104.402344 C 94.53125 105.710938 94.890625 106.992188 95.273438 108.328125 C 95.480469 109.074219 95.660156 109.789062 95.867188 110.5625 C 95.890625 110.714844 95.941406 110.84375 95.941406 110.996094 L 95.96875 110.972656 C 95.96875 110.996094 95.96875 111.023438 95.941406 111.046875 Z M 95.941406 111.046875 " fill-opacity="1" fill-rule="nonzero"/></g><g clip-path="url(#04691ac283)"><path fill="#ffbd59" d="M 95.867188 110.996094 C 95.789062 110.972656 95.761719 110.917969 95.710938 110.867188 C 93.222656 108.046875 90.734375 105.558594 88.039062 102.964844 C 87.960938 102.914062 87.910156 102.863281 87.832031 102.8125 C 86.449219 101.476562 85.113281 100.296875 83.625 99.039062 C 83.601562 99.015625 83.574219 98.960938 83.546875 98.9375 C 83.421875 98.835938 83.265625 98.730469 83.136719 98.628906 C 83.113281 98.601562 83.085938 98.550781 83.0625 98.527344 C 82.394531 98.011719 81.855469 97.5 81.164062 96.988281 C 81.085938 96.933594 81.058594 96.859375 80.984375 96.808594 C 80.496094 96.421875 80.058594 96.0625 79.570312 95.679688 C 78.289062 94.675781 77.109375 93.78125 75.773438 92.804688 C 75.722656 92.777344 75.695312 92.777344 75.644531 92.753906 C 75.234375 92.472656 74.925781 92.1875 74.515625 91.90625 C 74.183594 91.699219 73.902344 91.46875 73.566406 91.238281 C 73.285156 91.085938 73.078125 90.90625 72.824219 90.726562 C 72.59375 90.597656 72.414062 90.445312 72.183594 90.289062 C 72.128906 90.265625 72.105469 90.265625 72.054688 90.238281 C 71.898438 90.136719 71.796875 90.03125 71.644531 89.929688 C 71.589844 89.90625 71.566406 89.90625 71.515625 89.878906 C 71.359375 89.777344 71.257812 89.675781 71.105469 89.570312 C 71.050781 89.546875 71.027344 89.546875 70.976562 89.519531 C 62.355469 83.773438 53.859375 79.617188 44.625 76.152344 C 45.933594 74.226562 47.292969 72.457031 48.832031 70.632812 C 48.910156 70.53125 49.011719 70.480469 49.089844 70.378906 C 49.320312 70.097656 49.523438 69.8125 49.78125 69.558594 C 50.011719 69.324219 50.191406 69.070312 50.449219 68.863281 C 51.628906 69.53125 52.78125 70.199219 53.988281 70.890625 C 55.554688 71.816406 56.914062 72.714844 58.453125 73.664062 L 58.761719 73.894531 C 58.839844 73.945312 58.914062 73.96875 58.992188 74.023438 L 59.53125 74.40625 C 59.582031 74.433594 59.609375 74.433594 59.660156 74.457031 C 59.8125 74.558594 59.917969 74.664062 60.070312 74.765625 C 60.378906 74.945312 60.636719 75.152344 60.941406 75.355469 C 61.019531 75.40625 61.097656 75.433594 61.171875 75.484375 C 61.457031 75.714844 61.710938 75.894531 62.019531 76.101562 C 62.097656 76.152344 62.175781 76.175781 62.25 76.226562 C 63.714844 77.304688 65.023438 78.230469 66.460938 79.308594 C 67.074219 79.769531 67.613281 80.179688 68.203125 80.667969 C 68.792969 81.15625 69.332031 81.589844 69.921875 82.054688 C 70 82.105469 70.027344 82.179688 70.101562 82.234375 C 70.898438 82.824219 71.539062 83.4375 72.308594 84.054688 C 72.335938 84.082031 72.359375 84.132812 72.386719 84.15625 C 74.054688 85.570312 75.542969 86.902344 77.082031 88.417969 C 77.160156 88.46875 77.210938 88.519531 77.289062 88.570312 C 80.214844 91.417969 82.882812 94.136719 85.523438 97.269531 C 85.550781 97.292969 85.601562 97.320312 85.628906 97.347656 C 85.910156 97.707031 86.191406 97.988281 86.449219 98.347656 C 86.472656 98.371094 86.523438 98.398438 86.550781 98.421875 C 86.652344 98.550781 86.757812 98.707031 86.859375 98.835938 C 87.320312 99.375 87.730469 99.859375 88.167969 100.425781 C 88.191406 100.449219 88.246094 100.476562 88.269531 100.503906 C 88.449219 100.734375 88.628906 100.988281 88.808594 101.21875 C 90.066406 102.761719 91.117188 104.195312 92.324219 105.8125 C 93.351562 107.226562 94.199219 108.457031 95.171875 109.917969 C 95.199219 109.96875 95.199219 109.996094 95.222656 110.046875 C 95.480469 110.355469 95.632812 110.6875 95.867188 110.996094 Z M 95.867188 110.996094 " fill-opacity="1" fill-rule="nonzero"/></g><g clip-path="url(#449c13e3c4)"><path fill="#ffbd59" d="M 96.097656 111.074219 C 97.351562 110.664062 98.585938 110.226562 99.84375 109.789062 C 100.125 109.6875 100.40625 109.558594 100.6875 109.484375 C 100.816406 109.429688 100.921875 109.378906 101.046875 109.328125 C 103.640625 108.378906 106.128906 107.328125 108.667969 106.222656 C 108.695312 106.199219 108.746094 106.171875 108.773438 106.148438 C 112.234375 104.632812 115.441406 102.941406 118.777344 101.117188 C 119.394531 100.785156 119.960938 100.449219 120.574219 100.089844 C 120.910156 99.886719 121.214844 99.679688 121.574219 99.5 C 121.652344 99.449219 121.703125 99.398438 121.78125 99.347656 C 122.910156 98.730469 123.886719 98.066406 124.988281 97.398438 L 125.296875 97.167969 C 125.347656 97.140625 125.375 97.140625 125.425781 97.113281 L 125.734375 96.882812 C 125.886719 96.808594 126.015625 96.703125 126.167969 96.601562 C 126.246094 96.550781 126.324219 96.523438 126.398438 96.472656 L 126.707031 96.242188 C 126.785156 96.191406 126.863281 96.164062 126.9375 96.113281 L 127.246094 95.882812 C 127.324219 95.832031 127.402344 95.804688 127.476562 95.753906 L 127.785156 95.523438 C 127.863281 95.472656 127.941406 95.445312 128.015625 95.394531 C 128.195312 95.269531 128.351562 95.140625 128.53125 95.011719 C 128.582031 94.984375 128.605469 94.984375 128.65625 94.960938 C 128.992188 94.730469 129.273438 94.523438 129.605469 94.292969 C 131.789062 92.777344 133.609375 91.367188 135.664062 89.777344 C 135.6875 89.75 135.714844 89.699219 135.738281 89.675781 C 136.816406 88.851562 137.742188 88.058594 138.792969 87.210938 C 138.820312 87.183594 138.84375 87.132812 138.871094 87.109375 C 139.179688 86.851562 139.460938 86.621094 139.769531 86.339844 C 139.949219 86.210938 140.101562 86.054688 140.28125 85.925781 C 140.308594 85.902344 140.332031 85.851562 140.359375 85.824219 C 143.308594 83.308594 145.953125 80.746094 148.570312 78.023438 C 149.03125 78.769531 149.492188 79.511719 149.929688 80.28125 C 150.03125 80.511719 150.160156 80.691406 150.261719 80.925781 C 151.109375 82.414062 151.828125 83.847656 152.546875 85.390625 C 152.675781 85.695312 152.777344 85.980469 152.933594 86.261719 C 151.289062 87.570312 149.621094 88.699219 147.824219 90.007812 C 147.773438 90.03125 147.75 90.03125 147.695312 90.058594 C 144.15625 92.574219 140.871094 94.574219 137.175781 96.628906 C 136.867188 96.808594 136.5625 96.988281 136.253906 97.140625 C 135.945312 97.320312 135.664062 97.472656 135.355469 97.628906 C 128.453125 101.347656 121.628906 104.300781 114.210938 106.660156 C 114.132812 106.6875 114.058594 106.738281 113.980469 106.761719 C 110.386719 107.890625 106.949219 108.839844 103.203125 109.714844 C 102.589844 109.84375 102.050781 109.945312 101.433594 110.097656 C 99.636719 110.507812 97.96875 110.765625 96.148438 111.097656 C 96.121094 111.097656 96.121094 111.074219 96.097656 111.074219 Z M 96.097656 111.074219 " fill-opacity="1" fill-rule="nonzero"/></g><g clip-path="url(#4eb5fd5cf1)"><path fill="#ffbd59" d="M 96.019531 111.046875 C 96.042969 111.023438 96.042969 110.996094 96.070312 110.972656 C 97.277344 110.046875 98.355469 109.226562 99.507812 108.277344 C 99.6875 108.148438 99.84375 108.019531 100.023438 107.890625 C 100.84375 107.226562 101.5625 106.582031 102.382812 105.917969 C 102.410156 105.890625 102.433594 105.839844 102.460938 105.8125 C 108.078125 101.015625 112.851562 96.140625 117.574219 90.390625 C 117.597656 90.367188 117.648438 90.339844 117.675781 90.316406 C 117.933594 89.957031 118.214844 89.648438 118.472656 89.289062 C 118.496094 89.261719 118.546875 89.238281 118.574219 89.210938 C 120.113281 87.234375 121.5 85.515625 122.960938 83.4375 C 123.296875 82.949219 123.601562 82.539062 123.9375 82.054688 C 123.988281 81.976562 124.011719 81.898438 124.066406 81.820312 C 124.808594 80.796875 125.425781 79.871094 126.09375 78.820312 C 126.195312 78.667969 126.296875 78.539062 126.398438 78.382812 C 126.425781 78.332031 126.425781 78.308594 126.453125 78.253906 C 129.839844 73.097656 132.507812 68.121094 135.019531 62.78125 C 136.203125 63.757812 137.332031 64.707031 138.460938 65.757812 C 138.511719 65.8125 138.5625 65.886719 138.613281 65.9375 C 139.769531 66.992188 140.769531 68.070312 141.820312 69.171875 C 141.667969 69.429688 141.460938 69.660156 141.308594 69.941406 C 141.078125 70.277344 140.847656 70.582031 140.613281 70.917969 C 140.5625 70.992188 140.539062 71.070312 140.488281 71.148438 C 138.410156 74.074219 136.5625 76.613281 134.328125 79.332031 C 134.175781 79.488281 134.046875 79.667969 133.890625 79.820312 C 130.070312 84.464844 126.246094 88.519531 121.859375 92.574219 L 121.394531 93.035156 L 120.625 93.726562 C 120.550781 93.78125 120.5 93.832031 120.421875 93.882812 C 120.394531 93.90625 120.371094 93.960938 120.34375 93.984375 C 120.035156 94.191406 119.832031 94.445312 119.550781 94.652344 C 119.523438 94.675781 119.496094 94.730469 119.472656 94.753906 C 117.804688 96.21875 116.265625 97.5 114.519531 98.886719 C 112.289062 100.628906 110.261719 102.117188 107.898438 103.785156 C 107.824219 103.835938 107.746094 103.863281 107.667969 103.914062 C 106.847656 104.53125 106.078125 104.992188 105.230469 105.582031 C 105.179688 105.609375 105.152344 105.609375 105.101562 105.632812 L 104.792969 105.863281 C 104.078125 106.328125 103.460938 106.738281 102.742188 107.171875 C 102.253906 107.457031 101.816406 107.765625 101.304688 108.019531 C 101.226562 108.070312 101.175781 108.121094 101.101562 108.175781 C 100.894531 108.25 100.742188 108.378906 100.535156 108.480469 C 100.226562 108.6875 99.972656 108.816406 99.664062 109.019531 C 99.125 109.328125 98.636719 109.609375 98.097656 109.917969 C 97.378906 110.304688 96.710938 110.664062 96.019531 111.046875 Z M 96.019531 111.046875 " fill-opacity="1" fill-rule="nonzero"/></g><g clip-path="url(#3d32945bff)"><path fill="#ffbd59" d="M 95.789062 110.972656 C 94.839844 110.40625 93.863281 109.917969 92.863281 109.355469 C 92.710938 109.277344 92.582031 109.226562 92.425781 109.125 C 92.296875 109.074219 92.195312 109.019531 92.066406 108.96875 C 85.191406 105.378906 78.3125 102.632812 70.925781 100.347656 C 70.847656 100.324219 70.746094 100.324219 70.667969 100.296875 C 69.949219 100.066406 69.28125 99.859375 68.5625 99.679688 C 68.433594 99.628906 68.332031 99.605469 68.203125 99.554688 C 67.691406 99.398438 67.203125 99.269531 66.691406 99.140625 C 66.382812 99.066406 66.101562 99.015625 65.816406 98.910156 C 65.664062 98.859375 65.484375 98.835938 65.332031 98.808594 C 64.148438 98.476562 63.046875 98.21875 61.816406 97.9375 C 60.402344 97.652344 59.148438 97.347656 57.734375 97.089844 C 55.167969 96.628906 52.835938 96.191406 50.292969 95.882812 C 50.164062 95.882812 50.039062 95.859375 49.910156 95.859375 C 45.238281 95.242188 40.671875 94.910156 36.027344 94.804688 L 36.257812 93.960938 C 36.335938 93.726562 36.386719 93.496094 36.488281 93.265625 C 36.515625 93.1875 36.515625 93.085938 36.539062 93.007812 L 36.617188 92.777344 C 36.617188 92.753906 36.644531 92.703125 36.667969 92.675781 C 37.363281 90.367188 38.207031 88.160156 39.15625 85.980469 C 45.878906 87.132812 52.398438 88.828125 58.914062 91.058594 C 59.042969 91.085938 59.171875 91.136719 59.300781 91.164062 C 65.101562 93.1875 70.566406 95.5 76.03125 98.347656 C 76.160156 98.398438 76.261719 98.449219 76.390625 98.5 C 78.390625 99.554688 80.265625 100.605469 82.238281 101.734375 C 82.316406 101.785156 82.367188 101.835938 82.445312 101.886719 C 83.625 102.554688 84.679688 103.222656 85.859375 103.941406 C 86.113281 104.121094 86.34375 104.273438 86.601562 104.429688 C 86.679688 104.480469 86.730469 104.53125 86.808594 104.582031 C 86.859375 104.609375 86.882812 104.609375 86.9375 104.632812 L 87.242188 104.863281 C 87.601562 105.042969 87.886719 105.273438 88.21875 105.503906 C 88.988281 106.019531 89.679688 106.457031 90.425781 107.019531 C 90.476562 107.046875 90.503906 107.046875 90.554688 107.070312 C 90.808594 107.25 91.015625 107.429688 91.273438 107.609375 C 92.785156 108.660156 94.070312 109.609375 95.507812 110.714844 C 95.609375 110.792969 95.710938 110.867188 95.789062 110.972656 Z M 95.789062 110.972656 " fill-opacity="1" fill-rule="nonzero"/></g><g clip-path="url(#c2184f99fb)"><path fill="#ffbd59" d="M 96.199219 111.097656 C 99.972656 111.152344 103.691406 111.046875 107.464844 110.765625 C 111.160156 110.484375 114.699219 110.046875 118.445312 109.457031 C 118.652344 109.429688 118.855469 109.355469 119.0625 109.328125 C 122.292969 108.816406 125.246094 108.175781 128.425781 107.40625 C 131.6875 106.582031 134.714844 105.710938 137.871094 104.660156 C 137.996094 104.632812 138.125 104.582031 138.253906 104.554688 C 138.332031 104.53125 138.410156 104.480469 138.484375 104.453125 C 138.613281 104.429688 138.742188 104.375 138.871094 104.351562 C 139.484375 104.144531 140.101562 103.914062 140.71875 103.710938 C 140.847656 103.660156 140.949219 103.582031 141.078125 103.554688 C 141.257812 103.53125 141.386719 103.425781 141.566406 103.375 C 142.101562 103.222656 142.617188 102.992188 143.15625 102.8125 C 143.976562 102.503906 144.773438 102.195312 145.59375 101.863281 C 146.566406 101.453125 147.515625 101.066406 148.492188 100.65625 C 148.519531 100.628906 148.570312 100.605469 148.59375 100.578125 C 149.210938 100.324219 149.800781 100.066406 150.417969 99.808594 C 150.441406 99.785156 150.492188 99.757812 150.519531 99.730469 C 150.851562 99.605469 151.160156 99.476562 151.496094 99.320312 C 152.160156 98.960938 152.828125 98.707031 153.496094 98.371094 C 154.496094 97.859375 155.472656 97.371094 156.472656 96.882812 C 156.804688 98.421875 157.113281 99.910156 157.371094 101.503906 C 157.449219 102.117188 157.550781 102.707031 157.628906 103.324219 C 157.730469 104.273438 157.832031 105.199219 157.910156 106.148438 C 138.152344 112.765625 116.777344 114.5625 96.199219 111.097656 Z M 96.199219 111.097656 " fill-opacity="1" fill-rule="nonzero"/></g><g clip-path="url(#73e34d67ff)"><path fill="#ffbd59" d="M 96.121094 110.894531 C 96.6875 110.046875 97.226562 109.226562 97.789062 108.328125 L 98.019531 108.019531 C 101.28125 102.785156 104.023438 97.808594 106.460938 92.316406 C 106.488281 92.292969 106.515625 92.238281 106.539062 92.214844 C 107.769531 89.496094 108.875 86.773438 109.902344 83.976562 C 110.207031 83.15625 110.492188 82.386719 110.773438 81.566406 C 110.800781 81.4375 110.851562 81.308594 110.875 81.179688 C 111.671875 78.871094 112.363281 76.613281 113.058594 74.253906 C 113.082031 74.125 113.109375 74.023438 113.160156 73.894531 C 113.597656 72.277344 114.007812 70.761719 114.390625 69.09375 C 115.289062 65.246094 115.980469 61.679688 116.519531 57.804688 C 116.546875 57.625 116.597656 57.445312 116.625 57.265625 C 116.804688 55.804688 116.984375 54.417969 117.136719 52.957031 C 117.136719 52.878906 117.164062 52.777344 117.1875 52.699219 C 117.265625 52.75 117.34375 52.75 117.417969 52.777344 C 117.523438 52.828125 117.648438 52.878906 117.753906 52.929688 C 117.90625 52.957031 118.0625 53.03125 118.214844 53.082031 C 119.035156 53.390625 119.804688 53.726562 120.625 54.058594 C 121.320312 54.367188 121.960938 54.675781 122.652344 54.984375 C 123.242188 55.265625 123.832031 55.546875 124.425781 55.855469 C 124.859375 56.085938 125.296875 56.34375 125.734375 56.546875 C 125.089844 58.882812 124.425781 61.167969 123.679688 63.5 C 123.65625 63.628906 123.601562 63.757812 123.578125 63.886719 C 123.527344 64.039062 123.449219 64.21875 123.398438 64.375 C 123.371094 64.503906 123.320312 64.628906 123.296875 64.757812 C 122.832031 66.09375 122.371094 67.375 121.910156 68.683594 L 121.679688 69.300781 C 120.652344 71.996094 119.550781 74.613281 118.394531 77.253906 C 118.34375 77.382812 118.265625 77.460938 118.214844 77.589844 C 114.90625 84.851562 111.234375 91.367188 106.410156 98.140625 C 106.359375 98.21875 106.335938 98.296875 106.28125 98.371094 C 104.921875 100.269531 103.71875 101.914062 102.28125 103.710938 C 101.996094 104.042969 101.765625 104.375 101.484375 104.710938 C 101.460938 104.734375 101.40625 104.761719 101.382812 104.789062 C 100.714844 105.683594 100.046875 106.429688 99.328125 107.277344 C 99.226562 107.40625 99.148438 107.53125 99.019531 107.660156 C 98.996094 107.6875 98.945312 107.710938 98.917969 107.738281 C 97.996094 108.867188 97.070312 109.84375 96.121094 110.894531 Z M 96.121094 110.894531 " fill-opacity="1" fill-rule="nonzero"/></g><g clip-path="url(#d8cf98ba2b)"><path fill="#ffbd59" d="M 95.96875 110.84375 C 95.53125 104.660156 94.710938 98.730469 93.351562 92.445312 C 93.351562 92.417969 93.300781 92.367188 93.300781 92.34375 C 93.171875 91.648438 92.992188 91.007812 92.863281 90.316406 C 92.863281 90.289062 92.8125 90.238281 92.8125 90.210938 C 92.761719 89.980469 92.734375 89.777344 92.683594 89.570312 C 92.554688 89.160156 92.503906 88.75 92.351562 88.339844 C 92.296875 88.160156 92.296875 88.007812 92.246094 87.828125 C 91.167969 83.695312 89.988281 79.847656 88.527344 75.894531 C 87.550781 73.328125 86.578125 70.8125 85.472656 68.300781 C 85.421875 68.171875 85.34375 68.09375 85.292969 67.964844 C 85.140625 67.554688 84.960938 67.171875 84.78125 66.761719 C 83.855469 64.757812 82.933594 62.859375 81.90625 60.910156 C 81.804688 60.703125 81.703125 60.523438 81.625 60.320312 C 80.984375 59.0625 80.316406 57.882812 79.621094 56.625 C 79.570312 56.546875 79.519531 56.496094 79.46875 56.417969 C 79.1875 55.855469 78.878906 55.367188 78.570312 54.804688 C 78.109375 54.03125 77.699219 53.316406 77.210938 52.542969 C 77.082031 52.363281 76.980469 52.160156 76.851562 51.980469 C 79.828125 51.03125 82.804688 50.285156 85.960938 49.800781 C 85.988281 49.800781 86.011719 49.875 86.039062 49.902344 C 86.140625 50.160156 86.242188 50.390625 86.34375 50.644531 C 87.167969 52.671875 87.960938 54.675781 88.707031 56.753906 C 88.785156 56.933594 88.835938 57.085938 88.910156 57.265625 C 91.992188 65.992188 94.121094 74.714844 95.351562 83.953125 C 95.351562 84.082031 95.378906 84.207031 95.378906 84.335938 C 96.480469 92.957031 96.6875 101.375 96.019531 109.945312 L 96.019531 110.203125 C 95.992188 110.328125 95.992188 110.457031 95.96875 110.585938 Z M 95.96875 110.84375 " fill-opacity="1" fill-rule="nonzero"/></g><g clip-path="url(#a3d8599c36)"><path fill="#ffbd59" d="M 60.390625 131.601562 L 131.609375 131.601562 L 131.609375 60.382812 L 60.390625 60.382812 Z M 132.601562 132.59375 L 59.398438 132.59375 L 59.398438 59.390625 L 132.601562 59.390625 L 132.601562 132.59375 " fill-opacity="1" fill-rule="nonzero"/></g></svg>