<?xml version="1.0" encoding="utf-8"?>
<!-- Generator: Adobe Illustrator 26.0.1, SVG Export Plug-In . SVG Version: 6.00 Build 0)  -->
<svg version="1.1" id="Layer_1" xmlns="http://www.w3.org/2000/svg" xmlns:xlink="http://www.w3.org/1999/xlink" x="0px" y="0px"
	 viewBox="0 0 256 256" style="enable-background:new 0 0 256 256;" xml:space="preserve">
<style type="text/css">
	.st0{fill:#FFFFFF;}
</style>
<circle cx="128" cy="128" r="127.09"/>
<g>
	<path class="st0" d="M136.3,177.25c-4.75,0-9.43,0-14.18,0c-2.31-8.48-4.61-16.96-6.95-25.58c-0.19,0.32-0.31,0.52-0.43,0.72
		c-7.86,13.23-19.31,21.44-34.46,24.16c-22.26,3.99-44.51-8.08-53.54-28.82c-11.27-25.89,1.37-55.94,27.81-65.85
		c24.13-9.05,50.89,1.79,61.97,25.16c1.45,3.05,2.49,6.23,3.36,9.49c2.26,8.5,4.57,16.98,6.87,25.47
		c3.14,11.56,6.28,23.13,9.42,34.69C136.22,176.85,136.25,177.02,136.3,177.25z M71.94,92.53c-19.42-0.05-35.41,15.8-35.47,35.17
		c-0.06,19.75,15.66,35.68,35.28,35.74c19.68,0.05,35.6-15.78,35.63-35.41C107.4,108.48,91.52,92.57,71.94,92.53z"/>
	<path class="st0" d="M119.81,78.76c3.04,0,5.99,0,8.94,0c1.5,0,2.99,0.04,4.49-0.02c0.61-0.02,0.82,0.18,0.97,0.74
		c2.15,7.98,4.32,15.96,6.48,23.94c0.06,0.21,0.12,0.41,0.21,0.71c0.15-0.23,0.26-0.39,0.36-0.55
		c7.82-13.16,19.19-21.43,34.28-24.09c23.47-4.15,44.83,8.68,53.64,28.6c3.01,6.81,4.44,13.95,4.19,21.38
		c-0.68,20.06-12.86,36.31-29.35,43.61c-7.6,3.36-15.55,4.7-23.82,4.05c-21.16-1.67-38.75-16.66-43.98-37.27
		c-2.64-10.38-5.48-20.7-8.26-31.04c-2.62-9.75-5.28-19.48-7.92-29.22C119.95,79.34,119.89,79.09,119.81,78.76z M184.12,92.53
		c-19.51-0.04-35.47,15.81-35.48,35.36c-0.01,20.15,16.28,35.51,35.28,35.54c19.66,0.04,35.56-15.72,35.62-35.34
		C219.6,108.51,203.73,92.57,184.12,92.53z"/>
</g>
</svg>
