<svg width="256" height="256" viewBox="0 0 256 256" fill="none" xmlns="http://www.w3.org/2000/svg">
<path d="M128 256C153.316 256 178.063 248.493 199.113 234.428C220.162 220.363 236.568 200.373 246.256 176.983C255.945 153.595 258.479 127.858 253.54 103.029C248.602 78.199 236.411 55.3916 218.51 37.4904C200.608 19.5893 177.801 7.39846 152.972 2.45954C128.142 -2.47936 102.405 0.0554537 79.0165 9.74347C55.6277 19.4315 35.6368 35.8375 21.5719 56.887C7.50709 77.9365 0 102.684 0 128C0 161.948 13.4857 194.505 37.4904 218.51C61.495 242.514 94.0522 256 128 256Z" fill="#22A079"/>
<path d="M143.362 138.661V138.641C142.5 138.701 138.048 138.962 128.141 138.962C120.219 138.962 114.664 138.741 112.699 138.641V138.661C82.2363 137.317 59.5146 132.023 59.5146 125.666C59.5146 119.329 82.2564 114.014 112.699 112.67V133.387C114.684 133.527 120.4 133.868 128.281 133.868C137.747 133.868 142.48 133.467 143.362 133.387V112.691C173.765 114.054 196.426 119.348 196.426 125.686C196.426 132.023 173.745 137.317 143.362 138.681V138.661ZM143.362 110.545V92.0145H185.777V63.7578H70.304V92.0145H112.719V110.545C78.2454 112.129 52.3352 118.948 52.3352 127.13C52.3352 135.312 78.2656 142.13 112.719 143.735V203.136H143.382V143.735C177.796 142.15 203.666 135.332 203.666 127.15C203.666 118.988 177.796 112.149 143.382 110.565" fill="#FEFEFE"/>
</svg>
