<svg xmlns="http://www.w3.org/2000/svg" fill="none" viewBox="0 0 256 256">
<circle cx="128" cy="128" r="128" fill="white"/>
<path d="M127.018 55.1672C132.41 54.7576 137.802 55.1672 143.193 55.6792C150.451 56.2935 157.605 57.3175 164.76 58.9558C172.951 60.7989 181.038 63.2564 188.607 67.045C194.828 70.2193 200.531 74.0079 204.471 80.0493C208.929 86.8074 207.789 92.3367 203.123 98.2756C197.42 105.341 189.333 109.13 181.142 112.509C173.158 115.683 164.863 117.526 156.465 118.96C151.592 119.779 146.615 120.495 141.534 120.803C139.979 120.905 138.424 121.11 136.868 121.11C136.039 121.11 135.624 121.007 135.624 119.983C135.52 114.864 135.52 109.846 136.972 104.931C138.113 101.04 141.016 98.6852 144.437 96.9445C148.999 94.6918 153.769 92.8487 158.435 90.6984C160.301 89.8792 161.856 88.7529 163.204 87.3193C165.796 84.5547 165.796 80.9708 163.204 78.3085C159.679 74.7247 155.221 72.984 150.555 71.6528C146.511 70.5265 142.364 69.9121 138.216 69.5025C133.654 69.0929 129.092 68.9906 124.53 69.2977C115.509 69.8097 106.593 71.2433 98.8162 76.5678C97.7793 77.2846 96.8462 78.1037 96.1204 79.1277C94.1504 81.6876 94.3577 83.8379 96.2241 86.705C98.2977 89.8792 101.616 91.4151 104.83 92.9511C109.392 95.1014 114.058 97.0469 118.413 99.6068C120.901 101.04 122.249 103.395 122.975 106.058C124.219 110.665 124.426 115.376 124.323 120.086C124.323 121.007 124.012 121.212 123.182 121.212C119.138 121.315 115.198 120.803 111.155 120.495C105.763 120.086 100.579 119.267 95.2909 118.345C88.033 117.116 80.9824 115.171 74.1393 112.611C68.644 110.563 63.3561 108.003 58.5866 104.522C53.506 100.836 49.7734 96.1253 48.3218 89.9816C47.285 85.4762 48.8402 81.3804 51.7434 77.7966C57.0313 71.2433 64.3929 67.557 71.9619 64.3828C79.3235 61.3109 87.0998 59.263 94.9798 57.9319C101.512 56.8055 108.251 55.8839 114.991 55.6792C118.931 55.2696 122.975 55.2696 127.018 55.1672Z" fill="#F18619"/>
<path d="M177.098 156.129C180.831 154.696 184.667 153.467 188.4 151.726C193.688 149.166 198.25 145.685 202.397 141.384C204.886 144.559 206.959 147.63 207.167 151.829C207.374 156.232 206.13 160.123 203.227 163.399C197.835 169.748 190.785 173.536 183.112 176.506C177.617 178.656 172.018 180.397 166.211 181.626C159.783 182.957 153.251 184.083 146.719 184.8C142.675 185.21 138.631 185.312 134.587 185.721C131.062 186.029 127.641 186.233 124.219 186.029C116.65 185.517 109.081 185.312 101.616 184.186C95.8095 183.264 89.8995 182.24 84.1968 180.807C77.6647 179.168 71.1326 177.018 65.2225 173.741C59.5199 170.669 54.1283 167.29 50.4993 161.761C46.9741 156.232 46.7667 147.221 52.7804 142.408C61.4899 150.907 72.5841 154.696 83.7821 158.28C91.351 160.635 99.0237 161.863 106.8 162.785C115.51 163.809 124.219 164.321 132.825 163.911C139.046 163.604 145.371 163.195 151.592 162.068C155.739 161.351 159.783 160.737 163.93 159.918C164.967 159.713 165.278 160.123 165.174 161.044C165.071 163.502 165.071 165.959 165.174 168.417C165.278 171.079 167.974 173.639 170.981 173.741C173.677 173.844 176.476 171.591 176.683 168.929C177.306 168.314 177.098 167.495 177.098 166.778C177.098 163.194 177.098 159.713 177.098 156.129Z" fill="#F18619"/>
<path d="M53.4025 109.642C57.3425 113.84 61.9046 116.912 66.8815 119.369C75.4873 123.67 84.6115 126.127 94.0468 127.97C100.786 129.302 107.526 130.018 114.369 130.53C117.583 130.735 120.797 130.837 123.908 130.837C125.36 130.837 125.774 131.145 125.774 132.578C125.774 134.728 125.463 136.879 125.982 139.029C126.811 142.511 129.818 144.251 131.995 143.842C135.417 143.227 136.869 141.487 137.18 137.596C137.283 135.752 137.283 133.909 137.18 132.066C137.18 131.145 137.387 130.837 138.424 130.735C146.2 129.711 153.976 129.404 161.649 127.561C163.308 127.151 164.76 127.97 165.589 129.404C166.522 131.042 167.248 132.681 167.248 134.626C167.248 138.415 167.041 142.101 167.352 145.89C167.455 147.63 166.626 148.142 165.278 148.347C160.923 149.064 156.465 149.883 152.11 150.497C141.845 151.931 131.477 152.443 121.212 151.931C114.784 151.624 108.459 151.009 102.031 150.088C93.7358 148.859 85.5447 147.118 77.561 144.251C69.1625 141.282 61.0751 137.596 54.8541 130.837C51.9509 127.663 49.9809 123.977 49.3588 119.779C48.944 117.116 50.2919 114.659 51.5362 112.304C51.9509 111.382 52.6767 110.563 53.4025 109.642Z" fill="#F18619"/>
<path d="M179.482 127.97C179.586 124.899 182.282 124.387 184.356 123.567C190.369 121.11 196.072 118.243 200.945 113.84C202.293 112.611 203.537 111.075 204.781 109.642C208.514 114.352 209.758 119.676 208.203 125.41C207.27 128.79 204.781 131.349 202.293 133.705C198.042 137.596 193.272 140.667 187.985 143.022C185.289 144.251 182.386 145.275 179.586 146.402C179.586 140.155 179.586 134.012 179.482 127.97Z" fill="#F18619"/>
<path d="M213.5 256C236.972 256 256 236.972 256 213.5C256 190.028 236.972 171 213.5 171C190.028 171 171 190.028 171 213.5C171 236.972 190.028 256 213.5 256Z" fill="url(#paint0_linear_3_187)"/>
<path d="M213.715 244.021C205.52 244.021 197.671 240.905 191.784 235.249C185.898 229.593 182.781 221.975 183.012 214.011C183.243 206.046 186.936 198.428 192.708 192.772C198.594 187.116 205.982 184 213.715 184C221.449 184 228.836 187.116 234.723 192.772C240.494 198.428 244.187 206.046 244.418 214.011C244.649 221.975 241.417 229.593 235.646 235.249C229.759 240.905 221.91 244.021 213.715 244.021ZM213.715 186.309C206.559 186.309 199.633 189.194 194.208 194.388C188.783 199.582 185.551 206.623 185.32 214.011C185.09 221.398 188.091 228.439 193.4 233.633C198.825 238.827 206.097 241.713 213.6 241.713C221.218 241.713 228.49 238.827 233.799 233.633C239.224 228.439 242.11 221.398 241.879 214.011C241.648 206.623 238.301 199.582 232.991 194.388C227.797 189.194 220.872 186.309 213.715 186.309Z" fill="white"/>
<path d="M217.64 239.289C210.83 239.289 204.25 236.634 199.518 232.017C194.67 227.4 192.015 221.052 192.131 214.472C192.246 207.893 195.132 201.545 199.98 196.928C204.712 192.311 211.06 189.656 217.524 189.656C223.988 189.656 230.336 192.311 235.184 196.928C240.032 201.545 243.033 207.893 243.149 214.472C243.38 221.052 240.725 227.4 235.877 232.017C230.914 236.634 224.334 239.289 217.64 239.289ZM217.409 191.387C211.407 191.387 205.52 193.811 201.134 198.197C196.748 202.468 194.093 208.355 193.862 214.472C193.747 220.59 196.17 226.477 200.672 230.747C205.174 235.018 211.176 237.557 217.524 237.557C223.873 237.557 229.875 235.133 234.376 230.747C238.878 226.477 241.302 220.59 241.186 214.472C241.071 208.355 238.301 202.468 233.799 198.197C229.298 193.811 223.411 191.387 217.409 191.387Z" fill="white"/>
<path d="M221.564 234.557C216.139 234.557 210.945 232.479 207.136 228.785C203.327 225.092 201.249 220.128 201.249 214.819C201.364 209.625 203.558 204.546 207.251 200.852C211.06 197.159 216.023 195.081 221.218 195.081C226.412 195.081 231.491 197.159 235.3 200.852C239.109 204.546 241.533 209.509 241.648 214.819C241.763 220.013 239.686 225.092 235.877 228.785C232.068 232.479 226.873 234.557 221.564 234.557ZM221.218 196.351C216.37 196.351 211.637 198.313 208.175 201.776C204.712 205.238 202.634 209.971 202.519 214.819C202.519 219.667 204.481 224.399 208.059 227.862C211.637 231.325 216.485 233.287 221.564 233.287C226.643 233.287 231.491 231.325 235.069 227.862C238.647 224.399 240.609 219.667 240.494 214.819C240.378 209.971 238.185 205.238 234.607 201.776C230.798 198.313 226.066 196.351 221.218 196.351Z" fill="white"/>
<path d="M225.489 229.824C221.449 229.824 217.64 228.324 214.87 225.553C212.099 222.783 210.483 219.089 210.483 215.28C210.483 211.471 212.099 207.662 214.87 205.008C217.64 202.237 221.333 200.737 225.258 200.737C229.182 200.737 232.876 202.237 235.762 205.008C238.647 207.778 240.263 211.471 240.379 215.28C240.494 219.089 238.994 222.899 236.108 225.553C233.222 228.208 229.413 229.824 225.489 229.824ZM225.142 201.429C221.449 201.429 217.986 202.93 215.331 205.469C212.676 208.009 211.176 211.587 211.176 215.28C211.176 218.974 212.676 222.437 215.331 225.092C217.986 227.631 221.68 229.132 225.373 229.132C229.182 229.132 232.761 227.631 235.415 225.092C238.07 222.552 239.455 218.974 239.455 215.28C239.34 211.587 237.724 208.124 235.069 205.469C232.414 202.93 228.836 201.429 225.142 201.429Z" fill="white"/>
<defs>
<linearGradient id="paint0_linear_3_187" x1="184.382" y1="190.98" x2="251.189" y2="243.653" gradientUnits="userSpaceOnUse">
<stop offset="4.47534e-07" stop-color="#EB3057"/>
<stop offset="0.0321318" stop-color="#DE2E55"/>
<stop offset="0.1698" stop-color="#AA2850"/>
<stop offset="0.3098" stop-color="#7D224B"/>
<stop offset="0.4492" stop-color="#581D46"/>
<stop offset="0.5882" stop-color="#3B1A43"/>
<stop offset="0.7266" stop-color="#271741"/>
<stop offset="0.8641" stop-color="#1B163F"/>
<stop offset="1" stop-color="#17153F"/>
</linearGradient>
</defs>
</svg>