<svg xmlns="http://www.w3.org/2000/svg" width="256.051" height="256.051" viewBox="0 0 1536 1536">
  <defs>
    <style>
      .cls-1 {
        fill: #19191e;
        stroke: #000;
        stroke-width: 1px;
      }

      .cls-2 {
        fill: none;
        stroke: #f0f0f0;
        stroke-width: 20px;
      }

      .cls-3 {
        fill: #f0f0f0;
        fill-rule: evenodd;
      }
    </style>
  </defs>
  <circle class="cls-1" cx="767.999" cy="767.999" r="743.561"/>
  <circle class="cls-2" cx="767.998" cy="767.998" r="729.592"/>
  <path id="Color_Fill_1" data-name="Color Fill 1" class="cls-3" d="M689,279H801c12.7,0,31.725-2.186,41,2q142.986,258.974,286,518,33,59.495,66,119c8.98,15.315,27.25,36.256,30,55q-33.99,62.49-68,125-287.472.495-575,1H437c-17.876,0-48.26,3.15-58-3l-51-97c-4.256-8.141-19.616-22.711-15-37Zm12,10,319,564H663q-32.5,56.994-65,114h611Q1020.525,628.035,832,289H701Zm-10,8L420,793,353,915c-8.918,15.306-27.189,38.1-29,55q30,55.5,60,111c0.667-.33,1.333-0.67,2-1L701,513l3,2L877,843h124v-1Zm10,238L394,1088h672c26.45,0,58.94,2.83,82-2,23.32-31.5,41.15-72.27,59-108v-1H580v-1L764,654Zm68,132q-48.995,87.491-98,175H863Z"/>
</svg>
