<?xml version="1.0" encoding="UTF-8"?><svg xmlns="http://www.w3.org/2000/svg" viewBox="0 0 500 500"><defs><style>.d{fill:#fff;}</style></defs><g id="a"/><g id="b"><g id="c"><rect class="d" width="500" height="500"/><g><path d="M211.04,224.07c2.59,9.63,4.61,17.18,6.85,25.51,6.76,.39,12.7,.43,18.57,1.13,12.66,1.5,19.29,12.55,12.93,22.22-2.14,3.25-6.61,5.41-10.46,6.95-2.81,1.12-6.35,.51-9.57,.51-33.4,.02-66.8,.03-100.2,0-3.61,0-7.3,.06-10.83-.57-6.13-1.09-9.96-5.02-11.33-11.09-1.42-6.3,.93-12.3,6.99-15.22,3.82-1.84,8.41-2.73,12.69-2.82,14.88-.34,29.78-.09,44.67-.21,4.27-.03,8.54-.57,14.45-.99-1.25-6.39-1.88-11.45-3.24-16.31-11.64-41.4-23.37-82.76-35.15-124.12-4.59-16.13-12.8-22.26-29.76-22.36-17.71-.11-35.41-.09-53.12-.19-3.61-.02-7.3,.07-10.82-.58-7.61-1.4-12.8-7.52-13.35-15.04-.58-8.07,4.1-15.23,11.9-17.44,3.04-.86,6.35-1.07,9.54-1.08,19.72-.08,39.44-.24,59.15,.04,28.81,.41,50.88,17.33,58.31,45.09,7.07,26.4,13.48,52.98,20.23,79.47,1.17,4.6,2.57,9.15,4.01,14.25,4.21,.36,7.72,.92,11.24,.93,30.58,.07,61.17-.06,91.75,.1,8.35,.05,15.96-2.02,22.86-6.47,19.26-12.44,18.97-37.74-.47-49.91-7.43-4.65-15.64-6.02-24.25-6-23.74,.05-47.49,.04-71.23-.03-4-.01-8.13,.02-11.98-.89-7.95-1.86-12.64-9.01-11.95-17.2,.65-7.73,5.83-13.35,13.59-14.64,1.58-.26,3.21-.35,4.81-.34,28.97,.05,57.98-.72,86.91,.41,36.82,1.44,64.68,33.05,61.1,68.3-.84,8.25-3.9,16.28-6.31,25.86,3.51,.93,7.16,2.11,10.9,2.84,48.79,9.55,79.74,51.74,72.19,100.65-4.57,29.61-23.02,49.78-49.54,62.77-13.24,6.48-27.47,9.12-42.1,9.2-32.59,.18-65.19,.17-97.79,.03-11.4-.05-22.29-2.51-32.36-8.27-10.65-6.09-18.14-14.47-20.89-26.68-1.49-6.65-3.8-13.19-4.52-19.92-.94-8.8,3.6-14.57,11.12-16.03,7.69-1.5,13.95,1.82,17.32,9.65,1.74,4.04,3.4,8.26,4.11,12.57,1.73,10.6,9.08,14.53,18.32,16.4,2.73,.55,5.61,.5,8.42,.5,32.6,.03,65.19,.06,97.79-.02,17.74-.04,33.13-6.37,45.7-18.75,24.93-24.55,20.64-63.25-8.94-81.96-11.43-7.23-23.94-11.53-37.57-11.57-45.88-.14-91.75-.13-137.63-.08-3.5,0-6.99,.74-13.04,1.42Z"/><path d="M98.03,222.52c-13.23,0-26.47,.23-39.7-.08-9.12-.21-14.04-4.52-15.3-12.25-1.59-9.66,4.26-17.21,14.65-17.8,9.6-.55,19.24-.2,28.87-.21,16.84-.02,33.69-.19,50.53,.06,9.99,.15,15.84,5.32,16.63,13.75,.89,9.53-4.56,16.06-14.77,16.38-13.62,.43-27.27,.11-40.9,.11v.04Z"/><path d="M372.57,439.71c-16.67,.12-29.92-13.17-29.75-29.86,.16-16.09,13.24-29.18,29.22-29.25,16.67-.07,30.01,13.29,29.89,29.9-.12,15.94-13.33,29.08-29.36,29.2Zm-.58-40.07c-4.8,.15-9.67,5.31-9.75,10.33-.07,5.04,4.79,10.05,9.8,10.11,5.6,.07,10.75-5.32,10.36-10.82-.36-4.99-5.53-9.77-10.42-9.62Z"/><path d="M314.32,410.02c.18,16.27-12.42,29.35-28.61,29.7-16.74,.36-30.27-12.81-30.2-29.37,.08-16.9,13.11-29.88,29.89-29.76,16.12,.11,28.73,12.95,28.91,29.43Zm-19.43-.07c-.03-5.27-4.85-10.3-9.87-10.27-5.12,.02-10.05,4.97-10.1,10.13-.05,5.19,4.79,10.12,9.99,10.18,5.32,.06,10.01-4.66,9.98-10.04Z"/><path d="M149.37,342.99c-6.42,0-12.86,.38-19.25-.09-9.88-.72-16.44-7.39-16.35-15.87,.09-8.34,5.8-14.33,15.73-14.74,13.21-.55,26.48-.55,39.69,.07,10.32,.48,15.56,6.07,15.63,14.72,.07,8.85-6.09,15.11-16.2,15.78-6.39,.42-12.83,.08-19.25,.08v.05Z"/><path d="M77.1,312.26c9.57-.16,16.23,6.12,16.22,15.3,0,8.25-6.74,14.98-15.3,15.29-8.83,.32-16.41-6.94-16.29-15.61,.11-8.64,6.47-14.83,15.38-14.98Z"/><path d="M371.99,399.64c4.89-.15,10.06,4.63,10.42,9.62,.4,5.5-4.76,10.88-10.36,10.82-5.02-.06-9.88-5.07-9.8-10.11,.07-5.02,4.94-10.18,9.75-10.33Z"/><path d="M294.89,409.95c.03,5.38-4.67,10.09-9.98,10.04-5.2-.06-10.03-4.99-9.99-10.18,.05-5.16,4.98-10.11,10.1-10.13,5.02-.02,9.85,5,9.87,10.27Z"/></g></g></g></svg>