<svg width="256" height="256" fill="none" xmlns="http://www.w3.org/2000/svg"><g clip-path="url(#a)"><circle cx="128" cy="128" r="128" fill="#331300"/><circle cx="128" cy="128" r="127" fill="url(#b)"/><path fill-rule="evenodd" clip-rule="evenodd" d="m123.572 211.284.13.16c.07.02.4-.12.48.73.03.38-.02.76-.09 1.04-.14.59-.26 1.13-.16 1.87.21 1.52 1.87 2.67 2.67 2.99.15.06.25.09.39.15 1.18.47 2.39-.18 3.33-.33 1.03-.18 1.1.33 1.52.41l.8-1.02c-1.85.43-.1-2.19-2.12-4.7-1.33-1.67-3.21-1.12-5.62-1.24l-.46-.82-.87.76z" fill="#FDC80C"/><path fill-rule="evenodd" clip-rule="evenodd" d="M125.322 220.464c1.05.97 3.65.07 4.58-.38.27-.41.37-.3.67-.59-.84.19-.53.12-1.29-.04-.89-.19-1.61-.15-2.6-.49l-.84-.34c-.2-.15-.08-.02-.21-.23l-1.51-1.25-.42-.5c-.42-.75-1.16-3.66-1.16-3.92-.67.65-.98 3.98 1.17 5.93 2.04 1.86 3.34 1.67 6.14 1.2-1.48 1.26-2.94.56-4.53.61z" fill="#8E5A04"/><path fill-rule="evenodd" clip-rule="evenodd" d="m142.052 210.564.07.04c.39.34.85.8.88 1.48.04.87.01 1.28.51 1.76.49.48 1.09.37 1.86.42.69.05 1.07.73 1.55.68l.38-.52c-1.79-.55-.76-1.68-1.76-2.7-.51-.52-.88-.42-1.71-.56-.73-.12-1.01-.88-.98-1.17l-.8.57z" fill="#FDC910"/><path fill-rule="evenodd" clip-rule="evenodd" d="M108.722 210.334c-.05.42-.11.14.36.82.19.27.31.48.34.84.15 2.02.31 2.13 2.3 2.28.78.06 1.01.6 1.61.73l.31-.48c-.28-.05-.86-.52-.97-.74-.21-.4-.31-.94-.42-1.41-.22-.92-1.34-1.08-2.45-1.13l-.79-1.09-.29.18z" fill="#FDC80C"/><path fill-rule="evenodd" clip-rule="evenodd" d="M122.092 212.734c-.13.69-.61 1.05-.65 2.37-.03 1.22.14 1.74.53 2.62.45.99 2.18 2.82 3.35 2.74 1.59-.05 3.05.65 4.53-.61-2.8.47-4.1.66-6.14-1.2-2.15-1.95-1.84-5.28-1.17-5.93.16-.73.09-.2-.09-.43-.12.24-.08.29-.36.44z" fill="#7A4306"/><path fill-rule="evenodd" clip-rule="evenodd" d="m124.442 210.524.46.82c2.41.12 4.29-.43 5.62 1.24 2.02 2.51.27 5.13 2.12 4.7l.42-1.08c-.75.38-.86-1.55-1.21-2.12-.52-.84-.65-1.52-1.34-2.05-2.78-2.14-3.13-.77-4.82-2.04l.25-.19-1.5.72z" fill="#FFD02F"/><path fill-rule="evenodd" clip-rule="evenodd" d="m141.262 211.154-.38.75c.13-.1.45-.47.54-.61-.34 1.54-.43 2.5.53 3.67.88 1.08 1.85 1.2 3.55 1.02-.01.02-.14.26-.16.29l.48-.19c.12-.23-.12-.05.17-.25l-.65-.43c-1.05-.62-2.09-.29-3.06-2.41-.37-.79-.26-.84-.79-1.46l.24-.65c-.27.12-.21.13-.47.27zM107.422 211.694c.02-.02.05-.04.06-.05l.33-.37c-.01.68-.34 1.33-.16 2.14.26 1.19 1.15 2.17 2.29 2.52 1.1.34 1.58-.08 1.81.11.22.18.17-.26.06.18l.6-.36-.62-.55c-.24-.19-.5-.21-.86-.32-1.55-.46-1.85-1.15-2.34-2.44-.42-1.12-.77-.79-.59-1.35.08-.24.01-.07.14-.21l-.72.7z" fill="#8E5A04"/><path fill-rule="evenodd" clip-rule="evenodd" d="M156.792 211.814c-.64.07-.92.35-1.75.1-1.54-.46-1.97-2.57-.85-3.58-.06 1.07-.32 1.63.46 2.52.53.61 1.45.83 2.48.63l-.34.33zm0 .16v-.16c.41-.12.13-.18.61-.3l-.21-.29a.218.218 0 0 1-.04-.05c-.89-1.06-1.1-.72-1.35-1.31l-.08-.07c-.37-.22-.47-.46-.69-.7-.23-.24-.43-.41-.69-.57.02-.32.07-.33-.03-.5-.94.49-1.18 2.06-.6 3.04.26.45.63.78 1.2.99.77.3 1.2.06 1.88-.08z" fill="#945A07"/><path fill-rule="evenodd" clip-rule="evenodd" d="M107.422 211.694c-1.01.92-.35 3.18.43 3.99.42.43 1.04.84 1.79.95.65.09 1.78.02 2.17-.41.11-.44.16 0-.06-.18-.23-.19-.71.23-1.81-.11-1.14-.35-2.03-1.33-2.29-2.52-.18-.81.15-1.46.16-2.14l-.33.37c-.01.01-.04.03-.06.05z" fill="#834C05"/><path fill-rule="evenodd" clip-rule="evenodd" d="M96.242 208.974c.7-.51-.42.44.2-.18l.32-.44c-.03 1.07-.25 1.69.47 2.49.45.5 1.54.97 2.47.65-.34.19-.27.1-.41.41.43-.12.49-.27.79-.55-.93-1.17-1.09-.89-1.73-1.53-.3-.31-.38-.59-.72-.93-.37-.38-.7-.3-.58-.97-.37.33-.67.47-.81 1.05z" fill="#945A07"/><path fill-rule="evenodd" clip-rule="evenodd" d="M133.082 214.084c.3-1.68-2.56-4.43-4.19-4.32l-.81-.05c.27.16.34.29.71.48.74.4 1.64.98 2.2 1.55.53.54 1.91 2.36 2.06 2.78l.03-.44z" fill="#FEE484"/><path fill-rule="evenodd" clip-rule="evenodd" d="m140.882 211.904-.18.54c-.24 1.44.04 2.66 1 3.4 1.75 1.34 2.93.55 3.64.43.02-.03.15-.27.16-.29-1.7.18-2.67.06-3.55-1.02-.96-1.17-.87-2.13-.53-3.67-.09.14-.41.51-.54.61z" fill="#7A4306"/><path fill-rule="evenodd" clip-rule="evenodd" d="m125.942 209.804-.25.19c1.69 1.27 2.04-.1 4.82 2.04.69.53.82 1.21 1.34 2.05.35.57.46 2.5 1.21 2.12l.15-.73c-.29.02-.24 0-.43-.3-.44-.73-.86-2.22-1.96-3.26-1.36-1.29-3.11-1.51-3.85-2.18.02-.02.09-.16.11-.18l-1.14.25z" fill="#FFD851"/><path fill-rule="evenodd" clip-rule="evenodd" d="m109.012 210.154.79 1.09c1.11.05 2.23.21 2.45 1.13.11.47.21 1.01.42 1.41.11.22.69.69.97.74l.4-.97-.41.01c-.15-.2-.28-.28-.44-.48-.36-.49-.9-1.98-2.22-2.34-.79-.21-.56-.32-1.08-.69l.09-.34c-.43.07-.73.23-.97.44z" fill="#FFD335"/><path fill-rule="evenodd" clip-rule="evenodd" d="M123.232 211.724c-.35.53-.17.34.02.98.14.46.04 1.05.09 1.56.11 1.03.2 1.76.69 2.51.92 1.04 1.34 1.62 3.09 1.95 1.64.31 2.79-.23 3.6.08.42.17.54.33.83-.18-.44.03-.54-.36-1.61-.22-1.97.27-3.13.39-4.75-.76-1.46-1.03-1.57-2.62-1.39-4.29.09-.91-.07-1.2-.1-1.91l-.13-.16c-.14.13-.25.29-.34.44z" fill="#D9A408"/><path fill-rule="evenodd" clip-rule="evenodd" d="m131.552 218.624.29-.32c-.42-.08-.49-.59-1.52-.41-.94.15-2.15.8-3.33.33-.14-.06-.24-.09-.39-.15-.8-.32-2.46-1.47-2.67-2.99-.1-.74.02-1.28.16-1.87.07-.28.12-.66.09-1.04-.08-.85-.41-.71-.48-.73.03.71.19 1 .1 1.91-.18 1.67-.07 3.26 1.39 4.29 1.62 1.15 2.78 1.03 4.75.76 1.07-.14 1.17.25 1.61.22z" fill="#EBB408"/><path fill-rule="evenodd" clip-rule="evenodd" d="M133.212 215.474c.01-.2.02-.43.02-.64v-.37c-.06-.42.06-.13-.15-.38l-.03.44c-.15-.42-1.53-2.24-2.06-2.78-.56-.57-1.46-1.15-2.2-1.55-.37-.19-.44-.32-.71-.48l.81.05c-.33-.32-1.26-.22-1.81-.21-.02.02-.09.16-.11.18.74.67 2.49.89 3.85 2.18 1.1 1.04 1.52 2.53 1.96 3.26.19.3.14.32.43.3z" fill="#FEDD6C"/><path fill-rule="evenodd" clip-rule="evenodd" d="M96.242 208.974c-.89 1.7.8 3.7 3.05 2.93.14-.31.07-.22.41-.41-.93.32-2.02-.15-2.47-.65-.72-.8-.5-1.42-.47-2.49l-.32.44c-.62.62.5-.33-.2.18z" fill="#7A4306"/><path fill-rule="evenodd" clip-rule="evenodd" d="m109.982 209.714-.09.34c.52.37.29.48 1.08.69 1.32.36 1.86 1.85 2.22 2.34.16.2.29.28.44.48l.41-.01c.11-.37.14-1.14-.07-1.37l.01.47c-.41-.13-1.17-1.02-1.54-1.38-.35-.33-1.37-1.18-1.48-1.59l.67.04c-.32-.21-1.29-.26-1.65-.01z" fill="#FFDB5D"/><path fill-rule="evenodd" clip-rule="evenodd" d="M142.852 209.994c-.03.29.25 1.05.98 1.17.83.14 1.2.04 1.71.56 1 1.02-.03 2.15 1.76 2.7l.29-.7c-1.02.03-1.05-1.48-1.88-2.26-.63-.59-2.61-1.02-2.15-1.77l-.71.3z" fill="#FFD335"/><path fill-rule="evenodd" clip-rule="evenodd" d="M113.972 212.184c.02-1.04-1.34-2.38-2.34-2.46l-.67-.04c.11.41 1.13 1.26 1.48 1.59.37.36 1.13 1.25 1.54 1.38l-.01-.47zM147.592 212.024c-.11-1.11-1.52-2.5-2.78-2.36l-.26.05c.13.33.46.53.71.74.42.37 1.97 2 2.3 2.1l.03-.53z" fill="#FEE484"/><path fill-rule="evenodd" clip-rule="evenodd" d="m156.792 211.814.34-.33c-1.03.2-1.95-.02-2.48-.63-.78-.89-.52-1.45-.46-2.52-1.12 1.01-.69 3.12.85 3.58.83.25 1.11-.03 1.75-.1z" fill="#733E06"/><path fill-rule="evenodd" clip-rule="evenodd" d="M97.392 207.654c.11.24.51.68.68.89l.69.96c.21.2.21.12.46.27.46.26 1 .93 1.48 1.02.19-.27.21-.17.31-.58-.3.04-.22.03-.52-.15-.18-.1-.26-.15-.46-.26-.56-.31-.33-.47-.71-.85-.32-.32-.58-.26-.85-.62-.24-.32-.49-.73-.45-1.11-.32.12-.46.25-.63.43z" fill="#FBCA1A"/><path fill-rule="evenodd" clip-rule="evenodd" d="M122.092 212.734c.28-.15.24-.2.36-.44.18.23.25-.3.09.43 0 .26.74 3.17 1.16 3.92l.42.5-.09-.37c-.49-.75-.58-1.48-.69-2.51-.05-.51.05-1.1-.09-1.56-.19-.64-.37-.45-.02-.98-.02-.03-.07-.09-.08-.06l-.16-.08c-.32-.04-.84.88-.9 1.15z" fill="#AA7505"/><path fill-rule="evenodd" clip-rule="evenodd" d="M141.262 211.154c.26-.14.2-.15.47-.27l-.24.65c.53.62.42.67.79 1.46.97 2.12 2.01 1.79 3.06 2.41l.65.43c-.29.2-.05.02-.17.25l.52-.41-.7-.57c-1.19-.73-2.48.25-3.19-2.76-.09-.4-.15-.57-.35-.84-.18-.24-.33-.33-.28-.57.1-.53-.02-.07.14-.28l.16-.05-.07-.04c-.16-.09-.61.37-.79.59z" fill="#AC7808"/><path fill-rule="evenodd" clip-rule="evenodd" d="m109.252 213.344.12.38c.39.23.39.44.85.61.93.33 1.49-.03 2.23.59.3.25.4.46.67.31.33-.18.06.01.21-.23-.6-.13-.83-.67-1.61-.73-1.99-.15-2.15-.26-2.3-2.28-.03-.36-.15-.57-.34-.84-.47-.68-.41-.4-.36-.82l-.33.38c.11.39.26.43.53.88.22.37.29 1.19.33 1.75zM146.922 214.944c-.48.05-.86-.63-1.55-.68-.77-.05-1.37.06-1.86-.42-.5-.48-.47-.89-.51-1.76-.03-.68-.49-1.14-.88-1.48l-.16.05c.1.81.57.4.78 1.64.13.77.1 1.39.68 1.83.67.5 1.46.25 2.03.47.69.26.97 1.14 1.47.35z" fill="#E6AD06"/><path fill-rule="evenodd" clip-rule="evenodd" d="M158.482 208.634c-.01-.49-.29-.75-.59-1.02-.35-.34-.66-.49-1.11-.52l-.3.04c-.06.39.36.89.65 1.14.46.42.55.63 1.36.67l-.01-.31z" fill="#FEE484"/><path fill-rule="evenodd" clip-rule="evenodd" d="M112.412 215.864s.31-.02.26-.27c-.04-.2-.79-.68-1.49-.81-.69-.13-1.56-.42-1.81-1.06l-.12-.38c-.33-.29-.34-.91-.45-1.27-.15-.47-.39-.55-.66-1.08-.13.14-.06-.03-.14.21-.18.56.17.23.59 1.35.49 1.29.79 1.98 2.34 2.44.36.11.62.13.86.32l.62.55z" fill="#B67808"/><path fill-rule="evenodd" clip-rule="evenodd" d="m144.092 209.604-.11.17c-.01.01-.04.08-.06.1.75.73 1.94 1.15 2.74 2.47.37.59.47.58.84.98.06-.19.03-.05.19-.15.06-.34.09-.85-.1-1.15l-.03.53c-.33-.1-1.88-1.73-2.3-2.1-.25-.21-.58-.41-.71-.74l.26-.05-.13-.07c-.19-.05-.4-.1-.59.01z" fill="#FFDC63"/><path fill-rule="evenodd" clip-rule="evenodd" d="M143.562 209.694c-.46.75 1.52 1.18 2.15 1.77.83.78.86 2.29 1.88 2.26l.1-.55c-.16.1-.13-.04-.19.15-.37-.4-.47-.39-.84-.98-.8-1.32-1.99-1.74-2.74-2.47.02-.02.05-.09.06-.1l.11-.17-.53.09z" fill="#FFD851"/><path fill-rule="evenodd" clip-rule="evenodd" d="M129.902 220.084c.47-.16 1-.59 1.22-.97-.86.2-.22.29-1.09-.02l-.06-.03c-.38-.11-.72-.04-1.52-.06-1.39-.03-1.69-.39-2.82-.61.13.21.01.08.21.23l.84.34c.99.34 1.71.3 2.6.49.76.16.45.23 1.29.04-.3.29-.4.18-.67.59z" fill="#A67302"/><path fill-rule="evenodd" clip-rule="evenodd" d="m154.832 207.714 1.36 1.78c.16.16.32.17.52.3l.94.71c.33.25.17.22.51.16.17-.16.07-.04.18-.28-.85.03-1.67-1.37-1.67-1.37-.37-.34-.4.06-.9-.66-.16-.23-.55-.75-.62-.96l-.32.32z" fill="#FDC910"/><path fill-rule="evenodd" clip-rule="evenodd" d="M155.532 207.204c.07.28.32.67.49.91.19.26.47.4.78.67.5.44.92 1.29 1.72 1.16l.13-.52c-.19.14-.25.14-.51.06-.4-.14-2.14-1.63-2.07-2.33l.41-.02.3-.04c-.19-.13.06-.04-.27-.09-.07-.01-.34 0-.42.01-.18.02-.41.11-.56.19z" fill="#FED64B"/><path fill-rule="evenodd" clip-rule="evenodd" d="M155.152 207.394c.07.21.46.73.62.96.5.72.53.32.9.66 0 0 .82 1.4 1.67 1.37l.18-.44c-.8.13-1.22-.72-1.72-1.16-.31-.27-.59-.41-.78-.67-.17-.24-.42-.63-.49-.91-.29.08-.18.02-.38.19z" fill="#FFD02B"/><path fill-rule="evenodd" clip-rule="evenodd" d="m101.022 208.694.02-.04c-.2.28.22.18-.37.17-.25-.01-.65-.36-.8-.52-.33-.33-.51-.54-.61-1.08l.47.06c-.1-.11.12-.09-.33-.17-.44-.07-.34-.02-.76.07.14.75 1.61 2.19 2.38 2.37.08-.42.13-.47 0-.86z" fill="#FEDD6C"/><path fill-rule="evenodd" clip-rule="evenodd" d="M101.042 208.654c-.02-.57-.81-1.34-1.31-1.37l-.47-.06c.1.54.28.75.61 1.08.15.16.55.51.8.52.59.01.17.11.37-.17z" fill="#FDE48B"/><path fill-rule="evenodd" clip-rule="evenodd" d="M98.022 207.224c-.04.38.21.79.45 1.11.27.36.53.3.85.62.38.38.15.54.71.85.2.11.28.16.46.26.3.18.22.19.52.15l.14-.27c-.77-.18-1.1-.61-1.69-1.15-.39-.35-1.18-.92-1.07-1.67l-.37.1z" fill="#FED33B"/><path fill-rule="evenodd" clip-rule="evenodd" d="M145.342 216.274c-.71.12-1.89.91-3.64-.43-.96-.74-1.24-1.96-1-3.4-.27.13-.32.38-.3 1.02.06 1.66 1.34 3.12 2.95 3.28.53.06 1.14.02 1.64-.17.37-.14.31-.19.35-.3z" fill="#A66809"/><path fill-rule="evenodd" clip-rule="evenodd" d="M101.152 209.944c.03-.16.05-.43.06-.6 0-.03-.02-.33-.03-.36-.07-.26.03-.1-.16-.29.13.39.08.44 0 .86-.77-.18-2.24-1.62-2.38-2.37.42-.09.32-.14.76-.07-.27-.13-.71-.13-1.01.01-.11.75.68 1.32 1.07 1.67.59.54.92.97 1.69 1.15z" fill="#FFD851"/><path fill-rule="evenodd" clip-rule="evenodd" d="M158.652 209.424c0-.18.01-.26-.02-.45-.09-.44-.01-.19-.15-.34l.01.31c-.81-.04-.9-.25-1.36-.67-.29-.25-.71-.75-.65-1.14l-.41.02c-.07.7 1.67 2.19 2.07 2.33.26.08.32.08.51-.06z" fill="#FFDC63"/><path fill-rule="evenodd" clip-rule="evenodd" d="M100.702 210.794c-.48-.09-1.02-.76-1.48-1.02-.25-.15-.25-.07-.46-.27l-.69-.96c-.17-.21-.57-.65-.68-.89-.16.16-.08-.17-.16.25-.06.31-.01.15.1.28.11.13.33.31.47.46.17.18.29.3.41.49.13.21.16.38.35.57.17.17.29.18.51.3.59.31 1.14.98 1.32.98.38.01.16.07.31-.19zM158.162 210.664c-.34.06-.18.09-.51-.16l-.94-.71c-.2-.13-.36-.14-.52-.3l-1.36-1.78-.19.16.18.25c.02.03.16.18.21.24.17.17.23.22.38.43.89 1.25-.09.5 1.22 1.26.69.39 1.16 1.35 1.53.61z" fill="#E6AD06"/><path fill-rule="evenodd" clip-rule="evenodd" d="M156.792 211.814v.16c.54-.24.62-.52.95-.8-.75-.38-.97-1.02-1.94-1.31.25.59.46.25 1.35 1.31.01.02.03.04.04.05l.21.29c-.48.12-.2.18-.61.3zM154.312 208.024c.1.17.05.18.03.5.26.16.46.33.69.57.22.24.32.48.69.7-.22-.83-.86-1.18-1.09-1.48-.12-.15-.08-.05-.11-.25l-.01-.27-.2.23z" fill="#AC7808"/><path fill-rule="evenodd" clip-rule="evenodd" d="M99.5 109.576 97 113c.189 1.065 7.292 1.719 8.341 1.659 2.906-.195 4.61-.329 7.159-.779l3.5-2.97-.85-1.334c-.482-.315-.986-1.155-1.595-1.605-2.843-1.664-4.584-2.937-8.214-1.933-1.259.36-2.218.476-3.341 1.12-1.07.615-1.85 2.088-2.5 2.418zM141.51 107.12l-3.51 3.849.094.293 2.552 1.515c2.646.618 6.479 1.507 9.354 1.723 1 .077 6.344-.981 6.5-1.723l-2.073-2.396-2.437-2.04c-1.271-.603-2.094-1.267-3.48-1.715-1.593-.511-2.385-.511-4.052-.588l-2.948 1.082z" fill="#FFE637" fill-opacity=".81"/><g filter="url(#c)" fill-rule="evenodd" clip-rule="evenodd" fill="#fff"><path d="m100.17 110.02-2.74 2.91c.18.71 6.95.18 7.95.14 2.77-.13 4.79-.86 7.22-1.16l2.94-1.34-.81-.89c-.46-.21-.94-.77-1.52-1.07-2.71-1.11-3.47-1.67-6.93-1-1.2.24-2.19.53-3.26.96-1.02.41-2.23 1.23-2.85 1.45zM141.77 108.1l-3.37 2.49.09.19 2.45.98c2.54.4 4.65 1.16 7.41 1.3.96.05 8.14.35 8.29-.13l-2.47-2.72-2.34-1.32c-1.22-.39-2.01-.82-3.34-1.11-1.53-.33-2.29-.33-3.89-.38l-2.83.7z"/></g><g filter="url(#d)" fill="#E2A701"><path fill-rule="evenodd" clip-rule="evenodd" d="m137.304 33.261-6.21 1.46c-.161.175-.411.262-.683.357-.117.04-.237.082-.357.133a5.985 5.985 0 0 1-.565.182c-.148.042-.304.086-.485.148-.703.242-2.264.915-3.599 1.491-1.094.473-2.037.88-2.231.929.183-.28.896-.754 1.243-.985l.037-.025.01-.28c-.9.28-2.82 1.49-3.52 1.97-.451.297-.87.78-1.256 1.225-.289.335-.561.648-.814.845-.513.4-.517.135-.519-.009-.002-.086-.002-.13-.111.039l.06.67c-.27.19-.46.32-.82.17l.07.38c-.08.48-.21.54-.71.52l-.15-.3-.2.06a.218.218 0 0 0 .076.042c.047.016.071.025.134.258.045.133.04.179.03.27-.003.032-.007.07-.01.12-1.115.517-1.263-.06-1.451-.79-.07-.271-.146-.564-.279-.83-.152-.32-.36-.582-.562-.837-.354-.449-.69-.874-.678-1.543l.51.02c.031-.195-.014-.253-.07-.324-.053-.068-.115-.147-.13-.366.23-.09.56-.1.85.02.132.06.138.066.152.085.008.009.018.021.048.045.35.142.58.32.799.489.151.116.296.227.471.321-.39-.79-1.55-1.34-2.44-1.64l-1.68-.29-.71-.05-.519-.007h-.016c-1.478-.02-2.694-.035-4.215.117-.76.08-1.39.18-2.13.3-.224.038-.464.098-.705.157-.447.111-.897.223-1.255.203-.15.129-1.962.668-3.203 1.037-.492.147-.893.266-1.067.323-.304.102-.839.32-1.425.557-1.073.434-2.322.94-2.665.953l.13-.85-.95 1.69c-.22.28-.79 1.25-.92 1.67-.01.03-.08.12-.1.13a.183.183 0 0 0-.01.013c-.016.02-.042.053-.05.037-.008-.017-.044.022-.067.047l-.008.008-.005.005-.39.98c-.172.572-.436.6-.725.632-.282.031-.588.065-.855.608l-.99 1.42a.365.365 0 0 0-.067.081.907.907 0 0 0-.123.069c-.162.415-.34.782-.517 1.148-.37.761-.737 1.517-.953 2.692-.17.92-.09 4.12.09 5.07.226.146.356.16.465.172.181.02.302.032.695.638.653.995 1.418 1.672 1.979 2.169.453.401.773.684.791.921a.168.168 0 0 0 .019.013l.013.008c.069.041.172.103.138.469-.03.33-.21.52-.57.45-.29-.048-.294-.083-.298-.132a.116.116 0 0 0-.032-.078l-.5.01c.375.128.38.227.4.584v.016c-.32.1-.51.11-.9.01l-.18-.43-.07.01.03.49c-.226 0-.317-.025-.413-.052a1.475 1.475 0 0 0-.377-.058l.05.01v.09l.86.36c-.17.214-.407.296-.678.39l-.025.009-.082.029-.035.012c-.877.337-1.672.743-2.487 1.159-.393.2-.79.403-1.203.601a3.785 3.785 0 0 0-.537.309c-.229.152-.429.285-.943.421.245-.392.353-.418.409-.432a.096.096 0 0 0 .028-.01c.031-.019.038-.08.069-.402l.014-.146-2.13 1.39c-.086.103-.18.18-.274.258-.08.067-.163.135-.246.222-.117.122-.17.209-.224.297a1.63 1.63 0 0 1-.246.323l-3.14 3.36c-.439.532-.771.907-1.075 1.25-.545.617-.998 1.129-1.815 2.26-.053.072-.112.157-.175.249-.243.353-.553.804-.895.971-1.64 1.36-6.08 11.14-6.58 14.55l-.12.34c-1.64 9.27.6 15.94 3.57 23.29 1.35 3.32 3.01 6.4 4.71 9.37.932 1.631 1.696 2.789 2.481 3.977.505.763 1.018 1.54 1.59 2.463.161.255.37.658.58 1.061.244.468.488.938.66 1.179l.42-5.85c.13-3.89 1.13-10.41 2.25-13.58l.041-.116c.813-2.263 1.23-3.425 1.318-6.414.008-.35.038-.985.074-1.746v-.001c.1-2.091.243-5.125.096-5.763l.52-5.4.52-4.72c.19-2.13 2.59-8.89 3.54-9.45-.009.333-.068.522-.13.723-.075.239-.154.494-.16 1.027l2.81-4.92c.02-.48.14-.66.35-.96.106-.153.175-.287.247-.425.064-.123.13-.25.223-.395l1.01-1.55c.077-.111.176-.26.29-.431.492-.74 1.266-1.905 1.81-2.319.13-.1.128-.11.128-.11s.002.01.142-.05c.158-.123.432-.454.598-.655l.062-.075c.16-.17.23-.24.36-.37.047-.045.087-.08.12-.111.122-.111.17-.155.28-.359.13-.058.625-.503 1.047-.882.23-.206.437-.393.553-.488.087-.073.198-.168.323-.276.475-.412 1.152-.997 1.477-1.124l.038-.038.028-.03c.113-.12.187-.197.484-.282.985-1.094 4.978-2.66 7.984-3.84 1.116-.438 2.097-.823 2.736-1.11.832-.167 1.727-.44 2.648-.72.896-.273 1.815-.553 2.722-.75 5.87-1.27 12.76-1.82 18.58-.66 3.68.74 7.41 1.81 10.45 3.26 1.657.797 3.138 1.873 4.651 2.971 1.162.845 2.344 1.703 3.639 2.459 3.91 2.29 4.77 3.06 7.23 6.5 1.87 2.62 3.51 5.42 4.92 8.81 1.58 3.77 2.23 6.38 2.68 11.01.104 1.02.426 7.652.591 11.05V102.6l.001.012c.057 1.187.096 1.974.098 1.979-.301 1.548.433 3.787.975 5.439v.002c.123.375.236.719.325 1.019 1.37 4.57 1.82 8.53 2.25 13.3.078.883.122 1.941.167 3.016.065 1.554.132 3.146.303 4.304l-.015.741-.115.189.11.07.005-.259 3.685-6.051c.174-.496 1.365-2.453 2.377-4.117a92.097 92.097 0 0 0 1.313-2.193c.28-.495.86-1.708 1.463-2.97v-.001l.001-.002c.798-1.671 1.637-3.427 1.876-3.717l3.14-9.51c-.209.057-.244.101-.285.151-.044.055-.096.119-.395.219 0-.546.095-.95.191-1.355.074-.315.149-.631.179-1.015.029-.282.101-.627.177-.995.081-.389.167-.804.213-1.195.1-.79.19-1.63.24-2.42.109-1.399.025-2.604-.065-3.889a100 100 0 0 1-.075-1.131l-.12-1.05-.37-1.98c-.39-.32-.19-1.26 0-1.57.23-.39.35-.94.44-1.49.151-.898.135-1.528.117-2.182-.011-.43-.022-.872.013-1.408.09-.66-.34-2.52-.52-3.08-.082-.25-.221-.604-.369-.981-.248-.633-.522-1.33-.591-1.699-.109-.044-.139-.114-.189-.234a2.535 2.535 0 0 0-.071-.156l-.034-.07-.003-.007a.805.805 0 0 1-.103-.313c-.273-.147-.275-.151-.353-.316a4.223 4.223 0 0 0-.217-.404c-.311-.528-.494-.797-.601-.955-.087-.129-.124-.184-.141-.244a.756.756 0 0 1-.014-.18c-.003-.16-.007-.448-.094-1.081-.51.02-.7-.09-.94-.25l-.022-.01-.011-.006-.016-.007-.02-.01c-.112-.049-.175-.077-.301-.337-.395-.767-.057-1.32.198-1.74.081-.132.154-.252.192-.36.047-.123.075-.222.099-.31.049-.173.085-.3.231-.48.148.425.085.961.027 1.458a5.377 5.377 0 0 0-.057.762l.2.26.04-1.23a8.08 8.08 0 0 0 .018-.49c.008-.409.016-.846.142-1.12l.042-.005.045-.007.036-.005.047-.007h.001c.099-.015.146-.022.178-.004.03.016.047.053.081.124v.001l.023.047.017.036.21.26-.17-.48a5.124 5.124 0 0 1-.26-.498 7.826 7.826 0 0 0-.34-.652c-.22-.35-.46-.7-.72-1.01-.251-.068-.253-.071-.31-.167a1.687 1.687 0 0 0-.15-.213c-.535-.63-1.525-1.44-2.183-1.977-.301-.246-.532-.435-.617-.523l-.036-.036-.029-.028-.034-.034a.076.076 0 0 1-.007-.01l-.002-.004-.002-.005-.003-.007-.002-.006v-.002c-.006-.016-.015-.042-.035-.088a.903.903 0 0 1-.49-.24c-.01-.005-.051-.044-.093-.083a1.256 1.256 0 0 0-.097-.087l-.031-.034-.028-.028a.287.287 0 0 1-.044-.051 1.343 1.343 0 0 0-.025-.058l-.01-.023-.012-.026c-.51-.09-.87-.59-.8-1.29.027-.292.091-.38.173-.495.039-.055.082-.115.127-.205.52-1.086.48-2.706.455-3.743-.008-.3-.014-.552-.005-.727.031-.999-.358-1.982-.709-2.867-.211-.533-.408-1.03-.491-1.473l-.07-.31-1.46-2.38a2.787 2.787 0 0 0-.208-.063l-.006-.004h-.001l-.002-.003a.035.035 0 0 1-.003-.004l-.001-.004-.002-.003c-.007-.018-.021-.056-.107-.149l-1.34-1.75c-.921-1.134-1.938-2.048-2.689-2.723-.415-.373-.749-.673-.941-.897-.138-.167-.256-.238-.432-.343-.128-.077-.287-.172-.508-.337-.209-.154-.368-.254-.493-.332-.265-.165-.378-.236-.487-.528l-2.07-1.24c-.712-.2-1.477-.542-2.288-.903-.964-.43-1.995-.889-3.082-1.177-1.96-.51-4-.98-6.08-1.24-.501-.066-1.649-.13-2.866-.2-1.721-.096-3.583-.201-3.964-.33-.278-.095-.46-.492-.672-.957-.193-.42-.41-.897-.748-1.253-.159-.173-.577-.427-1.001-.684-.532-.323-1.073-.652-1.129-.836-.27.01-.4-.02-.67-.14l-2.53-.4a70.556 70.556 0 0 1-.852-.015c-.81-.017-1.63-.034-2.428.025-.195.013-.493.05-.826.094-.726.093-1.621.208-1.984.126zm-47.95 14.092c.002-.002.002-.004-.007 0-.001.004.004.002.006 0zm78.28-4.052.05-.7c2.95.02 7.92 4.97 9.14 6.44 1.81 2.18 3.35 4.99 3.46 8.2.025.754-.144 1.679-.272 2.387-.083.455-.149.82-.138.993l-.19.35-.04-.01-.036-.008h-.001a.38.38 0 0 1-.116-.04l-.008-.005-.005-.005-.017-.016-.021-.021h-.001l-.012-.014-.012-.012-.015-.015-.024-.024-.022-.02c-.108-.096-.124-.127-.133-.143l-.002-.005-.002-.003c-.007-.01-.019-.015-.08-.041l-.003-.001-.002-.001-.128-.056-.06.18c.81.4-.04.89-.71.54-.389-.195-.529-.734-.659-1.233l-.012-.047-.019-.07c-1.39-5.38-4.84-11.2-8.93-14.72-.362-.31-.655-.533-.887-.709-.665-.504-.842-.638-.783-1.431.227.006.297.051.395.114.067.043.146.093.295.146zm-38.26-5.65.7-.27c-.06-.008-.116-.01-.171-.014a1.768 1.768 0 0 1-.299-.036.689.689 0 0 1-.382-.239c-.016-.017-.031-.035-.048-.051a.904.904 0 0 0 .025-.053c.073-.158.078-.17.405-.297.18-.07.32-.12.53-.16.372-.046 1.292-.353 2.195-.654.677-.226 1.345-.449 1.765-.556 1.41-.35 2.74-.66 4.21-.88 3.33-.51 6.27-.58 9.02.62.97.44.35 1.81-.36.88l-.4-.02.5.68c-.075.028-1.014.017-2.079.004-1.211-.015-2.584-.031-3.031.006l-.257.02c-1.512.113-3.088.232-4.593.44-.772.107-1.571.253-2.38.401h-.001c-.709.13-1.425.262-2.139.369-.22.033-.53.105-.883.188-1.247.291-3.029.708-3.287-.048l.96-.33zm-38.51 12.91c-.18 1.478.503 3.215 1.028 4.55.291.743.534 1.361.552 1.74a.323.323 0 0 0 .06.054c.027.02.033.023.08.166.06.19.03.5-.14.53-.02 0-.06.01-.08.02h-.08c-.059.004-.08-.008-.099-.019-.03-.017-.058-.033-.22.009l.007.029.007.027.007.027c.073.277.125.473-.322.437-.458-.032-.781-.336-1.077-.615-.072-.068-.142-.134-.213-.195-.074-.07-.134-.118-.184-.157-.143-.116-.199-.16-.266-.443l-.57-.77c-.297-.169-.378-.396-.526-.809l-.004-.011-.059-.158-.017-.047a6.19 6.19 0 0 1-.224-.665c-.51-1.9-.4-4.44.64-5.98l.18 1.14h.11l.04-.13v-1.61c.37-.31.74-.46 1.29-.13.15.35.13 2.5.08 3.01z"/><path d="m114.933 140.283-.002.001c-1.192.504-2.157.912-2.397 1.017-.473.213-2.621 1.287-4.54 2.246-1.692.847-3.207 1.604-3.24 1.604l.11-.74c-.324.096-.341.388-.361.731-.026.441-.057.965-.749 1.269-.59.47-1.88 3.37-2.2 4.47-.615 2.125-.531 2.743-.384 3.816.071.513.155 1.129.184 2.064a6.732 6.732 0 0 0-.003-.444c-.011-.315-.014-.386.253-.786.054.044.095.073.125.095a.365.365 0 0 1 .081.07c.02.028.028.064.047.146.017.076.044.192.097.379.027.088.038.066.045.05.009-.019.013-.026.035.22l.19-2.04 1.43-.11.31.84.93-.89c.105-.11.196-.215.286-.32.107-.125.214-.25.344-.38.115-.119.219-.217.321-.314.121-.114.24-.225.369-.366l1.46-1.37c.135-.112.243-.186.35-.259a3.59 3.59 0 0 0 .43-.331l.35-.28c.41-.3 2.07-.95 2.62-1.03.489-.063 1.923-.541 3.211-.971.769-.256 1.486-.496 1.919-.619 1.67-.48 3.62-.83 5.5-1.16 5.32-.91 6.5-.99 11.88-.03 4 .71 7.25 1.47 10.7 2.74 3.724 1.372 4.98 2.736 6.97 4.898.244.265.499.542.77.832l-.04-.46.048.016.068.023.02.008.014.008.004.003.018.017.002.003c.014.014.034.036.076.072l.3.24c-.17-1.35.99-.64 1.21-.37.371.462.497.827.591 1.102.051.148.093.27.159.368.023-.454.069-.817.113-1.161.072-.559.137-1.07.087-1.849l-.37-1.97-.15-.51-.056-.055a.317.317 0 0 1-.026-.026l-.016-.017a.777.777 0 0 1-.08-.131l-.012-.021-.66-1.54c-.3-.59-.57-1.06-.88-1.58l-.118-.197c-.679-1.132-.947-1.579-1.942-2.223-.249-.164-.249-.164-.25-.207-.001-.023-.002-.057-.04-.133l-2.13-1.19-2.4-1.17c-.02-.01-.04-.02-.05-.06-.012-.031-.025-.043-.037-.055a.142.142 0 0 1-.023-.025l-6.02-2.59c-.384-.022-1.496-.493-2.32-.842h-.001l-.003-.001c-.289-.123-.542-.23-.716-.297l-.933-.355a92.312 92.312 0 0 0-2.077-.775l-.14-.05-.239-.088-.001-.001-.005-.002c-.815-.301-2.126-.787-2.855-.719-.375.035-.755.228-1.142.426-.615.313-1.249.636-1.918.354-.01 0-.05-.01-.06-.04-.005-.011-.016-.016-.029-.021-.01-.005-.022-.01-.031-.019-.476.015-.795-.16-1.123-.339-.517-.284-1.054-.58-2.267-.151-.151.053-.372.138-.629.236-.849.323-2.087.794-2.471.794-.067.06-3.452 1.491-5.891 2.522z"/><path d="M148.186 191.212c-.575.306-1.184.63-1.402.979-.534.153-1.665.736-2.812 1.327-.958.494-1.926.994-2.568 1.253-2.21.89-3.53 1.35-6.21 1.74-5.97.87-8.5.81-14.45-.04-8.22-1.17-16.02-7.38-20.49-11.34l-.235-.208c-2.619-2.314-5.66-5.001-7.825-7.632-.71-.864-1.445-1.713-2.184-2.566l-.001-.001c-1.716-1.981-3.45-3.982-4.925-6.233-2.34-3.56-2.38-8.45-2.33-13.6.016-1.339.087-2.68.158-4.024.064-1.216.128-2.435.152-3.656.016-.771.024-1.586.032-2.417.017-1.82.035-3.712.138-5.353.063.142.148.701.23 1.24.062.408.123.806.17 1 .071.279.146.593.225.923.267 1.117.58 2.427.935 3.237l.184.418c.24.538.586 1.319.586 1.462.13.96 1.88 2.41 2.5 2.88.366.283.694.523 1.04.777l.48.353c.065.049.14.108.22.172.441.349 1.084.857 1.54.908l2.86 1.63c.083.26.352.409.741.626.316.176.71.396 1.15.754.3.24.58.55.76.91.09.19.16.38.22.57.01.04.08.26.09.27l.074.134c.04.072.049.088.061.091a.016.016 0 0 0 .007.001l.006-.001c.02-.002.055-.005.151.045l.82 2.11c.1.55.37 1.26.56 1.73l1.75 4.55.041.059.009.015.003.006a.037.037 0 0 1 .006.01c-.002.004.001.009.003.011h.002a.027.027 0 0 0-.005-.011c.005-.005.024-.002.091.04-.01.43 2.6 6.78 3.14 7.12l.04.36c.28.84 2.47 4.04 2.93 4.6 1.14 1.36 2.68 2.73 5.38 2.17.57-.13 1.79-.77 2.27-1.03.138-.075.311-.157.497-.245.608-.289 1.36-.647 1.513-1.045l-1.22.1 3.83-2.15c.714-.344 1.721-1.545 2.568-2.555.459-.547.871-1.038 1.162-1.305l1.09-1.54.09.05.43-.05c.2-.27.25-.66.18-1.04-.07-.4-.3-.55-.7-.61l-4.86-2.17 1.01.08a2.998 2.998 0 0 1-.025-.192c-.004-.031-.005-.04-.01-.047l-.002-.003-.002-.002-.006-.005c-.015-.012-.044-.035-.105-.121l-.19-.27.13.047c.424.154.859.313.85-.367-.01-.56-.35-.78-.86-.87a1.095 1.095 0 0 1-.451-.119c-.058-.025-.122-.053-.199-.081l-.4-.16a.091.091 0 0 1-.013-.008l-.01-.006-.011-.008a.173.173 0 0 0-.036-.018l-.075-.044-.053-.029c.003-.003-.009-.02-.062-.067l5.17.85c4.671.7 8.99-.069 13.178-.815l.002-.001h.003c.598-.107 1.194-.213 1.787-.314-.16.16-1.19.58-1.36.62l-.061.014h-.001a.844.844 0 0 0-.248.086c-.153.084-.166.104-.193.15l-.013.02a.51.51 0 0 1-.044.06c.017.019.028.034.038.047.025.033.04.052.112.103.023.017.038.03.049.039l.022.018.006.005.004.004c.007.004.017.005.079.034l.37.16.008.007.005.004c.013.01.03.025.037.039l-.14.03a5.99 5.99 0 0 1-.323-.048l-.005-.001a6.082 6.082 0 0 0-.202-.031c-1.1-.13-.69 1-.49 1.11.403.071.544.05.737.021.103-.016.221-.034.403-.041-.34.39-4.26 2.13-4.9 2.2l-.7.23c.009.294.146.394.378.564l.062.046a.517.517 0 0 0 .069.076l.001.003-.002.002-.004.001c-.02.006-.086.026-.174.228-.009-.01-.019-.025-.032-.042-.088-.121-.267-.366-.538-.078-.1.11-.2.74.32.94l.11.06c.1.31.89 1.21 1.17 1.49.133.137.142.168.142.167-.001-.001-.014-.045.148-.007.031.253.109.336.243.478.04.043.086.091.137.152l.072.09.048.062.003.004c.137.176.218.281.487.424l.09.09c.098.264.208.386.363.558.05.057.106.118.167.192.044.05.083.097.12.142.15.182.272.33.56.458l.06.11c.16.35.21.4.56.56l.06-.04c.161.41.781.853 1.257 1.192.116.083.223.16.313.228.576.42 1.104.744 1.78 1.159l.05.031c.52.32 3.55 1.96 3.99 1.82.082.14.036.166.027.171h-.001l.004.001c.015 0 .083.002.3.058.04.01.38.02.43.02.184 0 .403-.015.583-.027l.197-.013c.66-.04 1.22-.31 1.64-.54l-.011-.067-.002-.017-.002-.02c-.015-.129-.025-.211-.275-.396a.23.23 0 0 1-.036-.031l-.005-.005-.004-.005c-.005-.004-.012-.006-.039-.013l-.056-.016c.47-.338.754-.363 1.026-.387.411-.036.793-.069 1.744-1.183.34-.41 1.73-2.12 1.8-2.71.152-.448.793-1.649 1.382-2.751l.003-.007.001-.002c.342-.64.666-1.246.864-1.65.69-1.43 1.37-3.16 1.96-4.71.328-.853.678-1.743 1.034-2.651.913-2.328 1.871-4.767 2.626-6.969l.9-1.86-.19 1.03c.325-.022.448-.11.607-.222.056-.04.117-.083.193-.128l2.67-1.71c.151-.085.281-.125.407-.164.126-.039.249-.076.383-.156.4-.24 1.09-.67 1.26-1.03-.2-.148-.309-.137-.492-.118l-.044.004-.044.004-.147.015c-.14.015-.234.026-.433-.005l4.26-2.68c.085-.074.172-.126.267-.182.084-.05.174-.103.273-.178l.028-.021c.156-.119.274-.209.472-.389.056-.049.112-.095.166-.14.314-.262.589-.493.734-.97.87-1.57 1.55-3.43 1.97-5.48l.12-.36.47 1.07.31 8.66c-.039 1.054.004 2.171.047 3.295.034.87.068 1.744.063 2.595-.003.248-.046.926-.096 1.728-.103 1.623-.237 3.758-.144 3.892-.11.071-.147.087-.155.09.008-.001.062-.006-.005.15-.047.094-.058.153-.076.242l-.004.018c-.04.2-.02.38 0 .54l-.74 2.44c-.04.024-.068.04-.089.05-.029.015-.042.019-.049.022l-.007.003-.003.006c-.001.003-.003.009-.009.019a.9.9 0 0 1-.073.11c-.048.048-.115.199-.155.29l-.005.01c-.078.164-.165.331-.254.499-.229.436-.461.877-.526 1.281.35-.075.408-.143.585-.348l.007-.007a9.53 9.53 0 0 1 .052-.061l.066-.074.09-.09c.234-.259.245-.26.446-.27l.002-.001.046-.002.029-.002.067-.005-3.04 3.57-3.39 3.85c-.279.335-.54.666-.799.995l-.001.001c-.529.67-1.049 1.33-1.7 1.994-.15.15-.3.29-.47.44-.129.103-.211.161-.265.2l-.062.046a.274.274 0 0 0-.039.035.736.736 0 0 0-.087.142l-.024.045-.023.042c-.126.19-.636.663-1.095 1.089l-.001.001-.002.002c-.266.247-.515.478-.662.628-1.124 1.154-2.44 2.269-3.666 3.309l-.084.071c-.643.551-1.195 1.031-1.696 1.467l-.005.005-.005.004c-2.042 1.776-3.234 2.813-6.234 4.834-.221.15-.51.303-.808.461z"/><path d="M118.599 164.787c.007.005.024.014.027.011-.033-.018-.035-.016-.027-.011zM96.17 97.608c.208-.08.327-.07.5-.056.235.02.57.047 1.367-.132.261-.058.567-.126.923-.202.544-.115 1.115-.2 1.689-.285.428-.064.858-.128 1.281-.205l6.19-.71c.33.044.797.024 1.27.004.386-.016.776-.032 1.1-.014.83.05 1.46.13 2.29.28l1.08.26c.3.34 1.12.52 1.59.58l.04.27-.07 1.84-.29.37-.265.265c-.159-.01-.339.001-.523.013-.191.012-.385.024-.562.012l-6.55.67-.36-.03-1.8.31-2.45.66a1.56 1.56 0 0 0-.359.068c-.074.02-.162.044-.291.072l-.94.36-.35.07.02.07c-.33.04-1.01.23-1.21.45l-.99.45c-.172.046-.349.136-.486.206-.07.036-.13.067-.174.084-.01 0-.39.1-.53.15-.12.18-1.33.95-1.48 1.04-.24.14-1.3 1.06-1.39 1.19l-.01-.004c-.051-.022-.135-.058-.35.064l-.28.19c-.08.041-.133.062-.165.071.027-.061-.005-.052-.028-.032-.022.02-.036.05.028.032a.64.64 0 0 1-.045.079c-.194.328-.308.394-.44.471-.086.051-.18.105-.31.239-.115.12-.1.13-.09.136.01.006.014.009-.12.114l-.031.023c-.04.031-.058.044-.078.049a.215.215 0 0 1-.07-.006l-.015-.002-.026-.004-.06.27-.25.25a.59.59 0 0 1-.033-.019c.041.007.025-.003.007-.01-.019-.006-.039-.009-.007.01a1.935 1.935 0 0 1-.137-.031l-.56.58-.096.09-.081.075c-.079.071-.1.091-.103.114a.09.09 0 0 0 .004.029c.006.027.015.07.006.162-.268.142-.297.172-.453.331l-.045.047-.062.062c-.2.2-.3.29-.54.48l.05-.9c-.114-1.107.488-2.546.832-3.371.141-.338.24-.572.228-.639.432-.27 1.01-1.446 1.288-2.014l.082-.166 3.52-4.93.17.05zM139.67 96.688c.126.337.177.77.228 1.206.111.95.225 1.922 1.122 1.984l.92.01v.01c3.2-.04 10.94 1.1 13.14 2.33.35.05.41.06.66.26l1.16.35 4.62 3.08 3.96 3.53-.23-1.83c-.04-.91-1.4-3.49-1.86-4.22-.38-.59-.8-1.23-1.19-1.82-.094-.147-.29-.393-.504-.662-.353-.443-.755-.948-.836-1.178l-.36-.42c-.424-.208-.614-.447-.808-.69-.329-.412-.67-.84-2.172-1.16l-.576-.123c-1.077-.233-2.56-.554-3.414-.587-.693-.034-1.364-.136-2.039-.239a25.542 25.542 0 0 0-1.621-.211l-.134-.012c-2.929-.267-5.969-.544-8.786.412-.39.132-.601.224-.723.277-.101.045-.14.062-.168.051-.017-.007-.03-.023-.051-.05a1.224 1.224 0 0 0-.338-.298z"/></g><g filter="url(#e)"><path fill-rule="evenodd" clip-rule="evenodd" d="M128 252c68.483 0 124-55.517 124-124S196.483 4 128 4 4 59.517 4 128s55.517 124 124 124zm0-18c58.542 0 106-47.458 106-106S186.542 22 128 22 22 69.458 22 128s47.458 106 106 106z" fill="#FFCE23"/></g><mask id="f" style="mask-type:alpha" maskUnits="userSpaceOnUse" x="4" y="4" width="248" height="248"><path fill-rule="evenodd" clip-rule="evenodd" d="M128 252c68.483 0 124-55.517 124-124S196.483 4 128 4 4 59.517 4 128s55.517 124 124 124zm0-18c58.542 0 106-47.458 106-106S186.542 22 128 22 22 69.458 22 128s47.458 106 106 106z" fill="#FFCE23"/></mask><g mask="url(#f)"><circle cx="128" cy="128" r="128" fill="url(#g)" style="mix-blend-mode:color-dodge"/></g><path fill-rule="evenodd" clip-rule="evenodd" d="M133.734 8.899c.28.02.3.09.44.3.22.55-.32 5.39-.42 6.41-.11.21-.03.06-.19.17-.05.04-.11.09-.13.07-.01-.02-.04.01-.06.03l.04.38c-.66.2-1.41.26-1.45-.66-.02-.7.34-6.05.6-6.41.46-.07.17-.03.26.06.43-.42-.01-.11.11-.38.33-.1.53-.2.8.03zm-2.97-1.26-.1 2.09c.03 2.22-.45 5.1-.21 7.23l.07.07.05.21.45.18 2.73.17.91.03c.16.31.07.08.18.19l.28-.24c-.14-.14-.14.1-.06-.37.02-.11.09-.3.12-.45l.73-6.59c.19-1.76.41-2.32-1.46-2.46-.66-.06-1.34-.09-2.01-.13-.43-.03-1.51.18-1.68.07zM126.424 8.689l.36.23c.13.25.12.36.12.73l-.02 5.78-.12.3-.24-.09.01.41c-.64.27-1.31.25-1.43-.48-.1-.6-.12-6.11.03-6.59.63-.06.16-.05.33.18.01-.02.02-.1.02-.08.01.01.02-.06.03-.08l.03-.14c.01-.12-.05-.07-.02-.17.29-.11.58-.22.9 0zm-3.17-1.09.06 1.6c.01 1.28.1 2.56.14 3.83.03 1.2.05 2.59.2 3.77.1.21.17.34.42.46l.24.05 4.11.01c-.23-.07-.26.2-.07-.72l.22-6.76c.09-2.49.01-2.51-3.51-2.4-.52.02-1.51.19-1.81.16zM140.774 9.49c.17.02.32-.01.42.219.16.15.19.02.21.41l-.27 1.26-.24-.11c-.25.16-.03-.02-.15.2.18.17.17-.28.15.3-.5.28-.99.19-1.47-.01-.13-.54.03-1.61.22-2.07.02-.01.05-.02.07-.02.01-.01.06-.01.08-.01.06-.01.11.01.19.03-.05-.24.03-.12-.06-.27.35-.09.59-.1.85.07zm-3.84 8.429c.46-.04 1.13.03 1.48.18-.06-.5.41-3.42.56-4.32.08-.48-.01-.35.26-.49.21.22.09-.06.14.37.27-.71-.02-.84 1.36-.49l.5.06h1.47c-.29-.38.68-3.32.57-4.13-.84-1.21-3.85-.65-5.28-1.17.15.59-.41 4.04-.51 4.92-.14 1.15-.65 4.09-.55 5.07zM112.194 8.57l-.37.149.41.04c-.01.26.11.21-.27.31-1 .27-.96-.44-1.07-.64l-.44.05.03.4-.59.11.34.11c-.11.3-.48.35-.8.38-.13-.11-.15.16-.08-.2l.03 1.12.5 2.28c.29.32 1.73.6 2.26.75.99.26 1.55.2 1.47 1.42-.36-.03-.14.03-.28-.09l-.15.29c.23.09.1-.1.18.18-.22.25-.71.38-1.14.22-.38-.15-.33-.53-.51-.89l-1.48.18.34 1.6c.11.14.24.28.35.39l.93.2c.12.23.14.23.18.57l.46.01-.04-.5c.27-.05.14-.12.33.04.1-.1.15-.76.83-.34.32.27.14.2.29.58l.44.08c-.07-.19-.09-.35-.02-.64l.33.01a.226.226 0 0 1-.04-.09l-.02-.22.42-.04-.01.27.28-.2c-.2-.24.06-.58.04-1.05-.01-.35-.1-.83-.14-1.19-.18-1.42.31-1.1-3.07-2.04-.78-.21-1.1-.66-.77-1.54.64-.07.15-.05.32.2.28-.28.06-.84.87-.56.43.12.45.25.57.72.55.05 1.17-.2 1.73-.04-.17-.42-.16-1.18-.39-1.57-.32-.51-.7-.44-1.29-.56l-.25-.63-.46-.02.04.43-.29-.04zM116.554 7.729l-.26.43.29.12-.02.5.96 8.29c.13.29.23.38.47.51 1.12.18 2.67-.24 3.6-.05l-.11-1.2c-2.76 0-2.5.66-2.77-2.26-.1-.96-.54-4.23-.23-4.87.57-.04.12-.04.3.18l.37-.57c.53-.05 1.47-.18 1.98-.04l-.13-1.18-3.52.17c-.91.13-.75.38-.93-.03z" fill="#D19F04"/><path fill-rule="evenodd" clip-rule="evenodd" d="M123.254 7.599c.3.03 1.29-.14 1.81-.16 3.52-.11 3.6-.09 3.51 2.4l-.22 6.76c-.19.92-.16.65.07.72.59-1.4.29-2.27.43-3.86l.12-4.11c.01-1.24.01-2.05-1.16-2.29-1.12-.03-4.18-.28-4.56.54zM130.764 7.639c.17.11 1.25-.1 1.68-.07.67.04 1.35.07 2.01.13 1.87.14 1.65.7 1.46 2.46l-.73 6.59c-.03.15-.1.34-.12.45-.08.47-.08.23.06.37l.05.03c.75-1.05.37-3.44.81-4.09-.2-1.42.92-4.71.15-5.69-.46-.59-1.72-.52-2.65-.57-.96-.05-2.21-.3-2.72.39zM121.594 17.529l.05.12.29.15-.09-1.83c-.88-.11-1.8.23-2.56-.07-.15-.72-.67-6.18-.5-6.52-.18-.22.27-.22-.3-.18-.31.64.13 3.91.23 4.87.27 2.92.01 2.26 2.77 2.26l.11 1.2zM137.944 7.879l.05.05c1.43.52 4.44-.04 5.28 1.17.11.81-.86 3.75-.57 4.13.34-.08.32-.4.44-1.04l.5-2.62c.11-.6 0-.82-.38-1.11-.82-.62-4.11-.67-5.39-.88-.11.18-.1.13.07.3z" fill="#7A4B00"/><path fill-rule="evenodd" clip-rule="evenodd" d="m136.924 14.439-.44 3.51.34-.02.11-.01c-.1-.98.41-3.92.55-5.07.1-.88.66-4.33.51-4.92l-.05-.05c-.17.03-.22-.14-.3.65l-.72 5.91z" fill="#E9C768"/><path fill-rule="evenodd" clip-rule="evenodd" d="M117.214 17.149c-.04-.5-.01-.15.08-.28.2.41-.02.03.23.2l-.96-8.29-.11-.25-.29-.01c.1 1.09.75 8.2 1.05 8.63z" fill="#EFD68D"/><path fill-rule="evenodd" clip-rule="evenodd" d="M115.284 16.459c.57-.25.41-1.27.32-1.93-.04-.36-.09-.77-.14-1.14-.13-.96-.62-.85-2.46-1.37-.58-.17-1.78-.26-1.34-1.18-.17-.25.32-.27-.32-.2-.33.88-.01 1.33.77 1.54 3.38.94 2.89.62 3.07 2.04.04.36.13.84.14 1.19.02.47-.24.81-.04 1.05z" fill="#7A4B00"/><path fill-rule="evenodd" clip-rule="evenodd" d="m130.244 10.179-.08 3.18c-.12.28-.14 1.03-.14 1.06.11 1.16-.18 2.21.1 2.51l.04-.28.29.31c-.24-2.13.24-5.01.21-7.23l.04-1.18c-.08-.32.04-.2-.25-.32l-.21 1.95z" fill="#EACB77"/><path fill-rule="evenodd" clip-rule="evenodd" d="M122.954 8.889c-.01.24.12 7.54.41 7.9l.06-.09c.08.1.07.03.23.1-.15-1.18-.17-2.57-.2-3.77-.04-1.27-.13-2.55-.14-3.83-.08-.25-.02-.31-.06-.56-.08-.55.05-.26-.2-.4-.12.22-.11.42-.1.65z" fill="#EFD68D"/><path fill-rule="evenodd" clip-rule="evenodd" d="M126.524 15.639c-.44.29-.6.24-1.01.06-.11-.5-.19-6.17-.05-6.54-.17-.23.3-.24-.33-.18-.15.48-.13 5.99-.03 6.59.12.73.79.75 1.43.48l-.01-.41zM133.374 15.879c-.38.16-.59.17-.99-.01-.1-.56.29-6.05.44-6.62-.09-.09.2-.13-.26-.06-.26.36-.62 5.71-.6 6.41.04.92.79.86 1.45.66l-.04-.38z" fill="#7A4B00"/><path fill-rule="evenodd" clip-rule="evenodd" d="m126.494 9.379.06 6.05c.28.05.08.15.33 0l.02-5.78c0-.37.01-.48-.12-.73l.02.46h-.31zM133.874 9.619l-.43 5.88c.19.16-.15.11.31.11.1-1.02.64-5.86.42-6.41l-.02.41-.28.01z" fill="#EACB77"/><path fill-rule="evenodd" clip-rule="evenodd" d="M116.554 7.729c.18.41.02.16.93.03l3.52-.17.13 1.18.09.14c.43.13.09.07.23-.08l-.03-.5-.01-.4-.06-.77-3.86.22c-.58.07-.56.19-.94.35z" fill="#7A4B00"/><path fill-rule="evenodd" clip-rule="evenodd" d="m112.164 8.049.28.13.46.02.25.63c.59.12.97.05 1.29.56.23.39.22 1.15.39 1.57l.04.1c.21.08.01.03.29.06-.06-.47-.13-1.47-.33-1.85-.35-.68-.73-.54-1.4-.8l-.14-.65c-.4-.03-.89-.05-1.13.23z" fill="#764901"/><path fill-rule="evenodd" clip-rule="evenodd" d="m138.414 18.099-.02.06c.1.08.16.11.28.18.02-.19.04-.4.07-.59.06-.33.02-.3.16-.51-.09-.67.34-2.76.47-3.58-.05-.43.07-.15-.14-.37-.27.14-.18.01-.26.49-.15.9-.62 3.82-.56 4.32z" fill="#7A4B00"/><path fill-rule="evenodd" clip-rule="evenodd" d="M113.334 14.759c.14.12-.08.06.28.09.08-1.22-.48-1.16-1.47-1.42-.53-.15-1.97-.43-2.26-.75-.28-.01-.31-.1-.35.13l.01.29 3.17.86c.5.15.51.26.62.8z" fill="#F0DCA6"/><path fill-rule="evenodd" clip-rule="evenodd" d="m110.074 14.689.16.05 1.48-.18c.18.36.13.74.51.89.43.16.92.03 1.14-.22-.08-.28.05-.09-.18-.18l-.82.09c-.37-.73-.02-.9-.46-.96l-.86.09c-.4.05-.76.11-1.15.16.06.11.1.16.18.26z" fill="#7A4B00"/><path fill-rule="evenodd" clip-rule="evenodd" d="M130.764 17.659c.11.11-.12.06.3.17l3.02.16.29-.07c-.12-.21-.02-.13-.25-.22-.17-.07-.18-.02-.37-.11l-2.73-.17v.27l-.26-.03z" fill="#EFD68D"/><path fill-rule="evenodd" clip-rule="evenodd" d="M117.994 17.579c.09.1.04.08.18.17.12.08.07.03.2.06v.21l3.22-.19c.11-.11.05.02.05-.18l-.05-.12c-.93-.19-2.48.23-3.6.05z" fill="#EACB77"/><path fill-rule="evenodd" clip-rule="evenodd" d="M123.994 17.579c.32.3 1.36.15 1.8.15h.92l.73-.02c.17-.04.17-.06.24-.11-.12-.23-.06-.23-.79-.22-.5.01-2.32.08-2.58-.07l-.24-.05c.06.28.13.28-.08.32z" fill="#EFD68D"/><path fill-rule="evenodd" clip-rule="evenodd" d="M140.744 11.469c-.29.14-.61.09-.98.03-.09-.38.1-1.4.22-1.81-.08-.02-.13-.04-.19-.03-.02 0-.07 0-.08.01-.02 0-.05.01-.07.02-.19.46-.35 1.53-.22 2.07.48.2.97.29 1.47.01.02-.58.03-.13-.15-.3z" fill="#7A4B00"/><path fill-rule="evenodd" clip-rule="evenodd" d="M109.534 12.809c.04-.23.07-.14.35-.13l-.5-2.28c-.09-.41-.01-.39-.23-.51-.3.27-.09.81.03 1.46.08.42.13 1.17.35 1.46z" fill="#EFD68D"/><path fill-rule="evenodd" clip-rule="evenodd" d="m110.134 8.319.33.13-.01.03.44-.05c.11.2.07.91 1.07.64.38-.1.26-.05.27-.31l-.41-.04-.43.01c-.02-.1-.06-.47-.08-.52-.04-.13.17-.33-.78-.13-.37.08-.3.11-.4.24z" fill="#7A4B00"/><path fill-rule="evenodd" clip-rule="evenodd" d="M119.154 8.809c-.13.21-.04.02-.08.33l1.89-.04c.35-.02.3-.01.26-.19l-.09-.14c-.51-.14-1.45-.01-1.98.04z" fill="#EACB77"/><path fill-rule="evenodd" clip-rule="evenodd" d="m141.234 13.229-.5-.06-1.21-.08c.18.48.68.4 1.15.45l1.13.06c.48-.11.19-.02.27-.2l-.84-.17z" fill="#EFD68D"/><path fill-rule="evenodd" clip-rule="evenodd" d="m110.304 16.369.03-.15c.15.25.01.01.24.12l-.34-1.6-.16-.05c-.37-.07-.09-.05-.19.08.07.45.1 1.33.42 1.6z" fill="#F0DCA6"/><path fill-rule="evenodd" clip-rule="evenodd" d="m113.104 10.999.01.4c.32-.04.65-.08.98-.11.15-.02.37-.02.49-.05.46-.08.29.01.29-.18l-.04-.1c-.56-.16-1.18.09-1.73.04z" fill="#EACB77"/><path fill-rule="evenodd" clip-rule="evenodd" d="M136.504 18.139c.21.15-.02.06.35.11l1.47.14c.09-.13.05-.01.07-.23l.02-.06c-.35-.15-1.02-.22-1.48-.18l-.11.01.04.2-.36.01z" fill="#EFD68D"/><path fill-rule="evenodd" clip-rule="evenodd" d="M110.904 17.019c.17.14-.19.02.27.13.88.21.3.05.64.71l.27.05-.05-.41c-.04-.34-.06-.34-.18-.57l-.93-.2c.03.09.02.17.07.23l-.09.06z" fill="#FAEAB7"/><path fill-rule="evenodd" clip-rule="evenodd" d="m113.114 11.399-.01-.4c-.12-.47-.14-.6-.57-.72l-.49.06c-.02.01-.04.03-.06.04.1.2.03.1.27.19.64.24.37.23.56.83h.3z" fill="#F0DCA6"/><path fill-rule="evenodd" clip-rule="evenodd" d="M117.214 17.149c.06.7.48.73 1.16.87v-.21c-.13-.03-.08.02-.2-.06-.14-.09-.09-.07-.18-.17-.24-.13-.34-.22-.47-.51-.25-.17-.03.21-.23-.2-.09.13-.12-.22-.08.28z" fill="#FAEAB7"/><path fill-rule="evenodd" clip-rule="evenodd" d="M141.014 10.199c.59 0 .14.04.32-.18l-.14-.31c-.1-.23-.25-.2-.42-.22-.87-.08-.5-.02-.63.07.16.22.61.29.82.37l.05.27zM113.854 17.699l.05-.41c-.15-.38.03-.31-.29-.58-.5-.1-.45.01-.55.07.17.33-.07.01.41.28l.1.62.28.02zM126.494 9.379h.31l-.02-.46-.36-.23c-.33-.07-.41-.11-.69.05.1.23-.1.07.31.21.17.06.27.09.41.13l.04.3z" fill="#F0DCA6"/><path fill-rule="evenodd" clip-rule="evenodd" d="m141.014 10.199-.12 1.07.24.11.27-1.26c-.02-.39-.05-.26-.21-.41l.14.31c-.18.22.27.18-.32.18z" fill="#E9C768"/><path fill-rule="evenodd" clip-rule="evenodd" d="m133.874 9.619.28-.01.02-.41c-.14-.21-.16-.28-.44-.3l-.53-.02c.13.36-.02.13.36.33.22.11.28.18.31.41z" fill="#F0DCA6"/><path fill-rule="evenodd" clip-rule="evenodd" d="M123.994 17.579c.21-.04.14-.04.08-.32-.25-.12-.32-.25-.42-.46-.16-.07-.15 0-.23-.1l-.06.09c-.02.48.24.71.63.79zM130.764 17.659l.26.03v-.27l-.45-.18-.18-.26-.17.16c.03.36.17.47.54.52zM110.304 16.369c.02.43.2.62.6.65l.09-.06c-.05-.06-.04-.14-.07-.23-.11-.11-.24-.25-.35-.39-.23-.11-.09.13-.24-.12l-.03.15z" fill="#F7ECC9"/><path fill-rule="evenodd" clip-rule="evenodd" d="M114.344 17.369c.25.24.07.09.35.18l-.06-.73.02-.08-.33-.01c-.07.29-.05.45.02.64zM109.354 9.279c-.07.36-.05.09.08.2.32-.03.69-.08.8-.38l-.34-.11-.54.29zM112.494 17.509l.06.1.33.19-.1-.75c-.19-.16-.06-.09-.33-.04l.04.5z" fill="#7A4B00"/><path fill-rule="evenodd" clip-rule="evenodd" d="m134.084 17.989.35.11c.21-.14.24-.14.41-.29-.11-.11-.02.12-.18-.19l-.91-.03c.19.09.2.04.37.11.23.09.13.01.25.22l-.29.07z" fill="#EBC351"/><path fill-rule="evenodd" clip-rule="evenodd" d="m112.084 17.909.48-.06-.01-.24-.06-.1-.46-.01.05.41z" fill="#E9C768"/><path fill-rule="evenodd" clip-rule="evenodd" d="m110.464 8.449-.33-.13c-.25.55.21.56.21.56l.1-.15c.04-.2.03-.05.02-.28zM112.194 8.569l.29.04-.04-.43-.28-.13c-.17.12-.02.39.03.52zM113.854 17.699l.61-.12-.12-.21-.44-.08-.05.41z" fill="#EACB77"/><path fill-rule="evenodd" clip-rule="evenodd" d="m114.654 16.739-.02.08.37-.16.01-.27-.42.04.02.22c0 .02.02.06.04.09z" fill="#D9AC2F"/><path fill-rule="evenodd" clip-rule="evenodd" d="m116.164 8.519.29.01.11.25.02-.5-.29-.12-.13.36z" fill="#E5BB46"/><path fill-rule="evenodd" clip-rule="evenodd" d="M130.124 16.929c-.03.32-.05.14.1.21l.17-.16.18.26-.05-.21-.07-.07-.29-.31-.04.28z" fill="#F0DCA6"/><path fill-rule="evenodd" clip-rule="evenodd" d="m136.484 17.949.02.19.36-.01-.04-.2-.34.02z" fill="#F7ECC9"/><path fill-rule="evenodd" clip-rule="evenodd" d="M132.4 239.76c.01-.03.02-.09.03-.07.09.24.04-.12.06-.14 0 0-.02-.28.45-.24 0 0 .02-.08.37.14l.09.12c.41.26.32.51.38 1.36.04.51.09.97.13 1.46.07 1.08.18 2.11.26 3.19l.01.78c-.18.1-.07 0-.19.02l-.4.1c.47.07.19-.21.31.26-.49.29-1.39.36-1.56-.37-.11-.49-.11-1.62-.16-2.2-.08-1.01-.4-3.66-.15-4.44l.37.03zm-2.04-1.57.03 2.28c-.03 1.48.1 6 .4 7.25.19.24.18.19.4.38l.24.04c1.17.09 2.77-.1 3.99-.16.09.12.05-.11.1.23l.45-.27c-.13-.15.01-1.26-.04-1.68l-.6-5.43c-.12-1.2-.02-2.7-1.28-2.74l-2.88.18c-1.07.17-.64.14-.81-.08zM126.33 239.59l.27.23c.13.11.09-.12.21.31l.02 5c0 1.09.15 1.45-.35 1.35l-.04.14.04.36c-.61.25-1.4.28-1.52-.47-.1-.56.01-6.16.19-6.61.61-.04.16-.06.31.2l.1-.32c.06-.4-.09.08-.02-.22l.79.03zm-3.11-.53c.15-.13 0-.05.26-.09.07 1.34-.06 3.07-.13 4.43-.07 1.21-.23 3.2-.08 4.34l.35.43.31.06 4.08.05.08.21.47-.25c-.26-.17-.2.25-.03-.75.05-.29.01-.6 0-.9l-.16-5.57c-.01-1.24.21-2.62-1.18-2.66-.59-.02-3.47.15-3.62.01l-.35.69zM111.76 237.61l-.14.13c.21.11.14-.08.18.26-.22.14-1.1.32-1.28.21l-.23.34.26.05c-.09.8-.53 2.11-.41 2.78.3.51 2.56 1.38 2.84 1.91.17.11.16.03.16.38 0 .1-.08.36-.11.48l-.26-.08-.21.22c.23.16.2-.26.19.31-.31.14-.87.19-1.22.02-.44-.22-.23-.59-.3-1.08l-1.62-.23c-.03.69-.24.99-.16 1.79l.04.15c.35.41.58.3.81.52.23.11.1-.19.2.28.01.02-.01.34-.01.42.46.04.39-.02.6.23-.1-.32-.09-.24-.02-.6l.36.02.05-.23.71.07c.04.01.18.01.26.09l.07.68.51.06.05-.48c.33.08.22-.05.29.24l.14-.15-.09-.33.6-.06c.09.14.07 0 .11.28l.53-.33c-.03-.01-.05-.08-.06-.06 0 .01-.04-.05-.04-.07-.15-.35.46-2.44.32-2.89-.11-.34-2.73-1.57-2.93-1.86-.27-.36-.16-.99.15-1.26.29.07.12-.06.18.21l.19-.25v-.29c.12-.02.24-.07.37-.06.5.03.21.06.32.13.37.1.18.03.22.17.44.22.1.34.36.75l1.46.15c.08-.57.28-1.35-.09-1.8-.54-.63-.73.07-.86-1.15l-.45-.13.09.27c-.14.16.18.22-.28.06l-.08-.01.06.42c-.92.11-1.18.04-1.12-.81l-.43-.14.03.39-.31-.12zM138.96 239.5c-.01-.41-.08-.16.11-.43l-.05-.27c.26-.03.6-.11.86-.04s.07.01.2.13l.04.12c.17.1.06-.02.17.14.05.07.06.13.09.21.04.17.02.25.02.42.18.22.15.46.11.78-.36.26-.11-.11-.39.23l.07.23c-.27.27-.82.37-1.21.21-.29-.31-.26-.67-.33-1.16-.14-.9-.19-.94.19-1.03l.12.46zm-2.18-1.65c.19.47 1.27 9.58 1.2 9.84.66.07 1.22-.13 1.84-.08-.05-.18-.77-4.32-.69-4.65.06-.27.02-.12.13-.25.27.15-.02-.13.14.16.01.01.1.27.1.29l.14-.41c-.13-.22-.04-.05-.09-.3l1.4-.16 1.6-.25c-.18-.03-.2.14-.24-.53-.02-.21-.03-.32-.07-.55-.76-4.19 0-3.72-5.46-3.11zM117.36 238.16l-.2.34.2.05c-.03 1.31-.33 3.06-.48 4.42-.12 1.05-.52 3.55-.36 4.47.16.3.19.26.43.44l4.02.37v-1.22c-2.76-.13-2.84.26-2.59-2.48.08-.9.22-4.36.58-4.87l.26.13.16-.2c-.04-.26-.05-.24.22-.29.15-.02.48 0 .64.01.41.01.78.03 1.19.08l-.01-1.13c-.49-.12-1.52-.11-2.09-.15-.36-.03-.85-.08-1.2-.04-.37.04-.55.23-.77.07z" fill="#D19F04"/><path fill-rule="evenodd" clip-rule="evenodd" d="M130.36 238.19c.17.22-.26.25.81.08l2.88-.18c1.26.04 1.16 1.54 1.28 2.74l.6 5.43c.05.42-.09 1.53.04 1.68.37-.25.41-.77.39-1.34l-.2-1.78c-.18-1.66-.33-4.4-.68-5.97-.26-1.17-1-1.17-2.25-1.08-1.16.09-1.96-.04-2.87.42zM123.57 238.37c.15.14 3.03-.03 3.62-.01 1.39.04 1.17 1.42 1.18 2.66l.16 5.57c.01.3.05.61 0 .9-.17 1-.23.58.03.75.31-.74.4-.42.35-1.55-.03-.61-.04-1.24-.06-1.83-.02-1.31-.07-2.61-.1-3.91l-.09-1.96c-.21-.54-.44-.86-1-1l-2.76-.01c-.55-.02-1.13.02-1.33.39zM120.97 248.25l.31.2.1-1.79c-.66-.02-2.34.14-2.66-.38-.17-.2.32-5.96.5-6.47l-.26-.13c-.36.51-.5 3.97-.58 4.87-.25 2.74-.17 2.35 2.59 2.48v1.22z" fill="#7A4B00"/><path fill-rule="evenodd" clip-rule="evenodd" d="m137.47 245.89.2 1.9.02.29.28.11.18-.09c-.04-.39.11-.06-.17-.41.07-.26-1.01-9.37-1.2-9.84-.59-.18-.14-.05-.33.06l1.02 7.98z" fill="#EFD68D"/><path fill-rule="evenodd" clip-rule="evenodd" d="M136.78 237.85c5.46-.61 4.7-1.08 5.46 3.11.04.23.05.34.07.55.04.67.06.5.24.53.32-.69-.04-1.63-.18-2.4-.12-.66-.23-1.95-.64-2.28-.65-.53-4.22-.01-5.22.17.12.18.1.13.27.32z" fill="#764901"/><path fill-rule="evenodd" clip-rule="evenodd" d="M123.22 239.06c-.22 1.06-.2 3.26-.23 4.42-.02.86-.34 3.92-.01 4.42l-.01-.24.3.08c-.15-1.14.01-3.13.08-4.34.07-1.36.2-3.09.13-4.43-.26.04-.11-.04-.26.09z" fill="#EACB77"/><path fill-rule="evenodd" clip-rule="evenodd" d="m116.16 247.31.13-.11c.2.39.06.09.23.24-.16-.92.24-3.42.36-4.47.15-1.36.45-3.11.48-4.42l-.2-.05c-.33.72-.51 3.33-.63 4.39-.09.78-.17 1.54-.27 2.32-.07.54-.36 1.74-.1 2.1z" fill="#E9C768"/><path fill-rule="evenodd" clip-rule="evenodd" d="M133.59 246.48c-.33.19-.57.07-.86-.03l-.22-3.13-.1-1.37c-.05-.65-.25-1.64-.01-2.19l-.37-.03c-.25.78.07 3.43.15 4.44.05.58.05 1.71.16 2.2.17.73 1.07.66 1.56.37-.12-.47.16-.19-.31-.26zM114.66 245.96c.08-.26.24-.28.33-.77.15-.84.47-2.43.01-2.77-.44-.34-2.18-1.21-2.84-1.64l.12-.75c-.06-.27.11-.14-.18-.21-.31.27-.42.9-.15 1.26.2.29 2.82 1.52 2.93 1.86.14.45-.47 2.54-.32 2.89 0 .02.04.08.04.07.01-.02.03.05.06.06zM126.44 246.62c-.34.16-.69.25-1-.01-.31-.44-.12-2.61-.09-3.3.02-.56-.07-2.92.11-3.21-.15-.26.3-.24-.31-.2-.18.45-.29 6.05-.19 6.61.12.75.91.72 1.52.47l-.04-.36z" fill="#7A4B00"/><path fill-rule="evenodd" clip-rule="evenodd" d="m130.02 240.1.07 2.02c.1.85.1 2.04.13 2.92.02.6.02 2.35.25 2.79-.03-.46-.04-.13.1-.25.1.16.09.06.22.14-.3-1.25-.43-5.77-.4-7.25-.15-.4-.03-.95-.15-1.24-.08-.19.02-.04-.13-.17-.07.1-.06.04-.1.23l.01.81z" fill="#EFD68D"/><path fill-rule="evenodd" clip-rule="evenodd" d="m126.42 240.29.06 6.19c.5.1.35-.26.35-1.35l-.02-5c-.12-.43-.08-.2-.21-.31l.13.29c-.19.22.27.18-.31.18z" fill="#EACB77"/><path fill-rule="evenodd" clip-rule="evenodd" d="m133.28 239.97.31 2.76.15 2.13.1 1.04c.08.26.01.18.2.3.08-.11.07-.04.11-.24.04-.18.03-.2.02-.38-.08-1.08-.19-2.11-.26-3.19-.04-.49-.09-.95-.13-1.46-.06-.85.03-1.1-.38-1.36l.13.49-.25-.09z" fill="#EFD68D"/><path fill-rule="evenodd" clip-rule="evenodd" d="M117.36 238.16c.22.16.4-.03.77-.07.35-.04.84.01 1.2.04.57.04 1.6.03 2.09.15l.01 1.13.08.15.25.15c.02-.54.19-1.35.03-1.8-.69-.11-1.63-.1-2.37-.15-.99-.07-1.54-.26-2.06.4zM139.82 247.61l.05.11.31.13-.68-4.69c0-.02-.09-.28-.1-.29-.16-.29.13-.01-.14-.16-.11.13-.07-.02-.13.25-.08.33.64 4.47.69 4.65zM113.67 237.44l.13.11.45.13c.13 1.22.32.52.86 1.15.37.45.17 1.23.09 1.8l.16.3c.31-.1.24-.44.29-.85.1-.8.16-1.74-1.04-1.96l.1-.77-.96-.12c-.13.13-.18-.2-.08.21zM109.5 243.24l.11.07 1.62.23c.07.49-.14.86.3 1.08.35.17.91.12 1.22-.02.01-.57.04-.15-.19-.31-.32.13-.64.03-.97-.05l.11-.93c-.3-.26-1.81-.36-2.36-.4l.16.33z" fill="#7A4B00"/><path fill-rule="evenodd" clip-rule="evenodd" d="M124.31 248.65c.79.09 3.17.11 3.78-.16l-.08-.21-4.08-.05c.06.05.09.08.22.14.08.03.04.01.16.02v.26z" fill="#EACB77"/><path fill-rule="evenodd" clip-rule="evenodd" d="M117.12 248.21c.26.18.71.15 1.02.18.31.02.6.02.91.04.68.04 1.29.09 1.99.08l-.07-.26-4.02-.37.07.07.13.11c.01 0 .14.08.17.09l-.2.06z" fill="#EFD68D"/><path fill-rule="evenodd" clip-rule="evenodd" d="M131.43 248.14c.21.17-.27.06.27.16v.22c.68.03 3.35-.09 3.82-.31-.05-.34-.01-.11-.1-.23-1.22.06-2.82.25-3.99.16z" fill="#EACB77"/><path fill-rule="evenodd" clip-rule="evenodd" d="M112.76 243.52c.07.06.15.09.22.13v-.36c-.28-.53-2.54-1.4-2.84-1.91l-.05-.01-.39.01c.18.48.29.4.73.67.29.18.54.33.8.48.45.26 1.2.66 1.53.99z" fill="#F7ECC9"/><path fill-rule="evenodd" clip-rule="evenodd" d="m140.12 240.79-.95.17-.21-1.46-.12-.46c-.38.09-.33.13-.19 1.03.07.49.04.85.33 1.16.39.16.94.06 1.21-.21l-.07-.23z" fill="#7A4B00"/><path fill-rule="evenodd" clip-rule="evenodd" d="M109.72 241.12h.22l.15.25.05.01c-.12-.67.32-1.98.41-2.78l-.26-.05c-.24.54-.48 1.88-.57 2.57z" fill="#EBC351"/><path fill-rule="evenodd" clip-rule="evenodd" d="m113.28 240.12-.04.68c.4.08 1.85.27 2.12.13l-.16-.3-1.46-.15c-.26-.41.08-.53-.36-.75l.15.28c-.15.16.2.19-.25.11z" fill="#EFD68D"/><path fill-rule="evenodd" clip-rule="evenodd" d="m111.9 237.27.14.07.43.14c-.06.85.2.92 1.12.81l-.06-.42c-.34.15-.33.07-.72.04l.07-.78-1.08-.13.1.27z" fill="#7A4B00"/><path fill-rule="evenodd" clip-rule="evenodd" d="M119.38 239.61c.38.08.75.09 1.13.11.16.01.52.05.66.05.36-.02.46.1.34-.21l-.08-.15c-.41-.05-.78-.07-1.19-.08-.16-.01-.49-.03-.64-.01-.27.05-.26.03-.22.29z" fill="#EACB77"/><path fill-rule="evenodd" clip-rule="evenodd" d="m139.64 242.75 1.51-.11c.65-.14.21.05.39-.25-.14-.1-.1-.21-.59-.1l-1.4.16c.05.25-.04.08.09.3z" fill="#E9C768"/><path fill-rule="evenodd" clip-rule="evenodd" d="M137.98 247.69c.28.35.13.02.17.41l1.66-.18c.14-.16.05.03.06-.2l-.05-.11c-.62-.05-1.18.15-1.84.08z" fill="#EACB77"/><path fill-rule="evenodd" clip-rule="evenodd" d="M109 244.59c.47-.03.17-.04.29.09.01.08-.01.1.03.19.15.38.03.08.13.23-.08-.8.13-1.1.16-1.79l-.11-.07-.19-.04-.31 1.39z" fill="#EBC351"/><path fill-rule="evenodd" clip-rule="evenodd" d="m110.19 246.17.18-.1-.07-.3c-.23-.22-.46-.11-.81-.52-.02-.02-.23-.1-.24-.11-.13-.05-.02-.01-.15-.04.05.38.18.53.43.68.17.1.27.1.4.15.34.15.15-.02.26.24z" fill="#F7ECC9"/><path fill-rule="evenodd" clip-rule="evenodd" d="m117.12 248.21.2-.06c-.03-.01-.16-.09-.17-.09l-.13-.11-.07-.07c-.24-.18-.27-.14-.43-.44-.17-.15-.03.15-.23-.24l-.13.11c-.01.57.36.93.96.9z" fill="#FAEAB7"/><path fill-rule="evenodd" clip-rule="evenodd" d="M110.52 238.21c.18.11 1.06-.07 1.28-.21-.04-.34.03-.15-.18-.26-.5.02-.97.08-1.1.47z" fill="#834C05"/><path fill-rule="evenodd" clip-rule="evenodd" d="M140 239.41c.1.32.08.9.35 1.05.18-.28.08-.31.05-.68 0-.17.02-.25-.02-.42-.03-.08-.04-.14-.09-.21-.11-.16 0-.04-.17-.14.1.32.24.41-.12.4z" fill="#F0DCA6"/><path fill-rule="evenodd" clip-rule="evenodd" d="M122.98 247.9c.13.42.27.52.76.62l-.12-.35-.35-.43-.3-.08.01.24zM130.47 247.83c.13.38.34.54.76.56l.07-.11c-.23-.01-.02.02-.11-.18-.22-.19-.21-.14-.4-.38-.13-.08-.12.02-.22-.14-.14.12-.13-.21-.1.25z" fill="#F7ECC9"/><path fill-rule="evenodd" clip-rule="evenodd" d="M126.42 240.29c.58 0 .12.04.31-.18l-.13-.29-.27-.23-.54.06c.09.21 0 .13.25.24.08.04.25.08.33.11l.05.29zM112.11 246.27l.19.2c.22-.5.19-.27-.11-.51l-.71-.07c.08.37.21.3.63.38z" fill="#F0DCA6"/><path fill-rule="evenodd" clip-rule="evenodd" d="m139.07 239.07.62.04-.02-.23.41.01c-.13-.12.06-.06-.2-.13s-.6.01-.86.04l.05.27z" fill="#EACB77"/><path fill-rule="evenodd" clip-rule="evenodd" d="M112.88 239.81c.38.14.26.06.4.31.45.08.1.05.25-.11l-.15-.28c-.04-.14.15-.07-.22-.17l-.41.02c.03.04.11.21.13.23z" fill="#FAEAB7"/><path fill-rule="evenodd" clip-rule="evenodd" d="M110.32 246.74c.14.16.4.13.68.15.11-.11.13.14.09-.19-.21-.25-.14-.19-.6-.23l-.02.21-.15.06zM112.41 247.07c.19.03.63.15.74-.01l-.12-.27-.51-.06-.11.34z" fill="#EFD68D"/><path fill-rule="evenodd" clip-rule="evenodd" d="m112.76 243.52.01.55.26.08c.03-.12.11-.38.11-.48 0-.35.01-.27-.16-.38v.36c-.07-.04-.15-.07-.22-.13z" fill="#E9C768"/><path fill-rule="evenodd" clip-rule="evenodd" d="M111.09 246.7c.19.11.12.04.24 0l.1-.58-.36-.02c-.07.36-.08.28.02.6z" fill="#7A4B00"/><path fill-rule="evenodd" clip-rule="evenodd" d="m133.28 239.97.25.09-.13-.49-.09-.12-.4-.01c.07.26 0 .1.15.27.13.16.06-.04.22.26z" fill="#F7ECC9"/><path fill-rule="evenodd" clip-rule="evenodd" d="m113.51 246.4.62-.11c-.04-.28-.02-.14-.11-.28l-.6.06.09.33z" fill="#EBC351"/><path fill-rule="evenodd" clip-rule="evenodd" d="m113.03 246.79.12.27c.22-.14.1.04.21-.22.01-.03.01-.27.01-.29-.07-.29.04-.16-.29-.24l-.05.48z" fill="#7A4B00"/><path fill-rule="evenodd" clip-rule="evenodd" d="M112.11 246.27v.55l.41-.09-.07-.68c-.08-.08-.22-.08-.26-.09.3.24.33.01.11.51l-.19-.2z" fill="#EACB77"/><path fill-rule="evenodd" clip-rule="evenodd" d="m123.74 248.52.57.13v-.26c-.12-.01-.08.01-.16-.02-.13-.06-.16-.09-.22-.14l-.31-.06.12.35z" fill="#F0DCA6"/><path fill-rule="evenodd" clip-rule="evenodd" d="m110.19 246.17-.08.41.38-.11c0-.08.02-.4.01-.42-.1-.47.03-.17-.2-.28l.07.3-.18.1z" fill="#EACB77"/><path fill-rule="evenodd" clip-rule="evenodd" d="M139.69 239.11c.22.04.2-.02.31.3.36.01.22-.08.12-.4l-.04-.12-.41-.01.02.23z" fill="#F7ECC9"/><path fill-rule="evenodd" clip-rule="evenodd" d="M109.1 245.1c.13.03.02-.01.15.04.01.01.22.09.24.11l-.04-.15c-.1-.15.02.15-.13-.23-.04-.09-.02-.11-.03-.19-.12-.13.18-.12-.29-.09l.1.51z" fill="#EFD68D"/><path fill-rule="evenodd" clip-rule="evenodd" d="m112.47 239.78.41.03c-.02-.02-.1-.19-.13-.23l.41-.02c-.11-.07.18-.1-.32-.13-.13-.01-.25.04-.37.06v.29z" fill="#E9C768"/><path fill-rule="evenodd" clip-rule="evenodd" d="M131.23 248.39c.17.17.14.1.47.13v-.22c-.54-.1-.06.01-.27-.16l-.24-.04c.09.2-.12.17.11.18l-.07.11z" fill="#F0DCA6"/><path fill-rule="evenodd" clip-rule="evenodd" d="M113.61 237.88c.46.16.14.1.28-.06l-.09-.27-.13-.11c-.26.26-.13.28-.13.28-.03.35-.03.05.07.16zM111.76 237.61l.31.12-.03-.39-.14-.07c-.23.04-.02-.13-.18.09l.04.25z" fill="#E5BB46"/><path fill-rule="evenodd" clip-rule="evenodd" d="m112.41 247.07.11-.34-.41.09-.03.22.33.03zM110.32 246.74l.15-.06.02-.21-.38.11-.05.21.26-.05z" fill="#F7ECC9"/><path fill-rule="evenodd" clip-rule="evenodd" d="m109.7 241.38.39-.01-.15-.25h-.22l-.02.26z" fill="#EFD68D"/><path d="M221.108 215.835C242.74 192.913 256 162.005 256 128 256 57.308 198.692 0 128 0 71.815 0 24.084 36.2 6.86 86.549A204.007 204.007 0 0 1 32 85c86.514 0 160.325 54.387 189.108 130.835z" fill="#fff" fill-opacity=".14"/><circle cx="128" cy="128" r="128" fill="url(#h)" style="mix-blend-mode:soft-light"/><g filter="url(#i)" fill-rule="evenodd" clip-rule="evenodd" fill="#F8C60A"><path d="M197.21 107.06c-.02.03-1.55 2-2.08 2.88-.93 1.52-1.8 3.38-2.41 5.11-.25.71.3 1.1.68 1.55.64.79 1.63 1.96 2.15 2.8-.08.23.04.13-.22.15-.11.12.14.12-.15.1-.51-.41-1.04-.84-1.53-1.29-.37-.36-1.3-.92-1.5-1.37h-.1c.01.48-.55 2.01-.64 2.86-.11.99-.01 2.04.24 2.97.49 1.84 2.85 1.47 4.16 2.69l-.27.08c-.2.22-.3.11-.8.01l-2.33-.52c1.22 2.84 6.49 5.95 6.58 6.25l-.32-.07c-.16.14.03.12-.26.1-.01 0-.25-.1-.27-.11-.2-.08-.33-.14-.53-.23.83.99 1.56 1.24 2.62 2.61.25.32.63.63.71 1.07l-.21.01c-.11.12.01.25-.35-.02-.13-.1-.22-.19-.36-.3-1.77-1.38-2.7-2.23-4.85-3.56-1.33-.83-5.25-3-6.77-2.77-3.52-.14-3.75-.01-6.85.51l-1.09.75c-2.78 3.17.12 8.31 1.73 10.6l1.59-1.58c-.3.24-.07.25-.4.13-.28.08-.3-.06-.44-.54l-.62-2.61c-.12-.62-.54-3.39.04-3.67.14-.41-.05-.38.28-.55.08.11.31 3.08.43 3.61.2.93.49 2.48.94 3.17.52-.19.51-.7 1.11-.72l-.01-.1c-.35-.2-.44-.89-.56-1.29-.14-.44-.28-.89-.38-1.36-.08-.35-.7-2.77-.25-2.84l.03-.28c.21.04.11-.02.26.1l.04-.31.11.28c.01-.35-.04-.38.11-.62.19.14.12.05.23.59.34 1.76 1.06 2.96 1.32 4.08l.24-.36.08-.07c-.27-.1-.2 0-.3-.45-.27-1.29-.45-2.49-.38-3.83l.16-.01c.04-.51 0-.2.11-.35l.09.11c.01.01.03.04.04.06l.17.85c.06.37.11.73.17 1.1.06.34.33 1.87.45 2.1.48-.04.9-.33 1.29-.26l.08-.01c.1-.7.19-1.91.43-2.48.07-.41-.01-.47.3-.57 0 0-.01 2.53 0 2.88.57-.11 1-.32 1.67-.35 0-.79.18-1.29.34-1.97.17.13.15-.19.13.21.11-.35.24-.65.38-.95.37-.8.25-.78.59-.9.21.4-1.14 3.04-.58 3.76.03-.98.73-3.15 1.22-3.42.2.26-.22 1.19-.33 1.56-.15.52-.27 1.22-.32 1.79 1.06.08 1.27.43 1.59.55-.06-.4.06-1.57.43-1.7.21.31 0 .77 0 1.15-.02.65.02.77.47.97-.01-.53.22-1.03.39-1.42l.06.15c.07-.16.05-.33.27-.47.08.12.07.01.09.22.02.15-.19 1.07-.08 1.54.14.56.57-.01 1 .57.23-.45-.04-1.64.45-1.96.09.13.04.02.09.23.02.11.02.14.03.26.06.65.03.98.24 1.69.44-.08.5-.17.89-.05-.04-.35-.05-.51 0-.87.11-.83.13-.62.31-.68l.23 1.41c.36.04.75.13.94.23l.11-.03.18-.76c.41-.02.8.26.88.61-.27.19-.1-.05-.87.37-.7 1.06-2.29.73-3.82.78.52.1 1.45.23 1.58.77l-.23.06c-.12.19.11.1-.27.12-.08 0-1.61-.35-2.23-.38-1.42-.09-3.44.44-4.07 1.2.61.03 1.21.2 1.81.28.65.08 1.41.11 1.66.48l-.42.01.19.13h-.31c.2.27.07.03.13.27l-.28.03c-.31.52-2.72.27-3.44.31-2.58.14-.96.04-2.53.88-.08.2-.84 1.12-1.28 1.36-.14.36-1.85 2.4-2.21 3.84.34-.15 2.51-1.44 3.12-1-.16.21-.83.37-1.51.82l-1.38 1.18c-.19.4-.28.33-.53.64-.18.22-.34.42-.56.65l-.07.83.06.18c.18-.26.63-.78.94-.93.35-.28.99-.96 1.65-.91-.04.4-.03.32-.37.44l-.68.74c-.28.73-1.34 1.2-1.33 2.48 0 1.19.15 2.47.31 3.63l.18-.25c-.27-1.21.71-3.27 1.14-4.09.11-.34.05-.31.29-.51.06.07.18.11.06.53-.1.34-.32.71-.56 1.65-.61 2.39-.62 5.6-.46 8.08l.56-.4.94-1.33c-.24-.05-.18-.23-.21-.53-.1-1.06-.01-2.95.17-4 .07-.4 0-.41.26-.51.2-.45-.11-.27.28-.47.05.86-.03 1.63.04 2.51.06.82.18 1.61.1 2.44l.37-.77-.2.27c.09-1.23-.01-2.56.07-3.78.03-.51.17-2.55.32-3.04.13-.47-.04-.21.21-.33l.16-.26c.16.57.05 1.05.03 1.62-.05 1.41.35 3.85.22 4.87h.08c.57-1.74 2.03-1.53 1.1-4.87-.29-1.06-.19-5.43.49-5.29l.14-.37c.11.15.06 2.86.1 3.38l.41 3.23.81-1.42.07-.34c-.29.07-.21.04-.46-.73-.29-.92-.5-2.18-.41-3.13l.13.27c.02-.32-.02-.47.12-.7.23.17.22.57.31.95.08.39.15.7.26 1.03.21.67.46 1.33.71 1.94.35-.15.52-.32.78-.51l1.33-2.03c.19-.82.56-4.05.82-4.42.17.22.14.55.12.83-.02.32-.03.64-.05.97l.04.54.46-2.47c.08-.49-.01-.32.28-.45l-.04 3.66c.64-.54.03-5.55 1.07-5.99.08-.47-.02-.19.25-.32-.03.81-.18 1.43-.22 2.23-.04.76-.07 1.48-.1 2.27.44-.45 1.61-2.53 1.72-3.25.24-1.68.34-2.63 1.4-3.5l1.57-1.19c1.61 2.23.14 13.92-.46 16.84-.55 2.69-.85 3.29-1.47 5.48-.11.41-.03.86-.07.99-.27.83-.08-.61-.45.5-.79 2.36-1.29 3.14-2.01 4.95-.3.76.3 1.02.22 1.85l-.28-.15c.08.39.04.08-.06.19l-.49-.55c-.57.96-1.12 2.31-1.66 3.32-.31.56-.58 1.05-.89 1.59-.54.95.43 1.71-.18 1.79-.09.18-.14.19-.35-.03-.09-.09-.18-.26-.27-.39-.4 1.07-3.93 6.4-4.78 7.58-.29.41-.6.78-.89 1.22-.36.55.22.76.14 1.51l-.24-.06c.02.32.03.09-.09.17-.15-.1-.15-.09-.28-.25-.09-.1-.08-.1-.12-.16-.12-.14-.05-.06-.14-.16l-2.46 2.98c-.78.93-2.01 2.06-2.61 2.91l.2 1c-.18.09-.05.1-.31.04-.13.2.23.21-.22.14l-.27-.34-.02-.33-7.14 6.35c.1.39.25.46.29.93l-.29-.01c.08.33.04.08-.07.18-.34-.17-.54-.3-.63-.67-1 .47-3.52 2.41-4.83 3.24-.73.46-5.02 2.61-5.24 2.86.95.43 1.08 1.39 4.47 2.07.96.2 1.97.33 3.04.28 1.07-.04 1.59-.6 2.35-1.05 1.43-.84 7.25-4.92 7.64-5.67-1.59-.04-4.9.42-6.13-.63l.25-.08c-.1-.13-.05-.16-.03-.22.43-.11 2.73.08 4.29-.08 1.01-.11 2.97-.45 3.72-.82l4.59-4.65c-1.21.09-3.73.2-4.51-.71.09-.16-.02-.04.19-.1-.01-.21-.04-.13.04-.25 1.18-.03 1.98.11 3.19-.06.94-.13 1.76-.4 2.61-.7 1.45-1.02 3.59-4.56 4.88-6.34-.2.16-.31.11-.62.19-.81.21-.87.32-1.97.5-.73.13-2.66.4-3.09-.1l.25-.1c-.16-.26-.06-.09-.01-.19.45-.17 1.27-.31 1.75-.43 2.44-.59 4.21-1.7 4.7-1.84l3.84-7.04c-.63.04-1.04.26-1.69.36-.84.14-1.05.16-1.9.05.11-.35-.05-.15.28-.27-.08-.1-.05-.05-.08-.18.68-.3 1.38-.46 2.02-.73.39-.16 1.71-.83 1.93-.87l.21-.13c-.3-.06.03-.52.3-1.23.17-.45.33-.93.51-1.41.22-.59.87-2.34.9-2.92-.26.12-1.61.86-1.9.88-.73.05-.21.06-.45-.13.17-.32-.05-.12.3-.17l.05-.3c.4-.3.81-.62 1.27-.94.34-.25.96-.79 1.32-.9l1.12-5.24-1.72.95-.4.01c.04-.39-.04-.16.19-.3l.04-.08c.07-.36.7-.77 1.02-1.01.36-.27.73-.86 1.17-.84l.03-.15c-.24-.15-.04-.52.02-1.15l.47-3.91-1.01.78-.33.04.04-.26 1.53-2.17c-.02-.02-.03-.07-.04-.06l.04-1.78c.04-.66-.01-1.44.07-2.02l-.49.5-.3.1.04-.29.77-1.35c.05-2.34-.18-5.89-.73-8.26-.16-.68-.32-.82-.03-1.04l-.02-.26c1.26.32 1.29 2.29 1.87 3.5.24.49 1.81 3.19 2.07 3.38.02-1.15-.36-2.48-.41-3.04-.04-.57.02-.34.15-.44l.04-.31.22.01.79 4.35c.02-.3-.01-.55-.01-.85 0-.08 0-.41.01-.47.07-.44-.04-.19.18-.29l.11-.29.22.02.22 3.97c.26-.48.11-2.04.2-2.3.1-.33-.05-.1.18-.22l.12-.3c.36 1.58.28 2.55.43 4.08.07.83 1.36 1.69 1.56 2.82l1.34-4.46c.65.24.04 2.55-.08 3.11-.25 1.22.13 1.81.62 2.78-.06-.88.21-2.14.22-3.15 0-1.17-.18-2.04-.22-3.13l.17.15.05-.42c.68 1.55.77 3.29.72 5.14-.03 1.32-.37 1.42.22 2.61.32.67.71 1.4 1.03 1.99-.06-.96-.02-1.98-.04-2.96-.03-.89-.12-1.85-.16-2.68.07.12.06.04.18.12.12-.15-.05-.4.24-.03.13.18.43 3.12.46 3.4.06.54.24 3.73.38 3.91.08-1.03-.08-3.16-.28-4.31-.1-.6-.03-.52.11-.65v-.28c.71.43.92 2.71 1 3.75.06.9-.27 3.04 1.18 3.66.09-1.43-.17-3.76-.35-5.22-.22-1.71-.66-2.83-1.17-4.32.17-.19-.1-.07.18-.06-.14-.38-.03-.23.03-.32.53.27 1.27 2.02 1.58 2.64.36.71.99 2.4 1.35 2.89.07-.62-.05-1.17-.13-1.75-.16-1.91-2.44-4.96-3.35-5.77-.08-.48-.04-.04.12-.21l-.09-.27c.68.1 1.54.9 1.93 1.25l1.63 1.51c-.1-.47-.23-1.24-.46-1.58-.11-.15-.38-.38-.5-.5-.2-.19-.29-.33-.48-.52l-2.24-1.88c.11-.17-.08-.05.13-.06l-.11-.33c1.13.15 2.24 1.16 3.12 1.6-.53-.95-4.79-3.17-5.04-3.49l.14-.06-.02-.23c.81.01 2.13.59 2.86.95.34.17.52.32.89.44-.52-1.53-1.85-2.88-2.89-3.57-1.38-.91-3.89-.8-5.57-.86.04-.21-.05-.07.17-.16-.12-.1-.1-.06-.13-.21.78-.21 3.2-.23 4.04-.13-1.54-.71-4.2.15-4.8-.11l.24-.21c-.17-.21-.03-.2.31-.3.22-.07.44-.11.68-.16.49-.12.96-.15 1.46-.23-.38-.35-2.23-.86-2.86-.9l-3.24.48.28-.24c-.05-.05-.05-.09-.11-.2l.88-.5c-1.36-.26-1.94-.01-2.41-.04l-.25-.04c-.31-.3-1.04-.87-1.19-1.13l.17-.07c-.04-.42-.12-.21.76-.62.37-.17.62-.4 1.06-.4.23.25.28.47.49.69.31-.15.77-.22 1.11-.03l.19-.01c.05-.37.19-.7.33-1.75 0-.03.01-.05.01-.08.01-.02.01-.05.02-.07l.04-.13c.64.15.46 1.14.36 1.65-.19.93.44.64.77 1.34l.79-3.19-.02-.06c.06-.29-.08-.16.21-.2.4.72.28 1.56.11 2.31l1.46-.01c.01-.4.15-.71.14-1.11 0-.37-.09-.75-.11-1.15.28.16.09-.16.22.12-.06-.3-.09-.15 0-.34.51.36.46 1.56.46 2.31l.75-.11.31-2.42.01-.22c.77.08.91 1.83.97 2.43.44.02.58.04.87.28.26-.72.44-2.19.44-2.19.11-.32-.09-.17.25-.29.15.62 0 1.9-.19 2.47.28.16.36.08.62.22l.12-3.25c-.03-.36 0-.17.06-.28.71.37.64 2.03 1.01 2.79.62.19 1.79.08 2.91.64l.16-3.16c.01-.3-.11-.13.12-.21.59.52.98 3.37 1 4.41l.2.06c-.05-2.55.08-1.98-.44-4.17-.13-.58.04-.5.09-.53-.05-.4-.01-.13.07-.24.75.33 1.59 3.16 1.52 4.48l1.99-.22c-.2-1.92-1.01-3.09-2.05-4.54-.3-.42-.64-.84-.9-1.28.08-.12-.18-.14.16-.07l-.11-.3c.7.16 2.94 2.81 3.54 3.9.38.7.43 1.37.69 1.89.93-.04 1.74-.31 2.84-.2-.4-.73-2.07-2.52-2.71-3.24-.23-.27-.47-.46-.72-.74l-1.4-1.52c-.34-.4-.69-.66-.47-.79.03-.27-.07-.1.09-.25.5.15 1.32.99 1.73 1.33l3.02 2.92c.43.46.93 1.03 1.29 1.62l1.25-.15c-.37-.87-2.43-3.02-3.05-3.71-.47-.51-2.81-2.76-3.67-2.96-3.12-.36-9.65 1.56-12.73 2.21-.18-.12-.14.17-.15-.19l-2.47 1.3c-1.33.84-2.95 1.46-4.31 2.36-.14.25.12.13-.33.19.06-.44-.07-.18.19-.36l.23-.51c.08-.39.38-.65.66-.82.18-.3 1.15-1.01 1.63-1.24.29-.14.65-.34.99-.47.38-.15.8-.24 1.11-.36-.51-.07-1.21-.19-1.6-.36.15-.14-.25-.17.3-.11-.22-.13-.14-.03-.21-.29l2.51-.01c-.52-.15-1.92-.24-2.27-.56l.25-.04a.554.554 0 0 1-.05-.13c-.07-.44-.1.2.04-.13l3.03.06.63-.99c.34-.35.51-.52.95-.81.31-.21.74-.45 1.08-.65.49-.29 1.87-1 2.15-1.33-1.13-.12-2.74-.32-3.33-1.07.06-.1-.14-.1.15-.07-.09-.52 1.05-.04 2.39.06.49.04 1.84.19 2.2.02l.4-.37c-.7-.08-3.33.06-3.69-.28.09-.08-.15-.08.27-.1a.374.374 0 0 1-.06-.1c0-.01.01-.03.01-.05-.01-.03.02-.03.02-.05 1.25-.39 3.25-.32 4.24-.96l3.22-3.93c.28-.52.87-.96 1.3-1.43.23-.26.37-.41.65-.63.23-.17.44-.49.64-.56-.66-.31-2.3-.12-3.06-.05-1.74.16-1.04.28-2.04 1.17l-.77 1.08h-.22c-.21.22.28.13-.28.19 0-.59-.04-.15.19-.32l.02-.24.78-1.73-.01-.12-4.28 1.04c.01.51-.45 3.25-.64 3.61-.2-.24-.16-.71-.07-1.02l-.08 1.15-.18-.01v-1.77c.03.48-.15 2.16-.38 2.44-.31-.64.04-3.18-.06-4.11l-.01-.02-.18.02.04-.22-2.05 1.15c-.11.21-.12.22-.28.4-.2.24-.16.19-.37.31-.06.23-.46.85-.63 1.16-.37.7-.17.71-.14 1.51.02.58.09 1.11.15 1.7.1.93.26 1.41-.17 1.24l-.07.17c-.49-.54-.5-2.47-1.28-3.26-2.06 4.55-2.28 2.04-2.39 7.1-.01.49.1 1-.28.83-.02.19.03.09-.07.19-.41-.42-.3-1.82-.53-2.58-.05 1.13.33 2.69.23 3.55-.26-.08-.06.03-.26-.14 0 .27.04.09-.07.24-.23-.53-.49-1.96-.65-2.24.05 1.26-.2 2.41-.44 3.55l-.71 2.3c-.03.07-.1.26-.14.32-.12.19-.04.14-.25.21-.12.28.07.1-.2.2-.54-.61-.51-2.73-.4-3.61.15-1.24.49-2.27.73-3.4l-2.65 2.06c.11-.39 1.27-1.63 1.61-2.01 1.37-1.55 1.41-1.27 1.15-2.06l-2.76 2.57-.24.2c-.17-.28-.13-.24.18-.44l2.58-3.77c-.56-.28-1.32-2.7-1.53-3.41-.29-1.03-.71-3.18-.57-4.27l-1.94 1.56c-.15.33-.04.22-.4.31.08-.35-.09-.23.32-.37l2.01-2.5c-.53-.16-.67-1.14-.8-1.7-.15-.63-.25-1.41-.28-2.06-.06-1.64.06-3.29-.02-4.89-.31.14-.11.01-.35.26l-.81.8zM58.52 117.19c0 .19.07.05-.04.15-.37-.17-.69-.52-1.03-.78l-.97-.8c0 2.29-.7 4.86-1.61 6.57-.6 1.11.24 1.68.88 2.6.44.62 1.89 2.39 1.19 2.24-.15.16.2.19-.18.12l-1.98-1.85c-.22-.19-.42-.48-.68-.62-.01.53.36.72.63 1.03.51.58 2.16 2.24 2.19 2.75l-.28-.08c-.04.21.09.05-.08.15-.71-.4-1.46-1.08-2.2-1.57.23 1.02.59 2.06.63 3.23.03.71.13 3-.54 3.15-.14.18.18.16-.17.14-.75-1.06-1.64-5.26-1.48-6.68-.2.4-.21 1.72-.67 2.28l-.06-.21c-.01.03-.04.13-.05.15-.1.18-.03.06-.16.2-.06-1.18.34-2.36.23-3.64-.01.02-.03.06-.03.08-.01.02-.02.05-.03.07-.01.03-.01.05-.02.08l-.13.97c-.19.96-.09 1.34-.45 1.1-.07.25.07.15-.17.22-.26-2.09.25-3.13-.66-4.75-.47-.83-1.72-2.45-1.84-3.53h-.09c-.05.39-.21.51-.35.86l-.53 1.84c-.08.37-.09.71-.35.52-.05.26.02.13-.11.27-.14-.16-.1.15-.17-.33-.01-.1.42-3.07.29-3.86-.03-.28-.4-.87-.55-1.11-.28-.43-.49-.62-.81-.94-.61-.6-1.17-.91-2.13-1.27.08.58.19 3.7.04 4.13l-.17-.13-.07.29c-.22-.29-.33-1.96-.4-1.96l.01 1.15c-.3-.26-.11-.17-.26-.48.04.44-.03.36-.08.43-1.14-3.14 1.09-3.97-4.67-4.59.27.68.77 1.2.76 2.15l-.27-.04c-.19.2.4.22-.27.15l-.94-1.25c-.1-.09-.17-.14-.28-.26-1.52-1.64-2.62-.69-4.71-1.04.16.22.44.35.64.53 1.29 1.15 2.75 2.73 3.83 4.13.56.72 1.32 2.12 2.19 2.37.65.19 2.53.39 3.36.58.33.08.18-.02.38.19-.12.21.08.09-.23.15-.08.27-.37.19-.7.2-.32 0-.6.01-.92.03-.58.04-1.16.04-1.73.06.51.72 1.35.43 2.46.38.59-.03 2.26-.36 2.58-.3-.11.58-.17.11-.51.53-.09.19-.91.49-1.18.58-.55.18-.98.18-1.54.28.53.51 1.95 1.19 2.68 1.64.55.35 1.41.87 1.8 1.4.18.25.2.42.38.65.67.08 2.75-.2 3.1.16-.18.18-.41.15-.66.19l-2.24.31c.6.64 2.53-.11 3.27.32-.18.41-1.69.44-2.18.62 2.06.24 5.14 1.92 5.35 3.62l-.23.02c-.05.05.13.37-.54-.06-.96-.63-2.65-1.48-3.67-2.01-2.27-1.18-2.21-1.23-4.59-1.81-3.32-.8-7.39-1.88-10.9-1.92.13-.1.01-.05.22-.11.33-.09 1.08-.03 1.45-.01-2.78-.52-2.92 1.15-4.24 1.84-.01 0-1.64 1.8-1.93 1.94-.13.28-.91 1.1-1.2 1.47-.35.45-.88 1.08-1.15 1.62.52.01.91.03 1.37.2l1.21-1.38c.08-.3 1.3-1.43 1.59-1.72.32-.32.5-.47.87-.86.3-.33.55-.44.89-.79.5-.31 1.07-1.13 1.69-1.14-.08.46-.39.57-.69.9-.63.7-1.55 1.57-2.16 2.32-.65.79-2.27 2.39-2.65 3.28.94-.06 2.35-.09 3.02.37.52-.61.86-3.02 2.29-4.23.4-.41.73-.96 1.37-1.26.04-.21.24-.4.53-.42-.05.28-1.56 2.27-1.86 2.76-2.78 4.59.13 3.19.95 3.79.19-.21.01.12.09-.19.11-.45-.07-1.13.25-1.53-.01-.63.8-2.73 1.24-2.92.1.33-.34 1.62-.39 2.18-.09.94-.08 1.69-.09 2.69l.24.09.36-1.1c-.03-.34-.06-.42.09-.66-.08-.9.4-1.71.49-2.47.09-.31-.03-.15.2-.28.12.13.04-.02.1.2.07.29 0-.17.02.16l-.1 1.28c.06 1.99.08 1.75.76 1.51.59-.2 1.78-.41 2.36-.33l.16.03c.01-.2-.01-.07.04-.28 0-.02.03-.03.03-.07 0-.03.03-.04.04-.06-.02-.58.33-1.53.52-2.02l.19-.46c.29.22.14.35.1.77-.07.78 0 1.92.08 2.65h.56c-.11-.31-.2-.77-.24-1.18a5.27 5.27 0 0 1-.04-.56c0-.29-.07-.47.18-.49.03-.52-.04-.23.18-.36.22.26.33 1.59.55 2.31.4-.05.56-.14.9.03l.13-.75c0-.37-.05-.18.1-.37-.03-.48.19-.71.31-1.12.06-.32.02-.26.3-.35.28.31.14 1.21.21 1.72.11.77.15.8.8 1.02-.07-.5-.07-.66.04-1.13.06-.26.12-.75.36-.8.03-.07.05-.15.1-.21.11-.17-.02-.04.13-.14.19.45-.39 1.55.27 2.43l1.28.11c-.35-.65-.12-1.46.07-2.08l.04.25c.19-.47-.1-.37.26-.55.26.41.22 1.26.31 1.82.1.71.28.98.49 1.53.54-.21.33-.47 1-.57l-.02-.09c-.31-.1-.26-.04-.32-.39-.03-.13-.06-.4-.06-.54-.01-.28-.06-.85.25-.9l.06-.1c.13-.32-.15-.21.33-.28.18.56.22 1.22.45 1.9.5.08.71-.09 1.14.2l.23.02c.05-.12.1-.26.15-.38l.2-.37c.35.04 1.67.67 1.84.92-.14.36.03.08-.34.31-.17.11-.21.16-.34.26-.12.17.02.02-.19.22-.05.05-.14.11-.2.16-.18.14-.16.12-.35.22-.08.29.13.06-.15.23-.42-.06-.85-.14-1.28-.13-.52 0-.74.12-1.3.03l.14.05c.02.01.04.02.07.03.41.14.9.33 1.13.72-.13.15.22.14-.25.11.07.14-.08.14.07.12-.56.05-1-.24-1.54-.37-.71-.18-1.48-.11-1.66-.34l-3.14 1.14c.52-.02 1.24.06 1.73.16.43.09 1.2.14 1.38.55-.13.09.2.12-.26.07-.09.1.11.22-.57.14-1.78-.21-1.48-.14-3.12-.22-.33-.01-.37.1-.4-.18l-1.23.56c.73.01 1.7-.13 2.55-.1.82.02 1.68 0 2.41.16-.08.27.04.16-.25.22-.01.21.08.04-.05.17l-3.96.25c-.48.08-.83.25-1.05.1l-.15-.02-1.96 1.96c-.4.31-1.06 1.68-1.27 2.28.52-.2 1.46-.89 2.91-1.35.28-.09.61-.23.89-.19.24.03.08-.02.23.08-.18.28-.26.18-.61.35-.21.1-.39.22-.59.32-.36.17-.79.43-1.1.56l-2.84 2.4c0 .3-.05.06.11.23.16-.23 2.62-1.98 3.18-1.66-.15.32-.89.57-1.13.9l-.88.71c-.31.3-.92.85-1.19 1.23-.28.4-.45 1.32-.56 1.88.09.1-.16.34.28-.04l1.24-1.25c.15-.12.15-.12.29-.25l.2-.19c.01-.03.04-.03.05-.05.47-.29.91-.9 1.6-.94-.03.43-.38.57-.65.91-.63.81-1.41 1.81-1.85 2.72-1.35 2.73-.85 2.75-1.09 4.97l1.52-3.12c.08-.34 1.18-2.89 1.61-3.01.09.21-.49 1.67-.61 2.05-.58 1.88-.96 5.63-.86 7.53l.03.38 1.07-.95c.33-1.11.25-6.19 1.19-6.5.09.17-.17 2.18-.21 2.61-.09.92-.07 1.95-.06 2.89.24-1.4.31-4.99.68-6.69.22-1.03 0-.62.28-.78l.23-.34c.03 1-.09 2.24-.14 3.28-.05 1.02.07 2.02-.09 3.02l1.62-3.04.02-.15c-.14-.14-.13.24-.25-.74-.26-2.13-.05-3.7.4-5.77.03.05.1.03.07.35.07-.12.22-.71.27-.9.18.2.16.33.08.81-.48 3.33.15 3.77.11 5.96l.86-1.57.11-.37-.19.01c-.14-.6-.26-1.16-.37-1.77l-.19-1.51c.03-.63-.02-.27.19-.42l.06-.47c.18.05.19-.03.26.54.09.7.22 1.06.43 1.76.22.78.55 1.41.75 2.15l1.69-2.44c-.41-.16-.25-.65-.25-1.12 0-.39.17-3.05.53-3.09.08-.22-.02-.1.19-.23.14.84-.03 1.9.2 2.65 0-.67-.01-1.36.08-2.02.04-.3.07-.6.12-.9.04-.23.05-.72.27-.64.1-.31-.07-.2.21-.26.23.49.08 1.4.1 1.97.19-.63.27-2.2.56-3.21.05-.17.07-.34.13-.52.14-.5-.01-.25.25-.37.17-.39.02-.27.29-.32l-.53 4.36c.17-.11 1.67-2.66 1.9-3.03.42-.67 1.21-3.42 1.41-3.58l.86-.88c.02.96-.71 4.19-.83 5.7-.07.89-.12 2.31-.11 3.19.01.97 1.24 2.06.62 2.15-.09.1.19.21-.29.09-.09-.02-.14-.08-.28-.15 0 .8 0 3.03.31 3.57.12.22 1.89 2.31 1.03 2.15-.13.14.29.31-.31.08-.06-.02-.22-.16-.27-.21-.18-.15-.29-.24-.44-.37.25 1.44.31 3.02.56 4.47.1.58.76 1.02 1.12 1.33.39.32 1.09.88 1.27 1.24-.17.16.28.18-.33.12l.07.12c-.6.04-1.39-.41-1.8-.69.09.71.31 1.62.46 2.29.56 2.6.31 2.34 1.98 3.59.42.32 1.4.81 1.49 1.33l-.26.05c-.04.07.13.28-.55.05l-1.53-.69c.5 1.66 1.11 3.38 1.78 5.01.3.74.99 1 1.98 1.4l1.83.64c.34.12.4.1.52.41l-.43.06c-.03.28-.37.22-.68.21-.26 0-.49-.03-.75-.07-.51-.08-.97-.16-1.45-.33.9 2.18 2.26 4.58 3.36 6.46.73 1.24 4.53 2.3 6 2.6.38.07.75.04.86.39l-.76.09-1.24-.01 1.43.07c-.3.21-.86.17-1.23.16-1.16-.05-2.3-.23-3.38-.61.28.74 3.15 4.56 3.64 5.16.38.47.51.84 1.12 1.07.52.19 1.14.36 1.71.49.95.2 1.95.25 2.94.18.49-.03.82-.1 1.04.16-.15.26.07.13-.3.2l-.98.35c.5-.05.11-.02.27.08-.51.11-.92.26-1.53.33-.64.07-1.19-.01-1.8.01.22.55 4.02 4.34 4.57 4.62 2.2 1.14 7.49.72 8.06.9l-.29.28c-.24.38-2.02.6-2.61.67-.92.11-2.21.1-3.11-.05.81 1.03 5.87 4.57 7.26 5.44 1.89 1.18 2.06 1.59 4.93 1.13 1.81-.3 3.51-.76 4.66-1.7l.67-.48c-1.06.16-6.62-3.42-7.97-4.35-.43-.29-2.26-1.38-2.32-1.84l-.58.51c-.09.31.1.1-.18.23-.01-.01-.31.02-.07-.26.01 0 .04-.01.04-.01l.11.02.21-.89c-.04.07.05.33-.52-.11-.17-.14-.32-.26-.46-.37-.35-.28-.64-.49-.96-.77-1.21-1.06-2.38-1.91-3.61-3.16l-1.78-1.69-.44.25c-.05.34.1.16-.2.3-.36-.5.1-.43-.01-1.21-1.05-1.07-4.5-5.04-5.08-6.03l-.53.46c-.1.24 0 .14-.26.21-.04-.61-.06-.31.24-.44l.23-.93c-.08.13.18.11-.19.11-.16-.36-.49-.75-.75-1.1a99.098 99.098 0 0 1-3.74-5.67c-.33-.55-1.11-2-1.39-2.3l-.44.16c-.08.34.04.16-.24.34-.05-.06-.36.12 0-.7.11-.25.14-.41.18-.69-.31-.81-1.08-1.94-1.51-2.83-.27-.53-1.49-2.62-1.26-3.07l-.57.84c-.01.02-.06.09-.08.1l-.24.07c.03-.63.38-1.07.33-1.48-.17-.59-.94-2.16-1.23-2.93-.17-.45-.44-1.03-.61-1.5-.56-1.55-.19-.89-.72-1.22.04-.85.12-.56-.18-1.45-1.04-3.05-1.6-6.39-2.04-9.56-.21-1.56-.55-7.96-.41-9.52.04-.42.12-.99.19-1.44.08-.61.24-.81.34-1.29-.04.16-.02.01.12.09l-.01-.11c.11-.35.12-.31.5-.08 3.31 1.97 1.68 3.23 3.05 5.39.39.61.7 1.35 1.12 1.89l-.25-3.87.15.13c0-.3-.02-.18.11-.31.78 1.03.59 5.41 1.01 5.87l.01-3.02c.02.05.12.09.15.13.06-.54-.05-.15.15-.34.39.83.18 3.45.5 4.08l-.11-3.02c.13.12.15.04.23.26-.18-.76.08-.74.1-.76.37.57.52 3.33.83 4.28.32 1.02 1.5 2.68 2.19 2.84 0-.28.4-1.28.53-1.69.18-.61.39-1.23.44-1.86 0-.46-.1-.39.21-.54.29.76-.05 2.54-.3 3.28-.22.65-.4.79-.13 1.52.09.23.48 1.06.64 1.23-.16-.55.25-2.37.27-3.17.03-1.08-.04-2.15-.02-3.2l.16.07.09-.26c.36.27.61 1.9.69 2.5.47 3.45-1.81 4.28.95 7.55.01-.94.18-1.97.21-2.94.02-.46.03-.97.01-1.45-.02-.58-.16-1.3.14-1.29l.1-.31c.78.7.3 6.76.73 7.41-.05-.74.18-1.99.13-3.26-.03-.78-.08-.87.18-1.01l.17-.19c1.21 3.69-.82 5.38 1.72 7.16.07-3.39.21-4.73-.51-7.93-.16-.72-.37-1.07-.53-1.59-.17-.54.05-.46.06-.46.05-.25-.09-.13.15-.19.81.79 1.42 2.76 1.47 4.26.01-.03.02-.06.02-.08.01-.02.02-.05.03-.07.01-.03.01-.05.02-.08l.04-.26c.13-.83.23-2.29.16-3.06-.3-.65-.72-1.07-1.14-1.57-.28-.33-.28-.41-.65-.73-.09-.07-.66-.51-.4-.66.03-.27-.07-.1.09-.26 1.06.2 1.92 1.44 2.41 1.72-.07-.95-.22-.9-.69-1.38-1.24-1.24-1.74-1.64-3.3-2.47.12-.18-.18-.16.22-.13-.18-.19-.04.02-.17-.3 1.23.07 2.11.6 2.94 1.04-.33-.88-1.67-3.05-2.34-3.73l-1.54-1.46c-1.24-.91-.82-.79-2.19-.83-.65-.02-1.3-.05-1.92-.07-.34-.01-.68 0-1.02-.01-.92-.02-.73-.05-.48-.21-.04-.22-.07-.11.04-.25l-.59.01.28-.22-.2-.07c.4-.25 2.61-.61 3.17-.56-.61-.49-1.87-1.15-2.86-1.25-1.73-.12-2.38.32-3.8.4.14-.34-.08-.18.24-.29.07-.3-.12-.13.26-.34.07-.04.29-.11.39-.15.42-.18.43-.19.95-.17v-.09c-.67.1-.97-.04-1.6-.06-.5-.02-1.02.12-1.35.1-.74-.04-1.17-.54-1.52-.74-.3-.16-.27-.05-.47-.33.4-.26.18-.09.23-.06l-.03-.1c.07-.29-.02-.19.29-.41.21-.14.18-.14.52-.16l.25.72c.42-.01.43-.13.94-.08l.02-1.09c.12-.15-.15-.21.18-.09.03-.41 0-.16.12-.31.47.32.32.91.41 1.45.29.07.53.14.73.22l.12-2.03c.05.04.16.08.18.11-.01-.3-.03-.15.12-.31.28.19.1-.06.24.35l.15 1.4.94-.08-.14-1.82.17.08c-.01-.27-.03-.15.1-.29.44.3.54 1.25.55 1.78l.59-.18c-.21-.14-.17.22-.16-.46 0-.18.01-.27 0-.47-.02-.31-.08-.52-.03-.85l.13.06.11-.27c.44.31.37.91.52 1.5l1.32-.33c-.1-.64-.14-1.1-.33-1.72-.11-.37-.39-1.1-.37-1.44-.03.14-.02.01.11.08.05-.31-.07-.11.12-.27.38.25.42.5.64.88.01.02.04.08.04.06.01-.01.03.04.05.06-.07-.28-.1-.33-.2-.59-.02-.05-.08-.25-.08-.29.03-.35-.17-.04.13-.2-.06-.28-.05-.13.06-.28.84.47 1.2 2.38 1.29 3.59.62.06 1.37.2 1.75.45-.18-.41-.05-.87-.06-1.35-.02-.49-.24-1.34.06-1.33.05-.29-.08-.17.16-.27.44.43.64 2.16.65 2.95l1.26.39c.03-.67.29-1.44.37-2.1.04-.34.11-.68.17-1.02.03-.25.03-.89.29-.9l.18-.23c.19.25.08 0 .14.34.31 1.63-.87 3.85-.22 4.83.2-.88.9-2.11 1.22-3.54.28-1.18-.08-1.04.37-1.24.47 1.22-1.39 5.08-1.29 5.96l.2-.14c.06-1.04 1.08-3.06 1.19-4.4.28-.86-.1-.71.31-.85.48 1.14-.86 4.55-1.1 5.68l1.06.88c.33-.44.66-2.27.81-3.03.11-.59.19-1.17.26-1.77.03-.28.04-.62.01-.94-.01-.12-.04-.35-.02-.46.05-.36-.04-.24.2-.36.09-.25-.13-.13.27-.2.89 1.79-.28 5.58-.79 7.33.26.41.8.99 1.09 1.37 1.31-.62 3.52-5.75 2.89-8.08l.05 1.12c-.38-.43-.08-.91-.45-1.89-.36-.94-1.13-1.69-2.02-2.17-3.33-1.77-8.85-.36-8.99-.37l-.13-.04c-1.32.28-4.33 2.06-5.29 2.75-.79.57-4.28 3.34-4.59 3.46-.05.42.02.28-.39.32.08-.42-.07-.23.37-.42l1.03-1.47c.4-.43.9-.88 1.37-1.27.46-.38.81-1 1.47-1.11l-.45-.13c-.42.27-1.04.68-1.5.62.21-.29 1.71-1.18 2.08-1.44.68-.49 1.29-1 1.87-1.46l2.66-3.19-3.21.7c-.49.1-.39-.03-.49-.14l.37-.08c-.15-.09-.08-.07-.18-.17l3.73-1.56c.05-.32.15-.5.23-.84.41-1.68.29-2.85-.12-4.51-.14-.55-.44-1.03-.47-1.61l-2.97 2.58c-.12.35-.02.24-.4.34.07-.41-.09-.25.32-.43l2.89-3.68-.19-.02c-.68-2.01-1.45-3.6-2.4-5.28-.64-1.13-2.68-3.8-3.41-4.19.04 2.08.16 4.92-.34 6.81-.43 1.64-.9 1.18.05 2.36.34.43 1.37 1.59 1.53 2.05l-.29-.03z"/></g></g><defs><filter id="c" x="74.43" y="84.321" width="105.21" height="51.977" filterUnits="userSpaceOnUse" color-interpolation-filters="sRGB"><feFlood flood-opacity="0" result="BackgroundImageFix"/><feColorMatrix in="SourceAlpha" values="0 0 0 0 0 0 0 0 0 0 0 0 0 0 0 0 0 0 127 0" result="hardAlpha"/><feOffset/><feGaussianBlur stdDeviation="3"/><feComposite in2="hardAlpha" operator="out"/><feColorMatrix values="0 0 0 0 1 0 0 0 0 1 0 0 0 0 1 0 0 0 1 0"/><feBlend in2="BackgroundImageFix" result="effect1_dropShadow_1_1022"/><feColorMatrix in="SourceAlpha" values="0 0 0 0 0 0 0 0 0 0 0 0 0 0 0 0 0 0 127 0" result="hardAlpha"/><feOffset/><feGaussianBlur stdDeviation="5"/><feComposite in2="hardAlpha" operator="out"/><feColorMatrix values="0 0 0 0 1 0 0 0 0 0.913725 0 0 0 0 0.298039 0 0 0 1 0"/><feBlend in2="effect1_dropShadow_1_1022" result="effect2_dropShadow_1_1022"/><feColorMatrix in="SourceAlpha" values="0 0 0 0 0 0 0 0 0 0 0 0 0 0 0 0 0 0 127 0" result="hardAlpha"/><feOffset/><feGaussianBlur stdDeviation="3.5"/><feComposite in2="hardAlpha" operator="out"/><feColorMatrix values="0 0 0 0 1 0 0 0 0 0.913725 0 0 0 0 0.298039 0 0 0 1 0"/><feBlend in2="effect2_dropShadow_1_1022" result="effect3_dropShadow_1_1022"/><feColorMatrix in="SourceAlpha" values="0 0 0 0 0 0 0 0 0 0 0 0 0 0 0 0 0 0 127 0" result="hardAlpha"/><feOffset/><feGaussianBlur stdDeviation="8"/><feComposite in2="hardAlpha" operator="out"/><feColorMatrix values="0 0 0 0 1 0 0 0 0 0.913725 0 0 0 0 0.298039 0 0 0 1 0"/><feBlend in2="effect3_dropShadow_1_1022" result="effect4_dropShadow_1_1022"/><feColorMatrix in="SourceAlpha" values="0 0 0 0 0 0 0 0 0 0 0 0 0 0 0 0 0 0 127 0" result="hardAlpha"/><feOffset/><feGaussianBlur stdDeviation="5"/><feComposite in2="hardAlpha" operator="out"/><feColorMatrix values="0 0 0 0 1 0 0 0 0 0.913725 0 0 0 0 0.298039 0 0 0 1 0"/><feBlend in2="effect4_dropShadow_1_1022" result="effect5_dropShadow_1_1022"/><feColorMatrix in="SourceAlpha" values="0 0 0 0 0 0 0 0 0 0 0 0 0 0 0 0 0 0 127 0" result="hardAlpha"/><feOffset/><feGaussianBlur stdDeviation="5"/><feComposite in2="hardAlpha" operator="out"/><feColorMatrix values="0 0 0 0 1 0 0 0 0 0.913725 0 0 0 0 0.298039 0 0 0 1 0"/><feBlend in2="effect5_dropShadow_1_1022" result="effect6_dropShadow_1_1022"/><feColorMatrix in="SourceAlpha" values="0 0 0 0 0 0 0 0 0 0 0 0 0 0 0 0 0 0 127 0" result="hardAlpha"/><feOffset/><feGaussianBlur stdDeviation="11.5"/><feComposite in2="hardAlpha" operator="out"/><feColorMatrix values="0 0 0 0 1 0 0 0 0 0.913725 0 0 0 0 0.298039 0 0 0 1 0"/><feBlend in2="effect6_dropShadow_1_1022" result="effect7_dropShadow_1_1022"/><feBlend in="SourceGraphic" in2="effect7_dropShadow_1_1022" result="shape"/></filter><filter id="d" x="66" y="32.5" width="123.676" height="166.137" filterUnits="userSpaceOnUse" color-interpolation-filters="sRGB"><feFlood flood-opacity="0" result="BackgroundImageFix"/><feColorMatrix in="SourceAlpha" values="0 0 0 0 0 0 0 0 0 0 0 0 0 0 0 0 0 0 127 0" result="hardAlpha"/><feOffset dx="-1" dy="1.5"/><feComposite in2="hardAlpha" operator="out"/><feColorMatrix values="0 0 0 0 0.501961 0 0 0 0 0.301961 0 0 0 0 0.00392157 0 0 0 1 0"/><feBlend in2="BackgroundImageFix" result="effect1_dropShadow_1_1022"/><feColorMatrix in="SourceAlpha" values="0 0 0 0 0 0 0 0 0 0 0 0 0 0 0 0 0 0 127 0" result="hardAlpha"/><feOffset dx=".5" dy="-.5"/><feComposite in2="hardAlpha" operator="out"/><feColorMatrix values="0 0 0 0 0.992157 0 0 0 0 0.92549 0 0 0 0 0.807843 0 0 0 1 0"/><feBlend in2="effect1_dropShadow_1_1022" result="effect2_dropShadow_1_1022"/><feBlend in="SourceGraphic" in2="effect2_dropShadow_1_1022" result="shape"/></filter><filter id="e" x="2" y="3.75" width="251" height="250" filterUnits="userSpaceOnUse" color-interpolation-filters="sRGB"><feFlood flood-opacity="0" result="BackgroundImageFix"/><feColorMatrix in="SourceAlpha" values="0 0 0 0 0 0 0 0 0 0 0 0 0 0 0 0 0 0 127 0" result="hardAlpha"/><feOffset dx="-2" dy="1.75"/><feComposite in2="hardAlpha" operator="out"/><feColorMatrix values="0 0 0 0 0.462745 0 0 0 0 0.298039 0 0 0 0 0.00392157 0 0 0 1 0"/><feBlend in2="BackgroundImageFix" result="effect1_dropShadow_1_1022"/><feColorMatrix in="SourceAlpha" values="0 0 0 0 0 0 0 0 0 0 0 0 0 0 0 0 0 0 127 0" result="hardAlpha"/><feOffset dx="-1" dy="1"/><feComposite in2="hardAlpha" operator="out"/><feColorMatrix values="0 0 0 0 0.658824 0 0 0 0 0.447059 0 0 0 0 0.0196078 0 0 0 1 0"/><feBlend in2="effect1_dropShadow_1_1022" result="effect2_dropShadow_1_1022"/><feColorMatrix in="SourceAlpha" values="0 0 0 0 0 0 0 0 0 0 0 0 0 0 0 0 0 0 127 0" result="hardAlpha"/><feOffset dx="1" dy="-.25"/><feComposite in2="hardAlpha" operator="out"/><feColorMatrix values="0 0 0 0 0.988235 0 0 0 0 0.952941 0 0 0 0 0.788235 0 0 0 1 0"/><feBlend in2="effect2_dropShadow_1_1022" result="effect3_dropShadow_1_1022"/><feBlend in="SourceGraphic" in2="effect3_dropShadow_1_1022" result="shape"/></filter><filter id="i" x="25" y="106" width="204.89" height="99.641" filterUnits="userSpaceOnUse" color-interpolation-filters="sRGB"><feFlood flood-opacity="0" result="BackgroundImageFix"/><feColorMatrix in="SourceAlpha" values="0 0 0 0 0 0 0 0 0 0 0 0 0 0 0 0 0 0 127 0" result="hardAlpha"/><feOffset dx="-1" dy="1"/><feComposite in2="hardAlpha" operator="out"/><feColorMatrix values="0 0 0 0 0.501961 0 0 0 0 0.301961 0 0 0 0 0.00392157 0 0 0 1 0"/><feBlend in2="BackgroundImageFix" result="effect1_dropShadow_1_1022"/><feBlend in="SourceGraphic" in2="effect1_dropShadow_1_1022" result="shape"/></filter><linearGradient id="g" x1="212" y1="-3.5" x2="22" y2="256" gradientUnits="userSpaceOnUse"><stop stop-color="#fff" stop-opacity="0"/><stop offset=".082" stop-color="#fff" stop-opacity=".26"/><stop offset=".296" stop-color="#fff" stop-opacity="0"/><stop offset=".337" stop-color="#fff" stop-opacity=".15"/><stop offset=".341" stop-color="#fff" stop-opacity=".37"/><stop offset=".359" stop-color="#fff" stop-opacity=".32"/><stop offset=".363" stop-color="#fff" stop-opacity=".15"/><stop offset=".406" stop-color="#fff" stop-opacity="0"/><stop offset=".482" stop-color="#fff" stop-opacity="0"/><stop offset=".712" stop-color="#fff" stop-opacity="0"/><stop offset=".72" stop-color="#fff" stop-opacity=".22"/><stop offset=".753" stop-color="#fff" stop-opacity=".23"/><stop offset=".78" stop-color="#fff" stop-opacity="0"/><stop offset="1" stop-color="#fff" stop-opacity="0"/></linearGradient><linearGradient id="h" x1="224.5" y1="0" x2="20.5" y2="256" gradientUnits="userSpaceOnUse"><stop stop-color="#fff" stop-opacity="0"/><stop offset=".082" stop-color="#fff" stop-opacity=".26"/><stop offset=".261" stop-color="#fff" stop-opacity="0"/><stop offset=".322" stop-color="#fff" stop-opacity=".15"/><stop offset=".344" stop-color="#fff" stop-opacity=".198"/><stop offset=".359" stop-color="#fff" stop-opacity=".24"/><stop offset=".388" stop-color="#fff" stop-opacity=".15"/><stop offset=".406" stop-color="#fff" stop-opacity="0"/><stop offset=".482" stop-color="#fff" stop-opacity="0"/><stop offset=".692" stop-color="#fff" stop-opacity="0"/><stop offset=".72" stop-color="#fff" stop-opacity=".22"/><stop offset=".753" stop-color="#fff" stop-opacity=".23"/><stop offset=".788" stop-color="#fff" stop-opacity="0"/><stop offset="1" stop-color="#fff" stop-opacity="0"/></linearGradient><radialGradient id="b" cx="0" cy="0" r="1" gradientUnits="userSpaceOnUse" gradientTransform="rotate(90 0 128) scale(127)"><stop stop-color="#E98F02"/><stop offset="1" stop-color="#BF7D07"/></radialGradient><clipPath id="a"><path fill="#fff" d="M0 0h256v256H0z"/></clipPath></defs></svg>