<svg width="256" height="256" xmlns:xlink="http://www.w3.org/1999/xlink"><defs><circle id="a" cx="127" cy="127" r="127"/></defs><g fill="none" fill-rule="evenodd"><mask id="b" fill="#fff"><use xlink:href="#a"/></mask><circle stroke="#44D7B6" stroke-width="12" cx="127" cy="127" r="121"/><text opacity=".174" mask="url(#b)" font-family="Inconsolata-Regular_Black, Inconsolata" font-size="185" font-weight="800" letter-spacing="-1.323" fill="#44D7B6">
                <tspan x=".234" y="178">SKI</tspan>
            </text><g mask="url(#b)"><path d="m115.864 21.914-1.85.893.79.395c.416.207.77.415.77.477 0 .063-.479.499-1.04.956-.582.457-2.64 2.658-4.593 4.88-1.974 2.223-3.7 4.134-3.865 4.238-.187.083-.749.083-1.33-.02-.853-.167-1.06-.146-1.31.124-.374.415-1.995 3.822-1.995 4.175 0 .166-.27.083-.748-.187-.416-.25-.77-.436-.81-.395-.022.042-.458.769-.998 1.62l-.956 1.558-4.448 1.516c-4.281 1.475-4.676 1.558-10.64 2.534-3.41.561-6.256 1.08-6.34 1.184-1.974 2.098-6.359 7.52-7.918 9.804l-2.057 2.99-2.536 1.517-2.556 1.537-.582 2.222c-.54 2.078-.582 2.472-.478 5.152.042 1.599-.042 4.631-.208 6.75-.644 8.599-.603 11.029.229 16.055.124.727.145.707-7.98 3.78-24.15 9.057-73.219 26.213-82.03 28.664l-2.1.56-.52-.519c-.498-.498-2.764-1.35-2.992-1.121-.063.062-.27 1.142-.478 2.41-.208 1.287-.457 2.388-.561 2.492-.104.083-.79.27-1.538.394-.748.125-2.224.395-3.284.582l-1.912.353.977 1.163c.54.644.997 1.184.997 1.226.021.02 1.227-.416 2.681-.997l2.64-1.039 1.787 1.35c.977.748 1.87 1.35 1.954 1.35.104 0 .208-.997.228-2.243l.063-2.222 11.43-3.801c35.331-11.756 80.284-26.628 80.513-26.628.187 0 .229.25.146.872-.063.499-.167 1.973-.229 3.282-.166 3.323-1.767 10.219-3.512 15.1l-1.289 3.656 1.621 4.258c.894 2.326 1.808 4.507 2.037 4.818.229.312 1.455 1.517 2.743 2.638l2.349 2.077 5.611 2.036c3.097 1.1 6.09 2.201 6.65 2.41l1.04.394-.063 3.365c-.062 2.492.104 5.566.582 11.59l.645 8.204.83 2.077c.75 1.931 1.393 4.382 1.206 4.528-.041.041-.727.478-1.538.976-.79.478-1.496.914-1.538.955-.041.042.54.769 1.289 1.641 1.101 1.247 1.392 1.724 1.476 2.43.187 1.454.581 6.647.498 6.71-.041.04-3.637-2.805-8.001-6.336l-7.918-6.418-5.986-.498c-3.304-.291-6.027-.499-6.048-.478-.083.062 31.092 25.444 44.83 36.494a9653.319 9653.319 0 0 1 21.198 17.031l6.151 4.923 8.085-.208c4.468-.124 8.126-.228 8.168-.27.02-.02-.333-.955-.811-2.056-.665-1.495-.977-1.973-1.205-1.91-.187.061-.998.165-1.809.228l-1.496.145-3.325-1.682c-3.16-1.6-3.845-2.077-13.467-9.285-5.591-4.175-10.475-7.893-10.85-8.266-.768-.727-2.327-3.157-3.927-6.148-1.102-2.057-.956-1.558-4.863-16.513-.81-3.074-2.058-10.614-2.058-12.42 0-.707.291-1.538 1.123-3.324l1.101-2.368.353-5.795c.187-3.178.374-6.106.374-6.48.021-.353.104-.665.167-.665.062 0 .478.603.914 1.35.915 1.558 4.718 5.11 9.747 9.119 1.684 1.329 3.055 2.471 3.055 2.513 0 .041.187 1.33.416 2.866l.395 2.783 2.431 4.238c4.905 8.578 6.61 11.112 12.595 18.485 4.842 5.982 5.57 6.958 5.674 7.727.062.478.395 3.718.727 7.186.333 3.49.686 6.398.769 6.46 1.06.893 9.747 6.003 24.545 14.415a4481.993 4481.993 0 0 1 34.312 19.732l16.294 9.47 5.258-3.032 5.258-3.011-.416-1.08c-.228-.603-.54-1.184-.665-1.309-.145-.125-2.701-1.225-5.715-2.45-4.551-1.87-15.13-6.71-29.242-13.398-1.475-.706-5.403-2.887-8.687-4.86l-5.985-3.573-2.058-4.154c-3.138-6.355-4.406-8.474-5.57-9.346-.54-.416-2.39-1.974-4.115-3.469l-3.159-2.72-.374-2.93-.374-2.928-1.912-3.863c-1.725-3.49-2.12-4.528-4.115-10.801-1.517-4.757-2.68-7.997-3.7-10.323l-1.516-3.386-3.367-3.053-3.346-3.053-.02-2.326-.022-2.306-.79-1.018c-.457-.54-1.6-1.848-2.556-2.866-.956-1.038-3.47-3.78-5.57-6.086l-3.824-4.237-5.819-9.575c-9.435-15.557-10.163-16.907-11.597-21.04-.665-1.953-1.226-3.594-1.226-3.635 0-.166 12.865-12.546 13.114-12.629.146-.041.873.229 1.642.603 1.33.643 1.434.747 2.1 2.097l.685 1.434h4.946c4.385 0 5.59-.084 10.911-.727 6.568-.81 6.505-.81 9.456.249 1.642.581 1.85.52 2.972-.852l.749-.914.893.499.894.498 2.037-.415c1.995-.415 2.078-.457 3.491-1.703l1.455-1.288.748.436a6.09 6.09 0 0 0 1.559.561c.665.125.79.104.686-.166a6.844 6.844 0 0 1-.25-.997c-.124-.686-.104-.727.728-.976.478-.146.935-.187.997-.125.083.083.125 4.362.104 9.513-.083 17.032.312 41.105.77 47.502.228 3.136.893 12.109 1.454 19.94.561 7.83 1.08 15.058 1.143 16.097.187 2.928.125 2.804 1.455 2.804 1.101 0 1.143-.021 1.143-.582 0-.312-.374-5.94-.852-12.504-.894-12.628-.894-12.774-1.434-44.137-.125-7.207-.312-17.8-.416-23.574-.104-5.775-.208-11.59-.208-12.92v-2.43l1.143-.415c.645-.25 1.767-.582 2.515-.769 1.829-.457 2.12-.747 2.473-2.388.333-1.6.146-3.614-.54-6.315-.229-.913-.582-2.949-.79-4.527-.208-1.558-.416-2.908-.478-2.97-.062-.063-1.413-.208-2.972-.333l-2.847-.228-3.346 3.323c-1.85 1.828-3.887 3.718-4.552 4.175l-1.163.851-3.305-.29c-1.808-.167-3.388-.312-3.512-.312-.125 0-.894-.52-1.704-1.142-1.56-1.226-2.619-1.766-3.43-1.766-.27 0-1.122.332-1.87.727-.748.395-1.517.727-1.704.727-.187 0-.956-.54-1.684-1.225l-1.33-1.205-1.184.208a5.767 5.767 0 0 0-2.224.893c-.582.374-1.06.664-1.102.644-.02-.042.084-.935.25-2.015.187-1.06.29-1.953.27-1.973-.042-.042-.665-.312-1.413-.623-1.31-.561-2.66-.707-4.531-.52-1.226.125-1.392-.249-1.455-3.49l-.062-2.845-1.143-.81c-.728-.54-1.122-.976-1.122-1.246 0-.25-.084-1.246-.208-2.243l-.187-1.828-3.118-3.739c-1.995-2.367-3.138-3.925-3.138-4.216 0-.478.291-.706 2.889-2.285l1.33-.81 1.226.582c1.06.498 1.247.54 1.497.27.768-.79 8.354-9.95 8.811-10.635.603-.914.52-1.287-.685-2.596-.395-.457-.728-.872-.728-.935 0-.083.416-.374.915-.664.79-.457.935-.644 1.039-1.413.208-1.308-.187-2.887-1.226-5.11-.54-1.1-1.04-2.409-1.164-2.928-.312-1.37-1.975-4.154-2.868-4.777-4.385-3.095-4.469-3.136-6.588-3.635-2.66-.623-6.422-1.35-7.025-1.35-.25 0-1.31.415-2.328.914z" fill="#44D7B6" fill-rule="nonzero"/></g></g></svg>