<svg width="256" height="256" viewBox="0 0 256 256" fill="none" xmlns="http://www.w3.org/2000/svg">
<g clip-path="url(#clip0_288_1763)">
<path d="M236.48 111.526C232.265 122.262 225.455 133.179 216.237 143.974C197.139 166.336 169.96 185.555 139.707 198.092C117.395 207.332 95.4074 212.113 75.9277 212.113C68.992 212.113 62.3715 211.504 56.173 210.28C44.7739 208.026 35.4346 203.798 28.4112 197.718C21.3143 191.574 16.941 183.811 15.4074 174.644C13.8785 165.478 15.2604 155.328 19.5176 144.479C23.7321 133.744 30.5422 122.826 39.7606 112.031C58.8586 89.6642 86.0373 70.4452 116.29 57.9131C138.6 48.6686 160.59 43.8923 180.068 43.8923C187.006 43.8923 193.624 44.4968 199.825 45.7246C211.224 47.9789 220.563 52.2052 227.586 58.2876C234.683 64.4316 239.057 72.1946 240.59 81.3608C242.119 90.527 240.737 100.675 236.48 111.526V111.526Z" fill="white"/>
<path d="M180.084 39.808C187.127 39.808 193.849 40.4243 200.149 41.6711C224.486 46.4854 239.739 60.2122 243.098 80.3224C246.457 100.433 237.469 124.2 217.787 147.25C198.429 169.92 170.935 189.378 140.371 202.041C117.853 211.368 95.6303 216.194 75.9206 216.194C68.8783 216.194 62.1559 215.578 55.8555 214.331C31.5189 209.517 16.2655 195.79 12.9067 175.68C9.5479 155.57 18.5363 131.802 38.2175 108.753C57.5763 86.0824 85.0703 66.624 115.636 53.9615C138.155 44.6341 160.377 39.808 180.089 39.808H180.084ZM180.089 35.7239C160.055 35.7239 137.541 40.6637 114.975 50.0125C84.096 62.803 56.2869 82.5008 36.6697 105.474C26.598 117.267 19.2048 129.297 14.694 141.227C9.98879 153.669 8.54287 165.608 10.3989 176.716C12.2549 187.823 17.2445 197.096 25.2279 204.283C32.8842 211.174 43.0792 215.915 55.5331 218.38C61.8881 219.636 68.7479 220.274 75.923 220.274C95.955 220.274 118.469 215.334 141.035 205.985C171.914 193.195 199.723 173.497 219.34 150.523C229.412 138.731 236.805 126.701 241.316 114.771C246.021 102.329 247.467 90.3894 245.611 79.2818C243.755 68.1742 238.765 58.899 230.782 51.7144C223.125 44.8237 212.93 40.083 200.477 37.6178C194.124 36.3615 187.264 35.7239 180.091 35.7239H180.089ZM75.9301 208.028C69.0774 208.028 62.5399 207.422 56.4978 206.227C45.4258 204.037 36.3971 199.969 29.6629 194.138C23.2131 188.554 19.2617 181.644 17.9177 173.601C16.5737 165.559 17.8561 156.482 21.7245 146.624C25.766 136.327 32.3532 125.791 41.3085 115.304C60.1482 93.2409 87.0116 74.2614 116.952 61.8596C138.882 52.7739 160.709 47.9716 180.07 47.9716C186.923 47.9716 193.463 48.5784 199.502 49.7731C210.574 51.9633 219.603 56.0308 226.337 61.862C232.787 67.4465 236.738 74.3562 238.082 82.3988C239.426 90.4415 238.144 99.5176 234.276 109.378C230.234 119.675 223.647 130.212 214.692 140.698C195.854 162.762 168.989 181.741 139.048 194.143C117.118 203.228 95.2913 208.031 75.9278 208.031L75.9301 208.028Z" fill="black"/>
<path d="M161.915 189.529C222.3 156.249 256.069 101.72 237.339 67.735C218.609 33.7496 154.473 33.1774 94.0877 66.4569C33.7023 99.7364 -0.066084 154.265 18.6639 188.251C37.3939 222.236 101.53 222.808 161.915 189.529Z" fill="#FF0000"/>
<path d="M75.9182 218.233C68.7976 218.233 61.9923 217.6 55.6895 216.355C30.7935 211.43 15.1514 197.17 11.648 176.199C8.1446 155.228 17.3037 130.695 37.44 107.114C56.9292 84.2925 84.5796 64.7157 115.302 51.9891C137.761 42.6854 160.161 37.7693 180.084 37.7693C187.205 37.7693 194.01 38.4022 200.311 39.6466C225.207 44.5722 240.849 58.8324 244.352 79.8031C247.855 100.774 238.696 125.307 218.56 148.888C199.073 171.709 171.42 191.289 140.698 204.015C118.239 213.319 95.8388 218.235 75.9182 218.235V218.233ZM180.07 45.9305C160.6 45.9305 138.66 50.7565 116.622 59.8848C86.5256 72.353 59.5058 91.4534 40.5357 113.666C31.4501 124.307 24.7514 135.033 20.6222 145.55C16.557 155.904 15.2273 165.516 16.6637 174.12C18.1002 182.725 22.2649 190.061 29.037 195.925C35.9159 201.882 45.101 206.028 56.3342 208.251C62.4261 209.455 69.0181 210.067 75.9277 210.067H75.9325C95.4003 210.067 117.338 205.241 139.378 196.112C169.474 183.644 196.497 164.546 215.464 142.331C224.55 131.69 231.249 120.965 235.378 110.447C239.443 100.093 240.773 90.4792 239.336 81.8748C237.9 73.2703 233.735 65.934 226.963 60.0697C220.084 54.113 210.899 49.9648 199.666 47.7438C193.572 46.5373 186.98 45.9257 180.07 45.9257V45.9305Z" fill="#FFDD00"/>
<path opacity="0.96" d="M27.7617 183.507C27.7617 183.507 59.5792 223.242 141.061 183.507C222.542 143.772 256.946 70.1393 201.849 55.3269C146.752 40.5144 286.694 112.789 27.7617 183.507Z" fill="#FF6F5B"/>
<path d="M66.8583 113.216C65.8082 113.216 64.8222 112.775 64.149 112.007C63.4758 111.237 63.17 110.196 63.3099 109.148L64.9834 96.6801H63.1463L59.7282 110.113C59.2708 111.912 57.6068 113.216 55.7721 113.216H43.8491C42.6782 113.216 41.6234 112.69 40.9502 111.77C40.2651 110.836 40.0826 109.639 40.4476 108.487L65.6162 29.2146C66.1543 27.5175 67.7567 26.3323 69.5084 26.3323H87.4118C88.4334 26.3323 89.3674 26.7305 90.0453 27.4558C90.7208 28.1788 91.0551 29.1364 90.9863 30.1509L85.5771 109.423C85.4349 111.514 83.6097 113.213 81.5119 113.213H66.8583V113.216Z" fill="white"/>
<path d="M87.412 28.8735C88.0496 28.8735 88.4953 29.3476 88.4526 29.9804L83.0434 109.253C82.9913 110.009 82.2731 110.677 81.5098 110.677H66.8562C66.1853 110.677 65.735 110.156 65.8227 109.487L67.7237 95.3315C67.8138 94.6631 67.3611 94.1416 66.6902 94.1416H62.3619C61.6911 94.1416 61.0369 94.6631 60.8662 95.3315L57.2633 109.487C57.0926 110.156 56.4384 110.677 55.7676 110.677H43.8446C43.0837 110.677 42.6239 110.011 42.8633 109.257L68.0366 29.9852C68.2381 29.3499 68.871 28.8735 69.5086 28.8735H87.412ZM65.2396 83.4513H67.9987C68.7264 83.4513 69.4256 82.8373 69.5228 82.112L72.2701 61.8524C72.3768 61.0607 71.8458 60.6601 71.2366 60.6601C70.6274 60.6601 69.9614 61.0489 69.748 61.8287L64.2416 82.0883C64.0425 82.8231 64.5 83.4513 65.2396 83.4513V83.4513ZM87.412 23.7961H69.5086C66.6618 23.7961 64.0662 25.709 63.1963 28.4492L38.0277 107.721C37.4233 109.625 37.7504 111.699 38.9 113.273C40.0378 114.828 41.8891 115.757 43.847 115.757H55.7699C58.0976 115.757 60.2547 114.468 61.4399 112.517C61.6579 112.932 61.9234 113.323 62.2363 113.681C63.3907 115.001 65.0736 115.757 66.8562 115.757H81.5098C84.916 115.757 87.8766 112.996 88.1089 109.601L93.5181 30.3289C93.6342 28.6293 93.044 26.9535 91.8991 25.728C90.7542 24.5025 89.1163 23.7985 87.4097 23.7985L87.412 23.7961Z" fill="black"/>
<path d="M89.0618 113.216C87.9714 113.216 86.9593 112.747 86.2861 111.929C85.6082 111.104 85.338 110.011 85.5489 108.926L101.537 26.6715C101.907 24.7775 103.628 23.3506 105.541 23.3506H116.435C117.525 23.3506 118.537 23.8199 119.211 24.6377C119.888 25.4626 120.159 26.5577 119.945 27.641L103.957 109.895C103.59 111.789 101.869 113.216 99.9537 113.216H89.0594H89.0618Z" fill="white"/>
<path d="M116.437 25.8893C117.137 25.8893 117.594 26.4559 117.457 27.1551L101.469 109.412C101.333 110.111 100.655 110.677 99.9562 110.677H89.062C88.3627 110.677 87.9052 110.111 88.0427 109.412L104.031 27.1551C104.166 26.4559 104.844 25.8893 105.543 25.8893H116.437V25.8893ZM116.437 20.812H105.543C102.436 20.812 99.641 23.1231 99.046 26.188L83.0578 108.445C82.7023 110.277 83.1645 112.135 84.3284 113.548C85.4875 114.954 87.2131 115.76 89.062 115.76H99.9562C103.064 115.76 105.858 113.448 106.453 110.384L122.442 28.127C122.797 26.2947 122.335 24.4363 121.171 23.0236C120.012 21.6179 118.286 20.812 116.437 20.812V20.812Z" fill="black"/>
<path d="M161.519 113.837C155.932 113.837 151.945 112.294 149.331 109.122C145.145 104.045 144.661 95.1795 147.712 79.4829C150.046 67.4699 152.957 59.4509 156.871 54.2456C160.993 48.7653 166.497 46.0986 173.698 46.0986C179.178 46.0986 183.108 47.6346 185.716 50.7967C189.93 55.9096 190.428 64.7772 187.382 80.45C183.488 100.489 177.597 113.834 161.519 113.834V113.837ZM171.102 63.2198C170.778 63.4569 170.396 64.0874 169.967 65.1066C168.862 67.7212 167.677 72.4548 166.122 80.4548C164.017 91.2803 163.792 95.3478 164.072 96.7369C164.456 96.4619 164.871 95.5991 165.177 94.8572C166.231 92.29 167.402 87.5493 168.969 79.4877C170.707 70.5466 171.422 65.0853 171.102 63.2222V63.2198Z" fill="white"/>
<path d="M173.7 48.6398C186.133 48.6398 189.314 57.2182 184.891 79.969C180.42 102.969 173.952 111.298 161.521 111.298C149.091 111.298 145.735 102.969 150.205 79.969C154.628 57.2182 161.145 48.6398 173.7 48.6398V48.6398ZM163.84 99.3634C166.698 99.3634 168.275 96.3791 171.463 79.969C174.653 63.5589 174.239 60.5746 171.38 60.5746C168.521 60.5746 166.822 63.5589 163.631 79.969C160.441 96.3791 160.981 99.3634 163.84 99.3634ZM173.7 43.5625C165.646 43.5625 159.478 46.5586 154.844 52.7216C150.689 58.2446 147.631 66.5954 145.22 79.0019C142.009 95.5234 142.653 105.014 147.373 110.739C150.502 114.534 155.129 116.378 161.521 116.378C169.536 116.378 175.661 113.413 180.25 107.314C184.388 101.812 187.449 93.4304 189.876 80.9409C193.083 64.4431 192.424 54.9474 187.676 49.1874C184.602 45.4564 179.899 43.5649 173.7 43.5649V43.5625Z" fill="black"/>
<path d="M54.6441 201.228C53.5537 201.228 52.5439 200.758 51.8684 199.941C51.1905 199.118 50.9202 198.023 51.1312 196.937L66.541 117.665C66.9084 115.771 68.6293 114.344 70.5445 114.344H85.3167C91.9039 114.344 96.4147 115.932 99.1075 119.201C103.019 123.947 102.272 131.224 100.881 138.38C99.5128 145.42 97.8299 152.036 93.0725 155.842C94.5943 157.364 95.5851 159.41 96.0331 161.965C96.6091 165.25 96.3365 169.441 95.1466 175.554C93.2479 185.325 91.0222 191.132 87.7036 194.975C83.9656 199.301 78.8622 201.23 71.1561 201.23H54.6441V201.228ZM73.2539 183.934C73.5241 183.872 73.6426 183.692 73.9057 183.17C74.6713 181.653 75.4583 178.591 76.6245 172.596C77.7125 166.995 77.722 164.997 77.4992 164.345C77.4139 164.328 77.2764 164.312 77.0702 164.307L73.2539 183.936V183.934ZM80.1516 148.444C80.8722 147.112 81.5525 144.683 82.3371 140.641C82.7472 138.536 83.7973 133.127 83.4465 131.615H83.4204L80.1493 148.442L80.1516 148.444Z" fill="white"/>
<path d="M85.3168 116.883C99.8637 116.883 100.902 124.964 98.3894 137.894C96.5286 147.468 94.374 153.434 88.2205 155.672L88.1968 155.795C94.4996 157.909 94.6371 164.871 92.6554 175.064C89.3203 192.22 84.8309 198.684 71.1562 198.684H54.6442C53.9449 198.684 53.4874 198.118 53.6249 197.419L69.0347 118.146C69.1698 117.447 69.8477 116.881 70.547 116.881H85.3192L85.3168 116.883ZM78.1298 152.064H78.4806C81.7138 152.064 83.0934 150.075 84.8332 141.125C86.6466 131.8 86.6797 129.067 83.1977 129.067H82.598C81.8987 129.067 81.2208 129.633 81.0857 130.332L77.1082 150.801C76.9731 151.5 77.4282 152.066 78.1274 152.066L78.1298 152.064ZM71.4335 186.503H72.6543C75.7618 186.503 76.774 185.135 79.1183 173.077C80.8344 164.25 80.5713 161.764 76.966 161.764H76.243C75.5437 161.764 74.8658 162.33 74.7307 163.029L70.4143 185.237C70.2792 185.937 70.7343 186.503 71.4335 186.503ZM85.3168 111.803H70.5446C67.4371 111.803 64.6424 114.114 64.0475 117.179L48.6377 196.452C48.2821 198.284 48.7443 200.142 49.9082 201.555C51.0673 202.961 52.7929 203.766 54.6418 203.766H71.1538C79.5497 203.766 85.4187 201.498 89.6237 196.632C93.3002 192.377 95.6208 186.411 97.638 176.038C98.8872 169.607 99.1645 165.132 98.5316 161.526C98.1429 159.308 97.4199 157.525 96.5049 156.091C100.53 151.682 102.13 145.259 103.372 138.863C104.882 131.096 105.647 123.143 101.066 117.585C97.8584 113.695 92.7076 111.806 85.3144 111.806L85.3168 111.803Z" fill="black"/>
<path d="M95.0494 201.228C93.959 201.228 92.9492 200.759 92.2737 199.941C91.5957 199.118 91.3255 198.023 91.5365 196.938L102.983 138.053C103.353 136.159 105.074 134.732 106.987 134.732H117.836C118.947 134.732 119.974 135.218 120.647 136.064C120.825 136.287 120.972 136.526 121.088 136.78C123.228 135.007 125.698 134.111 128.467 134.111C131.499 134.111 133.705 135.002 135.215 136.834C138.019 140.236 138.176 146.697 135.758 159.14C134.485 165.694 132.674 172.85 132.148 174.888C131.688 176.678 130.024 177.977 128.197 177.977H119.052C117.919 177.977 116.883 177.477 116.207 176.607C115.525 175.725 115.302 174.578 115.591 173.457C116.084 171.558 117.772 164.935 118.846 159.415C119.239 157.386 119.474 155.871 119.606 154.74C118.544 156.997 117.063 161.301 115.477 169.46L109.947 197.907C109.58 199.801 107.859 201.228 105.944 201.228H95.0494V201.228Z" fill="white"/>
<path d="M128.469 136.652C134.438 136.652 136.796 140.506 133.267 158.656C132.203 164.139 130.679 170.425 129.69 174.256C129.519 174.922 128.865 175.438 128.197 175.438H119.052C118.319 175.438 117.86 174.822 118.049 174.092C119.004 170.406 120.422 164.618 121.339 159.898C122.885 151.941 122.427 149.829 120.934 149.829C118.696 149.829 115.814 154.43 112.986 168.974L107.456 197.421C107.321 198.12 106.643 198.687 105.944 198.687H95.0495C94.3502 198.687 93.8927 198.12 94.0302 197.421L105.477 138.539C105.612 137.84 106.29 137.273 106.989 137.273H117.838C118.554 137.273 119.014 137.868 118.848 138.584L118.481 140.182C118.293 140.995 118.841 141.49 119.497 141.49C119.919 141.49 120.384 141.286 120.73 140.831C122.735 138.193 125.217 136.652 128.467 136.652H128.469ZM128.467 131.575C125.924 131.575 123.598 132.184 121.503 133.393C120.46 132.62 119.185 132.196 117.836 132.196H106.987C103.879 132.196 101.084 134.507 100.489 137.572L89.0429 196.454C88.6874 198.286 89.1496 200.145 90.3135 201.558C91.4726 202.963 93.1982 203.769 95.0471 203.769H105.941C109.049 203.769 111.844 201.458 112.439 198.393L116.06 179.762C116.956 180.255 117.978 180.52 119.049 180.52H128.194C131.164 180.52 133.86 178.42 134.606 175.526C135.135 173.469 136.962 166.246 138.249 159.628C140.864 146.176 140.563 139.333 137.176 135.223C135.18 132.803 132.25 131.575 128.467 131.575V131.575Z" fill="black"/>
<path d="M131.973 201.228C130.882 201.228 129.87 200.759 129.197 199.941C128.519 199.116 128.249 198.023 128.46 196.938L139.906 138.053C140.186 136.616 141.243 135.45 142.573 134.969C142.298 134.782 142.049 134.556 141.833 134.296C141.156 133.471 140.885 132.376 141.099 131.292L143.239 120.275C143.606 118.381 145.327 116.954 147.243 116.954H158.386C159.476 116.954 160.488 117.423 161.161 118.241C161.839 119.064 162.11 120.159 161.899 121.244L159.756 132.264C159.464 133.76 158.329 134.964 156.921 135.405C157.165 135.58 157.385 135.787 157.58 136.021C158.258 136.846 158.528 137.939 158.315 139.025L146.87 197.907C146.503 199.801 144.782 201.228 142.867 201.228H131.973V201.228Z" fill="white"/>
<path d="M158.386 119.495C159.085 119.495 159.542 120.062 159.405 120.761L157.262 131.781C157.127 132.48 156.449 133.046 155.75 133.046H144.607C143.907 133.046 143.45 132.48 143.587 131.781L145.73 120.761C145.865 120.062 146.543 119.495 147.242 119.495H158.386V119.495ZM154.806 137.273C155.506 137.273 155.963 137.839 155.826 138.539L144.379 197.421C144.244 198.12 143.566 198.687 142.867 198.687H131.973C131.273 198.687 130.816 198.12 130.953 197.421L142.4 138.539C142.535 137.839 143.213 137.273 143.912 137.273H154.806ZM158.386 114.415H147.242C144.135 114.415 141.34 116.726 140.745 119.791L138.602 130.811C138.361 132.06 138.498 133.321 138.979 134.445C138.202 135.315 137.642 136.386 137.413 137.569L125.966 196.452C125.61 198.284 126.073 200.142 127.237 201.555C128.396 202.961 130.121 203.764 131.97 203.764H142.864C145.972 203.764 148.767 201.453 149.362 198.388L160.808 139.506C161.038 138.325 160.927 137.133 160.507 136.057C161.375 135.156 161.998 134.016 162.245 132.745L164.387 121.726C164.743 119.893 164.281 118.035 163.117 116.622C161.958 115.217 160.232 114.411 158.381 114.411L158.386 114.415Z" fill="black"/>
<path d="M108.025 131.605C104.846 131.605 102.237 129.228 101.957 126.075C101.807 124.383 101.912 122.593 102.27 120.759C103.232 115.809 105.733 111.846 109.101 109.691C107.198 106.28 107.954 102.388 108.248 100.871C109.066 96.6708 110.959 93.1461 113.512 91.008C110.978 86.8764 110.701 80.576 112.581 70.9049C115.961 53.5182 122.823 46.1013 135.531 46.1013C136.934 46.1013 138.223 46.189 139.416 46.3621C139.33 45.3594 139.38 44.3235 139.577 43.3067C140.708 37.4969 145.382 34.1665 152.398 34.1665C153.484 34.1665 154.494 34.2518 155.316 34.413C157.253 34.7899 158.474 36.6388 158.094 38.6204L156.39 47.3789C156.027 49.2681 154.314 50.6975 152.403 50.6975C152.32 50.6975 152.237 50.6951 152.154 50.6904C152.05 50.6832 151.927 50.6785 151.794 50.6785C151.161 50.6785 150.779 50.6785 150.478 52.2311C150.248 53.4115 150.222 54.5469 150.265 55.8696C151.199 59.7949 151.002 64.8889 149.642 71.872C146.219 89.4909 139.57 96.6803 126.692 96.6803C125.988 96.6803 125.338 96.6495 124.769 96.6115C124.755 96.9979 124.845 97.3392 125.042 97.6071C125.319 97.984 125.8 98.1926 126.4 98.1926H128.766C134.459 98.1926 138.615 99.7333 141.12 102.772C143.777 105.993 144.474 110.609 143.256 116.881C142.348 121.557 140.864 125.561 138.845 128.782C137.735 130.55 135.813 131.605 133.701 131.605H108.025V131.605ZM120.619 120.87C120.868 120.891 121.223 120.908 121.726 120.908C122.228 120.908 122.622 120.929 122.991 120.948C123.243 120.96 123.475 120.974 123.691 120.974H123.698C123.821 120.702 124.03 120.111 124.267 118.898C124.753 116.39 124.622 115.518 124.537 115.247C124.456 115.228 124.312 115.207 124.084 115.207H123.214C121.896 115.207 121.088 118.36 120.723 120.237C120.673 120.498 120.64 120.706 120.621 120.87H120.619ZM133.322 60.9446C132.767 61.485 131.8 63.8767 130.247 71.8744C129.055 78.0112 128.858 80.6447 128.927 81.7659C129.444 81.1496 130.43 78.8527 131.975 70.9049C133.163 64.7869 133.402 62.0871 133.322 60.9446V60.9446Z" fill="white"/>
<path d="M152.399 36.7078C153.401 36.7078 154.224 36.7884 154.826 36.9069C155.397 37.0183 155.717 37.5445 155.601 38.1466L153.899 46.898C153.766 47.5949 153.093 48.1638 152.403 48.1638C152.375 48.1638 152.349 48.1638 152.32 48.1614C152.157 48.1519 151.981 48.1448 151.792 48.1448C149.68 48.1448 148.466 49.266 147.983 51.7501C147.698 53.2056 147.674 54.5472 147.729 56.1116C147.731 56.1851 147.743 56.261 147.76 56.3321C148.646 59.9279 148.44 64.7493 147.146 71.3934C143.863 88.3036 137.878 94.1466 126.687 94.1466C125.746 94.1466 124.876 94.085 124.07 94.0115C124.03 94.0067 123.99 94.0067 123.952 94.0067C123.328 94.0067 122.698 94.469 122.494 95.0995C122.484 95.1303 122.473 95.1635 122.463 95.1943C121.539 98.1573 123.414 100.736 126.398 100.736H128.764C139.58 100.736 142.671 106.579 140.762 116.4C139.935 120.659 138.603 124.39 136.692 127.438C136.05 128.465 134.91 129.072 133.701 129.072H108.025C106.193 129.072 104.647 127.68 104.486 125.855C104.349 124.317 104.47 122.745 104.761 121.247C105.799 115.902 108.983 111.675 113.155 110.682L113.178 110.557C110.033 108.198 110.137 104.467 110.742 101.36C111.493 97.5007 113.278 94.1679 115.809 92.4589C116.497 91.9943 116.734 91.1125 116.305 90.5768C113.596 87.1943 113.174 81.1854 115.077 71.3958C118.265 54.9857 124.224 48.645 135.536 48.645C138.769 48.645 141.409 49.1427 143.427 50.2592L143.576 50.1383C142.424 49.0171 141.542 46.533 142.073 43.7976C142.872 39.6944 145.939 36.7125 152.401 36.7125L152.399 36.7078ZM128.579 84.4494C130.937 84.4494 132.224 82.9608 134.474 71.3958C136.695 59.9611 136.14 58.3421 133.654 58.3421C131.167 58.3421 129.98 59.9611 127.758 71.3958C125.511 82.9608 126.215 84.4494 128.579 84.4494ZM123.693 123.518C125.215 123.518 126.049 123.032 126.761 119.386C127.533 115.409 127.441 112.673 124.087 112.673H123.217C120.607 112.673 119.128 115.158 118.234 119.758C117.632 122.866 118.502 123.454 121.731 123.454C122.494 123.454 123.141 123.518 123.696 123.518H123.693ZM152.403 31.6328C148.212 31.6328 144.733 32.6497 142.064 34.655C139.471 36.6035 137.752 39.429 137.091 42.8257C137.041 43.0817 136.998 43.3377 136.965 43.5961C136.5 43.5771 136.026 43.5676 135.538 43.5676C128.282 43.5676 122.712 45.8195 118.505 50.4536C114.575 54.7819 111.903 61.1273 110.097 70.4263C108.336 79.4858 108.409 85.8859 110.4 90.4986C108.153 92.9827 106.544 96.3866 105.764 100.39C105.268 102.941 105.204 105.147 105.565 107.141C105.671 107.734 105.816 108.307 105.999 108.862C102.941 111.507 100.715 115.501 99.7858 120.28C99.3828 122.347 99.2643 124.376 99.4373 126.305C99.6293 128.462 100.62 130.454 102.23 131.911C103.823 133.355 105.885 134.151 108.035 134.151H133.711C136.702 134.151 139.43 132.651 141.004 130.136C143.19 126.649 144.787 122.354 145.757 117.369C147.11 110.405 146.212 104.953 143.088 101.163C141.618 99.3804 139.722 98.0293 137.408 97.1095C139.757 96.0215 141.82 94.5093 143.619 92.5608C147.591 88.2657 150.298 81.8467 152.14 72.3629C153.539 65.1712 153.752 59.8094 152.801 55.5546C152.78 54.687 152.794 53.9499 152.894 53.2269C155.802 53.0017 158.336 50.7688 158.896 47.858L160.595 39.1208V39.1042C161.242 35.7312 159.14 32.5786 155.809 31.9291C154.821 31.7347 153.674 31.6352 152.408 31.6352L152.403 31.6328Z" fill="black"/>
<path d="M137.605 232.649C136.344 232.649 135.204 232.026 134.556 230.983C133.895 229.916 133.843 228.577 134.414 227.392L162.321 166.772L159.666 139.134C159.562 138.048 159.943 136.941 160.711 136.095C161.498 135.23 162.596 134.732 163.724 134.732H175.77C176.756 134.732 177.671 135.109 178.342 135.794C179.01 136.474 179.368 137.387 179.352 138.361L179.226 145.605L198.182 105.493C198.805 103.964 200.341 102.907 201.967 102.907H212.143C213.397 102.907 214.535 103.526 215.182 104.559C215.853 105.628 215.908 106.98 215.329 108.172L185.42 167.692L188.504 196.786C188.62 197.876 188.245 198.99 187.475 199.846C186.688 200.721 185.583 201.223 184.448 201.223H172.17C171.183 201.223 170.268 200.846 169.598 200.161C168.929 199.481 168.571 198.568 168.588 197.592L168.711 190.857L152.574 230.009C151.967 231.564 150.407 232.647 148.767 232.647H137.602L137.605 232.649Z" fill="white"/>
<path d="M212.146 105.45C212.99 105.45 213.44 106.259 213.047 107.069L182.993 166.876C182.879 167.111 182.832 167.36 182.858 167.594L185.982 197.061C186.067 197.874 185.301 198.691 184.453 198.691H172.174C171.56 198.691 171.12 198.25 171.131 197.646L171.385 183.777C171.397 183.08 170.904 182.732 170.342 182.732C169.783 182.732 169.155 183.078 168.894 183.772L150.22 229.077C149.992 229.679 149.383 230.118 148.772 230.118H137.607C136.759 230.118 136.311 229.3 136.711 228.487L164.741 167.599C164.857 167.365 164.907 167.116 164.883 166.881L162.195 138.899C162.117 138.088 162.883 137.28 163.726 137.28H175.773C176.387 137.28 176.827 137.721 176.816 138.325L176.581 151.884C176.569 152.581 177.062 152.929 177.624 152.929C178.186 152.929 178.821 152.578 179.077 151.877L200.517 106.51C200.74 105.903 201.354 105.458 201.97 105.458H212.146V105.45ZM212.146 100.38H201.97C199.31 100.38 196.893 102.016 195.861 104.479L181.213 135.476C180.938 134.947 180.584 134.457 180.155 134.021C179.001 132.847 177.446 132.2 175.773 132.2H163.726C161.885 132.2 160.102 132.999 158.834 134.395C157.585 135.77 156.968 137.588 157.141 139.385L159.732 166.341L132.12 226.323C131.181 228.29 131.285 230.53 132.404 232.332C133.518 234.126 135.464 235.197 137.61 235.197H148.774C151.474 235.197 153.937 233.5 154.937 230.966L167.189 201.237C167.37 201.488 167.571 201.728 167.792 201.953C168.946 203.129 170.503 203.773 172.177 203.773H184.455C186.309 203.773 188.101 202.965 189.369 201.555C190.618 200.166 191.225 198.333 191.033 196.53L188.027 168.178L217.586 109.354L217.603 109.321L217.619 109.288C218.581 107.304 218.477 105.036 217.339 103.22C216.223 101.44 214.284 100.375 212.148 100.375L212.146 100.38Z" fill="black"/>
</g>
<defs>
<clipPath id="clip0_288_1763">
<rect width="256" height="256" fill="white"/>
</clipPath>
</defs>
</svg>
