<?xml version="1.0" encoding="UTF-8" standalone="no"?>
<svg
   id="Layer_1"
   data-name="Layer 1"
   viewBox="0 0 255.99999 255.99999"
   version="1.1"
   width="256"
   height="256"
   xmlns="http://www.w3.org/2000/svg"
   xmlns:svg="http://www.w3.org/2000/svg">
  <defs
     id="defs4">
    <style
       id="style2">.cls-1{fill:#fff;}</style>
  </defs>
  <ellipse
     cx="128.12625"
     cy="127.86403"
     id="circle6"
     style="stroke-width:0.485539"
     rx="122.84396"
     ry="122.83884" />
  <path
     class="cls-1"
     d="M 54.808309,75.85903 33.444143,62.934248 c -0.131098,-0.06312 -0.116532,-0.140803 -0.04856,-0.223342 l 2.116995,-2.617002 c 0.06798,-0.08254 0.165087,-0.145659 0.276763,-0.05341 l 14.221737,9.346432 c 0.05827,0.0437 0.189364,-0.121382 0.135954,-0.165079 L 38.037439,57.258415 a 0.18450871,0.18450102 0 0 1 0,-0.281607 l 2.116994,-2.617001 c 0.06798,-0.08254 0.14081,-0.116527 0.228209,0 l 17.101044,18.153929 a 0.19907519,0.19906689 0 0 1 0,0.276751 l -2.427747,3.005424 a 0.19907519,0.19906689 0 0 1 -0.24763,0.06312 z"
     id="path8"
     style="stroke-width:0.485539" />
  <path
     class="cls-1"
     d="M 68.704728,61.278594 53.740101,41.624381 a 0.16508674,0.16507986 0 0 1 0.03399,-0.252474 l 6.608326,-5.030081 a 0.16994223,0.16993514 0 0 1 0.252485,0.03399 l 1.82081,2.388802 a 0.16508674,0.16507986 0 0 1 -0.03399,0.252476 l -3.758151,2.86462 a 0.16023125,0.16022457 0 0 0 -0.03399,0.247621 l 3.578498,4.704776 a 0.16994223,0.16993514 0 0 0 0.24763,0.03399 l 2.393757,-1.825588 a 0.17479772,0.17479043 0 0 1 0.252486,0.03399 l 1.82081,2.393658 a 0.16994223,0.16993514 0 0 1 -0.03399,0.252476 l -2.36948,1.820733 a 0.17479772,0.17479043 0 0 0 -0.03399,0.252475 l 5.054567,6.637182 a 0.16994223,0.16993514 0 0 0 0.252486,0.03399 l 3.758151,-2.86462 a 0.17479772,0.17479043 0 0 1 0.252485,0.03399 l 1.82081,2.393658 a 0.16508674,0.16507986 0 0 1 -0.03399,0.252476 l -6.608325,5.03008 a 0.16994223,0.16993514 0 0 1 -0.276763,-0.03399 z"
     id="path10"
     style="stroke-width:0.485539" />
  <path
     class="cls-1"
     d="M 89.505658,48.237286 80.979413,28.670468 a 0.16508674,0.16507986 0 0 0 -0.233064,-0.09226 l -2.913295,1.272086 a 0.16508674,0.16507986 0 0 1 -0.233064,-0.09225 l -1.204162,-2.757805 a 0.16994223,0.16993514 0 0 1 0.09226,-0.237909 l 9.395377,-4.10272 a 0.16994223,0.16993514 0 0 1 0.237919,0.09226 l 1.218729,2.757804 a 0.16508674,0.16507986 0 0 1 -0.09225,0.233054 l -2.913296,1.276941 a 0.16508674,0.16507986 0 0 0 -0.09225,0.233054 l 8.526244,19.561964 a 0.17479772,0.17479043 0 0 1 -0.09225,0.237909 l -2.913295,1.272086 a 0.16994223,0.16993514 0 0 1 -0.257341,-0.0874 z"
     id="path12"
     style="stroke-width:0.485539" />
  <path
     class="cls-1"
     d="m 108.01965,41.92541 -4.17087,-24.329858 a 0.17479772,0.17479043 0 0 1 0.15052,-0.208777 l 8.18636,-1.408034 a 0.16508674,0.16507986 0 0 1 0.20393,0.145659 l 0.48555,2.961726 a 0.16994223,0.16993514 0 0 1 -0.14567,0.208777 l -4.65641,0.781702 a 0.16994223,0.16993514 0 0 0 -0.14567,0.208778 l 1.00509,5.826347 a 0.16508674,0.16507986 0 0 0 0.20393,0.145659 l 2.9667,-0.495239 a 0.16508674,0.16507986 0 0 1 0.20394,0.145659 l 0.50982,2.961726 a 0.16994223,0.16993514 0 0 1 -0.14566,0.208777 l -2.96185,0.485529 a 0.16994223,0.16993514 0 0 0 -0.14567,0.208778 l 1.41295,8.268559 a 0.16994223,0.16993514 0 0 0 0.20879,0.145658 l 4.65641,-0.801122 a 0.16994223,0.16993514 0 0 1 0.20879,0.145658 l 0.50983,2.961727 a 0.16994223,0.16993514 0 0 1 -0.14567,0.208778 l -8.19607,1.383757 a 0.16994223,0.16993514 0 0 1 -0.19907,-0.160224 z"
     id="path14"
     style="stroke-width:0.485539" />
  <path
     class="cls-1"
     d="m 129.09734,39.730818 1.68971,-24.650306 a 0.16508674,0.16507986 0 0 1 0.18936,-0.16508 l 5.64694,0.388423 c 3.10752,0.208778 4.92833,2.956871 4.72925,5.884611 l -0.20393,2.913175 a 4.0106367,4.0104695 0 0 1 -2.17041,3.398702 c -0.11167,0.06312 -0.11653,0.131093 0,0.24762 0.90313,0.971058 1.277,2.311118 1.16532,3.918219 l -0.60208,8.739522 a 0.16508674,0.16507986 0 0 1 -0.18936,0.165079 l -3.21434,-0.218488 a 0.16508674,0.16507986 0 0 1 -0.16508,-0.189356 l 0.52924,-7.948109 c 0.13596,-2.00038 -0.41271,-2.913174 -2.1267,-3.015136 l -0.78659,-0.05341 a 0.16508674,0.16507986 0 0 0 -0.18937,0.16508 l -0.73318,10.681637 a 0.16508674,0.16507986 0 0 1 -0.18936,0.16508 l -3.21919,-0.218489 a 0.16994223,0.16993514 0 0 1 -0.16023,-0.208777 z m 6.26358,-13.856997 c 1.42752,0.09711 2.15584,-1.073019 2.27723,-2.859766 l 0.0825,-1.213822 c 0.12139,-1.786747 -0.43699,-3.078254 -1.86451,-3.17536 l -1.53433,-0.106816 a 0.16994223,0.16993514 0 0 0 -0.19422,0.16508 l -0.48555,6.894511 a 0.16508674,0.16507986 0 0 0 0.16509,0.189356 z"
     id="path16"
     style="stroke-width:0.485539" />
  <path
     class="cls-1"
     d="m 151.81619,42.799361 10.91514,-22.412017 a 0.20393068,0.20392218 0 0 1 0.2622,-0.101961 l 3.70474,1.247809 a 0.19907519,0.19906689 0 0 1 0.14567,0.237909 l -4.5933,24.499792 c -0.034,0.101962 -0.0874,0.160226 -0.18936,0.126238 l -2.96185,-0.971057 a 0.19421969,0.19421159 0 0 1 -0.14567,-0.233055 l 0.71376,-3.53465 a 0.19907519,0.19906689 0 0 0 -0.14567,-0.237909 l -2.61711,-0.869097 a 0.20393068,0.20392218 0 0 0 -0.26219,0.106815 l -1.52948,3.262755 a 0.20393068,0.20392218 0 0 1 -0.2622,0.101962 l -2.957,-0.971058 c -0.10196,-0.06798 -0.11167,-0.15537 -0.0777,-0.252476 z m 8.42428,-4.719341 c 0.10196,0.03399 0.14566,0 0.18936,-0.121382 l 2.08301,-9.62804 c 0.034,-0.101961 -0.16995,-0.169935 -0.20393,-0.06798 l -4.07862,8.962866 c -0.0437,0.135948 -0.0243,0.179645 0.0777,0.213633 z"
     id="path18"
     style="stroke-width:0.485539" />
  <path
     class="cls-1"
     d="m 173.39399,51.592291 13.36232,-20.78064 a 0.16994223,0.16993514 0 0 1 0.24763,-0.05341 l 2.37919,1.529417 a 0.30589602,0.30588326 0 0 1 0.10682,0.23791 l -0.9711,8.496756 c 0,0.160226 0.12139,0.208778 0.2185,0.05827 l 4.08347,-6.355574 a 0.16994223,0.16993514 0 0 1 0.24763,-0.05341 l 2.6511,1.704207 a 0.16994223,0.16993514 0 0 1 0.0534,0.24762 l -13.36232,20.78064 a 0.16994223,0.16993514 0 0 1 -0.24763,0.05341 l -2.64624,-1.704207 a 0.16994223,0.16993514 0 0 1 -0.0583,-0.24762 l 5.03515,-7.831582 a 0.43699431,0.43697609 0 0 0 0.0874,-0.199067 l 0.91283,-7.841294 c 0,-0.160224 -0.10196,-0.237909 -0.19907,-0.0874 l -8.9681,13.944392 a 0.16994223,0.16993514 0 0 1 -0.24763,0.05341 l -2.64624,-1.704207 a 0.16994223,0.16993514 0 0 1 -0.0388,-0.24762 z"
     id="path20"
     style="stroke-width:0.485539" />
  <path
     class="cls-1"
     d="M 192.05365,65.458999 210.14522,48.63542 a 0.16508674,0.16507986 0 0 1 0.25248,0 l 3.67075,3.971627 c 2.21896,2.388802 2.28209,4.85529 -0.10196,7.088723 l -11.16763,10.39032 c -2.38405,2.218868 -4.8555,1.976104 -7.07931,-0.407844 l -3.67561,-3.961917 a 0.16994223,0.16993514 0 0 1 0.01,-0.25733 z m 5.94312,1.713918 c 0.84972,0.917649 1.8985,0.728293 2.76278,-0.07769 l 10.39561,-9.632895 c 0.86428,-0.805978 1.12647,-1.8353 0.27676,-2.75295 l -1.0585,-1.131282 a 0.16994223,0.16993514 0 0 0 -0.25248,0 L 196.9577,65.818286 a 0.16508674,0.16507986 0 0 0 0,0.252475 z"
     id="path22"
     style="stroke-width:0.485539" />
  <path
     class="cls-1"
     d="m 27.238824,161.60345 0.767168,-0.23791 a 0.0631214,0.06311877 0 0 1 0.0874,0.0388 l 0.388439,1.15556 a 0.06797689,0.06797406 0 0 1 -0.0437,0.0874 l -0.611792,0.20392 c -0.441849,0.15051 -0.616647,0.39813 -0.485549,0.78656 a 0.61179203,0.61176652 0 0 0 0.878844,0.38356 c 0.767168,-0.25733 1.713989,-1.45659 2.578267,-2.48106 0.752601,-0.89822 1.388671,-1.54397 2.257804,-1.83529 a 1.7868212,1.7867467 0 0 1 2.427746,1.22839 c 0.446705,1.3352 -0.257341,2.12176 -1.126474,2.42764 l -0.427284,0.1408 a 0.0631214,0.06311877 0 0 1 -0.0874,-0.0437 l -0.39815,-1.15555 a 0.0631214,0.06311877 0 0 1 0.0437,-0.0874 l 0.271908,-0.0923 c 0.44185,-0.14565 0.640925,-0.41755 0.485549,-0.80598 a 0.56323711,0.56321362 0 0 0 -0.781734,-0.35928 c -0.626358,0.20877 -0.971098,0.70401 -1.641156,1.52941 -0.849712,1.04874 -1.985897,2.42764 -3.335724,2.88889 -0.869133,0.29132 -1.942197,0 -2.398613,-1.34491 -0.456416,-1.34491 0.281619,-2.13632 1.150752,-2.42764 z"
     id="path24"
     style="stroke-width:0.485539" />
  <path
     class="cls-1"
     d="m 30.899865,171.49367 7.123007,-3.20935 a 0.06797689,0.06797406 0 0 1 0.09225,0.0388 l 0.485549,1.12157 a 0.0631214,0.06311877 0 0 1 -0.03399,0.0923 l -6.95792,3.14137 c -0.422428,0.18936 -0.577804,0.45155 -0.407861,0.8254 0.169942,0.37386 0.485549,0.43698 0.89341,0.24762 l 6.977343,-3.16079 a 0.05826591,0.05826348 0 0 1 0.0874,0.034 l 0.485549,1.12158 a 0.06797689,0.06797406 0 0 1 -0.03884,0.0923 l -7.123007,3.20935 c -0.840001,0.37386 -1.898498,0.25248 -2.476302,-1.03418 -0.577803,-1.28664 0.03884,-2.14118 0.893411,-2.51989 z"
     id="path26"
     style="stroke-width:0.485539" />
  <path
     class="cls-1"
     d="m 34.123912,181.7966 8.176649,-4.72905 a 0.0631214,0.06311877 0 0 1 0.09225,0.0243 l 1.082775,1.87415 a 2.0053183,2.0052347 0 0 1 -0.854566,2.7578 l -1.456648,0.83511 a 1.8790755,1.8789971 0 0 1 -2.685087,-0.70887 l -0.398147,-0.68463 a 0.06797689,0.06797406 0 0 0 -0.09711,-0.0291 l -3.185203,1.84501 a 0.0631214,0.06311877 0 0 1 -0.09225,0 l -0.616647,-1.06817 a 0.06069365,0.06069112 0 0 1 0.03399,-0.11652 z m 5.37503,-0.76714 c 0.271908,0.48553 0.801156,0.45154 1.393526,0.11168 l 0.757457,-0.43699 c 0.59237,-0.34472 0.8837,-0.79626 0.611792,-1.27208 l -0.296185,-0.48553 a 0.0631214,0.06311877 0 0 0 -0.09225,-0.0243 l -2.646244,1.52941 a 0.0631214,0.06311877 0 0 0 0,0.0923 z"
     id="path28"
     style="stroke-width:0.485539" />
  <path
     class="cls-1"
     d="m 39.87767,191.05563 7.647401,-5.53017 a 0.0631214,0.06311877 0 0 1 0.09711,0 l 1.262428,1.75276 a 2.0004628,2.0003794 0 0 1 -0.572948,2.83063 l -1.349827,0.97106 a 1.8790755,1.8789971 0 0 1 -2.748209,-0.43212 l -0.485549,-0.64089 a 0.06797689,0.06797406 0 0 0 -0.09711,0 l -2.986128,2.1606 a 0.05826591,0.05826348 0 0 1 -0.09225,0 l -0.723469,-0.97106 a 0.07447682,0.07447371 0 0 1 0.04856,-0.14081 z m 5.26821,-1.30606 c 0.320462,0.44183 0.844855,0.36899 1.398381,-0.034 l 0.708902,-0.50981 c 0.558382,-0.40299 0.801156,-0.88366 0.485549,-1.3255 l -0.344739,-0.48552 a 0.07283238,0.07282934 0 0 0 -0.09711,0 l -2.471446,1.7916 a 0.0631214,0.06311877 0 0 0 0,0.0922 z"
     id="path30"
     style="stroke-width:0.485539" />
  <path
     class="cls-1"
     d="m 47.753279,198.59105 4.627284,-4.10758 c 0.684625,-0.60692 1.709133,-0.83997 2.641388,0.21849 0.932255,1.05845 0.587515,2.03922 -0.09711,2.65099 l -4.627284,4.10272 c -0.68948,0.61176 -1.709133,0.83996 -2.646243,-0.21363 -0.93711,-1.05361 -0.587515,-2.04409 0.101965,-2.65099 z m 1.77711,1.71392 4.34081,-3.85025 c 0.349596,-0.31074 0.48555,-0.59235 0.189365,-0.90309 -0.296186,-0.31073 -0.568093,-0.22334 -0.917689,0.0825 l -4.34081,3.8551 c -0.34474,0.30589 -0.461271,0.59235 -0.189364,0.89823 0.271908,0.30589 0.568093,0.2282 0.917688,-0.0825 z"
     id="path32"
     style="stroke-width:0.485539" />
  <path
     class="cls-1"
     d="m 53.837211,207.37912 6.40925,-6.93821 a 0.0631214,0.06311877 0 0 1 0.09711,0 l 1.587746,1.45659 a 2.0053183,2.0052347 0 0 1 0,2.8889 l -0.762313,0.82054 a 1.5197691,1.5197057 0 0 1 -1.456647,0.48553 c -0.04856,0 -0.06798,0 -0.06312,0.0728 a 1.9421969,1.9421159 0 0 1 -0.59237,1.45659 l -2.306359,2.46649 a 0.0631214,0.06311877 0 0 1 -0.09711,0 l -0.903121,-0.83511 a 0.0631214,0.06311877 0 0 1 0,-0.0971 l 2.083006,-2.25286 c 0.519538,-0.56322 0.568093,-0.97106 0.0874,-1.40803 l -0.223353,-0.20392 a 0.0631214,0.06311877 0 0 0 -0.09711,0 l -2.791908,3.01513 a 0.0631214,0.06311877 0 0 1 -0.09711,0 l -0.873988,-0.81569 a 0.06797689,0.06797406 0 0 1 0,-0.11167 z m 5.185666,-2.62671 c 0.403006,0.369 0.898266,0.19421 1.364393,-0.30589 l 0.315607,-0.34472 c 0.485549,-0.48553 0.606937,-1.01961 0.203931,-1.39347 l -0.432139,-0.39814 a 0.0631214,0.06311877 0 0 0 -0.09711,0 l -1.791677,1.94212 a 0.06797689,0.06797406 0 0 0 0,0.0971 z"
     id="path34"
     style="stroke-width:0.485539" />
  <path
     class="cls-1"
     d="m 63.062646,215.25925 4.904048,-6.5158 a 0.06797689,0.06797406 0 0 0 0,-0.0971 l -0.971099,-0.73315 a 0.0631214,0.06311877 0 0 1 0,-0.0971 l 0.694335,-0.91765 a 0.0631214,0.06311877 0 0 1 0.09226,0 l 3.141503,2.36453 a 0.0631214,0.06311877 0 0 1 0,0.0971 l -0.694335,0.91765 a 0.0631214,0.06311877 0 0 1 -0.09225,0 l -0.971099,-0.73315 a 0.0631214,0.06311877 0 0 0 -0.09711,0 l -4.904047,6.5158 a 0.0631214,0.06311877 0 0 1 -0.09711,0 l -0.971098,-0.73315 a 0.0631214,0.06311877 0 0 1 -0.03399,-0.068 z"
     id="path36"
     style="stroke-width:0.485539" />
  <path
     class="cls-1"
     d="m 70.748891,220.60007 5.001157,-8.01123 a 0.0631214,0.06311877 0 0 1 0.09225,-0.0243 l 1.043931,0.65547 a 0.0631214,0.06311877 0 0 1 0.02428,0.0923 l -5.001157,8.01123 a 0.0631214,0.06311877 0 0 1 -0.09225,0.0243 l -1.048786,-0.65061 a 0.06797689,0.06797406 0 0 1 -0.01942,-0.0971 z"
     id="path38"
     style="stroke-width:0.485539" />
  <path
     class="cls-1"
     d="m 77.828198,224.68823 4.277689,-8.41908 a 0.0631214,0.06311877 0 0 1 0.0874,-0.0291 l 0.971099,0.48553 c 0.02428,0 0.04855,0.0583 0.296185,0.0874 v 3.26761 c -0.281619,0.0631 -0.223353,0.0777 -0.19422,0 l 1.306127,-2.57331 a 0.07283238,0.07282934 0 0 1 0.09226,-0.034 l 1.077919,0.54865 a 0.07283238,0.07282934 0 0 1 0.02913,0.0922 l -4.258267,8.43364 a 0.07283238,0.07282934 0 0 1 -0.09225,0.034 l -1.073064,-0.54865 a 0.06797689,0.06797406 0 0 1 -0.02913,-0.0922 l 1.607168,-3.17051 a 0.1893642,0.1893563 0 0 1 0.09711,-0.0825 v -3.01514 c -0.02428,-0.0631 -0.07283,-0.0874 -0.106821,0 l -2.869596,5.6467 a 0.07283238,0.07282934 0 0 1 -0.09225,0.034 l -1.073064,-0.54865 a 0.06797689,0.06797406 0 0 1 -0.05341,-0.11652 z"
     id="path40"
     style="stroke-width:0.485539" />
  <path
     class="cls-1"
     d="m 88.160686,227.75677 2.214105,-5.70011 a 1.7576882,1.7576149 0 0 1 2.471445,-1.03903 1.7334108,1.7333385 0 0 1 1.087631,2.42764 l -0.165087,0.43212 a 0.06797689,0.06797406 0 0 1 -0.09225,0.0388 l -1.073063,-0.41269 a 0.06797689,0.06797406 0 0 1 -0.03884,-0.0874 l 0.131098,-0.33501 c 0.165087,-0.43213 0.126243,-0.74286 -0.257341,-0.89338 -0.383584,-0.15051 -0.660347,0.0388 -0.830289,0.48553 l -2.184972,5.65642 a 0.57484805,0.57482408 0 1 0 1.073064,0.41269 l 0.903122,-2.33539 a 0.0631214,0.06311877 0 0 0 -0.03884,-0.0874 l -0.359307,-0.1408 a 0.0631214,0.06311877 0 0 1 -0.03884,-0.0874 l 0.403006,-1.04875 a 0.06797689,0.06797406 0 0 1 0.09225,-0.0388 l 1.607168,0.62147 a 0.06797689,0.06797406 0 0 1 0.03884,0.0923 l -1.344971,3.47153 a 1.9421969,1.9421159 0 0 1 -3.59792,-1.39347 z"
     id="path42"
     style="stroke-width:0.485539" />
  <path
     class="cls-1"
     d="m 107.44184,235.20478 1.5052,-8.01607 a 0.06797689,0.06797406 0 0 0 -0.0583,-0.0825 l -1.19445,-0.22334 a 0.0631214,0.06311877 0 0 1 -0.0534,-0.0825 l 0.20878,-1.12643 a 0.06797689,0.06797406 0 0 1 0.0825,-0.0583 l 3.88439,0.72829 a 0.0631214,0.06311877 0 0 1 0.0534,0.0777 l -0.20878,1.13128 a 0.06797689,0.06797406 0 0 1 -0.0825,0.0534 l -1.22358,-0.20878 a 0.0631214,0.06311877 0 0 0 -0.0777,0.0534 l -1.5052,8.02095 a 0.06797689,0.06797406 0 0 1 -0.0825,0.0534 l -1.19445,-0.22335 a 0.06797689,0.06797406 0 0 1 -0.0534,-0.0971 z"
     id="path44"
     style="stroke-width:0.485539" />
  <path
     class="cls-1"
     d="m 116.76924,236.62253 0.80601,-9.41441 a 0.05826591,0.05826348 0 0 1 0.0728,-0.0583 l 1.22844,0.10196 a 0.06797689,0.06797406 0 0 1 0.0631,0.0728 l -0.3059,3.57349 a 0.0631214,0.06311877 0 0 0 0.0631,0.0777 l 1.15561,0.0971 a 0.0631214,0.06311877 0 0 0 0.0777,-0.0631 l 0.30104,-3.57349 a 0.07283238,0.07282934 0 0 1 0.0777,-0.0631 l 1.22358,0.10681 a 0.0631214,0.06311877 0 0 1 0.0631,0.0728 l -0.80115,9.40955 a 0.0631214,0.06311877 0 0 1 -0.0728,0.0631 l -1.22844,-0.10196 a 0.07283238,0.07282934 0 0 1 -0.0631,-0.0777 l 0.37873,-4.41831 a 0.06797689,0.06797406 0 0 0 -0.0631,-0.0728 l -1.16046,-0.0971 a 0.0631214,0.06311877 0 0 0 -0.0728,0.0631 l -0.37872,4.41832 a 0.0631214,0.06311877 0 0 1 -0.0728,0.0631 l -1.22844,-0.10681 a 0.06797689,0.06797406 0 0 1 -0.0631,-0.0728 z"
     id="path46"
     style="stroke-width:0.485539" />
  <path
     class="cls-1"
     d="m 127.64069,235.69517 -0.10682,-6.43811 c 0,-0.97106 0.48555,-1.91784 1.96647,-1.94212 1.48093,-0.0243 2.01018,0.9225 2.02474,1.87414 l 0.10682,6.43811 c 0,0.97106 -0.48554,1.91784 -1.96647,1.94212 -1.48092,0.0243 -2.02474,-0.9225 -2.02474,-1.87414 z m 2.42775,-0.35929 v -5.82635 c -0.0388,-0.48553 -0.17966,-0.738 -0.59237,-0.73315 -0.41272,0.005 -0.54382,0.28161 -0.37873,0.74772 v 5.80207 c -0.0534,0.48553 0.0874,0.73801 0.48555,0.73315 0.39815,-0.005 0.55352,-0.25733 0.48555,-0.72344 z"
     id="path48"
     style="stroke-width:0.485539" />
  <path
     class="cls-1"
     d="m 137.9052,235.10768 -0.0922,-0.80598 a 0.0631214,0.06311877 0 0 1 0.0631,-0.0728 l 1.20902,-0.13594 a 0.0631214,0.06311877 0 0 1 0.0777,0.0583 l 0.068,0.6409 c 0.0534,0.46125 0.25734,0.68459 0.6652,0.64089 0.40786,-0.0437 0.61179,-0.31559 0.56324,-0.77685 -0.0922,-0.80597 -1.04879,-1.97609 -1.88393,-3.0394 -0.72347,-0.92736 -1.22359,-1.68479 -1.32555,-2.59758 a 1.7868212,1.7867467 0 0 1 1.70913,-2.10234 c 1.39838,-0.15538 2.01989,0.6943 2.12185,1.6071 l 0.0486,0.45154 a 0.0631214,0.06311877 0 0 1 -0.0583,0.0728 l -1.18474,0.13109 a 0.06797689,0.06797406 0 0 1 -0.0777,-0.0583 l -0.0291,-0.26703 c -0.0534,-0.46125 -0.27191,-0.71373 -0.67977,-0.66518 a 0.56323711,0.56321362 0 0 0 -0.51468,0.68946 c 0.0728,0.6506 0.48555,1.10214 1.15075,1.9421 0.84486,1.04875 1.9422,2.42765 2.12671,3.88424 0.10196,0.90794 -0.42243,1.90327 -1.82081,2.05865 -1.39838,0.15536 -2.03445,-0.74772 -2.13642,-1.65566 z"
     id="path50"
     style="stroke-width:0.485539" />
  <path
     class="cls-1"
     d="m 148.64555,235.19993 -1.9422,-9.22505 a 0.06797689,0.06797406 0 0 1 0.0534,-0.0825 l 3.10752,-0.65546 a 0.06797689,0.06797406 0 0 1 0.0825,0.0534 l 0.23792,1.12643 a 0.0631214,0.06311877 0 0 1 -0.0534,0.0777 l -1.7674,0.37386 a 0.0631214,0.06311877 0 0 0 -0.0534,0.0825 l 0.48555,2.20915 a 0.0631214,0.06311877 0 0 0 0.0825,0.0534 l 1.12162,-0.23791 a 0.0631214,0.06311877 0 0 1 0.0825,0.0534 l 0.23791,1.12642 a 0.0631214,0.06311877 0 0 1 -0.0534,0.0777 l -1.12647,0.23791 a 0.07283238,0.07282934 0 0 0 -0.0534,0.0825 l 0.66035,3.12194 a 0.06797689,0.06797406 0 0 0 0.0825,0.0534 l 1.7674,-0.37385 a 0.05826591,0.05826348 0 0 1 0.0777,0.0534 l 0.23792,1.12157 a 0.0631214,0.06311877 0 0 1 -0.0534,0.0825 l -3.10752,0.65547 a 0.06331449,0.06331185 0 0 1 -0.10682,-0.068 z"
     id="path52"
     style="stroke-width:0.485539" />
  <path
     class="cls-1"
     d="m 167.94128,229.50953 -4.8555,-8.19573 c -0.034,-0.0437 0,-0.068 0.0243,-0.0825 l 1.17989,-0.5098 c 0.0388,0 0.0825,0 0.10196,0.034 l 3.02497,5.51075 c 0.0243,0.0486 0.0874,0.0243 0.0777,-0.034 l -1.64116,-6.11767 c 0,-0.034 0,-0.0777 0.0486,-0.0923 l 0.86428,-0.37385 a 0.08254337,0.08253993 0 0 1 0.10682,0.034 l 3.26289,5.40878 c 0.034,0.0437 0.0971,0 0.0728,-0.034 l -1.88878,-5.99629 c 0,-0.0486 0,-0.0777 0.0486,-0.0923 l 1.17988,-0.48553 c 0.0388,0 0.068,0 0.0777,0.0388 l 2.56856,9.17649 a 0.07768788,0.07768464 0 0 1 -0.0486,0.0923 l -1.35953,0.58264 a 0.08254337,0.08253993 0 0 1 -0.10683,-0.0291 l -2.45687,-4.19012 c -0.0388,-0.0583 -0.0923,-0.034 -0.0777,0.034 l 1.31584,4.67565 a 0.07768788,0.07768464 0 0 1 -0.0486,0.0971 l -1.35954,0.57778 a 0.07283238,0.07282934 0 0 1 -0.11167,-0.0291 z"
     id="path54"
     style="stroke-width:0.485539" />
  <path
     class="cls-1"
     d="m 179.44394,224.07161 -4.70497,-8.19573 a 0.07283238,0.07282934 0 0 1 0.0243,-0.0971 l 1.06821,-0.61176 a 0.0631214,0.06311877 0 0 1 0.0923,0.0291 l 1.78196,3.11224 a 0.07283238,0.07282934 0 0 0 0.0971,0.0243 l 1.00994,-0.57777 a 0.07283238,0.07282934 0 0 0 0,-0.0971 l -1.78196,-3.11225 a 0.0631214,0.06311877 0 0 1 0,-0.0923 l 1.06821,-0.61177 a 0.0631214,0.06311877 0 0 1 0.0923,0.0243 l 4.75353,8.19087 a 0.07283238,0.07282934 0 0 1 0,0.0971 l -1.06821,0.61176 a 0.0631214,0.06311877 0 0 1 -0.0923,-0.0243 l -2.2044,-3.85025 a 0.06797689,0.06797406 0 0 0 -0.0971,-0.0243 l -1.00994,0.57779 a 0.0631214,0.06311877 0 0 0 -0.0243,0.0923 l 2.2044,3.85025 a 0.0631214,0.06311877 0 0 1 -0.0243,0.0922 l -1.06821,0.61176 a 0.0631214,0.06311877 0 0 1 -0.11653,-0.0194 z"
     id="path56"
     style="stroke-width:0.485539" />
  <path
     class="cls-1"
     d="m 187.70799,217.07514 -3.59792,-5.03979 c -0.53411,-0.74287 -0.65064,-1.78676 0.48555,-2.60244 1.13618,-0.81569 2.09271,-0.36901 2.62682,0.37871 l 3.59306,5.03494 c 0.53411,0.74771 0.65549,1.78675 -0.48555,2.60728 -1.14104,0.82055 -2.09272,0.36416 -2.62196,-0.3787 z m 1.89364,-1.58769 -3.37457,-4.72419 c -0.27191,-0.37871 -0.53896,-0.52438 -0.87399,-0.28647 -0.33503,0.23791 -0.28647,0.5438 0,0.92251 l 3.36971,4.7242 c 0.27191,0.37871 0.54382,0.51952 0.87399,0.28161 0.33018,-0.23791 0.27191,-0.53894 0.005,-0.91766 z"
     id="path58"
     style="stroke-width:0.485539" />
  <path
     class="cls-1"
     d="m 202.36672,204.93205 -0.58266,-0.56321 a 0.0631214,0.06311877 0 0 1 0,-0.0971 l 0.84971,-0.87395 a 0.0631214,0.06311877 0 0 1 0.0971,0 l 0.48555,0.44669 c 0.33503,0.32531 0.63607,0.369 0.91769,0.0777 a 0.61664753,0.61662181 0 0 0 -0.0583,-0.97106 c -0.58266,-0.55836 -2.06844,-0.85939 -3.39884,-1.15071 -1.1459,-0.25248 -2.01018,-0.51951 -2.67052,-1.16042 a 1.7916767,1.791602 0 0 1 0,-2.70924 c 0.97109,-1.0099 2.00531,-0.74772 2.6608,-0.10682 l 0.32532,0.3156 a 0.0631214,0.06311877 0 0 1 0,0.0971 l -0.83029,0.85453 a 0.0631214,0.06311877 0 0 1 -0.0971,0 l -0.20393,-0.19906 c -0.33503,-0.32531 -0.6652,-0.37872 -0.9711,-0.0826 a 0.55838162,0.55835833 0 0 0 0.0437,0.85939 c 0.48555,0.45639 1.07307,0.54379 2.11214,0.75257 1.3207,0.2719 3.07839,0.6409 4.09804,1.63623 0.66035,0.63605 0.88855,1.73819 -0.0923,2.7481 -0.9808,1.0099 -2.02959,0.76713 -2.68508,0.12623 z"
     id="path60"
     style="stroke-width:0.485539" />
  <path
     class="cls-1"
     d="m 210.71816,198.18805 -7.37549,-5.90403 a 0.0631214,0.06311877 0 0 1 0,-0.0971 l 1.98104,-2.4762 a 0.06797689,0.06797406 0 0 1 0.0971,0 l 0.89827,0.71858 a 0.0631214,0.06311877 0 0 1 0,0.0971 l -1.12648,1.4129 a 0.0631214,0.06311877 0 0 0 0,0.0971 l 1.76255,1.40803 a 0.0631214,0.06311877 0 0 0 0.0971,0 l 0.71861,-0.89822 a 0.06797689,0.06797406 0 0 1 0.0971,0 l 0.89827,0.71858 a 0.06797689,0.06797406 0 0 1 0,0.0971 l -0.71862,0.89823 a 0.06797689,0.06797406 0 0 0 0,0.0971 l 2.49087,1.99067 a 0.06797689,0.06797406 0 0 0 0.0971,0 l 1.12647,-1.41289 a 0.06797689,0.06797406 0 0 1 0.0971,0 l 0.89827,0.71858 a 0.0631214,0.06311877 0 0 1 0,0.0971 l -1.9859,2.48105 a 0.0631214,0.06311877 0 0 1 -0.0534,-0.0437 z"
     id="path62"
     style="stroke-width:0.485539" />
  <path
     class="cls-1"
     d="m 216.73897,190.16712 -7.90959,-5.16118 a 0.05826591,0.05826348 0 0 1 0,-0.0923 l 1.17988,-1.81102 a 2.0004628,2.0003794 0 0 1 2.84532,-0.48553 l 0.92254,0.5972 a 1.5294801,1.5294163 0 0 1 0.73318,1.35948 c 0,0.0486 0,0.0631 0.0777,0.0534 a 1.903353,1.9032736 0 0 1 1.52463,0.33988 l 2.81133,1.83044 a 0.06797689,0.06797406 0 0 1 0,0.0971 l -0.67492,1.02931 a 0.05826591,0.05826348 0 0 1 -0.0923,0 l -2.56856,-1.67507 c -0.64092,-0.41756 -1.04393,-0.40299 -1.40323,0.15052 l -0.16509,0.25247 a 0.05826591,0.05826348 0 0 0 0,0.0923 l 3.4474,2.29655 a 0.05826591,0.05826348 0 0 1 0,0.0923 l -0.67006,1.03418 a 0.07283238,0.07282934 0 0 1 -0.0583,0 z m -3.45711,-4.67565 c 0.30104,-0.4564 0.0437,-0.91765 -0.52924,-1.2915 l -0.38844,-0.25248 c -0.57295,-0.37386 -1.11191,-0.43212 -1.4081,0.0291 l -0.32046,0.48553 a 0.06797689,0.06797406 0 0 0 0,0.0971 l 2.21411,1.45659 a 0.0631214,0.06311877 0 0 0 0.0923,0 z"
     id="path64"
     style="stroke-width:0.485539" />
  <path
     class="cls-1"
     d="m 222.92487,179.81564 -8.98266,-3.18993 c -0.0534,0 -0.0534,-0.0437 -0.034,-0.0777 l 0.58752,-1.14584 c 0,-0.034 0.0534,-0.068 0.10196,-0.0389 l 6.04509,2.39851 c 0,0 0.0631,-0.0631 0.0388,-0.0728 l -5.45757,-3.54436 a 0.06797689,0.06797406 0 0 1 -0.0243,-0.10196 l 0.59237,-1.14585 c 0,-0.034 0.0437,-0.0534 0.0874,0 l 7.80278,5.4622 c 0.034,0 0.0388,0.068 0,0.10197 l -0.65549,1.35462 a 0.08254337,0.08253993 0 0 1 -0.10197,0 z"
     id="path66"
     style="stroke-width:0.485539" />
  <path
     class="cls-1"
     d="m 227.03747,171.10524 -8.77873,-3.4958 a 0.0631214,0.06311877 0 0 1 -0.0388,-0.0874 l 1.1896,-2.95201 a 0.0631214,0.06311877 0 0 1 0.0874,-0.0388 l 1.07307,0.42726 a 0.0631214,0.06311877 0 0 1 0.034,0.0874 l -0.67977,1.66051 a 0.0631214,0.06311877 0 0 0 0.0388,0.0874 l 2.09757,0.83511 a 0.0631214,0.06311877 0 0 0 0.0874,-0.0388 l 0.42729,-1.06816 a 0.0631214,0.06311877 0 0 1 0.0874,-0.034 l 1.0682,0.42241 a 0.0631214,0.06311877 0 0 1 0.0388,0.0874 l -0.42243,1.06816 a 0.06797689,0.06797406 0 0 0 0.034,0.0923 l 2.9667,1.17984 a 0.0631214,0.06311877 0 0 0 0.0874,-0.0388 l 0.67006,-1.67993 a 0.0631214,0.06311877 0 0 1 0.0874,-0.0388 l 1.06821,0.42726 a 0.0631214,0.06311877 0 0 1 0.0388,0.0874 l -1.17503,2.98115 a 0.06797689,0.06797406 0 0 1 -0.0874,0.0291 z"
     id="path68"
     style="stroke-width:0.485539" />
  <path
     class="cls-1"
     d="m 230.44603,161.69085 -9.09434,-2.61701 a 0.0631214,0.06311877 0 0 1 -0.0486,-0.0825 l 0.57295,-1.98581 c 0.34474,-1.19926 1.14589,-1.70907 2.3452,-1.36434 l 5.60324,1.61681 c 1.1993,0.34473 1.60716,1.20411 1.26242,2.39851 l -0.57294,1.98582 a 0.07283238,0.07282934 0 0 1 -0.068,0.0486 z m -0.60694,-2.26743 c 0.1311,-0.4564 -0.13595,-0.76228 -0.57295,-0.88851 l -5.20508,-1.53914 a 0.68947991,0.68945116 0 0 0 -0.9711,0.45154 l -0.16509,0.56322 a 0.07283238,0.07282934 0 0 0 0.0486,0.0874 l 6.60347,1.90327 a 0.0631214,0.06311877 0 0 0 0.0825,-0.0486 z"
     id="path70"
     style="stroke-width:0.485539" />
  <path
     class="cls-1"
     d="M 128.00485,212.89473 A 80.270999,80.267652 0 0 1 82.926465,199.12513 80.834236,80.830865 0 0 1 53.720679,163.68151 80.499207,80.49585 0 0 1 61.154438,87.230119 80.834236,80.830865 0 0 1 96.623809,58.02555 a 80.601173,80.597812 0 0 1 88.369961,17.275122 80.601173,80.597812 0 0 1 17.27584,25.621358 80.567184,80.563824 0 0 1 -7.42891,76.45625 80.907069,80.903695 0 0 1 -35.46937,29.20457 80.115623,80.112282 0 0 1 -31.36648,6.31188 z m 0,-155.942198 A 74.983368,74.980241 0 0 0 85.88346,69.814195 75.507761,75.504612 0 0 0 58.585882,102.9564 a 75.260131,75.256993 0 0 0 6.943354,71.43588 75.546605,75.543455 0 0 0 33.148447,27.29644 75.590305,75.587153 0 0 0 58.644627,0 75.376663,75.37352 0 0 0 0,-138.81759 74.871692,74.86857 0 0 0 -29.31746,-5.894322 z"
     id="path72"
     style="stroke-width:0.485539" />
  <path
     class="cls-1"
     d="M 128.06312,218.28896 A 86.558862,86.555252 0 0 1 110.73387,216.54105 85.544064,85.540497 0 0 1 79.979182,203.60656 86.049035,86.045447 0 0 1 94.589358,53.058589 85.053659,85.050112 0 0 1 110.73387,48.04793 a 86.796781,86.793161 0 0 1 34.66336,0 85.456665,85.453101 0 0 1 30.74983,12.939348 86.199555,86.19596 0 0 1 23.22867,23.227706 85.597474,85.593904 0 0 1 12.94475,30.748556 87.0347,87.031071 0 0 1 0,34.66191 85.670307,85.666734 0 0 1 -12.94475,30.75341 86.267532,86.263935 0 0 1 -37.83399,31.15639 85.403255,85.399694 0 0 1 -16.14451,5.01066 86.573428,86.569818 0 0 1 -17.33411,1.74305 z m 0,-170.114793 a 84.645798,84.642268 0 0 0 -16.9311,1.709063 83.669844,83.666355 0 0 0 -30.104052,12.652885 84.184526,84.181015 0 0 0 14.289714,147.265795 83.48048,83.476999 0 0 0 15.814338,4.89899 84.971116,84.967573 0 0 0 33.91075,0 83.538746,83.535262 0 0 0 30.07978,-12.65775 A 84.16996,84.16645 0 0 0 160.83284,54.782217 83.635855,83.632367 0 0 0 145.04277,49.88323 84.572965,84.569438 0 0 0 128.06312,48.174167 Z"
     id="path74"
     style="stroke-width:0.485539" />
  <path
     class="cls-1"
     d="m 128.00971,255.99999 a 129.03471,129.02933 0 0 1 -25.79238,-2.59758 127.39841,127.3931 0 0 1 -45.782431,-19.26578 128.40349,128.39814 0 0 1 -46.374807,-56.32137 127.345,127.33969 0 0 1 -7.4580363,-24.03368 129.1561,129.15071 0 0 1 0,-51.58746 127.2139,127.20859 0 0 1 19.2617383,-45.775671 128.26269,128.25734 0 0 1 56.323711,-46.372873 127.60234,127.59702 0 0 1 24.029825,-7.448014 129.36974,129.36435 0 0 1 51.58961,0 127.52951,127.52419 0 0 1 45.77758,19.260934 128.43748,128.43212 0 0 1 46.37481,56.321363 127.345,127.33969 0 0 1 7.43861,24.023971 129.1561,129.15071 0 0 1 0,51.58746 127.86939,127.86406 0 0 1 -34.89157,64.71616 128.185,128.17965 0 0 1 -40.68902,27.43238 127.55378,127.54846 0 0 1 -24.02983,7.46258 129.08326,129.07788 0 0 1 -25.77781,2.59758 z m 0,-249.5618938 A 122.28072,122.27562 0 0 0 103.50889,8.9094387 120.9843,120.97925 0 0 0 60.04253,27.199316 121.63979,121.63472 0 0 0 80.692939,240.02123 a 120.90176,120.89672 0 0 0 22.820811,7.08387 122.94107,122.93594 0 0 0 49.00648,0 120.90176,120.89672 0 0 0 43.46151,-18.28987 121.93598,121.9309 0 0 0 44.04903,-53.48588 121.03286,121.02781 0 0 0 7.08416,-22.81986 122.94107,122.93594 0 0 0 0,-49.00444 A 120.9843,120.97925 0 0 0 228.82429,60.040496 122.3924,122.3873 0 0 0 195.98174,27.20417 121.09112,121.08607 0 0 0 128.00485,6.4429515 Z"
     id="path76"
     style="stroke-width:0.485539" />
  <path
     class="cls-1"
     d="m 235.43262,147.59593 -3.81156,-0.68945 a 106.53921,106.53477 0 0 0 -0.45156,-40.09983 104.87863,104.87426 0 0 0 -6.13249,-19.756176 l 3.56879,-1.509996 a 108.84557,108.84103 0 0 1 6.34127,20.474752 110.27794,110.27334 0 0 1 0.48555,41.56614 z"
     id="path78"
     style="stroke-width:0.485539" />
  <path
     class="cls-1"
     d="m 22.12599,154.50016 a 109.30684,109.30228 0 0 1 5.341042,-68.945116 l 3.568787,1.509995 a 104.15517,104.15083 0 0 0 -6.132487,19.756181 106.10222,106.0978 0 0 0 0.971099,46.75644 z"
     id="path80"
     style="stroke-width:0.485539" />
  <path
     class="cls-1"
     d="m 76.420106,80.685188 31.686934,25.247502 18.88301,43.41115 -10.37133,23.8152 z M 112.9334,180.7867 h 6.9385 l 44.67053,-100.878358 15.34821,20.392218 -44.68995,100.87835 h -6.91907 z"
     id="path82"
     style="stroke-width:0.485539" />
  <polygon
     class="cls-1"
     points="140.36,313.33 158.09,306.58 162.57,288.14 174.48,302.91 193.4,301.48 183.03,317.37 190.24,334.92 171.92,329.96 157.46,342.24 156.51,323.3 "
     id="polygon84"
     transform="matrix(0.48554923,0,0,0.48552898,-4.8818981e-4,-0.00487336)" />
  <polygon
     class="cls-1"
     points="356.72,277.94 371.94,279.75 382.07,268.25 385.04,283.28 399.12,289.35 385.74,296.83 384.31,312.1 373.07,301.68 358.11,305.04 364.54,291.13 "
     id="polygon86"
     transform="matrix(0.48554923,0,0,0.48552898,-4.8818981e-4,-0.00487336)" />
  <polygon
     class="cls-1"
     points="232.72,163.88 251.5,161.21 259.96,144.23 268.29,161.27 287.06,164.06 273.43,177.26 276.57,195.97 259.81,187.09 242.99,195.86 246.26,177.17 "
     id="polygon88"
     transform="matrix(0.48554923,0,0,0.48552898,-4.8818981e-4,-0.00487336)" />
</svg>
