<?xml version="1.0" encoding="utf-8"?>
<!-- Generator: Adobe Illustrator 28.2.0, SVG Export Plug-In . SVG Version: 6.00 Build 0)  -->
<svg version="1.1" id="Layer_1" xmlns="http://www.w3.org/2000/svg" xmlns:xlink="http://www.w3.org/1999/xlink" x="0px" y="0px"
	 viewBox="0 0 1024 1024" style="enable-background:new 0 0 1024 1024;" xml:space="preserve">
<style type="text/css">
	.st0{fill:#2078E9;}
	.st1{opacity:0.96;fill-rule:evenodd;clip-rule:evenodd;fill:#FFFFFF;enable-background:new    ;}
</style>
<g>
	<circle class="st0" cx="512" cy="512" r="496"/>
	<path class="st1" d="M439.32,864.57l-29.54-93.26c-4.59-14.48-3.37-30.17,3.39-43.77l162.77-327.49l51.16-100.9
		c11.98-23.62,36.22-38.51,62.7-38.51h108.13c4.48,0,7.3,4.83,5.1,8.73L466.1,867.35c-2.32,4.02-8.85,7.47-12.79,7.47h0
		C446.91,874.82,441.25,870.67,439.32,864.57z M250.46,268.27c-1.2-3.78,1.62-7.63,5.59-7.63h99.44c31.23,0,59.04,20.98,67.61,51.01
		l27.75,97.26c4.51,15.82,3.32,32.81-3.36,47.84L367.3,637.18L250.46,268.27z"/>
</g>
</svg>
