<?xml version="1.0" encoding="UTF-8" standalone="no"?>
<!-- Created with Inkscape (http://www.inkscape.org/) -->

<svg
   version="1.1"
   id="svg579"
   width="983.03998"
   height="983.03998"
   viewBox="0 0 983.03998 983.03998"
   sodipodi:docname="icon.png"
   inkscape:version="1.1.1 (3bf5ae0d25, 2021-09-20)"
   xmlns:inkscape="http://www.inkscape.org/namespaces/inkscape"
   xmlns:sodipodi="http://sodipodi.sourceforge.net/DTD/sodipodi-0.dtd"
   xmlns="http://www.w3.org/2000/svg"
   xmlns:svg="http://www.w3.org/2000/svg">
  <defs
     id="defs583" />
  <sodipodi:namedview
     id="namedview581"
     pagecolor="#ffffff"
     bordercolor="#666666"
     borderopacity="1.0"
     inkscape:pageshadow="2"
     inkscape:pageopacity="0.0"
     inkscape:pagecheckerboard="0"
     showgrid="false"
     inkscape:zoom="0.59126972"
     inkscape:cx="167.43628"
     inkscape:cy="449.87929"
     inkscape:window-width="1920"
     inkscape:window-height="1002"
     inkscape:window-x="-8"
     inkscape:window-y="-8"
     inkscape:window-maximized="1"
     inkscape:current-layer="g585" />
  <g
     inkscape:groupmode="layer"
     inkscape:label="Image"
     id="g585">
    <g
       id="g1126"
       transform="matrix(1.1508942,0,0,1.087964,-69.7675,-51.511961)">
      <path
         style="fill:#e8d3cf;stroke-width:3.84"
         d="M 453.11999,913.50177 C 372.18891,904.33561 323.95422,886.3108 253.05748,838.74058 212.94961,811.82905 165.9341,768.46029 147.22828,741.11998 84.688057,649.71167 58.55958,520.55162 80.701984,412.2627 99.764369,319.03682 129.35053,262.49184 193.60097,196.49046 255.41502,132.99188 318.27272,95.909547 394.32756,78.073642 c 23.41113,-5.49024 44.73822,-6.97003 97.19243,-6.743739 59.54772,0.256896 71.38917,1.415374 103.98816,10.173466 148.39042,39.866771 266.83883,162.481511 299.46738,310.000941 13.92396,62.95258 6.53565,181.68672 -14.34055,230.46117 -3.19085,7.45497 -10.0714,26.45556 -15.29015,42.22352 -16.08945,48.61283 -40.54165,85.37645 -89.66485,134.81 -95.24881,95.85062 -143.43563,119.25446 -243.49424,118.26278 -27.64615,-0.27398 -63.22575,-1.966 -79.06575,-3.76001 z"
         id="path1172" />
      <path
         style="fill:#d2cfce;stroke-width:3.84"
         d="M 460.79999,913.47155 C 388.00073,907.02119 349.7045,895.59596 293.71424,863.62332 147.41187,780.07897 84.237541,675.0756 75.08977,500.24301 70.772435,417.7299 97.768986,324.42185 146.91546,251.99226 197.95912,176.76668 294.04784,105.81623 373.19472,84.911104 422.11188,71.990575 447.91491,69.772342 510.71999,73.088335 c 73.17876,3.863708 101.3462,10.421979 155.52,36.209955 48.71907,23.1914 77.3144,43.74316 118.39737,85.09338 79.93409,80.45406 117.65556,172.59124 117.71566,287.52832 0.0269,50.9154 -15.26857,128.99504 -29.67671,151.49502 -3.31596,5.17828 -6.49095,15.23666 -7.0555,22.35199 -1.35395,17.06431 -23.81507,63.86968 -44.06028,91.81471 -23.49788,32.43475 -57.82394,66.95796 -101.56054,102.1438 -77.72464,62.52906 -129.4272,75.24446 -259.2,63.74604 z"
         id="path1170" />
      <path
         style="fill:#e5c2ba;stroke-width:3.84"
         d="M 470.39999,913.95619 C 406.57608,909.11476 360.92185,897.89904 320.91367,877.23235 262.96455,847.29806 222.78288,818.65043 184.31638,779.84504 153.83108,749.09113 144.59325,736.7266 128.1291,704.63999 92.374658,634.95896 77.229476,571.47827 76.677714,488.98259 75.918507,375.47232 112.4929,282.02529 189.5943,200.48239 256.08327,130.16325 335.98005,87.365263 426.23999,73.719355 c 32.66796,-4.938889 135.64496,0.491343 170.88,9.010924 35.77854,8.650998 100.50842,39.480261 132.00445,62.870511 32.93265,24.45714 86.86011,80.07048 107.78285,111.15234 18.51064,27.4986 35.26356,62.58137 48.7814,102.15446 25.83594,75.6341 20.28399,203.71472 -11.8239,272.7724 -4.90979,10.56 -11.91629,29.568 -15.56997,42.24 -3.65372,12.672 -14.66473,36.78942 -24.46898,53.5943 -30.74415,52.69682 -121.18099,136.90587 -177.89614,165.64562 -40.50094,20.52337 -100.48677,27.24725 -185.52971,20.79628 z"
         id="path1168" />
      <path
         style="fill:#f0a58f;stroke-width:3.84"
         d="M 470.39999,913.95619 C 406.57608,909.11476 360.92185,897.89904 320.91367,877.23235 262.96455,847.29806 222.78288,818.65043 184.31638,779.84504 153.83108,749.09113 144.59325,736.7266 128.1291,704.63999 103.82957,657.28319 95.037621,631.71532 84.786588,578.59567 70.762812,505.92613 75.97219,417.11627 98.130334,351.11061 131.84018,250.69423 210.81424,161.33324 310.07934,111.28537 c 60.2761,-30.390242 88.24401,-36.016053 179.52065,-36.110997 68.18488,-0.07093 80.4614,0.908091 109.44,8.727544 39.91042,10.769253 101.27458,40.732103 134.7272,65.784533 33.41165,25.02175 82.04636,76.35546 104.70359,110.51418 44.73458,67.44322 67.53976,154.95935 62.26153,238.93208 -2.96967,47.24525 -15.33308,108.51372 -25.19704,124.86728 -9.62777,15.96196 -19.69398,41.0691 -15.40244,38.41678 6.87403,-4.24839 -10.65626,38.8113 -27.28604,67.02274 -30.0387,50.95891 -121.59686,135.68751 -176.91709,163.7204 -40.50094,20.52337 -100.48677,27.24725 -185.52971,20.79628 z"
         id="path1166" />
      <path
         style="fill:#ec9a84;stroke-width:3.84"
         d="M 470.39999,913.95619 C 406.57608,909.11476 360.92185,897.89904 320.91367,877.23235 262.95859,847.29495 222.7836,818.65135 184.32,779.84504 155.27461,750.54085 144.17908,735.99666 129.87668,708.47999 91.910298,635.43566 80.01227,586.01237 79.032939,497.27999 c -0.384729,-34.85848 0.567518,-55.62528 2.201008,-48 1.928716,9.00346 2.317512,5.20067 1.177808,-11.52 -1.17754,-17.27577 -0.531617,-23.18672 2.098103,-19.2 2.689133,4.07681 3.064746,1.93859 1.285356,-7.31708 -1.96648,-10.22884 -1.417897,-12.39963 2.518679,-9.96668 3.389571,2.09487 4.108558,1.61506 2.202147,-1.46961 -5.587084,-9.04009 17.43976,-84.92663 25.76995,-84.92663 2.2187,0 2.96209,-1.07191 1.65197,-2.38204 -3.26979,-3.26978 18.56373,-45.7221 33.73212,-65.58754 6.82966,-8.94452 13.51384,-15.1665 14.85374,-13.8266 1.33989,1.3399 2.43618,0.348 2.43618,-2.20423 0,-2.55222 12.04797,-16.04294 26.77326,-29.97938 14.7253,-13.93644 25.9089,-26.73756 24.85245,-28.44693 -2.02654,-3.27901 13.52833,-13.38446 18.45429,-11.98909 1.584,0.4487 2.448,-1.34418 1.92,-3.98418 -0.528,-2.64 1.2,-4.368 3.84,-3.84 2.63999,0.528 4.79999,-0.58786 4.79999,-2.4797 0,-5.86821 37.82727,-28.08752 42.69545,-25.07882 2.79683,1.72853 3.56004,1.18909 1.96623,-1.38975 -4.85058,-7.84841 75.52816,-41.815136 89.99729,-38.03137 4.63638,1.212442 6.48288,0.408319 4.90925,-2.137893 -1.69025,-2.734905 1.53792,-3.269237 9.78559,-1.619708 7.33117,1.466239 11.40541,1.001219 10.07585,-1.15003 -1.27941,-2.070178 4.78506,-3.37205 14.20911,-3.050292 13.71065,0.468107 83.86368,0.305625 137.28084,-0.317991 9.95079,-0.11616 11.89321,0.797503 7.68,3.612496 -3.88969,2.598812 -0.99916,2.963105 9.3155,1.17403 10.01341,-1.736828 14.1355,-1.267803 12.4747,1.419421 -1.56438,2.53124 0.57953,3.213193 5.80535,1.846606 5.63578,-1.473792 7.41588,-0.75926 5.56585,2.234128 -1.75573,2.840839 -0.63448,3.600656 3.16301,2.143422 7.75031,-2.974072 48.48606,9.94482 50.85934,16.129471 1.01775,2.6522 4.3986,5.79999 7.51299,6.99509 3.64908,1.40029 4.80765,0.48182 3.25832,-2.58309 -1.3223,-2.61581 0.31603,-1.40175 3.64055,2.69792 3.32464,4.09966 6.04478,5.92939 6.04478,4.06606 0,-1.86334 2.72014,-0.0338 6.04477,4.06606 3.3246,4.09967 4.95064,5.29394 3.61336,2.65394 -1.33728,-2.64 -1.42306,-4.8 -0.19084,-4.8 5.83395,0 51.67745,31.77701 50.91774,35.29427 -0.47589,2.20305 2.3846,4.54733 6.35666,5.20952 3.97202,0.66218 8.48671,2.61973 10.03262,4.35009 1.54594,1.73036 12.07157,13.51412 23.39032,26.18612 11.31874,12.672 21.8092,22.64629 23.3121,22.16509 4.26939,-1.36699 26.60029,28.51478 25.41865,34.01363 -0.58057,2.7017 1.53642,4.9952 4.70442,5.09665 3.168,0.10146 5.78204,3.08205 5.80896,6.62353 0.0269,3.54147 1.60001,7.85701 3.49567,9.59007 2.00947,1.83711 2.15447,0.74922 0.34752,-2.60898 -2.16718,-4.02804 -1.85249,-4.60536 1.04651,-1.92 7.85733,7.2783 27.99921,49.36462 26.05275,54.43705 -1.07243,2.79562 -0.17445,5.08295 1.99592,5.08295 2.17037,0 2.87816,1.728 1.57286,3.84 -1.30529,2.112 -0.44129,3.84 1.92,3.84 2.3613,0 3.2253,1.728 1.92,3.84 -1.30529,2.112 -0.9221,3.84 0.85152,3.84 4.2192,0 12.94376,23.19853 10.32069,27.44272 -1.11398,1.80251 -0.45845,3.27728 1.45678,3.27728 1.91524,0 3.62896,4.752 3.80825,10.56 0.17933,5.808 2.26229,19.14613 4.62892,29.64027 7.66814,34.00212 5.56416,115.48554 -4.20506,162.85547 -4.79336,23.24237 -10.11602,41.39309 -11.82813,40.33494 -1.71214,-1.05819 -3.11297,0.13824 -3.11297,2.65839 0,2.52031 -7.6664,20.76626 -17.03643,40.54664 -9.37006,19.78034 -16.32645,35.96429 -15.45861,35.96429 0.8678,0 4.34162,-5.34459 7.71959,-11.87686 3.37797,-6.53226 6.88612,-11.13246 7.79593,-10.22269 3.2582,3.25824 -7.42041,28.3809 -24.82932,58.41385 -30.46587,52.55804 -120.90635,136.82484 -177.78144,165.64562 -40.50094,20.52337 -100.48677,27.24725 -185.52971,20.79628 z M 83.355881,521.32476 c -0.918502,-4.77661 -1.704876,-1.77277 -1.7475,6.67523 -0.04262,8.448 0.708883,12.35616 1.670005,8.68477 0.961125,-3.67138 0.995996,-10.58338 0.07749,-15.36 z"
         id="path1164" />
      <path
         style="fill:#f49376;stroke-width:3.84"
         d="M 470.39999,913.95619 C 406.57608,909.11476 360.92185,897.89904 320.91367,877.23235 262.96455,847.29806 222.78288,818.65043 184.31638,779.84504 153.83108,749.09113 144.59325,736.7266 128.1291,704.63999 117.29209,683.51999 104.90369,655.83178 100.59931,643.11059 90.553807,613.42209 76.629598,541.40704 77.376743,523.00507 l 0.576741,-14.20508 2.820745,15.36 c 2.707446,14.74306 2.219924,-3.65176 -1.679247,-63.36 -1.145437,-17.54012 -0.843974,-18.84192 1.778515,-7.68 2.351789,10.00973 2.801534,6.57946 1.762138,-13.44 -0.967638,-18.63736 -0.297408,-24.52496 2.185639,-19.2 2.614015,5.60579 3.01306,3.53161 1.47751,-7.68 -1.310854,-9.57101 -0.815828,-13.44845 1.313452,-10.28805 3.004808,4.45993 7.19189,-15.76961 9.535515,-46.07002 0.273869,-3.54094 2.149329,-5.41747 4.167669,-4.17007 2.08868,1.29088 2.61329,-0.48498 1.21766,-4.12192 -1.35044,-3.51919 -0.59645,-6.38994 1.67827,-6.38994 2.27168,0 3.10124,-2.68175 1.84347,-5.95944 -1.49411,-3.89358 -0.74474,-5.00636 2.16173,-3.21007 2.99794,1.85283 3.62403,0.60065 1.92,-3.84 -1.39072,-3.62415 -1.00144,-5.64554 0.86506,-4.49198 3.90469,2.41323 9.01836,-8.52625 6.1529,-13.16266 -1.05072,-1.70011 0.67168,-4.08193 3.82754,-5.29295 3.15587,-1.21102 5.73795,-5.7121 5.73795,-10.00238 0,-4.29028 1.91287,-7.80052 4.25084,-7.80052 2.33796,0 3.31107,-2.44899 2.16246,-5.4422 -1.1486,-2.99322 0.47558,-6.42609 3.6093,-7.62861 3.13372,-1.20252 5.18461,-5.19474 4.55753,-8.87161 -0.6543,-3.83656 1.31428,-6.76141 4.61987,-6.86403 3.168,-0.0983 5.5231,-3.14253 5.23355,-6.76485 -0.28953,-3.62232 0.81744,-5.75548 2.45997,-4.74034 1.64252,1.01514 5.88483,-2.57785 9.42735,-7.98442 3.54252,-5.40657 18.53502,-22.56203 33.31666,-38.12326 14.78164,-15.56123 26.87355,-29.69883 26.8709,-31.41691 -0.003,-1.71807 2.19539,-2.67997 4.8845,-2.13755 2.68912,0.54242 8.19181,-2.8838 12.22819,-7.61382 7.26815,-8.51717 7.26487,-8.54696 -0.34111,-3.09141 -6.68191,4.79273 -7.03703,4.78992 -2.73257,-0.0215 2.72109,-3.04163 7.90509,-5.55029 11.52,-5.5748 3.61491,-0.0246 6.09776,-2.33301 5.51743,-5.13 -0.58033,-2.79698 0.70804,-3.99572 2.86304,-2.66385 2.155,1.33186 8.52845,-2.42769 14.16323,-8.35458 5.63478,-5.92688 8.93085,-8.51004 7.32461,-5.74035 -1.60624,2.76968 9.34312,-1.14004 24.33191,-8.68828 14.98878,-7.54834 27.25233,-15.53242 27.25233,-17.74251 0,-2.2101 1.728,-2.95039 3.84,-1.6451 2.112,1.30529 3.84,0.68214 3.84,-1.38477 0,-6.097595 38.77136,-17.266131 59.04039,-17.007261 13.21612,0.168806 17.16783,-0.868147 13.44,-3.526679 -4.3096,-3.073436 -4.20964,-3.431547 0.54366,-1.947859 3.20322,0.999851 33.87698,0.730855 68.16392,-0.597762 35.24947,-1.365918 62.33817,-0.944421 62.33595,0.969938 -0.002,1.862085 7.25026,2.412619 16.11651,1.223409 11.42688,-1.532667 14.50146,-1.037207 10.56,1.701704 -3.93435,2.733961 -1.06859,3.176747 9.79957,1.514131 10.00393,-1.530405 13.50793,-1.106634 10.04874,1.215283 -4.0209,2.69894 -2.62153,4.111557 5.76,5.814482 6.0892,1.237179 13.66326,2.016787 16.83126,1.732466 3.168,-0.284314 10.08,-0.123264 15.36,0.357888 8.96421,0.816891 9.09139,1.10688 1.92,4.378759 -6.91335,3.154149 -6.72165,3.414705 1.92,2.610106 5.28,-0.491605 12.78374,2.289925 16.675,6.181195 3.94307,3.94304 10.25956,6.24225 14.26875,5.19383 4.1593,-1.08769 6.84411,-0.0227 6.36496,2.52498 -0.45577,2.42339 2.19529,4.16617 5.89129,3.87283 3.696,-0.29334 6.72,0.96755 6.72,2.80196 0,1.83441 7.09263,6.95368 15.76143,11.37617 9.91173,5.05659 14.74345,6.15444 13.01856,2.95804 -1.50858,-2.79556 1.48078,-0.0521 6.64301,6.09659 5.16222,6.14868 11.20408,10.05571 13.42633,8.68228 2.22224,-1.37343 6.39625,0.50783 9.27555,4.18057 4.81986,6.14803 4.62594,6.24294 -2.44488,1.19642 -4.224,-3.01471 -3.00342,-0.85471 2.71242,4.8 10.95317,10.8361 16.9928,13.56369 12.13709,5.4813 -1.98336,-3.30127 -0.86834,-3.16541 3.57108,0.4351 3.55016,2.87931 5.68969,6.47316 4.7545,7.98634 -2.1307,3.44754 37.95924,43.40424 40.74946,40.61402 1.12339,-1.1234 5.34394,1.72109 9.37897,6.32107 4.03507,4.59999 5.17647,7.1006 2.53647,5.55692 -2.64,-1.54368 -4.8,-1.0787 -4.8,1.0333 0,3.84509 7.34731,9.88391 12.16002,9.99445 1.40797,0.0323 3.99997,1.63184 5.76,3.55445 1.85917,2.03096 1.18874,2.33825 -1.60002,0.73338 -7.15457,-4.11727 -5.80124,3.61845 1.69713,9.70078 4.41469,3.58102 5.57284,3.73172 3.61336,0.47019 -4.20299,-6.99591 -0.39986,-5.87132 5.73934,1.69712 3.581,4.4147 3.73172,5.57284 0.47017,3.61338 -7.09006,-4.25958 -6.13348,-1.73544 8.64,22.79837 12.2731,20.38152 18.93262,26.76929 9.46491,9.07869 -2.1863,-4.08517 -3.09469,-7.42757 -2.01861,-7.42757 2.10989,0 13.6737,21.13901 13.6737,24.99593 0,1.28553 -1.70822,1.28159 -3.79603,-0.009 -2.17371,-1.34342 -2.82228,0.19139 -1.51761,3.59132 1.25311,3.26556 4.09233,4.81632 6.30932,3.44613 2.36494,-1.4616 2.88971,-0.64473 1.26977,1.97642 -3.88113,6.27978 1.25192,20.41159 6.28431,17.30139 2.48821,-1.53779 3.04846,-0.77565 1.39569,1.89861 -3.44291,5.57075 0.98626,20.57579 5.28864,17.91676 4.48301,-2.77065 8.03731,8.29103 5.11284,15.91212 -1.39564,3.63693 -0.87102,5.4128 1.21763,4.12194 2.06972,-1.27915 4.00842,4.72462 4.44657,13.77006 0.42727,8.82094 1.94496,20.35807 3.37263,25.63807 1.42767,5.28 3.28562,33.39882 4.12873,62.48628 1.16705,40.26186 -0.0307,59.96963 -5.01765,82.56 -7.14839,32.38164 -25.9713,84.57116 -41.68773,115.58607 -5.48706,10.82822 -9.12776,19.68764 -8.09042,19.68764 1.03737,0 4.64989,-5.34459 8.02786,-11.87685 3.37797,-6.53226 6.88612,-11.13247 7.79593,-10.22269 3.2582,3.25824 -7.42041,28.3809 -24.82932,58.41384 -30.46587,52.55805 -120.90635,136.82485 -177.78144,165.64562 -40.50094,20.52338 -100.48677,27.24726 -185.52971,20.79629 z m 370.55999,-645.1562 c -2.26061,-4.224 -3.24622,-7.68 -2.19022,-7.68 1.056,0 3.76961,3.456 6.03022,7.68 2.26061,4.224 3.24622,7.68 2.19022,7.68 -1.056,0 -3.76961,-3.456 -6.03022,-7.68 z M 687.35999,122.88 c -3.46096,-2.23665 -3.93458,-3.74587 -1.18664,-3.7812 2.51535,-0.0323 5.64134,1.6692 6.94664,3.7812 2.94643,4.76745 1.6171,4.76745 -5.76,0 z m -387.84,-5.72351 c 0,-2.62758 23.51199,-14.28451 25.26864,-12.52786 0.83321,0.83321 -4.51138,4.38867 -11.87686,7.90102 -7.36548,3.51235 -13.39178,5.59443 -13.39178,4.62684 z"
         id="path1162" />
      <path
         style="fill:#f58e72;stroke-width:3.84"
         d="M 470.39999,913.95619 C 406.57608,909.11476 360.92185,897.89904 320.91367,877.23235 262.96455,847.29806 222.78288,818.65043 184.31638,779.84504 153.83108,749.09113 144.59325,736.7266 128.1291,704.63999 117.29209,683.51999 104.90369,655.83178 100.59931,643.11059 90.555239,613.42636 76.629898,541.40973 77.375353,523.00507 c 0.516012,-12.73993 0.729884,-13.01687 2.073539,-2.68508 2.613922,20.09925 13.511665,67.67942 15.13049,66.06059 0.855698,-0.85566 -1.151677,-14.34136 -4.460835,-29.9682 -7.710812,-36.41272 -7.809984,-104.26783 -0.209242,-143.161 3.253405,-16.6477 4.823758,-32.03471 3.489673,-34.1933 -1.390652,-2.25013 -0.53401,-2.75564 2.007709,-1.18478 2.823172,1.74482 4.433311,-0.24247 4.433311,-5.47175 0,-4.51643 4.432062,-19.2901 9.849022,-32.83038 5.41697,-13.54028 8.60598,-26.62999 7.08669,-29.08825 -1.84595,-2.9868 -1.07513,-3.4268 2.32354,-1.32631 3.7237,2.30138 4.40863,1.37838 2.5573,-3.44613 -1.40056,-3.64979 -0.95124,-5.61452 1.00719,-4.40414 1.94467,1.20187 8.9732,-8.01645 15.61895,-20.48516 15.74173,-29.5345 56.20437,-79.91826 80.55331,-100.30434 10.58828,-8.86502 18.40477,-17.48811 17.36999,-19.16243 -1.03479,-1.67432 1.02325,-5.40001 4.57341,-8.27931 4.4394,-3.60052 5.55443,-3.73637 3.57109,-0.4351 -4.33404,7.21401 -0.035,5.86492 16.78885,-5.26861 8.36807,-5.53773 14.35084,-11.46632 13.29503,-13.17466 -1.05581,-1.70833 0.10353,-4.35645 2.5763,-5.88471 2.80791,-1.73538 3.46722,-1.11413 1.75601,1.65467 -1.50697,2.43832 -1.79921,4.43331 -0.64944,4.43331 4.30444,0 48.28707,-24.31569 46.75459,-25.84816 -0.87897,-0.87898 -6.94272,1.16566 -13.47499,4.54362 -6.53226,3.37797 -11.87685,5.27776 -11.87685,4.22176 0,-4.70172 22.66837,-13.01541 30.1521,-11.05837 4.55885,1.19217 10.43961,0.41494 13.06835,-1.72716 2.62876,-2.14211 23.78755,-8.798284 47.01955,-14.791506 37.2419,-9.607392 49.05562,-10.896768 99.84,-10.896768 50.78166,0 62.56113,1.285486 99.51056,10.859547 23.05083,5.972755 44.65083,12.214027 48,13.869487 20.7264,10.24484 35.96506,15.25602 39.58649,13.01787 2.61557,-1.61653 3.05364,-0.77134 1.17538,2.26776 -2.184,3.53378 -0.87337,4.17159 4.84351,2.35711 4.31074,-1.36818 8.93691,-0.7091 10.28033,1.46462 1.45325,2.35141 0.0269,3.02595 -3.51682,1.66537 -12.27814,-4.71156 -5.22809,1.73463 16.69935,15.26901 24.14987,14.90616 29.444,16.86465 24.83071,9.18581 -1.9081,-3.17606 -0.65423,-2.99093 3.70617,0.5472 3.62446,2.94096 5.69914,6.23797 4.61042,7.32668 -2.56424,2.56424 5.48375,12.28612 10.1707,12.28612 1.97806,0 2.29878,-2.16 0.71271,-4.8 -1.95948,-3.26153 -0.80134,-3.11083 3.61336,0.47019 7.03384,5.70554 8.90761,10.11281 2.65712,6.24981 -2.112,-1.30529 -3.84,-1.28 -3.84,0.0562 0,3.68489 43.22293,42.30189 46.31125,41.37621 1.48185,-0.44418 5.92404,3.01182 9.87152,7.68 l 7.17723,8.48761 -8.64,-7.31516 c -4.752,-4.02333 -8.64,-6.082 -8.64,-4.57482 0,5.08721 24.11705,32.79758 26.99601,31.01829 1.5696,-0.97006 5.20957,1.24122 8.08888,4.91396 4.73741,6.04289 4.59625,6.1767 -1.48489,1.40754 -9.15141,-7.17704 -8.33019,-0.71984 1.40283,11.03018 5.20727,6.28636 7.20757,7.28046 5.79514,2.88 -2.97439,-9.2668 0.25344,-8.43597 5.53002,1.4234 3.06309,5.72343 3.10326,7.36778 0.13517,5.53338 -7.03423,-4.34739 -4.84443,2.79694 8.52979,27.82859 7.01411,13.12785 14.20312,22.55162 15.97567,20.94172 1.7725,-1.60989 1.92388,-0.67679 0.33638,2.07358 -1.58746,2.75037 0.56632,15.71037 4.78614,28.8 13.36742,41.46464 21.29418,90.81708 21.40036,133.23933 0.023,9.23462 -5.99109,72.85981 -7.25956,76.8 -0.33984,1.056 -1.94519,7.104 -3.56717,13.44 -12.48964,48.78835 -42.73947,113.21245 -69.46786,147.94798 -9.70518,12.61259 -16.78176,22.93201 -15.72576,22.93201 3.166,0 34.88778,-42.8092 46.36711,-62.57345 5.88215,-10.12742 11.35669,-17.75163 12.16558,-16.94269 3.08498,3.08498 -7.98324,28.85218 -25.01268,58.23045 -30.46587,52.55804 -120.90635,136.82484 -177.78144,165.64562 -40.50094,20.52337 -100.48677,27.24725 -185.52971,20.79628 z m 35.52,-25.87353 c -7.92,-0.82844 -20.88,-0.82844 -28.8,0 -7.92,0.82848 -1.44,1.50628 14.4,1.50628 15.84,0 22.32,-0.6778 14.4,-1.50628 z m -59.44692,-3.56149 c -2.5998,-1.05185 -7.7838,-1.11586 -11.52,-0.14246 -3.73621,0.97359 -1.60908,1.83421 4.72692,1.91247 6.336,0.0783 9.39287,-0.71831 6.79308,-1.7702 z m 99.83999,0 c -2.59979,-1.05185 -7.78379,-1.11586 -11.52,-0.14246 -3.7362,0.97359 -1.60907,1.83421 4.72693,1.91247 6.336,0.0783 9.39287,-0.71831 6.79307,-1.7702 z M 578.8,880.87997 c -1.27603,-1.27599 -4.58803,-1.41239 -7.36001,-0.30298 -3.06328,1.22581 -2.1534,2.13573 2.32001,2.31998 4.04798,0.16665 6.31599,-0.74085 5.04,-2.01685 z M 230.4,797.51841 c 0,-0.66086 -5.616,-6.27686 -12.48,-12.48 l -12.48,-11.27843 11.27843,12.48 C 227.2315,797.87311 230.4,800.48504 230.4,797.51841 Z m -30.72,-30.72 c 0,-0.66086 -5.616,-6.27686 -12.48,-12.48 l -12.48,-11.27843 11.27843,12.48 C 196.5115,767.15311 199.68,769.76504 199.68,766.79841 Z M 111.82876,634.84799 c -4.52677,-7.78449 -5.61989,-5.29287 -1.91437,4.36354 1.31691,3.43181 3.20331,5.43076 4.19198,4.44208 0.98868,-0.98869 -0.0361,-4.95122 -2.27761,-8.80562 z m -8.49785,-27.77891 c -2.59677,-8.66722 -5.428307,-15.05168 -6.292307,-14.18768 -0.864,0.864 0.55372,8.66227 3.150487,17.32949 2.59676,8.66723 5.4283,15.05169 6.2923,14.18769 0.864,-0.864 -0.55372,-8.66227 -3.15048,-17.3295 z m 125.85224,2.77091 c -1.22582,-3.06329 -2.13574,-2.1534 -2.32,2.32001 -0.16673,4.04797 0.74085,6.31599 2.01685,5.04 1.27599,-1.27603 1.41242,-4.58803 0.30316,-7.36001 z m 153.6,-111.36 c -1.22583,-3.06328 -2.13574,-2.1534 -2.32,2.32001 -0.16673,4.04798 0.74084,6.316 2.01684,5.04 1.276,-1.27603 1.41242,-4.58803 0.30317,-7.36001 z M 691.19999,248.27515 c 0,-0.72867 -3.888,-4.61667 -8.64,-8.64 l -8.64,-7.31515 7.31516,8.64 c 6.87444,8.11946 9.96484,10.38812 9.96484,7.31515 z M 77.768381,451.19999 c 0.04262,-8.448 0.828999,-11.45184 1.7475,-6.67522 0.918501,4.77661 0.88363,11.68861 -0.07749,15.36 -0.961125,3.67138 -1.712628,-0.23678 -1.670008,-8.68478 z m 3.477934,-28.8 c 0,-5.28 0.871576,-7.44 1.936842,-4.8 1.065262,2.64 1.065262,6.96 0,9.6 -1.065266,2.64 -1.936842,0.48 -1.936842,-4.8 z M 84.783155,404.8 c 0.184243,-4.4734 1.094173,-5.38329 2.320001,-2.32001 1.109265,2.77198 0.972841,6.08398 -0.303168,7.36001 -1.276001,1.276 -2.183581,-0.99202 -2.016845,-5.04 z M 881.75438,358.89154 c -3.70553,-9.65642 -2.61239,-12.14805 1.91435,-4.36354 2.24137,3.85441 3.2663,7.81693 2.27762,8.80562 -0.98868,0.98868 -2.87508,-1.01026 -4.19197,-4.44208 z m -25.44227,-61.31223 c -2.2345,-5.8772 -4.97683,-12.16485 -6.09404,-13.97256 -1.11725,-1.80772 -1.10972,-3.28676 0.0167,-3.28676 3.35305,0 14.51163,23.57362 12.23582,25.84942 -1.15262,1.15264 -3.92394,-2.71291 -6.15844,-8.5901 z M 348.8885,93.589054 c 7.08868,-3.093454 18.32068,-6.468806 24.96,-7.500783 6.63932,-1.031977 1.70349,1.614539 -10.96851,5.881148 -26.71749,8.995671 -32.40151,9.653641 -13.99149,1.619635 z m 276.31149,-0.212198 c 2.77198,-1.109265 6.08398,-0.972841 7.36001,0.303168 1.27599,1.276001 -0.99203,2.183581 -5.04,2.016844 -4.47341,-0.184243 -5.3833,-1.094173 -2.32001,-2.320001 z m -234.24,-11.52 c 2.77198,-1.109265 6.08398,-0.972841 7.36001,0.303168 1.276,1.276001 -0.99202,2.183581 -5.04,2.016845 -4.4734,-0.184244 -5.38329,-1.094174 -2.32001,-2.320002 z m 192,0 c 2.77198,-1.109265 6.08398,-0.972841 7.36001,0.303168 1.27599,1.276001 -0.99202,2.183581 -5.04,2.016845 -4.47341,-0.184244 -5.38329,-1.094174 -2.32001,-2.320002 z"
         id="path1160" />
      <path
         style="fill:#d39489;stroke-width:3.84"
         d="M 470.39999,913.95619 C 406.57608,909.11476 360.92185,897.89904 320.91367,877.23235 262.96455,847.29806 222.78288,818.65043 184.31638,779.84504 153.83108,749.09113 144.59325,736.7266 128.1291,704.63999 c -10.83701,-21.12 -23.22541,-48.80821 -27.52979,-61.5294 -9.989746,-29.52368 -23.9577,-101.59803 -23.276373,-120.10552 0.346637,-9.41576 0.99552,-10.96838 1.924612,-4.60508 19.198736,131.49158 82.998171,237.01655 183.805771,304.01683 25.81754,17.15927 77.81168,42.05487 97.90667,46.87925 5.8363,1.40118 4.33082,-0.0457 -3.84,-3.69012 -7.392,-3.29722 -25.536,-11.39328 -40.32,-17.99132 C 208.17034,799.13386 124.10793,696.3687 94.617809,575.99999 c -5.500308,-22.45041 -6.522796,-45.10625 -6.468111,-143.3174 0.0038,-6.83201 1.550523,-9.88282 4.184993,-8.25462 2.316077,1.4314 3.789953,0.27111 3.306317,-2.60263 -0.479954,-2.85193 1.202999,-10.23533 3.739899,-16.40756 2.536903,-6.17222 3.619483,-13.81006 2.405753,-16.97299 -1.21373,-3.16293 -0.79474,-6.75294 0.9311,-7.97779 2.78473,-1.97637 12.51599,-24.50222 28.33384,-65.58701 2.84596,-7.392 4.72079,-14.86444 4.16629,-16.60542 -0.5545,-1.74099 0.63823,-2.1479 2.6505,-0.90424 3.26444,2.01754 6.81155,-4.23421 8.58462,-15.13034 0.34368,-2.112 2.61275,-5.568 5.04238,-7.68 10.91066,-9.4843 32.87363,-40.35791 31.93894,-44.89698 -0.56888,-2.76266 0.89628,-4.66748 3.25593,-4.23293 2.35964,0.43455 8.27685,-3.45345 13.14936,-8.64 4.87251,-5.18655 7.48231,-9.43008 5.79955,-9.43008 -1.68275,0 -0.92417,-2.57298 1.68574,-5.71773 2.6099,-3.14474 6.1034,-4.87835 7.76333,-3.85246 1.65993,1.02589 7.99225,-3.74513 14.07184,-10.60227 6.07958,-6.85715 15.69869,-14.88798 21.37579,-17.84629 5.67711,-2.9583 9.38854,-6.88912 8.24764,-8.73514 -1.1409,-1.84602 -0.60615,-2.88158 1.18834,-2.30126 5.42796,1.75537 50.62709,-29.19187 48.25085,-33.03671 -1.21513,-1.96612 -0.2658,-2.3736 2.10962,-0.90551 5.22788,3.23101 43.62486,-12.6403 40.97053,-16.93509 -1.0304,-1.66722 1.58493,-2.12693 5.81184,-1.02156 4.46868,1.16858 7.6853,0.12024 7.6853,-2.50474 0,-2.48297 1.42327,-3.63487 3.16281,-2.55977 1.73955,1.0751 14.26755,-1.719576 27.84001,-6.210395 21.3658,-7.069459 34.3387,-8.226558 96.67718,-8.622958 41.14963,-0.261657 72,1.04291 72,3.044679 0,1.926382 4.2677,2.68669 9.4838,1.689573 5.21606,-0.997118 8.74994,-0.625586 7.85307,0.82563 -0.89691,1.451213 8.22739,5.69151 20.2762,9.422881 33.99018,10.52636 88.46403,38.3488 116.03834,59.26645 52.66898,39.95425 104.03624,100.42528 129.62331,152.59633 5.47999,11.17345 11.21583,19.54145 12.7463,18.59555 1.53051,-0.9459 1.93114,1.53672 0.89031,5.51693 -1.04087,3.98022 0.64696,12.1906 3.75068,18.2453 3.10372,6.05471 9.6235,26.56055 14.48839,45.56855 12.54229,49.0047 11.82648,111.74369 -1.89235,165.86419 -5.43556,21.4431 -8.72859,41.99528 -7.31788,45.67154 1.87749,4.89262 1.21163,5.84774 -2.48437,3.56348 -3.82756,-2.36555 -4.58423,-0.68778 -3.1273,6.93385 1.20473,6.30198 0.45236,9.14619 -2.0158,7.62079 -2.3924,-1.4786 -2.9755,0.0741 -1.48578,3.95623 1.34861,3.51445 0.83252,6.38992 -1.14693,6.38992 -1.97944,0 -2.49554,2.87547 -1.14693,6.38991 1.5355,4.00143 0.92586,5.44673 -1.63089,3.86657 -2.31125,-1.42848 -5.12801,1.6406 -6.49144,7.0729 -3.2822,13.07727 -34.44219,65.30511 -51.16669,85.76144 -33.39878,40.85123 -84.50043,79.83318 -134.61389,102.68771 -17.33475,7.90564 -30.81323,15.07837 -29.95215,15.93945 3.32878,3.32878 61.13437,-26.28368 89.30281,-45.74772 47.65013,-32.92573 94.02516,-82.6911 122.09744,-131.02372 5.88215,-10.12742 11.35669,-17.75163 12.16558,-16.94269 3.08498,3.08498 -7.98324,28.85218 -25.01268,58.23045 -30.46587,52.55804 -120.90635,136.82484 -177.78144,165.64562 -40.50094,20.52337 -100.48677,27.24725 -185.52971,20.79628 z m 65.28,-26.93122 c 18.02358,-2.36364 13.63657,-2.75098 -20.14929,-1.77907 -37.18429,1.06967 -93.11416,-3.65396 -133.45071,-11.27075 -6.336,-1.19643 -3.94624,0.34637 5.31057,3.42881 34.07416,11.34574 101.68711,15.73244 148.28943,9.62101 z m 51.84,-7.66499 c 9.36127,-2.998 9.31353,-3.07726 -1.92,-3.18731 -6.336,-0.0622 -14.976,1.37218 -19.2,3.18731 -6.98139,3 -6.80675,3.28996 1.92,3.18732 5.28,-0.0622 13.92,-1.49637 19.2,-3.18732 z m 26.88,-7.68 c 7.0194,-4.53627 0.9565,-4.53627 -9.6,0 -5.06396,2.17605 -5.71799,3.3721 -1.92,3.5113 3.168,0.11597 8.352,-1.46396 11.52,-3.5113 z M 259.55302,687.34013 c -9.88785,-10.5709 -23.08295,-30.0109 -29.32244,-43.2 -11.51198,-24.33411 -15.87439,-26.08312 -5.90904,-2.36908 7.06539,16.81313 27.45057,45.21765 40.19754,56.01085 15.93688,13.49414 14.39946,10.26155 -4.96606,-10.44177 z M 287.68,697.79338 c -0.88001,-0.59762 -5.05601,-3.62162 -9.28001,-6.72 -7.10402,-5.21092 -7.28475,-5.12943 -2.40981,1.08661 2.8986,3.696 7.0746,6.72 9.28,6.72 2.2054,0 3.28981,-0.48899 2.40982,-1.08661 z m -18.88001,-15.59823 c 0,-0.72868 -3.888,-4.61668 -8.64,-8.64 l -8.64,-7.31516 7.31516,8.64 c 6.87444,8.11945 9.96484,10.38812 9.96484,7.31516 z m -25.74903,-38.88784 c -5.66807,-11.55697 -10.94948,-20.36881 -11.73645,-19.58184 -1.72511,1.72512 17.64371,40.59452 20.22845,40.59452 0.99747,0 -2.82393,-9.4557 -8.492,-21.01268 z m 286.86903,-25.06732 c 3.168,-2.04734 4.032,-3.72238 1.92,-3.72238 -2.112,0 -6.432,1.67504 -9.6,3.72238 -3.168,2.04733 -4.032,3.72238 -1.92,3.72238 2.112,0 6.432,-1.67505 9.6,-3.72238 z m -300.81684,-12.48 c -1.06526,-2.64 -1.93684,-0.48 -1.93684,4.8 0,5.28 0.87158,7.44 1.93684,4.8 1.06527,-2.64 1.06527,-6.96 0,-9.6 z m 328.18667,-9.6 c 4.77646,-6.09047 4.64064,-6.22629 -1.44983,-1.44983 -3.696,2.89862 -6.72,5.92262 -6.72,6.72 0,3.16047 3.15337,1.12631 8.16983,-5.27017 z m 25.64855,-37.54161 c -1.1823,-1.1823 -3.32947,0.9489 -4.77151,4.73599 -2.08389,5.47277 -1.64283,5.91383 2.14963,2.14963 2.62434,-2.60482 3.80418,-5.70332 2.62188,-6.88562 z m 8.304,-19.09839 c 0,-2.112 -1.67505,-1.248 -3.72238,1.92 -2.04734,3.168 -3.72238,7.488 -3.72238,9.6 0,2.112 1.67504,1.248 3.72238,-1.92 2.04733,-3.168 3.72238,-7.488 3.72238,-9.6 z m -202.9584,-21.49701 c -2.35618,-6.75898 -4.5193,-17.64718 -4.80692,-24.19599 -0.43675,-9.94468 -0.80938,-10.39008 -2.26103,-2.70264 -1.79696,9.5161 6.2672,44.27244 9.51783,41.02176 1.00877,-1.00873 -0.0937,-7.36416 -2.44988,-14.12313 z m 205.69916,7.33701 c -1.2258,-3.06328 -2.13573,-2.1534 -2.31997,2.32001 -0.16666,4.04798 0.74081,6.316 2.01684,5.04 1.27599,-1.27603 1.41239,-4.58803 0.30298,-7.36001 z m 8.56815,-41.52 c 0.11597,-11.616 -1.05842,-23.10712 -2.61008,-25.53585 -1.55167,-2.42872 -2.82121,10.03984 -2.82121,27.70791 0,17.66807 1.17454,29.15923 2.61008,25.53584 1.43559,-3.62334 2.70513,-16.0919 2.82121,-27.7079 z m -12.92674,-49.56315 c -8.43521,-16.31186 -11.17148,-15.04585 -3.27422,1.51492 3.51238,7.3655 7.06783,12.71005 7.90103,11.87685 0.83321,-0.8332 -1.24884,-6.85951 -4.62681,-13.39177 z m -196.47936,5.2037 c 1.31132,-3.41729 0.66759,-4.95867 -1.50916,-3.61336 -2.0878,1.29032 -3.79603,3.97209 -3.79603,5.95945 0,5.52357 2.7524,4.3064 5.30519,-2.34609 z m 229.40356,-23.51255 c -4.52675,-7.78448 -5.61988,-5.29286 -1.91436,4.36355 1.31689,3.4318 3.20329,5.43076 4.19198,4.44207 0.98868,-0.98868 -0.0346,-4.95122 -2.27762,-8.80562 z m -203.98875,-10.848 c 7.1646,-7.392 12.16255,-13.44 11.10655,-13.44 -1.056,0 -7.78195,6.048 -14.94655,13.44 -7.16459,7.392 -12.16255,13.44 -11.10655,13.44 1.056,0 7.78196,-6.048 14.94655,-13.44 z m 155.15516,5.19783 c -9.50868,-10.71364 -36.12584,-30.15783 -41.28311,-30.15783 -2.20861,0 3.66666,4.92254 13.05615,10.93893 9.38949,6.01644 20.3636,14.65644 24.38696,19.2 4.02332,4.54361 8.17916,8.26107 9.23516,8.26107 1.056,0 -1.37184,-3.70898 -5.39516,-8.24217 z m 29.16484,-12.40766 c 0,-0.79737 -3.024,-3.82137 -6.72,-6.72 -6.09047,-4.77646 -6.22629,-4.64064 -1.44983,1.44983 5.01646,6.39648 8.16983,8.43065 8.16983,5.27017 z m 0.48484,-16.08597 c -7.25741,-9.22631 -34.19655,-32.3842 -37.6719,-32.3842 -1.7409,0 42.21055,41.8767 44.18576,42.1 0.6813,0.0772 -2.24993,-4.29512 -6.51386,-9.7158 z m -144.48484,-1.6642 c 5.06396,-2.17606 5.71799,-3.37211 1.92,-3.5113 -3.168,-0.11612 -8.352,1.46398 -11.52,3.5113 -7.0194,4.53627 -0.9565,4.53627 9.6,0 z m 69.09281,-3.79601 c 1.34531,-2.17675 -0.19622,-2.82051 -3.61336,-1.50917 -6.65249,2.5528 -7.86966,5.30518 -2.34609,5.30518 1.98736,0 4.66914,-1.70821 5.95945,-3.79601 z m 59.54719,2.31765 c 0,-0.8131 -4.752,-4.37165 -10.56,-7.90791 l -10.56,-6.42954 9.06539,7.9079 c 8.84633,7.7168 12.05461,9.42799 12.05461,6.42955 z M 490.48,373.99999 c -1.27599,-1.276 -4.58803,-1.41242 -7.36001,-0.30317 -3.06328,1.22583 -2.15339,2.13575 2.32001,2.32 4.04798,0.16674 6.316,-0.74084 5.04,-2.01684 z m 68.46605,-15.08212 c -4.09966,-3.10084 -9.28366,-5.57664 -11.52,-5.50181 -2.23634,0.0748 0.25382,2.60561 5.53394,5.62393 12.43872,7.11063 15.46694,7.04885 5.98606,-0.12211 z m 182.15577,-31.4132 c -4.1841,-6.52527 -4.29247,-6.5169 -2.19179,0.16938 1.21547,3.86874 2.34639,9.05274 2.51312,11.52 0.21888,3.23774 0.82864,3.1906 2.19176,-0.16938 1.03876,-2.56043 -0.0922,-7.74443 -2.51309,-11.52 z m 8.16691,-11.37666 c -4.52674,-7.78452 -5.61987,-5.29289 -1.91435,4.36353 1.31689,3.43182 3.20329,5.43076 4.19197,4.44208 0.98869,-0.98868 -0.0346,-4.95121 -2.27762,-8.80561 z m -15.12476,-5.92002 c -2.75543,-2.75544 -4.54398,-2.98216 -4.54398,-0.576 0,5.12556 4.54122,9.66678 7.104,7.104 1.09121,-1.0912 -0.0607,-4.0288 -2.56002,-6.528 z m 4.36762,-17.408 c -5.1312,-14.56556 -49.47525,-66.85753 -62.6958,-73.93293 -3.35819,-1.79727 5.55633,8.60448 19.81014,23.11499 14.25377,14.51052 29.49216,33.39267 33.86304,41.96035 8.10739,15.89178 13.29462,20.98413 9.02262,8.85759 z m -31.29016,-26.88 c -6.32717,-7.92 -17.27236,-19.86087 -24.32268,-26.53527 -13.2882,-12.5797 -56.06223,-39.67753 -62.65847,-39.69485 -2.06784,-0.005 9.35524,7.66733 25.38467,17.05057 18.54347,10.85493 36.56152,25.52083 49.53588,40.32 22.67885,25.86859 29.86744,31.14923 12.0606,8.85955 z m -42.90144,-54.10362 c 0,-1.77299 -4.752,-5.27635 -10.56,-7.78524 l -10.56,-4.56162 9.6,7.69986 c 10.98727,8.81256 11.52,9.02744 11.52,4.647 z m -28.57394,-18.0185 c -4.09966,-3.10083 -9.28366,-5.57664 -11.52,-5.5018 -2.23634,0.0748 0.25382,2.60561 5.53394,5.62393 12.43872,7.11062 15.46694,7.04884 5.98606,-0.12212 z M 77.768381,451.19999 c 0.04262,-8.448 0.828999,-11.45184 1.7475,-6.67522 0.918501,4.77661 0.88363,11.68861 -0.07749,15.36 -0.961125,3.67138 -1.712628,-0.23678 -1.670008,-8.68478 z m 3.477934,-28.8 c 0,-5.28 0.871576,-7.44 1.936842,-4.8 1.065262,2.64 1.065262,6.96 0,9.6 -1.065266,2.64 -1.936842,0.48 -1.936842,-4.8 z M 881.75438,358.89154 c -3.70553,-9.65642 -2.61239,-12.14805 1.91435,-4.36354 2.24137,3.85441 3.2663,7.81693 2.27762,8.80562 -0.98868,0.98868 -2.87508,-1.01026 -4.19197,-4.44208 z m -25.44227,-61.31223 c -2.2345,-5.8772 -4.97683,-12.16485 -6.09404,-13.97256 -1.11725,-1.80772 -1.10972,-3.28676 0.0167,-3.28676 3.35305,0 14.51163,23.57362 12.23582,25.84942 -1.15262,1.15264 -3.92394,-2.71291 -6.15844,-8.5901 z m -15.35213,-28.77932 c -2.26061,-4.224 -3.24622,-7.68 -2.19022,-7.68 1.056,0 3.76961,3.456 6.03022,7.68 2.26061,4.224 3.24622,7.68 2.19022,7.68 -1.056,0 -3.76961,-3.456 -6.03022,-7.68 z m -12.00983,-18.24 c -4.77646,-6.09045 -4.64064,-6.22627 1.44983,-1.44981 6.39648,5.01646 8.43065,8.16981 5.27017,8.16981 -0.79737,0 -3.82137,-3.024 -6.72,-6.72 z m -24.835,-32.63999 -7.31517,-8.64 8.64,7.31515 c 8.11945,6.87444 10.38813,9.96485 7.31517,9.96485 -0.72868,0 -4.61668,-3.888 -8.64,-8.64 z m -51.965,-51.84 c -4.77646,-6.09046 -4.64064,-6.22628 1.44983,-1.44981 6.39648,5.01645 8.43065,8.16981 5.27017,8.16981 -0.79737,0 -3.82137,-3.024 -6.72,-6.72 z M 234.24,159.83019 c 0,-0.7974 3.024,-3.8214 6.72,-6.72 6.09045,-4.77647 6.22627,-4.64065 1.44981,1.44981 -5.01646,6.39647 -8.16981,8.43064 -8.16981,5.27019 z M 732.95015,150.72 c -4.77646,-6.09046 -4.64064,-6.22628 1.44984,-1.44981 6.39647,5.01645 8.43064,8.16981 5.27016,8.16981 -0.79737,0 -3.82137,-3.024 -6.72,-6.72 z m -45.59016,-27.84 c -3.46096,-2.23665 -3.93458,-3.74587 -1.18664,-3.7812 2.51535,-0.0323 5.64134,1.6692 6.94664,3.7812 2.94643,4.76745 1.6171,4.76745 -5.76,0 z m -387.84,-5.72351 c 0,-2.62758 23.51199,-14.28451 25.26864,-12.52786 0.83321,0.83321 -4.51138,4.38867 -11.87686,7.90102 -7.36548,3.51235 -13.39178,5.59443 -13.39178,4.62684 z M 348.8885,93.589054 c 7.08868,-3.093454 18.32068,-6.468806 24.96,-7.500783 6.63932,-1.031977 1.70349,1.614539 -10.96851,5.881148 -26.71749,8.995671 -32.40151,9.653641 -13.99149,1.619635 z m 276.31149,-0.212198 c 2.77198,-1.109265 6.08398,-0.972841 7.36001,0.303168 1.27599,1.276001 -0.99203,2.183581 -5.04,2.016844 -4.47341,-0.184243 -5.3833,-1.094173 -2.32001,-2.320001 z m -234.24,-11.52 c 2.77198,-1.109265 6.08398,-0.972841 7.36001,0.303168 1.276,1.276001 -0.99202,2.183581 -5.04,2.016845 -4.4734,-0.184244 -5.38329,-1.094174 -2.32001,-2.320002 z m 192,0 c 2.77198,-1.109265 6.08398,-0.972841 7.36001,0.303168 1.27599,1.276001 -0.99202,2.183581 -5.04,2.016845 -4.47341,-0.184244 -5.38329,-1.094174 -2.32001,-2.320002 z"
         id="path1158" />
      <path
         style="fill:#f5886a;stroke-width:3.84"
         d="M 470.39999,913.95619 C 406.57608,909.11476 360.92185,897.89904 320.91367,877.23235 262.95859,847.29495 222.7836,818.65135 184.32,779.84504 155.27461,750.54085 144.17908,735.99666 129.87668,708.47999 108.9209,668.16271 98.528277,641.35302 90.429963,606.71999 83.59719,577.49912 83.136509,570.87643 88.15229,573.97635 c 2.019759,1.24827 2.698883,4.80626 1.509162,7.90663 -1.18972,3.10034 -0.06538,5.63701 2.498546,5.63701 2.563922,0 3.731858,2.42308 2.595418,5.38456 -1.136441,2.96152 -0.889317,6.56152 0.549162,8.00003 1.438479,1.43846 2.83142,4.19942 3.09542,6.13539 0.264,1.93602 0.912,4.38402 1.44,5.44002 0.528002,1.056 1.392002,3.648 1.920002,5.76 0.528,2.112 1.392,4.704 1.92,5.76 0.528,1.056 1.23226,3.216 1.56502,4.8 2.16652,10.31293 40.04565,76.30659 55.81115,97.23509 24.74303,32.84609 68.22999,73.93889 101.99715,96.38174 25.81754,17.15927 77.81168,42.05487 97.90667,46.87925 5.8363,1.40118 4.33082,-0.0457 -3.84,-3.69012 -7.392,-3.29722 -25.536,-11.39328 -40.32,-17.99132 C 208.17034,799.13386 124.10793,696.3687 94.617809,575.99999 c -5.500308,-22.45041 -6.522796,-45.10625 -6.468111,-143.3174 0.0038,-6.83201 1.550523,-9.88282 4.184993,-8.25462 2.316077,1.4314 3.789953,0.27111 3.306317,-2.60263 -0.479954,-2.85193 1.202999,-10.23533 3.739899,-16.40756 2.536903,-6.17222 3.619483,-13.81006 2.405753,-16.97299 -1.21373,-3.16293 -0.79474,-6.75294 0.9311,-7.97779 2.78473,-1.97637 12.51599,-24.50222 28.33384,-65.58701 2.84596,-7.392 4.72079,-14.86444 4.16629,-16.60542 -0.5545,-1.74099 0.63823,-2.1479 2.6505,-0.90424 3.26444,2.01754 6.81155,-4.23421 8.58462,-15.13034 0.34368,-2.112 2.61275,-5.568 5.04238,-7.68 10.91066,-9.4843 32.87363,-40.35791 31.93894,-44.89698 -0.56888,-2.76266 0.89628,-4.66748 3.25593,-4.23293 2.35964,0.43455 8.27685,-3.45345 13.14936,-8.64 4.87251,-5.18655 7.48231,-9.43008 5.79955,-9.43008 -1.68275,0 -0.92417,-2.57298 1.68574,-5.71773 2.6099,-3.14474 6.1034,-4.87835 7.76333,-3.85246 1.65993,1.02589 7.99225,-3.74513 14.07184,-10.60227 6.07958,-6.85715 15.69869,-14.88798 21.37579,-17.84629 5.67711,-2.9583 9.38854,-6.88912 8.24764,-8.73514 -1.1409,-1.84602 -0.60615,-2.88158 1.18834,-2.30126 5.42796,1.75537 50.62709,-29.19187 48.25085,-33.03671 -1.21513,-1.96612 -0.2658,-2.3736 2.10962,-0.90551 5.22788,3.23101 43.62486,-12.6403 40.97053,-16.93509 -1.0304,-1.66722 1.58493,-2.12693 5.81184,-1.02156 4.46868,1.16858 7.6853,0.12024 7.6853,-2.50474 0,-2.48297 1.42327,-3.63487 3.16281,-2.55977 1.73955,1.0751 14.26755,-1.719576 27.84001,-6.210395 21.3658,-7.069459 34.3387,-8.226558 96.67718,-8.622958 41.14963,-0.261657 72,1.04291 72,3.044679 0,1.926382 4.2677,2.68669 9.4838,1.689573 5.21606,-0.997118 8.74994,-0.625586 7.85307,0.82563 -0.89691,1.451213 8.22739,5.69151 20.2762,9.422881 33.99018,10.52636 88.46403,38.3488 116.03834,59.26645 52.66898,39.95425 104.03624,100.42528 129.62331,152.59633 5.47999,11.17345 11.21583,19.54145 12.7463,18.59555 1.53051,-0.9459 1.93114,1.53672 0.89031,5.51693 -1.04087,3.98022 0.64696,12.1906 3.75068,18.2453 3.10372,6.05471 9.6235,26.56055 14.48839,45.56855 12.54229,49.0047 11.82648,111.74369 -1.89235,165.86419 -5.43556,21.4431 -8.72859,41.99528 -7.31788,45.67154 1.87749,4.89262 1.21163,5.84774 -2.48437,3.56348 -3.82756,-2.36555 -4.58423,-0.68778 -3.1273,6.93385 1.20473,6.30198 0.45236,9.14619 -2.0158,7.62079 -2.3924,-1.4786 -2.9755,0.0741 -1.48578,3.95623 1.34861,3.51445 0.83252,6.38992 -1.14693,6.38992 -1.97944,0 -2.49554,2.87547 -1.14693,6.38991 1.5355,4.00143 0.92586,5.44673 -1.63089,3.86657 -2.31125,-1.42848 -5.12801,1.6406 -6.49144,7.0729 -3.2822,13.07727 -34.44219,65.30511 -51.16669,85.76144 -33.39878,40.85123 -84.50043,79.83318 -134.61389,102.68771 -17.33475,7.90564 -30.81323,15.07837 -29.95215,15.93945 3.30559,3.30563 61.03991,-26.21883 88.80875,-45.41541 46.49246,-32.14018 93.4689,-81.15805 122.17644,-127.48573 16.79389,-27.10164 15.48249,-16.46116 -2.36971,19.22773 -24.97885,49.93581 -74.30515,103.96112 -138.11761,151.27518 -37.3086,27.66267 -60.31373,39.82061 -90.23136,47.68623 -28.02305,7.36754 -90.46445,9.8089 -145.02451,5.67022 z m 65.28,-26.93122 c 18.02358,-2.36364 13.63657,-2.75098 -20.14929,-1.77907 -37.18429,1.06967 -93.11416,-3.65396 -133.45071,-11.27075 -6.336,-1.19643 -3.94624,0.34637 5.31057,3.42881 34.07416,11.34574 101.68711,15.73244 148.28943,9.62101 z m 51.84,-7.66499 c 9.36127,-2.998 9.31353,-3.07726 -1.92,-3.18731 -6.336,-0.0622 -14.976,1.37218 -19.2,3.18731 -6.98139,3 -6.80675,3.28996 1.92,3.18732 5.28,-0.0622 13.92,-1.49637 19.2,-3.18732 z m 26.88,-7.68 c 7.0194,-4.53627 0.9565,-4.53627 -9.6,0 -5.06396,2.17605 -5.71799,3.3721 -1.92,3.5113 3.168,0.11597 8.352,-1.46396 11.52,-3.5113 z M 259.55302,687.34013 c -9.88785,-10.5709 -23.08295,-30.0109 -29.32244,-43.2 -11.51198,-24.33411 -15.87439,-26.08312 -5.90904,-2.36908 7.06539,16.81313 27.45057,45.21765 40.19754,56.01085 15.93688,13.49414 14.39946,10.26155 -4.96606,-10.44177 z M 287.68,697.79338 c -0.88001,-0.59762 -5.05601,-3.62162 -9.28001,-6.72 -7.10402,-5.21092 -7.28475,-5.12943 -2.40981,1.08661 2.8986,3.696 7.0746,6.72 9.28,6.72 2.2054,0 3.28981,-0.48899 2.40982,-1.08661 z m -18.88001,-15.59823 c 0,-0.72868 -3.888,-4.61668 -8.64,-8.64 l -8.64,-7.31516 7.31516,8.64 c 6.87444,8.11945 9.96484,10.38812 9.96484,7.31516 z m -25.74903,-38.88784 c -5.66807,-11.55697 -10.94948,-20.36881 -11.73645,-19.58184 -1.72511,1.72512 17.64371,40.59452 20.22845,40.59452 0.99747,0 -2.82393,-9.4557 -8.492,-21.01268 z m 286.86903,-25.06732 c 3.168,-2.04734 4.032,-3.72238 1.92,-3.72238 -2.112,0 -6.432,1.67504 -9.6,3.72238 -3.168,2.04733 -4.032,3.72238 -1.92,3.72238 2.112,0 6.432,-1.67505 9.6,-3.72238 z m -300.81684,-12.48 c -1.06526,-2.64 -1.93684,-0.48 -1.93684,4.8 0,5.28 0.87158,7.44 1.93684,4.8 1.06527,-2.64 1.06527,-6.96 0,-9.6 z m 328.18667,-9.6 c 4.77646,-6.09047 4.64064,-6.22629 -1.44983,-1.44983 -3.696,2.89862 -6.72,5.92262 -6.72,6.72 0,3.16047 3.15337,1.12631 8.16983,-5.27017 z m 25.64855,-37.54161 c -1.1823,-1.1823 -3.32947,0.9489 -4.77151,4.73599 -2.08389,5.47277 -1.64283,5.91383 2.14963,2.14963 2.62434,-2.60482 3.80418,-5.70332 2.62188,-6.88562 z m 8.304,-19.09839 c 0,-2.112 -1.67505,-1.248 -3.72238,1.92 -2.04734,3.168 -3.72238,7.488 -3.72238,9.6 0,2.112 1.67504,1.248 3.72238,-1.92 2.04733,-3.168 3.72238,-7.488 3.72238,-9.6 z m -202.9584,-21.49701 c -2.35618,-6.75898 -4.5193,-17.64718 -4.80692,-24.19599 -0.43675,-9.94468 -0.80938,-10.39008 -2.26103,-2.70264 -1.79696,9.5161 6.2672,44.27244 9.51783,41.02176 1.00877,-1.00873 -0.0937,-7.36416 -2.44988,-14.12313 z m 205.69916,7.33701 c -1.2258,-3.06328 -2.13573,-2.1534 -2.31997,2.32001 -0.16666,4.04798 0.74081,6.316 2.01684,5.04 1.27599,-1.27603 1.41239,-4.58803 0.30298,-7.36001 z m 8.56815,-41.52 c 0.11597,-11.616 -1.05842,-23.10712 -2.61008,-25.53585 -1.55167,-2.42872 -2.82121,10.03984 -2.82121,27.70791 0,17.66807 1.17454,29.15923 2.61008,25.53584 1.43559,-3.62334 2.70513,-16.0919 2.82121,-27.7079 z m -12.92674,-49.56315 c -8.43521,-16.31186 -11.17148,-15.04585 -3.27422,1.51492 3.51238,7.3655 7.06783,12.71005 7.90103,11.87685 0.83321,-0.8332 -1.24884,-6.85951 -4.62681,-13.39177 z m -196.47936,5.2037 c 1.31132,-3.41729 0.66759,-4.95867 -1.50916,-3.61336 -2.0878,1.29032 -3.79603,3.97209 -3.79603,5.95945 0,5.52357 2.7524,4.3064 5.30519,-2.34609 z m 229.40356,-23.51255 c -4.52675,-7.78448 -5.61988,-5.29286 -1.91436,4.36355 1.31689,3.4318 3.20329,5.43076 4.19198,4.44207 0.98868,-0.98868 -0.0346,-4.95122 -2.27762,-8.80562 z m -203.98875,-10.848 c 7.1646,-7.392 12.16255,-13.44 11.10655,-13.44 -1.056,0 -7.78195,6.048 -14.94655,13.44 -7.16459,7.392 -12.16255,13.44 -11.10655,13.44 1.056,0 7.78196,-6.048 14.94655,-13.44 z m 155.15516,5.19783 c -9.50868,-10.71364 -36.12584,-30.15783 -41.28311,-30.15783 -2.20861,0 3.66666,4.92254 13.05615,10.93893 9.38949,6.01644 20.3636,14.65644 24.38696,19.2 4.02332,4.54361 8.17916,8.26107 9.23516,8.26107 1.056,0 -1.37184,-3.70898 -5.39516,-8.24217 z m 29.16484,-12.40766 c 0,-0.79737 -3.024,-3.82137 -6.72,-6.72 -6.09047,-4.77646 -6.22629,-4.64064 -1.44983,1.44983 5.01646,6.39648 8.16983,8.43065 8.16983,5.27017 z m 0.48484,-16.08597 c -7.25741,-9.22631 -34.19655,-32.3842 -37.6719,-32.3842 -1.7409,0 42.21055,41.8767 44.18576,42.1 0.6813,0.0772 -2.24993,-4.29512 -6.51386,-9.7158 z m -144.48484,-1.6642 c 5.06396,-2.17606 5.71799,-3.37211 1.92,-3.5113 -3.168,-0.11612 -8.352,1.46398 -11.52,3.5113 -7.0194,4.53627 -0.9565,4.53627 9.6,0 z m 69.09281,-3.79601 c 1.34531,-2.17675 -0.19622,-2.82051 -3.61336,-1.50917 -6.65249,2.5528 -7.86966,5.30518 -2.34609,5.30518 1.98736,0 4.66914,-1.70821 5.95945,-3.79601 z m 59.54719,2.31765 c 0,-0.8131 -4.752,-4.37165 -10.56,-7.90791 l -10.56,-6.42954 9.06539,7.9079 c 8.84633,7.7168 12.05461,9.42799 12.05461,6.42955 z M 490.48,373.99999 c -1.27599,-1.276 -4.58803,-1.41242 -7.36001,-0.30317 -3.06328,1.22583 -2.15339,2.13575 2.32001,2.32 4.04798,0.16674 6.316,-0.74084 5.04,-2.01684 z m 68.46605,-15.08212 c -4.09966,-3.10084 -9.28366,-5.57664 -11.52,-5.50181 -2.23634,0.0748 0.25382,2.60561 5.53394,5.62393 12.43872,7.11063 15.46694,7.04885 5.98606,-0.12211 z m 182.15577,-31.4132 c -4.1841,-6.52527 -4.29247,-6.5169 -2.19179,0.16938 1.21547,3.86874 2.34639,9.05274 2.51312,11.52 0.21888,3.23774 0.82864,3.1906 2.19176,-0.16938 1.03876,-2.56043 -0.0922,-7.74443 -2.51309,-11.52 z m 8.16691,-11.37666 c -4.52674,-7.78452 -5.61987,-5.29289 -1.91435,4.36353 1.31689,3.43182 3.20329,5.43076 4.19197,4.44208 0.98869,-0.98868 -0.0346,-4.95121 -2.27762,-8.80561 z m -15.12476,-5.92002 c -2.75543,-2.75544 -4.54398,-2.98216 -4.54398,-0.576 0,5.12556 4.54122,9.66678 7.104,7.104 1.09121,-1.0912 -0.0607,-4.0288 -2.56002,-6.528 z m 4.36762,-17.408 c -5.1312,-14.56556 -49.47525,-66.85753 -62.6958,-73.93293 -3.35819,-1.79727 5.55633,8.60448 19.81014,23.11499 14.25377,14.51052 29.49216,33.39267 33.86304,41.96035 8.10739,15.89178 13.29462,20.98413 9.02262,8.85759 z m -31.29016,-26.88 c -6.32717,-7.92 -17.27236,-19.86087 -24.32268,-26.53527 -13.2882,-12.5797 -56.06223,-39.67753 -62.65847,-39.69485 -2.06784,-0.005 9.35524,7.66733 25.38467,17.05057 18.54347,10.85493 36.56152,25.52083 49.53588,40.32 22.67885,25.86859 29.86744,31.14923 12.0606,8.85955 z m -42.90144,-54.10362 c 0,-1.77299 -4.752,-5.27635 -10.56,-7.78524 l -10.56,-4.56162 9.6,7.69986 c 10.98727,8.81256 11.52,9.02744 11.52,4.647 z m -28.57394,-18.0185 c -4.09966,-3.10083 -9.28366,-5.57664 -11.52,-5.5018 -2.23634,0.0748 0.25382,2.60561 5.53394,5.62393 12.43872,7.11062 15.46694,7.04884 5.98606,-0.12212 z M 80.6988,557.75999 c 0.04278,-7.68534 0.991415,-9.08679 3.484723,-5.14821 1.884254,2.97646 2.536919,7.72846 1.450361,10.56 -3.116003,8.12014 -4.998935,6.05533 -4.935084,-5.41179 z m -3.00791,-24 c 0,-7.392 0.790253,-10.416 1.75612,-6.72 0.965864,3.696 0.965864,9.744 0,13.44 -0.965867,3.696 -1.75612,0.672 -1.75612,-6.72 z"
         id="path1156" />
      <path
         style="fill:#f26c82;stroke-width:3.84"
         d="M 470.39999,913.95619 C 406.57608,909.11476 360.92185,897.89904 320.91367,877.23235 262.95859,847.29495 222.7836,818.65135 184.32,779.84504 155.27461,750.54085 144.17908,735.99666 129.87668,708.47999 108.9209,668.16271 98.528277,641.35302 90.429963,606.71999 c -6.90225,-29.518 -7.299736,-35.84744 -2.047327,-32.60129 2.146449,1.32656 2.90847,4.02055 1.693375,5.98663 -1.215095,1.96604 -0.859872,5.73466 0.789381,8.37466 1.649253,2.64 3.346138,7.09494 3.770857,9.89986 0.424719,2.80493 2.052069,7.98893 3.616335,11.52 1.564266,3.53108 3.209356,7.71614 3.655766,9.30014 0.44641,1.584 1.24365,3.744 1.77165,4.8 0.528,1.056 1.26151,3.216 1.63004,4.8 0.36852,1.584 7.29904,15.84 15.40116,31.68 45.68541,89.31705 118.51792,158.66564 206.45131,196.57581 111.05363,47.87785 239.65565,44.38011 346.75748,-9.43115 67.50236,-33.91526 132.41921,-93.29291 172.22319,-157.52782 16.79389,-27.10164 15.48249,-16.46116 -2.36971,19.22773 -24.97885,49.93581 -74.30515,103.96112 -138.11761,151.27518 -37.3086,27.66267 -60.31373,39.82061 -90.23136,47.68623 -28.02305,7.36754 -90.46445,9.8089 -145.02451,5.67022 z M 266.15673,693.4667 c -24.57851,-22.0982 -43.33178,-56.98714 -46.17686,-85.90833 -2.69632,-27.40895 0.0833,-25.29653 8.06814,6.13149 7.72297,30.39736 21.7355,54.53875 44.08911,75.95865 23.27488,22.30268 18.1898,25.54929 -5.98039,3.81819 z m 200.62529,-73.27645 c -32.60778,-11.616 -58.41715,-42.26489 -73.40621,-87.17065 -9.36092,-28.04448 -9.63107,-31.10773 -5.33468,-60.49102 3.384,-23.14333 7.50144,-35.44332 16.3228,-48.76116 31.02843,-46.84437 100.19632,-60.22633 146.52849,-28.34896 30.30036,20.84721 43.85349,47.17029 44.91598,87.23658 1.64025,61.85438 -33.69681,119.79855 -84.00396,137.7461 -18.34348,6.5442 -26.16261,6.50761 -45.02242,-0.21082 z M 81.388603,558.71999 c 0.07826,-6.336 0.938872,-8.46313 1.912481,-4.72693 0.973605,3.73621 0.909577,8.92021 -0.142272,11.52 -1.05188,2.5998 -1.848469,-0.45707 -1.770209,-6.79307 z m -3.697713,-24.96 c 0,-7.392 0.790253,-10.416 1.75612,-6.72 0.965864,3.696 0.965864,9.744 0,13.44 -0.965867,3.696 -1.75612,0.672 -1.75612,-6.72 z m 537.2715,-112.03434 c -7.44234,-21.84108 -29.7239,-48.20021 -51.03014,-60.3687 -10.6338,-6.07323 -17.70555,-12.0488 -15.71497,-13.27906 5.28231,-3.26465 35.39413,16.94546 49.87089,33.47178 13.83244,15.79079 24.95032,39.19563 22.96865,48.35261 -0.70794,3.27122 -3.44483,-0.40075 -6.09443,-8.17663 z m 126.56917,-95.04223 c -17.92144,-49.15127 -58.17846,-94.7353 -105.92329,-119.93958 -29.40426,-15.52239 -29.36798,-23.2253 0.0396,-8.38144 28.35299,14.3116 57.45827,37.4969 75.12008,59.84079 24.16608,30.57243 52.3981,91.2368 42.45976,91.2368 -1.86924,0 -7.13249,-10.24046 -11.6961,-22.75657 z"
         id="path1154" />
      <path
         style="fill:#a19c9b;stroke-width:3.84"
         d="M 470.39999,913.95619 C 406.57608,909.11476 360.92185,897.89904 320.91367,877.23235 262.95859,847.29495 222.7836,818.65135 184.32,779.84504 155.27461,750.54085 144.17908,735.99666 129.87668,708.47999 108.9209,668.16271 98.528277,641.35302 90.429963,606.71999 c -6.90225,-29.518 -7.299736,-35.84744 -2.047327,-32.60129 2.146449,1.32656 2.90847,4.02055 1.693375,5.98663 -1.215095,1.96604 -0.859872,5.73466 0.789381,8.37466 1.649253,2.64 3.346138,7.09494 3.770857,9.89986 0.424719,2.80493 2.052069,7.98893 3.616335,11.52 1.564266,3.53108 3.209356,7.71614 3.655766,9.30014 0.44641,1.584 1.24365,3.744 1.77165,4.8 0.528,1.056 1.26151,3.216 1.63004,4.8 0.36852,1.584 7.29904,15.84 15.40116,31.68 45.68541,89.31705 118.51792,158.66564 206.45131,196.57581 111.05363,47.87785 239.65565,44.38011 346.75748,-9.43115 67.50236,-33.91526 132.41921,-93.29291 172.22319,-157.52782 16.79389,-27.10164 15.48249,-16.46116 -2.36971,19.22773 -24.97885,49.93581 -74.30515,103.96112 -138.11761,151.27518 -37.3086,27.66267 -60.31373,39.82061 -90.23136,47.68623 -28.02305,7.36754 -90.46445,9.8089 -145.02451,5.67022 z M 266.15673,693.4667 c -24.57851,-22.0982 -43.33178,-56.98714 -46.17686,-85.90833 -2.69632,-27.40895 0.0833,-25.29653 8.06814,6.13149 7.72297,30.39736 21.7355,54.53875 44.08911,75.95865 23.27488,22.30268 18.1898,25.54929 -5.98039,3.81819 z m 200.62529,-73.27645 c -32.60778,-11.616 -58.41715,-42.26489 -73.40621,-87.17065 -9.36092,-28.04448 -9.63107,-31.10773 -5.33468,-60.49102 3.384,-23.14333 7.50144,-35.44332 16.3228,-48.76116 31.02843,-46.84437 100.19632,-60.22633 146.52849,-28.34896 30.30036,20.84721 43.85349,47.17029 44.91598,87.23658 1.64025,61.85438 -33.69681,119.79855 -84.00396,137.7461 -18.34348,6.5442 -26.16261,6.50761 -45.02242,-0.21082 z m 48.59474,-39.66018 c 3.6172,-1.43554 -7.11836,-2.61008 -23.85677,-2.61008 -16.73841,0 -27.47397,1.17454 -23.85677,2.61008 3.61724,1.43559 14.35277,2.61013 23.85677,2.61013 9.504,0 20.23953,-1.17454 23.85677,-2.61013 z M 456.64,574.77376 c -6.10467,-4.67858 -30.40001,-17.35995 -30.40001,-15.86784 0,2.56739 24.16969,17.06212 28.48001,17.07971 1.93598,0.008 2.79998,-0.53745 1.92,-1.21187 z m 87.67999,-6.41169 c 17.33925,-10.57194 15.71704,-13.15633 -1.92,-3.05882 -17.73888,10.15587 -18.45642,10.70023 -14.08001,10.68238 1.93601,-0.008 9.13601,-3.43849 16.00001,-7.62356 z M 414.09357,540.56028 c -4.85614,-6.81984 -11.82939,-21.07584 -15.49613,-31.68 -3.6667,-10.60416 -6.6852,-15.82429 -6.70775,-11.60029 -0.0503,9.44955 13.37415,39.67265 21.71659,48.89096 9.82133,10.85245 10.08103,7.86247 0.48729,-5.61067 z m 156.14642,4.71971 c 3.82268,-4.224 6.08632,-7.68 5.03032,-7.68 -1.056,0 -5.04764,3.456 -8.87032,7.68 -3.82268,4.224 -6.08632,7.68 -5.03032,7.68 1.056,0 5.04764,-3.456 8.87032,-7.68 z m 13.32238,-24.96 c 0,-2.112 -1.67505,-1.248 -3.72238,1.92 -2.04734,3.168 -3.72238,7.488 -3.72238,9.6 0,2.112 1.67504,1.248 3.72238,-1.92 2.04733,-3.168 3.72238,-7.488 3.72238,-9.6 z m -100.66982,5.92493 c -7.91309,-1.53554 -17.50176,-5.22482 -21.3082,-8.1984 -3.8064,-2.97358 -2.8517,-1.51853 2.12156,3.23347 5.8454,5.58532 13.37898,8.48386 21.3082,8.1984 12.21266,-0.43968 12.20344,-0.4537 -2.12156,-3.23347 z m -0.25805,-11.74856 c -5.94305,-1.78391 -12.93646,-4.65938 -15.54098,-6.38991 -2.60452,-1.73058 -1.43862,-0.1225 2.59089,3.57354 4.02954,3.696 11.02299,6.57147 15.54098,6.38995 6.66174,-0.26765 6.17195,-0.94322 -2.59089,-3.57358 z m -23.05137,-27.53637 c -1.2258,-3.06328 -2.13573,-2.1534 -2.31997,2.32001 -0.16666,4.04798 0.74081,6.316 2.01684,5.04 1.276,-1.27603 1.41239,-4.58803 0.30298,-7.36001 z m 85.69686,-85.58139 c 0,-2.82981 -22.05892,-13.5507 -27.64931,-13.43792 -2.74487,0.0553 1.92131,3.37152 10.36931,7.36919 18.41625,8.71468 17.28,8.31563 17.28,6.06873 z M 81.388603,558.71999 c 0.07826,-6.336 0.938872,-8.46313 1.912481,-4.72693 0.973605,3.73621 0.909577,8.92021 -0.142272,11.52 -1.05188,2.5998 -1.848469,-0.45707 -1.770209,-6.79307 z m -3.697713,-24.96 c 0,-7.392 0.790253,-10.416 1.75612,-6.72 0.965864,3.696 0.965864,9.744 0,13.44 -0.965867,3.696 -1.75612,0.672 -1.75612,-6.72 z m 537.2715,-112.03434 c -7.44234,-21.84108 -29.7239,-48.20021 -51.03014,-60.3687 -10.6338,-6.07323 -17.70555,-12.0488 -15.71497,-13.27906 5.28231,-3.26465 35.39413,16.94546 49.87089,33.47178 13.83244,15.79079 24.95032,39.19563 22.96865,48.35261 -0.70794,3.27122 -3.44483,-0.40075 -6.09443,-8.17663 z m 126.56917,-95.04223 c -17.92144,-49.15127 -58.17846,-94.7353 -105.92329,-119.93958 -29.40426,-15.52239 -29.36798,-23.2253 0.0396,-8.38144 28.35299,14.3116 57.45827,37.4969 75.12008,59.84079 24.16608,30.57243 52.3981,91.2368 42.45976,91.2368 -1.86924,0 -7.13249,-10.24046 -11.6961,-22.75657 z"
         id="path1152" />
      <path
         style="fill:#f46479;stroke-width:3.84"
         d="M 495.35999,915.3983 C 451.64094,912.57633 401.83537,905.37383 375.14193,898.01324 319.02846,882.54027 234.96022,830.23744 184.0993,779.1566 156.29199,751.22905 147.9166,739.62177 129.64206,703.6854 114.9689,674.83106 108.75141,658.52055 110.2463,652.80402 c 1.83593,-7.0206 4.50711,-4.02951 16.13413,18.06643 43.28316,82.25499 115.99453,149.63143 201.05442,186.30274 110.76705,47.75432 239.49464,44.20677 346.48514,-9.54854 61.54494,-30.92206 126.86253,-88.32534 165.70959,-145.63108 20.39942,-30.09246 11.82324,-7.01668 -11.53056,31.02513 -45.68487,74.41755 -144.48384,155.07118 -213.89979,174.61505 -21.81957,6.14327 -82.51749,10.10903 -118.83924,7.76455 z M 266.15673,693.4667 c -24.57851,-22.0982 -43.33178,-56.98714 -46.17686,-85.90833 -2.69632,-27.40895 0.0833,-25.29653 8.06814,6.13149 7.72297,30.39736 21.7355,54.53875 44.08911,75.95865 23.27488,22.30268 18.1898,25.54929 -5.98039,3.81819 z m 200.62529,-73.27645 c -32.60778,-11.616 -58.41715,-42.26489 -73.40621,-87.17065 -9.36092,-28.04448 -9.63107,-31.10773 -5.33468,-60.49102 3.384,-23.14333 7.50144,-35.44332 16.3228,-48.76116 31.02843,-46.84437 100.19632,-60.22633 146.52849,-28.34896 30.30036,20.84721 43.85349,47.17029 44.91598,87.23658 1.64025,61.85438 -33.69681,119.79855 -84.00396,137.7461 -18.34348,6.5442 -26.16261,6.50761 -45.02242,-0.21082 z m 48.59474,-39.66018 c 3.6172,-1.43554 -7.11836,-2.61008 -23.85677,-2.61008 -16.73841,0 -27.47397,1.17454 -23.85677,2.61008 3.61724,1.43559 14.35277,2.61013 23.85677,2.61013 9.504,0 20.23953,-1.17454 23.85677,-2.61013 z M 456.64,574.77376 c -6.10467,-4.67858 -30.40001,-17.35995 -30.40001,-15.86784 0,2.56739 24.16969,17.06212 28.48001,17.07971 1.93598,0.008 2.79998,-0.53745 1.92,-1.21187 z m 87.67999,-6.41169 c 17.33925,-10.57194 15.71704,-13.15633 -1.92,-3.05882 -17.73888,10.15587 -18.45642,10.70023 -14.08001,10.68238 1.93601,-0.008 9.13601,-3.43849 16.00001,-7.62356 z M 414.09357,540.56028 c -4.85614,-6.81984 -11.82939,-21.07584 -15.49613,-31.68 -3.6667,-10.60416 -6.6852,-15.82429 -6.70775,-11.60029 -0.0503,9.44955 13.37415,39.67265 21.71659,48.89096 9.82133,10.85245 10.08103,7.86247 0.48729,-5.61067 z m 156.14642,4.71971 c 3.82268,-4.224 6.08632,-7.68 5.03032,-7.68 -1.056,0 -5.04764,3.456 -8.87032,7.68 -3.82268,4.224 -6.08632,7.68 -5.03032,7.68 1.056,0 5.04764,-3.456 8.87032,-7.68 z m 13.32238,-24.96 c 0,-2.112 -1.67505,-1.248 -3.72238,1.92 -2.04734,3.168 -3.72238,7.488 -3.72238,9.6 0,2.112 1.67504,1.248 3.72238,-1.92 2.04733,-3.168 3.72238,-7.488 3.72238,-9.6 z m -100.66982,5.92493 c -7.91309,-1.53554 -17.50176,-5.22482 -21.3082,-8.1984 -3.8064,-2.97358 -2.8517,-1.51853 2.12156,3.23347 5.8454,5.58532 13.37898,8.48386 21.3082,8.1984 12.21266,-0.43968 12.20344,-0.4537 -2.12156,-3.23347 z m -0.25805,-11.74856 c -5.94305,-1.78391 -12.93646,-4.65938 -15.54098,-6.38991 -2.60452,-1.73058 -1.43862,-0.1225 2.59089,3.57354 4.02954,3.696 11.02299,6.57147 15.54098,6.38995 6.66174,-0.26765 6.17195,-0.94322 -2.59089,-3.57358 z m -23.05137,-27.53637 c -1.2258,-3.06328 -2.13573,-2.1534 -2.31997,2.32001 -0.16666,4.04798 0.74081,6.316 2.01684,5.04 1.276,-1.27603 1.41239,-4.58803 0.30298,-7.36001 z m 85.69686,-85.58139 c 0,-2.82981 -22.05892,-13.5507 -27.64931,-13.43792 -2.74487,0.0553 1.92131,3.37152 10.36931,7.36919 18.41625,8.71468 17.28,8.31563 17.28,6.06873 z m 69.6824,20.34705 c -7.44234,-21.84108 -29.7239,-48.20021 -51.03014,-60.3687 -10.6338,-6.07323 -17.70555,-12.0488 -15.71497,-13.27906 5.28231,-3.26465 35.39413,16.94546 49.87089,33.47178 13.83244,15.79079 24.95032,39.19563 22.96865,48.35261 -0.70794,3.27122 -3.44483,-0.40075 -6.09443,-8.17663 z m 126.56917,-95.04223 c -17.92144,-49.15127 -58.17846,-94.7353 -105.92329,-119.93958 -29.40426,-15.52239 -29.36798,-23.2253 0.0396,-8.38144 28.35299,14.3116 57.45827,37.4969 75.12008,59.84079 24.16608,30.57243 52.3981,91.2368 42.45976,91.2368 -1.86924,0 -7.13249,-10.24046 -11.6961,-22.75657 z"
         id="path1150" />
      <path
         style="fill:#e4725b;stroke-width:3.84"
         d="M 495.35999,915.3983 C 451.64094,912.57633 401.83537,905.37383 375.14193,898.01324 319.02846,882.54027 234.96022,830.23744 184.0993,779.1566 156.29199,751.22905 147.9166,739.62177 129.64206,703.6854 114.9689,674.83106 108.75141,658.52055 110.2463,652.80402 c 1.83593,-7.0206 4.50711,-4.02951 16.13413,18.06643 43.28316,82.25499 115.99453,149.63143 201.05442,186.30274 110.76705,47.75432 239.49464,44.20677 346.48514,-9.54854 61.54494,-30.92206 126.86253,-88.32534 165.70959,-145.63108 20.39942,-30.09246 11.82324,-7.01668 -11.53056,31.02513 -45.68487,74.41755 -144.48384,155.07118 -213.89979,174.61505 -21.81957,6.14327 -82.51749,10.10903 -118.83924,7.76455 z M 266.15673,693.4667 c -24.57851,-22.0982 -43.33178,-56.98714 -46.17686,-85.90833 -2.69632,-27.40895 0.0833,-25.29653 8.06814,6.13149 7.72297,30.39736 21.7355,54.53875 44.08911,75.95865 23.27488,22.30268 18.1898,25.54929 -5.98039,3.81819 z m 200.62529,-73.27645 c -20.54753,-7.31973 -32.16411,-16.48086 -49.16398,-38.77191 -13.97733,-18.32782 -33.61805,-67.92015 -33.61805,-84.88481 0,-14.76411 6.61651,-13.08334 8.66665,2.20159 8.26011,61.58381 73.01476,99.82491 133.90437,79.07773 55.12093,-18.78159 81.38434,-84.5596 54.93012,-137.57518 -18.20455,-36.48284 -50.32742,-56.265 -91.25951,-56.20016 -41.48506,0.0657 -73.93275,21.18447 -91.39104,59.48248 -4.80169,10.53335 -7.02843,12.8519 -7.08626,7.37833 -0.13632,-12.90904 23.02683,-44.0726 41.43571,-55.74716 35.98149,-22.8188 84.29741,-22.70906 117.69239,0.26726 30.30036,20.84721 43.85349,47.17029 44.91598,87.23658 1.64025,61.85438 -33.69681,119.79856 -84.00396,137.7461 -18.34348,6.54421 -26.16261,6.50761 -45.02242,-0.21082 z m 3.61797,-98.74829 c -4.224,-2.42246 -9.78505,-7.12189 -12.35789,-10.44322 -5.25496,-6.78375 -6.66194,-34.83875 -1.74716,-34.83875 1.7462,0 2.42915,5.08147 1.51761,11.29213 -1.2333,8.403 0.85716,13.80669 8.17048,21.12 10.52774,10.52775 21.34068,12.34388 33.7983,5.67675 4.26605,-2.28311 8.63301,-3.27452 9.70441,-2.20316 2.43786,2.4379 -19.65055,14.07579 -26.41506,13.9175 -2.74487,-0.0641 -8.44669,-2.09879 -12.67069,-4.52125 z M 388.5886,470.39999 c 0.0783,-6.336 0.93888,-8.46313 1.91247,-4.72692 0.9736,3.7362 0.90958,8.9202 -0.14208,11.52 -1.05189,2.59979 -1.84846,-0.45708 -1.7702,-6.79308 z m 226.37379,-48.67434 c -7.44234,-21.84108 -29.7239,-48.20021 -51.03014,-60.3687 -10.6338,-6.07323 -17.70555,-12.0488 -15.71497,-13.27906 5.28231,-3.26465 35.39413,16.94546 49.87089,33.47178 13.83244,15.79079 24.95032,39.19563 22.96865,48.35261 -0.70794,3.27122 -3.44483,-0.40075 -6.09443,-8.17663 z m 126.56917,-95.04223 c -17.92144,-49.15127 -58.17846,-94.7353 -105.92329,-119.93958 -29.40426,-15.52239 -29.36798,-23.2253 0.0396,-8.38144 28.35299,14.3116 57.45827,37.4969 75.12008,59.84079 24.16608,30.57243 52.3981,91.2368 42.45976,91.2368 -1.86924,0 -7.13249,-10.24046 -11.6961,-22.75657 z"
         id="path1148" />
      <path
         style="fill:#d76654;stroke-width:3.84"
         d="M 495.35999,915.3983 C 451.64094,912.57633 401.83537,905.37383 375.14193,898.01324 319.02846,882.54027 234.96022,830.23744 184.0993,779.1566 c -27.80731,-27.92755 -36.1827,-39.53483 -54.45724,-75.4712 -13.46897,-26.48632 -20.8388,-45.36315 -19.58397,-50.16165 1.57123,-6.00837 5.08874,-1.90452 16.05695,18.73359 83.62967,157.36009 259.945,243.5343 435.60441,212.90185 108.60488,-18.93911 213.32275,-87.87241 277.63956,-182.76357 20.57867,-30.36111 12.21596,-7.61771 -11.25999,30.62308 -45.68487,74.41755 -144.48384,155.07118 -213.89979,174.61505 -21.81957,6.14327 -82.51749,10.10903 -118.83924,7.76455 z M 268.22387,695.14697 c -19.35509,-15.95409 -38.0225,-46.59322 -44.08699,-72.36069 -8.20678,-34.86985 -5.67889,-35.91759 5.52025,-2.28791 11.48546,34.48946 26.1463,58.08011 46.54394,74.89359 7.45182,6.14243 11.82077,11.16803 9.70877,11.16803 -2.112,0 -10.07069,-5.13585 -17.68597,-11.41302 z m 190.65612,-79.42176 c -14.60847,-7.66856 -38.67659,-30.51782 -47.91149,-45.48522 -10.85548,-17.59392 -23.15838,-55.72861 -22.8758,-70.90691 0.23655,-12.70402 0.59931,-12.28611 5.66604,6.52724 6.30382,23.40691 20.52583,46.38385 35.42469,57.23174 51.93454,37.81375 124.54617,21.63437 152.23007,-33.91999 14.05383,-28.20238 13.10543,-9.77468 -1.08042,20.99225 -21.35543,46.31673 -54.0622,72.06558 -91.15369,71.76191 -10.32867,-0.0845 -23.9634,-2.875 -30.2994,-6.20102 z m 11.52,-94.28325 c -4.224,-2.42246 -9.78505,-7.12189 -12.35789,-10.44322 -5.25496,-6.78375 -6.66194,-34.83875 -1.74716,-34.83875 1.7462,0 2.42915,5.08147 1.51761,11.29213 -1.2333,8.403 0.85716,13.80669 8.17048,21.12 10.52774,10.52775 21.34068,12.34388 33.7983,5.67675 4.26605,-2.28311 8.63301,-3.27452 9.70441,-2.20316 2.43786,2.4379 -19.65055,14.07579 -26.41506,13.9175 -2.74487,-0.0641 -8.44669,-2.09879 -12.67069,-4.52125 z M 578.47514,432.60087 C 560.67639,402.22962 535.50826,387.81618 493.43999,383.9025 l -26.88,-2.50071 23.5172,-0.6209 c 13.01579,-0.34364 31.02036,2.02469 40.32,5.30372 19.5782,6.90321 43.09658,28.27907 53.68623,48.79538 10.18038,19.72339 6.38127,18.17952 -5.60828,-2.27912 z M 416.64806,411.48832 c 11.53213,-12.8542 35.66223,-27.56229 44.95895,-27.404 2.72413,0.0465 -2.82302,3.60015 -12.32702,7.89727 -9.504,4.29711 -23.32439,13.33117 -30.71193,20.07567 l -13.43198,12.26273 z m 192.60556,-4.44357 c -11.43944,-19.36546 -26.67997,-35.4263 -44.69814,-47.104 -11.12271,-7.2087 -13.9079,-10.25626 -7.75549,-8.48608 15.09323,4.34267 41.23288,27.53924 52.28498,46.3982 5.54845,9.46771 9.35531,17.94681 8.45971,18.84246 -0.89564,0.8956 -4.62659,-3.44717 -8.29106,-9.65058 z m 132.51006,-83.5647 c -15.84341,-43.4521 -60.88561,-93.88137 -106.46396,-119.19706 -12.55084,-6.97116 -18.49973,-11.5595 -13.21973,-10.19631 44.00736,11.36181 107.301,76.43334 125.37672,128.89846 8.85497,25.70175 3.66244,26.15316 -5.69303,0.49491 z"
         id="path1146" />
      <path
         style="fill:#cb554e;stroke-width:3.84"
         d="M 495.35999,915.3983 C 451.64094,912.57633 401.83537,905.37383 375.14193,898.01324 319.02846,882.54027 234.96022,830.23744 184.0993,779.1566 c -27.86769,-27.98818 -36.16762,-39.50518 -54.61913,-75.78957 -12.77098,-25.11372 -20.78486,-45.32172 -19.40218,-48.92494 1.6757,-4.36681 5.89026,0.47673 14.60097,16.78003 51.17976,95.78991 139.30513,169.15864 242.13187,201.58678 91.5662,28.87692 196.79087,23.29694 288.30441,-15.2885 63.957,-26.96662 141.69162,-91.77619 182.08189,-151.80683 22.1487,-32.9189 15.35332,-12.52462 -9.09811,27.30513 -45.68487,74.41755 -144.48384,155.07118 -213.89979,174.61505 -21.81957,6.14327 -82.51749,10.10903 -118.83924,7.76455 z M 261.25114,687.49112 C 243.37245,669.61243 228.11908,641.26685 224.90465,619.9479 l -2.28397,-15.14791 5.17702,15.36 c 8.59563,25.5029 21.49715,47.84056 37.92415,65.66173 19.39796,21.04431 16.12597,22.26609 -4.47071,1.6694 z m 211.04401,-68.999 c -19.48973,-5.9285 -34.25749,-15.90075 -47.52546,-32.09257 -16.72097,-20.40572 -37.02063,-66.96595 -36.67054,-84.10909 0.23732,-11.62548 0.67734,-11.13473 5.24214,5.84778 6.77368,25.20058 23.72767,48.14431 45.5409,61.63039 24.63518,15.23078 66.05891,18.54198 91.3556,7.30249 23.72421,-10.54084 40.71099,-25.93221 51.5179,-46.67931 14.35568,-27.56006 11.23726,-10.43274 -3.78839,20.80685 -24.9592,51.89234 -67.41715,78.93012 -105.67215,67.29346 z M 461.46934,513.3525 c -5.59634,-5.95703 -8.15965,-13.23744 -7.774,-22.08 0.56505,-12.95612 0.60495,-12.98607 2.22751,-1.67251 3.36618,23.47177 24.45503,35.00525 44.48958,24.33131 7.58212,-4.03956 7.88149,-3.8552 3.11739,1.92 -8.04722,9.75506 -31.87868,8.33922 -42.06048,-2.4988 z M 564.4975,412.81865 c -4.95064,-5.26974 -17.68716,-13.90974 -28.30333,-19.2 -10.61615,-5.29025 -17.16599,-9.61866 -14.55518,-9.61866 8.73604,0 33.12154,14.53087 44.51942,26.52833 6.20314,6.52943 10.39235,11.87167 9.30939,11.87167 -1.08299,0 -6.01962,-4.31159 -10.9703,-9.58134 z m 23.02249,-33.78546 c -19.57578,-21.94437 -19.99696,-22.79607 -5.76,-11.64855 12.06593,9.44762 33.58011,36.72244 28.05711,35.56967 -0.64742,-0.13517 -10.68111,-10.89965 -22.29711,-23.92112 z m -81.36,2.34364 c 2.77198,-1.10926 6.08398,-0.97284 7.36001,0.30317 1.276,1.276 -0.99202,2.18358 -5.04,2.01685 -4.47341,-0.18425 -5.38329,-1.09418 -2.32001,-2.32 z m 233.25511,-66.0198 c -16.44376,-36.46572 -58.35813,-84.64226 -89.66857,-103.06535 -9.07142,-5.33761 -15.61712,-10.58112 -14.54599,-11.65222 4.12469,-4.12471 41.28898,23.75777 64.41772,48.32933 21.87491,23.23955 53.23999,74.65292 48.45915,79.43379 -1.05366,1.05364 -4.95168,-4.81686 -8.66231,-13.04555 z"
         id="path1144" />
      <path
         style="fill:#b5554e;stroke-width:3.84"
         d="M 495.35999,915.3983 C 451.64094,912.57633 401.83537,905.37383 375.14193,898.01324 319.02846,882.54027 234.96022,830.23744 184.0993,779.1566 c -27.86769,-27.98818 -36.16762,-39.50518 -54.61913,-75.78957 -12.77098,-25.11372 -20.78486,-45.32172 -19.40218,-48.92494 1.6757,-4.36681 5.89026,0.47673 14.60097,16.78003 51.17976,95.78991 139.30513,169.15864 242.13187,201.58678 91.5662,28.87692 196.79087,23.29694 288.30441,-15.2885 63.957,-26.96662 141.69162,-91.77619 182.08189,-151.80683 22.1487,-32.9189 15.35332,-12.52462 -9.09811,27.30513 -45.68487,74.41755 -144.48384,155.07118 -213.89979,174.61505 -21.81957,6.14327 -82.51749,10.10903 -118.83924,7.76455 z M 256.44788,680.44576 c -15.57306,-16.64886 -34.25914,-54.18271 -33.43027,-67.14981 0.1637,-2.56078 3.18993,3.12004 6.72498,12.62404 9.92425,26.68139 19.45171,42.85328 34.49983,58.56 7.58792,7.92 12.81798,14.4 11.62237,14.4 -1.19562,0 -9.93323,-8.2954 -19.41691,-18.43423 z m 209.91708,-70.72523 c -5.95692,-4.68573 -13.47579,-8.90769 -16.70861,-9.38216 -15.51176,-2.27662 -58.15949,-63.32148 -57.82606,-82.77074 0.12403,-7.23705 1.15523,-6.45108 5.9068,4.50236 19.55632,45.08168 65.23945,69.58952 113.39977,60.83608 24.2233,-4.40271 43.85,-16.38808 62.68558,-38.27992 12.66643,-14.72167 13.73975,-15.30658 9.36994,-5.10616 -11.69652,27.30336 -41.68362,59.43425 -65.71053,70.40824 -23.15682,10.57655 -37.48094,10.51834 -51.11689,-0.20774 z m -3.8195,-96.90601 c -5.184,-5.184 -9.35785,-12.528 -9.27517,-16.32 0.0918,-4.21095 2.23972,-2.089 5.51839,5.45165 3.21845,7.40229 8.92462,13.10876 14.24966,14.2505 4.8849,1.04736 12.33765,2.63513 16.56165,3.52835 4.46296,0.9438 2.37919,1.81067 -4.97453,2.06953 -8.72356,0.3072 -15.58249,-2.48248 -22.08,-8.98003 z M 722.80011,284.94376 c -13.45205,-20.76002 -37.56622,-46.91248 -60.40012,-65.50559 -9.45812,-7.70151 -11.67134,-10.71845 -5.76,-7.85176 14.37058,6.96898 62.09786,56.8155 72.24568,75.45358 11.86982,21.80082 8.68927,20.70525 -6.08556,-2.09623 z"
         id="path1142" />
      <path
         style="fill:#706f6f;stroke-width:3.84"
         d="M 495.35999,915.3983 C 451.64094,912.57633 401.83537,905.37383 375.14193,898.01324 319.02846,882.54027 234.96022,830.23744 184.0993,779.1566 156.23161,751.16842 147.93168,739.65142 129.48017,703.36703 116.9008,678.63005 108.70379,658.02319 110.04893,654.51781 c 1.60563,-4.18418 7.02411,2.64246 17.48547,22.02958 53.78208,99.66966 146.25726,172.04571 259.81718,203.34685 42.27145,11.65148 136.09494,14.36767 181.03069,5.24079 108.24538,-21.98568 207.53841,-88.07684 268.28486,-178.57504 22.58316,-33.6437 16.1689,-13.83625 -8.56811,26.45871 -45.68487,74.41755 -144.48384,155.07118 -213.89979,174.61505 -21.81957,6.14327 -82.51749,10.10903 -118.83924,7.76455 z M 260.55263,684.47999 c -15.70488,-16.57264 -26.31899,-31.64099 -26.29828,-37.33444 0.008,-2.17006 3.63272,2.10244 8.05516,9.49444 4.42244,7.392 14.27068,19.92 21.88497,27.84 7.61428,7.92 12.98016,14.4 11.92416,14.4 -1.056,0 -8.06071,-6.48 -15.56601,-14.4 z m -31.59824,-49.10846 c -1.31692,-3.43181 -2.28486,-8.25834 -2.15099,-10.72562 0.13386,-2.46723 1.89899,-0.34713 3.92249,4.71157 2.0235,5.05862 2.99145,9.88516 2.15099,10.72562 -0.84046,0.84046 -2.60558,-1.27976 -3.92249,-4.71157 z m 231.82076,-47.59941 c -26.41813,-8.03604 -57.09685,-34.47413 -65.42654,-56.38287 -5.62717,-14.80063 -4.06103,-20.34198 1.88625,-6.67377 7.85856,18.06087 30.08674,40.86559 49.0767,50.34962 40.60074,20.27697 82.63234,13.19632 116.52322,-19.62958 23.13992,-22.41277 26.9121,-23.10559 9.26991,-1.70254 -17.18016,20.84252 -53.46466,37.70861 -80.23802,37.29696 -11.8067,-0.18163 -25.79785,-1.64755 -31.09152,-3.25782 z m 1.77031,-74.9576 c -5.184,-5.184 -9.35627,-11.664 -9.27172,-14.4 0.0845,-2.736 2.72022,-0.24461 5.85708,5.53666 3.23451,5.96122 10.23241,11.50883 16.16625,12.81589 17.17854,3.78397 18.70717,4.85069 7.40839,5.16975 -6.57796,0.18586 -14.38425,-3.34652 -20.16,-9.1223 z M 719.90487,279.35999 c -5.89359,-8.976 -22.10723,-27.47228 -36.03026,-41.10284 -13.92303,-13.63056 -19.88721,-20.99117 -13.25368,-16.3569 15.01947,10.49279 47.06507,45.60555 56.31617,61.7063 10.10073,17.57952 5.45779,14.77578 -7.03223,-4.24656 z"
         id="path1140" />
      <path
         style="fill:#a24437;stroke-width:3.84"
         d="M 499.19999,915.32807 C 390.621,908.68057 343.38448,893.57271 257.27999,837.95369 203.88828,803.46538 132.19906,727.12107 140.53699,713.63 c 1.78593,-2.88971 1.0247,-3.36292 -2.20185,-1.3688 -3.30087,2.04003 -4.30816,1.28394 -3.04635,-2.28669 1.03683,-2.93399 -1.331,-11.74567 -5.26183,-19.58154 -11.73655,-23.39608 -8.09963,-21.9272 6.75208,2.72702 55.03472,91.35909 143.4171,157.23839 250.57254,186.77425 42.27145,11.65148 136.09494,14.36767 181.03069,5.24079 91.534,-18.59143 161.06408,-58.52797 232.78329,-133.70557 l 37.31033,-39.10947 -11.23795,20.94885 c -21.99468,41.0006 -108.4699,122.77109 -160.01891,151.31293 -44.4306,24.60053 -100.57847,34.87518 -168.01904,30.7463 z M 260.55263,684.47999 c -15.70488,-16.57264 -26.31899,-31.64099 -26.29828,-37.33444 0.008,-2.17006 3.63272,2.10244 8.05516,9.49444 4.42244,7.392 14.27068,19.92 21.88497,27.84 7.61428,7.92 12.98016,14.4 11.92416,14.4 -1.056,0 -8.06071,-6.48 -15.56601,-14.4 z m -31.59824,-49.10846 c -1.31692,-3.43181 -2.28486,-8.25834 -2.15099,-10.72562 0.13386,-2.46723 1.89899,-0.34713 3.92249,4.71157 2.0235,5.05862 2.99145,9.88516 2.15099,10.72562 -0.84046,0.84046 -2.60558,-1.27976 -3.92249,-4.71157 z m 231.82076,-47.59941 c -26.41813,-8.03604 -57.09685,-34.47413 -65.42654,-56.38287 -5.62717,-14.80063 -4.06103,-20.34198 1.88625,-6.67377 7.85856,18.06087 30.08674,40.86559 49.0767,50.34962 40.60074,20.27697 82.63234,13.19632 116.52322,-19.62958 23.13992,-22.41277 26.9121,-23.10559 9.26991,-1.70254 -17.18016,20.84252 -53.46466,37.70861 -80.23802,37.29696 -11.8067,-0.18163 -25.79785,-1.64755 -31.09152,-3.25782 z m 1.77031,-74.9576 c -5.184,-5.184 -9.35627,-11.664 -9.27172,-14.4 0.0845,-2.736 2.72022,-0.24461 5.85708,5.53666 3.23451,5.96122 10.23241,11.50883 16.16625,12.81589 17.17854,3.78397 18.70717,4.85069 7.40839,5.16975 -6.57796,0.18586 -14.38425,-3.34652 -20.16,-9.1223 z M 719.90487,279.35999 c -5.89359,-8.976 -22.10723,-27.47228 -36.03026,-41.10284 -13.92303,-13.63056 -19.88721,-20.99117 -13.25368,-16.3569 15.01947,10.49279 47.06507,45.60555 56.31617,61.7063 10.10073,17.57952 5.45779,14.77578 -7.03223,-4.24656 z"
         id="path1138" />
      <path
         style="fill:#933636;stroke-width:3.84"
         d="M 499.19999,915.32807 C 390.621,908.68057 343.38448,893.57271 257.27999,837.95369 203.88828,803.46538 132.19906,727.12107 140.53699,713.63 c 1.78593,-2.88971 1.0247,-3.36292 -2.20185,-1.3688 -3.30087,2.04003 -4.30816,1.28394 -3.04635,-2.28669 1.03683,-2.93399 -1.45154,-11.98199 -5.52971,-20.10666 -4.07817,-8.12463 -6.4303,-15.75663 -5.22696,-16.95997 1.20333,-1.20334 2.18788,-0.3936 2.18788,1.79942 0,7.31877 36.82368,60.3643 57.90373,83.4119 122.6145,134.05912 318.58941,172.32949 482.82624,94.28732 48.42973,-23.01289 85.07639,-50.44362 130.18721,-97.44756 40.27227,-41.96237 40.74263,-42.30655 29.64219,-21.69012 -22.11982,41.08235 -108.55864,122.79728 -160.06034,151.31293 -44.4306,24.60053 -100.57847,34.87518 -168.01904,30.7463 z m -43.2364,-329.45663 c -23.29786,-8.3136 -46.08849,-27.95232 -56.95527,-49.07847 -10.81363,-21.0228 -8.90522,-22.38309 3.64297,-2.59664 31.25361,49.28179 90.20636,66.56236 137.29429,40.24443 9.37002,-5.237 15.91968,-7.71499 14.55486,-5.50664 -1.36485,2.20835 -11.34178,8.14072 -22.171,13.18303 -22.51995,10.48573 -53.2658,11.99727 -76.36585,3.75429 z m 6.58187,-73.05692 c -5.184,-5.184 -9.35627,-11.664 -9.27172,-14.4 0.0845,-2.736 2.72022,-0.24461 5.85708,5.53666 3.23451,5.96122 10.23241,11.50883 16.16625,12.81589 17.17854,3.78397 18.70717,4.85069 7.40839,5.16975 -6.57796,0.18586 -14.38425,-3.34652 -20.16,-9.1223 z M 690.99328,242.88 l -13.23329,-14.4 14.4,13.23328 c 13.40321,12.31725 16.16559,15.56671 13.23329,15.56671 -0.6417,0 -7.1217,-6.48 -14.4,-14.39999 z"
         id="path1136" />
      <path
         style="fill:#4f4e4e;stroke-width:3.84"
         d="M 499.19999,915.32807 C 390.621,908.68057 343.38448,893.57271 257.27999,837.95369 203.88828,803.46538 132.19906,727.12107 140.53699,713.63 c 1.78593,-2.88971 1.0247,-3.36292 -2.20185,-1.3688 -3.30087,2.04003 -4.30816,1.28394 -3.04635,-2.28669 1.03683,-2.93399 -1.5434,-12.24652 -5.73384,-20.69452 -10.20759,-20.57872 -6.9729,-16.92407 15.52795,17.54377 67.7454,103.77553 178.70729,170.35814 307.83561,184.71655 70.04497,7.78863 153.7246,-7.91785 220.36384,-41.36175 46.63373,-23.40384 68.4783,-39.95935 117.1384,-88.77643 45.48472,-45.63148 46.94453,-46.7263 36.47999,-27.35903 -21.85351,40.44537 -108.6786,122.29908 -159.68171,150.53867 -44.4306,24.60053 -100.57847,34.87518 -168.01904,30.7463 z m -18.1872,-326.72359 c 5.83703,-0.88266 14.47703,-0.85905 19.2,0.0522 4.72297,0.91147 -0.0526,1.63362 -10.6128,1.60482 -10.56,-0.0307 -14.42423,-0.77461 -8.5872,-1.65723 z m -39.4128,-10.48792 c -18.31238,-9.58629 -29.07963,-19.81571 -40.62597,-38.59657 -4.10127,-6.67096 0.90517,-2.78776 11.8939,9.22537 10.91743,11.93514 27.16332,24.5578 38.2542,29.72248 10.60285,4.9374 16.68587,8.91356 13.51787,8.83584 -3.168,-0.0776 -13.536,-4.2119 -23.04,-9.18712 z"
         id="path1134" />
      <path
         style="fill:#5c302b;stroke-width:3.84"
         d="m 433.50128,908.05258 c -69.83024,-11.78512 -109.73961,-27.43511 -166.82501,-65.4184 -37.22966,-24.77176 -71.77861,-54.64285 -68.79104,-59.47683 1.12961,-1.82777 -8.80445,-15.20076 -22.0757,-29.7178 -20.68346,-22.62501 -45.3576,-58.39956 -40.2789,-58.39956 0.89212,0 7.83086,9.35116 15.41944,20.78039 20.4787,30.84314 58.27726,69.79499 92.25408,95.06891 59.80461,44.48605 131.11823,71.91152 209.71436,80.65102 35.67651,3.96703 48.16688,3.70898 87.47032,-1.80722 92.22412,-12.9436 164.55766,-46.41504 229.49245,-106.19478 14.80527,-13.62992 32.78607,-30.04592 39.95727,-36.48 l 13.03857,-11.69832 -7.27857,13.37003 c -10.68204,19.62194 -75.53622,83.88441 -110.96924,109.95678 -33.77284,24.85079 -64.82223,40.19367 -99.75172,49.29163 -28.17231,7.33797 -128.08001,7.38117 -171.37631,0.0741 z M 128.4821,687.10451 c -1.39213,-2.2525 -1.70758,-4.91904 -0.70101,-5.92562 1.00657,-1.00658 2.85337,0.83639 4.104,4.09548 2.59655,6.7665 0.38343,7.95671 -3.40299,1.83014 z m 352.53069,-98.50003 c 5.83703,-0.88266 14.47703,-0.85905 19.2,0.0522 4.72297,0.91147 -0.0526,1.63362 -10.6128,1.60482 -10.56,-0.0307 -14.42423,-0.77461 -8.5872,-1.65723 z m -39.4128,-10.48792 c -18.31238,-9.58629 -29.07963,-19.81571 -40.62597,-38.59657 -4.10127,-6.67096 0.90517,-2.78776 11.8939,9.22537 10.91743,11.93514 27.16332,24.5578 38.2542,29.72248 10.60285,4.9374 16.68587,8.91356 13.51787,8.83584 -3.168,-0.0776 -13.536,-4.2119 -23.04,-9.18712 z"
         id="path1132" />
      <path
         style="fill:#2c2a2a;stroke-width:3.84"
         d="m 433.50128,908.05258 c -46.56757,-7.85914 -76.25719,-16.41278 -106.42766,-30.66213 -52.73558,-24.9067 -129.95363,-81.7897 -129.95363,-95.73089 0,-3.28877 0.51832,-5.97958 1.15183,-5.97958 0.6335,0 10.2815,8.11047 21.44,18.02324 121.0027,107.49411 304.70925,130.44879 454.31964,56.76856 42.98296,-21.16831 74.06266,-43.58488 116.30258,-83.88453 26.18096,-24.97836 31.25545,-28.55178 25.35836,-17.85723 -10.8884,19.74635 -75.79223,84.00372 -111.06309,109.95678 -33.77284,24.85079 -64.82223,40.19367 -99.75172,49.29163 -28.17231,7.33797 -128.08001,7.38117 -171.37631,0.0741 z M 168.35585,745.45523 c -15.49246,-17.37738 -32.65466,-42.73524 -28.92323,-42.73524 0.89474,0 6.25578,6.99482 11.9134,15.54408 5.65763,8.54927 16.45633,22.37327 23.99712,30.72 7.54078,8.34674 12.80558,15.17591 11.69954,15.17591 -1.10604,0 -9.51512,-8.41712 -18.68683,-18.70475 z"
         id="path1130" />
      <path
         style="fill:#0a0808;stroke-width:3.84"
         d="M 476.15999,909.95196 C 426.04273,906.33802 369.53673,895.01201 342.67802,883.19699 313.11465,870.19217 283.82,851.22334 288.67007,848.22584 c 4.84112,-2.99198 23.02965,3.92006 20.61144,7.83279 -0.83471,1.35061 1.37947,2.65728 4.92041,2.90373 3.54094,0.24653 21.12607,5.73116 39.07807,12.18824 74.00694,26.6193 162.24699,30.4679 240,10.46769 38.64987,-9.9418 108.56874,-40.96101 131.26379,-58.23456 6.72307,-5.11707 13.85629,-9.30375 15.85164,-9.30375 1.9953,0 5.99857,-3.44574 8.8962,-7.65723 3.411,-4.95763 7.02182,-6.53214 10.24201,-4.46607 3.57834,2.29594 -2.88515,10.17366 -23.04,28.08119 -81.07484,72.03475 -135.95969,88.88264 -260.33364,79.91409 z M 164.82936,742.07998 155.52,731.51999 l 10.56,9.30935 c 9.86991,8.70101 12.32097,11.81064 9.30936,11.81064 -0.68785,0 -5.43985,-4.752 -10.56,-10.56 z"
         id="path1128" />
    </g>
  </g>
</svg>
