<?xml version="1.0" encoding="UTF-8" standalone="no"?>
<!-- Created with Inkscape (http://www.inkscape.org/) -->

<svg
   version="1.1"
   id="svg9"
   width="983.03998"
   height="983.03998"
   viewBox="0 0 983.03998 983.03998"
   sodipodi:docname="icon.svg"
   inkscape:version="1.1.1 (3bf5ae0d25, 2021-09-20)"
   xmlns:inkscape="http://www.inkscape.org/namespaces/inkscape"
   xmlns:sodipodi="http://sodipodi.sourceforge.net/DTD/sodipodi-0.dtd"
   xmlns="http://www.w3.org/2000/svg"
   xmlns:svg="http://www.w3.org/2000/svg">
  <defs
     id="defs13" />
  <sodipodi:namedview
     id="namedview11"
     pagecolor="#ffffff"
     bordercolor="#666666"
     borderopacity="1.0"
     inkscape:pageshadow="2"
     inkscape:pageopacity="0.0"
     inkscape:pagecheckerboard="0"
     showgrid="false"
     inkscape:zoom="0.80769859"
     inkscape:cx="491.51999"
     inkscape:cy="491.51999"
     inkscape:window-width="1920"
     inkscape:window-height="1002"
     inkscape:window-x="-8"
     inkscape:window-y="-8"
     inkscape:window-maximized="1"
     inkscape:current-layer="g15" />
  <g
     inkscape:groupmode="layer"
     inkscape:label="Image"
     id="g15">
    <g
       id="g333"
       transform="translate(4.9523433,-18.571284)">
      <path
         style="fill:#e8d3cf;stroke-width:3.84"
         d="M 453.11999,913.50177 C 372.18891,904.33561 323.95422,886.3108 253.05748,838.74058 212.94961,811.82905 165.9341,768.46029 147.22828,741.11998 84.688057,649.71167 58.55958,520.55162 80.701984,412.2627 99.764369,319.03682 129.35053,262.49184 193.60097,196.49046 255.41502,132.99188 318.27272,95.909547 394.32756,78.073642 c 23.41113,-5.49024 44.73822,-6.97003 97.19243,-6.743739 59.54772,0.256896 71.38917,1.415374 103.98816,10.173466 148.39042,39.866771 266.83883,162.481511 299.46738,310.000941 13.92396,62.95258 6.53565,181.68672 -14.34055,230.46117 -3.19085,7.45497 -10.0714,26.45556 -15.29015,42.22352 -16.08945,48.61283 -40.54165,85.37645 -89.66485,134.81 -95.24881,95.85062 -143.43563,119.25446 -243.49424,118.26278 -27.64615,-0.27398 -63.22575,-1.966 -79.06575,-3.76001 z"
         id="path371" />
      <path
         style="fill:#f0a58f;stroke-width:3.84"
         d="M 470.39999,913.95062 C 425.99972,910.57676 379.99679,902.21689 352.42237,892.51114 328.1524,883.96856 265.70216,847.71066 231.52769,822.32108 181.03949,784.81143 149.81793,747.85477 123.0211,693.88288 91.785149,630.97005 80.585923,584.00616 77.969701,504.95999 76.286875,454.1152 77.173166,441.92493 85.526897,401.01676 111.72669,272.71646 194.51921,167.35601 315.50319,108.35256 c 59.76396,-29.146667 82.47655,-33.496976 174.0968,-33.346041 67.79681,0.111667 80.62637,1.159488 109.44,8.938095 71.85262,19.397516 132.71136,56.553496 189.44413,115.660966 41.10643,42.82705 65.36467,79.45435 85.18648,128.62229 22.48189,55.76627 26.25201,76.87907 26.41628,147.93212 0.13056,56.45656 -0.98949,67.88644 -10.27968,104.90377 -5.73442,22.84907 -12.95505,44.07264 -16.04586,47.16345 -3.09082,3.09082 -6.68602,12.04412 -7.98935,19.89623 -4.27158,25.73465 -12.61993,46.65877 -31.3367,78.54167 -31.52571,53.70225 -121.4655,137.59039 -178.50559,166.4948 -40.50585,20.52587 -100.51595,27.25067 -185.52971,20.79071 z"
         id="path369" />
      <path
         style="fill:#ec9a84;stroke-width:3.84"
         d="M 470.39999,913.95062 C 425.99972,910.57676 379.99679,902.21689 352.42237,892.51114 328.1524,883.96856 265.70216,847.71066 231.52769,822.32108 181.03949,784.81143 149.81793,747.85477 123.0211,693.88288 90.262558,627.90339 80.409994,584.11859 79.213054,499.19999 c -0.498654,-35.37796 0.386151,-57.4244 2.00347,-49.92 1.954679,9.06977 2.34333,5.32382 1.195231,-11.52 -1.17754,-17.27577 -0.531617,-23.18672 2.098103,-19.2 2.689133,4.07681 3.064746,1.93859 1.285356,-7.31708 -1.96648,-10.22884 -1.417897,-12.39963 2.518679,-9.96668 3.389571,2.09487 4.108558,1.61506 2.202147,-1.46961 -5.587084,-9.04009 17.43976,-84.92663 25.76995,-84.92663 2.2187,0 2.96209,-1.07191 1.65197,-2.38204 -3.26979,-3.26978 18.56373,-45.7221 33.73212,-65.58754 6.82966,-8.94452 13.51384,-15.1665 14.85374,-13.8266 1.33989,1.3399 2.43618,0.348 2.43618,-2.20423 0,-2.55222 12.04797,-16.04294 26.77326,-29.97938 14.7253,-13.93644 25.9089,-26.73756 24.85245,-28.44693 -2.02654,-3.27901 13.52833,-13.38446 18.45429,-11.98909 1.584,0.4487 2.448,-1.34418 1.92,-3.98418 -0.528,-2.64 1.2,-4.368 3.84,-3.84 2.63999,0.528 4.79999,-0.58786 4.79999,-2.4797 0,-5.86821 37.82727,-28.08752 42.69545,-25.07882 2.57311,1.59027 3.56389,1.1953 2.26669,-0.90359 -3.07487,-4.97525 19.11811,-17.85263 24.75906,-14.36633 2.58869,1.5999 3.38709,1.055 1.92366,-1.31288 -3.28075,-5.30837 52.28141,-25.644987 62.65426,-22.932426 4.91736,1.28592 6.86101,0.532009 5.2691,-2.043787 -1.69025,-2.734905 1.53792,-3.269237 9.78559,-1.619708 7.33117,1.466239 11.40541,1.001219 10.07585,-1.15003 -1.27941,-2.070178 4.78506,-3.37205 14.20911,-3.050292 13.71065,0.468107 83.86368,0.305625 137.28084,-0.317991 9.95079,-0.11616 11.89321,0.797503 7.68,3.612496 -3.88969,2.598812 -0.99916,2.963105 9.3155,1.17403 10.01341,-1.736828 14.1355,-1.267803 12.4747,1.419421 -1.56438,2.53124 0.57953,3.213193 5.80535,1.846606 4.5572,-1.191728 7.32319,-0.598575 6.14673,1.318111 -1.17647,1.91669 3.30531,3.602342 9.95953,3.745893 14.63409,0.315686 49.15039,12.987157 46.60313,17.108717 -1.00124,1.62005 0.85136,3.97081 4.11694,5.22392 3.90244,1.49751 5.11338,0.64835 3.53318,-2.47762 -1.3223,-2.61581 0.0549,-1.75888 3.06025,1.90429 3.00545,3.66318 6.52236,5.60241 7.81536,4.30942 3.38227,-3.38229 60.27287,32.84399 59.21441,37.70605 -0.48656,2.23522 2.36514,4.60583 6.33719,5.26801 3.97202,0.66219 8.48671,2.61973 10.03262,4.35009 1.54594,1.73037 12.07157,13.51412 23.39032,26.18612 11.31875,12.672 21.8092,22.64629 23.3121,22.16509 4.26939,-1.36699 26.6003,28.51478 25.41865,34.01363 -0.58057,2.7017 1.53642,4.9952 4.70442,5.09666 3.168,0.10145 5.78204,3.08204 5.80896,6.62352 0.0269,3.54148 1.60002,7.85701 3.49567,9.59008 2.00947,1.8371 2.15447,0.74921 0.34752,-2.60898 -2.16718,-4.02805 -1.85249,-4.60537 1.04652,-1.92 7.85733,7.2783 27.9992,49.36461 26.05274,54.43704 -1.07262,2.79562 -0.17464,5.08295 1.99573,5.08295 2.17037,0 2.87816,1.728 1.57286,3.84 -1.30529,2.112 -0.44129,3.84 1.92,3.84 2.3613,0 3.2253,1.728 1.92,3.84 -1.30529,2.112 -0.9221,3.84 0.85152,3.84 4.2192,0 12.94376,23.19853 10.32069,27.44272 -1.11398,1.80251 -0.45845,3.27728 1.45678,3.27728 1.91524,0 3.62896,4.752 3.80825,10.56 0.17933,5.808 2.26229,19.14613 4.62892,29.64027 7.66814,34.00212 5.56416,115.48554 -4.20506,162.85547 -5.02107,24.3466 -10.29105,41.28488 -12.43304,39.96108 -2.17878,-1.34658 -2.82086,1.13226 -1.55105,5.98802 1.1917,4.55715 1.03192,7.59594 -0.3552,6.75279 -1.38705,-0.84311 -9.89134,14.15593 -18.89845,33.33128 -17.0567,36.31223 -17.49077,39.57062 -2.0337,15.26664 7.18733,-11.30092 8.67156,-12.35097 6.8352,-4.83555 -4.25537,17.41524 -29.66158,64.33155 -48.35193,89.2889 -33.7533,45.07089 -112.40264,112.73518 -157.74328,135.71102 -40.50586,20.52587 -100.51596,27.25067 -185.52972,20.79071 z M 83.355881,521.32476 c -0.918502,-4.77661 -1.704876,-1.77277 -1.7475,6.67523 -0.04262,8.448 0.708883,12.35616 1.670005,8.68477 0.961125,-3.67138 0.995996,-10.58338 0.07749,-15.36 z"
         id="path367" />
      <path
         style="fill:#f49376;stroke-width:3.84"
         d="M 470.39999,913.95062 C 425.99972,910.57676 379.99679,902.21689 352.42237,892.51114 328.1524,883.96856 265.70216,847.71066 231.52769,822.32108 215.06746,810.09214 189.15264,786.73043 173.9392,770.40617 123.5195,716.3051 84.035061,619.32352 79.15603,537.59999 c -1.068338,-17.89459 -0.650983,-21.15556 1.474391,-11.52 2.833759,12.84706 2.421251,-4.69098 -1.535439,-65.28 -1.145437,-17.54012 -0.843974,-18.84192 1.778515,-7.68 2.351789,10.00973 2.801534,6.57946 1.762138,-13.44 -0.967638,-18.63736 -0.297408,-24.52496 2.185639,-19.2 2.614015,5.60579 3.01306,3.53161 1.47751,-7.68 -1.310854,-9.57101 -0.815828,-13.44845 1.313452,-10.28805 3.004808,4.45993 7.19189,-15.76961 9.535515,-46.07002 0.273869,-3.54094 2.149329,-5.41747 4.167669,-4.17007 2.08868,1.29088 2.61329,-0.48498 1.21766,-4.12192 -1.35044,-3.51919 -0.59645,-6.38994 1.67827,-6.38994 2.27168,0 3.10124,-2.68175 1.84347,-5.95944 -1.49411,-3.89358 -0.74474,-5.00636 2.16173,-3.21007 2.99794,1.85283 3.62403,0.60065 1.92,-3.84 -1.39072,-3.62415 -1.00144,-5.64554 0.86506,-4.49198 3.90469,2.41323 9.01836,-8.52625 6.1529,-13.16266 -1.05072,-1.70011 0.67168,-4.08193 3.82754,-5.29295 3.15587,-1.21102 5.73795,-5.7121 5.73795,-10.00238 0,-4.29028 1.91287,-7.80052 4.25084,-7.80052 2.33796,0 3.31107,-2.44899 2.16246,-5.4422 -1.1486,-2.99322 0.47558,-6.42609 3.6093,-7.62861 3.13372,-1.20252 5.18461,-5.19474 4.55753,-8.87161 -0.6543,-3.83656 1.31428,-6.76141 4.61987,-6.86403 3.168,-0.0983 5.5231,-3.14253 5.23355,-6.76485 -0.28953,-3.62232 0.81744,-5.75548 2.45997,-4.74034 1.64252,1.01514 5.88483,-2.57785 9.42735,-7.98442 3.54252,-5.40657 18.53502,-22.56203 33.31666,-38.12326 14.78164,-15.56123 26.87355,-29.69883 26.8709,-31.41691 -0.003,-1.71807 2.19539,-2.67997 4.8845,-2.13755 2.68912,0.54242 8.19181,-2.8838 12.22819,-7.61382 7.26815,-8.51717 7.26487,-8.54696 -0.34111,-3.09141 -6.68191,4.79273 -7.03703,4.78992 -2.73257,-0.0215 2.72109,-3.04163 7.90509,-5.55029 11.52,-5.5748 3.61491,-0.0246 6.09776,-2.33301 5.51743,-5.13 -0.58033,-2.79698 0.70804,-3.99572 2.86304,-2.66385 2.155,1.33186 8.52845,-2.42769 14.16323,-8.35458 5.63478,-5.92688 8.93085,-8.51004 7.32461,-5.74035 -1.60624,2.76968 9.34312,-1.14004 24.33191,-8.68828 14.98878,-7.54834 27.25233,-14.60156 27.25233,-15.67393 0,-1.07237 -6.912,1.57647 -15.36,5.88632 -8.448,4.30984 -15.36,6.97209 -15.36,5.91609 0,-3.83507 31.08374,-17.664541 34.6917,-15.4347 2.03957,1.26052 3.7083,0.60075 3.7083,-1.46616 0,-6.097595 38.77136,-17.266131 59.04039,-17.007261 13.21612,0.168806 17.16783,-0.868147 13.44,-3.526679 -4.3096,-3.073436 -4.20964,-3.431547 0.54366,-1.947859 3.20322,0.999851 33.87698,0.730855 68.16392,-0.597762 35.24947,-1.365918 62.33817,-0.944421 62.33595,0.969938 -0.002,1.862085 7.25026,2.412619 16.11651,1.223409 11.42688,-1.532667 14.50146,-1.037207 10.56,1.701704 -3.93435,2.733961 -1.06859,3.176747 9.79957,1.514131 10.00393,-1.530405 13.50793,-1.106634 10.04874,1.215283 -4.0209,2.69894 -2.62153,4.111557 5.76,5.814482 6.0892,1.237179 13.66326,2.016787 16.83126,1.732466 3.168,-0.284314 10.08,-0.123264 15.36,0.357888 8.96421,0.816891 9.09139,1.10688 1.92,4.378759 -6.91335,3.154149 -6.72165,3.414705 1.92,2.610106 5.28,-0.491605 12.78374,2.289925 16.675,6.181195 3.94307,3.94304 10.25956,6.24225 14.26875,5.19383 4.05493,-1.06039 6.83209,-0.0227 6.36496,2.37805 -0.45577,2.34259 3.9171,4.40557 9.71754,4.58441 5.8004,0.17883 12.7124,2.61647 15.36,5.41696 3.97885,4.20871 3.31526,4.32086 -3.82625,0.64666 -4.752,-2.44483 -8.64,-3.55547 -8.64,-2.46809 0,1.08739 7.09263,5.59546 15.76143,10.01795 9.91173,5.05659 14.74345,6.15444 13.01856,2.95804 -1.50858,-2.79556 1.48078,-0.0521 6.64301,6.09659 5.16222,6.14868 11.20408,10.05571 13.42633,8.68228 2.22224,-1.37343 6.39625,0.50783 9.27555,4.18057 4.81986,6.14803 4.62594,6.24294 -2.44488,1.19642 -4.224,-3.01471 -3.00342,-0.85471 2.71242,4.8 10.95317,10.8361 16.9928,13.56369 12.13709,5.4813 -1.98336,-3.30127 -0.86834,-3.16541 3.57108,0.4351 3.55016,2.87931 5.68969,6.47316 4.7545,7.98634 -2.1307,3.44754 37.95924,43.40424 40.74946,40.61402 1.12339,-1.1234 5.34394,1.72109 9.37897,6.32107 4.03507,4.59999 5.17647,7.1006 2.53647,5.55692 -2.64,-1.54368 -4.8,-1.0787 -4.8,1.0333 0,3.84509 7.34731,9.88391 12.16002,9.99445 1.40797,0.0323 3.99997,1.63184 5.76,3.55445 1.85917,2.03096 1.18874,2.33825 -1.60002,0.73338 -7.15457,-4.11727 -5.80124,3.61845 1.69713,9.70078 4.41469,3.58102 5.57284,3.73172 3.61336,0.47019 -4.20299,-6.99591 -0.39986,-5.87132 5.73934,1.69712 3.581,4.4147 3.73172,5.57284 0.47017,3.61338 -7.09006,-4.25958 -6.13348,-1.73544 8.64,22.79837 12.2731,20.38152 18.93262,26.76929 9.46491,9.07869 -2.1863,-4.08517 -3.09469,-7.42757 -2.01861,-7.42757 2.10989,0 13.6737,21.13901 13.6737,24.99593 0,1.28553 -1.70822,1.28159 -3.79603,-0.009 -2.17371,-1.34342 -2.82228,0.19139 -1.51761,3.59132 1.25311,3.26556 4.09233,4.81632 6.30932,3.44613 2.36494,-1.4616 2.88971,-0.64473 1.26977,1.97642 -3.88113,6.27978 1.25192,20.41159 6.28431,17.30139 2.48821,-1.53779 3.04846,-0.77565 1.39569,1.89861 -3.44291,5.57075 0.98626,20.57579 5.28864,17.91676 4.48301,-2.77065 8.03731,8.29103 5.11284,15.91212 -1.39564,3.63693 -0.87102,5.4128 1.21763,4.12194 2.06972,-1.27915 4.00842,4.72462 4.44657,13.77006 0.42727,8.82094 1.94496,20.35807 3.37263,25.63807 1.42767,5.28 3.28562,33.39882 4.12873,62.48628 1.16705,40.26186 -0.0307,59.96963 -5.01765,82.56 -7.17673,32.50986 -25.86352,84.25924 -42.08502,116.54607 -11.39808,22.68653 -9.45128,22.89961 4.77992,0.5232 7.18732,-11.30093 8.67156,-12.35098 6.8352,-4.83556 -4.25538,17.41525 -29.66158,64.33156 -48.35194,89.28891 C 779.91969,802.51969 701.27035,870.18399 655.9297,893.15982 615.42385,913.6857 555.41375,920.4105 470.39999,913.95054 Z M 840.95998,268.79999 c -2.26061,-4.224 -3.24622,-7.68 -2.19022,-7.68 1.056,0 3.76961,3.456 6.03022,7.68 2.26061,4.224 3.24622,7.68 2.19022,7.68 -1.056,0 -3.76961,-3.456 -6.03022,-7.68 z"
         id="path365" />
      <path
         style="fill:#f58e72;stroke-width:3.84"
         d="M 470.39999,913.95062 C 425.99972,910.57676 379.99679,902.21689 352.42237,892.51114 328.1524,883.96856 265.70216,847.71066 231.52769,822.32108 215.06746,810.09214 189.15264,786.73043 173.9392,770.40617 123.05529,715.80697 84.189141,619.73467 78.980504,535.67999 c -0.916124,-14.784 -0.848425,-21.696 0.150451,-15.36 3.801443,24.11316 13.95921,67.54982 15.448431,66.06059 0.855698,-0.85566 -1.151677,-14.34136 -4.460836,-29.9682 -7.710812,-36.41272 -7.809983,-104.26783 -0.209241,-143.161 3.253405,-16.6477 4.823758,-32.03471 3.489673,-34.1933 -1.390652,-2.25013 -0.53401,-2.75564 2.007709,-1.18478 2.823168,1.74482 4.433307,-0.24247 4.433307,-5.47175 0,-4.51643 4.432062,-19.2901 9.849022,-32.83038 5.41697,-13.54028 8.60598,-26.62999 7.08669,-29.08825 -1.84595,-2.9868 -1.07513,-3.4268 2.32354,-1.32631 3.7237,2.30138 4.40863,1.37838 2.5573,-3.44613 -1.40056,-3.64979 -0.95124,-5.61452 1.00719,-4.40414 1.94467,1.20187 8.9732,-8.01645 15.61895,-20.48516 15.74173,-29.5345 56.20437,-79.91826 80.55331,-100.30434 10.58828,-8.86502 18.40477,-17.48811 17.36999,-19.16243 -1.03479,-1.67432 1.02325,-5.40001 4.57341,-8.27931 4.4394,-3.60052 5.55443,-3.73637 3.57109,-0.4351 -4.33404,7.21401 -0.035,5.86492 16.78885,-5.26861 8.36807,-5.53773 14.35084,-11.46632 13.29503,-13.17466 -1.05581,-1.70833 0.10353,-4.35645 2.5763,-5.88471 2.80791,-1.73538 3.46722,-1.11413 1.75601,1.65467 -4.14988,6.71465 -0.78872,5.6246 29.40862,-9.53737 15.30358,-7.68388 30.56494,-15.29731 33.91412,-16.91875 3.34919,-1.62143 24.94919,-7.834852 48.00001,-13.807607 36.94943,-9.574061 48.7289,-10.859547 99.51056,-10.859547 50.78438,0 62.5981,1.289376 99.84,10.896768 23.232,5.993222 43.968,12.207186 46.08,13.808806 2.112,1.60162 8.24071,3.95905 13.61936,5.23875 5.37861,1.27969 25.636,11.88596 45.01632,23.56948 36.87771,22.23187 41.59669,24.3373 36.85383,16.44278 -1.9081,-3.17606 -0.65423,-2.99093 3.70617,0.5472 3.62446,2.94096 5.69914,6.23797 4.61042,7.32668 -2.56424,2.56424 5.48375,12.28612 10.1707,12.28612 1.97806,0 2.29878,-2.16 0.71271,-4.8 -1.95948,-3.26153 -0.80134,-3.11083 3.61336,0.47019 7.03384,5.70554 8.90761,10.11281 2.65712,6.24981 -2.112,-1.30529 -3.84,-1.28 -3.84,0.0562 0,3.68489 43.22293,42.30189 46.31125,41.37621 1.48185,-0.44418 5.92404,3.01182 9.87152,7.68 l 7.17723,8.48761 -8.64,-7.31516 c -4.752,-4.02333 -8.64,-6.082 -8.64,-4.57482 0,5.08721 24.11705,32.79758 26.99601,31.01829 1.5696,-0.97006 5.20957,1.24122 8.08888,4.91396 4.73741,6.04289 4.59625,6.1767 -1.48489,1.40754 -9.15141,-7.17704 -8.33019,-0.71984 1.40283,11.03018 5.20727,6.28636 7.20757,7.28046 5.79514,2.88 -2.97439,-9.2668 0.25344,-8.43597 5.53002,1.4234 3.06309,5.72343 3.10326,7.36778 0.13517,5.53338 -7.03423,-4.34739 -4.84443,2.79694 8.52979,27.82859 7.01411,13.12785 14.20312,22.55162 15.97567,20.94172 1.7725,-1.60989 1.92388,-0.67679 0.33638,2.07358 -1.58746,2.75037 0.56632,15.71037 4.78614,28.8 13.36742,41.46464 21.29418,90.81708 21.40036,133.23933 0.023,9.23462 -5.99109,72.85981 -7.25956,76.8 -0.33984,1.056 -1.94519,7.104 -3.56717,13.44 -12.48964,48.78835 -42.73947,113.21245 -69.46786,147.94798 -9.70518,12.61259 -16.78176,22.93201 -15.72576,22.93201 3.288,0 34.96124,-43.07612 48.58694,-66.0791 7.14105,-12.05549 13.50578,-21.39705 14.14383,-20.759 2.87862,2.87866 -11.97784,36.57477 -28.64409,64.968 C 802.9163,780.35843 712.82376,864.32951 655.9297,893.15993 615.42385,913.6858 555.41375,920.4106 470.39999,913.95064 Z m 35.52,-25.86796 c -7.92,-0.82844 -20.88,-0.82844 -28.8,0 -7.92,0.82848 -1.44,1.50628 14.4,1.50628 15.84,0 22.32,-0.6778 14.4,-1.50628 z m -59.44692,-3.56149 c -2.5998,-1.05185 -7.7838,-1.11586 -11.52,-0.14246 -3.73621,0.97359 -1.60908,1.83421 4.72692,1.91247 6.336,0.0783 9.39287,-0.71831 6.79308,-1.7702 z m 99.83999,0 c -2.59979,-1.05185 -7.78379,-1.11586 -11.52,-0.14246 -3.7362,0.97359 -1.60907,1.83421 4.72693,1.91247 6.336,0.0783 9.39287,-0.71831 6.79307,-1.7702 z M 578.8,880.87997 c -1.27603,-1.27599 -4.58803,-1.41239 -7.36001,-0.30298 -3.06328,1.22581 -2.1534,2.13573 2.32001,2.31998 4.04798,0.16665 6.31599,-0.74085 5.04,-2.01685 z M 230.4,797.51841 c 0,-0.66086 -5.616,-6.27686 -12.48,-12.48 l -12.48,-11.27843 11.27843,12.48 C 227.2315,797.87311 230.4,800.48504 230.4,797.51841 Z m -30.72,-30.72 c 0,-0.66086 -5.616,-6.27686 -12.48,-12.48 l -12.48,-11.27843 11.27843,12.48 C 196.5115,767.15311 199.68,769.76504 199.68,766.79841 Z M 111.82876,634.84799 c -4.52677,-7.78449 -5.61989,-5.29287 -1.91437,4.36354 1.31691,3.43181 3.20331,5.43076 4.19198,4.44208 0.98868,-0.98869 -0.0361,-4.95122 -2.27761,-8.80562 z m -8.49785,-27.77891 c -2.59677,-8.66722 -5.428307,-15.05168 -6.292307,-14.18768 -0.864,0.864 0.55372,8.66227 3.150487,17.32949 2.59676,8.66723 5.4283,15.05169 6.2923,14.18769 0.864,-0.864 -0.55372,-8.66227 -3.15048,-17.3295 z m 125.85224,2.77091 c -1.22582,-3.06329 -2.13574,-2.1534 -2.32,2.32001 -0.16673,4.04797 0.74085,6.31599 2.01685,5.04 1.27599,-1.27603 1.41242,-4.58803 0.30316,-7.36001 z m 153.6,-111.36 c -1.22583,-3.06328 -2.13574,-2.1534 -2.32,2.32001 -0.16673,4.04798 0.74084,6.316 2.01684,5.04 1.276,-1.27603 1.41242,-4.58803 0.30317,-7.36001 z M 691.19999,248.27515 c 0,-0.72867 -3.888,-4.61667 -8.64,-8.64 l -8.64,-7.31515 7.31516,8.64 c 6.87444,8.11946 9.96484,10.38812 9.96484,7.31515 z M 77.768381,451.19999 c 0.04262,-8.448 0.828999,-11.45184 1.7475,-6.67522 0.918501,4.77661 0.88363,11.68861 -0.07749,15.36 -0.961125,3.67138 -1.712628,-0.23678 -1.670008,-8.68478 z m 3.477934,-28.8 c 0,-5.28 0.871576,-7.44 1.936842,-4.8 1.065262,2.64 1.065262,6.96 0,9.6 -1.065266,2.64 -1.936842,0.48 -1.936842,-4.8 z M 84.783155,404.8 c 0.184243,-4.4734 1.094173,-5.38329 2.320001,-2.32001 1.109265,2.77198 0.972841,6.08398 -0.303168,7.36001 -1.276001,1.276 -2.183581,-0.99202 -2.016845,-5.04 z M 881.75438,358.89154 c -3.70553,-9.65642 -2.61239,-12.14805 1.91435,-4.36354 2.24137,3.85441 3.2663,7.81693 2.27762,8.80562 -0.98868,0.98868 -2.87508,-1.01026 -4.19197,-4.44208 z m -25.44227,-61.31223 c -2.2345,-5.8772 -4.97683,-12.16485 -6.09404,-13.97256 -1.11725,-1.80772 -1.10972,-3.28676 0.0167,-3.28676 3.35305,0 14.51163,23.57362 12.23582,25.84942 -1.15262,1.15264 -3.92394,-2.71291 -6.15844,-8.5901 z M 683.51999,120.96 c -5.28,-3.01832 -7.77028,-5.54909 -5.53394,-5.62393 2.23634,-0.0748 7.42034,2.40097 11.52,5.5018 9.48088,7.17097 6.45266,7.23275 -5.98606,0.12212 z m -384,-3.81187 c 0,-2.60133 31.19071,-18.117431 32.92787,-16.38027 0.805,0.805 -6.27445,5.22309 -15.73212,9.81798 -9.45766,4.59489 -17.19575,7.54792 -17.19575,6.56229 z M 348.8885,93.589054 c 7.08868,-3.093454 18.32068,-6.468806 24.96,-7.500783 6.63932,-1.031977 1.70349,1.614539 -10.96851,5.881148 -26.71749,8.995671 -32.40151,9.653641 -13.99149,1.619635 z m 276.31149,-0.212198 c 2.77198,-1.109265 6.08398,-0.972841 7.36001,0.303168 1.27599,1.276001 -0.99203,2.183581 -5.04,2.016844 -4.47341,-0.184243 -5.3833,-1.094173 -2.32001,-2.320001 z m -234.24,-11.52 c 2.77198,-1.109265 6.08398,-0.972841 7.36001,0.303168 1.276,1.276001 -0.99202,2.183581 -5.04,2.016845 -4.4734,-0.184244 -5.38329,-1.094174 -2.32001,-2.320002 z m 192,0 c 2.77198,-1.109265 6.08398,-0.972841 7.36001,0.303168 1.27599,1.276001 -0.99202,2.183581 -5.04,2.016845 -4.47341,-0.184244 -5.38329,-1.094174 -2.32001,-2.320002 z"
         id="path363" />
      <path
         style="fill:#d39489;stroke-width:3.84"
         d="M 470.39999,913.95062 C 425.99972,910.57676 379.99679,902.21689 352.42237,892.51114 328.1524,883.96856 265.70216,847.71066 231.52769,822.32108 215.06746,810.09214 189.15264,786.73043 173.9392,770.40617 123.0887,715.84284 84.325841,620.08015 78.926625,535.67999 c -0.945754,-14.784 -0.945074,-22.56 0.0015,-17.28 16.419225,91.58496 40.423955,152.27343 82.128025,207.63509 24.74303,32.84609 68.22999,73.93889 101.99715,96.38174 25.81754,17.15927 77.81168,42.05487 97.90667,46.87925 5.8363,1.40118 4.33082,-0.0457 -3.84,-3.69012 -7.392,-3.29722 -25.536,-11.39328 -40.32,-17.99132 C 208.17034,799.13386 124.10793,696.3687 94.617809,575.99999 c -5.500308,-22.45041 -6.522796,-45.10625 -6.468111,-143.3174 0.0038,-6.83201 1.550523,-9.88282 4.184993,-8.25462 2.316077,1.4314 3.789953,0.27111 3.306317,-2.60263 -0.479954,-2.85193 1.202999,-10.23533 3.739899,-16.40756 2.536903,-6.17222 3.619483,-13.81006 2.405753,-16.97299 -1.21373,-3.16293 -0.79474,-6.75294 0.9311,-7.97779 2.78473,-1.97637 12.51599,-24.50222 28.33384,-65.58701 2.84596,-7.392 4.72079,-14.86444 4.16629,-16.60542 -0.5545,-1.74099 0.63823,-2.1479 2.6505,-0.90424 3.26444,2.01754 6.81155,-4.23421 8.58462,-15.13034 0.34368,-2.112 2.61275,-5.568 5.04238,-7.68 10.91066,-9.4843 32.87363,-40.35791 31.93894,-44.89698 -0.56888,-2.76266 0.89628,-4.66748 3.25593,-4.23293 2.35964,0.43455 8.27685,-3.45345 13.14936,-8.64 4.87251,-5.18655 7.48231,-9.43008 5.79955,-9.43008 -1.68275,0 -0.92417,-2.57298 1.68574,-5.71773 2.6099,-3.14474 6.1034,-4.87835 7.76333,-3.85246 1.65993,1.02589 7.99225,-3.74513 14.07184,-10.60227 6.07958,-6.85715 15.69869,-14.88798 21.37579,-17.84629 5.67711,-2.9583 9.38854,-6.88912 8.24764,-8.73514 -1.1409,-1.84602 -0.60615,-2.88158 1.18834,-2.30126 5.42796,1.75537 50.62709,-29.19187 48.25085,-33.03671 -1.21513,-1.96612 -0.2658,-2.3736 2.10962,-0.90551 5.22788,3.23101 43.62486,-12.6403 40.97053,-16.93509 -1.0304,-1.66722 1.58493,-2.12693 5.81184,-1.02156 4.46868,1.16858 7.6853,0.12024 7.6853,-2.50474 0,-2.48297 1.42327,-3.63487 3.16281,-2.55977 1.73955,1.0751 14.26755,-1.719576 27.84001,-6.210395 21.3658,-7.069459 34.3387,-8.226558 96.67718,-8.622958 41.14963,-0.261657 72,1.04291 72,3.044679 0,1.926382 4.2677,2.68669 9.4838,1.689573 5.21606,-0.997118 8.74994,-0.625586 7.85307,0.82563 -0.89691,1.451213 8.22739,5.69151 20.2762,9.422881 33.99018,10.52636 88.46403,38.3488 116.03834,59.26645 52.66898,39.95425 104.03624,100.42528 129.62331,152.59633 5.47999,11.17345 11.21583,19.54145 12.7463,18.59555 1.53051,-0.9459 1.93114,1.53672 0.89031,5.51693 -1.04087,3.98022 0.64696,12.1906 3.75068,18.2453 3.10372,6.05471 9.6235,26.56055 14.48839,45.56855 12.54229,49.0047 11.82648,111.74369 -1.89235,165.86419 -5.43556,21.4431 -8.72859,41.99528 -7.31788,45.67154 1.87749,4.89262 1.21163,5.84774 -2.48437,3.56348 -3.82756,-2.36555 -4.58423,-0.68778 -3.1273,6.93385 1.20473,6.30198 0.45236,9.14619 -2.0158,7.62079 -2.3924,-1.4786 -2.9755,0.0741 -1.48578,3.95623 1.34861,3.51445 0.83252,6.38992 -1.14693,6.38992 -1.97944,0 -2.49554,2.87547 -1.14693,6.38991 1.5355,4.00143 0.92586,5.44673 -1.63089,3.86657 -2.31125,-1.42848 -5.12801,1.6406 -6.49144,7.0729 -3.2822,13.07727 -34.44219,65.30511 -51.16669,85.76144 -33.39878,40.85123 -84.50043,79.83318 -134.61389,102.68771 -17.33475,7.90564 -30.81323,15.07837 -29.95215,15.93945 3.32878,3.32878 61.13437,-26.28368 89.30281,-45.74772 48.75905,-33.69197 92.84747,-81.40205 124.31727,-134.52937 7.14105,-12.05549 13.50578,-21.39705 14.14383,-20.759 2.87862,2.87866 -11.97784,36.57477 -28.64409,64.968 -31.36151,53.42853 -121.45405,137.39961 -178.34811,166.23003 -40.50585,20.52587 -100.51595,27.25067 -185.52971,20.79071 z m 65.28,-26.92565 c 18.02358,-2.36364 13.63657,-2.75098 -20.14929,-1.77907 -37.18429,1.06967 -93.11416,-3.65396 -133.45071,-11.27075 -6.336,-1.19643 -3.94624,0.34637 5.31057,3.42881 34.07416,11.34574 101.68711,15.73244 148.28943,9.62101 z m 51.84,-7.66499 c 9.36127,-2.998 9.31353,-3.07726 -1.92,-3.18731 -6.336,-0.0622 -14.976,1.37218 -19.2,3.18731 -6.98139,3 -6.80675,3.28996 1.92,3.18732 5.28,-0.0622 13.92,-1.49637 19.2,-3.18732 z m 26.88,-7.68 c 7.0194,-4.53627 0.9565,-4.53627 -9.6,0 -5.06396,2.17605 -5.71799,3.3721 -1.92,3.5113 3.168,0.11597 8.352,-1.46396 11.52,-3.5113 z M 259.55302,687.34013 c -9.88785,-10.5709 -23.08295,-30.0109 -29.32244,-43.2 -11.51198,-24.33411 -15.87439,-26.08312 -5.90904,-2.36908 7.06539,16.81313 27.45057,45.21765 40.19754,56.01085 15.93688,13.49414 14.39946,10.26155 -4.96606,-10.44177 z M 287.68,697.79338 c -0.88001,-0.59762 -5.05601,-3.62162 -9.28001,-6.72 -7.10402,-5.21092 -7.28475,-5.12943 -2.40981,1.08661 2.8986,3.696 7.0746,6.72 9.28,6.72 2.2054,0 3.28981,-0.48899 2.40982,-1.08661 z m -18.88001,-15.59823 c 0,-0.72868 -3.888,-4.61668 -8.64,-8.64 l -8.64,-7.31516 7.31516,8.64 c 6.87444,8.11945 9.96484,10.38812 9.96484,7.31516 z m -25.74903,-38.88784 c -5.66807,-11.55697 -10.94948,-20.36881 -11.73645,-19.58184 -1.72511,1.72512 17.64371,40.59452 20.22845,40.59452 0.99747,0 -2.82393,-9.4557 -8.492,-21.01268 z m 286.86903,-25.06732 c 3.168,-2.04734 4.032,-3.72238 1.92,-3.72238 -2.112,0 -6.432,1.67504 -9.6,3.72238 -3.168,2.04733 -4.032,3.72238 -1.92,3.72238 2.112,0 6.432,-1.67505 9.6,-3.72238 z m -300.81684,-12.48 c -1.06526,-2.64 -1.93684,-0.48 -1.93684,4.8 0,5.28 0.87158,7.44 1.93684,4.8 1.06527,-2.64 1.06527,-6.96 0,-9.6 z m 328.18667,-9.6 c 4.77646,-6.09047 4.64064,-6.22629 -1.44983,-1.44983 -3.696,2.89862 -6.72,5.92262 -6.72,6.72 0,3.16047 3.15337,1.12631 8.16983,-5.27017 z m 25.64855,-37.54161 c -1.1823,-1.1823 -3.32947,0.9489 -4.77151,4.73599 -2.08389,5.47277 -1.64283,5.91383 2.14963,2.14963 2.62434,-2.60482 3.80418,-5.70332 2.62188,-6.88562 z m 8.304,-19.09839 c 0,-2.112 -1.67505,-1.248 -3.72238,1.92 -2.04734,3.168 -3.72238,7.488 -3.72238,9.6 0,2.112 1.67504,1.248 3.72238,-1.92 2.04733,-3.168 3.72238,-7.488 3.72238,-9.6 z m -202.9584,-21.49701 c -2.35618,-6.75898 -4.5193,-17.64718 -4.80692,-24.19599 -0.43675,-9.94468 -0.80938,-10.39008 -2.26103,-2.70264 -1.79696,9.5161 6.2672,44.27244 9.51783,41.02176 1.00877,-1.00873 -0.0937,-7.36416 -2.44988,-14.12313 z m 205.69916,7.33701 c -1.2258,-3.06328 -2.13573,-2.1534 -2.31997,2.32001 -0.16666,4.04798 0.74081,6.316 2.01684,5.04 1.27599,-1.27603 1.41239,-4.58803 0.30298,-7.36001 z m 8.56815,-41.52 c 0.11597,-11.616 -1.05842,-23.10712 -2.61008,-25.53585 -1.55167,-2.42872 -2.82121,10.03984 -2.82121,27.70791 0,17.66807 1.17454,29.15923 2.61008,25.53584 1.43559,-3.62334 2.70513,-16.0919 2.82121,-27.7079 z m -12.92674,-49.56315 c -8.43521,-16.31186 -11.17148,-15.04585 -3.27422,1.51492 3.51238,7.3655 7.06783,12.71005 7.90103,11.87685 0.83321,-0.8332 -1.24884,-6.85951 -4.62681,-13.39177 z m -196.47936,5.2037 c 1.31132,-3.41729 0.66759,-4.95867 -1.50916,-3.61336 -2.0878,1.29032 -3.79603,3.97209 -3.79603,5.95945 0,5.52357 2.7524,4.3064 5.30519,-2.34609 z m 229.40356,-23.51255 c -4.52675,-7.78448 -5.61988,-5.29286 -1.91436,4.36355 1.31689,3.4318 3.20329,5.43076 4.19198,4.44207 0.98868,-0.98868 -0.0346,-4.95122 -2.27762,-8.80562 z m -203.98875,-10.848 c 7.1646,-7.392 12.16255,-13.44 11.10655,-13.44 -1.056,0 -7.78195,6.048 -14.94655,13.44 -7.16459,7.392 -12.16255,13.44 -11.10655,13.44 1.056,0 7.78196,-6.048 14.94655,-13.44 z m 155.15516,5.19783 c -9.50868,-10.71364 -36.12584,-30.15783 -41.28311,-30.15783 -2.20861,0 3.66666,4.92254 13.05615,10.93893 9.38949,6.01644 20.3636,14.65644 24.38696,19.2 4.02332,4.54361 8.17916,8.26107 9.23516,8.26107 1.056,0 -1.37184,-3.70898 -5.39516,-8.24217 z m 29.16484,-12.40766 c 0,-0.79737 -3.024,-3.82137 -6.72,-6.72 -6.09047,-4.77646 -6.22629,-4.64064 -1.44983,1.44983 5.01646,6.39648 8.16983,8.43065 8.16983,5.27017 z m 0.48484,-16.08597 c -7.25741,-9.22631 -34.19655,-32.3842 -37.6719,-32.3842 -1.7409,0 42.21055,41.8767 44.18576,42.1 0.6813,0.0772 -2.24993,-4.29512 -6.51386,-9.7158 z m -144.48484,-1.6642 c 5.06396,-2.17606 5.71799,-3.37211 1.92,-3.5113 -3.168,-0.11612 -8.352,1.46398 -11.52,3.5113 -7.0194,4.53627 -0.9565,4.53627 9.6,0 z m 69.09281,-3.79601 c 1.34531,-2.17675 -0.19622,-2.82051 -3.61336,-1.50917 -6.65249,2.5528 -7.86966,5.30518 -2.34609,5.30518 1.98736,0 4.66914,-1.70821 5.95945,-3.79601 z m 59.54719,2.31765 c 0,-0.8131 -4.752,-4.37165 -10.56,-7.90791 l -10.56,-6.42954 9.06539,7.9079 c 8.84633,7.7168 12.05461,9.42799 12.05461,6.42955 z M 490.48,373.99999 c -1.27599,-1.276 -4.58803,-1.41242 -7.36001,-0.30317 -3.06328,1.22583 -2.15339,2.13575 2.32001,2.32 4.04798,0.16674 6.316,-0.74084 5.04,-2.01684 z m 68.46605,-15.08212 c -4.09966,-3.10084 -9.28366,-5.57664 -11.52,-5.50181 -2.23634,0.0748 0.25382,2.60561 5.53394,5.62393 12.43872,7.11063 15.46694,7.04885 5.98606,-0.12211 z m 182.15577,-31.4132 c -4.1841,-6.52527 -4.29247,-6.5169 -2.19179,0.16938 1.21547,3.86874 2.34639,9.05274 2.51312,11.52 0.21888,3.23774 0.82864,3.1906 2.19176,-0.16938 1.03876,-2.56043 -0.0922,-7.74443 -2.51309,-11.52 z m 8.16691,-11.37666 c -4.52674,-7.78452 -5.61987,-5.29289 -1.91435,4.36353 1.31689,3.43182 3.20329,5.43076 4.19197,4.44208 0.98869,-0.98868 -0.0346,-4.95121 -2.27762,-8.80561 z m -15.12476,-5.92002 c -2.75543,-2.75544 -4.54398,-2.98216 -4.54398,-0.576 0,5.12556 4.54122,9.66678 7.104,7.104 1.09121,-1.0912 -0.0607,-4.0288 -2.56002,-6.528 z m 4.36762,-17.408 c -5.1312,-14.56556 -49.47525,-66.85753 -62.6958,-73.93293 -3.35819,-1.79727 5.55633,8.60448 19.81014,23.11499 14.25377,14.51052 29.49216,33.39267 33.86304,41.96035 8.10739,15.89178 13.29462,20.98413 9.02262,8.85759 z m -31.29016,-26.88 c -6.32717,-7.92 -17.27236,-19.86087 -24.32268,-26.53527 -13.2882,-12.5797 -56.06223,-39.67753 -62.65847,-39.69485 -2.06784,-0.005 9.35524,7.66733 25.38467,17.05057 18.54347,10.85493 36.56152,25.52083 49.53588,40.32 22.67885,25.86859 29.86744,31.14923 12.0606,8.85955 z m -42.90144,-54.10362 c 0,-1.77299 -4.752,-5.27635 -10.56,-7.78524 l -10.56,-4.56162 9.6,7.69986 c 10.98727,8.81256 11.52,9.02744 11.52,4.647 z m -28.57394,-18.0185 c -4.09966,-3.10083 -9.28366,-5.57664 -11.52,-5.5018 -2.23634,0.0748 0.25382,2.60561 5.53394,5.62393 12.43872,7.11062 15.46694,7.04884 5.98606,-0.12212 z M 77.768381,451.19999 c 0.04262,-8.448 0.828999,-11.45184 1.7475,-6.67522 0.918501,4.77661 0.88363,11.68861 -0.07749,15.36 -0.961125,3.67138 -1.712628,-0.23678 -1.670008,-8.68478 z m 3.477934,-28.8 c 0,-5.28 0.871576,-7.44 1.936842,-4.8 1.065262,2.64 1.065262,6.96 0,9.6 -1.065266,2.64 -1.936842,0.48 -1.936842,-4.8 z M 881.75438,358.89154 c -3.70553,-9.65642 -2.61239,-12.14805 1.91435,-4.36354 2.24137,3.85441 3.2663,7.81693 2.27762,8.80562 -0.98868,0.98868 -2.87508,-1.01026 -4.19197,-4.44208 z m -25.44227,-61.31223 c -2.2345,-5.8772 -4.97683,-12.16485 -6.09404,-13.97256 -1.11725,-1.80772 -1.10972,-3.28676 0.0167,-3.28676 3.35305,0 14.51163,23.57362 12.23582,25.84942 -1.15262,1.15264 -3.92394,-2.71291 -6.15844,-8.5901 z m -15.35213,-28.77932 c -2.26061,-4.224 -3.24622,-7.68 -2.19022,-7.68 1.056,0 3.76961,3.456 6.03022,7.68 2.26061,4.224 3.24622,7.68 2.19022,7.68 -1.056,0 -3.76961,-3.456 -6.03022,-7.68 z m -12.00983,-18.24 c -4.77646,-6.09045 -4.64064,-6.22627 1.44983,-1.44981 6.39648,5.01646 8.43065,8.16981 5.27017,8.16981 -0.79737,0 -3.82137,-3.024 -6.72,-6.72 z m -24.835,-32.63999 -7.31517,-8.64 8.64,7.31515 c 8.11945,6.87444 10.38813,9.96485 7.31517,9.96485 -0.72868,0 -4.61668,-3.888 -8.64,-8.64 z m -51.965,-51.84 c -4.77646,-6.09046 -4.64064,-6.22628 1.44983,-1.44981 6.39648,5.01645 8.43065,8.16981 5.27017,8.16981 -0.79737,0 -3.82137,-3.024 -6.72,-6.72 z M 234.24,159.83019 c 0,-0.7974 3.024,-3.8214 6.72,-6.72 6.09045,-4.77647 6.22627,-4.64065 1.44981,1.44981 -5.01646,6.39647 -8.16981,8.43064 -8.16981,5.27019 z M 732.95015,150.72 c -4.77646,-6.09046 -4.64064,-6.22628 1.44984,-1.44981 6.39647,5.01645 8.43064,8.16981 5.27016,8.16981 -0.79737,0 -3.82137,-3.024 -6.72,-6.72 z m -49.43016,-29.76 c -5.28,-3.01832 -7.77028,-5.54909 -5.53394,-5.62393 2.23634,-0.0748 7.42034,2.40097 11.52,5.5018 9.48088,7.17097 6.45266,7.23275 -5.98606,0.12212 z m -384,-3.81187 c 0,-2.60133 31.19071,-18.117431 32.92787,-16.38027 0.805,0.805 -6.27445,5.22309 -15.73212,9.81798 -9.45766,4.59489 -17.19575,7.54792 -17.19575,6.56229 z M 348.8885,93.589054 c 7.08868,-3.093454 18.32068,-6.468806 24.96,-7.500783 6.63932,-1.031977 1.70349,1.614539 -10.96851,5.881148 -26.71749,8.995671 -32.40151,9.653641 -13.99149,1.619635 z m 276.31149,-0.212198 c 2.77198,-1.109265 6.08398,-0.972841 7.36001,0.303168 1.27599,1.276001 -0.99203,2.183581 -5.04,2.016844 -4.47341,-0.184243 -5.3833,-1.094173 -2.32001,-2.320001 z m -234.24,-11.52 c 2.77198,-1.109265 6.08398,-0.972841 7.36001,0.303168 1.276,1.276001 -0.99202,2.183581 -5.04,2.016845 -4.4734,-0.184244 -5.38329,-1.094174 -2.32001,-2.320002 z m 192,0 c 2.77198,-1.109265 6.08398,-0.972841 7.36001,0.303168 1.27599,1.276001 -0.99202,2.183581 -5.04,2.016845 -4.47341,-0.184244 -5.38329,-1.094174 -2.32001,-2.320002 z"
         id="path361" />
      <path
         style="fill:#f5886a;stroke-width:3.84"
         d="M 470.39999,913.95062 C 425.99972,910.57676 379.99679,902.21689 352.42237,892.51114 328.1524,883.96856 265.70216,847.71066 231.52769,822.32108 180.93991,784.73743 149.80544,747.85531 123.10505,693.88288 97.751791,642.63351 75.449778,566.12574 88.15229,573.97635 c 2.019759,1.24827 2.698883,4.80626 1.509162,7.90663 -1.18972,3.10034 -0.06538,5.63701 2.498546,5.63701 2.563922,0 3.731858,2.42308 2.595418,5.38456 -1.136441,2.96152 -0.889317,6.56152 0.549162,8.00003 1.438479,1.43846 2.83142,4.19942 3.09542,6.13539 0.264,1.93602 0.912,4.38402 1.44,5.44002 0.528002,1.056 1.392002,3.648 1.920002,5.76 0.528,2.112 1.392,4.704 1.92,5.76 0.528,1.056 1.23226,3.216 1.56502,4.8 2.16652,10.31293 40.04565,76.30659 55.81115,97.23509 24.74303,32.84609 68.22999,73.93889 101.99715,96.38174 25.81754,17.15927 77.81168,42.05487 97.90667,46.87925 5.8363,1.40118 4.33082,-0.0457 -3.84,-3.69012 -7.392,-3.29722 -25.536,-11.39328 -40.32,-17.99132 C 208.17034,799.13386 124.10793,696.3687 94.617809,575.99999 c -5.500308,-22.45041 -6.522796,-45.10625 -6.468111,-143.3174 0.0038,-6.83201 1.550523,-9.88282 4.184993,-8.25462 2.316077,1.4314 3.789953,0.27111 3.306317,-2.60263 -0.479954,-2.85193 1.202999,-10.23533 3.739899,-16.40756 2.536903,-6.17222 3.619483,-13.81006 2.405753,-16.97299 -1.21373,-3.16293 -0.79474,-6.75294 0.9311,-7.97779 2.78473,-1.97637 12.51599,-24.50222 28.33384,-65.58701 2.84596,-7.392 4.72079,-14.86444 4.16629,-16.60542 -0.5545,-1.74099 0.63823,-2.1479 2.6505,-0.90424 3.26444,2.01754 6.81155,-4.23421 8.58462,-15.13034 0.34368,-2.112 2.61275,-5.568 5.04238,-7.68 10.91066,-9.4843 32.87363,-40.35791 31.93894,-44.89698 -0.56888,-2.76266 0.89628,-4.66748 3.25593,-4.23293 2.35964,0.43455 8.27685,-3.45345 13.14936,-8.64 4.87251,-5.18655 7.48231,-9.43008 5.79955,-9.43008 -1.68275,0 -0.92417,-2.57298 1.68574,-5.71773 2.6099,-3.14474 6.1034,-4.87835 7.76333,-3.85246 1.65993,1.02589 7.99225,-3.74513 14.07184,-10.60227 6.07958,-6.85715 15.69869,-14.88798 21.37579,-17.84629 5.67711,-2.9583 9.38854,-6.88912 8.24764,-8.73514 -1.1409,-1.84602 -0.60615,-2.88158 1.18834,-2.30126 5.42796,1.75537 50.62709,-29.19187 48.25085,-33.03671 -1.21513,-1.96612 -0.2658,-2.3736 2.10962,-0.90551 5.22788,3.23101 43.62486,-12.6403 40.97053,-16.93509 -1.0304,-1.66722 1.58493,-2.12693 5.81184,-1.02156 4.46868,1.16858 7.6853,0.12024 7.6853,-2.50474 0,-2.48297 1.42327,-3.63487 3.16281,-2.55977 1.73955,1.0751 14.26755,-1.719576 27.84001,-6.210395 21.3658,-7.069459 34.3387,-8.226558 96.67718,-8.622958 41.14963,-0.261657 72,1.04291 72,3.044679 0,1.926382 4.2677,2.68669 9.4838,1.689573 5.21606,-0.997118 8.74994,-0.625586 7.85307,0.82563 -0.89691,1.451213 8.22739,5.69151 20.2762,9.422881 33.99018,10.52636 88.46403,38.3488 116.03834,59.26645 52.66898,39.95425 104.03624,100.42528 129.62331,152.59633 5.47999,11.17345 11.21583,19.54145 12.7463,18.59555 1.53051,-0.9459 1.93114,1.53672 0.89031,5.51693 -1.04087,3.98022 0.64696,12.1906 3.75068,18.2453 3.10372,6.05471 9.6235,26.56055 14.48839,45.56855 12.54229,49.0047 11.82648,111.74369 -1.89235,165.86419 -5.43556,21.4431 -8.72859,41.99528 -7.31788,45.67154 1.87749,4.89262 1.21163,5.84774 -2.48437,3.56348 -3.82756,-2.36555 -4.58423,-0.68778 -3.1273,6.93385 1.20473,6.30198 0.45236,9.14619 -2.0158,7.62079 -2.3924,-1.4786 -2.9755,0.0741 -1.48578,3.95623 1.34861,3.51445 0.83252,6.38992 -1.14693,6.38992 -1.97944,0 -2.49554,2.87547 -1.14693,6.38991 1.5355,4.00143 0.92586,5.44673 -1.63089,3.86657 -2.31125,-1.42848 -5.12801,1.6406 -6.49144,7.0729 -3.2822,13.07727 -34.44219,65.30511 -51.16669,85.76144 -33.39878,40.85123 -84.50043,79.83318 -134.61389,102.68771 -17.33475,7.90564 -30.81323,15.07837 -29.95215,15.93945 0.86104,0.86108 14.64741,-4.47859 30.63636,-11.86594 73.19263,-33.81708 147.49628,-102.12184 186.94814,-171.85498 15.52938,-27.44893 10.63223,-8.89378 -6.87702,26.05671 -26.98357,53.86249 -74.67452,106.6747 -140.20961,155.26598 -37.3086,27.66267 -60.31373,39.82061 -90.23136,47.68623 -28.032,7.36992 -90.482,9.8092 -145.02451,5.66465 z m 65.28,-26.92565 c 18.02358,-2.36364 13.63657,-2.75098 -20.14929,-1.77907 -37.18429,1.06967 -93.11416,-3.65396 -133.45071,-11.27075 -6.336,-1.19643 -3.94624,0.34637 5.31057,3.42881 34.07416,11.34574 101.68711,15.73244 148.28943,9.62101 z m 51.84,-7.66499 c 9.36127,-2.998 9.31353,-3.07726 -1.92,-3.18731 -6.336,-0.0622 -14.976,1.37218 -19.2,3.18731 -6.98139,3 -6.80675,3.28996 1.92,3.18732 5.28,-0.0622 13.92,-1.49637 19.2,-3.18732 z m 26.88,-7.68 c 7.0194,-4.53627 0.9565,-4.53627 -9.6,0 -5.06396,2.17605 -5.71799,3.3721 -1.92,3.5113 3.168,0.11597 8.352,-1.46396 11.52,-3.5113 z M 259.55302,687.34013 c -9.88785,-10.5709 -23.08295,-30.0109 -29.32244,-43.2 -11.51198,-24.33411 -15.87439,-26.08312 -5.90904,-2.36908 7.06539,16.81313 27.45057,45.21765 40.19754,56.01085 15.93688,13.49414 14.39946,10.26155 -4.96606,-10.44177 z M 287.68,697.79338 c -0.88001,-0.59762 -5.05601,-3.62162 -9.28001,-6.72 -7.10402,-5.21092 -7.28475,-5.12943 -2.40981,1.08661 2.8986,3.696 7.0746,6.72 9.28,6.72 2.2054,0 3.28981,-0.48899 2.40982,-1.08661 z m -18.88001,-15.59823 c 0,-0.72868 -3.888,-4.61668 -8.64,-8.64 l -8.64,-7.31516 7.31516,8.64 c 6.87444,8.11945 9.96484,10.38812 9.96484,7.31516 z m -25.74903,-38.88784 c -5.66807,-11.55697 -10.94948,-20.36881 -11.73645,-19.58184 -1.72511,1.72512 17.64371,40.59452 20.22845,40.59452 0.99747,0 -2.82393,-9.4557 -8.492,-21.01268 z m 286.86903,-25.06732 c 3.168,-2.04734 4.032,-3.72238 1.92,-3.72238 -2.112,0 -6.432,1.67504 -9.6,3.72238 -3.168,2.04733 -4.032,3.72238 -1.92,3.72238 2.112,0 6.432,-1.67505 9.6,-3.72238 z m -300.81684,-12.48 c -1.06526,-2.64 -1.93684,-0.48 -1.93684,4.8 0,5.28 0.87158,7.44 1.93684,4.8 1.06527,-2.64 1.06527,-6.96 0,-9.6 z m 328.18667,-9.6 c 4.77646,-6.09047 4.64064,-6.22629 -1.44983,-1.44983 -3.696,2.89862 -6.72,5.92262 -6.72,6.72 0,3.16047 3.15337,1.12631 8.16983,-5.27017 z m 25.64855,-37.54161 c -1.1823,-1.1823 -3.32947,0.9489 -4.77151,4.73599 -2.08389,5.47277 -1.64283,5.91383 2.14963,2.14963 2.62434,-2.60482 3.80418,-5.70332 2.62188,-6.88562 z m 8.304,-19.09839 c 0,-2.112 -1.67505,-1.248 -3.72238,1.92 -2.04734,3.168 -3.72238,7.488 -3.72238,9.6 0,2.112 1.67504,1.248 3.72238,-1.92 2.04733,-3.168 3.72238,-7.488 3.72238,-9.6 z m -202.9584,-21.49701 c -2.35618,-6.75898 -4.5193,-17.64718 -4.80692,-24.19599 -0.43675,-9.94468 -0.80938,-10.39008 -2.26103,-2.70264 -1.79696,9.5161 6.2672,44.27244 9.51783,41.02176 1.00877,-1.00873 -0.0937,-7.36416 -2.44988,-14.12313 z m 205.69916,7.33701 c -1.2258,-3.06328 -2.13573,-2.1534 -2.31997,2.32001 -0.16666,4.04798 0.74081,6.316 2.01684,5.04 1.27599,-1.27603 1.41239,-4.58803 0.30298,-7.36001 z m 8.56815,-41.52 c 0.11597,-11.616 -1.05842,-23.10712 -2.61008,-25.53585 -1.55167,-2.42872 -2.82121,10.03984 -2.82121,27.70791 0,17.66807 1.17454,29.15923 2.61008,25.53584 1.43559,-3.62334 2.70513,-16.0919 2.82121,-27.7079 z m -12.92674,-49.56315 c -8.43521,-16.31186 -11.17148,-15.04585 -3.27422,1.51492 3.51238,7.3655 7.06783,12.71005 7.90103,11.87685 0.83321,-0.8332 -1.24884,-6.85951 -4.62681,-13.39177 z m -196.47936,5.2037 c 1.31132,-3.41729 0.66759,-4.95867 -1.50916,-3.61336 -2.0878,1.29032 -3.79603,3.97209 -3.79603,5.95945 0,5.52357 2.7524,4.3064 5.30519,-2.34609 z m 229.40356,-23.51255 c -4.52675,-7.78448 -5.61988,-5.29286 -1.91436,4.36355 1.31689,3.4318 3.20329,5.43076 4.19198,4.44207 0.98868,-0.98868 -0.0346,-4.95122 -2.27762,-8.80562 z m -203.98875,-10.848 c 7.1646,-7.392 12.16255,-13.44 11.10655,-13.44 -1.056,0 -7.78195,6.048 -14.94655,13.44 -7.16459,7.392 -12.16255,13.44 -11.10655,13.44 1.056,0 7.78196,-6.048 14.94655,-13.44 z m 155.15516,5.19783 c -9.50868,-10.71364 -36.12584,-30.15783 -41.28311,-30.15783 -2.20861,0 3.66666,4.92254 13.05615,10.93893 9.38949,6.01644 20.3636,14.65644 24.38696,19.2 4.02332,4.54361 8.17916,8.26107 9.23516,8.26107 1.056,0 -1.37184,-3.70898 -5.39516,-8.24217 z m 29.16484,-12.40766 c 0,-0.79737 -3.024,-3.82137 -6.72,-6.72 -6.09047,-4.77646 -6.22629,-4.64064 -1.44983,1.44983 5.01646,6.39648 8.16983,8.43065 8.16983,5.27017 z m 0.48484,-16.08597 c -7.25741,-9.22631 -34.19655,-32.3842 -37.6719,-32.3842 -1.7409,0 42.21055,41.8767 44.18576,42.1 0.6813,0.0772 -2.24993,-4.29512 -6.51386,-9.7158 z m -144.48484,-1.6642 c 5.06396,-2.17606 5.71799,-3.37211 1.92,-3.5113 -3.168,-0.11612 -8.352,1.46398 -11.52,3.5113 -7.0194,4.53627 -0.9565,4.53627 9.6,0 z m 69.09281,-3.79601 c 1.34531,-2.17675 -0.19622,-2.82051 -3.61336,-1.50917 -6.65249,2.5528 -7.86966,5.30518 -2.34609,5.30518 1.98736,0 4.66914,-1.70821 5.95945,-3.79601 z m 59.54719,2.31765 c 0,-0.8131 -4.752,-4.37165 -10.56,-7.90791 l -10.56,-6.42954 9.06539,7.9079 c 8.84633,7.7168 12.05461,9.42799 12.05461,6.42955 z M 490.48,373.99999 c -1.27599,-1.276 -4.58803,-1.41242 -7.36001,-0.30317 -3.06328,1.22583 -2.15339,2.13575 2.32001,2.32 4.04798,0.16674 6.316,-0.74084 5.04,-2.01684 z m 68.46605,-15.08212 c -4.09966,-3.10084 -9.28366,-5.57664 -11.52,-5.50181 -2.23634,0.0748 0.25382,2.60561 5.53394,5.62393 12.43872,7.11063 15.46694,7.04885 5.98606,-0.12211 z m 182.15577,-31.4132 c -4.1841,-6.52527 -4.29247,-6.5169 -2.19179,0.16938 1.21547,3.86874 2.34639,9.05274 2.51312,11.52 0.21888,3.23774 0.82864,3.1906 2.19176,-0.16938 1.03876,-2.56043 -0.0922,-7.74443 -2.51309,-11.52 z m 8.16691,-11.37666 c -4.52674,-7.78452 -5.61987,-5.29289 -1.91435,4.36353 1.31689,3.43182 3.20329,5.43076 4.19197,4.44208 0.98869,-0.98868 -0.0346,-4.95121 -2.27762,-8.80561 z m -15.12476,-5.92002 c -2.75543,-2.75544 -4.54398,-2.98216 -4.54398,-0.576 0,5.12556 4.54122,9.66678 7.104,7.104 1.09121,-1.0912 -0.0607,-4.0288 -2.56002,-6.528 z m 4.36762,-17.408 c -5.1312,-14.56556 -49.47525,-66.85753 -62.6958,-73.93293 -3.35819,-1.79727 5.55633,8.60448 19.81014,23.11499 14.25377,14.51052 29.49216,33.39267 33.86304,41.96035 8.10739,15.89178 13.29462,20.98413 9.02262,8.85759 z m -31.29016,-26.88 c -6.32717,-7.92 -17.27236,-19.86087 -24.32268,-26.53527 -13.2882,-12.5797 -56.06223,-39.67753 -62.65847,-39.69485 -2.06784,-0.005 9.35524,7.66733 25.38467,17.05057 18.54347,10.85493 36.56152,25.52083 49.53588,40.32 22.67885,25.86859 29.86744,31.14923 12.0606,8.85955 z m -42.90144,-54.10362 c 0,-1.77299 -4.752,-5.27635 -10.56,-7.78524 l -10.56,-4.56162 9.6,7.69986 c 10.98727,8.81256 11.52,9.02744 11.52,4.647 z m -28.57394,-18.0185 c -4.09966,-3.10083 -9.28366,-5.57664 -11.52,-5.5018 -2.23634,0.0748 0.25382,2.60561 5.53394,5.62393 12.43872,7.11062 15.46694,7.04884 5.98606,-0.12212 z M 80.6988,557.75999 c 0.04278,-7.68534 0.991415,-9.08679 3.484723,-5.14821 1.884254,2.97646 2.536919,7.72846 1.450361,10.56 -3.116003,8.12014 -4.998935,6.05533 -4.935084,-5.41179 z m -3.00791,-24 c 0,-7.392 0.790253,-10.416 1.75612,-6.72 0.965864,3.696 0.965864,9.744 0,13.44 -0.965867,3.696 -1.75612,0.672 -1.75612,-6.72 z"
         id="path359" />
      <path
         style="fill:#f26c82;stroke-width:3.84"
         d="m 470.39999,913.95062 c -44.40027,-3.37386 -90.4032,-11.73373 -117.97762,-21.43948 -24.26997,-8.54258 -86.72021,-44.80048 -120.89468,-70.19006 -50.58778,-37.58365 -81.72225,-74.46577 -108.42264,-128.4382 -14.3548,-29.01696 -26.103165,-59.26395 -30.872299,-79.48289 -10.331677,-43.80158 -9.489105,-50.59047 1.906329,-15.36 64.67819,199.96104 263.60792,321.689 467.58037,286.1192 118.91097,-20.73635 231.22909,-100.18372 290.99704,-205.83456 15.55035,-27.4881 10.67251,-8.96981 -6.85102,26.00913 -26.98357,53.86249 -74.67452,106.6747 -140.20961,155.26598 -37.3086,27.66267 -60.31373,39.82061 -90.23136,47.68623 -28.032,7.36992 -90.482,9.8092 -145.02451,5.66465 z M 261.66527,688.27099 c -21.57112,-21.57113 -37.45427,-52.86313 -40.41899,-79.631 -2.09972,-18.95793 -2.01315,-18.85072 6.8672,8.50583 10.66701,32.86049 28.66555,62.23683 47.79039,78.00115 7.61528,6.27717 11.64196,11.41302 8.94819,11.41302 -2.69378,0 -13.12783,-8.23005 -23.18679,-18.289 z m 194.52557,-74.03455 c -26.96855,-14.24256 -41.83204,-33.79088 -62.64995,-82.39645 -12.49701,-29.17793 -6.24399,-83.33314 12.65841,-109.62977 41.51293,-57.75206 129.23885,-57.65444 170.53413,0.18969 22.81643,31.96006 25.27238,76.34558 6.69369,120.9736 -27.11274,65.12766 -81.1304,95.21222 -127.23628,70.86286 z M 81.388603,558.71999 c 0.07826,-6.336 0.938872,-8.46313 1.912481,-4.72693 0.973605,3.73621 0.909577,8.92021 -0.142272,11.52 -1.05188,2.5998 -1.848469,-0.45707 -1.770209,-6.79307 z m -3.697713,-24.96 c 0,-7.392 0.790253,-10.416 1.75612,-6.72 0.965864,3.696 0.965864,9.744 0,13.44 -0.965867,3.696 -1.75612,0.672 -1.75612,-6.72 z m 535.61209,-118.1487 c -9.05676,-20.42611 -28.27988,-42.40991 -48.59486,-55.57373 -11.20047,-7.25774 -14.04952,-10.35809 -7.90813,-8.6056 21.67019,6.18373 47.94804,33.08021 59.62614,61.02977 7.95233,19.03257 5.16541,21.84307 -3.12315,3.14956 z M 742.05334,325.17493 C 724.03901,278.12114 680.58016,228.98275 635.3991,204.58232 c -25.31953,-13.67404 -22.58219,-17.45276 3.15387,-4.35364 26.41283,13.4436 55.8715,38.2482 74.59649,62.81131 20.17248,26.46189 40.71852,67.5959 38.77955,77.63831 -0.78651,4.07366 -4.78203,-2.19873 -9.87567,-15.50337 z"
         id="path357" />
      <path
         style="fill:#a19c9b;stroke-width:3.84"
         d="m 470.39999,913.95062 c -44.40027,-3.37386 -90.4032,-11.73373 -117.97762,-21.43948 -24.26997,-8.54258 -86.72021,-44.80048 -120.89468,-70.19006 -50.58778,-37.58365 -81.72225,-74.46577 -108.42264,-128.4382 -14.3548,-29.01696 -26.103165,-59.26395 -30.872299,-79.48289 -10.331677,-43.80158 -9.489105,-50.59047 1.906329,-15.36 64.67819,199.96104 263.60792,321.689 467.58037,286.1192 118.91097,-20.73635 231.22909,-100.18372 290.99704,-205.83456 15.55035,-27.4881 10.67251,-8.96981 -6.85102,26.00913 -26.98357,53.86249 -74.67452,106.6747 -140.20961,155.26598 -37.3086,27.66267 -60.31373,39.82061 -90.23136,47.68623 -28.032,7.36992 -90.482,9.8092 -145.02451,5.66465 z M 261.66527,688.27099 c -21.57112,-21.57113 -37.45427,-52.86313 -40.41899,-79.631 -2.09972,-18.95793 -2.01315,-18.85072 6.8672,8.50583 10.66701,32.86049 28.66555,62.23683 47.79039,78.00115 7.61528,6.27717 11.64196,11.41302 8.94819,11.41302 -2.69378,0 -13.12783,-8.23005 -23.18679,-18.289 z m 194.52557,-74.03455 c -26.96855,-14.24256 -41.83204,-33.79088 -62.64995,-82.39645 -12.49701,-29.17793 -6.24399,-83.33314 12.65841,-109.62977 41.51293,-57.75206 129.23885,-57.65444 170.53413,0.18969 22.81643,31.96006 25.27238,76.34558 6.69369,120.9736 -27.11274,65.12766 -81.1304,95.21222 -127.23628,70.86286 z m 59.18592,-33.70637 c 3.6172,-1.43554 -7.11836,-2.61008 -23.85677,-2.61008 -16.73841,0 -27.47397,1.17454 -23.85677,2.61008 3.61724,1.43559 14.35277,2.61013 23.85677,2.61013 9.504,0 20.23953,-1.17454 23.85677,-2.61013 z M 456.64,574.77376 c -6.10467,-4.67858 -30.40001,-17.35995 -30.40001,-15.86784 0,2.56739 24.16969,17.06212 28.48001,17.07971 1.93598,0.008 2.79998,-0.53745 1.92,-1.21187 z m 87.67999,-6.41169 c 17.33925,-10.57194 15.71704,-13.15633 -1.92,-3.05882 -17.73888,10.15587 -18.45642,10.70023 -14.08001,10.68238 1.93601,-0.008 9.13601,-3.43849 16.00001,-7.62356 z M 414.09357,540.56028 c -4.85614,-6.81984 -11.82939,-21.07584 -15.49613,-31.68 -3.6667,-10.60416 -6.6852,-15.82429 -6.70775,-11.60029 -0.0503,9.44955 13.37415,39.67265 21.71659,48.89096 9.82133,10.85245 10.08103,7.86247 0.48729,-5.61067 z m 156.14642,4.71971 c 3.82268,-4.224 6.08632,-7.68 5.03032,-7.68 -1.056,0 -5.04764,3.456 -8.87032,7.68 -3.82268,4.224 -6.08632,7.68 -5.03032,7.68 1.056,0 5.04764,-3.456 8.87032,-7.68 z m 13.32238,-24.96 c 0,-2.112 -1.67505,-1.248 -3.72238,1.92 -2.04734,3.168 -3.72238,7.488 -3.72238,9.6 0,2.112 1.67504,1.248 3.72238,-1.92 2.04733,-3.168 3.72238,-7.488 3.72238,-9.6 z m -100.66982,5.92493 c -7.91309,-1.53554 -17.50176,-5.22482 -21.3082,-8.1984 -3.8064,-2.97358 -2.8517,-1.51853 2.12156,3.23347 5.8454,5.58532 13.37898,8.48386 21.3082,8.1984 12.21266,-0.43968 12.20344,-0.4537 -2.12156,-3.23347 z m -0.25805,-11.74856 c -5.94305,-1.78391 -12.93646,-4.65938 -15.54098,-6.38991 -2.60452,-1.73058 -1.43862,-0.1225 2.59089,3.57354 4.02954,3.696 11.02299,6.57147 15.54098,6.38995 6.66174,-0.26765 6.17195,-0.94322 -2.59089,-3.57358 z m -23.05137,-27.53637 c -1.2258,-3.06328 -2.13573,-2.1534 -2.31997,2.32001 -0.16666,4.04798 0.74081,6.316 2.01684,5.04 1.276,-1.27603 1.41239,-4.58803 0.30298,-7.36001 z m 85.69686,-85.58139 c 0,-2.82981 -22.05892,-13.5507 -27.64931,-13.43792 -2.74487,0.0553 1.92131,3.37152 10.36931,7.36919 18.41625,8.71468 17.28,8.31563 17.28,6.06873 z M 81.388603,558.71999 c 0.07826,-6.336 0.938872,-8.46313 1.912481,-4.72693 0.973605,3.73621 0.909577,8.92021 -0.142272,11.52 -1.05188,2.5998 -1.848469,-0.45707 -1.770209,-6.79307 z m -3.697713,-24.96 c 0,-7.392 0.790253,-10.416 1.75612,-6.72 0.965864,3.696 0.965864,9.744 0,13.44 -0.965867,3.696 -1.75612,0.672 -1.75612,-6.72 z m 535.61209,-118.1487 c -9.05676,-20.42611 -28.27988,-42.40991 -48.59486,-55.57373 -11.20047,-7.25774 -14.04952,-10.35809 -7.90813,-8.6056 21.67019,6.18373 47.94804,33.08021 59.62614,61.02977 7.95233,19.03257 5.16541,21.84307 -3.12315,3.14956 z M 742.05334,325.17493 C 724.03901,278.12114 680.58016,228.98275 635.3991,204.58232 c -25.31953,-13.67404 -22.58219,-17.45276 3.15387,-4.35364 26.41283,13.4436 55.8715,38.2482 74.59649,62.81131 20.17248,26.46189 40.71852,67.5959 38.77955,77.63831 -0.78651,4.07366 -4.78203,-2.19873 -9.87567,-15.50337 z"
         id="path355" />
      <path
         style="fill:#f46479;stroke-width:3.84"
         d="M 495.35999,915.3983 C 451.64094,912.57633 401.83537,905.37383 375.14193,898.01324 319.02846,882.54027 234.96022,830.23744 184.0993,779.1566 c -27.80731,-27.92755 -36.1827,-39.53483 -54.45724,-75.4712 -13.46897,-26.48632 -20.8388,-45.36315 -19.58397,-50.16165 1.57123,-6.00837 5.08874,-1.90452 16.05695,18.73359 83.62967,157.36009 259.945,243.5343 435.60441,212.90185 108.60488,-18.93911 213.32275,-87.87241 277.63956,-182.76357 20.57867,-30.36111 12.21596,-7.61771 -11.25999,30.62308 -45.68487,74.41755 -144.48384,155.07118 -213.89979,174.61505 -21.81957,6.14327 -82.51749,10.10903 -118.83924,7.76455 z M 261.66527,688.27099 c -21.57112,-21.57113 -37.45427,-52.86313 -40.41899,-79.631 -2.09972,-18.95793 -2.01315,-18.85072 6.8672,8.50583 10.66701,32.86049 28.66555,62.23683 47.79039,78.00115 7.61528,6.27717 11.64196,11.41302 8.94819,11.41302 -2.69378,0 -13.12783,-8.23005 -23.18679,-18.289 z m 194.52557,-74.03455 c -26.96855,-14.24256 -41.83204,-33.79088 -62.64995,-82.39645 -12.49701,-29.17793 -6.24399,-83.33314 12.65841,-109.62977 41.51293,-57.75206 129.23885,-57.65444 170.53413,0.18969 22.81643,31.96006 25.27238,76.34558 6.69369,120.9736 -27.11274,65.12766 -81.1304,95.21222 -127.23628,70.86286 z m 59.18592,-33.70637 c 3.6172,-1.43554 -7.11836,-2.61008 -23.85677,-2.61008 -16.73841,0 -27.47397,1.17454 -23.85677,2.61008 3.61724,1.43559 14.35277,2.61013 23.85677,2.61013 9.504,0 20.23953,-1.17454 23.85677,-2.61013 z M 456.64,574.77376 c -6.10467,-4.67858 -30.40001,-17.35995 -30.40001,-15.86784 0,2.56739 24.16969,17.06212 28.48001,17.07971 1.93598,0.008 2.79998,-0.53745 1.92,-1.21187 z m 87.67999,-6.41169 c 17.33925,-10.57194 15.71704,-13.15633 -1.92,-3.05882 -17.73888,10.15587 -18.45642,10.70023 -14.08001,10.68238 1.93601,-0.008 9.13601,-3.43849 16.00001,-7.62356 z M 414.09357,540.56028 c -4.85614,-6.81984 -11.82939,-21.07584 -15.49613,-31.68 -3.6667,-10.60416 -6.6852,-15.82429 -6.70775,-11.60029 -0.0503,9.44955 13.37415,39.67265 21.71659,48.89096 9.82133,10.85245 10.08103,7.86247 0.48729,-5.61067 z m 156.14642,4.71971 c 3.82268,-4.224 6.08632,-7.68 5.03032,-7.68 -1.056,0 -5.04764,3.456 -8.87032,7.68 -3.82268,4.224 -6.08632,7.68 -5.03032,7.68 1.056,0 5.04764,-3.456 8.87032,-7.68 z m 13.32238,-24.96 c 0,-2.112 -1.67505,-1.248 -3.72238,1.92 -2.04734,3.168 -3.72238,7.488 -3.72238,9.6 0,2.112 1.67504,1.248 3.72238,-1.92 2.04733,-3.168 3.72238,-7.488 3.72238,-9.6 z m -100.66982,5.92493 c -7.91309,-1.53554 -17.50176,-5.22482 -21.3082,-8.1984 -3.8064,-2.97358 -2.8517,-1.51853 2.12156,3.23347 5.8454,5.58532 13.37898,8.48386 21.3082,8.1984 12.21266,-0.43968 12.20344,-0.4537 -2.12156,-3.23347 z m -0.25805,-11.74856 c -5.94305,-1.78391 -12.93646,-4.65938 -15.54098,-6.38991 -2.60452,-1.73058 -1.43862,-0.1225 2.59089,3.57354 4.02954,3.696 11.02299,6.57147 15.54098,6.38995 6.66174,-0.26765 6.17195,-0.94322 -2.59089,-3.57358 z m -23.05137,-27.53637 c -1.2258,-3.06328 -2.13573,-2.1534 -2.31997,2.32001 -0.16666,4.04798 0.74081,6.316 2.01684,5.04 1.276,-1.27603 1.41239,-4.58803 0.30298,-7.36001 z m 85.69686,-85.58139 c 0,-2.82981 -22.05892,-13.5507 -27.64931,-13.43792 -2.74487,0.0553 1.92131,3.37152 10.36931,7.36919 18.41625,8.71468 17.28,8.31563 17.28,6.06873 z m 68.02299,14.23269 c -9.05676,-20.42611 -28.27988,-42.40991 -48.59486,-55.57373 -11.20047,-7.25774 -14.04952,-10.35809 -7.90813,-8.6056 21.67019,6.18373 47.94804,33.08021 59.62614,61.02977 7.95233,19.03257 5.16541,21.84307 -3.12315,3.14956 z M 742.05334,325.17493 C 724.03901,278.12114 680.58016,228.98275 635.3991,204.58232 c -25.31953,-13.67404 -22.58219,-17.45276 3.15387,-4.35364 26.41283,13.4436 55.8715,38.2482 74.59649,62.81131 20.17248,26.46189 40.71852,67.5959 38.77955,77.63831 -0.78651,4.07366 -4.78203,-2.19873 -9.87567,-15.50337 z"
         id="path353" />
      <path
         style="fill:#cb554e;stroke-width:3.84"
         d="M 495.35999,915.3983 C 451.64094,912.57633 401.83537,905.37383 375.14193,898.01324 319.02846,882.54027 234.96022,830.23744 184.0993,779.1566 c -27.80731,-27.92755 -36.1827,-39.53483 -54.45724,-75.4712 -13.46897,-26.48632 -20.8388,-45.36315 -19.58397,-50.16165 1.57123,-6.00837 5.08874,-1.90452 16.05695,18.73359 83.62967,157.36009 259.945,243.5343 435.60441,212.90185 108.60488,-18.93911 213.32275,-87.87241 277.63956,-182.76357 20.57867,-30.36111 12.21596,-7.61771 -11.25999,30.62308 -45.68487,74.41755 -144.48384,155.07118 -213.89979,174.61505 -21.81957,6.14327 -82.51749,10.10903 -118.83924,7.76455 z M 261.66527,688.27099 c -21.57112,-21.57113 -37.45427,-52.86313 -40.41899,-79.631 -2.09972,-18.95793 -2.01315,-18.85072 6.8672,8.50583 10.66701,32.86049 28.66555,62.23683 47.79039,78.00115 7.61528,6.27717 11.64196,11.41302 8.94819,11.41302 -2.69378,0 -13.12783,-8.23005 -23.18679,-18.289 z m 194.52557,-74.03455 c -27.15356,-14.34029 -45.0015,-38.00452 -62.14468,-82.39645 -6.52635,-16.8998 -7.46,-22.21482 -6.40842,-36.48 0.48864,-6.62884 2.3831,-3.37901 6.121,10.50033 16.56142,61.49475 73.91408,92.02114 134.25799,71.4599 22.14236,-7.54464 48.72376,-32.5235 55.98808,-52.61261 5.5205,-15.26661 11.76953,-19.26459 8.35861,-5.34762 -4.9018,19.99979 -24.05023,56.62537 -37.23402,71.21825 -27.32348,30.24384 -68.0352,39.97882 -98.93856,23.6582 z m 14.20915,-92.79448 c -4.224,-2.42246 -9.78505,-7.12189 -12.35789,-10.44322 -5.25496,-6.78375 -6.66194,-34.83875 -1.74716,-34.83875 1.7462,0 2.42915,5.08147 1.51761,11.29213 -1.2333,8.403 0.85716,13.80669 8.17048,21.12 10.52774,10.52775 21.34068,12.34388 33.7983,5.67675 4.26605,-2.28311 8.63301,-3.27452 9.70441,-2.20316 2.43786,2.4379 -19.65055,14.07579 -26.41506,13.9175 -2.74487,-0.0641 -8.44669,-2.09879 -12.67069,-4.52125 z M 578.47514,432.60087 C 546.01397,377.21006 467.75108,367.15544 418.56806,412.05726 l -13.43198,12.26273 11.51198,-12.96568 c 32.34001,-36.42389 101.79048,-42.21052 139.22998,-11.60068 12.00565,9.81558 28.79405,31.72043 32.80785,42.80636 4.16701,11.5091 -0.0269,7.41884 -10.21075,-9.95912 z m 34.82784,-16.98958 c -9.05676,-20.42611 -28.27988,-42.40991 -48.59486,-55.57373 -11.20047,-7.25774 -14.04952,-10.35809 -7.90813,-8.6056 21.67019,6.18373 47.94804,33.08021 59.62614,61.02977 7.95233,19.03257 5.16541,21.84307 -3.12315,3.14956 z M 742.05334,325.17493 C 724.03901,278.12114 680.58016,228.98275 635.3991,204.58232 c -25.31953,-13.67404 -22.58219,-17.45276 3.15387,-4.35364 26.41283,13.4436 55.8715,38.2482 74.59649,62.81131 20.17248,26.46189 40.71852,67.5959 38.77955,77.63831 -0.78651,4.07366 -4.78203,-2.19873 -9.87567,-15.50337 z"
         id="path351" />
      <path
         style="fill:#b5554e;stroke-width:3.84"
         d="M 495.35999,915.3983 C 451.64094,912.57633 401.83537,905.37383 375.14193,898.01324 319.02846,882.54027 234.96022,830.23744 184.0993,779.1566 c -27.86769,-27.98818 -36.16762,-39.50518 -54.61913,-75.78957 -12.77098,-25.11372 -20.78486,-45.32172 -19.40218,-48.92494 1.6757,-4.36681 5.89026,0.47673 14.60097,16.78003 51.17976,95.78991 139.30513,169.15864 242.13187,201.58678 91.5662,28.87692 196.79087,23.29694 288.30441,-15.2885 63.957,-26.96662 141.69162,-91.77619 182.08189,-151.80683 22.1487,-32.9189 15.35332,-12.52462 -9.09811,27.30513 -45.68487,74.41755 -144.48384,155.07118 -213.89979,174.61505 -21.81957,6.14327 -82.51749,10.10903 -118.83924,7.76455 z M 256.44788,680.44576 c -15.57306,-16.64886 -34.25914,-54.18271 -33.43027,-67.14981 0.1637,-2.56078 3.18993,3.12004 6.72498,12.62404 9.92425,26.68139 19.45171,42.85328 34.49983,58.56 7.58792,7.92 12.81798,14.4 11.62237,14.4 -1.19562,0 -9.93323,-8.2954 -19.41691,-18.43423 z m 209.91708,-70.72523 c -5.95692,-4.68573 -13.47579,-8.90769 -16.70861,-9.38216 -15.51176,-2.27662 -58.15949,-63.32148 -57.82606,-82.77074 0.12403,-7.23705 1.15523,-6.45108 5.9068,4.50236 19.55632,45.08168 65.23945,69.58952 113.39977,60.83608 24.2233,-4.40271 43.85,-16.38808 62.68558,-38.27992 12.66643,-14.72167 13.73975,-15.30658 9.36994,-5.10616 -11.69652,27.30336 -41.68362,59.43425 -65.71053,70.40824 -23.15682,10.57655 -37.48094,10.51834 -51.11689,-0.20774 z m -3.8195,-96.90601 c -5.184,-5.184 -9.35785,-12.528 -9.27517,-16.32 0.0918,-4.21095 2.23972,-2.089 5.51839,5.45165 3.21845,7.40229 8.92462,13.10876 14.24966,14.2505 4.8849,1.04736 12.33765,2.63513 16.56165,3.52835 4.46296,0.9438 2.37919,1.81067 -4.97453,2.06953 -8.72356,0.3072 -15.58249,-2.48248 -22.08,-8.98003 z M 722.80011,284.94376 c -13.45205,-20.76002 -37.56622,-46.91248 -60.40012,-65.50559 -9.45812,-7.70151 -11.67134,-10.71845 -5.76,-7.85176 14.37058,6.96898 62.09786,56.8155 72.24568,75.45358 11.86982,21.80082 8.68927,20.70525 -6.08556,-2.09623 z"
         id="path349" />
      <path
         style="fill:#706f6f;stroke-width:3.84"
         d="M 495.35999,915.3983 C 451.64094,912.57633 401.83537,905.37383 375.14193,898.01324 319.02846,882.54027 234.96022,830.23744 184.0993,779.1566 156.23161,751.16842 147.93168,739.65142 129.48017,703.36703 116.9008,678.63005 108.70379,658.02319 110.04893,654.51781 c 1.60563,-4.18418 7.02411,2.64246 17.48547,22.02958 53.78208,99.66966 146.25726,172.04571 259.81718,203.34685 42.27145,11.65148 136.09494,14.36767 181.03069,5.24079 108.24538,-21.98568 207.53841,-88.07684 268.28486,-178.57504 22.58316,-33.6437 16.1689,-13.83625 -8.56811,26.45871 -45.68487,74.41755 -144.48384,155.07118 -213.89979,174.61505 -21.81957,6.14327 -82.51749,10.10903 -118.83924,7.76455 z M 260.55263,684.47999 c -15.70488,-16.57264 -26.31899,-31.64099 -26.29828,-37.33444 0.008,-2.17006 3.63272,2.10244 8.05516,9.49444 4.42244,7.392 14.27068,19.92 21.88497,27.84 7.61428,7.92 12.98016,14.4 11.92416,14.4 -1.056,0 -8.06071,-6.48 -15.56601,-14.4 z m -31.59824,-49.10846 c -1.31692,-3.43181 -2.28486,-8.25834 -2.15099,-10.72562 0.13386,-2.46723 1.89899,-0.34713 3.92249,4.71157 2.0235,5.05862 2.99145,9.88516 2.15099,10.72562 -0.84046,0.84046 -2.60558,-1.27976 -3.92249,-4.71157 z m 231.82076,-47.59941 c -26.41813,-8.03604 -57.09685,-34.47413 -65.42654,-56.38287 -5.62717,-14.80063 -4.06103,-20.34198 1.88625,-6.67377 7.85856,18.06087 30.08674,40.86559 49.0767,50.34962 40.60074,20.27697 82.63234,13.19632 116.52322,-19.62958 23.13992,-22.41277 26.9121,-23.10559 9.26991,-1.70254 -17.18016,20.84252 -53.46466,37.70861 -80.23802,37.29696 -11.8067,-0.18163 -25.79785,-1.64755 -31.09152,-3.25782 z m 1.77031,-74.9576 c -5.184,-5.184 -9.35627,-11.664 -9.27172,-14.4 0.0845,-2.736 2.72022,-0.24461 5.85708,5.53666 3.23451,5.96122 10.23241,11.50883 16.16625,12.81589 17.17854,3.78397 18.70717,4.85069 7.40839,5.16975 -6.57796,0.18586 -14.38425,-3.34652 -20.16,-9.1223 z M 719.90487,279.35999 c -5.89359,-8.976 -22.10723,-27.47228 -36.03026,-41.10284 -13.92303,-13.63056 -19.88721,-20.99117 -13.25368,-16.3569 15.01947,10.49279 47.06507,45.60555 56.31617,61.7063 10.10073,17.57952 5.45779,14.77578 -7.03223,-4.24656 z"
         id="path347" />
      <path
         style="fill:#a24437;stroke-width:3.84"
         d="M 499.19999,915.32807 C 390.621,908.68057 343.38448,893.57271 257.27999,837.95369 203.88828,803.46538 132.19906,727.12107 140.53699,713.63 c 1.78593,-2.88971 1.0247,-3.36292 -2.20185,-1.3688 -3.30087,2.04003 -4.30816,1.28394 -3.04635,-2.28669 1.03683,-2.93399 -1.331,-11.74567 -5.26183,-19.58154 -11.73655,-23.39608 -8.09963,-21.9272 6.75208,2.72702 55.03472,91.35909 143.4171,157.23839 250.57254,186.77425 42.27145,11.65148 136.09494,14.36767 181.03069,5.24079 91.534,-18.59143 161.06408,-58.52797 232.78329,-133.70557 l 37.31033,-39.10947 -11.23795,20.94885 c -21.99468,41.0006 -108.4699,122.77109 -160.01891,151.31293 -44.4306,24.60053 -100.57847,34.87518 -168.01904,30.7463 z M 260.55263,684.47999 c -15.70488,-16.57264 -26.31899,-31.64099 -26.29828,-37.33444 0.008,-2.17006 3.63272,2.10244 8.05516,9.49444 4.42244,7.392 14.27068,19.92 21.88497,27.84 7.61428,7.92 12.98016,14.4 11.92416,14.4 -1.056,0 -8.06071,-6.48 -15.56601,-14.4 z m -31.59824,-49.10846 c -1.31692,-3.43181 -2.28486,-8.25834 -2.15099,-10.72562 0.13386,-2.46723 1.89899,-0.34713 3.92249,4.71157 2.0235,5.05862 2.99145,9.88516 2.15099,10.72562 -0.84046,0.84046 -2.60558,-1.27976 -3.92249,-4.71157 z m 231.82076,-47.59941 c -26.41813,-8.03604 -57.09685,-34.47413 -65.42654,-56.38287 -5.62717,-14.80063 -4.06103,-20.34198 1.88625,-6.67377 7.85856,18.06087 30.08674,40.86559 49.0767,50.34962 40.60074,20.27697 82.63234,13.19632 116.52322,-19.62958 23.13992,-22.41277 26.9121,-23.10559 9.26991,-1.70254 -17.18016,20.84252 -53.46466,37.70861 -80.23802,37.29696 -11.8067,-0.18163 -25.79785,-1.64755 -31.09152,-3.25782 z m 1.77031,-74.9576 c -5.184,-5.184 -9.35627,-11.664 -9.27172,-14.4 0.0845,-2.736 2.72022,-0.24461 5.85708,5.53666 3.23451,5.96122 10.23241,11.50883 16.16625,12.81589 17.17854,3.78397 18.70717,4.85069 7.40839,5.16975 -6.57796,0.18586 -14.38425,-3.34652 -20.16,-9.1223 z M 719.90487,279.35999 c -5.89359,-8.976 -22.10723,-27.47228 -36.03026,-41.10284 -13.92303,-13.63056 -19.88721,-20.99117 -13.25368,-16.3569 15.01947,10.49279 47.06507,45.60555 56.31617,61.7063 10.10073,17.57952 5.45779,14.77578 -7.03223,-4.24656 z"
         id="path345" />
      <path
         style="fill:#933636;stroke-width:3.84"
         d="M 499.19999,915.32807 C 390.621,908.68057 343.38448,893.57271 257.27999,837.95369 203.88828,803.46538 132.19906,727.12107 140.53699,713.63 c 1.78593,-2.88971 1.0247,-3.36292 -2.20185,-1.3688 -3.30087,2.04003 -4.30816,1.28394 -3.04635,-2.28669 1.03683,-2.93399 -1.45154,-11.98199 -5.52971,-20.10666 -4.07817,-8.12463 -6.4303,-15.75663 -5.22696,-16.95997 1.20333,-1.20334 2.18788,-0.3936 2.18788,1.79942 0,7.31877 36.82368,60.3643 57.90373,83.4119 122.6145,134.05912 318.58941,172.32949 482.82624,94.28732 48.42973,-23.01289 85.07639,-50.44362 130.18721,-97.44756 40.27227,-41.96237 40.74263,-42.30655 29.64219,-21.69012 -22.11982,41.08235 -108.55864,122.79728 -160.06034,151.31293 -44.4306,24.60053 -100.57847,34.87518 -168.01904,30.7463 z m -43.2364,-329.45663 c -23.29786,-8.3136 -46.08849,-27.95232 -56.95527,-49.07847 -10.81363,-21.0228 -8.90522,-22.38309 3.64297,-2.59664 31.25361,49.28179 90.20636,66.56236 137.29429,40.24443 9.37002,-5.237 15.91968,-7.71499 14.55486,-5.50664 -1.36485,2.20835 -11.34178,8.14072 -22.171,13.18303 -22.51995,10.48573 -53.2658,11.99727 -76.36585,3.75429 z m 6.58187,-73.05692 c -5.184,-5.184 -9.35627,-11.664 -9.27172,-14.4 0.0845,-2.736 2.72022,-0.24461 5.85708,5.53666 3.23451,5.96122 10.23241,11.50883 16.16625,12.81589 17.17854,3.78397 18.70717,4.85069 7.40839,5.16975 -6.57796,0.18586 -14.38425,-3.34652 -20.16,-9.1223 z M 690.99328,242.88 l -13.23329,-14.4 14.4,13.23328 c 13.40321,12.31725 16.16559,15.56671 13.23329,15.56671 -0.6417,0 -7.1217,-6.48 -14.4,-14.39999 z"
         id="path343" />
      <path
         style="fill:#4f4e4e;stroke-width:3.84"
         d="M 499.19999,915.32807 C 390.621,908.68057 343.38448,893.57271 257.27999,837.95369 203.88828,803.46538 132.19906,727.12107 140.53699,713.63 c 1.78593,-2.88971 1.0247,-3.36292 -2.20185,-1.3688 -3.30087,2.04003 -4.30816,1.28394 -3.04635,-2.28669 1.03683,-2.93399 -1.5434,-12.24652 -5.73384,-20.69452 -10.20759,-20.57872 -6.9729,-16.92407 15.52795,17.54377 67.7454,103.77553 178.70729,170.35814 307.83561,184.71655 70.04497,7.78863 153.7246,-7.91785 220.36384,-41.36175 46.63373,-23.40384 68.4783,-39.95935 117.1384,-88.77643 45.48472,-45.63148 46.94453,-46.7263 36.47999,-27.35903 -21.85351,40.44537 -108.6786,122.29908 -159.68171,150.53867 -44.4306,24.60053 -100.57847,34.87518 -168.01904,30.7463 z m -18.1872,-326.72359 c 5.83703,-0.88266 14.47703,-0.85905 19.2,0.0522 4.72297,0.91147 -0.0526,1.63362 -10.6128,1.60482 -10.56,-0.0307 -14.42423,-0.77461 -8.5872,-1.65723 z m -39.4128,-10.48792 c -18.31238,-9.58629 -29.07963,-19.81571 -40.62597,-38.59657 -4.10127,-6.67096 0.90517,-2.78776 11.8939,9.22537 10.91743,11.93514 27.16332,24.5578 38.2542,29.72248 10.60285,4.9374 16.68587,8.91356 13.51787,8.83584 -3.168,-0.0776 -13.536,-4.2119 -23.04,-9.18712 z"
         id="path341" />
      <path
         style="fill:#5c302b;stroke-width:3.84"
         d="m 433.50128,908.05258 c -69.83024,-11.78512 -109.73961,-27.43511 -166.82501,-65.4184 -37.22966,-24.77176 -71.77861,-54.64285 -68.79104,-59.47683 1.12961,-1.82777 -8.80445,-15.20076 -22.0757,-29.7178 -20.68346,-22.62501 -45.3576,-58.39956 -40.2789,-58.39956 0.89212,0 7.83086,9.35116 15.41944,20.78039 20.4787,30.84314 58.27726,69.79499 92.25408,95.06891 59.80461,44.48605 131.11823,71.91152 209.71436,80.65102 35.67651,3.96703 48.16688,3.70898 87.47032,-1.80722 92.22412,-12.9436 164.55766,-46.41504 229.49245,-106.19478 14.80527,-13.62992 32.78607,-30.04592 39.95727,-36.48 l 13.03857,-11.69832 -7.27857,13.37003 c -10.68204,19.62194 -75.53622,83.88441 -110.96924,109.95678 -33.77284,24.85079 -64.82223,40.19367 -99.75172,49.29163 -28.17231,7.33797 -128.08001,7.38117 -171.37631,0.0741 z M 128.4821,687.10451 c -1.39213,-2.2525 -1.70758,-4.91904 -0.70101,-5.92562 1.00657,-1.00658 2.85337,0.83639 4.104,4.09548 2.59655,6.7665 0.38343,7.95671 -3.40299,1.83014 z m 352.53069,-98.50003 c 5.83703,-0.88266 14.47703,-0.85905 19.2,0.0522 4.72297,0.91147 -0.0526,1.63362 -10.6128,1.60482 -10.56,-0.0307 -14.42423,-0.77461 -8.5872,-1.65723 z m -39.4128,-10.48792 c -18.31238,-9.58629 -29.07963,-19.81571 -40.62597,-38.59657 -4.10127,-6.67096 0.90517,-2.78776 11.8939,9.22537 10.91743,11.93514 27.16332,24.5578 38.2542,29.72248 10.60285,4.9374 16.68587,8.91356 13.51787,8.83584 -3.168,-0.0776 -13.536,-4.2119 -23.04,-9.18712 z"
         id="path339" />
      <path
         style="fill:#2c2a2a;stroke-width:3.84"
         d="m 433.50128,908.05258 c -46.56757,-7.85914 -76.25719,-16.41278 -106.42766,-30.66213 -52.73558,-24.9067 -129.95363,-81.7897 -129.95363,-95.73089 0,-3.28877 0.51832,-5.97958 1.15183,-5.97958 0.6335,0 10.2815,8.11047 21.44,18.02324 121.0027,107.49411 304.70925,130.44879 454.31964,56.76856 42.98296,-21.16831 74.06266,-43.58488 116.30258,-83.88453 26.18096,-24.97836 31.25545,-28.55178 25.35836,-17.85723 -10.8884,19.74635 -75.79223,84.00372 -111.06309,109.95678 -33.77284,24.85079 -64.82223,40.19367 -99.75172,49.29163 -28.17231,7.33797 -128.08001,7.38117 -171.37631,0.0741 z M 168.35585,745.45523 c -15.49246,-17.37738 -32.65466,-42.73524 -28.92323,-42.73524 0.89474,0 6.25578,6.99482 11.9134,15.54408 5.65763,8.54927 16.45633,22.37327 23.99712,30.72 7.54078,8.34674 12.80558,15.17591 11.69954,15.17591 -1.10604,0 -9.51512,-8.41712 -18.68683,-18.70475 z"
         id="path337" />
      <path
         style="fill:#0a0808;stroke-width:3.84"
         d="M 476.15999,909.95196 C 426.04273,906.33802 369.53673,895.01201 342.67802,883.19699 313.11465,870.19217 283.82,851.22334 288.67007,848.22584 c 4.84112,-2.99198 23.02965,3.92006 20.61144,7.83279 -0.83471,1.35061 1.37947,2.65728 4.92041,2.90373 3.54094,0.24653 21.12607,5.73116 39.07807,12.18824 74.00694,26.6193 162.24699,30.4679 240,10.46769 38.64987,-9.9418 108.56874,-40.96101 131.26379,-58.23456 6.72307,-5.11707 13.85629,-9.30375 15.85164,-9.30375 1.9953,0 5.99857,-3.44574 8.8962,-7.65723 3.411,-4.95763 7.02182,-6.53214 10.24201,-4.46607 3.57834,2.29594 -2.88515,10.17366 -23.04,28.08119 -81.07484,72.03475 -135.95969,88.88264 -260.33364,79.91409 z M 164.82936,742.07998 155.52,731.51999 l 10.56,9.30935 c 9.86991,8.70101 12.32097,11.81064 9.30936,11.81064 -0.68785,0 -5.43985,-4.752 -10.56,-10.56 z"
         id="path335" />
    </g>
  </g>
</svg>
