<?xml version="1.0" standalone="no"?>
<!DOCTYPE svg PUBLIC "-//W3C//DTD SVG 20010904//EN"
 "http://www.w3.org/TR/2001/REC-SVG-20010904/DTD/svg10.dtd">
<svg version="1.0" xmlns="http://www.w3.org/2000/svg"
 width="256.000000pt" height="256.000000pt" viewBox="0 0 256.000000 256.000000"
 preserveAspectRatio="xMidYMid meet">

<g transform="translate(0.000000,256.000000) scale(0.100000,-0.100000)"
fill="#000000" stroke="none">
<path d="M1145 2303 c11 -3 26 -10 34 -17 12 -9 13 -8 7 3 -7 10 -4 12 12 7
11 -4 23 -2 27 4 4 6 -12 10 -47 9 -29 -1 -44 -4 -33 -6z"/>
<path d="M1063 2293 c9 -2 23 -2 30 0 6 3 -1 5 -18 5 -16 0 -22 -2 -12 -5z"/>
<path d="M925 2263 c-11 -3 -24 -9 -30 -13 -5 -4 -27 -13 -47 -19 -21 -7 -38
-17 -38 -23 0 -7 5 -6 14 1 8 7 28 13 45 13 17 1 28 5 25 10 -5 8 2 10 40 12
11 1 21 7 23 14 5 12 2 13 -32 5z"/>
<path d="M750 2181 c0 -6 5 -13 10 -16 6 -3 10 1 10 9 0 9 -4 16 -10 16 -5 0
-10 -4 -10 -9z"/>
<path d="M721 2161 c-7 -5 -12 -14 -10 -20 2 -6 10 -2 17 9 14 22 13 23 -7 11z"/>
<path d="M611 2081 c-30 -26 -50 -50 -45 -54 6 -3 21 7 34 24 14 16 29 29 35
29 5 0 24 11 40 25 26 21 27 24 10 24 -11 0 -44 -21 -74 -48z"/>
<path d="M1195 1985 c-25 -53 -45 -98 -45 -100 0 -2 -22 -50 -48 -107 -27 -57
-54 -118 -61 -135 -15 -37 -9 -36 -221 -58 -265 -28 -310 -35 -320 -55 -6 -10
-7 -25 -4 -33 3 -9 88 -90 190 -182 101 -92 184 -172 184 -179 0 -10 -9 -54
-75 -371 -23 -110 -23 -120 -8 -137 9 -10 22 -18 28 -18 7 0 61 28 121 63 60
35 145 83 189 107 44 24 93 51 109 61 20 12 35 15 50 9 11 -4 111 -60 221
-124 110 -64 207 -116 216 -116 47 0 42 51 -46 455 -8 39 -15 73 -15 76 0 3
83 81 184 174 102 92 187 174 190 182 3 8 2 22 -3 32 -10 19 -42 24 -346 56
-77 9 -149 17 -160 20 -14 3 -34 36 -69 117 -57 129 -142 316 -155 338 -4 8
-20 16 -35 18 -25 3 -30 -3 -71 -93z"/>
<path d="M535 2010 c-3 -5 -2 -10 4 -10 5 0 13 5 16 10 3 6 2 10 -4 10 -5 0
-13 -4 -16 -10z"/>
<path d="M505 1977 c-32 -39 -37 -47 -28 -47 5 0 19 14 31 30 21 28 18 43 -3
17z"/>
<path d="M447 1903 c-5 -7 -5 -13 0 -13 4 0 3 -4 -3 -8 -21 -14 -64 -91 -54
-97 6 -3 10 0 10 8 0 12 10 27 50 75 6 7 10 20 8 30 -3 12 -6 14 -11 5z"/>
<path d="M366 1761 c-7 -11 -34 -82 -47 -125 -7 -23 -6 -27 3 -18 7 7 13 17
14 24 4 20 26 81 36 101 10 20 4 35 -6 18z"/>
<path d="M291 1524 c0 -11 3 -14 6 -6 3 7 2 16 -1 19 -3 4 -6 -2 -5 -13z"/>
<path d="M2345 851 c-48 -108 -156 -259 -247 -347 -203 -197 -457 -310 -738
-329 -230 -16 -480 43 -675 159 -185 110 -347 280 -439 461 -44 86 -46 69 -5
-33 143 -358 435 -626 783 -716 493 -128 989 103 1246 579 34 62 113 272 108
285 -2 4 -16 -22 -33 -59z"/>
</g>
</svg>
