<?xml version="1.0" encoding="UTF-8"?>
<svg xmlns="http://www.w3.org/2000/svg" xmlns:xlink="http://www.w3.org/1999/xlink" width="256px" height="256px" viewBox="0 0 256 256" version="1.1">
<g id="surface1">
<path style=" stroke:none;fill-rule:nonzero;fill:rgb(0%,0%,0%);fill-opacity:1;" d="M 108.300781 41 C 94.398438 44.199219 79.101562 52.199219 68.5 61.898438 C 48.800781 80 39 102 39 128.398438 C 39 163.601562 59.101562 194.800781 91.398438 209.5 C 102.5 214.601562 110 216.199219 125.300781 216.699219 C 142 217.300781 153 215.199219 166.101562 208.898438 C 198.601562 193.199219 217.300781 163.398438 217.199219 127.5 C 217.101562 93.898438 198.5 63.398438 169 48.5 C 150.898438 39.398438 128.101562 36.601562 108.300781 41 Z M 147 43 C 153.800781 44.398438 161.398438 47.101562 168.300781 50.601562 C 174.800781 53.898438 182 58.800781 182 59.898438 C 182 60.398438 178.699219 62.800781 174.800781 65.300781 C 170.800781 67.800781 166 71.101562 164.199219 72.699219 L 160.898438 75.5 L 162.5 82.398438 C 165.800781 96.699219 173.5 108.699219 182.199219 113.101562 C 186.699219 115.398438 187.5 118.300781 186.800781 129.800781 C 186.199219 138.5 183.101562 146.601562 176.199219 156.800781 C 166 171.800781 154.398438 178.398438 136 179.699219 C 113 181.300781 89.300781 170.398438 77.300781 152.800781 C 71.199219 143.898438 69.601562 137.800781 69.5 123.5 C 69.5 111 69.601562 110.300781 72.5 104.601562 C 79 91.699219 97.199219 81.601562 125.601562 75.101562 C 130.601562 73.898438 136 73 137.601562 73 C 141 73 142 72.398438 144.300781 68.800781 C 147.300781 64 146.800781 63.699219 136.800781 64.5 C 95.101562 67.601562 56.699219 88.601562 45.101562 114.5 C 42.800781 119.601562 42.699219 115.5 45 106.898438 C 53.898438 72.300781 81.199219 47.800781 117.5 41.898438 C 123.699219 40.898438 139.601562 41.5 147 43 Z M 212.898438 147 C 208.300781 167 198.199219 183.398438 183 195.5 C 153.601562 219 114.101562 221.5 82.601562 202.101562 C 78 199.199219 78.5 198.5 84.101562 200 C 105.699219 205.800781 133 200.5 159.199219 185.398438 C 182.898438 171.800781 202.5 151.5 212 131 L 214.5 125.601562 L 214.800781 131.601562 C 215 135.199219 214.300781 141.199219 212.898438 147 Z M 212.898438 147 "/>
</g>
</svg>
