<svg id="Layer_1" data-name="Layer 1" xmlns="http://www.w3.org/2000/svg" viewBox="0 0 256 256"><defs><style>.cls-1{fill:none;stroke:#f15a24;stroke-miterlimit:10;stroke-width:2px;}.cls-2{fill:#f15a24;}.cls-3{fill:#fff;}.cls-4{fill:#666;}.cls-5{fill:#1a1a1a;}</style></defs><g id="Layer_4" data-name="Layer 4"><path class="cls-1" d="M39.12,96.47v85c0,1.06.45,1.93,1,1.93H58.27c1.15,0,1.43-3,.35-3.75l-7.75-5.23a.61.61,0,0,0-.35-.11H46.44c-.57,0-1-.86-1-1.93V104.81a2,2,0,0,1,.82-1.89l22.89-4.56c1.21-.47,1-3.82-.21-3.82H40.14C39.58,94.53,39.12,95.4,39.12,96.47Z"/><path class="cls-1" d="M53.06,169.26V83.67H38.37c9.29,3.27,22.07,4.94,31.91,4.94h.65A4.11,4.11,0,0,1,75,92.72v41.21c0,13-21.63,25.06-32.48,32.15l-6.07,3.18Z"/><polygon class="cls-2" points="188.99 158.14 128.27 158.14 127.73 158.14 67.01 158.14 49.65 169.26 67.01 180.37 127.73 180.37 128.27 180.37 188.99 180.37 206.35 169.26 188.99 158.14"/><polygon class="cls-2" points="171.74 147.8 134.82 147.8 121.18 147.8 84.26 147.8 69.93 151.01 84.26 154.22 121.18 154.22 134.82 154.22 171.74 154.22 186.07 151.01 171.74 147.8"/><polygon class="cls-2" points="178.54 81.43 179.27 81.43 156.67 72.58 128.69 72.58 127.31 72.58 99.33 72.58 76.73 81.43 77.46 81.43 76.73 81.43 99.33 90.28 127.31 90.28 128.69 90.28 156.67 90.28 179.27 81.43 178.54 81.43"/><path class="cls-1" d="M216.88,96.47v85c0,1.06-.45,1.93-1,1.93H197.73c-1.15,0-1.43-3-.35-3.75l7.75-5.23a.61.61,0,0,1,.35-.11h4.08c.57,0,1-.86,1-1.93V104.81a2,2,0,0,0-.82-1.89l-22.89-4.56c-1.21-.47-1-3.82.21-3.82h28.77C216.42,94.53,216.88,95.4,216.88,96.47Z"/><path class="cls-1" d="M202.94,169.26V83.67h14.69c-9.29,3.27-22.07,4.94-31.91,4.94h-.65A4.11,4.11,0,0,0,181,92.72v41.21c0,13,21.63,25.06,32.48,32.15l6.07,3.18Z"/><polygon class="cls-3" points="187.67 161.13 134.91 161.13 121.09 161.13 68.33 161.13 55.05 169.46 68.33 177.79 121.09 177.79 134.91 177.79 187.67 177.79 200.95 169.46 187.67 161.13"/></g><g id="Layer_5" data-name="Layer 5"><path class="cls-4" d="M88,102.09h6.6c4.26,0,7,2.44,7,7.61v31.72a.69.69,0,0,1-.57.79h-5a.71.71,0,0,1-.8-.59.74.74,0,0,1,0-.21v-9.55H87.08v9.55a.7.7,0,0,1-.58.8H81.73a.71.71,0,0,1-.79-.59.37.37,0,0,1,0-.21V109.7C80.94,104.53,83.72,102.09,88,102.09Zm-.9,7.61v16.72h8.18V109.7c0-1.48-.68-2.16-2.21-2.16H89.23c-1.48,0-2.15.68-2.15,2.16Z"/><path class="cls-4" d="M124.93,136.76a.65.65,0,0,1,.7.57.81.81,0,0,1,0,.22l-.51,3.93a.83.83,0,0,1-.9.74H108.45a.71.71,0,0,1-.8-.59.74.74,0,0,1,0-.21v-38.2c0-.57.28-.79.8-.79h4.77c.51,0,.8.22.8.79v33.54Z"/><path class="cls-4" d="M148.63,113.68a.82.82,0,0,1-.79.85h0l-4.56.46a.66.66,0,0,1-.79-.5h0a1,1,0,0,1,0-.24V109.7a1.89,1.89,0,0,0-1.55-2.16,2.08,2.08,0,0,0-.61,0h-3.57a1.88,1.88,0,0,0-2.15,1.56,2,2,0,0,0,0,.6v25.24a1.89,1.89,0,0,0,1.55,2.16,2,2,0,0,0,.6,0h3.59a1.89,1.89,0,0,0,2.16-1.55,2.08,2.08,0,0,0,0-.61v-7.61h-3.07c-.52,0-.86-.29-.8-.8l.34-3.62a.82.82,0,0,1,.85-.74h8a.68.68,0,0,1,.79.57.89.89,0,0,1,0,.23v12c0,5.17-2.78,7.62-7,7.62h-6.31c-4.27,0-7-2.45-7-7.62V109.7c0-5.17,2.78-7.61,7-7.61h6.31c4.26,0,7,2.44,7,7.61Z"/><path class="cls-4" d="M153.86,134.94V109.7c0-5.17,2.79-7.61,7-7.61H168c4.27,0,7,2.44,7,7.61v25.24c0,5.17-2.78,7.62-7,7.62h-7.11C156.65,142.56,153.86,140.11,153.86,134.94Zm6.37-25.24v25.24a1.89,1.89,0,0,0,1.55,2.16,2.08,2.08,0,0,0,.61,0h4.15a1.89,1.89,0,0,0,2.16-1.55,2.08,2.08,0,0,0,0-.61V109.7a1.89,1.89,0,0,0-1.55-2.16,2.08,2.08,0,0,0-.61,0h-4.15a1.89,1.89,0,0,0-2.16,1.55A2.08,2.08,0,0,0,160.23,109.7Z"/><path class="cls-5" d="M87.37,162.69h3.22v10.36h5.7v2.76H87.37Z"/><path class="cls-5" d="M97.84,162.69h8.68v2.85h-5.47v2.36h5v2.79h-5v2.36h5.71v2.76H97.84Z"/><path class="cls-5" d="M114,162.26h.57L121,175.81h-3.47l-.66-1.36h-5.18l-.63,1.36h-3.45Zm1.79,9.9-1.51-3.32h0l-1.53,3.32Z"/><path class="cls-5" d="M127.45,162.26a7.26,7.26,0,0,1,5.49,2.29l-2.23,2a4.89,4.89,0,0,0-3.26-1.31,4,4,0,0,0,.08,7.91c2.29,0,3.41-1.26,3.5-2.53h-3.75V167.9h7.22v1.24c0,3.87-2.28,7.1-7,7.1a7,7,0,0,1,0-14Z"/><path class="cls-5" d="M136.59,162.69h3.19v8.22c0,1.75.83,2.36,1.94,2.36s2-.6,2-2.36v-8.22h3.21v8.7c0,3.1-2.31,4.85-5.2,4.85s-5.13-1.83-5.13-4.85Z"/><path class="cls-5" d="M149,162.69h8.68v2.85h-5.46v2.36h5v2.79h-5v2.36h5.71v2.76H149Z"/><path class="cls-5" d="M162.55,172a1.37,1.37,0,0,0,1.35,1.38,1.15,1.15,0,0,0,1.3-1,.86.86,0,0,0,0-.16c0-1-1.28-1.27-2.36-1.64-2.2-.78-3.43-1.81-3.43-4.06a4.36,4.36,0,0,1,4.46-4.24c2.91,0,4.28,1.85,4.46,4.28h-3a1.26,1.26,0,0,0-1.16-1.35H164a1.25,1.25,0,0,0-1.37,1.13.62.62,0,0,0,0,.13c0,1,1.21,1.16,2.31,1.49,2.35.7,3.43,2,3.43,4.05a4.34,4.34,0,0,1-4.44,4.23,4.17,4.17,0,0,1-4.47-3.85c0-.14,0-.29,0-.44Z"/><path class="cls-4" d="M87.37,162.69h3.22v10.36h5.7v2.76H87.37Z"/><path class="cls-4" d="M97.84,162.69h8.68v2.85h-5.47v2.36h5v2.79h-5v2.36h5.71v2.76H97.84Z"/><path class="cls-4" d="M114,162.26h.57L121,175.81h-3.47l-.66-1.36h-5.18l-.63,1.36h-3.45Zm1.79,9.9-1.51-3.32h0l-1.53,3.32Z"/><path class="cls-4" d="M127.45,162.26a7.26,7.26,0,0,1,5.49,2.29l-2.23,2a4.89,4.89,0,0,0-3.26-1.31,4,4,0,0,0,.08,7.91c2.29,0,3.41-1.26,3.5-2.53h-3.75V167.9h7.22v1.24c0,3.87-2.28,7.1-7,7.1a7,7,0,0,1,0-14Z"/><path class="cls-4" d="M136.59,162.69h3.19v8.22c0,1.75.83,2.36,1.94,2.36s2-.6,2-2.36v-8.22h3.21v8.7c0,3.1-2.31,4.85-5.2,4.85s-5.13-1.83-5.13-4.85Z"/><path class="cls-4" d="M149,162.69h8.68v2.85h-5.46v2.36h5v2.79h-5v2.36h5.71v2.76H149Z"/><path class="cls-4" d="M162.55,172a1.37,1.37,0,0,0,1.35,1.38,1.15,1.15,0,0,0,1.3-1,.86.86,0,0,0,0-.16c0-1-1.28-1.27-2.36-1.64-2.2-.78-3.43-1.81-3.43-4.06a4.36,4.36,0,0,1,4.46-4.24c2.91,0,4.28,1.85,4.46,4.28h-3a1.26,1.26,0,0,0-1.16-1.35H164a1.25,1.25,0,0,0-1.37,1.13.62.62,0,0,0,0,.13c0,1,1.21,1.16,2.31,1.49,2.35.7,3.43,2,3.43,4.05a4.34,4.34,0,0,1-4.44,4.23,4.17,4.17,0,0,1-4.47-3.85c0-.14,0-.29,0-.44Z"/><path class="cls-3" d="M131.18,83l-.58,1-1.86,3.24-.48.83a.25.25,0,0,1-.22.13h-2.23l.3-.55,2.64-4.56,1.63-2.82a.26.26,0,0,0,0-.21c-.24-.88-.47-1.76-.71-2.65-.07,0-.08.09-.11.14l-2.39,4.15-1.77,3c-.64,1.1-1.28,2.21-1.91,3.32a.22.22,0,0,1-.22.12h-2.21c.1-.19.2-.36.3-.53l2.64-4.6,2.63-4.57c.75-1.3,1.51-2.59,2.24-3.88a.22.22,0,0,1,.24-.13h1.77c.11,0,.15,0,.18.13.28,1.07.57,2.12.85,3.19,0,.1.08.1.16.1h2q-.15.28-.3.54l-1.14,2a.22.22,0,0,0,0,.16q.75,2.76,1.48,5.51c.19.7.38,1.4.56,2.11h-2a.16.16,0,0,1-.19-.13h0c-.24-.9-.48-1.84-.73-2.76l-.59-2.21A.43.43,0,0,0,131.18,83Z"/></g></svg>