<svg xmlns="http://www.w3.org/2000/svg" viewBox="0 0 334.63 329.34"><defs><style>.cls-1{fill:#fff;}.cls-2{fill:#44509e;}.cls-3{fill:#4453a0;}.cls-4{fill:#44529f;}.cls-5{fill:#44519f;}.cls-6{fill:#4359a4;}.cls-7{fill:#4259a5;}.cls-8{fill:#4455a2;}.cls-9{fill:#405ea8;}.cls-10{fill:#415ba6;}.cls-11{fill:#3f61aa;}.cls-12{fill:#4454a1;}.cls-13{fill:#4358a4;}.cls-14{fill:#4356a3;}.cls-15{fill:#425ca7;}.cls-16{fill:#4457a3;}.cls-17{fill:#47509e;}.cls-18{fill:#4356a2;}.cls-19{fill:#4062ac;}.cls-20{fill:#4787c7;}.cls-21{fill:#4064ad;}.cls-22{fill:#405fa9;}.cls-23{fill:#4889c8;}.cls-24{fill:#435aa5;}.cls-25{fill:#4355a1;}.cls-26{fill:#4067b0;}.cls-27{fill:#4066af;}.cls-28{fill:#488dcb;}.cls-29{fill:#488bc9;}.cls-30{fill:#488cca;}.cls-31{fill:#478ecc;}.cls-32{fill:#479dd7;}.cls-33{fill:#478fcd;}.cls-34{fill:#4791ce;}.cls-35{fill:#4692cf;}.cls-36{fill:#4063ac;}.cls-37{fill:#4793d0;}.cls-38{fill:#4694d1;}.cls-39{fill:#4795d1;}.cls-40{fill:#4696d2;}.cls-41{fill:#fefefe;}.cls-42{fill:#479fd8;}.cls-43{fill:#4699d4;}.cls-44{fill:#479ad5;}.cls-45{fill:#4069b1;}.cls-46{fill:#469bd6;}.cls-47{fill:#4798d3;}.cls-48{fill:#48a2da;}.cls-49{fill:#4379bd;}.cls-50{fill:#4584c4;}.cls-51{fill:#447cbf;}.cls-52{fill:#4582c3;}.cls-53{fill:#457dc0;}.cls-54{fill:#447bbe;}.cls-55{fill:#4380c2;}.cls-56{fill:#4685c6;}.cls-57{fill:#447fc1;}.cls-58{fill:#3f67b0;}.cls-59{fill:#3f69b1;}.cls-60{fill:#416eb5;}.cls-61{fill:#4174b9;}.cls-62{fill:#416fb5;}.cls-63{fill:#4071b7;}.cls-64{fill:#4272b8;}.cls-65{fill:#4276bb;}.cls-66{fill:#4377bc;}.cls-67{fill:#406bb2;}.cls-68{fill:#416cb3;}</style></defs><title>Risorsa 2</title><g id="Livello_2" data-name="Livello 2"><g id="Livello_1-2" data-name="Livello 1"><path class="cls-1" d="M16.78,0H334.63V329.34H0V16.78C.35,16.16,16.16.35,16.78,0Z"/><path class="cls-2" d="M187.23,263.88a60.66,60.66,0,0,1-16.8,2.62c-3.62,0-7.24-.36-10.87-.54-.66,0-1.33,0-2,0,.13-1.39,1.43-1.66,2.3-2.28,2.94-2.09,6.14-3.77,9.21-5.66,5.17-3.17,10.25-6.49,15.45-9.62,4.5-2.71,9.07-5.31,13.39-8.29,4.78-3.29,10-5.89,14.78-9.14,3.7-2.5,7.71-4.58,11.42-7.09,2.54-1.72,5.32-3,7.88-4.7,1.76-1.15,2.52-.66,2.62,1.59-1.77,3.78-3.2,7.75-5.39,11.26-2.4,3.85-5.51,7.26-8.3,10.86-.79-1,.36-1.34.67-2-12.56,7.73-25,15.54-37.63,23.18a4.32,4.32,0,0,1,2.32-.8C186.69,263.27,187.21,263.2,187.23,263.88Z"/><path class="cls-3" d="M239,201.05c0,.77-.07,1.54-.11,2.31-.13,2.65-2.31,3.47-4.13,4.59-8.65,5.29-17.19,10.73-25.85,16-7,4.26-13.87,8.81-20.94,13s-13.79,8.73-20.82,12.87c-6.7,3.95-13.2,8.21-19.81,12.31a3.54,3.54,0,0,1-3.53.51l-7.84-3.06c0-.42.32-.53.59-.69,3.62-2.07,7.09-4.37,10.69-6.48,5.29-3.1,10.37-6.56,15.63-9.74,4.17-2.52,8.36-5,12.46-7.67.49-.31,1.16-.48,1.09-1.27,5.33-1.72,10.56-3.66,14.93-7.29,2.12-1.77,4.08-3.75,6.11-5.63a5.87,5.87,0,0,0,3-1.34c11.5-7,22.86-14.22,34.38-21.19.56-.34,1.09-.74,1.67-1.05,1.2-.65,2.21-1.39,2.17-3,0-.35.15-1.23.8-.29C239.25,196.3,239.73,198.71,239,201.05Z"/><path class="cls-4" d="M143.76,262.6c2.15.42,3.59-1.06,5.17-2,5.39-3.34,10.7-6.8,16.09-10.13,11.24-7,22.52-13.83,33.76-20.77,8.65-5.34,17.26-10.72,25.9-16.07q5.79-3.57,11.61-7.09c1.08-.66,2.22-1.23,2.05-2.81,0-.09.32-.22.5-.33l-1.32,7.89a5.48,5.48,0,0,1-2.71,2.7c-8.31,5.09-16.55,10.3-24.86,15.37-9.91,6-19.69,12.29-29.64,18.27-4.26,2.57-8.38,5.39-12.68,7.9-4.78,2.79-9.38,5.85-14.12,8.69a5,5,0,0,1-1.81.7Z"/><path class="cls-3" d="M176.38,233.69l.9.57c-6,3.7-12,7.33-17.9,11-4.23,2.61-8.39,5.32-12.63,7.9-3.58,2.19-7.22,4.26-10.83,6.38l-10.24-6.12-.05-.16c3.23-.64,5.6-2.89,8.24-4.56,7.44-4.72,15.06-9.14,22.52-13.84.58-.37.61-1.38,1.55-1.23A44.42,44.42,0,0,0,176.38,233.69Z"/><path class="cls-5" d="M151.7,264.88l22-13.6c4.08-2.53,8.14-5.09,12.22-7.62q10.35-6.42,20.72-12.82l20.58-12.74c2.5-1.54,5.05-3,7.52-4.6a31.71,31.71,0,0,0,2.83-2.25q-1.44,4.78-2.9,9.55l-1-2.06-2.15,1.33c-4.74,2.9-9.46,5.83-14.21,8.69-4.45,2.69-9,5.25-13.41,8-3.8,2.33-7.47,4.87-11.26,7.22-4.9,3-9.89,5.91-14.8,8.93-2.77,1.71-5.43,3.6-8.18,5.35-3.89,2.48-7.81,4.91-11.72,7.37-.13.08-.2.25-.3.38Z"/><path class="cls-3" d="M239.21,193.48s-.11.09-.11.12c.3,2.84-2,3.66-3.81,4.8q-12.75,7.93-25.55,15.83-5.48,3.39-11,6.68c-.3.17-.86-.08-1.3-.14,1.94-3.18,4-6.3,5.77-9.57a35,35,0,0,0,1.87-5.21c1.53.45,2.68-.41,3.84-1.14,5.79-3.62,11.54-7.31,17.37-10.88,2.33-1.42,4.72-2.75,7-4.24,1.87-1.22,4-2.13,5.23-4.13l.74,4.93A6,6,0,0,1,239.21,193.48Z"/><path class="cls-6" d="M133.21,215.21l4.68,6.53c.43,1.1-.57,1.3-1.14,1.66-4.88,3-9.74,6.13-14.7,9.06-3.25,1.92-6.44,4-9.62,6a2,2,0,0,1-2.54.12l-4.24-6.34c-.25-.26-.2-.6.12-.6,2,0,3.29-1.43,4.77-2.37,6.63-4.25,13.39-8.28,20.12-12.38C131.53,216.37,132.16,215.47,133.21,215.21Z"/><path class="cls-7" d="M224.31,152.71l3.41,4.9c.36.78,1.29,1.22,1.35,2.27-.41.9-1.45,1-2.21,1.49-6,3.77-12,7.63-18.1,11.32-1.54.94-3.13,1.81-4.67,2.75a3.59,3.59,0,0,1-3,.59l-4-5.61c-.43-.95.47-1.09.93-1.4,4.41-2.94,9-5.53,13.52-8.35,4.11-2.59,8.35-5,12.29-7.85A.62.62,0,0,1,224.31,152.71Z"/><path class="cls-8" d="M206.37,199.41c0-2.32.07-4.64.1-7a5.26,5.26,0,0,1,.12-1.25c2.23-.21,3.88-1.74,5.7-2.88,6.85-4.3,13.71-8.58,20.64-12.75.94-.56,1.79-1.25,2.69-1.87.63,2.21,1.27,4.42,1.9,6.63.25,1.4-.65,2.07-1.66,2.71-5,3.17-10.13,6.06-15.11,9.24-4,2.52-7.92,5.05-11.93,7.51C207.86,200.37,207,200.66,206.37,199.41Z"/><path class="cls-9" d="M98.15,216.17c-.53-2.2-1.06-4.41-1.58-6.61a4.33,4.33,0,0,1,.11-1.21,6.91,6.91,0,0,0,1.77-.58c6.83-4.14,13.64-8.32,20.37-12.61q3.59-2.31,7.31-4.39c.58-.33,1.24-.89,1.81.06.17,1.92,0,3.85.13,5.77a4.26,4.26,0,0,1,.09,1.28c-.21.92-1,1.29-1.69,1.69-8.83,5-17.18,10.88-26,15.94A7.48,7.48,0,0,1,98.15,216.17Z"/><path class="cls-10" d="M224.31,152.71c-1.29,1-2.5,2.07-3.87,2.92-7.57,4.71-15.18,9.37-22.77,14.07-.24.15-.37.47-.56.72l-5.59-5.4c-.26-.86.55-.92,1-1.2,8.59-5.52,17.41-10.69,26.2-16.26.42-.2-.83-.94.14-1.14Z"/><path class="cls-9" d="M187.24,162.2l-5.92-4.61c-.47-1,.41-1.22.92-1.61,2.49-1.89,5.35-3.17,8-4.85,5.25-3.34,10.5-6.7,15.84-9.92,1.42-.85,2.72-2.05,4.55-2l5.21,4.3c-.09,1.13-1.1,1.42-1.84,1.91-4.13,2.76-8.53,5.09-12.71,7.78s-8.21,5.2-12.35,7.75C188.32,161.29,187.86,161.86,187.24,162.2Z"/><path class="cls-11" d="M95.89,205.29,95.54,202c-.67-2.9,1-4.32,3.26-5.64,8-4.66,15.83-9.74,23.72-14.65,1.12-.7,2.31-1.25,3.45-1.91.63-.37,1.39-.83,2,.15.12,1.94,0,3.88,0,5.82-.1.89-.79,1.27-1.45,1.65-7.41,4.23-14.46,9-21.76,13.43-2.16,1.29-4.38,2.49-6.44,3.92C97.53,205.35,96.71,205.16,95.89,205.29Z"/><path class="cls-8" d="M146.1,228.42l7.58,3.89c.87.83.22,1.29-.43,1.74a82.25,82.25,0,0,1-7.07,4.45c-4.83,2.68-9.34,5.86-14.08,8.66-2.82,1.67-5.41,3.71-8.43,5l-4.9-4.05c-.13-1,.78-1.24,1.37-1.61,4.25-2.67,8.6-5.19,12.85-7.88a139.37,139.37,0,0,1,12.31-7.5C146.78,230.41,145.93,229.35,146.1,228.42Z"/><path class="cls-11" d="M178.34,154.36,175.07,150c-.4-1.13.59-1.38,1.21-1.78,4.9-3.19,10-6.12,14.94-9.2,2.7-1.67,5.37-3.37,8.05-5.06.54-.34,1-.87,1.77-.7l5,2.94c.93,1,.91,1.31-.43,2.17-2.9,1.84-5.86,3.6-8.74,5.48-5.26,3.44-10.75,6.49-16.05,9.87A3.24,3.24,0,0,1,178.34,154.36Z"/><path class="cls-12" d="M206.37,199.41a1.73,1.73,0,0,0,2.27,0c6.2-4,12.45-7.84,18.7-11.72,2.68-1.66,5.45-3.18,8.08-4.92a11.11,11.11,0,0,0,2.1-2.48l1,5.27a3.5,3.5,0,0,1-2,2.63c-9.58,5.87-19.11,11.82-28.65,17.73-.55.34-1.15.6-1.74.89l-1-.86C205.5,203.8,205.93,201.6,206.37,199.41Z"/><path class="cls-13" d="M201.13,176c8.72-3.45,16-9.41,24-14.05l3.7-2.17-1.12-2.2c.75,1,1.59,2,2.24,3,.76,1.24,1.36,2.58,2,3.88a5.2,5.2,0,0,1-2.7,2.26c-4.57,2.37-8.7,5.44-13.12,8.05-3.39,2-6.59,4.29-10,6.16a3.12,3.12,0,0,1-2.18.53C203,179.69,202.06,177.86,201.13,176Z"/><path class="cls-14" d="M235.62,173.7a15.86,15.86,0,0,1-2.19,2q-12.36,7.69-24.77,15.29a10.54,10.54,0,0,1-1.95.69l-.24.76-1-5.91c.06-.47,0-.92.62-1.17,3.53-1.43,6.56-3.72,9.74-5.73,5.69-3.6,11.44-7.08,17.18-10.58.28-.17.55-.37.91-.25Z"/><path class="cls-15" d="M98.15,216.17c.08-.14.12-.34.24-.41,4-2.23,8-4.35,11.86-6.68,6-3.59,11.83-7.32,17.74-11,.37.4,0,1,.32,1.38l.3,3.57c.06,1.09-.66,1.66-1.48,2.14-5.76,3.35-11.36,7-17,10.52-2.5,1.56-5,3.15-7.58,4.56a7.47,7.47,0,0,1-1.89.91c-.69,0-.71-.83-1.21-1Z"/><path class="cls-15" d="M187.24,162.2a12,12,0,0,1,1.89-1.88q7.88-5,15.82-9.91c3.06-1.9,6.16-3.73,9.23-5.62a18.58,18.58,0,0,0,1.65-1.31l3,2.94.43,1.34c-5.3,3.22-10.67,6.45-16,9.74-4,2.46-7.85,5-11.77,7.52Z"/><path class="cls-16" d="M109.89,238.59l.18-.43c1.09,1.24,1.88.1,2.69-.4q11.85-7.27,23.66-14.62a10.19,10.19,0,0,0,1.47-1.4l4.27,4c-1.48,1.66-3.53,2.51-5.35,3.68-7.12,4.59-14.44,8.85-21.61,13.35a2.45,2.45,0,0,1-1,.46Z"/><path class="cls-7" d="M133.21,215.21a20.88,20.88,0,0,1-2.34,2Q120,224,109,230.71a28.85,28.85,0,0,1-3.34,1.54c-.78-1.22-1.55-2.44-2.32-3.66-.48-.78.09-1.05.64-1.36,5.55-3.19,10.88-6.73,16.3-10.14,2.6-1.63,5.32-3.05,7.9-4.7,1.21-.76,2.21-1.44,1.56-3.08a.67.67,0,0,1,.26-.73Q131.6,211.9,133.21,215.21Z"/><path class="cls-16" d="M233.9,168.81c-3.36,2.11-6.71,4.22-10.08,6.32q-7.75,4.85-15.53,9.67l-2.84,1.74c-.51-1.67-1-3.34-1.52-5,4.08-2.41,8.16-4.8,12.22-7.23q6.43-3.87,12.84-7.79c1-.62,2-1.32,3-2Z"/><path class="cls-17" d="M187.23,263.88l-3.82.2,39-24.16.17.17c-.56.94-1.13,1.88-1.69,2.83h0c-1.59,1.61-3.29,3.11-4.74,4.86-5.24,5.28-11.57,9-18.19,12.11-2.88,1.38-6,2.25-9,3.35Z"/><path class="cls-18" d="M146.1,228.42c1.19,2,1.06,2.06-1,3.28-3.9,2.29-7.73,4.71-11.59,7.09q-7,4.29-13.9,8.6a5.79,5.79,0,0,0-.82.75l-3.57-3.65c5.16-3.29,10.48-6.31,15.65-9.59,3.82-2.43,7.68-4.82,11.53-7.22.44-.28.79-.8,1.43-.64Z"/><path class="cls-19" d="M127.67,179.66c-2.16,1.12-4.4,2.12-6.48,3.38-7.61,4.63-15.12,9.42-22.76,14a5.26,5.26,0,0,0-2.89,5c-.05-.32-.09-.64-.14-1-.31-3.52-.06-7-.13-10.55,0-1.25,0-2.5,0-3.74.56-.48.63.07.81.38a28.75,28.75,0,0,1,.12,4.64,7.36,7.36,0,0,1-.21,2.06c4.24-2.94,8.86-5.37,13.25-8.17s8.79-5.56,13.21-8.31c1.25-.79,2.59-1.41,3.86-2.17s1.67-.33,1.64,1S128.35,178.54,127.67,179.66Z"/><path class="cls-20" d="M127.29,88.53c.25,1.42.49,2.85.74,4.27a1.37,1.37,0,0,1,.13.63c0,9.07,0,18.13,0,27.2-.89.3-.8-.46-.88-.89a14.34,14.34,0,0,1,0-2.78c-.08-.71,0-1.42,0-2.12,0-1.29,0-2.57,0-3.85,0-.68,0-1.36,0-2s0-1.35,0-2,0-1.36,0-2c0-1.37,0-2.74,0-4.11,0-1.21,0-2.42,0-3.63a11.86,11.86,0,0,0,0-1.58c-3.41,1.76-6.58,3.82-9.77,5.86-6.62,4.25-13.37,8.29-20.1,12.38-.55.34-1.15,1-1.84.15a20.43,20.43,0,0,1-.05-3.41c.17-.72.78-1,1.33-1.37q13.15-7.92,26.1-16.19c.51-.32,1.09-.52,1.61-.82,1.19-.66,2.52-1.22,2.21-3A.53.53,0,0,1,127.29,88.53Z"/><path class="cls-10" d="M99.45,220.12c1.16-.89.44.89,1.19.95q8.24-5.13,16.48-10.26c3.29-2,6.62-4,9.89-6a9.47,9.47,0,0,0,1.6-1.73q.64,2.46,1.31,4.92c-8.27,4.8-16.3,10-24.42,15a21.61,21.61,0,0,0-3.35,2.05.51.51,0,0,1-.74,0Z"/><path class="cls-21" d="M172.44,145.37l-2.15-4.59a1.27,1.27,0,0,1,.77-1.45c5.45-3.12,10.53-6.86,16.1-9.79.7-.38,1.11-1.23,2-1.21l5.29,2c.37,1.43-.72,1.93-1.62,2.53-4,2.67-8.3,4.9-12.34,7.53Q176.54,142.95,172.44,145.37Z"/><path class="cls-22" d="M95.89,205.29l.34-1,.42,1,31-19a6,6,0,0,1,0,4.27c-2.32,1.29-4.69,2.49-7,3.88-5.42,3.35-10.77,6.81-16.17,10.2-2,1.27-4.13,2.41-6.13,3.71-.62.4-1.84,0-1.85,1.25C96.34,208.14,96.11,206.71,95.89,205.29Z"/><path class="cls-23" d="M127.29,88.53,127,91.1,95.76,110.23c-.58-.57-.17-1.36-.46-2a15.1,15.1,0,0,1,0-1.78c.18-.58.71-.8,1.17-1.08,8.63-5.26,17.25-10.54,25.77-16A20.7,20.7,0,0,1,127,86.89Z"/><path class="cls-24" d="M101.41,225.07c5.31-3.32,10.6-6.65,15.92-9.95q5.3-3.28,10.65-6.47a11.14,11.14,0,0,1,1.94-.69l.07.62c1.25,2.53-.42,3.41-2.26,4.53-7.46,4.53-14.84,9.2-22.24,13.84-.76.48-1.44,1.09-2.16,1.64Z"/><path class="cls-22" d="M178.34,154.36c2.52-1.43,5.08-2.82,7.57-4.32,5-3,10-6.1,14.92-9.16,1.9-1.17,3.78-2.37,5.69-3.55l-.51-1.11,4.61,3c-4.58,2.73-9.18,5.43-13.74,8.2q-7.12,4.32-14.16,8.76a7.72,7.72,0,0,0-1.4,1.45Z"/><path class="cls-25" d="M123.67,252.19c1.32-.91,2.61-1.88,4-2.73q7.8-4.94,15.64-9.79c3.09-1.92,6.22-3.78,9.33-5.67.45-.28.87-.62,1.13-.8l0-.89,4.26,1.32a38.4,38.4,0,0,1-3.53,2.89Q141,245,127.51,253.31c-.46.28-1.22.08-1.83.11Z"/><path class="cls-19" d="M201,133.28c-4.7,3-9.37,6-14.09,8.95-3.51,2.19-7.1,4.26-10.62,6.43a7.14,7.14,0,0,0-1.26,1.36c-.64-1-1.28-2-1.91-3,0-1.07.88-1.44,1.6-1.9q7.8-5,15.77-9.72c1.74-1,3.41-2.19,5.13-3.24.64-.39,1.25-.9,2.08-.58Z"/><path class="cls-26" d="M177,125.71,184,127c.71.86,0,1.19-.59,1.55-2.52,1.63-5.07,3.2-7.62,4.77-1.43.89-2.82,1.86-4.27,2.72a2.6,2.6,0,0,1-2.52.46l-1-5.25c.11-.25,0-.54.19-.92.84.47,1.5,0,2.18-.51a51.87,51.87,0,0,1,5.12-3.17C176,126.37,175.88,124.94,177,125.71Z"/><path class="cls-14" d="M143.81,227c-2.91,1.89-5.8,3.83-8.74,5.67q-8.65,5.4-17.36,10.71a18,18,0,0,1-2.51,1.07l-1-1.27c2.35-1.57,4.66-3.2,7-4.69,6.34-4,12.72-7.85,19.08-11.77.61-.37,1.25-.69,1.87-1Z"/><path class="cls-27" d="M169,136.51l.26-.6c1.46,1.26,2.28-.4,3.14-.9,4-2.32,7.77-4.87,11.5-7.24l.1-.76,5.25,1.32c-1.16.78-2.29,1.58-3.47,2.32-4.94,3.08-9.9,6.14-14.84,9.24-.27.17-.4.59-.6.89C169.85,139.36,169.4,137.93,169,136.51Z"/><path class="cls-28" d="M125.3,82l.66,1.64a1.69,1.69,0,0,1-.93,1.09c-6.76,4-13.25,8.37-20,12.37-2.59,1.54-5.15,3.14-7.73,4.69-.63.37-1.53,1.31-2-.22,0-3.72,0-7.43,0-11.14a.35.35,0,0,1,.44-.29c.6.54.46,1.28.5,2s0,1.33,0,2,0,1.29,0,1.93,0,1.21,0,1.81c0,.43-.14.87.14,1.29.62.13,1-.31,1.46-.58Q110.17,91,122.36,83.26A5.92,5.92,0,0,1,125.3,82Z"/><path class="cls-29" d="M127,86.89l-4.81,3c-5.81,3.65-11.62,7.33-17.46,10.94-3,1.88-6.18,3.63-9.27,5.45-.31-.57-.09-1.18-.15-1.76.39-1,1.33-1.28,2.1-1.74,8.58-5.17,17-10.5,25.53-15.83a17.89,17.89,0,0,0,3.4-2.38Z"/><path class="cls-30" d="M126.3,84.58a15.7,15.7,0,0,1-2.06,2c-2,1.36-4.18,2.58-6.26,3.88-4.48,2.82-8.92,5.7-13.42,8.48-3,1.85-6.09,3.57-9.14,5.35a3.76,3.76,0,0,1,0-2.3c1.44-.73,2.93-1.37,4.3-2.21Q112.47,92,125.17,84.17c.27-.17.53-.38.79-.58Z"/><path class="cls-31" d="M125.3,82c-6.24,3.89-12.47,7.81-18.72,11.68-3.47,2.14-7,4.21-10.73,6.48l-.09-2a35.18,35.18,0,0,1,6.94-4.61c6-3.46,11.67-7.32,17.57-10.87,1.33-.81,2.52-1.78,3.81-2.63Z"/><path class="cls-32" d="M107.94,65.15l3.31,1.63c0,.92-.74,1.29-1.36,1.71-4.22,2.83-8.77,5.12-13,8-.48.32-1.13.84-1.64,0,0-1.24,0-2.47,0-3.7.34-1,1.43-1.06,2.15-1.56,3-2.1,6.26-3.71,9.32-5.68A1.34,1.34,0,0,1,107.94,65.15Z"/><path class="cls-33" d="M124.08,80a33,33,0,0,1-3.17,2.63Q112.65,87.85,104.29,93c-2.82,1.74-5.69,3.38-8.53,5.07v-2a30,30,0,0,1,6.63-4.48c4.47-2.57,8.77-5.41,13.16-8.1,2.6-1.59,5.11-3.33,7.77-4.83Z"/><path class="cls-34" d="M123.32,78.67c-1.85,1.31-3.66,2.7-5.57,3.92-4.21,2.71-8.47,5.36-12.74,8-3.06,1.87-6.17,3.67-9.25,5.5v-2a4.16,4.16,0,0,1,1.72-1.47c7.67-4.68,15.33-9.36,22.91-14.18.69-.44,1.11-1.2,1.93-1.43Z"/><path class="cls-35" d="M122.32,77a39.31,39.31,0,0,1-3.56,2.91c-4.22,2.73-8.49,5.38-12.77,8-3.39,2.09-6.82,4.11-10.23,6.16v-2c1.44-1.81,3.55-2.73,5.45-3.84,6.48-3.76,12.69-7.93,19.1-11.79.41-.25.79-.61,1.34-.47Z"/><path class="cls-36" d="M197.74,131.63c-1.19.65-2.41,1.25-3.56,2q-9.62,5.92-19.19,11.9a15.25,15.25,0,0,0-1.83,1.58l-.72-1.7c.16-.3.24-.73.49-.89,6.64-4.06,13.32-8.06,19.94-12.15.69-.43,1.09-1.35,1.62-2Z"/><path class="cls-37" d="M121.65,76,102.4,88l-6.64,4.15v-2c.14-.68.73-.92,1.23-1.23,7.39-4.58,14.85-9.06,22.18-13.74.45-.29.89-.66,1.5-.47Z"/><path class="cls-38" d="M120.66,74.72,95.75,90.16h-.33c-.31-.57-.09-1.18-.15-1.76.2-.72.87-1,1.4-1.31,6.41-4.08,13-7.86,19.4-12,1.07-.68,2-1.78,3.4-1.76Z"/><path class="cls-39" d="M119.47,73.37,95.9,88.09a1.46,1.46,0,0,1-.48.1c-.32-.66-.08-1.36-.15-2,.16-.74.88-.74,1.37-1C103.13,81,109.83,77.18,116.26,73a1.78,1.78,0,0,0,.63-.57c.29-.42-.39-.9,0-1.35a.14.14,0,0,1,.13,0,.47.47,0,0,1,.15.06Z"/><path class="cls-40" d="M117.18,71.06l.53,1.5-14.08,8.73c-2.09,1.29-4.17,2.58-6.28,3.82a12.94,12.94,0,0,1-1.93.77,85.11,85.11,0,0,1-.12-8.75c.77,0,.77,0,.91,1.36.06.66,0,1.33,0,2s0,1.21,0,1.81a1.74,1.74,0,0,0,.16.74,39.29,39.29,0,0,0,4.74-2.76c5.21-3,10.28-6.2,15.29-9.52a.47.47,0,0,1,.46,0Z"/><path class="cls-41" d="M95.42,77v31.26c0,.1.14.2.13.29-.21,3.3.43,6.56.38,9.84-.12,2.8,0,5.59,0,8.38,0,.31,0,.61,0,.91,0,.9,0,1.79,0,2.68,0,1.4,0,2.79,0,4.19.06.71,0,1.42,0,2.14,0,3.14,0,6.29,0,9.44,0,4.7,0,9.4,0,14.11,0,5.35.07,10.69,0,16q.07,3,0,6c-.09,1.45.43,3-.47,4.32l0,14.47a10.3,10.3,0,0,1-.29-1.72q0-67.54,0-135.1a9.35,9.35,0,0,1,.32-1.71,2.85,2.85,0,0,1,.47,2.1c-.05,1.86,0,3.72,0,5.59a3,3,0,0,1-.51,2.18v4.28c.12.07.16.15.12.22S95.46,77,95.42,77Z"/><path class="cls-42" d="M95.42,72.39v-7.9c.87,0,.63.72.71,1.18a9.35,9.35,0,0,0,.21,1.92c2-.89,3.71-2.29,5.55-3.26.23-.4-.31-.44-.22-.75a.68.68,0,0,1,1-.07l5.29,1.64c-3.7,2.29-7.4,4.59-11.13,6.86A5.08,5.08,0,0,1,95.42,72.39Z"/><path class="cls-43" d="M95.76,82.59v-2a32.1,32.1,0,0,1,6.9-4.64c3.74-2.17,7.4-4.44,11-6.86.26-.18.46-.48.85-.34l1.66,1.31c-.22.85-1,1.13-1.61,1.54-5.62,3.7-11.49,7-17.17,10.58C96.89,82.51,96.43,83.05,95.76,82.59Z"/><path class="cls-44" d="M114.49,68.78c-1.4,1-2.75,2.12-4.21,3-4.82,3-9.68,5.88-14.52,8.81v-2a3.45,3.45,0,0,1,1.15-1.13c5.13-3.41,10.69-6.14,15.68-9.77.08-.06.2,0,.31,0Z"/><path class="cls-45" d="M177,125.71c-.63.48-1.23,1-1.89,1.45-1.57,1.05-3.14,2.12-4.78,3.06-.57.32-1.15,1.51-2,.36l-.38.68c-.24-2-.49-4.1-.78-6.53Z"/><path class="cls-41" d="M128,120.75q0-13.4,0-26.8c0-.38,0-.77,0-1.15a7,7,0,0,1,.29,1.39q0,52.65,0,105.28c-.11-.46-.22-.92-.32-1.38l0-1.32c-.25-3.26-.07-6.53-.1-9.79,0-3.49,0-7,0-10.46a4.1,4.1,0,0,0-.18-1.77,4.35,4.35,0,0,1-.12-1.3c0-11.36.07-22.71-.05-34.07,0-.27,0-.54,0-.82,0-5.2,0-10.4,0-15.61A3,3,0,0,1,128,120.75Z"/><path class="cls-46" d="M112.9,67.77c-1.4,1-2.75,2.1-4.21,3-4.29,2.66-8.62,5.25-12.93,7.86L95.42,77v-.33c1.4-.81,2.82-1.6,4.21-2.43,3.27-1.95,6.53-3.9,9.77-5.9a15.92,15.92,0,0,0,1.85-1.56Z"/><path class="cls-47" d="M95.76,82.59c2.08-1.26,4.17-2.51,6.25-3.78q7.08-4.35,14.14-8.72l.69.64c-1.83,1.25-3.62,2.56-5.49,3.73-5.06,3.16-10.15,6.26-15.42,9.5Z"/><path class="cls-48" d="M102.65,63.51l-1,.07,1.3.49-7,4.39c-.21-1.4-.39-2.69-.58-4v-2Z"/><path class="cls-41" d="M239.21,193.48c0-1,0-2,0-2.95.1,1.06.26,2.11.29,3.17.05,2,.05,4,0,6a3.76,3.76,0,0,1-.57,1.31Z"/><path class="cls-2" d="M216.17,247.77l4.74-4.86Z"/><path class="cls-36" d="M128,174.72q0,11,0,22.05-.14-3.14-.28-6.25V174.74l-31.91,19.7v-2.27a81.61,81.61,0,0,1,8.71-5.54c6.19-3.75,12.23-7.71,18.39-11.49,1.26-.78,2.63-1.37,3.85-2.2.31-.2.66-.43,1.06-.15C128,173.42,127.67,174.1,128,174.72Z"/><path class="cls-27" d="M95.43,186.58V182.3a38.51,38.51,0,0,1,6.42-4.27c7.23-4.13,14.12-8.82,21.24-13.13,1.08-.66,2.2-1.24,3.3-1.85.46-.25,1-.76,1.44.15v4.56c0,.69-.59.86-1,1.12-7.35,4.11-14.29,8.88-21.49,13.22-2.52,1.53-5.06,3-7.57,4.57-.58.35-1.18.84-2,.56Z"/><path class="cls-21" d="M95.76,187.23l18.7-11.35c3.9-2.37,7.8-4.76,11.71-7.13a10.91,10.91,0,0,1,1.5-.6,13.41,13.41,0,0,1,0,4.6q-13,8-26,16c-1.94,1.19-3.93,2.3-5.89,3.45Z"/><path class="cls-49" d="M128,120.75v17.78a.37.37,0,0,1-.5-.18c-.59-1.87-.08-3.79-.27-5.68-.06-.8.06-1.59,0-2.38,0-1.27,0-2.55,0-3.82,0-1,0-2,0-3a8.78,8.78,0,0,0,0-1.61c-2.83,1.47-5.48,3.14-8.13,4.82-7.12,4.52-14.29,9-21.55,13.28-.55.32-1.13,1.16-1.92.31,0-1.12,0-2.23,0-3.35.08-.83.72-1.17,1.33-1.54,7.54-4.59,15.07-9.18,22.51-13.92,2.32-1.47,4.68-2.86,7-4.23.37-.21.68-.59,1.18-.39Z"/><path class="cls-50" d="M95.43,118.46v-10.2l.33,2v4c.36.28.28.83.72,1.19a17,17,0,0,0,2.72-1.65c8.92-5.1,17.38-11,26.27-16.08.68-.4,1.28-1.07,2.2-.9v4a4.67,4.67,0,0,1-2.18,1.92c-6.85,3.89-13.33,8.38-20.1,12.4-2.72,1.62-5.4,3.31-8.12,4.94-.48.28-.94.83-1.62.43C95.46,119.75,95.8,119.07,95.43,118.46Z"/><path class="cls-51" d="M95.43,134.58v-4.27c3.42-2.37,7.07-4.37,10.61-6.55,5.36-3.3,10.63-6.75,16-10,1.79-1.08,3.47-2.44,5.61-2.86v4a4.89,4.89,0,0,1-2.33,2c-5.8,3.22-11.28,7-16.91,10.46-3.87,2.4-7.87,4.56-11.66,7.08C96.38,134.64,96,135,95.43,134.58Z"/><path class="cls-52" d="M95.76,120.43l22.06-13.66,9.85-6.08V105a5.71,5.71,0,0,1-2.44,1.86c-6.69,3.73-13,8.14-19.54,12-2.82,1.67-5.57,3.45-8.41,5.08-.48.29-1.1,1.13-1.69.06A17.07,17.07,0,0,1,95.76,120.43Z"/><path class="cls-53" d="M127.67,110.89q-10.48,6.48-21,13c-3.3,2-6.62,4-9.94,6a8.09,8.09,0,0,1-1.33.49v-2.64c3.69-2.65,7.71-4.78,11.56-7.18,5.25-3.27,10.46-6.59,15.72-9.85,1.11-.69,2.3-1.26,3.43-1.94.55-.33,1.11-.52,1.53.22Z"/><path class="cls-54" d="M95.43,134.58c2-1.15,3.95-2.27,5.88-3.47q11.09-6.89,22.15-13.81c1.38-.86,2.81-1.64,4.21-2.46v2c-4.47,2.79-8.94,5.59-13.43,8.36-6.16,3.81-12.32,7.59-18.49,11.39-.1.16-.21.15-.32,0Z"/><path class="cls-55" d="M95.76,124.38c6.35-3.89,12.69-7.81,19-11.68,4.27-2.61,8.57-5.16,12.86-7.73v2a3.85,3.85,0,0,1-1.72,1.47c-7.11,4-13.81,8.63-20.8,12.81-2.58,1.55-5.17,3.07-7.71,4.67-.52.33-1.11,1-1.84.27C95.66,125.57,95.44,125,95.76,124.38Z"/><path class="cls-56" d="M127.67,96.74q-12.6,7.71-25.21,15.42c-2.12,1.3-4.2,2.66-6.7,4.24v-2.22c2-1.19,4-2.35,6-3.58,7.28-4.5,14.54-9,21.82-13.54,1.24-.77,2.56-1.39,4.07-2.2Z"/><path class="cls-57" d="M95.76,126.36c4.83-2.93,9.68-5.85,14.51-8.79q8.72-5.29,17.4-10.63v2a3.92,3.92,0,0,0-1.44.24q-10.12,6.18-20.23,12.43-4.8,3-9.63,5.89a2.81,2.81,0,0,1-.94.19V127C95.65,126.85,95.53,126.52,95.76,126.36Z"/><path class="cls-58" d="M127.67,162.88c-3.08,1.81-6.2,3.57-9.25,5.44-7.32,4.51-14.61,9.07-21.92,13.59a5.45,5.45,0,0,1-1.07.39v-5.93c6.15-3.78,12.39-7.43,18.49-11.31,3.7-2.35,7.33-4.8,11.2-6.88a5.87,5.87,0,0,1,1.47-.71c.53-.13,1.13-.31,1.25.55A30.35,30.35,0,0,1,127.67,162.88Z"/><path class="cls-59" d="M127.67,157.62a51.14,51.14,0,0,0-5.12,2.44c-6.08,3.75-12.08,7.62-18.13,11.41-2.36,1.48-4.75,2.89-7.16,4.29a9.59,9.59,0,0,1-1.83.61V160.25c.87.12.71.85.78,1.39a20,20,0,0,1,0,2.45c0,1.22,0,2.44,0,3.66a22,22,0,0,0,0,3.25c.38.3.65,0,.91-.12,8.06-4.9,16.1-9.82,24-14.92,1.71-1.1,3.52-2,5.28-3,.41-.24,1-.87,1.38.17A27.22,27.22,0,0,1,127.67,157.62Z"/><path class="cls-60" d="M95.76,164.2l-.33-3.95V146.1c.85.11.71.82.78,1.36a24.23,24.23,0,0,1,0,2.56c0,1.29,0,2.59,0,3.88s0,2.44,0,3.66c.06.46-.2,1,.28,1.47,10.54-5.89,20.43-12.91,31.3-19,0,1.87.08,3.28,0,4.69-2.53,2-5.51,3.33-8.21,5.1-7.28,4.76-14.77,9.2-22.2,13.74C96.88,163.9,96.45,164.42,95.76,164.2Z"/><path class="cls-61" d="M95.76,150.05l-.33-4v-9.54h.32c0,1.31,0,2.63,0,3.95a2.29,2.29,0,0,1,.43,1.72,10.65,10.65,0,0,0,.08,2.53c.52.21.83-.09,1.13-.28C104.67,140,112,135.65,119.13,131c2.39-1.55,4.86-2.94,7.33-4.34.37-.21.73-.52,1.21-.31v4a4.42,4.42,0,0,1-2,1.83c-6.95,3.94-13.53,8.49-20.39,12.58-2.77,1.65-5.52,3.33-8.28,5C96.6,149.94,96.24,150.26,95.76,150.05Z"/><path class="cls-53" d="M95.76,126.36l-.33.65v-8.55l.33,2v5.93Z"/><path class="cls-62" d="M127.67,144.78v-4.36L95.85,160.07,95.76,158a30,30,0,0,1,6.23-4.2c6.18-3.52,12.07-7.5,18.12-11.23,2.09-1.29,4.26-2.44,6.35-3.75.36-.22.75-.48,1.21-.24H128v36.19l-.29-2V152.68c-.88-1.23-.37-2.62-.47-3.94C127.26,147.41,126.84,146,127.67,144.78Z"/><path class="cls-63" d="M127.67,138.53c-6.35,3.9-12.7,7.82-19.07,11.7-4.26,2.6-8.56,5.15-12.84,7.72V154a3.93,3.93,0,0,1,1.57-1.4c8.65-5.28,17.29-10.57,25.82-16a15.25,15.25,0,0,1,1.74-.92c1.06-.52,2-1.11,2.15-2.47,0-.3.17-.66.63-.56Z"/><path class="cls-64" d="M127.67,132.61c-.17,2.33-2,2.95-3.7,4-5.42,3.25-10.7,6.73-16.07,10.07-4,2.5-8.1,4.91-12.14,7.36v-3.95l22.06-13.67,9.85-6.07Z"/><path class="cls-65" d="M127.67,126.36l-25.16,15.38c-2.13,1.31-4.24,2.65-6.75,4.22v-3.48a28.51,28.51,0,0,1,6.23-4.2c6.17-3.53,12.05-7.51,18.11-11.22,2.05-1.25,4.12-2.48,6.21-3.67.42-.24.82-.58,1.36-.32Z"/><path class="cls-66" d="M127.67,123.07q-9.53,5.85-19.07,11.69c-4.27,2.6-8.56,5.15-12.84,7.72v-2l18.12-11.08c4.18-2.56,8.35-5.14,12.53-7.69.32-.2.68-.31,1.26-.58Z"/><path class="cls-67" d="M127.67,148.73v4l-18.12,11.08L97,171.45a13.57,13.57,0,0,1-1.26.56v-3.86a6.24,6.24,0,0,1,2.53-2c8.34-5,16.55-10.18,24.77-15.35,1.15-.73,2.44-1.22,3.56-2A.78.78,0,0,1,127.67,148.73Z"/><path class="cls-68" d="M127.67,148.73c-3.08,1.81-6.21,3.57-9.25,5.45-4.54,2.81-9,5.74-13.55,8.55-3,1.87-6.07,3.62-9.11,5.42v-4l20.69-12.82q5.07-3.12,10.16-6.21a6.08,6.08,0,0,1,1.06-.39Z"/><polyline class="cls-1" points="16.78 0 0 0 0 16.78"/></g></g></svg>