<?xml version="1.0" standalone="no"?>
<!DOCTYPE svg PUBLIC "-//W3C//DTD SVG 20010904//EN"
 "http://www.w3.org/TR/2001/REC-SVG-20010904/DTD/svg10.dtd">
<svg version="1.0" xmlns="http://www.w3.org/2000/svg"
 width="256.000000pt" height="256.000000pt" viewBox="0 0 256.000000 256.000000"
 preserveAspectRatio="xMidYMid meet">
<metadata>
Created by potrace 1.16, written by Peter Selinger 2001-2019
</metadata>
<g transform="translate(0.000000,256.000000) scale(0.100000,-0.100000)"
fill="#000000" stroke="none">
<path d="M670 1715 c0 -35 0 -35 45 -35 77 0 76 5 73 -390 -3 -325 -4 -342
-22 -356 -11 -8 -37 -14 -58 -14 -36 0 -38 -2 -38 -30 l0 -30 160 0 160 0 0
30 c0 27 -3 30 -34 30 -19 0 -43 8 -55 18 -21 17 -21 21 -19 338 l3 320 179
-368 179 -368 59 0 58 0 0 393 c0 369 1 395 18 410 10 10 35 17 55 17 36 0 37
1 37 35 l0 35 -155 0 -155 0 0 -35 c0 -34 1 -35 38 -35 72 0 73 -4 70 -280
l-3 -242 -134 296 -134 296 -164 0 -163 0 0 -35z"/>
<path d="M1569 1431 c-83 -27 -123 -90 -123 -196 -1 -141 75 -211 229 -209
123 1 191 44 216 138 25 94 -7 200 -74 244 -34 23 -51 27 -131 29 -50 1 -103
-1 -117 -6z m148 -66 c47 -33 53 -201 8 -252 -21 -26 -69 -34 -96 -17 -34 21
-52 166 -29 231 20 52 72 69 117 38z"/>
<path d="M1470 910 l0 -50 200 0 200 0 0 50 0 50 -200 0 -200 0 0 -50z"/>
</g>
</svg>
