<svg width="256" height="256" viewBox="0 0 256 256" fill="none" xmlns="http://www.w3.org/2000/svg">
<rect width="256" height="256" fill="url(#paint0_linear_11_2)"/>
<g filter="url(#filter0_i_11_2)">
<path d="M159.661 97.04C160.749 99.216 161.293 100.88 161.293 102.032C161.293 102.672 161.165 103.12 160.909 103.376C160.525 103.824 159.469 104.464 157.741 105.296C156.013 106.128 154.861 106.672 154.285 106.928C152.429 107.76 149.645 109.648 145.933 112.592C142.285 115.472 138.829 118.48 135.565 121.616C132.365 124.688 130.445 126.832 129.805 128.048C130.381 130.032 131.917 132.752 134.413 136.208C136.909 139.6 139.437 142.672 141.997 145.424C144.621 148.176 146.317 149.552 147.085 149.552L148.045 149.648C148.813 149.776 149.709 150.48 150.733 151.76C151.757 153.04 152.269 154.224 152.269 155.312C152.269 156.208 151.725 156.752 150.637 156.944C149.933 157.072 148.909 157.392 147.565 157.904C146.349 158.352 145.165 158.576 144.013 158.576C142.669 158.576 141.645 158.416 140.941 158.096C138.957 157.264 136.333 155.248 133.069 152.048C129.869 148.784 126.893 145.136 124.141 141.104C121.389 137.072 119.597 133.52 118.765 130.448L112.717 154.544C112.269 156.4 111.565 157.648 110.605 158.288C109.709 158.928 107.981 159.248 105.421 159.248C103.437 159.248 101.965 158.896 101.005 158.192C100.109 157.552 99.6609 156.432 99.6609 154.832C99.6609 154.128 99.7569 153.456 99.9489 152.816L111.565 108.08L111.277 97.904C111.533 96.816 112.333 95.952 113.677 95.312C115.085 94.672 116.365 94.352 117.517 94.352C119.245 94.352 120.941 95.056 122.605 96.464C124.333 97.808 125.229 99.472 125.293 101.456C125.293 102.864 123.693 110.16 120.493 123.344C122.733 120.272 126.061 116.56 130.477 112.208C134.957 107.856 139.437 103.984 143.917 100.592C148.397 97.2 151.917 95.28 154.477 94.832C155.117 94.832 156.045 94.992 157.261 95.312C158.477 95.568 159.277 96.144 159.661 97.04Z" fill="url(#paint1_linear_11_2)"/>
</g>
<path d="M159.661 97.04L157.823 97.8278L157.846 97.8819L157.872 97.9344L159.661 97.04ZM160.909 103.376L159.495 101.962L159.44 102.016L159.39 102.074L160.909 103.376ZM154.285 106.928L153.473 105.1L153.467 105.103L154.285 106.928ZM145.933 112.592L147.172 114.162L147.176 114.159L145.933 112.592ZM135.565 121.616L136.95 123.059L136.951 123.058L135.565 121.616ZM129.805 128.048L128.035 127.117L127.659 127.831L127.884 128.606L129.805 128.048ZM134.413 136.208L132.792 137.379L132.797 137.386L132.802 137.393L134.413 136.208ZM141.997 145.424L140.533 146.786L140.541 146.795L140.549 146.804L141.997 145.424ZM147.085 149.552L147.284 147.562L147.185 147.552H147.085V149.552ZM148.045 149.648L148.374 147.675L148.309 147.664L148.244 147.658L148.045 149.648ZM150.733 151.76L149.171 153.009L149.171 153.009L150.733 151.76ZM150.637 156.944L150.289 154.974L150.279 154.976L150.637 156.944ZM147.565 157.904L148.256 159.781L148.267 159.777L148.277 159.773L147.565 157.904ZM140.941 158.096L141.768 156.275L141.742 156.263L141.714 156.252L140.941 158.096ZM133.069 152.048L131.641 153.448L131.655 153.462L131.669 153.476L133.069 152.048ZM124.141 141.104L122.489 142.231L122.489 142.231L124.141 141.104ZM118.765 130.448L120.695 129.925L118.691 122.526L116.825 129.961L118.765 130.448ZM112.717 154.544L110.777 154.057L110.775 154.066L110.773 154.075L112.717 154.544ZM110.605 158.288L109.495 156.624L109.469 156.642L109.442 156.661L110.605 158.288ZM101.005 158.192L102.188 156.579L102.178 156.572L102.167 156.565L101.005 158.192ZM99.9489 152.816L101.865 153.391L101.875 153.355L101.885 153.319L99.9489 152.816ZM111.565 108.08L113.501 108.583L113.572 108.308L113.564 108.023L111.565 108.08ZM111.277 97.904L109.33 97.4459L109.27 97.6998L109.278 97.9606L111.277 97.904ZM113.677 95.312L112.849 93.4913L112.833 93.4986L112.817 93.5063L113.677 95.312ZM122.605 96.464L121.313 97.9908L121.344 98.0174L121.377 98.0427L122.605 96.464ZM125.293 101.456H127.293V101.424L127.292 101.392L125.293 101.456ZM120.493 123.344L118.549 122.872L122.109 124.522L120.493 123.344ZM130.477 112.208L129.083 110.773L129.078 110.778L129.073 110.783L130.477 112.208ZM143.917 100.592L142.71 98.9975L142.71 98.9975L143.917 100.592ZM154.477 94.832V92.832H154.303L154.132 92.8619L154.477 94.832ZM157.261 95.312L156.752 97.2461L156.8 97.2588L156.849 97.2691L157.261 95.312ZM157.872 97.9344C158.943 100.075 159.293 101.38 159.293 102.032H163.293C163.293 100.38 162.555 98.3566 161.45 96.1456L157.872 97.9344ZM159.293 102.032C159.293 102.127 159.288 102.195 159.283 102.242C159.277 102.29 159.272 102.306 159.274 102.299C159.277 102.287 159.323 102.133 159.495 101.962L162.323 104.79C163.155 103.958 163.293 102.827 163.293 102.032H159.293ZM159.39 102.074C159.418 102.042 159.292 102.179 158.792 102.482C158.34 102.756 157.707 103.092 156.873 103.494L158.609 107.098C159.502 106.668 160.261 106.268 160.865 105.902C161.421 105.565 162.016 105.158 162.427 104.678L159.39 102.074ZM156.873 103.494C155.14 104.328 154.016 104.859 153.473 105.1L155.097 108.756C155.706 108.485 156.885 107.928 158.609 107.098L156.873 103.494ZM153.467 105.103C151.361 106.047 148.406 108.078 144.69 111.025L147.176 114.159C150.883 111.218 153.497 109.473 155.103 108.753L153.467 105.103ZM144.694 111.022C140.996 113.941 137.491 116.992 134.179 120.174L136.951 123.058C140.167 119.968 143.574 117.003 147.172 114.162L144.694 111.022ZM134.18 120.173C132.561 121.728 131.241 123.07 130.235 124.194C129.258 125.285 128.476 126.278 128.035 127.117L131.575 128.979C131.773 128.602 132.272 127.915 133.215 126.862C134.128 125.842 135.369 124.576 136.95 123.059L134.18 120.173ZM127.884 128.606C128.562 130.939 130.273 133.892 132.792 137.379L136.034 135.037C133.561 131.612 132.2 129.125 131.726 127.49L127.884 128.606ZM132.802 137.393C135.338 140.84 137.915 143.972 140.533 146.786L143.461 144.062C140.959 141.372 138.48 138.36 136.024 135.023L132.802 137.393ZM140.549 146.804C141.884 148.204 143.032 149.306 143.977 150.073C144.447 150.455 144.913 150.791 145.36 151.04C145.754 151.261 146.372 151.552 147.085 151.552V147.552C147.414 147.552 147.531 147.671 147.31 147.548C147.141 147.453 146.874 147.273 146.497 146.967C145.746 146.358 144.734 145.396 143.444 144.044L140.549 146.804ZM146.886 151.542L147.846 151.638L148.244 147.658L147.284 147.562L146.886 151.542ZM147.716 151.621C147.651 151.61 147.759 151.611 148.057 151.845C148.345 152.07 148.717 152.442 149.171 153.009L152.295 150.511C151.725 149.798 151.137 149.178 150.529 148.699C149.93 148.229 149.207 147.814 148.374 147.675L147.716 151.621ZM149.171 153.009C150.049 154.107 150.269 154.858 150.269 155.312H154.269C154.269 153.59 153.465 151.973 152.295 150.511L149.171 153.009ZM150.269 155.312C150.269 155.334 150.266 155.291 150.296 155.211C150.328 155.126 150.382 155.043 150.447 154.978C150.507 154.917 150.548 154.902 150.529 154.911C150.507 154.921 150.434 154.949 150.289 154.974L150.984 158.914C151.764 158.776 152.612 158.47 153.275 157.806C153.984 157.097 154.269 156.196 154.269 155.312H150.269ZM150.279 154.976C149.386 155.139 148.221 155.514 146.853 156.035L148.277 159.773C149.597 159.27 150.479 159.005 150.995 158.912L150.279 154.976ZM146.873 156.027C145.851 156.404 144.901 156.576 144.013 156.576V160.576C145.428 160.576 146.846 160.3 148.256 159.781L146.873 156.027ZM144.013 156.576C142.774 156.576 142.087 156.42 141.768 156.275L140.113 159.917C141.202 160.412 142.564 160.576 144.013 160.576V156.576ZM141.714 156.252C140.105 155.577 137.71 153.797 134.469 150.62L131.669 153.476C134.956 156.699 137.809 158.951 140.167 159.94L141.714 156.252ZM134.497 150.648C131.385 147.473 128.483 143.918 125.793 139.977L122.489 142.231C125.303 146.354 128.353 150.095 131.641 153.448L134.497 150.648ZM125.793 139.977C123.107 136.041 121.446 132.698 120.695 129.925L116.834 130.971C117.747 134.342 119.671 138.103 122.489 142.231L125.793 139.977ZM116.825 129.961L110.777 154.057L114.657 155.031L120.705 130.935L116.825 129.961ZM110.773 154.075C110.37 155.742 109.836 156.397 109.495 156.624L111.714 159.952C113.294 158.899 114.167 157.058 114.661 155.013L110.773 154.075ZM109.442 156.661C109.333 156.739 109.001 156.906 108.273 157.041C107.57 157.172 106.629 157.248 105.421 157.248V161.248C106.773 161.248 107.976 161.164 109.001 160.975C110 160.79 110.981 160.477 111.767 159.915L109.442 156.661ZM105.421 157.248C103.605 157.248 102.643 156.913 102.188 156.579L99.8221 159.805C101.287 160.879 103.269 161.248 105.421 161.248V157.248ZM102.167 156.565C102.007 156.45 101.661 156.096 101.661 154.832H97.6609C97.6609 156.768 98.2112 158.654 99.8424 159.819L102.167 156.565ZM101.661 154.832C101.661 154.312 101.731 153.834 101.865 153.391L98.0332 152.241C97.7824 153.078 97.6609 153.944 97.6609 154.832H101.661ZM101.885 153.319L113.501 108.583L109.629 107.577L98.0131 152.313L101.885 153.319ZM113.564 108.023L113.276 97.8474L109.278 97.9606L109.566 108.137L113.564 108.023ZM113.224 98.3621C113.298 98.0473 113.546 97.5896 114.537 97.1177L112.817 93.5063C111.12 94.3144 109.768 95.5847 109.33 97.4459L113.224 98.3621ZM114.504 97.1327C115.737 96.5725 116.73 96.352 117.517 96.352V92.352C115.999 92.352 114.433 92.7715 112.849 93.4913L114.504 97.1327ZM117.517 96.352C118.659 96.352 119.913 96.8062 121.313 97.9908L123.897 94.9372C121.969 93.3058 119.831 92.352 117.517 92.352V96.352ZM121.377 98.0427C122.69 99.0642 123.251 100.197 123.294 101.52L127.292 101.392C127.207 98.7474 125.975 96.5518 123.833 94.8853L121.377 98.0427ZM123.293 101.456C123.293 101.454 123.293 101.466 123.291 101.493C123.29 101.519 123.287 101.556 123.283 101.603C123.274 101.699 123.259 101.825 123.237 101.985C123.192 102.305 123.123 102.726 123.026 103.254C122.832 104.31 122.537 105.741 122.139 107.556C121.344 111.182 120.148 116.285 118.549 122.872L122.436 123.816C124.038 117.219 125.242 112.082 126.046 108.412C126.449 106.579 126.754 105.098 126.96 103.978C127.153 102.926 127.293 102.023 127.293 101.456H123.293ZM122.109 124.522C124.258 121.575 127.5 117.949 131.881 113.632L129.073 110.783C124.621 115.171 121.208 118.969 118.877 122.166L122.109 124.522ZM131.87 113.643C136.298 109.341 140.716 105.524 145.124 102.187L142.71 98.9975C138.158 102.444 133.616 106.371 129.083 110.773L131.87 113.643ZM145.124 102.187C149.58 98.8129 152.77 97.161 154.822 96.8021L154.132 92.8619C151.063 93.399 147.214 95.5871 142.71 98.9975L145.124 102.187ZM154.477 96.832C154.85 96.832 155.575 96.9364 156.752 97.2461L157.77 93.3778C156.515 93.0476 155.383 92.832 154.477 92.832V96.832ZM156.849 97.2691C157.623 97.432 157.765 97.6932 157.823 97.8278L161.499 96.2522C160.789 94.5948 159.331 93.704 157.673 93.3549L156.849 97.2691Z" fill="#050505"/>
<defs>
<filter id="filter0_i_11_2" x="99.6609" y="94.352" width="61.632" height="68.896" filterUnits="userSpaceOnUse" color-interpolation-filters="sRGB">
<feFlood flood-opacity="0" result="BackgroundImageFix"/>
<feBlend mode="normal" in="SourceGraphic" in2="BackgroundImageFix" result="shape"/>
<feColorMatrix in="SourceAlpha" type="matrix" values="0 0 0 0 0 0 0 0 0 0 0 0 0 0 0 0 0 0 127 0" result="hardAlpha"/>
<feOffset dy="4"/>
<feGaussianBlur stdDeviation="2"/>
<feComposite in2="hardAlpha" operator="arithmetic" k2="-1" k3="1"/>
<feColorMatrix type="matrix" values="0 0 0 0 0 0 0 0 0 0 0 0 0 0 0 0 0 0 0.25 0"/>
<feBlend mode="normal" in2="shape" result="effect1_innerShadow_11_2"/>
</filter>
<linearGradient id="paint0_linear_11_2" x1="128" y1="0" x2="128" y2="256" gradientUnits="userSpaceOnUse">
<stop stop-color="#00E0FF"/>
<stop offset="1" stop-color="#93BEA4"/>
</linearGradient>
<linearGradient id="paint1_linear_11_2" x1="128" y1="41" x2="128" y2="216" gradientUnits="userSpaceOnUse">
<stop stop-color="#93BEA4"/>
<stop offset="1" stop-color="#00E0FF"/>
</linearGradient>
</defs>
</svg>
