<svg width="256" height="256" viewBox="0 0 256 256" fill="none" xmlns="http://www.w3.org/2000/svg">
<rect width="256" height="256" fill="#044821"/>
<path d="M108.067 110.829C114.798 95.6839 129.944 60.345 243.253 81.6605C226.986 108.024 206.231 206.749 124.334 175.337C124.334 162.301 132.418 136.098 164.029 131.033C156.323 132.087 145.156 134.074 140.04 136.632C148.081 124.479 169.658 101.854 191.647 108.585C188.468 107.464 180.764 105.108 175.379 104.659C183.793 101.293 202.192 94.7864 208.475 95.6839C204.548 95.123 193.329 95.2351 179.867 100.171C181.176 94.7166 183.233 82.929 180.989 79.4168C181.55 87.6438 177.399 105.781 156.308 112.512C157.243 106.716 158.103 93.7767 154.064 88.3917C157.243 95.8709 158.215 115.204 136.675 132.706C136.675 124.853 135.441 108.249 130.505 104.659C132.561 113.26 135.777 132.818 132.187 142.242C129.456 145.827 123.201 155.679 118.376 168.297C117.94 169.636 117.49 170.867 117.042 171.971C117.471 170.723 117.917 169.498 118.376 168.297C123.039 153.977 126.123 127.244 108.067 110.829Z" fill="#80CB28"/>
<path d="M123.212 155.143C119.622 161.874 117.229 169.54 116.481 172.532L104.701 148.973C100.214 145.832 100.962 130.088 101.897 122.609C100.102 124.404 98.9051 137.193 98.5312 143.363L88.9953 133.568C82.2925 129.914 82.7954 109.737 81.7031 110.829C80.8056 111.727 81.3291 122.796 81.7031 128.218C65.436 120.365 67.1188 119.243 61.5094 104.098C61.5094 108.137 64.1271 116.252 65.436 119.804C64.2187 118.587 54.0432 118.195 47.6815 118.131C53.5165 118.566 63.1604 122.283 67.6797 124.292L58.1438 125.974C78.8984 122.609 104.701 151.217 95.7265 146.729C88.5465 143.139 78.5245 142.616 74.4109 142.803C104.926 143.251 110.311 165.881 109.189 177.14C51.9735 194.409 41.8767 151.217 13.2689 109.146C90.9025 85.8114 113.116 109.146 121.53 128.779C123.586 134.762 126.578 144.485 123.212 155.143Z" fill="#6AA822"/>
</svg>
