<?xml version="1.0" encoding="UTF-8" standalone="no"?>
<svg
   width="256"
   height="256"
   viewBox="0 0 192 191.99999"
   version="1.1"
   id="svg20"
   sodipodi:docname="Manifest.svg"
   inkscape:version="1.3.2 (091e20e, 2023-11-25, custom)"
   inkscape:export-filename="Tinyman\icon.svg"
   inkscape:export-xdpi="18"
   inkscape:export-ydpi="18"
   xmlns:inkscape="http://www.inkscape.org/namespaces/inkscape"
   xmlns:sodipodi="http://sodipodi.sourceforge.net/DTD/sodipodi-0.dtd"
   xmlns="http://www.w3.org/2000/svg"
   xmlns:svg="http://www.w3.org/2000/svg">
  <defs
     id="defs20" />
  <sodipodi:namedview
     id="namedview20"
     pagecolor="#ffffff"
     bordercolor="#000000"
     borderopacity="0.25"
     inkscape:showpageshadow="2"
     inkscape:pageopacity="0.0"
     inkscape:pagecheckerboard="0"
     inkscape:deskcolor="#d1d1d1"
     inkscape:document-units="pt"
     inkscape:zoom="0.64233398"
     inkscape:cx="772.18396"
     inkscape:cy="1321.7423"
     inkscape:window-width="3840"
     inkscape:window-height="2050"
     inkscape:window-x="-12"
     inkscape:window-y="-12"
     inkscape:window-maximized="1"
     inkscape:current-layer="svg20" />
  <g
     id="g16">
    <g
       id="g15"
       transform="matrix(0.2103915,0,0,0.2103915,229.76944,-7.8909844)">
      <path
         fill="#261a1b"
         stroke="#261a1b"
         stroke-width="0.0809759"
         opacity="1"
         d="m -780.83288,115.02499 c 75.34088,-39.343192 166.20492,-47.372409 247.43389,-22.481819 62.62793,18.467209 119.10015,56.606009 161.25356,106.253379 4.81754,7.8954 11.91001,14.05114 17.39665,21.27745 19.93923,30.10958 36.26532,62.62794 48.04149,96.75213 9.23367,34.1242 14.98792,69.18514 16.19233,104.64754 -0.66914,41.48432 -6.95866,82.96864 -20.20692,122.31183 -14.85405,36.26532 -31.84924,72.66446 -58.61332,101.83731 -6.15574,7.2263 -12.31147,14.4526 -18.19957,21.94654 1.47202,0.93675 3.07787,1.73966 4.54989,2.67641 -0.6691,1.47202 -1.3382,2.81023 -2.14112,4.14843 -2.14114,-0.26764 -4.28226,-0.6691 -6.42339,-0.93674 13.11441,8.02921 26.63026,16.86136 35.99769,29.30666 9.63507,15.79081 17.79811,34.52567 13.51586,53.39431 -4.5499,14.45266 -9.63507,29.5743 -20.87598,40.41376 -6.82484,6.55719 -12.84676,13.91732 -19.27014,20.87597 -11.64237,12.71301 -27.16553,20.60839 -39.74465,32.2507 -24.62294,-17.93191 -44.16073,-41.88575 -68.51603,-60.08533 -8.43069,-5.48659 -16.05845,-11.90998 -23.95385,-18.06571 -7.49394,5.48659 -16.86137,16.8613 -26.76409,9.76885 -9.76888,-3.8808 -15.38933,-13.38206 -24.75675,-17.66424 1.47201,8.43065 12.5791,10.97326 12.5791,20.07304 -6.5572,-0.13388 -13.1144,0.93674 -19.53776,2.14114 -39.07556,7.36013 -79.22168,4.95132 -118.43105,-0.26768 -0.13382,-2.27492 -0.40146,-4.68373 -0.6691,-6.95866 0,-0.80293 -0.13382,-2.54259 -0.26764,-3.34553 -8.83214,3.21174 -16.72755,8.8322 -25.82733,11.24093 -10.70564,1.60587 -16.45991,-9.0998 -23.28475,-15.25552 -2.54259,-3.07786 -6.82485,-1.60587 -9.90271,-0.26768 -8.16304,3.747 -14.58642,10.17041 -21.94655,15.3894 -21.54507,14.05112 -40.54756,31.58164 -59.81771,48.71062 -5.62045,4.81752 -10.5718,10.43799 -15.38933,16.05845 -12.84677,-13.91732 -29.57431,-23.41858 -42.01961,-37.73737 -12.71293,-12.98058 -23.28475,-28.36989 -29.30666,-45.76654 -6.15574,-19.67158 -3.61315,-41.35052 4.95135,-59.81773 6.15575,-12.57912 17.39665,-21.27745 28.2361,-29.4405 15.38935,-11.10708 34.65949,-13.38202 52.72524,-16.99518 -13.91732,-1.07056 -27.70082,3.74697 -41.75196,2.27496 -11.91002,-18.33341 -28.63756,-33.05364 -38.94173,-52.4576 -13.78351,-21.0098 -24.2215,-43.89308 -33.05364,-67.31165 -7.36012,-25.82733 -16.32609,-51.52085 -17.53047,-78.41875 -7.8954,-71.72772 4.5499,-146.39949 40.14612,-209.56272 10.57181,-21.00979 24.48913,-40.14611 39.74465,-57.94422 28.77139,-34.1242 64.36759,-62.76176 104.37989,-82.96864 z"
         id="path2" />
      <path
         fill="#f0a21b"
         stroke="#f0a21b"
         stroke-width="0.0809759"
         opacity="1"
         d="m -665.47971,131.4849 c 52.85905,-6.69102 107.99305,1.3382 155.90076,25.42587 17.129,7.76158 33.99037,16.72755 48.30915,29.30667 34.79329,25.96115 63.16321,59.95153 84.03919,97.95651 13.51586,27.43318 26.63027,55.8031 30.1096,86.44797 6.82483,36.93443 6.69102,75.20706 -0.53529,112.00767 -3.21168,23.55238 -11.37473,46.30185 -22.348,67.31165 -10.70564,23.95384 -25.42587,46.0342 -42.82252,65.43816 -8.56451,12.04384 -20.47453,20.74217 -30.64487,31.31397 -13.1144,-9.36743 -23.41857,-21.94654 -36.26533,-31.58161 -8.69832,9.76889 -17.12901,19.80541 -25.82733,29.57431 -3.21169,-16.99519 -16.32608,-29.44049 -25.69351,-43.35781 -16.59373,-23.15093 -28.36992,-49.78118 -33.4551,-77.88345 -6.02192,-19.13633 0.6691,-39.87849 -6.69102,-58.61334 -2.40877,-7.49394 -3.07787,-15.52316 -6.55719,-22.74946 -3.74698,-7.36012 1.60585,-15.38934 0,-23.15093 -2.00732,-10.03652 -8.56451,-18.73486 -15.79081,-25.82734 -4.28225,-3.61314 -9.09979,-6.95866 -14.72024,-8.02922 -8.29686,-1.87348 -15.92463,4.95135 -24.35531,2.54259 -16.32609,-4.14843 -30.24341,10.70563 -34.92713,24.89059 -2.94404,12.17766 -1.3382,24.62295 -0.53527,36.93442 -5.48663,4.01462 -11.24092,8.96598 -12.17765,16.19228 -3.74698,20.60834 -1.60585,41.88577 -5.75429,62.36029 -5.48663,31.84925 -23.0171,59.81771 -42.28724,85.10976 -7.62776,8.29687 -13.91732,17.79812 -20.87598,26.89791 -8.83214,-7.09249 -11.77619,-19.80542 -22.08036,-24.8906 -7.36012,2.27495 -11.2409,9.63507 -16.72755,14.31878 -8.02921,7.09249 -16.59372,13.38205 -24.35531,20.74216 -25.15822,-24.35531 -48.57679,-50.85174 -66.37491,-81.09515 -15.52316,-29.03903 -27.96845,-60.08536 -32.78599,-92.87135 -6.95866,-33.99037 -5.62045,-69.18514 0.26764,-103.30934 1.33821,-17.39665 8.16304,-33.5889 12.98058,-50.18263 14.31878,-36.80061 34.65948,-71.46009 61.82502,-100.23147 14.31878,-17.53047 32.78598,-30.77869 49.91499,-44.96365 8.56451,-6.02192 18.06576,-10.70562 27.16554,-15.7908 15.52317,-7.2263 30.64487,-16.05846 47.64006,-19.6716 15.38934,-3.88079 30.37723,-10.03653 46.43567,-10.57181 z"
         id="path3"
         style="fill:#ffd42a" />
      <path
         fill="#261a1b"
         stroke="#261a1b"
         stroke-width="0.0809759"
         opacity="1"
         d="m -813.75268,315.35411 c 24.48912,-4.01462 50.85174,-0.13382 71.99536,13.51586 12.57911,6.28955 24.89058,14.98787 30.64487,28.2361 8.5645,15.52315 -1.47203,38.00498 -19.27015,40.94903 -12.84675,2.81023 -23.95384,-6.42338 -30.77868,-16.32608 -18.33339,-22.74948 -57.40894,-21.00981 -74.67177,2.14112 -6.02192,7.2263 -11.1071,15.25553 -12.84676,24.62295 -2.6764,11.91001 -12.17766,21.27745 -22.74946,26.63026 -12.84676,5.75427 -28.36993,-3.07788 -32.91982,-15.65699 -3.21168,-13.51586 4.68372,-25.96115 10.17035,-37.73734 12.17766,-16.99519 23.55238,-35.19477 41.08285,-47.37242 11.1071,-9.63507 24.62296,-16.59373 39.34321,-19.00249 z"
         id="path4" />
      <path
         fill="#261a1b"
         stroke="#261a1b"
         stroke-width="0.0809759"
         opacity="1"
         d="m -479.20173,315.08646 c 22.348,-1.87348 47.23859,-1.07055 65.83962,13.24821 7.49394,6.28957 16.45991,11.1071 22.61564,18.86868 15.65699,17.79812 30.37724,37.33589 37.87118,59.95154 5.08517,17.26283 -14.98789,33.58891 -31.18015,28.36991 -6.5572,-2.0073 -13.24822,-4.95134 -17.39665,-10.5718 -9.76889,-12.4453 -10.17035,-30.10959 -21.67891,-41.35049 -6.55719,-5.88811 -13.11439,-12.44531 -21.41125,-15.79082 -12.31148,-3.3455 -25.82734,-3.07786 -37.73735,1.60584 -8.83214,3.34552 -14.72024,11.1071 -20.60834,18.19958 -6.95866,7.8954 -18.33339,13.51586 -28.9052,9.76889 -13.91732,-3.21169 -22.74947,-18.73485 -19.27014,-32.51836 1.87349,-13.91731 13.64968,-22.88328 24.48914,-30.37722 13.51586,-10.70563 30.2434,-17.12901 47.37241,-19.40396 z"
         id="path5" />
      <path
         fill="#734621"
         stroke="#734621"
         stroke-width="0.0809759"
         opacity="1"
         d="m -632.82753,387.61711 c 8.43068,2.40876 16.05845,-4.41607 24.35531,-2.54259 5.62045,1.07056 10.43799,4.41608 14.72024,8.02922 -3.07787,1.20439 -5.75428,2.94406 -8.16304,5.219 -5.8881,-3.34551 -13.51586,-3.88079 -17.6643,2.54259 -0.26763,0.26764 -0.93673,0.80292 -1.20438,1.20438 -2.94404,-0.26764 -5.75427,-0.93674 -8.5645,-1.73966 -7.36013,-2.27495 -16.86137,-3.74698 -22.34801,3.07787 -12.31147,13.78349 -6.42337,33.45509 -7.62776,50.04882 -5.75427,4.68371 -12.04383,10.17036 -12.71293,18.06575 -3.07788,23.68621 0.40145,48.30916 -7.49395,71.19244 -6.82483,28.77139 -23.15091,53.92962 -40.27993,77.61582 -8.29686,10.97328 -14.58642,23.15094 -20.07305,35.59623 l -0.26765,0.80293 c -2.81023,-5.75429 -6.02191,-11.24092 -9.23361,-16.72755 6.95866,-9.09979 13.24822,-18.60104 20.87598,-26.89791 19.27014,-25.29205 36.80061,-53.26051 42.28724,-85.10976 4.14844,-20.47452 2.00731,-41.75195 5.75429,-62.36029 0.93673,-7.2263 6.69102,-12.17766 12.17765,-16.19228 -0.80293,-12.31147 -2.40877,-24.75676 0.53527,-36.93442 4.68372,-14.18496 18.60104,-29.03902 34.92713,-24.89059 z"
         id="path6"
         style="fill:#000000" />
      <path
         fill="#fdfdfd"
         stroke="#fdfdfd"
         stroke-width="0.0809759"
         opacity="1"
         d="m -619.57932,400.86533 c 4.14844,-6.42338 11.7762,-5.8881 17.6643,-2.54259 6.55719,4.68372 10.83945,12.04384 13.51586,19.53778 3.34551,9.76889 -3.34551,20.20688 1.20438,29.5743 2.40877,5.8881 2.54258,12.71295 5.75428,18.33339 2.6764,4.95136 5.75427,10.03654 5.75427,15.92463 -3.47933,39.34319 7.09248,79.75694 28.77138,112.81058 6.15573,13.1144 17.12902,23.41857 23.41858,36.66679 5.3528,9.50124 15.12169,22.48182 6.691,32.78599 -13.11439,13.7835 -21.54508,31.04633 -33.45508,45.63276 -6.82485,0.40145 -13.64968,1.20437 -20.60834,0.93673 -6.42339,-2.27494 -11.91002,-6.42338 -16.72755,-11.24091 -5.219,-5.35281 -11.91002,-9.50124 -15.79081,-16.19227 -10.17034,-16.72755 -14.85406,-36.26532 -16.4599,-55.53545 0.40145,-75.60852 0.6691,-151.21704 0.26763,-226.69173 z"
         id="path7" />
      <path
         fill="#fdfdfd"
         stroke="#fdfdfd"
         stroke-width="0.0809759"
         opacity="1"
         d="m -651.69621,403.40792 c 5.48664,-6.82485 14.98788,-5.35282 22.34801,-3.07787 0.53528,73.86885 0.53528,147.87152 0.26764,221.74036 -3.61315,19.80542 -5.75428,40.6814 -16.05845,58.3457 -11.7762,16.72754 -29.03902,31.58161 -50.45028,32.38453 -16.05845,-17.93193 -30.10959,-37.46971 -44.29454,-56.87366 5.48663,-12.44529 11.77619,-24.62295 20.07305,-35.59623 17.12902,-23.6862 33.4551,-48.84443 40.27993,-77.61582 7.8954,-22.88328 4.41607,-47.50623 7.49395,-71.19244 0.6691,-7.89539 6.95866,-13.38204 12.71293,-18.06575 1.20439,-16.59373 -4.68371,-36.26533 7.62776,-50.04882 z"
         id="path8" />
      <path
         fill="#fdfdfd"
         stroke="#fdfdfd"
         stroke-width="0.0809759"
         opacity="1"
         d="m -803.31469,663.82238 c 11.37472,-9.36743 21.94654,-19.6716 33.05363,-29.30667 4.41607,7.09249 10.30416,12.98058 14.85406,19.93924 16.19227,24.08768 34.1242,47.10478 50.71791,71.05863 6.28957,7.09248 12.17767,14.85406 15.52318,23.95385 -8.02922,10.17032 -20.60835,14.85405 -30.7787,22.74944 -16.05844,-21.14357 -31.44778,-42.95633 -48.57679,-63.29702 -4.41607,-6.28955 -8.5645,-12.71294 -14.05114,-18.06575 -5.48663,-5.219 -6.82484,-13.24822 -12.31147,-18.46721 -2.81023,-2.81023 -5.62046,-5.62046 -8.43068,-8.56451 z"
         id="path9" />
      <path
         fill="#fdfdfd"
         stroke="#fdfdfd"
         stroke-width="0.0809759"
         opacity="1"
         d="m -480.80757,635.31864 c 10.43798,9.76889 22.348,17.93194 32.2507,28.36993 -19.80541,22.48181 -35.32857,48.57679 -55.40163,70.92479 -9.23361,12.71294 -17.39665,26.89793 -30.91252,35.86385 -10.30416,-5.219 -20.87597,-11.10705 -28.63755,-19.80538 4.14843,-9.63505 10.83945,-18.06577 17.53046,-26.095 10.438,-14.18496 20.87599,-28.23609 30.64487,-42.95634 10.03653,-16.45991 23.41857,-30.64487 34.52567,-46.30185 z"
         id="path10" />
      <path
         fill="#734621"
         stroke="#734621"
         stroke-width="0.0809759"
         opacity="1"
         d="m -421.92661,657.13136 c 9.76889,3.07788 19.93923,5.48664 28.77138,10.83945 0.13383,1.60585 0.13383,3.21169 0.26764,4.81753 -9.50124,-5.88809 -21.00979,-6.5572 -30.51105,-11.91001 0.40146,-1.3382 0.93675,-2.54258 1.47203,-3.74697 z"
         id="path11" />
      <path
         fill="#734621"
         stroke="#734621"
         stroke-width="0.125457"
         opacity="1"
         d="m -875.5777,663.68857 c 14.05114,1.47201 27.83464,-3.34552 41.75196,-2.27496 -18.06575,3.61316 -37.33589,5.8881 -52.72524,16.99518 -10.83945,8.16305 -22.08035,16.86138 -28.2361,29.4405 -8.5645,18.46721 -11.10709,40.14615 -4.95135,59.81773 6.02191,17.39665 16.59373,32.78596 29.30666,45.76654 12.4453,14.31879 29.17284,23.82005 42.01961,37.73737 4.81753,-5.62046 9.76888,-11.24093 15.38933,-16.05845 19.27015,-17.12898 38.27264,-34.6595 59.81771,-48.71062 7.36013,-5.21899 13.78351,-11.6424 21.94655,-15.3894 3.07786,-1.33819 7.36012,-2.81018 9.90271,0.26768 6.82484,6.15572 12.57911,16.86139 23.28475,15.25552 9.09978,-2.40873 16.99519,-8.02919 25.82733,-11.24093 0.13382,0.80294 0.26764,2.5426 0.26764,3.34553 -10.70562,4.28227 -20.47452,10.3042 -31.04633,15.12173 -2.81023,1.07052 -6.5572,3.34544 -9.09979,0.53526 -4.54989,-4.14848 -7.36012,-9.63505 -10.97326,-14.58646 -4.82093,4.33892 -42.5235,30.70434 -53.12669,42.55489 -0.25565,0.29678 -28.52829,23.65127 -48.84445,42.15342 -11.10708,-8.02919 -22.21418,-16.05845 -32.25071,-25.29204 -18.46721,-14.0511 -34.92712,-31.04629 -46.43567,-51.25321 -13.51586,-28.3699 -11.10709,-64.23376 6.95866,-90.19491 11.24091,-13.91732 24.62295,-26.76408 41.21668,-33.99037 z"
         id="path12"
         sodipodi:nodetypes="ccccccccccccccccccccccc" />
      <path
         fill="#f0a21b"
         stroke="#f0a21b"
         stroke-width="0.0809759"
         opacity="1"
         d="m -626.40416,661.68125 c 2.54259,-0.93674 2.27496,2.27495 2.94405,3.74698 4.01461,18.73485 16.59373,34.7933 31.71544,45.90039 8.5645,4.6837 16.4599,10.43799 24.75677,15.52316 -3.74698,2.0073 -5.75428,5.62046 -5.75428,9.90272 -25.29205,3.34546 -50.85175,5.75427 -76.41144,3.61314 -12.71293,-2.27492 -28.77138,-1.2044 -36.53296,-13.7835 16.72754,-9.23361 34.25801,-18.60103 45.49892,-34.65949 8.5645,-7.89539 11.1071,-19.53776 13.7835,-30.2434 z"
         id="path13"
         style="fill:#ffd42a" />
      <path
         fill="#734621"
         stroke="#734621"
         stroke-width="0.125457"
         opacity="1"
         d="m -387.06205,667.19398 c 12.98057,8.83215 30.57361,21.51899 37.93373,35.83777 19.27013,32.38453 16.48707,67.04718 -7.89541,106.11955 -10.70562,16.05844 -27.16554,26.49643 -41.21667,39.07556 -7.22631,6.69098 -17.26283,10.03651 -22.88329,18.46725 -17.169,-15.80286 -34.3615,-30.25121 -50.98556,-44.56223 -11.30257,-10.30963 -16.86137,-15.38931 -25.42587,-23.01711 -4.81754,-3.88079 -10.03653,-8.966 -16.86137,-8.83211 -8.96597,0.26758 -17.79812,1.60578 -26.76409,1.73967 -3.61314,-1.60588 -7.22629,-3.21175 -10.97326,-4.68374 l -1.20439,-3.61313 c 0,-9.09978 -11.10709,-11.64239 -12.5791,-20.07304 9.36742,4.28218 14.98787,13.78344 24.75675,17.66424 9.90272,7.09245 19.27015,-4.28226 26.76409,-9.76885 7.8954,6.15573 15.52316,12.57912 23.95385,18.06571 24.3553,18.19958 43.89309,42.15342 68.51603,60.08533 12.57912,-11.64231 28.10228,-19.53769 39.74465,-32.2507 6.42338,-6.95865 12.4453,-14.31878 19.27014,-20.87597 11.24091,-10.83946 16.32608,-25.9611 20.87598,-40.41376 4.28225,-18.86864 -3.88079,-37.6035 -13.51586,-53.39431 -9.36743,-12.4453 -26.78956,-23.47472 -39.90395,-31.50395 -0.42238,-2.80854 -11.44049,-8.26649 -9.29937,-7.99885 0.80292,-1.3382 6.04264,2.40707 17.69297,3.93267 z"
         id="path14"
         sodipodi:nodetypes="ccccccccccccccccccccccc" />
      <path
         fill="#f0a21b"
         stroke="#f0a21b"
         stroke-width="0.0809759"
         opacity="1"
         d="m -452.83911,709.32131 c 9.63506,7.62776 20.34069,13.7835 31.04631,19.80542 0.66911,9.36745 -0.40145,19.80544 -7.3601,26.63022 -6.69103,6.02193 -14.45262,10.57186 -21.14364,16.5938 -5.48663,-5.219 -11.50855,-10.03661 -18.60102,-12.8468 2.6764,-8.69832 2.54258,-18.19958 5.88809,-26.76408 3.07787,-7.89539 6.5572,-15.65698 10.17036,-23.41856 z"
         id="path16" />
      <path
         fill="#f0a21b"
         stroke="#f0a21b"
         stroke-width="0.125457"
         opacity="1"
         d="m -845.60194,735.5501 c 8.96597,-8.96596 19.0025,-16.86136 28.9052,-24.62295 11.10709,7.09248 12.09575,17.06517 20.12496,26.70026 1.33821,2.6764 9.60843,10.34653 5.86147,12.75533 -8.69833,5.88805 -19.02777,14.34021 -28.79666,18.62247 -7.76157,-7.22633 -14.72023,-15.52318 -22.61564,-22.61564 -2.94405,-2.6764 -7.62777,-7.22633 -3.47933,-10.83947 z"
         id="path17"
         sodipodi:nodetypes="ccccccc" />
    </g>
  </g>
</svg>
