<svg width="256" height="256" viewBox="0 0 256 256" fill="none" xmlns="http://www.w3.org/2000/svg">
<rect width="256" height="256" fill="white"/>
<g clip-path="url(#clip0_177_66)">
<path d="M105.204 221.4C102.77 221.4 100.336 221.4 97.9029 221.4C97.5993 221.403 97.2958 221.388 96.9941 221.354C96.858 221.339 96.731 221.277 96.6337 221.18C96.5364 221.083 96.4745 220.956 96.458 220.819C96.4293 220.686 96.4132 220.551 96.4099 220.415C96.4099 219.327 96.3955 218.238 96.3835 217.149C96.3835 216.714 96.4821 216.344 96.8884 216.114C97.0596 216.003 97.2055 215.857 97.3166 215.685C97.4276 215.513 97.5013 215.319 97.5327 215.117C97.6869 214.595 97.7734 214.055 97.7899 213.511C97.7899 212.695 97.7899 211.878 97.7899 211.062C97.7899 207.388 97.7899 203.714 97.7899 200.04C97.7813 199.428 97.7307 198.818 97.6384 198.214C97.5687 197.713 97.398 197.282 96.9653 197.021C96.5326 196.76 96.3595 196.334 96.3667 195.811C96.3811 194.723 96.3667 193.634 96.3667 192.545C96.3664 192.375 96.3833 192.206 96.4172 192.04C96.4358 191.921 96.4932 191.812 96.5802 191.729C96.6673 191.647 96.7791 191.596 96.898 191.585C97.1324 191.555 97.3685 191.54 97.6048 191.541C102.269 191.541 106.935 191.517 111.599 191.58C113.394 191.576 115.18 191.833 116.903 192.342C118.538 192.843 119.917 193.963 120.749 195.465C121.06 196.072 121.245 196.736 121.29 197.418C121.49 199.186 121.185 200.975 120.41 202.575C119.79 203.925 118.691 204.726 117.34 205.237C117.088 205.331 116.826 205.406 116.581 205.515C116.537 205.54 116.501 205.575 116.474 205.617C116.447 205.659 116.43 205.707 116.424 205.757C116.427 205.806 116.442 205.854 116.468 205.896C116.493 205.938 116.529 205.973 116.571 205.999C116.821 206.101 117.077 206.188 117.338 206.258C118.426 206.548 119.406 207.152 120.158 207.995C120.223 208.072 120.293 208.146 120.367 208.215C121.634 209.303 121.992 210.757 121.966 212.345C121.95 213.601 121.767 214.85 121.42 216.058C120.805 218.175 119.444 219.585 117.456 220.413C115.913 221.035 114.269 221.363 112.607 221.38C110.14 221.424 107.671 221.38 105.204 221.38V221.4ZM107.402 211.984H107.39C107.39 212.729 107.39 213.477 107.39 214.222C107.389 214.459 107.4 214.697 107.423 214.933C107.423 215.055 107.468 215.172 107.549 215.262C107.631 215.351 107.743 215.407 107.863 215.417C108.673 215.492 109.481 215.514 110.246 215.161C110.437 215.09 110.612 214.982 110.76 214.842C110.908 214.701 111.027 214.533 111.109 214.345C111.633 212.94 111.77 211.512 111.311 210.061C111.227 209.764 111.068 209.494 110.849 209.278C110.63 209.062 110.359 208.908 110.063 208.829C109.48 208.66 108.874 208.578 108.267 208.587C107.637 208.604 107.421 208.812 107.406 209.451C107.385 210.288 107.402 211.135 107.402 211.984ZM107.416 200.33C107.416 201.177 107.399 202.024 107.416 202.873C107.428 203.335 107.613 203.553 108.005 203.546C108.917 203.551 109.823 203.387 110.676 203.062C110.869 202.992 111.038 202.868 111.162 202.703C111.286 202.539 111.359 202.341 111.373 202.135C111.468 201.19 111.452 200.236 111.325 199.295C111.27 198.869 111.08 198.472 110.783 198.163C110.487 197.855 110.099 197.65 109.678 197.58C109.184 197.477 108.682 197.41 108.178 197.379C107.659 197.34 107.373 197.587 107.433 198.09C107.531 198.85 107.39 199.588 107.416 200.33Z" fill="#18BE4A"/>
<path d="M138.369 205.825C138.369 203.614 138.369 201.402 138.369 199.191C138.369 198.988 138.369 198.782 138.369 198.579C138.397 198.255 138.347 197.929 138.223 197.629C138.1 197.328 137.907 197.062 137.66 196.852C137.502 196.722 137.377 196.557 137.294 196.37C137.21 196.184 137.171 195.98 137.179 195.775C137.179 194.687 137.179 193.598 137.179 192.509C137.179 192.407 137.188 192.305 137.205 192.204C137.213 192.049 137.277 191.902 137.384 191.79C137.49 191.679 137.634 191.609 137.787 191.595C138.021 191.562 138.258 191.548 138.494 191.551C141.639 191.551 144.782 191.547 147.925 191.539C149.041 191.539 149.128 191.641 149.147 192.763C149.147 193.683 149.147 194.599 149.147 195.519C149.147 196.095 149.029 196.583 148.555 196.97C147.923 197.478 147.733 198.18 147.728 198.971C147.728 200.706 147.764 202.443 147.685 204.175C147.543 207.235 147.596 210.296 147.529 213.354C147.474 215.45 146.711 217.465 145.365 219.066C145.15 219.327 144.904 219.561 144.632 219.762C143.055 220.954 141.176 221.673 139.211 221.836C138.001 221.97 136.784 222.022 135.568 221.99C133.914 221.913 132.258 221.777 130.659 221.315C129.056 220.852 127.615 219.946 126.498 218.7C126.154 218.317 125.88 217.877 125.687 217.399C125.081 215.954 124.718 214.418 124.615 212.853C124.607 212.581 124.625 212.308 124.67 212.04C124.781 211.23 124.792 210.409 124.702 209.596C124.625 208.818 124.591 208.037 124.601 207.255C124.601 205.247 124.601 203.241 124.601 201.233C124.6 200.655 124.629 200.078 124.687 199.503C124.71 198.926 124.653 198.348 124.519 197.786C124.429 197.454 124.236 197.16 123.968 196.946C123.833 196.818 123.725 196.663 123.653 196.49C123.58 196.318 123.545 196.132 123.548 195.945C123.548 194.788 123.548 193.632 123.574 192.475C123.593 191.781 123.8 191.609 124.519 191.563C124.687 191.563 124.858 191.563 125.026 191.563L133.95 191.549C134.191 191.549 134.431 191.549 134.672 191.549C135.547 191.59 135.713 191.75 135.732 192.666C135.751 193.583 135.732 194.573 135.732 195.524C135.756 195.778 135.721 196.035 135.629 196.274C135.537 196.512 135.391 196.726 135.203 196.898C134.9 197.177 134.709 197.558 134.667 197.969C134.601 198.337 134.561 198.709 134.549 199.082C134.549 203.539 134.549 207.995 134.549 212.451C134.568 213.165 134.643 213.876 134.773 214.578C134.804 214.798 134.891 215.007 135.026 215.183C135.162 215.359 135.34 215.496 135.544 215.582C136.004 215.809 136.528 215.87 137.028 215.756C137.263 215.72 137.482 215.616 137.66 215.456C137.837 215.297 137.965 215.089 138.028 214.858C138.247 214.179 138.363 213.47 138.371 212.756C138.357 210.45 138.369 208.138 138.369 205.825Z" fill="#18BE4A"/>
<path d="M63.0647 191.548C64.5865 191.548 66.1059 191.548 67.6325 191.548C68.7312 191.548 68.8177 191.652 68.8346 192.794C68.8346 193.135 68.849 193.474 68.8346 193.815C68.7817 195.245 69.1832 196.568 69.7385 197.86C69.823 198.045 69.9279 198.219 70.0511 198.38C70.081 198.423 70.1212 198.456 70.1679 198.478C70.2146 198.5 70.2661 198.509 70.3175 198.505C70.3688 198.501 70.4182 198.484 70.4608 198.454C70.5034 198.425 70.5379 198.386 70.5607 198.339C70.7314 198.008 70.8685 197.662 71.0175 197.321C71.4752 196.292 71.6924 195.172 71.6522 194.045C71.6354 193.501 71.6354 192.956 71.6666 192.415C71.7051 191.754 71.8878 191.587 72.5393 191.544C72.7797 191.527 73.0201 191.544 73.2606 191.544L81.2687 191.507C81.788 191.507 81.9659 191.626 81.9755 192.146C82.002 193.336 81.9899 194.527 81.9755 195.717C81.9718 195.904 81.9267 196.088 81.8435 196.255C81.7604 196.423 81.6412 196.569 81.4947 196.685C80.5811 197.468 79.9344 198.463 79.2781 199.457C78.2155 201.073 77.136 202.68 76.0662 204.296C75.954 204.465 75.8434 204.636 75.7344 204.808C75.6292 204.965 75.5703 205.148 75.5648 205.336C75.5592 205.525 75.6072 205.711 75.7031 205.873C75.7512 205.962 75.7921 206.057 75.8426 206.146C76.793 207.83 77.7442 209.514 78.6963 211.198C79.0305 211.788 79.343 212.393 79.6892 212.976C80.2253 213.881 80.7686 214.783 81.336 215.666C81.6442 216.116 81.8032 216.652 81.7904 217.198C81.7639 218.114 81.776 219.034 81.7663 219.953C81.7686 220.157 81.7582 220.36 81.7351 220.563C81.6558 221.146 81.4682 221.322 80.8888 221.378C80.7206 221.395 80.5523 221.393 80.3816 221.393H71.4623C71.2594 221.398 71.0564 221.392 70.854 221.376C70.3492 221.322 70.1328 221.134 70.0679 220.606C70.0358 220.337 70.0222 220.065 70.027 219.793C70.027 218.91 70.027 218.025 70.015 217.132C69.9813 215.649 69.3731 214.369 68.5581 213.174C68.5263 213.123 68.4824 213.081 68.4303 213.051C68.3782 213.021 68.3195 213.005 68.2596 213.004C68.1997 213.003 68.1405 213.017 68.0873 213.044C68.034 213.072 67.9884 213.112 67.9547 213.162C67.8831 213.236 67.8194 213.317 67.7647 213.404C66.969 214.732 66.3631 216.119 66.3872 217.713C66.3992 218.494 66.3872 219.278 66.3727 220.06C66.3753 220.263 66.3649 220.467 66.3415 220.669C66.2766 221.131 66.1011 221.305 65.6203 221.366C65.4526 221.383 65.284 221.391 65.1154 221.388C62.7834 221.388 60.4514 221.402 58.1194 221.388C56.9606 221.388 56.8308 221.245 56.8139 220.108C56.7995 219.019 56.7995 217.931 56.7875 216.844C56.7758 216.726 56.7902 216.607 56.8297 216.494C56.8692 216.382 56.9328 216.28 57.0159 216.196C57.6241 215.63 57.9775 214.892 58.3694 214.176C58.6832 213.576 59.0283 212.993 59.4032 212.429C60.3192 211.084 61.1534 209.683 62.0213 208.316C62.4204 207.685 62.7954 207.039 63.2233 206.434C63.6849 205.788 63.6561 205.208 63.2089 204.567C62.0838 202.95 60.9923 201.315 59.884 199.687C59.4441 199.043 59.0089 198.395 58.5545 197.751C58.3328 197.409 58.0722 197.094 57.778 196.813C57.5827 196.651 57.4288 196.444 57.3292 196.21C57.2297 195.976 57.1874 195.722 57.2058 195.468C57.2251 194.517 57.2058 193.564 57.2202 192.611C57.2199 192.44 57.2336 192.27 57.2611 192.102C57.2728 191.965 57.3343 191.836 57.4339 191.74C57.5336 191.645 57.6646 191.59 57.802 191.585C58.0703 191.556 58.3401 191.544 58.6098 191.548C60.0972 191.548 61.5845 191.548 63.0719 191.548H63.0647Z" fill="#18BE4A"/>
<path d="M162.026 221.407H151.988C151.651 221.411 151.313 221.397 150.976 221.366C150.84 221.354 150.711 221.296 150.611 221.202C150.511 221.107 150.445 220.982 150.423 220.846C150.412 220.814 150.404 220.78 150.399 220.747C150.338 219.593 150.338 218.436 150.399 217.282C150.41 217.128 150.455 216.979 150.53 216.844C150.605 216.71 150.708 216.593 150.832 216.503C151.016 216.352 151.167 216.164 151.274 215.952C151.382 215.739 151.444 215.506 151.457 215.267C151.515 214.796 151.549 214.322 151.558 213.847C151.573 209.46 151.581 205.073 151.585 200.686C151.563 199.972 151.598 199.258 151.69 198.55C151.762 198.249 151.75 197.935 151.656 197.641C151.562 197.346 151.39 197.084 151.159 196.881C151.019 196.757 150.909 196.603 150.837 196.431C150.765 196.258 150.734 196.071 150.745 195.884C150.745 194.727 150.745 193.571 150.745 192.415C150.747 192.278 150.764 192.143 150.796 192.011C150.812 191.908 150.86 191.814 150.933 191.741C151.006 191.669 151.101 191.621 151.202 191.607C151.469 191.568 151.738 191.549 152.008 191.551C155.083 191.551 158.159 191.551 161.235 191.551C162.49 191.551 162.55 191.616 162.557 192.877C162.557 193.796 162.557 194.713 162.557 195.632C162.575 195.869 162.539 196.107 162.452 196.328C162.364 196.548 162.227 196.746 162.052 196.905C161.803 197.137 161.615 197.428 161.504 197.751C161.394 198.075 161.364 198.42 161.417 198.758C161.469 199.265 161.496 199.775 161.497 200.284C161.505 204.841 161.509 209.398 161.509 213.956C161.504 214.33 161.52 214.704 161.554 215.076C161.556 215.145 161.572 215.214 161.601 215.276C161.631 215.339 161.674 215.394 161.727 215.439C161.78 215.483 161.841 215.516 161.908 215.534C161.974 215.553 162.044 215.556 162.112 215.545C162.689 215.531 163.255 215.39 163.771 215.132C163.97 215.034 164.14 214.887 164.267 214.705C164.393 214.522 164.471 214.31 164.492 214.089C164.509 213.919 164.528 213.75 164.528 213.581C164.548 211.846 164.769 210.121 164.709 208.384C164.699 208.146 164.709 207.907 164.738 207.67C164.739 207.532 164.793 207.399 164.888 207.299C164.984 207.199 165.114 207.14 165.252 207.133C165.486 207.103 165.723 207.089 165.959 207.092C168.089 207.092 170.217 207.092 172.347 207.092C173.575 207.092 173.702 207.218 173.705 208.425C173.705 212.296 173.705 216.173 173.705 220.055C173.705 221.276 173.582 221.397 172.363 221.4C168.916 221.4 165.468 221.4 162.026 221.4V221.407Z" fill="#18BE4A"/>
<path d="M186.512 221.398H176.566C176.229 221.398 175.89 221.398 175.554 221.359C175.399 221.348 175.254 221.282 175.144 221.173C175.034 221.064 174.966 220.919 174.953 220.764C174.926 220.596 174.912 220.426 174.912 220.256C174.897 219.407 174.892 218.562 174.876 217.706C174.876 217.176 174.929 216.695 175.412 216.358C175.538 216.27 175.643 216.155 175.721 216.022C175.799 215.889 175.848 215.74 175.864 215.587C175.981 214.917 176.056 214.241 176.09 213.562C176.09 208.562 176.09 203.562 176.09 198.562C176.09 197.897 176.039 197.273 175.51 196.786C175.376 196.656 175.271 196.498 175.203 196.323C175.135 196.148 175.105 195.96 175.116 195.773C175.116 194.644 175.116 193.522 175.116 192.408C175.116 192.374 175.116 192.34 175.116 192.306C175.171 191.735 175.313 191.58 175.856 191.541C176.126 191.522 176.397 191.541 176.667 191.541C178.253 191.541 179.843 191.541 181.429 191.541C182.375 191.555 183.32 191.515 184.261 191.423C184.935 191.364 185.611 191.358 186.286 191.406C186.882 191.433 187.072 191.626 187.081 192.233C187.103 193.491 187.081 194.749 187.081 196.007C187.093 196.178 187.06 196.349 186.984 196.502C186.909 196.656 186.795 196.786 186.653 196.881C186.084 197.256 185.932 197.836 185.894 198.468C185.894 198.637 185.894 198.807 185.894 198.978C185.894 203.943 185.894 208.906 185.894 213.869C185.894 214.004 185.894 214.14 185.894 214.278C185.874 215.359 185.992 215.545 187.221 215.441C188.226 215.357 188.639 214.975 188.904 213.975C189.033 213.447 189.095 212.904 189.086 212.359C189.086 211.034 189.086 209.698 189.086 208.382C189.086 207.235 189.223 207.102 190.38 207.097C192.576 207.088 194.771 207.088 196.967 207.097C198.01 207.097 198.215 207.288 198.208 208.36C198.191 210.538 198.28 212.715 198.107 214.892C198.008 216.143 198.083 217.406 198.073 218.664C198.073 219.344 198.073 220.024 198.035 220.703C198.008 221.187 197.825 221.357 197.335 221.395C197.032 221.419 196.727 221.415 196.424 221.415L186.512 221.398Z" fill="#18BE4A"/>
<path d="M116.508 159.038C116.508 158.98 116.508 158.903 116.477 158.862C115.568 157.725 115.176 156.389 115.018 154.974C114.999 154.783 114.938 154.599 114.84 154.435C114.742 154.27 114.609 154.13 114.45 154.023C112.659 152.639 110.926 151.19 109.553 149.361C108.18 147.532 107.327 145.49 107.349 143.132C107.349 142.326 107.64 141.61 107.938 140.894C109.082 138.153 110.719 135.68 112.162 133.104C114.085 129.681 115.727 126.153 116.439 122.251C116.54 121.702 116.614 121.15 116.763 120.591C116.963 121.084 117.063 121.612 117.056 122.144C117.453 129.001 115.511 135.17 111.527 140.686C110.38 142.273 110.306 143.853 110.919 145.573C111.681 147.714 113.133 149.369 114.813 150.808C117.884 153.438 121.389 155.182 125.392 155.821C125.75 155.879 126.113 155.908 126.473 155.956C126.509 155.956 126.538 156.007 126.656 156.101C124.906 156.89 123.129 156.955 121.345 156.798C119.562 156.641 117.838 156.026 116.083 155.281C116.213 155.968 116.633 156.329 117.044 156.68C118.062 157.513 119.178 158.216 120.367 158.775C121.848 159.517 123.379 160.144 124.92 160.746C125.209 160.86 125.505 161.008 125.584 160.504C125.627 160.236 125.846 160.185 126.065 160.183C127.01 160.183 127.954 160.168 128.899 160.154C129.229 160.154 129.445 160.253 129.433 160.638C129.421 161.022 129.587 161.049 129.88 160.933C132.64 159.844 135.41 158.782 137.835 157.004C138.47 156.591 138.957 155.985 139.225 155.274C135.746 156.759 132.279 157.521 128.483 156.101C129.156 155.794 129.721 155.859 130.248 155.765C135.407 154.722 139.732 152.274 142.99 148.074C144.108 146.635 144.836 145.007 144.714 143.105C144.682 142.369 144.431 141.659 143.992 141.068C140.858 136.909 138.89 131.98 138.295 126.794C138.013 124.703 138.059 122.581 138.432 120.504C138.73 120.988 138.684 121.438 138.756 121.859C139.357 125.396 140.679 128.662 142.401 131.778C143.728 134.197 145.11 136.59 146.456 139.002C146.74 139.51 146.937 140.059 147.214 140.577C148.353 142.769 148.014 144.932 147.07 147.065C145.98 149.523 144.093 151.318 142.086 153.005C142.07 153.019 142.053 153.032 142.035 153.043C140.896 153.769 140.059 154.647 140.025 156.159C140.009 156.982 139.545 157.754 139.064 158.47C139.367 158.656 139.605 158.47 139.828 158.412C147.634 156.229 154.787 152.148 160.656 146.529C166.525 140.909 170.931 133.924 173.486 126.187C174.995 121.705 175.82 117.019 175.933 112.288C175.95 111.425 176.068 110.566 175.986 109.7C175.945 109.255 175.746 109.151 175.352 109.288C174.462 109.607 173.59 109.975 172.741 110.392C170.541 111.432 168.324 111.749 166.036 110.66C164.617 109.985 163.555 108.897 162.562 107.723C161.949 106.997 161.396 106.223 160.699 105.577C160.168 105.063 159.53 104.675 158.831 104.443C159.698 104.051 160.569 104.152 161.434 104.343C162.354 104.571 163.224 104.968 163.999 105.514C165.019 106.192 165.985 106.966 167.139 107.416C167.353 107.513 167.584 107.567 167.819 107.572C168.053 107.578 168.286 107.537 168.505 107.45C169.745 106.966 171.024 106.574 172.241 106.037C175.662 104.523 178.893 104.98 182.023 106.852C182.225 106.973 182.439 107.075 182.651 107.179C182.677 107.191 182.727 107.16 182.877 107.118C180.355 103.756 177.107 101.382 173.5 99.4687C169.894 97.555 166.021 96.3381 161.881 96.1736C165.968 95.2567 169.99 95.2906 174.077 96.8994C173.823 96.0793 173.621 95.4043 173.399 94.7366C173.313 94.4704 173.099 94.4946 172.866 94.5382C172.25 94.6891 171.621 94.7759 170.988 94.797C171.229 94.7075 171.455 94.6083 171.693 94.5261C176.385 92.9076 181.049 91.2117 185.596 89.2037C190.555 87.0239 195.383 84.5805 199.614 81.0967C201.472 79.5701 203.126 77.8525 204.386 75.7743C205.961 73.1929 206.687 70.418 206.358 67.3649C206.098 64.9698 205.692 62.6207 204.862 60.349C203.114 55.5686 199.785 52.4912 194.955 51.0276C192.683 50.3668 190.344 49.9667 187.983 49.8349C187.657 49.8489 187.333 49.7647 187.055 49.593C188.559 49.3877 190.076 49.2987 191.594 49.3268C194.068 49.3801 196.513 49.6583 198.881 50.4639C203.617 52.0751 206.795 55.3339 208.791 59.8579C209.885 62.4023 210.613 65.0905 210.954 67.8415C211.101 68.9205 210.779 69.9874 210.567 71.0422C209.156 78.017 205.237 83.1386 199.148 86.6538C195.657 88.669 191.902 90.0117 188.048 91.1077C187.086 91.3786 187.103 91.3714 187.382 92.3173C188.575 96.3778 189.376 100.544 189.774 104.76C190.05 107.75 190.115 110.757 189.969 113.757C189.281 127.673 184.082 140.979 175.166 151.64C166.251 162.3 154.111 169.728 140.602 172.787C139.641 173.007 139.641 173 139.641 173.997C139.641 177.367 139.624 180.739 139.655 184.109C139.655 184.77 139.456 184.961 138.811 184.956C135.999 184.927 133.186 184.956 130.373 184.942C129.58 184.942 129.546 184.905 129.543 184.095C129.543 181.192 129.543 178.296 129.543 175.407C129.543 174.297 129.543 174.302 128.409 174.306C127.274 174.311 126.175 174.335 125.06 174.306C124.473 174.285 124.274 174.468 124.278 175.073C124.303 178.056 124.29 181.037 124.278 184.025C124.278 184.956 124.278 184.958 123.343 184.958C120.552 184.958 117.758 184.944 114.967 184.958C114.347 184.958 114.155 184.76 114.16 184.141C114.184 180.684 114.16 177.226 114.184 173.767C114.184 173.218 113.996 173.022 113.489 172.91C102.962 170.696 93.1866 165.768 85.1201 158.61C74.9972 149.683 68.341 138.629 65.1515 125.449C62.5247 114.285 62.9232 102.616 66.3055 91.6592C66.4617 91.1488 66.3896 90.9456 65.8631 90.7907C62.1656 89.6972 58.5786 88.3279 55.2585 86.3223C48.8203 82.4346 45.1155 76.742 44.0601 69.2665C43.8029 67.4423 44.3222 65.7464 44.7381 64.0408C45.5843 60.6297 46.9739 57.4653 49.3564 54.8234C51.5946 52.3364 54.3858 50.8147 57.5881 50.0236C60.9539 49.1914 64.3774 49.1599 67.8104 49.6365C66.9185 49.905 65.9905 49.8784 65.0794 49.9994C62.5526 50.3091 60.0788 50.8219 57.7468 51.884C53.3857 53.8726 50.8686 57.3927 49.5728 61.9143C49.0033 63.9088 48.6557 65.9609 48.5366 68.0326C48.313 71.8478 49.7387 75.0848 52.1428 77.9371C54.7993 81.0822 58.1315 83.3587 61.6607 85.3691C67.4017 88.6376 73.5226 91.0327 79.7133 93.2632C81.1413 93.7761 82.5742 94.2721 83.9734 94.9107C82.9997 94.7148 82.0164 94.5575 81.0548 94.3059C80.4585 94.1511 80.1917 94.3059 80.033 94.8938C79.7758 95.847 79.4608 96.7857 79.2228 97.826C83.7906 95.3704 88.5508 95.0995 93.4793 96.1809C89.3225 96.3599 85.4567 97.5623 81.8024 99.4977C78.1482 101.433 74.9122 103.852 72.3566 107.239C72.7125 107.307 72.8783 107.104 73.0779 106.997C74.6886 106.114 76.3307 105.345 78.1939 105.152C79.6916 104.994 81.0932 105.352 82.4756 105.843C83.9541 106.366 85.4206 106.922 86.8848 107.484C87.2857 107.641 87.7317 107.634 88.1277 107.464C89.2288 107.043 90.1399 106.313 91.1088 105.677C92.1979 104.951 93.3278 104.377 94.6525 104.225C95.2694 104.181 95.8894 104.219 96.4964 104.339C96.4964 104.409 96.4964 104.477 96.4772 104.481C94.6741 105.062 93.7197 106.608 92.5921 107.948C91.2122 109.591 89.6086 110.866 87.4401 111.26C85.7837 111.56 84.2498 111.142 82.7521 110.471C81.5981 109.954 80.4682 109.368 79.2132 109.1C77.6193 108.756 77.5159 108.826 77.5159 110.426C77.5159 122.817 81.5067 133.755 89.5365 143.117C96.5902 151.343 105.459 156.624 115.999 159.036C116.165 159.063 116.326 159.159 116.508 159.038ZM121.622 168.607H124.581C125.557 168.607 125.56 168.607 125.56 167.639C125.56 166.026 125.56 164.407 125.56 162.781C125.56 161.315 125.622 161.482 124.281 161.494C122.158 161.513 120.081 161.32 118.172 160.263C117.614 159.953 117.732 160.422 117.73 160.681C117.73 163.1 117.73 165.52 117.715 167.939C117.715 168.461 117.912 168.614 118.4 168.604C119.477 168.592 120.55 168.607 121.622 168.607V168.607ZM137.282 164.397C137.282 163.231 137.268 162.065 137.282 160.901C137.282 160.396 137.186 160.2 136.677 160.497C136.184 160.762 135.657 160.957 135.111 161.078C133.474 161.506 131.806 161.562 130.13 161.487C129.649 161.467 129.431 161.605 129.438 162.135C129.459 164.07 129.457 166.02 129.438 167.963C129.438 168.447 129.596 168.616 130.07 168.611C132.258 168.597 134.446 168.597 136.633 168.611C137.114 168.611 137.285 168.43 137.278 167.961C137.27 166.773 137.282 165.585 137.282 164.399V164.397Z" fill="#18BE4A"/>
<path d="M66.8872 50.3913C65.6852 50.9937 64.4519 51.5501 63.3027 52.2566C61.2376 53.5218 59.4176 55.0605 58.254 57.2306C56.2947 60.8837 56.6601 64.4739 58.7156 67.9504C60.336 70.6914 62.8195 72.3728 65.7116 73.5147C68.2287 74.4969 70.8733 74.9034 73.5539 75.2227C74.0515 75.2808 74.2751 75.005 74.5155 74.6445C76.8337 71.2111 79.4918 68.0232 82.4491 65.1295C91.2074 56.5895 101.526 50.9574 113.462 48.3688C114.01 48.2502 114.184 48.0228 114.184 47.464C114.16 43.5931 114.184 39.7223 114.16 35.8515C114.16 35.2152 114.321 34.9854 114.989 34.9951C117.823 35.0289 120.657 35.0289 123.492 34.9951C124.129 34.9951 124.293 35.2225 124.29 35.8249C124.269 39.2602 124.29 42.6956 124.29 46.131C124.29 46.9535 124.29 46.9511 125.122 46.9511H128.728C129.527 46.9511 129.543 46.9511 129.543 46.1068C129.543 42.7198 129.543 39.3272 129.543 35.9289C129.543 35.0023 129.543 34.9999 130.481 34.9999C133.272 34.9999 136.063 35.0168 138.855 34.9878C139.48 34.9878 139.658 35.1838 139.655 35.8007C139.631 39.6909 139.655 43.5786 139.634 47.4688C139.634 48.0349 139.768 48.2938 140.369 48.4365C150.338 50.6201 159.626 55.2211 167.425 61.8393C171.647 65.361 175.368 69.449 178.484 73.9889C179.179 75.0098 179.816 75.4574 181.129 75.2735C183.663 74.9179 186.194 74.6106 188.62 73.7566C191.584 72.7115 194.149 71.0954 195.953 68.4342C199.318 63.4094 198.424 57.5475 193.729 53.7468C192.197 52.522 190.503 51.5187 188.695 50.7663C188.5 50.684 188.307 50.5921 188.094 50.4953C188.194 50.2776 188.36 50.3357 188.488 50.355C191.447 50.8147 194.19 51.78 196.486 53.8C198.907 55.8772 200.41 58.8351 200.667 62.0256C200.994 65.548 200.157 68.7802 197.77 71.4607C196.203 73.2268 194.234 74.4703 192.116 75.4598C188.101 77.3444 183.867 78.1911 179.446 78.2903C176.02 78.3605 172.637 77.9395 169.248 77.5646C166.091 77.2041 162.93 76.8581 159.775 77.596C159.739 77.596 159.696 77.5766 159.554 77.5379C160.302 77.1484 161.052 77.0541 161.768 76.8364C161.97 76.7759 162.278 76.817 162.343 76.6138C162.422 76.3719 162.122 76.2267 161.963 76.0646C155.481 69.3321 147.213 64.6154 138.143 62.4756C137.458 62.311 137.263 62.0062 137.27 61.3288C137.302 58.2612 137.285 55.1911 137.282 52.1356C137.282 51.33 137.244 51.2913 136.446 51.2913C134.405 51.2913 132.365 51.2913 130.325 51.2913C129.462 51.2913 129.452 51.2913 129.452 52.1477C129.452 54.8911 129.438 57.637 129.452 60.3732C129.452 60.9901 129.274 61.2272 128.644 61.1837C127.873 61.1332 127.099 61.1267 126.327 61.1643C125.726 61.1933 125.541 60.9393 125.543 60.3684C125.557 57.6467 125.543 54.9226 125.543 52.2009C125.543 51.3082 125.521 51.2864 124.646 51.284C122.628 51.284 120.61 51.284 118.59 51.284C117.713 51.284 117.71 51.284 117.71 52.1985C117.71 55.1815 117.694 58.162 117.722 61.1498C117.722 61.7691 117.525 62.0014 116.922 62.1175C108.239 63.8693 100.194 67.9673 93.6499 73.9719C92.8373 74.7098 92.0536 75.4743 91.2146 76.3525C92.657 76.771 94.1139 76.9138 95.4194 77.5621C94.5154 77.4896 93.6259 77.3033 92.7268 77.2113C90.6568 77.0009 88.6109 77.2331 86.565 77.4533C82.6631 77.8718 78.7708 78.4669 74.8281 78.2807C69.8035 78.0387 65.0192 76.921 60.6437 74.2913C57.3188 72.2422 55.0061 69.4479 54.405 65.4682C53.3617 58.6192 57.2587 52.692 63.9686 50.8679C64.9159 50.6042 65.8703 50.355 66.8872 50.3913Z" fill="#18BE4A"/>
<path d="M141.054 109.499C141.438 109.462 141.825 109.475 142.206 109.538C145.161 109.717 147.495 108.5 148.216 105.389C148.26 105.207 148.406 104.987 148.231 104.842C148.055 104.697 147.873 104.893 147.704 104.963C145.942 105.689 144.098 106.265 142.446 107.242C140.637 108.259 139.177 109.806 138.261 111.677C138.201 111.805 138.177 111.974 137.963 112.022C137.879 111.762 137.879 111.482 137.963 111.222C138.249 109.702 139.049 108.464 140.069 107.351C142.074 105.174 144.552 103.608 147.017 102.028C148.918 100.819 150.885 99.6939 152.589 98.1891C153.21 97.6423 153.751 97.0399 154.001 96.2198C154.123 95.8182 154.056 95.5835 153.606 95.4553C150.654 94.6134 148.798 92.5909 147.615 89.8257C147.228 88.9136 146.8 88.0161 146.394 87.1113C145.29 84.663 143.322 83.6009 140.737 83.5791C138.153 83.5573 135.72 84.1839 133.284 84.917C132.277 85.2218 131.289 85.5799 130.289 85.9113C130.076 86.021 129.835 86.0608 129.599 86.025C130.181 85.3969 130.844 84.8494 131.57 84.3968C135.482 81.7526 139.744 80.7849 144.379 81.8155C146.596 82.2993 148.226 83.5549 149.221 85.6186C149.673 86.55 150.161 87.462 150.635 88.3838C152.077 91.1732 154.38 92.6949 157.441 93.111C157.907 93.1739 158.379 93.2151 158.847 93.2562C159.242 93.2901 159.369 93.4425 159.088 93.7812C158.085 95.0319 157.359 96.4617 156.547 97.8335C155.034 100.393 152.79 102.435 150.108 103.693C149.628 103.92 149.471 104.099 149.654 104.702C150.25 106.664 149.534 108.331 148.183 109.712C146.832 111.093 145.182 111.406 143.374 110.844C142.502 110.597 141.704 110.135 141.054 109.499V109.499Z" fill="#18BE4A"/>
<path d="M125.408 86.0323C125.11 86.1073 124.867 85.9331 124.617 85.846C121.694 84.8251 118.744 83.8961 115.64 83.6251C113.765 83.463 111.938 83.5985 110.38 84.8348C109.481 85.5606 108.938 86.5283 108.457 87.5565C107.885 88.7661 107.421 90.0217 106.774 91.1854C105.693 93.2098 103.857 94.7195 101.67 95.3828C100.913 95.6247 100.855 95.7481 101.172 96.4981C101.505 97.2032 101.999 97.8185 102.615 98.2932C104.733 100.076 107.161 101.395 109.457 102.907C111.438 104.208 113.381 105.556 114.987 107.319C116.037 108.466 116.852 109.739 117.114 111.316C117.153 111.541 117.246 111.771 117.114 111.996C116.936 111.996 116.91 111.844 116.859 111.735C115.657 109.177 113.604 107.544 111.089 106.441C109.81 105.88 108.503 105.391 107.212 104.859C106.865 104.716 106.731 104.767 106.798 105.174C106.968 106.272 107.489 107.286 108.283 108.06C109.076 108.834 110.099 109.326 111.195 109.463C112.116 109.584 113.02 109.463 113.994 109.424C112.368 111.154 109.286 111.773 107.183 109.99C105.817 108.834 104.618 106.265 105.5 104.404C105.709 103.966 105.372 103.887 105.11 103.761C103.237 102.882 101.554 101.639 100.16 100.103C99.076 98.8932 98.2971 97.4658 97.4845 96.0675C97.046 95.2998 96.5602 94.5605 96.03 93.8538C95.9218 93.7111 95.691 93.5853 95.8161 93.37C95.9122 93.2006 96.1262 93.2563 96.2969 93.249C97.0899 93.209 97.8777 93.0964 98.6505 92.9127C101.276 92.3369 103.165 90.7959 104.42 88.4298C104.901 87.5129 105.382 86.5984 105.824 85.6597C107 83.1364 109.113 81.9752 111.717 81.5929C116.785 80.8527 121.216 82.3453 125.105 85.6138C125.23 85.7347 125.401 85.8194 125.408 86.0323Z" fill="#18BE4A"/>
<path d="M126.671 82.1952C126.209 80.2767 125.351 80.3009 123.899 80.2452C122.249 80.1823 120.605 80.463 118.965 80.6517C114.873 81.1499 110.744 81.2674 106.63 81.0025C105.731 80.9396 104.832 80.8791 103.94 80.7605C103.447 80.6976 103.276 80.8476 103.29 81.3387C103.317 82.7253 103.155 84.109 102.81 85.4515C102.343 87.3385 101.322 88.8772 99.9247 90.1884C99.4583 90.6263 98.9991 91.069 98.5231 91.5239C98.3765 91.2819 98.5231 91.144 98.5976 91.0037C100.841 86.541 100.716 82.1484 98.2202 77.826C97.785 77.0711 97.8091 77.0808 98.701 77.0373C102.548 76.8486 106.394 76.8921 110.229 76.9357C113.984 76.9768 117.739 77.1365 121.442 77.8332C122.918 78.1114 124.387 78.455 125.654 79.3525C125.989 79.5711 126.272 79.863 126.48 80.2064C126.688 80.5498 126.816 80.936 126.856 81.3363C126.863 81.6242 126.911 81.9339 126.671 82.1952Z" fill="#18BE4A"/>
<path d="M128.416 82.1613C128.267 81.7594 128.237 81.3229 128.328 80.904C128.42 80.4852 128.63 80.1019 128.933 79.8001C129.556 79.1034 130.375 78.7405 131.246 78.4477C133.251 77.7655 135.333 77.497 137.431 77.2986C143.038 76.7639 148.661 76.9018 154.28 76.9333C155.073 76.9333 155.864 77.0204 156.657 77.0228C157.229 77.0228 157.205 77.2647 156.972 77.6469C156.189 78.9398 155.606 80.3455 155.244 81.8154C154.522 84.837 154.962 87.7281 156.273 90.5247C156.464 90.8317 156.598 91.1711 156.669 91.5263C154.044 89.4869 152.267 87.0361 151.935 83.6903C151.843 82.8971 151.801 82.0987 151.81 81.3001C151.825 80.8283 151.637 80.7122 151.188 80.763C146.559 81.2854 141.887 81.2854 137.258 80.763C135.47 80.567 133.674 80.4073 131.883 80.2356C131.238 80.1871 130.589 80.2377 129.959 80.3856C129.015 80.5815 128.572 81.2251 128.416 82.1613Z" fill="#18BE4A"/>
<path d="M204.896 63.1748C205.304 64.19 205.54 65.2671 205.593 66.361C205.85 70.0649 204.689 73.3406 202.554 76.3018C200.023 79.8121 196.688 82.4032 193.003 84.566C186.949 88.1247 180.424 90.3892 173.529 91.5649C170.327 92.1117 167.098 92.3512 163.867 91.7464C161.982 91.3932 160.213 90.7787 158.859 89.3102C157.898 88.2651 157.568 86.9974 157.537 85.6208C157.524 85.5441 157.531 85.4651 157.558 85.3922C157.586 85.3193 157.633 85.2554 157.693 85.2071C157.859 85.4055 157.792 85.6571 157.84 85.8748C158.306 87.9651 159.646 89.2618 161.562 90.0094C163.704 90.8464 165.952 91.0472 168.211 90.8754C177.431 90.1739 185.706 86.7941 193.351 81.7209C196.65 79.5315 199.602 76.9235 201.903 73.6575C204.119 70.5245 205.358 67.1085 204.896 63.1748Z" fill="#18BE4A"/>
<path d="M97.2753 85.1322C97.5566 87.1813 96.8883 88.8385 95.2463 90.0627C93.7148 91.2021 91.9286 91.6666 90.075 91.8723C85.4158 92.3852 80.8744 91.6449 76.3883 90.4546C69.6231 88.6595 63.269 85.9523 57.677 81.6388C54.7488 79.3792 52.2509 76.7301 50.669 73.314C49.2181 70.2362 48.9359 66.7306 49.8757 63.4579C49.9067 63.3563 49.9444 63.2569 49.9887 63.1604C49.9887 63.1604 50.0271 63.1604 50.1016 63.1289C49.9155 64.6346 49.9789 66.1609 50.2892 67.6457C50.9792 70.6988 52.5514 73.2753 54.5829 75.5857C58.7613 80.3372 63.9879 83.608 69.6448 86.2305C73.9242 88.264 78.4644 89.6873 83.1343 90.4594C86.1587 90.9433 89.1927 91.1465 92.2051 90.3748C93.4236 90.0972 94.5545 89.5194 95.4963 88.6934C96.5469 87.7256 97.0782 86.516 97.2753 85.1322Z" fill="#18BE4A"/>
<path d="M142.877 143.127L139.225 144.431C136.859 145.279 134.516 146.187 132.195 147.155C131.638 147.397 131.585 147.639 131.888 148.123C132.438 148.999 132.777 149.995 133.409 150.825C133.945 151.529 134.244 151.643 135.071 151.389C136.25 151.022 137.288 150.299 138.044 149.318C138.588 148.638 138.629 148.22 138.311 147.286C138.543 147.378 138.743 147.536 138.886 147.741C139.029 147.946 139.109 148.189 139.117 148.44C139.198 149.291 138.864 150.012 138.369 150.658C137.239 152.132 135.886 153.225 133.902 153.208C133.317 153.216 132.753 152.993 132.33 152.586C131.71 152.006 131.267 151.287 130.786 150.6C130.425 150.038 130.014 149.509 129.558 149.02C128.18 147.656 126.372 147.796 125.231 149.366C124.608 150.218 124.113 151.159 123.43 151.972C121.956 153.723 121.266 153.852 119.278 152.732C118.119 152.081 117.071 151.304 116.371 150.143C115.672 148.982 115.768 148.07 116.559 147.395C116.642 147.346 116.73 147.305 116.821 147.274C116.225 148.561 117.001 149.323 117.783 150.027C118.605 150.77 119.538 151.343 120.706 151.377C120.899 151.399 121.094 151.366 121.268 151.28C121.442 151.194 121.588 151.06 121.689 150.893C122.288 149.896 122.891 148.897 123.468 147.891C123.694 147.501 123.317 147.465 123.108 147.38C121.297 146.642 119.487 145.904 117.667 145.188C116.129 144.581 114.58 144 113.037 143.405C112.879 143.347 112.734 143.259 112.609 143.146C113.741 142.967 114.857 143.115 115.975 143.26C119.617 143.729 123.108 144.784 126.512 146.132C126.852 146.282 127.218 146.364 127.589 146.372C127.961 146.38 128.33 146.314 128.676 146.178C131.844 145.019 135.054 144 138.381 143.381C139.655 143.171 140.939 143.033 142.228 142.967C142.341 142.946 142.457 142.949 142.569 142.976C142.681 143.004 142.786 143.055 142.877 143.127V143.127Z" fill="#18BE4A"/>
<path d="M95.7848 107.503C96.2079 107.539 96.4243 107.796 96.6743 107.987C98.5015 109.313 99.5857 111.183 100.449 113.215C101.4 115.367 102.232 117.57 102.942 119.815C103.602 122.035 104.95 123.984 106.788 125.379C109.176 127.264 110.154 129.886 110.33 132.862C110.309 132.968 110.276 133.071 110.231 133.169C109.801 132.431 109.245 131.775 108.587 131.234C107.053 130.051 105.52 128.868 103.988 127.684C100.598 125.052 98.6649 121.53 97.8163 117.364C97.2705 114.678 96.7849 111.981 96.2536 109.291C96.1502 108.698 95.9579 108.132 95.7848 107.503Z" fill="#18BE4A"/>
<path d="M144.834 133.05C144.865 130.798 145.375 128.725 146.771 126.935C147.545 126.009 148.411 125.165 149.356 124.416C150.364 123.603 151.131 122.527 151.572 121.305C152.496 118.658 153.45 116.021 154.532 113.433C155.46 111.214 156.631 109.175 158.672 107.781C158.84 107.667 158.972 107.462 159.268 107.52C159.028 108.459 158.787 109.383 158.583 110.324C158.102 112.605 157.773 114.92 157.306 117.195C156.364 121.791 154.133 125.541 150.313 128.289C149.58 128.817 148.859 129.356 148.149 129.908C146.937 130.837 145.666 131.693 144.834 133.05Z" fill="#18BE4A"/>
<path d="M130.457 143.388C131.419 142.292 132.635 141.603 133.905 140.995C135.218 140.385 136.58 139.884 137.975 139.498C133.195 134.224 132.039 128.316 134.544 121.595C134.804 121.931 134.715 122.217 134.71 122.471C134.657 126.088 135.068 129.63 136.393 133.019C137.595 136.048 139.374 138.603 142.211 140.311C142.326 140.403 142.435 140.502 142.538 140.608C138.439 141.183 134.397 142.113 130.457 143.388V143.388Z" fill="#18BE4A"/>
<path d="M112.724 140.618C113.414 140.12 113.948 139.772 114.441 139.372C117.278 137.077 118.792 133.977 119.706 130.52C120.396 127.915 120.605 125.249 120.622 122.563C120.622 122.326 120.628 122.089 120.641 121.852C120.641 121.821 120.687 121.792 120.768 121.692C121.19 122.713 121.504 123.775 121.704 124.862C122.771 130.029 121.403 134.558 118.119 138.576C117.359 139.508 117.362 139.489 118.523 139.871C120.687 140.597 122.788 141.475 124.56 142.984C124.685 143.091 124.867 143.156 124.889 143.468C120.932 142.136 116.859 141.182 112.724 140.618V140.618Z" fill="#18BE4A"/>
<path d="M137.037 95.6246C137.027 95.7542 137.027 95.8845 137.037 96.0141C137.115 96.428 137.069 96.8559 136.905 97.2435C136.742 97.6312 136.467 97.9611 136.116 98.1914C135.917 98.3558 135.735 98.5416 135.575 98.7454C135.511 98.804 135.46 98.8754 135.424 98.9552C135.389 99.0351 135.371 99.1214 135.371 99.2087C135.371 99.2961 135.389 99.3824 135.424 99.4622C135.46 99.542 135.511 99.6135 135.575 99.672C135.6 99.7068 135.629 99.7385 135.662 99.7664C137.001 100.632 137.205 101.944 137.025 103.381C136.975 103.778 137.229 104.37 136.878 104.523C136.527 104.675 136.258 104.104 135.984 103.826C134.638 102.464 133.32 101.07 131.974 99.7132C131.647 99.3817 131.611 99.1591 131.96 98.8132C133.489 97.2963 134.994 95.7552 136.511 94.2287C136.624 94.115 136.722 93.8948 136.919 93.9867C137.116 94.0787 137.02 94.2964 137.025 94.4706C137.044 94.8456 137.037 95.2254 137.037 95.6246Z" fill="#18BE4A"/>
<path d="M124.93 90.1206C125.548 89.9415 126.219 90.3189 126.767 91.0229C126.923 91.201 127.091 91.3683 127.269 91.5237C127.625 91.8697 127.99 91.889 128.337 91.5237C128.404 91.4706 128.465 91.4087 128.517 91.3399C129.51 89.5278 131.234 90.0988 132.758 90.0189C132.832 90.0189 132.957 90.0577 132.974 90.1085C133.051 90.3189 132.854 90.4109 132.734 90.527C131.597 91.7237 130.451 92.9229 129.294 94.1244C128.921 94.5115 128.536 94.8914 128.166 95.2809C128.129 95.3348 128.081 95.3792 128.024 95.4105C127.967 95.4417 127.903 95.4589 127.839 95.4605C127.774 95.4622 127.709 95.4483 127.651 95.42C127.593 95.3917 127.542 95.3498 127.502 95.2978L122.634 90.6794C122.545 90.5947 122.408 90.498 122.487 90.3576C122.567 90.2173 122.716 90.2681 122.838 90.2585L124.93 90.1206Z" fill="#18BE4A"/>
<path d="M133.445 108.306C132.337 108.372 131.306 108.522 130.265 108.425C129.825 108.384 129.606 107.968 129.322 107.687C128.147 106.523 128.137 106.506 127.034 107.709C126.577 108.207 126.127 108.57 125.394 108.524C124.714 108.481 124.026 108.568 123.341 108.585C123.161 108.585 122.91 108.664 122.834 108.432C122.773 108.251 122.973 108.135 123.088 108.016C124.097 106.987 125.107 105.96 126.12 104.934C126.632 104.414 127.159 103.903 127.654 103.366C127.945 103.049 128.151 103.083 128.445 103.366C130.046 104.927 131.664 106.47 133.275 108.021C133.341 108.11 133.398 108.206 133.445 108.306V108.306Z" fill="#18BE4A"/>
<path d="M118.814 102.827C118.819 102.762 118.819 102.697 118.814 102.633C118.646 101.559 119.009 100.748 119.857 100.049C120.706 99.35 120.723 99.0815 119.857 98.4356C118.737 97.5985 118.612 96.5171 118.73 95.2905C118.771 94.8695 118.528 94.2405 118.879 94.0809C119.23 93.9212 119.526 94.5188 119.816 94.8066C121.148 96.1203 122.461 97.4678 123.776 98.7839C124.091 99.0984 124.173 99.321 123.817 99.6815C122.319 101.194 120.85 102.735 119.364 104.261C119.239 104.389 119.124 104.639 118.91 104.532C118.742 104.45 118.816 104.22 118.812 104.048C118.809 103.647 118.814 103.235 118.814 102.827Z" fill="#18BE4A"/>
<path d="M159.345 103.228C162.792 100.678 170.382 101.106 173.71 104.237C169.024 102.372 164.254 101.757 159.345 103.228Z" fill="#18BE4A"/>
<path d="M96.0853 103.306C91.0896 101.772 86.3342 102.365 81.5861 104.307C83.656 101.32 93.6259 100.623 96.0853 103.306Z" fill="#18BE4A"/>
<path d="M129.318 99.3863C129.316 99.5642 129.28 99.7402 129.211 99.904C129.143 100.068 129.042 100.217 128.916 100.341C128.791 100.466 128.641 100.565 128.478 100.632C128.314 100.699 128.138 100.733 127.962 100.731C127.774 100.734 127.588 100.697 127.414 100.624C127.241 100.552 127.084 100.444 126.954 100.308C126.823 100.172 126.721 100.011 126.655 99.8341C126.589 99.6573 126.559 99.4687 126.567 99.2799C126.581 98.9129 126.74 98.5665 127.007 98.3169C127.275 98.0674 127.631 97.9352 127.995 97.9493C128.36 97.9634 128.704 98.1227 128.952 98.3922C129.2 98.6617 129.332 99.0193 129.318 99.3863Z" fill="#18BE4A"/>
</g>
<defs>
<clipPath id="clip0_177_66">
<rect width="167" height="187" fill="white" transform="translate(44 35)"/>
</clipPath>
</defs>
</svg>
