<?xml version="1.0" encoding="utf-8"?>
<!-- Generator: Adobe Illustrator 24.3.0, SVG Export Plug-In . SVG Version: 6.00 Build 0)  -->
<svg version="1.1" id="Layer_1" xmlns="http://www.w3.org/2000/svg" xmlns:xlink="http://www.w3.org/1999/xlink" x="0px" y="0px"
	 viewBox="0 0 256 256" style="enable-background:new 0 0 256 256;" xml:space="preserve">
<style type="text/css">
	.st0{fill:#FFFFFF;}
	.st1{fill:#5CD8CE;}
	.st2{clip-path:url(#SVGID_2_);fill:#44A9DD;}
	.st3{clip-path:url(#SVGID_2_);fill:#2E6CC5;}
	.st4{fill:none;stroke:#5CD8CE;stroke-width:12.4866;stroke-miterlimit:10;}
	.st5{clip-path:url(#SVGID_4_);fill:none;stroke:#44A9DD;stroke-width:25;stroke-miterlimit:10;}
	.st6{clip-path:url(#SVGID_6_);fill:none;stroke:#44A9DD;stroke-width:12.4559;stroke-miterlimit:10;}
</style>
<g>
	<path d="M-881.6-104.6c7.8,0,15.7,0,23.5,0c0.7,0.1,1.4,0.3,2.1,0.4c6.5,0.5,12.9,0.8,19.4,1.5c15.8,1.6,31.4,4.6,46.8,9
		c51.5,14.5,96,40.9,133.4,79.2c28.2,28.9,49.6,62.3,64.3,99.9c7.8,20,13.3,40.7,16.6,61.9c1.6,10.7,2.9,21.4,3,32.2
		c0.1,6.6,0.1,13.3,0.1,19.9c0,8.8-0.5,17.6-1.4,26.3c-1.7,15.2-4.5,30.2-8.4,44.9c-23,84.8-82.5,155.3-162.3,192.3
		c-36,16.7-73.8,25.6-113.4,27.2c-16.6,0.7-33.1-0.1-49.5-2.2c-18.7-2.4-37-6.4-54.8-12.4c-46.6-15.4-87-40.8-121.2-76.1
		c-21.2-21.9-38.7-46.6-52.3-73.9c-18.1-36.5-28.4-75-30.7-115.7c-0.1-1.7-0.5-3.4-0.8-5.1c0-8,0-16,0-24c0.2-0.7,0.5-1.5,0.6-2.2
		c0.5-5.2,0.8-10.3,1.3-15.5c1.3-13.9,3.6-27.5,7-41c13.6-54.6,40.4-101.7,80.4-141.2c28.5-28.2,61.5-49.7,98.8-64.5
		c30.8-12.2,62.8-19.2,96-20.5C-882.8-104.2-882.2-104.4-881.6-104.6z M-737.5,364c-48.6,39.3-126.3,60-202.9,33.6
		c-78.1-26.9-123.3-91.6-137.3-145.2c9.3,12.4,19.5,23.4,31.1,33.1c11.5,9.6,24,17.8,37.4,24.5c14.4,7.1,37.6,15.1,42.4,14.6
		c-0.1-0.9-0.2-1.9-0.3-2.8c-0.6-5-1.3-10-1.7-15c-1.4-19.9,0.1-39.6,4.6-59c15.1-65.3,63.1-119.2,126.4-141.7
		c19.7-7,39.9-10.7,60.7-11.4c3.5-0.1,7-0.1,10.5,0.3c19,2,34.4,15.6,38.9,34.1c0.2,0.8,0.4,1.6,0.7,2.5c0.1-2,0-3.9-0.2-5.8
		c-0.5-3.6-0.8-7.2-1.5-10.7c-7.4-37-26.3-66.6-58-87.4c-30.3-19.9-63.6-27.3-99.5-20.8c-32.4,5.9-58.9,22.1-79.8,47.5
		c-4.6,5.6-8.6,11.7-12.2,18.1c-13.4,23.8-33,41-57.5,52.9c-14.2,6.9-29.2,11.2-44.9,13.1c-9.4,1.1-18.8,1.3-28.2,0.5
		c-2.4-0.2-4.7-0.4-7.1-0.7c-14.7,61.5-6.9,153.9,62.1,227.5c68.8,73.4,172.3,97.8,265,66.5c90.6-30.6,144.3-105.2,161.2-168.6
		c-0.7,0.3-1.4,0.5-2,0.8c-21.3,8.8-43.5,11.9-66.4,9.6c-1.2-0.1-2.2,0.1-3.2,0.6c-18,9.7-37.2,15.4-57.6,17.4
		c-13.1,1.3-26.2,0.8-39.2-1.3c-17.6-2.8-34.2-8.6-49.8-17.3c-0.5-0.3-1.1-0.5-1.9-0.9c5.1,17.9,13.3,33.6,25.1,47.4
		C-800.2,345.8-771.7,360.4-737.5,364z M-622.4,243.1c17.2-83.4-8.5-180.9-88-246C-787-65.6-892.8-76.7-979.9-34.3
		c-44.2,21.6-79.2,53.5-105.1,95.3c-11.1,17.9-26.8,54.2-26.7,61.1c0.2,0.1,0.4,0.1,0.7,0.2c9.9,1.3,19.8,1.1,29.6-0.2
		c16.8-2.2,32.6-7.6,47.3-16.1c17.4-10.2,31.7-23.7,41.7-41.4c7.2-12.9,16.1-24.6,26.9-34.7c26.9-25.3,58.9-39.3,95.8-41.3
		c16.5-0.9,32.7,1,48.6,5.7c33.2,9.7,60.7,27.8,81.2,55.8c17.4,23.7,27.4,50.2,29.3,79.6c0.3,4.9,0.5,9.9-0.4,14.8
		c-1.6,8.8-6.7,15-14.2,19.5c-5.7,3.3-11.8,5.2-18.3,6.2c-2.2,0.4-4.4,0.5-7,0.9c0.7-1.2,1.1-1.9,1.6-2.7c3-5.1,5.6-10.5,6.1-16.5
		c0.4-4,0.2-8.1,0.3-12.2c0-3.6-0.7-7-2-10.3c-5.2-13.6-19-21.2-33.1-18.2c-13.4,2.8-22.9,15-22.8,29.1c0.1,8.4,1,16.7,2.9,25
		c12.1,53.4,58.1,91.4,112.8,93.1c16.6,0.5,32.6-2.4,48-8.7C-631.9,247.7-627.2,245.3-622.4,243.1z"/>
	<path class="st0" d="M-1167.5,204.8c0.3,1.7,0.7,3.4,0.8,5.1c2.3,40.7,12.5,79.2,30.7,115.7c13.6,27.3,31,52,52.3,73.9
		c34.2,35.2,74.5,60.7,121.2,76.1c17.9,5.9,36.1,10,54.8,12.4c16.4,2.1,33,2.9,49.5,2.2c39.6-1.6,77.4-10.6,113.4-27.2
		c79.8-37,139.3-107.5,162.3-192.3c4-14.7,6.8-29.7,8.4-44.9c1-8.8,1.5-17.5,1.4-26.3c0-6.6,0-13.3-0.1-19.9
		c-0.1-10.8-1.4-21.5-3-32.2c-3.3-21.2-8.8-41.9-16.6-61.9c-14.7-37.7-36-71-64.3-99.9c-37.4-38.3-81.9-64.7-133.4-79.2
		c-15.3-4.3-30.9-7.4-46.8-9c-6.4-0.6-12.9-1-19.4-1.5c-0.7-0.1-1.4-0.2-2.1-0.4c95.3,0,190.5,0,285.8,0c0,198.4,0,396.8,0,595.2
		c-198.4,0-396.8,0-595.2,0C-1167.5,395.4-1167.5,300.1-1167.5,204.8z"/>
	<path class="st0" d="M-881.6-104.6c-0.6,0.1-1.2,0.4-1.8,0.4c-33.2,1.3-65.2,8.3-96,20.5c-37.3,14.8-70.3,36.3-98.8,64.5
		c-40,39.5-66.8,86.6-80.4,141.2c-3.4,13.5-5.7,27.2-7,41c-0.5,5.2-0.8,10.3-1.3,15.5c-0.1,0.8-0.4,1.5-0.6,2.2
		c0-95.1,0-190.3,0-285.4C-1072.2-104.6-976.9-104.6-881.6-104.6z"/>
	<path class="st0" d="M-737.5,364c-34.3-3.6-62.7-18.2-85.1-44.3c-11.8-13.8-20.1-29.5-25.1-47.4c0.9,0.4,1.4,0.6,1.9,0.9
		c15.6,8.6,32.2,14.4,49.8,17.3c13,2.1,26.1,2.5,39.2,1.3c20.4-2,39.6-7.8,57.6-17.4c1-0.5,2-0.7,3.2-0.6
		c22.9,2.3,45.1-0.7,66.4-9.6c0.6-0.3,1.3-0.5,2-0.8c-16.9,63.4-70.6,138.1-161.2,168.6c-92.8,31.3-196.2,6.9-265-66.5
		c-69-73.6-76.8-166-62.1-227.5c2.3,0.2,4.7,0.5,7.1,0.7c9.4,0.8,18.8,0.7,28.2-0.5c15.7-1.9,30.7-6.2,44.9-13.1
		c24.5-11.8,44-29.1,57.5-52.9c3.6-6.4,7.6-12.4,12.2-18.1c20.9-25.4,47.4-41.6,79.8-47.5c35.9-6.5,69.2,0.9,99.5,20.8
		c31.7,20.8,50.6,50.4,58,87.4c0.7,3.5,1.1,7.1,1.5,10.7c0.2,1.9,0.3,3.8,0.2,5.8c-0.2-0.8-0.5-1.6-0.7-2.5
		c-4.5-18.5-19.9-32.1-38.9-34.1c-3.5-0.4-7-0.4-10.5-0.3c-20.8,0.7-41.1,4.4-60.7,11.4c-63.3,22.5-111.3,76.3-126.4,141.7
		c-4.5,19.5-6,39.1-4.6,59c0.4,5,1.1,10,1.7,15c0.1,0.9,0.2,1.9,0.3,2.8c-4.7,0.5-27.9-7.4-42.4-14.6c-13.5-6.6-25.9-14.8-37.4-24.5
		c-11.6-9.7-21.8-20.6-31.1-33.1c14,53.6,59.2,118.3,137.3,145.2C-863.7,424-786.1,403.3-737.5,364z"/>
	<path class="st0" d="M-622.4,243.1c-4.9,2.2-9.6,4.6-14.4,6.6c-15.4,6.3-31.4,9.2-48,8.7c-54.7-1.7-100.7-39.7-112.8-93.1
		c-1.9-8.2-2.8-16.5-2.9-25c-0.2-14.1,9.4-26.3,22.8-29.1c14.1-3,28,4.6,33.1,18.2c1.3,3.3,2,6.7,2,10.3c0,4.1,0.1,8.2-0.3,12.2
		c-0.5,6-3.1,11.4-6.1,16.5c-0.4,0.7-0.9,1.5-1.6,2.7c2.6-0.3,4.8-0.5,7-0.9c6.4-1,12.6-2.9,18.3-6.2c7.6-4.4,12.6-10.7,14.2-19.5
		c0.9-4.9,0.7-9.9,0.4-14.8c-1.9-29.4-11.9-56-29.3-79.6c-20.6-28-48.1-46.1-81.2-55.8c-15.8-4.7-32.1-6.6-48.6-5.7
		c-37,2-68.9,15.9-95.8,41.3c-10.8,10.1-19.7,21.8-26.9,34.7c-9.9,17.7-24.2,31.2-41.7,41.4c-14.7,8.6-30.5,13.9-47.3,16.1
		c-9.9,1.3-19.8,1.5-29.6,0.2c-0.2,0-0.5-0.1-0.7-0.2c-0.1-7,15.6-43.2,26.7-61.1c25.9-41.8,60.9-73.8,105.1-95.3
		C-892.8-76.7-787-65.6-710.3-2.9C-630.8,62.2-605.2,159.7-622.4,243.1z"/>
</g>
<image style="overflow:visible;" width="256" height="256" xlink:href="../Downloads/KakaoTalk_Photo_2021-11-10-07-13-26.png"  transform="matrix(1.9593 0 0 1.9593 1597.5 4.5)">
</image>
<image style="overflow:visible;" width="256" height="256" xlink:href="../Downloads/KakaoTalk_Photo_2021-11-10-07-13-26.png"  transform="matrix(1.9593 0 0 1.9593 1051.5 -32.5)">
</image>
<path class="st1" d="M-737.5,364c-34.3-3.6-62.7-18.2-85.1-44.3c-11.8-13.8-20.1-29.5-25.1-47.4c0.9,0.4,1.4,0.6,1.9,0.9
	c15.6,8.6,32.2,14.4,49.8,17.3c13,2.1,26.1,2.5,39.2,1.3c20.4-2,39.6-7.8,57.6-17.4c1-0.5,2-0.7,3.2-0.6c22.9,2.3,45.1-0.7,66.4-9.6
	c0.6-0.3,1.3-0.5,2-0.8c-16.9,63.4-70.6,138.1-161.2,168.6c-92.8,31.3-196.2,6.9-265-66.5c-69-73.6-76.8-166-62.1-227.5
	c2.3,0.2,4.7,0.5,7.1,0.7c9.4,0.8,18.8,0.7,28.2-0.5c15.7-1.9,30.7-6.2,44.9-13.1c24.5-11.8,44-29.1,57.5-52.9
	c3.6-6.4,7.6-12.4,12.2-18.1c20.9-25.4,47.4-41.6,79.8-47.5c35.9-6.5,69.2,0.9,99.5,20.8c31.7,20.8,50.6,50.4,58,87.4
	c0.7,3.5,1.1,7.1,1.5,10.7c0.2,1.9,0.3,3.8,0.2,5.8c-0.2-0.8-0.5-1.6-0.7-2.5c-4.5-18.5-19.9-32.1-38.9-34.1
	c-3.5-0.4-7-0.4-10.5-0.3c-20.8,0.7-41.1,4.4-60.7,11.4c-63.3,22.5-111.3,76.3-126.4,141.7c-4.5,19.5-6,39.1-4.6,59
	c0.4,5,1.1,10,1.7,15c0.1,0.9,0.2,1.9,0.3,2.8c-4.7,0.5-27.9-7.4-42.4-14.6c-13.5-6.6-25.9-14.8-37.4-24.5
	c-11.6-9.7-21.8-20.6-31.1-33.1c14,53.6,59.2,118.3,137.3,145.2C-863.7,424-786.1,403.3-737.5,364z"/>
<path class="st0" d="M-622.4,243.1c-4.9,2.2-9.6,4.6-14.4,6.6c-15.4,6.3-31.4,9.2-48,8.7c-54.7-1.7-100.7-39.7-112.8-93.1
	c-1.9-8.2-2.8-16.5-2.9-25c-0.2-14.1,9.4-26.3,22.8-29.1c14.1-3,28,4.6,33.1,18.2c1.3,3.3,2,6.7,2,10.3c0,4.1,0.1,8.2-0.3,12.2
	c-0.5,6-3.1,11.4-6.1,16.5c-0.4,0.7-0.9,1.5-1.6,2.7c2.6-0.3,4.8-0.5,7-0.9c6.4-1,12.6-2.9,18.3-6.2c7.6-4.4,12.6-10.7,14.2-19.5
	c0.9-4.9,0.7-9.9,0.4-14.8c-1.9-29.4-11.9-56-29.3-79.6c-20.6-28-48.1-46.1-81.2-55.8c-15.8-4.7-32.1-6.6-48.6-5.7
	c-37,2-68.9,15.9-95.8,41.3c-10.8,10.1-19.7,21.8-26.9,34.7c-9.9,17.7-24.2,31.2-41.7,41.4c-14.7,8.6-30.5,13.9-47.3,16.1
	c-9.9,1.3-19.8,1.5-29.6,0.2c-0.2,0-0.5-0.1-0.7-0.2c-0.1-7,15.6-43.2,26.7-61.1c25.9-41.8,60.9-73.8,105.1-95.3
	C-892.8-76.7-787-65.6-710.3-2.9C-630.8,62.2-605.2,159.7-622.4,243.1z"/>
<path class="st1" d="M23.9,97.3c26.2,42.4,80.3-41,103.4-50.7c45.7-19.2,101.7,30,57.9,66.7c15.4-57.8-93.5-28.8-23.5,41.1
	c30.3,34.1,66.5,10,81.7-8.8C250.2,288-26.2,274.2,8.6,105.3C13.5,74.5,16.8,85.8,23.9,97.3z"/>
<g>
	<defs>
		<path id="SVGID_1_" d="M23.9,97.3c26.2,42.4,80.3-41,103.4-50.7c45.7-19.2,101.7,30,57.9,66.7c15.4-57.8-93.5-28.8-23.5,41.1
			c30.3,34.1,81.5,15.4,81.7-8.8C242,293.1-26.2,274.2,8.6,105.3C13.5,74.5,16.8,85.8,23.9,97.3z"/>
	</defs>
	<clipPath id="SVGID_2_">
		<use xlink:href="#SVGID_1_"  style="overflow:visible;"/>
	</clipPath>
	<path class="st2" d="M163.2,83c-43.1,6.2-1.2,59.3-2.8,79.9c-14,34.3,72.3,36.3,75.4,36.9C175.7,321-16.5,241.4,6.5,115.7
		C68.6,205.5,88.8,66.2,163.2,83z"/>
	<path class="st3" d="M147.4,107.9c-1.1,4.4,11.9,40.7,14.7,45.6c0,0-3,14.2-3,14.2s-29.9-14.7-30.9-17.7c-1-3-0.5,29.4,19.3,41.1
		c19.8,11.7,47.1,17.2,47.1,17.2c-52.7,32.6-140.6,0.7-151.6-59.3C122.8,229.8,55.8,119,147.4,107.9z"/>
</g>
<circle class="st4" cx="128.1" cy="127.8" r="121.4"/>
<g>
	<defs>
		<polygon id="SVGID_3_" points="-99,645 -127.5,608.5 -129.5,833.5 55,933 294,917 361.5,792.5 309.5,788.5 283,626 165,492 
			-53,632 		"/>
	</defs>
	<clipPath id="SVGID_4_">
		<use xlink:href="#SVGID_3_"  style="overflow:visible;"/>
	</clipPath>
	<circle class="st5" cx="128" cy="647" r="243"/>
</g>
<g>
	<defs>
		<polygon id="SVGID_5_" points="15.1,126.8 0.9,108.6 -0.1,220.7 91.8,270.3 210.9,262.3 244.5,200.3 218.6,198.3 205.4,117.3 
			146.6,50.6 38,120.3 		"/>
	</defs>
	<clipPath id="SVGID_6_">
		<use xlink:href="#SVGID_5_"  style="overflow:visible;"/>
	</clipPath>
	<circle class="st6" cx="128.2" cy="127.8" r="121.1"/>
</g>
</svg>
