<?xml version="1.0" encoding="utf-8"?>
<!-- Generator: Adobe Illustrator 26.0.1, SVG Export Plug-In . SVG Version: 6.00 Build 0)  -->
<svg version="1.1" id="Layer_1" xmlns="http://www.w3.org/2000/svg" xmlns:xlink="http://www.w3.org/1999/xlink" x="0px" y="0px"
	 viewBox="0 0 1024 1024" style="enable-background:new 0 0 1024 1024;" xml:space="preserve">
<style type="text/css">
	.st0{fill:#FBFBFB;stroke:#000000;stroke-width:100;stroke-miterlimit:10;}
	.st1{fill:#FBFBFB;stroke:#84CDE6;stroke-width:40;stroke-miterlimit:10;}
	.st2{fill:none;stroke:#D1B6AD;stroke-width:60;stroke-miterlimit:10;stroke-dasharray:36.1324,36.1324;}
	.st3{fill:#848484;}
</style>
<circle class="st0" cx="513.4" cy="516.6" r="438.8"/>
<circle class="st1" cx="513.4" cy="516.6" r="438.8"/>
<path class="st2" d="M897.2,516.6c0,212.5-172.3,384.9-384.9,384.9C1.9,881.1,2,151.9,512.4,131.7
	C724.9,131.7,897.2,304,897.2,516.6L897.2,516.6z"/>
<path class="st3" d="M296.6,527.3l-29.1,19.2c-1.7,1.1-2.6,3-2.4,5l5.2,69.2c0.3,3.7-3.1,6.5-6.6,5.7L127.8,596
	c-1.7-0.4-3.5,0.1-4.9,1.3l-6,5.4c-2.8,2.5-2.2,7.1,1.1,8.9l120.7,64.1c2.5,1.3,3.6,4.3,2.5,6.9l-8.5,20.8c-1.6,3.9,1.6,8,5.8,7.5
	l58.8-7.7c1.4-0.2,2.8,0.2,3.9,1l79.6,58c1.9,1.4,4.6,1.4,6.5-0.1l14-10.6c2.4-1.8,2.9-5.3,1.1-7.7l-39.6-52.2
	c-2.3-3-0.9-7.4,2.7-8.5l59.1-18.7c0.4-0.1,0.9-0.3,1.2-0.6l82.3-51.4c0.8-0.5,1.6-0.7,2.5-0.8l31.7-2.3c0.7-0.1,1.5-0.3,2.1-0.6
	l39.5-20.3c1.5-0.8,3.2-0.8,4.7-0.1l94.4,42c0.5,0.2,1,0.5,1.4,0.9l92.3,82.9c1,0.9,2.4,1.4,3.8,1.4l13.5-0.4c1.4,0,2.7,0.4,3.7,1.3
	l49.5,42.9c2.4,2.1,6.2,1.7,8.1-1l13-18.4c1.2-1.8,1.3-4.1,0.2-5.9l-73-123.5c-1.5-2.5-0.7-5.8,1.7-7.4l44.6-29.2
	c4-2.6,3-8.7-1.7-9.9l-6.6-1.6c-2.5-0.6-4.2-2.9-4.1-5.5l1-33.3c0.1-4.3-4.6-7.1-8.3-4.9l-56.7,33.9c-2.6,1.6-6.1,0.7-7.6-2
	L726.3,494c-1-1.8-0.9-4.1,0.3-5.8l20.8-30c0.3-0.5,0.7-0.9,1.2-1.2l155.7-117.4c0.8-0.6,1.4-1.4,1.8-2.3l23.8-58.3
	c0.9-2.3,0.2-4.9-1.7-6.4l-12.7-10c-1-0.8-2.3-1.2-3.5-1.2l-44.1,1.3c-0.2,0-0.4,0-0.5,0l-68.8,9.1c-0.8,0.1-1.6,0.4-2.3,0.9
	L590,410.5c-2.3,1.5-5.3,1.1-7.1-0.9l-4.2-4.8l15.7-15.1c3.9-3.8,0.5-10.3-4.8-9.3l-25.7,4.7c-3.1,0.6-6-1.6-6.4-4.7l-2.9-24.7
	c-0.9-7.7-9.7-11.5-16-7l-44,31.6c-1.4,1-3.1,1.3-4.7,0.8L122.5,276.8c-0.9-0.3-1.9-0.3-2.8-0.1l-37.2,9.2c-5,1.2-5.7,8.1-1,10.3
	l99.8,45.6c3.1,1.4,4.2,5.3,2.2,8.1l-2.6,3.8c-2,2.8-0.9,6.7,2.2,8.1l198.8,88.6c0.3,0.1,0.7,0.3,1,0.6l63,45.5
	c2.9,2.1,3,6.4,0.2,8.7l-80.9,64.7c-2,1.6-4.7,1.6-6.7,0.1l-55.6-42.4C301.1,526.1,298.5,526.1,296.6,527.3z"/>
</svg>
