<svg id="svg" version="1.1" xmlns="http://www.w3.org/2000/svg" xmlns:xlink="http://www.w3.org/1999/xlink" width="256" height="256" viewBox="0, 0, 400,400"><g id="svgg"><path id="path0" d="M192.667 68.593 C 185.602 68.766,180.733 69.194,180.115 69.694 C 179.999 69.787,179.562 69.868,179.143 69.873 C 178.426 69.882,172.532 71.311,172.103 71.579 C 171.994 71.648,171.779 71.723,171.625 71.746 C 171.083 71.828,168.952 72.807,168.952 72.974 C 168.952 73.067,168.777 73.143,168.562 73.143 C 168.347 73.143,167.854 73.308,167.466 73.509 C 167.079 73.710,166.385 74.029,165.924 74.217 C 165.464 74.405,164.973 74.674,164.833 74.814 C 164.693 74.954,164.390 75.104,164.160 75.149 C 163.930 75.193,163.687 75.319,163.619 75.429 C 163.551 75.538,163.308 75.664,163.078 75.708 C 162.848 75.753,162.527 75.922,162.364 76.085 C 162.201 76.248,161.913 76.381,161.724 76.381 C 161.535 76.381,161.273 76.510,161.143 76.667 C 161.012 76.824,160.779 76.952,160.625 76.952 C 160.332 76.952,159.189 77.686,159.079 77.946 C 159.044 78.028,158.931 78.095,158.828 78.095 C 158.724 78.095,158.233 78.438,157.736 78.857 C 157.239 79.276,156.731 79.619,156.607 79.619 C 156.483 79.619,156.381 79.692,156.381 79.780 C 156.381 79.869,156.214 80.019,156.010 80.114 C 155.806 80.208,155.106 80.800,154.455 81.429 C 153.803 82.057,153.177 82.575,153.064 82.580 C 152.950 82.585,152.877 82.687,152.901 82.807 C 152.925 82.927,152.711 83.205,152.425 83.423 C 151.256 84.317,150.857 84.670,150.857 84.811 C 150.857 84.892,150.290 85.548,149.597 86.267 C 148.903 86.987,148.362 87.607,148.394 87.645 C 148.425 87.683,148.224 87.959,147.947 88.258 C 147.669 88.558,147.333 89.050,147.199 89.354 C 147.064 89.657,146.888 89.905,146.808 89.905 C 146.727 89.905,146.517 90.205,146.343 90.571 C 145.913 91.472,145.875 91.451,144.883 89.762 C 144.406 88.950,143.925 88.180,143.814 88.051 C 143.702 87.922,143.613 87.772,143.615 87.718 C 143.617 87.664,143.619 87.530,143.619 87.421 C 143.619 87.126,139.003 82.481,138.821 82.594 C 138.735 82.647,138.613 82.557,138.550 82.393 C 138.487 82.229,138.315 82.095,138.168 82.095 C 138.021 82.095,137.754 81.924,137.575 81.714 C 137.395 81.505,137.152 81.333,137.033 81.333 C 136.915 81.333,136.585 81.118,136.300 80.854 C 136.016 80.590,135.703 80.424,135.606 80.484 C 135.508 80.545,135.429 80.509,135.429 80.406 C 135.429 80.176,133.554 79.240,132.929 79.158 C 132.680 79.125,132.348 79.051,132.190 78.993 C 130.323 78.310,119.883 78.426,118.791 79.142 C 118.549 79.300,118.298 79.377,118.233 79.312 C 118.000 79.079,113.952 81.080,113.699 81.553 C 113.595 81.746,113.401 81.905,113.268 81.905 C 112.977 81.905,109.760 85.152,109.117 86.095 C 108.866 86.462,108.491 86.958,108.283 87.197 C 108.075 87.436,107.903 87.693,107.900 87.768 C 107.897 87.843,107.619 88.282,107.281 88.743 C 106.943 89.204,106.667 89.697,106.667 89.838 C 106.667 89.980,106.592 90.095,106.500 90.095 C 106.308 90.095,105.524 91.834,105.524 92.260 C 105.524 92.416,105.406 92.662,105.262 92.806 C 105.034 93.034,103.658 95.954,103.532 96.476 C 103.435 96.881,103.170 97.441,102.948 97.714 C 102.691 98.030,102.182 99.957,102.256 100.333 C 102.281 100.464,102.220 100.571,102.119 100.571 C 102.018 100.571,101.875 100.850,101.801 101.190 C 101.727 101.531,101.606 101.852,101.532 101.905 C 101.458 101.957,101.160 102.686,100.870 103.524 C 100.580 104.362,100.174 105.369,99.969 105.762 C 99.763 106.155,99.664 106.478,99.750 106.479 C 99.835 106.481,99.812 106.545,99.700 106.622 C 99.466 106.781,98.719 108.544,97.139 112.667 C 96.537 114.238,95.742 116.274,95.374 117.190 C 95.005 118.107,94.748 118.857,94.803 118.857 C 94.859 118.857,94.817 118.964,94.711 119.095 C 94.529 119.321,93.419 121.837,93.366 122.145 C 93.352 122.225,93.208 122.548,93.045 122.863 C 92.762 123.410,91.322 127.090,90.365 129.714 C 90.116 130.395,89.911 131.188,89.909 131.476 C 89.907 131.764,89.836 132.000,89.752 132.000 C 89.607 132.000,88.833 134.187,88.660 135.081 C 88.616 135.309,88.493 135.584,88.385 135.691 C 88.278 135.798,88.190 136.005,88.190 136.152 C 88.190 136.298,87.890 137.050,87.524 137.822 C 87.157 138.595,86.857 139.358,86.857 139.518 C 86.857 139.679,86.782 139.810,86.690 139.810 C 86.529 139.810,86.125 140.623,86.016 141.167 C 85.956 141.465,85.892 141.623,84.692 144.429 C 84.211 145.555,83.764 146.712,83.700 147.000 C 83.636 147.288,83.429 147.867,83.241 148.286 C 82.802 149.266,82.261 151.086,82.375 151.200 C 82.423 151.249,82.337 151.467,82.184 151.686 C 82.030 151.906,81.905 152.224,81.905 152.395 C 81.905 152.566,81.705 153.082,81.460 153.543 C 81.063 154.292,80.805 155.006,80.650 155.787 C 80.621 155.931,80.506 156.141,80.394 156.253 C 80.282 156.365,80.190 156.618,80.190 156.814 C 80.190 157.010,80.062 157.299,79.905 157.455 C 79.748 157.612,79.572 157.971,79.513 158.251 C 79.454 158.532,79.324 158.890,79.224 159.048 C 78.952 159.475,78.578 160.456,78.625 160.619 C 78.648 160.698,78.588 160.762,78.491 160.762 C 78.395 160.762,78.256 161.040,78.182 161.381 C 78.108 161.721,77.983 162.043,77.904 162.095 C 77.688 162.238,76.568 164.952,76.723 164.955 C 76.797 164.957,76.769 165.021,76.661 165.098 C 76.554 165.175,76.139 166.138,75.741 167.238 C 75.342 168.338,74.903 169.452,74.766 169.714 C 74.245 170.707,67.356 187.052,66.560 189.182 C 66.102 190.409,65.299 192.466,64.775 193.754 C 62.583 199.143,60.950 204.065,60.383 206.990 C 59.963 209.157,59.991 214.132,60.429 215.238 C 60.491 215.395,60.595 215.842,60.659 216.232 C 60.724 216.621,60.902 217.065,61.055 217.218 C 61.208 217.371,61.333 217.600,61.333 217.726 C 61.333 217.933,61.949 219.044,62.329 219.524 C 62.413 219.629,62.990 220.371,63.612 221.174 C 65.226 223.256,66.719 224.260,68.500 224.461 C 69.978 224.628,70.368 224.722,70.437 224.931 C 70.551 225.273,78.976 225.224,79.108 224.880 C 79.200 224.639,80.144 224.387,81.027 224.369 C 82.119 224.346,83.920 222.719,84.807 220.952 C 85.044 220.481,85.291 220.052,85.356 220.000 C 85.579 219.820,86.476 217.917,86.476 217.625 C 86.476 217.465,86.548 217.333,86.635 217.333 C 86.722 217.333,86.794 217.226,86.794 217.094 C 86.794 216.963,87.023 216.491,87.304 216.047 C 87.585 215.602,87.764 215.238,87.703 215.238 C 87.642 215.238,87.727 215.103,87.891 214.939 C 88.159 214.671,88.278 214.269,88.213 213.857 C 88.201 213.779,88.275 213.714,88.379 213.714 C 88.482 213.714,88.622 213.371,88.689 212.952 C 88.756 212.533,88.881 212.190,88.968 212.190 C 89.055 212.190,89.177 211.869,89.240 211.476 C 89.303 211.083,89.443 210.601,89.551 210.404 C 89.660 210.207,89.789 209.821,89.838 209.547 C 89.887 209.272,90.005 209.020,90.100 208.986 C 90.196 208.952,90.329 208.630,90.397 208.270 C 90.464 207.910,90.681 207.298,90.879 206.910 C 91.076 206.522,91.238 206.009,91.238 205.769 C 91.238 205.529,91.324 205.333,91.429 205.333 C 91.533 205.333,91.619 205.033,91.619 204.667 C 91.619 204.201,91.705 204.000,91.905 204.000 C 92.110 204.000,92.190 203.790,92.190 203.252 C 92.190 202.840,92.304 202.390,92.443 202.251 C 92.582 202.112,92.754 201.704,92.826 201.345 C 92.898 200.986,93.087 200.548,93.246 200.372 C 93.405 200.196,93.574 199.854,93.620 199.612 C 93.667 199.369,93.782 199.122,93.875 199.062 C 94.034 198.958,94.363 198.110,94.323 197.905 C 94.313 197.852,94.435 197.610,94.594 197.367 C 94.754 197.123,94.919 196.744,94.962 196.524 C 95.004 196.303,95.109 196.074,95.196 196.014 C 95.402 195.870,98.095 190.226,98.095 189.937 C 98.095 189.517,143.987 189.627,144.107 190.048 C 144.396 191.057,146.255 194.392,146.918 195.091 C 147.343 195.539,147.696 195.958,147.703 196.023 C 147.751 196.521,153.108 201.825,153.598 201.860 C 153.691 201.867,153.838 201.987,153.924 202.127 C 154.011 202.266,154.165 202.381,154.268 202.381 C 154.370 202.381,154.628 202.567,154.840 202.795 C 155.053 203.023,155.486 203.363,155.804 203.551 C 156.121 203.738,156.381 203.959,156.381 204.041 C 156.381 204.123,156.512 204.190,156.673 204.190 C 156.833 204.190,157.014 204.319,157.074 204.476 C 157.134 204.633,157.301 204.762,157.445 204.762 C 157.588 204.762,157.846 204.976,158.018 205.238 C 158.189 205.500,158.410 205.714,158.508 205.714 C 158.913 205.714,159.991 207.191,160.778 208.826 C 161.241 209.786,161.705 210.634,161.810 210.711 C 161.914 210.788,161.935 210.853,161.855 210.854 C 161.734 210.857,163.223 213.925,163.797 214.857 C 163.894 215.014,164.166 215.571,164.402 216.095 C 164.638 216.619,164.907 217.099,165.000 217.162 C 165.092 217.225,165.188 217.414,165.213 217.581 C 165.238 217.749,165.397 218.041,165.566 218.229 C 165.736 218.417,165.903 218.700,165.937 218.857 C 165.972 219.014,166.080 219.200,166.177 219.270 C 166.274 219.341,166.373 219.525,166.396 219.680 C 166.501 220.401,168.206 222.889,169.393 224.054 C 171.638 226.258,172.398 226.476,177.819 226.476 L 181.714 226.476 181.750 281.476 C 181.791 346.032,181.731 339.635,182.300 340.004 C 182.384 340.059,182.495 340.338,182.547 340.624 C 182.599 340.911,182.776 341.279,182.940 341.443 C 183.104 341.607,183.238 341.916,183.238 342.129 C 183.238 342.589,184.547 345.143,184.783 345.143 C 184.873 345.143,185.067 345.421,185.212 345.762 C 185.485 346.398,189.330 350.286,189.687 350.286 C 189.796 350.286,189.954 350.395,190.038 350.528 C 190.278 350.910,191.087 351.365,191.810 351.524 C 192.173 351.604,192.661 351.794,192.894 351.946 C 193.126 352.099,193.399 352.172,193.500 352.110 C 193.601 352.048,193.804 352.116,193.950 352.263 C 194.674 352.986,205.714 352.688,205.714 351.945 C 205.714 351.836,205.763 351.795,205.824 351.855 C 206.067 352.099,209.524 349.917,209.524 349.520 C 209.524 349.449,210.254 348.628,211.147 347.696 C 212.871 345.895,214.476 343.193,214.476 342.092 C 214.476 341.797,214.544 341.527,214.627 341.492 C 214.711 341.457,214.986 340.957,215.239 340.381 C 215.848 338.997,215.802 343.825,215.802 281.000 L 215.802 226.286 217.377 226.270 C 222.137 226.224,227.619 225.814,227.619 225.504 C 227.619 225.410,227.817 225.333,228.059 225.333 C 228.301 225.333,228.665 225.207,228.868 225.054 C 229.072 224.900,229.378 224.771,229.548 224.768 C 229.719 224.765,229.961 224.638,230.087 224.486 C 230.213 224.334,230.681 224.033,231.127 223.817 C 232.886 222.966,235.683 219.614,235.683 218.357 C 235.683 218.213,235.748 218.095,235.828 218.095 C 235.985 218.095,236.291 217.331,236.228 217.095 C 236.207 217.017,236.261 216.952,236.346 216.952 C 236.432 216.952,236.786 216.265,237.133 215.425 C 237.480 214.584,237.838 213.851,237.929 213.794 C 238.021 213.738,238.095 213.525,238.095 213.322 C 238.095 213.119,238.165 212.952,238.251 212.952 C 238.400 212.952,239.271 210.521,239.341 209.911 C 239.360 209.751,239.473 209.378,239.592 209.083 C 239.712 208.788,239.810 208.381,239.810 208.178 C 239.810 207.975,239.878 207.810,239.962 207.810 C 240.140 207.810,240.571 206.688,240.571 206.225 C 240.571 206.049,240.657 205.905,240.762 205.905 C 240.867 205.905,240.952 205.710,240.952 205.471 C 240.952 205.232,241.102 204.904,241.286 204.742 C 241.469 204.579,241.962 204.065,242.381 203.599 C 242.800 203.133,243.322 202.625,243.541 202.471 C 244.993 201.448,249.308 196.991,249.112 196.716 C 249.093 196.689,249.571 196.152,250.175 195.524 C 251.322 194.330,252.376 192.713,252.379 192.143 C 252.380 191.960,252.472 191.810,252.583 191.810 C 252.694 191.810,252.736 191.731,252.676 191.634 C 252.617 191.538,252.697 191.330,252.855 191.172 C 253.013 191.014,253.143 190.750,253.143 190.585 C 253.143 190.314,255.538 190.286,278.092 190.286 L 303.040 190.286 303.146 190.810 C 303.204 191.098,303.334 191.597,303.435 191.918 C 303.536 192.240,303.619 192.649,303.619 192.827 C 303.619 193.581,307.956 205.348,308.369 205.714 C 308.428 205.767,308.500 205.938,308.530 206.095 C 308.621 206.583,309.571 208.660,309.759 208.783 C 309.857 208.847,309.931 208.976,309.923 209.069 C 309.896 209.398,310.123 209.905,310.299 209.905 C 310.396 209.905,310.476 210.113,310.476 210.367 C 310.476 210.622,310.608 210.962,310.769 211.122 C 310.930 211.283,311.045 211.439,311.025 211.469 C 310.949 211.583,311.511 212.952,311.634 212.952 C 311.748 212.952,311.892 213.426,312.124 214.563 C 312.200 214.937,313.101 216.584,313.326 216.762 C 313.393 216.814,313.547 217.200,313.670 217.619 C 314.558 220.652,319.095 225.266,321.282 225.359 C 321.572 225.372,322.110 225.473,322.476 225.585 C 322.843 225.696,323.443 225.798,323.810 225.811 C 324.176 225.824,324.987 225.979,325.611 226.155 C 327.327 226.640,330.597 226.358,330.825 225.705 C 330.860 225.605,331.083 225.524,331.320 225.524 C 331.557 225.524,331.947 225.354,332.186 225.147 C 332.425 224.939,332.686 224.810,332.765 224.859 C 332.844 224.908,333.013 224.823,333.140 224.670 C 333.267 224.517,333.834 224.180,334.400 223.921 C 334.966 223.662,335.429 223.359,335.429 223.249 C 335.429 223.138,335.546 223.048,335.688 223.048 C 335.931 223.048,337.004 222.049,338.417 220.507 C 338.977 219.896,340.236 217.866,340.204 217.627 C 340.197 217.570,340.197 217.502,340.205 217.476 C 340.212 217.450,340.257 217.218,340.305 216.961 C 340.352 216.703,340.461 216.446,340.548 216.389 C 341.462 215.789,341.771 210.338,341.003 208.381 C 340.777 207.805,340.447 206.607,340.270 205.719 C 339.936 204.044,339.150 201.528,338.903 201.344 C 338.826 201.286,338.577 200.724,338.351 200.095 C 337.175 196.822,335.952 193.802,335.751 193.674 C 335.626 193.595,335.590 193.528,335.672 193.527 C 335.753 193.525,335.671 193.245,335.489 192.905 C 335.307 192.564,335.154 192.243,335.149 192.190 C 335.110 191.823,333.978 189.143,333.861 189.143 C 333.780 189.143,333.714 188.936,333.714 188.684 C 333.714 188.261,332.724 185.737,332.159 184.719 C 332.027 184.481,331.911 184.243,331.902 184.190 C 331.835 183.792,331.566 183.238,331.440 183.238 C 331.355 183.238,331.231 182.965,331.164 182.632 C 331.098 182.298,330.909 181.877,330.745 181.696 C 330.581 181.515,330.428 181.252,330.405 181.112 C 330.382 180.972,330.260 180.670,330.134 180.441 C 330.008 180.212,329.905 179.897,329.905 179.740 C 329.905 179.584,329.768 179.319,329.602 179.153 C 329.435 178.986,329.280 178.744,329.257 178.615 C 329.158 178.065,328.884 177.428,328.640 177.184 C 328.496 177.040,328.428 176.839,328.491 176.738 C 328.553 176.637,328.482 176.366,328.333 176.134 C 328.183 175.903,328.006 175.431,327.938 175.084 C 327.870 174.738,327.685 174.324,327.526 174.166 C 327.368 174.007,327.238 173.669,327.238 173.415 C 327.238 173.161,327.153 172.952,327.050 172.952 C 326.946 172.952,326.807 172.610,326.740 172.190 C 326.673 171.771,326.534 171.429,326.431 171.429 C 326.329 171.429,326.291 171.307,326.348 171.159 C 326.405 171.011,326.286 170.564,326.083 170.166 C 325.880 169.769,325.714 169.323,325.714 169.176 C 325.714 169.029,325.557 168.597,325.364 168.216 C 325.171 167.835,324.887 167.224,324.732 166.857 C 324.576 166.490,324.253 165.788,324.014 165.297 C 323.774 164.805,323.579 164.334,323.580 164.249 C 323.581 164.164,323.498 163.940,323.396 163.750 C 323.295 163.559,323.177 163.223,323.134 163.002 C 322.962 162.107,322.243 160.190,322.080 160.190 C 321.983 160.190,321.915 160.126,321.927 160.048 C 321.988 159.663,321.881 159.241,321.667 159.014 C 321.536 158.875,321.424 158.676,321.418 158.571 C 321.392 158.111,321.087 157.333,320.932 157.333 C 320.838 157.333,320.762 157.156,320.762 156.940 C 320.762 156.513,320.429 155.783,320.151 155.601 C 320.055 155.538,319.816 154.862,319.620 154.099 C 319.424 153.335,319.172 152.619,319.060 152.508 C 318.948 152.396,318.857 152.147,318.857 151.954 C 318.857 150.996,314.619 140.185,314.096 139.810 C 314.023 139.757,313.907 139.485,313.839 139.204 C 313.770 138.923,313.607 138.578,313.476 138.437 C 313.345 138.297,313.214 138.055,313.184 137.900 C 313.096 137.447,312.321 135.533,312.183 135.429 C 312.114 135.376,312.011 135.119,311.956 134.857 C 311.834 134.282,310.730 131.337,309.565 128.476 C 309.095 127.324,308.346 125.352,307.899 124.095 C 307.090 121.820,305.515 117.960,304.286 115.238 C 303.931 114.452,303.371 113.124,303.042 112.286 C 302.712 111.448,302.354 110.655,302.246 110.524 C 302.137 110.393,302.098 110.286,302.158 110.286 C 302.219 110.286,301.879 109.364,301.404 108.238 C 300.928 107.112,300.111 105.119,299.587 103.810 C 299.063 102.500,298.556 101.400,298.460 101.365 C 298.364 101.330,298.286 101.145,298.286 100.953 C 298.286 100.509,297.492 98.401,297.293 98.317 C 297.211 98.283,297.143 98.099,297.143 97.910 C 297.143 97.604,296.762 96.666,295.633 94.190 C 295.442 93.771,295.009 92.771,294.671 91.968 C 294.334 91.165,293.913 90.350,293.737 90.158 C 293.561 89.967,293.219 89.488,292.978 89.095 C 292.737 88.702,292.478 88.381,292.402 88.381 C 292.326 88.381,292.121 88.058,291.947 87.663 C 291.695 87.092,289.951 85.014,288.977 84.124 C 288.170 83.387,287.980 83.238,287.843 83.238 C 287.757 83.238,287.399 82.895,287.048 82.476 C 286.696 82.057,286.295 81.714,286.157 81.714 C 286.018 81.714,285.905 81.638,285.905 81.544 C 285.905 81.271,284.085 80.179,282.800 79.681 C 282.150 79.429,281.489 79.153,281.329 79.066 C 278.669 77.619,270.988 77.652,266.952 79.127 C 265.247 79.751,260.338 83.068,260.653 83.383 C 260.699 83.429,260.410 83.780,260.010 84.162 C 259.333 84.810,257.714 86.905,257.714 87.133 C 257.714 87.189,257.521 87.455,257.286 87.724 C 257.050 87.993,256.686 88.500,256.476 88.850 C 256.267 89.201,255.693 90.161,255.202 90.982 C 254.122 92.789,253.103 95.019,253.249 95.256 C 253.308 95.351,253.278 95.429,253.183 95.429 C 253.087 95.429,252.766 96.146,252.468 97.022 L 251.927 98.616 251.223 96.880 C 250.405 94.862,249.540 93.098,249.287 92.931 C 249.190 92.867,249.130 92.781,249.155 92.741 C 249.255 92.573,248.913 91.810,248.738 91.810 C 248.634 91.810,248.592 91.740,248.645 91.655 C 248.697 91.570,248.531 91.256,248.275 90.958 C 248.019 90.661,247.810 90.302,247.810 90.161 C 247.810 90.020,247.719 89.905,247.608 89.905 C 247.497 89.905,247.452 89.830,247.509 89.738 C 247.566 89.647,247.399 89.342,247.139 89.062 C 246.879 88.781,246.667 88.475,246.667 88.381 C 246.667 88.286,246.517 88.122,246.333 88.015 C 246.150 87.908,246.069 87.819,246.153 87.815 C 246.299 87.810,245.456 86.584,245.034 86.190 C 244.922 86.086,244.685 85.765,244.507 85.477 C 243.972 84.614,240.598 81.195,239.058 79.956 C 236.690 78.051,232.210 75.282,231.937 75.556 C 231.867 75.625,231.810 75.588,231.810 75.473 C 231.810 75.283,231.056 74.930,230.878 75.036 C 230.838 75.060,230.752 74.998,230.688 74.898 C 230.522 74.639,228.191 73.488,228.188 73.664 C 228.186 73.744,228.122 73.721,228.045 73.612 C 227.627 73.024,223.503 71.486,219.156 70.299 C 212.963 68.607,207.198 68.236,192.667 68.593 M199.528 90.945 C 210.079 92.903,215.284 95.526,219.176 100.844 C 219.718 101.584,220.595 102.761,221.125 103.459 C 221.654 104.157,222.189 104.950,222.313 105.221 C 222.436 105.492,222.600 105.714,222.677 105.714 C 222.753 105.714,222.870 105.929,222.935 106.190 C 223.001 106.452,223.139 106.667,223.242 106.667 C 223.344 106.667,223.429 106.770,223.429 106.896 C 223.429 107.159,225.468 110.633,225.845 111.014 C 225.983 111.152,226.095 111.336,226.095 111.423 C 226.095 111.607,228.034 114.759,228.523 115.369 C 228.946 115.897,231.026 117.080,232.333 117.536 C 234.401 118.257,241.525 117.716,243.944 116.654 L 244.936 116.219 244.538 117.205 C 243.719 119.235,241.670 124.875,241.587 125.329 C 241.539 125.589,241.432 125.846,241.347 125.901 C 241.223 125.981,240.993 126.513,240.851 127.048 C 240.837 127.100,240.735 127.357,240.626 127.619 C 240.516 127.881,240.286 128.430,240.115 128.839 C 239.945 129.247,239.760 129.837,239.705 130.150 C 239.650 130.463,239.479 130.897,239.326 131.116 C 239.173 131.334,239.048 131.709,239.048 131.947 C 239.048 132.186,238.983 132.381,238.904 132.381 C 238.752 132.381,237.947 134.334,237.814 135.024 C 237.606 136.104,237.315 136.212,236.177 135.629 C 235.139 135.098,229.568 132.776,229.101 132.680 C 228.967 132.652,228.616 132.531,228.321 132.410 C 228.026 132.289,227.672 132.190,227.533 132.190 C 227.395 132.190,227.036 132.061,226.736 131.903 C 226.436 131.745,225.867 131.562,225.472 131.497 C 225.077 131.432,224.707 131.304,224.651 131.213 C 224.595 131.122,224.361 131.047,224.132 131.046 C 223.902 131.046,223.469 130.917,223.169 130.761 C 222.869 130.604,222.440 130.476,222.216 130.475 C 221.993 130.474,221.566 130.347,221.268 130.192 C 220.594 129.840,218.399 129.155,217.626 129.055 C 217.308 129.014,216.790 128.846,216.476 128.682 C 216.162 128.518,215.760 128.383,215.582 128.382 C 215.405 128.381,214.500 128.126,213.572 127.815 C 212.643 127.504,211.588 127.232,211.227 127.210 C 210.867 127.188,210.486 127.112,210.381 127.040 C 210.138 126.872,207.098 125.987,204.811 125.416 C 203.842 125.175,201.828 124.794,200.335 124.569 C 198.841 124.344,197.052 123.990,196.359 123.781 C 195.665 123.573,194.980 123.379,194.835 123.349 C 194.690 123.320,194.319 123.193,194.010 123.067 C 193.135 122.710,188.530 121.525,188.014 121.524 C 187.473 121.524,186.418 121.217,185.651 120.838 C 185.355 120.691,185.027 120.571,184.922 120.571 C 184.818 120.571,184.108 120.271,183.346 119.905 C 182.584 119.538,181.832 119.238,181.676 119.238 C 181.520 119.238,181.196 119.068,180.957 118.861 C 180.718 118.654,180.459 118.523,180.382 118.571 C 180.305 118.619,180.088 118.488,179.901 118.281 C 179.713 118.074,179.452 117.905,179.320 117.905 C 179.188 117.905,179.051 117.832,179.016 117.744 C 178.981 117.656,178.395 117.164,177.714 116.652 C 175.409 114.916,173.485 112.821,172.657 111.143 C 172.243 110.305,171.798 109.506,171.667 109.367 C 171.458 109.147,171.350 108.739,171.399 108.355 C 171.407 108.288,171.337 107.964,171.243 107.635 C 170.970 106.684,171.386 103.515,171.944 102.286 C 172.206 101.710,172.452 101.075,172.490 100.876 C 172.529 100.677,172.713 100.363,172.899 100.178 C 173.086 99.993,174.160 98.900,175.286 97.750 C 176.412 96.600,177.333 95.701,177.333 95.751 C 177.333 95.832,177.939 95.379,178.846 94.622 C 178.997 94.496,179.246 94.374,179.399 94.352 C 179.551 94.329,179.728 94.229,179.790 94.129 C 179.853 94.029,180.462 93.714,181.143 93.429 C 181.824 93.143,182.436 92.822,182.503 92.716 C 182.569 92.610,182.698 92.569,182.789 92.625 C 182.880 92.681,183.291 92.563,183.702 92.363 C 184.113 92.164,184.627 91.999,184.844 91.999 C 185.061 91.998,185.458 91.883,185.726 91.743 C 185.994 91.603,186.489 91.481,186.825 91.471 C 187.628 91.448,189.567 91.048,189.810 90.855 C 190.337 90.435,197.119 90.498,199.528 90.945 M128.304 120.762 C 128.787 122.490,129.309 124.205,129.466 124.571 C 129.623 124.938,130.120 126.267,130.571 127.524 C 131.022 128.781,131.749 130.752,132.188 131.905 C 132.626 133.057,134.126 137.214,135.520 141.143 C 136.915 145.071,138.439 149.314,138.907 150.571 C 139.374 151.829,139.952 153.457,140.190 154.190 C 141.160 157.173,143.553 162.857,143.839 162.857 C 143.938 162.857,143.606 163.269,143.102 163.773 C 142.598 164.277,142.018 165.070,141.812 165.535 C 141.607 166.000,141.384 166.424,141.317 166.476 C 141.249 166.529,141.134 166.764,141.060 167.000 L 140.927 167.429 123.634 167.429 L 106.342 167.429 107.136 164.810 C 107.979 162.031,109.667 157.111,110.322 155.524 C 111.536 152.583,115.034 141.827,115.136 140.718 C 115.153 140.537,115.226 140.330,115.298 140.258 C 115.370 140.186,115.431 139.863,115.435 139.540 C 115.439 139.217,115.607 138.610,115.810 138.190 C 116.012 137.771,116.180 137.236,116.184 137.000 C 116.188 136.764,116.272 136.571,116.372 136.571 C 116.472 136.571,116.612 136.250,116.683 135.857 C 116.754 135.464,116.889 135.045,116.984 134.925 C 117.078 134.805,117.190 134.462,117.231 134.163 C 117.272 133.864,117.475 133.276,117.682 132.857 C 117.888 132.438,118.207 131.624,118.391 131.048 C 118.575 130.471,118.799 129.903,118.891 129.785 C 119.024 129.611,119.979 126.960,120.185 126.190 C 120.213 126.086,120.312 125.802,120.404 125.559 C 120.496 125.316,120.571 125.000,120.571 124.856 C 120.571 124.712,120.651 124.545,120.747 124.485 C 120.844 124.425,120.979 124.124,121.046 123.816 C 121.114 123.507,121.345 122.891,121.559 122.447 C 121.774 122.004,121.965 121.550,121.984 121.439 C 122.003 121.329,122.128 121.038,122.263 120.793 C 122.397 120.549,122.457 120.298,122.396 120.237 C 122.334 120.176,122.394 119.947,122.528 119.729 C 122.663 119.512,123.370 117.832,124.100 115.997 L 125.429 112.660 126.428 115.139 C 126.978 116.503,127.822 119.033,128.304 120.762 M275.180 114.273 C 275.310 114.722,275.508 115.199,275.620 115.334 C 275.731 115.469,275.803 115.652,275.778 115.742 C 275.716 115.970,276.020 116.837,276.205 116.956 C 276.289 117.011,276.404 117.310,276.460 117.622 C 276.517 117.933,276.651 118.217,276.758 118.253 C 276.865 118.288,276.952 118.484,276.952 118.689 C 276.952 118.893,277.088 119.379,277.254 119.768 C 277.419 120.158,277.587 120.633,277.626 120.825 C 277.773 121.534,277.962 121.989,278.217 122.245 C 278.362 122.389,278.438 122.575,278.386 122.658 C 278.260 122.863,279.538 126.773,279.901 127.290 C 280.060 127.518,280.190 127.848,280.190 128.025 C 280.190 128.201,280.463 128.932,280.795 129.649 C 281.128 130.366,281.428 131.201,281.462 131.504 C 281.496 131.808,281.605 132.154,281.705 132.274 C 281.804 132.394,281.937 132.788,282.000 133.151 C 282.064 133.513,282.197 133.838,282.296 133.873 C 282.395 133.908,282.476 134.126,282.476 134.357 C 282.476 134.588,282.648 135.113,282.857 135.524 C 283.067 135.935,283.238 136.390,283.238 136.535 C 283.238 136.681,283.355 137.070,283.497 137.400 C 283.640 137.730,283.907 138.514,284.092 139.143 C 284.277 139.771,284.517 140.500,284.626 140.762 C 284.735 141.024,284.811 141.297,284.797 141.369 C 284.752 141.587,286.480 146.347,286.700 146.611 C 286.812 146.746,286.854 146.857,286.793 146.857 C 286.655 146.857,288.305 150.822,288.581 151.154 C 288.691 151.287,288.825 151.639,288.878 151.936 C 288.932 152.233,289.056 152.558,289.154 152.657 C 289.253 152.757,289.336 152.971,289.339 153.133 C 289.343 153.296,289.556 153.857,289.814 154.381 C 290.071 154.905,290.283 155.468,290.284 155.633 C 290.286 156.048,290.885 157.788,291.068 157.910 C 291.150 157.965,291.268 158.295,291.329 158.644 C 291.391 158.992,291.567 159.403,291.720 159.557 C 291.874 159.711,292.011 159.959,292.024 160.109 C 292.070 160.634,292.727 162.646,292.953 162.952 C 293.030 163.057,293.151 163.464,293.222 163.857 C 293.293 164.250,293.429 164.571,293.524 164.571 C 293.619 164.571,293.751 164.893,293.817 165.286 C 293.883 165.679,294.045 166.450,294.177 167.000 L 294.417 168.000 276.494 168.000 L 258.571 168.000 258.483 164.810 C 258.307 158.488,258.313 158.412,259.090 156.095 C 259.899 153.681,261.298 148.933,261.444 148.100 C 261.499 147.789,261.613 147.489,261.697 147.433 C 261.838 147.341,262.273 146.176,262.361 145.655 C 262.382 145.531,262.502 145.241,262.628 145.013 C 262.754 144.784,262.857 144.427,262.857 144.219 C 262.857 144.011,262.924 143.813,263.006 143.778 C 263.145 143.719,264.765 139.952,264.836 139.524 C 264.854 139.419,264.922 139.246,264.989 139.140 C 265.131 138.913,266.691 134.852,266.744 134.571 C 266.764 134.467,266.870 134.210,266.979 134.000 C 267.320 133.347,268.310 130.729,269.790 126.571 C 270.573 124.371,271.633 121.414,272.145 120.000 C 272.657 118.586,273.402 116.504,273.800 115.373 C 274.577 113.164,274.806 112.982,275.180 114.273 M170.914 146.026 C 172.211 146.473,174.985 147.302,181.691 149.247 C 183.303 149.714,186.756 150.528,189.366 151.054 C 191.976 151.581,195.012 152.225,196.113 152.485 C 197.214 152.745,198.346 152.988,198.629 153.025 C 198.912 153.062,199.271 153.140,199.429 153.199 C 199.791 153.333,203.619 154.116,204.000 154.134 C 204.157 154.141,204.371 154.211,204.476 154.288 C 204.696 154.451,209.792 156.037,210.260 156.088 C 210.431 156.107,210.700 156.176,210.857 156.242 C 211.014 156.308,211.822 156.585,212.651 156.857 C 213.981 157.294,218.986 159.678,219.238 159.996 C 219.454 160.268,220.712 160.939,220.814 160.837 C 220.875 160.776,221.054 160.978,221.213 161.284 C 221.372 161.591,221.828 162.089,222.227 162.390 C 223.698 163.502,224.207 164.356,224.324 165.905 C 224.367 166.481,224.435 167.053,224.476 167.177 C 224.632 167.656,224.132 170.043,223.700 170.877 C 223.450 171.359,223.301 171.809,223.369 171.877 C 223.436 171.944,223.400 172.000,223.287 172.000 C 223.066 172.000,222.279 173.954,221.445 176.571 C 221.162 177.462,220.807 178.416,220.657 178.692 C 220.508 178.969,220.355 179.354,220.317 179.550 C 220.134 180.512,219.949 181.114,219.623 181.810 C 219.427 182.229,219.116 182.914,218.932 183.333 C 218.389 184.570,216.479 188.629,216.215 189.110 C 215.984 189.529,214.712 190.197,212.476 191.072 C 211.482 191.461,206.731 192.744,205.905 192.847 C 205.643 192.879,204.400 193.086,203.143 193.305 C 199.714 193.904,195.286 194.120,192.476 193.825 C 189.562 193.519,188.546 193.349,187.989 193.071 C 187.649 192.901,187.276 192.756,187.161 192.748 C 186.367 192.696,181.707 184.330,180.431 180.667 C 179.430 177.792,178.442 174.444,177.791 171.714 C 176.966 168.257,176.232 165.923,175.094 163.143 C 174.622 161.990,173.730 159.590,173.112 157.810 C 171.795 154.017,170.974 152.062,168.953 147.905 C 167.005 143.896,167.040 144.086,168.401 144.884 C 169.028 145.252,170.159 145.765,170.914 146.026 M197.143 155.628 C 195.777 155.756,192.116 156.478,191.780 156.685 C 191.692 156.739,191.470 156.813,191.286 156.850 C 190.522 157.002,190.374 157.057,190.245 157.238 C 190.170 157.343,190.024 157.429,189.920 157.429 C 189.817 157.429,189.332 157.763,188.843 158.171 C 187.251 159.502,186.322 160.164,186.208 160.049 C 186.146 159.987,186.095 160.058,186.095 160.206 C 186.095 160.355,185.721 160.862,185.264 161.333 C 184.398 162.227,183.302 163.843,182.842 164.905 C 182.694 165.245,182.527 165.524,182.471 165.524 C 182.414 165.524,182.359 165.674,182.349 165.857 C 182.338 166.040,182.142 166.662,181.912 167.238 C 180.341 171.173,180.393 175.807,182.052 179.619 C 182.377 180.367,182.353 180.295,182.740 181.687 C 183.641 184.926,189.033 189.405,193.867 190.930 C 196.039 191.615,201.525 191.555,203.524 190.825 C 205.584 190.072,208.845 188.265,209.200 187.680 C 209.284 187.542,209.440 187.429,209.547 187.429 C 209.654 187.429,209.857 187.321,209.997 187.190 C 210.138 187.060,210.539 186.743,210.888 186.487 C 217.339 181.759,218.673 168.310,213.264 162.528 C 212.058 161.238,208.303 158.202,207.562 157.918 C 207.331 157.829,206.586 157.503,205.905 157.193 C 202.846 155.800,200.254 155.337,197.143 155.628 M231.767 254.083 C 231.944 254.390,232.114 254.616,232.146 254.584 C 232.250 254.481,231.754 253.524,231.597 253.524 C 231.514 253.524,231.591 253.775,231.767 254.083 M233.798 256.275 C 234.002 256.438,234.302 256.565,234.465 256.556 C 234.721 256.543,234.723 256.527,234.476 256.435 C 234.319 256.377,234.019 256.251,233.810 256.154 C 233.435 255.982,233.434 255.984,233.798 256.275 " stroke="none" fill="#648cdc" fill-rule="evenodd"></path><path id="path1" d="M120.429 78.607 C 120.612 78.655,120.912 78.655,121.095 78.607 C 121.279 78.560,121.129 78.520,120.762 78.520 C 120.395 78.520,120.245 78.560,120.429 78.607 M130.571 78.667 C 131.092 78.890,131.238 78.890,131.238 78.667 C 131.238 78.562,131.002 78.482,130.714 78.490 C 130.250 78.501,130.234 78.522,130.571 78.667 M157.333 78.762 C 157.333 78.919,157.205 79.048,157.048 79.048 C 156.890 79.048,156.762 79.133,156.762 79.238 C 156.762 79.535,156.999 79.455,157.619 78.946 C 158.160 78.503,158.168 78.478,157.762 78.477 C 157.508 78.477,157.333 78.592,157.333 78.762 M154.286 81.261 C 154.286 81.515,154.337 81.528,154.571 81.333 C 154.729 81.203,154.857 81.064,154.857 81.024 C 154.857 80.985,154.729 80.952,154.571 80.952 C 154.414 80.952,154.286 81.091,154.286 81.261 M190.857 90.667 L 190.190 90.807 190.905 90.832 C 191.298 90.846,191.619 90.771,191.619 90.667 C 191.619 90.562,191.598 90.487,191.571 90.501 C 191.545 90.515,191.224 90.589,190.857 90.667 M172.704 100.456 C 172.626 100.654,172.607 100.861,172.662 100.916 C 172.836 101.090,172.989 100.805,172.916 100.443 C 172.849 100.112,172.839 100.113,172.704 100.456 M171.560 103.308 C 171.477 103.609,171.457 103.902,171.515 103.959 C 171.713 104.158,171.838 103.842,171.774 103.303 L 171.710 102.762 171.560 103.308 M171.431 108.619 C 171.438 109.163,171.804 109.441,171.807 108.905 C 171.808 108.617,171.724 108.381,171.619 108.381 C 171.514 108.381,171.430 108.488,171.431 108.619 M241.238 117.524 C 240.901 117.669,240.917 117.689,241.381 117.701 C 241.669 117.708,241.905 117.629,241.905 117.524 C 241.905 117.300,241.758 117.300,241.238 117.524 M196.762 123.883 C 196.762 123.924,197.019 123.995,197.333 124.041 C 197.648 124.087,197.905 124.054,197.905 123.967 C 197.905 123.880,197.648 123.810,197.333 123.810 C 197.019 123.810,196.762 123.843,196.762 123.883 M117.466 133.408 C 117.388 133.607,117.369 133.814,117.424 133.869 C 117.598 134.042,117.751 133.758,117.678 133.396 C 117.611 133.064,117.601 133.065,117.466 133.408 M115.561 138.932 C 115.483 139.130,115.464 139.337,115.519 139.392 C 115.693 139.566,115.846 139.281,115.773 138.920 C 115.706 138.588,115.696 138.589,115.561 138.932 M261.625 147.675 C 261.543 147.863,261.530 148.070,261.596 148.135 C 261.789 148.329,261.945 148.057,261.856 147.682 C 261.777 147.349,261.767 147.349,261.625 147.675 M81.527 152.810 C 81.529 153.156,81.565 153.183,81.714 152.952 C 81.953 152.583,81.953 152.381,81.714 152.381 C 81.610 152.381,81.525 152.574,81.527 152.810 M289.714 155.048 C 289.714 155.419,289.811 155.619,289.990 155.619 C 290.214 155.619,290.228 155.511,290.067 155.048 C 289.957 154.733,289.833 154.476,289.791 154.476 C 289.749 154.476,289.714 154.733,289.714 155.048 M291.622 160.048 C 291.620 160.336,291.705 160.571,291.810 160.571 C 292.050 160.571,292.050 160.182,291.810 159.810 C 291.666 159.587,291.624 159.639,291.622 160.048 M323.622 164.333 C 323.630 164.751,323.994 165.028,323.997 164.619 C 323.999 164.383,323.914 164.190,323.810 164.190 C 323.705 164.190,323.620 164.255,323.622 164.333 M140.571 167.048 C 140.571 167.257,140.611 167.429,140.660 167.429 C 140.709 167.429,140.840 167.257,140.952 167.048 C 141.115 166.744,141.097 166.667,140.864 166.667 C 140.698 166.667,140.571 166.832,140.571 167.048 M326.670 171.952 C 326.678 172.370,327.042 172.647,327.045 172.238 C 327.046 172.002,326.962 171.810,326.857 171.810 C 326.752 171.810,326.668 171.874,326.670 171.952 M327.429 173.905 C 327.541 174.114,327.672 174.286,327.721 174.286 C 327.770 174.286,327.810 174.114,327.810 173.905 C 327.810 173.689,327.683 173.524,327.517 173.524 C 327.284 173.524,327.266 173.601,327.429 173.905 M330.479 181.095 C 330.488 181.513,330.851 181.790,330.854 181.381 C 330.856 181.145,330.771 180.952,330.667 180.952 C 330.562 180.952,330.478 181.017,330.479 181.095 M92.987 201.048 C 92.809 201.439,92.820 201.524,93.052 201.524 C 93.225 201.524,93.333 201.341,93.333 201.048 C 93.333 200.786,93.304 200.571,93.269 200.571 C 93.233 200.571,93.106 200.786,92.987 201.048 M92.381 202.476 C 92.218 202.780,92.236 202.857,92.469 202.857 C 92.635 202.857,92.762 202.692,92.762 202.476 C 92.762 202.267,92.722 202.095,92.673 202.095 C 92.625 202.095,92.493 202.267,92.381 202.476 M91.741 204.286 C 91.674 204.460,91.740 204.571,91.911 204.571 C 92.065 204.571,92.190 204.443,92.190 204.286 C 92.190 204.129,92.114 204.000,92.020 204.000 C 91.927 204.000,91.801 204.129,91.741 204.286 M157.333 205.048 C 157.333 205.205,157.472 205.333,157.642 205.333 C 157.895 205.333,157.908 205.282,157.714 205.048 C 157.584 204.890,157.445 204.762,157.405 204.762 C 157.366 204.762,157.333 204.890,157.333 205.048 M59.867 209.905 C 59.867 210.481,59.902 210.717,59.946 210.429 C 59.990 210.140,59.990 209.669,59.946 209.381 C 59.902 209.093,59.867 209.329,59.867 209.905 M90.006 209.199 C 89.924 209.387,89.911 209.594,89.976 209.659 C 90.170 209.852,90.326 209.581,90.237 209.205 C 90.158 208.873,90.148 208.872,90.006 209.199 M59.810 213.397 C 59.810 214.156,59.890 214.667,60.009 214.667 C 60.142 214.667,60.165 214.263,60.079 213.476 C 59.906 211.883,59.810 211.855,59.810 213.397 M86.990 216.646 C 86.912 216.845,86.893 217.052,86.948 217.107 C 87.122 217.280,87.274 216.996,87.202 216.634 C 87.135 216.302,87.125 216.303,86.990 216.646 M340.381 216.762 C 340.381 216.971,340.467 217.143,340.571 217.143 C 340.676 217.143,340.762 216.971,340.762 216.762 C 340.762 216.552,340.676 216.381,340.571 216.381 C 340.467 216.381,340.381 216.552,340.381 216.762 M165.527 218.619 C 165.525 218.855,165.610 219.048,165.714 219.048 C 165.953 219.048,165.953 218.845,165.714 218.476 C 165.565 218.245,165.529 218.272,165.527 218.619 M230.476 224.286 C 230.282 224.520,230.295 224.571,230.548 224.571 C 230.718 224.571,230.857 224.443,230.857 224.286 C 230.857 224.129,230.825 224.000,230.785 224.000 C 230.746 224.000,230.607 224.129,230.476 224.286 M79.381 224.703 C 78.925 224.822,78.959 225.143,79.429 225.143 C 79.640 225.143,79.810 225.016,79.810 224.857 C 79.810 224.700,79.788 224.581,79.762 224.594 C 79.736 224.606,79.564 224.655,79.381 224.703 M69.714 224.952 C 69.714 225.057,69.891 225.143,70.106 225.143 C 70.322 225.143,70.446 225.057,70.381 224.952 C 70.316 224.848,70.140 224.762,69.989 224.762 C 69.838 224.762,69.714 224.848,69.714 224.952 M321.762 225.655 C 321.945 225.703,322.245 225.703,322.429 225.655 C 322.612 225.607,322.462 225.568,322.095 225.568 C 321.729 225.568,321.579 225.607,321.762 225.655 M186.095 347.333 C 186.095 347.490,186.224 347.619,186.381 347.619 C 186.538 347.619,186.667 347.748,186.667 347.905 C 186.667 348.062,186.795 348.190,186.952 348.190 C 187.110 348.190,187.238 348.319,187.238 348.476 C 187.238 348.633,187.367 348.762,187.524 348.762 C 187.683 348.762,187.810 348.931,187.810 349.143 C 187.810 349.409,187.937 349.524,188.233 349.524 C 188.587 349.524,188.457 349.324,187.429 348.286 C 186.069 346.914,186.095 346.933,186.095 347.333 M193.524 352.381 C 193.524 352.486,193.652 352.571,193.810 352.571 C 193.967 352.571,194.095 352.486,194.095 352.381 C 194.095 352.276,193.967 352.190,193.810 352.190 C 193.652 352.190,193.524 352.276,193.524 352.381 " stroke="none" fill="#b6e1cb" fill-rule="evenodd"></path><path id="path2" d="" stroke="none" fill="#8ab0c6" fill-rule="evenodd"></path><path id="path3" d="M189.286 68.709 C 189.626 68.751,190.183 68.751,190.524 68.709 C 190.864 68.667,190.586 68.632,189.905 68.632 C 189.224 68.632,188.945 68.667,189.286 68.709 " stroke="none" fill="#7ca4c8" fill-rule="evenodd"></path><path id="path4" d="M59.858 211.524 C 59.860 211.943,59.899 212.092,59.944 211.855 C 59.990 211.618,59.988 211.275,59.940 211.093 C 59.893 210.911,59.855 211.105,59.858 211.524 " stroke="none" fill="#94c4c4" fill-rule="evenodd"></path></g></svg>