<?xml version="1.0" encoding="utf-8"?>
<!-- Generator: Adobe Illustrator 26.4.1, SVG Export Plug-In . SVG Version: 6.00 Build 0)  -->
<svg version="1.1" id="Layer_2_00000110463051375487004640000003808997721362843798_"
	 xmlns="http://www.w3.org/2000/svg" xmlns:xlink="http://www.w3.org/1999/xlink" x="0px" y="0px" viewBox="0 0 256 256"
	 style="enable-background:new 0 0 256 256;" xml:space="preserve">
<style type="text/css">
	.st0{fill:#FFFFFF;}
	.st1{fill:none;}
	.st2{fill:#FFED00;}
	.st3{fill:#616160;}
</style>
<circle class="st0" cx="128" cy="128" r="118.7"/>
<g id="Layer_1-2">
	<rect x="5.5" y="5.5" class="st1" width="245" height="245"/>
	<g>
		<circle class="st2" cx="128" cy="128" r="110.9"/>
		<g>
			<g id="lINT7W">
				<polygon class="st3" points="91.3,122.8 98.5,149.7 91.1,149.7 86.2,131.7 83.6,121.8 81,112.1 59.3,149.7 50.9,149.7 78.4,102 
					85.7,102 88.9,113.9 				"/>
			</g>
			<g id="lINT7W-2">
				<polygon class="st3" points="197.9,122.8 205.1,149.7 197.6,149.7 192.8,131.7 190.1,121.8 187.5,112.1 165.8,149.7 
					157.5,149.7 185,102 192.3,102 195.5,113.9 				"/>
			</g>
			<path class="st3" d="M153.1,128.5c2-15.9-11.4-29.4-27.4-27.4c-10.9,1.4-19.6,10.1-21,21c-2,15.9,11.4,29.4,27.4,27.4
				c1.3-0.2,2.6-0.5,3.9-0.8l3,6.5h7.7l-4.4-9.4C148,141.9,152.2,135.6,153.1,128.5L153.1,128.5z M139.3,139.6l-7.2-15.3h0
				c-0.4-1.4-1.7-2.4-3.2-2.4c-1.8,0-3.4,1.5-3.4,3.4c0,0.3,0.1,0.7,0.2,1h0l0,0.1c0.1,0.2,0.2,0.4,0.3,0.6l7.1,15.5
				c-2.3,0.6-4.7,0.7-7.3,0.3c-7.4-1.2-13.3-7.1-14.5-14.5c-2-12.1,8.4-22.5,20.5-20.5c7.3,1.2,13.3,7.1,14.5,14.5
				C147.6,129.4,144.5,135.9,139.3,139.6L139.3,139.6z"/>
		</g>
		<path class="st2" d="M128,9.8c16,0,31.4,3.1,46,9.3c14.1,6,26.7,14.5,37.6,25.3C222.4,55.3,231,67.9,236.9,82
			c6.2,14.6,9.3,30.1,9.3,46s-3.1,31.4-9.3,46c-6,14.1-14.5,26.7-25.3,37.6c-10.9,10.9-23.5,19.4-37.6,25.3
			c-14.6,6.2-30.1,9.3-46,9.3s-31.4-3.1-46-9.3c-14.1-6-26.7-14.5-37.6-25.3C33.6,200.7,25,188.1,19.1,174
			c-6.2-14.6-9.3-30.1-9.3-46s3.1-31.4,9.3-46c6-14.1,14.5-26.7,25.3-37.6S67.9,25,82,19.1C96.6,12.9,112,9.8,128,9.8 M128,6.7
			C61,6.7,6.7,61,6.7,128S61,249.3,128,249.3S249.3,195,249.3,128S195,6.7,128,6.7L128,6.7L128,6.7z"/>
	</g>
</g>
</svg>
