<?xml version="1.0" encoding="UTF-8"?>
<svg xmlns="http://www.w3.org/2000/svg" xmlns:xlink="http://www.w3.org/1999/xlink" width="256px" height="256px" viewBox="0 0 256 256" version="1.1">
<g id="surface1">
<path style=" stroke:none;fill-rule:nonzero;fill:rgb(0%,0%,0%);fill-opacity:1;" d="M 114 5 C 66.800781 11 27.601562 42.398438 11.601562 86.800781 C 0.601562 117.398438 2.800781 154.5 17.199219 183.5 C 25.398438 200 39.800781 217.199219 54.398438 228.101562 C 64.800781 235.898438 83.800781 245.199219 96 248.398438 C 131.199219 257.800781 166.5 251.898438 197 231.5 C 225.601562 212.5 245.300781 181.199219 250.398438 146.800781 C 252.398438 133.5 252.398438 123.5 250.398438 110.199219 C 246.5 83.699219 234.398438 59.601562 215.601562 40.800781 C 197.898438 23.101562 175.5 11 151.800781 6.5 C 141.800781 4.601562 122.898438 3.800781 114 5 Z M 160.800781 67.699219 L 160.5 72.5 L 155.300781 72.800781 C 150.800781 73.101562 150 73.398438 150 75.101562 C 150 76.699219 150.699219 77 155.5 77 L 161 77 L 161 86.898438 L 155.800781 87.199219 C 151.800781 87.398438 150.398438 87.898438 150.199219 89.199219 C 149.898438 90.601562 150.800781 90.898438 155.199219 91.199219 L 160.5 91.5 L 160.5 101.5 L 155.300781 101.800781 C 150.898438 102.101562 150 102.398438 150 104 C 150 105.601562 150.898438 105.898438 155.300781 106.199219 L 160.5 106.5 L 160.5 116.5 L 155.199219 116.800781 L 150 117.101562 L 150.5 120.800781 C 150.699219 122.800781 151.199219 127.699219 151.398438 131.601562 C 151.699219 135.5 154 149.898438 156.5 163.601562 C 159 177.300781 161 189.300781 161 190.199219 C 161 191.898438 158.800781 192 128.5 192 C 110.601562 192 96 191.601562 96 191.199219 C 96 190.800781 97.800781 180.601562 100 168.5 C 104.398438 144.800781 107 126.898438 107 120.898438 L 107 117.101562 L 102.300781 116.800781 L 97.5 116.5 L 97.199219 111.199219 L 96.898438 106 L 101.898438 106 C 106.300781 106 107 105.699219 107 104 C 107 102.300781 106.300781 102 101.898438 102 L 96.898438 102 L 97.199219 96.699219 L 97.5 91.5 L 102.300781 91.199219 C 106.199219 90.898438 107.101562 90.601562 106.800781 89.199219 C 106.601562 87.898438 105.199219 87.398438 101.699219 87.199219 L 97 86.898438 L 97 77 L 102 77 C 106.300781 77 107 76.699219 107 75 C 107 73.300781 106.300781 73 102 73 L 97 73 L 97 63 L 161.101562 63 Z M 160.800781 67.699219 "/>
<path style=" stroke:none;fill-rule:nonzero;fill:rgb(0%,0%,0%);fill-opacity:1;" d="M 117.398438 74.101562 C 116 76.398438 119 77.101562 129.101562 76.800781 C 138.101562 76.5 139.5 76.300781 139.800781 74.699219 C 140.101562 73.199219 139.101562 73 129.101562 73 C 122.300781 73 117.898438 73.398438 117.398438 74.101562 Z M 117.398438 74.101562 "/>
<path style=" stroke:none;fill-rule:nonzero;fill:rgb(0%,0%,0%);fill-opacity:1;" d="M 117.699219 87.601562 C 117.300781 88 117 88.898438 117 89.699219 C 117 90.699219 119.601562 91 128.601562 91 C 139.101562 91 140.101562 90.800781 139.800781 89.199219 C 139.5 87.699219 138 87.5 128.898438 87.199219 C 123.101562 87.101562 118.101562 87.300781 117.699219 87.601562 Z M 117.699219 87.601562 "/>
<path style=" stroke:none;fill-rule:nonzero;fill:rgb(0%,0%,0%);fill-opacity:1;" d="M 117.199219 103.699219 C 117.5 105.300781 119 105.5 128.800781 105.800781 C 139.5 106.101562 140 106 140 104 C 140 102.101562 139.398438 102 128.398438 102 C 117.898438 102 116.898438 102.199219 117.199219 103.699219 Z M 117.199219 103.699219 "/>
<path style=" stroke:none;fill-rule:nonzero;fill:rgb(0%,0%,0%);fill-opacity:1;" d="M 116.699219 127.199219 C 116.199219 135.5 111.5 165.101562 108.398438 179.199219 L 107.800781 182 L 128.398438 182 C 139.800781 182 149 181.601562 149 181.101562 C 149 180.601562 148.300781 176.699219 147.5 172.398438 C 143.898438 153.199219 142 140.699219 140.898438 129.300781 L 139.699219 117 L 117.300781 117 Z M 116.699219 127.199219 "/>
</g>
</svg>
