<?xml version="1.0" encoding="utf-8"?>
<!-- Generator: Adobe Illustrator 25.1.0, SVG Export Plug-In . SVG Version: 6.00 Build 0)  -->
<svg version="1.1" id="Layer_1" xmlns="http://www.w3.org/2000/svg" xmlns:xlink="http://www.w3.org/1999/xlink" x="0px" y="0px"
	 viewBox="0 0 256 256" style="enable-background:new 0 0 256 256;" xml:space="preserve">
<style type="text/css">
	.st0{opacity:0.38;}
	.st1{fill:url(#SVGID_1_);}
	.st2{fill:url(#SVGID_2_);}
	.st3{fill:url(#SVGID_3_);}
	.st4{fill:#030304;}
	.st5{fill:url(#SVGID_4_);}
	.st6{display:none;opacity:0.62;fill:none;stroke:url(#SVGID_5_);stroke-width:44.6935;stroke-miterlimit:10;}
</style>
<image style="overflow:visible;opacity:0.52;" width="2234" height="919" xlink:href="33124D06.png"  transform="matrix(5.620911e-02 0 0 5.620911e-02 81.9946 50.1315)">
</image>
<image style="overflow:visible;opacity:0.52;" width="2222" height="2050" xlink:href="33124D0A.png"  transform="matrix(5.620911e-02 0 0 5.620911e-02 53.0469 95.2112)">
</image>
<g class="st0">
	
		<image style="overflow:visible;opacity:0.91;" width="3994" height="3945" xlink:href="33124D0D.png"  transform="matrix(5.620689e-02 4.993642e-04 -4.993642e-04 5.620689e-02 19.1869 18.7857)">
	</image>
	
		<image style="overflow:visible;opacity:0.91;" width="4570" height="4514" xlink:href="33124D0E.png"  transform="matrix(5.620689e-02 4.993642e-04 -4.993642e-04 5.620689e-02 3.1411 2.6791)">
	</image>
	
		<image style="overflow:visible;opacity:0.91;" width="2259" height="944" xlink:href="33124D0C.png"  transform="matrix(5.620689e-02 4.993642e-04 -4.993642e-04 5.620689e-02 81.9879 48.967)">
	</image>
	
		<image style="overflow:visible;opacity:0.91;" width="2246" height="2074" xlink:href="33124D0B.png"  transform="matrix(5.620689e-02 4.993642e-04 -4.993642e-04 5.620689e-02 52.6965 93.8445)">
	</image>
</g>
<g>
	<radialGradient id="SVGID_1_" cx="130.4438" cy="130.6667" r="102.3967" gradientUnits="userSpaceOnUse">
		<stop  offset="0" style="stop-color:#FCCA64"/>
		<stop  offset="0.5419" style="stop-color:#DBA859"/>
		<stop  offset="1" style="stop-color:#FECD67"/>
	</radialGradient>
	<path class="st1" d="M130.5,232.4c-0.1,0-0.2,0-0.3,0c-13.9,0-27.4-2.8-40.1-8.1c-12.3-5.2-23.3-12.5-32.7-21.9
		c-9.4-9.4-16.8-20.3-22-32.4c-5.3-12.6-8-25.9-8-39.6c0-13.7,2.8-27,8.2-39.6c5.2-12.1,12.7-23,22.2-32.3
		c9.5-9.3,20.5-16.6,32.8-21.7c12.6-5.2,26-7.9,39.8-7.9c0.1,0,0.2,0,0.3,0c13.9,0,27.4,2.8,40.1,8.1c12.3,5.2,23.3,12.5,32.7,21.9
		c9.4,9.4,16.8,20.3,22,32.4c5.3,12.6,8,25.9,8,39.6c0,13.7-2.8,27-8.2,39.6c-5.2,12.1-12.7,23-22.2,32.3
		c-9.5,9.3-20.5,16.6-32.8,21.7C157.7,229.7,144.3,232.4,130.5,232.4z M130.4,30.6C74.6,30.6,29.2,75.3,29,130.4
		c-0.1,26.7,10.4,51.9,29.5,70.9c19.1,19,44.5,29.4,71.6,29.5c0.1,0,0.2,0,0.3,0c55.8,0,101.3-44.7,101.4-99.8
		c0.1-26.7-10.4-51.9-29.5-70.9c-19.1-19-44.5-29.4-71.6-29.5C130.6,30.6,130.5,30.6,130.4,30.6z"/>
</g>
<g>
	<linearGradient id="SVGID_2_" gradientUnits="userSpaceOnUse" x1="92.0032" y1="19.1894" x2="168.8841" y2="242.1438">
		<stop  offset="0" style="stop-color:#F9F19B"/>
		<stop  offset="6.082354e-03" style="stop-color:#FAEF98"/>
		<stop  offset="4.248104e-02" style="stop-color:#FBDF87"/>
		<stop  offset="8.358447e-02" style="stop-color:#FBD37A"/>
		<stop  offset="0.1315" style="stop-color:#FBCA71"/>
		<stop  offset="0.1924" style="stop-color:#FBC46B"/>
		<stop  offset="0.3101" style="stop-color:#FBC26A"/>
		<stop  offset="0.9081" style="stop-color:#FBC069"/>
		<stop  offset="0.9547" style="stop-color:#F9BF68"/>
		<stop  offset="0.9715" style="stop-color:#F2B965"/>
		<stop  offset="0.9835" style="stop-color:#E5AF5F"/>
		<stop  offset="0.9931" style="stop-color:#D4A257"/>
		<stop  offset="1" style="stop-color:#C2954F"/>
	</linearGradient>
	<path class="st2" d="M240.5,85.2c-6-14-14.5-26.7-25.5-37.5c-10.9-10.8-23.6-19.4-37.8-25.3c-14.7-6.2-30.3-9.3-46.4-9.4h-0.4
		c-16,0-31.5,3.1-46.1,9.1c-14.2,5.9-27,14.3-38,25.1c-11,10.8-19.6,23.3-25.7,37.3c-6.3,14.5-9.5,29.9-9.5,45.8
		c0,15.9,3.1,31.3,9.2,45.9c6,14,14.5,26.7,25.5,37.5C56.8,224.5,69.5,233,83.7,239c14.7,6.2,30.3,9.3,46.4,9.4c0.1,0,0.2,0,0.4,0
		c16,0,31.5-3.1,46.1-9.1c14.2-5.9,27-14.3,38-25.1c11-10.8,19.6-23.3,25.7-37.3c6.3-14.5,9.5-29.9,9.5-45.8
		C249.7,115.1,246.6,99.7,240.5,85.2z M130.5,241.4c-0.1,0-0.2,0-0.3,0c-30-0.1-58.1-11.7-79.3-32.7c-21.1-21-32.7-48.8-32.6-78.4
		C18.4,69.4,68.7,20,130.4,20h0.3c61.9,0.2,112.1,50,111.9,111C242.5,191.9,192.2,241.4,130.5,241.4z"/>
</g>
<linearGradient id="SVGID_3_" gradientUnits="userSpaceOnUse" x1="136.5848" y1="52.0737" x2="154.9879" y2="105.4426">
	<stop  offset="0" style="stop-color:#F9F19B"/>
	<stop  offset="6.082354e-03" style="stop-color:#FAEF98"/>
	<stop  offset="4.248104e-02" style="stop-color:#FBDF87"/>
	<stop  offset="8.358447e-02" style="stop-color:#FBD37A"/>
	<stop  offset="0.1315" style="stop-color:#FBCA71"/>
	<stop  offset="0.1924" style="stop-color:#FBC46B"/>
	<stop  offset="0.3101" style="stop-color:#FBC26A"/>
	<stop  offset="0.7933" style="stop-color:#FBC069"/>
	<stop  offset="1" style="stop-color:#C2954F"/>
</linearGradient>
<path class="st3" d="M190.4,92.3c-0.1,0.5-0.6,0.9-1.2,0.9H91.9c-1.2,0-1.8-1.4-1-2.2l26.4-31.6c0.3-0.4,0.7-0.6,1.2-0.6l79.4-0.1
	c0.7,0,1.2,0.7,1.1,1.4L190.4,92.3z"/>
<polygon class="st4" points="197.6,60.1 189,91.9 92.1,91.9 118.5,60.1 "/>
<linearGradient id="SVGID_4_" gradientUnits="userSpaceOnUse" x1="67.6683" y1="127.7286" x2="147.7644" y2="195.8103">
	<stop  offset="0" style="stop-color:#F9F08E"/>
	<stop  offset="8.431222e-03" style="stop-color:#FAEC8A"/>
	<stop  offset="4.454100e-02" style="stop-color:#FBDD7E"/>
	<stop  offset="8.531433e-02" style="stop-color:#FBD174"/>
	<stop  offset="0.1328" style="stop-color:#FBC86D"/>
	<stop  offset="0.1933" style="stop-color:#FBC269"/>
	<stop  offset="0.3101" style="stop-color:#FBC168"/>
	<stop  offset="0.7933" style="stop-color:#FBC069"/>
	<stop  offset="1" style="stop-color:#C2954F"/>
</linearGradient>
<path class="st5" d="M61.6,199.9l8.4-31.4c0.2-0.7,0.8-1.2,1.6-1.2h55.8l-16-29H80.5c-1.1,0-1.8-1-1.6-2l8.3-31.4
	c0.2-0.7,0.8-1.2,1.6-1.2h42.4c0.6,0,1.1,0.3,1.4,0.8l36.6,64.1c0.3,0.6,0.3,1.3-0.2,1.8l-26.1,31c-0.3,0.4-0.8,0.6-1.2,0.6H63.1
	C62.1,202,61.3,201,61.6,199.9z"/>
<polygon class="st4" points="131.4,105.1 88.7,105.1 80.3,136.9 112.2,136.9 129.7,168.7 71.4,168.7 62.9,200.6 141.9,200.6 
	168.1,169.4 "/>
<linearGradient id="SVGID_5_" gradientUnits="userSpaceOnUse" x1="-10.3738" y1="16.678" x2="198.5523" y2="194.2652" gradientTransform="matrix(1.0112 8.984803e-03 -8.842017e-03 0.9951 32.2325 24.8625)">
	<stop  offset="0" style="stop-color:#F9F08E"/>
	<stop  offset="8.431222e-03" style="stop-color:#FAEC8A"/>
	<stop  offset="4.454100e-02" style="stop-color:#FBDD7E"/>
	<stop  offset="8.531433e-02" style="stop-color:#FBD174"/>
	<stop  offset="0.1328" style="stop-color:#FBC86D"/>
	<stop  offset="0.1933" style="stop-color:#FBC269"/>
	<stop  offset="0.3101" style="stop-color:#FBC168"/>
	<stop  offset="0.7933" style="stop-color:#FBC069"/>
	<stop  offset="0.8448" style="stop-color:#F5BC66"/>
	<stop  offset="0.9085" style="stop-color:#E5AF5F"/>
	<stop  offset="0.9785" style="stop-color:#CB9C53"/>
	<stop  offset="1" style="stop-color:#C2954F"/>
</linearGradient>
<ellipse transform="matrix(8.884043e-03 -1 1 8.884043e-03 -5.3408 255.9442)" class="st6" cx="126.4" cy="130.7" rx="114.2" ry="116"/>
</svg>
