<?xml version="1.0" encoding="UTF-8"?>
<svg xmlns="http://www.w3.org/2000/svg" xmlns:xlink="http://www.w3.org/1999/xlink" width="256px" height="256px" viewBox="0 0 256 256" version="1.1">
<g id="surface1">
<path style=" stroke:none;fill-rule:nonzero;fill:rgb(100%,100%,100%);fill-opacity:1;" d="M 256 128 C 256 57.308594 198.691406 0 128 0 C 57.308594 0 0 57.308594 0 128 C 0 198.691406 57.308594 256 128 256 C 198.691406 256 256 198.691406 256 128 Z M 256 128 "/>
<path style="fill-rule:nonzero;fill:rgb(0%,0%,100%);fill-opacity:1;stroke-width:2;stroke-linecap:butt;stroke-linejoin:miter;stroke:rgb(0%,0%,0%);stroke-opacity:1;stroke-miterlimit:10;" d="M 304.497711 461.504517 L 159.798431 461.504517 L 194.704834 488.202209 L 304.497711 488.202209 Z M 304.497711 461.504517 " transform="matrix(0.352617,0,0,0.352617,0,0)"/>
<path style="fill-rule:nonzero;fill:rgb(0%,0%,100%);fill-opacity:1;stroke-width:2;stroke-linecap:butt;stroke-linejoin:miter;stroke:rgb(0%,0%,0%);stroke-opacity:1;stroke-miterlimit:10;" d="M 252.498138 422.6987 L 110.202759 422.6987 L 148.399292 451.899994 L 236.501678 451.899994 Z M 252.498138 422.6987 " transform="matrix(0.352617,0,0,0.352617,0,0)"/>
<path style="fill-rule:nonzero;fill:rgb(0%,0%,100%);fill-opacity:1;stroke-width:2;stroke-linecap:butt;stroke-linejoin:miter;stroke:rgb(0%,0%,0%);stroke-opacity:1;stroke-miterlimit:10;" d="M 294.505463 347.202942 L 11.299438 347.103241 L 49.495972 376.304535 L 278.497925 376.404236 Z M 294.505463 347.202942 " transform="matrix(0.352617,0,0,0.352617,0,0)"/>
<path style="fill-rule:nonzero;fill:rgb(0%,0%,100%);fill-opacity:1;stroke-width:2;stroke-linecap:butt;stroke-linejoin:miter;stroke:rgb(0%,0%,0%);stroke-opacity:1;stroke-miterlimit:10;" d="M 274.49881 384.402466 L 60.695709 384.80127 L 98.90332 414.002563 L 257.505341 413.60376 Z M 274.49881 384.402466 " transform="matrix(0.352617,0,0,0.352617,0,0)"/>
<path style="fill-rule:nonzero;fill:rgb(0%,0%,100%);fill-opacity:1;stroke-width:2;stroke-linecap:butt;stroke-linejoin:miter;stroke:rgb(0%,0%,0%);stroke-opacity:1;stroke-miterlimit:10;" d="M 317.503143 311.000427 L 37.997131 310.601624 L 3.201508 339.703217 L 299.501587 340.201721 Z M 317.503143 311.000427 " transform="matrix(0.352617,0,0,0.352617,0,0)"/>
<path style="fill-rule:nonzero;fill:rgb(0%,0%,100%);fill-opacity:1;stroke-width:2;stroke-linecap:butt;stroke-linejoin:miter;stroke:rgb(0%,0%,0%);stroke-opacity:1;stroke-miterlimit:10;" d="M 421.502289 461.504517 L 565.902466 461.504517 L 530.996063 488.202209 L 421.502289 488.202209 Z M 421.502289 461.504517 " transform="matrix(0.352617,0,0,0.352617,0,0)"/>
<path style="fill-rule:nonzero;fill:rgb(0%,0%,100%);fill-opacity:1;stroke-width:2;stroke-linecap:butt;stroke-linejoin:miter;stroke:rgb(0%,0%,0%);stroke-opacity:1;stroke-miterlimit:10;" d="M 479.494995 422.6987 L 615.498138 422.6987 L 577.301605 451.899994 L 487.504303 451.899994 Z M 479.494995 422.6987 " transform="matrix(0.352617,0,0,0.352617,0,0)"/>
<path style="fill-rule:nonzero;fill:rgb(0%,0%,100%);fill-opacity:1;stroke-width:2;stroke-linecap:butt;stroke-linejoin:miter;stroke:rgb(0%,0%,0%);stroke-opacity:1;stroke-miterlimit:10;" d="M 452.498199 347.202942 L 714.401459 347.103241 L 676.204926 376.304535 L 463.498535 376.404236 Z M 452.498199 347.202942 " transform="matrix(0.352617,0,0,0.352617,0,0)"/>
<path style="fill-rule:nonzero;fill:rgb(0%,0%,100%);fill-opacity:1;stroke-width:2;stroke-linecap:butt;stroke-linejoin:miter;stroke:rgb(0%,0%,0%);stroke-opacity:1;stroke-miterlimit:10;" d="M 466.500641 384.402466 L 665.005188 384.80127 L 626.797577 414.002563 L 476.503967 413.60376 Z M 466.500641 384.402466 " transform="matrix(0.352617,0,0,0.352617,0,0)"/>
<path style="fill-rule:nonzero;fill:rgb(0%,0%,100%);fill-opacity:1;stroke-width:2;stroke-linecap:butt;stroke-linejoin:miter;stroke:rgb(0%,0%,0%);stroke-opacity:1;stroke-miterlimit:10;" d="M 440.500854 311.000427 L 687.703766 310.601624 L 722.49939 339.703217 L 450.504181 340.201721 Z M 440.500854 311.000427 " transform="matrix(0.352617,0,0,0.352617,0,0)"/>
<path style="fill-rule:nonzero;fill:rgb(100%,100%,0%);fill-opacity:1;stroke-width:2;stroke-linecap:butt;stroke-linejoin:miter;stroke:rgb(0%,0%,0%);stroke-opacity:1;stroke-miterlimit:10;" d="M 390.905182 525.800537 L 372.504822 525.800537 L 366.899414 508.197784 L 361.205383 525.800537 L 342.904724 525.800537 L 357.704773 536.601471 L 351.999664 554.204224 L 366.899414 543.303589 L 381.699463 554.204224 L 376.005432 536.601471 Z M 390.905182 525.800537 " transform="matrix(0.352617,0,0,0.352617,0,0)"/>
<path style="fill-rule:nonzero;fill:rgb(0%,0%,100%);fill-opacity:1;stroke-width:2;stroke-linecap:butt;stroke-linejoin:miter;stroke:rgb(0%,0%,0%);stroke-opacity:1;stroke-miterlimit:10;" d="M 335.604401 522.100525 L 358.003876 522.100525 L 364.09671 503.002258 L 247.00351 503.002258 L 273.701202 522.100525 Z M 335.604401 522.100525 " transform="matrix(0.352617,0,0,0.352617,0,0)"/>
<path style="fill-rule:nonzero;fill:rgb(0%,0%,100%);fill-opacity:1;stroke-width:2;stroke-linecap:butt;stroke-linejoin:miter;stroke:rgb(0%,0%,0%);stroke-opacity:1;stroke-miterlimit:10;" d="M 353.69458 539.304474 L 339.902618 529.201447 L 337.997223 527.794556 L 309.704315 527.794556 L 324.504364 540.600586 L 353.196075 540.600586 Z M 353.69458 539.304474 " transform="matrix(0.352617,0,0,0.352617,0,0)"/>
<path style="fill-rule:nonzero;fill:rgb(0%,0%,100%);fill-opacity:1;stroke-width:2;stroke-linecap:butt;stroke-linejoin:miter;stroke:rgb(0%,0%,0%);stroke-opacity:1;stroke-miterlimit:10;" d="M 375.794952 522.100525 L 458.502411 522.100525 L 487.105499 503.002258 L 369.602417 503.002258 Z M 375.794952 522.100525 " transform="matrix(0.352617,0,0,0.352617,0,0)"/>
<path style="fill-rule:nonzero;fill:rgb(0%,0%,100%);fill-opacity:1;stroke-width:2;stroke-linecap:butt;stroke-linejoin:miter;stroke:rgb(0%,0%,0%);stroke-opacity:1;stroke-miterlimit:10;" d="M 380.004547 539.304474 L 380.503052 540.600586 L 405.494751 540.600586 L 422.997803 527.794556 L 395.801605 527.794556 Z M 380.004547 539.304474 " transform="matrix(0.352617,0,0,0.352617,0,0)"/>
<path style=" stroke:none;fill-rule:nonzero;fill:rgb(0%,0%,0%);fill-opacity:1;" d="M 83.886719 161.5 L 130.714844 80.183594 L 143.867188 80.253906 L 97.394531 161.464844 Z M 83.886719 161.5 "/>
<path style=" stroke:none;fill-rule:nonzero;fill:rgb(0%,0%,0%);fill-opacity:1;" d="M 111.496094 161.144531 L 148.277344 93.335938 L 161.324219 93.335938 L 125.003906 161.109375 Z M 111.496094 161.144531 "/>
<path style=" stroke:none;fill-rule:nonzero;fill:rgb(0%,0%,0%);fill-opacity:1;" d="M 171.195312 161.5 L 143.621094 80.183594 L 130.46875 80.253906 L 157.726562 161.464844 Z M 171.195312 161.5 "/>
<path style="fill-rule:nonzero;fill:rgb(100%,100%,0%);fill-opacity:1;stroke-width:2;stroke-linecap:butt;stroke-linejoin:miter;stroke:rgb(0%,0%,0%);stroke-opacity:1;stroke-miterlimit:10;" d="M 311.100128 464.196442 L 316.594757 458.602112 L 326.498383 458.602112 L 332.004089 464.196442 L 332.004089 470.499756 L 323.895081 470.499756 L 323.895081 466.301239 L 318.998657 466.301239 L 318.998657 474.897675 L 331.904388 474.897675 L 332.10379 494.195343 L 326.598083 499.800751 L 316.705536 499.800751 L 311.199829 494.195343 L 311.199829 487.903107 L 319.29776 487.903107 L 319.29776 492.101624 L 324.205261 492.101624 L 324.205261 483.505188 L 311.29953 483.505188 Z M 311.100128 464.196442 " transform="matrix(0.352617,0,0,0.352617,0,0)"/>
<path style="fill-rule:nonzero;fill:rgb(100%,100%,0%);fill-opacity:1;stroke-width:2;stroke-linecap:butt;stroke-linejoin:miter;stroke:rgb(0%,0%,0%);stroke-opacity:1;stroke-miterlimit:10;" d="M 360.097595 458.701813 L 360.097595 466.700043 L 353.69458 466.700043 L 353.69458 499.800751 L 345.69635 499.800751 L 345.69635 466.700043 L 339.00531 466.700043 L 339.00531 458.701813 Z M 360.097595 458.701813 " transform="matrix(0.352617,0,0,0.352617,0,0)"/>
<path style="fill-rule:nonzero;fill:rgb(100%,100%,0%);fill-opacity:1;stroke-width:2;stroke-linecap:butt;stroke-linejoin:miter;stroke:rgb(0%,0%,0%);stroke-opacity:1;stroke-miterlimit:10;" d="M 374.997345 499.900452 L 366.999115 499.900452 L 366.999115 464.196442 L 372.504822 458.602112 L 382.397369 458.602112 L 387.903076 464.196442 L 387.903076 468.705139 L 388.002777 499.900452 L 380.004547 499.900452 L 379.904846 483.405487 L 374.997345 483.405487 Z M 374.997345 475.196777 L 379.904846 475.196777 L 379.904846 466.500641 L 374.997345 466.500641 Z M 374.997345 475.196777 " transform="matrix(0.352617,0,0,0.352617,0,0)"/>
<path style="fill-rule:nonzero;fill:rgb(100%,100%,0%);fill-opacity:1;stroke-width:2;stroke-linecap:butt;stroke-linejoin:miter;stroke:rgb(0%,0%,0%);stroke-opacity:1;stroke-miterlimit:10;" d="M 403.20163 499.900452 L 395.2034 499.900452 L 395.2034 458.602112 L 410.601654 458.602112 L 416.096283 464.196442 L 416.096283 468.705139 L 416.195984 477.500977 L 416.096283 477.500977 L 416.096283 477.800079 L 414.600769 479.295593 L 416.096283 480.802185 L 416.096283 481.101288 L 416.195984 481.101288 L 416.195984 499.800751 L 408.197754 499.800751 L 408.098053 483.294708 L 403.20163 483.294708 Z M 403.101929 475.296478 L 407.998352 475.296478 L 407.998352 466.600342 L 403.101929 466.600342 Z M 403.101929 475.296478 " transform="matrix(0.352617,0,0,0.352617,0,0)"/>
</g>
</svg>
