<svg width="256" height="256" viewBox="0 0 256 256" fill="none" xmlns="http://www.w3.org/2000/svg">
<g clip-path="url(#clip0_8836_108999)">
<path d="M256 233.02V256.02H0V235.02C5 234.37 10.06 233.27 15.09 233.21C19.09 233.21 23.16 235.29 27.09 234.93C38.17 233.93 49.17 232.09 60.79 230.51V224.15C60.79 151.59 60.79 79.03 60.79 6.47C60.79 4.32 60.93 2.16 61.01 0H191.01V231.94C198.81 231.94 205.79 232.07 212.76 231.88C215.35 231.8 217.91 230.83 220.5 230.52C224.13 230.08 228.15 228.76 231.35 229.82C239.46 232.54 247.46 234.23 256 233.02ZM122.57 21.24L123.51 21.6L124.74 20.34C125.08 21.34 125.91 22.39 125.74 23.21C123.59 31.72 121.38 40.21 118.95 48.64C117.83 52.51 114.41 52.92 111.81 49.64C110.68 48.23 109.81 46.64 108.81 45.1C109.68 63.41 111.96 81.26 111.88 99.34C111.337 99.2042 110.829 98.9561 110.388 98.6116C109.947 98.2671 109.583 97.8339 109.32 97.34C106.14 89.24 103.1 81.08 99.86 73C98.9474 71.186 97.8766 69.4559 96.66 67.83C95.8166 68.7359 95.3391 69.9224 95.32 71.16C99.55 72 97.59 74.84 97.26 77.06C96.98 78.87 96.48 80.64 96.11 82.43C95.41 85.85 93.54 87.19 90 86.3C86.46 85.41 83.07 84.9 78.79 84.05C79.35 86.97 79.79 88.87 80.09 90.79C81.2 98.01 82.43 105.22 83.28 112.47C83.68 115.87 82.78 118.85 79.35 120.95C75.92 123.05 74.86 126.24 76.73 130.64L78.25 127.77C79.25 128.43 80.67 128.87 81.35 129.77C86.3 136.56 90.93 143.59 96.01 150.27C101.09 156.95 104.39 163.83 102.01 172.21C101.01 175.77 98.53 178.91 97.39 182.46C96.418 185.912 95.8542 189.466 95.71 193.05C95.71 193.61 97.89 194.33 99.06 194.98C99.7769 193.683 100.421 192.348 100.99 190.98C101.12 190.64 100.53 189.98 100.1 189.22L97.92 193.06C96.92 189.12 101.74 179.15 104.92 178.12C109.79 176.53 114.69 175 119.67 173.8C125.91 172.29 126.18 172.6 126.03 178.98C125.74 191.3 125.33 203.62 125.16 215.98C125.16 217.44 126.29 218.91 126.89 220.38C127.62 218.84 128.84 217.38 128.97 215.75C129.107 212.417 129.064 209.079 128.84 205.75C128.58 196.25 128.29 186.75 128.04 177.27C127.98 174.83 128.04 171.94 131.64 173.09C138.32 175.25 144.76 178.2 151.5 180.09C154.738 180.947 158.152 180.874 161.35 179.88C162.49 179.52 162.6 175.48 162.85 173.09C162.91 172.46 161.85 171.56 161.11 171.09C160.79 170.88 159.51 171.39 159.49 171.65C159.452 172.53 159.585 173.41 159.88 174.24C160.205 175.136 160.579 176.014 161 176.87C160.16 177.23 159.05 178.12 158.53 177.87C156.28 176.74 152.91 175.69 152.32 173.87C150.32 167.87 149.89 161.54 154.12 155.87C157.27 151.65 160.12 147.18 163.27 143.01C167.56 137.4 172.2 132.01 176.47 126.43C179.03 123.06 180.11 119.23 178.47 115.15H177.11C177.17 116.4 177.22 117.66 177.27 118.89C171.76 119.97 170.13 118.89 170.16 113.46C170.293 109.65 170.762 105.858 171.56 102.13C172.64 96.36 173.98 90.64 175.44 83.86C170.64 84.86 167.15 85.73 163.61 86.21C162.15 86.41 160.14 86.21 159.14 85.36C156.43 83 156.83 75.68 159.65 72.64C160.08 74.12 160.47 75.48 160.86 76.84L162.44 76.41L160.34 69.62C158.65 71.07 156.34 72.19 155.4 74.02C152.65 79.45 150.55 85.21 147.99 90.74C146.54 93.87 144.7 96.81 142.99 99.84L141.31 99.36C141.31 96.53 141.12 93.69 141.36 90.88C141.807 85.4067 142.393 79.95 143.12 74.51C144.69 62.67 146.31 50.85 148.12 39.05C148.29 37.93 149.77 37.05 150.64 36.05C151.58 37.05 152.99 37.95 153.33 39.14C153.8 40.74 153.45 42.58 153.45 44.32L152.45 44.24L151.66 41.29L151.04 41.43C151.14 43.59 151.247 45.75 151.36 47.91C156.31 44.79 154.97 40.39 154.7 36.42C154.6 34.95 153.25 32.73 152.04 32.42C150.83 32.11 148.56 33.26 147.63 34.42C145.63 36.97 144.37 40.1 142.45 42.73C141.45 44.05 139.3 45.93 138.45 45.59C136.535 44.7865 135.007 43.2696 134.19 41.36C132.7 36.85 132.01 32.09 130.8 27.47C129.59 22.85 128.16 18.39 126.8 13.86L124.57 14.07L122.57 21.24Z" fill="#F2F3EE"/>
<path d="M256 233.02C247.47 234.23 239.45 232.49 231.34 229.82C228.14 228.76 224.12 230.08 220.49 230.52C217.9 230.83 215.34 231.8 212.75 231.88C205.75 232.07 198.75 231.94 191 231.94V0H256V233.02Z" fill="#C42416"/>
<path d="M61.0002 0C60.9202 2.16 60.7802 4.32 60.7802 6.47C60.7802 79.03 60.7802 151.59 60.7802 224.15V230.54C49.1602 232.12 38.1602 233.93 27.0802 234.96C23.1802 235.32 19.0802 233.2 15.0802 233.24C10.0802 233.3 5.02023 234.4 -0.00976562 235.05V0.0500183L61.0002 0Z" fill="#C42416"/>
<path d="M122.571 21.2401L124.571 14.0601L126.801 13.8501C128.141 18.3801 129.581 22.8501 130.801 27.4601C132.021 32.0701 132.701 36.8401 134.191 41.3501C135.008 43.2596 136.535 44.7765 138.451 45.5801C139.301 45.9201 141.451 44.0401 142.451 42.7201C144.371 40.0901 145.631 36.9601 147.631 34.4101C148.561 33.2101 150.811 32.0301 152.041 32.4101C153.271 32.7901 154.601 34.9701 154.701 36.4101C154.971 40.4101 156.311 44.7801 151.361 47.9001C151.247 45.7401 151.141 43.5801 151.041 41.4201L151.661 41.2801L152.451 44.2301L153.451 44.3101C153.451 42.5701 153.801 40.7301 153.331 39.1301C152.991 37.9401 151.581 37.0601 150.641 36.0401C149.771 37.0401 148.291 37.9701 148.121 39.0401C146.331 50.8401 144.711 62.6601 143.121 74.5001C142.401 79.9401 141.814 85.3968 141.361 90.8701C141.121 93.6801 141.311 96.5201 141.311 99.3501L142.991 99.8301C144.661 96.8301 146.501 93.8301 147.991 90.7301C150.551 85.2001 152.651 79.4401 155.401 74.0101C156.331 72.1801 158.651 71.0101 160.341 69.6101L162.441 76.4001L160.861 76.8301C160.471 75.4701 160.081 74.1101 159.651 72.6301C156.831 75.6301 156.431 82.9901 159.141 85.3501C160.141 86.2201 162.141 86.3501 163.611 86.2001C167.151 85.7201 170.611 84.8401 175.441 83.8501C173.981 90.6301 172.641 96.3501 171.561 102.12C170.724 105.875 170.222 109.697 170.061 113.54C170.061 119 171.661 120.05 177.171 118.97C177.121 117.74 177.071 116.48 177.011 115.23H178.371C180.021 119.31 178.941 123.14 176.371 126.51C172.101 132.13 167.461 137.51 163.171 143.09C159.971 147.26 157.171 151.73 154.021 155.95C149.791 161.63 150.261 167.95 152.221 173.95C152.811 175.79 156.221 176.84 158.431 177.95C158.951 178.21 160.061 177.32 160.901 176.95C160.48 176.094 160.106 175.216 159.781 174.32C159.485 173.49 159.353 172.61 159.391 171.73C159.391 171.47 160.691 170.96 161.011 171.17C161.751 171.66 162.811 172.56 162.751 173.17C162.501 175.56 162.391 179.6 161.251 179.96C158.052 180.954 154.639 181.027 151.401 180.17C144.661 178.24 138.221 175.29 131.541 173.17C127.961 172.02 127.881 174.91 127.941 177.35C128.191 186.84 128.481 196.35 128.741 205.83C128.964 209.159 129.008 212.497 128.871 215.83C128.741 217.42 127.521 218.92 126.791 220.46C126.191 218.99 125.031 217.52 125.061 216.06C125.231 203.73 125.641 191.41 125.931 179.06C126.081 172.68 125.811 172.37 119.571 173.88C114.571 175.08 109.691 176.61 104.821 178.2C101.681 179.2 96.8206 189.2 97.8206 193.14L100.001 189.3C100.431 190.1 101.001 190.72 100.891 191.06C100.322 192.428 99.6775 193.764 98.9606 195.06C97.7906 194.41 95.5706 193.69 95.6106 193.13C95.7548 189.547 96.3186 185.992 97.2906 182.54C98.4306 178.99 100.891 175.85 101.911 172.29C104.311 163.91 100.911 156.94 95.9106 150.35C90.9106 143.76 86.2006 136.64 81.2506 129.85C80.5706 128.92 79.2006 128.48 78.1506 127.85L76.6306 130.72C74.7606 126.32 75.9406 123.06 79.2506 121.03C82.5606 119 83.5806 115.95 83.1806 112.55C82.3306 105.3 81.1006 98.0901 79.9906 90.8701C79.6906 88.9501 79.2506 87.0501 78.6906 84.1301C82.9706 84.9801 86.4806 85.5201 89.9006 86.3801C93.3206 87.2401 95.3106 85.9301 96.0106 82.5101C96.3806 80.7201 96.8806 78.9501 97.1606 77.1401C97.4906 74.9201 99.4506 72.0801 95.2206 71.2401C95.2397 70.0025 95.7172 68.816 96.5606 67.9101C97.7772 69.536 98.848 71.266 99.7606 73.0801C103.001 81.1601 106.041 89.3201 109.221 97.4201C109.484 97.914 109.847 98.3472 110.288 98.6917C110.729 99.0362 111.238 99.2844 111.781 99.4201C111.861 81.3401 109.581 63.4901 108.711 45.1801C109.711 46.7001 110.571 48.3101 111.711 49.7201C114.311 52.9801 117.711 52.5701 118.851 48.7201C121.281 40.2901 123.491 31.8001 125.641 23.2901C125.851 22.4701 125.021 21.3901 124.641 20.4201L123.411 21.6801L122.571 21.2401Z" fill="#C42416"/>
</g>
<defs>
<clipPath id="clip0_8836_108999">
<rect width="256" height="256" fill="white"/>
</clipPath>
</defs>
</svg>
