<?xml version="1.0" standalone="no"?>
<!DOCTYPE svg PUBLIC "-//W3C//DTD SVG 1.0//EN" "http://www.w3.org/TR/2001/REC-SVG-20010904/DTD/svg10.dtd">
<svg xmlns="http://www.w3.org/2000/svg" xmlns:xlink="http://www.w3.org/1999/xlink" id="body_1" width="1024" height="768">

<g transform="matrix(1.1806848 0 0 1.1806848 168.7277 -0)">
	<g>
		<g>
            <path d="M92.26 108.86L145.49 108.86L145.51 467.18L92.26 439.38L106.16 428.9L106.33 123.68L92.26 108.86L92.26 108.86" stroke="none" fill="#FDB21E" fill-rule="nonzero" />
            <path d="M382.57 492.3L352.96 507.74L328.24 315.95L328.24 504.32L339.37 514.82L289.11 541.63L289.14 108.86L326.45 108.86L328.24 125.34L342.59 256.09L342.92 108.85L396.87 108.86L382.4 122.99L382.57 492.3L382.57 492.3" stroke="none" fill="#FDB21E" fill-rule="nonzero" />
            <path d="M279.55 536.94L253.78 523.61L240.67 516.79L207.1 499.32L170.48 320.43L170.5 124.13L156.91 108.86L210.87 108.82L210.88 309.13L240.49 457.13L239.44 125.27L222.87 108.86L278.48 108.86L279.55 536.94L279.55 536.94" stroke="none" fill="#FDB21E" fill-rule="nonzero" />
            <path d="M253.78 523.61L240.67 516.84L240.67 516.79L253.78 523.61L253.78 523.61" stroke="none" fill="#FDB21E" fill-rule="nonzero" />
            <path d="M451.7 192.07L451.7 151L437.2 138.69L431.18 144.91L431.18 333.89L431.18 408.75L442.08 403.11L451.7 371.57L451.7 318.81L478.95 294.25L478.95 379.27L454.69 454.69L392.17 487.3L392.17 125.36L409 108.86L445.68 108.86L453.04 117.28L453.04 108.86L495.14 108.86L478.8 125.04L478.95 213.54L453.04 193.17L451.7 192.07L451.7 192.07" stroke="none" fill="#FDB21E" fill-rule="nonzero" />
            <path d="M385.85 16.75L313.06 16.75C 308.24 16.75 304.3 21.5 304.3 27.310001C 304.3 33.120003 308.24 37.870003 313.06 37.870003L313.06 37.870003L385.85 37.870003C 390.67 37.870003 394.62 33.120003 394.62 27.310001C 394.62 21.5 390.67 16.75 385.85 16.75z" stroke="none" fill="#FDB21E" fill-rule="nonzero" />
            <path d="M500.13 16.75L427.34 16.75C 422.52 16.75 418.58 21.5 418.58 27.310001C 418.58 33.120003 422.52 37.870003 427.34 37.870003L427.34 37.870003L500.13 37.870003C 504.95 37.870003 508.9 33.120003 508.9 27.310001C 508.9 21.5 505 16.75 500.13 16.75z" stroke="none" fill="#FDB21E" fill-rule="nonzero" />
            <path d="M355.72 8C 347.92435 15.810241 345.59277 27.543411 349.80997 37.740807C 354.02716 47.938198 363.96497 54.597282 375 54.62L375 54.62L438.12 54.62C 447.87692 54.62 456.8927 49.41474 461.77115 40.964996C 466.6496 32.515255 466.6496 22.10474 461.77115 13.654997C 456.8927 5.2052536 447.87692 0 438.12 0L438.12 0L375 0C 367.76624 0.0019397736 360.83008 2.8800106 355.72 8zM435.72 13.2C 440.76218 13.19826 445.4221 15.88723 447.9437 20.253593C 450.46527 24.619957 450.46527 30.000042 447.9437 34.366405C 445.4221 38.732773 440.76218 41.421738 435.72 41.42L435.72 41.42L377.48 41.42C 372.439 41.42 367.7809 38.730648 365.2604 34.364998C 362.7399 29.999348 362.7399 24.620646 365.2604 20.254995C 367.7809 15.889347 372.439 13.199998 377.48 13.199999z" stroke="none" fill="#FDB21E" fill-rule="nonzero" />
            <path d="M239.71 8C 231.90291 15.807991 229.56552 27.548895 233.7871 37.751556C 238.00865 47.954216 247.95847 54.61104 259 54.62L259 54.62L322.13 54.62C 337.2129 54.62 349.44 42.392895 349.44 27.309998C 349.44 12.227101 337.2129 0 322.13 0L322.13 0L259 0C 251.76234 -0.0029201508 244.82129 2.8756905 239.71 8zM319.71002 13.2C 324.7522 13.19826 329.4121 15.88723 331.93372 20.253593C 334.4553 24.619957 334.4553 30.000042 331.93372 34.366405C 329.4121 38.732773 324.7522 41.421738 319.71002 41.42L319.71002 41.42L261.47 41.42C 256.429 41.42 251.77089 38.730648 249.25038 34.364998C 246.72987 29.999348 246.72987 24.620646 249.25038 20.254995C 251.77089 15.889347 256.429 13.199998 261.47 13.199999z" stroke="none" fill="#FDB21E" fill-rule="nonzero" />
            <path d="M154.14 16.75L81.35 16.75C 76.53 16.75 72.59 21.5 72.59 27.310001C 72.59 33.120003 76.53 37.870003 81.35 37.870003L81.35 37.870003L154.14 37.870003C 158.96 37.870003 162.91 33.120003 162.91 27.310001C 162.91 21.5 159 16.75 154.14 16.75z" stroke="none" fill="#FDB21E" fill-rule="nonzero" />
            <path d="M268.42 16.75L195.63 16.75C 190.81 16.75 186.87001 21.5 186.87001 27.310001C 186.87001 33.120003 190.81001 37.870003 195.63 37.870003L195.63 37.870003L268.42 37.870003C 273.24002 37.870003 277.19 33.120003 277.19 27.310001C 277.19 21.5 273.24 16.75 268.42 16.75z" stroke="none" fill="#FDB21E" fill-rule="nonzero" />
            <path d="M124 8C 116.19031 15.810566 113.8542 27.556314 118.080894 37.760788C 122.30759 47.965263 132.2648 54.619118 143.31 54.62L143.31 54.62L206.44 54.62C 216.19693 54.62 225.21269 49.41474 230.09116 40.964996C 234.96962 32.515255 234.96962 22.10474 230.09116 13.654997C 225.21269 5.2052536 216.19693 0 206.44 0L206.44 0L143.32 0C 136.07195 -0.010908127 129.11862 2.8683147 124 8zM204 13.2C 211.79083 13.20269 218.10513 19.519165 218.10513 27.31C 218.10513 35.100834 211.79083 41.41731 204 41.42L204 41.42L145.77 41.42C 140.72899 41.42 136.07089 38.730648 133.55038 34.364998C 131.02988 29.999348 131.02988 24.620646 133.55038 20.254995C 136.07089 15.889347 140.72899 13.199998 145.77 13.199999z" stroke="none" fill="#FDB21E" fill-rule="nonzero" />
            <path d="M8 8C 0.19031143 15.810566 -2.145792 27.556314 2.0809002 37.760788C 6.3075905 47.965263 16.264812 54.619118 27.31 54.62L27.31 54.62L90.44 54.62C 100.19693 54.62 109.21269 49.41474 114.091156 40.964996C 118.96962 32.515255 118.96962 22.10474 114.091156 13.654997C 109.21269 5.2052536 100.19693 0 90.44 0L90.44 0L27.31 0C 20.065403 -0.008243561 13.116177 2.8707752 8 8zM88 13.2C 95.79083 13.20269 102.105125 19.519165 102.105125 27.31C 102.105125 35.100834 95.79083 41.41731 88 41.42L88 41.42L29.75 41.42C 24.708982 41.42 20.05089 38.730648 17.53038 34.364998C 15.009873 29.999348 15.009873 24.620646 17.530382 20.254995C 20.050892 15.889347 24.708982 13.199998 29.75 13.199999z" stroke="none" fill="#FDB21E" fill-rule="nonzero" />
            <path d="M471.74 8C 463.9303 15.810566 461.59418 27.556314 465.8209 37.760788C 470.04758 47.965263 480.0048 54.619118 491.05 54.62L491.05 54.62L554.17 54.62C 563.9269 54.62 572.9427 49.41474 577.82117 40.964996C 582.6996 32.515255 582.6996 22.10474 577.82117 13.654997C 572.9427 5.2052536 563.9269 0 554.17 0L554.17 0L491.05 0C 483.8054 -0.008243561 476.85617 2.870779 471.74 8zM551.74 13.2C 556.78217 13.19826 561.4421 15.88723 563.9637 20.253593C 566.4853 24.619957 566.4853 30.000042 563.9637 34.366405C 561.4421 38.732773 556.78217 41.421738 551.74 41.42L551.74 41.42L493.49 41.42C 488.44897 41.42 483.7909 38.730648 481.2704 34.364998C 478.74988 29.999348 478.74988 24.620646 481.2704 20.254995C 483.7909 15.889347 488.44897 13.199998 493.49 13.199999z" stroke="none" fill="#FDB21E" fill-rule="nonzero" />
            <path d="M76.49 503.94C 65.925064 507.1729 58.350327 516.45496 57.301487 527.45355C 56.252644 538.45215 61.936516 548.9986 71.7 554.17L71.7 554.17L127.47 583.75C 136.10278 588.46277 146.60287 588.16956 154.95921 582.98236C 163.31555 577.79517 168.23721 568.5154 167.84413 558.6878C 167.45103 548.8602 161.80394 540.0032 153.06 535.5L153.06 535.5L97.29 505.92C 90.896126 502.51932 83.41066 501.80676 76.49 503.94zM144.76 546C 151.66354 549.6534 154.29836 558.2114 150.64499 565.115C 146.99162 572.01855 138.43355 574.6534 131.53 571L131.53 571L80 543.66C 73.31621 539.9057 70.848885 531.5043 74.441315 524.7322C 78.03375 517.96 86.373436 515.2914 93.229996 518.72z" stroke="none" fill="#FDB21E" fill-rule="nonzero" />
            <path d="M179.85 560.51C 169.28508 563.7429 161.71034 573.02496 160.6615 584.02356C 159.61266 595.02216 165.29652 605.5686 175.06001 610.74L175.06001 610.74L230.82 640.33C 244.14664 647.3993 260.68076 642.32666 267.75 629C 274.81927 615.6734 269.74664 599.1393 256.42 592.07L256.42 592.07L200.65001 562.49C 194.25612 559.0893 186.77066 558.3768 179.85 560.51zM248.12 602.61C 255.00423 606.2633 257.62335 614.8057 253.97 621.68994C 250.31664 628.57416 241.77423 631.1933 234.89 627.54L234.89 627.54L183.4 600.23C 178.94667 597.8667 176.09245 593.30707 175.91248 588.26874C 175.73251 583.2304 178.25414 578.47876 182.52748 575.8038C 186.80083 573.1287 192.17667 572.9367 196.62999 575.3z" stroke="none" fill="#FDB21E" fill-rule="nonzero" />
            <path d="M42.15 98.3L42.15 25.51C 42.15 20.69 37.39 16.75 31.59 16.75C 25.78 16.75 21 20.69 21 25.51L21 25.51L21 98.3C 21 103.12 25.76 107.07001 31.57 107.07001C 37.39 107.07 42.15 103.12 42.15 98.3z" stroke="none" fill="#FDB21E" fill-rule="nonzero" />
            <path d="M42.15 213.1L42.15 140.31C 42.15 135.48999 37.39 131.54 31.59 131.54C 25.78 131.54 21.02 135.54 21.02 140.31L21.02 140.31L21.02 213.1C 21.02 217.92001 25.78 221.86 31.59 221.86C 37.39 221.86 42.15 217.92 42.15 213.1z" stroke="none" fill="#FDB21E" fill-rule="nonzero" />
            <path d="M50.9 69.91C 43.089436 62.10031 31.343685 59.764206 21.13921 63.9909C 10.934736 68.21759 4.280876 78.174805 4.28 89.22L4.28 89.22L4.28 152.34C 4.279999 167.4229 16.507103 179.65 31.59 179.65C 46.672897 179.65 58.899998 167.4229 58.899998 152.34L58.899998 152.34L58.899998 89.22C 58.90824 81.97541 56.029224 75.026184 50.9 69.91zM45.7 149.91C 45.496384 157.5592 39.23691 163.65427 31.585001 163.65427C 23.93309 163.65427 17.67362 157.5592 17.470001 149.91L17.470001 149.91L17.470001 91.66C 17.333378 86.527626 19.993404 81.72554 24.416803 79.1191C 28.840202 76.512665 34.329803 76.512665 38.7532 79.1191C 43.1766 81.72555 45.836624 86.527626 45.7 91.66z" stroke="none" fill="#FDB21E" fill-rule="nonzero" />
            <path d="M50.9 297.84C 43.089436 290.0303 31.343685 287.69418 21.13921 291.9209C 10.934736 296.14758 4.280876 306.1048 4.28 317.15L4.28 317.15L4.28 380.27C 4.279999 395.35287 16.507103 407.58 31.59 407.58C 46.672897 407.58 58.899998 395.35287 58.899998 380.27L58.899998 380.27L58.899998 317.15C 58.90824 309.9054 56.029224 302.95618 50.9 297.84zM45.7 377.84C 45.496384 385.4892 39.23691 391.58426 31.585001 391.58426C 23.93309 391.58426 17.67362 385.4892 17.470001 377.84L17.470001 377.84L17.470001 319.59C 17.333378 314.4576 19.993404 309.65555 24.416803 307.0491C 28.840202 304.44266 34.329803 304.44266 38.7532 307.0491C 43.1766 309.65555 45.836624 314.4576 45.7 319.59z" stroke="none" fill="#FDB21E" fill-rule="nonzero" />
            <path d="M42.15 326.23L42.15 253.44C 42.15 248.62 37.4 244.68001 31.59 244.68001C 25.78 244.68001 21.02 248.62001 21.02 253.44L21.02 253.44L21.02 326.23C 21.02 331.05002 25.78 335 31.59 335C 37.4 335 42.15 331.05 42.15 326.23z" stroke="none" fill="#FDB21E" fill-rule="nonzero" />
            <path d="M42.15 434.82L42.15 362C 42.15 357.18 37.4 353.24 31.59 353.24C 25.78 353.27 21 357.21 21 362L21 362L21 434.79C 21 439.61002 25.76 443.56 31.57 443.56C 37.4 443.59 42.15 439.64 42.15 434.82z" stroke="none" fill="#FDB21E" fill-rule="nonzero" />
            <path d="M50.9 411.78C 43.089436 403.9703 31.343685 401.6342 21.13921 405.8609C 10.934736 410.0876 4.280876 420.0448 4.28 431.09L4.28 431.09L4.28 494.22C 4.279999 509.3029 16.507103 521.53 31.59 521.53C 46.672897 521.53 58.899998 509.3029 58.899998 494.22L58.899998 494.22L58.899998 431.09C 58.90824 423.8454 56.029224 416.89618 50.9 411.78zM45.7 491.78C 45.496384 499.4292 39.23691 505.52426 31.585001 505.52426C 23.93309 505.52426 17.67362 499.4292 17.470001 491.78L17.470001 491.78L17.470001 433.54C 17.333378 428.40762 19.993404 423.60556 24.416803 420.9991C 28.840202 418.39267 34.329803 418.39267 38.7532 420.9991C 43.1766 423.60556 45.836624 428.40762 45.7 433.54z" stroke="none" fill="#FDB21E" fill-rule="nonzero" />
            <path d="M97.18 526.88L41.55 479.94C 37.87 476.83002 31.789999 477.94 28.039999 482.36002C 24.3 486.80002 24.24 492.98 27.929998 496.09003L27.929998 496.09003L83.56 543C 87.24 546.11 93.32 545 97.07 540.58C 100.82 536.17 100.87 530 97.18 526.88z" stroke="none" fill="#FDB21E" fill-rule="nonzero" />
            <path d="M201.25 581.86L137.35 547C 133.12001 544.69 127.350006 547 124.600006 552.07C 121.82001 557.17 123.00001 563.24 127.23 565.54L127.23 565.54L191.14 600.39996C 195.37 602.70996 201.14 600.39996 203.89 595.31995C 206.67 590.23 205.48 584.17 201.25 581.86z" stroke="none" fill="#FDB21E" fill-rule="nonzero" />
            <path d="M488.94 505.93L433.18 535.51C 424.43604 540.0132 418.78894 548.8703 418.39584 558.6978C 418.00275 568.5254 422.92444 577.8052 431.28076 582.9924C 439.63712 588.17957 450.13718 588.4728 458.77 583.76L458.77 583.76L514.54 554.18C 527.8639 547.1107 532.93427 530.57886 525.865 517.255C 518.7957 503.93112 502.26385 498.86075 488.93997 505.93L488.93997 505.93L488.94 505.93zM492.94 518.74C 497.3933 516.37665 502.76913 516.56866 507.04248 519.2437C 511.31586 521.9187 513.83746 526.67035 513.6575 531.7087C 513.47754 536.747 510.62332 541.30664 506.17 543.67L506.17 543.67L454.71 571C 450.25665 573.36334 444.88083 573.1713 440.60748 570.4963C 436.3341 567.8213 433.8125 563.06964 433.99246 558.0313C 434.17242 552.993 437.02664 548.43335 441.47998 546.07z" stroke="none" fill="#FDB21E" fill-rule="nonzero" />
            <path d="M384.8 562.4L329 592C 315.67612 599.0693 310.60574 615.60114 317.675 628.925C 324.74423 642.2489 341.27612 647.3193 354.6 640.25L354.6 640.25L410.36002 610.67C 419.02054 606.1247 424.58908 597.295 424.95908 587.5212C 425.32904 577.7474 420.44397 568.5219 412.1519 563.3349C 403.8598 558.1478 393.4269 557.79126 384.8 562.4zM388.8 575.2C 393.25977 572.7722 398.68015 572.9279 402.9932 575.60785C 407.30624 578.2877 409.84668 583.0784 409.64532 588.1523C 409.44394 593.2261 406.53183 597.8004 402.02 600.13L402.02 600.13L350.53 627.45C 343.643 631.1006 335.1006 628.477 331.44998 621.58997C 327.79938 614.703 330.423 606.1606 337.31 602.51z" stroke="none" fill="#FDB21E" fill-rule="nonzero" />
            <path d="M488.11 528.55L539.05 476.55C 542.42 473.09998 548.58 473.61 552.72 477.68C 556.87 481.74 557.50995 487.88998 554.13995 491.33L554.13995 491.33L503.19995 543.32996C 499.81995 546.76996 493.66995 546.25995 489.51996 542.19995C 485.37 538.14 484.73 532 488.11 528.55z" stroke="none" fill="#FDB21E" fill-rule="nonzero" />
            <path d="M378 584.5L441.9 549.65C 446.13 547.34 451.9 549.65 454.65 554.72003C 457.44 559.82 456.25 565.88 452.02 568.19L452.02 568.19L388.12 603.05C 383.88 605.35 378.12 603.05 375.36 597.97C 372.53 592.87 373.72 586.81 378 584.5z" stroke="none" fill="#FDB21E" fill-rule="nonzero" />
            <path d="M50.9 184.7C 43.09072 176.8916 31.347391 174.55487 21.143822 178.77899C 10.940254 183.00313 4.284916 192.95665 4.28 204L4.28 204L4.28 267.13C 4.279999 282.2129 16.507103 294.44 31.59 294.44C 46.672897 294.44 58.899998 282.2129 58.899998 267.13L58.899998 267.13L58.899998 204C 58.905582 196.75888 56.02677 189.81375 50.9 184.7zM45.7 264.7C 45.496384 272.3492 39.23691 278.44427 31.585001 278.44427C 23.93309 278.44427 17.67362 272.3492 17.470001 264.7L17.470001 264.7L17.470001 206.46C 17.333378 201.32764 19.993404 196.52554 24.416803 193.9191C 28.840202 191.31267 34.329803 191.31267 38.7532 193.91911C 43.1766 196.52554 45.836624 201.32764 45.7 206.46z" stroke="none" fill="#FDB21E" fill-rule="nonzero" />
            <path d="M543.29 98.41L543.29 25.62C 543.29 20.800001 548.04 16.86 553.85 16.86C 559.66 16.86 564.41 20.800001 564.41 25.62L564.41 25.62L564.41 98.41C 564.41 103.23 559.66 107.18001 553.85 107.18001C 548 107.18 543.29 103.23 543.29 98.41z" stroke="none" fill="#FDB21E" fill-rule="nonzero" />
            <path d="M543.29 213.21L543.29 140.42C 543.29 135.59999 548.04 131.65 553.85 131.65C 559.66 131.65 564.41 135.59999 564.41 140.42L564.41 140.42L564.41 213.20999C 564.41 218.03 559.66 221.96999 553.85 221.96999C 548 222 543.29 218 543.29 213.21z" stroke="none" fill="#FDB21E" fill-rule="nonzero" />
            <path d="M526.54 317.26L526.54 380.38C 526.5366 390.13916 531.74115 399.15845 540.19226 404.039C 548.6434 408.9196 559.0566 408.9196 567.5077 404.039C 575.9588 399.15845 581.1633 390.13916 581.16 380.38L581.16 380.38L581.16 317.26C 581.1548 302.1808 568.9292 289.95944 553.85 289.95944C 538.77075 289.95944 526.54517 302.1808 526.54 317.26zM539.74 319.7C 539.7328 314.65424 542.4206 309.98865 546.7892 307.46365C 551.1578 304.9387 556.5422 304.9387 560.91077 307.46365C 565.27936 309.98865 567.96716 314.65424 567.95996 319.7L567.95996 319.7L567.95996 378C 567.96716 383.04578 565.27936 387.71136 560.91077 390.23636C 556.5422 392.76132 551.1578 392.76132 546.7892 390.23636C 542.4206 387.71136 539.7328 383.04578 539.74 378z" stroke="none" fill="#FDB21E" fill-rule="nonzero" />
            <path d="M543.29 326.34L543.29 253.56C 543.29 248.73 548.04 244.79 553.85 244.79C 559.66 244.79 564.41 248.73 564.41 253.56L564.41 253.56L564.41 326.34C 564.41 331.16998 559.66 335.11 553.85 335.11C 548 335.11 543.29 331.17 543.29 326.34z" stroke="none" fill="#FDB21E" fill-rule="nonzero" />
            <path d="M543.29 434.93L543.29 362.14C 543.29 357.32 548.04 353.38 553.85 353.38C 559.66 353.38 564.41 357.32 564.41 362.14L564.41 362.14L564.41 434.93002C 564.41 439.75003 559.66 443.7 553.85 443.7C 548 443.7 543.29 439.75 543.29 434.93z" stroke="none" fill="#FDB21E" fill-rule="nonzero" />
            <path d="M526.54 431.2L526.54 494.33002C 526.5366 504.08917 531.74115 513.10846 540.19226 517.989C 548.6434 522.86957 559.0566 522.86957 567.5077 517.989C 575.9588 513.10846 581.1633 504.08917 581.16 494.33002L581.16 494.33002L581.16 431.2C 581.1548 416.1208 568.9292 403.89944 553.85 403.89944C 538.77075 403.89944 526.54517 416.1208 526.54 431.2zM539.74 433.65002C 539.7328 428.60425 542.4206 423.93866 546.7892 421.41367C 551.1578 418.8887 556.5422 418.8887 560.91077 421.41367C 565.27936 423.93866 567.96716 428.60425 567.95996 433.65002L567.95996 433.65002L567.95996 491.93002C 567.96716 496.9758 565.27936 501.6414 560.91077 504.16638C 556.5422 506.69135 551.1578 506.69135 546.7892 504.16638C 542.4206 501.6414 539.7328 496.9758 539.74 491.93002z" stroke="none" fill="#FDB21E" fill-rule="nonzero" />
            <path d="M526.54 204.12L526.54 267.25C 526.5366 277.00916 531.74115 286.02844 540.19226 290.909C 548.6434 295.78958 559.0566 295.78958 567.5077 290.909C 575.9588 286.02844 581.1633 277.00916 581.16 267.25L581.16 267.25L581.16 204.12C 581.1548 189.04079 568.9292 176.81943 553.85 176.81943C 538.77075 176.81943 526.54517 189.04079 526.54 204.12zM539.74 206.56999C 539.7328 201.5242 542.4206 196.85861 546.7892 194.33365C 551.1578 191.80867 556.5422 191.80867 560.91077 194.33365C 565.27936 196.85861 567.96716 201.5242 567.95996 206.56999L567.95996 206.56999L567.95996 264.84998C 567.94885 272.63486 561.6349 278.93988 553.85 278.93988C 546.06506 278.93988 539.7511 272.63486 539.74 264.84998z" stroke="none" fill="#FDB21E" fill-rule="nonzero" />
            <path d="M526.54 89.22L526.54 152.34C 526.5366 162.09917 531.74115 171.11845 540.19226 175.99901C 548.6434 180.87956 559.0566 180.87956 567.5077 175.99901C 575.9588 171.11845 581.1633 162.09917 581.16 152.34L581.16 152.34L581.16 89.22C 581.1548 74.14079 568.9292 61.919434 553.85 61.919434C 538.77075 61.919434 526.54517 74.14079 526.54 89.22zM539.74 91.66C 539.7328 86.614204 542.4206 81.94862 546.7892 79.423645C 551.1578 76.898674 556.5422 76.898674 560.91077 79.423645C 565.27936 81.94862 567.96716 86.614204 567.95996 91.66L567.95996 91.66L567.95996 150C 567.96716 155.04579 565.27936 159.71138 560.91077 162.23634C 556.5422 164.76132 551.1578 164.76132 546.7892 162.23634C 542.4206 159.71138 539.7328 155.04579 539.74 150z" stroke="none" fill="#FDB21E" fill-rule="nonzero" />
            <path d="M220.61 593.91L364.05 593.91L364.05 650.47L220.61 650.47z" stroke="none" fill="#FDB21E" fill-rule="nonzero" />
		</g>
	</g>
</g>
</svg>