<svg width="256" height="256" viewBox="0 0 256 256" fill="none" xmlns="http://www.w3.org/2000/svg">
<circle cx="128" cy="128" r="128" fill="white"/>
<path d="M128 0C57.3154 0 0 57.3973 0 128.183C0 176.122 26.2642 217.885 65.1644 239.868C104.151 226.782 114.415 192.62 117.089 176.252C117.606 172.883 117.908 169.816 118.038 167.268C118.21 164.677 118.21 162.561 118.167 161.092H118.081L120.237 157.119L112.776 157.162L106.437 137.08L105.747 157.205L85.434 169.471L85.3046 150.166L103.547 120.582C104.41 61.8889 127.828 49.8825 127.957 49.7961C128.043 49.8825 151.461 61.8889 152.367 120.582L170.609 150.166L170.48 169.471L150.167 157.205L149.477 137.08L143.181 157.119L135.72 157.076L137.876 161.049H137.79C137.747 162.518 137.79 164.634 137.919 167.225C138.049 169.773 138.35 172.84 138.868 176.208C141.542 192.577 151.806 226.739 190.836 239.868C229.736 217.885 256 176.122 256 128.183C256 57.3973 198.685 0 128 0Z" fill="url(#paint0_linear_10_63)"/>
<path d="M234.135 129.219C234.135 70.5265 186.609 22.9762 128.043 22.9762C69.434 22.9762 21.9515 70.5697 21.9515 129.219C21.9515 173.747 49.337 211.882 88.151 227.689C108.636 211.752 115.148 188.776 117.175 176.208C117.693 172.84 117.995 169.773 118.124 167.225C118.297 164.634 118.297 162.518 118.253 161.049H118.167L120.324 157.076L112.863 157.119L106.523 136.993L105.833 157.119L85.5203 169.385L85.3909 150.079L103.633 120.495C104.496 61.8025 127.914 49.7961 128.043 49.7098C128.129 49.7961 151.547 61.8025 152.453 120.495L170.695 150.079L170.566 169.385L150.253 157.119L149.563 136.993L143.224 157.076L135.763 157.033L137.919 161.006H137.833C137.79 162.474 137.833 164.591 137.962 167.182C138.092 169.73 138.394 172.796 138.911 176.165C140.981 188.69 147.493 211.666 167.935 227.646C206.749 211.882 234.135 173.747 234.135 129.219V129.219Z" fill="url(#paint1_linear_10_63)"/>
<path d="M52.3126 145.156C48.7762 145.156 45.4124 146.063 42.4797 147.618C39.159 144.422 34.6738 142.478 29.7574 142.478C19.5795 142.478 11.3423 150.727 11.3423 160.92C11.3423 171.112 19.5795 179.361 29.7574 179.361C31.655 179.361 33.4663 179.059 35.1913 178.541C39.0296 183.896 45.283 187.394 52.3558 187.394C64 187.394 73.4447 177.936 73.4447 166.275C73.4016 154.614 63.9568 145.156 52.3126 145.156V145.156Z" fill="url(#paint2_linear_10_63)"/>
<path d="M71.7628 225.011C87.5781 225.011 100.399 212.172 100.399 196.334C100.399 180.496 87.5781 167.657 71.7628 167.657C55.9475 167.657 43.1267 180.496 43.1267 196.334C43.1267 212.172 55.9475 225.011 71.7628 225.011Z" fill="url(#paint3_linear_10_63)"/>
<path d="M84.7008 197.414C80 193.7 74.0485 191.454 67.5795 191.454C65.2076 191.454 62.8787 191.756 60.6793 192.318C60.7224 191.54 60.7655 190.763 60.7655 189.985C60.7655 169.428 44.1618 152.8 23.6335 152.8C16.2588 152.8 9.40166 154.96 3.62268 158.674C12.1186 193.484 34.7601 222.722 65.1645 239.868C96.9488 229.2 109.671 204.497 114.717 186.876C112 185.883 109.111 185.321 106.049 185.321C96.9919 185.321 89.0566 190.201 84.7008 197.414V197.414Z" fill="url(#paint4_linear_10_63)"/>
<path d="M65.1645 239.868C78.7494 235.29 88.841 228.164 96.3451 220.131C92.5931 220.045 88.7117 220.779 85.0459 222.334C82.8464 223.284 80.8626 224.45 79.0513 225.832C78.7925 225.098 78.5338 224.363 78.1887 223.629C70.1672 204.713 48.3882 195.902 29.4987 203.935C28.2912 204.454 27.1699 205.015 26.0486 205.62C36.6146 219.569 49.8976 231.23 65.1645 239.868V239.868Z" fill="url(#paint5_linear_10_63)"/>
<path d="M203.17 145.156C206.706 145.156 210.07 146.063 213.003 147.618C216.323 144.422 220.809 142.478 225.725 142.478C235.903 142.478 244.14 150.727 244.14 160.92C244.14 171.112 235.903 179.361 225.725 179.361C223.827 179.361 222.016 179.059 220.291 178.541C216.453 183.896 210.199 187.394 203.127 187.394C191.482 187.394 182.038 177.936 182.038 166.275C182.081 154.614 191.526 145.156 203.17 145.156V145.156Z" fill="url(#paint6_linear_10_63)"/>
<path d="M183.72 225.011C199.535 225.011 212.356 212.172 212.356 196.334C212.356 180.496 199.535 167.657 183.72 167.657C167.904 167.657 155.084 180.496 155.084 196.334C155.084 212.172 167.904 225.011 183.72 225.011Z" fill="url(#paint7_linear_10_63)"/>
<path d="M171.385 197.414C176.086 193.7 182.038 191.454 188.507 191.454C190.879 191.454 193.208 191.756 195.407 192.318C195.364 191.54 195.321 190.763 195.321 189.985C195.321 169.428 211.925 152.8 232.453 152.8C239.827 152.8 246.685 154.96 252.464 158.674C243.968 193.484 221.326 222.722 190.922 239.868C159.137 229.2 146.415 204.497 141.369 186.876C144.086 185.883 146.976 185.321 150.038 185.321C159.094 185.321 167.03 190.201 171.385 197.414V197.414Z" fill="url(#paint8_linear_10_63)"/>
<path d="M190.922 239.868C177.337 235.29 167.245 228.164 159.741 220.131C163.493 220.045 167.375 220.779 171.04 222.334C173.24 223.284 175.224 224.45 177.035 225.832C177.294 225.098 177.553 224.363 177.898 223.629C185.919 204.713 207.698 195.902 226.588 203.935C227.795 204.454 228.916 205.015 230.038 205.62C219.515 219.569 206.189 231.23 190.922 239.868V239.868Z" fill="url(#paint9_linear_10_63)"/>
<path d="M128 112.03C134.645 112.03 140.032 106.636 140.032 99.9809C140.032 93.3262 134.645 87.9314 128 87.9314C121.355 87.9314 115.968 93.3262 115.968 99.9809C115.968 106.636 121.355 112.03 128 112.03Z" fill="url(#paint10_linear_10_63)"/>
<path d="M183.72 123.778C196.844 123.778 207.483 113.124 207.483 99.981C207.483 86.8384 196.844 76.1842 183.72 76.1842C170.596 76.1842 159.957 86.8384 159.957 99.981C159.957 113.124 170.596 123.778 183.72 123.778Z" fill="url(#paint11_linear_10_63)"/>
<path d="M68.8733 138.937C77.2096 138.937 83.9676 132.169 83.9676 123.821C83.9676 115.473 77.2096 108.705 68.8733 108.705C60.5369 108.705 53.7789 115.473 53.7789 123.821C53.7789 132.169 60.5369 138.937 68.8733 138.937Z" fill="url(#paint12_linear_10_63)"/>
<path d="M165.218 63.8323C179.152 63.8323 190.447 52.5207 190.447 38.5672C190.447 24.6136 179.152 13.302 165.218 13.302C151.285 13.302 139.989 24.6136 139.989 38.5672C139.989 52.5207 151.285 63.8323 165.218 63.8323Z" fill="url(#paint13_linear_10_63)"/>
<path d="M128 87.9746C121.358 87.9746 115.968 93.3732 115.968 100.024C115.968 106.675 121.358 112.074 128 112.074V87.9746Z" fill="url(#paint14_linear_10_63)"/>
<path d="M80.5176 68.799L90.0054 69.5332L80.5176 70.2674L79.7844 79.812L79.0513 70.2674L69.5203 69.5332L79.0513 68.799L79.7844 59.2544L80.5176 68.799Z" fill="white"/>
<path d="M197.908 48.7596L211.019 49.7529L197.908 50.7463L196.916 63.8755L195.924 50.7463L182.814 49.7529L195.924 48.7596L196.916 35.6304L197.908 48.7596Z" fill="white"/>
<path d="M222.102 117.775L228.658 118.25L222.102 118.768L221.585 125.333L221.111 118.768L214.555 118.25L221.111 117.775L221.585 111.21L222.102 117.775Z" fill="white"/>
<path d="M36.5715 171.501L43.1267 172.019L36.5715 172.494L36.0971 179.059L35.5795 172.494L29.0243 172.019L35.5795 171.501L36.0971 164.936L36.5715 171.501Z" fill="white"/>
<path d="M15.3531 89.9181L21.9083 90.3932L15.3531 90.9115L14.8787 97.4761L14.3612 90.9115L7.80591 90.3932L14.3612 89.9181L14.8787 83.3535L15.3531 89.9181Z" fill="white"/>
<path d="M72.841 123.259L79.7844 123.821L72.841 124.339L72.3235 131.249L71.8059 124.339L64.8625 123.821L71.8059 123.259L72.3235 116.349L72.841 123.259Z" fill="white"/>
<path d="M107.558 23.5376L120.625 24.531L107.558 25.5243L106.566 38.5672L105.574 25.5243L92.5499 24.531L105.574 23.5376L106.566 10.4948L107.558 23.5376Z" fill="white"/>
<path d="M226.113 175.301L238.016 176.208L226.113 177.115L225.208 189.078L224.259 177.115L212.356 176.208L224.259 175.301L225.208 163.381L226.113 175.301Z" fill="white"/>
<defs>
<linearGradient id="paint0_linear_10_63" x1="127.996" y1="-3.90897" x2="127.996" y2="175.472" gradientUnits="userSpaceOnUse">
<stop stop-color="#77A4F9"/>
<stop offset="1" stop-color="#6836EF"/>
</linearGradient>
<linearGradient id="paint1_linear_10_63" x1="128.031" y1="134.591" x2="128.031" y2="24.4146" gradientUnits="userSpaceOnUse">
<stop stop-color="#77A4F9" stop-opacity="0"/>
<stop offset="1" stop-color="#77ABF7"/>
</linearGradient>
<linearGradient id="paint2_linear_10_63" x1="42.3389" y1="135.249" x2="42.3389" y2="172.119" gradientUnits="userSpaceOnUse">
<stop stop-color="#C0A6EF"/>
<stop offset="1" stop-color="#716FF4"/>
</linearGradient>
<linearGradient id="paint3_linear_10_63" x1="78.714" y1="171.014" x2="72.9481" y2="192.002" gradientUnits="userSpaceOnUse">
<stop stop-color="#C0A6EF"/>
<stop offset="1" stop-color="#716FF4"/>
</linearGradient>
<linearGradient id="paint4_linear_10_63" x1="60.2591" y1="169.005" x2="49.0996" y2="208.007" gradientUnits="userSpaceOnUse">
<stop stop-color="#C0A6EF"/>
<stop offset="1" stop-color="#716FF4"/>
</linearGradient>
<linearGradient id="paint5_linear_10_63" x1="62.242" y1="205.075" x2="57.5915" y2="239.998" gradientUnits="userSpaceOnUse">
<stop stop-color="#C0A6EF"/>
<stop offset="1" stop-color="#716FF4"/>
</linearGradient>
<linearGradient id="paint6_linear_10_63" x1="213.144" y1="135.249" x2="213.144" y2="172.119" gradientUnits="userSpaceOnUse">
<stop stop-color="#C0A6EF"/>
<stop offset="1" stop-color="#716FF4"/>
</linearGradient>
<linearGradient id="paint7_linear_10_63" x1="176.77" y1="171.014" x2="182.535" y2="192.002" gradientUnits="userSpaceOnUse">
<stop stop-color="#C0A6EF"/>
<stop offset="1" stop-color="#716FF4"/>
</linearGradient>
<linearGradient id="paint8_linear_10_63" x1="195.85" y1="169.005" x2="207.01" y2="208.007" gradientUnits="userSpaceOnUse">
<stop stop-color="#C0A6EF"/>
<stop offset="1" stop-color="#716FF4"/>
</linearGradient>
<linearGradient id="paint9_linear_10_63" x1="193.867" y1="205.075" x2="198.518" y2="239.998" gradientUnits="userSpaceOnUse">
<stop stop-color="#C0A6EF"/>
<stop offset="1" stop-color="#716FF4"/>
</linearGradient>
<linearGradient id="paint10_linear_10_63" x1="100.82" y1="72.7755" x2="140.345" y2="112.245" gradientUnits="userSpaceOnUse">
<stop stop-color="#77A4F9"/>
<stop offset="1" stop-color="#716FF4"/>
</linearGradient>
<linearGradient id="paint11_linear_10_63" x1="186.885" y1="113.024" x2="178.236" y2="77.6412" gradientUnits="userSpaceOnUse">
<stop stop-color="#77A4F9" stop-opacity="0"/>
<stop offset="1" stop-color="#77ABF7"/>
</linearGradient>
<linearGradient id="paint12_linear_10_63" x1="70.8976" y1="132.076" x2="65.4112" y2="109.632" gradientUnits="userSpaceOnUse">
<stop stop-color="#77A4F9" stop-opacity="0"/>
<stop offset="1" stop-color="#77ABF7"/>
</linearGradient>
<linearGradient id="paint13_linear_10_63" x1="168.583" y1="52.3819" x2="159.416" y2="14.8795" gradientUnits="userSpaceOnUse">
<stop stop-color="#77A4F9" stop-opacity="0"/>
<stop offset="1" stop-color="#77ABF7"/>
</linearGradient>
<linearGradient id="paint14_linear_10_63" x1="99.5761" y1="74.0211" x2="139.102" y2="113.49" gradientUnits="userSpaceOnUse">
<stop stop-color="#77A4F9" stop-opacity="0"/>
<stop offset="1" stop-color="#77ABF7"/>
</linearGradient>
</defs>
</svg>
