<svg width="256" height="256" viewBox="0 0 256 256" fill="none" xmlns="http://www.w3.org/2000/svg">
<circle cx="128" cy="128" r="128" fill="white"/>
<path d="M132.089 20.1126C133.322 21.3785 135.4 23.7157 136.665 25.3062C138.873 28.1302 139.035 28.2601 142.249 29.7857L145.527 31.3438L144.294 29.7857C143.612 28.9417 141.762 26.7669 140.171 24.9491C137.412 21.7356 137.185 21.5408 133.549 19.6906L129.816 17.7755L132.089 20.1126Z" fill="#002559"/>
<path d="M115.858 22.8412C114.332 23.6851 112.742 24.594 112.32 24.8861L111.605 25.373L113.65 28.4567C114.754 30.1447 115.793 31.6378 115.923 31.7677C116.052 31.93 117.935 31.1509 120.142 30.0473C122.999 28.619 124.005 27.9698 123.778 27.6777C123.031 26.7039 118.747 21.2831 118.714 21.2831C118.682 21.2831 117.416 21.9972 115.858 22.8412Z" fill="#002559"/>
<path d="M106.381 28.7468C101.706 31.9928 101.901 31.4085 104.076 35.044L105.959 38.1602L106.965 37.511C107.517 37.1539 109.399 36.0178 111.12 35.0115C114.723 32.9016 114.626 33.5184 111.834 29.1363C110.86 27.6756 109.984 26.4746 109.854 26.4746C109.692 26.507 108.134 27.5133 106.381 28.7468Z" fill="#002559"/>
<path d="M121.507 32.6461L117.547 34.5612L119.559 37.9046C120.663 39.7548 121.604 41.3129 121.637 41.3778C121.767 41.5401 130.498 37.7098 130.531 37.5151C130.531 37.158 126.149 30.8932 125.824 30.7958C125.662 30.7309 123.714 31.5749 121.507 32.6461Z" fill="#002559"/>
<path d="M153.934 32.5119C154.226 32.8365 155.232 34.07 156.174 35.2385C158.121 37.6406 158.056 37.5756 161.432 39.3934C163.769 40.6269 163.932 40.6593 163.412 39.9128C163.12 39.4583 161.335 37.9002 159.452 36.4395C154.648 32.7066 153.317 31.7653 153.934 32.5119Z" fill="#002559"/>
<path d="M98.1364 34.949C96.8055 35.9877 95.215 37.3185 94.5982 37.8704L93.4297 38.8766L94.9228 41.6682C95.7343 43.2262 96.4809 44.4922 96.5458 44.4922C96.6432 44.4922 101.739 40.9865 104.206 39.2661C104.336 39.1688 101.025 33.3584 100.733 33.1637C100.603 33.0987 99.4348 33.8778 98.1364 34.949Z" fill="#002559"/>
<path d="M111.866 37.9027C109.724 39.1362 107.841 40.2723 107.679 40.4346C107.549 40.5645 108.198 42.155 109.172 43.9728L110.925 47.2188L111.898 46.6345C112.418 46.3099 114.398 45.2387 116.313 44.2649L119.754 42.4796L117.806 39.1038C116.735 37.2535 115.859 35.6955 115.826 35.663C115.794 35.663 114.008 36.6368 111.866 37.9027Z" fill="#002559"/>
<path d="M154.032 39.6882C154.811 40.7269 156.792 43.5509 158.415 45.9529L161.401 50.335L164.03 51.5361C165.458 52.2177 166.724 52.7695 166.789 52.7695C166.984 52.7695 163.154 47.2513 160.362 43.4535C158.285 40.662 157.96 40.3698 155.526 39.1363C154.097 38.4222 152.864 37.8379 152.766 37.8379C152.669 37.8379 153.253 38.6819 154.032 39.6882Z" fill="#002559"/>
<path d="M131.18 40.6602C126.246 42.6727 123.098 44.1334 123.26 44.3606C123.325 44.4904 123.649 44.5554 123.974 44.458C124.396 44.2957 124.428 44.3281 124.071 44.5878C123.714 44.8475 123.942 45.4967 125.337 48.0286C126.246 49.7814 127.123 51.1447 127.252 51.0798C127.382 51.0149 129.557 50.2034 132.089 49.2296L136.698 47.4767L135.757 45.8213C135.27 44.9124 134.264 43.2894 133.582 42.1858L132.316 40.2057L131.18 40.6602Z" fill="#002559"/>
<path d="M101.576 44.3604L97.8105 46.9572L99.2712 50.1058C100.083 51.8262 100.764 53.2869 100.829 53.3518C100.862 53.4167 102.225 52.6052 103.783 51.599C105.374 50.5927 107.224 49.4242 107.873 49.0022L109.074 48.2232L107.386 44.9772C106.445 43.1919 105.633 41.7636 105.536 41.7636C105.439 41.7636 103.686 42.9322 101.576 44.3604Z" fill="#002559"/>
<path d="M173.963 51.1784C175.521 53.3856 177.436 56.0798 178.15 57.1835C179.352 58.9363 179.838 59.3258 182.598 60.7865C184.318 61.6954 185.714 62.377 185.714 62.3121C185.714 62.2147 181.169 55.5929 179.124 52.8014C178.378 51.7626 177.404 50.6915 176.949 50.4318C176.495 50.1721 175.002 49.3606 173.606 48.5816L171.074 47.1858L173.963 51.1784Z" fill="#002559"/>
<path d="M80.6399 51.1462L77.6211 54.3922L78.3028 56.0802C78.6923 57.0215 79.0818 58.0602 79.1792 58.3848C79.2441 58.7094 79.4389 58.9366 79.5687 58.8717C79.7959 58.7743 85.6712 53.5483 86.0607 53.0614C86.2554 52.8342 84.1131 47.9002 83.8209 47.9002C83.7236 47.9002 82.2629 49.3609 80.6399 51.1462Z" fill="#002559"/>
<path d="M92.5519 51.0147C90.6692 52.5403 89.1111 53.9037 89.0462 54.066C88.9488 54.2932 91.0912 59.714 91.4482 60.2009C91.5456 60.3307 99.0439 54.7476 99.0439 54.5204C99.0439 54.2932 96.1874 48.2232 96.0575 48.2556C95.9926 48.2556 94.4345 49.4891 92.5519 51.0147Z" fill="#002559"/>
<path d="M154.096 51.0487C154.616 51.9252 156.044 54.4895 157.31 56.7617L159.582 60.949L163.412 62.5071L167.243 64.0977L166.204 62.2474C162.958 56.5669 160.978 53.2236 160.621 52.899C160.296 52.5744 156.206 50.6917 153.934 49.8153L153.188 49.5231L154.096 51.0487Z" fill="#002559"/>
<path d="M134.263 51.635C132.121 52.3815 129.914 53.2255 129.362 53.4527L128.355 53.9072L130.108 57.5102L131.894 61.1133L136.308 59.5877C138.743 58.7762 141.112 57.9971 141.534 57.8673C142.281 57.6725 142.281 57.6725 140.431 54.1668C139.424 52.2517 138.483 50.5638 138.353 50.4339C138.256 50.3366 136.406 50.8559 134.263 51.635Z" fill="#002559"/>
<path d="M106.251 53.2887C104.076 54.6195 102.291 55.853 102.291 56.0153C102.291 56.2425 104.79 62.0204 105.083 62.4424C105.18 62.5722 112.678 58.32 113.23 57.8331C113.522 57.5734 113.23 56.6645 112.029 54.1326C111.153 52.3149 110.406 50.8217 110.309 50.8217C110.244 50.8217 108.426 51.9254 106.251 53.2887Z" fill="#002559"/>
<path d="M121.377 56.9551L116.93 59.0975L118.52 62.5058C119.397 64.3884 120.241 65.9141 120.403 65.9141C120.533 65.9141 122.643 65.0376 125.045 63.9989L129.459 62.0513L127.869 58.643C126.992 56.7604 126.148 55.1049 126.051 55.0075C125.921 54.8777 123.811 55.7541 121.377 56.9551Z" fill="#002559"/>
<path d="M83.8544 58.5483L80.4785 61.697L81.5497 64.6184C82.134 66.2089 82.6533 67.6047 82.6858 67.6696C82.7507 67.7345 84.3737 66.4037 86.3213 64.7482L89.8919 61.697L89.2427 60.074C88.8856 59.1975 88.3014 57.7693 87.9118 56.9253L87.1977 55.3673L83.8544 58.5483Z" fill="#002559"/>
<path d="M73.2717 59.4563L70.3828 62.897L70.9671 64.8446C71.2917 65.8834 71.6812 66.8247 71.8111 66.9221C72.1357 67.1168 75.2193 63.5138 75.0895 63.0918C75.057 62.9295 75.122 62.8646 75.2843 62.962C75.4466 63.0593 76.1282 62.5724 76.7774 61.8908L78.0109 60.6248L77.2643 58.3202C76.8423 57.0542 76.4204 56.0155 76.323 56.0155C76.2256 56.0155 74.8298 57.5736 73.2717 59.4563Z" fill="#002559"/>
<path d="M96.2215 60.0743L92.5859 62.8334L93.8843 65.982C94.6309 67.7349 95.2477 69.1956 95.2801 69.228C95.3126 69.2929 97.1303 68.0595 99.2727 66.5338L103.2 63.7747L101.837 60.6586C101.09 58.9382 100.344 57.4775 100.182 57.4126C99.9868 57.3801 98.234 58.5811 96.2215 60.0743Z" fill="#002559"/>
<path d="M172.859 58.5454C172.924 58.6752 173.962 60.4605 175.196 62.5055C176.429 64.5505 177.793 66.9201 178.215 67.7316C178.929 69.0949 179.253 69.3221 181.98 70.4907L184.966 71.7891L183.863 69.8415C183.246 68.7378 181.785 66.3358 180.617 64.4531L178.507 61.0448L175.618 59.6815C174.027 58.9349 172.761 58.4156 172.859 58.5454Z" fill="#002559"/>
<path d="M114.138 60.6236C113.781 60.8183 111.866 61.8895 109.886 63.0256L106.25 65.103L107.711 68.4464C108.522 70.2642 109.204 71.7898 109.269 71.8547C109.301 71.8872 111.281 70.8809 113.618 69.615C117.254 67.6349 117.871 67.2129 117.676 66.6611C117.579 66.3365 116.897 64.746 116.15 63.1554C114.917 60.5262 114.722 60.299 114.138 60.6236Z" fill="#002559"/>
<path d="M138.063 62.1481C135.531 62.9921 133.356 63.7711 133.259 63.8685C133.161 63.9983 133.323 64.5502 133.648 65.1344C133.94 65.7512 134.882 68.0558 135.758 70.2956C136.764 72.8924 137.446 74.3206 137.738 74.2557C137.965 74.2232 140.53 73.4117 143.419 72.4704L148.677 70.7825L146.21 65.6538C144.522 62.213 143.581 60.5576 143.224 60.59C142.932 60.59 140.627 61.3042 138.063 62.1481Z" fill="#002559"/>
<path d="M182.207 63.4454C182.434 63.8025 182.694 64.0297 182.824 63.9323C182.954 63.8674 183.019 63.9973 182.986 64.2245C182.986 64.4192 184.122 66.5616 185.518 68.9636C188.342 73.6379 187.758 73.151 192.399 75.1635C193.373 75.5855 193.828 75.6828 193.73 75.4232C193.665 75.1959 193.438 75.0336 193.243 75.0661C193.049 75.131 192.951 74.9687 193.049 74.7415C193.114 74.5143 192.042 72.4368 190.647 70.1322L188.115 65.9124L185.193 64.3868C181.947 62.6664 181.655 62.569 182.207 63.4454Z" fill="#002559"/>
<path d="M88.4955 66.1415C87.262 67.2451 85.639 68.6409 84.9573 69.2576L83.6914 70.3937L84.795 73.5748C85.7688 76.3988 85.9636 76.7234 86.418 76.3664C86.7102 76.1392 88.3981 74.8083 90.1834 73.3476L93.4294 70.7183L92.1959 67.5373C91.5143 65.7844 90.8975 64.3237 90.8651 64.2913C90.8001 64.2264 89.7614 65.0703 88.4955 66.1415Z" fill="#002559"/>
<path d="M163.964 69.9099L166.463 75.3307L170.163 76.6941C172.208 77.4731 173.896 78.0898 173.961 78.0898C173.994 78.0898 173.896 77.8302 173.702 77.5056C173.539 77.2134 172.403 74.8114 171.17 72.2146L168.93 67.4754L166.69 66.599C165.457 66.0797 163.769 65.4305 162.957 65.1059L161.432 64.4891L163.964 69.9099Z" fill="#002559"/>
<path d="M126.083 66.6588C123.746 67.6651 121.733 68.6064 121.636 68.7038C121.474 68.8336 125.142 78.247 125.466 78.6365C125.531 78.7014 127.609 77.9873 130.108 77.046L134.653 75.3905L133.127 71.3006C131.407 66.7562 130.627 64.7761 130.465 64.8086C130.4 64.8086 128.453 65.6525 126.083 66.6588Z" fill="#002559"/>
<path d="M100.505 68.8663C98.5572 70.2296 96.8044 71.4306 96.6421 71.5929C96.4798 71.7552 96.8368 73.2808 97.5834 75.2609L98.8169 78.6367L102.712 76.1048C104.822 74.7091 106.705 73.5405 106.867 73.4756C107.159 73.3782 104.562 66.3993 104.238 66.4318C104.14 66.4318 102.485 67.5354 100.505 68.8663Z" fill="#002559"/>
<path d="M173.313 71.6603C174.092 73.3158 175.228 75.6853 175.812 76.9513L176.851 79.2235L179.708 80.2947C181.298 80.8465 182.629 81.3009 182.694 81.236C182.726 81.1711 181.655 78.8664 180.259 76.1073L177.76 71.1085L174.871 69.875C173.248 69.2258 171.95 68.674 171.917 68.674C171.885 68.674 172.534 70.0373 173.313 71.6603Z" fill="#002559"/>
<path d="M68.1761 74.9049C66.6505 76.7552 65.3196 78.4106 65.2222 78.5729C65.0924 78.7677 65.3196 80.2933 65.7091 81.9488L66.4232 85L69.6043 81.3645L72.7854 77.7614L72.0713 75.0672C71.6818 73.6066 71.2598 72.2108 71.1624 71.9836C71.0326 71.7239 69.9289 72.7951 68.1761 74.9049Z" fill="#002559"/>
<path d="M78.5946 75.3254L75.2188 78.7012L75.9978 81.3954C76.3873 82.8886 76.8417 84.2519 76.9391 84.4791C77.069 84.7063 78.4972 83.5702 80.6396 81.5577L84.1452 78.2468L83.0741 75.0657L82.0029 71.9171L78.5946 75.3254Z" fill="#002559"/>
<path d="M59.4417 78.283C57.202 81.7237 56.7475 82.6326 56.8124 83.5415C56.9423 85.5864 57.2993 85.7487 58.3056 84.1907C58.7925 83.4116 60.0584 81.6912 61.0647 80.3604L62.9149 77.9259L62.5579 76.0108L62.1683 74.0956L59.4417 78.283Z" fill="#002559"/>
<path d="M103.882 78.4776L99.8242 81.1069L101.35 85.3591C102.194 87.6962 103.005 89.5789 103.168 89.514C103.492 89.3842 111.185 85.1968 111.348 85.0345C111.51 84.9047 108.945 77.6986 108.329 76.5949C107.972 75.9133 107.842 75.9782 103.882 78.4776Z" fill="#002559"/>
<path d="M192.238 81.1046L194.737 86.0061L197.464 87.0773C198.924 87.6615 200.255 88.116 200.353 88.1484C200.677 88.1484 195.743 78.8 195.321 78.6377C195.127 78.5403 193.796 77.956 192.335 77.3393L189.738 76.2032L192.238 81.1046Z" fill="#002559"/>
<path d="M71.0624 83.1842C69.6991 84.7423 68.2709 86.4627 67.8813 86.9496L67.1348 87.8585L67.719 90.5202C68.4981 94.1882 68.563 94.2531 69.6666 92.9547C70.1535 92.3704 71.6142 90.7799 72.9126 89.4166L75.2822 86.9496L74.5032 83.8984C74.0487 82.2104 73.6592 80.7173 73.6268 80.5874C73.5943 80.4576 72.4257 81.6262 71.0624 83.1842Z" fill="#002559"/>
<path d="M62.4959 82.0464C61.9441 82.8255 60.6133 84.6432 59.5421 86.1039L57.627 88.7981L58.1139 91.8818C58.406 93.5697 58.6981 94.9655 58.7955 94.933C58.8929 94.933 60.2887 93.1477 61.8792 90.9729L64.8331 87.0128L64.1514 83.8317L63.5022 80.6507L62.4959 82.0464Z" fill="#002559"/>
<path d="M81.3221 84.3497L77.8164 87.7255L78.7577 90.9715L79.6991 94.25L82.9775 91.2961C84.7628 89.7056 86.4183 88.2124 86.6455 87.9852C87.0026 87.6606 86.9052 87.0439 86.0612 84.3822C85.5094 82.6293 84.9901 81.1362 84.9251 81.0713C84.8927 81.0063 83.2697 82.4995 81.3221 84.3497Z" fill="#002559"/>
<path d="M178.57 83.5718C178.894 84.3833 179.738 86.623 180.42 88.5382L181.654 92.0438L184.672 93.0501C186.328 93.6019 187.756 93.9914 187.821 93.9265C187.951 93.7967 184.445 84.8702 184.121 84.5131C184.023 84.3833 182.562 83.7666 180.939 83.1823L177.953 82.0786L178.57 83.5718Z" fill="#002559"/>
<path d="M94.3365 85.0963C89.3701 88.8617 89.7272 88.0826 91.1229 92.3998C91.7721 94.4448 92.3564 96.1976 92.4538 96.3599C92.5187 96.4898 93.1355 96.1976 93.7847 95.6783C94.4339 95.1589 96.2516 93.893 97.7772 92.8867L100.601 91.004L99.3029 87.0764C98.5887 84.9015 97.9071 83.0189 97.7772 82.889C97.6799 82.7592 96.1218 83.7654 94.3365 85.0963Z" fill="#002559"/>
<path d="M187.076 85.5547C187.141 85.717 187.985 87.8919 188.959 90.3913L190.744 94.9681L193.633 95.9419C195.224 96.4613 196.587 96.8508 196.685 96.7859C196.782 96.6561 196.295 95.3577 193.796 89.385L193.049 87.5348L189.998 86.4312C188.342 85.8144 187.012 85.4249 187.076 85.5547Z" fill="#002559"/>
<path d="M195.773 88.5725C195.773 88.6049 196.585 90.4551 197.559 92.6949C198.533 94.9346 199.344 96.9147 199.344 97.1419C199.344 97.6613 200.188 98.0832 202.785 98.8947C203.986 99.2518 205.122 99.6413 205.382 99.7387C205.609 99.8361 204.927 97.8885 203.856 95.3241C201.908 90.8447 201.843 90.7797 200.513 90.3253C199.798 90.0656 198.403 89.5463 197.494 89.1567C196.552 88.7997 195.773 88.5075 195.773 88.5725Z" fill="#002559"/>
<path d="M62.1687 94.0895L59.2148 98.0496L59.7342 101.036C59.9939 102.691 60.3185 104.055 60.4483 104.055C60.5782 104.055 61.1949 103.373 61.8116 102.497C62.4284 101.653 63.8242 99.8998 64.8629 98.6339L66.778 96.2643L66.1288 93.1806C65.8042 91.4927 65.4147 90.0969 65.3173 90.0969C65.2199 90.0969 63.7917 91.9147 62.1687 94.0895Z" fill="#002559"/>
<path d="M84.9255 92.7297C83.3025 94.1579 81.6471 95.6835 81.2251 96.0731L80.4785 96.8521L81.5172 100.617C82.1015 102.695 82.6858 104.383 82.8156 104.383C82.9455 104.383 83.2701 104.156 83.4973 103.831C83.757 103.539 85.38 102.143 87.1328 100.715C89.2102 99.0594 90.249 97.9882 90.1516 97.6961C90.0542 97.4364 89.5024 95.6511 88.9506 93.7359C88.3987 91.8208 87.9118 90.2303 87.8794 90.1978C87.8469 90.1653 86.5161 91.3014 84.9255 92.7297Z" fill="#002559"/>
<path d="M55.6774 91.6222C55.4827 91.9468 54.1843 93.9593 52.7885 96.1016L50.2891 99.9968L50.4838 101.782C50.6137 102.756 50.776 104.282 50.8733 105.126L51.0681 106.684L52.7885 103.924C53.7623 102.399 55.0931 100.321 55.7748 99.2827L57.0407 97.4L56.5214 94.219C56.1319 91.6222 55.9696 91.1677 55.6774 91.6222Z" fill="#002559"/>
<path d="M172.502 92.1098C172.599 92.337 173.216 94.6092 173.897 97.1411L175.131 101.75L178.702 102.724C180.682 103.276 182.402 103.73 182.499 103.73C182.662 103.73 181.785 100.257 180.454 95.6155L180.032 94.1548L176.462 92.9538C172.372 91.5904 172.307 91.5904 172.502 92.1098Z" fill="#002559"/>
<path d="M206.617 96.2982L208.597 100.81L210.155 101.329C211.031 101.622 211.81 101.784 211.875 101.687C211.973 101.589 211.064 99.6091 209.863 97.3044C207.72 93.2145 207.591 93.0197 206.162 92.4354L204.637 91.8187L206.617 96.2982Z" fill="#002559"/>
<path d="M191.75 97.9187C191.912 98.1784 192.626 100.353 193.373 102.755L194.704 107.105L197.69 107.884C199.313 108.338 200.741 108.598 200.806 108.533C200.904 108.436 200.287 106.391 199.475 103.956L197.95 99.5092L195.321 98.6977C193.892 98.2433 192.432 97.7888 192.075 97.6915C191.62 97.5292 191.555 97.5941 191.75 97.9187Z" fill="#002559"/>
<path d="M74.9263 102.366C73.0112 104.313 71.4531 106.034 71.4531 106.196C71.4531 106.358 71.8426 108.144 72.2971 110.156L73.141 113.824L76.809 110.124L80.5095 106.423L79.5357 102.885C79.0163 100.97 78.5619 99.2497 78.4969 99.0874C78.4645 98.9576 76.8415 100.418 74.9263 102.366Z" fill="#002559"/>
<path d="M64.9296 102.141C60.6124 107.497 60.8072 107.205 61.0993 108.73C61.2292 109.445 61.5213 110.905 61.7161 111.912L62.0731 113.762L64.7349 110.516C66.1956 108.698 67.7212 106.848 68.1107 106.361L68.8248 105.517L68.1756 102.595C67.8185 100.972 67.4939 99.5443 67.4615 99.382C67.3966 99.2197 66.2605 100.486 64.9296 102.141Z" fill="#002559"/>
<path d="M200.806 100.747C200.904 101.039 201.618 103.052 202.332 105.194C203.079 107.336 203.76 109.186 203.858 109.316C203.955 109.446 205.416 109.901 207.071 110.355C209.733 111.037 210.09 111.069 209.895 110.615C209.765 110.323 209.181 108.667 208.532 106.979C207.915 105.291 207.266 103.506 207.071 103.019C206.844 102.37 206.422 102.013 205.545 101.786C204.896 101.623 203.5 101.169 202.462 100.812C200.741 100.227 200.612 100.227 200.806 100.747Z" fill="#002559"/>
<path d="M46.4258 106.814C42.628 113.631 42.8227 113.014 43.0824 116.877L43.3096 120.285L45.5494 116.13C46.7828 113.858 48.1137 111.521 48.4708 110.904C49.1849 109.768 49.2823 107.756 48.7954 104.38L48.5681 102.919L46.4258 106.814Z" fill="#002559"/>
<path d="M175.811 105.157C175.876 105.547 176.071 106.553 176.265 107.462C176.46 108.338 176.785 110.286 176.98 111.746L177.337 114.376L181.297 115.317C183.439 115.836 185.257 116.226 185.322 116.193C185.452 116.129 183.504 106.618 183.374 106.488C183.309 106.455 181.556 106.001 179.479 105.482C175.746 104.54 175.681 104.508 175.811 105.157Z" fill="#002559"/>
<path d="M186.166 107.788C186.264 108.047 186.718 110.125 187.205 112.429C187.66 114.702 188.147 116.649 188.276 116.779C188.536 117.071 194.509 118.402 194.703 118.207C194.833 118.077 192.886 109.216 192.691 108.989C192.561 108.859 186.653 107.301 186.231 107.301C186.102 107.301 186.037 107.528 186.166 107.788Z" fill="#002559"/>
<path d="M195.58 110.286C195.677 110.708 196.164 112.785 196.651 114.927C197.138 117.07 197.527 118.855 197.56 118.888C197.625 119.05 203.987 120.283 204.084 120.186C204.247 120.024 201.942 111.389 201.682 111.162C201.487 110.967 196.067 109.572 195.58 109.572C195.482 109.572 195.45 109.896 195.58 110.286Z" fill="#002559"/>
<path d="M55.7756 114.604L52.627 119.278L53.0165 122.556L53.4385 125.867L54.8992 123.66C55.7107 122.426 57.2038 120.284 58.2425 118.888L60.1252 116.356L59.5409 113.143L58.9566 109.929L55.7756 114.604Z" fill="#002559"/>
<path d="M48.9262 113.889C48.6016 114.441 47.2707 116.907 45.9399 119.31L43.5703 123.692L43.7975 126.938L44.0248 130.184L44.9661 128.561C45.4855 127.652 46.9137 125.217 48.1147 123.075L50.3544 119.245L49.9325 116.031L49.5429 112.818L48.9262 113.889Z" fill="#002559"/>
<path d="M214.698 118.077C215.412 120.446 216.126 122.491 216.321 122.589C216.483 122.719 217.36 122.913 218.204 123.011C219.08 123.141 220.022 123.303 220.281 123.4C220.995 123.692 220.93 123.335 219.275 118.888L217.782 114.831L216.126 114.441C215.185 114.247 214.211 113.987 213.919 113.922C213.497 113.792 213.627 114.571 214.698 118.077Z" fill="#002559"/>
<path d="M177.759 118.465C177.889 119.212 178.084 121.386 178.181 123.366L178.408 126.905L182.726 127.781L187.043 128.625L186.816 126.353C186.686 125.087 186.426 122.88 186.231 121.451L185.842 118.855L181.719 118.011L177.564 117.134L177.759 118.465Z" fill="#002559"/>
<path d="M39.3176 120.348C35.0005 129.664 35.0978 129.34 35.0978 133.332C35.0978 135.312 35.1952 136.87 35.2926 136.773C35.39 136.643 36.7858 133.754 38.3763 130.281L41.2977 124.016L41.2003 120.673C41.1679 118.855 41.038 117.362 40.9082 117.362C40.8108 117.362 40.0967 118.725 39.3176 120.348Z" fill="#002559"/>
<path d="M58.0799 122.75C56.7491 124.698 55.2559 126.905 54.769 127.619L53.8926 128.982L54.4769 132.975L55.0936 137L56.8464 134.403C57.8202 132.975 59.3459 130.768 60.2547 129.534L61.9102 127.262L61.2285 123.237L60.5469 119.244L58.0799 122.75Z" fill="#002559"/>
<path d="M198.177 122.139C198.405 123.275 199.313 128.923 199.411 130.027C199.508 130.806 199.703 130.871 202.916 131.358C204.799 131.65 206.357 131.877 206.357 131.845C206.487 131.747 204.864 122.756 204.702 122.626C204.669 122.561 203.371 122.301 201.91 122.042C200.417 121.782 198.924 121.49 198.567 121.392C198.08 121.23 198.015 121.328 198.177 122.139Z" fill="#002559"/>
<path d="M207.461 123.338C207.461 123.532 207.688 124.571 207.915 125.642C208.175 126.713 208.532 128.661 208.759 129.927C208.954 131.225 209.246 132.296 209.344 132.296C209.473 132.329 210.967 132.524 212.655 132.751C214.342 133.011 215.771 133.173 215.803 133.14C215.868 133.108 215.154 129.829 214.083 125.058C213.953 124.506 213.628 124.117 213.174 124.052C208.987 123.24 207.461 123.045 207.461 123.338Z" fill="#002559"/>
<path d="M216.679 125.217C216.809 125.639 217.263 127.652 217.718 129.697C218.172 131.742 218.562 133.429 218.594 133.462C218.626 133.494 219.86 133.657 221.353 133.819C223.658 134.079 224.015 134.046 223.982 133.624C223.982 133.332 223.431 131.352 222.781 129.21L221.58 125.314L219.86 125.12C218.951 124.99 217.782 124.795 217.328 124.698C216.549 124.503 216.484 124.535 216.679 125.217Z" fill="#002559"/>
<path d="M178.248 134.57V139.407L179.319 139.602C179.871 139.699 181.981 140.056 183.929 140.381L187.499 140.965L187.597 139.634C187.661 138.887 187.629 136.68 187.499 134.733L187.272 131.129L183.02 130.415C180.65 130.026 178.638 129.701 178.508 129.701C178.345 129.701 178.248 131.876 178.248 134.57Z" fill="#002559"/>
<path d="M190.062 133.332C190.159 134.273 190.322 136.448 190.451 138.136C190.549 139.824 190.679 141.252 190.744 141.317C190.873 141.447 196.651 142.355 197.365 142.355C197.755 142.355 197.787 141.706 197.593 138.525C197.236 132.293 197.463 132.747 194.379 132.325C192.918 132.098 191.295 131.871 190.809 131.774L189.867 131.579L190.062 133.332Z" fill="#002559"/>
<path d="M50.1268 134.895C49.2179 136.42 47.7572 138.985 46.8484 140.575L45.2578 143.497L45.5175 145.606C45.6473 146.775 45.8746 148.56 45.9719 149.599L46.1667 151.449L49.5425 145.866L52.8859 140.251L52.3341 136.193L51.8147 132.136L50.1268 134.895Z" fill="#002559"/>
<path d="M199.8 133.623C199.897 133.883 200.124 135.96 200.319 138.297C200.514 140.602 200.741 142.582 200.839 142.647C201.033 142.842 207.59 143.621 207.753 143.458C207.882 143.361 207.298 137.648 206.909 135.181C206.746 133.98 206.746 133.98 204.734 133.785C203.663 133.655 202.072 133.493 201.196 133.363C199.962 133.233 199.702 133.266 199.8 133.623Z" fill="#002559"/>
<path d="M209.538 135.119C209.635 135.443 209.927 137.521 210.187 139.728C210.479 141.935 210.739 143.786 210.771 143.851C210.836 143.883 212.394 144.045 214.244 144.175L217.588 144.402L217.36 142.487C217.068 139.988 216.289 135.508 216.159 135.346C215.965 135.184 211.647 134.567 210.446 134.567C209.57 134.567 209.408 134.664 209.538 135.119Z" fill="#002559"/>
<path d="M40.8119 140.8C37.5659 147.844 35.7481 152.161 35.9104 152.389C35.9753 152.551 36.0727 153.882 36.1052 155.375L36.1701 158.102L36.7544 156.803C37.079 156.089 38.5397 153.005 40.0004 149.987L42.6621 144.468L42.5972 141.904C42.4673 137.814 42.2401 137.652 40.8119 140.8Z" fill="#002559"/>
<path d="M190.484 148.753C190.354 152.031 190.419 153.622 190.646 153.752C190.841 153.881 192.237 154.076 193.795 154.206C195.321 154.303 196.911 154.498 197.333 154.596L198.08 154.758L197.982 149.791L197.885 144.793L194.639 144.403C192.854 144.208 191.231 144.014 191.036 144.014C190.809 143.981 190.614 145.604 190.484 148.753Z" fill="#002559"/>
<path d="M63.5658 149.596L60.3848 154.205L63.2412 156.964C64.8318 158.49 66.7145 160.178 67.4286 160.762L68.727 161.801L71.3887 158.328C72.8494 156.412 74.4399 154.367 74.9268 153.783C75.4787 153.102 75.6734 152.615 75.4462 152.485C75.2514 152.355 73.3363 150.635 71.129 148.687C68.9542 146.707 67.0715 145.084 66.9741 145.051C66.8443 144.987 65.3187 147.031 63.5658 149.596Z" fill="#002559"/>
<path d="M200.678 150.02L200.71 154.922L203.145 155.149C204.508 155.246 206.261 155.344 207.04 155.344H208.468L208.241 150.702C208.144 148.17 207.949 146.028 207.884 145.93C207.786 145.833 206.131 145.606 204.216 145.443L200.678 145.119V150.02Z" fill="#002559"/>
<path d="M210.968 150.67C211.033 153.332 211.13 155.539 211.162 155.539C211.162 155.571 212.85 155.669 214.895 155.766L218.596 155.961L218.401 152.65C218.271 150.832 218.076 148.657 217.979 147.781L217.752 146.255H215.447C214.181 146.255 212.623 146.158 211.974 146.061L210.838 145.866L210.968 150.67Z" fill="#002559"/>
<path d="M220.803 148.721C220.965 149.955 221.16 152.097 221.257 153.46L221.484 155.992H225.022C227.457 155.992 228.561 155.862 228.561 155.635C228.561 155.181 227.23 147.098 227.132 147.001C227.1 146.968 225.607 146.838 223.821 146.709L220.543 146.481L220.803 148.721Z" fill="#002559"/>
<path d="M32.566 148.104C32.2089 149.24 31.5273 153.98 31.0728 158.102C30.9105 159.628 30.9755 159.563 32.1765 156.479C33.4749 153.266 33.4749 153.201 33.2801 150.149C33.1503 148.461 33.0529 147.033 32.988 146.968C32.9555 146.936 32.7608 147.455 32.566 148.104Z" fill="#002559"/>
<path d="M75.4452 157.581C71.0307 162.936 70.6412 163.521 71.1605 163.91C72.6861 165.046 78.6912 169.461 78.7561 169.461C78.7886 169.461 79.7949 168.13 81.0283 166.54C82.2618 164.917 83.7225 163.001 84.3393 162.287L85.4104 160.956L81.6775 157.808C79.6001 156.087 77.8797 154.692 77.8473 154.692C77.8148 154.692 76.7112 155.99 75.4452 157.581Z" fill="#002559"/>
<path d="M176.493 155.081C176.331 155.6 175 163.358 175 163.748C175 163.91 175.26 164.137 175.552 164.235C176.331 164.559 185.809 166.052 185.971 165.89C186.101 165.793 186.393 163.618 187.14 157.418L187.302 156.055L183.991 155.665C182.174 155.438 180.096 155.146 179.382 154.984C177.564 154.594 176.623 154.626 176.493 155.081Z" fill="#002559"/>
<path d="M189.933 157.807C189.933 158.683 189.705 160.923 189.446 162.805C189.219 164.656 189.024 166.214 189.056 166.246C189.219 166.408 196.782 167.09 196.912 166.96C197.074 166.798 197.723 159.916 197.723 158.228V157.06L195.061 156.833C193.568 156.703 191.815 156.541 191.166 156.411L189.933 156.216V157.807Z" fill="#002559"/>
<path d="M56.4241 160.535L54.2168 164.073L55.4827 165.209C56.1644 165.826 57.9822 167.384 59.5078 168.65L62.3318 170.922L64.604 167.611L66.9086 164.268L65.8375 163.326C65.2856 162.807 63.4679 161.184 61.8124 159.691C60.1894 158.198 58.7937 156.964 58.7287 156.964C58.6638 156.964 57.6251 158.555 56.4241 160.535Z" fill="#002559"/>
<path d="M210.967 162.807L210.869 167.676H214.862H218.822V162.807V157.938H214.959H211.064L210.967 162.807Z" fill="#002559"/>
<path d="M221.548 159.626C221.645 160.567 221.742 162.774 221.742 164.495V167.676H224.144C225.443 167.676 227.228 167.578 228.072 167.449L229.63 167.254L229.403 163.813C229.305 161.93 229.111 159.82 229.013 159.139L228.786 157.938H225.053H221.32L221.548 159.626Z" fill="#002559"/>
<path d="M66.6172 169.136L64.3125 172.48L68.2077 175.206C70.3501 176.667 72.2327 177.933 72.395 177.998C72.817 178.128 77.1017 171.863 76.7771 171.603C76.6148 171.474 74.7971 170.11 72.6872 168.552L68.9218 165.793L66.6172 169.136Z" fill="#002559"/>
<path d="M50.7105 170.238C49.6393 172.251 48.7305 174.004 48.7305 174.166C48.7305 174.328 50.4833 175.789 52.5932 177.379L56.4559 180.301L58.5334 176.99C59.6695 175.172 60.5784 173.582 60.5784 173.484C60.5784 173.354 59.3449 172.283 57.8193 171.082C56.2936 169.849 54.5408 168.388 53.8916 167.771L52.6906 166.635L50.7105 170.238Z" fill="#002559"/>
<path d="M173.866 169.528C173.541 170.924 172.99 173.52 172.568 175.306L171.854 178.552L175.457 178.941C177.437 179.136 180.033 179.331 181.202 179.331L183.377 179.363L183.896 176.994C184.87 172.612 185.649 168.814 185.617 168.749C185.584 168.749 183.377 168.392 180.683 168.002C178.021 167.645 175.489 167.256 175.1 167.158C174.483 166.996 174.353 167.191 173.866 169.528Z" fill="#002559"/>
<path d="M33.8965 168.327C33.7017 168.782 32.7929 171.216 31.884 173.781L30.2285 178.455V182.869L30.261 187.316L31.9814 182.285C32.9552 179.526 33.9939 176.637 34.286 175.89C34.7729 174.722 34.8054 174.073 34.5457 171.022C34.286 168.068 34.1886 167.646 33.8965 168.327Z" fill="#002559"/>
<path d="M188.602 169.205C188.602 169.367 188.115 171.769 187.563 174.561L186.492 179.689L187.823 179.722C188.537 179.754 190.42 179.787 192.043 179.819L194.932 179.852L195.678 175.632C196.068 173.295 196.457 171.022 196.555 170.536C196.717 169.724 196.652 169.659 195.354 169.497C192.367 169.14 188.635 168.977 188.602 169.205Z" fill="#002559"/>
<path d="M227.228 169.427C227.131 169.525 225.897 169.622 224.437 169.655L221.775 169.72L221.613 171.375C221.223 175.14 221.126 178.711 221.418 178.711C222.197 178.711 228.494 177.64 229.143 177.38C229.825 177.12 229.858 176.958 229.858 173.193V169.298H228.624C227.942 169.298 227.293 169.362 227.228 169.427Z" fill="#002559"/>
<path d="M199.541 170.662C199.443 171.246 199.151 173.194 198.859 174.979C198.599 176.765 198.275 178.647 198.177 179.134L197.982 180.043L202.235 179.978C204.572 179.946 206.487 179.881 206.487 179.881C206.617 179.231 207.72 170.11 207.688 170.078C207.655 170.045 205.838 169.948 203.663 169.818L199.703 169.591L199.541 170.662Z" fill="#002559"/>
<path d="M94.5971 173.616C91.0914 177.868 90.8967 177.187 96.5122 180.043L100.31 181.926L103.231 178.485L106.12 175.012L101.966 172.48C99.6609 171.084 97.7133 169.948 97.6808 169.981C97.6159 169.981 96.2201 171.604 94.5971 173.616Z" fill="#002559"/>
<path d="M210.705 170.239C210.705 170.401 210.478 172.544 210.218 174.978C209.926 177.445 209.764 179.523 209.829 179.587C209.991 179.75 217.879 179.101 218.073 178.938C218.138 178.841 218.301 176.796 218.398 174.361L218.593 169.947H214.665C212.49 169.947 210.705 170.077 210.705 170.239Z" fill="#002559"/>
<path d="M76.8415 176.312C75.6405 178 74.6667 179.461 74.7316 179.525C75.1536 179.947 82.944 184.232 83.1387 184.167C83.2686 184.102 84.3397 182.804 85.5083 181.246L87.6182 178.422L83.5282 175.89C81.2885 174.494 79.3409 173.326 79.2435 173.293C79.1461 173.261 78.075 174.624 76.8415 176.312Z" fill="#002559"/>
<path d="M105.406 179.719C103.848 181.505 102.582 182.998 102.647 183.063C102.907 183.257 110.6 186.439 111.216 186.601C111.736 186.731 112.45 186.114 114.56 183.744C117.254 180.726 117.514 180.336 116.864 180.336C116.67 180.336 114.754 179.46 112.58 178.388C110.405 177.317 108.522 176.441 108.457 176.441C108.36 176.441 106.997 177.934 105.406 179.719Z" fill="#002559"/>
<path d="M45.5496 180.239C43.1151 185.075 42.9528 184.426 47.27 187.315C49.3474 188.678 51.1002 189.75 51.1327 189.685C51.9117 188.711 54.8981 182.803 54.7033 182.641C54.541 182.479 52.9505 181.31 51.1652 180.012C49.3799 178.713 47.7569 177.512 47.5296 177.35C47.2375 177.123 46.6857 177.902 45.5496 180.239Z" fill="#002559"/>
<path d="M87.5869 182.413C86.3859 183.906 85.4121 185.237 85.4121 185.334C85.4121 185.529 89.5345 187.671 92.3585 188.905L94.0789 189.684L96.1564 187.022C97.2925 185.594 98.2338 184.295 98.2338 184.198C98.2338 184.003 90.1513 179.686 89.8267 179.686C89.7617 179.686 88.7555 180.919 87.5869 182.413Z" fill="#002559"/>
<path d="M116.962 184.622C115.469 186.245 114.365 187.673 114.528 187.803C114.657 187.966 116.767 188.745 119.169 189.524L123.551 190.984L126.213 188.193C127.674 186.635 128.777 185.271 128.648 185.174C128.518 185.044 127.187 184.525 125.661 183.973C124.136 183.454 122.188 182.675 121.344 182.318C120.468 181.928 119.754 181.636 119.721 181.668C119.689 181.701 118.423 183.032 116.962 184.622Z" fill="#002559"/>
<path d="M70.7723 184.946L68.7598 187.933L69.5063 188.42C69.9283 188.712 71.8435 189.783 73.7586 190.789L77.2318 192.672L79.2119 189.88C80.3155 188.355 81.2244 186.991 81.2893 186.829C81.3542 186.537 73.6288 181.96 73.0769 181.96C72.9146 181.96 71.8759 183.291 70.7723 184.946Z" fill="#002559"/>
<path d="M54.8992 187.349C53.9254 189.069 53.0814 190.562 53.0165 190.725C52.9191 190.984 60.7745 195.594 61.2938 195.594C61.6509 195.594 65.3513 189.297 65.0592 189.199C64.9293 189.134 63.0791 187.998 60.9692 186.667C58.8269 185.336 57.0091 184.233 56.9117 184.233C56.7819 184.233 55.873 185.629 54.8992 187.349Z" fill="#002559"/>
<path d="M128.94 188.905L126.246 191.632L127.966 192.119C130.563 192.898 135.173 193.969 135.789 193.969C136.081 193.969 136.536 193.774 136.763 193.547C137.023 193.352 138.256 192.183 139.522 190.982L141.827 188.775L140.464 188.451C139.749 188.256 137.575 187.672 135.692 187.152C133.809 186.6 132.121 186.178 131.959 186.178C131.797 186.178 130.433 187.412 128.94 188.905Z" fill="#002559"/>
<path d="M41.5592 189.036C41.1697 189.879 40.4556 191.697 39.9687 193.061L39.0273 195.56L40.553 196.534C41.3969 197.053 42.955 197.994 44.0586 198.611L46.0387 199.715L47.8565 196.079L49.6742 192.411L45.9413 189.944L42.2084 187.51L41.5592 189.036Z" fill="#002559"/>
<path d="M81.3543 190.625C79.504 193.125 79.3417 193.514 79.8286 193.774C80.9647 194.423 87.4567 197.215 87.8138 197.215C88.2033 197.215 92.3582 192.054 92.1634 191.826C92.0011 191.664 83.7888 187.801 83.594 187.801C83.5291 187.801 82.5228 189.067 81.3543 190.625Z" fill="#002559"/>
<path d="M223.691 189.783C222.36 190.108 219.504 190.66 217.361 190.984C213.499 191.569 213.434 191.601 210.772 193.484C209.311 194.522 208.143 195.431 208.208 195.496C208.337 195.594 218.887 193.776 219.796 193.484C220.478 193.256 226.84 189.102 226.45 189.134C226.288 189.167 225.022 189.459 223.691 189.783Z" fill="#002559"/>
<path d="M109.821 192.315L107.484 194.912L111.282 196.081C113.392 196.73 115.502 197.379 115.956 197.541C116.735 197.768 117.06 197.574 119.365 195.237C120.761 193.808 121.702 192.672 121.41 192.672C121.02 192.672 114.496 190.627 112.678 189.913C112.321 189.783 111.412 190.562 109.821 192.315Z" fill="#002559"/>
<path d="M65.1542 193.515C64.1155 195.203 63.304 196.663 63.3689 196.696C63.5961 196.891 70.2179 200.169 70.997 200.461C71.7111 200.753 71.9383 200.526 73.7561 197.832C74.8272 196.209 75.6712 194.846 75.6063 194.781C75.5414 194.716 67.8159 190.756 67.2316 190.496C67.1342 190.431 66.2254 191.794 65.1542 193.515Z" fill="#002559"/>
<path d="M156.076 194.264L152.928 196.828L154.161 197.023C154.81 197.121 157.44 197.348 160.004 197.543L164.646 197.867L167.794 195.368C170.489 193.193 170.813 192.836 170.132 192.771C165.685 192.446 160.134 191.959 159.744 191.83C159.452 191.765 157.862 192.836 156.076 194.264Z" fill="#002559"/>
<path d="M93.9464 193.255C93.7517 193.579 92.7779 194.813 91.7716 195.982L89.9863 198.124L90.8627 198.481C91.3496 198.676 93.3946 199.39 95.4071 200.104L99.0427 201.402L101.153 198.903C102.321 197.54 103.262 196.339 103.262 196.241C103.262 196.144 101.315 195.332 98.9777 194.456C96.6082 193.547 94.5956 192.8 94.4983 192.736C94.4009 192.703 94.1737 192.93 93.9464 193.255Z" fill="#002559"/>
<path d="M171.851 195.363C170.228 196.662 168.767 197.83 168.638 197.96C168.475 198.09 171.299 198.188 174.87 198.188L181.394 198.123L184.738 195.721L188.081 193.319H183.407C180.842 193.286 177.856 193.221 176.785 193.156L174.837 193.026L171.851 195.363Z" fill="#002559"/>
<path d="M49.575 196.922C48.5363 198.902 47.7572 200.558 47.8221 200.623C47.8871 200.72 49.8347 201.629 52.1393 202.7C55.9371 204.453 56.3916 204.615 56.6513 204.096C56.8136 203.804 57.6575 202.343 58.5015 200.882L60.0271 198.188L57.0732 196.565C55.4178 195.689 53.5026 194.585 52.7885 194.163L51.4577 193.352L49.575 196.922Z" fill="#002559"/>
<path d="M75.5742 198.708C74.5031 200.233 73.724 201.532 73.7889 201.597C74.0162 201.856 82.261 205.005 82.3908 204.875C82.7154 204.583 86.3185 199.649 86.286 199.584C86.1237 199.454 77.8464 195.916 77.6841 195.916C77.5543 195.949 76.613 197.182 75.5742 198.708Z" fill="#002559"/>
<path d="M134.425 198.84L131.99 201.047L133.256 201.275C133.938 201.404 136.275 201.762 138.45 202.054L142.377 202.605L144.747 200.69C146.013 199.619 147.084 198.613 147.084 198.483C147.084 198.321 146.727 198.191 146.273 198.191C145.526 198.191 138.547 197.055 137.346 196.73C137.086 196.665 135.788 197.574 134.425 198.84Z" fill="#002559"/>
<path d="M103.491 199.388L101.316 201.888L102.193 202.245C102.712 202.472 104.757 203.056 106.77 203.543L110.438 204.484L112.742 202.18C114.333 200.589 114.917 199.778 114.593 199.68C114.365 199.615 112.418 198.999 110.34 198.382C108.23 197.733 106.348 197.116 106.12 197.051C105.861 196.954 104.757 197.927 103.491 199.388Z" fill="#002559"/>
<path d="M194.801 199.002C192.918 199.229 189.575 199.522 187.368 199.651L183.31 199.911L180.713 201.696L178.084 203.449L181.005 203.254C183.992 203.027 188.796 202.573 191.717 202.216C192.918 202.053 194.022 201.567 195.872 200.398C197.235 199.489 198.371 198.71 198.371 198.645C198.371 198.58 198.339 198.548 198.307 198.548C198.242 198.58 196.684 198.775 194.801 199.002Z" fill="#002559"/>
<path d="M148.058 200.853L145.656 202.898L147.539 203.093C148.578 203.223 151.11 203.418 153.219 203.547L156.985 203.742L159.484 201.827L161.984 199.912L157.699 199.522C155.329 199.295 152.765 199.068 151.953 198.971C150.558 198.808 150.395 198.906 148.058 200.853Z" fill="#002559"/>
<path d="M60.9698 200.362C60.5478 201.044 59.7363 202.44 59.152 203.446L58.1133 205.329L59.0222 205.686C64.1184 207.698 66.7152 208.575 66.9749 208.315C67.267 208.023 70.1559 203.381 70.1559 203.219C70.1559 203.089 62.0734 199.161 61.8462 199.161C61.7813 199.161 61.3917 199.713 60.9698 200.362Z" fill="#002559"/>
<path d="M86.5462 202.605C85.6698 203.806 84.7934 204.975 84.6635 205.202C84.3714 205.721 84.4688 205.786 89.5325 207.377L93.1031 208.48L95.2455 205.981L97.3878 203.449L93.0057 201.956C90.6037 201.145 88.5263 200.463 88.3964 200.463C88.2666 200.463 87.4551 201.437 86.5462 202.605Z" fill="#002559"/>
<path d="M115.146 202.698C113.945 203.932 113.068 205.003 113.198 205.101C113.361 205.198 115.016 205.555 116.899 205.912C123.131 207.113 122.255 207.243 124.884 204.679L127.221 202.439L125.858 202.244C125.144 202.114 123.001 201.66 121.183 201.238C119.333 200.816 117.71 200.459 117.58 200.459C117.483 200.459 116.379 201.465 115.146 202.698Z" fill="#002559"/>
<path d="M198.794 202.895C196.522 203.252 195.711 203.576 193.341 205.004C191.816 205.946 190.582 206.79 190.582 206.855C190.582 207.374 194.023 206.141 202.105 202.732L202.755 202.44L202.105 202.473C201.748 202.473 200.255 202.667 198.794 202.895Z" fill="#002559"/>
<path d="M127.445 205.134C126.211 206.27 125.237 207.276 125.335 207.373C125.432 207.438 127.704 207.763 130.399 208.088L135.333 208.672L137.605 206.757C138.871 205.718 139.909 204.777 139.909 204.679C139.942 204.582 138.092 204.225 135.819 203.933C133.515 203.608 131.243 203.284 130.691 203.186C129.847 203.056 129.392 203.348 127.445 205.134Z" fill="#002559"/>
<path d="M155.395 207.699L152.766 209.582L159.03 209.517L165.295 209.452L167.632 207.829C168.931 206.953 170.067 206.109 170.229 206.011C170.359 205.882 167.665 205.784 164.224 205.784L157.992 205.817L155.395 207.699Z" fill="#002559"/>
<path d="M108.589 209.292C107.356 210.493 106.447 211.532 106.544 211.597C106.739 211.792 111.965 212.766 114.01 212.993L115.828 213.188L118.003 211.143C119.236 210.006 120.08 209.033 119.918 209C119.723 208.935 117.613 208.481 115.179 207.961L110.764 207.085L108.589 209.292Z" fill="#002559"/>
<path d="M80.933 210.101C79.8618 211.529 79.4398 212.373 79.6671 212.503C79.8943 212.6 81.8743 213.087 84.0816 213.607L88.1067 214.516L89.3726 213.087C91.6448 210.491 91.7746 210.718 87.0679 209.257C84.7633 208.511 82.8157 207.926 82.7183 207.926C82.6209 207.926 81.8094 208.9 80.933 210.101Z" fill="#002559"/>
<path d="M120.468 211.465L118.066 213.672L120.144 213.867C121.312 213.997 123.552 214.224 125.143 214.386L128.032 214.711L130.434 212.698C131.765 211.595 132.738 210.686 132.576 210.621C132.446 210.589 130.434 210.329 128.097 210.037C125.792 209.745 123.65 209.452 123.39 209.388C123.098 209.29 121.864 210.199 120.468 211.465Z" fill="#002559"/>
<path d="M179.513 210.002C179.449 210.1 176.462 210.392 172.892 210.716L166.4 211.268L163.803 212.891C160.33 215.099 160.297 215.131 162.342 214.904C163.316 214.806 166.497 214.514 169.418 214.222L174.709 213.735L177.696 211.917C181.266 209.775 181.104 209.872 180.292 209.872C179.935 209.872 179.578 209.937 179.513 210.002Z" fill="#002559"/>
<path d="M133.256 212.863C131.925 213.934 130.854 214.875 130.919 214.908C130.984 214.94 133.353 215.07 136.21 215.2L141.436 215.395L143.968 213.544L146.467 211.662L144.098 211.467C142.799 211.337 140.365 211.175 138.709 211.077L135.69 210.915L133.256 212.863Z" fill="#002559"/>
<path d="M91.7071 212.959C90.8631 213.965 90.2464 214.809 90.3113 214.874C90.5061 215.004 95.6672 215.978 97.6473 216.238L99.3352 216.465L100.796 214.874L102.224 213.284L97.9394 212.245C95.6023 211.661 93.5898 211.206 93.4599 211.174C93.3626 211.174 92.5511 211.985 91.7071 212.959Z" fill="#002559"/>
<path d="M147.572 213.317C146.144 214.323 144.911 215.232 144.813 215.297C144.716 215.395 147.345 215.395 150.656 215.33L156.661 215.2L159.42 213.35L162.179 211.499H156.174H150.169L147.572 213.317Z" fill="#002559"/>
<path d="M114.462 216.82L113.164 217.924L114.3 218.119C114.917 218.183 117.189 218.346 119.331 218.443L123.227 218.605L124.363 217.664L125.499 216.755L124.363 216.56C122.935 216.333 117.124 215.717 116.345 215.717C116.021 215.717 115.177 216.236 114.462 216.82Z" fill="#002559"/>
</svg>
