<svg width="256" height="256" viewBox="0 0 256 256" fill="none" xmlns="http://www.w3.org/2000/svg">
<path d="M128 243.226C191.638 243.226 243.226 191.638 243.226 128C243.226 64.3624 191.638 12.7739 128 12.7739C64.3624 12.7739 12.7739 64.3624 12.7739 128C12.7739 191.638 64.3624 243.226 128 243.226Z" fill="#F7931A"/>
<path d="M128 252.794C59.2036 252.794 3.20605 196.812 3.20605 128C3.20605 59.1885 59.2036 3.20605 128 3.20605C196.797 3.20605 252.794 59.2036 252.794 128C252.794 196.797 196.812 252.794 128 252.794ZM128 22.3418C69.7398 22.3418 22.3418 69.7398 22.3418 128C22.3418 186.26 69.7398 233.658 128 233.658C186.26 233.658 233.658 186.26 233.658 128C233.658 69.7398 186.26 22.3418 128 22.3418V22.3418Z" fill="#1BFED7"/>
<path d="M179.562 111.338C181.895 95.7842 170.03 87.4104 153.839 81.8262L159.097 60.7537L146.268 57.5527L141.15 78.0783C137.774 77.2404 134.312 76.4477 130.875 75.66L136.023 54.999L123.199 51.803L117.94 72.8754C115.146 72.2382 112.421 71.6111 109.747 70.9488V70.8836L92.0515 66.4634L88.6347 80.1705C88.6347 80.1705 98.1675 82.353 97.9517 82.4885C103.155 83.7829 104.093 87.2247 103.937 89.9491L97.9467 113.967C98.4002 114.08 98.846 114.223 99.2813 114.393L97.9266 114.057L89.5328 147.703C88.9006 149.278 87.2851 151.646 83.6576 150.748C83.778 150.934 74.3255 148.42 74.3255 148.42L67.9536 163.116L84.656 167.28C87.8018 168.078 90.8122 168.865 93.8225 169.633L88.5043 190.956L101.348 194.167L106.606 173.065C110.119 174.018 113.505 174.896 116.832 175.724L111.594 196.721L124.423 199.917L129.711 178.614C151.586 182.753 168.048 181.082 174.971 161.294C180.551 145.365 174.691 136.168 163.181 130.187C171.59 128.246 177.876 122.732 179.562 111.338ZM150.246 152.449C146.283 168.379 119.451 159.769 110.751 157.607L117.775 129.36C126.495 131.532 154.391 135.832 150.246 152.449ZM154.215 111.107C150.598 125.602 128.261 118.236 121.021 116.43L127.408 90.8121C134.653 92.6183 157.983 95.9849 154.215 111.107V111.107Z" fill="white"/>
</svg>
