<?xml version="1.0" standalone="no"?>
<!DOCTYPE svg PUBLIC "-//W3C//DTD SVG 20010904//EN"
 "http://www.w3.org/TR/2001/REC-SVG-20010904/DTD/svg10.dtd">
<svg version="1.0" xmlns="http://www.w3.org/2000/svg"
 width="683.000000pt" height="384.000000pt" viewBox="0 0 683.000000 384.000000"
 preserveAspectRatio="xMidYMid meet">

<g transform="translate(0.000000,384.000000) scale(0.100000,-0.100000)"
fill="#000000" stroke="none">
<path d="M0 2075 l0 -1765 48 0 c27 0 71 7 98 15 72 22 336 21 355 -1 11 -14
37 -15 203 -10 302 9 497 23 556 40 39 12 97 16 207 16 l153 0 0 1735 0 1735
-810 0 -810 0 0 -1765z"/>
<path d="M5110 2100 l0 -1740 348 1 c319 0 353 2 417 21 129 37 219 35 435
-12 128 -27 271 -39 403 -33 l117 6 0 1748 0 1749 -860 0 -860 0 0 -1740z"/>
<path d="M3310 3610 c-21 -21 -30 -51 -27 -90 2 -29 32 -35 32 -7 0 23 27 40
37 24 11 -17 10 -57 -1 -57 -6 0 -13 -20 -17 -45 -3 -25 -10 -45 -15 -45 -5 0
-9 -7 -9 -15 0 -8 -4 -15 -10 -15 -5 0 -10 -9 -10 -20 0 -11 -4 -20 -10 -20
-5 0 -10 -9 -10 -20 0 -11 -4 -20 -9 -20 -5 0 -12 -20 -15 -45 -4 -25 -11 -45
-17 -45 -5 0 -9 -7 -9 -15 0 -8 -7 -15 -15 -15 -8 0 -15 -9 -15 -20 0 -12 -12
-33 -27 -48 -24 -24 -34 -27 -90 -25 -57 1 -66 4 -92 32 -16 17 -34 31 -40 31
-6 0 -11 6 -11 14 0 12 -20 26 -36 26 -2 0 -4 -25 -4 -55 0 -30 5 -55 10 -55
6 0 10 -22 10 -50 0 -27 4 -50 9 -50 5 0 12 -47 16 -105 4 -58 11 -105 16
-105 5 0 9 -18 9 -40 0 -22 5 -40 10 -40 6 0 10 -27 10 -60 0 -33 4 -60 10
-60 6 0 10 -18 10 -40 0 -22 5 -40 10 -40 6 0 10 -24 10 -54 0 -62 -14 -73
-76 -61 -27 5 -34 11 -34 30 0 15 -7 26 -20 30 -11 3 -20 13 -20 21 0 8 -4 14
-10 14 -17 0 -50 34 -50 52 0 10 -4 18 -10 18 -5 0 -10 6 -10 13 0 12 -14 25
-49 47 -12 7 -13 11 -1 24 11 14 10 19 -2 34 -8 9 -18 24 -21 32 -4 8 -24 42
-44 75 -28 44 -46 62 -70 68 -42 12 -63 3 -63 -27 0 -29 17 -43 33 -27 6 6 17
11 25 11 11 0 13 -12 10 -57 -3 -31 -10 -59 -16 -61 -7 -2 -12 -12 -12 -23 0
-10 -4 -19 -10 -19 -5 0 -10 -7 -10 -16 0 -23 -25 -44 -54 -44 -16 0 -26 -6
-26 -15 0 -8 -9 -15 -20 -15 -11 0 -20 7 -20 15 0 12 -15 15 -75 15 -41 0 -75
4 -75 9 0 9 -145 22 -166 14 -16 -6 -19 -53 -4 -53 6 0 10 -11 10 -25 0 -16 6
-25 15 -25 10 0 15 -10 15 -30 0 -16 5 -30 10 -30 6 0 10 -13 10 -30 0 -16 5
-30 10 -30 6 0 10 -13 10 -30 0 -16 4 -30 9 -30 13 0 25 -139 16 -189 -5 -31
-11 -41 -26 -41 -10 0 -19 -4 -19 -10 0 -5 -11 -10 -25 -10 -14 0 -25 -4 -25
-10 0 -5 -9 -10 -20 -10 -11 0 -36 -14 -56 -32 -29 -27 -34 -38 -32 -67 2 -26
8 -37 22 -39 25 -5 44 14 28 30 -16 16 -16 33 1 21 6 -5 27 -10 46 -12 19 -1
41 -10 51 -21 10 -11 24 -20 33 -20 9 0 18 -9 22 -19 3 -11 15 -23 26 -26 10
-4 19 -13 19 -21 0 -8 7 -14 16 -14 9 0 29 -13 44 -30 15 -16 35 -30 44 -30 9
0 16 -5 16 -10 0 -15 38 -50 55 -50 8 0 15 -7 15 -15 0 -8 11 -17 25 -21 14
-3 25 -12 25 -20 0 -8 6 -14 13 -14 18 0 57 -34 57 -49 0 -6 9 -11 21 -11 12
0 23 -8 26 -20 3 -10 14 -22 24 -25 10 -4 19 -11 19 -16 0 -5 11 -9 25 -9 22
0 25 -5 31 -50 4 -27 10 -50 15 -50 5 0 9 -20 9 -45 0 -25 -4 -45 -9 -45 -5 0
-11 -12 -14 -28 -3 -15 -38 -61 -82 -107 -86 -90 -95 -106 -95 -175 0 -58 14
-70 83 -70 31 0 49 6 61 19 24 27 17 65 -13 69 -32 5 -48 -12 -31 -33 12 -15
10 -16 -21 -13 -28 2 -35 8 -37 28 -2 21 10 35 68 80 39 30 76 67 83 82 11 27
15 28 79 28 39 0 68 4 68 10 0 6 25 10 55 10 41 0 55 4 55 14 0 11 25 16 110
21 61 4 110 11 110 16 0 15 110 10 126 -5 11 -11 14 -45 14 -139 0 -69 -4
-127 -9 -129 -5 -1 -10 -100 -12 -218 l-4 -215 50 0 50 0 -4 305 c-2 168 -7
307 -12 308 -12 5 -11 72 1 72 6 0 10 7 10 15 0 12 13 15 60 15 33 0 60 -4 60
-9 0 -5 54 -12 120 -16 92 -6 120 -10 120 -21 0 -10 15 -14 55 -14 30 0 55 -4
55 -10 0 -5 23 -10 51 -10 34 0 56 -5 63 -15 15 -21 126 -49 140 -35 5 5 45
10 87 10 70 0 78 2 93 25 23 35 21 102 -3 115 -43 23 -91 6 -91 -31 0 -26 21
-35 36 -15 15 21 34 13 34 -13 0 -29 -22 -41 -76 -41 -58 0 -149 33 -177 65
-16 17 -18 34 -15 114 2 64 7 96 16 99 6 2 12 10 12 18 0 8 7 14 15 14 8 0 15
4 15 10 0 5 11 12 25 16 14 3 25 12 25 19 0 8 9 17 20 20 11 3 20 13 20 21 0
8 7 14 15 14 17 0 55 35 55 50 0 5 9 10 19 10 27 0 51 10 51 22 0 14 23 34 48
42 12 4 22 12 22 17 0 14 26 39 40 39 13 0 60 45 60 59 0 5 10 13 22 17 13 4
35 20 49 35 15 16 36 29 48 29 12 0 21 4 21 10 0 5 18 14 40 20 27 7 50 24 75
55 31 37 36 50 33 87 -3 42 -4 43 -38 43 -28 0 -35 -4 -35 -20 0 -13 6 -20 18
-19 9 1 17 -4 17 -11 0 -14 -133 -27 -138 -13 -2 4 -12 8 -23 8 -10 0 -19 6
-19 14 0 8 -6 16 -12 19 -17 5 -16 159 1 165 6 2 11 15 11 28 0 13 5 24 10 24
6 0 10 11 10 25 0 14 5 25 10 25 6 0 10 14 10 30 0 20 5 30 15 30 10 0 15 10
15 29 0 16 4 31 9 33 5 2 11 23 12 48 l4 45 -80 -3 c-44 -2 -81 -8 -83 -13 -2
-5 -37 -9 -78 -9 -59 0 -74 -3 -74 -15 0 -10 -10 -15 -30 -15 -20 0 -30 5 -30
15 0 8 -9 15 -20 15 -23 0 -60 33 -60 54 0 8 -5 16 -11 18 -8 3 -10 19 -5 50
6 39 13 50 42 67 38 22 41 20 46 -34 2 -19 9 -30 18 -30 11 0 16 14 18 52 3
48 1 54 -22 64 -33 16 -93 3 -120 -25 -35 -37 -56 -66 -56 -76 0 -6 -4 -10
-10 -10 -5 0 -10 -7 -10 -15 0 -8 -7 -15 -15 -15 -8 0 -15 -6 -15 -14 0 -8 -7
-16 -15 -20 -8 -3 -15 -12 -15 -21 0 -8 -4 -15 -10 -15 -5 0 -10 -7 -10 -15 0
-8 -4 -15 -10 -15 -5 0 -10 -6 -10 -14 0 -8 -9 -18 -20 -21 -11 -3 -20 -13
-20 -21 0 -8 -7 -17 -15 -20 -8 -4 -15 -17 -15 -30 0 -13 -6 -24 -13 -24 -18
0 -57 -34 -57 -48 0 -7 -11 -14 -25 -18 -14 -3 -25 -12 -25 -20 0 -8 -4 -14
-10 -14 -5 0 -10 7 -10 15 0 8 -4 15 -10 15 -6 0 -10 33 -10 80 0 47 4 80 10
80 6 0 10 23 10 50 0 28 5 50 10 50 6 0 10 23 10 50 0 28 4 50 9 50 5 0 13 45
16 100 4 55 11 100 16 100 5 0 9 18 9 40 0 22 5 40 10 40 6 0 10 23 10 50 0
28 5 50 10 50 6 0 10 12 10 28 0 29 62 161 82 174 24 15 74 8 96 -12 26 -24
30 -91 8 -109 -12 -10 -15 -6 -18 26 -2 26 -8 38 -18 38 -12 0 -15 -13 -15
-55 l0 -55 36 -3 c30 -3 39 2 54 24 23 35 17 147 -10 188 -18 27 -22 28 -83
24 -42 -3 -68 -9 -76 -19 -6 -9 -16 -14 -21 -12 -6 2 -22 -11 -35 -28 -39 -49
-92 -98 -134 -126 -37 -24 -43 -25 -91 -14 -30 7 -61 21 -72 34 -20 23 -83
147 -83 165 0 5 -7 15 -15 22 -8 7 -15 25 -15 41 0 16 -11 47 -25 69 -14 22
-25 48 -25 59 0 28 -57 81 -86 81 -13 0 -33 -9 -44 -20z"/>
</g>
</svg>
