<?xml version="1.0" standalone="no"?>
<!DOCTYPE svg PUBLIC "-//W3C//DTD SVG 20010904//EN"
 "http://www.w3.org/TR/2001/REC-SVG-20010904/DTD/svg10.dtd">
<svg version="1.0" xmlns="http://www.w3.org/2000/svg"
 width="256.000000pt" height="256.000000pt" viewBox="0 0 256.000000 256.000000"
 preserveAspectRatio="xMidYMid meet">
<metadata>
Created by potrace 1.16, written by Peter Selinger 2001-2019
</metadata>
<g transform="translate(0.000000,256.000000) scale(0.023704,-0.023704)"
fill="#000000" stroke="none">
<path d="M5075 9459 c-234 -26 -449 -65 -630 -114 -55 -15 -109 -30 -120 -33
-11 -3 -24 -8 -30 -12 -5 -3 -30 -13 -55 -20 -25 -7 -49 -17 -55 -20 -5 -4
-41 -18 -80 -30 -131 -43 -430 -189 -589 -288 -34 -21 -68 -42 -77 -47 -42
-25 -144 -100 -147 -107 -2 -4 -8 -8 -13 -8 -5 0 -20 -10 -35 -22 -14 -13 -27
-21 -29 -18 -2 3 -10 -2 -17 -12 -13 -17 -76 -70 -143 -123 -91 -71 -427 -421
-472 -492 -23 -37 -71 -98 -105 -135 -16 -17 -28 -34 -28 -38 0 -4 -26 -48
-59 -96 -32 -49 -61 -99 -65 -111 -4 -11 -13 -24 -21 -27 -8 -3 -15 -12 -15
-21 0 -8 -5 -15 -11 -15 -5 0 -8 -4 -5 -9 4 -5 3 -11 -1 -13 -5 -1 -25 -37
-45 -78 -86 -176 -138 -289 -138 -299 0 -6 -4 -11 -9 -11 -5 0 -14 -21 -20
-47 -7 -26 -20 -65 -31 -87 -10 -23 -27 -70 -39 -106 -52 -164 -74 -237 -77
-255 -1 -11 -3 -20 -4 -20 -4 0 -12 -38 -35 -165 -13 -74 -26 -145 -29 -158
-23 -106 -31 -260 -30 -562 0 -353 3 -387 58 -690 34 -185 35 -189 51 -221 8
-15 15 -35 15 -43 0 -38 143 -443 182 -518 24 -46 53 -103 63 -128 11 -25 38
-76 60 -115 23 -38 50 -85 61 -104 10 -18 47 -76 82 -128 34 -52 62 -97 62
-99 0 -5 15 -24 41 -52 8 -9 31 -39 50 -67 19 -27 36 -52 39 -55 3 -3 27 -32
52 -65 25 -33 54 -67 65 -76 10 -9 36 -38 58 -64 58 -70 205 -214 271 -265 31
-25 73 -61 93 -80 45 -43 103 -86 201 -149 41 -26 81 -55 89 -64 7 -9 20 -17
27 -17 8 0 14 -4 14 -8 0 -4 19 -18 43 -30 23 -12 58 -32 77 -44 19 -11 55
-32 80 -45 24 -13 53 -31 63 -41 11 -9 21 -16 23 -15 6 4 79 -31 82 -39 2 -5
12 -8 22 -8 10 0 22 -4 25 -10 3 -5 15 -10 26 -10 10 0 19 -4 19 -10 0 -5 7
-10 15 -10 9 0 33 -9 55 -20 22 -11 46 -20 53 -20 8 0 41 -12 73 -27 49 -23
175 -70 234 -88 49 -15 264 -67 310 -75 30 -5 108 -18 172 -29 65 -11 121 -22
125 -24 5 -3 37 -8 73 -11 36 -4 89 -9 117 -12 118 -13 508 -7 613 9 185 28
333 54 430 77 52 12 127 29 165 37 39 8 111 28 162 44 50 16 101 32 113 34 13
2 32 11 44 18 11 8 84 40 161 72 150 61 251 110 271 130 7 7 63 38 126 69 125
63 150 77 159 89 4 5 16 14 27 20 25 15 190 126 216 147 10 8 36 32 57 53 20
20 40 37 44 37 14 0 355 330 355 344 0 4 31 40 70 80 38 39 87 96 107 126 20
30 40 56 44 58 13 5 196 287 229 351 11 22 33 59 49 83 15 24 32 54 36 68 4
14 22 54 40 90 57 111 112 245 144 350 13 41 30 89 37 106 7 18 16 49 20 70 3
22 10 44 14 49 10 14 28 73 35 115 3 19 8 42 10 50 2 8 7 29 10 45 57 269 69
396 69 740 1 280 -5 443 -19 495 -2 8 -7 40 -10 70 -7 69 -16 124 -31 190 -3
14 -10 48 -14 75 -4 28 -14 64 -20 80 -7 17 -14 39 -15 50 -9 59 -146 437
-197 545 -110 228 -169 343 -180 348 -5 2 -8 8 -8 13 0 6 -5 15 -10 22 -15 16
-69 101 -104 162 -16 28 -34 53 -40 57 -6 4 -11 12 -11 17 0 6 -7 16 -16 23
-9 7 -37 42 -62 78 -25 36 -65 87 -89 113 -24 27 -61 68 -83 93 -79 87 -299
305 -329 326 -17 12 -47 36 -66 54 -19 18 -84 69 -145 113 -60 44 -121 88
-135 99 -14 10 -41 27 -60 38 -19 10 -36 22 -38 27 -2 4 -8 7 -13 7 -6 0 -34
16 -64 35 -30 19 -83 49 -117 66 -35 17 -66 37 -70 43 -4 6 -8 8 -8 4 0 -5
-40 12 -89 37 -49 25 -92 45 -95 45 -3 0 -29 11 -58 24 -117 53 -435 157 -558
182 -14 3 -41 9 -60 14 -19 5 -120 23 -225 41 -181 30 -205 31 -500 34 -170 1
-341 -2 -380 -6z m-1410 -1364 c67 -20 128 -50 144 -69 8 -9 19 -16 25 -16 21
0 169 -120 239 -193 55 -58 141 -159 190 -222 94 -122 126 -168 172 -243 6 -9
17 -28 27 -42 16 -25 51 -87 93 -165 11 -22 29 -52 38 -66 26 -39 145 -304
171 -379 12 -36 21 -71 19 -77 -2 -6 1 -14 6 -18 6 -3 11 -16 11 -29 0 -13 8
-31 19 -40 17 -15 28 -16 112 -5 128 17 737 23 853 9 189 -23 216 -24 216 -8
0 54 107 341 164 438 8 14 29 57 47 95 18 39 48 93 66 122 18 29 33 55 33 59
0 4 8 17 19 28 10 12 31 46 47 76 16 30 32 57 36 60 3 3 34 46 67 95 85 124
134 184 248 300 132 135 190 182 281 231 127 67 162 77 255 72 106 -5 169 -35
253 -118 85 -85 139 -193 183 -370 31 -125 48 -456 32 -620 -24 -240 -34 -317
-48 -385 -8 -38 -21 -108 -29 -155 -12 -75 -19 -109 -30 -145 -2 -5 -10 -39
-18 -75 -37 -173 -46 -209 -65 -254 -12 -26 -21 -59 -21 -72 0 -13 -4 -24 -9
-24 -5 0 -24 -44 -42 -97 -17 -54 -49 -131 -71 -171 -43 -82 -46 -109 -19
-190 10 -31 24 -84 31 -117 6 -33 15 -69 20 -80 4 -11 13 -56 20 -100 6 -44
15 -105 20 -135 23 -142 32 -287 27 -470 -6 -268 -25 -358 -102 -500 -53 -96
-208 -245 -305 -293 -19 -10 -42 -22 -50 -27 -8 -5 -39 -16 -69 -25 -30 -9
-83 -34 -117 -54 -73 -44 -249 -120 -352 -151 -40 -13 -76 -28 -80 -35 -4 -7
-122 -64 -262 -128 -223 -101 -276 -121 -420 -158 l-165 -41 -180 32 c-251 45
-254 46 -840 255 -193 69 -400 135 -424 135 -10 0 -51 15 -92 34 -41 19 -121
49 -179 68 -86 28 -120 46 -187 96 -45 34 -86 62 -91 62 -8 0 -59 61 -139 165
-70 92 -105 196 -125 370 -12 115 -4 526 12 620 6 33 13 74 16 92 12 84 63
319 85 389 25 81 21 108 -30 212 -21 42 -48 105 -60 140 -12 34 -30 82 -40
105 -11 23 -32 92 -47 152 -14 61 -32 122 -40 136 -7 14 -23 84 -35 155 -11
71 -25 138 -30 149 -9 24 -39 209 -44 280 -2 28 -9 100 -15 160 -13 125 -7
579 8 598 5 7 13 39 17 72 12 108 72 263 131 344 39 52 113 121 130 121 7 0
14 4 14 9 0 14 102 39 165 40 33 0 83 -6 110 -14z"/>
<path d="M4440 5510 c-99 -18 -214 -76 -269 -134 l-23 -24 27 -18 c39 -25 58
-75 49 -130 -3 -24 -3 -44 0 -44 16 0 360 138 463 186 65 30 71 40 43 69 l-22
24 36 15 c42 17 45 30 14 47 -28 15 -254 21 -318 9z"/>
<path d="M6050 5514 c-60 -11 -70 -15 -70 -30 0 -8 17 -22 38 -31 l37 -15 -22
-15 c-36 -24 -27 -40 40 -74 60 -31 443 -189 457 -189 4 0 7 27 7 60 0 69 16
106 49 114 33 9 30 19 -18 61 -97 84 -194 116 -363 120 -71 2 -141 2 -155 -1z"/>
<path d="M5187 4689 c-91 -31 -117 -65 -117 -149 0 -68 39 -147 100 -204 144
-134 300 -134 433 0 100 101 129 246 63 309 -52 49 -124 65 -288 65 -106 -1
-145 -5 -191 -21z"/>
<path d="M4632 4328 c-53 -53 72 -219 218 -289 66 -32 175 -66 263 -84 26 -5
27 -8 27 -63 0 -202 180 -330 348 -246 92 46 142 132 142 244 l0 56 73 16
c179 39 326 123 399 227 59 85 61 151 4 151 -16 0 -28 -14 -48 -58 -48 -102
-129 -166 -263 -207 -300 -91 -672 -78 -900 32 -84 40 -144 97 -183 174 -29
55 -56 71 -80 47z"/>
</g>
</svg>
