<?xml version="1.0" standalone="no"?>
<!DOCTYPE svg PUBLIC "-//W3C//DTD SVG 20010904//EN"
 "http://www.w3.org/TR/2001/REC-SVG-20010904/DTD/svg10.dtd">
<svg version="1.0" xmlns="http://www.w3.org/2000/svg"
 width="1080.000000pt" height="1080.000000pt" viewBox="0 0 1080.000000 1080.000000"
 preserveAspectRatio="xMidYMid meet">
<metadata>
Created by potrace 1.16, written by Peter Selinger 2001-2019
</metadata>
<g transform="translate(0.000000,1080.000000) scale(0.100000,-0.100000)"
fill="#000000" stroke="none">
<path d="M5075 9460 c-98 -9 -337 -45 -425 -64 -81 -17 -289 -72 -347 -92 -24
-8 -49 -12 -55 -8 -6 4 -8 3 -5 -3 4 -6 -12 -16 -36 -23 -87 -25 -293 -113
-427 -181 -77 -38 -145 -67 -152 -63 -7 4 -8 3 -4 -4 4 -7 -4 -17 -21 -24 -15
-6 -37 -20 -48 -29 -11 -9 -48 -32 -82 -50 -35 -17 -63 -36 -63 -41 0 -5 -9
-7 -19 -3 -11 3 -22 1 -26 -4 -3 -7 0 -8 9 -5 33 13 14 -7 -46 -47 -90 -61
-196 -145 -351 -279 -40 -35 -217 -210 -217 -216 0 -2 -10 -14 -22 -26 -17
-17 -20 -18 -15 -4 5 12 3 16 -5 13 -7 -2 -12 -10 -10 -17 3 -12 -35 -68 -72
-106 -12 -11 -37 -42 -56 -68 -19 -27 -44 -58 -56 -71 -12 -13 -24 -30 -27
-40 -4 -9 -12 -13 -19 -9 -7 4 -10 4 -6 -1 8 -8 -19 -58 -55 -105 -19 -24 -19
-24 -13 -2 6 17 3 24 -15 31 -23 8 -22 8 5 13 21 4 26 2 22 -9 -3 -8 -1 -11 4
-8 6 3 10 11 10 16 0 6 7 17 15 26 22 22 9 30 -14 9 -23 -21 -44 -12 -36 15 6
19 -16 19 -1194 19 l-1201 0 0 -4000 0 -4000 5400 0 5400 0 0 4000 0 4000
-1172 0 -1172 0 -33 32 c-18 17 -33 28 -33 23 0 -5 -6 -1 -13 10 -11 14 -16
15 -22 5 -6 -9 -4 -11 5 -5 9 6 11 4 6 -4 -5 -7 -14 -10 -22 -7 -8 3 -14 -1
-14 -9 0 -8 0 -18 0 -22 0 -4 8 -8 17 -8 10 0 19 -9 21 -20 4 -17 3 -18 -13
-5 -17 14 -17 13 -6 -8 10 -19 15 -21 27 -11 8 7 13 18 10 26 -4 8 -1 11 5 8
6 -4 7 -20 4 -37 -5 -21 -4 -28 4 -24 15 10 14 -7 -1 -22 -9 -9 -9 -15 0 -24
6 -6 15 -8 19 -4 4 4 1 11 -7 16 -20 13 -3 12 21 0 13 -7 19 -7 19 0 0 18 16
11 27 -12 6 -14 7 -32 2 -46 -5 -13 -6 -29 -2 -34 3 -7 1 -8 -5 -4 -15 9 -15
4 1 -31 13 -29 42 -63 55 -63 4 0 7 -8 8 -18 2 -32 4 -37 12 -25 5 8 8 -1 8
-22 l0 -34 -18 30 c-10 16 -18 32 -18 36 0 3 -11 21 -25 39 -14 18 -25 36 -25
39 0 4 -19 37 -43 74 -66 103 -67 104 -85 135 -9 16 -29 40 -44 54 -28 26 -38
49 -15 36 6 -4 9 -4 5 1 -4 4 -18 13 -30 20 -15 7 -22 19 -21 32 1 12 -4 27
-12 33 -8 7 -15 23 -15 37 0 27 -24 41 -44 24 -10 -8 -18 -4 -37 21 -13 17
-32 39 -41 47 -10 9 -18 20 -18 25 0 5 16 -8 36 -28 35 -36 61 -44 34 -10 -12
13 -11 17 0 24 8 5 11 12 7 17 -5 4 -12 1 -17 -6 -6 -11 -14 -9 -41 10 -18 12
-29 17 -24 10 16 -26 -11 -5 -54 41 -26 29 -40 52 -35 59 5 8 2 10 -7 7 -10
-4 -49 26 -107 81 -50 47 -104 96 -119 108 -69 56 -97 82 -86 83 6 0 14 -5 16
-10 3 -6 4 -5 3 2 -2 7 -12 13 -23 13 -19 0 -39 12 -121 78 -19 15 -50 37 -69
48 -18 11 -31 25 -28 30 4 5 0 6 -7 4 -8 -3 -23 4 -35 15 -12 11 -24 20 -26
20 -2 0 -56 31 -120 70 -109 65 -195 113 -207 115 -3 1 -33 15 -67 33 -35 18
-89 42 -120 54 -32 11 -60 24 -63 28 -7 10 -317 116 -428 146 -150 41 -203 52
-402 85 -175 30 -202 31 -495 34 -170 2 -346 0 -390 -5z m-1410 -1365 c67 -20
128 -50 144 -69 8 -9 19 -16 25 -16 22 0 170 -121 244 -198 65 -69 117 -132
247 -299 35 -44 75 -103 110 -161 6 -9 17 -28 27 -42 16 -25 51 -87 93 -165
11 -22 29 -52 38 -66 26 -39 145 -304 171 -379 12 -36 21 -71 19 -77 -2 -6 1
-14 6 -18 6 -3 11 -16 11 -29 0 -13 8 -31 19 -40 17 -15 28 -16 112 -5 128 17
737 23 853 9 189 -23 216 -24 216 -8 0 54 107 341 164 438 8 14 29 57 47 95
18 39 48 93 66 122 18 29 33 55 33 59 0 4 8 17 19 28 10 12 31 46 47 76 16 30
32 57 36 60 3 3 34 46 67 95 85 124 134 184 248 300 132 135 190 182 281 231
127 67 162 77 255 72 106 -5 169 -35 253 -118 85 -85 139 -193 183 -370 31
-125 48 -456 32 -620 -24 -240 -34 -317 -48 -385 -8 -38 -21 -108 -29 -155
-12 -76 -20 -113 -30 -145 -2 -5 -10 -39 -18 -75 -39 -179 -46 -209 -65 -254
-12 -26 -21 -59 -21 -72 0 -13 -4 -24 -9 -24 -5 0 -24 -44 -42 -97 -17 -54
-49 -131 -71 -171 -43 -82 -46 -109 -19 -190 10 -31 24 -84 31 -117 6 -33 15
-69 20 -80 4 -11 13 -56 20 -100 6 -44 15 -105 20 -135 35 -210 38 -581 7
-745 -27 -143 -81 -247 -187 -358 -74 -78 -108 -106 -199 -159 -56 -33 -54
-32 -120 -53 -30 -9 -83 -34 -117 -54 -73 -44 -249 -120 -352 -151 -40 -13
-76 -28 -80 -35 -4 -7 -122 -64 -262 -128 -223 -101 -276 -121 -420 -158
l-165 -41 -180 32 c-250 45 -252 45 -840 255 -194 70 -400 135 -424 135 -10 0
-51 15 -92 34 -41 19 -121 49 -179 68 -86 28 -120 46 -187 96 -45 34 -86 62
-91 62 -8 0 -59 61 -139 165 -70 92 -105 196 -125 370 -12 115 -4 526 12 620
6 33 13 74 16 92 12 84 63 319 85 389 25 81 21 108 -30 212 -21 42 -48 105
-60 140 -12 34 -30 82 -40 105 -11 23 -32 92 -47 152 -14 61 -32 122 -40 136
-7 14 -23 84 -35 155 -11 71 -25 138 -30 149 -9 24 -39 209 -44 280 -2 28 -9
100 -15 160 -13 125 -7 579 8 598 5 7 12 37 16 67 14 114 73 268 132 349 39
52 113 121 130 121 7 0 14 4 14 9 0 14 102 39 165 40 33 0 83 -6 110 -14z
m1109 -6810 c47 -14 106 -52 134 -85 30 -34 54 -104 55 -159 3 -84 -6 -91
-115 -91 -102 0 -128 9 -128 46 0 31 -50 84 -79 84 -35 0 -71 -22 -94 -59 -18
-30 -22 -54 -26 -145 -2 -67 1 -125 9 -150 24 -81 94 -123 160 -96 25 10 30
18 30 45 l0 33 -60 4 c-33 2 -66 10 -73 17 -19 19 -16 169 3 181 20 13 367 13
375 0 14 -23 22 -6 28 64 8 86 15 108 61 179 37 59 114 116 182 135 69 20 215
15 278 -9 108 -40 193 -145 215 -263 23 -125 8 -339 -28 -422 -29 -65 -106
-137 -176 -164 -71 -27 -221 -33 -295 -12 -95 28 -197 131 -220 222 -23 89
-29 88 -29 -4 -1 -79 -4 -93 -26 -122 -55 -72 -213 -121 -352 -110 -110 9
-178 39 -245 108 l-58 59 0 -64 c0 -44 -5 -68 -15 -77 -16 -14 -792 -17 -806
-3 -4 4 -18 40 -31 78 l-23 70 -85 0 -85 0 -25 -72 c-14 -40 -28 -75 -32 -79
-4 -4 -57 -7 -119 -7 -117 0 -129 5 -129 49 0 22 237 738 261 789 l14 30 109
3 c69 2 113 -1 122 -8 7 -7 20 -35 29 -63 9 -29 20 -61 25 -72 5 -11 23 -65
40 -120 17 -55 35 -109 40 -120 4 -11 18 -51 31 -90 45 -144 61 -181 70 -160
4 11 8 155 8 319 0 235 3 301 13 307 21 14 202 11 221 -3 15 -12 17 -46 19
-328 l3 -315 163 -2 163 -2 -7 47 c-12 75 -9 332 5 382 15 57 72 141 118 176
61 46 118 62 228 63 62 0 119 -5 149 -14z m1500 -11 c14 -13 16 -65 16 -418 0
-314 -3 -406 -13 -420 -11 -15 -29 -18 -121 -18 -79 1 -111 4 -117 14 -14 22
-11 832 3 846 19 19 212 16 232 -4z m308 4 c9 -7 47 -67 85 -133 87 -151 119
-202 133 -210 7 -4 10 48 10 162 0 118 4 173 12 181 13 13 192 17 222 6 14 -5
16 -53 16 -430 0 -393 -1 -424 -17 -432 -21 -10 -203 -9 -220 1 -6 4 -36 49
-66 100 -111 188 -149 247 -158 247 -5 0 -9 -73 -9 -169 0 -124 -3 -172 -12
-177 -16 -10 -210 -10 -226 0 -17 10 -17 837 0 854 17 17 209 16 230 0z m756
0 c9 -9 12 -87 12 -288 0 -250 2 -279 19 -310 38 -72 130 -75 172 -6 17 28 19
55 19 304 0 169 4 281 10 293 10 17 22 19 115 19 83 0 107 -3 120 -16 15 -15
16 -49 13 -328 -5 -345 -6 -353 -71 -431 -68 -81 -199 -124 -338 -111 -140 13
-227 65 -278 168 l-31 61 0 323 c0 248 3 323 13 327 27 11 213 7 225 -5z"/>
<path d="M4440 5510 c-99 -18 -214 -76 -268 -133 l-23 -25 30 -21 c37 -26 55
-78 46 -131 -4 -22 -4 -40 0 -40 15 0 360 139 462 186 65 30 71 40 43 69 l-22
24 36 15 c42 17 45 30 14 47 -28 15 -254 21 -318 9z"/>
<path d="M6050 5514 c-60 -11 -70 -15 -70 -30 0 -8 17 -22 38 -31 l37 -15 -22
-15 c-36 -24 -27 -40 40 -74 60 -31 443 -189 457 -189 4 0 7 27 7 60 0 69 16
106 49 114 33 9 30 19 -18 61 -97 84 -194 116 -363 120 -71 2 -141 2 -155 -1z"/>
<path d="M5187 4689 c-91 -31 -117 -65 -117 -149 0 -68 39 -147 100 -204 144
-134 300 -134 433 0 62 63 97 137 97 204 0 128 -81 170 -328 170 -100 -1 -139
-5 -185 -21z"/>
<path d="M4632 4328 c-53 -53 72 -219 218 -289 66 -32 175 -66 263 -84 26 -5
27 -8 27 -63 0 -202 180 -330 348 -246 92 46 142 132 142 244 l0 56 73 16
c179 39 326 123 399 227 59 85 61 151 4 151 -16 0 -28 -14 -48 -58 -48 -102
-129 -166 -263 -207 -300 -91 -672 -78 -900 32 -84 40 -144 97 -183 174 -29
55 -56 71 -80 47z"/>
<path d="M4560 1241 c-91 -19 -166 -79 -210 -166 -23 -46 -25 -63 -28 -205 -3
-140 -2 -161 19 -215 20 -54 70 -116 130 -160 52 -39 235 -48 319 -16 28 11
71 34 95 53 l45 33 -3 150 -2 150 -145 0 -145 0 0 -50 0 -50 73 -3 72 -3 0
-75 c0 -73 -1 -75 -32 -94 -48 -29 -153 -28 -198 3 -64 43 -75 81 -75 262 0
180 8 208 76 253 29 20 43 23 98 20 57 -4 67 -8 92 -36 16 -18 29 -43 29 -57
0 -29 24 -38 96 -33 l49 3 -3 35 c-9 87 -71 165 -149 188 -52 15 -161 22 -203
13z"/>
<path d="M5295 1241 c-117 -21 -218 -123 -244 -249 -16 -76 -14 -228 4 -297
28 -106 91 -180 185 -216 45 -17 71 -20 145 -17 58 3 103 10 126 21 53 26 112
89 144 154 28 56 29 62 29 213 -1 147 -2 158 -27 211 -68 141 -201 207 -362
180z m138 -125 c81 -34 112 -121 105 -292 -8 -172 -51 -241 -155 -251 -131
-13 -193 77 -193 282 0 148 24 213 94 256 37 22 103 25 149 5z"/>
<path d="M5318 1065 c-16 -9 -38 -35 -50 -58 -19 -36 -22 -58 -23 -157 0 -123
8 -152 58 -198 45 -42 114 -26 154 35 23 35 32 236 13 294 -25 75 -97 115
-152 84z"/>
<path d="M3255 1205 c-8 -20 -28 -77 -44 -128 -17 -51 -69 -206 -116 -346 -47
-140 -83 -256 -80 -259 8 -8 139 -3 146 6 3 4 16 40 29 80 l23 73 130 -3 131
-3 25 -80 26 -79 60 -1 c33 -1 67 1 75 3 13 3 -5 64 -93 325 -59 177 -113 338
-118 357 -26 92 -24 90 -105 90 l-74 0 -15 -35z m134 -310 c23 -70 41 -130 41
-135 0 -10 -162 -14 -172 -5 -7 7 73 265 83 265 4 0 25 -56 48 -125z"/>
<path d="M3757 1234 c-9 -10 -9 -764 1 -765 31 -5 476 -3 483 2 6 3 9 28 7 55
l-3 49 -172 3 -173 2 -2 328 -3 327 -65 3 c-36 2 -69 0 -73 -4z"/>
<path d="M6080 856 l0 -384 38 -5 c32 -5 49 -4 110 2 10 1 12 81 10 384 l-3
382 -77 3 -78 3 0 -385z"/>
<path d="M6397 1233 c-4 -3 -7 -176 -7 -384 0 -428 -9 -389 90 -384 l55 2 3
256 c1 142 6 257 10 257 6 0 132 -204 197 -317 59 -105 119 -193 133 -196 9
-2 42 -4 72 -3 l55 2 3 388 2 387 -72 -3 -73 -3 -5 -259 c-4 -188 -8 -255 -16
-245 -6 8 -70 115 -144 239 -73 124 -139 235 -147 248 -12 19 -22 22 -82 22
-37 0 -71 -3 -74 -7z"/>
<path d="M7152 943 c3 -285 4 -300 25 -339 29 -54 93 -109 151 -128 27 -10 80
-16 129 -16 137 0 230 47 281 143 l27 52 0 290 0 290 -72 3 -71 3 -4 -283 c-3
-314 -6 -329 -71 -368 -43 -27 -131 -27 -174 0 -67 40 -67 44 -73 360 l-5 285
-73 3 -73 3 3 -298z"/>
</g>
</svg>
