<svg id="Layer_1" data-name="Layer 1" xmlns="http://www.w3.org/2000/svg" viewBox="0 0 256 256"><defs><style>.cls-1{fill:#fff;}</style></defs><title>icon</title><path class="cls-1" d="M248.013,140.989C238.9,197.342,200.519,218.7,190.807,224.3s-16.269,6.149-16.269,6.149c25.119-12.56,34.831-21.41,45.5-33.947,23.4-28.421,23.54-57.989,23.54-57.989-10.254,39.45-25.808,47.319-26.049,47.436A171.729,171.729,0,0,0,233.6,158.322c6.675-14.856,7.249-31.1,7.249-34.974a44.328,44.328,0,0,0-.479-6.7c-6.075,22.248-13.636,35.1-16.194,38.54s-3.445,6.293-3.445,7.464.454,1.22.454,2.035-5.36,10.094-19.283,26.075c-19.9,22.584-40.262,24.45-46.6,24.45s-8.9-1.174-10.958-1.174-6.6,2.466-10.429,2.466c-17.13,0-43.3-19.665-50.144-24.786s-11.4-13.731-12.726-16.28-3.23-5.848-9.186-15.9a68.008,68.008,0,0,1-9.186-34.593A80.367,80.367,0,0,1,62.4,86.7s-2.44-.789-2.44-2.943,2.4-5.67,4.662-9.474S69.9,63.874,78.583,55.549c15.717-16,33.157-19.843,44.569-21.64s8.42-2.188,18.66-2.188a71.405,71.405,0,0,1,27.272,5.454c26.7,11.34,46.6,42.487,50.144,52.343s3.3,13.9,3.3,20.193a15.615,15.615,0,0,0,2.762,8.928.8.8,0,0,0,1.335-.057c2.592-4.375,3.175-7.519,3.175-15.809,0-8.9-2.1-22.343-5.885-29.664-6.89-13.349-12.6-18.456-15.037-20.4a119.917,119.917,0,0,1-9.9-8.575c-2.584-2.69-1.852-3.9-1.852-3.9,13.539,9.617,22.725,19.854,28.708,29.856a82.289,82.289,0,0,1,8.084,17.225,10.133,10.133,0,0,0,.5-2.19,8.363,8.363,0,0,0-.344-1.843,19.413,19.413,0,0,0,2.3.075,35.008,35.008,0,0,1-.97-4.094c2.119,1.51,4.952,9.8,4.952,9.8a44.877,44.877,0,0,0-6.675-24.221c-1.257-2.228-3.23-5.1-3.947-7.358a12.446,12.446,0,0,0-1.148-2.871l-.144,2.334c-3.517-3.232-3.876-6.066-10.071-14.414C188.8,2.248,146.118,0,127.722,0,111.91,0,85.832,5.6,63.058,21.867,13.489,55.549,7.94,112.1,7.94,126.552c0,40.1,19.9,64.879,23.971,69.9s10.335,14.354,15.166,20.336,6.985,8.084,21.338,17.127C94.062,250.187,119.707,256,141.166,256s34.139-5.047,41.218-8.3c6.97-3.2,20.988-8.675,21.424-8.848-4.794.675-17.118,5.308-18.841,5.308s-2.678,1.628-4.257,1.628-24.76,3.158-40.908,3.158c-39.9,0-62.439-10.1-79.3-22.728a105.363,105.363,0,0,1-25.334-26.747c17.032,10.432,18.66,17.7,39.186,30.838s39.424,14.377,39.424,14.377c-10.191-3.827-30.045-15.74-30.045-15.74,12.488,3.637,27.605,14.5,49.423,9.379a300.746,300.746,0,0,1,39.665-6.58c-32.727,10.191-53.181,11.34-53.181,11.34,7.679,1.794,31.435,3.732,60.358-7.823,35.692-14.736,46.578-27.416,51.028-34.593s12.488-21.818,13.851-28.277A132.821,132.821,0,0,0,248.013,140.989ZM17.364,96.458c7.751-30.861,29.043-57.366,53.253-72.2A111.816,111.816,0,0,1,129.4,7.32c12.344,0,26.052,1.579,45,9.33s28.923,18.875,28.923,18.875c-16.148-9.9-36.436-16.771-40.837-17.727s-10.765-2.2-15.166-3.207A123.158,123.158,0,0,0,124.659,12.2,100.765,100.765,0,0,0,93.2,16.7C60.472,27.7,47.177,49.268,46.729,50c12.8-16.834,35.092-23.233,35.508-23.351a128.785,128.785,0,0,0-24.157,16.5,43.234,43.234,0,0,0-9.425,10.719A177.026,177.026,0,0,1,37.267,69.854c-1.768,2.01-9.281,12.344-11.914,21.1-20.428,57.691,9.663,106.4,10.372,107.539A124.773,124.773,0,0,1,17.364,96.458Zm9.413,26.483c.04,3.824.233,7.645.62,11.449.21,1.9.454,3.8.775,5.681s.735,3.758,1.2,5.621a53.186,53.186,0,0,1-1.613-5.538c-.425-1.877-.761-3.775-1.031-5.684s-.439-3.827-.586-5.747c-.123-1.921-.192-3.847-.227-5.77q-.017-2.889.083-5.773c.077-1.921.187-3.841.353-5.759A106.909,106.909,0,0,1,27.891,100c-.192,1.912-.376,3.821-.505,5.733-.146,1.912-.264,3.824-.365,5.736C26.829,115.29,26.732,119.116,26.778,122.94Zm39.772,98.4c-4.257-3.494-27.129-21.482-39.281-45.883-5.885-12.011-7.989-24.4-5.885-29.761a91.058,91.058,0,0,0,5.742,19.234c4.091,9.258,12.3,24.976,25.5,37.7s27.559,23.351,29.953,25.6C82.579,228.225,70.809,224.829,66.549,221.336Zm14.862-5.44-1.424-.677c-.471-.233-.956-.439-1.41-.7l-2.77-1.507c-.459-.258-.933-.488-1.378-.769l-1.346-.821c-.9-.554-1.806-1.085-2.678-1.674-1.731-1.2-3.491-2.36-5.133-3.683l-1.246-.967-.623-.488-.6-.514-2.394-2.061c-.408-.336-.772-.715-1.16-1.074L58.1,199.871l-1.14-1.094-1.091-1.14-1.094-1.14c-.365-.379-.729-.758-1.071-1.16l-2.087-2.366a107.134,107.134,0,0,1-7.5-10.122,101.318,101.318,0,0,1-6.2-10.935c-.456-.942-.893-1.895-1.341-2.839-.425-.953-.841-1.915-1.252-2.877-.388-.97-.789-1.935-1.16-2.911s-.744-1.952-1.074-2.945c-.689-1.969-1.3-3.965-1.857-5.977s-1.039-4.039-1.384-6.092c.256,1.008.548,2,.864,2.994s.637,1.975.985,2.954c.695,1.955,1.418,3.9,2.231,5.8a114.478,114.478,0,0,0,5.357,11.182l1.524,2.7,1.585,2.655,1.668,2.6c.563.864,1.16,1.7,1.74,2.555a103.566,103.566,0,0,0,16.32,18.39l2.334,2.007.58.5.606.477,1.206.953c1.579,1.312,3.273,2.469,4.92,3.692a99.84,99.84,0,0,0,10.5,6.442c.913.479,1.791,1.022,2.724,1.464.922.462,1.837.942,2.75,1.43s1.849.936,2.776,1.4,1.857.947,2.773,1.473A55.321,55.321,0,0,1,81.411,215.9Z"/></svg>