<?xml version="1.0" encoding="utf-8"?>
<!-- Generator: Adobe Illustrator 25.4.1, SVG Export Plug-In . SVG Version: 6.00 Build 0)  -->
<svg version="1.1" id="Layer_1" xmlns="http://www.w3.org/2000/svg" xmlns:xlink="http://www.w3.org/1999/xlink" x="0px" y="0px"
	 viewBox="0 0 451 451" style="enable-background:new 0 0 451 451;" xml:space="preserve">
<style type="text/css">
	.st0{fill:url(#SVGID_1_);}
	.st1{fill:none;}
	.st2{fill:#FFFFFF;}
</style>
<linearGradient id="SVGID_1_" gradientUnits="userSpaceOnUse" x1="-83.1534" y1="22.7759" x2="367.8466" y2="22.7759" gradientTransform="matrix(0.7071 0.7071 -0.7071 0.7071 140.9507 108.7407)">
	<stop  offset="0" style="stop-color:#4159E9"/>
	<stop  offset="1" style="stop-color:#20AEB8"/>
</linearGradient>
<circle class="st0" cx="225.5" cy="225.5" r="225.5"/>
<g>
	<path class="st1" d="M265.95,225.5c0-20.44,5.17-40.52,14.97-58.32c-7.29-2.92-15.08-4.88-23.33-5.43
		c-33.67-2.24-67.83,19.24-101.55,63.83c33.68,44.47,67.79,65.9,101.43,63.66c8.28-0.55,16.11-2.53,23.43-5.47
		C271.12,265.99,265.95,245.92,265.95,225.5z M257.65,239.41c-0.52,0.28-12.89,6.88-26.91,12.11c-11.09,4.13-19.94,6.19-26.69,6.19
		c-5.67,0-9.85-1.46-12.61-4.37c-3.13-3.31-4.48-7.27-3.89-11.45c1.6-11.42,17.27-20.99,19.05-22.04c1.9-1.13,4.35-0.5,5.48,1.41
		c1.12,1.9,0.5,4.35-1.41,5.48c-5.45,3.24-14.4,10.52-15.2,16.27c-0.15,1.11-0.14,2.81,1.78,4.84c6.37,6.73,37.55-5.26,56.61-15.48
		c1.95-1.04,4.37-0.31,5.42,1.64S259.6,238.36,257.65,239.41z"/>
	<path class="st1" d="M111.99,182.37c-2.26-0.48-4.11-0.28-4.82,0.54c-0.03,0.03-2.36,3.46,6.27,20.8
		c4.89,9.82,10.73,18.84,10.78,18.93c0.92,1.42,0.85,3.26-0.17,4.6l-0.04,0.06c-0.75,1.2-6.15,9.89-10.76,19.29
		c-8.77,17.9-6.46,21.47-6.44,21.51c0.67,0.77,2.36,0.95,4.51,0.49c16.77-3.58,30.47-28.68,35.38-44.12
		C137.7,197.14,121.14,184.33,111.99,182.37z"/>
	<path class="st1" d="M194.25,145.16c-1.92,2.02-1.93,3.73-1.78,4.84c0.8,5.75,9.75,13.04,15.2,16.27c0.01,0.01,0.02,0.02,0.03,0.02
		c10.4-5.87,20.84-9.7,31.3-11.5C220.9,146.56,199.42,139.71,194.25,145.16z"/>
	<path class="st1" d="M207.65,284.74c-5.45,3.24-14.37,10.51-15.17,16.26c-0.15,1.11-0.14,2.81,1.78,4.84
		c5.16,5.45,26.61-1.38,44.7-9.61C228.49,294.44,218.05,290.6,207.65,284.74z"/>
	<path class="st1" d="M288.23,170.51c-9.35,16.75-14.28,35.69-14.28,54.99c0,19.27,4.93,38.21,14.26,54.94
		c31.34-15.96,51.88-48.28,55.93-55.05C339.81,218.2,319.33,186.3,288.23,170.51z M298.45,224c-8,0-14.5-6.5-14.5-14.5
		s6.5-14.5,14.5-14.5s14.5,6.5,14.5,14.5S306.45,224,298.45,224z"/>
	<circle class="st1" cx="298.45" cy="209.5" r="6.5"/>
	<path class="st2" d="M351.99,222.98c-0.37-0.67-9.23-16.51-25.12-33.02c-21.27-22.09-45.02-34.6-68.7-36.19
		c-1.16-0.08-2.32-0.13-3.48-0.16c-0.01-0.01-0.02-0.02-0.04-0.03c-0.52-0.28-12.89-6.88-26.91-12.11
		c-20.41-7.6-33.26-8.2-39.3-1.82c-3.13,3.31-4.48,7.27-3.89,11.45c1.2,8.6,10.38,16.14,15.6,19.8
		c-16.01,10.57-31.92,25.96-47.63,46.11c-9.79-25.52-26.53-39.85-38.87-42.48c-5.33-1.14-9.77-0.04-12.51,3.09
		c-4.25,4.85-2.66,14.01,5.16,29.69c3.68,7.37,7.75,14.14,9.83,17.48c-2.03,3.33-6.27,10.49-10.1,18.3
		c-7.87,16.08-9.49,25.4-5.25,30.25c2,2.29,4.91,3.47,8.41,3.47c1.2,0,2.47-0.14,3.79-0.42c12.34-2.63,29.12-17.09,39.03-42.92
		c15.85,20.42,31.9,35.99,48.07,46.65c-5.23,3.67-14.33,11.19-15.53,19.75c-0.59,4.18,0.76,8.14,3.89,11.45
		c2.76,2.91,6.94,4.37,12.61,4.37c6.75,0,15.6-2.06,26.69-6.19c14.02-5.22,26.39-11.83,26.91-12.11c0.02-0.01,0.03-0.03,0.05-0.04
		c1.11-0.03,2.23-0.07,3.34-0.15c23.68-1.59,47.43-14.1,68.7-36.19c15.9-16.51,24.76-32.35,25.12-33.02
		c0.36-0.66,0.51-1.37,0.48-2.07C352.61,224.99,352.52,223.93,351.99,222.98z M207.68,166.28c-5.45-3.24-14.4-10.52-15.2-16.27
		c-0.15-1.11-0.14-2.81,1.78-4.84c5.16-5.45,26.64,1.4,44.75,9.63c-10.46,1.8-20.9,5.63-31.3,11.5
		C207.7,166.29,207.69,166.28,207.68,166.28z M111.32,268.58c-2.15,0.46-3.84,0.28-4.51-0.49c-0.03-0.03-2.33-3.6,6.44-21.51
		c4.61-9.4,10.01-18.09,10.76-19.29l0.04-0.06c1.02-1.34,1.09-3.18,0.17-4.6c-0.06-0.09-5.89-9.11-10.78-18.93
		c-8.64-17.34-6.3-20.77-6.27-20.8c0.71-0.81,2.56-1.02,4.82-0.54c9.15,1.95,25.72,14.77,34.71,42.09
		C141.79,239.9,128.09,265,111.32,268.58z M194.25,305.84c-1.92-2.03-1.93-3.73-1.78-4.84c0.8-5.75,9.72-13.01,15.17-16.26
		c10.4,5.86,20.85,9.7,31.31,11.48C220.86,304.45,199.42,311.29,194.25,305.84z M257.47,289.25
		c-33.64,2.24-67.74-19.19-101.43-63.66c33.72-44.58,67.88-66.06,101.55-63.83c8.24,0.55,16.04,2.51,23.33,5.43
		c-9.8,17.8-14.97,37.88-14.97,58.32c0,20.42,5.16,40.49,14.95,58.27C273.58,286.72,265.75,288.69,257.47,289.25z M288.21,280.44
		c-9.33-16.74-14.26-35.67-14.26-54.94c0-19.3,4.93-38.24,14.28-54.99c31.09,15.79,51.57,47.7,55.9,54.89
		C340.09,232.16,319.55,264.48,288.21,280.44z"/>
	<path class="st2" d="M253.87,232.36c-19.07,10.22-50.24,22.21-56.61,15.48c-1.92-2.03-1.93-3.73-1.78-4.84
		c0.8-5.75,9.75-13.04,15.2-16.27c1.9-1.12,2.53-3.58,1.41-5.48c-1.12-1.9-3.58-2.53-5.48-1.41c-1.78,1.05-17.45,10.63-19.05,22.04
		c-0.59,4.18,0.76,8.14,3.89,11.45c2.76,2.91,6.94,4.37,12.61,4.37c6.75,0,15.6-2.06,26.69-6.19c14.02-5.22,26.39-11.83,26.91-12.11
		c1.95-1.04,2.68-3.47,1.64-5.42S255.82,231.31,253.87,232.36z"/>
	<path class="st2" d="M298.45,195c-8,0-14.5,6.5-14.5,14.5s6.5,14.5,14.5,14.5s14.5-6.5,14.5-14.5S306.45,195,298.45,195z
		 M298.45,216c-3.58,0-6.5-2.92-6.5-6.5s2.92-6.5,6.5-6.5s6.5,2.92,6.5,6.5S302.04,216,298.45,216z"/>
</g>
</svg>
