<?xml version="1.0" encoding="UTF-8" standalone="no"?>
<!DOCTYPE svg PUBLIC "-//W3C//DTD SVG 1.1//EN" "http://www.w3.org/Graphics/SVG/1.1/DTD/svg11.dtd">
<svg xmlns="http://www.w3.org/2000/svg" version="1.1" viewBox="0 0 256 256">
<g stroke-width="2.00" fill="none" stroke-linecap="butt">
<path stroke="#878207" vector-effect="non-scaling-stroke" d="
  M 101.87 42.49
  Q 100.54 38.91 97.24 35.14
  Q 97.04 34.91 96.82 34.82
  Q 96.06 34.49 96.41 35.40
  Q 98.68 41.31 100.60 47.05
  Q 101.84 50.77 103.93 47.45
  Q 109.37 38.79 116.40 31.40
  Q 120.40 27.18 124.75 26.25
  Q 129.99 25.13 132.12 30.40
  Q 132.28 30.80 132.46 31.06
  Q 133.55 32.61 133.31 30.44
  Q 132.88 26.46 130.28 24.55
  Q 128.03 22.90 124.42 23.39
  Q 119.39 24.08 115.55 27.80
  Q 109.39 33.77 103.67 42.69
  Q 102.57 44.39 101.87 42.49"
/>
<path stroke="#878686" vector-effect="non-scaling-stroke" d="
  M 146.25 28.21
  Q 136.67 31.53 130.04 39.25"
/>
<path stroke="#870736" vector-effect="non-scaling-stroke" d="
  M 130.04 39.25
  Q 129.82 37.13 129.59 35.00
  Q 129.38 33.05 128.62 32.36
  Q 127.45 31.29 125.36 31.96"
/>
<path stroke="#878686" vector-effect="non-scaling-stroke" d="
  M 125.36 31.96
  Q 107.73 41.11 99.70 59.30
  Q 99.49 59.78 99.21 59.34
  Q 98.60 58.37 98.60 57.27"
/>
<path stroke="#870736" vector-effect="non-scaling-stroke" d="
  M 98.60 57.27
  Q 98.18 47.23 90.94 38.06
  Q 85.67 31.40 78.06 34.31
  Q 74.28 35.76 71.25 39.96"
/>
<path stroke="#878686" vector-effect="non-scaling-stroke" d="
  M 71.25 39.96
  Q 62.57 44.81 57.44 54.44
  Q 48.61 71.00 47.46 88.50
  Q 47.26 91.51 48.19 95.56
  Q 48.87 98.53 51.18 98.53
  Q 52.43 98.53 54.47 97.25
  Q 57.81 95.15 60.87 92.74
  Q 62.35 91.57 62.27 93.47
  Q 61.84 103.47 65.41 112.06
  Q 68.30 119.05 73.39 123.11
  Q 78.93 127.54 86.38 128.73
  A 0.96 0.95 4.6 0 1 87.19 129.67
  Q 87.21 136.95 85.79 144.03
  Q 84.41 150.87 84.39 151.01
  Q 82.04 164.01 78.52 176.75
  Q 75.74 186.81 77.75 194.50
  Q 79.35 200.60 82.31 203.94
  Q 92.60 215.51 109.27 217.34
  Q 110.17 217.44 109.15 217.21
  Q 106.90 216.72 105.53 215.20"
/>
<path stroke="#870736" vector-effect="non-scaling-stroke" d="
  M 105.53 215.20
  Q 88.95 204.92 84.75 186.00
  Q 84.16 183.35 83.66 169.99"
/>
<path stroke="#878686" vector-effect="non-scaling-stroke" d="
  M 83.66 169.99
  Q 85.28 162.08 86.70 154.08
  Q 88.59 143.43 88.74 141.92
  Q 89.31 135.91 88.39 129.51
  A 0.45 0.45 -3.9 0 1 88.84 129.00
  L 93.23 129.00
  Q 94.20 129.00 93.42 129.58
  Q 90.08 132.06 92.15 133.26
  Q 94.17 134.43 95.68 132.64
  Q 97.45 130.53 99.06 129.17
  Q 100.65 127.82 103.34 127.21
  Q 108.96 125.94 115.02 124.83
  A 1.96 1.95 -34.5 0 1 116.40 125.08
  Q 127.01 131.52 137.70 135.92
  Q 138.58 136.29 139.35 136.42
  Q 143.05 137.07 140.58 134.65
  Q 140.04 134.12 139.19 133.59
  Q 130.68 128.21 121.55 123.93
  Q 120.57 123.47 121.63 123.25
  Q 133.47 120.67 144.56 115.06
  Q 151.65 111.48 156.32 107.16
  Q 156.70 106.81 156.25 107.06
  Q 145.00 113.37 132.00 117.00
  Q 115.18 121.70 98.73 123.25
  Q 91.30 123.96 86.75 123.50
  Q 81.94 123.02 78.21 120.09
  Q 75.45 117.92 72.65 113.18
  Q 66.27 102.37 65.04 89.88
  A 1.28 1.28 76.8 0 0 63.32 88.81
  Q 57.43 91.01 52.17 94.47
  A 0.38 0.38 -24.6 0 1 51.60 94.26
  Q 50.72 91.17 51.19 86.69
  Q 53.17 67.85 62.54 53.03"
/>
<path stroke="#870736" vector-effect="non-scaling-stroke" d="
  M 62.54 53.03
  Q 56.15 68.36 56.50 85.00
  Q 56.56 87.93 58.69 86.44
  Q 61.53 84.44 63.80 81.81
  Q 65.63 79.70 67.86 78.08
  Q 69.88 76.62 71.38 76.51
  Q 73.57 76.34 75.23 78.26
  Q 77.38 80.77 78.19 83.56
  Q 80.38 91.20 81.73 95.26
  Q 84.90 104.86 94.78 107.11
  Q 102.55 108.87 110.50 108.25
  Q 130.66 106.65 148.89 98.04"
/>
<path stroke="#878686" vector-effect="non-scaling-stroke" d="
  M 148.89 98.04
  Q 163.07 104.00 169.29 118.00"
/>
<path stroke="#870736" vector-effect="non-scaling-stroke" d="
  M 169.29 118.00
  Q 159.13 134.92 165.86 153.67
  Q 167.01 156.86 169.19 158.06
  Q 170.36 158.71 172.25 157.96"
/>
<path stroke="#878686" vector-effect="non-scaling-stroke" d="
  M 172.25 157.96
  Q 176.03 155.71 180.24 155.60
  Q 183.39 155.52 185.52 156.89
  Q 187.97 158.48 189.00 161.50
  Q 191.46 168.73 188.30 175.62
  Q 185.65 181.40 179.43 182.88
  Q 175.63 183.78 172.70 181.97
  Q 170.58 180.67 169.53 177.96
  Q 168.56 175.49 168.51 172.75
  Q 168.49 171.22 168.13 169.73
  Q 168.11 169.66 168.00 168.74
  Q 167.92 168.00 167.28 167.71
  A 0.45 0.39 -72.9 0 0 166.72 168.06
  Q 166.37 169.90 165.80 171.68
  Q 165.06 174.01 164.73 175.25
  Q 160.20 192.25 147.04 204.04
  Q 143.06 207.61 137.50 210.00
  Q 128.79 213.75 126.09 214.89
  Q 122.10 216.57 121.06 218.06
  Q 118.12 222.31 121.57 223.72
  Q 123.25 224.40 125.97 223.97
  Q 129.70 223.37 133.24 221.98
  Q 142.97 218.16 153.01 215.25
  Q 155.55 214.51 153.45 216.12
  Q 149.28 219.31 145.23 223.00
  Q 143.62 224.46 142.97 225.66
  Q 141.27 228.85 144.76 229.39
  Q 146.27 229.63 148.70 229.02
  Q 153.02 227.95 158.50 226.44
  A 1.22 1.21 86.9 0 1 160.02 227.81
  Q 159.81 229.13 161.23 229.86
  Q 161.83 230.17 163.35 230.35
  Q 165.52 230.61 170.00 231.50
  Q 173.71 232.24 180.29 231.78
  Q 180.65 231.76 181.20 231.84
  Q 182.11 231.97 182.10 231.52
  A 0.67 0.47 -0.4 0 0 181.43 231.06
  Q 171.65 231.09 162.05 229.19
  A 1.01 1.01 14.2 0 1 161.28 227.90
  Q 162.05 225.40 160.03 225.04
  Q 159.24 224.90 157.50 225.25
  Q 152.86 226.20 148.23 227.25
  Q 143.52 228.32 147.22 225.22
  Q 150.74 222.27 154.55 219.08
  Q 156.39 217.54 157.25 216.24
  Q 160.12 211.89 154.70 212.05
  Q 152.96 212.10 150.37 212.83
  Q 142.24 215.13 134.48 218.53
  Q 129.71 220.61 124.13 221.37
  Q 122.75 221.56 123.68 220.52
  Q 124.21 219.93 125.54 219.35
  Q 131.16 216.93 136.82 214.58
  Q 151.02 208.68 158.40 195.92
  Q 161.24 191.00 163.40 185.05
  Q 165.38 179.57 166.39 173.40
  Q 166.42 173.23 166.46 173.40
  Q 167.01 175.49 167.66 177.60
  Q 168.46 180.24 169.42 181.57
  Q 171.43 184.33 174.70 185.15
  Q 177.32 185.81 180.71 184.68
  Q 192.14 180.85 193.43 169.48
  Q 194.24 162.27 191.36 157.52
  Q 187.50 151.18 178.04 153.00"
/>
<path stroke="#870736" vector-effect="non-scaling-stroke" d="
  M 178.04 153.00
  Q 178.09 152.72 178.29 152.50"
/>
<path stroke="#878686" vector-effect="non-scaling-stroke" d="
  M 178.29 152.50
  Q 180.19 152.28 180.24 150.25
  Q 180.74 129.17 169.54 111.46
  Q 164.66 103.74 157.06 99.44
  Q 144.50 92.32 141.32 79.53
  Q 139.54 72.33 140.99 61.92
  Q 142.22 53.10 145.41 44.67
  Q 147.40 39.40 149.27 33.08
  Q 149.47 32.40 149.85 33.00
  Q 152.26 36.82 153.46 41.25"
/>
<path stroke="#870736" vector-effect="non-scaling-stroke" d="
  M 153.46 41.25
  Q 151.49 48.31 150.75 58.50
  Q 149.30 78.55 164.97 88.63
  Q 168.77 91.07 168.83 91.11
  Q 172.68 93.77 176.44 96.55
  Q 185.92 103.57 188.96 115.01
  Q 191.51 124.59 192.40 132.92
  Q 192.77 136.40 195.79 134.63
  Q 203.08 130.32 207.75 123.54"
/>
<path stroke="#878686" vector-effect="non-scaling-stroke" d="
  M 207.75 123.54
  Q 203.77 135.63 194.81 144.06
  Q 190.50 148.12 187.83 151.13
  Q 187.47 151.53 188.00 151.56
  Q 189.34 151.63 190.69 150.69
  Q 208.86 138.04 214.19 116.69
  Q 215.61 111.00 213.82 103.23"
/>
<path stroke="#870736" vector-effect="non-scaling-stroke" d="
  M 213.82 103.23
  Q 213.87 86.26 202.28 73.97
  Q 199.55 71.08 196.86 68.15
  Q 192.15 63.00 185.94 59.81
  Q 180.20 56.87 176.75 61.54"
/>
<path stroke="#878686" vector-effect="non-scaling-stroke" d="
  M 176.75 61.54
  L 169.00 60.21"
/>
<path stroke="#870736" vector-effect="non-scaling-stroke" d="
  M 169.00 60.21
  Q 160.58 48.67 157.02 34.81
  Q 155.98 30.79 154.54 35.59"
/>
<path stroke="#878686" vector-effect="non-scaling-stroke" d="
  M 154.54 35.59
  Q 152.62 31.95 149.96 29.00"
/>
<path stroke="#870736" vector-effect="non-scaling-stroke" d="
  M 149.96 29.00
  Q 151.16 27.51 150.06 26.39
  A 0.92 0.84 -27.4 0 0 149.20 26.16
  Q 147.35 26.62 146.25 28.21"
/>
<path stroke="#ff80af" vector-effect="non-scaling-stroke" d="
  M 149.96 29.00
  L 146.25 28.21"
/>
<path stroke="#ff80af" vector-effect="non-scaling-stroke" d="
  M 154.54 35.59
  Q 159.47 53.69 162.06 59.69
  Q 163.86 63.86 166.33 67.68
  Q 166.67 68.19 166.35 68.22
  A 0.63 0.40 59.9 0 1 165.88 67.97
  Q 161.65 62.99 159.56 57.94
  Q 158.03 54.23 153.46 41.25"
/>
<path stroke="#ff80af" vector-effect="non-scaling-stroke" d="
  M 178.29 152.50
  Q 177.27 151.25 177.25 150.25
  Q 176.96 133.17 169.29 118.00"
/>
<path stroke="#ff80af" vector-effect="non-scaling-stroke" d="
  M 148.89 98.04
  Q 138.97 88.54 137.79 75.00
  A 0.94 0.92 -78.1 0 0 137.32 74.26
  Q 132.77 71.66 130.81 68.44
  Q 125.73 60.07 124.96 48.50"
/>
<path stroke="#ab8193" vector-effect="non-scaling-stroke" d="
  M 124.96 48.50
  L 124.79 44.25"
/>
<path stroke="#ff80af" vector-effect="non-scaling-stroke" d="
  M 124.79 44.25
  L 124.75 36.17
  A 0.51 0.51 76.8 0 0 124.01 35.71
  Q 118.63 38.43 114.49 42.49
  Q 106.11 50.71 100.55 61.08
  Q 99.63 62.79 98.78 61.05
  Q 97.05 57.52 94.73 53.74
  Q 90.83 47.38 84.33 43.75
  Q 78.03 40.25 71.72 43.74
  Q 65.74 47.04 62.54 53.03"
/>
<path stroke="#ff80af" vector-effect="non-scaling-stroke" d="
  M 83.66 169.99
  Q 81.83 173.59 81.46 177.50"
/>
<path stroke="#ab8193" vector-effect="non-scaling-stroke" d="
  M 81.46 177.50
  Q 79.68 184.56 80.23 192.55"
/>
<path stroke="#ff80af" vector-effect="non-scaling-stroke" d="
  M 80.23 192.55
  Q 86.07 210.63 105.53 215.20"
/>
<path stroke="#ff80af" vector-effect="non-scaling-stroke" d="
  M 71.25 39.96
  Q 80.04 37.05 86.69 41.81
  Q 94.02 47.07 98.60 57.27"
/>
<path stroke="#ff80af" vector-effect="non-scaling-stroke" d="
  M 125.36 31.96
  Q 127.23 33.48 127.25 35.00
  Q 127.30 38.34 127.17 42.36
  Q 127.14 43.13 127.59 42.53
  L 130.04 39.25"
/>
<path stroke="#ab0143" vector-effect="non-scaling-stroke" d="
  M 80.23 192.55
  Q 81.57 182.04 81.81 179.31
  Q 81.86 178.74 81.46 177.50"
/>
<path stroke="#ab0143" vector-effect="non-scaling-stroke" d="
  M 124.79 44.25
  Q 123.54 46.49 124.96 48.50"
/>
<path stroke="#ff80af" vector-effect="non-scaling-stroke" d="
  M 169.00 60.21
  Q 166.92 60.85 164.78 61.21
  Q 163.51 61.42 164.33 61.83
  Q 164.53 61.94 164.82 61.95
  Q 179.86 62.77 190.04 72.07
  Q 196.06 77.56 202.08 87.64
  Q 207.37 96.50 209.75 106.00
  Q 211.91 114.64 207.75 123.54"
/>
<path stroke="#ff80af" vector-effect="non-scaling-stroke" d="
  M 178.04 153.00
  Q 174.24 154.44 172.25 157.96"
/>
<path stroke="#ff80af" vector-effect="non-scaling-stroke" d="
  M 213.82 103.23
  Q 209.45 91.42 203.06 81.69
  Q 193.52 67.14 176.75 61.54"
/>
<path stroke="#878207" vector-effect="non-scaling-stroke" d="
  M 46.11 103.70
  Q 43.32 99.08 43.14 92.75
  Q 42.80 80.90 46.02 69.51
  Q 46.17 68.98 46.01 68.75
  Q 45.66 68.26 45.40 69.04
  Q 41.24 81.28 41.21 94.17
  Q 41.20 97.27 41.62 99.81
  Q 42.21 103.41 43.25 105.25
  Q 45.85 109.85 50.32 107.01
  Q 52.64 105.53 54.68 103.70
  A 0.52 0.52 -31.5 0 1 55.52 103.90
  Q 58.14 110.93 62.77 115.73
  Q 63.26 116.24 63.39 115.89
  A 0.76 0.46 45.3 0 0 63.24 115.28
  Q 60.77 111.82 58.99 107.97
  Q 57.50 104.74 58.25 101.23
  Q 59.02 97.65 56.08 99.55
  L 48.92 104.20
  Q 47.12 105.37 46.11 103.70"
/>
<path stroke="#878686" vector-effect="non-scaling-stroke" d="
  M 163.56 171.19
  Q 161.07 169.85 159.29 167.52
  Q 157.87 165.67 156.83 162.60
  Q 153.05 151.47 156.60 139.91
  Q 159.69 129.83 165.94 118.69
  Q 166.56 117.57 165.65 117.73
  Q 165.34 117.78 165.04 118.05
  Q 162.60 120.18 159.94 124.19
  Q 150.14 138.93 151.45 155.98
  Q 151.90 161.77 154.94 167.31
  Q 157.70 172.35 163.14 172.95
  Q 163.86 173.03 164.28 172.70
  Q 165.15 172.04 163.56 171.19"
/>
<path stroke="#878686" vector-effect="non-scaling-stroke" d="
  M 101.59 146.22
  Q 107.55 155.01 102.28 164.54
  Q 99.52 169.54 94.31 167.44
  Q 87.94 164.87 86.20 171.06
  Q 84.83 175.93 87.60 178.66
  Q 89.76 180.78 93.95 180.76
  Q 99.62 180.72 104.59 177.61
  Q 105.24 177.20 105.19 176.71
  A 0.48 0.38 -15.7 0 0 104.55 176.44
  Q 100.27 178.15 95.00 178.75
  Q 92.61 179.02 90.76 178.12
  Q 88.93 177.23 88.25 175.04
  Q 87.23 171.77 89.48 169.61
  Q 91.05 168.11 93.11 168.79
  Q 99.48 170.90 102.74 166.98
  Q 104.61 164.74 105.50 161.50
  Q 108.22 151.63 103.99 142.75
  Q 102.51 139.64 100.00 139.00
  Q 96.53 138.12 95.31 140.56
  Q 92.60 146.01 93.37 153.44
  Q 93.56 155.21 94.31 156.24
  Q 95.76 158.23 97.63 156.94
  Q 98.85 156.09 99.54 153.98
  Q 100.77 150.24 101.25 146.30
  Q 101.31 145.81 101.59 146.22"
/>
<path stroke="#878686" vector-effect="non-scaling-stroke" d="
  M 132.7946 163.3527
  A 10.12 4.06 96.1 0 0 137.9070 153.7214
  A 10.12 4.06 96.1 0 0 134.9454 143.2273
  A 10.12 4.06 96.1 0 0 129.8330 152.8586
  A 10.12 4.06 96.1 0 0 132.7946 163.3527"
/>
<path stroke="#878207" vector-effect="non-scaling-stroke" d="
  M 77.05 206.97
  Q 78.68 208.37 80.69 209.19
  Q 81.87 209.67 81.00 208.75
  Q 71.03 198.31 73.25 183.75
  Q 74.35 176.52 79.50 152.25
  Q 79.83 150.68 79.61 149.48
  Q 79.52 148.94 79.38 149.49
  Q 73.83 172.98 71.44 180.94
  Q 67.62 193.65 74.82 204.44
  Q 75.77 205.87 77.05 206.97"
/>
<path stroke="#878686" vector-effect="non-scaling-stroke" d="
  M 184.16 171.06
  Q 183.92 174.50 181.19 175.86
  Q 179.09 176.90 177.26 176.07
  Q 175.22 175.14 174.75 172.25
  Q 174.13 168.49 175.15 165.58
  Q 176.03 163.06 178.14 162.08
  Q 180.57 160.96 183.29 162.35
  Q 183.64 162.52 184.02 162.88
  Q 186.21 164.94 184.81 161.77
  A 2.49 2.48 86.0 0 0 183.23 160.39
  Q 178.86 159.12 176.00 161.10
  Q 173.58 162.77 172.58 166.61
  Q 171.52 170.69 172.97 174.75
  Q 173.78 176.99 175.37 178.14
  Q 177.47 179.66 179.75 179.00
  Q 186.57 177.02 186.50 169.85
  Q 186.48 167.68 184.34 167.99
  Q 181.35 168.41 178.55 169.32
  Q 177.90 169.53 177.58 169.89
  Q 176.86 170.70 177.87 171.24
  Q 178.39 171.52 179.18 171.44
  Q 181.47 171.21 183.70 170.68
  A 0.37 0.36 -4.7 0 1 184.16 171.06"
/>
<path stroke="#878686" vector-effect="non-scaling-stroke" d="
  M 142.14 172.73
  Q 140.36 172.93 138.63 174.37
  Q 136.02 176.53 133.42 178.70
  Q 125.14 185.57 114.59 185.82
  Q 109.91 185.93 108.57 186.67
  Q 105.10 188.59 106.94 193.81
  Q 108.95 199.55 114.94 202.13
  Q 122.25 205.28 129.62 202.28
  Q 139.24 198.35 143.41 189.42
  Q 145.38 185.21 145.78 182.07
  Q 146.29 178.14 144.64 174.21
  Q 143.94 172.54 142.14 172.73"
/>
<path stroke="#878686" vector-effect="non-scaling-stroke" d="
  M 137.00 35.79
  Q 132.55 39.10 129.50 43.71"
/>
<path stroke="#ff80af" vector-effect="non-scaling-stroke" d="
  M 129.50 43.71
  Q 126.99 45.09 126.94 48.00
  Q 126.73 58.58 132.91 67.05"
/>
<path stroke="#878686" vector-effect="non-scaling-stroke" d="
  M 132.91 67.05
  Q 134.47 69.30 136.75 70.68
  A 0.33 0.32 -70.6 0 0 137.23 70.44
  L 139.54 54.50"
/>
<path stroke="#ff80af" vector-effect="non-scaling-stroke" d="
  M 139.54 54.50
  Q 140.69 52.51 141.75 48.75
  Q 142.63 45.64 146.20 37.23
  Q 147.17 34.95 147.48 32.63
  Q 147.84 30.01 145.32 30.81
  Q 140.56 32.32 137.00 35.79"
/>
<path stroke="#870736" vector-effect="non-scaling-stroke" d="
  M 139.54 54.50
  Q 135.79 47.48 135.50 39.50
  Q 135.47 38.74 137.00 35.79"
/>
<path stroke="#870736" vector-effect="non-scaling-stroke" d="
  M 132.91 67.05
  Q 130.33 55.40 129.50 43.71"
/>
<path stroke="#ff80af" vector-effect="non-scaling-stroke" d="
  M 137.13 192.43
  Q 127.05 191.66 118.25 195.96"
/>
<path stroke="#878686" vector-effect="non-scaling-stroke" d="
  M 118.25 195.96
  Q 116.62 196.56 116.96 195.98
  Q 117.10 195.74 117.49 195.49
  Q 123.57 191.54 130.75 190.46"
/>
<path stroke="#ff80af" vector-effect="non-scaling-stroke" d="
  M 130.75 190.46
  Q 134.52 190.95 138.64 190.21"
/>
<path stroke="#878686" vector-effect="non-scaling-stroke" d="
  M 138.64 190.21
  Q 140.16 191.48 140.86 190.08
  Q 141.31 189.18 141.36 189.09
  Q 145.23 182.79 143.41 175.46
  Q 142.90 173.38 141.14 174.61
  Q 138.86 176.20 136.51 178.51
  Q 125.93 188.91 111.67 187.32
  Q 108.06 186.92 108.06 190.55
  Q 108.07 195.47 111.98 198.30
  Q 115.07 200.54 118.68 201.33
  Q 122.05 202.06 125.83 201.28
  Q 133.07 199.78 138.01 193.93
  Q 138.07 193.85 138.66 193.22
  Q 139.95 191.83 137.13 192.43"
/>
<path stroke="#870736" vector-effect="non-scaling-stroke" d="
  M 138.64 190.21
  Q 134.71 187.93 130.75 190.46"
/>
<path stroke="#870736" vector-effect="non-scaling-stroke" d="
  M 118.25 195.96
  Q 119.14 198.17 122.00 198.00
  Q 130.95 197.47 137.13 192.43"
/>
</g>
<path fill="#0e0d0d" d="
  M 0.00 0.00
  L 256.00 0.00
  L 256.00 256.00
  L 0.00 256.00
  L 0.00 0.00
  Z
  M 101.87 42.49
  Q 100.54 38.91 97.24 35.14
  Q 97.04 34.91 96.82 34.82
  Q 96.06 34.49 96.41 35.40
  Q 98.68 41.31 100.60 47.05
  Q 101.84 50.77 103.93 47.45
  Q 109.37 38.79 116.40 31.40
  Q 120.40 27.18 124.75 26.25
  Q 129.99 25.13 132.12 30.40
  Q 132.28 30.80 132.46 31.06
  Q 133.55 32.61 133.31 30.44
  Q 132.88 26.46 130.28 24.55
  Q 128.03 22.90 124.42 23.39
  Q 119.39 24.08 115.55 27.80
  Q 109.39 33.77 103.67 42.69
  Q 102.57 44.39 101.87 42.49
  Z
  M 146.25 28.21
  Q 136.67 31.53 130.04 39.25
  Q 129.82 37.13 129.59 35.00
  Q 129.38 33.05 128.62 32.36
  Q 127.45 31.29 125.36 31.96
  Q 107.73 41.11 99.70 59.30
  Q 99.49 59.78 99.21 59.34
  Q 98.60 58.37 98.60 57.27
  Q 98.18 47.23 90.94 38.06
  Q 85.67 31.40 78.06 34.31
  Q 74.28 35.76 71.25 39.96
  Q 62.57 44.81 57.44 54.44
  Q 48.61 71.00 47.46 88.50
  Q 47.26 91.51 48.19 95.56
  Q 48.87 98.53 51.18 98.53
  Q 52.43 98.53 54.47 97.25
  Q 57.81 95.15 60.87 92.74
  Q 62.35 91.57 62.27 93.47
  Q 61.84 103.47 65.41 112.06
  Q 68.30 119.05 73.39 123.11
  Q 78.93 127.54 86.38 128.73
  A 0.96 0.95 4.6 0 1 87.19 129.67
  Q 87.21 136.95 85.79 144.03
  Q 84.41 150.87 84.39 151.01
  Q 82.04 164.01 78.52 176.75
  Q 75.74 186.81 77.75 194.50
  Q 79.35 200.60 82.31 203.94
  Q 92.60 215.51 109.27 217.34
  Q 110.17 217.44 109.15 217.21
  Q 106.90 216.72 105.53 215.20
  Q 88.95 204.92 84.75 186.00
  Q 84.16 183.35 83.66 169.99
  Q 85.28 162.08 86.70 154.08
  Q 88.59 143.43 88.74 141.92
  Q 89.31 135.91 88.39 129.51
  A 0.45 0.45 -3.9 0 1 88.84 129.00
  L 93.23 129.00
  Q 94.20 129.00 93.42 129.58
  Q 90.08 132.06 92.15 133.26
  Q 94.17 134.43 95.68 132.64
  Q 97.45 130.53 99.06 129.17
  Q 100.65 127.82 103.34 127.21
  Q 108.96 125.94 115.02 124.83
  A 1.96 1.95 -34.5 0 1 116.40 125.08
  Q 127.01 131.52 137.70 135.92
  Q 138.58 136.29 139.35 136.42
  Q 143.05 137.07 140.58 134.65
  Q 140.04 134.12 139.19 133.59
  Q 130.68 128.21 121.55 123.93
  Q 120.57 123.47 121.63 123.25
  Q 133.47 120.67 144.56 115.06
  Q 151.65 111.48 156.32 107.16
  Q 156.70 106.81 156.25 107.06
  Q 145.00 113.37 132.00 117.00
  Q 115.18 121.70 98.73 123.25
  Q 91.30 123.96 86.75 123.50
  Q 81.94 123.02 78.21 120.09
  Q 75.45 117.92 72.65 113.18
  Q 66.27 102.37 65.04 89.88
  A 1.28 1.28 76.8 0 0 63.32 88.81
  Q 57.43 91.01 52.17 94.47
  A 0.38 0.38 -24.6 0 1 51.60 94.26
  Q 50.72 91.17 51.19 86.69
  Q 53.17 67.85 62.54 53.03
  Q 56.15 68.36 56.50 85.00
  Q 56.56 87.93 58.69 86.44
  Q 61.53 84.44 63.80 81.81
  Q 65.63 79.70 67.86 78.08
  Q 69.88 76.62 71.38 76.51
  Q 73.57 76.34 75.23 78.26
  Q 77.38 80.77 78.19 83.56
  Q 80.38 91.20 81.73 95.26
  Q 84.90 104.86 94.78 107.11
  Q 102.55 108.87 110.50 108.25
  Q 130.66 106.65 148.89 98.04
  Q 163.07 104.00 169.29 118.00
  Q 159.13 134.92 165.86 153.67
  Q 167.01 156.86 169.19 158.06
  Q 170.36 158.71 172.25 157.96
  Q 176.03 155.71 180.24 155.60
  Q 183.39 155.52 185.52 156.89
  Q 187.97 158.48 189.00 161.50
  Q 191.46 168.73 188.30 175.62
  Q 185.65 181.40 179.43 182.88
  Q 175.63 183.78 172.70 181.97
  Q 170.58 180.67 169.53 177.96
  Q 168.56 175.49 168.51 172.75
  Q 168.49 171.22 168.13 169.73
  Q 168.11 169.66 168.00 168.74
  Q 167.92 168.00 167.28 167.71
  A 0.45 0.39 -72.9 0 0 166.72 168.06
  Q 166.37 169.90 165.80 171.68
  Q 165.06 174.01 164.73 175.25
  Q 160.20 192.25 147.04 204.04
  Q 143.06 207.61 137.50 210.00
  Q 128.79 213.75 126.09 214.89
  Q 122.10 216.57 121.06 218.06
  Q 118.12 222.31 121.57 223.72
  Q 123.25 224.40 125.97 223.97
  Q 129.70 223.37 133.24 221.98
  Q 142.97 218.16 153.01 215.25
  Q 155.55 214.51 153.45 216.12
  Q 149.28 219.31 145.23 223.00
  Q 143.62 224.46 142.97 225.66
  Q 141.27 228.85 144.76 229.39
  Q 146.27 229.63 148.70 229.02
  Q 153.02 227.95 158.50 226.44
  A 1.22 1.21 86.9 0 1 160.02 227.81
  Q 159.81 229.13 161.23 229.86
  Q 161.83 230.17 163.35 230.35
  Q 165.52 230.61 170.00 231.50
  Q 173.71 232.24 180.29 231.78
  Q 180.65 231.76 181.20 231.84
  Q 182.11 231.97 182.10 231.52
  A 0.67 0.47 -0.4 0 0 181.43 231.06
  Q 171.65 231.09 162.05 229.19
  A 1.01 1.01 14.2 0 1 161.28 227.90
  Q 162.05 225.40 160.03 225.04
  Q 159.24 224.90 157.50 225.25
  Q 152.86 226.20 148.23 227.25
  Q 143.52 228.32 147.22 225.22
  Q 150.74 222.27 154.55 219.08
  Q 156.39 217.54 157.25 216.24
  Q 160.12 211.89 154.70 212.05
  Q 152.96 212.10 150.37 212.83
  Q 142.24 215.13 134.48 218.53
  Q 129.71 220.61 124.13 221.37
  Q 122.75 221.56 123.68 220.52
  Q 124.21 219.93 125.54 219.35
  Q 131.16 216.93 136.82 214.58
  Q 151.02 208.68 158.40 195.92
  Q 161.24 191.00 163.40 185.05
  Q 165.38 179.57 166.39 173.40
  Q 166.42 173.23 166.46 173.40
  Q 167.01 175.49 167.66 177.60
  Q 168.46 180.24 169.42 181.57
  Q 171.43 184.33 174.70 185.15
  Q 177.32 185.81 180.71 184.68
  Q 192.14 180.85 193.43 169.48
  Q 194.24 162.27 191.36 157.52
  Q 187.50 151.18 178.04 153.00
  Q 178.09 152.72 178.29 152.50
  Q 180.19 152.28 180.24 150.25
  Q 180.74 129.17 169.54 111.46
  Q 164.66 103.74 157.06 99.44
  Q 144.50 92.32 141.32 79.53
  Q 139.54 72.33 140.99 61.92
  Q 142.22 53.10 145.41 44.67
  Q 147.40 39.40 149.27 33.08
  Q 149.47 32.40 149.85 33.00
  Q 152.26 36.82 153.46 41.25
  Q 151.49 48.31 150.75 58.50
  Q 149.30 78.55 164.97 88.63
  Q 168.77 91.07 168.83 91.11
  Q 172.68 93.77 176.44 96.55
  Q 185.92 103.57 188.96 115.01
  Q 191.51 124.59 192.40 132.92
  Q 192.77 136.40 195.79 134.63
  Q 203.08 130.32 207.75 123.54
  Q 203.77 135.63 194.81 144.06
  Q 190.50 148.12 187.83 151.13
  Q 187.47 151.53 188.00 151.56
  Q 189.34 151.63 190.69 150.69
  Q 208.86 138.04 214.19 116.69
  Q 215.61 111.00 213.82 103.23
  Q 213.87 86.26 202.28 73.97
  Q 199.55 71.08 196.86 68.15
  Q 192.15 63.00 185.94 59.81
  Q 180.20 56.87 176.75 61.54
  L 169.00 60.21
  Q 160.58 48.67 157.02 34.81
  Q 155.98 30.79 154.54 35.59
  Q 152.62 31.95 149.96 29.00
  Q 151.16 27.51 150.06 26.39
  A 0.92 0.84 -27.4 0 0 149.20 26.16
  Q 147.35 26.62 146.25 28.21
  Z
  M 46.11 103.70
  Q 43.32 99.08 43.14 92.75
  Q 42.80 80.90 46.02 69.51
  Q 46.17 68.98 46.01 68.75
  Q 45.66 68.26 45.40 69.04
  Q 41.24 81.28 41.21 94.17
  Q 41.20 97.27 41.62 99.81
  Q 42.21 103.41 43.25 105.25
  Q 45.85 109.85 50.32 107.01
  Q 52.64 105.53 54.68 103.70
  A 0.52 0.52 -31.5 0 1 55.52 103.90
  Q 58.14 110.93 62.77 115.73
  Q 63.26 116.24 63.39 115.89
  A 0.76 0.46 45.3 0 0 63.24 115.28
  Q 60.77 111.82 58.99 107.97
  Q 57.50 104.74 58.25 101.23
  Q 59.02 97.65 56.08 99.55
  L 48.92 104.20
  Q 47.12 105.37 46.11 103.70
  Z
  M 163.56 171.19
  Q 161.07 169.85 159.29 167.52
  Q 157.87 165.67 156.83 162.60
  Q 153.05 151.47 156.60 139.91
  Q 159.69 129.83 165.94 118.69
  Q 166.56 117.57 165.65 117.73
  Q 165.34 117.78 165.04 118.05
  Q 162.60 120.18 159.94 124.19
  Q 150.14 138.93 151.45 155.98
  Q 151.90 161.77 154.94 167.31
  Q 157.70 172.35 163.14 172.95
  Q 163.86 173.03 164.28 172.70
  Q 165.15 172.04 163.56 171.19
  Z
  M 101.59 146.22
  Q 107.55 155.01 102.28 164.54
  Q 99.52 169.54 94.31 167.44
  Q 87.94 164.87 86.20 171.06
  Q 84.83 175.93 87.60 178.66
  Q 89.76 180.78 93.95 180.76
  Q 99.62 180.72 104.59 177.61
  Q 105.24 177.20 105.19 176.71
  A 0.48 0.38 -15.7 0 0 104.55 176.44
  Q 100.27 178.15 95.00 178.75
  Q 92.61 179.02 90.76 178.12
  Q 88.93 177.23 88.25 175.04
  Q 87.23 171.77 89.48 169.61
  Q 91.05 168.11 93.11 168.79
  Q 99.48 170.90 102.74 166.98
  Q 104.61 164.74 105.50 161.50
  Q 108.22 151.63 103.99 142.75
  Q 102.51 139.64 100.00 139.00
  Q 96.53 138.12 95.31 140.56
  Q 92.60 146.01 93.37 153.44
  Q 93.56 155.21 94.31 156.24
  Q 95.76 158.23 97.63 156.94
  Q 98.85 156.09 99.54 153.98
  Q 100.77 150.24 101.25 146.30
  Q 101.31 145.81 101.59 146.22
  Z
  M 132.7946 163.3527
  A 10.12 4.06 96.1 0 0 137.9070 153.7214
  A 10.12 4.06 96.1 0 0 134.9454 143.2273
  A 10.12 4.06 96.1 0 0 129.8330 152.8586
  A 10.12 4.06 96.1 0 0 132.7946 163.3527
  Z
  M 77.05 206.97
  Q 78.68 208.37 80.69 209.19
  Q 81.87 209.67 81.00 208.75
  Q 71.03 198.31 73.25 183.75
  Q 74.35 176.52 79.50 152.25
  Q 79.83 150.68 79.61 149.48
  Q 79.52 148.94 79.38 149.49
  Q 73.83 172.98 71.44 180.94
  Q 67.62 193.65 74.82 204.44
  Q 75.77 205.87 77.05 206.97
  Z
  M 184.16 171.06
  Q 183.92 174.50 181.19 175.86
  Q 179.09 176.90 177.26 176.07
  Q 175.22 175.14 174.75 172.25
  Q 174.13 168.49 175.15 165.58
  Q 176.03 163.06 178.14 162.08
  Q 180.57 160.96 183.29 162.35
  Q 183.64 162.52 184.02 162.88
  Q 186.21 164.94 184.81 161.77
  A 2.49 2.48 86.0 0 0 183.23 160.39
  Q 178.86 159.12 176.00 161.10
  Q 173.58 162.77 172.58 166.61
  Q 171.52 170.69 172.97 174.75
  Q 173.78 176.99 175.37 178.14
  Q 177.47 179.66 179.75 179.00
  Q 186.57 177.02 186.50 169.85
  Q 186.48 167.68 184.34 167.99
  Q 181.35 168.41 178.55 169.32
  Q 177.90 169.53 177.58 169.89
  Q 176.86 170.70 177.87 171.24
  Q 178.39 171.52 179.18 171.44
  Q 181.47 171.21 183.70 170.68
  A 0.37 0.36 -4.7 0 1 184.16 171.06
  Z
  M 142.14 172.73
  Q 140.36 172.93 138.63 174.37
  Q 136.02 176.53 133.42 178.70
  Q 125.14 185.57 114.59 185.82
  Q 109.91 185.93 108.57 186.67
  Q 105.10 188.59 106.94 193.81
  Q 108.95 199.55 114.94 202.13
  Q 122.25 205.28 129.62 202.28
  Q 139.24 198.35 143.41 189.42
  Q 145.38 185.21 145.78 182.07
  Q 146.29 178.14 144.64 174.21
  Q 143.94 172.54 142.14 172.73
  Z"
/>
<path fill="#fff700" d="
  M 101.87 42.49
  Q 102.57 44.39 103.67 42.69
  Q 109.39 33.77 115.55 27.80
  Q 119.39 24.08 124.42 23.39
  Q 128.03 22.90 130.28 24.55
  Q 132.88 26.46 133.31 30.44
  Q 133.55 32.61 132.46 31.06
  Q 132.28 30.80 132.12 30.40
  Q 129.99 25.13 124.75 26.25
  Q 120.40 27.18 116.40 31.40
  Q 109.37 38.79 103.93 47.45
  Q 101.84 50.77 100.60 47.05
  Q 98.68 41.31 96.41 35.40
  Q 96.06 34.49 96.82 34.82
  Q 97.04 34.91 97.24 35.14
  Q 100.54 38.91 101.87 42.49
  Z"
/>
<path fill="#ff005e" d="
  M 149.96 29.00
  L 146.25 28.21
  Q 147.35 26.62 149.20 26.16
  A 0.92 0.84 -27.4 0 1 150.06 26.39
  Q 151.16 27.51 149.96 29.00
  Z"
/>
<path fill="#ffffff" d="
  M 146.25 28.21
  L 149.96 29.00
  Q 152.62 31.95 154.54 35.59
  Q 159.47 53.69 162.06 59.69
  Q 163.86 63.86 166.33 67.68
  Q 166.67 68.19 166.35 68.22
  A 0.63 0.40 59.9 0 1 165.88 67.97
  Q 161.65 62.99 159.56 57.94
  Q 158.03 54.23 153.46 41.25
  Q 152.26 36.82 149.85 33.00
  Q 149.47 32.40 149.27 33.08
  Q 147.40 39.40 145.41 44.67
  Q 142.22 53.10 140.99 61.92
  Q 139.54 72.33 141.32 79.53
  Q 144.50 92.32 157.06 99.44
  Q 164.66 103.74 169.54 111.46
  Q 180.74 129.17 180.24 150.25
  Q 180.19 152.28 178.29 152.50
  Q 177.27 151.25 177.25 150.25
  Q 176.96 133.17 169.29 118.00
  Q 163.07 104.00 148.89 98.04
  Q 138.97 88.54 137.79 75.00
  A 0.94 0.92 -78.1 0 0 137.32 74.26
  Q 132.77 71.66 130.81 68.44
  Q 125.73 60.07 124.96 48.50
  L 124.79 44.25
  L 124.75 36.17
  A 0.51 0.51 76.8 0 0 124.01 35.71
  Q 118.63 38.43 114.49 42.49
  Q 106.11 50.71 100.55 61.08
  Q 99.63 62.79 98.78 61.05
  Q 97.05 57.52 94.73 53.74
  Q 90.83 47.38 84.33 43.75
  Q 78.03 40.25 71.72 43.74
  Q 65.74 47.04 62.54 53.03
  Q 53.17 67.85 51.19 86.69
  Q 50.72 91.17 51.60 94.26
  A 0.38 0.38 -24.6 0 0 52.17 94.47
  Q 57.43 91.01 63.32 88.81
  A 1.28 1.28 76.8 0 1 65.04 89.88
  Q 66.27 102.37 72.65 113.18
  Q 75.45 117.92 78.21 120.09
  Q 81.94 123.02 86.75 123.50
  Q 91.30 123.96 98.73 123.25
  Q 115.18 121.70 132.00 117.00
  Q 145.00 113.37 156.25 107.06
  Q 156.70 106.81 156.32 107.16
  Q 151.65 111.48 144.56 115.06
  Q 133.47 120.67 121.63 123.25
  Q 120.57 123.47 121.55 123.93
  Q 130.68 128.21 139.19 133.59
  Q 140.04 134.12 140.58 134.65
  Q 143.05 137.07 139.35 136.42
  Q 138.58 136.29 137.70 135.92
  Q 127.01 131.52 116.40 125.08
  A 1.96 1.95 -34.5 0 0 115.02 124.83
  Q 108.96 125.94 103.34 127.21
  Q 100.65 127.82 99.06 129.17
  Q 97.45 130.53 95.68 132.64
  Q 94.17 134.43 92.15 133.26
  Q 90.08 132.06 93.42 129.58
  Q 94.20 129.00 93.23 129.00
  L 88.84 129.00
  A 0.45 0.45 -3.9 0 0 88.39 129.51
  Q 89.31 135.91 88.74 141.92
  Q 88.59 143.43 86.70 154.08
  Q 85.28 162.08 83.66 169.99
  Q 81.83 173.59 81.46 177.50
  Q 79.68 184.56 80.23 192.55
  Q 86.07 210.63 105.53 215.20
  Q 106.90 216.72 109.15 217.21
  Q 110.17 217.44 109.27 217.34
  Q 92.60 215.51 82.31 203.94
  Q 79.35 200.60 77.75 194.50
  Q 75.74 186.81 78.52 176.75
  Q 82.04 164.01 84.39 151.01
  Q 84.41 150.87 85.79 144.03
  Q 87.21 136.95 87.19 129.67
  A 0.96 0.95 4.6 0 0 86.38 128.73
  Q 78.93 127.54 73.39 123.11
  Q 68.30 119.05 65.41 112.06
  Q 61.84 103.47 62.27 93.47
  Q 62.35 91.57 60.87 92.74
  Q 57.81 95.15 54.47 97.25
  Q 52.43 98.53 51.18 98.53
  Q 48.87 98.53 48.19 95.56
  Q 47.26 91.51 47.46 88.50
  Q 48.61 71.00 57.44 54.44
  Q 62.57 44.81 71.25 39.96
  Q 80.04 37.05 86.69 41.81
  Q 94.02 47.07 98.60 57.27
  Q 98.60 58.37 99.21 59.34
  Q 99.49 59.78 99.70 59.30
  Q 107.73 41.11 125.36 31.96
  Q 127.23 33.48 127.25 35.00
  Q 127.30 38.34 127.17 42.36
  Q 127.14 43.13 127.59 42.53
  L 130.04 39.25
  Q 136.67 31.53 146.25 28.21
  Z
  M 137.00 35.79
  Q 132.55 39.10 129.50 43.71
  Q 126.99 45.09 126.94 48.00
  Q 126.73 58.58 132.91 67.05
  Q 134.47 69.30 136.75 70.68
  A 0.33 0.32 -70.6 0 0 137.23 70.44
  L 139.54 54.50
  Q 140.69 52.51 141.75 48.75
  Q 142.63 45.64 146.20 37.23
  Q 147.17 34.95 147.48 32.63
  Q 147.84 30.01 145.32 30.81
  Q 140.56 32.32 137.00 35.79
  Z"
/>
<path fill="#ff005e" d="
  M 139.54 54.50
  Q 135.79 47.48 135.50 39.50
  Q 135.47 38.74 137.00 35.79
  Q 140.56 32.32 145.32 30.81
  Q 147.84 30.01 147.48 32.63
  Q 147.17 34.95 146.20 37.23
  Q 142.63 45.64 141.75 48.75
  Q 140.69 52.51 139.54 54.50
  Z"
/>
<path fill="#ff005e" d="
  M 130.04 39.25
  L 127.59 42.53
  Q 127.14 43.13 127.17 42.36
  Q 127.30 38.34 127.25 35.00
  Q 127.23 33.48 125.36 31.96
  Q 127.45 31.29 128.62 32.36
  Q 129.38 33.05 129.59 35.00
  Q 129.82 37.13 130.04 39.25
  Z"
/>
<path fill="#ff005e" d="
  M 169.00 60.21
  Q 166.92 60.85 164.78 61.21
  Q 163.51 61.42 164.33 61.83
  Q 164.53 61.94 164.82 61.95
  Q 179.86 62.77 190.04 72.07
  Q 196.06 77.56 202.08 87.64
  Q 207.37 96.50 209.75 106.00
  Q 211.91 114.64 207.75 123.54
  Q 203.08 130.32 195.79 134.63
  Q 192.77 136.40 192.40 132.92
  Q 191.51 124.59 188.96 115.01
  Q 185.92 103.57 176.44 96.55
  Q 172.68 93.77 168.83 91.11
  Q 168.77 91.07 164.97 88.63
  Q 149.30 78.55 150.75 58.50
  Q 151.49 48.31 153.46 41.25
  Q 158.03 54.23 159.56 57.94
  Q 161.65 62.99 165.88 67.97
  A 0.63 0.40 59.9 0 0 166.35 68.22
  Q 166.67 68.19 166.33 67.68
  Q 163.86 63.86 162.06 59.69
  Q 159.47 53.69 154.54 35.59
  Q 155.98 30.79 157.02 34.81
  Q 160.58 48.67 169.00 60.21
  Z"
/>
<path fill="#ff005e" d="
  M 98.60 57.27
  Q 94.02 47.07 86.69 41.81
  Q 80.04 37.05 71.25 39.96
  Q 74.28 35.76 78.06 34.31
  Q 85.67 31.40 90.94 38.06
  Q 98.18 47.23 98.60 57.27
  Z"
/>
<path fill="#ff005e" d="
  M 124.79 44.25
  Q 123.54 46.49 124.96 48.50
  Q 125.73 60.07 130.81 68.44
  Q 132.77 71.66 137.32 74.26
  A 0.94 0.92 -78.1 0 1 137.79 75.00
  Q 138.97 88.54 148.89 98.04
  Q 130.66 106.65 110.50 108.25
  Q 102.55 108.87 94.78 107.11
  Q 84.90 104.86 81.73 95.26
  Q 80.38 91.20 78.19 83.56
  Q 77.38 80.77 75.23 78.26
  Q 73.57 76.34 71.38 76.51
  Q 69.88 76.62 67.86 78.08
  Q 65.63 79.70 63.80 81.81
  Q 61.53 84.44 58.69 86.44
  Q 56.56 87.93 56.50 85.00
  Q 56.15 68.36 62.54 53.03
  Q 65.74 47.04 71.72 43.74
  Q 78.03 40.25 84.33 43.75
  Q 90.83 47.38 94.73 53.74
  Q 97.05 57.52 98.78 61.05
  Q 99.63 62.79 100.55 61.08
  Q 106.11 50.71 114.49 42.49
  Q 118.63 38.43 124.01 35.71
  A 0.51 0.51 76.8 0 1 124.75 36.17
  L 124.79 44.25
  Z"
/>
<path fill="#0e0d0d" d="
  M 137.00 35.79
  Q 135.47 38.74 135.50 39.50
  Q 135.79 47.48 139.54 54.50
  L 137.23 70.44
  A 0.33 0.32 -70.6 0 1 136.75 70.68
  Q 134.47 69.30 132.91 67.05
  Q 130.33 55.40 129.50 43.71
  Q 132.55 39.10 137.00 35.79
  Z"
/>
<path fill="#ff005e" d="
  M 129.50 43.71
  Q 130.33 55.40 132.91 67.05
  Q 126.73 58.58 126.94 48.00
  Q 126.99 45.09 129.50 43.71
  Z"
/>
<path fill="#560227" d="
  M 124.79 44.25
  L 124.96 48.50
  Q 123.54 46.49 124.79 44.25
  Z"
/>
<path fill="#ff005e" d="
  M 213.82 103.23
  Q 209.45 91.42 203.06 81.69
  Q 193.52 67.14 176.75 61.54
  Q 180.20 56.87 185.94 59.81
  Q 192.15 63.00 196.86 68.15
  Q 199.55 71.08 202.28 73.97
  Q 213.87 86.26 213.82 103.23
  Z"
/>
<path fill="#ffffff" d="
  M 169.00 60.21
  L 176.75 61.54
  Q 193.52 67.14 203.06 81.69
  Q 209.45 91.42 213.82 103.23
  Q 215.61 111.00 214.19 116.69
  Q 208.86 138.04 190.69 150.69
  Q 189.34 151.63 188.00 151.56
  Q 187.47 151.53 187.83 151.13
  Q 190.50 148.12 194.81 144.06
  Q 203.77 135.63 207.75 123.54
  Q 211.91 114.64 209.75 106.00
  Q 207.37 96.50 202.08 87.64
  Q 196.06 77.56 190.04 72.07
  Q 179.86 62.77 164.82 61.95
  Q 164.53 61.94 164.33 61.83
  Q 163.51 61.42 164.78 61.21
  Q 166.92 60.85 169.00 60.21
  Z"
/>
<path fill="#fff700" d="
  M 46.11 103.70
  Q 47.12 105.37 48.92 104.20
  L 56.08 99.55
  Q 59.02 97.65 58.25 101.23
  Q 57.50 104.74 58.99 107.97
  Q 60.77 111.82 63.24 115.28
  A 0.76 0.46 45.3 0 1 63.39 115.89
  Q 63.26 116.24 62.77 115.73
  Q 58.14 110.93 55.52 103.90
  A 0.52 0.52 -31.5 0 0 54.68 103.70
  Q 52.64 105.53 50.32 107.01
  Q 45.85 109.85 43.25 105.25
  Q 42.21 103.41 41.62 99.81
  Q 41.20 97.27 41.21 94.17
  Q 41.24 81.28 45.40 69.04
  Q 45.66 68.26 46.01 68.75
  Q 46.17 68.98 46.02 69.51
  Q 42.80 80.90 43.14 92.75
  Q 43.32 99.08 46.11 103.70
  Z"
/>
<path fill="#ffffff" d="
  M 163.56 171.19
  Q 165.15 172.04 164.28 172.70
  Q 163.86 173.03 163.14 172.95
  Q 157.70 172.35 154.94 167.31
  Q 151.90 161.77 151.45 155.98
  Q 150.14 138.93 159.94 124.19
  Q 162.60 120.18 165.04 118.05
  Q 165.34 117.78 165.65 117.73
  Q 166.56 117.57 165.94 118.69
  Q 159.69 129.83 156.60 139.91
  Q 153.05 151.47 156.83 162.60
  Q 157.87 165.67 159.29 167.52
  Q 161.07 169.85 163.56 171.19
  Z"
/>
<path fill="#ff005e" d="
  M 169.29 118.00
  Q 176.96 133.17 177.25 150.25
  Q 177.27 151.25 178.29 152.50
  Q 178.09 152.72 178.04 153.00
  Q 174.24 154.44 172.25 157.96
  Q 170.36 158.71 169.19 158.06
  Q 167.01 156.86 165.86 153.67
  Q 159.13 134.92 169.29 118.00
  Z"
/>
<path fill="#ffffff" d="
  M 101.25 146.30
  Q 100.77 150.24 99.54 153.98
  Q 98.85 156.09 97.63 156.94
  Q 95.76 158.23 94.31 156.24
  Q 93.56 155.21 93.37 153.44
  Q 92.60 146.01 95.31 140.56
  Q 96.53 138.12 100.00 139.00
  Q 102.51 139.64 103.99 142.75
  Q 108.22 151.63 105.50 161.50
  Q 104.61 164.74 102.74 166.98
  Q 99.48 170.90 93.11 168.79
  Q 91.05 168.11 89.48 169.61
  Q 87.23 171.77 88.25 175.04
  Q 88.93 177.23 90.76 178.12
  Q 92.61 179.02 95.00 178.75
  Q 100.27 178.15 104.55 176.44
  A 0.48 0.38 -15.7 0 1 105.19 176.71
  Q 105.24 177.20 104.59 177.61
  Q 99.62 180.72 93.95 180.76
  Q 89.76 180.78 87.60 178.66
  Q 84.83 175.93 86.20 171.06
  Q 87.94 164.87 94.31 167.44
  Q 99.52 169.54 102.28 164.54
  Q 107.55 155.01 101.59 146.22
  Q 101.31 145.81 101.25 146.30
  Z"
/>
<ellipse fill="#ffffff" cx="0.00" cy="0.00" transform="translate(133.87,153.29) rotate(96.1)" rx="10.12" ry="4.06"/>
<path fill="#fff700" d="
  M 77.05 206.97
  Q 75.77 205.87 74.82 204.44
  Q 67.62 193.65 71.44 180.94
  Q 73.83 172.98 79.38 149.49
  Q 79.52 148.94 79.61 149.48
  Q 79.83 150.68 79.50 152.25
  Q 74.35 176.52 73.25 183.75
  Q 71.03 198.31 81.00 208.75
  Q 81.87 209.67 80.69 209.19
  Q 78.68 208.37 77.05 206.97
  Z"
/>
<path fill="#ffffff" d="
  M 172.25 157.96
  Q 174.24 154.44 178.04 153.00
  Q 187.50 151.18 191.36 157.52
  Q 194.24 162.27 193.43 169.48
  Q 192.14 180.85 180.71 184.68
  Q 177.32 185.81 174.70 185.15
  Q 171.43 184.33 169.42 181.57
  Q 168.46 180.24 167.66 177.60
  Q 167.01 175.49 166.46 173.40
  Q 166.42 173.23 166.39 173.40
  Q 165.38 179.57 163.40 185.05
  Q 161.24 191.00 158.40 195.92
  Q 151.02 208.68 136.82 214.58
  Q 131.16 216.93 125.54 219.35
  Q 124.21 219.93 123.68 220.52
  Q 122.75 221.56 124.13 221.37
  Q 129.71 220.61 134.48 218.53
  Q 142.24 215.13 150.37 212.83
  Q 152.96 212.10 154.70 212.05
  Q 160.12 211.89 157.25 216.24
  Q 156.39 217.54 154.55 219.08
  Q 150.74 222.27 147.22 225.22
  Q 143.52 228.32 148.23 227.25
  Q 152.86 226.20 157.50 225.25
  Q 159.24 224.90 160.03 225.04
  Q 162.05 225.40 161.28 227.90
  A 1.01 1.01 14.2 0 0 162.05 229.19
  Q 171.65 231.09 181.43 231.06
  A 0.67 0.47 -0.4 0 1 182.10 231.52
  Q 182.11 231.97 181.20 231.84
  Q 180.65 231.76 180.29 231.78
  Q 173.71 232.24 170.00 231.50
  Q 165.52 230.61 163.35 230.35
  Q 161.83 230.17 161.23 229.86
  Q 159.81 229.13 160.02 227.81
  A 1.22 1.21 86.9 0 0 158.50 226.44
  Q 153.02 227.95 148.70 229.02
  Q 146.27 229.63 144.76 229.39
  Q 141.27 228.85 142.97 225.66
  Q 143.62 224.46 145.23 223.00
  Q 149.28 219.31 153.45 216.12
  Q 155.55 214.51 153.01 215.25
  Q 142.97 218.16 133.24 221.98
  Q 129.70 223.37 125.97 223.97
  Q 123.25 224.40 121.57 223.72
  Q 118.12 222.31 121.06 218.06
  Q 122.10 216.57 126.09 214.89
  Q 128.79 213.75 137.50 210.00
  Q 143.06 207.61 147.04 204.04
  Q 160.20 192.25 164.73 175.25
  Q 165.06 174.01 165.80 171.68
  Q 166.37 169.90 166.72 168.06
  A 0.45 0.39 -72.9 0 1 167.28 167.71
  Q 167.92 168.00 168.00 168.74
  Q 168.11 169.66 168.13 169.73
  Q 168.49 171.22 168.51 172.75
  Q 168.56 175.49 169.53 177.96
  Q 170.58 180.67 172.70 181.97
  Q 175.63 183.78 179.43 182.88
  Q 185.65 181.40 188.30 175.62
  Q 191.46 168.73 189.00 161.50
  Q 187.97 158.48 185.52 156.89
  Q 183.39 155.52 180.24 155.60
  Q 176.03 155.71 172.25 157.96
  Z"
/>
<path fill="#ffffff" d="
  M 183.70 170.68
  Q 181.47 171.21 179.18 171.44
  Q 178.39 171.52 177.87 171.24
  Q 176.86 170.70 177.58 169.89
  Q 177.90 169.53 178.55 169.32
  Q 181.35 168.41 184.34 167.99
  Q 186.48 167.68 186.50 169.85
  Q 186.57 177.02 179.75 179.00
  Q 177.47 179.66 175.37 178.14
  Q 173.78 176.99 172.97 174.75
  Q 171.52 170.69 172.58 166.61
  Q 173.58 162.77 176.00 161.10
  Q 178.86 159.12 183.23 160.39
  A 2.49 2.48 86.0 0 1 184.81 161.77
  Q 186.21 164.94 184.02 162.88
  Q 183.64 162.52 183.29 162.35
  Q 180.57 160.96 178.14 162.08
  Q 176.03 163.06 175.15 165.58
  Q 174.13 168.49 174.75 172.25
  Q 175.22 175.14 177.26 176.07
  Q 179.09 176.90 181.19 175.86
  Q 183.92 174.50 184.16 171.06
  A 0.37 0.36 -4.7 0 0 183.70 170.68
  Z"
/>
<path fill="#ff005e" d="
  M 83.66 169.99
  Q 84.16 183.35 84.75 186.00
  Q 88.95 204.92 105.53 215.20
  Q 86.07 210.63 80.23 192.55
  Q 81.57 182.04 81.81 179.31
  Q 81.86 178.74 81.46 177.50
  Q 81.83 173.59 83.66 169.99
  Z"
/>
<path fill="#ffffff" d="
  M 142.14 172.73
  Q 143.94 172.54 144.64 174.21
  Q 146.29 178.14 145.78 182.07
  Q 145.38 185.21 143.41 189.42
  Q 139.24 198.35 129.62 202.28
  Q 122.25 205.28 114.94 202.13
  Q 108.95 199.55 106.94 193.81
  Q 105.10 188.59 108.57 186.67
  Q 109.91 185.93 114.59 185.82
  Q 125.14 185.57 133.42 178.70
  Q 136.02 176.53 138.63 174.37
  Q 140.36 172.93 142.14 172.73
  Z
  M 137.13 192.43
  Q 127.05 191.66 118.25 195.96
  Q 116.62 196.56 116.96 195.98
  Q 117.10 195.74 117.49 195.49
  Q 123.57 191.54 130.75 190.46
  Q 134.52 190.95 138.64 190.21
  Q 140.16 191.48 140.86 190.08
  Q 141.31 189.18 141.36 189.09
  Q 145.23 182.79 143.41 175.46
  Q 142.90 173.38 141.14 174.61
  Q 138.86 176.20 136.51 178.51
  Q 125.93 188.91 111.67 187.32
  Q 108.06 186.92 108.06 190.55
  Q 108.07 195.47 111.98 198.30
  Q 115.07 200.54 118.68 201.33
  Q 122.05 202.06 125.83 201.28
  Q 133.07 199.78 138.01 193.93
  Q 138.07 193.85 138.66 193.22
  Q 139.95 191.83 137.13 192.43
  Z"
/>
<path fill="#0e0d0d" d="
  M 138.64 190.21
  Q 134.71 187.93 130.75 190.46
  Q 123.57 191.54 117.49 195.49
  Q 117.10 195.74 116.96 195.98
  Q 116.62 196.56 118.25 195.96
  Q 119.14 198.17 122.00 198.00
  Q 130.95 197.47 137.13 192.43
  Q 139.95 191.83 138.66 193.22
  Q 138.07 193.85 138.01 193.93
  Q 133.07 199.78 125.83 201.28
  Q 122.05 202.06 118.68 201.33
  Q 115.07 200.54 111.98 198.30
  Q 108.07 195.47 108.06 190.55
  Q 108.06 186.92 111.67 187.32
  Q 125.93 188.91 136.51 178.51
  Q 138.86 176.20 141.14 174.61
  Q 142.90 173.38 143.41 175.46
  Q 145.23 182.79 141.36 189.09
  Q 141.31 189.18 140.86 190.08
  Q 140.16 191.48 138.64 190.21
  Z"
/>
<path fill="#560227" d="
  M 81.46 177.50
  Q 81.86 178.74 81.81 179.31
  Q 81.57 182.04 80.23 192.55
  Q 79.68 184.56 81.46 177.50
  Z"
/>
<path fill="#ff005e" d="
  M 138.64 190.21
  Q 134.52 190.95 130.75 190.46
  Q 134.71 187.93 138.64 190.21
  Z"
/>
<path fill="#ff005e" d="
  M 137.13 192.43
  Q 130.95 197.47 122.00 198.00
  Q 119.14 198.17 118.25 195.96
  Q 127.05 191.66 137.13 192.43
  Z"
/>
</svg>
