<?xml version="1.0" encoding="UTF-8"?>
<svg xmlns="http://www.w3.org/2000/svg" xmlns:xlink="http://www.w3.org/1999/xlink" width="256px" height="256px" viewBox="0 0 256 256" version="1.1">
<g id="surface1">
<path style=" stroke:none;fill-rule:evenodd;fill:rgb(2.352941%,1.960784%,1.568627%);fill-opacity:1;" d="M 99.648438 23.464844 C 99.398438 23.566406 99.328125 26.007812 99.328125 34.460938 L 99.328125 45.324219 L 99.984375 45.574219 C 100.402344 45.734375 115.410156 45.824219 141.042969 45.824219 C 174.832031 45.824219 181.488281 45.882812 181.730469 46.171875 C 181.945312 46.429688 182.003906 65.65625 181.953125 120.09375 L 181.886719 193.664062 L 181.21875 195.070312 C 180.582031 196.402344 180.027344 197.902344 179.417969 199.9375 C 179.269531 200.429688 179.007812 201.003906 178.839844 201.214844 C 178.667969 201.425781 178.320312 202.082031 178.0625 202.675781 C 177.492188 203.996094 176.984375 204.460938 174.796875 205.660156 C 173.851562 206.179688 173.015625 206.707031 172.9375 206.835938 C 172.859375 206.960938 172.234375 207.25 171.554688 207.476562 C 170.871094 207.703125 170.054688 208.164062 169.738281 208.5 C 169.34375 208.921875 168.757812 209.164062 167.847656 209.277344 C 167.121094 209.371094 166.007812 209.640625 165.375 209.875 C 163.625 210.527344 92.734375 210.535156 90.753906 209.882812 C 90.046875 209.652344 88.933594 209.386719 88.273438 209.292969 C 87.523438 209.1875 86.726562 208.847656 86.132812 208.375 C 85.613281 207.960938 84.816406 207.519531 84.367188 207.394531 C 83.914062 207.273438 82.976562 206.773438 82.285156 206.292969 C 81.589844 205.808594 80.65625 205.265625 80.210938 205.082031 C 78.8125 204.515625 77.460938 202.277344 76.085938 198.25 C 75.65625 196.992188 75.125 195.613281 74.902344 195.175781 C 74.0625 193.53125 73.984375 191.683594 73.980469 173.726562 C 73.980469 163.851562 73.90625 155.515625 73.824219 155.199219 L 73.667969 154.625 L 59.285156 154.625 C 48.441406 154.625 44.828125 154.699219 44.59375 154.929688 C 44 155.527344 44.183594 190.070312 44.804688 194.304688 C 45.082031 196.203125 45.3125 198.3125 45.3125 198.984375 C 45.3125 199.65625 45.46875 200.582031 45.660156 201.039062 C 45.851562 201.496094 46.09375 202.550781 46.195312 203.382812 C 46.300781 204.210938 46.546875 205.140625 46.746094 205.441406 C 46.945312 205.746094 47.277344 206.574219 47.488281 207.285156 C 47.699219 207.996094 48.050781 208.722656 48.265625 208.902344 C 48.894531 209.425781 50.15625 211.414062 50.339844 212.167969 C 50.617188 213.335938 51.371094 214.597656 52.527344 215.835938 C 53.136719 216.484375 54.105469 217.582031 54.683594 218.273438 C 55.261719 218.964844 56.277344 219.808594 56.941406 220.152344 C 57.609375 220.492188 58.402344 221.082031 58.707031 221.460938 C 59.015625 221.839844 59.546875 222.503906 59.894531 222.9375 C 60.242188 223.371094 60.875 223.804688 61.300781 223.894531 C 62.460938 224.144531 63.785156 224.894531 64.570312 225.746094 C 64.953125 226.160156 65.585938 226.578125 65.976562 226.667969 C 66.367188 226.761719 67.207031 227.078125 67.839844 227.375 C 70.054688 228.410156 70.535156 228.589844 71.550781 228.746094 C 72.113281 228.835938 73.09375 229.058594 73.726562 229.246094 C 74.363281 229.433594 75.398438 229.660156 76.03125 229.75 C 76.664062 229.839844 77.925781 230.273438 78.832031 230.710938 C 80.15625 231.355469 81.058594 231.574219 83.4375 231.832031 C 85.066406 232.007812 87.019531 232.273438 87.777344 232.425781 C 89.609375 232.792969 166.835938 232.804688 168.320312 232.4375 C 168.882812 232.300781 170.792969 232.023438 172.566406 231.832031 C 175.238281 231.539062 176.050781 231.34375 177.304688 230.695312 C 178.136719 230.265625 179.449219 229.832031 180.222656 229.734375 C 181 229.632812 181.976562 229.410156 182.398438 229.238281 C 182.824219 229.066406 183.71875 228.847656 184.386719 228.75 C 185.539062 228.585938 187.230469 227.980469 188.671875 227.21875 C 189.023438 227.035156 189.746094 226.742188 190.28125 226.570312 C 190.8125 226.398438 191.433594 225.976562 191.660156 225.632812 C 192.046875 225.039062 193.386719 224.292969 194.816406 223.871094 C 195.65625 223.625 196.28125 223.0625 197.027344 221.890625 C 197.390625 221.320312 198.121094 220.6875 198.855469 220.316406 C 199.523438 219.976562 200.589844 219.125 201.222656 218.425781 C 204.378906 214.921875 204.984375 214.113281 205.539062 212.621094 C 206.039062 211.285156 206.574219 210.390625 207.9375 208.613281 C 208.324219 208.109375 208.640625 207.472656 208.640625 207.203125 C 208.640625 206.933594 208.867188 206.289062 209.144531 205.769531 C 209.421875 205.253906 209.773438 204.058594 209.925781 203.113281 C 210.074219 202.167969 210.308594 201.191406 210.441406 200.941406 C 210.578125 200.6875 210.6875 200.019531 210.6875 199.453125 C 210.6875 198.886719 210.917969 196.828125 211.199219 194.875 C 211.707031 191.375 211.710938 190.167969 211.648438 107.375 L 211.585938 23.425781 L 155.777344 23.378906 C 125.082031 23.355469 99.824219 23.394531 99.648438 23.464844 "/>
<path style=" stroke:none;fill-rule:evenodd;fill:rgb(73.72549%,54.509804%,26.666667%);fill-opacity:1;" d="M 0 128 L 0 256 L 256 256 L 256 0 L 0 0 L 0 128 M 212.535156 22.332031 C 213.296875 23.320312 213.238281 194.726562 212.472656 197.886719 C 211.585938 201.558594 211.457031 202.21875 211.457031 203.007812 C 211.457031 203.429688 211.226562 204.375 210.945312 205.117188 C 210.664062 205.859375 210.429688 206.636719 210.421875 206.847656 C 210.417969 207.058594 210.191406 207.691406 209.921875 208.257812 C 209.648438 208.820312 209.421875 209.46875 209.417969 209.699219 C 209.410156 209.929688 209.121094 210.191406 208.769531 210.28125 C 208.414062 210.371094 208.128906 210.550781 208.128906 210.679688 C 208.128906 210.8125 207.796875 211.484375 207.386719 212.175781 C 206.980469 212.867188 206.570312 213.78125 206.476562 214.207031 C 206.382812 214.636719 206.082031 215.191406 205.808594 215.4375 C 205.535156 215.683594 205.3125 215.972656 205.3125 216.082031 C 205.3125 216.40625 203.953125 218.367188 203.726562 218.367188 C 203.609375 218.367188 202.796875 219.054688 201.917969 219.898438 C 201.039062 220.738281 200.160156 221.429688 199.964844 221.433594 C 199.636719 221.4375 199.152344 221.894531 197.75 223.523438 C 197.007812 224.386719 195.882812 225.136719 194.339844 225.800781 C 193.605469 226.117188 192.886719 226.597656 192.742188 226.867188 C 192.394531 227.511719 190.996094 228.351562 190.257812 228.351562 C 189.933594 228.351562 189.300781 228.542969 188.851562 228.777344 C 188.402344 229.011719 187.6875 229.289062 187.265625 229.394531 C 185.003906 229.960938 183.421875 230.441406 183.183594 230.632812 C 183.035156 230.753906 182.234375 230.929688 181.40625 231.03125 C 180.34375 231.160156 179.742188 231.382812 179.359375 231.785156 C 178.65625 232.527344 178.191406 232.6875 175.871094 232.992188 C 166.078125 234.28125 163.054688 234.367188 128.128906 234.367188 C 92.746094 234.367188 90.226562 234.292969 80.382812 232.980469 C 77.582031 232.605469 77.003906 232.429688 76.867188 231.914062 C 76.78125 231.582031 76.335938 231.371094 75.300781 231.175781 C 74.507812 231.027344 73.164062 230.6875 72.320312 230.425781 C 71.476562 230.160156 70.265625 229.804688 69.632812 229.632812 C 69 229.464844 68.007812 229.105469 67.429688 228.835938 C 66.847656 228.570312 66.085938 228.351562 65.734375 228.351562 C 65.074219 228.351562 63.9375 227.605469 63.199219 226.6875 C 62.96875 226.402344 62.21875 225.96875 61.535156 225.71875 C 60.378906 225.300781 57.597656 223.121094 57.597656 222.632812 C 57.601562 222.332031 56.515625 221.457031 56.125 221.449219 C 55.847656 221.441406 55.011719 220.726562 52.96875 218.757812 C 52.746094 218.542969 52.4375 218.367188 52.28125 218.367188 C 52 218.367188 51.597656 217.75 50.835938 216.160156 C 50.625 215.71875 50.273438 215.289062 50.058594 215.207031 C 49.824219 215.117188 49.664062 214.742188 49.664062 214.296875 C 49.664062 213.875 49.539062 213.457031 49.382812 213.359375 C 49.226562 213.265625 48.929688 212.824219 48.71875 212.382812 C 47.921875 210.703125 47.746094 210.457031 47.179688 210.199219 C 46.855469 210.050781 46.59375 209.785156 46.59375 209.609375 C 46.59375 209.433594 46.371094 208.710938 46.097656 208.003906 C 45.296875 205.929688 44.601562 203.28125 44.277344 201.089844 C 44.113281 199.960938 43.757812 198.1875 43.492188 197.144531 C 43.035156 195.359375 43.007812 194.011719 43.007812 174.6875 L 43.007812 154.132812 L 43.566406 153.609375 C 44.429688 152.808594 73.878906 152.792969 75.191406 153.59375 C 76.335938 154.289062 76.273438 153.1875 76.367188 174.464844 L 76.453125 193.664062 L 77.113281 196.371094 C 77.746094 198.949219 77.980469 199.550781 79.289062 201.925781 C 80.027344 203.265625 83.09375 205.339844 85.507812 206.132812 C 86.585938 206.488281 87.347656 206.890625 87.433594 207.15625 C 87.601562 207.664062 87.917969 207.78125 89.984375 208.105469 C 90.828125 208.238281 92.382812 208.496094 93.441406 208.683594 C 96.160156 209.164062 160.0625 209.183594 162.558594 208.703125 C 163.476562 208.527344 165.089844 208.265625 166.144531 208.121094 C 167.636719 207.917969 168.175781 207.726562 168.574219 207.261719 C 168.859375 206.933594 169.894531 206.386719 170.878906 206.050781 C 171.867188 205.714844 172.789062 205.351562 172.929688 205.246094 C 173.070312 205.136719 173.632812 204.707031 174.179688 204.285156 C 174.726562 203.863281 175.273438 203.519531 175.394531 203.519531 C 175.746094 203.519531 176.640625 202.53125 176.640625 202.148438 C 176.640625 201.953125 176.84375 201.523438 177.097656 201.1875 C 177.84375 200.1875 178.636719 198.34375 178.789062 197.246094 C 178.867188 196.683594 179.074219 195.707031 179.246094 195.070312 C 179.605469 193.730469 179.992188 47.679688 179.636719 47.230469 C 179.5 47.0625 165.683594 46.953125 139.335938 46.914062 C 103.890625 46.855469 99.171875 46.804688 98.644531 46.457031 L 98.046875 46.070312 L 98.054688 34.492188 C 98.058594 21.792969 98.046875 21.917969 99.585938 21.714844 C 99.9375 21.667969 125.394531 21.660156 156.15625 21.691406 L 212.085938 21.75 L 212.535156 22.332031 "/>
<path style=" stroke:none;fill-rule:evenodd;fill:rgb(64.313725%,45.490196%,20.392157%);fill-opacity:1;" d="M 98.933594 22.644531 L 98.304688 23.273438 L 98.304688 34.421875 C 98.304688 45.226562 98.320312 45.582031 98.816406 46.078125 C 99.324219 46.585938 99.667969 46.59375 139.617188 46.59375 C 173.347656 46.59375 179.953125 46.648438 180.195312 46.941406 C 180.679688 47.527344 180.589844 189.589844 180.101562 191.617188 C 179.898438 192.460938 179.722656 193.726562 179.714844 194.433594 C 179.707031 195.136719 179.472656 196.214844 179.195312 196.828125 C 178.914062 197.441406 178.699219 198.304688 178.714844 198.75 L 178.742188 199.550781 L 178.925781 198.785156 C 179.027344 198.363281 179.238281 197.777344 179.394531 197.484375 C 179.550781 197.195312 179.820312 196.15625 179.988281 195.179688 C 180.15625 194.207031 180.480469 192.945312 180.707031 192.382812 C 181.214844 191.125 181.488281 47.777344 180.984375 46.835938 C 180.722656 46.34375 180.179688 46.335938 140.199219 46.335938 C 105.609375 46.335938 99.609375 46.28125 99.183594 45.972656 C 98.550781 45.507812 98.394531 23.617188 99.019531 22.988281 C 99.511719 22.496094 211.527344 22.496094 212.019531 22.988281 C 212.292969 23.261719 212.351562 39.066406 212.351562 109.132812 L 212.351562 194.945312 L 211.777344 196.878906 C 211.460938 197.945312 211.199219 199.335938 211.199219 199.96875 C 211.199219 200.605469 211.019531 201.726562 210.800781 202.46875 C 210.582031 203.207031 210.449219 204.003906 210.503906 204.242188 C 210.703125 205.078125 211.210938 203.238281 211.4375 200.859375 C 211.558594 199.578125 211.871094 198.007812 212.132812 197.375 C 212.59375 196.261719 212.609375 193.378906 212.675781 109.800781 L 212.746094 23.378906 L 212.210938 22.695312 L 211.675781 22.015625 L 99.5625 22.015625 L 98.933594 22.644531 M 43.890625 153.972656 L 43.265625 154.601562 L 43.269531 172.851562 C 43.277344 191.441406 43.445312 196.4375 44.117188 197.941406 C 44.328125 198.402344 44.570312 199.746094 44.65625 200.925781 C 44.746094 202.101562 44.984375 203.46875 45.191406 203.964844 C 45.398438 204.457031 45.566406 205.113281 45.566406 205.417969 C 45.566406 205.722656 45.785156 206.398438 46.050781 206.917969 C 46.316406 207.441406 46.605469 208.25 46.695312 208.71875 C 46.792969 209.25 47.144531 209.785156 47.617188 210.136719 C 48.039062 210.449219 48.550781 211.101562 48.753906 211.589844 C 49.070312 212.34375 49.664062 212.824219 49.664062 212.328125 C 49.664062 212.089844 48.632812 210.65625 47.695312 209.597656 C 47.230469 209.070312 46.847656 208.378906 46.847656 208.0625 C 46.84375 207.746094 46.679688 207.167969 46.472656 206.773438 C 45.9375 205.746094 44.800781 200.855469 44.800781 199.574219 C 44.800781 198.972656 44.601562 197.917969 44.359375 197.226562 C 43.808594 195.636719 43.515625 154.863281 44.054688 154.210938 C 44.625 153.527344 73.765625 153.699219 74.390625 154.394531 C 74.859375 154.910156 74.886719 155.699219 75.007812 173.402344 C 75.078125 183.5625 75.222656 192.007812 75.332031 192.171875 C 75.4375 192.335938 75.742188 193.488281 76.007812 194.730469 C 76.628906 197.640625 77.285156 199.429688 77.300781 198.265625 C 77.308594 197.839844 77.148438 197.253906 76.945312 196.96875 C 76.746094 196.679688 76.503906 195.703125 76.410156 194.796875 C 76.316406 193.894531 76.074219 192.1875 75.878906 191.007812 C 75.597656 189.316406 75.519531 185.25 75.519531 171.851562 C 75.519531 161.25 75.425781 154.671875 75.269531 154.378906 C 74.746094 153.402344 73.847656 153.34375 58.957031 153.34375 L 44.519531 153.34375 L 43.890625 153.972656 M 77.320312 199.636719 C 77.269531 201.769531 82.328125 206.273438 85.539062 206.957031 C 85.910156 207.035156 86.566406 207.429688 86.996094 207.832031 C 87.613281 208.40625 88.113281 208.597656 89.328125 208.726562 C 90.179688 208.816406 91.292969 209.0625 91.804688 209.277344 C 92.316406 209.488281 93.324219 209.652344 94.046875 209.640625 L 95.359375 209.617188 L 93.609375 209.152344 C 92.644531 208.894531 91.148438 208.605469 90.28125 208.503906 C 88.566406 208.308594 88.054688 208.109375 86.957031 207.195312 C 86.558594 206.863281 85.980469 206.589844 85.675781 206.589844 C 84.960938 206.589844 82.96875 205.578125 81.691406 204.566406 C 81.144531 204.132812 80.566406 203.777344 80.40625 203.777344 C 80.25 203.777344 79.894531 203.402344 79.617188 202.945312 C 79.34375 202.488281 78.996094 201.9375 78.847656 201.726562 C 78.699219 201.515625 78.296875 200.882812 77.953125 200.320312 C 77.609375 199.757812 77.324219 199.449219 77.320312 199.636719 M 178.097656 200.199219 C 177.859375 200.539062 177.664062 200.902344 177.664062 201.003906 C 177.664062 202.394531 172.304688 206.527344 170.441406 206.574219 C 170.03125 206.585938 169.425781 206.90625 168.964844 207.355469 C 168.113281 208.191406 168.144531 208.179688 164.597656 208.742188 C 161.449219 209.238281 160.382812 209.625 162.082031 209.648438 C 162.730469 209.65625 163.683594 209.488281 164.195312 209.277344 C 164.707031 209.0625 165.84375 208.816406 166.722656 208.726562 C 168.050781 208.59375 168.480469 208.417969 169.28125 207.707031 C 169.808594 207.234375 170.5 206.84375 170.816406 206.839844 C 171.691406 206.828125 176.539062 203.90625 176.761719 203.261719 C 176.832031 203.050781 177.300781 202.253906 177.800781 201.496094 C 178.683594 200.152344 178.953125 198.976562 178.097656 200.199219 M 210.214844 205.191406 C 210.191406 205.476562 210.011719 205.941406 209.8125 206.226562 C 209.613281 206.511719 209.371094 207.203125 209.269531 207.757812 C 209.164062 208.355469 208.757812 209.132812 208.269531 209.664062 C 207.183594 210.855469 206.527344 211.902344 206.191406 212.992188 C 206.039062 213.484375 205.578125 214.394531 205.164062 215.011719 C 204.753906 215.632812 204.277344 216.375 204.109375 216.667969 C 203.9375 216.960938 203.304688 217.644531 202.699219 218.1875 C 202.09375 218.730469 201.191406 219.550781 200.6875 220.015625 C 200.1875 220.476562 199.496094 221.003906 199.152344 221.183594 C 198.808594 221.363281 198.007812 222.066406 197.375 222.742188 C 196.3125 223.875 194.089844 225.28125 193.359375 225.28125 C 193.1875 225.28125 192.75 225.675781 192.378906 226.160156 C 191.972656 226.691406 191.386719 227.109375 190.894531 227.21875 C 190.445312 227.316406 189.679688 227.613281 189.1875 227.875 C 188.695312 228.136719 188.097656 228.351562 187.859375 228.351562 C 187.617188 228.351562 187.351562 228.464844 187.265625 228.605469 C 187.179688 228.742188 186.742188 228.960938 186.292969 229.09375 C 185.558594 229.304688 185.539062 229.332031 186.113281 229.355469 C 186.464844 229.367188 187.210938 229.15625 187.777344 228.890625 C 188.339844 228.621094 189.492188 228.136719 190.335938 227.8125 C 191.179688 227.492188 192.253906 226.859375 192.71875 226.40625 C 193.183594 225.953125 193.84375 225.515625 194.183594 225.429688 C 195.371094 225.132812 197.511719 223.535156 198.265625 222.382812 C 198.519531 221.992188 199.117188 221.511719 199.589844 221.3125 C 200.0625 221.117188 200.449219 220.832031 200.449219 220.683594 C 200.449219 220.535156 200.613281 220.414062 200.816406 220.414062 C 201.015625 220.414062 201.253906 220.1875 201.34375 219.902344 C 201.433594 219.621094 201.664062 219.390625 201.859375 219.390625 C 202.054688 219.390625 202.304688 219.242188 202.417969 219.058594 C 202.53125 218.875 203 218.464844 203.457031 218.144531 C 203.914062 217.828125 204.289062 217.410156 204.289062 217.214844 C 204.289062 217.023438 204.433594 216.714844 204.609375 216.53125 C 205.253906 215.847656 206.335938 214.015625 206.335938 213.601562 C 206.335938 213.015625 207.777344 210.726562 208.671875 209.890625 C 209.109375 209.480469 209.40625 208.9375 209.40625 208.550781 C 209.40625 208.195312 209.648438 207.496094 209.9375 207.003906 C 210.257812 206.460938 210.425781 205.820312 210.359375 205.386719 C 210.292969 204.9375 210.238281 204.863281 210.214844 205.191406 M 49.699219 213.277344 C 49.679688 213.644531 49.894531 214.238281 50.175781 214.597656 C 50.457031 214.957031 50.6875 215.355469 50.6875 215.488281 C 50.6875 215.621094 50.90625 215.925781 51.175781 216.171875 C 51.445312 216.414062 51.734375 216.890625 51.820312 217.230469 C 51.90625 217.570312 52.289062 218.015625 52.675781 218.21875 C 53.0625 218.425781 54.050781 219.234375 54.878906 220.015625 C 55.703125 220.800781 56.523438 221.441406 56.703125 221.441406 C 56.878906 221.441406 57.445312 221.953125 57.957031 222.578125 C 58.980469 223.824219 60.828125 225.179688 61.859375 225.4375 C 62.21875 225.53125 62.882812 225.96875 63.328125 226.417969 C 63.777344 226.867188 64.832031 227.496094 65.671875 227.816406 C 66.511719 228.136719 67.660156 228.621094 68.222656 228.890625 C 68.789062 229.15625 69.535156 229.363281 69.886719 229.347656 C 70.417969 229.320312 70.441406 229.292969 70.015625 229.191406 C 69.734375 229.121094 69.390625 228.976562 69.246094 228.867188 C 68.90625 228.597656 65.847656 227.402344 64.949219 227.183594 C 64.539062 227.085938 64.082031 226.710938 63.867188 226.296875 C 63.636719 225.851562 63.136719 225.460938 62.554688 225.265625 C 60.746094 224.671875 57.855469 222.457031 57.855469 221.667969 C 57.855469 221.570312 57.539062 221.378906 57.152344 221.246094 C 55.660156 220.722656 50.6875 215.585938 50.6875 214.566406 C 50.6875 214.4375 50.523438 214.195312 50.320312 214.027344 C 50.117188 213.859375 49.902344 213.472656 49.84375 213.164062 C 49.75 212.6875 49.730469 212.703125 49.699219 213.277344 M 71.992188 229.796875 C 72.222656 230.027344 73.246094 230.375 74.273438 230.566406 C 75.296875 230.761719 76.414062 231.121094 76.757812 231.363281 C 78.058594 232.292969 78.507812 232.441406 80.023438 232.445312 C 80.941406 232.445312 81.925781 232.617188 82.414062 232.863281 C 85.246094 234.273438 171.042969 234.269531 173.777344 232.855469 C 174.214844 232.628906 175.183594 232.449219 175.949219 232.449219 C 177.429688 232.449219 178.945312 232.039062 178.945312 231.640625 C 178.945312 231.292969 180.390625 230.75 181.886719 230.535156 C 183.367188 230.320312 184.964844 229.585938 184.269531 229.4375 C 184.035156 229.386719 183.550781 229.53125 183.203125 229.761719 C 182.855469 229.988281 181.894531 230.242188 181.074219 230.328125 C 179.945312 230.4375 179.386719 230.648438 178.761719 231.1875 C 178.207031 231.671875 177.546875 231.949219 176.714844 232.046875 C 175.53125 232.183594 174.003906 232.425781 170.496094 233.035156 C 168.179688 233.433594 87.878906 233.4375 85.503906 233.039062 C 84.589844 232.882812 83.207031 232.628906 82.433594 232.476562 C 81.65625 232.320312 80.386719 232.128906 79.605469 232.050781 C 78.546875 231.949219 77.96875 231.726562 77.335938 231.191406 C 76.695312 230.640625 76.125 230.429688 74.964844 230.308594 C 74.125 230.21875 73.1875 229.972656 72.886719 229.761719 C 72.089844 229.207031 71.425781 229.230469 71.992188 229.796875 "/>
<path style=" stroke:none;fill-rule:evenodd;fill:rgb(69.803922%,49.411765%,23.529412%);fill-opacity:1;" d="M 99.585938 21.714844 C 98.046875 21.917969 98.058594 21.792969 98.054688 34.492188 L 98.046875 46.070312 L 98.644531 46.457031 C 99.171875 46.804688 103.890625 46.855469 139.335938 46.914062 C 165.683594 46.953125 179.5 47.0625 179.636719 47.230469 C 179.964844 47.644531 179.609375 193.722656 179.277344 194.945312 C 179.121094 195.507812 178.925781 196.371094 178.839844 196.863281 L 178.683594 197.761719 L 179.191406 196.734375 C 179.480469 196.148438 179.707031 195.164062 179.714844 194.433594 C 179.722656 193.726562 179.898438 192.460938 180.101562 191.617188 C 180.589844 189.589844 180.679688 47.527344 180.195312 46.941406 C 179.953125 46.648438 173.347656 46.59375 139.617188 46.59375 C 99.667969 46.59375 99.324219 46.585938 98.816406 46.078125 C 98.320312 45.582031 98.304688 45.226562 98.304688 34.421875 L 98.304688 23.273438 L 99.5625 22.015625 L 211.675781 22.015625 L 212.210938 22.695312 L 212.746094 23.378906 L 212.675781 109.800781 C 212.609375 194.023438 212.597656 196.253906 212.121094 197.375 C 211.855469 198.007812 211.601562 199.277344 211.558594 200.191406 C 211.472656 202.042969 211.546875 201.871094 212.453125 198.015625 L 212.992188 195.710938 L 212.988281 109.3125 C 212.980469 27.511719 212.957031 22.882812 212.535156 22.332031 L 212.085938 21.75 L 156.15625 21.691406 C 125.394531 21.660156 99.9375 21.667969 99.585938 21.714844 M 43.566406 153.609375 L 43.007812 154.132812 L 43.007812 174.6875 C 43.007812 194.019531 43.035156 195.359375 43.492188 197.144531 C 43.757812 198.1875 44.167969 200.230469 44.398438 201.6875 C 44.816406 204.335938 45.503906 206.550781 45.546875 205.40625 C 45.558594 205.109375 45.398438 204.457031 45.191406 203.964844 C 44.984375 203.46875 44.746094 202.101562 44.65625 200.925781 C 44.570312 199.746094 44.328125 198.402344 44.117188 197.941406 C 43.445312 196.4375 43.277344 191.441406 43.269531 172.851562 L 43.265625 154.601562 L 43.890625 153.972656 L 44.519531 153.34375 L 58.957031 153.34375 C 73.847656 153.34375 74.746094 153.402344 75.269531 154.378906 C 75.425781 154.671875 75.519531 161.25 75.519531 171.851562 C 75.519531 185.25 75.597656 189.316406 75.878906 191.007812 C 76.074219 192.1875 76.316406 193.894531 76.410156 194.796875 C 76.503906 195.703125 76.746094 196.679688 76.945312 196.96875 C 77.40625 197.621094 77.394531 197.402344 76.878906 195.328125 C 76.523438 193.886719 76.453125 191.082031 76.375 174.464844 C 76.273438 153.183594 76.335938 154.289062 75.191406 153.59375 C 73.878906 152.792969 44.429688 152.808594 43.566406 153.609375 M 77.320312 198.355469 C 77.3125 199.082031 78.34375 201.332031 78.863281 201.726562 C 78.957031 201.796875 79.226562 202.234375 79.464844 202.703125 C 79.703125 203.167969 80.09375 203.617188 80.332031 203.703125 C 80.570312 203.789062 81.199219 204.199219 81.730469 204.609375 C 82.992188 205.59375 84.980469 206.589844 85.675781 206.589844 C 85.980469 206.589844 86.558594 206.863281 86.957031 207.195312 C 88.042969 208.097656 88.558594 208.300781 90.238281 208.5 C 91.085938 208.597656 92.660156 208.898438 93.738281 209.171875 C 96.34375 209.824219 159.691406 209.945312 161.820312 209.300781 C 162.46875 209.101562 163.910156 208.8125 165.019531 208.65625 C 167.980469 208.234375 168.109375 208.191406 168.964844 207.355469 C 169.441406 206.890625 170.015625 206.589844 170.441406 206.589844 C 170.824219 206.589844 171.480469 206.359375 171.902344 206.078125 C 172.328125 205.800781 172.539062 205.570312 172.375 205.570312 C 171.65625 205.566406 169.042969 206.734375 168.574219 207.269531 C 168.183594 207.722656 167.621094 207.917969 166.144531 208.121094 C 165.089844 208.265625 163.476562 208.527344 162.558594 208.703125 C 160.0625 209.183594 96.160156 209.164062 93.441406 208.683594 C 92.382812 208.496094 90.828125 208.238281 89.984375 208.105469 C 87.917969 207.78125 87.601562 207.664062 87.433594 207.15625 C 87.347656 206.890625 86.585938 206.488281 85.507812 206.132812 C 83.277344 205.398438 80.007812 203.25 79.453125 202.152344 C 79.226562 201.707031 78.894531 201.171875 78.710938 200.960938 C 78.527344 200.75 78.144531 199.886719 77.855469 199.039062 C 77.390625 197.6875 77.328125 197.605469 77.320312 198.355469 M 178.050781 199.550781 C 177.785156 200.113281 177.359375 200.851562 177.105469 201.1875 C 176.847656 201.523438 176.640625 201.96875 176.640625 202.179688 C 176.640625 202.433594 176.816406 202.339844 177.152344 201.914062 C 177.433594 201.554688 177.664062 201.152344 177.664062 201.019531 C 177.664062 200.882812 177.902344 200.46875 178.195312 200.097656 C 178.488281 199.726562 178.683594 199.222656 178.632812 198.976562 C 178.566406 198.660156 178.394531 198.832031 178.050781 199.550781 M 211.242188 202.585938 C 211.21875 202.984375 211.019531 203.699219 210.796875 204.167969 C 210.574219 204.636719 210.433594 205.285156 210.484375 205.613281 C 210.628906 206.5625 211.511719 203.714844 211.386719 202.699219 C 211.289062 201.910156 211.28125 201.902344 211.242188 202.585938 M 175.964844 203.136719 C 175.882812 203.347656 175.671875 203.519531 175.496094 203.519531 C 175.320312 203.519531 174.75 203.859375 174.230469 204.269531 C 173.707031 204.683594 173.144531 205.070312 172.976562 205.132812 C 172.808594 205.191406 172.75 205.324219 172.84375 205.429688 C 172.9375 205.53125 173.550781 205.230469 174.203125 204.757812 C 176.078125 203.40625 176.792969 202.769531 176.441406 202.761719 C 176.261719 202.753906 176.046875 202.925781 175.964844 203.136719 M 45.574219 206.472656 C 45.578125 206.75 45.808594 207.476562 46.085938 208.09375 C 46.363281 208.707031 46.59375 209.371094 46.59375 209.570312 C 46.59375 209.769531 46.855469 210.050781 47.179688 210.199219 C 47.746094 210.457031 47.921875 210.703125 48.71875 212.382812 C 49.203125 213.402344 49.664062 213.707031 49.664062 213.007812 C 49.664062 212.71875 49.542969 212.480469 49.394531 212.480469 C 49.246094 212.480469 48.957031 212.078125 48.753906 211.589844 C 48.550781 211.101562 48.039062 210.449219 47.617188 210.136719 C 47.144531 209.785156 46.792969 209.25 46.695312 208.71875 C 46.488281 207.621094 45.566406 205.773438 45.574219 206.472656 M 209.855469 207.125 C 209.609375 207.558594 209.40625 208.203125 209.40625 208.558594 C 209.40625 208.9375 209.105469 209.484375 208.671875 209.890625 C 207.777344 210.726562 206.335938 213.015625 206.335938 213.601562 C 206.335938 214.015625 205.253906 215.847656 204.609375 216.53125 C 204.433594 216.714844 204.289062 217.023438 204.289062 217.214844 C 204.289062 217.410156 203.914062 217.828125 203.457031 218.144531 C 203 218.464844 202.53125 218.875 202.417969 219.058594 C 202.304688 219.242188 202.054688 219.390625 201.859375 219.390625 C 201.664062 219.390625 201.433594 219.621094 201.34375 219.902344 C 201.253906 220.1875 201.074219 220.414062 200.941406 220.414062 C 200.8125 220.414062 200.472656 220.644531 200.191406 220.929688 C 198.910156 222.210938 200.488281 221.269531 201.917969 219.898438 C 202.796875 219.054688 203.609375 218.367188 203.726562 218.367188 C 203.953125 218.367188 205.3125 216.40625 205.3125 216.082031 C 205.3125 215.972656 205.535156 215.683594 205.808594 215.4375 C 206.082031 215.191406 206.382812 214.636719 206.476562 214.207031 C 206.570312 213.78125 206.980469 212.867188 207.386719 212.175781 C 207.796875 211.484375 208.128906 210.8125 208.128906 210.679688 C 208.128906 210.550781 208.414062 210.371094 208.769531 210.28125 C 209.121094 210.191406 209.40625 209.953125 209.40625 209.75 C 209.40625 209.546875 209.644531 208.859375 209.933594 208.222656 C 210.570312 206.832031 210.507812 205.980469 209.855469 207.125 M 49.664062 214.484375 C 49.664062 214.78125 49.894531 215.144531 50.175781 215.296875 C 50.457031 215.445312 50.6875 215.496094 50.6875 215.410156 C 50.6875 215.320312 50.457031 214.957031 50.175781 214.597656 C 49.691406 213.984375 49.664062 213.976562 49.664062 214.484375 M 50.6875 215.988281 C 50.6875 216.132812 50.898438 216.527344 51.15625 216.863281 C 51.414062 217.199219 51.699219 217.671875 51.789062 217.921875 C 51.878906 218.167969 52.089844 218.367188 52.257812 218.367188 C 52.425781 218.367188 52.746094 218.542969 52.96875 218.757812 C 54.984375 220.703125 55.84375 221.441406 56.089844 221.441406 C 56.476562 221.441406 53.5625 218.691406 52.675781 218.21875 C 52.289062 218.015625 51.90625 217.570312 51.820312 217.230469 C 51.660156 216.59375 50.6875 215.527344 50.6875 215.988281 M 57.023438 221.9375 C 57.339844 222.203125 57.597656 222.515625 57.597656 222.632812 C 57.597656 223.121094 60.378906 225.300781 61.535156 225.71875 C 62.21875 225.96875 62.96875 226.402344 63.199219 226.6875 C 63.949219 227.621094 65.078125 228.351562 65.765625 228.351562 C 66.136719 228.351562 66.878906 228.589844 67.417969 228.878906 C 67.960938 229.167969 68.53125 229.355469 68.695312 229.296875 C 69.003906 229.183594 68.238281 228.8125 65.671875 227.820312 C 64.832031 227.496094 63.777344 226.867188 63.328125 226.417969 C 62.882812 225.96875 62.21875 225.53125 61.859375 225.4375 C 60.828125 225.179688 58.980469 223.824219 57.957031 222.578125 C 57.445312 221.953125 56.894531 221.445312 56.738281 221.449219 C 56.578125 221.453125 56.707031 221.671875 57.023438 221.9375 M 198.359375 222.273438 C 197.429688 223.589844 195.402344 225.125 194.183594 225.429688 C 193.84375 225.515625 193.183594 225.953125 192.71875 226.40625 C 192.253906 226.859375 191.179688 227.492188 190.335938 227.820312 C 187.753906 228.8125 186.996094 229.183594 187.308594 229.296875 C 187.472656 229.359375 188.074219 229.167969 188.640625 228.878906 C 189.210938 228.589844 189.9375 228.351562 190.261719 228.351562 C 190.996094 228.351562 192.394531 227.511719 192.742188 226.867188 C 192.886719 226.597656 193.605469 226.117188 194.339844 225.800781 C 195.886719 225.132812 197.011719 224.382812 197.75 223.519531 C 198.039062 223.183594 198.53125 222.632812 198.847656 222.292969 C 199.476562 221.613281 199.546875 221.441406 199.183594 221.441406 C 199.054688 221.441406 198.683594 221.8125 198.359375 222.273438 M 69.761719 229.613281 C 70.855469 230.046875 73.925781 230.910156 75.300781 231.171875 C 76.335938 231.371094 76.78125 231.582031 76.867188 231.914062 C 77.027344 232.519531 79.445312 233.023438 83.710938 233.339844 L 85.121094 233.445312 L 83.75 233.226562 C 82.996094 233.105469 82.253906 232.882812 82.097656 232.730469 C 81.945312 232.574219 81.0625 232.445312 80.140625 232.445312 C 78.511719 232.441406 78.070312 232.300781 76.742188 231.355469 C 76.390625 231.101562 75.367188 230.777344 74.464844 230.625 C 73.566406 230.476562 72.519531 230.132812 72.136719 229.863281 C 71.699219 229.558594 71.039062 229.382812 70.347656 229.394531 C 69.535156 229.40625 69.382812 229.464844 69.761719 229.613281 M 183.960938 229.886719 C 183.554688 230.148438 182.632812 230.441406 181.914062 230.539062 C 180.414062 230.738281 178.945312 231.285156 178.945312 231.640625 C 178.945312 232.042969 177.429688 232.449219 175.898438 232.457031 C 175.109375 232.460938 174.175781 232.632812 173.824219 232.832031 C 173.472656 233.03125 172.664062 233.21875 172.03125 233.246094 C 171.128906 233.28125 171.046875 233.316406 171.648438 233.410156 C 172.355469 233.515625 173.722656 233.347656 177.371094 232.703125 C 178.28125 232.542969 178.9375 232.253906 179.320312 231.839844 C 179.753906 231.375 180.289062 231.167969 181.40625 231.03125 C 182.234375 230.929688 183.035156 230.753906 183.183594 230.632812 C 183.332031 230.515625 184.125 230.242188 184.949219 230.03125 C 186.796875 229.546875 187.007812 229.371094 185.707031 229.394531 C 185.15625 229.40625 184.371094 229.625 183.960938 229.886719 M 85.816406 233.605469 C 86.796875 234.632812 165.273438 234.726562 169.472656 233.707031 C 169.996094 233.578125 168.339844 233.554688 165.503906 233.648438 C 158.53125 233.882812 96.292969 233.851562 90.496094 233.613281 C 87.820312 233.5 85.714844 233.5 85.816406 233.605469 "/>
<path style=" stroke:none;fill-rule:evenodd;fill:rgb(47.45098%,32.54902%,16.470588%);fill-opacity:1;" d="M 99.40625 22.785156 C 98.566406 23.125 98.527344 23.730469 98.613281 35.15625 C 98.683594 45.160156 98.710938 45.625 99.183594 45.972656 C 99.609375 46.28125 105.621094 46.335938 140.199219 46.335938 C 180.179688 46.335938 180.722656 46.34375 180.984375 46.835938 C 181.488281 47.777344 181.214844 191.125 180.707031 192.382812 C 180.480469 192.945312 180.15625 194.203125 179.988281 195.175781 C 179.820312 196.148438 179.53125 197.246094 179.347656 197.609375 C 179.164062 197.972656 178.933594 198.699219 178.839844 199.226562 C 178.746094 199.75 178.265625 200.785156 177.777344 201.527344 C 177.289062 202.269531 176.832031 203.050781 176.761719 203.261719 C 176.539062 203.90625 171.691406 206.828125 170.816406 206.839844 C 170.5 206.84375 169.808594 207.234375 169.28125 207.707031 C 168.480469 208.417969 168.050781 208.59375 166.722656 208.726562 C 165.84375 208.816406 164.707031 209.0625 164.195312 209.277344 C 162.785156 209.863281 93.214844 209.863281 91.804688 209.277344 C 91.292969 209.0625 90.179688 208.816406 89.328125 208.726562 C 88.113281 208.597656 87.613281 208.40625 86.996094 207.832031 C 86.566406 207.429688 85.910156 207.035156 85.539062 206.957031 C 81.949219 206.195312 77.777344 202.238281 77.195312 199.050781 C 77.09375 198.492188 76.855469 197.730469 76.664062 197.363281 C 76.472656 196.992188 76.179688 195.894531 76.011719 194.921875 C 75.84375 193.949219 75.578125 192.863281 75.421875 192.511719 C 75.222656 192.070312 75.097656 186.1875 75.007812 173.402344 C 74.886719 155.699219 74.859375 154.910156 74.390625 154.394531 C 73.765625 153.699219 44.625 153.527344 44.054688 154.210938 C 43.515625 154.863281 43.808594 195.636719 44.359375 197.226562 C 44.601562 197.917969 44.800781 198.972656 44.800781 199.574219 C 44.800781 200.855469 45.9375 205.746094 46.472656 206.773438 C 46.679688 207.167969 46.84375 207.738281 46.847656 208.042969 C 46.847656 208.347656 47.359375 209.199219 47.988281 209.929688 C 49.148438 211.292969 49.921875 212.644531 49.921875 213.320312 C 49.921875 213.527344 50.09375 213.839844 50.304688 214.015625 C 50.515625 214.191406 50.6875 214.4375 50.6875 214.566406 C 50.6875 215.585938 55.660156 220.722656 57.152344 221.246094 C 57.539062 221.378906 57.855469 221.570312 57.855469 221.667969 C 57.855469 222.457031 60.746094 224.671875 62.554688 225.265625 C 63.136719 225.460938 63.636719 225.851562 63.867188 226.296875 C 64.082031 226.710938 64.539062 227.085938 64.949219 227.183594 C 65.917969 227.417969 68.921875 228.609375 69.285156 228.902344 C 69.445312 229.03125 70.195312 229.207031 70.949219 229.285156 C 71.703125 229.371094 72.578125 229.597656 72.890625 229.792969 C 73.207031 229.992188 74.144531 230.222656 74.976562 230.308594 C 76.125 230.429688 76.695312 230.644531 77.335938 231.191406 C 77.96875 231.726562 78.546875 231.949219 79.605469 232.050781 C 80.386719 232.128906 81.65625 232.320312 82.433594 232.476562 C 83.207031 232.628906 84.589844 232.882812 85.503906 233.039062 C 87.878906 233.4375 168.179688 233.433594 170.496094 233.035156 C 174.003906 232.425781 175.53125 232.183594 176.714844 232.046875 C 177.546875 231.949219 178.207031 231.671875 178.761719 231.1875 C 179.386719 230.648438 179.945312 230.4375 181.074219 230.328125 C 181.894531 230.242188 182.816406 230.015625 183.125 229.816406 C 183.429688 229.617188 184.300781 229.382812 185.054688 229.296875 C 185.8125 229.207031 186.703125 228.960938 187.03125 228.746094 C 187.359375 228.527344 187.78125 228.351562 187.960938 228.351562 C 188.144531 228.351562 188.695312 228.136719 189.1875 227.875 C 189.679688 227.613281 190.445312 227.316406 190.894531 227.21875 C 191.386719 227.109375 191.972656 226.691406 192.378906 226.160156 C 192.75 225.675781 193.1875 225.28125 193.359375 225.28125 C 194.089844 225.28125 196.3125 223.875 197.375 222.742188 C 198.007812 222.066406 198.808594 221.363281 199.152344 221.183594 C 199.496094 221.003906 200.1875 220.476562 200.6875 220.015625 C 201.191406 219.550781 202.09375 218.730469 202.699219 218.1875 C 203.304688 217.644531 203.9375 216.960938 204.109375 216.667969 C 204.277344 216.375 204.753906 215.632812 205.164062 215.011719 C 205.578125 214.394531 206.039062 213.484375 206.191406 212.992188 C 206.527344 211.902344 207.183594 210.855469 208.269531 209.664062 C 208.753906 209.140625 209.164062 208.355469 209.269531 207.769531 C 209.367188 207.222656 209.601562 206.53125 209.792969 206.234375 C 209.980469 205.9375 210.214844 205.234375 210.308594 204.671875 C 210.40625 204.109375 210.644531 203.078125 210.839844 202.386719 C 211.039062 201.691406 211.199219 200.605469 211.199219 199.96875 C 211.199219 199.335938 211.460938 197.945312 211.777344 196.878906 L 212.351562 194.945312 L 212.351562 109.132812 C 212.351562 39.066406 212.292969 23.261719 212.019531 22.988281 C 211.621094 22.589844 100.382812 22.390625 99.40625 22.785156 M 211.648438 107.375 C 211.710938 190.167969 211.707031 191.375 211.199219 194.875 C 210.917969 196.828125 210.6875 198.886719 210.6875 199.453125 C 210.6875 200.019531 210.578125 200.6875 210.441406 200.941406 C 210.308594 201.191406 210.074219 202.167969 209.925781 203.113281 C 209.773438 204.058594 209.421875 205.253906 209.144531 205.769531 C 208.867188 206.289062 208.640625 206.933594 208.640625 207.203125 C 208.640625 207.472656 208.324219 208.109375 207.9375 208.613281 C 206.574219 210.390625 206.039062 211.285156 205.539062 212.621094 C 204.984375 214.113281 204.378906 214.921875 201.222656 218.425781 C 200.589844 219.125 199.523438 219.976562 198.855469 220.316406 C 198.121094 220.6875 197.390625 221.320312 197.027344 221.890625 C 196.28125 223.0625 195.65625 223.625 194.816406 223.871094 C 193.386719 224.292969 192.046875 225.039062 191.660156 225.632812 C 191.433594 225.976562 190.8125 226.398438 190.28125 226.570312 C 189.746094 226.742188 189.023438 227.035156 188.671875 227.21875 C 187.230469 227.980469 185.539062 228.585938 184.386719 228.75 C 183.71875 228.847656 182.824219 229.066406 182.398438 229.238281 C 181.976562 229.410156 181 229.632812 180.222656 229.734375 C 179.449219 229.832031 178.136719 230.265625 177.304688 230.695312 C 176.050781 231.34375 175.238281 231.539062 172.566406 231.832031 C 170.792969 232.023438 168.882812 232.300781 168.320312 232.4375 C 166.835938 232.804688 89.609375 232.792969 87.777344 232.425781 C 87.019531 232.273438 85.066406 232.007812 83.4375 231.832031 C 81.058594 231.574219 80.15625 231.355469 78.832031 230.710938 C 77.925781 230.273438 76.664062 229.839844 76.03125 229.75 C 75.398438 229.660156 74.363281 229.433594 73.726562 229.246094 C 73.09375 229.058594 72.113281 228.835938 71.550781 228.746094 C 70.535156 228.589844 70.054688 228.410156 67.839844 227.375 C 67.207031 227.078125 66.367188 226.761719 65.976562 226.667969 C 65.585938 226.578125 64.953125 226.160156 64.570312 225.746094 C 63.785156 224.894531 62.460938 224.144531 61.300781 223.894531 C 60.875 223.804688 60.242188 223.371094 59.894531 222.9375 C 59.546875 222.503906 59.015625 221.839844 58.707031 221.460938 C 58.402344 221.082031 57.609375 220.492188 56.941406 220.152344 C 56.277344 219.808594 55.261719 218.964844 54.683594 218.273438 C 54.105469 217.582031 53.136719 216.484375 52.527344 215.835938 C 51.371094 214.597656 50.617188 213.335938 50.339844 212.167969 C 50.15625 211.414062 48.894531 209.425781 48.265625 208.902344 C 48.050781 208.722656 47.699219 207.996094 47.488281 207.285156 C 47.277344 206.574219 46.945312 205.746094 46.746094 205.441406 C 46.546875 205.140625 46.300781 204.210938 46.195312 203.382812 C 46.09375 202.550781 45.851562 201.496094 45.660156 201.039062 C 45.46875 200.582031 45.3125 199.65625 45.3125 198.984375 C 45.3125 198.3125 45.082031 196.203125 44.804688 194.304688 C 44.183594 190.070312 44 155.527344 44.59375 154.929688 C 44.828125 154.699219 48.441406 154.625 59.285156 154.625 L 73.667969 154.625 L 73.824219 155.199219 C 73.90625 155.515625 73.980469 163.851562 73.980469 173.726562 C 73.984375 191.683594 74.0625 193.53125 74.902344 195.175781 C 75.125 195.613281 75.65625 196.992188 76.085938 198.25 C 77.460938 202.277344 78.8125 204.515625 80.210938 205.082031 C 80.65625 205.265625 81.589844 205.808594 82.285156 206.292969 C 82.976562 206.773438 83.914062 207.273438 84.367188 207.394531 C 84.816406 207.519531 85.613281 207.960938 86.132812 208.375 C 86.726562 208.847656 87.523438 209.1875 88.273438 209.292969 C 88.933594 209.386719 90.046875 209.652344 90.753906 209.882812 C 92.734375 210.535156 163.625 210.527344 165.375 209.875 C 166.007812 209.640625 167.121094 209.371094 167.847656 209.277344 C 168.757812 209.164062 169.34375 208.921875 169.738281 208.5 C 170.054688 208.164062 170.871094 207.703125 171.554688 207.476562 C 172.234375 207.25 172.859375 206.960938 172.9375 206.835938 C 173.015625 206.707031 173.851562 206.179688 174.796875 205.660156 C 176.984375 204.460938 177.492188 203.996094 178.0625 202.675781 C 178.320312 202.082031 178.667969 201.425781 178.839844 201.214844 C 179.007812 201.003906 179.269531 200.429688 179.417969 199.9375 C 180.027344 197.902344 180.582031 196.402344 181.21875 195.070312 L 181.886719 193.664062 L 181.953125 120.09375 C 182.003906 65.65625 181.945312 46.429688 181.730469 46.171875 C 181.488281 45.882812 174.832031 45.824219 141.042969 45.824219 C 115.410156 45.824219 100.402344 45.734375 99.984375 45.574219 L 99.328125 45.324219 L 99.328125 34.460938 C 99.328125 26.007812 99.398438 23.566406 99.648438 23.464844 C 99.824219 23.394531 125.082031 23.355469 155.777344 23.378906 L 211.585938 23.425781 L 211.648438 107.375 "/>
</g>
</svg>
