<?xml version="1.0" encoding="UTF-8" standalone="no"?>
<svg
   version="1.0"
   width="191.99997pt"
   height="191.92381pt"
   viewBox="0 0 191.99997 191.92381"
   preserveAspectRatio="xMidYMid"
   id="svg404"
   sodipodi:docname="icon.svg"
   inkscape:version="1.2.2 (732a01da63, 2022-12-09)"
   xmlns:inkscape="http://www.inkscape.org/namespaces/inkscape"
   xmlns:sodipodi="http://sodipodi.sourceforge.net/DTD/sodipodi-0.dtd"
   xmlns="http://www.w3.org/2000/svg"
   xmlns:svg="http://www.w3.org/2000/svg">
  <defs
     id="defs408" />
  <sodipodi:namedview
     id="namedview406"
     pagecolor="#ffffff"
     bordercolor="#000000"
     borderopacity="0.25"
     inkscape:showpageshadow="2"
     inkscape:pageopacity="0.0"
     inkscape:pagecheckerboard="0"
     inkscape:deskcolor="#d1d1d1"
     inkscape:document-units="pt"
     showgrid="false"
     inkscape:zoom="0.89678571"
     inkscape:cx="-40.700916"
     inkscape:cy="132.69614"
     inkscape:window-width="1920"
     inkscape:window-height="1017"
     inkscape:window-x="-8"
     inkscape:window-y="-8"
     inkscape:window-maximized="1"
     inkscape:current-layer="svg404" />
  <metadata
     id="metadata206">
Created by potrace 1.12, written by Peter Selinger 2001-2015
</metadata>
  <g
     transform="matrix(0.03026712,0,0,-0.03026712,-9.9349355,202.7897)"
     fill="#000000"
     stroke="none"
     id="g402">
    <path
       d="m 3230,6685 c -10,-11 -35,-15 -110,-15 -76,0 -100,-3 -111,-16 -9,-11 -29,-15 -81,-13 -56,2 -71,-1 -82,-16 -10,-14 -22,-17 -53,-13 -30,4 -45,1 -57,-10 -10,-11 -29,-15 -54,-13 -25,1 -43,-3 -51,-13 -8,-9 -28,-16 -46,-16 -18,0 -38,-7 -46,-16 -9,-10 -22,-14 -41,-10 -21,4 -30,1 -38,-15 -9,-16 -18,-19 -39,-14 -19,4 -32,1 -41,-10 -7,-8 -18,-15 -25,-15 -7,0 -18,-7 -25,-15 -7,-8 -27,-15 -45,-15 -18,0 -38,-7 -45,-15 -7,-8 -20,-15 -30,-15 -10,0 -21,-7 -24,-16 -4,-10 -13,-13 -25,-9 -10,3 -24,-1 -31,-10 -7,-8 -18,-15 -25,-15 -7,0 -18,-7 -25,-15 -7,-8 -20,-15 -30,-15 -10,0 -23,-7 -30,-15 -7,-8 -21,-15 -31,-15 -11,0 -19,-4 -19,-10 0,-5 -11,-10 -24,-10 -16,0 -32,-11 -46,-30 -13,-19 -30,-30 -45,-30 -12,0 -26,-7 -29,-16 -3,-9 -12,-14 -20,-11 -8,3 -26,-8 -42,-24 -15,-16 -35,-29 -44,-29 -9,0 -34,-18 -55,-40 -21,-22 -44,-40 -50,-40 -6,0 -31,-20 -55,-45 -24,-24 -48,-41 -53,-38 -12,7 -467,-447 -467,-467 0,-9 -18,-34 -40,-55 -22,-21 -40,-46 -40,-55 0,-9 -18,-32 -40,-53 -22,-20 -40,-45 -40,-56 0,-11 -13,-29 -30,-41 -16,-12 -30,-30 -30,-39 0,-10 -6,-24 -14,-31 -8,-6 -13,-17 -10,-24 2,-6 -9,-25 -26,-41 -16,-16 -30,-34 -30,-41 0,-6 -7,-17 -15,-24 -8,-7 -15,-23 -15,-35 0,-13 -7,-25 -15,-29 -8,-3 -12,-11 -9,-19 3,-8 -2,-20 -11,-27 -8,-7 -15,-20 -15,-30 0,-10 -7,-23 -15,-30 -8,-7 -15,-18 -15,-25 0,-7 -7,-18 -15,-25 -9,-7 -13,-21 -10,-31 4,-12 -1,-22 -14,-29 -16,-8 -19,-17 -15,-38 4,-19 0,-32 -10,-41 -9,-8 -16,-19 -16,-26 0,-7 -7,-18 -15,-25 -8,-7 -15,-25 -15,-40 0,-15 -7,-33 -16,-41 -11,-9 -14,-22 -9,-45 4,-26 2,-35 -14,-44 -16,-8 -19,-17 -15,-38 4,-19 0,-32 -10,-41 -10,-9 -16,-29 -16,-56 0,-26 -6,-48 -15,-55 -10,-8 -15,-30 -15,-60 0,-30 -5,-50 -12,-52 -9,-3 -12,-25 -10,-75 3,-60 1,-73 -14,-81 -16,-9 -17,-23 -15,-109 2,-80 0,-102 -13,-112 -23,-20 -24,-532 -1,-551 11,-10 15,-36 15,-110 0,-81 3,-99 16,-104 14,-5 16,-18 12,-82 -4,-58 -2,-77 8,-81 9,-3 14,-22 14,-53 0,-30 6,-52 15,-60 9,-7 15,-29 15,-55 0,-27 6,-47 16,-56 10,-9 14,-22 10,-41 -4,-21 -1,-30 15,-38 16,-9 19,-17 14,-41 -5,-21 -2,-31 9,-35 10,-4 16,-18 16,-39 0,-18 7,-38 15,-45 8,-7 15,-20 15,-30 0,-10 7,-23 16,-31 11,-9 14,-22 10,-41 -4,-20 -1,-30 9,-34 8,-4 15,-14 15,-24 0,-10 7,-23 15,-30 8,-7 15,-20 15,-30 0,-10 7,-23 15,-30 8,-7 15,-18 15,-25 0,-7 7,-18 15,-25 9,-7 13,-21 10,-30 -3,-9 1,-23 10,-30 8,-7 15,-18 15,-25 0,-7 7,-18 15,-25 8,-7 15,-21 15,-31 0,-10 14,-28 30,-41 21,-15 28,-27 24,-40 -3,-11 1,-20 10,-24 9,-3 16,-14 16,-23 0,-10 13,-30 30,-46 16,-16 30,-37 30,-47 0,-10 18,-34 40,-54 22,-20 40,-44 40,-53 0,-9 18,-35 40,-56 22,-21 40,-46 40,-55 0,-8 43,-58 95,-110 52,-52 95,-100 95,-106 0,-14 43,-54 58,-54 7,0 60,-50 119,-110 59,-61 114,-110 123,-110 9,0 27,-11 40,-25 13,-14 31,-25 40,-25 9,0 35,-20 59,-44 24,-24 49,-42 55,-40 7,3 25,-9 41,-26 16,-16 34,-30 41,-30 6,0 17,-7 24,-15 7,-8 20,-15 29,-15 10,0 28,-11 41,-25 13,-14 31,-25 41,-25 9,0 22,-7 29,-15 7,-8 18,-15 25,-15 7,0 18,-7 25,-15 7,-8 23,-15 36,-15 13,0 24,-4 24,-10 0,-5 8,-10 19,-10 10,0 24,-7 31,-15 7,-8 20,-15 30,-15 10,0 23,-7 30,-15 7,-8 18,-15 25,-15 7,0 18,-7 25,-15 7,-9 21,-13 31,-10 12,4 21,1 25,-9 4,-10 19,-16 40,-16 22,0 37,-6 40,-15 4,-9 19,-15 39,-15 18,0 38,-7 45,-15 7,-8 25,-15 40,-15 15,0 33,-7 40,-15 9,-11 23,-14 45,-9 26,4 35,2 43,-12 8,-14 20,-18 54,-15 31,1 49,-3 57,-13 9,-10 30,-16 56,-16 26,0 48,-6 55,-15 9,-11 33,-15 85,-15 50,0 75,-4 78,-12 3,-10 30,-12 104,-10 85,3 102,1 110,-12 8,-15 42,-16 287,-17 250,0 279,1 290,17 11,14 26,16 95,12 63,-4 84,-2 88,9 4,9 26,13 78,13 52,0 76,4 85,15 7,9 29,15 55,15 27,0 47,6 56,16 10,12 25,15 56,11 36,-4 45,-1 54,15 9,16 17,19 43,14 23,-5 37,-2 46,9 7,8 25,15 40,15 15,0 33,7 40,15 7,8 27,15 45,15 20,0 35,6 39,15 3,9 18,15 40,15 21,0 36,6 40,16 4,10 13,13 25,9 10,-3 24,1 31,10 7,8 18,15 25,15 7,0 18,7 25,15 7,8 20,15 30,15 10,0 23,7 30,15 7,8 21,15 31,15 11,0 19,5 19,10 0,6 11,10 24,10 13,0 29,7 36,15 7,8 18,15 25,15 7,0 18,7 25,15 7,8 20,15 29,15 10,0 28,11 41,25 13,14 31,25 41,25 9,0 22,7 29,15 7,8 18,15 24,15 7,0 23,11 36,25 13,14 31,25 40,25 9,0 29,14 45,30 16,17 36,30 45,30 9,0 34,18 55,40 21,22 46,40 54,40 9,0 57,43 108,95 51,52 99,95 108,95 22,0 116,96 110,112 -3,7 38,53 95,107 66,61 99,99 95,109 -3,9 12,29 40,54 25,22 45,48 45,57 0,10 11,28 25,41 14,13 25,31 25,41 0,10 14,27 30,39 19,13 30,30 30,45 0,12 7,26 16,29 9,4 13,13 10,24 -4,13 3,25 24,40 16,13 30,31 30,41 0,10 7,24 15,31 8,7 15,20 15,30 0,10 7,21 16,24 10,4 13,13 9,25 -3,10 1,24 10,31 8,7 15,18 15,25 0,7 7,18 15,25 8,7 15,20 15,30 0,10 7,23 15,30 8,7 15,21 15,31 0,11 5,19 10,19 6,0 10,11 10,25 0,14 7,28 15,31 9,4 15,19 15,39 0,18 7,38 15,45 8,7 15,25 15,40 0,15 7,33 15,40 11,9 14,22 10,41 -5,21 -2,30 14,39 16,8 19,17 15,38 -4,19 0,32 10,41 10,9 16,29 16,56 0,26 6,48 15,55 9,8 15,30 15,60 0,31 5,50 14,53 10,4 12,23 8,81 -4,64 -2,77 12,82 13,5 16,23 16,104 0,74 4,100 15,110 23,19 22,561 -1,581 -12,10 -15,30 -13,97 3,72 1,85 -15,94 -15,8 -17,21 -14,81 2,50 -1,72 -10,75 -7,2 -12,22 -12,52 0,30 -5,52 -15,60 -9,7 -15,29 -15,55 0,27 -6,47 -16,56 -10,8 -14,23 -12,41 4,21 -1,32 -15,39 -15,9 -18,17 -13,43 5,23 2,37 -9,46 -8,7 -15,25 -15,40 0,15 -7,33 -15,40 -8,7 -15,18 -15,25 0,7 -7,18 -16,26 -11,9 -14,22 -10,41 4,20 1,30 -9,34 -8,4 -15,16 -15,29 0,12 -7,28 -15,35 -8,7 -15,18 -15,25 0,7 -7,18 -15,25 -8,7 -15,20 -15,30 0,10 -7,23 -15,30 -9,7 -14,19 -11,27 3,8 -1,16 -9,19 -8,4 -15,16 -15,29 0,12 -7,28 -15,35 -8,7 -15,18 -15,24 0,7 -14,25 -30,41 -17,16 -28,35 -26,41 3,7 -2,18 -10,24 -8,7 -14,21 -14,31 0,9 -13,27 -30,39 -16,12 -30,30 -30,41 0,11 -18,36 -40,56 -22,21 -40,44 -40,53 0,9 -18,34 -40,55 -22,21 -40,46 -40,55 0,9 -43,58 -95,109 -52,52 -95,101 -95,111 0,20 -45,64 -57,57 -5,-3 -54,39 -109,94 -54,54 -106,99 -114,99 -9,0 -34,18 -55,40 -21,22 -44,40 -50,40 -6,0 -29,18 -50,40 -21,22 -46,40 -55,40 -9,0 -29,14 -45,30 -16,17 -35,28 -41,26 -7,-3 -18,2 -24,10 -7,8 -21,14 -31,14 -9,0 -27,14 -39,30 -14,19 -30,30 -46,30 -13,0 -24,5 -24,10 0,6 -8,10 -19,10 -10,0 -24,7 -31,15 -7,8 -20,15 -30,15 -10,0 -23,7 -30,15 -7,8 -18,15 -25,15 -7,0 -18,7 -25,15 -7,9 -21,13 -31,10 -12,-4 -21,-1 -25,9 -3,9 -14,16 -24,16 -10,0 -23,7 -30,15 -7,8 -27,15 -45,15 -18,0 -38,7 -45,15 -7,8 -18,15 -25,15 -7,0 -18,7 -25,15 -9,11 -22,14 -41,10 -21,-5 -30,-2 -39,14 -8,16 -17,19 -38,15 -19,-4 -32,0 -41,10 -8,9 -28,16 -46,16 -18,0 -39,7 -46,16 -10,12 -25,15 -56,11 -35,-4 -46,-1 -53,13 -8,14 -18,17 -54,13 -37,-5 -45,-2 -50,14 -5,16 -14,18 -79,15 -58,-3 -76,-1 -86,12 -11,13 -34,16 -111,16 -75,0 -100,4 -110,15 -10,13 -53,15 -270,15 -217,0 -260,-2 -270,-15 z m 550,-80 c 10,-11 36,-15 110,-15 73,0 99,-3 103,-14 4,-10 23,-12 79,-8 60,3 76,1 87,-12 7,-9 26,-16 41,-16 15,0 33,-7 40,-15 7,-9 29,-15 55,-15 27,0 47,-6 56,-16 10,-12 25,-15 57,-11 31,3 45,1 49,-9 3,-8 13,-14 23,-14 10,0 23,-7 30,-15 7,-8 27,-15 45,-15 18,0 38,-7 45,-15 7,-8 25,-15 40,-15 15,0 33,-7 40,-15 7,-8 21,-15 31,-15 11,0 19,-4 19,-10 0,-5 11,-10 24,-10 13,0 29,-7 36,-15 7,-8 18,-15 25,-15 7,0 18,-7 25,-15 7,-8 20,-15 30,-15 10,0 23,-7 30,-15 9,-11 22,-14 39,-10 22,5 31,0 49,-25 13,-16 31,-30 41,-30 10,0 24,-7 31,-15 7,-8 20,-15 29,-15 10,0 28,-11 41,-25 13,-14 31,-25 41,-25 10,0 27,-13 39,-30 12,-16 29,-30 39,-30 9,0 35,-18 56,-40 21,-22 46,-40 55,-40 9,0 34,-18 55,-40 21,-22 46,-40 55,-40 20,0 410,-392 410,-412 0,-9 18,-32 40,-52 22,-20 40,-45 40,-55 0,-11 20,-37 45,-58 31,-25 43,-43 40,-54 -4,-11 5,-24 25,-39 16,-12 30,-29 30,-39 0,-9 13,-30 29,-45 16,-16 27,-34 25,-41 -3,-6 2,-18 11,-25 8,-7 15,-21 15,-31 0,-10 14,-28 30,-41 18,-13 30,-31 30,-44 0,-12 7,-24 15,-28 10,-4 13,-14 9,-34 -4,-19 -1,-32 10,-41 9,-8 16,-21 16,-31 0,-10 7,-23 15,-30 8,-7 15,-18 15,-25 0,-7 7,-18 15,-25 9,-7 13,-21 10,-31 -4,-11 1,-21 13,-28 13,-7 18,-18 14,-39 -2,-18 2,-33 12,-41 9,-8 16,-19 16,-26 0,-7 7,-18 15,-25 8,-7 15,-27 15,-45 0,-21 6,-35 16,-39 13,-5 15,-16 11,-51 -4,-37 -1,-47 14,-55 13,-8 16,-18 12,-43 -3,-23 0,-37 11,-46 10,-9 16,-29 16,-56 0,-27 6,-47 16,-56 12,-10 15,-28 12,-81 -2,-57 0,-70 16,-81 16,-12 18,-24 14,-96 -4,-63 -2,-84 9,-88 18,-7 20,-579 1,-585 -8,-3 -11,-34 -9,-106 2,-85 0,-103 -13,-108 -13,-5 -16,-22 -16,-79 0,-52 -4,-76 -15,-85 -9,-7 -15,-29 -15,-55 0,-26 -6,-48 -15,-55 -9,-8 -15,-30 -15,-60 0,-33 -5,-50 -15,-54 -10,-4 -13,-14 -9,-35 5,-23 2,-32 -10,-37 -10,-4 -16,-18 -16,-39 0,-18 -7,-38 -15,-45 -8,-7 -15,-20 -15,-30 0,-10 -7,-23 -16,-31 -11,-9 -14,-22 -10,-41 4,-20 1,-30 -9,-34 -8,-4 -15,-14 -15,-24 0,-10 -7,-23 -15,-30 -8,-7 -15,-20 -15,-30 0,-10 -7,-23 -15,-30 -8,-7 -15,-25 -15,-40 0,-15 -7,-33 -15,-40 -8,-7 -15,-23 -15,-36 0,-13 -4,-24 -10,-24 -5,0 -10,-8 -10,-18 0,-10 -13,-31 -30,-47 -16,-16 -30,-34 -30,-41 0,-6 -7,-17 -15,-24 -9,-7 -13,-20 -10,-29 3,-11 -5,-25 -25,-39 -16,-13 -30,-31 -30,-41 0,-10 -7,-24 -15,-31 -8,-7 -15,-20 -15,-29 0,-9 -18,-35 -40,-56 -22,-21 -40,-43 -40,-48 0,-5 -18,-31 -40,-57 -22,-26 -40,-52 -40,-56 0,-16 -455,-464 -471,-464 -8,0 -30,-18 -48,-40 -17,-22 -40,-40 -50,-40 -9,0 -30,-14 -46,-30 -16,-17 -36,-30 -45,-30 -9,0 -27,-11 -40,-25 -13,-14 -31,-25 -41,-25 -10,0 -27,-14 -39,-30 -13,-19 -30,-30 -45,-30 -12,0 -26,-7 -29,-16 -3,-9 -12,-14 -20,-11 -8,3 -26,-8 -42,-24 -15,-16 -35,-29 -45,-29 -9,0 -22,-7 -29,-15 -7,-8 -20,-15 -30,-15 -10,0 -21,-7 -24,-16 -4,-11 -14,-14 -34,-9 -20,4 -33,1 -42,-10 -7,-8 -20,-15 -30,-15 -10,0 -23,-7 -30,-15 -7,-8 -18,-15 -25,-15 -7,0 -18,-7 -26,-16 -8,-10 -23,-14 -41,-12 -18,3 -34,-2 -44,-13 -9,-10 -21,-15 -28,-13 -7,3 -19,-2 -26,-11 -7,-8 -25,-15 -40,-15 -15,0 -33,-7 -40,-15 -7,-8 -27,-15 -45,-15 -21,0 -35,-6 -39,-16 -5,-13 -15,-15 -51,-11 -37,6 -46,3 -54,-12 -9,-15 -19,-18 -54,-14 -31,4 -46,1 -56,-11 -10,-12 -32,-16 -86,-16 -54,0 -76,-4 -86,-16 -10,-12 -30,-15 -97,-13 -71,3 -85,1 -93,-14 -9,-15 -36,-17 -289,-17 -248,0 -280,2 -288,16 -8,14 -25,16 -104,15 -75,-2 -97,1 -108,13 -9,12 -32,16 -85,16 -54,0 -76,4 -86,16 -10,12 -25,15 -56,11 -35,-4 -45,-1 -53,14 -8,14 -18,17 -38,13 -19,-4 -32,0 -41,10 -9,10 -29,16 -56,16 -26,0 -48,6 -55,15 -7,8 -25,15 -40,15 -15,0 -33,7 -40,15 -7,9 -19,14 -26,11 -7,-2 -19,3 -28,13 -10,11 -26,16 -44,13 -18,-2 -33,2 -41,12 -8,9 -19,16 -26,16 -7,0 -18,7 -25,15 -7,8 -20,15 -30,15 -10,0 -23,7 -30,15 -7,8 -20,15 -30,15 -10,0 -20,7 -24,15 -4,10 -14,13 -34,9 -19,-4 -32,-1 -41,10 -8,9 -22,16 -32,16 -10,0 -28,14 -41,30 -15,21 -27,28 -40,24 -11,-3 -20,1 -24,10 -3,9 -17,16 -29,16 -15,0 -32,11 -45,30 -12,16 -29,30 -39,30 -10,0 -28,11 -41,25 -13,14 -31,25 -41,25 -9,0 -35,20 -57,45 -23,27 -45,43 -54,40 -8,-3 -29,13 -51,40 -22,25 -45,44 -55,42 -20,-2 -412,391 -412,414 0,8 -18,31 -40,52 -22,20 -40,45 -40,55 0,10 -21,35 -46,56 -25,21 -43,44 -40,51 2,7 -9,25 -25,41 -16,15 -29,36 -29,46 0,9 -14,27 -30,40 -20,14 -28,28 -25,39 3,9 -1,22 -10,29 -8,7 -15,18 -15,24 0,7 -14,25 -31,42 -24,23 -29,35 -25,56 4,21 0,30 -15,38 -13,7 -18,17 -14,29 3,10 -1,24 -10,31 -8,7 -15,18 -15,25 0,7 -7,18 -15,25 -8,7 -15,20 -15,30 0,10 -7,23 -15,30 -8,7 -15,20 -15,30 0,10 -7,20 -15,24 -10,4 -13,14 -9,34 4,19 1,32 -10,41 -9,8 -16,28 -16,46 0,18 -7,38 -15,45 -8,7 -15,20 -15,30 0,10 -7,21 -16,24 -13,5 -15,15 -10,52 4,34 2,46 -9,50 -10,4 -15,21 -15,54 0,30 -6,52 -15,60 -9,7 -15,29 -15,55 0,26 -6,47 -16,56 -11,9 -15,27 -13,67 2,43 -1,56 -15,64 -16,9 -17,22 -14,111 2,74 0,101 -9,104 -19,7 -19,549 0,556 9,3 11,30 9,105 -3,86 -1,103 12,108 13,5 16,22 16,84 0,57 4,81 15,90 8,7 15,25 15,40 0,15 7,34 16,41 12,10 15,25 11,56 -4,35 -1,46 13,53 14,7 17,18 13,53 -4,31 -1,46 11,56 9,7 16,19 16,26 0,7 7,18 15,25 8,7 15,25 15,40 0,15 7,33 16,41 10,8 14,23 12,41 -4,21 1,32 14,39 12,7 17,17 13,28 -3,10 1,24 10,31 8,7 15,18 15,25 0,7 7,18 15,25 8,7 15,23 15,35 0,13 7,25 15,29 8,3 15,12 15,21 0,14 8,34 32,75 4,8 12,25 17,37 6,11 15,24 20,28 6,3 11,14 11,24 0,10 11,28 25,41 14,13 25,31 25,41 0,9 7,22 15,29 8,7 15,18 15,24 0,7 14,25 30,41 18,17 28,35 25,45 -3,10 11,29 41,54 25,21 43,44 41,51 -3,7 21,39 54,71 33,32 57,64 55,70 -5,14 366,384 386,384 8,0 32,18 53,40 21,22 47,40 56,40 9,0 33,18 53,40 20,22 45,40 55,40 11,0 29,14 41,30 12,17 30,30 39,30 10,0 24,7 31,15 7,8 20,15 30,15 9,0 25,10 36,21 10,12 28,25 39,30 11,5 27,13 35,18 8,5 22,12 30,15 8,3 22,10 30,15 13,8 31,16 80,35 8,4 29,15 45,26 17,11 37,22 45,26 8,3 23,10 32,15 10,5 24,9 32,9 7,0 19,7 26,15 7,8 25,15 40,15 15,0 33,7 40,15 7,8 27,15 45,15 18,0 38,7 45,15 7,8 18,15 25,15 7,0 18,6 24,14 8,9 25,12 54,9 31,-4 46,-1 56,11 9,10 29,16 56,16 26,0 48,6 55,15 7,9 29,15 55,15 27,0 47,6 56,16 10,12 28,15 81,12 44,-2 72,2 80,10 7,7 42,12 94,12 60,0 85,4 94,15 10,13 54,15 280,15 226,0 270,-2 280,-15 z m 1940,-865 c 0,-5 -2,-10 -4,-10 -3,0 -8,5 -11,10 -3,6 -1,10 4,10 6,0 11,-4 11,-10 z m 5,-4430 c -16,-16 -33,-30 -38,-30 -15,0 37,59 52,59 9,1 4,-10 -14,-29 z"
       id="path208" />
    <path
       d="m 3235,6520 c -4,-6 5,-10 19,-10 14,0 26,5 26,10 0,6 -9,10 -19,10 -11,0 -23,-4 -26,-10 z"
       id="path210" />
    <path
       d="m 3300,6520 c 0,-6 73,-10 200,-10 127,0 200,4 200,10 0,6 -73,10 -200,10 -127,0 -200,-4 -200,-10 z"
       id="path212" />
    <path
       d="m 3720,6520 c 0,-5 12,-10 26,-10 14,0 23,4 19,10 -3,6 -15,10 -26,10 -10,0 -19,-4 -19,-10 z"
       id="path214" />
    <path
       d="m 3010,6495 c -10,-12 -10,-15 3,-15 23,0 47,11 47,21 0,15 -37,10 -50,-6 z"
       id="path216" />
    <path
       d="m 3070,6500 c 0,-6 28,-10 65,-10 37,0 65,4 65,10 0,6 -28,10 -65,10 -37,0 -65,-4 -65,-10 z"
       id="path218" />
    <path
       d="m 3800,6501 c 0,-8 147,-21 159,-14 1,1 0,6 -4,12 -8,13 -155,15 -155,2 z"
       id="path220" />
    <path
       d="m 2855,6470 c -4,-6 18,-10 59,-10 37,0 66,4 66,10 0,6 -26,10 -59,10 -33,0 -63,-4 -66,-10 z"
       id="path222" />
    <path
       d="m 3990,6471 c 0,-8 128,-21 139,-14 1,1 0,6 -4,12 -8,13 -135,15 -135,2 z"
       id="path224" />
    <path
       d="m 2765,6440 c -4,-6 5,-10 19,-10 14,0 26,5 26,10 0,6 -9,10 -19,10 -11,0 -23,-4 -26,-10 z"
       id="path226" />
    <path
       d="m 4160,6440 c 0,-5 12,-10 26,-10 14,0 23,4 19,10 -3,6 -15,10 -26,10 -10,0 -19,-4 -19,-10 z"
       id="path228" />
    <path
       d="m 4282,6418 c 3,-7 13,-15 24,-17 16,-3 17,-1 5,13 -16,19 -34,21 -29,4 z"
       id="path230" />
    <path
       d="m 2660,6410 c 0,-5 7,-10 15,-10 8,0 15,5 15,10 0,6 -7,10 -15,10 -8,0 -15,-4 -15,-10 z"
       id="path232" />
    <path
       d="m 2575,6389 c -4,-6 -5,-12 -3,-14 7,-7 48,7 48,16 0,13 -37,11 -45,-2 z"
       id="path234" />
    <path
       d="m 4340,6391 c 0,-8 80,-22 89,-15 1,1 0,7 -4,13 -8,13 -85,15 -85,2 z"
       id="path236" />
    <path
       d="m 2495,6360 c -4,-6 5,-10 19,-10 14,0 26,5 26,10 0,6 -9,10 -19,10 -11,0 -23,-4 -26,-10 z"
       id="path238" />
    <path
       d="m 4450,6360 c 0,-5 7,-10 16,-10 8,0 12,5 9,10 -3,6 -10,10 -16,10 -5,0 -9,-4 -9,-10 z"
       id="path240" />
    <path
       d="m 2415,6330 c -3,-5 3,-10 14,-10 12,0 21,5 21,10 0,6 -6,10 -14,10 -8,0 -18,-4 -21,-10 z"
       id="path242" />
    <path
       d="m 4520,6331 c 0,-9 41,-23 48,-16 2,2 1,8 -3,14 -8,13 -45,15 -45,2 z"
       id="path244" />
    <path
       d="m 2330,6300 c 0,-5 5,-10 10,-10 6,0 10,5 10,10 0,6 -4,10 -10,10 -5,0 -10,-4 -10,-10 z"
       id="path246" />
    <path
       d="m 4620,6300 c 0,-5 5,-10 10,-10 6,0 10,5 10,10 0,6 -4,10 -10,10 -5,0 -10,-4 -10,-10 z"
       id="path248" />
    <path
       d="m 2275,6279 c -4,-6 -5,-13 -2,-16 7,-7 27,6 27,18 0,12 -17,12 -25,-2 z"
       id="path250" />
    <path
       d="m 4660,6280 c 0,-5 9,-10 21,-10 11,0 17,5 14,10 -3,6 -13,10 -21,10 -8,0 -14,-4 -14,-10 z"
       id="path252" />
    <path
       d="m 2220,6250 c 0,-5 7,-10 15,-10 8,0 15,5 15,10 0,6 -7,10 -15,10 -8,0 -15,-4 -15,-10 z"
       id="path254" />
    <path
       d="m 4720,6250 c 0,-5 9,-10 21,-10 11,0 17,5 14,10 -3,6 -13,10 -21,10 -8,0 -14,-4 -14,-10 z"
       id="path256" />
    <path
       d="m 2165,6220 c -3,-5 1,-10 9,-10 9,0 16,5 16,10 0,6 -4,10 -9,10 -6,0 -13,-4 -16,-10 z"
       id="path258" />
    <path
       d="m 4790,6220 c 0,-5 5,-10 11,-10 5,0 7,5 4,10 -3,6 -8,10 -11,10 -2,0 -4,-4 -4,-10 z"
       id="path260" />
    <path
       d="m 2115,6199 c -4,-6 -5,-13 -2,-16 7,-7 27,6 27,18 0,12 -17,12 -25,-2 z"
       id="path262" />
    <path
       d="m 4830,6200 c 0,-5 7,-10 16,-10 8,0 12,5 9,10 -3,6 -10,10 -16,10 -5,0 -9,-4 -9,-10 z"
       id="path264" />
    <path
       d="m 2057,6174 c -4,-4 -4,-10 -1,-15 6,-10 34,0 34,12 0,10 -24,12 -33,3 z"
       id="path266" />
    <path
       d="m 4890,6170 c 0,-5 7,-10 16,-10 8,0 12,5 9,10 -3,6 -10,10 -16,10 -5,0 -9,-4 -9,-10 z"
       id="path268" />
    <path
       d="m 1995,6139 c -4,-6 -5,-12 -2,-15 7,-7 37,7 37,17 0,13 -27,11 -35,-2 z"
       id="path270" />
    <path
       d="m 4940,6141 c 0,-10 30,-24 37,-17 3,3 2,9 -2,15 -8,13 -35,15 -35,2 z"
       id="path272" />
    <path
       d="m 1925,6090 c -3,-5 1,-10 9,-10 9,0 16,5 16,10 0,6 -4,10 -9,10 -6,0 -13,-4 -16,-10 z"
       id="path274" />
    <path
       d="m 5032,6089 c 2,-7 10,-15 17,-17 8,-3 12,1 9,9 -2,7 -10,15 -17,17 -8,3 -12,-1 -9,-9 z"
       id="path276" />
    <path
       d="m 1855,6050 c -10,-11 -14,-20 -9,-20 12,1 44,25 44,34 0,12 -17,6 -35,-14 z"
       id="path278" />
    <path
       d="m 5080,6064 c 0,-9 32,-33 44,-34 5,0 1,9 -9,20 -18,20 -35,26 -35,14 z"
       id="path280" />
    <path
       d="m 1785,6000 c -3,-5 -1,-10 4,-10 6,0 11,5 11,10 0,6 -2,10 -4,10 -3,0 -8,-4 -11,-10 z"
       id="path282" />
    <path
       d="m 5170,6005 c 0,-9 64,-64 74,-65 6,0 -5,16 -24,35 -31,32 -50,43 -50,30 z"
       id="path284" />
    <path
       d="m 1675,5920 c -3,-5 -1,-10 4,-10 6,0 11,5 11,10 0,6 -2,10 -4,10 -3,0 -8,-4 -11,-10 z"
       id="path286" />
    <path
       d="m 5280,5922 c 0,-4 9,-13 20,-20 22,-13 27,-3 8,16 -14,14 -28,16 -28,4 z"
       id="path288" />
    <path
       d="m 1555,5830 c -10,-11 -14,-20 -9,-20 12,1 44,25 44,34 0,12 -17,6 -35,-14 z"
       id="path290" />
    <path
       d="m 5380,5840 c 0,-5 7,-10 16,-10 8,0 12,5 9,10 -3,6 -10,10 -16,10 -5,0 -9,-4 -9,-10 z"
       id="path292" />
    <path
       d="m 1515,5790 c -3,-5 -1,-10 4,-10 6,0 11,5 11,10 0,6 -2,10 -4,10 -3,0 -8,-4 -11,-10 z"
       id="path294" />
    <path
       d="m 5800,5430 c 0,-5 5,-10 11,-10 5,0 7,5 4,10 -3,6 -8,10 -11,10 -2,0 -4,-4 -4,-10 z"
       id="path296" />
    <path
       d="m 5940,5230 c 0,-5 5,-10 10,-10 6,0 10,5 10,10 0,6 -4,10 -10,10 -5,0 -10,-4 -10,-10 z"
       id="path298" />
    <path
       d="m 606,4312 c -3,-6 -3,-17 0,-26 4,-10 0,-18 -10,-22 -10,-4 -16,-18 -16,-39 0,-18 -7,-38 -15,-45 -11,-9 -15,-32 -15,-80 0,-48 -4,-71 -15,-80 -11,-9 -15,-35 -15,-102 0,-70 -3,-90 -15,-94 -13,-6 -15,-41 -12,-270 3,-238 5,-266 22,-284 18,-20 24,-20 2455,-20 2348,0 2438,-1 2453,-18 10,-10 17,-26 17,-35 0,-8 14,-25 30,-37 17,-12 30,-29 30,-39 0,-10 11,-28 25,-41 14,-13 25,-31 25,-40 0,-9 12,-27 26,-41 14,-13 32,-39 39,-57 8,-18 21,-35 30,-38 8,-3 15,-14 15,-23 0,-9 18,-35 40,-56 22,-21 40,-46 40,-55 0,-9 14,-29 30,-45 17,-16 30,-37 30,-47 0,-9 14,-27 30,-40 20,-14 28,-28 25,-39 -4,-11 4,-24 25,-39 16,-12 30,-29 30,-39 0,-10 11,-28 25,-41 14,-13 25,-31 25,-40 0,-9 14,-29 30,-45 17,-16 30,-37 30,-46 0,-10 11,-26 25,-37 14,-11 25,-29 25,-39 0,-11 11,-29 25,-41 14,-12 25,-26 25,-32 0,-16 26,-11 43,8 10,10 17,28 17,39 0,12 7,24 16,27 10,4 13,13 9,25 -3,10 1,24 10,31 8,7 15,18 15,25 0,7 7,18 15,25 8,7 15,25 15,40 0,15 7,33 16,41 11,9 14,22 9,45 -5,27 -2,34 15,39 14,5 19,12 15,24 -3,10 1,24 10,31 8,7 15,25 15,40 0,15 7,33 15,40 9,8 15,30 15,60 0,35 4,50 16,54 13,5 15,15 11,51 -5,36 -3,46 11,54 14,8 16,22 14,78 -3,54 0,72 12,82 12,10 16,32 16,86 0,52 4,76 15,85 8,7 15,21 15,31 0,19 -63,19 -2578,19 H 1323 l -21,23 c -12,13 -22,31 -22,39 0,9 -11,25 -25,36 -14,11 -25,29 -25,40 0,11 -13,30 -30,42 -17,12 -30,31 -30,42 0,11 -11,29 -25,40 -14,11 -25,28 -25,38 0,10 -13,28 -30,40 -18,13 -30,30 -30,44 0,12 -11,33 -25,46 -14,13 -25,29 -25,35 0,6 -18,29 -40,50 -22,21 -40,46 -40,55 0,9 -13,29 -30,45 -16,16 -30,37 -30,46 0,10 -11,26 -25,37 -14,11 -25,29 -25,40 0,11 -13,30 -30,42 -16,12 -30,29 -30,39 0,10 -11,28 -25,41 -14,13 -25,31 -25,40 0,9 -14,29 -30,45 -17,16 -28,35 -26,41 6,15 -40,59 -48,46 z m 103,-190 c 31,-46 67,-101 81,-122 14,-20 34,-50 44,-66 11,-16 31,-47 45,-69 14,-22 41,-58 61,-81 19,-22 44,-56 55,-74 30,-51 34,-57 110,-169 39,-56 79,-118 90,-136 12,-19 28,-42 37,-52 9,-10 18,-27 20,-38 3,-20 -3,-20 -346,-23 -249,-2 -353,1 -362,9 -21,17 -20,483 1,519 8,14 15,53 15,90 0,36 7,83 15,105 8,22 14,63 15,91 0,28 7,68 15,89 20,46 26,41 104,-73 z m 5705,-880 c 2,-4 0,-46 -5,-92 -5,-47 -13,-116 -17,-155 -4,-38 -11,-77 -16,-85 -6,-8 -13,-32 -17,-55 -17,-89 -52,-207 -80,-270 -10,-22 -30,-75 -44,-118 -29,-89 -91,-217 -105,-217 -5,0 -17,15 -26,33 -9,17 -26,44 -38,58 -12,15 -39,55 -61,89 -22,35 -52,81 -68,104 -15,23 -35,54 -45,70 -9,16 -27,41 -39,56 -13,15 -23,31 -23,34 0,9 -80,125 -92,132 -8,5 -63,83 -93,133 -11,18 -141,210 -164,242 -7,10 -11,26 -7,34 5,13 64,15 470,15 256,0 467,-3 470,-8 z"
       id="path300" />
    <path
       d="m 1505,4150 c -4,-6 -2,-16 3,-23 11,-13 36,-78 93,-247 22,-63 44,-124 49,-135 5,-11 25,-65 44,-120 58,-171 46,-155 121,-155 54,0 67,3 71,18 3,9 10,26 14,37 5,11 11,29 13,40 7,28 55,154 72,192 8,17 15,38 15,47 0,16 3,23 33,84 9,19 17,41 17,50 0,9 7,26 15,36 8,11 15,28 15,38 0,10 4,26 10,36 25,46 41,92 35,101 -3,6 -32,11 -64,11 -57,0 -91,-18 -91,-47 0,-13 -30,-105 -70,-213 -18,-47 -37,-101 -42,-120 -12,-42 -38,-94 -44,-88 -5,6 -54,136 -64,173 -10,38 -30,95 -40,115 -4,9 -11,31 -15,50 -4,19 -11,40 -15,45 -5,6 -10,26 -12,45 l -3,35 -77,3 c -47,2 -79,-1 -83,-8 z"
       id="path302" />
    <path
       d="m 2197,4154 c -9,-10 -9,-92 1,-97 4,-3 34,-7 66,-8 l 60,-4 v 55 l 1,55 -60,3 c -34,2 -64,0 -68,-4 z"
       id="path304" />
    <path
       d="m 4378,4153 c -2,-4 -3,-30 -3,-57 l 1,-49 h 69 69 v 54 54 l -66,3 c -37,2 -68,-1 -70,-5 z"
       id="path306" />
    <path
       d="m 5224,4145 c -13,-32 4,-44 63,-47 l 58,-3 1,-160 2,-160 h 32 32 l 2,160 1,160 58,3 c 57,3 58,4 55,30 l -3,27 -148,3 c -125,2 -148,0 -153,-13 z"
       id="path308" />
    <path
       d="m 5587,4154 c -4,-4 -7,-92 -7,-196 v -188 h 30 30 v 130 c 0,166 15,171 59,20 40,-134 45,-145 71,-148 27,-4 50,20 50,52 0,12 7,34 15,50 8,15 15,36 15,46 0,26 39,114 47,106 4,-4 7,-62 8,-129 v -122 h 28 29 v 190 190 l -37,3 c -58,5 -56,10 -121,-215 -10,-35 -21,-63 -25,-63 -12,0 -27,24 -34,55 -4,17 -17,62 -30,100 -13,39 -25,81 -27,95 -3,22 -8,25 -48,28 -25,2 -49,0 -53,-4 z"
       id="path310" />
    <path
       d="m 2250,3991 -55,-6 v -255 -255 h 63 64 l -1,260 c 0,143 -4,260 -8,261 -4,0 -33,-2 -63,-5 z"
       id="path312" />
    <path
       d="m 4437,3991 -58,-6 v -255 -255 l 65,-3 66,-3 2,251 c 0,137 1,255 2,262 1,15 -7,16 -77,9 z"
       id="path314" />
    <path
       d="m 2436,3732 v -257 h 65 64 l 5,177 c 5,170 6,177 29,202 18,19 35,26 62,26 62,0 68,-20 71,-227 l 3,-178 h 64 65 v 172 l 1,172 29,30 c 40,41 88,43 113,4 15,-22 19,-57 23,-203 l 5,-175 53,-3 c 56,-3 92,12 72,32 -6,6 -10,84 -10,207 0,182 -1,198 -20,222 -60,76 -174,77 -258,3 l -22,-20 -28,26 c -15,14 -37,31 -49,37 -34,17 -110,13 -153,-9 -22,-11 -43,-20 -48,-20 -6,0 -12,9 -15,20 -4,17 -14,20 -64,20 h -58 z"
       id="path316" />
    <path
       d="m 3403,3976 c -38,-14 -89,-60 -107,-96 -28,-57 -39,-140 -26,-204 16,-73 29,-103 66,-139 102,-102 296,-81 351,38 7,17 18,37 25,46 17,25 3,49 -30,49 -15,0 -33,5 -39,11 -21,21 -56,6 -65,-28 -9,-36 -51,-73 -82,-73 -60,0 -110,83 -104,171 10,139 116,175 192,65 13,-19 18,-18 124,19 13,5 -7,40 -53,93 -49,58 -166,79 -252,48 z"
       id="path318" />
    <path
       d="m 3941,3975 c -110,-39 -170,-157 -149,-293 13,-89 77,-174 140,-187 15,-4 30,-11 33,-16 10,-15 107,-10 159,8 56,20 134,99 143,145 3,16 10,31 14,34 5,3 9,32 9,64 0,105 -54,191 -151,240 -44,23 -143,25 -198,5 z m 167,-123 c 94,-88 43,-272 -75,-272 -57,0 -122,81 -123,153 -1,117 122,190 198,119 z"
       id="path320" />
    <path
       d="m 4630,3988 c 0,-2 -1,-118 -1,-258 l -1,-255 h 64 63 l 3,172 2,172 31,30 c 37,38 77,40 107,8 20,-21 22,-34 24,-202 l 3,-180 h 65 65 l 3,196 c 2,188 2,197 -21,239 -30,57 -67,78 -138,79 -44,1 -64,-4 -93,-24 -40,-27 -56,-25 -56,6 0,17 -7,19 -60,19 -33,0 -60,-1 -60,-2 z"
       id="path322" />
    <path
       d="m 1565,1240 c 3,-5 8,-10 11,-10 2,0 4,5 4,10 0,6 -5,10 -11,10 -5,0 -7,-4 -4,-10 z"
       id="path324" />
    <path
       d="m 5360,1210 c 0,-5 5,-10 10,-10 6,0 10,5 10,10 0,6 -4,10 -10,10 -5,0 -10,-4 -10,-10 z"
       id="path326" />
    <path
       d="m 1675,1160 c 3,-5 8,-10 11,-10 2,0 4,5 4,10 0,6 -5,10 -11,10 -5,0 -7,-4 -4,-10 z"
       id="path328" />
    <path
       d="m 5250,1130 c 0,-5 5,-10 10,-10 6,0 10,5 10,10 0,6 -4,10 -10,10 -5,0 -10,-4 -10,-10 z"
       id="path330" />
    <path
       d="m 5180,1090 c -8,-5 -11,-12 -7,-16 4,-4 15,0 24,9 18,18 8,23 -17,7 z"
       id="path332" />
    <path
       d="m 1785,1080 c 3,-5 8,-10 11,-10 2,0 4,5 4,10 0,6 -5,10 -11,10 -5,0 -7,-4 -4,-10 z"
       id="path334" />
    <path
       d="m 1855,1030 c 10,-11 20,-18 23,-15 7,6 -18,35 -31,35 -5,0 -2,-9 8,-20 z"
       id="path336" />
    <path
       d="m 5080,1020 c 0,-5 4,-10 9,-10 6,0 13,5 16,10 3,6 -1,10 -9,10 -9,0 -16,-4 -16,-10 z"
       id="path338" />
    <path
       d="m 1925,990 c 3,-5 8,-10 11,-10 2,0 4,5 4,10 0,6 -5,10 -11,10 -5,0 -7,-4 -4,-10 z"
       id="path340" />
    <path
       d="m 5010,969 c 0,-5 5,-7 10,-4 6,3 10,8 10,11 0,2 -4,4 -10,4 -5,0 -10,-5 -10,-11 z"
       id="path342" />
    <path
       d="m 2005,940 c 3,-5 10,-10 16,-10 5,0 9,5 9,10 0,6 -7,10 -16,10 -8,0 -12,-4 -9,-10 z"
       id="path344" />
    <path
       d="m 4950,940 c 0,-5 5,-10 10,-10 6,0 10,5 10,10 0,6 -4,10 -10,10 -5,0 -10,-4 -10,-10 z"
       id="path346" />
    <path
       d="m 4890,910 c 0,-5 4,-10 9,-10 6,0 13,5 16,10 3,6 -1,10 -9,10 -9,0 -16,-4 -16,-10 z"
       id="path348" />
    <path
       d="m 2110,890 c 0,-5 5,-10 10,-10 6,0 10,5 10,10 0,6 -4,10 -10,10 -5,0 -10,-4 -10,-10 z"
       id="path350" />
    <path
       d="m 2170,860 c 0,-5 5,-10 10,-10 6,0 10,5 10,10 0,6 -4,10 -10,10 -5,0 -10,-4 -10,-10 z"
       id="path352" />
    <path
       d="m 4780,860 c 0,-5 4,-10 9,-10 6,0 13,5 16,10 3,6 -1,10 -9,10 -9,0 -16,-4 -16,-10 z"
       id="path354" />
    <path
       d="m 2220,830 c 0,-5 5,-10 10,-10 6,0 10,5 10,10 0,6 -4,10 -10,10 -5,0 -10,-4 -10,-10 z"
       id="path356" />
    <path
       d="m 4730,830 c 0,-5 4,-10 9,-10 6,0 13,5 16,10 3,6 -1,10 -9,10 -9,0 -16,-4 -16,-10 z"
       id="path358" />
    <path
       d="m 2275,800 c 3,-5 8,-10 11,-10 2,0 4,5 4,10 0,6 -5,10 -11,10 -5,0 -7,-4 -4,-10 z"
       id="path360" />
    <path
       d="m 4680,799 c 0,-5 5,-7 10,-4 6,3 10,8 10,11 0,2 -4,4 -10,4 -5,0 -10,-5 -10,-11 z"
       id="path362" />
    <path
       d="m 2330,780 c 0,-5 5,-10 10,-10 6,0 10,5 10,10 0,6 -4,10 -10,10 -5,0 -10,-4 -10,-10 z"
       id="path364" />
    <path
       d="m 4620,780 c 0,-5 5,-10 10,-10 6,0 10,5 10,10 0,6 -4,10 -10,10 -5,0 -10,-4 -10,-10 z"
       id="path366" />
    <path
       d="m 2410,750 c 0,-5 9,-10 20,-10 11,0 20,5 20,10 0,6 -9,10 -20,10 -11,0 -20,-4 -20,-10 z"
       id="path368" />
    <path
       d="m 4520,750 c 0,-5 9,-10 20,-10 11,0 20,5 20,10 0,6 -9,10 -20,10 -11,0 -20,-4 -20,-10 z"
       id="path370" />
    <path
       d="m 2495,720 c 3,-5 10,-10 16,-10 5,0 9,5 9,10 0,6 -7,10 -16,10 -8,0 -12,-4 -9,-10 z"
       id="path372" />
    <path
       d="m 4450,720 c 0,-5 4,-10 9,-10 6,0 13,5 16,10 3,6 -1,10 -9,10 -9,0 -16,-4 -16,-10 z"
       id="path374" />
    <path
       d="m 4398,703 c -10,-3 -18,-9 -18,-14 0,-12 37,-12 45,0 7,12 -5,19 -27,14 z"
       id="path376" />
    <path
       d="m 2555,690 c 3,-5 15,-10 26,-10 10,0 19,5 19,10 0,6 -12,10 -26,10 -14,0 -23,-4 -19,-10 z"
       id="path378" />
    <path
       d="m 2660,670 c 0,-5 7,-10 15,-10 8,0 15,5 15,10 0,6 -7,10 -15,10 -8,0 -15,-4 -15,-10 z"
       id="path380" />
    <path
       d="m 4310,670 c 0,-5 6,-10 14,-10 8,0 18,5 21,10 3,6 -3,10 -14,10 -12,0 -21,-4 -21,-10 z"
       id="path382" />
    <path
       d="m 2736,652 c -3,-3 -3,-9 0,-13 7,-12 54,-12 54,0 0,10 -47,21 -54,13 z"
       id="path384" />
    <path
       d="m 4170,640 c 0,-5 14,-10 30,-10 17,0 30,5 30,10 0,6 -13,10 -30,10 -16,0 -30,-4 -30,-10 z"
       id="path386" />
    <path
       d="m 2844,621 c -2,-2 -1,-8 2,-12 7,-12 124,-11 124,0 0,9 -118,20 -126,12 z"
       id="path388" />
    <path
       d="m 4058,622 c -32,-2 -58,-7 -58,-12 0,-13 117,-13 125,-1 8,14 -4,16 -67,13 z"
       id="path390" />
    <path
       d="m 3012,589 c 2,-7 10,-15 17,-17 8,-3 12,1 9,9 -2,7 -10,15 -17,17 -8,3 -12,-1 -9,-9 z"
       id="path392" />
    <path
       d="m 3935,590 c -3,-5 1,-10 9,-10 9,0 16,5 16,10 0,6 -4,10 -9,10 -6,0 -13,-4 -16,-10 z"
       id="path394" />
    <path
       d="m 3180,560 c 0,-6 27,-10 60,-10 33,0 60,4 60,10 0,6 -27,10 -60,10 -33,0 -60,-4 -60,-10 z"
       id="path396" />
    <path
       d="m 3470,560 c 0,-5 20,-10 45,-10 25,0 45,5 45,10 0,6 -20,10 -45,10 -25,0 -45,-4 -45,-10 z"
       id="path398" />
    <path
       d="m 3750,560 c 0,-5 9,-10 19,-10 11,0 23,5 26,10 4,6 -5,10 -19,10 -14,0 -26,-4 -26,-10 z"
       id="path400" />
  </g>
</svg>
