<?xml version="1.0" standalone="no"?>
<!DOCTYPE svg PUBLIC "-//W3C//DTD SVG 20010904//EN"
 "http://www.w3.org/TR/2001/REC-SVG-20010904/DTD/svg10.dtd">
<svg version="1.0" xmlns="http://www.w3.org/2000/svg"
 width="256.000000pt" height="256.000000pt" viewBox="0 0 256.000000 256.000000"
 preserveAspectRatio="xMidYMid meet">
<metadata>
Created by potrace 1.16, written by Peter Selinger 2001-2019
</metadata>
<g transform="translate(0.000000,256.000000) scale(0.047850,-0.054936)"
fill="#000000" stroke="none">
<path d="M2465 3994 c-623 -90 -1114 -440 -1390 -992 -125 -251 -179 -489
-179 -792 0 -244 29 -404 114 -620 29 -75 126 -265 163 -320 62 -92 174 -236
232 -299 201 -216 551 -408 900 -495 79 -20 251 -36 384 -36 196 0 377 29 519
81 142 52 176 66 287 122 503 249 869 762 950 1328 76 539 -115 1111 -503
1502 -209 211 -430 350 -697 436 -214 70 -303 84 -540 87 -115 1 -223 0 -240
-2z m-638 -673 c58 -17 175 -114 255 -212 126 -155 257 -388 288 -512 7 -25
18 -48 26 -51 8 -3 40 0 71 5 58 11 404 6 471 -7 25 -5 32 -3 32 10 0 15 38
121 63 176 24 51 133 237 176 300 66 96 215 241 280 273 155 76 281 -13 326
-229 19 -91 16 -317 -5 -456 -33 -207 -91 -412 -150 -529 -20 -38 -20 -43 -6
-87 41 -124 50 -204 51 -407 l0 -200 -29 -58 c-46 -91 -113 -146 -268 -221
-74 -35 -147 -68 -164 -71 -16 -4 -39 -14 -52 -22 -59 -37 -288 -133 -355
-149 -72 -17 -80 -17 -179 1 -64 11 -170 41 -278 80 -97 35 -214 75 -260 90
-244 77 -328 123 -404 223 -65 84 -76 138 -71 342 3 147 23 290 56 398 11 37
9 46 -24 124 -107 252 -158 527 -146 793 6 132 9 154 24 208 43 149 150 223
272 188z"/>
<path d="M2187 2040 c-50 -13 -88 -33 -112 -60 -18 -20 -18 -22 -2 -31 11 -7
17 -22 17 -44 0 -19 4 -35 8 -35 11 0 112 40 190 75 44 20 62 33 60 44 -2 9 3
21 12 28 8 6 12 14 9 18 -12 11 -143 15 -182 5z"/>
<path d="M2983 2044 c-26 -6 -30 -22 -9 -30 8 -3 12 -13 9 -23 -3 -12 5 -21
24 -30 51 -25 216 -91 225 -91 4 0 8 16 8 35 0 22 6 37 17 44 16 9 16 11 -2
32 -32 36 -100 60 -178 64 -40 2 -82 1 -94 -1z"/>
<path d="M2576 1640 c-68 -22 -84 -71 -44 -142 27 -47 91 -88 137 -88 84 0
173 102 155 176 -10 39 -49 56 -138 60 -45 2 -94 -1 -110 -6z"/>
<path d="M2290 1441 c0 -47 91 -133 155 -146 106 -23 105 -22 105 -71 0 -39 5
-51 34 -80 28 -28 42 -34 76 -34 75 0 130 54 130 129 0 25 5 32 28 37 61 13
118 36 154 60 36 25 82 99 72 116 -12 18 -33 6 -51 -29 -22 -45 -68 -78 -142
-101 -80 -24 -294 -24 -374 1 -64 20 -134 75 -143 113 -7 29 -44 33 -44 5z"/>
</g>
</svg>
