<svg id="svg" version="1.1" xmlns="http://www.w3.org/2000/svg" xmlns:xlink="http://www.w3.org/1999/xlink" width="400" height="400" viewBox="0, 0, 400,400"><g id="svgg"><path id="path0" d="M103.695 62.500 C 103.454 62.995,103.054 64.061,102.807 64.868 C 102.561 65.676,101.861 67.026,101.252 67.868 C 98.151 72.158,98.294 78.777,101.558 82.043 C 103.036 83.522,108.150 89.501,112.641 95.000 C 114.691 97.510,118.687 103.946,119.278 105.687 C 119.522 106.409,120.309 107.900,121.026 109.000 C 121.743 110.100,122.885 112.655,123.565 114.678 C 124.245 116.701,125.152 118.951,125.580 119.678 C 127.620 123.138,130.753 138.314,131.370 147.729 C 132.758 168.891,132.909 173.219,132.673 185.000 C 132.159 210.614,130.806 230.858,129.011 239.800 C 128.099 244.342,127.739 246.822,126.834 254.800 C 126.622 256.670,125.884 259.910,125.194 262.000 C 124.504 264.090,123.600 267.980,123.186 270.645 C 122.731 273.575,121.882 276.975,121.039 279.245 C 120.272 281.310,119.519 283.540,119.367 284.200 C 119.214 284.860,118.214 287.181,117.145 289.358 C 116.075 291.536,115.200 293.534,115.200 293.799 C 115.200 294.064,114.390 295.515,113.400 297.022 C 112.410 298.529,111.600 299.987,111.600 300.262 C 111.600 300.537,110.873 302.142,109.985 303.828 C 109.097 305.514,107.906 307.997,107.339 309.347 C 106.771 310.696,105.811 312.430,105.205 313.200 C 104.598 313.970,103.632 316.147,103.057 318.039 C 102.482 319.930,101.669 321.913,101.250 322.445 C 98.805 325.554,98.292 332.426,100.362 334.331 C 103.510 337.227,104.921 337.886,111.200 339.392 L 115.400 340.399 185.880 340.399 C 245.839 340.400,256.690 340.314,258.566 339.826 C 265.716 337.963,270.632 331.799,270.327 325.077 C 270.052 319.016,268.599 316.703,259.311 307.542 C 247.868 296.257,247.671 296.065,242.992 291.729 C 233.184 282.640,229.329 278.914,227.998 277.240 C 227.229 276.273,226.036 274.833,225.346 274.040 C 223.371 271.772,219.170 264.814,218.358 262.466 C 217.952 261.292,217.104 259.402,216.474 258.266 C 215.843 257.130,215.012 255.030,214.626 253.600 C 214.240 252.170,213.298 248.969,212.533 246.487 C 211.769 244.005,210.989 240.855,210.801 239.487 C 207.855 218.039,209.551 210.507,217.928 207.832 C 219.618 207.293,221.720 206.578,222.600 206.243 C 224.670 205.456,227.981 205.452,231.000 206.233 C 232.320 206.574,234.875 207.192,236.679 207.605 C 240.448 208.470,241.798 209.090,243.200 210.602 C 243.750 211.195,244.940 212.031,245.846 212.459 C 246.751 212.887,248.430 214.039,249.578 215.018 C 250.726 215.998,251.824 216.800,252.017 216.800 C 252.211 216.800,253.343 217.594,254.534 218.564 C 257.221 220.752,258.294 221.297,261.688 222.198 C 266.208 223.399,273.215 221.871,275.975 219.083 C 279.296 215.729,279.204 216.650,279.170 187.085 C 279.135 157.776,279.334 159.679,275.929 156.062 C 271.724 151.595,271.236 151.532,240.400 151.458 L 216.600 151.400 214.551 150.319 C 212.089 149.021,209.569 146.264,207.858 143.000 C 206.158 139.756,205.922 129.427,207.484 126.600 C 210.461 121.211,218.515 115.475,226.167 113.294 C 233.104 111.316,250.273 112.502,257.477 115.456 C 259.280 116.195,261.011 116.800,261.324 116.800 C 262.422 116.800,268.546 121.237,271.957 124.503 C 275.361 127.763,276.084 128.738,279.600 134.811 C 284.284 142.902,289.879 149.611,293.200 151.120 C 295.032 151.952,306.412 152.304,309.458 151.622 C 312.115 151.027,314.328 148.751,315.539 145.368 C 316.006 144.065,316.795 142.280,317.293 141.400 C 318.940 138.493,318.753 100.299,317.025 86.615 C 316.692 83.984,316.308 79.484,316.170 76.615 C 315.816 69.252,314.665 64.772,312.491 62.300 C 311.908 61.637,306.429 61.600,208.006 61.600 L 104.135 61.600 103.695 62.500 " stroke="none" fill="#ecee23" fill-rule="evenodd"></path><path id="path1" d="M0.000 200.000 L 0.000 400.000 200.000 400.000 L 400.000 400.000 400.000 200.000 L 400.000 0.000 200.000 0.000 L 0.000 0.000 0.000 200.000 M227.000 6.903 C 228.760 7.247,232.630 7.841,235.600 8.223 C 238.570 8.605,241.990 9.234,243.200 9.621 C 244.410 10.008,246.390 10.452,247.600 10.609 C 248.810 10.766,250.276 11.138,250.858 11.435 C 251.440 11.733,252.700 12.089,253.658 12.225 C 255.820 12.533,264.041 15.011,266.200 16.006 C 267.080 16.411,268.430 16.867,269.200 17.018 C 269.970 17.169,270.784 17.440,271.010 17.620 C 271.235 17.801,272.315 18.248,273.410 18.614 C 275.663 19.368,280.027 21.181,283.000 22.599 C 292.660 27.207,298.225 30.059,300.206 31.420 C 300.863 31.870,301.850 32.454,302.400 32.716 C 303.894 33.429,309.868 37.299,312.600 39.324 C 313.920 40.302,315.540 41.379,316.200 41.717 C 316.860 42.055,317.940 42.855,318.600 43.495 C 319.260 44.135,320.880 45.436,322.200 46.385 C 323.520 47.334,324.997 48.491,325.481 48.955 C 326.636 50.062,327.311 50.635,330.049 52.832 C 331.305 53.840,333.029 55.370,333.880 56.232 C 334.731 57.095,335.961 58.262,336.614 58.827 C 337.923 59.960,346.703 69.248,348.600 71.507 C 349.260 72.293,350.700 73.970,351.800 75.234 C 352.900 76.499,354.790 78.901,356.000 80.572 C 357.210 82.244,359.144 84.824,360.298 86.306 C 361.452 87.788,362.397 89.163,362.398 89.362 C 362.399 89.561,362.850 90.314,363.400 91.036 C 363.950 91.757,364.400 92.517,364.400 92.724 C 364.400 92.932,364.657 93.315,364.971 93.576 C 365.513 94.025,369.978 101.441,370.837 103.317 C 371.059 103.803,371.675 104.920,372.205 105.800 C 373.397 107.780,377.639 116.539,379.372 120.600 C 379.654 121.260,380.270 122.610,380.743 123.600 C 381.670 125.545,383.733 131.096,384.607 134.000 C 385.091 135.609,385.484 136.814,386.886 141.000 C 387.107 141.660,387.468 142.920,387.688 143.800 C 387.908 144.680,388.409 146.480,388.801 147.800 C 390.145 152.328,392.083 162.149,392.746 167.800 C 392.953 169.560,393.365 171.810,393.661 172.800 C 394.557 175.791,394.435 216.236,393.522 219.200 C 393.149 220.410,392.728 222.840,392.586 224.600 C 392.444 226.360,392.080 228.880,391.778 230.200 C 391.476 231.520,391.027 233.770,390.781 235.200 C 390.534 236.630,390.066 238.790,389.740 240.000 C 389.413 241.210,388.723 243.820,388.205 245.800 C 387.688 247.780,387.072 249.940,386.836 250.600 C 385.820 253.449,383.518 260.267,383.324 261.000 C 383.059 262.001,381.232 266.727,380.783 267.572 C 380.111 268.837,378.400 272.759,378.400 273.034 C 378.400 273.190,377.320 275.529,376.000 278.232 C 374.680 280.935,373.600 283.280,373.600 283.442 C 373.600 283.604,373.354 284.021,373.053 284.369 C 372.752 284.716,371.747 286.432,370.818 288.181 C 369.890 289.931,368.786 291.800,368.365 292.335 C 367.944 292.870,367.600 293.466,367.600 293.659 C 367.600 294.195,361.506 303.329,357.683 308.524 C 352.652 315.358,351.003 317.351,345.069 323.765 C 338.745 330.600,333.626 335.544,327.335 340.891 C 324.163 343.587,321.968 345.272,313.242 351.704 C 312.275 352.417,310.453 353.630,309.193 354.400 C 307.933 355.170,306.114 356.334,305.151 356.987 C 304.188 357.640,302.770 358.512,302.000 358.925 C 301.230 359.338,300.150 359.965,299.600 360.318 C 296.743 362.153,280.198 370.400,279.374 370.400 C 279.197 370.400,278.321 370.729,277.426 371.132 C 272.821 373.203,263.863 376.443,261.200 377.000 C 260.430 377.161,259.595 377.457,259.345 377.658 C 259.095 377.858,257.745 378.281,256.345 378.596 C 254.945 378.911,252.540 379.538,251.000 379.988 C 249.460 380.439,247.030 381.000,245.600 381.235 C 244.170 381.470,242.173 381.923,241.162 382.242 C 240.152 382.562,237.542 382.984,235.362 383.180 C 233.183 383.377,230.320 383.812,229.000 384.147 C 221.471 386.058,186.968 386.072,179.400 384.167 C 178.080 383.835,175.110 383.387,172.800 383.172 C 170.490 382.957,167.790 382.529,166.800 382.221 C 165.810 381.913,163.769 381.460,162.263 381.213 C 160.758 380.966,158.148 380.340,156.463 379.821 C 154.779 379.303,152.686 378.756,151.814 378.605 C 150.941 378.455,149.735 378.077,149.134 377.766 C 148.532 377.455,147.086 376.999,145.920 376.753 C 144.754 376.508,143.620 376.165,143.400 375.992 C 143.180 375.819,141.650 375.274,140.000 374.781 C 138.350 374.288,136.191 373.461,135.203 372.943 C 134.215 372.424,133.225 371.999,133.003 371.999 C 132.329 371.996,126.993 369.732,122.653 367.607 C 120.398 366.503,118.457 365.600,118.340 365.600 C 117.992 365.600,109.017 360.698,108.800 360.389 C 108.690 360.233,107.636 359.619,106.458 359.025 C 105.280 358.430,103.210 357.173,101.858 356.230 C 100.506 355.288,98.770 354.200,98.000 353.813 C 97.230 353.427,95.758 352.410,94.728 351.555 C 93.699 350.700,92.735 350.000,92.587 350.000 C 92.362 350.000,86.588 345.630,83.466 343.097 C 79.149 339.593,74.754 335.548,69.002 329.782 C 62.225 322.988,61.246 321.942,57.435 317.413 C 56.330 316.100,55.126 314.726,54.760 314.360 C 54.393 313.993,53.317 312.547,52.368 311.146 C 51.420 309.746,50.454 308.376,50.222 308.103 C 48.027 305.515,40.404 294.160,40.401 293.473 C 40.401 293.294,39.956 292.564,39.412 291.852 C 38.869 291.140,38.145 289.937,37.802 289.178 C 37.460 288.420,36.659 286.900,36.023 285.800 C 34.189 282.630,29.200 272.403,29.200 271.812 C 29.200 271.480,27.983 268.639,27.213 267.172 C 26.532 265.876,24.820 261.236,23.237 256.400 C 22.337 253.650,21.240 250.320,20.800 249.000 C 20.360 247.680,20.001 246.330,20.002 246.000 C 20.003 245.670,19.570 243.960,19.039 242.200 C 18.509 240.440,17.875 238.010,17.631 236.800 C 17.387 235.590,16.906 233.250,16.563 231.600 C 16.220 229.950,15.775 226.980,15.576 225.000 C 15.376 223.020,14.895 220.050,14.506 218.400 C 13.471 214.004,13.442 177.211,14.470 173.200 C 14.837 171.770,15.250 169.250,15.389 167.600 C 15.527 165.950,15.896 163.340,16.210 161.800 C 16.523 160.260,17.157 157.110,17.619 154.800 C 18.081 152.490,18.794 149.520,19.203 148.200 C 19.612 146.880,20.119 145.080,20.329 144.200 C 20.540 143.320,20.903 142.060,21.136 141.400 C 21.369 140.740,22.401 137.680,23.428 134.600 C 26.413 125.656,26.496 125.430,27.030 124.800 C 27.309 124.470,27.666 123.660,27.823 123.000 C 27.980 122.340,28.349 121.350,28.642 120.800 C 28.935 120.250,29.618 118.720,30.160 117.400 C 31.098 115.115,34.376 108.579,37.183 103.400 C 38.621 100.748,39.626 99.096,42.604 94.496 C 43.706 92.793,45.126 90.516,45.759 89.435 C 46.392 88.354,47.352 86.973,47.892 86.367 C 48.432 85.761,49.783 83.946,50.894 82.333 C 53.342 78.779,53.890 78.068,56.534 75.015 C 63.858 66.560,73.707 56.351,76.939 53.866 C 77.633 53.332,78.669 52.469,79.243 51.948 C 83.571 48.015,85.707 46.326,91.936 41.911 C 93.401 40.873,94.960 39.737,95.400 39.388 C 97.750 37.525,108.498 30.925,113.200 28.458 C 117.626 26.137,122.660 23.698,123.693 23.374 C 124.192 23.218,125.029 22.755,125.554 22.345 C 126.079 21.935,126.799 21.599,127.154 21.598 C 127.509 21.596,128.340 21.307,129.000 20.954 C 130.564 20.119,136.898 17.661,139.200 16.998 C 140.190 16.712,141.540 16.192,142.200 15.842 C 142.860 15.491,143.590 15.204,143.821 15.202 C 144.053 15.201,146.123 14.573,148.421 13.806 C 150.720 13.039,153.009 12.409,153.510 12.406 C 154.010 12.403,155.439 12.042,156.685 11.604 C 157.931 11.166,159.862 10.694,160.975 10.556 C 162.089 10.417,163.990 9.987,165.200 9.600 C 166.410 9.212,168.840 8.697,170.600 8.454 C 172.360 8.211,175.870 7.709,178.400 7.338 C 186.656 6.127,187.602 6.087,205.800 6.182 C 220.199 6.258,224.440 6.402,227.000 6.903 " stroke="none" fill="#fcfbfb" fill-rule="evenodd"></path><path id="path2" d="M190.800 8.197 C 187.390 8.470,184.150 8.802,183.600 8.936 C 183.050 9.070,180.335 9.360,177.567 9.582 C 174.799 9.804,171.919 10.238,171.167 10.548 C 170.415 10.858,168.450 11.232,166.800 11.378 C 165.150 11.525,163.440 11.820,163.000 12.035 C 162.211 12.421,153.854 14.661,148.817 15.837 C 147.396 16.168,146.046 16.593,145.817 16.781 C 145.588 16.968,144.590 17.327,143.600 17.578 C 142.610 17.828,141.440 18.194,141.000 18.391 C 138.472 19.521,136.457 20.299,135.400 20.556 C 134.248 20.835,132.435 21.586,129.000 23.204 C 128.120 23.619,125.780 24.683,123.800 25.568 C 121.820 26.454,119.210 27.712,118.000 28.364 C 116.790 29.016,114.720 30.106,113.400 30.786 C 112.080 31.466,110.342 32.423,109.537 32.912 C 104.687 35.858,103.286 36.687,101.881 37.446 C 101.019 37.911,100.198 38.454,100.057 38.653 C 99.916 38.851,98.451 39.910,96.803 41.007 C 95.154 42.103,93.534 43.213,93.203 43.474 C 92.871 43.734,90.710 45.387,88.400 47.147 C 79.320 54.065,65.367 67.139,60.791 73.018 C 60.456 73.448,58.656 75.712,56.791 78.048 C 54.926 80.385,53.130 82.698,52.800 83.188 C 52.470 83.677,51.390 85.118,50.400 86.389 C 49.410 87.660,47.816 89.974,46.859 91.530 C 45.901 93.087,45.001 94.415,44.859 94.480 C 44.716 94.546,44.295 95.140,43.921 95.800 C 43.548 96.460,42.128 98.940,40.765 101.311 C 36.292 109.096,31.018 119.599,30.190 122.372 C 30.031 122.907,29.563 123.897,29.152 124.572 C 28.740 125.248,28.402 126.132,28.401 126.538 C 28.401 126.944,28.132 127.754,27.805 128.338 C 27.131 129.542,26.482 131.355,24.774 136.800 C 24.118 138.890,23.316 141.167,22.991 141.860 C 22.666 142.554,22.400 143.614,22.400 144.217 C 22.400 144.819,22.059 146.052,21.641 146.956 C 21.224 147.860,20.693 149.680,20.460 151.000 C 19.920 154.065,18.940 159.025,18.175 162.572 C 17.846 164.096,17.315 167.606,16.995 170.372 C 16.675 173.137,16.110 178.010,15.741 181.200 C 14.766 189.601,14.597 200.190,15.345 205.922 C 15.680 208.495,16.063 211.950,16.195 213.600 C 16.672 219.549,17.273 224.266,18.004 227.800 C 18.413 229.780,18.872 232.390,19.024 233.600 C 19.175 234.810,19.484 236.250,19.709 236.800 C 19.934 237.350,20.347 239.060,20.626 240.600 C 20.906 242.140,21.413 244.210,21.752 245.200 C 22.091 246.190,23.113 249.430,24.022 252.400 C 24.931 255.370,25.928 258.278,26.237 258.862 C 26.547 259.446,26.800 260.258,26.800 260.668 C 26.800 261.077,27.135 262.039,27.544 262.806 C 27.953 263.573,28.420 264.650,28.581 265.200 C 28.742 265.750,29.217 266.965,29.637 267.900 C 30.057 268.835,30.740 270.365,31.155 271.300 C 31.571 272.235,32.362 273.990,32.914 275.200 C 33.466 276.410,34.213 278.114,34.574 278.986 C 34.935 279.858,35.380 280.668,35.563 280.786 C 35.745 280.904,36.246 281.720,36.675 282.600 C 38.097 285.515,41.299 291.390,41.798 292.000 C 42.068 292.330,42.800 293.500,43.425 294.600 C 44.050 295.700,44.678 296.690,44.821 296.800 C 44.964 296.910,45.576 297.810,46.182 298.800 C 47.361 300.725,49.202 303.543,49.709 304.200 C 49.879 304.420,51.177 306.130,52.593 308.000 C 54.009 309.870,55.425 311.695,55.739 312.056 C 56.054 312.416,57.066 313.676,57.989 314.856 C 58.911 316.035,60.416 317.896,61.333 318.991 C 63.292 321.331,75.181 333.283,77.205 334.947 C 77.972 335.578,79.597 337.025,80.816 338.163 C 82.035 339.301,84.150 341.015,85.516 341.974 C 86.882 342.932,88.000 343.847,88.000 344.008 C 88.000 344.168,89.440 345.245,91.200 346.400 C 92.960 347.555,94.401 348.613,94.403 348.750 C 94.404 348.888,94.984 349.360,95.692 349.800 C 98.859 351.770,103.214 354.618,103.800 355.103 C 104.164 355.404,105.668 356.278,110.200 358.820 C 111.080 359.314,112.520 360.134,113.400 360.643 C 114.972 361.553,115.489 361.810,120.892 364.373 C 122.372 365.076,123.685 365.814,123.809 366.014 C 123.932 366.214,124.791 366.594,125.717 366.859 C 126.643 367.124,127.580 367.468,127.800 367.625 C 128.020 367.781,129.634 368.479,131.386 369.177 C 133.138 369.874,134.758 370.594,134.986 370.776 C 135.214 370.958,136.030 371.236,136.800 371.393 C 137.570 371.550,138.588 371.924,139.063 372.224 C 139.537 372.524,140.797 372.983,141.863 373.243 C 142.928 373.504,144.250 373.935,144.800 374.201 C 145.350 374.468,147.420 375.087,149.400 375.578 C 151.380 376.070,153.364 376.703,153.810 376.986 C 154.255 377.269,155.605 377.633,156.810 377.794 C 158.014 377.956,159.597 378.335,160.327 378.635 C 161.057 378.936,163.037 379.360,164.727 379.577 C 166.417 379.794,169.420 380.350,171.400 380.812 C 173.380 381.274,176.710 381.824,178.800 382.033 C 180.890 382.242,185.030 382.725,188.000 383.107 C 195.511 384.071,212.489 384.071,220.000 383.107 C 222.970 382.725,227.110 382.239,229.200 382.026 C 231.290 381.813,234.710 381.264,236.800 380.805 C 238.890 380.347,241.950 379.789,243.600 379.566 C 245.250 379.342,247.140 378.919,247.800 378.625 C 248.460 378.331,250.067 377.963,251.372 377.807 C 252.676 377.652,254.116 377.286,254.572 376.995 C 255.027 376.703,257.020 376.010,259.000 375.454 C 260.980 374.899,263.320 374.172,264.200 373.840 C 265.080 373.507,266.139 373.227,266.553 373.218 C 266.967 373.208,267.867 372.859,268.553 372.443 C 269.239 372.027,270.405 371.558,271.143 371.402 C 271.882 371.245,273.682 370.582,275.143 369.927 C 276.605 369.273,278.610 368.397,279.600 367.982 C 283.160 366.489,284.209 366.010,284.800 365.609 C 285.130 365.385,287.110 364.377,289.200 363.370 C 294.474 360.827,295.314 360.411,296.000 359.995 C 296.330 359.795,298.040 358.795,299.800 357.773 C 301.560 356.750,303.630 355.512,304.400 355.022 C 307.347 353.144,313.409 349.066,313.600 348.833 C 313.710 348.699,314.862 347.872,316.160 346.995 C 317.458 346.118,319.348 344.671,320.360 343.781 C 321.372 342.890,322.767 341.810,323.460 341.381 C 324.668 340.632,330.235 335.725,333.189 332.805 C 333.965 332.038,335.260 330.868,336.068 330.205 C 337.309 329.186,342.935 323.302,346.781 319.000 C 348.623 316.939,354.400 309.573,354.403 309.279 C 354.405 309.126,355.000 308.370,355.724 307.600 C 356.875 306.377,364.251 295.591,365.433 293.402 C 365.671 292.961,366.436 291.680,367.133 290.556 C 367.830 289.431,368.400 288.379,368.400 288.218 C 368.400 288.056,368.756 287.424,369.191 286.813 C 370.045 285.614,374.520 276.985,374.928 275.752 C 375.065 275.338,375.334 274.730,375.526 274.400 C 376.586 272.575,380.595 263.156,381.228 261.000 C 382.152 257.856,384.155 252.024,384.838 250.489 C 385.257 249.548,385.608 248.378,385.618 247.889 C 385.627 247.400,385.915 246.280,386.257 245.400 C 386.598 244.520,387.120 242.540,387.416 241.000 C 387.712 239.460,388.213 237.120,388.529 235.800 C 388.844 234.480,389.411 231.600,389.788 229.400 C 390.165 227.200,390.708 224.500,390.994 223.400 C 391.280 222.300,391.625 219.060,391.761 216.200 C 391.897 213.340,392.271 209.920,392.590 208.600 C 393.420 205.175,393.434 186.925,392.610 182.977 C 392.287 181.425,391.853 177.645,391.647 174.577 C 391.314 169.625,390.624 165.408,388.574 155.800 C 388.246 154.260,387.746 151.710,387.464 150.132 C 387.182 148.555,386.738 147.007,386.476 146.692 C 386.215 146.377,385.888 145.237,385.749 144.160 C 385.610 143.082,385.184 141.660,384.801 141.000 C 384.418 140.340,383.988 139.175,383.845 138.411 C 383.587 137.034,381.200 130.108,380.188 127.800 C 379.898 127.140,379.534 126.060,379.377 125.400 C 379.221 124.740,378.861 123.930,378.577 123.600 C 378.294 123.270,377.931 122.460,377.770 121.800 C 377.609 121.140,377.145 120.171,376.739 119.646 C 376.333 119.121,376.000 118.465,376.000 118.187 C 376.000 117.909,375.479 116.629,374.843 115.341 C 374.207 114.053,373.397 112.370,373.043 111.600 C 372.689 110.830,371.936 109.390,371.368 108.400 C 370.801 107.410,369.766 105.564,369.068 104.298 C 366.780 100.144,366.592 99.823,365.089 97.492 C 364.270 96.223,363.600 95.107,363.600 95.012 C 363.600 94.918,363.015 94.005,362.300 92.985 C 361.585 91.964,360.818 90.830,360.595 90.465 C 359.474 88.624,358.299 86.996,354.916 82.600 C 352.885 79.960,350.985 77.530,350.693 77.200 C 350.401 76.870,348.911 75.078,347.381 73.218 C 340.523 64.877,329.061 54.241,317.000 45.025 C 314.095 42.804,308.407 38.845,306.887 37.985 C 306.289 37.647,304.990 36.839,304.000 36.190 C 303.010 35.540,301.750 34.782,301.200 34.505 C 300.650 34.228,299.660 33.648,299.000 33.216 C 298.340 32.784,296.540 31.766,295.000 30.954 C 290.244 28.444,289.420 28.001,288.800 27.622 C 287.501 26.828,281.123 24.000,280.631 24.000 C 280.343 24.000,279.650 23.640,279.091 23.200 C 278.531 22.760,277.825 22.400,277.521 22.400 C 277.218 22.400,276.302 22.060,275.486 21.644 C 274.670 21.228,273.506 20.772,272.901 20.631 C 272.295 20.490,270.540 19.857,269.000 19.224 C 265.881 17.942,263.006 16.948,260.600 16.320 C 259.720 16.091,258.190 15.647,257.200 15.334 C 252.314 13.790,244.597 11.913,241.168 11.435 C 239.060 11.141,236.938 10.688,236.453 10.428 C 235.967 10.168,233.462 9.789,230.885 9.585 C 228.308 9.382,225.030 9.036,223.600 8.816 C 215.647 7.596,201.632 7.332,190.800 8.197 M314.132 60.830 C 315.355 61.169,315.783 61.552,316.255 62.728 C 316.581 63.537,317.381 65.223,318.033 66.474 C 319.869 69.994,320.055 73.857,320.131 110.191 C 320.207 145.999,320.241 145.477,317.672 148.498 C 317.063 149.214,316.255 150.293,315.877 150.895 C 313.907 154.028,302.186 156.412,296.797 154.775 C 296.029 154.542,294.445 154.092,293.278 153.775 C 289.935 152.867,284.675 148.237,282.811 144.561 C 282.487 143.923,281.582 142.590,280.800 141.600 C 280.018 140.610,278.950 138.900,278.425 137.800 C 277.901 136.700,276.985 135.170,276.390 134.400 C 275.795 133.630,274.969 132.335,274.554 131.521 C 273.500 129.455,269.096 125.025,266.000 122.917 C 264.570 121.943,262.804 120.719,262.075 120.196 C 261.347 119.674,259.727 119.045,258.475 118.798 C 257.224 118.551,254.490 117.835,252.400 117.206 C 235.801 112.212,219.686 115.494,211.481 125.540 C 208.780 128.847,208.400 129.920,208.400 134.249 L 208.400 138.130 210.638 142.218 C 213.757 147.915,210.684 147.367,240.800 147.600 L 266.600 147.800 270.237 149.500 C 272.237 150.435,274.079 151.200,274.329 151.200 C 275.521 151.200,279.868 156.308,280.827 158.834 L 281.800 161.400 281.800 187.000 L 281.800 212.600 280.817 215.800 C 279.153 221.218,274.911 224.382,267.052 226.069 C 264.017 226.720,255.861 224.041,254.583 221.972 C 254.430 221.725,253.021 220.700,251.452 219.696 C 249.884 218.691,247.847 217.186,246.927 216.351 C 246.007 215.516,244.657 214.582,243.927 214.275 C 243.197 213.967,241.853 213.089,240.940 212.323 C 238.751 210.486,237.732 210.134,233.132 209.627 C 221.649 208.360,215.619 210.003,213.167 215.068 C 211.452 218.611,212.160 236.737,214.213 241.869 C 214.805 243.350,215.629 246.441,216.043 248.739 C 216.600 251.826,217.162 253.571,218.197 255.421 C 218.967 256.799,219.885 259.049,220.237 260.422 C 220.687 262.178,221.606 263.969,223.338 266.468 C 224.692 268.421,226.340 270.869,227.000 271.909 C 228.333 274.009,233.538 279.331,241.370 286.601 C 244.214 289.240,249.371 294.190,252.831 297.600 C 256.290 301.010,261.476 306.116,264.354 308.948 C 270.619 315.110,271.888 317.279,272.460 322.800 C 272.825 326.329,272.382 331.339,271.570 332.856 C 271.007 333.908,266.798 338.909,266.134 339.314 C 265.851 339.487,264.789 340.387,263.773 341.314 C 262.757 342.241,261.628 343.122,261.263 343.272 C 260.898 343.421,226.830 343.556,185.555 343.572 L 110.510 343.600 105.468 341.012 C 98.656 337.514,98.906 337.710,98.365 335.454 C 97.595 332.243,98.082 321.256,99.081 319.323 C 99.513 318.485,101.480 314.650,103.450 310.800 C 105.421 306.950,107.338 303.340,107.711 302.779 C 108.084 302.217,108.735 300.751,109.158 299.522 C 109.581 298.293,110.562 296.364,111.337 295.237 C 112.113 294.109,113.133 292.154,113.604 290.893 C 114.075 289.632,114.968 287.700,115.590 286.600 C 116.212 285.500,117.030 283.160,117.409 281.400 C 117.787 279.640,118.603 276.850,119.222 275.200 C 120.687 271.293,121.076 269.712,121.581 265.600 C 121.811 263.730,122.616 259.950,123.371 257.200 C 124.125 254.450,124.855 250.760,124.993 249.000 C 125.361 244.299,126.390 235.642,126.799 233.800 C 129.326 222.430,130.283 198.304,129.586 163.535 L 129.213 144.935 127.968 140.167 C 126.723 135.396,126.481 134.283,125.338 128.074 C 125.002 126.245,124.177 123.545,123.505 122.074 C 122.834 120.603,121.966 118.178,121.578 116.685 C 121.190 115.192,120.422 113.380,119.872 112.659 C 118.839 111.304,116.800 106.821,116.800 105.903 C 116.800 105.617,116.286 104.756,115.658 103.991 C 115.030 103.226,114.231 102.044,113.881 101.365 C 112.319 98.326,105.813 90.234,101.335 85.760 C 97.915 82.343,97.782 81.799,98.083 72.427 L 98.271 66.560 99.755 63.907 C 100.760 62.111,101.588 61.126,102.319 60.858 C 103.882 60.287,312.076 60.259,314.132 60.830 " stroke="none" fill="#fc0413" fill-rule="evenodd"></path><path id="path3" d="M202.512 7.495 C 203.564 7.577,205.184 7.576,206.112 7.492 C 207.040 7.408,206.180 7.341,204.200 7.342 C 202.220 7.343,201.460 7.412,202.512 7.495 M194.705 7.883 C 195.202 7.979,195.922 7.975,196.305 7.875 C 196.687 7.775,196.280 7.696,195.400 7.701 C 194.520 7.705,194.207 7.787,194.705 7.883 M212.100 7.876 C 212.485 7.976,213.115 7.976,213.500 7.876 C 213.885 7.775,213.570 7.693,212.800 7.693 C 212.030 7.693,211.715 7.775,212.100 7.876 M177.505 9.483 C 178.002 9.579,178.722 9.575,179.105 9.475 C 179.487 9.375,179.080 9.296,178.200 9.301 C 177.320 9.305,177.007 9.387,177.505 9.483 M229.105 9.483 C 229.602 9.579,230.322 9.575,230.705 9.475 C 231.087 9.375,230.680 9.296,229.800 9.301 C 228.920 9.305,228.607 9.387,229.105 9.483 M102.319 60.858 C 101.588 61.126,100.760 62.111,99.755 63.907 L 98.271 66.560 98.083 72.427 C 97.782 81.799,97.915 82.343,101.335 85.760 C 105.813 90.234,112.319 98.326,113.881 101.365 C 114.231 102.044,115.030 103.226,115.658 103.991 C 116.286 104.756,116.800 105.617,116.800 105.903 C 116.800 106.821,118.839 111.304,119.872 112.659 C 120.422 113.380,121.190 115.192,121.578 116.685 C 121.966 118.178,122.834 120.603,123.505 122.074 C 124.177 123.545,125.002 126.245,125.338 128.074 C 126.481 134.283,126.723 135.396,127.968 140.167 L 129.213 144.935 129.586 163.535 C 130.283 198.304,129.326 222.430,126.799 233.800 C 126.390 235.642,125.361 244.299,124.993 249.000 C 124.855 250.760,124.125 254.450,123.371 257.200 C 122.616 259.950,121.811 263.730,121.581 265.600 C 121.076 269.712,120.687 271.293,119.222 275.200 C 118.603 276.850,117.787 279.640,117.409 281.400 C 117.030 283.160,116.212 285.500,115.590 286.600 C 114.968 287.700,114.075 289.632,113.604 290.893 C 113.133 292.154,112.113 294.109,111.337 295.237 C 110.562 296.364,109.581 298.293,109.158 299.522 C 108.735 300.751,108.084 302.217,107.711 302.779 C 107.338 303.340,105.421 306.950,103.450 310.800 C 101.480 314.650,99.513 318.485,99.081 319.323 C 98.082 321.256,97.595 332.243,98.365 335.454 C 98.906 337.710,98.656 337.514,105.468 341.012 L 110.510 343.600 185.555 343.572 C 226.830 343.556,260.898 343.421,261.263 343.272 C 261.628 343.122,262.757 342.241,263.773 341.314 C 264.789 340.387,265.851 339.487,266.134 339.314 C 266.798 338.909,271.007 333.908,271.570 332.856 C 272.382 331.339,272.825 326.329,272.460 322.800 C 271.888 317.279,270.619 315.110,264.354 308.948 C 261.476 306.116,256.290 301.010,252.831 297.600 C 249.371 294.190,244.214 289.240,241.370 286.601 C 233.538 279.331,228.333 274.009,227.000 271.909 C 226.340 270.869,224.692 268.421,223.338 266.468 C 221.606 263.969,220.687 262.178,220.237 260.422 C 219.885 259.049,218.967 256.799,218.197 255.421 C 217.162 253.571,216.600 251.826,216.043 248.739 C 215.629 246.441,214.805 243.350,214.213 241.869 C 212.160 236.737,211.452 218.611,213.167 215.068 C 215.619 210.003,221.649 208.360,233.132 209.627 C 237.732 210.134,238.751 210.486,240.940 212.323 C 241.853 213.089,243.197 213.967,243.927 214.275 C 244.657 214.582,246.007 215.516,246.927 216.351 C 247.847 217.186,249.884 218.691,251.452 219.696 C 253.021 220.700,254.430 221.725,254.583 221.972 C 255.861 224.041,264.017 226.720,267.052 226.069 C 274.911 224.382,279.153 221.218,280.817 215.800 L 281.800 212.600 281.800 187.000 L 281.800 161.400 280.827 158.834 C 279.868 156.308,275.521 151.200,274.329 151.200 C 274.079 151.200,272.237 150.435,270.237 149.500 L 266.600 147.800 240.800 147.600 C 210.684 147.367,213.757 147.915,210.638 142.218 L 208.400 138.130 208.400 134.249 C 208.400 121.603,226.961 112.079,245.100 115.419 C 247.025 115.773,250.310 116.578,252.400 117.206 C 254.490 117.835,257.224 118.551,258.475 118.798 C 259.727 119.045,261.347 119.674,262.075 120.196 C 262.804 120.719,264.570 121.943,266.000 122.917 C 269.096 125.025,273.500 129.455,274.554 131.521 C 274.969 132.335,275.795 133.630,276.390 134.400 C 276.985 135.170,277.901 136.700,278.425 137.800 C 278.950 138.900,280.018 140.610,280.800 141.600 C 281.582 142.590,282.487 143.923,282.811 144.561 C 284.675 148.237,289.935 152.867,293.278 153.775 C 294.445 154.092,296.029 154.542,296.797 154.775 C 302.186 156.412,313.907 154.028,315.877 150.895 C 316.255 150.293,317.063 149.214,317.672 148.498 C 320.241 145.477,320.207 145.999,320.131 110.191 C 320.055 73.857,319.869 69.994,318.033 66.474 C 317.381 65.223,316.581 63.537,316.255 62.728 C 315.783 61.552,315.355 61.169,314.132 60.830 C 312.076 60.259,103.882 60.287,102.319 60.858 M312.491 62.300 C 314.665 64.772,315.816 69.252,316.170 76.615 C 316.308 79.484,316.692 83.984,317.025 86.615 C 318.753 100.299,318.940 138.493,317.293 141.400 C 316.795 142.280,316.006 144.065,315.539 145.368 C 314.328 148.751,312.115 151.027,309.458 151.622 C 306.412 152.304,295.032 151.952,293.200 151.120 C 289.879 149.611,284.284 142.902,279.600 134.811 C 276.084 128.738,275.361 127.763,271.957 124.503 C 268.546 121.237,262.422 116.800,261.324 116.800 C 261.011 116.800,259.280 116.195,257.477 115.456 C 250.273 112.502,233.104 111.316,226.167 113.294 C 218.515 115.475,210.461 121.211,207.484 126.600 C 205.922 129.427,206.158 139.756,207.858 143.000 C 209.569 146.264,212.089 149.021,214.551 150.319 L 216.600 151.400 240.400 151.458 C 271.236 151.532,271.724 151.595,275.929 156.062 C 279.334 159.679,279.135 157.776,279.170 187.085 C 279.204 216.650,279.296 215.729,275.975 219.083 C 273.215 221.871,266.208 223.399,261.688 222.198 C 258.294 221.297,257.221 220.752,254.534 218.564 C 253.343 217.594,252.211 216.800,252.017 216.800 C 251.824 216.800,250.726 215.998,249.578 215.018 C 248.430 214.039,246.751 212.887,245.846 212.459 C 244.940 212.031,243.750 211.195,243.200 210.602 C 241.798 209.090,240.448 208.470,236.679 207.605 C 234.875 207.192,232.320 206.574,231.000 206.233 C 227.981 205.452,224.670 205.456,222.600 206.243 C 221.720 206.578,219.618 207.293,217.928 207.832 C 209.551 210.507,207.855 218.039,210.801 239.487 C 210.989 240.855,211.769 244.005,212.533 246.487 C 213.298 248.969,214.240 252.170,214.626 253.600 C 215.012 255.030,215.843 257.130,216.474 258.266 C 217.104 259.402,217.952 261.292,218.358 262.466 C 219.170 264.814,223.371 271.772,225.346 274.040 C 226.036 274.833,227.229 276.273,227.998 277.240 C 229.329 278.914,233.184 282.640,242.992 291.729 C 247.671 296.065,247.868 296.257,259.311 307.542 C 268.599 316.703,270.052 319.016,270.327 325.077 C 270.632 331.799,265.716 337.963,258.566 339.826 C 256.690 340.314,245.839 340.400,185.880 340.399 L 115.400 340.399 111.200 339.392 C 104.921 337.886,103.510 337.227,100.362 334.331 C 98.292 332.426,98.805 325.554,101.250 322.445 C 101.669 321.913,102.482 319.930,103.057 318.039 C 103.632 316.147,104.598 313.970,105.205 313.200 C 105.811 312.430,106.771 310.696,107.339 309.347 C 107.906 307.997,109.097 305.514,109.985 303.828 C 110.873 302.142,111.600 300.537,111.600 300.262 C 111.600 299.987,112.410 298.529,113.400 297.022 C 114.390 295.515,115.200 294.064,115.200 293.799 C 115.200 293.534,116.075 291.536,117.145 289.358 C 118.214 287.181,119.214 284.860,119.367 284.200 C 119.519 283.540,120.272 281.310,121.039 279.245 C 121.882 276.975,122.731 273.575,123.186 270.645 C 123.600 267.980,124.504 264.090,125.194 262.000 C 125.884 259.910,126.622 256.670,126.834 254.800 C 127.739 246.822,128.099 244.342,129.011 239.800 C 130.512 232.324,130.714 229.971,132.034 204.640 C 133.668 173.272,132.370 145.237,128.574 129.929 C 127.356 125.018,126.009 120.405,125.580 119.678 C 125.152 118.951,124.245 116.701,123.565 114.678 C 122.885 112.655,121.743 110.100,121.026 109.000 C 120.309 107.900,119.522 106.409,119.278 105.687 C 118.687 103.946,114.691 97.510,112.641 95.000 C 108.150 89.501,103.036 83.522,101.558 82.043 C 98.294 78.777,98.151 72.158,101.252 67.868 C 101.861 67.026,102.561 65.676,102.807 64.868 C 103.054 64.061,103.454 62.995,103.695 62.500 L 104.135 61.600 208.006 61.600 C 306.429 61.600,311.908 61.637,312.491 62.300 " stroke="none" fill="#fb591a" fill-rule="evenodd"></path><path id="path4" d="M185.400 6.375 C 184.080 6.534,180.930 6.967,178.400 7.338 C 175.870 7.709,172.360 8.211,170.600 8.454 C 168.840 8.697,166.410 9.212,165.200 9.600 C 163.990 9.987,162.089 10.417,160.975 10.556 C 159.862 10.694,157.931 11.166,156.685 11.604 C 155.439 12.042,154.010 12.403,153.510 12.406 C 153.009 12.409,150.720 13.039,148.421 13.806 C 146.123 14.573,144.053 15.201,143.821 15.202 C 143.590 15.204,142.860 15.491,142.200 15.842 C 141.540 16.192,140.190 16.712,139.200 16.998 C 136.898 17.661,130.564 20.119,129.000 20.954 C 128.340 21.307,127.509 21.596,127.154 21.598 C 126.799 21.599,126.079 21.935,125.554 22.345 C 125.029 22.755,124.192 23.218,123.693 23.374 C 122.660 23.698,117.626 26.137,113.200 28.458 C 108.498 30.925,97.750 37.525,95.400 39.388 C 94.960 39.737,93.401 40.873,91.936 41.911 C 85.707 46.326,83.571 48.015,79.243 51.948 C 78.669 52.469,77.633 53.332,76.939 53.866 C 73.707 56.351,63.858 66.560,56.534 75.015 C 53.890 78.068,53.342 78.779,50.894 82.333 C 49.783 83.946,48.432 85.761,47.892 86.367 C 47.352 86.973,46.392 88.354,45.759 89.435 C 45.126 90.516,43.706 92.793,42.604 94.496 C 39.626 99.096,38.621 100.748,37.183 103.400 C 34.376 108.579,31.098 115.115,30.160 117.400 C 29.618 118.720,28.935 120.250,28.642 120.800 C 28.349 121.350,27.980 122.340,27.823 123.000 C 27.666 123.660,27.309 124.470,27.030 124.800 C 26.496 125.430,26.413 125.656,23.428 134.600 C 22.401 137.680,21.369 140.740,21.136 141.400 C 20.903 142.060,20.540 143.320,20.329 144.200 C 20.119 145.080,19.612 146.880,19.203 148.200 C 18.794 149.520,18.081 152.490,17.619 154.800 C 17.157 157.110,16.523 160.260,16.210 161.800 C 15.896 163.340,15.527 165.950,15.389 167.600 C 15.250 169.250,14.837 171.770,14.470 173.200 C 13.442 177.211,13.471 214.004,14.506 218.400 C 14.895 220.050,15.376 223.020,15.576 225.000 C 15.775 226.980,16.220 229.950,16.563 231.600 C 16.906 233.250,17.387 235.590,17.631 236.800 C 17.875 238.010,18.509 240.440,19.039 242.200 C 19.570 243.960,20.003 245.670,20.002 246.000 C 20.001 246.330,20.360 247.680,20.800 249.000 C 21.240 250.320,22.337 253.650,23.237 256.400 C 24.820 261.236,26.532 265.876,27.213 267.172 C 27.983 268.639,29.200 271.480,29.200 271.812 C 29.200 272.403,34.189 282.630,36.023 285.800 C 36.659 286.900,37.460 288.420,37.802 289.178 C 38.145 289.937,38.869 291.140,39.412 291.852 C 39.956 292.564,40.401 293.294,40.401 293.473 C 40.404 294.160,48.027 305.515,50.222 308.103 C 50.454 308.376,51.420 309.746,52.368 311.146 C 53.317 312.547,54.393 313.993,54.760 314.360 C 55.126 314.726,56.330 316.100,57.435 317.413 C 61.246 321.942,62.225 322.988,69.002 329.782 C 74.754 335.548,79.149 339.593,83.466 343.097 C 86.588 345.630,92.362 350.000,92.587 350.000 C 92.735 350.000,93.699 350.700,94.728 351.555 C 95.758 352.410,97.230 353.427,98.000 353.813 C 98.770 354.200,100.506 355.288,101.858 356.230 C 103.210 357.173,105.280 358.430,106.458 359.025 C 107.636 359.619,108.690 360.233,108.800 360.389 C 109.017 360.698,117.992 365.600,118.340 365.600 C 118.457 365.600,120.398 366.503,122.653 367.607 C 126.993 369.732,132.329 371.996,133.003 371.999 C 133.225 371.999,134.215 372.424,135.203 372.943 C 136.191 373.461,138.350 374.288,140.000 374.781 C 141.650 375.274,143.180 375.819,143.400 375.992 C 143.620 376.165,144.754 376.508,145.920 376.753 C 147.086 376.999,148.532 377.455,149.134 377.766 C 149.735 378.077,150.941 378.455,151.814 378.605 C 152.686 378.756,154.779 379.303,156.463 379.821 C 158.148 380.340,160.758 380.966,162.263 381.213 C 163.769 381.460,165.810 381.913,166.800 382.221 C 167.790 382.529,170.490 382.957,172.800 383.172 C 175.110 383.387,178.080 383.835,179.400 384.167 C 186.968 386.072,221.471 386.058,229.000 384.147 C 230.320 383.812,233.183 383.377,235.362 383.180 C 237.542 382.984,240.152 382.562,241.162 382.242 C 242.173 381.923,244.170 381.470,245.600 381.235 C 247.030 381.000,249.460 380.439,251.000 379.988 C 252.540 379.538,254.945 378.911,256.345 378.596 C 257.745 378.281,259.095 377.858,259.345 377.658 C 259.595 377.457,260.430 377.161,261.200 377.000 C 263.863 376.443,272.821 373.203,277.426 371.132 C 278.321 370.729,279.197 370.400,279.374 370.400 C 280.198 370.400,296.743 362.153,299.600 360.318 C 300.150 359.965,301.230 359.338,302.000 358.925 C 302.770 358.512,304.188 357.640,305.151 356.987 C 306.114 356.334,307.933 355.170,309.193 354.400 C 310.453 353.630,312.275 352.417,313.242 351.704 C 321.968 345.272,324.163 343.587,327.335 340.891 C 333.626 335.544,338.745 330.600,345.069 323.765 C 351.003 317.351,352.652 315.358,357.683 308.524 C 361.506 303.329,367.600 294.195,367.600 293.659 C 367.600 293.466,367.944 292.870,368.365 292.335 C 368.786 291.800,369.890 289.931,370.818 288.181 C 371.747 286.432,372.752 284.716,373.053 284.369 C 373.354 284.021,373.600 283.604,373.600 283.442 C 373.600 283.280,374.680 280.935,376.000 278.232 C 377.320 275.529,378.400 273.190,378.400 273.034 C 378.400 272.759,380.111 268.837,380.783 267.572 C 381.232 266.727,383.059 262.001,383.324 261.000 C 383.518 260.267,385.820 253.449,386.836 250.600 C 387.072 249.940,387.688 247.780,388.205 245.800 C 388.723 243.820,389.413 241.210,389.740 240.000 C 390.066 238.790,390.534 236.630,390.781 235.200 C 391.027 233.770,391.476 231.520,391.778 230.200 C 392.080 228.880,392.444 226.360,392.586 224.600 C 392.728 222.840,393.149 220.410,393.522 219.200 C 394.435 216.236,394.557 175.791,393.661 172.800 C 393.365 171.810,392.953 169.560,392.746 167.800 C 392.083 162.149,390.145 152.328,388.801 147.800 C 388.409 146.480,387.908 144.680,387.688 143.800 C 387.468 142.920,387.107 141.660,386.886 141.000 C 385.484 136.814,385.091 135.609,384.607 134.000 C 383.733 131.096,381.670 125.545,380.743 123.600 C 380.270 122.610,379.654 121.260,379.372 120.600 C 377.639 116.539,373.397 107.780,372.205 105.800 C 371.675 104.920,371.059 103.803,370.837 103.317 C 369.978 101.441,365.513 94.025,364.971 93.576 C 364.657 93.315,364.400 92.932,364.400 92.724 C 364.400 92.517,363.950 91.757,363.400 91.036 C 362.850 90.314,362.399 89.561,362.398 89.362 C 362.397 89.163,361.452 87.788,360.298 86.306 C 359.144 84.824,357.210 82.244,356.000 80.572 C 354.790 78.901,352.900 76.499,351.800 75.234 C 350.700 73.970,349.260 72.293,348.600 71.507 C 346.703 69.248,337.923 59.960,336.614 58.827 C 335.961 58.262,334.731 57.095,333.880 56.232 C 333.029 55.370,331.305 53.840,330.049 52.832 C 327.311 50.635,326.636 50.062,325.481 48.955 C 324.997 48.491,323.520 47.334,322.200 46.385 C 320.880 45.436,319.260 44.135,318.600 43.495 C 317.940 42.855,316.860 42.055,316.200 41.717 C 315.540 41.379,313.920 40.302,312.600 39.324 C 309.868 37.299,303.894 33.429,302.400 32.716 C 301.850 32.454,300.863 31.870,300.206 31.420 C 298.225 30.059,292.660 27.207,283.000 22.599 C 280.027 21.181,275.663 19.368,273.410 18.614 C 272.315 18.248,271.235 17.801,271.010 17.620 C 270.784 17.440,269.970 17.169,269.200 17.018 C 268.430 16.867,267.080 16.411,266.200 16.006 C 264.041 15.011,255.820 12.533,253.658 12.225 C 252.700 12.089,251.440 11.733,250.858 11.435 C 250.276 11.138,248.810 10.766,247.600 10.609 C 246.390 10.452,244.410 10.008,243.200 9.621 C 241.990 9.234,238.570 8.605,235.600 8.223 C 232.630 7.841,228.760 7.247,227.000 6.903 C 223.508 6.220,190.217 5.798,185.400 6.375 M224.600 7.725 C 227.240 8.084,230.930 8.582,232.800 8.832 C 236.371 9.308,246.948 11.390,249.000 12.020 C 249.660 12.223,251.640 12.742,253.400 13.173 C 299.153 24.383,340.525 55.707,367.660 99.683 C 369.321 102.376,373.638 110.392,374.616 112.600 C 375.103 113.700,375.985 115.590,376.577 116.800 C 383.583 131.137,390.243 154.044,392.183 170.477 C 392.503 173.185,392.953 176.660,393.184 178.200 C 395.759 195.359,392.494 228.943,386.321 248.800 C 380.853 266.389,374.402 280.889,366.238 293.936 C 364.677 296.431,362.885 299.308,362.256 300.331 C 354.532 312.881,335.958 333.068,322.801 343.213 C 321.812 343.976,320.732 344.827,320.401 345.104 C 305.933 357.213,281.482 369.723,258.200 376.928 C 237.426 383.357,203.605 386.594,185.400 383.896 C 182.980 383.537,179.740 383.126,178.200 382.981 C 150.214 380.362,111.967 364.312,87.644 344.981 C 85.970 343.650,84.222 342.300,83.760 341.981 C 82.648 341.213,77.715 336.859,74.208 333.551 C 72.664 332.094,70.742 330.294,69.938 329.551 C 64.147 324.200,50.691 307.973,46.595 301.400 C 46.183 300.740,44.846 298.639,43.623 296.732 C 40.317 291.574,39.502 290.190,37.187 285.800 C 36.027 283.600,34.941 281.620,34.774 281.400 C 34.278 280.744,29.771 270.769,27.824 266.014 C -3.359 189.881,21.134 97.458,85.600 47.993 C 86.590 47.233,87.595 46.429,87.834 46.206 C 88.072 45.983,89.404 44.990,90.792 44.000 C 92.180 43.010,94.084 41.628,95.023 40.929 C 96.552 39.791,103.949 35.061,107.600 32.887 C 122.751 23.864,142.083 16.029,159.000 12.055 C 169.023 9.701,172.735 9.060,184.800 7.603 C 192.960 6.617,217.001 6.691,224.600 7.725 " stroke="none" fill="#fc98a0" fill-rule="evenodd"></path><path id="path5" d="M184.800 7.603 C 172.735 9.060,169.023 9.701,159.000 12.055 C 148.671 14.481,134.054 19.544,124.800 23.900 C 115.362 28.343,110.711 30.892,101.465 36.690 C 98.861 38.323,95.962 40.231,95.023 40.929 C 94.084 41.628,92.180 43.010,90.792 44.000 C 89.404 44.990,88.072 45.983,87.834 46.206 C 87.595 46.429,86.590 47.233,85.600 47.993 C 21.134 97.458,-3.359 189.881,27.824 266.014 C 29.771 270.769,34.278 280.744,34.774 281.400 C 34.941 281.620,36.027 283.600,37.187 285.800 C 39.502 290.190,40.317 291.574,43.623 296.732 C 44.846 298.639,46.183 300.740,46.595 301.400 C 50.691 307.973,64.147 324.200,69.938 329.551 C 70.742 330.294,72.664 332.094,74.208 333.551 C 77.715 336.859,82.648 341.213,83.760 341.981 C 84.222 342.300,85.970 343.650,87.644 344.981 C 111.967 364.312,150.214 380.362,178.200 382.981 C 179.740 383.126,182.980 383.537,185.400 383.896 C 203.605 386.594,237.426 383.357,258.200 376.928 C 281.482 369.723,305.933 357.213,320.401 345.104 C 320.732 344.827,321.812 343.976,322.801 343.213 C 335.958 333.068,354.532 312.881,362.256 300.331 C 362.885 299.308,364.677 296.431,366.238 293.936 C 369.787 288.264,373.281 281.774,376.430 275.000 C 379.842 267.663,383.329 258.426,386.321 248.800 C 392.494 228.943,395.759 195.359,393.184 178.200 C 392.953 176.660,392.503 173.185,392.183 170.477 C 390.243 154.044,383.583 131.137,376.577 116.800 C 375.985 115.590,375.103 113.700,374.616 112.600 C 373.638 110.392,369.321 102.376,367.660 99.683 C 340.525 55.707,299.153 24.383,253.400 13.173 C 251.640 12.742,249.660 12.223,249.000 12.020 C 246.948 11.390,236.371 9.308,232.800 8.832 C 230.930 8.582,227.240 8.084,224.600 7.725 C 217.001 6.691,192.960 6.617,184.800 7.603 M218.600 8.219 C 234.187 9.633,234.608 9.687,237.400 10.592 C 238.280 10.877,240.350 11.240,242.000 11.399 C 243.650 11.559,245.180 11.831,245.400 12.005 C 245.620 12.178,247.510 12.690,249.600 13.141 C 251.690 13.593,254.199 14.245,255.174 14.590 C 256.150 14.935,258.040 15.470,259.374 15.780 C 260.709 16.090,262.340 16.625,263.000 16.969 C 263.660 17.313,264.527 17.596,264.926 17.598 C 265.325 17.599,266.585 18.024,267.726 18.541 C 268.867 19.059,270.790 19.797,272.000 20.182 C 274.463 20.964,277.068 22.051,279.279 23.219 C 280.093 23.649,280.944 24.000,281.172 24.000 C 282.329 24.000,297.770 32.147,304.204 36.153 C 305.306 36.839,306.501 37.580,306.860 37.800 C 307.737 38.337,313.709 42.480,316.200 44.280 C 319.859 46.923,327.424 53.080,330.431 55.863 C 332.064 57.374,334.101 59.238,334.958 60.005 C 338.551 63.222,345.032 69.995,347.202 72.800 C 347.968 73.790,348.722 74.657,348.878 74.727 C 349.128 74.839,357.901 86.233,359.047 87.936 C 362.268 92.718,366.785 99.803,367.738 101.565 C 368.403 102.794,369.731 105.240,370.689 107.000 C 372.277 109.916,374.565 114.571,376.981 119.800 C 377.489 120.900,378.198 122.430,378.556 123.200 C 378.914 123.970,379.375 125.140,379.580 125.800 C 379.785 126.460,380.773 129.160,381.775 131.800 C 382.778 134.440,383.713 137.230,383.853 138.000 C 383.994 138.770,384.419 140.030,384.798 140.800 C 385.177 141.570,385.608 142.984,385.755 143.942 C 385.902 144.900,386.287 146.195,386.610 146.819 C 386.933 147.443,387.374 149.089,387.592 150.477 C 387.809 151.865,388.262 153.990,388.599 155.200 C 388.936 156.410,389.489 159.200,389.828 161.400 C 390.168 163.600,390.686 166.300,390.979 167.400 C 391.273 168.500,391.621 171.605,391.753 174.301 C 391.885 176.996,392.273 180.553,392.614 182.206 C 393.362 185.828,393.241 206.619,392.449 210.542 C 392.189 211.829,391.820 215.159,391.630 217.942 C 391.289 222.921,390.484 227.719,388.599 236.000 C 388.073 238.310,387.522 241.010,387.374 242.000 C 387.226 242.990,386.872 244.256,386.587 244.814 C 386.302 245.371,385.952 246.541,385.810 247.414 C 385.668 248.286,385.224 249.810,384.824 250.800 C 384.424 251.790,383.423 254.670,382.601 257.200 C 381.778 259.730,380.780 262.526,380.382 263.414 C 379.984 264.302,379.531 265.562,379.376 266.214 C 379.220 266.866,378.867 267.670,378.591 268.000 C 378.315 268.330,377.967 269.173,377.819 269.872 C 377.670 270.572,377.290 271.359,376.974 271.621 C 376.658 271.883,376.400 272.266,376.400 272.471 C 376.400 273.127,373.068 280.232,371.274 283.400 C 370.652 284.500,369.377 286.828,368.443 288.573 C 367.508 290.318,366.396 292.188,365.971 292.727 C 365.547 293.267,365.200 293.840,365.200 294.001 C 365.200 294.253,361.465 299.939,358.369 304.400 C 357.259 306.000,355.000 308.888,349.655 315.539 C 343.332 323.408,340.336 326.454,326.037 339.550 C 325.467 340.072,324.370 340.903,323.600 341.397 C 322.830 341.891,321.480 342.967,320.600 343.789 C 319.720 344.611,318.280 345.738,317.400 346.294 C 316.520 346.850,314.528 348.271,312.972 349.452 C 311.417 350.634,310.003 351.600,309.830 351.600 C 309.657 351.600,308.833 352.140,308.000 352.800 C 307.167 353.460,306.311 354.000,306.097 354.000 C 305.884 354.000,305.057 354.519,304.258 355.154 C 303.460 355.788,301.341 357.093,299.550 358.054 C 297.760 359.014,295.643 360.185,294.847 360.656 C 293.355 361.539,288.618 363.944,285.800 365.249 C 284.920 365.656,283.930 366.169,283.600 366.387 C 283.270 366.605,281.200 367.515,279.000 368.408 C 276.800 369.301,274.460 370.289,273.800 370.602 C 273.140 370.916,272.060 371.293,271.400 371.441 C 270.740 371.588,269.750 371.954,269.200 372.254 C 267.927 372.947,260.485 375.348,257.600 375.996 C 256.390 376.268,255.002 376.740,254.515 377.045 C 254.028 377.350,252.471 377.763,251.056 377.964 C 249.640 378.164,248.148 378.503,247.741 378.718 C 247.333 378.932,244.258 379.581,240.907 380.161 C 237.556 380.740,234.347 381.392,233.776 381.609 C 233.204 381.827,230.332 382.176,227.392 382.386 C 224.453 382.596,220.822 383.000,219.324 383.284 C 215.557 383.998,192.843 383.998,189.076 383.284 C 187.578 383.000,184.068 382.600,181.276 382.395 C 178.484 382.190,174.220 381.591,171.800 381.064 C 169.380 380.537,165.995 379.888,164.277 379.623 C 162.560 379.357,160.580 378.907,159.877 378.622 C 159.175 378.337,157.690 377.988,156.578 377.848 C 155.466 377.708,153.853 377.235,152.993 376.797 C 152.134 376.358,151.124 376.000,150.748 376.000 C 149.886 376.000,141.597 373.448,139.200 372.445 C 138.210 372.030,135.420 370.917,133.000 369.970 C 130.580 369.023,128.240 368.031,127.800 367.764 C 127.360 367.497,126.417 367.157,125.705 367.008 C 124.992 366.860,124.307 366.573,124.182 366.370 C 124.057 366.168,122.120 365.126,119.877 364.054 C 116.029 362.215,106.666 357.018,103.600 355.019 C 94.198 348.889,89.282 345.424,87.402 343.602 C 86.671 342.893,85.442 341.928,84.672 341.457 C 82.916 340.383,72.329 330.854,68.858 327.223 C 63.585 321.707,61.578 319.516,59.976 317.526 C 58.999 316.311,57.777 314.797,57.260 314.159 C 52.930 308.817,45.083 297.767,43.010 294.091 C 42.795 293.711,42.165 292.704,41.610 291.853 C 38.705 287.403,31.290 272.556,29.198 267.000 C 28.701 265.680,27.988 263.970,27.612 263.200 C 27.237 262.430,26.252 259.640,25.424 257.000 C 24.596 254.360,23.577 251.357,23.159 250.326 C 22.742 249.295,22.400 248.074,22.400 247.613 C 22.400 247.152,22.108 246.105,21.750 245.287 C 21.393 244.469,20.863 242.540,20.572 241.000 C 20.282 239.460,19.776 237.120,19.448 235.800 C 18.221 230.866,16.772 221.582,16.201 215.000 C 15.877 211.260,15.430 207.120,15.208 205.800 C 14.690 202.717,14.679 188.345,15.193 185.635 C 15.410 184.494,15.872 180.288,16.221 176.287 C 16.569 172.287,17.190 167.300,17.599 165.207 C 18.009 163.113,18.533 160.127,18.764 158.571 C 18.996 157.016,19.453 154.983,19.781 154.053 C 20.109 153.124,20.501 151.427,20.653 150.282 C 20.805 149.137,21.256 147.480,21.656 146.600 C 22.055 145.720,22.386 144.553,22.391 144.008 C 22.396 143.462,22.753 142.112,23.185 141.008 C 23.617 139.903,24.418 137.560,24.965 135.800 C 26.425 131.105,27.139 129.129,27.805 127.938 C 28.132 127.354,28.400 126.654,28.400 126.382 C 28.400 126.110,28.749 125.148,29.177 124.244 C 29.604 123.340,30.695 120.890,31.602 118.800 C 33.293 114.902,34.725 111.967,36.480 108.800 C 37.029 107.810,38.311 105.445,39.329 103.544 C 40.346 101.643,41.904 98.997,42.790 97.663 C 43.675 96.330,44.400 95.138,44.400 95.015 C 44.400 94.892,44.999 93.939,45.731 92.896 C 46.463 91.853,47.935 89.740,49.003 88.200 C 51.772 84.207,55.383 79.478,56.148 78.844 C 56.506 78.546,56.800 78.119,56.800 77.895 C 56.800 77.671,57.041 77.288,57.335 77.044 C 57.629 76.800,58.955 75.250,60.283 73.600 C 66.373 66.028,83.990 49.625,91.213 44.800 C 91.707 44.470,92.581 43.819,93.156 43.353 C 94.780 42.036,105.835 34.800,106.223 34.800 C 106.312 34.800,107.333 34.197,108.492 33.460 C 109.652 32.722,112.400 31.180,114.600 30.032 C 116.800 28.883,118.870 27.783,119.200 27.586 C 120.757 26.657,126.624 24.000,127.119 24.000 C 127.426 24.000,128.154 23.664,128.738 23.252 C 129.322 22.841,130.250 22.371,130.800 22.208 C 131.350 22.045,132.340 21.667,133.000 21.370 C 134.786 20.563,140.734 18.411,142.869 17.798 C 143.897 17.503,145.118 17.058,145.583 16.809 C 146.457 16.341,149.199 15.557,155.400 14.001 C 157.380 13.505,160.108 12.768,161.463 12.364 C 162.817 11.960,165.157 11.510,166.663 11.363 C 168.168 11.216,169.973 10.864,170.673 10.579 C 172.247 9.941,181.708 8.796,192.000 7.998 C 194.970 7.768,198.210 7.513,199.200 7.432 C 202.061 7.199,211.636 7.587,218.600 8.219 " stroke="none" fill="#fc5a66" fill-rule="evenodd"></path></g></svg>