<svg id="svg" version="1.1" xmlns="http://www.w3.org/2000/svg" xmlns:xlink="http://www.w3.org/1999/xlink" width="400" height="400" viewBox="0, 0, 400,400"><g id="svgg"><path id="path0" d="M156.500 36.812 L 155.600 37.174 155.600 53.707 C 155.600 66.033,155.722 70.362,156.080 70.720 C 156.449 71.089,171.155 71.200,219.836 71.200 C 279.507 71.200,283.160 71.240,283.964 71.900 L 284.817 72.600 284.709 188.000 L 284.600 303.400 283.328 305.800 C 282.629 307.120,281.863 308.943,281.626 309.852 C 281.389 310.761,280.566 312.732,279.797 314.233 C 279.029 315.734,278.400 317.160,278.400 317.403 C 278.400 318.106,275.755 320.800,275.064 320.800 C 274.435 320.800,271.929 322.291,270.800 323.336 C 270.470 323.642,269.480 324.118,268.600 324.394 C 267.720 324.670,266.550 325.315,266.000 325.826 C 265.413 326.371,263.926 326.998,262.400 327.343 C 260.970 327.666,259.080 328.122,258.200 328.356 C 255.388 329.103,143.861 328.953,141.321 328.199 C 140.207 327.868,138.337 327.416,137.164 327.193 C 135.945 326.962,134.597 326.391,134.016 325.860 C 133.457 325.349,132.145 324.617,131.100 324.233 C 130.055 323.848,129.200 323.382,129.200 323.196 C 129.200 322.883,128.532 322.478,125.400 320.893 C 122.854 319.604,119.734 314.556,118.384 309.539 C 118.129 308.594,117.354 306.736,116.660 305.410 L 115.400 303.000 115.283 273.021 C 115.202 252.299,115.033 242.881,114.734 242.521 C 114.129 241.791,70.809 241.751,70.080 242.480 C 69.468 243.092,69.386 297.317,69.993 300.280 C 70.209 301.336,70.564 304.540,70.781 307.400 C 70.998 310.260,71.443 313.320,71.770 314.200 C 72.097 315.080,72.373 316.520,72.384 317.400 C 72.394 318.280,72.752 319.572,73.178 320.272 C 73.605 320.971,74.145 322.252,74.378 323.118 C 74.611 323.984,75.341 325.371,76.001 326.201 C 76.660 327.031,77.200 327.933,77.200 328.206 C 77.200 328.479,77.441 328.902,77.735 329.146 C 78.029 329.390,78.761 330.842,79.361 332.372 C 80.081 334.207,80.955 335.609,81.926 336.489 C 82.737 337.223,84.024 338.628,84.786 339.612 C 86.752 342.150,87.685 342.976,89.667 343.936 C 90.803 344.486,91.964 345.547,93.004 346.988 C 94.371 348.879,94.899 349.284,96.683 349.804 C 97.912 350.163,99.519 351.064,100.605 352.004 C 101.616 352.879,102.929 353.712,103.522 353.854 C 104.115 353.996,105.140 354.394,105.800 354.739 C 108.066 355.922,111.401 357.196,112.236 357.198 C 112.696 357.199,113.956 357.470,115.036 357.800 C 116.116 358.130,118.121 358.583,119.490 358.806 C 120.860 359.029,122.789 359.642,123.777 360.167 C 124.765 360.693,126.795 361.307,128.287 361.532 C 141.453 363.521,136.906 363.391,198.200 363.527 C 263.654 363.673,268.980 363.432,276.863 359.972 C 278.332 359.328,280.044 358.798,280.667 358.795 C 281.290 358.792,282.941 358.432,284.336 357.995 C 285.730 357.558,287.257 357.200,287.728 357.200 C 288.666 357.200,292.162 355.925,294.454 354.747 C 295.254 354.336,296.185 354.000,296.522 354.000 C 296.859 354.000,298.079 353.194,299.232 352.209 C 300.458 351.163,302.175 350.159,303.365 349.794 C 304.545 349.431,305.778 348.713,306.299 348.084 C 306.794 347.488,307.748 346.336,308.419 345.524 C 309.091 344.713,310.216 343.855,310.920 343.617 C 311.624 343.380,312.877 342.424,313.705 341.493 C 314.533 340.562,316.249 338.630,317.518 337.200 C 319.657 334.791,321.190 332.250,321.207 331.086 C 321.214 330.607,323.106 327.547,324.093 326.421 C 324.817 325.593,325.970 323.116,325.986 322.354 C 325.994 321.999,326.360 321.250,326.800 320.691 C 327.304 320.050,327.600 319.068,327.600 318.039 C 327.600 317.139,327.944 315.367,328.364 314.102 C 328.834 312.686,329.225 310.029,329.379 307.200 C 329.517 304.670,329.842 301.880,330.101 301.000 C 331.079 297.680,330.986 38.186,330.006 37.206 C 329.126 36.326,158.674 35.938,156.500 36.812 M118.800 113.539 C 117.590 113.959,115.817 114.419,114.860 114.562 C 113.904 114.705,112.856 115.087,112.532 115.411 C 112.208 115.735,111.528 116.000,111.020 116.000 C 110.513 116.000,109.880 116.263,109.613 116.585 C 109.346 116.906,108.755 117.287,108.300 117.432 C 107.845 117.576,106.466 118.393,105.236 119.247 C 104.006 120.100,102.811 120.799,102.581 120.799 C 102.350 120.800,101.540 121.424,100.781 122.187 C 97.825 125.157,96.491 124.208,96.302 119.000 L 96.200 116.200 85.000 116.084 C 78.840 116.020,73.214 116.074,72.498 116.203 L 71.196 116.437 71.298 157.118 L 71.400 197.800 83.900 197.906 L 96.400 198.011 96.400 168.857 L 96.400 139.702 97.864 138.451 C 98.670 137.763,99.587 137.200,99.901 137.200 C 100.216 137.200,100.931 136.840,101.491 136.400 C 102.050 135.960,102.874 135.600,103.322 135.600 C 103.770 135.600,104.485 135.285,104.909 134.900 C 106.197 133.733,116.902 133.629,118.444 134.769 C 119.062 135.226,119.741 135.600,119.953 135.600 C 120.834 135.600,122.776 137.739,123.850 139.894 L 125.000 142.200 125.200 170.000 L 125.400 197.800 138.092 197.906 L 150.785 198.011 150.892 168.628 C 151.012 135.894,150.805 138.262,153.631 137.403 C 154.164 137.241,155.161 136.769,155.847 136.354 C 156.533 135.939,157.405 135.600,157.784 135.600 C 158.163 135.600,158.931 135.240,159.491 134.800 C 160.805 133.766,170.693 133.604,172.400 134.589 C 172.950 134.906,173.764 135.333,174.208 135.538 C 175.719 136.234,178.400 139.254,178.400 140.260 C 178.400 140.791,178.712 141.895,179.094 142.713 C 179.728 144.069,179.800 146.564,179.915 171.106 L 180.041 198.012 192.321 197.906 L 204.600 197.800 204.712 170.000 C 204.825 141.736,204.565 133.975,203.430 131.799 C 203.086 131.140,202.804 130.288,202.802 129.906 C 202.800 129.288,201.818 127.109,199.844 123.344 C 198.179 120.169,190.175 114.400,187.435 114.400 C 186.923 114.400,185.377 114.040,184.000 113.600 C 181.009 112.644,176.520 112.567,174.200 113.431 C 173.320 113.759,171.630 114.195,170.445 114.401 C 169.259 114.607,167.985 115.051,167.613 115.388 C 167.241 115.725,166.681 116.001,166.369 116.003 C 166.056 116.004,165.260 116.363,164.600 116.800 C 163.940 117.237,163.107 117.596,162.749 117.597 C 162.391 117.599,161.865 117.880,161.581 118.223 C 161.296 118.566,160.509 119.111,159.832 119.434 C 158.291 120.169,157.141 120.856,156.385 121.494 C 154.471 123.109,153.240 124.000,152.920 124.000 C 152.720 124.000,151.859 124.639,151.006 125.420 C 149.017 127.242,147.236 127.242,146.607 125.421 C 146.383 124.773,145.840 123.863,145.400 123.400 C 144.960 122.936,144.221 122.116,143.757 121.578 C 142.397 119.999,139.879 117.821,138.800 117.289 C 138.250 117.019,136.900 116.270,135.800 115.625 C 134.684 114.971,133.181 114.440,132.400 114.424 C 131.630 114.408,130.460 114.104,129.800 113.748 C 127.873 112.710,121.537 112.589,118.800 113.539 " stroke="none" fill="#050504" fill-rule="evenodd"></path><path id="path1" d="M0.000 200.000 L 0.000 400.000 200.000 400.000 L 400.000 400.000 400.000 200.000 L 400.000 0.000 200.000 0.000 L 0.000 0.000 0.000 200.000 M331.427 35.390 L 332.417 36.381 332.309 171.490 C 332.204 302.153,332.176 306.659,331.456 308.400 C 331.047 309.390,330.555 311.868,330.363 313.906 C 330.172 315.944,329.741 318.140,329.407 318.786 C 329.073 319.432,328.799 320.464,328.799 321.080 C 328.798 321.696,328.438 322.789,327.999 323.510 C 327.559 324.230,327.200 325.286,327.200 325.856 C 327.200 326.511,326.712 327.353,325.872 328.146 C 324.480 329.459,322.402 332.765,322.397 333.671 C 322.394 334.305,319.144 339.549,318.227 340.400 C 317.871 340.730,317.159 341.405,316.644 341.900 C 316.130 342.395,315.608 342.800,315.486 342.800 C 315.363 342.800,314.536 343.520,313.647 344.400 C 312.758 345.280,311.776 346.000,311.464 346.000 C 311.152 346.000,310.203 346.855,309.355 347.900 C 308.507 348.945,307.682 349.858,307.520 349.929 C 307.358 350.000,306.586 350.493,305.803 351.024 C 305.020 351.555,303.916 352.106,303.350 352.248 C 302.783 352.391,301.747 353.079,301.048 353.779 C 300.348 354.478,298.702 355.464,297.388 355.969 C 296.075 356.474,294.230 357.228,293.289 357.644 C 292.348 358.060,290.908 358.401,290.089 358.403 C 289.270 358.404,288.060 358.763,287.400 359.200 C 286.740 359.637,285.894 359.996,285.520 359.997 C 283.838 360.004,280.646 360.954,279.942 361.658 C 278.814 362.786,277.444 363.200,274.835 363.200 C 273.515 363.200,271.971 363.475,271.237 363.841 C 266.933 365.988,133.177 366.038,128.962 363.894 C 128.323 363.569,126.400 363.216,124.689 363.111 C 122.237 362.959,121.386 362.738,120.672 362.067 C 119.649 361.107,118.412 360.645,115.131 360.001 C 113.883 359.756,112.646 359.296,112.382 358.978 C 112.091 358.627,111.174 358.399,110.051 358.397 C 108.877 358.396,107.761 358.104,107.000 357.600 C 106.340 357.163,105.440 356.797,105.000 356.787 C 103.590 356.754,100.082 355.012,99.221 353.918 C 98.763 353.335,97.715 352.637,96.894 352.366 C 94.955 351.728,91.670 349.292,90.266 347.451 C 89.657 346.653,88.919 346.000,88.625 346.000 C 88.332 346.000,87.036 344.999,85.746 343.775 C 84.456 342.551,82.918 341.293,82.328 340.979 C 81.739 340.666,81.133 340.018,80.981 339.541 C 80.830 339.063,80.007 337.666,79.153 336.436 C 78.270 335.163,77.601 333.726,77.601 333.100 C 77.600 332.495,77.453 332.000,77.274 332.000 C 77.095 332.000,76.653 331.382,76.293 330.626 C 75.933 329.870,75.091 328.848,74.423 328.354 C 73.614 327.756,73.128 326.981,72.964 326.028 C 72.830 325.243,72.378 323.868,71.960 322.974 C 71.542 322.079,71.197 321.089,71.194 320.774 C 71.191 320.458,70.926 319.448,70.606 318.528 C 70.286 317.609,69.903 315.359,69.757 313.528 C 69.610 311.698,69.228 309.682,68.909 309.050 C 67.369 306.003,67.001 242.028,68.514 240.514 C 69.180 239.849,70.746 239.792,91.514 239.682 C 115.304 239.557,115.797 239.579,117.130 240.821 L 118.000 241.631 118.017 268.916 C 118.027 283.922,118.201 297.010,118.404 298.000 C 118.606 298.990,118.963 301.395,119.195 303.345 C 119.428 305.295,119.884 307.270,120.209 307.734 C 120.534 308.198,120.800 309.181,120.800 309.918 C 120.800 311.179,121.757 313.172,123.912 316.400 C 125.461 318.720,131.170 322.344,134.300 322.994 C 135.014 323.142,135.824 323.575,136.100 323.956 C 136.889 325.049,137.317 325.195,142.127 326.004 C 144.622 326.424,147.157 326.955,147.758 327.184 C 150.065 328.061,250.708 327.728,254.096 326.832 C 255.693 326.409,258.080 325.941,259.400 325.791 C 262.081 325.487,263.108 325.073,264.023 323.926 C 264.383 323.474,265.350 323.050,266.317 322.920 C 267.236 322.797,268.193 322.450,268.443 322.148 C 268.693 321.847,269.091 321.600,269.327 321.600 C 269.730 321.600,272.760 319.691,273.200 319.161 C 273.310 319.028,273.792 318.714,274.271 318.462 C 275.068 318.042,277.588 314.735,277.609 314.080 C 277.614 313.926,277.970 313.350,278.400 312.800 C 278.830 312.250,279.186 311.214,279.191 310.499 C 279.196 309.783,279.560 308.525,280.000 307.704 C 280.491 306.788,280.802 305.437,280.806 304.206 C 280.810 303.103,281.073 301.120,281.391 299.800 C 282.151 296.642,282.317 74.264,281.560 73.351 C 281.183 72.898,270.619 72.790,217.922 72.704 C 155.451 72.601,154.729 72.591,154.156 71.807 C 153.666 71.138,153.594 68.286,153.688 53.472 L 153.800 35.929 154.744 35.164 C 155.668 34.417,157.641 34.400,243.062 34.400 L 330.436 34.400 331.427 35.390 M132.691 112.900 C 133.115 113.285,134.084 113.600,134.843 113.600 C 135.727 113.600,136.468 113.887,136.907 114.400 C 137.284 114.840,137.926 115.200,138.334 115.200 C 138.742 115.200,139.402 115.560,139.800 116.000 C 140.198 116.440,140.726 116.800,140.973 116.800 C 141.220 116.800,141.715 117.115,142.072 117.500 C 142.430 117.885,143.460 118.885,144.361 119.723 C 145.262 120.560,146.000 121.595,146.000 122.023 C 146.000 122.450,146.267 122.800,146.592 122.800 C 146.918 122.800,147.298 123.250,147.436 123.800 C 147.632 124.583,147.942 124.800,148.862 124.800 C 149.603 124.800,150.381 124.430,150.965 123.800 C 151.475 123.250,152.096 122.800,152.346 122.800 C 152.596 122.800,152.800 122.644,152.800 122.452 C 152.800 122.261,153.880 121.428,155.200 120.600 C 156.520 119.772,157.600 118.939,157.600 118.748 C 157.600 118.556,157.846 118.400,158.146 118.400 C 158.446 118.400,159.150 118.040,159.709 117.600 C 160.269 117.160,160.985 116.800,161.301 116.800 C 161.617 116.800,162.202 116.440,162.600 116.000 C 162.998 115.560,163.808 115.200,164.400 115.200 C 164.992 115.200,165.802 114.840,166.200 114.400 C 166.682 113.868,167.432 113.600,168.442 113.600 C 169.472 113.600,170.086 113.375,170.352 112.900 C 170.705 112.270,171.540 112.200,178.730 112.200 C 185.774 112.200,186.807 112.283,187.490 112.900 C 187.917 113.287,188.891 113.600,189.670 113.600 C 190.568 113.600,191.337 113.889,191.800 114.400 C 192.198 114.840,192.816 115.200,193.173 115.200 C 193.530 115.200,194.130 115.560,194.507 116.000 C 194.884 116.440,195.438 116.800,195.739 116.800 C 196.519 116.800,200.374 120.758,200.645 121.837 C 200.770 122.335,201.126 122.839,201.436 122.959 C 201.746 123.078,202.000 123.426,202.000 123.734 C 202.000 124.041,202.337 124.721,202.748 125.246 C 203.159 125.771,203.632 126.830,203.799 127.600 C 203.966 128.370,204.349 129.355,204.651 129.789 C 204.953 130.223,205.200 131.308,205.200 132.200 C 205.200 133.101,205.511 134.261,205.900 134.811 C 206.713 135.960,207.213 197.177,206.419 198.400 C 205.788 199.373,180.213 199.517,179.149 198.554 C 178.437 197.909,178.400 196.929,178.400 178.489 C 178.400 156.410,177.835 141.581,176.976 141.089 C 176.677 140.918,176.315 140.153,176.172 139.389 C 176.019 138.578,175.675 138.000,175.343 138.000 C 175.031 138.000,174.676 137.741,174.554 137.424 C 174.433 137.108,173.763 136.727,173.067 136.578 C 172.370 136.429,171.552 136.107,171.248 135.862 C 170.286 135.085,162.620 135.001,161.542 135.756 C 161.036 136.110,160.293 136.400,159.890 136.400 C 159.260 136.400,157.303 137.269,155.200 138.483 C 154.870 138.673,154.108 139.041,153.508 139.299 L 152.415 139.770 152.308 169.100 C 152.214 194.656,152.123 198.478,151.600 198.809 C 150.664 199.400,125.477 199.317,124.880 198.720 C 124.517 198.357,124.400 192.434,124.400 174.515 C 124.400 161.158,124.242 150.486,124.038 150.095 C 123.840 149.713,123.500 147.600,123.285 145.400 C 122.745 139.888,121.214 137.265,118.038 136.410 C 117.156 136.173,116.326 135.803,116.193 135.589 C 115.797 134.948,109.055 135.115,107.746 135.798 C 107.116 136.126,106.150 136.397,105.600 136.400 C 105.050 136.403,104.060 136.763,103.400 137.200 C 102.740 137.637,101.904 137.996,101.542 137.997 C 101.181 137.999,100.326 138.522,99.642 139.160 L 98.400 140.321 98.400 169.138 L 98.400 197.955 97.511 198.577 C 96.535 199.261,71.541 199.531,70.498 198.869 C 70.100 198.616,70.017 189.971,70.098 156.975 L 70.200 115.400 83.753 115.295 C 99.268 115.174,98.400 114.975,98.400 118.649 C 98.400 120.933,98.484 121.200,99.200 121.200 C 99.640 121.200,100.000 121.042,100.000 120.849 C 100.000 120.655,100.565 120.263,101.256 119.977 C 101.947 119.691,103.162 118.860,103.956 118.130 C 104.750 117.401,105.765 116.803,106.211 116.802 C 106.657 116.801,107.330 116.440,107.707 116.000 C 108.084 115.560,108.804 115.200,109.307 115.200 C 109.810 115.200,110.530 114.840,110.907 114.400 C 111.377 113.851,112.087 113.600,113.168 113.600 C 114.034 113.600,114.984 113.359,115.279 113.064 C 116.237 112.106,116.902 112.038,124.459 112.119 C 130.930 112.189,132.020 112.293,132.691 112.900 " stroke="none" fill="#bb8b43" fill-rule="evenodd"></path><path id="path2" d="M154.880 36.080 C 154.171 36.789,154.190 71.417,154.900 71.876 C 155.175 72.054,184.110 72.290,219.200 72.400 L 283.000 72.600 283.101 185.350 L 283.201 298.101 282.201 301.750 C 281.651 303.758,281.199 305.760,281.198 306.200 C 281.196 306.640,280.915 307.536,280.574 308.192 C 280.232 308.847,279.760 310.287,279.525 311.392 C 279.290 312.496,278.974 313.490,278.823 313.600 C 278.671 313.710,277.970 314.820,277.264 316.066 C 275.827 318.602,270.513 322.334,266.747 323.453 C 265.700 323.764,264.507 324.447,264.094 324.971 C 263.521 325.700,262.786 325.992,260.972 326.211 C 259.667 326.369,257.790 326.791,256.800 327.149 C 254.050 328.143,145.853 328.146,143.400 327.151 C 142.520 326.795,140.720 326.375,139.400 326.218 C 137.539 325.997,136.731 325.676,135.800 324.789 C 135.140 324.160,133.875 323.483,132.988 323.285 C 130.067 322.632,124.277 318.538,122.999 316.222 C 122.386 315.110,121.660 313.930,121.387 313.600 C 121.113 313.270,120.700 312.190,120.470 311.200 C 120.239 310.210,119.785 308.590,119.460 307.600 C 118.886 305.849,117.869 301.841,117.177 298.600 C 116.989 297.720,116.827 284.625,116.817 269.500 C 116.800 242.545,116.784 241.984,116.000 241.200 C 114.873 240.073,70.127 239.930,69.007 241.050 C 67.988 242.069,68.275 304.924,69.310 307.550 C 69.690 308.513,70.002 310.133,70.005 311.150 C 70.007 312.168,70.365 314.440,70.800 316.200 C 71.235 317.960,71.593 319.635,71.595 319.922 C 71.598 320.209,71.940 321.199,72.355 322.122 C 72.770 323.045,73.236 324.393,73.390 325.117 C 73.545 325.842,74.141 326.905,74.715 327.479 C 76.276 329.040,77.512 331.001,78.000 332.692 C 78.239 333.521,78.878 334.830,79.419 335.600 C 79.960 336.370,80.828 337.630,81.348 338.400 C 82.676 340.366,87.542 344.791,89.112 345.461 C 89.834 345.769,90.734 346.530,91.113 347.152 C 92.271 349.057,96.638 352.000,98.306 352.000 C 98.555 352.000,99.225 352.610,99.794 353.356 C 100.516 354.303,101.359 354.846,102.590 355.156 C 103.559 355.400,104.464 355.780,104.600 356.000 C 104.736 356.220,105.154 356.400,105.530 356.400 C 105.905 356.400,106.868 356.752,107.670 357.181 C 108.472 357.611,110.089 358.089,111.264 358.243 C 112.439 358.397,113.760 358.746,114.200 359.019 C 114.640 359.292,116.077 359.643,117.393 359.798 C 119.192 360.011,120.105 360.360,121.068 361.206 C 122.109 362.120,122.859 362.376,125.075 362.575 C 126.574 362.709,129.060 363.104,130.600 363.453 C 138.972 365.350,260.777 365.360,269.400 363.465 C 270.940 363.126,273.426 362.733,274.925 362.590 C 277.113 362.382,277.902 362.112,278.925 361.220 C 279.876 360.391,280.810 360.035,282.600 359.822 C 283.920 359.664,285.360 359.306,285.800 359.025 C 286.240 358.745,287.615 358.389,288.855 358.234 C 290.096 358.080,291.446 357.700,291.855 357.390 C 292.265 357.079,292.877 356.820,293.215 356.813 C 293.554 356.806,294.516 356.450,295.354 356.023 C 296.192 355.596,297.398 355.132,298.034 354.993 C 298.670 354.853,299.597 354.231,300.095 353.611 C 300.593 352.990,302.260 351.903,303.800 351.195 C 306.307 350.043,309.200 347.665,309.200 346.758 C 309.200 346.570,309.888 346.065,310.728 345.637 C 313.656 344.143,320.800 336.821,320.800 335.314 C 320.800 335.176,321.039 334.779,321.331 334.431 C 321.623 334.084,322.071 333.065,322.327 332.167 C 322.588 331.250,323.671 329.529,324.796 328.243 C 325.898 326.984,326.800 325.592,326.800 325.151 C 326.800 324.709,327.140 323.505,327.556 322.474 C 328.637 319.791,330.000 313.867,330.000 311.849 C 330.000 310.902,330.313 309.244,330.696 308.164 C 331.564 305.715,332.017 37.184,331.155 36.146 C 330.526 35.388,155.637 35.323,154.880 36.080 M330.720 36.480 C 331.280 37.040,331.370 299.374,330.811 303.200 C 330.634 304.410,330.281 306.930,330.027 308.800 C 329.772 310.670,329.315 313.370,329.010 314.800 C 328.706 316.230,328.339 318.112,328.195 318.981 C 328.051 319.851,327.613 321.201,327.221 321.981 C 326.829 322.762,326.389 324.058,326.243 324.861 C 326.097 325.665,325.735 326.416,325.439 326.530 C 324.614 326.846,322.436 330.274,321.543 332.661 C 320.187 336.283,314.936 342.313,311.093 344.658 C 309.824 345.433,308.538 346.547,308.234 347.134 C 307.402 348.743,306.372 349.518,303.394 350.774 C 301.758 351.464,300.310 352.397,299.738 353.128 C 299.196 353.820,298.235 354.457,297.495 354.615 C 296.783 354.768,295.750 355.132,295.200 355.426 C 292.988 356.605,290.313 357.563,288.507 357.824 C 287.458 357.975,286.028 358.332,285.329 358.617 C 284.629 358.902,283.053 359.261,281.825 359.414 C 280.271 359.608,279.164 360.034,278.179 360.817 C 277.075 361.694,276.177 361.997,274.083 362.201 C 272.607 362.344,269.870 362.732,268.000 363.063 C 259.424 364.581,143.192 364.906,134.600 363.437 C 132.620 363.098,129.386 362.630,127.414 362.397 C 124.626 362.067,123.423 361.717,122.014 360.826 C 121.016 360.195,119.390 359.559,118.400 359.412 C 117.410 359.265,115.790 358.900,114.800 358.600 C 113.810 358.300,112.198 357.931,111.218 357.779 C 110.239 357.627,108.799 357.183,108.018 356.792 C 107.238 356.401,105.340 355.592,103.800 354.994 C 102.227 354.383,100.562 353.410,100.000 352.775 C 99.450 352.152,98.001 351.228,96.779 350.722 C 94.213 349.656,92.936 348.707,91.689 346.938 C 91.200 346.244,89.855 345.140,88.700 344.485 C 84.922 342.342,79.061 335.290,78.252 331.914 C 77.954 330.669,76.062 327.742,74.843 326.638 C 74.388 326.227,73.902 325.240,73.763 324.445 C 73.624 323.650,73.249 322.585,72.931 322.077 C 72.346 321.146,71.518 317.594,70.767 312.800 C 70.543 311.370,70.055 308.580,69.682 306.600 C 68.889 302.384,68.429 242.757,69.181 241.600 C 69.648 240.881,114.100 240.481,115.200 241.186 C 115.721 241.520,115.827 245.418,116.007 270.885 L 116.213 300.200 117.709 304.600 C 118.531 307.020,119.369 309.360,119.571 309.800 C 119.773 310.240,120.042 311.081,120.169 311.669 C 120.754 314.377,123.639 318.790,125.538 319.879 C 126.562 320.467,128.179 321.473,129.132 322.115 C 130.084 322.757,131.524 323.464,132.332 323.687 C 133.139 323.910,134.377 324.600,135.083 325.219 C 135.929 325.962,137.019 326.437,138.283 326.613 C 139.337 326.759,141.190 327.177,142.400 327.540 C 145.768 328.551,254.232 328.551,257.600 327.540 C 258.810 327.177,260.663 326.759,261.717 326.613 C 262.981 326.437,264.071 325.962,264.917 325.219 C 265.623 324.600,266.843 323.915,267.628 323.698 C 268.888 323.351,270.556 322.415,275.317 319.384 C 277.185 318.196,279.131 314.307,281.620 306.785 L 283.800 300.200 283.903 186.644 C 283.979 102.724,283.888 72.947,283.554 72.544 C 283.177 72.090,272.705 71.993,220.051 71.960 C 185.373 71.938,156.550 71.795,156.000 71.642 L 155.000 71.364 154.896 54.228 C 154.821 41.910,154.919 36.939,155.245 36.546 C 155.874 35.788,329.962 35.722,330.720 36.480 M116.589 112.945 C 116.155 113.245,114.960 113.613,113.933 113.765 C 112.906 113.916,111.849 114.300,111.584 114.620 C 111.319 114.939,110.838 115.200,110.516 115.200 C 109.766 115.200,105.087 117.810,103.612 119.051 C 102.992 119.573,102.358 120.000,102.204 120.000 C 102.050 120.000,101.358 120.405,100.667 120.900 C 97.591 123.104,97.600 123.107,97.600 119.809 C 97.600 116.649,97.370 115.600,96.677 115.600 C 96.385 115.600,96.399 115.759,96.720 116.080 C 97.011 116.371,97.200 117.781,97.200 119.656 C 97.200 123.740,97.302 123.752,102.516 120.293 C 104.982 118.657,107.720 116.948,108.600 116.497 C 111.820 114.843,113.908 114.000,114.783 114.000 C 115.276 114.000,116.246 113.740,116.940 113.423 C 117.633 113.106,118.650 112.770,119.200 112.678 C 119.955 112.550,119.855 112.496,118.789 112.454 C 118.013 112.425,117.023 112.645,116.589 112.945 M129.000 112.665 C 129.440 112.760,130.453 113.117,131.251 113.458 C 132.049 113.799,133.039 113.991,133.451 113.885 C 134.104 113.717,134.091 113.687,133.346 113.646 C 132.876 113.621,131.976 113.331,131.346 113.002 C 130.716 112.674,129.750 112.425,129.200 112.449 C 128.402 112.484,128.361 112.528,129.000 112.665 M171.389 112.952 C 170.955 113.255,170.240 113.609,169.800 113.738 C 169.299 113.884,169.374 113.909,170.000 113.805 C 172.736 113.352,175.070 112.455,173.589 112.427 C 172.813 112.412,171.823 112.648,171.389 112.952 M183.600 112.669 C 184.150 112.758,185.253 113.111,186.051 113.454 C 186.849 113.797,187.839 113.991,188.251 113.885 C 188.825 113.738,188.767 113.679,188.000 113.634 C 187.450 113.601,186.651 113.310,186.224 112.987 C 185.796 112.664,184.806 112.425,184.024 112.454 C 182.982 112.494,182.868 112.552,183.600 112.669 M135.078 114.506 C 138.415 116.385,139.406 116.826,138.456 116.010 C 137.936 115.565,137.283 115.200,137.005 115.200 C 136.726 115.200,136.274 114.930,136.000 114.600 C 135.726 114.270,135.209 114.003,134.851 114.006 C 134.369 114.010,134.428 114.140,135.078 114.506 M166.800 114.600 C 166.526 114.930,166.117 115.200,165.890 115.200 C 165.518 115.200,162.568 116.601,159.400 118.284 C 158.740 118.634,158.056 119.164,157.880 119.460 C 157.704 119.757,157.397 120.000,157.198 120.000 C 156.709 120.000,154.602 121.452,151.445 123.964 C 149.134 125.803,148.724 125.993,147.915 125.600 C 147.039 125.175,147.033 125.183,147.776 125.778 C 148.777 126.579,149.273 126.562,150.066 125.700 C 150.419 125.315,151.134 124.682,151.654 124.294 C 152.175 123.906,153.500 122.905,154.600 122.070 C 155.700 121.236,156.870 120.426,157.200 120.270 C 157.530 120.114,158.610 119.461,159.600 118.819 C 161.776 117.407,165.376 115.600,166.012 115.600 C 166.266 115.600,166.931 115.240,167.491 114.800 C 168.168 114.268,168.306 114.000,167.903 114.000 C 167.570 114.000,167.074 114.270,166.800 114.600 M190.606 114.838 C 191.483 115.299,192.605 115.933,193.100 116.247 C 193.595 116.561,194.000 116.660,194.000 116.466 C 194.000 116.074,190.189 114.000,189.469 114.000 C 189.218 114.000,189.729 114.377,190.606 114.838 M78.325 115.499 C 81.693 115.566,87.093 115.566,90.325 115.499 C 93.556 115.432,90.800 115.377,84.200 115.377 C 77.600 115.377,74.956 115.432,78.325 115.499 M70.584 116.100 C 70.480 116.375,70.440 135.050,70.497 157.600 L 70.600 198.600 83.552 198.706 C 92.777 198.781,96.662 198.680,97.052 198.357 C 97.507 197.979,97.600 192.953,97.600 168.840 L 97.600 139.779 99.280 138.689 C 100.204 138.090,100.779 137.600,100.558 137.600 C 100.336 137.600,99.535 138.057,98.778 138.616 L 97.400 139.633 97.200 168.916 L 97.000 198.200 84.000 198.200 L 71.000 198.200 70.898 157.130 C 70.802 118.261,70.834 116.050,71.498 115.876 C 72.158 115.704,72.158 115.690,71.487 115.646 C 71.096 115.621,70.689 115.825,70.584 116.100 M141.309 118.311 C 143.992 120.709,144.827 121.134,142.400 118.866 C 141.190 117.736,140.069 116.808,139.909 116.805 C 139.749 116.802,140.379 117.480,141.309 118.311 M196.145 118.262 C 197.178 119.066,198.557 120.452,199.211 121.341 C 199.865 122.230,200.400 122.745,200.400 122.484 C 200.400 121.857,195.377 116.800,194.754 116.800 C 194.487 116.800,195.113 117.458,196.145 118.262 M201.055 124.200 C 201.980 125.779,202.000 125.803,202.000 125.311 C 202.000 125.079,201.629 124.464,201.176 123.944 L 200.353 123.000 201.055 124.200 M202.355 126.600 C 202.600 127.040,203.239 128.750,203.775 130.400 C 204.311 132.050,204.761 133.179,204.775 132.908 C 204.822 131.982,203.075 127.000,202.493 126.400 C 201.980 125.871,201.964 125.895,202.355 126.600 M204.909 135.600 C 204.909 136.590,204.987 136.995,205.082 136.500 C 205.178 136.005,205.178 135.195,205.082 134.700 C 204.987 134.205,204.909 134.610,204.909 135.600 M112.200 134.785 C 115.270 134.950,116.963 135.229,117.800 135.708 C 118.460 136.086,119.209 136.396,119.464 136.398 C 119.720 136.399,120.398 136.985,120.970 137.700 C 121.543 138.415,122.199 139.228,122.428 139.507 C 122.979 140.178,123.993 144.702,124.376 148.200 L 124.683 151.000 124.741 148.258 C 124.940 138.955,120.666 134.332,112.000 134.478 L 107.800 134.548 112.200 134.785 M160.489 135.065 C 159.768 135.420,159.256 135.789,159.352 135.885 C 159.447 135.981,160.073 135.776,160.743 135.429 C 162.661 134.438,169.934 134.549,171.896 135.600 C 172.716 136.040,173.571 136.405,173.794 136.411 C 174.511 136.431,176.243 138.542,177.203 140.566 C 178.477 143.253,178.805 149.401,179.137 176.800 L 179.400 198.600 191.916 198.706 C 200.089 198.775,204.703 198.666,205.216 198.392 C 206.016 197.963,206.454 140.287,205.672 138.314 C 205.522 137.937,205.450 151.207,205.512 167.803 L 205.624 197.979 204.712 198.201 C 204.210 198.324,198.400 198.374,191.800 198.312 L 179.800 198.200 179.564 173.000 C 179.434 159.140,179.198 147.080,179.040 146.200 C 177.707 138.796,176.957 137.554,172.525 135.406 C 169.923 134.145,162.767 133.942,160.489 135.065 M105.200 135.469 C 102.303 136.748,101.201 137.334,101.372 137.505 C 101.469 137.602,101.960 137.393,102.463 137.041 C 102.966 136.688,103.653 136.394,103.989 136.386 C 104.325 136.379,105.320 136.025,106.200 135.600 C 108.092 134.686,107.230 134.573,105.200 135.469 M155.824 137.013 C 155.202 137.483,155.172 137.600,155.675 137.600 C 156.020 137.600,156.526 137.330,156.800 137.000 C 157.434 136.237,156.839 136.244,155.824 137.013 M153.084 138.311 C 151.504 139.286,151.569 137.841,151.692 169.200 L 151.805 197.800 151.903 168.714 L 152.000 139.629 153.493 138.614 C 155.160 137.481,154.827 137.234,153.084 138.311 M125.062 198.500 C 125.164 198.665,131.076 198.800,138.200 198.800 C 145.324 198.800,151.236 198.665,151.338 198.500 C 151.440 198.335,145.528 198.200,138.200 198.200 C 130.872 198.200,124.960 198.335,125.062 198.500 " stroke="none" fill="#755028" fill-rule="evenodd"></path><path id="path3" d="M154.744 35.164 L 153.800 35.929 153.688 53.472 C 153.594 68.286,153.666 71.138,154.156 71.807 C 154.729 72.591,155.451 72.601,217.922 72.704 C 270.619 72.790,281.183 72.898,281.560 73.351 C 282.317 74.264,282.151 296.642,281.391 299.800 C 281.073 301.120,280.810 303.103,280.806 304.206 C 280.802 305.437,280.491 306.788,280.000 307.704 C 279.560 308.525,279.196 309.783,279.191 310.499 C 279.186 311.214,278.830 312.250,278.400 312.800 C 277.970 313.350,277.614 313.926,277.609 314.080 C 277.588 314.735,275.068 318.042,274.271 318.462 C 273.792 318.714,273.310 319.028,273.200 319.161 C 272.760 319.691,269.730 321.600,269.327 321.600 C 269.091 321.600,268.693 321.847,268.443 322.148 C 268.193 322.450,267.236 322.797,266.317 322.920 C 265.350 323.050,264.383 323.474,264.023 323.926 C 263.108 325.073,262.081 325.487,259.400 325.791 C 258.080 325.941,255.693 326.409,254.096 326.832 C 250.708 327.728,150.065 328.061,147.758 327.184 C 147.157 326.955,144.622 326.424,142.127 326.004 C 137.317 325.195,136.889 325.049,136.100 323.956 C 135.824 323.575,135.014 323.142,134.300 322.994 C 131.170 322.344,125.461 318.720,123.912 316.400 C 121.757 313.172,120.800 311.179,120.800 309.918 C 120.800 309.181,120.534 308.198,120.209 307.734 C 119.884 307.270,119.428 305.295,119.195 303.345 C 118.963 301.395,118.606 298.990,118.404 298.000 C 118.201 297.010,118.027 283.922,118.017 268.916 L 118.000 241.631 117.130 240.821 C 115.797 239.579,115.304 239.557,91.514 239.682 C 70.746 239.792,69.180 239.849,68.514 240.514 C 67.001 242.028,67.369 306.003,68.909 309.050 C 69.228 309.682,69.610 311.698,69.757 313.528 C 69.903 315.359,70.286 317.609,70.606 318.528 C 70.926 319.448,71.191 320.458,71.194 320.774 C 71.197 321.089,71.542 322.079,71.960 322.974 C 72.378 323.868,72.830 325.243,72.964 326.028 C 73.128 326.981,73.614 327.756,74.423 328.354 C 75.091 328.848,75.933 329.870,76.293 330.626 C 76.653 331.382,77.095 332.000,77.274 332.000 C 77.453 332.000,77.600 332.495,77.601 333.100 C 77.601 333.726,78.270 335.163,79.153 336.436 C 80.007 337.666,80.830 339.063,80.981 339.541 C 81.133 340.018,81.739 340.666,82.328 340.979 C 82.918 341.293,84.456 342.551,85.746 343.775 C 87.036 344.999,88.332 346.000,88.625 346.000 C 88.919 346.000,89.657 346.653,90.266 347.451 C 91.670 349.292,94.955 351.728,96.894 352.366 C 97.715 352.637,98.763 353.335,99.221 353.918 C 100.082 355.012,103.590 356.754,105.000 356.787 C 105.440 356.797,106.340 357.163,107.000 357.600 C 107.673 358.046,108.815 358.378,109.600 358.356 L 111.000 358.318 109.800 358.011 C 109.140 357.842,108.060 357.411,107.400 357.054 C 106.740 356.697,105.896 356.404,105.524 356.402 C 105.152 356.401,104.736 356.220,104.600 356.000 C 104.464 355.780,103.559 355.400,102.590 355.156 C 101.359 354.846,100.516 354.303,99.794 353.356 C 99.225 352.610,98.555 352.000,98.306 352.000 C 96.638 352.000,92.271 349.057,91.113 347.152 C 90.734 346.530,89.834 345.769,89.112 345.461 C 87.542 344.791,82.676 340.366,81.348 338.400 C 80.828 337.630,79.960 336.370,79.419 335.600 C 78.878 334.830,78.239 333.521,78.000 332.692 C 77.512 331.001,76.276 329.040,74.715 327.479 C 74.141 326.905,73.545 325.842,73.390 325.117 C 73.236 324.393,72.770 323.045,72.355 322.122 C 71.940 321.199,71.598 320.209,71.595 319.922 C 71.593 319.635,71.235 317.960,70.800 316.200 C 70.365 314.440,70.007 312.168,70.005 311.150 C 70.002 310.133,69.690 308.513,69.310 307.550 C 68.275 304.924,67.988 242.069,69.007 241.050 C 70.127 239.930,114.873 240.073,116.000 241.200 C 116.784 241.984,116.800 242.545,116.817 269.500 C 116.827 284.625,116.989 297.720,117.177 298.600 C 117.869 301.841,118.886 305.849,119.460 307.600 C 119.785 308.590,120.239 310.210,120.470 311.200 C 120.700 312.190,121.113 313.270,121.387 313.600 C 121.660 313.930,122.386 315.110,122.999 316.222 C 124.277 318.538,130.067 322.632,132.988 323.285 C 133.875 323.483,135.140 324.160,135.800 324.789 C 136.731 325.676,137.539 325.997,139.400 326.218 C 140.720 326.375,142.520 326.795,143.400 327.151 C 145.853 328.146,254.050 328.143,256.800 327.149 C 257.790 326.791,259.667 326.369,260.972 326.211 C 262.786 325.992,263.521 325.700,264.094 324.971 C 264.507 324.447,265.700 323.764,266.747 323.453 C 270.513 322.334,275.827 318.602,277.264 316.066 C 277.970 314.820,278.671 313.710,278.823 313.600 C 278.974 313.490,279.290 312.496,279.525 311.392 C 279.760 310.287,280.232 308.847,280.574 308.192 C 280.915 307.536,281.196 306.640,281.198 306.200 C 281.199 305.760,281.651 303.758,282.201 301.750 L 283.201 298.101 283.101 185.350 L 283.000 72.600 219.200 72.400 C 184.110 72.290,155.175 72.054,154.900 71.876 C 154.190 71.417,154.171 36.789,154.880 36.080 C 155.637 35.323,330.526 35.388,331.155 36.146 C 332.017 37.184,331.564 305.715,330.696 308.164 C 330.313 309.244,330.000 310.902,330.000 311.849 C 330.000 313.867,328.637 319.791,327.556 322.474 C 327.140 323.505,326.800 324.709,326.800 325.151 C 326.800 325.592,325.898 326.984,324.796 328.243 C 323.671 329.529,322.588 331.250,322.327 332.167 C 322.071 333.065,321.623 334.084,321.331 334.431 C 321.039 334.779,320.800 335.176,320.800 335.314 C 320.800 336.821,313.656 344.143,310.728 345.637 C 309.888 346.065,309.200 346.570,309.200 346.758 C 309.200 347.665,306.307 350.043,303.800 351.195 C 302.260 351.903,300.593 352.990,300.095 353.611 C 299.597 354.231,298.670 354.853,298.034 354.993 C 297.398 355.132,296.192 355.596,295.354 356.023 C 294.516 356.450,293.545 356.800,293.195 356.800 C 292.846 356.800,292.361 356.999,292.117 357.243 C 291.873 357.487,291.072 357.828,290.337 358.002 L 289.000 358.318 290.289 358.359 C 290.998 358.382,292.348 358.060,293.289 357.644 C 294.230 357.228,296.075 356.474,297.388 355.969 C 298.702 355.464,300.348 354.478,301.048 353.779 C 301.747 353.079,302.783 352.391,303.350 352.248 C 303.916 352.106,305.020 351.555,305.803 351.024 C 306.586 350.493,307.358 350.000,307.520 349.929 C 307.682 349.858,308.507 348.945,309.355 347.900 C 310.203 346.855,311.152 346.000,311.464 346.000 C 311.776 346.000,312.758 345.280,313.647 344.400 C 314.536 343.520,315.363 342.800,315.486 342.800 C 315.608 342.800,316.130 342.395,316.644 341.900 C 317.159 341.405,317.871 340.730,318.227 340.400 C 319.144 339.549,322.394 334.305,322.397 333.671 C 322.402 332.765,324.480 329.459,325.872 328.146 C 326.712 327.353,327.200 326.511,327.200 325.856 C 327.200 325.286,327.559 324.230,327.999 323.510 C 328.438 322.789,328.798 321.696,328.799 321.080 C 328.799 320.464,329.073 319.432,329.407 318.786 C 329.741 318.140,330.172 315.944,330.363 313.906 C 330.555 311.868,331.047 309.390,331.456 308.400 C 332.176 306.659,332.204 302.153,332.309 171.490 L 332.417 36.381 331.427 35.390 L 330.436 34.400 243.062 34.400 C 157.641 34.400,155.668 34.417,154.744 35.164 M116.407 112.284 C 116.081 112.418,115.573 112.770,115.279 113.064 C 114.511 113.831,115.541 113.770,116.576 112.987 C 117.706 112.133,129.702 112.145,131.346 113.002 C 132.888 113.807,133.529 113.757,132.672 112.900 C 131.958 112.185,117.932 111.653,116.407 112.284 M171.134 112.257 C 170.768 112.361,170.368 112.705,170.247 113.023 C 169.966 113.753,170.381 113.740,171.376 112.987 C 171.987 112.526,173.575 112.400,178.800 112.400 C 184.025 112.400,185.613 112.526,186.224 112.987 C 187.390 113.869,188.372 113.801,187.472 112.900 C 186.790 112.217,173.172 111.681,171.134 112.257 M111.010 114.248 C 110.156 115.101,110.591 115.509,111.498 114.706 C 111.884 114.363,112.560 113.995,113.000 113.888 C 113.622 113.736,113.561 113.682,112.729 113.646 C 112.139 113.621,111.366 113.891,111.010 114.248 M134.600 113.888 C 135.040 113.995,135.670 114.299,136.000 114.564 C 136.330 114.829,137.050 115.267,137.600 115.538 C 138.150 115.810,139.044 116.286,139.587 116.596 C 141.038 117.426,145.600 121.694,145.600 122.222 C 145.600 122.472,145.960 123.002,146.400 123.400 C 146.840 123.798,147.200 124.360,147.200 124.648 C 147.200 126.312,148.823 126.051,151.445 123.964 C 154.666 121.401,156.711 120.000,157.230 120.000 C 157.447 120.000,157.726 119.737,157.850 119.415 C 157.973 119.094,158.462 118.709,158.937 118.560 C 160.035 118.216,161.869 116.800,161.217 116.800 C 160.947 116.800,160.269 117.160,159.709 117.600 C 159.150 118.040,158.446 118.400,158.146 118.400 C 157.846 118.400,157.600 118.556,157.600 118.748 C 157.600 118.939,156.520 119.772,155.200 120.600 C 153.880 121.428,152.800 122.261,152.800 122.452 C 152.800 122.644,152.596 122.800,152.346 122.800 C 152.096 122.800,151.475 123.250,150.965 123.800 C 150.381 124.430,149.603 124.800,148.862 124.800 C 147.942 124.800,147.632 124.583,147.436 123.800 C 147.298 123.250,146.918 122.800,146.592 122.800 C 146.267 122.800,146.000 122.450,146.000 122.023 C 146.000 121.595,145.262 120.560,144.361 119.723 C 143.460 118.885,142.430 117.885,142.072 117.500 C 141.715 117.115,141.220 116.800,140.973 116.800 C 140.726 116.800,140.198 116.440,139.800 116.000 C 139.402 115.560,138.742 115.200,138.334 115.200 C 137.926 115.200,137.284 114.840,136.907 114.400 C 136.478 113.898,135.771 113.617,135.011 113.646 C 134.168 113.679,134.043 113.752,134.600 113.888 M166.200 114.400 C 165.802 114.840,165.662 115.200,165.889 115.200 C 166.116 115.200,166.517 114.941,166.780 114.624 C 167.043 114.307,167.740 113.974,168.329 113.884 C 169.339 113.729,169.329 113.716,168.162 113.660 C 167.374 113.622,166.661 113.891,166.200 114.400 M189.200 113.860 C 190.702 114.353,194.000 116.131,194.000 116.448 C 194.000 116.641,194.272 116.800,194.605 116.800 C 195.338 116.800,199.828 121.174,200.427 122.472 C 201.022 123.760,202.217 125.890,202.684 126.495 C 203.312 127.309,204.783 132.367,205.274 135.400 C 206.207 141.162,206.161 197.886,205.223 198.388 C 204.701 198.667,200.162 198.775,191.916 198.706 L 179.400 198.600 179.137 176.800 C 178.873 155.014,178.405 142.661,177.820 142.098 C 177.650 141.934,177.622 143.150,177.758 144.800 C 177.895 146.450,178.117 159.087,178.252 172.882 C 178.478 196.088,178.549 198.011,179.197 198.598 C 180.218 199.521,205.812 199.336,206.419 198.400 C 207.213 197.177,206.713 135.960,205.900 134.811 C 205.511 134.261,205.200 133.101,205.200 132.200 C 205.200 131.308,204.953 130.223,204.651 129.789 C 204.349 129.355,203.966 128.370,203.799 127.600 C 203.632 126.830,203.159 125.771,202.748 125.246 C 202.337 124.721,202.000 124.041,202.000 123.734 C 202.000 123.426,201.746 123.078,201.436 122.959 C 201.126 122.839,200.770 122.335,200.645 121.837 C 200.374 120.758,196.519 116.800,195.739 116.800 C 195.438 116.800,194.884 116.440,194.507 116.000 C 194.130 115.560,193.530 115.200,193.173 115.200 C 192.816 115.200,192.198 114.840,191.800 114.400 C 191.355 113.908,190.599 113.612,189.838 113.632 C 189.157 113.649,188.870 113.752,189.200 113.860 M70.267 115.467 C 69.610 116.123,69.972 198.704,70.633 198.957 C 72.204 199.560,96.600 199.215,97.511 198.577 L 98.400 197.955 98.400 169.092 L 98.400 140.230 99.500 139.351 C 100.988 138.162,100.478 137.798,98.885 138.912 L 97.614 139.800 97.607 168.851 C 97.601 192.948,97.507 197.980,97.052 198.357 C 96.662 198.680,92.777 198.781,83.552 198.706 L 70.600 198.600 70.600 157.218 L 70.600 115.836 71.600 115.558 L 72.600 115.280 71.567 115.240 C 70.998 115.218,70.413 115.320,70.267 115.467 M96.400 115.492 C 97.413 115.877,97.588 116.487,97.594 119.676 C 97.601 123.115,97.506 123.074,100.607 121.000 C 101.265 120.560,102.086 120.020,102.431 119.800 C 105.874 117.605,106.880 116.800,106.178 116.802 C 105.750 116.803,104.750 117.401,103.956 118.130 C 103.162 118.860,101.947 119.691,101.256 119.977 C 100.565 120.263,100.000 120.655,100.000 120.849 C 100.000 121.042,99.640 121.200,99.200 121.200 C 98.485 121.200,98.400 120.933,98.400 118.680 C 98.400 116.008,97.972 115.180,96.620 115.232 C 96.036 115.254,95.972 115.329,96.400 115.492 M107.829 115.829 C 106.677 116.980,107.690 116.684,109.567 115.321 C 109.658 115.254,109.446 115.200,109.095 115.200 C 108.744 115.200,108.174 115.483,107.829 115.829 M162.600 116.000 C 162.202 116.440,161.956 116.800,162.053 116.800 C 162.151 116.800,162.937 116.440,163.800 116.000 C 165.203 115.284,165.261 115.200,164.347 115.200 C 163.784 115.200,162.998 115.560,162.600 116.000 M106.200 135.600 C 104.814 136.270,104.733 136.374,105.600 136.384 C 106.150 136.390,107.116 136.126,107.746 135.798 C 109.055 135.115,115.797 134.948,116.193 135.589 C 116.326 135.803,117.156 136.173,118.038 136.410 C 121.557 137.358,123.561 141.639,123.592 148.276 C 123.596 149.198,123.803 150.078,124.050 150.231 C 124.991 150.813,123.474 140.781,122.428 139.507 C 122.199 139.228,121.543 138.415,120.970 137.700 C 120.398 136.985,119.717 136.400,119.459 136.400 C 119.200 136.400,118.316 136.040,117.496 135.600 C 115.382 134.467,108.546 134.467,106.200 135.600 M160.200 135.622 C 159.320 136.038,158.307 136.384,157.949 136.390 C 157.591 136.395,157.074 136.670,156.800 137.000 C 156.526 137.330,156.006 137.600,155.644 137.600 C 155.282 137.600,154.314 138.056,153.493 138.614 L 152.000 139.629 152.000 168.538 C 152.000 191.035,151.889 197.598,151.500 198.130 C 151.044 198.753,149.867 198.803,138.000 198.706 L 125.000 198.600 124.795 174.600 L 124.591 150.600 124.495 174.420 C 124.423 192.521,124.515 198.355,124.880 198.720 C 125.477 199.317,150.664 199.400,151.600 198.809 C 152.123 198.478,152.214 194.656,152.308 169.100 L 152.415 139.770 153.508 139.299 C 154.108 139.041,154.870 138.673,155.200 138.483 C 157.303 137.269,159.260 136.400,159.890 136.400 C 160.293 136.400,161.036 136.110,161.542 135.756 C 162.620 135.001,170.286 135.085,171.248 135.862 C 171.552 136.107,172.370 136.429,173.067 136.578 C 173.763 136.727,174.433 137.108,174.554 137.424 C 174.676 137.741,174.959 138.000,175.184 138.000 C 175.408 138.000,175.284 137.640,174.907 137.200 C 174.530 136.760,174.035 136.400,173.805 136.400 C 173.576 136.400,172.716 136.040,171.896 135.600 C 169.805 134.480,162.586 134.493,160.200 135.622 M102.006 137.223 C 100.981 137.795,100.822 137.999,101.406 137.997 C 101.843 137.996,102.740 137.637,103.400 137.200 C 104.938 136.181,103.842 136.200,102.006 137.223 M176.189 139.400 C 176.457 140.601,177.044 141.499,177.348 141.173 C 177.437 141.078,177.153 140.370,176.716 139.600 C 175.923 138.202,175.922 138.202,176.189 139.400 M112.382 358.978 C 112.646 359.296,113.883 359.756,115.131 360.001 C 118.412 360.645,119.649 361.107,120.672 362.067 C 121.386 362.738,122.237 362.959,124.689 363.111 C 126.400 363.216,128.323 363.569,128.962 363.894 C 133.177 366.038,266.933 365.988,271.237 363.841 C 271.971 363.475,273.515 363.200,274.835 363.200 C 277.444 363.200,278.814 362.786,279.942 361.658 C 280.646 360.954,283.838 360.004,285.520 359.997 C 285.894 359.996,286.740 359.637,287.400 359.200 C 288.525 358.455,288.543 358.405,287.686 358.403 C 287.183 358.401,286.373 358.655,285.886 358.968 C 285.399 359.280,283.920 359.664,282.600 359.822 C 280.810 360.035,279.876 360.391,278.925 361.220 C 277.902 362.112,277.113 362.382,274.925 362.590 C 273.426 362.733,270.940 363.126,269.400 363.465 C 260.777 365.360,138.972 365.350,130.600 363.453 C 129.060 363.104,126.574 362.709,125.075 362.575 C 122.859 362.376,122.109 362.120,121.068 361.206 C 120.105 360.360,119.192 360.011,117.393 359.798 C 116.077 359.643,114.601 359.264,114.114 358.958 C 112.883 358.183,111.733 358.196,112.382 358.978 " stroke="none" fill="#917438" fill-rule="evenodd"></path><path id="path4" d="M155.245 36.546 C 154.919 36.939,154.821 41.910,154.896 54.228 L 155.000 71.364 156.000 71.642 C 156.550 71.795,185.373 71.938,220.051 71.960 C 272.705 71.993,283.177 72.090,283.554 72.544 C 283.888 72.947,283.979 102.724,283.903 186.644 L 283.800 300.200 281.620 306.785 C 279.131 314.307,277.185 318.196,275.317 319.384 C 270.556 322.415,268.888 323.351,267.628 323.698 C 266.843 323.915,265.623 324.600,264.917 325.219 C 264.071 325.962,262.981 326.437,261.717 326.613 C 260.663 326.759,258.810 327.177,257.600 327.540 C 254.232 328.551,145.768 328.551,142.400 327.540 C 141.190 327.177,139.337 326.759,138.283 326.613 C 137.019 326.437,135.929 325.962,135.083 325.219 C 134.377 324.600,133.139 323.910,132.332 323.687 C 131.524 323.464,130.084 322.757,129.132 322.115 C 128.179 321.473,126.562 320.467,125.538 319.879 C 123.639 318.790,120.754 314.377,120.169 311.669 C 120.042 311.081,119.773 310.240,119.571 309.800 C 119.369 309.360,118.531 307.020,117.709 304.600 L 116.213 300.200 116.007 270.885 C 115.827 245.418,115.721 241.520,115.200 241.186 C 114.100 240.481,69.648 240.881,69.181 241.600 C 68.429 242.757,68.889 302.384,69.682 306.600 C 70.055 308.580,70.543 311.370,70.767 312.800 C 71.518 317.594,72.346 321.146,72.931 322.077 C 73.249 322.585,73.624 323.650,73.763 324.445 C 73.902 325.240,74.388 326.227,74.843 326.638 C 76.062 327.742,77.954 330.669,78.252 331.914 C 78.672 333.667,79.596 335.255,81.559 337.597 C 85.161 341.896,86.627 343.309,88.700 344.485 C 89.855 345.140,91.200 346.244,91.689 346.938 C 92.936 348.707,94.213 349.656,96.779 350.722 C 98.001 351.228,99.450 352.152,100.000 352.775 C 100.562 353.410,102.227 354.383,103.800 354.994 C 105.340 355.592,107.238 356.401,108.018 356.792 C 108.799 357.183,110.239 357.627,111.218 357.779 C 112.198 357.931,113.810 358.300,114.800 358.600 C 115.790 358.900,117.410 359.265,118.400 359.412 C 119.390 359.559,121.016 360.195,122.014 360.826 C 123.423 361.717,124.626 362.067,127.414 362.397 C 129.386 362.630,132.620 363.098,134.600 363.437 C 143.192 364.906,259.424 364.581,268.000 363.063 C 269.870 362.732,272.607 362.344,274.083 362.201 C 276.177 361.997,277.075 361.694,278.179 360.817 C 279.164 360.034,280.271 359.608,281.825 359.414 C 283.053 359.261,284.629 358.902,285.329 358.617 C 286.028 358.332,287.458 357.975,288.507 357.824 C 290.313 357.563,292.988 356.605,295.200 355.426 C 295.750 355.132,296.783 354.768,297.495 354.615 C 298.235 354.457,299.196 353.820,299.738 353.128 C 300.310 352.397,301.758 351.464,303.394 350.774 C 306.372 349.518,307.402 348.743,308.234 347.134 C 308.538 346.547,309.824 345.433,311.093 344.658 C 314.936 342.313,320.187 336.283,321.543 332.661 C 322.436 330.274,324.614 326.846,325.439 326.530 C 325.735 326.416,326.097 325.665,326.243 324.861 C 326.389 324.058,326.829 322.762,327.221 321.981 C 327.613 321.201,328.051 319.851,328.195 318.981 C 328.339 318.112,328.706 316.230,329.010 314.800 C 329.315 313.370,329.772 310.670,330.027 308.800 C 330.281 306.930,330.634 304.410,330.811 303.200 C 331.370 299.374,331.280 37.040,330.720 36.480 C 329.962 35.722,155.874 35.788,155.245 36.546 M330.006 37.206 C 330.986 38.186,331.079 297.680,330.101 301.000 C 329.842 301.880,329.517 304.670,329.379 307.200 C 329.225 310.029,328.834 312.686,328.364 314.102 C 327.944 315.367,327.600 317.139,327.600 318.039 C 327.600 319.068,327.304 320.050,326.800 320.691 C 326.360 321.250,325.994 321.999,325.986 322.354 C 325.970 323.116,324.817 325.593,324.093 326.421 C 323.106 327.547,321.214 330.607,321.207 331.086 C 321.190 332.250,319.657 334.791,317.518 337.200 C 316.249 338.630,314.533 340.562,313.705 341.493 C 312.877 342.424,311.624 343.380,310.920 343.617 C 310.216 343.855,309.091 344.713,308.419 345.524 C 307.748 346.336,306.794 347.488,306.299 348.084 C 305.778 348.713,304.545 349.431,303.365 349.794 C 302.175 350.159,300.458 351.163,299.232 352.209 C 298.079 353.194,296.859 354.000,296.522 354.000 C 296.185 354.000,295.254 354.336,294.454 354.747 C 292.162 355.925,288.666 357.200,287.728 357.200 C 287.257 357.200,285.730 357.558,284.336 357.995 C 282.941 358.432,281.290 358.792,280.667 358.795 C 280.044 358.798,278.332 359.328,276.863 359.972 C 268.980 363.432,263.654 363.673,198.200 363.527 C 136.906 363.391,141.453 363.521,128.287 361.532 C 126.795 361.307,124.765 360.693,123.777 360.167 C 122.789 359.642,120.860 359.029,119.490 358.806 C 118.121 358.583,116.116 358.130,115.036 357.800 C 113.956 357.470,112.696 357.199,112.236 357.198 C 111.401 357.196,108.066 355.922,105.800 354.739 C 105.140 354.394,104.115 353.996,103.522 353.854 C 102.929 353.712,101.616 352.879,100.605 352.004 C 99.519 351.064,97.912 350.163,96.683 349.804 C 94.899 349.284,94.371 348.879,93.004 346.988 C 91.964 345.547,90.803 344.486,89.667 343.936 C 87.685 342.976,86.752 342.150,84.786 339.612 C 84.024 338.628,82.737 337.223,81.926 336.489 C 80.955 335.609,80.081 334.207,79.361 332.372 C 78.761 330.842,78.029 329.390,77.735 329.146 C 77.441 328.902,77.200 328.479,77.200 328.206 C 77.200 327.933,76.660 327.031,76.001 326.201 C 75.341 325.371,74.611 323.984,74.378 323.118 C 74.145 322.252,73.605 320.971,73.178 320.272 C 72.752 319.572,72.394 318.280,72.384 317.400 C 72.373 316.520,72.097 315.080,71.770 314.200 C 71.443 313.320,70.998 310.260,70.781 307.400 C 70.564 304.540,70.209 301.336,69.993 300.280 C 69.386 297.317,69.468 243.092,70.080 242.480 C 70.809 241.751,114.129 241.791,114.734 242.521 C 115.033 242.881,115.202 252.299,115.283 273.021 L 115.400 303.000 116.660 305.410 C 117.354 306.736,118.129 308.594,118.384 309.539 C 119.734 314.556,122.854 319.604,125.400 320.893 C 128.532 322.478,129.200 322.883,129.200 323.196 C 129.200 323.382,130.055 323.848,131.100 324.233 C 132.145 324.617,133.457 325.349,134.016 325.860 C 134.597 326.391,135.945 326.962,137.164 327.193 C 138.337 327.416,140.207 327.868,141.321 328.199 C 143.861 328.953,255.388 329.103,258.200 328.356 C 259.080 328.122,260.970 327.666,262.400 327.343 C 263.926 326.998,265.413 326.371,266.000 325.826 C 266.550 325.315,267.720 324.670,268.600 324.394 C 269.480 324.118,270.470 323.642,270.800 323.336 C 271.929 322.291,274.435 320.800,275.064 320.800 C 275.755 320.800,278.400 318.106,278.400 317.403 C 278.400 317.160,279.029 315.734,279.797 314.233 C 280.566 312.732,281.389 310.761,281.626 309.852 C 281.863 308.943,282.629 307.120,283.328 305.800 L 284.600 303.400 284.709 188.000 L 284.817 72.600 283.964 71.900 C 283.160 71.240,279.507 71.200,219.836 71.200 C 171.155 71.200,156.449 71.089,156.080 70.720 C 155.722 70.362,155.600 66.033,155.600 53.707 L 155.600 37.174 156.500 36.812 C 158.674 35.938,329.126 36.326,330.006 37.206 M119.200 112.655 C 118.650 112.760,117.633 113.106,116.940 113.423 C 116.246 113.740,115.276 114.000,114.783 114.000 C 113.908 114.000,111.820 114.843,108.600 116.497 C 107.720 116.948,104.982 118.657,102.516 120.293 C 97.302 123.752,97.200 123.740,97.200 119.656 C 97.200 117.781,97.011 116.371,96.720 116.080 C 96.211 115.571,73.517 115.365,71.698 115.853 L 70.796 116.094 70.898 157.147 L 71.000 198.200 84.000 198.200 L 97.000 198.200 97.200 168.936 L 97.400 139.672 98.400 138.913 C 99.309 138.223,100.740 137.501,105.400 135.380 C 111.236 132.725,120.593 134.928,122.952 139.513 C 124.548 142.614,124.571 143.007,124.789 171.000 L 125.000 198.200 138.200 198.200 L 151.400 198.200 151.600 168.685 C 151.774 143.045,151.879 139.118,152.400 138.771 C 153.415 138.096,157.942 136.000,158.385 136.000 C 158.615 136.000,159.475 135.640,160.296 135.200 C 162.680 133.922,169.707 134.040,172.525 135.406 C 176.957 137.554,177.707 138.796,179.040 146.200 C 179.198 147.080,179.434 159.140,179.564 173.000 L 179.800 198.200 191.800 198.312 C 198.400 198.374,204.210 198.324,204.712 198.201 L 205.624 197.979 205.466 167.889 C 205.279 132.373,205.187 131.466,201.030 124.200 C 198.377 119.562,192.305 114.709,188.400 114.104 C 187.630 113.985,186.461 113.615,185.801 113.282 C 183.957 112.351,175.997 112.169,173.200 112.993 C 171.990 113.349,170.320 113.789,169.489 113.969 C 168.657 114.149,167.653 114.590,167.257 114.948 C 166.861 115.307,166.315 115.600,166.044 115.600 C 165.380 115.600,161.821 117.378,159.600 118.819 C 158.610 119.461,157.530 120.114,157.200 120.270 C 156.870 120.426,155.700 121.236,154.600 122.070 C 153.500 122.905,152.178 123.906,151.663 124.294 C 151.148 124.682,150.398 125.332,149.998 125.738 C 148.938 126.812,147.930 126.301,146.375 123.901 C 144.564 121.107,140.816 117.590,138.128 116.163 C 136.923 115.524,135.546 114.778,135.068 114.506 C 134.591 114.234,133.786 114.009,133.280 114.006 C 132.774 114.003,131.784 113.696,131.080 113.325 C 129.803 112.652,121.627 112.191,119.200 112.655 M129.800 113.748 C 130.460 114.104,131.630 114.408,132.400 114.424 C 133.181 114.440,134.684 114.971,135.800 115.625 C 136.900 116.270,138.250 117.019,138.800 117.289 C 139.879 117.821,142.397 119.999,143.757 121.578 C 144.221 122.116,144.960 122.936,145.400 123.400 C 145.840 123.863,146.383 124.773,146.607 125.421 C 147.236 127.242,149.017 127.242,151.006 125.420 C 151.859 124.639,152.720 124.000,152.920 124.000 C 153.240 124.000,154.471 123.109,156.385 121.494 C 157.141 120.856,158.291 120.169,159.832 119.434 C 160.509 119.111,161.296 118.566,161.581 118.223 C 161.865 117.880,162.391 117.599,162.749 117.597 C 163.107 117.596,163.940 117.237,164.600 116.800 C 165.260 116.363,166.056 116.004,166.369 116.003 C 166.681 116.001,167.241 115.725,167.613 115.388 C 167.985 115.051,169.259 114.607,170.445 114.401 C 171.630 114.195,173.320 113.759,174.200 113.431 C 176.520 112.567,181.009 112.644,184.000 113.600 C 185.377 114.040,186.923 114.400,187.435 114.400 C 190.175 114.400,198.179 120.169,199.844 123.344 C 201.818 127.109,202.800 129.288,202.802 129.906 C 202.804 130.288,203.086 131.140,203.430 131.799 C 204.565 133.975,204.825 141.736,204.712 170.000 L 204.600 197.800 192.321 197.906 L 180.041 198.012 179.915 171.106 C 179.800 146.564,179.728 144.069,179.094 142.713 C 178.712 141.895,178.400 140.791,178.400 140.260 C 178.400 139.254,175.719 136.234,174.208 135.538 C 173.764 135.333,172.950 134.906,172.400 134.589 C 170.693 133.604,160.805 133.766,159.491 134.800 C 158.931 135.240,158.163 135.600,157.784 135.600 C 157.405 135.600,156.533 135.939,155.847 136.354 C 155.161 136.769,154.164 137.241,153.631 137.403 C 150.805 138.262,151.012 135.894,150.892 168.628 L 150.785 198.011 138.092 197.906 L 125.400 197.800 125.200 170.000 L 125.000 142.200 123.850 139.894 C 122.776 137.739,120.834 135.600,119.953 135.600 C 119.741 135.600,119.062 135.226,118.444 134.769 C 116.902 133.629,106.197 133.733,104.909 134.900 C 104.485 135.285,103.770 135.600,103.322 135.600 C 102.874 135.600,102.050 135.960,101.491 136.400 C 100.931 136.840,100.216 137.200,99.901 137.200 C 99.587 137.200,98.670 137.763,97.864 138.451 L 96.400 139.702 96.400 168.857 L 96.400 198.011 83.900 197.906 L 71.400 197.800 71.298 157.118 L 71.196 116.437 72.498 116.203 C 73.214 116.074,78.840 116.020,85.000 116.084 L 96.200 116.200 96.302 119.000 C 96.491 124.208,97.825 125.157,100.781 122.187 C 101.540 121.424,102.350 120.800,102.581 120.799 C 102.811 120.799,104.006 120.100,105.236 119.247 C 106.466 118.393,107.845 117.576,108.300 117.432 C 108.755 117.287,109.346 116.906,109.613 116.585 C 109.880 116.263,110.513 116.000,111.020 116.000 C 111.528 116.000,112.208 115.735,112.532 115.411 C 112.856 115.087,113.904 114.705,114.860 114.562 C 115.817 114.419,117.590 113.959,118.800 113.539 C 121.537 112.589,127.873 112.710,129.800 113.748 " stroke="none" fill="#503c1c" fill-rule="evenodd"></path></g></svg>