<?xml version="1.0" encoding="UTF-8"?>
<!DOCTYPE svg PUBLIC "-//W3C//DTD SVG 1.1//EN" "http://www.w3.org/Graphics/SVG/1.1/DTD/svg11.dtd">
<svg xmlns="http://www.w3.org/2000/svg" version="1.1" width="256px" height="256px" style="shape-rendering:geometricPrecision; text-rendering:geometricPrecision; image-rendering:optimizeQuality; fill-rule:evenodd; clip-rule:evenodd" xmlns:xlink="http://www.w3.org/1999/xlink">
<g><path style="opacity:0.985" fill="#020202" d="M -0.5,-0.5 C 35.1667,-0.5 70.8333,-0.5 106.5,-0.5C 47.2109,13.9324 11.5442,50.9324 -0.5,110.5C -0.5,73.5 -0.5,36.5 -0.5,-0.5 Z"/></g>
<g><path style="opacity:1" fill="#c2c1c1" d="M 106.5,-0.5 C 120.167,-0.5 133.833,-0.5 147.5,-0.5C 192.057,9.2092 224.557,34.5425 245,75.5C 250.11,89.2097 253.61,103.21 255.5,117.5C 255.5,123.5 255.5,129.5 255.5,135.5C 248.871,188.623 220.871,225.457 171.5,246C 113.702,263.601 65.2021,249.768 26,204.5C 11.9897,185.946 3.15634,165.279 -0.5,142.5C -0.5,131.833 -0.5,121.167 -0.5,110.5C 11.5442,50.9324 47.2109,13.9324 106.5,-0.5 Z"/></g>
<g><path style="opacity:0.985" fill="#020202" d="M 147.5,-0.5 C 183.5,-0.5 219.5,-0.5 255.5,-0.5C 255.5,38.8333 255.5,78.1667 255.5,117.5C 253.61,103.21 250.11,89.2097 245,75.5C 224.557,34.5425 192.057,9.2092 147.5,-0.5 Z"/></g>
<g><path style="opacity:1" fill="#fdba2d" d="M 183.5,82.5 C 182.5,82.5 181.5,82.5 180.5,82.5C 180.232,84.099 180.566,85.4324 181.5,86.5C 182.278,87.1556 182.944,87.9889 183.5,89C 181.882,92.2328 180.549,95.5661 179.5,99C 185.481,125.402 191.148,151.902 196.5,178.5C 190.907,178.807 185.407,178.473 180,177.5C 176.707,163.14 173.541,148.806 170.5,134.5C 170.322,131.784 169.822,129.117 169,126.5C 168,125.167 167,125.167 166,126.5C 161.68,134.14 158.18,142.14 155.5,150.5C 150.48,159.372 145.813,168.538 141.5,178C 135.472,178.83 129.472,178.664 123.5,177.5C 129.785,164.598 135.785,151.598 141.5,138.5C 143.685,134.787 145.352,130.787 146.5,126.5C 149.029,122.776 151.029,118.776 152.5,114.5C 156.392,108.541 159.392,102.041 161.5,95C 159.694,85.5208 158.027,76.0208 156.5,66.5C 155.167,66.5 153.833,66.5 152.5,66.5C 145.717,83.9205 137.884,100.921 129,117.5C 128.439,120.279 127.606,122.946 126.5,125.5C 122.659,131.849 119.325,138.516 116.5,145.5C 111.208,155.933 106.208,166.6 101.5,177.5C 98.0202,178.806 94.6868,178.806 91.5,177.5C 93.0376,175.449 92.7043,173.782 90.5,172.5C 88.7826,173.668 88.1159,175.335 88.5,177.5C 87.0813,178.451 85.4147,178.784 83.5,178.5C 92.1586,158.868 100.825,139.201 109.5,119.5C 111.957,116.249 113.624,112.582 114.5,108.5C 115.87,106.75 116.87,104.75 117.5,102.5C 127.634,80.7807 137.967,59.114 148.5,37.5C 154.388,36.1926 160.221,36.1926 166,37.5C 169.145,49.0404 171.645,60.7071 173.5,72.5C 179.206,72.1712 184.872,72.5046 190.5,73.5C 188.667,77.8333 186.833,82.1667 185,86.5C 184.79,84.9419 184.29,83.6085 183.5,82.5 Z"/></g>
<g><path style="opacity:1" fill="#5752bb" d="M 154.5,48.5 C 155.833,48.5 157.167,48.5 158.5,48.5C 158.884,50.6648 158.217,52.3315 156.5,53.5C 154.783,52.3315 154.116,50.6648 154.5,48.5 Z"/></g>
<g><path style="opacity:1" fill="#464bc6" d="M 183.5,82.5 C 183.843,84.4832 183.176,85.8166 181.5,86.5C 180.566,85.4324 180.232,84.099 180.5,82.5C 181.5,82.5 182.5,82.5 183.5,82.5 Z"/></g>
<g><path style="opacity:1" fill="#5f55b6" d="M 131.5,83.5 C 132.833,83.5 134.167,83.5 135.5,83.5C 136.244,86.9496 134.91,88.6162 131.5,88.5C 131.5,86.8333 131.5,85.1667 131.5,83.5 Z"/></g>
<g><path style="opacity:1" fill="#343333" d="M 51.5,102.5 C 54.5184,102.335 57.5184,102.502 60.5,103C 61.9308,103.465 63.0975,104.299 64,105.5C 64.3333,105.167 64.6667,104.833 65,104.5C 69.8264,110.871 69.6597,117.038 64.5,123C 70.2336,128.662 71.0669,135.162 67,142.5C 66.0975,143.701 64.9308,144.535 63.5,145C 57.5,145.667 51.5,145.667 45.5,145C 44.1514,143.365 44.3181,141.865 46,140.5C 46.4992,135.845 46.6658,131.179 46.5,126.5C 45.5,126.5 44.5,126.5 43.5,126.5C 44.7165,122.648 45.7165,118.648 46.5,114.5C 46.4407,112.109 46.1074,109.775 45.5,107.5C 47.1619,105.348 49.1619,103.682 51.5,102.5 Z"/></g>
<g><path style="opacity:1" fill="#363535" d="M 82.5,101.5 C 85.9727,101.602 89.1393,102.602 92,104.5C 93.9566,103.116 94.9566,103.783 95,106.5C 95.6543,105.304 96.1543,105.304 96.5,106.5C 95.477,110.077 93.977,113.411 92,116.5C 91.1522,113.62 89.6522,111.12 87.5,109C 83.7469,108.074 81.5802,109.574 81,113.5C 79.8983,121.691 80.565,129.691 83,137.5C 86.4053,141.494 89.0719,140.827 91,135.5C 91.1858,133.1 91.6858,130.766 92.5,128.5C 94.4554,129.28 95.4554,130.78 95.5,133C 95.326,143.537 90.326,147.537 80.5,145C 71.7363,133.436 70.2363,120.936 76,107.5C 78.0627,105.266 80.2294,103.266 82.5,101.5 Z"/></g>
<g><path style="opacity:1" fill="#353334" d="M 152.5,114.5 C 149.46,117.914 147.46,121.914 146.5,126.5C 145.778,126.918 145.278,127.584 145,128.5C 144,127.167 143,127.167 142,128.5C 141.502,131.817 141.335,135.15 141.5,138.5C 139.694,140.089 138.361,142.089 137.5,144.5C 131.791,145.733 130.624,144.067 134,139.5C 134.667,136.167 134.667,132.833 134,129.5C 133.107,130.711 132.274,130.711 131.5,129.5C 131.92,127.674 131.92,125.674 131.5,123.5C 132.5,123.5 133.5,123.5 134.5,123.5C 134.334,118.489 134.501,113.489 135,108.5C 138.105,102.27 142.938,100.77 149.5,104C 152.76,106.978 153.76,110.478 152.5,114.5 Z"/></g>
<g><path style="opacity:1" fill="#5d54b8" d="M 165.5,101.5 C 169.071,101.408 170.238,103.074 169,106.5C 168,107.833 167,107.833 166,106.5C 165.506,104.866 165.34,103.199 165.5,101.5 Z"/></g>
<g><path style="opacity:1" fill="#343333" d="M 20.5,103.5 C 24.5253,102.441 28.3587,102.441 32,103.5C 31.2142,107.498 31.5476,111.498 33,115.5C 34.4994,115.935 35.9994,117.101 37.5,119C 38.0903,121.196 38.7569,123.362 39.5,125.5C 38.1667,126.167 36.8333,126.833 35.5,127.5C 36.7829,133.67 39.1162,139.337 42.5,144.5C 38.5,145.833 34.5,145.833 30.5,144.5C 31.1853,141.131 31.1853,137.631 30.5,134C 30.1667,133.5 29.8333,133 29.5,132.5C 28.3333,134.167 27.1667,135.833 26,137.5C 24.6667,134.833 23.3333,132.167 22,129.5C 19.7293,134.773 20.2293,139.773 23.5,144.5C 19.5,145.833 15.5,145.833 11.5,144.5C 11.2907,143.914 10.9574,143.414 10.5,143C 15.9525,136.693 17.6192,129.693 15.5,122C 16.0239,119.587 17.0239,117.42 18.5,115.5C 20.1017,116.55 20.935,115.883 21,113.5C 21.5,111.5 22,109.5 22.5,107.5C 22.3318,105.829 21.6651,104.496 20.5,103.5 Z"/></g>
<g><path style="opacity:1" fill="#3c3839" d="M 117.5,102.5 C 116.87,104.75 115.87,106.75 114.5,108.5C 111.197,111.311 109.53,114.978 109.5,119.5C 108.416,121.319 107.082,122.985 105.5,124.5C 104.328,124.081 103.328,123.415 102.5,122.5C 103.167,120.5 103.833,118.5 104.5,116.5C 105.274,115.289 106.107,115.289 107,116.5C 109.254,112.322 109.754,107.989 108.5,103.5C 111.428,102.516 114.428,102.183 117.5,102.5 Z"/></g>
<g><path style="opacity:1" fill="#2e2d2d" d="M 192.5,102.5 C 195.898,102.18 199.232,102.513 202.5,103.5C 203.911,105.017 203.744,106.351 202,107.5C 201.333,118.167 201.333,128.833 202,139.5C 202.833,141.167 203.667,142.833 204.5,144.5C 200.833,145.833 197.167,145.833 193.5,144.5C 192.197,142.411 192.697,140.744 195,139.5C 195.667,128.833 195.667,118.167 195,107.5C 193.906,105.922 193.072,104.255 192.5,102.5 Z"/></g>
<g><path style="opacity:1" fill="#343333" d="M 206.5,103.5 C 215.942,100.735 223.442,103.401 229,111.5C 231.418,121.406 230.751,131.073 227,140.5C 223.629,144.515 219.296,146.182 214,145.5C 211.833,145.167 209.667,144.833 207.5,144.5C 206.089,142.983 206.256,141.649 208,140.5C 208.667,128.833 208.667,117.167 208,105.5C 207.722,104.584 207.222,103.918 206.5,103.5 Z"/></g>
<g><path style="opacity:1" fill="#bdbdbd" d="M 54.5,108.5 C 61.5173,109.982 62.8506,113.482 58.5,119C 56.9751,120.009 55.3084,120.509 53.5,120.5C 53.2367,116.4 53.5701,112.4 54.5,108.5 Z"/></g>
<g><path style="opacity:1" fill="#bdbdbd" d="M 141.5,108.5 C 148.15,109.016 149.983,112.349 147,118.5C 145.758,119.872 144.258,120.872 142.5,121.5C 141.508,117.217 141.174,112.884 141.5,108.5 Z"/></g>
<g><path style="opacity:1" fill="#bdbdbd" d="M 215.5,109.5 C 217.936,109.317 220.103,109.984 222,111.5C 224.15,119.921 223.817,128.254 221,136.5C 219.736,138.607 217.903,139.607 215.5,139.5C 215.5,129.5 215.5,119.5 215.5,109.5 Z"/></g>
<g><path style="opacity:1" fill="#ac8897" d="M 114.5,108.5 C 113.624,112.582 111.957,116.249 109.5,119.5C 109.53,114.978 111.197,111.311 114.5,108.5 Z"/></g>
<g><path style="opacity:1" fill="#b5b5b5" d="M 24.5,116.5 C 26.4562,118.032 27.4562,120.199 27.5,123C 27.4907,124.404 26.9907,125.57 26,126.5C 25.1667,124.833 24.3333,123.167 23.5,121.5C 24.3094,119.929 24.6427,118.262 24.5,116.5 Z"/></g>
<g><path style="opacity:1" fill="#a27990" d="M 152.5,114.5 C 151.029,118.776 149.029,122.776 146.5,126.5C 147.46,121.914 149.46,117.914 152.5,114.5 Z"/></g>
<g><path style="opacity:1" fill="#bcbcbc" d="M 53.5,126.5 C 62.2412,127.225 64.2412,131.225 59.5,138.5C 57.5914,139.348 55.5914,139.682 53.5,139.5C 53.5,135.167 53.5,130.833 53.5,126.5 Z"/></g>
<g><path style="opacity:1" fill="#cbb5bb" d="M 146.5,126.5 C 145.352,130.787 143.685,134.787 141.5,138.5C 141.335,135.15 141.502,131.817 142,128.5C 143,127.167 144,127.167 145,128.5C 145.278,127.584 145.778,126.918 146.5,126.5 Z"/></g>
<g><path style="opacity:1" fill="#363535" d="M 169.5,133.5 C 168.087,137.347 168.754,141.013 171.5,144.5C 167.351,145.809 163.351,145.809 159.5,144.5C 161.456,139.254 163.956,134.254 167,129.5C 168.095,130.693 168.928,132.027 169.5,133.5 Z"/></g>
<g><path style="opacity:1" fill="#cd9da7" d="M 170.5,134.5 C 169.833,134.5 169.5,134.167 169.5,133.5C 168.928,132.027 168.095,130.693 167,129.5C 163.956,134.254 161.456,139.254 159.5,144.5C 158.347,146.636 157.014,148.636 155.5,150.5C 158.18,142.14 161.68,134.14 166,126.5C 167,125.167 168,125.167 169,126.5C 169.822,129.117 170.322,131.784 170.5,134.5 Z"/></g>
<g><path style="opacity:1" fill="#5751bd" d="M 108.5,134.5 C 112.161,134.35 113.161,135.85 111.5,139C 110.552,139.483 109.552,139.649 108.5,139.5C 108.5,137.833 108.5,136.167 108.5,134.5 Z"/></g>
<g><path style="opacity:1" fill="#5751bd" d="M 176.5,134.5 C 180.161,134.35 181.161,135.85 179.5,139C 178.552,139.483 177.552,139.649 176.5,139.5C 176.5,137.833 176.5,136.167 176.5,134.5 Z"/></g>
<g><path style="opacity:1" fill="#b78d95" d="M 126.5,125.5 C 126.416,128.327 125.75,130.994 124.5,133.5C 122.277,137.431 119.944,141.431 117.5,145.5C 117.167,145.5 116.833,145.5 116.5,145.5C 119.325,138.516 122.659,131.849 126.5,125.5 Z"/></g>
<g><path style="opacity:1" fill="#6456b5" d="M 152.5,137.5 C 155.084,138.048 156.084,139.715 155.5,142.5C 154.167,142.5 152.833,142.5 151.5,142.5C 151.366,140.708 151.699,139.042 152.5,137.5 Z"/></g>
<g><path style="opacity:1" fill="#020202" d="M 255.5,135.5 C 255.5,175.5 255.5,215.5 255.5,255.5C 170.167,255.5 84.8333,255.5 -0.5,255.5C -0.5,217.833 -0.5,180.167 -0.5,142.5C 3.15634,165.279 11.9897,185.946 26,204.5C 65.2021,249.768 113.702,263.601 171.5,246C 220.871,225.457 248.871,188.623 255.5,135.5 Z"/></g>
<g><path style="opacity:1" fill="#3e3d3d" d="M 124.5,133.5 C 124.995,135.482 125.495,137.482 126,139.5C 127.659,140.817 128.826,142.483 129.5,144.5C 125.555,145.491 121.555,145.824 117.5,145.5C 119.944,141.431 122.277,137.431 124.5,133.5 Z"/></g>
<g><path style="opacity:1" fill="#5c53ba" d="M 187.5,167.5 C 188.5,167.5 189.5,167.5 190.5,167.5C 190.5,169.167 190.5,170.833 190.5,172.5C 186.716,172.475 185.716,170.808 187.5,167.5 Z"/></g>
<g><path style="opacity:1" fill="#4f4ec1" d="M 133.5,169.5 C 134.5,169.5 135.5,169.5 136.5,169.5C 136.5,171.167 136.5,172.833 136.5,174.5C 135.5,174.5 134.5,174.5 133.5,174.5C 133.5,172.833 133.5,171.167 133.5,169.5 Z"/></g>
<g><path style="opacity:1" fill="#564fbf" d="M 91.5,177.5 C 90.5,177.5 89.5,177.5 88.5,177.5C 88.1159,175.335 88.7826,173.668 90.5,172.5C 92.7043,173.782 93.0376,175.449 91.5,177.5 Z"/></g>
</svg>
