<?xml version="1.0" encoding="UTF-8"?>
<svg id="Layer_1" data-name="Layer 1" xmlns="http://www.w3.org/2000/svg" xmlns:xlink="http://www.w3.org/1999/xlink" viewBox="0 0 2100.36981457337879 2059.746484023136873">
  <defs>
    <style>
      .cls-1, .cls-2 {
        stroke-width: .800000965595245px;
      }

      .cls-1, .cls-2, .cls-3, .cls-4 {
        stroke-miterlimit: 3.200003862380981;
      }

      .cls-1, .cls-2, .cls-3, .cls-4, .cls-5 {
        stroke: #000;
      }

      .cls-2, .cls-4 {
        fill: #fff;
      }

      .cls-3, .cls-4, .cls-5 {
        stroke-width: 10px;
      }

      .cls-5 {
        fill: url(#radial-gradient);
        stroke-miterlimit: 10;
      }
    </style>
    <radialGradient id="radial-gradient" cx="1050.18490728668894" cy="1029.875279594149106" fx="1050.18490728668894" fy="1029.875279594149106" r="1033.855834671216144" gradientUnits="userSpaceOnUse">
      <stop offset="0" stop-color="#f0f"/>
      <stop offset="1" stop-color="#000"/>
    </radialGradient>
  </defs>
  <path id="Selection" class="cls-5" d="m1049.784887832270215,7.474045563425534c115.966544332341073,125.326028741265873-30.477453980476639,253.713880261128907,43.197004690122412,311.999741739077763,13.492122674137136,15.862378616689057,20.083927164563647,15.205549895296826,40.003714938102348,16.927609788238442,24.822698899497482,3.000233804089476,61.292522527062829,8.332490708115074,85.511762516111048,13.785138947879204,47.824599341422072-110.956336768691472,194.929145342091942-54.594519386237153,276.086825633865374-124.093704397370857,29.865229982135133-21.034538806037745,51.481271697533884-51.258586516708419,83.201329514660756-70.13860198052862,10.138015992430155-5.36824192207132,22.623081963398363-14.23640879735467,34.399635354548082-13.624956629957524,5.976389941526577,1.424941904626394,7.992407999827265,6.400948887197956,4.160372124595597,11.320949942788502-33.007071122170601,24.288537003540114-49.051814130381899,64.85473154167903-48.989632779166641,105.025669258811831,8.21241775908311,106.773459475991331-74.394825927985949,123.576468980662867-148.770566853430864,166.398657371779336,3.055960719771974,6.439998007404938,10.192004489173996,9.544005660169205,16.000019311904907,13.136002183182427,52.537320050796552,32.01564040807898,103.295134396163121,71.068364459201803,144.808011317007185,116.464627239890433.000171281926669-.000472997353427,17.368160988029558,17.599548246964332,17.36816099094176,17.599548246450468,3.640043455998239,4.135991320237736,7.528036430025168,10.183996667010433,13.824040123005034,8.024033122450419,101.967058653755885-81.61069460656654,84.521946581553493-195.563867263020256,275.207099977074904-134.144349240486008,4.113159035408898,1.31215766301375,8.569219101342242,2.416162901789903,10.169221032532732,6.936187888676614,3.941690953350189,12.52979566146314-12.605684082198422,14.008320142186676-21.376472172136346,14.855349171752096-115.418352237416912,18.89659757647496-118.750850278407597,81.651156333153267-163.997219954442699,169.930413769487132-37.932254111397924,67.644051131717788-37.750694288131854,21.572503342034906-7.20251687398013,91.198554544789658,130.404531803887949-125.479629114692216,193.692619585848661-127.596911402344631,341.600091381551465-29.374997703858753.000320931860188-.001014324287098,23.200348926822699,7.870967848903092,23.200348929889515,7.870967842383834,6.660341603057532,3.816476131953095,32.318918501396183,3.094509761021072,26.26365313343922,16.688364340201588-3.807571341621951,7.407660837296135-12.567542852344559,4.919669553052699-19.063644443091107,4.135684231790947-50.697185479382824-3.592051000900028-104.351547674265021-6.060492064561004-155.200176013671808-1.84839519110028-129.544685461902191,15.160613683608062,26.350938583858806,159.059407277457467-118.400646511978266,244.680559446938787-10.111503134838131,6.056381225068435-25.626034698412695,7.621938014195621-20.838953647467861,22.647792193143687-.381437674337576,4.677357684963681.539523268447738,15.252470112536685.839286876076585,20.0003801065277,2.690922824764129,83.311615046967745-16.98247770402304,50.646639451958436,32.800153957043221,82.743439468661563,145.955048957684994,108.036064872352654-83.191684389947113,263.234804485882705,208.000263483816525,237.257032270850686,14.649781167543551-.057828148188491,44.843005761918903-1.361403080059972,59.200027898930784-3.320853354580322,4.79204965342069-.519287358356451,9.224086252854249-.383252037916463,12.208074229505655,4.15278859330283,7.642512367179734,13.566441323364415-18.729301541439781,14.322614436481672-25.807907829930627,17.472869445769902-.000131132565002-.000875700721735-22.400158169431961,7.519152906750605-22.400158169348288,7.519152906916133-148.519142771652696,98.184533955363804-211.556265063718456,96.971854603663814-342.400413274765015-29.024058469323791-30.984273341871813,70.371918946089863-30.449299427240476,23.222312270718248,7.665097450268149,92.00058141876616,44.9071780488066,88.380899867692278,48.613391880408017,150.203235208793558,163.537118525771803,169.126552759733386,8.698362654909943.822809803748896,25.407276550136885,2.361512893790859,21.373653062528319,14.857901115061395-2.341188901855276,8.365262648010685-33.666148673588395,12.244733567964431-40.574916028084772,15.552746443472643-46.718209177352037,13.230406387876428-99.929068083727543,11.004689031691669-140.001065221887984-18.649311991855939-37.14386344968807-27.824209110678567-43.991918590239948-69.632267385195519-75.199964070619899-100.888262142199892-5.936042321009154-5.944050143174536-21.128052845153434-20.304028413062042-28.800034761428833-22.863992440419679-4.391997488608467-1.464064267114736-9.551964654150652,4.815923781534366-12.800015449523926,7.455966030545824-40.831937902788923,39.435449448872532-80.784666154026127,80.639108513676547-128.801538617450205,111.670554354494016.00138315661934.001553089163281-35.198659329576913,22.601580367228962-35.198659329575094,22.601580367228962-5.808014822730911,3.592094179381093-12.944058592132933,6.696004175777489-16.000019311904907,13.136051011366362,48.562141945860276,32.636548699994819,119.755676351773218,43.904310791700482,141.247174757334506,106.401203424498817,16.196259366872255,51.752779610405923-4.760259005457556,100.336606027005473,38.090872268008752,147.998690329335659-.001795411566491.000413305453549,18.422152607256066,17.024457290848659,18.422152607254247,17.024457290848659,3.832035875248039,4.919927813320101,1.81601781691279,9.895910381788781-4.159965958548128,11.319935538078425-49.466128850595851-8.079869220297041-78.594973025301442-56.931179074177635-117.600672010328708-83.766702452803656-77.55825674265725-69.380272703259834-222.485597026896357-12.584912427180825-271.194732992335048-117.373095432920309-.989049839290601-2.38837745877936-1.885047014498923-6.356350998092239-4.893058457648294-6.716312370062951-24.140668380954594,5.450059906812385-60.84078735174262,10.745762143316824-85.512470681285777,13.783605824692131-19.526556222519503,1.696788590410506-26.61838871803775,1.030527729200912-39.998930545620169,16.9295569095666-73.342189617169424,58.189953305762174,72.403127625086199,188.374537984169365-43.200814126239493,311.999164979484704-121.553194459819679-140.149260005018732,49.410708682946279-259.033629377372563-58.39607306837479-325.616782035323922-33.246580766523948-5.389447964314968-76.438281297743742-9.141396561475631-109.515995046805983-17.096794755962037-3.008157715516973.361210449513237-3.904154890728933,4.329183988827936-4.896148275557607,6.713171241282907-48.769553793194063,104.809766451648102-193.567731541998,47.980667142624952-271.18771601838489,117.385232574815745-36.441929406531926,26.312737266860495-63.45569968489599,66.368822842005102-107.205303528598051,82.078360753528614-7.212542351900993,4.110433284022292-21.975510872160157.798568970367342-14.559183777525504-9.640370730827271,40.386591543881877-28.775479556592472,50.506600165590498-78.398381212302411,49.75543140435002-125.025055965619686,2.586129282161892-97.504653823509216,82.577108563787988-104.536945127232684,148.00454413708394-146.398265122612429-3.056009547957729-6.440046835588873-10.192004489172177-9.54395683198527-16.000019311904907-13.136051011366362-52.537287751627446-32.015639611667211-103.295125118815122-71.068256763697718-144.808011307339257-116.464578418934252-.00017130325341.000473006639368-17.368160989291937-17.599548241219964-17.368161000635155-17.599548239219075-3.640043455971863-4.136040148425309-7.528036429998792-10.183996667014071-13.824040122979568-8.024033122454057-101.967031404973568,81.61093901464119-84.52201013461854,195.563653784263806-275.207099997569458,134.144398089978495-4.113232257192976-1.312206512506236-8.569243494938746-2.41621175128239-10.169245426130146-6.9362367381691-3.941656442490057-12.529734181849562,12.60562782155921-14.008383007558223,21.376496595007666-14.855300341505426,115.418252026569462-18.896514208496228,118.750991207582956-81.651240076835165,163.997219955659602-169.93046258677532,37.932412066768848-67.643866783660997,37.750509223113113-21.57263320473794,7.202516863983874-91.198554557748139-130.404484225542546,125.479608549165278-193.692617555186189,127.596908921126669-341.600091350262119,29.374997632108716-.000320960634781.00101439071841-23.200348959924668-7.870967773316806-23.200348961173404-7.87096777064653-6.660233217806308-3.816473875573138-32.319101174571188-3.094518758627601-26.263590404191746-16.688364327936142,3.807563162611586-7.407660849548847,12.567573201814412-4.919669565304503,19.063581713838175-4.135684244043659,50.689260080218446,3.573276311159134,104.352113410656784,6.052517125535815,155.200175995440077,1.848481302460641,129.544745304538083-15.160756331140874-26.350924662225225-159.059372495768912,118.400646530544691-244.680645548092798,10.111476439094986-6.056400912630124,25.626086455887162-7.62198533042465,20.838904866478515-22.647792206949816.381371672472596-4.677355548556079-.539460229393626-15.252469591159752-.839238199306237-20.000380103008865-2.690920360924792-83.311578501070471,16.982441617492441-50.646683848483008-32.80015384597209-82.743439469179066-145.95504211372463-108.036182178466333,83.191737692323841-263.234737860784662-208.00026348177289-237.257032246481685-14.649776847011708.057864554197295-44.843004428351378,1.361458733138534-59.200027911406323,3.320853294875633-4.79205727957924.519238566104832-9.224062979927112.383252073851509-12.208066406121361-4.152739729184759-7.642398093617885-13.56653418130827,18.729238296336916-14.322648549627957,25.807900030410565-17.472918276078417.000131112282361.000875703024576,22.400158148570881-7.519152904753355,22.400158148730043-7.519152904791554,148.519319943829942-98.184584923170405,211.556098667006154-96.971815503205107,342.400413274764105,29.024058469323791,30.986859188818926-70.373414393243365,30.44532801261812-23.226161550410325-7.665024163171438-92.000582197594667-44.905752277918509-88.378332814277201-48.614216438614676-150.204247389937336-163.537192178211626-169.126502546628217-8.698143946631717-.822867520351792-25.407462975577801-2.361508428217348-21.373676446488389-14.85795042119662,1.111385752136812-9.488421611338708,75.768980497344273-23.849235844466421,86.175185296568088-23.408216340542822,127.721982866143662-6.767297797240644,116.1703856686172,94.676400351264419,199.196799021349761,150.622724540762647,6.300024171981022,2.154334375540202,10.188017146011589-3.893670971232496,13.828060602016194-8.029662291468412,38.526268355205502-40.79525036520954,80.034753989933961-80.404586009328341,126.976767946362088-111.463427711039913-.000638124639408-.00072049722985,35.199404361597772-22.600747775308264,35.199404361577763-22.600747775302807,5.808014822741825-3.59199652301686,12.944009763941722-6.69600417577476,16.000019311904907-13.136002183182427-64.265230298418828-41.189889680077613-144.064407211560138-48.725458683998113-147.999553021322754-144.001375797849505-.24012297536683-38.142293280424383-3.765626518961653-81.219037408490294-31.337709552999513-110.398538272170299.001059794765752-.000392987893065-18.422985890812015-17.024412561562713-18.42298588644644-17.024412560568635-7.11018559268723-10.290019164811383,6.968038896650796-13.896299473075487,14.560160699033077-9.638810802554872,43.771663858951797,15.718312505189715,70.756192346740136,55.758309434648254,107.199556506196132,82.087604180302151,77.563320492640742,69.379374730670861,222.484056862524994,12.581855845261089,271.195713898939175,117.371044910115415.989038524503485,2.388401518557657,1.885035699715445,6.356399471964323,4.893047142862997,6.716409672118971,33.065492158239067-7.956779588510472,76.288702660307536-11.700853585454752,109.512374077577078-17.094547327279543,107.474458624467843-66.169593963832995-62.816545167353979-187.097163004962567,58.399840309973115-325.617878042831762Zm-27.200032830238342,725.712887648835022c-239.593433833464587,8.951178545622497-466.962959191810114,121.750514528459462-642.400185037011397,281.473030069837478-23.695128430880686,17.916219021821234,5.06701750942284,34.099951380732819,18.400122189677859,46.991508123575841,382.627093631099342,357.069481519505644,963.161811888381635,345.079798109583862,1330.041507655922032-26.994892012469791,1.929465017819894-14.23187399143535-4.236441670391287-16.063297665017672-14.041050721649299-25.005454480638036-187.814903678707196-169.196556533061994-435.800333856641373-284.682718880711946-692.000394086939195-276.464191700305491Z"/>
  <path id="Selection_14" data-name="Selection #14" class="cls-2" d="m1046.584883969889233,886.211141348847377c76.208763103415549,1.002450208165101,142.472690319169487,69.424500616429214,143.199292539151429,145.264480220439509-2.94763133149354,57.939143160061576-40.198252170010164,110.468717090805512-94.399382409821555,131.679492211051183-23.896530882468141,9.975794298454275-50.323739410319831,14.190056760473453-75.199852258780084,5.230930022815301-158.84475791908244-49.94067147602982-136.571933086755962-260.960259452604987,26.39994212945021-282.174902454305993Zm1.600001931190491,71.904090693955368c-32.088027011261147,6.008015064129722-62.60007555782795,36.960005547953187-64.728105470094306,70.16004562015587.96954331192228,35.556773076055833,31.214185796069614,67.040569341505034,65.527904306056371,73.448339329557712,34.258898990603484-3.913193551123186,65.739949575099672-36.376946146376213,67.969036710917862-71.047623791790102-1.693802146322923-35.63558254671625-33.200628918044458-69.385619293762829-68.768835546879927-72.56076115792348Z"/>
  <path id="Selection_13" data-name="Selection #13" class="cls-1" d="m1024.184856933222363,825.187044255713772c19.146219020609351.147644426400802,45.741054245612759-.683594606718543,64.800065165183696,1.456323674176019,6.88150008991397-.741282459413014,22.637523809708,1.094771481318276,29.600378960332819,1.559331720663977,3.63170544856257.248313388496172,13.839725582067331.616380239000136,16.79969009222259,1.640307256122469,88.766548181078178,40.860369312771581,149.981473138268484,145.918923831202846,125.936644874680496,243.232405846858455-14.307660072397994,68.244977075342831-63.563824619955994,128.196376910373147-126.736036592612436,157.096772619115654-8.010952946802718.567792799640301-24.010416043323858,2.164617457119675-32.000747264513848,2.871157672652771-7.017740504534231-.43819612272091-25.573044871127422,1.019988529167676-32.799923331969694,1.632447567659256-25.505521157223484.530768070333579-62.774918080184761-1.083476580806746-88.000032459832255-3.129858916538069-15.671927583355682-1.006309987160421-17.788705088366441-.991470430799382-31.999897428780059-9.335187477641739-70.244154543320292-39.836661368643036-118.395984777028389-118.084168586879969-116.00025483519039-199.535733326187255,3.863730761882834-82.048842532563867,57.33022993017039-159.44811025114268,132.000434429166489-193.095845124247717,18.326110468125989-2.077910438596518,40.192845408390895-2.326209258777453,58.399678391312591-4.392121512633821Zm17.600021243095398,44.912065927281219c-86.954183127522811,8.791617420074544-161.221685713959232,94.840779327643759-145.000500389485751,182.977293346622901,11.275180772459862,72.845026021652302,75.820919021899499,131.20135605192263,149.000957114392804,136.798930981092781,85.767143974810097-.532750368334746,158.48587906875764-74.839553663083279,160.526490620992263-160.000367289279893-1.903468352482378-86.119228736737568-77.492391297117138-162.489349378363841-164.526947345899316-159.775857038435788Z"/>
  <path id="Selection_12" data-name="Selection #12" class="cls-1" d="m487.384209018812726,1110.675377119268887c167.158722121543178,89.426096432991471,357.30409289090494,135.364720315223167,546.401079111483341,139.998776082324184,129.769167282762282.850835510014804,260.105849213492547-18.981918934536225,383.999991618244167-57.614848579720274,60.521533871567954-19.275276256757934,125.43398506880294-46.126927249275468,181.599737407148496-75.785136995415087,3.400538144294842-1.702788504000637,10.144589253064623-6.254747123181005,13.60055045563422-5.798789541593578-163.578336138854866,120.318202923755962-364.054721613494621,200.322924617790704-568.801897895968068,199.333868202515077-199.963817429726987-2.812054127965894-398.052517212683597-80.358773552376078-556.799460696542155-200.133869168110323Z"/>
  <path id="Selection_11" data-name="Selection #11" class="cls-2" d="m401.784105700121472,1021.875269938196652c153.249447014442012-107.730720249102887,337.610939569744914-169.298722589145655,523.200631499290466-188.800227880477905-143.142312231313554,108.151078722383318-143.084106979032185,285.540036432819761,0,393.600475072860718-185.599873242496869-19.504536228014331-369.942246896704091-81.066595513790162-523.200631499290466-188.800227880477905v-1.600001931190491l8.800010621547699-5.600006759166718v-1.600001931190491l-8.800010621547699-5.600006759166718v-1.600001931190491Zm300.800363063812256-29.359996374798357c-59.180422799073312,15.985761029865898-28.644179427384188,93.155556848740162,26.4006483878984,71.839096538795275,12.629331428110163-6.015612324963513,24.006017816034728-19.505354580243875,25.519580140338803-33.679157831409611-.987862298818982-24.529752718081909-28.446822923051513-43.142946575095266-51.920228528237203-38.159938707385663Zm-124.800150632858276,17.600021243095398c-31.346955770401109,6.79741114673925-17.934567178186626,45.613630431542333,9.601130943877251,39.502976783671329,26.774506862087037-5.613977545464877,19.581120751307026-44.384335996297523-9.601130943877251-39.502976783671329Zm-88.00010621547699,12.23194835762115c-13.713649543137763,1.294211833587724-13.659323040420531,13.745200562385435.000644402671242,15.056167827669924,14.189285413549442-.446701779550494,14.284215875816699-14.639292955925157-.000644402671242-15.056167827669924Z"/>
  <path id="Selection_10" data-name="Selection #10" class="cls-2" d="m1175.385039430723737,833.075042057718747c185.599883206605227,19.50453526412457,369.94222933378478,81.066596251531337,523.200631499290466,188.800227880477905v1.600001931190491l-8.800010621547699,5.600006759166718v1.600001931190491l8.800010621547699,5.600006759166718v1.600001931190491c-153.249464442238605,107.730719461413173-337.610929740381835,169.29872359834917-523.200631499290466,188.800227880477905,143.106924124816942-107.911183857877404,143.005287821972161-285.756575951163541,0-393.600475072860718Zm204.800247192382812,159.456149493642442c-17.190051962295911,3.807495666799696-31.271131616720595,18.36504717275966-34.256386565348294,35.74394340183062.332889690174852,19.168830027017975,19.010722630418968,38.399466180639138,38.255659542881403,39.200782552530654,63.270288887943025,5.160288060858875,58.064411180755997-84.986983743679957-3.99927297753311-74.944725954361274Zm132.80016028881073,17.600021243095398c-28.427274731689977,7.558270191866541-18.020223787909345,44.228147716701642,9.600776278084595,39.504057883252244,30.431206495604783-5.963489365442001,19.161840591503278-45.376071766106179-9.600776278084595-39.504057883252244Zm97.600117802619934,12.216030369658256c-14.289590688536919.418859896426511-14.184832882114279,14.612649641501775.000563476556636,15.056056782832457,13.664252473672605-1.314536127698375,13.708152605873693-13.763972627368275-.000563476556636-15.056056782832457Z"/>
  <path id="Selection_9" data-name="Selection #9" class="cls-1" d="m487.384209018812726,948.275181103434079c163.578335918517041-120.318165421491358,364.054747404032241-200.322980298723451,568.801897872124755-199.33381943225686,199.963854548925156,2.811890335266071,398.052498947372442,80.358771876733954,556.799460720385468,200.133820397852105-167.158742771527614-89.426095522183459-357.304082218175608-135.364721384892619-546.40107911233099-139.998776078510673-129.769127414747345-.850833148977472-260.105931461142973,18.981916689479476-383.999991619539287,57.614848567310219-60.521498733778571,19.275277390428528-125.433955690038601,46.126926326046487-181.599737418304358,75.785136980803145-3.400538130994391,1.702788527209123-10.144540411583876,6.254747146389491-13.600550442335589,5.798789564802064Z"/>
  <path id="Selection_15" data-name="Selection #15" class="cls-2" d="m1048.984886866674969,958.355173738660596c33.603866566410943,4.177545365286278,63.518253353196997,34.628226201346479,67.200578802872769,68.319567330734571.581713177873098,22.768108012083758-11.788825774918223,42.836075283314131-28.759647703356677,57.296910586153899-10.978362144795028,9.026780477190187-24.255853764721905,15.965709052528837-38.440728571108593,17.424552833743292-.000202528408408-.000819039649286-9.600214115550443-2.704826209625026-9.600214115550443-2.704826209621388-28.368141265297709-9.068172218416294-51.841902481484794-35.860301905144297-55.200862621906708-65.6157453555752-.570222019216999-36.41371279595478,30.349034402769576-67.475917039934757,64.800874209049653-74.720459185435175Z"/>
  <path id="Selection_8" data-name="Selection #8" class="cls-3" d="m485.792214909787617,1023.195291062702381c3.735990837438294-.775977499099099,7.935995906813332-.920020641708106,11.16002323569046,1.487990077243012,5.879987565851479,4.400005310773849,3.007962614963617,10.16798102267785-3.168021401903388,11.936049562973494-11.760937501999251,3.519127002673486-19.560962064717387-9.192714325051384-7.992001833787072-13.424039640216506Z"/>
  <path id="Selection_7" data-name="Selection #7" class="cls-3" d="m579.384320062265942,1010.123302628659076c31.176311372228156-3.025683263681458,32.726092079541559,40.973003500383129,1.598704696713867,39.608233756182017-27.644554478522878-1.467906887197387-27.263183089535232-37.093326285244984-1.598704696713867-39.608233756182017Z"/>
  <path id="Selection_6" data-name="Selection #6" class="cls-3" d="m702.584468763933728,992.65121122747405c45.6346731380454-6.085791473935387,72.960851553319117,47.810565631838472,26.399027282728639,70.927581213440135-53.189212150801723,23.162366928409028-85.027182057321625-55.167422552683092-26.399027282728639-70.927581213440135Z"/>
  <path id="Selection_16" data-name="Selection #16" class="cls-3" d="m1048.984886866674969,958.355173738660596c33.603866566410943,4.177545365286278,63.518253353196997,34.628226201346479,67.200578802872769,68.319567330734571.581713177873098,22.768108012083758-11.788825774918223,42.836075283314131-28.759647703356677,57.296910586153899-10.978362144795028,9.026780477190187-24.255853764721905,15.965709052528837-38.440728571108593,17.424552833743292-.000202528408408-.000819039649286-9.600214115550443-2.704826209625026-9.600214115550443-2.704826209621388-28.368141265297709-9.068172218416294-51.841902481484794-35.860301905144297-55.200862621906708-65.6157453555752-.570222019216999-36.41371279595478,30.349034402769576-67.475917039934757,64.800874209049653-74.720459185435175Z"/>
  <path id="Selection_5" data-name="Selection #5" class="cls-4" d="m1047.384884935484479,870.21112203694247c98.571890147128215.327989360526772,184.658980608171987,108.101382079696123,150.671978798649434,203.664872274181107-19.929860061398358,64.918246646106127-80.936501418225816,113.122101008455502-149.072474864182368,115.854950137787455-84.217203352710385-4.771783441403386-155.225738377546804-79.137426093164322-154.399428062893094-163.856627697203294,3.820866296595341-80.539677542153186,72.208502579343076-150.695731456316935,152.799924128426028-155.663194714765268Zm-4.000004827976227,15.896015280122811c-90.198202389570724,8.925434697867786-161.460324553800092,110.939431480982421-121.31839334313463,196.569352693575638,55.76880016116138,119.567152579256799,200.494540901813707,119.52428548755779,256.238723608476903-.002135792798072,42.375083615104813-89.367261369630796-39.23077589587956-199.134274148075747-134.920330265342272-196.567216900777566Z"/>
  <path id="Selection_4" data-name="Selection #4" class="cls-3" d="m1381.78528855429704,992.643203405308668c44.025823376454355-8.016442277743408,67.322537944397482,50.300077572304872,25.598459409988209,71.048714413655034-52.934020038568633,20.74110323386958-91.077034199528498-52.290731994120506-25.598459409988209-71.048714413655034Z"/>
  <path id="Selection_3" data-name="Selection #3" class="cls-3" d="m1515.385449808703015,1010.123302628659076c31.605334309162572-3.224913424362967,33.606169988728652,40.748920441603332,1.598577462951653,39.608454850369526-26.206937094286332-1.185781338554079-27.203391278182607-36.402493296984176-1.598577462951653-39.608454850369526Z"/>
  <path id="Selection_2" data-name="Selection #2" class="cls-3" d="m1606.585559886560986,1023.131228485379324c3.383988459449029-.615918712159328,7.255965789147012-.871973708715814,10.263977232294565,1.152052171768446,5.887995388016861,3.951957894983934,3.944047729186423,10.279992876625329-2.271975398507493,12.27198746844806-11.746484124858398,3.584973524548332-20.91969663285272-8.963858136033195-7.992001833787072-13.424039640216506Z"/>
  <path id="Selection_1" data-name="Selection #1" class="cls-4" d="m1028.18486176119859,733.410908091971578c218.228194384497328-5.892339372061542,433.08087127690851,79.593321664337054,605.600275116492412,210.328749663986855,10.761623622278421,9.441015125723425,73.305587436525457,58.284869616086326,82.471036369988724,68.208090254554008,2.537529885834374,2.295481465864214,11.193595021046349,9.679474753294926,12.185588405915041,12.447544500582808.879883874546067,2.208010477550488-.312109751737808,3.767973297917706,0,5.479987083053857-.312109751717799,1.600001931190491.647852344456624,2.912015233530838,0,4.759966682744562-.35996137197435,2.928030877863421-7.464071509075438,8.984092874981798-9.85606658369943,11.120032953047485-35.057989278615423,31.125786504157077-72.201828272378407,61.929463929442136-110.400869011124087,88.84790497693939-6.072070796262778,4.737103020590439-19.199146375014607,13.079098243701083-24.797746673977599,18.040581401028248-6.36863930886102,4.02208281856656-32.358803769029691,20.031664409812947-39.200360352333519,24.760023316192019-178.366314451413928,110.904539656899942-393.342086776196084,170.787765843295347-603.202133218472227,141.846673158393969-159.384590604267032-22.002362331864788-312.379540963534964-87.64117832208467-443.200241818360155-180.67967095028871-43.438251238392695-32.011827400536276-88.313992290922215-64.527462979567645-125.857897269450405-103.213848937997682-.878388866427485-2.209685994557731.313629173894697-3.769648814921311.001617078547497-5.481662600059281.312012095357204-1.600001931189581-.647998829012977-2.912015233530838,0-4.759966682744562,1.979958630020519-6.694844496544647,27.964716985237828-25.993665545746808,33.054988737627355-31.568948079298934,172.983802047373501-149.359225098791285,392.521207922611211-253.158550454930264,623.201809218846392-260.135456740134032Zm588.800710678100586,217.264275908248237c-168.777604124625213-124.101051146119062-364.094616569516802-201.860084389593794-575.20121814369304-202.367024863562619-5.38143804995525.728485661200466-17.687011495121624.909682994303694-23.199830474392002.766361362610951-14.250896938287042,1.307457475041701-36.823726129197894,3.103752379681282-51.200039681220915,4.136300437320642-3.765477248858588.551662501286046-34.272330530929139,5.076867126571415-37.599473325586587,4.896115546762303-6.264267567400566,1.380027330080338-24.099228033055624,4.417804747746231-30.399110376896715,5.055932321300133-3.912465658607289,1.025360915553392-19.901996575435987,4.507096982323674-24.000537367329343,4.847955548894788-141.510201081296145,31.12467297908097-276.633117101170683,96.488290244896234-392.001158879344075,183.464360612269047,91.960306972774561-47.901492983803109,196.510765909189104-89.830700227898888,298.400857106146759-110.927107356049419,22.295366393420409-5.79375654389969,47.869468531789607-9.739223498369938,70.399623463710668-14.320862054848476,5.000351458483237.161252854389204,26.623505328879219-4.05398984023941,32.000908602400159-4.920255505415298,14.305836766999164-.753187760878063,40.948583949710155-5.86871397383311,55.199371305188834-5.967313180053679,15.643093929638781-1.085111190029238,50.442405148190119-5.47346510962052,65.60043211618995-4.664324206250058,17.113694706399656-1.209199855181396,40.290379573513746-1.789037736792125,57.599497859593612-1.600294639128151,13.611890902200685,1.334619462036244,41.552878115748172.968355369372148,55.200082925966854,2.327889395580314,38.188974946344388,3.479224522497134,84.848291026997686,6.896144515319975,122.399951952542324,14.120452911383836,62.073728823486817,8.473230334186155,135.336033600271548,28.497173378579646,195.200708426189522,47.303341138008363,50.646120049048477,17.429978363720693,102.043289051989632,37.739064591560236,149.599892452311906,62.664835975683673.000003414361345-.000366146494343,17.600024657544054,9.095640926084343,17.600024657507674,9.095640926077976,3.271976605499731,1.855959271378197,11.024036743432589,6.8960044171763,14.400017380714417,6.087995629415673Zm-596.000719368457794-125.528178855332953c-16.631637439111728,1.907240187219941-39.744424064992927,1.000264982070803-56.000154932372425,4.311384257067402-76.546016052746381,35.232349737519144-129.107638546225644,114.661764710158423-131.999244244098008,198.816899789845593,1.281227303888045,76.427104466850324,43.387040712752423,148.409464326904526,107.999741349136457,188.863799487174219,5.487556173029589,3.584468142633341,18.92761145757504,11.440434655976787,24.799591201262047,13.448444892130283,3.00000362098217,1.032032495657404,14.64806455510552,1.551954998198198,18.400022208690643,1.720021607303352,3.478773643658315.739080379136794,10.83568863441451.855376888905084,14.400030037018041.767843968669695,42.553692707333539,3.15134038362703,92.784172913868133,1.640783172018928,135.200180428507338-2.232387716128869,60.856076833088082-27.286444708530325,106.473376445812391-82.103331008658643,125.255740407554185-145.767492838444014,30.217264407103357-101.226593179056181-30.681474820856238-214.156443330233742-125.256285027757258-256.168554083385061-35.727266723019056-3.498830558442023-76.923306780785424-4.212120318431516-112.79962142794102-3.7599593642326Zm-94.400113940238953,7.12803594723664c-186.157218727032159,19.902049934659772-371.180586034436601,80.956011293737902-524.800633430480957,189.600228846073151v1.600001931190491c8.23322494248805,5.127116122217558,8.210507863798739,7.683655766471929,0,12.800015449523926v1.600001931190491c153.627829792411831,108.647622875649176,338.637660094675994,169.695688462225007,524.800633430480957,189.600228846073151-62.400629080798353-46.639706226160342-102.335929378534274-107.403111173858633-108.799464526296106-186.401067028289617-.388874823656806-15.690048392618337-.05840959420766-35.314586835189402,4.160606181687399-50.398999969670513,1.053066618535013-8.799910599364921,4.903136655630988-20.263276463999318,7.110963728321622-28.800188892590995,16.492054339355491-52.915653134294189,53.789388738481648-96.922204262305058,97.527894616287085-129.600221113500083Zm772.000931799411774,189.600228846073151c-153.627846209430572-108.647623602853855-338.637658744415603-169.695687827828806-524.800633430480957-189.600228846073151,62.400629080937506,46.639706226304952,102.335929378477886,107.403111173807702,108.799464526297015,186.401067028290527.388907207290686,15.690042286535572.058331358733994,35.314584194112285-4.160557397595767,50.398999968637327-1.053125012327655,8.799901764126844-4.903186208126499,20.263274846158311-7.111012501187361,28.80018889443636-16.492054350535909,52.915653133481101-53.789388749743011,96.922204261494699-97.527894627513888,129.600221112686995,186.157219966169578-19.902050529801272,371.180569737600308-80.95601061258094,524.800633430480957-189.600228846073151v-1.600001931190491c-8.233190651792029-5.127160087704397-8.210473217637627-7.683612002214431,0-12.800015449523926v-1.600001931190491Zm-1215.201466739177704-70.400084972381592h-.800000965595245l.800000965595245.800000965595245v-.800000965595245Zm1134.401369214057922,0h-.800000965595245l.800000965595245.800000965595245v-.800000965595245Zm-1136.801372110843658,1.600001931190491h-.800000965595245l.800000965595245.800000965595245v-.800000965595245Zm1139.201375007629395,0h-.800000965595245l.800000965595245.800000965595245v-.800000965595245Zm-1139.201375007629395,152.800184428691864h-.800000965595245l.800000965595245.800000965595245v-.800000965595245Zm1139.201375007629395,0h-.800000965595245l.800000965595245.800000965595245v-.800000965595245Zm-1136.801372110843658,1.600001931190491h-.800000965595245l.800000965595245.800000965595245v-.800000965595245Zm1134.401369214057922,0h-.800000965595245l.800000965595245.800000965595245v-.800000965595245Zm-1133.601368248462677.800000965595245l-.800000965595245.800000965595245c168.777504336885613,124.100984165286718,364.09467891859731,201.860168264640379,575.201218141866775,202.366976071589306,5.381439742192015-.728435178474683,17.687014498575081-.909628155728569,23.199830474515693-.766312587951688,14.250890948947927-1.307522381750459,36.823737245427765-3.103655898848956,51.2000396729145-4.136349378955856,3.765479411746128-.551662694944753,34.272335317016768-5.076782407499195,37.599473335487346-4.896115428166013,6.264264482006183-1.380030794452978,24.099223391196574-4.417810749657292,30.399110377331453-5.055883461551275,3.912476007863006-1.025344191419208,19.902010476494979-4.507016994617516,24.000537363928743-4.848004442803358,141.51025950256917-31.124520949184443,276.63309140866113-96.488298849741113,392.001158882418167-183.464311737756361-117.026473183959752,61.764774655834117-245.684287238853358,106.594086255001457-376.800981142532692,125.951203153041206-37.496629732630026,7.215522857701217-84.232782875131306,10.65967887197985-122.399586746105342,14.120682894699712-5.992785050297243.820434167217172-36.481698429655808,1.368354520611319-43.200263593136697,1.528122328421887-13.938416404027521,1.288978823904472-36.462488139937705,1.057101683136352-50.39988551544775-.031863815385805-9.827192303761876.179495158479767-23.578220924579-1.197009402652839-33.600047180594629-.767566601727594-20.52198361632145-1.549001805044099-46.635820110362147-4.483431668797493-67.200085185072567-5.736726838136747-4.60486150435645-.62522064316363-35.039173705219582-5.115455505863792-39.199884108463266-4.895664794405093-4.943513174988766-.924133744005303-27.096546421837957-4.962255084807111-31.999824184198587-4.919822925028711-128.017501834462564-21.988545342639554-253.771001546469051-62.854566548432558-368.000809627315903-125.248363401478855Z"/>
</svg>