<?xml version="1.0" encoding="UTF-8"?><svg id="Layer_1" xmlns="http://www.w3.org/2000/svg" xmlns:xlink="http://www.w3.org/1999/xlink" viewBox="0 0 256 256"><defs><clipPath id="clippath"><circle cx="128" cy="128" r="128" style="fill:none;"/></clipPath><linearGradient id="linear-gradient" x1="167.66" y1="91.05" x2="426.74" y2="91.05" gradientTransform="translate(-169.6 219.04) scale(1 -1)" gradientUnits="userSpaceOnUse"><stop offset="0" stop-color="#891d41"/><stop offset=".17" stop-color="#931f40"/><stop offset=".47" stop-color="#ae233e"/><stop offset=".85" stop-color="#da293a"/><stop offset="1" stop-color="#ed2c38"/></linearGradient></defs><g id="DBD_icon_300x300"><g style="clip-path:url(#clippath);"><g><rect x="-1.94" y="-1.55" width="259.08" height="259.08" style="fill:url(#linear-gradient);"/><path d="M171.11,142.57c-5.96-6.16-14.19-9.61-22.76-9.52-.67,0-1.21-.54-1.21-1.21,0-.67,.54-1.21,1.21-1.21,8.56,.17,16.81-3.23,22.76-9.39,12.56-12.33,12.74-32.5,.41-45.06-.14-.14-.27-.28-.41-.41-5.96-6.16-14.19-9.6-22.76-9.51H81.45c7.85,3.61,14.97,8.63,21.01,14.79,3.22,3.23,6.14,6.75,8.72,10.51h27.78c3.63,.13,6.47,3.19,6.34,6.82-.13,3.45-2.89,6.21-6.34,6.34h-20.57c3.48,8.51,5.23,17.63,5.17,26.82,.07,9.18-1.65,18.29-5.07,26.81h20.47c3.63,.13,6.47,3.19,6.34,6.82-.13,3.45-2.89,6.21-6.34,6.34h-26.99c-2.74,3.98-5.85,7.69-9.28,11.1-6.22,6.36-13.56,11.51-21.65,15.21h67.3c8.56,.18,16.81-3.23,22.76-9.39,12.55-12.32,12.74-32.48,.42-45.04-.14-.14-.28-.28-.42-.42" style="fill:#fff;"/><path d="M98.68,84.98c-12.97-13.09-28.71-19.74-46.68-19.74h-16.5v61.73h31.79c2.67,0,5.07,1.95,5.3,4.61,.26,3-2.1,5.51-5.04,5.51H35.5v61.73h16.5c18.12,0,33.83-6.57,46.68-19.53,12.99-13.1,19.57-29.01,19.57-47.28s-6.58-33.99-19.57-47.09" style="fill:#fff;"/><path d="M215.34,85.62c-12.8-12.85-28.22-19.37-45.92-19.37h-1.3c2.32,1.5,4.47,3.25,6.43,5.2,14.77,14.54,14.96,38.3,.43,53.07-.14,.14-.28,.29-.43,.43h11.32c3.63,.13,6.47,3.19,6.34,6.82-.13,3.45-2.89,6.21-6.34,6.34h-11.53l.13,.13c15.03,14.78,15.23,38.95,.44,53.98-.15,.15-.29,.3-.44,.44-1.95,1.94-4.1,3.66-6.41,5.16h1.36c18.07,0,33.1-6.27,45.92-19.17,12.82-12.9,19.26-28.48,19.26-46.43s-6.48-33.38-19.26-46.24" style="fill:#fff;"/></g></g></g></svg>