<?xml version="1.0" encoding="UTF-8"?>
<!DOCTYPE svg PUBLIC "-//W3C//DTD SVG 1.1//EN" "http://www.w3.org/Graphics/SVG/1.1/DTD/svg11.dtd">
<svg xmlns="http://www.w3.org/2000/svg" version="1.1" width="256px" height="256px" style="shape-rendering:geometricPrecision; text-rendering:geometricPrecision; image-rendering:optimizeQuality; fill-rule:evenodd; clip-rule:evenodd" xmlns:xlink="http://www.w3.org/1999/xlink">
<g><path style="opacity:0.868" fill="#bf933f" d="M 160.5,29.5 C 163.12,32.491 166.12,35.8243 169.5,39.5C 154.898,32.9131 139.565,29.9131 123.5,30.5C 122.5,28.5 121.5,26.5 120.5,24.5C 134.263,23.1417 147.596,24.8084 160.5,29.5 Z"/></g>
<g><path style="opacity:0.893" fill="#dfbd61" d="M 120.5,24.5 C 121.5,26.5 122.5,28.5 123.5,30.5C 112.559,31.0884 101.892,33.0884 91.5,36.5C 89.6115,35.396 87.9448,34.0627 86.5,32.5C 97.1365,27.3423 108.47,24.6756 120.5,24.5 Z"/></g>
<g><path style="opacity:0.907" fill="#d9b95b" d="M 111.5,40.5 C 111.179,42.0481 110.179,42.7148 108.5,42.5C 107.932,39.4116 107.932,36.4116 108.5,33.5C 109.869,35.7639 110.869,38.0972 111.5,40.5 Z"/></g>
<g><path style="opacity:0.915" fill="#b48331" d="M 160.5,29.5 C 191.648,40.6473 213.315,61.6473 225.5,92.5C 222.833,91.5 220.167,90.5 217.5,89.5C 207.278,67.2785 191.278,50.6119 169.5,39.5C 166.12,35.8243 163.12,32.491 160.5,29.5 Z"/></g>
<g><path style="opacity:0.337" fill="#cea74e" d="M 133.5,34.5 C 139.235,33.8213 140.902,36.1546 138.5,41.5C 137.833,39.8333 137.167,38.1667 136.5,36.5C 134.325,41.3633 133.325,40.6966 133.5,34.5 Z"/></g>
<g><path style="opacity:0.129" fill="#d1ac54" d="M 147.5,40.5 C 145.861,42.6393 143.861,42.9726 141.5,41.5C 140.369,39.9255 140.202,38.2588 141,36.5C 143.036,35.898 144.87,34.898 146.5,33.5C 147.474,35.7427 147.808,38.076 147.5,40.5 Z M 142.5,37.5 C 144.337,37.6395 144.67,38.3061 143.5,39.5C 142.702,39.0431 142.369,38.3764 142.5,37.5 Z"/></g>
<g><path style="opacity:0.913" fill="#eed371" d="M 86.5,32.5 C 87.9448,34.0627 89.6115,35.396 91.5,36.5C 76.4992,43.4979 63.4992,53.1646 52.5,65.5C 50.2254,64.8888 48.5588,63.5554 47.5,61.5C 57.9562,48.3724 70.9562,38.7057 86.5,32.5 Z"/></g>
<g><path style="opacity:0.233" fill="#debd5f" d="M 147.5,40.5 C 148.39,36.3858 150.39,35.7191 153.5,38.5C 153.277,39.9667 152.944,41.4667 152.5,43C 149.738,44.0769 148.072,43.2436 147.5,40.5 Z"/></g>
<g><path style="opacity:0.492" fill="#d7b458" d="M 92.5,47.5 C 92.5,46.8333 92.1667,46.5 91.5,46.5C 91.7373,45.209 91.404,44.209 90.5,43.5C 90.4606,42.4168 90.1272,41.4168 89.5,40.5C 92.0346,39.7467 94.5346,40.08 97,41.5C 98.7142,37.7795 101.047,37.1128 104,39.5C 104.72,41.1124 104.554,42.6124 103.5,44C 100.993,44.0929 98.8259,44.9262 97,46.5C 96,45.1667 95,43.8333 94,42.5C 93.6466,43.6716 93.8132,44.8382 94.5,46C 94.1639,47.0299 93.4972,47.5299 92.5,47.5 Z"/></g>
<g><path style="opacity:0.922" fill="#dfbd61" d="M 90.5,43.5 C 88.871,45.1959 89.2043,46.1959 91.5,46.5C 92.1667,46.5 92.5,46.8333 92.5,47.5C 89.5723,50.3139 87.4056,49.6472 86,45.5C 85.6604,41.0214 87.1604,40.3548 90.5,43.5 Z"/></g>
<g><path style="opacity:0.569" fill="#d6b357" d="M 170.5,45.5 C 169.833,45.5 169.5,45.8333 169.5,46.5C 167.021,45.4176 165.521,46.4176 165,49.5C 164.085,48.6721 163.419,47.6721 163,46.5C 161.667,47.8333 160.333,47.8333 159,46.5C 157.815,48.5593 156.648,48.726 155.5,47C 156.376,44.1636 157.709,41.6636 159.5,39.5C 162.969,42.5792 166.636,44.5792 170.5,45.5 Z M 159.5,42.5 C 161.337,42.6395 161.67,43.3061 160.5,44.5C 159.702,44.0431 159.369,43.3764 159.5,42.5 Z"/></g>
<g><path style="opacity:0.686" fill="#d6b459" d="M 170.5,45.5 C 173.73,45.561 175.563,47.2277 176,50.5C 176.615,48.8839 177.615,47.5505 179,46.5C 180.628,47.8187 180.461,49.1521 178.5,50.5C 182.12,50.9543 184.287,52.9543 185,56.5C 187.778,55.3147 189.278,56.3147 189.5,59.5C 188.417,59.4606 187.417,59.1272 186.5,58.5C 186.167,58.8333 185.833,59.1667 185.5,59.5C 188.192,61.5392 187.858,62.3726 184.5,62C 183.123,59.6922 181.123,58.1922 178.5,57.5C 177.719,56.2713 177.219,54.938 177,53.5C 176.092,55.4386 174.592,56.4386 172.5,56.5C 172.557,55.391 172.89,54.391 173.5,53.5C 172.783,52.6371 171.283,51.9704 169,51.5C 168.36,49.735 168.527,48.0683 169.5,46.5C 170.167,46.5 170.5,46.1667 170.5,45.5 Z M 171.5,47.5 C 173.76,48.2376 173.927,49.2376 172,50.5C 170.272,49.6477 170.105,48.6477 171.5,47.5 Z"/></g>
<g><path style="opacity:0.035" fill="#d4b05a" d="M 73.5,52.5 C 77.2233,53.5241 77.0567,54.8574 73,56.5C 71.4132,55.154 71.5798,53.8206 73.5,52.5 Z"/></g>
<g><path style="opacity:0.874" fill="#ebd06e" d="M 127.5,56.5 C 129.886,57.3733 131.886,58.8733 133.5,61C 133.272,61.3988 132.938,61.5654 132.5,61.5C 131.167,61.8333 131.167,62.1667 132.5,62.5C 132.81,63.7383 133.31,63.7383 134,62.5C 134.464,63.0944 134.631,63.7611 134.5,64.5C 133.105,65.6477 133.272,66.6477 135,67.5C 135.464,66.9056 135.631,66.2389 135.5,65.5C 138.044,66.7079 139.378,68.7079 139.5,71.5C 137.958,70.6993 136.292,70.366 134.5,70.5C 134.5,71.5 134.5,72.5 134.5,73.5C 132.833,73.5 131.167,73.5 129.5,73.5C 129.657,72.1266 129.49,70.7932 129,69.5C 125.613,71.3177 123.613,70.3177 123,66.5C 121.938,65.1007 120.605,64.1007 119,63.5C 106.784,65.6941 95.9505,70.6941 86.5,78.5C 85.8843,77.7978 85.8843,76.7978 86.5,75.5C 98.6134,65.296 112.613,60.796 128.5,62C 127.929,60.7949 127.262,59.6283 126.5,58.5C 105.821,59.6741 88.8207,68.0074 75.5,83.5C 74.5084,83.6716 73.8417,83.3382 73.5,82.5C 87.1987,65.3199 105.199,56.6532 127.5,56.5 Z"/></g>
<g><path style="opacity:0.369" fill="#dab95d" d="M 189.5,59.5 C 192.795,58.1755 194.128,59.5089 193.5,63.5C 195.635,63.147 196.968,63.9803 197.5,66C 196.293,67.3002 195.626,68.8002 195.5,70.5C 194.448,70.6495 193.448,70.4828 192.5,70C 191.333,68.1667 189.833,66.6667 188,65.5C 188.15,63.4944 188.65,61.4944 189.5,59.5 Z M 190.5,63.5 C 192.337,63.6395 192.67,64.3061 191.5,65.5C 190.702,65.0431 190.369,64.3764 190.5,63.5 Z"/></g>
<g><path style="opacity:0.914" fill="#e9cd6b" d="M 103.5,51.5 C 104.506,51.9377 104.506,52.6043 103.5,53.5C 102.733,54.172 102.066,55.0053 101.5,56C 103.391,56.2027 105.057,55.7027 106.5,54.5C 107.167,54.5 107.833,54.5 108.5,54.5C 109.791,54.7373 110.791,54.404 111.5,53.5C 112.167,53.5 112.833,53.5 113.5,53.5C 114.791,53.7373 115.791,53.404 116.5,52.5C 116.833,52.5 117.167,52.5 117.5,52.5C 118.833,52.5 120.167,52.5 121.5,52.5C 122.167,53.1667 122.833,53.8333 123.5,54.5C 102.827,56.2206 85.8267,64.8873 72.5,80.5C 71.8333,80.1667 71.1667,79.8333 70.5,79.5C 70.1667,78.1667 69.8333,78.1667 69.5,79.5C 68.8333,79.5 68.5,79.8333 68.5,80.5C 67.8333,80.5 67.5,80.8333 67.5,81.5C 66.5041,81.5858 65.6708,81.2524 65,80.5C 64.5045,82.4727 64.3379,84.4727 64.5,86.5C 63.8333,86.5 63.5,86.8333 63.5,87.5C 62.6618,87.8417 62.3284,88.5084 62.5,89.5C 61.6618,89.8417 61.3284,90.5084 61.5,91.5C 61.1667,91.5 60.8333,91.5 60.5,91.5C 58.2947,89.6366 56.9613,87.3033 56.5,84.5C 57.2504,81.4519 59.2504,79.7852 62.5,79.5C 61.5721,78.2322 61.4054,76.8989 62,75.5C 64.3745,73.461 66.3745,71.1277 68,68.5C 69.6667,67.1667 71.3333,67.1667 73,68.5C 73.5,68 74,67.5 74.5,67C 73.4829,65.9505 73.3162,64.7839 74,63.5C 77.0674,60.7625 80.4007,58.4292 84,56.5C 85.0567,57.6274 86.2234,58.1274 87.5,58C 87.5943,56.5778 87.9276,55.0778 88.5,53.5C 91.2837,52.6083 93.9504,51.4416 96.5,50C 99.0953,49.3996 101.429,49.8996 103.5,51.5 Z M 75.5,72.5 C 74.1128,69.6883 75.1128,68.8549 78.5,70C 77.6266,71.045 76.6266,71.8783 75.5,72.5 Z M 88.5,62.5 C 87.7324,59.4686 88.7324,58.9686 91.5,61C 90.7562,62.0386 89.7562,62.5386 88.5,62.5 Z M 103.5,53.5 C 104.391,54.1098 105.391,54.4431 106.5,54.5C 105.057,55.7027 103.391,56.2027 101.5,56C 102.066,55.0053 102.733,54.172 103.5,53.5 Z"/></g>
<g><path style="opacity:0.557" fill="#d8b657" d="M 200.5,74.5 C 203.719,75.0211 204.719,76.6878 203.5,79.5C 201.738,78.3115 200.738,76.6449 200.5,74.5 Z"/></g>
<g><path style="opacity:0.918" fill="#d9b65a" d="M 47.5,61.5 C 48.5588,63.5554 50.2254,64.8888 52.5,65.5C 43.4369,77.2934 36.7702,90.2934 32.5,104.5C 29.9623,104.169 28.2957,102.836 27.5,100.5C 31.2959,85.9058 37.9625,72.9058 47.5,61.5 Z"/></g>
<g><path style="opacity:0.878" fill="#dab85c" d="M 86.5,75.5 C 85.8843,76.7978 85.8843,77.7978 86.5,78.5C 81.4263,83.6705 77.093,89.3372 73.5,95.5C 70.6325,100.893 68.6325,106.56 67.5,112.5C 66.5,111.833 65.5,111.167 64.5,110.5C 66.1481,104.726 68.4815,99.2261 71.5,94C 70.7471,92.513 69.9138,92.3463 69,93.5C 65.195,100.748 62.695,108.415 61.5,116.5C 60.5084,116.672 59.8417,116.338 59.5,115.5C 60.463,106.778 63.1297,98.6109 67.5,91C 66.5509,90.3828 65.7175,90.5494 65,91.5C 63.878,93.4068 63.0447,95.4068 62.5,97.5C 61.391,97.4431 60.391,97.1098 59.5,96.5C 60.4408,94.9505 61.1075,93.2838 61.5,91.5C 62.3382,91.1583 62.6716,90.4916 62.5,89.5C 63.3382,89.1583 63.6716,88.4916 63.5,87.5C 64.1667,87.5 64.5,87.1667 64.5,86.5C 65.8897,85.1007 66.8897,83.4341 67.5,81.5C 68.1667,81.5 68.5,81.1667 68.5,80.5C 69.1667,80.5 69.5,80.1667 69.5,79.5C 69.8333,79.5 70.1667,79.5 70.5,79.5C 71.1667,79.8333 71.8333,80.1667 72.5,80.5C 71.5244,81.8149 70.5244,83.1482 69.5,84.5C 69.8333,84.8333 70.1667,85.1667 70.5,85.5C 71.735,84.6602 72.735,83.6602 73.5,82.5C 73.8417,83.3382 74.5084,83.6716 75.5,83.5C 74.5876,84.7382 74.4209,86.0715 75,87.5C 78.3358,82.9981 82.1691,78.9981 86.5,75.5 Z"/></g>
<g><path style="opacity:0.99" fill="#dbb85c" d="M 134.5,145.5 C 134.5,152.833 134.5,160.167 134.5,167.5C 129.297,168.757 123.964,168.757 118.5,167.5C 118.5,140.833 118.5,114.167 118.5,87.5C 119.209,86.596 120.209,86.2627 121.5,86.5C 121.5,111.167 121.5,135.833 121.5,160.5C 125.167,161.833 128.833,161.833 132.5,160.5C 131.892,155.056 132.558,150.056 134.5,145.5 Z"/></g>
<g><path style="opacity:1" fill="#c29641" d="M 118.5,87.5 C 118.5,114.167 118.5,140.833 118.5,167.5C 117.178,167.67 116.011,167.337 115,166.5C 114.5,140.169 114.333,113.835 114.5,87.5C 115.833,87.5 117.167,87.5 118.5,87.5 Z"/></g>
<g><path style="opacity:0.988" fill="#b78634" d="M 144.5,90.5 C 144.5,115.167 144.5,139.833 144.5,164.5C 144.44,165.043 144.107,165.376 143.5,165.5C 142.167,140.167 142.167,114.833 143.5,89.5C 144.107,89.6236 144.44,89.9569 144.5,90.5 Z"/></g>
<g><path style="opacity:1" fill="#caa149" d="M 144.5,90.5 C 146.153,90.6596 147.486,91.3263 148.5,92.5C 147.167,115.833 147.167,139.167 148.5,162.5C 147.486,163.674 146.153,164.34 144.5,164.5C 144.5,139.833 144.5,115.167 144.5,90.5 Z"/></g>
<g><path style="opacity:0.934" fill="#d6b056" d="M 56.5,84.5 C 56.9613,87.3033 58.2947,89.6366 60.5,91.5C 59.8855,93.7225 58.5522,95.3892 56.5,96.5C 56.8333,97.1667 57.1667,97.8333 57.5,98.5C 56.2588,103.242 54.2588,107.575 51.5,111.5C 52.5748,114.438 52.7415,117.438 52,120.5C 51.9977,123.051 51.1644,125.051 49.5,126.5C 48.8333,125.167 48.1667,125.167 47.5,126.5C 46.5041,126.586 45.6708,126.252 45,125.5C 44.2093,121.074 44.5427,116.741 46,112.5C 47.2547,111.789 48.4214,110.956 49.5,110C 47.8198,109.653 46.8198,108.653 46.5,107C 47.1476,105.56 47.4809,104.06 47.5,102.5C 48.6005,100.723 49.4338,98.7226 50,96.5C 51.5095,95.9103 53.0095,95.2436 54.5,94.5C 51.9199,92.0444 51.9199,89.5444 54.5,87C 53.2642,85.6125 51.9308,84.4458 50.5,83.5C 50.5,82.8333 50.1667,82.5 49.5,82.5C 48.019,81.5788 46.6856,80.4121 45.5,79C 46.1374,77.2874 47.1374,77.1207 48.5,78.5C 48.7491,74.7508 50.7491,72.9174 54.5,73C 53.9781,72.4387 53.6448,71.772 53.5,71C 54.4394,69.0561 55.7727,67.3894 57.5,66C 57.0426,65.586 56.7093,65.086 56.5,64.5C 58.0453,63.5481 59.712,63.2148 61.5,63.5C 61.147,61.3652 61.9803,60.0319 64,59.5C 65.6793,60.6821 67.1793,62.0154 68.5,63.5C 66.8333,65.3333 65.1667,67.1667 63.5,69C 61.5355,69.624 59.8689,69.124 58.5,67.5C 56.876,68.8689 56.376,70.5355 57,72.5C 59.3515,69.5672 60.3515,69.9006 60,73.5C 58.6012,74.2266 57.1012,74.7266 55.5,75C 56.8898,77.9938 55.8898,79.9938 52.5,81C 54.3502,81.6897 55.6836,82.8564 56.5,84.5 Z M 61.5,64.5 C 62.3764,64.3691 63.0431,64.7025 63.5,65.5C 61.1916,66.8734 60.5249,66.5401 61.5,64.5 Z"/></g>
<g><path style="opacity:0.828" fill="#cfa84f" d="M 169.5,58.5 C 171.834,61.6662 174.667,64.3329 178,66.5C 178.483,67.448 178.649,68.448 178.5,69.5C 176.097,69.607 174.264,68.607 173,66.5C 172.833,66.8333 172.667,67.1667 172.5,67.5C 186.072,79.7426 195.072,94.7426 199.5,112.5C 198.391,112.557 197.391,112.89 196.5,113.5C 196.493,109.446 195.16,106.113 192.5,103.5C 191.053,101.597 189.386,99.9301 187.5,98.5C 183.626,89.4456 177.959,81.6123 170.5,75C 169.255,74.2086 167.922,73.7086 166.5,73.5C 166.5,72.8333 166.167,72.5 165.5,72.5C 161.916,68.696 157.583,65.8627 152.5,64C 147.714,62.4784 143.048,60.9784 138.5,59.5C 138.5,58.8333 138.5,58.1667 138.5,57.5C 147.82,59.161 156.487,62.4943 164.5,67.5C 165.696,67.1543 165.696,66.6543 164.5,66C 162.612,64.6063 160.612,63.4396 158.5,62.5C 158.5,61.5 158.5,60.5 158.5,59.5C 158.833,59.5 159.167,59.5 159.5,59.5C 159.158,58.6618 158.492,58.3284 157.5,58.5C 156.4,57.4415 155.066,56.6082 153.5,56C 152.748,55.3292 152.414,54.4959 152.5,53.5C 153.338,53.1583 153.672,52.4916 153.5,51.5C 153.962,50.1201 154.962,49.4534 156.5,49.5C 160.499,50.833 164.166,52.6663 167.5,55C 166.119,57.1463 166.786,58.313 169.5,58.5 Z M 188.5,92.5 C 190.416,93.6653 191.249,95.332 191,97.5C 189.628,96.0899 188.795,94.4233 188.5,92.5 Z M 185.5,87.5 C 187.25,88.6594 188.25,90.326 188.5,92.5C 186.75,91.3406 185.75,89.674 185.5,87.5 Z M 178.5,78.5 C 181.973,80.6367 184.306,83.6367 185.5,87.5C 182.791,84.7915 180.458,81.7915 178.5,78.5 Z M 174.5,74.5 C 172.804,74.3146 171.471,73.4813 170.5,72C 172.412,71.7207 173.746,72.5541 174.5,74.5 Z M 159.5,59.5 C 161.752,60.3331 163.919,60.3331 166,59.5C 166.242,61.1381 167.075,62.6381 168.5,64C 164.997,63.5818 161.997,62.0818 159.5,59.5 Z"/></g>
<g><path style="opacity:1" fill="#e1c162" d="M 99.5,157.5 C 99.5,137.5 99.5,117.5 99.5,97.5C 102.797,93.2129 107.131,90.5462 112.5,89.5C 112.663,91.8568 112.497,94.1902 112,96.5C 109.443,99.1916 106.609,101.525 103.5,103.5C 102.667,122.491 102.167,141.491 102,160.5C 100.955,159.627 100.122,158.627 99.5,157.5 Z"/></g>
<g><path style="opacity:0.859" fill="#dbb85c" d="M 153.5,51.5 C 153.672,52.4916 153.338,53.1583 152.5,53.5C 150.518,53.9954 148.518,54.4954 146.5,55C 150.165,56.2778 153.832,57.4445 157.5,58.5C 157.5,59.1667 157.833,59.5 158.5,59.5C 158.5,60.5 158.5,61.5 158.5,62.5C 151.976,59.2698 145.143,56.9364 138,55.5C 137.308,56.4368 137.475,57.1034 138.5,57.5C 138.5,58.1667 138.5,58.8333 138.5,59.5C 137.548,60.452 136.548,61.452 135.5,62.5C 139.561,62.6392 143.561,63.1392 147.5,64C 153.946,66.0583 159.946,68.8917 165.5,72.5C 166.167,72.5 166.5,72.8333 166.5,73.5C 174.679,80.8676 181.679,89.2009 187.5,98.5C 189.386,99.9301 191.053,101.597 192.5,103.5C 194.53,109.329 196.03,115.329 197,121.5C 197.722,118.739 197.555,116.073 196.5,113.5C 197.391,112.89 198.391,112.557 199.5,112.5C 199.558,116.73 200.558,120.73 202.5,124.5C 200.974,128.364 200.308,132.364 200.5,136.5C 199.5,136.5 198.5,136.5 197.5,136.5C 198.509,133.473 198.509,130.473 197.5,127.5C 196.52,130.086 196.187,132.753 196.5,135.5C 195.833,134.833 195.167,134.167 194.5,133.5C 195.023,123.675 193.523,114.009 190,104.5C 191.418,111.866 192.252,119.366 192.5,127C 192.829,133.521 191.829,139.687 189.5,145.5C 188.833,145.5 188.167,145.5 187.5,145.5C 194.345,118.37 187.345,95.5364 166.5,77C 159.782,71.7237 152.282,67.8904 144,65.5C 141.379,66.7252 139.879,68.7252 139.5,71.5C 139.378,68.7079 138.044,66.7079 135.5,65.5C 135.5,64.8333 135.167,64.5 134.5,64.5C 134.631,63.7611 134.464,63.0944 134,62.5C 133.31,63.7383 132.81,63.7383 132.5,62.5C 132.5,62.1667 132.5,61.8333 132.5,61.5C 132.938,61.5654 133.272,61.3988 133.5,61C 131.886,58.8733 129.886,57.3733 127.5,56.5C 126.817,54.8235 125.483,54.1568 123.5,54.5C 122.833,53.8333 122.167,53.1667 121.5,52.5C 128.203,52.5594 134.869,52.726 141.5,53C 138.771,52.9953 136.771,51.8287 135.5,49.5C 133.038,50.7156 130.371,51.3823 127.5,51.5C 124.629,51.3823 121.962,50.7156 119.5,49.5C 118.575,50.3569 117.908,51.3569 117.5,52.5C 117.167,52.5 116.833,52.5 116.5,52.5C 115.209,52.2627 114.209,52.596 113.5,53.5C 112.833,53.5 112.167,53.5 111.5,53.5C 110.209,53.2627 109.209,53.596 108.5,54.5C 107.833,54.5 107.167,54.5 106.5,54.5C 105.391,54.4431 104.391,54.1098 103.5,53.5C 104.506,52.6043 104.506,51.9377 103.5,51.5C 103.238,50.0222 103.571,48.6888 104.5,47.5C 108.198,46.6268 111.865,45.6268 115.5,44.5C 116.695,46.297 118.362,47.297 120.5,47.5C 120.753,45.1727 120.086,43.1727 118.5,41.5C 119.855,40.3247 119.688,39.3247 118,38.5C 117.517,39.448 117.351,40.448 117.5,41.5C 115.379,41.6747 113.379,41.3414 111.5,40.5C 111.014,36.491 112.68,34.6577 116.5,35C 117.5,38.3333 118.5,38.3333 119.5,35C 122.587,33.007 124.754,33.507 126,36.5C 130.826,33.12 132.993,34.4534 132.5,40.5C 129.921,40.9167 127.754,40.25 126,38.5C 125.879,40.7271 125.046,42.5604 123.5,44C 127.152,44.4986 130.818,44.6653 134.5,44.5C 134.5,45.5 134.5,46.5 134.5,47.5C 136.638,47.297 138.305,46.297 139.5,44.5C 142.748,45.6454 146.081,46.4787 149.5,47C 150.741,48.6985 152.074,50.1985 153.5,51.5 Z M 121.5,52.5 C 120.167,52.5 118.833,52.5 117.5,52.5C 117.908,51.3569 118.575,50.3569 119.5,49.5C 121.962,50.7156 124.629,51.3823 127.5,51.5C 130.371,51.3823 133.038,50.7156 135.5,49.5C 136.771,51.8287 138.771,52.9953 141.5,53C 134.869,52.726 128.203,52.5594 121.5,52.5 Z M 120.5,36.5 C 122.337,36.6395 122.67,37.3061 121.5,38.5C 120.702,38.0431 120.369,37.3764 120.5,36.5 Z"/></g>
<g><path style="opacity:0.886" fill="#d5b055" d="M 49.5,82.5 C 50.1667,82.5 50.5,82.8333 50.5,83.5C 51.7131,88.0807 50.0464,89.7473 45.5,88.5C 45.1667,89 44.8333,89.5 44.5,90C 45.5089,91.1681 46.5089,92.3348 47.5,93.5C 46.8333,94.1667 46.1667,94.8333 45.5,95.5C 44.9504,98.0361 45.6171,100.369 47.5,102.5C 44.0833,101.924 41.0833,100.591 38.5,98.5C 39.0669,95.6462 40.7335,93.8129 43.5,93C 42.6919,92.6924 42.0253,92.1924 41.5,91.5C 42.9245,88.9464 44.0912,86.2798 45,83.5C 46.3561,82.6198 47.8561,82.2865 49.5,82.5 Z M 41.5,96.5 C 43.337,96.6395 43.6704,97.3061 42.5,98.5C 41.7025,98.0431 41.3691,97.3764 41.5,96.5 Z M 46.5,84.5 C 48.337,84.6395 48.6704,85.3061 47.5,86.5C 46.7025,86.0431 46.3691,85.3764 46.5,84.5 Z"/></g>
<g><path style="opacity:0.906" fill="#efd573" d="M 99.5,97.5 C 99.5,117.5 99.5,137.5 99.5,157.5C 98.2058,156.71 97.0391,155.71 96,154.5C 95.5001,142.171 95.3335,129.838 95.5,117.5C 94.9401,112.695 94.2735,108.029 93.5,103.5C 95.1667,101.167 97.1667,99.1667 99.5,97.5 Z"/></g>
<g><path style="opacity:0.901" fill="#c9a14a" d="M 173.5,53.5 C 172.89,54.391 172.557,55.391 172.5,56.5C 175.144,58.969 177.977,61.3024 181,63.5C 181.684,64.7839 181.517,65.9505 180.5,67C 181,67.5 181.5,68 182,68.5C 183.667,67.1667 185.333,67.1667 187,68.5C 188.626,71.1277 190.626,73.461 193,75.5C 193.595,76.8989 193.428,78.2322 192.5,79.5C 194.567,80.1341 196.4,81.1341 198,82.5C 199.38,85.4282 200.88,88.2616 202.5,91C 202.05,92.2853 201.383,93.452 200.5,94.5C 201.991,95.2436 203.491,95.9103 205,96.5C 206.167,100 207.333,103.5 208.5,107C 208.18,108.653 207.18,109.653 205.5,110C 206.056,110.383 206.389,110.883 206.5,111.5C 205.791,112.404 204.791,112.737 203.5,112.5C 200.938,108.172 198.938,103.506 197.5,98.5C 197.833,97.8333 198.167,97.1667 198.5,96.5C 193.976,92.4501 191.309,87.4501 190.5,81.5C 189.448,81.6495 188.448,81.4828 187.5,81C 184.628,78.4634 182.128,75.6301 180,72.5C 179.383,71.5509 179.549,70.7175 180.5,70C 179.906,69.5357 179.239,69.369 178.5,69.5C 178.649,68.448 178.483,67.448 178,66.5C 174.667,64.3329 171.834,61.6662 169.5,58.5C 170.279,56.323 171.613,54.6563 173.5,53.5 Z"/></g>
<g><path style="opacity:0.592" fill="#debd60" d="M 148.5,92.5 C 154.812,95.4783 159.478,100.145 162.5,106.5C 162.5,114.5 162.5,122.5 162.5,130.5C 158.167,130.5 153.833,130.5 149.5,130.5C 149.828,141.346 149.494,152.013 148.5,162.5C 147.167,139.167 147.167,115.833 148.5,92.5 Z M 149.5,102.5 C 155.512,108.187 159.178,115.187 160.5,123.5C 156.833,123.5 153.167,123.5 149.5,123.5C 149.5,116.5 149.5,109.5 149.5,102.5 Z"/></g>
<g><path style="opacity:0.641" fill="#d4b057" d="M 208.5,84.5 C 209.978,84.238 211.311,84.5713 212.5,85.5C 211.998,86.7164 211.665,87.8831 211.5,89C 212.951,88.7374 214.284,88.9041 215.5,89.5C 214.894,91.7094 214.227,93.876 213.5,96C 216.553,97.5808 217.22,99.9141 215.5,103C 212.722,103.923 210.722,103.089 209.5,100.5C 210.875,98.8366 210.542,97.5032 208.5,96.5C 209.263,95.2807 210.263,94.2807 211.5,93.5C 210.284,92.9041 208.951,92.7374 207.5,93C 204.767,89.7284 205.101,86.895 208.5,84.5 Z M 208.5,90.5 C 207.525,88.4599 208.192,88.1266 210.5,89.5C 210.043,90.2975 209.376,90.6309 208.5,90.5 Z"/></g>
<g><path style="opacity:0.99" fill="#d2ad53" d="M 93.5,103.5 C 94.2735,108.029 94.9401,112.695 95.5,117.5C 94.596,118.209 94.2627,119.209 94.5,120.5C 91.8333,120.5 89.1667,120.5 86.5,120.5C 87.4604,114.249 89.7937,108.582 93.5,103.5 Z"/></g>
<g><path style="opacity:0.866" fill="#c69d47" d="M 217.5,89.5 C 220.167,90.5 222.833,91.5 225.5,92.5C 230.012,105.988 231.679,119.655 230.5,133.5C 230.541,129.5 228.541,127.167 224.5,126.5C 224.346,113.731 222.013,101.398 217.5,89.5 Z"/></g>
<g><path style="opacity:0.588" fill="#d0a750" d="M 39.5,110.5 C 38.791,109.596 37.791,109.263 36.5,109.5C 36.5,107.833 36.5,106.167 36.5,104.5C 38.7925,104.244 40.9592,104.577 43,105.5C 43.7995,108.572 42.6329,110.239 39.5,110.5 Z"/></g>
<g><path style="opacity:0.741" fill="#d4ab56" d="M 214.5,110.5 C 212.952,110.179 212.285,109.179 212.5,107.5C 214.734,107.62 216.901,107.287 219,106.5C 220.059,106.63 220.892,107.13 221.5,108C 218.996,108.698 216.663,109.531 214.5,110.5 Z"/></g>
<g><path style="opacity:0.525" fill="#dcbb5d" d="M 39.5,110.5 C 40.2625,111.268 41.2625,111.768 42.5,112C 42.3352,117.009 40.0019,118.509 35.5,116.5C 34.2889,115.28 34.2889,114.113 35.5,113C 34.6919,112.692 34.0253,112.192 33.5,111.5C 35.396,110.534 37.396,110.201 39.5,110.5 Z M 37.5,113.5 C 39.337,113.639 39.6704,114.306 38.5,115.5C 37.7025,115.043 37.3691,114.376 37.5,113.5 Z"/></g>
<g><path style="opacity:1" fill="#b98736" d="M 162.5,106.5 C 166.836,113.795 168.836,121.795 168.5,130.5C 166.5,130.5 164.5,130.5 162.5,130.5C 162.5,122.5 162.5,114.5 162.5,106.5 Z"/></g>
<g><path style="opacity:0.469" fill="#d4b054" d="M 35.5,118.5 C 42.6619,118.613 42.9952,119.613 36.5,121.5C 41.3633,123.675 40.6966,124.675 34.5,124.5C 34.3253,122.379 34.6586,120.379 35.5,118.5 Z"/></g>
<g><path style="opacity:0.62" fill="#d9b65c" d="M 41.5,132.5 C 41.5,133.5 41.5,134.5 41.5,135.5C 39.1193,137.843 39.286,139.843 42,141.5C 42.5946,142.899 42.4279,144.232 41.5,145.5C 41.9767,146.478 42.6433,147.311 43.5,148C 40.6854,149.958 37.6854,150.458 34.5,149.5C 36.2199,148.066 38.2199,147.233 40.5,147C 35.3133,146.365 34.3133,144.031 37.5,140C 36.5838,139.626 35.7504,139.126 35,138.5C 33.5742,135.931 33.7408,133.764 35.5,132C 33.0485,129.039 33.7152,126.872 37.5,125.5C 39.7394,125.574 40.7394,126.741 40.5,129C 40.2451,130.326 39.5784,131.326 38.5,132C 39.448,132.483 40.448,132.649 41.5,132.5 Z M 36.5,135.5 C 38.337,135.639 38.6704,136.306 37.5,137.5C 36.7025,137.043 36.3691,136.376 36.5,135.5 Z"/></g>
<g><path style="opacity:0.331" fill="#dbb85c" d="M 214.5,110.5 C 217.59,109.83 219.257,110.997 219.5,114C 219.245,115.326 218.578,116.326 217.5,117C 218.416,117.374 219.25,117.874 220,118.5C 221.426,121.069 221.259,123.236 219.5,125C 221.825,130.154 220.158,132.321 214.5,131.5C 214.083,128.921 214.75,126.754 216.5,125C 214.273,124.879 212.44,124.046 211,122.5C 210.803,124.861 209.636,126.528 207.5,127.5C 208.242,128.287 209.075,128.953 210,129.5C 210.667,132.833 210.667,136.167 210,139.5C 208.95,142.379 207.45,144.379 205.5,145.5C 204.508,145.672 203.842,145.338 203.5,144.5C 201.952,138.55 202.619,132.883 205.5,127.5C 202.77,122.653 202.103,117.653 203.5,112.5C 204.791,112.737 205.791,112.404 206.5,111.5C 207.496,111.414 208.329,111.748 209,112.5C 209.822,114.788 210.489,117.122 211,119.5C 212.741,117.958 214.574,117.124 216.5,117C 215.552,116.517 214.552,116.351 213.5,116.5C 213.325,114.379 213.659,112.379 214.5,110.5 Z M 216.5,119.5 C 218.337,119.639 218.67,120.306 217.5,121.5C 216.702,121.043 216.369,120.376 216.5,119.5 Z M 213.5,119.5 C 214.773,120.077 214.773,120.743 213.5,121.5C 212.537,121.03 212.537,120.363 213.5,119.5 Z"/></g>
<g><path style="opacity:0.893" fill="#bf9440" d="M 27.5,100.5 C 28.2957,102.836 29.9623,104.169 32.5,104.5C 30.3354,117.785 30.0021,131.118 31.5,144.5C 29.4268,142.42 27.0934,140.754 24.5,139.5C 23.0555,126.285 24.0555,113.285 27.5,100.5 Z"/></g>
<g><path style="opacity:0.518" fill="#c89e47" d="M 214.5,132.5 C 216.5,132.5 218.5,132.5 220.5,132.5C 221.179,138.235 218.845,139.902 213.5,137.5C 215.167,136.833 216.833,136.167 218.5,135.5C 216.668,134.943 215.335,133.943 214.5,132.5 Z"/></g>
<g><path style="opacity:0.482" fill="#d6af55" d="M 214.5,146.5 C 212.361,144.861 212.027,142.861 213.5,140.5C 215.074,139.369 216.741,139.202 218.5,140C 219.102,142.036 220.102,143.87 221.5,145.5C 219.257,146.474 216.924,146.808 214.5,146.5 Z M 215.5,141.5 C 217.337,141.639 217.67,142.306 216.5,143.5C 215.702,143.043 215.369,142.376 215.5,141.5 Z"/></g>
<g><path style="opacity:0.99" fill="#b78634" d="M 134.5,145.5 C 136.5,145.5 138.5,145.5 140.5,145.5C 140.83,152.532 140.497,159.532 139.5,166.5C 137.929,167.309 136.262,167.643 134.5,167.5C 134.5,160.167 134.5,152.833 134.5,145.5 Z"/></g>
<g><path style="opacity:0.298" fill="#d8b457" d="M 214.5,146.5 C 215.531,147.249 216.698,147.915 218,148.5C 218.783,150.319 218.283,151.652 216.5,152.5C 215.033,152.277 213.533,151.944 212,151.5C 210.923,148.738 211.756,147.072 214.5,146.5 Z"/></g>
<g><path style="opacity:0.712" fill="#c29541" d="M 59.5,96.5 C 60.391,97.1098 61.391,97.4431 62.5,97.5C 55.1028,115.591 54.6028,133.924 61,152.5C 61.3826,151.944 61.8826,151.611 62.5,151.5C 64.7954,154.797 67.462,157.797 70.5,160.5C 75.8548,170.521 83.5215,178.188 93.5,183.5C 95.588,185.336 96.9213,187.669 97.5,190.5C 96.7611,190.369 96.0944,190.536 95.5,191C 99.9044,192.959 104.238,194.792 108.5,196.5C 107.662,196.842 107.328,197.508 107.5,198.5C 73.2128,186.861 55.2128,162.861 53.5,126.5C 53.3735,116.038 55.3735,106.038 59.5,96.5 Z M 91.5,188.5 C 80.3295,182.162 71.6628,173.329 65.5,162C 66.4491,161.383 67.2825,161.549 68,162.5C 73.4537,171.621 80.6204,179.121 89.5,185C 90.8228,185.816 91.4894,186.983 91.5,188.5 Z"/></g>
<g><path style="opacity:0.881" fill="#c89f47" d="M 64.5,110.5 C 65.5,111.167 66.5,111.833 67.5,112.5C 64.8524,121.623 64.8524,130.79 67.5,140C 68.3367,141.587 69.6701,142.42 71.5,142.5C 75.6778,140.511 78.1778,141.845 79,146.5C 82.0083,144.968 83.8417,145.968 84.5,149.5C 83.7366,150.719 82.7366,151.719 81.5,152.5C 82.304,153.941 82.9706,155.441 83.5,157C 81.1204,158.382 79.4537,160.382 78.5,163C 83.4523,171.956 90.7856,177.956 100.5,181C 105.355,185.126 111.021,187.626 117.5,188.5C 117.167,189.5 116.5,190.167 115.5,190.5C 110.547,189.684 105.714,188.35 101,186.5C 99.2785,186.611 99.1118,187.111 100.5,188C 113.293,193.708 126.626,195.542 140.5,193.5C 141.71,193.932 142.71,194.599 143.5,195.5C 127.661,198.046 112.328,196.38 97.5,190.5C 96.9213,187.669 95.588,185.336 93.5,183.5C 87.9426,178.446 82.4426,173.113 77,167.5C 76.6824,163.358 75.8491,159.358 74.5,155.5C 73.407,157.349 72.0737,159.016 70.5,160.5C 67.462,157.797 64.7954,154.797 62.5,151.5C 58.6524,139.606 57.6524,127.606 59.5,115.5C 59.8417,116.338 60.5084,116.672 61.5,116.5C 60.146,127.695 61.146,138.695 64.5,149.5C 71.802,149.315 72.1354,147.315 65.5,143.5C 63.2284,132.581 62.8951,121.581 64.5,110.5 Z M 74.5,155.5 C 74.74,152.707 75.74,152.207 77.5,154C 76.4734,154.513 75.4734,155.013 74.5,155.5 Z M 74.5,147.5 C 75.7736,148.189 75.7736,149.023 74.5,150C 73.5,150.667 72.5,150.667 71.5,150C 72.5707,149.148 73.5707,148.315 74.5,147.5 Z"/></g>
<g><path style="opacity:0.772" fill="#eed471" d="M 194.5,133.5 C 195.167,134.167 195.833,134.833 196.5,135.5C 195.295,144.159 192.628,152.326 188.5,160C 189.332,160.688 189.998,160.521 190.5,159.5C 194.249,152.253 196.583,144.586 197.5,136.5C 198.5,136.5 199.5,136.5 200.5,136.5C 196.838,159.463 185.505,177.463 166.5,190.5C 166.167,189.833 165.833,189.167 165.5,188.5C 171.066,184.435 176.232,179.769 181,174.5C 182.289,172.945 182.956,171.279 183,169.5C 181,172.666 178.5,175.332 175.5,177.5C 175.167,176.833 174.833,176.167 174.5,175.5C 176.666,173.163 178.666,170.663 180.5,168C 179.932,166.396 178.932,165.73 177.5,166C 175.926,167.826 175.093,169.993 175,172.5C 169.767,178.197 163.601,182.53 156.5,185.5C 155.209,185.737 154.209,185.404 153.5,184.5C 160.213,181.05 166.379,176.717 172,171.5C 172.664,168.647 172.164,165.981 170.5,163.5C 170.722,161.945 171.389,160.611 172.5,159.5C 170.599,158.065 170.266,156.398 171.5,154.5C 173.006,153.253 174.506,153.253 176,154.5C 176.687,152.445 177.854,150.779 179.5,149.5C 184.115,152.527 186.781,151.194 187.5,145.5C 188.167,145.5 188.833,145.5 189.5,145.5C 189.613,148.049 188.946,150.382 187.5,152.5C 185.496,154.005 183.663,155.672 182,157.5C 180.7,156.548 179.533,156.548 178.5,157.5C 181.372,158.783 184.205,158.783 187,157.5C 190.759,149.767 193.259,141.767 194.5,133.5 Z"/></g>
<g><path style="opacity:0.894" fill="#dbba5c" d="M 48.5,165.5 C 47.8333,165.5 47.5,165.833 47.5,166.5C 46.209,166.263 45.209,166.596 44.5,167.5C 43.0331,168.292 41.6998,168.292 40.5,167.5C 41.1062,165.291 41.7728,163.124 42.5,161C 38.7795,159.286 38.1128,156.953 40.5,154C 42.1124,153.28 43.6124,153.446 45,154.5C 45.2117,156.78 46.0451,158.78 47.5,160.5C 46.3947,161.892 45.0614,163.059 43.5,164C 44.6716,164.353 45.8382,164.187 47,163.5C 48.0299,163.836 48.5299,164.503 48.5,165.5 Z"/></g>
<g><path style="opacity:0.852" fill="#efd473" d="M 203.5,144.5 C 203.842,145.338 204.508,145.672 205.5,145.5C 207.252,145.418 208.252,146.251 208.5,148C 207.521,150.433 206.855,152.933 206.5,155.5C 205.751,156.531 205.085,157.698 204.5,159C 203.062,159.219 201.729,159.719 200.5,160.5C 201.383,161.548 202.05,162.715 202.5,164C 201.094,165.978 200.094,168.145 199.5,170.5C 198.833,170.5 198.5,170.833 198.5,171.5C 198.5,171.833 198.5,172.167 198.5,172.5C 197.18,173.942 195.514,174.608 193.5,174.5C 193.027,173.094 192.027,172.427 190.5,172.5C 191.601,166.969 194.267,162.302 198.5,158.5C 198.167,157.833 197.833,157.167 197.5,156.5C 198.765,153.204 199.932,149.871 201,146.5C 201.417,145.244 202.25,144.577 203.5,144.5 Z"/></g>
<g><path style="opacity:0.959" fill="#d6b458" d="M 48.5,165.5 C 50.2726,166.314 50.7726,167.648 50,169.5C 48.2544,171.457 46.0878,172.457 43.5,172.5C 43.366,170.708 43.6993,169.042 44.5,167.5C 46.1959,169.129 47.1959,168.796 47.5,166.5C 48.1667,166.5 48.5,166.167 48.5,165.5 Z"/></g>
<g><path style="opacity:0.789" fill="#8b672c" d="M 190.5,172.5 C 192.027,172.427 193.027,173.094 193.5,174.5C 192.833,174.5 192.5,174.833 192.5,175.5C 190.973,175.573 189.973,174.906 189.5,173.5C 190.167,173.5 190.5,173.167 190.5,172.5 Z"/></g>
<g><path style="opacity:0.937" fill="#d9b457" d="M 203.5,177.5 C 203.5,176.833 203.167,176.5 202.5,176.5C 200.861,175.527 199.527,174.194 198.5,172.5C 198.5,172.167 198.5,171.833 198.5,171.5C 199.167,171.5 199.5,171.167 199.5,170.5C 200.859,171.007 201.859,172.007 202.5,173.5C 202.269,171.704 202.935,169.871 204.5,168C 206.112,167.28 207.612,167.446 209,168.5C 209.167,168 209.333,167.5 209.5,167C 208.491,165.832 207.491,164.665 206.5,163.5C 209.028,160.816 209.028,158.15 206.5,155.5C 209.987,154.662 212.987,155.662 215.5,158.5C 214.905,160.893 213.572,162.727 211.5,164C 212.022,164.561 212.355,165.228 212.5,166C 210.937,168.294 209.77,170.794 209,173.5C 207.933,174.191 206.766,174.691 205.5,175C 206.728,175.779 207.728,176.779 208.5,178C 208.167,178.5 207.833,179 207.5,179.5C 206.378,178.37 205.044,177.703 203.5,177.5 Z M 205.5,169.5 C 207.76,170.238 207.927,171.238 206,172.5C 205.517,171.552 205.351,170.552 205.5,169.5 Z M 210.5,158.5 C 212.337,158.639 212.67,159.306 211.5,160.5C 210.702,160.043 210.369,159.376 210.5,158.5 Z"/></g>
<g><path style="opacity:0.907" fill="#b07e2e" d="M 24.5,139.5 C 27.0934,140.754 29.4268,142.42 31.5,144.5C 41.2722,186.772 67.2722,212.939 109.5,223C 114.78,224.095 120.113,224.595 125.5,224.5C 126.744,228.412 129.411,230.412 133.5,230.5C 92.2725,231.968 60.4392,215.301 38,180.5C 30.5929,167.779 26.0929,154.112 24.5,139.5 Z"/></g>
<g><path style="opacity:0.792" fill="#d7b358" d="M 202.5,176.5 C 203.167,176.5 203.5,176.833 203.5,177.5C 205.072,181.28 203.738,183.28 199.5,183.5C 199.5,182.833 199.167,182.5 198.5,182.5C 196.406,178.201 197.74,176.201 202.5,176.5 Z"/></g>
<g><path style="opacity:0.941" fill="#debc68" d="M 51.5,177.5 C 54.7195,178.021 55.7195,179.688 54.5,182.5C 52.7377,181.312 51.7377,179.645 51.5,177.5 Z"/></g>
<g><path style="opacity:0.89" fill="#eacf6d" d="M 224.5,126.5 C 228.541,127.167 230.541,129.5 230.5,133.5C 228.704,164.094 216.037,189.094 192.5,208.5C 190.445,207.441 189.111,205.775 188.5,203.5C 212.053,183.387 224.053,157.72 224.5,126.5 Z"/></g>
<g><path style="opacity:0.192" fill="#d1ab50" d="M 198.5,182.5 C 199.167,182.5 199.5,182.833 199.5,183.5C 200.084,186.285 199.084,187.952 196.5,188.5C 198.03,184.525 197.197,183.859 194,186.5C 192.287,185.863 192.121,184.863 193.5,183.5C 195.045,182.548 196.712,182.215 198.5,182.5 Z"/></g>
<g><path style="opacity:0.869" fill="#bc8f3b" d="M 49.5,126.5 C 52.2162,131.898 52.8829,137.564 51.5,143.5C 54.2588,147.425 56.2588,151.758 57.5,156.5C 57.1667,157.167 56.8333,157.833 56.5,158.5C 61.179,162.858 64.0123,168.192 65,174.5C 65.7175,173.549 66.5509,173.383 67.5,174C 70.372,176.537 72.872,179.37 75,182.5C 75.6172,183.449 75.4506,184.282 74.5,185C 78.9146,186.059 82.9146,188.059 86.5,191C 87.9247,192.362 88.758,193.862 89,195.5C 94.6853,195.083 99.5186,197.083 103.5,201.5C 108.194,200.863 112.86,201.363 117.5,203C 118.252,203.671 118.586,204.504 118.5,205.5C 117.662,205.842 117.328,206.508 117.5,207.5C 117.585,208.995 116.919,209.995 115.5,210.5C 111.865,209.373 108.198,208.373 104.5,207.5C 103.833,206.167 103.167,204.833 102.5,203.5C 100.809,205.256 98.8087,205.756 96.5,205C 93.9504,203.558 91.2837,202.392 88.5,201.5C 87.9276,199.922 87.5943,198.422 87.5,197C 86.2234,196.873 85.0567,197.373 84,198.5C 80.9279,197.047 78.0946,195.213 75.5,193C 73.8864,190.907 73.0531,188.74 73,186.5C 71.6124,187.554 70.1124,187.72 68.5,187C 66.7068,184.205 64.5402,181.705 62,179.5C 61.4054,178.101 61.5721,176.768 62.5,175.5C 58.2324,174.4 55.3991,171.734 54,167.5C 51.895,164.989 52.0617,162.656 54.5,160.5C 53.0095,159.756 51.5095,159.09 50,158.5C 48.8333,155 47.6667,151.5 46.5,148C 46.8198,146.347 47.8198,145.347 49.5,145C 48.8742,144.25 48.3742,143.416 48,142.5C 47.3333,143.833 46.6667,143.833 46,142.5C 45.8905,139.354 44.5572,138.354 42,139.5C 41.9378,137.885 41.7711,136.552 41.5,135.5C 41.5,134.5 41.5,133.5 41.5,132.5C 42.4959,132.414 43.3292,132.748 44,133.5C 44.1736,130.54 45.3403,128.206 47.5,126.5C 48.1667,125.167 48.8333,125.167 49.5,126.5 Z"/></g>
<g><path style="opacity:0.675" fill="#dcba5d" d="M 189.5,173.5 C 189.973,174.906 190.973,175.573 192.5,175.5C 193.412,176.738 193.579,178.072 193,179.5C 190.46,181.705 188.293,184.205 186.5,187C 184.888,187.72 183.388,187.554 182,186.5C 181.5,187 181,187.5 180.5,188C 181.517,189.049 181.684,190.216 181,191.5C 177.933,194.237 174.599,196.571 171,198.5C 169.943,197.373 168.777,196.873 167.5,197C 167.406,198.422 167.072,199.922 166.5,201.5C 163.716,202.392 161.05,203.558 158.5,205C 156.191,205.756 154.191,205.256 152.5,203.5C 151.893,203.624 151.56,203.957 151.5,204.5C 150.596,203.791 150.263,202.791 150.5,201.5C 152.054,200.307 153.721,199.14 155.5,198C 155,197.5 154.5,197 154,196.5C 138.7,202.248 123.2,202.915 107.5,198.5C 107.328,197.508 107.662,196.842 108.5,196.5C 123.191,199.695 137.691,199.028 152,194.5C 154,193.833 154,193.167 152,192.5C 149.101,193.41 146.267,194.41 143.5,195.5C 142.71,194.599 141.71,193.932 140.5,193.5C 145.14,192.559 149.473,190.726 153.5,188C 145.42,190.314 137.086,191.814 128.5,192.5C 123.964,192.229 119.631,191.562 115.5,190.5C 116.5,190.167 117.167,189.5 117.5,188.5C 129.881,190.56 141.881,189.226 153.5,184.5C 154.209,185.404 155.209,185.737 156.5,185.5C 156.735,186.097 157.235,186.43 158,186.5C 164.188,183.803 169.688,180.136 174.5,175.5C 174.833,176.167 175.167,176.833 175.5,177.5C 170.78,182.371 165.446,186.538 159.5,190C 161.506,189.85 163.506,189.35 165.5,188.5C 165.833,189.167 166.167,189.833 166.5,190.5C 158.993,193.337 158.826,195.004 166,195.5C 166.242,193.862 167.075,192.362 168.5,191C 172.085,188.059 176.085,186.059 180.5,185C 180.043,184.586 179.709,184.086 179.5,183.5C 181.876,179.124 185.21,175.79 189.5,173.5 Z"/></g>
<g><path style="opacity:0.494" fill="#d8b656" d="M 196.5,188.5 C 196.66,190.199 196.494,191.866 196,193.5C 195.667,193.167 195.333,192.833 195,192.5C 193.209,194.413 191.209,196.08 189,197.5C 184.23,194.287 184.397,191.287 189.5,188.5C 191.771,187.637 194.105,187.637 196.5,188.5 Z M 189.5,191.5 C 191.846,188.623 192.679,188.956 192,192.5C 191.329,191.748 190.496,191.414 189.5,191.5 Z"/></g>
<g><path style="opacity:0.941" fill="#cfb05a" d="M 179.5,199.5 C 180.478,199.811 181.145,200.478 181.5,201.5C 180.24,202.382 179.074,203.382 178,204.5C 177.308,203.975 176.808,203.308 176.5,202.5C 177.77,201.712 178.77,200.712 179.5,199.5 Z"/></g>
<g><path style="opacity:0.616" fill="#d3b055" d="M 87.5,209.5 C 86.8333,209.5 86.5,209.833 86.5,210.5C 82.9558,210.761 81.1225,209.095 81,205.5C 80.3848,207.116 79.3848,208.449 78,209.5C 76.049,207.863 76.2157,206.363 78.5,205C 76.8333,204.667 75.1667,204.333 73.5,204C 72.6634,202.989 72.33,201.822 72.5,200.5C 69.1667,199.5 65.8333,198.5 62.5,197.5C 62.5,196.167 62.5,194.833 62.5,193.5C 63.552,193.649 64.552,193.483 65.5,193C 66.8333,192.333 66.8333,191.667 65.5,191C 64.1696,191.077 62.8363,191.577 61.5,192.5C 58.067,191.525 57.7336,189.858 60.5,187.5C 61.723,186.386 63.0563,186.219 64.5,187C 68.7106,189.284 69.3773,192.284 66.5,196C 67.9308,196.465 69.0975,197.299 70,198.5C 71.6279,197.181 71.4613,195.848 69.5,194.5C 70.6507,193.269 71.8173,193.269 73,194.5C 73.3333,195.833 73.6667,197.167 74,198.5C 77.446,197.239 79.446,198.572 80,202.5C 81.0374,199.616 82.8707,198.95 85.5,200.5C 84.91,201.799 83.91,202.632 82.5,203C 87.1986,203.169 88.8653,205.336 87.5,209.5 Z M 84.5,205.5 C 85.7733,206.077 85.7733,206.743 84.5,207.5C 83.537,207.03 83.537,206.363 84.5,205.5 Z"/></g>
<g><path style="opacity:0.906" fill="#cfa74e" d="M 150.5,201.5 C 150.263,202.791 150.596,203.791 151.5,204.5C 151.719,205.675 151.386,206.675 150.5,207.5C 146.802,208.373 143.135,209.373 139.5,210.5C 138.305,208.703 136.638,207.703 134.5,207.5C 134.921,209.91 136.254,211.743 138.5,213C 137.289,213.893 137.289,214.726 138.5,215.5C 140.605,212.242 142.938,211.909 145.5,214.5C 146.17,217.59 145.003,219.257 142,219.5C 140.674,219.245 139.674,218.578 139,217.5C 138.626,218.416 138.126,219.25 137.5,220C 134.931,221.426 132.764,221.259 131,219.5C 125.846,221.825 123.679,220.158 124.5,214.5C 127.079,214.083 129.246,214.75 131,216.5C 131.121,214.273 131.954,212.44 133.5,211C 129.179,210.501 124.846,210.334 120.5,210.5C 120.5,209.5 120.5,208.5 120.5,207.5C 119.5,207.5 118.5,207.5 117.5,207.5C 117.328,206.508 117.662,205.842 118.5,205.5C 124.17,202.928 129.837,202.928 135.5,205.5C 136.287,204.758 136.953,203.925 137.5,203C 141.152,202.103 144.819,201.27 148.5,200.5C 149.416,200.543 150.083,200.876 150.5,201.5 Z M 134.5,212.5 C 135.289,212.783 135.956,213.283 136.5,214C 135.184,214.528 134.517,214.028 134.5,212.5 Z M 134.5,216.5 C 136.337,216.639 136.67,217.306 135.5,218.5C 134.702,218.043 134.369,217.376 134.5,216.5 Z"/></g>
<g><path style="opacity:0.639" fill="#d3ae55" d="M 164.5,205.5 C 168.636,205.481 170.803,207.481 171,211.5C 169.68,211.799 168.18,211.966 166.5,212C 167.784,213.297 167.617,214.464 166,215.5C 162.513,212.169 159.68,212.336 157.5,216C 152.656,216.623 151.322,214.623 153.5,210C 155.112,209.28 156.612,209.446 158,210.5C 158.71,209.027 159.876,208.36 161.5,208.5C 161.281,209.675 161.614,210.675 162.5,211.5C 163.452,210.467 163.452,209.3 162.5,208C 163.056,206.989 163.722,206.156 164.5,205.5 Z M 164.5,208.5 C 165.386,207.224 166.386,207.224 167.5,208.5C 166.451,211.045 165.451,211.045 164.5,208.5 Z"/></g>
<g><path style="opacity:0.816" fill="#d7b35a" d="M 86.5,210.5 C 87.1667,210.5 87.5,210.167 87.5,209.5C 88.1174,209.611 88.6174,209.944 89,210.5C 90,209.167 91,207.833 92,206.5C 92.9147,207.328 93.5814,208.328 94,209.5C 96.124,208.773 98.2906,208.106 100.5,207.5C 100.856,210.632 100.022,213.632 98,216.5C 95.0971,215.931 93.0971,214.265 92,211.5C 90.0361,213.659 88.2028,213.326 86.5,210.5 Z M 95.5,210.5 C 97.7602,211.238 97.9269,212.238 96,213.5C 95.5172,212.552 95.3505,211.552 95.5,210.5 Z"/></g>
<g><path style="opacity:0.739" fill="#cba14b" d="M 117.5,213.5 C 118.999,214.678 119.999,216.345 120.5,218.5C 122.675,213.637 123.675,214.303 123.5,220.5C 118.094,221.265 116.094,218.931 117.5,213.5 Z"/></g>
<g><path style="opacity:0.961" fill="#d8b459" d="M 188.5,203.5 C 189.111,205.775 190.445,207.441 192.5,208.5C 185.261,214.391 177.261,219.058 168.5,222.5C 165.682,222.343 163.682,221.009 162.5,218.5C 171.753,214.54 180.419,209.54 188.5,203.5 Z"/></g>
<g><path style="opacity:0.698" fill="#d8b258" d="M 104.5,211.5 C 106.144,211.286 107.644,211.62 109,212.5C 108.865,214.425 108.698,216.425 108.5,218.5C 103.59,218.424 102.257,216.09 104.5,211.5 Z"/></g>
<g><path style="opacity:0.575" fill="#d6b358" d="M 110.5,212.5 C 112.435,213.15 114.435,213.483 116.5,213.5C 116.5,215.5 116.5,217.5 116.5,219.5C 114.179,219.229 112.179,219.896 110.5,221.5C 109.491,218.527 109.491,215.527 110.5,212.5 Z M 112.5,215.5 C 114.337,215.639 114.67,216.306 113.5,217.5C 112.702,217.043 112.369,216.376 112.5,215.5 Z"/></g>
<g><path style="opacity:0.49" fill="#dab95b" d="M 145.5,214.5 C 145.821,212.952 146.821,212.285 148.5,212.5C 149.205,215.244 149.205,217.911 148.5,220.5C 147.199,218.556 146.199,216.556 145.5,214.5 Z"/></g>
<g><path style="opacity:0.909" fill="#c59b46" d="M 162.5,218.5 C 163.682,221.009 165.682,222.343 168.5,222.5C 157.526,227.698 145.86,230.365 133.5,230.5C 129.411,230.412 126.744,228.412 125.5,224.5C 138.217,224.769 150.55,222.769 162.5,218.5 Z"/></g>
</svg>
