<?xml version="1.0" encoding="UTF-8" standalone="no"?><!DOCTYPE svg PUBLIC "-//W3C//DTD SVG 1.1//EN" "http://www.w3.org/Graphics/SVG/1.1/DTD/svg11.dtd">
<svg height="100%" style="fill-rule:nonzero;clip-rule:evenodd;stroke-linecap:round;stroke-linejoin:round;" xmlns:xlink="http://www.w3.org/1999/xlink" xmlns="http://www.w3.org/2000/svg" xml:space="preserve" width="100%" version="1.1" viewBox="0 0 256 256">
<defs/>
<g id="Layer 1">
<g opacity="1">
<path d="M127.887+46.2389C119.506+46.2389+111.709+46.8938+104.397+48.4029C97.1276+49.9017+90.2631+52.2533+83.6901+55.6522C82.1935+56.4239+80.4131+56.0663+79.3206+54.8909C79.2163+54.7788+43.2257+15.9479+22.6661+20.8163C3.20231+25.4256+12.9439+121.463+12.971+121.739C13.033+122.37+12.9312+122.98+12.7003+123.525C11.064+127.905-28.2451+236.984+127.887+236.984C284.019+236.984+244.709+127.906+243.073+123.525C242.842+122.98+242.741+122.37+242.803+121.739C242.83+121.463+252.572+25.4256+233.108+20.8163C212.548+15.9479+176.557+54.7788+176.454+54.8909C175.361+56.0663+173.58+56.4239+172.084+55.6522C165.511+52.2533+158.647+49.9017+151.378+48.4029C144.064+46.8938+136.268+46.2389+127.887+46.2389" fill-rule="evenodd" fill="#ffffff" opacity="1"/>
<path d="M12.4671+124.17C8.95458+134.12-23.7389+236.984+127.887+236.984C224.046+236.984+246.063+195.613+248.414+162.805C246.891+176.231+233.875+223.213+126.259+223.213C0.160369+223.213+9.64871+139.58+12.4671+124.17" fill-rule="evenodd" fill="#cccccc" opacity="1"/>
<path d="M18.2309+109.405C18.2309+109.405+27.0183+97.2318+37.7112+85.9639C48.404+74.6965+57.2575+69.8679+57.2575+69.8679C57.2575+69.8679+48.2891+71.0171+46.9093+65.3834C45.5297+59.7489+49.0366+56.3261+49.0366+56.3261C49.0366+56.3261+38.2289+55.1762+37.0214+50.3468C35.8135+45.5181+38.2842+39.8273+38.2842+39.8273C38.2842+39.8273+26.6716+33.3305+23.6819+35.1702C20.6923+37.01+18.6233+49.0252+17.7607+52.8771C16.8979+56.7283+16.033+101.799+18.2309+109.405" fill-rule="evenodd" fill="#ff9e9e" opacity="1"/>
<path d="M237.543+109.405C237.543+109.405+228.755+97.2318+218.063+85.9639C207.37+74.6965+198.516+69.8679+198.516+69.8679C198.516+69.8679+207.485+71.0171+208.865+65.3834C210.244+59.7489+206.737+56.3261+206.737+56.3261C206.737+56.3261+217.545+55.1762+218.753+50.3468C219.96+45.5181+217.49+39.8273+217.49+39.8273C217.49+39.8273+229.102+33.3305+232.092+35.1702C235.082+37.01+237.151+49.0252+238.013+52.8771C238.876+56.7283+239.741+101.799+237.543+109.405" fill-rule="evenodd" fill="#ff9e9e" opacity="1"/>
<path d="M127.887+46.2389C124.968+46.2389+122.12+46.3184+119.337+46.4853C119.14+48.6628+119.033+50.9499+119.033+53.3118C119.033+67.7897+122.998+79.5262+127.887+79.5262C132.776+79.5262+136.74+67.7897+136.74+53.3118C136.74+50.9499+136.634+48.6628+136.436+46.4853C133.655+46.3184+130.806+46.2389+127.887+46.2389" fill-rule="evenodd" fill="#b3b3b3" opacity="1"/>
<path d="M157.565+49.916C155.534+49.3383+153.472+48.8352+151.378+48.4029C147.7+47.6439+143.9+47.1012+139.965+46.7483C140.107+60.8583+144.014+72.167+148.813+72.167C153.247+72.167+156.921+62.5129+157.565+49.916" fill-rule="evenodd" fill="#b3b3b3" opacity="1"/>
<path d="M115.81+46.7483C111.874+47.1004+108.075+47.6439+104.397+48.4029C102.301+48.8352+100.239+49.3383+98.2094+49.9168C98.8537+62.5137+102.527+72.167+106.961+72.167C111.761+72.167+115.667+60.8583+115.81+46.7483" fill-rule="evenodd" fill="#b3b3b3" opacity="1"/>
<path d="M67.1789+121.938C75.1794+121.938+81.666+130.321+81.666+140.665C81.666+151.007+75.1794+159.392+67.1789+159.392C59.1778+159.392+52.6914+151.007+52.6914+140.665C52.6914+130.321+59.1778+121.938+67.1789+121.938" fill-rule="evenodd" fill="#000000" opacity="1"/>
<path d="M188.595+121.938C196.596+121.938+203.082+130.321+203.082+140.665C203.082+151.007+196.596+159.392+188.595+159.392C180.594+159.392+174.108+151.007+174.108+140.665C174.108+130.321+180.594+121.938+188.595+121.938" fill-rule="evenodd" fill="#000000" opacity="1"/>
<path d="M126.455+182.616C120.223+182.616+110.71+175.774+110.71+169.012C110.71+164.418+142.202+164.418+142.202+169.012C142.202+175.774+132.689+182.616+126.455+182.616" fill-rule="evenodd" fill="#000000" opacity="1"/>
<path d="M191.654+181.192C190.714+181.572+189.642+181.118+189.261+180.178C188.88+179.238+189.334+178.166+190.275+177.785C190.325+177.764+207.984+170.458+226.657+166.039C227.644+165.809+228.633+166.423+228.863+167.411C229.093+168.4+228.478+169.388+227.491+169.618C209.119+173.966+191.705+181.171+191.654+181.192ZM64.7662+190.701C65.7699+190.559+66.7009+191.257+66.8433+192.261C66.9858+193.265+66.2872+194.196+65.2835+194.338C65.2311+194.345+46.827+196.971+29.2246+202.256C28.2526+202.546+27.2291+201.992+26.9395+201.02C26.6502+200.048+27.2037+199.025+28.1756+198.735C46.0301+193.374+64.7131+190.708+64.7662+190.701ZM65.0081+185.126C66.0083+185.289+66.6872+186.232+66.5244+187.232C66.3617+188.232+65.4194+188.911+64.4187+188.748C64.3686+188.74+46.9006+185.938+28.6714+185.597C27.6597+185.581+26.8523+184.748+26.8678+183.737C26.8833+182.725+27.7171+181.917+28.7288+181.932C47.2573+182.279+64.9575+185.118+65.0081+185.126ZM65.4993+177.785C66.4398+178.166+66.8928+179.238+66.5125+180.178C66.1317+181.118+65.0594+181.572+64.1195+181.192C64.0688+181.171+46.6554+173.966+28.2837+169.618C27.2952+169.388+26.6806+168.4+26.9103+167.411C27.1403+166.423+28.1285+165.809+29.1168+166.039C47.789+170.458+65.448+177.764+65.4993+177.785ZM190.49+194.338C189.486+194.196+188.788+193.265+188.93+192.261C189.073+191.257+190.003+190.559+191.008+190.701C191.06+190.708+209.743+193.374+227.598+198.735C228.571+199.025+229.124+200.048+228.833+201.02C228.544+201.992+227.52+202.546+226.549+202.256C208.947+196.971+190.542+194.345+190.49+194.338ZM191.355+188.748C190.354+188.911+189.411+188.232+189.249+187.232C189.086+186.232+189.765+185.289+190.766+185.126C190.816+185.118+208.516+182.279+227.045+181.932C228.056+181.917+228.89+182.725+228.906+183.737C228.922+184.748+228.113+185.581+227.102+185.597C208.873+185.938+191.405+188.74+191.355+188.748" fill-rule="evenodd" fill="#000000" opacity="1"/>
<path d="M62.3498+128.342C64.976+128.342+67.105+131.614+67.105+135.651C67.105+139.686+64.976+142.959+62.3498+142.959C59.7231+142.959+57.5944+139.686+57.5944+135.651C57.5944+131.614+59.7231+128.342+62.3498+128.342" fill-rule="evenodd" fill="#ffffff" opacity="1"/>
<path d="M193.425+128.342C196.05+128.342+198.179+131.614+198.179+135.651C198.179+139.686+196.05+142.959+193.425+142.959C190.798+142.959+188.669+139.686+188.669+135.651C188.669+131.614+190.798+128.342+193.425+128.342" fill-rule="evenodd" fill="#ffffff" opacity="1"/>
<path d="M127.887+46.2389C119.506+46.2389+111.709+46.8938+104.397+48.4029C97.1276+49.9017+90.2631+52.2533+83.6901+55.6522C82.1935+56.4239+80.4131+56.0663+79.3206+54.8909C79.2163+54.7788+43.2257+15.9479+22.6661+20.8163C3.20231+25.4256+12.9439+121.463+12.971+121.739C13.033+122.37+12.9312+122.98+12.7003+123.526C11.0633+127.906-28.2448+236.984+127.887+236.984C284.019+236.984+244.71+127.906+243.073+123.525C242.842+122.98+242.741+122.37+242.803+121.739C242.83+121.463+252.572+25.4256+233.108+20.8163C212.548+15.9479+176.557+54.7788+176.454+54.8909C175.361+56.0663+173.58+56.4239+172.084+55.6522C165.511+52.2533+158.647+49.9017+151.378+48.4029C144.064+46.8938+136.268+46.2389+127.887+46.2389ZM130.135+194.277C134.423+197.109+147.165+204.307+155.36+196.112C156.796+194.676+159.126+194.676+160.562+196.112C161.999+197.548+161.999+199.878+160.562+201.314C148.811+213.065+132.351+204.399+126.455+200.633C120.56+204.4+104.101+213.065+92.3498+201.314C90.9128+199.878+90.9128+197.548+92.3498+196.112C93.7856+194.676+96.1161+194.676+97.552+196.112C105.747+204.307+118.489+197.109+122.777+194.277L122.777+182.616C122.777+180.585+124.424+178.937+126.455+178.937C128.488+178.937+130.135+180.585+130.135+182.616L130.135+194.277ZM196.74+72.0973C194.74+71.7879+193.37+69.9148+193.679+67.9153C193.988+65.9151+195.861+64.545+197.861+64.8541C200.69+65.2912+202.894+65.1315+204.43+64.541C205.194+64.2478+205.728+63.8576+206.017+63.4086C206.244+63.0541+206.326+62.5884+206.251+62.0393C206.12+61.092+205.572+59.9619+204.568+58.7102C203.299+57.1312+203.549+54.8201+205.129+53.551C205.822+52.9931+206.656+52.7293+207.481+52.7412C210.227+52.6514+212.285+52.2119+213.718+51.4895C214.544+51.0723+215.11+50.5796+215.435+50.0289C215.761+49.4758+215.905+48.7756+215.882+47.9571C215.841+46.4909+215.287+44.7162+214.281+42.7207C213.523+41.2172+213.897+39.4386+215.084+38.357C215.866+37.6203+225.055+29.1877+233.267+31.4256C238.031+32.725+241.167+44.8235+242.632+59.7013C244.182+75.4308+244.408+94.8024+242.94+106.456C242.695+108.465+240.867+109.893+238.859+109.647C236.851+109.402+235.423+107.574+235.668+105.566C237.071+94.4174+236.838+75.7068+235.331+60.4197C234.145+48.3687+232.667+38.8577+231.341+38.4969C228.32+37.6744+224.339+40.2612+222.011+42.085C222.752+44.063+223.162+45.9671+223.212+47.756C223.273+49.947+222.804+51.96+221.758+53.7362C220.711+55.5148+219.144+56.973+217.023+58.0427C215.903+58.6077+214.619+59.0655+213.163+59.4033C213.328+59.9619+213.448+60.5158+213.523+61.0626C213.842+63.3823+213.378+65.5344+212.197+67.3741C211.078+69.1177+209.34+70.5005+207.045+71.3818C204.377+72.4072+200.891+72.7386+196.74+72.0973ZM127.887+244.343C-34.0701+244.343+1.82491+132.263+5.58951+121.63C4.66847+111.961-3.50055+19.4605+20.9984+13.6583C42.4971+8.56746+74.6912+39.6405+82.7901+47.9038C89.2081+44.8482+95.8932+42.6683+102.931+41.2164C110.829+39.5872+119.102+38.8791+127.887+38.8791C136.672+38.8791+144.946+39.5872+152.844+41.2164C159.881+42.6683+166.565+44.8482+172.983+47.9038C181.083+39.6405+213.276+8.56746+234.775+13.6583C259.275+19.4605+251.105+111.961+250.184+121.63C253.948+132.263+289.844+244.343+127.887+244.343ZM57.9126+64.8541C59.9121+64.545+61.7854+65.9151+62.0947+67.9153C62.4041+69.9148+61.0332+71.7879+59.0335+72.0973C54.8827+72.7386+51.3969+72.4072+48.7281+71.3818C46.4336+70.5005+44.6953+69.1177+43.5762+67.3741C42.3956+65.5344+41.9321+63.3823+42.2506+61.0626C42.3257+60.5158+42.4456+59.9619+42.6098+59.4033C41.1551+59.0655+39.8706+58.6077+38.7508+58.0427C36.629+56.973+35.0632+55.5155+34.0155+53.7362C32.9693+51.9608+32.5006+49.947+32.5618+47.756C32.6111+45.9671+33.0215+44.0646+33.7625+42.085C31.4352+40.2612+27.4527+37.6744+24.4331+38.4969C23.1069+38.8577+21.6289+48.3687+20.4422+60.4197C18.9356+75.7068+18.7025+94.4174+20.1053+105.566C20.3508+107.574+18.9226+109.402+16.9144+109.647C14.9062+109.893+13.0784+108.465+12.8328+106.456C11.3658+94.8024+11.5918+75.4308+13.1414+59.7013C14.607+44.8235+17.742+32.725+22.5068+31.4256C30.7199+29.1869+39.9087+37.6211+40.6907+38.357C41.8772+39.4394+42.2513+41.2172+41.4929+42.7207C40.4865+44.7162+39.932+46.4909+39.8913+47.9571C39.8684+48.7756+40.0131+49.4758+40.339+50.0289C40.6634+50.5796+41.2296+51.0723+42.0563+51.4895C43.4887+52.2119+45.5468+52.6514+48.2929+52.7412C49.118+52.7293+49.9518+52.9931+50.6447+53.551C52.2242+54.8201+52.475+57.1312+51.2053+58.7102C50.2014+59.9619+49.6535+61.092+49.5229+62.0393C49.448+62.5884+49.5297+63.0541+49.7566+63.4086C50.045+63.8576+50.5795+64.2478+51.3442+64.541C52.8786+65.1307+55.0839+65.2912+57.9126+64.8541" fill-rule="evenodd" fill="#000000" opacity="1"/>
</g>
<path d="M72.6987+149.812C74.3974+149.812+75.7743+151.282+75.7743+153.096C75.7743+154.909+74.3974+156.379+72.6987+156.379C71.0001+156.379+69.6238+154.909+69.6238+153.096C69.6238+151.282+71.0001+149.812+72.6987+149.812" fill-rule="evenodd" fill="#ffffff" opacity="1"/>
<path d="M183.224+149.858C184.923+149.858+186.3+151.328+186.3+153.142C186.3+154.955+184.923+156.425+183.224+156.425C181.525+156.425+180.149+154.955+180.149+153.142C180.149+151.328+181.525+149.858+183.224+149.858" fill-rule="evenodd" fill="#ffffff" opacity="1"/>
</g>
</svg>
