<svg width="256" height="256" viewBox="0 0 256 256" fill="none" xmlns="http://www.w3.org/2000/svg">
<path d="M80.0238 58.3049C79.0105 54.5236 76.7814 51.1798 73.6805 48.7893C70.5794 46.3997 66.7783 45.0961 62.8633 45.0792L62.8168 45.0792C58.1114 45.0792 53.5987 46.9481 50.2715 50.2761C46.9444 53.603 45.0752 58.1159 45.0752 62.8207L45.0752 62.8662C45.0923 66.7812 46.3964 70.5813 48.7863 73.6816C51.1763 76.7819 54.5196 79.0111 58.3009 80.0237C68.7999 82.922 78.0581 89.185 84.6558 97.8503C91.2535 106.517 94.8264 117.107 94.8264 127.999C94.8264 138.89 91.2536 149.481 84.6558 158.147C78.0581 166.813 68.7999 173.076 58.3009 175.974C54.5199 176.988 51.1771 179.217 48.7877 182.318C46.3983 185.418 45.0948 189.219 45.0782 193.133L45.0782 193.18C45.0782 197.885 46.9473 202.398 50.2745 205.725C53.6017 209.052 58.1144 210.921 62.8197 210.921L62.8663 210.921C66.7808 210.904 70.5812 209.6 73.6817 207.21C76.782 204.82 79.0106 201.477 80.0238 197.696C82.9222 187.197 89.1846 177.939 97.8506 171.341C106.516 164.743 117.107 161.17 127.999 161.17C138.891 161.17 149.481 164.743 158.148 171.341C166.814 177.939 173.076 187.197 175.974 197.696C176.988 201.477 179.216 204.82 182.317 207.209C185.417 209.599 189.217 210.903 193.131 210.92L193.178 210.92C197.883 210.92 202.395 209.051 205.723 205.724C209.05 202.397 210.919 197.884 210.919 193.179L210.919 193.132C210.902 189.218 209.598 185.418 207.208 182.317C204.817 179.217 201.475 176.988 197.693 175.975C187.195 173.076 177.936 166.814 171.339 158.148C164.74 149.482 161.168 138.891 161.168 128C161.168 117.108 164.74 106.518 171.339 97.8513C177.936 89.186 187.195 82.923 197.693 80.0247C201.475 79.0121 204.818 76.7828 207.209 73.6826C209.599 70.5823 210.903 66.7812 210.92 62.8662L210.92 62.8197C210.92 58.1149 209.05 53.602 205.723 50.2751C202.396 46.9481 197.883 45.0782 193.179 45.0782L193.131 45.0782C189.216 45.0951 185.416 46.3997 182.316 48.7893C179.215 51.1798 176.987 54.5226 175.973 58.3039C173.075 68.8025 166.813 78.0608 158.147 84.6583C149.48 91.2568 138.89 94.8292 127.998 94.8292C117.106 94.8292 106.516 91.2568 97.8496 84.6583C89.1836 78.0608 82.9213 68.8025 80.0228 58.3039L80.0238 58.3049Z" fill="#F57B0A"/>
<path d="M28.51 214.785C29.0776 214.214 29.4532 213.481 29.5847 212.687C29.7161 211.893 29.5969 211.077 29.2435 210.354C26.057 203.756 24.9957 196.332 26.2058 189.105C27.416 181.879 30.8382 175.205 36.0004 170.005C36.7227 169.288 37.1392 168.32 37.1625 167.302C37.1858 166.285 36.814 165.298 36.1251 164.549C35.7698 164.177 35.3438 163.879 34.8719 163.674C34.4 163.469 33.8919 163.36 33.3774 163.354C32.8629 163.348 32.3524 163.445 31.8759 163.639C31.3993 163.833 30.9665 164.121 30.6026 164.485C24.2769 170.826 20.0815 178.979 18.5985 187.812C17.1155 196.645 18.4183 205.721 22.3262 213.78C22.5983 214.329 22.9973 214.805 23.4902 215.169C23.983 215.532 24.5554 215.773 25.16 215.872C25.7645 215.97 26.3838 215.922 26.9664 215.733C27.549 215.544 28.0782 215.219 28.51 214.785Z" fill="#F57B0A"/>
<path d="M42.1897 233.662C50.2231 237.565 59.2698 238.879 68.0817 237.422C76.8937 235.966 85.0364 231.811 91.3866 225.53C92.0806 224.87 92.512 223.98 92.601 223.026C92.69 222.072 92.4305 221.119 91.8706 220.341C91.5378 219.901 91.1145 219.537 90.629 219.274C90.1437 219.011 89.6075 218.855 89.0568 218.817C88.5061 218.779 87.9537 218.859 87.4367 219.053C86.9197 219.247 86.4503 219.549 86.0601 219.939C80.8587 225.128 74.1725 228.57 66.9277 229.79C59.6828 231.01 52.2379 229.946 45.6246 226.747C44.9006 226.39 44.0835 226.269 43.2874 226.4C42.4911 226.53 41.7555 226.906 41.183 227.474C40.7482 227.906 40.4228 228.436 40.2338 229.019C40.0448 229.602 39.9975 230.222 40.0959 230.827C40.1944 231.432 40.4356 232.004 40.7998 232.498C41.1639 232.991 41.6404 233.39 42.1897 233.662Z" fill="#F57B0A"/>
<path d="M226.758 45.6424C229.945 52.2428 231.007 59.6688 229.794 66.8979C228.582 74.1259 225.157 80.8006 219.992 86.0004C219.274 86.7161 218.859 87.6812 218.836 88.6949C218.812 89.7095 219.182 90.6924 219.868 91.4398C220.223 91.814 220.65 92.1129 221.122 92.3198C221.594 92.5257 222.103 92.6355 222.618 92.6425C223.134 92.6494 223.646 92.5524 224.123 92.3584C224.601 92.1644 225.035 91.8763 225.399 91.512C231.724 85.1709 235.919 77.0183 237.403 68.1847C238.886 59.3521 237.583 50.2759 233.675 42.2164C233.403 41.668 233.004 41.1919 232.511 40.8276C232.018 40.4643 231.446 40.2238 230.841 40.1258C230.236 40.0278 229.617 40.0753 229.035 40.2644C228.452 40.4534 227.923 40.7791 227.492 41.2137C226.924 41.7838 226.549 42.5173 226.418 43.3112C226.286 44.1041 226.405 44.9198 226.758 45.6424Z" fill="#F57B0A"/>
<path d="M164.558 36.1318C165.305 36.8178 166.288 37.188 167.303 37.1642C168.316 37.1414 169.282 36.7267 169.997 36.008C175.201 30.8389 181.881 27.413 189.115 26.2043C196.35 24.9947 203.781 26.0618 210.384 29.2571C211.108 29.6115 211.923 29.7313 212.718 29.6006C213.513 29.4689 214.247 29.0938 214.819 28.5256C215.253 28.094 215.578 27.5654 215.768 26.9834C215.957 26.4013 216.004 25.7826 215.906 25.1778C215.808 24.574 215.569 24.0009 215.206 23.5089C214.842 23.016 214.367 22.6161 213.819 22.3438C205.757 18.424 196.675 17.1124 187.835 18.5912C178.993 20.0701 170.832 24.2662 164.485 30.5964C164.12 30.9607 163.832 31.3952 163.637 31.8733C163.442 32.3514 163.345 32.8632 163.352 33.3789C163.359 33.8956 163.469 34.4044 163.677 34.8776C163.883 35.3508 164.182 35.7764 164.558 36.1318Z" fill="#F57B0A"/>
<path d="M45.6295 29.2502C52.2307 26.0578 59.66 24.9937 66.8919 26.2043C74.1237 27.4149 80.8015 30.8409 86.0037 36.008C86.7186 36.7267 87.6842 37.1414 88.6979 37.1642C89.7116 37.188 90.695 36.8177 91.442 36.1318C91.816 35.7774 92.1153 35.3508 92.3219 34.8786C92.5285 34.4064 92.6386 33.8976 92.6454 33.3819C92.6523 32.8662 92.5558 32.3554 92.3616 31.8773C92.1675 31.4002 91.8798 30.9656 91.5153 30.6013C85.1711 24.2731 77.0139 20.076 68.1761 18.5952C59.3385 17.1134 50.2588 18.42 42.1976 22.3339C41.6491 22.6061 41.1736 23.0061 40.8103 23.499C40.4469 23.992 40.2064 24.5641 40.1086 25.1689C40.0108 25.7727 40.0584 26.3924 40.2476 26.9745C40.4369 27.5575 40.7623 28.0861 41.1968 28.5177C41.7679 29.0849 42.5017 29.461 43.2961 29.5927C44.0905 29.7233 44.9061 29.6036 45.6295 29.2502Z" fill="#F57B0A"/>
<path d="M36.0075 86.0034C30.8396 80.8016 27.4139 74.1239 26.2033 66.8919C24.9926 59.6599 26.0567 52.2309 29.2486 45.6295C29.6028 44.9059 29.7227 44.0902 29.5916 43.2963C29.4605 42.5015 29.0848 41.768 28.517 41.1968C28.0856 40.7623 27.5566 40.4366 26.9742 40.2475C26.3918 40.0585 25.7726 40.0109 25.1681 40.1089C24.5636 40.2059 23.9911 40.4465 23.4981 40.8098C23.0051 41.1731 22.6058 41.6492 22.3333 42.1976C18.4193 50.2591 17.1123 59.3382 18.5938 68.1758C20.0753 77.0133 24.2719 85.1709 30.6007 91.515C30.9653 91.8792 31.3991 92.1673 31.8766 92.3613C32.3542 92.5553 32.8658 92.6523 33.3812 92.6454C33.8967 92.6385 34.4056 92.5286 34.8779 92.3227C35.3503 92.1158 35.7764 91.8169 36.1312 91.4427C36.8168 90.6954 37.1867 89.7124 37.1636 88.6978C37.1406 87.6842 36.7263 86.719 36.0075 86.0034Z" fill="#F57B0A"/>
<path d="M219.993 169.996C225.16 175.198 228.586 181.876 229.797 189.108C231.007 196.34 229.943 203.769 226.751 210.37C226.398 211.093 226.278 211.909 226.409 212.703C226.54 213.498 226.916 214.232 227.484 214.803C227.915 215.237 228.444 215.563 229.027 215.752C229.609 215.941 230.228 215.989 230.832 215.891C231.437 215.793 232.009 215.553 232.502 215.189C232.995 214.826 233.395 214.35 233.667 213.802C237.581 205.741 238.888 196.661 237.406 187.823C235.925 178.986 231.728 170.829 225.4 164.485C225.036 164.12 224.601 163.832 224.124 163.638C223.647 163.444 223.135 163.348 222.619 163.354C222.104 163.361 221.595 163.471 221.123 163.678C220.65 163.885 220.224 164.184 219.869 164.558C219.183 165.305 218.813 166.288 218.836 167.302C218.86 168.316 219.273 169.281 219.993 169.996Z" fill="#F57B0A"/>
<path d="M210.371 226.749C203.77 229.942 196.341 231.006 189.108 229.796C181.876 228.585 175.199 225.16 169.997 219.992C169.281 219.273 168.316 218.859 167.302 218.835C166.288 218.812 165.305 219.182 164.558 219.868C164.183 220.223 163.884 220.649 163.678 221.121C163.472 221.594 163.362 222.102 163.355 222.618C163.348 223.133 163.445 223.645 163.639 224.122C163.833 224.6 164.121 225.034 164.485 225.398C170.829 231.727 178.987 235.924 187.825 237.405C196.662 238.887 205.741 237.58 213.803 233.666C214.351 233.393 214.827 232.994 215.191 232.501C215.554 232.008 215.795 231.435 215.892 230.831C215.99 230.226 215.942 229.607 215.753 229.025C215.564 228.442 215.238 227.914 214.804 227.482C214.233 226.914 213.499 226.539 212.704 226.407C211.91 226.276 211.095 226.396 210.371 226.749Z" fill="#F57B0A"/>
</svg>
