<?xml version="1.0" encoding="utf-8"?>
<!-- Generator: Adobe Illustrator 26.0.1, SVG Export Plug-In . SVG Version: 6.00 Build 0)  -->
<svg version="1.1" id="Layer_1" xmlns="http://www.w3.org/2000/svg" xmlns:xlink="http://www.w3.org/1999/xlink" x="0px" y="0px"
	 viewBox="0 0 256 256" style="enable-background:new 0 0 256 256;" xml:space="preserve">
<style type="text/css">
	.st0{fill:#2B348B;}
	.st1{fill:#498FCC;}
	.st2{fill:#FFFFFF;}
</style>
<g>
	<g id="HuQpuC.tif">
		<g>
			<path class="st0" d="M120.29,1c5.35,0,10.7,0,16.06,0c0.37,0.11,0.73,0.28,1.1,0.33c5.42,0.73,10.92,1.09,16.25,2.22
				c32.1,6.79,57.98,23.45,77.42,49.91c12.63,17.19,20.32,36.48,23.13,57.67c0.4,3.03,0.77,6.07,1.15,9.1c0,5.23,0,10.46,0,15.69
				c-0.13,0.7-0.29,1.39-0.38,2.09c-0.57,4.53-0.86,9.11-1.74,13.58c-6.47,33.04-23.21,59.67-50.28,79.63
				c-17.16,12.66-36.42,20.34-57.58,23.16c-3.02,0.4-6.05,0.77-9.07,1.15c-5.22,0-10.44,0-15.67,0c-0.7-0.13-1.39-0.29-2.1-0.38
				c-3.75-0.44-7.54-0.68-11.25-1.32c-23.4-4.03-44.46-13.39-62.08-29.35C8.3,191.01-5.53,149.41,4.39,100.52
				c5.91-29.13,21.37-52.89,44.43-71.54c18.25-14.76,39.1-23.7,62.39-26.83C114.23,1.74,117.26,1.38,120.29,1z"/>
		</g>
	</g>
	<g id="HuQpuC.tif_00000088091672254278926340000003562793219586077568_">
		<g>
			<path class="st1" d="M121.07,13.31c4.83,0,9.67,0,14.5,0c0.33,0.1,0.66,0.25,0.99,0.3c4.9,0.66,9.86,0.98,14.68,2
				c29,6.14,52.37,21.18,69.93,45.08c11.41,15.53,18.35,32.95,20.89,52.09c0.36,2.74,0.7,5.48,1.04,8.22c0,4.72,0,9.45,0,14.17
				c-0.12,0.63-0.26,1.25-0.34,1.89c-0.52,4.09-0.78,8.23-1.57,12.27c-5.84,29.84-20.97,53.9-45.42,71.93
				c-15.5,11.43-32.9,18.38-52.01,20.92c-2.73,0.36-5.46,0.69-8.2,1.04c-4.72,0-9.43,0-14.15,0c-0.63-0.12-1.26-0.27-1.9-0.34
				c-3.39-0.4-6.81-0.61-10.16-1.19c-21.13-3.64-40.16-12.09-56.07-26.51C19.92,184.94,7.42,147.37,16.38,103.2
				c5.34-26.31,19.3-47.77,40.13-64.62C73,25.26,91.83,17.18,112.87,14.35C115.6,13.98,118.33,13.66,121.07,13.31z"/>
		</g>
	</g>
	<path class="st2" d="M207.6,82.6c-0.2,0.53-0.44,1.04-0.61,1.58c-2.3,7.46-8.09,11.54-15.91,11.21c-0.49-0.02-0.98-0.06-1.52-0.09
		c-2.5,11.95-10.89,18.08-21.45,22.32c-21.95,8.82-35.09,25.29-40.94,47.9c-1.48,5.72-3.09,11.5-1.68,17.47
		c0.54,2.32,1.38,4.67,2.57,6.72c2.19,3.75,5.5,4.91,9.71,3.89c6.43-1.55,10.3-6.24,11.26-13.46c1.46-10.98-1.78-20.7-7.95-29.6
		c-0.93-1.35-1.03-2.26-0.02-3.51c1.16-1.44,2.16-3.01,3.24-4.51c0.33-0.46,0.72-0.87,1.18-1.42c0.35,0.29,0.71,0.5,0.94,0.81
		c8.12,10.36,13.01,21.87,12.36,35.29c-0.44,9.09-3.3,17.03-11.03,22.23c1.13,2.6,2.65,5.01,3.22,7.62
		c1.62,7.39-2.83,14.57-10.07,16.88c-0.59,0.19-1.17,0.45-1.75,0.68c-1.85,0-3.71,0-5.56,0c-0.46-0.17-0.91-0.36-1.38-0.49
		c-10.15-2.88-14.22-14.28-8.18-22.9c0.24-0.34,0.48-0.69,0.75-1.07c-8.78-7.85-10.14-17.8-8.71-28.73
		c3.15-24.11-3.89-44.48-22.79-60.25c-3.58-2.99-7.49-5.63-11.45-8.12c-1.69-1.06-3.84-1.54-5.85-1.88
		c-8.65-1.46-12.71,3.24-12.3,11.57c0.2,4,2.43,7.1,5.38,9.63c6.13,5.25,13.31,8.23,21.3,9.01c3.73,0.36,7.53,0.1,11.29,0.2
		c0.53,0.01,1.34,0.31,1.53,0.7c1.2,2.55,2.26,5.16,3.6,8.28c-4.13,0.22-7.73,0.62-11.33,0.55c-8.96-0.15-17.52-2.07-25.34-6.63
		c-8.61-5.02-15.22-11.52-16.07-21.9c-2.66-0.28-5.26-0.22-7.67-0.86c-5.1-1.37-8.44-4.81-10.15-9.82
		c-0.15-0.45-0.38-0.88-0.57-1.32c0-1.85,0-3.71,0-5.56c0.15-0.4,0.33-0.78,0.46-1.19c1.87-6.26,6.89-10.38,13.32-10.94
		c6.23-0.55,11.98,2.72,14.85,8.43c0.28,0.55,0.58,1.09,0.77,1.45c2.58-0.41,4.94-1.04,7.32-1.12c8.14-0.27,15.04,2.99,21.49,7.69
		c23.31,16.99,48.31,19.01,74.6,7.95c4.67-1.96,8.51-5.21,10.67-10.03c1.19-2.66,1.14-5.29-0.62-7.7c-2.23-3.05-5.15-5.07-8.93-5.75
		c-4.69-0.84-8.88,0.71-12.93,2.74c-8.48,4.25-14.4,11-18.75,19.29c-0.38,0.72-1.18,1.73-1.78,1.73c-2.94-0.01-5.88-0.32-9.11-0.54
		c4.19-10.08,9.99-18.39,18.51-24.6c5.05-3.68,10.57-6.42,16.79-7.62c5.34-1.03,10.45-0.38,15.31,1.86
		c0.73-1.44,1.29-2.75,2.04-3.95c2.33-3.71,5.88-5.67,9.99-6.79c1.85,0,3.71,0,5.56,0c0.18,0.11,0.34,0.28,0.53,0.33
		c5.89,1.49,9.62,5.19,11.33,10.99c0.11,0.38,0.36,0.73,0.55,1.09C207.6,79.75,207.6,81.17,207.6,82.6z M114.09,120.03
		c5.23,7.88,8.65,15.99,10.68,25.26c4.3-8.49,9.66-15.55,16.51-22.02C131.82,123.75,123.12,122.63,114.09,120.03z M192.23,87.02
		c3.72,0.04,6.61-2.75,6.6-6.38c-0.01-3.55-2.79-6.32-6.4-6.38c-3.64-0.06-6.63,2.82-6.62,6.4
		C185.81,84.16,188.66,86.98,192.23,87.02z M57.16,97.65c0.02-3.6-2.94-6.51-6.56-6.47c-3.53,0.04-6.42,2.9-6.45,6.38
		c-0.02,3.58,2.93,6.48,6.58,6.45C54.3,103.98,57.14,101.17,57.16,97.65z M136.06,216.24c3.62,0.09,6.55-2.57,6.69-6.07
		c0.15-3.66-2.62-6.59-6.29-6.67c-3.69-0.08-6.68,2.7-6.73,6.27C129.68,213.26,132.51,216.15,136.06,216.24z"/>
</g>
</svg>
