<?xml version="1.0" encoding="UTF-8"?>
<svg xmlns="http://www.w3.org/2000/svg" xmlns:xlink="http://www.w3.org/1999/xlink" width="256px" height="256px" viewBox="0 0 256 256" version="1.1">
<g id="surface1">
<path style=" stroke:none;fill-rule:evenodd;fill:rgb(4.705882%,48.627451%,76.862745%);fill-opacity:1;" d="M 127.304688 9.925781 C 127.976562 9.976562 129.015625 9.976562 129.609375 9.921875 C 130.203125 9.871094 129.652344 9.828125 128.382812 9.828125 C 127.117188 9.828125 126.628906 9.871094 127.304688 9.925781 M 121.28125 10.167969 C 121.601562 10.226562 122.0625 10.222656 122.308594 10.160156 C 122.550781 10.097656 122.292969 10.050781 121.726562 10.054688 C 121.164062 10.054688 120.964844 10.105469 121.28125 10.167969 M 134.464844 10.164062 C 134.710938 10.226562 135.113281 10.226562 135.359375 10.164062 C 135.605469 10.097656 135.40625 10.046875 134.910156 10.046875 C 134.417969 10.046875 134.21875 10.097656 134.464844 10.164062 M 123.648438 22.648438 C 71.089844 24.929688 27.476562 63.835938 20.882812 114.320312 C 11.832031 183.621094 71.785156 242.054688 142.667969 233.011719 C 200.660156 225.613281 242.667969 173.476562 236.199219 116.925781 C 229.839844 61.289062 180.742188 20.164062 123.648438 22.648438 M 47.089844 40.148438 L 46.207031 41.085938 L 47.167969 40.222656 C 48.0625 39.421875 48.246094 39.210938 48.050781 39.210938 C 48.007812 39.210938 47.574219 39.632812 47.089844 40.148438 M 209.792969 40.460938 C 210.339844 41.011719 210.847656 41.460938 210.917969 41.460938 C 210.988281 41.460938 210.597656 41.011719 210.046875 40.460938 C 209.5 39.910156 208.992188 39.460938 208.921875 39.460938 C 208.851562 39.460938 209.242188 39.910156 209.792969 40.460938 M 42.105469 44.769531 L 39.550781 47.328125 L 42.175781 44.835938 C 44.613281 42.519531 44.917969 42.207031 44.730469 42.207031 C 44.691406 42.207031 43.511719 43.359375 42.105469 44.769531 M 214.398438 44.707031 C 215.378906 45.667969 216.234375 46.453125 216.304688 46.453125 C 216.378906 46.453125 215.632812 45.667969 214.65625 44.707031 C 213.679688 43.746094 212.820312 42.957031 212.75 42.957031 C 212.679688 42.957031 213.421875 43.746094 214.398438 44.707031 M 218.367188 48.828125 C 218.84375 49.308594 219.292969 49.703125 219.363281 49.703125 C 219.433594 49.703125 219.101562 49.308594 218.625 48.828125 C 218.148438 48.347656 217.699219 47.953125 217.628906 47.953125 C 217.558594 47.953125 217.890625 48.347656 218.367188 48.828125 M 37.617188 49.390625 L 36.734375 50.324219 L 37.695312 49.464844 C 38.589844 48.664062 38.773438 48.453125 38.578125 48.453125 C 38.535156 48.453125 38.105469 48.875 37.617188 49.390625 M 219.648438 50.277344 C 219.648438 50.320312 220.023438 50.6875 220.480469 51.089844 L 221.3125 51.824219 L 220.558594 51.011719 C 219.859375 50.257812 219.648438 50.085938 219.648438 50.277344 M 35.953125 51.261719 L 35.199219 52.074219 L 36.03125 51.339844 C 36.808594 50.65625 36.980469 50.449219 36.785156 50.449219 C 36.738281 50.449219 36.367188 50.816406 35.953125 51.261719 M 226.558594 58.691406 C 226.859375 59.105469 227.164062 59.441406 227.234375 59.441406 C 227.304688 59.441406 227.117188 59.105469 226.816406 58.691406 C 226.515625 58.28125 226.210938 57.945312 226.140625 57.945312 C 226.070312 57.945312 226.257812 58.28125 226.558594 58.691406 M 184.886719 76.671875 C 194.167969 79.46875 196.792969 90.507812 189.78125 97.253906 C 187.628906 99.324219 185.246094 100.253906 180.707031 100.785156 C 179.253906 100.953125 178.652344 101.542969 178.042969 103.398438 C 175.929688 109.835938 170.207031 115.074219 161.675781 118.378906 C 147.988281 123.683594 137.519531 133.144531 131.46875 145.675781 C 121.46875 166.386719 125.574219 184.464844 138.789062 177.933594 C 146.457031 174.140625 147.359375 159.695312 140.625 148.464844 C 137.582031 143.390625 137.539062 143.207031 138.941406 140.894531 C 141.632812 136.453125 142.867188 136.488281 145.972656 141.082031 C 155.828125 155.652344 156.257812 172.695312 147.007812 182.355469 C 145.847656 183.570312 144.894531 184.621094 144.894531 184.695312 C 144.894531 184.769531 145.300781 185.617188 145.796875 186.574219 C 149.800781 194.332031 145.398438 203.253906 136.851562 204.707031 C 126.464844 206.476562 118.613281 196.050781 123.390625 186.824219 C 124.398438 184.875 124.410156 184.933594 122.605469 182.792969 C 117.988281 177.308594 116.441406 170.164062 117.761719 160.46875 C 120.535156 140.128906 112.761719 123.246094 94.371094 109.667969 C 85.574219 103.171875 76.378906 103.921875 74.988281 111.246094 C 73.253906 120.402344 85.289062 128.613281 101.070312 129.050781 C 107.371094 129.222656 107.453125 129.253906 108.730469 132.132812 C 110.730469 136.625 109.546875 137.574219 101.898438 137.605469 C 84.902344 137.675781 69.832031 128.902344 66.925781 117.246094 C 66.324219 114.835938 66.054688 114.617188 63.320312 114.363281 C 57.414062 113.816406 53.492188 110.898438 51.816406 105.8125 C 47.28125 92.046875 66.382812 83.4375 74.617188 95.535156 C 75.722656 97.160156 76.300781 97.511719 77.539062 97.304688 C 81.078125 96.714844 82.152344 96.65625 84.558594 96.914062 C 89.488281 97.441406 94.1875 99.230469 98.304688 102.140625 C 117.144531 115.46875 135.753906 118.328125 156.800781 111.136719 C 170.460938 106.464844 174.613281 97.097656 165.101562 92.402344 C 157.257812 88.53125 144.511719 95.242188 137.328125 107.019531 C 135.195312 110.523438 134.648438 110.8125 131.050781 110.375 C 126.726562 109.851562 126.542969 108.496094 130.019531 102.761719 C 138.648438 88.519531 154.230469 80.226562 165.96875 83.625 C 168.378906 84.320312 168.6875 84.199219 170.121094 82.015625 C 173.292969 77.179688 179.324219 74.996094 184.886719 76.671875 M 179.839844 83.894531 C 174.285156 85.242188 175.34375 92.910156 181.085938 92.910156 C 184.703125 92.910156 187.207031 89.15625 185.492188 86.304688 C 184.398438 84.480469 181.867188 83.402344 179.839844 83.894531 M 61.824219 97.738281 C 60.230469 98.449219 58.878906 100.246094 58.878906 101.652344 C 58.878906 107.875 67.785156 108.402344 68.742188 102.234375 C 69.210938 99.226562 64.847656 96.390625 61.824219 97.738281 M 249.410156 120.257812 C 249.410156 120.808594 249.464844 121.003906 249.523438 120.691406 C 249.585938 120.382812 249.585938 119.929688 249.519531 119.691406 C 249.457031 119.453125 249.40625 119.707031 249.410156 120.257812 M 118.398438 121.886719 C 118.308594 122.027344 119.21875 124.078125 120.421875 126.445312 C 121.621094 128.808594 123.078125 132.152344 123.65625 133.871094 C 125.277344 138.683594 125.292969 138.683594 128.46875 134.09375 C 130.796875 130.730469 132.421875 128.695312 134.898438 126.03125 C 137.140625 123.625 137.078125 123.585938 130.433594 123.035156 C 127.617188 122.800781 124.160156 122.386719 122.753906 122.121094 C 119.890625 121.574219 118.636719 121.507812 118.398438 121.886719 M 6.988281 124.378906 C 6.988281 125.132812 7.035156 125.441406 7.09375 125.066406 C 7.152344 124.6875 7.152344 124.070312 7.09375 123.691406 C 7.035156 123.3125 6.988281 123.621094 6.988281 124.378906 M 249.707031 128.125 C 249.707031 130.527344 249.742188 131.511719 249.789062 130.308594 C 249.835938 129.109375 249.835938 127.140625 249.789062 125.941406 C 249.742188 124.738281 249.707031 125.722656 249.707031 128.125 M 6.984375 132.246094 C 6.988281 132.933594 7.035156 133.183594 7.09375 132.804688 C 7.15625 132.425781 7.152344 131.863281 7.09375 131.554688 C 7.03125 131.25 6.984375 131.558594 6.984375 132.246094 M 249.410156 135.992188 C 249.410156 136.542969 249.464844 136.738281 249.523438 136.425781 C 249.585938 136.117188 249.585938 135.667969 249.519531 135.425781 C 249.457031 135.1875 249.40625 135.441406 249.410156 135.992188 M 132.46875 188.535156 C 129.324219 189.929688 128.738281 193.621094 131.308594 195.886719 C 134.578125 198.765625 139.519531 196.6875 139.519531 192.433594 C 139.519531 189.160156 135.753906 187.078125 132.46875 188.535156 M 38.144531 207.671875 C 38.621094 208.152344 39.070312 208.546875 39.140625 208.546875 C 39.210938 208.546875 38.878906 208.152344 38.398438 207.671875 C 37.921875 207.191406 37.472656 206.796875 37.402344 206.796875 C 37.332031 206.796875 37.667969 207.191406 38.144531 207.671875 M 218.113281 207.921875 C 217.488281 208.539062 217.039062 209.046875 217.109375 209.046875 C 217.179688 209.046875 217.746094 208.539062 218.367188 207.921875 C 218.988281 207.304688 219.441406 206.796875 219.371094 206.796875 C 219.300781 206.796875 218.734375 207.304688 218.113281 207.921875 M 42.113281 211.792969 C 42.949219 212.617188 43.691406 213.292969 43.761719 213.292969 C 43.832031 213.292969 43.203125 212.617188 42.367188 211.792969 C 41.53125 210.96875 40.789062 210.292969 40.71875 210.292969 C 40.648438 210.292969 41.277344 210.96875 42.113281 211.792969 M 210.292969 215.601562 L 209.023438 216.914062 L 210.367188 215.671875 C 211.105469 214.992188 211.710938 214.402344 211.710938 214.363281 C 211.710938 214.175781 211.472656 214.382812 210.292969 215.601562 M 46.582031 215.851562 C 47.207031 216.503906 47.757812 217.039062 47.796875 217.039062 C 47.988281 217.039062 47.785156 216.8125 46.65625 215.777344 L 45.441406 214.664062 L 46.582031 215.851562 M 122.050781 246.4375 C 122.371094 246.496094 122.832031 246.492188 123.074219 246.429688 C 123.320312 246.367188 123.058594 246.320312 122.496094 246.324219 C 121.933594 246.324219 121.734375 246.375 122.050781 246.4375 M 133.828125 246.4375 C 134.144531 246.496094 134.605469 246.492188 134.851562 246.429688 C 135.09375 246.367188 134.835938 246.320312 134.273438 246.324219 C 133.707031 246.324219 133.507812 246.375 133.828125 246.4375 "/>
<path style=" stroke:none;fill-rule:evenodd;fill:rgb(64.313725%,79.607843%,94.509804%);fill-opacity:1;" d="M 178.265625 77.28125 C 175.042969 78.042969 172.171875 80.164062 170.511719 83.007812 C 169.273438 85.132812 168.667969 85.324219 165.734375 84.503906 C 153.988281 81.226562 138.210938 89.851562 130.375 103.839844 C 128.328125 107.488281 128.441406 108.015625 131.351562 108.292969 C 133.875 108.535156 134.589844 108.117188 136.238281 105.429688 C 145.117188 90.996094 160.371094 84.910156 168.808594 92.433594 C 174.617188 97.613281 170.769531 106.023438 160.523438 110.542969 C 147.320312 116.367188 132.386719 117.3125 118.070312 113.238281 C 113.3125 111.882812 112.800781 112.253906 114.769531 115.632812 C 116.707031 118.960938 122.535156 120.710938 132.734375 121.035156 C 137.226562 121.179688 138.664062 121.5 139.515625 122.558594 C 140.273438 123.5 140.171875 123.730469 138.6875 124.398438 C 135.988281 125.613281 130.960938 131.304688 127.558594 136.992188 C 125.515625 140.414062 124.757812 140.445312 123.769531 137.164062 C 122.046875 131.453125 119.402344 125.609375 117.117188 122.488281 C 115.902344 120.828125 115.609375 120.183594 115.335938 118.5625 C 114.691406 114.792969 97.933594 101.675781 90.410156 99.054688 C 86.5625 97.714844 81.390625 97.28125 78.132812 98.03125 C 76.082031 98.503906 75.355469 98.191406 74.121094 96.3125 C 69.910156 89.886719 61.253906 88.753906 55.511719 93.871094 C 48.332031 100.273438 53.183594 111.265625 63.585938 112.15625 C 67.179688 112.464844 67.199219 112.480469 68.082031 116.261719 C 70.648438 127.230469 86.035156 135.648438 102.9375 135.328125 C 108.707031 135.21875 109.09375 134.941406 107.667969 131.953125 C 106.820312 130.175781 106.605469 130.109375 101.6875 130.019531 C 85.277344 129.722656 73.253906 121.59375 73.777344 111.152344 C 74.21875 102.328125 84.242188 100.324219 94.191406 107.074219 C 107.355469 116.007812 115.699219 127.902344 118.371094 141.542969 C 119.207031 145.824219 119.285156 145.960938 120.730469 145.769531 C 121.347656 145.683594 121.855469 145.671875 121.855469 145.742188 C 121.855469 145.8125 121.457031 147.578125 120.96875 149.671875 C 117.472656 164.675781 117.445312 170.105469 120.816406 176.851562 C 121.605469 178.425781 122.171875 179.203125 124.609375 182.082031 C 126.007812 183.734375 126.019531 184.425781 124.675781 186.441406 C 120.523438 192.65625 124.953125 201.308594 132.949219 202.601562 C 142.371094 204.125 149.890625 193.191406 144.363281 186.007812 C 142.808594 183.992188 142.917969 183.402344 145.261719 181.222656 C 155.027344 172.117188 155.09375 156.28125 145.425781 141.796875 C 142.871094 137.96875 142.070312 137.777344 140.199219 140.542969 C 139.011719 142.308594 139.019531 142.945312 140.265625 144.640625 C 148.175781 155.421875 148.167969 172.902344 140.25 178.0625 C 133.277344 182.605469 126.96875 179.453125 125.03125 170.457031 C 122.648438 159.394531 130.054688 140.171875 140.953125 129.125 C 144.46875 125.5625 144.742188 124.984375 143.316406 124.140625 L 142.503906 123.65625 L 143.125 123.425781 C 143.464844 123.296875 145.015625 122.789062 146.566406 122.300781 C 148.117188 121.8125 151.167969 120.609375 153.347656 119.628906 C 155.527344 118.648438 158.957031 117.183594 160.96875 116.367188 C 169.464844 112.921875 174.976562 108.003906 176.917969 102.136719 C 177.929688 99.066406 178.214844 98.820312 181.121094 98.546875 C 186.695312 98.015625 190.289062 95.34375 192.242188 90.269531 C 195.027344 83.035156 186.6875 75.285156 178.265625 77.28125 M 184.015625 82.316406 C 186.625 83.585938 187.71875 85.738281 187.128906 88.449219 C 185.492188 95.972656 175.734375 95.457031 174.921875 87.808594 C 174.449219 83.316406 179.628906 80.1875 184.015625 82.316406 M 67.21875 96.289062 C 73.59375 100.136719 67.835938 110.179688 61.148438 106.875 C 58.421875 105.527344 56.777344 101.296875 58 98.777344 C 59.53125 95.636719 64.089844 94.40625 67.21875 96.289062 M 136.738281 186.199219 C 141.03125 187.628906 142.191406 192.507812 139.078125 196.058594 C 135.660156 199.949219 129.742188 198.046875 128.503906 192.65625 C 127.515625 188.355469 132.191406 184.6875 136.738281 186.199219 "/>
<path style=" stroke:none;fill-rule:evenodd;fill:rgb(4.705882%,8.235294%,47.843137%);fill-opacity:1;" d="M 122.714844 10.050781 C 122.636719 10.171875 121.664062 10.191406 120.550781 10.097656 C 119.050781 9.96875 118.527344 10.003906 118.527344 10.226562 C 118.527344 10.445312 118.144531 10.480469 117.121094 10.355469 C 116.113281 10.230469 115.710938 10.265625 115.710938 10.476562 C 115.710938 10.683594 115.371094 10.71875 114.558594 10.601562 C 113.757812 10.484375 113.40625 10.519531 113.40625 10.722656 C 113.40625 10.917969 113.117188 10.957031 112.511719 10.847656 C 111.90625 10.738281 111.617188 10.777344 111.617188 10.972656 C 111.617188 11.167969 111.324219 11.207031 110.71875 11.097656 C 110.105469 10.984375 109.824219 11.027344 109.824219 11.230469 C 109.824219 11.429688 109.574219 11.476562 109.054688 11.363281 C 108.546875 11.253906 108.289062 11.296875 108.289062 11.488281 C 108.289062 11.679688 108.027344 11.722656 107.519531 11.613281 C 107.03125 11.507812 106.753906 11.546875 106.753906 11.722656 C 106.753906 11.890625 106.503906 11.9375 106.113281 11.839844 C 105.710938 11.742188 105.472656 11.789062 105.472656 11.964844 C 105.472656 12.140625 105.230469 12.1875 104.832031 12.089844 C 104.433594 11.992188 104.191406 12.039062 104.191406 12.214844 C 104.191406 12.390625 103.953125 12.4375 103.550781 12.339844 C 103.152344 12.242188 102.910156 12.289062 102.910156 12.464844 C 102.910156 12.644531 102.667969 12.6875 102.234375 12.582031 C 101.746094 12.460938 101.609375 12.496094 101.742188 12.710938 C 101.878906 12.925781 101.738281 12.960938 101.230469 12.835938 C 100.722656 12.710938 100.582031 12.746094 100.71875 12.960938 C 100.855469 13.171875 100.71875 13.210938 100.246094 13.09375 C 99.859375 13 99.585938 13.039062 99.585938 13.1875 C 99.585938 13.324219 99.355469 13.382812 99.070312 13.308594 C 98.773438 13.234375 98.558594 13.300781 98.558594 13.472656 C 98.558594 13.65625 98.363281 13.710938 98.046875 13.613281 C 97.765625 13.523438 97.535156 13.5625 97.535156 13.695312 C 97.535156 13.832031 97.304688 13.878906 97.023438 13.808594 C 96.742188 13.738281 96.511719 13.792969 96.511719 13.933594 C 96.511719 14.074219 96.28125 14.128906 96 14.058594 C 95.71875 13.988281 95.488281 14.042969 95.488281 14.183594 C 95.488281 14.324219 95.238281 14.375 94.9375 14.296875 C 94.535156 14.195312 94.4375 14.242188 94.585938 14.472656 C 94.730469 14.707031 94.640625 14.746094 94.238281 14.621094 C 93.925781 14.523438 93.695312 14.5625 93.695312 14.710938 C 93.695312 14.851562 93.523438 14.90625 93.3125 14.824219 C 93.101562 14.746094 92.929688 14.8125 92.929688 14.976562 C 92.929688 15.160156 92.726562 15.207031 92.382812 15.101562 C 91.992188 14.980469 91.894531 15.015625 92.03125 15.234375 C 92.171875 15.457031 92.066406 15.488281 91.648438 15.359375 C 91.230469 15.230469 91.125 15.265625 91.265625 15.484375 C 91.402344 15.703125 91.300781 15.742188 90.910156 15.621094 C 90.597656 15.523438 90.367188 15.558594 90.367188 15.710938 C 90.367188 15.851562 90.195312 15.902344 89.984375 15.824219 C 89.773438 15.746094 89.601562 15.800781 89.601562 15.949219 C 89.601562 16.097656 89.425781 16.152344 89.214844 16.074219 C 89.003906 15.996094 88.832031 16.050781 88.832031 16.199219 C 88.832031 16.347656 88.660156 16.402344 88.449219 16.324219 C 88.238281 16.246094 88.0625 16.300781 88.0625 16.449219 C 88.0625 16.597656 87.890625 16.652344 87.679688 16.574219 C 87.46875 16.496094 87.296875 16.550781 87.296875 16.699219 C 87.296875 16.847656 87.105469 16.894531 86.871094 16.808594 C 86.566406 16.695312 86.503906 16.742188 86.644531 16.96875 C 86.796875 17.207031 86.703125 17.242188 86.273438 17.109375 C 85.882812 16.988281 85.753906 17.019531 85.871094 17.203125 C 85.976562 17.375 85.894531 17.421875 85.644531 17.328125 C 85.425781 17.246094 85.246094 17.300781 85.246094 17.449219 C 85.246094 17.597656 85.054688 17.644531 84.820312 17.558594 C 84.519531 17.445312 84.453125 17.492188 84.597656 17.71875 C 84.75 17.957031 84.65625 17.992188 84.222656 17.859375 C 83.835938 17.738281 83.703125 17.769531 83.820312 17.953125 C 83.929688 18.125 83.847656 18.171875 83.597656 18.078125 C 83.378906 17.996094 83.199219 18.050781 83.199219 18.199219 C 83.199219 18.347656 83.007812 18.394531 82.773438 18.304688 C 82.488281 18.199219 82.410156 18.242188 82.53125 18.4375 C 82.652344 18.625 82.578125 18.675781 82.316406 18.578125 C 82.097656 18.496094 81.921875 18.558594 81.921875 18.71875 C 81.921875 18.878906 81.816406 18.949219 81.6875 18.871094 C 81.359375 18.671875 80.613281 18.988281 80.78125 19.253906 C 80.859375 19.375 80.742188 19.410156 80.527344 19.328125 C 80.304688 19.246094 80.128906 19.308594 80.128906 19.46875 C 80.128906 19.628906 80.023438 19.695312 79.894531 19.621094 C 79.566406 19.421875 78.820312 19.738281 78.992188 20.003906 C 79.066406 20.125 78.953125 20.15625 78.734375 20.074219 C 78.515625 19.992188 78.335938 20.058594 78.335938 20.21875 C 78.335938 20.378906 78.222656 20.441406 78.078125 20.355469 C 77.9375 20.269531 77.824219 20.328125 77.824219 20.480469 C 77.824219 20.632812 77.71875 20.695312 77.585938 20.617188 C 77.265625 20.421875 76.015625 21 76.179688 21.261719 C 76.253906 21.378906 76.117188 21.398438 75.875 21.308594 C 75.578125 21.199219 75.496094 21.238281 75.621094 21.433594 C 75.738281 21.621094 75.664062 21.671875 75.40625 21.574219 C 75.1875 21.492188 75.007812 21.546875 75.007812 21.695312 C 75.007812 21.839844 74.835938 21.898438 74.625 21.820312 C 74.410156 21.738281 74.175781 21.847656 74.085938 22.074219 C 74 22.296875 73.828125 22.414062 73.699219 22.335938 C 73.574219 22.261719 73.472656 22.324219 73.472656 22.476562 C 73.472656 22.632812 73.355469 22.6875 73.214844 22.601562 C 73.074219 22.519531 72.960938 22.574219 72.960938 22.726562 C 72.960938 22.882812 72.84375 22.9375 72.703125 22.851562 C 72.5625 22.769531 72.449219 22.8125 72.449219 22.953125 C 72.449219 23.09375 72.203125 23.335938 71.90625 23.492188 C 71.480469 23.714844 71.40625 23.707031 71.558594 23.46875 C 71.664062 23.300781 71.046875 23.527344 70.1875 23.976562 C 69.324219 24.421875 68.679688 24.886719 68.753906 25.003906 C 68.828125 25.121094 68.714844 25.152344 68.503906 25.074219 C 68.269531 24.988281 67.835938 25.214844 67.425781 25.640625 C 67.042969 26.03125 66.816406 26.207031 66.917969 26.035156 C 67.234375 25.5 66.820312 25.695312 66.121094 26.410156 C 65.753906 26.789062 65.546875 26.9375 65.667969 26.738281 C 65.796875 26.519531 65.492188 26.609375 64.878906 26.964844 C 63.929688 27.519531 62.902344 28.300781 63.71875 27.847656 C 63.957031 27.714844 64.019531 27.742188 63.902344 27.921875 C 63.808594 28.074219 63.539062 28.128906 63.308594 28.042969 C 63.050781 27.945312 62.957031 27.988281 63.058594 28.152344 C 63.15625 28.300781 63.035156 28.402344 62.78125 28.382812 C 62.535156 28.363281 62.367188 28.496094 62.40625 28.679688 C 62.445312 28.859375 62.363281 28.941406 62.222656 28.855469 C 61.996094 28.71875 59.902344 29.882812 59.902344 30.144531 C 59.902344 30.203125 60.039062 30.167969 60.199219 30.070312 C 60.378906 29.964844 60.425781 30.003906 60.320312 30.171875 C 60.222656 30.324219 59.992188 30.390625 59.808594 30.324219 C 59.625 30.253906 59.3125 30.394531 59.113281 30.632812 C 58.804688 31.003906 58.804688 31.035156 59.113281 30.855469 C 59.351562 30.714844 59.410156 30.734375 59.296875 30.921875 C 59.199219 31.074219 58.980469 31.144531 58.808594 31.085938 C 58.5 30.972656 53.09375 34.765625 52.097656 35.792969 L 51.585938 36.320312 L 52.222656 35.832031 L 52.863281 35.339844 L 52.390625 35.886719 C 52.132812 36.183594 51.777344 36.378906 51.609375 36.3125 C 51.4375 36.25 51.074219 36.453125 50.800781 36.761719 C 50.308594 37.324219 50.308594 37.328125 50.816406 36.960938 C 51.289062 36.617188 51.300781 36.621094 50.980469 37.023438 C 50.789062 37.261719 50.535156 37.402344 50.421875 37.332031 C 50.214844 37.207031 46.59375 40.113281 46.59375 40.402344 C 46.59375 40.488281 46.964844 40.222656 47.425781 39.820312 L 48.257812 39.089844 L 47.375 40.023438 C 46.515625 40.9375 46.144531 41.214844 46.464844 40.710938 C 46.550781 40.574219 46.523438 40.460938 46.40625 40.460938 C 46.019531 40.460938 38.339844 48.160156 38.492188 48.394531 C 38.570312 48.519531 38.207031 49.007812 37.6875 49.476562 L 36.734375 50.324219 L 37.617188 49.390625 C 38.105469 48.875 38.429688 48.453125 38.339844 48.453125 C 38.035156 48.453125 34.804688 52.230469 34.933594 52.433594 C 35.007812 52.546875 34.867188 52.796875 34.621094 52.984375 C 34.210938 53.296875 34.203125 53.285156 34.554688 52.824219 C 34.933594 52.328125 34.929688 52.328125 34.355469 52.808594 C 34.035156 53.074219 33.828125 53.429688 33.894531 53.597656 C 33.960938 53.761719 33.761719 54.109375 33.453125 54.359375 L 32.894531 54.820312 L 33.382812 54.257812 C 33.652344 53.949219 33.800781 53.699219 33.714844 53.699219 C 33.402344 53.699219 29.671875 58.703125 29.816406 58.929688 C 29.894531 59.054688 29.824219 59.238281 29.660156 59.339844 C 29.457031 59.460938 29.429688 59.410156 29.578125 59.167969 C 29.761719 58.867188 29.730469 58.867188 29.351562 59.167969 C 29.105469 59.363281 28.960938 59.667969 29.03125 59.847656 C 29.105469 60.027344 29.035156 60.253906 28.878906 60.347656 C 28.695312 60.457031 28.660156 60.394531 28.78125 60.167969 C 28.886719 59.972656 28.734375 60.097656 28.441406 60.441406 C 28.152344 60.785156 27.964844 61.203125 28.027344 61.371094 C 28.085938 61.535156 28.007812 61.75 27.851562 61.84375 C 27.679688 61.949219 27.640625 61.902344 27.75 61.726562 C 27.851562 61.570312 27.886719 61.441406 27.824219 61.441406 C 27.574219 61.441406 26.359375 63.472656 26.492188 63.679688 C 26.566406 63.800781 26.496094 63.984375 26.332031 64.082031 C 26.132812 64.203125 26.097656 64.144531 26.21875 63.914062 C 26.488281 63.410156 25.617188 64.46875 25.300781 65.027344 C 25.101562 65.378906 25.113281 65.449219 25.34375 65.3125 C 25.578125 65.167969 25.582031 65.25 25.359375 65.65625 C 25.199219 65.945312 25.011719 66.183594 24.9375 66.183594 C 24.863281 66.183594 24.871094 66.074219 24.960938 65.9375 C 25.046875 65.796875 25.0625 65.6875 24.996094 65.6875 C 24.734375 65.6875 23.78125 67.4375 23.921875 67.660156 C 24.003906 67.792969 23.9375 67.980469 23.773438 68.078125 C 23.585938 68.191406 23.542969 68.152344 23.65625 67.972656 C 23.757812 67.8125 23.777344 67.683594 23.703125 67.683594 C 23.625 67.683594 23.378906 68.035156 23.152344 68.460938 C 22.910156 68.914062 22.867188 69.160156 23.042969 69.054688 C 23.273438 68.914062 23.277344 69 23.054688 69.402344 C 22.898438 69.691406 22.707031 69.933594 22.632812 69.933594 C 22.558594 69.933594 22.570312 69.820312 22.65625 69.683594 C 22.742188 69.542969 22.753906 69.433594 22.675781 69.433594 C 22.425781 69.433594 21.480469 71.441406 21.625 71.671875 C 21.703125 71.792969 21.632812 71.976562 21.46875 72.074219 C 21.28125 72.1875 21.238281 72.148438 21.351562 71.96875 C 21.453125 71.808594 21.472656 71.679688 21.394531 71.679688 C 21.125 71.679688 18.160156 77.699219 18.3125 77.933594 C 18.394531 78.066406 18.34375 78.171875 18.199219 78.171875 C 18.054688 78.171875 18.007812 78.359375 18.101562 78.589844 C 18.199219 78.839844 18.160156 78.941406 18 78.847656 C 17.699219 78.664062 17.074219 79.847656 17.292969 80.191406 C 17.371094 80.316406 17.320312 80.421875 17.175781 80.421875 C 17.03125 80.421875 16.984375 80.609375 17.074219 80.835938 C 17.179688 81.097656 17.136719 81.191406 16.964844 81.089844 C 16.660156 80.902344 16.304688 81.59375 16.527344 81.941406 C 16.605469 82.066406 16.550781 82.167969 16.40625 82.167969 C 16.261719 82.167969 16.21875 82.355469 16.308594 82.585938 C 16.414062 82.851562 16.371094 82.941406 16.191406 82.832031 C 15.851562 82.625 15.507812 83.542969 15.765625 83.953125 C 15.890625 84.148438 15.839844 84.175781 15.613281 84.039062 C 15.367188 83.890625 15.316406 83.949219 15.4375 84.25 C 15.527344 84.480469 15.476562 84.667969 15.324219 84.667969 C 15.171875 84.667969 15.117188 84.839844 15.203125 85.054688 C 15.300781 85.308594 15.25 85.378906 15.058594 85.261719 C 14.859375 85.144531 14.816406 85.222656 14.925781 85.5 C 15.015625 85.730469 14.964844 85.917969 14.8125 85.917969 C 14.660156 85.917969 14.605469 86.089844 14.691406 86.304688 C 14.789062 86.554688 14.738281 86.628906 14.546875 86.515625 C 14.347656 86.394531 14.300781 86.511719 14.398438 86.875 C 14.492188 87.222656 14.445312 87.355469 14.273438 87.25 C 14.097656 87.144531 14.050781 87.28125 14.144531 87.625 C 14.230469 87.957031 14.1875 88.105469 14.027344 88.007812 C 13.863281 87.910156 13.835938 88.058594 13.953125 88.414062 C 14.089844 88.835938 14.054688 88.925781 13.808594 88.777344 C 13.574219 88.636719 13.527344 88.703125 13.644531 88.996094 C 13.734375 89.226562 13.683594 89.414062 13.53125 89.414062 C 13.382812 89.414062 13.324219 89.582031 13.40625 89.789062 C 13.484375 89.992188 13.425781 90.160156 13.273438 90.160156 C 13.121094 90.160156 13.054688 90.386719 13.128906 90.660156 C 13.210938 90.964844 13.160156 91.097656 13.003906 91.003906 C 12.839844 90.90625 12.8125 91.054688 12.929688 91.410156 C 13.0625 91.820312 13.027344 91.921875 12.800781 91.785156 C 12.574219 91.648438 12.539062 91.75 12.671875 92.160156 C 12.808594 92.578125 12.773438 92.671875 12.53125 92.527344 C 12.296875 92.386719 12.246094 92.476562 12.351562 92.871094 C 12.429688 93.167969 12.378906 93.410156 12.238281 93.410156 C 12.09375 93.410156 12.042969 93.578125 12.125 93.785156 C 12.207031 93.988281 12.152344 94.15625 12.007812 94.15625 C 11.859375 94.15625 11.8125 94.378906 11.902344 94.65625 C 12.003906 94.964844 11.949219 95.15625 11.765625 95.15625 C 11.601562 95.15625 11.53125 95.324219 11.613281 95.53125 C 11.695312 95.738281 11.636719 95.90625 11.480469 95.90625 C 11.328125 95.90625 11.265625 96.132812 11.339844 96.40625 C 11.410156 96.679688 11.359375 96.90625 11.222656 96.90625 C 11.085938 96.90625 11.046875 97.128906 11.136719 97.40625 C 11.234375 97.710938 11.183594 97.90625 10.996094 97.90625 C 10.820312 97.90625 10.75 98.113281 10.828125 98.40625 C 10.910156 98.714844 10.859375 98.84375 10.691406 98.742188 C 10.519531 98.636719 10.46875 98.816406 10.550781 99.242188 C 10.621094 99.605469 10.566406 99.902344 10.429688 99.902344 C 10.292969 99.902344 10.242188 100.128906 10.3125 100.402344 C 10.386719 100.675781 10.332031 100.902344 10.1875 100.902344 C 10.042969 100.902344 9.984375 101.125 10.058594 101.402344 C 10.132812 101.675781 10.074219 101.902344 9.933594 101.902344 C 9.78125 101.902344 9.742188 102.164062 9.832031 102.523438 C 9.933594 102.914062 9.886719 103.148438 9.703125 103.148438 C 9.523438 103.148438 9.476562 103.382812 9.578125 103.773438 C 9.679688 104.164062 9.628906 104.398438 9.445312 104.398438 C 9.28125 104.398438 9.214844 104.613281 9.289062 104.898438 C 9.363281 105.171875 9.308594 105.398438 9.164062 105.398438 C 9.015625 105.398438 8.972656 105.664062 9.066406 106.019531 C 9.167969 106.414062 9.117188 106.644531 8.933594 106.644531 C 8.742188 106.644531 8.695312 106.910156 8.792969 107.394531 C 8.890625 107.859375 8.839844 108.144531 8.667969 108.144531 C 8.503906 108.144531 8.4375 108.453125 8.503906 108.894531 C 8.566406 109.304688 8.503906 109.644531 8.371094 109.644531 C 8.238281 109.644531 8.195312 109.976562 8.28125 110.382812 C 8.367188 110.800781 8.3125 111.195312 8.15625 111.285156 C 8.007812 111.378906 7.949219 111.769531 8.03125 112.160156 C 8.109375 112.554688 8.050781 112.945312 7.898438 113.035156 C 7.734375 113.136719 7.6875 113.582031 7.78125 114.15625 C 7.878906 114.746094 7.828125 115.171875 7.652344 115.28125 C 7.46875 115.390625 7.417969 115.851562 7.515625 116.53125 C 7.609375 117.191406 7.558594 117.679688 7.394531 117.777344 C 7.222656 117.882812 7.183594 118.355469 7.285156 119.039062 C 7.378906 119.640625 7.363281 120.273438 7.246094 120.445312 C 6.808594 121.105469 6.75 135.742188 7.183594 136.257812 C 7.304688 136.402344 7.40625 137.019531 7.40625 137.632812 C 7.40625 138.242188 7.40625 139.328125 7.402344 140.050781 C 7.398438 140.8125 7.511719 141.363281 7.671875 141.363281 C 7.84375 141.363281 7.882812 141.714844 7.785156 142.328125 C 7.6875 142.917969 7.734375 143.363281 7.898438 143.464844 C 8.050781 143.554688 8.109375 143.945312 8.03125 144.339844 C 7.949219 144.730469 8.007812 145.121094 8.15625 145.210938 C 8.3125 145.304688 8.367188 145.699219 8.28125 146.117188 C 8.183594 146.578125 8.234375 146.855469 8.410156 146.855469 C 8.585938 146.855469 8.632812 147.136719 8.539062 147.605469 C 8.441406 148.074219 8.488281 148.355469 8.664062 148.355469 C 8.84375 148.355469 8.890625 148.636719 8.792969 149.105469 C 8.695312 149.585938 8.742188 149.855469 8.933594 149.855469 C 9.117188 149.855469 9.167969 150.085938 9.066406 150.476562 C 8.972656 150.835938 9.015625 151.101562 9.164062 151.101562 C 9.308594 151.101562 9.363281 151.328125 9.289062 151.601562 C 9.214844 151.886719 9.28125 152.101562 9.445312 152.101562 C 9.628906 152.101562 9.679688 152.335938 9.578125 152.726562 C 9.476562 153.117188 9.523438 153.351562 9.703125 153.351562 C 9.886719 153.351562 9.933594 153.585938 9.832031 153.976562 C 9.742188 154.332031 9.78125 154.597656 9.933594 154.597656 C 10.074219 154.597656 10.132812 154.824219 10.058594 155.097656 C 9.984375 155.375 10.042969 155.597656 10.1875 155.597656 C 10.332031 155.597656 10.386719 155.824219 10.3125 156.097656 C 10.242188 156.371094 10.296875 156.597656 10.441406 156.597656 C 10.585938 156.597656 10.644531 156.820312 10.570312 157.097656 C 10.496094 157.371094 10.554688 157.597656 10.699219 157.597656 C 10.84375 157.597656 10.898438 157.820312 10.828125 158.09375 C 10.753906 158.371094 10.808594 158.59375 10.953125 158.59375 C 11.097656 158.59375 11.15625 158.820312 11.082031 159.09375 C 11.007812 159.371094 11.066406 159.59375 11.210938 159.59375 C 11.355469 159.59375 11.410156 159.820312 11.339844 160.09375 C 11.265625 160.367188 11.328125 160.59375 11.480469 160.59375 C 11.636719 160.59375 11.695312 160.761719 11.613281 160.96875 C 11.53125 161.175781 11.601562 161.34375 11.765625 161.34375 C 11.949219 161.34375 12.003906 161.535156 11.902344 161.84375 C 11.8125 162.121094 11.859375 162.339844 12.007812 162.339844 C 12.152344 162.339844 12.207031 162.511719 12.125 162.714844 C 12.042969 162.921875 12.09375 163.089844 12.238281 163.089844 C 12.378906 163.089844 12.429688 163.332031 12.351562 163.628906 C 12.246094 164.023438 12.296875 164.113281 12.53125 163.972656 C 12.773438 163.828125 12.808594 163.921875 12.671875 164.339844 C 12.539062 164.746094 12.574219 164.851562 12.800781 164.714844 C 13.027344 164.578125 13.0625 164.679688 12.929688 165.089844 C 12.8125 165.445312 12.839844 165.59375 13.003906 165.496094 C 13.164062 165.398438 13.207031 165.546875 13.121094 165.875 C 13.015625 166.269531 13.0625 166.363281 13.300781 166.21875 C 13.539062 166.078125 13.578125 166.164062 13.449219 166.554688 C 13.351562 166.863281 13.390625 167.085938 13.542969 167.085938 C 13.6875 167.085938 13.734375 167.273438 13.644531 167.503906 C 13.542969 167.765625 13.582031 167.855469 13.757812 167.75 C 13.933594 167.644531 13.980469 167.777344 13.886719 168.125 C 13.789062 168.492188 13.835938 168.605469 14.035156 168.488281 C 14.226562 168.371094 14.277344 168.445312 14.179688 168.695312 C 14.09375 168.910156 14.148438 169.085938 14.300781 169.085938 C 14.453125 169.085938 14.507812 169.253906 14.429688 169.460938 C 14.347656 169.664062 14.394531 169.835938 14.535156 169.835938 C 14.675781 169.835938 14.785156 169.976562 14.78125 170.144531 C 14.75 170.949219 14.871094 171.347656 15.101562 171.210938 C 15.246094 171.121094 15.289062 171.222656 15.203125 171.445312 C 15.117188 171.65625 15.171875 171.832031 15.324219 171.832031 C 15.476562 171.832031 15.527344 172.019531 15.4375 172.246094 C 15.328125 172.523438 15.371094 172.605469 15.570312 172.484375 C 15.761719 172.367188 15.8125 172.441406 15.714844 172.691406 C 15.628906 172.90625 15.683594 173.082031 15.835938 173.082031 C 15.988281 173.082031 16.039062 173.269531 15.949219 173.496094 C 15.839844 173.773438 15.882812 173.851562 16.082031 173.734375 C 16.273438 173.617188 16.324219 173.6875 16.226562 173.941406 C 16.140625 174.15625 16.207031 174.328125 16.371094 174.328125 C 16.535156 174.328125 16.605469 174.433594 16.527344 174.558594 C 16.304688 174.90625 16.660156 175.597656 16.964844 175.410156 C 17.136719 175.308594 17.179688 175.402344 17.074219 175.664062 C 16.984375 175.890625 17.03125 176.078125 17.175781 176.078125 C 17.320312 176.078125 17.371094 176.183594 17.292969 176.308594 C 17.09375 176.621094 17.683594 177.84375 17.953125 177.679688 C 18.074219 177.609375 18.09375 177.742188 18 177.980469 C 17.886719 178.269531 17.929688 178.347656 18.128906 178.230469 C 18.324219 178.113281 18.375 178.183594 18.273438 178.4375 C 18.1875 178.652344 18.253906 178.824219 18.417969 178.824219 C 18.582031 178.824219 18.648438 178.9375 18.558594 179.074219 C 18.472656 179.210938 18.53125 179.324219 18.6875 179.324219 C 18.84375 179.324219 18.90625 179.433594 18.824219 179.5625 C 18.671875 179.800781 20.617188 183.820312 20.882812 183.820312 C 20.960938 183.820312 20.949219 183.707031 20.863281 183.570312 C 20.777344 183.433594 20.765625 183.320312 20.839844 183.320312 C 20.914062 183.320312 21.105469 183.558594 21.265625 183.851562 C 21.484375 184.253906 21.484375 184.335938 21.253906 184.199219 C 20.769531 183.90625 22.015625 186.148438 22.617188 186.652344 C 22.921875 186.90625 23.015625 187.03125 22.828125 186.9375 C 22.574219 186.808594 22.59375 186.964844 22.898438 187.539062 C 23.125 187.964844 23.371094 188.316406 23.445312 188.316406 C 23.519531 188.316406 23.5 188.1875 23.398438 188.027344 C 23.285156 187.847656 23.328125 187.808594 23.515625 187.921875 C 23.679688 188.019531 23.75 188.207031 23.667969 188.335938 C 23.527344 188.558594 25.238281 191.5625 25.507812 191.5625 C 25.574219 191.5625 25.558594 191.449219 25.472656 191.3125 C 25.386719 191.175781 25.375 191.0625 25.449219 191.0625 C 25.523438 191.0625 25.710938 191.300781 25.871094 191.59375 C 26.101562 192.007812 26.09375 192.082031 25.84375 191.929688 C 25.433594 191.683594 25.542969 191.863281 27.460938 194.621094 C 28.300781 195.824219 29.035156 196.808594 29.097656 196.808594 C 29.164062 196.808594 29.132812 196.679688 29.03125 196.519531 C 28.917969 196.339844 28.960938 196.300781 29.148438 196.410156 C 29.3125 196.511719 29.382812 196.699219 29.296875 196.828125 C 29.214844 196.957031 29.863281 197.992188 30.738281 199.121094 C 32.347656 201.203125 33.027344 201.992188 32.636719 201.328125 C 32.5 201.089844 32.53125 201.035156 32.734375 201.15625 C 32.898438 201.257812 32.972656 201.433594 32.898438 201.550781 C 32.820312 201.671875 33.066406 202.082031 33.4375 202.472656 C 33.808594 202.859375 33.953125 202.953125 33.761719 202.675781 C 33.4375 202.21875 33.445312 202.207031 33.851562 202.519531 C 34.097656 202.707031 34.242188 202.945312 34.175781 203.054688 C 34.105469 203.160156 34.25 203.464844 34.496094 203.722656 C 34.742188 203.984375 34.828125 204.023438 34.6875 203.8125 C 34.464844 203.476562 34.492188 203.46875 34.878906 203.765625 C 35.121094 203.953125 35.261719 204.203125 35.191406 204.316406 C 35.117188 204.429688 35.378906 204.847656 35.769531 205.238281 C 36.160156 205.632812 36.308594 205.71875 36.097656 205.4375 C 35.714844 204.929688 35.71875 204.929688 36.28125 205.394531 C 36.59375 205.652344 36.789062 205.960938 36.714844 206.082031 C 36.640625 206.199219 37.074219 206.78125 37.679688 207.371094 C 38.515625 208.179688 38.597656 208.226562 38.015625 207.558594 L 37.246094 206.671875 L 38.199219 207.523438 C 38.71875 207.992188 39.082031 208.476562 39.003906 208.601562 C 38.855469 208.839844 45.25 215.289062 45.632812 215.289062 C 45.753906 215.289062 45.773438 215.148438 45.675781 214.976562 C 45.574219 214.804688 46.027344 215.167969 46.683594 215.777344 C 47.335938 216.390625 47.871094 216.949219 47.871094 217.015625 C 47.871094 217.082031 47.382812 216.695312 46.785156 216.152344 L 45.695312 215.164062 L 46.84375 216.355469 C 47.472656 217.011719 48.121094 217.496094 48.285156 217.4375 C 48.453125 217.375 48.855469 217.625 49.1875 217.992188 L 49.792969 218.660156 L 49.023438 218.039062 L 48.257812 217.414062 L 49.015625 218.230469 C 49.429688 218.679688 49.910156 218.996094 50.078125 218.933594 C 50.246094 218.871094 50.597656 219.066406 50.855469 219.363281 C 51.320312 219.902344 51.320312 219.90625 50.800781 219.535156 C 49.539062 218.636719 52.027344 220.71875 53.828125 222.070312 C 54.917969 222.886719 55.917969 223.496094 56.046875 223.417969 C 56.179688 223.335938 56.367188 223.40625 56.46875 223.566406 C 56.597656 223.765625 56.542969 223.792969 56.296875 223.648438 C 55.988281 223.464844 55.988281 223.496094 56.289062 223.863281 C 56.484375 224.097656 56.828125 224.257812 57.050781 224.222656 C 57.277344 224.183594 57.464844 224.324219 57.46875 224.53125 C 57.472656 224.738281 57.667969 224.90625 57.902344 224.910156 C 58.140625 224.910156 58.425781 225.011719 58.542969 225.136719 C 58.660156 225.265625 58.613281 225.28125 58.433594 225.179688 C 58.257812 225.082031 58.113281 225.046875 58.113281 225.105469 C 58.113281 225.351562 60.195312 226.535156 60.40625 226.410156 C 60.53125 226.332031 60.71875 226.402344 60.820312 226.5625 C 60.945312 226.757812 60.886719 226.792969 60.648438 226.671875 C 60.449219 226.574219 60.566406 226.730469 60.90625 227.019531 C 61.246094 227.3125 61.675781 227.492188 61.859375 227.425781 C 62.042969 227.355469 62.269531 227.425781 62.367188 227.578125 C 62.480469 227.753906 62.414062 227.789062 62.183594 227.667969 C 61.984375 227.566406 62.113281 227.71875 62.464844 228 C 62.816406 228.285156 63.246094 228.46875 63.421875 228.40625 C 63.59375 228.34375 63.710938 228.429688 63.675781 228.597656 C 63.644531 228.765625 63.816406 228.886719 64.0625 228.867188 C 64.3125 228.847656 64.433594 228.945312 64.339844 229.097656 C 64.234375 229.261719 64.332031 229.300781 64.589844 229.203125 C 64.820312 229.117188 65.085938 229.171875 65.183594 229.324219 C 65.296875 229.507812 65.234375 229.535156 65 229.402344 C 64.757812 229.269531 64.722656 229.285156 64.894531 229.457031 C 65.429688 229.980469 67.675781 231.117188 67.480469 230.761719 C 67.371094 230.5625 67.496094 230.640625 67.753906 230.933594 C 68.335938 231.597656 70.03125 232.480469 69.765625 231.980469 C 69.667969 231.796875 69.800781 231.890625 70.058594 232.183594 C 70.554688 232.75 72.878906 233.996094 72.589844 233.542969 C 72.488281 233.382812 72.574219 233.335938 72.816406 233.425781 C 73.035156 233.507812 73.164062 233.652344 73.101562 233.75 C 72.945312 233.996094 76.261719 235.5625 76.558594 235.386719 C 76.691406 235.304688 76.800781 235.367188 76.800781 235.519531 C 76.800781 235.671875 76.914062 235.730469 77.054688 235.644531 C 77.195312 235.558594 77.3125 235.621094 77.3125 235.78125 C 77.3125 235.941406 77.488281 236.007812 77.710938 235.925781 C 77.96875 235.828125 78.042969 235.875 77.921875 236.066406 C 77.800781 236.261719 77.882812 236.300781 78.179688 236.191406 C 78.421875 236.097656 78.554688 236.125 78.480469 236.246094 C 78.308594 236.511719 79.054688 236.828125 79.382812 236.628906 C 79.511719 236.554688 79.617188 236.605469 79.617188 236.746094 C 79.617188 236.886719 79.808594 236.929688 80.042969 236.84375 C 80.304688 236.746094 80.40625 236.785156 80.300781 236.949219 C 80.089844 237.28125 81.527344 237.878906 81.945312 237.628906 C 82.15625 237.5 82.1875 237.546875 82.046875 237.773438 C 81.894531 238.011719 81.953125 238.058594 82.261719 237.941406 C 82.496094 237.855469 82.6875 237.902344 82.6875 238.050781 C 82.6875 238.199219 82.867188 238.253906 83.085938 238.171875 C 83.34375 238.074219 83.417969 238.125 83.300781 238.3125 C 83.175781 238.503906 83.257812 238.550781 83.542969 238.441406 C 83.777344 238.355469 83.96875 238.402344 83.96875 238.550781 C 83.96875 238.699219 84.148438 238.753906 84.367188 238.671875 C 84.613281 238.578125 84.699219 238.625 84.589844 238.796875 C 84.472656 238.980469 84.601562 239.011719 84.992188 238.890625 C 85.421875 238.757812 85.515625 238.792969 85.367188 239.03125 C 85.222656 239.257812 85.285156 239.304688 85.589844 239.191406 C 85.824219 239.105469 86.015625 239.152344 86.015625 239.300781 C 86.015625 239.449219 86.195312 239.503906 86.414062 239.421875 C 86.671875 239.324219 86.746094 239.371094 86.628906 239.558594 C 86.507812 239.753906 86.625 239.800781 87 239.703125 C 87.355469 239.613281 87.492188 239.660156 87.382812 239.828125 C 87.277344 240 87.414062 240.042969 87.769531 239.953125 C 88.105469 239.867188 88.257812 239.910156 88.160156 240.066406 C 88.058594 240.226562 88.210938 240.253906 88.574219 240.140625 C 88.996094 240.011719 89.097656 240.046875 88.960938 240.265625 C 88.820312 240.484375 88.925781 240.519531 89.34375 240.390625 C 89.761719 240.261719 89.867188 240.292969 89.726562 240.515625 C 89.589844 240.734375 89.695312 240.769531 90.113281 240.640625 C 90.542969 240.507812 90.636719 240.542969 90.488281 240.777344 C 90.34375 241.007812 90.4375 241.054688 90.839844 240.953125 C 91.195312 240.863281 91.332031 240.90625 91.222656 241.078125 C 91.117188 241.246094 91.253906 241.292969 91.609375 241.203125 C 91.910156 241.125 92.160156 241.171875 92.160156 241.304688 C 92.160156 241.4375 92.402344 241.472656 92.703125 241.378906 C 93.09375 241.257812 93.195312 241.296875 93.054688 241.515625 C 92.917969 241.730469 93.019531 241.769531 93.40625 241.648438 C 93.746094 241.542969 93.953125 241.589844 93.953125 241.765625 C 93.953125 241.9375 94.160156 241.984375 94.496094 241.878906 C 94.898438 241.753906 94.988281 241.792969 94.839844 242.027344 C 94.695312 242.257812 94.789062 242.304688 95.191406 242.199219 C 95.496094 242.125 95.742188 242.167969 95.742188 242.304688 C 95.742188 242.4375 95.972656 242.476562 96.257812 242.386719 C 96.5625 242.292969 96.769531 242.34375 96.769531 242.511719 C 96.769531 242.6875 96.976562 242.730469 97.3125 242.628906 C 97.710938 242.503906 97.804688 242.542969 97.65625 242.773438 C 97.507812 243.007812 97.632812 243.042969 98.160156 242.914062 C 98.667969 242.789062 98.808594 242.824219 98.671875 243.039062 C 98.535156 243.253906 98.671875 243.289062 99.160156 243.167969 C 99.585938 243.066406 99.839844 243.105469 99.839844 243.273438 C 99.839844 243.433594 100.054688 243.480469 100.351562 243.386719 C 100.664062 243.289062 100.863281 243.34375 100.863281 243.523438 C 100.863281 243.714844 101.09375 243.757812 101.527344 243.652344 C 102 243.539062 102.132812 243.574219 102 243.789062 C 101.863281 244 102 244.039062 102.488281 243.917969 C 102.921875 243.8125 103.167969 243.855469 103.167969 244.035156 C 103.167969 244.210938 103.410156 244.257812 103.808594 244.160156 C 104.207031 244.0625 104.449219 244.109375 104.449219 244.285156 C 104.449219 244.460938 104.6875 244.507812 105.089844 244.410156 C 105.488281 244.3125 105.726562 244.359375 105.726562 244.535156 C 105.726562 244.710938 105.96875 244.757812 106.367188 244.660156 C 106.769531 244.558594 107.007812 244.605469 107.007812 244.789062 C 107.007812 244.972656 107.28125 245.019531 107.777344 244.921875 C 108.257812 244.828125 108.542969 244.875 108.542969 245.046875 C 108.542969 245.21875 108.832031 245.265625 109.3125 245.171875 C 109.789062 245.078125 110.078125 245.125 110.078125 245.292969 C 110.078125 245.46875 110.398438 245.507812 110.976562 245.402344 C 111.585938 245.289062 111.871094 245.332031 111.871094 245.53125 C 111.871094 245.734375 112.191406 245.773438 112.894531 245.664062 C 113.585938 245.554688 113.921875 245.597656 113.921875 245.789062 C 113.921875 245.980469 114.25 246.023438 114.929688 245.917969 C 115.554688 245.820312 116.003906 245.863281 116.113281 246.035156 C 116.226562 246.214844 116.757812 246.253906 117.664062 246.140625 C 118.664062 246.019531 119.039062 246.054688 119.039062 246.277344 C 119.039062 246.5 119.582031 246.535156 121.195312 246.40625 C 122.601562 246.296875 123.40625 246.328125 123.511719 246.496094 C 123.738281 246.855469 133.027344 246.855469 133.253906 246.496094 C 133.363281 246.328125 134.160156 246.296875 135.539062 246.40625 C 137.003906 246.519531 137.710938 246.484375 137.835938 246.289062 C 137.953125 246.105469 138.484375 246.0625 139.40625 246.167969 C 140.378906 246.28125 140.800781 246.242188 140.800781 246.039062 C 140.800781 245.847656 141.128906 245.804688 141.824219 245.914062 C 142.515625 246.023438 142.847656 245.980469 142.847656 245.789062 C 142.847656 245.597656 143.179688 245.554688 143.871094 245.664062 C 144.578125 245.773438 144.894531 245.734375 144.894531 245.53125 C 144.894531 245.332031 145.179688 245.289062 145.792969 245.402344 C 146.371094 245.507812 146.6875 245.46875 146.6875 245.292969 C 146.6875 245.125 146.980469 245.078125 147.457031 245.171875 C 147.96875 245.273438 148.222656 245.222656 148.222656 245.023438 C 148.222656 244.816406 148.46875 244.773438 148.992188 244.886719 C 149.480469 244.992188 149.761719 244.949219 149.761719 244.777344 C 149.761719 244.609375 150.007812 244.5625 150.398438 244.660156 C 150.800781 244.757812 151.039062 244.710938 151.039062 244.535156 C 151.039062 244.359375 151.28125 244.3125 151.679688 244.410156 C 152.078125 244.507812 152.320312 244.460938 152.320312 244.285156 C 152.320312 244.109375 152.5625 244.0625 152.960938 244.160156 C 153.359375 244.257812 153.601562 244.210938 153.601562 244.035156 C 153.601562 243.855469 153.84375 243.8125 154.277344 243.917969 C 154.765625 244.039062 154.90625 244 154.769531 243.789062 C 154.632812 243.574219 154.765625 243.539062 155.242188 243.652344 C 155.671875 243.757812 155.902344 243.714844 155.902344 243.523438 C 155.902344 243.34375 156.101562 243.289062 156.414062 243.386719 C 156.714844 243.480469 156.929688 243.433594 156.929688 243.273438 C 156.929688 243.105469 157.183594 243.066406 157.605469 243.167969 C 158.09375 243.289062 158.230469 243.253906 158.097656 243.039062 C 157.960938 242.824219 158.101562 242.789062 158.609375 242.914062 C 159.132812 243.042969 159.257812 243.007812 159.109375 242.773438 C 158.964844 242.542969 159.058594 242.503906 159.457031 242.628906 C 159.792969 242.730469 160 242.6875 160 242.511719 C 160 242.34375 160.207031 242.292969 160.511719 242.386719 C 160.792969 242.476562 161.023438 242.4375 161.023438 242.304688 C 161.023438 242.167969 161.273438 242.125 161.578125 242.199219 C 161.976562 242.304688 162.074219 242.257812 161.925781 242.027344 C 161.78125 241.792969 161.871094 241.753906 162.273438 241.878906 C 162.570312 241.972656 162.816406 241.9375 162.816406 241.804688 C 162.816406 241.671875 163.0625 241.625 163.367188 241.703125 C 163.769531 241.804688 163.867188 241.757812 163.71875 241.527344 C 163.574219 241.292969 163.664062 241.253906 164.0625 241.378906 C 164.363281 241.472656 164.609375 241.4375 164.609375 241.304688 C 164.609375 241.171875 164.855469 241.125 165.160156 241.203125 C 165.511719 241.292969 165.652344 241.246094 165.542969 241.078125 C 165.433594 240.90625 165.574219 240.863281 165.925781 240.953125 C 166.332031 241.054688 166.425781 241.007812 166.28125 240.777344 C 166.132812 240.542969 166.226562 240.507812 166.65625 240.640625 C 167.074219 240.769531 167.179688 240.734375 167.039062 240.515625 C 166.902344 240.292969 167.003906 240.261719 167.425781 240.390625 C 167.789062 240.503906 167.941406 240.476562 167.839844 240.316406 C 167.742188 240.160156 167.894531 240.117188 168.230469 240.203125 C 168.585938 240.292969 168.722656 240.25 168.617188 240.078125 C 168.507812 239.910156 168.644531 239.863281 169 239.953125 C 169.375 240.050781 169.492188 240.003906 169.371094 239.808594 C 169.253906 239.621094 169.328125 239.574219 169.585938 239.671875 C 169.804688 239.753906 169.984375 239.699219 169.984375 239.550781 C 169.984375 239.402344 170.175781 239.355469 170.410156 239.441406 C 170.714844 239.554688 170.777344 239.507812 170.632812 239.28125 C 170.484375 239.042969 170.578125 239.007812 171.007812 239.140625 C 171.398438 239.261719 171.527344 239.230469 171.410156 239.046875 C 171.300781 238.875 171.386719 238.828125 171.632812 238.921875 C 171.851562 239.003906 172.03125 238.949219 172.03125 238.800781 C 172.03125 238.652344 172.222656 238.605469 172.457031 238.691406 C 172.761719 238.804688 172.824219 238.757812 172.683594 238.53125 C 172.53125 238.292969 172.625 238.257812 173.054688 238.390625 C 173.445312 238.511719 173.574219 238.480469 173.457031 238.296875 C 173.351562 238.125 173.433594 238.078125 173.683594 238.171875 C 173.902344 238.253906 174.078125 238.191406 174.078125 238.03125 C 174.078125 237.871094 174.183594 237.800781 174.3125 237.878906 C 174.671875 238.09375 175.378906 237.75 175.1875 237.449219 C 175.082031 237.28125 175.179688 237.242188 175.445312 237.34375 C 175.679688 237.429688 175.871094 237.386719 175.871094 237.246094 C 175.871094 237.105469 175.976562 237.050781 176.105469 237.128906 C 176.464844 237.347656 177.171875 237 176.980469 236.699219 C 176.875 236.53125 176.972656 236.492188 177.242188 236.597656 C 177.773438 236.796875 180.003906 235.777344 179.785156 235.433594 C 179.691406 235.285156 179.800781 235.25 180.054688 235.34375 C 180.289062 235.433594 180.480469 235.390625 180.480469 235.246094 C 180.480469 235.105469 180.589844 235.058594 180.726562 235.136719 C 181.066406 235.34375 185.109375 233.34375 185.6875 232.6875 C 185.945312 232.390625 186.078125 232.296875 185.980469 232.480469 C 185.71875 232.96875 187.9375 231.832031 188.503906 231.1875 C 188.761719 230.890625 188.890625 230.800781 188.792969 230.984375 C 188.660156 231.230469 188.824219 231.210938 189.410156 230.914062 C 189.847656 230.691406 190.207031 230.453125 190.207031 230.378906 C 190.207031 230.304688 190.074219 230.324219 189.914062 230.421875 C 189.734375 230.53125 189.6875 230.492188 189.792969 230.324219 C 189.890625 230.171875 190.113281 230.101562 190.289062 230.167969 C 190.464844 230.234375 190.832031 230.105469 191.109375 229.886719 C 191.390625 229.667969 191.453125 229.570312 191.257812 229.671875 C 191.027344 229.789062 190.960938 229.753906 191.074219 229.574219 C 191.167969 229.421875 191.390625 229.351562 191.566406 229.417969 C 191.742188 229.484375 192.113281 229.355469 192.390625 229.136719 C 192.667969 228.917969 192.734375 228.820312 192.535156 228.921875 C 192.296875 229.042969 192.238281 229.003906 192.363281 228.8125 C 192.464844 228.652344 192.671875 228.59375 192.820312 228.683594 C 192.972656 228.773438 193.320312 228.578125 193.59375 228.25 C 193.867188 227.921875 194.007812 227.8125 193.902344 228.003906 C 193.667969 228.441406 193.773438 228.378906 196.671875 226.460938 C 197.902344 225.644531 198.910156 224.925781 198.910156 224.863281 C 198.910156 224.800781 198.777344 224.832031 198.617188 224.929688 C 198.433594 225.039062 198.390625 224.996094 198.507812 224.816406 C 198.609375 224.65625 198.796875 224.585938 198.925781 224.664062 C 199.214844 224.839844 201.738281 223 202.183594 222.285156 C 202.371094 221.992188 202.640625 221.839844 202.804688 221.941406 C 202.976562 222.042969 203.53125 221.65625 204.140625 221.003906 C 204.714844 220.394531 205.011719 220.117188 204.800781 220.386719 C 204.589844 220.660156 204.964844 220.453125 205.632812 219.929688 C 206.300781 219.40625 206.847656 218.914062 206.847656 218.84375 C 206.847656 218.769531 206.589844 218.921875 206.273438 219.183594 L 205.695312 219.660156 L 206.179688 219.105469 C 206.445312 218.800781 206.753906 218.605469 206.871094 218.675781 C 206.984375 218.742188 207.40625 218.488281 207.808594 218.105469 C 208.210938 217.726562 208.304688 217.582031 208.015625 217.789062 C 207.496094 218.15625 207.496094 218.15625 207.960938 217.617188 C 208.21875 217.316406 208.566406 217.121094 208.730469 217.183594 C 208.898438 217.246094 209.664062 216.648438 210.4375 215.855469 L 211.839844 214.414062 L 210.433594 215.664062 L 209.023438 216.914062 L 210.273438 215.621094 C 210.960938 214.914062 211.65625 214.382812 211.820312 214.441406 C 212.183594 214.578125 217.445312 209.40625 217.25 209.101562 C 217.171875 208.976562 217.652344 208.382812 218.316406 207.777344 L 219.519531 206.671875 L 218.496094 207.8125 C 217.933594 208.441406 218.363281 208.046875 219.453125 206.9375 C 220.539062 205.832031 221.382812 204.792969 221.320312 204.628906 C 221.261719 204.46875 221.410156 204.1875 221.648438 204.007812 C 222.042969 203.703125 222.046875 203.71875 221.699219 204.175781 C 221.324219 204.671875 221.324219 204.671875 221.902344 204.191406 C 222.222656 203.925781 222.429688 203.570312 222.363281 203.402344 C 222.296875 203.234375 222.492188 202.890625 222.800781 202.636719 L 223.359375 202.175781 L 222.335938 203.425781 L 222.921875 202.941406 C 223.242188 202.675781 223.453125 202.320312 223.382812 202.148438 C 223.316406 201.980469 223.457031 201.691406 223.695312 201.507812 C 224.09375 201.207031 224.097656 201.21875 223.75 201.679688 C 223.371094 202.175781 223.371094 202.175781 223.949219 201.695312 C 224.269531 201.425781 224.476562 201.070312 224.410156 200.898438 C 224.339844 200.730469 224.480469 200.441406 224.71875 200.261719 C 225.09375 199.976562 225.117188 199.984375 224.894531 200.3125 C 224.753906 200.527344 224.953125 200.355469 225.339844 199.941406 C 225.722656 199.523438 225.988281 199.046875 225.929688 198.886719 C 225.871094 198.726562 226.015625 198.445312 226.253906 198.261719 C 226.628906 197.976562 226.652344 197.984375 226.433594 198.316406 C 226.292969 198.527344 226.492188 198.359375 226.875 197.941406 C 227.257812 197.523438 227.523438 197.046875 227.460938 196.878906 C 227.398438 196.710938 227.476562 196.496094 227.632812 196.402344 C 227.824219 196.289062 227.847656 196.347656 227.703125 196.582031 C 227.515625 196.882812 227.550781 196.882812 227.929688 196.582031 C 228.175781 196.386719 228.3125 196.070312 228.238281 195.878906 C 228.164062 195.691406 228.191406 195.585938 228.304688 195.65625 C 228.414062 195.722656 228.652344 195.546875 228.832031 195.265625 C 229.097656 194.847656 229.097656 194.789062 228.820312 194.929688 C 228.632812 195.023438 228.71875 194.898438 229.015625 194.644531 C 229.8125 193.960938 230.710938 192.597656 230.539062 192.332031 C 230.457031 192.203125 230.527344 192.015625 230.691406 191.917969 C 230.878906 191.804688 230.921875 191.84375 230.808594 192.023438 C 230.707031 192.183594 230.6875 192.3125 230.757812 192.3125 C 230.832031 192.3125 231.023438 192.074219 231.183594 191.78125 C 231.417969 191.355469 231.40625 191.285156 231.128906 191.429688 C 230.941406 191.527344 231.058594 191.386719 231.398438 191.121094 C 231.734375 190.851562 231.933594 190.511719 231.839844 190.367188 C 231.746094 190.21875 231.808594 190.015625 231.972656 189.917969 C 232.171875 189.796875 232.207031 189.855469 232.085938 190.089844 C 231.980469 190.28125 232.089844 190.214844 232.320312 189.941406 C 232.949219 189.195312 233.570312 187.976562 233.210938 188.195312 C 232.980469 188.332031 232.976562 188.25 233.199219 187.847656 C 233.359375 187.554688 233.550781 187.316406 233.625 187.316406 C 233.699219 187.316406 233.6875 187.429688 233.601562 187.566406 C 233.511719 187.703125 233.503906 187.816406 233.578125 187.816406 C 233.652344 187.816406 233.898438 187.46875 234.125 187.039062 C 234.367188 186.585938 234.414062 186.339844 234.234375 186.445312 C 234.003906 186.585938 234 186.503906 234.222656 186.097656 C 234.382812 185.808594 234.621094 185.570312 234.753906 185.570312 C 235.082031 185.570312 236.089844 183.613281 235.910156 183.328125 C 235.832031 183.207031 235.902344 183.023438 236.066406 182.925781 C 236.253906 182.8125 236.296875 182.851562 236.183594 183.03125 C 236.082031 183.191406 236.0625 183.320312 236.140625 183.320312 C 236.425781 183.320312 237.324219 181.292969 237.152344 181.027344 C 237.054688 180.867188 237.09375 180.816406 237.246094 180.910156 C 237.550781 181.09375 237.902344 180.398438 237.683594 180.050781 C 237.601562 179.925781 237.671875 179.824219 237.835938 179.824219 C 238 179.824219 238.066406 179.652344 237.980469 179.4375 C 237.882812 179.183594 237.933594 179.113281 238.125 179.226562 C 238.328125 179.347656 238.367188 179.265625 238.253906 178.976562 C 238.160156 178.742188 238.1875 178.609375 238.308594 178.683594 C 238.609375 178.867188 239.683594 176.386719 239.457031 176.03125 C 239.34375 175.847656 239.398438 175.820312 239.621094 175.957031 C 239.867188 176.105469 239.914062 176.046875 239.796875 175.746094 C 239.707031 175.515625 239.738281 175.328125 239.871094 175.328125 C 240.003906 175.328125 240.039062 175.140625 239.949219 174.914062 C 239.847656 174.652344 239.886719 174.558594 240.058594 174.660156 C 240.363281 174.847656 240.71875 174.15625 240.496094 173.808594 C 240.417969 173.683594 240.488281 173.582031 240.652344 173.582031 C 240.816406 173.582031 240.882812 173.40625 240.796875 173.191406 C 240.699219 172.941406 240.75 172.867188 240.941406 172.984375 C 241.140625 173.101562 241.183594 173.023438 241.074219 172.746094 C 240.984375 172.519531 241.019531 172.332031 241.152344 172.332031 C 241.285156 172.332031 241.320312 172.144531 241.226562 171.914062 C 241.109375 171.613281 241.15625 171.554688 241.40625 171.707031 C 241.660156 171.859375 241.707031 171.800781 241.585938 171.5 C 241.496094 171.269531 241.546875 171.082031 241.699219 171.082031 C 241.851562 171.082031 241.90625 170.910156 241.820312 170.695312 C 241.722656 170.445312 241.773438 170.371094 241.964844 170.484375 C 242.164062 170.605469 242.210938 170.488281 242.113281 170.121094 C 242.023438 169.792969 242.066406 169.644531 242.226562 169.742188 C 242.390625 169.839844 242.417969 169.691406 242.304688 169.335938 C 242.167969 168.914062 242.203125 168.820312 242.449219 168.96875 C 242.679688 169.109375 242.726562 169.046875 242.613281 168.75 C 242.523438 168.523438 242.570312 168.335938 242.722656 168.335938 C 242.875 168.335938 242.929688 168.160156 242.847656 167.949219 C 242.746094 167.695312 242.796875 167.621094 242.988281 167.738281 C 243.1875 167.855469 243.234375 167.742188 243.136719 167.375 C 243.054688 167.078125 243.109375 166.835938 243.25 166.835938 C 243.394531 166.835938 243.441406 166.664062 243.359375 166.449219 C 243.257812 166.199219 243.308594 166.125 243.5 166.238281 C 243.699219 166.359375 243.746094 166.242188 243.648438 165.875 C 243.554688 165.53125 243.601562 165.398438 243.777344 165.503906 C 243.949219 165.609375 243.996094 165.472656 243.902344 165.128906 C 243.824219 164.832031 243.875 164.589844 244.019531 164.589844 C 244.160156 164.589844 244.210938 164.421875 244.132812 164.214844 C 244.050781 164.007812 244.105469 163.839844 244.25 163.839844 C 244.402344 163.839844 244.441406 163.617188 244.339844 163.308594 C 244.214844 162.917969 244.253906 162.828125 244.492188 162.972656 C 244.726562 163.117188 244.777344 163.023438 244.671875 162.628906 C 244.59375 162.332031 244.640625 162.089844 244.777344 162.089844 C 244.914062 162.089844 244.953125 161.867188 244.863281 161.59375 C 244.765625 161.285156 244.816406 161.09375 245.003906 161.09375 C 245.167969 161.09375 245.238281 160.925781 245.15625 160.71875 C 245.074219 160.511719 245.132812 160.34375 245.285156 160.34375 C 245.4375 160.34375 245.503906 160.117188 245.429688 159.84375 C 245.355469 159.570312 245.40625 159.34375 245.546875 159.34375 C 245.683594 159.34375 245.722656 159.121094 245.632812 158.84375 C 245.535156 158.546875 245.585938 158.34375 245.761719 158.34375 C 245.941406 158.34375 245.984375 158.144531 245.878906 157.816406 C 245.75 157.425781 245.789062 157.335938 246.027344 157.476562 C 246.261719 157.621094 246.3125 157.496094 246.214844 157.007812 C 246.144531 156.644531 246.199219 156.347656 246.335938 156.347656 C 246.476562 156.347656 246.527344 156.121094 246.453125 155.847656 C 246.378906 155.574219 246.4375 155.347656 246.582031 155.347656 C 246.726562 155.347656 246.785156 155.125 246.710938 154.847656 C 246.636719 154.574219 246.691406 154.347656 246.835938 154.347656 C 246.984375 154.347656 247.027344 154.082031 246.933594 153.726562 C 246.835938 153.335938 246.882812 153.101562 247.0625 153.101562 C 247.242188 153.101562 247.289062 152.867188 247.191406 152.476562 C 247.089844 152.085938 247.136719 151.851562 247.320312 151.851562 C 247.484375 151.851562 247.554688 151.636719 247.476562 151.351562 C 247.402344 151.078125 247.460938 150.851562 247.605469 150.851562 C 247.75 150.851562 247.796875 150.589844 247.707031 150.242188 C 247.621094 149.90625 247.675781 149.558594 247.828125 149.46875 C 247.980469 149.375 248.035156 149.03125 247.953125 148.703125 C 247.859375 148.335938 247.910156 148.105469 248.089844 148.105469 C 248.265625 148.105469 248.335938 147.8125 248.265625 147.355469 C 248.203125 146.945312 248.261719 146.605469 248.398438 146.605469 C 248.535156 146.605469 248.578125 146.222656 248.496094 145.734375 C 248.410156 145.199219 248.457031 144.859375 248.621094 144.859375 C 248.789062 144.859375 248.828125 144.535156 248.722656 144.003906 C 248.621094 143.46875 248.667969 143.082031 248.851562 142.972656 C 249.035156 142.863281 249.085938 142.441406 248.984375 141.832031 C 248.882812 141.21875 248.925781 140.863281 249.097656 140.863281 C 249.25 140.863281 249.371094 140.34375 249.375 139.675781 C 249.375 139.023438 249.417969 137.703125 249.464844 136.742188 C 249.675781 132.597656 249.554688 118.261719 249.3125 118.023438 C 249.226562 117.9375 249.210938 117.378906 249.277344 116.785156 C 249.355469 116.128906 249.289062 115.632812 249.117188 115.53125 C 248.9375 115.421875 248.890625 114.992188 248.992188 114.375 C 249.101562 113.699219 249.058594 113.390625 248.851562 113.390625 C 248.648438 113.390625 248.605469 113.109375 248.71875 112.515625 C 248.835938 111.925781 248.792969 111.640625 248.59375 111.640625 C 248.394531 111.640625 248.351562 111.355469 248.464844 110.765625 C 248.570312 110.21875 248.53125 109.894531 248.363281 109.894531 C 248.199219 109.894531 248.152344 109.542969 248.25 108.980469 C 248.355469 108.328125 248.316406 108.117188 248.109375 108.242188 C 247.902344 108.367188 247.863281 108.195312 247.972656 107.65625 C 248.074219 107.164062 248.023438 106.894531 247.835938 106.894531 C 247.652344 106.894531 247.601562 106.664062 247.703125 106.269531 C 247.800781 105.894531 247.753906 105.648438 247.585938 105.648438 C 247.4375 105.648438 247.375 105.484375 247.453125 105.285156 C 247.535156 105.085938 247.503906 104.777344 247.390625 104.597656 C 247.277344 104.417969 247.21875 104.019531 247.257812 103.710938 C 247.300781 103.402344 247.21875 103.148438 247.082031 103.148438 C 246.945312 103.148438 246.890625 102.925781 246.964844 102.648438 C 247.042969 102.359375 246.972656 102.148438 246.796875 102.148438 C 246.613281 102.148438 246.554688 101.960938 246.648438 101.671875 C 246.734375 101.410156 246.695312 101.128906 246.5625 101.046875 C 246.429688 100.96875 246.378906 100.675781 246.453125 100.402344 C 246.527344 100.128906 246.46875 99.902344 246.324219 99.902344 C 246.183594 99.902344 246.128906 99.660156 246.207031 99.363281 C 246.316406 98.960938 246.265625 98.875 246.011719 99.03125 C 245.761719 99.179688 245.71875 99.121094 245.84375 98.796875 C 245.941406 98.554688 245.933594 98.226562 245.835938 98.070312 C 245.734375 97.910156 245.636719 97.613281 245.621094 97.40625 C 245.605469 97.199219 245.570312 96.769531 245.546875 96.453125 C 245.523438 96.136719 245.398438 95.941406 245.273438 96.015625 C 245.144531 96.09375 245.101562 95.933594 245.171875 95.65625 C 245.246094 95.382812 245.183594 95.15625 245.03125 95.15625 C 244.875 95.15625 244.820312 94.988281 244.898438 94.78125 C 244.980469 94.578125 244.929688 94.40625 244.789062 94.40625 C 244.644531 94.40625 244.589844 94.183594 244.660156 93.910156 C 244.734375 93.632812 244.671875 93.410156 244.519531 93.410156 C 244.363281 93.410156 244.304688 93.238281 244.386719 93.035156 C 244.46875 92.828125 244.410156 92.660156 244.257812 92.660156 C 244.109375 92.660156 244.050781 92.492188 244.132812 92.285156 C 244.210938 92.078125 244.160156 91.910156 244.019531 91.910156 C 243.875 91.910156 243.824219 91.667969 243.902344 91.371094 C 243.996094 91.027344 243.949219 90.890625 243.777344 90.996094 C 243.601562 91.101562 243.554688 90.96875 243.648438 90.621094 C 243.742188 90.277344 243.695312 90.144531 243.519531 90.25 C 243.347656 90.355469 243.300781 90.21875 243.390625 89.875 C 243.484375 89.527344 243.4375 89.394531 243.265625 89.5 C 243.089844 89.605469 243.042969 89.46875 243.136719 89.125 C 243.234375 88.757812 243.1875 88.640625 242.988281 88.761719 C 242.796875 88.878906 242.746094 88.800781 242.847656 88.550781 C 242.929688 88.339844 242.875 88.164062 242.722656 88.164062 C 242.570312 88.164062 242.515625 87.996094 242.59375 87.789062 C 242.675781 87.582031 242.617188 87.414062 242.46875 87.414062 C 242.316406 87.414062 242.265625 87.226562 242.355469 87 C 242.457031 86.734375 242.417969 86.644531 242.242188 86.75 C 242.066406 86.855469 242.019531 86.726562 242.113281 86.375 C 242.210938 86.011719 242.164062 85.894531 241.964844 86.015625 C 241.773438 86.128906 241.722656 86.054688 241.820312 85.804688 C 241.90625 85.589844 241.851562 85.417969 241.699219 85.417969 C 241.546875 85.417969 241.496094 85.230469 241.585938 85 C 241.707031 84.699219 241.660156 84.640625 241.40625 84.792969 C 241.15625 84.941406 241.109375 84.886719 241.226562 84.582031 C 241.320312 84.355469 241.285156 84.167969 241.152344 84.167969 C 241.019531 84.167969 240.984375 83.980469 241.074219 83.753906 C 241.183594 83.476562 241.140625 83.394531 240.941406 83.515625 C 240.75 83.632812 240.699219 83.558594 240.796875 83.308594 C 240.882812 83.09375 240.828125 82.917969 240.675781 82.917969 C 240.523438 82.917969 240.472656 82.730469 240.5625 82.503906 C 240.671875 82.226562 240.628906 82.148438 240.429688 82.265625 C 240.238281 82.382812 240.1875 82.3125 240.285156 82.058594 C 240.371094 81.84375 240.304688 81.671875 240.140625 81.671875 C 239.976562 81.671875 239.90625 81.566406 239.984375 81.441406 C 240.183594 81.128906 239.867188 80.394531 239.605469 80.554688 C 239.488281 80.625 239.40625 80.46875 239.429688 80.207031 C 239.476562 79.566406 238.578125 77.652344 238.304688 77.820312 C 238.183594 77.890625 238.160156 77.757812 238.253906 77.519531 C 238.367188 77.234375 238.328125 77.152344 238.125 77.269531 C 237.933594 77.386719 237.882812 77.316406 237.980469 77.0625 C 238.066406 76.847656 238 76.675781 237.835938 76.675781 C 237.671875 76.675781 237.605469 76.566406 237.691406 76.433594 C 237.878906 76.140625 236.628906 73.679688 236.292969 73.679688 C 236.160156 73.679688 235.917969 73.441406 235.757812 73.148438 C 235.539062 72.746094 235.542969 72.664062 235.765625 72.796875 C 235.929688 72.898438 235.710938 72.292969 235.277344 71.453125 C 234.84375 70.617188 234.425781 69.933594 234.347656 69.933594 C 234.273438 69.933594 234.292969 70.0625 234.390625 70.21875 C 234.503906 70.394531 234.460938 70.441406 234.289062 70.335938 C 234.132812 70.242188 234.070312 70.003906 234.148438 69.808594 C 234.226562 69.609375 233.96875 69.15625 233.558594 68.777344 C 233.160156 68.40625 232.984375 68.1875 233.171875 68.296875 C 233.421875 68.4375 233.402344 68.28125 233.101562 67.710938 C 232.875 67.285156 232.628906 66.933594 232.554688 66.933594 C 232.480469 66.933594 232.5 67.066406 232.601562 67.222656 C 232.714844 67.402344 232.671875 67.445312 232.484375 67.332031 C 232.320312 67.230469 232.246094 67.054688 232.320312 66.9375 C 232.449219 66.730469 231.496094 64.9375 231.253906 64.9375 C 231.191406 64.9375 231.207031 65.050781 231.296875 65.1875 C 231.382812 65.324219 231.394531 65.4375 231.320312 65.4375 C 231.246094 65.4375 231.054688 65.199219 230.894531 64.90625 C 230.660156 64.476562 230.671875 64.414062 230.949219 64.585938 C 231.484375 64.90625 230.453125 63.402344 229.671875 62.722656 C 229.296875 62.398438 229.152344 62.21875 229.347656 62.324219 C 229.941406 62.636719 228.851562 60.992188 227.710938 59.847656 C 226.34375 58.472656 225.703125 57.65625 226.417969 58.191406 C 226.6875 58.398438 226.242188 57.695312 225.425781 56.632812 C 224.605469 55.566406 223.878906 54.695312 223.808594 54.695312 C 223.738281 54.695312 223.839844 54.894531 224.03125 55.132812 C 224.347656 55.527344 224.339844 55.535156 223.953125 55.242188 C 223.714844 55.058594 223.574219 54.769531 223.640625 54.601562 C 223.707031 54.429688 223.5 54.074219 223.179688 53.808594 C 222.605469 53.324219 222.605469 53.324219 222.980469 53.824219 C 223.332031 54.285156 223.328125 54.296875 222.914062 53.980469 C 222.671875 53.792969 222.527344 53.550781 222.597656 53.4375 C 222.730469 53.230469 220.277344 50.199219 219.976562 50.199219 C 219.882812 50.199219 220.148438 50.566406 220.558594 51.011719 L 221.3125 51.824219 L 220.5 51.109375 C 220.050781 50.714844 219.738281 50.261719 219.800781 50.105469 C 219.863281 49.945312 219.421875 49.367188 218.820312 48.820312 L 217.730469 47.828125 L 219.519531 49.828125 L 218.570312 48.976562 C 218.046875 48.507812 217.683594 48.023438 217.761719 47.898438 C 217.960938 47.589844 211.417969 41.171875 211.046875 41.308594 C 210.886719 41.371094 210.304688 40.953125 209.761719 40.378906 L 208.769531 39.335938 L 209.921875 40.335938 L 211.070312 41.335938 L 209.925781 40.144531 C 209.296875 39.488281 208.644531 39.003906 208.480469 39.0625 C 208.316406 39.125 207.910156 38.875 207.578125 38.507812 L 206.976562 37.839844 L 207.628906 38.335938 C 207.988281 38.613281 207.898438 38.46875 207.429688 38.015625 C 206.960938 37.5625 206.476562 37.253906 206.355469 37.324219 C 206.238281 37.398438 205.980469 37.261719 205.789062 37.023438 C 205.464844 36.621094 205.476562 36.617188 205.953125 36.960938 C 206.460938 37.328125 206.460938 37.324219 205.96875 36.761719 C 205.695312 36.453125 205.332031 36.25 205.160156 36.3125 C 204.988281 36.378906 204.636719 36.183594 204.375 35.886719 L 203.902344 35.339844 L 204.480469 35.816406 C 204.796875 36.078125 205.054688 36.222656 205.054688 36.140625 C 205.054688 35.847656 200.953125 32.941406 200.730469 33.078125 C 200.605469 33.152344 200.347656 33.015625 200.15625 32.777344 C 199.832031 32.375 199.847656 32.371094 200.320312 32.71875 C 200.796875 33.066406 200.808594 33.0625 200.472656 32.644531 C 200.273438 32.398438 199.960938 32.253906 199.773438 32.320312 C 199.589844 32.390625 199.359375 32.320312 199.265625 32.167969 C 199.148438 31.984375 199.210938 31.960938 199.449219 32.101562 C 199.753906 32.285156 199.757812 32.253906 199.453125 31.890625 C 199.257812 31.652344 198.914062 31.492188 198.691406 31.527344 C 198.46875 31.566406 198.277344 31.425781 198.269531 31.21875 C 198.265625 31.011719 198.066406 30.859375 197.828125 30.878906 C 197.589844 30.894531 197.421875 30.785156 197.449219 30.628906 C 197.480469 30.472656 197.304688 30.359375 197.058594 30.378906 C 196.8125 30.398438 196.675781 30.3125 196.753906 30.191406 C 196.882812 29.992188 196.519531 29.867188 196.03125 29.941406 C 195.925781 29.957031 195.867188 29.832031 195.902344 29.660156 C 195.9375 29.488281 195.769531 29.359375 195.53125 29.378906 C 195.289062 29.398438 195.117188 29.285156 195.144531 29.128906 C 195.175781 28.972656 195 28.863281 194.753906 28.882812 C 194.5 28.902344 194.382812 28.800781 194.476562 28.652344 C 194.582031 28.488281 194.484375 28.445312 194.226562 28.542969 C 193.996094 28.628906 193.730469 28.574219 193.632812 28.421875 C 193.519531 28.246094 193.585938 28.207031 193.816406 28.320312 C 194.398438 28.601562 193.03125 27.652344 191.921875 27 C 191.34375 26.664062 190.992188 26.554688 191.109375 26.75 C 191.222656 26.941406 191.003906 26.777344 190.625 26.386719 C 190.234375 25.992188 189.773438 25.738281 189.566406 25.816406 C 189.363281 25.890625 189.121094 25.828125 189.023438 25.675781 C 188.917969 25.507812 188.964844 25.46875 189.144531 25.578125 C 189.308594 25.675781 189.441406 25.695312 189.441406 25.621094 C 189.441406 25.546875 188.96875 25.25 188.390625 24.960938 C 187.722656 24.632812 187.402344 24.558594 187.515625 24.769531 C 187.613281 24.953125 187.480469 24.859375 187.222656 24.5625 C 186.65625 23.917969 184.441406 22.785156 184.695312 23.273438 C 184.792969 23.453125 184.707031 23.40625 184.503906 23.167969 C 184.304688 22.929688 184.066406 22.808594 183.972656 22.898438 C 183.882812 22.988281 183.808594 22.921875 183.808594 22.753906 C 183.808594 22.585938 183.691406 22.519531 183.550781 22.601562 C 183.410156 22.6875 183.296875 22.632812 183.296875 22.476562 C 183.296875 22.324219 183.179688 22.269531 183.039062 22.351562 C 182.898438 22.4375 182.785156 22.382812 182.785156 22.226562 C 182.785156 22.074219 182.679688 22.011719 182.550781 22.089844 C 182.25 22.269531 181.472656 21.984375 181.621094 21.746094 C 181.777344 21.5 179.480469 20.433594 179.183594 20.613281 C 179.050781 20.695312 178.945312 20.644531 178.945312 20.503906 C 178.945312 20.363281 178.753906 20.316406 178.519531 20.40625 C 178.261719 20.5 178.15625 20.464844 178.253906 20.308594 C 178.441406 20.011719 177.230469 19.402344 176.875 19.617188 C 176.746094 19.695312 176.640625 19.628906 176.640625 19.46875 C 176.640625 19.308594 176.460938 19.246094 176.242188 19.328125 C 175.984375 19.421875 175.910156 19.375 176.027344 19.1875 C 176.152344 18.992188 176.070312 18.949219 175.785156 19.054688 C 175.550781 19.144531 175.359375 19.109375 175.359375 18.980469 C 175.359375 18.851562 175.167969 18.820312 174.933594 18.90625 C 174.667969 19.007812 174.570312 18.96875 174.675781 18.800781 C 174.890625 18.460938 174.210938 18.199219 173.652344 18.40625 C 173.386719 18.507812 173.289062 18.46875 173.394531 18.300781 C 173.613281 17.960938 172.929688 17.699219 172.375 17.90625 C 172.0625 18.023438 172.003906 17.976562 172.160156 17.734375 C 172.316406 17.488281 172.257812 17.441406 171.945312 17.558594 C 171.710938 17.644531 171.519531 17.597656 171.519531 17.449219 C 171.519531 17.300781 171.347656 17.246094 171.136719 17.324219 C 170.925781 17.402344 170.753906 17.347656 170.753906 17.199219 C 170.753906 17.050781 170.574219 16.996094 170.355469 17.078125 C 170.105469 17.171875 170.023438 17.125 170.128906 16.953125 C 170.246094 16.769531 170.117188 16.738281 169.726562 16.859375 C 169.296875 16.992188 169.203125 16.957031 169.355469 16.71875 C 169.496094 16.492188 169.433594 16.445312 169.128906 16.558594 C 168.894531 16.644531 168.703125 16.597656 168.703125 16.449219 C 168.703125 16.300781 168.53125 16.246094 168.320312 16.324219 C 168.109375 16.402344 167.9375 16.347656 167.9375 16.199219 C 167.9375 16.050781 167.761719 15.996094 167.550781 16.074219 C 167.339844 16.152344 167.167969 16.097656 167.167969 15.949219 C 167.167969 15.800781 166.996094 15.746094 166.785156 15.824219 C 166.574219 15.902344 166.398438 15.851562 166.398438 15.710938 C 166.398438 15.558594 166.171875 15.523438 165.855469 15.621094 C 165.464844 15.742188 165.367188 15.703125 165.503906 15.484375 C 165.644531 15.265625 165.539062 15.230469 165.121094 15.359375 C 164.691406 15.492188 164.59375 15.457031 164.742188 15.222656 C 164.890625 14.992188 164.792969 14.945312 164.390625 15.046875 C 164.089844 15.125 163.839844 15.078125 163.839844 14.945312 C 163.839844 14.808594 163.597656 14.777344 163.296875 14.871094 C 162.894531 14.996094 162.804688 14.957031 162.953125 14.722656 C 163.097656 14.492188 163.003906 14.445312 162.601562 14.546875 C 162.296875 14.625 162.046875 14.578125 162.046875 14.445312 C 162.046875 14.3125 161.804688 14.277344 161.503906 14.371094 C 161.105469 14.496094 161.011719 14.457031 161.160156 14.226562 C 161.308594 13.992188 161.183594 13.957031 160.65625 14.085938 C 160.148438 14.210938 160.007812 14.175781 160.148438 13.957031 C 160.28125 13.746094 160.171875 13.699219 159.785156 13.800781 C 159.480469 13.875 159.230469 13.824219 159.230469 13.683594 C 159.230469 13.542969 159 13.488281 158.71875 13.558594 C 158.4375 13.632812 158.207031 13.574219 158.207031 13.433594 C 158.207031 13.292969 157.976562 13.238281 157.695312 13.308594 C 157.414062 13.382812 157.183594 13.324219 157.183594 13.1875 C 157.183594 13.039062 156.90625 13 156.523438 13.09375 C 156.046875 13.210938 155.914062 13.171875 156.046875 12.960938 C 156.183594 12.746094 156.046875 12.710938 155.558594 12.832031 C 155.125 12.9375 154.878906 12.894531 154.878906 12.714844 C 154.878906 12.539062 154.636719 12.492188 154.21875 12.597656 C 153.742188 12.710938 153.609375 12.675781 153.746094 12.460938 C 153.878906 12.246094 153.742188 12.210938 153.253906 12.332031 C 152.828125 12.433594 152.574219 12.394531 152.574219 12.222656 C 152.574219 12.046875 152.292969 12.007812 151.777344 12.121094 C 151.167969 12.25 151.023438 12.21875 151.175781 11.976562 C 151.328125 11.734375 151.179688 11.699219 150.554688 11.820312 C 149.972656 11.933594 149.785156 11.898438 149.914062 11.695312 C 150.042969 11.492188 149.859375 11.457031 149.289062 11.570312 C 148.777344 11.667969 148.480469 11.625 148.480469 11.453125 C 148.480469 11.28125 148.160156 11.242188 147.585938 11.347656 C 146.976562 11.457031 146.6875 11.417969 146.6875 11.21875 C 146.6875 11.027344 146.421875 10.980469 145.921875 11.078125 C 145.4375 11.171875 145.152344 11.125 145.152344 10.953125 C 145.152344 10.769531 144.800781 10.730469 144.128906 10.835938 C 143.4375 10.941406 143.105469 10.902344 143.105469 10.710938 C 143.105469 10.519531 142.773438 10.476562 142.09375 10.582031 C 141.46875 10.679688 141.019531 10.636719 140.914062 10.464844 C 140.796875 10.285156 140.265625 10.246094 139.359375 10.359375 C 138.359375 10.480469 137.984375 10.445312 137.984375 10.222656 C 137.984375 10 137.5 9.964844 136.113281 10.085938 C 135.082031 10.175781 134.152344 10.164062 134.042969 10.058594 C 133.769531 9.789062 122.882812 9.78125 122.714844 10.050781 M 134.144531 22.738281 C 199.503906 26.339844 246.105469 83.574219 235.132812 146.769531 C 227.882812 188.53125 193.355469 223.207031 150.527344 231.742188 C 77.179688 246.359375 11.414062 186.796875 20.882812 114.320312 C 27.230469 65.730469 68.753906 26.941406 118.65625 22.984375 C 125.199219 22.464844 128.265625 22.414062 134.144531 22.738281 M 44.800781 42.277344 C 44.800781 42.3125 43.621094 43.464844 42.175781 44.835938 L 39.550781 47.328125 L 42.105469 44.769531 C 44.480469 42.390625 44.800781 42.09375 44.800781 42.277344 M 214.65625 44.707031 C 215.632812 45.667969 216.378906 46.453125 216.304688 46.453125 C 216.234375 46.453125 215.378906 45.667969 214.398438 44.707031 C 213.421875 43.746094 212.679688 42.957031 212.75 42.957031 C 212.820312 42.957031 213.679688 43.746094 214.65625 44.707031 M 36.863281 50.527344 C 36.863281 50.570312 36.488281 50.9375 36.03125 51.339844 L 35.199219 52.074219 L 35.953125 51.261719 C 36.652344 50.503906 36.863281 50.335938 36.863281 50.527344 M 42.367188 211.792969 C 43.203125 212.617188 43.832031 213.292969 43.761719 213.292969 C 43.691406 213.292969 42.949219 212.617188 42.113281 211.792969 C 41.277344 210.96875 40.648438 210.292969 40.71875 210.292969 C 40.789062 210.292969 41.53125 210.96875 42.367188 211.792969 "/>
<path style=" stroke:none;fill-rule:evenodd;fill:rgb(50.980392%,63.921569%,75.294118%);fill-opacity:1;" d="M 177.8125 76.457031 C 174.933594 77.113281 171.894531 79.3125 170.121094 82.015625 C 168.6875 84.199219 168.378906 84.320312 165.96875 83.625 C 154.015625 80.164062 138.21875 88.773438 129.617188 103.433594 C 126.457031 108.816406 126.96875 109.9375 132.4375 109.589844 C 135.085938 109.421875 135.570312 109.089844 137.320312 106.234375 C 146.566406 91.140625 164.199219 85.226562 169.546875 95.429688 C 175.972656 107.6875 145.246094 119.074219 121.472656 113.246094 C 112.507812 111.046875 107.523438 108.648438 98.179688 102.050781 C 94.195312 99.234375 89.425781 97.4375 84.558594 96.914062 C 82.152344 96.65625 81.078125 96.714844 77.539062 97.304688 C 76.300781 97.511719 75.722656 97.160156 74.617188 95.535156 C 68.085938 85.941406 53.054688 88.941406 51.210938 100.207031 C 50.171875 106.546875 56.332031 113.382812 63.09375 113.390625 C 65.730469 113.394531 66.203125 113.808594 66.796875 116.652344 C 68.328125 123.984375 78.136719 132.128906 88.855469 134.96875 C 94.050781 136.347656 95.207031 136.480469 101.898438 136.488281 C 110.339844 136.492188 110.675781 136.257812 108.597656 131.816406 C 107.410156 129.273438 107.269531 129.21875 101.046875 129.046875 C 83.238281 128.558594 71.179688 118.566406 75.816406 108.144531 C 78.0625 103.089844 87.117188 103.183594 93.75 108.332031 C 94.414062 108.847656 95.910156 109.996094 97.078125 110.882812 C 108.492188 119.558594 115.171875 130.425781 117.515625 144.132812 C 117.808594 145.835938 118.226562 147.839844 118.445312 148.585938 C 118.894531 150.109375 118.691406 153.558594 117.738281 160.5625 C 116.386719 170.46875 117.828125 176.542969 122.859375 182.148438 C 124.460938 183.9375 124.511719 184.546875 123.257812 187.121094 C 117.617188 198.710938 132.027344 209.074219 142.726562 201.125 C 147.539062 197.550781 148.675781 192.15625 145.796875 186.574219 C 144.476562 184.019531 144.511719 183.898438 147.273438 181.089844 C 156.300781 171.914062 155.773438 155.566406 145.972656 141.082031 C 142.867188 136.488281 141.632812 136.453125 138.941406 140.894531 C 137.738281 142.878906 137.742188 143.449219 138.96875 145.128906 C 147.230469 156.453125 147.132812 173.808594 138.789062 177.933594 C 130.027344 182.265625 123.679688 174.214844 126.195312 161.96875 C 129.195312 147.386719 134.003906 137.8125 142.59375 129.339844 C 144.351562 127.601562 146.351562 125.542969 147.039062 124.761719 C 148.480469 123.121094 152.554688 121.042969 160.496094 117.898438 C 170.40625 113.972656 176.390625 108.730469 178.304688 102.304688 C 178.898438 100.320312 179.289062 100.003906 181.40625 99.796875 C 185.25 99.421875 187.78125 98.285156 190.363281 95.765625 C 198.953125 87.382812 190.035156 73.660156 177.8125 76.457031 M 183.75 77.300781 C 196.996094 80.347656 194.90625 97.238281 181.121094 98.546875 C 178.214844 98.820312 177.929688 99.066406 176.917969 102.136719 C 174.976562 108.003906 169.464844 112.921875 160.96875 116.367188 C 158.957031 117.183594 155.527344 118.648438 153.347656 119.628906 C 151.167969 120.609375 148.117188 121.8125 146.566406 122.300781 C 145.015625 122.789062 143.464844 123.296875 143.125 123.425781 L 142.503906 123.65625 L 143.316406 124.140625 C 144.742188 124.984375 144.46875 125.5625 140.953125 129.125 C 130.054688 140.171875 122.648438 159.394531 125.03125 170.457031 C 126.96875 179.453125 133.277344 182.605469 140.25 178.0625 C 148.167969 172.902344 148.175781 155.421875 140.265625 144.640625 C 139.019531 142.945312 139.011719 142.308594 140.199219 140.542969 C 142.070312 137.777344 142.871094 137.96875 145.425781 141.796875 C 155.09375 156.28125 155.027344 172.117188 145.261719 181.222656 C 142.917969 183.402344 142.808594 183.992188 144.363281 186.007812 C 149.890625 193.191406 142.371094 204.125 132.949219 202.601562 C 124.953125 201.308594 120.523438 192.65625 124.675781 186.441406 C 126.019531 184.425781 126.007812 183.734375 124.609375 182.082031 C 122.171875 179.203125 121.605469 178.425781 120.816406 176.851562 C 117.445312 170.105469 117.472656 164.675781 120.96875 149.671875 C 121.457031 147.578125 121.855469 145.8125 121.855469 145.742188 C 121.855469 145.671875 121.347656 145.683594 120.730469 145.769531 C 119.285156 145.960938 119.207031 145.824219 118.371094 141.542969 C 115.699219 127.902344 107.355469 116.007812 94.191406 107.074219 C 84.242188 100.324219 74.21875 102.328125 73.777344 111.152344 C 73.253906 121.59375 85.277344 129.722656 101.6875 130.019531 C 106.605469 130.109375 106.820312 130.175781 107.667969 131.953125 C 109.09375 134.941406 108.707031 135.21875 102.9375 135.328125 C 86.035156 135.648438 70.648438 127.230469 68.082031 116.261719 C 67.199219 112.480469 67.179688 112.464844 63.585938 112.15625 C 53.183594 111.265625 48.332031 100.273438 55.511719 93.871094 C 61.253906 88.753906 69.910156 89.886719 74.121094 96.3125 C 75.355469 98.191406 76.082031 98.503906 78.132812 98.03125 C 82.703125 96.980469 88.921875 98.019531 94.335938 100.734375 C 97.015625 102.078125 108.175781 110.234375 110.433594 112.496094 C 113.792969 115.859375 115.164062 117.558594 115.335938 118.5625 C 115.609375 120.183594 115.902344 120.828125 117.117188 122.488281 C 119.402344 125.609375 122.046875 131.453125 123.769531 137.164062 C 124.757812 140.445312 125.515625 140.414062 127.558594 136.992188 C 130.960938 131.304688 135.988281 125.613281 138.6875 124.398438 C 140.171875 123.730469 140.273438 123.5 139.515625 122.558594 C 138.664062 121.5 137.226562 121.179688 132.734375 121.035156 C 122.535156 120.710938 116.707031 118.960938 114.769531 115.632812 C 112.800781 112.253906 113.3125 111.882812 118.070312 113.238281 C 132.386719 117.3125 147.320312 116.367188 160.523438 110.542969 C 170.769531 106.023438 174.617188 97.613281 168.808594 92.433594 C 160.371094 84.910156 145.117188 90.996094 136.238281 105.429688 C 134.589844 108.117188 133.875 108.535156 131.351562 108.292969 C 128.441406 108.015625 128.328125 107.488281 130.375 103.839844 C 138.210938 89.851562 153.988281 81.226562 165.734375 84.503906 C 168.667969 85.324219 169.273438 85.132812 170.511719 83.007812 C 173.199219 78.398438 178.527344 76.101562 183.75 77.300781 M 178.300781 82.257812 C 175.894531 83.351562 174.664062 85.367188 174.921875 87.808594 C 175.734375 95.457031 185.492188 95.972656 187.128906 88.449219 C 188.160156 83.707031 183.03125 80.109375 178.300781 82.257812 M 184.019531 83.855469 C 187.851562 86.875 185.894531 92.910156 181.085938 92.910156 C 176.703125 92.910156 174.511719 87.800781 177.476562 84.503906 C 179.121094 82.675781 182.144531 82.375 184.019531 83.855469 M 61.28125 95.800781 C 55.585938 97.835938 56.9375 106.511719 63.105469 107.5 C 67.710938 108.238281 71.726562 102.1875 69.238281 98.257812 C 67.691406 95.820312 64.222656 94.746094 61.28125 95.800781 M 65.382812 96.925781 C 70.285156 98.128906 69.609375 105.910156 64.546875 106.574219 C 61.34375 106.992188 58.878906 104.796875 58.878906 101.523438 C 58.878906 98.058594 61.746094 96.03125 65.382812 96.925781 M 123.316406 121.285156 C 127.046875 122.023438 128.671875 122.214844 132.300781 122.347656 C 138.105469 122.558594 138.097656 122.554688 135.023438 125.886719 C 132.355469 128.777344 130.792969 130.734375 128.46875 134.09375 C 125.292969 138.683594 125.277344 138.683594 123.65625 133.871094 C 123.054688 132.089844 121.5625 128.691406 120.183594 125.964844 C 116.910156 119.503906 116.605469 119.957031 123.316406 121.285156 M 132.863281 186.050781 C 128.070312 187.472656 126.871094 192.996094 130.601562 196.484375 C 134.578125 200.203125 140.882812 197.023438 140.839844 191.320312 C 140.8125 187.75 136.570312 184.953125 132.863281 186.050781 M 137.308594 187.878906 C 140.058594 189.359375 140.390625 193.855469 137.902344 195.984375 C 134.222656 199.136719 128.851562 195.898438 129.785156 191.09375 C 130.457031 187.632812 134.019531 186.109375 137.308594 187.878906 "/>
<path style=" stroke:none;fill-rule:evenodd;fill:rgb(35.686275%,54.509804%,68.235294%);fill-opacity:1;" d="M 179.199219 83.183594 C 178.371094 83.523438 177.203125 84.609375 176.746094 85.464844 C 176.191406 86.5 176.308594 86.515625 177.191406 85.535156 C 179.402344 83.078125 183.554688 83.300781 185.3125 85.972656 C 185.980469 86.996094 186.03125 86.328125 185.363281 85.257812 C 184.195312 83.386719 181.171875 82.371094 179.199219 83.183594 M 156.542969 90.78125 C 148.953125 92.78125 142.269531 98.152344 137.320312 106.234375 C 136.339844 107.832031 135.542969 108.839844 135.042969 109.105469 C 134.027344 109.648438 128.816406 109.703125 128.167969 109.175781 C 127.902344 108.960938 127.742188 108.933594 127.742188 109.105469 C 127.742188 109.660156 128.945312 110.121094 131.050781 110.375 C 134.648438 110.8125 135.195312 110.523438 137.328125 107.019531 C 146.410156 92.125 163.117188 86.484375 169.535156 96.148438 C 170.484375 97.574219 170.242188 96.519531 169.25 94.90625 C 167.105469 91.417969 161.292969 89.53125 156.542969 90.78125 M 191.765625 94.199219 C 189.546875 97.339844 185.9375 99.328125 181.632812 99.773438 C 179.488281 99.996094 179.246094 100.09375 178.8125 100.90625 C 178.277344 101.921875 178.339844 102.074219 179.03125 101.4375 C 179.484375 101.023438 180.136719 100.832031 181.671875 100.660156 C 186.734375 100.097656 190.324219 97.84375 192.367188 93.949219 C 193.027344 92.6875 192.746094 92.804688 191.765625 94.199219 M 62.21875 96.949219 C 60.925781 97.3125 59.960938 98.0625 59.386719 99.164062 C 58.671875 100.535156 58.734375 100.53125 60.054688 99.15625 C 62.457031 96.652344 66.355469 96.929688 68.105469 99.726562 C 68.378906 100.164062 68.605469 100.359375 68.605469 100.152344 C 68.605469 97.910156 65.085938 96.144531 62.21875 96.949219 M 79.871094 104.617188 C 77.601562 105.34375 76.039062 106.925781 75.40625 109.144531 C 75.308594 109.488281 75.585938 109.171875 76.027344 108.441406 C 78.863281 103.742188 87.089844 104.292969 94.371094 109.667969 C 102.679688 115.800781 108.898438 122.65625 112.820312 130 C 114.84375 133.789062 114.902344 133.53125 112.921875 129.542969 C 109.566406 122.78125 103.804688 115.996094 97.078125 110.882812 C 95.910156 109.996094 94.414062 108.847656 93.75 108.335938 C 90.007812 105.433594 83.09375 103.582031 79.871094 104.617188 M 177.40625 104.574219 C 177.40625 105.160156 174.804688 108.636719 173.160156 110.246094 C 169.699219 113.628906 166.703125 115.441406 160.496094 117.898438 C 152.554688 121.042969 148.480469 123.121094 147.039062 124.761719 C 146.351562 125.542969 144.351562 127.601562 142.59375 129.339844 C 137.796875 134.070312 134.097656 139.316406 131.417969 145.175781 C 129.921875 148.449219 130.019531 148.605469 131.578125 145.421875 C 137.621094 133.058594 148.109375 123.636719 161.675781 118.378906 C 167.71875 116.039062 172.289062 112.796875 175.230469 108.769531 C 176.480469 107.054688 177.769531 104.664062 177.554688 104.457031 C 177.472656 104.378906 177.40625 104.433594 177.40625 104.574219 M 52.238281 107.054688 C 52.210938 107.597656 54.316406 110.390625 55.507812 111.390625 C 57.660156 113.207031 59.929688 114.0625 63.429688 114.378906 C 64.894531 114.511719 65.703125 114.707031 66.050781 115.015625 C 66.636719 115.53125 66.679688 115.421875 66.261719 114.527344 C 65.929688 113.816406 64.753906 113.394531 63.09375 113.390625 C 59.582031 113.386719 54.863281 110.671875 52.667969 107.394531 C 52.4375 107.050781 52.246094 106.898438 52.238281 107.054688 M 67.839844 119.960938 C 67.839844 122.617188 74.273438 129.152344 80.023438 132.332031 C 88.933594 137.253906 106.957031 139.597656 109.285156 136.132812 L 109.691406 135.527344 L 108.9375 136.007812 C 107.863281 136.695312 96.808594 136.722656 93.441406 136.042969 C 82.28125 133.804688 72.917969 128.230469 68.800781 121.367188 C 68.273438 120.488281 67.839844 119.855469 67.839844 119.960938 M 117.761719 120.738281 C 117.761719 121.605469 118.042969 121.828125 118.992188 121.707031 C 119.511719 121.640625 121.167969 121.820312 122.675781 122.101562 C 124.183594 122.386719 127.695312 122.8125 130.484375 123.042969 C 134.226562 123.355469 135.675781 123.566406 136.023438 123.855469 C 136.453125 124.214844 136.523438 124.207031 136.835938 123.789062 C 137.699219 122.636719 137.066406 122.460938 131.457031 122.28125 C 128.410156 122.183594 126.699219 121.976562 123.191406 121.269531 C 118.246094 120.277344 117.761719 120.230469 117.761719 120.738281 M 138.652344 145.171875 C 138.886719 145.617188 139.300781 146.292969 139.574219 146.671875 C 139.847656 147.050781 140.636719 148.402344 141.328125 149.667969 C 142.015625 150.9375 142.585938 151.890625 142.585938 151.78125 C 142.597656 151.339844 140.652344 147.613281 139.59375 146.042969 C 138.375 144.234375 137.964844 143.855469 138.652344 145.171875 M 118.148438 148.703125 C 118.214844 149.375 118.289062 151.058594 118.308594 152.449219 L 118.347656 154.972656 L 118.589844 152.449219 C 118.792969 150.355469 118.761719 149.710938 118.429688 148.699219 L 118.023438 147.480469 L 118.148438 148.703125 M 150.667969 176.761719 C 149.953125 178.113281 148.980469 179.351562 147.28125 181.082031 C 145.84375 182.542969 144.894531 183.710938 144.894531 184.023438 C 144.894531 185.367188 149.859375 179.363281 151.207031 176.390625 C 152.121094 174.371094 151.820312 174.578125 150.667969 176.761719 M 119.296875 177.414062 C 119.292969 177.980469 121.265625 181.171875 122.628906 182.808594 C 123.789062 184.195312 124.160156 184.507812 124.160156 184.097656 C 124.160156 183.800781 123.722656 183.085938 123.1875 182.503906 C 121.871094 181.078125 120.796875 179.675781 119.980469 178.324219 C 119.605469 177.707031 119.300781 177.296875 119.296875 177.414062 M 133.121094 187.347656 C 131.871094 187.710938 130.707031 188.632812 130.210938 189.652344 C 129.640625 190.824219 129.679688 191.367188 130.269531 190.4375 C 130.902344 189.441406 131.539062 188.914062 132.671875 188.449219 C 135.003906 187.5 137.71875 188.347656 139.042969 190.4375 C 139.722656 191.511719 139.625 190.632812 138.933594 189.441406 C 137.921875 187.703125 135.230469 186.734375 133.121094 187.347656 M 122.882812 197.246094 C 122.882812 197.347656 123.246094 198.042969 123.683594 198.792969 C 128.257812 206.570312 139.941406 207.011719 144.996094 199.597656 C 146.402344 197.53125 146.558594 196.992188 145.246094 198.71875 C 139.902344 205.765625 128.683594 205.542969 123.867188 198.289062 C 123.058594 197.070312 122.878906 196.878906 122.882812 197.246094 "/>
</g>
</svg>
