<svg width="256" height="256" viewBox="0 0 256 256" fill="none" xmlns="http://www.w3.org/2000/svg">
<path d="M22.0215 0H233.978V11.0108L244.989 11.0108V22.0215H256V233.979H244.989V244.989H233.978V256L22.0215 256L22.0215 244.989H11.0108L11.0108 233.978H2.88777e-06L0 256V22.0215H11.0108V11.0108H22.0215V0Z" fill="black"/>
<path fill-rule="evenodd" clip-rule="evenodd" d="M83.6817 46.7957V57.7873H72.671V68.7789H61.6602V112.745H72.671V123.737H94.6925V145.72H105.703V134.729H116.714V145.72H138.735V134.729H149.746V145.72H160.757V123.737H182.778V112.745H193.789V68.7789H182.778V57.7873H171.768V46.7957H83.6817ZM182.778 79.7705H171.768V68.7789H149.746V79.7705H138.735V101.754H149.746V112.745H171.768V101.754H182.778V79.7705ZM116.714 79.7705H105.703V68.7789H83.6817V79.7705H72.671V101.754H83.6817V112.745H105.703V101.754H116.714V79.7705ZM138.735 112.745H116.714V123.737H138.735V112.745Z" fill="#00FF00"/>
<path d="M83.6817 134.729H72.671V145.72H61.6602V156.712H83.6817V167.703H94.6925V178.695H83.6817V189.687H61.6602V200.678H72.671V211.67H83.6817V189.687H94.6925V178.695H160.757V189.687H171.768V211.67H182.778V200.678H193.789V189.687H171.768V178.695H160.757V167.703H171.768V156.712H193.789V145.72H182.778V134.729H171.768V156.712H160.757V167.703H94.6925V156.712H83.6817V134.729Z" fill="#00FF00"/>
</svg>
