<svg version="1.2" xmlns="http://www.w3.org/2000/svg" viewBox="0 0 256 256" width="256" height="256">
	<title>ButtCoinASA_symbol_20220605-ai</title>
	<style>
		.s0 { fill: #f7931a } 
		.s1 { fill: #ffffff } 
	</style>
	<g id="Layer 1">
		<g id="&lt;Group&gt;">
			<circle id="&lt;Path&gt;" class="s0" cx="128" cy="128" r="128"/>
			<g id="&lt;Group&gt;">
				<path id="&lt;Compound Path&gt;" fill-rule="evenodd" class="s1" d="m92.2 198.9c-16.8 0-29.7-6.1-38.3-18-8.3-11.2-11.2-25.5-8.7-42.5l1.4-6.6h-25.9l2.3-11.8h25.9l1-4.8h-25.9l2.1-11h26l5.2-26.5h65.9 75.5l5.3 26.5h25.9l2.2 11h-26l1 4.8h25.9l2.3 11.8h-25.8l1.3 6.6c2.5 17-0.4 31.2-8.7 42.4-8.6 12-21.5 18-38.3 18-13.3 0-23.6-3.6-30.7-10.8-1.8-1.8-3.4-3.8-4.9-6.2l-0.2-0.2-0.2 0.2c-1.4 2.4-3.1 4.5-4.9 6.3-7.1 7.2-17.4 10.8-30.7 10.8zm-16.1-98.1c-0.2 0.6-1.3 11.3-2.3 20.8-0.7 6.5-1.3 12-1.3 12.4q-0.2 1.2-0.3 2.1c-0.8 7.7 0.6 14 4.2 18.7 3.6 4.9 9 7.4 15.9 7.4 6.9 0 12.4-2.5 16.5-7.4 4-4.7 6.1-11.1 6.3-19.1l0.8-35.1h-39.8zm64.9 34.9c0.2 8 2.3 14.4 6.2 19.1 4.1 4.9 9.7 7.3 16.5 7.3 7 0 12.3-2.4 16-7.3 3.5-4.7 4.9-11 4.2-18.7q-0.1-0.9-0.3-2.1c-0.1-0.4-0.7-6-1.4-12.4-1-9.5-2.1-20.2-2.2-20.8l-0.1-0.2h-39.8z"/>
				<path id="&lt;Compound Path&gt;" fill-rule="evenodd" class="s0" d="m204.1 104h26l2.2 11.4h-25.9l0.9 4.4h25.9l2.4 12.2h-25.9l1.3 6.4c2.5 16.8-0.2 31.2-8.7 42.6-8.7 11.9-21.6 18.1-38.5 18.1-13.4 0-23.7-3.7-30.9-10.9q-2.7-2.8-4.9-6.2-2.2 3.5-4.9 6.2c-7.2 7.2-17.5 10.9-30.9 10.9-16.9 0-29.8-6.2-38.5-18.1-8.5-11.4-11.2-25.7-8.7-42.6l1.3-6.4h-25.9l2.4-12.2h25.9l0.9-4.4h-25.9l2.2-11.4h26l5.3-26.5h65.8q0 0 0 0h75.9zm-80.7-26.1h-66l-5.2 26.1v0.4h-26l-2.1 10.6h26l-0.2 0.5-0.8 4.4-0.1 0.4h-25.9l-2.2 11.3h25.8l-0.1 0.5-1.2 6.4c-2.6 16.9 0.3 31.1 8.6 42.3 8.6 11.9 21.4 17.9 38.1 17.9 13.2 0 23.5-3.6 30.6-10.8 1.8-1.7 3.4-3.8 4.9-6.2l0.3-0.5 0.4 0.5c1.5 2.3 3.1 4.4 4.8 6.2 7.1 7.1 17.4 10.7 30.7 10.7 16.6 0 29.5-6 38.1-17.9 8.2-11.1 11.1-25.4 8.6-42.3l-1.3-6.3-0.1-0.5h25.9l-2.2-11.3h-25.9l-0.1-0.4-0.9-4.4-0.1-0.5h25.9l-2.1-10.6h-25.9l-0.1-0.4-5.2-26.1zm-47.2 77.1c-3.6-4.8-5-11.1-4.2-18.9q0-0.9 0.2-2.1c0.1-0.4 0.7-6.2 1.4-12.4 1.2-11.5 2.1-20.3 2.2-20.9l0.1-0.3h40.2v0.4l-0.8 35c-0.2 8-2.3 14.4-6.3 19.2-4.1 4.9-9.8 7.4-16.7 7.4-7 0-12.4-2.5-16.1-7.4zm70.8-0.1c-4-4.7-6.1-11.2-6.3-19.2l-0.8-34.9-0.1-0.5h40.3v0.4c0.1 0.6 1.1 9.4 2.3 20.8 0.7 6.2 1.3 12.1 1.3 12.4q0.2 1.3 0.3 2.2c0.8 7.7-0.6 14-4.2 18.8-3.7 4.9-9.1 7.4-16.1 7.4-7 0-12.6-2.4-16.7-7.4zm32.5-0.2c3.5-4.8 4.9-11 4.1-18.6q-0.1-0.8-0.3-2.1c-0.1-0.9-3.4-32.2-3.6-33.2h-39.4l0.8 34.9c0.2 7.9 2.3 14.2 6.2 19 4.1 4.8 9.5 7.2 16.4 7.2 6.9 0 12.1-2.4 15.8-7.2zm-70.9 0c4-4.7 6.1-11.1 6.2-19l0.9-34.9h-39.4c-0.2 1-3.5 32.4-3.6 33.2q-0.2 1.3-0.3 2.2c-0.8 7.6 0.6 13.8 4.1 18.5 3.6 4.8 8.9 7.3 15.8 7.3 6.8 0 12.3-2.5 16.3-7.3z"/>
			</g>
		</g>
	</g>
</svg>