<?xml version="1.0" encoding="utf-8"?>
<!-- Generator: Adobe Adobe Illustrator 24.2.0, SVG Export Plug-In . SVG Version: 6.00 Build 0)  -->
<svg version="1.1" id="Layer_1" xmlns="http://www.w3.org/2000/svg" xmlns:xlink="http://www.w3.org/1999/xlink" x="0px" y="0px"
	 width="256px" height="256px" viewBox="0 0 256 256" style="enable-background:new 0 0 256 256;" xml:space="preserve">
<style type="text/css">
	.st0{fill:#F7931A;}
	.st1{fill:#FFFFFF;}
</style>
<g>
	<circle class="st0" cx="128" cy="128" r="128"/>
	<g>
		<path class="st1" d="M92.17,198.6c-16.65,0-29.47-6.02-38.09-17.9c-8.23-11.13-11.11-25.33-8.57-42.22l1.39-6.97H21.05l2.19-11.17
			h25.9l1.08-5.43H24.3l2.05-10.46h25.94l5.27-26.46h65.95l0-0.03h74.93l5.27,26.49h25.94l2.05,10.46H205.8l1.08,5.43h25.89
			l2.19,11.17H209.1l1.38,6.96c2.54,16.86-0.34,31.07-8.57,42.19c-8.62,11.88-21.44,17.9-38.09,17.9c-13.22,0-23.5-3.61-30.56-10.72
			c-1.76-1.77-3.39-3.84-4.83-6.14l-0.42-0.67l-0.42,0.67c-1.46,2.32-3.09,4.41-4.86,6.19C115.67,195,105.39,198.6,92.17,198.6z
			 M75.78,100.72c-0.11,0.57-1.04,9.36-2.26,20.8c-0.66,6.21-1.28,12.08-1.34,12.43c-0.14,0.87-0.24,1.59-0.3,2.18
			c-0.79,7.74,0.64,14.1,4.24,18.89c3.72,4.94,9.15,7.45,16.15,7.45c6.99,0,12.62-2.5,16.75-7.43c4-4.78,6.13-11.27,6.32-19.28
			l0.86-35.44H75.86L75.78,100.72z M140.64,135.7c0.19,8.01,2.32,14.5,6.32,19.28c4.13,4.93,9.76,7.43,16.75,7.43
			c7,0,12.43-2.51,16.15-7.45c3.61-4.79,5.04-11.15,4.24-18.89c-0.06-0.58-0.16-1.31-0.3-2.18c-0.05-0.34-0.67-6.16-1.32-12.32
			c-1.22-11.49-2.16-20.33-2.27-20.9l-0.08-0.41h-40.36L140.64,135.7z"/>
		<path class="st0" d="M198.03,78.46l5.11,25.69l0.16,0.8h0.82h25.12l1.85,9.46h-24.69h-1.22l0.24,1.2l0.88,4.43l0.16,0.8h0.82
			h25.07l1.99,10.18h-24.64h-1.22l0.24,1.2l1.26,6.31c2.53,16.75-0.32,30.83-8.48,41.85c-8.52,11.74-21.2,17.69-37.68,17.69
			c-13.08,0-23.24-3.56-30.2-10.57c-1.73-1.75-3.34-3.78-4.76-6.05l-0.85-1.35l-0.85,1.35c-1.44,2.29-3.05,4.34-4.79,6.1
			c-6.96,7.01-17.13,10.57-30.2,10.57c-16.48,0-29.16-5.95-37.69-17.7c-8.15-11.01-11-25.09-8.48-41.8l1.27-6.4l0.24-1.2H46.3H21.65
			l1.99-10.18h25.07h0.82l0.16-0.8l0.88-4.43l0.24-1.2H49.6h-24.7l1.85-9.46h25.12h0.82l0.16-0.8l5.11-25.65h65.06l0.95-0.03H198.03
			 M163.72,162.91c7.17,0,12.73-2.57,16.55-7.65c3.69-4.9,5.15-11.37,4.34-19.24c-0.06-0.62-0.16-1.37-0.3-2.2
			c-0.06-0.38-0.67-6.19-1.33-12.35c-1.26-11.86-2.16-20.3-2.27-20.88l-0.16-0.81h-0.83H140.3h-1.02l0.02,1.02l0.84,34.92
			c0.2,8.13,2.36,14.72,6.44,19.59C150.81,160.35,156.57,162.91,163.72,162.91 M92.29,162.96c7.14,0,12.91-2.56,17.14-7.61
			c4.08-4.87,6.24-11.46,6.44-19.59l0.84-34.93l0.02-1.02h-1.02H76.27h-0.83l-0.16,0.81c-0.11,0.59-1.01,9.03-2.27,20.9
			c-0.65,6.16-1.27,11.97-1.33,12.34c-0.13,0.84-0.24,1.58-0.3,2.21c-0.8,7.87,0.66,14.35,4.34,19.24
			C79.55,160.39,85.12,162.96,92.29,162.96 M198.85,77.46h-75.82c0,0,0,0.02,0,0.03H57.15l-5.27,26.46H25.94l-2.25,11.46H49.6
			l-0.88,4.43h-25.9l-2.39,12.18H46.3l-1.27,6.4c-2.54,16.84,0.22,31.19,8.66,42.59c8.67,11.95,21.59,18.1,38.49,18.1
			c13.42,0,23.77-3.67,30.91-10.87c1.83-1.84,3.47-3.94,4.93-6.27c1.46,2.32,3.09,4.4,4.9,6.22c7.15,7.2,17.5,10.86,30.91,10.86
			c16.9,0,29.82-6.15,38.49-18.1c8.43-11.4,11.2-25.74,8.66-42.58l-1.27-6.36h25.85l-2.39-12.18h-25.89l-0.88-4.43h25.91
			l-2.25-11.46h-25.94L198.85,77.46L198.85,77.46z M163.72,161.91c-6.87,0-12.34-2.44-16.37-7.25c-3.96-4.73-6.01-11.09-6.2-18.97
			l-0.84-34.92h39.43c0.19,1.01,3.46,32.35,3.59,33.2c0.14,0.86,0.23,1.58,0.29,2.15c0.78,7.59-0.58,13.8-4.15,18.54
			C175.85,159.47,170.58,161.91,163.72,161.91L163.72,161.91z M92.29,161.96c-6.87,0-12.13-2.44-15.75-7.25
			c-3.56-4.73-4.92-10.95-4.15-18.54c0.06-0.58,0.15-1.29,0.29-2.15c0.13-0.86,3.4-32.2,3.59-33.21h39.44l-0.84,34.93
			c-0.19,7.88-2.24,14.24-6.21,18.97C104.63,159.53,99.15,161.96,92.29,161.96L92.29,161.96z"/>
	</g>
</g>
</svg>
