<?xml version="1.0" encoding="UTF-8" standalone="no"?>
<svg
   width="256"
   height="256"
   viewBox="0 0 192 191.99999"
   version="1.1"
   id="svg16"
   xmlns="http://www.w3.org/2000/svg"
   xmlns:svg="http://www.w3.org/2000/svg">
  <defs
     id="defs16" />
  <g
     id="layer3">
    <g
       id="g7"
       transform="matrix(1.0459038,0,0,1.0459038,-2.3740076,-6.739078)">
      <path
         fill="#030303"
         stroke="#030303"
         stroke-width="0.0146695"
         opacity="1"
         d="m 50.616971,48.902993 8.042598,-28.756077 24.879788,4.241984 9.525897,-8.278727 27.094476,22.246382 38.43423,1.086965 -3.09446,29.929241 16.41284,7.583528 -23.82079,63.471451 -17.0115,35.41111 -26.82547,-3.73733 -8.245658,7.62365 -23.390756,-16.53112 0.202516,-4.70314 -41.716353,-2.34452 2.949027,-28.60972 -15.00384,-7.47937 z"
         id="path1" />
      <path
         fill="#91e7d9"
         stroke="#91e7d9"
         stroke-width="0.0169586"
         opacity="1"
         d="m 85.405235,29.113659 c 2.966619,-2.47822 5.842805,-5.028793 8.755164,-7.561276 5.155421,3.961529 10.310841,7.923058 15.393901,11.956951 1.66421,1.483309 3.63592,2.586745 5.35439,4.033882 -3.76255,0.777838 -7.68789,0.687392 -11.41427,1.718474 -9.315917,2.098346 -17.419885,7.452749 -25.216321,12.752879 -0.687391,0.397953 -1.103446,1.103436 -1.754655,1.519491 -1.537572,0.289427 -2.876173,1.085345 -4.287138,1.6642 -10.347014,4.504212 -18.903199,13.096569 -23.081801,23.588301 -0.271336,0.886363 -0.596935,1.772736 -1.085345,2.586756 0.452227,-6.928158 2.442037,-13.621161 3.925347,-20.368427 1.465228,-6.349302 3.038982,-12.680514 4.468028,-19.029826 1.465229,-5.680003 2.568675,-11.45045 4.160511,-17.09427 8.248677,1.465218 16.605881,2.460128 24.782189,4.232865 z"
         id="path2" />
      <path
         fill="#fafcfb"
         stroke="#fafcfb"
         stroke-width="0.0169586"
         opacity="1"
         d="m 108.28806,42.463483 c 5.77045,-0.397964 11.57707,0.05428 17.34752,0.379862 9.69581,0.470319 19.39161,1.049174 29.08742,1.465229 -0.56077,7.000512 -1.30244,13.982943 -1.93555,20.965363 -10.76307,-3.726375 -21.21861,-8.284849 -31.83697,-12.427269 -4.05198,-1.284327 -8.23058,-2.351592 -12.49962,-2.478219 -7.27185,-0.379873 -14.380903,1.82701 -20.947284,4.757457 -0.615031,0.162799 -0.976806,0.6693 -1.139621,1.248155 -12.210194,2.134518 -23.534026,9.713895 -29.666256,20.549307 -3.237964,5.535294 -5.083066,11.812242 -5.933247,18.161549 -0.379883,2.26115 -0.596946,4.55847 -0.524591,6.855803 -0.886374,-4.160513 -2.206884,-8.230583 -2.496311,-12.499628 -0.198982,-2.695292 -0.05428,-5.426756 0.32561,-8.067775 0.48841,-0.81402 0.814009,-1.700393 1.085345,-2.586756 4.178602,-10.491732 12.734787,-19.084089 23.081801,-23.588301 1.410965,-0.578855 2.749566,-1.374773 4.287138,-1.6642 1.248155,-0.108536 2.279237,-0.976819 3.400765,-1.5014 6.059885,-2.767648 11.99313,-5.951349 18.432901,-7.832623 3.27413,-0.777836 6.54826,-1.609937 9.93095,-1.736554 z"
         id="path3" />
      <path
         fill="#91e7d9"
         stroke="#91e7d9"
         stroke-width="0.0169586"
         opacity="1"
         d="m 120.37163,56.156988 c 4.44994,1.356692 8.39338,3.907265 12.59007,5.842812 10.546,5.969429 21.36333,11.486632 32.2711,16.76867 -0.61503,1.881272 -1.41095,3.708283 -2.20687,5.535293 -5.96943,14.561784 -11.73988,29.195937 -18.08919,43.594937 -0.85019,1.50141 -1.35668,3.14752 -2.08025,4.72128 0.70547,-2.13452 0.95873,-4.37758 1.5014,-6.54828 0.92255,-4.77555 1.93554,-9.5511 2.60484,-14.3809 1.13962,-7.41658 0.83211,-15.104493 -1.39287,-22.28589 -1.04917,-3.852992 -2.74955,-7.47083 -4.57656,-10.998222 -3.31033,-5.661921 -7.07287,-11.12485 -11.84841,-15.647143 -2.56867,-2.641019 -5.64382,-4.703193 -8.77326,-6.602557 z"
         id="path6" />
      <path
         fill="#91e7d9"
         stroke="#91e7d9"
         stroke-width="0.0169586"
         opacity="1"
         d="m 41.955012,74.282349 c 1.211973,-2.532482 1.790838,-5.372483 3.49121,-7.669812 -0.633118,3.925357 -0.9949,7.886886 -1.899354,11.77606 -0.922556,6.222685 -2.025993,12.499633 -1.664211,18.81275 0.289428,8.773263 3.545484,17.220913 8.085868,24.655573 5.173501,8.26675 12.62625,15.213 21.453772,19.44586 -6.63873,-1.28432 -12.481542,-4.90216 -18.505235,-7.76025 -9.804341,-5.06497 -19.482053,-10.36511 -29.286394,-15.44816 1.447137,-3.0028 2.514391,-6.16842 3.925356,-9.18931 4.685103,-11.577083 9.659622,-23.045633 14.398988,-34.622711 z"
         id="path8" />
      <path
         fill="#fafcfb"
         stroke="#fafcfb"
         stroke-width="0.0169586"
         opacity="1"
         d="m 136.09113,113.28265 c 2.38778,-5.96944 3.32841,-12.46346 3.18369,-18.867033 1.26625,3.20179 1.68231,6.638733 2.27924,10.021413 0.54269,4.23287 0.70548,8.53809 0.0362,12.75287 -0.23516,0.48842 -0.4884,0.95873 -0.6693,1.46523 -1.41095,3.88918 -3.70828,7.43465 -6.58446,10.41938 -1.21198,1.17579 -2.55058,2.24305 -3.83492,3.38267 -4.30522,4.08816 -9.27974,7.59746 -14.85121,9.71389 -0.99491,0.47031 -2.18879,0.59694 -2.93045,1.46522 -2.31541,1.39288 -4.92027,2.3516 -7.25376,3.74447 -2.35159,1.24814 -4.5223,2.85809 -6.98243,3.87108 -4.395667,2.06217 -9.09886,3.47312 -13.910581,4.03389 -4.558476,0.45223 -9.171214,0.30751 -13.747779,0.21707 -11.93887,-0.30751 -23.859637,-1.26625 -35.780416,-1.93555 0.560774,-7.09095 0.756036,-16.26173 1.425337,-23.33461 12.268852,6.39619 6.630301,3.52339 12.677945,6.59901 10.909702,4.53904 24.843736,10.3485 36.29959,9.24362 l 6.578042,-1.58885 c 6.214394,-1.75883 11.432362,-3.45504 16.895292,-5.78854 2.53249,-0.95873 4.99261,-2.06217 7.43465,-3.20179 3.43695,-1.91744 6.54829,-4.37758 9.44256,-7.0186 4.46803,-4.25096 7.88689,-9.533 10.29275,-15.19491 z"
         id="path9" />
      <path
         fill="#91e7d9"
         stroke="#91e7d9"
         stroke-width="0.0169586"
         opacity="1"
         d="m 140.92094,118.65513 c 0.1809,-0.5065 0.43415,-0.97681 0.6693,-1.46523 -0.63311,6.11415 -2.55057,11.95696 -3.69019,17.96256 -3.02089,12.73479 -6.20459,25.4334 -9.1893,38.16819 -8.2125,-1.08535 -16.38881,-2.46014 -24.61939,-3.49121 -0.25323,-0.0362 -0.43413,0.19897 -0.61502,0.34369 -2.47822,2.1707 -4.73937,4.55848 -7.163323,6.78344 -6.023706,-4.28714 -12.119757,-8.46574 -18.143454,-12.75287 -1.302429,-0.77783 -2.369683,-1.86319 -3.455038,-2.87618 9.116951,-0.36179 17.944469,-3.59975 25.704735,-8.30294 3.40077,-2.22497 6.76536,-4.52229 9.96714,-7.03669 0.86828,-0.68739 1.62802,-1.50141 2.3335,-2.3516 0.74166,-0.86828 1.93555,-0.99491 2.93045,-1.46522 5.57147,-2.11643 10.54599,-5.62573 14.85123,-9.71389 1.28432,-1.13962 2.62292,-2.20688 3.83491,-3.38267 2.87617,-2.98473 5.1735,-6.5302 6.58445,-10.41938 z"
         id="path10" />
      <ellipse
         style="fill:#c32dd6;fill-opacity:1;stroke:#c32dd6;stroke-width:3.64802;stroke-opacity:1"
         id="path7"
         cx="96.077255"
         cy="96.06707"
         rx="42.134636"
         ry="42.356323" />
      <g
         id="g16"
         transform="matrix(0.9025197,0,0,0.9025197,7.1798921,8.838408)">
        <path
           fill="#02a8fe"
           stroke="#02a8fe"
           stroke-width="0.0160679"
           opacity="1"
           d="m 84.868223,65.705842 c 41.216017,10.985882 1.51964,0.293801 43.262077,11.40501 -10.78088,55.832118 0.25192,-0.29714 -10.75056,55.611818 -47.412037,-11.54821 -1.41063,-0.39995 -44.237387,-10.66591 11.41609,-55.52737 0.10363,-0.95162 11.72587,-56.350918 z"
           id="path7-2"
           style="fill:#ffffff;stroke:#000000;stroke-width:0.416;stroke-dasharray:none" />
        <path
           fill="#02a8fe"
           stroke="#02a8fe"
           stroke-width="0.0160679"
           opacity="1"
           d="m 83.616965,63.748675 c 41.216015,10.985882 1.51964,0.293801 43.262075,11.40501 -10.78087,55.832115 0.25193,-0.29714 -10.75056,55.611815 -47.412035,-11.54821 -1.41063,-0.39995 -44.237385,-10.66591 11.41609,-55.527367 0.10363,-0.95162 11.72587,-56.350915 z"
           id="path7-2-0"
           style="fill:#ffffff;stroke:#000000;stroke-width:0.416;stroke-dasharray:none" />
        <path
           fill="#02a8fe"
           stroke="#02a8fe"
           stroke-width="0.0160679"
           opacity="1"
           d="m 82.235266,61.461902 c 41.216014,10.985882 1.51964,0.293801 43.262074,11.40501 -10.78087,55.832118 0.25193,-0.29714 -10.75056,55.611818 -47.412034,-11.54821 -1.41063,-0.39995 -44.237384,-10.66591 11.41609,-55.52737 0.10363,-0.95162 11.72587,-56.350918 z"
           id="path7-2-0-0"
           style="fill:#ffffff;stroke:#000000;stroke-width:0.416;stroke-dasharray:none" />
        <path
           fill="#02a8fe"
           stroke="#02a8fe"
           stroke-width="0.0160679"
           opacity="1"
           d="m 81.038858,59.369542 c 41.216012,10.985882 1.51964,0.293801 43.262072,11.40501 -10.78087,55.832118 0.25193,-0.29714 -10.75056,55.611818 -47.412032,-11.54821 -1.41063,-0.39995 -44.237382,-10.66591 11.41609,-55.52737 0.10363,-0.95162 11.72587,-56.350918 z"
           id="path7-2-0-5"
           style="fill:#ffffff;stroke:#000000;stroke-width:0.416;stroke-dasharray:none" />
      </g>
    </g>
  </g>
</svg>
