<svg xmlns="http://www.w3.org/2000/svg" xmlns:xlink="http://www.w3.org/1999/xlink" viewBox="0 0 256 256"><defs><style>.cls-1,.cls-7{fill:none;}.cls-2{fill:#fff800;}.cls-3{fill:#c40808;}.cls-4{clip-path:url(#clip-path);}.cls-5{fill:red;}.cls-6{fill:#231f20;}.cls-7{stroke:#231f20;stroke-miterlimit:10;stroke-width:5px;}</style><clipPath id="clip-path"><circle class="cls-1" cx="128.36" cy="128" r="110.68"/></clipPath></defs><g id="Layer_1" data-name="Layer 1"><circle class="cls-2" cx="128" cy="128" r="128"/><circle class="cls-3" cx="128.36" cy="128" r="110.68"/><g class="cls-4"><path class="cls-5" d="M146.21,327.81,129.52,126c1.29-.12-1.22.34,0,0l53.07,195.14A200.23,200.23,0,0,1,146.21,327.81ZM108,327.3a222.24,222.24,0,0,1-33.78-6.39L129.52,126c1.91.52-2.31-.26,0,0Zm-67.86-19A195.27,195.27,0,0,1,7.76,288.89L129.52,126c.78.58-1-.48,0,0Zm177.06-.51L129.52,126c1.16-.58-1,.79,0,0L248.61,288.39A200.75,200.75,0,0,1,217.18,307.8Zm58.72-44.19L129.52,126c.89-1-.7,1.11,0,0L298.2,234.24A201.18,201.18,0,0,1,275.9,263.61Zm-296.45-.44A195.72,195.72,0,0,1-43,232.64L129.52,126c.52.86-.62-.69,0,0Zm335.34-62L129.52,126c.46-1.17-.23,1.23,0,0L325,165.54A199.69,199.69,0,0,1,314.79,201.17ZM-59,199.08a204,204,0,0,1-9.39-35.15L129.52,126c.26,1.51-.5-1.36,0,0Zm387.45-70L129.52,126h0c0-1.36.24,1.28,0,0L325.09,91.69a201,201,0,0,1,3.37,36.68ZM129.52,126l-201,2.15a207.21,207.21,0,0,1,3.15-35.79L129.52,126C129.24,127.58,129.52,124.32,129.52,126Zm0,0c-.46-1.18.68,1.09,0,0L298.46,22.92A200.58,200.58,0,0,1,315,56Zm0,0L-58.82,57.21a199.22,199.22,0,0,1,16-33.52L129.52,126C128.92,127,130,124.77,129.52,126Zm0,0c-.9-1,1.06.8,0,0L249-31.35A201.55,201.55,0,0,1,276.22-6.51Zm0,0L-20.2-6.79A191.92,191.92,0,0,1,8.18-32.45L129.52,126C128.82,126.5,130.1,125.34,129.52,126Zm0,0-89-177.75A204.22,204.22,0,0,1,74.65-64.28L129.52,126C127.94,126.4,130.77,125.39,129.52,126Zm0,0c-1.13-.57,1.21.34,0,0L183.07-64.24a200.11,200.11,0,0,1,34.54,13.41Zm0,0L108.41-70.6c5.33-.58,10.8-1,16.25-1.2l1.78-.07h1.78c6.15,0,12.37.29,18.48.85L129.52,126h0c-.5,0,.49,0,0,0h0c-.2,0,.2,0,0,0C128.87,126,130.14,125.91,129.52,126Z"/></g><g id="HfoEQG"><path class="cls-2" d="M186.6,193.47a11.77,11.77,0,0,1-8.6-3.83c-3.7-4-7.4-8.1-11-12.07l-4.38-4.85a56.85,56.85,0,0,1-18,6.81,72.81,72.81,0,0,1-15,1.62,62.58,62.58,0,0,1-30.17-7.71,35.15,35.15,0,0,1-4.62-3.16l-.47-.36a7,7,0,0,1-2.37.49l-.7.07a6.6,6.6,0,0,0-4.38,2.86,56.93,56.93,0,0,0-3.18,5.45c-.29.55-.58,1.1-.88,1.64-.43.79-.82,1.61-1.23,2.47A31.44,31.44,0,0,1,78.77,188a11.32,11.32,0,0,1-9.2,4.32,12.07,12.07,0,0,1-11.68-15.6,10.94,10.94,0,0,1,5.16-6.36,29.71,29.71,0,0,1,5.19-2.32c4.87-1.62,8-5.14,9.59-10.77a11.46,11.46,0,0,1,3.75-6c1.21-1,2.36-2.11,3.58-3.28.54-.53,1.09-1.05,1.64-1.57l1.64-1.53,1.7,1.46L92.07,148c1.39,1.18,2.77,2.35,4.12,3.55,7.84,7,17.23,10.41,28.71,10.41h0c.8,0,1.61,0,2.43-.05,8.19-.33,14.79-2.1,20.5-5.53L110.4,115.1l-12,10.36L81,105.34l4.09-3.55,4.22-3.64,3.39-2.92c5.14-4.43,10.45-9,15.72-13.49a6.7,6.7,0,0,1,3.84-1.56c7.5-.38,15.11-.69,22.48-1l1.85-.07.82,0c.65,0,1.34,0,2,.1,2.56.22,4.31,1.77,4.47,3.93a5.82,5.82,0,0,1-1.72,4.46c-2.65,2.41-5.4,4.77-8.06,7.06l-2.43,2.1-3.93,3.39,36.7,40.51a35,35,0,0,0,2.73-4.78c8.49-19.31,9.12-37.16,1.93-54.55a55.46,55.46,0,0,0-17.07-22.19l-.62-.48A11.82,11.82,0,0,1,149,56.36a5.81,5.81,0,0,1-.95-4.41,4.37,4.37,0,0,1,4.32-3.54,4,4,0,0,1,.84.08,16.36,16.36,0,0,1,4.4,1.41c5.19,2.62,9.46,6.45,13.06,9.84a75.72,75.72,0,0,1,20.23,30.85C193.1,97,194,104,193.8,112.8a80.6,80.6,0,0,1-6,29.7,72.51,72.51,0,0,1-8.34,14.63l1.19,1.31c2,2.25,4,4.48,6.07,6.71q1.74,1.93,3.5,3.85l4.59,5a11.52,11.52,0,0,1-.6,16.43A11.15,11.15,0,0,1,186.6,193.47Z"/><path class="cls-6" d="M152.4,50.91l.39,0a13.84,13.84,0,0,1,3.72,1.2c4.72,2.38,8.66,5.83,12.48,9.42a72.79,72.79,0,0,1,19.57,29.83c2.35,6.92,2.91,14.1,2.74,21.35a78.34,78.34,0,0,1-5.8,28.79,69.87,69.87,0,0,1-8.36,14.55l-.9,1.2c2.89,3.21,5.76,6.38,8.63,9.55,2.7,3,5.41,5.92,8.09,8.89a9,9,0,0,1-.45,12.92A8.62,8.62,0,0,1,186.6,191a9.22,9.22,0,0,1-6.77-3c-5.3-5.75-10.51-11.58-15.77-17.38-.31-.35-.64-.67-1-1.07a52.72,52.72,0,0,1-18.95,7.58,69.81,69.81,0,0,1-14.44,1.57,59.91,59.91,0,0,1-29-7.4,63.72,63.72,0,0,1-6.36-4.51c-.67,1.34-2.09,1.06-3.4,1.28a9.07,9.07,0,0,0-6,3.9,78.73,78.73,0,0,0-4.19,7.32c-1.33,2.43-2.31,5.1-3.93,7.3a8.87,8.87,0,0,1-7.19,3.3,9.74,9.74,0,0,1-4.75-1.19,9.6,9.6,0,0,1-4.55-11.14,8.46,8.46,0,0,1,4-4.95A28.14,28.14,0,0,1,69,170.43c6.14-2,9.55-6.52,11.22-12.47a9,9,0,0,1,2.94-4.76c1.84-1.54,3.53-3.26,5.33-4.95,2,1.75,4,3.43,6,5.18,8.75,7.81,19,11,30.38,11,.83,0,1.68,0,2.53-.05,9.84-.4,17.56-2.81,24.22-7.54l-41-45.27-12,10.32L84.56,105.6,91,100c6.36-5.47,12.7-11,19.1-16.39a4.2,4.2,0,0,1,2.35-1c8.1-.41,16.2-.74,24.3-1.07l.72,0c.61,0,1.22,0,1.82.09,1,.09,2.12.53,2.2,1.62a3.33,3.33,0,0,1-.92,2.43c-3.41,3.11-6.94,6.09-10.43,9.12l-5.87,5.05,40.64,44.87c1.64-2.75,3.46-5.19,4.65-7.9,8.16-18.56,9.84-37.45,2-56.52a57.94,57.94,0,0,0-17.82-23.19A14,14,0,0,1,151,54.85a3.35,3.35,0,0,1-.49-2.4,1.89,1.89,0,0,1,1.87-1.54m0-5a6.85,6.85,0,0,0-6.77,5.54,8.37,8.37,0,0,0,1.4,6.42A14.2,14.2,0,0,0,150,60.63l.57.44a53.15,53.15,0,0,1,16.32,21.19c6.92,16.73,6.29,33.94-1.91,52.59a16.71,16.71,0,0,1-.82,1.64l-11.37-12.55L131.4,100.35l2-1.72,2.47-2.13c2.66-2.29,5.4-4.65,8.06-7.07a8.4,8.4,0,0,0,2.54-6.5c-.26-3.39-3-5.9-6.74-6.23-.78-.07-1.55-.11-2.27-.11l-.93,0-1.86.08c-7.37.3-15,.62-22.48,1a9.27,9.27,0,0,0-5.34,2.15c-5.28,4.48-10.61,9.07-15.76,13.52l-3.36,2.89L83.38,100l-2.09,1.81-3.77,3.26,3.26,3.78,6.62,7.69,7.46,8.65L98.12,129l3.79-3.26,6-5.15,2.31-2,7.71,8.52,25.93,28.6a41.65,41.65,0,0,1-16.61,3.72c-.78,0-1.56.05-2.32.05-10.84,0-19.69-3.2-27.05-9.77-1.38-1.23-2.79-2.44-4.16-3.6l-1.92-1.64-3.4-2.92L85.1,144.6c-.57.53-1.12,1.06-1.67,1.59-1.19,1.14-2.31,2.22-3.46,3.18a13.8,13.8,0,0,0-4.54,7.24c-1.36,4.84-3.9,7.72-8,9.07a33.52,33.52,0,0,0-5.61,2.51A13.46,13.46,0,0,0,55.51,176a14.54,14.54,0,0,0,6.86,17,14.73,14.73,0,0,0,7.2,1.83,13.83,13.83,0,0,0,11.22-5.34A32.67,32.67,0,0,0,83.9,184c.4-.83.78-1.62,1.18-2.35.3-.55.6-1.11.89-1.67a53.4,53.4,0,0,1,3-5.19A4.09,4.09,0,0,1,91.73,173l.48,0a11.85,11.85,0,0,0,1.68-.23,33.11,33.11,0,0,0,4.4,3,65.16,65.16,0,0,0,31.36,8A75.1,75.1,0,0,0,145.13,182a61.12,61.12,0,0,0,17-6.07l3.05,3.37c3.58,4,7.28,8.07,11,12.07A14.29,14.29,0,0,0,186.6,196a13.63,13.63,0,0,0,9.33-3.68,14,14,0,0,0,.74-19.92q-2.28-2.53-4.59-5.05-1.76-1.92-3.5-3.85-3-3.25-5.91-6.53a74.33,74.33,0,0,0,7.45-13.47,83.23,83.23,0,0,0,6.18-30.61c.22-9.08-.74-16.41-3-23.08a78.11,78.11,0,0,0-20.87-31.86c-3.73-3.51-8.17-7.48-13.66-10.25A18.86,18.86,0,0,0,153.69,46a7,7,0,0,0-1.29-.12Z"/></g></g><g id="Fist"><circle class="cls-7" cx="128.36" cy="128" r="109.89"/></g></svg>