<svg width="256" height="257" viewBox="0 0 256 257" fill="none" xmlns="http://www.w3.org/2000/svg">
<path d="M110.475 125.157C110.475 115.323 110.475 105.656 110.475 95.8042C122.465 100.691 134.313 105.519 146.466 110.473C134.378 115.405 122.508 120.246 110.475 125.157Z" fill="#0B213C"/>
<path d="M79.7356 189.004C76.0285 189.004 72.5537 189.004 68.9413 189.004C69.8444 185.629 69.4101 182.457 65.9912 179.8C65.6342 179.52 65.0408 179.392 64.1635 179.033C64.5075 182.46 63.4066 185.607 65.5697 188.66C61.8627 188.66 58.3363 188.66 54.6379 188.66C54.7497 188.365 54.8701 188.11 54.9475 187.848C55.2442 186.824 55.7431 185.799 55.7775 184.768C55.8936 180.979 55.9624 177.184 55.8162 173.399C55.756 171.863 55.1195 170.34 54.7239 168.813C54.6465 168.509 54.4873 168.214 54.3325 167.828C58.0697 167.828 61.6176 167.828 64.8773 167.828C64.5505 169.85 64.2151 171.881 63.9011 173.916C63.8581 174.201 63.9011 174.499 63.9484 174.788C64.086 175.585 64.6537 175.774 65.6557 175.387C68.98 174.101 70.7819 170.321 69.1864 167.834C72.5494 167.834 75.8737 167.834 79.5893 167.834C78.1229 169.148 76.8585 170.388 75.4351 171.532C73.3966 173.171 71.255 174.743 69.1305 176.327C68.5457 176.762 68.2016 177.197 69.0918 177.571C73.13 179.264 75.3362 181.91 76.9015 184.911C76.9273 184.96 77.052 184.981 77.2499 185.066C77.2499 184.242 77.2499 183.464 77.2499 182.685C79.2324 182.749 81.0988 182.852 82.9609 182.859C85.9455 182.871 86.4099 182.57 87.2098 180.575C88.6591 176.966 90.1815 173.371 91.5791 169.753C91.8286 169.105 91.6135 168.369 91.6135 167.618C94.3701 167.618 97.0322 167.618 99.5695 167.618C99.3329 171.751 102.326 175.281 103.711 179.091C104.575 181.466 105.642 183.807 106.756 186.13C107.164 186.985 107.96 187.748 108.82 188.867C105.999 188.867 103.5 188.898 101.01 188.825C100.722 188.815 100.154 188.174 100.249 187.924C100.838 186.355 99.4361 185.16 98.7825 183.844C98.6405 183.558 97.7761 183.339 97.2085 183.284C93.7122 182.953 90.7276 185.343 91.6264 187.785C91.8974 188.517 91.5576 188.907 90.6674 188.931C88.2677 188.995 85.8595 188.952 83.1717 188.952C83.8812 187.915 84.4747 187.049 85.1886 186C82.5352 186 80.2215 186 77.71 186C78.3508 186.951 78.9744 187.876 79.7356 189.004ZM95.9183 177.115C95.7721 177.121 95.6302 177.127 95.484 177.133C95.2001 177.735 94.8862 178.331 94.6411 178.939C93.609 181.493 93.6133 181.493 97.4364 181.314C97.5138 181.311 97.5826 181.229 97.7847 181.11C97.1698 179.803 96.5462 178.459 95.9183 177.115Z" fill="#0B213C"/>
<path d="M179.976 181.384C178.759 181.007 177.808 180.654 176.798 180.42C176.269 180.295 175.546 180.25 175.095 180.417C174.837 180.514 174.802 181.135 174.918 181.475C175.576 183.397 177.563 184.747 180.109 184.987C180.109 183.871 180.109 182.761 180.109 181.582C181.782 181.685 183.296 181.852 184.814 181.858C189.063 181.87 189.269 181.752 190.439 178.915C191.751 175.734 193.036 172.55 194.262 169.352C194.477 168.789 194.413 168.153 194.348 167.561C194.284 166.943 194.464 166.563 195.458 166.557C197.621 166.545 199.788 166.533 201.951 166.496C203.009 166.478 203.069 166.858 202.992 167.475C202.906 168.166 202.842 168.917 203.121 169.564C205.336 174.722 207.619 179.863 209.933 184.999C210.2 185.595 210.823 186.106 211.21 186.681C211.447 187.028 211.554 187.417 211.718 187.788C211.258 187.888 210.806 188.064 210.342 188.074C208.385 188.119 206.424 188.134 204.467 188.128C203.087 188.122 203.147 187.757 203.035 186.836C202.872 185.519 202.433 184.075 201.44 182.999C200.373 181.843 196.017 182.749 195.557 184.118C195.212 185.142 194.378 186.094 194.942 187.283C195.251 187.934 194.292 188.262 193.355 188.268C191.398 188.286 189.437 188.311 187.48 188.296C187.067 188.293 186.353 188.165 186.306 188.01C186.207 187.709 186.409 187.323 186.611 187.012C186.977 186.456 187.437 185.933 187.958 185.267C185.167 185.267 182.775 185.267 180.324 185.267C180.019 186.739 179.83 188.052 182.148 188.919C183.58 189.457 184.706 190.382 186.057 191.044C188.254 192.121 190.581 192.343 193.032 191.406C193.651 191.169 194.374 191.026 195.075 190.947C195.466 190.905 196.103 190.996 196.27 191.184C196.46 191.397 196.404 191.862 196.189 192.094C194.047 194.392 190.847 196.299 186.052 195.56C184.087 195.256 182.1 194.648 180.427 193.857C178.299 192.851 176.166 192.297 173.628 192.501C173.018 192.55 172.39 192.531 171.775 192.513C170.493 192.48 170.222 192.103 170.584 191.239C170.923 190.43 171.276 189.576 171.267 188.746C171.203 182.552 171.074 176.361 170.893 170.166C170.872 169.488 170.493 168.795 170.132 168.15C169.719 167.424 170.042 166.925 171.173 166.91C173.955 166.873 176.742 166.855 179.524 166.861C180.724 166.864 180.961 167.263 180.535 168.065C180.191 168.716 179.881 169.428 179.881 170.112C179.881 173.499 179.989 176.887 180.053 180.274C180.053 180.563 180.015 180.852 179.976 181.384ZM198.95 176.503C198.816 176.497 198.679 176.491 198.545 176.482C198.09 177.677 197.638 178.872 197.126 180.213C198.399 180.262 199.38 180.298 200.623 180.344C200.012 178.948 199.483 177.726 198.95 176.503Z" fill="#0B213C"/>
<path d="M125.665 167.345C124.633 170.245 127.037 172.544 127.785 175.095C127.996 175.816 128.495 176.056 129.608 176.041C131.286 176.02 132.967 176.233 134.773 176.351C134.722 176.382 134.868 176.336 134.868 176.29C134.868 174.004 134.859 171.717 134.825 169.43C134.821 169.269 134.631 169.102 134.502 168.95C133.475 167.691 133.763 167.287 135.883 167.244C141.448 167.135 147.012 167.077 152.577 166.977C153.803 166.955 154.379 167.281 154.366 168.184C154.349 169.75 154.401 171.316 154.461 172.882C154.482 173.456 154.323 173.91 153.394 173.989C152.478 174.068 151.524 174.208 151.016 173.399C150.681 172.867 150.246 172.368 149.907 171.839C148.789 170.081 146.776 169.686 144.329 170.026C143.938 170.081 143.336 170.419 143.327 170.635C143.254 172.915 143.28 175.199 143.28 177.574C146.277 177.513 148.578 176.838 150.81 176.005C151.266 175.834 151.666 175.564 152.147 175.466C152.53 175.387 153.128 175.393 153.373 175.555C153.605 175.704 153.665 176.16 153.519 176.397C152.478 178.133 150.595 179.286 148.156 179.97C147.012 180.289 145.813 180.538 144.613 180.724C143.727 180.861 143.452 181.153 143.482 181.77C143.555 183.299 143.512 184.829 143.598 186.359C143.619 186.723 143.877 187.113 144.157 187.432C144.922 188.311 144.626 188.834 143.159 188.87C140.686 188.934 138.214 188.943 135.737 188.949C132.907 188.955 130.073 188.937 127.243 188.928C125.665 188.922 125.734 188.587 125.63 187.563C125.501 186.255 124.998 184.799 123.962 183.743C122.822 182.585 118.642 183.528 118.122 184.923C117.739 185.951 116.948 186.933 117.468 188.098C117.545 188.274 116.526 188.931 115.959 188.971C113.963 189.104 111.946 189.086 109.934 189.086C108.781 189.086 108.244 188.517 109 188.019C110.325 187.146 110.291 186 110.729 184.942C112.776 179.991 114.845 175.044 116.845 170.081C117.068 169.522 116.832 168.877 116.986 168.296C117.077 167.953 117.494 167.39 117.795 167.381C120.315 167.311 122.835 167.345 125.665 167.345ZM129.634 177.811C129.471 177.939 129.307 178.063 129.144 178.191C130.421 181.052 131.664 183.92 133.023 186.763C133.182 187.094 133.986 187.274 134.489 187.526C134.73 187.158 135.165 186.793 135.173 186.422C135.216 184.61 135.156 182.795 135.104 180.982C135.096 180.706 135.057 180.301 134.812 180.183C133.113 179.359 131.363 178.595 129.634 177.811ZM121.511 177.264C121.386 177.264 121.257 177.264 121.132 177.267C120.676 178.462 120.22 179.657 119.709 180.998C120.986 180.998 121.975 180.998 123.145 180.998C122.577 179.705 122.044 178.483 121.511 177.264Z" fill="#0B213C"/>
<path d="M161.918 166.867C163.152 166.867 164.391 166.852 165.625 166.87C166.911 166.892 167.203 167.32 166.674 168.132C166.352 168.631 166.072 169.203 166.077 169.741C166.132 174.98 166.236 180.219 166.39 185.456C166.408 186.07 166.726 186.708 167.074 187.283C167.577 188.116 167.233 188.627 165.922 188.648C163.505 188.691 161.084 188.715 158.663 188.715C157.308 188.715 156.929 188.165 157.527 187.289C157.802 186.885 158.013 186.407 158.005 185.963C157.931 180.505 157.82 175.05 157.678 169.592C157.665 169.148 157.407 168.686 157.14 168.272C156.555 167.363 156.835 166.962 158.215 166.931C159.45 166.907 160.688 166.925 161.922 166.925C161.918 166.91 161.918 166.889 161.918 166.867Z" fill="#0B213C"/>
<path d="M95.9183 177.114C96.5461 178.458 97.1697 179.802 97.7804 181.107C97.5782 181.228 97.5094 181.307 97.432 181.311C93.6132 181.493 93.6046 181.49 94.6367 178.936C94.8818 178.328 95.2001 177.732 95.4796 177.129C95.6301 177.126 95.772 177.12 95.9183 177.114Z" fill="white"/>
<path d="M198.95 176.503C199.483 177.726 200.016 178.945 200.623 180.344C199.38 180.298 198.399 180.262 197.126 180.213C197.634 178.875 198.09 177.677 198.545 176.482C198.679 176.491 198.816 176.497 198.95 176.503Z" fill="white"/>
<path d="M129.634 177.811C131.367 178.592 133.118 179.355 134.808 180.179C135.053 180.298 135.092 180.705 135.1 180.979C135.156 182.791 135.212 184.607 135.169 186.419C135.16 186.79 134.726 187.155 134.485 187.523C133.982 187.273 133.178 187.094 133.019 186.76C131.66 183.919 130.417 181.049 129.14 178.188C129.307 178.063 129.471 177.938 129.634 177.811Z" fill="white"/>
<path d="M121.511 177.264C122.044 178.483 122.577 179.702 123.145 180.998C121.975 180.998 120.986 180.998 119.709 180.998C120.22 179.657 120.676 178.462 121.132 177.267C121.257 177.267 121.382 177.267 121.511 177.264Z" fill="white"/>
<path d="M50.1996 112.723C50.6555 112.282 77.8518 112.319 87.9838 112.343C88.2848 112.471 88.5816 112.595 88.8826 112.723C88.9385 113.511 89.0546 114.313 89.2395 115.134C91.0887 123.259 98.9329 128.894 104.227 131.953C97.1051 138.743 89.9878 145.533 82.8662 152.323C81.3481 151.812 79.9161 151.259 78.5571 150.672C57.9233 141.747 51.98 123.524 50.0147 113.675C49.9459 113.556 49.8814 113.392 49.9158 113.2C49.9201 113.197 49.9588 112.954 50.1996 112.723Z" fill="#41938C"/>
<path d="M107.796 133.364C109.503 133.713 111.305 134.042 113.198 134.34C116.492 134.857 119.623 135.206 122.538 135.438C123.742 135.532 124.676 136.225 124.736 137.08L126.271 158.724C126.34 159.663 125.338 160.466 124.009 160.545C123.385 160.582 122.753 160.612 122.117 160.633C109.542 161.062 98.8339 158.295 91.0887 155.394" fill="#41938C"/>
<path d="M130.658 135.14C133.616 134.252 136.579 133.367 139.538 132.479C140.587 132.166 141.804 132.409 142.462 133.066C148.492 139.065 154.521 145.065 160.546 151.064C161.221 151.736 161.135 152.664 160.314 153.25C160.31 153.253 160.305 153.256 160.301 153.26C152.719 158.672 141.929 159.715 134.425 159.742" fill="#41938C"/>
<path d="M145.352 130.253C146.552 129.587 147.898 128.739 149.244 127.678C150.423 126.75 151.382 125.832 152.16 124.983C152.822 124.26 154.156 124.016 155.235 124.421C164.412 127.875 173.594 131.33 182.771 134.784C183.756 135.155 184.25 135.967 183.919 136.724C183.919 136.727 183.915 136.733 183.915 136.736C180.995 143.377 172.871 147.406 166.958 149.614" fill="#41938C"/>
<path d="M155.777 121.088C156.095 120.565 156.431 119.887 156.654 119.075C156.749 118.732 156.818 118.406 156.861 118.096C156.985 117.217 158.125 116.591 159.368 116.694C169.874 117.582 180.376 118.47 190.882 119.358C192.168 119.467 193.054 120.316 192.83 121.216C192.443 122.779 191.953 124.436 191.329 126.169C190.181 129.365 188.813 132.184 187.437 134.604" fill="#41938C"/>
<path d="M161.927 114.477C159.531 114.368 157.665 112.963 157.665 111.263V108.59C157.665 108.365 157.772 108.149 157.974 107.976L158.452 107.563C158.671 107.371 158.989 107.246 159.333 107.216L178.015 105.489L192.636 103.847C193.325 103.771 193.982 104.069 194.172 104.543L194.671 105.805C194.705 105.89 194.722 105.978 194.722 106.067V112.255V114.499C194.722 114.809 194.511 115.101 194.159 115.283L193.393 115.675C193.135 115.809 192.821 115.873 192.499 115.858L161.927 114.477Z" fill="#41938C"/>
<path d="M154.521 101.654C154.968 102.372 155.42 103.09 155.867 103.81C156.465 104.771 157.962 105.282 159.398 105.018C169.521 103.166 179.64 101.311 189.764 99.459C191.303 99.1762 192.28 98.1028 191.987 96.996C191.699 95.9043 191.196 94.6394 190.323 93.3045C189.381 91.8692 188.267 90.7472 187.308 89.9292" fill="#41938C"/>
<path d="M151.119 97.7624C151.192 97.3154 151.506 96.9961 151.631 96.8745C152.182 96.3332 152.951 96.1234 153.072 96.0869C154.005 95.7981 160.58 92.0974 178.621 81.397C179.451 80.9044 180.698 81.0138 181.335 81.6311C182.268 82.5433 183.201 83.4556 184.134 84.3678C184.762 84.982 184.53 85.8426 183.627 86.25C173.796 90.6987 163.969 95.1504 154.138 99.599C153.485 99.818 152.986 99.7632 152.792 99.7298C151.648 99.5413 150.99 98.5439 151.119 97.7624Z" fill="#41938C"/>
<path d="M127.08 87.9406C128.413 79.0463 129.746 70.1551 131.083 61.2608C131.019 61.2061 130.984 61.1818 130.92 61.1271L120.81 60.8838C120.633 61.0054 120.539 61.0693 120.367 61.1909C120.478 70.1308 120.59 79.0676 120.698 88.0075L121.261 88.2721C122.164 88.5092 124.418 88.9927 126.426 88.2386C126.637 88.1596 126.86 88.0623 127.08 87.9406Z" fill="#41938C"/>
<path d="M129.114 87.8372C129.088 88.2721 129.359 88.5427 129.359 88.5427C129.746 88.9228 130.494 88.9867 130.959 89.0262C131.29 89.0535 131.836 89.0687 132.498 88.938C137.04 80.5941 141.585 72.2502 146.127 63.9063C146.002 63.7147 145.937 63.6144 145.813 63.4228C145.378 63.3194 144.712 63.1674 143.882 63.0062C143.06 62.8451 142.596 62.7782 141.237 62.5653C138.936 62.2065 136.807 61.8599 136.807 61.8599C136.807 61.8599 136.446 62.1001 135.883 62.4771C135.005 65.6274 129.187 86.6452 129.114 87.8372Z" fill="#41938C"/>
<path d="M148.427 64.9066L149.472 64.4292L151.502 64.9066L157.592 67.0808L157.961 67.8622L138.398 89.9291H137.169C137.169 89.9291 135.814 89.4791 135.629 89.4791C135.444 89.4791 134.889 88.6429 134.889 88.6429L148.427 64.9066Z" fill="#41938C"/>
<path d="M140.811 90.1941L160.838 69.4043C161.01 69.2249 161.264 69.0972 161.561 69.0394L161.608 69.0303C161.991 68.9543 162.4 69.009 162.718 69.1732L166.726 71.247C167.057 71.4203 167.255 71.694 167.255 71.9829V72.1075C167.255 72.3174 167.152 72.5211 166.962 72.6853L153.919 84.0031L144.694 92.0186C144.449 92.2314 144.079 92.3561 143.692 92.3561H143.116C142.815 92.3561 142.518 92.2801 142.286 92.1432L141.048 91.4104C140.755 91.2371 140.583 90.9786 140.583 90.708C140.583 90.5225 140.665 90.3431 140.811 90.1941Z" fill="#41938C"/>
<path d="M175.757 78.6205L151.227 95.3144C150.332 95.9225 148.913 95.9012 148.053 95.2718L146.247 93.946C145.387 93.3135 145.417 92.3101 146.307 91.7019L170.837 75.0081C171.732 74.3999 173.151 74.4212 174.011 75.0506L175.817 76.3764C176.677 77.0089 176.647 78.0124 175.757 78.6205Z" fill="#41938C"/>
</svg>
