<svg width="256" height="256" viewBox="0 0 256 256" fill="none" xmlns="http://www.w3.org/2000/svg">
<rect width="256" height="256" fill="white"/>
<circle cx="128" cy="128" r="128" fill="black"/>
<path d="M195.302 147.715C194.408 148.359 193.952 148.869 193.379 149.048C192.78 149.235 192.083 149.101 191.439 149.083C188.854 149.021 186.279 148.949 183.694 148.878C181.315 146.275 178.82 143.762 176.575 141.043C174.205 138.164 172.095 135.078 169.841 132.1C168.92 130.884 167.784 130.276 166.121 130.41C163.858 130.589 161.577 130.455 158.966 130.455V148.976H149.271V106.067H158.814V124.311C162.964 125.098 166.711 124.472 170.378 123.533C171.799 123.166 173.159 122.254 174.339 121.333C177.103 119.168 178.695 116.047 180.43 113.105C181.342 111.558 181.843 109.769 182.683 108.177C183.372 106.889 184.034 105.619 186.064 105.879C188.291 106.165 190.589 105.941 192.888 105.941C193.684 107.819 192.888 109.295 192.271 110.923C190.661 115.162 187.897 118.685 185.161 122.129C183.497 124.221 180.778 125.482 178.346 127.253C182.218 135.382 188.872 141.321 195.284 147.724L195.302 147.715Z" fill="white"/>
<path d="M70.6247 123.587C77.7077 123.587 84.5404 123.685 91.373 123.533C93.4836 123.488 95.5763 122.764 98.4471 122.191C97.8121 123.837 97.3024 124.722 97.1503 125.67C96.9715 126.779 97.1056 127.933 97.1056 129.48H86.9103C82.6623 129.48 78.4143 129.453 74.1662 129.48C71.054 129.507 70.6784 129.918 70.6336 133.165C70.6068 135.123 70.5889 137.091 70.6336 139.049C70.6962 141.491 72.3329 143.172 74.7654 143.19C80.1582 143.235 85.5599 143.405 90.9348 143.128C93.8682 142.975 96.73 141.67 100.2 142.546C99.887 143.521 99.5024 144.46 99.3056 145.444C99.091 146.517 99.0552 147.635 98.9211 148.914H60.1075C58.6944 141.929 60.9928 134.855 60.9571 127.7C60.9213 120.492 59.8928 113.356 59.7587 105.942C71.832 105.942 83.5656 105.951 95.2991 105.933C97.0519 105.933 97.8926 106.693 98.0983 108.437C98.2593 109.778 98.6617 111.084 99.0552 112.828C95.2275 112.22 91.4356 113.955 87.7331 111.889C86.9819 111.468 85.8103 111.826 84.8265 111.826C80.9094 111.826 76.9833 111.826 73.0662 111.826C71.4922 111.826 70.6873 112.765 70.6426 114.16C70.5353 117.228 70.6068 120.304 70.6068 123.604L70.6247 123.587Z" fill="white"/>
<path d="M126.6 181.342C127.405 184.275 125.232 186.672 123.247 189.069C122.719 189.704 121.673 190.16 120.832 190.214C119.884 190.276 118.078 189.516 118.042 189.605C117.407 191.43 115.976 188.139 115.493 190.026C115.028 189.74 114.5 189.507 114.142 189.122C114.026 188.997 114.232 188.318 114.473 188.139C116.423 186.681 116.038 184.552 115.52 182.835C114.608 179.795 114.026 176.593 112.694 173.731C111.307 170.753 111.397 167.623 111.969 164.833C112.649 161.506 112.756 157.776 115.269 155.04C116.548 155.317 118.426 156.292 119.106 155.755C121.288 154.047 121.798 155.55 122.576 156.98C123.515 158.715 124.391 160.486 125.402 162.168C125.867 162.946 127.28 163.16 127.271 162.4C127.271 160.236 129.48 160.942 130.142 159.708C130.92 158.241 132.592 159.315 133.657 158.823C135.114 158.152 135.964 159.959 137.484 159.377C138.057 159.154 139.926 160.513 140.051 161.327C140.248 162.615 141.232 163.768 141.106 164.788C140.731 167.703 142.001 169.948 143.306 172.256C143.601 172.783 144.245 173.499 144.084 173.838C143.396 175.341 144.344 177.022 143.736 178.265C142.975 179.813 143.226 180.725 144.075 182.084C144.97 183.497 145.345 185.214 145.175 187.03C145.068 188.21 145.077 189.453 143.923 189.883C143.288 190.115 142.358 189.355 141.545 189.319C139.362 189.212 141.008 188.514 141.115 187.781C141.357 186.243 141.571 184.445 139.774 183.524C139.443 183.354 138.727 183.801 138.28 184.105C138.128 184.204 138.182 184.74 138.271 185.044C138.799 186.86 137.153 187.522 136.456 188.72C135.374 190.544 133.934 187.477 133.004 189.149C132.798 188.997 132.396 188.827 132.413 188.702C132.467 188.255 132.521 187.7 132.816 187.423C134.73 185.59 134.721 185.59 133.549 184.043C132.807 183.059 131.242 182.648 131.376 181.02C131.385 180.904 130.804 180.617 130.786 180.626C129.462 182.379 128.013 178.569 126.574 181.324L126.6 181.342Z" fill="white"/>
<path d="M141.16 100.612C140.355 101.032 139.559 101.443 138.79 101.837C138.155 100.952 137.234 100.03 136.769 98.9304C136.304 97.8215 136.304 96.5247 136.071 95.1296C135.249 97.8751 135.284 97.8572 136.044 100.29C136.196 100.782 136 101.873 135.892 101.882C135.132 101.944 133.88 102.061 133.675 101.676C132.539 99.5743 129.704 98.3223 130.419 95.2548C130.625 94.3604 130.455 93.3767 130.455 92.2051C129.078 92.2051 127.969 92.1693 126.851 92.2051C123.56 92.3214 120.769 95.5857 121.941 98.6621C122.469 100.048 121.896 100.442 121.315 100.719C120.85 100.943 119.589 100.594 119.41 100.174C118.757 98.689 116.459 97.3564 118.65 95.3621C118.766 95.2548 118.426 94.5035 118.14 94.1816C118.006 94.0206 117.425 94.0385 117.219 94.1905C116.7 94.5751 116.28 95.0938 115.815 95.5499C114.199 97.1418 114.205 98.9632 115.833 101.014C114.804 101.014 114.017 101.113 113.266 100.978C112.756 100.889 112.068 100.594 111.862 100.182C111.388 99.2434 111.066 98.206 110.869 97.1776C110.762 96.6052 110.798 95.7109 111.155 95.38C114.017 92.6881 112.837 89.4506 112.291 86.4188C112.157 85.6676 112.336 85.4888 112.604 84.9969C113.248 83.8074 113.767 82.5375 114.366 81.3123C115.189 79.6309 115.86 78.0122 115.815 76C115.725 72.1544 121.118 69.1226 124.454 71.0007C125.527 71.5999 126.43 72.53 127.539 73.0219C128.729 73.5495 128.049 76.0536 129.811 75.4008C130.759 75.0431 131.287 73.5406 131.957 72.53C132.458 71.7698 132.888 70.956 133.353 70.169C133.818 69.382 134.104 68.2373 134.792 67.9064C135.445 67.5844 136.51 68.0942 137.395 68.2373C137.627 68.273 138.021 68.434 138.066 68.3625C138.754 67.2803 140.105 67.3787 140.668 67.7722C141.437 68.3088 141.813 69.5072 142.215 70.482C143.324 73.2007 143.709 76.2057 143.977 78.996C144.254 81.8846 142.877 84.9522 142.072 87.9034C141.24 90.971 140.212 93.9938 139.291 97.0434C138.745 98.8321 140.534 99.4223 141.169 100.603L141.16 100.612Z" fill="white"/>
<path d="M107.784 143.199C111.692 143.199 115.403 143.342 119.088 143.137C120.877 143.038 122.961 142.77 124.356 141.786C129.194 138.406 128.756 134.238 123.497 131.466C120.573 129.919 117.505 128.541 114.357 127.567C109.814 126.145 107.623 122.719 107.095 118.588C106.8 116.262 107.945 113.49 109.733 111.469C111.299 109.698 113.391 108.759 115.556 107.838C119.732 106.058 124.114 105.343 128.443 106.04C132.762 106.738 137.341 106.854 140.999 109.206C140.042 110.619 139.067 112.014 138.128 113.454C137.305 114.715 136.009 115.252 134.81 114.626C130.992 112.649 126.931 112.73 122.844 112.801C121.27 112.828 117.97 115.064 117.756 116.513C117.586 117.684 117.478 118.892 118.516 120.108C120.796 122.773 123.98 123.408 126.967 124.606C129.623 125.671 132.387 126.395 134.775 128.264C137.136 130.115 138.289 132.038 138.379 135.097C138.486 138.853 137.788 142.099 134.658 144.335C131.564 146.544 128.049 148.207 124.382 148.986C120.376 149.826 116.271 150.282 112.086 150.211C110.029 150.175 109.76 148.941 109.215 147.877C108.544 146.571 108.32 145.042 107.784 143.208V143.199Z" fill="white"/>
</svg>
