<svg width="256" height="256" viewBox="0 0 256 256" fill="none" xmlns="http://www.w3.org/2000/svg">
<rect width="256" height="256" fill="white"/>
<path d="M128 256C198.692 256 256 198.692 256 128C256 57.3076 198.692 0 128 0C57.3076 0 0 57.3076 0 128C0 198.692 57.3076 256 128 256Z" fill="url(#paint0_linear_5872:56032)"/>
<path d="M82.1272 86.2559L59 211.964H102.707C108.503 212.274 114.23 210.587 118.924 207.187C123.618 203.788 126.994 198.882 128.483 193.295L133.374 167.525H163.938L167.504 147.233H136.94L140.709 126.231H180.341L184.213 105.939H124.612L108.107 191.773H83.5535L100.772 95.5902C101.833 91.718 104.187 88.3214 107.447 85.9606C110.706 83.5998 114.677 82.4157 118.703 82.6034H191.141L186.862 102.895H189.001C194.175 103.109 199.254 101.464 203.312 98.2607C207.37 95.0576 210.137 90.5092 211.11 85.4443L216 62.0072H114.831C107.449 61.8537 100.226 64.1545 94.3031 68.5459C88.3805 72.9373 84.0962 79.1689 82.1272 86.2559Z" fill="white"/>
<defs>
<linearGradient id="paint0_linear_5872:56032" x1="0" y1="128" x2="256" y2="128" gradientUnits="userSpaceOnUse">
<stop stop-color="#6F0389"/>
<stop offset="0.18" stop-color="#592991"/>
<stop offset="0.59" stop-color="#2288A7"/>
<stop offset="0.83" stop-color="#00C3B4"/>
</linearGradient>
</defs>
</svg>
