<?xml version="1.0" encoding="UTF-8" standalone="no"?>
<!-- Created with Inkscape (http://www.inkscape.org/) -->

<svg
   width="210mm"
   height="297mm"
   viewBox="0 0 210 297"
   version="1.1"
   id="svg231060"
   inkscape:version="1.1.1 (3bf5ae0d25, 2021-09-20)"
   sodipodi:docname="icon.svg"
   xmlns:inkscape="http://www.inkscape.org/namespaces/inkscape"
   xmlns:sodipodi="http://sodipodi.sourceforge.net/DTD/sodipodi-0.dtd"
   xmlns:xlink="http://www.w3.org/1999/xlink"
   xmlns="http://www.w3.org/2000/svg"
   xmlns:svg="http://www.w3.org/2000/svg">
  <sodipodi:namedview
     id="namedview231062"
     pagecolor="#ffffff"
     bordercolor="#666666"
     borderopacity="1.0"
     inkscape:pageshadow="2"
     inkscape:pageopacity="0.0"
     inkscape:pagecheckerboard="0"
     inkscape:document-units="mm"
     showgrid="false"
     inkscape:object-nodes="false"
     inkscape:snap-others="false"
     inkscape:snap-nodes="false"
     inkscape:snap-global="false"
     inkscape:zoom="1.4142136"
     inkscape:cx="-82.377938"
     inkscape:cy="328.45109"
     inkscape:window-width="1920"
     inkscape:window-height="1009"
     inkscape:window-x="-8"
     inkscape:window-y="-8"
     inkscape:window-maximized="1"
     inkscape:current-layer="layer4" />
  <defs
     id="defs231057">
    <rect
       x="119.54017"
       y="244.87004"
       width="129.41671"
       height="184.92967"
       id="rect260548" />
    <rect
       x="138.23043"
       y="290.91003"
       width="191.69238"
       height="122.81798"
       id="rect235476" />
  </defs>
  <g
     inkscape:label="Layer 1"
     inkscape:groupmode="layer"
     id="layer1"
     style="display:inline"
     sodipodi:insensitive="true">
    <circle
       style="display:inline;fill:#000000;stroke-width:0.312023"
       id="path254202"
       cx="50.867939"
       cy="70.940903"
       r="33.866665"
       inkscape:export-filename="C:\Users\indib\Desktop\SUPER\Super Logos\Super_token.png"
       inkscape:export-xdpi="96"
       inkscape:export-ydpi="96" />
    <path
       sodipodi:type="star"
       style="fill:#ffff00"
       id="path288031"
       inkscape:flatsided="false"
       sodipodi:sides="5"
       sodipodi:cx="82.731491"
       sodipodi:cy="254.91199"
       sodipodi:r1="18.950594"
       sodipodi:r2="10.539846"
       sodipodi:arg1="0.93102654"
       sodipodi:arg2="1.5593451"
       inkscape:rounded="0"
       inkscape:randomized="0"
       d="m 94.0452,270.11478 -11.193017,-4.66364 -11.083282,4.91875 0.976553,-12.08634 -8.102925,-9.02085 11.79656,-2.80613 6.075399,-10.49393 6.314122,10.35205 11.85773,2.53524 -7.894221,9.20405 z"
       transform="matrix(0.26458333,0,0,0.26458333,2.2771633,0.75386201)"
       inkscape:transform-center-x="0.017742626"
       inkscape:transform-center-y="-0.46189094" />
    <path
       sodipodi:type="star"
       style="display:inline;fill:#ffff00"
       id="path288031-7"
       inkscape:flatsided="false"
       sodipodi:sides="5"
       sodipodi:cx="82.731491"
       sodipodi:cy="254.91199"
       sodipodi:r1="18.950594"
       sodipodi:r2="10.539846"
       sodipodi:arg1="0.93102654"
       sodipodi:arg2="1.5593451"
       inkscape:rounded="0"
       inkscape:randomized="0"
       transform="matrix(0.26458333,0,0,0.26458333,54.960366,0.61574135)"
       inkscape:transform-center-x="0.017742626"
       inkscape:transform-center-y="-0.46189094"
       d="m 94.0452,270.11478 -11.193017,-4.66364 -11.083282,4.91875 0.976553,-12.08634 -8.102925,-9.02085 11.79656,-2.80613 6.075399,-10.49393 6.314122,10.35205 11.85773,2.53524 -7.894221,9.20405 z" />
  </g>
  <g
     inkscape:groupmode="layer"
     id="layer6"
     inkscape:label="Layer 4"
     style="display:inline"
     sodipodi:insensitive="true">
    <path
       style="font-style:normal;font-variant:normal;font-weight:normal;font-stretch:normal;font-size:96px;line-height:1.25;font-family:Impact;-inkscape-font-specification:Impact;white-space:pre;shape-inside:url(#rect260548);display:inline;fill:#ff00ff;fill-opacity:1;stroke:none"
       sodipodi:type="inkscape:offset"
       inkscape:radius="0"
       inkscape:original="M 103.43945 14.945312 C 99.334385 14.945312 95.72285 15.586696 92.605469 16.871094 C 89.518951 18.15549 87.327587 19.99026 86.03125 22.371094 C 84.734913 24.720601 84.085938 28.384282 84.085938 33.365234 C 84.085938 36.873831 84.688837 39.911676 85.892578 42.480469 C 87.09632 45.017936 90.445452 47.853652 95.939453 50.986328 C 102.48287 54.682885 106.10846 56.90636 106.81836 57.658203 C 107.49739 58.410045 107.83789 60.275912 107.83789 63.251953 C 107.83789 65.413499 107.57549 66.838155 107.05078 67.527344 C 106.52607 68.185205 105.59869 68.513672 104.27148 68.513672 C 103.03688 68.513672 102.2036 68.012221 101.77148 67.009766 C 101.37024 66.00731 101.17187 63.830477 101.17188 60.478516 L 101.17188 56.53125 L 84.597656 56.53125 L 84.597656 59.539062 C 84.597656 64.739302 85.228668 68.622613 86.494141 71.191406 C 87.759612 73.760199 90.075149 75.797097 93.439453 77.300781 C 96.834623 78.804465 100.90887 79.556641 105.66211 79.556641 C 109.95237 79.556641 113.60803 78.868611 116.63281 77.490234 C 119.68846 76.080531 121.86772 74.090278 123.16406 71.521484 C 124.4604 68.921364 125.10742 65.082745 125.10742 60.007812 C 125.10742 55.465433 124.25813 52.005834 122.56055 49.625 C 120.86296 47.244167 117.2975 44.705819 111.86523 42.011719 C 107.79103 39.975479 105.09088 38.424487 103.76367 37.359375 C 102.46733 36.294267 101.68013 35.324415 101.40234 34.447266 C 101.15542 33.53879 101.03125 32.129682 101.03125 30.21875 C 101.03125 28.809045 101.29365 27.757548 101.81836 27.068359 C 102.34307 26.347843 103.13027 25.988281 104.17969 25.988281 C 105.47603 25.988281 106.27924 26.378939 106.58789 27.162109 C 106.92741 27.913951 107.09766 29.731221 107.09766 32.613281 L 107.09766 35.998047 L 123.67188 35.998047 L 123.67188 32.378906 C 123.67188 29.24623 123.50358 26.945012 123.16406 25.472656 C 122.85541 24.000297 121.92802 22.402659 120.38477 20.679688 C 118.87237 18.956715 116.68101 17.576754 113.81055 16.542969 C 110.97095 15.477861 107.51366 14.945313 103.43945 14.945312 z "
       xlink:href="#path277858"
       id="path277918-9"
       transform="matrix(1.0550481,0,0,0.84455728,-59.346592,30.623628)"
       d="m 103.43945,14.945312 c -4.105065,0 -7.7166,0.641384 -10.833981,1.925782 -3.086518,1.284396 -5.277882,3.119166 -6.574219,5.5 -1.296337,2.349507 -1.945312,6.013188 -1.945312,10.99414 0,3.508597 0.602899,6.546442 1.80664,9.115235 1.203742,2.537467 4.552874,5.373183 10.046875,8.505859 6.543417,3.696557 10.169007,5.920032 10.878907,6.671875 0.67903,0.751842 1.01953,2.617709 1.01953,5.59375 0,2.161546 -0.2624,3.586202 -0.78711,4.275391 -0.52471,0.657861 -1.45209,0.986328 -2.7793,0.986328 -1.2346,0 -2.06788,-0.501451 -2.5,-1.503906 -0.40124,-1.002456 -0.59961,-3.179289 -0.5996,-6.53125 V 56.53125 H 84.597656 v 3.007812 c 0,5.20024 0.631012,9.083551 1.896485,11.652344 1.265471,2.568793 3.581008,4.605691 6.945312,6.109375 3.39517,1.503684 7.469417,2.25586 12.222657,2.25586 4.29026,0 7.94592,-0.68803 10.9707,-2.066407 3.05565,-1.409703 5.23491,-3.399956 6.53125,-5.96875 1.29634,-2.60012 1.94336,-6.438739 1.94336,-11.513672 0,-4.542379 -0.84929,-8.001978 -2.54687,-10.382812 -1.69759,-2.380833 -5.26305,-4.919181 -10.69532,-7.613281 -4.0742,-2.03624 -6.77435,-3.587232 -8.10156,-4.652344 -1.29634,-1.065108 -2.08354,-2.03496 -2.36133,-2.912109 -0.24692,-0.908476 -0.37109,-2.317584 -0.37109,-4.228516 0,-1.409705 0.2624,-2.461202 0.78711,-3.150391 0.52471,-0.720516 1.31191,-1.080078 2.36133,-1.080078 1.29634,0 2.09955,0.390658 2.4082,1.173828 0.33952,0.751842 0.50977,2.569112 0.50977,5.451172 v 3.384766 h 16.57422 v -3.619141 c 0,-3.132676 -0.1683,-5.433894 -0.50782,-6.90625 -0.30865,-1.472359 -1.23604,-3.069997 -2.77929,-4.792968 -1.5124,-1.722973 -3.70376,-3.102934 -6.57422,-4.136719 -2.8396,-1.065108 -6.29689,-1.597656 -10.3711,-1.597657 z"
       inkscape:href="#path277858" />
  </g>
  <g
     inkscape:groupmode="layer"
     id="layer4"
     inkscape:label="Layer 3"
     style="display:inline"
     sodipodi:insensitive="true">
    <path
       style="font-style:normal;font-variant:normal;font-weight:normal;font-stretch:normal;font-size:96px;line-height:1.25;font-family:Impact;-inkscape-font-specification:Impact;white-space:pre;shape-inside:url(#rect260548);display:inline;fill:#2ad4ff;fill-opacity:1;stroke:none"
       sodipodi:type="inkscape:offset"
       inkscape:radius="0"
       inkscape:original="M 103.43945 14.945312 C 99.334385 14.945312 95.72285 15.586696 92.605469 16.871094 C 89.518951 18.15549 87.327587 19.99026 86.03125 22.371094 C 84.734913 24.720601 84.085938 28.384282 84.085938 33.365234 C 84.085938 36.873831 84.688837 39.911676 85.892578 42.480469 C 87.09632 45.017936 90.445452 47.853652 95.939453 50.986328 C 102.48287 54.682885 106.10846 56.90636 106.81836 57.658203 C 107.49739 58.410045 107.83789 60.275912 107.83789 63.251953 C 107.83789 65.413499 107.57549 66.838155 107.05078 67.527344 C 106.52607 68.185205 105.59869 68.513672 104.27148 68.513672 C 103.03688 68.513672 102.2036 68.012221 101.77148 67.009766 C 101.37024 66.00731 101.17187 63.830477 101.17188 60.478516 L 101.17188 56.53125 L 84.597656 56.53125 L 84.597656 59.539062 C 84.597656 64.739302 85.228668 68.622613 86.494141 71.191406 C 87.759612 73.760199 90.075149 75.797097 93.439453 77.300781 C 96.834623 78.804465 100.90887 79.556641 105.66211 79.556641 C 109.95237 79.556641 113.60803 78.868611 116.63281 77.490234 C 119.68846 76.080531 121.86772 74.090278 123.16406 71.521484 C 124.4604 68.921364 125.10742 65.082745 125.10742 60.007812 C 125.10742 55.465433 124.25813 52.005834 122.56055 49.625 C 120.86296 47.244167 117.2975 44.705819 111.86523 42.011719 C 107.79103 39.975479 105.09088 38.424487 103.76367 37.359375 C 102.46733 36.294267 101.68013 35.324415 101.40234 34.447266 C 101.15542 33.53879 101.03125 32.129682 101.03125 30.21875 C 101.03125 28.809045 101.29365 27.757548 101.81836 27.068359 C 102.34307 26.347843 103.13027 25.988281 104.17969 25.988281 C 105.47603 25.988281 106.27924 26.378939 106.58789 27.162109 C 106.92741 27.913951 107.09766 29.731221 107.09766 32.613281 L 107.09766 35.998047 L 123.67188 35.998047 L 123.67188 32.378906 C 123.67188 29.24623 123.50358 26.945012 123.16406 25.472656 C 122.85541 24.000297 121.92802 22.402659 120.38477 20.679688 C 118.87237 18.956715 116.68101 17.576754 113.81055 16.542969 C 110.97095 15.477861 107.51366 14.945313 103.43945 14.945312 z "
       xlink:href="#path277858"
       id="path277918"
       inkscape:href="#path277858"
       d="m 103.43945,14.945312 c -4.105065,0 -7.7166,0.641384 -10.833981,1.925782 -3.086518,1.284396 -5.277882,3.119166 -6.574219,5.5 -1.296337,2.349507 -1.945312,6.013188 -1.945312,10.99414 0,3.508597 0.602899,6.546442 1.80664,9.115235 1.203742,2.537467 4.552874,5.373183 10.046875,8.505859 6.543417,3.696557 10.169007,5.920032 10.878907,6.671875 0.67903,0.751842 1.01953,2.617709 1.01953,5.59375 0,2.161546 -0.2624,3.586202 -0.78711,4.275391 -0.52471,0.657861 -1.45209,0.986328 -2.7793,0.986328 -1.2346,0 -2.06788,-0.501451 -2.5,-1.503906 -0.40124,-1.002456 -0.59961,-3.179289 -0.5996,-6.53125 V 56.53125 H 84.597656 v 3.007812 c 0,5.20024 0.631012,9.083551 1.896485,11.652344 1.265471,2.568793 3.581008,4.605691 6.945312,6.109375 3.39517,1.503684 7.469417,2.25586 12.222657,2.25586 4.29026,0 7.94592,-0.68803 10.9707,-2.066407 3.05565,-1.409703 5.23491,-3.399956 6.53125,-5.96875 1.29634,-2.60012 1.94336,-6.438739 1.94336,-11.513672 0,-4.542379 -0.84929,-8.001978 -2.54687,-10.382812 -1.69759,-2.380833 -5.26305,-4.919181 -10.69532,-7.613281 -4.0742,-2.03624 -6.77435,-3.587232 -8.10156,-4.652344 -1.29634,-1.065108 -2.08354,-2.03496 -2.36133,-2.912109 -0.24692,-0.908476 -0.37109,-2.317584 -0.37109,-4.228516 0,-1.409705 0.2624,-2.461202 0.78711,-3.150391 0.52471,-0.720516 1.31191,-1.080078 2.36133,-1.080078 1.29634,0 2.09955,0.390658 2.4082,1.173828 0.33952,0.751842 0.50977,2.569112 0.50977,5.451172 v 3.384766 h 16.57422 v -3.619141 c 0,-3.132676 -0.1683,-5.433894 -0.50782,-6.90625 -0.30865,-1.472359 -1.23604,-3.069997 -2.77929,-4.792968 -1.5124,-1.722973 -3.70376,-3.102934 -6.57422,-4.136719 -2.8396,-1.065108 -6.29689,-1.597656 -10.3711,-1.597657 z"
       transform="matrix(0.98033198,0,0,0.8228521,-51.670459,31.524397)" />
  </g>
  <g
     inkscape:groupmode="layer"
     id="layer5"
     inkscape:label="Layer 2.5"
     style="display:inline"
     sodipodi:insensitive="true">
    <text
       xml:space="preserve"
       id="text260546"
       style="font-style:normal;font-variant:normal;font-weight:normal;font-stretch:normal;font-size:96px;line-height:1.25;font-family:Impact;-inkscape-font-specification:Impact;white-space:pre;shape-inside:url(#rect260548);display:inline;fill:#aad400;fill-opacity:1;stroke:none"
       transform="matrix(0.90145471,0,0,0.81691732,-77.356707,-182.76724)"><tspan
         x="119.54102"
         y="340.97304"
         id="tspan38">s</tspan></text>
  </g>
  <g
     inkscape:groupmode="layer"
     id="layer3"
     inkscape:label="Layer 2"
     style="display:inline"
     sodipodi:insensitive="true">
    <path
       id="path277858-6"
       style="font-style:normal;font-variant:normal;font-weight:normal;font-stretch:normal;font-size:96px;line-height:1.25;font-family:Impact;-inkscape-font-specification:Impact;white-space:pre;shape-inside:url(#rect260548);display:inline;fill:#ffff00;fill-opacity:1;stroke:none"
       sodipodi:type="inkscape:offset"
       inkscape:radius="0"
       inkscape:original="M 48.582031 63.800781 C 45.19186 63.800781 42.209256 64.32405 39.634766 65.369141 C 37.085765 66.414231 35.275658 67.906509 34.205078 69.84375 C 33.134498 71.755501 32.599609 74.736152 32.599609 78.789062 C 32.599609 81.643943 33.097687 84.116851 34.091797 86.207031 C 35.085907 88.271722 37.851451 90.577952 42.388672 93.126953 C 47.792553 96.134774 50.786777 97.94488 51.373047 98.556641 C 51.933827 99.168401 52.214844 100.68587 52.214844 103.10742 C 52.214844 104.86623 51.997783 106.02516 51.564453 106.58594 C 51.131123 107.12123 50.365602 107.38867 49.269531 107.38867 C 48.249931 107.38867 47.561938 106.9817 47.205078 106.16602 C 46.873708 105.35034 46.708984 103.57899 46.708984 100.85156 L 46.708984 97.638672 L 33.021484 97.638672 L 33.021484 100.08594 C 33.021484 104.31728 33.5428 107.47818 34.587891 109.56836 C 35.632981 111.65854 37.545808 113.31554 40.324219 114.53906 C 43.12812 115.76258 46.492508 116.375 50.417969 116.375 C 53.96108 116.375 56.980495 115.81492 59.478516 114.69336 C 62.002026 113.54631 63.800513 111.92612 64.871094 109.83594 C 65.941674 107.72027 66.476562 104.59813 66.476562 100.46875 C 66.476563 96.772699 65.774997 93.956772 64.373047 92.019531 C 62.971096 90.082291 60.027257 88.016359 55.541016 85.824219 C 52.176335 84.167368 49.94568 82.905724 48.849609 82.039062 C 47.779029 81.172403 47.129801 80.383642 46.900391 79.669922 C 46.696471 78.930712 46.59375 77.783406 46.59375 76.228516 C 46.59375 75.081465 46.810811 74.226796 47.244141 73.666016 C 47.677471 73.079745 48.326699 72.787109 49.193359 72.787109 C 50.26394 72.787109 50.926741 73.104937 51.181641 73.742188 C 51.462031 74.353948 51.603516 75.832654 51.603516 78.177734 L 51.603516 80.931641 L 65.291016 80.931641 L 65.291016 77.986328 C 65.291016 75.437327 65.151484 73.565217 64.871094 72.367188 C 64.616194 71.169156 63.850672 69.868747 62.576172 68.466797 C 61.327162 67.064846 59.517055 65.942734 57.146484 65.101562 C 54.801404 64.234903 51.946712 63.800781 48.582031 63.800781 z "
       transform="matrix(1.0073443,0,0,0.97902053,1.1412185,-17.788199)"
       d="m 48.582031,63.800781 c -3.390171,0 -6.372775,0.523269 -8.947265,1.56836 -2.549001,1.04509 -4.359108,2.537368 -5.429688,4.474609 -1.07058,1.911751 -1.605469,4.892402 -1.605469,8.945312 0,2.854881 0.498078,5.327789 1.492188,7.417969 0.99411,2.064691 3.759654,4.370921 8.296875,6.919922 5.403881,3.007821 8.398105,4.817927 8.984375,5.429688 0.56078,0.61176 0.841797,2.129229 0.841797,4.550779 0,1.75881 -0.217061,2.91774 -0.650391,3.47852 -0.43333,0.53529 -1.198851,0.80273 -2.294922,0.80273 -1.0196,0 -1.707593,-0.40697 -2.064453,-1.22265 -0.33137,-0.81568 -0.496094,-2.58703 -0.496094,-5.31446 v -3.212888 h -13.6875 v 2.447268 c 0,4.23134 0.521316,7.39224 1.566407,9.48242 1.04509,2.09018 2.957917,3.74718 5.736328,4.9707 2.803901,1.22352 6.168289,1.83594 10.09375,1.83594 3.543111,0 6.562526,-0.56008 9.060547,-1.68164 2.52351,-1.14705 4.321997,-2.76724 5.392578,-4.85742 1.07058,-2.11567 1.605468,-5.23781 1.605468,-9.36719 10e-7,-3.696051 -0.701565,-6.511978 -2.103515,-8.449219 -1.401951,-1.93724 -4.34579,-4.003172 -8.832031,-6.195312 -3.364681,-1.656851 -5.595336,-2.918495 -6.691407,-3.785157 -1.07058,-0.866659 -1.719808,-1.65542 -1.949218,-2.36914 -0.20392,-0.73921 -0.306641,-1.886516 -0.306641,-3.441406 0,-1.147051 0.217061,-2.00172 0.650391,-2.5625 0.43333,-0.586271 1.082558,-0.878907 1.949218,-0.878907 1.070581,0 1.733382,0.317828 1.988282,0.955079 0.28039,0.61176 0.421875,2.090466 0.421875,4.435546 v 2.753907 h 13.6875 v -2.945313 c 0,-2.549001 -0.139532,-4.421111 -0.419922,-5.61914 -0.2549,-1.198032 -1.020422,-2.498441 -2.294922,-3.900391 -1.24901,-1.401951 -3.059117,-2.524063 -5.429688,-3.365235 -2.34508,-0.866659 -5.199772,-1.300781 -8.564453,-1.300781 z" />
  </g>
</svg>
