<svg width="256" height="256" viewBox="0 0 256 256" fill="none" xmlns="http://www.w3.org/2000/svg">
<path d="M128 256C198.692 256 256 198.692 256 128C256 57.3075 198.692 0 128 0C57.3075 0 0 57.3075 0 128C0 198.692 57.3075 256 128 256Z" fill="black"/>
<path d="M38.395 132.841L27.202 128.177L16.1187 133.096L17.0952 121.01L8.99231 111.989L20.7889 109.183L26.8643 98.689L33.1784 109.041L45.0361 111.576L37.1419 120.78L38.395 132.841Z" fill="#FFFF00"/>
<path d="M237.513 132.319L226.32 127.655L215.236 132.574L216.213 120.488L208.11 111.467L219.907 108.661L225.982 98.1666L232.296 108.519L244.154 111.054L236.26 120.258L237.513 132.319Z" fill="#FFFF00"/>
<path d="M123.914 23.3258C107.545 23.3258 93.1439 25.3731 80.7131 29.473C68.4053 33.5728 59.6671 39.4294 54.4978 47.0291C49.3286 54.5288 46.7407 66.2234 46.7407 82.1227C46.7407 93.3222 49.1448 103.019 53.9449 111.219C58.7449 119.318 72.0998 128.37 94.0076 138.37C120.1 150.169 134.557 157.267 137.388 159.667C140.096 162.066 141.454 168.022 141.454 177.522C141.454 184.422 140.407 188.969 138.315 191.169C136.223 193.269 132.525 194.317 127.232 194.317C122.309 194.317 118.986 192.717 117.263 189.517C115.663 186.317 114.872 179.369 114.872 168.669V156.069H48.7812V165.67C48.7812 182.27 51.2975 194.665 56.3436 202.865C61.3898 211.065 70.6232 217.566 84.0386 222.366C97.5772 227.166 113.824 229.567 132.778 229.567C149.885 229.567 164.463 227.371 176.524 222.971C188.709 218.471 197.399 212.118 202.568 203.918C207.737 195.619 210.317 183.366 210.317 167.167C210.317 152.667 206.931 141.624 200.161 134.024C193.392 126.425 179.175 118.322 157.513 109.723C141.267 103.223 130.5 98.272 125.207 94.8721C120.038 91.4723 116.899 88.3765 115.791 85.5766C114.807 82.6767 114.312 78.1788 114.312 72.079C114.312 67.5792 115.358 64.2228 117.45 62.0229C119.543 59.723 122.682 58.5753 126.866 58.5753C132.035 58.5753 135.238 59.8223 136.469 62.3222C137.823 64.7221 138.502 70.5228 138.502 79.7224V90.5267H204.593V78.9743C204.593 68.9747 203.922 61.6292 202.568 56.9294C201.337 52.2296 197.639 47.1299 191.485 41.6301C185.455 36.1303 176.716 31.7254 165.27 28.4256C153.947 25.0257 140.161 23.3258 123.914 23.3258V23.3258Z" fill="#FF00FF"/>
<path d="M123.716 25.5039C108.506 25.5039 95.1247 27.4986 83.5742 31.4931C72.138 35.4875 64.0186 41.1937 59.2154 48.598C54.4123 55.905 52.0077 67.299 52.0077 82.7897C52.0077 93.7014 54.2415 103.149 58.7016 111.138C63.1617 119.03 75.5709 127.849 95.9272 137.591C120.172 149.087 133.605 156.002 136.236 158.341C138.752 160.679 140.013 166.482 140.013 175.737C140.013 182.46 139.041 186.89 137.097 189.034C135.153 191.08 131.717 192.101 126.799 192.101C122.225 192.101 119.137 190.542 117.536 187.424C116.049 184.306 115.314 177.536 115.314 167.112V154.836H53.9037V164.19C53.9037 180.363 56.2417 192.44 60.9305 200.429C65.6194 208.418 74.1989 214.752 86.6643 219.429C99.244 224.105 114.34 226.445 131.952 226.445C147.848 226.445 161.393 224.305 172.6 220.018C183.922 215.634 191.996 209.444 196.8 201.455C201.603 193.369 204 181.431 204 165.648C204 151.521 200.853 140.762 194.563 133.357C188.274 125.953 175.063 118.059 154.935 109.68C139.84 103.348 129.835 98.5239 124.917 95.2115C120.114 91.899 117.198 88.8827 116.168 86.1548C115.253 83.3295 114.793 78.9472 114.793 73.0042C114.793 68.62 115.766 65.3499 117.71 63.2065C119.654 60.9657 122.571 59.8475 126.459 59.8475C131.262 59.8475 134.238 61.0624 135.382 63.498C136.64 65.8363 137.271 71.488 137.271 80.4511V90.9777H198.681V79.7222C198.681 69.9796 198.058 62.8229 196.8 58.2439C195.656 53.6648 192.22 48.6962 186.502 43.3378C180.898 37.9793 172.779 33.6877 162.143 30.4726C151.622 27.1601 138.812 25.5039 123.716 25.5039V25.5039Z" fill="#2AD4FF"/>
<path d="M124.446 29.9557C110.073 29.9557 97.4283 31.8742 86.5137 35.7059C75.7072 39.5375 68.0332 45.0088 63.4945 52.1114C58.9557 59.1205 56.688 70.0487 56.688 84.9081C56.688 95.3751 58.7997 104.442 63.0142 112.105C67.2288 119.675 78.9533 128.13 98.189 137.476C121.099 148.504 133.793 155.14 136.278 157.383C138.656 159.626 139.847 165.19 139.847 174.068C139.847 180.516 138.927 184.765 137.09 186.821C135.253 188.784 132.007 189.764 127.361 189.764C123.038 189.764 120.121 188.272 118.608 185.282C117.203 182.291 116.505 175.797 116.505 165.797V154.018H58.4766V162.99C58.4766 178.504 60.6867 190.093 65.1174 197.756C69.5481 205.419 77.6576 211.495 89.4367 215.98C101.324 220.466 115.587 222.712 132.229 222.712C147.25 222.712 160.051 220.658 170.642 216.546C181.34 212.341 188.965 206.4 193.504 198.737C198.042 190.98 200.31 179.533 200.31 164.394C200.31 150.843 197.336 140.518 191.392 133.416C185.449 126.313 172.968 118.739 153.949 110.701C139.684 104.627 130.227 100.001 125.58 96.8238C121.042 93.6463 118.289 90.7544 117.317 88.1376C116.452 85.4274 116.016 81.221 116.016 75.5202C116.016 71.3147 116.937 68.1812 118.774 66.1252C120.611 63.9757 123.363 62.9028 127.038 62.9028C131.576 62.9028 134.386 64.0681 135.467 66.4044C136.656 68.6474 137.256 74.0688 137.256 82.6667V92.7635H195.284V81.965C195.284 72.6194 194.692 65.7556 193.504 61.3632C192.423 56.9708 189.178 52.203 183.774 47.063C178.479 41.9229 170.805 37.8089 160.755 34.7248C150.813 31.5473 138.71 29.9557 124.446 29.9557V29.9557Z" fill="#AAD400"/>
<path d="M125.022 28.7239C112.115 28.7239 100.759 30.6601 90.9575 34.5272C81.2527 38.3943 74.3611 43.916 70.2851 51.0843C66.2091 58.1582 64.1726 69.1873 64.1726 84.184C64.1726 94.7478 66.0689 103.898 69.8538 111.632C73.6387 119.272 84.1679 127.806 101.442 137.238C122.016 148.367 133.416 155.065 135.648 157.329C137.783 159.592 138.853 165.207 138.853 174.168C138.853 180.676 138.027 184.964 136.377 187.039C134.727 189.02 131.813 190.009 127.64 190.009C123.758 190.009 121.138 188.503 119.78 185.485C118.518 182.467 117.891 175.913 117.891 165.82V153.932H65.7788V162.987C65.7788 178.644 67.7636 190.341 71.7426 198.075C75.7215 205.809 83.0042 211.94 93.5824 216.467C104.258 220.995 117.067 223.261 132.012 223.261C145.502 223.261 156.998 221.188 166.508 217.038C176.116 212.794 182.963 206.799 187.039 199.065C191.115 191.236 193.152 179.684 193.152 164.404C193.152 150.728 190.481 140.308 185.143 133.14C179.806 125.972 168.597 118.327 151.517 110.216C138.707 104.085 130.214 99.4167 126.041 96.2098C121.965 93.003 119.493 90.0844 118.62 87.4434C117.843 84.7082 117.452 80.4629 117.452 74.7094C117.452 70.4651 118.279 67.3026 119.929 65.2276C121.578 63.0582 124.05 61.9754 127.35 61.9754C131.426 61.9754 133.949 63.1514 134.92 65.5094C135.987 67.7731 136.526 73.2446 136.526 81.922V92.1121H188.638V81.2137C188.638 71.7818 188.107 64.8546 187.039 60.4216C186.069 55.9886 183.154 51.1768 178.302 45.9892C173.547 40.8017 166.655 36.6496 157.63 33.5371C148.701 30.3302 137.833 28.7239 125.022 28.7239V28.7239Z" fill="#FFFF00"/>
</svg>
