<?xml version="1.0" encoding="utf-8"?>
<!-- Generator: Adobe Illustrator 26.0.1, SVG Export Plug-In . SVG Version: 6.00 Build 0)  -->
<svg version="1.1" id="Ebene_1" xmlns="http://www.w3.org/2000/svg" xmlns:xlink="http://www.w3.org/1999/xlink" x="0px" y="0px"
	 viewBox="0 0 256 256" style="enable-background:new 0 0 256 256;" xml:space="preserve">
<style type="text/css">
	.st0{display:none;fill:#FEFEFE;}
	.st1{fill:#ED2312;}
	.st2{fill:#ED2414;}
	.st3{fill:#ED2413;}
	.st4{display:none;fill:#EB1304;}
	.st5{display:none;fill:#EE382A;}
	.st6{display:none;fill:#FDFAF9;}
</style>
<g>
	<path class="st0" d="M0,256C0,170.7,0,85.3,0,0c85.3,0,170.7,0,256,0c0,85.3,0,170.7,0,256C170.7,256,85.3,256,0,256z M117.6,77.7
		c-3.8,1.1-7.7,1.9-11.3,3.5c-2.9,1.3-4.6,0.9-6.9-1.1C91.6,73.4,82.5,69.2,72.4,67c-3.9-0.8-6.2,0.2-6.6,4.2
		c-1.1,11-4,22.3-2.6,32.9c2.1,15.8,3.2,31.2-0.5,46.8c-1.4,6.1,2.1,9.7,6.8,13.1c0-2.4,0-4.3,0-6.2c0-10,5-17.6,13.4-19.7
		c3.3-0.8,4.4-2.2,4.9-5.5c1.5-9,8.2-15.2,15.7-15.3c7.4-0.1,14.2,5.5,15.7,14c0.9,5.1,2.9,6.9,7.8,6.1c0.8-0.1,1.7-0.1,2.5,0
		c4.8,0.7,7.3-0.6,8.2-6.2c1.4-8.9,8.8-14.4,16.7-13.9c7.1,0.5,13.4,6.9,14.8,15.8c0.5,3,1.5,4.2,4.4,4.8c5.7,1,9.9,4.6,11.5,9.9
		c1.6,5.2,2,10.7,2.9,16c3.6-2.8,7.6-6.2,6.3-12.8c-1.3-6.6-2.4-13.3-3.4-20c-0.3-2.4-0.6-4.9,0-7.2c4.6-17.5,4.6-35,0.4-52.6
		c-0.9-3.9-2.8-5.1-6.7-4.2c-9.9,2.2-18.9,6.2-26.5,12.8c-2.6,2.2-4.5,2.8-7.8,1.3c-3.7-1.7-7.8-2.3-11.8-3.4
		c-0.7,0.4-1.4,0.7-2.1,1.1c0,5.6,0,11.3,0.1,16.9c0.3,0.3,0.6,0.6,1,0.9c1.9,0.1,3.7,0.2,6.1,0.4c-2.7,3.7-5.1,6.8-7.4,10
		c-2.4,3.2-4.9,6.5-7.6,10c-2.7-3.6-5-6.8-7.4-9.9c-2.4-3.2-4.8-6.3-7.2-9.5c0.2-0.3,0.4-0.6,0.7-0.9c1.6,0,3.3,0,4.9,0
		c0.6-0.3,1.1-0.7,1.7-1c-0.1-5.3-0.1-10.6-0.1-15.8C121.9,75.5,119.6,76.9,117.6,77.7z M167.1,176.8c8.2-11,8.1-21.9,0.8-31.7
		c-2.8-3.7-4.6-8.2-7.2-12c-1.5-2.1-3.6-4.8-5.8-5.3c-3.2-0.7-7.4,0.1-8.3,4.3c-0.7,3.1-1.1,6.9,0.1,9.7c3.6,8.4,8.1,16.4,12.2,24.6
		c0.6,1.2,1.4,2.2,2.7,4.2c1.9-4.5,3.3-7.9,4.7-11.3c0.3,0,0.6,0,0.9,0C167.1,164.9,167.1,170.4,167.1,176.8z M96.7,174.4
		c0.3-0.2,0.6-0.5,0.8-0.7c0.7-4.3,0.7-9,2.4-12.9c2.9-6.6,7.5-12.4,10.5-19c1.2-2.7,1.2-6.8,0-9.6c-0.9-2.1-4.4-4.6-6.6-4.4
		c-2.5,0.2-5.4,2.6-7.1,4.9c-3.2,4.3-5.3,9.3-8.4,13.6c-4.9,6.9-6.1,16.1-2.4,21.9c1.8-3.4,3.6-6.8,5.5-10.4
		C93.3,163.9,95,169.2,96.7,174.4z M136.6,154.8c0-5-2.3-7.3-7.7-7.3c-6-0.1-8.4,1.9-8.5,7c-0.1,4.5,4.4,10.5,7.9,10.6
		C131.9,165.3,136.6,159.4,136.6,154.8z"/>
	<path class="st1" d="M121.2,107.2c2.4,3.2,4.7,6.3,7.4,9.9c2.7-3.6,5.2-6.8,7.6-10c2.4-3.2,4.7-6.3,7.4-10l-7.1-0.4
		c0-5.9,0-11.8-0.1-17.7c-0.2-3,0.7-2.1,2-1.9c3.9,1.1,8.2,2.5,11.9,4.2c3.3,1.5,5.2,1,7.8-1.3c7.7-6.6,16.6-10.6,26.5-12.8
		c3.9-0.9,5.8,0.4,6.7,4.2c4.3,17.6,4.2,35-0.4,52.6c-1.3,4.9,1.4,11.3,0.4,13.6c-1,2.6-0.5,5.5,0.8,7.9c5.5,10.4,0.4,14.9-4.2,18.4
		c-0.9-5.2-1.2-10.8-2.9-16c-1.7-5.5-6.1-9.1-12-9.9c-2.1-0.3-3.6-2.1-3.9-4.2c-1.2-9.1-7.6-15.8-14.8-16.2
		c-7.9-0.5-15.2,5-16.7,13.9c-0.9,5.6-3.5,6.9-8.4,6.2c-0.7-0.1-1.5-0.1-2.2,0c-4.9,0.8-7-1-7.9-6.1c-1.4-8.5-8.3-14.1-15.7-14
		c-7.8,0.1-14.6,6.6-15.8,16c-0.3,2.3-2,4.1-4.3,4.6c-8.7,1.8-13.9,9.6-13.9,19.8c0,1.9,0,3.9,0,6.2c-4.8-3.3-8.2-6.9-6.8-13.1
		c3.6-15.6,2.6-31,0.5-46.8c-1.4-10.7,1.5-22,2.6-32.9c0.4-4,2.7-5.1,6.6-4.2c10.1,2.2,19.1,6.4,26.9,13.1c2.3,2,4.1,2.4,6.9,1.1
		c3.6-1.6,7.5-3.3,11.3-4.4c0.7-0.4,3.6-1,3.7,0.1c0.1,5.6-0.1,14.6,0,19.8l-7.9,0.1C116,100.4,118.6,103.8,121.2,107.2z
		 M96.4,103.5c-3.2-5.7-6.3-11.2-9.4-16.7l6.2-5.9c-7.9-2.2-15-4.3-22.6-6.4c-1,9.8-1.9,18.8-2.9,28.6l6.6-5.2
		c3.3,5.6,6.3,10.9,9.5,16.4C88.2,110.6,92.2,107.2,96.4,103.5z M183.6,73.4c-7.5,3.2-14.3,6.2-21.7,9.3c2.6,1.9,4.6,3.3,6.6,4.9
		c-2.5,6-5,11.9-7.5,17.8c4.6,3,8.9,5.8,13.5,8.7c2.7-6.1,5.2-11.8,7.8-17.7c2.4,1.4,4.1,2.5,6.8,4.1
		C187.3,91.1,185.6,82.7,183.6,73.4z"/>
	<path class="st2" d="M167.1,176.2v-15.9c-0.7-0.1-0.5-0.1-1.2-0.2c-1.3,3.1-2.6,6.2-4.2,10.1c-0.1,0.1-0.2,0.1-0.3,0
		c-1.2-1.8-1.9-2.8-2.5-3.9c-4.2-8.2-8.6-16.2-12.2-24.6c-1.2-2.8-0.8-6.6-0.1-9.7c0.9-4.2,5-5,8.3-4.3c2.2,0.5,4.3,3.1,5.8,5.3
		c2.7,3.9,4.4,8.3,7.2,12c7.2,9.6,7.5,20.4-0.4,31.2C167.3,176.5,167.1,176.4,167.1,176.2z"/>
	<path class="st3" d="M96.8,174.2c-1.8-5.5-3.3-9.8-5.3-16.2c0-0.1-0.2-0.1-0.2,0c-1.8,3.4-3.6,6.7-5.3,9.9c-0.1,0.1-0.2,0.1-0.2,0
		c-3.6-5.8-2.3-14.9,2.6-21.7c3.1-4.4,5.2-9.4,8.4-13.6c1.7-2.2,4.6-4.7,7.1-4.8c2.2-0.2,5.8,2.3,6.6,4.4c1.1,2.8,1.2,6.9,0,9.6
		c-3,6.6-7.5,12.4-10.5,19c-2,4.4-1.3,9.6-2.7,13.5C97.1,174.6,96.8,174.5,96.8,174.2z"/>
	<path class="st3" d="M136.6,154.8c0,4.6-4.7,10.4-8.3,10.3c-3.5-0.1-8.1-6.2-7.9-10.6c0.1-5.1,2.5-7.1,8.5-7
		C134.3,147.6,136.6,149.8,136.6,154.8z"/>
	<path class="st4" d="M138.5,77.6c-0.7,0.4-1.4,0.7-2.1,1.1C137.1,78.3,137.8,78,138.5,77.6z"/>
	<path class="st5" d="M119.5,96.6c0.6-0.3,1.1-0.7,1.7-1C120.6,95.9,120.1,96.3,119.5,96.6z"/>
	<path class="st4" d="M136.5,95.6c0.3,0.3,0.6,0.6,1,0.9C137.1,96.2,136.8,95.9,136.5,95.6z"/>
	<path class="st5" d="M113.9,97.5c0.2-0.3,0.4-0.6,0.7-0.9C114.4,96.9,114.2,97.2,113.9,97.5z"/>
	<path class="st6" d="M96.4,103.2c-4.2,3.7-8.2,7.1-12.6,10.9c-3.2-5.6-6.3-10.8-9.5-16.4c-1.9,1.5-3.8,3-6.6,5.2
		c1-9.8,1.9-18.8,2.9-28.6c7.7,2.2,14.8,4.2,22.6,6.4c-2.3,2.2-4.1,3.9-6.2,5.9C90.1,92.1,93.2,97.6,96.4,103.2z"/>
	<path class="st6" d="M183.6,73.2c1.9,9.2,3.7,17.7,5.6,27.1c-2.7-1.6-4.5-2.7-6.8-4.1c-2.6,5.8-5.1,11.6-7.8,17.7
		c-4.6-3-8.9-5.7-13.5-8.7c2.5-6,5-11.8,7.5-17.8c-2.1-1.5-4.1-3-6.6-4.9C169.2,79.3,176.1,76.4,183.6,73.2z"/>
</g>
</svg>
