<?xml version="1.0" standalone="no"?>
<!DOCTYPE svg PUBLIC "-//W3C//DTD SVG 20010904//EN"
 "http://www.w3.org/TR/2001/REC-SVG-20010904/DTD/svg10.dtd">
<svg version="1.0" xmlns="http://www.w3.org/2000/svg"
 width="256.000000pt" height="256.000000pt" viewBox="0 0 256.000000 256.000000"
 preserveAspectRatio="xMidYMid meet">
<metadata>
Created by potrace 1.16, written by Peter Selinger 2001-2019
</metadata>
<g transform="translate(0.000000,256.000000) scale(0.100000,-0.100000)"
fill="#000000" stroke="none">
<path d="M370 1735 c0 -35 0 -35 44 -35 79 0 76 16 76 -399 0 -413 5 -390 -76
-399 -44 -5 -45 -6 -42 -36 l3 -31 260 0 c238 1 266 3 330 23 169 52 269 178
296 375 30 218 -48 404 -202 482 -89 46 -160 55 -436 55 l-253 0 0 -35z m498
-59 c65 -23 101 -56 132 -121 75 -153 59 -427 -33 -546 -48 -63 -104 -89 -194
-89 l-73 0 0 385 0 385 64 0 c35 0 82 -6 104 -14z"/>
<path d="M1330 1645 l0 -125 45 0 45 0 0 40 c0 57 24 108 55 120 15 6 58 10
96 10 l70 0 -3 -376 -3 -376 -24 -19 c-13 -10 -38 -19 -57 -19 -32 0 -34 -2
-34 -35 l0 -35 223 2 222 3 3 31 c3 30 2 31 -43 37 -84 9 -80 -11 -80 410 l0
372 76 3 c91 3 124 -16 134 -76 16 -98 12 -92 62 -92 37 0 44 3 39 16 -3 9 -6
65 -6 125 l0 109 -410 0 -410 0 0 -125z"/>
</g>
</svg>
