<?xml version="1.0" encoding="utf-8"?>
<!-- Generator: Adobe Illustrator 24.3.0, SVG Export Plug-In . SVG Version: 6.00 Build 0)  -->
<svg version="1.1" id="Ebene_1" xmlns="http://www.w3.org/2000/svg" xmlns:xlink="http://www.w3.org/1999/xlink" x="0px" y="0px"
	 viewBox="0 0 256 256" style="enable-background:new 0 0 256 256;" xml:space="preserve">
<style type="text/css">
	.st0{fill:#14092E;}
	.st1{fill:url(#SVGID_1_);}
	.st2{fill:#00C491;}
	.st3{fill:url(#SVGID_2_);}
	.st4{fill:url(#SVGID_3_);}
	.st5{fill:url(#SVGID_4_);}
	.st6{fill:url(#SVGID_5_);}
	.st7{fill:url(#SVGID_6_);}
	.st8{fill:url(#SVGID_7_);}
</style>
<g>
	<path class="st0" d="M255,128c0,70-56.8,127-127.1,127S1,198,1,128S57.9,1,127.9,1S255,57.9,255,128z"/>
	<g>
		
			<linearGradient id="SVGID_1_" gradientUnits="userSpaceOnUse" x1="76.15" y1="207.842" x2="76.15" y2="54.7636" gradientTransform="matrix(1 0 0 -1 0 256.9292)">
			<stop  offset="0" style="stop-color:#00C491"/>
			<stop  offset="1" style="stop-color:#6DC156"/>
		</linearGradient>
		<path class="st1" d="M108.9,174.1c-4.9-4-10.1-8.9-15.5-14.4c-1.6-1.7-3.3-3.4-4.9-5.2C82.4,148,76.1,140.7,70,133
			c-20.4-25.6-30.8-53.6-34.8-65.9c11.1,6.6,36.1,22.9,56.5,48.5c6.2,7.8,11.5,15,16.1,21.7c0.5,5.3,1.2,10.6,2,15.6
			c0.3,1.9,0.6,3.7,1,5.5c1.5,7.8,3.3,14.8,5.6,20.2c0.2,0.5,0.4,1,0.7,1.5c-0.5-0.3-0.9-0.6-1.4-1
			C113.7,177.9,111.4,176.2,108.9,174.1z"/>
		<g>
			<g>
				<path class="st2" d="M167.5,175.7"/>
			</g>
		</g>
		
			<linearGradient id="SVGID_2_" gradientUnits="userSpaceOnUse" x1="66.45" y1="207.842" x2="66.45" y2="54.7636" gradientTransform="matrix(1 0 0 -1 0 256.9292)">
			<stop  offset="0" style="stop-color:#00C491"/>
			<stop  offset="1" style="stop-color:#6DC156"/>
		</linearGradient>
		<path class="st3" d="M86.2,160.2c-30.1,3-54.6,8.4-67.4,11.7c15.4,3.9,47.7,11.1,86.5,13.2c2.9,0.2,5.9,0.3,8.8,0.4
			c-1.5-1-3.1-2.2-4.7-3.4C102,176.2,93.8,168.3,86.2,160.2z"/>
		
			<linearGradient id="SVGID_3_" gradientUnits="userSpaceOnUse" x1="102.15" y1="209.141" x2="102.15" y2="56.0626" gradientTransform="matrix(1 0 0 -1 0 256.9292)">
			<stop  offset="0" style="stop-color:#00C491"/>
			<stop  offset="1" style="stop-color:#6DC156"/>
		</linearGradient>
		<path class="st4" d="M123.7,189.9c-5.1-0.1-10.2-0.2-15.1-0.5c-2.9,2.2-5.9,4.7-9.1,7.5c-9.8,8.6-15.7,17.9-18.9,23.8
			c7.5-3.3,20.3-9.8,31-19.1C116.5,197.3,120.5,193.3,123.7,189.9z"/>
		
			<linearGradient id="SVGID_4_" gradientUnits="userSpaceOnUse" x1="189.65" y1="207.842" x2="189.65" y2="54.7636" gradientTransform="matrix(1 0 0 -1 0 256.9292)">
			<stop  offset="0" style="stop-color:#00C491"/>
			<stop  offset="1" style="stop-color:#6DC156"/>
		</linearGradient>
		<path class="st5" d="M169.9,160.2c30.1,3,54.6,8.4,67.4,11.7c-15.4,3.9-47.7,11.1-86.5,13.2c-2.9,0.2-5.9,0.3-8.8,0.4
			c1.5-1,3.1-2.2,4.7-3.4C154.1,176.2,162.3,168.3,169.9,160.2z"/>
		
			<linearGradient id="SVGID_5_" gradientUnits="userSpaceOnUse" x1="153.95" y1="209.141" x2="153.95" y2="56.0626" gradientTransform="matrix(1 0 0 -1 0 256.9292)">
			<stop  offset="0" style="stop-color:#00C491"/>
			<stop  offset="1" style="stop-color:#6DC156"/>
		</linearGradient>
		<path class="st6" d="M132.4,189.9c5.1-0.1,10.2-0.2,15.1-0.5c2.9,2.2,5.9,4.7,9.1,7.5c9.8,8.6,15.7,17.9,18.9,23.8
			c-7.5-3.3-20.3-9.8-31-19.1C139.6,197.3,135.6,193.3,132.4,189.9z"/>
		
			<linearGradient id="SVGID_6_" gradientUnits="userSpaceOnUse" x1="179.95" y1="207.842" x2="179.95" y2="54.7636" gradientTransform="matrix(1 0 0 -1 0 256.9292)">
			<stop  offset="0" style="stop-color:#00C491"/>
			<stop  offset="1" style="stop-color:#6DC156"/>
		</linearGradient>
		<path class="st7" d="M147.2,174.1c4.9-4,10.1-8.9,15.5-14.4c1.6-1.7,3.3-3.4,4.9-5.2c6.1-6.5,12.4-13.8,18.5-21.5
			c20.4-25.6,30.8-53.6,34.8-65.9c-11.1,6.6-36.1,22.9-56.5,48.5c-6.2,7.8-11.5,15-16.1,21.7c-0.5,5.3-1.2,10.6-2,15.6
			c-0.3,1.9-0.6,3.7-1,5.5c-1.5,7.8-3.3,14.8-5.6,20.2c-0.2,0.5-0.4,1-0.7,1.5c0.5-0.3,0.9-0.6,1.4-1
			C142.4,177.9,144.7,176.2,147.2,174.1z"/>
		
			<linearGradient id="SVGID_7_" gradientUnits="userSpaceOnUse" x1="128.2" y1="207.842" x2="128.2" y2="54.7636" gradientTransform="matrix(1 0 0 -1 0 256.9292)">
			<stop  offset="0" style="stop-color:#00C491"/>
			<stop  offset="1" style="stop-color:#6DC156"/>
		</linearGradient>
		<path class="st8" d="M115.2,148.8c0.2,1.4,0.4,2.7,0.6,4c0.3,1.9,0.7,3.8,1,5.6c0.9,4.4,1.8,8.4,2.8,11.8c0.6,2,1.2,3.8,1.8,5.4
			c0.1,0.3,0.2,0.5,0.3,0.8c1.6,4.1,3.2,6.9,4.8,8.1c0.6,0.5,1.3,0.8,1.8,0.8c0.2,0,0.4,0,0.7-0.1c0.5-0.2,1.1-0.5,1.6-1.1
			c1.4-1.4,2.9-4.1,4.4-7.9c0.1-0.1,0.1-0.3,0.2-0.4c0.5-1.4,1-2.9,1.5-4.5c1.1-3.6,2.2-7.9,3.1-12.8c0.4-1.8,0.7-3.6,1-5.6
			c0.3-1.5,0.5-3.2,0.7-4.8c0.6-3.9,1.1-8.1,1.5-12.6c1.1-10.7,1.7-22.8,1.7-36.2c0-37.1-11.3-69.1-16.5-81.8
			c-5.2,12.7-16.5,44.7-16.5,81.8c0,13.8,0.7,26.3,1.8,37.2C114.1,140.7,114.6,144.9,115.2,148.8z"/>
	</g>
</g>
</svg>
