<svg xmlns="http://www.w3.org/2000/svg" width="256" height="257" fill="none"><g clip-path="url(#a)"><path fill="#EFDA00" d="M127.8 255.3a127.3 127.3 0 1 0 0-254.7 127.3 127.3 0 0 0 0 254.7Z"/><path fill="#FDEE5F" fill-rule="evenodd" d="M127.5 241.5a113.5 113.5 0 1 0 0-227 113.5 113.5 0 0 0 0 227Zm0-5a108.5 108.5 0 1 0 0-217 108.5 108.5 0 0 0 0 217Z" clip-rule="evenodd"/><path fill="#FDEE5F" fill-rule="evenodd" d="M123 33.3c-21.4 1-42.6 9.3-51.7 20.3-3.5 4.3-.3 7.5 3.4 3.3 7.7-8.9 21.7-15.8 39.5-19.4a74.6 74.6 0 0 1 29.7-.6c2.1.6 2.4.6 2.4-.2 0-.9-6.7-2.5-12.2-3a67 67 0 0 0-11.1-.4Zm64.8 17c-2.2.5-3 .8-7.5 3a48 48 0 0 1-9.6 3.4l-3.7 1c-.6.2-2.2.7-3.8 1-7.6 1.4-10.7 3-15.7 8a60.6 60.6 0 0 0-11.4 17.7c-1.2 3.7-1 7.8.5 11 .4.9.4.9-.2 1.5l-2.7 3.9c-4 6-6.2 8-10.7 9.8-6.5 2.6-10.3 1.7-17.9-4.2-2.9-2.2-4-3-5.7-3.7-12.6-5.6-25.8-3.3-31.6 5.7-.8 1-.8 1-2.3 1-3.6.2-8.7 1.6-11.5 3.5-4.8 3.2-9.9 11.9-9.6 16.5 0 .6 0 .6-.5.9a16 16 0 0 0-7 7.3c-.5 1-.5 1-.8.5-2.1-4.5-7.7-2.5-8.4 2.9l-.6 2.7c-1.3 5.5-1.2 6 1.1 14.3.6 1.5 1 2.4 1 1.7l-.3-1.6c-1-4.8-1-9.9 0-14.7.5-4 1.5-6 3.1-6.2 1.5 0 2 .8 2.5 5a34 34 0 0 0 3.4 12.9c.8 1.4 1 1.5.6.5-2.1-6.8-2-13 .5-17.2 2-3.5 5.6-7 7.4-7.4.9-.2 1.6-.9 1-1l-.2-.2c0-.3.6-1.7 1-2.4l.5-1.4c2.2-9.7 12.3-17.4 18.8-14.1.9.4 1.2.3 1.2-.5a35 35 0 0 1 7-7c4.7-3.2 14.3-3.2 20.9-.1 3.3 1.5 7.8 4.7 11.6 8 5.8 5.2 9 5.1 18.4 0 3.9-2.2 8.3-7.2 12-13.5 2.1-3.5 2.2-4 1-4-.6 0-.6 0-.7-.8a8 8 0 0 0-.8-2.8c-.5-1.4-.2-4.8.6-5.5l1.7-3.9c1.6-3.9 1.8-4.3 4-7.3 5.4-7 8-9.6 11.7-11.4 1.8-1 3.9-1.4 10.7-2.6a39 39 0 0 0 13.8-4.8c8.2-4.5 8.4-4.5 17.6-2.3 1.3.4 1.3.4 0-1-2.1-1.8-6.5-2.7-10.4-2Zm16.5 8.3c-.4 1.7-.9 2.2-2.1 2.5-1 .3-3.4 1.4-5.7 2.7-2.3 1.4-2 1.3-4 .6a14 14 0 0 0-8.4-.7 12 12 0 0 1-5.3-.3c-3-.6-4.6-.2-6.4 1.7-.8.9-.9 1-1.8 1.1-1.6.4-2 .5-2.7 1.2-.2.4-.8.8-1.6 1.1a18 18 0 0 0-4.5 3.4l-2.6 2a20 20 0 0 0-6 5c-2.7 3.1-3.1 3.4-6 4.8l-2 1a8.8 8.8 0 0 1-3.5 1.7c-1.6.6-1.8.6-2.4 1.2-.6.5-.3 1 .6.6l2.3-.4a41.6 41.6 0 0 0 22.8-13 99 99 0 0 1 6-5.4c1.3-.9 1.3-.9 1.3-1.9.2-4.4 6.2-5.8 8.3-2 .3.7.3.7 1.8.5h5c8 .4 9.5-.1 16.5-4.7l1.8-1.1c.6-.3.5-.3-.5-1.3-.7-.9-.7-.9-1-.3Zm4 5.6c.2.8.3 1 .8 1.8.6.7.7 1.8.7 3.9 0 5.6-2.9 9.2-10.2 12.7-4.2 2-8.1 4.4-11 6.7l-2.7 1.7a34.9 34.9 0 0 0-7.5 5.4 17.8 17.8 0 0 1-3.7 2.8c-1 .3-1 .4-1.8 1.7l-1.9 2.4a18.7 18.7 0 0 0-3.1 4.6 45 45 0 0 1-4.7 7c-1.2 1.6-1.2 1.5.3 1.7.6 0 1.9.2 2.8.5l2.7.6a20.4 20.4 0 0 1 16 18.2c.2 1.4.3 1.7 2 2.3 5.5 2 9.4 7.6 11 16.3a46 46 0 0 1-1.6 15.5c-.6 1.9-1.5 3.7-2.7 5.4 1-.8 3.2-4.9 4.1-7.5a26 26 0 0 0 1.5-14.6c-1-5.4-6.1-13.2-10.5-16-1-.8-1-.8-1-2a24 24 0 0 0-5.4-13.5 19 19 0 0 0-14.2-6.9l-1.7-.1.7-1.1c2.3-3 3.8-5.4 6-9.2 2.2-4 3.2-5 7.5-7.2 2.6-1.3 3.4-1.9 6-3.9 4-3.2 6.2-4.7 8.8-6 2-1 3.3-1.7 4.4-2.6l2-1a20 20 0 0 0 5.1-3.4c3.9-3 5.2-5.5 5.2-9.2 0-2.5-.1-2.8-3.4-7-.6-.8-.6-.8-.5 0Zm-125 38.7a16 16 0 0 0-6.4 2c-1.2.8-4.2 3.5-4.2 3.6 0 .3.9 0 4-1 4.9-1.7 6-1.9 10-1.9 4.6 0 9.4 1 11 2.5 1.2 1 1.9 1.1 2.5.5.4-.5.3-.6-1-1.3-3.5-2-5-2.7-8.3-3.5-3.7-1-4.7-1-7.6-.9Zm52.7 1.8-.7.9a32.3 32.3 0 0 1-19 12 28.5 28.5 0 0 1-20.5-4.4c-.7-.6-.7-.5-.7.5 0 .8.3 1.2 1.4 2l1.8 1.4c6.7 6.1 21.8 6.8 29.7 1.4 5.6-3.9 8.7-8 9.3-12.9 0-1-.7-1.6-1.3-.9Zm-39.5 7c0 1 9 4.3 12.9 4.8 2.1.2 2.1.2 1-.9-2-1.5-1.6-1.4-4.4-1.5-3.6-.2-5.6-.7-7.4-1.8-.8-.5-2-1-2-.6Zm-32 4.4h-1c-2.8-.4-3.9 3.5-1.1 4.6l1 .5c.7.7 3 1.7 6 2.7a62 62 0 0 1 10.3 4.6c5 2.5 6.8 3.3 13.3 6l7.8 3.6c6.5 3 8.6 3.6 16.4 4.7 16.6 2.3 21 2.2 28.8-.5 6.8-2.4 12.2-5.7 10.7-6.4a81.6 81.6 0 0 1-27 3.4l-7.7-.9c-6.5-.7-9.9-1.5-17.9-4.3l-3.2-1a84.2 84.2 0 0 1-14.5-6.8c-3.4-2.1-6.9-4-10.5-5.9a23.1 23.1 0 0 0-10.1-2.5c-3-.1-3.6-.2-3.7-.7-.1-.5.1-.7 1.5-.7 1-.1 1.3-.1 1.5-.3.4-.2.2-.3-.7 0Zm-18.7 16.7c-1 .7-3.2 2.8-3.2 3.1 0 1.4 4 6.4 7 8.7 1.4 1 1.3.9 6.7 4a49 49 0 0 0 15.7 5.6c3.4.7 4.4 1 9 2.2l5.5 1.6c1.8.5 2.2.5 4 1.6a87.6 87.6 0 0 0 20.9 9.7c8.2 2.4 12 3 19.2 3.4 16.3 1 25.7-1 34.9-7.4 3.7-2.7 4.8-3.3 11.2-6.8 3.9-2 8-5 8.9-6 .9-1-.3-2.3-1.5-1.6l-1.7.5a8 8 0 0 0-2.2.8 42 42 0 0 1-7.7 3.7l-4 2-8.2 3.8c-4 1.9-7.6 3-11.4 3.7-3 .5-15.4.6-20 .1-6.6-.7-8-1-12.7-2.5l-4.6-1.5c-5.6-1.1-11-3-16-5.8a73 73 0 0 0-8.7-4.3c-7.2-2.8-14.6-5-22-6.8-6.6-1-7.9-1.5-11.4-3.9-3.4-2.3-5.1-4.3-6-6.8-.6-1.9-.6-1.9-1.7-1.1Zm-14.3 6c-.8 1-.9 1.4-.7 4 .4 7.3 1.6 11.4 4.5 15.7a43 43 0 0 0 21.3 16.3c2.2.8 2.2.8.5-.3a43.9 43.9 0 0 1-7.9-6l-3.4-3a33 33 0 0 1-12.5-23.8c-.4-3.3-.9-4-1.8-2.9Zm155.6 61c-11.6 10.6-47.5 21.7-62.7 19.3-3.4-.5-5.5 3.2-3.2 5.6 3 3.1 21 1 33.8-4.1a113.6 113.6 0 0 0 31.5-17.6c2.8-2.5 3.3-3.2 2.7-3.8-.5-.5-1-.4-2 .7Z" clip-rule="evenodd"/><path fill="#E2CB00" fill-rule="evenodd" d="M176.2 65.8c-.6 1.6 2.3 5.6 3.3 4.6l.2-.3c-.6.3-2.5-2-3-3.5-.2-.8-.4-1-.5-.8Zm4.8 1c.5 1.8-.5 4-2.3 4.9-2.5 1.2-5.5 0-6.2-2.6-.1-.5-.6-.6-.6 0 0 2.2 4.5 4.3 6.8 3.3 1.9-1 4-6.1 2.5-6.1-.3 0-.3 0-.2.5Z" clip-rule="evenodd"/><path fill="#928500" fill-rule="evenodd" d="M202.4 58.2c-.8.9-1 1-2.3 1.6l-2.3 1.3c-3 1.8-3.7 1.9-7 1.1a15 15 0 0 0-6.7-.2c-2.2.2-2.3.2-3.9 0-3.9-.5-6.5 0-9.4 1.7-.8.5-1.3.6-1.8.7-1.1.2-2.7 1-3 1.7l-4 3-4.1 3c-2 1.4-2.3 1.5-5 4.3-2.3 2.6-5 4.7-8 6.3l-3.4 1.7c-1.3.6-1.7 1-1.7 1.4a16 16 0 0 0 4.7-2l2.8-1.5c2.4-1 2.8-1.3 5.2-4.4 2.1-2.6 3.6-3.8 5.8-5l2.7-1.8c.8-.6 1.9-1.6 2.5-1.9l2-1.4c1.2-.5 1.4-.7 1.4-1.2 0-.8 1-1.4 2.8-1.6 1.5-.1 1.6-.2 2.8-1.3 1.7-1.6 3.4-2 6.8-1.3 2.2.4 3.5.4 5 .1 2.4-.4 5-.2 7.7.7l1.8.6c.3.1.5.1 1.2-.3 2-1.4 5.7-3.2 6.9-3.3.8-.2.8-.2 1.1-1 .9-1.8.5-2.3-.6-1Zm5 8.8a61 61 0 0 1-4.1 3.1 38.1 38.1 0 0 0-5.2 4.3 28 28 0 0 1-5.8 5.1c-1.3 1-3.4 2.3-5 3.1-5.4 2.6-5.8 2.7-8 2.8-1.2.1-1.7.2-2.6.5-2 .7-2.9 1-3.8 1.1l-2.1.6-3.3.7-3 .7-3.4.9-2.7.6c-.5 0-.5 0-.4.1.4.4 3 0 7-1 1.5-.5 3-.8 4.4-1 1.9-.6 3.8-1 5.7-1.4 1.1-.3 2.5-.7 4-.8a18 18 0 0 0 6.6-2.3 24 24 0 0 0 3.2-1.8l3.2-2c3.1-1.8 4-2.5 7.2-5.6 2-2 3.2-3 3.9-3.4 2.9-1.7 5.5-4.1 5.1-4.7-.3-.2-.3-.2-.9.4ZM69.1 113.2c-.8 2 .3 3.5 3.3 4.5 2.3.7 5.5 2.3 9.3 4.5 2 1.2 2.4 1.4 3.9 1.4 1.5.1 1.8.3.8.7-.7.4-.7.3.8 1.2 4 2.2 8 4 12.3 5.6 3.8 1.6 6.2 2 7.8 1.6.9-.3 1.2.2.6.8-.4.4-.4.4.4.6l2.9 1c3 1 4.8 1.5 9.5 2.1 2.2.4 3.1.1 4.2-1 .4-.4.6-.3-2.4-.9A96 96 0 0 1 90 124c-3.6-1.9-6.4-3.3-9.2-4.5a47.2 47.2 0 0 1-10.1-5.8c-1-.7-1.3-.9-1.5-.5Zm91.5 4.9c-4 5-8.5 9.8-13.3 14 1 .6 1.9.4 3.4-.8a29 29 0 0 0 5.1-5c2.7-2.8 4-3.8 8-5.7 2.4-1.2 4-2.2 3.7-2.2a39 39 0 0 0-5.7-1.3c-.3-.1-.4 0-1.2 1Zm-34.9 18-.4.9c-.4.6-.4.6 1 .7l2.1.4c2.7.5 4.2.2 5-.6 1-1.2 1-1.2-.1-1.1-1.4 0-6-.2-7.3-.5-.3 0-.3 0-.3.2ZM70.4 142l-1 .6c-.8.4-.8.4 1.5 1.4a101 101 0 0 0 13.6 4.6c.7 0 2.8-.3 3-.5-5.3-2.9-11.1-5-17.1-6.1Zm19 6.8-1.2.5c-1.3.5-1.3.5.2 1 1.7.8 3.4 1.6 5 2.6l2 1.1c1.1.7 1.5.8 2.9.9 2 0 3.6-.4 2.6-.7-3.8-1.7-7.7-3.5-11.5-5.4Zm81.4 5-3.7 1.6c-1.6.5-1.7.6-1.7 1l-.4 1-.1 1c.6 0 5.6-2.7 6.7-3.7.6-.5 1.7-2 1.5-2l-2.3 1Zm-68 1.3c-.2.3-1.7.9-2.3 1-1.5.2 3 2 10.2 3.8l4.2 1.2c1.6.5 1.8.6 2.6.5.9 0 1.2-.2.8-.4l-15.6-6.1Zm60 1.8-3.5 1.6c-2 1.1-4.2 2.1-6.5 3l-.7 1.1c-.6 1-.6 1 1.2.5 5.7-1.6 9.3-3.7 10.5-6 .5-.8.5-.9-1-.2Zm-12.3 4.9c-2.1.7-3.1.8-8.3.8-4.9.1-4.9.1-5.8 1-.8 1-.8 1 4.3 1 8 0 8.1-.2 10.3-2.7l.3-.4-.8.3Zm-29.8.2c0 .2-.4.4-.6.5-.9.2.9.7 6 1.3 4.2.6 6 .6 7.3.2.8-.2 2.4-1.2 2-1.3-1-.1-5.4-.2-8 0-3.6 0-6.6-.2-6.4-.7 0-.3 0-.2-.3 0Zm-71.3 6.4A24 24 0 0 0 55 173a43.4 43.4 0 0 0 10.3 5.8l3.8 1.5c2.4 1.1 5 2 7.5 2.5l1.6.4c4 .9 9 .1 6.5-1l-1.5-.7a43.3 43.3 0 0 0-12.5-3.8 42 42 0 0 1-13.4-4.8l-2.6-1.4L48 167l1.4 1.4Zm147 .5c-1 2.4-4 6-6.7 7.8-2.7 2-5.6 3.8-8.6 5.3-.4.4-6.3 2.7-8.7 3.7a71.3 71.3 0 0 1-17 4.3c-10.7 2-21.7 2.4-32.4 1a123 123 0 0 1-10.2-1.3l-9.1-1.3a44 44 0 0 1-9.5-2.3l-1.5-.2c-3.1-.8-6.8-.9-19-.5-2.5.1-4.3.3-8 .8-5.3.7-11.3.3-14.4-1a37.3 37.3 0 0 1-14-9.2c-1.9-2-2-2.3-3.4-4.7l-1.6-2.5c-.4.3 6.1 12.7 7.2 13.7a21 21 0 0 0 10.8 5.2l3.2.8c6.3 1.7 10.8 2 23.8 1 6.2-.4 12.4-.3 18.6.3 1.2 0 7.3 1.2 16.6 3 24.7 4.8 44 4 60.8-2.7 11.4-4.5 20.7-12.8 23.2-20.7.4-1.5.4-1.8 0-.5Z" clip-rule="evenodd"/><path fill="#E2CB00" fill-rule="evenodd" d="M122.5 24.5a103.8 103.8 0 0 0-98.4 111.3c.5 6 .5 5.9.9 4.1 1.5-5.3 6.1-8.7 10.2-7 .6.2.6.2 1.2-.6A14 14 0 0 1 41 128l.9-.6.3-1.1A27.8 27.8 0 0 1 55 110c2.3-1.3 8.7-3.6 9.8-3.6l.4-.6a25 25 0 0 1 4-4 27.8 27.8 0 0 1 17.7-5.6c7.2 0 11.7 1.7 23.2 8.7 3.6 2.3 9 3.2 11.2 2a12 12 0 0 0 3.8-2.9c4.3-4.3 5.5-7.2 6.7-15.1A36.6 36.6 0 0 1 146 62.7c4.3-4.5 9-6.8 16.2-8 6.6-1.3 7.8-1.6 13.2-4l5-1.9c2.8-.8 6.5-1.4 8.3-1.1 2.4.4 2.7.3 3-.3.1-.1.3-.3.4-.2l-.1-.1-.9-.7-.7-.7c0-.3-.2-.6-.5-.6l-.7-.2-2.4-1.7a104.9 104.9 0 0 0-64.3-18.7Zm8.4 5.3a113 113 0 0 1 32.6 7c6.4 2.3 9.7 3.8 13.7 6.5 3.9 2.6 3.8 2.5 1.5 3.3-1.8.6-3.5 1.2-5.1 2L170 50l-1.3.2c-3 .1-10.3 2.5-17.3 5.7a39 39 0 0 0-21.2 27.7c-3.7 14.2-6 18-12.3 20.5-2.2 1-2 1-4.2-.4C97.5 93.5 84.5 91 73.3 95.8c-4.4 2-6.7 4-9 7.5-.7 1.1-.7 1.1-1.5 1.2-10 1-18.8 9-22.6 20.9-.3.6-.3.7-1 1a9.1 9.1 0 0 0-3.7 3.2c-.3.4-.4.5-.6.5-1-.4-3.4 0-5.2.6l-1.1.5c-.3 0 0-13 .3-17.2.8-8.5 3.9-19.1 7.7-26.1a136.3 136.3 0 0 1 29.8-39.5 103.6 103.6 0 0 1 64.5-18.6Zm84.3 44.4c-.2 0-.4.4-.7 1a25.5 25.5 0 0 1-9.5 10.3c-1.3.9-3.4 2-7.1 4a64.7 64.7 0 0 0-23.7 19.5c-2.3 2.7-2.3 2.8-1.6 2.8.5 0 3.3 1 4.8 1.6 5.6 2.7 8.7 6.6 12 14.7 1.6 3.8 2 4.5 6.5 11.2 4.5 6.4 6 11 6 17.5 0 4.7-.8 8.5-2.1 11.5-.8 1.8-.1.7.9-1.3 1.4-2.8 1.9-4.4 2.4-7.6 1.4-9 0-14.2-6.5-23.7a30 30 0 0 1-4-7.4 31.2 31.2 0 0 0-16-18c-1.2 0 3.9-5.7 8.3-9.4 5.4-4.5 7.4-5.8 14.2-8.6 7.8-3.4 12.4-6.6 15.4-11.1.5-.7.5-.7 2 2.3 2.6 4 4.7 8.3 6.1 12.8a104 104 0 0 1 3.6 50.7l-1.3 4.6a78.7 78.7 0 0 1-2.4 8.3 150 150 0 0 1-19.2 35 87.2 87.2 0 0 1-13.7 12.6l-3.2 2a125 125 0 0 1-22 11.6 91.3 91.3 0 0 1-34 8c-3.4.1-2.8.2-4.9-.2l-6.5-.9c-10-1.1-19.8-3.2-26.3-5.9a126.8 126.8 0 0 1-45-31.5 28.8 28.8 0 0 1-4-5l-3.6-2.4c-1-.8-.8-.6.8 1.7A103.5 103.5 0 1 0 217.3 76.6c-1.7-2.8-1.6-2.7-2-2.4Z" clip-rule="evenodd"/><path fill="#D2BD00" d="M181.8 56.4a38 38 0 0 1 6-2.9c2-.6 5.1-.2 11 1.2 2 .5 4.5 2 4.3 2.5-.2.7-1.6 2-2.7 2.4L198 61c-3.4 2-3.7 2-8.1 1-2-.4-2.8-.4-5.2-.1-2.5.3-3.3.3-5 0a13 13 0 0 0-9.2 2c-.7.5-1.1.5-1.5.5-1 0-2.6 1-3.1 1.8-.2.3-.5.6-.9.8l-2.1 1.5-5.3 3.8a30 30 0 0 0-5.8 5.1c-3.4 3.4-4 4-9.8 6.8-1.1.6-1.5.7-1.6.6l.1-.5.6-1.3a28 28 0 0 1 4.1-7.6c.3-.1 1-1 1.6-2 6.3-8.4 8.3-9.6 17.7-11.3 6.5-1 6.6-1 9.6-2 2.1-.7 4.4-1.7 7.7-3.6Z"/><path fill="#D2BD00" d="M175.1 71.3c-3.2-1.7-2.7-6.3.7-7.1 3-.8 5.7 2.4 4.3 5.3-.3.6-.5.7-.8.5a7 7 0 0 1-2.6-3.4c-.1-.5-.3-.9-.4-.8l-.2-.4c0-.5-.2-.5-.6.3-.3 1-.4 3.7 0 4.8.1 1 .1 1-.4.8Zm33-2.8.5-1c.1-.2.3.4.3 2 0 2.8-1.2 5.7-3.2 7.7s-3.1 2.7-7.8 4.9a61 61 0 0 0-9.7 6l-2.8 1.8c-2.3 1.3-4 2.5-6.8 5a18.4 18.4 0 0 1-7.3 4.3c-2.2.6-7 .9-9.4.5-1.7-.4-4-.5-5.2-.2-4.8 1-6.3 1-8.6 0l-2.4-.6c-1.8-.5-4.6-3.6-6.2-6.8-1-2.4-1-3 .1-1.5 1.8 2.2 3.6 3.9 4.4 4.1 2.6.8 7.4.8 11.8 0 2.6-.6 5.3-.6 7.8-.2 6.2 1.2 11-.3 15.9-4.8a61 61 0 0 1 9-7.1c.9-.5 1-.5 1.2-.5v-.2h.2c.2 0 11.5-5.7 12.5-6.4 2.3-1.5 4.1-3.6 5.7-7Z"/><path fill="#D2BD00" d="M141 100.1c-1-1.6-1.1-2.2-.1-3.3.2-.4.3-.3 2.4 1.5 1 .9 2.7 1.6 5.9 2.6 1 .2 3.9 0 6.1-.4 2.2-.4 4.7-.3 6.5.1 2.1.5 7.6.3 10.3-.6.4 0-.5 1.1-2 2.7l-1.4 1.5c-.7.8-5.4.2-7.8-1.1-1.4-.7-1.5-.4-.2.5a13 13 0 0 0 5.9 2.4c1.3.3-.3 3-1.7 2.9a26 26 0 0 1-5.8-1.9c-1.7-.8-2-.8-2-.6v.3c.3 0 1 .5 1.7 1 1.8 1.5 3.8 2.4 6 2.7.3.3-2.6 3.5-3 3.5l-1.6.2c-2.4.2-3.7-.4-2.8-1.5 1-1.2 1.4-1.5 1.3-1.8l-.2-.5c-.9-1.3-2-2-5.2-3-5.7-2-10.9-5-12.2-7.2Zm-70.7 11.3 1.1-1.3c6.1 1.4 11.9 4 16.8 8 3.8 2.4 6 3.7 9.2 5.3l6.7 3.4c7.3 4 8.3 4.3 12.7 4.6 12.7 1 22.8-2.6 34.7-12.8l.6-.4.3.2c.4.7 2 2 2.8 2.4l.5.5c.2.2-.4.9-2.4 3.1-.7.7-1 1.1-1.4 1-.3 0-.7-.5-1.4-1.8-.5-.8-1-1.5-1.7-2.2l-.5.1.4.8c.1.2.5 1 .6 1.7.5 1.1.9 1.9 1.4 2.5.2.1.3.2 0 .3l-2.3 2.2c-2.1 2.2-2.7 2.8-3 2.7v-.7c0-2.4-.7-3.5-.8-1.4a11 11 0 0 1-.6 3.2c-.6 1-4.3 2.8-6.4 3-1.7.3-2.2.4-2.3.3v-.4c-.1-.7-.6-.7-.8 0-.4 1-3.7.8-11.2-.3a102 102 0 0 1-32.8-11.2l-10-4.9a44.7 44.7 0 0 1-10.7-6.2c-.4-.3-.4-.3.5-1.7Zm82.7 6.3c0-.3.3-.7 1.4-1.7 1-1.2 1.4-1.6 1.7-1.6l1 .4c1.2.7 2 .8 3.2.7h.6l-.6.8-3.3 3.8c-.6 0-2.6-1.1-3.7-2l-.3-.4ZM50.3 132c-.7-3.6-.1-7.4 1.8-10.6l.1 1.2c.5 6.2 1.3 9.3 3.4 12 1.2 1.6 5.4 3 13.8 4.7l2.7.6c0 .1-3 1.7-4 2-1.5.4-3.2.5-4.8.3l-2.7-.5c-2.3-.2-6.6-1.6-6.2-2l.9-.3a7 7 0 0 0 3.6-1.8c.8-.7.5-1-.6-.4-4.6 2.2-7 .8-8-5.2Zm121.4 8.8c6.3-7.7 7.3-9.1 8.9-13.4.2-.9 2.2 3.5 2.8 6.5.7 2.9.5 3.7-1 7.5-.6 1.9-.9 2.1-.9 1.1 0-1.7-.7-3.6-1.1-3.6v2.2c0 4.6-3 10.4-5.3 10.5v-2c0-1.9-.2-2.6-.5-2.7-.3 0-.3.4-.3 1-.1.6-.6 3.6-.9 4.2-.2.5-4 2.4-6.4 3.2-1 .3-1.3.5-1.4.3v-.6c.2-1.4.2-1.5 0-1.5-.1 0-.5.5-1 1.9-.3.8-.3.8-1.6 1.4l-3.6 1.6c-3 1.4-6.3 2.8-6.3 2.5l.2-.6c.4-.6.9-2.2.9-2.5 0-.5-.2-.4-.7.5-.3.7-1.7 2.6-2.3 3.2l-3 .8c-1.2.3-10.7.5-10.7.3l.5-.8c1.2-1.8 1.4-2.6.4-1.7a10 10 0 0 1-2.3 2c-1.1.5-2.5.5-6.8.4-6 0-7.8 0-8-.5 0-.2.4-.6.9-1.2 2.6-2.7 2.9-4 .4-1.8-2.7 2.2-3.4 2.5-4.6 2.1-4.7-1.8-9.3-3.7-13.9-5.7l-1-.4.4-.4c2.6-1.7 1.5-2-1.5-.4h-.2c-.3.2-.7 0-4.4-1.7l-6.3-2.7-1.2-.6c-.5-.3-.5-.3.6-.9l1.8-1c1-.7 4.8.8 12.1 5a39 39 0 0 0 13.2 4.1 69.5 69.5 0 0 0 35.3-.2c7.1-2.8 11.2-6.2 18.8-15.4Zm-100 .3 1.3-.9h.5l2 .3c5 1 8.3 2 16 5.5l.7.4c0 .2-.5.4-1.7.9-1.7.6-2.3.8-2.8.7l-1-.5c-5-2.5-10.3-4.3-15.8-5.5-.2 0-.2-.2.9-.9Zm-30.1 17.6a25.6 25.6 0 0 1-3.1-15.3c.2-1.3 1.2-2 1.2-.6 0 .3 1.5 5 2.1 6.2 1.5 3.2 2.7 5.1 5.9 8.4 5.9 6.4 9 8.3 16 10.2l2.3.8v.6a8 8 0 0 0 1 3.1l.4 1c-.6-.3-5.1-1.5-7-2-3.6-.9-4-1.1-7.2-2.8a31.2 31.2 0 0 1-8.6-6s-.1-.6-.5-1c-.6-1.3-.8-2-.8-4v-1.7c-.1-1.1-1 1-1.2 2.8-.1 1-.1 1-.5.3Zm149.6 2.2a38 38 0 0 0 1.6-13.2c-.1-3.4 0-3.4 1.4-.3 2.4 4.4 3.1 9.6 2.2 14.6-.6 5.5-1.6 7.8-5.4 11.7-5.6 5.8-7.4 6.2-11.8 2.5-1.8-1.5-1.5-.2.3 1.6.6.6 1.2 1.1 2 1.5.9.5-.8 1.9-3 2.4h-.2a58.4 58.4 0 0 1-11.5 4.2c-1.3-.3-4-2-5.3-3.5l-1-1c-1.2 0 1.7 3.9 3.7 4.9.5.2.5.2 0 .3-1.5.5-10 2-13.3 2.6-5.7.8-7.6 1-8.3.5a16 16 0 0 1-3-3.2c-1.4-2-1.9-2-1.1 0 .5 1.2.8 2 1.7 3l.7.8c-.2.2-8.4 0-11 0-11.6-1.1-12.7-1.2-13.2-2.1-2.2-3-2.8-6.2-1-5.7a80.4 80.4 0 0 0 37-1l4-.8c13-2.6 25-9.2 34.1-18.8l.4-1Zm-161.5-5.4v-1.3c0 .7 2.8 6.1 4.4 8.5 2.8 4.3 7.2 8 14.8 12.7 8 4.8 10.7 6 20 7.9 3 .6 3 .6 2.2.7l-8.1 1h-.4l.3-.4c.8-1 .2-1.3-1-.6-2 1.2-3.8 1.3-7.6.5-2.8-.6-2.8-.6-2-1.5 1-1 .7-1.2-1.3-.6-1.6.6-3.6-.1-7-2.5l-2.3-1.7a33.1 33.1 0 0 1-5.8-6h.7c1.2-.2 1.3-1 0-1-.8 0-1.6-.4-2.2-1.6a31 31 0 0 1-2.4-5c-.9-2.5-2-6.8-2.3-9.1ZM69 172.7c-.8-1.3-1.4-2.8-1.8-4.3l.9.2c1.4.4 4.8.9 7.3 1.1a70 70 0 0 1 25.6 7c4.1 2 8.3 3.7 12.6 5.2-.4.7.1 4 1 5.8.4.9.4.9 0 .8l-6.8-1-5.8-1.1-1-.5-4.1-2a52.3 52.3 0 0 0-6.4-2.7c-1.2-.3-3-4.8-3.1-8-.1-1.6-.7-.4-.7 1.4 0 1.7 0 3 .8 4.7a30.6 30.6 0 0 0-9-3.3l-7.3-2c-1.7-.5-1.7-.5-2.2-1.3Z"/><path fill="#D2BD00" fill-rule="evenodd" d="M115.7 20.6c7.7-.8 15.5-.7 23.2 0l2.8.4a108.7 108.7 0 0 1 90 135.6l-2.2 6.9c-.9.3-1.1.9-.7 1.2.2.2.2.2-.3 1.6-1.3 3.4-2.5 6-2.7 6.2-1 3.3-2.6 6.3-4.6 9a41.4 41.4 0 0 1-4.6 7.5c0 .4-.5 1.1-2.2 3.4-2.3 3-2.8 3.6-3.2 3.6-.4 0-.8.4-.6.8v.1a32 32 0 0 1-6.2 6.8 85.2 85.2 0 0 1-19.8 16 31.8 31.8 0 0 1-8 4.6 41 41 0 0 1-8.8 4c-.3 0-.8.2-.8.5 0 0-.5.3-2.6 1-1.7.8-3.5 1.3-5.3 1.7-.7.9-16 4.2-16.7 3.7-.4-.4-.7-.4-1 0-3.5 1-7 1.3-10.6 1.2-.6.2-8.2.1-8.4-.2-3.7.2-7.3 0-10.9-.9-3.2-.3-6.4-1-9.5-2-4-.6-8-1.7-11.7-3.2-2.7-.9-5.4-2-7.9-3.5-1.5-.4-3-1-4.4-2a109.2 109.2 0 0 1-54.8-65.5A109 109 0 0 1 44.8 58a109 109 0 0 1 71-37.3Zm71 22.6A104 104 0 0 0 35 80.7a103.4 103.4 0 0 0 38.5 135.8A103.5 103.5 0 0 0 231 132.9a104 104 0 0 0-22.8-70.4c-.3-2-.7-2.8-2.3-4.3a16.9 16.9 0 0 0-5.4-4.1l-1.7-1.2a118 118 0 0 0-8.8-7.8l-.7-.2-2.4-1.7Z" clip-rule="evenodd"/><path fill="#D2BD00" d="M14.3 176.2c.9-.2 3-.8 3.9-1.3 1.2-.5 1.3-.5 1.2-.2-.3.5-2.7 1.4-4.2 1.7-1 .2-1.7 0-.9-.2Z"/><path fill="#D2BD00" fill-rule="evenodd" d="M255.1 128A127.3 127.3 0 1 1 .5 128a127.3 127.3 0 0 1 254.6 0Zm-128 124.5c.3 0 .4-.2.5-.3l1-2.2a48 48 0 0 0 2.4-4.3c.4-.5.4.5.2 3.3l-.6 3.5c3.1 0 6.1-.3 9.2-.5v-.4l1.2-2.7 1.3-3.2.2-.5.3-.3c.2 0 0 4.2-.4 6.8l8-1.2c.3-.2.4-.5.4-.8l.5-2.4.7-2.3c.2-1 .4-.3.8 3.6l.1 1.4c2.7-.6 5.4-1.2 8-2l.1-.7c0-1 .6-4.1 1.2-5.7.2-.4.2-.4.4.7.3 1.6.5 3.6.6 5.2l7.5-2.5 1-6.4c0-.8 1 3 1.3 5.5 2.6-1 5.2-2 7.7-3.3l.3-.4c.2-.5.2-1.2.2-2.6l-.1-4.8v-.4l.2.4 2.3 6.4 7.9-4.4-.1-1c-.6-2.1-1.4-6.8-1.2-7 .3-.3 2.6 4 3.6 6.6a41 41 0 0 0 5-3.5 35 35 0 0 1-1.5-7.6l.3.5c1 1.4 1.9 3 2.6 4.6l.7 1.3 4.8-3.9c0-.5-1-5.4-1.4-6.4-.4-1.3-.4-1.4-.2-1.8h.2c.2-.1.4.4 2 2.8a40 40 0 0 1 2 3.4c2-1.8 4-3.5 5.9-5.4-.8-2.7-1.8-5.4-2.8-8.1l.7.8a21 21 0 0 1 4.1 5.3 93 93 0 0 0 5.2-5.6c.6-.8.6-1.1.3-1.6l-1.1-2.3a15 15 0 0 0-1.5-2.5c-.6-1-.8-1.5-.6-1.8.2-.2 3.5 3 5.4 5.3l4.5-5.9c.7-1 .7-1.6.4-2.2l-3.2-4.4c-.2-.3-.3-.5-.2-.7 0-.5.2-.4 2 .7 1.5 1 2.7 2 3.7 2.9l.4-.7-.4-.5.5.3.2-.2 2-3.2c.6-1.1.9-2 .7-2.2l-.8-.9a27 27 0 0 0-2.6-3.2c-.9-1-1-1.3-.8-1.7.3-.5 3.9 1.6 6.2 3.5l2.3-4.4c.5-1 .8-1.5.8-2 0-.8-.8-1.5-2.9-3.6-1.6-1.7-1.8-1.9-1.5-2.3.1-.5 3.7 1 6.1 2.5.9-1.8 1.7-3.8 2.4-5.7.3-.7.3-.7.1-.8-.8-.4-3.5-3.1-3.3-3.4-.2.1-1.7-1.3-1.7-1.6l.1-.4c.1-.3.5-.2 2 .4l4 2.3c1-2.3 1.6-4.7 2.3-7.1.1-.5-1-1.4-3.3-3.1-1.5-1-1.7-1.3-1.7-1.8v-.3a42.9 42.9 0 0 1 5.9 2l.9-4c.5-2.3.8-3.2.5-3.7l-1.4-1.3-2.3-1.6c-1.1-.7-1.6-1.3-1.2-1.7.3-.2 3.5.6 5.8 1.5.3-2.4.6-4.7.7-7-.6-.6-2.7-2-3.5-2.4-1.2-.7-1.8-1.2-1.8-1.6 0-.2 0-.2 1.6 0l4.2.6v-3.9c.1-2.8.1-2.8-.3-3a16 16 0 0 0-3.6-1.7c-1.3-.4-1.5-.7-1.3-1.3.2-.3 3.3-.1 5.6.2v-1l-.2-.1s-.2-.5-.2-1.7c0-2.7-.1-4.9-.4-5a14 14 0 0 0-3.4-1.2c-2.5-.5-2.6-1.5-.2-1.6h4l-.1-1c-.4-.2-.4-.2-.4-.6l-.8-5.4c-.2-.1-3.5-1-4.6-1-1.7-.3-2.2-1-.9-1.3l5.5-.7-.2-.9h-.3l-1.5-6.6c0-.4-2-1-4.2-1.2-1.6-.3-1.8-.4-1.8-.8s1.8-.8 4.1-1h1.7a113.4 113.4 0 0 0-1.2-2.9c-1.6-5-1.6-5.2-2.5-5.2h-4c-1.6.6-1.1-1 .6-1.7l3.7-1.2a151.1 151.1 0 0 0-2-3.7c-1-2.8-1-2.8-1.5-2.7-6.5.6-6.5-.6-.3-2.9l-.6-.8c-.3-.1-.6-.6-1.8-3-1.2-2.6-1.5-3.2-2-3.3-.1-.1-.4 0-.8 0l-4 1.3c-.8.3-1.4-.1-.9-.7l.2-.4h.2l.1-.2.8-.5 4-1.8-.8-1c-.2.1-.3 0-.9-1a21.6 21.6 0 0 0-3-4.7l-3 1c-2.7 1-3 1-3.1.4 0-.4 2.9-2.5 5-3.9l-.6-.9h-.5l-3.7-5-.8.1-1.8.7-2.1.7c-1.6.5-2.5.3-2.4-.4 1.4-1.5 3-2.8 5-3.8l.2-.4-.7-.8c-.5 0-1.1-.7-3.2-3.1-.4-.5-.4-.5-.6-.3a171 171 0 0 0-5.3 2c-1 .5-1.4.5-1.4 0a20.3 20.3 0 0 1 5-4.2l.1-.3a126.8 126.8 0 0 0-2.8-2.4c-2-2-2-2-2.9-1.7-3 1.6-6.7 2.4-6.2 1.6a25 25 0 0 1 4.7-4.5l-1.1-.7-4.7-3.6c0-.2-.3 0-.7.4a17.1 17.1 0 0 1-4.7 3.2c-.4 0-.6-.4-.3-.9a18.5 18.5 0 0 1 3.1-4c.4 0 .8-.2.6-.3v-.5l-.9-.6-.2.1-.4-.1-4.7-3.4-.4-.2c-.3-.1-.7.4-3.1 2.6-1.6 1.6-2 1.7-2.4 1.3-.5-.3 1.5-3.6 3.3-5.7a128.6 128.6 0 0 0-7.8-3.7l-1.7 1.3a11.1 11.1 0 0 0-2.4 2.3c-.5.5-.6.5-.8.4-.2-.1-.3-1 0-1.2v-.3l.2-.4.2-.4.3-.3V21c0-.2 1.8-1.8 2.4-2.1.4-.4.4-.4.1-.6-.1 0-.2-.1 0-.4l-1-.4c-.3.2-.4.2-1.1-.2-2.3-1.2-3.7-1.8-4-1.6l-4 2.5c-2 1.4-2.8 1.7-2.8 1 0-1 2-3.8 3.2-4.6.6-.3.2-1-.3-.7l.2-.4-.7-.3h-.1c-.4.2-1 0-2.6-.7l-2.6-.9c-.6 0-2.8 2.4-4 4.4-.6 1.2-1.6 1.6-1.6.7.3-1.9.9-3.7 1.6-5.5l.5-.3c.2-.2.2-.3.1-.4v-.3l-1.3-.5-.1.3-.8-.2c-3.2-1-4-1.1-4.3-.7l-1 1.2c-1 1-1.5 1.9-2.2 3.1-.7 1.3-1.5 1.5-1.5.3a18.5 18.5 0 0 1 1.8-5.8v-.3l-1.4-.3-.3.4c0-.2-5.3-1.3-5.7-1.2-.2.2-2.3 2.5-3.1 3.7-1 1.2-1 1.3-1.5 1.3-.2.1-.2 0 0-1.4.4-2.2.5-2.8 1-3.5.3-.5.4-.6.2-.6v-.4l-1.5-.1-.2.2h-.4l-5.1-.5c-.8 0-.8 0-1.3.7l-1.9 3.3c-.4 1-1 1.3-1.4.7-.3-.6.1-2.9.8-4.4.3-.6.3-.6 0-.6-.2 0-.3 0-.2-.2h-1.5c-.3.2-1 .2-3.4.2-2.3 0-3 0-3.5.3l-.7.8a13.5 13.5 0 0 0-2.2 3.6c-1 2-1 1.8-1-.8.1-1.7.2-2.8.5-4.1h-1.5c0 .3-.2.3-1.3.4-3.9.3-4.4.4-4.7.8l-1.7 3.7c-.6 1.5-1.2 2.3-1.2 1.6l-.2-1.1-.4-4.4-1.3.2-.1.3h-.3l-4.7.8c-.6.2-1.2 1.6-2 4.9-.3 1-.5 1.5-1 1.5-.4 0-1.1-4.4-.9-5v-.5l-.1-.3-1.4.3-.2.4L94 9.6c-.8.1-.9.2-1 .6-.2.6-.5 3.4-.5 4 0 .7-.2 1.6-.3 1.7-.3.1-1.5-3.4-2-5.5l-1.3.4c0 .3-.3.4-1.7.9-2.4.8-3.6 1.1-4.2 1.9-.7.8-.7 2.2-1.2 5.3-.1 1.2-.3 1.2-.9 0-.7-1.3-1.2-2.7-1.5-4.1v-.4L78 15c0 .3 0 .3-.5.5-4.9 2-5 2.2-5 5.7 0 2 0 3.2-.2 3.1-.6-.7-2-3.1-2.8-5.2l-1.2.7v.3c-3 1-3.6 2-3.5 5.6 0 2.4 0 3.3-.2 3.4a20.7 20.7 0 0 1-3.5-5l-1.1.6c.1.3 0 .3-.4.6-1.7 1-4.1 2.9-4.1 3l.2 1.7.3 3.3V35l-.7-.8c-.8-1-2-2.7-2.8-4.2l-1.2 1c-1.3 1-2.6 2.2-3.9 3.4-.3.3-.2 2 .4 4.4l.3 2-.8-.5c-1-.9-2.3-2.2-3.2-3.3l-1 1 .1.4c-.7-.4-3.5 3.2-3.3 4.2l.4 2 .4 2 .2 1.5c-.1.1-.6-.2-1.4-1l-3-2.6-.8 1c.1.2-.1.6-1 1.6-1.5 1.7-1.5 1.9.2 5.8.7 1.7.7 1.8 0 1.3-.9-.6-2.4-2.2-3.7-3.4l-.8 1.4-1.7 2.1c-1.3 1.8-1.3 1.8-1 2.2l.7 1.3 1.3 2c1.3 2.1 1.3 2.1-1.1.4l-2.8-2.1-.8 1.1c.2.2 0 .3-.1.5-2.1 3.3-2.6 4-2.4 4.4l.2.2 2.5 5c0 .1-2.9-1.3-5-2.5a126.6 126.6 0 0 0-3.3 7.3v.1a22 22 0 0 1 2.8 3.9c-.2.1-2.5-.9-4.4-1.8l-.6 1.3.2.2-.2.4-2.2 5.3-.1.7c0 .4.4.9 1.8 2 1.8 1.8 2.2 2.1 1.7 2l-1.2-.4a29 29 0 0 1-3.5-1.4l-.5 1.3c.3.2.2.4-.4 2L9 94.4l1 .5c1.6.8 4 2.6 3.4 2.6l-5.2-1-.3 1a30 30 0 0 0 5.4 1.3c.5.1-.7.6-1.4.6-1 0-2.6-.5-3.4-1.2l-.3-.2c-.2 0-.3.4-.5 1.7-.7 2.7-1 3.8-.7 4.6.3.6 1 1 2 1.8.4.2.5.4.4.4l-1-.2L6 106l-.3 1.3c.2.1.2.3.2.6l-.8 5.3c0 .5 1.4 1.4 3.2 2.4l.7.5h-.7l-3.8-.2v4.8c-.3 3.8-.3 3.9 4 5.3.8.4.4.4-3.8.5H4v1.2l.4.1c-.3.2-.1 7.4.2 7.4l4.8 1.5-5.1.4v1.3c.4.1.4.2.4.5l.6 5.7c0 .6 0 .6.8.8l3.3 1-4 1 .2 1.2.3-.1v.3c.2 2.7.8 4.5 1.5 4.5l1.3.1 1.3.2c.7 0-1.5.7-3.3 1l.5 1 .6 2.3c.8 3.6 1 4.3 1.4 4.5h.5c3.2.4 4.3 1.1 2.6 1.8l-2.8.8.3 1.2h.4c-.1.2 1.8 6.2 2 6.4.3.3 2.6 1 3.8 1.1 1.2.2 1.2.2.1.6l-3 1a123.5 123.5 0 0 0 .9 2c1 2.4 1.4 3.5 2.1 4 .8.4 2 .3 4 0h1.7c.1.1-2.8 1.5-4.9 2.3l.4.9a32.2 32.2 0 0 0 5.1-1.9c-.6.5-2.9 1.5-3.6 1.7l-1 .3c-.4 0-.4 0 1 2.7.5 1 1.1 1.8 1.7 2.7h.2l4.7-1a30 30 0 0 1-4.2 2.5 124 124 0 0 0 4.4 7l.4-.3c.9-.5 4.5-1.8 5-1.8s-2.2 2.2-4.3 3.6l.7 1a25 25 0 0 0 3.6-2.5c1.2-1 1.3-1 .7-.2-.6 1-3 2.8-3.8 3 0 0-.2.2 0 .3l4.3 5.7.7-.3 2.3-.7 1.7-.5c1.2-.6-1.2 1.7-3.3 3.2l.7.7c1.5-1 3.5-2.4 4-3.1.5-.6.3-.2-.2.5a12 12 0 0 1-3 2.7c-.1.1-.3.2-.3.4l5 5.6.4-.2c.6-.5 1.2-.7 2.8-1.3 2.3-.8 2.5-.7 1 .6l-2.7 2.3.8.7c1.4-.8 2.7-1.9 3.9-3 .3.3-1.7 2.6-3 3.3l-.3.3a56 56 0 0 0 4.5 4h.2c.7-.5 5-2.6 5.3-2.6.5 0-1.5 2-3.9 4l1 .9 4.1-3.7c.7 0-2 3-3.3 3.8l-.3.3 5.3 4 .3-.3 1.3-.8 2.1-1.5 1.1-.7-.3.6a33.8 33.8 0 0 1-3 3.7l7 4.6.5-.3c1.2-1.2 2.5-2.2 3.8-3.2l-2.4 4.6.8.6a26 26 0 0 0 2.5-3.6c.2 0-1.1 2.4-1.9 3.2l-.3.4 6 3.3.4-.3c.5-.4 5-3.9 5.4-4a74 74 0 0 1-3.1 5.5 91 91 0 0 0 7.8 3.4l.3-.3 2.7-2.9 2.4-2.4c-.8 2.2-1.7 4.4-2.9 6.5 3 1 6 2 9 2.7 0-.2.8-1 1.6-1.8l2.5-3-2 5.5 9.5 2 .2-.5 1.3-2 1.5-2.3c.7-1.2.7-1 .2 1.6a20 20 0 0 1-1 3.6l8.3 1a66.1 66.1 0 0 0 3.6-6.7c.2 0-.7 4.5-1.3 6.8l7.6.3Z" clip-rule="evenodd"/><path fill="#000" fill-rule="evenodd" d="M119.9 0a124 124 0 0 0-30.2 5.7L89 6l-.9.2A155.8 155.8 0 0 0 58.8 20l-2.7 2c-3.1 2-6.2 4.1-9 6.6l-6.7 5.9-3.7 3.6c-1 1.2-2 2.2-3.3 3.1 0 .3-.2.6-.5 1-3.2 3.5-6.1 7.1-8.8 10.9L23 54.5l-.8 1-.2.2-1.3 2-2.4 3.8A107 107 0 0 0 9.6 79a137.6 137.6 0 0 0-9.2 36c-.3 3-.5 13.9-.3 18.6a121.7 121.7 0 0 0 17.4 59.2l1.3 2.3A130.6 130.6 0 0 0 76 245.2l1.2.5c10.3 4.3 21 7.3 32 9a140.5 140.5 0 0 0 55.6-4 132.4 132.4 0 0 0 48-26.7l1.3-1.2c4.9-4.6 9.5-9.6 13.7-14.8 4.7-6 9-12.4 12.7-19 2.5-4.8 4.8-9.7 6.8-14.7l.5-1.5a132.3 132.3 0 0 0 2.6-82.6 136.4 136.4 0 0 0-27.7-48.5c-4.4-5-9.3-9.5-14.6-13.6l-2.5-2-.7-.6-.9-.6-1.8-1.3a127 127 0 0 0-49.3-21.3c-11-2.2-22-3-33.1-2.2Zm13.6 1.5-.5 1.1a32 32 0 0 0-.9 16s-.5.2-4.8.2c-5 0-5 0-4.8-.4L122 17c-.7-2.4-.8-3.6-.8-7s0-4 .6-6.3c.5-2.3.3-2 1.6-2.1h10Zm-12 .3c-1.9 4.3-1.9 14-.2 16.7.3.4 0 .4-1.2.4-.8 0-4 .3-5.7.6-1.5.1-1.5.1-1.5-.3l-.3-1a52.6 52.6 0 0 1-1.8-15.6c3.5-.6 7-1 10.6-.8Zm16.8 0 6.9.8-.7 1a27 27 0 0 0-2.3 15.4c.1.8.4.8-2.3.5-3.5-.5-4.9-.6-5.8-.6-1 0-1 0-1-.6v-1.2c-1-4.5-.3-11.8 1.1-14.7.5-.9.5-.9 4.1-.5Zm-28.6 1.4c-.2 2-.1 4.4.4 8.3.3 3 1.4 7.5 1.8 8 .1.2.1.2-2 .6l-3.7.6c-2.4.5-2.4.5-2.4.1l-.2-.5A34.4 34.4 0 0 1 100 6c0-1.5-.4-1.4 5.3-2.5 4.5-.8 4.5-.8 4.3-.2Zm39.8 0a46 46 0 0 1 6.4 1.4l-.3.7c-2.3 2.8-3.4 7-3.4 12.5 0 3.8 0 3.8-.2 3.8-.6-.3-5.3-1.1-7-1.4-1.5-.2-1.6-.3-1.6-.5l-.1-1.7c-.6-5.4.4-11.4 2.4-14.8.4-.6.5-.6 3.8 0ZM99.2 5.6c-.2 5.5 1 11 3.5 15.8a76.2 76.2 0 0 1-7 1.6l-.5-.8c-1.3-2-3.6-6.8-4.3-8.8-.9-2.5-1.5-5.7-1.2-6 .2-.2 8.7-2.6 9.4-2.7v1Zm60.1-.2 6 1.6c.4 0 .3.3-.2.9-2.4 3-4 8-4.2 13.8 0 2.4 0 2.4-1.7 1.9l-6-2c.1 0 .2-1.6.2-3.6-.3-4.7 1-9.3 3.8-13.1l2.1.5Zm10.2 3c6.4 2.3 6.6 2.4 5.6 3.5-3.8 3.9-6.6 10.4-6.1 14 0 1.2.1 1.2-.9.8l-4.3-1.6c-1.8-.7-1.8-.7-1.8-2 0-5.9 1.5-11.2 3.9-14.7.8-1 .4-1 3.6 0ZM88.8 9a37 37 0 0 0 5.3 13.8c.6.9.7 1 .4 1-1 0-10.2 3.5-14.6 5.7-2 1-2 1-3.2 0-3-2.5-6.2-7.2-7.4-10.8-.9-2.5-1-2.3 1.5-3.6l7.1-3.2v.7c0 4.2 5.1 15.3 6.7 14.5.3-.2.3-.8 0-1-.5-.6-3-5-4-7.5-1.2-2.8-2.3-7-1.8-7.2L85 9l2.7-1 1-.3c.1 0 .2.4.2 1.2Zm88.4 2.4c9.3 4.2 8.8 4 7.8 4.7-3.8 2.6-8.4 11.2-7.8 14.4 0 .4 0 .4-2.2-.6l-3.6-1.7c-2-.9-1.8-.8-1.8-3.2 0-3.4 3-9.8 6-13 .8-.9.8-.9 1.6-.6Zm11.9 5.9 6.2 3.7-.5.4c-3.6 2.3-8.8 11.8-8 14.6 0 .5-.2.4-1.4-.4a70.2 70.2 0 0 0-5.4-3.2c-2-1.2-2-1-1.5-3.5a22 22 0 0 1 7.2-12.5c.8-.6.5-.7 3.4.9Zm-121 .7c1 4.2 5 10.6 8 12.6.7.4.7.4 0 .7l-6.4 3.4-2.8-3a23.3 23.3 0 0 1-5.8-7.4c-1-2-1.3-2.9-1.1-3l7.8-4.6.4 1.3Zm64 2c18 1 35.6 6.3 51.1 15.6a111 111 0 0 1 49 66.5v.3l.3.5.5 2.4c.7 2.4 1 4.9 1.2 7.4.2 0 .2.3.6 2.8.3 2.9.4 4.2.2 4.3.7 6.1.7 12.3 0 18.4 0 2.9-.5 5.7-1.3 8.5a64.2 64.2 0 0 1-4.8 18c.2 0 .2.2.1.7-.9 2.8-2 5.5-3.5 8.1a48 48 0 0 1-4.1 8.3 36.4 36.4 0 0 1-4.7 7.4c0 .7-5 7.3-5.3 7-.5 0-.7.2-.6.7 0 .4 0 .5-1 1.5-1.5 2-3.3 4-5.3 5.6 0 .4-4.5 4.7-6.9 6.6a65.1 65.1 0 0 1-6 4.7 48.4 48.4 0 0 1-7 4.7c-.1.3-.5.6-3.7 2.4-2.6 1.5-3.8 2.1-4.2 2a43 43 0 0 1-9.6 4.5 40.4 40.4 0 0 1-7.9 2.8 85.5 85.5 0 0 1-14.6 3.7c-2 .2-2 .2-2.3 0-.4-.4-.7-.3-1 .2 0 .2-.2.3-.8.4-6 .7-12.2.9-18.2.5-.4-.4-.6-.5-.9-.1a32 32 0 0 1-9.7-.9c-3.3-.2-6.6-.9-9.7-1.8a74.5 74.5 0 0 1-18.9-6.4 108.3 108.3 0 0 1 49-207.1V20Zm66.2 2.9c3 2 5.9 4 5.8 4.3l-1 .8a28 28 0 0 0-9.1 13.6l-1.1-.9-3.2-2.3c-1.9-1.3-2.1-1.5-2.1-1.8l.2-1.5c.3-1.4.4-1.9 1.3-4 1.8-4.3 4-7.8 6.3-9.4.5-.4.4-.5 3 1.2ZM59.6 23c1.3 3.9 6 9.8 9.3 12 .2.1 0 .2-1.1 1a99.9 99.9 0 0 0-6.1 4c0-.2-.3-.4-.8-.6-3.9-2-10.8-11-9.4-12.4 1.2-.9 7.3-5.3 7.6-5.3l.5 1.3Zm146.2 5.1 6.4 5.4-1 .5a21 21 0 0 0-10.5 13l-.7-.5-2.8-2.4c-2.1-1.8-2.1-1.8-1.9-2.7 1.7-5 5.2-10.3 8.6-13 1-1 1-1 2 0ZM50.7 29c1.4 4.1 6 9.8 9.5 11.5.8.5.9.4-.7 1.6L57 44c-1.7 1.5-2.1 1.7-2.1 1.5l-1.7-1c-5.2-2.6-11.6-8.8-10.4-10 .8-1 7.2-6.3 7.5-6.3l.4.7ZM215 36c4.4 4.3 5 5 4.3 5.2-3.2 1-12.3 9.5-12.3 11.5 0 .5-.5 0-2.9-2.3-2.8-2.9-2.8-2.9-.8-6.9 1.7-3.4 7.7-9.4 9.6-9.4l2 2Zm-172.8.4c1.7 3.3 7.1 7.9 11.6 9.7.5.2.5.2-.6 1.2l-3.5 3.4c-2.4 2.5-2.4 2.5-2.6 2-.2-.2-.3-.4-.6-.5-2.1-.3-12.1-9-11.6-10l6.7-6.8c.1 0 .5.4.6 1Zm180 7c3.3 3.8 3.7 4.3 3.3 4.3-.9 0-6.8 4-9.4 6.2a29 29 0 0 0-3.4 4c-.8 1.2-.6 1.3-2.5-1l-2.3-2.7c-1.4-1.5 6-9.8 11-12.6 1.2-.6 1-.6 3.2 1.8ZM35 44.1c2.2 3.2 9.8 9.2 11.6 9.2.5 0 .5.1-.8 1.5l-3.6 4-.5-.3-.6-.3c-3 0-12.4-8.8-11-10.4 2.2-2.7 4.1-4.8 4.2-4.7l.7 1Zm192.5 5.7c2.5 3.2 5 6.7 4.9 6.8l-.6.2c-1.2.4-3.8 2-7.1 4.2a29.2 29.2 0 0 0-6.2 5.7c-.4.6-.4.7-1.5-1-.5-.8-1.6-2.3-2.5-3.3-2-2.8-1.8-2.4-1.3-3.3A37 37 0 0 1 226 48l1.5 1.8Zm-198.6-.1c0 .3 4.2 4.7 6.2 6.3 1.6 1.3 5.4 3.5 6.2 3.5.4 0 .3.1-.5 1.3a88.4 88.4 0 0 0-3.3 4.3h-.3l-1.5-.8a33 33 0 0 1-8.6-5l-2.3-1.7c-1.5-1.1-1.6-.8 1.5-5 2.1-2.9 2.6-3.4 2.6-3Zm159.4 2.6a12 12 0 0 0-4 1.5l-5.8 3.2c-3.7 2-6 2.6-12.9 3.8-10.8 2-13 3.3-20.6 13.3-2.6 3.4-3 4-4.3 7.3-1.4 3.7-1.4 3.8-2 4.4-1.4 1.6-.8 6.1 1.3 9 .7.9.7 1-.7 3l-1.4 2.6a35.9 35.9 0 0 1-10.8 11.6c-8.8 5.5-13 5.6-18.7.6-10.5-9-17.2-11.5-27.3-10-3.4.4-6.8 2.4-9.4 5.6l-.8.9a29 29 0 0 0-2 2.7c-.3.6-.5.6-1.7.2-2.3-1-4.8-.7-8.3.8-5.2 2.1-9.6 8.6-10.4 15.6-.2 1.6-1 2.7-1.8 2.7-2.6 0-8 6.8-9.2 11.4a27 27 0 0 0 1.6 14.3c.7 2-1.7-2.2-2.6-4.5-1-2.5-1.4-4.5-2.1-9.6-.6-4.6-1-5.3-2.4-5.3-1.5 0-2.5 2-3 7l-.4 2.5a41.9 41.9 0 0 0 5.8 25 34 34 0 0 0 15.5 12.5c3.3 1.5 6 2 10.3 2 2 0 2.9-.1 8.2-.7 3.5-.4 4-.4 8.2-.5l5.8-.2c4 0 7.9.3 11.7 1l2.8.8a49 49 0 0 0 7.8 1.6l11.4 1.7c1.7.3 7.5 1 11.7 1.3 8.6.7 13 .5 23-.9l8.7-1.4c9.2-1.7 18-5 26.1-9.7 9.1-6 11.4-9.3 12.1-17.4l.4-3.3c.2-2.3 0-4-1-7.7-2-6.6-5.8-11.2-10.6-12.8-1.2-.5-1.5-.8-1.6-2.2a21.6 21.6 0 0 0-8-14.7c-2.5-2-4-2.8-8.2-3.6l-2.1-.5c-1.5-.3-3-.6-4.6-.6-.1-.1.3-.8 1-1.8a40 40 0 0 0 5.2-7.9c.8-1.4 1.2-2 2.7-3.8l1.7-2.2c.9-1.2 1.1-1.6 2-2 1.2-.5 1.8-1 3.7-2.6 3.5-3 5.4-4.5 7.6-5.5.7-.3 2-1.1 2.7-1.7 3.2-2.4 6.9-4.7 10.8-6.6 7.2-3.4 10-6.7 10.3-12.1.2-1.8-.3-4-.9-4.5-.3-.4-.5-.9-.7-2.3-.2-3.1-1-4.5-3.6-6.5l-1.2-1c-1-1-2.8-2-4.8-2.5-5-1.3-8.3-1.7-10.2-1.3Zm4.2 1L200 55c1 0 3.7 2.1 3.7 2.9 0 1-1 2.3-2 2.5-2.7 1-5.3 2.2-7.7 3.8-2.3-1.3-7.3-2-10.4-1.3-1.2.2-1.8.2-4.4-.3-3.3-.5-4.9-.3-6.8 1.5-1.1 1-1.2 1-2.6 1.1-2 .3-2.5.5-2.8 1.9-.2.3-.3.4-1.6 1.1-1 .4-1.4.8-4 2.8a14 14 0 0 1-3.1 2.1 17 17 0 0 0-5.7 5c-2.5 3-3.2 3.7-5.5 4.5l-2.3 1.3c-3.1 2.1-5.5 2.6-4.6.8l.8-1.8c1-3.1 1.8-4.3 5-8.7 7-9.2 9-10.6 17.7-12a42.6 42.6 0 0 0 16.6-5.2c5.7-3 6.2-3.2 7.8-3.7a16 16 0 0 1 4.4 0Zm41.6 5.6c1.8 2.9 4.2 6.9 4.2 7.1l-.7.3c-3.9.7-10.4 4.4-13.7 7.4-1.2 1.2-1.3 1.3-1.4 1 0-.4-.7-1.5-2.3-4.1-1.6-2.6-1.6-2.7 1.4-5.5 3-3 10-8 11.2-8l1.3 1.8Zm-210.4-1c3.8 3.6 8.2 6.4 13 8.3L33 71.8l-1-.3c-4-.5-8.2-2.3-13-5.4-1-.6-1-.6-.6-1.2 1.4-2.6 4.6-7.6 4.7-7.6l.7.6Zm181.7.9c2 2.1 2.9 5.2 1.9 6.1a25.5 25.5 0 0 1-5 3.4l-.7.5c-.7.8-1.5 1.5-2.3 2-.7.5-1 .6-1.6 1.6a9.3 9.3 0 0 1-3 3 4 4 0 0 0-1.4 1.5 12 12 0 0 1-3.7 3.4l-1.7 1.1s-.5 0-1.1.4l-1.5.7c-.3 0-.8.3-1.2.6-1 .7-3 1.4-4 1.4-1.3 0-2.8.2-4.1.7l-2.7.6-2.5.7-3.3.9c-1.5.2-3 .6-4.3 1A31.4 31.4 0 0 0 158 90c-.2.5.4.4 2.5-.1 2.4-.7 4.8-1.3 7.3-1.8l2.6-.5 2.5-.7c.7-.1 2-.5 3-.9 1.8-.6 2.1-.6 3.6-.8a39 39 0 0 0 16.7-9 36 36 0 0 1 7.4-6.4l3.2-2.5c1.6-1.3 2-1 2.3 1.2.6 4.9-2.7 9.7-8.7 12.6l-3.3 1.6a67 67 0 0 0-11.8 7.6c-1.8.8-3.5 2.1-6.2 4.3a17 17 0 0 1-6.6 4.3c-2.9 1-3.2 1.1-6.7 1.1-2.3 0-3.3 0-4-.2-1.7-.3-3.6-.4-4.9-.1-7.3 1.2-11.2.5-14.5-3.2-2.5-2.8-3.8-5.3-3.8-7.2 0-1.8.4-2.2 3.5-3.2 1.3-.3 2-.7 2.5-1.1 1.1-.8 2.2-1.4 3.4-1.9a13 13 0 0 0 5.2-4.3c1.7-2.2 3.7-3.9 6.3-5.3l1.7-1.3c2.2-2 4-3.3 5.5-4 .4-.2.8-.5 1-.8.6-.6 1.2-1 2.5-1.3 1.2-.2 1.2-.2 2.2-1.2 1.9-1.8 3.5-2.3 6.6-1.6 2.8.5 3.4.6 5 .3 3-.6 5-.5 8.2.6 2.3.7 2 .7 4.2-.5 3-1.7 4.9-2.6 6.1-2.9.7 0 1.1-.6 1.4-1.7.6-1.5.4-1.5 1.5-.3Zm-30 4.9a4.4 4.4 0 0 0-1.7 7.2 4.3 4.3 0 1 0 1.7-7.2Zm3 .6c2.3 1 3 4.4 1.2 6.1-1.2 1.2-3.1-1.2-3.5-4.1-.1-1.4-.2-1.4-.6 0-.2 1.4-.1 3.7.2 4.6.2.8 0 .9-.9.4-4.4-2.3-1-9 3.5-7ZM17.8 66.5C22 70 27 72.2 32.4 72.9l-.8 1.3-2 3.9c-1.2 2.2-1.5 2.9-1.5 2.5 0-.2-.6-.4-2.7-.7A39 39 0 0 1 13 75.3c-.2-.4 4.1-9 4.5-9l.3.2Zm221 .3c.8 1.5 4.4 8.7 4.3 8.8l-1.3.3a35 35 0 0 0-13.7 7c-1.1 1-1 1-1.5 0l-3.3-6.8c-.6-1 9.5-7.7 14.3-9.2 1-.4 1-.4 1.1 0Zm-225.4 10c4.4 2.5 9.4 4.1 14.5 4.6l-.7 1.5-1.8 4.3c-.8 2-1.2 2.8-1.3 2.7l-1.4-.1a45 45 0 0 1-12.5-3.4c-1.7-.9-1.6-.8-1.2-2 1.1-2.9 2.3-5.6 3.5-8.3l.9.6Zm230.4 0 .5 1.5A78 78 0 0 1 247 85c.1.2 0 .2-.7.3-4.7.5-10.3 3-14.5 6.3-1.4 1.2-1.3 1.2-1.8-.5l-2.3-6c-.1-.3 2.4-2.5 4.3-3.8a52 52 0 0 1 10-4.7c1.5-.6 1.4-.6 1.8.3Zm4.2 11.3c1.2 3.3 2.7 8.7 2.6 8.8l-.7-.1c-3.6-.8-13 1.2-16.1 3.5-1 .6-.9.6-1.3-.9l-1.3-4.6c-.4-1.1-.4-1.4-.1-1.4a35 35 0 0 1 14.4-7.5c1.8-.5 1.6-.6 2.5 2.2Zm-238-.8a39 39 0 0 0 13.9 4l-2.2 6.5c-.1.6-.1.6-.8.6-4.4 0-15.4-2-15.4-3l2-6.7c.8-2.4.8-2.4 1.2-2.3l1.3.9Zm134.2 11.6a34 34 0 0 0 4.8 1.7c1.3.4 2.9.3 6-.2 3.2-.6 4.1-.6 6.2 0 2.4.5 7.7.4 10.5-.5 1.2-.3 1 .2-1.2 2.4L169 104c-.7 1-1.4 1-5 .3-1.7-.4-2.7-.7-3.6-1.2-.7-.4-.5-.1.4.5 1.5 1.1 5 2.4 6.6 2.4 0 0 0 .3-.8 1.7-1 1.9-3.2 1.7-8.2-.8-1.2-.6-1.7-.7-.8 0l2.1 1.4c1.8 1.1 2.6 1.4 4.2 1.8 1.3.2 1.3.2-.7 2.7-1 1.2-1 1.3-1.4 1.3h-1.6c-1.8.3-4-.4-5.7-1.9-.8-.8-1-.8-.3.1 1.3 1.9 3.3 3 5.4 3 1 0 1.5 0 1.5.2 0 .1-3.6 4.3-4 4.6-.5.4-2.8-.8-4.6-2.6-1.6-1.4-1.6-1.4-.8-.2 1 1.7 2.6 3 4.4 3.9l-.5.7-1.8 2c-2.2 2.4-2 2.5-3.6-.3-.6-1-1.6-2.2-1.8-2l.2.4.6 1.6c.6 1.4.9 2 1.4 2.5.5.6.7.4-2.4 3.3-3.2 3-3 3-3 1.8 0-1-.3-2.7-.4-2.4l-.2 1.2c0 1-.2 2-.6 2.8-.2.7-2.2 1.9-5.6 3.2l-2.8 1.1c-.9.5-.9.5-.7-.2.4-1.4 0-2-.4-.9-1 2.4-2.7 2.8-7.3 2l-2.4-.3c-.4 0-.4 0 0-.5.5-.5.8-1.2.6-1.3l-.7.5c-.7.7-2 1.2-2.8 1.2-4.7-.6-7.7-1.2-11.7-2.6-3.4-1.2-3.1-1.1-2.8-1.4.9-.5.8-1-.2-.7-2 .4-6-.7-13-3.7-6.2-2.7-9.1-4.4-8-4.9 1-.4.7-.5-.8-.6-1.5 0-1.6 0-5-2a64 64 0 0 0-8.1-4c-4.4-1.4-4.7-3-1.6-7.2 5.3-7 11.2-9.1 19.8-7a23 23 0 0 1 7.5 3l2.3 1.3 2 1.4c7.6 5.7 9.6 7.5 8.5 7.5a21 21 0 0 1-7-1.4l-2.7-1a15 15 0 0 1-4.6-2.3c-3.2-2.3-5.6-3.4-6.1-2.8-.3.5 0 .8.7 1 .9 0 1.7.5 3 1.6a27.5 27.5 0 0 0 34 .5c3.7-2.7 6.9-6 9.2-10l1.8-3c2-3.5 1.7-3.3 3.3-1.8l1.8 1.4Zm-138-2.1a50.2 50.2 0 0 0 14.9 3C20 105 19 110 18.3 115.2c0 .7 0 .7-.9.7l-3 .2c-3.1.2-12.2 0-12.5-.3.2-2.7.6-5.4 1-8.1.3-1.7.3-1.6 1-1.3 3.3 1.5 14.5 2 15.3.9.3-.5 0-.6-4.8-.6-3.6.1-7.2-.2-10.6-1-.4-.1-.4-.1-.3-.8 0-1.1 1.8-8.6 1.9-8.6l.8.5Zm244.3.4c1 3.3 1.7 6.6 2.4 9.9 0 .2-.2.2-.8.2-4.1-.9-12.5.8-16.3 3.2-.8.6-.8.6-1-.8l-1-5.8c-.6-2-.6-2-.3-2.3a21 21 0 0 1 6-2.9 39 39 0 0 1 6.8-1.5h4.2Zm2.5 11 1.2 9.6-.4-.1c-2-1.6-13.7-.8-17.2 1-.6.4-.6.3-1-2.5l-.3-3.3c0-.7.4-1.1 3-2.4 4-2 14.4-3.7 14.7-2.3Zm-186.2 4.3c2.3.7-.5 4.2-3.4 4.2-1 0-1.5 0-1.3.5.2.4.9.5 3.8.6 6 .1 9.8 1.8 21.6 9 3.7 2.3 10.7 5.2 19.4 8.1a54 54 0 0 0 17.6 3.6l4.3.5c3.1.4 3.3.4 4.8.3l4.1-.3a66 66 0 0 0 19.9-4c1.1-.8 1.1-.8-1.4-.9-2.4 0-2.3 0-6.2-1l-3-1 2.7-2.6c4.2-3.9 8.2-8 11.8-12.6l1.5.3c1.3.2 4.7 1 6.8 1.6 2.8.7 5.4 2.2 7.4 4.3 6.3 5.7 8 12.3 5 19.2-.8 1.7-.9 1.7-1 0a6 6 0 0 0-.3-2.2c-.5-1.3-.6-1.3-.6 1.1 0 3.5-.4 5-2.1 7.5-2.8 3.9-4.3 5.6-3.8 4 .3-1 .5-3.3.3-4.4-.1-1.3-.3-1.4-.4-.5-.5 4.3-1.5 6.4-3.8 7.8l-1.2.7c-.4.4-4.8 2.3-4.9 2.2l.3-.7c.4-1 1-4 .7-4l-.6 1.2c-1.1 3-2.3 4.5-4 5.3a48.8 48.8 0 0 1-9.5 3.4l.5-.9a20 20 0 0 0 2.2-5l-.4.7-1.3 1.8-1.6 2a5 5 0 0 1-3.8 2.2l-11.6.1.9-1c1.2-1.2 3.2-4.3 2.3-3.3-5.3 4.6-5.1 4.6-13.3 3.5-3.3-.4-5.5-.8-5.8-1l.4-.4a11 11 0 0 0 4-3.8c.4-.8.3-.7-1.6.8-3.3 2.6-4.4 2.8-7.7 1.8l-5.2-1.5a52.7 52.7 0 0 1-9.2-3.1c-.8-.4-.8-.5-.2-.5 1 0 3.8-1.6 4.7-2.5.4-.5.3-.5-1.8.3-4.2 1.7-5.1 1.7-10-1.2-2-1.1-4-2.1-6.2-3l1-.3 1-.4h.1c.2 0 4.4-2.3 4.4-2.6l-1.6.5a18 18 0 0 1-6.8 1.8c-1.3 0-1.3 0-5-1.3l-10.3-3.9c-1.3-.4-1.3-.4-.4-1 1.7-.8 4.7-2.9 4.5-3l-1.5.7c-4 2.1-6.1 2.6-9 2.1l-2.3-.3c-3.8-.5-8.4-2.4-6.2-2.7 1.3 0 2.7-.6 3.7-1.4 1-.9 1-1 0-.5-2.3 1.1-5 1.2-6 .2-1.8-2-3-8.3-2.2-11.4 2.5-9.2 10.4-15.7 16.8-13.7Zm-63.7 4.2c2.7.6 10.5.9 13.6.4 1.5-.2 1.4-.4 1.2 1.3-.2 2.2-.3 4.4-.3 6.7l-.3-.2c-.2-.1-.6 0-2.2.4-5 1.2-11.4 1.8-13.7 1.3-.3 0-.3-3.7 0-6.9l.2-2.1c0-1.2 0-1.3.4-1.2l1 .3Zm249.8 1.2c.5.2 1 .2 1.1.2.3 0 .3.5.5 5 .2 4.3.2 5.5 0 5.3-5.9-1.8-12-2-18-.4l-.2-3.4-.2-3.9c-.3-1.7 12-3.7 16.8-2.8ZM17.8 133.6c.1 1.4 0 1.5-.1 1.5l-.9.2c-1.2.6-4.6 1.2-8 1.6l-7.2.6c-.2-.3-.5-10.3-.2-10.3l.9.2c3.2.7 12.7-.3 14.9-1.5.4-.3.4-.3.5 3l.1 4.7Zm233.8-5.3 3 .7c.2.1 0 4.9-.2 8.2-.1 1.2 0 1.1-1.4.5-1.5-.6-4.7-1.3-6.9-1.5a59 59 0 0 0-9.5.4c-.5.2-.5.2-.4-1l.2-3.7c0-3-.2-2.6 3.3-3.3 3.3-.5 9-.8 11.9-.3Zm-204.5 4c.2.2.3.7.4 1 .9 3 2.5 5 6.4 7.5 3.1 2 5.7 3 9.3 3.4 2.8.3 7.8 1.4 10 2l14 5.1c1.3.5 3.9 1.9 8.7 4.3 4.7 2.5 7.4 3.5 14 5.3l6 1.8a51 51 0 0 0 13.9 2.8 57 57 0 0 0 33.9-5.5l4-2a105 105 0 0 1 7.2-3.3c6-2.6 12.4-6.9 11.5-7.8-.3-.2-.5-.2-2.5.7-1.6.8-1.8.7-1.7-.5.4-2.8 1.2-5.6 2.4-8.2.2-.8 1.4-.5 3.8 1.1a22.4 22.4 0 0 1 8 22.2c-.4 4.8-1.2 7-3.7 10-2.8 3.2-5 5-7.8 6.5-1 .6-3.8-.5-5.6-2.3-1.1-1-1.5-1-.7.2.6 1 2 2 3.2 2.7 1.2.6 1 .7-3.5 2.6a98 98 0 0 1-11.1 4.1c-1.2.2-4.4-1.9-6.2-3.9-.7-.9-.7-.4 0 .8a8.3 8.3 0 0 0 3 3c1 .8 1.1.7-1.1 1.2-6 1.3-12.2 2.3-18.3 3-2 .2-2.8-.4-5.2-3.6l-1-1.2c-.5 0 .9 2.7 2 4 1 1.3 1.3 1.2-2.4 1.2-4.7.2-10.4-.2-20.2-1.4-1.4-.2-3.1-3.4-3.5-6.7-.1-1.6-.6-1-.6.8 0 1.5.4 3.2 1.2 4.6.4 1 .6 1-3.3.4l-5.5-.8a40.6 40.6 0 0 1-16.2-6.2 16.5 16.5 0 0 1-2.6-7.5c0-1.2-.2-1.3-.4-.3-.3 1.5-.1 3.6.6 5.5l.3.9-.7-.3a27 27 0 0 0-7.8-3.2l-8-2.2c-2-.4-2-.5-3.1-2.5-1-1.7-1.6-4.3-1.6-6 0-.1-.1-.1-.2 0-.6.6-.2 4.4.7 6.3.4.7.6 1.3.5 1.3l-2.6-.7-4-1a23 23 0 0 1-7.8-3l-1.8-1a24.3 24.3 0 0 1-7-5.3l-.4-1c-.6-.9-.8-1.7-.8-3.8-.1-1.3-.2-1.8-.3-1.6-.2.2-.6 1.6-.7 2.8-.2 3-2.7-2.8-3.9-9-.2-1.3-.2-5.8.1-7a11 11 0 0 1 2.8-5.3l1.1-1.4c1.9-2.4 4.4-4.2 4.8-3.5Zm-29 4.4.2 3c.5 4.4.6 3.7-1.2 4.6a49.5 49.5 0 0 1-14.3 3.5c-.2 0-1.2-8.4-1.2-9.4 0-.2.4-.2 2.2-.2 4.6 0 10.7-.7 13.1-1.7 1.1-.4 1.1-.4 1.1.2Zm229.5.7c3.1.4 6.4 1.2 6.6 1.5 0 .4-1 9.2-1.2 10 0 .2-.3 0-.8-.2-1-.7-1.6-1-1.7-.9.1-.3-2.3-1.2-4.6-1.7-3.2-.7-8.5-1.1-10.1-.7-.8.2-.7.3-.5-1.5l.5-3.7c.2-2.4.1-2.2 1.4-2.5 3.2-.4 7.7-.6 10.4-.3Zm-215.2.8c.5.2.8 1.1 1.3 5.2 1.4 11 5.7 17.7 16.3 24.8l3.8 2.6a50 50 0 0 0 18.2 7 46 46 0 0 1 13.4 4.6c.6.3-.2 1-1.4 1.2-2.8.3-7.5.1-7.5-.3.1-.7-.5-.7-.9 0-.3.3-.4.5-.7.5-2.7.2-5.4.5-8 .9-5 .6-4.9.6-4.2-.2.8-.9.4-1-.8-.4-2 1.2-4.6 1.3-8.6.3-2-.5-2.3-.7-1.8-1 1.6-.9 1.3-1.4-.4-.8-1.7.6-3.7 0-7-2.5l-2.4-1.8c-1.8-1.2-5-4.4-6-6-.2-.4-.2-.4.2-.4.5.1 1.3 0 1.4-.2l-.4-.2c-1.7-.3-2-.5-3.6-3.6-2.2-4.1-4.9-14.8-3.4-14 .6.4 1 .1.6-.3-1.2-1.5-1.6-3.4-1.1-7.3.6-5.3 1.7-8.6 3-8ZM19 145.7l.7 3.6c.1 1-8.7 4.6-13.6 5.7-1.8.3-2 .3-2 0a77 77 0 0 1-1.2-6.3 39.8 39.8 0 0 0 15.9-3.8l.2.8Zm225 1c4.2.7 8.8 2.3 8.8 3.1 0 .7-1.7 9-2 10l-.5-.1a31.3 31.3 0 0 0-16.6-5c-.6 0-.6.3 0-2.3l1.1-5.4c.1-.6 5.4-.7 9.2-.2ZM20 151l1.8 8-.8.6a37.3 37.3 0 0 1-8.9 4.8c-2 .7-5 1.5-5.1 1.3-.3-.2-2.8-9.7-2.6-9.9l1.5-.2a36 36 0 0 0 14.2-4.6Zm218.3 5.2c4.6.9 11.8 3.4 12.2 4.2 0 .4-2.7 9.3-3 10-.1.1-.4 0-1.1-.6a30.2 30.2 0 0 0-15-6c-1-.1-1-.1-.7-.9l2-6c.2-1 2-1.3 5.6-.7Zm-215 6.3 1.4 4.5c1 2.6 1 2.2-.7 3.5-4 2.6-8.5 4.5-13.2 5.5-.2.1-3.5-9-3.5-9.4l1-.3a29 29 0 0 0 13.5-5.9c.6-.4.6-.4 1.4 2Zm210 2.5c5 .9 14 5 13.8 6.3-.1.7-3.4 8.7-3.5 8.7l-.8-.7a33.1 33.1 0 0 0-14.1-6.3c-1.7-.4-1.7-.4-.8-2.6l2.2-5.4c0-.3.9-.3 3.3 0Zm-206.8 6.3 2 4.6c-3.6 4-8.3 7-13.5 8.5-.5 0-.5 0-1-.8l-.4-.9-.1-.2-.5-1.2c-.7-1.3-2-4.6-2-4.6l1.7-.3a35 35 0 0 0 12.1-5c1.5-1 1.3-1 1.7 0Zm202.7 2.9A36 36 0 0 1 243 180c.8.7-3 8.3-8.2 16.5-1.7 2.8-1.6 2.6-2 2a32.7 32.7 0 0 0-14.5-9.7l1.2-2 2-3.4c1-1.6.8-1.6 2.3-1.1a35 35 0 0 1 13.4 6.8c1.4 1.1 1.5 1.1.7 0-4-4-9.1-6.9-14.7-8.2l2.5-5.4c1-2.1.7-2 3.6-1.3ZM29.6 178l2.6 4.7c.6 1 .6 1-.8 2.1a43.2 43.2 0 0 1-12.3 7.6c-.3.1-4.4-7-4.3-7.4 5.5-1 10.5-3.8 14.3-8l.5 1Zm4.4 7.7 1.8 2.7c1.4 2.2 1.4 1.9-.2 3.8-3 3.6-6.7 6.8-10.9 9.2-.2 0-5.3-7.8-5.4-8.3l.8-.3c3.2-.8 9.2-4.4 12.6-7.5.7-.6.7-.7 1.3.4Zm185.6 4.5c4.6 1.7 13.3 7.6 13.3 9 0 .4-7 9.6-7.3 9.6v-.3c-.7-2.8-7.2-9-12-11.4l-1.1-.6 1.9-2.5 2.5-3.5c.7-1 .6-1 2.7-.3Zm-180.3 3.3 2.6 3.4c1.3 1.6 1.3 1.6.6 2.9a37 37 0 0 1-9.8 10.1c-1.1.7-.8.9-3-1.9-4.7-5.7-4.8-6-3.6-6.4 3.2-1.6 7.5-5.2 10.8-9 .9-1.3.6-1.4 2.4.9Zm177.1 6.5c3.4 2.3 6.7 5.5 8.6 8.3.5.8.5.8 0 1.3-2.3 2.7-3.4 4-6 6.5-1.6 1.8-1.4 1.8-1.7.7a25 25 0 0 0-11-13l3.8-4.4c1.9-2.2 2.1-2.2 6.3.6Zm-170.7 1.3 3 3.3c1.6 1.6 1.6 1.6 1 2.7a27.3 27.3 0 0 1-9 10.6c-1.4.9-1.1 1.2-5.2-3.2-4-4.2-3.7-3.8-2.6-4.4 3.3-1.5 8.6-6.4 10.4-9.7.7-1.3.5-1.3 2.4.7Zm161.8 4.7c4 3 6.8 6 9 9.9 1.2 2.2 1.5 1.5-3.3 5.9-3.6 3.3-3.5 3.1-3.5 2.5a32.1 32.1 0 0 0-9.3-13.8c-.6-.5-.6-.5 2.2-3.2 3.2-3.1 2.6-3 5-1.3Zm-154.3 2.9 4.3 3.8A29.6 29.6 0 0 1 47 225.5c-2.4-2.1-4.8-4.3-7-6.6 3.4-1 8.3-6 10.6-10.7.6-1.2.6-1.2 1-1l1.7 1.7Zm146.5 2.5c2.7 2.3 5 5 6.9 8v.2l.3.6c1 1.6 2.4 4.2 2.4 4.8 0 .3-1.8 1.7-4.8 4-2.5 2-2.2 1.8-2.3 1-.8-3.4-4.4-9.7-7.6-13-1.6-1.8-1.6-1.4 0-2.7l2.7-2.2c1.4-1.2 1.5-1.3 2.4-.7Zm-139 3.8 2.7 2c1.5 1 1.5.8 0 4-2 4-6.8 10.7-8 10.7a70.1 70.1 0 0 1-7.6-6.1c4.4-2.7 8-6.5 10.3-11.2l.5-1 2.2 1.6Zm132.6 2a45 45 0 0 1 8.6 13.5c0 .4-6.6 4.8-7 4.8l-.2-1c-.7-3.7-4.2-9.9-7.7-13.5-.8-.8-1-.6 1.4-2.2l2.7-1.9c1.2-.8 1-.8 2.2.3Zm-126.5 2.4c1.5 1 3 2 4.6 2.8.3 0 .3.3-.1 2a38.4 38.4 0 0 1-5.7 12.3c-1 1.3-.7 1.3-1.5.8l-.7-.4a97 97 0 0 1-6.7-4.2c-1-.7-1-.7-.2-1.1 2.5-1.3 6.9-7.3 8.6-11.6.6-1.6.4-1.5 1.7-.6Zm122.2 5.3c3.9 5.2 6.3 10.5 5.2 11.2-4 2.2-9.2 5.2-9.5 5.2v-.4a30.8 30.8 0 0 0-6.1-15.1c-.7-.7-.7-.7.3-1.3l5.6-3.1c.8-.6 2.1.4 4.5 3.5Zm-113.8-.4c2 1.1 5 2.7 6.1 3 .7.4.7.5.3 2.2-.8 3-3.4 8.2-6.3 12.2-.7 1-.7 1-1.4.8l-8.6-4.5.7-.9a34 34 0 0 0 6.9-14l2.3 1.2ZM178 227a35 35 0 0 1 5.3 11c1.3 3.7 1.3 3.4-.2 4a72 72 0 0 1-7.4 3.4c-2.1.9-2.1.9-2.1-1a28.7 28.7 0 0 0-4.6-14.7c-.3-.2-.1-.4.5-.6l6.3-3c1-.4 1.1-.4 2.2.9Zm-93.3 2c2 .9 4 1.7 6.2 2.4.2.4-1.2 6.3-2.3 9.1-1.2 3-3.2 6.6-3.7 6.6-.4 0-9.4-3.7-9.7-4 0 0 .1-.3.6-.7 3.4-4 6-8.7 7.2-13.8 0-.3.1-.3 1.7.4Zm84 2c2.1 3.4 4 8.3 4.4 12.7.2 2.6.2 2.6-1.3 3.2l-7.9 2.6-.1-2.9c.1-5-1-9.9-3.1-14.3l1.5-.5 5.5-2.1 1 1.4ZM94 232.6c2.5.8 5 1.5 7.5 2 .8.3-1.7 9-4.6 15-.6 1.2-.6 1.2-1 1.1a108 108 0 0 1-10.2-3.1c3.2-4 5.3-8.7 6-13.7.3-2.2 0-2 2.3-1.3Zm66.2 1.7c1.8 3.9 3.1 9.7 3.1 14.2 0 1.5.5 1.3-4.2 2.5-5.4 1.3-5.8 1.4-5.7.7.7-5.6 0-11.3-2.2-16.6l2.4-.7 5.8-1.6.8 1.5Zm-55.3 1.1c1.7.4 4.8 1 5.9 1 .6.2.7 1.9.2 5.6-.8 6.5-2.3 11.3-3.3 11.2a128 128 0 0 1-10.8-2.2 35.4 35.4 0 0 0 5.5-14c.5-2 .4-2 .7-2l1.8.4Zm45.4.6c1.7 5 3 12.4 2.7 15.4 0 1.1-.4 1.2-7.8 2.3-2.6.4-2.4.4-2-.6a32.3 32.3 0 0 0-.4-16.5l6.3-1.2c1-.1 1-.2 1.2.6Zm-35.9 1 6 .5c1.5.2 1.5 3.4.2 10.7-1.1 5.7-1.4 6.4-2.2 6.4-4.6-.5-9-1-9.6-1.2-.3-.1-.2-.2.3-.9a37 37 0 0 0 3.5-15.7l1.8.2Zm27.5.7c1.5 4.7 1.5 16.1 0 16.4-1.4.3-11 .9-11.2.7l.4-.8a33 33 0 0 0 1.2-14.5c-.5-2-.6-2 1.2-2l6.5-.6c1.7-.2 1.7-.3 2 .8Zm-11 .6a34 34 0 0 1-.7 16c-.2.6-4.2.8-8.8.4-2-.1-1.8 0-1.5-.7 1.8-4.4 2.7-9.1 2.8-13.9v-2.4c7.3 0 8 0 8.1.6Z" clip-rule="evenodd"/></g><defs><clipPath id="a"><path fill="#fff" d="M0 0h256v256.1H0z"/></clipPath></defs></svg>