<?xml version="1.0" encoding="UTF-8"?><svg id="Layer_1" xmlns="http://www.w3.org/2000/svg" viewBox="0 0 256 256"><defs><style>.cls-1,.cls-2{fill:#171818;}.cls-3,.cls-4{isolation:isolate;}.cls-5{fill:#030303;}.cls-5,.cls-2{fill-rule:evenodd;}.cls-4{fill:#010101;font-family:Beer, Beer;font-size:35.77px;}.cls-6{fill:#706f6b;}.cls-7{fill:none;}.cls-8{fill:#f99e1e;}</style></defs><rect class="cls-7" width="256" height="256"/><g><path class="cls-8" d="M76.97,199.3h0c-.72-.39-1.29,.8-.52,1.09,.71,.39,1.28-.81,.52-1.09h0Zm-30.41-29.18h0c-.78,.12-.52,1.42,.23,1.25,.79-.13,.53-1.41-.23-1.25h0Zm33.94,31.56h0c-.61,.36-.6,.68,.04,.98,.6-.36,.6-.69-.04-.98h0Zm-36.69-36.06h0c.43,1.51,1.33,2.81,2.37,3.96-.57-1.44-1.34-2.8-2.37-3.96h0Zm-1.21-2.32h0c-.72,.45,.07,2.18,.88,1.8,.31-.66-.19-1.64-.88-1.8h0Zm39.19,39.67h0c2.12,2.22,5.08,3.26,8.07,3.67-2.34-1.89-5.18-2.95-8.07-3.67h0Zm18.8,10.79h0c-.91-.35-1.02,.98-.13,1.01,.91,.37,1.01-.98,.13-1.01h0Zm-22.58-21.9h0c-.64-.37-1.12,.72-.45,.98,.64,.36,1.12-.72,.45-.98h0Zm-1.48-1.19h0c-.61,.36-.59,.68,.04,.97,.62-.36,.6-.68-.04-.97h0Zm16.34,13.15h0c-.45-.26-1.33,.22-.95,.76,.5,.76,1.98-.27,.95-.76h0Zm-9.72-8.1h0c-1.68-.71-2.93-2.21-4.78-2.55,1.95,1.86,4.32,4.17,7.27,3.73-.82-.42-1.66-.8-2.5-1.18h0Zm-48.55-47.38h0c.12,1.19,.43,2.35,.96,3.44,0-1.21-.4-2.36-.96-3.44h0Zm51.01,48.89h0c1.46,.83,3,1.73,4.75,1.64-1.43-.89-3.07-1.39-4.75-1.64h0Zm-51.38-53.99h0c-.01,1.06,.14,2.1,.45,3.11,.07-1.06-.08-2.12-.45-3.11h0Zm72.78,58.67h0c-.17,.04-.5,.1-.67,.13-.74,1.36,2.02,.75,.67-.13h0ZM33.36,127.45h0c-.17,1.92-.19,3.86,.05,5.78,.51-1.9,.48-3.91-.05-5.78h0Zm6.36-20.55h0c-1.97,3.61-3.38,7.6-3.73,11.72,1.31-2.12,1.65-4.62,2.38-6.97,.47-1.57,.99-3.14,1.34-4.75h0Zm6.51-24.23h0c-.81,.78-1.52,1.7-1.54,2.86,.6-.89,1.1-1.86,1.54-2.86h0Zm153.19,45.9c.72-6.66-2.47-16.22-3.12-16.95-.57-.62,1.26,6.3,3.12,16.95h0Zm4.05-16.81h0c-.68,.1-.51,1.26,.16,1.16,.69-.11,.53-1.27-.16-1.16h0ZM89.09,52.79c.53,.77-1.17,1.8-1.61,.99,.03-.71,.97-1.22,1.61-.99h0Zm83.08,151.37c1.24-1.43,2.84-2.51,4.58-3.26-1.31,1.34-2.68,2.85-4.58,3.26h0Zm-12.01,6.39c2.61-3.03,6.41-4.4,9.87-6.16-2.91,2.61-6.43,4.38-9.87,6.16h0Zm17.81-145.64c7.51,6.89,13.16,15.07,18.44,23.89,1.41,2.39,1.35,5.43,3.03,7.69,1.25,1.81,1.88,3.96,2.79,5.93,2.8,6.19,4.3,12.68,5.46,19.39,.46,1.88,.8,3.79,.82,5.72,.02,2.93,.34,5.85,.27,8.78-.07,4.04-1.21,7.95-1.92,11.91-.84,5.01-2.4,9.88-4.04,14.69-1.74,4.96-4.56,9.44-7.46,13.82-2.74,4.46-6.25,8.38-9.88,12.13-1.8,1.8-3.09,4.09-5.1,5.67-3.56,2.33-7.07,4.77-10.42,7.41-1.81,1.8-4.23,2.69-6.59,3.53-1.77,.52-3.64,.54-5.35,1.24-25.01,10.75-47.83,8.17-54.49,8.48,11.48,4.94,39.77,1.09,50.85-2.62-6.63,7.77-46.83,10.78-53.27,4.45-.7,.02-1.41,.1-2.09-.05-6.77-1.94-13.81-4.85-19.67-8.8-3.82-2.48-7.79-4.58-11.28-7.48-3.45-3.03-7.53-6.46-10.13-10.31-.8-1.44-2.57-1.87-3.44-3.26-1.44-2.07-3.45-3.62-4.99-5.6,.19-.43,.36-.86,.54-1.28-2.76,.26-2.81-2.96-4.37-4.4-4.32-3.85-5.15-9.55-8.09-14.41-1.82-5.52-6.77-20.29-5.51-25.67-1.29-1.43-.02-3.27-.37-4.93-.42-2.94-.49-5.78-.39-8.72,.04-1.13,.07-2.26,.22-3.36,1.8-9.09,3.73-18.29,7.84-26.69,2.33-4.55,4.1-9.43,7.17-13.57,2.34-3.67,4.82-7.41,8.34-10.05,1.51-1.29,2.93,.66,4.16,1.39,1.53-2,3.16-3.93,4.99-5.66,1.39-1.28,2.46-2.97,4.14-3.92,1.54-.63,3.22-.8,4.81-1.27-.61,.72-1.22,1.45-1.83,2.2,1.33-.17,2.35-1.09,3.38-1.84,2.55-1.95,5.51-3.31,8.38-4.67-3.63,2.41-7.39,4.67-10.84,7.35,1.14,.8,2.24,1.66,3.27,2.61,.22-.78,.13-1.81,.92-2.28,1.45-.99,3.09-1.68,4.44-2.85,22.4-15.76,53.9-16.02,77.67-5.88,3.02,1.3,5.6,3.55,8.85,4.29-2.62-1.8-5.22-3.61-7.95-5.24-1.59-.94-3.53-1.01-5.17-1.81-15.33-8.62-46.62-9.29-70.6,3.63-.1-.66-.26-1.04-.43-1.35-3.5,1.36-6.28,4.11-9.85,5.27,.79-1.01,1.74-1.87,2.91-2.41,2.64-1.33,4.91-3.26,7.6-4.49,14.14-6.6,27.63-9.79,41.47-9.62,10.32,.13,20.81,1.57,32.02,7.87,7.75,3.8,14.41,9.41,20.76,15.2h0Z"/><path class="cls-6" d="M184.59,58.47c.28-.16,.24-.38,.24-.57-.35,0-.34-.08-.6,.24,.1,.18,.22,.3,.37,.34h0Zm-64.85-.39c.12,.11,.89,.07,.83-.37-.41-.1-.68-.02-.83,.37h0Zm7.56,1.45c-.24-.19-.98-.12-1.15,.11-.02,.73,.39,.92,1.09,.77-.04-.34,.2-.45,.06-.88h0Zm.31-1.19c-.16-.24-.42-.34-.89-.2-.06,.6,.21,.8,.79,.65-.03-.19,.02-.34,.1-.45h0Zm6.3-6.89c-.05,.31-.34,.45-.22,.89,.14,.13,.32,.21,.53,.24-1.47,.12-2.91,.82-3.81,2.21,.03,.7-.35,1.35-.71,1.98h0c-.32,.07-.58-.05-.99,.36-.16,.74,.6,1.11,1.1,1.23,.39,.79,1.05,.55,1.45,1.29,1.4-.15,1.96,1.12,3.4,1.04,2.48-.12,5.19-2.87,4.71-4.98-.09-.37-.24-.72-.42-1.03,.8-.13,1.78-.46,2.54-.31,.51,.13,.66,.61,1.07,.63,.85,.04,1.55-.37,1.95-.92,3.37,.88,3.56-4.74,.54-4.7-1.15,.03-1.37,.84-2.5,1.13h0c-1.33-.97-2.5-2.14-4.7-2.01-.47,.8-1.71,1.46-1.77,2.79-.01,.45,.08,1,.28,1.51-.51-.15-1.06-.24-1.6-.24l.11-.02c.38-.64-.19-1.33-.96-1.08h0Zm-3.81-3.85c1.13-.64-.6-1.79-.78-.51,.3,.11,.28,.61,.78,.51h0Zm1.7,4.05s-.04,0-.06,0c-.48-.64-1.08-.75-1.81-.45-1.47-.28-3.07-.34-2.98,1.39,1.41,.4,3.05,.3,3.67-.57,.1,.14,.22,.31,.31,.48h0c.21-.14,.48-.28,.69-.42,.1-.02,.19-.1,.22-.24,0-.01,.01-.03,.01-.05h-.01c0-.05-.01-.1-.03-.14h0Zm8.96,5.22c-.21,.1-.34,.25-.54,.34,.01,.24,.04,.48,.07,.72,.33,.09,.52,.33,1.04,.2,.44-.41,.17-1.39-.57-1.27h0Zm5.37-1.4c-.54-.16-1.51-.07-1.85,.33,.09,.34-.25,.34-.07,.74,.44,.58,.97,1.09,2.11,.8,.63-.62,.11-1.16-.19-1.86h0Zm2.13-12.43c-.13-.48-.22-1.03-.82-.93-.21,.37,.11,1.16,.82,.93h0Zm5.6,18.51c-.67-1.12-2.31-1.83-3.29-2.44-6.26-.28-4.81,7.53-1.55,9.32,4.32,1.01,6.79-3.61,4.84-6.87h0Zm2.07,1.81c.49-.64-.39-1.38-.95-.78,0,.66,.31,.93,.95,.78h0Zm1.04,.35h.04c-.89,1.62-1.51,3.51,.31,5.3h0c.07,.25-.54,.38-.19,.66,.16,.22,.5-.24,.72-.32,1.54,.69,3.18,1.1,5.35-.65,.75-1.3,1.52-2.32,1.24-3.71-.31-1.55-2.4-3.42-3.58-3.43-1.12-.01-2.02,.83-3.28,1.45-.07-.15-.19-.28-.29-.37-.09,.01-.2,.02-.28,.04-.18,.22-.38,.74-.04,1.02h0Zm4.46,12.5c-.01-1.8-.56-2.9-1.89-2.72-2.96,.37-.3,5.81,1.89,2.72h0Zm-1.3-16c.97,.02,1.27-.45,1.35-1.16-.59-1.45-2.63,.06-1.35,1.16h0Zm.34-8.33c.12,1.1,1.6,1.84,2.71,.75,.86-3.4-2.92-2.79-2.71-.75h0Zm10.59,14.69c-1.92-.84-3.9,.43-4.3,2.01-.75,4.81,7.52,4.42,5.62-.56-.22-.74-.8-1.05-1.32-1.45h0Zm-47.87-10.88c.04,1.45,.25,2.65,1.83,2.21,.81-.57,1.13-2.53,.46-3.52-.97,.25-1.48,.91-2.29,1.3h0Zm.39-6.07c-.11,1.03-.37,1.45-.92,2.15,1.16,1.47,3.07,.02,4.17-.69-.15-1.1-2.25-2.13-3.25-1.46h0Zm7.28-2.97c-.89,.81-.1,2.55,.57,3.14,3.35-.07,1.65-4.15-.57-3.14h0Zm4.37,3.12c.18-.13,.36-.24,.54-.35-.11-.27-.07-.48-.34-.76-.69,.03-.78,.83-.19,1.11h0Zm4.82,5.38c.12-.19,.1-.4-.08-.64-.63,.18-.4,1.04,.08,.64h0Zm14.86,18.62c-.33,.19-.6,.37-.35,.64,.2-.16,.33-.04,.5-.19-.05-.13,.03-.28-.15-.45h0Zm-7.97-15.93c.16,.16,.31,.4,.59,.2-.08-.13-.07-.26-.09-.37-.16,.05-.29-.02-.5,.16h0Zm.49-.44c.2,.02,.45-.14,.7-.32,.06-.22-.16-.51-.34-.76-.6,.16-.78,.52-.37,1.08h0Zm23.89,18.52c-.17,0-.38,.04-.61,.25,.09,.13,.18,.27,.25,.39,.34-.18,.6-.38,.37-.65h0Zm-4.66-9.12c.13,.28,.31,.39,.56,.16-.12-.28-.3-.38-.56-.16h0Zm.48-4.94c-.09-.16-.2-.29-.35-.32-.16,.1-.21,.19-.27,.31,.14,.28,.36,.23,.62,0h0Zm8.37,17.07c.45,.69,.89,1.38,1.35,2.09,1.27,.22,2.46,.69,3.61,.17,2.47-1.1,2.71-4.36,.32-5.63-1.88-1.02-5.55,.89-5.28,3.38h0Zm-3.87-27.34c-.14,.1-.3,.19-.43,.3,.16,.42,.76,.04,.43-.3h0Zm12.65,16.14c1.2-.17-.43-1.08,0,0h0Zm-1.88-10.22c.47-.62,.16-1.45-.57-1.59-.25,.16-.49,.31-.75,.48-.18,.76,.54,1.42,1.31,1.1h0Z"/><polygon class="cls-2" points="32.89 133.8 158.71 131.49 156.62 136.49 180.57 137.01 171.61 182.11 15.43 180.37 15.62 179.43 25.78 177.84 16.5 175.01 16.53 174.86 23.76 173.89 16.95 172.73 23.21 141.18 32.77 138.22 .8 134.39 32.89 133.8"/><path class="cls-8" d="M152.73,134.71l2.74,9.01,2.72,.13s1.38,9.37,3.79,15.08c2.41,5.72,3.46,8.69,3.46,8.69l3.22-1.28s1.21,6.36,2.74,8.29,3.14,5.23,3.62,5.23,4.59-2.47,5.48-4.37c.88-1.9,2.09-19.61,2.09-20.65s.32-17.71,.32-18.19-1.04-6.84-1.85-7.25c-.8-.4-21.19,1.46-21.19,1.46l-7.14,3.86Z"/><polygon class="cls-2" points="127.21 194.67 185.8 183.37 183.08 189.27 127.21 194.67"/><path class="cls-2" d="M241.24,136.75c1.24,9.44-4.5,21.53-11.14,27.98-5.22,5.08-11.45,9.6-18.13,12.48,2.76-3.19,1.42-1.85,4.51-4.61,6.65-5.95,13.27-12.18,17.96-19.88,3.83-6.29,4.14-10.26,6.8-15.96h0Z"/><polygon class="cls-2" points="24.11 167.47 13.37 172.97 26.08 173.61 15.46 179.09 27.86 180.54 28.66 168.62 24.11 167.47"/><path class="cls-1" d="M186.45,87.41c.42-.5,1.16-.56,1.66-.14s.57,1.17,.15,1.67c-9.86,11.72-1.66,27.19,4.42,38.37,5.18-2.12,12.71-6.92,18.24-12.61,4.22-4.35,7.22-9.18,6.96-13.6-.04-.66,.45-1.21,1.11-1.25,.66-.04,1.21,.45,1.25,1.11,.32,5.19-2.98,10.61-7.62,15.39-6.12,6.31-14.65,11.58-20.08,13.55l-.96,.35-.72-1.31c-4.22-7.76-10.91-17.55-10.95-27.11,0-4.96,2.74-9.91,6.54-14.41h0Z"/><path class="cls-1" d="M205.9,82.26c.64,.14,1.04,.78,.89,1.42-.14,.65-.78,1.04-1.42,.89-.03,0-10.06-2.24-16.97-8.96-3.2-3.12-6.27-5.05-9.27-6.25s-5.96-1.71-8.95-1.95c-3.4-.28-6.7,.99-8.84,2.08,14.39,4.05,17.47,13.9,29.5,16.1,7.5,1.38,10.95-1.23,10.96-1.24,.6-.26,2.82,.43,3.08,1.04,.27,.6-1.31,2.47-1.91,2.73-.01,0-4.43,3.27-12.65,1.76-7.79-1.42-12.03-4.49-18.44-9.45-3.57-2.75-7.3-6.68-13.87-8.07l-.44-3.38s6.19-4.47,12.8-3.93c3.2,.26,6.38,.8,9.64,2.11,3.26,1.32,6.59,3.4,10.04,6.76,6.44,6.24,15.84,8.32,15.87,8.33h0Z"/><path class="cls-1" d="M206.27,85.09c-.5,.42-1.24,.34-1.66-.16s-.35-1.25,.15-1.68c1.43-1.18,.42-2.5,1.41-4.05,5.72-9.1,8.13-11.31,3.62-23.72-.96-2.65-.72-4.48,.19-5.62,.69-.85,1.7-1.27,2.85-1.33,1-.04,2.13,.19,3.24,.67,2.87,1.22,5.75,4.1,5.99,7.74,.32,4.67-.97,10.52-3.03,15.82-2.18,5.59-5.25,10.63-8.26,13.05-.51,.41-1.25,.34-1.66-.19-.41-.51-.33-1.25,.18-1.66,2.68-2.17,5.5-6.82,7.53-12.06,1.95-5.02,3.16-10.49,2.88-14.81-.18-2.65-2.37-4.78-4.55-5.71-.78-.34-1.56-.51-2.21-.48-.49,.02-.88,.16-1.11,.44-.42,.51-.44,1.57,.19,3.32,2.03,5.6,2.62,11.69,1.6,17.2-.98,5.2-3.38,9.91-7.36,13.21h0Z"/><path class="cls-1" d="M162.3,109.9c.22-.63,.89-.95,1.51-.73,.63,.22,3.03-.99,2.82-.37-4.12,11.71-3.11,14.57,2.65,25.03,3.19-1.51,7.35-3.66,11.08-5.96,3.01-1.86,5.74-3.8,7.42-5.56,.45-.47,1.2-.48,1.68-.04,.47,.45,.48,1.2,.04,1.68-5.34,5.59-14.09,7.62-15.2,16.86-.31,2.59-3.24-5.17-5.03-4.36l-1.01,.46-.53-.97c-4.55-8.2-8.8-16.49-5.43-26.03h0Z"/><path class="cls-1" d="M206.63,84.98c-.61-.25-.89-.95-.65-1.55,.25-.61,.94-.89,1.55-.65,.02,0,8.91,3.73,17.75,2.34,4.76-.75,8.67-.53,12.1,.28,3.42,.81,6.33,2.21,9.09,3.85,5.72,3.37,8.18,10.57,8.18,10.6l-1.59,1.48c-7.38-3.2-13.65-1.68-18.69-1.27-6.28,.51-11,.19-17.66-2.9-7.59-3.51-10.17-7.88-10.17-7.88-1.01-1.65,2.76-3.06,3.05-2.59,0,0,1.85,3.28,8.77,6.48,9.34,2.49,18.24-3.34,32.93,4.93-1.12-2.12-3.08-5.08-6.01-6.8-2.58-1.52-5.28-2.82-8.44-3.58-3.14-.75-6.77-.94-11.18-.25-9.53,1.5-19.01-2.46-19.03-2.47h0Z"/><path class="cls-1" d="M223.15,131.58c.18-.63,.83-.99,1.47-.8,.63,.19,.99,.83,.8,1.47-2.42,8.52-11.03,12.58-18.47,16.17l-.99,.48-.54-.95c-1.85-3.17-4.34-7.89-6.29-12.49-1.45-3.41-2.37-5.49-2.76-8.13-.1-.65,.35-1.24,1-1.35,.65-.09,1.24,.35,1.35,1,.36,2.41,1.21,4.3,2.6,7.56,1.73,4.03,3.88,8.19,5.61,11.26,6.42-3.12,14.13-6.81,16.22-14.2h0Z"/><path class="cls-1" d="M170.47,134.16c.07-.66,3-3.08,3.66-3s1.12,.66,1.04,1.32c-.95,8.29-.33,20.28,7.22,25.5,.54,.37,.68,1.11,.31,1.65-.37,.53-1.11,.67-1.65,.3-2.42-1.68-5.77-4.4-7.69-8.81-2.53-5.81-3.26-13.65-2.89-16.95h0Z"/><path class="cls-1" d="M201.85,142.37c.31-.57,1.04-.78,1.61-.47,.58,.32,.78,1.04,.47,1.61-.01,.03-4.17,7.73-9.99,12.2-5.95,4.57-12.02,4.48-12.04,4.48-.66,0-1.18-.54-1.17-1.19s.54-1.18,1.19-1.17c.01,0,5.28,.07,10.57-4,5.43-4.17,9.35-11.43,9.37-11.45h0Z"/><path class="cls-1" d="M153.77,107.22c.25-.61,.95-.89,1.55-.65,.61,.25,1.7,7.72,1.45,8.32-5.08,12.23-3.09,17.89-.62,26.43,3.77-1.63,12.46-6.24,13.99-7.92,.43-.48,3.95,.43,4.43,.87,.48,.43,.53,1.18,.09,1.68-2.16,2.39-19.24,9.68-19.29,9.7l-1.12,.48-.45-1.13c-5.66-14.03-5.85-23.73-.03-37.78h0Z"/><path class="cls-1" d="M157,143.65c.07-.66,.66-1.13,1.31-1.05,.65,.07,4.31-1.5,4.23-.84-2.71,11.51,1.4,16.85,3.66,24.92l10.96-11.82c.49-.44,1.97,1.03,2.42,1.51,.43,.48,.39,1.24-.1,1.68l-13.82,12.28-.75-1.16c-4.29-6.56-8.76-17.63-7.91-25.53h0Z"/><path class="cls-1" d="M233.81,132.87c.14-.64,1.98-4.82,2.62-4.68,.64,.15,1.04,.79,.89,1.43-3.68,16.28-8.99,25.57-23.04,34.61l-1.02,.66-.64-1.04s-.32-.41-.85-1.1c-.57-.75-3.57,1.18-3.93-.34-1.62-6.8-6.29-13.55-6.54-15.61-.07-.66,1.56-3.25,2.21-3.32,.66-.07,1.24,.39,1.31,1.04,.28,2.26,7.05,13.54,9.18,17.05,11.66-7.71,16.72-15.03,19.81-28.7h0Z"/><path class="cls-1" d="M210.46,159.98c.32-.57,1.04-.78,1.61-.46,.57,.32,.78,1.04,.46,1.61-.01,.02-3.5,6.51-11.24,11.04-7.53,4.4-10.04,5.39-10.04,5.39l-1.28,.51-4.37-18.75c-.14-.64,.25-1.27,.89-1.42,.64-.15,1.27,.25,1.42,.89l3.72,15.99c1.38-.68,3.99-2.03,8.46-4.65,7.18-4.2,10.36-10.11,10.37-10.14h0Z"/><path class="cls-1" d="M168.22,165.57c0-.66,.54-1.18,1.19-1.18,.66,0,1.18,.53,1.18,1.19-.01,2.79,.6,5.33,1.68,7.68,1.01,2.18,2.43,4.2,4.13,6.12,4.76-1.48,10.66-7.14,12.36-13.07,.35-.54,.96,4.26,1.51,4.61,.54,.36,.72,1.09,.36,1.64-3.25,5.08-8.68,7.65-14.27,9.3l-.72,.22-.49-.54c-2.08-2.25-3.81-4.65-5.03-7.29-1.24-2.65-1.94-5.53-1.92-8.68h0Z"/><path class="cls-2" d="M197.16,80.67c-9.21-6.04-9.73-10.69-17.82-20.99,16.81,1.63,18.94,15.04,30.52,17.52l-4.71,6.67-7.99-3.2Z"/><path class="cls-2" d="M203.53,87.7c-5.81-.36-11.93-1.45-16.43-5.46-3.64-3.25-7.39-9.07-14.84-12.39,.11-.07,.13-.1,.27-.1,5.72,.28,12.35,6.62,16.75,9.9,3.99,2.98,9.37,3.5,14.18,3.47l.07,4.58Z"/><path class="cls-2" d="M208.83,84.59c13.42,8.94,30,1.27,35.2,8.69-14.07-5-20.89,4.81-37.27-4.82l2.07-3.87Z"/><path class="cls-2" d="M155.74,114.06s14.41-9.17,19.49-15.61c5.09-6.44,6.5-13.38,6.5-13.38l5.93,1.83s-1.28,.6-2.56,4.47c-1.26,3.88-2.54,8.06-2.54,8.06,0,0-12.92,8.78-16.75,11.02-3.82,2.23-10.08,3.61-10.08,3.61h0Z"/><path class="cls-2" d="M160.86,89.3c2.42-1.96,5.76-3.8,9.9-3.96,9.09-.35,12.72,4.64,12.72,4.64l.25-4.31-7.57-5.72c-.1-.63-.7-1.07-1.34-.98-.04,0-16.78,2.27-19.86,13.34-2.97,10.61-.37,21.97-.36,22l-2.59,7.97c3.29-6.73,7.5-7.77,12.04-9.82,.5-.23-.54,5.75-.29,5.22,3-6.1,8.71-9.02,11.08-10.68,6.8-4.75,7.81-6.83,7.82-6.83,.37-.54,1.35-2.62,.8-3-.54-.37-1.11-.19-1.48,.35,0,0-2.06,3.03-8.5,7.53-5.18,3.63-12.33,5.05-15.49,6.04-.56-3.13-1.63-9.42,.6-17.4,.46-1.65,1.27-3.12,2.29-4.4h0Z"/><path class="cls-2" d="M194.56,89.77c-2.12,1.63-4.36,6.92-4.57,9.57-.24,2.85-.36,3.79-.26,6.7,.04,1.08,.04,.79-.26,1.83l-.53-.83c-1.23-2.47-1.72-7.92-1.22-10.68,.66-3.73,2.06-7.35,4.88-9.92l1.96,3.32Z"/><path class="cls-2" d="M217.17,94.05c-1.33,7.29-6.45,23.13-22.22,25.12,2.54-3.12,12.67-6.51,16.36-28.35l5.86,3.23Z"/><path class="cls-2" d="M207.1,96.44c0,3.65-.09,4.2-1.32,7.73-1.39,3.99-4.61,7.99-8.73,9.44-.42,.14-.43,.07-.87-.04,.24-1.16,1.01-1.67,1.81-2.81,1.92-2.68,3.06-5.18,4.81-8,1.95-3.12,1.74-3.37,4.31-6.32h0Z"/><path class="cls-2" d="M220.85,99.75c1.51,4.95,5.25,19.21,5.22,24.7-3.13-3.33-7.83-10.41-8.09-15.08-.2-3.53,1.42-7.34,2.87-9.62h0Z"/><path class="cls-2" d="M221.29,98.68c4.18,.21,9.33-1.04,12.37,1.42,7.27,5.88,4.81,21.98-3.8,28.32,4.86-14.9,2.03-20.17-8.57-29.74h0Z"/><path class="cls-2" d="M168.56,133.78s5.87-3.29,10.46-7.37c4.6-4.08,7.3-9.05,7.3-9.05l2.54,5.31s-11.31,9.22-14.22,10.67c-2.91,1.45-5.89,2.02-5.89,2.02l-.2-1.58Z"/><path class="cls-2" d="M206.01,145.62c8.34-4.37,13.44-11.84,13.21-20.72l5.65,6.33s-3.96,7.3-8.79,10.81c-4.84,3.52-9.32,5.14-9.32,5.14l-.75-1.57Z"/><path class="cls-2" d="M197.88,128.54s6.91-2.14,12.65-6.92c5.75-4.78,6.71-6.99,6.71-6.99l-1.14-3.46s-8.12,9.11-11.41,11.57c-3.29,2.46-7,3.72-7,3.72l.19,2.08Z"/><path class="cls-2" d="M212.01,160.21c5.19-3.06,15.13-10.76,15.11-23.53l6.89-2.44s-.01,4.57-1.42,7.15c-1.41,2.58-9.02,14.49-10.48,15.74-1.45,1.25-5.4,4.05-5.4,4.05l-2.45,1.32-2.24-2.3Z"/><path class="cls-2" d="M190.98,174.84s5.66-2.42,10.57-8.53c4.9-6.1,7.31-11.15,7.31-11.15l2.53,5.57s-10.79,10.55-14.14,12.39c-3.35,1.83-5.3,2.82-5.3,2.82l-.96-1.1Z"/><path class="cls-2" d="M214.5,116.62s1.51,5.63,3.28,9.63c1.77,4,4.01,6.3,4.01,6.3l1.32-2.89-2.39-5.43-3.62-10.05-2.59,2.44Z"/><path class="cls-2" d="M222.78,135.44s3.88,5.67,5.66,5.99c1.78,.33,2.85-3.03,2.85-3.03l-5.3-5.51-1.13-1.28-2.08,3.84Z"/><path class="cls-2" d="M224.92,98.26c18.01,12.1,16.6,21.02,4.23,35.6-2-2.63-6.92-8.03-9.05-13.98-2.66-7.4-2-9.15-2-9.16,0-.66-.51-1.19-1.17-1.2s-1.19,.52-1.2,1.18c0,0-.66,2.18,2.15,9.99,2.8,7.79,10.56,17.48,10.59,17.51l.78,.99,.94-.84c13.55-12.24,18.66-26.63,3.89-40.53-.36-.34-.86-.41-1.29-.22l-.16-.18-7.69,.86Z"/><path class="cls-2" d="M214.09,112.2s3.2-5.07,3.56-8.71-.7-5.7-.7-5.7l1.31-1.16,3.73,1.12,.08,11.39-5.37,3.01-2.61,.06Z"/><path class="cls-2" d="M165.7,91.79c-3.63,6.74-2.9,9.84-5.05,14.64-2.56-3.88-.25-14.17,5.05-14.64h0Z"/><path class="cls-2" d="M170.66,107.96c.01,3.94,.09,.55-.72,4.65-.45,2.25,1.07,11.01,.46,12.77-1.45-.18-4.77-12.25-3.2-15.4,.54-1.07,2.47-.56,3.47-2.01h0Z"/><path class="cls-2" d="M211.08,76.41s1.88,1.61,3.06,1.59c1.18-.03,.18,1.68,.18,1.68l-4.29,5.22-3.26-1.1,4.31-7.39Z"/><path class="cls-2" d="M218.98,87.73c8.77,.31,13.62-3.61,25.01-4.57-13-7.97-20.76,.87-31.67-3.54v6.51l6.66,1.6Z"/><path class="cls-2" d="M199.76,89.15s3.56-1.03,7.11,.62c3.55,1.64,4.95,2.16,4.95,2.16l6.6-.74s-1.95-1.62-.18-3.03c1.77-1.42,2.65-1.93,2.65-1.93,0,0-6.49-.92-8.59-1.53s-13.84-4.14-13.84-4.14c0,0,1.9,1.71,.4,3.19-1.5,1.47,.89,5.4,.89,5.4h0Z"/><path class="cls-2" d="M212.1,78.8c.73-.63,2.26-4.83,4.1-11.45,1.84-6.62-1.47-16.58-.16-16.3,1.29,.28,5.52,.49,6.18,4.47,.65,3.97-4.36,17.06-5.93,20.11-1.57,3.04-2.35,4.07-2.35,4.07l-1.83-.9Z"/><path class="cls-2" d="M229.87,135.7c-.78,8.25-9.49,16.19-16.34,20.59,3.08-3.79,9.16-14.28,9.03-22.28l7.31,1.68Z"/><path class="cls-2" d="M215.7,114.64c2.46,1.62,4.75,6.57,4.25,10.69-.78,6.37-5.88,12.47-9.35,14.28,1.99-4.08,7.04-14.55,2.96-21.44,.07,.06,.16,.1,.29,.19l1.86-3.73Zm-2.15,3.54c-.07-.11-.13-.19-.19-.2,.07,.1,.13,.16,.19,.2h0Z"/><path class="cls-2" d="M201.92,141.43c-2.61,5.92-9.61,11.38-14.33,13.12-.37,.13-.48,.12-.73-.1,3.9-2.68,11.2-13.52,11.03-20.67l1.57-.14,2.47,7.8Z"/><path class="cls-2" d="M210.03,157.06c-2.2,5.2-11.21,11.12-16.94,12.04,4.22-3.7,11.2-11.36,13.1-17.76l3.84,5.72Z"/><path class="cls-2" d="M187.62,160.77s3.64-.23,9.61-6.12c5.96-5.89,6.98-8.29,6.98-8.29l-1.06-2.44s-5.51,7.15-8.44,10.13c-2.93,2.97-7.3,4.48-7.3,4.48l.21,2.24Z"/><path class="cls-2" d="M200.51,146.62l-7.09-18.33,3.87-2.41,1.04,4.17s4.23,10.11,4.59,10.83c.37,.71,.22,3.04,.22,3.04l-2.64,2.71Z"/><path class="cls-2" d="M159.19,151.94c4.31-8.14,9.81-9.11,12.16-10.6,2.35-1.48,2.33-2.76,2.33-2.76l-.93-2.6s-4.67,3.4-5.92,3.79-6.46,2.39-6.46,2.39l-2.18,1.69,1,8.09Z"/><path class="cls-2" d="M171.2,172.77c1.89-7,7.56-12.17,8.6-11.9,1.04,.27,4.35,.66,4.35,.66l3.03-.7-.77-2.57-4.69,.7-2.46-2.29-10.14,8.27,2.07,7.83Z"/><path class="cls-2" d="M194.17,128.22c-1.38,5.12-4.29,11.97-6.25,17.13-.96,2.53-.53,1.62-2,3.85-.13-7.65,2.91-14.39,4.14-21.71l4.1,.74Z"/><path class="cls-2" d="M188.72,159.75c-.86,6.06-4.43,14.47-10.31,16.92,2.3-3.11,6.01-9.9,6.15-16.95l4.16,.02Z"/><path class="cls-2" d="M170.52,141.47c-.82,3.03-.1,8.7,.85,11.71,.79,2.49,.48,.91,.79,3.47l-1.4-1.16c-3.28-3.44-4.83-10.72-4.21-15.28l3.97,1.27Z"/><path class="cls-2" d="M159.49,114.53c-1.74,3.27,1.13,12.48,2,16.02,.42,1.71,.34,1.36,.14,2.88-3.73-4.59-7.93-15.08-5.81-20.88l3.67,1.98Z"/><path class="cls-2" d="M213.07,70.83s.49,.91,1.2,.8c.7-.1,1.52-1.26,1.52-1.26,0,0,.6,1.24,.5,1.54-.1,.3-2.97,5.92-2.97,5.92,0,0-.51,1.07-.92,.9-.41-.16-1.82-1.86-1.82-1.86l2.48-6.04Z"/><path class="cls-8" d="M58.31,146.79c.82-4.12-1.07-6.33-5.34-6.36l-10.93-.07c-.45,0-.78,.22-.87,.7l-6.69,33.69c-.09,.44,.13,.71,.59,.72l10.93,.06c4.28,.03,7.04-2.15,7.85-6.28l1.6-8.07c.32-1.62-.66-2.86-2.25-3.13v-.09c1.71-.25,3.17-1.48,3.5-3.1l1.62-8.06Zm-7.37,6.59c-.22,1.1-.98,1.71-2.16,1.71l-4.15-.03,1.76-8.87,4.15,.02c1.23,.01,1.7,.63,1.47,1.77l-1.07,5.4Zm-2.9,14.61c-.24,1.18-.98,1.75-2.17,1.75l-4.15-.03,1.76-8.86,4.15,.02c1.23,.01,1.7,.63,1.47,1.77l-1.06,5.35Zm38.71-26.64c.09-.44-.04-.7-.59-.71l-16.77-.1c-.41,0-.73,.25-.82,.7l-6.69,33.7c-.09,.44,.13,.7,.54,.71l16.77,.1c.55,0,.78-.25,.86-.69l.87-4.38c.1-.48-.04-.71-.59-.71l-11.39-.07,1.76-8.86,8.7,.05c.45,0,.78-.25,.88-.74l.86-4.34c.1-.48-.12-.75-.58-.75l-8.7-.06,1.74-8.77,11.39,.07c.55,0,.79-.3,.88-.74l.86-4.4Zm27.31,.18c.09-.44-.04-.71-.59-.71l-16.76-.11c-.41,0-.74,.27-.82,.7l-6.69,33.7c-.09,.44,.13,.71,.54,.71l16.76,.11c.54,0,.78-.26,.86-.7l.87-4.39c.1-.48-.04-.7-.59-.71l-11.39-.07,1.76-8.87,8.7,.06c.45,0,.78-.26,.88-.75l.86-4.34c.1-.48-.12-.75-.58-.75l-8.7-.05,1.74-8.78,11.39,.07c.54,0,.79-.3,.87-.74l.88-4.39Zm26.29,5.78c.82-4.12-1.02-6.33-5.31-6.36l-11.43-.07c-.45,0-.78,.25-.86,.69l-6.69,33.7c-.09,.44,.13,.7,.59,.71l4.74,.03c.45,0,.78-.26,.87-.7l2.2-11.05,3.14,.02,.84,11.16c.01,.39,.19,.62,.65,.63l4.74,.03c.49,0,.83-.25,.79-.79l-.86-11.51c2.37-.91,3.89-2.83,4.47-5.77l2.12-10.72Zm-14.75,11.16l2.33-11.75,4.51,.03c1.18,0,1.7,.63,1.47,1.77l-1.64,8.25c-.22,1.14-.98,1.75-2.17,1.75l-4.5-.04Z"/><path class="cls-2" d="M21.45,128.49c-.05,.04-.1,.1-.16,.13-.04-.04-.08-.09-.12-.13,.08-.11,.19-.15,.28,0h0Zm-1.65,3.07c.02,.07,0,.15-.09,.22-.2-.13-.04-.4,.09-.22h0Zm-12.1,17.18c-.4-.12-.83-.24-1.23-.36-.1,.37-.15,.72,0,.97,.59,.07,1.18,.16,1.22-.61h0Zm6.08-16.41l-.31-.08c-.05,.22-.11,.42-.17,.67h.05c-.07,.16-.13,.32-.18,.5h0c.28,.49,.54,.98,1.16,1.28,0,.19-.03,.39-.13,.6h0s.04,0,.05,.01c-.03,.03-.07,.07-.09,.1-.31-.08-.65-.08-.91,.02-.14,.12-.2,.25-.3,.37-.04-.07-.09-.13-.15-.2,.13-.13,.1-.07,.19-.32-.1-.06-.14-.02-.22-.03-.04-.25,.24-.2,.3-.49h0c-.39-.2-.46-.48-.84-.54-.58-.11-.71,.54-1.11,.85,.04,.09,.21,.15,.3,.1,.1,.31-.28,.48-.37,.8-.06,.2,.03,.36,0,.57-.04,.33-.29,.54,.05,.74,.15,.09,.28-.02,.47,.07,.11-.07,.02-.07,.07-.2,.39,0,.75-.1,1.02-.39,0,.16,.2,.39,.37,.46,.04-.01,.08-.03,.12-.04,.46,.23,.97,.27,1.26-.08,.06,.07,.12,.12,.17,.13,.04,.05,.1,.11,.17,.16h.03c-.08,.4-.16,.8-.12,1.13-.09-.12-.25-.21-.51-.25h0c-.53,.25-.17,.9,.49,1.1,.07-.19,.11-.36,.12-.5,.04,.08,.1,.16,.17,.23,.16-.47,.29-1.01,.42-1.54,.22,.04,.45,.07,.64,.02h0c.37-.09,.66-.34,.81-.65,.03,.15,.07,.31,.1,.44,.42,.36,.66,.78,1.08,.89,.4,.1,1.31-.34,1.56-.83,.12-.25,.13-.48,.09-.72,.19,.07,.34-.1,.29-.28,.21,.02,.43-.11,.66-.37h0c.09-1.13-1.58-.54-.97,.18,.04,.04,.08,.08,.13,.11-.05-.01-.1-.01-.13,0-.01,.02-.03,.05-.04,.07-.03-.13-.07-.27-.1-.41-.17-.25-.35-.41-.53-.53,0-.14-.04-.3-.08-.45,.25-.06,.18-.01,.4-.26-.08-.13-.16-.11-.25-.19h0c.1-.31,.41-.07,.65-.37-.08-.12-.14-.23-.19-.34,.12,.1,.3,.04,.31-.16-.06-.06-.1-.11-.16-.17-.07-.01-.15,.07-.24,.15-.04-.1-.07-.18-.1-.27,.23,.1,.51-.22,.27-.39,.01,0,.04-.01,.05-.02h0c-.06-.07-.12-.13-.19-.21-.06,.05-.1,.1-.16,.14,.01,.01,.03,.03,.04,.04-.06,.04-.12,.09-.15,.2-.06-.07-.12-.14-.22-.22-.31-.25-.6-.22-.88-.1-.07-.04-.18-.03-.25,.09h.01l-.12,.07s-.06-.07-.09-.1h0c-.13,.02-.2,.13-.19,.23-.1,.04-.22,.07-.33,.09h0s-.05,0-.07-.04c-.02,.01-.04,.03-.04,.04-.03-.01-.05-.04-.08-.05-.05-.07-.1-.14-.2-.17h0s-.01,.04-.02,.06c-.11-.03-.22-.04-.34-.01,.2-.17,.4-.36,.69-.44h0c-.04-.69-.25-1.3-.85-1.71-.85-.25-1.5,.4-1.58,1.09-.29,0-.57,.09-.83,.32h0Zm-4.7,.06c.38-.66-.19-.8-.48-1.11-.12,.29-.41,.23-.44,.61,.31,.16,.35,.43,.92,.5h0Zm11.62-10.99c-.25-.33-.8-.5-1.42-.63-.81,.54-.54,1.83,.79,1.89,.15-.53,.61-.51,.63-1.27h0Zm-11.93,15.58c1.39,.36,2.06-1.34,.19-1.63-.18,.62-.45,1.24-.19,1.63h0Zm9.82,6.34h.05c.17-.61,.45-1.25,.19-1.62-.52-.16-.94-.14-1.3-.02l-.07-.04h0c-2.12,0-1.62,3.39,.83,2.65,.19-.36,.28-.68,.31-.96h0Zm1.01,7c-1.04-.51-1.75-1.14-1.47-2.32-.22-.13-.39-.16-.54-.16,.07-.48-.19-.75-.83-.84-.67,.27-.47,.98,0,1.21-.14,.05-.31,.05-.54-.04-2.13,3.21,2.53,5.49,3.37,2.15h0Zm-6.68-65.18c-.37,.64-.31,.39-.32,1.13,1.19,.73,1.71-1.11,.32-1.13h0Zm2.88,58.68c-2.47,1.24,2.13,1.82,0,0h0Zm-.26-45.39c-.14,.53-.6,.52-.62,1.27,.26,.43,1.48,.76,1.95,.55,.48-1.07-.1-1.63-1.33-1.82h0Zm1.99,25.75c-1.01,.93-.42,2.2,.84,2.67-.3,.39,.1,1.02,.65,1.27,.13-.27,.63-.31,.66-.6-.26-.29-.44-.59-.31-.83-.07-.14-.22-.03-.22,.07-.07-.02-.13-.04-.19-.07v-.06c.37,.04,.68-.09,.7-.53-.09-.13-.28-.28-.49-.37,.03-.42-.03-.79-.18-1.13-.47-.12-.95-.27-1.46-.42h0Zm-1.99,16c-.25-.31-.59-.34-.92-.22-.13,0-.27,.01-.41,.04-.19,.22-.31,.44-.4,.68-.05,.11-.08,.22-.1,.34-.25,1.2,.59,2.34,2.08,1.85h0c.37-.5,.64-1.11,.79-1.96-.32-.25-.66-.53-1.04-.72h0Zm-1.03,5.54c-.5-.15-.99-.28-1.47-.42-.03,.08-.05,.16-.07,.25-.17-.22-.39-.4-.68-.55h0c-3.46,.07,.03,5.2,1.51,2.11-.04-.07-.07-.13-.1-.2,.19,.01,.36,0,.49-.07,.37-.64,.28-.37,.32-1.12h0Zm4.96-32.21c1.08-.34,.95-2.01,.51-2.74-2.98-1.07-2.82,2.79-.51,2.74h0Zm-7.78,27.92c-.14,.8-.19,1.53,.85,1.68,1.68-.08,.79-2.27-.85-1.68h0Zm-1.03,12.25c-1.51-.78-2.24,.99-.91,1.43,.66,.1,1.3-.78,.91-1.43h0Zm9.72-36.87c-.47,.63,.75,1.39,.73,1.16-.21-.4,.07-1.03-.73-1.16h0Zm-2.28,12.11c-.05,.04-.1,.07-.15,.07-.04-.05-.05-.08-.06-.13,.07-.09,.13-.05,.21,.05h0Zm2.3,.11c.04,.18-.13,.22-.26,.16,0-.13,.17-.24,.26-.16h0Zm-3.72-.02c.09-.12,.21-.21,.35-.2,.15,.05,.19,.22,.14,.34,.47,.19,.78-.2,1.27-.03,.15,.05,.29,.13,.42,.22,.04,0,.07,0,.1,.02h0s.04,.07,.05,.1c.54,.48,.86,1.31,.59,1.83-.63,1.14-2.72,.89-3.19-.54,.07-.25,0-.5-.06-.75h0c-.1-.06-.21-.04-.31-.22,.01-.28,.31-.33,.49-.32,.1-.11,.2-.13,.3-.16-.03,0-.06-.03-.1-.05-.01-.08-.01-.18-.06-.25h0Zm.87-.1c-.06-.05-.09-.12-.15-.17,.07-.06,.1-.1,.13-.15-.07,.01-.14,0-.21-.06,.01-.13-.03-.28,.16-.39h0c.05,.01,.1,.02,.17,.06,0-.03,.02-.07,.04-.12,.38-.21,.8,.13,.72,.45-.11,.41-.6,.21-.87,.38h0Zm1.26,.2c.07,.02,.13,.05,.2,.07-.01,.04-.04,.1-.05,.15-.14-.03-.25-.07-.15-.22h0Zm2.21-2.26c.18,.45-.37,.67-.67,.3-.05-.39,.4-.6,.67-.3h0Zm-.82,4.19c-.06-.05-.09-.12-.15-.17,.02-.07,.06-.16,.09-.25,.12,0,.22-.06,.37,.03,.12,.19-.07,.51-.31,.39h0Zm-2.68-3.38c.12-.13,.24-.19,.34-.06,.15,.28-.38,.41-.34,.06h0Zm2.21-1.12s.09,.09,.12,.13c-.02,.03-.06,.06-.09,.08-.08-.07-.11-.14-.03-.22h0Z"/><path class="cls-5" d="M21.93,132.03c-.2,0-.52-.12-.61-.29,.07-.1-.04-.13,.04-.26,.22-.16,.44-.29,.8-.07,.16,.28-.06,.42-.24,.63h0Z"/><path class="cls-2" d="M104.83,112.27c.05-.23,.31-.07,.24,.09-.08,.04-.2,0-.24-.09h0Zm-2.67-7.15c1.31-1.28,.06-3.27-1.83-2.92-1.95,1.05-.42,3.42,1.83,2.92h0Zm2.17-7.83c-.48-.12-.96-.27-1.48-.42-.1,.46-.22,.91-.37,1.36,.84,.76,1.8,.44,1.85-.95h0Zm-5.75,10.25c.28-.42,.78-.46,.88-1.18-.29-.51-.86-.85-1.83-1.01-.98,.72-.5,2.08,.95,2.2h0Zm4.84-1.36c-1.59-.64-2.12,.29-2.22,1.27-.42,4.66,6.32,.35,2.22-1.27h0Z"/><path class="cls-5" d="M21.51,125.86c.08-.04,.15-.1,.28-.09-.02,.07-.13,.16-.24,.19,0,.01,0,.03-.02,.04-.03-.01-.07,0-.1,.02-.05-.08-.12-.17,0-.25h0s.04,.04,.07,.08h0Z"/><path class="cls-5" d="M22.34,147.01c.94-.16,1-1.67-.29-1.78-.48,.31-.59,1.59,.29,1.78h0Z"/><path class="cls-2" d="M108.54,148.17c-.06,.04-.14,.03-.23-.03,.07-.23,.37-.15,.23,.03h0Zm-19.79-7.23c0-.42,0-.86,.01-1.27-.39-.01-.74,.04-.93,.26,.1,.58,.16,1.17,.92,1.01h0Zm28.19-1.11c1.58,.92,3.18-.78,2.34-2.52-1.53-1.61-3.42,.49-2.34,2.52h0Zm8.13,.06c0-.48,0-.99,.01-1.52-.48,0-.95,.01-1.42-.01-.51,1.02,.05,1.85,1.41,1.54h0Zm-18.85,2.67v-.31h-.69v.05c-.16-.02-.34-.04-.53-.04h0c-.39,.39-.79,.77-.93,1.45-.18,.04-.39,.07-.62,.02h0v.06s-.08-.05-.12-.07c0-.32-.09-.65-.27-.87-.15-.1-.29-.12-.43-.19,.05-.06,.1-.12,.15-.2,.16,.1,.1,.09,.36,.09,.03-.1-.02-.13-.03-.21,.23-.1,.26,.17,.55,.16h0c.1-.43,.34-.57,.31-.96-.04-.58-.7-.53-1.11-.84-.08,.06-.1,.24-.03,.31-.27,.18-.54-.13-.87-.14-.2,0-.34,.12-.54,.15-.33,.05-.6-.13-.7,.25-.04,.17,.1,.27,.05,.48,.09,.09,.07,0,.21,.02,.1,.38,.31,.69,.65,.87-.15,.05-.32,.3-.35,.47,.03,.04,.05,.07,.07,.11-.09,.5,0,1,.42,1.19-.06,.07-.08,.14-.09,.2-.04,.07-.07,.13-.11,.22v.03c-.4,.02-.8,.05-1.11,.19,.09-.12,.13-.31,.11-.57h0c-.38-.45-.92,.07-.94,.76,.21,.02,.38,.02,.51-.01-.07,.07-.13,.13-.17,.23,.5,.04,1.06,.01,1.6,0,.01,.23,.04,.45,.14,.63h0c.19,.33,.5,.54,.84,.62-.13,.07-.28,.14-.4,.22-.23,.5-.57,.83-.57,1.27s.67,1.17,1.22,1.28c.27,.05,.49,0,.72-.1-.01,.2,.2,.31,.36,.2,.03,.21,.22,.39,.52,.54h0c1.12-.19,.1-1.66-.43-.88-.03,.05-.06,.1-.07,.15,0-.05,0-.1-.03-.13-.04,0-.06-.01-.08-.01,.11-.07,.24-.13,.37-.22,.19-.23,.31-.44,.37-.65,.13-.04,.28-.11,.4-.2,.13,.23,.07,.16,.37,.33,.1-.12,.06-.2,.11-.29h0c.32,.01,.17,.37,.53,.53,.09-.11,.18-.19,.27-.28-.07,.14,.04,.3,.24,.26,.04-.07,.08-.13,.12-.2,0-.07-.11-.13-.21-.18,.08-.06,.16-.12,.23-.17-.04,.25,.34,.44,.45,.15,.01,.01,.02,.03,.04,.04h0c.04-.07,.1-.15,.16-.23-.07-.04-.12-.08-.19-.11l-.02,.04c-.06-.05-.13-.09-.25-.1,.06-.07,.11-.16,.16-.27,.15-.36,.05-.63-.13-.86,.03-.09-.01-.19-.15-.22h-.01l-.08-.09s.05-.07,.07-.11h0c-.05-.12-.17-.16-.28-.12-.07-.09-.13-.19-.18-.3h-.01s.01-.04,.04-.07c-.02-.02-.04-.03-.05-.04,0-.03,.02-.06,.03-.09,.06-.07,.1-.14,.1-.24h0s-.04,0-.07,0c0-.12-.02-.23-.07-.33,.22,.15,.45,.3,.61,.54h0c.66-.22,1.18-.57,1.42-1.26,.01-.89-.78-1.35-1.46-1.24-.06-.26-.21-.51-.5-.7h0Zm-2.83,1.6v.03h-.07s.05-.02,.07-.03h0Zm.9,1.42s-.04-.06-.07-.09c0-.09-.03-.19-.06-.28,.04,0,.09-.01,.13-.03h0s.05-.06,.07-.09c.19,.13,.38,.22,.57,.25-.01,.1-.02,.21-.01,.32-.2-.07-.42-.02-.63-.07h0Zm.62-7.55c.74,.2,.73-.4,.94-.75-.31-.04-.33-.34-.7-.28-.07,.34-.32,.47-.24,1.03h0Zm13.7,8.36c.26-.31,.28-.89,.24-1.52-.74-.65-1.92-.05-1.62,1.25,.55,0,.66,.44,1.38,.27h0Zm-4.95-9.39c.48,.16,.66,.64,1.38,.54,.42-.41,.6-1.06,.49-2.02-.96-.77-2.14,.05-1.87,1.48h0Zm-13.26,1.92c.02,1.43,1.84,1.64,1.63-.24-.64,0-1.33-.11-1.63,.24h0Zm-3.53,11.12l.02,.05c.63,0,1.33,.1,1.62-.24,.01-.55-.11-.95-.32-1.25l.02-.08h0c-.57-2.05-3.71-.69-2.34,1.48,.39,.08,.72,.09,1,.04h0Zm-6.48,2.78c.22-1.13,.64-1.97,1.85-2,.06-.25,.06-.42,.01-.57,.48-.04,.68-.37,.6-1.02-.43-.57-1.07-.19-1.16,.33-.08-.12-.13-.29-.1-.53-3.67-1.23-4.64,3.85-1.19,3.79h0Zm61.18-23.3c-.72-.19-.45-.2-1.17-.02-.38,1.34,1.53,1.36,1.17,.02h0Zm-35.32,11.81c.19-1.71-.84-1.97-1.83-1.82-4.61,.8,1.33,6.19,1.83,1.82h0Zm-21.96,13.29c.42,.86,1.88,.53,1.64-.74-.42-.39-1.69-.16-1.64,.74h0Zm1.36-7.12c-1.86-2.06-1.19,2.52,0,0h0Zm43.78-12.01c-.56,0-.67-.45-1.39-.27-.35,.37-.34,1.62-.02,2.01,1.17,.2,1.56-.51,1.42-1.74h0Zm-24.35,8.59c-1.16-.72-2.24,.15-2.35,1.5-.45-.18-.96,.37-1.07,.96,.29,.05,.46,.52,.75,.48,.22-.33,.45-.58,.73-.51,.11-.11-.03-.21-.13-.19l.02-.2h.06c.05,.34,.27,.61,.69,.52,.11-.13,.2-.34,.23-.58,.42-.08,.76-.24,1.05-.47-.01-.49,0-.99,0-1.51h0Zm-15.99,2.21c.24-.31,.19-.66-.02-.95-.04-.12-.08-.25-.15-.38-.26-.12-.51-.19-.76-.22-.12-.02-.25-.03-.35,0-1.22,.07-2.11,1.17-1.23,2.48h0c.58,.22,1.24,.33,2.1,.26,.15-.37,.33-.76,.41-1.19h0Zm-5.62,.45c.01-.52,0-1.02,.01-1.52-.09,0-.17,0-.26,0,.16-.23,.29-.48,.36-.8h0c-.98-3.32-5.02,1.39-1.62,2,.04-.05,.1-.1,.15-.15,.04,.19,.1,.35,.2,.45,.71,.19,.43,.17,1.16,.02h0Zm32.42-3.55c.63,.95,2.2,.39,2.79-.22,.24-3.14-3.46-2-2.79,.22h0Zm-29.03-.28c-.81,.06-1.52,.21-1.4,1.25,.52,1.61,2.41,.18,1.4-1.25h0Zm-12.11,2.18c.37-1.66-1.54-1.92-1.62-.51,.08,.67,1.09,1.06,1.62,.51h0Zm38.2-.18c-.73-.29-1.13,1.09-.93,1.01,.34-.31,1.02-.2,.93-1.01h0Zm-12.3,.93c-.05-.04-.1-.07-.1-.13,.03-.05,.06-.07,.1-.09,.1,.05,.08,.13,0,.22h0Zm.51,2.26c-.17,.07-.25-.07-.23-.22,.13-.02,.28,.1,.23,.22h0Zm3.35,.23c.06,.07,.13,.12,.16,.25-.07,0-.21-.08-.25-.19-.01,0-.03,0-.05,0,0-.04,0-.07-.04-.08,.07-.08,.13-.16,.25-.06h0s-.04,.06-.05,.08h0Zm-3.77-4.08c.24,0,.14,.29-.03,.26-.05-.08-.04-.2,.03-.26h0Zm-.55,.26c.14,.06,.25,.14,.28,.29-.01,.16-.16,.24-.3,.22-.05,.5,.4,.71,.37,1.21,0,.15-.04,.31-.1,.46,.01,.03,.01,.06,0,.1h0c-.02,.05-.05,.06-.09,.08-.33,.65-1.04,1.17-1.61,1.04-1.26-.31-1.58-2.39-.31-3.21,.25,0,.48-.13,.71-.25h0c.03-.11-.01-.21,.13-.36,.26-.05,.39,.22,.44,.39,.13,.07,.19,.15,.22,.25,0-.03,.01-.07,.03-.1,.07-.04,.16-.07,.22-.13h0Zm.34,.82c.03-.07,.09-.12,.12-.2,.07,.04,.13,.07,.19,.1-.03-.07-.03-.14,0-.22,.13-.02,.26-.1,.42,.06h0c0,.05,0,.11-.01,.17,.04,0,.07,0,.13,0,.31,.31,.09,.8-.25,.81-.42,.01-.37-.5-.6-.72h0Zm.13,1.26c0,.07-.01,.13-.02,.21-.04,0-.1,0-.15-.01,0-.14,0-.26,.17-.19h0Zm2.76,1.54c-.38,.29-.75-.19-.46-.57,.37-.14,.69,.25,.46,.57h0Zm-4.26,.29c.03-.07,.08-.11,.12-.19,.08,0,.16,.01,.26,.03,.03,.11,.11,.19,.07,.37-.15,.16-.5,.06-.45-.21h0Zm-.52,1.93c-.05-.2-.02-.54,.12-.66,.13,.03,.12-.08,.27-.02,.2,.16,.39,.35,.28,.75-.22,.23-.42,.04-.67-.07h0Zm3.07-5.37c.15,.08,.24,.17,.15,.31-.25,.2-.5-.27-.15-.31h0Zm1.66,1.84c-.03,.05-.06,.1-.1,.15-.03-.01-.07-.04-.1-.07,.06-.1,.12-.15,.2-.08h0Zm-1.43,2.14c-.06-.04-.12-.07-.17-.11,.03-.05,.07-.1,.1-.16,.13,.06,.19,.14,.07,.27h0Z"/><path class="cls-2" d="M105.6,177.65c.1,.08,.17,.04,.25,.01-.05-.13-.01-.13-.16-.19-.05,.05-.08,.12-.08,.17h0Zm-8.3-23.86c-.02,.05,.09,.34,.25,.25-.03-.17-.09-.25-.25-.25h0Zm.45,2.96c.04-.11-.08-.37-.19-.41-.28,.09-.29,.27-.14,.5,.13-.05,.2,.01,.34-.09h0Zm.48-.04c.07-.09,.07-.2-.04-.36-.23,.05-.28,.19-.13,.38,.07-.04,.12-.04,.17-.02h0Zm3.35,1.41c-.12,.02-.22-.06-.36,.04-.03,.07-.04,.14-.01,.23-.25-.52-.69-.96-1.3-1.11-.25,.1-.54,.04-.82,0h0c-.07-.1-.05-.22-.26-.32-.3,.04-.34,.37-.31,.57-.24,.25-.07,.45-.29,.69,.25,.49-.15,.86,.07,1.39,.37,.89,1.73,1.54,2.44,1.08,.12-.07,.23-.17,.32-.29,.15,.28,.4,.6,.45,.89,.01,.21-.13,.33-.09,.48,.1,.32,.34,.51,.6,.6,.11,1.36,2.21,.69,1.8-.41-.16-.42-.48-.39-.74-.77h0c.18-.62,.46-1.19,.13-1.99-.36-.07-.76-.43-1.26-.28-.16,.05-.35,.16-.51,.3,0-.21-.05-.42-.12-.62,0,0,.01,.02,.02,.04,.28,.04,.46-.25,.26-.51h0Zm.92-1.9c.38,.34,.58-.45,.08-.35,0,.13-.19,.19-.08,.35h0Zm-1.27,1.15s0,0,0-.01c.17-.26,.13-.5-.07-.72-.09-.58-.28-1.18-.89-.92,.03,.57,.29,1.16,.69,1.28-.04,.06-.08,.11-.13,.17h0c.07,.05,.16,.13,.25,.19,.02,.04,.07,.06,.11,.05h.03s.01-.03,.03-.04h0Zm-.75,3.97c-.07-.06-.13-.09-.2-.15-.08,.04-.16,.07-.26,.12,0,.13-.05,.24,.06,.4,.22,.11,.55-.11,.4-.37h0Zm1.21,1.8c0-.22-.16-.57-.36-.64-.11,.08-.16-.04-.28,.07-.15,.24-.28,.49-.02,.87,.31,.16,.45-.1,.66-.31h0Zm4.84-.83c.16-.11,.35-.22,.24-.42-.16-.03-.42,.19-.24,.42h0Zm-6.07,4.47c.32-.39,.37-1.09,.46-1.53-.72-2.33-3.39-.78-3.62,.65,.19,1.71,2.21,2.02,3.16,.88h0Zm-.4,.99c.31,.09,.45-.33,.16-.45-.24,.08-.29,.23-.16,.45h0Zm0,.42h0c-.72-.1-1.49-.08-1.91,.81h0c-.08,.06-.22-.14-.27,.02-.05,.08,.15,.15,.21,.22-.05,.66,0,1.3,.94,1.89,.58,.1,1.05,.25,1.52-.03,.54-.31,.95-1.33,.8-1.76-.14-.41-.57-.64-.97-1.02,.04-.04,.08-.1,.1-.15-.01-.03-.03-.07-.05-.09-.1-.05-.31-.05-.37,.1h0Zm-4,3.26c.66-.24,1-.58,.75-1.05-.52-1.03-2.18,.66-.75,1.05h0Zm5.71-2.56c.11,.36,.33,.41,.6,.35,.45-.41-.37-.96-.6-.35h0Zm3.1-.96c-.39,.19-.47,.83,.07,1.1,1.36-.13,.65-1.44-.07-1.1h0Zm-4.01,5.81c.05-.81-.67-1.38-1.3-1.32-1.87,.35-.65,3.33,.93,1.98,.25-.16,.28-.42,.37-.66h0Zm-2.25-19c-.52,.21-.94,.44-.57,.96,.31,.23,1.07,.08,1.35-.29-.21-.32-.52-.42-.78-.67h0Zm2.29-.65c-.39,.09-.59,.05-.91-.06-.39,.62,.39,1.13,.8,1.45,.37-.19,.48-1.1,.11-1.39h0Zm2.03,2.3c-.42-.22-.95,.29-1.08,.62,.46,1.22,1.74,.06,1.08-.62h0Zm-.58,2l.2,.16c.08-.07,.17-.09,.24-.23-.1-.25-.4-.17-.44,.07h0Zm-1.34,2.48c.08,.01,.16-.01,.22-.11-.15-.22-.44-.02-.22,.11h0Zm-4.9,7.88c-.1-.09-.22-.16-.28-.04,.08,.05,.06,.11,.13,.16,.04-.04,.11-.02,.15-.11h0Zm4.81-5c-.04,.08-.1,.16,0,.25,.04-.05,.08-.07,.12-.08-.04-.05-.03-.11-.13-.16h0Zm.22,.13c.01,.07,.11,.14,.21,.22,.09,0,.16-.13,.24-.22-.13-.2-.29-.22-.45,0h0Zm-3.69,11.19c-.02-.06-.07-.13-.16-.19-.04,.05-.07,.1-.11,.13,.1,.11,.21,.18,.28,.06h0Zm2.75-2.9c-.08,.08-.1,.16,0,.22,.08-.08,.1-.16,0-.22h0Zm1.87-.47c.04-.05,.08-.11,.07-.17-.06-.04-.1-.05-.15-.05-.08,.08-.04,.16,.07,.22h0Zm-5.17,5.3c-.2,.26-.39,.51-.6,.77,.09,.49,.07,.99,.4,1.35,.73,.76,1.95,.42,2.12-.62,.13-.82-1.05-1.92-1.92-1.5h0Zm9.54-4.99c-.06-.04-.11-.08-.17-.11-.13,.11,.08,.28,.17,.11h0Zm-4.29,6.75c.22,.42,.34-.31,0,0h0Zm3.5-2.03c.29,.09,.55-.13,.51-.41-.09-.07-.17-.14-.28-.22-.3,.04-.44,.39-.23,.63h0Z"/><path class="cls-8" d="M41.67,110.93c.11,.26,.32,.25,.48,.26,.01-.31,.1-.28-.16-.54-.16,.07-.28,.16-.33,.28h0Zm6.16-57.14c-.1,.1-.14,.78,.26,.77,.12-.36,.07-.61-.26-.77h0Zm-1.95,6.52c.19-.19,.19-.84,0-1.02-.64-.08-.84,.26-.78,.89,.31,.01,.38,.24,.78,.13h0Zm1.02,.39c.22-.12,.33-.35,.26-.77-.51-.1-.74,.1-.65,.64,.18-.01,.29,.05,.39,.13h0Zm5.5,6.18c-.26-.07-.37-.34-.77-.27-.12,.11-.21,.26-.25,.45,.01-1.3-.47-2.65-1.6-3.56-.63-.04-1.16-.43-1.69-.8h0c-.04-.29,.1-.51-.23-.91-.64-.22-1.04,.42-1.18,.86-.73,.28-.58,.87-1.27,1.16,.01,1.24-1.16,1.63-1.21,2.91-.11,2.2,2.07,4.84,3.97,4.6,.34-.04,.66-.14,.95-.28,.04,.72,.25,1.6,.04,2.27-.16,.44-.6,.52-.65,.89-.1,.75,.18,1.39,.64,1.8-1.08,2.9,3.86,3.56,4.1,.9,.07-1.02-.63-1.28-.77-2.3h0c.98-1.09,2.11-2,2.2-3.97-.67-.48-1.13-1.63-2.31-1.81-.39-.05-.88-.01-1.36,.11,.18-.44,.31-.91,.36-1.39,0,.03,0,.07,0,.1,.54,.41,1.2-.02,1.04-.73h0Zm3.74-3.01c.46,1.04,1.63-.37,.52-.65-.13,.25-.57,.2-.52,.65h0Zm-3.72,1.13v-.05c.61-.37,.77-.89,.57-1.56,.37-1.27,.58-2.68-.96-2.75-.48,1.21-.53,2.66,.17,3.29-.13,.07-.28,.15-.45,.22h0c.1,.19,.21,.45,.32,.64,0,.09,.07,.19,.19,.22,.01,0,.03,.01,.04,.01h.02s.07-.02,.1-.03h0Zm-5.4,7.42c-.07-.19-.19-.31-.26-.5-.2,0-.42,0-.64,0-.1,.28-.34,.42-.27,.89,.31,.43,1.22,.28,1.17-.39h0Zm.75,4.87c.2-.46,.2-1.33-.12-1.65-.31,.04-.28-.25-.64-.13-.56,.34-1.05,.75-.9,1.78,.49,.61,1.02,.19,1.66,0h0Zm10.77,2.99c.44-.07,.93-.1,.89-.64-.31-.21-1.04,0-.89,.64h0Zm-16.83,3.29c1.05-.49,1.83-1.88,2.45-2.68,.8-5.49-6.22-4.91-8.08-2.2-1.27,3.72,2.58,6.31,5.63,4.88h0Zm-1.78,1.65c.52,.49,1.25-.22,.77-.77-.58-.06-.85,.19-.77,.77h0Zm-.39,.89v.04c-1.36-.95-2.97-1.65-4.71-.22h0c-.23,.04-.29-.51-.57-.22-.2,.13,.16,.46,.22,.66-.74,1.3-1.24,2.71,.09,4.78,1.09,.78,1.91,1.54,3.17,1.44,1.39-.14,3.23-1.82,3.35-2.85,.11-.98-.54-1.86-.99-3.02,.14-.05,.27-.13,.35-.22,0-.08,0-.17,0-.25-.18-.19-.61-.4-.89-.13h0Zm-11.42,2.8c1.58,.14,2.61-.23,2.57-1.42-.06-2.65-5.1-.79-2.57,1.42h0Zm14.23,.29c-.1,.85,.29,1.16,.89,1.3,1.33-.39,.19-2.33-.89-1.3h0Zm7.32,1.04c-.98,0-1.77,1.24-.89,2.32,2.91,1.06,2.72-2.33,.89-2.32h0Zm-13.91,8.02c.91-1.62-.04-3.47-1.39-3.97-4.18-1.1-4.57,6.23-.01,5,.68-.12,1.01-.62,1.41-1.03h0Zm13.89-41.22c-1.28-.1-2.36-.02-2.12,1.41,.42,.77,2.12,1.21,3.06,.73-.13-.89-.67-1.4-.94-2.14h0Zm5.31,.87c-.89-.19-1.24-.45-1.82-1.01-1.39,.89-.3,2.71,.25,3.74,.98-.03,2.07-1.79,1.57-2.74h0Zm1.96,6.69c-.64-.86-2.24-.32-2.82,.22-.22,2.96,3.53,1.83,2.82-.22h0Zm-3.13,3.56c.09,.17,.17,.34,.26,.51,.25-.07,.43-.01,.7-.24,.03-.6-.66-.75-.96-.27h0Zm-5.18,3.78c.15,.12,.34,.12,.56-.01-.09-.57-.87-.45-.56,.01h0Zm-17.76,11.42c-.13-.31-.27-.55-.53-.37,.12,.19,0,.3,.11,.45,.13-.02,.25,.06,.42-.09h0Zm14.77-5.59c-.16,.13-.39,.24-.23,.5,.13-.07,.24-.04,.34-.05-.04-.14,.04-.25-.1-.45h0Zm.34,.47c-.03,.18,.1,.42,.22,.65,.19,.07,.47-.1,.71-.22-.09-.54-.4-.73-.93-.42h0Zm-18.47,19.41c0-.15,0-.34-.17-.56-.13,.07-.25,.13-.37,.17,.13,.32,.29,.57,.54,.39h0Zm8.47-3.29c-.26,.1-.37,.24-.19,.47,.25-.08,.36-.22,.19-.47h0Zm4.31,.86c.15-.07,.28-.16,.31-.28-.07-.15-.14-.2-.25-.26-.25,.1-.24,.3-.07,.54h0Zm-15.81,5.85c-.65,.34-1.29,.67-1.95,1-.31,1.11-.82,2.11-.48,3.17,.75,2.27,3.61,2.77,4.94,.78,1.07-1.57-.28-4.97-2.51-4.96h0Zm24.47-.97c-.08-.13-.14-.28-.23-.41-.38,.11-.1,.67,.23,.41h0Zm-15.37,9.71c.05,1.07,.99-.28,0,0h0Zm9.18-.75c.5,.48,1.26,.28,1.45-.35-.11-.24-.24-.46-.36-.7-.66-.22-1.3,.36-1.1,1.05h0Z"/><path class="cls-8" d="M50.58,184.13c.01,.05,0,.1-.06,.15-.14-.08-.03-.28,.06-.15h0Zm-8.47,12.08c-.28-.08-.58-.16-.86-.25-.07,.26-.1,.5,0,.67,.41,.04,.82,.11,.85-.42h0Zm4.36-19.26c.91-.89,.04-2.29-1.27-2.03-1.37,.73-.29,2.39,1.27,2.03h0Zm1.51-5.49c-.34-.08-.67-.19-1.03-.29-.07,.33-.16,.64-.27,.96,.6,.53,1.26,.31,1.3-.67h0Zm-1.61,13.23l-.22-.05c-.04,.15-.08,.3-.12,.46h.04c-.04,.11-.09,.23-.13,.36h0c.19,.34,.38,.68,.81,.89,0,.13-.02,.28-.09,.42h0s.02,0,.04,0c-.03,.02-.05,.04-.07,.07-.22-.06-.45-.05-.64,.02-.1,.08-.13,.18-.22,.26-.03-.04-.06-.09-.1-.13,.09-.09,.07-.05,.12-.23-.07-.04-.1,0-.14-.01-.03-.17,.16-.14,.21-.35h0c-.28-.14-.32-.33-.6-.38-.39-.07-.48,.38-.78,.6,.03,.07,.14,.1,.21,.07,.07,.22-.18,.34-.25,.57-.04,.14,.02,.26,0,.39-.03,.23-.21,.38,.04,.51,.1,.07,.19-.01,.33,.05,.07-.04,.01-.04,.05-.13,.28,0,.52-.07,.72-.28,0,.11,.13,.28,.25,.33,.03-.01,.06-.02,.09-.04,.32,.16,.68,.19,.88-.06,.04,.05,.08,.08,.12,.1,.03,.04,.07,.07,.12,.11h.02c-.06,.28-.11,.55-.08,.79-.07-.08-.18-.14-.36-.17h0c-.37,.17-.12,.63,.34,.77,.05-.13,.08-.25,.08-.35,.03,.05,.07,.11,.12,.16,.11-.34,.2-.72,.29-1.09,.16,.04,.31,.05,.45,.01h0c.26-.07,.45-.24,.57-.45,.02,.1,.04,.22,.07,.31,.3,.25,.46,.54,.75,.62,.28,.07,.92-.25,1.1-.6,.08-.18,.08-.34,.06-.51,.13,.05,.25-.07,.21-.2,.13,.01,.3-.07,.45-.26h0c.07-.79-1.1-.37-.67,.13,.02,.03,.05,.05,.08,.07-.03,0-.07-.01-.09,0-.01,.02-.02,.04-.03,.05-.02-.09-.04-.18-.07-.28-.12-.16-.25-.29-.37-.37,0-.1-.03-.21-.06-.31,.18-.04,.12-.01,.28-.19-.06-.09-.11-.07-.17-.12h0c.07-.22,.29-.05,.45-.27-.06-.08-.1-.16-.13-.23,.08,.07,.22,.02,.22-.11-.04-.04-.07-.08-.11-.12-.05,0-.1,.05-.16,.1-.02-.06-.05-.12-.07-.18,.16,.07,.36-.15,.18-.28,.01,0,.03-.01,.04-.02h0s-.08-.09-.12-.14c-.04,.04-.07,.07-.11,.1l.02,.02s-.08,.07-.1,.14c-.04-.05-.08-.1-.14-.15-.22-.16-.42-.15-.62-.07-.05-.03-.13-.01-.17,.07h0l-.08,.04-.07-.07h0c-.09,.01-.13,.09-.13,.16-.07,.03-.15,.05-.23,.07h0s-.04,0-.05-.03c-.01,0-.03,.02-.03,.03-.02-.01-.04-.02-.06-.04-.04-.05-.07-.1-.13-.11h0s-.01,.03-.01,.04c-.08-.02-.16-.03-.24-.01,.13-.12,.28-.25,.48-.31h0c-.03-.48-.17-.9-.6-1.18-.6-.17-1.06,.28-1.11,.76-.21,0-.41,.05-.58,.22h0Zm.56,2.21h.02s0,.02,0,.03l-.02,.02s0-.04,0-.05h0Zm1.13-.35s-.04,.02-.07,.03c-.06,0-.13,0-.2,0v-.09h0s-.03-.05-.04-.07c.13-.1,.22-.22,.27-.34,.07,.04,.13,.06,.21,.07-.07,.13-.07,.28-.16,.42h0Zm-4.98-1.79c.27-.46-.14-.57-.34-.78-.08,.21-.29,.16-.31,.42,.22,.11,.25,.31,.66,.35h0Zm8.13-7.74c-.16-.24-.57-.36-.99-.44-.57,.39-.38,1.28,.56,1.33,.1-.39,.42-.37,.43-.89h0Zm-7.25,1.65c.19-.31,.55-.34,.63-.83-.21-.36-.61-.6-1.27-.7-.69,.51-.36,1.45,.65,1.54h0Zm-1.1,9.29c.98,.25,1.45-.95,.13-1.15-.11,.44-.31,.88-.13,1.15h0Zm6.88,4.4h.04c.12-.43,.31-.88,.13-1.14-.37-.11-.66-.1-.91-.01l-.05-.03h0c-1.48,.01-1.13,2.38,.59,1.86,.12-.25,.19-.47,.2-.67h0Zm.71,4.89c-.72-.35-1.22-.78-1.03-1.61-.15-.08-.28-.11-.38-.11,.06-.34-.13-.52-.58-.59-.46,.19-.33,.69,0,.84-.1,.04-.22,.04-.38-.02-1.48,2.26,1.77,3.83,2.36,1.49h0Zm-4.67-45.57c-.26,.45-.22,.28-.23,.79,.84,.5,1.2-.78,.23-.79h0Zm1.59,26.01c-1.11-.43-1.48,.22-1.56,.91-.29,3.26,4.42,.22,1.56-.91h0Zm5.01,17.24c.66-.12,.69-1.17-.21-1.24-.34,.22-.41,1.12,.21,1.24h0Zm-4.58-2.21c-1.73,.88,1.5,1.27,0,0h0Zm-.19-31.76c-.1,.37-.42,.37-.42,.89,.18,.31,1.04,.53,1.36,.39,.34-.76-.07-1.15-.93-1.27h0Zm1.4,18.01c-.71,.66-.31,1.54,.59,1.86-.21,.28,.07,.72,.45,.89,.08-.19,.43-.22,.45-.42-.18-.2-.31-.4-.21-.59-.05-.1-.15-.01-.15,.05-.04-.01-.08-.03-.13-.04v-.04c.26,.02,.47-.07,.48-.38-.06-.1-.19-.19-.35-.26,.02-.29-.01-.56-.12-.79-.34-.07-.68-.17-1.03-.28h0Zm-1.39,11.22c-.17-.22-.42-.25-.65-.15-.09,0-.19,0-.28,.03-.13,.15-.22,.31-.28,.48-.04,.07-.07,.15-.07,.23-.19,.84,.4,1.64,1.45,1.28h0c.26-.35,.45-.78,.56-1.38-.22-.18-.45-.37-.72-.49h0Zm-.72,3.88c-.36-.1-.69-.19-1.03-.29-.02,.06-.04,.11-.05,.17-.12-.14-.28-.28-.48-.39h0c-2.42,.07,.03,3.64,1.07,1.47-.03-.04-.05-.09-.07-.13,.13,.01,.25,0,.34-.04,.25-.45,.19-.27,.22-.78h0Zm3.47-22.56c.75-.25,.66-1.42,.36-1.92-2.09-.74-1.98,1.97-.36,1.92h0Zm-5.45,19.57c-.1,.56-.13,1.07,.6,1.18,1.18-.07,.55-1.59-.6-1.18h0Zm-.72,8.58c-1.06-.54-1.57,.7-.64,1.01,.47,.07,.92-.55,.64-1.01h0Zm6.8-25.85c-.33,.44,.53,.97,.51,.81-.14-.28,.06-.72-.51-.81h0Zm-1.59,8.49s-.07,.05-.1,.05c-.03-.04-.04-.06-.04-.09,.05-.06,.1-.03,.15,.04h0Zm1.61,.07c.02,.13-.09,.14-.19,.11,.01-.1,.12-.16,.19-.11h0Zm.77-2.23c.05-.03,.1-.06,.2-.06-.01,.04-.1,.12-.16,.13,0,.01,0,.03-.01,.04-.02,0-.04,0-.07,.01-.04-.06-.08-.12,0-.17h0s.02,.04,.04,.05h0Zm-3.44,1.81c.04-.16,.22-.04,.16,.07-.06,.03-.13,0-.16-.07h0Zm.07,.42c.07-.09,.14-.14,.25-.13,.1,.03,.13,.14,.1,.24,.34,.13,.55-.13,.89-.02,.1,.03,.2,.08,.29,.15,.02,0,.04,0,.07,0h0s.03,.05,.04,.07c.38,.34,.61,.91,.41,1.28-.43,.8-1.91,.64-2.23-.37,.05-.16,0-.35-.04-.52h0c-.07-.04-.14-.03-.22-.15,.01-.19,.22-.24,.35-.23,.07-.07,.13-.1,.21-.11-.02,0-.04-.01-.06-.04-.02-.06-.02-.13-.05-.18h0Zm.62-.07s-.07-.08-.11-.12c.04-.04,.07-.07,.1-.1-.04,0-.1,0-.14-.04,0-.09-.01-.19,.11-.28h0s.07,.01,.12,.04c0-.02,.01-.05,.02-.08,.27-.15,.57,.08,.51,.31-.08,.28-.41,.15-.6,.27h0Zm.87,.14s.09,.03,.13,.05c-.01,.03-.02,.07-.04,.1-.1-.02-.17-.05-.1-.15h0Zm1.55-1.59c.12,.31-.26,.47-.47,.22-.04-.28,.28-.42,.47-.22h0Zm-.58,2.93s-.06-.07-.1-.11c.02-.05,.04-.11,.06-.18,.09,0,.15-.04,.27,.02,.08,.13-.04,.35-.22,.27h0Zm1.21,.7c-.13,0-.37-.08-.42-.21,.04-.07-.03-.1,.03-.18,.15-.11,.31-.2,.56-.05,.12,.19-.04,.29-.16,.44h0Zm-3.07-3.04c.08-.09,.16-.13,.24-.04,.1,.19-.27,.29-.24,.04h0Zm1.54-.79s.07,.06,.09,.09c-.02,.02-.04,.04-.07,.06-.06-.06-.08-.1-.02-.15h0Zm1.18,1.35s-.07,.06-.1,.1c-.03-.03-.06-.07-.09-.1,.07-.07,.13-.1,.19,0h0Z"/><rect class="cls-7" x="2.42" y="55.29" width="127.66" height="114.21"/><g class="cls-3" transform="matrix(1 0 0 1 109.6397 124.8674)"><text class="cls-4" transform="translate(72.53 83.91)"><tspan x="0" y="0">ICE</tspan></text><text class="cls-4" transform="translate(44.16 126.83)"><tspan x="0" y="0">COLD</tspan></text></g></g></svg>