<?xml version="1.0" encoding="utf-8"?>
<svg version="1.1" width="512" height="512" x="0" y="0" viewBox="0 0 512 512" style="enable-background:new 0 0 512 512" class="" xmlns="http://www.w3.org/2000/svg">
  <g transform="matrix(1.095207, 0, 0, 1.095207, 5.999926, -31.128345)">
    <path xmlns="http://www.w3.org/2000/svg" style="" d="M407.271,124.495c-14.318-29.517-46.559-55.194-88.456-70.448  c-44.325-16.138-94.862-19.068-142.311-8.251C117.04,59.351,66.546,95.117,34.322,146.503  C2.504,197.242-7.637,257.221,5.767,315.394c8.677,37.655,28.818,73.257,58.246,102.956c27.121,27.369,60.608,48.536,96.839,61.21  c23.224,8.124,46.757,12.316,68.814,12.316c4.212,0,8.375-0.153,12.466-0.46c27.679-2.083,51.419-10.848,70.562-26.057  c45.563-36.195,31.294-66.861,17.497-96.516c-16.952-36.433-34.48-74.106,45.267-138.48c19.683-15.889,32.275-33.513,37.423-52.382  C417.67,160.428,415.73,141.934,407.271,124.495z" fill="#e8cbac" data-original="#e8cbac" class=""/>
    <path xmlns="http://www.w3.org/2000/svg" style="" d="M407.271,124.495c-14.318-29.517-46.559-55.194-88.456-70.448  c-31.905-11.616-67.028-16.388-101.902-14.116c23.502,1.523,46.606,6.243,68.231,14.116c41.897,15.254,74.138,40.931,88.456,70.448  c8.459,17.439,10.398,35.933,5.608,53.484c-5.149,18.87-17.74,36.493-37.423,52.382c-79.747,64.374-62.219,102.048-45.267,138.48  c13.799,29.655,28.066,60.321-17.497,96.516c-18.213,14.469-40.597,23.095-66.566,25.693c5.814,0.545,11.56,0.825,17.209,0.825  c4.212,0,8.375-0.153,12.466-0.46c27.679-2.083,51.419-10.848,70.562-26.057c45.563-36.195,31.294-66.861,17.497-96.516  c-16.952-36.433-34.48-74.106,45.267-138.48c19.683-15.889,32.275-33.513,37.423-52.382  C417.67,160.428,415.73,141.934,407.271,124.495z" fill="#d8ab87" data-original="#d8ab87" class=""/>
    <path xmlns="http://www.w3.org/2000/svg" style="" d="M 305.587 118.965 C 299.504 92.564 272.898 76.022 246.279 82.09 C 233.305 85.048 222.286 92.854 215.251 104.075 C 208.292 115.172 206.074 128.294 209.007 141.022 C 214.243 163.737 234.662 179.153 257.216 179.153 C 260.878 179.153 264.598 178.747 268.315 177.899 C 281.289 174.941 292.309 167.133 299.346 155.912 C 306.302 144.815 308.519 131.694 305.587 118.965 Z" fill="#9fbc22" data-original="#9fbc22" class=""/>
    <path xmlns="http://www.w3.org/2000/svg" style="" d="M 184.579 167.263 C 178.496 140.861 151.892 124.318 125.271 130.387 C 112.297 133.345 101.278 141.151 94.243 152.372 C 87.282 163.468 85.065 176.59 87.999 189.318 C 87.999 189.318 87.999 189.318 87.999 189.319 C 93.235 212.033 113.652 227.451 136.208 227.451 C 139.869 227.451 143.59 227.044 147.308 226.196 C 160.28 223.238 171.3 215.43 178.335 204.21 C 185.295 193.113 187.513 179.992 184.579 167.263 Z" fill="#f94a46" data-original="#f94a46" class=""/>
    <path xmlns="http://www.w3.org/2000/svg" style="" d="M 152.237 297.872 C 146.154 271.47 119.55 254.928 92.929 260.996 C 79.955 263.954 68.935 271.762 61.899 282.982 C 54.94 294.08 52.723 307.202 55.657 319.929 C 60.891 342.645 81.311 358.062 103.867 358.06 C 107.528 358.06 111.248 357.654 114.965 356.806 C 127.939 353.847 138.959 346.04 145.993 334.819 C 152.952 323.722 155.17 310.601 152.237 297.872 Z" fill="#4374ef" data-original="#4374ef"/>
    <path xmlns="http://www.w3.org/2000/svg" style="" d="M 252.298 384.439 C 246.215 358.037 219.612 341.496 192.989 347.564 C 180.016 350.521 168.997 358.33 161.962 369.549 C 155.001 380.646 152.783 393.767 155.718 406.497 C 160.954 429.211 181.374 444.626 203.928 444.626 C 207.589 444.626 211.309 444.219 215.026 443.371 C 227.999 440.414 239.02 432.606 246.056 421.385 C 253.014 410.29 255.231 397.168 252.298 384.439 Z" fill="#9f4def" data-original="#9f4def"/>
  </g>
</svg>