<svg width="256" height="256" viewBox="0 0 256 256" fill="none" xmlns="http://www.w3.org/2000/svg">
<path d="M39.1201 96.47V181.47C39.1201 182.53 39.5701 183.4 40.1201 183.4H58.2701C59.4201 183.4 59.7001 180.4 58.6201 179.65L50.8701 174.42C50.7675 174.348 50.6453 174.31 50.5201 174.31H46.4401C45.8701 174.31 45.4401 173.45 45.4401 172.38V104.81C45.3925 104.45 45.4436 104.084 45.588 103.751C45.7325 103.418 45.9648 103.131 46.2601 102.92L69.1501 98.36C70.3601 97.89 70.1501 94.54 68.9401 94.54H40.1401C39.5801 94.53 39.1201 95.4 39.1201 96.47Z" stroke="#F15A24" stroke-width="2" stroke-miterlimit="10"/>
<path d="M53.0602 169.26V83.67H38.3702C47.6602 86.94 60.4402 88.61 70.2802 88.61H70.9302C72.0133 88.6206 73.0484 89.0583 73.8106 89.8279C74.5727 90.5975 75.0002 91.6369 75.0002 92.72V133.93C75.0002 146.93 53.3702 158.99 42.5202 166.08L36.4502 169.26H53.0602Z" stroke="#F15A24" stroke-width="2" stroke-miterlimit="10"/>
<path d="M188.99 158.14H128.27H127.73H67.0099L49.6499 169.26L67.0099 180.37H127.73H128.27H188.99L206.35 169.26L188.99 158.14Z" fill="#F15A24"/>
<path d="M171.74 147.8H134.82H121.18H84.2602L69.9302 151.01L84.2602 154.22H121.18H134.82H171.74L186.07 151.01L171.74 147.8Z" fill="#F15A24"/>
<path d="M178.54 81.43H179.27L156.67 72.58H128.69H127.31H99.33L76.73 81.43H77.46H76.73L99.33 90.28H127.31H128.69H156.67L179.27 81.43H178.54Z" fill="#F15A24"/>
<path d="M216.88 96.47V181.47C216.88 182.53 216.43 183.4 215.88 183.4H197.73C196.58 183.4 196.3 180.4 197.38 179.65L205.13 174.42C205.232 174.348 205.355 174.31 205.48 174.31H209.56C210.13 174.31 210.56 173.45 210.56 172.38V104.81C210.607 104.45 210.556 104.084 210.412 103.751C210.267 103.418 210.035 103.131 209.74 102.92L186.85 98.36C185.64 97.89 185.85 94.54 187.06 94.54H215.83C216.42 94.53 216.88 95.4 216.88 96.47Z" stroke="#F15A24" stroke-width="2" stroke-miterlimit="10"/>
<path d="M202.94 169.26V83.67H217.63C208.34 86.94 195.56 88.61 185.72 88.61H185.07C183.987 88.6206 182.952 89.0583 182.19 89.8279C181.427 90.5975 181 91.6369 181 92.72V133.93C181 146.93 202.63 158.99 213.48 166.08L219.55 169.26H202.94Z" stroke="#F15A24" stroke-width="2" stroke-miterlimit="10"/>
<path d="M187.67 161.13H134.91H121.09H68.3298L55.0498 169.46L68.3298 177.79H121.09H134.91H187.67L200.95 169.46L187.67 161.13Z" fill="white"/>
<path d="M88 102.09H94.6C98.86 102.09 101.6 104.53 101.6 109.7V141.42C101.629 141.6 101.585 141.785 101.478 141.933C101.371 142.081 101.21 142.181 101.03 142.21H96.03C95.846 142.236 95.6591 142.189 95.5095 142.078C95.36 141.968 95.2596 141.803 95.23 141.62C95.22 141.55 95.22 141.48 95.23 141.41V131.86H87.08V141.41C87.1088 141.593 87.064 141.78 86.9553 141.93C86.8466 142.08 86.6829 142.18 86.5 142.21H81.73C81.5476 142.233 81.3632 142.185 81.2159 142.074C81.0685 141.964 80.9696 141.801 80.94 141.62C80.9197 141.551 80.9197 141.479 80.94 141.41V109.7C80.94 104.53 83.72 102.09 88 102.09ZM87.1 109.7V126.42H95.28V109.7C95.28 108.22 94.6 107.54 93.07 107.54H89.23C87.75 107.54 87.08 108.22 87.08 109.7H87.1Z" fill="#666666"/>
<path d="M124.93 136.76C125.098 136.746 125.265 136.797 125.395 136.904C125.526 137.01 125.61 137.163 125.63 137.33C125.64 137.403 125.64 137.477 125.63 137.55L125.12 141.48C125.097 141.697 124.99 141.896 124.822 142.035C124.653 142.173 124.437 142.24 124.22 142.22H108.45C108.266 142.246 108.079 142.199 107.93 142.088C107.78 141.978 107.68 141.814 107.65 141.63C107.64 141.56 107.64 141.49 107.65 141.42V103.22C107.65 102.65 107.93 102.43 108.45 102.43H113.22C113.73 102.43 114.02 102.65 114.02 103.22V136.76H124.93Z" fill="#666666"/>
<path d="M148.63 113.68C148.634 113.788 148.617 113.895 148.579 113.996C148.542 114.097 148.485 114.19 148.411 114.269C148.338 114.348 148.25 114.411 148.152 114.456C148.054 114.501 147.948 114.526 147.84 114.53V114.53L143.28 114.99C143.195 115.009 143.108 115.011 143.022 114.997C142.937 114.982 142.855 114.95 142.781 114.904C142.708 114.858 142.644 114.797 142.594 114.726C142.544 114.655 142.509 114.575 142.49 114.49V114.49C142.48 114.41 142.48 114.33 142.49 114.25V109.7C142.568 109.208 142.449 108.706 142.159 108.301C141.869 107.897 141.431 107.623 140.94 107.54C140.738 107.51 140.532 107.51 140.33 107.54H136.76C136.268 107.462 135.765 107.583 135.362 107.875C134.959 108.168 134.689 108.608 134.61 109.1C134.58 109.299 134.58 109.501 134.61 109.7V134.94C134.532 135.432 134.651 135.934 134.941 136.339C135.231 136.743 135.669 137.017 136.16 137.1C136.359 137.13 136.561 137.13 136.76 137.1H140.35C140.842 137.178 141.344 137.059 141.749 136.769C142.153 136.479 142.427 136.041 142.51 135.55C142.54 135.348 142.54 135.142 142.51 134.94V127.33H139.44C138.92 127.33 138.58 127.04 138.64 126.53L138.98 122.91C139 122.701 139.1 122.508 139.258 122.371C139.416 122.233 139.621 122.161 139.83 122.17H147.83C147.919 122.154 148.011 122.157 148.1 122.177C148.188 122.197 148.272 122.235 148.345 122.288C148.419 122.341 148.481 122.409 148.528 122.486C148.576 122.564 148.607 122.65 148.62 122.74C148.63 122.816 148.63 122.894 148.62 122.97V134.97C148.62 140.14 145.84 142.59 141.62 142.59H135.31C131.04 142.59 128.31 140.14 128.31 134.97V109.7C128.31 104.53 131.09 102.09 135.31 102.09H141.62C145.88 102.09 148.62 104.53 148.62 109.7L148.63 113.68Z" fill="#666666"/>
<path d="M153.86 134.94V109.7C153.86 104.53 156.65 102.09 160.86 102.09H168C172.27 102.09 175 104.53 175 109.7V134.94C175 140.11 172.22 142.56 168 142.56H160.89C156.65 142.56 153.86 140.11 153.86 134.94ZM160.23 109.7V134.94C160.152 135.432 160.271 135.934 160.561 136.339C160.851 136.743 161.289 137.017 161.78 137.1C161.982 137.13 162.188 137.13 162.39 137.1H166.54C167.031 137.178 167.534 137.059 167.938 136.769C168.343 136.479 168.616 136.041 168.7 135.55C168.73 135.348 168.73 135.142 168.7 134.94V109.7C168.778 109.208 168.659 108.706 168.369 108.301C168.079 107.897 167.641 107.623 167.15 107.54C166.948 107.51 166.742 107.51 166.54 107.54H162.39C161.898 107.462 161.396 107.581 160.991 107.871C160.587 108.161 160.313 108.599 160.23 109.09C160.2 109.292 160.2 109.498 160.23 109.7V109.7Z" fill="#666666"/>
<path d="M87.3701 162.69H90.5901V173.05H96.2901V175.81H87.3701V162.69Z" fill="#1A1A1A"/>
<path d="M97.8398 162.69H106.52V165.54H101.05V167.9H106.05V170.69H101.05V173.05H106.76V175.81H97.8398V162.69Z" fill="#1A1A1A"/>
<path d="M114 162.26H114.57L121 175.81H117.53L116.87 174.45H111.69L111.06 175.81H107.61L114 162.26ZM115.79 172.16L114.28 168.84L112.75 172.16H115.79Z" fill="#1A1A1A"/>
<path d="M127.45 162.26C128.475 162.232 129.494 162.422 130.44 162.817C131.387 163.212 132.238 163.802 132.94 164.55L130.71 166.55C129.823 165.725 128.661 165.258 127.45 165.24C126.505 165.392 125.646 165.879 125.029 166.611C124.411 167.343 124.077 168.272 124.087 169.229C124.097 170.187 124.45 171.109 125.081 171.828C125.713 172.548 126.582 173.017 127.53 173.15C129.82 173.15 130.94 171.89 131.03 170.62H127.28V167.9H134.5V169.14C134.5 173.01 132.22 176.24 127.5 176.24C125.643 176.24 123.863 175.502 122.55 174.19C121.238 172.877 120.5 171.097 120.5 169.24C120.5 167.383 121.238 165.603 122.55 164.29C123.863 162.977 125.643 162.24 127.5 162.24L127.45 162.26Z" fill="#1A1A1A"/>
<path d="M136.59 162.69H139.78V170.91C139.78 172.66 140.61 173.27 141.72 173.27C142.83 173.27 143.72 172.67 143.72 170.91V162.69H146.93V171.39C146.93 174.49 144.62 176.24 141.73 176.24C138.84 176.24 136.6 174.41 136.6 171.39L136.59 162.69Z" fill="#1A1A1A"/>
<path d="M149 162.69H157.68V165.54H152.22V167.9H157.22V170.69H152.22V173.05H157.93V175.81H149V162.69Z" fill="#1A1A1A"/>
<path d="M162.55 172C162.547 172.362 162.688 172.71 162.941 172.968C163.194 173.227 163.539 173.375 163.9 173.38C164.051 173.401 164.205 173.392 164.353 173.353C164.5 173.314 164.639 173.246 164.76 173.152C164.881 173.059 164.982 172.943 165.058 172.811C165.133 172.678 165.182 172.532 165.2 172.38C165.205 172.327 165.205 172.273 165.2 172.22C165.2 171.22 163.92 170.95 162.84 170.58C160.64 169.8 159.41 168.77 159.41 166.52C159.442 165.367 159.929 164.274 160.764 163.479C161.6 162.684 162.717 162.253 163.87 162.28C166.78 162.28 168.15 164.13 168.33 166.56H165.33C165.355 166.227 165.247 165.898 165.029 165.645C164.812 165.392 164.503 165.236 164.17 165.21H164C163.836 165.193 163.67 165.21 163.512 165.258C163.354 165.306 163.207 165.384 163.08 165.489C162.952 165.594 162.847 165.724 162.77 165.87C162.693 166.016 162.645 166.176 162.63 166.34C162.626 166.383 162.626 166.427 162.63 166.47C162.63 167.47 163.84 167.63 164.94 167.96C167.29 168.66 168.37 169.96 168.37 172.01C168.341 173.159 167.858 174.25 167.025 175.043C166.193 175.837 165.08 176.267 163.93 176.24C163.384 176.281 162.835 176.214 162.314 176.042C161.794 175.871 161.312 175.599 160.897 175.241C160.482 174.884 160.142 174.448 159.895 173.959C159.648 173.469 159.501 172.936 159.46 172.39C159.46 172.25 159.46 172.1 159.46 171.95L162.55 172Z" fill="#1A1A1A"/>
<path d="M87.3701 162.69H90.5901V173.05H96.2901V175.81H87.3701V162.69Z" fill="#666666"/>
<path d="M97.8398 162.69H106.52V165.54H101.05V167.9H106.05V170.69H101.05V173.05H106.76V175.81H97.8398V162.69Z" fill="#666666"/>
<path d="M114 162.26H114.57L121 175.81H117.53L116.87 174.45H111.69L111.06 175.81H107.61L114 162.26ZM115.79 172.16L114.28 168.84L112.75 172.16H115.79Z" fill="#666666"/>
<path d="M127.45 162.26C128.475 162.232 129.494 162.422 130.44 162.817C131.387 163.212 132.238 163.802 132.94 164.55L130.71 166.55C129.823 165.725 128.661 165.258 127.45 165.24C126.505 165.392 125.646 165.879 125.029 166.611C124.411 167.343 124.077 168.272 124.087 169.229C124.097 170.187 124.45 171.109 125.081 171.828C125.713 172.548 126.582 173.017 127.53 173.15C129.82 173.15 130.94 171.89 131.03 170.62H127.28V167.9H134.5V169.14C134.5 173.01 132.22 176.24 127.5 176.24C125.643 176.24 123.863 175.502 122.55 174.19C121.238 172.877 120.5 171.097 120.5 169.24C120.5 167.383 121.238 165.603 122.55 164.29C123.863 162.977 125.643 162.24 127.5 162.24L127.45 162.26Z" fill="#666666"/>
<path d="M136.59 162.69H139.78V170.91C139.78 172.66 140.61 173.27 141.72 173.27C142.83 173.27 143.72 172.67 143.72 170.91V162.69H146.93V171.39C146.93 174.49 144.62 176.24 141.73 176.24C138.84 176.24 136.6 174.41 136.6 171.39L136.59 162.69Z" fill="#666666"/>
<path d="M149 162.69H157.68V165.54H152.22V167.9H157.22V170.69H152.22V173.05H157.93V175.81H149V162.69Z" fill="#666666"/>
<path d="M162.55 172C162.547 172.362 162.688 172.71 162.941 172.968C163.194 173.227 163.539 173.375 163.9 173.38C164.051 173.401 164.205 173.392 164.353 173.353C164.5 173.314 164.639 173.246 164.76 173.152C164.881 173.059 164.982 172.943 165.058 172.811C165.133 172.678 165.182 172.532 165.2 172.38C165.205 172.327 165.205 172.273 165.2 172.22C165.2 171.22 163.92 170.95 162.84 170.58C160.64 169.8 159.41 168.77 159.41 166.52C159.442 165.367 159.929 164.274 160.764 163.479C161.6 162.684 162.717 162.253 163.87 162.28C166.78 162.28 168.15 164.13 168.33 166.56H165.33C165.355 166.227 165.247 165.898 165.029 165.645C164.812 165.392 164.503 165.236 164.17 165.21H164C163.836 165.193 163.67 165.21 163.512 165.258C163.354 165.306 163.207 165.384 163.08 165.489C162.952 165.594 162.847 165.724 162.77 165.87C162.693 166.016 162.645 166.176 162.63 166.34C162.626 166.383 162.626 166.427 162.63 166.47C162.63 167.47 163.84 167.63 164.94 167.96C167.29 168.66 168.37 169.96 168.37 172.01C168.341 173.159 167.858 174.25 167.025 175.043C166.193 175.837 165.08 176.267 163.93 176.24C163.384 176.281 162.835 176.214 162.314 176.042C161.794 175.871 161.312 175.599 160.897 175.241C160.482 174.884 160.142 174.448 159.895 173.959C159.648 173.469 159.501 172.936 159.46 172.39C159.46 172.25 159.46 172.1 159.46 171.95L162.55 172Z" fill="#666666"/>
<path d="M131.18 83L130.6 84L128.74 87.24L128.26 88.07C128.238 88.1095 128.207 88.1424 128.168 88.1653C128.129 88.1881 128.085 88.2002 128.04 88.2H125.81L126.11 87.65L128.75 83.09L130.38 80.27C130.395 80.2369 130.402 80.2012 130.402 80.165C130.402 80.1289 130.395 80.0931 130.38 80.06C130.14 79.18 129.91 78.3 129.67 77.41C129.6 77.41 129.59 77.5 129.56 77.55L127.17 81.7L125.4 84.7C124.76 85.8 124.12 86.91 123.49 88.02C123.47 88.06 123.438 88.093 123.399 88.1144C123.36 88.1359 123.315 88.1448 123.27 88.14H121.06C121.16 87.95 121.26 87.78 121.36 87.61L124 83.01L126.63 78.44C127.38 77.14 128.14 75.85 128.87 74.56C128.89 74.5145 128.924 74.4769 128.967 74.4533C129.011 74.4297 129.061 74.4215 129.11 74.43H130.88C130.99 74.43 131.03 74.43 131.06 74.56C131.34 75.63 131.63 76.68 131.91 77.75C131.91 77.85 131.99 77.85 132.07 77.85H134.07C133.97 78.0367 133.87 78.2167 133.77 78.39L132.63 80.39C132.61 80.4415 132.61 80.4986 132.63 80.55C133.13 82.39 133.623 84.2267 134.11 86.06C134.3 86.76 134.49 87.46 134.67 88.17H132.67C132.649 88.1744 132.627 88.1744 132.606 88.1702C132.585 88.1659 132.565 88.1575 132.547 88.1454C132.53 88.1332 132.515 88.1177 132.503 88.0996C132.491 88.0815 132.484 88.0612 132.48 88.04C132.24 87.14 132 86.2 131.75 85.28L131.16 83.07C131.169 83.0473 131.175 83.0239 131.18 83V83Z" fill="white"/>
</svg>
