<svg id="svg" version="1.1" xmlns="http://www.w3.org/2000/svg" xmlns:xlink="http://www.w3.org/1999/xlink" width="400" height="400" viewBox="0, 0, 400,400"><g id="svgg"><path id="path0" d="M189.200 11.604 C 187.770 11.756,183.810 12.094,180.400 12.355 C 176.990 12.616,173.030 13.085,171.600 13.397 C 170.170 13.710,168.010 14.076,166.800 14.210 C 165.590 14.345,163.790 14.700,162.800 15.000 C 161.810 15.300,160.190 15.670,159.200 15.823 C 156.543 16.234,147.465 18.623,144.215 19.767 C 143.327 20.080,141.610 20.636,140.400 21.002 C 139.190 21.369,137.075 22.103,135.700 22.634 C 129.690 24.956,127.817 25.704,127.228 26.017 C 126.883 26.200,125.520 26.829,124.200 27.414 C 121.813 28.472,115.145 31.728,114.000 32.395 C 113.670 32.587,111.780 33.663,109.800 34.786 C 100.904 39.830,91.532 46.285,85.400 51.591 C 84.080 52.733,81.740 54.753,80.200 56.079 C 75.030 60.533,69.591 66.088,65.003 71.600 C 64.179 72.590,63.382 73.490,63.231 73.600 C 62.971 73.790,59.620 78.048,57.714 80.610 C 50.375 90.477,40.693 108.134,37.761 117.000 C 37.470 117.880,36.758 119.860,36.179 121.400 C 35.599 122.940,34.892 125.130,34.606 126.268 C 34.321 127.405,33.951 128.556,33.784 128.826 C 33.617 129.096,33.246 130.415,32.959 131.758 C 32.673 133.101,32.153 135.370,31.805 136.800 C 30.426 142.456,29.978 144.737,29.603 148.000 C 29.389 149.870,29.002 152.660,28.743 154.200 C 28.110 157.975,28.111 182.032,28.744 185.800 C 29.004 187.340,29.400 190.220,29.625 192.200 C 29.851 194.180,30.284 196.700,30.589 197.800 C 30.893 198.900,31.269 200.700,31.423 201.800 C 31.578 202.900,31.943 204.430,32.235 205.200 C 32.526 205.970,32.942 207.500,33.158 208.600 C 33.640 211.051,34.804 214.879,36.199 218.600 C 36.777 220.140,37.398 221.940,37.580 222.600 C 38.584 226.245,45.416 240.212,49.710 247.400 C 51.570 250.512,58.469 260.574,59.722 262.000 C 60.205 262.550,61.121 263.720,61.758 264.600 C 62.395 265.480,63.164 266.470,63.466 266.800 C 63.768 267.130,65.041 268.570,66.296 270.000 C 68.953 273.029,78.271 282.382,80.600 284.357 C 81.480 285.104,84.090 287.259,86.400 289.147 C 88.710 291.035,90.690 292.686,90.800 292.815 C 91.045 293.102,98.879 298.610,100.736 299.800 C 101.080 300.020,102.179 300.752,103.180 301.426 C 104.181 302.101,105.585 302.956,106.300 303.326 C 107.582 303.991,108.248 304.362,111.400 306.169 C 113.071 307.127,122.919 312.082,125.000 313.012 C 125.660 313.307,127.550 314.110,129.200 314.798 C 130.850 315.485,132.560 316.209,133.000 316.407 C 133.440 316.605,134.557 316.959,135.483 317.194 C 136.409 317.429,137.262 317.776,137.379 317.966 C 137.496 318.155,138.241 318.431,139.036 318.580 C 139.830 318.729,141.047 319.096,141.740 319.395 C 143.022 319.948,146.205 320.907,151.600 322.367 C 157.357 323.925,159.817 324.501,162.200 324.849 C 163.520 325.042,165.680 325.457,167.000 325.771 C 168.320 326.085,170.570 326.458,172.000 326.599 C 173.430 326.741,176.040 327.103,177.800 327.404 C 179.560 327.705,183.070 328.007,185.600 328.076 L 190.200 328.200 190.400 216.320 C 190.532 142.533,190.736 104.304,191.000 104.041 C 191.266 103.776,216.727 128.925,267.113 179.221 C 308.755 220.790,343.008 254.800,343.231 254.800 C 344.142 254.800,347.588 249.900,350.826 244.000 C 352.902 240.218,359.200 227.317,359.200 226.846 C 359.200 226.599,359.560 225.725,360.000 224.904 C 360.440 224.084,360.800 223.159,360.800 222.850 C 360.800 222.541,361.133 221.548,361.540 220.644 C 362.251 219.066,362.903 217.083,364.712 211.000 C 366.357 205.470,366.782 203.761,367.151 201.200 C 367.358 199.770,367.718 198.107,367.952 197.504 C 368.186 196.902,368.486 195.192,368.619 193.704 C 368.753 192.217,369.163 189.650,369.531 188.000 C 370.519 183.572,370.510 156.428,369.520 152.000 C 369.151 150.350,368.743 147.783,368.613 146.296 C 368.483 144.808,368.186 143.098,367.952 142.496 C 367.718 141.893,367.358 140.230,367.151 138.800 C 366.686 135.576,365.416 130.943,362.820 123.000 C 361.719 119.631,361.294 118.479,359.171 113.100 C 358.715 111.945,358.150 110.460,357.914 109.800 C 357.679 109.140,357.242 108.316,356.943 107.969 C 356.645 107.621,356.400 107.183,356.400 106.995 C 356.400 106.620,353.076 100.054,351.441 97.200 C 350.874 96.210,350.286 95.130,350.135 94.800 C 349.615 93.670,346.337 88.607,342.270 82.655 C 336.901 74.796,326.967 63.679,319.344 57.000 C 314.090 52.396,312.621 51.188,304.575 44.844 C 304.341 44.659,302.991 43.740,301.575 42.800 C 300.159 41.860,298.280 40.598,297.400 39.995 C 296.520 39.392,294.180 37.934,292.200 36.755 C 287.365 33.875,287.396 33.893,284.200 32.224 C 282.660 31.420,281.130 30.601,280.800 30.404 C 279.248 29.476,271.581 26.079,267.600 24.556 C 266.170 24.008,264.230 23.209,263.289 22.780 C 262.348 22.351,261.386 22.000,261.150 22.000 C 260.914 22.000,260.154 21.736,259.460 21.414 C 258.767 21.092,257.480 20.652,256.600 20.437 C 255.720 20.222,254.100 19.757,253.000 19.403 C 247.615 17.675,247.996 17.774,237.000 15.266 C 235.020 14.814,232.500 14.335,231.400 14.201 C 230.300 14.067,228.230 13.699,226.800 13.385 C 225.370 13.071,221.590 12.617,218.400 12.378 C 215.210 12.138,211.160 11.788,209.400 11.600 C 205.661 11.199,192.964 11.202,189.200 11.604 " stroke="none" fill="#fa0404" fill-rule="evenodd"></path><path id="path1" d="M190.778 104.621 C 190.205 106.085,190.487 379.661,191.063 381.110 C 191.396 381.946,193.902 379.546,221.659 351.810 C 254.612 318.883,253.374 319.960,254.651 323.100 C 254.986 323.925,255.607 325.332,256.030 326.226 C 256.454 327.121,256.800 328.134,256.800 328.477 C 256.800 328.821,257.070 329.326,257.400 329.600 C 257.730 329.874,258.000 330.394,258.000 330.755 C 258.000 331.116,258.360 332.084,258.800 332.904 C 259.240 333.725,259.600 334.589,259.600 334.823 C 259.600 335.058,260.068 336.273,260.639 337.525 C 262.552 341.713,262.800 342.318,262.800 342.799 C 262.800 343.062,263.060 343.754,263.377 344.338 C 263.944 345.381,265.066 348.038,266.782 352.400 C 267.258 353.610,267.897 355.140,268.203 355.800 C 270.043 359.778,270.800 361.615,270.800 362.099 C 270.800 362.400,271.064 362.996,271.387 363.424 C 271.710 363.851,271.980 364.436,271.987 364.725 C 271.994 365.013,272.468 366.273,273.039 367.525 C 274.854 371.499,275.200 372.314,275.200 372.617 C 275.200 372.779,275.542 373.652,275.960 374.556 C 276.377 375.460,277.200 377.370,277.788 378.800 C 278.375 380.230,279.011 381.760,279.200 382.200 C 279.389 382.640,280.022 384.170,280.606 385.600 C 281.190 387.030,281.917 388.740,282.223 389.400 C 282.529 390.060,282.956 391.087,283.172 391.681 L 283.566 392.763 285.483 392.118 C 286.537 391.763,287.492 391.335,287.604 391.168 C 287.716 391.000,288.303 390.739,288.908 390.587 C 289.513 390.436,290.108 390.149,290.230 389.951 C 290.353 389.753,291.656 389.047,293.126 388.383 C 294.597 387.718,296.070 387.000,296.400 386.786 C 296.730 386.573,297.450 386.219,298.000 385.999 C 298.550 385.780,299.270 385.422,299.600 385.204 C 299.930 384.986,301.370 384.268,302.800 383.609 C 304.230 382.950,305.670 382.239,306.000 382.028 C 306.330 381.818,307.770 381.089,309.200 380.407 C 310.630 379.726,312.070 378.995,312.400 378.783 C 312.730 378.571,313.450 378.219,314.000 377.999 C 314.550 377.780,315.270 377.432,315.600 377.225 C 316.201 376.850,318.288 375.796,322.400 373.792 C 323.610 373.202,325.050 372.478,325.600 372.182 C 326.150 371.886,326.915 371.550,327.300 371.434 C 328.686 371.020,328.264 369.072,325.561 363.400 C 325.141 362.520,324.798 361.558,324.799 361.262 C 324.800 360.966,324.538 360.246,324.218 359.662 C 323.898 359.078,323.075 357.250,322.388 355.600 C 321.701 353.950,320.883 352.033,320.570 351.340 C 320.256 350.646,320.000 349.896,320.000 349.672 C 320.000 349.448,319.737 348.755,319.416 348.132 C 318.369 346.104,316.800 342.459,316.800 342.057 C 316.800 341.841,316.539 341.155,316.220 340.532 C 315.339 338.815,314.109 335.921,313.783 334.800 C 313.623 334.250,313.246 333.445,312.946 333.011 C 312.646 332.577,312.400 331.981,312.400 331.686 C 312.400 331.392,311.934 330.127,311.365 328.875 C 309.902 325.658,309.403 324.501,308.400 322.000 C 307.915 320.790,307.280 319.260,306.989 318.600 C 306.699 317.940,306.015 316.320,305.469 315.000 C 301.936 306.447,301.103 304.471,300.576 303.400 C 300.252 302.740,299.811 301.120,299.596 299.800 C 299.381 298.480,299.204 297.394,299.202 297.387 C 299.201 297.380,299.695 297.334,300.300 297.285 C 300.905 297.236,302.427 297.010,303.683 296.783 C 305.165 296.516,319.432 296.397,344.391 296.444 C 365.525 296.484,382.937 296.397,383.083 296.250 C 383.473 295.860,338.391 250.504,220.920 133.104 L 191.240 103.442 190.778 104.621 M278.596 209.172 C 333.601 264.153,351.600 282.373,351.600 283.070 L 351.600 283.996 315.944 284.098 C 284.000 284.189,280.246 284.266,279.890 284.830 C 279.503 285.444,280.098 287.174,282.440 292.244 C 282.858 293.148,283.200 294.110,283.200 294.382 C 283.200 294.654,283.458 295.354,283.773 295.938 C 284.735 297.721,286.400 301.527,286.400 301.943 C 286.400 302.159,286.657 302.845,286.971 303.468 C 287.286 304.090,288.015 305.770,288.592 307.200 C 289.169 308.630,289.793 310.083,289.979 310.428 C 290.165 310.774,290.806 312.304,291.404 313.828 C 292.002 315.353,292.812 317.320,293.205 318.200 C 293.598 319.080,294.400 320.970,294.988 322.400 C 295.575 323.830,296.211 325.360,296.400 325.800 C 296.589 326.240,297.219 327.770,297.801 329.200 C 298.382 330.630,299.114 332.310,299.429 332.932 C 299.743 333.555,300.000 334.263,300.000 334.506 C 300.000 334.749,300.340 335.679,300.755 336.574 C 303.016 341.440,303.566 342.725,303.815 343.717 C 303.965 344.317,304.249 344.906,304.444 345.027 C 304.640 345.148,304.800 345.518,304.800 345.848 C 304.800 346.392,305.275 347.524,307.645 352.626 C 308.060 353.521,308.400 354.451,308.400 354.694 C 308.400 354.937,308.648 355.645,308.951 356.268 C 313.235 365.078,313.810 364.009,301.452 370.201 C 290.478 375.700,289.665 375.906,289.021 373.343 C 288.867 372.730,288.395 371.466,287.971 370.536 C 287.547 369.605,287.200 368.699,287.201 368.522 C 287.202 368.345,286.859 367.480,286.439 366.600 C 284.667 362.883,284.000 361.279,284.000 360.736 C 284.000 360.419,283.838 359.989,283.641 359.780 C 283.443 359.571,282.790 358.140,282.189 356.600 C 281.588 355.060,280.669 352.883,280.148 351.761 C 279.627 350.640,279.200 349.530,279.200 349.294 C 279.200 349.058,278.932 348.355,278.605 347.732 C 277.811 346.221,276.400 342.914,276.400 342.566 C 276.400 342.413,276.062 341.548,275.648 340.644 C 275.234 339.740,274.496 338.010,274.007 336.800 C 273.518 335.590,272.872 334.060,272.571 333.400 C 272.107 332.381,270.595 328.714,268.613 323.800 C 268.347 323.140,267.830 321.931,267.465 321.113 C 267.099 320.295,266.800 319.497,266.800 319.339 C 266.800 319.182,266.423 318.231,265.961 317.226 C 264.314 313.639,264.019 312.975,263.215 311.049 C 262.767 309.976,262.400 308.930,262.400 308.724 C 262.400 308.519,261.934 307.327,261.365 306.075 C 260.796 304.824,260.054 303.170,259.715 302.400 C 258.394 299.397,258.152 299.002,257.564 298.888 C 257.204 298.819,246.494 309.233,231.342 324.386 C 210.291 345.438,205.539 350.000,204.664 350.000 L 203.600 350.000 203.600 243.267 C 203.600 184.563,203.728 136.406,203.884 136.250 C 204.039 136.094,204.488 136.019,204.880 136.083 C 205.272 136.147,238.444 169.038,278.596 209.172 M366.701 284.981 C 367.708 286.409,367.913 287.029,367.736 288.119 C 367.597 288.974,367.753 289.936,368.158 290.718 C 369.609 293.525,368.587 295.153,366.393 293.532 L 365.131 292.600 364.401 293.500 C 363.361 294.784,362.484 294.632,362.083 293.100 L 361.743 291.800 361.476 292.852 C 361.114 294.277,358.712 294.991,358.258 293.808 C 358.043 293.246,360.788 287.994,361.884 286.871 C 362.168 286.581,362.400 286.093,362.400 285.788 C 362.400 285.153,364.376 283.200,365.019 283.200 C 365.254 283.200,366.011 284.001,366.701 284.981 " stroke="none" fill="#0f0d0d" fill-rule="evenodd"></path><path id="path2" d="M0.000 200.000 L 0.000 400.000 200.000 400.000 L 400.000 400.000 400.000 200.000 L 400.000 0.000 200.000 0.000 L 0.000 0.000 0.000 200.000 M211.000 10.207 C 224.833 11.455,228.042 11.885,237.972 13.821 C 239.606 14.139,241.496 14.579,242.172 14.797 C 243.353 15.179,245.711 15.802,250.400 16.972 C 251.610 17.274,253.320 17.801,254.200 18.143 C 255.080 18.485,256.165 18.773,256.611 18.782 C 257.057 18.792,257.777 19.042,258.211 19.337 C 258.645 19.632,259.720 20.070,260.600 20.308 C 263.585 21.118,266.198 22.129,270.000 23.943 C 270.990 24.416,271.985 24.802,272.211 24.801 C 272.436 24.800,274.646 25.796,277.122 27.014 C 279.597 28.232,282.022 29.405,282.511 29.621 C 283.350 29.991,284.072 30.381,289.686 33.491 C 290.944 34.188,292.973 35.398,294.194 36.179 C 295.416 36.961,296.592 37.600,296.808 37.600 C 297.023 37.600,297.200 37.747,297.200 37.926 C 297.200 38.105,297.785 38.553,298.500 38.922 C 299.215 39.290,300.992 40.449,302.448 41.496 C 303.905 42.543,305.596 43.760,306.208 44.200 C 307.512 45.139,311.535 48.294,312.400 49.056 C 313.268 49.821,314.908 51.197,316.860 52.800 C 325.334 59.755,335.601 70.851,342.600 80.617 C 343.480 81.845,344.381 83.064,344.603 83.325 C 345.344 84.199,348.800 89.455,348.800 89.709 C 348.800 89.847,349.384 90.824,350.098 91.880 C 350.812 92.936,351.667 94.304,351.998 94.919 C 353.358 97.447,358.374 107.540,359.195 109.400 C 359.680 110.500,360.319 111.940,360.614 112.600 C 360.910 113.260,361.547 114.880,362.031 116.200 C 362.514 117.520,363.245 119.443,363.655 120.474 C 364.065 121.505,364.400 122.558,364.400 122.814 C 364.400 123.070,364.658 123.846,364.974 124.540 C 365.617 125.953,366.636 129.584,367.236 132.600 C 367.455 133.700,367.886 135.410,368.194 136.400 C 369.054 139.161,370.033 144.514,370.608 149.600 C 370.894 152.130,371.324 155.608,371.564 157.329 C 372.205 161.927,372.117 178.699,371.425 183.886 C 371.108 186.259,370.736 189.550,370.597 191.200 C 370.459 192.850,370.162 194.788,369.939 195.507 C 369.716 196.226,369.285 198.206,368.981 199.907 C 368.057 205.081,366.902 209.468,364.742 216.000 C 364.052 218.090,363.228 220.610,362.911 221.600 C 362.595 222.590,362.081 223.878,361.768 224.462 C 361.456 225.046,361.200 225.714,361.200 225.946 C 361.200 226.179,360.559 227.771,359.776 229.485 C 358.993 231.198,357.902 233.590,357.350 234.800 C 356.799 236.010,356.188 237.270,355.993 237.600 C 355.797 237.930,354.980 239.460,354.176 241.000 C 352.481 244.246,352.317 244.538,350.246 248.001 C 348.199 251.425,346.724 253.670,346.063 254.365 C 345.281 255.190,345.801 257.129,347.074 258.130 C 347.667 258.596,348.613 259.499,349.176 260.135 C 350.358 261.471,358.429 269.545,360.598 271.562 C 361.404 272.312,362.340 273.347,362.678 273.862 C 363.016 274.378,363.456 274.800,363.656 274.800 C 363.856 274.800,364.780 275.626,365.710 276.636 C 366.639 277.646,369.712 280.751,372.538 283.536 C 375.364 286.321,378.154 289.122,378.738 289.760 C 379.322 290.398,380.025 291.118,380.299 291.360 C 382.107 292.954,383.200 294.039,383.200 294.239 C 383.200 294.367,383.605 294.804,384.100 295.211 C 384.830 295.810,384.916 296.087,384.556 296.675 C 384.134 297.365,382.186 297.410,344.156 297.600 C 297.870 297.832,299.419 297.681,301.356 301.764 C 301.710 302.510,302.000 303.328,302.000 303.581 C 302.000 303.834,302.343 304.707,302.763 305.521 C 303.978 307.878,305.200 310.655,305.200 311.059 C 305.200 311.264,305.560 312.137,306.000 313.000 C 306.440 313.863,306.800 314.869,306.800 315.236 C 306.800 315.602,307.065 316.122,307.389 316.391 C 307.714 316.660,308.096 317.537,308.240 318.340 C 308.384 319.143,308.735 320.070,309.020 320.400 C 309.304 320.730,309.661 321.495,309.812 322.101 C 309.964 322.706,310.428 323.870,310.844 324.686 C 311.260 325.502,311.600 326.491,311.600 326.885 C 311.600 327.278,311.760 327.600,311.957 327.600 C 312.153 327.600,312.435 328.095,312.584 328.700 C 312.871 329.861,313.966 332.413,315.237 334.879 C 315.657 335.693,316.000 336.573,316.000 336.835 C 316.000 337.098,316.338 338.052,316.752 338.956 C 317.166 339.860,317.902 341.590,318.388 342.800 C 318.874 344.010,319.615 345.666,320.036 346.479 C 320.456 347.293,320.800 348.193,320.799 348.479 C 320.798 348.766,321.141 349.720,321.561 350.600 C 323.170 353.976,324.000 355.902,324.000 356.259 C 324.000 356.464,324.360 357.337,324.800 358.200 C 325.240 359.063,325.600 360.069,325.600 360.436 C 325.600 360.802,325.870 361.326,326.200 361.600 C 326.530 361.874,326.800 362.357,326.800 362.674 C 326.800 363.193,328.279 366.743,329.225 368.495 C 330.329 370.539,329.317 371.967,325.600 373.607 C 324.199 374.225,320.719 375.977,320.000 376.426 C 319.670 376.632,318.950 376.980,318.400 377.199 C 317.850 377.419,317.130 377.769,316.800 377.979 C 316.470 378.188,314.272 379.274,311.916 380.393 C 309.559 381.511,307.524 382.600,307.392 382.813 C 307.260 383.026,306.724 383.200,306.200 383.200 C 305.676 383.200,305.137 383.378,305.003 383.595 C 304.869 383.812,303.463 384.629,301.880 385.410 C 300.296 386.192,298.730 386.995,298.400 387.194 C 298.070 387.393,295.214 388.822,292.053 390.368 C 288.892 391.915,286.068 393.378,285.777 393.619 C 284.837 394.399,283.113 393.888,282.336 392.600 C 281.461 391.150,280.800 389.679,280.800 389.184 C 280.800 388.983,280.441 388.230,280.001 387.510 C 279.562 386.789,279.202 385.923,279.201 385.585 C 279.201 385.246,278.840 384.263,278.400 383.400 C 277.960 382.537,277.600 381.531,277.600 381.164 C 277.600 380.798,277.342 380.283,277.026 380.021 C 276.710 379.759,276.327 378.972,276.175 378.272 C 276.022 377.573,275.651 376.645,275.349 376.211 C 275.047 375.777,274.800 375.181,274.800 374.886 C 274.800 374.592,274.334 373.327,273.765 372.075 C 272.327 368.912,271.816 367.731,270.793 365.200 C 270.304 363.990,269.566 362.260,269.152 361.356 C 268.738 360.452,268.400 359.511,268.400 359.266 C 268.400 359.020,268.041 358.230,267.601 357.510 C 267.162 356.789,266.802 355.817,266.801 355.349 C 266.801 354.881,266.535 354.278,266.211 354.009 C 265.886 353.740,265.504 352.863,265.360 352.060 C 265.216 351.257,264.865 350.330,264.580 350.000 C 264.296 349.670,263.934 348.860,263.777 348.200 C 263.621 347.540,263.262 346.730,262.980 346.400 C 262.698 346.070,262.344 345.131,262.192 344.314 C 262.040 343.497,261.665 342.620,261.358 342.365 C 261.051 342.110,260.800 341.606,260.800 341.245 C 260.800 340.884,260.465 339.961,260.056 339.194 C 259.647 338.427,259.180 337.350,259.019 336.800 C 258.682 335.650,257.403 332.693,256.569 331.138 C 256.256 330.554,255.994 329.834,255.987 329.538 C 255.981 329.242,255.532 328.100,254.991 327.000 C 254.450 325.900,254.006 324.803,254.004 324.562 C 254.002 324.321,253.647 323.805,253.216 323.414 C 252.450 322.722,251.703 323.433,222.183 352.952 C 204.384 370.751,191.636 383.200,191.210 383.200 C 190.014 383.200,190.000 382.877,190.000 356.191 C 190.000 340.147,189.855 330.358,189.615 330.210 C 189.404 330.079,186.980 329.812,184.228 329.617 C 181.476 329.422,179.079 329.172,178.900 329.062 C 178.722 328.952,176.473 328.666,173.903 328.426 C 171.333 328.187,168.794 327.826,168.262 327.624 C 167.730 327.421,165.913 327.064,164.225 326.829 C 162.537 326.594,160.311 326.152,159.278 325.846 C 158.245 325.540,156.500 325.099,155.400 324.866 C 150.022 323.727,146.818 322.838,142.800 321.370 C 142.030 321.088,140.860 320.749,140.200 320.615 C 139.540 320.482,138.460 320.126,137.800 319.826 C 137.140 319.525,134.620 318.517,132.200 317.586 C 129.780 316.654,126.810 315.446,125.600 314.900 C 118.925 311.888,117.344 311.155,116.800 310.818 C 116.470 310.613,114.490 309.563,112.400 308.484 C 110.310 307.405,107.933 306.090,107.119 305.561 C 106.304 305.033,103.905 303.520,101.787 302.200 C 99.669 300.880,97.064 299.170,95.998 298.400 C 94.933 297.630,93.667 296.730,93.185 296.400 C 92.224 295.742,89.662 293.827,88.950 293.236 C 88.702 293.030,86.992 291.642,85.150 290.151 C 81.489 287.190,80.254 286.097,75.476 281.600 C 70.295 276.724,61.971 267.837,60.719 265.846 C 60.565 265.601,60.159 265.040,59.817 264.600 C 55.452 258.979,54.400 257.579,54.400 257.389 C 54.400 257.266,53.680 256.191,52.800 255.000 C 51.920 253.809,51.200 252.735,51.200 252.613 C 51.200 252.491,50.615 251.530,49.900 250.476 C 48.058 247.762,47.741 247.247,46.525 245.000 C 45.930 243.900,45.138 242.460,44.766 241.800 C 43.923 240.305,41.475 235.380,39.996 232.200 C 37.529 226.900,37.200 226.127,37.200 225.635 C 37.200 225.354,36.952 224.646,36.649 224.062 C 35.848 222.518,34.625 219.111,33.398 215.000 C 32.806 213.020,32.093 210.770,31.814 210.000 C 31.534 209.230,31.173 207.700,31.013 206.600 C 30.852 205.500,30.541 204.264,30.321 203.853 C 30.101 203.442,29.689 201.642,29.404 199.853 C 29.120 198.064,28.700 195.610,28.470 194.400 C 25.879 180.724,25.879 159.235,28.472 145.600 C 28.702 144.390,29.114 142.050,29.388 140.400 C 29.997 136.737,31.723 130.064,33.270 125.400 C 33.489 124.740,33.909 123.335,34.204 122.277 C 34.498 121.220,34.912 120.140,35.124 119.877 C 35.335 119.615,35.636 118.770,35.793 118.000 C 35.950 117.230,36.331 116.201,36.639 115.714 C 36.948 115.227,37.200 114.617,37.200 114.358 C 37.200 114.099,37.584 113.058,38.053 112.044 C 38.522 111.030,39.311 109.300,39.806 108.200 C 42.154 102.977,46.544 94.554,47.432 93.569 C 47.744 93.221,48.000 92.834,48.000 92.709 C 48.000 91.738,59.072 75.766,61.569 73.135 C 61.916 72.769,62.919 71.599,63.798 70.535 C 67.056 66.590,78.472 55.043,79.915 54.233 C 80.275 54.031,81.181 53.311,81.929 52.633 C 83.492 51.216,85.219 49.716,85.800 49.271 C 86.020 49.102,87.280 48.116,88.600 47.079 C 89.920 46.043,91.360 44.934,91.800 44.614 C 92.240 44.295,93.140 43.612,93.800 43.095 C 94.460 42.579,96.620 41.107,98.600 39.824 C 100.580 38.542,102.840 37.066,103.622 36.546 C 104.403 36.026,105.159 35.600,105.301 35.600 C 105.444 35.600,106.334 35.080,107.280 34.445 C 108.226 33.810,110.260 32.634,111.800 31.831 C 113.340 31.028,114.870 30.212,115.200 30.016 C 117.095 28.893,125.897 24.796,126.411 24.798 C 126.747 24.799,127.396 24.538,127.853 24.218 C 128.310 23.898,129.475 23.340,130.442 22.979 C 135.443 21.109,141.205 19.083,142.818 18.628 C 143.819 18.346,144.993 17.925,145.427 17.692 C 145.862 17.460,147.114 17.084,148.209 16.858 C 150.497 16.384,152.724 15.808,156.367 14.748 C 157.779 14.336,159.322 14.000,159.794 14.000 C 160.267 14.000,161.992 13.644,163.627 13.209 C 165.262 12.775,167.417 12.415,168.416 12.409 C 169.415 12.404,171.247 12.136,172.488 11.812 C 173.728 11.489,177.501 11.030,180.872 10.793 C 184.242 10.555,188.260 10.213,189.800 10.033 C 194.492 9.484,203.830 9.561,211.000 10.207 M205.045 138.227 C 204.669 139.208,204.754 347.925,205.131 348.157 C 205.313 348.270,217.090 336.744,231.302 322.545 L 257.142 296.728 258.248 297.264 C 258.984 297.621,259.473 298.268,259.711 299.200 C 259.907 299.970,260.323 300.884,260.634 301.231 C 260.945 301.579,261.206 302.119,261.214 302.431 C 261.221 302.744,261.575 303.720,262.000 304.600 C 262.425 305.480,262.779 306.481,262.786 306.824 C 262.794 307.166,263.067 307.796,263.394 308.224 C 263.720 308.651,264.184 309.702,264.425 310.560 C 264.666 311.418,265.119 312.376,265.432 312.689 C 265.744 313.001,266.000 313.599,266.000 314.018 C 266.000 314.436,266.381 315.638,266.848 316.689 C 268.997 321.535,269.344 322.292,270.049 323.679 C 270.462 324.493,270.800 325.438,270.800 325.781 C 270.800 326.123,271.160 327.075,271.600 327.896 C 272.040 328.716,272.400 329.684,272.400 330.045 C 272.400 330.406,272.650 330.910,272.956 331.163 C 273.261 331.417,273.711 332.418,273.955 333.388 C 274.200 334.359,274.580 335.264,274.800 335.400 C 275.020 335.536,275.206 335.952,275.213 336.324 C 275.219 336.696,275.668 337.900,276.209 339.000 C 276.750 340.100,277.194 341.293,277.196 341.651 C 277.198 342.009,277.470 342.526,277.800 342.800 C 278.130 343.074,278.400 343.594,278.400 343.955 C 278.400 344.316,278.760 345.284,279.200 346.104 C 279.640 346.925,280.000 347.803,280.000 348.055 C 280.000 348.533,281.136 351.154,282.437 353.679 C 282.857 354.493,283.200 355.447,283.200 355.800 C 283.200 356.153,283.544 357.107,283.964 357.921 C 284.385 358.734,285.126 360.390,285.612 361.600 C 286.098 362.810,286.834 364.540,287.248 365.444 C 287.662 366.348,288.000 367.372,288.000 367.720 C 288.000 368.068,288.163 368.454,288.363 368.577 C 288.562 368.700,289.011 369.641,289.361 370.667 C 290.520 374.068,291.157 374.287,294.400 372.400 C 294.730 372.208,295.990 371.578,297.200 371.000 C 298.410 370.422,299.670 369.789,300.000 369.592 C 301.742 368.552,305.391 366.800,305.815 366.800 C 306.083 366.800,306.517 366.542,306.779 366.226 C 307.041 365.910,307.789 365.534,308.441 365.391 C 310.584 364.920,311.351 362.082,309.625 361.015 C 309.391 360.871,309.200 360.446,309.200 360.070 C 309.200 359.695,308.840 358.716,308.400 357.896 C 307.960 357.075,307.600 356.211,307.600 355.977 C 307.600 355.533,305.969 351.784,304.973 349.938 C 304.658 349.354,304.400 348.654,304.400 348.382 C 304.400 347.871,303.297 345.309,301.963 342.721 C 301.543 341.907,301.200 341.000,301.200 340.705 C 301.200 340.410,300.840 339.463,300.400 338.600 C 299.960 337.737,299.600 336.731,299.600 336.364 C 299.600 335.998,299.342 335.483,299.026 335.221 C 298.710 334.959,298.329 334.172,298.180 333.472 C 298.030 332.773,297.769 332.020,297.599 331.800 C 297.110 331.165,294.800 325.199,294.800 324.570 C 294.800 324.256,294.627 324.000,294.416 324.000 C 294.205 324.000,293.814 323.235,293.547 322.300 C 293.280 321.365,292.843 320.330,292.576 320.000 C 292.308 319.670,291.957 318.780,291.796 318.023 C 291.634 317.265,291.254 316.397,290.951 316.094 C 290.648 315.791,290.400 315.260,290.400 314.915 C 290.400 314.570,290.040 313.503,289.600 312.544 C 289.160 311.585,288.440 310.015,288.000 309.056 C 287.560 308.097,287.200 307.098,287.200 306.835 C 287.200 306.573,286.857 305.693,286.437 304.879 C 285.136 302.354,284.000 299.733,284.000 299.255 C 284.000 299.003,283.640 298.125,283.200 297.304 C 282.760 296.484,282.400 295.516,282.400 295.155 C 282.400 294.794,282.142 294.283,281.826 294.021 C 281.510 293.759,281.139 293.035,281.003 292.411 C 280.866 291.788,280.404 290.592,279.977 289.754 C 279.550 288.916,279.200 287.931,279.200 287.564 C 279.200 287.198,278.930 286.674,278.600 286.400 C 277.881 285.803,277.809 283.951,278.480 283.280 C 278.846 282.914,287.337 282.800,314.256 282.800 C 333.669 282.800,349.645 282.651,349.757 282.469 C 349.869 282.288,317.410 249.615,277.626 209.864 C 224.747 157.030,205.224 137.761,205.045 138.227 M364.400 285.400 C 364.400 285.730,364.580 286.000,364.800 286.000 C 365.020 286.000,365.200 285.730,365.200 285.400 C 365.200 285.070,365.020 284.800,364.800 284.800 C 364.580 284.800,364.400 285.070,364.400 285.400 M366.000 287.720 C 366.000 288.446,365.800 289.240,365.555 289.485 C 365.021 290.019,365.419 290.800,366.224 290.800 C 366.656 290.800,366.800 290.249,366.800 288.600 C 366.800 287.390,366.620 286.400,366.400 286.400 C 366.180 286.400,366.000 286.994,366.000 287.720 " stroke="none" fill="#fbfbfb" fill-rule="evenodd"></path><path id="path3" d="M189.800 10.033 C 188.260 10.213,184.242 10.555,180.872 10.793 C 177.501 11.030,173.728 11.489,172.488 11.812 C 171.247 12.136,169.415 12.404,168.416 12.409 C 167.417 12.415,165.262 12.775,163.627 13.209 C 161.992 13.644,160.267 14.000,159.794 14.000 C 159.322 14.000,157.779 14.336,156.367 14.748 C 152.724 15.808,150.497 16.384,148.209 16.858 C 147.114 17.084,145.862 17.460,145.427 17.692 C 144.993 17.925,143.819 18.346,142.818 18.628 C 141.205 19.083,135.443 21.109,130.442 22.979 C 129.475 23.340,128.310 23.898,127.853 24.218 C 127.396 24.538,126.747 24.799,126.411 24.798 C 125.897 24.796,117.095 28.893,115.200 30.016 C 114.870 30.212,113.340 31.028,111.800 31.831 C 110.260 32.634,108.226 33.810,107.280 34.445 C 106.334 35.080,105.444 35.600,105.301 35.600 C 105.159 35.600,104.403 36.026,103.622 36.546 C 102.840 37.066,100.580 38.542,98.600 39.824 C 96.620 41.107,94.460 42.579,93.800 43.095 C 93.140 43.612,92.240 44.295,91.800 44.614 C 91.360 44.934,89.920 46.043,88.600 47.079 C 87.280 48.116,86.020 49.102,85.800 49.271 C 85.219 49.716,83.492 51.216,81.929 52.633 C 81.181 53.311,80.275 54.031,79.915 54.233 C 78.472 55.043,67.056 66.590,63.798 70.535 C 62.919 71.599,61.916 72.769,61.569 73.135 C 59.072 75.766,48.000 91.738,48.000 92.709 C 48.000 92.834,47.744 93.221,47.432 93.569 C 46.544 94.554,42.154 102.977,39.806 108.200 C 39.311 109.300,38.522 111.030,38.053 112.044 C 37.584 113.058,37.200 114.099,37.200 114.358 C 37.200 114.617,36.948 115.227,36.639 115.714 C 36.331 116.201,35.950 117.230,35.793 118.000 C 35.636 118.770,35.335 119.615,35.124 119.877 C 34.912 120.140,34.498 121.220,34.204 122.277 C 33.909 123.335,33.489 124.740,33.270 125.400 C 31.723 130.064,29.997 136.737,29.388 140.400 C 29.114 142.050,28.702 144.390,28.472 145.600 C 25.879 159.235,25.879 180.724,28.470 194.400 C 28.700 195.610,29.120 198.064,29.404 199.853 C 29.689 201.642,30.101 203.442,30.321 203.853 C 30.541 204.264,30.852 205.500,31.013 206.600 C 31.173 207.700,31.534 209.230,31.814 210.000 C 32.093 210.770,32.806 213.020,33.398 215.000 C 34.625 219.111,35.848 222.518,36.649 224.062 C 36.952 224.646,37.200 225.354,37.200 225.635 C 37.200 226.127,37.529 226.900,39.996 232.200 C 41.475 235.380,43.923 240.305,44.766 241.800 C 45.138 242.460,45.930 243.900,46.525 245.000 C 47.741 247.247,48.058 247.762,49.900 250.476 C 50.615 251.530,51.200 252.491,51.200 252.613 C 51.200 252.735,51.920 253.809,52.800 255.000 C 53.680 256.191,54.400 257.266,54.400 257.389 C 54.400 257.579,55.452 258.979,59.817 264.600 C 60.159 265.040,60.565 265.601,60.719 265.846 C 61.971 267.837,70.295 276.724,75.476 281.600 C 80.254 286.097,81.489 287.190,85.150 290.151 C 86.992 291.642,88.702 293.030,88.950 293.236 C 89.662 293.827,92.224 295.742,93.185 296.400 C 93.667 296.730,94.933 297.630,95.998 298.400 C 97.064 299.170,99.669 300.880,101.787 302.200 C 103.905 303.520,106.304 305.033,107.119 305.561 C 107.933 306.090,110.310 307.405,112.400 308.484 C 114.490 309.563,116.470 310.613,116.800 310.818 C 117.344 311.155,118.925 311.888,125.600 314.900 C 126.810 315.446,129.780 316.654,132.200 317.586 C 134.620 318.517,137.140 319.525,137.800 319.826 C 138.460 320.126,139.540 320.482,140.200 320.615 C 140.860 320.749,142.030 321.088,142.800 321.370 C 146.818 322.838,150.022 323.727,155.400 324.866 C 156.500 325.099,158.245 325.540,159.278 325.846 C 160.311 326.152,162.537 326.594,164.225 326.829 C 165.913 327.064,167.730 327.421,168.262 327.624 C 168.794 327.826,171.333 328.187,173.903 328.426 C 176.473 328.666,178.722 328.952,178.900 329.062 C 179.079 329.172,181.476 329.422,184.228 329.617 C 186.980 329.812,189.404 330.079,189.615 330.210 C 189.855 330.358,190.000 340.147,190.000 356.191 C 190.000 382.877,190.014 383.200,191.210 383.200 C 191.636 383.200,204.384 370.751,222.183 352.952 C 251.703 323.433,252.450 322.722,253.216 323.414 C 253.647 323.805,254.002 324.321,254.004 324.562 C 254.006 324.803,254.450 325.900,254.991 327.000 C 255.532 328.100,255.981 329.242,255.987 329.538 C 255.994 329.834,256.256 330.554,256.569 331.138 C 257.403 332.693,258.682 335.650,259.019 336.800 C 259.180 337.350,259.647 338.427,260.056 339.194 C 260.465 339.961,260.800 340.884,260.800 341.245 C 260.800 341.606,261.051 342.110,261.358 342.365 C 261.665 342.620,262.040 343.497,262.192 344.314 C 262.344 345.131,262.698 346.070,262.980 346.400 C 263.262 346.730,263.621 347.540,263.777 348.200 C 263.934 348.860,264.296 349.670,264.580 350.000 C 264.865 350.330,265.216 351.257,265.360 352.060 C 265.504 352.863,265.886 353.740,266.211 354.009 C 266.535 354.278,266.801 354.881,266.801 355.349 C 266.802 355.817,267.162 356.789,267.601 357.510 C 268.041 358.230,268.400 359.020,268.400 359.266 C 268.400 359.511,268.738 360.452,269.152 361.356 C 269.566 362.260,270.304 363.990,270.793 365.200 C 271.816 367.731,272.327 368.912,273.765 372.075 C 274.334 373.327,274.800 374.592,274.800 374.886 C 274.800 375.181,275.047 375.777,275.349 376.211 C 275.651 376.645,276.022 377.573,276.175 378.272 C 276.327 378.972,276.710 379.759,277.026 380.021 C 277.342 380.283,277.600 380.798,277.600 381.164 C 277.600 381.531,277.960 382.537,278.400 383.400 C 278.840 384.263,279.201 385.246,279.201 385.585 C 279.202 385.923,279.562 386.789,280.001 387.510 C 280.441 388.230,280.800 388.983,280.800 389.184 C 280.800 389.679,281.461 391.150,282.336 392.600 C 283.113 393.888,284.837 394.399,285.777 393.619 C 286.068 393.378,288.892 391.915,292.053 390.368 C 295.214 388.822,298.070 387.393,298.400 387.194 C 298.730 386.995,300.296 386.192,301.880 385.410 C 303.463 384.629,304.869 383.812,305.003 383.595 C 305.137 383.378,305.676 383.200,306.200 383.200 C 306.724 383.200,307.260 383.026,307.392 382.813 C 307.524 382.600,309.559 381.511,311.916 380.393 C 314.272 379.274,316.470 378.188,316.800 377.979 C 317.130 377.769,317.850 377.419,318.400 377.199 C 318.950 376.980,319.670 376.632,320.000 376.426 C 320.719 375.977,324.199 374.225,325.600 373.607 C 329.317 371.967,330.329 370.539,329.225 368.495 C 328.279 366.743,326.800 363.193,326.800 362.674 C 326.800 362.357,326.530 361.874,326.200 361.600 C 325.870 361.326,325.600 360.802,325.600 360.436 C 325.600 360.069,325.240 359.063,324.800 358.200 C 324.360 357.337,324.000 356.464,324.000 356.259 C 324.000 355.902,323.170 353.976,321.561 350.600 C 321.141 349.720,320.798 348.766,320.799 348.479 C 320.800 348.193,320.456 347.293,320.036 346.479 C 319.615 345.666,318.874 344.010,318.388 342.800 C 317.902 341.590,317.166 339.860,316.752 338.956 C 316.338 338.052,316.000 337.098,316.000 336.835 C 316.000 336.573,315.657 335.693,315.237 334.879 C 313.966 332.413,312.871 329.861,312.584 328.700 C 312.435 328.095,312.153 327.600,311.957 327.600 C 311.760 327.600,311.600 327.278,311.600 326.885 C 311.600 326.491,311.260 325.502,310.844 324.686 C 310.428 323.870,309.964 322.706,309.812 322.101 C 309.661 321.495,309.304 320.730,309.020 320.400 C 308.735 320.070,308.384 319.143,308.240 318.340 C 308.096 317.537,307.714 316.660,307.389 316.391 C 307.065 316.122,306.800 315.602,306.800 315.236 C 306.800 314.869,306.440 313.863,306.000 313.000 C 305.560 312.137,305.200 311.264,305.200 311.059 C 305.200 310.655,303.978 307.878,302.763 305.521 C 302.343 304.707,302.000 303.834,302.000 303.581 C 302.000 303.328,301.710 302.510,301.356 301.764 C 299.419 297.681,297.870 297.832,344.156 297.600 C 382.186 297.410,384.134 297.365,384.556 296.675 C 384.916 296.087,384.830 295.810,384.100 295.211 C 383.605 294.804,383.200 294.367,383.200 294.239 C 383.200 294.039,382.107 292.954,380.299 291.360 C 380.025 291.118,379.322 290.398,378.738 289.760 C 378.154 289.122,375.364 286.321,372.538 283.536 C 369.712 280.751,366.639 277.646,365.710 276.636 C 364.780 275.626,363.856 274.800,363.656 274.800 C 363.456 274.800,363.016 274.378,362.678 273.862 C 362.340 273.347,361.404 272.312,360.598 271.562 C 358.429 269.545,350.358 261.471,349.176 260.135 C 348.613 259.499,347.667 258.596,347.074 258.130 C 345.801 257.129,345.281 255.190,346.063 254.365 C 346.724 253.670,348.199 251.425,350.246 248.001 C 352.317 244.538,352.481 244.246,354.176 241.000 C 354.980 239.460,355.797 237.930,355.993 237.600 C 356.188 237.270,356.799 236.010,357.350 234.800 C 357.902 233.590,358.993 231.198,359.776 229.485 C 360.559 227.771,361.200 226.179,361.200 225.946 C 361.200 225.714,361.456 225.046,361.768 224.462 C 362.081 223.878,362.595 222.590,362.911 221.600 C 363.228 220.610,364.052 218.090,364.742 216.000 C 366.902 209.468,368.057 205.081,368.981 199.907 C 369.285 198.206,369.716 196.226,369.939 195.507 C 370.162 194.788,370.459 192.850,370.597 191.200 C 370.736 189.550,371.108 186.259,371.425 183.886 C 372.117 178.699,372.205 161.927,371.564 157.329 C 371.324 155.608,370.894 152.130,370.608 149.600 C 370.033 144.514,369.054 139.161,368.194 136.400 C 367.886 135.410,367.455 133.700,367.236 132.600 C 366.636 129.584,365.617 125.953,364.974 124.540 C 364.658 123.846,364.400 123.070,364.400 122.814 C 364.400 122.558,364.065 121.505,363.655 120.474 C 363.245 119.443,362.514 117.520,362.031 116.200 C 361.547 114.880,360.910 113.260,360.614 112.600 C 360.319 111.940,359.680 110.500,359.195 109.400 C 358.374 107.540,353.358 97.447,351.998 94.919 C 351.667 94.304,350.812 92.936,350.098 91.880 C 349.384 90.824,348.800 89.847,348.800 89.709 C 348.800 89.455,345.344 84.199,344.603 83.325 C 344.381 83.064,343.480 81.845,342.600 80.617 C 335.601 70.851,325.334 59.755,316.860 52.800 C 314.908 51.197,313.268 49.821,312.400 49.056 C 311.535 48.294,307.512 45.139,306.208 44.200 C 305.596 43.760,303.905 42.543,302.448 41.496 C 300.992 40.449,299.215 39.290,298.500 38.922 C 297.785 38.553,297.200 38.105,297.200 37.926 C 297.200 37.747,297.023 37.600,296.808 37.600 C 296.592 37.600,295.416 36.961,294.194 36.179 C 292.973 35.398,290.944 34.188,289.686 33.491 C 284.072 30.381,283.350 29.991,282.511 29.621 C 282.022 29.405,279.597 28.232,277.122 27.014 C 274.646 25.796,272.436 24.800,272.211 24.801 C 271.985 24.802,270.990 24.416,270.000 23.943 C 266.198 22.129,263.585 21.118,260.600 20.308 C 259.720 20.070,258.645 19.632,258.211 19.337 C 257.777 19.042,257.057 18.792,256.611 18.782 C 256.165 18.773,255.080 18.485,254.200 18.143 C 253.320 17.801,251.610 17.274,250.400 16.972 C 245.711 15.802,243.353 15.179,242.172 14.797 C 241.021 14.425,237.961 13.785,232.800 12.837 C 219.219 10.342,198.630 8.999,189.800 10.033 M220.600 11.729 C 222.580 12.075,225.730 12.545,227.600 12.774 C 232.510 13.377,237.542 14.422,248.000 17.013 C 252.877 18.221,265.322 22.554,269.860 24.625 C 270.554 24.941,271.232 25.200,271.369 25.200 C 271.607 25.200,276.192 27.323,280.800 29.568 C 301.887 39.837,323.359 57.181,338.037 75.800 C 342.362 81.285,342.097 80.921,345.765 86.440 C 347.286 88.728,348.861 91.088,349.265 91.684 C 349.669 92.280,350.000 92.882,350.000 93.022 C 350.000 93.162,350.366 93.791,350.814 94.419 C 351.970 96.043,357.671 107.300,358.911 110.407 C 359.483 111.841,360.231 113.551,360.573 114.207 C 360.915 114.863,361.196 115.685,361.198 116.033 C 361.199 116.382,361.333 116.799,361.495 116.962 C 362.354 117.820,366.077 130.158,367.724 137.600 C 370.246 148.998,371.302 158.530,371.312 170.000 C 371.318 177.453,370.375 189.320,369.356 194.600 C 366.689 208.427,363.916 217.773,359.090 229.200 C 357.178 233.729,352.098 243.777,350.798 245.603 C 350.359 246.219,350.000 246.823,350.000 246.944 C 350.000 247.065,348.815 248.990,347.367 251.222 C 345.485 254.122,344.796 255.525,344.954 256.140 C 345.075 256.613,353.909 265.730,364.586 276.400 C 375.262 287.070,383.998 296.004,383.999 296.253 C 384.001 297.138,381.780 297.189,342.854 297.195 L 303.509 297.200 301.959 298.071 C 299.628 299.381,299.718 301.084,302.379 306.028 C 302.565 306.374,303.208 307.904,303.807 309.428 C 305.107 312.733,305.588 313.870,306.961 316.875 C 307.532 318.127,308.000 319.269,308.000 319.415 C 308.000 319.560,308.254 320.246,308.565 320.940 C 308.876 321.633,309.609 323.370,310.194 324.800 C 310.779 326.230,311.514 327.910,311.829 328.532 C 312.143 329.155,312.401 329.875,312.402 330.132 C 312.404 330.390,312.689 331.140,313.037 331.800 C 313.384 332.460,313.990 333.810,314.384 334.800 C 314.777 335.790,316.127 339.030,317.384 342.000 C 318.641 344.970,320.206 348.750,320.862 350.400 C 321.517 352.050,322.381 354.120,322.781 355.000 C 323.182 355.880,323.998 357.847,324.596 359.372 C 325.194 360.896,325.837 362.426,326.026 362.772 C 327.252 365.020,328.829 369.414,328.724 370.293 C 328.610 371.254,318.895 376.498,304.439 383.400 C 303.978 383.620,299.413 385.898,294.293 388.461 C 289.173 391.025,284.641 393.185,284.221 393.261 C 283.429 393.405,281.173 388.992,278.580 382.228 C 277.995 380.704,277.365 379.174,277.179 378.828 C 276.829 378.178,275.523 375.027,274.018 371.200 C 273.542 369.990,272.895 368.460,272.580 367.800 C 271.987 366.556,268.813 358.832,266.745 353.600 C 266.093 351.950,265.313 350.060,265.010 349.400 C 264.708 348.740,264.017 347.120,263.475 345.800 C 261.353 340.632,260.329 338.167,259.986 337.400 C 259.541 336.404,256.757 329.633,255.094 325.503 C 253.101 320.553,256.069 318.156,221.866 352.351 C 200.973 373.238,191.295 382.655,191.012 382.372 C 190.740 382.100,190.563 373.141,190.492 355.990 C 190.389 331.550,190.341 329.997,189.670 329.638 C 189.278 329.428,186.717 329.046,183.979 328.789 C 175.025 327.949,173.052 327.716,169.000 327.023 C 166.800 326.647,163.571 325.993,161.824 325.569 C 160.077 325.146,158.293 324.800,157.859 324.800 C 157.425 324.800,156.154 324.535,155.035 324.211 C 153.916 323.888,151.650 323.240,150.000 322.772 C 141.895 320.474,133.684 317.631,127.800 315.085 C 123.535 313.240,118.343 310.860,117.600 310.409 C 117.270 310.209,115.505 309.291,113.677 308.369 C 111.849 307.447,109.776 306.312,109.071 305.846 C 108.365 305.381,106.980 304.561,105.994 304.023 C 104.444 303.180,95.429 297.163,91.200 294.150 C 89.705 293.085,85.934 289.940,79.425 284.331 C 70.191 276.374,55.992 259.852,51.422 251.747 C 51.067 251.116,50.466 250.119,50.088 249.532 C 46.160 243.430,39.656 230.520,37.363 224.270 C 35.633 219.558,33.227 212.237,32.475 209.400 C 30.633 202.449,30.355 201.192,29.381 195.400 C 26.128 176.048,26.565 156.725,30.680 138.000 C 32.192 131.123,34.018 124.831,36.195 119.000 C 36.770 117.460,37.392 115.750,37.579 115.200 C 38.276 113.139,43.561 101.717,44.796 99.600 C 44.989 99.270,46.103 97.328,47.273 95.285 C 48.443 93.242,49.580 91.262,49.800 90.884 C 54.195 83.336,60.978 74.586,69.987 64.843 C 74.977 59.446,82.179 52.955,89.562 47.200 C 93.160 44.395,102.259 38.087,103.600 37.469 C 103.930 37.316,105.460 36.397,107.000 35.426 C 110.465 33.241,124.807 26.036,128.600 24.575 C 130.140 23.982,132.120 23.178,133.000 22.788 C 133.880 22.399,137.210 21.231,140.400 20.193 C 143.590 19.154,146.560 18.154,147.000 17.970 C 149.445 16.945,164.799 13.553,170.400 12.800 C 172.050 12.578,174.840 12.187,176.600 11.930 C 185.188 10.679,213.826 10.548,220.600 11.729 M204.900 137.088 C 204.142 137.359,204.167 349.025,204.925 349.316 C 205.236 349.435,215.905 339.061,231.207 323.759 C 245.374 309.591,257.266 298.000,257.634 298.000 C 258.538 298.000,258.821 298.454,260.383 302.400 C 261.122 304.270,261.879 305.971,262.064 306.180 C 262.249 306.389,262.401 306.839,262.402 307.180 C 262.404 307.521,262.685 308.337,263.027 308.993 C 263.369 309.649,264.111 311.359,264.676 312.793 C 265.241 314.227,266.040 316.155,266.452 317.078 C 266.863 318.001,267.200 318.867,267.200 319.003 C 267.200 319.302,269.032 323.388,269.827 324.862 C 270.142 325.446,270.400 326.138,270.400 326.401 C 270.400 326.664,270.656 327.446,270.970 328.140 C 271.283 328.833,272.106 330.750,272.800 332.400 C 273.494 334.050,274.317 335.967,274.630 336.660 C 274.944 337.354,275.200 338.046,275.200 338.200 C 275.200 338.354,275.459 339.046,275.777 339.740 C 276.094 340.433,277.096 342.800,278.004 345.000 C 280.459 350.947,281.595 353.616,282.440 355.426 C 282.858 356.321,283.200 357.251,283.200 357.494 C 283.200 357.737,283.457 358.445,283.771 359.068 C 284.086 359.690,284.816 361.370,285.394 362.800 C 285.972 364.230,286.705 365.878,287.023 366.462 C 287.340 367.046,287.600 367.768,287.600 368.068 C 287.600 368.367,287.960 369.284,288.400 370.104 C 288.840 370.925,289.200 371.876,289.200 372.217 C 289.200 372.558,289.629 373.265,290.153 373.790 L 291.107 374.743 300.653 369.983 C 313.022 363.816,312.136 364.924,309.554 358.864 C 308.649 356.739,307.470 353.920,306.934 352.600 C 306.398 351.280,305.807 349.917,305.621 349.572 C 305.435 349.226,304.806 347.696,304.223 346.172 C 303.640 344.647,302.831 342.680,302.423 341.800 C 302.016 340.920,301.322 339.300,300.881 338.200 C 299.436 334.597,297.949 331.022,297.388 329.800 C 297.084 329.140,296.359 327.353,295.777 325.828 C 295.194 324.304,294.565 322.774,294.379 322.428 C 294.035 321.789,293.337 320.129,290.417 313.000 C 289.516 310.800,288.513 308.522,288.189 307.938 C 287.865 307.354,287.600 306.654,287.600 306.382 C 287.600 306.110,287.247 305.148,286.816 304.244 C 286.385 303.340,285.296 300.800,284.395 298.600 C 282.354 293.612,280.957 290.305,279.949 288.071 C 278.842 285.618,278.611 284.167,279.260 283.749 C 279.557 283.557,295.715 283.310,315.167 283.200 C 338.586 283.068,350.579 282.863,350.669 282.594 C 350.763 282.310,206.330 137.427,205.481 136.955 C 205.437 136.930,205.175 136.990,204.900 137.088 M349.757 282.469 C 349.645 282.651,333.669 282.800,314.256 282.800 C 287.337 282.800,278.846 282.914,278.480 283.280 C 277.809 283.951,277.881 285.803,278.600 286.400 C 278.930 286.674,279.200 287.198,279.200 287.564 C 279.200 287.931,279.550 288.916,279.977 289.754 C 280.404 290.592,280.866 291.788,281.003 292.411 C 281.139 293.035,281.510 293.759,281.826 294.021 C 282.142 294.283,282.400 294.794,282.400 295.155 C 282.400 295.516,282.760 296.484,283.200 297.304 C 283.640 298.125,284.000 299.003,284.000 299.255 C 284.000 299.733,285.136 302.354,286.437 304.879 C 286.857 305.693,287.200 306.573,287.200 306.835 C 287.200 307.098,287.560 308.097,288.000 309.056 C 288.440 310.015,289.160 311.585,289.600 312.544 C 290.040 313.503,290.400 314.570,290.400 314.915 C 290.400 315.260,290.648 315.791,290.951 316.094 C 291.254 316.397,291.634 317.265,291.796 318.023 C 291.957 318.780,292.308 319.670,292.576 320.000 C 292.843 320.330,293.280 321.365,293.547 322.300 C 293.814 323.235,294.205 324.000,294.416 324.000 C 294.627 324.000,294.800 324.256,294.800 324.570 C 294.800 325.199,297.110 331.165,297.599 331.800 C 297.769 332.020,298.030 332.773,298.180 333.472 C 298.329 334.172,298.710 334.959,299.026 335.221 C 299.342 335.483,299.600 335.998,299.600 336.364 C 299.600 336.731,299.960 337.737,300.400 338.600 C 300.840 339.463,301.200 340.410,301.200 340.705 C 301.200 341.000,301.543 341.907,301.963 342.721 C 303.297 345.309,304.400 347.871,304.400 348.382 C 304.400 348.654,304.658 349.354,304.973 349.938 C 305.969 351.784,307.600 355.533,307.600 355.977 C 307.600 356.211,307.960 357.075,308.400 357.896 C 308.840 358.716,309.200 359.695,309.200 360.070 C 309.200 360.446,309.391 360.871,309.625 361.015 C 311.351 362.082,310.584 364.920,308.441 365.391 C 307.789 365.534,307.041 365.910,306.779 366.226 C 306.517 366.542,306.083 366.800,305.815 366.800 C 305.391 366.800,301.742 368.552,300.000 369.592 C 299.670 369.789,298.410 370.422,297.200 371.000 C 295.990 371.578,294.730 372.208,294.400 372.400 C 291.157 374.287,290.520 374.068,289.361 370.667 C 289.011 369.641,288.562 368.700,288.363 368.577 C 288.163 368.454,288.000 368.068,288.000 367.720 C 288.000 367.372,287.662 366.348,287.248 365.444 C 286.834 364.540,286.098 362.810,285.612 361.600 C 285.126 360.390,284.385 358.734,283.964 357.921 C 283.544 357.107,283.200 356.153,283.200 355.800 C 283.200 355.447,282.857 354.493,282.437 353.679 C 281.136 351.154,280.000 348.533,280.000 348.055 C 280.000 347.803,279.640 346.925,279.200 346.104 C 278.760 345.284,278.400 344.316,278.400 343.955 C 278.400 343.594,278.130 343.074,277.800 342.800 C 277.470 342.526,277.198 342.009,277.196 341.651 C 277.194 341.293,276.750 340.100,276.209 339.000 C 275.668 337.900,275.219 336.696,275.213 336.324 C 275.206 335.952,275.020 335.536,274.800 335.400 C 274.580 335.264,274.200 334.359,273.955 333.388 C 273.711 332.418,273.261 331.417,272.956 331.163 C 272.650 330.910,272.400 330.406,272.400 330.045 C 272.400 329.684,272.040 328.716,271.600 327.896 C 271.160 327.075,270.800 326.123,270.800 325.781 C 270.800 325.438,270.462 324.493,270.049 323.679 C 269.344 322.292,268.997 321.535,266.848 316.689 C 266.381 315.638,266.000 314.436,266.000 314.018 C 266.000 313.599,265.744 313.001,265.432 312.689 C 265.119 312.376,264.666 311.418,264.425 310.560 C 264.184 309.702,263.720 308.651,263.394 308.224 C 263.067 307.796,262.794 307.166,262.786 306.824 C 262.779 306.481,262.425 305.480,262.000 304.600 C 261.575 303.720,261.221 302.744,261.214 302.431 C 261.206 302.119,260.945 301.579,260.634 301.231 C 260.323 300.884,259.907 299.970,259.711 299.200 C 259.473 298.268,258.984 297.621,258.248 297.264 L 257.142 296.728 231.302 322.545 C 217.090 336.744,205.313 348.270,205.131 348.157 C 204.754 347.925,204.669 139.208,205.045 138.227 C 205.224 137.761,224.747 157.030,277.626 209.864 C 317.410 249.615,349.869 282.288,349.757 282.469 M363.629 285.054 C 363.173 285.634,362.800 286.236,362.800 286.393 C 362.800 286.549,362.440 287.093,362.000 287.600 C 361.560 288.107,361.200 288.752,361.200 289.033 C 361.200 289.313,360.964 289.781,360.676 290.071 C 359.412 291.347,358.839 293.117,359.625 293.322 C 360.502 293.552,360.800 293.305,360.800 292.349 C 360.800 291.954,361.135 291.309,361.544 290.916 C 361.953 290.522,362.402 289.723,362.541 289.140 C 362.869 287.772,365.200 286.770,365.200 287.997 C 365.200 288.413,365.040 288.852,364.844 288.973 C 364.649 289.094,364.374 289.649,364.234 290.206 C 364.094 290.764,363.606 291.594,363.150 292.050 C 362.590 292.610,362.452 293.012,362.725 293.285 C 363.226 293.786,364.000 293.355,364.000 292.576 C 364.000 291.606,366.679 291.827,367.223 292.843 C 367.567 293.486,367.784 293.575,368.137 293.216 C 368.488 292.859,368.431 292.621,367.900 292.229 C 367.364 291.833,367.200 291.130,367.200 289.229 C 367.200 285.305,365.237 283.010,363.629 285.054 M365.200 285.400 C 365.200 285.730,365.020 286.000,364.800 286.000 C 364.580 286.000,364.400 285.730,364.400 285.400 C 364.400 285.070,364.580 284.800,364.800 284.800 C 365.020 284.800,365.200 285.070,365.200 285.400 M366.800 288.600 C 366.800 290.249,366.656 290.800,366.224 290.800 C 365.419 290.800,365.021 290.019,365.555 289.485 C 365.800 289.240,366.000 288.446,366.000 287.720 C 366.000 286.994,366.180 286.400,366.400 286.400 C 366.620 286.400,366.800 287.390,366.800 288.600 " stroke="none" fill="#9e9da9" fill-rule="evenodd"></path><path id="path4" d="M183.600 11.177 C 181.510 11.335,178.360 11.674,176.600 11.930 C 174.840 12.187,172.050 12.578,170.400 12.800 C 164.799 13.553,149.445 16.945,147.000 17.970 C 146.560 18.154,143.590 19.154,140.400 20.193 C 137.210 21.231,133.880 22.399,133.000 22.788 C 132.120 23.178,130.140 23.982,128.600 24.575 C 124.807 26.036,110.465 33.241,107.000 35.426 C 105.460 36.397,103.930 37.316,103.600 37.469 C 97.314 40.370,78.288 55.865,69.987 64.843 C 60.978 74.586,54.195 83.336,49.800 90.884 C 49.580 91.262,48.443 93.242,47.273 95.285 C 46.103 97.328,44.989 99.270,44.796 99.600 C 43.561 101.717,38.276 113.139,37.579 115.200 C 37.392 115.750,36.770 117.460,36.195 119.000 C 32.544 128.779,29.489 141.374,28.432 151.000 C 27.265 161.635,27.123 164.321,27.310 172.200 C 27.543 182.057,28.003 187.200,29.381 195.400 C 30.355 201.192,30.633 202.449,32.475 209.400 C 33.227 212.237,35.633 219.558,37.363 224.270 C 39.656 230.520,46.160 243.430,50.088 249.532 C 50.466 250.119,51.067 251.116,51.422 251.747 C 55.992 259.852,70.191 276.374,79.425 284.331 C 85.934 289.940,89.705 293.085,91.200 294.150 C 95.429 297.163,104.444 303.180,105.994 304.023 C 106.980 304.561,108.365 305.381,109.071 305.846 C 109.776 306.312,111.849 307.447,113.677 308.369 C 115.505 309.291,117.270 310.209,117.600 310.409 C 118.343 310.860,123.535 313.240,127.800 315.085 C 133.684 317.631,141.895 320.474,150.000 322.772 C 151.650 323.240,153.916 323.888,155.035 324.211 C 156.154 324.535,157.425 324.800,157.859 324.800 C 158.293 324.800,160.077 325.146,161.824 325.569 C 163.571 325.993,166.800 326.647,169.000 327.023 C 173.052 327.716,175.025 327.949,183.979 328.789 C 186.717 329.046,189.278 329.428,189.670 329.638 C 190.341 329.997,190.389 331.550,190.492 355.990 C 190.563 373.141,190.740 382.100,191.012 382.372 C 191.295 382.655,200.973 373.238,221.866 352.351 C 256.069 318.156,253.101 320.553,255.094 325.503 C 256.757 329.633,259.541 336.404,259.986 337.400 C 260.329 338.167,261.353 340.632,263.475 345.800 C 264.017 347.120,264.708 348.740,265.010 349.400 C 265.313 350.060,266.093 351.950,266.745 353.600 C 268.813 358.832,271.987 366.556,272.580 367.800 C 272.895 368.460,273.542 369.990,274.018 371.200 C 275.523 375.027,276.829 378.178,277.179 378.828 C 277.365 379.174,277.995 380.704,278.580 382.228 C 281.173 388.992,283.429 393.405,284.221 393.261 C 284.641 393.185,289.173 391.025,294.293 388.461 C 299.413 385.898,303.978 383.620,304.439 383.400 C 318.895 376.498,328.610 371.254,328.724 370.293 C 328.829 369.414,327.252 365.020,326.026 362.772 C 325.837 362.426,325.194 360.896,324.596 359.372 C 323.998 357.847,323.182 355.880,322.781 355.000 C 322.381 354.120,321.517 352.050,320.862 350.400 C 320.206 348.750,318.641 344.970,317.384 342.000 C 316.127 339.030,314.777 335.790,314.384 334.800 C 313.990 333.810,313.384 332.460,313.037 331.800 C 312.689 331.140,312.404 330.390,312.402 330.132 C 312.401 329.875,312.143 329.155,311.829 328.532 C 311.514 327.910,310.779 326.230,310.194 324.800 C 309.609 323.370,308.876 321.633,308.565 320.940 C 308.254 320.246,308.000 319.560,308.000 319.415 C 308.000 319.269,307.532 318.127,306.961 316.875 C 305.588 313.870,305.107 312.733,303.807 309.428 C 303.208 307.904,302.565 306.374,302.379 306.028 C 299.718 301.084,299.628 299.381,301.959 298.071 L 303.509 297.200 342.854 297.195 C 381.780 297.189,384.001 297.138,383.999 296.253 C 383.998 296.004,375.262 287.070,364.586 276.400 C 353.909 265.730,345.075 256.613,344.954 256.140 C 344.796 255.525,345.485 254.122,347.367 251.222 C 348.815 248.990,350.000 247.065,350.000 246.944 C 350.000 246.823,350.359 246.219,350.798 245.603 C 357.568 236.096,365.620 213.966,369.356 194.600 C 370.375 189.320,371.318 177.453,371.312 170.000 C 371.302 158.530,370.246 148.998,367.724 137.600 C 366.077 130.158,362.354 117.820,361.495 116.962 C 361.333 116.799,361.199 116.382,361.198 116.033 C 361.196 115.685,360.915 114.863,360.573 114.207 C 360.231 113.551,359.483 111.841,358.911 110.407 C 357.671 107.300,351.970 96.043,350.814 94.419 C 350.366 93.791,350.000 93.162,350.000 93.022 C 350.000 92.882,349.669 92.280,349.265 91.684 C 348.861 91.088,347.286 88.728,345.765 86.440 C 342.097 80.921,342.362 81.285,338.037 75.800 C 323.359 57.181,301.887 39.837,280.800 29.568 C 276.192 27.323,271.607 25.200,271.369 25.200 C 271.232 25.200,270.554 24.941,269.860 24.625 C 265.322 22.554,252.877 18.221,248.000 17.013 C 237.542 14.422,232.510 13.377,227.600 12.774 C 225.730 12.545,222.580 12.075,220.600 11.729 C 216.600 11.032,190.658 10.645,183.600 11.177 M209.400 11.600 C 211.160 11.788,215.210 12.138,218.400 12.378 C 221.590 12.617,225.370 13.071,226.800 13.385 C 228.230 13.699,230.300 14.067,231.400 14.201 C 232.500 14.335,235.020 14.814,237.000 15.266 C 247.996 17.774,247.615 17.675,253.000 19.403 C 254.100 19.757,255.720 20.222,256.600 20.437 C 257.480 20.652,258.767 21.092,259.460 21.414 C 260.154 21.736,260.914 22.000,261.150 22.000 C 261.386 22.000,262.348 22.351,263.289 22.780 C 264.230 23.209,266.170 24.008,267.600 24.556 C 271.581 26.079,279.248 29.476,280.800 30.404 C 281.130 30.601,282.660 31.420,284.200 32.224 C 287.396 33.893,287.365 33.875,292.200 36.755 C 294.180 37.934,296.520 39.392,297.400 39.995 C 298.280 40.598,300.159 41.860,301.575 42.800 C 302.991 43.740,304.341 44.659,304.575 44.844 C 312.621 51.188,314.090 52.396,319.344 57.000 C 326.967 63.679,336.901 74.796,342.270 82.655 C 346.337 88.607,349.615 93.670,350.135 94.800 C 350.286 95.130,350.874 96.210,351.441 97.200 C 353.076 100.054,356.400 106.620,356.400 106.995 C 356.400 107.183,356.645 107.621,356.943 107.969 C 357.242 108.316,357.679 109.140,357.914 109.800 C 358.150 110.460,358.715 111.945,359.171 113.100 C 361.294 118.479,361.719 119.631,362.820 123.000 C 365.416 130.943,366.686 135.576,367.151 138.800 C 367.358 140.230,367.718 141.893,367.952 142.496 C 368.186 143.098,368.483 144.808,368.613 146.296 C 368.743 147.783,369.151 150.350,369.520 152.000 C 370.510 156.428,370.519 183.572,369.531 188.000 C 369.163 189.650,368.753 192.217,368.619 193.704 C 368.486 195.192,368.186 196.902,367.952 197.504 C 367.718 198.107,367.358 199.770,367.151 201.200 C 366.782 203.761,366.357 205.470,364.712 211.000 C 362.903 217.083,362.251 219.066,361.540 220.644 C 361.133 221.548,360.800 222.541,360.800 222.850 C 360.800 223.159,360.440 224.084,360.000 224.904 C 359.560 225.725,359.200 226.599,359.200 226.846 C 359.200 227.317,352.902 240.218,350.826 244.000 C 348.693 247.887,345.431 252.904,344.321 254.009 C 342.840 255.481,341.734 254.214,363.934 276.488 C 374.617 287.207,383.235 296.098,383.087 296.247 C 382.938 296.395,365.582 296.484,344.518 296.444 C 306.325 296.371,301.090 296.524,299.781 297.747 C 299.242 298.251,299.722 301.671,300.574 303.400 C 301.102 304.471,301.930 306.433,305.469 315.000 C 306.015 316.320,306.699 317.940,306.989 318.600 C 307.280 319.260,307.915 320.790,308.400 322.000 C 309.403 324.501,309.902 325.658,311.365 328.875 C 311.934 330.127,312.400 331.392,312.400 331.686 C 312.400 331.981,312.646 332.577,312.946 333.011 C 313.246 333.445,313.623 334.250,313.783 334.800 C 314.109 335.921,315.339 338.815,316.220 340.532 C 316.539 341.155,316.800 341.841,316.800 342.057 C 316.800 342.459,318.369 346.104,319.416 348.132 C 319.737 348.755,320.000 349.448,320.000 349.672 C 320.000 349.896,320.256 350.646,320.570 351.340 C 320.883 352.033,321.701 353.950,322.388 355.600 C 323.075 357.250,323.898 359.078,324.218 359.662 C 324.538 360.246,324.800 360.966,324.799 361.262 C 324.798 361.558,325.141 362.520,325.561 363.400 C 328.264 369.072,328.686 371.020,327.300 371.434 C 326.915 371.550,326.150 371.886,325.600 372.182 C 325.050 372.478,323.610 373.202,322.400 373.792 C 318.288 375.796,316.201 376.850,315.600 377.225 C 315.270 377.432,314.550 377.780,314.000 377.999 C 313.450 378.219,312.730 378.571,312.400 378.783 C 312.070 378.995,310.630 379.726,309.200 380.407 C 307.770 381.089,306.330 381.818,306.000 382.028 C 305.670 382.239,304.230 382.950,302.800 383.609 C 301.370 384.268,299.930 384.986,299.600 385.204 C 299.270 385.422,298.550 385.780,298.000 385.999 C 297.450 386.219,296.730 386.573,296.400 386.786 C 296.070 387.000,294.597 387.718,293.126 388.383 C 291.656 389.047,290.353 389.753,290.230 389.951 C 290.108 390.149,289.513 390.436,288.908 390.587 C 288.303 390.739,287.716 391.000,287.604 391.168 C 287.492 391.335,286.537 391.763,285.483 392.118 L 283.566 392.763 283.172 391.681 C 282.956 391.087,282.529 390.060,282.223 389.400 C 281.917 388.740,281.190 387.030,280.606 385.600 C 280.022 384.170,279.389 382.640,279.200 382.200 C 279.011 381.760,278.375 380.230,277.788 378.800 C 277.200 377.370,276.377 375.460,275.960 374.556 C 275.542 373.652,275.200 372.779,275.200 372.617 C 275.200 372.314,274.854 371.499,273.039 367.525 C 272.468 366.273,271.994 365.013,271.987 364.725 C 271.980 364.436,271.710 363.851,271.387 363.424 C 271.064 362.996,270.800 362.400,270.800 362.099 C 270.800 361.615,270.043 359.778,268.203 355.800 C 267.897 355.140,267.258 353.610,266.782 352.400 C 265.066 348.038,263.944 345.381,263.377 344.338 C 263.060 343.754,262.800 343.062,262.800 342.799 C 262.800 342.318,262.552 341.713,260.639 337.525 C 260.068 336.273,259.600 335.058,259.600 334.823 C 259.600 334.589,259.240 333.725,258.800 332.904 C 258.360 332.084,258.000 331.116,258.000 330.755 C 258.000 330.394,257.730 329.874,257.400 329.600 C 257.070 329.326,256.800 328.821,256.800 328.477 C 256.800 328.134,256.454 327.121,256.030 326.226 C 255.607 325.332,254.986 323.925,254.651 323.100 C 253.374 319.960,254.612 318.883,221.656 351.813 C 197.431 376.020,191.364 381.885,191.138 381.313 C 190.983 380.921,190.831 369.080,190.800 355.000 C 190.769 340.920,190.621 329.130,190.472 328.800 C 190.258 328.328,189.215 328.173,185.600 328.076 C 183.070 328.007,179.560 327.705,177.800 327.404 C 176.040 327.103,173.430 326.741,172.000 326.599 C 170.570 326.458,168.320 326.085,167.000 325.771 C 165.680 325.457,163.520 325.042,162.200 324.849 C 159.817 324.501,157.357 323.925,151.600 322.367 C 146.205 320.907,143.022 319.948,141.740 319.395 C 141.047 319.096,139.830 318.729,139.036 318.580 C 138.241 318.431,137.496 318.155,137.379 317.966 C 137.262 317.776,136.409 317.429,135.483 317.194 C 134.557 316.959,133.440 316.605,133.000 316.407 C 132.560 316.209,130.850 315.485,129.200 314.798 C 127.550 314.110,125.660 313.307,125.000 313.012 C 122.919 312.082,113.071 307.127,111.400 306.169 C 108.248 304.362,107.582 303.991,106.300 303.326 C 105.585 302.956,104.181 302.101,103.180 301.426 C 102.179 300.752,101.080 300.020,100.736 299.800 C 98.879 298.610,91.045 293.102,90.800 292.815 C 90.690 292.686,88.710 291.035,86.400 289.147 C 84.090 287.259,81.480 285.104,80.600 284.357 C 78.271 282.382,68.953 273.029,66.296 270.000 C 65.041 268.570,63.768 267.130,63.466 266.800 C 63.164 266.470,62.395 265.480,61.758 264.600 C 61.121 263.720,60.205 262.550,59.722 262.000 C 58.469 260.574,51.570 250.512,49.710 247.400 C 45.416 240.212,38.584 226.245,37.580 222.600 C 37.398 221.940,36.777 220.140,36.199 218.600 C 34.804 214.879,33.640 211.051,33.158 208.600 C 32.942 207.500,32.526 205.970,32.235 205.200 C 31.943 204.430,31.578 202.900,31.423 201.800 C 31.269 200.700,30.893 198.900,30.589 197.800 C 30.284 196.700,29.851 194.180,29.625 192.200 C 29.400 190.220,29.004 187.340,28.744 185.800 C 28.111 182.032,28.110 157.975,28.743 154.200 C 29.002 152.660,29.389 149.870,29.603 148.000 C 29.978 144.737,30.426 142.456,31.805 136.800 C 32.153 135.370,32.673 133.101,32.959 131.758 C 33.246 130.415,33.617 129.096,33.784 128.826 C 33.951 128.556,34.321 127.405,34.606 126.268 C 34.892 125.130,35.599 122.940,36.179 121.400 C 36.758 119.860,37.470 117.880,37.761 117.000 C 39.392 112.069,45.362 99.878,49.710 92.600 C 50.527 91.233,56.781 81.864,57.714 80.610 C 59.620 78.048,62.971 73.790,63.231 73.600 C 63.382 73.490,64.179 72.590,65.003 71.600 C 69.591 66.088,75.030 60.533,80.200 56.079 C 81.740 54.753,84.080 52.733,85.400 51.591 C 91.532 46.285,100.904 39.830,109.800 34.786 C 111.780 33.663,113.670 32.587,114.000 32.395 C 115.145 31.728,121.813 28.472,124.200 27.414 C 125.520 26.829,126.883 26.200,127.228 26.017 C 127.817 25.704,129.690 24.956,135.700 22.634 C 137.075 22.103,139.190 21.369,140.400 21.002 C 141.610 20.636,143.327 20.080,144.215 19.767 C 147.465 18.623,156.543 16.234,159.200 15.823 C 160.190 15.670,161.810 15.300,162.800 15.000 C 163.790 14.700,165.590 14.345,166.800 14.210 C 168.010 14.076,170.170 13.710,171.600 13.397 C 173.030 13.085,176.990 12.616,180.400 12.355 C 183.810 12.094,187.770 11.756,189.200 11.604 C 192.964 11.202,205.661 11.199,209.400 11.600 M203.884 136.250 C 203.728 136.406,203.600 184.563,203.600 243.267 L 203.600 350.000 204.664 350.000 C 205.539 350.000,210.291 345.438,231.342 324.386 C 246.494 309.233,257.204 298.819,257.564 298.888 C 258.152 299.002,258.394 299.397,259.715 302.400 C 260.054 303.170,260.796 304.824,261.365 306.075 C 261.934 307.327,262.400 308.519,262.400 308.724 C 262.400 308.930,262.767 309.976,263.215 311.049 C 264.019 312.975,264.314 313.639,265.961 317.226 C 266.423 318.231,266.800 319.182,266.800 319.339 C 266.800 319.497,267.099 320.295,267.465 321.113 C 267.830 321.931,268.347 323.140,268.613 323.800 C 270.595 328.714,272.107 332.381,272.571 333.400 C 272.872 334.060,273.518 335.590,274.007 336.800 C 274.496 338.010,275.234 339.740,275.648 340.644 C 276.062 341.548,276.400 342.413,276.400 342.566 C 276.400 342.914,277.811 346.221,278.605 347.732 C 278.932 348.355,279.200 349.058,279.200 349.294 C 279.200 349.530,279.627 350.640,280.148 351.761 C 280.669 352.883,281.588 355.060,282.189 356.600 C 282.790 358.140,283.443 359.571,283.641 359.780 C 283.838 359.989,284.000 360.419,284.000 360.736 C 284.000 361.279,284.667 362.883,286.439 366.600 C 286.859 367.480,287.202 368.345,287.201 368.522 C 287.200 368.699,287.547 369.605,287.971 370.536 C 288.395 371.466,288.867 372.730,289.021 373.343 C 289.665 375.906,290.478 375.700,301.452 370.201 C 313.810 364.009,313.235 365.078,308.951 356.268 C 308.648 355.645,308.400 354.937,308.400 354.694 C 308.400 354.451,308.060 353.521,307.645 352.626 C 305.275 347.524,304.800 346.392,304.800 345.848 C 304.800 345.518,304.640 345.148,304.444 345.027 C 304.249 344.906,303.965 344.317,303.815 343.717 C 303.566 342.725,303.016 341.440,300.755 336.574 C 300.340 335.679,300.000 334.749,300.000 334.506 C 300.000 334.263,299.743 333.555,299.429 332.932 C 299.114 332.310,298.382 330.630,297.801 329.200 C 297.219 327.770,296.589 326.240,296.400 325.800 C 296.211 325.360,295.575 323.830,294.988 322.400 C 294.400 320.970,293.598 319.080,293.205 318.200 C 292.812 317.320,292.002 315.353,291.404 313.828 C 290.806 312.304,290.165 310.774,289.979 310.428 C 289.793 310.083,289.169 308.630,288.592 307.200 C 288.015 305.770,287.286 304.090,286.971 303.468 C 286.657 302.845,286.400 302.159,286.400 301.943 C 286.400 301.527,284.735 297.721,283.773 295.938 C 283.458 295.354,283.200 294.654,283.200 294.382 C 283.200 294.110,282.858 293.148,282.440 292.244 C 280.098 287.174,279.503 285.444,279.890 284.830 C 280.246 284.266,284.000 284.189,315.944 284.098 L 351.600 283.996 351.600 283.070 C 351.600 282.012,206.143 136.290,204.880 136.083 C 204.488 136.019,204.039 136.094,203.884 136.250 M278.183 209.594 C 318.125 249.520,350.743 282.370,350.669 282.594 C 350.579 282.863,338.586 283.068,315.167 283.200 C 295.715 283.310,279.557 283.557,279.260 283.749 C 278.611 284.167,278.842 285.618,279.949 288.071 C 280.957 290.305,282.354 293.612,284.395 298.600 C 285.296 300.800,286.385 303.340,286.816 304.244 C 287.247 305.148,287.600 306.110,287.600 306.382 C 287.600 306.654,287.865 307.354,288.189 307.938 C 288.513 308.522,289.516 310.800,290.417 313.000 C 293.337 320.129,294.035 321.789,294.379 322.428 C 294.565 322.774,295.194 324.304,295.777 325.828 C 296.359 327.353,297.084 329.140,297.388 329.800 C 297.949 331.022,299.436 334.597,300.881 338.200 C 301.322 339.300,302.016 340.920,302.423 341.800 C 302.831 342.680,303.640 344.647,304.223 346.172 C 304.806 347.696,305.435 349.226,305.621 349.572 C 305.807 349.917,306.398 351.280,306.934 352.600 C 307.470 353.920,308.649 356.739,309.554 358.864 C 312.136 364.924,313.022 363.816,300.653 369.983 L 291.107 374.743 290.153 373.790 C 289.629 373.265,289.200 372.558,289.200 372.217 C 289.200 371.876,288.840 370.925,288.400 370.104 C 287.960 369.284,287.600 368.367,287.600 368.068 C 287.600 367.768,287.340 367.046,287.023 366.462 C 286.705 365.878,285.972 364.230,285.394 362.800 C 284.816 361.370,284.086 359.690,283.771 359.068 C 283.457 358.445,283.200 357.737,283.200 357.494 C 283.200 357.251,282.858 356.321,282.440 355.426 C 281.595 353.616,280.459 350.947,278.004 345.000 C 277.096 342.800,276.094 340.433,275.777 339.740 C 275.459 339.046,275.200 338.354,275.200 338.200 C 275.200 338.046,274.944 337.354,274.630 336.660 C 274.317 335.967,273.494 334.050,272.800 332.400 C 272.106 330.750,271.283 328.833,270.970 328.140 C 270.656 327.446,270.400 326.664,270.400 326.401 C 270.400 326.138,270.142 325.446,269.827 324.862 C 269.032 323.388,267.200 319.302,267.200 319.003 C 267.200 318.867,266.863 318.001,266.452 317.078 C 266.040 316.155,265.241 314.227,264.676 312.793 C 264.111 311.359,263.369 309.649,263.027 308.993 C 262.685 308.337,262.404 307.521,262.402 307.180 C 262.401 306.839,262.249 306.389,262.064 306.180 C 261.879 305.971,261.122 304.270,260.383 302.400 C 258.821 298.454,258.538 298.000,257.634 298.000 C 257.266 298.000,245.374 309.591,231.207 323.759 C 215.905 339.061,205.236 349.435,204.925 349.316 C 204.494 349.150,204.400 330.215,204.400 243.191 C 204.400 139.086,204.428 136.368,205.481 136.955 C 205.526 136.980,238.242 169.667,278.183 209.594 M363.496 284.216 C 362.893 284.775,362.400 285.482,362.400 285.788 C 362.400 286.093,362.168 286.581,361.884 286.871 C 360.788 287.994,358.043 293.246,358.258 293.808 C 358.712 294.991,361.114 294.277,361.476 292.852 L 361.743 291.800 362.083 293.100 C 362.484 294.632,363.361 294.784,364.401 293.500 L 365.131 292.600 366.393 293.532 C 368.587 295.153,369.609 293.525,368.158 290.718 C 367.753 289.936,367.597 288.974,367.736 288.119 C 367.913 287.029,367.708 286.409,366.701 284.981 C 365.244 282.914,364.971 282.848,363.496 284.216 M366.153 285.373 C 367.022 286.514,367.200 287.167,367.200 289.229 C 367.200 291.130,367.364 291.833,367.900 292.229 C 368.431 292.621,368.488 292.859,368.137 293.216 C 367.784 293.575,367.567 293.486,367.223 292.843 C 366.679 291.827,364.000 291.606,364.000 292.576 C 364.000 293.355,363.226 293.786,362.725 293.285 C 362.452 293.012,362.590 292.610,363.150 292.050 C 363.606 291.594,364.094 290.764,364.234 290.206 C 364.374 289.649,364.649 289.094,364.844 288.973 C 365.040 288.852,365.200 288.413,365.200 287.997 C 365.200 286.770,362.869 287.772,362.541 289.140 C 362.402 289.723,361.953 290.522,361.544 290.916 C 361.135 291.309,360.800 291.954,360.800 292.349 C 360.800 293.305,360.502 293.552,359.625 293.322 C 358.839 293.117,359.412 291.347,360.676 290.071 C 360.964 289.781,361.200 289.313,361.200 289.033 C 361.200 288.752,361.560 288.107,362.000 287.600 C 362.440 287.093,362.800 286.549,362.800 286.393 C 362.800 285.953,364.417 284.000,364.782 284.000 C 364.959 284.000,365.576 284.618,366.153 285.373 " stroke="none" fill="#986a8a" fill-rule="evenodd"></path></g></svg>