<?xml version="1.0" encoding="utf-8"?>
<!-- Generator: Adobe Illustrator 27.1.1, SVG Export Plug-In . SVG Version: 6.00 Build 0)  -->
<svg version="1.1" id="Layer_1" xmlns="http://www.w3.org/2000/svg" xmlns:xlink="http://www.w3.org/1999/xlink" x="0px" y="0px"
	 viewBox="0 0 256 256" style="enable-background:new 0 0 256 256;" xml:space="preserve">
<style type="text/css">
	.st0{fill:#FFFFFF;}
	.st1{fill:#FBAC1C;}
	.st2{fill:#030303;}
	.st3{fill:#C44027;}
	.st4{fill:#7D1416;}
	.st5{fill:#A72722;}
	.st6{fill:#F58220;}
	.st7{fill:#FDEC9F;}
	.st8{fill:#F8951D;}
	.st9{fill:#89181A;}
	.st10{fill:#FCC721;}
	.st11{fill:#C7C6C5;}
	.st12{fill:#A16A28;}
	.st13{fill:#3E1312;}
	.st14{fill:#EB6424;}
	.st15{fill:#FCED2E;}
</style>
<g>
	<path class="st0" d="M0.3,29.6c0-8.8,0-17.6,0-26.4c85.1,0,170.3,0,255.7,0c0,59.4,0,118.8,0,178.3c-0.4,0.2-0.7,0.4-1.1,0.6
		c-0.6,1.7-1.3,3.5-1.9,5.2c-0.3,0-0.6,0.1-0.9,0.3c-1.3,0-2.7,0-4,0c-0.3,0-0.6,0-0.9,0c-1.6,0-3.3,0-4.9,0
		c-0.2,0.2-0.4,0.4-0.7,0.7c-0.1,1.3-0.3,2.6-0.4,3.9c-0.3,0.1-0.6,0.3-1,0.4c-1.1,2.8-2.1,5.6-3.2,8.4c-1.5,0-2.9-0.1-4.4-0.1
		c0-9.2,0-18.3,0-27.8c-1.8,0-3.2,0-4.6,0c-0.4-0.1-0.8-0.3-1.1-0.4c0-1.6,0-3.1,0-4.9c-3.3,0-6,0-8.7,0c-0.1-0.3-0.3-0.7-0.4-1
		c0.2-0.3,0.1-0.6,0-0.9c0-1.4,0-2.8,0-4.1c-0.2-0.2-0.4-0.4-0.6-0.5c-3.4,0-6.8,0-10.1,0c-0.2,0.2-0.4,0.4-0.6,0.5
		c0,1.6-0.1,3.3-0.1,4.9c0,0-0.3,0.1-0.3,0.1c-0.3,0.3-0.5,0.6-0.8,0.9c0,0,0.1,0.2,0.1,0.2c-1.6,0-3.3,0-4.9-0.1c0-5,0-10,0-15.3
		c1.8-0.2,3.3-0.3,4.9-0.5c0-9,0-17.8,0-26.6c-1.7-0.3-3.2-0.5-5-0.8c0-5.1,0-9.9,0-14.7c-2.5-0.2-4.6-0.4-6.7-0.6l0,0.1
		c0-2.1,0-4.1,0-6.3c-2.2-0.2-3.9-0.3-5.8-0.5c-0.1-2-0.3-3.7-0.4-5.4c-2.1-0.1-3.8-0.2-5.7-0.3c0-4.5,0-8.7,0-13.1
		c-1.5-0.4-2.8-0.7-4-1c-0.1-2.2-0.2-4.2-0.3-6.1c-1.9-0.3-3.6-0.5-5.6-0.8c0-2.1,0-4,0-6.4c-4.7,0-9,0-13.4,0
		c0.1-0.3,0.1-0.5-0.2-0.6l0.4-0.2c0.1-0.1,0.3-0.2,0.2-0.3c-0.1-0.2-0.2-0.4-0.4-0.6c-0.1-2.2-0.2-4.3-0.3-6.8c-2.9,0-5.4,0-7.9,0
		c-0.1-4.6-0.1-9.3-0.2-13.9c-0.2-0.1-0.4-0.3-0.6-0.4c-1.4,0-2.8,0-4.2,0l-0.4,0c0,0-0.1,0.4-0.1,0.4c-0.2,2.6-0.4,5.2-0.6,7.9
		c-6.9,0.1-13.7,0.2-20.6,0.3c-1.1,0.1-2.3,0.2-3.4,0.4c-0.8,0-1.6,0-2.4,0c-2.2-0.2-4.4-0.5-6.6-0.7c-0.1-1.2-0.1-2.5-0.2-3.7
		c-9.6,0-18.9,0-28.1,0c-0.3,1.5-0.5,2.9-0.8,4.5c-7.1,0-14,0-20.8,0c-0.2-0.3-0.3-0.5-0.5-0.8c-0.1-1.3-0.1-2.6-0.2-4
		c-2.8,0-4.9,0-7.2,0c-0.4-1.6-0.7-3.1-1.1-4.7c-5.4,0-10.6,0-15.8,0c0-1.9,0-3.8,0-6.2c-5.1,0-9.7,0-14.2,0
		C22,38,21.8,36.5,21.6,35c-1.8-0.1-3.3-0.3-4.7-0.4c0-1.7,0-3.4,0-5C10.9,29.6,5.6,29.6,0.3,29.6z M159.8,40.2c0.4,0,0.9,0,1.3,0
		c1.2,0,2.4,0,3.6,0c0.3-0.3,0.7-0.6,1-0.9c0.1-1.6,0.2-3.1,0.3-5c1.8,0,3.2,0,4.6,0c0.4-0.2,0.8-0.5,1.2-0.7c0-3.6,0-7.2,0-10.6
		c-3.1,0-5.4,0-7.8,0c-0.2,2.1-0.3,3.8-0.4,5.6c-0.2,0.2-0.5,0.4-0.7,0.6c-0.9,0.5-1.9,1-2.8,1.6c-1.2,2.1-2.7,4.2-3.5,6.5
		C156.4,37.8,158.7,39.2,159.8,40.2z M86.6,34.3c0.3-0.2,0.5-0.5,0.8-0.7c0-3.5,0-7,0-10.9c-1.8,0.1-3.3,0.2-4.8,0.3
		c0,4.1,0,7.6,0,11.4C84.1,34.3,85.3,34.3,86.6,34.3z M110.1,46.3c0-2,0.1-3.9,0.1-5.9c-9.2,0-18.4,0-27.6,0c0,2.2,0,3.8,0,5.9
		C91.9,46.3,101,46.3,110.1,46.3z"/>
	<path class="st0" d="M256,241.2c-4.2,4.2-8.5,12.2-12.7,12.2c-81,0.7-162,0.5-242.9,0.5c0-66.3,0-132.6,0-198.9
		c6.9-0.1,13.8-0.2,20.8-0.3c0.4,0,0.8,0.1,1.1,0.1c0.2,0.3,0.5,0.5,0.7,0.8c0,1.5,0.1,2.9,0.1,4.4c0.2,0.2,0.4,0.4,0.6,0.6
		c4,0.1,7.9,0.2,11.9,0.3c0.3,0.3,0.5,0.6,0.8,0.9c0.1,1.2,0.3,2.4,0.4,3.8c4.1,0,7.8,0,11.8,0c0.3,1.5,0.6,2.8,0.9,4.1
		c1.8,0.1,3.4,0.2,5.2,0.3c0,2,0,3.8,0,5.6c-1.9,0.2-3.6,0.5-5.6,0.7c0,2.3,0,4.4,0,6.5c0,0,0,0.1,0,0.1c-2,0.2-4.1,0.4-6.4,0.7
		c0,4.4,0,8.6,0,12.9c-2.2,0.2-4.1,0.3-6.3,0.5c0,1.9,0,3.6,0,5.4l-0.4,0l0,0.4c-2,0-4,0-6.1,0c0,2,0,3.6,0,5.2
		c-0.1,0.4-0.2,0.9-0.3,1.3l-0.4,0c0,0-0.2,0.4-0.2,0.4c-2,0-4,0-6.2,0c0,4.8,0,9.3,0,13.7c-0.1,0.5-0.2,1.1-0.3,1.6
		c-1.8,0.1-3.5,0.3-5.5,0.4c0,8.8,0,17.5,0,26.5c1.8,0,3.3,0,4.9,0c0.3,1.6,0.6,3.2,0.8,4.8c0,3.1,0,6.3,0,9.7c2.3,0,4.3,0,6.3,0
		l0.1,0c0.2,3,0.5,6.1,0.7,9.1c0.2,0.2,0.4,0.4,0.6,0.6c1.9,0.2,3.8,0.3,5.8,0.5c0,1.3,0,2.4,0,3.5c-0.1,0.1-0.3,0.2-0.3,0.3
		c0,0.2,0.2,0.5,0.3,0.7c0.1,0.2,0.1,0.4,0,0.6c-0.3,0-0.6,0-0.8,0.2c-2,0-4.1,0-6.1,0.1c-4,0-8,0-12.4,0c0,3.5,0,6.7,0,10
		c-1.7,0.1-3.4,0.2-5.1,0.2c-0.2,1.8-0.3,3.2-0.5,4.6l0.1-0.1c-2.4,0-4.8,0-7.2,0c0,3.4,0,6.3,0,9.4c2.4,0.1,4.7,0.3,6.9,0.4
		c0.2,1.9,0.4,3.7,0.7,6c8.3,0,16.5,0,24.7,0c0,1.9,0,3.7,0,5.6c8.3,0,16.2,0,24.2,0c0.1-2.1,0.2-3.9,0.3-5.6c5.1,0,10.3,0,15.3,0
		c0.2,2.6,0.4,4.3,0.5,5.9c2,0.1,3.6,0.2,5.3,0.3c0.3,1.7,0.5,3.2,0.7,4.5c20.6,0,40.7,0,61,0c0.3-1.7,0.6-3.2,0.8-4.6
		c2.1-0.2,3.8-0.3,5.5-0.4c0.1-2,0.2-3.6,0.3-5.3c3.2,0,6.2,0,9.3,0c0.2,2,0.3,3.6,0.5,5.4c6.1,0,11.8,0,17.5,0
		c-0.1,1.9-0.1,3.9-0.2,5.8c-1.5,0-3,0-4.6,0c0,1.8,0,3.1,0,4.7c1.8,0.1,3.3,0.2,4.9,0.3c0,1.7,0,3.4,0,5.2c1.8,0,3.2,0,4.6,0
		c-0.1,0.3,0,0.5,0.4,0.6c0,1.9,0,3.7,0,5.9c1.9,0,3.3,0,4.7,0l0.2,0.4l0.4,0c0,1.9,0,3.7,0,5.6c6,0,11.5,0,17.4,0
		c-0.1-1.9-0.2-3.7-0.3-5.4c0.3-0.3,0.6-0.6,0.9-0.8c1.7,0,3.4,0,5.1,0c0.3-2.2,0.5-3.9,0.7-5.6c2.3,0,4.2,0,6.1,0
		c0.1,1.9,0.3,3.8,0.4,5.8c1.7,0.1,3.1,0.1,4.5,0.2c0,0,0.1,0.3,0.1,0.3l0.3,0c0,1.8,0,3.6,0,5.5c6.3,0,12.2,0,18.3,0
		c0-2.1,0-3.9,0-5.7l0,0.1c1.7-0.1,3.4-0.3,5.1-0.4c0.2-2.2,0.4-4.1,0.6-6c2.1,0,3.9,0,5.7,0l0,0.3l0.2,0.1c0.1,1.7,0.3,3.3,0.4,5
		c0.2,0.2,0.4,0.4,0.5,0.6C254.7,241,255.3,241.1,256,241.2z"/>
	<path class="st1" d="M253,187.3c0.6-1.7,1.3-3.5,1.9-5.2c0.4,0.1,0.7,0.3,1.1,0.4c0,6.2,0,12.4,0,18.6c-1,0-1.9,0-2.9,0
		c-1.8,0.1-3.7,0.2-5.6,0.3c-0.2,2.2-0.4,3.8-0.5,5.4c-1.9,0.1-3.8,0.1-5.7,0.2c-2.4,0-4.8,0-7.4,0c0,2.1,0,3.7,0,5.9
		c2.7,0,5.1,0,7.5,0c0.1,0.1,0.2,0.2,0.4,0.3c0.1,1.8,0.1,3.7,0.2,5.5c-0.3-0.1-0.5,0-0.6,0.3c-4.2,0-8.3-0.1-12.5-0.1
		c-0.7-1.9-1.4-3.7-2.2-6.1c-3,0-6,0-9,0c0.1-1.9,0.1-3.9,0.2-5.8c1.6-0.1,3.2-0.2,4.8-0.4c0.3-1.7,0.5-3.1,0.8-4.5
		c2.7,1.7,5.4,3.5,9.2,5.9c0-3.2,0-4.6,0-6c0-0.3,0-0.6-0.1-0.9l0.3-0.2c1.5,0,2.9,0.1,4.4,0.1c1.3-0.1,2.7-0.2,4.2-0.4
		c0-2.9,0-5.2,0-7.6c0-0.3,0-0.5-0.1-0.8c0.1-1.3,0.3-2.6,0.4-3.9c0.3-0.1,0.5-0.4,0.7-0.7c1.6,0,3.3,0,4.9,0c0,0.2,0,0.5,0.1,0.7
		c0.1,1.5,0.2,3.1,0.4,4.9c2-0.1,3.4-0.2,5.1-0.3c0.1-1.7,0.2-3.1,0.3-4.6C253,188,253,187.6,253,187.3z"/>
	<path class="st2" d="M21.1,54.8C14.2,54.9,7.2,55,0.3,55.1c0-1.3,0-2.6,0-3.9c3.6-0.2,7.2-0.4,10.8-0.5c1.8,0,3.7,0,5.7,0
		c0-2.4,0-4.3,0-6.2c0-1.4,0-2.7-0.1-4.1c0.1-2,0.1-3.9,0.2-5.9l-0.1,0.1c1.4,0.1,2.9,0.2,4.7,0.4c0.2,1.5,0.4,3,0.7,5.1
		c4.5,0,9.1,0,14.2,0c0,2.4,0,4.3,0,6.2l0.1-0.1c-4.6,0-9.3,0-14.3,0c0,2,0,3.4,0,4.8c-0.1,1.1-0.3,2.1-0.4,3.2
		C21.6,54.4,21.3,54.6,21.1,54.8z"/>
	<path class="st3" d="M256,206.9c0,2.3,0,4.6,0,6.9c-0.7,3.6-1.4,7.2-2.1,10.8c0.1,1.6,0.1,3.2,0.2,4.8c-0.2,0.3-0.5,0.4-0.9,0.3
		c-1.8-0.2-3.7-0.5-5.7-0.7c-0.1-1.6-0.2-3-0.4-4.4c0-2,0-4,0-5.9c0.1-1.6,0.2-3.2,0.2-4.9c0.3-0.3,0.5-0.5,0.8-0.8
		c1.5-0.2,3-0.3,4.9-0.5c0-2,0-3.7,0-5.4c-0.1-0.2-0.1-0.3,0-0.5C254,206.7,255,206.8,256,206.9z"/>
	<path class="st2" d="M0.3,29.6c5.3,0,10.6,0,16.6,0c0,1.6,0,3.3,0,5c0,0,0.1-0.1,0.1-0.1c-4.2,0.1-8.5,0.1-12.7,0.2
		c-0.7,0-1.3,0-2,0c-0.6-0.1-1.3-0.1-1.9-0.2C0.3,32.9,0.3,31.3,0.3,29.6z"/>
	<path class="st4" d="M11.1,50.6C7.5,50.8,3.9,51,0.3,51.2c0-2,0-3.9,0-5.9c1.5-0.3,3-0.6,4.5-0.9c0,0,0.3,0,0.3,0
		c0.4,0.1,0.8,0.1,1.2,0.2c1.2,0,2.4,0,3.6,0c0.4,0.2,0.7,0.5,1.1,0.7C11.1,47.1,11.1,48.9,11.1,50.6z"/>
	<path class="st5" d="M253.9,224.6c0.7-3.6,1.4-7.2,2.1-10.8c0,3.6,0,7.2,0,10.8C255.3,224.6,254.6,224.6,253.9,224.6z"/>
	<path class="st1" d="M2.2,34.7c0.7,0,1.3,0,2,0c0,1.9,0,3.8,0,5.7c-1.3,0-2.6,0-4-0.1c0-1.6,0-3.3,0-4.9C1,35.3,1.6,35,2.2,34.7z"
		/>
	<path class="st5" d="M0.3,40.4c1.3,0,2.6,0,4,0.1c0,0,0.4,0,0.4,0c0,1.3,0.1,2.6,0.1,3.9c-1.5,0.3-3,0.6-4.5,0.9
		C0.3,43.7,0.3,42,0.3,40.4z"/>
	<path class="st6" d="M256,206.9c-1-0.1-2-0.3-3-0.4c0-1.8,0-3.6,0-5.4c1,0,1.9,0,2.9,0C256,203,256,205,256,206.9z"/>
	<path class="st7" d="M253.2,229.7c0.4,0,0.6-0.1,0.9-0.3c0.6,0,1.3,0.1,1.9,0.1c0,2,0,3.9,0,5.9c-1,0-2,0-2.9,0l-0.2-0.1
		c0,0,0-0.3,0-0.3C252.9,233.2,253.1,231.5,253.2,229.7z"/>
	<path class="st1" d="M253.1,235.4c1,0,2,0,2.9,0c0,2,0,3.9,0,5.9c-0.7-0.1-1.3-0.2-2-0.3c-0.1-0.3-0.3-0.5-0.5-0.6
		C253.3,238.7,253.2,237,253.1,235.4z"/>
	<path class="st2" d="M256,229.5c-0.6,0-1.3-0.1-1.9-0.1c-0.1-1.6-0.1-3.2-0.2-4.8c0.7,0,1.4,0,2.1,0C256,226.2,256,227.8,256,229.5
		z"/>
	<path class="st8" d="M2.2,34.7C1.6,35,1,35.3,0.3,35.5c0-0.3,0-0.7,0-1C1,34.6,1.6,34.7,2.2,34.7z"/>
	<path class="st7" d="M256,182.4c-0.4-0.1-0.7-0.3-1.1-0.4c0.4-0.2,0.7-0.4,1.1-0.6C256,181.8,256,182.1,256,182.4z"/>
	<path class="st2" d="M30,175.8c-0.2-3-0.5-6.1-0.7-9.1c2.1-0.4,4.3-0.7,6.4-1.1c0.1,2.2,0.2,4.4,0.4,6.6c2.4,0.2,4.1,0.3,6,0.5
		c0.3,1.7,0.6,3.2,1,5c1.8,0,3.4,0,5,0c0.3,1.4,0.5,2.8,0.8,4.4c1.5,0.1,2.9,0.3,4.3,0.4c0.3,2,0.6,4,0.8,5.9c1.7,1.3,3.3,2.5,5,3.8
		l0,0c2.9,1.6,5.9,3.3,8.8,4.9l0.2,0c0,1.1,0,2.1,0,3.5c1,0.2,1.8,0.4,2.7,0.6c3.1,0,6.1,0,9.1,0c0.7,2.3,1.2,3.9,1.8,5.7
		c12.5,0,24.7,0,36.9,0c2.4,0,4.8,0,7.2,0c0.7-1.7,1.3-3.1,2-4.8c5.4,0,10.5,0,15.8,0c0.5-1.7,0.9-3,1.4-4.6c3.4,0,6.6,0,7.1,0
		c6.4-3.9,10.7-6.6,15.3-9.4c0.2-1,0.4-2.4,0.4-2.4c2.6-2.5,4.2-4,7.4-7.1c-0.8,0.2,0.6-0.2-0.6,0.2c3.5-3.2,5.2-4.7,7.6-7
		c0.1-0.3,0.4-1.9,0.7-3.4c1.8-0.4,3.3-0.7,5-1c0.3-2,0.5-3.7,0.7-5.5c1.6-0.6,3-1.2,4.4-1.7c0-14.6,0-29,0-43.3
		c0.1-2.5,0.2-4.9,0.3-7.4c2.1,0.2,4.2,0.4,6.7,0.6c0,4.8,0,9.6,0,14.7c1.8,0.3,3.3,0.5,5,0.8c0,8.9,0,17.6,0,26.6
		c-1.6,0.1-3.1,0.3-4.9,0.5c0,5.3,0,10.3,0,15.3c0,0,0,0,0,0c-2.2,0.4-4.4,0.8-6.9,1.3c0,1.4,0,2.8,0,4.3c1.7,0.1,3.2,0.2,4.6,0.3
		c0.7,2.9,1.5,5.8,2.2,8.7c0.4,0,0.9,0,1.3,0c1.3,0.1,2.6,0.2,3.9,0.3c0,1.9,0,3.4,0,4.8c-1.7,0-3.4,0-5.4,0c0.1,2.1,0.2,3.6,0.3,5
		c0,2.9,0,5.9,0,8.8c-2.3,0.2-4.6,0.3-6.9,0.5c-0.1-2.5-0.1-4.9-0.2-7.4c0-0.3,0-0.7,0-1c0-1.6,0-3.2,0-4.9c0-0.3,0-0.7,0-1
		c0-3.5,0-6.9,0-10.7c-2.1,0.1-3.7,0.2-5.6,0.3c0,3.1,0,5.8,0,8.5c-1.3,0-2.6,0.1-3.8,0.1c-0.4,0.3-0.7,0.5-1.1,0.8
		c0,1.9,0,3.8-0.1,5.7c-1.6,0.2-3.1,0.4-5,0.6c0,1.6,0,3,0,4.4l-0.1,0c-1.6,0.1-3.1,0.3-4.7,0.4c-0.2,0.2-0.5,0.5-0.7,0.7
		c-2.6,1.6-5.3,3.2-8.8,5.3c0,0.2-0.2,1.9-0.3,3.6c0,1.9,0.1,3.8,0.1,5.7c2.9,0,5.8,0.1,8.8,0.1c1.9,0.1,3.9,0.1,5.8,0.2
		c0,1.9,0,3.7,0,5.6c0,0,0.1-0.1,0.1-0.1c-5.7,0-11.4,0-17.5,0c-0.1-1.7-0.3-3.4-0.5-5.4c-3.1,0-6.1,0-9.3,0
		c-0.1,1.7-0.2,3.3-0.3,5.3c-1.7,0.1-3.4,0.3-5.5,0.4c-0.2,1.4-0.5,2.9-0.8,4.6c-20.3,0-40.4,0-61,0c-0.2-1.3-0.4-2.8-0.7-4.5
		c-1.8-0.1-3.4-0.2-5.3-0.3c-0.1-1.7-0.3-3.4-0.5-5.9c-5,0-10.2,0-15.3,0c0,0,0.1,0.1,0.1,0.1c-0.1-0.3-0.2-0.6-0.2-0.9
		c0-1.3,0-2.7,0-4c-0.2-0.3-0.5-0.6-0.7-0.9c-1.4,0-2.8,0-4.2,0c-0.2-0.1-0.4-0.2-0.7-0.3c0.1-0.3,0-0.5-0.2-0.7c0-1.5,0-3,0-4.9
		c-2.3,0-4,0-5.8,0c-0.1-2.7-0.3-5.4-0.4-8.3c-2.1-0.2-3.9-0.4-5.8-0.6c-0.2-1.4-0.4-2.7-0.6-3.9c-1.9-0.4-3.9-0.8-5.8-1.2
		c-0.1-1.3-0.2-2.5-0.2-3.8c0-0.5,0-0.9,0-1.4c0.1-0.2,0.1-0.4,0-0.6c0-0.3,0-0.7,0-1c0-1.1,0-2.2,0-3.5c-2-0.2-3.9-0.3-5.8-0.5
		C30.5,176.1,30.3,175.9,30,175.8z"/>
	<path class="st4" d="M193.4,109.3c-0.1,2.5-0.2,4.9-0.3,7.4c-1.5,0.2-3,0.5-5,0.8c0,6.8,0,13.1,0,19.3c-2.1,0.5-3.6,0.8-5.6,1.3
		c0,5.5,0,10.8,0,16.2c-1.8,0.5-3.1,0.9-4.5,1.3c-0.3,1.8-0.6,3.3-1,4.9c-1.8,0.4-3.3,0.7-4.9,1c-0.3,2.1-0.6,4-1,5.9
		c-2.5,0.3-4.7,0.5-5.7,0.6c-1.7,3.7-3,6.5-4.1,9.1c-1.9,0.3-3.3,0.6-4.7,0.8c-0.5,1.6-1,2.9-1.5,4.6c-3.7,0-7.3,0-10.8,0
		c3.5-3.8,7-7.7,11.6-12.6c0-0.6,0-3,0-4.2c2.3-4.4,4-7.7,6.1-11.6c-1.1-0.4-2.1-0.7-3.1-1.1c0.2-1.4,0.4-2.8,0.5-4.2
		c1.6-0.6,3-1.1,2.4-0.9c2.2-4.5,3.6-7.5,5-10.4c0.1,1.5,0.3,3,0.5,4.9c2-0.3,3.3-0.5,5.1-0.7c0.1-1.7,0.2-3.1,0.2-4.5
		c0-3.5,0-7.1,0-10.7c1.8-0.6,3.3-1.1,4.7-1.6c0.2-1.5,0.4-2.8,0.5-4.1c1.3-0.1,2.7-0.2,4.3-0.3c0.1-1.4,0.2-2.6,0.3-3.8
		c0.1-2.6,0.1-5.2,0.2-7.7c3.6,0.2,7.3,0.3,10.9,0.5C193.5,109.4,193.4,109.3,193.4,109.3z"/>
	<path class="st2" d="M193.5,109.4c-3.6-0.2-7.3-0.3-10.9-0.5c0-2,0-4.1,0-6.4c-2.1,0-3.5,0-4.9,0c-1.8-0.3-3.7-0.5-6-0.8
		c0-4.3,0-8.3,0-12.3c0-2.1,0-4.2,0-6.9c-3.1,0-5.5,0-7.8,0c-0.1-1.6-0.1-3.2-0.2-5.3c-1.5,0-2.9,0-4.6,0c0,2,0,3.7,0,5.3
		c-1,0.1-2,0.3-3,0.4c-1.9-0.1-3.8-0.2-5.7-0.4c0.1-1.6,0.1-3.3,0.2-4.9c0.2-0.3,0.5-0.5,0.7-0.8c1.3-0.1,2.5-0.3,4.4-0.5
		c0-1.2,0-2.4,0-3.6c0.1-1,0.3-1.9,0.4-2.9c0.4-0.1,0.7-0.2,1.1-0.3c0.4,0,0.9,0,1.3,0c4.4,0,8.7,0,13.4,0c0,2.4,0,4.3,0,6.4
		c2,0.3,3.7,0.6,5.6,0.8c0.1,2,0.2,3.9,0.3,6.1c1.2,0.3,2.5,0.6,4,1c0,4.4,0,8.6,0,13.1c2,0.1,3.7,0.2,5.7,0.3
		c0.1,1.8,0.2,3.5,0.4,5.4c1.9,0.2,3.6,0.3,5.8,0.5C193.5,105.3,193.5,107.4,193.5,109.4z"/>
	<path class="st2" d="M61.2,55.8c6.8,0,13.7,0,20.8,0c0.3-1.6,0.5-3,0.8-4.5c9.3,0,18.5,0,28.1,0c0.1,1.2,0.1,2.5,0.2,3.7l-0.2,0.2
		c-1.3,0-2.6,0-3.9,0c-1.1,0.1-2.1,0.1-3.2,0.2c-1.7,0-3.4,0-5.3,0c-0.2,3.5-0.3,6.5-0.4,9.6c-0.6,0.1-1.2,0.2-1.8,0.2
		c-0.9,0-1.8,0-2.9,0c0,1.5,0,2.6,0,3.7l-0.4-0.1c-0.1,0.1-0.3,0.2-0.3,0.3c0,0.3,0.1,0.5,0.1,0.8c0,0.2,0.1,0.4,0.2,0.6
		c-1.6-0.1-3.1-0.1-5.1-0.2c-0.1-1.5-0.2-2.8-0.4-4.2c1.2-0.2,2.4-0.3,3.6-0.5c0.3-0.2,0.7-0.4,1-0.6c0-1.6,0-3.2,0-4.8
		c0-1.5,0-3,0-4.6c-1.8,0-3.3,0-5,0c0.1,1.8,0.1,3.2,0.2,4.6c0,1.7-0.1,3.4-0.1,5.1c-3.6,0-7.2-0.1-10.8-0.1
		c-0.1-1.4-0.3-2.7-0.4-4.1c-3.7,0-7,0-10.3,0c-1.7-0.2-3.3-0.4-5-0.6c0-1.4,0.1-2.8,0.1-4.2C61.1,56.1,61.2,55.8,61.2,55.8z"/>
	<path class="st2" d="M228,173c1.4,0,2.8,0,4.6,0c0,9.5,0,18.7,0,27.8c0,0-0.3,0.2-0.3,0.2c-0.3,0-0.6,0.1-0.8,0.3
		c-2.6,0-5.3-0.1-7.9-0.1c0-1.4,0-2.8,0.1-4.1c1.3-0.2,2.6-0.4,3.8-0.5c0-3.2,0-5.8,0-8.6c-1.4-0.2-2.6-0.3-3.9-0.5c0-1.7,0-3.3,0-5
		c1.3-0.2,2.5-0.3,4.3-0.6c0-1.2,0-2.4,0-3.6C227.9,176.5,228,174.8,228,173z"/>
	<path class="st1" d="M110.1,46.3c-9.1,0-18.2,0-27.5,0c0-2.1,0-3.7,0-5.9c9.2,0,18.4,0,27.6,0C110.2,42.4,110.1,44.3,110.1,46.3z"
		/>
	<path class="st1" d="M163.6,28.6c0.1-1.8,0.3-3.5,0.4-5.6c2.4,0,4.7,0,7.8,0c0,3.4,0,7,0,10.6c-0.4,0.2-0.8,0.5-1.2,0.7
		c-1.4,0-2.9,0-4.6,0c-0.1,1.9-0.2,3.5-0.3,5c-0.3,0.3-0.7,0.6-1,0.9c-1.2,0-2.4,0-3.6,0c-0.4-0.3-0.8-0.5-1.1-0.8
		c0-2.9,0-5.8,0-8.7c0.9-0.5,1.9-1,2.8-1.6C163.1,29,163.3,28.8,163.6,28.6z"/>
	<path class="st1" d="M228,173c0,1.7-0.1,3.5-0.1,5.2c-1.4-0.2-2.8-0.4-4.2-0.6c-1.8-0.4-3.7-0.8-6-1.3c0.1,2.3,0.2,3.7,0.3,5.1
		c0,0.3,0,0.7,0,1l-0.1,0.2c-0.4-1.4-0.8-2.7-1.1-4.1c-0.6-0.6-1.3-1.3-1.9-1.9c-3,0-6,0-8.9,0c-0.3,0-0.6,0.1-0.8,0.2
		c-1.3,0-2.6-0.1-3.9-0.1c-0.2,0.3-0.5,0.6-0.7,0.9c0,0.9,0,1.9,0,2.8c-0.1,0.3-0.2,0.7-0.3,1c0,0.3-0.1,0.6-0.1,0.8
		c-0.7-2.9-1.5-5.8-2.2-8.7c0.8-0.3,1.5-0.6,2.3-0.9c1.7,0,3.3,0.1,5,0.1c4.3,0,8.5-0.1,12.8-0.1c3,0,5.9,0.1,8.9,0.1
		C227.2,172.8,227.6,172.9,228,173z"/>
	<path class="st2" d="M36.5,46.3c5.2,0,10.4,0,15.8,0c0.4,1.6,0.7,3.1,1.1,4.7c2.3,0,4.4,0,7.2,0c0.1,1.4,0.1,2.7,0.2,4
		c-0.3-0.2-0.6-0.1-0.7,0.2c-3.7,0-7.3-0.1-11-0.1c-0.2-1.3-0.5-2.6-0.7-3.9c-2.1,0.1-3.5,0.2-4.9,0.3c-2.3-0.1-4.6-0.2-6.9-0.3
		C36.5,49.6,36.5,47.9,36.5,46.3L36.5,46.3z"/>
	<path class="st9" d="M117.7,55.7c0.8,0,1.6,0,2.4,0c1.2,0.1,2.3,0.2,3.5,0.3c6.6,0.1,13.2,0.2,19.7,0.2c0.2,0.3,0.5,0.6,0.7,0.9
		c0,1,0,1.9-0.1,2.9c-3.2,0-6.3,0.1-9.5,0.1c-2.9,0.2-5.8,0.5-8.8,0.7c-0.6,0.1-1.1,0.2-1.7,0.3c-1.7,0-3.4,0-5.1,0
		c-0.4,0-0.7,0-1.1,0c-0.1-0.3-0.1-0.6-0.1-0.9C117.8,58.6,117.8,57.1,117.7,55.7z"/>
	<path class="st8" d="M144,59.9c0-1,0-1.9,0.1-2.9c0-0.4,0.1-0.8,0.1-1.2c0-0.3,0-0.6-0.1-0.9c0.2-2.6,0.4-5.2,0.6-7.9
		c0.3,0,0.4-0.2,0.5-0.4c1.4,0,2.8,0,4.2,0c0.1,0.3,0.3,0.4,0.6,0.4c0.1,4.6,0.1,9.3,0.2,13.9c0,0,0-0.1,0-0.1
		c-1.7-0.1-3.3-0.2-5-0.3c-0.3-0.2-0.5-0.4-0.8-0.6C144.5,60.1,144,59.9,144,59.9z"/>
	<path class="st8" d="M218,172.6c-4.3,0-8.5,0.1-12.8,0.1c0-1.6,0-3.3,0-4.9c0,0-0.1-0.2-0.1-0.2c0.3-0.3,0.5-0.6,0.8-0.9
		c0,0,0.3-0.1,0.3-0.1c3.6,0,7.1-0.1,10.7-0.1c0.3,0.2,0.5,0.3,0.8,0.3c0.1,0.3,0.3,0.7,0.4,1C218.1,169.4,218,171,218,172.6z"/>
	<path class="st1" d="M157.1,69.5c-0.4,0.1-0.7,0.2-1.1,0.3c-1.9,0-3.7,0-5.6,0c-0.1-1.4-0.3-2.8-0.4-4.2c0.1-1.6,0.2-3.1,0.3-4.7
		c0,0,0,0.1,0,0.1c2.5,0,5,0,7.9,0c0.1,2.4,0.2,4.6,0.3,6.8c0,0.1-0.1,0.2-0.1,0.3c0,0.2,0.1,0.4,0.2,0.6c0,0-0.4,0.2-0.4,0.2
		C157.8,69.1,157.4,69.3,157.1,69.5z"/>
	<path class="st2" d="M216.8,166.5c-3.6,0-7.1,0.1-10.7,0.1c0-1.6,0.1-3.3,0.1-4.9c0.3,0,0.6-0.2,0.6-0.5c3.4,0,6.8,0,10.1,0
		c0,0.3,0.2,0.5,0.6,0.5c0,1.4,0,2.8,0,4.1C217.3,166,217.1,166.3,216.8,166.5z"/>
	<path class="st1" d="M86.6,34.3c-1.2,0-2.5,0-4,0c0-3.8,0-7.3,0-11.4c1.4-0.1,2.9-0.2,4.8-0.3c0,3.9,0,7.4,0,10.9
		C87.1,33.8,86.8,34.1,86.6,34.3z"/>
	<path class="st2" d="M218,172.6c0-1.6,0.1-3.2,0.1-4.8c2.7,0,5.5,0,8.7,0c0,1.8,0,3.3,0,4.9C223.9,172.6,221,172.6,218,172.6z"/>
	<path class="st2" d="M117.7,55.7c0,1.5,0,2.9,0,4.4c-1.4,1-2.8,1.9-4.2,2.9c-0.2,0.7-0.4,1.4-0.6,2c-0.7-3.3-1.4-6.6-2.1-9.8
		l0.2-0.2C113.3,55.2,115.5,55.4,117.7,55.7z"/>
	<path class="st10" d="M160,30.7c0,2.9,0,5.8,0,8.7c0,0.3-0.1,0.5-0.2,0.8c-1.2-1-3.5-2.4-3.3-3C157.3,34.9,158.8,32.9,160,30.7z"/>
	<path class="st8" d="M241.2,193c0,2.4,0,4.7,0,7.6c-1.6,0.1-2.9,0.3-4.2,0.4c1.1-2.8,2.1-5.6,3.2-8.4
		C240.5,192.7,240.9,192.8,241.2,193z"/>
	<path class="st6" d="M253,188.3c-0.1,1.4-0.2,2.8-0.3,4.6c-1.7,0.1-3.1,0.2-5.1,0.3c-0.1-1.8-0.2-3.4-0.4-4.9
		c0.3-0.3,0.6-0.5,0.9-0.8c1.3,0,2.7,0,4,0C252.4,187.8,252.7,188.1,253,188.3z"/>
	<path class="st2" d="M205.1,167.8c0,1.6,0,3.3,0,4.9c-1.7,0-3.3-0.1-5-0.1c0-1.6,0-3.3,0-4.9c0,0,0,0,0,0
		C201.9,167.7,203.5,167.8,205.1,167.8z"/>
	<path class="st11" d="M144.1,55c0.1,0.3,0.1,0.6,0.1,0.9c-0.3,0-0.6,0.1-0.8,0.2c-6.6-0.1-13.2-0.2-19.7-0.2c0-0.2,0-0.4-0.1-0.6
		C130.4,55.2,137.2,55.1,144.1,55z"/>
	<path class="st7" d="M110.1,46.3c0-2,0.1-3.9,0.1-5.9C110.2,42.4,110.1,44.3,110.1,46.3z"/>
	<path class="st12" d="M123.5,55.3c0.1,0.2,0.1,0.4,0.1,0.6c-1.2-0.1-2.3-0.2-3.5-0.3C121.3,55.5,122.4,55.4,123.5,55.3z"/>
	<path class="st7" d="M241.2,193c-0.4-0.1-0.7-0.3-1.1-0.4c0.3-0.1,0.6-0.3,1-0.4C241.2,192.4,241.2,192.7,241.2,193z"/>
	<path class="st7" d="M159.8,40.2c0.1-0.3,0.1-0.5,0.2-0.8c0.4,0.3,0.8,0.5,1.1,0.8C160.7,40.2,160.3,40.2,159.8,40.2z"/>
	<path class="st12" d="M60,55.3c0.2-0.3,0.4-0.4,0.7-0.2c0.2,0.3,0.3,0.5,0.5,0.8c0,0-0.1,0.3-0.1,0.3C60.7,55.8,60.4,55.6,60,55.3z
		"/>
	<path class="st7" d="M164.7,40.2c0.3-0.3,0.7-0.6,1-0.9C165.4,39.6,165.1,39.9,164.7,40.2z"/>
	<path class="st8" d="M253,188.3c-0.3-0.3-0.6-0.5-0.9-0.8c0.3-0.2,0.6-0.3,0.9-0.3C253,187.6,253,188,253,188.3z"/>
	<path class="st8" d="M248.1,187.6c-0.3,0.3-0.6,0.5-0.9,0.8c0-0.2-0.1-0.5-0.1-0.7C247.5,187.6,247.8,187.6,248.1,187.6z"/>
	<path class="st10" d="M242.2,187.6c-0.1,0.3-0.4,0.5-0.7,0.7C241.8,188,242,187.8,242.2,187.6z"/>
	<path class="st10" d="M150,47.2c-0.3,0-0.5-0.2-0.6-0.4C149.6,46.9,149.8,47,150,47.2z"/>
	<path class="st7" d="M170.6,34.3c0.4-0.2,0.8-0.5,1.2-0.7C171.4,33.8,171,34.1,170.6,34.3z"/>
	<path class="st10" d="M86.6,34.3c0.3-0.2,0.5-0.5,0.8-0.7C87.1,33.8,86.8,34.1,86.6,34.3z"/>
	<path class="st8" d="M157.1,69.5c0.4-0.2,0.7-0.4,1.1-0.7c0.3,0.1,0.3,0.4,0.2,0.6C157.9,69.5,157.5,69.5,157.1,69.5z"/>
	<path class="st7" d="M158.5,68.7c-0.1-0.2-0.2-0.4-0.2-0.6c0-0.1,0-0.2,0.1-0.3c0.1,0.2,0.3,0.4,0.4,0.6
		C158.8,68.5,158.6,68.6,158.5,68.7z"/>
	<path class="st10" d="M145.1,46.7c-0.1,0.3-0.2,0.4-0.5,0.4c0,0,0.1-0.4,0.1-0.4L145.1,46.7z"/>
	<path class="st13" d="M206.8,161.2c-0.1,0.3-0.3,0.5-0.6,0.5C206.4,161.5,206.6,161.3,206.8,161.2z"/>
	<path class="st7" d="M163.6,28.6c-0.2,0.2-0.5,0.4-0.7,0.6C163.1,29,163.3,28.8,163.6,28.6z"/>
	<path class="st13" d="M217.6,161.7c-0.3,0-0.5-0.2-0.6-0.5C217.2,161.3,217.4,161.5,217.6,161.7z"/>
	<path class="st13" d="M216.8,166.5c0.3-0.2,0.5-0.4,0.8-0.6c0.2,0.3,0.2,0.6,0,0.9C217.3,166.8,217.1,166.7,216.8,166.5z"/>
	<path class="st11" d="M205.8,166.7c-0.3,0.3-0.5,0.6-0.8,0.9C205.3,167.3,205.6,167,205.8,166.7z"/>
	<path class="st14" d="M29.1,109.9l0.2-0.4c0,0,0.4,0,0.4,0c0.3-0.2,0.6-0.3,0.9-0.5c1.8,0,3.6,0,5.3,0.1c2,0.5,4,1,6.2,1.6
		c0,1.6,0,3.1,0,4.6c-1.9,0.5-3.6,0.9-5.5,1.4c0.1,2.1,0.2,3.9,0.4,6.1c2.5,0,4.4,0,6.4,0c0,2.7,0,5.4,0,8.7c2.5,0,4.2,0,5.9,0
		c1.5,0.2,3,0.3,4.5,0.5c0.4,2,0.7,3.5,1.1,5.5c2.2,0,4.2,0,6.2,0c0.1,1.7,0.2,3.5,0.3,5.7c5.5,0,10.5,0,15.5,0c1.7,0,3.4,0,5.7,0
		c0-2.2,0-3.9,0-5.6c0.1-1.4,0.3-2.9,0.4-4.1c1.7-0.7,3.2-1.3,4.6-1.9c1.6,0.1,3.2,0.2,4.7,0.3c0,1.7,0,3.4,0,5.6c2.4,0,4.2,0,6.1,0
		c0.1,5,0.2,9.9,0.3,14.9c0,2.5,0,5,0,7.5c-0.1,4-0.3,8-0.4,12c-3.4,0-6.7,0-9.9,0c-0.7-2-1.2-3.4-1.9-5.1c-8.3,0-16.6,0-24.9,0
		c-0.4-2-0.8-3.6-1.2-5.8c-5.9,0-11.6,0-18.1,0c0-6.2,0-11.6,0-16.9c-2.2-0.7-3.7-1.1-5.5-1.6c-0.2-3.5-0.4-6.9-0.5-10.4
		c-2.7-0.2-5-0.3-7.2-0.5c-0.1-2.6-0.2-5.2-0.4-7.8C28.8,119,28.9,114.4,29.1,109.9z M75.9,162.6c2.5,0,4.2,0,6.2,0
		c0-1.6,0-2.9,0-4.3c-2.1,0-3.9,0-5.9,0C76.1,159.7,76,160.9,75.9,162.6z"/>
	<path class="st6" d="M61,137.4c-2,0-4,0-6.2,0c-0.4-2-0.7-3.5-1.1-5.5c-1.5-0.2-3-0.3-4.5-0.5c0-2.7,0-5.4,0-8.7
		c-2.4,0-4.2,0-5.9,0c-1.9,0-3.8,0-6.4,0c-0.1-2.2-0.2-4-0.4-6.1c1.9-0.5,3.6-0.9,5.5-1.4c0-1.6,0-3.1,0-4.6
		c-2.2-0.6-4.2-1.1-6.2-1.6c0.1-2,0.1-4,0.2-6l0-0.4c0,0,0.4,0,0.4,0c4.2-0.2,8.5-0.3,12.7-0.5c1.6,0.2,3.2,0.4,4.8,0.6
		c0.3,0.1,0.7,0.2,1,0.2c2,0,4,0.1,6,0.1c0,2.3,0,4.6,0,6.9c-4,0-8,0-12.2,0c0,2.2,0,3.9,0,5.5c1.9,0.4,3.5,0.8,5.1,1.1
		c0.2,2,0.4,3.7,0.7,5.7c2.3,0.2,4.3,0.3,6.4,0.5c0,1.9,0.1,3.9,0.1,5.8c0,1,0,2,0,2.9C61.1,133.5,61.1,135.4,61,137.4z"/>
	<path class="st2" d="M49.1,83c0-2.1,0-4.2,0-6.5c1.9-0.2,3.7-0.5,5.6-0.7c0-1.9,0-3.6,0-5.6c-1.8-0.1-3.4-0.2-5.2-0.3
		c-0.3-1.3-0.6-2.6-0.9-4.1c-4,0-7.7,0-11.8,0c-0.2-1.3-0.3-2.6-0.4-3.8c0.1-0.3,0.1-0.7,0.2-1c0,0,0,0,0,0c1.6-0.1,3.3-0.1,4.9-0.2
		c0.4,0,0.8,0,1.2-0.1c3.8,0.1,7.6,0.2,11.4,0.3c0.1,1.5,0.3,3,0.4,4.6c2.6,0,4.6,0,6.7,0c0,0-0.1,0.1-0.1,0.1c0,0.3,0,0.6,0.1,1
		c0.3,1.3,0.6,2.5,0.9,3.9c2.1-0.1,3.7-0.2,5.2-0.3c2.9,0.1,5.8,0.2,8.6,0.3c0.1,1.6,0.1,3.2,0.2,5.4c1.3,0,2.5,0,3.6,0
		c0,0,0.3,0.1,0.3,0.1l0.4-0.1c0.4,0.1,0.7,0.3,1.1,0.4c0.1,2,0.1,4,0.2,5.9c-1.8,0.1-3.7,0.2-5.8,0.3c0,2.5,0,4.6,0,6.6
		c-2.7,0-5.4-0.1-8-0.1c-0.2-0.4-0.4-0.8-0.6-1.2c0-1.8,0.1-3.7,0.1-5.5c1.3-1.4,2.7-2.9,5.4-5.9c-4.4,0-5.9,0-7.9,0
		c-0.3,2-0.6,3.9-0.9,5.7c-2,0.1-4,0.2-6,0.3c-1,0-2.1,0-3.1,0.1C53,82.9,51.1,83,49.1,83z"/>
	<path class="st2" d="M217.7,206.9c-0.1,1.9-0.1,3.9-0.2,5.8c-1.7,0.1-3.5,0.2-5.6,0.3c0.1,2.1,0.2,4,0.3,5.8c0,1.8,0,3.7,0.1,5.5
		c0,0.4,0,0.8-0.1,1.2c0.1,1.2,0.1,2.4,0.2,3.4c2.1,0.3,3.7,0.5,5.3,0.7c0.1,1.9,0.1,3.8,0.2,5.7l0.1-0.1c-1.9,0-3.8,0-6.1,0
		c-0.2,1.8-0.4,3.5-0.7,5.6c-1.7,0-3.4,0-5.1,0c0,0,0.1-0.3,0.1-0.3s-0.2-0.1-0.2-0.1c-0.1-1.7-0.2-3.4-0.3-5.1c0-2.3,0-4.5,0-6.8
		c0-1.5,0-3,0-4.7c-4.3,0-7.9,0-11.6,0c-0.2-0.1-0.5-0.2-0.8-0.2c0-1.5,0-3.1,0-4.6c4,0,7.9,0,12.2,0c0-2.5,0-4.3,0-6.2
		c0-2,0-4,0-5.9c2.1-0.1,4.2-0.2,6.4-0.2C213.8,206.8,215.8,206.9,217.7,206.9L217.7,206.9z"/>
	<path class="st1" d="M205.5,212.8c0,1.9,0,3.7,0,6.2c-4.2,0-8.2,0-12.2,0c-1.6-0.1-3.3-0.1-4.9-0.2c-0.2,0.3-0.4,0.6-0.6,0.8
		c0.2,1.6,0.4,3.1,0.5,4.7c0.2,1.3,0.4,2.6,0.7,4.1c2.1,0,3.6,0,5.2,0c0,0,0.1-0.1,0.1-0.1c0,2.3,0,4.6,0,6.9c-2.3,0-4.6,0-6.9,0
		c-1.6,0-3.1-0.1-4.7-0.1c-0.3-0.1-0.5-0.3-0.4-0.6c0-1.6,0-3.3,0.1-4.9c0-1.4,0.1-2.8,0.1-4.2c0-2.2,0-4.3,0.1-6.5
		c0.1-2,0.1-4.1,0.2-6.1c1.5-0.2,2.9-0.4,4.7-0.6c0-2.1,0-3.6,0-5.2c1.9-0.1,3.9-0.2,5.8-0.3c0.1,1.8,0.3,3.7,0.4,6
		C198,212.8,201.7,212.8,205.5,212.8z"/>
	<path class="st14" d="M223.1,241.5l-0.3,0c0,0-0.1-0.3-0.1-0.3c0-1.9-0.1-3.9-0.1-5.8c0.2-0.1,0.5-0.2,0.8-0.2c2.8,0,5.6,0,8.9,0
		c0-2.5,0-4.5,0-6.5c2.9,0,5.8,0,8.8,0c0.1,4.3,0.1,8.5,0.2,12.8c0,0,0-0.1,0-0.1C235.3,241.3,229.2,241.4,223.1,241.5z"/>
	<path class="st2" d="M49.2,102.2c-4.2,0.2-8.5,0.3-12.7,0.5c0-1.7,0-3.5,0-5.4c2.2-0.2,4.1-0.3,6.3-0.5c0-4.4,0-8.5,0-12.9
		c2.4-0.3,4.4-0.5,6.4-0.7c0,2.1,0,4.2,0.1,6.3c0,2.6,0,5.3,0,7.9C49.2,98.9,49.2,100.5,49.2,102.2z"/>
	<path class="st2" d="M36.6,212.8c-8.2,0-16.3,0-24.7,0c-0.3-2.2-0.5-4.1-0.7-6c0,0-0.2,0.1-0.2,0.1c0.7-0.1,1.4-0.1,2-0.2
		c1.3,0,2.6,0,3.8,0c1.3,0,2.6,0,4,0c0.4,0,0.8,0,1.2,0c2.5,0,5,0,7.6,0c0.3,0,0.7,0,1,0c1.9,0.1,3.7,0.2,5.6,0.3
		C36.3,209,36.4,210.9,36.6,212.8L36.6,212.8z"/>
	<path class="st2" d="M22.1,152.1c-1.6,0-3.2,0-4.9,0c0-9,0-17.7,0-26.5c2-0.1,3.7-0.3,5.5-0.4c-0.1,7-0.1,14-0.2,20.9
		C22.3,148.1,22.2,150.1,22.1,152.1z"/>
	<path class="st2" d="M61,212.7c-0.1,1.8-0.2,3.5-0.3,5.6c-7.9,0-15.9,0-24.2,0c0-1.9,0-3.7,0-5.6c0,0-0.1,0.1-0.1,0.1c2,0,4,0,6,0
		c4.5,0,9,0,13.5,0c1.4,0,2.7,0,4.1,0.1C60.4,212.9,60.8,212.9,61,212.7C61.1,212.8,61,212.7,61,212.7z"/>
	<path class="st9" d="M22.5,146.1c0.1-7,0.1-14,0.2-20.9c0.1-0.5,0.2-1.1,0.3-1.6c1.9,0,3.8,0,5.8,0c0.1,2.6,0.2,5.2,0.4,7.8
		c-0.1,5-0.2,9.9-0.3,14.9C26.6,146.2,24.5,146.2,22.5,146.1z"/>
	<path class="st2" d="M241.4,241.4c-0.1-4.3-0.1-8.5-0.2-12.8c0-1.3,0.1-2.7,0.1-4l0,0c2,0,3.9,0,5.9,0c0.1,1.4,0.2,2.8,0.4,4.4
		c2,0.3,3.8,0.5,5.7,0.7c-0.1,1.8-0.3,3.5-0.4,5.3c-1.8,0-3.5,0-5.7,0c-0.2,1.9-0.4,3.7-0.6,6C244.8,241.1,243.1,241.2,241.4,241.4z
		"/>
	<path class="st2" d="M223.1,241.5c6.1-0.1,12.2-0.2,18.3-0.2c0,1.8,0,3.6,0,5.7c-6.1,0-12.1,0-18.3,0
		C223.1,245,223.1,243.2,223.1,241.5z"/>
	<path class="st2" d="M205.2,241.7c0.1,1.7,0.2,3.5,0.3,5.4c-5.9,0-11.3,0-17.4,0c0-1.9,0-3.8,0-5.6c0,0,0.2,0.1,0.2,0.1l0.2-0.2
		c1.9,0,3.8-0.1,5.7-0.1c2,0,3.9,0,5.9,0c1.6,0,3.2,0,4.9,0l0,0.3C204.9,241.5,205.2,241.7,205.2,241.7z"/>
	<path class="st2" d="M17,192.3c0-3.2,0-6.5,0-10c4.4,0,8.4,0,12.4,0c0,1.6,0.1,3.2,0.1,4.8c0,0,0,0,0,0c-0.3,0-0.5,0-0.8,0
		c-0.3,0-0.6,0.1-0.9,0.1c-1.7,0.1-3.5,0.2-5.4,0.4c-0.2,1.8-0.3,3.3-0.5,4.9C20.2,192.3,18.6,192.3,17,192.3L17,192.3z"/>
	<path class="st2" d="M28.7,123.5c-1.9,0-3.8,0-5.8,0c0-4.5,0-8.9,0-13.7c2.1,0,4.1,0,6.2,0C28.9,114.4,28.8,119,28.7,123.5z"/>
	<path class="st4" d="M35.7,165.6c-2.1,0.4-4.3,0.7-6.4,1.1c0,0-0.1,0-0.1,0c-0.2-3.2-0.4-6.4-0.6-9.5c0,0,0.3-0.3,0.3-0.3
		c1.2,0.1,2.5,0.1,3.7,0.2c1.3,0.3,2.5,0.5,4.1,0.9C36.4,160.9,36,163.3,35.7,165.6z"/>
	<path class="st4" d="M22.5,146.1c2.1,0,4.2,0,6.3,0.1c0.1,2.2,0.1,4.5,0.2,6.7c0,1.3,0,2.6-0.1,3.9c0,0-0.3,0.3-0.3,0.3
		c-1.9-0.1-3.8-0.1-5.7-0.2c-0.3-1.6-0.6-3.2-0.8-4.8C22.2,150.1,22.3,148.1,22.5,146.1z"/>
	<path class="st2" d="M11.3,206.8c-2.2-0.1-4.5-0.2-6.9-0.4c0-3.1,0-6,0-9.4c2.4,0,4.8,0,7.2,0c-0.1,1.4-0.1,2.7-0.2,4.1
		c0,0.6,0,1.2,0,1.9c-0.1,1.3-0.2,2.6-0.3,4C11.1,206.9,11.3,206.8,11.3,206.8z"/>
	<path class="st2" d="M23,60.2c0-1.5-0.1-2.9-0.1-4.4c2.3-0.1,4.6-0.1,6.9-0.2c2.3,0.1,4.6,0.2,6.9,0.3l-0.2,0.2
		c0,1.6,0,3.3,0.1,4.9c0,0,0,0,0,0c-0.3,0-0.7,0.1-1,0.1c-4-0.1-7.9-0.2-11.9-0.3C23.6,60.4,23.4,60.2,23,60.2z"/>
	<path class="st2" d="M22.9,156.9c1.9,0.1,3.8,0.1,5.7,0.2c0.2,3.2,0.4,6.4,0.6,9.5c-2,0-4.1,0-6.3,0
		C22.9,163.2,22.9,160.1,22.9,156.9z"/>
	<path class="st10" d="M11.1,206.9c0.1-1.3,0.2-2.6,0.3-4c0-0.6,0-1.2,0-1.9c0.1-1.4,0.1-2.7,0.2-4.1c0,0-0.1,0.1-0.1,0.1
		c1.5,0.1,3,0.2,4.4,0.3c0.3,2.8,0.6,5.6,0.9,8.3c-1.2,0.3-2.5,0.6-3.7,0.9C12.5,206.8,11.8,206.9,11.1,206.9z"/>
	<path class="st15" d="M49.2,89.4c0-2.1,0-4.2-0.1-6.3c0,0,0-0.1,0-0.1c1.9,0,3.9,0,5.8,0c0,1.9,0,3.7,0,5.9
		c-1.4,0.3-2.6,0.5-3.8,0.7C50.5,89.5,49.9,89.4,49.2,89.4z"/>
	<path class="st5" d="M29.8,55.6c-2.3,0.1-4.6,0.1-6.9,0.2c-0.2-0.3-0.5-0.5-0.7-0.8c-0.1-0.3-0.2-0.5-0.3-0.8
		c0.1-1.1,0.3-2.1,0.4-3.2c2.4,0.1,4.8,0.2,7.2,0.4C29.6,52.8,29.7,54.2,29.8,55.6z"/>
	<path class="st15" d="M182.6,219c0,2.2,0,4.3-0.1,6.5c-1.6,0-3.2,0-4.8,0c-0.1-0.4-0.2-0.8-0.2-1.1c0.1-1.9,0.1-3.9,0.2-5.8
		c0,0-0.1,0.1-0.1,0.1C179.2,218.8,180.9,218.9,182.6,219z"/>
	<path class="st2" d="M36.1,103c-0.1,2-0.1,4-0.2,6c-1.8,0-3.6,0-5.3-0.1c-0.2-0.3-0.4-0.5-0.6-0.8c0-1.6,0-3.1,0-5.2
		C32.1,103,34.1,103,36.1,103z"/>
	<path class="st15" d="M29.5,187.1c0-1.6-0.1-3.2-0.1-4.8c2,0,4.1,0,6.1-0.1c0.3,0.4,0.6,0.8,0.8,1.1c0.1,1.3,0.2,2.5,0.2,3.8
		C34.2,187.1,31.9,187.1,29.5,187.1z"/>
	<path class="st2" d="M222.7,235.3c0,1.9,0.1,3.9,0.1,5.8c-1.4-0.1-2.8-0.1-4.5-0.2c-0.1-2-0.3-3.9-0.4-5.8c0,0-0.1,0.1-0.1,0.1
		C219.4,235.3,221.1,235.3,222.7,235.3z"/>
	<path class="st2" d="M182.8,235.2c1.6,0,3.1,0.1,4.7,0.1c0.1,1.6,0.1,3.3,0.2,4.9c-0.3,0.2-0.3,0.5-0.1,0.8c-1.4,0-2.8,0-4.7,0
		C182.8,239,182.8,237.1,182.8,235.2z"/>
	<path class="st2" d="M182.4,229.7c0,1.6,0,3.3-0.1,4.9c-1.4,0-2.8,0-4.6,0c0-1.8,0-3.5,0-5.2c0,0-0.1,0.1-0.1,0.1
		c0.3-0.1,0.6-0.1,1-0.2C179.9,229.4,181.1,229.6,182.4,229.7z"/>
	<path class="st2" d="M177.4,224.4c0.1,0.4,0.2,0.8,0.2,1.1c0,1,0,2,0,3c0,0.3,0,0.6,0,1c0,0,0.1-0.1,0.1-0.1
		c-1.6-0.1-3.1-0.2-4.9-0.3c0-1.6,0-2.9,0-4.7C174.4,224.4,175.9,224.4,177.4,224.4z"/>
	<path class="st2" d="M15.9,197.5c-1.5-0.1-3-0.2-4.4-0.3c0.1-1.4,0.3-2.8,0.5-4.6c1.7-0.1,3.4-0.2,5.1-0.2c0,0-0.1-0.1-0.1-0.1
		c-0.1,1.6-0.2,3.2-0.3,4.9C16.3,197,16,197.1,15.9,197.5z"/>
	<path class="st13" d="M29.9,108.2c0.2,0.3,0.4,0.5,0.6,0.8c-0.3,0.2-0.6,0.3-0.9,0.5C29.8,109,29.9,108.6,29.9,108.2z"/>
	<path class="st13" d="M30,175.8c0.3,0.1,0.5,0.3,0.6,0.6C30.3,176.2,30.1,176,30,175.8z"/>
	<path class="st13" d="M21.9,54.2c0.1,0.3,0.2,0.5,0.3,0.8c-0.4,0-0.8-0.1-1.1-0.1C21.3,54.6,21.6,54.4,21.9,54.2z"/>
	<path class="st13" d="M23,60.2c0.4,0,0.6,0.2,0.6,0.6C23.4,60.6,23.2,60.4,23,60.2z"/>
	<path class="st10" d="M36.4,183.4c-0.3-0.4-0.6-0.8-0.8-1.1c0.2-0.2,0.5-0.3,0.8-0.2C36.4,182.5,36.4,182.9,36.4,183.4z"/>
	<path class="st11" d="M36.4,180.5c0,0.3,0,0.7,0,1c-0.1-0.2-0.2-0.5-0.3-0.7C36,180.7,36.3,180.6,36.4,180.5z"/>
	<path class="st14" d="M187.5,241.1c-0.2-0.3-0.1-0.6,0.1-0.8c0.3,0.4,0.6,0.8,1,1.1l-0.2,0.2c0,0-0.2-0.1-0.2-0.1c0,0-0.4,0-0.4,0
		L187.5,241.1z"/>
	<path class="st3" d="M206,240.4l0.2,0.1c0,0-0.1,0.3-0.1,0.3c-0.3,0.3-0.6,0.6-0.9,0.8c0,0-0.2-0.1-0.2-0.1s0-0.3,0-0.3
		C205.3,241,205.6,240.7,206,240.4z"/>
	<path class="st10" d="M253.4,240.3c0.3,0.1,0.5,0.3,0.5,0.6C253.8,240.7,253.6,240.5,253.4,240.3z"/>
	<path class="st11" d="M35.6,61.1c0.3,0,0.7-0.1,1-0.1c-0.1,0.3-0.1,0.7-0.2,1C36.1,61.7,35.8,61.4,35.6,61.1z"/>
	<path class="st6" d="M217.7,229.6c-1.6-0.2-3.2-0.4-5.3-0.7c-0.1-1.1-0.1-2.3-0.2-3.4c0.2-0.3,0.4-0.7,0.7-1c0,0,0.2-0.3,0.2-0.3
		l0.4,0.2l0.4-0.1c1,0,2,0,3,0c0.3-0.2,0.6-0.4,0.9-0.7c0.1-1.4,0.2-2.7,0.4-4.1c0.1-0.1,0.2-0.3,0.2-0.3c-0.1-0.2-0.3-0.3-0.5-0.5
		c-1.8,0-3.7,0-5.5,0c-0.1-1.9-0.2-3.7-0.3-5.8c2.2-0.1,3.9-0.2,5.6-0.3c3,0,6.1,0,9,0c0.9,2.4,1.5,4.2,2.2,6.1
		c0,1.9-0.1,3.7-0.2,5.6c-2.2,0.9-4.3,1.7-6.5,2.6c0.1,0.3,0.2,0.6,0.3,1C220.9,228.6,219.3,229.1,217.7,229.6z"/>
	<path class="st2" d="M228.6,224.5c0.1-1.9,0.1-3.7,0.2-5.6c4.2,0,8.3,0.1,12.5,0.1c0,1.9,0,3.7,0,5.6c0,0,0,0,0,0c-3,0-5.9,0-8.9,0
		C231.2,224.5,229.9,224.5,228.6,224.5L228.6,224.5z"/>
	<path class="st6" d="M241.3,212.9c-2.4,0-4.8,0-7.5,0c0-2.2,0-3.7,0-5.9c2.7,0,5,0,7.4,0C241.3,208.9,241.3,210.9,241.3,212.9z"/>
	<path class="st6" d="M223.6,201.2c2.6,0,5.3,0.1,7.9,0.1c0.3,0.2,0.6,0.4,0.9,0.6c0,1.4,0,2.8,0,6c-3.8-2.4-6.5-4.2-9.2-5.9
		c-0.2,0.1-0.3,0.1-0.5,0C223,201.7,223.3,201.4,223.6,201.2z"/>
	<path class="st9" d="M241.3,224.6c0-1.9,0-3.7,0-5.6c0.1-0.3,0.3-0.4,0.6-0.3c1.8,0,3.5,0,5.3,0c0,2,0,4,0,5.9
		C245.2,224.6,243.2,224.6,241.3,224.6z"/>
	<path class="st8" d="M241.3,212.9c0-2,0-3.9,0-5.9c1.9-0.1,3.8-0.1,5.7-0.2c0,0,0.2,0.2,0.2,0.2c0,2,0,3.9,0,5.9
		c-1.8,0.1-3.7,0.2-5.5,0.3C241.6,213.1,241.4,213,241.3,212.9z"/>
	<path class="st8" d="M253.1,201.1c0,1.8,0,3.6,0,5.4c-0.1,0.2-0.1,0.4,0,0.5c-2,0-3.9-0.1-5.9-0.1c0,0-0.2-0.2-0.2-0.2
		c0.2-1.6,0.3-3.2,0.5-5.4C249.4,201.3,251.2,201.2,253.1,201.1z"/>
	<path class="st2" d="M241.7,213.1c1.8-0.1,3.7-0.2,5.5-0.3c0,0-0.1-0.1-0.1-0.1c0.1,0.3,0.2,0.7,0.2,1c-0.1,1.6-0.2,3.2-0.2,4.9
		c-1.8,0-3.5,0-5.3,0C241.8,216.8,241.8,215,241.7,213.1z"/>
	<path class="st2" d="M223.2,202c-0.2,1.4-0.5,2.8-0.8,4.5c-1.6,0.1-3.2,0.2-4.8,0.4c0,0,0.1,0.1,0.1,0.1c0-1.6,0.1-3.3,0.1-4.9
		c1.6,0,3.2-0.1,4.8-0.1C222.9,202.1,223.1,202.1,223.2,202z"/>
	<path class="st12" d="M232.4,201.9c-0.3-0.2-0.6-0.4-0.9-0.6c0.2-0.2,0.5-0.3,0.8-0.3C232.4,201.3,232.4,201.6,232.4,201.9z"/>
	<path class="st6" d="M4.7,40.5c0,0-0.4,0-0.4,0c0-1.9,0-3.8,0-5.7c4.2-0.1,8.5-0.1,12.7-0.2c-0.1,2-0.1,3.9-0.2,5.9
		C12.8,40.4,8.7,40.4,4.7,40.5z"/>
	<path class="st1" d="M29.5,51.4c-2.4-0.1-4.8-0.2-7.2-0.4c0-1.4,0-2.8,0-4.8c5,0,9.7,0,14.3,0c0,1.7-0.1,3.3-0.1,5c0,0,0.1,0,0.1,0
		C34.2,51.3,31.9,51.3,29.5,51.4z"/>
	<path class="st1" d="M4.7,40.5c4,0,8,0,12.1-0.1c0,1.4,0,2.7,0.1,4.1c-1.9,0.1-3.7,0.1-5.6,0.2c-0.4,0-0.9,0-1.3,0
		c-1.2,0-2.4,0-3.6,0c-0.4-0.1-0.8-0.1-1.2-0.2c0,0-0.3,0-0.3,0C4.8,43.1,4.8,41.8,4.7,40.5z"/>
	<path class="st9" d="M11.3,44.7c1.9-0.1,3.7-0.1,5.6-0.2c0,1.9,0,3.8,0,6.2c-2,0-3.9,0-5.7,0c0-1.8,0-3.5,0-5.2
		C11.2,45.2,11.2,44.9,11.3,44.7z"/>
	<path class="st2" d="M247.2,207c2,0,3.9,0.1,5.9,0.1c0,1.7,0,3.4,0,5.4c-1.9,0.2-3.4,0.4-4.9,0.5c-0.3-0.1-0.7-0.1-1-0.2
		c0,0,0.1,0.1,0.1,0.1C247.2,210.9,247.2,208.9,247.2,207z"/>
	<path class="st5" d="M247.2,212.8c0.3,0.1,0.7,0.1,1,0.2c-0.3,0.3-0.5,0.5-0.8,0.8C247.3,213.5,247.2,213.1,247.2,212.8z"/>
	<path class="st12" d="M5.2,44.5c0.4,0.1,0.8,0.1,1.2,0.2C5.9,44.6,5.6,44.5,5.2,44.5z"/>
	<path class="st12" d="M11.3,44.7c0,0.2-0.1,0.5-0.2,0.7c-0.4-0.2-0.7-0.5-1.1-0.7C10.4,44.7,10.8,44.7,11.3,44.7z"/>
	<path class="st3" d="M29,152.9c-0.1-2.2-0.1-4.5-0.2-6.7c0.1-5,0.2-9.9,0.3-14.9c2.3,0.1,4.5,0.3,7.2,0.5c0.2,3.6,0.4,6.9,0.5,10.4
		c1.8,0.5,3.3,1,5.5,1.6c0,5.2,0,10.7,0,16.9c6.4,0,12.2,0,18.1,0c0.5,2.2,0.8,3.8,1.2,5.8c8.3,0,16.5,0,24.9,0
		c0.6,1.8,1.1,3.1,1.9,5.1c3.1,0,6.5,0,9.9,0c0,5.2,0,10.4,0,15.7c-4,0-8,0-10.7,0c-2.1,2.7-3.4,4.5-5.9,7.6c-0.8-4-1.1-5.6-1.5-7.6
		c-4.3,0.3-8.3,0.5-12.4,0.7c-0.6-2.1-1-3.8-1.6-5.7c-2.2,0-4.1,0-6,0c-0.2-1.5-0.3-3-0.6-5.6c-2.6,1.1-4.4,1.8-5.5,2.3
		c-2-0.5-4-0.9-6-1.4c-1.6,0-3.2,0-5,0c-0.4-1.8-0.7-3.3-1-5c-1.9-0.2-3.7-0.3-6-0.5c-0.1-2.2-0.2-4.4-0.4-6.6
		c0.3-2.4,0.6-4.7,1-7.7c-1.6-0.3-2.9-0.6-4.1-0.9c-0.1-1.1-0.2-2.2-0.3-3.5C31.1,153.3,30,153.1,29,152.9z"/>
	<path class="st13" d="M144.4,182.5c3.6,0,7.1,0,10.8,0c0.6-1.7,1-3,1.5-4.6c1.3-0.2,2.7-0.5,4.7-0.8c1.2-2.6,2.4-5.4,4.1-9.1
		c1-0.1,3.2-0.4,5.7-0.6c0.3-1.9,0.6-3.8,1-5.9c1.6-0.3,3.1-0.7,4.9-1c0.3-1.6,0.6-3.1,1-4.9c1.3-0.4,2.7-0.8,4.5-1.3
		c0-5.4,0-10.7,0-16.2c2-0.4,3.5-0.8,5.6-1.3c0-6.2,0-12.5,0-19.3c2-0.3,3.5-0.5,5-0.8c0,14.3,0,28.7,0,43.3
		c-1.4,0.6-2.8,1.1-4.4,1.7c-0.2,1.7-0.5,3.5-0.7,5.5c-1.6,0.3-3.2,0.7-5,1c-0.3,1.5-0.6,3.1-0.7,3.4c-2.5,2.3-4.1,3.8-7.6,7
		c1.2-0.3-0.2,0.1,0.6-0.2c-3.2,3-4.8,4.6-7.4,7.1c0,0-0.2,1.4-0.4,2.4c-4.6,2.8-8.9,5.5-15.3,9.4c-0.5,0-3.7,0-7.1,0
		c-0.5,1.6-0.9,3-1.4,4.6c-5.3,0-10.4,0-15.8,0c-0.7,1.7-1.3,3.1-2,4.8c-2.4,0-4.8,0-7.2,0c0-1.6,0-3.1,0-4.7c1.5-0.2,3-0.4,4.7-0.7
		c0.5-3.3,0.9-6.2,1.4-9.1c3.9,0,7.8,0,11.8,0c0.6-1.7,1.1-3.2,1.7-4.6c1.9-0.2,3.7-0.4,5.7-0.7
		C144.1,185.4,144.2,183.9,144.4,182.5z"/>
	<path class="st9" d="M118.7,202c0,1.6,0,3.1,0,4.7c-12.2,0-24.4,0-36.9,0c-0.5-1.7-1.1-3.4-1.8-5.7c-3,0-6.1,0-9.1,0
		c-0.1-1.1-0.2-2.2-0.3-3.4c-0.9-0.2-1.7-0.4-2.4-0.6c0,0-0.2,0-0.2,0.1c-0.2-1.5-0.3-3.1-0.5-4.9c-3.1,0-5.7,0-8.3,0c0,0,0,0,0,0
		c-0.2-1.2-0.4-2.3-0.6-3.8c-1.7,0-3.1,0-4.4,0c-0.3-2-0.6-4-0.8-5.9c2.3,0,4.5,0,6.8,0c1.9,0,3.9,0,6,0c0.5,2,1,3.6,1.6,5.7
		c4.1-0.2,8.2-0.5,12.4-0.7c0.4,2.1,0.7,3.6,1.5,7.6c2.4-3.2,3.8-4.9,5.9-7.6c2.7,0,6.7,0,10.7,0c0.1,1.3,0.2,2.6,0.3,4
		c0,1.8,0,3.7,0,5.7c1.9,0,3.3,0,4.7,0c1.2,0,2.5-0.1,3.7-0.1l0.5,0.1l0.5,0C111.5,198.6,115.1,200.3,118.7,202z"/>
	<path class="st6" d="M162.9,207c0.1-1.7,0.3-3.4,0.3-3.6c3.5-2.1,6.2-3.7,8.8-5.3c0.2-0.2,0.5-0.5,0.7-0.7c1.6-0.1,3.1-0.3,4.7-0.4
		c0.1,1.4,0.2,2.7,0.2,4.1c0,2,0,4,0.1,6c-1.8,0-3.6,0-5.9,0c0,2.4,0,4.1,0,5.8c-2.9,0-5.8-0.1-8.8-0.1
		C163,210.8,162.9,208.9,162.9,207z"/>
	<path class="st1" d="M177.6,201.1c-0.1-1.4-0.2-2.7-0.2-4.1c0,0,0.1,0,0.1,0c1.5,0,3.1,0,5,0c0-2.1,0-3.5,0-5c0-1.9,0-3.8,0.1-5.7
		c0.4-0.3,0.7-0.5,1.1-0.8c1.3,0,2.6-0.1,3.8-0.1c1.6,0.6,3.3,1.3,4.9,1.9c0.3,0.3,0.5,0.6,0.8,1c0,1.6,0,3.2,0,4.9
		c-0.3,0-0.5,0-0.8,0.1c-1.5,0.1-3,0.1-4.9,0.2c0,3,0,5.5,0,8c-1.3,0.1-2.7,0.2-4,0.3C181.5,201.6,179.6,201.3,177.6,201.1z"/>
	<path class="st1" d="M42.5,188.4c0.2,1.3,0.4,2.5,0.6,3.9c1.9,0.2,3.6,0.4,5.8,0.6c0.1,2.8,0.3,5.6,0.4,8.3
		c-0.2,0.1-0.4,0.1-0.6,0.2c-2.1,0.2-4.1,0.4-6.2,0.7c-2,0-3.9,0-5.9,0c0-2,0-3.9,0-5.9c1.8-0.6,3.5-1.3,7.2-2.6
		c-3.8-0.3-5.6-0.4-7.3-0.5c0.2-1.5,0.4-3,0.6-4.8C39.2,188.4,40.8,188.4,42.5,188.4z"/>
	<path class="st6" d="M205.5,212.8c-3.8,0-7.6,0-11.8,0c-0.2-2.3-0.3-4.2-0.4-6c0-1.8,0.1-3.6,0.1-5.3c0,0,0,0.1,0,0.1
		c2.3-0.2,4.6-0.3,6.9-0.5c0,0,0-0.1,0-0.1c0,1.7,0,3.3,0.1,5c0.3,0.2,0.6,0.5,0.9,0.7c1,0,2,0,3,0c0.5,0.1,1,0.2,1.5,0.2
		c0,0-0.1-0.1-0.1-0.1C205.5,208.9,205.5,210.9,205.5,212.8z"/>
	<path class="st1" d="M205.5,206.9C205.5,206.9,205.6,207,205.5,206.9c-0.1-0.2-0.2-0.5-0.4-0.8c0-1.4,0-2.7,0-4.1
		c-1.9-0.4-3.4-0.7-5-1c0,0,0,0.1,0,0.1c0-2.9,0-5.9,0-8.8c1.8,0,3.6,0,5.4,0c0.3,2.7,0.5,5.4,0.8,8.5c2,0.1,3.7,0.2,5.5,0.3
		c0,1.8,0,3.7,0,5.5C209.7,206.7,207.6,206.8,205.5,206.9z"/>
	<path class="st7" d="M56,212.8c-4.5,0-9,0-13.5,0c0-2,0-3.9,0-5.9l0.1,0.1c2.2-0.1,4.4-0.2,6.6-0.4c0.3,0,0.7-0.1,1-0.1
		c1.4,0,2.7,0,4.1,0c0.3,0,0.6,0.1,1,0.1c0.2,0.1,0.5,0.2,0.7,0.3C56,208.9,56,210.9,56,212.8z"/>
	<path class="st0" d="M201.1,176.7c1.3,0,2.6,0.1,3.9,0.1c0.2,0.2,0.4,0.5,0.5,0.7c0.1,1.5,0.3,3,0.4,4.6c2.2,0.1,4.1,0.2,6,0.4
		c0,0.3,0.1,0.6,0.3,0.9c0,1,0,2.1,0,3.1c-0.1,0.3-0.1,0.7-0.2,1c-2,0.2-4,0.4-6,0.6c-0.2-0.3-0.5-0.5-0.7-0.8c0-1.4,0-2.8,0-4.8
		c-1.3-0.1-2.6-0.2-3.9-0.3c0-0.3-0.1-0.5-0.3-0.7c-0.2-0.4-0.4-0.7-0.6-1.1c0-0.9,0-1.9,0-2.8C200.7,177.3,200.9,177,201.1,176.7z"
		/>
	<path class="st15" d="M192.3,187.3c-1.6-0.6-3.3-1.3-4.9-1.9c0-2.7,0-5.4,0-8.5c2-0.1,3.5-0.2,5.6-0.3c0,3.7,0,7.2,0,10.7
		C192.8,187.3,192.5,187.3,192.3,187.3z"/>
	<path class="st5" d="M60.1,182.4c-2.3,0-4.5,0-6.8,0c-1.4-0.1-2.8-0.2-4.3-0.4c-0.3-1.6-0.6-3-0.8-4.4c2,0.5,3.9,0.9,6,1.4
		c1.1-0.5,2.9-1.2,5.5-2.3C59.8,179.4,60,180.9,60.1,182.4z"/>
	<path class="st14" d="M193.3,201.6C193.3,201.6,193.4,201.5,193.3,201.6c-1.9-0.1-3.9,0-5.9,0c0-2.5,0-5,0-8
		c1.9-0.1,3.4-0.2,4.9-0.2c0.3,0.3,0.5,0.6,0.8,0.9C193.2,196.7,193.2,199.1,193.3,201.6z"/>
	<path class="st6" d="M42.5,188.4c-1.6,0-3.2,0-5.4,0c-0.2,1.7-0.4,3.2-0.6,4.8c-2.3,0-4.5,0-6.8,0c-0.1-2-0.2-4.1-0.2-6.1
		c0,0,0,0,0,0c2.4,0,4.7,0,7.1,0.1C38.6,187.6,40.5,188,42.5,188.4z"/>
	<path class="st11" d="M200.2,167.7c0,1.6,0,3.3,0,4.9c-0.8,0.3-1.5,0.6-2.3,0.9c-1.4-0.1-2.9-0.2-4.6-0.3c0-1.5,0-2.9,0-4.3
		C195.8,168.5,198,168.1,200.2,167.7z"/>
	<path class="st13" d="M59.2,192.2c2.6,0,5.2,0,8.3,0c0.2,1.8,0.4,3.4,0.5,4.9C65,195.5,62.1,193.8,59.2,192.2z"/>
	<path class="st1" d="M171.8,212.8c0-1.7,0-3.4,0-5.8c2.3,0,4.1,0,5.9,0c0,0,0.2,0.1,0.2,0.1c0,1.6,0,3.1,0.1,4.7
		c-0.1,0.4-0.2,0.7-0.3,1.1c0,0-0.1,0.1-0.1,0.1C175.6,212.9,173.7,212.9,171.8,212.8z"/>
	<path class="st6" d="M54.3,206.6c-1.4,0-2.7,0-4.1,0c-0.3-0.2-0.6-0.4-0.9-0.7c-0.2-1.5-0.4-3.1-0.7-4.6c0.2-0.1,0.4-0.2,0.6-0.2
		c1.7,0,3.5,0,5.8,0c0,1.8,0,3.3,0,4.9C54.8,206.2,54.5,206.4,54.3,206.6z"/>
	<path class="st6" d="M205.3,187.3c0.2,0.3,0.5,0.5,0.7,0.8c0,1.4,0,2.8,0,4.2c0,0-0.4,0-0.4,0c-1.8,0-3.6,0-5.4,0
		c-0.1-1.4-0.2-2.9-0.3-5C201.9,187.3,203.6,187.3,205.3,187.3z"/>
	<path class="st7" d="M182.6,219c-1.7-0.1-3.4-0.3-5-0.4c0-1.9,0-3.8,0-5.6c0,0,0.1-0.1,0.1-0.1c0.6-0.1,1.3-0.2,1.9-0.3
		c0.7,0,1.4,0,2.1,0c0.3,0.1,0.6,0.1,1,0.2c0,0,0.2,0.2,0.2,0.2C182.7,215,182.6,217,182.6,219z"/>
	<path class="st1" d="M56,212.8c0-1.9-0.1-3.9-0.1-5.8c1.4,0,2.8,0,4.2,0c0.2,0.3,0.5,0.6,0.7,0.9c0,1.3,0,2.7,0,4
		c-0.2,0.3-0.5,0.7-0.7,1C58.8,212.9,57.4,212.8,56,212.8z"/>
	<path class="st10" d="M182.4,192.1c0,1.4,0,2.8,0,5c-1.9,0-3.5,0-5,0c0-1.4,0-2.8,0-4.4C179.3,192.4,180.9,192.2,182.4,192.1z"/>
	<path class="st13" d="M54.2,188.4c1.4,0,2.7,0,4.4,0c0.2,1.5,0.4,2.6,0.6,3.8C57.5,190.9,55.8,189.6,54.2,188.4z"/>
	<path class="st4" d="M68.2,197c0.7,0.2,1.5,0.4,2.4,0.6c0.1,1.2,0.2,2.3,0.3,3.4c-0.8-0.2-1.7-0.4-2.7-0.6
		C68.2,199.2,68.2,198.1,68.2,197z"/>
	<path class="st4" d="M162.9,207c0,1.9,0.1,3.8,0.1,5.7C163,210.8,162.9,208.9,162.9,207z"/>
	<path class="st3" d="M193.1,194.2c-0.3-0.3-0.5-0.6-0.8-0.9c0.2-0.1,0.5-0.1,0.8-0.1C193.1,193.5,193.1,193.9,193.1,194.2z"/>
	<path class="st14" d="M172.7,197.4c-0.2,0.2-0.5,0.5-0.7,0.7C172.2,197.9,172.5,197.6,172.7,197.4z"/>
	<path class="st8" d="M54.3,206.6c0.3-0.2,0.5-0.4,0.8-0.6c0.2,0.2,0.3,0.4,0.2,0.7C54.9,206.7,54.6,206.6,54.3,206.6z"/>
	<path class="st8" d="M60.8,207.9c-0.2-0.3-0.5-0.6-0.7-0.9C60.4,207.3,60.6,207.6,60.8,207.9z"/>
	<path class="st8" d="M60.1,212.9c0.2-0.3,0.5-0.7,0.7-1c0.1,0.3,0.2,0.6,0.2,0.9C60.8,212.9,60.4,212.9,60.1,212.9z"/>
	<path class="st8" d="M192.3,187.3c0.2-0.1,0.5-0.1,0.7,0c0,0.3,0,0.7,0,1C192.8,188,192.6,187.7,192.3,187.3z"/>
	<path class="st12" d="M183.6,185.6c-0.4,0.3-0.7,0.5-1.1,0.8C182.9,186.1,183.2,185.8,183.6,185.6z"/>
	<path class="st12" d="M201.1,181.5c0.1,0.2,0.2,0.5,0.3,0.7c-0.4,0-0.9,0-1.3,0c0.1-0.3,0.1-0.6,0.1-0.8c0,0,0.4,0.2,0.4,0.2
		L201.1,181.5z"/>
	<path class="st3" d="M166.8,137.5c-1.4,3-2.8,5.9-5,10.4c0.6-0.2-0.8,0.3-2.4,0.9c-0.2,1.4-0.4,2.8-0.5,4.2c-0.9,0-1.9,0-2.8,0
		c-1.7,0.1-3.4,0.2-5.4,0.3c-0.1,1.5-0.2,2.6-0.3,3.8c-0.2,1.2-0.5,2.4-0.7,3.4c-2,0.4-3.5,0.7-5,1c-0.3,2.1-0.5,3.8-0.8,5.7
		c-2.1,0.3-4,0.6-6.1,0.9c-0.3,3.2-0.5,6.1-0.8,9.2c-2.9,0.2-5.3,0.4-7.7,0.6c-0.5,1.6-1,3-1.4,4.4c-1.5,0.1-2.8,0.2-4.1,0.3
		c-2.1,0-4.3,0-6.6,0c-0.1,2-0.2,3.4-0.3,4.8c-1.6,0-3.3,0.1-4.9,0.1c-0.1-1.7-0.1-3.4-0.2-5.1c0-5.1,0.1-10.3,0.1-15.4
		c1.9-0.1,3.7-0.3,5.4-0.4c0.5-2.1,0.8-3.7,1.2-5.3c3.4-0.2,6.6-0.4,9.7-0.6c0.4-2.4,0.7-4.3,1-6.2c2.8-0.2,5.3-0.5,7.7-0.7
		c0.5-2,0.8-3.6,1.2-5.3c4-0.2,7.8-0.4,11.5-0.5c0.5-2.1,0.8-3.6,1.2-5.2c1.6-0.3,3.1-0.5,4.5-0.7c0.6-1.6,1.2-3,1.7-4.3
		c2-0.2,3.5-0.4,4.4-0.5c1.8-2.4,3.2-4.3,5.4-7.1c0.1-0.4,0.3-2.1,0.5-3.7c1.6-0.6,2.9-1,4-1.4c0.7-2.8,1.3-5.3,2-7.8
		c1.7-0.2,2.9-0.4,4.2-0.5l0.3,0.3c0,1.3,0.1,2.6,0.1,3.9c-0.2,1.3-0.3,2.6-0.5,4.1c-1.4,0.5-2.8,1-4.7,1.6c0,3.6,0,7.1,0,10.7
		C170.7,137.3,168.8,137.4,166.8,137.5z"/>
	<path class="st9" d="M156,153c0.9,0,1.9,0,2.8,0c1,0.4,2.1,0.7,3.1,1.1c-2.1,4-3.8,7.2-6.1,11.6c0,1.2,0,3.6,0,4.2
		c-4.5,4.9-8,8.8-11.6,12.6c-0.1,1.4-0.2,2.8-0.4,4.5c-2,0.2-3.8,0.5-5.7,0.7c-0.5,1.4-1,2.9-1.7,4.6c-4,0-7.9,0-11.8,0
		c-4.3,0-8.6-0.1-12.9-0.1c0-1.6,0.1-3.1,0.1-4.7c1.6,0,3.3-0.1,4.9-0.1c2.1,0,4.1,0,6.4,0c0.2-2,0.4-3.4,0.5-4.8
		c1.3-0.1,2.6-0.2,4.1-0.3c0.5-1.4,0.9-2.7,1.4-4.4c2.4-0.2,4.7-0.4,7.7-0.6c0.3-3,0.5-6,0.8-9.2c2.1-0.3,4-0.6,6.1-0.9
		c0.3-1.9,0.5-3.6,0.8-5.7c1.5-0.3,3-0.6,5-1c0.2-1,0.5-2.2,0.7-3.4c1.6-0.1,3.2-0.2,5.2-0.3C155.7,155.5,155.9,154.2,156,153z"/>
	<path class="st3" d="M177.7,102.5c1.4,0,2.8,0,4.9,0c0,2.3,0,4.3,0,6.4c-0.1,2.6-0.1,5.2-0.2,7.7c-1.6,0.1-3.1,0.2-4.7,0.3
		c0,0-0.3-0.3-0.3-0.3c0.1-2.3,0.1-4.5,0.2-6.8C177.7,107.4,177.7,105,177.7,102.5z"/>
	<path class="st9" d="M166.8,137.5c1.9-0.1,3.8-0.2,5.8-0.3c-0.1,1.4-0.1,2.8-0.2,4.5c-1.7,0.3-3.1,0.5-5.1,0.7
		C167.1,140.5,167,139,166.8,137.5z"/>
	<path class="st9" d="M177.7,116.9c1.6-0.1,3.1-0.2,4.7-0.3c-0.1,1.2-0.2,2.4-0.3,3.8c-1.6,0.1-3,0.2-4.3,0.3
		C177.8,119.5,177.8,118.2,177.7,116.9z"/>
	<path class="st15" d="M150,65.6c0.1,1.4,0.3,2.8,0.4,4.2c0,0-0.3,0.1-0.3,0.1c-1.9,0-3.7,0-5.9,0c0.1,2.6,0.2,4.4,0.3,6.5
		c2.2,0,3.9,0,5.5,0c0,0,0.4,0.2,0.4,0.2c0,0.3,0,0.7,0,1c-0.1,1.6-0.1,3.3-0.2,4.9l-0.1,0.1c-1.9,0.2-3.7,0.3-5.6,0.5
		c0,2.3,0,4.2,0,6.3c2.1,0,3.8,0,5.5,0c0,0,0.2,0.2,0.2,0.2c0,2.6,0,5.2,0,7.8c-0.1,1.7-0.2,3.4-0.3,5.1c-2.1,0.5-3.8,0.8-5.7,1.2
		c0.1,1.8,0.2,3.4,0.3,5c2.1,0.3,3.9,0.5,5.6,0.7c0,2.1-0.1,4.3-0.1,6.4c-1.9,0-3.8,0.1-5.8,0.1c-0.2-1.9-0.3-3.7-0.5-5.7
		c-5.3,0-10,0-15.2,0c0,2.1,0,3.8,0,5.6c-2.3,0-4.7,0-7-0.1c0-4.5,0-8.9,0-13.4c7.3,0,14.6,0,22,0c0-2.1,0-3.6,0-5.2
		c-2.6-0.2-4.9-0.3-7.1-0.4c-0.7-2.5-1.3-4.9-2-7.4c-0.1-1.7-0.2-3.5-0.2-5.2c-1.8-0.6-3.2-1.1-4.7-1.7c-0.2-0.3-0.5-0.7-0.7-1
		c-0.1-2-0.2-4-0.3-6l0.3,0.1c2-0.1,4.1-0.2,6.2-0.4c0-2,0-3.5,0-5.6c-2.4,0-4.5,0-6.5,0c0,0-0.1,0-0.1,0c0-1.6-0.1-3.2-0.1-4.8
		c0.1-1.3,0.1-2.6,0.2-3.9c1.7,0,3.5,0,5.2,0c0.1,1.2,0.2,2.3,0.3,3.4c4,0.4,7.6,0.7,11.1,1.1C146.8,65.6,148.4,65.6,150,65.6z"/>
	<path class="st5" d="M177.7,102.5c0,2.4-0.1,4.9-0.1,7.3c-4.9-0.3-9.8-0.6-14.7-0.8c0-2,0.1-4,0.1-6c0.1-0.1,0.3-0.2,0.3-0.3
		c-0.1-0.2-0.2-0.4-0.4-0.6l-0.1,0.1c0.2-1.3,0.3-2.7,0.5-4c0.2-0.3,0.4-0.6,0.6-0.9c1.3-0.2,2.6-0.5,3.7-0.7c0-2.8,0-5,0-7.1
		c1.4,0,2.7-0.1,4.1-0.1c0,4,0,8,0,12.3C174,102,175.9,102.3,177.7,102.5z"/>
	<path class="st1" d="M163.4,98.3c-0.2,1.3-0.3,2.7-0.5,4c-2.1,0-4.3,0-6.4-0.1c-0.4-0.1-0.9-0.1-1.3-0.2c0-1.6,0-3.2,0-4.8
		c0.2-2.5,0.4-5.1,0.5-7.6c0.1-2.3,0.2-4.6,0.3-6.8c1-0.1,2-0.3,3-0.4c0,0,0,0.4,0,0.4c1.3,2.1,2.7,4.2,4,6.4
		c1.5,0.1,3.1,0.2,4.6,0.3c0,2.2,0,4.4,0,7.1c-1.2,0.2-2.5,0.5-3.7,0.7C163.7,97.7,163.5,98,163.4,98.3z"/>
	<path class="st4" d="M167.7,89.5c-1.5-0.1-3.1-0.2-4.6-0.3c-0.1-2.2-0.2-4.3-0.3-6.5c0.4-0.1,0.7-0.1,1.1-0.2c2.4,0,4.7,0,7.8,0
		c0,2.6,0,4.8,0,6.9C170.4,89.4,169,89.5,167.7,89.5z"/>
	<path class="st15" d="M156,82.8c-0.1,2.3-0.2,4.6-0.3,6.8c-1.8-0.1-3.6-0.1-5.4-0.2c0,0-0.2-0.2-0.2-0.2c0-2.3,0-4.5,0-6.8l0.1-0.1
		C152.2,82.6,154.1,82.7,156,82.8z"/>
	<path class="st13" d="M163.9,82.5c-0.4,0.1-0.7,0.1-1.1,0.2c-1.3,0-2.5,0.1-3.8,0.1c0,0,0-0.4,0-0.4c0-1.6,0-3.2,0-5.3
		c1.7,0,3.1,0,4.6,0C163.8,79.3,163.8,80.9,163.9,82.5z"/>
	<path class="st5" d="M155.6,72.6c0,1.2,0,2.4,0,3.6c-1.9,0.2-3.2,0.4-4.4,0.5c-0.2-0.1-0.5-0.1-0.8-0.2c0,0-0.4-0.2-0.4-0.2
		c0.1-0.3,0.2-0.5,0.3-0.7c0.1-0.1,0.3-0.2,0.3-0.3c0-0.3-0.2-0.5-0.3-0.8c0-0.6,0-1.2,0-1.8C152.1,72.8,153.9,72.7,155.6,72.6z"/>
	<path class="st3" d="M155.6,72.6c-1.8,0.1-3.5,0.1-5.3,0.2c-0.1-1-0.2-2-0.3-2.9c0,0,0.3-0.1,0.3-0.1c1.9,0,3.7,0,5.6,0
		C155.9,70.7,155.7,71.7,155.6,72.6z"/>
	<path class="st13" d="M150.4,76.6c0.3,0,0.5,0.1,0.8,0.2c-0.2,0.3-0.5,0.6-0.7,0.8C150.4,77.2,150.4,76.9,150.4,76.6z"/>
	<path class="st10" d="M98.2,64.9c0.1-3.1,0.3-6.1,0.4-9.6c1.8,0,3.5,0,5.3,0c0.1,4.9,0.1,9.8,0.2,14.6c0,2,0,3.9-0.1,5.9
		c-0.3,0.2-0.5,0.4-0.6,0.7c-1.4,0.2-2.7,0.4-4.2,0.6c0,2.1,0,3.7,0,5.3l-0.2,0c-2,0-4.1,0.1-6.1,0.1c0-1.9,0-3.8,0-6
		c-1.8-0.2-3.3-0.4-4.7-0.5c-2.1-0.1-4.3-0.3-6.4-0.4c-0.7-1.6-1.4-3.3-2.1-4.9c-0.9,0-1.8,0-2.7,0.1c-0.2-1.2-0.5-2.5-0.7-3.7
		c0.2-0.7,0.3-1.4,0.5-2.1l0,0.1c3.6,0,7.2,0.1,10.8,0.1c-0.1,0.3,0,0.6,0.3,0.8c0.1,1.4,0.2,2.7,0.4,4.2c1.9,0.1,3.5,0.2,5.1,0.2
		c0.2,1.6,0.4,3.1,0.6,4.8c1.9,0,3.5,0,5.8,0c-0.5-2.5-0.9-4.4-1.2-6.4c-0.1-1-0.1-2-0.2-3C98.2,65.5,98.2,65.2,98.2,64.9z"/>
	<path class="st1" d="M54.1,61c-3.8-0.1-7.6-0.2-11.4-0.3c0-0.3,0-0.5-0.2-0.8c-0.1-1.3-0.2-2.6-0.3-4.1c-2.3,0.1-4,0.2-5.7,0.3
		c0,0,0.2-0.2,0.2-0.2c-0.1-1.6-0.1-3.1-0.2-4.7c0,0-0.1,0-0.1,0c2.3,0.1,4.6,0.2,6.9,0.3c0.2,1.2,0.5,2.3,0.7,3.7c2,0,3.4,0,4.9,0
		c3.7,0,7.3,0.1,11,0.1c0.3,0.3,0.7,0.6,1,0.9c0,1.4-0.1,2.8-0.1,4.2c0,0,0.1,0.2,0.1,0.2C58.7,60.7,56.4,60.9,54.1,61z"/>
	<path class="st13" d="M111,55.2c0.7,3.3,1.4,6.6,2.1,9.8c0,0.9,0,1.9,0,2.8c-1.9,0.7-3.9,1.4-5.8,2.1c-0.1-4.9-0.1-9.8-0.2-14.7
		C108.3,55.2,109.7,55.2,111,55.2z"/>
	<path class="st1" d="M65.9,60.9c3.3,0,6.6,0,10.3,0c0.2,1.4,0.3,2.8,0.4,4.1c0,0,0-0.1,0-0.1c-2.9,0.1-5.8,0.1-8.7,0.2
		C67.3,63.7,66.6,62.3,65.9,60.9z"/>
	<path class="st5" d="M107,55.2c0.1,4.9,0.1,9.8,0.2,14.7c-1,0-2.1,0-3.1,0c-0.1-4.9-0.1-9.8-0.2-14.6C104.9,55.3,106,55.2,107,55.2
		z"/>
	<path class="st1" d="M98.3,68.8c0.4,1.9,0.7,3.9,1.2,6.4c-2.3,0-3.9,0-5.8,0c-0.2-1.7-0.4-3.2-0.6-4.8c-0.1-0.2-0.2-0.4-0.2-0.6
		c0.1-0.3,0.1-0.7,0.2-1c0,0,0.4,0.1,0.4,0.1C95.1,68.9,96.7,68.8,98.3,68.8z"/>
	<path class="st6" d="M65.9,60.9c0.7,1.4,1.3,2.8,2,4.2c-0.4,0.3-0.8,0.6-1.2,0.9c-1.9-0.1-3.7-0.2-5.6-0.3c0,0,0.1-0.1,0.1-0.1
		c-0.1-1.7-0.1-3.5-0.2-5.2c0,0-0.1-0.2-0.1-0.2C62.6,60.5,64.3,60.7,65.9,60.9z"/>
	<path class="st3" d="M87.7,66c-0.3-0.2-0.4-0.5-0.3-0.8c0-1.7,0.1-3.4,0.1-5.1c1.6,0,3.2,0,4.8,0c0,1.6,0,3.2,0,4.8
		c-0.3,0.2-0.7,0.4-1,0.6C90.1,65.6,88.9,65.8,87.7,66z"/>
	<path class="st8" d="M92.3,60c-1.6,0-3.2,0-4.8,0c-0.1-1.4-0.1-2.8-0.2-4.6c1.7,0,3.1,0,5,0C92.3,57,92.3,58.5,92.3,60z"/>
	<path class="st6" d="M98.3,68.8c-1.6,0-3.3,0-4.9,0.1c0-1.1,0-2.2,0-3.7c1,0,1.9,0,2.9,0c0.6,0.2,1.2,0.4,1.8,0.6
		C98.2,66.8,98.3,67.8,98.3,68.8z"/>
	<path class="st3" d="M98.2,65.8c-0.6-0.2-1.2-0.4-1.8-0.6c0.6-0.1,1.2-0.2,1.8-0.2C98.2,65.2,98.2,65.5,98.2,65.8z"/>
	<path class="st13" d="M93.1,68.7c-0.1,0.3-0.1,0.7-0.2,1c0-0.3-0.1-0.5-0.1-0.8C92.8,68.9,93,68.8,93.1,68.7z"/>
	<path class="st9" d="M91.3,65.5c0.3-0.2,0.7-0.4,1-0.6C92,65.1,91.6,65.3,91.3,65.5z"/>
	<path class="st13" d="M222.7,202c-1.6,0-3.2,0.1-4.8,0.1c-0.1-2-0.2-3.9-0.2-5.9c0-1.3,0.1-2.7,0.1-4l-0.1,0
		c1.9,0.1,3.9,0.1,5.8,0.2c0.1,1.5,0.1,3.1,0.2,4.6c0,1.4,0,2.8-0.1,4.1C223.3,201.4,223,201.7,222.7,202z"/>
	<path class="st5" d="M223.7,197c-0.1-1.5-0.1-3.1-0.2-4.6c0-1.7,0.1-3.3,0.1-5c0,0,0,0,0,0c1.2,0.2,2.5,0.3,3.9,0.5
		c0,2.8,0,5.4,0,8.6C226.3,196.7,225,196.9,223.7,197z"/>
	<path class="st5" d="M223.6,182.4c0,1.7,0,3.3,0,5c0,0,0,0,0,0c-2,0.3-3.9,0.7-5.9,1c-0.2-0.2-0.2-0.4-0.1-0.6
		c0.1-1.7,0.1-3.4,0.2-5.1c0,0,0.1-0.2,0.1-0.2c0.6-0.1,1.2-0.2,1.8-0.4c1.3-0.1,2.5-0.3,3.8-0.4
		C223.6,181.9,223.6,182.2,223.6,182.4z"/>
	<path class="st14" d="M223.7,177.6c1.4,0.2,2.8,0.4,4.2,0.6c0,1.2,0,2.4,0,3.6c-1.7,0.2-3,0.4-4.3,0.6c0-0.2-0.1-0.5-0.1-0.7
		C223.6,180.3,223.6,179,223.7,177.6z"/>
	<path class="st6" d="M217.8,182.6c-0.1,1.7-0.1,3.4-0.2,5.1c-1.6-0.1-3.2-0.2-4.8-0.3c-0.2-0.3-0.5-0.7-0.7-1c0-1,0-2.1,0-3.1
		c0.1-0.1,0.2-0.3,0.2-0.3c-0.1-0.2-0.3-0.4-0.4-0.5c-1.9-0.1-3.8-0.2-6-0.4c-0.1-1.6-0.3-3.1-0.4-4.6c0.1-0.3,0.2-0.6,0.3-0.9
		c3,0,6,0,9,0c0.6,0.6,1.3,1.3,1.9,1.9C217.1,179.9,217.5,181.3,217.8,182.6z"/>
	<path class="st0" d="M223.7,177.6c-0.1,1.4-0.1,2.7-0.2,4.1c-1.3,0.1-2.5,0.3-3.8,0.4c-0.6-0.2-1.2-0.4-1.8-0.6
		c-0.1-1.4-0.1-2.8-0.3-5.1C220,176.8,221.9,177.2,223.7,177.6z"/>
	<path class="st8" d="M216.7,178.5c-0.6-0.6-1.3-1.3-1.9-1.9C215.4,177.3,216.1,177.9,216.7,178.5z"/>
	<path class="st11" d="M217.9,181.4c0.6,0.2,1.2,0.4,1.8,0.6c-0.6,0.1-1.2,0.2-1.8,0.4C218,182.1,217.9,181.8,217.9,181.4z"/>
	<path class="st7" d="M201.1,176.7c-0.2,0.3-0.5,0.6-0.7,0.9C200.7,177.3,200.9,177,201.1,176.7z"/>
	<path class="st7" d="M201.1,181.5l-0.5,0.1c0,0-0.4-0.2-0.4-0.2c0.1-0.3,0.2-0.7,0.3-1C200.7,180.8,200.9,181.1,201.1,181.5z"/>
	<path class="st7" d="M205.9,176.6c-0.1,0.3-0.2,0.6-0.3,0.9c-0.2-0.3-0.4-0.5-0.5-0.8C205.3,176.7,205.6,176.6,205.9,176.6z"/>
	<path class="st6" d="M49,55.2c-1.5,0-2.9,0-4.9,0c-0.3-1.3-0.5-2.5-0.7-3.7c1.4-0.1,2.9-0.2,4.9-0.3C48.6,52.6,48.8,53.9,49,55.2z"
		/>
	<path class="st2" d="M119,61c1.7,0,3.4,0,5.1,0c0.1,1.3,0.2,2.5,0.2,3.8c-0.1,1.5-0.2,3.1-0.3,4.8c1.9,0.1,3.1,0.2,4.4,0.2
		c0,0,0.1,0,0.1,0c0.1,2,0.2,4,0.3,5.9c0,0-0.3-0.1-0.3-0.1c-1.8-0.1-3.7-0.2-4-0.2c-1.9-2.6-2.9-4-4-5.5c-0.5-0.1-1-0.2-1.6-0.3
		C119,66.8,119,63.9,119,61z"/>
	<path class="st10" d="M124.3,64.8c-0.1-1.3-0.2-2.5-0.2-3.8c0.6-0.1,1.1-0.2,1.7-0.3c1,0.1,1.9,0.3,2.9,0.4
		c-0.1,1.3-0.1,2.6-0.2,3.9C127.1,65,125.7,64.9,124.3,64.8z"/>
	<path class="st8" d="M113.6,62.9c1.4-1,2.8-1.9,4.2-2.9c0,0.3,0.1,0.6,0.1,0.9c0,0.7-0.1,1.3-0.1,2C116.4,63,115,62.9,113.6,62.9z"
		/>
	<path class="st12" d="M134.5,60c3.2,0,6.3-0.1,9.5-0.1c0,0,0.4,0.1,0.4,0.1c-0.1,0.2-0.2,0.5-0.2,0.7l0.1,0.2
		c-3.3-0.1-6.6-0.1-10-0.2C134.4,60.6,134.5,60.3,134.5,60z"/>
	<path class="st5" d="M134.5,60c-0.1,0.3-0.1,0.5-0.1,0.8c-0.2,0.1-0.4,0.2-0.6,0.3c-1.7,0-3.5,0-5.2,0c-1-0.1-1.9-0.3-2.9-0.4
		C128.7,60.5,131.6,60.3,134.5,60z"/>
	<path class="st14" d="M117.8,63c0-0.7,0.1-1.3,0.1-2c0.4,0,0.7,0,1.1,0c0,2.9,0,5.8,0,8.7c-0.3,0-0.6,0.1-0.8,0.2
		C118.1,67.6,117.9,65.3,117.8,63z"/>
	<path class="st5" d="M143.3,56.1c0.2-0.2,0.5-0.3,0.8-0.2c0,0.4-0.1,0.8-0.1,1.2C143.8,56.8,143.6,56.4,143.3,56.1z"/>
	<path class="st0" d="M150,65.6c-1.6,0-3.1,0-4.7,0c-0.3-1.5-0.6-3.1-0.9-4.6c0,0-0.1-0.2-0.1-0.2c0.3,0,0.6-0.1,1-0.1
		c1.7,0.1,3.3,0.2,5,0.3C150.1,62.5,150.1,64,150,65.6z"/>
	<path class="st1" d="M145.2,60.7c-0.3,0-0.6,0.1-1,0.1c0-0.2,0.1-0.5,0.2-0.7C144.7,60.3,145,60.5,145.2,60.7z"/>
	<path class="st1" d="M117.8,63c0.1,2.3,0.3,4.7,0.4,7c-0.1,2.2-0.3,4.4-0.4,6.7c-0.3,0-0.6,0-1,0c-0.9,2-1.9,4-2.8,6
		c0,2.3,0,4.6,0,6.9c-1.3,0.4-2.6,0.8-4.1,1.2c0,2.3,0,4.3,0,6.3c-0.9,0-1.9-0.1-2.8-0.1c0-2.5,0-4.9,0-7.4c0.3-0.1,0.6-0.2,0.9-0.3
		c0.3-2.3,0.6-4.6,0.9-6.9c0.1-2.1,0.2-4.2,0.3-6.3c1.3-0.2,2.7-0.4,3.9-0.5c0-3,0-5.4,0-7.8c0-0.9,0-1.9,0-2.8
		c0.2-0.7,0.4-1.4,0.6-2C115,62.9,116.4,63,117.8,63z"/>
	<path class="st8" d="M61,137.4c0-2,0-4,0.1-5.9c4.9-1,9.8-1.9,14.6-2.9c0,0,0.4,0,0.4,0l0.4,0.1c3.7,0,7.3,0,11,0.1
		c0,0.9,0,1.9,0,2.8c-1.5,0.6-2.9,1.2-4.6,1.9c-0.1,1.3-0.3,2.7-0.4,4.1c-1.7,0-3.4,0-5.7,0c0,2.3,0,4,0,5.7c-5,0-10,0-15.5,0
		C61.2,140.9,61.1,139.2,61,137.4z"/>
	<path class="st15" d="M98.5,191.3c-0.1-1.3-0.2-2.6-0.3-4c0-5.2,0-10.4,0-15.7c0.1-4,0.3-8,0.4-12c1.7,0,3.5-0.1,5.2-0.1
		c0.1,10.9,0.2,21.7,0.2,32.6C102.2,191.9,100.4,191.6,98.5,191.3z"/>
	<path class="st15" d="M98.6,152.2c-0.1-5-0.2-9.9-0.3-14.9c0,0-0.1,0-0.1,0c0.4-0.1,0.7-0.2,1.1-0.2c1.2,0,2.4,0.1,3.6,0.1
		c0.3,0.1,0.7,0.1,1,0.2c0,5-0.1,9.9-0.1,14.9C102.2,152.2,100.4,152.2,98.6,152.2z"/>
	<path class="st1" d="M43.3,122.7c1.7,0,3.5,0,5.9,0c0,3.3,0,6,0,8.7c-1.7,0-3.5,0-5.9,0C43.3,128.1,43.3,125.4,43.3,122.7z"/>
	<path class="st7" d="M98.6,152.2c1.8,0,3.5,0,5.3,0.1c0,2.5,0,4.9,0,7.4c-1.7,0-3.5,0.1-5.2,0.1C98.6,157.2,98.6,154.7,98.6,152.2z
		"/>
	<path class="st7" d="M98.4,137.3c-1.9,0-3.7,0-6.1,0c0-2.2,0-3.9,0-5.6c0,0,0.3-0.1,0.3-0.1c1.9,0,3.8-0.1,5.7-0.1
		c0.2,0.5,0.4,1,0.6,1.6c0,0.9,0,1.8,0,2.7C98.6,136.4,98.5,136.9,98.4,137.3L98.4,137.3z"/>
	<path class="st1" d="M76.8,143.1c0-1.7,0-3.4,0-5.7c2.3,0,4,0,5.7,0c0,1.7,0,3.4,0,5.7C80.2,143.1,78.5,143.1,76.8,143.1z"/>
	<path class="st8" d="M75.9,162.6c0.1-1.7,0.2-2.9,0.3-4.3c2.1,0,3.8,0,5.9,0c0,1.4,0,2.7,0,4.3C80.1,162.6,78.4,162.6,75.9,162.6z"
		/>
	<path class="st10" d="M87.5,131.4c0-0.9,0-1.9,0-2.8c0,0,0,0,0,0c1.6,0,3.2,0,4.8-0.1c0.1,1,0.1,2.1,0.2,3.1c0,0-0.3,0.1-0.3,0.1
		C90.7,131.6,89.1,131.5,87.5,131.4z"/>
	<path class="st15" d="M61,122.7c-2.1-0.2-4.1-0.3-6.4-0.5c-0.2-2-0.5-3.8-0.7-5.7c-1.6-0.3-3.1-0.7-5.1-1.1c0-1.6,0-3.3,0-5.5
		c4.2,0,8.2,0,12.2,0c0,0,0,0,0,0c0.1,2,0.3,4.1,0.4,6.1c0,2.1-0.1,4.1-0.1,6.2C61.2,122.4,61.1,122.6,61,122.7z"/>
	<path class="st10" d="M61,110c0-2.3,0-4.6,0-6.9c1.6-0.3,3.2-0.6,4.9-0.9c2.5,0,5,0,7.4,0c0,2.8,0,4.6,0,6.3
		c-2.3,0.5-4.2,1-6.1,1.4C65.2,109.9,63.1,109.9,61,110C61,109.9,61,110,61,110z"/>
	<path class="st10" d="M61.1,128.5c0-1.9-0.1-3.9-0.1-5.8c0.1-0.2,0.2-0.3,0.3-0.5c2-0.1,3.9-0.2,5.9-0.3c0.2-0.1,0.5-0.2,0.7-0.2
		c2,0.2,4,0.3,5.9,0.5c0,2.1,0,4.2,0,6.4C69.6,128.5,65.4,128.5,61.1,128.5z"/>
	<path class="st1" d="M65.9,102.2c-1.6,0.3-3.2,0.6-4.9,0.9c-2,0-4-0.1-6-0.1c-0.1-0.6-0.2-1.3-0.3-1.9c0-0.9,0-1.8,0-2.7
		c0.1-0.3,0.2-0.7,0.3-1c0-0.4,0.1-0.7,0.1-1.1c2,0,3.9,0,5.9-0.1c1.6,0.2,3.3,0.4,4.9,0.6C65.9,98.6,65.9,100.4,65.9,102.2z"/>
	<path class="st1" d="M61.1,128.5c4.2,0,8.5,0,12.7,0c0.6,0,1.3,0,1.9,0c-4.9,1-9.8,1.9-14.6,2.9C61.1,130.5,61.1,129.5,61.1,128.5z
		"/>
	<path class="st9" d="M54.7,98.3c0,0.9,0,1.8,0,2.7c-0.2,0.6-0.5,1.1-0.7,1.7c-1.6-0.2-3.2-0.4-4.8-0.6c0-1.6,0-3.3,0-4.9
		c0.8-0.1,1.5-0.1,2.3-0.2c0.9,0.1,1.8,0.2,2.7,0.3C54.4,97.7,54.5,98,54.7,98.3z"/>
	<path class="st12" d="M54,102.8c0.2-0.6,0.5-1.1,0.7-1.7c0.1,0.6,0.2,1.3,0.3,1.9C54.7,102.9,54.4,102.8,54,102.8z"/>
	<path class="st13" d="M66,96.7c-1.6-0.2-3.3-0.4-4.9-0.6c0.1-2.3,0.2-4.5,0.3-6.8c1.8-0.1,3.6-0.1,5.5-0.2c0.4,0.1,0.7,0.1,1.1,0.2
		c2.7,0,5.4,0.1,8,0.1c0.2,0.2,0.4,0.5,0.6,0.7c-0.1,2.1-0.1,4.3-0.2,6.4C72.9,96.6,69.4,96.7,66,96.7z"/>
	<path class="st3" d="M66.8,89.2c-1.8,0.1-3.6,0.1-5.5,0.2c-1.1,0-2.2,0-3.2-0.1c0-2.2-0.1-4.3-0.1-6.5c2-0.1,4-0.2,6-0.3
		c1.1,0,2.2,0.1,3.4,0.1c0,1.8-0.1,3.7-0.1,5.5C67.1,88.5,67,88.9,66.8,89.2z"/>
	<path class="st6" d="M76.6,90.2c-0.2-0.2-0.4-0.5-0.6-0.7c0-2,0-4.1,0-6.6c2.2-0.1,4-0.2,5.8-0.3c0.4,0,0.7,0.1,1.1,0.1
		c-0.3,2.3-0.6,4.7-1,7.5C80.1,90.2,78.3,90.2,76.6,90.2z"/>
	<path class="st14" d="M58,82.9c0,2.2,0.1,4.3,0.1,6.5c-1,0.8-2,1.5-2.9,2.3c0,1.7,0,3.2,0,4.6c0,0.4-0.1,0.7-0.1,1.1
		c-0.3,0-0.6,0-0.9,0c-0.9-0.1-1.8-0.2-2.7-0.3c-0.1-2.5-0.2-5-0.2-7.6c1.2-0.2,2.4-0.4,3.8-0.7c0-2.1,0-4,0-5.9
		C56,82.9,57,82.9,58,82.9z"/>
	<path class="st1" d="M82.9,82.7c-0.4,0-0.7-0.1-1.1-0.1c-0.1-2-0.1-4-0.2-6c0-0.3,0.1-0.7,0.1-1c2.1,0.1,4.3,0.3,6.4,0.4
		c-0.2,2.2-0.4,4.4-0.6,6.6C86,82.6,84.4,82.7,82.9,82.7z"/>
	<path class="st3" d="M76.2,67c0.2,1.2,0.5,2.5,0.7,3.7c-0.3,0.1-0.6,0-0.9,0c-2.9-0.1-5.8-0.2-8.6-0.3c-0.2-1.2-0.4-2.3-0.7-3.5
		l0.5,0C70.2,66.9,73.2,67,76.2,67z"/>
	<path class="st4" d="M67.4,82.7c-1.1,0-2.2-0.1-3.4-0.1c0.3-1.9,0.6-3.7,0.9-5.7c2,0,3.5,0,7.9,0C70.1,79.8,68.8,81.2,67.4,82.7z"
		/>
	<path class="st5" d="M61.1,60.5c0.1,1.7,0.1,3.5,0.2,5.2c-2,0-4.1,0-6.7,0c-0.2-1.7-0.3-3.2-0.4-4.6C56.4,60.9,58.7,60.7,61.1,60.5
		z"/>
	<path class="st5" d="M36.5,56.1c1.7-0.1,3.4-0.1,5.7-0.3c0.1,1.5,0.2,2.8,0.3,4.1c-0.3,0.3-0.7,0.6-1,0.8c-1.6,0.1-3.3,0.1-4.9,0.2
		C36.6,59.3,36.5,57.7,36.5,56.1z"/>
	<path class="st6" d="M76,70.7c0.3,0.1,0.6,0.1,0.9,0c0.9,0,1.8,0,2.7-0.1c0.3,1.8,0.5,3.5,0.8,5.3c-0.2,0-0.4,0-0.6,0.2
		c-1.2,0-2.4,0-3.6,0C76.1,74,76.1,72.3,76,70.7z"/>
	<path class="st13" d="M66.7,66.9c0.2,1.2,0.4,2.3,0.7,3.5c-1.5,0.1-3.1,0.2-5.2,0.3c-0.3-1.4-0.6-2.7-0.9-3.9
		C63,66.8,64.9,66.8,66.7,66.9z"/>
	<path class="st8" d="M80.5,76c-0.3-1.8-0.5-3.5-0.8-5.3c0.7,1.6,1.4,3.3,2.1,4.9c0,0.3-0.1,0.7-0.1,1c-0.4-0.1-0.7-0.3-1.1-0.4
		C80.6,76.2,80.5,76,80.5,76z"/>
	<path class="st9" d="M66.7,66.9c-1.8,0-3.6-0.1-5.5-0.1c0-0.3,0-0.6-0.1-1c1.9,0.1,3.7,0.2,5.6,0.3c0.1,0.3,0.2,0.5,0.4,0.8
		L66.7,66.9z"/>
	<path class="st4" d="M66.8,89.2c0.2-0.3,0.3-0.7,0.5-1c0.2,0.4,0.4,0.8,0.6,1.2C67.6,89.3,67.2,89.3,66.8,89.2z"/>
	<path class="st9" d="M41.5,60.8c0.3-0.3,0.7-0.6,1-0.8c0.2,0.2,0.2,0.5,0.2,0.8C42.3,60.8,41.9,60.8,41.5,60.8z"/>
	<path class="st1" d="M80.5,76c0,0,0.1,0.2,0.1,0.2c0,0-0.4,0.1-0.4,0.1s-0.3-0.1-0.3-0.1C80.1,76,80.3,76,80.5,76z"/>
	<path class="st14" d="M194.3,235.3c0-2.3,0-4.6,0-6.9c3.8,0.1,7.6,0.1,11.4,0.2c0,2.3,0,4.5,0,6.8c-1.9,0-3.7,0-5.5,0
		C198.2,235.3,196.2,235.3,194.3,235.3C194.3,235.3,194.3,235.3,194.3,235.3z"/>
	<path class="st1" d="M217.7,229.6c1.6-0.5,3.2-1.1,4.8-1.6c-0.1-0.3-0.2-0.6-0.3-1c2.2-0.9,4.3-1.7,6.5-2.6c0,0,0,0,0,0
		c0,1.4-0.1,2.7-0.1,4.1c-1.6,0.6-3.1,1.1-4.7,1.7c-0.1,1.8-0.2,3.3-0.4,4.9c-0.3,0-0.5,0.1-0.8,0.2c-1.6,0-3.3,0-4.9,0
		C217.8,233.4,217.7,231.5,217.7,229.6z"/>
	<path class="st3" d="M217.7,196.2c0.1,2,0.2,3.9,0.2,5.9c0,1.6-0.1,3.3-0.1,4.9c-2-0.1-4-0.2-6-0.3c0-1.8,0-3.7,0-5.5
		c0.1-1.7,0.1-3.4,0.2-5C213.9,196.1,215.8,196.2,217.7,196.2z"/>
	<path class="st5" d="M205.7,228.6c-3.8-0.1-7.6-0.1-11.4-0.2c0,0-0.1,0.1-0.1,0.1c0-1.5-0.1-3.1-0.1-4.6c3.7,0,7.3,0,11.6,0
		C205.7,225.6,205.7,227.1,205.7,228.6z"/>
	<path class="st0" d="M188.4,224.4c-0.2-1.6-0.4-3.1-0.5-4.7c0.2-0.3,0.4-0.6,0.6-0.8c1.6,0.1,3.3,0.1,4.9,0.2c0,1.5,0,3.1,0,4.6
		C191.7,223.9,190,224.2,188.4,224.4z"/>
	<path class="st6" d="M200.1,235.4c1.9,0,3.7,0,5.6,0c0.1,1.7,0.2,3.4,0.3,5.1c-0.3,0.3-0.6,0.6-1,0.9c-1.6,0-3.2,0-4.9,0
		C200.1,239.3,200.1,237.3,200.1,235.4z"/>
	<path class="st0" d="M216.8,224.3c-1,0-2,0-3,0c-0.3,0-0.5-0.1-0.8-0.1c0,0-0.2,0.3-0.2,0.3c-0.1-0.3-0.3-0.3-0.6-0.2
		c0-1.8,0-3.7-0.1-5.5c1.8,0,3.7,0,5.5,0c0.1,0.3,0.2,0.6,0.4,0.9c-0.1,1.4-0.2,2.7-0.4,4.1C217.4,223.9,217.1,224.1,216.8,224.3z"
		/>
	<path class="st8" d="M188.4,224.4c1.7-0.2,3.3-0.5,5-0.7c0.3,0,0.5,0.1,0.8,0.2c0,1.5,0.1,3.1,0.1,4.6c-1.5,0-3.1,0-5.2,0
		C188.8,227,188.6,225.7,188.4,224.4z"/>
	<path class="st14" d="M212.3,224.3c0.3-0.2,0.5-0.1,0.6,0.2c-0.2,0.3-0.4,0.7-0.7,1C212.2,225.1,212.2,224.7,212.3,224.3z"/>
	<path class="st2" d="M187.4,201.5c2,0,4,0,5.9,0c0,1.8-0.1,3.6-0.1,5.3c-1.9,0.1-3.9,0.2-5.8,0.3c-1.4-0.1-2.7-0.1-4.1-0.2
		c0-1.7,0-3.4,0-5.1C184.8,201.8,186.1,201.7,187.4,201.5z"/>
	<path class="st6" d="M188.6,241.4c-0.3-0.4-0.6-0.8-1-1.1c-0.1-1.6-0.1-3.3-0.2-4.9c2.3,0,4.6,0,6.9,0c0,0,0,0,0,0c0,2,0,4,0,6
		C192.4,241.4,190.5,241.4,188.6,241.4z"/>
	<path class="st6" d="M183.4,206.9c1.4,0.1,2.7,0.1,4.1,0.2c0,1.6,0,3.1,0,5.2c-1.7,0.2-3.2,0.4-4.7,0.6c0,0-0.2-0.2-0.2-0.2
		c0-0.3,0-0.6-0.1-0.8c0.1-1.7,0.2-3.3,0.3-5C183,206.9,183.2,206.9,183.4,206.9z"/>
	<path class="st10" d="M177.7,228.5c0-1,0-2,0-3c1.6,0,3.2,0,4.8,0c0,1.4-0.1,2.8-0.1,4.2c-1.3-0.1-2.6-0.3-3.9-0.4
		C178.3,229,178,228.8,177.7,228.5z"/>
	<path class="st7" d="M188.5,218.9c-0.2,0.3-0.4,0.6-0.6,0.8C188,219.5,188.2,219.2,188.5,218.9z"/>
	<path class="st6" d="M223.5,235.1c0.1-1.6,0.2-3.1,0.4-4.9c1.6-0.6,3.1-1.2,4.7-1.7c1.3,0,2.6,0,3.9,0l0,0c0,2,0,4,0,6.5
		C229.1,235.1,226.3,235.1,223.5,235.1z"/>
	<path class="st3" d="M232.5,224.5c3,0,5.9,0,8.9,0c0,1.3-0.1,2.7-0.1,4c-2.9,0-5.8,0-8.8,0c0,0,0,0,0,0
		C232.4,227.2,232.4,225.9,232.5,224.5z"/>
	<path class="st5" d="M51.2,89.5c0.1,2.5,0.2,5,0.2,7.6c-0.8,0.1-1.5,0.1-2.3,0.2c0-2.6,0-5.3,0-7.9C49.9,89.4,50.5,89.5,51.2,89.5z
		"/>
	<path class="st6" d="M15.9,197.5c0.1-0.3,0.3-0.5,0.7-0.4c1.7,0,3.5,0.1,5.2,0.1c2.6-1,5.2-1.9,7.8-2.9c0,0.6,0.1,1.3,0.1,1.9
		c0,1.9,0,3.9,0,5.8l0,0c-2.3,0-4.7,0-7.2,0c-0.2,1.6-0.4,2.8-0.5,4c-0.3,0.2-0.6,0.5-1,0.7c-1.3,0-2.6,0-4,0c0-0.3-0.1-0.6-0.1-0.9
		C16.6,203.1,16.2,200.3,15.9,197.5z"/>
	<path class="st10" d="M36.5,202c2,0,3.9,0,5.9,0c0,1.7,0.1,3.3,0.1,5c0,0-0.1-0.1-0.1-0.1c-2.1,0-4.2,0-6.3,0.1
		c-1.9-0.1-3.7-0.2-5.6-0.3c-0.3-0.2-0.6-0.5-0.9-0.7c0-1.3-0.1-2.7-0.1-4c0,0,0,0,0,0C32,202,34.3,202,36.5,202z"/>
	<path class="st7" d="M29.7,202c0,1.3,0.1,2.7,0.1,4c-0.1,0.2-0.2,0.5-0.1,0.7c-2.5,0-5,0-7.6,0c0-0.3,0-0.5-0.2-0.7
		c0.2-1.2,0.3-2.4,0.5-4C25,202,27.3,202,29.7,202z"/>
	<path class="st1" d="M36.2,207.1c2.1,0,4.2,0,6.3-0.1c0,2,0,3.9,0,5.9c-2,0-4,0-6,0C36.4,210.9,36.3,209,36.2,207.1z"/>
	<path class="st8" d="M16.9,205.8c0.1,0.3,0.1,0.6,0.1,0.9c-1.3,0-2.6,0-3.8,0C14.4,206.4,15.6,206.1,16.9,205.8z"/>
	<path class="st14" d="M21.9,206c0.2,0.2,0.2,0.4,0.2,0.7c-0.4,0-0.8,0-1.2,0C21.3,206.5,21.6,206.2,21.9,206z"/>
	<path class="st1" d="M29.7,206.7c0-0.3,0-0.5,0.1-0.7c0.3,0.2,0.6,0.5,0.9,0.7C30.3,206.7,30,206.7,29.7,206.7z"/>
	<path class="st1" d="M194.3,241.3c0-2,0-4,0-6c1.9,0,3.9,0,5.8,0.1c0,2,0,3.9,0,5.9C198.2,241.3,196.2,241.3,194.3,241.3z"/>
	<path class="st8" d="M29.6,194.2c-2.6,1-5.2,1.9-7.8,2.9c0-1.6,0-3.2,0-4.8c0.2-1.6,0.3-3.1,0.5-4.9c1.9-0.1,3.7-0.2,5.4-0.4
		c0,0,0.5,0.1,0.5,0.1l0.4-0.2c0.3,0,0.5,0,0.8,0c0.1,2,0.2,4.1,0.2,6.1C29.7,193.5,29.6,193.9,29.6,194.2z"/>
	<path class="st10" d="M21.9,192.4c0,1.6,0,3.2,0,4.8c-1.7,0-3.5-0.1-5.2-0.1c0.1-1.6,0.2-3.2,0.3-4.9
		C18.6,192.3,20.2,192.3,21.9,192.4z"/>
	<path class="st13" d="M28.6,187l-0.4,0.2c0,0-0.5-0.1-0.5-0.1C28.1,187.1,28.4,187,28.6,187z"/>
	<path class="st5" d="M29,152.9c1.1,0.2,2.1,0.4,3.3,0.6c0.1,1.3,0.2,2.4,0.3,3.5c-1.3-0.1-2.5-0.1-3.7-0.2
		C28.9,155.5,28.9,154.2,29,152.9z"/>
	<path class="st8" d="M11.4,201.1c0,0.6,0,1.2,0,1.9C11.4,202.3,11.4,201.7,11.4,201.1z"/>
	<path class="st14" d="M36.5,51.2c0.1,1.6,0.1,3.1,0.2,4.7c-2.3-0.1-4.6-0.2-6.9-0.3c-0.1-1.4-0.2-2.8-0.3-4.2
		C31.9,51.3,34.2,51.3,36.5,51.2z"/>
	<path class="st1" d="M177.7,228.5c0.3,0.2,0.6,0.5,0.9,0.7c-0.3,0.1-0.6,0.1-1,0.2C177.6,229.2,177.6,228.9,177.7,228.5z"/>
	<path class="st8" d="M218.1,219.6c-0.2-0.3-0.3-0.6-0.4-0.9c0.2,0.2,0.4,0.3,0.5,0.5C218.3,219.3,218.1,219.5,218.1,219.6z"/>
	<path class="st7" d="M213.1,224.2c0.3,0,0.5,0.1,0.8,0.1c0,0-0.4,0.1-0.4,0.1L213.1,224.2z"/>
	<path class="st7" d="M216.8,224.3c0.3-0.2,0.6-0.4,0.9-0.7C217.4,223.9,217.1,224.1,216.8,224.3z"/>
	<path class="st14" d="M232.5,224.5c0,1.3,0,2.7-0.1,4c-1.3,0-2.6,0-3.9,0c0-1.4,0.1-2.7,0.1-4.1
		C229.9,224.5,231.2,224.5,232.5,224.5z"/>
	<path class="st4" d="M111.9,192.2c4.3,0,8.6,0.1,12.9,0.1c-0.4,2.9-0.9,5.7-1.4,9.1c-1.7,0.2-3.2,0.5-4.7,0.7
		c-3.6-1.7-7.2-3.4-10.8-5.1c-0.2-0.3-0.4-0.5-0.6-0.8c0-0.9,0-1.9,0-2.8c0.2-0.3,0.5-0.7,0.7-1
		C109.4,192.2,110.6,192.2,111.9,192.2z"/>
	<path class="st1" d="M107.3,193.3c0,0.9,0,1.9,0,2.8c-0.2,0.2-0.3,0.5-0.3,0.7c-1.2,0-2.5,0.1-3.7,0.1c0.3-1.6,0.6-3.2,0.9-4.8
		c-0.1-10.9-0.2-21.7-0.2-32.6c0-2.5,0-4.9,0-7.4c0-5,0.1-9.9,0.1-14.9c1.1,0,2.2,0,3.2,0.1c0,2,0.1,3.9,0.1,5.9
		c0.1,13,0.1,26,0.2,39c-0.1,3.3-0.2,6.6-0.3,9.9C107.3,192.6,107.3,192.9,107.3,193.3z"/>
	<path class="st10" d="M104.1,192.2c-0.3,1.6-0.6,3.2-0.9,4.8c-1.4,0-2.8,0-4.7,0c0-2,0-3.8,0-5.7
		C100.4,191.6,102.2,191.9,104.1,192.2z"/>
	<path class="st12" d="M107,196.9c0-0.3,0.1-0.5,0.3-0.7c0.2,0.3,0.4,0.5,0.6,0.8c0,0-0.5,0-0.5,0L107,196.9z"/>
	<path class="st8" d="M183.4,206.9c-0.2,0-0.4-0.1-0.6-0.1c-1.7,0.1-3.3,0.1-5,0.2c0,0-0.2-0.1-0.2-0.1c0-2,0-4-0.1-6
		c1.9,0.3,3.9,0.5,5.8,0.8C183.4,203.6,183.4,205.3,183.4,206.9z"/>
	<path class="st15" d="M36.5,202c-2.3,0-4.6,0-6.9,0c0-1.9,0-3.9,0-5.8c2.3,0,4.5,0,6.8,0C36.5,198.1,36.5,200.1,36.5,202z"/>
	<path class="st15" d="M42.6,207.1c0-1.7-0.1-3.3-0.1-5c2.1-0.2,4.1-0.4,6.2-0.7c0.2,1.5,0.4,3.1,0.7,4.6c0,0.2-0.1,0.5-0.1,0.7
		C47,206.8,44.8,206.9,42.6,207.1z"/>
	<path class="st10" d="M36.5,196.2c-2.3,0-4.5,0-6.8,0c0-0.6-0.1-1.3-0.1-1.9c0-0.4,0.1-0.7,0.1-1.1c2.3,0,4.5,0,6.8,0
		c1.7,0.1,3.5,0.2,7.3,0.5C40.1,194.9,38.3,195.6,36.5,196.2z"/>
	<path class="st2" d="M200.1,201c1.5,0.3,3,0.6,5,1c0,1.3,0,2.7,0,4.1c-0.3,0.2-0.6,0.5-1,0.7c-1,0-2,0-3,0
		c-0.3-0.2-0.6-0.5-0.9-0.7C200.2,204.3,200.1,202.7,200.1,201z"/>
	<path class="st13" d="M200.2,206c0.3,0.2,0.6,0.5,0.9,0.7C200.8,206.5,200.5,206.3,200.2,206z"/>
	<path class="st13" d="M204.1,206.7c0.3-0.2,0.6-0.5,1-0.7c0.2,0.3,0.3,0.6,0.5,0.9C205.1,206.9,204.6,206.8,204.1,206.7z"/>
	<path class="st14" d="M212.1,196.1c-0.1,1.7-0.1,3.4-0.2,5c-1.7-0.1-3.5-0.2-5.5-0.3c-0.3-3.1-0.5-5.8-0.8-8.5c0,0,0.4,0,0.4,0
		c1.9,0.1,3.9,0.2,5.8,0.3C211.9,193.7,212,194.9,212.1,196.1z"/>
	<path class="st8" d="M49.2,206.7c0-0.2,0-0.5,0.1-0.7c0.3,0.2,0.6,0.4,0.9,0.7C49.9,206.6,49.5,206.7,49.2,206.7z"/>
	<path class="st2" d="M211.8,192.5c-1.9-0.1-3.9-0.2-5.8-0.3c0-1.4,0-2.8,0-4.2c2-0.2,4-0.4,6-0.6c0,0,0.4,0.2,0.4,0.2l0.4-0.2
		c1.6,0.1,3.2,0.2,4.8,0.3c-0.1,0.2-0.1,0.4,0.1,0.6c0,1.3,0,2.6,0,3.8c0,0,0.1,0,0.1,0C215.8,192.3,213.8,192.4,211.8,192.5z"/>
	<path class="st8" d="M212.9,187.5l-0.4,0.2c0,0-0.4-0.2-0.4-0.2c0.1-0.3,0.1-0.7,0.2-1C212.4,186.8,212.7,187.2,212.9,187.5z"/>
	<path class="st8" d="M212,182.5c0.2,0.2,0.3,0.3,0.4,0.5c0,0.1-0.1,0.2-0.2,0.3C212,183.1,212,182.8,212,182.5z"/>
	<path class="st5" d="M177.9,207.1c1.7-0.1,3.3-0.1,5-0.2c-0.1,1.7-0.2,3.3-0.3,5c-0.3,0.2-0.6,0.5-0.9,0.7c-0.7,0-1.4,0-2.1,0
		c-0.5-0.3-1.1-0.5-1.6-0.8C177.9,210.2,177.9,208.7,177.9,207.1z"/>
	<path class="st12" d="M177.9,211.8c0.5,0.3,1.1,0.5,1.6,0.8c-0.6,0.1-1.3,0.2-1.9,0.3C177.7,212.5,177.8,212.1,177.9,211.8z"/>
	<path class="st12" d="M181.6,212.6c0.3-0.2,0.6-0.5,0.9-0.7c0.1,0.3,0.1,0.6,0.1,0.8C182.2,212.7,181.9,212.6,181.6,212.6z"/>
	<path class="st14" d="M163,109c4.9,0.3,9.8,0.6,14.7,0.8c-0.1,2.3-0.1,4.5-0.2,6.8c-1.3,0.2-2.6,0.3-4.2,0.5
		c-0.6,2.4-1.2,4.9-2,7.8c-1.1,0.4-2.4,0.8-4,1.4c-0.2,1.6-0.5,3.3-0.5,3.7c-2.2,2.9-3.6,4.8-5.4,7.1c-0.9,0.1-2.5,0.3-4.4,0.5
		c-0.5,1.3-1.1,2.7-1.7,4.3c-1.4,0.2-2.8,0.5-4.5,0.7c-0.4,1.6-0.7,3.1-1.2,5.2c-3.7,0.2-7.5,0.3-11.5,0.5c-0.4,1.7-0.7,3.3-1.2,5.3
		c-2.4,0.2-4.9,0.4-7.7,0.7c-0.3,2-0.6,3.8-1,6.2c-3.1,0.2-6.3,0.4-9.7,0.6c-0.4,1.6-0.7,3.2-1.2,5.3c-1.7,0.1-3.6,0.3-5.4,0.4
		c-0.3-8.2-0.5-16.4-0.8-24.6c0,0-0.1,0.1-0.1,0.1c5.8-0.1,11.6-0.2,17.4-0.3c1.3-0.1,2.6-0.2,9.2-0.9c-6.2-2.3-7.7-2.9-9.2-3.5
		l-0.1-0.2l0.2-0.2c0.1-1,0.2-1.9,0.3-2.9c1.2-0.7,2.5-1.4,3.7-2.1c3.8,0,7.6,0,11.7,0c0-2.5,0-4.1,0-5.7c0.1-1.3,0.2-2.6,0.2-3.9
		c3.4,0,6.9,0,10.7,0c0-2.5,0-4.3,0-6c0-0.3-0.1-0.5-0.1-0.8c0,0,0,0,0,0c1.6,0,3.3,0,4.9,0c0.7-2,1.4-4,2.1-5.9
		C162.4,109.6,162.7,109.3,163,109z"/>
	<path class="st9" d="M111.1,142.3c0.3,8.2,0.5,16.4,0.8,24.6c0,5.1-0.1,10.3-0.1,15.4c-1.4,0-2.8,0-4.2,0c-0.1-13-0.1-26-0.2-39
		C108.6,143,109.8,142.6,111.1,142.3z"/>
	<path class="st5" d="M107.6,182.4c1.4,0,2.8,0,4.2,0c0.1,1.7,0.1,3.4,0.2,5.1c0,1.6-0.1,3.1-0.1,4.7c-1.3,0-2.5,0.1-3.8,0.1
		c-0.3,0-0.5,0-0.8,0C107.4,188.9,107.5,185.6,107.6,182.4z"/>
	<path class="st5" d="M123.8,182.6c-0.2,1.4-0.3,2.8-0.5,4.8c-2.3,0-4.4,0-6.4,0c0.1-1.4,0.2-2.8,0.3-4.8
		C119.6,182.6,121.7,182.6,123.8,182.6z"/>
	<path class="st5" d="M156,153c-0.2,1.2-0.3,2.4-0.5,3.8c-2,0.1-3.6,0.2-5.2,0.3c0.1-1.2,0.2-2.4,0.3-3.8
		C152.7,153.2,154.4,153.1,156,153z"/>
	<path class="st2" d="M82.9,82.7c1.6,0,3.1,0,4.7-0.1c0,0-0.1-0.1-0.1-0.1c0,2.3,0.1,4.7,0.1,7c0,2.4,0,4.7,0,7.4c2,0,3.7,0,5.4,0
		c3.9,0,7.7,0,11.6,0c0.8,0,1.7,0,2.5,0c0.9,0,1.9,0.1,2.8,0.1c5,0,10,0,14.9,0c1.4,0,2.7-0.1,4.1-0.1c1.9,0,3.8-0.1,5.6-0.1
		c0.7,0,1.3,0,2,0c2.3,0.1,4.5,0.3,7.1,0.4c0,1.6,0,3.1,0,5.2c-7.5,0-14.8,0-22,0c-1.9,0-3.8,0-5.7-0.1c-0.3-0.2-0.6-0.2-0.9,0
		c-1.7,0-3.3,0-5,0.1c-2.3,0-4.6,0-6.9-0.1c-0.3-0.2-0.6-0.2-0.9,0c-0.7,0-1.3,0-2,0.1c-2.6,0-5.2,0-7.7-0.1c-0.3,0-0.7,0-1,0
		c-3.6,0-7.3,0-10.9,0c-1.3-0.1-2.6-0.2-3.8-0.2c-0.1-1.9-0.2-3.7-0.3-5.6c0.1-2.1,0.1-4.3,0.2-6.4c1.7,0,3.4,0,5.3,0
		C82.3,87.3,82.6,85,82.9,82.7z"/>
	<path class="st6" d="M121.6,115.8c2.3,0,4.7,0,7,0.1c0,0-0.1-0.1-0.1-0.1c0,2.3,0,4.5-0.1,6.8c-3.4,0-6.7,0-10.5,0
		c-0.2,2.3-0.3,4.1-0.4,5.8c-2.3,0.1-4.5,0.1-6.8,0.2c0-2-0.1-4.1-0.1-6.1l0,0c0.7,0,1.3,0,2,0c1.3-0.1,2.6-0.2,3.9-0.3
		c0.1-2.5,0.2-4.2,0.3-6C118.6,116,120.1,115.9,121.6,115.8z"/>
	<path class="st6" d="M155.1,97.3c0,1.6,0,3.2,0,4.8c-0.1,2.4-0.1,4.8-0.2,7.3c-1.6,0-3.1,0.1-4.7,0.1c-1.7-0.2-3.5-0.5-5.6-0.7
		c-0.1-1.6-0.2-3.2-0.3-5c1.9-0.4,3.6-0.8,5.7-1.2c0.1-1.7,0.2-3.4,0.3-5.1C151.9,97.3,153.5,97.3,155.1,97.3z"/>
	<path class="st6" d="M128.7,115.9c0-1.7,0-3.5,0-5.6c5.2,0,9.9,0,15.2,0c0.2,1.9,0.3,3.8,0.5,5.7c0,0,0-0.1,0-0.1
		C139.1,115.8,133.9,115.8,128.7,115.9L128.7,115.9z"/>
	<path class="st7" d="M121.6,115.8c-1.5,0.1-3,0.2-4.6,0.3c-0.3-0.1-0.7-0.2-1-0.3c-0.1-4.3-0.2-8.5-0.4-12.8
		c0.2-0.2,0.3-0.4,0.2-0.7c1.9,0,3.8,0,5.7,0.1C121.6,106.9,121.6,111.3,121.6,115.8z"/>
	<path class="st1" d="M129.6,82.6c1.5,0.5,2.9,1,4.7,1.7c0.1,1.7,0.2,3.4,0.2,5.2c0,0.3-0.1,0.7-0.1,1c-1.9,0-3.8-0.1-5.7-0.1
		l-0.2,0c-0.3-0.1-0.6-0.2-0.9-0.3c-1.1,0-2.2,0-3.4,0c0-2.5,0.1-4.9,0.1-7.4c1.4,0,2.9,0,4.3-0.1C128.9,82.6,129.3,82.6,129.6,82.6
		z"/>
	<path class="st5" d="M155.1,116.6c0,1.7,0,3.5,0,6c-3.8,0-7.2,0-10.7,0c0-2.2-0.1-4.5-0.1-6.7c0,0,0,0.1,0,0.1
		c1.9,0,3.8-0.1,5.8-0.1c1.4,0.1,2.8,0.2,4.2,0.3C154.6,116.3,154.9,116.5,155.1,116.6z"/>
	<path class="st13" d="M128.6,82.5c-1.4,0-2.9,0-4.3,0.1c-1.2,0-2.4-0.1-3.5-0.1c0-2.3,0-4.6-0.1-6.9c-0.1-1.9-0.1-3.8-0.2-5.6
		c1.1,1.5,2.1,2.9,4,5.5c0.3,0,2.2,0.1,4,0.2c0.1,2,0.2,4,0.3,6C128.8,81.9,128.7,82.2,128.6,82.5z"/>
	<path class="st7" d="M144.3,61c0.3,1.5,0.6,3.1,0.9,4.6c-3.5-0.3-7-0.7-11.1-1.1c-0.1-1.1-0.2-2.2-0.3-3.4c0.2-0.1,0.4-0.2,0.6-0.3
		C137.7,60.9,141,60.9,144.3,61z"/>
	<path class="st7" d="M155.1,97.3c-1.6,0-3.2,0-4.8,0.1c0-2.6,0-5.2,0-7.8c1.8,0.1,3.6,0.1,5.4,0.2
		C155.5,92.2,155.3,94.7,155.1,97.3z"/>
	<path class="st10" d="M128.9,75.8c-0.1-2-0.2-4-0.3-5.9c2.1,0,4.1,0,6.5,0c0,2.1,0,3.6,0,5.6C133,75.5,130.9,75.7,128.9,75.8z"/>
	<path class="st0" d="M150.1,69.9c0.1,1,0.2,2,0.3,2.9c0,0.6,0,1.2,0,1.8c0,0.4,0,0.7,0,1.1c-0.2,0.2-0.3,0.5-0.3,0.7
		c-1.6,0-3.2,0-5.5,0c-0.1-2.1-0.2-3.9-0.3-6.5C146.4,69.9,148.2,69.9,150.1,69.9z"/>
	<path class="st14" d="M150.2,82.5c0,2.3,0,4.5,0,6.8c-1.7,0-3.5,0-5.5,0c0-2.2,0-4,0-6.3C146.5,82.9,148.3,82.7,150.2,82.5z"/>
	<path class="st0" d="M154.3,116.2c-1.4-0.1-2.8-0.2-4.2-0.3c0-2.1,0.1-4.3,0.1-6.4c1.6,0,3.1-0.1,4.7-0.1c0,0,0.2,0.3,0.2,0.3
		c0.1,0.7,0.1,1.5,0.2,2.2c-0.1,1.3-0.2,2.7-0.3,4c0,0,0,0,0,0C154.8,115.8,154.5,116,154.3,116.2z"/>
	<path class="st8" d="M124.3,64.8c1.4,0.1,2.7,0.1,4.1,0.2c0,1.6,0,3.2,0.1,4.8c-1.3-0.1-2.6-0.1-4.4-0.2
		C124.2,67.9,124.3,66.4,124.3,64.8z"/>
	<path class="st10" d="M134.4,90.4c0-0.3,0.1-0.7,0.1-1c0.7,2.5,1.3,4.9,2,7.4c-0.7,0-1.3,0-2,0C134.5,94.7,134.5,92.6,134.4,90.4z"
		/>
	<path class="st10" d="M128.6,82.5c0.1-0.3,0.2-0.6,0.2-0.9c0.2,0.3,0.5,0.7,0.7,1C129.3,82.6,128.9,82.6,128.6,82.5z"/>
	<path class="st7" d="M163,109c-0.3,0.3-0.6,0.6-0.9,0.8c-0.7,0-1.4,0-2,0c-0.9-0.1-1.7-0.2-2.6-0.3c-0.4-0.2-0.8-0.4-1.2-0.6
		c0.1-2.2,0.2-4.5,0.3-6.7c2.1,0,4.3,0,6.4,0.1c0,0,0.1-0.1,0.1-0.1c-0.2,0.3-0.2,0.6,0,0.9C163,105,163,107,163,109z"/>
	<path class="st12" d="M163.1,103.1c-0.2-0.3-0.2-0.6,0-0.9c0.1,0.2,0.3,0.4,0.4,0.6C163.4,102.8,163.2,103,163.1,103.1z"/>
	<path class="st12" d="M163.4,98.3c0.2-0.3,0.4-0.6,0.6-0.9C163.7,97.7,163.5,98,163.4,98.3z"/>
	<path class="st14" d="M159.1,82.8c1.3,0,2.5-0.1,3.8-0.1c0.1,2.2,0.2,4.3,0.3,6.5C161.7,87.1,160.4,84.9,159.1,82.8z"/>
	<path class="st8" d="M156.5,102.3c-0.1,2.2-0.2,4.5-0.3,6.7c-0.1,0.2-0.1,0.4-0.1,0.6l-0.1,0.4c-0.3-0.1-0.6-0.2-0.9-0.3
		c0,0-0.2-0.3-0.2-0.3c0.1-2.4,0.1-4.8,0.2-7.3C155.6,102.1,156.1,102.2,156.5,102.3z"/>
	<path class="st3" d="M150.3,75.7c0-0.4,0-0.7,0-1.1c0.1,0.3,0.2,0.5,0.3,0.8C150.6,75.5,150.4,75.6,150.3,75.7z"/>
	<path class="st4" d="M109.1,76.1c-0.1,2.1-0.2,4.2-0.3,6.3c-0.3,2.3-0.6,4.6-0.9,6.9c-0.3,0.1-0.6,0.1-0.9,0.3c-0.6,0-1.2,0-1.8,0
		c-0.3,0-0.7-0.1-1-0.1c-1.7-0.1-3.5-0.1-5.2-0.2c0-2.3-0.1-4.6-0.1-6.8c0,0,0.2,0,0.2,0c1.5-0.1,3-0.1,4.9-0.2
		c-0.3-2.3-0.5-4-0.7-5.7c0.1-0.3,0.3-0.5,0.6-0.7C105.7,75.9,107.4,76,109.1,76.1z"/>
	<path class="st2" d="M109.1,76.1c-1.7-0.1-3.4-0.2-5.1-0.3c0-2,0-3.9,0.1-5.9c1,0,2.1,0,3.1,0c1.9-0.7,3.9-1.4,5.8-2.1
		c0,2.4,0,4.8,0,7.8C111.8,75.8,110.5,75.9,109.1,76.1z"/>
	<path class="st8" d="M99,82.4c0,2.3,0.1,4.6,0.1,6.8c-2,0.2-3.9,0.3-5.9,0.5l-0.3-0.3c-0.2-2.3-0.3-4.5-0.5-6.8l0.2-0.2l0.2,0.1
		C94.9,82.5,96.9,82.4,99,82.4z"/>
	<path class="st2" d="M87.6,82.6c0.2-2.2,0.4-4.4,0.6-6.6c1.4,0.2,2.8,0.3,4.7,0.5c0,2.1,0,4.1,0,6c0,0-0.2-0.1-0.2-0.1
		s-0.2,0.2-0.2,0.2c-1.7,0-3.3-0.1-5-0.1L87.6,82.6z"/>
	<path class="st14" d="M103.4,76.5c0.2,1.7,0.4,3.4,0.7,5.7c-1.9,0.1-3.4,0.2-4.9,0.2c0-1.6,0-3.2,0-5.3
		C100.7,76.9,102.1,76.7,103.4,76.5z"/>
	<path class="st14" d="M67.2,66.8c-0.2-0.2-0.3-0.5-0.4-0.8c0.4-0.3,0.8-0.6,1.2-0.9c2.9-0.1,5.8-0.1,8.7-0.2
		c-0.2,0.7-0.3,1.4-0.5,2.1C73.2,67,70.2,66.9,67.2,66.8z"/>
	<path class="st4" d="M217.7,192.2c0-1.3,0-2.6,0-3.8c2-0.3,3.9-0.7,5.9-1c0,1.7-0.1,3.3-0.1,5C221.6,192.3,219.7,192.3,217.7,192.2
		z"/>
	<path class="st5" d="M211.8,192.5c2-0.1,4-0.2,6-0.3c0,1.3-0.1,2.7-0.1,4c-1.9,0-3.7-0.1-5.6-0.1
		C212,194.9,211.9,193.7,211.8,192.5z"/>
	<path class="st5" d="M120.6,70c0.1,1.9,0.1,3.8,0.2,5.6c-0.6,0.3-1.3,0.7-1.9,1c-0.3,0-0.7,0-1,0c0.1-2.2,0.3-4.4,0.4-6.7
		c0.3-0.1,0.5-0.2,0.8-0.2C119.6,69.8,120.1,69.9,120.6,70z"/>
	<path class="st13" d="M124.8,97c-5,0-10,0-14.9,0c0-2,0-4,0-6.3c1.5-0.5,2.8-0.8,4.1-1.2c0.6,0,1.3,0,1.9,0.1
		c0.8,0.1,1.7,0.3,2.6,0.4c0.3,1.6,0.6,3.1,0.9,5c1.6,0.1,3,0.2,4.5,0.2C124.1,95.9,124.5,96.5,124.8,97z"/>
	<path class="st8" d="M105.3,89.5c0.6,0,1.2,0,1.8,0c0,2.5,0,4.9,0,7.4c-0.8,0-1.7,0-2.5,0c0-2.1,0-4.3,0-6.4
		C104.8,90.2,105,89.8,105.3,89.5z"/>
	<path class="st8" d="M114,82.7c0.9-2,1.9-4,2.8-6c0,1.9,0,3.8-0.1,5.7c-0.3,0.1-0.6,0.2-0.8,0.3C115.3,82.7,114.7,82.7,114,82.7z"
		/>
	<path class="st3" d="M114,82.7c0.7,0,1.3,0,2,0c0,2.3-0.1,4.6-0.1,6.9c-0.6,0-1.3,0-1.9-0.1C114,87.2,114,85,114,82.7z"/>
	<path class="st14" d="M116.8,82.4c0-1.9,0-3.8,0.1-5.7c0.3,0,0.6,0,1,0c0.3,0,0.7,0,1,0c0,2,0,3.9,0,5.9l-0.1-0.1
		C118.1,82.4,117.5,82.4,116.8,82.4z"/>
	<path class="st12" d="M107.9,89.3c0.3-2.3,0.6-4.6,0.9-6.9C108.5,84.7,108.2,87,107.9,89.3z"/>
	<path class="st5" d="M87.5,128.6c-3.7,0-7.3,0-11-0.1c0-1.7-0.1-3.3-0.1-5c0.2-0.2,0.2-0.5,0.1-0.8c0,0,0.2-0.3,0.2-0.3
		c0.4,0,0.7-0.1,1.1-0.1c1,0,1.9,0,2.9,0c0.4,0,0.7,0,1.1,0c1.9,0.1,3.9,0.2,5.8,0.2C87.5,124.7,87.5,126.6,87.5,128.6L87.5,128.6z"
		/>
	<path class="st15" d="M76.4,123.6c0,1.7,0.1,3.3,0.1,5c0,0-0.4-0.1-0.4-0.1s-0.4,0-0.4,0c-0.6,0-1.3,0-1.9,0c0-2.1,0-4.2,0-6.4
		c0.9-0.1,1.9-0.3,2.8-0.4l0.2-0.1c-0.1,0.3-0.1,0.5-0.1,0.8c0,0-0.2,0.3-0.2,0.3c-0.1,0.1-0.3,0.1-0.3,0.2
		C76.2,123.2,76.3,123.4,76.4,123.6z"/>
	<path class="st10" d="M110.9,128.6c2.3-0.1,4.5-0.1,6.8-0.2c0,1.1,0,2.3-0.1,3.4c-2,0-4,0-6.5,0c-0.1,2-0.2,3.8-0.3,5.5
		c0,0,0.1,0.1,0.1,0.1c-1.2,0-2.5,0.1-3.7,0.1c-1.1,0-2.2,0-3.2-0.1c-0.3-0.1-0.7-0.1-1-0.2c0.2-1.6,0.4-3.3,0.5-4.9
		c0.2-0.9,0.4-1.9,0.6-2.8C106.4,129.2,108.7,128.9,110.9,128.6z"/>
	<path class="st14" d="M103.5,132.3c-0.2,1.6-0.4,3.3-0.5,4.9c-1.2,0-2.4-0.1-3.6-0.1c-0.2-0.4-0.4-0.9-0.6-1.3c0-0.9,0-1.8,0-2.7
		C100.4,132.9,102,132.6,103.5,132.3z"/>
	<path class="st1" d="M98.8,135.8c0.2,0.4,0.4,0.9,0.6,1.3c-0.4,0.1-0.7,0.2-1.1,0.2C98.5,136.9,98.6,136.4,98.8,135.8z"/>
	<path class="st15" d="M110.9,128.6c-2.3,0.3-4.5,0.6-6.8,1c-1.7-0.2-3.3-0.5-5.2-0.7c-0.3,1-0.5,1.9-0.7,2.7c-1.9,0-3.8,0-5.7,0.1
		c-0.1-1-0.1-2.1-0.2-3.1c0-1.8,0-3.7,0-5.8c-2,0-3.4,0-4.8,0c-1.9-0.1-3.9-0.2-5.8-0.2c0-0.3-0.1-0.5-0.2-0.8c0-1.6,0-3.2,0-4.8
		c0.1-0.3,0.2-0.6,0.2-0.9c3.6-0.1,7.2-0.2,10.8-0.3c3.4,0,6.7,0,10.6,0c0-2.3,0-4,0-5.8c0-0.3,0-0.7,0-1l0,0c2.2,0,4.3,0,6.9,0
		c0-2.7,0-4.6,0-6.5c1.7,0,3.3,0,5-0.1c0.1,0.3,0.3,0.5,0.6,0.7c0.1,4.3,0.2,8.5,0.4,12.8c-1.1,2.2-2.1,4.4-3.2,6.6
		c-0.7,0-1.3,0-2,0c0-2,0-4,0-6.3c-2.5,0-4.3,0-6.5,0c0,2.1,0,3.9,0,6.3c2.4,0,4.4,0,6.4,0C110.8,124.5,110.9,126.6,110.9,128.6z"/>
	<path class="st1" d="M98.2,131.5c0.2-0.9,0.5-1.7,0.7-2.7c1.9,0.3,3.5,0.5,5.2,0.7c-0.2,0.9-0.4,1.9-0.6,2.8
		c-1.6,0.3-3.1,0.5-4.7,0.8C98.6,132.6,98.4,132.1,98.2,131.5z"/>
	<path class="st6" d="M87.5,122.7c1.4,0,2.8,0,4.8,0c0,2.2,0,4,0,5.8c-1.6,0-3.2,0-4.8,0.1C87.5,126.6,87.5,124.7,87.5,122.7z"/>
	<path class="st0" d="M67.2,121.9c-2,0.1-3.9,0.2-5.9,0.3c0-2.1,0.1-4.1,0.1-6.2c1.8,0,3.7-0.1,5.5-0.1
		C67,117.9,67.1,119.9,67.2,121.9z"/>
	<path class="st5" d="M66.9,115.9c-1.8,0-3.7,0.1-5.5,0.1c-0.1-2-0.3-4.1-0.4-6.1c2.1,0,4.2-0.1,6.3-0.1c0.1,1.4,0.2,2.8,0.3,4.2
		c-0.2,0.6-0.4,1.2-0.6,1.8C66.9,115.8,66.9,115.9,66.9,115.9z"/>
	<path class="st15" d="M67.6,114c-0.1-1.4-0.2-2.8-0.3-4.2c1.9-0.4,3.7-0.8,6.1-1.4c0-1.7,0-3.5,0-6.3c-2.4,0-4.9,0-7.4,0
		c0-1.8,0-3.6,0-5.4c3.5,0,7-0.1,10.5-0.2c0.1,1.9,0.2,3.7,0.3,5.6c1.3,0.1,2.6,0.2,3.8,0.2c3.6,0,7.3,0,10.9,0
		c0.3,0.2,0.6,0.5,0.9,0.7c0.1,0.3,0.2,0.6,0.4,0.9c-0.1,1.6-0.1,3.2-0.2,4.8c0,0.4-0.1,0.8-0.1,1.1l0.1,0c-5.1,0-10.3,0-15.8,0
		c0,2.3,0,4,0,5.8c-0.4,0.2-0.7,0.4-1.1,0.6c-2.6,0-5.2-0.1-7.8-0.1c0.1-0.2,0.1-0.4,0.1-0.6C67.8,115.1,67.7,114.6,67.6,114z"/>
	<path class="st3" d="M67.9,116.3c2.6,0,5.2,0.1,7.8,0.1c0.3,0.4,0.5,0.9,0.8,1.3c0.1,1.4,0.1,2.7,0.2,4.1c-0.9,0.1-1.9,0.3-2.8,0.4
		c-2-0.2-4-0.3-5.9-0.5C67.9,119.9,67.9,118.1,67.9,116.3z"/>
	<path class="st14" d="M67.9,116.3c0,1.8,0,3.6,0,5.4c-0.2,0.1-0.5,0.2-0.7,0.2c-0.1-2-0.2-4-0.3-6c0,0,0.1-0.1,0.1-0.1
		c0.3,0,0.7-0.1,1-0.1C68,115.9,67.9,116.1,67.9,116.3z"/>
	<path class="st6" d="M55.2,96.2c0-1.5,0-2.9,0-4.6c1-0.7,1.9-1.5,2.9-2.3c1.1,0,2.2,0,3.2,0.1c-0.1,2.3-0.2,4.5-0.3,6.8
		C59.1,96.2,57.1,96.2,55.2,96.2z"/>
	<path class="st12" d="M54.2,97.4c0.3-0.1,0.6-0.1,0.9,0c-0.1,0.3-0.2,0.7-0.3,1C54.5,98,54.4,97.7,54.2,97.4z"/>
	<path class="st12" d="M107.3,192.2c0.3,0,0.5,0,0.8,0c-0.2,0.3-0.5,0.7-0.7,1C107.3,192.9,107.3,192.6,107.3,192.2z"/>
	<path class="st3" d="M107.3,137.5c1.2,0,2.5-0.1,3.7-0.1c0,1.7,0,3.3,0,5c0,0,0.1-0.1,0.1-0.1c-1.2,0.3-2.5,0.7-3.7,1
		C107.3,141.4,107.3,139.4,107.3,137.5z"/>
	<path class="st15" d="M144.4,115.9c0,2.2,0.1,4.5,0.1,6.7c-0.1,1.3-0.2,2.6-0.2,3.9c-1.3,0-2.6-0.1-3.8-0.1c0-0.3-0.1-0.5-0.2-0.8
		c-2.6-1-5.1-2-7.7-3c-1.3,0-2.6,0-3.9,0l-0.1-0.1c0-2.3,0-4.5,0.1-6.8C133.9,115.8,139.1,115.8,144.4,115.9z"/>
	<path class="st9" d="M140.4,126.4c1.3,0,2.6,0.1,3.8,0.1c0,1.6,0,3.2,0,5.7c-4.1,0-7.9,0-11.7,0c-1.3-0.3-2.5-0.5-3.8-0.8l-0.2,0.1
		c0.1-1.7,0.1-3.3,0.2-5c1-0.1,1.9-0.2,2.9-0.4c0.4,0,0.7,0,1.1,0.1c2.3,0,4.5,0,6.8,0C139.8,126.4,140.1,126.4,140.4,126.4z"/>
	<path class="st9" d="M111,142.3c0-1.7,0-3.3,0-5c0,0-0.1-0.1-0.1-0.1c2.3,0,4.7,0,7,0c0.3,0,0.6-0.1,1-0.1c1,0,2,0,2.9,0
		c0.3,0,0.7,0,1,0c1.9,0,3.8,0.1,5.7,0.1l-0.2,0.2c0,0,0.1,0.2,0.1,0.2c0,1.4,0,2.9,0,4.3C122.6,142.2,116.8,142.3,111,142.3z"/>
	<path class="st7" d="M128.5,137.3c-1.9,0-3.8-0.1-5.7-0.1c0-0.3,0-0.5-0.1-0.7c0.1-1.5,0.3-3,0.4-4.8c2.1,0,3.8,0,5.4,0
		c0,0,0.2-0.1,0.2-0.1c0,1,0.1,1.9,0.1,2.9C128.7,135.3,128.6,136.3,128.5,137.3z"/>
	<path class="st5" d="M157.4,109.6c0.9,0.1,1.7,0.2,2.6,0.3c0,2,0,3.9-0.1,5.9c-1.6,0-3.3,0-4.9,0c0.1-1.3,0.2-2.7,0.3-4
		c0.2-0.6,0.4-1.3,0.7-1.9c0,0,0.1-0.4,0.1-0.4C156.6,109.5,157,109.6,157.4,109.6z"/>
	<path class="st3" d="M128.5,142.1c0-1.4,0-2.9,0-4.3c1.5,0.6,3,1.1,9.2,3.5C131.1,141.8,129.8,142,128.5,142.1z"/>
	<path class="st3" d="M160,115.8c0-2,0-3.9,0.1-5.9c0.7,0,1.4,0,2,0C161.4,111.8,160.7,113.8,160,115.8z"/>
	<path class="st3" d="M128.8,134.4c0-1-0.1-1.9-0.1-2.9c1.3,0.3,2.5,0.5,3.8,0.8C131.3,133,130.1,133.7,128.8,134.4z"/>
	<path class="st12" d="M154.3,116.2c0.2-0.2,0.5-0.3,0.7-0.4c0,0.3,0.1,0.5,0.1,0.8C154.9,116.5,154.6,116.3,154.3,116.2z"/>
	<path class="st13" d="M104.6,90.5c0,2.1,0,4.3,0,6.4c-3.9,0-7.7,0-11.6,0c0.1-2.4,0.1-4.8,0.2-7.2c2-0.2,3.9-0.3,5.9-0.5
		c1.7,0.1,3.5,0.1,5.2,0.2C104.4,89.8,104.5,90.1,104.6,90.5z"/>
	<path class="st8" d="M92.5,108.9c0.1-1.6,0.1-3.2,0.2-4.8c1.9,0.7,3.9,1.3,6.6,2.3c0.4-1.4,0.7-2.6,1-3.9c0.7,0,1.3,0,2-0.1
		c0.3,0.2,0.6,0.5,0.9,0.7c0,1.9,0,3.9,0,5.8c0,0,0,0,0,0C99.6,108.9,96.1,108.9,92.5,108.9z"/>
	<path class="st10" d="M103.2,108.9c0-1.9,0-3.9,0-5.8c0.1-0.2,0.1-0.5,0-0.7c2.3,0,4.6,0,6.9,0.1c0,1.9,0,3.8,0,6.5
		C107.5,108.9,105.3,108.9,103.2,108.9z"/>
	<path class="st1" d="M93.1,89.7c-0.1,2.4-0.1,4.8-0.2,7.2c-1.7,0-3.4,0-5.4,0c0-2.6,0-5,0-7.4c1.8,0,3.5-0.1,5.3-0.1L93.1,89.7z"/>
	<path class="st8" d="M134.4,90.4c0,2.1,0.1,4.3,0.1,6.4c-1.9,0-3.8,0.1-5.6,0.1c-0.1-2.2-0.1-4.4-0.2-6.6
		C130.6,90.4,132.5,90.4,134.4,90.4z"/>
	<path class="st3" d="M92.9,89.4c-1.8,0-3.5,0.1-5.3,0.1c0-2.3-0.1-4.7-0.1-7c1.7,0,3.3,0.1,5,0.1C92.6,84.9,92.7,87.2,92.9,89.4z"
		/>
	<path class="st4" d="M128.7,90.3c0.1,2.2,0.1,4.4,0.2,6.6c-1.4,0-2.7,0.1-4.1,0.1c-0.4-0.6-0.7-1.2-1.1-1.8
		c0.1-1.8,0.3-3.5,0.4-5.3c1.1,0,2.2,0,3.4,0c0.3,0.1,0.6,0.2,0.9,0.3C128.5,90.4,128.7,90.3,128.7,90.3z"/>
	<path class="st6" d="M100.3,102.4c-0.3,1.2-0.6,2.5-1,3.9c-2.7-0.9-4.6-1.6-6.6-2.3c-0.1-0.3-0.2-0.6-0.3-0.9
		c0.1-0.2,0.1-0.5,0.2-0.7C95.1,102.4,97.7,102.4,100.3,102.4z"/>
	<path class="st10" d="M80.6,102.4c-1.3-0.1-2.6-0.2-3.8-0.2C78,102.2,79.3,102.3,80.6,102.4z"/>
	<path class="st10" d="M115.7,103c-0.3-0.1-0.5-0.4-0.6-0.7c0.3-0.2,0.6-0.2,0.9,0C116,102.6,115.9,102.9,115.7,103z"/>
	<path class="st14" d="M103.2,102.4c0.1,0.2,0.1,0.5,0,0.7c-0.3-0.2-0.6-0.5-0.9-0.7C102.6,102.2,102.9,102.2,103.2,102.4z"/>
	<path class="st10" d="M92.5,102.4c-0.1,0.2-0.1,0.5-0.2,0.7c-0.3-0.2-0.6-0.5-0.9-0.7C91.8,102.4,92.2,102.4,92.5,102.4z"/>
	<path class="st15" d="M128.5,131.6c-1.7,0-3.4,0-5.4,0c-0.2,1.8-0.3,3.3-0.4,4.8c-0.3,0.2-0.6,0.5-0.9,0.7c-1,0-2,0-2.9,0
		c-0.3-0.2-0.6-0.5-0.9-0.7c-0.1-1.5-0.2-3.1-0.3-4.6c0-1.1,0-2.3,0.1-3.4c0.1-1.7,0.2-3.5,0.4-5.8c3.7,0,7.1,0,10.5,0
		c0,0,0.1,0.1,0.1,0.1c0,1.3,0,2.7,0,4C128.6,128.3,128.6,130,128.5,131.6z"/>
	<path class="st10" d="M112.8,122.4c1.1-2.2,2.1-4.4,3.2-6.6c0.3,0.1,0.7,0.2,1,0.3c-0.1,1.8-0.2,3.5-0.3,6
		C115.4,122.2,114.1,122.3,112.8,122.4z"/>
	<path class="st2" d="M124.2,90c-0.1,1.8-0.3,3.5-0.4,5.3c-1.4-0.1-2.9-0.2-4.5-0.2c-0.3-1.9-0.6-3.4-0.9-5c0.1-2.5,0.2-5.1,0.3-7.6
		c0,0,0.1,0.1,0.1,0.1c0.7,0,1.3,0,2,0c1.2,0,2.4,0.1,3.5,0.1C124.3,85.1,124.3,87.5,124.2,90z"/>
	<path class="st12" d="M128.5,90.4c-0.3-0.1-0.6-0.2-0.9-0.3C127.9,90.2,128.2,90.3,128.5,90.4z"/>
	<path class="st4" d="M120.8,82.5c-0.7,0-1.3,0-2,0c0-2,0-3.9,0-5.9c0.6-0.3,1.3-0.7,1.9-1C120.8,77.9,120.8,80.2,120.8,82.5z"/>
	<path class="st3" d="M156,109.9c-0.2,0.6-0.4,1.3-0.7,1.9c-0.1-0.7-0.1-1.5-0.2-2.2C155.4,109.7,155.7,109.8,156,109.9z"/>
	<path class="st1" d="M157.4,109.6c-0.4,0-0.9-0.1-1.3-0.1c0-0.2,0-0.4,0.1-0.6C156.6,109.1,157,109.4,157.4,109.6z"/>
	<path class="st12" d="M104.6,90.5c-0.1-0.4-0.2-0.7-0.4-1.1c0.3,0,0.7,0.1,1,0.1C105,89.8,104.8,90.2,104.6,90.5z"/>
	<path class="st5" d="M118.8,82.4c-0.1,2.5-0.2,5.1-0.3,7.6c-0.9-0.1-1.7-0.3-2.6-0.4c0-2.3,0.1-4.6,0.1-6.9
		c0.3-0.1,0.6-0.2,0.8-0.3C117.5,82.4,118.1,82.4,118.8,82.4z"/>
	<path class="st0" d="M76.6,121.8c-0.1-1.4-0.1-2.7-0.2-4.1c0.1-0.3,0.3-0.6,0.4-0.9c0.3-0.2,0.6-0.5,0.9-0.7c1,0,1.9,0,2.9,0
		c0.3,0.3,0.6,0.5,0.9,0.8c0,1.6,0,3.2,0,4.8c-0.3,0.2-0.6,0.5-0.9,0.7c-1,0-1.9,0-2.9,0c-0.3-0.2-0.6-0.5-0.9-0.7L76.6,121.8z
		 M80,118.5c0-0.2-0.1-0.3-0.1-0.5c-0.4,0.1-0.8,0.2-1.3,0.3c0,0.2,0.1,0.4,0.1,0.5C79.2,118.7,79.6,118.6,80,118.5z"/>
	<path class="st11" d="M76.8,121.7c0.3,0.2,0.6,0.5,0.9,0.7c-0.4,0-0.7,0.1-1.1,0.1C76.7,122.2,76.7,122,76.8,121.7z"/>
	<path class="st11" d="M80.6,122.4c0.3-0.2,0.6-0.5,0.9-0.7c0.1,0.2,0.2,0.5,0.2,0.8C81.3,122.4,81,122.4,80.6,122.4z"/>
	<path class="st1" d="M76.4,123.6c-0.1-0.2-0.2-0.4-0.2-0.6c0,0,0.2-0.1,0.3-0.2C76.6,123.1,76.6,123.4,76.4,123.6z"/>
	<path class="st14" d="M117.6,131.8c0.1,1.5,0.2,3.1,0.3,4.6c-0.1,0.3-0.1,0.6,0,0.9c-2.3,0-4.7,0-7,0c0.1-1.7,0.2-3.4,0.3-5.5
		C113.6,131.8,115.6,131.8,117.6,131.8z"/>
	<path class="st6" d="M80.6,116.1c-1,0-1.9,0-2.9,0c-0.3-0.1-0.7-0.2-1-0.3l0,0c0-1.7,0-3.5,0-5.8c5.6,0,10.7,0,15.8,0
		c0,1.9,0,3.8,0,5.7c-3.6,0.1-7.2,0.2-10.8,0.3C81.4,116,81,116.1,80.6,116.1z"/>
	<path class="st7" d="M92.5,115.7c0-1.9,0-3.8,0-5.7c0,0-0.1,0-0.1,0c3.6,0,7.1,0,10.7,0c0,1.7,0,3.5,0,5.8
		C99.2,115.7,95.9,115.7,92.5,115.7z"/>
	<path class="st7" d="M110.8,122.5c-2,0-4.1,0-6.4,0c0-2.3,0-4.2,0-6.3c2.1,0,4,0,6.5,0C110.8,118.4,110.8,120.4,110.8,122.5
		C110.8,122.5,110.8,122.5,110.8,122.5z"/>
	<path class="st10" d="M103.1,110c-3.6,0-7.1,0-10.7,0c0-0.4,0.1-0.8,0.1-1.1c3.5,0,7.1,0.1,10.6,0.1
		C103.1,109.3,103.1,109.6,103.1,110z"/>
	<path class="st7" d="M80.6,116.1c0.4,0,0.7,0,1.1,0c0,0.3-0.1,0.6-0.2,0.9C81.2,116.6,80.9,116.3,80.6,116.1z"/>
	<path class="st10" d="M68,115.7c-0.3,0-0.7,0.1-1,0.1c0.2-0.6,0.4-1.2,0.6-1.8C67.7,114.6,67.8,115.1,68,115.7z"/>
	<path class="st14" d="M76.8,116.8c-0.1,0.3-0.3,0.6-0.4,0.9c-0.3-0.4-0.5-0.9-0.8-1.3c0.4-0.2,0.7-0.4,1.1-0.6c0,0,0,0,0,0
		C76.7,116.1,76.8,116.5,76.8,116.8z"/>
	<path class="st0" d="M139.5,126.4c-2.3,0-4.5,0-6.8,0c0.1-0.3,0-0.5-0.2-0.8c0-1,0-2,0.1-2.9c2.6,1,5.1,2,7.7,3
		C140,125.9,139.7,126.2,139.5,126.4z"/>
	<path class="st10" d="M132.5,122.7c0,1,0,2-0.1,2.9c-0.3,0.2-0.6,0.5-0.9,0.7c-1,0.1-1.9,0.2-2.9,0.4c0-1.3,0-2.7,0-4
		C129.9,122.7,131.2,122.7,132.5,122.7z"/>
	<path class="st11" d="M139.5,126.4c0.3-0.3,0.5-0.5,0.8-0.8c0.1,0.2,0.2,0.5,0.2,0.8C140.1,126.4,139.8,126.4,139.5,126.4z"/>
	<path class="st6" d="M131.6,126.3c0.3-0.2,0.6-0.5,0.9-0.7c0.2,0.2,0.3,0.5,0.2,0.8C132.3,126.4,131.9,126.3,131.6,126.3z"/>
	<path class="st10" d="M117.9,137.3c0-0.3,0-0.6,0-0.9c0.3,0.2,0.6,0.5,0.9,0.7C118.5,137.2,118.2,137.2,117.9,137.3z"/>
	<path class="st10" d="M121.8,137.1c0.3-0.2,0.6-0.5,0.9-0.7c0.1,0.2,0.2,0.5,0.1,0.7C122.5,137.1,122.1,137.1,121.8,137.1z"/>
	<path class="st7" d="M80,118.5c-0.4,0.1-0.8,0.2-1.3,0.3c0-0.2-0.1-0.4-0.1-0.5c0.4-0.1,0.8-0.2,1.3-0.3
		C79.9,118.1,80,118.3,80,118.5z"/>
	<path class="st7" d="M76.8,116.8c0-0.3-0.1-0.6-0.1-1c0.3,0.1,0.7,0.2,1,0.3C77.4,116.3,77.1,116.5,76.8,116.8z"/>
</g>
</svg>
