<?xml version="1.0" encoding="UTF-8" standalone="no"?>
<svg xmlns="http://www.w3.org/2000/svg" width="256" height="256" viewBox="0 0 409.25333 409.25333">
  <g id="g1" transform="matrix(1.3333333,0,0,-1.3333333,0,409.25333)">
    <g id="g2" transform="scale(0.1)">
      <path
        d="M 3069.41,1534.71 C 3069.41,687.121 2382.3,0 1534.71,0 687.109,0 0,687.121 0,1534.71 c 0,847.6 687.109,1534.71 1534.71,1534.71 847.59,0 1534.7,-687.11 1534.7,-1534.71"
        style="fill:#cfd387;fill-opacity:1;fill-rule:nonzero;stroke:none" id="path1" />
      <path
        d="m 725.938,1451.6 c -28.375,0 -54.665,18.38 -63.372,46.93 -24.414,79.8 44.907,161.39 218.008,256.71 137.186,75.49 325.906,151.7 531.486,214.55 205.57,62.92 404.62,105.31 560.6,119.36 196.75,17.83 299.88,-11.04 324.32,-90.89 10.62,-35.04 -9.1,-72.07 -44.04,-82.8 -31.51,-9.62 -64.65,5.34 -78.82,33.97 -49.47,25.53 -307.82,20.47 -723.22,-106.52 -415.42,-127.08 -632.416,-267.38 -659.181,-316.22 4.32,-31.59 -14.864,-62.57 -46.399,-72.19 -6.433,-1.97 -12.972,-2.9 -19.382,-2.9"
        style="fill:#2d4d32;fill-opacity:1;fill-rule:nonzero;stroke:none" id="path2" />
      <path
        d="m 803.145,1933.88 c -28.383,0 -54.692,18.4 -63.364,46.92 -27.355,89.1 82.836,161.88 168.012,208.75 101.507,55.83 240.907,112.17 392.537,158.52 151.73,46.41 298.7,77.64 414.03,88.14 96.94,8.86 228.82,10.08 256.06,-78.94 10.74,-35.18 -8.96,-72.3 -43.96,-82.9 -29.08,-8.87 -59.47,3.15 -75.08,27.4 -45.08,14.8 -227.39,6.52 -512.2,-80.58 -284.88,-87.05 -440.633,-182.21 -469.61,-219.62 0.496,-28.87 -17.922,-55.86 -46.953,-64.78 -6.543,-1.92 -13,-2.91 -19.472,-2.91"
        style="fill:#2d4d32;fill-opacity:1;fill-rule:nonzero;stroke:none" id="path3" />
      <path
        d="m 2213.36,1606.67 c -27.63,90.25 -162.48,88.81 -261.43,79.95 -118.58,-10.78 -269.74,-42.98 -425.6,-90.61 -155.85,-47.68 -299.2,-105.66 -403.44,-162.96 -87,-47.93 -199.66,-122.1 -172.07,-212.46 10.785,-34.98 47.868,-54.67 82.87,-43.95 29.15,8.91 47.73,36.16 46.92,65.34 29.04,38.57 189.31,136.92 484.61,227.23 245.76,75.09 417.26,93.33 493.88,88.27 -30.85,-25.2 -89.28,-61.01 -182.89,-96.97 l -1.71,-0.76 c -224.23,-93.99 -300.59,-246.61 -233.21,-466.398 l 13.54,-44.321 c 18.77,11.047 39.3,20.168 61.1,26.891 21.87,6.687 43.94,10.457 65.82,11.828 l -15.44,50.53 c -37.83,127.64 -22.97,222.44 158.68,298.75 100.45,38.91 327.3,142.19 288.37,269.64"
        style="fill:#2d4d32;fill-opacity:1;fill-rule:nonzero;stroke:none" id="path4" />
      <path
        d="m 1970.26,410.762 c 0,0 -69.29,122.59 -182.69,167.449 -14.7,5.84 -30.23,10.359 -46.37,13.16 -12.07,174.84 -54.67,254.09 -54.67,254.09 l -0.4,1.18 c 0.4,0.32 0.66,0.578 1.06,0.828 17.04,13.383 36.65,23.871 58.66,30.609 21.95,6.672 44.13,9.004 65.68,7.383 0.39,0 1.12,-0.07 1.53,-0.16 l 0.47,-1.36 29.02,-87.543 c -14.15,-14.378 -22.91,-34.148 -22.91,-55.937 0,-40.031 29.34,-73.07 67.6,-79.082 l 19.2,-57.859 63.82,-192.758"
        style="fill:#2d4d32;fill-opacity:1;fill-rule:nonzero;stroke:none" id="path5" />
    </g>
  </g>
</svg>