<svg version="1.1" id="Layer_1" xmlns="http://www.w3.org/2000/svg" xmlns:xlink="http://www.w3.org/1999/xlink" x="0px" y="0px"
	 width="100%" viewBox="0 0 256 256" enable-background="new 0 0 256 256" xml:space="preserve">
<path fill="#99D9EA" opacity="1.000000" stroke="none" 
	d="
M104.000000,257.000000 
	C69.696602,257.000000 35.393204,257.000000 1.044903,257.000000 
	C1.044903,171.771027 1.044903,86.542015 1.044903,1.000000 
	C48.353767,1.000000 95.708229,1.000000 143.528198,1.353475 
	C136.306961,9.925745 127.916702,15.209530 116.558044,8.366259 
	C116.032288,8.049512 115.197998,8.253976 114.659340,7.948119 
	C111.143471,5.951797 108.220146,7.302008 105.642914,9.663144 
	C102.763374,12.301235 102.321075,15.657180 103.628044,19.230625 
	C105.329178,23.881851 107.215698,28.466770 108.847244,33.141369 
	C109.763016,35.765156 111.706802,39.237354 110.755043,41.050476 
	C108.864960,44.651112 105.823036,48.348030 102.307671,50.254383 
	C93.983330,54.768608 85.103912,58.259266 75.953178,62.120644 
	C59.038578,62.051205 42.619637,62.000538 26.200928,62.041706 
	C24.791632,62.045242 23.383863,62.658287 21.692459,63.223160 
	C20.655256,65.704613 19.275383,67.943352 19.247475,70.198830 
	C19.055735,85.695099 19.139801,101.194870 19.150270,116.693504 
	C19.154818,123.427071 20.229643,124.524994 26.988911,124.537132 
	C41.320942,124.562851 55.668056,124.164665 69.977829,124.729507 
	C75.802406,124.959419 81.545952,127.242035 87.968361,128.740479 
	C86.523216,131.283234 85.794464,132.378250 85.247887,133.557709 
	C81.850334,140.889252 77.555275,147.969986 75.347908,155.648483 
	C72.201492,166.593536 70.179520,177.918564 68.472267,189.201569 
	C67.236992,197.365356 64.266922,205.280777 65.961220,213.956375 
	C69.943947,234.349747 80.777435,248.510269 100.901871,254.996719 
	C102.032364,255.361099 102.971695,256.318573 104.000000,257.000000 
z"/>
<path fill="#070706" opacity="1.000000" stroke="none" 
	d="
M104.468658,257.000000 
	C102.971695,256.318573 102.032364,255.361099 100.901871,254.996719 
	C80.777435,248.510269 69.943947,234.349747 65.961220,213.956375 
	C64.266922,205.280777 67.236992,197.365356 68.472267,189.201569 
	C70.179520,177.918564 72.201492,166.593536 75.347908,155.648483 
	C77.555275,147.969986 81.850334,140.889252 85.247887,133.557709 
	C85.794464,132.378250 86.523216,131.283234 87.968361,128.740479 
	C81.545952,127.242035 75.802406,124.959419 69.977829,124.729507 
	C55.668056,124.164665 41.320942,124.562851 26.988911,124.537132 
	C20.229643,124.524994 19.154818,123.427071 19.150270,116.693504 
	C19.139801,101.194870 19.055735,85.695099 19.247475,70.198830 
	C19.275383,67.943352 20.655256,65.704613 22.162809,63.258331 
	C39.028744,63.051590 55.141525,63.071026 71.253899,62.999458 
	C72.986771,62.991760 74.717285,62.455036 76.448898,62.163719 
	C85.103912,58.259266 93.983330,54.768608 102.307671,50.254383 
	C105.823036,48.348030 108.864960,44.651112 110.755043,41.050476 
	C111.706802,39.237354 109.763016,35.765156 108.847244,33.141369 
	C107.215698,28.466770 105.329178,23.881851 103.628044,19.230625 
	C102.321075,15.657180 102.763374,12.301235 105.642914,9.663144 
	C108.220146,7.302008 111.143471,5.951797 114.659340,7.948119 
	C115.197998,8.253976 116.032288,8.049512 116.558044,8.366259 
	C127.916702,15.209530 136.306961,9.925745 143.996857,1.353475 
	C146.370560,1.000000 148.741104,1.000000 151.620331,1.337504 
	C161.216202,11.589586 171.761551,14.108645 184.022247,7.975753 
	C184.463486,7.755037 184.957077,7.634145 185.432724,7.487734 
	C189.119232,6.352966 192.439468,7.078639 194.963272,9.966161 
	C197.647324,13.037036 197.690384,16.630705 195.971451,20.205702 
	C193.739304,24.848087 191.268188,29.378387 189.128204,34.061253 
	C187.734848,37.110233 186.747818,40.344891 185.376053,44.042767 
	C189.522095,44.042767 192.681702,43.926186 195.830154,44.064419 
	C205.647537,44.495441 211.778885,54.165112 207.442154,62.848976 
	C206.133423,65.469589 206.870636,67.102478 207.402527,69.546608 
	C208.188065,73.156349 207.385696,77.110886 207.265656,80.918800 
	C207.210114,82.680450 206.606934,84.677208 207.226196,86.160728 
	C209.126953,90.714218 209.561096,95.007698 206.930283,99.409264 
	C206.415314,100.270874 205.904922,101.847557 206.322113,102.442917 
	C210.154419,107.911469 209.331497,113.321014 206.522629,118.003868 
	C211.272888,124.800835 216.095581,130.799622 219.894653,137.388596 
	C223.768951,144.108063 227.638641,151.124664 229.726944,158.515106 
	C233.499863,171.867294 236.144318,185.554306 238.901917,199.173996 
	C244.035263,224.527679 227.018539,249.728470 202.840363,255.584259 
	C201.838058,255.827011 200.944321,256.517883 200.000000,257.000000 
	C168.312439,257.000000 136.624878,257.000000 104.468658,257.000000 
M229.987900,217.066528 
	C232.118851,208.768585 230.339325,200.667862 229.092087,192.451767 
	C225.825287,170.931992 219.812500,150.596558 206.517654,132.837753 
	C202.230591,127.111237 198.185104,122.427582 190.077942,123.881615 
	C186.526611,124.518555 182.760208,124.112160 179.100586,123.959923 
	C168.644211,123.524933 162.200775,114.639435 166.020248,105.694336 
	C167.240768,102.835930 166.689713,100.541000 166.394135,97.625710 
	C165.477509,88.584892 165.987320,79.397873 165.979370,70.267555 
	C165.977158,67.719055 166.717697,64.994797 166.053040,62.653332 
	C163.615448,54.066235 165.714905,48.933754 173.556503,45.002666 
	C175.005173,44.276428 176.408768,42.802147 177.093781,41.329262 
	C179.528748,36.093567 181.621582,30.699615 183.890335,25.385378 
	C184.977173,22.839581 186.167923,20.338135 188.025681,16.242224 
	C181.271011,17.989752 175.995148,19.804447 170.570343,20.588589 
	C167.343185,21.055067 163.735565,20.348475 160.576736,19.317949 
	C158.455307,18.625864 156.786591,16.481983 154.973602,14.919997 
	C148.622574,9.448209 148.499252,9.434541 141.824493,14.514956 
	C140.500381,15.522789 139.175446,16.530422 137.828354,17.507055 
	C132.909317,21.073288 127.872681,22.193192 122.047432,19.285427 
	C119.146080,17.837173 115.694778,17.490667 111.947327,16.502022 
	C114.585999,24.197067 116.696739,30.814394 119.199646,37.279903 
	C119.729584,38.648811 121.531769,39.859150 123.023048,40.465286 
	C130.236786,43.397327 133.839340,48.330818 133.948059,56.127186 
	C134.022415,61.458309 134.069595,66.794212 133.929276,72.122726 
	C133.779907,77.794937 131.663330,83.024971 126.538986,85.405014 
	C122.224442,87.408943 121.450821,90.441368 120.964996,94.274521 
	C119.905289,102.635635 115.308281,109.168419 110.163200,115.500366 
	C104.282509,122.737633 97.886665,129.715363 93.077644,137.633652 
	C80.223518,158.798615 77.130524,182.937180 74.894272,206.865250 
	C72.924995,227.936646 90.767685,247.724304 110.585678,247.964478 
	C138.407959,248.301636 166.237839,248.126602 194.063553,247.987259 
	C201.339752,247.950836 207.792801,244.959518 213.791672,240.980286 
	C222.199142,235.403305 227.123840,227.430344 229.987900,217.066528 
M92.913834,121.563553 
	C98.426773,112.849831 108.258949,107.153450 111.588188,96.555588 
	C99.413651,96.555588 88.213448,96.555588 76.917450,96.555588 
	C76.917450,93.722878 76.917450,91.000130 76.917450,88.043007 
	C85.603256,88.043007 93.926956,88.157600 102.241852,87.938431 
	C103.756416,87.898499 105.708443,86.827751 106.564987,85.606277 
	C107.142448,84.782799 106.214745,82.841881 105.847534,81.430191 
	C104.944504,77.958565 103.612099,74.552979 103.137184,71.028557 
	C102.666679,67.536858 103.034286,63.932224 103.034286,59.330868 
	C87.570610,68.219437 72.488625,74.920227 54.859764,71.045280 
	C54.859764,86.595589 54.859764,100.974182 54.859764,115.550972 
	C55.958401,115.667709 56.766468,115.869896 57.558784,115.820312 
	C69.619316,115.065620 81.416870,115.769318 92.913834,121.563553 
M45.753265,73.844666 
	C45.179977,73.156456 44.624050,71.888580 44.030682,71.870811 
	C38.802784,71.714249 33.568230,71.780037 28.347305,71.780037 
	C28.347305,86.791451 28.347305,101.124535 28.347305,115.438980 
	C34.271606,115.438980 39.806271,115.438980 45.784748,115.438980 
	C45.784748,101.621773 45.784748,88.204887 45.753265,73.844666 
M111.969070,67.381302 
	C111.969879,69.038567 111.945900,70.696297 111.976372,72.353012 
	C112.052361,76.484818 114.107933,78.896210 118.276596,79.148148 
	C122.297531,79.391167 124.923508,76.761894 125.011971,72.317184 
	C125.127373,66.519150 125.131256,60.714710 124.996933,54.917343 
	C124.905472,50.970108 122.480560,48.691544 118.718529,48.604698 
	C114.709084,48.512135 112.172455,50.794540 112.005196,54.982056 
	C111.853195,58.787758 111.970467,62.604221 111.969070,67.381302 
M180.820557,88.033806 
	C177.539139,88.012650 173.963028,88.037979 173.932343,92.475922 
	C173.898895,97.312325 177.731049,97.052719 181.133392,97.039139 
	C185.619141,97.021240 190.105042,97.018532 194.590759,97.038208 
	C197.630432,97.051544 199.944839,96.008736 200.003052,92.623482 
	C200.061737,89.210732 197.706299,88.094528 194.712051,88.054260 
	C190.393158,87.996178 186.072937,88.035812 180.820557,88.033806 
M173.862457,56.599907 
	C175.098999,58.278259 176.227676,61.295910 177.590561,61.405670 
	C183.858337,61.910446 190.203369,61.800159 196.491104,61.420609 
	C197.737823,61.345348 199.479660,59.274597 199.837296,57.836582 
	C200.133087,56.647251 198.741608,53.806110 198.066635,53.796120 
	C190.424377,53.682961 182.775299,53.951000 175.131912,54.225140 
	C174.737244,54.239296 174.377701,55.232876 173.862457,56.599907 
M175.758224,113.936378 
	C182.525269,114.172615 189.303070,114.683228 196.050522,114.419006 
	C197.439148,114.364639 198.714478,111.417664 200.042023,109.803947 
	C198.418961,108.501854 196.886307,106.239952 195.155930,106.076927 
	C189.883224,105.580139 184.532196,105.799217 179.215561,105.916649 
	C174.027374,106.031250 172.835464,108.306755 175.758224,113.936378 
M187.487534,79.224930 
	C190.150253,79.215935 192.961609,79.727165 195.425781,79.023178 
	C197.200317,78.516220 198.512177,76.389694 200.030411,74.985565 
	C198.553970,73.533516 197.174637,70.967857 195.583679,70.829132 
	C189.803635,70.325089 183.925369,70.326553 178.146774,70.840965 
	C176.603531,70.978348 175.283386,73.621597 173.860809,75.114403 
	C175.414719,76.478081 176.775742,78.541283 178.569290,79.035805 
	C181.045624,79.718590 183.848129,79.218445 187.487534,79.224930 
z"/>
<path fill="#99D9E9" opacity="1.000000" stroke="none" 
	d="
M200.468658,257.000000 
	C200.944321,256.517883 201.838058,255.827011 202.840363,255.584259 
	C227.018539,249.728470 244.035263,224.527679 238.901917,199.173996 
	C236.144318,185.554306 233.499863,171.867294 229.726944,158.515106 
	C227.638641,151.124664 223.768951,144.108063 219.894653,137.388596 
	C216.095581,130.799622 211.272888,124.800835 206.522629,118.003868 
	C209.331497,113.321014 210.154419,107.911469 206.322113,102.442917 
	C205.904922,101.847557 206.415314,100.270874 206.930283,99.409264 
	C209.561096,95.007698 209.126953,90.714218 207.226196,86.160728 
	C206.606934,84.677208 207.210114,82.680450 207.265656,80.918800 
	C207.385696,77.110886 208.188065,73.156349 207.402527,69.546608 
	C206.870636,67.102478 206.133423,65.469589 207.442154,62.848976 
	C211.778885,54.165112 205.647537,44.495441 195.830154,44.064419 
	C192.681702,43.926186 189.522095,44.042767 185.376053,44.042767 
	C186.747818,40.344891 187.734848,37.110233 189.128204,34.061253 
	C191.268188,29.378387 193.739304,24.848087 195.971451,20.205702 
	C197.690384,16.630705 197.647324,13.037036 194.963272,9.966161 
	C192.439468,7.078639 189.119232,6.352966 185.432724,7.487734 
	C184.957077,7.634145 184.463486,7.755037 184.022247,7.975753 
	C171.761551,14.108645 161.216202,11.589586 152.064484,1.337504 
	C186.963333,1.000000 221.926682,1.000000 256.939362,1.000000 
	C256.939362,86.333336 256.939362,171.666672 256.939362,257.000000 
	C238.231583,257.000000 219.584457,257.000000 200.468658,257.000000 
z"/>
<path fill="#CDCDCE" opacity="1.000000" stroke="none" 
	d="
M75.953178,62.120644 
	C74.717285,62.455036 72.986771,62.991760 71.253899,62.999458 
	C55.141525,63.071026 39.028744,63.051590 22.445736,63.023369 
	C23.383863,62.658287 24.791632,62.045242 26.200928,62.041706 
	C42.619637,62.000538 59.038578,62.051205 75.953178,62.120644 
z"/>
<path fill="#23B04C" opacity="1.000000" stroke="none" 
	d="
M229.877884,217.470520 
	C227.123840,227.430344 222.199142,235.403305 213.791672,240.980286 
	C207.792801,244.959518 201.339752,247.950836 194.063553,247.987259 
	C166.237839,248.126602 138.407959,248.301636 110.585678,247.964478 
	C90.767685,247.724304 72.924995,227.936646 74.894272,206.865250 
	C77.130524,182.937180 80.223518,158.798615 93.077644,137.633652 
	C97.886665,129.715363 104.282509,122.737633 110.163200,115.500366 
	C115.308281,109.168419 119.905289,102.635635 120.964996,94.274521 
	C121.450821,90.441368 122.224442,87.408943 126.538986,85.405014 
	C131.663330,83.024971 133.779907,77.794937 133.929276,72.122726 
	C134.069595,66.794212 134.022415,61.458309 133.948059,56.127186 
	C133.839340,48.330818 130.236786,43.397327 123.023048,40.465286 
	C121.531769,39.859150 119.729584,38.648811 119.199646,37.279903 
	C116.696739,30.814394 114.585999,24.197067 111.947327,16.502022 
	C115.694778,17.490667 119.146080,17.837173 122.047432,19.285427 
	C127.872681,22.193192 132.909317,21.073288 137.828354,17.507055 
	C139.175446,16.530422 140.500381,15.522789 141.824493,14.514956 
	C148.499252,9.434541 148.622574,9.448209 154.973602,14.919997 
	C156.786591,16.481983 158.455307,18.625864 160.576736,19.317949 
	C163.735565,20.348475 167.343185,21.055067 170.570343,20.588589 
	C175.995148,19.804447 181.271011,17.989752 188.025681,16.242224 
	C186.167923,20.338135 184.977173,22.839581 183.890335,25.385378 
	C181.621582,30.699615 179.528748,36.093567 177.093781,41.329262 
	C176.408768,42.802147 175.005173,44.276428 173.556503,45.002666 
	C165.714905,48.933754 163.615448,54.066235 166.053040,62.653332 
	C166.717697,64.994797 165.977158,67.719055 165.979370,70.267555 
	C165.987320,79.397873 165.477509,88.584892 166.394135,97.625710 
	C166.689713,100.541000 167.240768,102.835930 166.020248,105.694336 
	C162.200775,114.639435 168.644211,123.524933 179.100586,123.959923 
	C182.760208,124.112160 186.526611,124.518555 190.077942,123.881615 
	C198.185104,122.427582 202.230591,127.111237 206.517654,132.837753 
	C219.812500,150.596558 225.825287,170.931992 229.092087,192.451767 
	C230.339325,200.667862 232.118851,208.768585 229.877884,217.470520 
M166.744568,193.961761 
	C160.830719,190.111755 155.052856,186.028534 148.964005,182.478683 
	C143.117203,179.069946 141.435989,175.748123 143.806137,170.379074 
	C145.958588,165.503204 151.323410,163.470551 156.713699,166.037491 
	C160.040878,167.621933 162.788986,170.441559 166.136688,171.955719 
	C167.865158,172.737503 171.106323,172.694275 172.289246,171.573196 
	C174.070786,169.884781 174.120102,166.953186 171.468643,165.157150 
	C167.364426,162.376984 163.116974,159.799744 159.111282,156.887451 
	C157.765778,155.909225 156.242249,154.252304 156.077591,152.764206 
	C155.726044,149.587204 155.138138,147.018814 151.369354,147.089722 
	C147.842041,147.156082 146.907364,149.771515 147.167252,152.644684 
	C147.455734,155.833801 145.983765,157.203491 143.365326,158.693665 
	C137.686188,161.925690 134.350739,166.982071 134.066559,173.693649 
	C133.699249,182.368927 138.124878,187.752060 145.820602,191.159683 
	C150.158630,193.080566 154.590515,195.159515 158.282852,198.056091 
	C161.456909,200.546127 160.860077,205.531815 158.002487,208.887070 
	C154.723358,212.737259 148.860184,213.672638 144.422089,210.837677 
	C141.766342,209.141235 139.519577,206.677139 136.706482,205.401840 
	C134.998917,204.627747 132.561859,205.462860 130.452499,205.575043 
	C130.725800,207.901123 130.129898,211.225372 131.437332,212.363876 
	C135.177032,215.620377 139.770493,217.875290 143.852249,220.772034 
	C145.208115,221.734268 146.784378,223.367538 146.942108,224.835617 
	C147.288910,228.063599 147.963638,230.535141 151.765167,230.236145 
	C155.140701,229.970657 156.270477,227.524979 155.863266,224.571915 
	C155.415253,221.322906 157.085358,220.060883 159.618561,218.604050 
	C168.620895,213.426865 171.414215,204.040161 166.744568,193.961761 
z"/>
<path fill="#ECB48D" opacity="1.000000" stroke="none" 
	d="
M92.589447,121.736664 
	C81.416870,115.769318 69.619316,115.065620 57.558784,115.820312 
	C56.766468,115.869896 55.958401,115.667709 54.859764,115.550972 
	C54.859764,100.974182 54.859764,86.595589 54.859764,71.045280 
	C72.488625,74.920227 87.570610,68.219437 103.034286,59.330868 
	C103.034286,63.932224 102.666679,67.536858 103.137184,71.028557 
	C103.612099,74.552979 104.944504,77.958565 105.847534,81.430191 
	C106.214745,82.841881 107.142448,84.782799 106.564987,85.606277 
	C105.708443,86.827751 103.756416,87.898499 102.241852,87.938431 
	C93.926956,88.157600 85.603256,88.043007 76.917450,88.043007 
	C76.917450,91.000130 76.917450,93.722878 76.917450,96.555588 
	C88.213448,96.555588 99.413651,96.555588 111.588188,96.555588 
	C108.258949,107.153450 98.426773,112.849831 92.589447,121.736664 
z"/>
<path fill="#5B97A0" opacity="1.000000" stroke="none" 
	d="
M45.769005,74.316330 
	C45.784748,88.204887 45.784748,101.621773 45.784748,115.438980 
	C39.806271,115.438980 34.271606,115.438980 28.347305,115.438980 
	C28.347305,101.124535 28.347305,86.791451 28.347305,71.780037 
	C33.568230,71.780037 38.802784,71.714249 44.030682,71.870811 
	C44.624050,71.888580 45.179977,73.156456 45.769005,74.316330 
z"/>
<path fill="#F2BA91" opacity="1.000000" stroke="none" 
	d="
M111.969055,66.898621 
	C111.970467,62.604221 111.853195,58.787758 112.005196,54.982056 
	C112.172455,50.794540 114.709084,48.512135 118.718529,48.604698 
	C122.480560,48.691544 124.905472,50.970108 124.996933,54.917343 
	C125.131256,60.714710 125.127373,66.519150 125.011971,72.317184 
	C124.923508,76.761894 122.297531,79.391167 118.276596,79.148148 
	C114.107933,78.896210 112.052361,76.484818 111.976372,72.353012 
	C111.945900,70.696297 111.969879,69.038567 111.969055,66.898621 
z"/>
<path fill="#EFB88F" opacity="1.000000" stroke="none" 
	d="
M181.286926,88.033775 
	C186.072937,88.035812 190.393158,87.996178 194.712051,88.054260 
	C197.706299,88.094528 200.061737,89.210732 200.003052,92.623482 
	C199.944839,96.008736 197.630432,97.051544 194.590759,97.038208 
	C190.105042,97.018532 185.619141,97.021240 181.133392,97.039139 
	C177.731049,97.052719 173.898895,97.312325 173.932343,92.475922 
	C173.963028,88.037979 177.539139,88.012650 181.286926,88.033775 
z"/>
<path fill="#EBB58D" opacity="1.000000" stroke="none" 
	d="
M173.932129,56.185184 
	C174.377701,55.232876 174.737244,54.239296 175.131912,54.225140 
	C182.775299,53.951000 190.424377,53.682961 198.066635,53.796120 
	C198.741608,53.806110 200.133087,56.647251 199.837296,57.836582 
	C199.479660,59.274597 197.737823,61.345348 196.491104,61.420609 
	C190.203369,61.800159 183.858337,61.910446 177.590561,61.405670 
	C176.227676,61.295910 175.098999,58.278259 173.932129,56.185184 
z"/>
<path fill="#EBB48D" opacity="1.000000" stroke="none" 
	d="
M175.422348,113.681747 
	C172.835464,108.306755 174.027374,106.031250 179.215561,105.916649 
	C184.532196,105.799217 189.883224,105.580139 195.155930,106.076927 
	C196.886307,106.239952 198.418961,108.501854 200.042023,109.803955 
	C198.714478,111.417664 197.439148,114.364639 196.050522,114.419006 
	C189.303070,114.683228 182.525269,114.172615 175.422348,113.681747 
z"/>
<path fill="#F3BB92" opacity="1.000000" stroke="none" 
	d="
M186.999237,79.224937 
	C183.848129,79.218445 181.045624,79.718590 178.569290,79.035805 
	C176.775742,78.541283 175.414719,76.478081 173.860809,75.114403 
	C175.283386,73.621597 176.603531,70.978348 178.146774,70.840965 
	C183.925369,70.326553 189.803635,70.325089 195.583679,70.829132 
	C197.174637,70.967857 198.553970,73.533516 200.030411,74.985565 
	C198.512177,76.389694 197.200317,78.516220 195.425781,79.023178 
	C192.961609,79.727165 190.150253,79.215935 186.999237,79.224937 
z"/>
<path fill="#050605" opacity="1.000000" stroke="none" 
	d="
M166.911346,194.306976 
	C171.414215,204.040161 168.620895,213.426865 159.618561,218.604050 
	C157.085358,220.060883 155.415253,221.322906 155.863266,224.571915 
	C156.270477,227.524979 155.140701,229.970657 151.765167,230.236145 
	C147.963638,230.535141 147.288910,228.063599 146.942108,224.835617 
	C146.784378,223.367538 145.208115,221.734268 143.852249,220.772034 
	C139.770493,217.875290 135.177032,215.620377 131.437332,212.363876 
	C130.129898,211.225372 130.725800,207.901123 130.452515,205.575043 
	C132.561859,205.462860 134.998917,204.627747 136.706482,205.401840 
	C139.519577,206.677139 141.766342,209.141235 144.422089,210.837677 
	C148.860184,213.672638 154.723358,212.737259 158.002487,208.887070 
	C160.860077,205.531815 161.456909,200.546127 158.282852,198.056091 
	C154.590515,195.159515 150.158630,193.080566 145.820602,191.159683 
	C138.124878,187.752060 133.699249,182.368927 134.066559,173.693649 
	C134.350739,166.982071 137.686188,161.925690 143.365326,158.693665 
	C145.983765,157.203491 147.455734,155.833801 147.167252,152.644684 
	C146.907364,149.771515 147.842041,147.156082 151.369354,147.089722 
	C155.138138,147.018814 155.726044,149.587204 156.077591,152.764206 
	C156.242249,154.252304 157.765778,155.909225 159.111282,156.887451 
	C163.116974,159.799744 167.364426,162.376984 171.468643,165.157150 
	C174.120102,166.953186 174.070786,169.884781 172.289246,171.573196 
	C171.106323,172.694275 167.865158,172.737503 166.136688,171.955719 
	C162.788986,170.441559 160.040878,167.621933 156.713699,166.037491 
	C151.323410,163.470551 145.958588,165.503204 143.806137,170.379074 
	C141.435989,175.748123 143.117203,179.069946 148.964005,182.478683 
	C155.052856,186.028534 160.830719,190.111755 166.911346,194.306976 
z"/>
</svg>