<svg width="256" height="256" viewBox="0 0 256 256" fill="none" xmlns="http://www.w3.org/2000/svg">
<circle cx="128" cy="128" r="128" fill="black"/>
<path fill-rule="evenodd" clip-rule="evenodd" d="M119.315 9.49556C112.558 9.93056 103.777 11.3969 98.1135 13.0358C97.227 13.2921 95.609 13.7513 94.5179 14.056C89.2455 15.5279 82.1157 18.3347 76.1681 21.2792C69.706 24.4787 68.2857 25.2948 62.4478 29.167C58.9973 31.455 58.9298 31.504 56.1041 33.7293C55.0248 34.5788 53.63 35.6548 53.0045 36.119C47.4778 40.224 37.2391 51.1903 31.9052 58.7194C31.0188 59.9705 29.8285 61.646 29.26 62.4421C28.6909 63.2389 28.0443 64.2423 27.8224 64.6724C27.5999 65.1024 26.921 66.2231 26.3141 67.1627C25.7066 68.1022 25.21 68.9331 25.21 69.0094C25.21 69.0857 24.7897 69.8478 24.2758 70.7035C21.17 75.8777 15.6092 89.3852 14.3948 94.7083C14.1902 95.6037 13.6974 97.3636 13.2987 98.619C12.07 102.49 10.6988 110.372 10.3702 115.45C10.0379 120.585 10.0106 133.54 10.3194 139.527C10.6275 145.506 11.5282 150.998 13.1097 156.53C13.5188 157.963 14.0582 160.086 14.308 161.246C14.905 164.025 16.2025 167.698 16.8069 168.32C17.2768 168.804 17.6556 168.818 32.098 168.877C40.2433 168.91 47.0433 168.938 47.2088 168.939C48.2137 168.945 50.1107 171.593 49.8435 172.617L49.7015 173.161L35.0377 173.164C18.7535 173.168 19.0789 173.138 19.2054 174.665C19.3015 175.817 24.3651 185.953 25.1555 186.575C25.7556 187.047 26.2751 187.061 43.4092 187.061C63.0411 187.061 62.185 186.987 64.069 188.849C66.6355 191.386 67.38 191.281 46.9416 191.281C25.8913 191.281 26.8882 190.976 30.9096 196.186C31.1979 196.56 32.483 198.262 33.765 199.968C35.047 201.675 36.37 203.406 36.7047 203.816L37.3135 204.561L62.1962 204.686C90.3372 204.828 87.0875 204.586 91.4183 206.863C93.9216 208.179 94.0518 208.766 91.8901 208.992C91.0451 209.08 79.7271 209.153 66.739 209.153C40.7721 209.153 41.9884 209.08 42.9468 210.579C43.9901 212.211 52.7144 220.152 54.532 221.124L55.5865 221.688H128.118C197.452 221.688 200.686 221.668 201.466 221.242C201.915 220.996 202.872 220.27 203.592 219.628C204.313 218.986 205.49 217.968 206.206 217.366C208.196 215.695 213.668 210.249 213.668 209.94C213.668 209.21 212.235 209.163 188.022 209.097C162.311 209.026 162.859 209.047 162.838 208.116C162.836 208.023 164.251 207.241 165.983 206.378L169.131 204.809L193.941 204.68C207.587 204.609 218.772 204.525 218.797 204.493C218.822 204.462 219.887 203.124 221.164 201.52C222.441 199.916 223.849 198.025 224.294 197.319C224.738 196.613 225.263 195.902 225.458 195.739C226.713 194.697 227.713 191.738 226.914 191.432C226.698 191.348 218.712 191.281 209.168 191.281C188.893 191.281 189.863 191.414 192.114 188.949C193.915 186.976 192.945 187.064 212.862 187.062C232.928 187.061 231.017 187.273 232.051 184.934C232.314 184.338 232.963 183.085 233.493 182.149C235.985 177.747 237.378 173.946 236.667 173.486C236.497 173.375 229.73 173.229 221.63 173.161C208.504 173.05 206.876 172.994 206.653 172.641C206.282 172.052 206.599 171.163 207.595 169.998L208.484 168.959L223.592 168.888C241.068 168.806 239.23 169.142 240.278 165.838C240.625 164.746 241.094 163.294 241.321 162.611C241.547 161.929 241.875 160.756 242.05 160.005C242.224 159.254 242.611 157.858 242.908 156.902C243.688 154.394 244.585 150.071 244.891 147.346C245.036 146.049 245.323 144.038 245.529 142.878C245.956 140.469 246.07 117.291 245.669 114.333C245.549 113.445 245.266 111.323 245.042 109.616C244.12 102.627 241.056 91.2785 238.34 84.7943C237.625 83.0878 236.753 80.9656 236.403 80.0782C235.444 77.6512 231.114 69.2825 229.748 67.2148C229.087 66.2145 228.546 65.3327 228.546 65.2545C228.546 65.1043 226.36 61.8005 223.835 58.1368C222.999 56.9223 221.568 55.039 220.656 53.9518C219.745 52.8639 218.521 51.4007 217.937 50.6988C213.199 45.0109 204.424 36.8072 198.464 32.4956C193.07 28.5936 192.225 28.0239 190.235 26.9429C189.689 26.6463 188.629 25.9935 187.879 25.4915C187.129 24.9901 185.12 23.865 183.416 22.9919C181.711 22.1182 179.606 21.039 178.738 20.5922C177.871 20.1461 176.755 19.6478 176.259 19.4852C175.763 19.322 175.133 19.0489 174.861 18.8783C173.938 18.2999 168.684 16.3415 164.694 15.0892C148.403 9.97648 135.857 8.43007 119.315 9.49556ZM140.393 35.2645C142.029 35.4941 144.205 35.8516 145.228 36.0594C146.251 36.2673 148.121 36.6452 149.385 36.899C152.053 37.4346 153.216 38.0117 153.11 38.7464C153.041 39.2323 152.855 39.2466 146.22 39.2683C138.739 39.2931 134.514 39.7393 129.664 41.017C128.336 41.3664 126.692 41.7946 126.01 41.9677C125.328 42.1408 124.324 42.4753 123.779 42.7105C123.233 42.9463 122.229 43.3075 121.547 43.5129C118.256 44.5051 108.332 50.1565 104.648 53.137C93.2843 62.3298 85.8278 73.6108 81.5075 88.1453C80.3904 91.904 80.0178 93.935 79.2466 100.474C78.9466 103.018 79.0817 110.562 79.4748 113.216C79.5957 114.035 79.8319 115.822 79.9992 117.187C80.9961 125.322 87.9796 140.816 93.1541 146.371C93.3587 146.591 94.2136 147.654 95.0542 148.734C96.9642 151.187 103.402 157.216 106.246 159.214C113.654 164.421 117.616 166.603 123.741 168.854C133.704 172.515 147.76 173.563 157.751 171.391C162.774 170.299 170.162 168.009 172.65 166.771C175.236 165.486 179.155 163.346 179.82 162.856C180.229 162.555 181.137 162.019 181.837 161.664C182.537 161.309 184.355 159.981 185.878 158.712C187.4 157.444 189.115 156.015 189.688 155.537C191.328 154.171 195.039 150.337 196.802 148.188C197.686 147.111 198.48 146.173 198.568 146.105C199.271 145.552 203.439 138.575 204.995 135.346C208.865 127.314 210.508 121.717 211.563 112.97C211.96 109.683 212.374 108.529 213.108 108.671C214.923 109.021 214.235 129.701 212.14 137.789C211.857 138.881 211.427 140.613 211.185 141.637C210.942 142.661 210.446 144.28 210.082 145.236C209.718 146.192 209.169 147.867 208.862 148.959C208.183 151.374 203.871 160.305 201.944 163.288C201.175 164.479 200.379 165.776 200.175 166.168C199.185 168.085 192.358 176.645 190.243 178.622C189.732 179.099 188.74 180.065 188.038 180.767C185.764 183.045 180.537 187.392 178.877 188.388C178.387 188.682 177.274 189.445 176.404 190.084C173.434 192.264 168.657 194.913 165.066 196.372C164.179 196.732 162.84 197.341 162.09 197.725C158.715 199.452 147.791 202.499 141.437 203.486C134.422 204.576 119.946 204.159 114.25 202.703C113.15 202.422 111.382 202.027 110.32 201.826C106.598 201.119 100.381 199.18 97.2456 197.748C96.7001 197.499 95.5563 197.002 94.7045 196.643C91.9012 195.463 87.7558 193.289 85.219 191.669C81.9061 189.553 79.7085 188.073 78.5833 187.202C73.9481 183.614 68.8213 178.865 66.7365 176.227C66.2127 175.565 65.4421 174.687 65.0243 174.278C64.6064 173.868 63.8228 172.919 63.2841 172.168C62.7448 171.417 61.8316 170.268 61.2551 169.615C60.1957 168.415 59.1114 166.669 58.7915 165.649C58.6954 165.344 58.1028 164.31 57.4736 163.351C56.8449 162.393 55.6795 160.326 54.8841 158.759C54.0881 157.192 53.0113 155.239 52.4906 154.42C51.9698 153.601 51.3034 152.149 51.0096 151.193C50.7157 150.238 50.2148 148.785 49.8962 147.966C48.3488 143.989 46.7562 137.794 46.163 133.445C45.9485 131.875 45.6763 129.952 45.5573 129.172C44.1897 120.205 45.7674 103.047 48.7592 94.3465C49.3215 92.7107 50.1503 90.311 50.601 89.0141C52.7733 82.7589 58.807 72.227 63.7547 66.0537C65.9821 63.2749 73.9444 55.1438 75.3299 54.2329C75.824 53.9083 76.9641 53.0209 77.8642 52.2614C78.7643 51.5012 79.8114 50.7237 80.1902 50.5332C80.5696 50.3426 81.828 49.5099 82.9873 48.6833C86.5959 46.1093 87.7279 45.4974 96.9977 41.1126C97.816 40.7254 99.3112 40.1669 100.32 39.8715C101.328 39.5755 102.397 39.174 102.695 38.9791C104.376 37.8764 116.791 35.3359 122.663 34.8941C126.86 34.5776 137.011 34.7898 140.393 35.2645ZM62.9866 226.066L61.9562 226.3L62.6146 226.983C62.9773 227.36 63.7199 227.95 64.2655 228.295C64.811 228.641 65.8971 229.334 66.6795 229.836C67.4612 230.338 68.1611 230.748 68.2343 230.748C68.3074 230.748 68.7829 231.009 69.2919 231.329C70.3612 232 75.007 234.503 77.1054 235.537C79.5324 236.734 79.0526 236.724 129.234 236.65L176.844 236.581L181.697 234.066C189.907 229.813 194.692 226.632 193.65 226.122C193.038 225.823 64.3021 225.768 62.9866 226.066ZM94.95 241.442C95.8099 242.867 102.083 244.468 111.38 245.635C112.607 245.79 114.327 246.08 115.201 246.281C118.672 247.077 135.559 246.979 141.26 246.131C142.147 245.998 143.821 245.777 144.98 245.638C152.836 244.694 159.669 242.979 161.427 241.511L162.128 240.925H128.383H94.6376L94.95 241.442Z" fill="white"/>
</svg>
