<?xml version="1.0" standalone="no"?>
<!DOCTYPE svg PUBLIC "-//W3C//DTD SVG 1.0//EN" "http://www.w3.org/TR/2001/REC-SVG-20010904/DTD/svg10.dtd">
<svg xmlns="http://www.w3.org/2000/svg" xmlns:xlink="http://www.w3.org/1999/xlink" id="body_1" width="256" height="256">

<g transform="matrix(0.64 0 0 0.64 -0 7.184854)">
	<g>
        <path d="M164.188 73.103C 163.982 73.367 163.591 73.905 163.318 74.298C 163.045 74.691 162.75 74.968 162.663 74.914C 162.575 74.86 162.543 74.919 162.591 75.044C 162.667 75.24 161.776 76.61 160.67 78C 160.487 78.229 160.337 78.476 160.336 78.549C 160.334 78.621 160.197 78.827 160.03 79.006C 159.863 79.186 159.358 79.876 158.908 80.541C 157.685 82.35 156.887 83.329 156.742 83.199C 156.671 83.136 156.665 83.174 156.728 83.284C 156.842 83.482 156.391 84.179 154.373 86.917C 154.305 87.008 154.025 87.421 153.75 87.833C 153.475 88.246 153.079 88.771 152.87 89C 152.217 89.715 152.337 90.758 153.158 91.5C 153.291 91.621 153.627 92.169 153.949 92.792C 154.102 93.09 154.29 93.333 154.364 93.333C 154.439 93.333 154.5 93.404 154.5 93.49C 154.5 93.632 156.138 96.36 156.458 96.75C 156.533 96.842 157.26 98.042 158.074 99.417C 158.888 100.792 159.972 102.589 160.485 103.411C 160.997 104.233 161.509 105.095 161.622 105.328C 161.735 105.56 161.903 105.862 161.996 106C 162.088 106.138 162.566 106.962 163.058 107.833C 163.55 108.704 164.164 109.792 164.423 110.25C 164.682 110.708 165.265 111.758 165.72 112.583C 166.174 113.408 166.754 114.458 167.008 114.917C 167.623 116.025 169.401 119.422 170.235 121.083C 170.603 121.817 170.963 122.442 171.035 122.472C 171.108 122.503 171.167 122.594 171.167 122.675C 171.167 122.806 172.662 125.914 173.127 126.75C 173.229 126.933 173.534 127.571 173.805 128.167C 174.076 128.762 174.632 129.962 175.041 130.833C 176.099 133.088 176.479 133.935 176.826 134.814C 176.993 135.239 177.284 135.886 177.472 136.251C 177.778 136.848 178.564 138.741 180.275 143C 180.588 143.779 181.032 144.979 181.262 145.667C 181.493 146.354 181.782 147.142 181.906 147.417C 182.03 147.692 182.186 148.179 182.252 148.5C 182.318 148.821 182.427 149.158 182.494 149.25C 182.605 149.403 183.496 152.185 183.747 153.167C 183.806 153.396 183.92 153.733 184 153.917C 184.371 154.766 186.063 162.228 186.267 163.917C 186.493 165.782 186.735 165.694 186.907 163.685C 186.966 162.987 187.12 161.629 187.249 160.667C 188.464 151.623 188.471 133.2 187.264 125.333C 187.13 124.462 186.974 123.225 186.918 122.583C 186.861 121.942 186.626 120.367 186.396 119.083C 186.166 117.8 185.83 115.925 185.649 114.917C 185.468 113.908 185.216 112.746 185.09 112.333C 184.964 111.921 184.811 111.283 184.749 110.917C 184.559 109.787 183.224 105.037 182.43 102.667C 181.337 99.401 181.109 98.783 180.25 96.75C 179.825 95.742 179.354 94.617 179.205 94.25C 178.37 92.199 175.711 87.194 174.226 84.878C 173.918 84.398 173.667 83.935 173.667 83.85C 173.667 83.764 173.609 83.669 173.538 83.639C 173.468 83.608 173.116 83.133 172.758 82.583C 172.399 82.033 172.061 81.546 172.006 81.5C 171.952 81.454 171.617 81.004 171.263 80.5C 169.835 78.467 167.863 76.089 165.892 74.02L165.892 74.02L164.561 72.623L164.188 73.103zM223.75 183.846C 216.649 184.699 213.555 187.689 201.674 205.17C 194.627 215.539 190.678 221.024 186.7 225.969C 179.728 234.635 173.476 240.381 167.083 243.995C 166.075 244.566 164.875 245.348 164.417 245.735C 163.958 246.121 163.396 246.57 163.167 246.733L163.167 246.733L162.75 247.028L163.468 246.914C 163.863 246.852 164.876 246.616 165.718 246.391C 166.561 246.166 167.512 245.918 167.833 245.84C 169.011 245.554 170.933 244.987 171.5 244.758C 171.955 244.574 173.446 244.173 174 244.085C 174.046 244.077 174.233 243.99 174.417 243.891C 174.6 243.792 175.313 243.546 176 243.344C 176.688 243.143 177.512 242.879 177.833 242.759C 178.154 242.638 179.654 242.147 181.167 241.669C 182.679 241.19 184.629 240.572 185.5 240.296C 188.569 239.322 193.765 237.536 195 237.03C 195.688 236.748 197 236.221 197.917 235.859C 198.833 235.496 199.969 235.004 200.441 234.766C 200.913 234.528 201.347 234.333 201.406 234.333C 201.545 234.333 205.16 232.526 206.56 231.757C 207.15 231.432 207.758 231.167 207.91 231.167C 208.062 231.167 208.143 231.097 208.091 231.012C 208.038 230.927 208.146 230.809 208.331 230.751C 208.516 230.692 208.667 230.574 208.667 230.489C 208.667 230.403 208.765 230.333 208.884 230.333C 209.073 230.333 211.755 228.713 212.24 228.306C 212.337 228.224 213.017 227.719 213.75 227.184C 214.483 226.649 215.341 225.976 215.655 225.689C 215.969 225.402 216.275 225.167 216.333 225.167C 216.848 225.167 222.345 219.127 223.286 217.528C 224.243 215.9 225.389 213.903 226.076 212.667C 227.569 209.977 228.338 208.654 228.833 207.917C 228.971 207.712 229.304 207.179 229.573 206.731C 229.842 206.283 230.255 205.679 230.49 205.389C 230.724 205.098 231.178 204.506 231.496 204.073C 233.987 200.688 235.897 199.851 241.333 199.763C 245.116 199.702 249.743 198.506 254.75 196.294C 258.461 194.654 263.833 191.339 263.833 190.688C 263.833 190.487 263.813 190.481 261.333 189.99C 259.781 189.682 255.041 188.583 249.083 187.149C 237.384 184.334 228.896 183.227 223.75 183.846M160.577 247.422C 159.07 248.312 157.978 248.431 153 248.25C 135.701 247.621 113.96 267.161 103.605 292.644C 103.067 293.968 103.231 293.934 104.327 292.493C 105.086 291.495 105.709 290.839 107.487 289.164C 107.634 289.026 108.016 288.733 108.336 288.514C 108.655 288.294 108.992 288.031 109.083 287.928C 109.731 287.202 114.607 284.643 116.75 283.904C 117.483 283.652 118.158 283.392 118.25 283.327C 118.573 283.099 122.611 282.013 124.743 281.581C 125.932 281.34 126.951 281.114 127.008 281.078C 127.101 281.021 129.234 280.748 134.25 280.153C 139.28 279.557 149.844 279.654 156.417 280.356C 157.425 280.464 158.662 280.559 159.167 280.568L159.167 280.568L160.083 280.583L160.2 278.583C 160.264 277.483 160.396 275.533 160.492 274.25C 160.589 272.967 160.707 271.279 160.755 270.5C 160.802 269.721 160.914 268.408 161.003 267.583C 161.092 266.758 161.239 264.921 161.331 263.5C 161.767 256.711 162.01 253.277 162.161 251.75C 162.252 250.833 162.347 249.408 162.372 248.583L162.372 248.583L162.417 247.083L161.833 247.054C 161.474 247.036 160.991 247.178 160.577 247.422" stroke="none" fill="#E4D34C" fill-rule="evenodd" />
        <path d="M106.739 50.917C 106.605 51.237 106.417 51.5 106.321 51.5C 106.225 51.5 106.192 51.573 106.247 51.662C 106.302 51.751 106.157 52.227 105.924 52.72C 105.691 53.212 105.5 53.669 105.5 53.735C 105.5 53.8 105.319 54.243 105.098 54.719C 103.344 58.498 100.237 67.934 98.586 74.5C 97.929 77.112 97.923 77.139 97.663 78.5C 97.566 79.004 97.367 79.933 97.22 80.564C 96.974 81.623 96.974 81.722 97.227 81.864C 97.377 81.948 97.5 82.083 97.5 82.165C 97.5 82.246 97.969 82.925 98.542 83.673C 99.115 84.42 99.733 85.243 99.917 85.501C 100.1 85.759 100.706 86.558 101.263 87.276C 102.168 88.444 105.091 92.29 106.05 93.574C 106.252 93.844 106.606 94.294 106.838 94.574C 107.07 94.854 107.933 95.983 108.754 97.083C 109.576 98.183 110.308 99.158 110.38 99.25C 110.452 99.342 111.82 101.142 113.42 103.25C 115.019 105.358 116.539 107.346 116.797 107.667C 117.055 107.987 117.525 108.623 117.842 109.079C 118.158 109.536 118.553 110.061 118.72 110.246C 118.887 110.432 120.01 111.896 121.214 113.5C 122.419 115.104 123.445 116.454 123.494 116.5C 123.595 116.594 126.9 120.949 127.417 121.668C 127.854 122.277 129.915 124.983 130.29 125.441C 130.452 125.637 130.83 126.125 131.132 126.524C 132.762 128.678 135.045 131.636 135.359 132C 135.843 132.561 138.892 136.519 139.081 136.833C 139.164 136.971 138.993 136.845 138.699 136.554C 138.406 136.264 138.167 135.945 138.167 135.846C 138.167 135.747 138.101 135.685 138.021 135.708C 137.941 135.731 137.547 135.412 137.146 135C 136.745 134.587 135.554 133.428 134.5 132.423C 133.446 131.419 129.883 127.963 126.583 124.743C 123.283 121.524 119.742 118.078 118.714 117.087C 117.683 116.093 116.891 115.202 116.949 115.101C 117.006 114.999 116.992 114.972 116.917 115.04C 116.765 115.178 113.728 112.328 113.797 112.113C 113.822 112.037 113.777 112.015 113.697 112.065C 113.618 112.114 112.378 110.965 110.943 109.511C 109.508 108.057 108.052 106.624 107.709 106.325C 106.423 105.209 100.75 99.586 100.742 99.422C 100.738 99.327 100.656 99.265 100.561 99.283C 100.465 99.301 99.343 98.263 98.068 96.976C 95.07 93.951 95.26 94.029 95.025 95.715C 94.497 99.507 94.476 112.341 94.994 115.083C 95.081 115.542 95.194 116.404 95.246 117C 95.537 120.362 95.789 122.254 96.166 123.917C 96.25 124.283 96.474 125.384 96.665 126.362C 97.247 129.347 98.528 134.046 99.633 137.25C 100.147 138.742 99.956 138.528 105.357 143.667C 106.851 145.087 108.378 146.55 108.752 146.917C 111.404 149.52 117.102 154.963 117.394 155.173C 117.59 155.314 119.068 156.739 120.68 158.339C 123.532 161.173 124.6 162.169 125.652 162.976C 125.934 163.192 126.116 163.448 126.056 163.544C 125.997 163.64 126.022 163.672 126.113 163.617C 126.203 163.561 126.646 163.903 127.097 164.377C 127.548 164.852 127.767 165.124 127.583 164.983C 127.4 164.842 126.706 164.41 126.042 164.023C 125.377 163.635 124.833 163.247 124.833 163.159C 124.833 163.072 124.777 163.018 124.708 163.039C 124.64 163.061 124.144 162.817 123.607 162.497C 123.07 162.178 122.395 161.777 122.107 161.606C 121.819 161.435 121.546 161.248 121.5 161.19C 121.454 161.131 121.154 160.941 120.833 160.766C 119.673 160.136 115.082 157.263 115.028 157.133C 114.997 157.06 114.884 157 114.776 157C 114.667 157 114.189 156.738 113.713 156.417C 113.236 156.096 112.802 155.833 112.748 155.833C 112.694 155.833 111.659 155.175 110.45 154.369C 109.24 153.564 107.631 152.541 106.875 152.096C 106.119 151.65 105.5 151.206 105.5 151.11C 105.5 150.986 105.448 150.986 105.324 151.109C 105.2 151.233 105.318 151.652 105.721 152.518C 106.036 153.196 106.572 154.35 106.911 155.083C 107.932 157.292 109.052 159.568 109.248 159.833C 109.35 159.971 109.616 160.496 109.84 161C 110.063 161.504 110.287 161.954 110.338 162C 110.388 162.046 110.754 162.721 111.151 163.5C 112.059 165.28 112.71 166.46 113.526 167.809C 113.878 168.391 114.167 168.908 114.167 168.957C 114.167 169.007 114.467 169.522 114.833 170.103C 115.2 170.683 115.5 171.196 115.5 171.243C 115.5 171.32 116.12 172.336 117.079 173.833C 118.56 176.145 118.833 176.603 118.833 176.776C 118.833 176.884 118.9 176.997 118.982 177.028C 119.163 177.096 121.667 180.797 121.667 180.996C 121.667 181.075 121.723 181.164 121.792 181.194C 121.986 181.281 122.833 182.458 122.833 182.642C 122.833 182.732 122.89 182.831 122.96 182.861C 123.134 182.938 124.167 184.27 124.167 184.419C 124.167 184.485 124.373 184.781 124.625 185.077C 124.877 185.372 125.383 186.045 125.75 186.571C 126.117 187.097 126.604 187.739 126.833 187.997C 127.063 188.256 127.55 188.858 127.917 189.337C 131.358 193.831 139.338 202.652 140.214 202.931C 140.529 203.032 139.976 203.701 136.888 206.959C 136.17 207.716 135.606 208.335 135.633 208.334C 135.68 208.333 133.956 210.371 133.308 211.083C 133.141 211.267 132.374 212.218 131.603 213.198C 130.832 214.178 130.15 214.928 130.087 214.865C 130.024 214.802 129.996 214.825 130.024 214.917C 130.053 215.008 129.372 216.021 128.511 217.167C 125.911 220.627 123.122 224.676 120.849 228.292C 120.546 228.773 120.227 229.167 120.139 229.167C 120.052 229.167 120.023 229.235 120.075 229.319C 120.126 229.403 119.998 229.684 119.789 229.944C 119.58 230.204 119.28 230.679 119.122 231C 118.965 231.321 118.762 231.696 118.672 231.833C 118.581 231.971 118.119 232.758 117.644 233.583C 117.168 234.408 116.698 235.138 116.598 235.206C 116.498 235.273 116.48 235.329 116.558 235.331C 116.722 235.334 115.865 236.858 115.598 237.039C 115.498 237.106 115.474 237.163 115.545 237.164C 115.709 237.167 115.017 238.543 114.769 238.706C 114.663 238.776 114.655 238.83 114.75 238.833C 114.861 238.837 114.861 238.879 114.75 238.961C 114.658 239.028 114.35 239.571 114.064 240.167C 112.753 242.903 112.443 243.592 112.47 243.708C 112.487 243.777 112.425 243.833 112.333 243.833C 112.242 243.833 112.167 243.92 112.167 244.025C 112.167 244.131 111.971 244.637 111.733 245.15C 111.196 246.304 111.194 246.307 110.195 248.75C 109.218 251.14 109.128 251.367 109.076 251.583C 109.054 251.675 108.889 252.125 108.711 252.583C 108.31 253.613 108.214 253.882 108.191 254.043C 108.181 254.113 108.063 254.384 107.927 254.646C 107.792 254.908 107.642 255.337 107.595 255.6C 107.515 256.039 107.352 256.536 107 257.417C 106.926 257.6 106.697 258.387 106.49 259.167C 106.283 259.946 106.071 260.658 106.019 260.75C 105.968 260.842 105.919 260.992 105.912 261.083C 105.904 261.175 105.851 261.362 105.793 261.5C 105.736 261.637 105.532 262.425 105.341 263.25C 105.151 264.075 104.944 264.938 104.883 265.167C 104.754 265.651 104.7 265.914 104.602 266.532C 104.563 266.779 104.491 267.046 104.442 267.125C 104.393 267.204 104.312 267.602 104.261 268.01C 104.134 269.02 104.015 269.658 103.842 270.25C 103.762 270.525 103.693 270.862 103.689 271C 103.685 271.137 103.642 271.512 103.593 271.833C 103.486 272.531 103.388 273.291 103.261 274.417C 103.209 274.875 103.131 275.475 103.088 275.75C 102.656 278.507 102.5 284.547 102.759 288.532C 103.095 293.72 103.104 293.748 103.827 291.968C 114.137 266.568 136.388 247.079 153.794 248.204C 157.401 248.437 158.625 248.292 160.417 247.419C 161.237 247.019 161.719 246.878 162.041 246.945C 162.562 247.052 162.894 246.869 164.5 245.59C 165.096 245.116 166.296 244.328 167.167 243.84C 176.889 238.391 185.328 229.037 200.083 207.355C 214.319 186.438 216.586 184.302 225.223 183.669C 230.688 183.268 237.928 184.376 251.917 187.753C 257.039 188.989 260.632 189.801 262.25 190.087C 263.167 190.25 263.971 190.465 264.037 190.566C 264.111 190.679 264.809 190.091 265.85 189.039L265.85 189.039L267.543 187.327L268.98 187.426C 269.77 187.48 270.604 187.557 270.833 187.597C 271.063 187.637 271.85 187.707 272.583 187.752C 273.317 187.796 274.367 187.868 274.917 187.911C 275.467 187.953 276.592 188.03 277.417 188.081C 278.242 188.132 279.292 188.213 279.75 188.26C 280.57 188.344 281.188 188.391 284 188.58C 284.779 188.633 285.942 188.742 286.583 188.822C 287.225 188.903 287.9 188.969 288.083 188.969C 288.474 188.968 290.359 189.107 291.667 189.233C 292.171 189.281 293.071 189.359 293.667 189.407C 297.11 189.679 298.368 189.794 298.5 189.848C 298.546 189.867 298.921 189.901 299.333 189.924C 299.746 189.947 300.496 190.007 301 190.056C 301.504 190.105 302.479 190.19 303.167 190.243C 303.854 190.297 304.717 190.375 305.083 190.416C 305.45 190.457 306.275 190.535 306.917 190.589C 307.558 190.643 308.721 190.765 309.5 190.861C 310.279 190.957 311.254 191.059 311.667 191.088C 312.491 191.144 313.981 191.282 315.208 191.414C 315.644 191.462 316.356 191.535 316.792 191.578C 318.696 191.766 319.443 191.851 319.833 191.926C 320.063 191.969 320.606 192.042 321.042 192.087C 321.477 192.133 322.189 192.215 322.625 192.27C 323.06 192.325 323.642 192.389 323.917 192.412C 324.42 192.454 326.058 192.646 326.833 192.754C 327.063 192.786 327.662 192.858 328.167 192.915C 328.671 192.972 329.308 193.082 329.583 193.161C 329.858 193.239 330.196 193.305 330.333 193.307C 330.854 193.314 333.016 193.679 334.397 193.993C 334.845 194.095 335.238 194.151 335.271 194.118C 335.325 194.064 333.15 193.179 331.417 192.55C 331.05 192.417 330.525 192.209 330.25 192.088C 329.975 191.967 329.15 191.658 328.417 191.401C 327.683 191.145 327.046 190.887 327 190.828C 326.954 190.769 326.548 190.629 326.097 190.518C 325.646 190.406 325.009 190.195 324.68 190.049C 324.352 189.904 323.974 189.762 323.84 189.735C 323.707 189.708 323.444 189.61 323.257 189.517C 323.07 189.424 322.542 189.238 322.083 189.103C 321.625 188.969 320.387 188.549 319.333 188.17C 318.279 187.792 317.304 187.454 317.167 187.42C 317.029 187.386 316.898 187.344 316.875 187.325C 316.852 187.307 316.777 187.279 316.708 187.264C 316.528 187.224 314.795 186.658 314.5 186.543C 314.362 186.489 314.212 186.433 314.167 186.417C 314.121 186.401 313.958 186.332 313.805 186.264C 313.651 186.197 313.426 186.122 313.305 186.099C 312.548 185.954 310.959 185.463 310.25 185.155C 309.948 185.024 307.342 184.258 306.618 184.087C 306.453 184.048 306.078 183.938 305.784 183.842C 305.1 183.619 302.993 182.993 302.667 182.915C 302.279 182.823 299.281 182.013 299 181.925C 298.515 181.773 295.411 180.98 295 180.903C 294.771 180.86 294.396 180.756 294.167 180.673C 293.795 180.538 290.804 179.837 290.167 179.736C 290.029 179.714 289.748 179.652 289.542 179.598C 288.877 179.424 288.429 179.329 287.833 179.237C 287.512 179.187 286.987 179.07 286.667 178.976C 286.346 178.883 285.858 178.773 285.583 178.733C 284.957 178.64 284.417 178.533 284.417 178.502C 284.417 178.488 284.154 178.444 283.833 178.404C 283.512 178.364 282.425 178.171 281.417 177.976C 280.408 177.781 279.358 177.609 279.083 177.593C 278.808 177.577 278.471 177.518 278.333 177.463C 278.196 177.407 277.971 177.365 277.833 177.37C 277.696 177.374 277.321 177.336 277 177.284C 276.679 177.231 275.892 177.138 275.25 177.075C 274.608 177.013 273.954 176.937 273.795 176.908C 273.637 176.878 272.812 176.805 271.962 176.746L271.962 176.746L270.417 176.638L268.956 175.153C 268.152 174.335 267.451 173.667 267.397 173.667C 267.344 173.667 266.764 173.196 266.108 172.622C 265.453 172.047 264.429 171.206 263.833 170.753C 263.237 170.3 262.712 169.885 262.667 169.831C 262.621 169.777 262.3 169.56 261.954 169.35C 261.608 169.139 261.233 168.877 261.121 168.766C 261.008 168.655 260.673 168.421 260.375 168.246C 260.077 168.071 259.833 167.869 259.833 167.797C 259.833 167.725 259.756 167.667 259.661 167.667C 259.437 167.667 255.767 165.479 255.694 165.302C 255.664 165.227 255.528 165.167 255.393 165.167C 255.258 165.167 254.42 164.797 253.532 164.346C 252.644 163.894 251.242 163.249 250.417 162.911C 249.592 162.573 248.823 162.221 248.708 162.128C 248.594 162.035 248.5 162.002 248.5 162.054C 248.5 162.105 248.157 161.996 247.738 161.811C 247.318 161.625 246.777 161.437 246.534 161.394C 246.292 161.35 246.016 161.252 245.922 161.178C 245.827 161.103 245.525 160.999 245.25 160.946C 244.681 160.837 242.045 160.162 241.667 160.028C 241.529 159.98 241.304 159.918 241.167 159.891C 241.029 159.863 240.392 159.733 239.75 159.601C 239.108 159.469 238.171 159.313 237.667 159.253C 237.162 159.194 236.487 159.083 236.167 159.006C 235.28 158.795 234.296 158.758 229.583 158.754C 224.43 158.749 222.418 158.888 217.25 159.605C 216.883 159.656 216.358 159.727 216.083 159.764C 215.068 159.9 212.16 160.424 211.101 160.662C 210.653 160.763 210.053 160.881 209.768 160.924C 209.003 161.04 208.751 161.096 206.833 161.584C 205.871 161.828 204.971 162.054 204.833 162.085C 204.696 162.116 204.583 162.153 204.583 162.168C 204.583 162.182 204.433 162.221 204.25 162.254C 204.067 162.287 203.279 162.512 202.5 162.754C 201.721 162.996 201.008 163.209 200.917 163.227C 200.825 163.245 200.675 163.305 200.583 163.362C 200.366 163.495 197.936 164.216 197.852 164.172C 197.816 164.153 197.741 164.201 197.685 164.277C 197.529 164.491 195.984 165.01 195.815 164.906C 195.734 164.855 195.667 164.893 195.667 164.99C 195.667 165.087 195.584 165.167 195.484 165.167C 195.383 165.167 195.064 165.274 194.775 165.406C 193.46 166.005 191.981 166.652 191.871 166.676C 191.804 166.69 191.469 166.846 191.125 167.021C 190.781 167.197 190.5 167.289 190.5 167.228C 190.5 167.166 190.357 167.245 190.181 167.403C 190.006 167.562 189.762 167.71 189.64 167.731C 189.517 167.753 189.154 167.934 188.833 168.134C 188.512 168.335 188.197 168.499 188.132 168.499C 188.068 168.5 187.64 168.721 187.182 168.991C 186.343 169.486 185.858 169.301 186.265 168.642C 186.333 168.533 186.313 168.493 186.219 168.551C 186.128 168.607 185.882 168.263 185.673 167.785C 185.464 167.307 185.115 166.528 184.897 166.052C 184.678 165.576 184.5 165.138 184.5 165.077C 184.5 165.016 184.191 164.318 183.814 163.525C 183.436 162.732 183.112 162.008 183.092 161.917C 183.073 161.825 182.849 161.3 182.595 160.75C 182.34 160.2 182.068 159.6 181.99 159.417C 181.911 159.233 181.498 158.333 181.072 157.417C 180.646 156.5 180.282 155.655 180.264 155.54C 180.245 155.424 180.141 155.241 180.032 155.132C 179.923 155.023 179.832 154.855 179.83 154.758C 179.829 154.662 179.566 154.068 179.247 153.438C 178.928 152.808 178.667 152.19 178.667 152.063C 178.667 151.937 178.597 151.833 178.511 151.833C 178.426 151.833 178.303 151.665 178.238 151.458C 178.12 151.081 176.16 146.933 175.404 145.459C 175.18 145.024 174.995 144.632 174.991 144.587C 174.976 144.407 174.293 142.958 173.788 142.039C 173.492 141.499 173.234 140.977 173.214 140.879C 173.194 140.781 172.95 140.315 172.672 139.843C 172.394 139.371 172.167 138.881 172.167 138.753C 172.167 138.624 172.094 138.475 172.005 138.42C 171.839 138.317 171.154 136.929 171.071 136.527C 171.046 136.404 170.922 136.179 170.796 136.027C 170.67 135.875 170.083 134.775 169.492 133.583C 168.9 132.392 168.379 131.379 168.333 131.333C 168.091 131.091 167.69 130.199 167.782 130.107C 167.841 130.048 167.813 130 167.72 130C 167.627 130 167.41 129.681 167.238 129.292C 167.066 128.902 166.849 128.528 166.755 128.461C 166.66 128.394 166.637 128.337 166.703 128.336C 166.769 128.334 166.639 128.062 166.414 127.73C 166.189 127.399 166.042 127.067 166.087 126.994C 166.132 126.922 166.108 126.837 166.034 126.806C 165.832 126.722 163.833 123.063 163.833 122.777C 163.833 122.64 163.771 122.503 163.695 122.472C 163.516 122.4 162.311 120.333 162.448 120.333C 162.505 120.333 162.437 120.202 162.297 120.042C 162.157 119.881 161.64 119 161.146 118.084C 160.653 117.167 160.175 116.29 160.083 116.133C 158.912 114.136 158.167 112.819 158.167 112.744C 158.167 112.694 158.089 112.562 157.994 112.451C 157.699 112.107 155.833 108.858 155.833 108.689C 155.833 108.6 155.774 108.503 155.702 108.472C 155.507 108.39 154.482 106.667 154.627 106.664C 154.694 106.663 154.667 106.606 154.566 106.539C 154.311 106.37 150.907 100.794 150.958 100.631C 150.981 100.559 150.925 100.5 150.833 100.5C 150.742 100.5 150.667 100.394 150.667 100.264C 150.667 100.134 150.604 100.003 150.528 99.972C 150.364 99.906 147.417 95.31 147.417 95.119C 147.417 95.047 147.335 94.934 147.234 94.869C 146.978 94.701 143.658 89.668 143.8 89.661C 143.864 89.658 143.785 89.556 143.625 89.435C 143.293 89.182 142.5 88.059 142.5 87.84C 142.5 87.76 142.441 87.669 142.37 87.639C 142.199 87.566 139.729 84.105 139.416 83.499C 139.283 83.241 139.116 83.005 139.044 82.973C 138.973 82.942 138.016 81.717 136.916 80.25C 135.816 78.783 134.748 77.397 134.542 77.168C 134.335 76.94 134.167 76.7 134.167 76.634C 134.167 76.569 133.998 76.339 133.792 76.124C 133.366 75.679 133.166 75.438 131.688 73.583C 130.514 72.11 125.992 66.838 125.331 66.172C 125.1 65.94 123.621 64.429 122.043 62.815C 120.466 61.201 119.148 59.908 119.114 59.941C 119.081 59.974 118.597 59.533 118.04 58.959C 117.482 58.386 116.693 57.654 116.286 57.333C 115.878 57.012 115.585 56.675 115.633 56.583C 115.681 56.492 115.662 56.469 115.59 56.534C 115.519 56.598 114.851 56.142 114.105 55.52C 112.428 54.122 110.486 52.662 108.792 51.524C 108.081 51.047 107.5 50.584 107.5 50.495C 107.5 50.092 106.959 50.392 106.739 50.917M248.824 171.144C 248.875 171.223 249.153 171.408 249.442 171.556C 251.2 172.456 251.352 175.53 249.71 176.958C 249.367 177.256 249.049 177.506 249.002 177.513C 248.955 177.52 248.767 177.568 248.583 177.621C 246.858 178.115 244.847 177.291 244.22 175.833C 243.797 174.85 244.016 172.5 244.53 172.5C 244.616 172.5 244.644 172.432 244.592 172.348C 244.479 172.164 245.741 171.13 245.893 171.282C 245.952 171.341 246 171.307 246 171.206C 246 170.843 248.591 170.786 248.824 171.144" stroke="none" fill="#252625" fill-rule="evenodd" />
        <path d="M118.167 59.052C 118.167 59.081 118.41 59.325 118.708 59.594L118.708 59.594L119.25 60.083L118.76 59.542C 118.304 59.037 118.167 58.923 118.167 59.052M120.493 61.208C 120.902 61.644 121.258 62 121.285 62C 121.41 62 121.278 61.85 120.542 61.16L120.542 61.16L119.75 60.417L120.493 61.208zM122 62.75C 122.311 63.071 122.603 63.333 122.649 63.333C 122.695 63.333 122.478 63.071 122.167 62.75C 121.856 62.429 121.564 62.167 121.518 62.167C 121.472 62.167 121.689 62.429 122 62.75M131.24 73.055C 131.496 73.391 131.74 73.667 131.781 73.667C 131.897 73.667 131.175 72.692 130.962 72.56C 130.858 72.496 130.983 72.718 131.24 73.055M100.326 99.208C 100.735 99.644 101.091 100 101.118 100C 101.243 100 101.111 99.85 100.375 99.16L100.375 99.16L99.583 98.417L100.326 99.208zM106.286 104.999C 106.855 105.587 107.345 106.034 107.374 105.992C 107.403 105.951 106.937 105.47 106.338 104.923L106.338 104.923L105.25 103.929L106.286 104.999zM112.535 111.08C 113.425 111.99 114.176 112.701 114.203 112.659C 114.23 112.617 113.501 111.873 112.584 111.004L112.584 111.004L110.917 109.425L112.535 111.08zM118.826 117.208C 119.517 117.944 119.667 118.077 119.667 117.951C 119.667 117.925 119.31 117.568 118.875 117.16L118.875 117.16L118.083 116.417L118.826 117.208zM125.326 123.542C 125.735 123.977 126.091 124.333 126.118 124.333C 126.243 124.333 126.111 124.184 125.375 123.493L125.375 123.493L124.583 122.75L125.326 123.542zM131.993 130.042C 132.684 130.778 132.833 130.91 132.833 130.785C 132.833 130.758 132.477 130.402 132.042 129.993L132.042 129.993L131.25 129.25L131.993 130.042zM135.5 133.385C 135.5 133.414 135.744 133.658 136.042 133.927L136.042 133.927L136.583 134.417L136.094 133.875C 135.638 133.37 135.5 133.257 135.5 133.385M137.614 135.102C 137.696 135.317 137.665 135.354 137.487 135.249C 137.356 135.172 137.393 135.272 137.567 135.471C 137.742 135.67 137.926 135.833 137.976 135.833C 138.026 135.833 137.983 135.749 137.88 135.646C 137.777 135.544 137.729 135.364 137.774 135.247C 137.819 135.129 137.777 134.985 137.68 134.925C 137.569 134.856 137.545 134.922 137.614 135.102M138.388 136.227C 138.556 136.363 138.804 136.61 138.939 136.778C 139.168 137.062 139.172 137.057 139.005 136.712C 138.907 136.508 138.659 136.26 138.455 136.161C 138.109 135.994 138.105 135.999 138.388 136.227M113.833 156.508C 114.411 156.901 114.741 157.015 114.333 156.682C 114.104 156.494 113.842 156.34 113.75 156.34C 113.658 156.339 113.696 156.415 113.833 156.508M126.167 163.567C 126.601 164.051 126.665 164.187 126.417 164.099C 126.149 164.004 126.125 164.022 126.292 164.19C 126.431 164.33 126.555 164.345 126.667 164.233C 126.779 164.121 126.626 163.875 126.209 163.491L126.209 163.491L125.583 162.917L126.167 163.567zM226.877 183.62C 227.131 183.658 227.506 183.657 227.711 183.617C 227.916 183.578 227.708 183.546 227.25 183.548C 226.792 183.549 226.624 183.581 226.877 183.62M230.375 183.782C 230.535 183.823 230.798 183.823 230.958 183.782C 231.119 183.74 230.987 183.705 230.667 183.705C 230.346 183.705 230.215 183.74 230.375 183.782M214.077 188.542L213.25 189.417L214.125 188.59C 214.606 188.135 215 187.741 215 187.715C 215 187.59 214.846 187.729 214.077 188.542M138.74 204.875L138.25 205.417L138.792 204.927C 139.09 204.658 139.333 204.414 139.333 204.385C 139.333 204.257 139.196 204.37 138.74 204.875M125.439 221.208L125.139 221.75L125.482 221.333C 125.787 220.964 125.922 220.667 125.786 220.667C 125.76 220.667 125.604 220.91 125.439 221.208M121.064 227.708C 120.49 228.682 120.452 228.765 120.745 228.417C 121.083 228.013 121.375 227.5 121.266 227.5C 121.222 227.5 121.131 227.594 121.064 227.708M124.24 261.708L123.75 262.25L124.292 261.76C 124.59 261.491 124.833 261.248 124.833 261.219C 124.833 261.09 124.696 261.203 124.24 261.708M121.073 264.875L120.583 265.417L121.125 264.927C 121.423 264.658 121.667 264.414 121.667 264.385C 121.667 264.257 121.529 264.37 121.073 264.875" stroke="none" fill="#6C6E52" fill-rule="evenodd" />
        <path d="M133.5 131.417C 133.811 131.737 134.103 132 134.149 132C 134.195 132 133.978 131.737 133.667 131.417C 133.356 131.096 133.064 130.833 133.018 130.833C 132.972 130.833 133.189 131.096 133.5 131.417" stroke="none" fill="#858887" fill-rule="evenodd" />
        <path d="M229.46 158.618C 229.668 158.658 229.968 158.656 230.127 158.615C 230.286 158.573 230.117 158.54 229.75 158.542C 229.383 158.544 229.253 158.578 229.46 158.618M122.828 263.125L121.917 264.083L122.875 263.172C 123.402 262.671 123.833 262.24 123.833 262.214C 123.833 262.09 123.674 262.235 122.828 263.125" stroke="none" fill="#8A9674" fill-rule="evenodd" />
	</g>
</g>
</svg>