<svg id="svg" version="1.1" xmlns="http://www.w3.org/2000/svg" xmlns:xlink="http://www.w3.org/1999/xlink" width="400" height="377.5473399458972" viewBox="0, 0, 400,377.5473399458972"><g id="svgg"><path id="path0" d="M164.188 73.103 C 163.982 73.367,163.591 73.905,163.318 74.298 C 163.045 74.691,162.750 74.968,162.663 74.914 C 162.575 74.860,162.543 74.919,162.591 75.044 C 162.667 75.240,161.776 76.610,160.670 78.000 C 160.487 78.229,160.337 78.476,160.336 78.549 C 160.334 78.621,160.197 78.827,160.030 79.006 C 159.863 79.186,159.358 79.876,158.908 80.541 C 157.685 82.350,156.887 83.329,156.742 83.199 C 156.671 83.136,156.665 83.174,156.728 83.284 C 156.842 83.482,156.391 84.179,154.373 86.917 C 154.305 87.008,154.025 87.421,153.750 87.833 C 153.475 88.246,153.079 88.771,152.870 89.000 C 152.217 89.715,152.337 90.758,153.158 91.500 C 153.291 91.621,153.627 92.169,153.949 92.792 C 154.102 93.090,154.290 93.333,154.364 93.333 C 154.439 93.333,154.500 93.404,154.500 93.490 C 154.500 93.632,156.138 96.360,156.458 96.750 C 156.533 96.842,157.260 98.042,158.074 99.417 C 158.888 100.792,159.972 102.589,160.485 103.411 C 160.997 104.233,161.509 105.095,161.622 105.328 C 161.735 105.560,161.903 105.862,161.996 106.000 C 162.088 106.138,162.566 106.962,163.058 107.833 C 163.550 108.704,164.164 109.792,164.423 110.250 C 164.682 110.708,165.265 111.758,165.720 112.583 C 166.174 113.408,166.754 114.458,167.008 114.917 C 167.623 116.025,169.401 119.422,170.235 121.083 C 170.603 121.817,170.963 122.442,171.035 122.472 C 171.108 122.503,171.167 122.594,171.167 122.675 C 171.167 122.806,172.662 125.914,173.127 126.750 C 173.229 126.933,173.534 127.571,173.805 128.167 C 174.076 128.762,174.632 129.962,175.041 130.833 C 176.099 133.088,176.479 133.935,176.826 134.814 C 176.993 135.239,177.284 135.886,177.472 136.251 C 177.778 136.848,178.564 138.741,180.275 143.000 C 180.588 143.779,181.032 144.979,181.262 145.667 C 181.493 146.354,181.782 147.142,181.906 147.417 C 182.030 147.692,182.186 148.179,182.252 148.500 C 182.318 148.821,182.427 149.158,182.494 149.250 C 182.605 149.403,183.496 152.185,183.747 153.167 C 183.806 153.396,183.920 153.733,184.000 153.917 C 184.371 154.766,186.063 162.228,186.267 163.917 C 186.493 165.782,186.735 165.694,186.907 163.685 C 186.966 162.987,187.120 161.629,187.249 160.667 C 188.464 151.623,188.471 133.200,187.264 125.333 C 187.130 124.462,186.974 123.225,186.918 122.583 C 186.861 121.942,186.626 120.367,186.396 119.083 C 186.166 117.800,185.830 115.925,185.649 114.917 C 185.468 113.908,185.216 112.746,185.090 112.333 C 184.964 111.921,184.811 111.283,184.749 110.917 C 184.559 109.787,183.224 105.037,182.430 102.667 C 181.337 99.401,181.109 98.783,180.250 96.750 C 179.825 95.742,179.354 94.617,179.205 94.250 C 178.370 92.199,175.711 87.194,174.226 84.878 C 173.918 84.398,173.667 83.935,173.667 83.850 C 173.667 83.764,173.609 83.669,173.538 83.639 C 173.468 83.608,173.116 83.133,172.758 82.583 C 172.399 82.033,172.061 81.546,172.006 81.500 C 171.952 81.454,171.617 81.004,171.263 80.500 C 169.835 78.467,167.863 76.089,165.892 74.020 L 164.561 72.623 164.188 73.103 M223.750 183.846 C 216.649 184.699,213.555 187.689,201.674 205.170 C 194.627 215.539,190.678 221.024,186.700 225.969 C 179.728 234.635,173.476 240.381,167.083 243.995 C 166.075 244.566,164.875 245.348,164.417 245.735 C 163.958 246.121,163.396 246.570,163.167 246.733 L 162.750 247.028 163.468 246.914 C 163.863 246.852,164.876 246.616,165.718 246.391 C 166.561 246.166,167.512 245.918,167.833 245.840 C 169.011 245.554,170.933 244.987,171.500 244.758 C 171.955 244.574,173.446 244.173,174.000 244.085 C 174.046 244.077,174.233 243.990,174.417 243.891 C 174.600 243.792,175.313 243.546,176.000 243.344 C 176.688 243.143,177.512 242.879,177.833 242.759 C 178.154 242.638,179.654 242.147,181.167 241.669 C 182.679 241.190,184.629 240.572,185.500 240.296 C 188.569 239.322,193.765 237.536,195.000 237.030 C 195.688 236.748,197.000 236.221,197.917 235.859 C 198.833 235.496,199.969 235.004,200.441 234.766 C 200.913 234.528,201.347 234.333,201.406 234.333 C 201.545 234.333,205.160 232.526,206.560 231.757 C 207.150 231.432,207.758 231.167,207.910 231.167 C 208.062 231.167,208.143 231.097,208.091 231.012 C 208.038 230.927,208.146 230.809,208.331 230.751 C 208.516 230.692,208.667 230.574,208.667 230.489 C 208.667 230.403,208.765 230.333,208.884 230.333 C 209.073 230.333,211.755 228.713,212.240 228.306 C 212.337 228.224,213.017 227.719,213.750 227.184 C 214.483 226.649,215.341 225.976,215.655 225.689 C 215.969 225.402,216.275 225.167,216.333 225.167 C 216.848 225.167,222.345 219.127,223.286 217.528 C 224.243 215.900,225.389 213.903,226.076 212.667 C 227.569 209.977,228.338 208.654,228.833 207.917 C 228.971 207.712,229.304 207.179,229.573 206.731 C 229.842 206.283,230.255 205.679,230.490 205.389 C 230.724 205.098,231.178 204.506,231.496 204.073 C 233.987 200.688,235.897 199.851,241.333 199.763 C 245.116 199.702,249.743 198.506,254.750 196.294 C 258.461 194.654,263.833 191.339,263.833 190.688 C 263.833 190.487,263.813 190.481,261.333 189.990 C 259.781 189.682,255.041 188.583,249.083 187.149 C 237.384 184.334,228.896 183.227,223.750 183.846 M160.577 247.422 C 159.070 248.312,157.978 248.431,153.000 248.250 C 135.701 247.621,113.960 267.161,103.605 292.644 C 103.067 293.968,103.231 293.934,104.327 292.493 C 105.086 291.495,105.709 290.839,107.487 289.164 C 107.634 289.026,108.016 288.733,108.336 288.514 C 108.655 288.294,108.992 288.031,109.083 287.928 C 109.731 287.202,114.607 284.643,116.750 283.904 C 117.483 283.652,118.158 283.392,118.250 283.327 C 118.573 283.099,122.611 282.013,124.743 281.581 C 125.932 281.340,126.951 281.114,127.008 281.078 C 127.101 281.021,129.234 280.748,134.250 280.153 C 139.280 279.557,149.844 279.654,156.417 280.356 C 157.425 280.464,158.662 280.559,159.167 280.568 L 160.083 280.583 160.200 278.583 C 160.264 277.483,160.396 275.533,160.492 274.250 C 160.589 272.967,160.707 271.279,160.755 270.500 C 160.802 269.721,160.914 268.408,161.003 267.583 C 161.092 266.758,161.239 264.921,161.331 263.500 C 161.767 256.711,162.010 253.277,162.161 251.750 C 162.252 250.833,162.347 249.408,162.372 248.583 L 162.417 247.083 161.833 247.054 C 161.474 247.036,160.991 247.178,160.577 247.422 " stroke="none" fill="#e4d34c" fill-rule="evenodd"></path><path id="path1" d="M106.739 50.917 C 106.605 51.237,106.417 51.500,106.321 51.500 C 106.225 51.500,106.192 51.573,106.247 51.662 C 106.302 51.751,106.157 52.227,105.924 52.720 C 105.691 53.212,105.500 53.669,105.500 53.735 C 105.500 53.800,105.319 54.243,105.098 54.719 C 103.344 58.498,100.237 67.934,98.586 74.500 C 97.929 77.112,97.923 77.139,97.663 78.500 C 97.566 79.004,97.367 79.933,97.220 80.564 C 96.974 81.623,96.974 81.722,97.227 81.864 C 97.377 81.948,97.500 82.083,97.500 82.165 C 97.500 82.246,97.969 82.925,98.542 83.673 C 99.115 84.420,99.733 85.243,99.917 85.501 C 100.100 85.759,100.706 86.558,101.263 87.276 C 102.168 88.444,105.091 92.290,106.050 93.574 C 106.252 93.844,106.606 94.294,106.838 94.574 C 107.070 94.854,107.933 95.983,108.754 97.083 C 109.576 98.183,110.308 99.158,110.380 99.250 C 110.452 99.342,111.820 101.142,113.420 103.250 C 115.019 105.358,116.539 107.346,116.797 107.667 C 117.055 107.987,117.525 108.623,117.842 109.079 C 118.158 109.536,118.553 110.061,118.720 110.246 C 118.887 110.432,120.010 111.896,121.214 113.500 C 122.419 115.104,123.445 116.454,123.494 116.500 C 123.595 116.594,126.900 120.949,127.417 121.668 C 127.854 122.277,129.915 124.983,130.290 125.441 C 130.452 125.637,130.830 126.125,131.132 126.524 C 132.762 128.678,135.045 131.636,135.359 132.000 C 135.843 132.561,138.892 136.519,139.081 136.833 C 139.164 136.971,138.993 136.845,138.699 136.554 C 138.406 136.264,138.167 135.945,138.167 135.846 C 138.167 135.747,138.101 135.685,138.021 135.708 C 137.941 135.731,137.547 135.412,137.146 135.000 C 136.745 134.587,135.554 133.428,134.500 132.423 C 133.446 131.419,129.883 127.963,126.583 124.743 C 123.283 121.524,119.742 118.078,118.714 117.087 C 117.683 116.093,116.891 115.202,116.949 115.101 C 117.006 114.999,116.992 114.972,116.917 115.040 C 116.765 115.178,113.728 112.328,113.797 112.113 C 113.822 112.037,113.777 112.015,113.697 112.065 C 113.618 112.114,112.378 110.965,110.943 109.511 C 109.508 108.057,108.052 106.624,107.709 106.325 C 106.423 105.209,100.750 99.586,100.742 99.422 C 100.738 99.327,100.656 99.265,100.561 99.283 C 100.465 99.301,99.343 98.263,98.068 96.976 C 95.070 93.951,95.260 94.029,95.025 95.715 C 94.497 99.507,94.476 112.341,94.994 115.083 C 95.081 115.542,95.194 116.404,95.246 117.000 C 95.537 120.362,95.789 122.254,96.166 123.917 C 96.250 124.283,96.474 125.384,96.665 126.362 C 97.247 129.347,98.528 134.046,99.633 137.250 C 100.147 138.742,99.956 138.528,105.357 143.667 C 106.851 145.087,108.378 146.550,108.752 146.917 C 111.404 149.520,117.102 154.963,117.394 155.173 C 117.590 155.314,119.068 156.739,120.680 158.339 C 123.532 161.173,124.600 162.169,125.652 162.976 C 125.934 163.192,126.116 163.448,126.056 163.544 C 125.997 163.640,126.022 163.672,126.113 163.617 C 126.203 163.561,126.646 163.903,127.097 164.377 C 127.548 164.852,127.767 165.124,127.583 164.983 C 127.400 164.842,126.706 164.410,126.042 164.023 C 125.377 163.635,124.833 163.247,124.833 163.159 C 124.833 163.072,124.777 163.018,124.708 163.039 C 124.640 163.061,124.144 162.817,123.607 162.497 C 123.070 162.178,122.395 161.777,122.107 161.606 C 121.819 161.435,121.546 161.248,121.500 161.190 C 121.454 161.131,121.154 160.941,120.833 160.766 C 119.673 160.136,115.082 157.263,115.028 157.133 C 114.997 157.060,114.884 157.000,114.776 157.000 C 114.667 157.000,114.189 156.738,113.713 156.417 C 113.236 156.096,112.802 155.833,112.748 155.833 C 112.694 155.833,111.659 155.175,110.450 154.369 C 109.240 153.564,107.631 152.541,106.875 152.096 C 106.119 151.650,105.500 151.206,105.500 151.110 C 105.500 150.986,105.448 150.986,105.324 151.109 C 105.200 151.233,105.318 151.652,105.721 152.518 C 106.036 153.196,106.572 154.350,106.911 155.083 C 107.932 157.292,109.052 159.568,109.248 159.833 C 109.350 159.971,109.616 160.496,109.840 161.000 C 110.063 161.504,110.287 161.954,110.338 162.000 C 110.388 162.046,110.754 162.721,111.151 163.500 C 112.059 165.280,112.710 166.460,113.526 167.809 C 113.878 168.391,114.167 168.908,114.167 168.957 C 114.167 169.007,114.467 169.522,114.833 170.103 C 115.200 170.683,115.500 171.196,115.500 171.243 C 115.500 171.320,116.120 172.336,117.079 173.833 C 118.560 176.145,118.833 176.603,118.833 176.776 C 118.833 176.884,118.900 176.997,118.982 177.028 C 119.163 177.096,121.667 180.797,121.667 180.996 C 121.667 181.075,121.723 181.164,121.792 181.194 C 121.986 181.281,122.833 182.458,122.833 182.642 C 122.833 182.732,122.890 182.831,122.960 182.861 C 123.134 182.938,124.167 184.270,124.167 184.419 C 124.167 184.485,124.373 184.781,124.625 185.077 C 124.877 185.372,125.383 186.045,125.750 186.571 C 126.117 187.097,126.604 187.739,126.833 187.997 C 127.063 188.256,127.550 188.858,127.917 189.337 C 131.358 193.831,139.338 202.652,140.214 202.931 C 140.529 203.032,139.976 203.701,136.888 206.959 C 136.170 207.716,135.606 208.335,135.633 208.334 C 135.680 208.333,133.956 210.371,133.308 211.083 C 133.141 211.267,132.374 212.218,131.603 213.198 C 130.832 214.178,130.150 214.928,130.087 214.865 C 130.024 214.802,129.996 214.825,130.024 214.917 C 130.053 215.008,129.372 216.021,128.511 217.167 C 125.911 220.627,123.122 224.676,120.849 228.292 C 120.546 228.773,120.227 229.167,120.139 229.167 C 120.052 229.167,120.023 229.235,120.075 229.319 C 120.126 229.403,119.998 229.684,119.789 229.944 C 119.580 230.204,119.280 230.679,119.122 231.000 C 118.965 231.321,118.762 231.696,118.672 231.833 C 118.581 231.971,118.119 232.758,117.644 233.583 C 117.168 234.408,116.698 235.138,116.598 235.206 C 116.498 235.273,116.480 235.329,116.558 235.331 C 116.722 235.334,115.865 236.858,115.598 237.039 C 115.498 237.106,115.474 237.163,115.545 237.164 C 115.709 237.167,115.017 238.543,114.769 238.706 C 114.663 238.776,114.655 238.830,114.750 238.833 C 114.861 238.837,114.861 238.879,114.750 238.961 C 114.658 239.028,114.350 239.571,114.064 240.167 C 112.753 242.903,112.443 243.592,112.470 243.708 C 112.487 243.777,112.425 243.833,112.333 243.833 C 112.242 243.833,112.167 243.920,112.167 244.025 C 112.167 244.131,111.971 244.637,111.733 245.150 C 111.196 246.304,111.194 246.307,110.195 248.750 C 109.218 251.140,109.128 251.367,109.076 251.583 C 109.054 251.675,108.889 252.125,108.711 252.583 C 108.310 253.613,108.214 253.882,108.191 254.043 C 108.181 254.113,108.063 254.384,107.927 254.646 C 107.792 254.908,107.642 255.337,107.595 255.600 C 107.515 256.039,107.352 256.536,107.000 257.417 C 106.926 257.600,106.697 258.387,106.490 259.167 C 106.283 259.946,106.071 260.658,106.019 260.750 C 105.968 260.842,105.919 260.992,105.912 261.083 C 105.904 261.175,105.851 261.362,105.793 261.500 C 105.736 261.637,105.532 262.425,105.341 263.250 C 105.151 264.075,104.944 264.938,104.883 265.167 C 104.754 265.651,104.700 265.914,104.602 266.532 C 104.563 266.779,104.491 267.046,104.442 267.125 C 104.393 267.204,104.312 267.602,104.261 268.010 C 104.134 269.020,104.015 269.658,103.842 270.250 C 103.762 270.525,103.693 270.862,103.689 271.000 C 103.685 271.137,103.642 271.512,103.593 271.833 C 103.486 272.531,103.388 273.291,103.261 274.417 C 103.209 274.875,103.131 275.475,103.088 275.750 C 102.656 278.507,102.500 284.547,102.759 288.532 C 103.095 293.720,103.104 293.748,103.827 291.968 C 114.137 266.568,136.388 247.079,153.794 248.204 C 157.401 248.437,158.625 248.292,160.417 247.419 C 161.237 247.019,161.719 246.878,162.041 246.945 C 162.562 247.052,162.894 246.869,164.500 245.590 C 165.096 245.116,166.296 244.328,167.167 243.840 C 176.889 238.391,185.328 229.037,200.083 207.355 C 214.319 186.438,216.586 184.302,225.223 183.669 C 230.688 183.268,237.928 184.376,251.917 187.753 C 257.039 188.989,260.632 189.801,262.250 190.087 C 263.167 190.250,263.971 190.465,264.037 190.566 C 264.111 190.679,264.809 190.091,265.850 189.039 L 267.543 187.327 268.980 187.426 C 269.770 187.480,270.604 187.557,270.833 187.597 C 271.063 187.637,271.850 187.707,272.583 187.752 C 273.317 187.796,274.367 187.868,274.917 187.911 C 275.467 187.953,276.592 188.030,277.417 188.081 C 278.242 188.132,279.292 188.213,279.750 188.260 C 280.570 188.344,281.188 188.391,284.000 188.580 C 284.779 188.633,285.942 188.742,286.583 188.822 C 287.225 188.903,287.900 188.969,288.083 188.969 C 288.474 188.968,290.359 189.107,291.667 189.233 C 292.171 189.281,293.071 189.359,293.667 189.407 C 297.110 189.679,298.368 189.794,298.500 189.848 C 298.546 189.867,298.921 189.901,299.333 189.924 C 299.746 189.947,300.496 190.007,301.000 190.056 C 301.504 190.105,302.479 190.190,303.167 190.243 C 303.854 190.297,304.717 190.375,305.083 190.416 C 305.450 190.457,306.275 190.535,306.917 190.589 C 307.558 190.643,308.721 190.765,309.500 190.861 C 310.279 190.957,311.254 191.059,311.667 191.088 C 312.491 191.144,313.981 191.282,315.208 191.414 C 315.644 191.462,316.356 191.535,316.792 191.578 C 318.696 191.766,319.443 191.851,319.833 191.926 C 320.063 191.969,320.606 192.042,321.042 192.087 C 321.477 192.133,322.189 192.215,322.625 192.270 C 323.060 192.325,323.642 192.389,323.917 192.412 C 324.420 192.454,326.058 192.646,326.833 192.754 C 327.063 192.786,327.662 192.858,328.167 192.915 C 328.671 192.972,329.308 193.082,329.583 193.161 C 329.858 193.239,330.196 193.305,330.333 193.307 C 330.854 193.314,333.016 193.679,334.397 193.993 C 334.845 194.095,335.238 194.151,335.271 194.118 C 335.325 194.064,333.150 193.179,331.417 192.550 C 331.050 192.417,330.525 192.209,330.250 192.088 C 329.975 191.967,329.150 191.658,328.417 191.401 C 327.683 191.145,327.046 190.887,327.000 190.828 C 326.954 190.769,326.548 190.629,326.097 190.518 C 325.646 190.406,325.009 190.195,324.680 190.049 C 324.352 189.904,323.974 189.762,323.840 189.735 C 323.707 189.708,323.444 189.610,323.257 189.517 C 323.070 189.424,322.542 189.238,322.083 189.103 C 321.625 188.969,320.387 188.549,319.333 188.170 C 318.279 187.792,317.304 187.454,317.167 187.420 C 317.029 187.386,316.898 187.344,316.875 187.325 C 316.852 187.307,316.777 187.279,316.708 187.264 C 316.528 187.224,314.795 186.658,314.500 186.543 C 314.362 186.489,314.212 186.433,314.167 186.417 C 314.121 186.401,313.958 186.332,313.805 186.264 C 313.651 186.197,313.426 186.122,313.305 186.099 C 312.548 185.954,310.959 185.463,310.250 185.155 C 309.948 185.024,307.342 184.258,306.618 184.087 C 306.453 184.048,306.078 183.938,305.784 183.842 C 305.100 183.619,302.993 182.993,302.667 182.915 C 302.279 182.823,299.281 182.013,299.000 181.925 C 298.515 181.773,295.411 180.980,295.000 180.903 C 294.771 180.860,294.396 180.756,294.167 180.673 C 293.795 180.538,290.804 179.837,290.167 179.736 C 290.029 179.714,289.748 179.652,289.542 179.598 C 288.877 179.424,288.429 179.329,287.833 179.237 C 287.512 179.187,286.987 179.070,286.667 178.976 C 286.346 178.883,285.858 178.773,285.583 178.733 C 284.957 178.640,284.417 178.533,284.417 178.502 C 284.417 178.488,284.154 178.444,283.833 178.404 C 283.512 178.364,282.425 178.171,281.417 177.976 C 280.408 177.781,279.358 177.609,279.083 177.593 C 278.808 177.577,278.471 177.518,278.333 177.463 C 278.196 177.407,277.971 177.365,277.833 177.370 C 277.696 177.374,277.321 177.336,277.000 177.284 C 276.679 177.231,275.892 177.138,275.250 177.075 C 274.608 177.013,273.954 176.937,273.795 176.908 C 273.637 176.878,272.812 176.805,271.962 176.746 L 270.417 176.638 268.956 175.153 C 268.152 174.335,267.451 173.667,267.397 173.667 C 267.344 173.667,266.764 173.196,266.108 172.622 C 265.453 172.047,264.429 171.206,263.833 170.753 C 263.237 170.300,262.712 169.885,262.667 169.831 C 262.621 169.777,262.300 169.560,261.954 169.350 C 261.608 169.139,261.233 168.877,261.121 168.766 C 261.008 168.655,260.673 168.421,260.375 168.246 C 260.077 168.071,259.833 167.869,259.833 167.797 C 259.833 167.725,259.756 167.667,259.661 167.667 C 259.437 167.667,255.767 165.479,255.694 165.302 C 255.664 165.227,255.528 165.167,255.393 165.167 C 255.258 165.167,254.420 164.797,253.532 164.346 C 252.644 163.894,251.242 163.249,250.417 162.911 C 249.592 162.573,248.823 162.221,248.708 162.128 C 248.594 162.035,248.500 162.002,248.500 162.054 C 248.500 162.105,248.157 161.996,247.738 161.811 C 247.318 161.625,246.777 161.437,246.534 161.394 C 246.292 161.350,246.016 161.252,245.922 161.178 C 245.827 161.103,245.525 160.999,245.250 160.946 C 244.681 160.837,242.045 160.162,241.667 160.028 C 241.529 159.980,241.304 159.918,241.167 159.891 C 241.029 159.863,240.392 159.733,239.750 159.601 C 239.108 159.469,238.171 159.313,237.667 159.253 C 237.162 159.194,236.487 159.083,236.167 159.006 C 235.280 158.795,234.296 158.758,229.583 158.754 C 224.430 158.749,222.418 158.888,217.250 159.605 C 216.883 159.656,216.358 159.727,216.083 159.764 C 215.068 159.900,212.160 160.424,211.101 160.662 C 210.653 160.763,210.053 160.881,209.768 160.924 C 209.003 161.040,208.751 161.096,206.833 161.584 C 205.871 161.828,204.971 162.054,204.833 162.085 C 204.696 162.116,204.583 162.153,204.583 162.168 C 204.583 162.182,204.433 162.221,204.250 162.254 C 204.067 162.287,203.279 162.512,202.500 162.754 C 201.721 162.996,201.008 163.209,200.917 163.227 C 200.825 163.245,200.675 163.305,200.583 163.362 C 200.366 163.495,197.936 164.216,197.852 164.172 C 197.816 164.153,197.741 164.201,197.685 164.277 C 197.529 164.491,195.984 165.010,195.815 164.906 C 195.734 164.855,195.667 164.893,195.667 164.990 C 195.667 165.087,195.584 165.167,195.484 165.167 C 195.383 165.167,195.064 165.274,194.775 165.406 C 193.460 166.005,191.981 166.652,191.871 166.676 C 191.804 166.690,191.469 166.846,191.125 167.021 C 190.781 167.197,190.500 167.289,190.500 167.228 C 190.500 167.166,190.357 167.245,190.181 167.403 C 190.006 167.562,189.762 167.710,189.640 167.731 C 189.517 167.753,189.154 167.934,188.833 168.134 C 188.512 168.335,188.197 168.499,188.132 168.499 C 188.068 168.500,187.640 168.721,187.182 168.991 C 186.343 169.486,185.858 169.301,186.265 168.642 C 186.333 168.533,186.313 168.493,186.219 168.551 C 186.128 168.607,185.882 168.263,185.673 167.785 C 185.464 167.307,185.115 166.528,184.897 166.052 C 184.678 165.576,184.500 165.138,184.500 165.077 C 184.500 165.016,184.191 164.318,183.814 163.525 C 183.436 162.732,183.112 162.008,183.092 161.917 C 183.073 161.825,182.849 161.300,182.595 160.750 C 182.340 160.200,182.068 159.600,181.990 159.417 C 181.911 159.233,181.498 158.333,181.072 157.417 C 180.646 156.500,180.282 155.655,180.264 155.540 C 180.245 155.424,180.141 155.241,180.032 155.132 C 179.923 155.023,179.832 154.855,179.830 154.758 C 179.829 154.662,179.566 154.068,179.247 153.438 C 178.928 152.808,178.667 152.190,178.667 152.063 C 178.667 151.937,178.597 151.833,178.511 151.833 C 178.426 151.833,178.303 151.665,178.238 151.458 C 178.120 151.081,176.160 146.933,175.404 145.459 C 175.180 145.024,174.995 144.632,174.991 144.587 C 174.976 144.407,174.293 142.958,173.788 142.039 C 173.492 141.499,173.234 140.977,173.214 140.879 C 173.194 140.781,172.950 140.315,172.672 139.843 C 172.394 139.371,172.167 138.881,172.167 138.753 C 172.167 138.624,172.094 138.475,172.005 138.420 C 171.839 138.317,171.154 136.929,171.071 136.527 C 171.046 136.404,170.922 136.179,170.796 136.027 C 170.670 135.875,170.083 134.775,169.492 133.583 C 168.900 132.392,168.379 131.379,168.333 131.333 C 168.091 131.091,167.690 130.199,167.782 130.107 C 167.841 130.048,167.813 130.000,167.720 130.000 C 167.627 130.000,167.410 129.681,167.238 129.292 C 167.066 128.902,166.849 128.528,166.755 128.461 C 166.660 128.394,166.637 128.337,166.703 128.336 C 166.769 128.334,166.639 128.062,166.414 127.730 C 166.189 127.399,166.042 127.067,166.087 126.994 C 166.132 126.922,166.108 126.837,166.034 126.806 C 165.832 126.722,163.833 123.063,163.833 122.777 C 163.833 122.640,163.771 122.503,163.695 122.472 C 163.516 122.400,162.311 120.333,162.448 120.333 C 162.505 120.333,162.437 120.202,162.297 120.042 C 162.157 119.881,161.640 119.000,161.146 118.084 C 160.653 117.167,160.175 116.290,160.083 116.133 C 158.912 114.136,158.167 112.819,158.167 112.744 C 158.167 112.694,158.089 112.562,157.994 112.451 C 157.699 112.107,155.833 108.858,155.833 108.689 C 155.833 108.600,155.774 108.503,155.702 108.472 C 155.507 108.390,154.482 106.667,154.627 106.664 C 154.694 106.663,154.667 106.606,154.566 106.539 C 154.311 106.370,150.907 100.794,150.958 100.631 C 150.981 100.559,150.925 100.500,150.833 100.500 C 150.742 100.500,150.667 100.394,150.667 100.264 C 150.667 100.134,150.604 100.003,150.528 99.972 C 150.364 99.906,147.417 95.310,147.417 95.119 C 147.417 95.047,147.335 94.934,147.234 94.869 C 146.978 94.701,143.658 89.668,143.800 89.661 C 143.864 89.658,143.785 89.556,143.625 89.435 C 143.293 89.182,142.500 88.059,142.500 87.840 C 142.500 87.760,142.441 87.669,142.370 87.639 C 142.199 87.566,139.729 84.105,139.416 83.499 C 139.283 83.241,139.116 83.005,139.044 82.973 C 138.973 82.942,138.016 81.717,136.916 80.250 C 135.816 78.783,134.748 77.397,134.542 77.168 C 134.335 76.940,134.167 76.700,134.167 76.634 C 134.167 76.569,133.998 76.339,133.792 76.124 C 133.366 75.679,133.166 75.438,131.688 73.583 C 130.514 72.110,125.992 66.838,125.331 66.172 C 125.100 65.940,123.621 64.429,122.043 62.815 C 120.466 61.201,119.148 59.908,119.114 59.941 C 119.081 59.974,118.597 59.533,118.040 58.959 C 117.482 58.386,116.693 57.654,116.286 57.333 C 115.878 57.012,115.585 56.675,115.633 56.583 C 115.681 56.492,115.662 56.469,115.590 56.534 C 115.519 56.598,114.851 56.142,114.105 55.520 C 112.428 54.122,110.486 52.662,108.792 51.524 C 108.081 51.047,107.500 50.584,107.500 50.495 C 107.500 50.092,106.959 50.392,106.739 50.917 M248.824 171.144 C 248.875 171.223,249.153 171.408,249.442 171.556 C 251.200 172.456,251.352 175.530,249.710 176.958 C 249.367 177.256,249.049 177.506,249.002 177.513 C 248.955 177.520,248.767 177.568,248.583 177.621 C 246.858 178.115,244.847 177.291,244.220 175.833 C 243.797 174.850,244.016 172.500,244.530 172.500 C 244.616 172.500,244.644 172.432,244.592 172.348 C 244.479 172.164,245.741 171.130,245.893 171.282 C 245.952 171.341,246.000 171.307,246.000 171.206 C 246.000 170.843,248.591 170.786,248.824 171.144 " stroke="none" fill="#252625" fill-rule="evenodd"></path><path id="path2" d="M118.167 59.052 C 118.167 59.081,118.410 59.325,118.708 59.594 L 119.250 60.083 118.760 59.542 C 118.304 59.037,118.167 58.923,118.167 59.052 M120.493 61.208 C 120.902 61.644,121.258 62.000,121.285 62.000 C 121.410 62.000,121.278 61.850,120.542 61.160 L 119.750 60.417 120.493 61.208 M122.000 62.750 C 122.311 63.071,122.603 63.333,122.649 63.333 C 122.695 63.333,122.478 63.071,122.167 62.750 C 121.856 62.429,121.564 62.167,121.518 62.167 C 121.472 62.167,121.689 62.429,122.000 62.750 M131.240 73.055 C 131.496 73.391,131.740 73.667,131.781 73.667 C 131.897 73.667,131.175 72.692,130.962 72.560 C 130.858 72.496,130.983 72.718,131.240 73.055 M100.326 99.208 C 100.735 99.644,101.091 100.000,101.118 100.000 C 101.243 100.000,101.111 99.850,100.375 99.160 L 99.583 98.417 100.326 99.208 M106.286 104.999 C 106.855 105.587,107.345 106.034,107.374 105.992 C 107.403 105.951,106.937 105.470,106.338 104.923 L 105.250 103.929 106.286 104.999 M112.535 111.080 C 113.425 111.990,114.176 112.701,114.203 112.659 C 114.230 112.617,113.501 111.873,112.584 111.004 L 110.917 109.425 112.535 111.080 M118.826 117.208 C 119.517 117.944,119.667 118.077,119.667 117.951 C 119.667 117.925,119.310 117.568,118.875 117.160 L 118.083 116.417 118.826 117.208 M125.326 123.542 C 125.735 123.977,126.091 124.333,126.118 124.333 C 126.243 124.333,126.111 124.184,125.375 123.493 L 124.583 122.750 125.326 123.542 M131.993 130.042 C 132.684 130.778,132.833 130.910,132.833 130.785 C 132.833 130.758,132.477 130.402,132.042 129.993 L 131.250 129.250 131.993 130.042 M135.500 133.385 C 135.500 133.414,135.744 133.658,136.042 133.927 L 136.583 134.417 136.094 133.875 C 135.638 133.370,135.500 133.257,135.500 133.385 M137.614 135.102 C 137.696 135.317,137.665 135.354,137.487 135.249 C 137.356 135.172,137.393 135.272,137.567 135.471 C 137.742 135.670,137.926 135.833,137.976 135.833 C 138.026 135.833,137.983 135.749,137.880 135.646 C 137.777 135.544,137.729 135.364,137.774 135.247 C 137.819 135.129,137.777 134.985,137.680 134.925 C 137.569 134.856,137.545 134.922,137.614 135.102 M138.388 136.227 C 138.556 136.363,138.804 136.610,138.939 136.778 C 139.168 137.062,139.172 137.057,139.005 136.712 C 138.907 136.508,138.659 136.260,138.455 136.161 C 138.109 135.994,138.105 135.999,138.388 136.227 M113.833 156.508 C 114.411 156.901,114.741 157.015,114.333 156.682 C 114.104 156.494,113.842 156.340,113.750 156.340 C 113.658 156.339,113.696 156.415,113.833 156.508 M126.167 163.567 C 126.601 164.051,126.665 164.187,126.417 164.099 C 126.149 164.004,126.125 164.022,126.292 164.190 C 126.431 164.330,126.555 164.345,126.667 164.233 C 126.779 164.121,126.626 163.875,126.209 163.491 L 125.583 162.917 126.167 163.567 M226.877 183.620 C 227.131 183.658,227.506 183.657,227.711 183.617 C 227.916 183.578,227.708 183.546,227.250 183.548 C 226.792 183.549,226.624 183.581,226.877 183.620 M230.375 183.782 C 230.535 183.823,230.798 183.823,230.958 183.782 C 231.119 183.740,230.987 183.705,230.667 183.705 C 230.346 183.705,230.215 183.740,230.375 183.782 M214.077 188.542 L 213.250 189.417 214.125 188.590 C 214.606 188.135,215.000 187.741,215.000 187.715 C 215.000 187.590,214.846 187.729,214.077 188.542 M138.740 204.875 L 138.250 205.417 138.792 204.927 C 139.090 204.658,139.333 204.414,139.333 204.385 C 139.333 204.257,139.196 204.370,138.740 204.875 M125.439 221.208 L 125.139 221.750 125.482 221.333 C 125.787 220.964,125.922 220.667,125.786 220.667 C 125.760 220.667,125.604 220.910,125.439 221.208 M121.064 227.708 C 120.490 228.682,120.452 228.765,120.745 228.417 C 121.083 228.013,121.375 227.500,121.266 227.500 C 121.222 227.500,121.131 227.594,121.064 227.708 M124.240 261.708 L 123.750 262.250 124.292 261.760 C 124.590 261.491,124.833 261.248,124.833 261.219 C 124.833 261.090,124.696 261.203,124.240 261.708 M121.073 264.875 L 120.583 265.417 121.125 264.927 C 121.423 264.658,121.667 264.414,121.667 264.385 C 121.667 264.257,121.529 264.370,121.073 264.875 " stroke="none" fill="#6c6e52" fill-rule="evenodd"></path><path id="path3" d="M133.500 131.417 C 133.811 131.737,134.103 132.000,134.149 132.000 C 134.195 132.000,133.978 131.737,133.667 131.417 C 133.356 131.096,133.064 130.833,133.018 130.833 C 132.972 130.833,133.189 131.096,133.500 131.417 " stroke="none" fill="#858887" fill-rule="evenodd"></path><path id="path4" d="M229.460 158.618 C 229.668 158.658,229.968 158.656,230.127 158.615 C 230.286 158.573,230.117 158.540,229.750 158.542 C 229.383 158.544,229.253 158.578,229.460 158.618 M122.828 263.125 L 121.917 264.083 122.875 263.172 C 123.402 262.671,123.833 262.240,123.833 262.214 C 123.833 262.090,123.674 262.235,122.828 263.125 " stroke="none" fill="#8a9674" fill-rule="evenodd"></path></g></svg>