<svg width="256" height="256" viewBox="0 0 256 256" fill="none" xmlns="http://www.w3.org/2000/svg">
<path opacity="0.994" fill-rule="evenodd" clip-rule="evenodd" d="M119.5 8.50007C168.086 8.20392 205.586 28.2039 232 68.5001C256.16 115.818 252.16 160.485 220 202.5C186.312 237.949 145.479 250.449 97.5001 240C46.493 224.809 16.6595 190.976 8.00005 138.5C4.50237 88.9936 23.669 51.1603 65.5 25.0001C82.49 15.722 100.49 10.222 119.5 8.50007Z" fill="#EA921A"/>
<path fill-rule="evenodd" clip-rule="evenodd" d="M134.5 86.5C106.167 85.1667 77.8333 85.1667 49.5 86.5C48.9569 86.44 48.6236 86.1067 48.5 85.5C77.5 84.1667 106.5 84.1667 135.5 85.5C135.376 86.1067 135.043 86.44 134.5 86.5Z" fill="#EB951D"/>
<path fill-rule="evenodd" clip-rule="evenodd" d="M49.5 86.5C77.8333 85.1667 106.167 85.1667 134.5 86.5C127.449 91.0525 121.949 97.0525 118 104.5C110.667 119.833 103.333 135.167 96 150.5C90.1121 158.533 82.2787 163.7 72.5 166C55.8333 166.667 39.1667 166.667 22.5 166C28.2886 162.545 33.122 158.045 37 152.5C44.7732 136.621 52.2732 120.621 59.5 104.5C65.8333 103.167 72.1667 103.167 78.5 104.5C70.5601 120.713 62.8935 137.046 55.5 153.5C65.289 155.737 73.4557 153.07 80 145.5C86.0598 131.713 92.3931 118.047 99 104.5C103.531 101.763 108.364 99.5964 113.5 98C96.5 97.6667 79.5 97.3333 62.5 97C58.2923 93.287 53.959 89.787 49.5 86.5Z" fill="#FDFDFD"/>
<path fill-rule="evenodd" clip-rule="evenodd" d="M138.5 98.5C151.504 98.3334 164.504 98.5001 177.5 99C175.641 102.246 173.975 105.579 172.5 109C161.485 109.168 150.485 109.668 139.5 110.5C134.541 120.747 129.875 131.08 125.5 141.5C130.833 141.5 136.167 141.5 141.5 141.5C144.206 134.416 147.206 127.416 150.5 120.5C156.137 119.337 161.804 119.17 167.5 120C162.372 130.424 157.372 140.924 152.5 151.5C139.179 152.666 125.846 152.833 112.5 152C109.587 150.187 107.921 147.52 107.5 144C112.857 132.119 118.357 120.286 124 108.5C128.208 104.103 133.042 100.769 138.5 98.5Z" fill="#FDFDFD"/>
<path fill-rule="evenodd" clip-rule="evenodd" d="M203.5 152.5C188.324 152.829 173.324 152.496 158.5 151.5C160.488 146.855 162.488 142.188 164.5 137.5C170.137 136.337 175.804 136.17 181.5 137C180.833 138.333 180.167 139.667 179.5 141C183.871 141.828 188.205 141.661 192.5 140.5C193.929 138.669 194.429 136.669 194 134.5C187.582 131.042 181.415 127.209 175.5 123C174.398 120.599 174.231 118.099 175 115.5C177.773 110.287 180.273 104.954 182.5 99.5C197.833 98.1667 213.167 98.1667 228.5 99.5C226.088 104.659 223.421 109.659 220.5 114.5C219.076 112.282 217.076 110.782 214.5 110C188.636 107.02 186.636 111.686 208.5 124C211.792 126.412 212.959 129.579 212 133.5C209.155 139.855 206.321 146.188 203.5 152.5Z" fill="#FDFDFD"/>
<path fill-rule="evenodd" clip-rule="evenodd" d="M158.5 151.5C173.324 152.496 188.324 152.829 203.5 152.5C188.328 153.826 172.995 153.826 157.5 152.5C157.624 151.893 157.957 151.56 158.5 151.5Z" fill="#ED971D"/>
</svg>
