<?xml version="1.0" standalone="yes"?>
<svg xmlns="http://www.w3.org/2000/svg" width="500" height="500">
<path style="fill:#4cafea; stroke:none;" d="M0 0L0 74C18.038 77.104 39.8714 86.2867 55 96.5201C61.513 100.926 68.9044 108.294 66.5656 117C64.7151 123.888 56.7353 129.13 51 132.6C40.0272 139.237 28.5321 144.826 17 150.41C12.3295 152.671 5.09756 154.673 1.6034 158.637C-2.64475 163.457 0 177.852 0 184C0 190.978 -2.92127 206.516 1.02778 212.39C4.36396 217.354 13.7906 220.205 19 222.742C34.7389 230.408 52.4082 242.12 69 247C72.7525 233.974 80.7348 221.207 86.6412 209C103.272 174.629 123.696 139.135 136 103C151.414 114.789 163.798 135.061 176.247 150C179.925 154.414 186.267 165.751 192.17 166.983C196.455 167.878 202.549 162.67 206 160.6C217.673 153.6 229.411 146.751 241 139.61C276.549 117.705 314.055 92.1176 333.64 54C342.351 37.0471 346.5 18.5758 350 0L0 0z"/>
<path style="fill:#e450ec; stroke:none;" d="M350 0L348 9L350 9L349 23L350 23L350 13L351 13L351 15L352 15L350 3L351 3L352 12L353 12L353 0L352 0L352 3L351 3L350 0z"/>
<path style="fill:#e43627; stroke:none;" d="M351 0L351 3L352 3L351 0M353 0L353 5L354 5L353 0z"/>
<path style="fill:#4cafea; stroke:none;" d="M354 0C351.081 67.972 292.626 112.567 240 145.225C225.732 154.079 211.223 163.892 196 171C198.912 181.478 211.166 191.713 218.08 200C235.899 221.356 253.982 242.5 271.614 264C277.409 271.066 283.374 277.998 289.246 285C291.198 287.328 293.664 291.505 297.039 291.748C302.367 292.131 310.44 285.125 315 282.629C328.303 275.348 341.996 269.714 356 264L356 263C351.733 260.973 347.92 258.212 344.17 255.34C327.243 242.38 330.266 229.566 347 218.535C366.087 205.952 387.681 197.131 408 186.755C415.506 182.923 432.949 175.681 431.102 165C430.019 158.738 423.061 154.11 418 151.154C404.174 143.079 389.007 138.604 374 133.366C368.086 131.301 353.314 129.742 354 122C366.457 126.777 379.55 129.705 392 134.6C400.102 137.786 408.361 140.61 416 144.862C424.57 149.632 440.962 159.697 434.821 172C430.65 180.355 418.979 186.188 411 190.244C393.428 199.177 375.113 207.088 358 216.873C351 220.875 333.615 229.887 336.718 240C339.207 248.111 354.459 260.68 363 261.552C377.335 263.015 392.979 256.061 408 257.09C440.167 259.292 469.809 270.786 500 281L500 0L354 0z"/>
<path style="fill:#e43627; stroke:none;" d="M350 3L351 13L352 13L350 3M348 9L346 33L347 33L350 24L350 9L348 9z"/>
<path style="fill:#e450ec; stroke:none;" d="M347 13L347 16L348 16L347 13z"/>
<path style="fill:#e43627; stroke:none;" d="M350 13L350 19L351 19L350 13z"/>
<path style="fill:#e450ec; stroke:none;" d="M346 17L346 27L345 27L345 25L344 25L345 38L344 38L344 29L343 29L340 38L341 43L340 43L340 40L339 40L338 43L340 45L337 45L338 49L333 54L334 57L331 57L331 58L333 57L333 58L330 59L330 65L329 65L330 61L329 61L328 67C323.92 67.8159 323.528 71.1831 323 75L322 75L321 73L321 76L314 82L311 85L307 91L309 88L305 94L301 95L300 96L301 98L297 99L293 102L292 103L293 105C290.207 104.903 288.577 105.17 290 108L279 115L281 112L279 116C276.142 116.209 275 116.174 275 119L268 121L269 123L265 125L266 123L265 123L265 126C261.746 126.389 259.357 126.499 259 130L256 129L256 132L255 132L252 134L247 135L248 137L245 139C243.093 137.044 242.211 138.842 242 141C238.917 140.725 237.367 140.827 237 144C233.712 144.446 231.699 144.613 231 148L227 150C225.093 148.044 224.211 149.842 224 152C220.917 151.725 219.367 151.827 219 155L216 154L216 157L214 155L212 159C209.46 158.477 209.315 158.405 209 161L208 161L207 159L206 160L208 161L208 162L204 161L205 163L202 162L202 165L188 167L190 165L186 162L188 166L172 145L173 148C169.98 143.337 168.899 138.607 163 137C163.137 131.076 157.615 125.525 152 124L154 122L150 119L151 121L150 121C146.935 114.084 143.071 106.58 136 103L134 108C135.383 109.627 134.867 110.307 133 109L130 117L132 116L132 117L129 118L127 123L129 122L129 123L127 128L125 126L123 130L123 131L125 133L122 133L123 137L122 137L121 135L119 140C121.865 140 120.159 142.512 118 141L116 146C118.436 146 117.615 146.786 117 149L115 148L112 155L114 154L114 155L111 156L109 161L109 166L107 164L105 170L106 170L107 166L108 166L106 172L104 171L102 176L104 175L104 176L102 181L100 179L98 184C100.436 184 99.615 184.786 99 187L97 186L95 191L97 190L97 191L95 196L93 194L91 199L93 198L93 199L92 202L90 200L87 208L89 207L89 208L86 209L87 213L86 213L85 211L84 214L86 213L86 214C84.8049 216.271 84.4915 218.744 82 217L80 221L80 222L82 224L79 224L77 229L79 228L79 229L75 232L73 237C75.8652 237 74.1594 239.512 72 238L69 246L70 246L71 243L72 243L69 248L84 257L82 262L65 253L65 254L66 257L64 255L62 259L62 260L64 262L61 262L59 267L61 266L61 267C59.8048 269.271 59.4915 271.744 57 270L55 274L55 275L57 277L54 277L52 282L54 281L54 282L50 285L48 290L50 289L50 290L49 293L47 291L45 297L46 297L46 295L47 295L45 301L43 300L41 305L43 304L43 305L41 310L39 308L37 312L37 313C38.3826 314.627 37.8667 315.307 36 314L34 318L34 319L34 325L32 323L30 328L32 327L32 328L31 331L29 329L27 339L25 338L23 343L25 342L25 343L23 348L22 348L23 344L22 344L19 351L20 351L21 348L22 348L20 354L18 353L16 358L18 357L18 358L14 361L12 366C14.8652 366 13.1595 368.512 11 367L8 375L9 375L10 372L11 372L9 377L7 376L5 381L7 380L7 381L5 386L3 384L2 387L4 386L4 387L0 391L0 475C3.10711 473.964 6.86436 471.543 6 475L14 473L12 471C15.2625 470.456 17.8042 468.783 17 472L26 470L26 469L24 469L24 468L29 469L29 468L27 467C30.2625 466.456 32.8042 464.783 32 468L40 466L38 464L48 462L48 463L46 463L46 464L55 462L55 461L53 460L58 459L57 461L66 459L66 458L64 457L73 455L72 457L81 455L81 454L79 453C82.232 452.461 83.7246 451.102 83 454L92 452L92 451L90 451L90 450L96 451L96 450L94 449L100 448L100 449L98 449L98 450L107 448L107 447L105 446L115 444L115 445L112 445L112 446L118 445L118 444L116 444L116 443L122 444L122 443L119 443L119 442L125 441L125 442L123 442L123 443L133 441L133 440L130 440L130 439L139 439L147 437L146 435C149.232 434.461 150.725 433.102 150 436L159 434L159 433L157 432L163 433L163 432L160 432L160 431C163.262 430.456 165.804 428.783 165 432L170 431L170 430L167 430L167 429L173 430L177 427L177 428L175 428L175 429L185 427L185 426L182 426L182 425L187 426L187 425C179.313 420.471 171.201 416.564 164 411.24C157.673 406.562 146.739 398.007 147.576 389C148.391 380.219 158.454 374.184 165 369.834C183.484 357.551 204.435 349.549 224 339.219C231.414 335.305 248.499 328.446 247.282 318C246.546 311.69 239.876 307.484 235 304.383C221.132 295.566 204.364 291.469 189 286.139C182.367 283.838 169.002 282.832 170 274C192.051 280.382 216.153 286.765 236 298.604C243.338 302.981 254.195 310.126 253.358 320C252.491 330.234 239.894 336.815 232 341.28C212.095 352.539 190.653 360.863 171 372.604C165.185 376.078 153.912 382.109 153.924 390C153.938 400.419 169.458 408.257 177 412.936C183.56 417.006 191.211 422.202 199 423L199 422L195 422L195 421L205 421L214 419L214 418L212 417C215.232 416.461 216.725 415.102 216 418L225 416L225 415L223 414L233 412L233 413L231 413L231 414L240 412L240 411L238 410C241.232 409.461 242.725 408.102 242 411L251 409L251 408L248 408L248 407L255 408L255 407L252 407L252 406L257 407L265 405L263 404L263 403L268 404L277 402L277 401L275 401L275 400L280 401L280 400L278 400L278 399L283 400L292 398L292 397L290 396L299 394L299 395L297 395L297 396L303 395L303 394L300 394L300 393L306 394L306 393L304 392L309 391L308 393L317 391L315 390L315 389L324 387L332 387L332 386L330 385C333.232 384.461 334.725 383.102 334 386L343 384L343 383L341 383L341 382L347 383L347 382L345 381C348.232 380.461 349.725 379.102 349 382L358 380L358 379L355 379L355 378L362 377L360 371L363 377L363 378L366 377L352 362L354 362C350.211 356.272 344.921 347.899 338 346C338.172 336.277 322.985 324.752 316 319L318 319L302 296L301 296L301 301L295 300L296 292L291 290L293 288L281 278C281.137 272.076 275.615 266.525 270 265L272 263L259 251L261 251L256 248C256.137 242.076 250.615 236.525 245 235L247 233L243 230L244 233C241.016 228.228 240.009 223.632 234 222L236 220L230 213L229 213L230 216L228 211L222 206L226 209C221.919 203.031 216.285 193.984 209 192L211 190L198 178L201 179L196 170C198.852 170.08 199.681 169.847 200 167C202.54 167.523 202.686 167.595 203 165L204 165L205 167L207 163C210.083 163.275 211.633 163.173 212 160C214.54 160.523 214.686 160.595 215 158L216 158L217 160L217 157L220 158L224 153L227 154L227 151L229 153L229 150C232.683 149.079 236.18 149.066 237 145C239.916 144.863 241.63 144.983 242 142L245 143L245 140L247 142L247 139L253 135L256 136L255 133L259 134L259 131C262.417 131.004 264.295 130.456 265 127C267.923 127.072 268.687 126.892 269 124C272.254 123.611 274.643 123.501 275 120C277.923 120.072 278.687 119.892 279 117L285 113L290 108L291 108L292 110L293 106C296.299 105.869 297.4 105.26 298 102L299 101L301 102L302 101L301 99L305 98L304 96L307 97L309 93L308 95L309 95L309 92L310 91L314 86L316 84C319.567 82.9593 320.838 81.7482 321 78L325 77L323 76L323 75L325 72L326 72L327 74L331 68L330 65L333 65L333 59L335 61L334 57L337 58L336 54L337 54L338 56L340 45L342 47L343 44L341 45L341 44L344 43L343 38L344 38L345 40C346.803 33.392 349.04 23.3769 346 17z"/>
<path style="fill:#e43627; stroke:none;" d="M345 22L345 27L346 27L345 22z"/>
<path style="fill:#e450ec; stroke:none;" d="M348 24L348 27L349 27L350 24L348 24z"/>
<path style="fill:#e43627; stroke:none;" d="M344 27L344 38L345 38L344 27z"/>
<path style="fill:#e450ec; stroke:none;" d="M347.333 29.6667L347.667 30.3333L347.333 29.6667z"/>
<path style="fill:#e43627; stroke:none;" d="M341 36L341 39L342 39L341 36M343 38L343 42L344 42L343 38M340 39L340 43L341 43L340 39M342 42L341 45L342 42M338 43L338 46L340 43L338 43M340 45L339 51L340 51L340 45M337 46L337 49L338 49L337 46z"/>
<path style="fill:#e450ec; stroke:none;" d="M340 48L341 49L340 48z"/>
<path style="fill:#d1d2d3; stroke:none;" d="M448 48L438 61L423 60L424 70L426 69L416 87C428.145 90.9519 430.537 95.4254 434 107L437 104L463 107C465.867 95.3632 467.98 90.9192 480 87L470 69L474 59C459.826 61.91 457.827 57.3466 448 48z"/>
<path style="fill:#e43627; stroke:none;" d="M336 49L337 54L338 54L336 49M334 52L334 55L335 55L334 52M336 54L336 57L337 57L336 54M333.333 55.6667L333.667 56.3333L333.333 55.6667z"/>
<path style="fill:#4cafea; stroke:none;" d="M443 55L444 56L443 55z"/>
<path style="fill:#e43627; stroke:none;" d="M332 57L331 59L333 59L332 57M334 57L336 59L336 57L334 57M333 59L332 64L333 64L333 59M330 60L329 65L330 65L330 60z"/>
<path style="fill:#e450ec; stroke:none;" d="M333 62L334 63L333 62z"/>
<path style="fill:#e43627; stroke:none;" d="M327.333 65.6667L327.667 66.3333L327.333 65.6667M330 65L330 67L332 67L330 65M326 67L325 70L326 67M329 67L328 71L329 71L329 67z"/>
<path style="fill:#e450ec; stroke:none;" d="M329 69L330 70L329 69z"/>
<path style="fill:#e43627; stroke:none;" d="M323.333 70.6667L323.667 71.3333L323.333 70.6667M326 71L327 72L326 71M322 72L322 75L323 75L322 72M325 72L325 75L326 75L325 72z"/>
<path style="fill:#d1d2d3; stroke:none;" d="M0 74L0 80C16.4939 83.9068 34.5669 90.5351 49 99.4606C53.7099 102.373 61.3992 107.699 61.3773 114C61.3546 120.551 52.7803 124.908 48 127.796C33.0546 136.827 16.4271 146.031 0 152L0 159C16.6451 152.07 33.4936 143.592 49 134.397C55.2435 130.694 63.5098 126.195 66.2577 119C69.5668 110.336 63.7371 102.018 56.9961 97.2091C42.3245 86.7435 18.0532 75.8094 0 74z"/>
<path style="fill:#4cafea; stroke:none;" d="M426 74L427 75L426 74M469 74L470 75L469 74z"/>
<path style="fill:#e43627; stroke:none;" d="M320 75L321 76L320 75M323.667 75.3333L324.333 75.6667L323.667 75.3333M322 77L321 80L322 77M318 78L319 79L318 78M316 79L315 83L316 83L318 79L316 79z"/>
<path style="fill:#4cafea; stroke:none;" d="M0 80L0 152C16.4112 148.247 34.6468 136.469 49 127.796C53.98 124.787 61.725 120.777 61.6775 114C61.6294 107.145 54.2268 101.979 49 98.8642C35.0066 90.5242 16.1884 82.4248 0 80z"/>
<path style="fill:#e450ec; stroke:none;" d="M315 80L316 81L315 80z"/>
<path style="fill:#e43627; stroke:none;" d="M319 80L318 83L319 80M313.667 83.3333L314.333 83.6667L313.667 83.3333M312.333 84.6667L312.667 85.3333L312.333 84.6667M316.667 84.3333L317.333 84.6667L316.667 84.3333M315 85L316 86L315 85M310.667 86.3333L311.333 86.6667L310.667 86.3333M314.333 86.6667L314.667 87.3333L314.333 86.6667M309 87L307 91L309 87M312 88L311 91L312 88z"/>
<path style="fill:#4cafea; stroke:none;" d="M467 90L468 91L467 90z"/>
<path style="fill:#e43627; stroke:none;" d="M310 91L309 93L311 93L310 91M305 92L306 93L305 92M303.667 93.3333L304.333 93.6667L303.667 93.3333M306 96L309 93L306 96M302.333 94.6667L302.667 95.3333L302.333 94.6667M301 96L302 97L301 96M304.667 96.3333L305.333 96.6667L304.667 96.3333M299.667 97.3333L300.333 97.6667L299.667 97.3333M303.333 97.6667L303.667 98.3333L303.333 97.6667M298.333 98.6667L298.667 99.3333L298.333 98.6667M301.667 99.3333L302.333 99.6667L301.667 99.3333M294 103L298 101L294 103M300 100L301 101L300 100M299 101L298 103L300 103L299 101M293 103L294 104L293 103M297 103L298 104L297 103M136 104L147 118L148 118L138 104L136 104M291.667 104.333L292.333 104.667L291.667 104.333M290 105L293 108L293 107L290 105M293.667 106.333L294.333 106.667L293.667 106.333M286 108L286 109L290 108L286 108M134 108L134 111L136 108L134 108M290.333 108.667L290.667 109.333L290.333 108.667M283 111L283 112L289 111L283 111M133.333 111.667L133.667 112.333L133.333 111.667M279 115L283 112L279 115M285 113L286 114L285 113M132.333 114.667L132.667 115.333L132.333 114.667M283 114L284 115L283 114M277.667 115.333L278.333 115.667L277.667 115.333M131 116L130 119L131 116M275 117L275 118L279 119L279 118L275 117M279.667 117.333L280.333 117.667L279.667 117.333M148 118L151 121L148 118M273.667 118.333L274.333 118.667L273.667 118.333M129 119L129 122L130 122L129 119M272 119L273 120L272 119M275.667 120.333L276.333 120.667L275.667 120.333M151.333 121.667L151.667 122.333L151.333 121.667M269.667 121.333L270.333 121.667L269.667 121.333M272 123L275 122L272 123M128 122L126 128L127 128L128 122M267.667 122.333L268.333 122.667L267.667 122.333z"/>
<path style="fill:#d1d2d3; stroke:none;" d="M354 122C352.25 129.495 366.295 131.861 372 131C374.558 135.06 379.487 135.467 384 135C384.615 139.14 404.616 145.449 409 145C414.136 152.865 426.164 154.189 430.598 163.536C433.067 168.741 427.525 173.501 423.999 176.381C416.15 182.793 399.968 186.378 395 195C389.771 194.696 382.769 197.421 380 202C377.147 201.84 375.388 202.036 375 205C370.994 204.738 368.13 205.483 366 209C357.286 208.935 341.64 219.264 338 227L336 226L335 231C325.381 233.814 335.012 251.324 342 252C344.156 258.55 357.144 267.048 364 267C367.609 273.265 384.85 281.839 392 281C394.124 284.67 396.882 285.361 401 285L409.06 290.889L439 306C441.6 310.297 446.118 313.028 451 314L452 310L432 299C429.644 294.846 425.173 293.173 421 291.086C411.652 286.412 397.657 276.305 387 277C386.612 274.036 384.853 273.84 382 274C375.029 263.357 354.944 258.313 345.004 249.7C341.621 246.768 335.229 241.141 336.711 236C341.656 218.855 368.436 219.329 376 206C380.351 206.431 389.371 203.773 390 199C394.351 199.431 403.371 196.773 404 192C407.94 192.235 410.789 191.369 413 188L418 185C440.191 184.201 441.162 148.511 419 148C416.132 142.946 409.654 140.501 404 141C403.337 135.989 390.495 133.222 386 134C385.367 129.739 377.614 129.343 374 130C373.373 125.781 358.284 123.218 354 122z"/>
<path style="fill:#e43627; stroke:none;" d="M152 123L154 125L154 123L152 123M266 123L265 125L267 125L266 123M271 123L269 124L269 125L271 123z"/>
<path style="fill:#e450ec; stroke:none;" d="M126 124L127 125L126 124z"/>
<path style="fill:#e43627; stroke:none;" d="M154 125L162 136L163 136L154 125M263.667 125.333L264.333 125.667L263.667 125.333M268 125L269 126L268 125z"/>
<path style="fill:#e1ed5a; stroke:none;" d="M360 125L361 126L360 125z"/>
<path style="fill:#e43627; stroke:none;" d="M262 126L263 127L262 126z"/>
<path style="fill:#e1ed5a; stroke:none;" d="M365.667 126.333L366.333 126.667L365.667 126.333z"/>
<path style="fill:#e43627; stroke:none;" d="M265.667 127.333L266.333 127.667L265.667 127.333z"/>
<path style="fill:#e1ed5a; stroke:none;" d="M356.667 127.333L357.333 127.667L356.667 127.333z"/>
<path style="fill:#e43627; stroke:none;" d="M125.333 128.667L125.667 129.333L125.333 128.667M259.667 128.333L260.333 128.667L259.667 128.333M263.667 128.333L264.333 128.667L263.667 128.333z"/>
<path style="fill:#e1ed5a; stroke:none;" d="M361.667 128.333L362.333 128.667L361.667 128.333z"/>
<path style="fill:#e43627; stroke:none;" d="M257.667 129.333L258.333 129.667L257.667 129.333z"/>
<path style="fill:#e1ed5a; stroke:none;" d="M374.667 129.333L375.333 129.667L374.667 129.333z"/>
<path style="fill:#e43627; stroke:none;" d="M255.333 130.667L255.667 131.333L255.333 130.667M123 131L123 134L125 131L123 131M259.667 131.333L260.333 131.667L259.667 131.333z"/>
<path style="fill:#e1ed5a; stroke:none;" d="M370.667 131.333L371.333 131.667L370.667 131.333z"/>
<path style="fill:#e43627; stroke:none;" d="M253.667 132.333L254.333 132.667L253.667 132.333M257.667 132.333L258.333 132.667L257.667 132.333z"/>
<path style="fill:#e1ed5a; stroke:none;" d="M374.667 132.333L375.333 132.667L374.667 132.333M382.667 132.333L383.333 132.667L382.667 132.333z"/>
<path style="fill:#e43627; stroke:none;" d="M251 133L252 134L251 133M255 133L255 135L257 135L257 133L255 133z"/>
<path style="fill:#e1ed5a; stroke:none;" d="M386.667 133.333L387.333 133.667L386.667 133.333z"/>
<path style="fill:#e43627; stroke:none;" d="M122 134L122 137L123 137L122 134M248 135L248 136L253 137L253 136L248 135M253.667 135.333L254.333 135.667L253.667 135.333z"/>
<path style="fill:#e1ed5a; stroke:none;" d="M382.667 135.333L383.333 135.667L382.667 135.333z"/>
<path style="fill:#e43627; stroke:none;" d="M163 136L165 138L165 136L163 136M246.667 136.333L247.333 136.667L246.667 136.333z"/>
<path style="fill:#e1ed5a; stroke:none;" d="M393.667 136.333L394.333 136.667L393.667 136.333z"/>
<path style="fill:#e43627; stroke:none;" d="M121.333 137.667L121.667 138.333L121.333 137.667M245.333 137.667L245.667 138.333L245.333 137.667M165 138L170 144L165 138M249.667 138.333L250.333 138.667L249.667 138.333z"/>
<path style="fill:#e1ed5a; stroke:none;" d="M391 138L392 139L391 138z"/>
<path style="fill:#e43627; stroke:none;" d="M120 139L119 143L120 143L120 139M242.667 139.333L243.333 139.667L242.667 139.333M247.667 139.333L248.333 139.667L247.667 139.333M240.667 140.333L241.333 140.667L240.667 140.333M245 140L244 142L246 142L245 140z"/>
<path style="fill:#e1ed5a; stroke:none;" d="M404.667 140.333L405.333 140.667L404.667 140.333z"/>
<path style="fill:#e43627; stroke:none;" d="M237 142L237 143L242 144L242 143L237 142M242.667 142.333L243.333 142.667L242.667 142.333z"/>
<path style="fill:#e1ed5a; stroke:none;" d="M402 142L403 143L402 142z"/>
<path style="fill:#e43627; stroke:none;" d="M118.333 143.667L118.667 144.333L118.333 143.667M235.667 143.333L236.333 143.667L235.667 143.333M170 144L173 148L170 144M233.667 144.333L234.333 144.667L233.667 144.333M117 145L116 149L117 149L117 145M237 145L237 146L240 146L237 145z"/>
<path style="fill:#e1ed5a; stroke:none;" d="M408 145L409 146L408 145z"/>
<path style="fill:#e43627; stroke:none;" d="M231 146L231 147L235 148L235 147L231 146M236 146L237 147L236 146M228 147L228 148L231 148L228 147z"/>
<path style="fill:#e1ed5a; stroke:none;" d="M419 147L420 148L419 147z"/>
<path style="fill:#e43627; stroke:none;" d="M173 148L183 161L184 161L173 148M227.333 148.667L227.667 149.333L227.333 148.667M115.333 149.667L115.667 150.333L115.333 149.667M229 150L229 151L233 150L229 150z"/>
<path style="fill:#e1ed5a; stroke:none;" d="M416 149L417 150L416 149z"/>
<path style="fill:#e43627; stroke:none;" d="M224.667 150.333L225.333 150.667L224.667 150.333z"/>
<path style="fill:#e450ec; stroke:none;" d="M231 150L232 151L231 150z"/>
<path style="fill:#e1ed5a; stroke:none;" d="M419 150L420 151L419 150z"/>
<path style="fill:#e43627; stroke:none;" d="M222.667 151.333L223.333 151.667L222.667 151.333M227 151L226 153L228 153L227 151z"/>
<path style="fill:#e1ed5a; stroke:none;" d="M425 151L426 152L425 151z"/>
<path style="fill:#e43627; stroke:none;" d="M114.333 152.667L114.667 153.333L114.333 152.667M219.667 153.333L220.333 153.667L219.667 153.333M224.667 153.333L225.333 153.667L224.667 153.333z"/>
<path style="fill:#e1ed5a; stroke:none;" d="M423 153L424 154L423 153z"/>
<path style="fill:#e43627; stroke:none;" d="M113 154L112 157L113 154M217.667 154.333L218.333 154.667L217.667 154.333M222.667 154.333L223.333 154.667L222.667 154.333M215 155L215 157L217 155L215 155M219 156L219 157L222 157L219 156M111 157L111 160L112 160L111 157M212.667 157.333L213.333 157.667L212.667 157.333M217.667 157.333L218.333 157.667L217.667 157.333M210.667 158.333L211.333 158.667L210.667 158.333M215.333 158.667L215.667 159.333L215.333 158.667z"/>
<path style="fill:#e1ed5a; stroke:none;" d="M432 158L433 159L432 158z"/>
<path style="fill:#e43627; stroke:none;" d="M208.333 159.667L208.667 160.333L208.333 159.667M110 160L108 166L109 166L110 160M212.667 160.333L213.333 160.667L212.667 160.333z"/>
<path style="fill:#e1ed5a; stroke:none;" d="M430 160L431 161L430 160z"/>
<path style="fill:#e43627; stroke:none;" d="M184 161L188 166L184 161M205 161L205 162L208 162L205 161M209 161L209 162L212 162L209 161z"/>
<path style="fill:#e450ec; stroke:none;" d="M108 162L109 163L108 162z"/>
<path style="fill:#e43627; stroke:none;" d="M203.667 162.333L204.333 162.667L203.667 162.333M207.667 163.333L208.333 163.667L207.667 163.333z"/>
<path style="fill:#e1ed5a; stroke:none;" d="M431 163L432 164L431 163z"/>
<path style="fill:#e450ec; stroke:none;" d="M199 164L200 165L199 164z"/>
<path style="fill:#e43627; stroke:none;" d="M198 165L198 166L202 165L198 165M205.667 164.333L206.333 164.667L205.667 164.333M203.333 165.667L203.667 166.333L203.333 165.667M107 166L105 172L106 172L107 166M188 166L190 168L190 166L188 166M190 168L191 174L192 174L191 169L200 169L190 168M200.667 167.333L201.333 167.667L200.667 167.333z"/>
<path style="fill:#d1d2d3; stroke:none;" d="M275 180L277.307 197L268 212C282.701 217.415 282.455 222.944 288 236L304 229.719L321 235C320.455 220.73 329.304 217.243 340 211C331.447 198.068 329.853 195.254 333 180C318.876 177.752 314.672 179.834 305 167L291.826 178.821L275 180z"/>
<path style="fill:#e43627; stroke:none;" d="M196 170L197 171L196 170z"/>
<path style="fill:#e1ed5a; stroke:none;" d="M272 211C283.347 216.124 286.591 219.618 289 232L304 226.72L317.487 229.929L322.6 217.498L334.083 209.725L327.603 198L329 182C317.02 182 312.488 180.936 305 171L292.829 181.397L279.117 183.603L280.136 197L272 211z"/>
<path style="fill:#e43627; stroke:none;" d="M104 172L104 175L105 175L104 172M193 172L194 173L193 172z"/>
<path style="fill:#e1ed5a; stroke:none;" d="M430 172L431 173L430 172M433 172L432 175L433 172z"/>
<path style="fill:#e43627; stroke:none;" d="M195 174L197 178L198 178L195 174M103 175L101 181L102 181L103 175z"/>
<path style="fill:#e1ed5a; stroke:none;" d="M427 175L426 177L427 175z"/>
<path style="fill:#e450ec; stroke:none;" d="M101 177L102 178L101 177z"/>
<path style="fill:#e1ed5a; stroke:none;" d="M429 177L428 179L429 177z"/>
<path style="fill:#e43627; stroke:none;" d="M198 178L201 181L198 178z"/>
<path style="fill:#e1ed5a; stroke:none;" d="M422 179L423 180L422 179z"/>
<path style="fill:#e43627; stroke:none;" d="M100.333 181.667L100.667 182.333L100.333 181.667M201 181L202 182L201 181z"/>
<path style="fill:#e1ed5a; stroke:none;" d="M417 182L418 183L417 182M422 182L423 183L422 182z"/>
<path style="fill:#e43627; stroke:none;" d="M99 183L98 187L99 187L99 183M202 183L209 191L202 183z"/>
<path style="fill:#e1ed5a; stroke:none;" d="M415 183L416 184L415 183M418 185L419 186L418 185M410 186L411 187L410 186z"/>
<path style="fill:#e43627; stroke:none;" d="M97.3333 187.667L97.6667 188.333L97.3333 187.667z"/>
<path style="fill:#e1ed5a; stroke:none;" d="M413 188L414 189L413 188M410 189L411 190L410 189z"/>
<path style="fill:#e43627; stroke:none;" d="M96 190L94 196L95 196L96 190z"/>
<path style="fill:#e1ed5a; stroke:none;" d="M402 190L403 191L402 190z"/>
<path style="fill:#e43627; stroke:none;" d="M209 191L211 193L211 191L209 191z"/>
<path style="fill:#e450ec; stroke:none;" d="M94 192L95 193L94 192z"/>
<path style="fill:#e1ed5a; stroke:none;" d="M404.667 192.333L405.333 192.667L404.667 192.333z"/>
<path style="fill:#e43627; stroke:none;" d="M211 193L222 206L211 193z"/>
<path style="fill:#e1ed5a; stroke:none;" d="M394 194L395 195L394 194z"/>
<path style="fill:#e43627; stroke:none;" d="M93.3333 196.667L93.6667 197.333L93.3333 196.667z"/>
<path style="fill:#e1ed5a; stroke:none;" d="M396 196L397 197L396 196M388 197L389 198L388 197z"/>
<path style="fill:#e43627; stroke:none;" d="M92 198L91 202L92 202L92 198z"/>
<path style="fill:#e1ed5a; stroke:none;" d="M390.667 199.333L391.333 199.667L390.667 199.333M382 200L383 201L382 200M388 200L389 201L388 200M379 201L380 202L379 201z"/>
<path style="fill:#e43627; stroke:none;" d="M90 202L89 206L90 206L90 202z"/>
<path style="fill:#e1ed5a; stroke:none;" d="M382 203L383 204L382 203M373.667 204.333L374.333 204.667L373.667 204.333z"/>
<path style="fill:#e43627; stroke:none;" d="M222 206L226 211L222 206z"/>
<path style="fill:#e1ed5a; stroke:none;" d="M376.667 206.333L377.333 206.667L376.667 206.333z"/>
<path style="fill:#e43627; stroke:none;" d="M88 207L87 210L88 207z"/>
<path style="fill:#e1ed5a; stroke:none;" d="M374 207L375 208L374 207M365 208L366 209L365 208z"/>
<path style="fill:#e43627; stroke:none;" d="M86 210L86 213L87 213L86 210z"/>
<path style="fill:#e1ed5a; stroke:none;" d="M368 210L369 211L368 210z"/>
<path style="fill:#e43627; stroke:none;" d="M226 211L227 212L226 211z"/>
<path style="fill:#e1ed5a; stroke:none;" d="M360 211L361 212L360 211z"/>
<path style="fill:#e43627; stroke:none;" d="M227 212L230 216L227 212z"/>
<path style="fill:#d1d2d3; stroke:none;" d="M0 213C0.296471 222.054 9.90982 224.208 17 227.753C30.2464 234.376 44.1146 240.011 57 247.336C65.0561 251.916 72.9297 259.869 82 262L84 257C56.1839 243.221 29.9979 222.493 0 213z"/>
<path style="fill:#e43627; stroke:none;" d="M85 213L83 219L84 219L85 213z"/>
<path style="fill:#e1ed5a; stroke:none;" d="M355 214L356 215L355 214M360 214L361 215L360 214z"/>
<path style="fill:#e450ec; stroke:none;" d="M83 215L84 216L83 215z"/>
<path style="fill:#e1ed5a; stroke:none;" d="M352 215L353 216L352 215z"/>
<path style="fill:#e43627; stroke:none;" d="M230 216L233 221L234 221L230 216z"/>
<path style="fill:#e1ed5a; stroke:none;" d="M348 218L349 219L348 218M353 218L354 219L353 218z"/>
<path style="fill:#4cafea; stroke:none;" d="M0 219L0 391L1 391L19.8326 350L66 252L0 219z"/>
<path style="fill:#e43627; stroke:none;" d="M82.3333 219.667L82.6667 220.333L82.3333 219.667M234 221L236 223L236 221L234 221z"/>
<path style="fill:#e1ed5a; stroke:none;" d="M344 221L345 222L344 221M348.667 221.333L349.333 221.667L348.667 221.333z"/>
<path style="fill:#e43627; stroke:none;" d="M80 222L80 225L82 222L80 222z"/>
<path style="fill:#e1ed5a; stroke:none;" d="M342 222L343 223L342 222z"/>
<path style="fill:#e43627; stroke:none;" d="M236 223L240 229L241 229L236 223z"/>
<path style="fill:#e1ed5a; stroke:none;" d="M344 224L345 225L344 224z"/>
<path style="fill:#e43627; stroke:none;" d="M79.3333 225.667L79.6667 226.333L79.3333 225.667z"/>
<path style="fill:#e1ed5a; stroke:none;" d="M337 226L338 227L337 226z"/>
<path style="fill:#e43627; stroke:none;" d="M78 228L76 233L77 233L78 228M241 229L244 233L241 229z"/>
<path style="fill:#e450ec; stroke:none;" d="M76 230L77 231L76 230z"/>
<path style="fill:#e1ed5a; stroke:none;" d="M334 230L335 231L334 230M333 232L334 233L333 232M336 232L337 233L336 232z"/>
<path style="fill:#e43627; stroke:none;" d="M244 233L245 234L244 233M75.3333 234.667L75.6667 235.333L75.3333 234.667M245 234L247 236L247 234L245 234M74 236L73 240L74 240L74 236M247 236L255 247L256 247L247 236z"/>
<path style="fill:#e1ed5a; stroke:none;" d="M335.333 236.667L335.667 237.333L335.333 236.667z"/>
<path style="fill:#e43627; stroke:none;" d="M72.3333 240.667L72.6667 241.333L72.3333 240.667M71 243L69 247L71 243M256 247L258 249L258 247L256 247M258 249L259 250L258 249M259 251L262 254L259 251z"/>
<path style="fill:#e1ed5a; stroke:none;" d="M341 252L342 253L341 252z"/>
<path style="fill:#e43627; stroke:none;" d="M65 254L65 257L66 257L67 254L65 254M262 254L269 264L270 264L262 254z"/>
<path style="fill:#e1ed5a; stroke:none;" d="M350 255L351 256L350 255z"/>
<path style="fill:#e43627; stroke:none;" d="M64.3333 257.667L64.6667 258.333L64.3333 257.667z"/>
<path style="fill:#e1ed5a; stroke:none;" d="M348 257L349 258L348 257M353 257L354 258L353 257z"/>
<path style="fill:#e450ec; stroke:none;" d="M387 257L387 258L412 258L387 257M382.667 258.333L383.333 258.667L382.667 258.333z"/>
<path style="fill:#e43627; stroke:none;" d="M364 262L364 263C372.271 266.497 380.33 263.745 388.999 263.086C400.351 262.225 411.717 262.94 423 264.166C449.979 267.098 473.845 281.352 500 286C499.244 276.517 476.927 272.729 469 270.194C432.854 258.639 401.176 256.994 364 262z"/>
<path style="fill:#e450ec; stroke:none;" d="M385 258L386 259L385 258M416 258L416 259L421 259L416 258M374.667 259.333L375.333 259.667L374.667 259.333M426.667 259.333L427.333 259.667L426.667 259.333z"/>
<path style="fill:#e43627; stroke:none;" d="M62 260L62 263L64 260L62 260z"/>
<path style="fill:#e1ed5a; stroke:none;" d="M352 260L353 261L352 260z"/>
<path style="fill:#e450ec; stroke:none;" d="M370.667 260.333L371.333 260.667L370.667 260.333M430 260L430 261L434 261L430 260M365 261L365 262L368 262L365 261M435 261L435 262L438 262L435 261M395 262L396 263L395 262M404 262L404 263L407 263L404 262M441 262L442 263L441 262z"/>
<path style="fill:#e43627; stroke:none;" d="M61 263L61 266L62 266L61 263z"/>
<path style="fill:#e450ec; stroke:none;" d="M385 263L386 264L385 263z"/>
<path style="fill:#4cafea; stroke:none;" d="M371 267L424 293.106L452 310L451 314C441.702 310.917 433.522 303.278 425 298.428C412.496 291.312 398.922 286.041 386 279.742C379.242 276.449 370.528 269.573 363 268.82C353.594 267.879 340.232 275.838 332 279.784C324.129 283.557 316.69 288.114 309 292.22C306.679 293.459 302.323 294.937 302.167 298.105C301.851 304.561 314.517 315.234 318.424 320C333.817 338.778 353.852 356.961 366 378L312 392.08L197 423L197 424C216.054 431.933 235.366 441.271 253 452.003C255.79 453.701 270.056 461.018 268.029 465.044C265.836 469.401 254.449 459.714 252 458.192C235.407 447.884 217.547 440.238 200 431.742C180.694 422.394 160.894 433.346 141 438.335C94.012 450.118 47.532 466.782 0 476L0 500L500 500L500 349L500 306C500 301.037 501.543 292.946 499.397 288.39C496.282 281.779 476.615 278.123 470 276.255C446.338 269.576 423.837 263 399 263C390.236 263 378.726 262.281 371 267z"/>
<path style="fill:#e450ec; stroke:none;" d="M413 263L413 264L417 264L413 263M446 263L447 264L446 263z"/>
<path style="fill:#e43627; stroke:none;" d="M270 264L272 266L272 264L270 264z"/>
<path style="fill:#e450ec; stroke:none;" d="M352 265L352 266L356 265L352 265M376.667 264.333L377.333 264.667L376.667 264.333M423 264L423 265L426 265L423 264M448.667 264.333L449.333 264.667L448.667 264.333z"/>
<path style="fill:#e43627; stroke:none;" d="M295 300L301 301L300 297L362 268C356.253 263.435 350.119 266.353 344 268.8C331.489 273.804 319.692 280.072 308 286.719C302.303 289.958 291.564 292.037 295 300z"/>
<path style="fill:#e450ec; stroke:none;" d="M370 265L370 266L374 266L370 265M427 265L427 266L432 266L427 265M453 265L454 266L453 265z"/>
<path style="fill:#e43627; stroke:none;" d="M60 266L58 272L59 272L60 266M272 266L280 277L281 277L272 266z"/>
<path style="fill:#e450ec; stroke:none;" d="M434 266L435 267L434 266M456.667 266.333L457.333 266.667L456.667 266.333M346.667 267.333L347.333 267.667L346.667 267.333z"/>
<path style="fill:#e1ed5a; stroke:none;" d="M363 267L364 268L363 267z"/>
<path style="fill:#e450ec; stroke:none;" d="M439.667 267.333L440.333 267.667L439.667 267.333M460.667 267.333L461.333 267.667L460.667 267.333M58 268L59 269L58 268M344 268L345 269L344 268M359 268L359 269L362 269L359 268z"/>
<path style="fill:#e1ed5a; stroke:none;" d="M366 268L367 269L366 268M371 268L372 269L371 268z"/>
<path style="fill:#e450ec; stroke:none;" d="M443.667 268.333L444.333 268.667L443.667 268.333M463.667 268.333L464.333 268.667L463.667 268.333M342 269L343 270L342 269M357.667 269.333L358.333 269.667L357.667 269.333M446 269L446 270L449 270L446 269M466 269L467 270L466 269M339 270L340 271L339 270M451 270L452 271L451 270M470 270L471 271L470 270M336.667 271.333L337.333 271.667L336.667 271.333M351 271L352 272L351 271M455.667 271.333L456.333 271.667L455.667 271.333M472.667 271.333L473.333 271.667L472.667 271.333z"/>
<path style="fill:#e43627; stroke:none;" d="M57.3333 272.667L57.6667 273.333L57.3333 272.667z"/>
<path style="fill:#e450ec; stroke:none;" d="M335 272L336 273L335 272M347 272L347 273L350 273L347 272M458.667 272.333L459.333 272.667L458.667 272.333M475 272L476 273L475 272M332 273L333 274L332 273M346 273L347 274L346 273z"/>
<path style="fill:#e1ed5a; stroke:none;" d="M382 273L383 274L382 273z"/>
<path style="fill:#e450ec; stroke:none;" d="M461 273L462 274L461 273M479 273L480 274L479 273z"/>
<path style="fill:#d1d2d3; stroke:none;" d="M170.667 274.333L171.333 274.667L170.667 274.333z"/>
<path style="fill:#e450ec; stroke:none;" d="M330 274L331 275L330 274z"/>
<path style="fill:#e1ed5a; stroke:none;" d="M377 274L378 275L377 274z"/>
<path style="fill:#e450ec; stroke:none;" d="M464 274L465 275L464 274M481.667 274.333L482.333 274.667L481.667 274.333z"/>
<path style="fill:#e43627; stroke:none;" d="M55 275L55 278L57 275L55 275z"/>
<path style="fill:#e1ed5a; stroke:none;" d="M170 275L169 279C188.391 288.494 210.842 290.933 230 301.59C236.137 305.004 246.508 310.149 247.639 318C249.06 327.862 231.837 335.105 225 338.766C202.562 350.782 167.364 360.189 151.533 381.001C141.958 393.589 156.139 405.802 166 412.481C188.213 427.525 213.288 437.018 237 449.258C247.063 454.453 256.999 464.415 268 467L269 462C260.515 457.986 253.316 451.623 245 447.262C222.838 435.637 199.722 426.034 178 413.573C170.649 409.355 152.996 400.081 153.492 390C153.936 380.976 168.249 373.917 175 370.015C196.564 357.551 221.348 349.643 241.715 335.185C254.484 326.12 256.69 312.981 242.996 303.209C239.23 300.522 235.107 298.23 231 296.109C222.965 291.959 214.358 289.23 206 285.858C194.829 281.351 181.932 276.756 170 275z"/>
<path style="fill:#d1d2d3; stroke:none;" d="M173 275L173 276L176 276L173 275z"/>
<path style="fill:#e450ec; stroke:none;" d="M328.667 275.333L329.333 275.667L328.667 275.333M341 275L342 276L341 275z"/>
<path style="fill:#e1ed5a; stroke:none;" d="M385 275L386 276L385 275z"/>
<path style="fill:#e450ec; stroke:none;" d="M467.667 275.333L468.333 275.667L467.667 275.333M484.667 275.333L485.333 275.667L484.667 275.333z"/>
<path style="fill:#d1d2d3; stroke:none;" d="M169.333 276.667L169.667 277.333L169.333 276.667M176.667 276.333L177.333 276.667L176.667 276.333z"/>
<path style="fill:#e450ec; stroke:none;" d="M339 276L340 277L339 276z"/>
<path style="fill:#e1ed5a; stroke:none;" d="M387.667 276.333L388.333 276.667L387.667 276.333z"/>
<path style="fill:#e450ec; stroke:none;" d="M470 276L470 277L473 277L470 276M487 276L488 277L487 276z"/>
<path style="fill:#d1d2d3; stroke:none;" d="M180 277L181 278L180 277z"/>
<path style="fill:#e43627; stroke:none;" d="M281 277L283 279L283 277L281 277z"/>
<path style="fill:#e450ec; stroke:none;" d="M324 277L325 278L324 277M337 277L338 278L337 277M490 277L491 278L490 277z"/>
<path style="fill:#e43627; stroke:none;" d="M54.3333 278.667L54.6667 279.333L54.3333 278.667z"/>
<path style="fill:#d1d2d3; stroke:none;" d="M183 278L183 279L186 279L183 278z"/>
<path style="fill:#e450ec; stroke:none;" d="M322.667 278.333L323.333 278.667L322.667 278.333M334 278L335 279L334 278z"/>
<path style="fill:#e1ed5a; stroke:none;" d="M385 278L386 279L385 278z"/>
<path style="fill:#e450ec; stroke:none;" d="M477.667 278.333L478.333 278.667L477.667 278.333M492.667 278.333L493.333 278.667L492.667 278.333z"/>
<path style="fill:#d1d2d3; stroke:none;" d="M169 279L170 280L169 279M186 279L186 280L189 280L186 279z"/>
<path style="fill:#e43627; stroke:none;" d="M283 279L290 289L291 289L283 279z"/>
<path style="fill:#e450ec; stroke:none;" d="M320.667 279.333L321.333 279.667L320.667 279.333M332 279L333 280L332 279z"/>
<path style="fill:#e1ed5a; stroke:none;" d="M393 279L394 280L393 279z"/>
<path style="fill:#e450ec; stroke:none;" d="M479.667 279.333L480.333 279.667L479.667 279.333M494.667 279.333L495.333 279.667L494.667 279.333z"/>
<path style="fill:#d1d2d3; stroke:none;" d="M171 280L172 281L171 280M190 280L191 281L190 280z"/>
<path style="fill:#e450ec; stroke:none;" d="M330 280L331 281L330 280z"/>
<path style="fill:#e1ed5a; stroke:none;" d="M397 280L398 281L397 280z"/>
<path style="fill:#e450ec; stroke:none;" d="M482 280L483 281L482 280M498 280L499 281L498 280z"/>
<path style="fill:#e43627; stroke:none;" d="M53 281L51 286L52 286L53 281z"/>
<path style="fill:#d1d2d3; stroke:none;" d="M175.667 281.333L176.333 281.667L175.667 281.333M193.667 281.333L194.333 281.667L193.667 281.333z"/>
<path style="fill:#e450ec; stroke:none;" d="M316 281L317 282L316 281z"/>
<path style="fill:#e1ed5a; stroke:none;" d="M391 281L392 282L391 281z"/>
<path style="fill:#e450ec; stroke:none;" d="M485 281L486 282L485 281z"/>
<path style="fill:#d1d2d3; stroke:none;" d="M177 282L177 283L180 283L177 282M195 282L195 283L198 283L195 282z"/>
<path style="fill:#e450ec; stroke:none;" d="M315 282L316 283L315 282M326 282L327 283L326 282z"/>
<path style="fill:#e1ed5a; stroke:none;" d="M393.667 282.333L394.333 282.667L393.667 282.333z"/>
<path style="fill:#e450ec; stroke:none;" d="M488.667 282.333L489.333 282.667L488.667 282.333M51 283L52 284L51 283z"/>
<path style="fill:#d1d2d3; stroke:none;" d="M181 283L182 284L181 283M199.667 283.333L200.333 283.667L199.667 283.333z"/>
<path style="fill:#e450ec; stroke:none;" d="M313 283L314 284L313 283M324.667 283.333L325.333 283.667L324.667 283.333z"/>
<path style="fill:#e1ed5a; stroke:none;" d="M402 283L403 284L402 283z"/>
<path style="fill:#e450ec; stroke:none;" d="M491.667 283.333L492.333 283.667L491.667 283.333z"/>
<path style="fill:#d1d2d3; stroke:none;" d="M184.667 284.333L185.333 284.667L184.667 284.333M202 284L203 285L202 284z"/>
<path style="fill:#e450ec; stroke:none;" d="M311 284L312 285L311 284M494 284L495 285L494 284z"/>
<path style="fill:#d1d2d3; stroke:none;" d="M187.667 285.333L188.333 285.667L187.667 285.333M205.667 285.333L206.333 285.667L205.667 285.333z"/>
<path style="fill:#e450ec; stroke:none;" d="M309.667 285.333L310.333 285.667L309.667 285.333M320 285L321 286L320 285z"/>
<path style="fill:#e1ed5a; stroke:none;" d="M399.667 285.333L400.333 285.667L399.667 285.333z"/>
<path style="fill:#e450ec; stroke:none;" d="M496 285L497 286L496 285z"/>
<path style="fill:#d1d2d3; stroke:none;" d="M189 286L189 287L192 287L189 286M207.667 286.333L208.333 286.667L207.667 286.333z"/>
<path style="fill:#e450ec; stroke:none;" d="M308 286L309 287L308 286M318.667 286.333L319.333 286.667L318.667 286.333z"/>
<path style="fill:#e1ed5a; stroke:none;" d="M402 286L403 287L402 286z"/>
<path style="fill:#e450ec; stroke:none;" d="M498.667 286.333L499.333 286.667L498.667 286.333z"/>
<path style="fill:#e43627; stroke:none;" d="M50.3333 287.667L50.6667 288.333L50.3333 287.667z"/>
<path style="fill:#d1d2d3; stroke:none;" d="M193 287L194 288L193 287M209.667 287.333L210.333 287.667L209.667 287.333z"/>
<path style="fill:#e450ec; stroke:none;" d="M306 287L307 288L306 287M317 287L318 288L317 287z"/>
<path style="fill:#d1d2d3; stroke:none;" d="M196.667 288.333L197.333 288.667L196.667 288.333M213 288L214 289L213 288z"/>
<path style="fill:#e450ec; stroke:none;" d="M304 288L305 289L304 288M315 288L316 289L315 288z"/>
<path style="fill:#e1ed5a; stroke:none;" d="M405 288L406 289L405 288z"/>
<path style="fill:#e43627; stroke:none;" d="M49 289L48 293L49 293L49 289z"/>
<path style="fill:#d1d2d3; stroke:none;" d="M198 289L198 290L201 290L198 289M215 289L215 290L218 290L215 289z"/>
<path style="fill:#e43627; stroke:none;" d="M291 289L293 291L293 289L291 289z"/>
<path style="fill:#e450ec; stroke:none;" d="M302.667 289.333L303.333 289.667L302.667 289.333M313 289L314 290L313 289z"/>
<path style="fill:#e1ed5a; stroke:none;" d="M408.667 289.333L409.333 289.667L408.667 289.333z"/>
<path style="fill:#d1d2d3; stroke:none;" d="M202.667 290.333L203.333 290.667L202.667 290.333M218 290L219 291L218 290z"/>
<path style="fill:#e450ec; stroke:none;" d="M301 290L302 291L301 290M311.667 290.333L312.333 290.667L311.667 290.333z"/>
<path style="fill:#e1ed5a; stroke:none;" d="M416.667 290.333L417.333 290.667L416.667 290.333z"/>
<path style="fill:#d1d2d3; stroke:none;" d="M205.667 291.333L206.333 291.667L205.667 291.333M220.667 291.333L221.333 291.667L220.667 291.333z"/>
<path style="fill:#e43627; stroke:none;" d="M293 291L294 292L293 291z"/>
<path style="fill:#e450ec; stroke:none;" d="M310 291L311 292L310 291z"/>
<path style="fill:#d1d2d3; stroke:none;" d="M208.667 292.333L209.333 292.667L208.667 292.333M223 292L224 293L223 292z"/>
<path style="fill:#e450ec; stroke:none;" d="M297 292L298 293L297 292M308 292L309 293L308 292z"/>
<path style="fill:#e43627; stroke:none;" d="M47.3333 293.667L47.6667 294.333L47.3333 293.667z"/>
<path style="fill:#d1d2d3; stroke:none;" d="M210.667 293.333L211.333 293.667L210.667 293.333M225.667 293.333L226.333 293.667L225.667 293.333z"/>
<path style="fill:#e450ec; stroke:none;" d="M306 293L307 294L306 293z"/>
<path style="fill:#d1d2d3; stroke:none;" d="M213 294L214 295L213 294M227.667 294.333L228.333 294.667L227.667 294.333z"/>
<path style="fill:#e43627; stroke:none;" d="M46 295L44 301L45 301L46 295z"/>
<path style="fill:#d1d2d3; stroke:none;" d="M216 295L217 296L216 295M230 295L231 296L230 295M218.667 296.333L219.333 296.667L218.667 296.333M231.667 296.333L232.333 296.667L231.667 296.333M220.667 297.333L221.333 297.667L220.667 297.333M233.667 297.333L234.333 297.667L233.667 297.333z"/>
<path style="fill:#e1ed5a; stroke:none;" d="M430 297L431 298L430 297z"/>
<path style="fill:#e450ec; stroke:none;" d="M44 298L45 299L44 298z"/>
<path style="fill:#d1d2d3; stroke:none;" d="M223 298L224 299L223 298M235 298L236 299L235 298z"/>
<path style="fill:#e1ed5a; stroke:none;" d="M432 298L433 299L432 298z"/>
<path style="fill:#d1d2d3; stroke:none;" d="M225.667 299.333L226.333 299.667L225.667 299.333M237 299L238 300L237 299M227.667 300.333L228.333 300.667L227.667 300.333M238.667 300.333L239.333 300.667L238.667 300.333z"/>
<path style="fill:#e1ed5a; stroke:none;" d="M430 300L431 301L430 300z"/>
<path style="fill:#e43627; stroke:none;" d="M43.3333 301.667L43.6667 302.333L43.3333 301.667z"/>
<path style="fill:#d1d2d3; stroke:none;" d="M229 301L230 302L229 301M240 301L241 302L240 301z"/>
<path style="fill:#e43627; stroke:none;" d="M301 301L316 318L301 301z"/>
<path style="fill:#e1ed5a; stroke:none;" d="M436 301L437 302L436 301z"/>
<path style="fill:#d1d2d3; stroke:none;" d="M242 302L243 303L242 302M233 303L234 304L233 303M243 303L244 304L243 303z"/>
<path style="fill:#e1ed5a; stroke:none;" d="M434 303L435 304L434 303z"/>
<path style="fill:#e43627; stroke:none;" d="M42 304L40 310L41 310L42 304z"/>
<path style="fill:#d1d2d3; stroke:none;" d="M235 304L236 305L235 304M244 304L245 305L244 304M236 305L237 306L236 305z"/>
<path style="fill:#e450ec; stroke:none;" d="M40 306L41 307L40 306z"/>
<path style="fill:#d1d2d3; stroke:none;" d="M238 306L239 307L238 306z"/>
<path style="fill:#e1ed5a; stroke:none;" d="M438 306L439 307L438 306z"/>
<path style="fill:#d1d2d3; stroke:none;" d="M239 307L240 308L239 307M248 307L249 308L248 307M240 308L241 309L240 308M242 309L243 310L242 309M249 309L250 310L249 309z"/>
<path style="fill:#e43627; stroke:none;" d="M39.3333 310.667L39.6667 311.333L39.3333 310.667z"/>
<path style="fill:#d1d2d3; stroke:none;" d="M243 310L244 311L243 310M250 310L251 311L250 310z"/>
<path style="fill:#e1ed5a; stroke:none;" d="M445 310L446 311L445 310z"/>
<path style="fill:#d1d2d3; stroke:none;" d="M244 311L245 312L244 311M251.333 311.667L251.667 312.333L251.333 311.667z"/>
<path style="fill:#e1ed5a; stroke:none;" d="M450 312L451 313L450 312z"/>
<path style="fill:#e43627; stroke:none;" d="M37 313L37 316L39 313L37 313z"/>
<path style="fill:#d1d2d3; stroke:none;" d="M252 313L252 316L253 316L252 313M246 314L247 315L246 314M247 315L247 318L248 318L247 315z"/>
<path style="fill:#e43627; stroke:none;" d="M36.3333 316.667L36.6667 317.333L36.3333 316.667z"/>
<path style="fill:#d1d2d3; stroke:none;" d="M253 317L253 321L254 321L253 317z"/>
<path style="fill:#e43627; stroke:none;" d="M34 319L33 325L34 325L36 319L34 319M316 319L319 322L316 319z"/>
<path style="fill:#d1d2d3; stroke:none;" d="M247 320L247 323L248 323L247 320z"/>
<path style="fill:#e450ec; stroke:none;" d="M33 321L34 322L33 321z"/>
<path style="fill:#e43627; stroke:none;" d="M319 322L330 335L319 322z"/>
<path style="fill:#d1d2d3; stroke:none;" d="M246 323L247 324L246 323M252 324L253 325L252 324z"/>
<path style="fill:#e43627; stroke:none;" d="M32.3333 325.667L32.6667 326.333L32.3333 325.667z"/>
<path style="fill:#d1d2d3; stroke:none;" d="M244 326L245 327L244 326M251 326L252 327L251 326z"/>
<path style="fill:#e43627; stroke:none;" d="M31 327L30 331L31 331L31 327z"/>
<path style="fill:#d1d2d3; stroke:none;" d="M250 327L251 328L250 327M241 328L242 329L241 328M249 328L250 329L249 328M240 329L241 330L240 329M248 329L249 330L248 329M239 330L240 331L239 330M247 330L248 331L247 330z"/>
<path style="fill:#e43627; stroke:none;" d="M29 331L28 335L29 335L29 331z"/>
<path style="fill:#d1d2d3; stroke:none;" d="M237 331L238 332L237 331M246 331L247 332L246 331M235.667 332.333L236.333 332.667L235.667 332.333M245 332L246 333L245 332M233.667 333.333L234.333 333.667L233.667 333.333M243.667 333.333L244.333 333.667L243.667 333.333M232 334L233 335L232 334z"/>
<path style="fill:#e43627; stroke:none;" d="M27 335L26 339L27 339L27 335z"/>
<path style="fill:#d1d2d3; stroke:none;" d="M230 335L231 336L230 335M241 335L242 336L241 335z"/>
<path style="fill:#e450ec; stroke:none;" d="M26 336L27 337L26 336z"/>
<path style="fill:#d1d2d3; stroke:none;" d="M228.667 336.333L229.333 336.667L228.667 336.333M239.667 336.333L240.333 336.667L239.667 336.333z"/>
<path style="fill:#e43627; stroke:none;" d="M330 336L338 345L330 336z"/>
<path style="fill:#d1d2d3; stroke:none;" d="M227 337L228 338L227 337M238 337L239 338L238 337M225 338L226 339L225 338M236 338L237 339L236 338z"/>
<path style="fill:#e43627; stroke:none;" d="M25 339L25 342L26 342L25 339z"/>
<path style="fill:#d1d2d3; stroke:none;" d="M223 339L224 340L223 339M234.667 339.333L235.333 339.667L234.667 339.333M221 340L222 341L221 340M233 340L234 341L233 340M219.667 341.333L220.333 341.667L219.667 341.333M231 341L232 342L231 341z"/>
<path style="fill:#e43627; stroke:none;" d="M24 342L22 348L23 348L24 342z"/>
<path style="fill:#d1d2d3; stroke:none;" d="M217 342L218 343L217 342M229 342L230 343L229 342M215 343L216 344L215 343M227.667 343.333L228.333 343.667L227.667 343.333M213.667 344.333L214.333 344.667L213.667 344.333M225.667 344.333L226.333 344.667L225.667 344.333M211 345L212 346L211 345M223 345L224 346L223 345z"/>
<path style="fill:#e43627; stroke:none;" d="M338 345L340 347L340 345L338 345z"/>
<path style="fill:#d1d2d3; stroke:none;" d="M209 346L210 347L209 346M221.667 346.333L222.333 346.667L221.667 346.333M207.667 347.333L208.333 347.667L207.667 347.333M219.667 347.333L220.333 347.667L219.667 347.333z"/>
<path style="fill:#e43627; stroke:none;" d="M340 347L345 353L340 347M21 348L19 354L20 354L21 348z"/>
<path style="fill:#d1d2d3; stroke:none;" d="M205 348L206 349L205 348M217.667 348.333L218.333 348.667L217.667 348.333M203 349L204 350L203 349M215.667 349.333L216.333 349.667L215.667 349.333M200.667 350.333L201.333 350.667L200.667 350.333M213.667 350.333L214.333 350.667L213.667 350.333M198.667 351.333L199.333 351.667L198.667 351.333M211.667 351.333L212.333 351.667L211.667 351.333M197 352L198 353L197 352M209 352L210 353L209 352M194.667 353.333L195.333 353.667L194.667 353.333M207 353L208 354L207 353z"/>
<path style="fill:#e43627; stroke:none;" d="M18.3333 354.667L18.6667 355.333L18.3333 354.667z"/>
<path style="fill:#d1d2d3; stroke:none;" d="M192.667 354.333L193.333 354.667L192.667 354.333M205.667 354.333L206.333 354.667L205.667 354.333z"/>
<path style="fill:#e43627; stroke:none;" d="M346 354L352 362L346 354z"/>
<path style="fill:#d1d2d3; stroke:none;" d="M191 355L192 356L191 355M189 356L190 357L189 356M201 356L202 357L201 356z"/>
<path style="fill:#e43627; stroke:none;" d="M17 357L15 362L16 362L17 357z"/>
<path style="fill:#d1d2d3; stroke:none;" d="M186.667 357.333L187.333 357.667L186.667 357.333M199.667 357.333L200.333 357.667L199.667 357.333M184.667 358.333L185.333 358.667L184.667 358.333M197 358L198 359L197 358z"/>
<path style="fill:#e450ec; stroke:none;" d="M15 359L16 360L15 359z"/>
<path style="fill:#d1d2d3; stroke:none;" d="M183 359L184 360L183 359M195 359L196 360L195 359M180.667 360.333L181.333 360.667L180.667 360.333M193 360L194 361L193 360M178.667 361.333L179.333 361.667L178.667 361.333M191.667 361.333L192.333 361.667L191.667 361.333M177 362L178 363L177 362M189 362L190 363L189 362z"/>
<path style="fill:#e43627; stroke:none;" d="M352 362L355 365L352 362M14.3333 363.667L14.6667 364.333L14.3333 363.667z"/>
<path style="fill:#d1d2d3; stroke:none;" d="M175 363L176 364L175 363M187 363L188 364L187 363M173 364L174 365L173 364M185.667 364.333L186.333 364.667L185.667 364.333z"/>
<path style="fill:#e43627; stroke:none;" d="M13 365L12 369L13 369L13 365z"/>
<path style="fill:#d1d2d3; stroke:none;" d="M171.667 365.333L172.333 365.667L171.667 365.333M183 365L184 366L183 365z"/>
<path style="fill:#e43627; stroke:none;" d="M355 365L360 371L355 365z"/>
<path style="fill:#d1d2d3; stroke:none;" d="M170 366L171 367L170 366M168 367L169 368L168 367M179 367L180 368L179 367M166.667 368.333L167.333 368.667L166.667 368.333M177.667 368.333L178.333 368.667L177.667 368.333z"/>
<path style="fill:#e43627; stroke:none;" d="M11.3333 369.667L11.6667 370.333L11.3333 369.667z"/>
<path style="fill:#d1d2d3; stroke:none;" d="M165 369L166 370L165 369M175.667 369.333L176.333 369.667L175.667 369.333M174 370L175 371L174 370M162 371L163 372L162 371M172 371L173 372L172 371z"/>
<path style="fill:#e43627; stroke:none;" d="M360 371L362 377L355 378L355 379L365 377L360 371M10 372L8 377L9 377L10 372z"/>
<path style="fill:#d1d2d3; stroke:none;" d="M160 372L161 373L160 372M170.667 372.333L171.333 372.667L170.667 372.333M159 373L160 374L159 373M169 373L170 374L169 373M167 374L168 375L167 374M156 375L157 376L156 375M166 375L167 376L166 375M155 376L156 377L155 376M164 376L165 377L164 376z"/>
<path style="fill:#e43627; stroke:none;" d="M7 377L7 380L8 380L7 377z"/>
<path style="fill:#d1d2d3; stroke:none;" d="M154 377L155 378L154 377M163 377L164 378L163 377M153 378L154 379L153 378M161.667 378.333L162.333 378.667L161.667 378.333z"/>
<path style="fill:#e450ec; stroke:none;" d="M360.667 378.333L361.333 378.667L360.667 378.333z"/>
<path style="fill:#d1d2d3; stroke:none;" d="M152 379L153 380L152 379M160 379L161 380L160 379z"/>
<path style="fill:#e43627; stroke:none;" d="M352 379L352 380L355 380L352 379M6 380L4 386L5 386L6 380z"/>
<path style="fill:#d1d2d3; stroke:none;" d="M151 380L152 381L151 380M159 380L160 381L159 380z"/>
<path style="fill:#e43627; stroke:none;" d="M345 381L345 382L350 381L345 381z"/>
<path style="fill:#d1d2d3; stroke:none;" d="M150.333 381.667L150.667 382.333L150.333 381.667M158 381L159 382L158 381z"/>
<path style="fill:#e450ec; stroke:none;" d="M4 382L5 383L4 382z"/>
<path style="fill:#d1d2d3; stroke:none;" d="M157 382L158 383L157 382z"/>
<path style="fill:#e43627; stroke:none;" d="M341 382L341 383L345 383L341 382z"/>
<path style="fill:#d1d2d3; stroke:none;" d="M149 383L150 384L149 383M156 383L157 384L156 383z"/>
<path style="fill:#e43627; stroke:none;" d="M337.667 383.333L338.333 383.667L337.667 383.333z"/>
<path style="fill:#d1d2d3; stroke:none;" d="M155 384L156 385L155 384z"/>
<path style="fill:#e43627; stroke:none;" d="M330 385L330 386L335 385L330 385z"/>
<path style="fill:#d1d2d3; stroke:none;" d="M148 385L149 386L148 385z"/>
<path style="fill:#e43627; stroke:none;" d="M3 386L1 392L2 392L3 386z"/>
<path style="fill:#d1d2d3; stroke:none;" d="M154 386L155 387L154 386z"/>
<path style="fill:#e43627; stroke:none;" d="M326 386L326 387L329 387L326 386z"/>
<path style="fill:#d1d2d3; stroke:none;" d="M147 387L147 392L148 392L147 387M153.333 387.667L153.667 388.333L153.333 387.667z"/>
<path style="fill:#e43627; stroke:none;" d="M315 389L315 390L324 388L315 389z"/>
<path style="fill:#e450ec; stroke:none;" d="M1.33333 388.667L1.66667 389.333L1.33333 388.667M319.667 389.333L320.333 389.667L319.667 389.333z"/>
<path style="fill:#d1d2d3; stroke:none;" d="M153 390L153 393L154 393L153 390z"/>
<path style="fill:#e43627; stroke:none;" d="M311 390L311 391L314 391L311 390M304 392L304 393L309 392L304 392M0 392L0 395L1 395L0 392z"/>
<path style="fill:#d1d2d3; stroke:none;" d="M148 392L148 395L149 395L148 392M154.333 393.667L154.667 394.333L154.333 393.667z"/>
<path style="fill:#e43627; stroke:none;" d="M300 393L300 394L304 394L300 393M290 396L290 397L299 395L290 396z"/>
<path style="fill:#d1d2d3; stroke:none;" d="M155.333 395.667L155.667 396.333L155.333 395.667M149 396L150 397L149 396z"/>
<path style="fill:#e450ec; stroke:none;" d="M293 396L293 397L296 397L293 396z"/>
<path style="fill:#d1d2d3; stroke:none;" d="M150.333 397.667L150.667 398.333L150.333 397.667M156 397L157 398L156 397z"/>
<path style="fill:#e43627; stroke:none;" d="M285 397L285 398L288 398L285 397z"/>
<path style="fill:#d1d2d3; stroke:none;" d="M157 398L158 399L157 398z"/>
<path style="fill:#e43627; stroke:none;" d="M278 399L278 400L284 399L278 399z"/>
<path style="fill:#d1d2d3; stroke:none;" d="M151 399L152 400L151 399M158 399L159 400L158 399M152 400L153 401L152 400M159 400L160 401L159 400z"/>
<path style="fill:#e43627; stroke:none;" d="M275 400L275 401L278 401L275 400z"/>
<path style="fill:#d1d2d3; stroke:none;" d="M160 401L161 402L160 401z"/>
<path style="fill:#e43627; stroke:none;" d="M270 401L270 402L273 402L270 401z"/>
<path style="fill:#d1d2d3; stroke:none;" d="M161 402L162 403L161 402z"/>
<path style="fill:#e43627; stroke:none;" d="M263 403L263 404L269 403L263 403z"/>
<path style="fill:#d1d2d3; stroke:none;" d="M154 403L155 404L154 403M163 403L164 404L163 403M155 404L156 405L155 404M164 404L165 405L164 404z"/>
<path style="fill:#e43627; stroke:none;" d="M259 404L259 405L263 405L259 404z"/>
<path style="fill:#d1d2d3; stroke:none;" d="M165 405L166 406L165 405z"/>
<path style="fill:#e43627; stroke:none;" d="M252 406L252 407L258 406L252 406z"/>
<path style="fill:#d1d2d3; stroke:none;" d="M158 406L159 407L158 406M167 406L168 407L167 406M159 407L160 408L159 407M168 407L169 408L168 407z"/>
<path style="fill:#e43627; stroke:none;" d="M248 407L248 408L252 408L248 407z"/>
<path style="fill:#d1d2d3; stroke:none;" d="M160 408L161 409L160 408M169.667 408.333L170.333 408.667L169.667 408.333z"/>
<path style="fill:#e43627; stroke:none;" d="M244 408L244 409L248 409L244 408z"/>
<path style="fill:#d1d2d3; stroke:none;" d="M161 409L162 410L161 409M171 409L172 410L171 409z"/>
<path style="fill:#e43627; stroke:none;" d="M238 410L238 411L243 410L238 410z"/>
<path style="fill:#d1d2d3; stroke:none;" d="M162.667 410.333L163.333 410.667L162.667 410.333M172.667 410.333L173.333 410.667L172.667 410.333M164 411L165 412L164 411M174 411L175 412L174 411z"/>
<path style="fill:#e43627; stroke:none;" d="M234 411L234 412L237 412L234 411z"/>
<path style="fill:#d1d2d3; stroke:none;" d="M165 412L166 413L165 412M176 412L177 413L176 412z"/>
<path style="fill:#e43627; stroke:none;" d="M223 414L223 415L233 413L223 414z"/>
<path style="fill:#d1d2d3; stroke:none;" d="M167 413L168 414L167 413M177 413L178 414L177 413M168.667 414.333L169.333 414.667L168.667 414.333M179 414L180 415L179 414z"/>
<path style="fill:#e450ec; stroke:none;" d="M227.667 414.333L228.333 414.667L227.667 414.333z"/>
<path style="fill:#d1d2d3; stroke:none;" d="M170 415L171 416L170 415M181 415L182 416L181 415z"/>
<path style="fill:#e43627; stroke:none;" d="M219.667 415.333L220.333 415.667L219.667 415.333z"/>
<path style="fill:#d1d2d3; stroke:none;" d="M172 416L173 417L172 416M183 416L184 417L183 416z"/>
<path style="fill:#e43627; stroke:none;" d="M212 417L212 418L217 417L212 417z"/>
<path style="fill:#d1d2d3; stroke:none;" d="M173 417L174 418L173 417M175 418L176 419L175 418M186.667 418.333L187.333 418.667L186.667 418.333z"/>
<path style="fill:#e43627; stroke:none;" d="M208 418L208 419L211 419L208 418z"/>
<path style="fill:#d1d2d3; stroke:none;" d="M176.667 419.333L177.333 419.667L176.667 419.333M188 419L189 420L188 419z"/>
<path style="fill:#e43627; stroke:none;" d="M195 421L195 422L206 420L195 421z"/>
<path style="fill:#d1d2d3; stroke:none;" d="M179 420L180 421L179 420M190 420L191 421L190 420M180 421L181 422L180 421M191.667 421.333L192.333 421.667L191.667 421.333z"/>
<path style="fill:#e450ec; stroke:none;" d="M201.667 421.333L202.333 421.667L201.667 421.333z"/>
<path style="fill:#d1d2d3; stroke:none;" d="M182 422L183 423L182 422M194 422L195 423L194 422M195.667 423.333L196.333 423.667L195.667 423.333M186 424L187 425L186 424M198 424L199 425L198 424z"/>
<path style="fill:#e43627; stroke:none;" d="M182 425L182 426L186 426L182 425z"/>
<path style="fill:#d1d2d3; stroke:none;" d="M187.667 425.333L188.333 425.667L187.667 425.333M200 425L201 426L200 425z"/>
<path style="fill:#e43627; stroke:none;" d="M178 426L178 427L181 427L178 426z"/>
<path style="fill:#d1d2d3; stroke:none;" d="M189 426L190 427L189 426M202 426L203 427L202 426z"/>
<path style="fill:#e43627; stroke:none;" d="M172 428L172 429L177 428L172 428z"/>
<path style="fill:#d1d2d3; stroke:none;" d="M191 427L192 428L191 427M204 427L205 428L204 427M193 428L194 429L193 428M206 428L207 429L206 428z"/>
<path style="fill:#e43627; stroke:none;" d="M167 429L167 430L171 430L167 429z"/>
<path style="fill:#d1d2d3; stroke:none;" d="M195.667 429.333L196.333 429.667L195.667 429.333M208 429L209 430L208 429z"/>
<path style="fill:#e43627; stroke:none;" d="M160 431L160 432L166 431L160 431z"/>
<path style="fill:#d1d2d3; stroke:none;" d="M197 430L198 431L197 430M210 430L211 431L210 430z"/>
<path style="fill:#e43627; stroke:none;" d="M157 433L160 433L159 431L157 433z"/>
<path style="fill:#d1d2d3; stroke:none;" d="M199 431L200 432L199 431M212 431L213 432L212 431M201 432L202 433L201 432M215 432L216 433L215 432z"/>
<path style="fill:#e43627; stroke:none;" d="M152 433L152 434L155 434L152 433z"/>
<path style="fill:#d1d2d3; stroke:none;" d="M203.667 433.333L204.333 433.667L203.667 433.333M216.667 433.333L217.333 433.667L216.667 433.333z"/>
<path style="fill:#e43627; stroke:none;" d="M146 435L146 436L151 435L146 435z"/>
<path style="fill:#d1d2d3; stroke:none;" d="M208 435L209 436L208 435M221 435L222 436L221 435z"/>
<path style="fill:#e43627; stroke:none;" d="M141 436L141 437L145 437L141 436z"/>
<path style="fill:#d1d2d3; stroke:none;" d="M209.667 436.333L210.333 436.667L209.667 436.333M222 436L222 437L225 437L222 436z"/>
<path style="fill:#e43627; stroke:none;" d="M130 439L130 440L140 438L130 439z"/>
<path style="fill:#d1d2d3; stroke:none;" d="M211 437L212 438L211 437M225 437L226 438L225 437M214 438L215 439L214 438M227 438L228 439L227 438z"/>
<path style="fill:#e450ec; stroke:none;" d="M135 439L136 440L135 439z"/>
<path style="fill:#d1d2d3; stroke:none;" d="M216.667 439.333L217.333 439.667L216.667 439.333M229.667 439.333L230.333 439.667L229.667 439.333z"/>
<path style="fill:#e43627; stroke:none;" d="M126 440L126 441L130 441L126 440z"/>
<path style="fill:#d1d2d3; stroke:none;" d="M218 440L219 441L218 440M231.667 440.333L232.333 440.667L231.667 440.333z"/>
<path style="fill:#e43627; stroke:none;" d="M119 442L119 443L125 442L119 442z"/>
<path style="fill:#d1d2d3; stroke:none;" d="M233 441L234 442L233 441M222.667 442.333L223.333 442.667L222.667 442.333M235 442L236 443L235 442z"/>
<path style="fill:#e43627; stroke:none;" d="M116 443L116 444L119 444L116 443z"/>
<path style="fill:#d1d2d3; stroke:none;" d="M224.667 443.333L225.333 443.667L224.667 443.333M237.667 443.333L238.333 443.667L237.667 443.333z"/>
<path style="fill:#e43627; stroke:none;" d="M105 446L105 447L115 445L105 446z"/>
<path style="fill:#d1d2d3; stroke:none;" d="M226.667 444.333L227.333 444.667L226.667 444.333M239.667 444.333L240.333 444.667L239.667 444.333M229 445L230 446L229 445M241 445L242 446L241 445z"/>
<path style="fill:#e450ec; stroke:none;" d="M108 446L108 447L111 447L108 446z"/>
<path style="fill:#d1d2d3; stroke:none;" d="M231 446L232 447L231 446M243 446L244 447L243 446z"/>
<path style="fill:#e43627; stroke:none;" d="M101 447L101 448L104 448L101 447z"/>
<path style="fill:#d1d2d3; stroke:none;" d="M232.667 447.333L233.333 447.667L232.667 447.333M245 447L246 448L245 447z"/>
<path style="fill:#e43627; stroke:none;" d="M94 449L94 450L100 449L94 449z"/>
<path style="fill:#d1d2d3; stroke:none;" d="M235 448L236 449L235 448M247 448L248 449L247 448M237 449L238 450L237 449z"/>
<path style="fill:#e43627; stroke:none;" d="M90 450L90 451L93 451L90 450z"/>
<path style="fill:#d1d2d3; stroke:none;" d="M238.667 450.333L239.333 450.667L238.667 450.333M250 450L251 451L250 450z"/>
<path style="fill:#e43627; stroke:none;" d="M86.6667 451.333L87.3333 451.667L86.6667 451.333z"/>
<path style="fill:#d1d2d3; stroke:none;" d="M240.667 451.333L241.333 451.667L240.667 451.333M251.667 451.333L252.333 451.667L251.667 451.333z"/>
<path style="fill:#e43627; stroke:none;" d="M79 453L79 454L84 453L79 453z"/>
<path style="fill:#d1d2d3; stroke:none;" d="M253 452L254 453L253 452M244 453L245 454L244 453M255 453L256 454L255 453z"/>
<path style="fill:#e43627; stroke:none;" d="M75 454L75 455L78 455L75 454z"/>
<path style="fill:#d1d2d3; stroke:none;" d="M246 454L247 455L246 454M256.667 454.333L257.333 454.667L256.667 454.333z"/>
<path style="fill:#e43627; stroke:none;" d="M64 457L64 458L73 456L64 457z"/>
<path style="fill:#d1d2d3; stroke:none;" d="M247 455L248 456L247 455M258 455L259 456L258 455M249 456L250 457L249 456M259 456L260 457L259 456z"/>
<path style="fill:#e450ec; stroke:none;" d="M68.6667 457.333L69.3333 457.667L68.6667 457.333z"/>
<path style="fill:#d1d2d3; stroke:none;" d="M250.667 457.333L251.333 457.667L250.667 457.333M261 457L262 458L261 457z"/>
<path style="fill:#e43627; stroke:none;" d="M60 458L60 459L63 459L60 458z"/>
<path style="fill:#d1d2d3; stroke:none;" d="M252 458L253 459L252 458M262 458L263 459L262 458z"/>
<path style="fill:#e43627; stroke:none;" d="M53 460L53 461L58 460L53 460z"/>
<path style="fill:#d1d2d3; stroke:none;" d="M264 459L265 460L264 459M255 460L256 461L255 460M265 460L266 461L265 460z"/>
<path style="fill:#e43627; stroke:none;" d="M49 461L49 462L52 462L49 461z"/>
<path style="fill:#d1d2d3; stroke:none;" d="M257 461L258 462L257 461M267 461L268 462L267 461z"/>
<path style="fill:#e43627; stroke:none;" d="M38 464L38 465L48 463L38 464z"/>
<path style="fill:#d1d2d3; stroke:none;" d="M258 462L259 463L258 462M260 463L261 464L260 463M269 463L270 464L269 463z"/>
<path style="fill:#e450ec; stroke:none;" d="M42.6667 464.333L43.3333 464.667L42.6667 464.333z"/>
<path style="fill:#d1d2d3; stroke:none;" d="M261 464L262 465L261 464z"/>
<path style="fill:#e43627; stroke:none;" d="M34 465L34 466L37 466L34 465z"/>
<path style="fill:#d1d2d3; stroke:none;" d="M263 465L264 466L263 465M268 465L269 466L268 465z"/>
<path style="fill:#e43627; stroke:none;" d="M27 467L27 468L33 467L27 467z"/>
<path style="fill:#d1d2d3; stroke:none;" d="M264 466L265 467L264 466M266 467L267 468L266 467z"/>
<path style="fill:#e43627; stroke:none;" d="M24 468L24 469L27 469L24 468M19 469L19 470L22 470L19 469M12 471L12 472L18 471L12 471M8 472L8 473L12 473L8 472M0 475L0 476L7 474L0 475z"/>
<path style="fill:#e450ec; stroke:none;" d="M2 475L3 476L2 475z"/>
</svg>
