<?xml version="1.0" encoding="UTF-8"?>
<svg width="256px" height="256px" viewBox="0 0 256 256" version="1.1" xmlns="http://www.w3.org/2000/svg" xmlns:xlink="http://www.w3.org/1999/xlink">
    <title>Group 16</title>
    <defs>
        <polygon id="path-1" points="0 0 256 0 256 256 0 256"></polygon>
        <linearGradient x1="50%" y1="0%" x2="50%" y2="100%" id="linearGradient-3">
            <stop stop-color="#0C71CA" offset="0%"></stop>
            <stop stop-color="#1D9ED8" offset="100%"></stop>
        </linearGradient>
    </defs>
    <g id="Page-2" stroke="none" stroke-width="1" fill="none" fill-rule="evenodd">
        <g id="Group-16">
            <mask id="mask-2" fill="white">
                <use xlink:href="#path-1"></use>
            </mask>
            <g id="Path"></g>
            <g id="usdt" mask="url(#mask-2)" fill-rule="nonzero">
                <g transform="translate(30.000000, 30.000000)">
                    <path d="M197,98.5000786 C197,152.901357 152.901865,197 98.5004517,197 C44.1004608,197 0,152.901357 0,98.5000786 C0,44.0994191 44.1004608,0 98.5004517,0 C152.901865,0 197,44.0994191 197,98.5000786 Z" id="Path" fill="#1BA27A"></path>
                    <polygon id="Path" fill="#FFFFFF" points="145.734363 48.8316602 52.3305019 48.8316602 52.3305019 71.4366237 87.7578648 71.4366237 87.7578648 104.661004 110.30731 104.661004 110.30731 71.4366237 145.734363 71.4366237"></polygon>
                    <path d="M99.3371434,109.017195 C70.0824387,109.017195 46.3641029,104.377287 46.3641029,98.6519447 C46.3641029,92.9278421 70.0812017,88.2866946 99.3371434,88.2866946 C128.592467,88.2866946 152.309689,92.9278421 152.309689,98.6519447 C152.309689,104.377287 128.592467,109.017195 99.3371434,109.017195 Z M158.816988,100.38021 C158.816988,92.9978902 132.187222,87.0146718 99.3371434,87.0146718 C66.4883016,87.0146718 39.8563707,92.9978902 39.8563707,100.38021 C39.8563707,106.88104 60.5061138,112.297055 87.8694278,113.49717 L87.8694278,161.098842 L110.377472,161.098842 L110.377472,113.515767 C137.951696,112.352845 158.816988,106.914514 158.816988,100.38021 Z" id="Shape" fill="#FFFFFF"></path>
                </g>
            </g>
            <g id="exchange-cny-svgrepo-com-(1)" mask="url(#mask-2)" fill="url(#linearGradient-3)" fill-rule="nonzero">
                <g transform="translate(0.000000, 6.000000)" id="Shape">
                    <path d="M218.258999,160.506236 C234.540244,121.788253 224.355317,76.9910283 192.938337,49.1362289 C161.521357,21.2814294 115.861012,16.5653386 79.4225345,37.4115949 L67.2827573,16.1364316 C105.07748,-5.48330201 151.504308,-5.37135623 189.194512,16.4303889 C244.141689,48.1777829 265.190497,116.15542 239.577035,172.840196 L256,182.320321 L205.030068,209.437887 L203.010851,151.699764 L218.258999,160.506236 Z M37.7532387,84.4937641 C21.4719934,123.211747 31.6569203,168.008972 63.0739003,195.863771 C94.4908802,223.718571 140.151226,228.434661 176.589703,207.588405 L188.72948,228.863568 C150.934758,250.483302 104.507929,250.371356 66.8177255,228.569611 C11.8705483,196.822217 -9.178259,128.84458 16.4352024,72.1598035 L0,62.6919272 L50.9699316,35.5743615 L52.9891486,93.3124846 L37.741001,84.5060123 L37.7532387,84.4937641 Z"></path>
                </g>
            </g>
        </g>
    </g>
</svg>