<?xml version="1.0" standalone="no"?>
<!DOCTYPE svg PUBLIC "-//W3C//DTD SVG 1.0//EN" "http://www.w3.org/TR/2001/REC-SVG-20010904/DTD/svg10.dtd">
<svg xmlns="http://www.w3.org/2000/svg" xmlns:xlink="http://www.w3.org/1999/xlink" id="body_1" width="256" height="256">

<g transform="matrix(3.7795277 0 0 3.7795277 0 0)">
	<g transform="matrix(1 0 0 1 -78.0143 -124.0381)">
		<g transform="matrix(1 0 0 1 0.529167 -0.79375035)">
            <path d="M124.42841 185.97827C 123.752106 185.6711 123.1302 185.11617 122.76096 184.49036L122.76096 184.49036L122.172104 183.49231L121.282524 184.35452C 119.994225 185.6032 118.3637 185.7547 116.86775 184.76471L116.86775 184.76471L115.77107 184.03896L113.62758 184.515C 110.48105 185.2138 105.33986 185.16068 102.22367 184.39716C 97.65996 183.27896 93.039696 180.43501 90.656 177.27681C 87.02911 172.4715 87.77325 166.09695 92.38007 162.50781L92.38007 162.50781L93.57767 161.57478L92.234116 159.80591C 90.60007 157.65457 89.12679 154.56897 89.12679 153.29797C 89.12679 152.58614 89.288506 152.25473 89.79909 151.92018C 90.939575 151.1729 91.52713 151.7013 93.07144 154.86308C 94.245224 157.26625 94.76826 158.00415 96.552284 159.77385C 97.70701 160.91931 98.65179 162.02286 98.65179 162.2262C 98.65179 162.83424 97.59336 163.99017 97.03658 163.99017C 96.21093 163.99017 94.855 164.64911 93.83157 165.54768C 91.619484 167.48993 90.96972 171.22343 92.37065 173.94206C 93.81964 176.75394 98.44145 180.01215 102.488235 181.0746C 106.54465 182.13959 115.32053 181.57536 115.32053 180.2496C 115.32053 179.76543 115.199715 179.76865 113.15908 180.3073C 110.84776 180.91745 105.47242 180.92021 103.14969 180.3123C 98.87185 179.19292 94.46954 176.13045 93.188354 173.38269C 91.30504 169.34354 93.9963 164.79298 98.27302 164.78522C 99.76457 164.78221 101.73599 165.56366 103.94109 167.03114C 106.288704 168.59346 107.72108 169.1261 108.89446 168.87314C 111.77433 168.25224 113.141754 166.47523 111.99716 164.84111C 111.30974 163.8597 110.25746 163.50491 106.75218 163.07286C 101.834465 162.46669 99.53122 161.45128 96.81391 158.69145C 94.114044 155.94934 92.56635 152.19199 92.56635 148.3796C 92.56635 141.48761 97.31546 135.77875 104.35089 134.21352C 105.88819 133.8715 107.21279 133.79625 110.10653 133.88655C 113.48012 133.99182 114.08316 134.08568 115.99118 134.80244C 120.67957 136.56369 123.83388 139.35002 124.60466 142.41107C 125.07945 144.29666 124.56246 146.27235 123.21033 147.73921C 120.72912 150.43102 117.41843 150.32253 113.43085 147.41875C 111.737045 146.18532 110.54171 145.73375 108.97052 145.73375C 106.57448 145.73375 105.00177 146.81245 105.00177 148.45586C 105.00177 150.3358 105.96459 150.86728 110.34948 151.40778C 115.18922 152.00433 117.53012 152.97769 120.16223 155.48793C 122.55101 157.76613 123.98353 160.44968 124.68988 163.96962C 124.84824 164.75877 125.14528 165.4595 125.34997 165.52682C 125.65401 165.62683 125.69163 165.35732 125.55548 164.05467C 125.206924 160.71985 123.34376 157.21323 120.48268 154.50723C 119.11265 153.21147 118.7601 152.71677 118.7601 152.09012C 118.7601 151.2067 119.41074 150.66078 120.811905 150.36862C 121.28555 150.26982 122.264946 149.78192 122.988335 149.28432C 124.570915 148.1957 125.15945 148.15477 125.88928 149.08261C 126.72355 150.1432 126.27224 151.08928 124.31987 152.37251L124.31987 152.37251L123.67924 152.79358L124.96405 154.4892C 126.380844 156.359 128.03088 159.69128 128.55495 161.74104C 128.74097 162.46866 128.92038 164.31412 128.95364 165.84209L128.95364 165.84209L129.01414 168.62022L132.08101 171.20732C 134.58112 173.31633 135.1973 173.97795 135.4153 174.78754C 136.10426 177.34613 134.29622 179.33583 131.28229 179.33583C 130.36264 179.33583 130.11385 179.42253 130.2223 179.70517C 130.88599 181.4347 131.00076 182.29277 130.70187 183.29039C 130.32863 184.5362 129.53426 185.21284 127.59177 185.93962C 125.84585 186.59286 125.783646 186.59361 124.4284 185.97812L124.4284 185.97812L124.42841 185.97827zM127.49139 182.21057C 127.49139 182.0738 127.075584 180.88527 126.5674 179.5694C 125.394035 176.53117 125.51652 176.16203 127.69913 176.15872C 129.72995 176.15572 131.9893 175.87051 131.9893 175.61731C 131.9893 175.41302 119.46926 164.98653 119.04671 164.83891C 118.92496 164.79642 118.7654 164.91782 118.69215 165.10869C 118.485756 165.64651 118.81313 182.00981 119.02859 181.92479C 119.13344 181.88339 119.96676 180.98636 120.88042 179.93134C 123.16694 177.29103 123.52668 177.3486 124.73066 180.5475C 125.63124 182.9403 125.74675 183.06744 126.71391 182.73029C 127.14153 182.58122 127.4914 182.34735 127.4914 182.21057zM111.752426 177.19626C 114.19289 176.74512 115.32056 176.20953 115.32056 175.50157L115.32056 175.50157L115.32056 174.8996L113.7876 175.51878C 111.36449 176.49751 108.855415 176.81607 106.421165 176.45403C 104.12376 176.11232 103.23453 175.665 103.000694 174.73332C 102.859665 174.17143 102.76763 174.13466 102.11711 174.38019C 101.147545 174.74615 100.24618 174.48567 98.89562 173.44919C 97.16242 172.11906 96.64122 171.29535 97.01445 170.4762C 97.47104 169.47409 98.47524 169.0961 99.236275 169.63988C 99.56966 169.87808 100.49726 170.52281 101.29764 171.07259C 102.37188 171.8105 102.774765 172.26108 102.83657 172.79367C 102.93377 173.63133 103.06482 173.674 103.719864 173.0812C 104.14394 172.69742 104.3828 172.68617 105.7863 172.98401C 109.00517 173.6671 112.43742 172.99461 114.46066 171.28452C 115.16973 170.68518 115.320564 170.36966 115.320564 169.48563L115.320564 169.48563L115.320564 168.41356L114.272194 169.60455C 113.026764 171.01944 111.098015 171.92885 108.9247 172.12592C 106.87565 172.31172 105.34472 171.84258 102.99536 170.3089C 100.195404 168.48106 99.61147 168.22346 98.26808 168.22346C 95.285805 168.22346 94.92317 171.56494 97.65196 173.90068C 99.096054 175.13676 101.991486 176.61499 103.84955 177.06477C 105.736465 177.52156 109.6412 177.58649 111.75245 177.1962zM115.74585 163.0451C 115.88189 162.50307 115.73485 162.17528 115.02329 161.43399C 113.55464 159.90405 111.98023 159.26309 108.91277 158.94632C 104.1319 158.45262 101.969864 157.5475 99.70669 155.09225C 96.47593 151.5873 96.18119 146.20381 99.01653 142.48643C 100.89341 140.02568 103.97378 138.37259 107.1338 138.13025C 109.04313 137.98383 109.76809 138.35335 109.76025 139.46898C 109.75324 140.49535 108.82351 141.23602 107.54266 141.23602C 106.55669 141.23602 104.153404 142.1998 102.93066 143.08554C 100.831055 144.60649 99.794655 147.56644 100.490944 150.05336C 100.98318 151.81142 102.531494 153.67365 104.21561 154.53317C 105.37185 155.12328 106.34642 155.34747 109.05693 155.64687C 111.73884 155.9431 112.79918 156.18486 114.11272 156.79953C 115.69989 157.54225 117.541245 159.08241 118.644264 160.58987C 119.243004 161.40813 120.34763 161.85112 120.34763 161.27295C 120.34763 160.59663 118.258766 157.97023 116.9663 157.02148C 115.165764 155.69977 113.303185 155.04001 110.48735 154.72653C 106.0409 154.23154 105.0972 153.93907 103.54292 152.57439C 101.82305 151.06432 101.286606 149.19867 101.93296 146.97527C 103.03905 143.17047 108.342354 141.2369 112.45468 143.13907C 113.27954 143.52061 114.6884 144.33122 115.58548 144.94041C 117.60144 146.30942 118.59971 146.62166 119.74856 146.24251C 120.877686 145.86986 121.40596 145.07289 121.40596 143.74208C 121.40596 141.9743 119.69695 140.13943 116.58003 138.56073C 114.450325 137.48204 112.18152 137.01112 109.092285 137.00658C 106.17718 137.00258 104.05934 137.43604 101.90825 138.4779C 95.041084 141.804 93.683716 151.23425 99.30667 156.5522C 101.463234 158.59178 103.38377 159.37257 107.42568 159.85294C 111.25724 160.30829 113.07959 160.96388 114.264145 162.31299C 114.699646 162.809 115.05596 163.32974 115.05596 163.4702C 115.05596 164.01527 115.584 163.6899 115.74584 163.04509zM117.94326 144.73851C 117.56674 144.48563 116.67959 143.89136 115.97181 143.41791C 115.26403 142.94447 114.02572 142.31047 113.22002 142.00902C 112.414314 141.70757 111.60483 141.33621 111.42116 141.18378C 110.958755 140.8 111.001884 139.25494 111.48626 138.85298C 112.12872 138.3198 113.94623 138.68498 116.20013 139.80016C 118.685905 141.03004 120.347664 142.46986 120.347664 143.39375C 120.347664 144.77458 119.065056 145.49194 117.94328 144.73851zM106.85389 167.29662C 104.43342 166.80682 103.717316 166.48068 103.3651 165.70764C 102.93207 164.75725 103.806305 163.57654 104.90242 163.63138C 106.03112 163.68788 109.26013 164.28065 110.098404 164.58528C 111.36956 165.04723 111.39813 166.81802 110.14371 167.38962C 109.343414 167.75424 109.07846 167.74677 106.85395 167.29662zM111.21951 150.73546C 110.78295 150.60089 109.67349 150.38083 108.75404 150.24643C 107.834595 150.11201 106.911865 149.8606 106.70352 149.68768C 106.18663 149.2587 106.224 147.73439 106.76242 147.28769C 107.62312 146.57355 112.38693 147.26869 113.4932 148.26982C 114.18715 148.89784 114.14433 150.09914 113.4096 150.61372C 112.7547 151.07243 112.38029 151.09325 111.21951 150.73546zM88.69898 149.03111C 88.12011 148.14766 88.34946 145.48856 89.25054 142.63614C 90.78315 137.7846 94.07705 134.05836 98.85118 131.77538C 100.667076 130.90701 100.8048 130.8802 101.410805 131.27727C 102.87376 132.23584 102.49731 133.4802 100.428246 134.52509C 95.207756 137.1615 92.15336 141.46109 91.61978 146.92456C 91.51809 147.96584 91.262344 148.97934 91.0356 149.23965C 90.42609 149.9394 89.223816 149.8321 88.69898 149.0311zM125.8123 147.631C 125.44317 147.22311 125.40082 146.77043 125.54361 144.75882C 125.6991 142.56831 125.65788 142.25018 125.04514 140.91177C 124.177086 139.01569 122.833565 137.55338 120.588005 136.06053C 116.82575 133.55939 113.53723 132.69708 108.21735 132.8167C 104.78402 132.89389 104.67203 132.8788 104.18245 132.27423C 103.54968 131.4928 103.55004 131.13509 104.18445 130.35126C 104.665016 129.75746 104.87364 129.72212 108.41153 129.63525C 114.24206 129.49211 118.13981 130.52853 122.3428 133.33966C 127.733345 136.94508 130.01068 141.88893 128.51007 146.72813C 128.08652 148.09402 126.66263 148.57056 125.81232 147.63098z" stroke="none" fill="#A8CDE7" fill-rule="nonzero" />
            <path d="M124.42235 185.85129C 123.9713 185.64732 123.32555 185.02069 122.987335 184.45876C 122.64912 183.89682 122.336685 183.39058 122.293045 183.3338C 122.24944 183.27701 121.733955 183.66397 121.147606 184.1937C 119.79123 185.4191 118.3508 185.51439 116.827736 184.47943L116.827736 184.47943L115.83083 183.80202L113.78976 184.27075C 111.290115 184.84479 105.363754 184.91267 103.01742 184.39413C 97.67192 183.21277 92.21489 179.6941 90.080894 176.05272C 87.245384 171.2143 88.665184 165.1503 93.343834 162.11662L93.343834 162.11662L93.989 161.6983L92.75652 160.0966C 91.167435 158.03145 89.61303 154.92554 89.45154 153.49277C 89.33851 152.48994 89.39666 152.33475 89.98604 152.06621C 90.986336 151.61044 91.61222 152.1045 92.25581 153.85783C 93.0521 156.0272 94.63966 158.32854 96.65438 160.23404C 97.60744 161.13544 98.387215 161.99995 98.387215 162.15518C 98.387215 162.90994 97.74051 163.4576 96.38337 163.85213C 93.37721 164.72604 91.416245 167.44156 91.411545 170.73701C 91.40824 173.04436 92.18792 174.70494 94.208275 176.69368C 98.50084 180.91907 105.45033 182.82079 112.14555 181.60216C 114.826775 181.11415 115.58514 180.79095 115.58514 180.13626C 115.58514 179.48672 115.43821 179.48068 113.37437 180.04526C 111.05172 180.68066 105.2121 180.67192 102.88514 180.02956C 98.905685 178.93103 94.77108 176.03839 93.44779 173.427C 92.20676 170.97794 92.92775 167.60037 95.01421 166.08894C 97.17843 164.5212 100.04633 164.80505 103.26388 166.90549C 106.181 168.80981 106.756096 169.05498 108.306 169.05498C 110.03567 169.05498 111.71105 168.26115 112.27239 167.17564C 112.7576 166.23735 112.77339 165.81906 112.357994 164.90736C 111.85268 163.79831 110.41367 163.25969 106.74922 162.808C 101.77591 162.19499 99.44238 161.12112 96.74087 158.20229C 90.20379 151.13928 92.10706 140.12354 100.58658 135.94412C 103.32087 134.59644 105.67454 134.1026 109.391235 134.09679C 112.700714 134.09178 115.41598 134.65521 117.74257 135.83026C 122.839516 138.4045 125.15942 141.6905 124.32766 145.15765C 123.746 147.58228 121.52098 149.42105 119.157 149.43073C 117.4928 149.43773 116.324394 149.00183 114.089584 147.54097C 111.40209 145.78421 110.521736 145.43146 108.82492 145.43146C 107.31092 145.43146 105.93307 145.98561 105.20611 146.88689C 104.525536 147.73064 104.593216 149.4792 105.332504 150.15257C 106.351776 151.08093 106.95908 151.26477 110.41318 151.69054C 114.175186 152.15425 115.874535 152.69823 118.144554 154.16542C 121.17306 156.12283 123.66451 159.86421 124.334625 163.46092C 124.792114 165.91644 125.90775 167.09503 125.899956 165.11458C 125.886955 161.8039 124.103676 157.97935 121.12779 154.87962C 119.93952 153.64189 119.02469 152.46013 119.02469 152.16284C 119.02469 151.47353 119.73928 150.86478 120.81753 150.63556C 121.294266 150.53421 122.2885 150.04471 123.02694 149.54778C 124.61201 148.4811 125.21603 148.42075 125.7746 149.27324C 126.32103 150.1072 125.94997 150.91426 124.56573 151.90257C 123.992004 152.3122 123.522606 152.77017 123.522606 152.92032C 123.522606 153.07045 123.98774 153.7217 124.55623 154.36755C 125.773026 155.74991 127.522415 159.0226 128.14417 161.0797C 128.38606 161.88007 128.65387 163.9458 128.73927 165.67024L128.73927 165.67024L128.89458 168.80559L131.888 171.29764C 134.3397 173.3387 134.93806 173.97873 135.19438 174.83424C 135.87437 177.10382 134.19083 179.07138 131.56888 179.07138C 130.79861 179.07138 130.10263 179.1778 130.02226 179.30786C 129.94186 179.43793 130.05396 179.96986 130.27122 180.48997C 131.17383 182.65024 130.43907 184.54936 128.34877 185.45891C 126.69434 186.17879 125.42678 186.30544 124.42232 185.85124L124.42232 185.85124L124.42235 185.85129zM127.572044 182.53618C 127.74049 182.36772 127.47845 181.34744 126.820465 179.61005C 126.20223 177.97757 125.90542 176.84871 126.055504 176.70073C 126.190384 176.56773 127.640205 176.37495 129.27731 176.27231C 131.41817 176.13809 132.25388 175.99083 132.25388 175.74785C 132.25388 175.33986 119.325554 164.51933 118.838104 164.51933C 118.564674 164.51933 118.495544 166.27829 118.495544 173.23495C 118.495544 178.76912 118.59225 182.01038 118.760544 182.11438C 119.02803 182.2797 119.86867 181.47374 121.60287 179.38928C 123.01585 177.69093 123.44938 177.88913 124.578156 180.74939L124.578156 180.74939L125.50139 183.08884L126.4074 182.9418C 126.90571 182.8609 127.4298 182.6784 127.57205 182.53615zM113.600746 176.92094C 115.449455 176.29445 115.8401 175.8842 115.48042 174.9469C 115.353806 174.61691 115.16941 174.63986 114.27306 175.09715C 111.72982 176.3946 107.628204 176.73108 104.6581 175.88586C 103.33244 175.50862 102.88714 174.61679 103.53257 173.63174C 103.91687 173.04523 104.12496 172.95793 104.826866 173.08873C 105.28687 173.17442 106.56215 173.32085 107.66079 173.41406C 110.5306 173.65755 113.1778 172.83658 114.98982 171.14116C 115.47537 170.68684 115.58351 170.30556 115.57633 169.0731L115.57633 169.0731L115.56733 167.56206L115.05832 168.22351C 114.77836 168.58733 114.29333 169.21684 113.98047 169.62247C 112.61061 171.39848 108.79329 172.39134 106.164536 171.65535C 105.488846 171.46617 104.062614 170.74123 102.99513 170.04436C 100.19171 168.21426 99.61145 167.95892 98.25584 167.95892C 97.326935 167.95892 96.89094 168.10803 96.40815 168.59082C 95.5242 169.47478 95.3152 170.84612 95.8823 172.0412C 96.84929 174.07896 100.73831 176.61668 104.05377 177.37337C 106.51911 177.93602 111.26944 177.71089 113.600555 176.92093zM99.29468 173.43582C 96.98728 171.84572 96.4956 170.44394 98.00417 169.75658C 98.501724 169.52988 98.760185 169.56229 99.238 169.9113C 99.570435 170.15413 100.4675 170.77034 101.231476 171.28067C 102.3494 172.02742 102.620544 172.35156 102.620544 172.94124C 102.620544 174.54436 101.20806 174.7544 99.29468 173.43582zM115.856255 163.5761C 116.25424 162.5293 116.18426 162.29134 115.17169 161.24872C 113.58197 159.61183 112.083 159.03082 108.32009 158.59297C 105.690155 158.28696 104.59985 158.03114 103.26685 157.40735C 101.15665 156.41988 99.262955 154.56308 98.23894 152.47743C 97.544044 151.06212 97.46117 150.62547 97.46117 148.37978C 97.46117 146.15854 97.54789 145.68964 98.20686 144.34767C 99.88083 140.93875 104.02015 138.3398 107.793144 138.32874C 108.99338 138.32474 109.4997 138.68362 109.4997 139.53673C 109.4997 140.3631 109.06063 140.62582 106.94104 141.06776C 104.5251 141.5715 103.25329 142.23262 101.92226 143.67662C 99.18305 146.6483 99.37779 150.69347 102.399574 153.59172C 103.806015 154.94067 105.44617 155.51009 109.08753 155.91362C 113.66155 156.42052 115.98738 157.5515 118.069 160.2811C 118.72462 161.1408 119.32161 161.63208 119.85229 161.74864C 120.291046 161.84505 120.71759 161.85631 120.80015 161.77374C 121.08889 161.485 119.1458 158.63031 117.88492 157.49081C 115.66197 155.48189 113.942696 154.86667 108.73122 154.21532C 104.838356 153.72878 102.70271 152.29253 102.138565 149.7817C 101.16164 145.43372 105.3365 141.92465 110.39504 142.84195C 112.20252 143.16971 113.32006 143.68828 115.48092 145.20197C 118.02991 146.98755 119.78608 147.13911 121.01424 145.67952C 122.56048 143.84192 121.493744 141.33803 118.286674 139.27719C 114.87875 137.0873 111.232346 136.27034 107.00813 136.75034C 101.3794 137.38992 97.36815 140.3956 95.9611 145.028C 94.25527 150.64407 97.32969 157.03796 102.76635 159.1809C 103.48907 159.46576 105.61754 159.88637 107.49628 160.11559C 111.73822 160.63312 113.441635 161.35753 114.49267 163.09094C 114.87522 163.72186 115.28046 164.24182 115.393196 164.24643C 115.505936 164.25143 115.714294 163.94939 115.85622 163.57611zM117.68022 144.2126C 117.209465 143.81242 115.62275 142.88968 114.15419 142.16208C 112.05276 141.12091 111.46566 140.70927 111.39762 140.2293C 111.1624 138.57 112.78782 138.4861 115.96227 139.99364C 119.45304 141.65138 120.917885 143.53171 119.495 144.52832C 118.72258 145.06935 118.67918 145.06178 117.68022 144.2126zM107.25823 167.14761C 105.296844 166.8197 103.72647 166.14447 103.537025 165.54758C 103.44073 165.24408 103.55702 164.73782 103.81274 164.34753C 104.15733 163.82161 104.410645 163.70276 104.95916 163.80963C 105.34641 163.88513 106.49669 164.08604 107.51534 164.25624C 108.53398 164.42644 109.665085 164.70782 110.028885 164.88159C 110.93526 165.31448 111.05267 166.44489 110.2497 167.00732C 109.59577 167.46535 109.25444 167.48135 107.25824 167.14761zM110.69033 150.34561C 109.96272 150.14314 109.00695 149.9752 108.56639 149.9724C 107.01741 149.9624 106.0057 148.54004 106.90679 147.63896C 107.56131 146.98444 112.35252 147.56346 113.38715 148.42212C 114.17494 149.07593 113.485756 150.79218 112.457375 150.7374C 112.213104 150.7244 111.41794 150.54808 110.69034 150.34563zM88.98398 148.9929C 88.05342 148.06235 89.08024 143.07698 90.93304 139.5299C 93.169365 135.24858 100.15834 130.15175 101.528656 131.80287C 102.24409 132.66492 101.77705 133.37076 99.75564 134.48244C 94.82567 137.19371 91.86229 141.48892 91.354034 146.65997C 91.253914 147.67862 91.06483 148.72043 90.93384 148.97508C 90.631325 149.56322 89.56406 149.57297 88.983986 148.99289zM125.93212 147.48775C 125.72749 147.24118 125.68615 146.40715 125.80312 144.88536C 126.061066 141.5296 125.585655 140.3261 122.98448 137.75008C 121.33133 136.11292 120.45408 135.48909 118.45796 134.53125C 115.13047 132.93452 113.02033 132.50476 108.50821 132.50476C 104.64711 132.50476 104.208046 132.38109 104.208046 131.29361C 104.208046 130.25674 104.86543 130.02496 108.136986 129.90833C 113.420425 129.71996 117.66411 130.75192 121.589554 133.17969C 125.47077 135.5801 127.82146 138.59395 128.53827 142.08879C 128.96275 144.15837 128.50217 147.11566 127.673256 147.64272C 127.170235 147.96257 126.25886 147.88145 125.93211 147.48775z" stroke="none" fill="#94B0D5" fill-rule="nonzero" />
            <path d="M124.25169 185.53545C 123.85231 185.31877 123.28435 184.66869 122.98954 184.09084C 122.69474 183.51297 122.38109 183.04019 122.29255 183.04019C 122.20395 183.04019 121.670296 183.45691 121.10654 183.96623C 119.78296 185.162 118.106224 185.26357 116.751175 184.23001C 115.88555 183.56978 115.87784 183.569 114.21266 183.97868C 111.50892 184.64389 106.354294 184.7718 103.546585 184.24335C 97.51743 183.10858 92.26416 179.68251 89.92054 175.35672C 89.02192 173.69807 88.9945 173.56126 88.9945 170.73705C 88.9945 168.08646 89.0605 167.69223 89.73381 166.32112C 90.41527 164.93341 93.02963 162.13808 93.646034 162.13808C 94.176994 162.13808 93.83555 161.26103 92.793205 159.94748C 91.56317 158.39742 89.39138 154.14108 89.39138 153.2805C 89.39138 152.55911 89.87237 152.08391 90.60252 152.08391C 91.31987 152.08391 91.53368 152.36093 92.29144 154.27208C 93.10229 156.31712 95.15368 159.1883 96.78949 160.56763C 98.62792 162.11781 98.58614 163.14638 96.66594 163.60956C 92.51884 164.6099 90.233345 169.10124 91.68297 173.40189C 92.330475 175.32286 95.45841 178.35214 98.31135 179.8212C 102.07882 181.76117 106.38643 182.51451 110.69034 181.98611C 113.62794 181.62546 114.91034 181.29591 115.440926 180.76532C 115.90577 180.30048 115.93162 180.13942 115.62019 179.64827C 115.438675 179.36198 115.11759 179.377 113.8383 179.73157C 111.38099 180.41261 106.596245 180.54982 103.92798 180.0158C 99.679085 179.16539 94.99699 176.20508 93.61435 173.49489C 91.641846 169.62846 94.02916 165.32951 98.1555 165.31744C 100.01161 165.31244 101.385086 165.78778 103.342384 167.11417C 106.51665 169.26523 107.82739 169.63312 110.08408 169.00636C 113.41744 168.08058 113.58308 164.07918 110.32418 163.20596C 109.79796 163.06496 108.23632 162.82315 106.853874 162.66858C 102.31156 162.16074 99.65003 161.02187 97.14675 158.5149C 90.33643 151.69453 92.11163 140.16069 100.61608 135.97397C 103.42617 134.59056 105.22868 134.23584 109.36741 134.25174C 112.637146 134.26434 113.320465 134.34795 115.19382 134.96524C 119.00592 136.22131 122.47969 138.7125 123.62559 141.01204C 124.819275 143.40746 124.38964 146.1945 122.56379 147.8999C 121.548256 148.84845 120.60466 149.17351 118.86669 149.17351C 117.11768 149.17351 116.336754 148.86389 113.641075 147.10179C 111.454796 145.67267 110.23319 145.20488 108.705956 145.21204C 107.5787 145.21704 105.851685 145.97672 105.13409 146.78267C 104.492455 147.50328 104.41711 149.39394 105.00179 150.10188C 105.69425 150.94032 107.43193 151.50789 110.2508 151.81633C 115.15561 152.35303 118.10833 153.70155 120.7026 156.58977C 122.607635 158.71066 124.31637 162.47368 124.31637 164.54816C 124.31637 165.29892 125.48019 166.50098 125.93497 166.21991C 126.59541 165.81174 125.71625 161.67818 124.404205 159.02283C 123.70865 157.61513 122.77416 156.35176 121.22208 154.7208C 120.01352 153.4508 119.0247 152.28694 119.0247 152.13443C 119.0247 151.64053 119.8183 151.04604 120.84758 150.76888C 121.4005 150.61998 122.37741 150.14276 123.01848 149.70836C 124.30746 148.83495 125.1412 148.70564 125.63643 149.30235C 126.17999 149.9573 125.71033 150.95128 124.44642 151.82088C 123.79281 152.27057 123.258026 152.72293 123.258026 152.82611C 123.258026 152.92929 123.80044 153.66772 124.46339 154.46706C 125.950645 156.2603 127.600685 159.58612 128.13794 161.8735C 128.3601 162.8194 128.54364 164.74974 128.54579 166.16316L128.54579 166.16316L128.54979 168.73303L131.54353 171.24214C 133.1901 172.62216 134.67838 174.06093 134.85083 174.4394C 135.86333 176.6616 134.30714 178.8015 131.67178 178.81088C 130.12953 178.81589 129.75209 179.09187 129.99405 180.03545C 130.10063 180.45111 130.2477 181.3598 130.32085 182.05473C 130.49629 183.72134 129.97485 184.4946 128.12335 185.31342C 126.48464 186.03813 125.3032 186.10588 124.25176 185.53542L124.25176 185.53542L124.25169 185.53545zM127.067505 183.00435C 127.430145 182.83911 127.7806 182.56386 127.846306 182.39265C 127.912 182.22145 127.56136 181.03537 127.067116 179.75693C 126.57285 178.47849 126.168465 177.27936 126.168465 177.0922C 126.168465 176.60716 127.047226 176.43335 129.52026 176.42921C 131.90266 176.42522 132.51846 176.28432 132.51846 175.74316C 132.51846 175.54448 130.10745 173.37988 127.16065 170.93294C 119.206635 164.32812 119.02313 164.19128 118.59625 164.54556C 118.2994 164.79192 118.230965 166.4477 118.230965 173.38289C 118.230965 183.50052 118.20786 183.4191 120.400986 181.02298C 123.35 177.80106 123.32912 177.8082 124.0239 179.7823C 125.27622 183.3405 125.5932 183.67607 127.067505 183.00435zM113.2943 177.21306C 115.18554 176.6289 115.84972 176.1421 115.84972 175.34007C 115.84972 174.57994 115.14071 174.43407 114.039734 174.96768C 111.468056 176.2141 107.359474 176.53612 104.86951 175.68642C 103.78705 175.31703 103.532135 175.11064 103.467064 174.55087C 103.32749 173.35013 103.90412 173.15057 106.42823 173.52611C 109.02768 173.91284 111.18594 173.61171 113.22674 172.57756C 115.105705 171.62543 115.85057 170.58824 115.84566 168.93083C 115.83966 166.96964 115.47803 166.54024 114.932755 167.84744C 113.97482 170.14395 111.380424 171.69551 108.44048 171.73009C 106.47876 171.75319 105.26155 171.31706 102.75247 169.69215C 100.54429 168.26213 99.258415 167.69435 98.22788 167.69435C 95.745674 167.69435 94.60547 170.64586 96.22454 172.88017C 97.886795 175.17407 101.34652 177.0611 105.15393 177.7505C 107.11267 178.10516 111.3013 177.8286 113.29429 177.21306zM100.32622 173.88304C 98.92279 173.1909 97.32889 171.67583 97.32889 171.03394C 97.32889 169.91118 98.733665 169.35011 99.433495 170.19336C 99.60802 170.40366 100.33184 170.94855 101.042 171.40425C 102.53547 172.36261 102.87478 173.0603 102.20652 173.79872C 101.65215 174.4113 101.41859 174.42177 100.32622 173.88303zM116.2381 162.37592C 115.97378 161.54312 113.50226 159.54602 112.201096 159.11385C 111.512695 158.8852 109.76006 158.58217 108.306366 158.44046C 105.20054 158.13771 104.42091 157.93307 102.60213 156.94316C 99.03849 155.00359 96.8804 150.66791 97.58243 146.85841C 98.39217 142.46437 101.80492 139.3549 106.74689 138.50838C 108.444595 138.21758 108.51613 138.22787 109.006935 138.834C 109.796165 139.80865 109.187294 140.48007 107.138054 140.89484C 106.23389 141.07784 104.98181 141.45418 104.355675 141.73114C 100.53097 143.42299 98.846756 147.78873 100.62032 151.41376C 102.038345 154.31209 104.380516 155.62016 108.917915 156.04785C 110.56246 156.20287 112.49355 156.55219 113.20924 156.82413C 114.97943 157.49675 117.019135 159.04152 117.978836 160.4364C 118.55698 161.2767 119.06097 161.67783 119.82697 161.90733C 120.40625 162.08089 120.94698 162.15611 121.02858 162.07451C 121.34313 161.75996 119.70112 159.07582 118.39536 157.77007C 116.60371 155.97841 114.17317 154.82042 111.45419 154.46307C 105.58026 153.69107 104.53983 153.3232 103.070885 151.49904C 100.94382 148.8576 102.424416 144.6862 105.958336 143.364C 108.75303 142.31837 111.725334 142.80905 114.625946 144.79488C 117.01592 146.43112 117.798225 146.79227 118.952705 146.79227C 120.137375 146.79227 120.98763 146.26956 121.539764 145.20184C 122.5191 143.30804 121.45966 141.22218 118.52883 139.27377C 115.35195 137.16179 111.90075 136.27939 107.92753 136.56328C 103.8462 136.85487 101.02706 138.02261 98.648254 140.4069C 94.23587 144.82947 94.29106 151.8488 98.775185 156.54994C 101.17396 159.0648 102.850136 159.77534 107.58784 160.28572C 111.97211 160.75803 113.712265 161.62874 114.81199 163.90048L114.81199 163.90048L115.41595 165.14807L115.90298 164.00133C 116.17084 163.3706 116.32164 162.63918 116.23809 162.37592zM117.35696 143.89204C 116.464554 143.1085 112.849 141.23602 112.22848 141.23602C 111.758446 141.23602 111.29367 140.2485 111.48297 139.65207C 111.820595 138.5883 113.20662 138.73135 115.98201 140.11636C 117.88148 141.06427 119.5147 142.28973 119.73339 142.93118C 120.32534 144.66736 118.89752 145.24469 117.356964 143.89206zM106.69691 166.89249C 104.69539 166.49567 103.67889 165.93462 103.67889 165.2267C 103.67889 164.00206 104.223335 163.86327 107.06131 164.36449C 110.059616 164.89401 110.39623 165.03577 110.51222 165.8177C 110.70111 167.0911 109.460884 167.44048 106.696915 166.89249zM110.93169 150.23949C 110.62787 150.11661 109.69917 149.93109 108.86793 149.82724C 106.75773 149.56358 106.026505 148.71579 107.037415 147.70488C 107.39863 147.34367 107.78311 147.28787 109.0201 147.41718C 111.5092 147.67734 112.93613 148.12897 113.37232 148.79468C 114.21427 150.07965 112.72149 150.96335 110.93168 150.23949zM89.122246 149.03574C 88.25584 147.99179 89.396805 142.3029 91.047714 139.4353C 92.746544 136.48447 95.725746 133.6945 98.841446 132.1366C 100.8463 131.13414 101.826805 131.30539 101.826805 132.658C 101.826805 133.10725 101.319145 133.51913 99.527756 134.52332C 96.660835 136.13039 94.32455 138.41438 93.03859 140.8672C 91.95173 142.94028 91.24347 145.40031 91.24347 147.10231C 91.24347 148.98694 90.01274 150.1087 89.122246 149.03574zM126.17397 147.32695C 125.762405 146.91537 125.69161 146.61807 125.84325 145.9379C 126.56028 142.72151 125.60244 139.84837 123.02522 137.4849C 118.95004 133.74767 113.65656 131.97638 107.68689 132.35243C 104.7166 132.53954 104.208046 132.38443 104.208046 131.29108C 104.208046 130.40524 104.92158 130.13188 107.70904 129.94986C 114.14354 129.5297 120.34978 131.63736 124.722336 135.72768C 126.702484 137.58 128.2006 140.2832 128.4571 142.46663C 128.68657 144.41983 128.34352 146.73389 127.7342 147.3432C 127.09447 147.98294 126.82717 147.98015 126.17397 147.327z" stroke="none" fill="#5E9FD1" fill-rule="nonzero" />
            <path d="M124.42395 185.53471C 123.97378 185.3126 123.34109 184.66048 123.01795 184.08554C 122.694824 183.5106 122.36319 183.04019 122.281 183.04019C 122.1988 183.04019 121.670296 183.45691 121.10654 183.96623C 119.768295 185.17525 118.18182 185.26204 116.9144 184.19556L116.9144 184.19556L116.08639 183.49884L113.91753 183.98792C 110.77086 184.69748 105.1004 184.63896 102.22366 183.86722C 98.14941 182.77423 93.7387 180.19429 91.708374 177.71652C 88.84059 174.21677 88.22628 169.94878 90.05294 166.21523C 90.685715 164.92189 92.02055 163.49301 93.75074 162.25696L93.75074 162.25696L94.51024 161.71436L93.13459 159.96388C 91.58583 157.99312 89.57845 153.95618 89.70494 153.06667C 89.76809 152.62257 89.96603 152.48082 90.52293 152.48082C 91.18571 152.48082 91.344124 152.67984 92.14168 154.5145C 93.20771 156.96675 94.47189 158.73979 96.4308 160.53012C 98.3928 162.32329 98.3288 162.83566 96.044716 163.62062C 91.7477 165.09737 89.779564 169.7938 91.73186 173.91206C 93.21544 177.04161 97.90939 180.39774 102.48824 181.60277C 104.9973 182.26309 109.21413 182.37924 112.142395 181.86868C 114.99243 181.37177 115.92242 180.90852 115.799774 180.0469C 115.70048 179.34937 115.38529 179.34492 111.88095 179.99161C 105.86289 181.10226 99.801636 179.52934 95.84597 175.83047C 93.805084 173.92209 92.96288 172.16075 93.18689 170.26938C 93.5333 167.34445 95.39295 165.59006 98.1555 165.58199C 100.064766 165.57599 101.34876 166.04077 103.736534 167.60042C 106.96076 169.70642 108.469955 169.94595 110.96069 168.74696C 113.520065 167.51494 113.56655 164.61081 111.04779 163.30829C 110.61523 163.0846 108.9291 162.72801 107.30084 162.51588C 102.25955 161.85909 100.29796 161.07854 97.753845 158.71698C 94.7609 155.9388 93.2512 152.44612 93.2856 148.37975C 93.334076 142.64813 95.98563 138.51172 101.20993 136.01773C 106.39246 133.5437 114.03167 133.93576 118.9635 136.92888C 122.36203 138.99146 124.04019 141.2461 124.04019 143.74953C 124.04019 147.21016 121.252045 149.52127 117.84499 148.88477C 116.44567 148.62335 115.911316 148.37088 114.219795 147.17197C 111.03439 144.91423 108.88596 144.45557 106.53583 145.5315C 105.42763 146.03885 104.988754 146.41766 104.627716 147.1785C 104.03075 148.43652 104.237854 149.64929 105.20355 150.55043C 106.14952 151.43317 107.23391 151.7567 110.308075 152.0734C 111.69853 152.21664 113.61212 152.5735 114.560486 152.86642C 119.323814 154.33766 123.17904 158.7391 124.069695 163.72293C 124.31058 165.07082 124.56245 165.71999 124.949814 165.9913C 125.88912 166.64922 126.16849 166.4664 126.16849 165.1938C 126.16849 161.61455 124.420815 157.76955 121.331116 154.55124C 118.88921 152.0077 118.863686 151.74182 120.988335 150.98169C 121.674805 150.73608 122.786705 150.17722 123.45923 149.73975C 124.393196 149.1322 124.79505 149.00485 125.16066 149.20052C 126.03965 149.67093 125.74399 150.66356 124.4622 151.54546C 123.81477 151.99089 123.21103 152.47514 123.12053 152.62157C 123.03003 152.76799 123.54136 153.62965 124.2568 154.53638C 127.14785 158.20036 128.26791 161.2103 128.48378 165.89552L128.48378 165.89552L128.62666 168.99678L131.60939 171.40079C 135.17049 174.27095 135.74406 175.33078 134.76297 177.22801C 134.2302 178.25829 133.09848 178.80685 131.50569 178.80685C 129.8176 178.80685 129.46678 179.1978 130.00308 180.48137C 130.95995 182.77145 130.20601 184.53154 127.89836 185.39494C 126.142654 186.05183 125.5226 186.07677 124.42398 185.53471L124.42398 185.53471L124.42395 185.53471zM127.69995 182.68042C 128.02692 182.35345 127.947945 181.95715 127.11023 179.72095C 126.56248 178.25874 126.24274 177.03925 126.37297 176.90901C 126.49945 176.78253 127.90416 176.59225 129.49455 176.48618C 132.11522 176.31139 132.39197 176.24373 132.4481 175.76414C 132.4949 175.3644 130.8956 173.89224 125.908966 169.74487C 122.27837 166.72531 119.1293 164.25476 118.91103 164.25476C 118.068214 164.25476 117.994484 165.18236 118.15549 173.75995C 118.290596 180.95859 118.37717 182.31915 118.708176 182.44617C 118.96638 182.54527 119.7296 181.90315 120.93881 180.56953C 121.94979 179.45454 122.93608 178.54227 123.13056 178.54227C 123.329185 178.54227 123.852425 179.49902 124.32434 180.72508C 124.78644 181.92563 125.22695 183.01031 125.30325 183.1355C 125.50164 183.46095 127.25172 183.1285 127.69995 182.68044zM112.2398 177.61955C 114.620926 177.11507 115.69222 176.4842 115.80425 175.52052C 115.94145 174.34041 115.516205 174.15868 114.1358 174.80754C 112.15199 175.74004 109.58427 176.23415 107.64764 176.05605C 104.16613 175.73589 102.916954 174.98174 103.88596 173.78506C 104.31802 173.25148 104.43646 173.23386 105.60773 173.52878C 106.31724 173.70743 107.814476 173.79544 109.0425 173.73067C 111.42652 173.60493 113.4271 172.87125 114.98982 171.54956L114.98982 171.54956L115.84972 170.8223L115.84972 167.66232C 115.84972 165.57312 115.973526 164.20604 116.21509 163.6279C 116.6343 162.62459 116.49055 162.22334 115.21957 160.84915C 113.959305 159.48656 111.6657 158.50478 109.2771 158.30547C 104.66775 157.92085 102.58796 157.13399 100.49135 154.98146C 97.5852 151.99783 96.90547 147.88615 98.70413 144.17061C 99.98825 141.51797 103.163055 139.38683 106.74455 138.77335C 108.34517 138.49916 108.526276 138.51564 108.85503 138.96523C 109.428345 139.74928 108.90623 140.35214 107.46696 140.56796C 104.26231 141.04854 101.38108 142.96713 100.24978 145.37386C 98.556244 148.9767 100.47832 153.58295 104.40716 155.337C 105.51852 155.83318 106.720535 156.08914 108.87276 156.28793C 113.321434 156.69884 115.90004 157.91586 117.7969 160.49991C 118.50201 161.46046 119.01623 161.86647 119.840485 162.11343C 120.44625 162.29492 121.039764 162.34496 121.15939 162.22461C 121.279015 162.10426 121.075195 161.41049 120.70639 160.68289C 118.74199 156.80704 115.2542 154.51483 110.65292 154.07567C 106.314995 153.66164 104.46221 152.99332 103.25137 151.40582C 101.76213 149.45332 102.25631 146.11493 104.260925 144.58594C 107.104836 142.41678 110.98932 142.61145 114.659096 145.10704C 117.78879 147.23537 119.33201 147.59148 120.71412 146.5043C 123.409096 144.38443 122.40253 141.42719 118.034386 138.63148C 114.79543 136.5585 109.90627 135.73915 105.628845 136.55255C 99.162125 137.78226 95.175064 142.28468 95.1655 148.36841C 95.159996 151.84706 96.356995 154.61807 98.96053 157.154C 101.20099 159.33627 103.62624 160.188 109.030525 160.69049C 113.34776 161.0919 115.92114 163.98837 114.92895 167.32948C 114.128975 170.02327 111.760666 171.52328 108.3091 171.52226C 106.00183 171.52147 105.02138 171.15497 102.58793 169.38298C 101.03245 168.2503 99.2582 167.44302 98.30794 167.43556C 96.60979 167.42226 95.21222 168.85886 95.21222 170.61777C 95.21222 173.24855 98.844284 176.26682 103.467674 177.47806C 105.83041 178.09706 109.69206 178.15935 112.23981 177.61955zM99.695786 173.29062C 98.12972 172.28716 97.53261 171.57158 97.63835 170.82501C 97.76846 169.90636 98.73824 169.89441 99.91272 170.79701C 100.45615 171.21463 101.22818 171.76169 101.628365 172.01268C 102.397766 172.49524 102.56616 173.19913 102.03847 173.72684C 101.548134 174.21716 100.97536 174.11052 99.69579 173.29062zM117.50342 143.65343C 116.62542 142.90181 115.37677 142.21806 113.13211 141.25977C 111.71513 140.65483 111.34123 140.07483 111.96567 139.4504C 112.33195 139.0841 112.5365 139.07338 113.52321 139.3687C 117.07426 140.43137 120.39299 143.0031 119.53984 144.03107C 119.07436 144.59195 118.46847 144.4796 117.50342 143.65346zM105.79786 166.48117C 104.0808 166.01299 103.869896 165.84196 103.987206 165.01288C 104.0641 164.46916 104.21462 164.39006 105.13409 164.41C 107.03838 164.45131 109.84112 165.01193 110.26564 165.43645C 111.4611 166.63191 108.71 167.27522 105.79786 166.48117zM109.38536 149.71375C 107.11411 149.23485 106.48293 148.74864 107.12625 147.97348C 107.43154 147.60564 107.78077 147.55219 109.02746 147.6825C 112.368095 148.03166 113.730865 148.711 113.306915 149.8158C 113.10925 150.33087 112.199936 150.3072 109.38535 149.71375zM89.45753 148.99828C 89.242805 148.91168 89.1268 148.28882 89.1268 147.22267C 89.1268 143.43474 91.03396 139.06277 93.98654 136.08221C 96.096886 133.95187 99.24256 131.94353 100.563805 131.883C 101.318375 131.84839 101.429924 131.9272 101.429924 132.49445C 101.429924 133.03354 101.06571 133.34885 99.313255 134.32684C 96.59305 135.84492 94.055305 138.37357 92.77754 140.83913C 91.73658 142.84775 90.97888 145.39224 90.97888 146.87936C 90.97888 148.6711 90.454994 149.40076 89.45753 148.99828zM126.30582 147.1564C 125.983154 146.83374 125.929054 146.52087 126.08848 145.89963C 126.53376 144.16452 126.316826 141.94148 125.54911 140.37234C 124.0644 137.3377 119.59112 134.09024 115.04872 132.74937C 113.40058 132.26286 112.367165 132.16057 108.83825 132.1346C 104.76456 132.1046 104.60194 132.0827 104.52601 131.55334C 104.367645 130.44945 105.074066 130.25555 109.209305 130.26784C 114.70497 130.28413 117.928444 131.21365 122.114975 133.98923C 124.71411 135.71239 126.23804 137.35991 127.288864 139.58276C 128.46535 142.07144 128.62631 146.14868 127.58903 147.18597C 127.080124 147.69487 126.838715 147.68932 126.30582 147.15637z" stroke="none" fill="#2C92CF" fill-rule="nonzero" />
            <path d="M124.42395 185.53471C 123.97378 185.3126 123.34109 184.66048 123.01795 184.08554C 122.694824 183.5106 122.36319 183.04019 122.281 183.04019C 122.1988 183.04019 121.670296 183.45691 121.10654 183.96623C 119.768295 185.17525 118.18182 185.26204 116.9144 184.19556L116.9144 184.19556L116.08639 183.49884L113.91753 183.98792C 110.77086 184.69748 105.1004 184.63896 102.22366 183.86722C 98.14941 182.77423 93.7387 180.19429 91.708374 177.71652C 89.936935 175.55472 89.29858 173.92522 89.18147 171.2662C 89.0949 169.30063 89.17587 168.62163 89.64509 167.3764C 90.26228 165.73859 92.04161 163.56389 93.50394 162.66014C 94.61532 161.97327 94.642494 161.5741 93.662994 160.32408C 92.46178 158.7911 92.21219 158.19923 92.58006 157.75597C 92.842606 157.43962 93.29721 157.75897 95.3104 159.67496C 98.26549 162.4871 98.3444 162.85214 96.13825 163.50467C 93.07388 164.41104 91.25509 166.80391 91.03603 170.21735C 90.92971 171.87407 91.00697 172.32097 91.64576 173.74438C 93.081474 176.94359 97.81186 180.37206 102.48825 181.60277C 104.997314 182.26309 109.214134 182.37924 112.1424 181.86868C 114.99244 181.37177 115.922424 180.90852 115.79978 180.0469C 115.700485 179.34937 115.3853 179.34492 111.88096 179.99161C 105.8629 181.10226 99.80165 179.52934 95.84598 175.83047C 93.01798 173.18608 92.417564 170.53978 94.02375 167.79904C 94.895615 166.31131 96.27861 165.57764 98.21112 165.57764C 100.067795 165.57764 101.36902 166.054 103.73654 167.60042C 106.96077 169.70642 108.46996 169.94595 110.9607 168.74696C 113.52007 167.51494 113.56656 164.61081 111.0478 163.30829C 110.615234 163.0846 108.930435 162.72672 107.303795 162.513C 103.756355 162.0469 102.64674 161.76515 100.927086 160.89374C 99.43876 160.13954 97.05765 157.98763 96.23042 156.64915C 95.74899 155.87018 95.72327 155.69281 96.04504 155.37105C 96.36681 155.04927 96.64943 155.22044 98.08159 156.60458C 100.840485 159.27095 103.1707 160.14026 109.03054 160.68922C 113.34929 161.09383 115.92098 163.98895 114.92896 167.32947C 114.12899 170.02325 111.76068 171.52327 108.30911 171.52225C 106.00185 171.52145 105.02139 171.15495 102.587944 169.38297C 101.03246 168.25029 99.25822 167.44301 98.30795 167.43555C 96.6098 167.42224 95.212234 168.85884 95.212234 170.61775C 95.212234 173.28195 98.867874 176.28728 103.572014 177.4904C 106.02917 178.11884 109.63001 178.17249 112.23982 177.61954C 114.62095 177.11505 115.692245 176.48419 115.804276 175.52051C 115.941475 174.3404 115.51623 174.15866 114.135826 174.80753C 112.152016 175.74002 109.58429 176.23413 107.64766 176.05603C 104.16615 175.73587 102.91698 174.98172 103.88599 173.78505C 104.31805 173.25146 104.436485 173.23384 105.60775 173.52876C 106.31726 173.70741 107.8145 173.79543 109.04253 173.73065C 111.426544 173.60492 113.427124 172.87123 114.989845 171.54955L114.989845 171.54955L115.84973 170.82228L115.84973 167.66231C 115.84973 165.54776 115.97265 164.20815 116.22127 163.61311C 116.553154 162.81879 116.54262 162.64325 116.12247 161.96796C 114.72543 159.72244 112.41381 158.60057 108.309074 158.17596C 104.21848 157.75282 101.73582 156.55095 100.11194 154.2077C 98.89151 152.44661 99.89835 151.99158 101.50917 153.57623C 103.201454 155.24103 105.21845 156.00073 108.7721 156.31183C 113.36176 156.7136 115.872925 157.87894 117.79688 160.4999C 118.50199 161.46045 119.01621 161.86646 119.84047 162.11342C 120.446236 162.2949 121.03788 162.34494 121.15521 162.2246C 121.537224 161.83281 119.98583 159.15091 118.495544 157.62683C 116.38046 155.46378 114.37871 154.59315 109.99913 153.93152C 106.05449 153.33557 104.41033 152.69395 103.65805 151.45692C 103.22114 150.73848 103.20736 150.58998 103.54616 150.25117C 103.88495 149.91237 104.00654 149.93246 104.53331 150.41425C 105.68595 151.46846 106.8334 151.83354 109.83326 152.10056C 111.46881 152.24614 113.58584 152.59549 114.53777 152.8769C 119.26718 154.27505 123.1761 158.7229 124.069664 163.72296C 124.31055 165.07085 124.562416 165.72002 124.94978 165.99133C 125.88909 166.64925 126.16846 166.46643 126.16846 165.19383C 126.16846 161.61458 124.420784 157.76958 121.331085 154.55127C 118.88918 152.00774 118.863655 151.74185 120.988304 150.98172C 121.674774 150.73611 122.786674 150.17725 123.4592 149.73978C 124.393166 149.13223 124.79502 149.00488 125.16063 149.20055C 126.03962 149.67096 125.74396 150.66359 124.462166 151.54549C 123.81474 151.99092 123.211 152.47517 123.1205 152.6216C 123.03 152.76802 123.54133 153.62968 124.25677 154.5364C 127.14782 158.2004 128.26788 161.21033 128.48375 165.89555L128.48375 165.89555L128.62663 168.99681L131.60936 171.40082C 135.17046 174.27098 135.74403 175.33081 134.76294 177.22804C 134.23016 178.25832 133.09845 178.80688 131.50566 178.80688C 129.81757 178.80688 129.46675 179.19783 130.00305 180.4814C 130.95992 182.77148 130.20598 184.53157 127.89833 185.39497C 126.142624 186.05186 125.52257 186.0768 124.42395 185.53474L124.42395 185.53474L124.42395 185.53471zM127.69995 182.68042C 128.02692 182.35345 127.947945 181.95715 127.11023 179.72095C 126.56248 178.25874 126.24274 177.03925 126.37297 176.90901C 126.49945 176.78253 127.90416 176.59225 129.49455 176.48618C 132.11522 176.31139 132.39197 176.24373 132.4481 175.76414C 132.4949 175.3644 130.8956 173.89224 125.908966 169.74487C 122.27837 166.72531 119.1293 164.25476 118.91103 164.25476C 118.068214 164.25476 117.994484 165.18236 118.15549 173.75995C 118.290596 180.95859 118.37717 182.31915 118.708176 182.44617C 118.96638 182.54527 119.7296 181.90315 120.93881 180.56953C 121.94979 179.45454 122.93608 178.54227 123.13056 178.54227C 123.329185 178.54227 123.852425 179.49902 124.32434 180.72508C 124.78644 181.92563 125.22695 183.01031 125.30325 183.1355C 125.50164 183.46095 127.25172 183.1285 127.69995 182.68044zM99.695786 173.29063C 98.12972 172.28717 97.53261 171.5716 97.63835 170.82503C 97.76846 169.90637 98.73824 169.89442 99.91272 170.79703C 100.45615 171.21465 101.22818 171.7617 101.628365 172.0127C 102.397766 172.49525 102.56616 173.19914 102.03847 173.72685C 101.548134 174.21718 100.97536 174.11053 99.69579 173.29063zM105.79786 166.48119C 104.0808 166.013 103.869896 165.84198 103.987206 165.0129C 104.0641 164.46918 104.21462 164.39008 105.13409 164.41002C 107.03838 164.45132 109.84112 165.01195 110.26564 165.43646C 111.4611 166.63193 108.71 167.27524 105.79786 166.48119zM111.41395 149.96254C 111.08433 149.82738 110.04195 149.58223 109.09753 149.41777C 107.20444 149.0881 106.841805 148.80762 107.48157 148.16786C 107.85577 147.79366 108.163475 147.7795 110.024765 148.05077C 112.59308 148.42511 113.264984 148.74106 113.153786 149.52216C 113.06178 150.16853 112.353485 150.3478 111.41395 149.96254zM116.69216 148.50716C 116.20963 148.29756 114.92725 147.47789 113.84244 146.68565C 112.75763 145.89343 111.72369 145.18567 111.54478 145.11287C 111.3044 145.01508 111.32309 144.90723 111.61638 144.69981C 112.33119 144.19429 113.041435 144.39258 115.32055 145.73395C 117.07767 146.76811 117.81673 147.05687 118.70651 147.05687C 121.05518 147.05687 122.35929 145.63568 122.136665 143.31876C 122.042564 142.33911 121.75892 141.71797 120.89361 140.59636C 119.8129 139.19556 119.69255 138.5902 120.49478 138.5902C 121.12072 138.5902 123.04115 140.49767 123.55818 141.6329C 124.3935 143.46701 124.05385 146.00288 122.78494 147.40607C 121.51455 148.8109 118.60288 149.33708 116.69217 148.50716zM126.32831 147.17891C 126.035645 146.88625 125.97455 146.53294 126.11098 145.92213C 126.21535 145.45482 126.29414 144.29857 126.28608 143.35269C 126.26928 141.38614 125.67393 139.826 124.20713 137.905C 123.68993 137.22765 123.33137 136.56895 123.410324 136.44121C 123.97517 135.52728 126.284256 137.6233 127.40183 140.06442C 128.46515 142.38702 128.56563 146.2094 127.589035 147.18599C 127.08466 147.69035 126.83839 147.68898 126.328316 147.17899zM117.78543 143.5746C 117.23011 143.13107 116.54148 142.60246 116.25514 142.39989C 115.78571 142.06778 115.774704 141.9914 116.14317 141.62292C 116.64317 141.12294 117.46896 141.38081 118.7089 142.42415C 120.356804 143.81078 119.467804 144.91827 117.78543 143.57462z" stroke="none" fill="#506FB2" fill-rule="nonzero" />
            <path d="M124.84554 185.4983C 124.15084 185.24286 123.48999 184.53256 123.11742 183.64085C 122.655 182.53413 122.144356 182.54874 120.991455 183.70166C 119.77943 184.9137 118.188614 185.00317 116.914406 183.93098L116.914406 183.93098L116.086395 183.23427L113.917534 183.72227C 110.93044 184.3944 105.075615 184.3943 102.48825 183.72209C 96.92817 182.27754 91.87296 178.72467 90.0359 174.97041C 88.97256 172.79735 88.809616 169.61034 89.64765 167.37645C 90.262184 165.73833 92.03851 163.56586 93.50394 162.66019C 94.61532 161.97331 94.642494 161.57414 93.662994 160.32413C 92.46178 158.79115 92.21219 158.19928 92.58006 157.75601C 92.842606 157.43967 93.29721 157.75902 95.3104 159.675C 98.26549 162.48715 98.3444 162.85219 96.13825 163.50471C 94.16811 164.08743 92.912315 165.10402 91.89603 166.93886C 91.18904 168.21526 91.111176 168.5921 91.111176 170.73709C 91.111176 172.87852 91.18968 173.26007 91.89081 174.52573C 93.54884 177.51881 97.773865 180.49255 102.098625 181.71037C 105.8114 182.75587 111.1282 182.69048 114.59326 181.5567C 115.87459 181.13745 116.376854 180.40189 116.018845 179.46893C 115.828285 178.97234 115.31093 178.9729 113.46847 179.47194C 112.668106 179.68861 110.82264 179.9401 109.36743 180.03078C 103.92156 180.37013 98.861755 178.61401 95.28543 175.14331C 93.11473 173.03671 92.60464 170.22089 93.971275 167.88889C 95.73388 164.88123 99.52928 164.74594 103.43449 167.55154C 105.559074 169.07791 106.856186 169.62227 108.368645 169.62227C 111.13197 169.62227 113.41187 167.68834 113.097176 165.61125C 112.809555 163.7129 111.163895 162.83075 107.13985 162.4178C 103.89834 162.08517 102.6955 161.79015 100.92706 160.89403C 99.438736 160.13983 97.057625 157.98792 96.23041 156.64944C 95.74898 155.87047 95.72325 155.6931 96.04502 155.37134C 96.3668 155.04956 96.649414 155.22073 98.08157 156.60487C 100.22727 158.6786 102.762245 159.90918 105.66325 160.28532C 111.11894 160.99269 112.42131 161.38777 113.649284 162.70793C 114.80338 163.94868 115.152275 166.31871 114.43392 168.03798C 113.62367 169.97717 110.928024 171.39902 108.06263 171.39857C 106.591156 171.39835 104.64378 170.58476 102.09138 168.9039C 97.9327 166.16524 94.54525 167.62833 95.33222 171.82326C 95.74525 174.02487 100.17518 177.064 104.208046 177.91246C 107.86381 178.6816 114.33272 177.90546 115.70546 176.53233C 116.23871 175.99907 116.24632 174.34326 115.71646 174.13994C 115.49764 174.05594 114.774605 174.24298 114.1097 174.55551C 111.95552 175.5681 109.82306 175.97777 107.59538 175.80698C 104.420105 175.56352 102.94583 174.7178 104.07015 173.7847C 104.37937 173.52808 104.747765 173.52867 105.826965 173.7877C 108.94872 174.5366 112.889786 173.6461 115.12007 171.6879L115.12007 171.6879L116.08605 170.83975L116.19879 167.34903C 116.26079 165.42914 116.39727 163.48808 116.502075 163.03561C 116.663086 162.34044 116.56017 162.06201 115.83801 161.23955C 114.88088 160.14944 113.14202 159.04604 111.82713 158.69441C 111.34742 158.56613 109.70478 158.32881 108.17681 158.16704C 104.22053 157.74814 101.71172 156.5166 100.11197 154.20816C 98.89153 152.44708 99.89838 151.99203 101.509186 153.57669C 103.19964 155.23969 105.21925 156.00127 108.76117 156.31133C 113.34069 156.7122 115.57113 157.79912 117.68434 160.65967C 118.28521 161.47304 118.95758 162.13853 119.178505 162.13853C 119.39942 162.13853 119.90872 162.30844 120.31029 162.51608C 120.76083 162.74907 121.182556 162.80579 121.411674 162.66417C 122.00646 162.29657 120.479965 159.41841 118.798004 157.7362C 116.61649 155.55437 114.372635 154.57991 110.03847 153.93213C 106.05194 153.3363 104.4145 152.70119 103.65808 151.45735C 103.22117 150.7389 103.20739 150.59041 103.54619 150.2516C 103.88499 149.9128 104.00657 149.93289 104.53334 150.41467C 105.68598 151.46889 106.83344 151.83397 109.83329 152.10098C 114.91508 152.5533 117.4683 153.61629 120.122696 156.38478C 121.744194 158.07596 123.431885 161.41093 123.8378 163.72603C 124.169556 165.61826 124.90156 166.70448 125.76192 166.5813C 126.49856 166.47585 126.59658 165.01598 126.03614 162.49693C 125.32875 159.31734 124.021904 157.03822 121.46514 154.52527C 120.01476 153.09973 119.29025 152.19897 119.38836 151.94328C 119.53453 151.5624 119.75292 151.44545 121.63106 150.74243C 122.118645 150.55992 122.93699 150.12598 123.44957 149.77814C 125.58959 148.32588 126.39389 149.92906 124.3164 151.50595C 123.66156 152.003 123.08845 152.56853 123.042816 152.7627C 122.997215 152.95686 123.44421 153.72845 124.03616 154.47734C 126.79395 157.96622 128.00507 161.28249 128.21664 165.92433L128.21664 165.92433L128.35905 169.04868L131.03409 171.2512C 134.61272 174.19774 134.76744 174.38684 134.76744 175.81404C 134.76744 176.81764 134.63545 177.11653 133.90337 177.77065C 133.15695 178.43758 132.82814 178.54268 131.48837 178.54268C 129.47035 178.54268 129.11623 178.91205 129.71045 180.39714C 130.35805 182.01566 130.2639 183.16331 129.40964 184.0639C 128.27768 185.25725 126.073456 185.95021 124.84558 185.49872L124.84558 185.49872L124.84554 185.4983zM127.176506 183.28265C 127.62884 183.12497 128.06564 182.78575 128.1472 182.52881C 128.2287 182.27188 127.869644 180.95909 127.34919 179.61148C 126.82875 178.26387 126.46405 177.10016 126.53875 177.02547C 126.61345 176.95076 127.78108 176.83804 129.1335 176.77496C 132.49057 176.61838 132.78305 176.54027 132.78305 175.80031C 132.78305 174.93086 119.58615 163.91129 118.69624 164.03763L118.69624 164.03763L118.09869 164.12242L118.09869 173.22171C 118.09869 181.77289 118.12798 182.33868 118.58529 182.61443C 119.00585 182.86803 119.33636 182.62042 121.020996 180.79272C 122.29906 179.40582 123.05862 178.76816 123.227165 178.94064C 123.368546 179.08531 123.792854 180.02773 124.17008 181.0349C 125.1742 183.71588 125.41568 183.89642 127.17651 183.2826zM99.97472 173.26794C 97.97251 172.18906 97.08981 170.61838 98.238075 170.17775C 98.85724 169.94016 102.12214 172.47041 102.032394 173.11832C 101.93459 173.82414 101.117226 173.88359 99.97472 173.26794zM107.250755 166.60855C 104.41055 166.11433 103.65446 165.65414 104.03847 164.65343C 104.23125 164.15105 104.12286 164.1453 108.02272 164.86525C 110.0066 165.2315 110.65509 165.74922 110.0473 166.48157C 109.66835 166.93817 109.25332 166.95702 107.25076 166.60855zM111.413956 149.96254C 111.084335 149.82738 110.041954 149.58223 109.097534 149.41777C 107.204445 149.0881 106.84181 148.80762 107.481575 148.16786C 107.855774 147.79366 108.16348 147.7795 110.02477 148.05077C 112.59309 148.42511 113.26499 148.74106 113.15379 149.52216C 113.06179 150.16853 112.35349 150.3478 111.413956 149.96254zM116.69217 148.50716C 116.20964 148.29756 114.92726 147.47789 113.84245 146.68565C 112.757645 145.89343 111.7237 145.18567 111.54479 145.11287C 111.30441 145.01508 111.323105 144.90723 111.616394 144.69981C 112.33121 144.19429 113.04145 144.39258 115.320564 145.73395C 117.07768 146.76811 117.81674 147.05687 118.70653 147.05687C 121.0552 147.05687 122.35931 145.63568 122.13668 143.31876C 122.04258 142.33911 121.758934 141.71797 120.89362 140.59636C 119.81291 139.19556 119.692566 138.5902 120.4948 138.5902C 121.120735 138.5902 123.04117 140.49767 123.5582 141.6329C 124.39352 143.46701 124.05386 146.00288 122.78496 147.40607C 121.514565 148.8109 118.6029 149.33708 116.692184 148.50716zM126.34018 147.19078C 126.03573 146.88634 125.973076 146.53957 126.11099 145.92215C 126.21536 145.45483 126.29416 144.29858 126.286095 143.3527C 126.269295 141.38615 125.67394 139.82602 124.207146 137.90501C 123.68995 137.22766 123.33138 136.56897 123.41034 136.44122C 123.979706 135.51996 126.28637 137.62793 127.42109 140.10648C 128.59445 142.66942 128.53777 146.4288 127.3135 147.24168C 126.83351 147.56038 126.70296 147.55356 126.34019 147.19078zM117.78544 143.57462C 117.23012 143.13109 116.54149 142.60248 116.25515 142.3999C 115.78572 142.0678 115.77471 141.99141 116.14318 141.62294C 116.64318 141.12296 117.46897 141.38083 118.70891 142.42416C 120.35681 143.81079 119.46781 144.91829 117.78544 143.57463z" stroke="none" fill="#2B7DC0" fill-rule="nonzero" />
            <path d="M124.84554 185.4983C 124.15084 185.24286 123.48999 184.53256 123.11742 183.64085C 122.655 182.53413 122.144356 182.54874 120.991455 183.70166C 119.77943 184.9137 118.188614 185.00317 116.914406 183.93098L116.914406 183.93098L116.086395 183.23427L113.917534 183.72227C 110.93044 184.3944 105.075615 184.3943 102.48825 183.72209C 97.18059 182.34312 92.51846 179.19574 90.82071 175.84538C 89.68145 173.59717 90.647095 173.33868 92.25067 175.46262C 94.21516 178.06456 98.27878 180.63597 102.13874 181.71968C 105.80757 182.74971 111.42884 182.67801 114.5954 181.56079C 115.81441 181.13069 116.10424 180.81735 116.11024 179.92303C 116.116234 179.04382 115.55252 178.95575 113.40201 179.49983C 110.807655 180.1562 105.550674 180.17131 103.149704 179.52933C 99.46729 178.54468 95.520744 175.94048 94.40926 173.7618C 93.79011 172.54814 93.760086 172.09975 94.26969 171.67682C 94.57933 171.41985 94.72453 171.50508 95.05029 172.13503C 96.20434 174.36671 100.631935 177.15988 104.208046 177.91225C 107.86381 178.68138 114.33272 177.90524 115.70546 176.53212C 116.23871 175.99886 116.24632 174.34305 115.71646 174.13972C 115.49764 174.05573 114.774605 174.24277 114.1097 174.5553C 111.95552 175.56789 109.82306 175.97755 107.59538 175.80676C 104.420105 175.56331 102.94583 174.71759 104.07015 173.78448C 104.37937 173.52786 104.747765 173.52846 105.826965 173.78749C 108.94872 174.53639 112.889786 173.64589 115.12007 171.68768L115.12007 171.68768L116.08605 170.83954L116.203674 167.34882C 116.26837 165.42892 116.40584 163.42 116.50916 162.88455C 116.69007 161.94702 116.632034 161.84695 114.9404 160.18015C 113.2246 158.4895 113.19955 158.44531 113.86239 158.27896C 114.74797 158.0567 116.20589 159.0109 117.71475 160.80032C 118.33528 161.53622 119.00884 162.13832 119.21157 162.13832C 119.4143 162.13832 119.90872 162.30823 120.31028 162.51587C 120.77865 162.75807 121.17706 162.80766 121.42162 162.65417C 121.73792 162.45567 121.63496 162.08719 120.81704 160.49069C 120.27484 159.43236 119.27367 157.93031 118.59221 157.15282C 117.61133 156.03369 117.43086 155.69003 117.72595 155.50322C 118.26991 155.15886 118.31468 155.17494 119.56466 156.1641C 121.68301 157.84041 123.54925 161.27554 123.93939 164.21652C 124.243774 166.51111 126.196526 167.59567 126.388535 165.5768C 126.67406 162.57458 124.80071 158.07864 121.61177 154.1128L121.61177 154.1128L121.0091 153.36328L121.64258 152.84885C 122.27012 152.33923 122.27881 152.33925 122.56862 152.85085C 122.72953 153.13475 123.411865 154.00119 124.08494 154.77626C 126.786316 157.88701 127.9995 161.16042 128.21664 165.92441L128.21664 165.92441L128.35905 169.04875L131.03409 171.25128C 134.61272 174.19781 134.76744 174.38692 134.76744 175.81412C 134.76744 176.81772 134.63545 177.11661 133.90337 177.77072C 133.15695 178.43765 132.82814 178.54276 131.48837 178.54276C 129.47035 178.54276 129.11623 178.91212 129.71045 180.39722C 130.35805 182.01573 130.2639 183.16339 129.40964 184.06398C 128.27768 185.25734 126.073456 185.95029 124.84558 185.49881L124.84558 185.49881L124.84554 185.4983zM127.176506 183.28265C 127.62884 183.12497 128.06564 182.78575 128.1472 182.52881C 128.2287 182.27188 127.869644 180.95909 127.34919 179.61148C 126.82875 178.26387 126.46405 177.10016 126.53875 177.02547C 126.61345 176.95076 127.78108 176.83804 129.1335 176.77496C 132.49057 176.61838 132.78305 176.54027 132.78305 175.80031C 132.78305 174.93086 119.58615 163.91129 118.69624 164.03763L118.69624 164.03763L118.09869 164.12242L118.09869 173.22171C 118.09869 181.77289 118.12798 182.33868 118.58529 182.61443C 119.00585 182.86803 119.33636 182.62042 121.020996 180.79272C 122.29906 179.40582 123.05862 178.76816 123.227165 178.94064C 123.368546 179.08531 123.792854 180.02773 124.17008 181.0349C 125.1742 183.71588 125.41568 183.89642 127.17651 183.2826zM99.63265 172.96735C 98.42589 172.16801 97.85805 171.49962 97.85805 170.87845C 97.85805 170.1973 98.68945 170.3852 100.3447 171.44046C 101.697136 172.30267 102.09541 172.69524 102.03635 173.10783C 101.91727 173.9397 101.02161 173.88736 99.63265 172.96736zM105.22843 170.67091C 103.3872 169.73761 100.51509 167.64114 100.60692 167.29747C 100.778 166.65723 101.96696 166.93239 103.88672 168.05652C 105.00933 168.71387 106.46318 169.37148 107.11748 169.51788C 109.379395 170.02396 111.98476 168.99286 112.80346 167.26758C 113.77861 165.21259 112.52534 163.26035 109.73249 162.48386C 108.36839 162.1046 108.24243 162.01465 108.646164 161.70802C 109.80854 160.82521 112.956985 161.73502 114.04959 163.26941C 114.740685 164.23996 114.98188 166.44772 114.54234 167.77956C 113.544846 170.802 108.54755 172.35333 105.22843 170.67093zM108.30909 166.71605C 106.88533 166.5272 104.81328 165.85587 104.50398 165.48318C 103.91224 164.77019 104.73925 164.50638 106.60774 164.81212C 107.54348 164.96524 108.7023 165.14716 109.18289 165.21642C 110.22783 165.36696 110.58332 166.0343 109.889015 166.54199C 109.61928 166.73923 109.33204 166.88277 109.2507 166.86098C 109.1694 166.83917 108.74565 166.77397 108.30909 166.71606z" stroke="none" fill="#2D62AD" fill-rule="nonzero" />
		</g>
	</g>
</g>
</svg>