<?xml version="1.0" encoding="UTF-8"?>
<svg width="256px" height="256px" viewBox="0 0 256 256" version="1.1" xmlns="http://www.w3.org/2000/svg" xmlns:xlink="http://www.w3.org/1999/xlink">
    <title>Group 7</title>
    <defs>
        <linearGradient x1="100%" y1="50%" x2="0%" y2="50%" id="linearGradient-1">
            <stop stop-color="#1D9DD8" offset="0%"></stop>
            <stop stop-color="#0D73CB" offset="100%"></stop>
        </linearGradient>
    </defs>
    <g id="Page-2" stroke="none" stroke-width="1" fill="none" fill-rule="evenodd">
        <g id="Group-4">
            <circle id="Oval" fill="url(#linearGradient-1)" cx="128" cy="128" r="128"></circle>
            <g id="goETH" transform="translate(17.123746, 14.726421)" fill-rule="nonzero">
                <path d="M111.732486,215.074247 C168.806957,215.074247 215.074247,168.806957 215.074247,111.732486 C215.074247,54.658374 168.806957,8.39063545 111.732486,8.39063545 C54.658374,8.39063545 8.39063545,54.658374 8.39063545,111.732486 C8.39063545,168.806957 54.658374,215.074247 111.732486,215.074247 Z" id="Path" fill="#62688F"></path>
                <path d="M111.989275,223.978595 C50.2518354,223.978595 0,173.740714 0,111.989275 C0,50.2382848 50.2518354,0 111.989275,0 C173.727253,0 223.978595,50.2518354 223.978595,111.989275 C223.978595,173.727253 173.740714,223.978595 111.989275,223.978595 Z M111.989275,17.172297 C59.7069525,17.172297 17.172297,59.7069525 17.172297,111.989275 C17.172297,164.271419 59.7069525,206.806074 111.989275,206.806074 C164.271419,206.806074 206.806074,164.271419 206.806074,111.989275 C206.806074,59.7069525 164.271419,17.172297 111.989275,17.172297 L111.989275,17.172297 Z" id="Shape" fill="#1BFED7"></path>
                <polygon id="Path" fill="#A7A7A7" points="111.989298 90.070903 111.989298 143.325753 162.675585 113.237153"></polygon>
                <polygon id="Path" fill="#D3D3D3" points="111.989298 90.1691255 111.989298 28.767893 162.675585 113.359197"></polygon>
                <polygon id="Path" fill="#FFFFFF" points="111.989298 28.767893 61.30301 113.359197 111.989298 90.1691255"></polygon>
                <polygon id="Path" fill="#D3D3D3" points="61.30301 113.237153 111.989298 143.325753 111.989298 90.070903"></polygon>
                <polygon id="Path" fill="#FFFFFF" points="61.30301 123.119732 111.989298 195.039465 111.989298 153.278751"></polygon>
                <polygon id="Path" fill="#A7A7A7" points="111.989298 153.278751 162.675585 123.119732 111.989298 195.039465"></polygon>
            </g>
        </g>
    </g>
</svg>