<svg width="256" height="256" viewBox="0 0 256 256" fill="none" xmlns="http://www.w3.org/2000/svg">
<path d="M128 256C198.692 256 256 198.692 256 128C256 57.3076 198.692 0 128 0C57.3076 0 0 57.3076 0 128C0 198.692 57.3076 256 128 256Z" fill="white"/>
<path fill-rule="evenodd" clip-rule="evenodd" d="M163.627 128.903L199.594 179.196C201.468 181.855 201.468 185.361 199.594 188.021C198.083 190.076 195.665 191.346 193.126 191.285H149.784C147.366 191.285 145.069 190.137 143.618 188.142L128.929 168.013C128.688 167.711 128.688 167.287 128.929 166.985L131.831 162.875L132.012 162.693C132.435 162.391 132.979 162.451 133.282 162.875L148.817 184.334C149.059 184.576 149.361 184.757 149.724 184.757H193.307C193.73 184.757 194.093 184.515 194.274 184.153C194.516 183.79 194.456 183.306 194.214 183.004L158.307 132.711C156.433 130.112 156.433 126.606 158.247 123.946L192.823 73.5922C193.065 73.2295 193.065 72.8064 192.884 72.4437C192.703 72.081 192.34 71.8392 191.917 71.8392H149.119C148.757 71.8392 148.394 72.0205 148.212 72.3228L134.068 92.3312L133.886 92.5126C133.463 92.8148 132.919 92.7544 132.617 92.3312L129.655 88.2812C129.413 87.9789 129.413 87.5558 129.655 87.2536L142.893 68.5145C144.344 66.5197 146.641 65.3108 149.119 65.3108H191.735C194.274 65.2503 196.632 66.4593 198.143 68.4541C200.077 71.0534 200.077 74.6198 198.264 77.2796L163.627 127.633C163.385 127.996 163.385 128.54 163.627 128.903ZM101.969 65.4309H59.2322C58.2651 65.4309 57.4188 65.7331 56.6329 66.2167C54.6986 67.6675 54.215 70.3877 55.6053 72.322L92.902 125.819C93.9901 127.33 93.9901 129.325 92.9625 130.836L55.6053 184.756C55.0613 185.482 54.8195 186.328 54.8195 187.235C54.8799 189.653 56.8143 191.587 59.2322 191.587H102.816C104.206 191.587 105.536 190.862 106.382 189.713L147.729 130.292C148.817 128.781 148.756 126.726 147.668 125.214L105.475 67.2444C104.69 66.0958 103.36 65.4309 101.969 65.4309Z" fill="black"/>
</svg>
