<?xml version="1.0" encoding="UTF-8" standalone="no"?>
<svg
   viewBox="0 0 256 256"
   version="1.1"
   id="svg17"
   width="256"
   height="256"
   xmlns="http://www.w3.org/2000/svg"
   xmlns:svg="http://www.w3.org/2000/svg">
  <defs
     id="defs4">
    <style
       id="style2">.d{fill:#0042ac;}</style>
  </defs>
  <g
     id="a" />
  <g
     id="b"
     transform="scale(0.256)">
    <g
       id="c">
      <g
         id="g13">
        <path
           class="d"
           d="m 588.8,371.78 c 25.95,21.61 56.59,35.88 89.44,41.79 -14.5,-29.2 -36.09,-54.24 -63.17,-73.1 -23.01,-16.02 -48.86,-26.71 -76.11,-31.62 11.94,24.04 28.82,45.42 49.83,62.92 z"
           id="path7" />
        <path
           class="d"
           d="m 678.24,586.43 c -32.85,5.91 -63.49,20.19 -89.45,41.79 -21.02,17.5 -37.89,38.88 -49.83,62.92 27.22,-4.9 53.05,-15.57 76.04,-31.57 27.11,-18.86 48.73,-43.92 63.24,-73.15 z"
           id="path9" />
        <path
           class="d"
           d="M 500,0 C 223.86,0 0,223.86 0,500 c 0,276.14 223.86,500 500,500 276.14,0 500,-223.86 500,-500 C 1000,223.86 776.14,0 500,0 Z M 366.24,635.88 c 33.12,33.64 75.81,53.77 121.62,57.66 14.57,-39.11 39.04,-73.64 71.5,-100.67 37.63,-31.34 83.25,-50.2 131.93,-54.57 12.52,-1.11 24.5,4.21 32.04,14.26 7.55,10.06 9.33,23.08 4.74,34.81 -17.4,44.54 -47.41,82.56 -86.81,109.96 -34.93,24.3 -75.14,38.67 -117.31,42.09 -1.5,15.44 -1.14,30.9 1.12,46.26 2.24,15.25 -6.93,29.86 -21.74,34.14 l -6.27,1.81 c -5.83,1.68 -11.91,-1.81 -13.33,-7.71 -5.99,-24.84 -7.96,-50 -5.91,-75.17 -23.25,-2.59 -45.91,-8.59 -67.64,-17.97 -28.76,-12.42 -54.57,-30.12 -76.73,-52.63 -22.17,-22.52 -39.47,-48.63 -51.44,-77.6 -12.43,-30.1 -18.48,-61.86 -17.97,-94.41 1,-63.36 26.43,-122.76 71.6,-167.27 38.42,-37.85 87.41,-61.25 140.21,-67.43 -4.05,-24.28 -4.32,-48.79 -0.76,-73.25 0.87,-6 6.62,-10.04 12.57,-8.9 l 6.54,1.26 c 15.07,2.9 25.48,16.53 24.67,31.85 -0.85,16.07 0.34,32.13 3.55,48.05 42.76,3.19 83.55,17.65 118.93,42.28 39.41,27.44 69.43,65.52 86.8,110.11 4.54,11.64 2.75,24.57 -4.77,34.58 -7.56,10.07 -19.56,15.4 -32.1,14.28 -48.67,-4.36 -94.29,-23.23 -131.93,-54.56 -32.46,-27.03 -56.94,-61.57 -71.51,-100.68 -45.18,3.76 -87.27,23.02 -119.92,55.19 -36.53,35.99 -57.08,84.01 -57.89,135.23 -0.82,51.99 19.14,101.36 56.2,139.01 z"
           id="path11" />
      </g>
    </g>
  </g>
</svg>
