<svg id="Layer_1" data-name="Layer 1" xmlns="http://www.w3.org/2000/svg" width="256px" height="256px" viewBox="0 0 193.03 215.88"><defs><style>.cls-1{fill:#040303;}.cls-2{fill:#f7f7f7;}</style></defs><path class="cls-1" d="M1056.45,609.2c-.07,3.8-.25,7.6-.18,11.4.14,7.07-4.18,11.38-9.72,14.08-15.39,7.5-31,14.45-46.55,21.68-9.32,4.34-18.73,8.54-27.86,13.27-8.94,4.64-24.57,3.48-32.12-3.36-10.32-9.34-20.29-19.08-30.59-28.44-13.1-11.91-26.69-23.29-39.38-35.61a22.32,22.32,0,0,1-6.17-14c-.64-22.48-.33-45-.24-67.49,0-4,.76-7.91.92-11.87.36-9,6.29-13.35,13.54-16.55,25.48-11.24,50.79-22.93,76.63-33.31,9.5-3.82,19.79-3.85,28.37,5,6.53,6.73,14.56,12,21.54,18.29,8.37,7.6,16.3,15.69,24.47,23.52,5.05,4.84,10,9.8,15.32,14.34,8.39,7.17,12.9,15.87,12,27.07q0,16,0,32v14Q1056.43,601.2,1056.45,609.2ZM887.23,583.93c24-11.12,47.08-21.76,70.07-32.6a6.57,6.57,0,0,0,3.27-4.55c.57-8.94.88-17.9.82-26.85,0-3.14-1.37-6.27-2.15-9.57-3.34,1.06-6.19,1.88-9,2.86-2.95,1-5.79,2.38-8.76,3.34-5.33,1.71-7.44,5-5.35,10.85,3.13-.72,6.28-1.56,9.49-2.15,1.19-.22,2.91-.33,3.66.34,3.66,3.27,1.19,17-3.41,19-13.51,5.81-27,11.59-40.63,17.16-3.27,1.33-6.88,1.82-11.77,3,0-13.22-.34-25.6.21-37.94.16-3.77.24-8.42,5.63-10.45,17-6.39,33.81-13.26,50.69-19.94,3.53-1.4,8.48-1.85,10.2-4.45s.42-7.42.4-11.26a8.32,8.32,0,0,0-.42-1.63c-24.19,9.54-48.29,19-72.31,28.66-1.14.46-2.18,2.76-2.2,4.21-.26,19.46-.43,38.93-.34,58.39C885.38,574.62,886.49,578.84,887.23,583.93Z" transform="translate(-863.48 -456.54)"/><path class="cls-2" d="M1056.4,579.21q0-16,0-32" transform="translate(-863.48 -456.54)"/><path class="cls-2" d="M1056.45,609.2q0-8,0-16Q1056.43,601.2,1056.45,609.2Z" transform="translate(-863.48 -456.54)"/><path class="cls-2" d="M887.23,583.93c-.74-5.09-1.85-9.31-1.87-13.53-.09-19.46.08-38.93.34-58.39,0-1.45,1.06-3.75,2.2-4.21,24-9.67,48.12-19.12,72.31-28.66a8.32,8.32,0,0,1,.42,1.63c0,3.84,1.37,8.59-.4,11.26s-6.67,3.05-10.2,4.45c-16.88,6.68-33.7,13.55-50.69,19.94-5.39,2-5.47,6.68-5.63,10.45-.55,12.34-.21,24.72-.21,37.94,4.89-1.23,8.5-1.72,11.77-3,13.6-5.57,27.12-11.35,40.63-17.16,4.6-2,7.07-15.73,3.41-19-.75-.67-2.47-.56-3.66-.34-3.21.59-6.36,1.43-9.49,2.15-2.09-5.89,0-9.14,5.35-10.85,3-1,5.81-2.3,8.76-3.34,2.78-1,5.63-1.8,9-2.86.78,3.3,2.13,6.43,2.15,9.57.06,9-.25,17.91-.82,26.85a6.57,6.57,0,0,1-3.27,4.55C934.31,562.17,911.22,572.81,887.23,583.93Z" transform="translate(-863.48 -456.54)"/></svg>