<?xml version="1.0" encoding="UTF-8"?>
<svg version="1.1" xmlns="http://www.w3.org/2000/svg" width="256" height="256">
<path d="M0 0 C3.17282395 1.66019858 5.37590133 3.75180266 7 7 C7.53386003 11.8660029 7.46284658 15.89319297 5.5625 20.4375 C2.13678042 23.86321958 -1.27348726 25.12811901 -6 26 C-6.97582031 25.92265625 -7.95164063 25.8453125 -8.95703125 25.765625 C-13.17724274 26.09067338 -14.4677854 27.82739984 -17.3125 30.875 C-18.17488281 31.77992187 -19.03726563 32.68484375 -19.92578125 33.6171875 C-22.0092231 35.81015877 -22.0092231 35.81015877 -23 38 C-22.29875 38.268125 -21.5975 38.53625 -20.875 38.8125 C-17.8350176 40.0681449 -14.9272226 41.50235123 -12 43 C-9.03 41.02 -6.06 39.04 -3 37 C-2.34 37.33 -1.68 37.66 -1 38 C-1.46792969 38.90492187 -1.46792969 38.90492187 -1.9453125 39.828125 C-2.33460938 40.62734375 -2.72390625 41.4265625 -3.125 42.25 C-3.51945313 43.03890625 -3.91390625 43.8278125 -4.3203125 44.640625 C-5.22555268 46.96529177 -5.22555268 46.96529177 -4.33203125 49.1171875 C-2.90620934 51.13257214 -1.5163928 52.37200554 0.4375 53.875 C11.92336453 63.6723799 21.03270693 77.77207513 26 92 C25.83714045 95.33862075 25.24115393 96.70257682 23.125 99.3125 C21 101 21 101 18 101 C17.5978125 99.83597656 17.5978125 99.83597656 17.1875 98.6484375 C11.94382784 84.19384122 3.4268604 65.2134302 -11 58 C-11.08830078 58.6489624 -11.17660156 59.2979248 -11.26757812 59.96655273 C-12.25827963 64.06970812 -13.96443767 67.7064848 -15.71875 71.53515625 C-16.0955188 72.36848984 -16.4722876 73.20182343 -16.86047363 74.06040955 C-18.06877044 76.73001633 -19.28420382 79.39630149 -20.5 82.0625 C-21.28694257 83.79730646 -22.07340519 85.53233073 -22.859375 87.26757812 C-23.24867188 88.1260434 -23.63796875 88.98450867 -24.0390625 89.86898804 C-24.82551342 91.60475049 -25.61067013 93.34109991 -26.39453125 95.07803345 C-28.44601983 99.61533335 -30.5311083 104.13247729 -32.671875 108.62841797 C-33.09891724 109.53917587 -33.52595947 110.44993378 -33.96594238 111.38829041 C-34.7841495 113.13226225 -35.61462945 114.87054313 -36.4588623 116.60206604 C-36.82241821 117.38363571 -37.18597412 118.16520538 -37.56054688 118.97045898 C-38.05113586 119.99598122 -38.05113586 119.99598122 -38.55163574 121.04222107 C-39.18048522 123.01759655 -39.18048522 123.01759655 -38.36035156 124.96627808 C-36.69098933 127.46197012 -34.80031109 129.44644975 -32.67382812 131.5690918 C-31.33233704 132.91519783 -31.33233704 132.91519783 -29.96374512 134.28849792 C-28.9864267 135.25891947 -28.00892391 136.22915536 -27.03125 137.19921875 C-26.02962385 138.19965224 -25.02836769 139.20045628 -24.02746582 140.20161438 C-21.93236007 142.29515833 -19.83394406 144.38530618 -17.73291016 146.47290039 C-15.0375773 149.15121095 -12.34890711 151.83609022 -9.6624527 154.52330303 C-7.59701758 156.58846655 -5.52898897 158.65101597 -3.46006775 160.71268654 C-2.46748438 161.70208477 -1.47550813 162.69209245 -0.48414612 163.68271446 C0.89933173 165.064029 2.28649195 166.44165245 3.67382812 167.8190918 C4.46277466 168.60422653 5.25172119 169.38936127 6.0645752 170.19828796 C7.87859643 172.0568415 7.87859643 172.0568415 10 173 C10.27972656 172.12730469 10.55945313 171.25460938 10.84765625 170.35546875 C11.91113747 167.25875565 13.1247841 164.31007244 14.4375 161.3125 C17.84660219 153.16073506 19.86694045 145.54341407 20.75 136.75 C21.49551325 130.79897315 22.93602132 127.8530109 27.5390625 124.0390625 C28.26222656 123.52472656 28.26222656 123.52472656 29 123 C29.99 123.33 30.98 123.66 32 124 C31.75371381 132.92787455 30.8932583 141.35420917 28.953125 150.07421875 C28.76572754 150.93897827 28.57833008 151.80373779 28.38525391 152.69470215 C27.92876225 154.79761673 27.46513863 156.8989811 27 159 C27.38614975 158.61162964 27.7722995 158.22325928 28.17015076 157.82312012 C32.17367381 153.79754933 36.18065267 149.77544288 40.18969727 145.75537109 C41.68734052 144.25268527 43.18408691 142.74910507 44.67993164 141.24462891 C46.82465709 139.08783449 48.9725406 136.93423049 51.12109375 134.78125 C51.79401962 134.10316284 52.4669455 133.42507568 53.16026306 132.72644043 C53.78083084 132.10579712 54.40139862 131.48515381 55.04077148 130.84570312 C55.58926254 130.29499146 56.1377536 129.74427979 56.7028656 129.17687988 C58 128 58 128 59 128 C60.10809676 134.11673512 60.29772199 138.99022688 56.84466553 144.33795166 C53.73666746 147.98596255 50.27295069 151.27010561 46.8046875 154.5703125 C45.53522397 155.82309739 44.26843251 157.07859508 43.00418091 158.3366394 C39.67442568 161.6339036 36.30628012 164.88913222 32.92944336 168.13806152 C30.21181019 170.76639872 27.52367595 173.42379094 24.83662224 176.08333015 C21.58660796 179.29818862 18.32208173 182.49813163 15.0546875 185.6953125 C14.44976345 186.28853428 13.8448394 186.88175606 13.22158432 187.49295425 C2.66498614 197.80690869 -8.42114931 208.37583564 -21.75 215 C-22.45954834 215.36536865 -23.16909668 215.7307373 -23.90014648 216.10717773 C-29.08754216 218.71299151 -34.30401828 220.78243143 -40 222 C-38.3738638 217.95401826 -35.52683445 215.15947797 -32.5 212.125 C-32.02046875 211.62097656 -31.5409375 211.11695313 -31.046875 210.59765625 C-27.89791608 207.42434971 -24.6383849 205.07553653 -20.77929688 202.80810547 C-19.88303589 202.27893524 -18.9867749 201.74976501 -18.06335449 201.20455933 C-17.38244751 200.80705475 -16.70154053 200.40955017 -16 200 C-16.70505173 200.02300171 -17.41010345 200.04600342 -18.13652039 200.06970215 C-24.8845753 200.27495587 -31.63011456 200.39866216 -38.38103008 200.43784332 C-41.85030249 200.46066735 -45.31371524 200.51156254 -48.78100586 200.63427734 C-66.75709064 201.24550246 -78.9414421 199.64956505 -92.54882812 187.15527344 C-93.63566643 186.118414 -93.63566643 186.118414 -94.74446106 185.06060791 C-98.51363738 181.61717609 -102.66152275 178.71073337 -106.8125 175.75 C-108.3829746 174.60095686 -109.95217956 173.4501743 -111.51953125 172.296875 C-112.27186035 171.74451172 -113.02418945 171.19214844 -113.79931641 170.62304688 C-117.21566361 168.10342449 -120.60852546 165.55295115 -124 163 C-130.08030852 158.42580872 -136.18841138 153.89041432 -142.3125 149.375 C-143.13169922 148.77042969 -143.95089844 148.16585937 -144.79492188 147.54296875 C-145.55998047 146.97964844 -146.32503906 146.41632813 -147.11328125 145.8359375 C-147.79173096 145.33626465 -148.47018066 144.8365918 -149.16918945 144.32177734 C-150.75363352 143.17786747 -152.37398706 142.08400863 -154 141 C-154 140.01 -154 139.02 -154 138 C-152.44398499 136.61903381 -152.44398499 136.61903381 -150.23071289 135.18774414 C-149.40467056 134.64610123 -148.57862823 134.10445831 -147.72755432 133.54640198 C-146.81843796 132.96519089 -145.90932159 132.3839798 -144.97265625 131.78515625 C-144.03634872 131.17417587 -143.1000412 130.5631955 -142.13536072 129.93370056 C-139.11739382 127.9667064 -136.09048558 126.01402889 -133.0625 124.0625 C-129.13360717 121.51648993 -125.20856194 118.96461255 -121.28515625 116.41015625 C-120.31260895 115.77796173 -119.34006165 115.14576721 -118.33804321 114.49441528 C-111.9220918 110.30651305 -105.63653323 105.97275633 -99.40675354 101.51429749 C-89.19972311 94.24265982 -78.63709241 87.48986336 -68.14746094 80.63623047 C-56.52525745 73.03648319 -45.01926451 65.32357589 -33.73036194 57.23565674 C-31.14498668 55.38943238 -28.54178865 53.56943454 -25.9375 51.75 C-24.77541016 50.93789062 -24.77541016 50.93789062 -23.58984375 50.109375 C-23.06519531 49.74328125 -22.54054687 49.3771875 -22 49 C-24.64 47.68 -27.28 46.36 -30 45 C-30.93199219 46.0828125 -31.86398438 47.165625 -32.82421875 48.28125 C-43.56161339 60.19674201 -43.56161339 60.19674201 -48.890625 60.99609375 C-52.05592223 60.9438036 -54.91660119 60.7019542 -58 60 C-53.84443819 54.94593833 -49.37752009 50.29814817 -44.69604492 45.7331543 C-42.00391915 43.129846 -42.00391915 43.129846 -40 40 C-48.97441415 38.42905972 -57.96504964 37.16022587 -67 36 C-65.14906731 32.14113587 -63.52977686 29.57379563 -60 27 C-52.76141561 26.16155393 -45.18064937 29.21520707 -38.3203125 31.2578125 C-35.06551667 31.9853551 -34.01562925 32.05736569 -31 31 C-22.94562289 24.8230539 -22.94562289 24.8230539 -18.359375 16.19140625 C-18.46515151 13.64087835 -18.46515151 13.64087835 -18.828125 11.19140625 C-19 9 -19 9 -17.25 5.5625 C-12.07868422 -0.32705409 -7.70658918 -1.22503585 0 0 Z M-6 8 C-7.32 9.32 -8.64 10.64 -10 12 C-9.34 13.32 -8.68 14.64 -8 16 C-6.33388095 16.042721 -4.66617115 16.04063832 -3 16 C-1.70366379 14.93354885 -1.70366379 14.93354885 -1.9375 12.4375 C-1.958125 11.633125 -1.97875 10.82875 -2 10 C-3.32 9.34 -4.64 8.68 -6 8 Z " fill="#04DFED" transform="translate(197,0)"/>
<path d="M0 0 C0.99 0.33 1.98 0.66 3 1 C2.75371381 9.92787455 1.8932583 18.35420917 -0.046875 27.07421875 C-0.23427246 27.93897827 -0.42166992 28.80373779 -0.61474609 29.69470215 C-1.07123775 31.79761673 -1.53486137 33.8989811 -2 36 C-1.61385025 35.61162964 -1.2277005 35.22325928 -0.82984924 34.82312012 C3.17367381 30.79754933 7.18065267 26.77544288 11.18969727 22.75537109 C12.68734052 21.25268527 14.18408691 19.74910507 15.67993164 18.24462891 C17.82465709 16.08783449 19.9725406 13.93423049 22.12109375 11.78125 C23.13048256 10.76411926 23.13048256 10.76411926 24.16026306 9.72644043 C24.78083084 9.10579712 25.40139862 8.48515381 26.04077148 7.84570312 C26.86350807 7.01963562 26.86350807 7.01963562 27.7028656 6.17687988 C29 5 29 5 30 5 C31.10809676 11.11673512 31.29772199 15.99022688 27.84466553 21.33795166 C24.73666746 24.98596255 21.27295069 28.27010561 17.8046875 31.5703125 C16.53522397 32.82309739 15.26843251 34.07859508 14.00418091 35.3366394 C10.67442568 38.6339036 7.30628012 41.88913222 3.92944336 45.13806152 C1.21181019 47.76639872 -1.47632405 50.42379094 -4.16337776 53.08333015 C-7.41339204 56.29818862 -10.67791827 59.49813163 -13.9453125 62.6953125 C-14.55023655 63.28853428 -15.1551606 63.88175606 -15.77841568 64.49295425 C-26.33501386 74.80690869 -37.42114931 85.37583564 -50.75 92 C-51.81432251 92.54805298 -51.81432251 92.54805298 -52.90014648 93.10717773 C-58.08754216 95.71299151 -63.30401828 97.78243143 -69 99 C-67.3738638 94.95401826 -64.52683445 92.15947797 -61.5 89.125 C-61.02046875 88.62097656 -60.5409375 88.11695313 -60.046875 87.59765625 C-55.32151447 82.83575943 -51.15097121 80.69058272 -45 77 C-74.205 76.505 -74.205 76.505 -104 76 C-101.6836238 69.05087141 -99.28201799 63.38244497 -95.9140625 57.015625 C-94.32575878 53.84444981 -93.06606105 50.60653484 -91.82421875 47.28515625 C-88.34509067 38.07842103 -84.23563225 29.15477483 -80.1875 20.1875 C-79.39095629 18.41615938 -78.59473008 16.64467595 -77.79882812 14.87304688 C-75.8695359 10.58037872 -73.93597772 6.28965691 -72 2 C-67.40779009 2.47948921 -65.4442013 4.06993379 -62.24145508 7.3203125 C-61.32733353 8.23796387 -60.41321198 9.15561523 -59.47138977 10.10107422 C-58.48729761 11.10891346 -57.50334815 12.11689206 -56.51953125 13.125 C-55.50108817 14.15344897 -54.48167949 15.18094256 -53.46134949 16.20751953 C-50.78191918 18.90785662 -48.11428841 21.61954685 -45.44940186 24.33422852 C-41.17659009 28.6823988 -36.88491032 33.01197048 -32.59543419 37.34368896 C-31.09777107 38.85907393 -29.60439397 40.37857823 -28.11177063 41.89892578 C-27.20710556 42.81657715 -26.30244049 43.73422852 -25.37036133 44.6796875 C-24.57269852 45.49163574 -23.77503571 46.30358398 -22.95320129 47.14013672 C-21.13215976 49.05596916 -21.13215976 49.05596916 -19 50 C-18.58041016 48.69095703 -18.58041016 48.69095703 -18.15234375 47.35546875 C-17.08886253 44.25875565 -15.8752159 41.31007244 -14.5625 38.3125 C-11.15339781 30.16073506 -9.13305955 22.54341407 -8.25 13.75 C-7.50448675 7.79897315 -6.06397868 4.8530109 -1.4609375 1.0390625 C-0.97882813 0.69617188 -0.49671875 0.35328125 0 0 Z " fill="#4C798E" transform="translate(226,123)"/>
<path d="M0 0 C0.43699219 1.21623047 0.43699219 1.21623047 0.8828125 2.45703125 C6.11241354 16.58353217 12.86082004 28.65647575 24 39 C24.69480469 39.67675781 25.38960937 40.35351562 26.10546875 41.05078125 C31.97592667 46.60391712 38.36823507 52.07933923 46 55 C49.12694788 53.83430999 51.06562034 52.12986732 53.3125 49.70703125 C53.91320312 49.07732422 54.51390625 48.44761719 55.1328125 47.79882812 C56.38346443 46.46837518 57.62822504 45.13236097 58.8671875 43.79101562 C59.46789062 43.16517578 60.06859375 42.53933594 60.6875 41.89453125 C61.22761719 41.31550049 61.76773438 40.73646973 62.32421875 40.13989258 C64 39 64 39 65.95703125 39.0065918 C68 40 68 40 72 45 C67.38 49.62 62.76 54.24 58 59 C64.48947547 61.5321064 64.48947547 61.5321064 70.9375 62.94921875 C71.76894531 63.07490234 72.60039063 63.20058594 73.45703125 63.33007812 C74.29621094 63.44802734 75.13539062 63.56597656 76 63.6875 C76.87011719 63.81705078 77.74023438 63.94660156 78.63671875 64.08007812 C80.75666186 64.39457518 82.87818209 64.69841096 85 65 C83.20838361 68.80013671 81.32319594 71.34050845 78 74 C74.94140625 74.19140625 74.94140625 74.19140625 71.5625 73.5625 C70.34433594 73.33949219 69.12617187 73.11648437 67.87109375 72.88671875 C61.83606292 71.50432521 55.90995759 69.85022988 50 68 C47.12523777 70.58242878 44.30948812 73.2218427 41.5 75.875 C40.68917969 76.60203125 39.87835938 77.3290625 39.04296875 78.078125 C34.61538725 82.18337133 34.61538725 82.18337133 32.53027344 87.66113281 C32.53204476 90.28689504 32.53204476 90.28689504 32.87207031 92.74267578 C33.09844733 96.73710694 31.35359714 98.86187048 29 102 C24.41834291 104.96167856 19.25687044 104.63955991 14 104 C10.29265085 101.88151477 8.63659546 99.86831655 7 96 C6.28604763 91.43402556 6.62016653 87.8546253 8.5 83.625 C11.64329399 80.32454131 14.54331983 78.86552221 19 78 C20.08796875 78.12117188 21.1759375 78.24234375 22.296875 78.3671875 C27.72026028 77.82942567 29.88123734 74.89871758 33.4375 71 C34.07365234 70.33226562 34.70980469 69.66453125 35.36523438 68.9765625 C36.92718227 67.33240682 38.47046313 65.67425288 40 64 C36.69457251 61.46290433 33.26556436 59.14342158 29.8125 56.8125 C13.16612226 45.31613893 -2.45224097 27.97193253 -8 8 C-7.2613483 3.28330839 -5.01123534 0 0 0 Z M17 88 C16.61866701 89.9914056 16.28674418 91.99279077 16 94 C17.12534105 95.35618499 17.12534105 95.35618499 20.0625 95.0625 C21.031875 95.041875 22.00125 95.02125 23 95 C23.67958603 92.60280568 23.67958603 92.60280568 24 90 C22.16116119 87.71271266 22.16116119 87.71271266 19.375 87.875 C18.199375 87.936875 18.199375 87.936875 17 88 Z " fill="#FFFFFF" transform="translate(43,152)"/>
<path d="M0 0 C-4.05918841 9.31867446 -12.18388575 15.46474985 -20.84765625 20.13671875 C-39.27114194 31.02643706 -51.7304024 49.83239707 -58 70 C-59.47957315 75.83162303 -60.78697666 81.63899129 -61.328125 87.63671875 C-62.10140147 91.50759688 -63.12753709 92.8061188 -66 95.4375 C-66.721875 96.11683594 -67.44375 96.79617187 -68.1875 97.49609375 C-70 99 -70 99 -71 99 C-71.43078078 89.65445021 -71.07664297 81.04306674 -68.984375 71.89453125 C-68.69989502 70.60077576 -68.69989502 70.60077576 -68.40966797 69.28088379 C-67.9477362 67.18548575 -67.47501971 65.09246987 -67 63 C-67.4112059 63.41342651 -67.8224118 63.82685303 -68.24607849 64.25280762 C-72.50912367 68.53789954 -76.77562412 72.81952816 -81.04418945 77.09912109 C-82.63883771 78.69881211 -84.23258922 80.29939755 -85.82543945 81.90087891 C-88.10916251 84.19667013 -90.3960439 86.48927263 -92.68359375 88.78125 C-93.7586039 89.86400208 -93.7586039 89.86400208 -94.85533142 90.96862793 C-95.5159407 91.62931274 -96.17654999 92.28999756 -96.85717773 92.97070312 C-97.733209 93.85006531 -97.733209 93.85006531 -98.62693787 94.74719238 C-100 96 -100 96 -101 96 C-101.99069466 90.99600376 -102.62215153 85.83271747 -99.98600769 81.22929382 C-96.4398796 76.5305657 -92.10497391 72.5388176 -87.859375 68.484375 C-86.49544202 67.13711297 -85.13417628 65.78714588 -83.77545166 64.43463135 C-80.9259583 61.61102706 -78.05697095 58.80960103 -75.16992188 56.02441406 C-71.49833153 52.48233773 -67.86150973 48.90715706 -64.23696518 45.31701279 C-60.74679901 41.86188302 -57.2419978 38.42177003 -53.734375 34.984375 C-53.07983086 34.34153313 -52.42528671 33.69869125 -51.7509079 33.03636932 C-17.99716238 0 -17.99716238 0 0 0 Z " fill="#FFFFFF" transform="translate(101,31)"/>
<path d="M0 0 C0.99 0.33 1.98 0.66 3 1 C2.75371381 9.92787455 1.8932583 18.35420917 -0.046875 27.07421875 C-0.23427246 27.93897827 -0.42166992 28.80373779 -0.61474609 29.69470215 C-1.07123775 31.79761673 -1.53486137 33.8989811 -2 36 C-1.61385025 35.61162964 -1.2277005 35.22325928 -0.82984924 34.82312012 C3.17367381 30.79754933 7.18065267 26.77544288 11.18969727 22.75537109 C12.68734052 21.25268527 14.18408691 19.74910507 15.67993164 18.24462891 C17.82465709 16.08783449 19.9725406 13.93423049 22.12109375 11.78125 C23.13048256 10.76411926 23.13048256 10.76411926 24.16026306 9.72644043 C24.78083084 9.10579712 25.40139862 8.48515381 26.04077148 7.84570312 C26.86350807 7.01963562 26.86350807 7.01963562 27.7028656 6.17687988 C29 5 29 5 30 5 C31.10809676 11.11673512 31.29772199 15.99022688 27.84466553 21.33795166 C24.73666746 24.98596255 21.27295069 28.27010561 17.8046875 31.5703125 C16.53522397 32.82309739 15.26843251 34.07859508 14.00418091 35.3366394 C10.67442568 38.6339036 7.30628012 41.88913222 3.92944336 45.13806152 C1.21181019 47.76639872 -1.47632405 50.42379094 -4.16337776 53.08333015 C-7.41339204 56.29818862 -10.67791827 59.49813163 -13.9453125 62.6953125 C-14.55023655 63.28853428 -15.1551606 63.88175606 -15.77841568 64.49295425 C-26.33501386 74.80690869 -37.42114931 85.37583564 -50.75 92 C-51.81432251 92.54805298 -51.81432251 92.54805298 -52.90014648 93.10717773 C-58.08754216 95.71299151 -63.30401828 97.78243143 -69 99 C-65.44897107 90.1959697 -54.72217702 81.95446783 -46.85546875 77.1640625 C-43.53213604 75.80927023 -40.95101742 75.71241998 -37.375 75.6875 C-33.38092591 75.59747935 -31.57934365 75.447714 -28.38671875 72.98046875 C-26.09591644 70.41246011 -24.03260717 67.77544754 -22 65 C-20.82448205 63.61474233 -19.63861353 62.23812419 -18.4375 60.875 C-17.633125 59.92625 -16.82875 58.9775 -16 58 C-16.28875 57.4225 -16.5775 56.845 -16.875 56.25 C-17.24625 55.5075 -17.6175 54.765 -18 54 C-18.43570313 53.39929688 -18.87140625 52.79859375 -19.3203125 52.1796875 C-20.23482992 49.24692474 -19.241649 47.67640271 -17.8894043 45.02709961 C-17.55465088 44.39940674 -17.21989746 43.77171387 -16.875 43.125 C-12.12034088 33.57725321 -9.26834752 24.21335157 -8.1875 13.5625 C-7.48002464 7.68450381 -6.0051271 4.80424817 -1.4609375 1.0390625 C-0.97882813 0.69617188 -0.49671875 0.35328125 0 0 Z " fill="#FEFEFE" transform="translate(226,123)"/>
<path d="M0 0 C3.17282395 1.66019858 5.37590133 3.75180266 7 7 C7.53386003 11.8660029 7.46284658 15.89319297 5.5625 20.4375 C2.13678042 23.86321958 -1.27348726 25.12811901 -6 26 C-6.97582031 25.92265625 -7.95164063 25.8453125 -8.95703125 25.765625 C-13.17724274 26.09067338 -14.4677854 27.82739984 -17.3125 30.875 C-18.60607422 32.23238281 -18.60607422 32.23238281 -19.92578125 33.6171875 C-22.0092231 35.81015877 -22.0092231 35.81015877 -23 38 C-22.278125 38.268125 -21.55625 38.53625 -20.8125 38.8125 C-18.02409874 39.98982498 -15.55904276 41.39145884 -13 43 C-14.36983503 46.16115776 -14.9890638 46.9927092 -18 49 C-22.61252763 48.69249816 -25.938654 47.1014775 -30 45 C-30.38631592 45.45439453 -30.77263184 45.90878906 -31.1706543 46.37695312 C-43.11231676 60.12934751 -43.11231676 60.12934751 -48.890625 60.99609375 C-52.05592223 60.9438036 -54.91660119 60.7019542 -58 60 C-53.84443819 54.94593833 -49.37752009 50.29814817 -44.69604492 45.7331543 C-42.00391915 43.129846 -42.00391915 43.129846 -40 40 C-48.97441415 38.42905972 -57.96504964 37.16022587 -67 36 C-65.14906731 32.14113587 -63.52977686 29.57379563 -60 27 C-52.76141561 26.16155393 -45.18064937 29.21520707 -38.3203125 31.2578125 C-35.06551667 31.9853551 -34.01562925 32.05736569 -31 31 C-22.94562289 24.8230539 -22.94562289 24.8230539 -18.359375 16.19140625 C-18.46515151 13.64087835 -18.46515151 13.64087835 -18.828125 11.19140625 C-19 9 -19 9 -17.25 5.5625 C-12.07868422 -0.32705409 -7.70658918 -1.22503585 0 0 Z M-6 8 C-7.32 9.32 -8.64 10.64 -10 12 C-9.34 13.32 -8.68 14.64 -8 16 C-6.33388095 16.042721 -4.66617115 16.04063832 -3 16 C-1.70366379 14.93354885 -1.70366379 14.93354885 -1.9375 12.4375 C-1.958125 11.633125 -1.97875 10.82875 -2 10 C-3.32 9.34 -4.64 8.68 -6 8 Z " fill="#FEFEFE" transform="translate(197,0)"/>
<path d="M0 0 C0.99 0.495 0.99 0.495 2 1 C1.53207031 1.90492187 1.53207031 1.90492187 1.0546875 2.828125 C0.66539062 3.62734375 0.27609375 4.4265625 -0.125 5.25 C-0.51945313 6.03890625 -0.91390625 6.8278125 -1.3203125 7.640625 C-2.22555268 9.96529177 -2.22555268 9.96529177 -1.33203125 12.1171875 C0.09379066 14.13257214 1.4836072 15.37200554 3.4375 16.875 C14.92336453 26.6723799 24.03270693 40.77207513 29 55 C28.83714045 58.33862075 28.24115393 59.70257682 26.125 62.3125 C24 64 24 64 21 64 C20.5978125 62.83597656 20.5978125 62.83597656 20.1875 61.6484375 C14.94382784 47.19384122 6.4268604 28.2134302 -8 21 C-8.08830078 21.6489624 -8.17660156 22.2979248 -8.26757812 22.96655273 C-9.25827963 27.06970812 -10.96443767 30.7064848 -12.71875 34.53515625 C-13.0955188 35.36848984 -13.4722876 36.20182343 -13.86047363 37.06040955 C-15.06877044 39.73001633 -16.28420382 42.39630149 -17.5 45.0625 C-18.28694257 46.79730646 -19.07340519 48.53233073 -19.859375 50.26757812 C-21.43375617 53.74216304 -23.01091955 57.2154657 -24.58984375 60.68798828 C-27.47683098 67.04293494 -30.33795196 73.40947926 -33.19519043 79.77784729 C-33.54907837 80.56586227 -33.90296631 81.35387726 -34.26757812 82.16577148 C-34.578927 82.85992661 -34.89027588 83.55408173 -35.21105957 84.26927185 C-35.78310761 85.52419504 -36.38322271 86.76644541 -37 88 C-37.66 88 -38.32 88 -39 88 C-35.99196349 78.30743792 -32.09386172 68.95644668 -27.4375 59.9375 C-25.6340577 56.42673314 -24.16876403 52.90183956 -22.8046875 49.19921875 C-19.51017728 40.53411358 -15.60006935 32.16562776 -11.70678711 23.75683594 C-10.76199935 21.71243928 -9.82403515 19.66501785 -8.88671875 17.6171875 C-8.45089729 16.68445511 -8.45089729 16.68445511 -8.00627136 15.73287964 C-6.73528617 12.94959676 -6 11.10211633 -6 8 C-7.67392203 9.11594802 -9.34783741 10.231906 -11.02172852 11.34790039 C-12.59894038 12.39931894 -14.1762577 13.45057932 -15.75366211 14.50170898 C-20.42671446 17.61605559 -25.09772631 20.73340224 -29.765625 23.85546875 C-42.52330079 32.38221542 -55.31719644 40.85179099 -68.13842773 49.28268433 C-83.14040775 59.14767476 -98.12065946 69.04411463 -113.0625 79 C-113.85676392 79.52867676 -114.65102783 80.05735352 -115.46936035 80.60205078 C-126.04399915 87.64261672 -136.55121028 94.77395024 -147 102 C-144.00383318 105.07345543 -141.00691453 107.90459268 -137.5859375 110.49609375 C-136.75239746 111.1298291 -135.91885742 111.76356445 -135.06005859 112.41650391 C-134.17398926 113.08343262 -133.28791992 113.75036133 -132.375 114.4375 C-131.4463916 115.14052246 -130.5177832 115.84354492 -129.56103516 116.56787109 C-119.60689086 124.08633692 -109.55505172 131.47069518 -99.48876953 138.83789062 C-93.9782386 142.87282031 -88.47680422 146.91937293 -83 151 C-82.40670898 151.44166504 -81.81341797 151.88333008 -81.20214844 152.33837891 C-79.72988747 153.44279702 -78.27045236 154.56426065 -76.8125 155.6875 C-75.67748047 156.55955078 -75.67748047 156.55955078 -74.51953125 157.44921875 C-73 159 -73 159 -73 162 C-73.53665283 161.58862793 -74.07330566 161.17725586 -74.6262207 160.75341797 C-85.07889347 152.74772932 -95.56650547 144.79881791 -106.18286133 137.01123047 C-111.14487976 133.37072337 -116.08311409 129.70121297 -121 126 C-127.08030852 121.42580872 -133.18841138 116.89041432 -139.3125 112.375 C-140.54129883 111.46814453 -140.54129883 111.46814453 -141.79492188 110.54296875 C-142.55998047 109.97964844 -143.32503906 109.41632813 -144.11328125 108.8359375 C-144.79173096 108.33626465 -145.47018066 107.8365918 -146.16918945 107.32177734 C-147.75363352 106.17786747 -149.37398706 105.08400863 -151 104 C-151 103.01 -151 102.02 -151 101 C-149.44398499 99.61903381 -149.44398499 99.61903381 -147.23071289 98.18774414 C-146.40467056 97.64610123 -145.57862823 97.10445831 -144.72755432 96.54640198 C-143.81843796 95.96519089 -142.90932159 95.3839798 -141.97265625 94.78515625 C-140.56819496 93.86868568 -140.56819496 93.86868568 -139.13536072 92.93370056 C-136.11739382 90.9667064 -133.09048558 89.01402889 -130.0625 87.0625 C-126.13360717 84.51648993 -122.20856194 81.96461255 -118.28515625 79.41015625 C-117.31260895 78.77796173 -116.34006165 78.14576721 -115.33804321 77.49441528 C-108.9220918 73.30651305 -102.63653323 68.97275633 -96.40675354 64.51429749 C-86.19972311 57.24265982 -75.63709241 50.48986336 -65.14746094 43.63623047 C-54.14351811 36.44076322 -43.2340802 29.16076438 -32.54345703 21.50585938 C-26.70111338 17.33695282 -20.678016 13.43800873 -14.375 10 C-10.62086298 7.77532621 -7.31443693 5.21831678 -3.91796875 2.48828125 C-2 1 -2 1 0 0 Z " fill="#3FB1C0" transform="translate(194,37)"/>
<path d="M0 0 C4.71317495 0.46508089 6.726664 2.23398658 10.01806641 5.5480957 C10.49190262 6.01974152 10.96573883 6.49138733 11.45393372 6.97732544 C13.01294706 8.53403323 14.55721943 10.1045296 16.1015625 11.67578125 C17.18501751 12.76416258 18.26928916 13.85173154 19.3543396 14.93852234 C21.62481987 17.2166372 23.88868875 19.5010482 26.14746094 21.79077148 C29.0385135 24.72137458 31.94021065 27.64112804 34.84624672 30.55686665 C37.62238646 33.34299796 40.39356358 36.13404236 43.1640625 38.92578125 C43.69106373 39.45617823 44.21806496 39.9865752 44.76103592 40.53304482 C46.25698064 42.0406135 47.74940954 43.55157183 49.24072266 45.0637207 C50.08945953 45.92230179 50.93819641 46.78088287 51.81265259 47.66548157 C53.71396494 49.69471968 55.39074639 51.73644727 57 54 C55.44947787 57.55465445 53.31596736 60.16924089 50.75 63.0625 C50.00234375 63.91972656 49.2546875 64.77695313 48.484375 65.66015625 C45.8321583 68.15807732 43.31864161 69.53730391 40 71 C33.38668839 59.4846597 26.88790297 47.93462567 20.8125 36.125 C16.46508632 27.67560274 11.86437199 19.43909893 6.9609375 11.30078125 C5.53025488 8.89256051 4.19146888 6.53026992 3 4 C2.01 4.33 1.02 4.66 0 5 C0 3.35 0 1.7 0 0 Z " fill="#325376" transform="translate(154,125)"/>
<path d="M0 0 C8.67414179 1.34667042 15.34574181 11.16592639 20.37158203 17.76074219 C34.30059537 36.83779499 34.30059537 36.83779499 33.875 45.5625 C32.79660249 48.56660735 31.48863966 50.02372733 29 52 C28.01 52 27.02 52 26 52 C25.731875 51.22398438 25.46375 50.44796875 25.1875 49.6484375 C20.12803593 35.70162537 12.75531346 20.1053631 0.375 11.25 C-0.40875 10.5075 -1.1925 9.765 -2 9 C-1.94087589 5.51167779 -1.55735315 3.1147063 0 0 Z " fill="#FEFEFE" transform="translate(189,49)"/>
<path d="M0 0 C0 3.94646035 -1.2824197 4.88853044 -3.8125 7.875 C-4.6375 8.85597656 -5.4625 9.83695313 -6.3125 10.84765625 C-6.75335938 11.36473145 -7.19421875 11.88180664 -7.6484375 12.41455078 C-8.98094343 13.97764571 -10.30414082 15.54815095 -11.625 17.12109375 C-15.91480901 22.2207898 -20.2431396 27.28678642 -24.58886719 32.33886719 C-29.37757973 37.90692519 -34.09270305 43.52103215 -38.72265625 49.22265625 C-41.74057174 52.90316725 -44.822798 56.52709537 -47.90551758 60.15332031 C-50.89367962 63.67472693 -53.83584973 67.22928462 -56.75 70.8125 C-60.40107186 75.29904235 -64.15185142 79.68165963 -68 84 C-68 79.52615447 -65.05392746 77.34481143 -62.1875 74.1875 C-57.70089223 69.14160109 -53.3691129 64.03797813 -49.25 58.6875 C-45.41667294 53.72639999 -41.40479666 49.02519353 -37.1640625 44.40234375 C-33.26912336 40.07853947 -29.65181049 35.52915654 -26 31 C-5.16204986 5.16204986 -5.16204986 5.16204986 0 0 Z " fill="#41DEEA" transform="translate(180,54)"/>
<path d="M0 0 C4.71317495 0.46508089 6.726664 2.23398658 10.01806641 5.5480957 C10.49190262 6.01974152 10.96573883 6.49138733 11.45393372 6.97732544 C13.01294706 8.53403323 14.55721943 10.1045296 16.1015625 11.67578125 C17.18501751 12.76416258 18.26928916 13.85173154 19.3543396 14.93852234 C21.62481987 17.2166372 23.88868875 19.5010482 26.14746094 21.79077148 C29.0385135 24.72137458 31.94021065 27.64112804 34.84624672 30.55686665 C37.62238646 33.34299796 40.39356358 36.13404236 43.1640625 38.92578125 C43.69106373 39.45617823 44.21806496 39.9865752 44.76103592 40.53304482 C46.25698064 42.0406135 47.74940954 43.55157183 49.24072266 45.0637207 C50.08945953 45.92230179 50.93819641 46.78088287 51.81265259 47.66548157 C55.62596672 51.73536643 55.62596672 51.73536643 57 54 C56.67 54.99 56.34 55.98 56 57 C55.56429687 56.4121875 55.12859375 55.824375 54.6796875 55.21875 C49.72021917 48.66763835 44.05356386 43.10517279 37.99975586 37.58642578 C34.33378516 34.24138002 30.72699186 30.85415961 27.1875 27.375 C26.37667969 26.57835937 25.56585938 25.78171875 24.73046875 24.9609375 C23 23 23 23 23 21 C21.68 20.34 20.36 19.68 19 19 C19 18.34 19 17.68 19 17 C18.34 17 17.68 17 17 17 C17 16.34 17 15.68 17 15 C16.34 15 15.68 15 15 15 C15 14.34 15 13.68 15 13 C14.34 13 13.68 13 13 13 C13 12.34 13 11.68 13 11 C12.34 11 11.68 11 11 11 C11 10.34 11 9.68 11 9 C10.13375 8.62875 10.13375 8.62875 9.25 8.25 C6.70120619 6.83400344 5.05276785 5.05276785 3 3 C2.01 2.67 1.02 2.34 0 2 C0 1.34 0 0.68 0 0 Z " fill="#31686D" transform="translate(154,125)"/>
<path d="M0 0 C0.66 0 1.32 0 2 0 C-0.34721835 8.21526421 -3.74687224 16.09954686 -7 24 C12.14 24 31.28 24 51 24 C51 24.33 51 24.66 51 25 C30.54 25 10.08 25 -11 25 C-7.625 14.875 -7.625 14.875 -5.95703125 11.62109375 C-5.60576172 10.92822266 -5.25449219 10.23535156 -4.89257812 9.52148438 C-4.53615234 8.83376953 -4.17972656 8.14605469 -3.8125 7.4375 C-3.44447266 6.71498047 -3.07644531 5.99246094 -2.69726562 5.24804688 C-1.80375687 3.49584138 -0.90269225 1.74749212 0 0 Z " fill="#2F6769" transform="translate(133,174)"/>
<path d="M0 0 C0.66 0 1.32 0 2 0 C0.59387909 5.40433338 -1.33509285 10.35036886 -3.625 15.4375 C-3.94984375 16.16904297 -4.2746875 16.90058594 -4.609375 17.65429688 C-5.4021445 19.43802825 -6.20049243 21.21927859 -7 23 C-7.66 23 -8.32 23 -9 23 C-7.67296379 14.44798884 -4.01880768 7.55406899 0 0 Z " fill="#6D3B47" transform="translate(133,174)"/>
<path d="M0 0 C0 3.9856317 -1.37779403 4.98961076 -3.9375 8 C-4.74960938 8.96550781 -5.56171875 9.93101563 -6.3984375 10.92578125 C-7.03797363 11.67915771 -7.03797363 11.67915771 -7.69042969 12.44775391 C-9.84565785 15.00236626 -11.9509592 17.59667296 -14.0625 20.1875 C-15.375 21.79166667 -16.6875 23.39583333 -18 25 C-18.33 24.01 -18.66 23.02 -19 22 C-17.24023576 19.62853689 -15.47415703 17.49328163 -13.5 15.3125 C-12.94989258 14.68907715 -12.39978516 14.0656543 -11.83300781 13.42333984 C-10.73466521 12.18003668 -9.63218314 10.94037686 -8.52539062 9.70458984 C-6.5791181 7.52967391 -4.66431701 5.32804664 -2.75 3.125 C-1.83412013 2.08264148 -0.91783176 1.04064023 0 0 Z " fill="#1EB9CE" transform="translate(180,54)"/>
<path d="M0 0 C0.66 0 1.32 0 2 0 C0.36041242 5.23272633 -1.38952035 10.15196636 -4 15 C-4.33 15 -4.66 15 -5 15 C-4.5188509 9.22621075 -2.81532819 5.04140164 0 0 Z " fill="#603F4C" transform="translate(140,158)"/>
<path d="M0 0 C0.66 0.33 1.32 0.66 2 1 C0.6875 3.5 0.6875 3.5 -2 6 C-5.70001295 6.45251957 -9.29013428 6.28783441 -13 6 C-13 5.34 -13 4.68 -13 4 C-12.31292969 3.96261719 -11.62585938 3.92523438 -10.91796875 3.88671875 C-10.01691406 3.82097656 -9.11585938 3.75523437 -8.1875 3.6875 C-7.29417969 3.62949219 -6.40085938 3.57148438 -5.48046875 3.51171875 C-2.69396 2.93686419 -1.75864246 2.1793144 0 0 Z " fill="#5B8C91" transform="translate(197,193)"/>
<path d="M0 0 C0.66 0.33 1.32 0.66 2 1 C-0.64 4.3 -3.28 7.6 -6 11 C-6.33 10.01 -6.66 9.02 -7 8 C-5.56640625 5.95703125 -5.56640625 5.95703125 -3.5625 3.8125 C-2.90378906 3.09707031 -2.24507812 2.38164063 -1.56640625 1.64453125 C-1.04949219 1.10183594 -0.53257812 0.55914062 0 0 Z " fill="#32C8D9" transform="translate(168,68)"/>
<path d="M0 0 C1.39195915 4.17587745 -0.17676781 6.13474776 -2 10 C-2.66 10 -3.32 10 -4 10 C-3.71872579 8.51882199 -3.42466268 7.04006751 -3.125 5.5625 C-2.96257812 4.73878906 -2.80015625 3.91507813 -2.6328125 3.06640625 C-2.42398438 2.38449219 -2.21515625 1.70257813 -2 1 C-1.34 0.67 -0.68 0.34 0 0 Z " fill="#79363F" transform="translate(128,187)"/>
<path d="M0 0 C2.37948772 0.17625835 3.70225849 0.69719773 5.37890625 2.40234375 C6.62115486 3.90649092 7.81376056 5.45129851 9 7 C7.125 6.75 7.125 6.75 5 6 C3.75 3.9375 3.75 3.9375 3 2 C2.01 2.33 1.02 2.66 0 3 C0 2.01 0 1.02 0 0 Z " fill="#393A5E" transform="translate(154,127)"/>
<path d="M0 0 C0.33 0 0.66 0 1 0 C0.67 2.97 0.34 5.94 0 9 C-0.99 9 -1.98 9 -3 9 C-2.01 6.03 -1.02 3.06 0 0 Z " fill="#5A4F57" transform="translate(130,179)"/>
<path d="M0 0 C1 3 1 3 -0.4375 6.1875 C-1.2109375 7.5796875 -1.2109375 7.5796875 -2 9 C-2.33 9 -2.66 9 -3 9 C-2.25 2.25 -2.25 2.25 0 0 Z " fill="#4F4C5F" transform="translate(145,148)"/>
<path d="M0 0 C0.66 0 1.32 0 2 0 C1.34 2.31 0.68 4.62 0 7 C-0.99 7 -1.98 7 -3 7 C-1.125 1.125 -1.125 1.125 0 0 Z " fill="#4D5461" transform="translate(140,158)"/>
</svg>
