<svg id="Layer_1" data-name="Layer 1" xmlns="http://www.w3.org/2000/svg" viewBox="0 0 236 236"><defs><style>.cls-1{fill:#815723;}.cls-2{fill:#38260f;}.cls-3{fill:#fdb201;}.cls-4{fill:#fead00;}.cls-5{fill:#fea500;}.cls-6{fill:#5c3e19;}.cls-7{fill:#fe9b00;}.cls-8{fill:#fe9300;}.cls-9{fill:#fe8c00;}.cls-10{fill:#fe8600;}.cls-11{fill:#fe7c00;}.cls-12{fill:#fe7303;}.cls-13{fill:#fe8100;}.cls-14{fill:#fe7701;}.cls-15{fill:#fda802;}</style></defs><path class="cls-1" d="M14.34,173.88C9.61,165.43,5.79,156.63,4,147.05c19.3-2,35.89-11.5,53.17-19.15,11.16-5.49,22.29-11.08,33.52-16.42,4.3-2,9.07-4.28,13.74-3.13,6.2,1.5,11.65,1.5,16.83-2.5,1.16-.9,2.79-1.2,3.93-2.12,4.18-3.38,8.12-2.13,12.27.13,3.75,2,7.17,4.78,11.73,5.15,11.22.89,22.54,1.34,33.63,3.11,12,1.9,23-.59,34.1-4.3,5.76-1.93,11.54-4.36,17.87-3.9,2.35,14.59,1,29-2.52,43.22-.39,1.59-1,3.13-1.48,4.7-7.25.18-13.81,3.21-20.64,5.11-12.75,3.53-25.18,7.52-38.85,7.17-10-.25-20.21.32-30.3.86-3.65.2-7.57,0-11.07,1.78-13.18.24-25.77-3.79-38.68-5.6-12.53-1.76-24.56-1.47-36.55,2.7C45.16,167.17,36.16,172,26.15,174Z"/><path class="cls-2" d="M26.15,173.92c10-2,19-6.78,28.54-10.09,12-4.17,24-4.46,36.55-2.7,12.91,1.81,25.5,5.84,38.68,5.6,7,2.31,14,4.51,21,7,4,1.42,8.54,2.26,11.62,5.37,6.48,6.54,14.37,8.15,23.08,7.69A26.54,26.54,0,0,1,199.44,190c2.77,1.43,5.41,3.26,8.58,3.84-11.29,14.66-26,25-42.73,32.23A118.16,118.16,0,0,1,33.87,200.89a93.47,93.47,0,0,1-16-20.8C19.46,176.42,24.85,177.93,26.15,173.92Z"/><path class="cls-3" d="M234.78,103.85c-6.33-.46-12.11,2-17.87,3.9-11.13,3.71-22.12,6.2-34.1,4.3-11.09-1.77-22.41-2.22-33.63-3.11-4.56-.37-8-3.12-11.73-5.15-4.15-2.26-8.09-3.51-12.27-.13-1.14.92-2.77,1.22-3.93,2.12-5.18,4-10.63,4.06-16.83,2.53-4.67-1.15-9.44,1.09-13.74,3.13-11.23,5.4-22.36,11-33.52,16.46-1.94-1.25-4.11-1.06-6.27-1.06H.59a100.86,100.86,0,0,1,3.59-39H231.7A59.66,59.66,0,0,1,234.78,103.85Z"/><path class="cls-4" d="M231.7,87.86H4.18c.66-3.87,1.4-7.71,3.53-11.11,9.77.64,19.64.72,29.36.48,22.7-.57,45.38,0,68.07-.29,24-.32,48.08-.06,72.12-.08q25.47,0,50.91-.11Z"/><path class="cls-5" d="M228.17,76.75l-50.91.11c-24,0-48.08-.24-72.12.08-22.69.3-45.37-.28-68.07.29-9.72.24-19.59.16-29.36-.48a42.2,42.2,0,0,1,5.3-12c1.43,1.72,3.4,1.06,5.13,1.06h199.6c1.73,0,3.7.66,5.13-1.06A42.2,42.2,0,0,1,228.17,76.75Z"/><path class="cls-6" d="M208,193.81c-3.17-.58-5.81-2.41-8.58-3.84a26.54,26.54,0,0,0-13.78-3.16c-8.71.46-16.6-1.15-23.08-7.69-3.08-3.11-7.6-4-11.62-5.37-7-2.45-14-4.65-21-7,3.5-1.75,7.42-1.58,11.07-1.78,10.09-.54,20.26-1.11,30.3-.86,13.67.35,26.1-3.64,38.85-7.17,6.83-1.9,13.39-4.93,20.64-5.11A103.44,103.44,0,0,1,208,193.81Z"/><path class="cls-7" d="M222.89,64.87c-1.43,1.72-3.4,1.06-5.13,1.06H18.16c-1.73-.06-3.7.64-5.09-1.06a28.3,28.3,0,0,1,5-9c1.44,1.7,3.41,1,5.15,1H212.73c1.75,0,3.71.67,5.15-1A28.55,28.55,0,0,1,222.89,64.87Z"/><path class="cls-8" d="M217.9,55.87c-1.44,1.71-3.4,1-5.15,1H23.19c-1.74,0-3.71.67-5.15-1a27.65,27.65,0,0,1,5.29-7.93c2.79.28,5.47,1.06,8.35,1.05q86.8-.12,173.59,0a21.72,21.72,0,0,0,7.34-1C214.9,50.14,216.12,53.17,217.9,55.87Z"/><path class="cls-9" d="M212.58,47.87a21.72,21.72,0,0,1-7.34,1H31.65c-2.88,0-5.59-.74-8.35-1a33.87,33.87,0,0,1,6.59-8.06c2,1.2,4.17,1.07,6.29,1.07H199.7c2.17,0,4.34.13,6.29-1.08A34.12,34.12,0,0,1,212.58,47.87Z"/><path class="cls-10" d="M206,39.88c-2,1.21-4.12,1.08-6.29,1.08H36.18c-2.16,0-4.34.14-6.29-1.08a23.88,23.88,0,0,1,5.78-6c5.64,0,11.3.12,17,.12l147.59-.12A23.52,23.52,0,0,1,206,39.88Z"/><path class="cls-11" d="M44.05,26A41.62,41.62,0,0,1,53,19.74c1.33,1.83,3.31,1.15,5.1,1.15H177.8c1.74,0,3.71.68,5.12-1.08A32.84,32.84,0,0,1,193,27.88H48.46C46.82,27.88,44.6,28.76,44.05,26Z"/><path class="cls-12" d="M66.9,11.73c27.4-13.16,55.7-15.2,84.84-6.84a99.85,99.85,0,0,1,18,7.55c-8.23.34-16.53,1.51-24.66.83-11.06-.92-22,.9-33-.15-6.28-.61-12.55,1.85-19,.09-2.66-.74-5.53-.27-8.36.23C78.67,14.51,72.64,14.3,66.9,11.73Z"/><path class="cls-13" d="M44.05,26c.58,2.74,2.8,1.86,4.44,1.87H193c2.44,1.94,5.58,3,7.23,5.91l-147.6.08c-5.65,0-11.31-.08-17-.12A49.46,49.46,0,0,1,44.05,26Z"/><path class="cls-14" d="M66.9,11.73c5.74,2.57,11.77,2.78,17.8,1.72,2.83-.5,5.7-1,8.36-.23,6.39,1.76,12.66-.7,19-.09,11,1,22-.77,33,.15,8.13.68,16.43-.49,24.66-.83A78.8,78.8,0,0,1,183,19.82c-1.41,1.76-3.38,1.08-5.12,1.08Q118,21,58,20.9c-1.74,0-3.72.66-5.08-1.17A66.69,66.69,0,0,1,66.9,11.73Z"/><path class="cls-15" d="M.59,126.84h50.3c2.16,0,4.33-.16,6.27,1.09C39.88,135.58,23.29,145.09,4,147.08A74.81,74.81,0,0,1,.59,126.84Z"/><path class="cls-6" d="M26.15,173.92c-1.3,4-6.69,2.5-8.26,6.14a19.75,19.75,0,0,1-3.55-6.18Z"/></svg>