<svg id="svg" version="1.1" xmlns="http://www.w3.org/2000/svg" xmlns:xlink="http://www.w3.org/1999/xlink" width="400" height="406.25" viewBox="0, 0, 400,406.25"><g id="svgg"><path id="path0" d="M195.892 86.578 C 195.402 87.088,194.010 88.367,192.800 89.422 C 189.207 92.552,181.727 99.521,177.428 103.743 C 175.220 105.911,173.129 107.891,172.781 108.143 C 172.433 108.394,171.181 109.680,169.997 111.000 C 168.814 112.320,167.618 113.457,167.339 113.526 C 167.061 113.596,166.457 114.261,165.997 115.006 C 165.537 115.750,164.809 116.470,164.380 116.606 C 163.951 116.742,163.600 117.008,163.600 117.196 C 163.600 117.384,163.092 118.047,162.472 118.669 C 160.227 120.919,154.465 127.177,151.624 130.452 C 150.027 132.294,148.063 134.542,147.260 135.450 C 145.872 137.018,144.406 138.732,142.168 141.400 C 140.964 142.837,138.788 145.567,136.600 148.390 C 135.720 149.524,134.505 151.008,133.900 151.686 C 133.295 152.364,132.800 153.071,132.800 153.258 C 132.800 153.445,132.215 154.273,131.500 155.099 C 130.140 156.669,129.032 158.186,127.405 160.701 C 126.872 161.526,126.056 162.650,125.592 163.200 C 124.702 164.254,122.630 167.352,121.572 169.211 C 121.226 169.817,120.493 170.849,119.942 171.504 C 119.392 172.158,118.696 173.303,118.397 174.047 C 118.098 174.791,117.437 175.909,116.927 176.531 C 116.417 177.153,116.000 177.904,116.000 178.200 C 116.000 178.496,115.554 179.269,115.008 179.918 C 114.462 180.566,113.640 181.975,113.181 183.048 C 112.722 184.122,112.023 185.360,111.627 185.800 C 111.232 186.240,110.613 187.489,110.252 188.576 C 109.892 189.663,109.260 190.923,108.848 191.376 C 108.436 191.829,107.878 192.920,107.607 193.800 C 107.337 194.680,106.714 196.030,106.223 196.800 C 105.732 197.570,105.198 198.740,105.036 199.400 C 104.874 200.060,104.242 201.590,103.631 202.800 C 103.021 204.010,102.289 205.990,102.006 207.200 C 101.722 208.410,101.089 210.210,100.598 211.200 C 100.108 212.190,99.576 213.900,99.417 215.000 C 99.258 216.100,98.613 218.620,97.984 220.600 C 96.176 226.291,94.809 241.979,95.562 248.400 C 95.807 250.490,96.213 254.089,96.463 256.398 C 96.772 259.243,97.271 261.434,98.010 263.198 C 98.610 264.629,99.229 266.520,99.385 267.400 C 99.540 268.280,99.889 269.270,100.159 269.600 C 100.429 269.930,100.968 271.010,101.356 272.000 C 101.744 272.990,102.402 274.430,102.818 275.200 C 103.234 275.970,104.049 277.558,104.629 278.729 C 105.210 279.900,105.929 280.951,106.227 281.066 C 106.526 281.180,106.875 281.607,107.005 282.014 C 107.660 284.080,114.790 292.300,119.136 296.000 C 120.040 296.770,121.381 297.940,122.116 298.600 C 122.851 299.260,124.430 300.476,125.626 301.302 C 126.822 302.129,128.430 303.247,129.200 303.787 C 129.970 304.327,131.500 305.246,132.600 305.829 C 133.700 306.411,134.960 307.206,135.400 307.595 C 135.840 307.983,136.920 308.526,137.800 308.800 C 138.680 309.074,139.771 309.636,140.225 310.049 C 140.679 310.461,142.012 311.084,143.187 311.433 C 144.363 311.782,145.791 312.406,146.362 312.820 C 146.933 313.234,148.300 313.769,149.400 314.009 C 150.500 314.249,152.138 314.877,153.040 315.404 C 153.942 315.932,155.757 316.537,157.074 316.749 C 158.391 316.961,160.533 317.581,161.834 318.128 C 163.175 318.691,165.797 319.314,167.885 319.567 C 169.911 319.812,172.701 320.371,174.085 320.808 C 181.387 323.117,216.058 323.405,223.309 321.217 C 226.043 320.391,229.035 319.793,232.362 319.407 C 233.551 319.269,235.576 318.729,236.860 318.207 C 238.145 317.685,240.232 317.054,241.498 316.806 C 242.764 316.557,244.610 315.930,245.600 315.411 C 246.590 314.893,248.452 314.196,249.737 313.863 C 251.023 313.529,252.386 312.975,252.766 312.630 C 253.147 312.286,254.287 311.755,255.300 311.450 C 256.313 311.145,257.683 310.510,258.345 310.039 C 259.006 309.568,260.299 308.918,261.219 308.593 C 262.138 308.269,263.506 307.463,264.259 306.802 C 265.012 306.141,265.806 305.600,266.024 305.600 C 266.545 305.600,270.219 303.178,272.049 301.628 C 272.845 300.952,273.655 300.400,273.849 300.400 C 274.245 300.401,274.679 299.995,281.460 293.287 C 284.134 290.643,286.436 288.118,286.576 287.676 C 286.716 287.233,287.274 286.581,287.816 286.227 C 288.357 285.872,288.800 285.322,288.800 285.005 C 288.800 284.687,289.335 283.819,289.988 283.074 C 290.642 282.330,291.517 280.926,291.934 279.955 C 292.350 278.983,292.977 277.951,293.327 277.661 C 293.677 277.371,294.238 276.186,294.574 275.030 C 294.911 273.873,295.543 272.472,295.979 271.918 C 296.415 271.363,296.953 270.120,297.175 269.155 C 297.397 268.190,298.043 266.140,298.612 264.600 C 300.549 259.358,301.860 242.093,300.767 236.230 C 300.599 235.333,300.265 232.479,300.024 229.886 C 299.768 227.127,299.254 224.307,298.784 223.086 C 298.343 221.939,297.700 219.650,297.355 218.000 C 297.010 216.350,296.307 214.100,295.792 213.000 C 295.278 211.900,294.733 210.280,294.582 209.400 C 294.431 208.520,293.812 206.805,293.205 205.589 C 292.599 204.373,291.973 202.753,291.814 201.989 C 291.655 201.225,291.107 199.970,290.597 199.200 C 290.087 198.430,289.378 196.921,289.021 195.846 C 288.664 194.771,288.029 193.455,287.609 192.921 C 287.189 192.387,286.628 191.286,286.362 190.475 C 286.096 189.664,285.453 188.440,284.934 187.755 C 284.414 187.070,283.704 185.675,283.357 184.655 C 283.009 183.635,282.553 182.800,282.344 182.800 C 282.135 182.800,281.557 181.923,281.060 180.851 C 280.564 179.780,279.672 178.326,279.079 177.621 C 278.485 176.916,278.000 176.096,278.000 175.800 C 278.000 175.504,277.575 174.753,277.055 174.131 C 276.535 173.509,275.726 172.244,275.257 171.321 C 274.788 170.397,273.954 169.190,273.402 168.639 C 272.851 168.087,272.400 167.386,272.400 167.080 C 272.400 166.774,272.043 166.201,271.607 165.806 C 271.170 165.411,270.292 164.168,269.655 163.044 C 269.019 161.920,268.116 160.657,267.649 160.238 C 267.182 159.819,266.800 159.289,266.800 159.060 C 266.800 158.831,266.361 158.184,265.825 157.622 C 264.753 156.500,263.552 154.895,261.401 151.711 C 260.625 150.563,259.632 149.431,259.195 149.197 C 258.758 148.963,258.400 148.507,258.400 148.183 C 258.400 147.860,257.933 147.191,257.362 146.697 C 256.791 146.204,256.080 145.350,255.781 144.800 C 255.483 144.250,254.397 142.900,253.367 141.800 C 252.338 140.700,251.024 139.184,250.448 138.431 C 249.871 137.678,248.906 136.508,248.302 135.831 C 247.698 135.154,246.664 133.970,246.003 133.200 C 243.734 130.555,241.228 127.785,239.979 126.540 C 238.116 124.684,236.000 122.292,236.000 122.041 C 236.000 121.869,235.550 121.523,235.000 121.273 C 234.450 121.022,234.000 120.610,234.000 120.356 C 234.000 120.005,215.682 101.607,212.400 98.661 C 212.070 98.365,211.530 97.835,211.200 97.483 C 210.870 97.131,209.848 96.159,208.928 95.322 C 208.008 94.485,207.045 93.593,206.788 93.340 C 205.507 92.080,204.464 91.117,203.081 89.918 C 202.246 89.193,201.065 88.102,200.457 87.494 C 198.746 85.782,196.997 85.431,195.892 86.578 M199.283 104.328 C 199.983 104.607,202.350 106.738,209.891 113.881 C 212.261 116.125,214.470 118.213,214.800 118.519 C 215.130 118.826,215.670 119.369,216.000 119.726 C 216.330 120.082,216.987 120.758,217.460 121.227 C 217.933 121.696,218.473 122.233,218.660 122.420 C 218.847 122.607,220.125 123.849,221.500 125.180 C 222.875 126.511,224.000 127.741,224.000 127.914 C 224.000 128.086,224.540 128.546,225.200 128.936 C 225.860 129.326,226.400 129.829,226.400 130.055 C 226.400 130.280,227.705 131.781,229.300 133.390 C 232.683 136.802,233.014 137.145,233.920 138.167 C 234.294 138.589,235.140 139.519,235.800 140.232 C 237.205 141.752,238.794 143.598,243.173 148.800 C 244.932 150.890,246.828 153.057,247.386 153.615 C 247.944 154.173,248.400 154.826,248.400 155.066 C 248.400 155.306,248.697 155.749,249.061 156.051 C 249.952 156.790,254.134 162.297,256.970 166.466 C 257.519 167.273,258.157 168.050,258.390 168.194 C 258.622 168.337,259.158 169.117,259.581 169.927 C 260.005 170.737,260.807 171.917,261.364 172.549 C 261.921 173.181,262.497 174.081,262.643 174.549 C 262.789 175.017,263.424 175.991,264.054 176.714 C 264.684 177.437,265.202 178.247,265.204 178.514 C 265.206 178.781,265.836 179.790,266.604 180.756 C 267.372 181.722,268.000 182.757,268.000 183.055 C 268.000 183.354,268.630 184.475,269.400 185.547 C 270.170 186.619,270.800 187.764,270.800 188.093 C 270.800 188.421,271.340 189.369,271.999 190.199 C 272.659 191.029,273.375 192.363,273.590 193.164 C 273.806 193.966,274.427 195.224,274.970 195.960 C 275.514 196.696,276.079 197.861,276.227 198.549 C 276.375 199.237,277.105 200.952,277.848 202.360 C 278.592 203.768,279.200 205.298,279.200 205.760 C 279.200 206.222,279.738 207.737,280.396 209.126 C 281.053 210.516,281.757 212.685,281.960 213.947 C 282.164 215.209,282.708 216.966,283.170 217.853 C 284.046 219.532,284.371 221.504,285.545 232.256 C 286.003 236.449,286.149 239.604,285.960 241.256 C 284.428 254.660,284.048 256.842,283.058 257.936 C 282.721 258.308,282.251 259.480,282.013 260.541 C 281.553 262.596,280.276 265.382,279.606 265.796 C 279.383 265.934,279.200 266.383,279.200 266.793 C 279.200 267.203,278.570 268.364,277.800 269.373 C 277.030 270.382,276.400 271.385,276.400 271.602 C 276.400 271.820,275.770 272.695,275.000 273.547 C 274.230 274.400,273.600 275.267,273.600 275.475 C 273.600 275.683,273.015 276.414,272.300 277.099 C 271.585 277.785,270.280 279.117,269.400 280.059 C 268.520 281.001,266.900 282.537,265.800 283.472 C 264.700 284.407,263.260 285.637,262.600 286.206 C 261.009 287.576,258.961 288.974,257.000 290.028 C 256.120 290.501,254.950 291.296,254.400 291.796 C 253.850 292.295,252.754 292.910,251.965 293.161 C 251.175 293.413,249.938 294.056,249.215 294.589 C 248.493 295.122,247.339 295.675,246.651 295.818 C 245.963 295.961,244.647 296.512,243.726 297.041 C 242.805 297.570,240.915 298.289,239.526 298.637 C 238.137 298.986,236.370 299.645,235.600 300.102 C 234.711 300.629,233.457 300.944,232.162 300.966 C 228.455 301.028,228.801 305.728,228.791 255.251 C 228.783 212.294,228.754 210.563,228.036 209.629 C 227.086 208.393,224.879 208.840,224.173 210.413 C 223.929 210.956,223.115 212.570,222.365 214.000 L 221.000 216.600 220.887 259.775 C 220.769 304.972,220.810 304.000,219.000 304.000 C 217.185 304.000,217.221 304.727,217.108 265.689 C 217.033 239.661,216.870 228.310,216.568 228.007 C 216.151 227.591,214.676 229.473,212.730 232.904 C 212.361 233.554,211.703 234.471,211.268 234.943 C 209.151 237.236,209.200 236.391,209.200 270.772 C 209.200 305.265,209.203 305.213,207.246 303.442 C 206.428 302.701,206.419 302.423,206.310 273.567 C 206.192 242.328,206.200 242.449,204.294 244.295 C 203.802 244.771,202.294 246.204,200.942 247.480 C 197.474 250.752,197.632 249.307,197.607 277.993 C 197.583 304.562,197.543 305.126,195.812 303.213 C 195.114 302.442,195.081 301.210,195.165 278.801 L 195.253 255.200 193.275 255.200 C 191.923 255.200,191.124 255.409,190.749 255.862 C 190.447 256.226,189.647 256.755,188.971 257.038 C 188.296 257.320,187.216 258.312,186.571 259.241 L 185.400 260.931 185.299 281.165 C 185.244 292.294,185.199 301.711,185.199 302.091 C 185.201 303.498,183.209 304.298,182.348 303.236 C 181.640 302.361,181.600 301.264,181.600 282.687 C 181.600 261.665,181.534 260.965,179.650 261.973 C 179.292 262.165,178.140 262.450,177.090 262.607 C 173.862 263.091,174.000 262.225,174.000 282.063 C 174.000 302.120,173.932 302.572,171.004 301.837 C 168.651 301.246,168.619 301.005,168.400 282.631 L 168.200 265.825 166.709 265.407 C 163.929 264.627,163.380 261.873,165.817 260.938 C 168.873 259.766,166.654 254.599,162.989 254.352 C 160.234 254.166,160.400 252.794,160.400 275.735 C 160.400 293.992,160.322 296.734,159.777 297.511 C 158.941 298.705,157.288 298.655,155.410 297.381 C 154.584 296.820,153.344 296.255,152.654 296.124 C 151.194 295.847,149.398 294.997,148.046 293.943 C 147.521 293.535,146.788 293.200,146.416 293.200 C 146.045 293.200,144.855 292.570,143.772 291.800 C 142.689 291.030,141.569 290.400,141.283 290.400 C 140.997 290.400,140.314 289.951,139.765 289.402 C 139.216 288.853,138.265 288.144,137.651 287.826 C 135.059 286.486,128.253 280.441,124.675 276.301 C 122.565 273.859,120.000 270.305,120.000 269.822 C 120.000 269.556,119.556 268.922,119.013 268.412 C 118.470 267.902,117.740 266.625,117.391 265.573 C 117.042 264.522,116.499 263.448,116.185 263.187 C 115.871 262.927,115.319 261.698,114.958 260.457 C 114.597 259.215,113.850 257.249,113.297 256.088 C 109.985 249.126,110.237 218.225,113.624 215.997 C 113.794 215.886,114.213 214.313,114.557 212.503 C 114.900 210.692,115.609 208.353,116.131 207.305 C 116.654 206.257,117.299 204.500,117.565 203.400 C 117.831 202.300,118.468 200.770,118.981 200.000 C 119.494 199.230,120.138 197.880,120.413 197.000 C 120.687 196.120,121.250 194.917,121.664 194.326 C 122.078 193.736,122.688 192.485,123.019 191.546 C 123.350 190.608,123.879 189.555,124.194 189.206 C 124.510 188.858,125.215 187.560,125.762 186.323 C 126.310 185.086,126.966 183.945,127.220 183.787 C 127.475 183.630,127.980 182.847,128.342 182.047 C 128.996 180.601,130.594 177.941,132.285 175.485 C 132.771 174.778,133.629 173.345,134.191 172.300 C 134.754 171.255,135.387 170.400,135.599 170.400 C 135.810 170.400,136.358 169.725,136.816 168.900 C 137.780 167.162,139.930 164.075,141.506 162.168 C 142.107 161.439,143.140 160.093,143.800 159.177 C 144.460 158.262,145.461 157.012,146.025 156.400 C 146.589 155.789,147.386 154.773,147.796 154.144 C 148.613 152.891,151.339 149.685,158.800 141.205 C 166.450 132.510,185.079 113.863,192.172 107.800 C 192.944 107.140,194.150 106.015,194.852 105.300 C 196.132 103.997,197.627 103.669,199.283 104.328 M198.645 221.469 C 196.759 222.471,197.579 228.800,199.596 228.800 C 200.214 228.800,205.600 223.054,205.600 222.394 C 205.600 220.978,200.777 220.337,198.645 221.469 M174.464 231.819 C 173.912 233.030,173.844 241.535,174.380 242.381 C 175.085 243.496,179.944 241.714,180.856 240.006 C 181.850 238.145,181.882 233.601,180.914 231.962 C 179.920 230.279,175.213 230.175,174.464 231.819 " stroke="none" fill="#e7e7ea" fill-rule="evenodd"></path><path id="path1" d="M0.000 203.000 L 0.000 406.000 200.000 406.000 L 400.000 406.000 400.000 203.000 L 400.000 0.000 200.000 0.000 L 0.000 0.000 0.000 203.000 M199.049 84.454 C 200.179 84.739,201.089 85.269,201.486 85.875 C 201.834 86.406,202.619 87.100,203.231 87.416 C 203.843 87.732,204.455 88.344,204.592 88.775 C 204.729 89.206,205.186 89.669,205.607 89.802 C 206.029 89.936,207.624 91.250,209.152 92.723 C 210.680 94.195,213.040 96.390,214.396 97.600 C 219.760 102.388,238.000 120.849,238.000 121.491 C 238.000 121.661,238.630 122.303,239.400 122.917 C 240.170 123.531,240.800 124.300,240.800 124.626 C 240.800 124.951,241.238 125.417,241.773 125.660 C 242.308 125.904,242.957 126.614,243.216 127.239 C 243.475 127.863,244.027 128.482,244.443 128.614 C 244.860 128.746,245.404 129.247,245.652 129.727 C 245.901 130.207,246.634 131.140,247.283 131.800 C 249.916 134.480,253.997 139.017,253.998 139.266 C 253.999 139.413,254.810 140.402,255.800 141.465 C 256.790 142.529,257.600 143.603,257.600 143.853 C 257.600 144.103,258.050 144.603,258.600 144.963 C 259.150 145.324,259.600 145.965,259.600 146.389 C 259.600 146.813,260.230 147.640,261.000 148.227 C 261.770 148.814,262.400 149.538,262.400 149.836 C 262.400 150.133,262.929 150.767,263.575 151.245 C 264.221 151.723,264.956 152.610,265.207 153.217 C 265.459 153.824,266.095 154.725,266.621 155.219 C 267.146 155.713,267.776 156.723,268.020 157.462 C 268.264 158.201,268.809 158.991,269.231 159.216 C 269.652 159.442,270.350 160.296,270.780 161.113 C 271.210 161.931,272.008 163.012,272.553 163.514 C 273.097 164.017,273.661 164.968,273.806 165.628 C 273.951 166.288,274.487 167.100,274.997 167.435 C 275.507 167.769,276.030 168.467,276.161 168.986 C 276.291 169.505,276.942 170.441,277.607 171.065 C 278.358 171.770,278.907 172.764,279.057 173.686 C 279.212 174.646,279.643 175.399,280.274 175.812 C 280.811 176.164,281.603 177.273,282.033 178.277 C 282.464 179.282,283.262 180.634,283.808 181.282 C 284.354 181.931,284.800 182.816,284.800 183.250 C 284.800 183.683,285.239 184.445,285.775 184.942 C 286.311 185.438,286.959 186.678,287.216 187.696 C 287.472 188.714,288.182 190.107,288.793 190.792 C 289.404 191.476,290.015 192.734,290.152 193.587 C 290.288 194.440,290.825 195.647,291.346 196.269 C 291.866 196.891,292.602 198.480,292.980 199.800 C 293.359 201.120,294.017 202.576,294.443 203.035 C 294.883 203.510,295.410 204.975,295.664 206.435 C 295.941 208.020,296.466 209.425,297.040 210.112 C 297.936 211.185,298.078 211.688,298.597 215.600 C 298.728 216.590,299.313 218.120,299.896 219.000 C 300.863 220.458,300.985 221.093,301.272 226.151 C 301.463 229.526,301.780 231.935,302.081 232.297 C 304.433 235.131,304.642 252.590,302.361 255.721 C 301.700 256.629,301.487 257.755,301.246 261.623 C 300.972 266.002,300.861 266.495,299.914 267.501 C 299.204 268.257,298.795 269.256,298.603 270.699 C 298.444 271.901,297.892 273.437,297.313 274.291 C 296.756 275.111,296.046 276.502,295.736 277.380 C 295.427 278.259,294.836 279.342,294.425 279.789 C 294.013 280.235,293.392 281.290,293.045 282.134 C 292.697 282.977,291.870 284.174,291.206 284.794 C 290.543 285.414,290.000 286.196,290.000 286.531 C 290.000 286.867,289.574 287.477,289.054 287.886 C 288.534 288.295,287.831 289.163,287.492 289.815 C 286.233 292.232,276.865 301.144,274.941 301.755 C 274.490 301.898,273.918 302.462,273.669 303.008 C 273.399 303.601,272.883 304.000,272.386 304.000 C 271.929 304.000,271.070 304.528,270.477 305.174 C 269.885 305.820,268.541 306.715,267.492 307.164 C 266.442 307.612,265.481 308.245,265.356 308.570 C 265.231 308.895,264.470 309.376,263.665 309.637 C 262.859 309.899,261.480 310.613,260.600 311.223 C 259.720 311.834,258.370 312.461,257.600 312.618 C 256.830 312.774,255.640 313.391,254.956 313.989 C 254.050 314.782,253.091 315.150,251.418 315.346 C 249.647 315.554,248.864 315.875,247.991 316.748 C 247.029 317.709,246.432 317.915,244.014 318.118 C 241.783 318.305,240.911 318.572,239.982 319.354 C 238.790 320.357,237.937 320.549,232.670 320.996 C 230.662 321.167,229.521 321.506,228.355 322.277 C 226.818 323.295,226.517 323.335,218.285 323.643 C 213.618 323.817,208.810 324.158,207.600 324.401 C 200.711 325.782,194.485 325.757,190.859 324.333 C 190.277 324.104,185.805 323.786,180.922 323.626 C 172.202 323.341,172.015 323.317,170.433 322.269 C 169.083 321.376,168.137 321.143,164.611 320.837 C 161.004 320.524,160.230 320.328,159.208 319.469 C 158.312 318.714,157.346 318.396,155.308 318.183 C 152.467 317.887,151.519 317.556,150.200 316.398 C 149.760 316.011,148.298 315.507,146.952 315.277 C 145.270 314.989,144.153 314.533,143.383 313.820 C 142.767 313.248,141.888 312.706,141.431 312.615 C 138.724 312.077,138.211 311.867,137.550 311.027 C 137.149 310.517,136.039 309.903,135.084 309.663 C 134.129 309.422,132.999 308.836,132.574 308.361 C 132.148 307.885,131.035 307.166,130.100 306.762 C 129.165 306.359,128.400 305.840,128.400 305.609 C 128.400 305.379,127.408 304.751,126.195 304.215 C 124.982 303.678,123.892 302.983,123.772 302.670 C 123.651 302.357,122.933 301.767,122.174 301.358 C 121.416 300.950,120.694 300.295,120.569 299.903 C 120.445 299.512,119.843 298.932,119.231 298.616 C 118.619 298.300,117.827 297.595,117.470 297.051 C 117.113 296.506,116.455 295.944,116.006 295.802 C 115.558 295.660,114.925 295.029,114.600 294.400 C 114.275 293.771,113.666 293.148,113.247 293.015 C 112.829 292.882,112.267 292.245,112.000 291.600 C 111.733 290.955,111.186 290.323,110.786 290.196 C 110.386 290.068,109.689 289.338,109.237 288.573 C 108.785 287.807,108.135 287.073,107.791 286.941 C 107.447 286.809,106.789 285.959,106.328 285.051 C 105.868 284.143,105.065 282.891,104.545 282.269 C 104.025 281.647,103.600 280.889,103.600 280.583 C 103.600 280.278,103.068 279.422,102.417 278.680 C 101.766 277.939,101.059 276.555,100.845 275.604 C 100.632 274.653,100.016 273.466,99.476 272.965 C 98.785 272.324,98.366 271.320,98.056 269.561 C 97.800 268.111,97.178 266.435,96.570 265.556 C 95.674 264.264,95.471 263.406,95.167 259.618 C 94.898 256.273,94.589 254.775,93.905 253.495 C 92.476 250.820,92.512 233.915,93.953 231.212 C 94.749 229.718,94.953 228.586,95.190 224.325 C 95.448 219.685,95.570 219.086,96.549 217.673 C 97.358 216.506,97.711 215.357,97.971 213.043 C 98.228 210.750,98.584 209.577,99.369 208.445 C 100.179 207.275,101.148 203.925,101.198 202.116 C 101.199 202.070,101.655 201.610,102.212 201.094 C 102.901 200.455,103.327 199.504,103.546 198.113 C 103.742 196.879,104.268 195.597,104.878 194.872 C 105.433 194.213,106.096 192.843,106.351 191.829 C 106.606 190.815,107.166 189.634,107.596 189.204 C 108.025 188.775,108.668 187.532,109.025 186.441 C 109.381 185.350,110.009 184.154,110.420 183.782 C 110.831 183.410,111.466 182.204,111.832 181.103 C 112.245 179.860,112.777 179.027,113.233 178.907 C 113.715 178.781,114.182 177.980,114.590 176.576 C 114.932 175.400,115.561 174.193,115.988 173.894 C 116.415 173.594,117.126 172.506,117.568 171.475 C 118.010 170.444,118.564 169.600,118.800 169.600 C 119.036 169.600,119.567 168.811,119.980 167.847 C 120.393 166.882,121.103 165.833,121.558 165.515 C 122.012 165.196,122.655 164.287,122.986 163.495 C 123.317 162.702,123.906 161.816,124.294 161.527 C 124.682 161.237,125.327 160.293,125.728 159.429 C 126.128 158.565,126.897 157.395,127.436 156.829 C 129.891 154.256,131.200 152.638,131.200 152.176 C 131.200 151.901,131.834 150.894,132.610 149.938 C 133.385 148.982,134.690 147.326,135.510 146.258 C 136.329 145.190,137.585 143.762,138.300 143.085 C 139.015 142.407,139.600 141.661,139.600 141.427 C 139.600 141.192,140.135 140.460,140.788 139.800 C 143.047 137.518,144.332 136.004,145.197 134.605 C 145.675 133.832,146.206 133.200,146.378 133.200 C 146.550 133.200,147.198 132.469,147.817 131.575 C 148.436 130.682,150.711 128.158,152.872 125.967 C 155.032 123.776,156.800 121.803,156.800 121.583 C 156.800 121.363,157.238 120.983,157.773 120.740 C 158.308 120.496,158.960 119.780,159.221 119.148 C 159.483 118.517,159.954 118.000,160.267 118.000 C 160.581 118.000,161.142 117.469,161.514 116.821 C 161.886 116.172,162.606 115.452,163.114 115.221 C 163.622 114.990,164.344 114.261,164.719 113.603 C 165.093 112.944,165.559 112.404,165.753 112.403 C 166.236 112.399,169.774 108.771,170.357 107.681 C 170.616 107.196,171.017 106.800,171.249 106.800 C 171.480 106.800,172.649 105.765,173.846 104.500 C 175.043 103.235,176.214 102.020,176.449 101.800 C 176.683 101.580,177.662 100.635,178.623 99.700 C 179.584 98.765,180.545 98.000,180.758 98.000 C 180.972 98.000,181.261 97.638,181.401 97.196 C 181.542 96.753,182.149 96.137,182.750 95.826 C 183.352 95.515,184.055 94.796,184.314 94.230 C 184.572 93.663,185.044 93.200,185.362 93.200 C 185.681 93.200,186.270 92.786,186.671 92.279 C 187.604 91.101,194.346 85.076,195.400 84.478 C 196.417 83.901,196.842 83.898,199.049 84.454 M196.254 106.573 C 195.906 107.105,195.255 107.656,194.806 107.798 C 194.358 107.940,193.719 108.584,193.385 109.228 C 193.052 109.873,192.519 110.400,192.202 110.400 C 191.884 110.400,191.214 110.958,190.712 111.639 C 190.210 112.320,189.305 113.135,188.700 113.449 C 188.095 113.763,187.600 114.271,187.600 114.578 C 187.600 114.884,186.979 115.518,186.221 115.987 C 185.462 116.456,184.739 117.163,184.613 117.559 C 184.487 117.955,183.935 118.483,183.386 118.733 C 182.837 118.984,182.182 119.641,181.930 120.194 C 181.678 120.747,181.306 121.200,181.105 121.200 C 180.903 121.200,177.867 124.125,174.358 127.700 C 167.472 134.717,167.633 134.552,166.302 135.941 C 165.806 136.458,165.098 137.178,164.729 137.541 C 164.359 137.903,163.819 138.434,163.529 138.719 C 163.238 139.005,162.370 139.956,161.600 140.832 C 160.830 141.708,159.615 143.017,158.900 143.741 C 158.185 144.465,157.600 145.241,157.600 145.467 C 157.600 145.693,157.015 146.513,156.300 147.291 C 155.585 148.068,154.190 149.722,153.200 150.966 C 152.210 152.210,150.909 153.698,150.308 154.273 C 149.708 154.847,149.110 155.653,148.980 156.063 C 148.850 156.473,148.231 157.074,147.605 157.397 C 146.883 157.771,146.369 158.429,146.201 159.196 C 146.055 159.862,145.610 160.580,145.213 160.793 C 144.816 161.005,144.102 161.927,143.626 162.840 C 143.149 163.754,142.240 165.021,141.605 165.656 C 140.970 166.292,140.340 167.159,140.205 167.585 C 140.070 168.011,139.619 168.467,139.204 168.599 C 138.789 168.731,138.237 169.504,137.976 170.319 C 137.716 171.134,137.096 172.250,136.597 172.800 C 136.099 173.350,135.399 174.380,135.042 175.088 C 134.684 175.797,134.040 176.565,133.609 176.795 C 133.179 177.025,132.624 177.976,132.375 178.907 C 132.126 179.838,131.573 180.928,131.146 181.330 C 130.719 181.731,130.085 182.771,129.737 183.640 C 129.389 184.510,128.796 185.442,128.419 185.711 C 128.042 185.980,127.437 187.076,127.075 188.146 C 126.713 189.217,125.992 190.487,125.472 190.968 C 124.910 191.490,124.417 192.534,124.254 193.550 C 124.094 194.550,123.597 195.616,123.050 196.128 C 122.506 196.637,121.906 197.916,121.609 199.200 C 121.329 200.410,120.663 201.985,120.129 202.701 C 119.387 203.694,118.453 206.928,118.402 208.679 C 118.401 208.723,117.964 209.229,117.431 209.804 C 116.459 210.853,116.251 211.669,115.778 216.293 C 115.587 218.164,115.248 219.134,114.420 220.175 L 113.317 221.563 113.131 229.482 C 112.792 243.934,113.208 251.189,114.482 253.038 C 115.143 253.997,115.710 255.549,115.950 257.059 C 116.325 259.411,117.071 261.200,117.676 261.200 C 117.831 261.200,118.264 262.287,118.637 263.617 C 119.010 264.946,119.624 266.199,120.003 266.401 C 120.381 266.604,120.922 267.361,121.205 268.085 C 121.488 268.808,122.140 269.850,122.654 270.400 C 124.155 272.005,127.600 276.501,127.600 276.855 C 127.600 277.034,128.127 277.452,128.772 277.785 C 129.416 278.119,130.057 278.748,130.195 279.185 C 130.334 279.622,130.865 280.209,131.375 280.489 C 132.534 281.127,136.265 284.068,137.604 285.401 C 138.157 285.950,138.842 286.400,139.127 286.400 C 139.412 286.400,140.130 286.909,140.723 287.531 C 141.315 288.153,142.545 288.874,143.456 289.134 C 144.419 289.408,145.384 290.021,145.763 290.599 C 146.209 291.281,146.930 291.675,148.061 291.856 C 149.043 292.013,150.263 292.606,151.080 293.324 C 152.010 294.140,153.105 294.631,154.484 294.849 C 155.627 295.030,156.905 295.535,157.405 296.004 L 158.292 296.838 158.546 295.569 C 158.686 294.871,158.800 284.975,158.800 273.579 L 158.800 252.858 156.596 252.582 C 154.718 252.348,154.356 252.166,154.153 251.354 C 153.713 249.603,154.145 249.340,158.600 248.646 C 160.948 248.281,163.528 247.655,164.334 247.257 C 165.140 246.858,166.880 246.217,168.200 245.831 C 173.180 244.378,172.620 245.118,172.458 240.207 C 172.104 229.438,172.664 228.252,178.007 228.462 C 183.079 228.660,184.400 230.207,184.400 235.946 C 184.400 237.333,184.576 238.400,184.804 238.400 C 186.062 238.400,192.784 234.421,194.601 232.600 C 195.332 231.868,195.388 231.368,195.260 226.748 C 195.095 220.776,195.272 220.306,198.031 219.390 C 200.432 218.592,205.625 218.866,206.427 219.832 C 207.299 220.884,208.963 219.683,210.565 216.846 C 210.765 216.491,211.170 216.056,211.465 215.880 C 211.759 215.704,212.000 215.323,212.000 215.034 C 212.000 214.745,212.355 214.056,212.790 213.504 C 213.224 212.952,214.065 211.352,214.659 209.950 C 215.253 208.547,215.940 207.130,216.187 206.800 C 217.367 205.223,219.432 197.272,218.820 196.660 C 218.158 195.998,215.441 196.265,213.552 197.178 C 211.855 197.998,209.399 198.251,208.555 197.694 C 207.980 197.314,211.378 191.276,213.336 189.200 C 213.647 188.870,214.377 187.655,214.958 186.500 C 215.538 185.345,216.190 184.400,216.407 184.400 C 216.623 184.400,216.800 184.171,216.800 183.891 C 216.800 183.611,217.385 182.469,218.100 181.354 C 220.796 177.150,222.616 173.706,223.237 171.634 C 223.510 170.721,224.127 169.576,224.608 169.087 C 225.089 168.599,225.701 167.784,225.968 167.276 C 226.984 165.344,228.097 166.272,228.877 169.702 C 229.265 171.408,229.950 173.562,230.398 174.490 C 230.846 175.418,231.397 177.327,231.621 178.734 C 231.846 180.140,232.409 182.033,232.872 182.941 C 233.335 183.848,233.973 185.853,234.291 187.395 C 234.608 188.938,235.203 190.747,235.614 191.415 C 236.443 192.764,238.146 199.840,237.783 200.427 C 237.334 201.154,235.891 200.782,233.544 199.333 C 231.850 198.287,230.685 197.857,229.484 197.833 L 227.800 197.800 226.947 200.400 C 226.478 201.830,225.976 203.672,225.831 204.493 L 225.567 205.985 227.283 206.257 C 228.450 206.442,229.417 206.944,230.300 207.825 L 231.600 209.120 231.600 253.084 C 231.600 301.208,231.490 299.007,233.846 298.095 C 234.481 297.849,235.990 297.525,237.200 297.374 C 238.631 297.195,239.795 296.768,240.531 296.150 C 241.153 295.627,242.143 295.092,242.731 294.960 C 245.894 294.250,246.739 293.930,247.407 293.192 C 247.811 292.746,249.100 292.103,250.272 291.762 C 251.453 291.418,252.579 290.813,252.798 290.403 C 253.016 289.997,253.825 289.456,254.596 289.201 C 255.367 288.947,256.234 288.401,256.524 287.987 C 256.813 287.574,257.881 286.880,258.897 286.444 C 259.913 286.009,260.943 285.281,261.186 284.826 C 261.429 284.372,261.880 284.000,262.187 284.000 C 262.754 284.000,270.000 277.016,270.000 276.470 C 270.000 276.306,270.540 275.854,271.200 275.464 C 271.894 275.054,272.400 274.419,272.400 273.958 C 272.400 273.520,272.825 272.765,273.344 272.281 C 273.864 271.796,274.671 270.647,275.139 269.726 C 275.607 268.806,276.352 267.799,276.795 267.488 C 277.283 267.147,277.740 266.178,277.954 265.032 C 278.157 263.947,278.735 262.684,279.308 262.070 C 280.037 261.291,280.387 260.347,280.595 258.600 C 280.901 256.030,281.241 255.159,282.385 254.015 C 284.102 252.298,283.862 223.382,282.116 221.523 C 281.109 220.451,280.424 217.840,280.410 215.022 C 280.402 213.452,280.188 212.823,279.375 211.974 C 278.595 211.159,278.245 210.199,277.912 207.954 C 277.554 205.541,277.267 204.810,276.337 203.941 C 275.551 203.207,275.200 202.488,275.200 201.613 C 275.200 200.139,274.578 198.816,273.538 198.078 C 273.133 197.791,272.685 196.822,272.541 195.924 C 272.389 194.969,271.792 193.735,271.103 192.950 C 270.380 192.127,269.841 190.985,269.708 189.993 C 269.554 188.846,269.180 188.155,268.416 187.611 C 267.779 187.158,267.133 186.142,266.833 185.123 C 266.553 184.175,265.802 182.915,265.162 182.323 C 264.523 181.730,264.000 180.990,264.000 180.678 C 264.000 180.365,263.447 179.415,262.772 178.565 C 262.097 177.715,261.442 176.508,261.317 175.883 C 261.191 175.257,260.654 174.461,260.122 174.112 C 259.589 173.763,258.801 172.785,258.369 171.939 C 257.937 171.093,257.397 170.400,257.170 170.400 C 256.942 170.400,256.333 169.455,255.816 168.300 C 255.300 167.145,254.500 165.973,254.038 165.697 C 253.577 165.420,253.200 164.926,253.200 164.600 C 253.200 164.273,252.642 163.510,251.960 162.903 C 251.278 162.296,250.481 161.350,250.188 160.800 C 249.896 160.250,249.104 159.204,248.429 158.475 C 247.753 157.747,247.200 156.896,247.200 156.585 C 247.200 156.273,246.741 155.718,246.181 155.351 C 245.620 154.983,244.917 154.097,244.617 153.380 C 244.318 152.663,243.716 151.964,243.280 151.825 C 242.843 151.687,242.265 151.039,241.994 150.387 C 241.724 149.734,241.279 149.200,241.005 149.200 C 240.731 149.200,240.030 148.480,239.447 147.600 C 238.865 146.720,238.245 146.000,238.070 146.000 C 237.894 146.000,236.772 144.796,235.575 143.323 C 234.379 141.851,232.770 139.980,232.000 139.165 C 231.230 138.351,229.340 136.313,227.800 134.636 C 226.260 132.960,224.325 130.886,223.500 130.026 C 222.675 129.166,222.000 128.290,222.000 128.078 C 222.000 127.866,221.642 127.600,221.203 127.485 C 220.765 127.370,220.104 126.748,219.733 126.103 C 219.363 125.457,218.686 124.765,218.230 124.565 C 217.773 124.364,217.222 123.795,217.005 123.300 C 216.788 122.805,216.457 122.400,216.269 122.400 C 216.082 122.400,215.138 121.635,214.172 120.700 C 213.206 119.765,212.070 118.667,211.648 118.260 C 211.225 117.853,210.666 117.313,210.404 117.060 C 209.639 116.319,207.047 113.968,204.385 111.600 C 203.025 110.390,201.615 109.097,201.251 108.727 C 200.678 108.143,198.800 106.778,197.344 105.886 C 197.085 105.728,196.613 106.026,196.254 106.573 M218.155 223.847 C 217.792 224.714,217.680 225.555,217.875 225.947 C 218.054 226.306,218.290 243.700,218.400 264.600 C 218.532 289.634,218.736 302.566,219.000 302.500 C 219.574 302.357,219.755 222.400,219.182 222.400 C 218.949 222.400,218.487 223.051,218.155 223.847 M171.657 263.965 C 171.242 264.222,171.143 267.801,171.169 281.643 C 171.187 291.189,171.201 299.225,171.201 299.500 C 171.200 299.775,171.470 300.000,171.800 300.000 C 172.130 300.000,172.401 299.865,172.402 299.700 C 172.486 285.589,172.443 263.910,172.331 263.797 C 172.246 263.713,171.943 263.788,171.657 263.965 " stroke="none" fill="#04043c" fill-rule="evenodd"></path><path id="path2" d="M225.968 167.276 C 225.701 167.784,225.089 168.599,224.608 169.087 C 224.127 169.576,223.510 170.721,223.237 171.634 C 222.616 173.706,220.796 177.150,218.100 181.354 C 217.385 182.469,216.800 183.611,216.800 183.891 C 216.800 184.171,216.623 184.400,216.407 184.400 C 216.190 184.400,215.538 185.345,214.958 186.500 C 214.377 187.655,213.647 188.870,213.336 189.200 C 211.378 191.276,207.980 197.314,208.555 197.694 C 209.399 198.251,211.855 197.998,213.552 197.178 C 215.441 196.265,218.158 195.998,218.820 196.660 C 219.432 197.272,217.367 205.223,216.187 206.800 C 215.940 207.130,215.253 208.547,214.659 209.950 C 214.065 211.352,213.224 212.952,212.790 213.504 C 212.355 214.056,212.000 214.745,212.000 215.034 C 212.000 215.323,211.771 215.704,211.490 215.880 C 211.210 216.056,210.670 216.689,210.290 217.287 C 209.910 217.885,209.059 218.926,208.399 219.601 C 207.740 220.275,207.200 221.187,207.200 221.627 C 207.200 225.270,200.420 231.588,196.500 231.598 C 196.005 231.599,195.196 232.005,194.701 232.500 C 192.888 234.316,186.134 238.387,184.904 238.404 C 184.737 238.407,183.970 239.295,183.200 240.378 C 181.775 242.383,180.878 242.945,178.419 243.372 C 177.660 243.504,176.619 244.007,176.106 244.489 C 175.292 245.253,175.019 245.307,173.967 244.910 C 173.216 244.627,172.354 244.583,171.681 244.795 C 171.086 244.982,169.520 245.449,168.200 245.833 C 166.880 246.218,165.140 246.858,164.334 247.257 C 163.528 247.655,160.948 248.281,158.600 248.646 C 154.161 249.338,153.714 249.606,154.145 251.323 C 154.474 252.632,158.861 253.435,159.561 252.314 C 160.028 251.566,161.789 251.334,162.181 251.969 C 162.307 252.173,163.352 252.646,164.505 253.021 C 165.657 253.396,166.902 253.966,167.271 254.287 C 168.700 255.532,168.617 260.983,167.147 262.453 C 165.989 263.611,166.247 264.000,168.176 264.000 C 169.153 264.000,170.063 264.178,170.197 264.396 C 170.461 264.822,171.922 264.000,173.510 262.531 C 174.027 262.053,175.154 261.543,176.013 261.398 C 176.873 261.253,178.067 260.748,178.667 260.276 C 179.416 259.687,180.266 259.435,181.379 259.472 C 182.746 259.517,183.251 259.287,184.600 258.006 C 185.480 257.170,186.650 256.357,187.200 256.199 C 187.750 256.041,188.740 255.408,189.400 254.792 C 190.060 254.176,191.362 253.448,192.294 253.174 C 193.226 252.901,194.247 252.282,194.564 251.799 C 195.443 250.457,203.253 242.660,204.516 241.864 C 205.130 241.477,205.928 240.540,206.290 239.780 C 206.652 239.021,207.091 238.400,207.266 238.400 C 207.441 238.400,207.972 237.635,208.446 236.700 C 208.920 235.765,209.804 234.430,210.411 233.734 C 211.019 233.038,211.723 231.839,211.977 231.070 C 212.231 230.300,212.681 229.578,212.978 229.464 C 213.274 229.350,213.936 228.512,214.448 227.601 C 215.087 226.462,215.721 225.876,216.474 225.725 C 217.283 225.563,217.688 225.145,218.025 224.125 C 218.275 223.365,218.732 222.647,219.040 222.529 C 219.395 222.393,219.601 221.706,219.603 220.657 C 219.609 217.577,220.413 213.939,221.413 212.466 C 221.953 211.672,222.685 210.150,223.039 209.084 C 223.445 207.860,224.014 206.994,224.581 206.736 C 225.291 206.413,225.621 205.683,226.155 203.263 C 227.563 196.875,228.645 196.309,233.599 199.367 C 235.896 200.785,237.337 201.150,237.783 200.427 C 238.146 199.840,236.443 192.764,235.614 191.415 C 235.203 190.747,234.608 188.938,234.291 187.395 C 233.973 185.853,233.335 183.848,232.872 182.941 C 232.409 182.033,231.846 180.140,231.621 178.734 C 231.397 177.327,230.846 175.418,230.398 174.490 C 229.950 173.562,229.265 171.408,228.877 169.702 C 228.097 166.272,226.984 165.344,225.968 167.276 " stroke="none" fill="#b11418" fill-rule="evenodd"></path><path id="path3" d="M195.400 84.478 C 194.346 85.076,187.604 91.101,186.671 92.279 C 186.270 92.786,185.681 93.200,185.362 93.200 C 185.044 93.200,184.572 93.663,184.314 94.230 C 184.055 94.796,183.352 95.515,182.750 95.826 C 182.149 96.137,181.542 96.753,181.401 97.196 C 181.261 97.638,180.972 98.000,180.758 98.000 C 180.545 98.000,179.584 98.765,178.623 99.700 C 177.662 100.635,176.683 101.580,176.449 101.800 C 176.214 102.020,175.043 103.235,173.846 104.500 C 172.649 105.765,171.480 106.800,171.249 106.800 C 171.017 106.800,170.616 107.196,170.357 107.681 C 169.774 108.771,166.236 112.399,165.753 112.403 C 165.559 112.404,165.093 112.944,164.719 113.603 C 164.344 114.261,163.622 114.990,163.114 115.221 C 162.606 115.452,161.886 116.172,161.514 116.821 C 161.142 117.469,160.581 118.000,160.267 118.000 C 159.954 118.000,159.483 118.517,159.221 119.148 C 158.960 119.780,158.308 120.496,157.773 120.740 C 157.238 120.983,156.800 121.363,156.800 121.583 C 156.800 121.803,155.032 123.776,152.872 125.967 C 150.711 128.158,148.436 130.682,147.817 131.575 C 147.198 132.469,146.550 133.200,146.378 133.200 C 146.206 133.200,145.675 133.832,145.197 134.605 C 144.332 136.004,143.047 137.518,140.788 139.800 C 140.135 140.460,139.600 141.192,139.600 141.427 C 139.600 141.661,139.015 142.407,138.300 143.085 C 137.585 143.762,136.329 145.190,135.510 146.258 C 134.690 147.326,133.385 148.982,132.610 149.938 C 131.834 150.894,131.200 151.901,131.200 152.176 C 131.200 152.638,129.891 154.256,127.436 156.829 C 126.897 157.395,126.128 158.565,125.728 159.429 C 125.327 160.293,124.682 161.237,124.294 161.527 C 123.906 161.816,123.317 162.702,122.986 163.495 C 122.655 164.287,122.012 165.196,121.558 165.515 C 121.103 165.833,120.393 166.882,119.980 167.847 C 119.567 168.811,119.036 169.600,118.800 169.600 C 118.564 169.600,118.010 170.444,117.568 171.475 C 117.126 172.506,116.415 173.594,115.988 173.894 C 115.561 174.193,114.932 175.400,114.590 176.576 C 114.182 177.980,113.715 178.781,113.233 178.907 C 112.777 179.027,112.245 179.860,111.832 181.103 C 111.466 182.204,110.831 183.410,110.420 183.782 C 110.009 184.154,109.381 185.350,109.025 186.441 C 108.668 187.532,108.025 188.775,107.596 189.204 C 107.166 189.634,106.606 190.815,106.351 191.829 C 106.096 192.843,105.433 194.213,104.878 194.872 C 104.268 195.597,103.742 196.879,103.546 198.113 C 103.327 199.504,102.901 200.455,102.212 201.094 C 101.655 201.610,101.199 202.070,101.198 202.116 C 101.148 203.925,100.179 207.275,99.369 208.445 C 98.584 209.577,98.228 210.750,97.971 213.043 C 97.711 215.357,97.358 216.506,96.549 217.673 C 95.570 219.086,95.448 219.685,95.190 224.325 C 94.953 228.586,94.749 229.718,93.953 231.212 C 92.512 233.915,92.476 250.820,93.905 253.495 C 94.589 254.775,94.898 256.273,95.167 259.618 C 95.471 263.406,95.674 264.264,96.570 265.556 C 97.178 266.435,97.800 268.111,98.056 269.561 C 98.366 271.320,98.785 272.324,99.476 272.965 C 100.016 273.466,100.632 274.653,100.845 275.604 C 101.059 276.555,101.766 277.939,102.417 278.680 C 103.068 279.422,103.600 280.278,103.600 280.583 C 103.600 280.889,104.025 281.647,104.545 282.269 C 105.065 282.891,105.868 284.143,106.328 285.051 C 106.789 285.959,107.447 286.809,107.791 286.941 C 108.135 287.073,108.785 287.807,109.237 288.573 C 109.689 289.338,110.386 290.068,110.786 290.196 C 111.186 290.323,111.733 290.955,112.000 291.600 C 112.267 292.245,112.829 292.882,113.247 293.015 C 113.666 293.148,114.275 293.771,114.600 294.400 C 114.925 295.029,115.558 295.660,116.006 295.802 C 116.455 295.944,117.113 296.506,117.470 297.051 C 117.827 297.595,118.619 298.300,119.231 298.616 C 119.843 298.932,120.445 299.512,120.569 299.903 C 120.694 300.295,121.416 300.950,122.174 301.358 C 122.933 301.767,123.651 302.357,123.772 302.670 C 123.892 302.983,124.982 303.678,126.195 304.215 C 127.408 304.751,128.400 305.379,128.400 305.609 C 128.400 305.840,129.165 306.359,130.100 306.762 C 131.035 307.166,132.148 307.885,132.574 308.361 C 132.999 308.836,134.129 309.422,135.084 309.663 C 136.039 309.903,137.149 310.517,137.550 311.027 C 138.211 311.867,138.724 312.077,141.431 312.615 C 141.888 312.706,142.767 313.248,143.383 313.820 C 144.153 314.533,145.270 314.989,146.952 315.277 C 148.298 315.507,149.760 316.011,150.200 316.398 C 151.519 317.556,152.467 317.887,155.308 318.183 C 157.346 318.396,158.312 318.714,159.208 319.469 C 160.230 320.328,161.004 320.524,164.611 320.837 C 168.137 321.143,169.083 321.376,170.433 322.269 C 172.015 323.317,172.202 323.341,180.922 323.626 C 185.805 323.786,190.277 324.104,190.859 324.333 C 194.485 325.757,200.711 325.782,207.600 324.401 C 208.810 324.158,213.618 323.817,218.285 323.643 C 226.517 323.335,226.818 323.295,228.355 322.277 C 229.521 321.506,230.662 321.167,232.670 320.996 C 237.937 320.549,238.790 320.357,239.982 319.354 C 240.911 318.572,241.783 318.305,244.014 318.118 C 246.432 317.915,247.029 317.709,247.991 316.748 C 248.864 315.875,249.647 315.554,251.418 315.346 C 253.091 315.150,254.050 314.782,254.956 313.989 C 255.640 313.391,256.830 312.774,257.600 312.618 C 258.370 312.461,259.720 311.834,260.600 311.223 C 261.480 310.613,262.859 309.899,263.665 309.637 C 264.470 309.376,265.231 308.895,265.356 308.570 C 265.481 308.245,266.442 307.612,267.492 307.164 C 268.541 306.715,269.885 305.820,270.477 305.174 C 271.070 304.528,271.929 304.000,272.386 304.000 C 272.883 304.000,273.399 303.601,273.669 303.008 C 273.918 302.462,274.490 301.898,274.941 301.755 C 276.865 301.144,286.233 292.232,287.492 289.815 C 287.831 289.163,288.534 288.295,289.054 287.886 C 289.574 287.477,290.000 286.867,290.000 286.531 C 290.000 286.196,290.543 285.414,291.206 284.794 C 291.870 284.174,292.697 282.977,293.045 282.134 C 293.392 281.290,294.013 280.235,294.425 279.789 C 294.836 279.342,295.427 278.259,295.736 277.380 C 296.046 276.502,296.756 275.111,297.313 274.291 C 297.892 273.437,298.444 271.901,298.603 270.699 C 298.795 269.256,299.204 268.257,299.914 267.501 C 300.861 266.495,300.972 266.002,301.246 261.623 C 301.487 257.755,301.700 256.629,302.361 255.721 C 304.642 252.590,304.433 235.131,302.081 232.297 C 301.780 231.935,301.463 229.526,301.272 226.151 C 300.985 221.093,300.863 220.458,299.896 219.000 C 299.313 218.120,298.728 216.590,298.597 215.600 C 298.078 211.688,297.936 211.185,297.040 210.112 C 296.466 209.425,295.941 208.020,295.664 206.435 C 295.410 204.975,294.883 203.510,294.443 203.035 C 294.017 202.576,293.359 201.120,292.980 199.800 C 292.602 198.480,291.866 196.891,291.346 196.269 C 290.825 195.647,290.288 194.440,290.152 193.587 C 290.015 192.734,289.404 191.476,288.793 190.792 C 288.182 190.107,287.472 188.714,287.216 187.696 C 286.959 186.678,286.311 185.438,285.775 184.942 C 285.239 184.445,284.800 183.683,284.800 183.250 C 284.800 182.816,284.354 181.931,283.808 181.282 C 283.262 180.634,282.464 179.282,282.033 178.277 C 281.603 177.273,280.811 176.164,280.274 175.812 C 279.643 175.399,279.212 174.646,279.057 173.686 C 278.907 172.764,278.358 171.770,277.607 171.065 C 276.942 170.441,276.291 169.505,276.161 168.986 C 276.030 168.467,275.507 167.769,274.997 167.435 C 274.487 167.100,273.951 166.288,273.806 165.628 C 273.661 164.968,273.097 164.017,272.553 163.514 C 272.008 163.012,271.210 161.931,270.780 161.113 C 270.350 160.296,269.652 159.442,269.231 159.216 C 268.809 158.991,268.264 158.201,268.020 157.462 C 267.776 156.723,267.146 155.713,266.621 155.219 C 266.095 154.725,265.459 153.824,265.207 153.217 C 264.956 152.610,264.221 151.723,263.575 151.245 C 262.929 150.767,262.400 150.133,262.400 149.836 C 262.400 149.538,261.770 148.814,261.000 148.227 C 260.230 147.640,259.600 146.813,259.600 146.389 C 259.600 145.965,259.150 145.324,258.600 144.963 C 258.050 144.603,257.600 144.103,257.600 143.853 C 257.600 143.603,256.790 142.529,255.800 141.465 C 254.810 140.402,253.999 139.413,253.998 139.266 C 253.997 139.017,249.916 134.480,247.283 131.800 C 246.634 131.140,245.901 130.207,245.652 129.727 C 245.404 129.247,244.860 128.746,244.443 128.614 C 244.027 128.482,243.475 127.863,243.216 127.239 C 242.957 126.614,242.308 125.904,241.773 125.660 C 241.238 125.417,240.800 124.951,240.800 124.626 C 240.800 124.300,240.170 123.531,239.400 122.917 C 238.630 122.303,238.000 121.661,238.000 121.491 C 238.000 120.849,219.760 102.388,214.396 97.600 C 213.040 96.390,210.680 94.195,209.152 92.723 C 207.624 91.250,206.029 89.936,205.607 89.802 C 205.186 89.669,204.729 89.206,204.592 88.775 C 204.455 88.344,203.843 87.732,203.231 87.416 C 202.619 87.100,201.834 86.406,201.486 85.875 C 200.531 84.417,196.954 83.597,195.400 84.478 M198.692 85.140 C 199.504 85.377,203.131 88.442,206.808 92.000 C 207.604 92.770,210.203 95.200,212.583 97.400 C 217.622 102.056,230.939 115.265,235.000 119.634 C 240.923 126.008,242.051 127.249,246.458 132.248 C 252.346 138.927,255.421 142.560,257.400 145.179 C 258.280 146.344,259.487 147.820,260.081 148.460 C 260.676 149.101,261.559 150.204,262.044 150.912 C 262.528 151.621,263.136 152.380,263.396 152.600 C 263.655 152.820,264.302 153.645,264.834 154.433 C 266.875 157.460,268.880 160.291,270.618 162.600 C 271.612 163.920,272.687 165.573,273.006 166.273 C 273.326 166.973,273.759 167.651,273.968 167.780 C 274.560 168.146,277.939 173.356,278.580 174.890 C 278.896 175.646,279.463 176.519,279.842 176.832 C 280.220 177.144,280.882 178.210,281.313 179.200 C 281.744 180.190,282.418 181.360,282.812 181.800 C 283.206 182.240,283.949 183.435,284.464 184.455 C 288.889 193.227,290.400 196.311,290.400 196.572 C 290.400 196.740,290.737 197.354,291.148 197.938 C 291.560 198.522,292.186 200.007,292.541 201.237 C 292.896 202.467,293.522 203.907,293.933 204.437 C 294.343 204.967,294.801 206.180,294.950 207.133 C 295.098 208.086,295.670 209.754,296.220 210.840 C 296.770 211.926,297.506 214.206,297.855 215.907 C 298.204 217.608,298.843 219.720,299.275 220.600 C 299.784 221.636,300.254 223.995,300.609 227.291 C 300.911 230.092,301.480 233.602,301.873 235.091 C 302.884 238.927,302.905 250.500,301.906 253.400 C 301.527 254.500,301.032 257.110,300.806 259.200 C 300.251 264.320,300.059 265.132,298.952 267.035 C 298.428 267.934,298.000 269.078,298.000 269.577 C 298.000 270.467,295.203 276.395,292.678 280.858 C 289.226 286.959,279.934 297.367,274.800 300.883 C 274.250 301.260,273.350 301.945,272.800 302.405 C 270.750 304.119,267.405 306.400,266.941 306.400 C 266.677 306.400,265.942 306.837,265.307 307.371 C 264.672 307.905,263.173 308.808,261.976 309.377 C 260.779 309.946,259.350 310.666,258.800 310.977 C 256.191 312.452,250.846 314.757,249.513 314.981 C 248.695 315.119,247.763 315.494,247.443 315.814 C 246.665 316.592,245.412 317.032,243.000 317.375 C 241.900 317.532,240.020 318.118,238.821 318.679 C 237.468 319.312,235.184 319.888,232.795 320.201 C 230.678 320.477,228.359 321.008,227.640 321.379 C 225.961 322.247,222.989 322.695,217.000 322.983 C 214.360 323.110,209.365 323.414,205.900 323.658 C 201.275 323.985,197.925 323.985,193.300 323.659 C 189.835 323.414,184.840 323.107,182.200 322.975 C 176.208 322.678,172.907 322.192,171.245 321.362 C 170.535 321.008,168.054 320.469,165.732 320.164 C 163.085 319.816,161.041 319.321,160.255 318.836 C 159.565 318.411,157.583 317.796,155.851 317.470 C 154.119 317.144,152.229 316.531,151.651 316.107 C 151.073 315.683,149.717 315.116,148.637 314.847 C 147.558 314.577,145.506 313.737,144.077 312.978 C 142.648 312.220,141.171 311.600,140.794 311.600 C 140.416 311.600,139.665 311.252,139.124 310.826 C 138.582 310.400,137.163 309.584,135.970 309.013 C 132.982 307.583,130.374 306.006,128.835 304.700 C 128.122 304.095,127.367 303.600,127.158 303.600 C 126.948 303.600,125.837 302.887,124.688 302.016 C 118.293 297.167,108.674 287.368,107.003 284.000 C 106.621 283.230,105.914 282.150,105.432 281.600 C 104.164 280.154,101.753 275.982,101.450 274.710 C 101.307 274.111,100.767 272.997,100.250 272.236 C 99.733 271.474,99.016 269.681,98.657 268.252 C 98.298 266.823,97.650 265.053,97.217 264.318 C 96.709 263.458,96.268 261.563,95.977 258.992 C 95.729 256.796,95.169 253.566,94.732 251.813 C 93.469 246.741,93.620 236.892,95.040 231.800 C 95.346 230.700,95.758 227.788,95.956 225.329 C 96.226 221.962,96.561 220.321,97.313 218.678 C 97.862 217.478,98.534 215.170,98.805 213.548 C 99.077 211.927,99.634 210.125,100.045 209.545 C 100.455 208.964,101.075 207.266,101.421 205.770 C 101.768 204.274,102.419 202.535,102.868 201.905 C 103.316 201.275,103.916 199.875,104.202 198.794 C 104.487 197.712,105.098 196.348,105.559 195.762 C 106.020 195.175,106.594 193.966,106.834 193.075 C 107.074 192.184,107.682 190.903,108.185 190.228 C 108.689 189.552,109.319 188.320,109.585 187.490 C 109.851 186.659,110.477 185.489,110.976 184.890 C 111.476 184.290,112.112 183.080,112.390 182.200 C 112.667 181.320,113.394 180.060,114.003 179.400 C 114.613 178.740,115.244 177.762,115.406 177.228 C 115.568 176.693,116.217 175.541,116.850 174.668 C 117.482 173.794,118.000 172.882,118.000 172.640 C 118.001 172.398,118.468 171.660,119.038 171.000 C 119.609 170.340,120.355 169.260,120.696 168.600 C 121.037 167.940,121.830 166.774,122.458 166.009 C 123.086 165.244,123.600 164.417,123.600 164.171 C 123.600 163.925,123.978 163.382,124.441 162.963 C 124.903 162.544,125.552 161.680,125.882 161.042 C 126.212 160.404,127.498 158.547,128.741 156.916 C 129.983 155.285,131.361 153.467,131.803 152.875 C 132.244 152.284,133.414 150.740,134.403 149.444 C 135.391 148.148,136.550 146.618,136.978 146.044 C 137.405 145.470,138.369 144.280,139.119 143.400 C 139.869 142.520,141.049 141.121,141.741 140.291 C 142.434 139.461,143.459 138.291,144.020 137.691 C 144.580 137.091,145.508 135.970,146.080 135.200 C 146.653 134.430,147.790 133.080,148.608 132.200 C 149.425 131.320,150.545 130.060,151.095 129.400 C 156.982 122.343,179.695 99.725,192.400 88.266 C 196.120 84.912,196.782 84.583,198.692 85.140 M195.362 106.102 C 194.681 106.816,192.629 108.750,190.801 110.400 C 186.656 114.142,165.978 134.748,162.200 138.900 C 159.637 141.717,158.432 143.076,155.600 146.342 C 155.050 146.976,153.250 149.174,151.600 151.226 C 149.950 153.278,148.087 155.493,147.461 156.148 C 146.834 156.804,145.889 157.983,145.359 158.770 C 144.829 159.556,143.765 161.010,142.995 162.000 C 142.224 162.990,140.967 164.733,140.201 165.874 C 139.436 167.014,138.625 168.061,138.399 168.201 C 138.173 168.340,137.624 169.117,137.178 169.927 C 136.326 171.476,135.131 173.268,133.395 175.600 C 131.997 177.477,129.200 182.255,129.200 182.764 C 129.200 182.989,128.686 183.763,128.057 184.486 C 127.429 185.209,126.693 186.480,126.423 187.310 C 126.152 188.141,125.507 189.324,124.989 189.940 C 124.471 190.556,123.838 191.890,123.582 192.905 C 123.327 193.920,122.772 195.063,122.349 195.446 C 121.927 195.828,121.307 197.086,120.971 198.242 C 120.635 199.398,120.003 200.797,119.567 201.351 C 119.131 201.905,118.463 203.583,118.083 205.079 C 117.702 206.576,117.013 208.430,116.551 209.200 C 116.089 209.970,115.502 211.921,115.246 213.535 C 114.990 215.149,114.339 217.520,113.798 218.805 C 111.432 224.425,111.395 249.473,113.746 253.970 C 114.272 254.976,114.999 256.970,115.361 258.400 C 115.723 259.830,116.347 261.450,116.747 262.000 C 117.146 262.550,117.698 263.680,117.971 264.510 C 118.245 265.341,118.878 266.511,119.378 267.110 C 119.878 267.710,120.579 268.768,120.934 269.462 C 121.290 270.156,121.819 270.966,122.110 271.262 C 122.400 271.558,123.236 272.674,123.967 273.742 C 125.323 275.722,133.043 283.600,133.629 283.600 C 133.806 283.600,134.783 284.320,135.800 285.200 C 136.817 286.080,137.801 286.800,137.986 286.800 C 138.172 286.800,139.078 287.430,140.000 288.200 C 140.922 288.970,141.897 289.600,142.167 289.600 C 142.438 289.600,143.546 290.231,144.630 291.002 C 145.713 291.772,147.230 292.610,148.000 292.862 C 148.770 293.115,149.946 293.736,150.613 294.242 C 151.281 294.749,152.581 295.283,153.503 295.431 C 154.424 295.578,155.758 296.127,156.467 296.649 C 159.456 298.855,159.374 299.423,159.600 275.114 C 159.823 251.110,159.714 251.975,162.413 252.856 C 167.623 254.558,167.539 254.477,168.150 258.400 C 168.236 258.950,168.248 258.436,168.178 257.259 C 168.020 254.631,167.442 253.948,164.619 253.059 C 163.414 252.679,162.321 252.195,162.190 251.984 C 161.753 251.277,160.055 251.587,159.423 252.489 C 158.879 253.265,158.800 255.968,158.800 273.839 C 158.800 285.093,158.686 294.871,158.546 295.569 L 158.292 296.838 157.405 296.004 C 156.905 295.535,155.627 295.030,154.484 294.849 C 153.105 294.631,152.010 294.140,151.080 293.324 C 150.263 292.606,149.043 292.013,148.061 291.856 C 146.930 291.675,146.209 291.281,145.763 290.599 C 145.384 290.021,144.419 289.408,143.456 289.134 C 142.545 288.874,141.315 288.153,140.723 287.531 C 140.130 286.909,139.412 286.400,139.127 286.400 C 138.842 286.400,138.157 285.950,137.604 285.401 C 136.265 284.068,132.534 281.127,131.375 280.489 C 130.865 280.209,130.334 279.622,130.195 279.185 C 130.057 278.748,129.416 278.119,128.772 277.785 C 128.127 277.452,127.600 277.034,127.600 276.855 C 127.600 276.501,124.155 272.005,122.654 270.400 C 122.140 269.850,121.488 268.808,121.205 268.085 C 120.922 267.361,120.381 266.604,120.003 266.401 C 119.624 266.199,119.010 264.946,118.637 263.617 C 118.264 262.287,117.831 261.200,117.676 261.200 C 117.071 261.200,116.325 259.411,115.950 257.059 C 115.710 255.549,115.143 253.997,114.482 253.038 C 113.208 251.189,112.792 243.934,113.131 229.482 L 113.317 221.563 114.420 220.175 C 115.248 219.134,115.587 218.164,115.778 216.293 C 116.251 211.669,116.459 210.853,117.431 209.804 C 117.964 209.229,118.401 208.723,118.402 208.679 C 118.453 206.928,119.387 203.694,120.129 202.701 C 120.663 201.985,121.329 200.410,121.609 199.200 C 121.906 197.916,122.506 196.637,123.050 196.128 C 123.597 195.616,124.094 194.550,124.254 193.550 C 124.417 192.534,124.910 191.490,125.472 190.968 C 125.992 190.487,126.713 189.217,127.075 188.146 C 127.437 187.076,128.042 185.980,128.419 185.711 C 128.796 185.442,129.389 184.510,129.737 183.640 C 130.085 182.771,130.719 181.731,131.146 181.330 C 131.573 180.928,132.126 179.838,132.375 178.907 C 132.624 177.976,133.179 177.025,133.609 176.795 C 134.040 176.565,134.684 175.797,135.042 175.088 C 135.399 174.380,136.099 173.350,136.597 172.800 C 137.096 172.250,137.716 171.134,137.976 170.319 C 138.237 169.504,138.789 168.731,139.204 168.599 C 139.619 168.467,140.070 168.011,140.205 167.585 C 140.340 167.159,140.970 166.292,141.605 165.656 C 142.240 165.021,143.149 163.754,143.626 162.840 C 144.102 161.927,144.816 161.005,145.213 160.793 C 145.610 160.580,146.055 159.862,146.201 159.196 C 146.369 158.429,146.883 157.771,147.605 157.397 C 148.231 157.074,148.850 156.473,148.980 156.063 C 149.110 155.653,149.708 154.847,150.308 154.273 C 150.909 153.698,152.210 152.210,153.200 150.966 C 154.190 149.722,155.585 148.068,156.300 147.291 C 157.015 146.513,157.600 145.693,157.600 145.467 C 157.600 145.241,158.185 144.465,158.900 143.741 C 159.615 143.017,160.830 141.708,161.600 140.832 C 162.370 139.956,163.238 139.005,163.529 138.719 C 163.819 138.434,164.359 137.903,164.729 137.541 C 165.098 137.178,165.806 136.458,166.302 135.941 C 167.633 134.552,167.472 134.717,174.358 127.700 C 177.867 124.125,180.903 121.200,181.105 121.200 C 181.306 121.200,181.678 120.747,181.930 120.194 C 182.182 119.641,182.837 118.984,183.386 118.733 C 183.935 118.483,184.487 117.955,184.613 117.559 C 184.739 117.163,185.462 116.456,186.221 115.987 C 186.979 115.518,187.600 114.884,187.600 114.578 C 187.600 114.271,188.095 113.763,188.700 113.449 C 189.305 113.135,190.210 112.320,190.712 111.639 C 191.214 110.958,191.884 110.400,192.202 110.400 C 192.519 110.400,193.059 109.860,193.400 109.200 C 193.741 108.540,194.214 108.000,194.450 108.000 C 194.686 108.000,195.368 107.476,195.966 106.836 L 197.054 105.672 198.814 106.854 C 199.782 107.504,200.875 108.343,201.243 108.718 C 201.611 109.093,203.025 110.390,204.385 111.600 C 207.047 113.968,209.639 116.319,210.404 117.060 C 210.666 117.313,211.225 117.853,211.648 118.260 C 212.070 118.667,213.206 119.765,214.172 120.700 C 215.138 121.635,216.082 122.400,216.269 122.400 C 216.457 122.400,216.788 122.805,217.005 123.300 C 217.222 123.795,217.773 124.364,218.230 124.565 C 218.686 124.765,219.363 125.457,219.733 126.103 C 220.104 126.748,220.765 127.370,221.203 127.485 C 221.642 127.600,222.000 127.866,222.000 128.078 C 222.000 128.290,222.675 129.166,223.500 130.026 C 224.325 130.886,226.260 132.960,227.800 134.636 C 229.340 136.313,231.230 138.351,232.000 139.165 C 232.770 139.980,234.379 141.851,235.575 143.323 C 236.772 144.796,237.894 146.000,238.070 146.000 C 238.245 146.000,238.865 146.720,239.447 147.600 C 240.030 148.480,240.731 149.200,241.005 149.200 C 241.279 149.200,241.724 149.734,241.994 150.387 C 242.265 151.039,242.843 151.687,243.280 151.825 C 243.716 151.964,244.318 152.663,244.617 153.380 C 244.917 154.097,245.620 154.983,246.181 155.351 C 246.741 155.718,247.200 156.273,247.200 156.585 C 247.200 156.896,247.753 157.747,248.429 158.475 C 249.104 159.204,249.896 160.250,250.188 160.800 C 250.481 161.350,251.278 162.296,251.960 162.903 C 252.642 163.510,253.200 164.273,253.200 164.600 C 253.200 164.926,253.577 165.420,254.038 165.697 C 254.500 165.973,255.300 167.145,255.816 168.300 C 256.333 169.455,256.942 170.400,257.170 170.400 C 257.397 170.400,257.937 171.093,258.369 171.939 C 258.801 172.785,259.589 173.763,260.122 174.112 C 260.654 174.461,261.191 175.257,261.317 175.883 C 261.442 176.508,262.097 177.715,262.772 178.565 C 263.447 179.415,264.000 180.365,264.000 180.678 C 264.000 180.990,264.523 181.730,265.162 182.323 C 265.802 182.915,266.553 184.175,266.833 185.123 C 267.133 186.142,267.779 187.158,268.416 187.611 C 269.180 188.155,269.554 188.846,269.708 189.993 C 269.841 190.985,270.380 192.127,271.103 192.950 C 271.792 193.735,272.389 194.969,272.541 195.924 C 272.685 196.822,273.133 197.791,273.538 198.078 C 274.578 198.816,275.200 200.139,275.200 201.613 C 275.200 202.488,275.551 203.207,276.337 203.941 C 277.267 204.810,277.554 205.541,277.912 207.954 C 278.245 210.199,278.595 211.159,279.375 211.974 C 280.188 212.823,280.402 213.452,280.410 215.022 C 280.424 217.840,281.109 220.451,282.116 221.523 C 283.862 223.382,284.102 252.298,282.385 254.015 C 281.241 255.159,280.901 256.030,280.595 258.600 C 280.387 260.347,280.037 261.291,279.308 262.070 C 278.735 262.684,278.157 263.947,277.954 265.032 C 277.740 266.178,277.283 267.147,276.795 267.488 C 276.352 267.799,275.607 268.806,275.139 269.726 C 274.671 270.647,273.864 271.796,273.344 272.281 C 272.825 272.765,272.400 273.520,272.400 273.958 C 272.400 274.419,271.894 275.054,271.200 275.464 C 270.540 275.854,270.000 276.306,270.000 276.470 C 270.000 277.016,262.754 284.000,262.187 284.000 C 261.880 284.000,261.429 284.372,261.186 284.826 C 260.943 285.281,259.913 286.009,258.897 286.444 C 257.881 286.880,256.813 287.574,256.524 287.987 C 256.234 288.401,255.367 288.947,254.596 289.201 C 253.825 289.456,253.016 289.997,252.798 290.403 C 252.579 290.813,251.453 291.418,250.272 291.762 C 249.100 292.103,247.811 292.746,247.407 293.192 C 246.739 293.930,245.894 294.250,242.731 294.960 C 242.143 295.092,241.153 295.627,240.531 296.150 C 239.795 296.768,238.631 297.195,237.200 297.374 C 235.990 297.525,234.481 297.849,233.846 298.095 C 231.490 299.007,231.600 301.203,231.600 253.130 L 231.600 209.213 230.500 207.985 C 229.064 206.382,226.467 205.738,224.837 206.581 C 223.734 207.151,222.962 208.295,223.391 208.724 C 223.506 208.839,223.600 208.745,223.600 208.515 C 223.600 207.791,225.716 207.207,227.185 207.526 C 230.415 208.227,230.219 205.195,230.055 252.000 C 229.891 299.030,229.907 299.471,231.772 299.821 C 232.667 299.989,233.463 299.821,234.425 299.261 C 235.181 298.821,236.871 298.267,238.180 298.029 C 239.490 297.792,241.200 297.157,241.980 296.619 C 242.761 296.081,244.176 295.468,245.125 295.257 C 246.074 295.046,247.515 294.413,248.328 293.850 C 249.140 293.287,250.434 292.611,251.202 292.348 C 251.971 292.085,253.050 291.534,253.600 291.124 C 255.355 289.818,259.999 286.800,260.255 286.800 C 261.081 286.800,273.200 275.021,273.200 274.219 C 273.200 273.961,273.740 273.232,274.400 272.600 C 275.060 271.968,275.600 271.239,275.600 270.981 C 275.600 270.724,276.228 269.722,276.996 268.756 C 277.764 267.790,278.394 266.790,278.396 266.533 C 278.398 266.276,278.997 264.926,279.727 263.533 C 280.458 262.140,281.280 259.968,281.555 258.707 C 281.829 257.446,282.208 256.318,282.397 256.202 C 284.963 254.616,285.310 225.786,282.825 220.652 C 282.361 219.694,281.720 217.423,281.401 215.605 C 281.081 213.787,280.448 211.669,279.993 210.899 C 279.539 210.129,278.912 208.406,278.601 207.071 C 278.289 205.735,277.691 204.179,277.272 203.611 C 276.852 203.044,276.216 201.573,275.859 200.342 C 275.501 199.112,274.943 197.885,274.619 197.616 C 274.295 197.347,273.650 196.109,273.185 194.864 C 272.719 193.619,272.098 192.330,271.804 192.000 C 271.510 191.670,270.833 190.410,270.300 189.200 C 269.766 187.990,269.039 186.761,268.685 186.468 C 268.331 186.175,267.830 185.275,267.571 184.468 C 267.313 183.661,266.726 182.589,266.268 182.086 C 265.446 181.185,264.260 179.254,262.210 175.481 C 261.637 174.426,260.896 173.458,260.565 173.331 C 260.234 173.204,259.514 172.268,258.966 171.250 C 257.575 168.668,255.335 165.493,252.000 161.373 C 251.230 160.422,249.970 158.806,249.200 157.782 C 246.967 154.814,244.255 151.462,243.554 150.805 C 243.199 150.472,241.170 148.171,239.046 145.692 C 236.922 143.213,234.873 140.843,234.492 140.425 C 234.111 140.008,232.540 138.271,231.000 136.566 C 225.079 130.008,207.390 112.641,200.763 106.878 C 199.492 105.772,197.662 104.796,196.874 104.802 C 196.723 104.803,196.043 105.388,195.362 106.102 M221.295 212.623 C 220.803 213.374,220.400 214.123,220.400 214.287 C 220.400 214.451,220.866 213.900,221.436 213.062 C 222.005 212.224,222.408 211.475,222.331 211.398 C 222.254 211.320,221.788 211.872,221.295 212.623 M219.564 260.200 C 219.456 288.090,219.263 302.600,219.000 302.600 C 218.738 302.600,218.531 289.507,218.400 264.520 C 218.251 236.083,218.081 226.321,217.729 225.969 C 217.065 225.305,215.503 225.801,214.843 226.885 C 214.301 227.776,214.307 227.782,215.075 227.100 C 217.834 224.649,217.787 224.013,217.914 265.518 C 218.035 305.204,217.989 304.303,219.805 302.796 C 220.455 302.257,220.650 229.103,220.022 221.400 C 219.861 219.420,219.655 236.880,219.564 260.200 M197.800 219.410 C 195.405 220.316,195.199 220.806,195.205 225.576 C 195.214 231.907,195.382 232.171,198.800 231.196 C 200.100 230.825,204.648 226.921,206.019 225.000 C 206.333 224.560,205.099 225.605,203.276 227.322 C 200.108 230.308,199.889 230.439,198.281 230.322 L 196.600 230.200 196.368 226.400 C 196.031 220.889,196.829 219.995,202.080 220.006 C 205.378 220.013,205.706 220.145,206.574 221.809 L 207.195 223.000 207.198 221.762 C 207.202 219.280,201.750 217.916,197.800 219.410 M173.847 228.905 C 172.577 229.853,172.035 236.460,172.740 242.392 C 173.061 245.095,174.478 245.997,176.094 244.526 C 176.592 244.073,177.270 243.603,177.600 243.482 C 178.104 243.298,178.097 243.258,177.554 243.232 C 177.199 243.214,176.410 243.592,175.801 244.071 C 173.710 245.715,173.015 243.450,173.269 235.824 C 173.474 229.668,173.520 229.600,177.475 229.600 C 182.172 229.600,183.065 230.805,182.724 236.686 C 182.509 240.398,181.623 242.248,179.806 242.777 C 179.143 242.970,178.907 243.144,179.281 243.164 C 183.982 243.413,186.403 233.174,182.509 229.514 C 181.287 228.366,175.148 227.934,173.847 228.905 M212.875 229.616 C 212.394 230.064,212.000 230.634,212.000 230.882 C 212.000 231.130,212.045 231.258,212.100 231.167 C 212.155 231.075,212.636 230.505,213.170 229.900 C 214.306 228.611,214.133 228.444,212.875 229.616 M211.600 231.986 C 211.600 232.198,211.084 232.963,210.454 233.686 C 209.823 234.409,208.920 235.765,208.446 236.700 C 207.972 237.635,207.441 238.400,207.266 238.400 C 207.091 238.400,206.652 239.021,206.290 239.780 C 205.928 240.540,205.130 241.477,204.516 241.864 C 203.253 242.660,195.443 250.457,194.564 251.799 C 194.247 252.282,193.226 252.901,192.294 253.174 C 191.362 253.448,190.060 254.176,189.400 254.792 C 188.740 255.408,187.750 256.041,187.200 256.199 C 186.650 256.357,185.480 257.170,184.600 258.006 C 183.251 259.287,182.746 259.517,181.379 259.472 C 180.266 259.435,179.416 259.687,178.667 260.276 C 178.067 260.748,176.873 261.253,176.013 261.398 C 175.154 261.543,174.007 262.072,173.466 262.574 L 172.482 263.486 172.443 281.443 C 172.422 291.319,172.403 299.535,172.402 299.700 C 172.398 300.222,171.200 300.024,171.192 299.500 C 171.187 299.225,171.186 291.620,171.190 282.600 C 171.198 263.806,171.271 264.270,168.290 264.078 C 166.214 263.944,165.994 263.606,167.200 262.400 C 167.640 261.960,167.986 261.195,167.968 260.700 C 167.948 260.113,167.861 260.008,167.719 260.400 C 167.598 260.730,167.049 261.484,166.498 262.076 C 165.204 263.466,165.541 264.252,167.577 264.596 C 170.035 265.011,170.000 264.744,170.000 282.945 L 170.000 299.542 171.055 300.372 C 173.130 302.004,173.173 301.640,173.193 282.000 C 173.214 261.762,173.104 262.506,176.200 261.807 C 177.300 261.558,178.683 261.038,179.273 260.649 C 182.525 258.510,182.795 260.233,182.798 283.100 C 182.799 295.131,182.944 302.400,183.183 302.400 C 183.421 302.400,183.611 294.544,183.683 281.700 C 183.817 258.011,183.737 258.561,187.305 256.752 C 188.237 256.279,189.564 255.400,190.254 254.798 C 191.033 254.119,192.210 253.599,193.357 253.427 C 195.148 253.159,197.200 251.216,197.200 249.788 C 197.200 248.127,205.544 241.586,206.966 242.132 C 207.639 242.390,207.997 241.612,208.009 239.867 C 208.020 238.235,209.281 235.469,210.803 233.735 C 211.894 232.492,212.311 231.600,211.800 231.600 C 211.690 231.600,211.600 231.774,211.600 231.986 " stroke="none" fill="#60637f" fill-rule="evenodd"></path><path id="path4" d="M192.400 88.266 C 179.695 99.725,156.982 122.343,151.095 129.400 C 150.545 130.060,149.425 131.320,148.608 132.200 C 147.790 133.080,146.653 134.430,146.080 135.200 C 145.508 135.970,144.580 137.091,144.020 137.691 C 143.459 138.291,142.434 139.461,141.741 140.291 C 141.049 141.121,139.869 142.520,139.119 143.400 C 138.369 144.280,137.405 145.470,136.978 146.044 C 136.550 146.618,135.391 148.148,134.403 149.444 C 133.414 150.740,132.244 152.284,131.803 152.875 C 131.361 153.467,129.983 155.285,128.741 156.916 C 127.498 158.547,126.212 160.404,125.882 161.042 C 125.552 161.680,124.903 162.544,124.441 162.963 C 123.978 163.382,123.600 163.925,123.600 164.171 C 123.600 164.417,123.086 165.244,122.458 166.009 C 121.830 166.774,121.037 167.940,120.696 168.600 C 120.355 169.260,119.609 170.340,119.038 171.000 C 118.468 171.660,118.001 172.398,118.000 172.640 C 118.000 172.882,117.482 173.794,116.850 174.668 C 116.217 175.541,115.568 176.693,115.406 177.228 C 115.244 177.762,114.613 178.740,114.003 179.400 C 113.394 180.060,112.667 181.320,112.390 182.200 C 112.112 183.080,111.476 184.290,110.976 184.890 C 110.477 185.489,109.851 186.659,109.585 187.490 C 109.319 188.320,108.689 189.552,108.185 190.228 C 107.682 190.903,107.074 192.184,106.834 193.075 C 106.594 193.966,106.020 195.175,105.559 195.762 C 105.098 196.348,104.487 197.712,104.202 198.794 C 103.916 199.875,103.316 201.275,102.868 201.905 C 102.419 202.535,101.768 204.274,101.421 205.770 C 101.075 207.266,100.455 208.964,100.045 209.545 C 99.634 210.125,99.077 211.927,98.805 213.548 C 98.534 215.170,97.862 217.478,97.313 218.678 C 96.561 220.321,96.226 221.962,95.956 225.329 C 95.758 227.788,95.346 230.700,95.040 231.800 C 93.620 236.892,93.469 246.741,94.732 251.813 C 95.169 253.566,95.729 256.796,95.977 258.992 C 96.268 261.563,96.709 263.458,97.217 264.318 C 97.650 265.053,98.298 266.823,98.657 268.252 C 99.016 269.681,99.733 271.474,100.250 272.236 C 100.767 272.997,101.307 274.111,101.450 274.710 C 101.753 275.982,104.164 280.154,105.432 281.600 C 105.914 282.150,106.621 283.230,107.003 284.000 C 108.674 287.368,118.293 297.167,124.688 302.016 C 125.837 302.887,126.948 303.600,127.158 303.600 C 127.367 303.600,128.122 304.095,128.835 304.700 C 130.374 306.006,132.982 307.583,135.970 309.013 C 137.163 309.584,138.582 310.400,139.124 310.826 C 139.665 311.252,140.416 311.600,140.794 311.600 C 141.171 311.600,142.648 312.220,144.077 312.978 C 145.506 313.737,147.558 314.577,148.637 314.847 C 149.717 315.116,151.073 315.683,151.651 316.107 C 152.229 316.531,154.119 317.144,155.851 317.470 C 157.583 317.796,159.565 318.411,160.255 318.836 C 161.041 319.321,163.085 319.816,165.732 320.164 C 168.054 320.469,170.535 321.008,171.245 321.362 C 172.907 322.192,176.208 322.678,182.200 322.975 C 184.840 323.107,189.835 323.414,193.300 323.659 C 197.925 323.985,201.275 323.985,205.900 323.658 C 209.365 323.414,214.360 323.110,217.000 322.983 C 222.989 322.695,225.961 322.247,227.640 321.379 C 228.359 321.008,230.678 320.477,232.795 320.201 C 235.184 319.888,237.468 319.312,238.821 318.679 C 240.020 318.118,241.900 317.532,243.000 317.375 C 245.412 317.032,246.665 316.592,247.443 315.814 C 247.763 315.494,248.695 315.119,249.513 314.981 C 250.846 314.757,256.191 312.452,258.800 310.977 C 259.350 310.666,260.779 309.946,261.976 309.377 C 263.173 308.808,264.672 307.905,265.307 307.371 C 265.942 306.837,266.677 306.400,266.941 306.400 C 267.405 306.400,270.750 304.119,272.800 302.405 C 273.350 301.945,274.250 301.260,274.800 300.883 C 279.934 297.367,289.226 286.959,292.678 280.858 C 295.203 276.395,298.000 270.467,298.000 269.577 C 298.000 269.078,298.428 267.934,298.952 267.035 C 300.059 265.132,300.251 264.320,300.806 259.200 C 301.032 257.110,301.527 254.500,301.906 253.400 C 302.905 250.500,302.884 238.927,301.873 235.091 C 301.480 233.602,300.911 230.092,300.609 227.291 C 300.254 223.995,299.784 221.636,299.275 220.600 C 298.843 219.720,298.204 217.608,297.855 215.907 C 297.506 214.206,296.770 211.926,296.220 210.840 C 295.670 209.754,295.098 208.086,294.950 207.133 C 294.801 206.180,294.343 204.967,293.933 204.437 C 293.522 203.907,292.896 202.467,292.541 201.237 C 292.186 200.007,291.560 198.522,291.148 197.938 C 290.737 197.354,290.400 196.740,290.400 196.572 C 290.400 196.311,288.889 193.227,284.464 184.455 C 283.949 183.435,283.206 182.240,282.812 181.800 C 282.418 181.360,281.744 180.190,281.313 179.200 C 280.882 178.210,280.220 177.144,279.842 176.832 C 279.463 176.519,278.896 175.646,278.580 174.890 C 277.939 173.356,274.560 168.146,273.968 167.780 C 273.759 167.651,273.326 166.973,273.006 166.273 C 272.687 165.573,271.612 163.920,270.618 162.600 C 268.880 160.291,266.875 157.460,264.834 154.433 C 264.302 153.645,263.655 152.820,263.396 152.600 C 263.136 152.380,262.528 151.621,262.044 150.912 C 261.559 150.204,260.676 149.101,260.081 148.460 C 259.487 147.820,258.280 146.344,257.400 145.179 C 255.421 142.560,252.346 138.927,246.458 132.248 C 242.051 127.249,240.923 126.008,235.000 119.634 C 230.939 115.265,217.622 102.056,212.583 97.400 C 210.203 95.200,207.604 92.770,206.808 92.000 C 198.031 83.508,197.756 83.436,192.400 88.266 M200.457 87.494 C 201.065 88.102,202.246 89.193,203.081 89.918 C 204.464 91.117,205.507 92.080,206.788 93.340 C 207.045 93.593,208.008 94.485,208.928 95.322 C 209.848 96.159,210.870 97.131,211.200 97.483 C 211.530 97.835,212.070 98.365,212.400 98.661 C 215.682 101.607,234.000 120.005,234.000 120.356 C 234.000 120.610,234.450 121.022,235.000 121.273 C 235.550 121.523,236.000 121.869,236.000 122.041 C 236.000 122.292,238.116 124.684,239.979 126.540 C 241.228 127.785,243.734 130.555,246.003 133.200 C 246.664 133.970,247.698 135.154,248.302 135.831 C 248.906 136.508,249.871 137.678,250.448 138.431 C 251.024 139.184,252.338 140.700,253.367 141.800 C 254.397 142.900,255.483 144.250,255.781 144.800 C 256.080 145.350,256.791 146.204,257.362 146.697 C 257.933 147.191,258.400 147.860,258.400 148.183 C 258.400 148.507,258.758 148.963,259.195 149.197 C 259.632 149.431,260.625 150.563,261.401 151.711 C 263.552 154.895,264.753 156.500,265.825 157.622 C 266.361 158.184,266.800 158.831,266.800 159.060 C 266.800 159.289,267.182 159.819,267.649 160.238 C 268.116 160.657,269.019 161.920,269.655 163.044 C 270.292 164.168,271.170 165.411,271.607 165.806 C 272.043 166.201,272.400 166.774,272.400 167.080 C 272.400 167.386,272.851 168.087,273.402 168.639 C 273.954 169.190,274.788 170.397,275.257 171.321 C 275.726 172.244,276.535 173.509,277.055 174.131 C 277.575 174.753,278.000 175.504,278.000 175.800 C 278.000 176.096,278.485 176.916,279.079 177.621 C 279.672 178.326,280.564 179.780,281.060 180.851 C 281.557 181.923,282.135 182.800,282.344 182.800 C 282.553 182.800,283.009 183.635,283.357 184.655 C 283.704 185.675,284.414 187.070,284.934 187.755 C 285.453 188.440,286.096 189.664,286.362 190.475 C 286.628 191.286,287.189 192.387,287.609 192.921 C 288.029 193.455,288.664 194.771,289.021 195.846 C 289.378 196.921,290.087 198.430,290.597 199.200 C 291.107 199.970,291.655 201.225,291.814 201.989 C 291.973 202.753,292.599 204.373,293.205 205.589 C 293.812 206.805,294.431 208.520,294.582 209.400 C 294.733 210.280,295.278 211.900,295.792 213.000 C 296.307 214.100,297.010 216.350,297.355 218.000 C 297.700 219.650,298.343 221.939,298.784 223.086 C 299.254 224.307,299.768 227.127,300.024 229.886 C 300.265 232.479,300.599 235.333,300.767 236.230 C 301.860 242.093,300.549 259.358,298.612 264.600 C 298.043 266.140,297.397 268.190,297.175 269.155 C 296.953 270.120,296.415 271.363,295.979 271.918 C 295.543 272.472,294.911 273.873,294.574 275.030 C 294.238 276.186,293.677 277.371,293.327 277.661 C 292.977 277.951,292.350 278.983,291.934 279.955 C 291.517 280.926,290.642 282.330,289.988 283.074 C 289.335 283.819,288.800 284.687,288.800 285.005 C 288.800 285.322,288.357 285.872,287.816 286.227 C 287.274 286.581,286.716 287.233,286.576 287.676 C 286.436 288.118,284.134 290.643,281.460 293.287 C 274.679 299.995,274.245 300.401,273.849 300.400 C 273.655 300.400,272.845 300.952,272.049 301.628 C 270.219 303.178,266.545 305.600,266.024 305.600 C 265.806 305.600,265.012 306.141,264.259 306.802 C 263.506 307.463,262.138 308.269,261.219 308.593 C 260.299 308.918,259.006 309.568,258.345 310.039 C 257.683 310.510,256.313 311.145,255.300 311.450 C 254.287 311.755,253.147 312.286,252.766 312.630 C 252.386 312.975,251.023 313.529,249.737 313.863 C 248.452 314.196,246.590 314.893,245.600 315.411 C 244.610 315.930,242.764 316.557,241.498 316.806 C 240.232 317.054,238.145 317.685,236.860 318.207 C 235.576 318.729,233.551 319.269,232.362 319.407 C 229.035 319.793,226.043 320.391,223.309 321.217 C 216.058 323.405,181.387 323.117,174.085 320.808 C 172.701 320.371,169.911 319.812,167.885 319.567 C 165.797 319.314,163.175 318.691,161.834 318.128 C 160.533 317.581,158.391 316.961,157.074 316.749 C 155.757 316.537,153.942 315.932,153.040 315.404 C 152.138 314.877,150.500 314.249,149.400 314.009 C 148.300 313.769,146.933 313.234,146.362 312.820 C 145.791 312.406,144.363 311.782,143.187 311.433 C 142.012 311.084,140.679 310.461,140.225 310.049 C 139.771 309.636,138.680 309.074,137.800 308.800 C 136.920 308.526,135.840 307.983,135.400 307.595 C 134.960 307.206,133.700 306.411,132.600 305.829 C 131.500 305.246,129.970 304.327,129.200 303.787 C 128.430 303.247,126.822 302.129,125.626 301.302 C 124.430 300.476,122.851 299.260,122.116 298.600 C 121.381 297.940,120.040 296.770,119.136 296.000 C 114.790 292.300,107.660 284.080,107.005 282.014 C 106.875 281.607,106.526 281.180,106.227 281.066 C 105.929 280.951,105.210 279.900,104.629 278.729 C 104.049 277.558,103.234 275.970,102.818 275.200 C 102.402 274.430,101.744 272.990,101.356 272.000 C 100.968 271.010,100.429 269.930,100.159 269.600 C 99.889 269.270,99.540 268.280,99.385 267.400 C 99.229 266.520,98.610 264.629,98.010 263.198 C 97.271 261.434,96.772 259.243,96.463 256.398 C 96.213 254.089,95.807 250.490,95.562 248.400 C 94.809 241.979,96.176 226.291,97.984 220.600 C 98.613 218.620,99.258 216.100,99.417 215.000 C 99.576 213.900,100.108 212.190,100.598 211.200 C 101.089 210.210,101.722 208.410,102.006 207.200 C 102.289 205.990,103.021 204.010,103.631 202.800 C 104.242 201.590,104.874 200.060,105.036 199.400 C 105.198 198.740,105.732 197.570,106.223 196.800 C 106.714 196.030,107.337 194.680,107.607 193.800 C 107.878 192.920,108.436 191.829,108.848 191.376 C 109.260 190.923,109.892 189.663,110.252 188.576 C 110.613 187.489,111.232 186.240,111.627 185.800 C 112.023 185.360,112.722 184.122,113.181 183.048 C 113.640 181.975,114.462 180.566,115.008 179.918 C 115.554 179.269,116.000 178.496,116.000 178.200 C 116.000 177.904,116.417 177.153,116.927 176.531 C 117.437 175.909,118.098 174.791,118.397 174.047 C 118.696 173.303,119.392 172.158,119.942 171.504 C 120.493 170.849,121.226 169.817,121.572 169.211 C 122.630 167.352,124.702 164.254,125.592 163.200 C 126.056 162.650,126.872 161.526,127.405 160.701 C 129.032 158.186,130.140 156.669,131.500 155.099 C 132.215 154.273,132.800 153.445,132.800 153.258 C 132.800 153.071,133.295 152.364,133.900 151.686 C 134.505 151.008,135.720 149.524,136.600 148.390 C 138.788 145.567,140.964 142.837,142.168 141.400 C 144.406 138.732,145.872 137.018,147.260 135.450 C 148.063 134.542,150.027 132.294,151.624 130.452 C 154.465 127.177,160.227 120.919,162.472 118.669 C 163.092 118.047,163.600 117.384,163.600 117.196 C 163.600 117.008,163.951 116.742,164.380 116.606 C 164.809 116.470,165.537 115.750,165.997 115.006 C 166.457 114.261,167.061 113.596,167.339 113.526 C 167.618 113.457,168.814 112.320,169.997 111.000 C 171.181 109.680,172.433 108.394,172.781 108.143 C 173.129 107.891,175.220 105.911,177.428 103.743 C 181.727 99.521,189.207 92.552,192.800 89.422 C 194.010 88.367,195.402 87.088,195.892 86.578 C 196.997 85.431,198.746 85.782,200.457 87.494 M194.852 105.300 C 194.150 106.015,192.944 107.140,192.172 107.800 C 187.565 111.738,171.430 127.537,164.981 134.425 C 158.917 140.903,149.040 152.235,147.796 154.144 C 147.386 154.773,146.589 155.789,146.025 156.400 C 145.461 157.012,144.460 158.262,143.800 159.177 C 143.140 160.093,142.107 161.439,141.506 162.168 C 139.930 164.075,137.780 167.162,136.816 168.900 C 136.358 169.725,135.810 170.400,135.599 170.400 C 135.387 170.400,134.754 171.255,134.191 172.300 C 133.629 173.345,132.771 174.778,132.285 175.485 C 130.594 177.941,128.996 180.601,128.342 182.047 C 127.980 182.847,127.475 183.630,127.220 183.787 C 126.966 183.945,126.310 185.086,125.762 186.323 C 125.215 187.560,124.510 188.858,124.194 189.206 C 123.879 189.555,123.350 190.608,123.019 191.546 C 122.688 192.485,122.078 193.736,121.664 194.326 C 121.250 194.917,120.687 196.120,120.413 197.000 C 120.138 197.880,119.494 199.230,118.981 200.000 C 118.468 200.770,117.831 202.300,117.565 203.400 C 117.299 204.500,116.654 206.257,116.131 207.305 C 115.609 208.353,114.900 210.692,114.557 212.503 C 114.213 214.313,113.794 215.886,113.624 215.997 C 110.237 218.225,109.985 249.126,113.297 256.088 C 113.850 257.249,114.597 259.215,114.958 260.457 C 115.319 261.698,115.871 262.927,116.185 263.187 C 116.499 263.448,117.042 264.522,117.391 265.573 C 117.740 266.625,118.470 267.902,119.013 268.412 C 119.556 268.922,120.000 269.556,120.000 269.822 C 120.000 270.305,122.565 273.859,124.675 276.301 C 128.253 280.441,135.059 286.486,137.651 287.826 C 138.265 288.144,139.216 288.853,139.765 289.402 C 140.314 289.951,140.997 290.400,141.283 290.400 C 141.569 290.400,142.689 291.030,143.772 291.800 C 144.855 292.570,146.045 293.200,146.416 293.200 C 146.788 293.200,147.521 293.535,148.046 293.943 C 149.398 294.997,151.194 295.847,152.654 296.124 C 153.344 296.255,154.584 296.820,155.410 297.381 C 157.288 298.655,158.941 298.705,159.777 297.511 C 160.322 296.734,160.400 293.992,160.400 275.735 C 160.400 252.794,160.234 254.166,162.989 254.352 C 166.654 254.599,168.873 259.766,165.817 260.938 C 163.380 261.873,163.929 264.627,166.709 265.407 L 168.200 265.825 168.400 282.631 C 168.619 301.005,168.651 301.246,171.004 301.837 C 173.932 302.572,174.000 302.120,174.000 282.063 C 174.000 262.225,173.862 263.091,177.090 262.607 C 178.140 262.450,179.292 262.165,179.650 261.973 C 181.534 260.965,181.600 261.665,181.600 282.687 C 181.600 301.264,181.640 302.361,182.348 303.236 C 183.209 304.298,185.201 303.498,185.199 302.091 C 185.199 301.711,185.244 292.294,185.299 281.165 L 185.400 260.931 186.571 259.241 C 187.216 258.312,188.296 257.320,188.971 257.038 C 189.647 256.755,190.447 256.226,190.749 255.862 C 191.124 255.409,191.923 255.200,193.275 255.200 L 195.253 255.200 195.165 278.801 C 195.081 301.210,195.114 302.442,195.812 303.213 C 197.543 305.126,197.583 304.562,197.607 277.993 C 197.632 249.307,197.474 250.752,200.942 247.480 C 202.294 246.204,203.802 244.771,204.294 244.295 C 206.200 242.449,206.192 242.328,206.310 273.567 C 206.419 302.423,206.428 302.701,207.246 303.442 C 209.203 305.213,209.200 305.265,209.200 270.772 C 209.200 236.391,209.151 237.236,211.268 234.943 C 211.703 234.471,212.361 233.554,212.730 232.904 C 214.676 229.473,216.151 227.591,216.568 228.007 C 216.870 228.310,217.033 239.661,217.108 265.689 C 217.221 304.727,217.185 304.000,219.000 304.000 C 220.810 304.000,220.769 304.972,220.887 259.775 L 221.000 216.600 222.365 214.000 C 223.115 212.570,223.929 210.956,224.173 210.413 C 224.879 208.840,227.086 208.393,228.036 209.629 C 228.754 210.563,228.783 212.294,228.791 255.251 C 228.801 305.728,228.455 301.028,232.162 300.966 C 233.457 300.944,234.711 300.629,235.600 300.102 C 236.370 299.645,238.137 298.986,239.526 298.637 C 240.915 298.289,242.805 297.570,243.726 297.041 C 244.647 296.512,245.963 295.961,246.651 295.818 C 247.339 295.675,248.493 295.122,249.215 294.589 C 249.938 294.056,251.175 293.413,251.965 293.161 C 252.754 292.910,253.850 292.295,254.400 291.796 C 254.950 291.296,256.120 290.501,257.000 290.028 C 258.961 288.974,261.009 287.576,262.600 286.206 C 263.260 285.637,264.700 284.407,265.800 283.472 C 266.900 282.537,268.520 281.001,269.400 280.059 C 270.280 279.117,271.585 277.785,272.300 277.099 C 273.015 276.414,273.600 275.683,273.600 275.475 C 273.600 275.267,274.230 274.400,275.000 273.547 C 275.770 272.695,276.400 271.820,276.400 271.602 C 276.400 271.385,277.030 270.382,277.800 269.373 C 278.570 268.364,279.200 267.203,279.200 266.793 C 279.200 266.383,279.383 265.934,279.606 265.796 C 280.276 265.382,281.553 262.596,282.013 260.541 C 282.251 259.480,282.721 258.308,283.058 257.936 C 284.048 256.842,284.428 254.660,285.960 241.256 C 286.149 239.604,286.003 236.449,285.545 232.256 C 284.371 221.504,284.046 219.532,283.170 217.853 C 282.708 216.966,282.164 215.209,281.960 213.947 C 281.757 212.685,281.053 210.516,280.396 209.126 C 279.738 207.737,279.200 206.222,279.200 205.760 C 279.200 205.298,278.592 203.768,277.848 202.360 C 277.105 200.952,276.375 199.237,276.227 198.549 C 276.079 197.861,275.514 196.696,274.970 195.960 C 274.427 195.224,273.806 193.966,273.590 193.164 C 273.375 192.363,272.659 191.029,271.999 190.199 C 271.340 189.369,270.800 188.421,270.800 188.093 C 270.800 187.764,270.170 186.619,269.400 185.547 C 268.630 184.475,268.000 183.354,268.000 183.055 C 268.000 182.757,267.372 181.722,266.604 180.756 C 265.836 179.790,265.206 178.781,265.204 178.514 C 265.202 178.247,264.684 177.437,264.054 176.714 C 263.424 175.991,262.789 175.017,262.643 174.549 C 262.497 174.081,261.921 173.181,261.364 172.549 C 260.807 171.917,260.005 170.737,259.581 169.927 C 259.158 169.117,258.622 168.337,258.390 168.194 C 258.157 168.050,257.519 167.273,256.970 166.466 C 254.134 162.297,249.952 156.790,249.061 156.051 C 248.697 155.749,248.400 155.306,248.400 155.066 C 248.400 154.826,247.944 154.173,247.386 153.615 C 246.828 153.057,244.932 150.890,243.173 148.800 C 238.794 143.598,237.205 141.752,235.800 140.232 C 235.140 139.519,234.294 138.589,233.920 138.167 C 233.014 137.145,232.683 136.802,229.300 133.390 C 227.705 131.781,226.400 130.280,226.400 130.055 C 226.400 129.829,225.860 129.326,225.200 128.936 C 224.540 128.546,224.000 128.086,224.000 127.914 C 224.000 127.741,222.875 126.511,221.500 125.180 C 220.125 123.849,218.847 122.607,218.660 122.420 C 218.473 122.233,217.933 121.696,217.460 121.227 C 216.987 120.758,216.330 120.082,216.000 119.726 C 215.670 119.369,215.130 118.826,214.800 118.519 C 214.470 118.213,212.261 116.125,209.891 113.881 C 199.380 103.926,199.574 104.078,197.364 104.028 C 196.476 104.008,195.770 104.365,194.852 105.300 M198.237 105.214 C 200.622 106.121,221.864 126.448,231.000 136.566 C 232.540 138.271,234.111 140.008,234.492 140.425 C 234.873 140.843,236.922 143.213,239.046 145.692 C 241.170 148.171,243.199 150.472,243.554 150.805 C 244.255 151.462,246.967 154.814,249.200 157.782 C 249.970 158.806,251.230 160.422,252.000 161.373 C 255.335 165.493,257.575 168.668,258.966 171.250 C 259.514 172.268,260.234 173.204,260.565 173.331 C 260.896 173.458,261.637 174.426,262.210 175.481 C 264.260 179.254,265.446 181.185,266.268 182.086 C 266.726 182.589,267.313 183.661,267.571 184.468 C 267.830 185.275,268.331 186.175,268.685 186.468 C 269.039 186.761,269.766 187.990,270.300 189.200 C 270.833 190.410,271.510 191.670,271.804 192.000 C 272.098 192.330,272.719 193.619,273.185 194.864 C 273.650 196.109,274.295 197.347,274.619 197.616 C 274.943 197.885,275.501 199.112,275.859 200.342 C 276.216 201.573,276.852 203.044,277.272 203.611 C 277.691 204.179,278.289 205.735,278.601 207.071 C 278.912 208.406,279.539 210.129,279.993 210.899 C 280.448 211.669,281.081 213.787,281.401 215.605 C 281.720 217.423,282.361 219.694,282.825 220.652 C 285.310 225.786,284.963 254.616,282.397 256.202 C 282.208 256.318,281.829 257.446,281.555 258.707 C 281.280 259.968,280.458 262.140,279.727 263.533 C 278.997 264.926,278.398 266.276,278.396 266.533 C 278.394 266.790,277.764 267.790,276.996 268.756 C 276.228 269.722,275.600 270.724,275.600 270.981 C 275.600 271.239,275.060 271.968,274.400 272.600 C 273.740 273.232,273.200 273.961,273.200 274.219 C 273.200 275.021,261.081 286.800,260.255 286.800 C 259.999 286.800,255.355 289.818,253.600 291.124 C 253.050 291.534,251.971 292.085,251.202 292.348 C 250.434 292.611,249.140 293.287,248.328 293.850 C 247.515 294.413,246.074 295.046,245.125 295.257 C 244.176 295.468,242.761 296.081,241.980 296.619 C 241.200 297.157,239.490 297.792,238.180 298.029 C 236.871 298.267,235.181 298.821,234.425 299.261 C 233.463 299.821,232.667 299.989,231.772 299.821 C 229.907 299.471,229.891 299.030,230.055 252.000 C 230.199 210.942,230.193 210.589,229.385 209.213 C 227.719 206.377,224.121 206.783,222.939 209.941 C 222.556 210.964,221.798 212.484,221.255 213.321 L 220.266 214.842 220.363 258.547 C 220.450 297.754,220.395 302.306,219.835 302.771 C 217.984 304.307,218.035 305.289,217.914 265.518 C 217.795 226.423,217.782 226.151,216.106 226.476 C 215.333 226.626,213.075 229.594,212.052 231.806 C 211.644 232.689,210.986 233.679,210.591 234.006 C 209.562 234.857,208.009 238.377,208.004 239.867 C 207.999 241.608,207.640 242.390,206.966 242.132 C 205.544 241.586,197.200 248.127,197.200 249.788 C 197.200 251.216,195.148 253.159,193.357 253.427 C 192.210 253.599,191.033 254.119,190.254 254.798 C 189.564 255.400,188.237 256.279,187.305 256.752 C 183.737 258.561,183.817 258.011,183.683 281.700 C 183.611 294.544,183.421 302.400,183.183 302.400 C 182.944 302.400,182.799 295.131,182.798 283.100 C 182.795 260.233,182.525 258.510,179.273 260.649 C 178.683 261.038,177.300 261.558,176.200 261.807 C 173.104 262.506,173.214 261.762,173.193 282.000 C 173.173 301.640,173.130 302.004,171.055 300.372 L 170.000 299.542 170.000 282.945 C 170.000 264.744,170.035 265.011,167.577 264.596 C 165.499 264.245,165.201 263.460,166.594 262.007 C 168.963 259.533,168.319 254.844,165.477 253.879 C 159.186 251.742,159.840 249.381,159.600 275.114 C 159.374 299.423,159.456 298.855,156.467 296.649 C 155.758 296.127,154.424 295.578,153.503 295.431 C 152.581 295.283,151.281 294.749,150.613 294.242 C 149.946 293.736,148.770 293.115,148.000 292.862 C 147.230 292.610,145.713 291.772,144.630 291.002 C 143.546 290.231,142.438 289.600,142.167 289.600 C 141.897 289.600,140.922 288.970,140.000 288.200 C 139.078 287.430,138.172 286.800,137.986 286.800 C 137.801 286.800,136.817 286.080,135.800 285.200 C 134.783 284.320,133.806 283.600,133.629 283.600 C 133.043 283.600,125.323 275.722,123.967 273.742 C 123.236 272.674,122.400 271.558,122.110 271.262 C 121.819 270.966,121.290 270.156,120.934 269.462 C 120.579 268.768,119.878 267.710,119.378 267.110 C 118.878 266.511,118.245 265.341,117.971 264.510 C 117.698 263.680,117.146 262.550,116.747 262.000 C 116.347 261.450,115.723 259.830,115.361 258.400 C 114.999 256.970,114.272 254.976,113.746 253.970 C 111.395 249.473,111.432 224.425,113.798 218.805 C 114.339 217.520,114.990 215.149,115.246 213.535 C 115.502 211.921,116.089 209.970,116.551 209.200 C 117.013 208.430,117.702 206.576,118.083 205.079 C 118.463 203.583,119.131 201.905,119.567 201.351 C 120.003 200.797,120.635 199.398,120.971 198.242 C 121.307 197.086,121.927 195.828,122.349 195.446 C 122.772 195.063,123.327 193.920,123.582 192.905 C 123.838 191.890,124.471 190.556,124.989 189.940 C 125.507 189.324,126.152 188.141,126.423 187.310 C 126.693 186.480,127.429 185.209,128.057 184.486 C 128.686 183.763,129.200 182.989,129.200 182.764 C 129.200 182.255,131.997 177.477,133.395 175.600 C 135.131 173.268,136.326 171.476,137.178 169.927 C 137.624 169.117,138.173 168.340,138.399 168.201 C 138.625 168.061,139.436 167.014,140.201 165.874 C 140.967 164.733,142.224 162.990,142.995 162.000 C 143.765 161.010,144.829 159.556,145.359 158.770 C 145.889 157.983,146.834 156.804,147.461 156.148 C 148.087 155.493,149.950 153.278,151.600 151.226 C 153.250 149.174,155.050 146.976,155.600 146.342 C 158.432 143.076,159.637 141.717,162.200 138.900 C 165.978 134.748,186.656 114.142,190.801 110.400 C 192.629 108.750,194.681 106.816,195.362 106.102 C 196.755 104.642,196.742 104.646,198.237 105.214 M197.910 220.624 C 196.303 221.496,196.112 222.212,196.368 226.400 L 196.600 230.200 198.290 230.322 C 200.332 230.471,206.199 225.320,206.631 223.000 C 207.136 220.293,201.400 218.730,197.910 220.624 M205.218 221.411 C 206.248 222.048,201.110 228.800,199.596 228.800 C 197.579 228.800,196.759 222.471,198.645 221.469 C 199.769 220.873,204.282 220.833,205.218 221.411 M173.966 230.241 C 173.374 230.954,172.921 239.790,173.357 242.113 C 173.810 244.524,174.494 245.099,175.742 244.117 C 176.319 243.663,177.607 243.170,178.604 243.020 C 182.275 242.470,184.214 236.282,182.215 231.497 C 181.373 229.483,175.356 228.566,173.966 230.241 M180.914 231.962 C 181.882 233.601,181.850 238.145,180.856 240.006 C 179.944 241.714,175.085 243.496,174.380 242.381 C 173.844 241.535,173.912 233.030,174.464 231.819 C 175.213 230.175,179.920 230.279,180.914 231.962 " stroke="none" fill="#7c8492" fill-rule="evenodd"></path></g></svg>