<svg id="LOGO" xmlns="http://www.w3.org/2000/svg" xmlns:xlink="http://www.w3.org/1999/xlink" viewBox="0 0 427.54548 427.54548"><defs><style>.cls-1{stroke:#000;stroke-miterlimit:10;fill:url(#linear-gradient);}.cls-2{fill:#1282a2;fill-rule:evenodd;}.cls-3{fill:#7d4e57;}</style><linearGradient id="linear-gradient" x1="213.77274" y1="422.44177" x2="213.77274" y2="-4.10372" gradientUnits="userSpaceOnUse"><stop offset="0" stop-color="#fff"/><stop offset="1" stop-color="#ffebd9"/></linearGradient></defs><circle class="cls-1" cx="213.77274" cy="213.77274" r="213.27274"/><path class="cls-2" d="M250.43911,116.77006a140.87766,140.87766,0,0,0-26.6089,2.584,66.09366,66.09366,0,0,0-21.2881,8.2124L161.633,99.12936s-23.7212,105.836-27.3706,152.0625c-3.6499,46.2276-16.7281,137.1612,44.7045,144.459,61.4336,7.2969,64.4756-25.5498,62.6504-37.1035-1.82468-11.5566-14.1425-17.3359-22.2006-18.7041a72.01857,72.01857,0,0,0-17.3355-.3027v-61.6924l48.3579-29.9341,48.3599,29.9341v61.6924a72.02227,72.02227,0,0,0-17.336.3027c-8.0595,1.3682-20.3769,7.1475-22.2021,18.7041-1.8252,11.5537,1.2168,44.4004,62.6504,37.1035,61.4346-7.2978,48.3554-98.2314,44.706-144.459-3.6504-46.2265-27.3711-152.0625-27.3711-152.0625l-40.9091,28.4371a66.09327,66.09327,0,0,0-21.2901-8.2124,140.86952,140.86952,0,0,0-26.6079-2.584Zm0,90.0273a5.95559,5.95559,0,0,1-5.1753-4.791c-.8364-4.4097-2.6606-4.3311-4.9424-4.7124a7.07524,7.07524,0,0,0-4.2573.7607s-2.81348-6.0849,2.58452-8.8217a29.80557,29.80557,0,0,1,23.581,0c5.39948,2.7368,2.586,8.8217,2.586,8.8217a7.08,7.08,0,0,0-4.25982-.7607c-2.28118.3813-4.1045.3027-4.9414,4.7124a5.9547,5.9547,0,0,1-5.1753,4.791Zm57.4048,11.4605,24.63572-11.2515-2.415-5.292-24.63672,11.2529,2.416,5.2906Zm-3.2617,39.1147,26.6123,11.4067,2.2822-5.3627-26.6133-11.4034-2.2812,5.3594Zm.9902-19.9844h33.1494v-5.8398h-33.1494v5.8398Zm-5.4014-60.7016c-3.6103,0-6.5361,4.664-6.5361,10.4165,0,5.7539,2.9258,10.417,6.5361,10.417,3.6124,0,6.5391-4.6631,6.5391-10.417,0-5.7525-2.9267-10.4165-6.5391-10.4165Zm-107.1367,41.5713-24.6362-11.2515,2.417-5.292,24.6343,11.2529-2.4151,5.2906Zm3.26132,39.1147-26.61092,11.4067-2.2817-5.3627,26.6108-11.4034,2.28182,5.3594Zm-.98832-19.9844h-33.1519v-5.8398h33.1519v5.8398Zm5.4004-60.7016c3.6103,0,6.5371,4.664,6.5371,10.4165,0,5.7539-2.9268,10.417-6.5371,10.417-3.6123,0-6.53808-4.6631-6.53808-10.417,0-5.7525,2.92578-10.4165,6.53808-10.4165Z" transform="translate(-36.66704 -34.14061)"/><path class="cls-3" d="M238.48007,285.78156h9.2211v9.2187h-9.2211v-9.2187Zm14.6987,14.2295h9.22071v9.2217h-9.22071v-9.2217Zm-14.6987,0h9.2211v9.2217h-9.2211v-9.2217Zm14.6987-14.2295h9.22071v9.2187h-9.22071v-9.2187Z" transform="translate(-36.66704 -34.14061)"/></svg>