<?xml version="1.0" encoding="UTF-8"?>
<!DOCTYPE svg PUBLIC "-//W3C//DTD SVG 1.1//EN" "http://www.w3.org/Graphics/SVG/1.1/DTD/svg11.dtd">
<!-- Creator: CorelDRAW X7 -->
<svg xmlns="http://www.w3.org/2000/svg" xml:space="preserve" width="21.6746mm" height="21.6747mm" version="1.1" style="shape-rendering:geometricPrecision; text-rendering:geometricPrecision; image-rendering:optimizeQuality; fill-rule:evenodd; clip-rule:evenodd"
viewBox="0 0 543 543"
 xmlns:xlink="http://www.w3.org/1999/xlink">
 <defs>
  <style type="text/css">
   <![CDATA[
    .str0 {stroke:#373435;stroke-width:4.42278;stroke-opacity:0.101961}
    .str1 {stroke:#373435;stroke-width:4.41025;stroke-opacity:0.200000}
    .str3 {stroke:#FEFEFE;stroke-width:4.42278}
    .str4 {stroke:#FEFEFE;stroke-width:4.42278}
    .str6 {stroke:#373435;stroke-width:4.42278}
    .str9 {stroke:#ED3237;stroke-width:3.35219;stroke-linecap:round;stroke-linejoin:round}
    .str11 {stroke:#ED3237;stroke-width:3.35219;stroke-linecap:round;stroke-linejoin:round}
    .str10 {stroke:#ED3237;stroke-width:3.35219;stroke-linecap:round;stroke-linejoin:round}
    .str8 {stroke:#3E4095;stroke-width:1.70744;stroke-linecap:round;stroke-linejoin:round}
    .str5 {stroke:#ED3237;stroke-width:5.02703;stroke-linecap:round;stroke-linejoin:round}
    .str2 {stroke:#9F9FFF;stroke-width:5.02703;stroke-linecap:round;stroke-linejoin:round}
    .str7 {stroke:#3E4095;stroke-width:1.85286;stroke-linecap:round;stroke-linejoin:round}
    .fil3 {fill:none}
    .fil1 {fill:none;fill-rule:nonzero}
    .fil2 {fill:none;fill-rule:nonzero}
    .fil6 {fill:#FEFEFE}
    .fil4 {fill:#FEFEFE}
    .fil5 {fill:#FEFEFE}
    .fil0 {fill:#373435;fill-rule:nonzero}
   ]]>
  </style>
     <clipPath id="id0" style="clip-rule:nonzero">
      <path d="M272 31c133,0 241,108 241,241 0,133 -108,241 -241,241 -133,0 -241,-108 -241,-241 0,-133 108,-241 241,-241z"/>
     </clipPath>
     <clipPath id="id1" style="clip-rule:nonzero">
      <path d="M272 48c123,0 224,100 224,224 0,123 -101,224 -224,224 -124,0 -224,-101 -224,-224 0,-124 100,-224 224,-224z"/>
     </clipPath>
      <clipPath id="id2">
       <path d="M272 453l80 -138 80 -139 -160 0 -160 0 80 139 80 138z"/>
      </clipPath>
      <clipPath id="id3">
       <path d="M139 262c-14,-1 -31,-2 -34,-25 8,-4 17,5 22,-4 11,-22 34,-24 44,-12 -5,-28 32,-37 44,-26 -1,-14 12,-24 22,-23 9,-44 67,-42 72,-4 15,2 25,15 22,32 17,-11 52,3 50,23 20,-9 39,0 39,15 -8,-7 -11,-11 -18,-11 -39,61 -83,156 -131,213l-100 -169c-19,9 -24,-5 -32,-9z"/>
      </clipPath>
      <clipPath id="id4">
       <path d="M272 453l69 -119c3,0 7,-1 11,-4 -14,-1 -16,0 -25,-8 -6,-10 -52,-37 -76,0 -2,5 0,9 3,7 9,-12 22,6 19,9 23,2 12,32 -16,18 -29,-16 -49,-16 -58,1 -4,24 6,-5 15,-3l58 99z"/>
      </clipPath>
      <clipPath id="id5">
       <path d="M281 373c9,6 27,-4 22,-19 -3,8 -8,17 -22,19z"/>
      </clipPath>
     <clipPath id="id6">
      <rect x="203" y="225" width="135.998" height="75.9846"/>
     </clipPath>
      <clipPath id="id7">
       <path d="M190 279l-20 37 17 0 -2 23 22 -36 -18 -1 1 -23z"/>
      </clipPath>
      <clipPath id="id8">
       <path d="M271 79c15,0 27,12 27,27 0,15 -12,27 -27,27 -15,0 -27,-12 -27,-27 0,-15 12,-27 27,-27z"/>
      </clipPath>
     <clipPath id="id9">
      <path d="M243 87l56 0 -4 38 -47 -15 -5 -23z"/>
     </clipPath>
      <clipPath id="id10">
       <path d="M383 249l-21 40 18 0 -12 31 37 -42 -18 -1 16 -27 -20 -1z"/>
      </clipPath>
      <clipPath id="id11">
       <path d="M155 327c15,0 27,12 27,27 0,15 -12,27 -27,27 -15,0 -27,-12 -27,-27 0,-15 12,-27 27,-27z"/>
      </clipPath>
     <clipPath id="id12">
      <path d="M174 335l0 41 -38 1 0 -35 11 -4 8 -7 19 4z"/>
     </clipPath>
      <clipPath id="id13">
       <path d="M378 327c15,0 27,12 27,27 0,15 -12,27 -27,27 -14,0 -26,-12 -26,-27 0,-15 12,-27 26,-27z"/>
      </clipPath>
     <clipPath id="id14">
      <path d="M358 336l40 0 -4 13 5 3 -5 11 4 9 -40 0 0 -36z"/>
     </clipPath>
      <clipPath id="id15">
       <path d="M339 130l1 11 11 2 -11 1 -1 11 -2 -11 -11 -1 11 -2 2 -11z"/>
      </clipPath>
      <clipPath id="id16">
       <path d="M173 154c-11,-10 -21,-19 -33,-28 -2,-2 -4,-4 -6,-5 10,6 20,13 31,19 5,3 5,3 11,3 3,1 5,4 4,7 -1,2 -4,4 -7,4z"/>
      </clipPath>
      <clipPath id="id17">
       <path d="M182 156l6 -6 6 6 -6 6 -6 -6z"/>
      </clipPath>
      <clipPath id="id18">
       <path d="M209 160l4 -3 3 3 -3 4 -4 -4z"/>
      </clipPath>
      <clipPath id="id19">
       <path d="M370 149l3 -3 3 3 -3 4 -3 -4z"/>
      </clipPath>
      <clipPath id="id20">
       <path d="M228 137l2 -2 3 2 -3 3 -2 -3z"/>
      </clipPath>
      <clipPath id="id21">
       <path d="M275 216c5,0 10,1 14,1l4 -16 6 1 -4 17c5,1 10,3 15,5l5 -9 5 3 -4 8c4,2 8,5 11,7l12 -12 4 6 -11 10c4,3 7,7 10,10l10 -7 3 7 -15 9 -3 -6c-12,-16 -36,-28 -64,-29 -29,-2 -53,9 -65,24l0 0 -2 5 -14 -9 1 -6 10 7c3,-4 6,-7 10,-10l-11 -11 4 -5 12 13c3,-3 7,-5 11,-6l-3 -9 4 -2 5 8c5,-1 10,-2 15,-3l-3 -18 6 0 3 17c5,0 9,-1 14,0l-1 -11 6 0 0 11z"/>
      </clipPath>
 </defs>
 <g id="Layer_x0020_1">
  <metadata id="CorelCorpID_0Corel-Layer"/>
  <g id="_1846346867712">
   <rect class="fil0" width="543" height="543"/>
   <g>
    <g style="clip-path:url(#id0)">
     <image x="31" y="31" width="482" height="482" xlink:href="REAL TOKEN svg_Images\REAL TOKEN svg_ImgID1.png"/>
    </g>
    <path class="fil1 str0" d="M272 31c133,0 241,108 241,241 0,133 -108,241 -241,241 -133,0 -241,-108 -241,-241 0,-133 108,-241 241,-241z"/>
   </g>
   <g>
    <path class="fil2 str1" d="M272 48c123,0 224,100 224,224 0,123 -101,224 -224,224 -124,0 -224,-101 -224,-224 0,-124 100,-224 224,-224z"/>
    <g style="clip-path:url(#id1)">
     <image x="48" y="48" width="448" height="448" xlink:href="REAL TOKEN svg_Images\REAL TOKEN svg_ImgID2.png"/>
    </g>
   </g>
   <g>
    <g>
     <polygon class="fil3 str2" points="272,464 357,317 441,170 272,170 102,170 187,317 "/>
    </g>
    <g>
     <g style="clip-path:url(#id2)">
      <image x="112" y="176" width="320" height="277" xlink:href="REAL TOKEN svg_Images\REAL TOKEN svg_ImgID3.png"/>
     </g>
    </g>
    <g>
     <polygon class="fil4 str3" points="387,184 388,187 391,187 388,189 389,192 387,190 384,192 385,189 382,187 386,187 "/>
     <polygon class="fil4 str3" points="393,190 393,192 396,192 394,193 395,195 393,194 391,195 392,193 390,192 392,192 "/>
     <polygon class="fil4 str3" points="377,190 378,192 380,192 378,193 379,195 377,194 375,195 376,193 374,192 376,192 "/>
     <polygon class="fil4 str3" points="388,198 389,200 391,200 389,201 390,203 388,202 386,203 387,201 385,200 387,200 "/>
     <polygon class="fil4 str3" points="377,198 378,200 380,200 378,201 379,203 377,202 376,203 376,201 375,200 377,200 "/>
     <polygon class="fil4 str3" points="398,199 399,201 401,201 399,202 400,204 398,203 396,204 397,202 395,201 397,201 "/>
     <polygon class="fil4 str3" points="385,206 385,208 388,208 386,209 387,211 385,210 383,211 384,209 382,208 384,208 "/>
     <polygon class="fil4 str3" points="393,206 394,209 398,209 395,211 396,215 393,213 390,215 391,211 389,209 392,209 "/>
     <g>
      <polygon class="fil4 str3" points="345,184 347,185 349,183 349,185 351,186 349,187 349,189 347,187 345,188 346,186 "/>
      <polygon class="fil4 str3" points="351,183 352,183 353,182 353,183 355,184 353,184 353,186 352,184 351,185 352,184 "/>
      <polygon class="fil4 str3" points="345,192 346,192 347,191 347,193 349,193 347,194 347,195 346,194 345,194 346,193 "/>
      <polygon class="fil4 str3" points="354,189 355,189 356,188 356,189 358,190 356,190 356,192 355,191 354,191 355,190 "/>
      <polygon class="fil4 str3" points="350,195 351,195 352,194 352,195 353,196 352,196 352,198 351,197 350,197 351,196 "/>
      <polygon class="fil4 str3" points="358,183 360,183 361,182 361,184 362,184 361,184 361,186 360,185 358,185 359,184 "/>
      <polygon class="fil4 str3" points="358,194 359,194 360,193 360,194 361,195 360,195 360,197 359,195 358,196 358,195 "/>
      <polygon class="fil4 str3" points="361,189 363,189 364,187 364,190 367,190 364,191 365,194 363,192 361,193 362,191 "/>
     </g>
    </g>
    <g>
     <g style="clip-path:url(#id3)">
      <image x="105" y="139" width="315" height="301" xlink:href="REAL TOKEN svg_Images\REAL TOKEN svg_ImgID4.png"/>
     </g>
    </g>
    <g>
     <polygon class="fil5 str4" points="151,188 152,190 154,190 152,191 153,194 151,192 149,194 150,191 148,190 151,190 "/>
     <polygon class="fil5 str4" points="156,192 156,193 158,193 156,194 157,196 156,195 154,196 155,194 154,193 155,193 "/>
     <polygon class="fil5 str4" points="145,192 145,193 146,193 145,194 146,196 145,195 143,196 144,194 143,193 144,193 "/>
     <polygon class="fil5 str4" points="152,198 153,199 154,199 153,200 153,201 152,201 151,201 152,200 150,199 152,199 "/>
     <polygon class="fil5 str4" points="145,197 145,199 147,199 146,200 146,201 145,200 144,201 144,200 143,199 144,199 "/>
     <polygon class="fil5 str4" points="159,198 160,200 161,200 160,201 161,202 159,201 158,202 159,201 157,200 159,200 "/>
     <polygon class="fil5 str4" points="150,203 150,205 152,205 151,206 151,207 150,206 149,207 149,206 148,205 150,205 "/>
     <polygon class="fil5 str4" points="156,203 157,206 159,206 157,207 158,209 156,208 154,209 155,207 153,206 155,206 "/>
    </g>
    <path class="fil5" d="M171 269c-12,-2 -9,3 -30,-13 -15,-2 -20,-1 -32,-13 9,-4 14,2 19,-2 18,-28 43,-23 48,-5 -9,-40 25,-49 46,-31 -4,-15 3,-27 14,-29 0,7 2,12 7,13 -10,-54 68,-61 62,-4 3,-2 4,-7 5,-12 17,8 20,21 15,36 21,-16 51,-7 52,20 19,-7 33,-4 41,7 -22,26 -54,65 -77,98 -26,37 -44,67 -71,98 -17,-22 -43,-56 -60,-86l-41 -70c-1,-2 4,-5 2,-7z"/>
    <g>
     <g style="clip-path:url(#id4)">
      <image x="198" y="303" width="154" height="150" xlink:href="REAL TOKEN svg_Images\REAL TOKEN svg_ImgID5.png"/>
     </g>
    </g>
    <path class="fil6" d="M219 352c5,9 10,17 15,26 8,-13 25,-12 33,0 1,5 -15,6 -7,15 5,11 25,-14 42,-3 11,-19 20,-37 31,-55 -12,-7 -20,-19 -34,-8 -5,2 -3,-7 7,-11 -17,-8 -37,-6 -47,7 16,-5 18,5 19,10 24,5 13,34 -5,33 -14,2 -36,-19 -54,-14z"/>
    <g>
     <g style="clip-path:url(#id5)">
      <image x="281" y="354" width="23.3149" height="21.3643" xlink:href="REAL TOKEN svg_Images\REAL TOKEN svg_ImgID6.png"/>
     </g>
    </g>
    <g style="clip-path:url(#id6)">
     <image id="eye.psd" x="203" y="225" width="135.996" height="75.9821" xlink:href="REAL TOKEN svg_Images\REAL TOKEN svg_ImgID7.png"/>
    </g>
    <g>
     <path class="fil3 str5" d="M271 120c79,0 143,64 143,143 0,79 -64,143 -143,143 -78,0 -142,-64 -142,-143 0,-79 64,-143 142,-143z"/>
    </g>
    <g>
     <g style="clip-path:url(#id7)">
      <image x="170" y="279" width="37.1123" height="59.4293" xlink:href="REAL TOKEN svg_Images\REAL TOKEN svg_ImgID8.png"/>
     </g>
    </g>
    <circle class="fil3 str6" cx="378" cy="354" r="27"/>
    <circle class="fil3 str6" cx="155" cy="354" r="27"/>
    <g>
     <path class="fil3 str7" d="M271 114c83,0 149,67 149,149 0,82 -66,149 -149,149 -82,0 -149,-67 -149,-149 0,-82 67,-149 149,-149z"/>
    </g>
    <g>
     <path class="fil3 str8" d="M271 125c76,0 138,62 138,138 0,76 -62,138 -138,138 -76,0 -137,-62 -137,-138 0,-76 61,-138 137,-138z"/>
    </g>
    <g>
     <path class="fil3 str9" d="M271 79c15,0 27,12 27,27 0,15 -12,27 -27,27 -15,0 -27,-12 -27,-27 0,-15 12,-27 27,-27z"/>
     <g style="clip-path:url(#id8)">
      <image x="244" y="79" width="53.3918" height="53.3943" xlink:href="REAL TOKEN svg_Images\REAL TOKEN svg_ImgID9.png"/>
     </g>
    </g>
    <g style="clip-path:url(#id9)">
     <image id="istockphoto-1161269532-612x612-removebg-preview.png" x="173" y="87" width="126" height="125" xlink:href="REAL TOKEN svg_Images\REAL TOKEN svg_ImgID10.png"/>
    </g>
    <g>
     <g style="clip-path:url(#id10)">
      <image x="362" y="249" width="42.4903" height="71.1356" xlink:href="REAL TOKEN svg_Images\REAL TOKEN svg_ImgID11.png"/>
     </g>
    </g>
    <g>
     <path class="fil3 str10" d="M155 327c15,0 27,12 27,27 0,15 -12,27 -27,27 -15,0 -27,-12 -27,-27 0,-15 12,-27 27,-27z"/>
     <g style="clip-path:url(#id11)">
      <image x="128" y="327" width="53.3918" height="53.3918" xlink:href="REAL TOKEN svg_Images\REAL TOKEN svg_ImgID12.png"/>
     </g>
    </g>
    <g style="clip-path:url(#id12)">
     <image id="istockphoto-1161269532-612x612-removebg-preview.png_0" x="110" y="312" width="63.8847" height="63.2478" xlink:href="REAL TOKEN svg_Images\REAL TOKEN svg_ImgID13.png"/>
    </g>
    <g>
     <path class="fil3 str11" d="M378 327c15,0 27,12 27,27 0,15 -12,27 -27,27 -14,0 -26,-12 -26,-27 0,-15 12,-27 26,-27z"/>
     <g style="clip-path:url(#id13)">
      <image x="352" y="327" width="53.3918" height="53.3918" xlink:href="REAL TOKEN svg_Images\REAL TOKEN svg_ImgID14.png"/>
     </g>
    </g>
    <g style="clip-path:url(#id14)">
     <image id="vector-illustration-of-cannabis-leafs-removebg-preview.png" x="358" y="336" width="73.011" height="36.503" xlink:href="REAL TOKEN svg_Images\REAL TOKEN svg_ImgID15.png"/>
    </g>
    <polygon class="fil5" points="271,408 275,414 281,413 278,417 282,423 275,420 272,424 271,418 265,415 271,414 "/>
    <g>
     <g style="clip-path:url(#id15)">
      <image x="326" y="130" width="24.734" height="24.7365" xlink:href="REAL TOKEN svg_Images\REAL TOKEN svg_ImgID16.png"/>
     </g>
    </g>
    <g>
     <polygon class="fil5 str4" points="165,185 168,186 169,184 169,186 171,187 169,188 169,190 168,188 165,189 167,187 "/>
     <polygon class="fil5 str4" points="171,184 173,184 173,183 174,185 175,185 174,186 174,187 173,186 171,186 172,185 "/>
     <polygon class="fil5 str4" points="165,193 167,194 168,193 168,194 169,194 168,195 168,196 167,195 165,196 166,195 "/>
     <polygon class="fil5 str4" points="174,190 176,190 177,189 177,191 178,191 177,192 177,193 176,192 174,192 175,191 "/>
     <polygon class="fil5 str4" points="170,196 171,197 172,195 172,197 174,197 172,198 173,199 172,198 170,199 171,197 "/>
     <polygon class="fil5 str4" points="179,184 180,185 181,183 181,185 182,185 181,186 181,187 180,186 179,187 180,185 "/>
     <polygon class="fil5 str4" points="178,195 179,195 180,194 180,196 182,196 180,196 180,198 179,197 178,197 179,196 "/>
     <polygon class="fil5 str4" points="181,190 183,191 185,189 185,191 187,192 185,193 185,195 183,193 181,194 183,192 "/>
    </g>
    <g>
     <g style="clip-path:url(#id16)">
      <image x="134" y="121" width="46.0205" height="32.9527" xlink:href="REAL TOKEN svg_Images\REAL TOKEN svg_ImgID17.png"/>
     </g>
    </g>
    <g>
     <g style="clip-path:url(#id17)">
      <image x="182" y="150" width="12.0197" height="12.0197" xlink:href="REAL TOKEN svg_Images\REAL TOKEN svg_ImgID18.png"/>
     </g>
    </g>
    <g>
     <g style="clip-path:url(#id18)">
      <image x="209" y="157" width="6.76205" height="6.75954" xlink:href="REAL TOKEN svg_Images\REAL TOKEN svg_ImgID19.png"/>
     </g>
    </g>
    <g>
     <g style="clip-path:url(#id19)">
      <image x="370" y="146" width="6.75954" height="6.76205" xlink:href="REAL TOKEN svg_Images\REAL TOKEN svg_ImgID20.png"/>
     </g>
    </g>
    <g>
     <g style="clip-path:url(#id20)">
      <image x="228" y="135" width="5.07216" height="5.07216" xlink:href="REAL TOKEN svg_Images\REAL TOKEN svg_ImgID21.png"/>
     </g>
    </g>
    <g>
     <g style="clip-path:url(#id21)">
      <image x="192" y="199" width="162.735" height="56.3729" xlink:href="REAL TOKEN svg_Images\REAL TOKEN svg_ImgID22.png"/>
     </g>
    </g>
   </g>
  </g>
 </g>
</svg>
