<?xml version="1.0" encoding="UTF-8"?>
<svg xmlns="http://www.w3.org/2000/svg" xmlns:xlink="http://www.w3.org/1999/xlink" width="256px" height="256px" viewBox="0 0 256 256" version="1.1">
<g id="surface1">
<path style=" stroke:none;fill-rule:nonzero;fill:rgb(0%,0%,0%);fill-opacity:1;" d="M 256 128 C 256 198.691406 198.691406 256 128 256 C 57.308594 256 0 198.691406 0 128 C 0 57.308594 57.308594 0 128 0 C 198.691406 0 256 57.308594 256 128 Z M 256 128 "/>
<path style=" stroke:none;fill-rule:nonzero;fill:rgb(0%,100%,16.078431%);fill-opacity:1;" d="M 147.804688 162.960938 C 128.496094 162.960938 112.84375 147.3125 112.84375 128 C 112.84375 108.6875 128.496094 93.039062 147.804688 93.039062 C 161.296875 93.039062 172.988281 100.683594 178.824219 111.863281 L 207.785156 111.863281 C 200.679688 85.375 176.519531 65.886719 147.804688 65.886719 L 61.746094 65.886719 L 93.449219 97.921875 L 93.457031 97.921875 C 91.957031 100.617188 90.648438 103.433594 89.566406 106.359375 L 46.070312 128.257812 L 89.855469 150.382812 C 91 153.328125 92.355469 156.167969 93.910156 158.875 L 93.875 158.855469 L 61.738281 190.113281 L 147.796875 190.113281 C 176.964844 190.113281 201.429688 170 208.101562 142.890625 L 179.4375 142.890625 C 173.847656 154.753906 161.785156 162.960938 147.804688 162.960938 Z M 147.804688 162.960938 "/>
</g>
</svg>
