<svg width="256" height="256" viewBox="0 0 256 256" fill="none" xmlns="http://www.w3.org/2000/svg">
<path d="M128 256C198.692 256 256 198.692 256 128C256 57.3075 198.692 0 128 0C57.3075 0 0 57.3075 0 128C0 198.692 57.3075 256 128 256Z" fill="black"/>
<path d="M47.7 127H32.2V163.3H47.7V127Z" fill="url(#paint0_linear_18_23)"/>
<path d="M67.3 102H51.8V163.1H67.3V102Z" fill="url(#paint1_linear_18_23)"/>
<path d="M86.7 85H71.2V162.6H86.7V85Z" fill="url(#paint2_linear_18_23)"/>
<path d="M106 96H90.5V163.1H106V96Z" fill="url(#paint3_linear_18_23)"/>
<path d="M124.9 74H109.4V163.5H124.9V74Z" fill="url(#paint4_linear_18_23)"/>
<path d="M144 65H128.5V163.1H144V65Z" fill="url(#paint5_linear_18_23)"/>
<path d="M162.1 56H147.8V162.8H162.1V56Z" fill="url(#paint6_linear_18_23)"/>
<path d="M180.9 71H166.1V163.4H180.9V71Z" fill="url(#paint7_linear_18_23)"/>
<path d="M199.4 56H184.9V163H199.4V56Z" fill="url(#paint8_linear_18_23)"/>
<path d="M218 45H202.5V163.4H218V45Z" fill="url(#paint9_linear_18_23)"/>
<path d="M159.7 79.3999V89.1999H159.6V139.9C159.6 140.4 159.6 140.9 159.5 141.3C158.7 145.9 154.3 149.5 149 149.5C143.1 149.5 138.4 145.2 138.4 139.9C138.4 134.6 143.2 130.2 149 130.2C151.1 130.2 153.1 130.8 154.7 131.7V90.3999L119.4 98.3999V149.3C119.5 149.9 119.6 150.5 119.6 151C119.6 156.3 114.8 160.6 109 160.6C103.1 160.6 98.4 156.3 98.4 151C98.4 145.7 103.2 141.4 109 141.4C111 141.4 112.9 141.9 114.5 142.8V89.5999L159.7 79.3999Z" fill="black"/>
<path d="M158.8 141.6V143.1H158.7C158.7 142.6 158.8 142.1 158.8 141.6Z" fill="black"/>
<path d="M56 173.3L54.1 176.9C52.2 175.5 49.9 174.8 47.6 174.8C41 174.8 35.6 180.5 35.6 187.5C35.6 194.5 41 200.2 47.6 200.2C50 200.2 52.2 199.5 54.1 198.1L56 201.7C53.5 203.4 50.6 204.3 47.6 204.3C38.8 204.3 31.8 196.8 31.8 187.6C31.8 178.3 38.8 170.9 47.6 170.9C50.5 170.8 53.5 171.7 56 173.3ZM53.8 177.3L52 180.9C50.7 179.9 49.2 179.4 47.5 179.4C43.2 179.4 39.8 183 39.8 187.6C39.8 192.2 43.2 195.8 47.5 195.8C49.2 195.8 50.6 195.3 52 194.3L53.8 197.9C51.9 199.2 49.8 199.9 47.5 199.9C41.1 199.9 35.9 194.4 35.9 187.7C35.9 181 41.1 175.5 47.5 175.5C49.8 175.3 52 176 53.8 177.3Z" fill="#E470B9"/>
<path d="M60.8 204H57.2V193C57.2 187.2 61.2 182.3 67.8 182.3V186.1C63.4 186.1 60.8 189.2 60.8 193V204ZM67.8 190.5V186.6C63.8 186.6 61.3 189.5 61.3 193V204H64.9V193C64.9 191.7 65.7 190.5 67.8 190.5Z" fill="#E470B9"/>
<path d="M96.3 186.3H106.4V182.3H96.3C90.5 182.3 89 189 93.4 192.7C94.8 193.8 95.6 194.6 96.9 195.7H91.3V199.6H101.4C103.1 199.6 103.5 198.2 102.3 197L95.2 189.7C93.6 188.3 94.2 186.3 96.3 186.3ZM77.1 193.1C77.1 191.7 78.2 190.6 79.4 190.6C81.9 190.6 81.9 194.1 79.2 194.1V195H83.7C84.9 193.4 85 192 84.9 190.7C84.6 188.3 82.6 186.6 79.4 186.6C76 186.6 73.3 189.5 73.3 193C73.3 196.5 76 199.5 79.4 199.5C81.3 199.5 83.3 199.5 89.1 199.5V195.6H79.5C78.2 195.7 77.1 194.5 77.1 193.1ZM105 194.4L100.8 190.5H106.4V186.8H96.3C94.6 186.8 94.2 188.3 95.4 189.4L102.6 196.6C104.1 198.2 103.4 200.1 101.4 200.1H91.3V204.1H101.3C106.8 204 108.7 197.9 105 194.4ZM72.8 193.1C72.8 189.3 75.8 186.2 79.4 186.2C82.7 186.2 85 188.2 85.3 190.8C85.5 192.1 85.2 193.8 84.2 195.1H87.9C88.9 193.8 89.2 192.1 89.1 190.5C88.8 184.6 84.2 182.3 79.4 182.3C73.7 182.3 69.1 187.1 69 193.2C69 199.2 73.5 204.2 79.2 204.2H79.3H89V200.2H79.3C75.8 200 72.8 196.9 72.8 193.1Z" fill="#E470B9"/>
<path d="M117.9 186.2C114.3 186.2 111.4 189.3 111.4 193.2C111.4 197.1 114.4 200.1 118 200.1C120.8 200.1 123.2 198.4 124.1 195.6H128.1C127 200.4 122.8 204.1 118 204.1C112.4 204.1 107.7 199 107.7 193.1C107.7 187 112.4 182.1 118 182.1C122.9 182.1 127 185.7 128.1 190.6H124.1C123.2 188 120.7 186.2 117.9 186.2ZM118 199.7C114.7 199.7 111.8 196.7 111.8 193.2C111.8 189.6 114.6 186.7 117.9 186.7C120.4 186.7 122.6 188.3 123.6 190.7H117.9C116.6 190.7 115.6 191.8 115.6 193.2C115.6 194.5 116.7 195.7 118 195.7H123.6C122.7 198 120.6 199.7 118 199.7Z" fill="#E470B9"/>
<path d="M132.7 193.1C132.7 196.9 135.7 200 139.3 200H148.6V204H139.3C133.6 204 129 199.2 128.9 193.1C128.9 187.1 133.4 182.1 139.1 182.1H139.2C143.9 182.1 148.5 184.5 148.9 190.3C149 191.9 148.8 193.6 147.7 194.9H144C145.1 193.6 145.3 191.9 145.1 190.6C144.8 188 142.5 186 139.2 186C135.7 186.2 132.7 189.3 132.7 193.1ZM148.6 199.6C145.5 199.6 142.4 199.6 139.3 199.6C135.9 199.6 133.2 196.7 133.2 193.2C133.2 189.7 135.9 186.8 139.3 186.8C142.5 186.8 144.5 188.6 144.8 190.9C144.9 192.2 144.8 193.6 143.6 195.2H139.1V194.3C141.8 194.3 141.8 190.8 139.3 190.8C138 190.8 137 191.9 137 193.3C137 194.7 138.1 195.8 139.4 195.8C139.4 195.8 139.4 195.8 139.5 195.8H148.8L148.6 199.6Z" fill="#E470B9"/>
<path d="M155 191C154.5 188.9 153 187.2 151.1 186.4V182.3C152.6 182.6 153.9 183.3 155.1 184.3C156.9 182.8 159.1 182 161.4 182C167 182 171.6 186.8 171.6 192.9V204H167.9V192.8C167.9 189 165 186 161.4 185.9C158.3 186 155.9 187.9 155 191ZM151.1 204H154.8V192.9C154.8 190.3 153.3 187.9 151.1 186.9V204ZM163.6 192.9V204H167.3V192.9C167.3 189.4 164.6 186.5 161.3 186.5C158 186.5 155.3 189.4 155.3 192.9V204H159V192.9C159 191.5 160 190.4 161.3 190.4C162.5 190.4 163.6 191.6 163.6 192.9Z" fill="#E470B9"/>
<path d="M185.4 182.4V186.5C184.9 186.4 184.3 186.2 183.6 186.2C180 186.2 177 189.4 177 193.2C177 197 180 200.2 183.6 200.2C187.2 200.2 190.2 197 190.2 193.2V181.7C190.2 179.1 191.7 176.7 193.9 175.8V193.2C193.9 199.2 189.3 204.1 183.6 204.1C177.9 204.1 173.3 199.2 173.3 193.2C173.3 187.3 178 182.3 183.6 182.3C184.2 182.3 184.9 182.3 185.4 182.4ZM189.7 193.2C189.7 196.7 187 199.6 183.6 199.6C180.2 199.6 177.5 196.7 177.5 193.2C177.5 189.7 180.2 186.8 183.6 186.8C184.2 186.8 184.9 186.8 185.4 187.1V191.4C183.9 189.9 181.3 191 181.3 193.2C181.4 194.5 182.2 195.6 183.6 195.6C185 195.6 185.9 194.4 185.9 193V181.7C185.9 176.7 189.3 172.2 193.9 171.1V175.3C191.4 176.3 189.7 178.8 189.7 181.8V193.2Z" fill="#E470B9"/>
<path d="M216.2 193.3C216.2 199.4 211.4 204.4 205.6 204.4C199.9 204.4 195.1 199.4 195.1 193.3C195.1 187.1 199.8 182.1 205.6 182.1C211.5 182.1 216.2 187.1 216.2 193.3ZM212.4 193.3C212.4 189.3 209.3 186.2 205.6 186.2C201.9 186.2 199 189.4 199 193.3C199 197.2 202 200.4 205.6 200.4C209.4 200.4 212.4 197.2 212.4 193.3ZM211.9 193.3C211.9 197 209.1 199.9 205.7 199.9C202.3 199.9 199.5 197 199.5 193.4C199.5 189.8 202.3 186.8 205.7 186.8C209.1 186.7 211.9 189.7 211.9 193.3ZM208.1 193.3C208.1 191.9 207 190.8 205.7 190.8C204.5 190.8 203.3 191.9 203.3 193.3C203.3 194.6 204.4 195.8 205.7 195.8C207 195.8 208.1 194.6 208.1 193.3Z" fill="#E470B9"/>
<defs>
<linearGradient id="paint0_linear_18_23" x1="39.9237" y1="125.298" x2="39.9237" y2="162.751" gradientUnits="userSpaceOnUse">
<stop stop-color="#FFA7FF"/>
<stop offset="0.04" stop-color="#FF93E0"/>
<stop offset="0.09" stop-color="#FF7EBE"/>
<stop offset="0.12" stop-color="#FF71A9"/>
<stop offset="0.15" stop-color="#FF6CA1"/>
<stop offset="0.33" stop-color="#DD4FBD"/>
<stop offset="0.46" stop-color="#C745BE"/>
<stop offset="0.82" stop-color="#8D2ABF"/>
<stop offset="1" stop-color="#761FC0"/>
</linearGradient>
<linearGradient id="paint1_linear_18_23" x1="59.541" y1="100.236" x2="59.541" y2="161.6" gradientUnits="userSpaceOnUse">
<stop stop-color="#FFA7FF"/>
<stop offset="0.04" stop-color="#FF93E0"/>
<stop offset="0.09" stop-color="#FF7EBE"/>
<stop offset="0.12" stop-color="#FF71A9"/>
<stop offset="0.15" stop-color="#FF6CA1"/>
<stop offset="0.33" stop-color="#DD4FBD"/>
<stop offset="0.46" stop-color="#C745BE"/>
<stop offset="0.82" stop-color="#8D2ABF"/>
<stop offset="1" stop-color="#761FC0"/>
</linearGradient>
<linearGradient id="paint2_linear_18_23" x1="78.9123" y1="83.2691" x2="78.9123" y2="161.576" gradientUnits="userSpaceOnUse">
<stop stop-color="#FF70A7"/>
<stop offset="0.15" stop-color="#FF6CA1"/>
<stop offset="0.33" stop-color="#DD4FBD"/>
<stop offset="0.46" stop-color="#C745BE"/>
<stop offset="0.82" stop-color="#8D2ABF"/>
<stop offset="1" stop-color="#761FC0"/>
</linearGradient>
<linearGradient id="paint3_linear_18_23" x1="98.2837" y1="90.3948" x2="98.2837" y2="161.531" gradientUnits="userSpaceOnUse">
<stop stop-color="#FFA7FF"/>
<stop offset="0.04" stop-color="#FF93E0"/>
<stop offset="0.09" stop-color="#FF7EBE"/>
<stop offset="0.12" stop-color="#FF71A9"/>
<stop offset="0.15" stop-color="#FF6CA1"/>
<stop offset="0.33" stop-color="#DD4FBD"/>
<stop offset="0.46" stop-color="#C745BE"/>
<stop offset="0.82" stop-color="#8D2ABF"/>
<stop offset="1" stop-color="#761FC0"/>
</linearGradient>
<linearGradient id="paint4_linear_18_23" x1="117.101" y1="70.2479" x2="117.101" y2="162.041" gradientUnits="userSpaceOnUse">
<stop stop-color="#FFA7FF"/>
<stop offset="0.04" stop-color="#FF93E0"/>
<stop offset="0.09" stop-color="#FF7EBE"/>
<stop offset="0.12" stop-color="#FF71A9"/>
<stop offset="0.15" stop-color="#FF6CA1"/>
<stop offset="0.33" stop-color="#DD4FBD"/>
<stop offset="0.46" stop-color="#C745BE"/>
<stop offset="0.82" stop-color="#8D2ABF"/>
<stop offset="1" stop-color="#761FC0"/>
</linearGradient>
<linearGradient id="paint5_linear_18_23" x1="136.288" y1="62.8876" x2="136.288" y2="161.756" gradientUnits="userSpaceOnUse">
<stop stop-color="#FFA7FF"/>
<stop offset="0.04" stop-color="#FF93E0"/>
<stop offset="0.09" stop-color="#FF7EBE"/>
<stop offset="0.12" stop-color="#FF71A9"/>
<stop offset="0.15" stop-color="#FF6CA1"/>
<stop offset="0.33" stop-color="#DD4FBD"/>
<stop offset="0.46" stop-color="#C745BE"/>
<stop offset="0.82" stop-color="#8D2ABF"/>
<stop offset="1" stop-color="#761FC0"/>
</linearGradient>
<linearGradient id="paint6_linear_18_23" x1="155.014" y1="54.8267" x2="155.014" y2="161.889" gradientUnits="userSpaceOnUse">
<stop stop-color="#FFA7FF"/>
<stop offset="0.04" stop-color="#FF93E0"/>
<stop offset="0.09" stop-color="#FF7EBE"/>
<stop offset="0.12" stop-color="#FF71A9"/>
<stop offset="0.15" stop-color="#FF6CA1"/>
<stop offset="0.33" stop-color="#DD4FBD"/>
<stop offset="0.46" stop-color="#C745BE"/>
<stop offset="0.82" stop-color="#8D2ABF"/>
<stop offset="1" stop-color="#761FC0"/>
</linearGradient>
<linearGradient id="paint7_linear_18_23" x1="173.462" y1="66.2328" x2="173.462" y2="161.506" gradientUnits="userSpaceOnUse">
<stop stop-color="#FFA7FF"/>
<stop offset="0.04" stop-color="#FF93E0"/>
<stop offset="0.09" stop-color="#FF7EBE"/>
<stop offset="0.12" stop-color="#FF71A9"/>
<stop offset="0.15" stop-color="#FF6CA1"/>
<stop offset="0.33" stop-color="#DD4FBD"/>
<stop offset="0.46" stop-color="#C745BE"/>
<stop offset="0.82" stop-color="#8D2ABF"/>
<stop offset="1" stop-color="#761FC0"/>
</linearGradient>
<linearGradient id="paint8_linear_18_23" x1="192.591" y1="52.648" x2="191.72" y2="159.224" gradientUnits="userSpaceOnUse">
<stop stop-color="#FFA7FF"/>
<stop offset="0.04" stop-color="#FF93E0"/>
<stop offset="0.09" stop-color="#FF7EBE"/>
<stop offset="0.12" stop-color="#FF71A9"/>
<stop offset="0.15" stop-color="#FF6CA1"/>
<stop offset="0.33" stop-color="#DD4FBD"/>
<stop offset="0.46" stop-color="#C745BE"/>
<stop offset="0.82" stop-color="#8D2ABF"/>
<stop offset="1" stop-color="#761FC0"/>
</linearGradient>
<linearGradient id="paint9_linear_18_23" x1="210.206" y1="40.5659" x2="210.206" y2="161.94" gradientUnits="userSpaceOnUse">
<stop stop-color="#FFA7FF"/>
<stop offset="0.04" stop-color="#FF93E0"/>
<stop offset="0.09" stop-color="#FF7EBE"/>
<stop offset="0.12" stop-color="#FF71A9"/>
<stop offset="0.15" stop-color="#FF6CA1"/>
<stop offset="0.33" stop-color="#DD4FBD"/>
<stop offset="0.46" stop-color="#C745BE"/>
<stop offset="0.82" stop-color="#8D2ABF"/>
<stop offset="1" stop-color="#761FC0"/>
</linearGradient>
</defs>
</svg>
