<?xml version="1.0" standalone="no"?>
<!DOCTYPE svg PUBLIC "-//W3C//DTD SVG 20010904//EN"
 "http://www.w3.org/TR/2001/REC-SVG-20010904/DTD/svg10.dtd">
<svg version="1.0" xmlns="http://www.w3.org/2000/svg"
 width="256.000000pt" height="256.000000pt" viewBox="0 0 256.000000 256.000000"
 preserveAspectRatio="xMidYMid meet">

<g transform="translate(0.000000,256.000000) scale(0.100000,-0.100000)"
fill="#000000" stroke="none">
<path d="M1160 2554 c-14 -2 -58 -9 -99 -15 -230 -34 -469 -156 -667 -342
-140 -131 -270 -347 -329 -548 -103 -352 -53 -726 138 -1034 133 -214 300
-363 532 -475 195 -95 323 -124 545 -124 213 0 346 29 525 113 171 81 273 156
404 294 157 166 265 382 316 632 25 120 23 351 -4 482 -109 528 -530 930
-1056 1008 -93 14 -242 18 -305 9z m6 -187 c-60 -39 -115 -92 -143 -139 -27
-45 -147 -307 -278 -608 -18 -41 -99 -221 -180 -400 -81 -179 -163 -362 -183
-407 -20 -46 -40 -83 -44 -83 -4 0 -25 38 -47 84 -165 345 -137 753 74 1076
60 92 218 252 305 309 152 99 363 176 490 179 23 1 24 0 6 -11z m302 3 c402
-66 766 -402 871 -805 67 -255 40 -527 -76 -763 -19 -39 -38 -72 -42 -72 -3 0
-26 44 -51 98 -24 53 -59 131 -78 172 -19 41 -72 158 -117 260 -45 102 -95
212 -110 245 -34 77 -41 93 -110 250 -32 72 -73 163 -91 203 -19 41 -34 75
-34 77 0 2 -18 43 -40 91 -53 114 -92 166 -157 211 -29 20 -53 38 -53 40 0 5
22 3 88 -7z m-88 -650 c16 -36 50 -114 77 -175 277 -618 493 -1107 493 -1118
0 -15 -133 -103 -211 -140 -70 -33 -213 -75 -299 -87 -85 -13 -249 -12 -327 0
-86 14 -225 56 -292 87 -31 15 -93 51 -138 81 l-81 53 20 47 c24 56 41 94 103
232 70 155 74 165 185 415 56 127 112 253 124 280 13 28 69 154 126 280 57
127 108 236 114 244 10 13 32 -28 106 -199z"/>
<path d="M1165 1043 c-60 -137 -125 -284 -146 -328 -69 -150 -70 -151 -51
-168 10 -8 41 -27 69 -41 153 -76 336 -75 491 3 87 44 87 44 44 136 -21 44
-94 207 -162 362 -69 156 -127 283 -130 283 -3 0 -54 -111 -115 -247z"/>
</g>
</svg>
