<svg id="svg" version="1.1" xmlns="http://www.w3.org/2000/svg" xmlns:xlink="http://www.w3.org/1999/xlink" width="400" height="400" viewBox="0, 0, 400,400"><g id="svgg"><path id="path0" d="M200.162 0.337 C 200.313 0.581,200.611 0.781,200.825 0.781 C 201.039 0.781,201.849 1.213,202.625 1.741 C 203.401 2.268,204.183 2.609,204.362 2.499 C 204.541 2.388,204.688 2.446,204.688 2.627 C 204.688 3.019,207.097 4.516,207.520 4.386 C 207.681 4.337,207.813 4.483,207.813 4.711 C 207.813 4.938,207.988 5.016,208.203 4.883 C 208.418 4.750,208.594 4.795,208.594 4.983 C 208.594 5.351,213.499 8.594,214.054 8.594 C 214.238 8.594,214.447 8.738,214.518 8.914 C 214.707 9.378,219.531 12.583,219.531 12.245 C 219.531 12.088,219.751 12.232,220.020 12.564 C 220.701 13.406,228.041 18.750,228.517 18.750 C 228.731 18.750,228.906 18.897,228.906 19.077 C 228.906 19.258,230.356 20.527,232.129 21.900 C 235.689 24.656,236.096 24.996,241.188 29.489 C 243.134 31.206,244.785 32.744,244.857 32.907 C 244.928 33.070,245.108 33.203,245.257 33.203 C 245.532 33.203,258.594 46.110,258.594 46.381 C 258.594 46.463,259.278 47.267,260.115 48.167 C 260.952 49.068,262.902 51.299,264.449 53.125 C 265.996 54.951,267.616 56.753,268.049 57.129 C 268.482 57.505,268.718 57.812,268.573 57.813 C 268.284 57.813,272.856 63.603,273.697 64.301 C 273.984 64.539,274.219 64.859,274.219 65.011 C 274.219 65.164,275.236 66.726,276.480 68.484 C 277.723 70.242,279.144 72.339,279.637 73.145 C 280.129 73.950,280.694 74.609,280.891 74.609 C 281.089 74.609,281.250 74.832,281.250 75.105 C 281.250 75.377,281.693 76.252,282.234 77.048 C 282.775 77.845,284.376 80.478,285.792 82.901 C 287.207 85.323,288.537 87.412,288.747 87.544 C 288.957 87.675,289.104 87.900,289.073 88.044 C 288.989 88.434,293.411 97.032,293.838 97.309 C 294.041 97.441,294.190 97.661,294.170 97.799 C 294.149 97.938,294.397 98.686,294.722 99.464 C 295.047 100.241,295.313 101.009,295.313 101.172 C 295.313 101.334,295.580 101.689,295.908 101.961 C 296.235 102.233,296.428 102.530,296.336 102.623 C 296.182 102.776,296.734 104.102,299.226 109.570 C 299.715 110.645,300.161 111.735,300.216 111.993 C 300.271 112.251,300.787 113.481,301.363 114.727 C 301.938 115.973,302.464 117.256,302.531 117.578 C 302.598 117.900,303.638 120.933,304.842 124.318 C 306.046 127.703,307.031 130.636,307.031 130.836 C 307.031 131.036,307.234 131.694,307.482 132.299 C 307.729 132.904,307.996 133.734,308.074 134.143 C 308.303 135.337,309.450 139.222,309.697 139.642 C 309.822 139.853,309.952 140.292,309.986 140.618 C 310.090 141.607,311.798 148.606,312.033 149.004 C 312.153 149.208,312.279 149.735,312.311 150.176 C 312.432 151.807,313.740 158.031,314.103 158.707 C 314.310 159.092,314.402 159.533,314.306 159.687 C 314.211 159.841,314.292 160.757,314.487 161.722 C 314.682 162.687,314.918 164.180,315.012 165.039 C 315.105 165.898,315.466 168.799,315.814 171.484 C 317.730 186.285,317.351 201.877,314.788 213.672 C 314.344 215.713,313.936 217.646,313.881 217.969 C 313.826 218.291,313.685 218.818,313.568 219.141 C 313.451 219.463,312.890 221.276,312.322 223.169 C 311.753 225.062,310.580 228.402,309.716 230.591 C 308.851 232.779,308.108 234.746,308.065 234.961 C 308.021 235.176,307.878 235.527,307.746 235.742 C 307.614 235.957,306.389 238.330,305.023 241.016 C 303.657 243.701,302.451 245.986,302.343 246.094 C 301.897 246.537,299.225 250.781,299.391 250.781 C 299.491 250.781,299.141 251.246,298.614 251.815 C 298.087 252.383,297.656 253.072,297.656 253.345 C 297.656 253.618,297.501 253.900,297.310 253.971 C 296.945 254.109,294.141 257.683,294.141 258.011 C 294.141 258.117,293.809 258.535,293.404 258.940 C 292.682 259.661,292.602 259.610,289.409 256.401 C 287.616 254.599,286.038 253.125,285.901 253.125 C 285.764 253.125,284.080 251.587,282.158 249.707 C 278.752 246.375,275.415 243.192,268.045 236.241 C 266.058 234.368,262.850 231.340,260.916 229.514 C 258.983 227.688,255.819 224.700,253.885 222.874 C 251.951 221.047,248.787 218.059,246.854 216.233 C 244.920 214.407,241.756 211.419,239.822 209.592 C 235.736 205.733,231.867 202.075,223.276 193.945 C 219.870 190.723,216.623 187.667,216.061 187.155 C 214.946 186.139,209.921 181.396,204.677 176.410 C 202.844 174.668,199.760 171.748,197.822 169.922 C 193.023 165.400,187.959 160.616,183.762 156.641 C 173.387 146.814,167.923 141.658,166.097 139.970 L 164.059 138.086 178.164 123.926 C 185.922 116.138,192.383 109.762,192.522 109.757 C 192.899 109.744,227.125 75.428,226.928 75.261 C 226.834 75.182,220.605 74.281,213.086 73.259 C 197.626 71.159,195.375 70.851,172.070 67.639 C 162.832 66.366,155.010 65.305,154.688 65.281 C 154.365 65.257,150.674 64.735,146.484 64.122 L 138.867 63.006 121.639 80.186 C 112.164 89.635,104.118 97.530,103.760 97.730 C 103.402 97.931,103.213 98.264,103.341 98.471 C 103.469 98.678,103.411 98.799,103.211 98.740 C 103.012 98.681,93.902 107.526,82.967 118.396 C 72.033 129.266,57.769 143.411,51.270 149.830 C 44.771 156.249,39.453 161.662,39.453 161.860 C 39.453 162.058,50.658 173.448,64.353 187.172 L 89.254 212.124 99.541 201.765 C 105.200 196.068,109.928 191.406,110.048 191.406 C 110.169 191.406,116.049 185.649,123.115 178.613 C 130.182 171.577,136.060 165.848,136.177 165.882 C 136.587 166.001,139.515 168.750,139.232 168.750 C 138.928 168.750,143.019 173.087,148.438 178.511 C 150.264 180.339,151.726 181.929,151.687 182.046 C 151.649 182.163,153.259 183.893,155.267 185.890 C 157.274 187.887,158.920 189.606,158.923 189.709 C 158.931 189.910,171.207 202.750,189.290 221.468 C 192.101 224.377,197.110 229.565,200.423 232.996 C 203.735 236.427,209.214 242.043,212.598 245.476 C 215.981 248.909,218.750 251.811,218.750 251.924 C 218.750 252.038,221.706 255.123,225.319 258.780 C 243.695 277.380,254.658 288.794,254.458 289.118 C 254.369 289.263,252.933 289.944,251.269 290.633 C 249.604 291.321,247.627 292.156,246.875 292.487 C 246.123 292.818,245.369 293.060,245.199 293.024 C 245.029 292.988,244.502 293.172,244.027 293.433 C 243.552 293.694,242.966 293.941,242.723 293.983 C 242.481 294.024,241.338 294.330,240.184 294.662 C 225.040 299.026,208.351 300.425,194.727 298.471 C 193.223 298.255,191.289 297.989,190.430 297.878 C 188.410 297.619,178.436 295.149,176.228 294.362 C 175.292 294.028,174.369 293.852,174.177 293.971 C 173.985 294.090,173.828 294.020,173.828 293.815 C 173.828 293.611,173.345 293.324,172.754 293.177 C 172.163 293.030,170.625 292.494,169.336 291.985 C 168.047 291.477,166.729 291.007,166.406 290.941 C 166.084 290.874,165.732 290.732,165.625 290.625 C 165.224 290.224,159.035 287.377,158.766 287.470 C 158.612 287.523,158.378 287.405,158.247 287.208 C 157.892 286.675,153.126 283.963,153.119 284.290 C 153.116 284.444,152.984 284.382,152.826 284.152 C 152.668 283.921,151.239 282.897,149.649 281.876 C 145.853 279.437,139.936 274.937,136.523 271.893 C 135.020 270.552,133.262 268.988,132.617 268.419 C 131.973 267.849,130.765 266.567,129.933 265.569 C 128.063 263.327,128.162 263.309,124.210 266.616 C 116.706 272.896,116.535 273.019,116.049 272.533 C 115.744 272.228,114.025 272.072,111.016 272.076 C 105.643 272.082,103.288 272.910,100.312 275.838 C 99.245 276.888,98.145 277.591,97.436 277.676 C 96.805 277.751,96.113 277.922,95.898 278.055 C 95.684 278.189,95.211 278.344,94.848 278.401 C 93.731 278.575,89.844 280.538,89.844 280.928 C 89.844 281.131,89.703 281.209,89.531 281.103 C 89.190 280.892,85.890 283.924,84.457 285.765 C 83.575 286.898,79.262 295.466,79.329 295.952 C 79.348 296.089,79.210 296.309,79.022 296.441 C 78.834 296.572,77.648 298.174,76.387 300.000 C 71.570 306.974,63.974 314.587,58.018 318.411 C 56.616 319.311,55.469 320.195,55.469 320.376 C 55.469 320.556,55.337 320.663,55.176 320.614 C 55.015 320.565,53.191 321.444,51.124 322.567 C 49.056 323.690,47.166 324.609,46.924 324.609 C 46.682 324.609,46.484 324.814,46.484 325.065 C 46.484 325.316,46.381 325.417,46.254 325.291 C 46.032 325.069,42.416 326.314,39.505 327.615 C 38.725 327.964,37.998 328.268,37.891 328.290 C 37.042 328.463,35.156 329.459,35.156 329.735 C 35.156 329.924,35.014 330.034,34.841 329.980 C 34.326 329.821,27.314 333.920,26.367 334.934 C 26.152 335.164,25.221 335.844,24.297 336.444 C 23.373 337.045,22.520 337.792,22.400 338.104 C 22.280 338.416,21.966 338.672,21.702 338.672 C 21.167 338.672,11.995 348.062,12.265 348.333 C 12.434 348.502,11.704 349.504,10.519 350.732 C 9.596 351.686,8.114 353.906,8.400 353.906 C 8.537 353.906,8.385 354.170,8.062 354.493 C 7.383 355.173,4.418 360.459,4.229 361.328 C 4.159 361.650,4.001 362.002,3.879 362.109 C 3.455 362.481,1.528 367.674,1.737 367.883 C 1.852 367.998,1.789 368.284,1.596 368.519 C 1.403 368.753,1.148 369.473,1.029 370.117 C 0.909 370.762,0.613 372.080,0.370 373.047 C 0.078 374.208,0.017 376.594,0.191 380.078 C 0.335 382.979,0.449 386.758,0.443 388.477 C 0.430 392.593,2.604 398.266,3.890 397.471 C 4.069 397.361,4.318 397.537,4.443 397.864 C 4.948 399.180,8.180 400.081,11.523 399.839 C 13.242 399.714,15.352 399.636,16.211 399.664 C 23.776 399.916,32.946 398.729,33.959 397.368 C 34.080 397.204,34.520 397.011,34.935 396.939 C 36.052 396.745,41.016 394.471,41.016 394.153 C 41.016 394.003,41.243 393.880,41.522 393.880 C 42.229 393.880,48.437 389.852,48.438 389.392 C 48.438 389.186,48.601 389.118,48.801 389.241 C 49.002 389.365,49.413 389.113,49.715 388.681 C 50.018 388.249,50.353 387.983,50.459 388.090 C 50.566 388.196,51.737 387.268,53.061 386.028 C 54.385 384.787,55.469 383.836,55.469 383.914 C 55.469 383.992,56.798 382.678,58.422 380.993 C 61.814 377.475,66.016 372.092,66.016 371.265 C 66.016 370.956,66.191 370.703,66.406 370.703 C 66.621 370.703,66.797 370.520,66.797 370.296 C 66.797 370.072,67.129 369.532,67.536 369.096 C 68.672 367.876,72.531 359.842,73.049 357.617 C 73.721 354.736,77.652 346.801,80.791 341.992 C 83.748 337.464,94.354 325.781,95.509 325.781 C 95.680 325.781,101.164 321.891,101.563 321.487 C 101.670 321.378,102.417 320.954,103.223 320.544 C 104.028 320.134,104.688 319.651,104.688 319.470 C 104.688 319.289,104.825 319.185,104.993 319.238 C 105.482 319.395,112.105 315.906,113.150 314.941 C 113.674 314.458,114.241 314.063,114.411 314.063 C 114.580 314.063,115.369 313.359,116.164 312.500 C 116.959 311.641,117.523 310.938,117.417 310.938 C 117.311 310.938,117.653 310.476,118.175 309.912 C 118.698 309.348,119.031 308.732,118.915 308.545 C 118.799 308.357,118.869 308.203,119.070 308.203 C 119.360 308.203,120.219 306.622,120.556 305.469 C 121.149 303.439,120.896 303.271,128.068 310.468 C 134.557 316.978,141.001 322.713,141.028 322.000 C 141.034 321.824,141.209 321.970,141.416 322.325 C 142.753 324.616,168.346 340.397,170.313 340.144 C 170.420 340.130,171.211 340.475,172.070 340.911 C 176.044 342.924,192.171 348.598,193.276 348.371 C 193.429 348.339,193.818 348.422,194.141 348.554 C 200.021 350.971,218.615 353.323,231.641 353.300 C 239.673 353.285,250.498 352.581,252.109 351.968 C 252.624 351.772,253.118 351.686,253.208 351.776 C 253.392 351.959,260.029 350.882,260.938 350.521 C 261.260 350.393,262.040 350.221,262.671 350.139 C 263.303 350.057,264.533 349.787,265.406 349.539 C 266.278 349.291,267.344 349.026,267.773 348.951 C 273.796 347.901,288.508 342.224,297.266 337.572 L 300.195 336.016 305.686 341.651 C 308.706 344.751,311.132 347.331,311.077 347.386 C 311.023 347.441,312.697 349.194,314.797 351.282 C 316.898 353.370,318.529 355.078,318.422 355.078 C 318.315 355.078,319.721 356.616,321.547 358.496 C 323.372 360.376,326.434 363.582,328.351 365.620 C 330.268 367.658,333.084 370.646,334.609 372.260 C 336.135 373.875,338.859 376.783,340.664 378.724 C 353.750 392.797,358.663 397.456,359.517 396.602 C 359.654 396.466,359.766 396.570,359.766 396.833 C 359.766 397.096,359.941 397.203,360.156 397.070 C 360.371 396.938,360.547 397.025,360.547 397.266 C 360.547 397.506,360.723 397.594,360.937 397.461 C 361.152 397.328,361.328 397.369,361.328 397.552 C 361.328 397.885,364.398 399.002,366.602 399.471 C 373.922 401.027,386.335 398.418,388.877 394.789 C 389.194 394.337,389.453 394.132,389.453 394.333 C 389.453 394.535,390.436 393.739,391.637 392.565 C 394.011 390.244,396.987 386.179,396.597 385.790 C 396.463 385.656,396.539 385.547,396.765 385.547 C 397.260 385.547,398.589 382.314,399.414 379.102 C 400.084 376.493,400.179 368.125,399.543 367.732 C 399.335 367.604,399.268 367.231,399.394 366.903 C 399.520 366.575,399.423 366.066,399.178 365.771 C 398.933 365.476,398.839 365.234,398.970 365.234 C 399.330 365.234,397.678 360.965,396.589 359.082 C 396.061 358.169,395.459 357.422,395.252 357.422 C 395.045 357.422,394.981 357.252,395.109 357.044 C 395.238 356.836,394.984 356.442,394.546 356.169 C 394.108 355.895,393.750 355.482,393.750 355.249 C 393.750 355.017,392.520 353.634,391.016 352.176 C 389.512 350.718,388.281 349.609,388.281 349.713 C 388.281 349.885,386.733 348.403,378.116 339.981 C 376.499 338.402,375.068 337.109,374.936 337.109 C 374.803 337.109,373.225 335.650,371.429 333.867 C 367.710 330.173,356.758 319.828,355.013 318.359 C 354.374 317.822,352.595 316.108,351.059 314.551 C 349.524 312.993,348.173 311.719,348.059 311.719 C 347.100 311.719,338.578 302.591,339.000 302.016 C 339.262 301.659,339.576 301.072,339.698 300.711 C 339.821 300.350,340.178 299.955,340.493 299.834 C 340.808 299.714,340.956 299.438,340.822 299.222 C 340.688 299.005,340.771 298.828,341.005 298.828 C 341.715 298.828,350.486 284.908,350.851 283.203 C 350.920 282.881,351.081 282.529,351.210 282.422 C 351.680 282.028,354.668 275.781,354.389 275.775 C 354.231 275.772,354.288 275.640,354.516 275.482 C 354.958 275.177,356.768 270.917,356.646 270.470 C 356.606 270.324,356.739 270.097,356.940 269.966 C 357.371 269.684,358.798 265.942,359.637 262.891 C 359.962 261.709,360.366 260.566,360.535 260.352 C 361.101 259.630,364.152 248.438,363.782 248.437 C 363.669 248.437,363.793 248.176,364.058 247.857 C 364.324 247.537,364.441 247.015,364.319 246.697 C 364.196 246.379,364.269 246.012,364.481 245.881 C 364.692 245.751,364.832 245.438,364.793 245.185 C 364.753 244.933,364.827 244.463,364.957 244.141 C 365.556 242.660,367.778 227.678,367.912 224.219 C 367.933 223.682,368.122 220.781,368.332 217.773 C 368.542 214.766,368.645 209.844,368.560 206.836 C 368.423 201.985,368.301 199.766,367.794 192.969 C 367.588 190.198,366.738 183.426,366.561 183.138 C 366.473 182.995,366.312 181.988,366.204 180.900 C 366.096 179.813,365.742 177.732,365.418 176.278 C 365.094 174.823,364.738 173.018,364.628 172.266 C 364.518 171.514,364.248 170.283,364.027 169.531 C 363.806 168.779,363.537 167.637,363.429 166.992 C 363.041 164.675,359.730 152.933,359.361 152.564 C 359.154 152.357,358.984 151.804,358.984 151.336 C 358.984 150.282,354.098 136.552,353.037 134.626 C 352.784 134.166,352.541 133.578,352.498 133.320 C 352.454 133.062,351.936 131.831,351.346 130.585 C 350.756 129.340,350.230 128.120,350.177 127.876 C 349.941 126.773,344.761 116.406,344.447 116.406 C 344.253 116.406,344.186 116.258,344.298 116.076 C 344.612 115.569,336.424 101.048,335.429 100.347 C 335.242 100.216,335.140 100.040,335.203 99.956 C 335.385 99.712,333.846 97.266,333.510 97.266 C 333.341 97.266,333.203 97.002,333.203 96.680 C 333.203 96.357,333.017 96.094,332.789 96.094 C 332.562 96.094,332.478 95.929,332.602 95.727 C 332.727 95.525,332.574 95.218,332.263 95.044 C 331.951 94.869,331.676 94.551,331.652 94.336 C 331.587 93.762,329.932 91.412,329.590 91.409 C 329.429 91.407,329.297 91.202,329.297 90.953 C 329.297 89.936,317.847 74.963,314.037 70.997 C 313.056 69.976,312.339 69.141,312.445 69.141 C 312.550 69.141,311.662 68.174,310.471 66.992 C 309.280 65.811,308.414 64.840,308.547 64.835 C 308.680 64.831,305.551 61.667,301.593 57.806 C 297.635 53.945,294.345 50.837,294.283 50.900 C 294.220 50.963,292.887 49.819,291.322 48.359 C 289.757 46.898,288.353 45.703,288.201 45.703 C 288.050 45.703,287.514 45.308,287.011 44.824 C 285.081 42.970,282.597 41.038,282.129 41.027 C 281.860 41.021,281.641 40.863,281.641 40.677 C 281.641 40.490,279.751 38.943,277.441 37.238 C 272.308 33.448,264.844 28.405,264.844 28.727 C 264.844 28.856,264.575 28.693,264.247 28.365 C 262.574 26.692,245.237 16.797,243.979 16.797 C 243.674 16.797,243.366 16.634,243.294 16.435 C 243.159 16.057,230.695 10.156,230.033 10.156 C 229.826 10.156,228.964 9.803,228.117 9.371 C 226.379 8.484,217.304 5.015,216.406 4.895 C 216.084 4.851,215.186 4.543,214.412 4.209 C 213.265 3.715,211.156 3.089,210.156 2.946 C 210.049 2.930,209.785 2.806,209.570 2.670 C 209.179 2.423,206.009 1.446,205.273 1.347 C 205.059 1.317,204.418 1.102,203.850 0.868 C 202.120 0.154,199.847 -0.174,200.162 0.337 " stroke="none" fill="#cc0404" fill-rule="evenodd"></path><path id="path1" d="M105.255 96.191 L 103.711 97.852 105.371 96.307 C 106.915 94.871,107.211 94.531,106.915 94.531 C 106.851 94.531,106.104 95.278,105.255 96.191 M99.780 101.660 L 98.633 102.930 99.902 101.782 C 101.086 100.713,101.351 100.391,101.050 100.391 C 100.982 100.391,100.411 100.962,99.780 101.660 M190.778 111.154 C 189.189 112.916,189.695 112.898,191.406 111.133 C 192.135 110.381,192.565 109.775,192.362 109.787 C 192.159 109.799,191.446 110.414,190.778 111.154 M63.849 137.207 L 62.305 138.867 63.965 137.323 C 65.509 135.887,65.805 135.547,65.509 135.547 C 65.445 135.547,64.698 136.294,63.849 137.207 M58.374 142.676 L 57.227 143.945 58.496 142.798 C 59.679 141.729,59.945 141.406,59.643 141.406 C 59.576 141.406,59.005 141.978,58.374 142.676 M39.453 162.232 C 39.453 162.299,40.024 162.870,40.723 163.501 L 41.992 164.648 40.845 163.379 C 39.775 162.196,39.453 161.930,39.453 162.232 M150.781 181.250 C 151.011 181.680,151.396 182.031,151.637 182.031 C 151.877 182.031,151.756 181.680,151.367 181.250 C 150.978 180.820,150.593 180.469,150.512 180.469 C 150.430 180.469,150.551 180.820,150.781 181.250 M108.235 193.073 L 106.901 194.727 108.528 193.182 C 110.219 191.579,110.353 191.402,109.863 191.413 C 109.702 191.417,108.970 192.164,108.235 193.073 " stroke="none" fill="#d00404" fill-rule="evenodd"></path><path id="path2" d="M105.255 96.191 L 103.711 97.852 105.371 96.307 C 106.915 94.871,107.211 94.531,106.915 94.531 C 106.851 94.531,106.104 95.278,105.255 96.191 M99.780 101.660 L 98.633 102.930 99.902 101.782 C 101.086 100.713,101.351 100.391,101.050 100.391 C 100.982 100.391,100.411 100.962,99.780 101.660 M190.778 111.154 C 189.189 112.916,189.695 112.898,191.406 111.133 C 192.135 110.381,192.565 109.775,192.362 109.787 C 192.159 109.799,191.446 110.414,190.778 111.154 M63.849 137.207 L 62.305 138.867 63.965 137.323 C 65.509 135.887,65.805 135.547,65.509 135.547 C 65.445 135.547,64.698 136.294,63.849 137.207 M58.374 142.676 L 57.227 143.945 58.496 142.798 C 59.679 141.729,59.945 141.406,59.643 141.406 C 59.576 141.406,59.005 141.978,58.374 142.676 M39.453 162.232 C 39.453 162.299,40.024 162.870,40.723 163.501 L 41.992 164.648 40.845 163.379 C 39.775 162.196,39.453 161.930,39.453 162.232 M150.781 181.250 C 151.011 181.680,151.396 182.031,151.637 182.031 C 151.877 182.031,151.756 181.680,151.367 181.250 C 150.978 180.820,150.593 180.469,150.512 180.469 C 150.430 180.469,150.551 180.820,150.781 181.250 M108.235 193.073 L 106.901 194.727 108.528 193.182 C 110.219 191.579,110.353 191.402,109.863 191.413 C 109.702 191.417,108.970 192.164,108.235 193.073 " stroke="none" fill="#d00404" fill-rule="evenodd"></path><path id="path3" d="M105.255 96.191 L 103.711 97.852 105.371 96.307 C 106.915 94.871,107.211 94.531,106.915 94.531 C 106.851 94.531,106.104 95.278,105.255 96.191 M99.780 101.660 L 98.633 102.930 99.902 101.782 C 101.086 100.713,101.351 100.391,101.050 100.391 C 100.982 100.391,100.411 100.962,99.780 101.660 M190.778 111.154 C 189.189 112.916,189.695 112.898,191.406 111.133 C 192.135 110.381,192.565 109.775,192.362 109.787 C 192.159 109.799,191.446 110.414,190.778 111.154 M63.849 137.207 L 62.305 138.867 63.965 137.323 C 65.509 135.887,65.805 135.547,65.509 135.547 C 65.445 135.547,64.698 136.294,63.849 137.207 M58.374 142.676 L 57.227 143.945 58.496 142.798 C 59.679 141.729,59.945 141.406,59.643 141.406 C 59.576 141.406,59.005 141.978,58.374 142.676 M39.453 162.232 C 39.453 162.299,40.024 162.870,40.723 163.501 L 41.992 164.648 40.845 163.379 C 39.775 162.196,39.453 161.930,39.453 162.232 M150.781 181.250 C 151.011 181.680,151.396 182.031,151.637 182.031 C 151.877 182.031,151.756 181.680,151.367 181.250 C 150.978 180.820,150.593 180.469,150.512 180.469 C 150.430 180.469,150.551 180.820,150.781 181.250 M108.235 193.073 L 106.901 194.727 108.528 193.182 C 110.219 191.579,110.353 191.402,109.863 191.413 C 109.702 191.417,108.970 192.164,108.235 193.073 " stroke="none" fill="#d00404" fill-rule="evenodd"></path><path id="path4" d="M105.255 96.191 L 103.711 97.852 105.371 96.307 C 106.915 94.871,107.211 94.531,106.915 94.531 C 106.851 94.531,106.104 95.278,105.255 96.191 M99.780 101.660 L 98.633 102.930 99.902 101.782 C 101.086 100.713,101.351 100.391,101.050 100.391 C 100.982 100.391,100.411 100.962,99.780 101.660 M190.778 111.154 C 189.189 112.916,189.695 112.898,191.406 111.133 C 192.135 110.381,192.565 109.775,192.362 109.787 C 192.159 109.799,191.446 110.414,190.778 111.154 M63.849 137.207 L 62.305 138.867 63.965 137.323 C 65.509 135.887,65.805 135.547,65.509 135.547 C 65.445 135.547,64.698 136.294,63.849 137.207 M58.374 142.676 L 57.227 143.945 58.496 142.798 C 59.679 141.729,59.945 141.406,59.643 141.406 C 59.576 141.406,59.005 141.978,58.374 142.676 M39.453 162.232 C 39.453 162.299,40.024 162.870,40.723 163.501 L 41.992 164.648 40.845 163.379 C 39.775 162.196,39.453 161.930,39.453 162.232 M150.781 181.250 C 151.011 181.680,151.396 182.031,151.637 182.031 C 151.877 182.031,151.756 181.680,151.367 181.250 C 150.978 180.820,150.593 180.469,150.512 180.469 C 150.430 180.469,150.551 180.820,150.781 181.250 M108.235 193.073 L 106.901 194.727 108.528 193.182 C 110.219 191.579,110.353 191.402,109.863 191.413 C 109.702 191.417,108.970 192.164,108.235 193.073 " stroke="none" fill="#d00404" fill-rule="evenodd"></path></g></svg>