<svg width="256" height="256" viewBox="0 0 256 256" fill="none" xmlns="http://www.w3.org/2000/svg">
<circle cx="128" cy="128" r="128" fill="white"/>
<path d="M94.0276 212.567C91.9877 212.314 91.5419 211.925 91.5419 210.398C91.5419 208.78 91.892 208.537 94.2188 208.537C96.6833 208.537 96.8958 208.718 96.8958 210.828C96.8958 212.088 96.8098 213.064 96.7045 212.997C96.5994 212.93 95.3947 212.736 94.0276 212.567ZM107.603 210.674C107.603 208.74 107.859 208.537 110.28 208.537C112.593 208.537 112.957 208.785 112.957 210.362C112.957 211.88 112.506 212.241 110.28 212.5C107.784 212.791 107.603 212.668 107.603 210.674ZM131.313 210.674C131.313 208.74 131.568 208.537 133.99 208.537C136.303 208.537 136.667 208.785 136.667 210.362C136.667 211.88 136.215 212.241 133.99 212.5C131.494 212.791 131.313 212.668 131.313 210.674ZM157.126 212.563C154.677 212.307 154.258 211.99 154.258 210.4C154.258 208.735 154.584 208.537 157.317 208.537C160.206 208.537 160.376 208.664 160.376 210.828C160.376 212.088 160.29 213.061 160.185 212.991C160.08 212.92 158.703 212.727 157.126 212.563ZM162.671 210.657C162.671 208.692 162.896 208.537 165.73 208.537C168.448 208.537 168.789 208.741 168.789 210.366C168.789 211.942 168.367 212.235 165.73 212.486C162.825 212.763 162.671 212.671 162.671 210.657ZM85.2321 211.829C84.496 211.637 83.8937 210.817 83.8937 210.008C83.8937 208.836 84.4375 208.537 86.5706 208.537C88.916 208.537 89.2475 208.773 89.2475 210.446C89.2475 212.37 88.4106 212.658 85.2321 211.829ZM99.1902 210.446C99.1902 208.727 99.4961 208.537 102.249 208.537C105.003 208.537 105.309 208.728 105.309 210.446C105.309 212.164 105.003 212.355 102.249 212.355C99.4961 212.355 99.1902 212.164 99.1902 210.446ZM115.252 210.446C115.252 208.773 115.583 208.537 117.928 208.537C120.274 208.537 120.605 208.773 120.605 210.446C120.605 212.119 120.274 212.355 117.928 212.355C115.583 212.355 115.252 212.119 115.252 210.446ZM122.9 210.446C122.9 208.727 123.206 208.537 125.959 208.537C128.713 208.537 129.018 208.728 129.018 210.446C129.018 212.164 128.713 212.355 125.959 212.355C123.206 212.355 122.9 212.164 122.9 210.446ZM138.961 210.4C138.961 208.607 139.2 208.464 141.829 208.681C144.133 208.872 144.745 209.257 144.942 210.637C145.161 212.177 144.864 212.355 142.074 212.355C139.244 212.355 138.961 212.178 138.961 210.4ZM146.609 210.4C146.609 208.607 146.848 208.464 149.478 208.681C151.781 208.872 152.394 209.257 152.59 210.637C152.809 212.177 152.512 212.355 149.722 212.355C146.892 212.355 146.609 212.178 146.609 210.4ZM170.457 210.637C170.657 209.229 171.185 208.918 173.378 208.918C175.572 208.918 176.099 209.229 176.3 210.637C176.519 212.181 176.224 212.355 173.378 212.355C170.533 212.355 170.237 212.182 170.457 210.637ZM177.967 210.446C177.967 208.727 178.273 208.536 181.027 208.536C183.513 208.536 184.086 208.806 184.086 209.975C184.086 211.376 182.177 212.322 179.306 212.345C178.385 212.35 177.967 211.759 177.967 210.446ZM80.0695 209.3C79.0891 208.668 79.1169 208.558 80.2608 208.548C80.9969 208.543 81.5992 208.88 81.5992 209.3C81.5992 210.232 81.5131 210.232 80.0695 209.3ZM186.38 209.3C186.38 208.88 186.917 208.536 187.573 208.536C188.229 208.536 188.552 208.88 188.292 209.3C188.032 209.72 187.496 210.064 187.1 210.064C186.704 210.064 186.38 209.72 186.38 209.3ZM76.2455 204.718C76.2455 202.608 76.458 202.426 78.9223 202.426C81.3868 202.426 81.5992 202.608 81.5992 204.718C81.5992 206.827 81.3866 207.009 78.9223 207.009C76.4579 207.009 76.2455 206.827 76.2455 204.718ZM83.8937 204.718C83.8937 202.608 84.1062 202.426 86.5706 202.426C89.035 202.426 89.2475 202.608 89.2475 204.718C89.2475 206.827 89.0349 207.009 86.5706 207.009C84.1061 207.009 83.8937 206.827 83.8937 204.718ZM91.5419 204.718C91.5419 202.608 91.7545 202.426 94.2188 202.426C96.6833 202.426 96.8958 202.608 96.8958 204.718C96.8958 206.827 96.6832 207.009 94.2188 207.009C91.7544 207.009 91.5419 206.827 91.5419 204.718ZM99.1902 204.718C99.1902 202.554 99.3602 202.426 102.249 202.426C105.139 202.426 105.309 202.554 105.309 204.718C105.309 206.882 105.139 207.009 102.249 207.009C99.3601 207.009 99.1902 206.882 99.1902 204.718ZM107.603 204.718C107.603 202.608 107.816 202.426 110.28 202.426C112.745 202.426 112.957 202.608 112.957 204.718C112.957 206.827 112.745 207.009 110.28 207.009C107.816 207.009 107.603 206.827 107.603 204.718ZM115.252 204.718C115.252 202.608 115.464 202.426 117.928 202.426C120.393 202.426 120.605 202.608 120.605 204.718C120.605 206.827 120.393 207.009 117.928 207.009C115.464 207.009 115.252 206.827 115.252 204.718ZM122.9 204.718C122.9 202.554 123.07 202.426 125.959 202.426C128.848 202.426 129.018 202.554 129.018 204.718C129.018 206.882 128.848 207.009 125.959 207.009C123.07 207.009 122.9 206.882 122.9 204.718ZM131.313 204.718C131.313 202.608 131.526 202.426 133.99 202.426C136.454 202.426 136.667 202.608 136.667 204.718C136.667 206.827 136.454 207.009 133.99 207.009C131.525 207.009 131.313 206.827 131.313 204.718ZM138.961 204.718C138.961 202.554 139.131 202.426 142.02 202.426C144.91 202.426 145.08 202.554 145.08 204.718C145.08 206.882 144.91 207.009 142.02 207.009C139.131 207.009 138.961 206.882 138.961 204.718ZM146.609 204.718C146.609 202.554 146.779 202.426 149.669 202.426C152.558 202.426 152.728 202.554 152.728 204.718C152.728 206.882 152.558 207.009 149.669 207.009C146.779 207.009 146.609 206.882 146.609 204.718ZM154.258 204.718C154.258 202.554 154.428 202.426 157.317 202.426C160.206 202.426 160.376 202.554 160.376 204.718C160.376 206.882 160.206 207.009 157.317 207.009C154.428 207.009 154.258 206.882 154.258 204.718ZM162.671 204.718C162.671 202.554 162.841 202.426 165.73 202.426C168.619 202.426 168.789 202.554 168.789 204.718C168.789 206.882 168.619 207.009 165.73 207.009C162.841 207.009 162.671 206.882 162.671 204.718ZM170.319 204.718C170.319 202.554 170.489 202.426 173.378 202.426C176.268 202.426 176.438 202.554 176.438 204.718C176.438 206.882 176.268 207.009 173.378 207.009C170.489 207.009 170.319 206.882 170.319 204.718ZM177.967 204.718C177.967 202.554 178.137 202.426 181.027 202.426C183.916 202.426 184.086 202.554 184.086 204.718C184.086 206.882 183.916 207.009 181.027 207.009C178.137 207.009 177.967 206.882 177.967 204.718ZM186.38 204.718C186.38 202.608 186.593 202.426 189.057 202.426C191.522 202.426 191.734 202.608 191.734 204.718C191.734 206.827 191.522 207.009 189.057 207.009C186.593 207.009 186.38 206.827 186.38 204.718ZM72.8038 203.19C72.5438 202.77 72.6957 202.426 73.141 202.426C73.5865 202.426 73.951 202.77 73.951 203.19C73.951 203.61 73.7994 203.954 73.6137 203.954C73.428 203.954 73.0637 203.61 72.8038 203.19ZM194.029 203.19C194.029 202.77 194.393 202.426 194.839 202.426C195.284 202.426 195.436 202.77 195.176 203.19C194.916 203.61 194.551 203.954 194.366 203.954C194.18 203.954 194.029 203.61 194.029 203.19ZM76.2455 198.454C76.2455 195.647 76.3327 195.553 78.9223 195.553C81.4553 195.553 81.5992 195.692 81.5992 198.142C81.5992 200.533 81.3938 200.756 78.9223 201.044C76.2779 201.352 76.2455 201.321 76.2455 198.454ZM107.603 198.406C107.603 195.538 107.672 195.462 110.089 195.695C112.253 195.903 112.605 196.244 112.808 198.328C113.025 200.557 112.853 200.744 110.322 201.039C107.621 201.354 107.603 201.336 107.603 198.406ZM131.313 198.454C131.313 195.647 131.4 195.553 133.99 195.553C136.523 195.553 136.667 195.692 136.667 198.142C136.667 200.533 136.461 200.756 133.99 201.044C131.345 201.352 131.313 201.321 131.313 198.454ZM157.081 201.104C154.319 200.817 154.18 200.675 154.404 198.368C154.619 196.158 154.903 195.913 157.508 195.698L160.376 195.461V198.562C160.376 200.267 160.29 201.605 160.185 201.534C160.08 201.464 158.683 201.27 157.081 201.104ZM162.671 198.391C162.671 195.472 162.682 195.461 165.539 195.698C168.134 195.912 168.429 196.163 168.64 198.333C168.863 200.625 168.737 200.744 165.772 201.026L162.671 201.321V198.391ZM186.38 198.416C186.38 195.652 186.474 195.552 189.057 195.552C191.641 195.552 191.734 195.652 191.734 198.416C191.734 201.18 191.641 201.28 189.057 201.28C186.474 201.28 186.38 201.18 186.38 198.416ZM194.985 201.113C194.459 200.925 194.029 199.758 194.029 198.519C194.029 196.183 195.454 195.055 197.443 195.817C198.343 196.163 198.404 196.701 197.75 198.574C196.84 201.179 196.371 201.61 194.985 201.113ZM70.9185 199.422C69.5689 196.903 69.9383 195.42 71.8477 195.691C73.1667 195.878 73.6245 196.514 73.8082 198.417C74.0843 201.276 72.2535 201.913 70.9185 199.422ZM84.0364 198.417C84.2485 196.221 84.541 195.935 86.5706 195.935C88.6002 195.935 88.8927 196.221 89.1047 198.417C89.3353 200.805 89.2395 200.899 86.5706 200.899C83.9019 200.899 83.8059 200.805 84.0364 198.417ZM91.6847 198.417C91.8953 196.234 92.2244 195.906 94.4101 195.695C96.7942 195.466 96.8958 195.567 96.8958 198.178C96.8958 200.788 96.7843 200.899 94.1704 200.899C91.5564 200.899 91.4548 200.798 91.6847 198.417ZM99.333 198.417C99.5516 196.151 99.8223 195.914 102.441 195.698C105.262 195.465 105.309 195.505 105.309 198.18C105.309 200.85 105.253 200.899 102.201 200.899C99.1556 200.899 99.0981 200.849 99.333 198.417ZM115.394 198.417C115.605 196.234 115.934 195.906 118.12 195.695C120.504 195.466 120.605 195.567 120.605 198.178C120.605 200.788 120.494 200.899 117.88 200.899C115.266 200.899 115.164 200.798 115.394 198.417ZM123.043 198.417C123.263 196.135 123.498 195.935 125.959 195.935C128.42 195.935 128.655 196.135 128.876 198.417C129.111 200.855 129.059 200.899 125.959 200.899C122.859 200.899 122.807 200.855 123.043 198.417ZM139.1 198.466C139.325 196.128 139.549 195.935 142.02 195.935C144.485 195.935 144.697 196.116 144.697 198.226C144.697 200.33 144.458 200.537 141.777 200.757C138.891 200.995 138.86 200.967 139.1 198.466ZM146.752 198.417C146.972 196.135 147.208 195.935 149.669 195.935C152.13 195.935 152.365 196.135 152.585 198.417C152.821 200.855 152.769 200.899 149.669 200.899C146.569 200.899 146.517 200.855 146.752 198.417ZM170.458 198.466C170.683 196.128 170.906 195.935 173.378 195.935C175.843 195.935 176.055 196.116 176.055 198.226C176.055 200.33 175.816 200.537 173.135 200.757C170.249 200.995 170.218 200.967 170.458 198.466ZM177.967 198.622C177.967 196.831 178.375 196.243 179.878 195.867C182.777 195.14 184.086 195.986 184.086 198.584C184.086 200.776 183.923 200.899 181.027 200.899C178.142 200.899 177.967 200.769 177.967 198.622ZM69.362 192.116C69.362 189.655 69.5441 189.443 71.6564 189.443C73.7688 189.443 73.951 189.655 73.951 192.116C73.951 194.577 73.7688 194.789 71.6564 194.789C69.5441 194.789 69.362 194.577 69.362 192.116ZM76.2455 192.116C76.2455 189.57 76.3729 189.443 78.9223 189.443C81.4717 189.443 81.5992 189.57 81.5992 192.116C81.5992 194.662 81.4717 194.789 78.9223 194.789C76.3729 194.789 76.2455 194.662 76.2455 192.116ZM83.8937 192.116C83.8937 189.57 84.0212 189.443 86.5706 189.443C89.12 189.443 89.2475 189.57 89.2475 192.116C89.2475 194.662 89.12 194.789 86.5706 194.789C84.0212 194.789 83.8937 194.662 83.8937 192.116ZM91.5419 192.116C91.5419 189.57 91.6695 189.443 94.2188 189.443C96.7683 189.443 96.8958 189.57 96.8958 192.116C96.8958 194.662 96.7682 194.789 94.2188 194.789C91.6695 194.789 91.5419 194.662 91.5419 192.116ZM99.1902 192.116C99.1902 189.506 99.2632 189.443 102.249 189.443C105.236 189.443 105.309 189.506 105.309 192.116C105.309 194.725 105.236 194.789 102.249 194.789C99.263 194.789 99.1902 194.725 99.1902 192.116ZM107.603 192.116C107.603 189.57 107.731 189.443 110.28 189.443C112.83 189.443 112.957 189.57 112.957 192.116C112.957 194.662 112.83 194.789 110.28 194.789C107.731 194.789 107.603 194.662 107.603 192.116ZM115.252 192.116C115.252 189.57 115.379 189.443 117.928 189.443C120.478 189.443 120.605 189.57 120.605 192.116C120.605 194.662 120.478 194.789 117.928 194.789C115.379 194.789 115.252 194.662 115.252 192.116ZM122.9 192.116C122.9 189.506 122.973 189.443 125.959 189.443C128.946 189.443 129.018 189.506 129.018 192.116C129.018 194.725 128.946 194.789 125.959 194.789C122.973 194.789 122.9 194.725 122.9 192.116ZM131.313 192.307C131.313 189.979 131.48 189.825 133.99 189.825C136.5 189.825 136.667 189.979 136.667 192.307C136.667 194.634 136.5 194.789 133.99 194.789C131.48 194.789 131.313 194.634 131.313 192.307ZM138.961 192.07C138.961 189.395 139.007 189.354 141.829 189.588C144.448 189.804 144.718 190.041 144.937 192.307C145.172 194.739 145.114 194.789 142.069 194.789C139.017 194.789 138.961 194.74 138.961 192.07ZM146.752 192.307C146.972 190.025 147.208 189.825 149.669 189.825C152.13 189.825 152.365 190.025 152.585 192.307C152.821 194.745 152.769 194.789 149.669 194.789C146.569 194.789 146.517 194.745 146.752 192.307ZM154.258 192.116C154.258 189.506 154.331 189.443 157.317 189.443C160.303 189.443 160.376 189.506 160.376 192.116C160.376 194.725 160.303 194.789 157.317 194.789C154.331 194.789 154.258 194.725 154.258 192.116ZM162.671 192.07C162.671 189.395 162.717 189.354 165.539 189.587C168.157 189.804 168.428 190.041 168.647 192.307C168.881 194.739 168.824 194.789 165.779 194.789C162.727 194.789 162.671 194.74 162.671 192.07ZM170.462 192.307C170.682 190.025 170.917 189.824 173.378 189.824C175.839 189.824 176.075 190.025 176.295 192.307C176.53 194.745 176.479 194.789 173.378 194.789C170.278 194.789 170.226 194.745 170.462 192.307ZM177.967 192.116C177.967 189.506 178.04 189.443 181.027 189.443C184.013 189.443 184.086 189.506 184.086 192.116C184.086 194.725 184.013 194.789 181.027 194.789C178.04 194.789 177.967 194.725 177.967 192.116ZM186.38 192.116C186.38 189.57 186.508 189.443 189.057 189.443C191.607 189.443 191.734 189.57 191.734 192.116C191.734 194.662 191.607 194.789 189.057 194.789C186.508 194.789 186.38 194.662 186.38 192.116ZM194.029 192.116C194.029 189.655 194.211 189.443 196.323 189.443C198.436 189.443 198.618 189.655 198.618 192.116C198.618 194.577 198.436 194.789 196.323 194.789C194.211 194.789 194.029 194.577 194.029 192.116ZM69.362 185.624C69.362 183.587 69.617 183.333 71.6564 183.333C73.696 183.333 73.951 183.587 73.951 185.624C73.951 187.66 73.6959 187.915 71.6564 187.915C69.6169 187.915 69.362 187.66 69.362 185.624ZM76.2455 185.624C76.2455 183.514 76.458 183.333 78.9223 183.333C81.3868 183.333 81.5992 183.514 81.5992 185.624C81.5992 187.733 81.3866 187.915 78.9223 187.915C76.4579 187.915 76.2455 187.733 76.2455 185.624ZM83.8937 185.624C83.8937 183.514 84.1062 183.333 86.5706 183.333C89.035 183.333 89.2475 183.514 89.2475 185.624C89.2475 187.733 89.0349 187.915 86.5706 187.915C84.1061 187.915 83.8937 187.733 83.8937 185.624ZM91.5419 185.624C91.5419 183.514 91.7545 183.333 94.2188 183.333C96.6833 183.333 96.8958 183.514 96.8958 185.624C96.8958 187.733 96.6832 187.915 94.2188 187.915C91.7544 187.915 91.5419 187.733 91.5419 185.624ZM99.1902 185.624C99.1902 183.46 99.3602 183.333 102.249 183.333C105.139 183.333 105.309 183.46 105.309 185.624C105.309 187.788 105.139 187.915 102.249 187.915C99.3601 187.915 99.1902 187.788 99.1902 185.624ZM107.603 185.624C107.603 183.485 107.795 183.333 110.471 183.333C113.148 183.333 113.34 183.485 113.34 185.624C113.34 187.762 113.148 187.915 110.471 187.915C107.794 187.915 107.603 187.762 107.603 185.624ZM115.252 185.624C115.252 183.514 115.464 183.333 117.928 183.333C120.393 183.333 120.605 183.514 120.605 185.624C120.605 187.733 120.393 187.915 117.928 187.915C115.464 187.915 115.252 187.733 115.252 185.624ZM122.9 185.624C122.9 183.714 123.206 183.333 124.737 183.333C126.091 183.333 126.785 183.936 127.374 185.624C128.162 187.881 128.135 187.915 125.537 187.915C123.117 187.915 122.9 187.727 122.9 185.624ZM140.725 185.624C141.339 184.001 142.1 183.333 143.335 183.333C144.764 183.333 145.08 183.748 145.08 185.624C145.08 187.722 144.86 187.915 142.469 187.915C139.886 187.915 139.868 187.89 140.725 185.624ZM146.609 185.624C146.609 183.46 146.779 183.333 149.669 183.333C152.558 183.333 152.728 183.46 152.728 185.624C152.728 187.788 152.558 187.915 149.669 187.915C146.779 187.915 146.609 187.788 146.609 185.624ZM154.258 185.624C154.258 183.46 154.428 183.333 157.317 183.333C160.206 183.333 160.376 183.46 160.376 185.624C160.376 187.788 160.206 187.915 157.317 187.915C154.428 187.915 154.258 187.788 154.258 185.624ZM162.671 185.624C162.671 183.46 162.841 183.333 165.73 183.333C168.619 183.333 168.789 183.46 168.789 185.624C168.789 187.788 168.619 187.915 165.73 187.915C162.841 187.915 162.671 187.788 162.671 185.624ZM170.319 185.624C170.319 183.46 170.489 183.333 173.378 183.333C176.268 183.333 176.438 183.46 176.438 185.624C176.438 187.788 176.268 187.915 173.378 187.915C170.489 187.915 170.319 187.788 170.319 185.624ZM177.967 185.624C177.967 183.46 178.137 183.333 181.027 183.333C183.916 183.333 184.086 183.46 184.086 185.624C184.086 187.788 183.916 187.915 181.027 187.915C178.137 187.915 177.967 187.788 177.967 185.624ZM186.38 185.624C186.38 183.514 186.593 183.333 189.057 183.333C191.522 183.333 191.734 183.514 191.734 185.624C191.734 187.733 191.522 187.915 189.057 187.915C186.593 187.915 186.38 187.733 186.38 185.624ZM194.029 185.624C194.029 183.548 194.262 183.333 196.514 183.333C198.766 183.333 199 183.548 199 185.624C199 187.7 198.766 187.915 196.514 187.915C194.262 187.915 194.029 187.7 194.029 185.624ZM69.362 179.132C69.362 176.671 69.5441 176.459 71.6564 176.459C73.7688 176.459 73.951 176.671 73.951 179.132C73.951 181.593 73.7688 181.805 71.6564 181.805C69.5441 181.805 69.362 181.593 69.362 179.132ZM76.2455 179.132C76.2455 176.586 76.3729 176.459 78.9223 176.459C81.4717 176.459 81.5992 176.586 81.5992 179.132C81.5992 181.678 81.4717 181.805 78.9223 181.805C76.3729 181.805 76.2455 181.678 76.2455 179.132ZM83.8937 179.132C83.8937 176.586 84.0212 176.459 86.5706 176.459C89.12 176.459 89.2475 176.586 89.2475 179.132C89.2475 181.678 89.12 181.805 86.5706 181.805C84.0212 181.805 83.8937 181.678 83.8937 179.132ZM91.5419 179.132C91.5419 176.586 91.6695 176.459 94.2188 176.459C96.7683 176.459 96.8958 176.586 96.8958 179.132C96.8958 181.678 96.7682 181.805 94.2188 181.805C91.6695 181.805 91.5419 181.678 91.5419 179.132ZM99.1902 179.132C99.1902 176.522 99.2632 176.459 102.249 176.459C105.236 176.459 105.309 176.523 105.309 179.132C105.309 181.741 105.236 181.805 102.249 181.805C99.263 181.805 99.1902 181.741 99.1902 179.132ZM107.603 179.132C107.603 176.586 107.731 176.459 110.28 176.459C112.83 176.459 112.957 176.586 112.957 179.132C112.957 181.678 112.83 181.805 110.28 181.805C107.731 181.805 107.603 181.678 107.603 179.132ZM115.252 179.132C115.252 176.586 115.379 176.459 117.928 176.459C120.478 176.459 120.605 176.586 120.605 179.132C120.605 181.678 120.478 181.805 117.928 181.805C115.379 181.805 115.252 181.678 115.252 179.132ZM122.9 179.132C122.9 176.79 123.136 176.459 124.812 176.459C126.487 176.459 126.724 176.79 126.724 179.132C126.724 181.474 126.487 181.805 124.812 181.805C123.137 181.805 122.9 181.474 122.9 179.132ZM141.256 179.132C141.256 176.686 141.462 176.382 142.977 176.597C144.324 176.788 144.697 177.337 144.697 179.132C144.697 180.927 144.324 181.476 142.977 181.667C141.462 181.882 141.256 181.577 141.256 179.132ZM146.609 179.178C146.609 176.508 146.665 176.459 149.717 176.459C152.763 176.459 152.82 176.508 152.585 178.941C152.366 181.207 152.096 181.444 149.478 181.66C146.656 181.893 146.609 181.853 146.609 179.178ZM154.258 179.132C154.258 176.522 154.331 176.459 157.317 176.459C160.303 176.459 160.376 176.523 160.376 179.132C160.376 181.741 160.303 181.805 157.317 181.805C154.331 181.805 154.258 181.741 154.258 179.132ZM162.671 179.178C162.671 176.508 162.727 176.459 165.779 176.459C168.824 176.459 168.881 176.508 168.647 178.941C168.428 181.207 168.157 181.444 165.539 181.66C162.717 181.893 162.671 181.853 162.671 179.178ZM170.865 181.332C170.565 181.032 170.319 179.792 170.319 178.576C170.319 176.49 170.479 176.38 173.187 176.603C175.811 176.82 176.055 177.035 176.055 179.132C176.055 181.125 175.753 181.453 173.733 181.65C172.456 181.775 171.166 181.633 170.865 181.332ZM177.967 179.132C177.967 176.522 178.04 176.459 181.027 176.459C184.013 176.459 184.086 176.522 184.086 179.132C184.086 181.741 184.013 181.805 181.027 181.805C178.04 181.805 177.967 181.741 177.967 179.132ZM186.38 179.132C186.38 176.586 186.508 176.459 189.057 176.459C191.607 176.459 191.734 176.586 191.734 179.132C191.734 181.678 191.607 181.805 189.057 181.805C186.508 181.805 186.38 181.678 186.38 179.132ZM194.029 179.132C194.029 176.694 194.223 176.459 196.236 176.459C198.105 176.459 198.496 176.811 198.781 178.754C199.19 181.536 198.963 181.805 196.196 181.805C194.229 181.805 194.029 181.558 194.029 179.132ZM69.362 173.022C69.362 170.561 69.5441 170.349 71.6564 170.349C73.7688 170.349 73.951 170.561 73.951 173.022C73.951 175.483 73.7688 175.695 71.6564 175.695C69.5441 175.695 69.362 175.483 69.362 173.022ZM76.2455 173.022C76.2455 170.476 76.3729 170.349 78.9223 170.349C81.4717 170.349 81.5992 170.476 81.5992 173.022C81.5992 175.568 81.4717 175.695 78.9223 175.695C76.3729 175.695 76.2455 175.568 76.2455 173.022ZM83.8937 173.022C83.8937 170.476 84.0212 170.349 86.5706 170.349C89.12 170.349 89.2475 170.476 89.2475 173.022C89.2475 175.568 89.12 175.695 86.5706 175.695C84.0212 175.695 83.8937 175.568 83.8937 173.022ZM91.5419 173.022C91.5419 170.476 91.6695 170.349 94.2188 170.349C96.7683 170.349 96.8958 170.476 96.8958 173.022C96.8958 175.568 96.7682 175.695 94.2188 175.695C91.6695 175.695 91.5419 175.568 91.5419 173.022ZM99.1902 173.022C99.1902 170.412 99.2632 170.349 102.249 170.349C105.236 170.349 105.309 170.412 105.309 173.022C105.309 175.631 105.236 175.695 102.249 175.695C99.263 175.695 99.1902 175.631 99.1902 173.022ZM107.603 173.022C107.603 170.476 107.731 170.349 110.28 170.349C112.83 170.349 112.957 170.476 112.957 173.022C112.957 175.568 112.83 175.695 110.28 175.695C107.731 175.695 107.603 175.568 107.603 173.022ZM115.252 173.022C115.252 170.476 115.379 170.349 117.928 170.349C120.478 170.349 120.605 170.476 120.605 173.022C120.605 175.568 120.478 175.695 117.928 175.695C115.379 175.695 115.252 175.568 115.252 173.022ZM122.9 173.022C122.9 170.68 123.136 170.349 124.812 170.349C126.487 170.349 126.724 170.68 126.724 173.022C126.724 175.364 126.487 175.695 124.812 175.695C123.137 175.695 122.9 175.364 122.9 173.022ZM141.256 173.022C141.256 170.576 141.462 170.272 142.977 170.486C144.324 170.678 144.697 171.227 144.697 173.022C144.697 174.816 144.324 175.366 142.977 175.557C141.462 175.772 141.256 175.467 141.256 173.022ZM146.609 173.022C146.609 170.293 146.648 170.26 149.478 170.493C152.102 170.71 152.346 170.925 152.346 173.022C152.346 175.118 152.102 175.333 149.478 175.55C146.648 175.784 146.609 175.75 146.609 173.022ZM154.258 173.022C154.258 170.412 154.331 170.349 157.317 170.349C160.303 170.349 160.376 170.412 160.376 173.022C160.376 175.631 160.303 175.695 157.317 175.695C154.331 175.695 154.258 175.631 154.258 173.022ZM162.671 173.022C162.671 170.412 162.744 170.349 165.73 170.349C168.717 170.349 168.789 170.412 168.789 173.022C168.789 175.631 168.717 175.695 165.73 175.695C162.744 175.695 162.671 175.631 162.671 173.022ZM170.632 174.643C169.659 172.113 170.633 170.73 173.389 170.73C175.842 170.73 176.055 170.914 176.055 173.022C176.055 175.049 175.769 175.341 173.564 175.553C171.885 175.714 170.929 175.418 170.632 174.643ZM177.967 173.022C177.967 170.412 178.04 170.349 181.027 170.349C184.013 170.349 184.086 170.412 184.086 173.022C184.086 175.631 184.013 175.695 181.027 175.695C178.04 175.695 177.967 175.631 177.967 173.022ZM186.38 173.022C186.38 170.476 186.508 170.349 189.057 170.349C191.607 170.349 191.734 170.476 191.734 173.022C191.734 175.568 191.607 175.695 189.057 175.695C186.508 175.695 186.38 175.568 186.38 173.022ZM194.029 173.022C194.029 170.596 194.229 170.349 196.196 170.349C198.963 170.349 199.19 170.617 198.781 173.399C198.496 175.343 198.105 175.695 196.236 175.695C194.223 175.695 194.029 175.459 194.029 173.022ZM69.362 166.53C69.362 164.493 69.617 164.239 71.6564 164.239C73.696 164.239 73.951 164.493 73.951 166.53C73.951 168.567 73.6959 168.821 71.6564 168.821C69.6169 168.821 69.362 168.567 69.362 166.53ZM76.2455 166.53C76.2455 164.42 76.458 164.239 78.9223 164.239C81.3868 164.239 81.5992 164.42 81.5992 166.53C81.5992 168.639 81.3866 168.821 78.9223 168.821C76.4579 168.821 76.2455 168.639 76.2455 166.53ZM83.8937 166.53C83.8937 164.42 84.1062 164.239 86.5706 164.239C89.035 164.239 89.2475 164.42 89.2475 166.53C89.2475 168.639 89.0349 168.821 86.5706 168.821C84.1061 168.821 83.8937 168.639 83.8937 166.53ZM91.5419 166.53C91.5419 164.42 91.7545 164.239 94.2188 164.239C96.6833 164.239 96.8958 164.42 96.8958 166.53C96.8958 168.639 96.6832 168.821 94.2188 168.821C91.7544 168.821 91.5419 168.639 91.5419 166.53ZM99.1902 166.53C99.1902 164.366 99.3602 164.239 102.249 164.239C105.139 164.239 105.309 164.366 105.309 166.53C105.309 168.694 105.139 168.821 102.249 168.821C99.3601 168.821 99.1902 168.694 99.1902 166.53ZM107.603 166.53C107.603 164.435 107.825 164.239 110.193 164.239C112.487 164.239 112.822 164.501 113.12 166.53C113.444 168.735 113.347 168.821 110.53 168.821C107.788 168.821 107.603 168.676 107.603 166.53ZM115.252 166.53C115.252 164.42 115.464 164.239 117.928 164.239C120.393 164.239 120.605 164.42 120.605 166.53C120.605 168.639 120.393 168.821 117.928 168.821C115.464 168.821 115.252 168.639 115.252 166.53ZM122.9 166.53C122.9 164.595 123.197 164.239 124.812 164.239C126.426 164.239 126.724 164.595 126.724 166.53C126.724 168.465 126.426 168.821 124.812 168.821C123.197 168.821 122.9 168.465 122.9 166.53ZM141.256 166.53C141.256 164.595 141.553 164.239 143.168 164.239C144.782 164.239 145.08 164.595 145.08 166.53C145.08 168.465 144.782 168.821 143.168 168.821C141.553 168.821 141.256 168.465 141.256 166.53ZM146.609 166.53C146.609 164.366 146.779 164.239 149.669 164.239C152.558 164.239 152.728 164.366 152.728 166.53C152.728 168.694 152.558 168.821 149.669 168.821C146.779 168.821 146.609 168.694 146.609 166.53ZM154.258 166.53C154.258 164.366 154.428 164.239 157.317 164.239C160.206 164.239 160.376 164.366 160.376 166.53C160.376 168.694 160.206 168.821 157.317 168.821C154.428 168.821 154.258 168.694 154.258 166.53ZM162.671 166.53C162.671 164.366 162.841 164.239 165.73 164.239C168.619 164.239 168.789 164.366 168.789 166.53C168.789 168.694 168.619 168.821 165.73 168.821C162.841 168.821 162.671 168.694 162.671 166.53ZM170.319 166.53C170.319 164.366 170.489 164.239 173.378 164.239C176.268 164.239 176.438 164.366 176.438 166.53C176.438 168.694 176.268 168.821 173.378 168.821C170.489 168.821 170.319 168.694 170.319 166.53ZM177.967 166.53C177.967 164.366 178.137 164.239 181.027 164.239C183.916 164.239 184.086 164.366 184.086 166.53C184.086 168.694 183.916 168.821 181.027 168.821C178.137 168.821 177.967 168.694 177.967 166.53ZM186.38 166.53C186.38 164.42 186.593 164.239 189.057 164.239C191.522 164.239 191.734 164.42 191.734 166.53C191.734 168.639 191.522 168.821 189.057 168.821C186.593 168.821 186.38 168.639 186.38 166.53ZM194.029 166.53C194.029 164.454 194.262 164.239 196.514 164.239C198.766 164.239 199 164.454 199 166.53C199 168.606 198.766 168.821 196.514 168.821C194.262 168.821 194.029 168.606 194.029 166.53ZM69.362 160.038C69.362 157.577 69.5441 157.365 71.6564 157.365C73.7688 157.365 73.951 157.577 73.951 160.038C73.951 162.499 73.7688 162.711 71.6564 162.711C69.5441 162.711 69.362 162.499 69.362 160.038ZM76.2455 160.038C76.2455 157.492 76.3729 157.365 78.9223 157.365C81.4717 157.365 81.5992 157.492 81.5992 160.038C81.5992 162.584 81.4717 162.711 78.9223 162.711C76.3729 162.711 76.2455 162.584 76.2455 160.038ZM83.8937 160.038C83.8937 157.492 84.0212 157.365 86.5706 157.365C89.12 157.365 89.2475 157.492 89.2475 160.038C89.2475 162.584 89.12 162.711 86.5706 162.711C84.0212 162.711 83.8937 162.584 83.8937 160.038ZM91.5419 160.038C91.5419 157.492 91.6695 157.365 94.2188 157.365C96.7683 157.365 96.8958 157.492 96.8958 160.038C96.8958 162.584 96.7682 162.711 94.2188 162.711C91.6695 162.711 91.5419 162.584 91.5419 160.038ZM99.1902 160.038C99.1902 157.429 99.2632 157.365 102.249 157.365C105.236 157.365 105.309 157.429 105.309 160.038C105.309 162.647 105.236 162.711 102.249 162.711C99.263 162.711 99.1902 162.647 99.1902 160.038ZM107.603 160.038C107.603 157.452 107.698 157.365 110.509 157.365C113.379 157.365 113.411 157.397 113.102 160.038C112.814 162.506 112.591 162.711 110.197 162.711C107.743 162.711 107.603 162.567 107.603 160.038ZM115.252 160.038C115.252 157.492 115.379 157.365 117.928 157.365C120.478 157.365 120.605 157.492 120.605 160.038C120.605 162.584 120.478 162.711 117.928 162.711C115.379 162.711 115.252 162.584 115.252 160.038ZM122.9 160.002V157.293L124.788 158.666C127.318 160.504 127.331 162.711 124.813 162.711C123.133 162.711 122.9 162.382 122.9 160.002ZM141.256 161.367C141.256 160.628 141.952 159.589 142.803 159.059C144.091 158.255 144.424 158.288 144.797 159.257C145.486 161.05 144.53 162.711 142.809 162.711C141.836 162.711 141.256 162.209 141.256 161.367ZM147.156 162.238C146.855 161.938 146.609 160.719 146.609 159.529C146.609 157.508 146.815 157.365 149.717 157.365C152.763 157.365 152.82 157.415 152.585 159.847C152.379 161.989 152.027 162.36 150.024 162.556C148.747 162.681 147.456 162.539 147.156 162.238ZM154.768 162.202C154.487 161.922 154.258 160.719 154.258 159.529C154.258 157.513 154.468 157.365 157.317 157.365C160.303 157.365 160.376 157.429 160.376 160.038C160.376 162.558 160.231 162.711 157.827 162.711C156.425 162.711 155.048 162.482 154.768 162.202ZM162.671 160.084C162.671 157.414 162.727 157.365 165.779 157.365C168.824 157.365 168.881 157.415 168.647 159.847C168.428 162.113 168.157 162.35 165.539 162.566C162.717 162.799 162.671 162.759 162.671 160.084ZM170.865 162.238C170.565 161.938 170.319 160.719 170.319 159.529C170.319 157.508 170.524 157.365 173.427 157.365C176.472 157.365 176.53 157.415 176.295 159.847C176.088 161.989 175.737 162.36 173.733 162.556C172.456 162.681 171.166 162.54 170.865 162.238ZM178.477 162.202C178.197 161.922 177.967 160.719 177.967 159.529C177.967 157.514 178.177 157.365 181.027 157.365C184.013 157.365 184.086 157.429 184.086 160.038C184.086 162.559 183.94 162.711 181.536 162.711C180.134 162.711 178.758 162.482 178.477 162.202ZM186.38 160.038C186.38 157.492 186.508 157.365 189.057 157.365C191.607 157.365 191.734 157.492 191.734 160.038C191.734 162.584 191.607 162.711 189.057 162.711C186.508 162.711 186.38 162.584 186.38 160.038ZM194.029 160.087C194.029 157.525 194.175 157.365 196.514 157.365C198.823 157.365 198.995 157.542 198.931 159.847C198.87 162.056 198.596 162.356 196.445 162.569C194.14 162.797 194.029 162.683 194.029 160.087ZM69.362 153.114C69.362 150.593 69.5188 150.408 71.4653 150.632C73.2179 150.833 73.6085 151.287 73.8082 153.356C74.0316 155.668 73.8875 155.838 71.7049 155.838C69.5289 155.838 69.362 155.644 69.362 153.114ZM76.2455 153.165C76.2455 150.619 76.3729 150.491 78.9223 150.491C81.4717 150.491 81.5992 150.619 81.5992 153.165C81.5992 155.71 81.4717 155.838 78.9223 155.838C76.3729 155.838 76.2455 155.71 76.2455 153.165ZM84.0364 153.356C84.2471 151.173 84.5762 150.844 86.7618 150.634C89.146 150.405 89.2475 150.506 89.2475 153.116C89.2475 155.727 89.1364 155.838 86.5221 155.838C83.9081 155.838 83.8065 155.736 84.0364 153.356ZM91.6847 153.356C91.8953 151.173 92.2244 150.844 94.4101 150.634C96.7942 150.405 96.8958 150.506 96.8958 153.116C96.8958 155.727 96.7843 155.838 94.1704 155.838C91.5564 155.838 91.4548 155.736 91.6847 153.356ZM99.333 153.356C99.5516 151.089 99.8223 150.853 102.441 150.636C105.262 150.403 105.309 150.443 105.309 153.119C105.309 155.789 105.253 155.838 102.201 155.838C99.1556 155.838 99.0981 155.788 99.333 153.356ZM107.603 153.116C107.603 150.506 107.705 150.405 110.089 150.634C112.275 150.845 112.604 151.173 112.814 153.356C113.044 155.737 112.943 155.838 110.329 155.838C107.715 155.838 107.603 155.727 107.603 153.116ZM115.394 153.362C115.676 150.455 118.011 149.532 119.599 151.7C121.509 154.309 120.874 155.838 117.88 155.838C115.267 155.838 115.165 155.736 115.394 153.362ZM148.023 153.134C149.647 149.557 152.231 149.682 152.585 153.356C152.819 155.777 152.751 155.838 149.81 155.838H146.796L148.023 153.134ZM154.4 153.356C154.619 151.09 154.89 150.853 157.508 150.637C160.33 150.404 160.376 150.444 160.376 153.119C160.376 155.789 160.32 155.838 157.269 155.838C154.223 155.838 154.166 155.788 154.4 153.356ZM162.671 153.119C162.671 150.444 162.717 150.403 165.539 150.637C168.157 150.853 168.428 151.09 168.647 153.356C168.881 155.788 168.824 155.838 165.779 155.838C162.727 155.838 162.671 155.789 162.671 153.119ZM170.462 153.356C170.665 151.254 171.041 150.835 172.913 150.622C175.328 150.346 176.408 151.421 176.426 154.12C176.437 155.622 176.046 155.838 173.33 155.838C170.284 155.838 170.227 155.788 170.462 153.356ZM178.11 153.356C178.33 151.074 178.566 150.874 181.027 150.874C183.488 150.874 183.723 151.074 183.943 153.356C184.178 155.794 184.127 155.838 181.027 155.838C177.926 155.838 177.875 155.794 178.11 153.356ZM186.38 153.165C186.38 150.619 186.508 150.492 189.057 150.492C191.607 150.492 191.734 150.619 191.734 153.165C191.734 155.711 191.607 155.838 189.057 155.838C186.508 155.838 186.38 155.711 186.38 153.165ZM194.171 153.356C194.368 151.317 194.771 150.832 196.426 150.641C198.221 150.433 198.475 150.703 198.758 153.123C199.066 155.758 199 155.838 196.504 155.838C194.063 155.838 193.944 155.712 194.171 153.356ZM83.8937 147.437C83.8937 145.328 84.1062 145.146 86.5706 145.146C89.035 145.146 89.2475 145.328 89.2475 147.437C89.2475 149.546 89.0349 149.728 86.5706 149.728C84.1061 149.728 83.8937 149.546 83.8937 147.437ZM91.6847 147.315C91.8981 145.168 92.1983 144.894 94.4101 144.833C96.7188 144.769 96.8959 144.941 96.8958 147.246C96.8957 149.582 96.7354 149.728 94.1704 149.728C91.5709 149.728 91.4561 149.617 91.6847 147.315ZM99.333 147.321C99.5533 145.108 99.8033 144.908 102.441 144.839C105.183 144.766 105.31 144.872 105.309 147.245C105.309 149.638 105.197 149.727 102.201 149.727C99.1742 149.727 99.0995 149.664 99.333 147.321ZM107.603 147.207C107.603 144.777 107.699 144.699 110.28 145C112.65 145.276 112.957 145.565 112.957 147.52C112.957 149.533 112.722 149.727 110.28 149.727C107.762 149.727 107.603 149.578 107.603 147.207ZM115.394 147.262C115.587 145.284 115.974 144.798 117.355 144.801C118.301 144.803 119.076 145.054 119.076 145.357C119.076 145.66 119.076 146.768 119.076 147.818C119.076 149.358 118.696 149.727 117.115 149.727C115.366 149.727 115.181 149.461 115.394 147.262ZM148.904 147.182C148.904 145.015 149.16 144.655 150.625 144.759C151.965 144.854 152.399 145.417 152.585 147.304C152.798 149.458 152.608 149.727 150.864 149.727C149.152 149.727 148.904 149.405 148.904 147.182ZM154.4 147.321C154.621 145.108 154.871 144.909 157.509 144.839C160.251 144.766 160.377 144.872 160.377 147.245C160.376 149.638 160.265 149.727 157.269 149.727C154.242 149.727 154.167 149.664 154.4 147.321ZM162.671 147.225C162.671 144.766 162.724 144.727 165.73 145.014C168.528 145.28 168.789 145.494 168.789 147.516C168.789 149.586 168.595 149.727 165.73 149.727C162.783 149.727 162.671 149.635 162.671 147.225ZM170.462 147.293C170.681 145.065 170.929 144.858 173.378 144.858C175.828 144.858 176.076 145.065 176.295 147.293C176.529 149.675 176.467 149.727 173.378 149.727C170.29 149.727 170.227 149.675 170.462 147.293ZM177.967 147.436C177.967 145.272 178.137 145.144 181.027 145.144C183.916 145.144 184.086 145.272 184.086 147.436C184.086 149.6 183.916 149.727 181.027 149.727C178.137 149.727 177.967 149.6 177.967 147.436ZM186.38 147.245C186.38 144.917 186.547 144.763 189.057 144.763C191.568 144.763 191.734 144.917 191.734 147.245C191.734 149.572 191.567 149.727 189.057 149.727C186.547 149.727 186.38 149.572 186.38 147.245ZM194.029 147.436C194.029 145.36 194.262 145.144 196.514 145.144C198.766 145.144 199 145.36 199 147.436C199 149.512 198.766 149.727 196.514 149.727C194.262 149.727 194.029 149.512 194.029 147.436ZM74.7158 145.526C74.7158 142.981 74.8433 142.853 77.3927 142.853C79.9421 142.853 80.0695 142.981 80.0695 145.526C80.0695 148.072 79.942 148.199 77.3927 148.199C74.8432 148.199 74.7158 148.072 74.7158 145.526ZM66.8126 145.399C66.5322 145.119 66.3027 143.916 66.3027 142.726C66.3027 140.71 66.5125 140.562 69.362 140.562C72.3485 140.562 72.4213 140.626 72.4213 143.235C72.4213 145.755 72.2756 145.908 69.8719 145.908C68.4697 145.908 67.093 145.679 66.8126 145.399ZM83.8937 140.944C83.8937 138.398 84.0212 138.271 86.5706 138.271C89.12 138.271 89.2475 138.398 89.2475 140.944C89.2475 143.49 89.12 143.617 86.5706 143.617C84.0212 143.617 83.8937 143.49 83.8937 140.944ZM91.5419 140.944C91.5419 138.398 91.6695 138.271 94.2188 138.271C96.7683 138.271 96.8958 138.398 96.8958 140.944C96.8958 143.49 96.7682 143.617 94.2188 143.617C91.6695 143.617 91.5419 143.49 91.5419 140.944ZM99.1902 140.944C99.1902 138.334 99.2632 138.271 102.249 138.271C105.236 138.271 105.309 138.335 105.309 140.944C105.309 143.553 105.236 143.617 102.249 143.617C99.263 143.617 99.1902 143.553 99.1902 140.944ZM107.603 140.944C107.603 138.398 107.731 138.271 110.28 138.271C112.83 138.271 112.957 138.398 112.957 140.944C112.957 143.49 112.83 143.617 110.28 143.617C107.731 143.617 107.603 143.49 107.603 140.944ZM115.252 140.992C115.252 138.382 115.363 138.271 117.977 138.271C120.591 138.271 120.692 138.372 120.463 140.753C120.252 142.936 119.923 143.264 117.737 143.475C115.353 143.704 115.252 143.603 115.252 140.992ZM147.565 142.128C145.794 139.265 146.349 138.271 149.717 138.271C152.763 138.271 152.82 138.321 152.585 140.753C152.392 142.755 151.976 143.278 150.434 143.454C149.176 143.598 148.194 143.144 147.565 142.128ZM154.258 140.944C154.258 138.334 154.331 138.271 157.317 138.271C160.303 138.271 160.376 138.335 160.376 140.944C160.376 143.553 160.303 143.617 157.317 143.617C154.331 143.617 154.258 143.553 154.258 140.944ZM162.671 140.944C162.671 138.334 162.744 138.271 165.73 138.271C168.717 138.271 168.789 138.335 168.789 140.944C168.789 143.553 168.717 143.617 165.73 143.617C162.744 143.617 162.671 143.553 162.671 140.944ZM170.865 143.144C170.565 142.844 170.319 141.625 170.319 140.435C170.319 138.414 170.524 138.271 173.427 138.271C176.472 138.271 176.53 138.321 176.295 140.753C176.088 142.895 175.737 143.266 173.733 143.462C172.456 143.587 171.166 143.446 170.865 143.144ZM177.967 140.944C177.967 138.334 178.04 138.271 181.027 138.271C184.013 138.271 184.086 138.335 184.086 140.944C184.086 143.553 184.013 143.617 181.027 143.617C178.04 143.617 177.967 143.553 177.967 140.944ZM186.38 140.944C186.38 138.398 186.508 138.271 189.057 138.271C191.607 138.271 191.734 138.398 191.734 140.944C191.734 143.49 191.607 143.617 189.057 143.617C186.508 143.617 186.38 143.49 186.38 140.944ZM194.029 140.993C194.029 138.431 194.175 138.271 196.514 138.271C198.823 138.271 198.995 138.447 198.931 140.753C198.87 142.962 198.596 143.262 196.445 143.475C194.14 143.703 194.029 143.588 194.029 140.993ZM74.7158 137.889C74.7158 135.343 74.8433 135.216 77.3927 135.216C79.9421 135.216 80.0695 135.343 80.0695 137.889C80.0695 140.435 79.942 140.562 77.3927 140.562C74.8432 140.562 74.7158 140.435 74.7158 137.889ZM66.4455 135.025C66.6642 132.759 66.9347 132.522 69.5532 132.306C72.3748 132.073 72.4213 132.113 72.4213 134.788C72.4213 137.458 72.3653 137.507 69.3135 137.507C66.268 137.507 66.2106 137.457 66.4455 135.025ZM83.8937 134.07C83.8937 131.524 84.0212 131.397 86.5706 131.397C89.12 131.397 89.2475 131.524 89.2475 134.07C89.2475 136.616 89.12 136.743 86.5706 136.743C84.0212 136.743 83.8937 136.616 83.8937 134.07ZM91.5419 134.07C91.5419 131.524 91.6695 131.397 94.2188 131.397C96.7683 131.397 96.8958 131.524 96.8958 134.07C96.8958 136.616 96.7682 136.743 94.2188 136.743C91.6695 136.743 91.5419 136.616 91.5419 134.07ZM99.333 134.261C99.5516 131.995 99.8223 131.758 102.441 131.542C105.262 131.309 105.309 131.349 105.309 134.024C105.309 136.695 105.253 136.743 102.201 136.743C99.1556 136.743 99.0981 136.694 99.333 134.261ZM107.603 134.07C107.603 131.524 107.731 131.397 110.28 131.397C112.83 131.397 112.957 131.524 112.957 134.07C112.957 136.616 112.83 136.743 110.28 136.743C107.731 136.743 107.603 136.616 107.603 134.07ZM115.394 134.261C115.605 132.079 115.934 131.75 118.12 131.54C120.504 131.31 120.605 131.412 120.605 134.022C120.605 136.632 120.494 136.743 117.88 136.743C115.266 136.743 115.164 136.642 115.394 134.261ZM122.9 134.07C122.9 131.461 122.973 131.397 125.959 131.397C128.701 131.397 129.018 131.593 129.018 133.28C129.018 135.29 127.114 136.743 124.48 136.743C123.184 136.743 122.9 136.263 122.9 134.07ZM140.3 135.919C139.563 135.49 138.961 134.277 138.961 133.222C138.961 131.474 139.214 131.326 141.829 131.542C144.448 131.758 144.718 131.995 144.937 134.261C145.145 136.421 144.946 136.74 143.407 136.72C142.434 136.707 141.036 136.347 140.3 135.919ZM146.752 134.261C146.972 131.979 147.208 131.779 149.669 131.779C152.13 131.779 152.365 131.979 152.585 134.261C152.821 136.699 152.769 136.743 149.669 136.743C146.569 136.743 146.517 136.699 146.752 134.261ZM154.4 134.261C154.619 131.995 154.89 131.758 157.508 131.542C160.33 131.309 160.376 131.349 160.376 134.024C160.376 136.695 160.32 136.743 157.269 136.743C154.223 136.743 154.166 136.694 154.4 134.261ZM162.671 134.024C162.671 131.349 162.717 131.309 165.539 131.542C168.157 131.759 168.428 131.995 168.647 134.261C168.881 136.694 168.824 136.744 165.779 136.744C162.727 136.744 162.671 136.694 162.671 134.024ZM170.462 134.261C170.682 131.979 170.917 131.779 173.378 131.779C175.839 131.779 176.075 131.979 176.295 134.261C176.53 136.699 176.479 136.743 173.378 136.743C170.278 136.743 170.226 136.699 170.462 134.261ZM178.11 134.261C178.329 131.995 178.599 131.758 181.218 131.542C184.039 131.309 184.086 131.349 184.086 134.024C184.086 136.695 184.03 136.743 180.978 136.743C177.933 136.743 177.875 136.694 178.11 134.261ZM186.38 134.07C186.38 131.524 186.508 131.397 189.057 131.397C191.607 131.397 191.734 131.524 191.734 134.07C191.734 136.616 191.607 136.743 189.057 136.743C186.508 136.743 186.38 136.616 186.38 134.07ZM194.029 134.022C194.029 131.426 194.14 131.311 196.445 131.54C198.596 131.753 198.87 132.052 198.931 134.261C198.995 136.567 198.823 136.743 196.514 136.743C194.175 136.743 194.029 136.583 194.029 134.022ZM131.313 132.925C131.313 131.688 131.823 131.397 133.99 131.397C136.157 131.397 136.667 131.688 136.667 132.925C136.667 134.161 136.157 134.452 133.99 134.452C131.823 134.452 131.313 134.161 131.313 132.925ZM83.8937 127.96C83.8937 125.414 84.0212 125.287 86.5706 125.287C89.12 125.287 89.2475 125.414 89.2475 127.96C89.2475 130.506 89.12 130.633 86.5706 130.633C84.0212 130.633 83.8937 130.506 83.8937 127.96ZM99.1902 127.96C99.1902 125.351 99.2632 125.287 102.249 125.287C105.236 125.287 105.309 125.351 105.309 127.96C105.309 130.57 105.236 130.633 102.249 130.633C99.263 130.633 99.1902 130.569 99.1902 127.96ZM107.603 127.96C107.603 125.414 107.731 125.287 110.28 125.287C112.83 125.287 112.957 125.414 112.957 127.96C112.957 130.506 112.83 130.633 110.28 130.633C107.731 130.633 107.603 130.506 107.603 127.96ZM115.252 127.96C115.252 125.414 115.379 125.287 117.928 125.287C120.478 125.287 120.605 125.414 120.605 127.96C120.605 130.506 120.478 130.633 117.928 130.633C115.379 130.633 115.252 130.506 115.252 127.96ZM122.9 127.96C122.9 125.351 122.973 125.287 125.959 125.287C128.946 125.287 129.018 125.351 129.018 127.96C129.018 130.57 128.946 130.633 125.959 130.633C122.973 130.633 122.9 130.569 122.9 127.96ZM131.313 127.96C131.313 125.414 131.44 125.287 133.99 125.287C136.539 125.287 136.667 125.414 136.667 127.96C136.667 130.506 136.539 130.633 133.99 130.633C131.44 130.633 131.313 130.506 131.313 127.96ZM138.961 127.96C138.961 125.232 138.999 125.198 141.829 125.432C144.453 125.649 144.697 125.864 144.697 127.96C144.697 130.056 144.453 130.272 141.829 130.488C138.999 130.722 138.961 130.689 138.961 127.96ZM147.156 130.16C146.855 129.86 146.609 128.62 146.609 127.405C146.609 125.318 146.769 125.208 149.478 125.432C152.102 125.649 152.346 125.864 152.346 127.96C152.346 129.953 152.043 130.281 150.024 130.479C148.747 130.604 147.456 130.462 147.156 130.16ZM154.768 130.124C154.487 129.844 154.258 128.641 154.258 127.451C154.258 125.436 154.468 125.287 157.317 125.287C160.303 125.287 160.376 125.351 160.376 127.96C160.376 130.481 160.231 130.633 157.827 130.633C156.425 130.633 155.048 130.404 154.768 130.124ZM162.671 128.006C162.671 125.336 162.727 125.287 165.779 125.287C168.824 125.287 168.881 125.337 168.647 127.769C168.428 130.036 168.157 130.272 165.539 130.489C162.717 130.722 162.671 130.681 162.671 128.006ZM170.632 129.581C169.659 127.052 170.633 125.669 173.389 125.669C175.842 125.669 176.055 125.853 176.055 127.96C176.055 129.988 175.769 130.279 173.564 130.491C171.885 130.653 170.929 130.357 170.632 129.581ZM178.477 130.124C178.197 129.844 177.967 128.641 177.967 127.451C177.967 125.436 178.177 125.287 181.027 125.287C184.013 125.287 184.086 125.351 184.086 127.96C184.086 130.481 183.94 130.633 181.536 130.633C180.134 130.633 178.758 130.404 178.477 130.124ZM186.38 127.96C186.38 125.414 186.508 125.287 189.057 125.287C191.607 125.287 191.734 125.414 191.734 127.96C191.734 130.506 191.607 130.633 189.057 130.633C186.508 130.633 186.38 130.506 186.38 127.96ZM194.029 127.96C194.029 125.303 194.128 125.2 196.48 125.43C198.641 125.641 198.932 125.941 198.932 127.96C198.932 129.98 198.641 130.28 196.48 130.491C194.128 130.721 194.029 130.618 194.029 127.96ZM61.495 129.397C61.1947 129.097 60.9489 127.857 60.9489 126.641C60.9489 124.559 61.1124 124.445 63.7828 124.668C66.3689 124.884 66.6168 125.106 66.6169 127.197C66.617 129.181 66.3109 129.518 64.3291 129.715C63.0707 129.84 61.7954 129.698 61.495 129.397ZM74.7158 127.197C74.7158 124.651 74.8433 124.523 77.3927 124.523C79.9421 124.523 80.0695 124.651 80.0695 127.197C80.0695 129.742 79.942 129.87 77.3927 129.87C74.8432 129.87 74.7158 129.742 74.7158 127.197ZM83.8937 121.85C83.8937 119.304 84.0212 119.177 86.5706 119.177C89.12 119.177 89.2475 119.304 89.2475 121.85C89.2475 124.396 89.12 124.523 86.5706 124.523C84.0212 124.523 83.8937 124.396 83.8937 121.85ZM91.5419 121.85C91.5419 119.304 91.6695 119.177 94.2188 119.177C96.7683 119.177 96.8958 119.304 96.8958 121.85C96.8958 124.396 96.7682 124.523 94.2188 124.523C91.6695 124.523 91.5419 124.396 91.5419 121.85ZM99.1902 121.85C99.1902 119.241 99.2632 119.177 102.249 119.177C105.236 119.177 105.309 119.241 105.309 121.85C105.309 124.46 105.236 124.523 102.249 124.523C99.263 124.523 99.1902 124.46 99.1902 121.85ZM107.603 121.85C107.603 119.304 107.731 119.177 110.28 119.177C112.83 119.177 112.957 119.304 112.957 121.85C112.957 124.396 112.83 124.523 110.28 124.523C107.731 124.523 107.603 124.396 107.603 121.85ZM115.252 121.85C115.252 119.304 115.379 119.177 117.928 119.177C120.478 119.177 120.605 119.304 120.605 121.85C120.605 124.396 120.478 124.523 117.928 124.523C115.379 124.523 115.252 124.396 115.252 121.85ZM122.9 121.85C122.9 119.241 122.973 119.177 125.959 119.177C128.946 119.177 129.018 119.241 129.018 121.85C129.018 124.46 128.946 124.523 125.959 124.523C122.973 124.523 122.9 124.46 122.9 121.85ZM131.313 121.85C131.313 119.304 131.44 119.177 133.99 119.177C136.539 119.177 136.667 119.304 136.667 121.85C136.667 124.396 136.539 124.523 133.99 124.523C131.44 124.523 131.313 124.396 131.313 121.85ZM138.961 121.896C138.961 119.226 139.017 119.177 142.069 119.177C145.114 119.177 145.172 119.227 144.937 121.659C144.718 123.925 144.448 124.162 141.829 124.379C139.008 124.612 138.961 124.572 138.961 121.896ZM147.156 124.05C146.855 123.75 146.609 122.531 146.609 121.341C146.609 119.32 146.815 119.177 149.717 119.177C152.763 119.177 152.82 119.227 152.585 121.659C152.379 123.801 152.027 124.173 150.024 124.369C148.747 124.494 147.456 124.352 147.156 124.05ZM154.768 124.014C154.487 123.734 154.258 122.531 154.258 121.341C154.258 119.326 154.468 119.177 157.317 119.177C160.303 119.177 160.376 119.241 160.376 121.85C160.376 124.371 160.231 124.524 157.827 124.524C156.425 124.524 155.048 124.294 154.768 124.014ZM162.671 121.897C162.671 119.226 162.727 119.177 165.779 119.177C168.824 119.177 168.881 119.227 168.647 121.66C168.428 123.926 168.157 124.162 165.539 124.379C162.717 124.612 162.671 124.572 162.671 121.897ZM170.865 124.051C170.565 123.751 170.319 122.531 170.319 121.341C170.319 119.32 170.524 119.177 173.427 119.177C176.472 119.177 176.53 119.227 176.295 121.66C176.088 123.801 175.737 124.173 173.733 124.369C172.456 124.494 171.166 124.352 170.865 124.051ZM177.967 121.85C177.967 119.241 178.04 119.177 181.027 119.177C184.013 119.177 184.086 119.241 184.086 121.85C184.086 124.46 184.013 124.524 181.027 124.524C178.04 124.524 177.967 124.46 177.967 121.85ZM186.38 121.85C186.38 119.305 186.508 119.177 189.057 119.177C191.607 119.177 191.734 119.305 191.734 121.85C191.734 124.396 191.607 124.524 189.057 124.524C186.508 124.524 186.38 124.396 186.38 121.85ZM194.029 121.85C194.029 119.543 194.278 119.177 195.852 119.177C197.095 119.177 197.821 119.723 198.136 120.896C198.961 123.97 198.684 124.524 196.323 124.524C194.211 124.524 194.029 124.312 194.029 121.85ZM69.1433 122.523C68.8429 122.223 68.5972 121.004 68.5972 119.814C68.5972 117.793 68.8026 117.65 71.7049 117.65C74.7504 117.65 74.8079 117.7 74.573 120.132C74.3663 122.274 74.0151 122.645 72.0114 122.841C70.7343 122.966 69.4437 122.825 69.1433 122.523ZM60.1841 117.268C60.1841 114.658 60.2571 114.595 63.2434 114.595C66.2299 114.595 66.3027 114.659 66.3027 117.268C66.3027 119.877 66.2297 119.941 63.2434 119.941C60.257 119.941 60.1841 119.877 60.1841 117.268ZM76.2455 114.977C76.2455 112.431 76.3729 112.304 78.9223 112.304C81.4717 112.304 81.5992 112.431 81.5992 114.977C81.5992 117.523 81.4717 117.65 78.9223 117.65C76.3729 117.65 76.2455 117.523 76.2455 114.977ZM83.8937 114.977C83.8937 112.431 84.0212 112.304 86.5706 112.304C89.12 112.304 89.2475 112.431 89.2475 114.977C89.2475 117.523 89.12 117.65 86.5706 117.65C84.0212 117.65 83.8937 117.523 83.8937 114.977ZM91.5419 114.977C91.5419 112.431 91.6695 112.304 94.2188 112.304C96.7683 112.304 96.8958 112.431 96.8958 114.977C96.8958 117.523 96.7682 117.65 94.2188 117.65C91.6695 117.65 91.5419 117.523 91.5419 114.977ZM99.333 115.168C99.5516 112.902 99.8223 112.665 102.441 112.448C105.262 112.215 105.309 112.256 105.309 114.931C105.309 117.601 105.253 117.65 102.201 117.65C99.1556 117.65 99.0981 117.6 99.333 115.168ZM107.603 114.977C107.603 112.447 107.743 112.304 110.197 112.304C112.591 112.304 112.814 112.509 113.102 114.977C113.411 117.617 113.379 117.65 110.509 117.65C107.698 117.65 107.603 117.563 107.603 114.977ZM115.394 115.168C115.605 112.985 115.934 112.657 118.12 112.446C120.504 112.217 120.605 112.318 120.605 114.928C120.605 117.539 120.494 117.65 117.88 117.65C115.266 117.65 115.164 117.549 115.394 115.168ZM122.9 114.977C122.9 112.367 122.973 112.304 125.959 112.304C128.946 112.304 129.018 112.367 129.018 114.977C129.018 117.586 128.946 117.65 125.959 117.65C122.973 117.65 122.9 117.586 122.9 114.977ZM131.313 114.977C131.313 112.431 131.44 112.304 133.99 112.304C136.539 112.304 136.667 112.431 136.667 114.977C136.667 117.523 136.539 117.65 133.99 117.65C131.44 117.65 131.313 117.523 131.313 114.977ZM138.961 114.931C138.961 112.256 139.007 112.215 141.829 112.449C144.448 112.665 144.718 112.902 144.937 115.168C145.172 117.6 145.114 117.65 142.069 117.65C139.017 117.65 138.961 117.601 138.961 114.931ZM146.752 115.168C146.972 112.886 147.208 112.686 149.669 112.686C152.13 112.686 152.365 112.886 152.585 115.168C152.821 117.606 152.769 117.65 149.669 117.65C146.569 117.65 146.517 117.606 146.752 115.168ZM154.4 115.168C154.619 112.902 154.89 112.665 157.508 112.449C160.33 112.215 160.376 112.256 160.376 114.931C160.376 117.601 160.32 117.65 157.269 117.65C154.223 117.65 154.166 117.6 154.4 115.168ZM162.671 114.931C162.671 112.256 162.717 112.215 165.539 112.449C168.157 112.665 168.428 112.902 168.647 115.168C168.881 117.6 168.824 117.65 165.779 117.65C162.727 117.65 162.671 117.601 162.671 114.931ZM170.462 115.168C170.682 112.886 170.917 112.686 173.378 112.686C175.839 112.686 176.075 112.886 176.295 115.168C176.53 117.606 176.479 117.65 173.378 117.65C170.278 117.65 170.226 117.606 170.462 115.168ZM178.11 115.168C178.329 112.902 178.599 112.665 181.218 112.449C184.039 112.215 184.086 112.256 184.086 114.931C184.086 117.601 184.03 117.65 180.978 117.65C177.933 117.65 177.875 117.6 178.11 115.168ZM186.38 114.977C186.38 112.431 186.508 112.304 189.057 112.304C191.607 112.304 191.734 112.431 191.734 114.977C191.734 117.523 191.607 117.65 189.057 117.65C186.508 117.65 186.38 117.523 186.38 114.977ZM194.053 115.55C194.075 113.538 194.125 113.512 195.2 114.932C196.631 116.821 196.624 117.65 195.175 117.65C194.428 117.65 194.037 116.918 194.053 115.55ZM63.2434 110.012C63.2434 107.849 63.4134 107.721 66.3027 107.721C69.192 107.721 69.362 107.848 69.362 110.012C69.362 112.176 69.1921 112.304 66.3027 112.304C63.4134 112.304 63.2434 112.176 63.2434 110.012ZM86.1882 108.915C86.1882 106.305 86.2993 106.194 88.9135 106.194C91.5275 106.194 91.6291 106.295 91.3992 108.676C91.1886 110.858 90.8595 111.187 88.6738 111.397C86.2897 111.627 86.1882 111.525 86.1882 108.915ZM99.7001 111.031C99.4197 110.751 99.1902 109.548 99.1902 108.358C99.1902 106.342 99.4 106.194 102.249 106.194C105.236 106.194 105.309 106.257 105.309 108.867C105.309 111.387 105.163 111.54 102.759 111.54C101.357 111.54 99.9805 111.311 99.7001 111.031ZM115.761 111.031C115.481 110.751 115.252 109.548 115.252 108.358C115.252 106.394 115.499 106.194 117.928 106.194C120.478 106.194 120.605 106.321 120.605 108.867C120.605 111.293 120.405 111.54 118.438 111.54C117.246 111.54 116.042 111.311 115.761 111.031ZM131.313 108.867C131.313 106.321 131.44 106.194 133.99 106.194C136.539 106.194 136.667 106.321 136.667 108.867C136.667 111.413 136.539 111.54 133.99 111.54C131.44 111.54 131.313 111.413 131.313 108.867ZM139.507 111.067C139.207 110.767 138.961 109.548 138.961 108.358C138.961 106.337 139.167 106.194 142.069 106.194C145.114 106.194 145.172 106.244 144.937 108.676C144.73 110.818 144.379 111.189 142.375 111.385C141.098 111.51 139.808 111.368 139.507 111.067ZM147.156 111.067C146.855 110.767 146.609 109.548 146.609 108.358C146.609 106.337 146.815 106.194 149.717 106.194C152.763 106.194 152.82 106.244 152.585 108.676C152.379 110.818 152.027 111.189 150.024 111.385C148.747 111.51 147.456 111.368 147.156 111.067ZM154.768 111.031C154.487 110.751 154.258 109.548 154.258 108.358C154.258 106.342 154.468 106.194 157.317 106.194C160.303 106.194 160.376 106.258 160.376 108.867C160.376 111.387 160.231 111.54 157.827 111.54C156.425 111.54 155.048 111.311 154.768 111.031ZM162.671 108.913C162.671 106.243 162.727 106.194 165.779 106.194C168.824 106.194 168.881 106.244 168.647 108.676C168.428 110.942 168.157 111.179 165.539 111.395C162.717 111.628 162.671 111.589 162.671 108.913ZM170.865 111.067C170.565 110.767 170.319 109.548 170.319 108.358C170.319 106.337 170.524 106.194 173.427 106.194C176.472 106.194 176.53 106.244 176.295 108.676C176.088 110.818 175.737 111.189 173.733 111.385C172.456 111.51 171.166 111.369 170.865 111.067ZM178.513 111.067C178.213 110.767 177.967 109.548 177.967 108.358C177.967 106.337 178.173 106.194 181.075 106.194C184.121 106.194 184.178 106.244 183.943 108.676C183.736 110.818 183.385 111.189 181.382 111.385C180.104 111.51 178.814 111.369 178.513 111.067ZM186.38 109.588V107.635L188.633 108.964C191.179 110.466 191.018 111.54 188.247 111.54C186.755 111.54 186.38 111.149 186.38 109.588ZM46.4172 107.721C46.4172 105.612 46.6298 105.43 49.0941 105.43C51.5585 105.43 51.771 105.612 51.771 107.721C51.771 109.831 51.5584 110.013 49.0941 110.013C46.6297 110.013 46.4172 109.831 46.4172 107.721ZM99.4881 104.34C99.2578 103.741 99.1825 102.452 99.3211 101.476C99.5256 100.033 100.108 99.6578 102.441 99.465L105.309 99.228V102.329C105.309 105.369 105.256 105.43 102.608 105.43C100.974 105.43 99.7416 105 99.4881 104.34ZM162.987 104.389C162.747 103.762 162.663 102.452 162.801 101.476C163.01 100.006 163.511 99.702 165.73 99.702C168.279 99.702 168.407 99.8293 168.407 102.375C168.407 104.834 168.207 105.067 165.916 105.288C164.246 105.449 163.281 105.153 162.987 104.389ZM170.617 104.34C170.387 103.741 170.311 102.452 170.45 101.476C170.646 100.097 171.256 99.6487 173.193 99.4623C176.007 99.1915 176.901 100.429 176.123 103.522C175.745 105.029 175.159 105.43 173.34 105.43C172.05 105.43 170.852 104.951 170.617 104.34ZM178.284 104.389C178.043 103.762 177.96 102.452 178.098 101.476C178.304 100.026 178.883 99.6581 181.267 99.462L184.184 99.222L183.944 102.135C183.723 104.806 183.496 105.068 181.213 105.288C179.542 105.449 178.577 105.153 178.284 104.389ZM88.4826 101.993C88.4826 99.3837 88.5556 99.3201 91.5419 99.3201C94.5284 99.3201 94.6013 99.3839 94.6013 101.993C94.6013 104.603 94.5283 104.666 91.5419 104.666C88.5555 104.666 88.4826 104.603 88.4826 101.993ZM109.133 102.039C109.133 99.369 109.189 99.3201 112.241 99.3201C115.286 99.3201 115.344 99.3699 115.109 101.802C114.89 104.068 114.62 104.305 112.001 104.522C109.179 104.755 109.133 104.714 109.133 102.039ZM122.9 100.466C122.9 97.8562 122.973 97.7926 125.959 97.7926C128.946 97.7926 129.018 97.8562 129.018 100.466C129.018 103.075 128.946 103.139 125.959 103.139C122.973 103.139 122.9 103.075 122.9 100.466ZM66.4455 99.1291C66.6642 96.863 66.9347 96.6263 69.5532 96.4099C72.3748 96.1768 72.4213 96.2167 72.4213 98.8921C72.4213 101.562 72.3653 101.611 69.3135 101.611C66.268 101.611 66.2106 101.561 66.4455 99.1291ZM77.153 99.1291C77.3717 96.863 77.6423 96.6263 80.2608 96.4099C83.0824 96.1768 83.1289 96.2167 83.1289 98.8921C83.1289 101.562 83.0729 101.611 80.0211 101.611C76.9756 101.611 76.9181 101.561 77.153 99.1291ZM57.2714 99.528C54.9411 99.2412 54.7597 99.0245 54.9769 96.7861C55.1831 94.661 55.525 94.3256 57.6984 94.1164C60.1343 93.8819 60.1841 93.9392 60.1841 96.9804C60.1841 98.6873 60.0979 100.029 59.9929 99.9616C59.8877 99.8946 58.663 99.6991 57.2714 99.528ZM99.333 96.0741C99.5516 93.808 99.8223 93.5713 102.441 93.3549C105.262 93.1218 105.309 93.162 105.309 95.8371C105.309 98.5074 105.253 98.5563 102.201 98.5563C99.1556 98.5563 99.0981 98.5065 99.333 96.0741ZM162.814 96.0741C163.034 93.7921 163.269 93.5919 165.73 93.5919C168.191 93.5919 168.426 93.7923 168.647 96.0741C168.882 98.5122 168.83 98.5563 165.73 98.5563C162.63 98.5563 162.578 98.5123 162.814 96.0741ZM170.462 96.0741C170.682 93.7921 170.917 93.5919 173.378 93.5919C175.839 93.5919 176.075 93.7923 176.295 96.0741C176.53 98.5122 176.479 98.5563 173.378 98.5563C170.278 98.5563 170.226 98.5123 170.462 96.0741ZM178.11 96.0741C178.329 93.808 178.599 93.5713 181.218 93.3549C184.039 93.1218 184.086 93.162 184.086 95.8371C184.086 98.5074 184.03 98.5563 180.978 98.5563C177.933 98.5563 177.875 98.5065 178.11 96.0741ZM88.4822 93.7829C88.4817 91.4101 88.6081 91.304 91.3503 91.3767C93.9882 91.4465 94.2381 91.6461 94.4585 93.8588C94.6919 96.2024 94.6173 96.2651 91.5904 96.2651C88.5942 96.2651 88.4826 96.1759 88.4822 93.7829ZM77.304 91.3453C76.3502 88.8633 77.3428 87.482 80.0801 87.482C82.5293 87.482 82.766 87.6843 82.9861 89.9641C83.2165 92.3486 83.1175 92.4463 80.4764 92.4463C78.7876 92.4463 77.5639 92.0216 77.304 91.3453ZM99.1902 89.3911C99.1902 87.2271 99.3602 87.0998 102.249 87.0998C105.139 87.0998 105.309 87.2271 105.309 89.3911C105.309 91.555 105.139 91.6823 102.249 91.6823C99.3601 91.6823 99.1902 91.555 99.1902 89.3911ZM162.671 89.3911C162.671 87.2271 162.841 87.0998 165.73 87.0998C168.619 87.0998 168.789 87.2271 168.789 89.3911C168.789 91.555 168.619 91.6823 165.73 91.6823C162.841 91.6823 162.671 91.555 162.671 89.3911ZM170.319 89.3911C170.319 87.2271 170.489 87.0998 173.378 87.0998C176.268 87.0998 176.438 87.2271 176.438 89.3911C176.438 91.555 176.268 91.6823 173.378 91.6823C170.489 91.6823 170.319 91.555 170.319 89.3911ZM177.967 89.3911C177.967 87.2271 178.137 87.0998 181.027 87.0998C183.916 87.0998 184.086 87.2271 184.086 89.3911C184.086 91.555 183.916 91.6823 181.027 91.6823C178.137 91.6823 177.967 91.555 177.967 89.3911ZM57.8896 82.8992C57.8896 80.3534 58.0171 80.2261 60.5665 80.2261C63.1159 80.2261 63.2434 80.3534 63.2434 82.8992C63.2434 85.445 63.1158 85.5723 60.5665 85.5723C58.0171 85.5723 57.8896 85.4451 57.8896 82.8992ZM99.1902 82.8992C99.1902 80.2897 99.2632 80.2261 102.249 80.2261C105.236 80.2261 105.309 80.2899 105.309 82.8992C105.309 85.5087 105.236 85.5723 102.249 85.5723C99.263 85.5723 99.1902 85.5085 99.1902 82.8992ZM162.671 82.8992C162.671 80.2897 162.744 80.2261 165.73 80.2261C168.717 80.2261 168.789 80.2899 168.789 82.8992C168.789 85.5087 168.717 85.5723 165.73 85.5723C162.744 85.5723 162.671 85.5085 162.671 82.8992ZM170.319 82.8992C170.319 80.1707 170.357 80.137 173.187 80.3709C175.811 80.5879 176.055 80.8028 176.055 82.8992C176.055 84.9956 175.811 85.2106 173.187 85.4275C170.357 85.6614 170.319 85.6279 170.319 82.8992ZM177.967 82.8992C177.967 80.2897 178.04 80.2261 181.027 80.2261C184.013 80.2261 184.086 80.2899 184.086 82.8992C184.086 85.5087 184.013 85.5723 181.027 85.5723C178.04 85.5723 177.967 85.5085 177.967 82.8992ZM40.6153 82.2398C40.3747 81.6134 40.2909 80.3246 40.4293 79.3758C40.6358 77.9604 41.1617 77.6512 43.3579 77.6538C45.8965 77.6557 46.0348 77.7923 46.0348 80.2782C46.0348 82.6781 45.8247 82.9194 43.5438 83.1389C41.8734 83.2996 40.9088 83.0036 40.6153 82.2398ZM90.7772 80.417C90.7772 77.653 90.8705 77.5529 93.454 77.5529C96.0374 77.5529 96.1309 77.653 96.1309 80.417C96.1309 83.1811 96.0375 83.2811 93.454 83.2811C90.8706 83.2811 90.7772 83.181 90.7772 80.417ZM78.5399 77.5529C78.5399 75.0071 78.6674 74.8798 81.2168 74.8798C83.7662 74.8798 83.8937 75.0071 83.8937 77.5529C83.8937 80.0988 83.7661 80.2261 81.2168 80.2261C78.6674 80.2261 78.5399 80.0988 78.5399 77.5529ZM162.671 76.7431C162.671 74.0679 162.717 74.0277 165.539 74.2609C168.157 74.4774 168.428 74.714 168.647 76.9801C168.881 79.4125 168.824 79.4623 165.779 79.4623C162.727 79.4623 162.671 79.4136 162.671 76.7431ZM170.632 78.4101C169.659 75.8805 170.633 74.498 173.389 74.498C175.842 74.498 176.055 74.6815 176.055 76.7892C176.055 78.817 175.769 79.108 173.564 79.3202C171.885 79.482 170.929 79.1852 170.632 78.4101ZM177.967 76.7892C177.967 74.3401 178.156 74.1161 180.217 74.1161C182.688 74.1161 182.879 74.2987 183.612 77.362C184.097 79.3881 184.006 79.4623 181.041 79.4623C178.038 79.4623 177.967 79.4007 177.967 76.7892ZM99.1902 74.8798C99.1902 72.7159 99.3602 72.5886 102.249 72.5886C105.139 72.5886 105.309 72.7158 105.309 74.8798C105.309 77.0438 105.139 77.1711 102.249 77.1711C99.3601 77.1711 99.1902 77.0439 99.1902 74.8798ZM159.335 75.2617C159.093 74.6316 159.228 74.1161 159.635 74.1161C160.043 74.1161 160.376 74.6316 160.376 75.2617C160.376 75.8918 160.241 76.4073 160.076 76.4073C159.91 76.4073 159.577 75.8918 159.335 75.2617ZM89.2475 72.2069C89.2475 69.661 89.375 69.5337 91.9244 69.5337C94.4738 69.5337 94.6013 69.661 94.6013 72.2069C94.6013 74.7527 94.4737 74.88 91.9244 74.88C89.3749 74.88 89.2475 74.7528 89.2475 72.2069ZM155.787 70.2975L154.154 68.0062H157.265C160.212 68.0062 160.376 68.1271 160.376 70.2975C160.376 72.0527 160.031 72.5887 158.899 72.5887C158.086 72.5887 156.686 71.5577 155.787 70.2975ZM162.671 70.2975C162.671 68.1335 162.841 68.0062 165.73 68.0062C168.619 68.0062 168.789 68.1335 168.789 70.2975C168.789 72.4615 168.619 72.5887 165.73 72.5887C162.841 72.5887 162.671 72.4615 162.671 70.2975ZM170.319 70.2975C170.319 68.1335 170.489 68.0062 173.378 68.0062C176.268 68.0062 176.438 68.1335 176.438 70.2975C176.438 72.4615 176.268 72.5887 173.378 72.5887C170.489 72.5887 170.319 72.4615 170.319 70.2975ZM177.967 70.2975C177.967 67.4534 179.672 67.2526 180.904 69.9516C182.091 72.553 182.077 72.5887 179.879 72.5887C178.265 72.5887 177.967 72.2323 177.967 70.2975ZM106.074 68.4342C106.074 65.7639 106.13 65.715 109.181 65.715C112.227 65.715 112.284 65.7649 112.05 68.1972C111.831 70.4633 111.56 70.7 108.942 70.9164C106.12 71.1495 106.074 71.1093 106.074 68.4342ZM78.5399 66.8606C78.5399 64.3148 78.6674 64.1875 81.2168 64.1875C83.7662 64.1875 83.8937 64.3147 83.8937 66.8606C83.8937 69.4065 83.7661 69.5337 81.2168 69.5337C78.6674 69.5337 78.5399 69.4065 78.5399 66.8606ZM58.6544 66.0968C58.6544 63.551 58.7819 63.4237 61.3313 63.4237C63.8807 63.4237 64.0082 63.5509 64.0082 66.0968C64.0082 68.6427 63.8807 68.77 61.3313 68.77C58.7819 68.77 58.6544 68.6428 58.6544 66.0968ZM113.467 66.7333C113.187 66.4533 112.957 65.2504 112.957 64.0602C112.957 62.0963 112.71 61.8962 110.28 61.8962C107.731 61.8962 107.603 61.769 107.603 59.2231C107.603 56.6773 107.731 56.55 110.28 56.55C112.83 56.55 112.957 56.6772 112.957 59.2231C112.957 61.7689 113.085 61.8962 115.634 61.8962C118.183 61.8962 118.311 62.0234 118.311 64.5694C118.311 66.9954 118.111 67.2425 116.144 67.2425C114.952 67.2425 113.747 67.0133 113.467 66.7333ZM148.714 65.0681C147.558 64.3737 146.612 63.2042 146.611 62.4691C146.61 61.4152 147.267 61.1325 149.717 61.1325C152.748 61.1325 152.819 61.1924 152.585 63.5559C152.299 66.4463 151.517 66.7519 148.714 65.0681ZM154.258 63.8056C154.258 61.1961 154.331 61.1325 157.317 61.1325C160.303 61.1325 160.376 61.1962 160.376 63.8056C160.376 66.4151 160.303 66.4787 157.317 66.4787C154.331 66.4787 154.258 66.415 154.258 63.8056ZM162.671 63.8056C162.671 61.1961 162.744 61.1325 165.73 61.1325C168.717 61.1325 168.789 61.1962 168.789 63.8056C168.789 66.4151 168.717 66.4787 165.73 66.4787C162.744 66.4787 162.671 66.415 162.671 63.8056ZM170.319 63.8056C170.319 61.2626 170.449 61.1325 172.981 61.1325C175.167 61.1325 175.728 61.4667 176.113 62.9984C176.771 65.6179 175.989 66.4787 172.951 66.4787C170.453 66.4787 170.319 66.3426 170.319 63.8056ZM96.4246 64.614C95.4738 62.1397 96.4745 60.7549 99.3878 60.5136C102.202 60.2805 102.249 60.3215 102.249 62.9958C102.249 65.5989 102.134 65.715 99.5487 65.715C97.902 65.715 96.6826 65.2852 96.4246 64.614ZM85.4234 60.7506C85.4234 58.2048 85.5509 58.0775 88.1002 58.0775C90.6497 58.0775 90.7772 58.2047 90.7772 60.7506C90.7772 63.2964 90.6496 63.4237 88.1002 63.4237C85.5508 63.4237 85.4234 63.2965 85.4234 60.7506ZM140.491 61.8962C138.866 61.3767 139.068 61.2733 141.829 61.2086C143.617 61.1668 145.08 61.4761 145.08 61.8962C145.08 62.7765 143.243 62.7765 140.491 61.8962ZM46.4172 59.2231C46.4172 56.6773 46.5447 56.55 49.0941 56.55C51.6435 56.55 51.771 56.6772 51.771 59.2231C51.771 61.7689 51.6435 61.8962 49.0941 61.8962C46.5447 61.8962 46.4172 61.769 46.4172 59.2231ZM122.135 59.2231C122.135 56.6773 122.262 56.55 124.812 56.55C127.361 56.55 127.489 56.6772 127.489 59.2231C127.489 61.7689 127.361 61.8962 124.812 61.8962C122.262 61.8962 122.135 61.769 122.135 59.2231ZM131.313 57.3137C131.313 55.2043 131.526 55.0225 133.99 55.0225C136.454 55.0225 136.667 55.2043 136.667 57.3137C136.667 59.4231 136.454 59.605 133.99 59.605C131.525 59.605 131.313 59.4231 131.313 57.3137ZM138.961 57.3137C138.961 55.1498 139.131 55.0225 142.02 55.0225C144.91 55.0225 145.08 55.1497 145.08 57.3137C145.08 59.4777 144.91 59.605 142.02 59.605C139.131 59.605 138.961 59.4778 138.961 57.3137ZM146.609 57.3137C146.609 55.1498 146.779 55.0225 149.669 55.0225C152.558 55.0225 152.728 55.1497 152.728 57.3137C152.728 59.4777 152.558 59.605 149.669 59.605C146.779 59.605 146.609 59.4778 146.609 57.3137ZM154.258 57.3137C154.258 55.1498 154.428 55.0225 157.317 55.0225C160.206 55.0225 160.376 55.1497 160.376 57.3137C160.376 59.4777 160.206 59.605 157.317 59.605C154.428 59.605 154.258 59.4778 154.258 57.3137ZM162.671 57.3137C162.671 55.1498 162.841 55.0225 165.73 55.0225C168.619 55.0225 168.789 55.1497 168.789 57.3137C168.789 59.4777 168.619 59.605 165.73 59.605C162.841 59.605 162.671 59.4778 162.671 57.3137ZM170.319 58.0775C170.319 57.2373 170.61 56.55 170.965 56.55C171.321 56.55 172.235 57.2373 172.996 58.0775C174.347 59.5685 174.332 59.605 172.35 59.605C170.829 59.605 170.319 59.2214 170.319 58.0775ZM77.153 56.4068C77.3722 54.1794 77.6202 53.9724 80.0695 53.9724C82.5188 53.9724 82.7668 54.1795 82.9861 56.4068C83.2206 58.7889 83.1579 58.8412 80.0695 58.8412C76.9811 58.8412 76.9185 58.7888 77.153 56.4068ZM94.6013 53.8768C94.6013 51.331 94.7288 51.2037 97.2781 51.2037C99.8276 51.2037 99.9551 51.3309 99.9551 53.8768C99.9551 56.4227 99.8275 56.55 97.2781 56.55C94.7287 56.55 94.6013 56.4228 94.6013 53.8768ZM115.761 54.5133C115.481 54.2333 115.252 53.0304 115.252 51.8402C115.252 49.8247 115.461 49.6762 118.311 49.6762C121.297 49.6762 121.37 49.74 121.37 52.3493C121.37 54.8697 121.224 55.0225 118.821 55.0225C117.419 55.0225 116.042 54.7932 115.761 54.5133ZM131.313 50.9752C131.313 48.5452 131.408 48.4666 133.99 48.7675C136.36 49.0439 136.667 49.3328 136.667 51.2873C136.667 53.3012 136.432 53.495 133.99 53.495C131.471 53.495 131.313 53.3459 131.313 50.9752ZM138.961 51.2039C138.961 49.0399 139.131 48.9126 142.02 48.9126C144.91 48.9126 145.08 49.0398 145.08 51.2039C145.08 53.3678 144.91 53.4951 142.02 53.4951C139.131 53.4951 138.961 53.3679 138.961 51.2039ZM146.609 51.2039C146.609 49.0399 146.779 48.9126 149.669 48.9126C152.558 48.9126 152.728 49.0398 152.728 51.2039C152.728 53.3678 152.558 53.4951 149.669 53.4951C146.779 53.4951 146.609 53.3679 146.609 51.2039ZM154.258 51.2039C154.258 49.0399 154.428 48.9126 157.317 48.9126C160.206 48.9126 160.376 49.0398 160.376 51.2039C160.376 53.3678 160.206 53.4951 157.317 53.4951C154.428 53.4951 154.258 53.3679 154.258 51.2039ZM162.671 51.5589C162.671 49.4868 163.428 49.6148 166.877 52.2692C168.337 53.3926 168.276 53.4476 165.539 53.4708C162.972 53.493 162.671 53.2912 162.671 51.5589ZM34.9448 49.2945C34.9448 46.7487 35.0723 46.6214 37.6217 46.6214C40.1711 46.6214 40.2986 46.7486 40.2986 49.2945C40.2986 51.8403 40.1711 51.9676 37.6217 51.9676C35.0723 51.9676 34.9448 51.8404 34.9448 49.2945ZM122.9 48.5307C122.9 45.9213 122.973 45.8576 125.959 45.8576C128.946 45.8576 129.018 45.9213 129.018 48.5307C129.018 51.1402 128.946 51.2039 125.959 51.2039C122.973 51.2039 122.9 51.1401 122.9 48.5307ZM106.074 47.0032C106.074 44.3937 106.147 44.3301 109.133 44.3301C112.119 44.3301 112.192 44.3938 112.192 47.0032C112.192 49.6127 112.119 49.6764 109.133 49.6764C106.146 49.6764 106.074 49.6126 106.074 47.0032ZM131.012 46.177C130.757 45.5126 130.548 43.966 130.548 42.7401C130.548 40.7155 130.786 40.5113 133.143 40.5113C135.961 40.5113 136.667 41.4421 136.667 45.1563C136.667 47.1809 136.429 47.3851 134.072 47.3851C132.411 47.3851 131.309 46.9502 131.012 46.177ZM138.961 44.6659C138.961 41.9907 139.007 41.9505 141.829 42.1837C144.448 42.4001 144.718 42.6368 144.937 44.9029C145.172 47.3354 145.114 47.3851 142.069 47.3851C139.017 47.3851 138.961 47.336 138.961 44.6659ZM146.609 45.0938C146.609 42.5442 146.872 42.4412 150.319 43.6411C151.883 44.1852 152.728 44.9895 152.728 45.9323C152.728 47.1181 152.166 47.3851 149.669 47.3851C146.779 47.3851 146.609 47.2579 146.609 45.0938ZM154.258 46.6214C154.258 45.6512 156.579 45.6512 158.082 46.6214C158.952 47.1832 158.63 47.3645 156.743 47.3734C155.376 47.379 154.258 47.0414 154.258 46.6214ZM118.605 43.2291C117.654 40.7548 118.654 39.37 121.568 39.1287C124.382 38.8956 124.429 38.9366 124.429 41.6109C124.429 44.214 124.314 44.3301 121.729 44.3301C120.082 44.3301 118.863 43.9003 118.605 43.2291ZM76.2455 40.8932C76.2455 38.3474 76.3729 38.2201 78.9223 38.2201C81.4717 38.2201 81.5992 38.3473 81.5992 40.8932C81.5992 43.439 81.4717 43.5664 78.9223 43.5664C76.3729 43.5664 76.2455 43.4391 76.2455 40.8932Z" fill="#269F9F"/>
</svg>
