<svg id="svg" version="1.1" xmlns="http://www.w3.org/2000/svg" xmlns:xlink="http://www.w3.org/1999/xlink" width="400" height="400" viewBox="0, 0, 400,400"><g id="svgg"><path id="path0" d="M0.000 200.000 L 0.000 400.000 200.000 400.000 L 400.000 400.000 400.000 200.000 L 400.000 0.000 200.000 0.000 L 0.000 0.000 0.000 200.000 M214.000 23.629 C 218.829 24.129,228.053 25.502,230.400 26.070 C 231.390 26.309,232.974 26.634,233.920 26.792 C 234.865 26.950,235.846 27.286,236.100 27.540 C 236.353 27.793,237.253 28.000,238.100 28.000 C 238.947 28.000,240.128 28.253,240.725 28.561 C 241.322 28.870,242.690 29.254,243.764 29.416 C 244.839 29.577,246.186 29.953,246.759 30.252 C 247.331 30.551,248.018 30.796,248.283 30.798 C 249.472 30.804,261.713 35.047,264.581 36.447 C 266.330 37.301,267.973 38.000,268.232 38.000 C 268.490 38.000,268.911 38.252,269.167 38.561 C 269.423 38.869,270.099 39.239,270.670 39.382 C 280.096 41.748,306.300 60.139,319.217 73.453 C 332.634 87.285,349.014 112.123,352.683 124.200 C 353.017 125.300,353.620 126.920,354.024 127.800 C 355.041 130.017,356.308 133.935,357.399 138.235 C 357.906 140.234,358.598 142.754,358.936 143.835 C 360.163 147.752,360.784 150.250,361.163 152.800 C 361.376 154.230,361.836 157.200,362.185 159.400 C 363.546 167.981,363.701 170.154,363.704 180.600 C 363.710 201.131,358.375 227.749,351.663 240.672 C 351.456 241.073,349.527 245.000,347.377 249.399 C 345.228 253.799,342.364 259.019,341.014 260.999 C 339.663 262.980,338.429 264.870,338.272 265.200 C 332.866 276.556,308.562 300.763,291.879 311.408 C 290.162 312.504,288.092 313.830,287.279 314.357 C 284.099 316.413,277.544 320.052,274.548 321.424 C 272.817 322.216,268.970 324.007,266.000 325.403 C 260.707 327.891,248.148 332.342,243.400 333.413 C 242.080 333.711,238.480 334.596,235.400 335.381 C 212.427 341.233,179.845 341.028,156.200 334.883 C 153.780 334.254,150.450 333.417,148.800 333.022 C 143.463 331.746,132.566 327.746,127.000 325.018 C 125.020 324.048,122.410 322.868,121.200 322.397 C 117.887 321.105,108.046 315.566,101.400 311.253 C 94.109 306.520,80.167 294.959,74.200 288.697 C 67.642 281.815,66.796 280.844,62.929 275.748 C 62.449 275.117,61.085 273.384,59.897 271.897 C 58.709 270.410,57.392 268.587,56.969 267.845 C 55.312 264.937,53.756 262.502,52.158 260.316 C 50.753 258.394,42.800 242.984,42.800 242.184 C 42.800 242.040,42.170 240.596,41.400 238.973 C 40.630 237.350,40.000 235.812,40.000 235.554 C 40.000 235.297,39.379 233.627,38.620 231.843 C 37.861 230.059,36.983 227.520,36.670 226.200 C 36.356 224.880,35.519 221.640,34.809 219.000 C 31.855 208.019,30.387 197.454,30.140 185.400 C 29.880 172.678,30.481 163.689,32.061 156.652 C 32.302 155.581,32.637 153.691,32.807 152.452 C 33.492 147.451,37.386 133.355,39.396 128.600 C 39.675 127.940,40.395 126.140,40.996 124.600 C 42.998 119.474,49.914 105.319,51.337 103.435 C 53.375 100.738,55.097 98.113,55.953 96.400 C 56.447 95.410,57.785 93.399,58.926 91.931 C 65.742 83.161,67.791 80.653,70.481 77.788 C 72.126 76.034,74.659 73.276,76.109 71.657 C 77.559 70.038,79.163 68.432,79.673 68.087 C 80.183 67.742,81.328 66.817,82.217 66.030 C 84.864 63.690,87.918 61.138,89.146 60.241 C 89.779 59.778,91.265 58.634,92.449 57.697 C 95.317 55.426,95.037 55.633,98.097 53.506 C 105.329 48.478,118.587 40.800,120.036 40.800 C 120.278 40.800,121.044 40.504,121.738 40.143 C 126.722 37.547,129.894 36.044,132.861 34.872 C 133.445 34.641,136.505 33.617,139.661 32.596 C 142.818 31.575,146.126 30.484,147.013 30.170 C 147.901 29.857,149.035 29.600,149.533 29.600 C 150.032 29.600,150.933 29.345,151.535 29.034 C 152.138 28.722,153.524 28.286,154.615 28.066 C 155.707 27.845,158.310 27.222,160.400 26.682 C 162.490 26.142,165.370 25.575,166.800 25.422 C 168.230 25.269,170.660 24.904,172.200 24.611 C 174.711 24.133,182.507 23.400,189.000 23.030 C 192.996 22.803,209.945 23.209,214.000 23.629 " stroke="none" fill="#fbfbfa" fill-rule="evenodd"></path><path id="path1" d="M186.400 25.013 C 177.481 25.542,171.871 26.129,167.191 27.024 C 165.536 27.341,163.592 27.600,162.871 27.600 C 162.150 27.600,161.074 27.845,160.480 28.145 C 159.886 28.444,158.370 28.791,157.110 28.915 C 155.851 29.039,154.416 29.424,153.921 29.770 C 153.427 30.117,152.292 30.400,151.400 30.400 C 150.508 30.400,149.423 30.644,148.989 30.943 C 148.555 31.242,147.480 31.618,146.600 31.779 C 145.720 31.940,144.820 32.199,144.600 32.354 C 143.704 32.986,135.256 35.987,134.298 36.014 C 134.024 36.021,133.080 36.375,132.200 36.800 C 131.320 37.225,130.279 37.579,129.887 37.586 C 129.496 37.594,129.071 37.870,128.945 38.200 C 128.818 38.530,128.269 38.800,127.725 38.800 C 127.180 38.800,125.660 39.430,124.346 40.200 C 123.032 40.970,121.617 41.600,121.202 41.600 C 120.787 41.600,120.334 41.783,120.196 42.006 C 120.058 42.229,119.373 42.684,118.673 43.017 C 117.202 43.715,115.660 44.585,114.800 45.200 C 113.864 45.870,112.410 46.662,109.737 47.961 C 108.382 48.619,107.157 49.347,107.013 49.579 C 106.870 49.810,106.410 50.000,105.990 50.000 C 105.571 50.000,105.035 50.360,104.800 50.800 C 104.565 51.240,104.078 51.600,103.719 51.600 C 103.361 51.600,102.782 51.862,102.434 52.183 C 100.370 54.083,98.451 55.600,98.114 55.600 C 97.899 55.600,97.398 55.960,97.000 56.400 C 96.602 56.840,96.028 57.200,95.725 57.200 C 95.423 57.200,95.071 57.470,94.945 57.800 C 94.818 58.130,94.419 58.406,94.057 58.413 C 93.696 58.420,92.685 59.140,91.811 60.013 C 90.937 60.886,90.079 61.600,89.905 61.600 C 89.732 61.600,88.694 62.500,87.600 63.600 C 86.506 64.700,85.350 65.600,85.032 65.600 C 84.714 65.600,84.352 65.915,84.228 66.300 C 84.104 66.685,82.995 67.720,81.764 68.600 C 80.533 69.480,79.318 70.488,79.063 70.840 C 78.808 71.193,77.025 73.160,75.100 75.212 C 73.175 77.264,71.600 79.091,71.600 79.272 C 71.600 79.452,71.330 79.600,71.000 79.600 C 70.670 79.600,70.400 79.740,70.400 79.911 C 70.400 80.233,69.417 81.447,65.507 85.956 C 64.246 87.410,63.211 88.816,63.207 89.080 C 63.203 89.344,62.970 89.704,62.689 89.880 C 62.408 90.056,61.193 91.617,59.989 93.349 C 58.785 95.081,57.503 96.818,57.139 97.210 C 56.776 97.601,56.359 98.299,56.213 98.761 C 56.066 99.222,55.781 99.600,55.578 99.600 C 55.376 99.600,54.939 100.185,54.606 100.900 C 54.274 101.615,53.644 102.740,53.207 103.400 C 52.770 104.060,52.230 104.960,52.007 105.400 C 51.784 105.840,51.421 106.470,51.201 106.800 C 50.980 107.130,50.620 107.850,50.401 108.400 C 50.181 108.950,49.821 109.715,49.601 110.100 C 48.602 111.844,48.300 112.422,46.524 116.000 C 45.486 118.090,44.403 120.038,44.118 120.329 C 43.833 120.619,43.600 121.362,43.600 121.980 C 43.600 122.597,43.349 123.310,43.042 123.565 C 42.735 123.820,42.358 124.697,42.205 125.514 C 42.052 126.331,41.682 127.450,41.384 128.000 C 40.693 129.271,38.001 137.509,37.998 138.360 C 37.996 138.712,37.751 139.469,37.452 140.041 C 37.153 140.614,36.777 141.961,36.616 143.036 C 36.454 144.110,36.070 145.478,35.761 146.075 C 35.453 146.672,35.200 147.506,35.200 147.928 C 35.200 148.350,34.840 149.823,34.400 151.200 C 33.960 152.577,33.600 154.590,33.600 155.673 C 33.600 156.756,33.337 158.848,33.017 160.321 C 31.120 169.029,31.134 196.383,33.037 202.371 C 33.347 203.345,33.600 205.196,33.600 206.484 C 33.600 207.772,33.865 209.460,34.189 210.236 C 34.513 211.012,34.897 212.581,35.041 213.723 C 35.185 214.865,35.528 216.070,35.803 216.400 C 36.077 216.730,36.426 217.862,36.578 218.915 C 36.730 219.969,37.095 221.409,37.389 222.115 C 37.684 222.822,38.114 224.429,38.346 225.687 C 38.578 226.944,39.162 228.834,39.644 229.887 C 40.126 230.939,40.661 232.340,40.833 233.000 C 41.341 234.953,42.368 237.723,43.005 238.862 C 43.332 239.446,43.600 240.276,43.600 240.708 C 43.600 241.139,43.960 241.950,44.400 242.509 C 44.840 243.069,45.200 243.773,45.200 244.074 C 45.200 244.375,45.470 245.008,45.801 245.480 C 46.131 245.952,46.856 247.207,47.412 248.269 C 47.968 249.331,48.573 250.470,48.757 250.800 C 48.941 251.130,49.859 252.930,50.797 254.800 C 51.736 256.670,53.020 258.974,53.652 259.920 C 54.283 260.866,54.800 261.802,54.800 262.000 C 54.800 262.198,55.026 262.504,55.301 262.680 C 55.858 263.036,58.000 266.084,58.000 266.522 C 58.000 266.675,58.275 267.115,58.611 267.500 C 59.912 268.992,63.200 273.661,63.200 274.018 C 63.200 274.224,63.560 274.618,64.000 274.893 C 64.440 275.168,64.800 275.553,64.800 275.750 C 64.800 275.947,65.205 276.503,65.700 276.986 C 66.195 277.469,67.764 279.257,69.188 280.960 C 72.523 284.951,81.455 293.802,84.800 296.431 C 86.230 297.555,88.404 299.403,89.630 300.537 C 92.290 302.997,93.598 304.006,96.000 305.454 C 97.751 306.509,102.386 309.812,103.605 310.873 C 103.939 311.163,104.659 311.627,105.205 311.904 C 105.752 312.182,106.740 312.764,107.400 313.198 C 108.060 313.632,109.500 314.436,110.600 314.985 C 111.700 315.533,113.500 316.510,114.600 317.154 C 117.375 318.781,119.678 319.915,130.010 324.739 C 131.005 325.204,132.445 325.705,133.210 325.853 C 133.974 326.000,134.955 326.364,135.389 326.661 C 135.823 326.957,136.515 327.200,136.927 327.200 C 137.339 327.200,138.154 327.457,138.738 327.771 C 139.322 328.084,141.201 328.830,142.912 329.429 C 144.624 330.027,146.120 330.670,146.236 330.858 C 146.352 331.046,146.947 331.200,147.558 331.200 C 148.170 331.200,151.174 331.851,154.235 332.648 C 162.546 334.810,163.916 335.059,177.000 336.794 C 178.540 336.998,181.330 337.176,183.200 337.190 C 185.070 337.204,187.860 337.403,189.400 337.631 C 193.045 338.171,199.389 338.174,205.177 337.639 C 207.720 337.404,212.140 337.026,215.000 336.800 C 223.598 336.120,230.941 335.009,234.800 333.802 C 235.790 333.493,237.410 333.116,238.400 332.965 C 239.390 332.814,240.560 332.505,241.000 332.278 C 241.440 332.051,242.880 331.643,244.200 331.372 C 245.520 331.101,248.917 330.052,251.749 329.040 C 254.581 328.028,257.214 327.200,257.600 327.200 C 257.986 327.200,258.526 326.930,258.800 326.600 C 259.074 326.270,259.669 326.000,260.123 326.000 C 260.576 326.000,261.769 325.626,262.774 325.168 C 263.778 324.711,265.320 324.010,266.200 323.611 C 267.080 323.213,269.684 321.967,271.986 320.843 C 274.288 319.720,276.363 318.800,276.597 318.800 C 276.831 318.800,277.330 318.440,277.707 318.000 C 278.084 317.560,278.695 317.200,279.065 317.200 C 279.434 317.200,280.021 316.946,280.369 316.636 C 280.716 316.325,282.350 315.371,284.000 314.514 C 287.419 312.740,289.759 311.294,291.203 310.062 C 291.751 309.594,293.370 308.452,294.800 307.524 C 296.230 306.595,297.490 305.719,297.600 305.578 C 297.710 305.436,298.239 305.088,298.775 304.806 C 299.862 304.232,300.258 303.929,302.172 302.200 C 302.903 301.540,304.821 299.920,306.435 298.600 C 308.049 297.280,309.989 295.615,310.746 294.900 C 311.503 294.185,312.308 293.600,312.533 293.600 C 313.015 293.600,316.400 290.050,316.400 289.544 C 316.400 289.355,316.676 289.200,317.013 289.200 C 317.350 289.200,317.755 288.860,317.913 288.444 C 318.071 288.029,319.730 286.080,321.600 284.114 C 325.343 280.178,328.396 276.680,328.973 275.666 C 329.178 275.305,329.501 274.827,329.689 274.605 C 330.850 273.233,334.800 267.860,334.800 267.651 C 334.800 267.513,335.430 266.692,336.200 265.827 C 336.970 264.962,337.600 263.922,337.600 263.515 C 337.600 263.108,337.870 262.671,338.200 262.545 C 338.530 262.418,338.805 262.109,338.811 261.857 C 338.818 261.606,339.545 260.320,340.428 259.000 C 341.311 257.680,342.430 255.745,342.914 254.700 C 343.399 253.655,343.931 252.800,344.098 252.800 C 344.264 252.800,344.400 252.632,344.400 252.426 C 344.400 251.895,345.065 250.458,346.171 248.600 C 346.695 247.720,347.598 246.010,348.177 244.800 C 348.757 243.590,349.404 242.287,349.616 241.905 C 349.827 241.523,350.006 240.983,350.014 240.705 C 350.021 240.427,350.375 239.480,350.800 238.600 C 351.225 237.720,351.579 236.635,351.586 236.189 C 351.594 235.743,351.849 235.022,352.154 234.587 C 352.459 234.152,352.904 233.167,353.142 232.398 C 353.381 231.629,354.049 229.650,354.626 228.000 C 355.651 225.073,356.404 222.446,357.267 218.800 C 357.501 217.810,357.876 216.772,358.100 216.494 C 358.324 216.216,358.643 214.603,358.809 212.909 C 358.975 211.216,359.311 209.763,359.555 209.682 C 359.818 209.594,360.000 208.518,360.000 207.054 C 360.000 205.690,360.281 203.590,360.623 202.387 C 362.238 196.723,362.408 163.805,360.838 160.871 C 360.593 160.414,360.285 158.636,360.153 156.920 C 360.021 155.204,359.677 152.900,359.388 151.800 C 359.099 150.700,358.748 148.949,358.608 147.909 C 358.468 146.869,358.184 145.914,357.977 145.786 C 357.770 145.658,357.592 145.158,357.582 144.676 C 357.573 144.194,357.287 143.080,356.947 142.200 C 356.608 141.320,356.179 139.880,355.995 139.000 C 355.552 136.882,354.475 133.659,353.768 132.338 C 353.456 131.754,353.199 130.944,353.197 130.538 C 353.196 130.132,352.837 129.260,352.400 128.600 C 351.963 127.940,351.604 126.945,351.603 126.389 C 351.601 125.833,351.353 125.023,351.051 124.589 C 350.749 124.155,350.366 123.170,350.200 122.400 C 350.034 121.630,349.651 120.645,349.349 120.211 C 349.047 119.777,348.800 119.124,348.800 118.760 C 348.800 118.396,348.530 117.874,348.200 117.600 C 347.870 117.326,347.600 116.852,347.600 116.547 C 347.600 116.242,346.970 115.095,346.200 114.000 C 345.430 112.905,344.800 111.776,344.800 111.493 C 344.800 111.210,344.488 110.533,344.106 109.989 C 343.724 109.445,342.907 108.010,342.291 106.800 C 341.126 104.513,340.500 103.426,339.180 101.400 C 338.750 100.740,338.126 99.615,337.794 98.900 C 337.461 98.185,337.034 97.600,336.843 97.600 C 336.653 97.600,336.288 97.095,336.033 96.479 C 335.777 95.862,335.125 94.880,334.584 94.296 C 334.043 93.713,333.600 93.107,333.600 92.951 C 333.600 92.795,333.322 92.382,332.983 92.034 C 332.643 91.685,330.978 89.589,329.283 87.375 C 327.587 85.161,325.930 83.053,325.600 82.689 C 320.504 77.077,313.455 69.889,311.844 68.660 C 311.021 68.033,309.560 66.773,308.597 65.860 C 306.098 63.492,305.233 62.747,303.200 61.217 C 302.210 60.471,301.218 59.668,300.995 59.431 C 300.460 58.861,298.092 57.200,297.815 57.200 C 297.695 57.200,296.338 56.255,294.800 55.100 C 289.650 51.232,288.616 50.543,285.400 48.829 C 283.640 47.891,281.916 46.871,281.569 46.562 C 281.221 46.253,280.719 46.000,280.452 46.000 C 280.186 46.000,279.480 45.678,278.884 45.284 C 277.105 44.109,276.417 43.737,271.354 41.214 C 268.688 39.887,266.235 38.800,265.903 38.800 C 265.570 38.800,265.074 38.530,264.800 38.200 C 264.526 37.870,263.919 37.599,263.451 37.597 C 262.983 37.596,262.060 37.237,261.400 36.800 C 260.740 36.363,259.770 36.004,259.244 36.003 C 258.718 36.001,257.548 35.665,256.644 35.256 C 254.846 34.441,252.863 33.716,251.000 33.192 C 250.340 33.006,249.080 32.580,248.200 32.245 C 247.320 31.909,246.307 31.627,245.949 31.618 C 245.591 31.608,245.074 31.330,244.800 31.000 C 244.484 30.619,243.600 30.400,242.380 30.400 C 241.152 30.400,240.226 30.169,239.818 29.761 C 239.448 29.391,237.995 28.974,236.364 28.769 C 234.816 28.575,233.368 28.304,233.146 28.167 C 232.925 28.030,231.541 27.757,230.072 27.560 C 228.602 27.363,224.880 26.839,221.800 26.394 C 210.225 24.723,198.796 24.277,186.400 25.013 " stroke="none" fill="#833c0c" fill-rule="evenodd"></path><path id="path2" d="M188.400 23.977 C 186.310 24.099,190.540 24.202,197.800 24.205 C 207.157 24.208,209.370 24.135,205.400 23.954 C 198.891 23.656,193.733 23.663,188.400 23.977 M179.100 24.689 C 179.815 24.778,180.985 24.778,181.700 24.689 C 182.415 24.601,181.830 24.528,180.400 24.528 C 178.970 24.528,178.385 24.601,179.100 24.689 M212.900 24.687 C 213.505 24.778,214.495 24.778,215.100 24.687 C 215.705 24.595,215.210 24.520,214.000 24.520 C 212.790 24.520,212.295 24.595,212.900 24.687 M173.800 25.220 C 173.011 25.435,173.422 25.470,175.000 25.323 C 176.320 25.200,177.475 25.032,177.567 24.950 C 177.864 24.682,175.034 24.885,173.800 25.220 M217.800 25.223 C 219.826 25.642,221.463 25.623,219.800 25.200 C 219.140 25.032,218.060 24.894,217.400 24.893 C 216.391 24.892,216.455 24.945,217.800 25.223 M170.305 25.883 C 170.802 25.979,171.522 25.975,171.905 25.875 C 172.287 25.775,171.880 25.696,171.000 25.701 C 170.120 25.705,169.807 25.787,170.305 25.883 M221.905 25.883 C 222.402 25.979,223.122 25.975,223.505 25.875 C 223.887 25.775,223.480 25.696,222.600 25.701 C 221.720 25.705,221.407 25.787,221.905 25.883 M164.000 26.600 C 163.010 26.887,162.560 27.136,163.000 27.153 C 163.440 27.170,164.700 26.934,165.800 26.628 C 166.959 26.305,167.380 26.073,166.800 26.075 C 166.250 26.077,164.990 26.313,164.000 26.600 M227.400 26.624 C 230.509 27.325,231.583 27.291,229.000 26.572 C 227.900 26.266,226.550 26.030,226.000 26.049 C 225.450 26.067,226.080 26.326,227.400 26.624 M249.600 32.200 C 250.150 32.514,250.870 32.771,251.200 32.770 C 251.530 32.769,251.194 32.506,250.454 32.184 C 248.751 31.445,248.294 31.453,249.600 32.200 M139.800 33.414 C 138.800 33.896,138.766 33.951,139.600 33.748 C 140.733 33.471,142.007 32.821,141.400 32.830 C 141.180 32.833,140.460 33.096,139.800 33.414 M253.146 33.416 C 253.886 33.737,254.696 33.993,254.946 33.984 C 255.196 33.976,254.794 33.706,254.054 33.384 C 253.314 33.063,252.504 32.807,252.254 32.816 C 252.004 32.824,252.406 33.094,253.146 33.416 M134.000 35.220 C 133.010 35.625,132.470 35.956,132.800 35.956 C 133.130 35.956,134.210 35.615,135.200 35.200 C 136.190 34.785,136.730 34.453,136.400 34.464 C 136.070 34.474,134.990 34.814,134.000 35.220 M257.257 34.560 C 257.475 34.804,259.056 35.424,263.400 36.970 C 263.927 37.158,263.858 37.043,263.200 36.635 C 262.650 36.294,261.390 35.759,260.400 35.446 C 259.410 35.133,258.240 34.742,257.800 34.575 C 257.360 34.409,257.116 34.402,257.257 34.560 M130.400 36.600 C 129.850 36.914,129.580 37.172,129.800 37.172 C 130.020 37.172,130.650 36.914,131.200 36.600 C 131.750 36.286,132.020 36.028,131.800 36.028 C 131.580 36.028,130.950 36.286,130.400 36.600 M268.310 39.201 C 270.008 40.237,270.564 40.236,269.000 39.200 C 268.340 38.763,267.620 38.405,267.400 38.404 C 267.180 38.404,267.589 38.762,268.310 39.201 M115.800 43.600 C 115.140 44.037,114.780 44.392,115.000 44.388 C 115.401 44.382,117.576 42.823,117.200 42.812 C 117.090 42.808,116.460 43.163,115.800 43.600 M113.100 45.029 C 111.605 45.840,111.696 46.178,113.200 45.400 C 113.860 45.059,114.400 44.694,114.400 44.590 C 114.400 44.332,114.357 44.347,113.100 45.029 M279.200 44.557 C 279.200 44.737,285.114 48.112,285.800 48.323 C 286.482 48.534,283.102 46.412,281.100 45.373 C 280.055 44.830,279.200 44.463,279.200 44.557 M109.500 47.077 C 108.456 47.658,107.663 48.197,107.740 48.273 C 107.900 48.434,111.600 46.414,111.600 46.166 C 111.600 45.915,111.543 45.940,109.500 47.077 M105.480 49.377 C 103.200 50.731,102.715 51.408,104.896 50.193 C 105.939 49.611,106.895 48.970,107.020 48.768 C 107.312 48.296,107.284 48.307,105.480 49.377 M287.309 49.200 C 287.869 49.640,288.457 50.000,288.617 50.000 C 288.777 50.000,288.450 49.640,287.891 49.200 C 287.331 48.760,286.743 48.400,286.583 48.400 C 286.423 48.400,286.750 48.760,287.309 49.200 M289.398 50.396 C 289.539 50.625,291.031 51.755,292.714 52.906 C 296.226 55.311,297.192 55.904,296.600 55.296 C 295.884 54.561,289.132 49.967,289.398 50.396 M100.457 52.776 C 99.278 53.628,98.108 54.554,97.857 54.832 C 97.355 55.389,101.443 52.591,102.386 51.733 C 103.458 50.757,102.625 51.208,100.457 52.776 M95.944 56.023 C 95.050 56.802,95.046 56.823,95.878 56.420 C 96.360 56.187,96.866 55.817,97.001 55.598 C 97.395 54.962,96.963 55.135,95.944 56.023 M92.600 58.394 C 91.500 59.268,89.970 60.428,89.200 60.973 C 88.430 61.517,86.360 63.337,84.600 65.016 C 81.291 68.175,82.321 67.397,89.232 61.519 C 91.119 59.913,93.189 58.205,93.832 57.722 C 94.474 57.239,94.910 56.835,94.800 56.824 C 94.690 56.813,93.700 57.519,92.600 58.394 M300.612 58.200 C 301.080 58.640,304.238 61.368,307.631 64.262 C 313.231 69.039,317.649 73.330,323.502 79.677 C 324.657 80.929,325.826 82.089,326.101 82.253 C 328.825 83.888,312.450 67.748,305.736 62.180 C 300.931 58.195,299.069 56.749,300.612 58.200 M78.070 70.763 C 76.601 72.282,73.799 75.297,71.842 77.463 L 68.284 81.400 71.600 78.000 C 78.121 71.313,81.231 68.000,80.987 68.000 C 80.851 68.000,79.538 69.243,78.070 70.763 M66.374 83.700 C 65.410 84.855,64.939 85.547,65.326 85.238 C 66.104 84.618,68.568 81.600,68.296 81.600 C 68.202 81.600,67.337 82.545,66.374 83.700 M329.787 87.183 C 330.795 88.493,331.818 89.687,332.059 89.837 C 332.301 89.986,331.560 88.914,330.413 87.454 C 329.266 85.994,328.243 84.800,328.140 84.800 C 328.037 84.800,328.778 85.872,329.787 87.183 M61.600 89.600 C 60.903 90.480,60.423 91.200,60.533 91.200 C 60.643 91.200,61.303 90.480,62.000 89.600 C 62.697 88.720,63.177 88.000,63.067 88.000 C 62.957 88.000,62.297 88.720,61.600 89.600 M334.012 92.722 C 334.966 94.108,335.936 95.360,336.167 95.503 C 336.641 95.796,333.792 91.729,332.872 90.800 C 332.545 90.470,333.058 91.335,334.012 92.722 M59.110 92.900 C 57.857 94.553,55.939 97.600,56.151 97.600 C 56.240 97.600,57.229 96.250,58.348 94.600 C 60.444 91.511,60.851 90.602,59.110 92.900 M55.100 99.014 C 54.101 100.350,54.231 100.723,55.246 99.433 C 55.711 98.842,56.026 98.295,55.946 98.218 C 55.866 98.141,55.485 98.500,55.100 99.014 M51.890 103.936 C 50.668 105.782,47.508 112.000,47.792 112.000 C 47.902 112.000,48.796 110.425,49.779 108.500 C 50.762 106.575,51.952 104.415,52.423 103.700 C 52.893 102.985,53.195 102.400,53.092 102.400 C 52.990 102.400,52.449 103.091,51.890 103.936 M343.200 107.200 C 343.866 108.520,344.502 109.600,344.612 109.600 C 344.722 109.600,344.266 108.520,343.600 107.200 C 342.934 105.880,342.298 104.800,342.188 104.800 C 342.078 104.800,342.534 105.880,343.200 107.200 M46.678 113.805 C 46.312 114.572,46.095 115.200,46.196 115.200 C 46.470 115.200,47.684 112.751,47.501 112.568 C 47.414 112.481,47.044 113.038,46.678 113.805 M42.465 122.617 C 41.795 124.088,41.923 124.402,42.647 123.065 C 42.986 122.440,43.188 121.854,43.096 121.763 C 43.005 121.671,42.721 122.056,42.465 122.617 M41.515 125.010 C 41.392 125.445,41.169 126.160,41.020 126.600 C 40.871 127.040,41.042 126.894,41.400 126.276 C 41.758 125.658,41.981 124.942,41.895 124.686 C 41.810 124.430,41.639 124.576,41.515 125.010 M352.012 125.852 C 352.001 126.251,352.969 128.639,354.341 131.600 L 354.804 132.600 354.558 131.600 C 354.225 130.247,352.027 125.285,352.012 125.852 M39.665 129.817 C 39.409 130.378,39.207 131.054,39.216 131.319 C 39.224 131.583,39.497 131.188,39.822 130.439 C 40.505 128.865,40.361 128.290,39.665 129.817 M354.848 133.200 C 354.842 133.530,355.083 134.340,355.386 135.000 C 356.093 136.545,356.103 135.826,355.400 134.000 C 355.103 133.230,354.855 132.870,354.848 133.200 M38.046 134.439 C 37.801 135.143,37.613 135.918,37.628 136.160 C 37.644 136.402,37.914 135.896,38.230 135.035 C 38.545 134.174,38.733 133.400,38.648 133.315 C 38.562 133.229,38.292 133.735,38.046 134.439 M36.629 139.429 C 36.481 140.015,36.438 140.572,36.532 140.666 C 36.627 140.760,36.824 140.358,36.971 139.771 C 37.119 139.185,37.162 138.628,37.068 138.534 C 36.973 138.440,36.776 138.842,36.629 139.429 M356.406 139.033 C 356.409 139.455,356.595 140.070,356.818 140.400 C 357.115 140.838,357.152 140.676,356.956 139.800 C 356.627 138.329,356.398 138.010,356.406 139.033 M359.256 148.800 C 359.256 149.130,359.411 149.760,359.600 150.200 C 359.817 150.704,359.944 150.778,359.944 150.400 C 359.944 150.070,359.789 149.440,359.600 149.000 C 359.383 148.496,359.256 148.422,359.256 148.800 M33.293 153.200 C 33.293 153.970,33.375 154.285,33.476 153.900 C 33.576 153.515,33.576 152.885,33.476 152.500 C 33.375 152.115,33.293 152.430,33.293 153.200 M360.493 156.000 C 360.493 156.770,360.575 157.085,360.676 156.700 C 360.776 156.315,360.776 155.685,360.676 155.300 C 360.575 154.915,360.493 155.230,360.493 156.000 M32.650 157.250 C 32.317 158.917,32.640 159.240,33.000 157.600 C 33.152 156.909,33.193 156.259,33.091 156.158 C 32.989 156.056,32.791 156.547,32.650 157.250 M360.868 158.200 C 360.862 158.640,361.011 159.360,361.200 159.800 C 361.638 160.819,361.638 159.768,361.200 158.400 C 360.943 157.596,360.877 157.557,360.868 158.200 M361.709 162.800 C 361.709 163.790,361.787 164.195,361.882 163.700 C 361.978 163.205,361.978 162.395,361.882 161.900 C 361.787 161.405,361.709 161.810,361.709 162.800 M31.693 164.000 C 31.693 164.770,31.775 165.085,31.876 164.700 C 31.976 164.315,31.976 163.685,31.876 163.300 C 31.775 162.915,31.693 163.230,31.693 164.000 M362.331 170.600 C 362.672 177.700,362.672 183.852,362.331 191.200 C 362.093 196.331,362.108 196.585,362.468 193.400 C 362.983 188.843,362.974 171.965,362.455 168.000 C 362.136 165.564,362.113 166.053,362.331 170.600 M31.036 170.738 C 30.875 173.674,30.827 176.161,30.930 176.263 C 31.183 176.516,31.739 166.616,31.510 165.938 C 31.410 165.642,31.197 167.802,31.036 170.738 M30.524 181.000 C 30.526 182.320,30.601 182.812,30.690 182.093 C 30.779 181.374,30.777 180.294,30.686 179.693 C 30.595 179.092,30.522 179.680,30.524 181.000 M30.937 187.800 C 30.939 189.560,31.009 190.230,31.093 189.289 C 31.178 188.349,31.177 186.909,31.091 186.089 C 31.005 185.270,30.936 186.040,30.937 187.800 M31.324 193.400 C 31.326 194.720,31.401 195.212,31.490 194.493 C 31.579 193.774,31.577 192.694,31.486 192.093 C 31.395 191.492,31.322 192.080,31.324 193.400 M31.714 198.200 C 31.717 199.300,31.795 199.703,31.887 199.095 C 31.979 198.486,31.977 197.586,31.882 197.095 C 31.787 196.603,31.711 197.100,31.714 198.200 M361.701 199.800 C 361.705 200.680,361.787 200.993,361.883 200.495 C 361.979 199.998,361.975 199.278,361.875 198.895 C 361.775 198.513,361.696 198.920,361.701 199.800 M32.043 201.800 C 32.038 202.020,32.292 203.280,32.606 204.600 C 33.161 206.927,33.171 206.941,32.957 205.047 C 32.757 203.286,32.062 200.818,32.043 201.800 M361.019 202.695 C 360.872 203.077,360.681 204.562,360.595 205.995 L 360.438 208.600 360.771 206.400 C 360.954 205.190,361.234 203.705,361.395 203.100 C 361.716 201.888,361.442 201.593,361.019 202.695 M33.650 211.000 C 33.631 211.220,33.866 212.300,34.172 213.400 C 34.478 214.500,34.731 215.040,34.733 214.600 C 34.739 213.748,33.708 210.323,33.650 211.000 M359.456 211.684 C 359.321 212.188,359.228 213.050,359.249 213.600 C 359.272 214.189,359.431 213.871,359.636 212.825 C 360.003 210.952,359.873 210.127,359.456 211.684 M36.018 220.450 C 36.008 220.807,36.283 221.887,36.628 222.850 C 36.974 223.812,37.404 225.320,37.584 226.200 C 37.805 227.275,37.925 227.472,37.951 226.800 C 37.972 226.250,37.550 224.450,37.013 222.800 C 36.475 221.150,36.028 220.092,36.018 220.450 M38.028 228.200 C 38.028 228.420,38.286 229.050,38.600 229.600 C 38.914 230.150,39.172 230.420,39.172 230.200 C 39.172 229.980,38.914 229.350,38.600 228.800 C 38.286 228.250,38.028 227.980,38.028 228.200 M39.228 231.000 C 39.228 231.220,39.486 231.850,39.800 232.400 C 40.114 232.950,40.372 233.220,40.372 233.000 C 40.372 232.780,40.114 232.150,39.800 231.600 C 39.486 231.050,39.228 230.780,39.228 231.000 M352.465 235.417 C 352.209 235.978,352.007 236.654,352.016 236.919 C 352.024 237.183,352.297 236.788,352.622 236.039 C 353.305 234.465,353.161 233.890,352.465 235.417 M40.828 235.800 C 40.828 236.020,41.086 236.650,41.400 237.200 C 41.714 237.750,41.972 238.020,41.972 237.800 C 41.972 237.580,41.714 236.950,41.400 236.400 C 41.086 235.850,40.828 235.580,40.828 235.800 M351.300 238.900 C 350.870 240.075,350.880 240.126,351.412 239.424 C 351.921 238.752,352.221 237.600,351.888 237.600 C 351.826 237.600,351.561 238.185,351.300 238.900 M42.028 238.600 C 42.028 238.820,42.286 239.450,42.600 240.000 C 42.914 240.550,43.172 240.820,43.172 240.600 C 43.172 240.380,42.914 239.750,42.600 239.200 C 42.286 238.650,42.028 238.380,42.028 238.600 M348.279 245.574 C 347.906 246.206,347.601 246.876,347.601 247.062 C 347.602 247.248,347.972 246.795,348.423 246.055 C 348.874 245.315,349.179 244.646,349.101 244.567 C 349.022 244.489,348.652 244.942,348.279 245.574 M46.678 248.595 C 47.044 249.362,47.414 249.919,47.501 249.832 C 47.684 249.649,46.470 247.200,46.196 247.200 C 46.095 247.200,46.312 247.828,46.678 248.595 M48.278 251.795 C 48.644 252.562,49.014 253.119,49.101 253.032 C 49.284 252.849,48.070 250.400,47.796 250.400 C 47.695 250.400,47.912 251.028,48.278 251.795 M50.783 256.767 C 51.694 258.553,53.968 262.000,54.234 262.000 C 54.332 262.000,53.961 261.325,53.409 260.500 C 52.858 259.675,51.952 258.145,51.397 257.100 C 50.841 256.055,50.296 255.200,50.185 255.200 C 50.074 255.200,50.344 255.905,50.783 256.767 M342.887 256.098 C 342.643 256.594,342.056 257.585,341.582 258.300 C 341.109 259.015,340.810 259.600,340.919 259.600 C 341.245 259.600,343.718 255.585,343.516 255.383 C 343.414 255.281,343.130 255.602,342.887 256.098 M339.293 261.900 C 338.257 263.396,337.921 264.000,338.123 264.000 C 338.217 264.000,338.770 263.280,339.353 262.400 C 340.536 260.612,340.484 260.179,339.293 261.900 M56.189 265.200 C 58.129 268.267,59.010 269.330,57.917 267.284 C 57.413 266.340,56.504 264.990,55.899 264.284 C 54.987 263.221,55.037 263.379,56.189 265.200 M335.330 267.900 C 334.952 268.505,333.813 270.080,332.800 271.400 C 330.990 273.758,329.705 275.743,330.870 274.381 C 333.052 271.829,336.600 266.800,336.218 266.800 C 336.108 266.800,335.709 267.295,335.330 267.900 M61.200 272.400 C 61.897 273.280,62.557 274.000,62.667 274.000 C 62.777 274.000,62.297 273.280,61.600 272.400 C 60.903 271.520,60.243 270.800,60.133 270.800 C 60.023 270.800,60.503 271.520,61.200 272.400 M329.032 276.313 L 328.264 277.400 329.332 276.430 C 330.454 275.411,330.593 275.192,330.100 275.213 C 329.935 275.219,329.454 275.714,329.032 276.313 M66.152 278.645 C 67.186 279.990,68.505 281.520,69.083 282.045 C 69.661 282.570,69.091 281.740,67.817 280.200 C 64.716 276.451,63.825 275.620,66.152 278.645 M324.981 281.300 L 323.400 283.000 325.100 281.419 C 326.035 280.549,326.800 279.784,326.800 279.719 C 326.800 279.416,326.452 279.719,324.981 281.300 M75.800 289.200 C 79.094 292.500,81.880 295.200,81.990 295.200 C 82.100 295.200,79.494 292.500,76.200 289.200 C 72.906 285.900,70.120 283.200,70.010 283.200 C 69.900 283.200,72.506 285.900,75.800 289.200 M323.000 283.518 C 322.780 283.687,321.610 284.899,320.401 286.212 L 318.201 288.600 320.901 286.012 C 322.385 284.588,323.600 283.373,323.600 283.312 C 323.600 283.132,323.427 283.192,323.000 283.518 M315.588 291.500 L 313.000 294.200 315.700 291.612 C 317.185 290.188,318.400 288.973,318.400 288.912 C 318.400 288.617,317.993 288.992,315.588 291.500 M310.572 295.700 C 309.517 296.635,307.832 298.192,306.827 299.160 L 305.000 300.919 306.800 299.422 C 309.980 296.778,313.007 294.022,312.745 294.011 C 312.605 294.005,311.627 294.765,310.572 295.700 M82.516 295.464 C 82.674 295.719,83.747 296.703,84.901 297.650 C 86.056 298.598,86.640 298.955,86.200 298.443 C 85.252 297.340,82.102 294.793,82.516 295.464 M88.000 300.168 C 88.550 300.785,90.080 302.095,91.400 303.080 C 93.822 304.888,93.230 304.303,89.200 300.903 C 87.990 299.882,87.450 299.552,88.000 300.168 M303.416 301.797 C 302.764 302.329,302.314 302.840,302.416 302.932 C 302.517 303.024,303.140 302.582,303.800 301.950 C 305.257 300.555,305.041 300.469,303.416 301.797 M296.600 306.853 C 294.400 308.388,292.420 309.841,292.200 310.081 C 291.980 310.322,293.735 309.214,296.101 307.620 C 298.466 306.026,300.502 304.559,300.624 304.361 C 300.962 303.815,300.891 303.858,296.600 306.853 M96.509 306.653 C 96.645 306.873,97.878 307.840,99.248 308.801 C 100.618 309.762,101.627 310.368,101.491 310.147 C 101.355 309.927,100.122 308.960,98.752 307.999 C 97.382 307.038,96.373 306.432,96.509 306.653 M102.174 310.758 C 102.323 310.999,102.816 311.395,103.271 311.638 C 103.862 311.954,104.020 311.956,103.826 311.642 C 103.677 311.401,103.184 311.005,102.729 310.762 C 102.138 310.446,101.980 310.444,102.174 310.758 M285.944 314.024 L 285.000 314.847 286.200 314.145 C 287.779 313.220,287.803 313.200,287.311 313.200 C 287.079 313.200,286.464 313.571,285.944 314.024 M107.600 314.111 C 108.319 314.787,113.174 317.469,112.600 316.873 C 112.380 316.645,111.030 315.803,109.600 315.002 C 108.170 314.202,107.270 313.800,107.600 314.111 M280.877 316.794 C 279.490 317.629,278.230 318.444,278.077 318.604 C 277.665 319.038,281.612 316.969,283.000 316.023 C 285.010 314.653,283.560 315.180,280.877 316.794 M115.753 318.821 C 117.267 319.704,118.567 320.366,118.641 320.292 C 118.809 320.125,113.757 317.197,113.318 317.207 C 113.143 317.211,114.239 317.937,115.753 318.821 M276.089 319.465 C 275.368 319.820,274.856 320.189,274.952 320.285 C 275.148 320.482,277.600 319.283,277.600 318.990 C 277.600 318.726,277.563 318.738,276.089 319.465 M120.400 321.200 C 121.170 321.622,121.980 321.966,122.200 321.966 C 122.420 321.966,121.970 321.622,121.200 321.200 C 120.430 320.778,119.620 320.434,119.400 320.434 C 119.180 320.434,119.630 320.778,120.400 321.200 M270.000 322.400 C 269.230 322.822,268.780 323.166,269.000 323.166 C 269.220 323.166,270.030 322.822,270.800 322.400 C 271.570 321.978,272.020 321.634,271.800 321.634 C 271.580 321.634,270.770 321.978,270.000 322.400 M125.200 323.400 C 126.630 324.149,127.980 324.761,128.200 324.761 C 128.420 324.761,127.430 324.149,126.000 323.400 C 124.570 322.651,123.220 322.039,123.000 322.039 C 122.780 322.039,123.770 322.651,125.200 323.400 M264.400 325.000 C 263.410 325.530,262.780 325.964,263.000 325.964 C 263.220 325.964,264.210 325.530,265.200 325.000 C 266.190 324.470,266.820 324.036,266.600 324.036 C 266.380 324.036,265.390 324.470,264.400 325.000 M132.600 326.612 C 134.604 327.334,134.878 327.330,133.600 326.600 C 133.050 326.286,132.240 326.030,131.800 326.032 C 131.360 326.034,131.720 326.295,132.600 326.612 M259.400 327.014 C 258.740 327.317,258.470 327.566,258.800 327.568 C 259.130 327.570,259.850 327.314,260.400 327.000 C 261.665 326.277,260.989 326.287,259.400 327.014 M137.200 328.262 C 138.969 329.060,144.740 331.204,145.800 331.458 C 146.767 331.690,144.162 330.565,139.773 328.856 C 136.408 327.546,134.775 327.169,137.200 328.262 M255.800 328.214 C 255.140 328.517,254.870 328.764,255.200 328.764 C 255.530 328.764,256.340 328.517,257.000 328.214 C 257.660 327.912,257.930 327.665,257.600 327.665 C 257.270 327.665,256.460 327.912,255.800 328.214 M252.400 329.400 C 251.094 330.147,251.551 330.155,253.254 329.416 C 253.994 329.094,254.330 328.831,254.000 328.830 C 253.670 328.829,252.950 329.086,252.400 329.400 M247.800 331.014 C 247.140 331.317,246.870 331.566,247.200 331.568 C 247.530 331.570,248.250 331.314,248.800 331.000 C 250.065 330.277,249.389 330.287,247.800 331.014 M148.800 332.221 C 149.790 332.533,150.780 332.777,151.000 332.763 C 151.700 332.721,148.634 331.661,147.800 331.657 C 147.360 331.655,147.810 331.909,148.800 332.221 M243.400 332.211 C 242.520 332.501,242.070 332.750,242.400 332.763 C 242.730 332.777,243.810 332.533,244.800 332.221 C 245.790 331.909,246.240 331.660,245.800 331.669 C 245.360 331.677,244.280 331.921,243.400 332.211 M238.200 333.600 C 237.696 333.817,237.622 333.944,238.000 333.944 C 238.330 333.944,238.960 333.789,239.400 333.600 C 239.904 333.383,239.978 333.256,239.600 333.256 C 239.270 333.256,238.640 333.411,238.200 333.600 M160.082 334.967 C 160.897 335.285,162.427 335.643,163.482 335.762 L 165.400 335.978 163.200 335.443 C 158.910 334.401,158.456 334.332,160.082 334.967 M166.200 336.174 C 166.853 336.465,175.678 337.656,175.856 337.477 C 176.044 337.289,171.265 336.516,168.000 336.205 C 166.790 336.090,165.980 336.076,166.200 336.174 M221.000 336.809 C 218.580 337.198,217.140 337.526,217.800 337.538 C 218.460 337.550,221.160 337.225,223.800 336.816 C 226.440 336.407,227.880 336.079,227.000 336.087 C 226.120 336.094,223.420 336.419,221.000 336.809 M177.705 337.887 C 178.314 337.979,179.214 337.977,179.705 337.882 C 180.197 337.787,179.700 337.711,178.600 337.714 C 177.500 337.717,177.097 337.795,177.705 337.887 M205.600 338.233 L 197.800 338.732 205.200 338.520 C 209.270 338.403,213.410 338.171,214.400 338.004 C 216.950 337.574,215.213 337.619,205.600 338.233 M182.300 338.293 C 183.235 338.377,184.765 338.377,185.700 338.293 C 186.635 338.209,185.870 338.140,184.000 338.140 C 182.130 338.140,181.365 338.209,182.300 338.293 M189.700 338.694 C 190.745 338.776,192.455 338.776,193.500 338.694 C 194.545 338.612,193.690 338.544,191.600 338.544 C 189.510 338.544,188.655 338.612,189.700 338.694 " stroke="none" fill="#ac876f" fill-rule="evenodd"></path><path id="path3" d="M185.600 24.443 C 181.970 24.621,177.238 25.044,175.084 25.384 C 172.930 25.723,170.537 26.000,169.766 26.000 C 168.995 26.000,167.247 26.253,165.882 26.561 C 164.517 26.870,162.410 27.325,161.200 27.572 C 159.990 27.820,158.460 28.179,157.800 28.370 L 156.600 28.718 158.000 28.745 C 158.770 28.760,159.850 28.514,160.400 28.200 C 160.950 27.886,162.006 27.622,162.747 27.614 C 163.488 27.606,165.558 27.333,167.347 27.007 C 180.028 24.696,207.558 23.897,216.200 25.588 C 217.300 25.804,220.360 26.266,223.000 26.617 C 230.886 27.663,232.532 27.926,233.997 28.373 C 235.938 28.966,236.806 28.903,235.572 28.259 C 235.007 27.964,233.567 27.599,232.372 27.448 C 231.177 27.297,228.760 26.923,227.000 26.616 C 213.643 24.292,201.592 23.659,185.600 24.443 M153.897 29.233 C 153.511 29.458,152.431 29.793,151.497 29.977 L 149.800 30.312 151.411 30.356 C 152.297 30.380,153.377 30.152,153.811 29.848 C 154.245 29.545,154.960 29.205,155.400 29.094 L 156.200 28.893 155.400 28.859 C 154.960 28.840,154.284 29.008,153.897 29.233 M238.793 29.096 C 239.119 29.224,239.627 29.570,239.921 29.864 C 240.234 30.177,241.236 30.379,242.329 30.350 L 244.200 30.300 242.600 30.028 C 241.720 29.879,240.607 29.541,240.126 29.278 C 239.646 29.015,239.016 28.814,238.726 28.832 C 238.353 28.854,238.373 28.931,238.793 29.096 M145.800 31.575 C 144.040 32.191,140.084 33.542,137.009 34.579 C 133.934 35.615,130.424 36.914,129.209 37.465 C 124.217 39.729,120.641 41.592,121.279 41.596 C 121.652 41.598,123.032 40.970,124.346 40.200 C 125.660 39.430,127.180 38.800,127.725 38.800 C 128.269 38.800,128.818 38.530,128.945 38.200 C 129.071 37.870,129.496 37.594,129.887 37.586 C 130.279 37.579,131.320 37.225,132.200 36.800 C 133.080 36.375,134.024 36.021,134.298 36.014 C 135.256 35.987,143.704 32.986,144.600 32.354 C 144.820 32.199,145.720 31.940,146.600 31.779 C 147.480 31.618,148.555 31.242,148.989 30.943 C 150.115 30.168,149.438 30.302,145.800 31.575 M244.800 31.000 C 245.074 31.330,245.591 31.608,245.949 31.618 C 246.307 31.627,247.320 31.909,248.200 32.245 C 249.080 32.580,250.340 33.006,251.000 33.192 C 252.863 33.716,254.846 34.441,256.644 35.256 C 257.548 35.665,258.718 36.001,259.244 36.003 C 259.770 36.004,260.740 36.363,261.400 36.800 C 262.060 37.237,262.983 37.596,263.451 37.597 C 263.919 37.599,264.526 37.870,264.800 38.200 C 265.074 38.530,265.570 38.800,265.903 38.800 C 266.235 38.800,268.688 39.887,271.354 41.214 C 276.417 43.737,277.105 44.109,278.884 45.284 C 279.480 45.678,280.186 46.000,280.452 46.000 C 280.719 46.000,281.221 46.253,281.569 46.562 C 281.916 46.871,283.640 47.891,285.400 48.829 C 288.616 50.543,289.650 51.232,294.800 55.100 C 296.338 56.255,297.695 57.200,297.815 57.200 C 298.092 57.200,300.460 58.861,300.995 59.431 C 301.218 59.668,302.210 60.471,303.200 61.217 C 305.233 62.747,306.098 63.492,308.597 65.860 C 309.560 66.773,311.021 68.033,311.844 68.660 C 313.455 69.889,320.504 77.077,325.600 82.689 C 325.930 83.053,327.587 85.161,329.283 87.375 C 330.978 89.589,332.643 91.685,332.983 92.034 C 333.322 92.382,333.600 92.795,333.600 92.951 C 333.600 93.107,334.043 93.713,334.584 94.296 C 335.125 94.880,335.777 95.862,336.033 96.479 C 336.288 97.095,336.653 97.600,336.843 97.600 C 337.034 97.600,337.468 98.185,337.809 98.900 C 338.460 100.266,339.124 101.409,340.420 103.400 C 340.850 104.060,341.699 105.590,342.306 106.800 C 342.914 108.010,343.724 109.445,344.106 109.989 C 344.488 110.533,344.800 111.199,344.800 111.469 C 344.800 112.132,347.232 115.701,347.501 115.433 C 347.618 115.315,347.499 114.961,347.237 114.645 C 346.975 114.328,345.667 111.939,344.330 109.335 C 342.994 106.731,341.653 104.316,341.351 103.969 C 341.048 103.621,340.800 103.214,340.800 103.064 C 340.800 102.914,340.170 101.895,339.400 100.800 C 338.630 99.705,338.000 98.654,338.000 98.466 C 338.000 98.278,337.640 97.798,337.200 97.400 C 336.760 97.002,336.400 96.535,336.400 96.364 C 336.400 96.008,333.027 91.318,329.207 86.363 C 321.458 76.311,305.640 61.541,295.000 54.424 C 292.580 52.806,290.284 51.209,289.897 50.876 C 289.166 50.247,288.105 49.588,286.400 48.704 C 285.492 48.234,280.171 45.270,278.203 44.138 C 274.960 42.273,265.497 37.815,261.800 36.411 C 257.481 34.770,256.639 34.473,253.400 33.449 C 251.640 32.892,248.940 31.982,247.400 31.427 C 244.076 30.228,244.172 30.244,244.800 31.000 M117.800 42.842 C 116.700 43.481,115.530 44.129,115.200 44.281 C 114.870 44.433,113.101 45.422,111.268 46.479 C 109.436 47.535,107.844 48.400,107.732 48.400 C 107.619 48.400,107.069 48.760,106.509 49.200 C 105.791 49.765,105.678 50.000,106.122 50.000 C 106.469 50.000,106.870 49.810,107.013 49.579 C 107.157 49.347,108.382 48.619,109.737 47.961 C 112.410 46.662,113.864 45.870,114.800 45.200 C 115.660 44.585,117.202 43.715,118.673 43.017 C 119.881 42.443,120.817 41.555,120.124 41.640 C 119.946 41.662,118.900 42.202,117.800 42.842 M101.960 52.120 C 100.332 53.285,97.470 55.297,95.600 56.589 C 93.730 57.882,90.830 60.123,89.156 61.570 C 87.483 63.016,84.693 65.370,82.959 66.800 C 81.224 68.230,78.633 70.652,77.202 72.181 C 75.771 73.711,73.237 76.411,71.571 78.181 C 69.905 79.952,68.105 81.956,67.571 82.635 C 67.037 83.314,65.235 85.564,63.567 87.635 C 60.505 91.436,56.000 97.764,56.000 98.266 C 56.000 98.415,55.695 98.874,55.322 99.286 C 54.704 99.970,54.702 100.012,55.307 99.780 C 55.671 99.640,56.084 99.165,56.224 98.724 C 56.364 98.282,56.776 97.601,57.139 97.210 C 57.503 96.818,58.785 95.081,59.989 93.349 C 61.193 91.617,62.408 90.056,62.689 89.880 C 62.970 89.704,63.203 89.344,63.207 89.080 C 63.211 88.816,64.246 87.410,65.507 85.956 C 69.417 81.447,70.400 80.233,70.400 79.911 C 70.400 79.740,70.670 79.600,71.000 79.600 C 71.330 79.600,71.600 79.452,71.600 79.272 C 71.600 79.091,73.175 77.264,75.100 75.212 C 77.025 73.160,78.808 71.193,79.063 70.840 C 79.318 70.488,80.533 69.480,81.764 68.600 C 82.995 67.720,84.104 66.685,84.228 66.300 C 84.352 65.915,84.714 65.600,85.032 65.600 C 85.350 65.600,86.506 64.700,87.600 63.600 C 88.694 62.500,89.732 61.600,89.905 61.600 C 90.079 61.600,90.937 60.886,91.811 60.013 C 92.685 59.140,93.696 58.420,94.057 58.413 C 94.419 58.406,94.818 58.130,94.945 57.800 C 95.071 57.470,95.423 57.200,95.725 57.200 C 96.028 57.200,96.602 56.840,97.000 56.400 C 97.398 55.960,97.899 55.600,98.114 55.600 C 98.451 55.600,100.370 54.083,102.434 52.183 C 102.782 51.862,103.361 51.600,103.719 51.600 C 104.078 51.600,104.565 51.240,104.800 50.800 C 105.396 49.686,105.288 49.736,101.960 52.120 M52.947 102.916 C 51.325 105.405,43.544 120.342,43.102 121.816 C 42.973 122.247,42.478 123.590,42.003 124.800 C 39.753 130.524,37.874 136.098,36.762 140.346 C 36.092 142.906,35.174 146.350,34.723 148.000 C 33.601 152.100,33.397 153.950,34.369 151.200 C 34.797 149.990,35.159 148.586,35.174 148.080 C 35.188 147.574,35.453 146.672,35.761 146.075 C 36.070 145.478,36.454 144.110,36.616 143.036 C 36.777 141.961,37.153 140.614,37.452 140.041 C 37.751 139.469,37.996 138.712,37.998 138.360 C 38.001 137.509,40.693 129.271,41.384 128.000 C 41.682 127.450,42.052 126.331,42.205 125.514 C 42.358 124.697,42.735 123.820,43.042 123.565 C 43.349 123.310,43.600 122.597,43.600 121.980 C 43.600 121.362,43.833 120.619,44.118 120.329 C 44.403 120.038,45.486 118.090,46.524 116.000 C 47.562 113.910,48.575 111.930,48.777 111.600 C 48.978 111.270,49.244 110.730,49.369 110.400 C 49.493 110.070,49.776 109.530,49.998 109.200 C 50.219 108.870,50.583 108.150,50.806 107.600 C 51.029 107.050,51.567 106.060,52.002 105.400 C 52.436 104.740,52.916 103.930,53.069 103.600 C 53.221 103.270,53.705 102.507,54.145 101.905 C 54.584 101.303,54.858 100.725,54.755 100.621 C 54.651 100.518,53.837 101.550,52.947 102.916 M347.600 116.462 C 347.600 116.814,347.870 117.326,348.200 117.600 C 348.530 117.874,348.800 118.396,348.800 118.760 C 348.800 119.124,349.047 119.777,349.349 120.211 C 349.651 120.645,350.034 121.630,350.200 122.400 C 350.366 123.170,350.749 124.155,351.051 124.589 C 351.353 125.023,351.601 125.833,351.603 126.389 C 351.604 126.945,351.963 127.940,352.400 128.600 C 352.837 129.260,353.196 130.132,353.197 130.538 C 353.199 130.944,353.456 131.754,353.768 132.338 C 354.475 133.659,355.552 136.882,355.995 139.000 C 356.179 139.880,356.608 141.320,356.947 142.200 C 357.287 143.080,357.573 144.194,357.582 144.676 C 357.592 145.158,357.780 145.664,358.000 145.800 C 358.220 145.936,358.414 146.442,358.432 146.924 C 358.449 147.406,358.554 147.576,358.664 147.302 C 358.775 147.028,358.311 145.081,357.633 142.975 C 356.955 140.870,356.400 138.894,356.400 138.584 C 356.400 137.792,353.642 129.686,352.798 128.000 C 352.413 127.230,351.962 125.970,351.796 125.200 C 351.190 122.391,347.600 114.915,347.600 116.462 M358.827 148.836 C 358.812 149.406,359.068 150.756,359.396 151.836 C 359.723 152.916,360.001 154.610,360.013 155.600 C 360.025 156.590,360.219 158.210,360.443 159.200 C 360.668 160.190,360.998 161.720,361.176 162.600 L 361.500 164.200 361.550 162.526 C 361.577 161.605,361.419 160.377,361.198 159.796 C 360.977 159.215,360.612 157.088,360.387 155.070 C 359.955 151.205,358.877 146.897,358.827 148.836 M33.126 156.000 C 31.948 164.269,31.634 167.112,31.197 173.510 C 30.923 177.530,30.814 182.480,30.956 184.510 C 31.098 186.539,31.395 190.900,31.616 194.200 C 31.838 197.500,32.282 201.460,32.602 203.000 C 32.923 204.540,33.252 206.340,33.333 207.000 C 33.419 207.706,33.505 207.364,33.540 206.171 C 33.573 205.055,33.347 203.345,33.037 202.371 C 31.117 196.331,31.123 169.138,33.046 160.157 C 33.381 158.593,33.594 156.613,33.519 155.757 L 33.383 154.200 33.126 156.000 M361.889 172.200 C 362.168 181.114,362.169 180.896,361.840 191.200 C 361.710 195.270,361.676 198.420,361.764 198.200 C 362.473 196.435,362.799 178.375,362.245 171.600 L 361.639 164.200 361.889 172.200 M360.693 201.800 C 360.304 203.560,360.014 205.990,360.047 207.200 C 360.108 209.384,360.111 209.378,360.415 206.477 C 360.584 204.869,360.933 203.046,361.190 202.424 C 361.447 201.803,361.600 200.689,361.529 199.947 C 361.425 198.859,361.264 199.214,360.693 201.800 M33.744 210.000 C 34.343 213.292,35.301 217.054,35.624 217.380 C 35.831 217.589,36.000 218.167,36.000 218.665 C 36.000 219.162,36.448 220.971,36.995 222.685 C 37.542 224.398,37.992 226.188,37.995 226.663 C 37.998 227.137,38.519 228.683,39.154 230.097 C 39.788 231.511,40.434 233.244,40.588 233.947 C 40.986 235.756,43.577 241.553,43.590 240.662 C 43.595 240.256,43.332 239.446,43.005 238.862 C 42.368 237.723,41.341 234.953,40.833 233.000 C 40.661 232.340,40.126 230.939,39.644 229.887 C 39.162 228.834,38.578 226.944,38.346 225.687 C 38.114 224.429,37.684 222.822,37.389 222.115 C 37.095 221.409,36.730 219.969,36.578 218.915 C 36.426 217.862,36.077 216.730,35.803 216.400 C 35.528 216.070,35.185 214.864,35.041 213.719 C 34.896 212.575,34.504 211.045,34.170 210.319 C 33.688 209.273,33.600 209.207,33.744 210.000 M359.052 210.500 C 358.919 210.995,358.808 212.183,358.805 213.140 C 358.802 214.096,358.536 215.446,358.214 216.140 C 357.892 216.833,357.450 218.120,357.232 219.000 C 356.240 223.008,355.601 225.215,354.626 228.000 C 354.049 229.650,353.381 231.629,353.142 232.398 C 352.904 233.167,352.459 234.152,352.154 234.587 C 351.849 235.022,351.594 235.743,351.586 236.189 C 351.579 236.635,351.225 237.720,350.800 238.600 C 350.375 239.480,350.021 240.427,350.014 240.705 C 350.006 240.983,349.834 241.523,349.632 241.905 C 348.422 244.191,347.586 246.120,347.740 246.274 C 347.943 246.477,349.863 242.460,351.121 239.200 C 354.709 229.899,355.134 228.640,357.068 221.600 C 357.400 220.390,357.939 218.640,358.265 217.711 C 358.591 216.782,359.017 214.982,359.212 213.711 C 359.406 212.440,359.684 210.995,359.829 210.500 C 359.979 209.991,359.920 209.600,359.693 209.600 C 359.473 209.600,359.185 210.005,359.052 210.500 M43.600 242.066 C 43.600 242.382,43.771 242.811,43.981 243.021 C 44.191 243.231,46.006 246.642,48.016 250.601 C 51.400 257.268,53.361 260.690,55.234 263.200 C 55.645 263.750,56.648 265.280,57.464 266.600 C 58.923 268.960,62.058 273.246,64.339 276.000 C 69.968 282.795,72.254 285.308,77.079 290.000 C 84.755 297.465,91.137 302.861,97.060 306.893 C 98.787 308.068,101.127 309.687,102.261 310.491 C 104.384 311.995,110.223 315.448,114.800 317.905 C 116.230 318.673,117.580 319.437,117.800 319.602 C 118.020 319.768,119.550 320.489,121.200 321.206 C 122.850 321.922,125.795 323.294,127.743 324.254 C 129.692 325.214,131.489 326.000,131.736 326.000 C 131.983 326.000,133.088 326.351,134.192 326.781 C 142.177 329.885,146.372 331.364,149.000 332.000 C 150.100 332.266,151.990 332.722,153.200 333.012 C 154.410 333.303,156.570 333.825,158.000 334.173 C 186.085 341.013,224.006 339.392,250.000 330.241 C 251.650 329.660,255.090 328.471,257.644 327.598 C 263.541 325.582,275.251 320.174,280.733 316.933 C 282.346 315.980,283.796 315.200,283.955 315.200 C 284.114 315.200,284.855 314.750,285.600 314.200 C 286.345 313.650,286.835 313.200,286.688 313.200 C 286.267 313.200,281.071 316.036,280.369 316.649 C 280.021 316.952,279.434 317.200,279.065 317.200 C 278.695 317.200,278.084 317.560,277.707 318.000 C 277.330 318.440,276.831 318.800,276.597 318.800 C 276.363 318.800,274.288 319.720,271.986 320.843 C 269.684 321.967,267.080 323.213,266.200 323.611 C 265.320 324.010,263.778 324.711,262.774 325.168 C 261.769 325.626,260.576 326.000,260.123 326.000 C 259.669 326.000,259.074 326.270,258.800 326.600 C 258.526 326.930,257.986 327.200,257.600 327.200 C 257.214 327.200,254.581 328.028,251.749 329.040 C 248.917 330.052,245.520 331.101,244.200 331.372 C 242.880 331.643,241.440 332.051,241.000 332.278 C 240.560 332.505,239.390 332.814,238.400 332.965 C 237.410 333.116,235.790 333.493,234.800 333.802 C 230.941 335.009,223.598 336.120,215.000 336.800 C 212.140 337.026,207.720 337.404,205.177 337.639 C 199.389 338.174,193.045 338.171,189.400 337.631 C 187.860 337.403,185.070 337.204,183.200 337.190 C 181.330 337.176,178.540 336.998,177.000 336.794 C 163.916 335.059,162.546 334.810,154.235 332.648 C 151.174 331.851,148.170 331.200,147.558 331.200 C 146.947 331.200,146.352 331.046,146.236 330.858 C 146.120 330.670,144.624 330.027,142.912 329.429 C 141.201 328.830,139.322 328.084,138.738 327.771 C 138.154 327.457,137.339 327.200,136.927 327.200 C 136.515 327.200,135.823 326.957,135.389 326.661 C 134.955 326.364,133.974 326.000,133.210 325.853 C 132.445 325.705,131.005 325.204,130.010 324.739 C 119.678 319.915,117.375 318.781,114.600 317.154 C 113.500 316.510,111.700 315.533,110.600 314.985 C 109.500 314.436,108.060 313.632,107.400 313.198 C 106.740 312.764,105.752 312.182,105.205 311.904 C 104.659 311.627,103.939 311.163,103.605 310.873 C 102.386 309.812,97.751 306.509,96.000 305.454 C 93.598 304.006,92.290 302.997,89.630 300.537 C 88.404 299.403,86.230 297.555,84.800 296.431 C 81.455 293.802,72.523 284.951,69.188 280.960 C 67.764 279.257,66.195 277.469,65.700 276.986 C 65.205 276.503,64.800 275.947,64.800 275.750 C 64.800 275.553,64.440 275.168,64.000 274.893 C 63.560 274.618,63.200 274.224,63.200 274.018 C 63.200 273.661,59.912 268.992,58.611 267.500 C 58.275 267.115,58.000 266.675,58.000 266.522 C 58.000 266.084,55.858 263.036,55.301 262.680 C 55.026 262.504,54.800 262.198,54.800 262.000 C 54.800 261.802,54.283 260.866,53.652 259.920 C 53.020 258.974,51.736 256.670,50.797 254.800 C 49.859 252.930,48.941 251.130,48.757 250.800 C 48.573 250.470,47.968 249.331,47.412 248.269 C 46.856 247.207,46.131 245.952,45.801 245.480 C 45.470 245.008,45.200 244.375,45.200 244.074 C 45.200 243.773,44.840 243.069,44.400 242.509 C 43.911 241.887,43.600 241.715,43.600 242.066 M346.641 247.663 C 346.288 248.166,346.000 248.786,346.000 249.040 C 346.000 249.294,345.748 249.711,345.439 249.967 C 345.131 250.223,344.757 250.919,344.608 251.512 C 344.459 252.106,344.212 252.684,344.059 252.796 C 343.906 252.908,343.295 253.952,342.702 255.115 C 342.108 256.279,340.987 258.187,340.211 259.357 C 339.435 260.526,338.800 261.670,338.800 261.899 C 338.800 262.127,338.530 262.418,338.200 262.545 C 337.870 262.671,337.600 263.108,337.600 263.515 C 337.600 263.922,336.970 264.962,336.200 265.827 C 335.430 266.692,334.800 267.513,334.800 267.651 C 334.800 267.860,330.850 273.233,329.689 274.605 C 329.501 274.827,329.178 275.305,328.973 275.666 C 328.396 276.680,325.343 280.178,321.600 284.114 C 319.730 286.080,318.071 288.029,317.913 288.444 C 317.755 288.860,317.350 289.200,317.013 289.200 C 316.676 289.200,316.400 289.355,316.400 289.544 C 316.400 290.050,313.015 293.600,312.533 293.600 C 312.308 293.600,311.503 294.185,310.746 294.900 C 309.989 295.615,308.049 297.280,306.435 298.600 C 304.821 299.920,302.903 301.540,302.172 302.200 C 300.258 303.929,299.862 304.232,298.775 304.806 C 298.239 305.088,297.710 305.436,297.600 305.578 C 297.490 305.719,296.230 306.595,294.800 307.524 C 293.370 308.452,291.751 309.594,291.203 310.062 C 290.654 310.530,289.512 311.350,288.665 311.885 C 287.818 312.420,287.215 312.948,287.325 313.058 C 287.435 313.168,288.487 312.580,289.663 311.750 C 290.838 310.920,294.050 308.681,296.800 306.774 C 301.710 303.370,302.421 302.820,306.596 299.200 C 307.738 298.210,309.541 296.680,310.602 295.800 C 314.441 292.616,324.140 282.577,327.604 278.200 C 332.268 272.307,336.192 266.888,338.899 262.600 C 341.946 257.774,342.939 256.029,344.686 252.428 C 345.708 250.323,346.810 248.284,347.136 247.898 C 347.462 247.511,347.628 247.095,347.505 246.972 C 347.382 246.849,346.993 247.160,346.641 247.663 " stroke="none" fill="#946950" fill-rule="evenodd"></path><path id="path4" d="M189.000 23.030 C 182.507 23.400,174.711 24.133,172.200 24.611 C 170.660 24.904,168.230 25.269,166.800 25.422 C 165.370 25.575,162.490 26.142,160.400 26.682 C 158.310 27.222,155.707 27.845,154.615 28.066 C 153.524 28.286,152.138 28.722,151.535 29.034 C 150.933 29.345,150.032 29.600,149.533 29.600 C 149.035 29.600,147.901 29.857,147.013 30.170 C 146.126 30.484,142.818 31.575,139.661 32.596 C 131.439 35.256,129.785 35.952,121.738 40.143 C 121.044 40.504,120.278 40.800,120.036 40.800 C 118.587 40.800,105.329 48.478,98.097 53.506 C 95.037 55.633,95.317 55.426,92.449 57.697 C 91.265 58.634,89.779 59.778,89.146 60.241 C 87.918 61.138,84.864 63.690,82.217 66.030 C 81.328 66.817,80.183 67.742,79.673 68.087 C 79.163 68.432,77.559 70.038,76.109 71.657 C 74.659 73.276,72.126 76.034,70.481 77.788 C 67.791 80.653,65.742 83.161,58.926 91.931 C 57.785 93.399,56.447 95.410,55.953 96.400 C 55.097 98.113,53.375 100.738,51.337 103.435 C 49.914 105.319,42.998 119.474,40.996 124.600 C 40.395 126.140,39.675 127.940,39.396 128.600 C 37.386 133.355,33.492 147.451,32.807 152.452 C 32.637 153.691,32.302 155.581,32.061 156.652 C 30.481 163.689,29.880 172.678,30.140 185.400 C 30.387 197.454,31.855 208.019,34.809 219.000 C 35.519 221.640,36.356 224.880,36.670 226.200 C 36.983 227.520,37.861 230.059,38.620 231.843 C 39.379 233.627,40.000 235.297,40.000 235.554 C 40.000 235.812,40.630 237.350,41.400 238.973 C 42.170 240.596,42.800 242.040,42.800 242.184 C 42.800 242.984,50.753 258.394,52.158 260.316 C 53.756 262.502,55.312 264.937,56.969 267.845 C 57.392 268.587,58.709 270.410,59.897 271.897 C 61.085 273.384,62.449 275.117,62.929 275.748 C 66.796 280.844,67.642 281.815,74.200 288.697 C 80.167 294.959,94.109 306.520,101.400 311.253 C 108.046 315.566,117.887 321.105,121.200 322.397 C 122.410 322.868,125.020 324.048,127.000 325.018 C 132.566 327.746,143.463 331.746,148.800 333.022 C 150.450 333.417,153.780 334.254,156.200 334.883 C 165.236 337.231,175.664 338.754,187.199 339.408 C 203.367 340.325,222.152 338.756,235.400 335.381 C 238.480 334.596,242.080 333.711,243.400 333.413 C 248.148 332.342,260.707 327.891,266.000 325.403 C 268.970 324.007,272.817 322.216,274.548 321.424 C 277.544 320.052,284.099 316.413,287.279 314.357 C 288.092 313.830,290.162 312.504,291.879 311.408 C 308.562 300.763,332.866 276.556,338.272 265.200 C 338.429 264.870,339.663 262.980,341.014 260.999 C 342.364 259.019,345.228 253.799,347.377 249.399 C 349.527 245.000,351.456 241.073,351.663 240.672 C 358.375 227.749,363.710 201.131,363.704 180.600 C 363.701 170.154,363.546 167.981,362.185 159.400 C 361.836 157.200,361.376 154.230,361.163 152.800 C 360.784 150.250,360.163 147.752,358.936 143.835 C 358.598 142.754,357.906 140.234,357.399 138.235 C 356.308 133.935,355.041 130.017,354.024 127.800 C 353.620 126.920,353.017 125.300,352.683 124.200 C 349.014 112.123,332.634 87.285,319.217 73.453 C 306.300 60.139,280.096 41.748,270.670 39.382 C 270.099 39.239,269.423 38.869,269.167 38.561 C 268.911 38.252,268.490 38.000,268.232 38.000 C 267.973 38.000,266.330 37.301,264.581 36.447 C 261.713 35.047,249.472 30.804,248.283 30.798 C 248.018 30.796,247.331 30.551,246.759 30.252 C 246.186 29.953,244.839 29.577,243.764 29.416 C 242.690 29.254,241.322 28.870,240.725 28.561 C 240.128 28.253,238.947 28.000,238.100 28.000 C 237.253 28.000,236.353 27.793,236.100 27.540 C 235.846 27.286,234.865 26.950,233.920 26.792 C 232.974 26.634,231.390 26.309,230.400 26.070 C 221.713 23.969,200.225 22.392,189.000 23.030 M206.400 24.009 C 211.130 24.231,216.620 24.677,218.600 25.000 C 220.580 25.323,223.550 25.759,225.200 25.968 C 229.175 26.472,232.595 27.126,234.800 27.806 C 235.790 28.111,237.410 28.484,238.400 28.635 C 239.390 28.786,240.380 29.049,240.600 29.219 C 240.820 29.389,241.720 29.647,242.600 29.791 C 243.480 29.935,244.830 30.297,245.600 30.595 C 246.370 30.893,250.240 32.172,254.200 33.437 C 258.160 34.702,262.750 36.346,264.400 37.091 C 268.422 38.906,270.874 40.049,271.600 40.447 C 271.930 40.628,272.920 41.112,273.800 41.522 C 274.680 41.933,277.470 43.410,280.000 44.805 C 282.530 46.200,285.140 47.628,285.800 47.978 C 287.029 48.629,292.505 52.296,298.200 56.281 C 315.566 68.433,335.638 91.370,344.733 109.460 C 345.823 111.627,347.181 114.210,347.751 115.200 C 348.320 116.190,348.970 117.450,349.193 118.000 C 349.417 118.550,349.813 119.360,350.072 119.800 C 350.991 121.360,355.742 135.009,357.381 140.800 C 359.387 147.886,360.307 151.792,360.584 154.400 C 360.736 155.830,361.101 158.080,361.395 159.400 C 363.433 168.538,363.440 191.553,361.408 203.200 C 358.999 217.009,354.928 231.733,351.401 239.400 C 351.097 240.060,350.467 241.500,350.001 242.600 C 349.535 243.700,348.705 245.410,348.156 246.400 C 347.607 247.390,346.230 250.090,345.097 252.400 C 339.994 262.801,331.801 274.204,320.867 286.125 C 316.271 291.135,313.907 293.432,309.600 297.071 C 307.444 298.893,304.448 301.429,303.600 302.150 C 295.954 308.649,281.820 317.252,269.400 322.967 C 254.725 329.719,237.729 334.875,223.863 336.780 C 220.528 337.238,216.450 337.797,214.800 338.021 C 201.789 339.794,170.757 338.099,159.806 335.017 C 157.019 334.233,153.687 333.373,149.000 332.229 C 146.800 331.692,143.560 330.715,141.800 330.058 C 140.040 329.402,137.070 328.297,135.200 327.603 C 126.201 324.266,115.459 318.960,105.367 312.869 C 92.807 305.288,75.010 289.819,66.472 279.062 C 65.102 277.337,63.761 275.685,63.491 275.392 C 62.485 274.301,57.472 267.248,54.573 262.845 C 50.287 256.337,40.400 236.417,40.400 234.291 C 40.400 233.988,39.770 232.287,39.000 230.510 C 38.230 228.733,37.600 226.959,37.600 226.568 C 37.600 226.177,37.255 224.674,36.833 223.228 C 30.403 201.206,28.951 178.775,32.587 157.600 C 32.908 155.730,33.340 153.210,33.547 152.000 C 34.074 148.922,37.798 135.135,38.950 132.000 C 39.475 130.570,40.505 127.780,41.238 125.800 C 43.010 121.019,50.334 106.236,52.488 103.095 C 53.428 101.723,54.379 100.297,54.599 99.926 C 57.749 94.631,59.618 92.021,65.058 85.321 C 71.792 77.027,78.079 70.476,84.754 64.800 C 91.444 59.110,91.936 58.720,95.400 56.341 C 97.160 55.132,99.860 53.244,101.400 52.144 C 105.846 48.970,115.451 43.612,122.800 40.205 C 124.010 39.644,125.270 39.028,125.600 38.836 C 127.262 37.868,131.774 35.990,134.800 35.006 C 136.670 34.398,139.892 33.293,141.961 32.550 C 144.029 31.808,146.043 31.200,146.437 31.200 C 146.831 31.200,147.251 31.040,147.372 30.845 C 147.493 30.650,148.268 30.372,149.096 30.228 C 149.923 30.083,151.770 29.637,153.200 29.236 C 159.726 27.410,164.010 26.484,168.200 25.994 C 170.180 25.763,172.790 25.377,174.000 25.137 C 176.186 24.703,189.642 23.754,195.000 23.656 C 196.540 23.627,201.670 23.786,206.400 24.009 " stroke="none" fill="#b49c8c" fill-rule="evenodd"></path></g></svg>