<?xml version="1.0" encoding="UTF-8"?>
<svg width="256px" height="256px" viewBox="0 0 256 256" version="1.1" xmlns="http://www.w3.org/2000/svg" xmlns:xlink="http://www.w3.org/1999/xlink">
    <title>Group 16</title>
    <defs>
        <polygon id="path-1" points="0 0 256 0 256 256 0 256"></polygon>
        <linearGradient x1="50%" y1="0%" x2="50%" y2="100%" id="linearGradient-3">
            <stop stop-color="#0C71CA" offset="0%"></stop>
            <stop stop-color="#1D9ED8" offset="100%"></stop>
        </linearGradient>
    </defs>
    <g id="Page-2" stroke="none" stroke-width="1" fill="none" fill-rule="evenodd">
        <g id="Group-16">
            <mask id="mask-2" fill="white">
                <use xlink:href="#path-1"></use>
            </mask>
            <g id="Path"></g>
            <g id="goETH" mask="url(#mask-2)" fill-rule="nonzero">
                <g transform="translate(30.000000, 30.000000)">
                    <path d="M98.274122,189.168196 C148.473878,189.168196 189.168196,148.473878 189.168196,98.274122 C189.168196,48.0746817 148.473878,7.37996942 98.274122,7.37996942 C48.0746817,7.37996942 7.37996942,48.0746817 7.37996942,98.274122 C7.37996942,148.473878 48.0746817,189.168196 98.274122,189.168196 Z" id="Path" fill="#62688F"></path>
                    <path d="M98.4999803,197 C44.1989181,197 0,152.813356 0,98.4999803 C0,44.1869996 44.1989181,0 98.4999803,0 C152.801516,0 197,44.1989181 197,98.4999803 C197,152.801516 152.813356,197 98.4999803,197 Z M98.4999803,15.1038652 C52.5151505,15.1038652 15.1038652,52.5151505 15.1038652,98.4999803 C15.1038652,144.484652 52.5151505,181.895937 98.4999803,181.895937 C144.484652,181.895937 181.895937,144.484652 181.895937,98.4999803 C181.895937,52.5151505 144.484652,15.1038652 98.4999803,15.1038652 L98.4999803,15.1038652 Z" id="Shape" fill="#1BFED7"></path>
                    <polygon id="Path" fill="#A7A7A7" points="98.5 79.2217125 98.5 126.061927 143.08104 99.5975487"></polygon>
                    <polygon id="Path" fill="#D3D3D3" points="98.5 79.3081039 98.5 25.3027523 143.08104 99.704893"></polygon>
                    <polygon id="Path" fill="#FFFFFF" points="98.5 25.3027523 53.9189602 99.704893 98.5 79.3081039"></polygon>
                    <polygon id="Path" fill="#D3D3D3" points="53.9189602 99.5975487 98.5 126.061927 98.5 79.2217125"></polygon>
                    <polygon id="Path" fill="#FFFFFF" points="53.9189602 108.289755 98.5 171.546636 98.5 134.816069"></polygon>
                    <polygon id="Path" fill="#A7A7A7" points="98.5 134.816069 143.08104 108.289755 98.5 171.546636"></polygon>
                </g>
            </g>
            <g id="exchange-cny-svgrepo-com-(1)" mask="url(#mask-2)" fill="url(#linearGradient-3)" fill-rule="nonzero">
                <g transform="translate(0.000000, 6.000000)" id="Shape">
                    <path d="M218.258999,160.506236 C234.540244,121.788253 224.355317,76.9910283 192.938337,49.1362289 C161.521357,21.2814294 115.861012,16.5653386 79.4225345,37.4115949 L67.2827573,16.1364316 C105.07748,-5.48330201 151.504308,-5.37135623 189.194512,16.4303889 C244.141689,48.1777829 265.190497,116.15542 239.577035,172.840196 L256,182.320321 L205.030068,209.437887 L203.010851,151.699764 L218.258999,160.506236 Z M37.7532387,84.4937641 C21.4719934,123.211747 31.6569203,168.008972 63.0739003,195.863771 C94.4908802,223.718571 140.151226,228.434661 176.589703,207.588405 L188.72948,228.863568 C150.934758,250.483302 104.507929,250.371356 66.8177255,228.569611 C11.8705483,196.822217 -9.178259,128.84458 16.4352024,72.1598035 L0,62.6919272 L50.9699316,35.5743615 L52.9891486,93.3124846 L37.741001,84.5060123 L37.7532387,84.4937641 Z"></path>
                </g>
            </g>
        </g>
    </g>
</svg>