<?xml version="1.0" standalone="no"?>
<!DOCTYPE svg PUBLIC "-//W3C//DTD SVG 20010904//EN"
 "http://www.w3.org/TR/2001/REC-SVG-20010904/DTD/svg10.dtd">
<svg version="1.0" xmlns="http://www.w3.org/2000/svg"
 width="1180.000000pt" height="1180.000000pt" viewBox="0 0 1180.000000 1180.000000"
 preserveAspectRatio="xMidYMid meet">
<metadata>
Created by potrace 1.16, written by Peter Selinger 2001-2019
</metadata>
<g transform="translate(0.000000,1180.000000) scale(0.100000,-0.100000)"
fill="#000000" stroke="none">
<path d="M5620 10973 c-380 -26 -664 -70 -989 -154 -1087 -280 -2049 -912
-2748 -1806 -102 -131 -307 -437 -394 -588 -90 -158 -248 -487 -312 -650 -170
-434 -282 -891 -334 -1365 -22 -205 -25 -776 -5 -970 68 -657 225 -1210 502
-1775 256 -522 557 -942 970 -1355 259 -259 523 -476 810 -663 1503 -979 3406
-1095 5015 -307 1332 653 2324 1871 2683 3295 115 457 156 783 156 1265 0 405
-24 655 -98 1015 -247 1213 -931 2297 -1917 3040 -793 597 -1729 946 -2727
1014 -139 10 -498 12 -612 4z m665 -243 c813 -69 1551 -314 2223 -739 1190
-752 2002 -2006 2201 -3401 36 -253 45 -392 45 -690 0 -299 -8 -427 -45 -690
-113 -797 -433 -1569 -919 -2215 -157 -209 -253 -318 -450 -515 -255 -256
-468 -431 -757 -623 -685 -454 -1478 -723 -2320 -788 -194 -15 -704 -6 -878
15 -403 50 -763 133 -1093 252 -1417 511 -2506 1626 -2976 3047 -324 978 -324
2056 0 3034 74 225 140 385 254 618 643 1313 1843 2262 3275 2589 211 48 473
87 740 109 97 8 591 6 700 -3z"/>
<path d="M5835 9988 c-47 -103 -93 -233 -132 -378 -22 -83 -26 -124 -33 -325
-7 -242 -9 -250 -69 -388 -19 -44 -19 -77 0 -77 14 0 87 105 126 182 l37 73 7
220 c6 175 11 236 28 299 12 44 22 81 24 83 2 1 14 -25 28 -60 13 -34 76 -142
139 -240 63 -98 137 -212 164 -255 76 -118 189 -347 219 -442 15 -47 38 -145
51 -218 14 -74 27 -136 30 -139 10 -11 26 9 26 33 0 64 67 270 127 394 24 49
153 190 174 190 4 0 10 -24 14 -52 14 -104 64 -209 176 -363 123 -171 203
-331 235 -471 9 -43 21 -83 24 -87 4 -5 13 29 19 75 7 46 14 94 15 107 6 40
-14 157 -40 237 -13 41 -57 150 -98 242 -136 309 -138 317 -137 587 l2 209
-23 -20 c-67 -59 -162 -138 -237 -195 -75 -57 -201 -189 -201 -211 0 -4 -4 -8
-8 -8 -5 0 -16 26 -26 58 -44 140 -155 316 -330 522 -143 168 -213 291 -240
422 -9 42 -16 80 -16 83 0 3 -7 5 -16 5 -10 0 -31 -34 -59 -92z"/>
<path d="M3868 9620 c-616 -335 -1130 -801 -1518 -1375 -390 -578 -624 -1219
-712 -1950 -20 -172 -17 -753 5 -930 112 -883 445 -1646 1003 -2300 116 -137
347 -368 479 -480 106 -91 309 -245 322 -245 5 0 33 35 63 77 l53 77 -28 21
c-977 707 -1578 1744 -1701 2935 -22 208 -22 596 0 798 87 815 380 1532 882
2162 138 173 451 486 624 624 198 158 424 307 645 426 44 24 82 44 83 46 8 6
-56 184 -66 184 -4 0 -64 -31 -134 -70z"/>
<path d="M8084 9493 c-9 -21 -24 -58 -35 -82 -10 -24 -19 -49 -19 -56 0 -8 52
-48 116 -89 496 -327 922 -763 1229 -1260 333 -540 516 -1078 597 -1751 20
-169 17 -673 -5 -855 -103 -838 -415 -1561 -946 -2195 -191 -229 -545 -551
-770 -702 -5 -3 17 -35 71 -105 l45 -57 110 83 c381 285 724 648 990 1046 847
1267 954 2891 283 4265 -356 727 -899 1325 -1608 1769 l-43 27 -15 -38z"/>
<path d="M5170 9343 c0 -189 -26 -259 -190 -509 -156 -238 -262 -480 -279
-638 -9 -85 2 -224 20 -257 12 -22 14 -18 21 51 12 136 42 193 214 412 143
183 230 327 279 463 10 28 21 54 25 58 14 16 102 -98 145 -187 42 -85 84 -229
85 -286 1 -23 1 -24 12 -6 7 13 9 60 5 145 -13 256 -55 433 -139 591 -51 96
-169 273 -185 278 -10 3 -13 -25 -13 -115z"/>
<path d="M4024 8021 c-85 -52 -485 -449 -787 -782 -205 -226 -221 -246 -253
-315 -19 -40 -22 -57 -15 -75 12 -29 543 -567 661 -669 47 -40 211 -196 365
-346 306 -298 405 -384 446 -384 14 0 44 13 65 29 49 36 172 156 244 239 45
52 62 64 93 69 l38 6 365 -364 c200 -200 364 -368 364 -373 0 -6 -53 -60 -117
-121 l-118 -112 130 -136 c100 -106 136 -137 155 -137 19 0 52 27 130 105 58
58 109 105 114 105 6 0 58 -47 116 -105 76 -75 114 -105 131 -105 18 0 59 35
153 129 71 71 126 135 124 143 -1 8 -52 61 -113 118 -60 57 -111 109 -113 114
-1 6 159 172 355 368 251 250 367 359 387 364 17 4 48 2 70 -5 23 -6 95 -23
161 -37 97 -21 135 -25 195 -19 108 9 303 52 390 86 253 98 589 419 846 809
186 282 248 465 224 659 -19 145 -69 254 -185 398 -78 97 -154 160 -251 207
-249 122 -545 111 -826 -30 -169 -85 -411 -254 -553 -387 -70 -65 -83 -83
-109 -148 -70 -180 -127 -494 -129 -709 -1 -124 4 -151 59 -350 7 -25 7 -25
-26 5 -38 36 -80 115 -117 222 -22 67 -27 100 -31 225 -4 131 1 198 25 343 l4
30 -19 -22 c-31 -35 -101 -204 -129 -311 -20 -79 -25 -121 -26 -227 -1 -140
11 -203 58 -309 14 -31 25 -66 25 -77 0 -41 -35 -92 -139 -203 -58 -62 -204
-217 -325 -345 -120 -127 -223 -231 -230 -229 -26 7 -636 655 -673 715 -41 68
-31 110 62 263 117 194 133 246 93 317 -24 44 -281 319 -718 768 -139 143
-313 333 -387 422 -161 193 -193 214 -259 174z m90 -445 c83 -35 412 -415 616
-713 130 -189 159 -270 106 -295 -21 -9 -32 -6 -69 15 -72 43 -266 260 -469
527 -220 289 -296 437 -240 469 22 13 17 13 56 -3z m-258 -338 c62 -43 175
-149 370 -343 270 -270 421 -440 465 -526 42 -83 -4 -122 -86 -74 -191 112
-797 729 -894 910 -25 47 -26 59 -5 79 27 28 59 18 150 -46z m-226 -355 c208
-131 597 -431 742 -574 71 -70 88 -93 88 -116 0 -33 -16 -53 -42 -53 -123 0
-998 679 -998 774 0 66 71 56 210 -31z"/>
<path d="M5043 4776 l-57 -56 38 -39 c21 -22 37 -44 35 -50 -5 -12 -312 -331
-699 -726 -355 -362 -515 -533 -515 -548 0 -17 332 -340 344 -335 5 1 171 158
368 348 554 534 824 793 871 835 l43 38 27 -26 c16 -15 33 -27 39 -27 15 0
103 97 103 114 0 13 -509 517 -530 524 -5 2 -35 -22 -67 -52z"/>
<path d="M6432 4567 l-264 -264 44 -54 c24 -30 52 -56 62 -57 11 -2 29 8 43
22 l24 27 37 -30 c34 -27 298 -281 984 -943 142 -136 262 -248 267 -248 14 0
352 331 349 341 -6 17 -171 178 -178 174 -4 -2 -58 -74 -121 -160 -63 -86
-115 -151 -117 -145 -2 6 8 52 23 103 22 79 44 138 107 288 11 26 -4 42 -463
513 -261 268 -476 492 -478 498 -2 5 14 28 35 49 l39 40 -57 55 c-31 29 -60
54 -65 54 -4 0 -127 -119 -271 -263z"/>
<path d="M8195 3331 c-46 -27 -69 -69 -69 -122 0 -87 62 -143 152 -136 180 13
171 277 -9 277 -25 0 -57 -8 -74 -19z m132 -31 c69 -42 63 -151 -10 -186 -75
-36 -157 16 -157 98 0 32 7 47 34 74 40 40 83 45 133 14z"/>
<path d="M8223 3264 c-21 -21 -24 -32 -19 -62 3 -20 14 -43 23 -50 24 -17 73
-11 87 10 14 24 1 34 -19 14 -21 -21 -28 -20 -49 3 -35 39 2 100 44 73 25 -16
30 -15 30 3 0 16 -30 35 -55 35 -9 0 -27 -12 -42 -26z"/>
</g>
</svg>
