<svg width="256" height="256" viewBox="0 0 256 256" fill="none" xmlns="http://www.w3.org/2000/svg">
<circle cx="128" cy="128" r="128" fill="url(#paint0_linear_5887:47972)"/>
<circle cx="128" cy="128" r="114" fill="url(#paint1_linear_5887:47972)" stroke="white" stroke-width="10"/>
<path fill-rule="evenodd" clip-rule="evenodd" d="M68 97H54V146V158H68H144H157H158L172.5 136.957L187 158H201L160 98.5H146L165.527 126.838L164.5 128.25L152.269 146H68V97ZM89 97H76V109V140H89V109H102V140H115V109H127V140H140V97H133H127H115H102H89Z" fill="white"/>
<path d="M182.172 122.921L199 98.5H185L175.172 112.762L182.172 122.921Z" fill="white"/>
<path d="M182.172 122.921L199 98.5H185L175.172 112.762L182.172 122.921Z" fill="#E4E1E1"/>
<defs>
<linearGradient id="paint0_linear_5887:47972" x1="128" y1="0" x2="128" y2="256" gradientUnits="userSpaceOnUse">
<stop stop-color="#FFBA43"/>
<stop offset="1" stop-color="#FF9026"/>
</linearGradient>
<linearGradient id="paint1_linear_5887:47972" x1="128" y1="19" x2="128" y2="237" gradientUnits="userSpaceOnUse">
<stop stop-color="#FFBA43"/>
<stop offset="1" stop-color="#FF9026"/>
</linearGradient>
</defs>
</svg>
