<?xml version="1.0" encoding="utf-8"?>
<!-- Generator: Adobe Illustrator 25.4.1, SVG Export Plug-In . SVG Version: 6.00 Build 0)  -->
<svg version="1.1" id="Layer_1" xmlns="http://www.w3.org/2000/svg" xmlns:xlink="http://www.w3.org/1999/xlink" x="0px" y="0px"
	 width="256px" height="256px" viewBox="0 0 256 256" style="enable-background:new 0 0 256 256;" xml:space="preserve">
<style type="text/css">
	.st0{fill:#FFFFFF;filter:url(#Adobe_OpacityMaskFilter);}
	.st1{fill:none;stroke:#000000;stroke-width:3.0263;stroke-linecap:round;stroke-miterlimit:10;}
	.st2{mask:url(#mask_00000045597887923696695450000002714868122676250514_);}
	.st3{fill:#8167F5;}
</style>
<g id="Layer_2_00000039815768028157052040000017241836934633811858_">
	<g id="Layer_1-2">
		<defs>
			<filter id="Adobe_OpacityMaskFilter" filterUnits="userSpaceOnUse" x="109" y="109" width="37.9" height="37.9">
				<feColorMatrix  type="matrix" values="1 0 0 0 0  0 1 0 0 0  0 0 1 0 0  0 0 0 1 0"/>
			</filter>
		</defs>
		
			<mask maskUnits="userSpaceOnUse" x="109" y="109" width="37.9" height="37.9" id="mask_00000045597887923696695450000002714868122676250514_">
			<rect x="105.4" y="107.8" class="st0" width="46.9" height="39.3"/>
			<path class="st1" d="M127.5,127.7c0,0-8.5,11,3.6,19.6"/>
			<path class="st1" d="M127.5,127.7c0,0,13.8,1.9,15.2-12.9"/>
			<path class="st1" d="M127.5,127.7c0,0-5.3-12.9-18.8-6.7"/>
		</mask>
		<g class="st2">
			<circle class="st3" cx="128" cy="128" r="19"/>
		</g>
		<path class="st3" d="M149.8,108.7c1.1,1.2,2.9,1.3,4.1,0.3c0,0,0.1-0.1,0.1-0.1l20.4-20.4c1.1-1.1,1.1-2.9,0.1-4
			c-0.9-1-1.9-2-2.9-2.9c-1.1-1.1-2.9-1-4,0.1L147.2,102c-1.1,1.1-1.1,3,0,4.1c0,0,0.1,0.1,0.1,0.1C148.2,107,149,107.8,149.8,108.7
			z"/>
		<path class="st3" d="M191.7,125.9c-0.1-1.6-1.3-2.8-2.9-2.8H160c-1.6,0-2.9,1.3-2.9,2.9c0,0.1,0,0.1,0,0.2c0,0.6,0.1,1.2,0.1,1.8
			s0,1.2-0.1,1.8c-0.1,1.6,1.1,3,2.7,3.1c0.1,0,0.1,0,0.2,0h28.8c1.6,0,2.8-1.2,2.9-2.8c0-0.7,0-1.4,0-2.1
			C191.7,127.3,191.7,126.6,191.7,125.9z"/>
		<path class="st3" d="M98.9,129.8c0-0.6-0.1-1.2-0.1-1.8s0-1.2,0.1-1.8c0.1-1.6-1.1-3-2.7-3.1c-0.1,0-0.1,0-0.2,0H67.2
			c-1.6,0-2.8,1.2-2.9,2.8c0,0.7,0,1.4,0,2.1c0,0.7,0,1.4,0,2.1c0.1,1.6,1.3,2.8,2.9,2.8H96c1.6,0,2.9-1.3,2.9-2.9
			C98.9,129.9,98.9,129.8,98.9,129.8z"/>
		<path class="st3" d="M106.2,147.3c-1.1-1.2-2.9-1.3-4.1-0.3c0,0-0.1,0.1-0.1,0.1l-20.4,20.4c-1.1,1.1-1.1,2.9-0.1,4
			c0.9,1,1.9,2,2.9,2.9c1.1,1.1,2.9,1,4-0.1l20.4-20.4c1.1-1.1,1.1-3,0-4.1c0,0-0.1-0.1-0.1-0.1C107.8,149,107,148.2,106.2,147.3z"
			/>
		<path class="st3" d="M129.8,157.1c-0.6,0-1.2,0.1-1.8,0.1s-1.2,0-1.8-0.1c-1.6-0.1-3,1.1-3.1,2.7c0,0.1,0,0.1,0,0.2v28.8
			c0,1.6,1.2,2.8,2.8,2.9c0.7,0,1.4,0,2.1,0c0.7,0,1.4,0,2.1,0c1.6-0.1,2.8-1.3,2.8-2.9V160c0-1.6-1.3-2.9-2.9-2.9
			C129.9,157.1,129.8,157.1,129.8,157.1z"/>
		<path class="st3" d="M130.1,64.3c-0.7,0-1.4,0-2.1,0c-0.7,0-1.4,0-2.1,0c-1.6,0.1-2.8,1.3-2.8,2.9V96c0,1.6,1.3,2.9,2.9,2.9
			c0.1,0,0.1,0,0.2,0c0.6,0,1.2-0.1,1.8-0.1s1.2,0,1.8,0.1c1.6,0.1,3-1.1,3.1-2.7c0-0.1,0-0.1,0-0.2V67.2
			C132.9,65.7,131.6,64.4,130.1,64.3z"/>
		<path class="st3" d="M154,147.2c-1.1-1.1-3-1.1-4.1,0c0,0-0.1,0.1-0.1,0.1c-0.8,0.9-1.6,1.7-2.5,2.5c-1.2,1.1-1.3,2.9-0.3,4.1
			c0,0,0.1,0.1,0.1,0.1l20.4,20.4c1.1,1.1,2.9,1.1,4,0.1c1-0.9,2-1.9,2.9-2.9c1.1-1.1,1-2.9-0.1-4L154,147.2z"/>
		<path class="st3" d="M88.5,81.6c-1.1-1.1-2.9-1.1-4-0.1c-1,0.9-2,1.9-2.9,2.9c-1.1,1.1-1,2.9,0.1,4l20.4,20.4c1.1,1.1,3,1.1,4.1,0
			c0,0,0.1-0.1,0.1-0.1c0.8-0.9,1.6-1.7,2.5-2.5c1.2-1.1,1.3-2.9,0.3-4.1c0,0-0.1-0.1-0.1-0.1L88.5,81.6z"/>
		<path class="st3" d="M240.1,146.6c10.3-10.3,10.3-26.9,0-37.1c0,0,0,0,0,0L229.6,99c-2.2-7.8-5.3-15.3-9.3-22.3V61.9
			c0-14.5-11.8-26.3-26.3-26.3h-14.8c-7.1-3.9-14.5-7-22.3-9.3l-10.5-10.4c-10.3-10.3-26.9-10.3-37.1,0L99,26.4
			c-7.8,2.2-15.3,5.3-22.3,9.3H61.9c-14.5,0-26.3,11.8-26.3,26.3c0,0,0,0,0,0v14.8c-3.9,7.1-7,14.5-9.3,22.3l-10.4,10.5
			c-10.3,10.3-10.3,26.9,0,37.1L26.3,157c2.2,7.8,5.3,15.3,9.3,22.3v14.8c0,14.5,11.8,26.3,26.3,26.3h14.8c7.1,3.9,14.5,7,22.3,9.3
			l10.4,10.4c10.3,10.3,26.9,10.3,37.1,0c0,0,0,0,0,0l10.4-10.4c7.8-2.2,15.3-5.3,22.3-9.3h14.8c14.5,0,26.3-11.8,26.3-26.3v-14.8
			c3.9-7.1,7-14.5,9.3-22.3L240.1,146.6z M179.1,179.1c-0.9,0.9-1.7,1.7-2.6,2.5l-0.3,0.2c-0.8,0.7-1.6,1.4-2.4,2.1l-0.5,0.4
			c-0.8,0.6-1.5,1.2-2.3,1.8l-0.7,0.5c-0.7,0.5-1.5,1.1-2.2,1.6l-0.8,0.5c-0.7,0.5-1.5,0.9-2.2,1.4c-0.3,0.2-0.5,0.3-0.8,0.5
			c-0.8,0.5-1.6,0.9-2.4,1.3l-0.7,0.4c-0.8,0.4-1.7,0.9-2.5,1.3l-0.6,0.3c-0.9,0.4-1.9,0.8-2.8,1.2L155,195c-1,0.4-2,0.8-3,1.1
			l-0.2,0.1c-1.1,0.4-2.1,0.7-3.2,1h0c-3.3,1-6.7,1.7-10.2,2.2h0c-1.1,0.2-2.3,0.3-3.4,0.4h-0.1c-1.1,0.1-2.2,0.2-3.3,0.2h-0.2
			c-1.1,0-2.2,0.1-3.3,0.1l0,0c-1.1,0-2.2,0-3.3-0.1h-0.2c-1.1-0.1-2.2-0.1-3.3-0.2H121c-1.1-0.1-2.3-0.2-3.4-0.4h0
			c-3.4-0.5-6.8-1.2-10.2-2.2h0c-1.1-0.3-2.2-0.7-3.2-1l-0.2-0.1c-1-0.4-2-0.7-3-1.1l-0.4-0.2c-0.9-0.4-1.9-0.8-2.8-1.2l-0.6-0.3
			c-0.8-0.4-1.7-0.8-2.5-1.3l-0.7-0.4c-0.8-0.4-1.6-0.9-2.3-1.3l-0.8-0.5c-0.7-0.5-1.5-0.9-2.2-1.4l-0.8-0.5c-0.7-0.5-1.5-1-2.2-1.5
			l-0.7-0.5c-0.8-0.6-1.5-1.2-2.3-1.8l-0.5-0.4c-0.8-0.7-1.6-1.4-2.4-2.1l-0.3-0.2c-0.9-0.8-1.8-1.6-2.6-2.5l0,0
			c-0.8-0.9-1.7-1.7-2.5-2.6l-0.2-0.2l-0.1-0.1c-0.7-0.8-1.4-1.6-2.1-2.4c-0.1-0.2-0.3-0.3-0.4-0.5c-0.6-0.8-1.2-1.5-1.8-2.3
			c-0.2-0.2-0.3-0.5-0.5-0.7c-0.5-0.7-1-1.5-1.5-2.2c-0.2-0.3-0.3-0.5-0.5-0.8c-0.5-0.7-0.9-1.5-1.4-2.2c-0.2-0.3-0.3-0.5-0.5-0.8
			c-0.5-0.8-0.9-1.6-1.3-2.3c-0.1-0.2-0.3-0.5-0.4-0.7c-0.4-0.8-0.9-1.7-1.3-2.5l-0.3-0.6c-0.4-0.9-0.8-1.9-1.2-2.8l-0.2-0.4
			c-0.4-1-0.8-2-1.1-3l-0.1-0.2c-0.4-1.1-0.7-2.1-1-3.2v0c-1-3.3-1.7-6.8-2.2-10.2l0,0c-0.2-1.1-0.3-2.3-0.4-3.4v-0.1
			c-0.1-1.1-0.2-2.2-0.2-3.3c0-0.1,0-0.1,0-0.2c-0.1-1.1-0.1-2.2-0.1-3.3l0,0c0-1.1,0-2.2,0.1-3.3c0-0.1,0-0.1,0-0.2
			c0.1-1.1,0.1-2.2,0.2-3.3v-0.1c0.1-1.1,0.2-2.3,0.4-3.4l0,0c0.5-3.4,1.2-6.8,2.2-10.2v0c0.3-1.1,0.7-2.2,1-3.2
			c0-0.1,0-0.1,0.1-0.2c0.4-1,0.7-2,1.1-3c0.1-0.1,0.1-0.3,0.2-0.4c0.4-0.9,0.8-1.9,1.2-2.8c0.1-0.2,0.2-0.4,0.3-0.6
			c0.4-0.9,0.8-1.7,1.2-2.5c0.1-0.2,0.3-0.5,0.4-0.7c0.4-0.8,0.9-1.6,1.3-2.3c0.2-0.3,0.3-0.5,0.5-0.8c0.5-0.7,0.9-1.5,1.4-2.2
			l0.5-0.8c0.5-0.7,1-1.5,1.5-2.2l0.5-0.7c0.6-0.8,1.2-1.5,1.8-2.3c0.1-0.2,0.3-0.3,0.4-0.5c0.7-0.8,1.4-1.6,2.1-2.4l0.2-0.3
			c0.8-0.9,1.6-1.7,2.5-2.6l0,0c0.9-0.9,1.7-1.7,2.6-2.5l0.3-0.2c0.8-0.7,1.6-1.4,2.4-2.1l0.5-0.4c0.8-0.6,1.5-1.2,2.3-1.8l0.7-0.5
			c0.7-0.5,1.5-1,2.2-1.5l0.8-0.5c0.7-0.5,1.5-0.9,2.2-1.4l0.8-0.5c0.8-0.5,1.5-0.9,2.3-1.3c0.2-0.1,0.5-0.3,0.7-0.4
			c0.8-0.4,1.7-0.9,2.5-1.2l0.6-0.3c0.9-0.4,1.9-0.8,2.8-1.2L101,61c1-0.4,2-0.8,3-1.1l0.2-0.1c1.1-0.4,2.1-0.7,3.2-1h0
			c3.3-1,6.7-1.7,10.2-2.2l0,0c1.1-0.2,2.3-0.3,3.4-0.4h0.1c1.1-0.1,2.2-0.2,3.3-0.2h0.2c1.1-0.1,2.2-0.1,3.3-0.1l0,0
			c1.1,0,2.2,0,3.3,0.1h0.2c1.1,0.1,2.2,0.1,3.3,0.2h0.1c1.1,0.1,2.3,0.2,3.4,0.4l0,0c3.4,0.5,6.8,1.2,10.2,2.2h0
			c1.1,0.3,2.2,0.7,3.2,1l0.2,0.1c1,0.4,2,0.7,3,1.1l0.4,0.2c0.9,0.4,1.9,0.8,2.8,1.2l0.6,0.3c0.9,0.4,1.7,0.8,2.5,1.3l0.7,0.4
			c0.8,0.4,1.6,0.9,2.3,1.3l0.8,0.5c0.8,0.5,1.5,0.9,2.2,1.4c0.3,0.2,0.5,0.3,0.8,0.5c0.7,0.5,1.5,1,2.2,1.5l0.7,0.5
			c0.8,0.6,1.5,1.2,2.3,1.8l0.5,0.4c0.8,0.7,1.6,1.4,2.4,2.1l0.3,0.2c0.9,0.8,1.8,1.6,2.6,2.5l0,0c0.9,0.9,1.7,1.7,2.5,2.6l0.2,0.3
			c0.7,0.8,1.4,1.6,2.1,2.4l0.3,0.3l0.1,0.1c0.6,0.8,1.2,1.5,1.8,2.3c0.2,0.2,0.3,0.4,0.5,0.7c0.5,0.7,1.1,1.5,1.5,2.2
			c0,0.1,0.1,0.1,0.1,0.2l0.5,0.5c0.5,0.7,0.9,1.5,1.4,2.2c0.2,0.3,0.3,0.5,0.5,0.8c0.4,0.8,0.9,1.6,1.3,2.3l0.4,0.7
			c0.4,0.8,0.8,1.7,1.3,2.5l0.3,0.6c0.4,0.9,0.8,1.9,1.2,2.8l0.2,0.4c0.4,1,0.8,2,1.1,3c0,0.1,0,0.1,0.1,0.2c0.4,1.1,0.7,2.1,1,3.2
			c0,0,0,0,0,0c1,3.3,1.7,6.7,2.2,10.2v0c0.2,1.1,0.3,2.2,0.4,3.4c0,0,0,0.1,0,0.1c0.1,1.1,0.2,2.2,0.2,3.3c0,0.1,0,0.1,0,0.2
			c0,1.1,0.1,2.2,0.1,3.3v0c0,1.1,0,2.2-0.1,3.3c0,0.1,0,0.1,0,0.2c-0.1,1.1-0.1,2.2-0.2,3.3c0,0,0,0.1,0,0.1
			c-0.1,1.1-0.2,2.3-0.4,3.4v0c-0.5,3.4-1.2,6.8-2.2,10.2c0,0,0,0,0,0c-0.3,1.1-0.7,2.2-1,3.2c0,0.1,0,0.1-0.1,0.2
			c-0.4,1-0.7,2-1.1,3l-0.2,0.4c-0.4,0.9-0.8,1.9-1.2,2.8l-0.3,0.6c-0.4,0.9-0.8,1.7-1.3,2.5l-0.4,0.7c-0.4,0.8-0.9,1.6-1.3,2.3
			c-0.2,0.3-0.3,0.5-0.5,0.8c-0.5,0.8-0.9,1.5-1.4,2.2c-0.2,0.3-0.3,0.5-0.5,0.8c-0.5,0.7-1,1.5-1.6,2.2l-0.5,0.7
			c-0.6,0.8-1.2,1.5-1.8,2.3l-0.4,0.5c-0.7,0.8-1.4,1.6-2.1,2.4l-0.2,0.3C180.8,177.4,179.9,178.2,179.1,179.1z"/>
	</g>
</g>
</svg>
