<?xml version="1.0" encoding="utf-8"?>
<!-- Generator: Adobe Illustrator 26.0.1, SVG Export Plug-In . SVG Version: 6.00 Build 0)  -->
<svg version="1.1" id="ba3af7a5-2b6c-4f94-8fce-c3e8f6521201"
	 xmlns="http://www.w3.org/2000/svg" xmlns:xlink="http://www.w3.org/1999/xlink" x="0px" y="0px" viewBox="0 0 192 192"
	 style="enable-background:new 0 0 192 192;" xml:space="preserve">
<style type="text/css">
	.st0{fill:#FFFFFF;}
	.st1{opacity:0.7;}
	.st2{opacity:0.2;}
</style>
<path class="st0" d="M95,180c-4.7,0-9.2-1.1-12.4-2.9L31,147.3c-6.7-3.9-12.4-13.7-12.4-21.4V66.2c0-7.7,5.7-17.6,12.4-21.4L82.7,15
	c3.2-1.9,7.7-2.9,12.4-2.9c4.7,0,9.2,1.1,12.4,2.9L159,44.8c6.7,3.9,12.4,13.7,12.4,21.4v59.6c0,7.7-5.7,17.6-12.4,21.4l-51.6,29.8
	C104.2,178.9,99.7,180,95,180z"/>
<path d="M95,14.3c4.3,0,8.4,0.9,11.2,2.6l51.6,29.8c2.9,1.7,5.7,4.7,7.9,8.4c2.1,3.7,3.4,7.7,3.4,11v59.6c0,3.3-1.2,7.3-3.4,11
	c-2.1,3.7-5,6.8-7.9,8.4l-51.6,29.8c-2.9,1.7-7,2.6-11.2,2.6s-8.4-0.9-11.2-2.6l-51.6-29.8c-2.9-1.6-5.7-4.7-7.9-8.4
	c-2.1-3.7-3.4-7.7-3.4-11V66.2c0-3.3,1.2-7.3,3.4-11s5-6.8,7.9-8.4L83.8,17C86.7,15.3,90.8,14.3,95,14.3 M95,9.8
	c-4.9,0-9.8,1.1-13.5,3.2L29.9,42.8c-7.4,4.3-13.5,14.8-13.5,23.4v59.6c0,8.6,6.1,19.1,13.5,23.4l51.6,29.8
	c3.7,2.1,8.6,3.2,13.5,3.2c4.9,0,9.8-1.1,13.5-3.2l51.6-29.8c7.4-4.3,13.5-14.8,13.5-23.4V66.2c0-8.6-6.1-19.1-13.5-23.4L108.6,13
	C104.8,10.8,99.9,9.7,95,9.8L95,9.8z"/>
<g class="st1">
	<path d="M160.9,123.2c0,5.7-4.1,12.7-9,15.6l-42.6,24.4c-5,2.9-9,0.5-9-5.2v-48.8c0-5.7,4.1-12.7,9-15.6l42.6-24.4
		c5-2.9,9-0.5,9,5.2V123.2z"/>
	<path d="M105.2,166.8c-1.2,0-2.4-0.3-3.5-0.9c-2.4-1.4-3.8-4.2-3.8-7.8v-48.8c0-6.6,4.5-14.3,10.2-17.6l42.6-24.4
		c3.1-1.8,6.3-2,8.7-0.6c2.4,1.4,3.8,4.2,3.8,7.8v48.8c0,6.6-4.5,14.3-10.2,17.6l-42.6,24.4C108.8,166.2,107,166.7,105.2,166.8z
		 M155.8,70.3c-1,0.1-2,0.4-2.9,0.9l-42.6,24.4c-4.3,2.4-7.9,8.7-7.9,13.6V158c0,1.9,0.6,3.3,1.5,3.8s2.4,0.3,4.1-0.6l42.6-24.4
		c4.3-2.4,7.9-8.7,7.9-13.6V74.5c0-1.9-0.6-3.3-1.5-3.8C156.7,70.4,156.3,70.3,155.8,70.3L155.8,70.3z"/>
</g>
<g class="st2">
	<path d="M28.4,123.5c0,5.7,4.1,12.7,9,15.6L80,163.5c5,2.9,9,0.5,9-5.2v-48.8c0-5.7-4.1-12.7-9-15.6L37.4,69.5c-5-2.9-9-0.5-9,5.2
		V123.5z"/>
	<path d="M84,167c-1.8,0-3.6-0.6-5.2-1.5l-42.6-24.4c-5.7-3.3-10.2-11-10.2-17.6V74.7c0-3.6,1.4-6.4,3.8-7.8
		c2.4-1.4,5.6-1.2,8.7,0.6l42.6,24.4c5.7,3.3,10.2,11,10.2,17.6v48.8c0,3.6-1.4,6.4-3.8,7.8C86.5,166.7,85.3,167.1,84,167z
		 M33.4,70.6c-0.4,0-0.9,0.1-1.2,0.3c-1,0.6-1.5,2-1.5,3.8v48.8c0,4.9,3.6,11.2,7.9,13.6l42.6,24.4c1.6,0.9,3.1,1.2,4.1,0.6
		c1-0.5,1.5-2,1.5-3.9v-48.8c0-4.9-3.6-11.2-7.9-13.6L36.3,71.5C35.4,71,34.4,70.6,33.4,70.6L33.4,70.6z"/>
</g>
<path d="M120,49.7l5.2,3.1L98.2,68.6l-3.8-2.3L92,55.1l-5.6,3.3l-4.9-2.9l9.3-5.5l-2-9.1L70.4,51.6l-5.2-3.1l26-15.2l3.7,2.2
	l2.4,10.8l5.2-3.1l4.9,2.9l-9,5.3l2.2,9.7L120,49.7z"/>
<g class="st1">
	<path d="M71.6,138.7l-0.1,6l-27.1-15.4l0.1-4.4l8.5-7.8l-5.6-3.2l0.1-5.7l9.4,5.3l6.9-6.3L45.2,96.7l0.1-6l26.2,14.9l-0.1,4.3
		l-8.1,7.5l5.3,3l-0.1,5.7l-9-5.1l-7.3,6.7L71.6,138.7z"/>
</g>
<path class="st0" d="M146.2,124l-0.1,6.2L119,146l0.1-4.5l8.5-17.6l-5.6,3.3l0.1-5.8l9.4-5.5l6.9-14.3l-18.5,10.8l0.1-6.2L146.1,91
	l-0.1,4.4l-8.1,16.8l5.3-3.1l-0.1,5.8l-9,5.3l-7.3,15.1L146.2,124z"/>
</svg>
