<svg id="Layer_1" data-name="Layer 1" xmlns="http://www.w3.org/2000/svg" viewBox="0 0 500 500"><defs><style>.cls-1,.cls-4,.cls-7{fill:none;}.cls-1{stroke:#000;}.cls-1,.cls-7{stroke-linecap:round;stroke-linejoin:round;stroke-width:20px;}.cls-2{fill:#3bb777;}.cls-3{fill:#239957;}.cls-5{fill:#f9d841;}.cls-6{fill:#faac29;}.cls-7{stroke:#fff;}.cls-8{fill:#fff;}</style></defs><title>pear</title><path class="cls-1" d="M247.82,117.91S232.14,62.06,264.13,11.56"/><path class="cls-2" d="M404.57,53.75c-127.51-78.24-149,35.67-149,35.67S326.33,181.25,404.57,53.75Z"/><path class="cls-3" d="M404.57,53.75l-149,35.67S326.33,181.25,404.57,53.75Z"/><path class="cls-4" d="M404.57,53.75c-127.51-78.24-149,35.67-149,35.67S326.33,181.25,404.57,53.75Z"/><path class="cls-1" d="M404.57,53.75c-127.51-78.24-149,35.67-149,35.67S326.33,181.25,404.57,53.75Z"/><path class="cls-5" d="M359.47,238.27l.11-.07S325.77,190,323.93,143.36s-36.44-74.31-76.11-74.31S173.54,96.7,171.7,143.36s-35.65,94.84-35.65,94.84l.13.06C111,268.74,95.43,307.55,95.43,345.16c0,79.13,68.23,143.28,152.39,143.28S400.2,424.29,400.2,345.16C400.2,307.55,384.67,268.75,359.47,238.27Z"/><path class="cls-6" d="M370.32,253a169.17,169.17,0,0,1,5.05,39.67c0,89.86-77.48,162.71-173,162.71A181.9,181.9,0,0,1,137,443.26c27.79,27.76,67.11,45.18,110.86,45.18,84.16,0,152.38-64.15,152.38-143.28C400.2,313.35,389,280.74,370.32,253Z"/><path class="cls-4" d="M359.47,238.27l.11-.07S325.77,190,323.93,143.36s-36.44-74.31-76.11-74.31S173.54,96.7,171.7,143.36s-35.65,94.84-35.65,94.84l.13.06C111,268.74,95.43,307.55,95.43,345.16c0,79.13,68.23,143.28,152.39,143.28S400.2,424.29,400.2,345.16C400.2,307.55,384.67,268.75,359.47,238.27Z"/><path class="cls-7" d="M207.59,171.17C199.82,208.38,179,241,179,241l.13.05a184.39,184.39,0,0,0-14.34,22.07"/><circle class="cls-8" cx="214.95" cy="137.61" r="12.79"/><path class="cls-1" d="M359.47,238.27l.11-.07S325.77,190,323.93,143.36s-36.44-74.31-76.11-74.31S173.54,96.7,171.7,143.36s-35.65,94.84-35.65,94.84l.13.06C111,268.74,95.43,307.55,95.43,345.16c0,79.13,68.23,143.28,152.39,143.28S400.2,424.29,400.2,345.16C400.2,307.55,384.67,268.75,359.47,238.27Z"/></svg>