<?xml version="1.0" encoding="UTF-8"?>
<svg version="1.1" xmlns="http://www.w3.org/2000/svg" width="256" height="256">
<path d="M0 0 C84.48 0 168.96 0 256 0 C256 84.48 256 168.96 256 256 C171.52 256 87.04 256 0 256 C0 171.52 0 87.04 0 0 Z " fill="#030303" transform="translate(0,0)"/>
<path d="M0 0 C2.97115031 1.2012164 5.25356507 2.95448897 7.80859375 4.8828125 C13.14530382 8.88892194 15.38986079 10.21556677 22.18359375 9.8828125 C24.62111529 9.29697041 27.04022223 8.62879843 29.43359375 7.8828125 C35.90581597 5.8828125 35.90581597 5.8828125 39.18359375 5.8828125 C37.83963686 10.17189979 36.1896818 14.14493436 34.24609375 18.1953125 C32.3882714 22.09807599 30.86872408 25.76022283 29.80859375 29.9453125 C29.01721433 32.56735275 28.63713116 33.58236789 26.33203125 35.109375 C24.91786314 35.74189383 23.49460803 36.35453497 22.0625 36.9453125 C19.89144135 37.85726417 19.89144135 37.85726417 18.12109375 40.5703125 C16.70724682 45.56590499 17.40008343 50.08744989 18.7890625 55.04296875 C19.18359375 56.8828125 19.18359375 56.8828125 18.24609375 58.6953125 C16.71481324 61.84794885 16.93653756 64.42402578 17.18359375 67.8828125 C17.53421875 68.5840625 17.88484375 69.2853125 18.24609375 70.0078125 C19.54610398 72.60783297 18.97426882 74.15138952 18.18359375 76.8828125 C17.85359375 77.5428125 17.52359375 78.2028125 17.18359375 78.8828125 C16.93776877 83.30766218 17.17393243 85.99746728 19.18359375 89.8828125 C18.84418639 92.19078251 18.22604144 93.79791711 17.18359375 95.8828125 C16.78588048 100.65537173 16.70905946 102.96763922 18.93359375 107.2578125 C21.12889912 109.8190021 22.12261777 110.71548541 25.18359375 111.8828125 C27.85956461 112.10345742 27.85956461 112.10345742 30.76171875 111.98046875 C31.84066406 111.97853516 32.91960937 111.97660156 34.03125 111.97460938 C36.28425831 111.95520919 38.53720973 111.9086966 40.7890625 111.83398438 C48.86835301 111.88682159 48.86835301 111.88682159 52.61865234 114.72680664 C54.69080848 117.01175671 56.46176488 119.32568536 58.18359375 121.8828125 C58.60060547 122.46506592 59.01761719 123.04731934 59.44726562 123.6472168 C74.64744768 145.74859057 85.91333616 178.75741316 82.18359375 205.8828125 C79.45622161 217.57527869 72.70682259 225.81096082 63.18359375 232.8828125 C60.8671875 234.11328125 60.8671875 234.11328125 58.62109375 235.0703125 C57.50541016 235.55564453 57.50541016 235.55564453 56.3671875 236.05078125 C51.39536145 237.94523375 46.72315453 238.03683524 41.44287109 238.04394531 C40.56102142 238.04891022 39.67917175 238.05387512 38.77059937 238.05899048 C35.85356869 238.0735921 32.93659247 238.08041206 30.01953125 238.0859375 C27.98654174 238.09169217 25.95355224 238.09744986 23.92056274 238.10321045 C19.65520984 238.11371584 15.38987574 238.11956101 11.12451172 238.12304688 C5.67742788 238.1285197 0.23059551 238.15252382 -5.21640968 238.18101883 C-9.41849475 238.19971103 -13.62052016 238.20485439 -17.82264328 238.20638275 C-19.82955672 238.20939677 -21.83646943 238.21738271 -23.84334183 238.23056793 C-26.66219004 238.24776046 -29.48043601 238.24571577 -32.29931641 238.23925781 C-33.11734741 238.2484726 -33.93537842 238.25768738 -34.77819824 238.2671814 C-46.26144016 238.18540856 -55.24612544 233.99302989 -63.6015625 226.22265625 C-71.60730037 217.56171733 -75.0220622 206.84681866 -74.92120361 195.24703979 C-74.76009039 191.61232744 -74.17405954 188.11264796 -73.49609375 184.54296875 C-73.35717209 183.78266861 -73.21825043 183.02236847 -73.07511902 182.23902893 C-72.62517255 179.80550358 -72.16046815 177.37522168 -71.69140625 174.9453125 C-71.53268036 174.11578064 -71.37395447 173.28624878 -71.2104187 172.43157959 C-66.18089941 146.33567858 -58.11846382 124.91088239 -39.56640625 105.2578125 C-33.19416452 98.34220133 -30.17293744 92.14991571 -28.37890625 82.9453125 C-27.18222289 77.13187915 -27.18222289 77.13187915 -23.87890625 74.8828125 C-22.36296875 74.3878125 -22.36296875 74.3878125 -20.81640625 73.8828125 C-14.99577929 67.59024281 -15.57313948 61.73521762 -15.50390625 53.5703125 C-15.47490234 52.44173828 -15.44589844 51.31316406 -15.41601562 50.15039062 C-15.36711552 43.75952296 -15.3935126 39.67162901 -19.81640625 34.8828125 C-22.81930803 32.61531524 -25.25139973 31.07114801 -28.81640625 29.8828125 C-29.89135742 27.88916016 -29.89135742 27.88916016 -30.859375 25.296875 C-31.21064453 24.36617187 -31.56191406 23.43546875 -31.92382812 22.4765625 C-32.28025391 21.496875 -32.63667969 20.5171875 -33.00390625 19.5078125 C-33.37193359 18.53585938 -33.73996094 17.56390625 -34.11914062 16.5625 C-36.81640625 9.3164135 -36.81640625 9.3164135 -36.81640625 5.8828125 C-36.12675781 6.08777344 -35.43710938 6.29273438 -34.7265625 6.50390625 C-23.31181887 10.25912147 -23.31181887 10.25912147 -12.12890625 7.7578125 C-9.36366215 6.04278306 -6.92593721 4.17425225 -4.50390625 2.0078125 C-1.81640625 -0.1171875 -1.81640625 -0.1171875 0 0 Z " fill="#24AF4D" transform="translate(147.81640625,9.1171875)"/>
<path d="M0 0 C47.52 0 95.04 0 144 0 C133.44078947 10.55921053 133.44078947 10.55921053 127.95703125 11.26171875 C124.24702877 10.88405383 120.92862826 9.63322389 117.4375 8.375 C113.28656012 6.91966184 110.30799785 6.70760064 106 8 C103.79573513 9.38239295 103.79573513 9.38239295 103 12 C102.88268218 19.03906914 105.29978013 24.93519848 108.00366211 31.32714844 C109.61919819 35.28557406 110.38888142 37.8812482 109 42 C107.515 42.495 107.515 42.495 106 43 C105.75894531 43.76441406 105.51789063 44.52882812 105.26953125 45.31640625 C103.44151719 49.18054674 100.40679593 50.24691094 96.6875 51.9375 C95.71973633 52.4005957 95.71973633 52.4005957 94.73242188 52.87304688 C93.30843821 53.55015726 91.87304824 54.20355432 90.42993164 54.83886719 C87.94210547 55.96734122 87.94210547 55.96734122 85.55249023 57.55957031 C73.71499861 64.42787215 59.94418973 62.89188643 46.6875 62.875 C44.09698501 62.89314835 41.50648721 62.91395769 38.91601562 62.9375 C32.61054826 62.9890594 26.30565911 63.00759909 20 63 C18.70664486 65.58671028 18.87293924 67.45546784 18.87060547 70.35180664 C18.86745331 71.46959 18.86430115 72.58737335 18.86105347 73.73902893 C18.8630777 74.95050095 18.86510193 76.16197296 18.8671875 77.41015625 C18.86623077 78.6479332 18.86527405 79.88571014 18.86428833 81.16099548 C18.86343201 84.4535191 18.86746684 87.7459958 18.87304688 91.03851318 C18.87499943 93.06190488 18.87305227 95.08525326 18.86962891 97.10864258 C18.86347751 100.98000119 18.86419286 104.85129503 18.8671875 108.72265625 C18.86516327 109.9361525 18.86313904 111.14964874 18.86105347 112.3999176 C18.86420563 113.5145488 18.86735779 114.62917999 18.87060547 115.77758789 C18.87140106 116.76416885 18.87219666 117.75074982 18.87301636 118.76722717 C18.74982337 120.97176198 18.74982337 120.97176198 20 122 C21.66030205 122.09690932 23.3246653 122.12515838 24.98779297 122.12597656 C26.05335419 122.12978333 27.11891541 122.13359009 28.21676636 122.13751221 C29.38015533 122.13853943 30.54354431 122.13956665 31.7421875 122.140625 C34.19532167 122.15896828 36.6484469 122.17853997 39.1015625 122.19921875 C42.97671375 122.22807938 46.85129716 122.249997 50.7265625 122.25048828 C54.46145237 122.25384355 58.19502758 122.28853927 61.9296875 122.328125 C63.07283417 122.3210553 64.21598083 122.3139856 65.39376831 122.30670166 C73.29062155 122.42486051 79.08416184 124.1983543 86 128 C84.22079333 133.76708368 81.63315839 138.97518292 78.94921875 144.3671875 C73.68733661 156.11793776 70.9143573 168.75644883 68.6875 181.375 C68.55925842 182.09134613 68.43101685 182.80769226 68.29888916 183.54574585 C64.87630229 202.88059064 63.45839602 219.42430664 75.03125 236.46484375 C83.0734697 246.8207973 94.14540869 252.85756811 107 255 C107 255.33 107 255.66 107 256 C71.69 256 36.38 256 0 256 C0 171.52 0 87.04 0 0 Z " fill="#99D8E9" transform="translate(0,0)"/>
<path d="M0 0 C34.98 0 69.96 0 106 0 C106 84.48 106 168.96 106 256 C86.53 256 67.06 256 47 256 C47 255.67 47 255.34 47 255 C48.25103516 254.65388672 48.25103516 254.65388672 49.52734375 254.30078125 C64.05401301 250.09087595 74.17438189 244.18862912 82 231 C89.17230811 216.34194101 88.82009257 203.30551364 85.875 187.5 C85.64981689 186.27893555 85.42463379 185.05787109 85.19262695 183.79980469 C80.86659521 161.19232171 73.70352553 138.15862095 57.375 121.125 C56.59125 120.09375 55.8075 119.0625 55 118 C55.6875 115.125 55.6875 115.125 57 112 C56.94713902 108.2204399 56.42804902 104.51206928 55.3984375 100.875 C54.82600644 98.18120678 55.97909589 96.52223367 57 94 C57.25962794 90.81955772 57.37354602 88.74709205 55.9375 85.875 C55 84 55 84 55.3125 81.9375 C55.539375 81.298125 55.76625 80.65875 56 80 C57.53537485 75.39387546 57.52345869 71.4540519 55.875 66.875 C55 64 55 64 55.9375 61.6875 C57.48379412 57.77628547 57.35690332 53.98206803 56 50 C53.36391224 46.5104662 51.28358429 44.77942515 47.01171875 44.07421875 C45.57247539 43.92306534 44.13069431 43.79454658 42.6875 43.6875 C41.94693359 43.61466797 41.20636719 43.54183594 40.44335938 43.46679688 C38.6307149 43.29137967 36.81549459 43.14293553 35 43 C36.02962571 35.79262006 38.74247575 30.1421462 42.25585938 23.84960938 C44.65341907 19.38442939 45.49508292 16.19202344 45 11 C44.505 9.515 44.505 9.515 44 8 C36.38737342 6.38626349 30.62152317 7.64553243 23.296875 10.08984375 C19.87154641 11.03546171 17.52192263 11.4773132 14 11 C10.859375 9.1015625 10.859375 9.1015625 7.75 6.625 C6.71359375 5.81289062 5.6771875 5.00078125 4.609375 4.1640625 C2 2 2 2 0 0 Z " fill="#99D8E9" transform="translate(150,0)"/>
<path d="M0 0 C0.02578125 1.15757813 0.0515625 2.31515625 0.078125 3.5078125 C0.13443349 5.04691128 0.1917802 6.58597233 0.25 8.125 C0.26417969 8.88554688 0.27835938 9.64609375 0.29296875 10.4296875 C0.47499939 14.6527983 0.74513749 16.61953978 3.171875 20.2421875 C3.77515625 21.15226562 4.3784375 22.06234375 5 23 C4.34 24.65 3.68 26.3 3 28 C-6.9 28 -16.8 28 -27 28 C-27 30.97 -27 33.94 -27 37 C-22.35505142 36.88171792 -17.71031535 36.75746726 -13.06567383 36.62768555 C-11.48563985 36.58437695 -9.90556031 36.54269894 -8.32543945 36.50268555 C-6.05405952 36.44488417 -3.78290811 36.3812184 -1.51171875 36.31640625 C-0.80536789 36.29969376 -0.09901703 36.28298126 0.6287384 36.26576233 C3.6664824 36.1740253 6.09623058 35.96792314 9 35 C6.93918786 42.21284251 3.00457927 47.19871601 -2.0625 52.625 C-4.88261524 55.6529132 -7.58984189 58.6336808 -10 62 C-11.396478 61.54363464 -12.7921508 61.08480512 -14.1875 60.625 C-15.35345703 60.24214844 -15.35345703 60.24214844 -16.54296875 59.8515625 C-19 59 -19 59 -21.28125 57.97265625 C-24.30238015 56.89182089 -26.75506121 56.68445966 -29.95703125 56.5859375 C-30.95968018 56.55032715 -31.9623291 56.5147168 -32.99536133 56.47802734 C-34.88484497 56.42702881 -34.88484497 56.42702881 -36.8125 56.375 C-40.834375 56.25125 -44.85625 56.1275 -49 56 C-49 41.48 -49 26.96 -49 12 C-45.514375 12.061875 -42.02875 12.12375 -38.4375 12.1875 C-25.25794401 12.01556491 -15.26179026 7.4130017 -3.95751953 0.99389648 C-2 0 -2 0 0 0 Z " fill="#E9B18B" transform="translate(102,59)"/>
<path d="M0 0 C2.5 0.25 2.5 0.25 4.5 2.25 C4.561875 3.384375 4.62375 4.51875 4.6875 5.6875 C4.955625 6.863125 5.22375 8.03875 5.5 9.25 C8.26629341 10.71845196 8.26629341 10.71845196 10.37890625 11.38671875 C14.64643536 13.12359524 18.33850453 15.91989144 21.5 19.25 C22.0625 22.6875 22.0625 22.6875 21.5 25.25 C16.20355475 26.65470939 16.20355475 26.65470939 13.0078125 24.81640625 C12.22148437 24.15511719 11.43515625 23.49382812 10.625 22.8125 C6.32969779 19.57340307 6.32969779 19.57340307 1.1875 18.5 C-3.33960095 19.42076629 -4.90421298 20.43743781 -7.5 24.25 C-8.33345815 27.79295504 -8.33345815 27.79295504 -7.5 31.25 C-3.26244859 35.28728905 1.85583524 37.62334974 7.06054688 40.16210938 C12.23678395 42.79964927 15.59555025 45.53665075 17.5 51.25 C18.28448812 57.7702537 17.28215877 62.83992175 13.5 68.25 C10.67201647 71.00728395 8.43787261 72.66661146 4.5 73.25 C4.54125 74.52875 4.5825 75.8075 4.625 77.125 C4.6953125 79.3046875 4.6953125 79.3046875 4.5 81.25 C2.5 83.25 2.5 83.25 0 83.5 C-2.5 83.25 -2.5 83.25 -4.5 81.25 C-4.625 77.625 -4.625 77.625 -4.5 74.25 C-5.44875 74.085 -6.3975 73.92 -7.375 73.75 C-12.86827362 72.18210466 -17.72560938 68.46486277 -21.5 64.25 C-21.91015625 61.61328125 -21.91015625 61.61328125 -21.5 59.25 C-20.84 58.59 -20.18 57.93 -19.5 57.25 C-15.18228036 57.52998865 -12.5726616 59.39544968 -9.125 61.875 C-5.48144125 64.26317377 -3.9899524 65.22666893 0.4375 65.4375 C3.88879076 64.0992444 5.49391431 63.37949368 7.5 60.25 C8.01578624 57.34284122 7.83522824 55.26705419 7.5 52.25 C5.55495591 49.8017935 3.4199909 48.54332255 0.62890625 47.19921875 C-0.11037109 46.82990234 -0.84964844 46.46058594 -1.61132812 46.08007812 C-3.15434531 45.32217296 -4.70122251 44.57207328 -6.25195312 43.83007812 C-12.17468251 40.84551736 -15.34244325 37.72267025 -17.5 31.25 C-18.20377152 24.44687531 -16.83645629 19.64097916 -12.5 14.25 C-10.64453125 13.07421875 -10.64453125 13.07421875 -8.75 12.1875 C-5.39474177 10.67934343 -5.39474177 10.67934343 -4.90234375 8.30859375 C-4.70416139 6.2943403 -4.59782005 4.27161431 -4.5 2.25 C-2.5 0.25 -2.5 0.25 0 0 Z " fill="#020302" transform="translate(150.5,145.75)"/>
<path d="M0 0 C5.94 0 11.88 0 18 0 C18 14.85 18 29.7 18 45 C12.06 45 6.12 45 0 45 C0 30.15 0 15.3 0 0 Z " fill="#59949D" transform="translate(27,70)"/>
<path d="M0 0 C1.69384766 1.19946289 1.69384766 1.19946289 3 3 C3.38818359 5.38842773 3.38818359 5.38842773 3.3984375 8.18359375 C3.40230469 9.19357422 3.40617187 10.20355469 3.41015625 11.24414062 C3.39855469 12.29794922 3.38695313 13.35175781 3.375 14.4375 C3.38660156 15.48744141 3.39820312 16.53738281 3.41015625 17.61914062 C3.40628906 18.63041016 3.40242188 19.64167969 3.3984375 20.68359375 C3.39505371 21.60712646 3.39166992 22.53065918 3.38818359 23.48217773 C2.92569428 26.48195905 2.13472541 27.85881318 0 30 C-3.5 30.5 -3.5 30.5 -7 30 C-9.95216552 27.03889884 -10.3834035 24.78680234 -10.3984375 20.68359375 C-10.40230469 19.67232422 -10.40617187 18.66105469 -10.41015625 17.61914062 C-10.39855469 16.56919922 -10.38695313 15.51925781 -10.375 14.4375 C-10.38660156 13.38369141 -10.39820312 12.32988281 -10.41015625 11.24414062 C-10.40628906 10.23416016 -10.40242188 9.22417969 -10.3984375 8.18359375 C-10.39505371 7.26118896 -10.39166992 6.33878418 -10.38818359 5.38842773 C-10 3 -10 3 -8.69384766 1.19946289 C-5.86013193 -0.8071738 -3.34303079 -0.35818187 0 0 Z " fill="#F3B990" transform="translate(121,48)"/>
<path d="M0 0 C1.46566406 -0.00386719 1.46566406 -0.00386719 2.9609375 -0.0078125 C3.98445312 -0.00007813 5.00796875 0.00765625 6.0625 0.015625 C7.08601562 0.00789063 8.10953125 0.00015625 9.1640625 -0.0078125 C10.14117187 -0.00523438 11.11828125 -0.00265625 12.125 0 C13.02347656 0.00225586 13.92195313 0.00451172 14.84765625 0.00683594 C17.0625 0.265625 17.0625 0.265625 19.0625 2.265625 C19.3125 4.765625 19.3125 4.765625 19.0625 7.265625 C16.53195663 9.79616837 15.62701118 9.52245729 12.125 9.53125 C11.14789063 9.53382812 10.17078125 9.53640625 9.1640625 9.5390625 C8.14054688 9.53132813 7.11703125 9.52359375 6.0625 9.515625 C5.03898438 9.52335937 4.01546875 9.53109375 2.9609375 9.5390625 C1.98382813 9.53648438 1.00671875 9.53390625 0 9.53125 C-0.89847656 9.52899414 -1.79695312 9.52673828 -2.72265625 9.52441406 C-4.9375 9.265625 -4.9375 9.265625 -6.9375 7.265625 C-7.1875 4.765625 -7.1875 4.765625 -6.9375 2.265625 C-4.40695663 -0.26491837 -3.50201118 0.00879271 0 0 Z " fill="#EEB58D" transform="translate(179.9375,86.734375)"/>
<path d="M0 0 C1.46566406 -0.00386719 1.46566406 -0.00386719 2.9609375 -0.0078125 C3.98445312 -0.00007813 5.00796875 0.00765625 6.0625 0.015625 C7.08601562 0.00789063 8.10953125 0.00015625 9.1640625 -0.0078125 C10.14117187 -0.00523438 11.11828125 -0.00265625 12.125 0 C13.02347656 0.00225586 13.92195313 0.00451172 14.84765625 0.00683594 C17.0625 0.265625 17.0625 0.265625 19.0625 2.265625 C19.375 4.765625 19.375 4.765625 19.0625 7.265625 C15.8465895 9.40956534 14.95219066 9.52142974 11.24609375 9.53125 C9.85293945 9.53511719 9.85293945 9.53511719 8.43164062 9.5390625 C7.46419922 9.53132813 6.49675781 9.52359375 5.5 9.515625 C4.04303711 9.52722656 4.04303711 9.52722656 2.55664062 9.5390625 C1.62916016 9.53648438 0.70167969 9.53390625 -0.25390625 9.53125 C-1.10412354 9.52899414 -1.95434082 9.52673828 -2.83032227 9.52441406 C-4.9375 9.265625 -4.9375 9.265625 -6.9375 7.265625 C-7.1875 4.765625 -7.1875 4.765625 -6.9375 2.265625 C-4.40695663 -0.26491837 -3.50201118 0.00879271 0 0 Z " fill="#EBB28B" transform="translate(179.9375,104.734375)"/>
<path d="M0 0 C1.46566406 -0.00386719 1.46566406 -0.00386719 2.9609375 -0.0078125 C3.98445312 -0.00007813 5.00796875 0.00765625 6.0625 0.015625 C7.08601562 0.00789063 8.10953125 0.00015625 9.1640625 -0.0078125 C10.14117187 -0.00523438 11.11828125 -0.00265625 12.125 0 C13.02347656 0.00225586 13.92195313 0.00451172 14.84765625 0.00683594 C17.0625 0.265625 17.0625 0.265625 19.0625 2.265625 C19.375 4.765625 19.375 4.765625 19.0625 7.265625 C15.8465895 9.40956534 14.95219066 9.52142974 11.24609375 9.53125 C9.85293945 9.53511719 9.85293945 9.53511719 8.43164062 9.5390625 C7.46419922 9.53132813 6.49675781 9.52359375 5.5 9.515625 C4.04303711 9.52722656 4.04303711 9.52722656 2.55664062 9.5390625 C1.62916016 9.53648438 0.70167969 9.53390625 -0.25390625 9.53125 C-1.10412354 9.52899414 -1.95434082 9.52673828 -2.83032227 9.52441406 C-4.9375 9.265625 -4.9375 9.265625 -6.9375 7.265625 C-7.1875 4.765625 -7.1875 4.765625 -6.9375 2.265625 C-4.40695663 -0.26491837 -3.50201118 0.00879271 0 0 Z " fill="#EBB28B" transform="translate(179.9375,51.734375)"/>
<path d="M0 0 C1.00023193 0.00523682 2.00046387 0.01047363 3.03100586 0.01586914 C4.1105957 0.0190918 5.19018555 0.02231445 6.30249023 0.02563477 C8.00695312 0.03820312 8.00695312 0.03820312 9.74584961 0.05102539 C11.45611328 0.05779297 11.45611328 0.05779297 13.20092773 0.06469727 C16.02845312 0.07652792 18.85587601 0.09301129 21.68334961 0.11352539 C22.30834961 2.98852539 22.30834961 2.98852539 22.68334961 6.11352539 C20.15280624 8.64406876 19.24786079 8.37035768 15.74584961 8.37915039 C14.76874023 8.38172852 13.79163086 8.38430664 12.78491211 8.38696289 C11.76139648 8.37922852 10.73788086 8.37149414 9.68334961 8.36352539 C8.65983398 8.37125977 7.63631836 8.37899414 6.58178711 8.38696289 C5.60467773 8.38438477 4.62756836 8.38180664 3.62084961 8.37915039 C2.72237305 8.37689453 1.82389648 8.37463867 0.89819336 8.37231445 C-1.31665039 8.11352539 -1.31665039 8.11352539 -3.31665039 6.11352539 C-3.50415039 3.55102539 -3.50415039 3.55102539 -3.31665039 1.11352539 C-2.31665039 0.11352539 -2.31665039 0.11352539 0 0 Z " fill="#F3B990" transform="translate(176.316650390625,69.886474609375)"/>
</svg>
