<svg width="256" height="256" viewBox="0 0 256 256" fill="none" xmlns="http://www.w3.org/2000/svg">
<path d="M128 256C198.692 256 256 198.692 256 128C256 57.3075 198.692 0 128 0C57.3075 0 0 57.3075 0 128C0 198.692 57.3075 256 128 256Z" fill="white"/>
<path d="M128.168 0.0172119C57.5768 0.0172119 0.336914 57.4104 0.336914 128.191C0.336914 176.127 26.5665 217.887 65.4156 239.868C104.351 226.783 114.601 192.623 117.272 176.256C117.789 172.888 118.09 169.821 118.219 167.274C118.392 164.682 118.392 162.566 118.349 161.098H118.262L120.416 157.125L112.965 157.168L106.633 137.087L105.944 157.211L85.6584 169.476L85.5292 150.172L103.748 120.59C104.609 61.9016 127.996 49.8961 128.125 49.8098C128.212 49.8961 151.598 61.9016 152.503 120.59L170.722 150.172L170.592 169.476L150.306 157.211L149.617 137.087L143.329 157.125L135.878 157.082L138.031 161.055H137.945C137.902 162.523 137.945 164.639 138.075 167.23C138.204 169.778 138.505 172.844 139.022 176.213C141.692 192.58 151.943 226.74 190.921 239.868C229.77 217.887 256 176.127 256 128.191C256 57.4104 198.76 0.0172119 128.168 0.0172119Z" fill="#FFDD55"/>
<g filter="url(#filter0_f_35_74)">
<path d="M234.163 129.227C234.163 70.5388 186.7 22.9918 128.211 22.9918C69.6793 22.9918 22.2593 70.5819 22.2593 129.227C22.2593 173.751 49.6087 211.884 88.3716 227.69C108.83 211.754 115.333 188.78 117.358 176.213C117.875 172.845 118.176 169.778 118.305 167.23C118.477 164.639 118.477 162.523 118.434 161.055H118.348L120.502 157.082L113.051 157.125L106.719 137.001L106.03 157.125L85.7443 169.39L85.6151 150.086L103.834 120.504C104.695 61.8153 128.082 49.8098 128.211 49.7235C128.297 49.8098 151.684 61.8153 152.589 120.504L170.807 150.086L170.678 169.39L150.392 157.125L149.703 137.001L143.372 157.082L135.921 157.039L138.074 161.012H137.988C137.945 162.48 137.988 164.596 138.117 167.187C138.247 169.735 138.548 172.801 139.065 176.17C141.132 188.693 147.636 211.668 168.051 227.647C206.814 211.884 234.163 173.751 234.163 129.227V129.227Z" fill="#FFE680"/>
<path d="M234.163 129.227C234.163 70.5388 186.7 22.9918 128.211 22.9918C69.6793 22.9918 22.2593 70.5819 22.2593 129.227C22.2593 173.751 49.6087 211.884 88.3716 227.69C108.83 211.754 115.333 188.78 117.358 176.213C117.875 172.845 118.176 169.778 118.305 167.23C118.477 164.639 118.477 162.523 118.434 161.055H118.348L120.502 157.082L113.051 157.125L106.719 137.001L106.03 157.125L85.7443 169.39L85.6151 150.086L103.834 120.504C104.695 61.8153 128.082 49.8098 128.211 49.7235C128.297 49.8098 151.684 61.8153 152.589 120.504L170.807 150.086L170.678 169.39L150.392 157.125L149.703 137.001L143.372 157.082L135.921 157.039L138.074 161.012H137.988C137.945 162.48 137.988 164.596 138.117 167.187C138.247 169.735 138.548 172.801 139.065 176.17C141.132 188.693 147.636 211.668 168.051 227.647C206.814 211.884 234.163 173.751 234.163 129.227V129.227Z" stroke="#E3DEDB" stroke-width="0.12066"/>
</g>
<path d="M52.581 145.163C49.0492 145.163 45.6898 146.07 42.761 147.624C39.4446 144.429 34.9654 142.485 30.0554 142.485C19.8909 142.485 11.6646 150.734 11.6646 160.925C11.6646 171.117 19.8909 179.365 30.0554 179.365C31.9505 179.365 33.7594 179.063 35.4822 178.545C39.3154 183.9 45.5606 187.398 52.6241 187.398C64.2529 187.398 73.6852 177.94 73.6852 166.28C73.6422 154.62 64.2099 145.163 52.581 145.163V145.163Z" fill="#FFDD55"/>
<path d="M72.0052 225.012C87.7997 225.012 100.604 212.174 100.604 196.337C100.604 180.501 87.7997 167.662 72.0052 167.662C56.2107 167.662 43.4067 180.501 43.4067 196.337C43.4067 212.174 56.2107 225.012 72.0052 225.012Z" fill="#FFD42A"/>
<path d="M84.926 197.417C80.2314 193.703 74.2878 191.457 67.8273 191.457C65.4584 191.457 63.1327 191.76 60.9361 192.321C60.9792 191.544 61.0222 190.766 61.0222 189.989C61.0222 169.433 44.4403 152.807 23.939 152.807C16.5741 152.807 9.72596 154.966 3.95459 158.68C12.4394 193.487 35.0511 222.723 65.4154 239.868C97.1579 229.201 109.864 204.499 114.903 186.88C112.189 185.886 109.304 185.325 106.246 185.325C97.201 185.325 89.2761 190.205 84.926 197.417V197.417Z" fill="#FFCC00"/>
<path d="M65.4155 239.868C78.9825 235.29 89.0609 228.165 96.5551 220.132C92.808 220.046 88.9317 220.78 85.2707 222.335C83.0742 223.285 81.093 224.451 79.284 225.833C79.0256 225.099 78.7672 224.364 78.4226 223.63C70.4116 204.715 48.6613 195.905 29.7967 203.938C28.5907 204.456 27.4709 205.017 26.3511 205.622C36.9032 219.571 50.1687 231.231 65.4155 239.868V239.868Z" fill="url(#paint0_linear_35_74)"/>
<path d="M203.24 145.163C206.771 145.163 210.131 146.07 213.059 147.624C216.376 144.429 220.855 142.485 225.765 142.485C235.93 142.485 244.156 150.734 244.156 160.925C244.156 171.117 235.93 179.365 225.765 179.365C223.87 179.365 222.061 179.063 220.338 178.545C216.505 183.9 210.26 187.398 203.196 187.398C191.568 187.398 182.135 177.94 182.135 166.28C182.178 154.62 191.611 145.163 203.24 145.163V145.163Z" fill="#FFDD55"/>
<path d="M183.815 225.012C199.609 225.012 212.413 212.174 212.413 196.337C212.413 180.501 199.609 167.662 183.815 167.662C168.02 167.662 155.216 180.501 155.216 196.337C155.216 212.174 168.02 225.012 183.815 225.012Z" fill="#FFD42A"/>
<path d="M171.497 197.417C176.191 193.703 182.135 191.457 188.595 191.457C190.964 191.457 193.29 191.76 195.487 192.321C195.444 191.544 195.4 190.766 195.4 189.989C195.4 169.433 211.982 152.807 232.484 152.807C239.849 152.807 246.697 154.966 252.468 158.68C243.983 193.487 221.372 222.723 191.007 239.868C159.265 229.201 146.559 204.499 141.52 186.88C144.233 185.886 147.119 185.325 150.177 185.325C159.222 185.325 167.147 190.205 171.497 197.417V197.417Z" fill="#FFCC00"/>
<path d="M191.008 239.868C177.441 235.29 167.362 228.165 159.868 220.132C163.615 220.046 167.492 220.78 171.152 222.335C173.349 223.285 175.33 224.451 177.139 225.833C177.398 225.099 177.656 224.364 178.001 223.63C186.012 204.715 207.762 195.905 226.627 203.938C227.833 204.456 228.952 205.017 230.072 205.622C219.563 219.571 206.254 231.231 191.008 239.868V239.868Z" fill="url(#paint1_linear_35_74)"/>
<path d="M128.168 112.04C134.805 112.04 140.185 106.645 140.185 99.9911C140.185 93.3368 134.805 87.9424 128.168 87.9424C121.532 87.9424 116.152 93.3368 116.152 99.9911C116.152 106.645 121.532 112.04 128.168 112.04Z" fill="#FFD42A"/>
<path d="M183.815 123.786C196.922 123.786 207.547 113.133 207.547 99.991C207.547 86.8493 196.922 76.1959 183.815 76.1959C170.708 76.1959 160.083 86.8493 160.083 99.991C160.083 113.133 170.708 123.786 183.815 123.786Z" fill="url(#paint2_linear_35_74)"/>
<path d="M69.1194 138.944C77.4448 138.944 84.1939 132.177 84.1939 123.829C84.1939 115.482 77.4448 108.714 69.1194 108.714C60.794 108.714 54.0449 115.482 54.0449 123.829C54.0449 132.177 60.794 138.944 69.1194 138.944Z" fill="url(#paint3_linear_35_74)"/>
<path d="M165.338 63.8449C179.253 63.8449 190.534 52.5342 190.534 38.5816C190.534 24.629 179.253 13.3182 165.338 13.3182C151.423 13.3182 140.142 24.629 140.142 38.5816C140.142 52.5342 151.423 63.8449 165.338 63.8449Z" fill="url(#paint4_linear_35_74)"/>
<path d="M128.168 87.9855C121.536 87.9855 116.152 93.3836 116.152 100.034C116.152 106.685 121.536 112.083 128.168 112.083V87.9855Z" fill="#FFCC00"/>
<path d="M80.7485 68.8113L90.2238 69.5454L80.7485 70.2796L80.0163 79.8235L79.2841 70.2796L69.7656 69.5454L79.2841 68.8113L80.0163 59.2673L80.7485 68.8113Z" fill="white"/>
<path d="M197.985 48.7733L211.078 49.7666L197.985 50.7598L196.994 63.8881L196.003 50.7598L182.91 49.7666L196.003 48.7733L196.994 35.645L197.985 48.7733Z" fill="white"/>
<path d="M222.147 117.783L228.694 118.258L222.147 118.777L221.63 125.341L221.156 118.777L214.61 118.258L221.156 117.783L221.63 111.219L222.147 117.783Z" fill="white"/>
<path d="M36.86 171.506L43.4066 172.024L36.86 172.499L36.3862 179.063L35.8694 172.499L29.3228 172.024L35.8694 171.506L36.3862 164.942L36.86 171.506Z" fill="white"/>
<path d="M15.67 89.9289L22.2167 90.4039L15.67 90.9222L15.1963 97.4863L14.6794 90.9222L8.13281 90.4039L14.6794 89.9289L15.1963 83.3647L15.67 89.9289Z" fill="white"/>
<path d="M73.0822 123.268L80.0165 123.829L73.0822 124.347L72.5654 131.257L72.0485 124.347L65.1143 123.829L72.0485 123.268L72.5654 116.358L73.0822 123.268Z" fill="white"/>
<path d="M107.753 23.5532L120.804 24.5464L107.753 25.5397L106.763 38.5816L105.772 25.5397L92.7651 24.5464L105.772 23.5532L106.763 10.5112L107.753 23.5532Z" fill="white"/>
<path d="M226.152 175.306L238.04 176.213L226.152 177.12L225.248 189.082L224.3 177.12L212.413 176.213L224.3 175.306L225.248 163.387L226.152 175.306Z" fill="white"/>
<defs>
<filter id="filter0_f_35_74" x="21.7705" y="22.5032" width="212.881" height="205.684" filterUnits="userSpaceOnUse" color-interpolation-filters="sRGB">
<feFlood flood-opacity="0" result="BackgroundImageFix"/>
<feBlend mode="normal" in="SourceGraphic" in2="BackgroundImageFix" result="shape"/>
<feGaussianBlur stdDeviation="0.214135" result="effect1_foregroundBlur_35_74"/>
</filter>
<linearGradient id="paint0_linear_35_74" x1="53.6829" y1="208.922" x2="33.192" y2="224.033" gradientUnits="userSpaceOnUse">
<stop stop-color="#FFDD55"/>
<stop offset="1" stop-color="#FFDD55" stop-opacity="0"/>
</linearGradient>
<linearGradient id="paint1_linear_35_74" x1="193.88" y1="211.707" x2="203.49" y2="233.661" gradientUnits="userSpaceOnUse">
<stop stop-color="#FFDD55"/>
<stop offset="1" stop-color="#FFDD55" stop-opacity="0"/>
</linearGradient>
<linearGradient id="paint2_linear_35_74" x1="180.685" y1="78.9429" x2="183.338" y2="133.409" gradientUnits="userSpaceOnUse">
<stop stop-color="#FFDD55"/>
<stop offset="1" stop-color="#FFDD55" stop-opacity="0"/>
</linearGradient>
<linearGradient id="paint3_linear_35_74" x1="72.565" y1="116.358" x2="72.565" y2="131.257" gradientUnits="userSpaceOnUse">
<stop stop-color="#FFD42A"/>
<stop offset="1" stop-color="#FFD42A" stop-opacity="0"/>
</linearGradient>
<linearGradient id="paint4_linear_35_74" x1="164.191" y1="20.7619" x2="162.202" y2="56.0413" gradientUnits="userSpaceOnUse">
<stop stop-color="#FFEEAA"/>
<stop offset="1" stop-color="#FFEEAA" stop-opacity="0"/>
</linearGradient>
</defs>
</svg>
