<svg width="256" height="256" viewBox="0 0 256 256" fill="none" xmlns="http://www.w3.org/2000/svg">
<circle cx="128" cy="128" r="128" fill="#042BAB"/>
<path fill-rule="evenodd" clip-rule="evenodd" d="M135.549 54.8857C123.311 62.7191 113.57 72.526 109.122 81.471C102.557 94.688 106.188 108.298 117.851 114.196C119.273 114.907 119.598 114.642 118.38 113.75C110.756 108.155 109.75 97.0395 115.96 87.036C118.524 82.9152 123.826 76.972 127.971 73.5695C129.574 72.2463 129.695 72.2387 129.499 73.4787C128.273 81.4483 131.284 88.8432 139.142 97.1756C144.611 102.975 144.716 107.3 139.49 112.396C137.917 113.939 138.083 114.03 140.307 112.865C147.099 109.311 150.245 105.062 150.079 99.6709L150.003 97.3496L146.978 91.172C141.54 80.0873 139.165 72.4807 138.318 63.5282C138.076 60.9271 138.159 54.7647 138.454 53.759C138.673 53.0029 138.197 53.1844 135.549 54.8857ZM125.868 107.897C125.573 108.177 125.308 108.434 125.286 108.465C125.255 108.502 125.187 111.504 125.127 115.134L125.013 121.742L123.569 121.682C121.3 121.576 117.813 120.895 112.155 119.459C103.616 117.281 103.442 117.341 103.177 122.385C103.079 124.192 103.026 141.923 103.064 161.802L103.124 197.929L103.578 198.92C105.34 202.738 106.369 202.957 123.153 203.116C147.81 203.35 150.45 203.003 152.409 199.275L152.893 198.345V159.011C152.893 128.517 152.84 119.58 152.643 119.239C151.758 117.689 149.217 117.765 141.948 119.557C136.828 120.82 132.32 121.636 130.444 121.636H129.468L129.347 108.389L128.772 107.89C127.963 107.202 126.624 107.202 125.868 107.897Z" fill="#FBFBFB"/>
</svg>
