<?xml version="1.0" encoding="UTF-8"?>
<svg xmlns="http://www.w3.org/2000/svg" xmlns:xlink="http://www.w3.org/1999/xlink" width="256px" height="256px" viewBox="0 0 256 256" version="1.1">
<g id="surface1">
<path style=" stroke:none;fill-rule:evenodd;fill:rgb(1.568627%,16.862745%,67.058824%);fill-opacity:1;" d="M 124.746094 61.941406 C 120.566406 62.230469 117.898438 62.582031 113.8125 63.371094 C 109.960938 64.113281 103.460938 66.347656 99.289062 68.363281 C 96.28125 69.8125 91.601562 72.621094 89.316406 74.347656 C 88.578125 74.902344 87.679688 75.570312 87.320312 75.828125 C 85.449219 77.167969 81.542969 80.765625 79.5 83.039062 C 78.96875 83.625 78.398438 84.253906 78.230469 84.4375 C 77.488281 85.230469 76.671875 86.21875 75.816406 87.359375 C 75.308594 88.035156 74.710938 88.828125 74.480469 89.121094 C 72.503906 91.664062 68.789062 98.042969 67.648438 100.851562 C 67.53125 101.148438 67.230469 101.867188 66.984375 102.453125 C 65.394531 106.257812 63.632812 111.894531 63.257812 114.386719 C 63.203125 114.746094 63.011719 115.902344 62.832031 116.953125 C 61.390625 125.355469 61.597656 133.621094 63.484375 142.667969 C 64.132812 145.773438 65.410156 149.75 66.984375 153.546875 C 67.230469 154.132812 67.484375 154.753906 67.554688 154.925781 C 68.109375 156.304688 70.386719 160.589844 71.585938 162.507812 C 71.695312 162.683594 71.828125 162.921875 71.882812 163.039062 C 72.070312 163.457031 74.046875 166.332031 74.964844 167.523438 C 75.476562 168.191406 76.234375 169.183594 76.652344 169.726562 C 77.851562 171.296875 81.535156 175.21875 82.878906 176.367188 C 83.144531 176.589844 83.648438 177.046875 84 177.382812 C 84.890625 178.226562 86.707031 179.75 87.324219 180.167969 C 87.609375 180.359375 88.152344 180.761719 88.53125 181.070312 C 89.253906 181.644531 89.75 182 91.359375 183.089844 C 92.550781 183.894531 93.398438 184.410156 95.574219 185.648438 C 98.910156 187.546875 101.175781 188.585938 105.601562 190.246094 C 115.5 193.957031 127.351562 195.046875 138.613281 193.277344 C 143.949219 192.4375 147.320312 191.507812 152.523438 189.425781 C 156.449219 187.855469 157.730469 187.238281 161.066406 185.289062 C 161.625 184.964844 162.246094 184.609375 162.445312 184.5 C 163.566406 183.886719 167.546875 181.132812 167.9375 180.703125 C 168.050781 180.582031 168.1875 180.480469 168.246094 180.480469 C 168.308594 180.480469 168.429688 180.410156 168.523438 180.320312 C 168.617188 180.234375 169.105469 179.839844 169.613281 179.441406 C 170.554688 178.699219 172.84375 176.671875 174.332031 175.253906 C 175.84375 173.8125 179.183594 170.050781 180.105469 168.746094 C 180.414062 168.308594 180.757812 167.851562 180.867188 167.734375 C 181.078125 167.507812 181.5625 166.875 181.929688 166.347656 C 185.839844 160.722656 188.34375 155.835938 190.597656 149.441406 C 191.457031 147 192.640625 142.726562 192.789062 141.523438 C 192.8125 141.304688 192.859375 141.089844 192.886719 141.042969 C 192.914062 140.996094 192.964844 140.695312 193.003906 140.375 C 193.042969 140.050781 193.144531 139.375 193.230469 138.867188 C 194.484375 131.582031 194.378906 122.789062 192.953125 115.414062 C 192.890625 115.089844 192.816406 114.660156 192.789062 114.453125 C 192.542969 112.632812 190.953125 107.359375 189.671875 104.105469 C 188.433594 100.96875 188.425781 100.957031 187.605469 99.203125 C 186.378906 96.582031 182.054688 89.433594 181.34375 88.851562 C 181.207031 88.738281 180.507812 87.828125 180.390625 87.609375 C 180.324219 87.480469 180.207031 87.3125 180.132812 87.234375 C 180.058594 87.15625 179.859375 86.902344 179.6875 86.667969 C 179.511719 86.433594 179.34375 86.214844 179.308594 86.1875 C 179.277344 86.15625 179 85.828125 178.691406 85.460938 C 176.535156 82.84375 172.347656 78.714844 169.898438 76.789062 C 167.429688 74.847656 166.503906 74.15625 165.089844 73.203125 C 161.941406 71.074219 157.039062 68.367188 154.628906 67.421875 C 154.210938 67.257812 153.339844 66.90625 152.691406 66.640625 C 149.238281 65.226562 144.527344 63.75 142.398438 63.414062 C 142.136719 63.375 141.441406 63.246094 140.851562 63.132812 C 135.714844 62.132812 129.050781 61.636719 124.746094 61.941406 M 133.476562 89.710938 C 133.46875 89.914062 133.425781 90.703125 133.382812 91.46875 C 133.09375 96.621094 134.417969 101.816406 137.78125 108.691406 C 139.34375 111.890625 139.519531 112.390625 139.519531 113.59375 C 139.515625 116.199219 137.597656 118.679688 134.347656 120.292969 C 132.964844 120.980469 132.894531 120.851562 134.011719 119.679688 C 135.359375 118.269531 135.921875 116.765625 135.675781 115.230469 C 135.507812 114.183594 135.140625 113.605469 133.652344 112.074219 C 129.8125 108.113281 127.957031 103.660156 128.640625 100.050781 C 128.78125 99.3125 128.8125 99.308594 127.832031 100.117188 C 119.25 107.207031 117.289062 115.898438 123.199219 120.660156 C 124.292969 121.542969 122.90625 121.179688 121.34375 120.175781 C 117.910156 117.96875 115.984375 113.414062 116.59375 108.941406 C 117.402344 103.003906 121.835938 97.175781 129.914062 91.433594 C 132.925781 89.289062 133.507812 89.011719 133.476562 89.710938 M 128.511719 117.585938 C 128.886719 117.957031 128.941406 118.492188 128.949219 121.894531 L 128.960938 124.699219 L 129.199219 124.648438 C 129.332031 124.621094 129.726562 124.566406 130.078125 124.53125 C 131.308594 124.398438 132.554688 124.148438 135.148438 123.503906 C 138.90625 122.566406 140.21875 122.535156 140.765625 123.371094 C 141.046875 123.804688 141.128906 163.65625 140.847656 164.496094 C 140.472656 165.625 139.507812 166.339844 137.90625 166.6875 C 136.746094 166.9375 119.652344 166.984375 118.367188 166.742188 C 116.726562 166.433594 115.859375 165.882812 115.339844 164.824219 L 115.039062 164.214844 L 115.039062 143.945312 C 115.039062 125.058594 115.050781 123.65625 115.222656 123.347656 C 115.652344 122.566406 116.710938 122.589844 119.894531 123.449219 C 122.375 124.121094 124.367188 124.542969 125.566406 124.648438 L 126.386719 124.722656 L 126.421875 121.375 C 126.457031 117.75 126.460938 117.710938 127.066406 117.363281 C 127.441406 117.144531 128.1875 117.257812 128.511719 117.585938 "/>
<path style=" stroke:none;fill-rule:evenodd;fill:rgb(98.431373%,98.431373%,98.431373%);fill-opacity:1;" d="M 131.894531 90.207031 C 125.574219 94.253906 120.542969 99.320312 118.246094 103.941406 C 114.855469 110.769531 116.730469 117.800781 122.753906 120.847656 C 123.488281 121.214844 123.65625 121.078125 123.027344 120.617188 C 119.089844 117.726562 118.570312 111.984375 121.777344 106.816406 C 123.101562 104.6875 125.839844 101.617188 127.980469 99.859375 C 128.808594 99.175781 128.871094 99.171875 128.769531 99.8125 C 128.136719 103.929688 129.691406 107.75 133.75 112.054688 C 136.574219 115.050781 136.628906 117.285156 133.929688 119.917969 C 133.117188 120.714844 133.203125 120.761719 134.351562 120.160156 C 137.859375 118.324219 139.484375 116.128906 139.398438 113.34375 L 139.359375 112.144531 L 137.796875 108.953125 C 134.988281 103.226562 133.761719 99.296875 133.324219 94.671875 C 133.199219 93.328125 133.242188 90.144531 133.394531 89.625 C 133.507812 89.234375 133.261719 89.328125 131.894531 90.207031 M 126.894531 117.59375 C 126.742188 117.738281 126.605469 117.871094 126.59375 117.886719 C 126.578125 117.90625 126.542969 119.457031 126.511719 121.332031 L 126.453125 124.746094 L 125.707031 124.714844 C 124.535156 124.660156 122.734375 124.308594 119.8125 123.566406 C 115.402344 122.441406 115.3125 122.472656 115.175781 125.078125 C 115.125 126.011719 115.097656 135.171875 115.117188 145.441406 L 115.148438 164.105469 L 115.382812 164.617188 C 116.292969 166.589844 116.824219 166.703125 125.492188 166.785156 C 138.226562 166.90625 139.589844 166.726562 140.601562 164.800781 L 140.851562 164.320312 L 140.851562 144 C 140.851562 128.246094 140.824219 123.628906 140.722656 123.453125 C 140.265625 122.652344 138.953125 122.691406 135.199219 123.617188 C 132.554688 124.269531 130.226562 124.691406 129.257812 124.691406 L 128.753906 124.691406 L 128.691406 117.847656 L 128.394531 117.589844 C 127.976562 117.234375 127.285156 117.234375 126.894531 117.59375 "/>
<path style=" stroke:none;fill-rule:evenodd;fill:rgb(34.509804%,46.27451%,78.823529%);fill-opacity:1;" d="M 131.332031 90.464844 C 130.96875 90.699219 130.851562 90.855469 131.171875 90.679688 C 131.417969 90.542969 131.800781 90.246094 131.734375 90.246094 C 131.703125 90.246094 131.523438 90.34375 131.332031 90.464844 M 133.269531 92.425781 C 133.269531 93.425781 133.285156 93.847656 133.304688 93.363281 C 133.324219 92.882812 133.324219 92.066406 133.304688 91.550781 C 133.285156 91.035156 133.269531 91.429688 133.269531 92.425781 M 125.59375 94.851562 L 125.28125 95.199219 L 125.625 94.886719 C 125.949219 94.59375 126.023438 94.507812 125.941406 94.507812 C 125.921875 94.507812 125.765625 94.664062 125.59375 94.851562 M 133.359375 95.039062 C 133.359375 95.246094 133.378906 95.328125 133.40625 95.226562 C 133.433594 95.125 133.433594 94.957031 133.40625 94.851562 C 133.378906 94.75 133.359375 94.835938 133.359375 95.039062 M 123.570312 96.773438 L 122.078125 98.292969 L 123.601562 96.800781 C 125.011719 95.414062 125.167969 95.253906 125.09375 95.253906 C 125.078125 95.253906 124.390625 95.9375 123.570312 96.773438 M 127.621094 100.1875 L 127.308594 100.53125 L 127.652344 100.21875 C 127.976562 99.929688 128.050781 99.839844 127.964844 99.839844 C 127.949219 99.839844 127.792969 99.996094 127.621094 100.1875 M 128.570312 101.492188 C 128.570312 102.019531 128.589844 102.25 128.609375 102.003906 C 128.632812 101.753906 128.632812 101.324219 128.613281 101.042969 C 128.589844 100.761719 128.570312 100.964844 128.570312 101.492188 M 119.894531 101.011719 C 119.769531 101.1875 119.691406 101.332031 119.71875 101.332031 C 119.746094 101.332031 119.875 101.1875 120 101.011719 C 120.125 100.835938 120.203125 100.691406 120.175781 100.691406 C 120.144531 100.691406 120.019531 100.835938 119.894531 101.011719 M 126.554688 101.148438 L 126.132812 101.601562 L 126.585938 101.179688 C 127.007812 100.785156 127.089844 100.691406 127.007812 100.691406 C 126.992188 100.691406 126.789062 100.898438 126.554688 101.148438 M 119.507812 101.574219 C 119.140625 102.195312 119.117188 102.25 119.304688 102.027344 C 119.519531 101.769531 119.707031 101.441406 119.636719 101.441406 C 119.609375 101.441406 119.550781 101.5 119.507812 101.574219 M 124.585938 103.09375 C 124.328125 103.359375 124.140625 103.574219 124.167969 103.574219 C 124.199219 103.574219 124.433594 103.359375 124.691406 103.09375 C 124.953125 102.828125 125.140625 102.613281 125.109375 102.613281 C 125.082031 102.613281 124.847656 102.828125 124.585938 103.09375 M 136.542969 106.398438 C 136.542969 106.457031 136.632812 106.675781 136.746094 106.878906 C 136.859375 107.085938 136.949219 107.207031 136.949219 107.148438 C 136.949219 107.089844 136.859375 106.871094 136.746094 106.667969 C 136.632812 106.460938 136.542969 106.339844 136.542969 106.398438 M 116.519531 110.558594 C 116.519531 111.089844 116.535156 111.316406 116.558594 111.070312 C 116.582031 110.824219 116.582031 110.390625 116.558594 110.109375 C 116.535156 109.828125 116.519531 110.03125 116.519531 110.558594 M 132.375 110.667969 C 132.570312 110.871094 132.757812 111.039062 132.789062 111.039062 C 132.816406 111.039062 132.679688 110.871094 132.480469 110.667969 C 132.28125 110.460938 132.09375 110.292969 132.066406 110.292969 C 132.035156 110.292969 132.175781 110.460938 132.375 110.667969 M 133.707031 112.105469 C 134.171875 112.574219 134.578125 112.960938 134.609375 112.960938 C 134.636719 112.960938 134.28125 112.574219 133.8125 112.105469 C 133.347656 111.636719 132.941406 111.253906 132.910156 111.253906 C 132.882812 111.253906 133.242188 111.636719 133.707031 112.105469 M 119.710938 112.691406 C 119.710938 112.988281 119.730469 113.09375 119.757812 112.933594 C 119.78125 112.769531 119.78125 112.53125 119.753906 112.398438 C 119.730469 112.265625 119.710938 112.398438 119.710938 112.691406 M 139.449219 113.652344 C 139.449219 114.121094 139.46875 114.300781 139.492188 114.050781 C 139.515625 113.800781 139.511719 113.414062 139.492188 113.199219 C 139.46875 112.980469 139.449219 113.183594 139.449219 113.652344 M 119.710938 114.398438 C 119.710938 114.691406 119.730469 114.800781 119.757812 114.640625 C 119.78125 114.476562 119.78125 114.234375 119.753906 114.105469 C 119.730469 113.972656 119.710938 114.105469 119.710938 114.398438 M 135.820312 115.945312 C 135.820312 116.328125 135.839844 116.484375 135.863281 116.292969 C 135.886719 116.101562 135.886719 115.789062 135.863281 115.601562 C 135.839844 115.410156 135.820312 115.566406 135.820312 115.945312 M 120.167969 116.691406 C 120.207031 116.839844 120.285156 117.03125 120.339844 117.121094 C 120.40625 117.230469 120.414062 117.199219 120.367188 117.011719 C 120.328125 116.867188 120.25 116.675781 120.195312 116.585938 C 120.125 116.476562 120.117188 116.507812 120.167969 116.691406 M 137.277344 118.160156 L 136.691406 118.773438 L 137.308594 118.191406 C 137.875 117.648438 137.96875 117.546875 137.890625 117.546875 C 137.875 117.546875 137.597656 117.824219 137.277344 118.160156 M 119.734375 118.828125 C 120.140625 119.238281 120.5 119.574219 120.527344 119.574219 C 120.558594 119.574219 120.246094 119.238281 119.839844 118.828125 C 119.433594 118.414062 119.074219 118.078125 119.046875 118.078125 C 119.015625 118.078125 119.324219 118.414062 119.734375 118.828125 M 128.792969 121.492188 C 128.792969 123.28125 128.808594 124.015625 128.828125 123.121094 C 128.84375 122.226562 128.84375 120.761719 128.828125 119.867188 C 128.808594 118.972656 128.792969 119.703125 128.792969 121.492188 M 136.160156 119.101562 L 135.839844 119.378906 L 136.1875 119.148438 C 136.378906 119.023438 136.53125 118.898438 136.53125 118.871094 C 136.53125 118.792969 136.488281 118.820312 136.160156 119.101562 M 126.425781 121.777344 L 126.398438 124.679688 L 126.160156 124.722656 L 125.921875 124.769531 L 126.164062 124.785156 C 126.511719 124.804688 126.511719 124.804688 126.480469 121.703125 L 126.449219 118.878906 L 126.425781 121.777344 M 122.132812 119.839844 C 122.453125 120.164062 122.738281 120.425781 122.765625 120.425781 C 122.796875 120.425781 122.558594 120.164062 122.238281 119.839844 C 121.921875 119.515625 121.636719 119.253906 121.605469 119.253906 C 121.578125 119.253906 121.8125 119.515625 122.132812 119.839844 M 134.90625 119.847656 C 134.507812 120.0625 134.53125 120.152344 134.933594 119.945312 C 135.109375 119.855469 135.253906 119.757812 135.253906 119.730469 C 135.253906 119.660156 135.242188 119.664062 134.90625 119.847656 M 116.296875 122.851562 C 116.457031 122.875 116.695312 122.875 116.828125 122.847656 C 116.960938 122.824219 116.828125 122.804688 116.53125 122.804688 C 116.238281 122.804688 116.132812 122.824219 116.296875 122.851562 M 138.90625 122.851562 C 139.070312 122.875 139.308594 122.875 139.441406 122.847656 C 139.574219 122.824219 139.441406 122.804688 139.148438 122.804688 C 138.851562 122.804688 138.746094 122.824219 138.90625 122.851562 M 115.367188 123.195312 C 115.261719 123.308594 115.203125 123.464844 115.234375 123.539062 C 115.277344 123.648438 115.292969 123.644531 115.296875 123.527344 C 115.304688 123.445312 115.386719 123.289062 115.484375 123.179688 C 115.582031 123.074219 115.636719 122.988281 115.605469 122.988281 C 115.578125 122.988281 115.46875 123.078125 115.367188 123.195312 M 140.832031 124.160156 C 140.832031 124.484375 140.851562 124.613281 140.875 124.453125 C 140.902344 124.292969 140.902344 124.027344 140.875 123.867188 C 140.851562 123.707031 140.832031 123.835938 140.832031 124.160156 M 115.132812 124.746094 C 115.132812 125.332031 115.152344 125.558594 115.171875 125.25 C 115.195312 124.941406 115.195312 124.460938 115.171875 124.183594 C 115.148438 123.90625 115.132812 124.160156 115.132812 124.746094 M 129.519531 124.660156 C 129.621094 124.6875 129.789062 124.6875 129.894531 124.660156 C 129.996094 124.632812 129.910156 124.609375 129.707031 124.609375 C 129.5 124.609375 129.417969 124.632812 129.519531 124.660156 M 140.957031 144.320312 C 140.957031 154.792969 140.972656 159.074219 140.988281 153.839844 C 141.003906 148.605469 141.003906 140.035156 140.988281 134.800781 C 140.972656 129.5625 140.957031 133.847656 140.957031 144.320312 M 115.03125 149.652344 C 115.03125 151.207031 115.046875 151.84375 115.066406 151.066406 C 115.085938 150.289062 115.085938 149.019531 115.066406 148.238281 C 115.046875 147.460938 115.03125 148.097656 115.03125 149.652344 M 115.132812 162.988281 C 115.132812 163.601562 115.152344 163.855469 115.171875 163.546875 C 115.195312 163.238281 115.195312 162.734375 115.171875 162.425781 C 115.152344 162.117188 115.132812 162.371094 115.132812 162.988281 M 140.824219 164.054688 C 140.824219 164.257812 140.847656 164.34375 140.875 164.238281 C 140.902344 164.136719 140.902344 163.96875 140.875 163.867188 C 140.847656 163.765625 140.824219 163.847656 140.824219 164.054688 M 115.203125 164.351562 C 115.199219 164.550781 115.597656 165.304688 115.757812 165.398438 C 115.863281 165.464844 115.867188 165.449219 115.765625 165.320312 C 115.691406 165.234375 115.539062 164.949219 115.417969 164.6875 C 115.300781 164.425781 115.203125 164.273438 115.203125 164.351562 M 140.554688 164.855469 C 140.457031 165.058594 140.398438 165.226562 140.425781 165.226562 C 140.5 165.226562 140.824219 164.574219 140.773438 164.523438 C 140.75 164.5 140.652344 164.648438 140.554688 164.855469 M 139.992188 165.679688 L 139.679688 166.027344 L 140.027344 165.714844 C 140.351562 165.421875 140.421875 165.332031 140.339844 165.332031 C 140.320312 165.332031 140.164062 165.488281 139.992188 165.679688 M 116.21875 165.875 C 116.292969 165.992188 116.910156 166.324219 116.960938 166.273438 C 116.980469 166.253906 116.808594 166.132812 116.578125 166.007812 C 116.347656 165.878906 116.183594 165.820312 116.21875 165.875 M 119.808594 166.796875 C 120.203125 166.820312 120.875 166.820312 121.300781 166.800781 C 121.730469 166.777344 121.40625 166.761719 120.585938 166.761719 C 119.765625 166.761719 119.414062 166.777344 119.808594 166.796875 M 134.425781 166.800781 C 134.882812 166.820312 135.625 166.820312 136.078125 166.800781 C 136.535156 166.78125 136.164062 166.761719 135.253906 166.761719 C 134.34375 166.761719 133.972656 166.78125 134.425781 166.800781 "/>
<path style=" stroke:none;fill-rule:evenodd;fill:rgb(1.568627%,3.529412%,61.568627%);fill-opacity:1;" d="M 180.160156 168.640625 C 180.035156 168.816406 179.957031 168.960938 179.984375 168.960938 C 180.015625 168.960938 180.140625 168.816406 180.265625 168.640625 C 180.390625 168.464844 180.46875 168.320312 180.441406 168.320312 C 180.414062 168.320312 180.285156 168.464844 180.160156 168.640625 "/>
<path style=" stroke:none;fill-rule:evenodd;fill:rgb(16.470588%,31.372549%,72.54902%);fill-opacity:1;" d="M 133.359375 90.613281 C 133.359375 90.847656 133.382812 90.929688 133.410156 90.796875 C 133.433594 90.667969 133.433594 90.472656 133.40625 90.371094 C 133.378906 90.269531 133.359375 90.378906 133.359375 90.613281 M 133.363281 94.238281 C 133.363281 94.53125 133.386719 94.640625 133.410156 94.480469 C 133.433594 94.316406 133.433594 94.074219 133.410156 93.945312 C 133.382812 93.8125 133.363281 93.945312 133.363281 94.238281 M 133.464844 95.46875 C 133.464844 95.671875 133.488281 95.757812 133.511719 95.652344 C 133.539062 95.550781 133.539062 95.382812 133.511719 95.28125 C 133.488281 95.175781 133.464844 95.261719 133.464844 95.46875 M 123.359375 96.878906 L 122.398438 97.867188 L 123.386719 96.910156 C 124.304688 96.019531 124.421875 95.894531 124.34375 95.894531 C 124.328125 95.894531 123.886719 96.335938 123.359375 96.878906 M 125.597656 102.105469 L 125.066406 102.667969 L 125.625 102.136719 C 125.933594 101.847656 126.1875 101.59375 126.1875 101.578125 C 126.1875 101.496094 126.085938 101.585938 125.597656 102.105469 M 132.265625 110.644531 C 132.265625 110.664062 132.421875 110.820312 132.613281 110.992188 L 132.960938 111.308594 L 132.644531 110.960938 C 132.355469 110.636719 132.265625 110.566406 132.265625 110.644531 M 119.707031 113.546875 C 119.707031 113.78125 119.730469 113.863281 119.753906 113.730469 C 119.78125 113.597656 119.78125 113.40625 119.753906 113.304688 C 119.726562 113.203125 119.707031 113.3125 119.707031 113.546875 M 126.425781 118.613281 C 126.425781 118.820312 126.445312 118.902344 126.472656 118.800781 C 126.5 118.699219 126.5 118.527344 126.472656 118.425781 C 126.445312 118.324219 126.425781 118.40625 126.425781 118.613281 M 119.679688 118.878906 C 119.878906 119.085938 120.066406 119.253906 120.09375 119.253906 C 120.125 119.253906 119.984375 119.085938 119.785156 118.878906 C 119.585938 118.675781 119.402344 118.507812 119.371094 118.507812 C 119.34375 118.507812 119.480469 118.675781 119.679688 118.878906 M 128.898438 121.8125 C 128.898438 123.425781 128.914062 124.085938 128.933594 123.28125 C 128.949219 122.472656 128.949219 121.152344 128.933594 120.347656 C 128.914062 119.539062 128.898438 120.199219 128.898438 121.8125 M 134.023438 119.707031 L 133.601562 120.160156 L 134.054688 119.738281 C 134.476562 119.347656 134.554688 119.253906 134.476562 119.253906 C 134.457031 119.253906 134.253906 119.457031 134.023438 119.707031 M 140.941406 124.746094 C 140.941406 125.097656 140.960938 125.230469 140.984375 125.039062 C 141.007812 124.847656 141.007812 124.558594 140.984375 124.398438 C 140.957031 124.238281 140.9375 124.394531 140.941406 124.746094 M 115.039062 135.625 C 115.039062 141.84375 115.050781 144.40625 115.066406 141.316406 C 115.082031 138.226562 115.082031 133.136719 115.066406 130.007812 C 115.050781 126.878906 115.039062 129.40625 115.039062 135.625 M 115.035156 157.867188 C 115.035156 160.886719 115.050781 162.125 115.066406 160.613281 C 115.082031 159.101562 115.082031 156.628906 115.066406 155.121094 C 115.050781 153.609375 115.035156 154.84375 115.035156 157.867188 M 140.9375 163.734375 C 140.9375 163.996094 140.957031 164.105469 140.980469 163.972656 C 141.007812 163.839844 141.007812 163.625 140.980469 163.492188 C 140.957031 163.359375 140.9375 163.46875 140.9375 163.734375 M 124.027344 166.90625 C 126.152344 166.921875 129.632812 166.921875 131.761719 166.90625 C 133.886719 166.890625 132.148438 166.878906 127.894531 166.878906 C 123.640625 166.878906 121.898438 166.890625 124.027344 166.90625 "/>
</g>
</svg>
