<?xml version="1.0" standalone="no"?>
<!DOCTYPE svg PUBLIC "-//W3C//DTD SVG 20010904//EN"
 "http://www.w3.org/TR/2001/REC-SVG-20010904/DTD/svg10.dtd">
<svg version="1.0" xmlns="http://www.w3.org/2000/svg"
 width="256.000000pt" height="256.000000pt" viewBox="0 0 256.000000 256.000000"
 preserveAspectRatio="xMidYMid meet">

<g transform="translate(0.000000,256.000000) scale(0.100000,-0.100000)"
fill="#000000" stroke="none">
<path d="M1386 2442 c-18 -21 -18 -22 2 -46 17 -22 20 -23 24 -8 2 9 2 30 -2
46 l-5 28 -19 -20z"/>
<path d="M1127 2443 c-7 -11 -1 -52 8 -62 3 -3 10 1 15 9 6 9 10 10 10 3 0 -6
-4 -15 -10 -18 -5 -3 -10 -13 -10 -21 0 -8 5 -14 10 -14 6 0 9 4 8 9 -2 5 6
16 17 25 15 11 18 19 10 31 -5 9 -13 15 -17 13 -4 -2 -13 6 -21 16 -8 11 -17
15 -20 9z"/>
<path d="M598 2023 c7 -3 16 -2 19 1 4 3 -2 6 -13 5 -11 0 -14 -3 -6 -6z"/>
<path d="M1906 2021 c-3 -4 6 -6 19 -3 14 2 25 6 25 8 0 8 -39 4 -44 -5z"/>
<path d="M1990 2013 c0 -4 5 -15 10 -23 8 -13 10 -13 10 2 0 9 -4 20 -10 23
-5 3 -10 3 -10 -2z"/>
<path d="M1960 2000 c0 -5 5 -10 11 -10 5 0 7 5 4 10 -3 6 -8 10 -11 10 -2 0
-4 -4 -4 -10z"/>
<path d="M1233 1983 c20 -2 54 -2 75 0 20 2 3 4 -38 4 -41 0 -58 -2 -37 -4z"/>
<path d="M675 1961 c-3 -12 -11 -21 -16 -21 -5 0 -9 -4 -9 -8 0 -20 31 -7 36
15 8 30 -2 42 -11 14z"/>
<path d="M1895 1971 c-3 -5 -2 -12 3 -15 5 -3 9 1 9 9 0 17 -3 19 -12 6z"/>
<path d="M1210 1959 c-92 -8 -195 -30 -209 -45 -3 -4 2 -4 12 -1 67 24 188 39
276 34 88 -6 262 -42 385 -81 27 -9 59 -15 70 -15 20 1 20 1 1 6 -11 3 -60 18
-110 34 -208 68 -285 80 -425 68z"/>
<path d="M1853 1945 c0 -8 4 -12 9 -9 4 3 8 9 8 15 0 5 -4 9 -8 9 -5 0 -9 -7
-9 -15z"/>
<path d="M726 1924 c-9 -8 -16 -21 -16 -27 0 -9 2 -9 8 -1 14 21 52 34 87 30
20 -3 33 -1 30 5 -10 15 -92 10 -109 -7z"/>
<path d="M1741 1931 c26 -4 54 -13 63 -20 22 -19 31 -8 11 13 -11 11 -32 16
-68 15 l-52 -2 46 -6z"/>
<path d="M1177 1903 c-3 -5 -1 -17 4 -28 6 -17 7 -16 6 8 -1 28 -3 32 -10 20z"/>
<path d="M885 1885 c-22 -8 -54 -14 -72 -14 -33 -1 -58 -21 -26 -21 21 0 107
23 143 38 35 15 3 13 -45 -3z"/>
<path d="M1110 1876 c0 -31 6 -34 13 -6 3 11 1 23 -4 26 -5 3 -9 -6 -9 -20z"/>
<path d="M1322 1850 c0 -14 2 -19 5 -12 2 6 2 18 0 25 -3 6 -5 1 -5 -13z"/>
<path d="M1506 1862 c-2 -4 -1 -14 5 -22 7 -12 9 -10 9 8 0 23 -5 28 -14 14z"/>
<path d="M620 1827 c19 -21 42 -23 104 -13 42 8 51 6 63 -10 14 -19 18 -8 4
14 -6 10 -25 12 -79 6 -53 -5 -76 -3 -89 7 -16 12 -17 11 -3 -4z"/>
<path d="M1760 1830 c-11 -7 -4 -10 25 -9 31 0 36 2 20 9 -26 11 -28 11 -45 0z"/>
<path d="M1916 1833 c-3 -4 -25 -10 -49 -14 l-42 -6 36 -2 c19 0 44 6 55 14
10 8 16 15 13 15 -3 0 -9 -3 -13 -7z"/>
<path d="M1396 1815 c-3 -8 -1 -15 4 -15 6 0 10 7 10 15 0 8 -2 15 -4 15 -2 0
-6 -7 -10 -15z"/>
<path d="M1076 1803 c-6 -14 -5 -15 5 -6 7 7 10 15 7 18 -3 3 -9 -2 -12 -12z"/>
<path d="M1220 1810 c0 -5 5 -10 11 -10 5 0 7 5 4 10 -3 6 -8 10 -11 10 -2 0
-4 -4 -4 -10z"/>
<path d="M1288 1803 c7 -3 16 -2 19 1 4 3 -2 6 -13 5 -11 0 -14 -3 -6 -6z"/>
<path d="M1430 1801 c0 -6 4 -13 10 -16 6 -3 7 1 4 9 -7 18 -14 21 -14 7z"/>
<path d="M600 1793 c0 -20 42 -43 78 -43 22 0 31 -4 26 -12 -5 -7 -3 -8 5 -4
7 5 10 11 7 14 -3 3 0 12 7 20 10 13 9 14 -9 2 -27 -16 -90 -6 -103 18 -6 9
-11 12 -11 5z"/>
<path d="M1911 1780 c-29 -25 -77 -26 -90 -2 -10 15 -10 15 -11 -3 0 -17 7
-21 35 -23 36 -3 95 21 95 38 0 13 -1 13 -29 -10z"/>
<path d="M1173 1766 c-45 -6 -85 -15 -88 -18 -4 -3 13 -3 37 0 90 14 322 5
393 -15 14 -3 17 -2 10 5 -9 10 -43 17 -120 27 -89 11 -159 12 -232 1z"/>
<path d="M1488 1773 c7 -3 16 -2 19 1 4 3 -2 6 -13 5 -11 0 -14 -3 -6 -6z"/>
<path d="M800 1744 c0 -6 6 -19 14 -30 13 -17 14 -17 12 -1 -2 19 -26 47 -26
31z"/>
<path d="M1035 1740 c-3 -6 1 -7 9 -4 18 7 21 14 7 14 -6 0 -13 -4 -16 -10z"/>
<path d="M1243 1743 c15 -2 39 -2 55 0 15 2 2 4 -28 4 -30 0 -43 -2 -27 -4z"/>
<path d="M1138 1733 c6 -2 18 -2 25 0 6 3 1 5 -13 5 -14 0 -19 -2 -12 -5z"/>
<path d="M1388 1733 c7 -3 16 -2 19 1 4 3 -2 6 -13 5 -11 0 -14 -3 -6 -6z"/>
<path d="M1550 1731 c8 -5 40 -11 70 -15 40 -4 47 -3 25 3 -46 13 -112 21 -95
12z"/>
<path d="M1695 1720 c-17 -7 -17 -9 -2 -9 9 -1 20 -1 24 -2 4 0 9 4 11 10 4
13 -5 13 -33 1z"/>
<path d="M2368 1464 c-4 -3 -4 -13 -1 -22 4 -10 2 -13 -5 -8 -7 4 -12 2 -12
-6 0 -25 16 -37 38 -31 12 3 19 9 17 14 -6 9 27 29 49 29 9 0 16 -6 16 -14 0
-8 4 -18 10 -21 6 -4 7 2 1 17 -6 18 -17 24 -52 26 -24 2 -46 8 -50 13 -3 5
-8 7 -11 3z"/>
<path d="M186 1403 c-11 -11 -6 -23 8 -23 8 0 17 4 20 9 7 10 -19 23 -28 14z"/>
<path d="M2464 1352 c4 -7 1 -12 -6 -12 -11 0 -11 -2 0 -9 15 -9 13 -82 -2
-93 -7 -5 -4 -8 7 -8 14 0 17 9 17 59 0 35 -5 63 -12 67 -7 4 -8 3 -4 -4z"/>
<path d="M83 1280 c0 -41 2 -58 4 -37 2 20 2 54 0 75 -2 20 -4 3 -4 -38z"/>
<path d="M2391 1340 c-7 -4 1 -7 18 -8 17 0 31 1 31 3 0 7 -39 12 -49 5z"/>
<path d="M2342 1323 c5 -25 28 -28 28 -4 0 12 -6 21 -16 21 -9 0 -14 -7 -12
-17z"/>
<path d="M2322 1220 c0 -14 2 -19 5 -12 2 6 2 18 0 25 -3 6 -5 1 -5 -13z"/>
<path d="M2361 1214 c-14 -32 5 -55 49 -56 37 -1 50 10 29 25 -8 7 -18 21 -22
31 -4 10 -10 16 -14 13 -3 -4 -11 -2 -18 3 -8 7 -15 2 -24 -16z"/>
<path d="M81 1184 c0 -11 3 -14 6 -6 3 7 2 16 -1 19 -3 4 -6 -2 -5 -13z"/>
<path d="M105 1140 c-19 -7 -19 -7 3 -14 27 -9 34 -5 24 10 -4 7 -16 8 -27 4z"/>
<path d="M610 1086 c0 -1 8 -18 19 -38 16 -33 81 -99 81 -83 0 6 61 -36 92
-65 37 -33 46 -39 54 -32 5 4 1 -2 -9 -14 -9 -11 -16 -23 -15 -25 2 -2 1 -3
-1 -2 -2 1 -12 -2 -22 -8 -14 -7 -17 -6 -14 3 3 8 -15 24 -45 41 -62 35 -65
29 -5 -11 24 -16 42 -32 39 -35 -9 -8 28 -24 56 -23 16 1 24 6 22 15 -2 8 3
18 10 22 19 12 29 11 26 -3 -1 -7 3 -23 10 -35 9 -16 9 -23 2 -23 -6 0 -8 -5
-4 -12 4 -7 3 -8 -5 -4 -6 4 -9 10 -7 14 2 4 -30 8 -73 9 l-76 2 67 -12 c83
-16 102 -31 30 -25 -35 4 -49 2 -40 -4 13 -9 -11 -7 -106 9 l-40 6 22 -31 c12
-16 42 -40 65 -51 24 -12 56 -34 71 -50 26 -27 27 -30 10 -39 -17 -9 -16 -11
10 -18 20 -5 24 -9 14 -15 -7 -5 -8 -9 -3 -9 6 0 17 6 24 13 10 10 12 9 9 -2
-2 -8 9 -21 23 -29 25 -15 29 -14 80 23 30 21 46 29 36 18 -17 -19 -17 -22 -2
-37 9 -9 25 -16 36 -16 11 0 22 -7 25 -15 5 -11 10 -12 24 -3 10 7 16 16 13
22 -3 5 -1 6 6 2 9 -6 9 -11 0 -22 -10 -13 -7 -14 25 -11 35 4 36 4 20 -15
-14 -14 -19 -16 -26 -6 -7 10 -12 9 -21 -6 -25 -39 -48 -66 -55 -63 -4 1 -8
-1 -9 -5 -6 -18 -39 -44 -50 -40 -7 2 -13 -1 -13 -7 0 -19 36 -12 96 19 34 19
60 27 64 21 3 -6 19 -2 40 11 63 40 81 48 74 35 -5 -9 -4 -9 6 0 7 7 10 19 6
30 -6 15 -9 15 -17 3 -9 -13 -10 -13 -7 0 1 8 -3 24 -9 36 -7 11 -14 31 -16
45 -2 13 -6 31 -10 39 -12 32 -15 60 -7 65 11 7 5 41 -16 91 -14 33 -17 36
-26 20 -7 -13 -13 -14 -23 -6 -8 6 -11 18 -9 25 8 19 -29 38 -44 23 -9 -9 -12
-8 -12 2 0 13 -2 13 -10 0 -8 -13 -10 -12 -10 3 0 9 -7 17 -16 17 -9 0 -14 6
-11 13 5 14 -31 43 -41 32 -4 -3 0 -10 8 -15 32 -21 -4 -8 -60 20 -33 17 -67
30 -77 30 -15 1 -133 88 -230 170 -13 10 -23 18 -23 16z m417 -358 c-3 -8 -6
-5 -6 6 -1 11 2 17 5 13 3 -3 4 -12 1 -19z m-262 -8 c7 -12 -12 -12 -40 0 -18
8 -17 9 7 9 15 1 30 -3 33 -9z m118 -2 c4 -10 8 -10 15 1 8 11 14 11 33 -3
l23 -16 -26 0 c-15 0 -30 -4 -33 -10 -8 -13 -35 -13 -35 1 0 5 6 7 13 4 6 -4
1 3 -13 14 -24 20 -25 21 -3 21 12 0 24 -6 26 -12z m-76 -14 c-3 -3 -12 -4
-19 -1 -8 3 -5 6 6 6 11 1 17 -2 13 -5z m227 -10 c3 -8 2 -12 -4 -9 -6 3 -10
10 -10 16 0 14 7 11 14 -7z m-94 -54 c13 -8 13 -10 -2 -10 -9 0 -20 5 -23 10
-8 13 5 13 25 0z m-85 -60 c-3 -5 -12 -10 -18 -10 -7 0 -6 4 3 10 19 12 23 12
15 0z m299 -30 c8 0 17 -4 21 -9 9 -16 -58 7 -75 26 -14 16 -13 16 12 0 15 -9
34 -17 42 -17z m56 -40 c0 -5 -5 -10 -11 -10 -5 0 -7 5 -4 10 3 6 8 10 11 10
2 0 4 -4 4 -10z"/>
<path d="M1905 1079 c-21 -18 -125 -115 -153 -142 -36 -35 -96 -51 -113 -31
-8 9 -16 11 -29 4 -9 -5 -21 -6 -25 -2 -4 4 -2 -3 4 -16 12 -23 8 -42 -11 -42
-7 0 -7 4 1 13 19 24 -1 27 -31 6 -24 -18 -27 -23 -16 -37 11 -13 9 -15 -16
-10 -22 4 -30 2 -33 -13 -4 -15 -9 -16 -30 -8 -23 9 -25 7 -21 -13 2 -14 -5
-32 -19 -47 l-23 -24 0 22 c0 12 -4 19 -10 16 -5 -3 -10 -25 -11 -48 0 -39 -1
-40 -11 -17 l-11 25 -7 -30 c-4 -16 -8 -38 -9 -49 -1 -16 1 -17 16 -5 15 13
16 11 9 -16 -4 -16 -8 -42 -10 -57 -1 -14 -10 -38 -19 -52 -10 -14 -17 -33
-17 -43 0 -15 -2 -16 -10 -3 -9 13 -10 13 -10 0 0 -8 17 -26 37 -40 20 -14 43
-31 51 -39 10 -11 19 -12 31 -4 13 8 31 4 75 -17 66 -32 91 -30 82 6 -5 18 -2
24 11 24 15 1 14 4 -7 20 -14 11 -33 27 -42 37 -20 19 -23 12 -7 -20 9 -20 9
-20 -9 2 -17 21 -20 22 -26 6 -5 -14 -9 -15 -21 -5 -8 7 -13 16 -10 20 3 4 -2
11 -11 14 -22 8 -26 8 -19 -4 3 -6 2 -10 -4 -10 -6 0 -16 10 -22 22 -11 21
-11 22 4 9 11 -8 17 -9 17 -3 0 7 7 9 17 5 11 -5 14 -3 8 6 -5 10 -2 11 13 7
11 -4 23 -2 27 4 3 5 15 10 25 10 10 0 26 7 34 16 19 19 21 11 4 -16 -11 -17
-9 -24 15 -47 15 -15 27 -23 27 -16 0 6 -7 16 -15 23 -8 7 -15 17 -15 21 0 12
54 -16 77 -40 10 -10 31 -21 46 -23 l28 -5 -23 24 c-13 14 -38 31 -55 38 -18
8 -33 19 -33 25 0 6 -5 8 -10 5 -6 -4 -9 -2 -8 4 2 6 -10 22 -27 37 -22 19
-18 17 17 -6 51 -35 96 -42 110 -17 5 10 15 14 25 10 10 -4 14 -2 10 4 -4 6 3
13 16 17 18 5 20 8 7 16 -13 10 -13 11 0 9 8 -1 44 -1 79 0 63 1 64 1 46 21
-18 20 -8 29 11 10 7 -7 7 5 0 40 -7 37 -7 53 2 62 9 9 12 2 12 -32 1 -25 7
-58 15 -75 13 -28 13 -26 14 53 1 67 -2 85 -17 100 -25 25 -59 33 -91 21 -24
-9 -23 -7 9 21 38 32 35 40 -6 14 -20 -13 -28 -14 -37 -5 -9 10 -8 11 6 5 11
-4 17 -2 15 4 -2 6 18 30 43 54 25 24 34 34 20 22 -14 -12 -46 -35 -71 -51
-42 -28 -47 -29 -68 -15 l-23 15 48 45 c26 24 64 54 83 67 36 23 79 65 66 65
-3 0 1 11 10 25 17 26 17 39 -1 24z m-243 -291 c-7 -7 -12 -8 -12 -2 0 14 12
26 19 19 2 -3 -1 -11 -7 -17z m83 -38 c-11 -5 -29 -9 -40 -9 l-20 0 20 9 c11
5 29 9 40 9 l20 0 -20 -9z m-195 -14 c0 -3 -4 -8 -10 -11 -5 -3 -10 -1 -10 4
0 6 5 11 10 11 6 0 10 -2 10 -4z m-85 -170 c-31 -25 -75 -40 -75 -25 0 5 11 9
25 9 14 0 25 4 25 8 0 5 10 14 23 20 34 16 35 14 2 -12z m-93 -34 c-8 -5 -10
-16 -6 -27 5 -13 4 -16 -4 -11 -19 11 -14 46 6 46 12 0 14 -2 4 -8z"/>
<path d="M652 924 c15 -15 30 -26 33 -23 2 3 -10 16 -28 29 l-32 23 27 -29z"/>
<path d="M775 870 c-8 -13 35 -34 46 -23 6 6 0 14 -15 21 -15 7 -28 7 -31 2z"/>
<path d="M1741 861 c-10 -6 -10 -10 -1 -16 7 -4 19 0 28 9 14 13 14 16 2 16
-8 0 -21 -4 -29 -9z"/>
<path d="M700 836 c0 -2 7 -7 16 -10 8 -3 12 -2 9 4 -6 10 -25 14 -25 6z"/>
<path d="M747 809 c7 -7 15 -10 18 -7 3 3 -2 9 -12 12 -14 6 -15 5 -6 -5z"/>
<path d="M678 783 c6 -2 18 -2 25 0 6 3 1 5 -13 5 -14 0 -19 -2 -12 -5z"/>
<path d="M1303 729 c-7 -7 -13 -23 -13 -36 0 -14 -6 -23 -15 -23 -9 0 -15 -9
-15 -25 0 -20 5 -25 25 -25 28 0 38 25 33 84 -2 30 -5 35 -15 25z"/>
<path d="M980 522 c0 -12 -17 -27 -47 -42 -27 -13 -59 -32 -73 -42 l-25 -20
29 8 c43 11 145 84 139 100 -8 20 -23 17 -23 -4z"/>
<path d="M1013 481 c1 -13 -4 -26 -11 -28 -8 -3 -10 1 -5 13 4 12 3 15 -6 10
-7 -4 -10 -13 -8 -19 2 -7 -3 -20 -12 -30 -15 -18 -15 -18 16 0 38 21 47 38
33 61 -8 14 -9 13 -7 -7z"/>
<path d="M1531 467 c13 -29 69 -67 69 -47 0 6 5 8 12 4 7 -4 8 -3 4 4 -4 6
-13 9 -20 6 -7 -3 -27 10 -45 28 l-33 33 13 -28z"/>
<path d="M1027 423 c-14 -31 -15 -34 -2 -18 17 21 24 23 34 6 4 -6 12 -2 20
10 7 12 8 18 2 14 -6 -3 -11 -1 -11 6 0 7 -7 4 -16 -7 -15 -18 -15 -18 -9 4
10 34 1 26 -18 -15z"/>
<path d="M947 369 c7 -7 15 -10 18 -7 3 3 -2 9 -12 12 -14 6 -15 5 -6 -5z"/>
<path d="M1420 376 c0 -3 9 -10 20 -16 11 -6 20 -8 20 -6 0 3 -9 10 -20 16
-11 6 -20 8 -20 6z"/>
<path d="M1393 208 c-13 -6 -23 -20 -23 -32 0 -15 3 -17 12 -8 9 9 16 3 29
-25 13 -28 14 -40 6 -45 -9 -6 -9 -8 0 -8 13 0 43 55 43 79 0 14 -2 14 -10 1
-8 -13 -10 -13 -11 3 -3 37 -4 40 -14 43 -5 1 -20 -2 -32 -8z"/>
<path d="M1170 200 c0 -5 -6 -10 -13 -10 -9 0 -12 -11 -9 -35 4 -34 4 -34 27
-17 32 23 38 50 14 62 -13 7 -19 7 -19 0z"/>
<path d="M1230 186 c0 -2 7 -7 16 -10 8 -3 12 -2 9 4 -6 10 -25 14 -25 6z"/>
<path d="M1322 156 c1 -19 5 -33 10 -30 11 7 10 51 -2 59 -5 3 -9 -9 -8 -29z"/>
<path d="M1235 150 c3 -5 10 -10 16 -10 5 0 9 5 9 10 0 6 -7 10 -16 10 -8 0
-12 -4 -9 -10z"/>
<path d="M1306 103 c-8 -9 -13 -10 -53 -12 -22 -1 -25 -3 -13 -11 13 -8 12
-10 -4 -10 -11 0 -17 -3 -13 -6 7 -7 77 14 91 27 5 5 7 11 5 14 -3 3 -9 2 -13
-2z"/>
<path d="M1150 90 c0 -5 5 -10 11 -10 5 0 7 5 4 10 -3 6 -8 10 -11 10 -2 0 -4
-4 -4 -10z"/>
<path d="M1330 86 c0 -2 9 -6 20 -9 11 -3 20 -1 20 4 0 5 -9 9 -20 9 -11 0
-20 -2 -20 -4z"/>
</g>
</svg>
