<?xml version="1.0" standalone="no"?>
<!DOCTYPE svg PUBLIC "-//W3C//DTD SVG 20010904//EN"
 "http://www.w3.org/TR/2001/REC-SVG-20010904/DTD/svg10.dtd">
<svg version="1.0" xmlns="http://www.w3.org/2000/svg"
 width="495.000000pt" height="495.000000pt" viewBox="0 0 495.000000 495.000000"
 preserveAspectRatio="xMidYMid meet">

<g transform="translate(0.000000,495.000000) scale(0.100000,-0.100000)"
fill="#000000" stroke="none">
<path d="M2315 4940 c-926 -66 -1726 -625 -2100 -1468 -244 -552 -275 -1196
-84 -1773 219 -662 708 -1200 1347 -1484 552 -244 1196 -275 1773 -84 662 219
1200 708 1484 1347 244 552 275 1196 84 1773 -92 280 -240 550 -425 780 l-59
72 -7 -29 c-3 -16 -14 -92 -23 -169 -33 -282 -128 -805 -284 -1570 -43 -214
-78 -391 -76 -393 5 -6 179 69 307 133 173 86 229 124 328 220 103 100 126
115 166 115 49 0 68 -29 72 -115 8 -156 -48 -257 -223 -404 -154 -128 -315
-221 -628 -361 -115 -52 -117 -54 -128 -94 -29 -113 -48 -165 -116 -335 -84
-209 -136 -315 -200 -415 -146 -227 -322 -374 -535 -451 -130 -46 -226 -58
-421 -53 -123 4 -183 10 -250 27 -182 47 -310 112 -408 210 -102 102 -150 226
-152 385 -1 101 25 156 109 237 167 158 418 281 1029 506 126 46 230 85 231
86 2 1 14 79 28 172 56 369 117 695 177 953 83 353 237 872 345 1166 24 66 44
123 44 127 0 15 -144 78 -215 95 -55 13 -100 15 -210 11 -178 -7 -271 -23
-580 -99 -142 -34 -282 -63 -325 -65 -67 -4 -79 -2 -109 19 -20 13 -38 36 -42
52 -23 86 118 225 340 336 306 153 659 218 1036 192 77 -6 141 -9 143 -8 5 6
-189 108 -286 151 -352 155 -781 232 -1157 205z m-1498 -1381 c54 -26 112 -92
170 -192 l45 -77 51 44 c72 61 167 111 262 137 163 45 428 23 567 -47 76 -39
153 -116 192 -195 46 -91 60 -184 53 -334 -9 -163 -34 -304 -111 -605 -78
-307 -85 -382 -42 -401 58 -27 220 99 464 357 120 127 166 164 201 164 39 0
54 -33 59 -131 10 -193 -81 -395 -257 -569 -54 -53 -98 -82 -236 -157 -186
-100 -334 -166 -407 -182 -32 -7 -70 -8 -113 -2 -154 22 -233 101 -287 288
-21 70 -23 99 -23 293 0 243 6 290 72 570 56 238 67 374 34 427 -28 45 -73 65
-147 66 -153 2 -296 -137 -434 -420 -54 -111 -111 -271 -131 -370 -17 -82 -1
-215 46 -398 53 -205 46 -258 -44 -336 -57 -50 -269 -156 -342 -171 -93 -19
-160 6 -196 75 -41 80 -46 123 -50 452 -10 697 39 1019 212 1381 83 174 164
296 218 329 53 31 115 33 174 4z"/>
<path d="M2735 1071 c-318 -111 -414 -152 -473 -206 -116 -105 -18 -253 211
-320 72 -21 183 -21 234 0 78 33 182 165 239 305 19 48 94 299 94 317 0 8 -44
-6 -305 -96z"/>
</g>
</svg>
