<?xml version="1.0" standalone="no"?>
<!DOCTYPE svg PUBLIC "-//W3C//DTD SVG 20010904//EN"
 "http://www.w3.org/TR/2001/REC-SVG-20010904/DTD/svg10.dtd">
<svg version="1.0" xmlns="http://www.w3.org/2000/svg"
 width="250.000000pt" height="250.000000pt" viewBox="0 0 250.000000 250.000000"
 preserveAspectRatio="xMidYMid meet">

<g transform="translate(0.000000,250.000000) scale(0.100000,-0.100000)"
fill="#000000" stroke="none">
<path d="M1217 2303 c18 -2 50 -2 70 0 21 2 7 4 -32 4 -38 0 -55 -2 -38 -4z"/>
<path d="M1103 2293 c9 -2 25 -2 35 0 9 3 1 5 -18 5 -19 0 -27 -2 -17 -5z"/>
<path d="M1368 2293 c12 -2 30 -2 40 0 9 3 -1 5 -23 4 -22 0 -30 -2 -17 -4z"/>
<path d="M1038 2283 c6 -2 18 -2 25 0 6 3 1 5 -13 5 -14 0 -19 -2 -12 -5z"/>
<path d="M1438 2283 c6 -2 18 -2 25 0 6 3 1 5 -13 5 -14 0 -19 -2 -12 -5z"/>
<path d="M988 2273 c6 -2 18 -2 25 0 6 3 1 5 -13 5 -14 0 -19 -2 -12 -5z"/>
<path d="M1498 2273 c7 -3 16 -2 19 1 4 3 -2 6 -13 5 -11 0 -14 -3 -6 -6z"/>
<path d="M1579 2249 c30 -10 56 -17 58 -15 5 5 -86 36 -101 35 -6 0 13 -9 43
-20z"/>
<path d="M900 2250 c-18 -12 -2 -12 25 0 13 6 15 9 5 9 -8 0 -22 -4 -30 -9z"/>
<path d="M1073 2225 c-318 -57 -588 -262 -729 -551 -148 -303 -132 -652 44
-947 140 -235 390 -408 677 -468 77 -16 293 -16 370 0 395 82 696 363 791 738
143 565 -225 1127 -805 1228 -101 18 -250 18 -348 0z m368 -130 c318 -65 581
-312 671 -630 30 -106 32 -334 4 -435 -23 -83 -82 -211 -134 -287 -49 -73
-180 -197 -255 -241 -168 -101 -312 -137 -516 -130 -117 5 -149 10 -231 36
-261 86 -464 276 -561 526 -124 320 -40 692 212 932 219 208 511 290 810 229z"/>
<path d="M495 1537 c-3 -7 -4 -145 -3 -307 l3 -295 48 -3 47 -3 0 95 c0 57 4
97 11 101 6 4 37 13 69 21 130 30 237 109 280 207 21 47 44 173 35 188 -4 5
-26 9 -49 9 l-43 0 -7 -57 c-16 -145 -105 -237 -250 -258 l-46 -7 0 34 c0 31
3 35 43 45 93 25 152 94 164 193 l6 51 -49 -3 c-49 -3 -49 -3 -55 -43 -7 -54
-24 -82 -59 -100 -47 -24 -50 -21 -50 65 l0 80 -45 0 c-28 0 -48 -5 -50 -13z"/>
<path d="M1097 1439 l-89 -110 74 -87 c41 -48 77 -92 81 -98 3 -6 -30 -53 -73
-105 l-80 -94 53 -3 52 -3 60 66 60 67 53 -66 54 -66 54 0 c30 0 54 2 54 4 0
2 -34 44 -75 92 -41 49 -75 92 -75 96 0 3 34 49 75 102 l76 96 -91 110 c-90
109 -92 110 -133 109 -41 0 -44 -3 -130 -110z m202 -45 l53 -64 -57 -68 c-32
-37 -61 -67 -65 -67 -9 0 -110 124 -110 134 0 13 103 131 114 130 6 0 35 -29
65 -65z"/>
<path d="M1545 1537 c-3 -7 -4 -143 -3 -302 l3 -290 48 -3 47 -3 0 228 c1 185
3 232 15 248 15 18 16 18 44 2 39 -23 43 -22 63 13 l16 29 -77 45 c-79 47
-146 61 -156 33z"/>
<path d="M1933 1360 c-55 -51 -63 -63 -63 -95 0 -31 10 -48 61 -106 34 -38 65
-66 70 -63 5 3 9 26 9 52 0 38 -5 52 -32 79 l-33 34 33 30 c28 26 32 37 32 80
0 27 -3 49 -7 49 -5 0 -36 -27 -70 -60z"/>
<path d="M820 2220 c-8 -5 -10 -10 -5 -10 6 0 17 5 25 10 8 5 11 10 5 10 -5 0
-17 -5 -25 -10z"/>
<path d="M1660 2220 c8 -5 20 -10 25 -10 6 0 3 5 -5 10 -8 5 -19 10 -25 10 -5
0 -3 -5 5 -10z"/>
<path d="M1701 2206 c10 -9 89 -46 89 -41 0 5 -75 45 -86 45 -4 0 -5 -2 -3 -4z"/>
<path d="M667 2140 c-26 -16 -47 -32 -47 -34 0 -3 23 9 50 26 44 27 57 38 47
38 -2 0 -24 -13 -50 -30z"/>
<path d="M1800 2157 c0 -2 26 -21 58 -41 31 -20 45 -27 30 -14 -30 26 -88 62
-88 55z"/>
<path d="M549 2053 l-24 -28 28 24 c25 23 32 31 24 31 -2 0 -14 -12 -28 -27z"/>
<path d="M1974 2029 c27 -25 72 -70 99 -100 l49 -54 -40 50 c-40 49 -82 91
-132 130 -14 11 -4 -1 24 -26z"/>
<path d="M464 1978 l-29 -33 33 29 c17 17 32 31 32 33 0 8 -8 1 -36 -29z"/>
<path d="M404 1908 l-19 -23 23 19 c21 18 27 26 19 26 -2 0 -12 -10 -23 -22z"/>
<path d="M369 1863 c-13 -16 -12 -17 4 -4 9 7 17 15 17 17 0 8 -8 3 -21 -13z"/>
<path d="M2160 1811 c22 -36 43 -67 47 -70 14 -13 -41 78 -63 105 -14 16 -6 0
16 -35z"/>
<path d="M269 1699 c-16 -34 -29 -63 -27 -65 2 -2 18 26 36 61 17 36 30 65 27
65 -3 0 -19 -27 -36 -61z"/>
<path d="M2241 1670 c0 -3 13 -41 29 -85 32 -89 41 -90 11 -2 -18 51 -40 100
-40 87z"/>
<path d="M201 1514 c0 -11 3 -14 6 -6 3 7 2 16 -1 19 -3 4 -6 -2 -5 -13z"/>
<path d="M2301 1484 c0 -11 3 -14 6 -6 3 7 2 16 -1 19 -3 4 -6 -2 -5 -13z"/>
<path d="M191 1474 c0 -11 3 -14 6 -6 3 7 2 16 -1 19 -3 4 -6 -2 -5 -13z"/>
<path d="M2312 1435 c0 -16 2 -22 5 -12 2 9 2 23 0 30 -3 6 -5 -1 -5 -18z"/>
<path d="M182 1430 c0 -14 2 -19 5 -12 2 6 2 18 0 25 -3 6 -5 1 -5 -13z"/>
<path d="M2322 1370 c0 -19 2 -27 5 -17 2 9 2 25 0 35 -3 9 -5 1 -5 -18z"/>
<path d="M172 1360 c0 -19 2 -27 5 -17 2 9 2 25 0 35 -3 9 -5 1 -5 -18z"/>
<path d="M2333 1240 c0 -41 2 -58 4 -37 2 20 2 54 0 75 -2 20 -4 3 -4 -38z"/>
<path d="M163 1240 c0 -25 2 -35 4 -22 2 12 2 32 0 45 -2 12 -4 2 -4 -23z"/>
<path d="M173 1125 c0 -22 2 -30 4 -17 2 12 2 30 0 40 -3 9 -5 -1 -4 -23z"/>
<path d="M2322 1110 c0 -19 2 -27 5 -17 2 9 2 25 0 35 -3 9 -5 1 -5 -18z"/>
<path d="M182 1050 c0 -14 2 -19 5 -12 2 6 2 18 0 25 -3 6 -5 1 -5 -13z"/>
<path d="M2302 1014 c-6 -32 -10 -59 -8 -61 6 -6 28 95 24 108 -2 6 -9 -15
-16 -47z"/>
<path d="M191 1004 c0 -11 3 -14 6 -6 3 7 2 16 -1 19 -3 4 -6 -2 -5 -13z"/>
<path d="M201 964 c0 -11 3 -14 6 -6 3 7 2 16 -1 19 -3 4 -6 -2 -5 -13z"/>
<path d="M2276 915 c-12 -47 -80 -188 -123 -252 -52 -79 -184 -215 -263 -272
-35 -25 -101 -65 -145 -88 -93 -49 -95 -58 -2 -12 186 94 357 255 454 427 46
81 95 200 90 215 -2 7 -7 -2 -11 -18z"/>
<path d="M230 875 c0 -5 5 -17 10 -25 5 -8 10 -10 10 -5 0 6 -5 17 -10 25 -5
8 -10 11 -10 5z"/>
<path d="M250 826 c0 -11 50 -106 55 -106 3 0 -7 24 -21 53 -28 55 -34 65 -34
53z"/>
<path d="M327 679 c10 -17 24 -36 32 -42 8 -7 2 7 -14 31 -32 49 -45 57 -18
11z"/>
<path d="M388 595 c11 -16 56 -64 99 -105 l78 -75 -90 95 c-49 52 -94 100 -99
105 -5 6 0 -3 12 -20z"/>
<path d="M597 393 c17 -15 46 -37 65 -47 45 -26 25 -8 -42 38 -40 27 -46 29
-23 9z"/>
<path d="M700 325 c0 -13 214 -106 243 -105 6 1 -22 14 -63 29 -41 15 -99 40
-127 55 -29 14 -53 24 -53 21z"/>
<path d="M1595 239 c-27 -10 -37 -17 -21 -14 31 7 97 33 81 33 -5 0 -32 -8
-60 -19z"/>
<path d="M975 210 c11 -5 29 -8 40 -8 16 0 15 2 -5 8 -34 11 -60 11 -35 0z"/>
<path d="M1490 210 c-20 -6 -21 -8 -5 -8 11 0 29 3 40 8 25 11 -1 11 -35 0z"/>
<path d="M1053 193 c9 -2 23 -2 30 0 6 3 -1 5 -18 5 -16 0 -22 -2 -12 -5z"/>
<path d="M1423 193 c9 -2 23 -2 30 0 6 3 -1 5 -18 5 -16 0 -22 -2 -12 -5z"/>
<path d="M1123 183 c15 -2 39 -2 55 0 15 2 2 4 -28 4 -30 0 -43 -2 -27 -4z"/>
<path d="M1323 183 c15 -2 39 -2 55 0 15 2 2 4 -28 4 -30 0 -43 -2 -27 -4z"/>
</g>
</svg>
