<?xml version="1.0" encoding="utf-8"?>
<!-- Generator: Adobe Adobe Illustrator 24.2.0, SVG Export Plug-In . SVG Version: 6.00 Build 0)  -->
<svg version="1.1" id="Layer_1" xmlns="http://www.w3.org/2000/svg" xmlns:xlink="http://www.w3.org/1999/xlink" x="0px" y="0px"
	 viewBox="0 0 256 256" style="enable-background:new 0 0 256 256;" xml:space="preserve">
<style type="text/css">
	.st0{fill:url(#SVGID_1_);}
	.st1{fill:#FFD57E;stroke:#000000;stroke-miterlimit:10;}
	.st2{fill:url(#SVGID_2_);stroke:#000000;stroke-miterlimit:10;}
	.st3{fill:url(#SVGID_3_);stroke:#000000;stroke-miterlimit:10;}
	.st4{fill:url(#SVGID_4_);stroke:#000000;stroke-miterlimit:10;}
	.st5{fill:url(#SVGID_5_);stroke:#000000;stroke-miterlimit:10;}
	.st6{fill:url(#SVGID_6_);stroke:#000000;stroke-miterlimit:10;}
	.st7{fill:url(#SVGID_7_);stroke:#000000;stroke-miterlimit:10;}
	.st8{fill:url(#SVGID_8_);}
	.st9{fill:url(#SVGID_9_);}
	.st10{fill:url(#SVGID_10_);}
	.st11{fill:url(#SVGID_11_);}
	.st12{fill:url(#SVGID_12_);}
</style>
<linearGradient id="SVGID_1_" gradientUnits="userSpaceOnUse" x1="205.0638" y1="218.748" x2="47.3058" y2="32.9769">
	<stop  offset="0" style="stop-color:#FFB224"/>
	<stop  offset="0.1377" style="stop-color:#FFB429"/>
	<stop  offset="0.3042" style="stop-color:#FFBA38"/>
	<stop  offset="0.4854" style="stop-color:#FFC350"/>
	<stop  offset="0.6773" style="stop-color:#FFD072"/>
	<stop  offset="0.8753" style="stop-color:#FFE19E"/>
	<stop  offset="1" style="stop-color:#FFEDBD"/>
</linearGradient>
<ellipse class="st0" cx="128" cy="128" rx="128" ry="126"/>
<ellipse class="st1" cx="128" cy="128" rx="111.68" ry="109.39"/>
<radialGradient id="SVGID_2_" cx="128" cy="128.0066" r="128.2417" gradientTransform="matrix(1 0 0 0.982 0 2.2999)" gradientUnits="userSpaceOnUse">
	<stop  offset="0" style="stop-color:#FFB428"/>
	<stop  offset="0.3726" style="stop-color:#FDB328"/>
	<stop  offset="0.5069" style="stop-color:#F6AE27"/>
	<stop  offset="0.6026" style="stop-color:#EBA625"/>
	<stop  offset="0.68" style="stop-color:#DA9A22"/>
	<stop  offset="0.7463" style="stop-color:#C48A1F"/>
	<stop  offset="0.805" style="stop-color:#A8771A"/>
	<stop  offset="0.8581" style="stop-color:#886015"/>
	<stop  offset="0.9069" style="stop-color:#62450F"/>
	<stop  offset="0.9523" style="stop-color:#372709"/>
	<stop  offset="0.9926" style="stop-color:#090701"/>
	<stop  offset="1" style="stop-color:#000000"/>
</radialGradient>
<ellipse class="st2" cx="128" cy="128" rx="103.56" ry="102.55"/>
<g>
	<linearGradient id="SVGID_3_" gradientUnits="userSpaceOnUse" x1="49.5585" y1="92.6418" x2="94.0174" y2="153.4123">
		<stop  offset="0" style="stop-color:#FFE8B0"/>
		<stop  offset="4.250705e-03" style="stop-color:#FFE7AE"/>
		<stop  offset="0.0937" style="stop-color:#FFD98A"/>
		<stop  offset="0.1894" style="stop-color:#FFCE6B"/>
		<stop  offset="0.2945" style="stop-color:#FFC451"/>
		<stop  offset="0.4106" style="stop-color:#FFBC3D"/>
		<stop  offset="0.5436" style="stop-color:#FFB730"/>
		<stop  offset="0.7083" style="stop-color:#FFB427"/>
		<stop  offset="1" style="stop-color:#FFB325"/>
	</linearGradient>
	<path class="st3" d="M50.64,97.14c0.18-0.17,0.39-0.15,0.6-0.15c2.55,0,5.1-0.01,7.65-0.01c0.41,0,0.48,0.07,0.48,0.48
		c0,5.31,0,10.62,0,15.93c0,0.06,0.01,0.13,0.01,0.22c0.41-0.01,0.78-0.12,1.15-0.21c1.79-0.42,3.54-0.96,5.16-1.87
		c1.99-1.12,3.48-2.71,4.51-4.74c1.11-2.2,1.64-4.54,1.9-6.97c0.08-0.8,0.12-1.6,0.16-2.4c0.01-0.31,0.15-0.43,0.46-0.43
		c2.63,0,5.26,0,7.89-0.01c0.29,0,0.44,0.11,0.43,0.41c-0.11,3.89-0.64,7.71-2.14,11.34c-1.87,4.53-4.98,7.93-9.36,10.16
		c-2.71,1.38-5.61,2.18-8.6,2.65c-0.5,0.08-1.01,0.14-1.54,0.22c0,2.75,0,5.49,0,8.29c0.57-0.05,1.13-0.1,1.69-0.16
		c2.52-0.31,5.02-0.74,7.47-1.4c2.97-0.79,5.82-1.86,8.51-3.36c5.18-2.9,8.99-7.03,11.33-12.5c1.23-2.88,1.96-5.9,2.36-9
		c0.26-2.06,0.36-4.12,0.38-6.19c0-0.4,0.06-0.45,0.47-0.45c2.71,0,5.41,0,8.12,0c0.62,0,0.65,0.03,0.63,0.64
		c-0.08,3.03-0.33,6.04-0.86,9.03c-0.95,5.33-2.71,10.36-5.72,14.9c-2.15,3.23-4.8,5.98-7.93,8.28c-4.03,2.96-8.51,4.98-13.27,6.41
		c-3.13,0.94-6.31,1.62-9.54,2.08c-1.2,0.17-2.4,0.32-3.61,0.48c-0.07,0.11-0.04,0.24-0.04,0.36c0,6.42,0,12.85,0,19.27
		c0,0.12,0.02,0.25,0.01,0.37c-0.03,0.24-0.12,0.4-0.41,0.33c-0.13-0.03-0.26-0.03-0.4-0.03c-2.47,0.02-4.95,0.04-7.42,0.06
		c-0.16,0-0.34,0.03-0.49-0.13C50.64,138.41,50.64,117.79,50.64,97.14z"/>
	<linearGradient id="SVGID_4_" gradientUnits="userSpaceOnUse" x1="102.597" y1="113.2638" x2="148.4151" y2="159.8719">
		<stop  offset="0" style="stop-color:#FFE6AC"/>
		<stop  offset="0.0105" style="stop-color:#FFE4A7"/>
		<stop  offset="0.0885" style="stop-color:#FFD784"/>
		<stop  offset="0.1747" style="stop-color:#FFCB67"/>
		<stop  offset="0.2695" style="stop-color:#FFC24E"/>
		<stop  offset="0.3764" style="stop-color:#FFBB3C"/>
		<stop  offset="0.5022" style="stop-color:#FFB62F"/>
		<stop  offset="0.6652" style="stop-color:#FFB327"/>
		<stop  offset="1" style="stop-color:#FFB225"/>
	</linearGradient>
	<path class="st4" d="M129.94,97.01c1.57,1.86,3.11,3.72,4.65,5.58c4.46,5.4,8.91,10.8,13.37,16.21c0.31,0.38,0.31,0.41-0.01,0.78
		c-5.39,6.35-10.77,12.7-16.16,19.05c-0.08,0.09-0.15,0.19-0.24,0.29c0.87,1.01,1.72,2.01,2.57,3.01
		c4.66,5.44,9.31,10.87,13.97,16.31c0.11,0.12,0.25,0.24,0.17,0.44c-0.09,0.21-0.28,0.18-0.46,0.18c-3.19-0.02-6.37-0.05-9.56-0.07
		c-0.3,0-0.47-0.15-0.63-0.35c-3.43-4.11-6.87-8.22-10.3-12.33c-0.46-0.55-0.91-1.09-1.4-1.67c-0.25,0.31-0.49,0.59-0.73,0.88
		c-3.56,4.35-7.12,8.7-10.68,13.05c-0.23,0.28-0.47,0.41-0.84,0.41c-3.03,0.01-6.06,0.04-9.09,0.06c-0.09,0-0.18,0-0.27,0
		c-0.14,0-0.27-0.02-0.34-0.16c-0.08-0.16,0-0.28,0.1-0.39c0.59-0.7,1.18-1.39,1.77-2.09c4.82-5.67,9.65-11.35,14.47-17.02
		c0.06-0.07,0.11-0.14,0.17-0.21c-0.07-0.19-0.22-0.31-0.34-0.45c-5.35-6.32-10.71-12.64-16.06-18.96
		c-0.37-0.43-0.37-0.44-0.02-0.87c5.73-7.12,11.46-14.24,17.2-21.36c0.08-0.1,0.16-0.18,0.27-0.28c0.14-0.06,0.26-0.03,0.38-0.03
		c1.73,0,3.47,0,5.23-0.02C128.08,97.01,128.99,97.01,129.94,97.01z"/>
	<linearGradient id="SVGID_5_" gradientUnits="userSpaceOnUse" x1="146.7902" y1="109.682" x2="177.8314" y2="139.4444">
		<stop  offset="0" style="stop-color:#FFE6AC"/>
		<stop  offset="0.1431" style="stop-color:#FFD888"/>
		<stop  offset="0.3116" style="stop-color:#FFCA64"/>
		<stop  offset="0.4821" style="stop-color:#FFC049"/>
		<stop  offset="0.6532" style="stop-color:#FFB835"/>
		<stop  offset="0.8253" style="stop-color:#FFB429"/>
		<stop  offset="1" style="stop-color:#FFB225"/>
	</linearGradient>
	<path class="st5" d="M176,102.34c1.8,1.06,3.57,2.1,5.34,3.14c0.42,0.25,0.44,0.31,0.2,0.73c-0.95,1.72-1.9,3.45-2.85,5.17
		c-0.23,0.41-0.29,0.43-0.7,0.18c-3.38-2-6.75-4.01-10.13-6.01c-0.1-0.06-0.21-0.12-0.33-0.19c-0.08,0.16-0.05,0.3-0.05,0.44
		c0,17.41,0,34.82,0,52.22c0,0.75,0,0.75-0.75,0.74c-2.47,0-4.94-0.01-7.42-0.01c-0.5,0-0.54-0.04-0.54-0.53
		c-0.02-20.2-0.04-40.4-0.06-60.6c0-0.5,0.05-0.55,0.55-0.56c2.43-0.03,4.86-0.05,7.28-0.08c0.23,0,0.43,0.05,0.63,0.17
		C170.11,98.88,173.05,100.6,176,102.34z"/>
	<linearGradient id="SVGID_6_" gradientUnits="userSpaceOnUse" x1="193.1281" y1="115.8579" x2="210.0963" y2="130.808">
		<stop  offset="0" style="stop-color:#FFE7AE"/>
		<stop  offset="0.1993" style="stop-color:#FFD887"/>
		<stop  offset="0.4491" style="stop-color:#FFC85C"/>
		<stop  offset="0.6747" style="stop-color:#FFBC3E"/>
		<stop  offset="0.8659" style="stop-color:#FFB52B"/>
		<stop  offset="1" style="stop-color:#FFB224"/>
	</linearGradient>
	<path class="st6" d="M194.13,131.38c-0.42-0.45-0.82-0.88-1.23-1.31c-0.13-0.14-0.19-0.29-0.19-0.48
		c-0.01-2.46-0.02-4.92-0.04-7.38c0-0.22,0.06-0.38,0.22-0.53c3.99-3.87,7.97-7.74,11.95-11.62c0.11-0.11,0.22-0.24,0.4-0.16
		c0.2,0.08,0.19,0.25,0.18,0.42c-0.02,3.19-0.04,6.39-0.05,9.58c0,0.24-0.12,0.39-0.28,0.54c-1.91,1.79-3.81,3.59-5.71,5.38
		c-0.1,0.09-0.2,0.17-0.32,0.26c0.12,0.13,0.2,0.22,0.28,0.3c1.92,1.98,3.84,3.97,5.77,5.95c0.18,0.18,0.25,0.37,0.25,0.62
		c-0.01,3.14-0.01,6.28-0.01,9.42c0,0.1,0.01,0.2-0.01,0.3c-0.05,0.26-0.26,0.34-0.47,0.18c-0.09-0.07-0.16-0.16-0.23-0.24
		C201.14,138.88,197.64,135.14,194.13,131.38z"/>
	<linearGradient id="SVGID_7_" gradientUnits="userSpaceOnUse" x1="135.9991" y1="129.2872" x2="109.8766" y2="102.1119">
		<stop  offset="0" style="stop-color:#FEB428"/>
		<stop  offset="0.2069" style="stop-color:#FBB228"/>
		<stop  offset="0.3419" style="stop-color:#F3AC26"/>
		<stop  offset="0.4565" style="stop-color:#E4A124"/>
		<stop  offset="0.5597" style="stop-color:#CE9221"/>
		<stop  offset="0.6551" style="stop-color:#B37F1C"/>
		<stop  offset="0.745" style="stop-color:#916717"/>
		<stop  offset="0.8304" style="stop-color:#694B11"/>
		<stop  offset="0.9123" style="stop-color:#3B2A09"/>
		<stop  offset="0.9889" style="stop-color:#080601"/>
		<stop  offset="1" style="stop-color:#000000"/>
	</linearGradient>
	<path class="st7" d="M127.1,132.98c-0.28,0.33-0.55,0.64-0.82,0.96c-0.31,0.36-0.42,0.36-0.73-0.01c-2.07-2.47-4.14-4.95-6.22-7.43
		c-1.98-2.36-3.96-4.73-5.94-7.09c-0.29-0.35-0.29-0.4-0.02-0.74c4.03-4.98,8.06-9.97,12.1-14.95c0.38-0.47,0.44-0.47,0.83-0.01
		c4.16,4.97,8.31,9.94,12.47,14.91c0.3,0.36,0.3,0.38-0.01,0.76C134.88,123.9,131,128.43,127.1,132.98z"/>
</g>
<linearGradient id="SVGID_8_" gradientUnits="userSpaceOnUse" x1="178.0371" y1="135.2143" x2="155.556" y2="119.6985">
	<stop  offset="0" style="stop-color:#FEB428"/>
	<stop  offset="0.3729" style="stop-color:#FCB328"/>
	<stop  offset="0.5073" style="stop-color:#F5AE27"/>
	<stop  offset="0.6031" style="stop-color:#EAA525"/>
	<stop  offset="0.6805" style="stop-color:#D99922"/>
	<stop  offset="0.7468" style="stop-color:#C38A1F"/>
	<stop  offset="0.8056" style="stop-color:#A7771A"/>
	<stop  offset="0.8588" style="stop-color:#876015"/>
	<stop  offset="0.9076" style="stop-color:#61450F"/>
	<stop  offset="0.953" style="stop-color:#362609"/>
	<stop  offset="0.9934" style="stop-color:#080601"/>
	<stop  offset="1" style="stop-color:#000000"/>
</linearGradient>
<path class="st8" d="M177.55,112.23c-3.33-2.18-6.36-4.31-9.75-6.36c0.15,4.92,0.05,21.19,0.05,24.1c0,7.06,0.04,14.04,0.04,20.9"/>
<linearGradient id="SVGID_9_" gradientUnits="userSpaceOnUse" x1="143.2646" y1="137.6661" x2="120.2528" y2="132.2072">
	<stop  offset="0" style="stop-color:#FEB428"/>
	<stop  offset="0.0855" style="stop-color:#F4AD26"/>
	<stop  offset="0.2313" style="stop-color:#D99A22"/>
	<stop  offset="0.4197" style="stop-color:#AD7A1B"/>
	<stop  offset="0.6433" style="stop-color:#704F12"/>
	<stop  offset="0.8939" style="stop-color:#231905"/>
	<stop  offset="1" style="stop-color:#000000"/>
</linearGradient>
<path class="st9" d="M147.32,156.62c-5.37-6.07-10.41-11.98-15.53-17.77c0.9-1.01,1.27-1.48,1.92-2.22
	c3.98-4.49,9.06-10.74,13.7-15.97"/>
<linearGradient id="SVGID_10_" gradientUnits="userSpaceOnUse" x1="115.0918" y1="140.3718" x2="123.7468" y2="155.6645">
	<stop  offset="0" style="stop-color:#000000"/>
	<stop  offset="0.1089" style="stop-color:#291D06"/>
	<stop  offset="0.2944" style="stop-color:#694A11"/>
	<stop  offset="0.4716" style="stop-color:#9F7019"/>
	<stop  offset="0.6355" style="stop-color:#C88D1F"/>
	<stop  offset="0.7833" style="stop-color:#E6A324"/>
	<stop  offset="0.9097" style="stop-color:#F9AF27"/>
	<stop  offset="1" style="stop-color:#FFB428"/>
</linearGradient>
<path class="st10" d="M113.87,159.9c0.63-0.54,1.17-1.27,1.77-2.02c3.47-4.34,6.94-8.52,10.25-12.67c0.95,1.1,1.37,1.67,2.01,2.42
	c1.56,1.81,4.46,5.33,4.85,5.81c0.53,0.67,2.4,2.74,3.7,4.37c0.33,0.41,0.88,1.04,1.21,1.44c0.38,0.47,0.58,0.6,0.81,0.76"/>
<linearGradient id="SVGID_11_" gradientUnits="userSpaceOnUse" x1="45.9699" y1="124.8693" x2="76.9056" y2="141.1149">
	<stop  offset="0" style="stop-color:#000000"/>
	<stop  offset="0.0592" style="stop-color:#1A1204"/>
	<stop  offset="0.2054" style="stop-color:#553C0D"/>
	<stop  offset="0.3515" style="stop-color:#876015"/>
	<stop  offset="0.4941" style="stop-color:#B07D1C"/>
	<stop  offset="0.6324" style="stop-color:#D09421"/>
	<stop  offset="0.7653" style="stop-color:#E7A424"/>
	<stop  offset="0.8905" style="stop-color:#F5AE26"/>
	<stop  offset="1" style="stop-color:#FAB127"/>
</linearGradient>
<path class="st11" d="M59.96,159.27c0-6.58,0.02-13.47,0.02-20.15c3.6-0.53,3.8-0.51,4.18-0.57c2.08-0.31,4-0.68,6.25-1.18
	c0.82-0.18,1.7-0.47,2.52-0.67c0.8-0.2,2.46-0.84,3.23-1.13c3.02-1.12,4.97-1.86,7.69-3.44c0.96-0.56,1.85-1.1,2.76-1.72
	c1.45-1,3.52-2.81,4.13-3.42c1.12-1.1,4.3-4.25,3.69-3.6c0,0.02-0.03,0.07-0.03,0.1c0,0-25.78,24.21-26.11,24.29"/>
<linearGradient id="SVGID_12_" gradientUnits="userSpaceOnUse" x1="65.782" y1="124.2046" x2="60.0603" y2="118.5474">
	<stop  offset="0" style="stop-color:#F9B027"/>
	<stop  offset="0.093" style="stop-color:#F3AC26"/>
	<stop  offset="0.2207" style="stop-color:#E19F23"/>
	<stop  offset="0.3685" style="stop-color:#C48B1F"/>
	<stop  offset="0.5315" style="stop-color:#9C6E18"/>
	<stop  offset="0.7069" style="stop-color:#684910"/>
	<stop  offset="0.8899" style="stop-color:#291D06"/>
	<stop  offset="1" style="stop-color:#000000"/>
</linearGradient>
<path class="st12" d="M60.02,128.78c0-0.67-0.06-5.69-0.06-6.53c0.95-0.15,2.81-0.46,2.85-0.46c0.04-0.01,3.23-0.77,3.86-1.02
	c2.41-0.96,3.95-1.84,4.07-1.93"/>
</svg>
