<svg width="256" height="256" viewBox="0 0 256 256" fill="none" xmlns="http://www.w3.org/2000/svg">
<rect width="256" height="256" fill="white"/>
<path d="M120.5 50.4021C94.9997 53.1021 72.0997 68.8021 60.6997 91.6021C51.2997 110.502 49.5997 128.002 55.1997 149.102L56.3997 153.402H66.6997C72.4997 153.402 77.2997 153.802 77.5997 154.402C77.9997 155.002 74.5997 155.402 68.1997 155.402C62.3997 155.402 58.0997 155.802 58.0997 156.402C58.0997 156.902 58.8997 158.902 59.7997 160.902L61.4997 164.402H73.6997C83.2997 164.402 86.0997 164.702 87.0997 165.902C88.1997 167.202 86.8997 167.402 76.1997 167.402C69.5997 167.402 64.0997 167.702 64.0997 168.202C64.0997 168.602 65.4997 170.602 67.0997 172.602L70.0997 176.302L87.5997 176.602C100.2 176.802 105.4 177.302 106.3 178.202C107.4 179.302 104.5 179.402 90.2997 179.202C80.8997 179.002 73.0997 179.202 73.0997 179.602C73.0997 180.002 75.0997 181.902 77.4997 183.802L81.7997 187.402H128.8H175.8L180.2 183.402L184.6 179.502L167.1 179.402C151.4 179.302 149.9 179.202 152.1 177.902C154 176.802 158.7 176.502 171.1 176.402H187.6L190.4 172.502C191.9 170.302 193.1 168.302 193.1 168.002C193.1 167.702 187.6 167.402 181 167.402C170.3 167.402 169 167.202 170.1 165.902C171.1 164.702 173.9 164.402 183.5 164.402H195.7L197.4 160.902C198.3 158.902 199.1 156.902 199.1 156.402C199.1 155.802 194.8 155.402 189 155.402C182.6 155.402 179.2 155.002 179.6 154.402C179.9 153.802 184.7 153.402 190.5 153.402H200.8L202.6 147.602C204.9 139.902 205.7 122.002 204.1 113.002C197.3 74.0021 160.3 46.3021 120.5 50.4021ZM140.3 67.6021L145.6 68.8021L137.6 69.5021C120.4 71.0021 108.5 79.1021 101.2 94.4021C98.0997 100.802 97.5997 103.002 97.2997 110.902C96.8997 119.402 97.0997 120.502 100.2 128.002C112.4 157.402 149.6 164.602 171.2 141.702C176.9 135.702 180.6 128.402 182.6 119.202L183.9 112.902L184 121.502C184.2 145.602 168.1 166.802 144.2 173.802C137.2 175.802 123.3 175.902 115.6 173.902C106.6 171.502 98.1997 166.602 91.0997 159.402C64.7997 133.002 71.9997 89.2021 105.4 72.3021C116.1 66.8021 129.2 65.1021 140.3 67.6021Z" fill="black"/>
</svg>
