<?xml version="1.0" standalone="no"?>
<!DOCTYPE svg PUBLIC "-//W3C//DTD SVG 20010904//EN"
 "http://www.w3.org/TR/2001/REC-SVG-20010904/DTD/svg10.dtd">
<svg version="1.0" xmlns="http://www.w3.org/2000/svg"
 width="256.000000pt" height="256.000000pt" viewBox="0 0 256.000000 256.000000"
 preserveAspectRatio="xMidYMid meet">

<g transform="translate(0.000000,256.000000) scale(0.100000,-0.100000)"
fill="#000000" stroke="none">
<path d="M1184 2020 c-255 -27 -484 -184 -598 -412 -94 -189 -111 -364 -55
-575 l12 -43 103 0 c58 0 106 -4 109 -10 4 -6 -30 -10 -94 -10 -58 0 -101 -4
-101 -10 0 -5 8 -25 17 -45 l17 -35 122 0 c96 0 124 -3 134 -15 11 -13 -2 -15
-109 -15 -66 0 -121 -3 -121 -8 0 -4 14 -24 30 -44 l30 -37 175 -3 c126 -2
178 -7 187 -16 11 -11 -18 -12 -160 -10 -94 2 -172 0 -172 -4 0 -4 20 -23 44
-42 l43 -36 470 0 470 0 44 40 44 39 -175 1 c-157 1 -172 2 -150 15 19 11 66
14 190 15 l165 0 28 39 c15 22 27 42 27 45 0 3 -55 6 -121 6 -107 0 -120 2
-109 15 10 12 38 15 134 15 l122 0 17 35 c9 20 17 40 17 45 0 6 -43 10 -101
10 -64 0 -98 4 -94 10 3 6 51 10 109 10 l103 0 18 58 c23 77 31 256 15 346
-68 390 -438 667 -836 626z m198 -172 l53 -12 -80 -7 c-172 -15 -291 -96 -364
-249 -31 -64 -36 -86 -39 -165 -4 -85 -2 -96 29 -171 122 -294 494 -366 710
-137 57 60 94 133 114 225 l13 63 1 -86 c2 -241 -159 -453 -398 -523 -70 -20
-209 -21 -286 -1 -90 24 -174 73 -245 145 -263 264 -191 702 143 871 107 55
238 72 349 47z"/>
<path d="M830 626 c0 -3 24 -18 54 -35 l53 -31 328 0 328 0 53 31 c30 17 54
32 54 35 0 2 -196 4 -435 4 -239 0 -435 -2 -435 -4z"/>
<path d="M1080 513 c63 -22 306 -22 375 0 48 15 42 15 -185 15 -225 0 -233 -1
-190 -15z"/>
</g>
</svg>
