<svg width="256" height="256" viewBox="0 0 256 256" fill="none" xmlns="http://www.w3.org/2000/svg">
<path d="M118.4 54C92.9001 56.7 70.0001 72.4 58.6001 95.2C49.2001 114.1 47.5001 131.6 53.1001 152.7L54.3001 157H64.6001C70.4001 157 75.2001 157.4 75.5001 158C75.9001 158.6 72.5001 159 66.1001 159C60.3001 159 56.0001 159.4 56.0001 160C56.0001 160.5 56.8001 162.5 57.7001 164.5L59.4001 168H71.6001C81.2001 168 84.0001 168.3 85.0001 169.5C86.1001 170.8 84.8001 171 74.1001 171C67.5001 171 62.0001 171.3 62.0001 171.8C62.0001 172.2 63.4001 174.2 65.0001 176.2L68.0001 179.9L85.5001 180.2C98.1001 180.4 103.3 180.9 104.2 181.8C105.3 182.9 102.4 183 88.2001 182.8C78.8001 182.6 71.0001 182.8 71.0001 183.2C71.0001 183.6 73.0001 185.5 75.4001 187.4L79.7001 191H126.7H173.7L178.1 187L182.5 183.1L165 183C149.3 182.9 147.8 182.8 150 181.5C151.9 180.4 156.6 180.1 169 180H185.5L188.3 176.1C189.8 173.9 191 171.9 191 171.6C191 171.3 185.5 171 178.9 171C168.2 171 166.9 170.8 168 169.5C169 168.3 171.8 168 181.4 168H193.6L195.3 164.5C196.2 162.5 197 160.5 197 160C197 159.4 192.7 159 186.9 159C180.5 159 177.1 158.6 177.5 158C177.8 157.4 182.6 157 188.4 157H198.7L200.5 151.2C202.8 143.5 203.6 125.6 202 116.6C195.2 77.6 158.2 49.9 118.4 54ZM138.2 71.2L143.5 72.4L135.5 73.1C118.3 74.6 106.4 82.7 99.1001 98C96.0001 104.4 95.5001 106.6 95.2001 114.5C94.8001 123 95.0001 124.1 98.1001 131.6C110.3 161 147.5 168.2 169.1 145.3C174.8 139.3 178.5 132 180.5 122.8L181.8 116.5L181.9 125.1C182.1 149.2 166 170.4 142.1 177.4C135.1 179.4 121.2 179.5 113.5 177.5C104.5 175.1 96.1001 170.2 89.0001 163C62.7001 136.6 69.9001 92.8 103.3 75.9C114 70.4 127.1 68.7 138.2 71.2Z" fill="black"/>
<path d="M83 193.4C83 193.7 85.4 195.2 88.4 196.9L93.7 200H126.5H159.3L164.6 196.9C167.6 195.2 170 193.7 170 193.4C170 193.2 150.4 193 126.5 193C102.6 193 83 193.2 83 193.4Z" fill="black"/>
<path d="M108 204.7C114.3 206.9 138.6 206.9 145.5 204.7C150.3 203.2 149.7 203.2 127 203.2C104.5 203.2 103.7 203.3 108 204.7Z" fill="black"/>
</svg>
