<?xml version="1.0" encoding="UTF-8" standalone="no"?>
<svg
   id="grafica"
   viewBox="0 0 255.99999 255.99999"
   version="1.1"
   sodipodi:docname="Hypercube_token_WTR_fondo.svg"
   width="256"
   height="256"
   inkscape:version="1.3.2 (091e20e, 2023-11-25, custom)"
   xmlns:inkscape="http://www.inkscape.org/namespaces/inkscape"
   xmlns:sodipodi="http://sodipodi.sourceforge.net/DTD/sodipodi-0.dtd"
   xmlns="http://www.w3.org/2000/svg"
   xmlns:svg="http://www.w3.org/2000/svg">
  <sodipodi:namedview
     id="namedview3"
     pagecolor="#ffffff"
     bordercolor="#000000"
     borderopacity="0.25"
     inkscape:showpageshadow="2"
     inkscape:pageopacity="0.0"
     inkscape:pagecheckerboard="0"
     inkscape:deskcolor="#d1d1d1"
     inkscape:zoom="2.3487674"
     inkscape:cx="100.90399"
     inkscape:cy="90.89874"
     inkscape:window-width="1920"
     inkscape:window-height="1009"
     inkscape:window-x="1912"
     inkscape:window-y="-8"
     inkscape:window-maximized="1"
     inkscape:current-layer="grafica" />
  <defs
     id="defs1">
    <style
       id="style1">
      .cls-1 {
        fill: #fff;
      }

      .cls-1, .cls-2 {
        stroke-width: 0px;
      }

      .cls-2 {
        fill: #0cf;
      }
    </style>
  </defs>
  <g
     id="g3">
    <path
       class="cls-2"
       d="M 128,0 C 57.313433,0 0,57.313433 0,128 0,198.68657 57.313433,256 128,256 198.68657,256 256,198.68657 256,128 256,57.313433 198.70223,0 128,0 Z"
       id="path1" />
    <path
       class="cls-1"
       d="m 128,206.29704 c -21.24982,0 -40.510888,-8.50306 -54.620015,-22.25202 l 0.313188,-1.67556 c 4.494251,-24.33472 15.769024,-39.17983 19.04184,-43.07903 11.838517,-14.61022 24.303397,-18.9009 40.495227,-12.7311 10.47615,4.33766 21.07757,12.68412 28.64106,16.23881 1.14314,0.5011 17.22535,7.31294 35.82872,7.31294 1.78518,0 3.60167,-0.0939 5.41816,-0.23489 -9.4896,32.57157 -39.49303,56.38953 -75.13384,56.38953 z"
       id="path2" />
    <path
       class="cls-1"
       d="m 204.93467,142.56325 -2.33325,0.17225 c -1.91045,0.14094 -3.46073,0.21923 -4.87008,0.21923 -16.67727,0 -31.39711,-6.06019 -32.88475,-6.68656 -0.21923,-0.094 -0.43847,-0.21923 -0.6577,-0.32885 0.5011,-2.44287 0.76731,-4.96403 0.76731,-7.54783 0,-20.41987 -16.55199,-36.987526 -36.98752,-36.987526 -20.43553,0 -36.98752,16.551996 -36.98752,36.987526 0,0.67335 0.01566,1.33104 0.04698,1.98874 -1.299731,1.34671 -2.568143,2.80303 -3.820896,4.35332 -3.492049,4.18106 -14.672867,18.96354 -19.856131,42.7815 C 56.32689,164.01664 49.702961,146.79129 49.702961,128 49.702961,84.764375 84.764375,49.702961 128,49.702961 c 43.23563,0 78.29704,35.061414 78.29704,78.297039 0,4.97969 -0.48544,9.83411 -1.37803,14.56325 z"
       id="path3" />
  </g>
</svg>
