<?xml version="1.0" standalone="no"?>
<!DOCTYPE svg PUBLIC "-//W3C//DTD SVG 20010904//EN"
 "http://www.w3.org/TR/2001/REC-SVG-20010904/DTD/svg10.dtd">
<svg version="1.0" xmlns="http://www.w3.org/2000/svg"
 width="256.000000pt" height="256.000000pt" viewBox="0 0 256.000000 256.000000"
 preserveAspectRatio="xMidYMid meet">

<g transform="translate(0.000000,256.000000) scale(0.100000,-0.100000)"
fill="#000000" stroke="none">
<path d="M910 1910 c-47 -5 -101 -14 -120 -21 -48 -19 -146 -86 -197 -135
l-43 -41 -1 -129 c0 -71 -5 -165 -10 -209 -24 -191 -24 -190 19 -320 23 -70
60 -153 88 -200 50 -84 74 -110 106 -121 10 -3 21 -18 24 -33 11 -53 44 -81
104 -90 38 -5 71 -19 108 -44 72 -49 119 -61 222 -53 47 4 127 9 178 12 l93 6
31 39 c17 22 40 39 50 39 10 0 18 6 18 14 0 8 6 16 13 19 7 3 19 29 25 59 7
29 27 83 46 118 48 95 69 165 63 212 -3 22 1 61 9 87 9 29 14 93 14 172 l0
126 -45 90 c-25 50 -47 109 -50 132 -6 63 -24 113 -54 144 -49 54 -74 61 -226
62 -134 2 -144 3 -243 38 -56 20 -110 36 -120 35 -9 0 -55 -4 -102 -8z m247
-65 c97 -33 109 -35 225 -33 95 1 130 -2 153 -14 39 -21 63 -47 69 -78 17 -90
38 -154 72 -219 38 -72 39 -76 42 -192 3 -84 -1 -137 -12 -181 -9 -36 -13 -79
-10 -99 7 -43 -17 -127 -51 -179 -13 -19 -33 -64 -45 -99 -16 -47 -36 -81 -76
-125 l-55 -61 -82 -6 c-45 -4 -123 -10 -173 -14 -107 -9 -144 0 -224 56 -37
26 -67 39 -90 40 -56 1 -74 13 -90 60 -11 31 -24 48 -45 58 -17 8 -35 21 -42
30 -37 49 -103 172 -113 211 -7 25 -16 50 -20 55 -4 6 -16 37 -25 69 -18 60
-17 67 4 241 5 44 10 137 10 206 1 149 3 152 114 226 102 68 144 81 262 82 89
1 111 -3 202 -34z"/>
<path d="M965 1724 c42 -6 118 -26 130 -34 6 -4 35 -15 65 -24 48 -15 73 -16
190 -7 l135 10 -140 -5 c-138 -4 -142 -4 -220 27 -46 18 -103 32 -135 34 -30
1 -41 1 -25 -1z"/>
<path d="M938 1642 c-10 -4 22 -7 70 -7 73 0 93 -4 122 -23 33 -21 44 -22 210
-20 l175 2 -175 6 c-147 4 -181 8 -210 24 -37 20 -161 32 -192 18z"/>
<path d="M1145 1470 c12 -40 26 -59 19 -25 -4 17 -11 35 -16 40 -7 7 -8 1 -3
-15z"/>
<path d="M1354 1456 c-9 -15 -14 -29 -12 -32 3 -2 13 7 22 22 10 14 15 28 13
31 -3 2 -13 -7 -23 -21z"/>
<path d="M805 1453 c-11 -3 -24 -10 -30 -15 -7 -8 -4 -9 10 -3 43 17 134 18
175 1 22 -9 62 -15 88 -15 l47 2 -55 7 c-30 4 -68 13 -83 19 -28 11 -113 13
-152 4z"/>
<path d="M1530 1453 c-91 -4 -120 -10 -120 -24 0 -8 4 -8 13 -1 6 6 55 11 107
12 126 2 126 2 144 -16 9 -8 16 -11 16 -6 0 30 -46 40 -160 35z"/>
<path d="M873 1363 c-35 -5 -58 -26 -50 -47 14 -35 169 -61 181 -30 12 30 6
52 -19 68 -24 15 -45 17 -112 9z m17 -31 c0 -10 5 -23 12 -30 16 -16 5 -15
-40 4 -35 15 -36 16 -18 30 27 19 46 18 46 -4z m110 -11 c0 -30 -14 -41 -49
-40 -32 2 -33 3 -7 6 17 3 30 12 33 24 5 19 23 27 23 10z"/>
<path d="M1450 1329 c0 -27 6 -33 56 -55 73 -32 122 -30 143 8 12 21 13 31 3
52 -11 25 -14 26 -107 26 l-95 0 0 -31z m125 -11 c0 -24 6 -35 25 -45 l25 -13
-30 0 c-47 0 -135 45 -135 70 0 18 6 20 58 20 l57 0 0 -32z"/>
<path d="M1301 1240 c-1 -14 10 -45 24 -69 14 -23 25 -59 25 -78 l0 -35 -47 7
c-79 10 -148 11 -151 0 -1 -6 39 -11 103 -12 l105 -2 0 42 c0 23 -6 51 -14 62
-7 11 -21 40 -29 65 -12 34 -16 39 -16 20z"/>
<path d="M1097 1146 c-14 -11 -17 -25 -15 -63 l3 -48 45 -1 45 -1 -42 4 c-43
4 -43 4 -43 44 0 40 11 60 40 72 13 5 13 5 0 6 -8 0 -23 -6 -33 -13z"/>
<path d="M1004 955 c-20 -43 -16 -64 5 -27 10 16 10 16 11 -1 0 -10 16 -27 35
-38 19 -12 35 -24 35 -28 0 -19 64 -34 161 -39 141 -6 193 10 268 85 31 31 50
58 45 63 -5 5 -54 5 -114 -1 -58 -5 -172 -9 -255 -7 -82 1 -156 -1 -163 -6
-10 -6 -11 -1 -6 18 9 38 2 32 -22 -19z"/>
<path d="M1138 764 c-15 -14 -8 -26 7 -14 16 13 152 10 190 -5 16 -7 18 -6 7
6 -13 15 -192 27 -204 13z"/>
</g>
</svg>
