<?xml version="1.0" standalone="no"?>
<!DOCTYPE svg PUBLIC "-//W3C//DTD SVG 20010904//EN"
 "http://www.w3.org/TR/2001/REC-SVG-20010904/DTD/svg10.dtd">
<svg version="1.0" xmlns="http://www.w3.org/2000/svg"
 width="256.000000pt" height="256.000000pt" viewBox="0 0 256.000000 256.000000"
 preserveAspectRatio="xMidYMid meet">

<g transform="translate(0.000000,256.000000) scale(0.100000,-0.100000)"
fill="#000000" stroke="none">
<path d="M1065 2141 c-6 -5 -55 -11 -110 -13 -70 -2 -110 -8 -134 -21 -19 -9
-39 -17 -46 -17 -7 0 -45 -25 -86 -55 -41 -30 -79 -55 -84 -55 -6 0 -31 -20
-55 -45 l-45 -46 -7 -256 c-5 -192 -10 -258 -20 -264 -21 -13 -17 -235 5 -274
9 -16 17 -36 17 -43 0 -7 8 -29 19 -50 10 -20 22 -56 26 -79 3 -23 15 -53 26
-67 10 -13 19 -27 19 -31 0 -3 11 -21 25 -39 14 -18 25 -40 25 -50 0 -9 7 -19
15 -22 8 -4 15 -12 15 -20 0 -17 59 -73 85 -80 11 -3 26 -19 33 -37 32 -79 43
-98 59 -103 10 -3 26 -10 35 -15 10 -5 38 -9 62 -9 31 0 53 -7 73 -23 57 -45
135 -87 162 -87 11 0 23 -4 26 -10 8 -14 191 -13 217 1 12 6 79 14 150 17
l129 5 41 48 c28 33 49 49 65 49 16 0 23 6 23 19 0 10 8 21 18 23 13 4 21 22
30 71 12 63 20 86 55 152 71 132 87 187 86 290 -1 54 4 92 15 117 13 30 16 72
16 206 l0 169 -60 117 c-43 82 -62 130 -65 165 -6 73 -16 121 -26 121 -5 0 -9
8 -9 18 0 23 -76 97 -113 111 -16 6 -48 11 -72 11 -24 0 -47 5 -50 10 -3 6
-33 10 -65 10 -32 0 -62 -4 -65 -10 -8 -12 -128 -13 -140 -1 -12 11 -276 101
-297 101 -8 0 -18 -4 -23 -9z m117 -60 c13 -5 63 -21 111 -36 48 -16 90 -32
93 -37 7 -12 202 -10 209 2 3 6 17 10 30 10 13 0 27 -4 30 -10 3 -5 23 -10 44
-10 48 0 99 -21 127 -52 20 -21 64 -166 64 -209 0 -9 14 -40 30 -70 17 -30 37
-70 45 -89 9 -19 21 -44 28 -55 8 -13 13 -78 15 -187 3 -144 1 -172 -14 -204
-13 -28 -18 -59 -17 -114 3 -115 -10 -163 -82 -290 -27 -48 -46 -95 -56 -140
-7 -32 -22 -56 -53 -85 -23 -22 -54 -57 -69 -77 l-27 -37 -108 -4 c-59 -2
-120 -8 -137 -12 -16 -4 -77 -8 -135 -9 -117 -1 -147 8 -225 64 -74 54 -75 54
-145 61 -54 6 -68 11 -87 35 -13 16 -23 39 -23 50 0 31 -36 72 -70 79 -17 4
-30 11 -30 17 0 5 -20 38 -45 72 -25 35 -45 68 -45 73 0 5 -11 24 -24 42 -14
18 -28 52 -31 74 -4 23 -11 47 -15 52 -4 6 -20 42 -35 80 -33 82 -38 178 -16
335 7 52 16 179 19 282 8 210 12 222 88 265 21 12 44 26 51 32 7 6 15 11 18
11 4 0 26 16 49 35 24 19 49 35 57 35 8 0 32 7 54 15 45 16 289 21 327 6z"/>
<path d="M1018 1893 c18 -2 45 -2 60 0 15 2 0 4 -33 4 -33 0 -45 -2 -27 -4z"/>
<path d="M1110 1881 c0 -10 69 -25 77 -17 7 6 -41 26 -63 26 -8 0 -14 -4 -14
-9z"/>
<path d="M1200 1856 c0 -7 61 -36 77 -36 24 0 14 18 -14 24 -16 4 -36 9 -45
12 -10 3 -18 3 -18 0z"/>
<path d="M1405 1810 c-38 -4 9 -5 105 -2 96 2 177 6 179 8 7 6 -206 1 -284 -6z"/>
<path d="M1000 1783 c-24 -14 -24 -14 15 -9 22 3 64 6 93 6 28 0 52 5 52 10 0
16 -131 10 -160 -7z"/>
<path d="M1190 1773 c14 -3 38 -15 55 -27 29 -20 41 -21 255 -21 l225 -1 -204
3 c-194 3 -208 5 -257 28 -29 14 -63 24 -76 24 -22 -2 -22 -2 2 -6z"/>
<path d="M1263 1577 c4 -10 7 -25 7 -33 0 -8 5 -14 10 -14 16 0 11 36 -7 51
-15 12 -16 12 -10 -4z"/>
<path d="M1548 1561 c-9 -10 -19 -29 -23 -42 -6 -22 -4 -21 19 6 14 17 25 36
26 43 0 16 -3 15 -22 -7z"/>
<path d="M830 1543 c-14 -2 -29 -9 -35 -15 -7 -8 -4 -9 10 -3 11 4 57 10 102
13 68 4 87 1 110 -13 19 -13 50 -19 98 -20 38 -1 50 -1 25 2 -25 2 -61 11 -80
20 -35 17 -178 27 -230 16z"/>
<path d="M1750 1540 l-115 -6 105 -3 c58 -2 110 -2 115 0 23 6 69 -1 76 -13 4
-7 11 -9 15 -5 12 12 -8 25 -46 30 -19 2 -87 1 -150 -3z"/>
<path d="M1617 1523 c-4 -3 -7 -11 -7 -17 0 -6 5 -5 12 2 6 6 9 14 7 17 -3 3
-9 2 -12 -2z"/>
<path d="M960 1430 c-8 -5 -29 -10 -46 -10 -40 0 -73 -34 -58 -58 15 -24 100
-50 166 -51 53 -1 58 1 64 24 10 40 -3 69 -41 88 -40 19 -63 21 -85 7z m-20
-48 c0 -15 5 -33 12 -40 17 -17 7 -15 -49 9 l-48 21 24 19 c35 29 61 25 61 -9z
m140 -16 c0 -38 -12 -46 -64 -45 -51 2 -51 2 -11 8 32 5 41 11 43 29 4 24 32
31 32 8z"/>
<path d="M1660 1385 c0 -29 6 -39 33 -55 17 -11 41 -20 52 -20 13 1 4 9 -25
23 -35 17 -46 28 -48 50 l-3 27 79 0 c79 0 79 0 74 -25 -8 -44 6 -75 33 -75
14 0 25 -4 25 -10 0 -14 -73 -13 -88 2 -6 6 -15 8 -19 4 -14 -14 22 -26 71
-24 40 3 53 8 69 30 17 23 19 34 11 65 l-9 38 -127 3 -128 3 0 -36z"/>
<path d="M1471 1274 c-1 -36 17 -94 30 -94 12 0 11 7 -3 33 -6 12 -15 38 -19
57 l-7 35 -1 -31z"/>
<path d="M1235 1160 c-3 -5 1 -10 9 -10 9 0 16 5 16 10 0 6 -4 10 -9 10 -6 0
-13 -4 -16 -10z"/>
<path d="M1510 1161 c0 -5 5 -13 10 -16 6 -3 10 -2 10 4 0 5 -4 13 -10 16 -5
3 -10 2 -10 -4z"/>
<path d="M1197 1139 c-25 -14 -25 -125 1 -133 28 -9 101 -11 108 -3 4 4 -18 7
-49 7 l-57 0 0 53 c0 29 5 58 12 65 16 16 7 23 -15 11z"/>
<path d="M1530 1081 l0 -51 -47 0 c-27 0 -57 7 -67 15 -22 16 -122 20 -145 6
-33 -21 5 -29 132 -29 89 0 134 3 139 11 11 18 10 85 -2 92 -6 4 -10 -13 -10
-44z"/>
<path d="M1094 913 c-10 -27 -22 -54 -27 -60 -6 -9 -6 -13 1 -13 6 0 14 9 17
20 9 27 25 25 25 -3 0 -15 11 -29 33 -42 17 -10 47 -31 65 -47 22 -19 44 -28
67 -28 18 0 37 -4 40 -10 8 -12 252 -14 259 -1 3 5 21 12 40 15 19 4 45 15 59
26 14 11 29 20 34 20 23 0 110 117 97 130 -5 5 -60 5 -124 0 -130 -10 -471
-13 -511 -4 -17 4 -32 0 -43 -12 -17 -16 -17 -15 -11 20 10 50 0 45 -21 -11z"/>
<path d="M1256 645 c-9 -24 -2 -29 14 -10 9 11 33 15 94 15 45 0 86 -4 92 -9
5 -4 25 -11 44 -15 33 -6 34 -6 18 11 -14 13 -41 18 -136 21 -107 4 -120 3
-126 -13z"/>
</g>
</svg>
