<svg xmlns="http://www.w3.org/2000/svg" viewBox="0 0 553.95 554.53"><title>612770026</title><path d="M282.09,560.88C126,559,4.33,437.56,4.6,282.79,4.87,128.41,127.35,4.28,285.8,6.38,437.12,8.39,558.49,128,558.55,283.25,558.61,438.76,436.47,558.54,282.09,560.88ZM24.81,283.45C24.74,425,139.13,539.55,280.32,540.24c140.32.69,258-111.42,258.23-256.23.27-143.46-113.92-257.44-256.87-257.58C137.09,26.3,24.33,143.46,24.81,283.45Z" transform="translate(-4.6 -6.36)" fill="#dcab44"/><path d="M24.81,283.45c-.48-140,112.28-257.15,256.87-257,143,.14,257.14,114.12,256.87,257.58-.28,144.81-117.91,256.92-258.23,256.23C139.13,539.55,24.74,425,24.81,283.45ZM235,128.94c-3.38,2.73-7.11,2.49-11,1.27L222.1,129c-4.49-2.87-7.69-7.11-11.47-10.73-1.33-1.28-1.65-2.37-.82-4.32a11,11,0,0,0-4-13.17c-1.19-.86-2.63-2.24-4-1.4-1.62,1-.37,2.71,0,4,3.82,12.89,7.78,25.73,11.48,38.65,1.1,3.88,3.1,5,7.1,5q61.15-.26,122.3,0c3.9,0,6.14-.71,6.89-5s2.26-8.64,3.44-13l0,0c3.75-8.88,5.71-18.32,8.68-27.44.79-2.4-.62-2.93-2.71-2.45-5.1,1.18-10.22,9.68-7.44,13.86s.57,6.15-1.67,8.71q-3.11,3.57-6.2,7.16l-.85.72c-3.54,1.08-6.56,4.75-10.65,2.89-5-2.26-6.31-7.36-8.13-12-1.51-3.82,1.78-4.66,3.73-6.47a9.83,9.83,0,0,0,3.34-7c.1-3.11,0-6.33-3.43-7.6S320.8,98.3,317.9,101c-3.34,3.12-4.4,8.82-1.83,12.81,1.39,2.15,1.29,3.36-.35,5.08-3.1,3.24-6,6.65-9,10-.76,0-1.46.16-1.72,1-6.45,2.48-10.1,1.51-14.38-4-1.61-2.08-2.74-4.57-4.5-6.48-2.17-2.35-2-3.94.22-6.2,2.44-2.45,2.17-5.8,1.32-8.93a7,7,0,0,0-5.79-5.42c-3.3-.58-5.73.7-7.47,3.62-2.62,4.4-1.33,8.2,1.51,11.86.87,1.12,2.24,1.85,1.92,3.75-1.86,11.1-11.48,16.33-21.77,11.74a1.42,1.42,0,0,0-.21-.85l-6.21-8.91c-1.35-1.94-1.94-3.26.71-5.16,3.94-2.82,3.73-9.07.23-13.32-2.62-3.18-8.23-4.15-11.25-2-3.17,2.33-4.31,9.52-.69,12.53,5.07,4.21,2.22,7.39.19,11-1.12,2-2.56,3.85-3.86,5.76ZM343.2,324.05c2.2-.13,3.34-.25,4.48-.26,24.72-.32,44.55-14.67,51-38.57,6-22.32,4.89-45.43,2.05-68-4-31.77-28.75-52.2-60.61-52.31-45.65-.17-91.31-.09-137,0-15.82,0-26.62,10.78-26.9,26.62-.12,6.66.26,13.34-.12,20-.25,4.4,1,5.54,5.48,5.53q78-.23,156,0c9.45,0,12.27,2.78,12.32,12.1q.08,15.26,0,30.5c0,9.88-2.62,12.52-12.32,12.54q-25.75,0-51.49-.05c-2.8,0-4.68.06-4.63,3.84.19,15.16,0,30.32.17,45.48.05,3.85-.11,7.66,2.52,11.35Q324.54,389.27,364.5,446a6.62,6.62,0,0,0,6.15,3.16c18.16-.12,36.33-.05,54.49-.11,1.17,0,2.68.72,3.58-1ZM229.71,360c0-28.14-.06-56.28.07-84.43,0-3.42-.83-4.57-4.42-4.52-14.48.19-29,.16-43.46,0-3.34,0-4.59.69-4.58,4.34q.17,84.18,0,168.36c0,3.77,1.43,4.3,4.66,4.26,14.15-.14,28.31-.3,42.46.07,4.72.13,5.38-1.49,5.35-5.65C229.62,415,229.7,387.51,229.71,360Z" transform="translate(-4.6 -6.36)" fill="#574b19"/><path d="M343.2,324.05l85.52,124c-.9,1.74-2.41,1-3.58,1-18.16.06-36.33,0-54.49.11A6.62,6.62,0,0,1,364.5,446q-40-56.71-80.35-113.25c-2.63-3.69-2.47-7.5-2.52-11.35-.19-15.16,0-30.32-.17-45.48,0-3.78,1.83-3.85,4.63-3.84q25.74.12,51.49.05c9.7,0,12.28-2.66,12.32-12.54q.06-15.25,0-30.5c-.05-9.32-2.87-12.1-12.32-12.1q-78-.06-156,0c-4.45,0-5.73-1.13-5.48-5.53.38-6.64,0-13.32.12-20,.28-15.84,11.08-26.6,26.9-26.62,45.66-.07,91.32-.15,137,0,31.86.11,56.59,20.54,60.61,52.31,2.84,22.52,3.95,45.63-2.05,68-6.44,23.9-26.27,38.25-51,38.57C346.54,323.8,345.4,323.92,343.2,324.05Z" transform="translate(-4.6 -6.36)" fill="#fdfdfc"/><path d="M229.7,360c0,27.48-.08,55,.09,82.43,0,4.16-.63,5.78-5.35,5.65-14.15-.37-28.31-.21-42.46-.07-3.23,0-4.67-.49-4.66-4.26q.18-84.18,0-168.36c0-3.65,1.24-4.38,4.58-4.34,14.49.16,29,.19,43.46,0,3.59-.05,4.43,1.1,4.42,4.52C229.65,303.75,229.71,331.89,229.7,360Z" transform="translate(-4.6 -6.36)" fill="#fbfbf9"/><path d="M222.1,129l1.91,1.24c.75,4,4,2.62,6.33,2.74,2.67.14,4.33-1.23,4.62-4l0,0c4.87.78,4.54-3.68,6-6.16,1-1.61,1.84-3.22,3.7-3.64,2.4-.54,2.16,2,3.16,3.11,2.35,2.61,3.95,6.12,8,6.73a1.42,1.42,0,0,1,.21.85c3.79,6.58,10,7,15.37,2,3.68-3.45,5.41-8.25,9.24-11.44,1.82-1.53,3.09-2.25,4.45.7,2.2,4.77,6,8.27,10.32,11.18,3.08,2.08,8.59.61,9.56-2.37.26-.87,1-1,1.73-1,7.59-.33,13.74-9.72,10.79-16.51a7.51,7.51,0,0,1-.32-5.37c1.08-3,3.09-5.43,6.56-6,3-.47,4.48,1.81,4.95,3.93a7.12,7.12,0,0,1-3.95,8c-3.63,1.91-4.76,4.5-2.94,8.09a26.57,26.57,0,0,1,1.34,4.17c2.3,7.32,7.09,10.41,14.74,9.75,3.26-.28,5.28-1.77,5-5.37l.85-.72c4.3.66,5.11-4.65,8.72-5.26,1,1.82.36,3.67.62,5.42l0,0c-5.51,1.67-4.95,7.18-5.72,10.93-.82,4-1.73,5.12-5.71,5.11q-59.74-.2-119.48,0c-2.88,0-5,0-5.73-3.7-.93-4.61-2.65-9.05-4-13.56-.3-1-.57-2,.71-2.49.95-.35,1.58.28,2,1C216.71,129.19,219.36,129.17,222.1,129Z" transform="translate(-4.6 -6.36)" fill="#e0ab3e"/><path d="M222.1,129c-2.74.2-5.39.22-7-2.64-.42-.76-1.05-1.39-2-1-1.28.47-1,1.51-.71,2.49,1.37,4.51,3.09,8.95,4,13.56.74,3.66,2.85,3.7,5.73,3.7q59.73-.09,119.48,0c4,0,4.89-1.1,5.71-5.11.77-3.75.21-9.26,5.72-10.93-1.18,4.32-2.68,8.58-3.44,13s-3,5-6.89,5q-61.15-.19-122.3,0c-4,0-6-1.07-7.1-5-3.7-12.92-7.66-25.76-11.48-38.65-.4-1.33-1.65-3.06,0-4,1.38-.84,2.82.54,4,1.4a11,11,0,0,1,4,13.17c-.83,2-.51,3,.82,4.32C214.41,121.86,217.61,126.1,222.1,129Z" transform="translate(-4.6 -6.36)" fill="#dcab44"/><path d="M305,129.92c-1,3-6.48,4.45-9.56,2.37-4.29-2.91-8.12-6.41-10.32-11.18-1.36-3-2.63-2.23-4.45-.7-3.83,3.19-5.56,8-9.24,11.44-5.35,5-11.58,4.58-15.37-2,10.29,4.59,19.91-.64,21.77-11.74.32-1.9-1.05-2.63-1.92-3.75-2.84-3.66-4.13-7.46-1.51-11.86,1.74-2.92,4.17-4.2,7.47-3.62a7,7,0,0,1,5.79,5.42c.85,3.13,1.12,6.48-1.32,8.93-2.24,2.26-2.39,3.85-.22,6.2,1.76,1.91,2.89,4.4,4.5,6.48C294.87,131.43,298.52,132.4,305,129.92Z" transform="translate(-4.6 -6.36)" fill="#dcab44"/><path d="M255.82,129c-4-.61-5.64-4.12-8-6.73-1-1.11-.76-3.65-3.16-3.11-1.86.42-2.74,2-3.7,3.64-1.49,2.48-1.16,6.94-6,6.16,1.3-1.91,2.74-3.75,3.86-5.76,2-3.62,4.88-6.8-.19-11-3.62-3-2.48-10.2.69-12.53,3-2.2,8.63-1.23,11.25,2,3.5,4.25,3.71,10.5-.23,13.32-2.65,1.9-2.06,3.22-.71,5.16Z" transform="translate(-4.6 -6.36)" fill="#dcab44"/><path d="M342.86,129.62c.29,3.6-1.73,5.09-5,5.37-7.65.66-12.44-2.43-14.74-9.75a26.57,26.57,0,0,0-1.34-4.17c-1.82-3.59-.69-6.18,2.94-8.09a7.12,7.12,0,0,0,3.95-8c-.47-2.12-1.94-4.4-4.95-3.93-3.47.55-5.48,3-6.56,6a7.51,7.51,0,0,0,.32,5.37c2.95,6.79-3.2,16.18-10.79,16.51,3-3.34,5.92-6.75,9-10,1.64-1.72,1.74-2.93.35-5.08-2.57-4-1.51-9.69,1.83-12.81,2.9-2.71,6.41-2.86,9.82-1.59s3.53,4.49,3.43,7.6a9.83,9.83,0,0,1-3.34,7c-1.95,1.81-5.24,2.65-3.73,6.47,1.82,4.62,3.12,9.72,8.13,12C336.3,134.37,339.32,130.7,342.86,129.62Z" transform="translate(-4.6 -6.36)" fill="#dcab44"/><path d="M353.05,129.06c-.26-1.75.37-3.6-.62-5.42-3.61.61-4.42,5.92-8.72,5.26q3.1-3.59,6.2-7.16c2.24-2.56,4.46-4.51,1.67-8.71s2.34-12.68,7.44-13.86c2.09-.48,3.5,0,2.71,2.45C358.76,110.74,356.8,120.18,353.05,129.06Z" transform="translate(-4.6 -6.36)" fill="#dcab44"/><path d="M235,128.94c-.29,2.78-2,4.15-4.62,4-2.38-.12-5.58,1.26-6.33-2.74C227.85,131.43,231.58,131.67,235,128.94Z" transform="translate(-4.6 -6.36)" fill="#dcab44"/></svg>