<?xml version="1.0" standalone="no"?>
<!DOCTYPE svg PUBLIC "-//W3C//DTD SVG 20010904//EN"
 "http://www.w3.org/TR/2001/REC-SVG-20010904/DTD/svg10.dtd">
<svg version="1.0" xmlns="http://www.w3.org/2000/svg"
 width="256.000000pt" height="256.000000pt" viewBox="0 0 256.000000 256.000000"
 preserveAspectRatio="xMidYMid meet">
<metadata>
Created by potrace 1.16, written by Peter Selinger 2001-2019
</metadata>
<g transform="translate(0.000000,256.000000) scale(0.100000,-0.100000)"
fill="#000000" stroke="none">
<path d="M1080 2419 c-161 -27 -354 -111 -492 -214 -238 -179 -400 -446 -448
-738 -13 -80 -13 -294 0 -374 79 -484 469 -876 950 -953 83 -13 296 -13 380 0
480 76 871 469 950 953 13 80 13 294 0 374 -79 484 -469 876 -950 953 -78 12
-313 11 -390 -1z m370 -14 c493 -74 881 -462 955 -955 95 -621 -334 -1201
-955 -1295 -686 -104 -1310 432 -1310 1125 0 556 415 1040 964 1125 111 18
233 18 346 0z"/>
<path d="M1098 2245 c-375 -71 -683 -357 -779 -722 -30 -113 -36 -302 -15
-417 46 -243 180 -459 375 -608 85 -64 244 -142 346 -169 104 -27 297 -36 402
-19 367 58 673 311 789 653 186 544 -129 1119 -694 1268 -102 27 -317 34 -424
14z m380 -61 c184 -38 353 -133 486 -275 166 -176 246 -380 246 -625 0 -217
-67 -404 -206 -576 -197 -243 -517 -376 -823 -340 -376 44 -673 287 -785 640
-135 429 67 893 479 1099 67 34 168 69 236 82 76 15 283 12 367 -5z"/>
<path d="M1115 2085 c-122 -27 -214 -67 -317 -137 -33 -22 -58 -46 -58 -56 0
-9 80 -97 177 -194 l178 -178 -15 -28 c-32 -57 -49 -47 -240 142 -121 121
-182 175 -192 171 -39 -15 -143 -207 -173 -320 -25 -92 -30 -255 -12 -351 33
-174 102 -301 236 -435 85 -84 109 -102 201 -148 151 -74 205 -86 385 -86 129
0 160 3 225 23 123 39 284 129 296 166 5 14 -30 55 -157 183 -157 157 -163
165 -144 179 51 38 56 35 220 -125 86 -83 162 -151 170 -151 18 0 72 73 115
153 137 253 128 558 -22 811 -57 96 -184 221 -283 279 -84 50 -192 89 -289
106 -80 15 -227 12 -301 -4z m375 -75 c133 -38 224 -93 331 -200 83 -82 103
-108 142 -190 61 -125 81 -209 80 -340 0 -131 -20 -217 -77 -335 -70 -145 -60
-144 -201 -3 -66 66 -115 122 -109 124 35 14 97 72 130 121 57 86 78 176 54
238 -5 14 -12 40 -15 57 -13 70 -47 98 -121 96 -28 -1 -55 2 -61 5 -6 4 -15
26 -22 49 -6 24 -21 58 -33 77 -13 19 -35 53 -49 75 -34 55 -81 69 -132 37
-19 -11 -45 -21 -58 -21 -34 0 -118 -42 -156 -78 -18 -17 -45 -50 -61 -75
l-28 -45 -142 140 c-78 78 -139 145 -136 149 8 13 130 79 183 100 142 53 334
61 481 19z m-9 -262 c7 -13 25 -39 41 -59 16 -20 31 -52 35 -72 5 -35 4 -37
-21 -37 -21 0 -26 5 -26 25 0 14 -13 39 -29 57 -25 29 -36 33 -75 32 -58 -1
-129 -44 -171 -103 -39 -55 -43 -142 -8 -189 l22 -29 -81 -6 c-68 -4 -94 -12
-163 -46 -107 -53 -187 -135 -211 -216 -18 -65 -29 -72 -20 -12 22 138 143
269 282 306 54 14 82 46 94 109 12 66 39 119 82 161 44 44 79 61 138 68 28 3
55 12 61 19 17 20 37 17 50 -8z m-671 -174 c87 -87 140 -148 132 -151 -26 -10
-109 -82 -140 -121 -59 -75 -87 -148 -87 -232 0 -64 4 -82 28 -123 16 -26 48
-62 71 -80 24 -18 66 -51 94 -74 144 -116 304 -90 469 76 l74 75 141 -141 141
-141 -74 -41 c-232 -129 -506 -132 -744 -8 -60 32 -104 66 -176 137 -83 83
-102 108 -142 190 -60 124 -80 208 -80 340 0 116 17 204 58 296 32 72 73 144
83 144 4 0 72 -66 152 -146z m628 44 c27 -27 14 -63 -37 -100 -27 -21 -57 -51
-67 -68 -10 -16 -24 -30 -30 -30 -39 0 -51 86 -19 134 39 59 123 94 153 64z
m282 -111 c31 -2 35 -5 42 -37 3 -19 11 -52 16 -72 15 -59 -9 -134 -66 -203
-35 -43 -100 -85 -132 -85 -52 0 -132 -51 -180 -115 -102 -136 -209 -207 -309
-207 -35 0 -71 7 -91 17 -43 22 -113 95 -134 139 -22 46 -21 128 3 174 28 55
102 119 179 155 58 27 78 31 159 32 105 2 114 6 168 91 37 57 110 111 164 120
20 3 40 7 46 8 5 1 30 -2 55 -7 25 -5 61 -9 80 -10z"/>
<path d="M1002 1184 c-65 -51 -103 -172 -69 -218 7 -10 22 -16 33 -14 16 3 19
12 19 58 0 56 22 102 64 132 27 20 34 38 21 53 -17 21 -30 19 -68 -11z"/>
</g>
</svg>
