<?xml version="1.0" encoding="UTF-8"?>
<!DOCTYPE svg PUBLIC "-//W3C//DTD SVG 1.1//EN" "http://www.w3.org/Graphics/SVG/1.1/DTD/svg11.dtd">
<svg xmlns="http://www.w3.org/2000/svg" version="1.1" width="256px" height="256px" style="shape-rendering:geometricPrecision; text-rendering:geometricPrecision; image-rendering:optimizeQuality; fill-rule:evenodd; clip-rule:evenodd" xmlns:xlink="http://www.w3.org/1999/xlink">
<g><path style="opacity:0.949" fill="#f13734" d="M 121.5,43.5 C 112.529,41.5652 103.529,39.2319 94.5,36.5C 94.5,35.5 94.5,34.5 94.5,33.5C 109.398,28.388 124.731,26.5547 140.5,28C 143.22,32.9661 142.553,37.6328 138.5,42C 132.829,42.5307 127.162,43.0307 121.5,43.5 Z"/></g>
<g><path style="opacity:0.983" fill="#ed201c" d="M 94.5,33.5 C 94.5,34.5 94.5,35.5 94.5,36.5C 103.529,39.2319 112.529,41.5652 121.5,43.5C 116.62,43.2329 112.62,44.8996 109.5,48.5C 109.863,49.1835 110.196,49.8501 110.5,50.5C 109.883,50.6107 109.383,50.944 109,51.5C 108.933,48.953 108.099,46.7863 106.5,45C 99.2839,44.3405 92.2839,42.8405 85.5,40.5C 85.5,39.5 85.5,38.5 85.5,37.5C 88.0884,35.4082 91.0884,34.0749 94.5,33.5 Z"/></g>
<g><path style="opacity:0.993" fill="#eb0803" d="M 85.5,37.5 C 85.5,38.5 85.5,39.5 85.5,40.5C 92.2839,42.8405 99.2839,44.3405 106.5,45C 108.099,46.7863 108.933,48.953 109,51.5C 109.383,50.944 109.883,50.6107 110.5,50.5C 117.302,54.7376 124.302,58.7376 131.5,62.5C 137.628,66.7361 143.962,70.7361 150.5,74.5C 148.697,78.5627 146.697,82.5627 144.5,86.5C 143.148,87.8962 141.481,88.5629 139.5,88.5C 131.087,86.4169 123.087,83.2503 115.5,79C 106.833,73.6667 98.1667,68.3333 89.5,63C 83.9043,60.8237 78.571,61.3237 73.5,64.5C 73.5246,61.821 74.858,60.4877 77.5,60.5C 77.3367,58.1432 77.5034,55.8098 78,53.5C 79.1353,53.273 80.302,52.9396 81.5,52.5C 82.9108,50.9825 82.7441,49.6492 81,48.5C 80.5172,49.448 80.3505,50.448 80.5,51.5C 78.5,51.5 76.5,51.5 74.5,51.5C 73.7558,56.9352 71.0892,58.2685 66.5,55.5C 64.8346,51.9776 66.0013,49.9776 70,49.5C 70.3333,50.1667 70.6667,50.8333 71,51.5C 72.1667,48.3333 74.3333,46.1667 77.5,45C 76.6195,44.2917 75.9528,43.4584 75.5,42.5C 78.3645,39.9864 81.6978,38.3197 85.5,37.5 Z"/></g>
<g><path style="opacity:0.979" fill="#1171c6" d="M 200.5,59.5 C 198.664,63.6801 197.331,68.0134 196.5,72.5C 195.082,76.2873 194.082,80.2873 193.5,84.5C 188.489,84.6659 183.489,84.4993 178.5,84C 174.693,80.267 172.193,75.767 171,70.5C 167.6,65.3665 163.1,63.8665 157.5,66C 154.546,68.4412 152.213,71.2745 150.5,74.5C 143.962,70.7361 137.628,66.7361 131.5,62.5C 132.458,62.0472 133.292,61.3805 134,60.5C 135.789,55.1196 137.956,49.953 140.5,45C 148.577,44.9021 156.577,44.2355 164.5,43C 166.825,39.9879 169.659,37.8212 173,36.5C 181.275,39.2221 188.775,43.3888 195.5,49C 198.581,51.8136 200.247,55.3136 200.5,59.5 Z"/></g>
<g><path style="opacity:0.917" fill="#dc0803" d="M 75.5,42.5 C 75.9528,43.4584 76.6195,44.2917 77.5,45C 74.3333,46.1667 72.1667,48.3333 71,51.5C 70.6667,50.8333 70.3333,50.1667 70,49.5C 66.0013,49.9776 64.8346,51.9776 66.5,55.5C 71.0892,58.2685 73.7558,56.9352 74.5,51.5C 76.5,51.5 78.5,51.5 80.5,51.5C 80.3505,50.448 80.5172,49.448 81,48.5C 82.7441,49.6492 82.9108,50.9825 81.5,52.5C 80.302,52.9396 79.1353,53.273 78,53.5C 77.5034,55.8098 77.3367,58.1432 77.5,60.5C 74.858,60.4877 73.5246,61.821 73.5,64.5C 64.7025,70.2986 58.0359,77.9652 53.5,87.5C 53.9424,88.7387 54.6091,89.7387 55.5,90.5C 55.3893,91.1174 55.056,91.6174 54.5,92C 57.8826,93.7179 60.2159,96.3846 61.5,100C 60.1379,102.034 59.1379,104.201 58.5,106.5C 62.7639,106.477 66.4305,107.81 69.5,110.5C 63.5,110.5 57.5,110.5 51.5,110.5C 51.1667,110.5 50.8333,110.5 50.5,110.5C 42.5,109.833 34.5,109.167 26.5,108.5C 31.6456,83.2033 44.6456,63.0366 65.5,48C 68.7271,45.8882 72.0604,44.0549 75.5,42.5 Z"/></g>
<g><path style="opacity:1" fill="#9da8b5" d="M 196.5,72.5 C 196.626,77.2216 195.626,81.5549 193.5,85.5C 193.5,85.1667 193.5,84.8333 193.5,84.5C 194.082,80.2873 195.082,76.2873 196.5,72.5 Z"/></g>
<g><path style="opacity:0.966" fill="#d70703" d="M 200.5,59.5 C 207.656,64.5052 212.823,71.1719 216,79.5C 215.346,96.5599 213.846,113.56 211.5,130.5C 204.922,131.46 198.255,131.793 191.5,131.5C 194.25,127.816 196.917,123.983 199.5,120C 197.865,116.247 195.031,113.747 191,112.5C 189.211,114.229 187.044,114.896 184.5,114.5C 186.103,113.404 187.603,112.07 189,110.5C 191.083,102.253 192.583,93.9192 193.5,85.5C 195.626,81.5549 196.626,77.2216 196.5,72.5C 197.331,68.0134 198.664,63.6801 200.5,59.5 Z"/></g>
<g><path style="opacity:0.983" fill="#e90702" d="M 55.5,90.5 C 82.8354,90.3334 110.169,90.5 137.5,91C 152.815,95.3281 166.482,102.661 178.5,113C 180.436,113.813 182.436,114.313 184.5,114.5C 187.044,114.896 189.211,114.229 191,112.5C 195.031,113.747 197.865,116.247 199.5,120C 196.917,123.983 194.25,127.816 191.5,131.5C 183.316,131.174 175.316,131.508 167.5,132.5C 167.167,132.5 166.833,132.5 166.5,132.5C 159.203,127.84 152.203,122.673 145.5,117C 142.066,114.565 138.4,112.565 134.5,111C 112.836,110.5 91.1692,110.333 69.5,110.5C 66.4305,107.81 62.7639,106.477 58.5,106.5C 59.1379,104.201 60.1379,102.034 61.5,100C 60.2159,96.3846 57.8826,93.7179 54.5,92C 55.056,91.6174 55.3893,91.1174 55.5,90.5 Z"/></g>
<g><path style="opacity:1" fill="#525b75" d="M 26.5,108.5 C 34.5,109.167 42.5,109.833 50.5,110.5C 46.8333,110.5 43.1667,110.5 39.5,110.5C 34.8333,110.5 30.1667,110.5 25.5,110.5C 25.3284,109.508 25.6618,108.842 26.5,108.5 Z"/></g>
<g><path style="opacity:0.98" fill="#0b7797" d="M 25.5,110.5 C 30.1667,110.5 34.8333,110.5 39.5,110.5C 38.9244,112.65 39.5911,114.65 41.5,116.5C 43.9248,115.193 46.2581,114.193 48.5,113.5C 47.7807,117.362 49.2807,120.362 53,122.5C 55.0435,126.25 54.8768,129.916 52.5,133.5C 53.9223,135.89 55.7556,137.89 58,139.5C 59.1112,142.04 59.2778,144.54 58.5,147C 59.7073,148.3 60.3739,149.8 60.5,151.5C 62.6607,151.826 64.4941,152.826 66,154.5C 66.4828,153.552 66.6495,152.552 66.5,151.5C 69.5,151.833 71.1667,153.5 71.5,156.5C 72.552,156.351 73.552,156.517 74.5,157C 77.0863,160.246 80.4196,162.08 84.5,162.5C 85.8611,164.85 87.1944,167.184 88.5,169.5C 83.6533,167.518 78.6533,165.852 73.5,164.5C 72.6852,166.276 71.5185,166.943 70,166.5C 67.192,164.711 64.192,163.377 61,162.5C 60.5065,164.134 60.3398,165.801 60.5,167.5C 55.8666,160.523 51.2,153.523 46.5,146.5C 46.0289,142.327 44.3622,141.66 41.5,144.5C 39.1434,143.905 36.9767,142.905 35,141.5C 33.6054,142.815 32.6054,142.481 32,140.5C 31.3162,141.784 31.4829,142.951 32.5,144C 30.5665,144.783 29.0665,144.283 28,142.5C 27.3292,143.252 26.4959,143.586 25.5,143.5C 24.2346,132.549 24.2346,121.549 25.5,110.5 Z"/></g>
<g><path style="opacity:0.982" fill="#09b911" d="M 168.5,140.5 C 167.469,141.249 166.302,141.915 165,142.5C 164.837,144.676 164.004,146.509 162.5,148C 159.034,147.594 155.7,146.928 152.5,146C 150.925,148.144 150.592,150.311 151.5,152.5C 143.426,147.266 135.759,141.433 128.5,135C 124.792,132.868 120.792,132.035 116.5,132.5C 113.941,132.802 111.607,132.468 109.5,131.5C 110.741,125.674 112.575,120.007 115,114.5C 121.452,112.362 127.952,112.529 134.5,115C 145.71,123.717 157.044,132.217 168.5,140.5 Z"/></g>
<g><path style="opacity:0.998" fill="#caa9b6" d="M 109.5,131.5 C 111.607,132.468 113.941,132.802 116.5,132.5C 116.5,133.167 116.5,133.833 116.5,134.5C 113.946,133.612 111.279,133.279 108.5,133.5C 108.328,132.508 108.662,131.842 109.5,131.5 Z"/></g>
<g><path style="opacity:0.951" fill="#2a5ba8" d="M 211.5,130.5 C 217.118,131.242 222.785,131.742 228.5,132C 229.674,136.81 229.508,141.643 228,146.5C 227.5,147.667 226.667,148.5 225.5,149C 219.593,150.361 213.593,150.861 207.5,150.5C 205.031,149.683 202.365,149.183 199.5,149C 200.448,148.517 201.448,148.351 202.5,148.5C 201.666,141.989 198.666,136.823 193.5,133C 184.84,132.5 176.173,132.334 167.5,132.5C 175.316,131.508 183.316,131.174 191.5,131.5C 198.255,131.793 204.922,131.46 211.5,130.5 Z"/></g>
<g><path style="opacity:1" fill="#0f71b7" d="M 166.5,132.5 C 166.833,132.5 167.167,132.5 167.5,132.5C 176.173,132.334 184.84,132.5 193.5,133C 198.666,136.823 201.666,141.989 202.5,148.5C 201.448,148.351 200.448,148.517 199.5,149C 202.365,149.183 205.031,149.683 207.5,150.5C 203.833,150.5 200.167,150.5 196.5,150.5C 192.901,149.656 189.234,149.323 185.5,149.5C 183.853,147.674 181.853,146.34 179.5,145.5C 175.473,140.806 171.14,136.473 166.5,132.5 Z"/></g>
<g><path style="opacity:1" fill="#0b7da8" d="M 39.5,110.5 C 43.1667,110.5 46.8333,110.5 50.5,110.5C 50.8333,110.5 51.1667,110.5 51.5,110.5C 50.4991,111.789 50.6658,113.122 52,114.5C 64.2287,129.561 75.0621,145.561 84.5,162.5C 80.4196,162.08 77.0863,160.246 74.5,157C 73.552,156.517 72.552,156.351 71.5,156.5C 71.1667,153.5 69.5,151.833 66.5,151.5C 66.6495,152.552 66.4828,153.552 66,154.5C 64.4941,152.826 62.6607,151.826 60.5,151.5C 60.3739,149.8 59.7073,148.3 58.5,147C 59.2778,144.54 59.1112,142.04 58,139.5C 55.7556,137.89 53.9223,135.89 52.5,133.5C 54.8768,129.916 55.0435,126.25 53,122.5C 49.2807,120.362 47.7807,117.362 48.5,113.5C 46.2581,114.193 43.9248,115.193 41.5,116.5C 39.5911,114.65 38.9244,112.65 39.5,110.5 Z"/></g>
<g><path style="opacity:1" fill="#137277" d="M 46.5,146.5 C 45.5489,147.919 45.2155,149.585 45.5,151.5C 39.4627,152.335 33.4627,152.668 27.5,152.5C 26.087,149.781 25.4203,146.781 25.5,143.5C 26.4959,143.586 27.3292,143.252 28,142.5C 29.0665,144.283 30.5665,144.783 32.5,144C 31.4829,142.951 31.3162,141.784 32,140.5C 32.6054,142.481 33.6054,142.815 35,141.5C 36.9767,142.905 39.1434,143.905 41.5,144.5C 44.3622,141.66 46.0289,142.327 46.5,146.5 Z"/></g>
<g><path style="opacity:0.929" fill="#a1b0ab" d="M 178.5,145.5 C 178.833,145.5 179.167,145.5 179.5,145.5C 181.853,146.34 183.853,147.674 185.5,149.5C 182.454,149.275 180.121,147.942 178.5,145.5 Z"/></g>
<g><path style="opacity:1" fill="#f60556" d="M 108.5,133.5 C 111.279,133.279 113.946,133.612 116.5,134.5C 119.93,138.386 123.597,142.053 127.5,145.5C 129.331,148.118 130.831,150.785 132,153.5C 127.502,154.72 123.002,156.054 118.5,157.5C 116.103,155.47 113.437,153.803 110.5,152.5C 109.833,151.167 109.167,149.833 108.5,148.5C 107.659,143.866 107.659,139.199 108.5,134.5C 108.5,134.167 108.5,133.833 108.5,133.5 Z"/></g>
<g><path style="opacity:1" fill="#0cad12" d="M 168.5,140.5 C 170.938,142.267 173.605,143.601 176.5,144.5C 176.543,147.088 177.543,149.254 179.5,151C 181.833,152 184.167,153 186.5,154C 184.595,155.815 182.928,157.815 181.5,160C 184.107,163.086 186.441,166.253 188.5,169.5C 174.729,166.779 162.396,161.112 151.5,152.5C 150.592,150.311 150.925,148.144 152.5,146C 155.7,146.928 159.034,147.594 162.5,148C 164.004,146.509 164.837,144.676 165,142.5C 166.302,141.915 167.469,141.249 168.5,140.5 Z"/></g>
<g><path style="opacity:0.529" fill="#9fb0b4" d="M 185.5,149.5 C 189.234,149.323 192.901,149.656 196.5,150.5C 196.5,150.833 196.5,151.167 196.5,151.5C 195.167,151.5 193.833,151.5 192.5,151.5C 189.848,151.59 187.515,150.924 185.5,149.5 Z"/></g>
<g><path style="opacity:0.604" fill="#0d7957" d="M 45.5,151.5 C 46.404,152.209 46.7373,153.209 46.5,154.5C 43.8559,154.16 41.5225,154.827 39.5,156.5C 35.5081,155.76 31.5081,155.094 27.5,154.5C 27.5,153.833 27.5,153.167 27.5,152.5C 33.4627,152.668 39.4627,152.335 45.5,151.5 Z"/></g>
<g><path style="opacity:1" fill="#f5064d" d="M 108.5,134.5 C 107.659,139.199 107.659,143.866 108.5,148.5C 109.167,149.833 109.833,151.167 110.5,152.5C 113.437,153.803 116.103,155.47 118.5,157.5C 123.002,156.054 127.502,154.72 132,153.5C 130.831,150.785 129.331,148.118 127.5,145.5C 133.155,149.823 138.488,154.49 143.5,159.5C 144.388,162.243 145.555,164.91 147,167.5C 149.428,168.63 151.595,170.13 153.5,172C 152.737,172.944 151.737,173.444 150.5,173.5C 147.838,172.306 145.338,170.973 143,169.5C 141.674,169.755 140.674,170.422 140,171.5C 137.676,167.677 134.509,164.677 130.5,162.5C 129.065,163.824 128.065,165.49 127.5,167.5C 126.522,167.023 125.689,166.357 125,165.5C 124.667,165.833 124.333,166.167 124,166.5C 122.933,165.809 121.766,165.309 120.5,165C 118.041,162.554 115.708,160.054 113.5,157.5C 114.41,159.175 114.41,161.175 113.5,163.5C 109.208,160.543 105.208,157.21 101.5,153.5C 103.69,147.043 106.024,140.709 108.5,134.5 Z"/></g>
<g><path style="opacity:1" fill="#109213" d="M 192.5,151.5 C 193.833,151.5 195.167,151.5 196.5,151.5C 205.506,151.334 214.506,151.5 223.5,152C 224.804,152.804 225.471,153.971 225.5,155.5C 224.515,159.957 222.849,164.124 220.5,168C 212.929,169.34 205.262,170.173 197.5,170.5C 199.938,168.737 202.771,167.403 206,166.5C 208.967,167.811 211.8,167.478 214.5,165.5C 213.45,161.613 214.117,157.946 216.5,154.5C 208.463,152.972 200.463,151.972 192.5,151.5 Z"/></g>
<g><path style="opacity:1" fill="#0ca00f" d="M 176.5,144.5 C 177.167,144.833 177.833,145.167 178.5,145.5C 180.121,147.942 182.454,149.275 185.5,149.5C 187.515,150.924 189.848,151.59 192.5,151.5C 200.463,151.972 208.463,152.972 216.5,154.5C 214.117,157.946 213.45,161.613 214.5,165.5C 211.8,167.478 208.967,167.811 206,166.5C 202.771,167.403 199.938,168.737 197.5,170.5C 194.609,169.597 191.609,169.264 188.5,169.5C 186.441,166.253 184.107,163.086 181.5,160C 182.928,157.815 184.595,155.815 186.5,154C 184.167,153 181.833,152 179.5,151C 177.543,149.254 176.543,147.088 176.5,144.5 Z"/></g>
<g><path style="opacity:1" fill="#0d8037" d="M 27.5,154.5 C 31.5081,155.094 35.5081,155.76 39.5,156.5C 41.5225,154.827 43.8559,154.16 46.5,154.5C 47.4861,156.426 48.4861,158.426 49.5,160.5C 43.2415,161.827 36.9082,162.827 30.5,163.5C 29.3024,160.574 28.3024,157.574 27.5,154.5 Z"/></g>
<g><path style="opacity:1" fill="#2283af" d="M 101.5,153.5 C 105.208,157.21 109.208,160.543 113.5,163.5C 116.158,165.968 118.491,168.635 120.5,171.5C 120.167,172.5 119.5,173.167 118.5,173.5C 117.849,172.909 117.182,172.243 116.5,171.5C 115.554,171.987 114.554,172.32 113.5,172.5C 109.415,169.041 104.748,167.541 99.5,168C 98.9221,169.417 97.9221,170.25 96.5,170.5C 97.9642,164.774 99.6309,159.107 101.5,153.5 Z"/></g>
<g><path style="opacity:1" fill="#117c8f" d="M 88.5,169.5 C 90.2133,171.85 92.5466,172.85 95.5,172.5C 96.2344,173.878 96.9011,175.378 97.5,177C 101.263,179.108 105.263,180.608 109.5,181.5C 111.02,183.725 112.686,185.725 114.5,187.5C 114.737,188.791 114.404,189.791 113.5,190.5C 109.038,187.623 104.038,185.79 98.5,185C 97.1325,181.273 94.7992,178.273 91.5,176C 84.6147,175.322 77.6147,174.822 70.5,174.5C 70.0894,175.262 69.9227,176.262 70,177.5C 69.3292,178.252 68.4959,178.586 67.5,178.5C 64.7454,175.083 62.412,171.417 60.5,167.5C 60.3398,165.801 60.5065,164.134 61,162.5C 64.192,163.377 67.192,164.711 70,166.5C 71.5185,166.943 72.6852,166.276 73.5,164.5C 78.6533,165.852 83.6533,167.518 88.5,169.5 Z"/></g>
<g><path style="opacity:1" fill="#f20543" d="M 143.5,159.5 C 150.491,165.158 157.157,171.158 163.5,177.5C 163.36,179.124 164.027,180.29 165.5,181C 163.951,182.214 162.785,183.714 162,185.5C 160.077,184.684 158.077,184.017 156,183.5C 154.832,184.509 153.665,185.509 152.5,186.5C 150.561,184.382 148.394,184.049 146,185.5C 143.094,182.963 139.927,180.796 136.5,179C 135.833,177.667 135.167,176.333 134.5,175C 131.482,175.663 128.482,175.496 125.5,174.5C 123.999,173.248 122.332,172.248 120.5,171.5C 118.491,168.635 116.158,165.968 113.5,163.5C 114.41,161.175 114.41,159.175 113.5,157.5C 115.708,160.054 118.041,162.554 120.5,165C 121.766,165.309 122.933,165.809 124,166.5C 124.333,166.167 124.667,165.833 125,165.5C 125.689,166.357 126.522,167.023 127.5,167.5C 128.065,165.49 129.065,163.824 130.5,162.5C 134.509,164.677 137.676,167.677 140,171.5C 140.674,170.422 141.674,169.755 143,169.5C 145.338,170.973 147.838,172.306 150.5,173.5C 151.737,173.444 152.737,172.944 153.5,172C 151.595,170.13 149.428,168.63 147,167.5C 145.555,164.91 144.388,162.243 143.5,159.5 Z"/></g>
<g><path style="opacity:0.977" fill="#0751aa" d="M 193.5,202.5 C 189.194,198.86 185.194,194.86 181.5,190.5C 188.037,185.13 193.704,178.963 198.5,172C 199.908,171.685 201.241,172.018 202.5,173C 205.371,176.698 208.371,180.198 211.5,183.5C 206.835,191.163 200.835,197.496 193.5,202.5 Z"/></g>
<g><path style="opacity:0.967" fill="#0e7a7d" d="M 113.5,190.5 C 113.405,192.786 112.738,194.786 111.5,196.5C 108.797,193.847 105.464,192.014 101.5,191C 98.5827,187.757 96.0827,184.257 94,180.5C 87.6667,179.167 81.3333,179.167 75,180.5C 73.7861,182.467 73.2861,184.467 73.5,186.5C 71.1468,184.14 69.1468,181.473 67.5,178.5C 68.4959,178.586 69.3292,178.252 70,177.5C 69.9227,176.262 70.0894,175.262 70.5,174.5C 77.6147,174.822 84.6147,175.322 91.5,176C 94.7992,178.273 97.1325,181.273 98.5,185C 104.038,185.79 109.038,187.623 113.5,190.5 Z"/></g>
<g><path style="opacity:1" fill="#0c7f9e" d="M 118.5,173.5 C 117.474,178.272 116.141,182.939 114.5,187.5C 112.686,185.725 111.02,183.725 109.5,181.5C 105.263,180.608 101.263,179.108 97.5,177C 96.9011,175.378 96.2344,173.878 95.5,172.5C 95.8333,171.833 96.1667,171.167 96.5,170.5C 97.9221,170.25 98.9221,169.417 99.5,168C 104.748,167.541 109.415,169.041 113.5,172.5C 114.554,172.32 115.554,171.987 116.5,171.5C 117.182,172.243 117.849,172.909 118.5,173.5 Z"/></g>
<g><path style="opacity:1" fill="#167d66" d="M 111.5,196.5 C 111.634,198.292 111.301,199.958 110.5,201.5C 109.373,200.878 108.373,200.045 107.5,199C 101.194,198.857 96.5269,196.19 93.5,191C 89.5926,188.916 85.5926,187.083 81.5,185.5C 77.5116,188.538 77.5116,191.538 81.5,194.5C 81.5,195.167 81.1667,195.5 80.5,195.5C 77.8333,194.833 76.1667,193.167 75.5,190.5C 75.2671,188.938 74.6005,187.605 73.5,186.5C 73.2861,184.467 73.7861,182.467 75,180.5C 81.3333,179.167 87.6667,179.167 94,180.5C 96.0827,184.257 98.5827,187.757 101.5,191C 105.464,192.014 108.797,193.847 111.5,196.5 Z"/></g>
<g><path style="opacity:0.895" fill="#148a16" d="M 49.5,160.5 C 54.8811,172.888 63.2144,182.888 74.5,190.5C 74.9612,192.55 75.6279,194.55 76.5,196.5C 75.8333,196.833 75.1667,197.167 74.5,197.5C 74.8444,200.036 75.8444,202.203 77.5,204C 73.3952,204.48 69.3952,203.98 65.5,202.5C 64.537,202.97 64.537,203.637 65.5,204.5C 49.881,194.214 38.2143,180.547 30.5,163.5C 36.9082,162.827 43.2415,161.827 49.5,160.5 Z"/></g>
<g><path style="opacity:1" fill="#e40535" d="M 125.5,174.5 C 128.482,175.496 131.482,175.663 134.5,175C 135.167,176.333 135.833,177.667 136.5,179C 139.927,180.796 143.094,182.963 146,185.5C 148.394,184.049 150.561,184.382 152.5,186.5C 153.665,185.509 154.832,184.509 156,183.5C 158.077,184.017 160.077,184.684 162,185.5C 162.785,183.714 163.951,182.214 165.5,181C 164.027,180.29 163.36,179.124 163.5,177.5C 168.874,182.177 174.207,186.843 179.5,191.5C 182.194,194.86 185.194,197.86 188.5,200.5C 186.266,200.38 184.099,200.713 182,201.5C 178.808,198.505 176.641,199.172 175.5,203.5C 171.088,203.845 167.755,205.845 165.5,209.5C 164.009,210.244 162.509,210.91 161,211.5C 159.581,210.54 158.081,209.707 156.5,209C 155.359,208.259 155.359,207.425 156.5,206.5C 156.043,205.702 155.376,205.369 154.5,205.5C 155.949,202.949 155.615,200.615 153.5,198.5C 144.095,190.482 134.762,182.482 125.5,174.5 Z"/></g>
<g><path style="opacity:1" fill="#0f7d53" d="M 110.5,201.5 C 110.443,202.609 110.11,203.609 109.5,204.5C 107.742,203.091 105.742,202.091 103.5,201.5C 101.168,202.172 98.8344,202.339 96.5,202C 95.4495,200.615 94.1161,199.615 92.5,199C 92.8333,198.667 93.1667,198.333 93.5,198C 91.5125,196.681 90.3459,194.848 90,192.5C 87.7095,190.405 85.2095,189.738 82.5,190.5C 82.7093,191.086 83.0426,191.586 83.5,192C 82.244,192.417 81.5774,193.25 81.5,194.5C 77.5116,191.538 77.5116,188.538 81.5,185.5C 85.5926,187.083 89.5926,188.916 93.5,191C 96.5269,196.19 101.194,198.857 107.5,199C 108.373,200.045 109.373,200.878 110.5,201.5 Z"/></g>
<g><path style="opacity:1" fill="#968090" d="M 181.5,190.5 C 185.194,194.86 189.194,198.86 193.5,202.5C 193.5,203.167 193.167,203.5 192.5,203.5C 191.167,202.5 189.833,201.5 188.5,200.5C 185.194,197.86 182.194,194.86 179.5,191.5C 180.167,191.167 180.833,190.833 181.5,190.5 Z"/></g>
<g><path style="opacity:1" fill="#d70325" d="M 188.5,200.5 C 189.833,201.5 191.167,202.5 192.5,203.5C 184.214,211.147 174.547,216.48 163.5,219.5C 160.946,218.394 158.279,217.561 155.5,217C 153.5,214.333 151.167,212 148.5,210C 149.056,209.617 149.389,209.117 149.5,208.5C 151.22,207.692 152.887,206.692 154.5,205.5C 155.376,205.369 156.043,205.702 156.5,206.5C 155.359,207.425 155.359,208.259 156.5,209C 158.081,209.707 159.581,210.54 161,211.5C 162.509,210.91 164.009,210.244 165.5,209.5C 167.755,205.845 171.088,203.845 175.5,203.5C 176.641,199.172 178.808,198.505 182,201.5C 184.099,200.713 186.266,200.38 188.5,200.5 Z"/></g>
<g><path style="opacity:1" fill="#118140" d="M 109.5,204.5 C 109.405,206.786 108.738,208.786 107.5,210.5C 104.873,209.895 102.207,209.395 99.5,209C 95.8443,206.41 91.8443,204.41 87.5,203C 85.9429,199.675 83.6096,197.175 80.5,195.5C 81.1667,195.5 81.5,195.167 81.5,194.5C 81.5774,193.25 82.244,192.417 83.5,192C 83.0426,191.586 82.7093,191.086 82.5,190.5C 85.2095,189.738 87.7095,190.405 90,192.5C 90.3459,194.848 91.5125,196.681 93.5,198C 93.1667,198.333 92.8333,198.667 92.5,199C 94.1161,199.615 95.4495,200.615 96.5,202C 98.8344,202.339 101.168,202.172 103.5,201.5C 105.742,202.091 107.742,203.091 109.5,204.5 Z"/></g>
<g><path style="opacity:1" fill="#178221" d="M 74.5,190.5 C 74.8333,190.5 75.1667,190.5 75.5,190.5C 76.1667,193.167 77.8333,194.833 80.5,195.5C 83.6096,197.175 85.9429,199.675 87.5,203C 91.8443,204.41 95.8443,206.41 99.5,209C 102.207,209.395 104.873,209.895 107.5,210.5C 107.208,214.207 106.208,217.707 104.5,221C 101.833,221.667 99.1667,221.667 96.5,221C 84.9296,217.552 74.5963,212.052 65.5,204.5C 64.537,203.637 64.537,202.97 65.5,202.5C 69.3952,203.98 73.3952,204.48 77.5,204C 75.8444,202.203 74.8444,200.036 74.5,197.5C 75.1667,197.167 75.8333,196.833 76.5,196.5C 75.6279,194.55 74.9612,192.55 74.5,190.5 Z"/></g>
<g><path style="opacity:0.967" fill="#da0b06" d="M 149.5,208.5 C 149.389,209.117 149.056,209.617 148.5,210C 151.167,212 153.5,214.333 155.5,217C 158.279,217.561 160.946,218.394 163.5,219.5C 156.587,222.522 149.253,224.355 141.5,225C 132.424,225.913 123.424,225.58 114.5,224C 113.643,223.311 112.977,222.478 112.5,221.5C 113.155,218.044 114.489,214.877 116.5,212C 127.626,211.866 138.626,210.699 149.5,208.5 Z"/></g>
</svg>
