<svg xmlns="http://www.w3.org/2000/svg" width="256.051" height="256.051" viewBox="0 0 1536 1536">
  <defs>
    <style>
      .cls-1 {
        fill: #19191e;
        stroke: #000;
        stroke-width: 1px;
      }

      .cls-2 {
        fill: none;
        stroke-width: 20px;
      }

      .cls-2, .cls-3 {
        stroke: #f0f0f0;
      }

      .cls-3 {
        fill: #f0f0f0;
        stroke-linejoin: round;
        stroke-width: 3px;
        fill-rule: evenodd;
      }
    </style>
  </defs>
  <circle class="cls-1" cx="767.999" cy="767.999" r="721.281"/>
  <circle class="cls-2" cx="768.001" cy="768.001" r="707.719"/>
  <path id="Color_Fill_1" data-name="Color Fill 1" class="cls-3" d="M691.37,293.67H800.01c12.319,0,30.774-2.12,39.77,1.94q138.7,251.2,277.42,502.46,32.01,57.709,64.02,115.43c8.72,14.855,26.43,35.168,29.1,53.35q-32.97,60.615-65.96,121.25-278.847.48-557.75,0.97H446.93c-17.339,0-46.812,3.06-56.26-2.91L341.2,992.07c-4.128-7.9-19.027-22.03-14.55-35.89Zm11.64,9.7,309.43,547.08H666.15q-31.522,55.284-63.05,110.58h592.67q-182.82-328.8-365.69-657.66H703.01Zm-9.7,7.76Q561.888,551.666,430.44,792.25L365.45,910.59c-8.651,14.846-26.373,36.958-28.13,53.35q29.1,53.829,58.2,107.67c0.647-.32,1.293-0.65,1.94-0.97L703.01,520.65l2.91,1.94L873.73,840.75H994.01v-0.97Zm9.7,230.86L405.22,1078.4h651.84c25.66,0,57.17,2.75,79.54-1.94,22.62-30.56,39.91-70.1,57.23-104.76v-0.97H585.64v-0.97L764.12,657.42Zm65.96,128.04Q721.444,754.9,673.91,839.78H860.15Z"/>
</svg>
