<svg width="256" height="256" viewBox="0 0 256 256" fill="none" xmlns="http://www.w3.org/2000/svg">
<circle cx="128" cy="128" r="128" fill="white"/>
<path d="M108.811 216.131C87.5968 211.384 72.4025 198.273 63.7241 177.224C60.2503 168.799 58.6871 160.152 58.1958 146.644C57.7635 134.758 57.9521 131.958 59.7347 123.804C64.6655 101.248 75.4185 85.8564 92.572 76.8001C102.808 71.3957 110.295 69.8108 125.476 69.8338C142.027 69.859 150.539 72.0693 161.908 79.2932C163.69 80.4262 169.955 86.5369 172.21 89.3428C173.755 91.2653 177.679 102.182 177.698 104.61C177.725 107.997 175.849 113.074 173.58 115.758C167.936 122.433 157.004 118.561 157.004 109.888C157.004 106.969 158.198 104.817 161.956 100.967C163.632 99.2486 165.269 97.011 165.593 95.9941C166.755 92.352 165.099 87.91 161.127 84.0134C149.182 72.2934 124.544 68.9096 107.46 76.6423C97.493 81.1532 88.179 91.443 83.8052 102.775C79.4648 114.02 78.4909 120.132 78.0053 139.173C77.5917 155.386 77.7585 158.725 79.3929 166.964C81.1162 175.651 83.8295 183.786 86.8814 189.418C90.4042 195.919 100.21 206.359 102.792 206.359C103.256 206.359 104.116 206.935 104.702 207.638C108.605 212.318 130.956 214.282 142.594 210.968C154.56 207.56 165.204 199.774 171.417 189.885C174.367 185.19 176.831 183.4 176.814 185.965C176.804 187.466 172.419 194.772 169.61 197.966C162.391 206.175 149.305 213.975 139.169 216.111C133.591 217.287 114.033 217.299 108.811 216.131V216.131ZM145.293 59.4487C138.649 57.991 127.163 49.9062 125.499 45.5169C124.536 42.9767 126.332 39.7622 130.562 36.4526C136.274 31.9842 138.494 30.8282 144.183 29.3612C154.575 26.6814 164.976 27.9867 173.392 33.0269C183.472 39.0636 185.517 44.1703 180.015 49.5642C172.055 57.3679 167.308 59.4479 156.553 59.8428C152.094 60.0065 147.027 59.8291 145.293 59.4487V59.4487ZM137.186 44.0988C137.186 39.1682 136.945 35.1341 136.65 35.1341C136.355 35.1341 134.936 35.9684 133.497 36.9881C131.154 38.6484 130.881 39.3554 130.881 43.7546C130.881 47.9901 131.222 48.9662 133.358 50.837C134.72 52.0304 136.139 53.0196 136.511 53.0352C136.882 53.0507 137.186 49.0294 137.186 44.0988ZM175.518 50.5982C178.259 48.422 178.623 47.643 178.623 43.9544C178.623 40.3889 178.216 39.4353 175.852 37.455C174.327 36.1785 172.706 35.1341 172.248 35.1341C171.791 35.1341 171.417 39.1682 171.417 44.0988C171.417 49.0294 171.641 53.0635 171.915 53.0635C172.189 53.0635 173.811 51.9541 175.518 50.5982ZM144.589 46.6256C145.351 47.3832 145.924 47.3832 146.842 46.6256C147.759 45.868 148.332 45.868 149.094 46.6256C149.837 47.3658 150.439 47.3744 151.307 46.6571C152.181 45.9356 152.861 45.9707 153.851 46.7882C154.785 47.5593 155.202 47.5932 155.202 46.898C155.202 46.3446 155.81 45.8918 156.553 45.8918C157.297 45.8918 157.905 46.3446 157.905 46.898C157.905 47.5809 158.351 47.5355 159.294 46.7567C160.33 45.9014 160.944 45.868 161.705 46.6256C162.449 47.3659 163.05 47.3744 163.919 46.6572C164.792 45.936 165.47 45.9687 166.452 46.7795C167.534 47.6733 167.895 47.6207 168.324 46.5062C169.11 44.4681 168.43 41.156 167.138 40.7326C166.519 40.5296 166.012 41.0648 166.012 41.9219C166.012 43.3834 165.908 43.3866 164.339 41.974C162.815 40.6009 162.562 40.5936 161.479 41.8917C160.396 43.1907 160.22 43.1872 159.469 41.8517C158.719 40.5183 158.538 40.5333 157.439 42.0192C156.282 43.583 156.206 43.584 155.606 42.043C155.032 40.5698 154.848 40.5543 153.401 41.8576C151.953 43.161 151.769 43.1455 151.196 41.6722C150.599 40.1399 150.515 40.1386 149.401 41.6434C148.335 43.0847 148.129 43.0972 147.036 41.7866C145.942 40.4754 145.739 40.4865 144.69 41.9143C143.635 43.3503 143.495 43.3569 142.97 41.9952C141.93 39.298 140.789 40.4556 140.789 44.2086C140.789 47.4371 140.965 47.7592 142.179 46.7567C143.214 45.9014 143.828 45.868 144.589 46.6256V46.6256Z" fill="#333333"/>
</svg>
