<?xml version="1.0" encoding="UTF-8" standalone="no"?>
<!DOCTYPE svg PUBLIC "-//W3C//DTD SVG 1.1//EN" "http://www.w3.org/Graphics/SVG/1.1/DTD/svg11.dtd">
<svg width="100%" height="100%" viewBox="0 0 256 256" version="1.1" xmlns="http://www.w3.org/2000/svg" xmlns:xlink="http://www.w3.org/1999/xlink" xml:space="preserve" xmlns:serif="http://www.serif.com/" style="fill-rule:evenodd;clip-rule:evenodd;stroke-linejoin:round;stroke-miterlimit:1.5;">
    <g transform="matrix(1,0,0,1,-2733,-3343)">
        <g id="mini-logo" serif:id="mini logo" transform="matrix(0.128,0,0,0.128,2733.92,3343.13)">
            <rect x="0" y="0" width="2000" height="2000" style="fill:none;"/>
            <clipPath id="_clip1">
                <rect x="0" y="0" width="2000" height="2000"/>
            </clipPath>
            <g clip-path="url(#_clip1)">
                <g transform="matrix(8.40563,0,0,8.33503,-23132.1,-27998.8)">
                    <rect x="2751.98" y="3359.18" width="237.936" height="239.951" style="fill:white;"/>
                </g>
                <g transform="matrix(0.875691,0,0,0.875691,-128.42,215.576)">
                    <path d="M519.369,387.308L619.668,387.308L619.668,655.965L851.608,655.965L851.608,387.308L951.907,387.308L951.907,1045.52L851.608,1045.52L851.608,740.144L619.668,740.144L619.668,1045.52L519.369,1045.52L519.369,387.308Z" style="fill:rgb(25,25,25);fill-rule:nonzero;"/>
                    <g transform="matrix(1,0,0,1,-232.684,350.668)">
                        <path d="M1317.28,1054.47C1234.89,1054.47 1175.19,1029.7 1138.17,980.144C1101.16,930.592 1082.65,858.652 1082.65,764.323L1082.65,387.308L1182.95,387.308L1184.59,766.114C1184.59,835.965 1193.4,885.965 1214.3,916.114C1235.19,946.264 1269.52,961.338 1317.28,961.338C1365.04,961.338 1399.22,946.562 1419.82,917.01C1440.41,887.458 1450.71,837.159 1450.71,766.114L1450.71,387.308L1551.91,387.308L1551.91,764.323C1551.91,858.055 1532.35,929.846 1493.25,979.696C1454.14,1029.55 1395.49,1054.47 1317.28,1054.47Z" style="fill:rgb(25,25,25);fill-rule:nonzero;"/>
                    </g>
                    <g transform="matrix(1,0,0,1,-465.587,4.92537)">
                        <path d="M1784.81,619.249L1783.85,1045.52L1683.55,1045.52L1683.55,381.488L1696.09,381.488L2082.95,818.055L2079.37,742.831L2079.37,382.383L2179.67,382.383L2179.67,1045.52L2166.24,1045.52L1784.81,619.249Z" style="fill:rgb(25,25,25);fill-rule:nonzero;"/>
                    </g>
                    <g transform="matrix(1,0,0,1,-656.453,359.623)">
                        <path d="M2444.74,475.07L2276.38,475.07L2276.38,387.308L2714.29,387.308L2714.29,475.07L2544.14,475.07L2544.14,1045.52L2444.74,1045.52L2444.74,475.07Z" style="fill:rgb(25,25,25);fill-rule:nonzero;"/>
                    </g>
                </g>
                <g transform="matrix(1.05476,0,0,1.05476,-54.7646,-54.3725)">
                    <path d="M745.125,577.485L745.125,1183.11C745.125,1183.11 733.817,1320.51 830.626,1318.86C920.929,1317.32 917.568,1183.11 917.568,1183.11L917.568,577.485" style="fill:none;stroke:rgb(25,25,25);stroke-width:12.5px;stroke-dasharray:50,35,0,0;"/>
                </g>
                <g transform="matrix(1.05476,0,0,1.05476,-54.7646,-57.5368)">
                    <path d="M1348.08,1172.97L1049.74,841.377" style="fill:none;stroke:rgb(25,25,25);stroke-width:12.5px;stroke-dasharray:50,33.75,0,0;"/>
                </g>
                <g transform="matrix(1.05476,0,0,1.05476,-56.8741,-54.3725)">
                    <path d="M1522.49,1422.52L1522.49,962.92" style="fill:none;stroke:rgb(25,25,25);stroke-width:12.5px;stroke-dasharray:50,33.75,0,0;"/>
                </g>
                <g transform="matrix(3.66274,0,0,3.66274,-205.441,-2474)">
                    <path d="M478.995,896.96L465.168,883.133L456.225,892.077L470.051,905.903L456.225,919.729L465.168,928.673L478.995,914.846L492.821,928.673L501.764,919.729L487.938,905.903L501.764,892.077L492.821,883.133L478.995,896.96Z" style="fill:rgb(255,56,56);"/>
                </g>
                <g transform="matrix(1.05476,0,0,0.800974,-66.6052,91.999)">
                    <path d="M478.995,576.742L478.995,855.764" style="fill:none;stroke:rgb(25,25,25);stroke-width:14.08px;stroke-dasharray:56.31,38.01,0,0;"/>
                </g>
                <g transform="matrix(5.06354,0,0,5.06354,-2038.36,-3799.61)">
                    <circle cx="489.179" cy="931.984" r="16.471" style="fill:rgb(54,165,255);"/>
                </g>
            </g>
        </g>
    </g>
</svg>
