<?xml version="1.0"?>
<svg width="256" height="256" xmlns="http://www.w3.org/2000/svg" xmlns:svg="http://www.w3.org/2000/svg">
 <g class="layer">
  <title>Layer 1</title>
  <rect fill="#ffffff" height="328" id="svg_2" stroke="#000000" width="328" x="-43" y="-39"/>
  <path d="m116.62,25.7c-4.72,0 -9.45,0.09 -14.13,0.23l2.85,29.73l-28.58,-28.33c-14.64,1.13 -29.23,2.99 -43.87,5.67l16,12.87l-22.45,-0.27c16.42,45.41 3.23,82.76 -0.14,132.39l44.76,47.95c4.68,-0.59 9.31,-1.09 13.85,-1.5l10.06,-19.13l8.7,13.05l19.41,-15.18l0.37,19.49c38.78,-0.09 73.76,4.12 110.25,3.58c-13.19,-33.09 -14.59,-65.09 -14.92,-94.82l-15.58,-8.66l15.3,-15.36c-0.19,-9.65 -0.61,-19.04 -1.68,-28.06l-26.85,0.32l23.48,-18.9c-1.78,-7.03 -4.21,-13.78 -7.53,-20.26l-13.8,-10.83c-25.16,-2.49 -50.33,-4.03 -75.49,-3.99l-0.01,0.01zm27.46,16.77c4.96,11.22 9.87,22.44 14.83,33.68c3.51,-4.76 6.97,-9.52 10.48,-14.28c7.48,12.33 14.97,24.61 22.45,36.94l-7.58,4.31l-15.58,-25.7l-19.88,26.92l-7.11,-4.94l11.23,-15.18l-10.24,-23.34l-11.51,18.18l5.61,10.24l-7.72,3.99l-8.56,-15.64l-11.6,26.38l-8.05,-3.35l15.2,-34.54l3.6,-8.16c2.25,4.17 4.49,8.29 6.78,12.42c5.85,-9.34 11.74,-18.63 17.63,-27.92l0.02,-0.01zm-91.16,25.52c3.14,0.73 6.27,1.54 8.98,2.4c-0.98,2.67 -1.92,5.35 -2.9,7.98c-2.71,-0.73 -5.48,-1.54 -7.9,-2.13c0.65,-2.72 1.23,-5.48 1.82,-8.25zm17.73,6.07c2.95,1.72 5.61,3.26 7.95,5.8l-6.31,5.8c-1.87,-1.68 -4.02,-3.17 -5.99,-4.26l4.35,-7.34zm13.42,14.64c0.98,3.35 0.98,7.12 0.75,10.2l-8.65,-1.09c0.05,-2.31 0.14,-4.53 -0.47,-6.57l8.37,-2.54zm-9.92,16.18l8.05,3.22c-1.54,2.99 -2.39,5.76 -4.02,8.07l-7.62,-4.08c1.22,-2.45 2.62,-4.9 3.6,-7.21l-0.01,0zm-7.72,15.46l8.28,2.76c-0.7,2.45 -1.4,5.08 -1.68,7.34l-8.7,-0.91c0.61,-3.4 0.98,-6.35 2.1,-9.2l0,0.01zm97.2,7.89c3.98,0.45 6.83,1.36 10.15,3.22l-4.58,7.25c-1.92,-1.27 -4.4,-1.72 -6.31,-2.04l0.75,-8.43l-0.01,0zm-9.92,0.68c0.51,2.76 1.17,5.53 1.82,8.29c-2.76,0.59 -5.47,1.5 -7.72,2.31l-3.18,-7.89c3.13,-1.09 6.31,-2.13 9.07,-2.72l0.01,0.01zm-17.73,7.21l5.15,6.84c-2.62,1.81 -5.52,3.54 -7.86,4.8l-4.16,-7.43c2.39,-1.31 4.96,-2.86 6.88,-4.22l-0.01,0.01zm-62.44,1.22c0.7,2.13 1.96,4.17 3.23,5.48l-6.45,5.71c-2.57,-2.58 -4.44,-6.12 -5.24,-9.11l8.47,-2.08l-0.01,0zm107.72,1.5c1.64,2.9 3.18,5.76 4.07,8.66l-8.33,2.54c-0.94,-2.45 -2.01,-4.9 -3.18,-6.71l7.44,-4.49zm-59.59,4.94l3.23,7.84c-2.99,1.22 -6.03,2.18 -8.7,2.95l-2.34,-8.16c2.76,-0.73 5.29,-1.72 7.81,-2.63zm-39.2,2.81c2.48,0.77 5.05,1.54 7.34,1.9c-0.56,2.76 -0.94,5.57 -1.31,8.38c-3.27,-0.45 -6.78,-1.5 -9.59,-2.58l3.55,-7.71l0.01,0.01zm23.39,1.59l1.31,8.38c-3.37,0.59 -6.27,0.73 -9.26,0.86l-0.19,-8.48c2.76,-0.09 5.43,-0.36 8.14,-0.77l0,0.01zm81.62,8.16c0.47,2.9 0.75,5.85 1.03,8.75l-8.75,0.68c-0.19,-2.72 -0.42,-5.39 -0.94,-8.07l8.65,-1.36l0.01,0zm-31.62,13.96c8.84,1.59 21,7.34 32.23,15.36c3.46,-4.49 6.74,-9.25 9.96,-14.1l14.08,5.85c-2.2,5.57 -7.02,11.6 -13.38,16.86c7.95,7.34 14.45,15.64 17.31,24.02c-6.45,-8.2 -14.55,-14.41 -23.53,-19.4c-10.95,7.16 -24.65,11.74 -37.23,9.25c10.71,-1.99 18.99,-7.52 26.1,-14.78c-7.72,-3.4 -15.81,-6.3 -24,-9.11l-1.54,-13.96l0,0.01z" fill="#000" id="svg_1"/>
 </g>
</svg>