<?xml version="1.0" encoding="UTF-8"?>
<svg xmlns="http://www.w3.org/2000/svg" xmlns:xlink="http://www.w3.org/1999/xlink" width="256px" height="256px" viewBox="0 0 256 255" version="1.1">
<g id="surface1">
<path style=" stroke:none;fill-rule:nonzero;fill:rgb(9.803922%,9.803922%,9.803922%);fill-opacity:1;" d="M 46.242188 73.628906 L 56.894531 73.628906 L 56.894531 102.066406 L 81.53125 102.066406 L 81.53125 73.628906 L 92.183594 73.628906 L 92.183594 143.304688 L 81.53125 143.304688 L 81.53125 110.976562 L 56.894531 110.976562 L 56.894531 143.304688 L 46.242188 143.304688 Z M 46.242188 73.628906 "/>
<path style=" stroke:none;fill-rule:nonzero;fill:rgb(9.803922%,9.803922%,9.803922%);fill-opacity:1;" d="M 106.277344 181.371094 C 97.527344 181.371094 91.1875 178.75 87.253906 173.503906 C 83.324219 168.257812 81.355469 160.644531 81.355469 150.65625 L 81.355469 110.75 L 92.011719 110.75 L 92.183594 150.847656 C 92.183594 158.242188 93.121094 163.535156 95.339844 166.726562 C 97.558594 169.917969 101.203125 171.511719 106.277344 171.511719 C 111.351562 171.511719 114.980469 169.949219 117.167969 166.820312 C 119.355469 163.691406 120.449219 158.367188 120.449219 150.847656 L 120.449219 110.75 L 131.199219 110.75 L 131.199219 150.65625 C 131.199219 160.578125 129.121094 168.179688 124.96875 173.457031 C 120.816406 178.734375 114.585938 181.371094 106.277344 181.371094 Z M 106.277344 181.371094 "/>
<path style=" stroke:none;fill-rule:nonzero;fill:rgb(9.803922%,9.803922%,9.803922%);fill-opacity:1;" d="M 131.199219 98.703125 L 131.097656 143.824219 L 120.445312 143.824219 L 120.445312 73.535156 L 121.777344 73.535156 L 162.867188 119.746094 L 162.488281 111.785156 L 162.488281 73.628906 L 173.140625 73.628906 L 173.140625 143.824219 L 171.714844 143.824219 Z M 131.199219 98.703125 "/>
<path style=" stroke:none;fill-rule:nonzero;fill:rgb(9.803922%,9.803922%,9.803922%);fill-opacity:1;" d="M 181.019531 120.988281 L 163.136719 120.988281 L 163.136719 111.695312 L 209.652344 111.695312 L 209.652344 120.988281 L 191.578125 120.988281 L 191.578125 181.371094 L 181.019531 181.371094 Z M 181.019531 120.988281 "/>
<path style="fill:none;stroke-width:12.5;stroke-linecap:butt;stroke-linejoin:round;stroke:rgb(9.803922%,9.803922%,9.803922%);stroke-opacity:1;stroke-dasharray:50,35;stroke-miterlimit:1.5;" d="M 745.214951 577.481618 L 745.214951 1183.118873 C 745.214951 1183.118873 733.917801 1320.496324 830.706894 1318.872549 C 921.023026 1317.310049 917.664413 1183.118873 917.664413 1183.118873 L 917.664413 577.481618 " transform="matrix(0.127936,0,0,0.1275,0,0)"/>
<path style="fill:none;stroke-width:12.5;stroke-linecap:butt;stroke-linejoin:round;stroke:rgb(9.803922%,9.803922%,9.803922%);stroke-opacity:1;stroke-dasharray:50,33.75;stroke-miterlimit:1.5;" d="M 1348.146881 1169.97549 L 1049.841064 838.38848 " transform="matrix(0.127936,0,0,0.1275,0,0)"/>
<path style="fill:none;stroke-width:12.5;stroke-linecap:butt;stroke-linejoin:round;stroke:rgb(9.803922%,9.803922%,9.803922%);stroke-opacity:1;stroke-dasharray:50,33.75;stroke-miterlimit:1.5;" d="M 1520.565811 1422.518382 L 1520.565811 962.928922 " transform="matrix(0.127936,0,0,0.1275,0,0)"/>
<path style=" stroke:none;fill-rule:evenodd;fill:rgb(100%,21.960784%,21.960784%);fill-opacity:1;" d="M 194.535156 104.648438 L 188.394531 98.523438 L 184.417969 102.484375 L 190.5625 108.605469 L 184.417969 114.726562 L 188.394531 118.6875 L 194.535156 112.566406 L 200.679688 118.6875 L 204.652344 114.726562 L 198.507812 108.605469 L 204.652344 102.484375 L 200.679688 98.523438 Z M 194.535156 104.648438 "/>
<path style="fill:none;stroke-width:12.5;stroke-linecap:butt;stroke-linejoin:round;stroke:rgb(9.803922%,9.803922%,9.803922%);stroke-opacity:1;stroke-dasharray:50,33.75;stroke-miterlimit:1.5;" d="M 467.85466 576.746324 L 467.85466 788.633578 " transform="matrix(0.127936,0,0,0.1275,0,0)"/>
<path style=" stroke:none;fill-rule:evenodd;fill:rgb(21.176471%,64.705882%,100%);fill-opacity:1;" d="M 69.972656 117.726562 C 69.972656 123.292969 65.441406 127.808594 59.855469 127.808594 C 54.269531 127.808594 49.738281 123.292969 49.738281 117.726562 C 49.738281 112.15625 54.269531 107.644531 59.855469 107.644531 C 65.441406 107.644531 69.972656 112.15625 69.972656 117.726562 Z M 69.972656 117.726562 "/>
</g>
</svg>
