<?xml version="1.0" encoding="UTF-8"?>
<!-- Generator: Adobe Illustrator 26.2.1, SVG Export Plug-In . SVG Version: 6.00 Build 0)  -->
<svg version="1.1" id="Livello_1" xmlns="http://www.w3.org/2000/svg" xmlns:xlink="http://www.w3.org/1999/xlink" x="0px" y="0px" viewBox="0 0 253.8 253.9" style="enable-background:new 0 0 253.8 253.9;" xml:space="preserve">
<style type="text/css">
	.st0{fill:url(#SVGID_1_);}
	.st1{clip-path:url(#SVGID_00000152980643714067453630000002410500444013483173_);}
	.st2{fill:#276C85;}
	.st3{fill:#286D85;}
	.st4{fill:#296E84;}
	.st5{fill:#296F83;}
	.st6{fill:#2A7083;}
	.st7{fill:#2B7182;}
	.st8{fill:#2C7281;}
	.st9{fill:#2D7381;}
	.st10{fill:#2E7480;}
	.st11{fill:#2F757F;}
	.st12{fill:#30767F;}
	.st13{fill:#30777E;}
	.st14{fill:#31787E;}
	.st15{fill:#32797D;}
	.st16{fill:#337A7C;}
	.st17{fill:#347B7C;}
	.st18{fill:#357C7B;}
	.st19{fill:#367D7A;}
	.st20{fill:#377F79;}
	.st21{fill:#388078;}
	.st22{fill:#398178;}
	.st23{fill:#3A8277;}
	.st24{fill:#3B8377;}
	.st25{fill:#3C8476;}
	.st26{fill:#3C8575;}
	.st27{fill:#3D8675;}
	.st28{fill:#3E8774;}
	.st29{fill:#3F8873;}
	.st30{fill:#408A73;}
	.st31{fill:#418B72;}
	.st32{fill:#428C71;}
	.st33{fill:#438D71;}
	.st34{fill:#438E70;}
	.st35{fill:#448F6F;}
	.st36{fill:#45906F;}
	.st37{fill:#46916E;}
	.st38{fill:#47926E;}
	.st39{fill:#48936D;}
	.st40{fill:#49946C;}
	.st41{fill:#49956C;}
	.st42{fill:#4A966B;}
	.st43{fill:#4B976A;}
	.st44{fill:#4C986A;}
	.st45{fill:#4D9969;}
	.st46{fill:#4E9A68;}
	.st47{fill:#4F9B68;}
	.st48{fill:#4F9C67;}
	.st49{fill:#509D67;}
	.st50{fill:#519E66;}
	.st51{fill:#529F65;}
	.st52{fill:#53A065;}
	.st53{fill:#54A164;}
	.st54{fill:#55A263;}
	.st55{fill:#56A363;}
	.st56{fill:#56A462;}
	.st57{fill:#58A661;}
	.st58{fill:#59A760;}
	.st59{fill:#5AA85F;}
	.st60{fill:#5BA95F;}
	.st61{fill:#5CAA5E;}
	.st62{fill:#5CAB5E;}
	.st63{fill:#5DAC5D;}
	.st64{fill:#5EAD5C;}
	.st65{fill:#5FAE5C;}
	.st66{fill:#60AF5B;}
	.st67{fill:#61B05A;}
	.st68{fill:#62B15A;}
	.st69{fill:#62B259;}
	.st70{fill:#63B358;}
	.st71{fill:#64B458;}
	.st72{fill:#65B557;}
	.st73{fill:#66B657;}
	.st74{fill:#67B756;}
	.st75{fill:#68B855;}
	.st76{fill:#69B955;}
	.st77{fill:#69BA54;}
	.st78{fill:#6ABB53;}
	.st79{fill:#6BBC53;}
	.st80{fill:#6CBD52;}
	.st81{fill:#6DBE51;}
	.st82{fill:#6EBF51;}
	.st83{fill:#6FC150;}
	.st84{fill:#70C24F;}
	.st85{fill:#71C34E;}
	.st86{fill:#72C44E;}
	.st87{fill:#73C54D;}
	.st88{fill:#74C64C;}
	.st89{fill:#75C74C;}
	.st90{fill:#75C84B;}
	.st91{fill:#76C94A;}
	.st92{fill:#77CA4A;}
	.st93{fill:#78CB49;}
	.st94{fill:#79CC48;}
	.st95{fill:#7ACD48;}
	.st96{fill:#7BCE47;}
	.st97{fill:#7CD046;}
	.st98{fill:#7DD145;}
	.st99{fill:#7ED245;}
	.st100{fill:#7FD344;}
	.st101{fill:#0B4C9A;}
	.st102{fill:#0C4D99;}
	.st103{fill:#0D4E98;}
	.st104{fill:#0E4F98;}
	.st105{fill:#0F5097;}
	.st106{fill:#105196;}
	.st107{fill:#105296;}
	.st108{fill:#115395;}
	.st109{fill:#125495;}
	.st110{fill:#135594;}
	.st111{fill:#145693;}
	.st112{fill:#155793;}
	.st113{fill:#165892;}
	.st114{fill:#165991;}
	.st115{fill:#175A91;}
	.st116{fill:#185B90;}
	.st117{fill:#195C8F;}
	.st118{fill:#1A5D8F;}
	.st119{fill:#1B5E8E;}
	.st120{fill:#1C5F8E;}
	.st121{fill:#1D608D;}
	.st122{fill:#1E628C;}
	.st123{fill:#1F638B;}
	.st124{fill:#20648A;}
	.st125{fill:#21658A;}
	.st126{fill:#226689;}
	.st127{fill:#236788;}
	.st128{fill:#236888;}
	.st129{fill:#246987;}
	.st130{fill:#266B86;}
	.st131{fill:#003FA2;}
	.st132{fill:#0140A1;}
	.st133{fill:#0241A1;}
	.st134{fill:#0342A0;}
	.st135{fill:#03439F;}
	.st136{fill:#04449F;}
	.st137{fill:#05459E;}
	.st138{fill:#06469E;}
	.st139{fill:#07479D;}
	.st140{fill:#08489C;}
	.st141{fill:#09499C;}
	.st142{fill:#0A4A9B;}
	.st143{fill:#0A4B9A;}
	.st144{clip-path:url(#SVGID_00000103968116935279981930000016491434888809912968_);}
	.st145{clip-path:url(#SVGID_00000104690496259435789230000016972166929480912029_);}
	.st146{clip-path:url(#SVGID_00000132791137392554304850000009990126368147151242_);}
	.st147{clip-path:url(#SVGID_00000075155577528802006720000006393488151904511640_);}
	.st148{clip-path:url(#SVGID_00000106869150837232841320000018040268487649167234_);}
	.st149{clip-path:url(#SVGID_00000054258543717376430290000016222737018774603960_);}
</style>
<g id="a">
</g>
<g id="b">
	<g id="c">
		<g>
			
				<linearGradient id="SVGID_1_" gradientUnits="userSpaceOnUse" x1="-843.4515" y1="-1077.174" x2="-589.6498" y2="-1077.174" gradientTransform="matrix(0.8302 -0.5575 -0.5575 -0.8302 121.2724 -1166.7847)">
				<stop offset="0" style="stop-color:#003FA2"/>
				<stop offset="0.82" style="stop-color:#7FD344"/>
			</linearGradient>
			<path class="st0" d="M127.1,253.9c-8.2,0-16.5-0.8-24.7-2.4c-33.3-6.5-62-25.6-80.9-53.8C-17.5,139.6-2,60.6,56.1,21.6     c28.1-18.9,62-25.7,95.2-19.2c33.3,6.5,62,25.6,80.9,53.8s25.7,62,19.2,95.2c-6.5,33.3-25.6,62-53.8,80.9     C176.4,246.5,152.1,253.9,127.1,253.9L127.1,253.9z M126.6,12C104,12,82,18.7,62.8,31.6C10.2,66.9-3.8,138.4,31.5,191     c17.1,25.5,43.1,42.8,73.2,48.7c30.1,5.9,60.7-0.2,86.2-17.4s42.8-43.1,48.7-73.2s-0.2-60.7-17.4-86.2l0,0     c-17.1-25.5-43.1-42.8-73.2-48.7C141.6,12.7,134.1,12,126.6,12L126.6,12z"/>
			<g>
				<g>
					<defs>
						<path id="SVGID_00000081639763161503672770000014477073484618013104_" d="M152,172.9c3.3,0.5,6.6,1.3,9.3,3.4        c3.8,2.8,6.2,6.6,7.5,11.1c1.7,6.3-1.7,14.9-7.2,18.8c-4.6,3.2-9.6,4.4-15,3.1c-6.7-1.7-11.4-5.9-13.3-12.6        c-0.6-2-0.7-4.2-0.8-6.3c-0.1-2.4,0-4.8,0-7.2c-0.1-9.1-0.3-18.2-0.3-27.3c0-5.5,0.1-11.1,0.3-16.6c0.1-2.1-0.5-3.6-2.1-5        c-3.6-3.4-3.5-3.4-7.2,0c-1.5,1.4-2.1,2.9-2.1,5c0.2,8.2,0.3,16.5,0.3,24.8c0,9.3-0.2,18.6-0.3,27.9c0,5.8-2.5,10.4-6.9,14        c-4.2,3.4-9.2,4.6-14.5,3.7c-6.5-1.2-11.2-5-13.7-11c-4.3-10,1.2-21.3,11.4-24.6c0.9-0.3,1.9-0.6,2.8-0.8        c1.1-0.3,2-0.2,1.9,1.3c-0.1,2.1,0,4.2,0,6.3c0,1.1-0.2,1.7-1.5,2c-4.1,0.7-6.3,4.1-6.8,7.9c-0.5,3.5,2,7.5,5.3,8.9        c6.7,3,13-2.4,13-8.8c-0.1-14,0-28,0-42c0-0.8-0.1-1.6-0.2-2.8c-0.9,0.7-1.5,1-2,1.5c-6,6-12,12-18,17.9        c-5.3,5.2-11.6,7.9-19.2,7.8c-7.4-0.1-13.5-2.9-18.5-8.1c-3.5-3.7-5.7-8.1-6.6-13.3c-1.7-10.1,1.8-18.2,9.2-24.8        c0.8-0.7,1.7-1.2,2.5-1.8c1.7-1,1.7-1.3,0.1-2.3c-5.9-3.7-9.9-8.9-11.5-15.7c-2.5-10.1,0.3-18.8,7.9-25.8        c5-4.6,11.1-6.9,18-6.5c4.3,0.3,3.9,0.3,3.7-3.7c-0.4-8.5,2.9-15.3,9.2-20.8c3.4-3,7.4-5,12-5.5c1.6-0.2,3.3-0.6,4.9-0.6        c6.1,0.2,11.6,2,16.2,5.9c2.2,1.9,4.1,4.2,5.9,6.5c0.8,1,1.1,0.9,1.9,0c0.8-0.9,8-12.3,23.8-12.3c7.6,0,14.1,3.7,18.9,9.9        c4.2,5.4,6,11.4,5.5,18.2c-0.2,2.5,0,2.5,2.4,2.4c4.5-0.2,8.9,0.1,13.1,2.2c6.3,3.2,10.9,7.8,13.3,14.5        c1.2,3.2,2.1,6.6,1.8,10.1c-0.7,7.8-3.6,14.6-10.1,19.4c-0.9,0.7-1.9,1.4-2.8,2c-1,0.7-0.9,1.2,0.1,1.7c3.8,2.2,6.8,5.2,9,9        c1.6,2.8,2.9,5.6,3.2,8.9c0.1,1.3,0.6,2.5,0.6,3.8c0,7.9-2.8,14.8-8.7,20.1c-4.6,4.1-9.9,6.3-16.2,6.6        c-8.4,0.3-15.1-2.8-20.9-8.6c-5.4-5.6-11-11-16.5-16.6c-0.6-0.6-1.3-1.2-2.4-2.1c-0.1,1.1-0.3,1.8-0.3,2.5        c0,14.3-0.1,28.6,0,42.9c0.1,5.1,3.1,8.1,7.3,8.9c4.7,1,8.5-1.7,10.4-5.9c2-4.4-2-11.2-6.5-11.6c-1.4-0.1-1.4-0.9-1.3-1.9        c0.1-1.3,0.4-2.5,0.5-3.8C152,175.6,152,174.4,152,172.9L152,172.9z M111.1,86.2c1.5-1.4,3-2.7,4.4-4.2        c4.8-5.2,6.1-11.2,3.6-17.8C115,53.5,102.1,51,94,56.6c-8.2,5.6-9.7,17.9-2.9,24.9c11.4,11.7,23,23.1,34.5,34.6        c0.9,0.9,1.5,1,2.4,0.1c11.5-11.6,23.1-23,34.5-34.6c4.1-4.2,5.5-9.7,3.8-15.4c-2.9-9.5-10.2-13.6-19.9-12.1        c-5.3,0.8-8.9,4.3-11.4,9c-3.1,5.8-2,13.7,2.6,18.5c1.6,1.7,3.2,3.3,4.6,4.7c-2.2,2.3-4.2,4.5-6.6,7c-2.7-3.2-5.3-6.3-7.9-9.5        c-0.8-1-1.1-0.9-1.9,0.1c-2.5,3.2-5.2,6.3-7.8,9.4C115.6,90.7,113.5,88.6,111.1,86.2L111.1,86.2z M96.1,115.1        c-3,2.6-6,5.2-9.1,7.7c-1.4,1.1-1.4,1.2,0,2.3c3.1,2.5,6,5.1,8.8,7.5c-2.4,2.5-4.4,4.7-6.7,7.1c-1.4-1.5-2.8-3-4.2-4.4        c-5.1-4.9-11.1-6.1-17.7-3.6c-10.2,3.9-13.2,15.2-8.6,23.8c5.2,9.7,18.7,11.4,26.5,3.6c11-11,22.1-22.1,33.1-33.1        c2-2,2-2-0.1-4c-9.1-9.1-18.2-18.3-27.4-27.3c-3.1-3.1-6.3-6.3-9.9-8.7c-5.5-3.6-13.8-2.3-18.6,2.2c-5.8,5.3-7,11.7-4.4,18.9        c1.9,5.5,6.2,8.7,11.6,10c6.3,1.5,11.9-0.5,16.3-5.2c1.1-1.2,2.1-2.5,3.2-3.7L96.1,115.1L96.1,115.1z M164.4,108.1        c1.2,1.3,2.4,2.5,3.5,3.7c5.3,5.3,11.5,7.1,18.6,4.3c10.2-4.1,13.1-15.4,8.4-23.8c-5.6-10.1-18.7-11.4-26.8-3.2        c-10.9,11-21.9,21.9-32.8,32.8c-1.9,1.9-1.9,1.9,0,3.8c11,11,21.9,22,32.9,32.8c5.1,5,11.1,6.7,17.9,4.1        c9.7-3.7,13-12.6,10-21.3c-4.2-12-18.9-14.8-27.5-6.3c-1.4,1.4-2.7,2.9-3.8,4.1c-2.5-2.3-4.8-4.4-7.3-6.7        c3.3-2.7,6.4-5.4,9.6-8c1-0.8,0.8-1.3-0.2-1.9c-3.6-2.1-6.3-5.2-9.1-8.1C160,112.5,162.1,110.5,164.4,108.1L164.4,108.1z"/>
					</defs>
					<clipPath id="SVGID_00000170979871191332283890000002948816413778475182_">
						<use xlink:href="#SVGID_00000081639763161503672770000014477073484618013104_" style="overflow:visible;"/>
					</clipPath>
					<g style="clip-path:url(#SVGID_00000170979871191332283890000002948816413778475182_);">
						<polygon class="st2" points="133.4,165.2 134.1,165.4 133.4,165.4       "/>
						<polygon class="st3" points="133.4,164.6 136.7,165.4 134.1,165.4 133.4,165.2       "/>
						<polygon class="st4" points="133.4,163.9 139.4,165.4 136.7,165.4 133.4,164.6       "/>
						<polygon class="st5" points="133.4,163.2 142,165.4 139.4,165.4 133.4,163.9       "/>
						<polygon class="st6" points="133.4,162.6 144.6,165.4 142,165.4 133.4,163.2       "/>
						<polygon class="st7" points="133.4,161.9 147.2,165.4 144.6,165.4 133.4,162.6       "/>
						<polygon class="st8" points="133.4,161.3 149.9,165.4 147.2,165.4 133.4,161.9       "/>
						<polygon class="st9" points="133.4,160.6 152.5,165.4 149.9,165.4 133.4,161.3       "/>
						<polygon class="st10" points="133.4,159.9 155.1,165.4 152.5,165.4 133.4,160.6       "/>
						<polygon class="st11" points="133.4,159.3 157.8,165.4 155.1,165.4 133.4,159.9       "/>
						<polygon class="st12" points="133.4,158.6 160.4,165.4 157.8,165.4 133.4,159.3       "/>
						<polygon class="st13" points="133.4,158 163,165.4 160.4,165.4 133.4,158.6       "/>
						<polygon class="st14" points="133.4,157.3 165.7,165.4 163,165.4 133.4,158       "/>
						<polygon class="st15" points="133.4,156.7 168.3,165.4 165.7,165.4 133.4,157.3       "/>
						<polygon class="st16" points="133.4,156 170.9,165.4 168.3,165.4 133.4,156.7       "/>
						<polygon class="st17" points="133.4,155.3 173.6,165.4 170.9,165.4 133.4,156       "/>
						<polygon class="st18" points="133.4,154.7 176.2,165.4 173.6,165.4 133.4,155.3       "/>
						<polygon class="st19" points="133.4,154 178.8,165.4 176.2,165.4 133.4,154.7       "/>
						<polygon points="133.4,153.4 181.4,165.4 178.8,165.4 133.4,154       "/>
						<polygon class="st20" points="133.4,152.7 184.1,165.4 181.4,165.4 133.4,153.4       "/>
						<polygon class="st21" points="133.4,152.1 186.7,165.4 184.1,165.4 133.4,152.7       "/>
						<polygon class="st22" points="133.4,151.4 189.3,165.4 186.7,165.4 133.4,152.1       "/>
						<polygon class="st23" points="133.4,150.7 192,165.4 189.3,165.4 133.4,151.4       "/>
						<polygon class="st24" points="133.4,150.1 194.6,165.4 192,165.4 133.4,150.7       "/>
						<polygon class="st25" points="133.4,149.4 197.2,165.4 194.6,165.4 133.4,150.1       "/>
						<polygon class="st26" points="133.4,148.8 197.5,164.8 197.4,165.4 197.2,165.4 133.4,149.4       "/>
						<polygon class="st27" points="133.4,148.1 197.7,164.2 197.5,164.8 133.4,148.8       "/>
						<polygon class="st28" points="133.4,147.4 197.8,163.6 197.7,164.2 133.4,148.1       "/>
						<polygon class="st29" points="133.4,146.8 198,162.9 197.8,163.6 133.4,147.4       "/>
						<polygon class="st30" points="133.4,146.1 198.1,162.3 198,162.9 133.4,146.8       "/>
						<polygon class="st31" points="133.4,145.5 198.3,161.7 198.1,162.3 133.4,146.1       "/>
						<polygon class="st32" points="133.4,144.8 198.4,161.1 198.3,161.7 133.4,145.5       "/>
						<polygon class="st33" points="133.4,144.2 198.6,160.5 198.4,161.1 133.4,144.8       "/>
						<polygon class="st34" points="133.4,143.5 198.8,159.9 198.6,160.5 133.4,144.2       "/>
						<polygon class="st35" points="133.4,142.9 198.9,159.2 198.8,159.9 133.4,143.5       "/>
						<polygon class="st36" points="133.4,142.2 199.1,158.6 198.9,159.2 133.4,142.9       "/>
						<polygon class="st37" points="133.4,141.5 199.2,158 199.1,158.6 133.4,142.2       "/>
						<polygon class="st38" points="133.4,140.9 199.4,157.4 199.2,158 133.4,141.5       "/>
						<polygon class="st39" points="133.4,140.2 199.5,156.8 199.4,157.4 133.4,140.9       "/>
						<polygon class="st40" points="133.4,139.6 199.6,156.1 199.6,156.5 199.5,156.8 133.4,140.2       "/>
						<polygon class="st41" points="133.4,138.9 199.6,155.5 199.6,156.1 133.4,139.6       "/>
						<polygon class="st42" points="133.4,138.2 199.6,154.8 199.6,155.5 133.4,138.9       "/>
						<polygon class="st43" points="133.4,137.6 199.6,154.1 199.6,154.8 133.4,138.2       "/>
						<polygon class="st44" points="133.4,136.9 199.6,153.5 199.6,154.1 133.4,137.6       "/>
						<polygon class="st45" points="133.4,136.3 199.6,152.8 199.6,153.5 133.4,136.9       "/>
						<polygon class="st46" points="133.4,135.6 199.6,152.2 199.6,152.8 133.4,136.3       "/>
						<polygon class="st47" points="133.4,134.9 199.6,151.5 199.6,152.2 133.4,135.6       "/>
						<polygon class="st48" points="133.4,134.3 199.6,150.9 199.6,151.5 133.4,134.9       "/>
						<polygon class="st49" points="133.4,133.6 199.6,150.2 199.6,150.9 133.4,134.3       "/>
						<polygon class="st50" points="133.4,133 199.6,149.5 199.6,150.2 133.4,133.6       "/>
						<polygon class="st51" points="133.4,132.3 199.6,148.9 199.6,149.5 133.4,133       "/>
						<polygon class="st52" points="133.4,131.7 199.6,148.2 199.6,148.9 133.4,132.3       "/>
						<polygon class="st53" points="133.4,131 199.6,147.6 199.6,148.2 133.4,131.7       "/>
						<polygon class="st54" points="133.4,130.4 199.6,146.9 199.6,147.6 133.4,131       "/>
						<polygon class="st55" points="133.4,129.7 199.6,146.2 199.6,146.9 133.4,130.4       "/>
						<polygon class="st56" points="133.4,129 199.6,145.6 199.6,146.2 133.4,129.7       "/>
						<polygon points="133.4,128.4 199.6,144.9 199.6,145.6 133.4,129       "/>
						<polygon class="st57" points="133.4,127.7 199.6,144.3 199.6,144.9 133.4,128.4       "/>
						<polygon class="st58" points="133.4,127.1 199.6,143.6 199.6,144.3 133.4,127.7       "/>
						<polygon class="st59" points="133.4,126.4 199.6,143 199.6,143.6 133.4,127.1       "/>
						<polygon class="st60" points="133.4,125.8 199.6,142.3 199.6,143 133.4,126.4       "/>
						<polygon class="st61" points="133.4,125.1 199.6,141.6 199.6,142.3 133.4,125.8       "/>
						<polygon class="st62" points="133.4,124.4 199.6,141 199.6,141.6 133.4,125.1       "/>
						<polygon class="st63" points="133.4,123.8 199.6,140.3 199.6,141 133.4,124.4       "/>
						<polygon class="st64" points="133.4,123.1 199.6,139.7 199.6,140.3 133.4,123.8       "/>
						<polygon class="st65" points="133.4,122.5 199.6,139 199.6,139.7 133.4,123.1       "/>
						<polygon class="st66" points="133.4,121.8 199.6,138.4 199.6,139 133.4,122.5       "/>
						<polygon class="st67" points="133.4,121.1 199.6,137.7 199.6,138.4 133.4,121.8       "/>
						<polygon class="st68" points="133.4,120.5 199.6,137 199.6,137.7 133.4,121.1       "/>
						<polygon class="st69" points="133.4,119.8 199.6,136.4 199.6,137 133.4,120.5       "/>
						<polygon class="st70" points="133.4,119.2 199.6,135.7 199.6,136.4 133.4,119.8       "/>
						<polygon class="st71" points="133.4,118.5 199.6,135.1 199.6,135.7 133.4,119.2       "/>
						<polygon class="st72" points="133.4,117.8 199.6,134.4 199.6,135.1 133.4,118.5       "/>
						<polygon class="st73" points="133.4,117.2 199.6,133.8 199.6,134.4 133.4,117.8       "/>
						<polygon class="st74" points="133.4,116.5 199.6,133.1 199.6,133.8 133.4,117.2       "/>
						<polygon class="st75" points="133.4,115.9 199.6,132.4 199.6,133.1 133.4,116.5       "/>
						<polygon class="st76" points="133.4,115.7 133.5,115.2 199.6,131.8 199.6,132.4 133.4,115.9       "/>
						<polygon class="st77" points="133.5,115.2 133.6,114.6 199.6,131.1 199.6,131.8       "/>
						<polygon class="st78" points="133.6,114.6 133.8,114 199.6,130.5 199.6,131.1       "/>
						<polygon class="st79" points="133.8,114 133.9,113.4 199.6,129.8 199.6,130.5       "/>
						<polygon class="st80" points="133.9,113.4 134.1,112.8 199.6,129.1 199.6,129.8       "/>
						<polygon class="st81" points="134.1,112.8 134.2,112.2 199.6,128.5 199.6,129.1       "/>
						<polygon class="st82" points="134.2,112.2 134.4,111.5 199.6,127.8 199.6,128.5       "/>
						<polygon points="134.4,111.5 134.6,110.9 199.6,127.2 199.6,127.8       "/>
						<polygon class="st83" points="134.6,110.9 134.7,110.3 199.6,126.5 199.6,127.2       "/>
						<polygon class="st84" points="134.7,110.3 134.9,109.7 199.6,125.9 199.6,126.5       "/>
						<polygon class="st85" points="134.9,109.7 135,109.1 199.6,125.2 199.6,125.9       "/>
						<polygon class="st86" points="135,109.1 135.2,108.4 199.6,124.5 199.6,125.2       "/>
						<polygon class="st87" points="135.2,108.4 135.3,107.8 199.6,123.9 199.6,124.5       "/>
						<polygon class="st88" points="135.3,107.8 135.5,107.2 199.6,123.2 199.6,123.9       "/>
						<polygon class="st89" points="135.5,107.2 135.6,106.6 199.6,122.6 199.6,123.2       "/>
						<polygon class="st90" points="135.6,106.6 135.8,106 199.6,121.9 199.6,122.6       "/>
						<polygon class="st91" points="135.8,106 136,105.3 199.6,121.3 199.6,121.9       "/>
						<polygon class="st92" points="136,105.3 136.1,104.7 199.6,120.6 199.6,121.3       "/>
						<polygon class="st93" points="136.1,104.7 136.3,104.1 199.6,119.9 199.6,120.6       "/>
						<polygon class="st94" points="136.3,104.1 136.4,103.5 199.6,119.3 199.6,119.9       "/>
						<polygon class="st95" points="136.4,103.5 136.6,102.9 199.6,118.6 199.6,119.3       "/>
						<polygon class="st96" points="136.6,102.9 136.7,102.2 199.6,118 199.6,118.6       "/>
						<polygon points="136.7,102.2 136.9,101.6 199.6,117.3 199.6,118       "/>
						<polygon class="st97" points="136.9,101.6 137,101 199.6,116.7 199.6,117.3       "/>
						<polygon class="st98" points="137,101 137.2,100.4 199.6,116 199.6,116.7       "/>
						<polygon class="st99" points="137.2,100.4 137.4,99.8 199.6,115.3 199.6,116       "/>
						<polygon class="st100" points="137.4,99.8 137.5,99.2 199.6,114.7 199.6,115.3       "/>
						<polygon class="st100" points="137.5,99.2 142.1,81 199.6,81 199.6,114.7       "/>
						<polygon class="st101" points="54.1,166.4 55.4,166.8 54.1,166.8       "/>
						<polygon class="st102" points="54.1,165.8 58.1,166.8 55.4,166.8 54.1,166.4       "/>
						<polygon class="st103" points="54.1,165.1 60.7,166.8 58.1,166.8 54.1,165.8       "/>
						<polygon class="st104" points="54.1,164.4 63.3,166.8 60.7,166.8 54.1,165.1       "/>
						<polygon class="st105" points="54.1,163.8 66,166.8 63.3,166.8 54.1,164.4       "/>
						<polygon class="st106" points="54.1,163.1 68.6,166.8 66,166.8 54.1,163.8       "/>
						<polygon class="st107" points="54.1,162.5 71.2,166.8 68.6,166.8 54.1,163.1       "/>
						<polygon class="st108" points="54.1,161.8 73.9,166.8 71.2,166.8 54.1,162.5       "/>
						<polygon class="st109" points="54.1,161.2 76.5,166.8 73.9,166.8 54.1,161.8       "/>
						<polygon class="st110" points="54.1,160.5 79.1,166.8 76.5,166.8 54.1,161.2       "/>
						<polygon class="st111" points="54.1,159.9 81.8,166.8 79.1,166.8 54.1,160.5       "/>
						<polygon class="st112" points="54.1,159.2 84.4,166.8 81.8,166.8 54.1,159.9       "/>
						<polygon class="st113" points="54.1,158.5 87,166.8 84.4,166.8 54.1,159.2       "/>
						<polygon class="st114" points="54.1,157.9 89.6,166.8 87,166.8 54.1,158.5       "/>
						<polygon class="st115" points="54.1,157.2 92.3,166.8 89.6,166.8 54.1,157.9       "/>
						<polygon class="st116" points="54.1,156.6 94.9,166.8 92.3,166.8 54.1,157.2       "/>
						<polygon class="st117" points="54.1,155.9 97.5,166.8 94.9,166.8 54.1,156.6       "/>
						<polygon class="st118" points="54.1,155.2 100.2,166.8 97.5,166.8 54.1,155.9       "/>
						<polygon class="st119" points="54.1,154.6 102.8,166.8 100.2,166.8 54.1,155.2       "/>
						<polygon class="st120" points="54.1,153.9 105.4,166.8 102.8,166.8 54.1,154.6       "/>
						<polygon class="st121" points="54.1,153.3 108.1,166.8 105.4,166.8 54.1,153.9       "/>
						<polygon points="54.1,152.6 110.7,166.8 108.1,166.8 54.1,153.3       "/>
						<polygon class="st122" points="54.1,152 111.7,166.4 111.6,166.8 110.7,166.8 54.1,152.6       "/>
						<polygon class="st123" points="54.1,151.3 111.8,165.7 111.7,166.4 54.1,152       "/>
						<polygon class="st124" points="54.1,150.6 112,165.1 111.8,165.7 54.1,151.3       "/>
						<polygon class="st125" points="54.1,150 112.2,164.5 112,165.1 54.1,150.6       "/>
						<polygon class="st126" points="54.1,149.3 112.3,163.9 112.2,164.5 54.1,150       "/>
						<polygon class="st127" points="54.1,148.7 112.5,163.3 112.3,163.9 54.1,149.3       "/>
						<polygon class="st128" points="54.1,148 112.6,162.6 112.5,163.3 54.1,148.7       "/>
						<polygon class="st129" points="54.1,147.4 112.8,162 112.6,162.6 54.1,148       "/>
						<polygon points="54.1,146.7 112.9,161.4 112.8,162 54.1,147.4       "/>
						<polygon class="st130" points="54.1,146 113.1,160.8 112.9,161.4 54.1,146.7       "/>
						<polygon class="st2" points="54.1,145.4 113.2,160.2 113.1,160.8 54.1,146       "/>
						<polygon class="st3" points="54.1,144.7 113.4,159.6 113.2,160.2 54.1,145.4       "/>
						<polygon class="st4" points="54.1,144.1 113.5,158.9 113.4,159.6 54.1,144.7       "/>
						<polygon class="st5" points="54.1,143.4 113.7,158.3 113.5,158.9 54.1,144.1       "/>
						<polygon class="st6" points="54.1,142.8 113.8,157.7 113.7,158.3 54.1,143.4       "/>
						<polygon class="st7" points="54.1,142.1 114,157.1 113.8,157.7 54.1,142.8       "/>
						<polygon class="st8" points="54.1,141.4 114.2,156.5 114,157.1 54.1,142.1       "/>
						<polygon class="st9" points="54.1,140.8 114.3,155.8 114.2,156.5 54.1,141.4       "/>
						<polygon class="st10" points="54.1,140.1 114.5,155.2 114.3,155.8 54.1,140.8       "/>
						<polygon class="st11" points="54.1,139.5 114.6,154.6 114.5,155.2 54.1,140.1       "/>
						<polygon class="st12" points="54.1,138.8 114.8,154 114.6,154.6 54.1,139.5       "/>
						<polygon class="st13" points="54.1,138.1 114.9,153.4 114.8,154 54.1,138.8       "/>
						<polygon class="st14" points="54.1,137.5 115.1,152.7 114.9,153.4 54.1,138.1       "/>
						<polygon class="st15" points="54.1,136.8 115.2,152.1 115.1,152.7 54.1,137.5       "/>
						<polygon class="st16" points="54.1,136.2 115.4,151.5 115.2,152.1 54.1,136.8       "/>
						<polygon class="st17" points="54.1,135.5 115.6,150.9 115.4,151.5 54.1,136.2       "/>
						<polygon class="st18" points="54.1,134.9 115.7,150.3 115.6,150.9 54.1,135.5       "/>
						<polygon class="st19" points="54.1,134.2 115.9,149.6 115.7,150.3 54.1,134.9       "/>
						<polygon points="54.1,133.5 116,149 115.9,149.6 54.1,134.2       "/>
						<polygon class="st20" points="54.1,132.9 116.2,148.4 116,149 54.1,133.5       "/>
						<polygon class="st21" points="54.1,132.2 116.3,147.8 116.2,148.4 54.1,132.9       "/>
						<polygon class="st22" points="54.1,131.6 116.5,147.2 116.3,147.8 54.1,132.2       "/>
						<polygon class="st23" points="54.1,130.9 116.6,146.6 116.5,147.2 54.1,131.6       "/>
						<polygon class="st24" points="54.1,130.2 116.8,145.9 116.6,146.6 54.1,130.9       "/>
						<polygon class="st25" points="54.1,129.6 116.9,145.3 116.8,145.9 54.1,130.2       "/>
						<polygon class="st26" points="54.1,128.9 117.1,144.7 116.9,145.3 54.1,129.6       "/>
						<polygon class="st27" points="54.1,128.3 117.2,144.1 117.1,144.7 54.1,128.9       "/>
						<polygon class="st28" points="54.1,127.6 117.4,143.5 117.2,144.1 54.1,128.3       "/>
						<polygon class="st29" points="54.1,127 117.6,142.8 117.4,143.5 54.1,127.6       "/>
						<polygon class="st30" points="54.1,126.3 117.7,142.2 117.6,142.8 54.1,127       "/>
						<polygon class="st31" points="54.1,125.7 117.9,141.6 117.7,142.2 54.1,126.3       "/>
						<polygon class="st32" points="54.1,125 118,141 117.9,141.6 54.1,125.7       "/>
						<polygon class="st33" points="54.1,124.3 118.2,140.4 118,141 54.1,125       "/>
						<polygon class="st34" points="54.1,123.7 118.3,139.7 118.2,140.4 54.1,124.3       "/>
						<polygon class="st35" points="54.1,123 118.5,139.1 118.3,139.7 54.1,123.7       "/>
						<polygon class="st36" points="54.1,122.4 118.7,138.5 118.5,139.1 54.1,123       "/>
						<polygon class="st37" points="54.1,121.7 118.8,137.9 118.7,138.5 54.1,122.4       "/>
						<polygon class="st38" points="54.1,121 119,137.3 118.8,137.9 54.1,121.7       "/>
						<polygon class="st39" points="54.1,120.4 119.1,136.6 119,137.3 54.1,121       "/>
						<polygon class="st40" points="54.1,119.7 119.3,136 119.1,136.6 54.1,120.4       "/>
						<polygon class="st41" points="54.1,119.1 119.4,135.4 119.3,136 54.1,119.7       "/>
						<polygon class="st42" points="54.1,118.4 119.6,134.8 119.4,135.4 54.1,119.1       "/>
						<polygon class="st43" points="54.1,117.8 119.7,134.2 119.6,134.8 54.1,118.4       "/>
						<polygon class="st44" points="54.1,117.1 119.9,133.6 119.7,134.2 54.1,117.8       "/>
						<polygon class="st45" points="54.1,116.4 120,132.9 119.9,133.6 54.1,117.1       "/>
						<polygon class="st46" points="54.1,115.8 120.2,132.3 120,132.9 54.1,116.4       "/>
						<polygon class="st47" points="54.1,115.1 120.2,131.7 120.2,132.1 120.2,132.3 54.1,115.8       "/>
						<polygon class="st48" points="54.1,114.5 120.2,131 120.2,131.7 54.1,115.1       "/>
						<polygon class="st49" points="54.1,113.8 120.2,130.4 120.2,131 54.1,114.5       "/>
						<polygon class="st50" points="54.1,113.2 120.2,129.7 120.2,130.4 54.1,113.8       "/>
						<polygon class="st51" points="54.1,112.5 120.2,129 120.2,129.7 54.1,113.2       "/>
						<polygon class="st52" points="54.1,111.8 120.2,128.4 120.2,129 54.1,112.5       "/>
						<polygon class="st53" points="54.1,111.2 120.2,127.7 120.2,128.4 54.1,111.8       "/>
						<polygon class="st54" points="54.1,110.5 120.2,127.1 120.2,127.7 54.1,111.2       "/>
						<polygon class="st55" points="54.1,109.9 120.2,126.4 120.2,127.1 54.1,110.5       "/>
						<polygon class="st56" points="54.1,109.2 120.2,125.8 120.2,126.4 54.1,109.9       "/>
						<polygon points="54.1,108.6 120.2,125.1 120.2,125.8 54.1,109.2       "/>
						<polygon class="st57" points="54.1,107.9 120.2,124.4 120.2,125.1 54.1,108.6       "/>
						<polygon class="st58" points="54.1,107.2 120.2,123.8 120.2,124.4 54.1,107.9       "/>
						<polygon class="st59" points="54.1,106.6 120.2,123.1 120.2,123.8 54.1,107.2       "/>
						<polygon class="st60" points="54.1,105.9 120.2,122.5 120.2,123.1 54.1,106.6       "/>
						<polygon class="st61" points="54.1,105.3 120.2,121.8 120.2,122.5 54.1,105.9       "/>
						<polygon class="st62" points="54.1,104.6 120.2,121.2 120.2,121.8 54.1,105.3       "/>
						<polygon class="st63" points="54.1,103.9 120.2,120.5 120.2,121.2 54.1,104.6       "/>
						<polygon class="st64" points="54.1,103.3 120.2,119.8 120.2,120.5 54.1,103.9       "/>
						<polygon class="st65" points="54.1,102.6 120.2,119.2 120.2,119.8 54.1,103.3       "/>
						<polygon class="st66" points="54.1,102 120.2,118.5 120.2,119.2 54.1,102.6       "/>
						<polygon class="st67" points="54.1,101.3 120.2,117.9 120.2,118.5 54.1,102       "/>
						<polygon class="st68" points="54.1,100.7 120.2,117.2 120.2,117.9 54.1,101.3       "/>
						<polygon class="st69" points="54.1,100 120.2,116.5 120.2,117.2 54.1,100.7       "/>
						<polygon class="st70" points="54.1,99.3 120.2,115.9 120.2,116.5 54.1,100       "/>
						<polygon class="st71" points="54.1,98.7 120.2,115.2 120.2,115.9 54.1,99.3       "/>
						<polygon class="st72" points="54.1,98 120.2,114.6 120.2,115.2 54.1,98.7       "/>
						<polygon class="st73" points="54.1,97.4 120.2,113.9 120.2,114.6 54.1,98       "/>
						<polygon class="st74" points="54.1,96.7 120.2,113.2 120.2,113.9 54.1,97.4       "/>
						<polygon class="st75" points="54.1,96.1 120.2,112.6 120.2,113.2 54.1,96.7       "/>
						<polygon class="st76" points="54.1,95.4 120.2,111.9 120.2,112.6 54.1,96.1       "/>
						<polygon class="st77" points="54.1,94.9 54.1,94.8 120.2,111.3 120.2,111.9 54.1,95.4       "/>
						<polygon class="st78" points="54.1,94.8 54.3,94.1 120.2,110.6 120.2,111.3       "/>
						<polygon class="st79" points="54.3,94.1 54.4,93.5 120.2,110 120.2,110.6       "/>
						<polygon class="st80" points="54.4,93.5 54.6,92.9 120.2,109.3 120.2,110       "/>
						<polygon class="st81" points="54.6,92.9 54.7,92.3 120.2,108.7 120.2,109.3       "/>
						<polygon class="st82" points="54.7,92.3 54.9,91.7 120.2,108 120.2,108.7       "/>
						<polygon points="54.9,91.7 55,91 120.2,107.3 120.2,108       "/>
						<polygon class="st83" points="55,91 55.2,90.4 120.2,106.7 120.2,107.3       "/>
						<polygon class="st84" points="55.2,90.4 55.3,89.8 120.2,106 120.2,106.7       "/>
						<polygon class="st85" points="55.3,89.8 55.5,89.2 120.2,105.4 120.2,106       "/>
						<polygon class="st86" points="55.5,89.2 55.7,88.6 120.2,104.7 120.2,105.4       "/>
						<polygon class="st87" points="55.7,88.6 55.8,87.9 120.2,104.1 120.2,104.7       "/>
						<polygon class="st88" points="55.8,87.9 56,87.3 120.2,103.4 120.2,104.1       "/>
						<polygon class="st89" points="56,87.3 56.1,86.7 120.2,102.7 120.2,103.4       "/>
						<polygon class="st90" points="56.1,86.7 56.3,86.1 120.2,102.1 120.2,102.7       "/>
						<polygon class="st91" points="56.3,86.1 56.4,85.5 120.2,101.4 120.2,102.1       "/>
						<polygon class="st92" points="56.4,85.5 56.6,84.8 120.2,100.8 120.2,101.4       "/>
						<polygon class="st93" points="56.6,84.8 56.7,84.2 120.2,100.1 120.2,100.8       "/>
						<polygon class="st94" points="56.7,84.2 56.9,83.6 120.2,99.4 120.2,100.1       "/>
						<polygon class="st95" points="56.9,83.6 57,83 120.2,98.8 120.2,99.4       "/>
						<polygon class="st96" points="57,83 57.2,82.4 120.2,98.1 120.2,98.8       "/>
						<polygon points="57.2,82.4 57.2,82.2 59.2,82.2 120.2,97.5 120.2,98.1       "/>
						<polygon class="st97" points="61.9,82.2 120.2,96.8 120.2,97.5 59.2,82.2       "/>
						<polygon class="st98" points="64.5,82.2 120.2,96.2 120.2,96.8 61.9,82.2       "/>
						<polygon class="st99" points="67.1,82.2 120.2,95.5 120.2,96.2 64.5,82.2       "/>
						<polygon class="st100" points="69.8,82.2 120.2,94.8 120.2,95.5 67.1,82.2       "/>
						<polygon class="st100" points="120.2,94.8 69.8,82.2 120.2,82.2       "/>
						<polygon class="st56" points="84.2,116.7 85.6,117.1 84.2,117.1       "/>
						<polygon points="84.2,116.1 88.3,117.1 85.6,117.1 84.2,116.7       "/>
						<polygon class="st57" points="84.2,115.4 90.9,117.1 88.3,117.1 84.2,116.1       "/>
						<polygon class="st58" points="84.2,114.8 93.5,117.1 90.9,117.1 84.2,115.4       "/>
						<polygon class="st59" points="84.2,114.1 96.2,117.1 93.5,117.1 84.2,114.8       "/>
						<polygon class="st60" points="84.2,113.4 98.8,117.1 96.2,117.1 84.2,114.1       "/>
						<polygon class="st61" points="84.2,112.8 101.4,117.1 98.8,117.1 84.2,113.4       "/>
						<polygon class="st62" points="84.2,112.1 104,117.1 101.4,117.1 84.2,112.8       "/>
						<polygon class="st63" points="84.2,111.5 106.7,117.1 104,117.1 84.2,112.1       "/>
						<polygon class="st64" points="84.2,110.8 109.3,117.1 106.7,117.1 84.2,111.5       "/>
						<polygon class="st65" points="84.2,110.2 111.9,117.1 109.3,117.1 84.2,110.8       "/>
						<polygon class="st66" points="84.2,109.5 114.6,117.1 111.9,117.1 84.2,110.2       "/>
						<polygon class="st67" points="84.2,108.8 117.2,117.1 114.6,117.1 84.2,109.5       "/>
						<polygon class="st68" points="84.2,108.2 119.8,117.1 117.2,117.1 84.2,108.8       "/>
						<polygon class="st69" points="84.2,107.5 122.5,117.1 119.8,117.1 84.2,108.2       "/>
						<polygon class="st70" points="84.2,106.9 125.1,117.1 122.5,117.1 84.2,107.5       "/>
						<polygon class="st71" points="84.2,106.2 127.7,117.1 125.1,117.1 84.2,106.9       "/>
						<polygon class="st72" points="84.2,105.6 130.4,117.1 127.7,117.1 84.2,106.2       "/>
						<polygon class="st73" points="84.2,104.9 133,117.1 130.4,117.1 84.2,105.6       "/>
						<polygon class="st74" points="84.2,104.2 135.6,117.1 133,117.1 84.2,104.9       "/>
						<polygon class="st75" points="84.2,103.6 138.2,117.1 135.6,117.1 84.2,104.2       "/>
						<polygon class="st76" points="84.2,102.9 140.9,117.1 138.2,117.1 84.2,103.6       "/>
						<polygon class="st77" points="84.2,102.3 143.5,117.1 140.9,117.1 84.2,102.9       "/>
						<polygon class="st78" points="84.2,101.6 146.1,117.1 143.5,117.1 84.2,102.3       "/>
						<polygon class="st79" points="84.2,101 148.8,117.1 146.1,117.1 84.2,101.6       "/>
						<polygon class="st80" points="84.2,100.3 151.4,117.1 148.8,117.1 84.2,101       "/>
						<polygon class="st81" points="84.2,99.6 154,117.1 151.4,117.1 84.2,100.3       "/>
						<polygon class="st82" points="84.2,99 156.7,117.1 154,117.1 84.2,99.6       "/>
						<polygon points="84.2,98.3 158.8,117 158.8,117.1 156.7,117.1 84.2,99       "/>
						<polygon class="st83" points="84.2,97.7 158.9,116.3 158.8,117 84.2,98.3       "/>
						<polygon class="st84" points="84.2,97 159.1,115.7 158.9,116.3 84.2,97.7       "/>
						<polygon class="st85" points="84.2,96.3 159.2,115.1 159.1,115.7 84.2,97       "/>
						<polygon class="st86" points="84.2,95.7 159.4,114.5 159.2,115.1 84.2,96.3       "/>
						<polygon class="st87" points="84.2,95 159.6,113.9 159.4,114.5 84.2,95.7       "/>
						<polygon class="st88" points="84.2,94.4 159.7,113.2 159.6,113.9 84.2,95       "/>
						<polygon class="st89" points="84.2,93.7 159.9,112.6 159.7,113.2 84.2,94.4       "/>
						<polygon class="st90" points="84.2,93.1 160,112 159.9,112.6 84.2,93.7       "/>
						<polygon class="st91" points="84.2,92.4 160.2,111.4 160,112 84.2,93.1       "/>
						<polygon class="st92" points="84.2,91.8 160.3,110.8 160.2,111.4 84.2,92.4       "/>
						<polygon class="st93" points="84.2,91.1 160.5,110.2 160.3,110.8 84.2,91.8       "/>
						<polygon class="st94" points="84.2,90.4 160.6,109.5 160.5,110.2 84.2,91.1       "/>
						<polygon class="st95" points="84.2,89.8 160.8,108.9 160.6,109.5 84.2,90.4       "/>
						<polygon class="st96" points="84.2,89.1 160.9,108.3 160.8,108.9 84.2,89.8       "/>
						<polygon points="84.2,88.5 161.1,107.7 160.9,108.3 84.2,89.1       "/>
						<polygon class="st97" points="84.2,87.8 161.2,107.1 161.1,107.7 84.2,88.5       "/>
						<polygon class="st98" points="84.2,87.1 161.4,106.4 161.2,107.1 84.2,87.8       "/>
						<polygon class="st99" points="84.2,86.5 161.6,105.8 161.4,106.4 84.2,87.1       "/>
						<polygon class="st100" points="84.2,85.8 161.7,105.2 161.6,105.8 84.2,86.5       "/>
						<polygon class="st100" points="84.2,60.3 86.5,51 168,51 168,80.1 161.7,105.2 84.2,85.8       "/>
						<polygon class="st131" points="45.6,173.5 193.5,210.5 45.6,210.5       "/>
						<polygon class="st131" points="45.6,172.9 194.6,210.1 194.5,210.5 193.5,210.5 45.6,173.5       "/>
						<polygon class="st132" points="45.6,172.2 194.7,209.5 194.6,210.1 45.6,172.9       "/>
						<polygon class="st133" points="45.6,171.5 194.9,208.9 194.7,209.5 45.6,172.2       "/>
						<polygon class="st134" points="45.6,170.9 195.1,208.2 194.9,208.9 45.6,171.5       "/>
						<polygon class="st135" points="45.6,170.2 195.2,207.6 195.1,208.2 45.6,170.9       "/>
						<polygon class="st136" points="45.6,169.6 195.4,207 195.2,207.6 45.6,170.2       "/>
						<polygon class="st137" points="45.6,168.9 195.5,206.4 195.4,207 45.6,169.6       "/>
						<polygon class="st138" points="45.6,168.2 195.7,205.8 195.5,206.4 45.6,168.9       "/>
						<polygon class="st139" points="45.6,167.6 195.8,205.2 195.7,205.8 45.6,168.2       "/>
						<polygon class="st140" points="45.6,166.9 196,204.5 195.8,205.2 45.6,167.6       "/>
						<polygon class="st141" points="45.6,166.3 196.1,203.9 196,204.5 45.6,166.9       "/>
						<polygon class="st142" points="45.6,165.6 196.3,203.3 196.1,203.9 45.6,166.3       "/>
						<polygon class="st143" points="45.6,165 196.4,202.7 196.3,203.3 45.6,165.6       "/>
						<polygon class="st101" points="45.6,164.3 196.6,202.1 196.4,202.7 45.6,165       "/>
						<polygon class="st102" points="45.6,163.6 196.8,201.4 196.6,202.1 45.6,164.3       "/>
						<polygon class="st103" points="45.6,163 196.9,200.8 196.8,201.4 45.6,163.6       "/>
						<polygon class="st104" points="45.6,162.3 197.1,200.2 196.9,200.8 45.6,163       "/>
						<polygon class="st105" points="45.6,161.7 197.2,199.6 197.1,200.2 45.6,162.3       "/>
						<polygon class="st106" points="45.6,161 197.4,199 197.2,199.6 45.6,161.7       "/>
						<polygon class="st107" points="45.6,160.4 197.5,198.4 197.4,199 45.6,161       "/>
						<polygon class="st108" points="45.6,159.7 197.7,197.7 197.5,198.4 45.6,160.4       "/>
						<polygon class="st109" points="45.6,159 197.8,197.1 197.7,197.7 45.6,159.7       "/>
						<polygon class="st110" points="45.6,158.4 198,196.5 197.8,197.1 45.6,159       "/>
						<polygon class="st111" points="45.6,157.7 198.1,195.9 198,196.5 45.6,158.4       "/>
						<polygon class="st112" points="45.6,157.1 198.3,195.2 198.1,195.9 45.6,157.7       "/>
						<polygon class="st113" points="45.6,156.4 198.5,194.6 198.3,195.2 45.6,157.1       "/>
						<polygon class="st114" points="45.6,155.8 198.6,194 198.5,194.6 45.6,156.4       "/>
						<polygon class="st115" points="45.6,155.1 198.8,193.4 198.6,194 45.6,155.8       "/>
						<polygon class="st116" points="45.6,154.4 198.9,192.8 198.8,193.4 45.6,155.1       "/>
						<polygon class="st117" points="45.6,153.8 199.1,192.2 198.9,192.8 45.6,154.4       "/>
						<polygon class="st118" points="45.6,153.1 199.2,191.5 199.1,192.2 45.6,153.8       "/>
						<polygon class="st119" points="45.6,152.5 199.4,190.9 199.2,191.5 45.6,153.1       "/>
						<polygon class="st120" points="45.6,151.8 199.5,190.3 199.4,190.9 45.6,152.5       "/>
						<polygon class="st121" points="45.6,151.1 199.7,189.7 199.5,190.3 45.6,151.8       "/>
						<polygon points="45.6,150.5 199.9,189.1 199.7,189.7 45.6,151.1       "/>
						<polygon class="st122" points="45.6,149.8 200,188.4 200,190.1 45.7,151.5       "/>
						<polygon class="st123" points="45.6,149.2 200.2,187.8 200,188.4 45.6,149.8       "/>
						<polygon class="st124" points="45.6,148.5 200.3,187.2 200.2,187.8 45.6,149.2       "/>
						<polygon class="st125" points="45.6,147.9 200.5,186.6 200.3,187.2 45.6,148.5       "/>
						<polygon class="st126" points="45.6,147.2 200.6,186 200.5,186.6 45.6,147.9       "/>
						<polygon class="st127" points="45.6,146.6 200.8,185.4 200.6,186 45.6,147.2       "/>
						<polygon class="st128" points="45.6,145.9 200.9,184.7 200.8,185.4 45.6,146.6       "/>
						<polygon class="st129" points="45.5,144.8 201.1,183.7 200.9,184.7 45.6,145.9       "/>
						<polygon points="45.6,144.6 201.2,183.5 201.1,184.1 45.6,145.2       "/>
						<polygon class="st130" points="45.6,143.9 201.4,182.9 201.2,184.1 45.5,145.2       "/>
						<polygon class="st2" points="45.6,143.3 201.6,182.2 201.4,182.9 45.6,143.9       "/>
						<polygon class="st3" points="45.6,142.6 201.7,181.6 201.6,182.2 45.6,143.3       "/>
						<polygon class="st4" points="45.6,141.9 201.9,181 201.7,181.6 45.6,142.6       "/>
						<polygon class="st5" points="45.6,141.3 202,180.4 201.9,181 45.6,141.9       "/>
						<polygon class="st6" points="45.6,140.6 202.2,179.8 202,180.4 45.6,141.3       "/>
						<polygon class="st7" points="45.6,140 202.3,179.2 202.2,179.8 45.6,140.6       "/>
						<polygon class="st8" points="45.6,139.3 202.5,178.5 202.3,179.2 45.6,140       "/>
						<polygon class="st9" points="45.6,138.6 202.6,177.9 202.5,178.5 45.6,139.3       "/>
						<polygon class="st10" points="45.6,138 202.8,177.3 202.6,177.9 45.6,138.6       "/>
						<polygon class="st11" points="45.6,137.3 202.9,176.7 202.8,177.3 45.6,138       "/>
						<polygon class="st12" points="45.6,136.7 203.1,176.1 202.9,176.7 45.6,137.3       "/>
						<polygon class="st13" points="45.6,136 203.3,175.4 203.1,176.1 45.6,136.7       "/>
						<polygon class="st14" points="45.6,135.4 203.4,174.8 203.3,175.4 45.6,136       "/>
						<polygon class="st15" points="45.6,134.7 203.6,174.2 203.4,174.8 45.6,135.4       "/>
						<polygon class="st16" points="45.6,134.1 203.7,173.6 203.6,174.2 45.6,134.7       "/>
						<polygon class="st17" points="45.6,133.4 203.9,173 203.7,173.6 45.6,134.1       "/>
						<polygon class="st18" points="45.6,132.7 204,172.4 203.9,173 45.6,133.4       "/>
						<polygon class="st19" points="45.6,132.1 204.2,171.7 204,172.4 45.6,132.7       "/>
						<polygon points="45.6,131.4 204.3,171.1 204.2,171.7 45.6,132.1       "/>
						<polygon class="st20" points="45.9,130.6 204.8,170.3 204.2,172.1 45.4,132.4       "/>
						<polygon class="st21" points="45.6,130.1 204.6,169.9 204.5,170.5 45.6,130.8       "/>
						<polygon class="st22" points="45.6,129.4 204.8,169.2 204.6,169.9 45.6,130.1       "/>
						<polygon class="st23" points="45.6,128.8 205,168.6 204.8,169.2 45.6,129.4       "/>
						<polygon class="st24" points="45.6,128.1 205.1,168 205,168.6 45.6,128.8       "/>
						<polygon class="st25" points="45.6,127.5 205.3,167.4 205.1,168 45.6,128.1       "/>
						<polygon class="st26" points="45.6,126.8 205.4,166.8 205.3,167.4 45.6,127.5       "/>
						<polygon class="st27" points="45.6,126.2 205.6,166.2 205.4,166.8 45.6,126.8       "/>
						<polygon class="st28" points="45.6,125.5 205.7,165.5 205.6,166.2 45.6,126.2       "/>
						<polygon class="st29" points="45.6,124.8 205.9,164.9 205.7,165.5 45.6,125.5       "/>
						<polygon class="st30" points="45.6,124.2 206,164.3 205.9,164.9 45.6,124.8       "/>
						<polygon class="st31" points="45.6,123.5 206.2,163.7 206,164.3 45.6,124.2       "/>
						<polygon class="st32" points="45.6,122.9 206.4,163.1 206.2,163.7 45.6,123.5       "/>
						<polygon class="st33" points="45.6,122.2 206.5,162.4 206.4,163.1 45.6,122.9       "/>
						<polygon class="st34" points="45.6,121.6 206.7,161.8 206.5,162.4 45.6,122.2       "/>
						<polygon class="st35" points="45.6,120.9 206.8,161.2 206.8,161.3 206.7,161.8 45.6,121.6       "/>
						<polygon class="st36" points="45.6,120.2 206.8,160.5 206.8,161.2 45.6,120.9       "/>
						<polygon class="st37" points="45.6,119.6 206.8,159.9 206.8,160.5 45.6,120.2       "/>
						<polygon class="st38" points="45.6,118.9 206.8,159.2 206.8,159.9 45.6,119.6       "/>
						<polygon class="st39" points="45.6,118.3 206.8,158.6 206.8,159.2 45.6,118.9       "/>
						<polygon class="st40" points="45.6,117.6 206.8,157.9 206.8,158.6 45.6,118.3       "/>
						<polygon class="st41" points="45.6,116.9 206.8,157.3 206.8,157.9 45.6,117.6       "/>
						<polygon class="st42" points="45.6,116.3 206.8,156.6 206.8,157.3 45.6,116.9       "/>
						<polygon class="st43" points="45.6,115.6 206.8,155.9 206.8,156.6 45.6,116.3       "/>
						<polygon class="st44" points="45.6,115 206.8,155.3 206.8,155.9 45.6,115.6       "/>
						<polygon class="st45" points="45.6,114.3 206.8,154.6 206.8,155.3 45.6,115       "/>
						<polygon class="st46" points="45.6,113.7 206.8,154 206.8,154.6 45.6,114.3       "/>
						<polygon class="st47" points="45.6,113 206.8,153.3 206.8,154 45.6,113.7       "/>
						<polygon class="st48" points="45.6,112.3 206.8,152.6 206.8,153.3 45.6,113       "/>
						<polygon class="st49" points="45.6,111.7 206.8,152 206.8,152.6 45.6,112.3       "/>
						<polygon class="st50" points="45.6,111 206.8,151.3 206.8,152 45.6,111.7       "/>
						<polygon class="st51" points="45.6,110.4 206.8,150.7 206.8,151.3 45.6,111       "/>
						<polygon class="st52" points="45.6,109.7 206.8,150 206.8,150.7 45.6,110.4       "/>
						<polygon class="st53" points="45.6,109.1 206.8,149.4 206.8,150 45.6,109.7       "/>
						<polygon class="st54" points="45.6,108.4 206.8,148.7 206.8,149.4 45.6,109.1       "/>
						<polygon class="st55" points="45.6,107.7 206.8,148.1 206.8,148.7 45.6,108.4       "/>
						<polygon class="st56" points="45.6,107.1 206.8,147.4 206.8,148.1 45.6,107.7       "/>
						<polygon points="45.6,106.4 206.8,146.7 206.8,147.4 45.6,107.1       "/>
						<polygon class="st57" points="45.6,105.8 206.8,146.1 206.4,147.8 45.2,107.5       "/>
						<polygon class="st58" points="45.6,105.1 206.8,145.4 206.8,146.1 45.6,105.8       "/>
						<polygon class="st59" points="45.6,104.4 206.8,144.8 206.8,145.4 45.6,105.1       "/>
						<polygon class="st60" points="45.6,103.8 206.8,144.1 206.8,144.8 45.6,104.4       "/>
						<polygon class="st61" points="45.6,103.1 206.8,143.4 206.8,144.1 45.6,103.8       "/>
						<polygon class="st62" points="45.6,102.5 206.8,142.8 206.8,143.4 45.6,103.1       "/>
						<polygon class="st63" points="45.6,101.8 206.8,142.1 206.8,142.8 45.6,102.5       "/>
						<polygon class="st64" points="45.6,101.2 206.8,141.5 206.8,142.1 45.6,101.8       "/>
						<polygon class="st65" points="45.6,100.5 206.8,140.8 206.8,141.5 45.6,101.2       "/>
						<polygon class="st66" points="45.6,99.8 206.8,140.2 206.8,140.8 45.6,100.5       "/>
						<polygon class="st67" points="45.6,99.2 206.8,139.5 206.8,140.2 45.6,99.8       "/>
						<polygon class="st68" points="45.6,98.5 206.8,138.8 206.8,139.5 45.6,99.2       "/>
						<polygon class="st69" points="45.6,97.9 206.8,138.2 206.8,138.8 45.6,98.5       "/>
						<polygon class="st70" points="45.6,97.2 206.8,137.5 206.8,138.2 45.6,97.9       "/>
						<polygon class="st71" points="45.6,96.6 206.8,136.9 206.8,137.5 45.6,97.2       "/>
						<polygon class="st72" points="45.6,95.9 206.8,136.2 206.8,136.9 45.6,96.6       "/>
						<polygon class="st73" points="45.6,95.2 206.8,135.6 206.8,136.2 45.6,95.9       "/>
						<polygon class="st74" points="45.6,94.6 206.8,134.9 206.8,135.6 45.6,95.2       "/>
						<polygon class="st75" points="45.6,93.9 206.8,134.2 206.8,134.9 45.6,94.6       "/>
						<polygon class="st76" points="45.6,93.3 206.8,133.6 206.8,134.2 45.6,93.9       "/>
						<polygon class="st77" points="45.6,92.6 206.8,132.9 206.8,133.6 45.6,93.3       "/>
						<polygon class="st78" points="45.6,92 206.8,132.3 206.8,132.9 45.6,92.6       "/>
						<polygon class="st79" points="45.6,91.3 206.8,131.6 206.8,132.3 45.6,92       "/>
						<polygon class="st80" points="45.6,90.6 206.8,130.9 206.8,131.6 45.6,91.3       "/>
						<polygon class="st81" points="45.6,90 206.8,130.3 206.8,130.9 45.6,90.6       "/>
						<polygon class="st82" points="45.6,89.3 206.8,129.6 206.8,130.3 45.6,90       "/>
						<polygon points="45.6,88.7 206.8,129 206.8,129.6 45.6,89.3       "/>
						<polygon class="st83" points="45.6,88.7 45.7,88.1 206.8,128.3 207.3,130.4 46,90.1       "/>
						<polygon class="st84" points="45.7,88.1 45.9,87.4 206.8,127.7 206.8,128.3       "/>
						<polygon class="st85" points="45.9,87.4 46,86.8 206.8,127 206.8,127.7       "/>
						<polygon class="st86" points="46,86.8 46.2,86.2 206.8,126.3 206.8,127       "/>
						<polygon class="st87" points="46.2,86.2 46.3,85.6 206.8,125.7 206.8,126.3       "/>
						<polygon class="st88" points="46.3,85.6 46.5,84.9 206.8,125 206.8,125.7       "/>
						<polygon class="st89" points="46.5,84.9 46.7,84.3 206.8,124.4 206.8,125       "/>
						<polygon class="st90" points="46.7,84.3 46.8,83.7 206.8,123.7 206.8,124.4       "/>
						<polygon class="st91" points="46.8,83.7 47,83.1 206.8,123.1 206.8,123.7       "/>
						<polygon class="st92" points="47,83.1 47.1,82.5 206.8,122.4 206.8,123.1       "/>
						<polygon class="st93" points="47.1,82.5 47.3,81.9 206.8,121.7 206.8,122.4       "/>
						<polygon class="st94" points="47.3,81.9 47.4,81.2 206.8,121.1 206.8,121.7       "/>
						<polygon class="st95" points="47.4,81.2 47.6,80.6 206.8,120.4 206.8,121.1       "/>
						<polygon class="st96" points="47.6,80.6 47.7,80 206.8,119.8 206.8,120.4       "/>
						<polygon points="47.7,80 47.9,79.4 206.8,119.1 206.8,119.8       "/>
						<polygon class="st97" points="47.8,80 48,79.4 206.7,119 206.7,119.7       "/>
						<polygon class="st97" points="47.8,80.2 48,79.5 206.7,119.2 206.7,119.9       "/>
						<polygon class="st98" points="47.9,79.5 48.2,78.2 206.8,117.8 206.6,119.2       "/>
						<polygon class="st99" points="48.2,78.2 48.4,77.5 206.8,117.1 206.8,117.8       "/>
						<polygon class="st100" points="48.4,77.5 48.5,76.9 206.8,116.5 206.8,117.1       "/>
						<polygon class="st100" points="48.5,76.9 56.7,44.2 206.8,44.2 206.8,116.5       "/>
					</g>
				</g>
				<g>
					<defs>
						<path id="SVGID_00000083066111637881156440000008417386278848639112_" d="M108.2,70.2c0,3-1.8,4.8-4.8,4.8        c-2.8,0-4.7-1.9-4.7-4.7c0-2.7,2.2-5.1,4.8-5S108.2,67.6,108.2,70.2L108.2,70.2z"/>
					</defs>
					<clipPath id="SVGID_00000093856060610316721640000004765700266007469188_">
						<use xlink:href="#SVGID_00000083066111637881156440000008417386278848639112_" style="overflow:visible;"/>
					</clipPath>
					<g style="clip-path:url(#SVGID_00000093856060610316721640000004765700266007469188_);">
						<rect x="98.8" y="65.2" class="st100" width="9.4" height="9.8"/>
					</g>
				</g>
				<g>
					<defs>
						<path id="SVGID_00000008146359272302996650000005984881425530125198_" d="M154.8,70.4c0,2.9-1.8,4.7-4.7,4.7        c-2.9,0-4.7-1.8-4.7-4.8c0-2.6,2.2-4.9,4.7-4.9C152.6,65.3,154.8,67.6,154.8,70.4L154.8,70.4z"/>
					</defs>
					<clipPath id="SVGID_00000087391314962323901040000009687762136961626499_">
						<use xlink:href="#SVGID_00000008146359272302996650000005984881425530125198_" style="overflow:visible;"/>
					</clipPath>
					<g style="clip-path:url(#SVGID_00000087391314962323901040000009687762136961626499_);">
						<rect x="145.4" y="65.3" class="st100" width="9.4" height="9.8"/>
					</g>
				</g>
				<g>
					<defs>
						<path id="SVGID_00000108273459031849692840000001246347889859483797_" d="M73.3,95.9c2.8,0,4.9,2,4.9,4.7        c0.1,2.6-2.1,4.7-4.8,4.8c-2.9,0-5.1-2.1-5-4.8C68.5,97.8,70.5,95.9,73.3,95.9z"/>
					</defs>
					<clipPath id="SVGID_00000082368944674030710440000001984261776415853736_">
						<use xlink:href="#SVGID_00000108273459031849692840000001246347889859483797_" style="overflow:visible;"/>
					</clipPath>
					<g style="clip-path:url(#SVGID_00000082368944674030710440000001984261776415853736_);">
						<polygon class="st67" points="68.3,105 69.6,105.3 68.3,105.3       "/>
						<polygon class="st68" points="68.3,104.4 72.2,105.3 69.6,105.3 68.3,105       "/>
						<polygon class="st69" points="68.3,103.7 74.8,105.3 72.2,105.3 68.3,104.4       "/>
						<polygon class="st70" points="68.3,103.1 77.4,105.3 74.8,105.3 68.3,103.7       "/>
						<polygon class="st71" points="68.3,102.4 78.2,104.9 78.2,105.3 77.4,105.3 68.3,103.1       "/>
						<polygon class="st72" points="68.3,101.8 78.2,104.2 78.2,104.9 68.3,102.4       "/>
						<polygon class="st73" points="68.3,101.1 78.2,103.6 78.2,104.2 68.3,101.8       "/>
						<polygon class="st74" points="68.3,100.4 78.2,102.9 78.2,103.6 68.3,101.1       "/>
						<polygon class="st75" points="68.3,99.8 78.2,102.3 78.2,102.9 68.3,100.4       "/>
						<polygon class="st76" points="68.3,99.1 78.2,101.6 78.2,102.3 68.3,99.8       "/>
						<polygon class="st77" points="68.3,98.5 78.2,100.9 78.2,101.6 68.3,99.1       "/>
						<polygon class="st78" points="68.3,97.8 78.2,100.3 78.2,100.9 68.3,98.5       "/>
						<polygon class="st79" points="68.3,97.2 78.2,99.6 78.2,100.3 68.3,97.8       "/>
						<polygon class="st80" points="68.3,96.5 78.2,99 78.2,99.6 68.3,97.2       "/>
						<polygon class="st81" points="68.7,95.9 78.2,98.3 78.2,99 68.3,96.5 68.3,95.9       "/>
						<polygon class="st82" points="71.3,95.9 78.2,97.7 78.2,98.3 68.7,95.9       "/>
						<polygon class="st82" points="73.9,95.9 78.2,97 78.2,97.7 71.3,95.9       "/>
						<polygon class="st83" points="76.5,95.9 78.2,96.3 78.2,97 73.9,95.9       "/>
						<polygon class="st84" points="78.2,96.3 76.5,95.9 78.2,95.9       "/>
					</g>
				</g>
				<g>
					<defs>
						<path id="SVGID_00000000201819868333630500000016573650654562345148_" d="M73.2,142.5c2.8,0,5,1.9,5,4.5        c0,2.7-2.2,4.9-4.9,4.9c-2.7,0-5.2-2.4-5.1-5C68.3,144.5,70.6,142.5,73.2,142.5L73.2,142.5z"/>
					</defs>
					<clipPath id="SVGID_00000088118205775328170460000009066631175909405847_">
						<use xlink:href="#SVGID_00000000201819868333630500000016573650654562345148_" style="overflow:visible;"/>
					</clipPath>
					<g style="clip-path:url(#SVGID_00000088118205775328170460000009066631175909405847_);">
						<polygon class="st128" points="68.2,151.6 69.4,151.9 68.2,151.9       "/>
						<polygon class="st129" points="68.2,151 72,151.9 69.4,151.9 68.2,151.6       "/>
						<polygon points="68.2,150.3 74.6,151.9 72,151.9 68.2,151       "/>
						<polygon class="st130" points="68.2,149.6 77.2,151.9 74.3,152.7 67.8,151.1       "/>
						<polygon class="st2" points="68.2,149 78.2,151.5 78.2,151.9 77.2,151.9 68.2,149.6       "/>
						<polygon class="st3" points="68.2,148.3 78.2,150.8 78.2,151.5 68.2,149       "/>
						<polygon class="st4" points="68.2,147.7 78.2,150.2 78.2,150.8 68.2,148.3       "/>
						<polygon class="st5" points="68.2,147 78.2,149.5 78.2,150.2 68.2,147.7       "/>
						<polygon class="st6" points="68.2,146.4 78.2,148.9 78.2,149.5 68.2,147       "/>
						<polygon class="st7" points="68.2,145.7 78.2,148.2 78.2,148.9 68.2,146.4       "/>
						<polygon class="st8" points="68.2,145.1 78.2,147.6 78.2,148.2 68.2,145.7       "/>
						<polygon class="st9" points="68.2,144.4 78.2,146.9 78.2,147.6 68.2,145.1       "/>
						<polygon class="st10" points="68.2,143.7 78.2,146.2 78.2,146.9 68.2,144.4       "/>
						<polygon class="st11" points="68.2,143.1 78.2,145.6 78.2,146.2 68.2,143.7       "/>
						<polygon class="st12" points="68.4,142.5 78.2,144.9 78.2,145.6 68.2,143.1 68.2,142.5       "/>
						<polygon class="st13" points="71,142.5 78.2,144.3 78.2,144.9 68.4,142.5       "/>
						<polygon class="st14" points="73.7,142.5 78.2,143.6 78.2,144.3 71,142.5       "/>
						<polygon class="st15" points="76.3,142.5 78.2,143 78.2,143.6 73.7,142.5       "/>
						<polygon class="st16" points="78.2,143 76.3,142.5 78.2,142.5       "/>
					</g>
				</g>
				<g>
					<defs>
						<path id="SVGID_00000082359592805548442500000004801414582710769852_" d="M180.4,105.3c-2.9,0-5.1-2.1-5-4.8        c0.1-2.7,2.2-4.7,4.9-4.7c2.6,0,5,2.2,5.1,4.6C185.5,103.1,183.2,105.3,180.4,105.3z"/>
					</defs>
					<clipPath id="SVGID_00000056401273273238477220000009284726007201035142_">
						<use xlink:href="#SVGID_00000082359592805548442500000004801414582710769852_" style="overflow:visible;"/>
					</clipPath>
					<g style="clip-path:url(#SVGID_00000056401273273238477220000009284726007201035142_);">
						<rect x="175.4" y="95.9" class="st100" width="10.1" height="9.4"/>
					</g>
				</g>
				<g>
					<defs>
						<path id="SVGID_00000173151645083489793320000017289561998123938443_" d="M180.4,151.9c-2.7,0-5-2.1-5-4.8        c0-2.5,2.1-4.6,4.7-4.6c2.9,0,5.3,2.1,5.2,4.5C185.2,149.8,183.2,151.9,180.4,151.9L180.4,151.9z"/>
					</defs>
					<clipPath id="SVGID_00000168080353592193003780000016611604251863946900_">
						<use xlink:href="#SVGID_00000173151645083489793320000017289561998123938443_" style="overflow:visible;"/>
					</clipPath>
					<g style="clip-path:url(#SVGID_00000168080353592193003780000016611604251863946900_);">
						<polygon class="st38" points="175.4,151.5 177.1,151.9 175.4,151.9       "/>
						<polygon class="st39" points="175.4,150.9 179.7,151.9 177.1,151.9 175.4,151.5       "/>
						<polygon class="st40" points="175.4,150.2 182.3,151.9 179.7,151.9 175.4,150.9       "/>
						<polygon class="st41" points="175.4,149.5 184.9,151.9 182.3,151.9 175.4,150.2       "/>
						<polygon class="st42" points="175.4,148.9 185.5,151.4 185.5,151.9 184.9,151.9 175.4,149.5       "/>
						<polygon class="st43" points="175.4,148.2 185.5,150.7 185.5,151.4 175.4,148.9       "/>
						<polygon class="st44" points="175.4,147.6 185.5,150.1 185.5,150.7 175.4,148.2       "/>
						<polygon class="st45" points="175.4,146.9 185.5,149.4 185.5,150.1 175.4,147.6       "/>
						<polygon class="st46" points="175.4,146.3 185.5,148.8 185.5,149.4 175.4,146.9       "/>
						<polygon class="st47" points="175.4,145.6 185.5,148.1 185.5,148.8 175.4,146.3       "/>
						<polygon class="st48" points="175.4,144.9 185.5,147.5 185.5,148.1 175.4,145.6       "/>
						<polygon class="st49" points="175.4,144.3 185.5,146.8 185.5,147.5 175.4,144.9       "/>
						<polygon class="st50" points="175.4,143.6 185.5,146.1 185.5,146.8 175.4,144.3       "/>
						<polygon class="st51" points="175.4,143 185.5,145.5 185.5,146.1 175.4,143.6       "/>
						<polygon class="st52" points="176.1,142.5 185.5,144.8 185.5,145.5 175.4,143 175.4,142.5       "/>
						<polygon class="st53" points="178.7,142.5 185.5,144.2 185.5,144.8 176.1,142.5       "/>
						<polygon class="st54" points="181.4,142.5 185.5,143.5 185.5,144.2 178.7,142.5       "/>
						<polygon class="st55" points="184,142.5 185.5,142.9 185.5,143.5 181.4,142.5       "/>
						<polygon class="st56" points="185.5,142.9 184,142.5 185.5,142.5       "/>
					</g>
				</g>
			</g>
		</g>
	</g>
</g>
</svg>