<svg xmlns="http://www.w3.org/2000/svg" xmlns:xlink="http://www.w3.org/1999/xlink" width="256" zoomAndPan="magnify" viewBox="0 0 192 191.999996" height="256" preserveAspectRatio="xMidYMid meet" version="1.0"><defs><g/><clipPath id="e52692d9b5"><path d="M 6.796875 6.796875 L 185.203125 6.796875 L 185.203125 185.203125 L 6.796875 185.203125 Z M 6.796875 6.796875 " clip-rule="nonzero"/></clipPath></defs><g clip-path="url(#e52692d9b5)"><path fill="#715caf" d="M 185.203125 96 C 185.203125 97.460938 185.167969 98.917969 185.09375 100.378906 C 185.023438 101.835938 184.917969 103.289062 184.773438 104.742188 C 184.628906 106.195312 184.453125 107.644531 184.238281 109.089844 C 184.023438 110.53125 183.773438 111.972656 183.488281 113.402344 C 183.203125 114.835938 182.882812 116.257812 182.527344 117.675781 C 182.175781 119.089844 181.785156 120.496094 181.363281 121.894531 C 180.9375 123.292969 180.480469 124.675781 179.988281 126.050781 C 179.496094 127.425781 178.972656 128.789062 178.414062 130.136719 C 177.855469 131.484375 177.261719 132.820312 176.636719 134.140625 C 176.015625 135.457031 175.359375 136.761719 174.667969 138.050781 C 173.980469 139.335938 173.261719 140.605469 172.511719 141.859375 C 171.761719 143.113281 170.980469 144.34375 170.167969 145.558594 C 169.359375 146.773438 168.519531 147.964844 167.648438 149.136719 C 166.777344 150.308594 165.878906 151.460938 164.953125 152.589844 C 164.027344 153.71875 163.074219 154.824219 162.09375 155.90625 C 161.113281 156.988281 160.109375 158.042969 159.074219 159.074219 C 158.042969 160.109375 156.988281 161.113281 155.90625 162.09375 C 154.824219 163.074219 153.71875 164.027344 152.589844 164.953125 C 151.460938 165.878906 150.308594 166.777344 149.136719 167.648438 C 147.964844 168.519531 146.773438 169.359375 145.558594 170.167969 C 144.34375 170.980469 143.113281 171.761719 141.859375 172.511719 C 140.605469 173.261719 139.335938 173.980469 138.050781 174.667969 C 136.761719 175.359375 135.457031 176.015625 134.140625 176.636719 C 132.820312 177.261719 131.484375 177.855469 130.136719 178.414062 C 128.789062 178.972656 127.425781 179.496094 126.050781 179.988281 C 124.675781 180.480469 123.292969 180.9375 121.894531 181.363281 C 120.496094 181.785156 119.089844 182.175781 117.675781 182.527344 C 116.257812 182.882812 114.835938 183.203125 113.402344 183.488281 C 111.972656 183.773438 110.53125 184.023438 109.089844 184.238281 C 107.644531 184.453125 106.195312 184.628906 104.742188 184.773438 C 103.289062 184.917969 101.835938 185.023438 100.378906 185.09375 C 98.917969 185.167969 97.460938 185.203125 96 185.203125 C 94.539062 185.203125 93.082031 185.167969 91.621094 185.09375 C 90.164062 185.023438 88.710938 184.917969 87.257812 184.773438 C 85.804688 184.628906 84.355469 184.453125 82.910156 184.238281 C 81.46875 184.023438 80.027344 183.773438 78.597656 183.488281 C 77.164062 183.203125 75.742188 182.882812 74.324219 182.527344 C 72.910156 182.175781 71.503906 181.785156 70.105469 181.363281 C 68.707031 180.9375 67.324219 180.480469 65.949219 179.988281 C 64.574219 179.496094 63.210938 178.972656 61.863281 178.414062 C 60.515625 177.855469 59.179688 177.261719 57.859375 176.636719 C 56.542969 176.015625 55.238281 175.359375 53.949219 174.667969 C 52.664062 173.980469 51.394531 173.261719 50.140625 172.511719 C 48.886719 171.761719 47.65625 170.980469 46.441406 170.167969 C 45.226562 169.359375 44.035156 168.519531 42.863281 167.648438 C 41.691406 166.777344 40.539062 165.878906 39.410156 164.953125 C 38.28125 164.027344 37.175781 163.074219 36.09375 162.09375 C 35.011719 161.113281 33.957031 160.109375 32.925781 159.074219 C 31.890625 158.042969 30.886719 156.988281 29.90625 155.90625 C 28.925781 154.824219 27.972656 153.71875 27.046875 152.589844 C 26.121094 151.460938 25.222656 150.308594 24.351562 149.136719 C 23.480469 147.964844 22.640625 146.773438 21.832031 145.558594 C 21.019531 144.34375 20.238281 143.113281 19.488281 141.859375 C 18.738281 140.605469 18.019531 139.335938 17.332031 138.050781 C 16.640625 136.761719 15.984375 135.457031 15.363281 134.140625 C 14.738281 132.820312 14.144531 131.484375 13.585938 130.136719 C 13.027344 128.789062 12.503906 127.425781 12.011719 126.050781 C 11.519531 124.675781 11.0625 123.292969 10.636719 121.894531 C 10.214844 120.496094 9.824219 119.089844 9.472656 117.675781 C 9.117188 116.257812 8.796875 114.835938 8.511719 113.402344 C 8.226562 111.972656 7.976562 110.53125 7.761719 109.089844 C 7.546875 107.644531 7.371094 106.195312 7.226562 104.742188 C 7.082031 103.289062 6.976562 101.835938 6.90625 100.378906 C 6.832031 98.917969 6.796875 97.460938 6.796875 96 C 6.796875 94.539062 6.832031 93.082031 6.90625 91.621094 C 6.976562 90.164062 7.082031 88.710938 7.226562 87.257812 C 7.371094 85.804688 7.546875 84.355469 7.761719 82.910156 C 7.976562 81.46875 8.226562 80.027344 8.511719 78.597656 C 8.796875 77.164062 9.117188 75.742188 9.472656 74.324219 C 9.824219 72.910156 10.214844 71.503906 10.636719 70.105469 C 11.0625 68.707031 11.519531 67.324219 12.011719 65.949219 C 12.503906 64.574219 13.027344 63.210938 13.585938 61.863281 C 14.144531 60.515625 14.738281 59.179688 15.363281 57.859375 C 15.984375 56.542969 16.640625 55.238281 17.332031 53.949219 C 18.019531 52.664062 18.738281 51.394531 19.488281 50.140625 C 20.238281 48.886719 21.019531 47.65625 21.832031 46.441406 C 22.640625 45.226562 23.480469 44.035156 24.351562 42.863281 C 25.222656 41.691406 26.121094 40.539062 27.046875 39.410156 C 27.972656 38.28125 28.925781 37.175781 29.90625 36.09375 C 30.886719 35.011719 31.890625 33.957031 32.925781 32.925781 C 33.957031 31.890625 35.011719 30.886719 36.09375 29.90625 C 37.175781 28.925781 38.28125 27.972656 39.410156 27.046875 C 40.539062 26.121094 41.691406 25.222656 42.863281 24.351562 C 44.035156 23.480469 45.226562 22.640625 46.441406 21.832031 C 47.65625 21.019531 48.886719 20.238281 50.140625 19.488281 C 51.394531 18.738281 52.664062 18.019531 53.949219 17.332031 C 55.238281 16.640625 56.542969 15.984375 57.859375 15.363281 C 59.179688 14.738281 60.515625 14.144531 61.863281 13.585938 C 63.210938 13.027344 64.574219 12.503906 65.949219 12.011719 C 67.324219 11.519531 68.707031 11.0625 70.105469 10.636719 C 71.503906 10.214844 72.910156 9.824219 74.324219 9.472656 C 75.742188 9.117188 77.164062 8.796875 78.597656 8.511719 C 80.027344 8.226562 81.46875 7.976562 82.910156 7.761719 C 84.355469 7.546875 85.804688 7.371094 87.257812 7.226562 C 88.710938 7.082031 90.164062 6.976562 91.621094 6.90625 C 93.082031 6.832031 94.539062 6.796875 96 6.796875 C 97.460938 6.796875 98.917969 6.832031 100.378906 6.90625 C 101.835938 6.976562 103.289062 7.082031 104.742188 7.226562 C 106.195312 7.371094 107.644531 7.546875 109.089844 7.761719 C 110.53125 7.976562 111.972656 8.226562 113.402344 8.511719 C 114.835938 8.796875 116.257812 9.117188 117.675781 9.472656 C 119.089844 9.824219 120.496094 10.214844 121.894531 10.636719 C 123.292969 11.0625 124.675781 11.519531 126.050781 12.011719 C 127.425781 12.503906 128.789062 13.027344 130.136719 13.585938 C 131.484375 14.144531 132.820312 14.738281 134.140625 15.363281 C 135.457031 15.984375 136.761719 16.640625 138.050781 17.332031 C 139.335938 18.019531 140.605469 18.738281 141.859375 19.488281 C 143.113281 20.238281 144.34375 21.019531 145.558594 21.832031 C 146.773438 22.640625 147.964844 23.480469 149.136719 24.351562 C 150.308594 25.222656 151.460938 26.121094 152.589844 27.046875 C 153.71875 27.972656 154.824219 28.925781 155.90625 29.90625 C 156.988281 30.886719 158.042969 31.890625 159.074219 32.925781 C 160.109375 33.957031 161.113281 35.011719 162.09375 36.09375 C 163.074219 37.175781 164.027344 38.28125 164.953125 39.410156 C 165.878906 40.539062 166.777344 41.691406 167.648438 42.863281 C 168.519531 44.035156 169.359375 45.226562 170.167969 46.441406 C 170.980469 47.65625 171.761719 48.886719 172.511719 50.140625 C 173.261719 51.394531 173.980469 52.664062 174.667969 53.949219 C 175.359375 55.238281 176.015625 56.542969 176.636719 57.859375 C 177.261719 59.179688 177.855469 60.515625 178.414062 61.863281 C 178.972656 63.210938 179.496094 64.574219 179.988281 65.949219 C 180.480469 67.324219 180.9375 68.707031 181.363281 70.105469 C 181.785156 71.503906 182.175781 72.910156 182.527344 74.324219 C 182.882812 75.742188 183.203125 77.164062 183.488281 78.597656 C 183.773438 80.027344 184.023438 81.46875 184.238281 82.910156 C 184.453125 84.355469 184.628906 85.804688 184.773438 87.257812 C 184.917969 88.710938 185.023438 90.164062 185.09375 91.621094 C 185.167969 93.082031 185.203125 94.539062 185.203125 96 Z M 185.203125 96 " fill-opacity="1" fill-rule="nonzero"/></g><path fill="#8e7cbf" d="M 180.03125 96 C 180.03125 97.375 179.996094 98.75 179.929688 100.125 C 179.863281 101.496094 179.761719 102.867188 179.625 104.238281 C 179.492188 105.605469 179.324219 106.96875 179.121094 108.328125 C 178.921875 109.691406 178.683594 111.042969 178.417969 112.394531 C 178.148438 113.742188 177.847656 115.082031 177.511719 116.417969 C 177.179688 117.753906 176.8125 119.078125 176.414062 120.394531 C 176.015625 121.710938 175.582031 123.015625 175.121094 124.308594 C 174.65625 125.605469 174.160156 126.886719 173.636719 128.15625 C 173.109375 129.429688 172.550781 130.683594 171.964844 131.929688 C 171.375 133.171875 170.757812 134.398438 170.109375 135.613281 C 169.460938 136.824219 168.78125 138.019531 168.074219 139.199219 C 167.367188 140.378906 166.632812 141.542969 165.871094 142.683594 C 165.105469 143.828125 164.3125 144.953125 163.496094 146.058594 C 162.675781 147.160156 161.828125 148.246094 160.957031 149.308594 C 160.085938 150.371094 159.1875 151.414062 158.261719 152.433594 C 157.339844 153.449219 156.390625 154.445312 155.417969 155.417969 C 154.445312 156.390625 153.449219 157.339844 152.433594 158.261719 C 151.414062 159.1875 150.371094 160.085938 149.308594 160.957031 C 148.246094 161.828125 147.160156 162.675781 146.058594 163.496094 C 144.953125 164.3125 143.828125 165.105469 142.683594 165.871094 C 141.542969 166.632812 140.378906 167.367188 139.199219 168.074219 C 138.019531 168.78125 136.824219 169.460938 135.613281 170.109375 C 134.398438 170.757812 133.171875 171.375 131.929688 171.964844 C 130.683594 172.550781 129.429688 173.109375 128.15625 173.636719 C 126.886719 174.160156 125.605469 174.65625 124.308594 175.121094 C 123.015625 175.582031 121.710938 176.015625 120.394531 176.414062 C 119.078125 176.8125 117.753906 177.179688 116.417969 177.511719 C 115.082031 177.847656 113.742188 178.148438 112.394531 178.417969 C 111.042969 178.683594 109.691406 178.921875 108.328125 179.121094 C 106.96875 179.324219 105.605469 179.492188 104.238281 179.625 C 102.867188 179.761719 101.496094 179.863281 100.125 179.929688 C 98.75 179.996094 97.375 180.03125 96 180.03125 C 94.625 180.03125 93.25 179.996094 91.875 179.929688 C 90.503906 179.863281 89.132812 179.761719 87.761719 179.625 C 86.394531 179.492188 85.03125 179.324219 83.671875 179.121094 C 82.308594 178.921875 80.957031 178.683594 79.605469 178.417969 C 78.257812 178.148438 76.917969 177.847656 75.582031 177.511719 C 74.246094 177.179688 72.921875 176.8125 71.605469 176.414062 C 70.289062 176.015625 68.984375 175.582031 67.691406 175.121094 C 66.394531 174.65625 65.113281 174.160156 63.84375 173.636719 C 62.570312 173.109375 61.316406 172.550781 60.070312 171.964844 C 58.828125 171.375 57.601562 170.757812 56.386719 170.109375 C 55.175781 169.460938 53.980469 168.78125 52.800781 168.074219 C 51.621094 167.367188 50.457031 166.632812 49.316406 165.871094 C 48.171875 165.105469 47.046875 164.3125 45.941406 163.496094 C 44.839844 162.675781 43.753906 161.828125 42.691406 160.957031 C 41.628906 160.085938 40.585938 159.1875 39.566406 158.261719 C 38.550781 157.339844 37.554688 156.390625 36.582031 155.417969 C 35.609375 154.445312 34.660156 153.449219 33.738281 152.433594 C 32.8125 151.414062 31.914062 150.371094 31.042969 149.308594 C 30.171875 148.246094 29.324219 147.160156 28.503906 146.058594 C 27.6875 144.953125 26.894531 143.828125 26.128906 142.683594 C 25.367188 141.542969 24.632812 140.378906 23.925781 139.199219 C 23.21875 138.019531 22.539062 136.824219 21.890625 135.613281 C 21.242188 134.398438 20.625 133.171875 20.035156 131.929688 C 19.449219 130.683594 18.890625 129.429688 18.363281 128.15625 C 17.839844 126.886719 17.34375 125.605469 16.878906 124.308594 C 16.417969 123.015625 15.984375 121.710938 15.585938 120.394531 C 15.1875 119.078125 14.820312 117.753906 14.488281 116.417969 C 14.152344 115.082031 13.851562 113.742188 13.582031 112.394531 C 13.316406 111.042969 13.078125 109.691406 12.878906 108.328125 C 12.675781 106.96875 12.507812 105.605469 12.375 104.238281 C 12.238281 102.867188 12.136719 101.496094 12.070312 100.125 C 12.003906 98.75 11.96875 97.375 11.96875 96 C 11.96875 94.625 12.003906 93.25 12.070312 91.875 C 12.136719 90.503906 12.238281 89.132812 12.375 87.761719 C 12.507812 86.394531 12.675781 85.03125 12.878906 83.671875 C 13.078125 82.308594 13.316406 80.957031 13.582031 79.605469 C 13.851562 78.257812 14.152344 76.917969 14.488281 75.582031 C 14.820312 74.246094 15.1875 72.921875 15.585938 71.605469 C 15.984375 70.289062 16.417969 68.984375 16.878906 67.691406 C 17.34375 66.394531 17.839844 65.113281 18.363281 63.84375 C 18.890625 62.570312 19.449219 61.316406 20.035156 60.070312 C 20.625 58.828125 21.242188 57.601562 21.890625 56.386719 C 22.539062 55.175781 23.21875 53.980469 23.925781 52.800781 C 24.632812 51.621094 25.367188 50.457031 26.128906 49.316406 C 26.894531 48.171875 27.6875 47.046875 28.503906 45.941406 C 29.324219 44.839844 30.171875 43.753906 31.042969 42.691406 C 31.914062 41.628906 32.8125 40.585938 33.738281 39.566406 C 34.660156 38.550781 35.609375 37.554688 36.582031 36.582031 C 37.554688 35.609375 38.550781 34.660156 39.566406 33.738281 C 40.585938 32.8125 41.628906 31.914062 42.691406 31.042969 C 43.753906 30.171875 44.839844 29.324219 45.941406 28.503906 C 47.046875 27.6875 48.171875 26.894531 49.316406 26.128906 C 50.457031 25.367188 51.621094 24.632812 52.800781 23.925781 C 53.980469 23.21875 55.175781 22.539062 56.386719 21.890625 C 57.601562 21.242188 58.828125 20.625 60.070312 20.035156 C 61.316406 19.449219 62.570312 18.890625 63.84375 18.363281 C 65.113281 17.839844 66.394531 17.34375 67.691406 16.878906 C 68.984375 16.417969 70.289062 15.984375 71.605469 15.585938 C 72.921875 15.1875 74.246094 14.820312 75.582031 14.488281 C 76.917969 14.152344 78.257812 13.851562 79.605469 13.582031 C 80.957031 13.316406 82.308594 13.078125 83.671875 12.878906 C 85.03125 12.675781 86.394531 12.507812 87.761719 12.375 C 89.132812 12.238281 90.503906 12.136719 91.875 12.070312 C 93.25 12.003906 94.625 11.96875 96 11.96875 C 97.375 11.96875 98.75 12.003906 100.125 12.070312 C 101.496094 12.136719 102.867188 12.238281 104.238281 12.375 C 105.605469 12.507812 106.96875 12.675781 108.328125 12.878906 C 109.691406 13.078125 111.042969 13.316406 112.394531 13.582031 C 113.742188 13.851562 115.082031 14.152344 116.417969 14.488281 C 117.753906 14.820312 119.078125 15.1875 120.394531 15.585938 C 121.710938 15.984375 123.015625 16.417969 124.308594 16.878906 C 125.605469 17.34375 126.886719 17.839844 128.15625 18.363281 C 129.429688 18.890625 130.683594 19.449219 131.929688 20.035156 C 133.171875 20.625 134.398438 21.242188 135.613281 21.890625 C 136.824219 22.539062 138.019531 23.21875 139.199219 23.925781 C 140.378906 24.632812 141.542969 25.367188 142.683594 26.128906 C 143.828125 26.894531 144.953125 27.6875 146.058594 28.503906 C 147.160156 29.324219 148.246094 30.171875 149.308594 31.042969 C 150.371094 31.914062 151.414062 32.8125 152.433594 33.738281 C 153.449219 34.660156 154.445312 35.609375 155.417969 36.582031 C 156.390625 37.554688 157.339844 38.550781 158.261719 39.566406 C 159.1875 40.585938 160.085938 41.628906 160.957031 42.691406 C 161.828125 43.753906 162.675781 44.839844 163.496094 45.941406 C 164.3125 47.046875 165.105469 48.171875 165.871094 49.316406 C 166.632812 50.457031 167.367188 51.621094 168.074219 52.800781 C 168.78125 53.980469 169.460938 55.175781 170.109375 56.386719 C 170.757812 57.601562 171.375 58.828125 171.964844 60.070312 C 172.550781 61.316406 173.109375 62.570312 173.636719 63.84375 C 174.160156 65.113281 174.65625 66.394531 175.121094 67.691406 C 175.582031 68.984375 176.015625 70.289062 176.414062 71.605469 C 176.8125 72.921875 177.179688 74.246094 177.511719 75.582031 C 177.847656 76.917969 178.148438 78.257812 178.417969 79.605469 C 178.683594 80.957031 178.921875 82.308594 179.121094 83.671875 C 179.324219 85.03125 179.492188 86.394531 179.625 87.761719 C 179.761719 89.132812 179.863281 90.503906 179.929688 91.875 C 179.996094 93.25 180.03125 94.625 180.03125 96 Z M 180.03125 96 " fill-opacity="1" fill-rule="nonzero"/><path fill="#715caf" d="M 167.101562 96 C 167.101562 97.164062 167.074219 98.328125 167.019531 99.488281 C 166.960938 100.652344 166.875 101.8125 166.761719 102.96875 C 166.648438 104.128906 166.503906 105.28125 166.332031 106.433594 C 166.164062 107.585938 165.964844 108.730469 165.738281 109.871094 C 165.511719 111.011719 165.253906 112.148438 164.972656 113.277344 C 164.691406 114.40625 164.378906 115.527344 164.042969 116.640625 C 163.703125 117.753906 163.339844 118.859375 162.945312 119.953125 C 162.554688 121.050781 162.136719 122.136719 161.691406 123.210938 C 161.246094 124.285156 160.773438 125.347656 160.277344 126.402344 C 159.777344 127.453125 159.257812 128.492188 158.707031 129.519531 C 158.160156 130.542969 157.585938 131.554688 156.988281 132.554688 C 156.390625 133.550781 155.765625 134.535156 155.121094 135.503906 C 154.472656 136.46875 153.804688 137.421875 153.109375 138.355469 C 152.417969 139.289062 151.703125 140.207031 150.964844 141.109375 C 150.226562 142.007812 149.464844 142.886719 148.683594 143.75 C 147.902344 144.613281 147.101562 145.453125 146.277344 146.277344 C 145.453125 147.101562 144.613281 147.902344 143.75 148.683594 C 142.886719 149.464844 142.007812 150.226562 141.109375 150.964844 C 140.207031 151.703125 139.289062 152.417969 138.355469 153.109375 C 137.421875 153.804688 136.46875 154.472656 135.503906 155.121094 C 134.535156 155.765625 133.550781 156.390625 132.554688 156.988281 C 131.554688 157.585938 130.542969 158.160156 129.519531 158.707031 C 128.492188 159.257812 127.453125 159.777344 126.402344 160.277344 C 125.347656 160.773438 124.285156 161.246094 123.210938 161.691406 C 122.136719 162.136719 121.050781 162.554688 119.953125 162.945312 C 118.859375 163.339844 117.753906 163.703125 116.640625 164.042969 C 115.527344 164.378906 114.40625 164.691406 113.277344 164.972656 C 112.148438 165.253906 111.011719 165.511719 109.871094 165.738281 C 108.730469 165.964844 107.585938 166.164062 106.433594 166.332031 C 105.28125 166.503906 104.128906 166.648438 102.96875 166.761719 C 101.8125 166.875 100.652344 166.960938 99.488281 167.019531 C 98.328125 167.074219 97.164062 167.101562 96 167.101562 C 94.835938 167.101562 93.671875 167.074219 92.511719 167.019531 C 91.347656 166.960938 90.1875 166.875 89.03125 166.761719 C 87.871094 166.648438 86.71875 166.503906 85.566406 166.332031 C 84.414062 166.164062 83.269531 165.964844 82.128906 165.738281 C 80.988281 165.511719 79.851562 165.253906 78.722656 164.972656 C 77.59375 164.691406 76.472656 164.378906 75.359375 164.042969 C 74.246094 163.703125 73.140625 163.339844 72.046875 162.945312 C 70.949219 162.554688 69.863281 162.136719 68.789062 161.691406 C 67.714844 161.246094 66.652344 160.773438 65.597656 160.277344 C 64.546875 159.777344 63.507812 159.257812 62.480469 158.707031 C 61.457031 158.160156 60.445312 157.585938 59.445312 156.988281 C 58.449219 156.390625 57.464844 155.765625 56.496094 155.121094 C 55.53125 154.472656 54.578125 153.804688 53.644531 153.109375 C 52.710938 152.417969 51.792969 151.703125 50.890625 150.964844 C 49.992188 150.226562 49.113281 149.464844 48.25 148.683594 C 47.386719 147.902344 46.546875 147.101562 45.722656 146.277344 C 44.898438 145.453125 44.097656 144.613281 43.316406 143.75 C 42.535156 142.886719 41.773438 142.007812 41.035156 141.109375 C 40.296875 140.207031 39.582031 139.289062 38.890625 138.355469 C 38.195312 137.421875 37.527344 136.46875 36.878906 135.503906 C 36.234375 134.535156 35.609375 133.550781 35.011719 132.554688 C 34.414062 131.554688 33.839844 130.542969 33.292969 129.519531 C 32.742188 128.492188 32.222656 127.453125 31.722656 126.402344 C 31.226562 125.347656 30.753906 124.285156 30.308594 123.210938 C 29.863281 122.136719 29.445312 121.050781 29.054688 119.953125 C 28.660156 118.859375 28.296875 117.753906 27.957031 116.640625 C 27.621094 115.527344 27.308594 114.40625 27.027344 113.277344 C 26.746094 112.148438 26.488281 111.011719 26.261719 109.871094 C 26.035156 108.730469 25.835938 107.585938 25.667969 106.433594 C 25.496094 105.28125 25.351562 104.128906 25.238281 102.96875 C 25.125 101.8125 25.039062 100.652344 24.980469 99.488281 C 24.925781 98.328125 24.898438 97.164062 24.898438 96 C 24.898438 94.835938 24.925781 93.671875 24.980469 92.511719 C 25.039062 91.347656 25.125 90.1875 25.238281 89.03125 C 25.351562 87.871094 25.496094 86.71875 25.667969 85.566406 C 25.835938 84.414062 26.035156 83.269531 26.261719 82.128906 C 26.488281 80.988281 26.746094 79.851562 27.027344 78.722656 C 27.308594 77.59375 27.621094 76.472656 27.957031 75.359375 C 28.296875 74.246094 28.660156 73.140625 29.054688 72.046875 C 29.445312 70.949219 29.863281 69.863281 30.308594 68.789062 C 30.753906 67.714844 31.226562 66.652344 31.722656 65.597656 C 32.222656 64.546875 32.742188 63.507812 33.292969 62.480469 C 33.839844 61.457031 34.414062 60.445312 35.011719 59.445312 C 35.609375 58.449219 36.234375 57.464844 36.878906 56.496094 C 37.527344 55.53125 38.195312 54.578125 38.890625 53.644531 C 39.582031 52.710938 40.296875 51.792969 41.035156 50.890625 C 41.773438 49.992188 42.535156 49.113281 43.316406 48.25 C 44.097656 47.386719 44.898438 46.546875 45.722656 45.722656 C 46.546875 44.898438 47.386719 44.097656 48.25 43.316406 C 49.113281 42.535156 49.992188 41.773438 50.890625 41.035156 C 51.792969 40.296875 52.710938 39.582031 53.644531 38.890625 C 54.578125 38.195312 55.53125 37.527344 56.496094 36.878906 C 57.464844 36.234375 58.449219 35.609375 59.445312 35.011719 C 60.445312 34.414062 61.457031 33.839844 62.480469 33.292969 C 63.507812 32.742188 64.546875 32.222656 65.597656 31.722656 C 66.652344 31.226562 67.714844 30.753906 68.789062 30.308594 C 69.863281 29.863281 70.949219 29.445312 72.046875 29.054688 C 73.140625 28.660156 74.246094 28.296875 75.359375 27.957031 C 76.472656 27.621094 77.59375 27.308594 78.722656 27.027344 C 79.851562 26.746094 80.988281 26.488281 82.128906 26.261719 C 83.269531 26.035156 84.414062 25.835938 85.566406 25.667969 C 86.71875 25.496094 87.871094 25.351562 89.03125 25.238281 C 90.1875 25.125 91.347656 25.039062 92.511719 24.980469 C 93.671875 24.925781 94.835938 24.898438 96 24.898438 C 97.164062 24.898438 98.328125 24.925781 99.488281 24.980469 C 100.652344 25.039062 101.8125 25.125 102.96875 25.238281 C 104.128906 25.351562 105.28125 25.496094 106.433594 25.667969 C 107.585938 25.835938 108.730469 26.035156 109.871094 26.261719 C 111.011719 26.488281 112.148438 26.746094 113.277344 27.027344 C 114.40625 27.308594 115.527344 27.621094 116.640625 27.957031 C 117.753906 28.296875 118.859375 28.660156 119.953125 29.054688 C 121.050781 29.445312 122.136719 29.863281 123.210938 30.308594 C 124.285156 30.753906 125.347656 31.226562 126.402344 31.722656 C 127.453125 32.222656 128.492188 32.742188 129.519531 33.292969 C 130.542969 33.839844 131.554688 34.414062 132.554688 35.011719 C 133.550781 35.609375 134.535156 36.234375 135.503906 36.878906 C 136.46875 37.527344 137.421875 38.195312 138.355469 38.890625 C 139.289062 39.582031 140.207031 40.296875 141.109375 41.035156 C 142.007812 41.773438 142.886719 42.535156 143.75 43.316406 C 144.613281 44.097656 145.453125 44.898438 146.277344 45.722656 C 147.101562 46.546875 147.902344 47.386719 148.683594 48.25 C 149.464844 49.113281 150.226562 49.992188 150.964844 50.890625 C 151.703125 51.792969 152.417969 52.710938 153.109375 53.644531 C 153.804688 54.578125 154.472656 55.53125 155.121094 56.496094 C 155.765625 57.464844 156.390625 58.449219 156.988281 59.445312 C 157.585938 60.445312 158.160156 61.457031 158.707031 62.480469 C 159.257812 63.507812 159.777344 64.546875 160.277344 65.597656 C 160.773438 66.652344 161.246094 67.714844 161.691406 68.789062 C 162.136719 69.863281 162.554688 70.949219 162.945312 72.046875 C 163.339844 73.140625 163.703125 74.246094 164.042969 75.359375 C 164.378906 76.472656 164.691406 77.59375 164.972656 78.722656 C 165.253906 79.851562 165.511719 80.988281 165.738281 82.128906 C 165.964844 83.269531 166.164062 84.414062 166.332031 85.566406 C 166.503906 86.71875 166.648438 87.871094 166.761719 89.03125 C 166.875 90.1875 166.960938 91.347656 167.019531 92.511719 C 167.074219 93.671875 167.101562 94.835938 167.101562 96 Z M 167.101562 96 " fill-opacity="1" fill-rule="nonzero"/><g fill="#ffffff" fill-opacity="1"><g transform="translate(36.28481, 120.739767)"><g><path d="M 61.953125 -25.910156 L 32.957031 -25.910156 L 32.957031 -25.398438 L 34.132812 -25.398438 C 38.683594 -25.398438 40.152344 -23.929688 40.152344 -17.03125 L 40.152344 -0.808594 C 38.097656 0 35.96875 0.515625 33.105469 0.515625 C 22.609375 0.515625 20.773438 -6.164062 20.773438 -25.25 C 20.773438 -43.160156 23.195312 -51.015625 33.472656 -51.015625 C 40.59375 -51.015625 46.90625 -43.015625 50.574219 -28.847656 L 51.015625 -28.847656 L 53.144531 -50.867188 L 52.703125 -50.867188 C 52.261719 -49.328125 51.164062 -49.105469 49.988281 -49.105469 C 46.683594 -49.105469 40.152344 -51.675781 33.472656 -51.675781 C 16.957031 -51.675781 4.039062 -43.457031 4.039062 -25.472656 C 4.039062 -6.3125 15.195312 1.175781 33.105469 1.175781 C 40.519531 1.175781 46.539062 -3.007812 51.015625 -3.007812 C 53.4375 -3.007812 54.613281 -2.203125 55.785156 0 L 56.226562 0 L 56.226562 -19.230469 C 56.226562 -24.296875 57.328125 -25.398438 60.777344 -25.398438 L 61.953125 -25.398438 Z M 61.953125 -25.910156 "/></g></g></g><g fill="#ffffff" fill-opacity="1"><g transform="translate(99.264246, 120.739767)"><g><path d="M 54.390625 -50.5 L 2.347656 -50.5 L 2.347656 -49.988281 L 3.523438 -49.988281 C 8.589844 -49.988281 10.277344 -48.519531 10.277344 -41.621094 L 10.277344 -8.882812 C 10.277344 -1.980469 8.589844 -0.515625 3.523438 -0.515625 L 2.347656 -0.515625 L 2.347656 0 L 37.214844 0 L 37.214844 -0.515625 L 36.042969 -0.515625 C 28.773438 -0.515625 26.351562 -1.980469 26.351562 -8.882812 L 26.351562 -24.882812 C 34.058594 -24.664062 38.535156 -19.378906 39.710938 -11.449219 L 40.152344 -11.449219 L 40.152344 -39.566406 L 39.710938 -39.566406 C 38.535156 -31.269531 34.058594 -25.617188 26.351562 -25.398438 L 26.351562 -49.988281 L 27.820312 -49.988281 C 40.003906 -49.988281 52.558594 -40.8125 54.6875 -28.847656 L 55.125 -28.847656 Z M 54.390625 -50.5 "/></g></g></g></svg>