<svg width="256" height="256" viewBox="0 0 256 256" fill="none" xmlns="http://www.w3.org/2000/svg">
<path d="M128 0C57.3073 0 0 57.3073 0 128C0 198.693 57.3073 256 128 256C198.693 256 256 198.693 256 128C256 57.3073 198.693 0 128 0Z" fill="#38B6FF"/>
<path d="M165.49 89.6668C164.911 90.2762 164.625 91.0054 164.641 91.8491V171.24C164.63 171.662 164.703 172.063 164.859 172.453C165.01 172.844 165.234 173.188 165.531 173.485C165.823 173.787 166.161 174.016 166.552 174.177C166.938 174.344 167.339 174.422 167.76 174.422C168.177 174.422 168.578 174.344 168.969 174.177C169.354 174.016 169.693 173.787 169.984 173.485C170.281 173.188 170.505 172.844 170.656 172.453C170.812 172.063 170.885 171.662 170.875 171.24V91.8491C170.885 91.2033 170.714 90.6147 170.354 90.0783C170 89.5418 169.526 89.1564 168.927 88.9116C168.333 88.672 167.719 88.6199 167.094 88.7554C166.464 88.896 165.927 89.1981 165.49 89.6668Z" fill="white"/>
<path fill-rule="evenodd" clip-rule="evenodd" d="M181.172 67.2291H75.0417C70.6719 67.2291 67.1094 70.7916 67.1094 75.1666V181.297C67.1094 185.672 70.6719 189.229 75.0417 189.229H181.172C185.547 189.229 189.109 185.672 189.109 181.297V75.1666C189.109 70.7916 185.547 67.2291 181.172 67.2291ZM179.167 80.6562C179.167 78.6302 177.505 76.9687 175.479 76.9687H80.6563C78.6302 76.9687 76.9688 78.6302 76.9688 80.6562V175.479C76.9688 177.505 78.6302 179.167 80.6563 179.167H175.479C177.505 179.167 179.167 177.505 179.167 175.479V80.6562Z" fill="white"/>
</svg>
