<?xml version="1.0" encoding="UTF-8"?><svg xmlns="http://www.w3.org/2000/svg" xmlns:xlink="http://www.w3.org/1999/xlink" contentScriptType="text/ecmascript" width="192" zoomAndPan="magnify" contentStyleType="text/css" viewBox="0 0 192 191.999996" height="191.999996" preserveAspectRatio="xMidYMid meet" version="1.0"><defs><clipPath id="clip-0"><path d="M 123 66 L 129 66 L 129 131 L 123 131 Z M 123 66 " clip-rule="nonzero"/></clipPath><clipPath id="clip-1"><path d="M 92.492188 98.742188 L 125.902344 65.332031 L 159.3125 98.742188 L 125.902344 132.152344 Z M 92.492188 98.742188 " clip-rule="nonzero"/></clipPath><clipPath id="clip-2"><path d="M 92.492188 98.742188 L 125.902344 65.332031 L 159.3125 98.742188 L 125.902344 132.152344 Z M 92.492188 98.742188 " clip-rule="nonzero"/></clipPath></defs><rect x="-19.2" width="230.4" fill="rgb(100%, 100%, 100%)" y="-19.2" height="230.399995" fill-opacity="1"/><rect x="-19.2" width="230.4" fill="rgb(100%, 100%, 100%)" y="-19.2" height="230.399995" fill-opacity="1"/><rect x="-19.2" width="230.4" fill="rgb(100%, 100%, 100%)" y="-19.2" height="230.399995" fill-opacity="1"/><path fill="rgb(21.958923%, 71.369934%, 100%)" d="M 96 0 C 42.980469 0 0 42.980469 0 96 C 0 149.019531 42.980469 192 96 192 C 149.019531 192 192 149.019531 192 96 C 192 42.980469 149.019531 0 96 0 Z M 96 0 " fill-opacity="1" fill-rule="nonzero"/><path fill="rgb(100%, 100%, 100%)" d="M 134.039062 54.988281 C 135.667969 54.988281 137.007812 56.328125 137.007812 57.960938 L 137.007812 134.296875 C 137.007812 135.925781 135.667969 137.265625 134.039062 137.265625 L 57.703125 137.265625 C 56.070312 137.265625 54.730469 135.925781 54.730469 134.296875 L 54.730469 57.960938 C 54.730469 56.328125 56.070312 54.988281 57.703125 54.988281 L 134.039062 54.988281 M 134.039062 52.253906 L 57.703125 52.253906 C 54.558594 52.253906 51.996094 54.816406 51.996094 57.960938 L 51.996094 134.296875 C 51.996094 137.441406 54.558594 140.003906 57.703125 140.003906 L 134.039062 140.003906 C 137.183594 140.003906 139.746094 137.441406 139.746094 134.296875 L 139.746094 57.960938 C 139.746094 54.816406 137.183594 52.253906 134.039062 52.253906 Z M 134.039062 52.253906 " fill-opacity="1" fill-rule="nonzero"/><path fill="rgb(100%, 100%, 100%)" d="M 132.898438 56.410156 C 134.472656 56.410156 135.765625 57.703125 135.765625 59.277344 L 135.765625 133.007812 C 135.765625 134.582031 134.472656 135.875 132.898438 135.875 L 59.171875 135.875 C 57.597656 135.875 56.300781 134.582031 56.300781 133.007812 L 56.300781 59.277344 C 56.300781 57.703125 57.597656 56.410156 59.171875 56.410156 L 132.898438 56.410156 M 132.898438 53.769531 L 59.171875 53.769531 C 56.132812 53.769531 53.660156 56.242188 53.660156 59.277344 L 53.660156 133.007812 C 53.660156 136.042969 56.132812 138.519531 59.171875 138.519531 L 132.898438 138.519531 C 135.933594 138.519531 138.410156 136.042969 138.410156 133.007812 L 138.410156 59.277344 C 138.410156 56.242188 135.933594 53.769531 132.898438 53.769531 Z M 132.898438 53.769531 " fill-opacity="1" fill-rule="nonzero"/><g clip-path="url(#clip-0)"><g clip-path="url(#clip-1)"><g clip-path="url(#clip-2)"><path fill="rgb(100%, 100%, 100%)" d="M 124.117188 67.25 C 123.683594 67.707031 123.46875 68.253906 123.480469 68.886719 L 123.480469 128.429688 C 123.472656 128.746094 123.527344 129.046875 123.644531 129.339844 C 123.757812 129.632812 123.925781 129.890625 124.148438 130.113281 C 124.367188 130.339844 124.621094 130.511719 124.914062 130.632812 C 125.203125 130.757812 125.503906 130.816406 125.820312 130.816406 C 126.132812 130.816406 126.433594 130.757812 126.726562 130.632812 C 127.015625 130.511719 127.269531 130.339844 127.488281 130.113281 C 127.710938 129.890625 127.878906 129.632812 127.992188 129.339844 C 128.109375 129.046875 128.164062 128.746094 128.15625 128.429688 L 128.15625 68.886719 C 128.164062 68.402344 128.035156 67.960938 127.765625 67.558594 C 127.5 67.15625 127.144531 66.867188 126.695312 66.683594 C 126.25 66.503906 125.789062 66.464844 125.320312 66.566406 C 124.847656 66.671875 124.445312 66.898438 124.117188 67.25 Z M 124.117188 67.25 " fill-opacity="1" fill-rule="nonzero"/></g></g></g><path fill="rgb(100%, 100%, 100%)" d="M 135.878906 53.277344 C 137.582031 53.277344 138.976562 54.671875 138.976562 56.375 L 138.976562 135.972656 C 138.976562 137.671875 137.582031 139.070312 135.878906 139.070312 L 56.28125 139.070312 C 54.582031 139.070312 53.183594 137.671875 53.183594 135.972656 L 53.183594 56.375 C 53.183594 54.671875 54.582031 53.277344 56.28125 53.277344 L 135.878906 53.277344 M 135.878906 50.421875 L 56.28125 50.421875 C 53.003906 50.421875 50.332031 53.09375 50.332031 56.375 L 50.332031 135.972656 C 50.332031 139.253906 53.003906 141.921875 56.28125 141.921875 L 135.878906 141.921875 C 139.160156 141.921875 141.832031 139.253906 141.832031 135.972656 L 141.832031 56.375 C 141.832031 53.09375 139.160156 50.421875 135.878906 50.421875 Z M 135.878906 50.421875 " fill-opacity="1" fill-rule="nonzero"/><path fill="rgb(100%, 100%, 100%)" d="M 131.609375 57.726562 C 133.128906 57.726562 134.375 58.972656 134.375 60.492188 L 134.375 131.609375 C 134.375 133.128906 133.128906 134.375 131.609375 134.375 L 60.492188 134.375 C 58.972656 134.375 57.726562 133.128906 57.726562 131.609375 L 57.726562 60.492188 C 57.726562 58.972656 58.972656 57.726562 60.492188 57.726562 L 131.609375 57.726562 M 131.609375 55.175781 L 60.492188 55.175781 C 57.5625 55.175781 55.175781 57.5625 55.175781 60.492188 L 55.175781 131.609375 C 55.175781 134.539062 57.5625 136.925781 60.492188 136.925781 L 131.609375 136.925781 C 134.539062 136.925781 136.925781 134.539062 136.925781 131.609375 L 136.925781 60.492188 C 136.925781 57.5625 134.539062 55.175781 131.609375 55.175781 Z M 131.609375 55.175781 " fill-opacity="1" fill-rule="nonzero"/></svg>