<svg width="256" height="256" viewBox="0 0 256 256" fill="none" xmlns="http://www.w3.org/2000/svg">
<g clip-path="url(#clip0_288_1763)">
<ellipse cx="129.483" cy="128.502" rx="126.517" ry="127.498" fill="white"/>
<path d="M97.647 7.54777C98.7265 7.45094 102.75 6.77312 106.48 6.0953C111.386 5.127 118.551 4.83651 131.014 5.127C147.6 5.41749 162.419 7.3541 158.984 8.70973C158.003 9.19389 158.199 9.38755 159.671 9.38755C162.517 9.48438 174.686 14.2291 184.304 19.0706C195.492 24.6868 205.502 31.9491 215.512 41.9227C223.854 50.1533 236.514 67.2923 236.514 70.1973C236.514 70.9719 237.496 73.3927 238.575 75.6198C245.249 88.3046 249.174 105.153 249.959 123.261C250.548 139.334 248.782 153.472 244.464 166.253C241.912 173.806 240.538 177.195 234.551 190.074C230.135 199.854 213.648 218.155 201.184 227.354C188.033 236.94 171.153 244.783 154.96 248.753C147.011 250.69 143.282 250.98 128.07 250.98C108.148 250.98 100.395 249.625 84.0056 243.137C66.3405 236.262 53.5823 227.741 40.1372 214.088C31.8935 205.664 22.5703 193.753 22.5703 191.623C22.5703 191.042 21.2945 188.234 19.7242 185.426C8.2419 165.091 3.23679 133.621 7.35865 108.252C9.2233 97.213 14.5228 81.236 19.1354 72.5212C21 69.0353 22.5703 65.6462 22.5703 65.0652C22.5703 62.935 34.5433 47.8294 42.1 40.3734C55.2507 27.4949 71.9344 17.4245 89.8939 11.5178C94.5065 9.96853 97.647 8.51607 96.96 8.22557C96.1749 7.93508 96.4693 7.6446 97.647 7.54777Z" fill="#0D67B5"/>
<path d="M117.679 0.350684C100.79 1.41237 89.2039 4.50091 73.0026 12.5118C59.1578 19.3645 49.4369 25.9277 39.7161 35.0003C31.7627 42.4321 21.4527 54.4002 21.4527 56.234C21.4527 56.8131 20.3727 58.84 19.0962 60.8668C7.70613 78.7225 1.22558 99.5701 0.145486 122.059C-1.0328 148.311 4.9568 172.73 17.7215 193.674C19.9799 197.438 21.9437 200.913 21.9437 201.299C21.9437 201.782 24.7912 205.546 28.3261 209.793C47.3749 232.764 75.1628 248.978 104.914 254.48C115.813 256.507 141.245 256.507 152.144 254.48C176.397 249.944 200.159 237.589 218.226 219.927C226.081 212.205 238.551 197.149 236.882 197.149C236.587 197.149 237.667 194.832 239.337 192.033C256.422 162.692 260.644 125.244 250.727 91.4627C249.352 86.6369 245.719 77.7573 242.675 71.6767C239.631 65.5962 237.078 60.2877 237.078 59.8051C236.98 59.4191 234.427 55.6549 231.187 51.4082C224.019 41.853 210.862 29.4023 201.043 22.7426C193.187 17.4342 178.95 9.90586 176.79 9.90586C176.102 9.90586 175.709 9.5198 176.004 9.13373C176.691 8.07204 158.33 2.47406 150.082 1.31585C141.147 -0.0353837 129.756 -0.324935 117.679 0.350684ZM150.082 3.72878C160.294 5.46608 168.836 8.07204 168.149 9.13373C167.854 9.5198 168.345 9.90586 169.327 9.90586C170.211 9.90586 175.219 11.8362 180.324 14.2491C206.345 26.4103 228.241 47.0649 239.042 69.6499C249.254 91.0766 253.181 107.098 253.181 127.56C253.181 148.601 249.45 165.588 240.711 183.443C238.748 187.594 237.078 191.358 236.882 192.033C236.784 192.709 234.427 196.377 231.678 200.237C212.629 227.262 180.423 247.434 148.02 252.646C108.056 259.016 66.8166 245.311 37.6541 216.066C30.6826 209.02 20.4708 196.184 21.8455 196.184C22.1401 196.184 20.9618 193.867 19.2926 191.068C8.58984 173.213 2.79662 151.303 2.79662 128.139C2.79662 106.326 7.31337 88.5672 18.2125 67.7195C30.1917 44.5555 49.9279 26.2172 75.6537 14.2491C80.7596 11.8362 85.7673 9.90586 86.651 9.90586C87.6329 9.90586 88.1239 9.5198 87.8293 9.13373C87.5347 8.65114 89.5967 7.58946 92.4442 6.7208C110.02 1.50889 130.444 0.447201 150.082 3.72878Z" fill="#0D67B5"/>
<path d="M137.489 72.2823C141.937 62.8454 148.757 57.2235 158.443 55.2156C162.891 54.3121 170.205 54.7137 176.037 56.2195C180.781 57.5246 187.799 63.9497 190.468 69.3709C192.741 74.0893 194.718 84.7309 194.224 90.1521C193.73 95.6737 192.445 96.3764 183.351 96.3764C173.269 96.3764 171.49 94.9709 171.886 87.4415C172.083 84.1286 171.589 82.1207 170.601 81.0164C169.711 80.1129 169.019 79.0086 169.019 78.4062C169.019 75.0933 160.123 76.5991 158.245 80.2133C157.554 81.5184 157.158 91.4572 157.257 108.122V136.031C157.059 167.956 157.257 174.18 158.641 176.389C160.815 179.702 164.67 180.405 168.723 178.196C172.083 176.289 172.182 176.188 172.38 166.45C172.578 159.322 174.653 157.616 183.252 157.616C193.038 157.616 194.718 158.921 194.718 166.651C194.718 169.863 194.323 172.775 193.829 173.076C193.433 173.377 193.235 174.783 193.532 176.289C194.125 179.3 187.799 192.753 185.032 194.259C173.961 200.483 171.984 201.085 163.089 200.583C153.007 199.981 146.088 196.869 141.245 190.645C139.928 188.942 138.885 187.674 138.059 186.273C134.793 180.735 134.919 173.133 134.919 128.502V77.8039L137.489 72.2823Z" fill="white"/>
<path fill-rule="evenodd" clip-rule="evenodd" d="M81.6433 56.019C81.4456 56.1194 78.4804 56.4206 75.0209 56.6214C67.7066 57.1233 65.6309 57.7257 64.7414 60.0347C64.1483 61.7414 64.0495 187.432 64.7414 194.259C65.3344 200.684 66.224 200.985 86.7831 200.684C96.6672 200.483 104.772 200.082 104.772 199.58C104.772 199.178 105.958 198.475 107.441 198.174C108.924 197.773 110.703 196.869 111.395 196.166C112.087 195.464 113.668 194.058 114.953 193.054C118.907 189.842 121.575 185.023 123.453 177.494C125.134 170.868 125.232 166.049 125.134 126.494L125.133 126.283C124.936 83.5238 124.932 82.7124 122.663 76.0974C118.808 64.9539 110.604 58.5288 98.8417 57.5249C95.58 57.2237 93.1089 56.7218 93.3066 56.3202C93.702 55.7178 82.2363 55.4167 81.6433 56.019ZM84.7833 96.3189C84.6417 113.42 84.6216 115.847 83.4217 117.174C83.2232 117.394 82.9924 117.583 82.7234 117.804C82.6619 117.854 82.5985 117.906 82.5329 117.961C80.5561 119.467 80.5561 119.567 82.5329 119.266C84.4109 118.965 84.5098 119.768 85.2016 137.437C85.597 147.577 85.597 159.322 85.2016 163.539C84.8063 167.755 84.6086 173.277 84.8063 175.887L85.1028 180.706H91.5275C103.784 180.706 103.982 180.104 103.784 126.795C103.782 125.651 103.78 124.532 103.778 123.439C103.718 89.8924 103.7 80.2106 99.3748 77.4217C97.62 76.2903 95.1562 76.2933 91.6928 76.2976C91.4769 76.2978 91.2571 76.2981 91.0333 76.2981H85.004L84.8063 93.5655C84.7982 94.5233 84.7906 95.4404 84.7833 96.3189Z" fill="white"/>
</g>
<defs>
<clipPath id="clip0_288_1763">
<rect width="256" height="256" fill="white"/>
</clipPath>
</defs>
</svg>
