<svg width="578" height="578" viewBox="0 0 578 578" fill="none" xmlns="http://www.w3.org/2000/svg">
<circle cx="289" cy="289" r="289" fill="white"/>
<path fill-rule="evenodd" clip-rule="evenodd" d="M578 289C578 448.61 448.61 578 289 578C129.39 578 0 448.61 0 289C0 129.39 129.39 0 289 0C448.61 0 578 129.39 578 289ZM229.89 87.0666C255.837 40.6164 322.673 40.6164 348.62 87.0666L427.222 227.774C391.652 262.566 342.434 281.284 290.015 281.284C237.288 281.284 187.599 262.33 151.683 227.068L229.89 87.0666ZM118.144 287.107L83.6607 348.837C58.3407 394.164 91.107 450 143.026 450L435.484 450C487.403 450 520.169 394.164 494.849 348.837L460.757 287.808C412.776 332.765 349.922 354 290.015 354C229.756 354 166.456 332.531 118.144 287.107Z" fill="url(#paint0_linear_118_263)"/>
<defs>
<linearGradient id="paint0_linear_118_263" x1="289" y1="0" x2="289" y2="578" gradientUnits="userSpaceOnUse">
<stop stop-color="#735DCA"/>
<stop offset="1" stop-color="#6C2AAF"/>
</linearGradient>
</defs>
</svg>
