<svg width="256" height="256" viewBox="0 0 256 256" fill="none" xmlns="http://www.w3.org/2000/svg">
<path d="M128 256C198.692 256 256 198.692 256 128C256 57.3075 198.692 0 128 0C57.3076 0 0 57.3075 0 128C0 198.692 57.3076 256 128 256Z" fill="#F28D1C"/>
<mask id="mask0_10_31" style="mask-type:alpha" maskUnits="userSpaceOnUse" x="0" y="0" width="256" height="256">
<path d="M128 256C198.692 256 256 198.692 256 128C256 57.3075 198.692 0 128 0C57.3076 0 0 57.3075 0 128C0 198.692 57.3076 256 128 256Z" fill="#F28D1C"/>
</mask>
<g mask="url(#mask0_10_31)">
<path fill-rule="evenodd" clip-rule="evenodd" d="M9.23087 228.418C9.30157 228.327 9.91764 224.055 10.1499 223.288C11.5082 219.071 13.1966 214.968 15.1996 211.017C19.2394 202.554 44.1951 163.742 54.4056 161.005C56.5163 160.439 57.1122 164.317 57.7586 165.721C58.8695 168.135 61.1318 169.407 62.98 171.225C72.2815 180.315 82.1689 189.243 94.8335 193.212C110.619 198.171 127.01 205.149 143.876 204.957C152.552 204.846 160.964 203.129 169.468 201.584C169.852 201.514 171.124 201.11 171.549 201.372C180.325 206.977 184.86 263.352 177.921 271.482C175.427 274.411 161.429 266.241 158.803 272.038C155.884 278.491 151.633 311.759 149.966 313.122C148.623 314.223 145.209 313.678 143.543 313.819C123.819 315.516 107.448 311.87 88.3598 307.497C80.1591 305.618 69.3527 304.73 62.4144 299.993C57.9404 296.963 30.4295 286.864 27.2078 282.753C26.9049 282.369 26.713 275.977 26.0262 274.068C24.5416 269.947 22.9964 265.453 24.2588 261.029C25.5212 256.606 32.2777 250.162 30.48 245.325C28.5107 240.033 11.3921 236.114 9.15008 229.701C5.59508 219.541 44.801 163.509 52.7493 160.015C32.4292 178.416 16.9064 200.504 9.23087 228.418Z" fill="#462B13"/>
<path d="M53.5976 161.328C46.3167 167.434 39.6804 174.27 33.7926 181.729C27.733 189.727 9.23085 216.804 9.45303 228.186C9.57423 233.842 43.4376 253.849 47.1946 249.173C53.2037 241.669 59.1826 227.792 61.8993 219.945" stroke="#010101" stroke-width="4.52762" stroke-linecap="square" stroke-linejoin="round"/>
<path d="M171.771 202.039C171.771 202.039 172.448 203.594 172.549 203.806C174.932 208.902 176.809 214.219 178.154 219.682C179.766 226.116 180.893 232.662 181.527 239.265C181.971 244.789 181.618 266.533 179.891 271.482C179.877 271.531 179.852 271.576 179.819 271.614C179.786 271.652 179.745 271.683 179.699 271.704C179.224 271.967 163.54 269.957 160.672 269.291" stroke="#010101" stroke-width="4.52762" stroke-linecap="square" stroke-linejoin="round"/>
<path d="M157.288 203.745C159.167 209.664 162.58 244.931 158.117 275.108C155.501 292.762 150.098 313.163 150.098 313.163C150.098 313.163 145.048 313.728 142.432 313.849C138.735 314.116 135.026 314.17 131.323 314.011C119.365 313.223 107.751 310.92 95.9748 308.618C80.4015 305.588 67.2925 303.043 53.1028 295.893C46.0332 292.317 35.449 287.54 28.4198 283.773" stroke="#010101" stroke-width="4.52762" stroke-linecap="round" stroke-linejoin="round"/>
<path fill-rule="evenodd" clip-rule="evenodd" d="M40.7107 156.5C37.8324 134.746 67.6964 99.9437 69.9385 94.591C77.3514 76.9676 72.0795 48.8811 87.4609 35.3479C91.8643 31.4798 97.2271 32.217 102.61 32.722C106.801 33.1159 111.558 33.0452 114.911 36.0043C123.637 43.7203 114.911 77.5129 118.496 80.775C121.415 83.4211 138.271 85.5117 142.735 86.2994C146.977 87.0468 153.319 88.9455 157.581 87.683C160.247 86.8953 161.904 82.9969 164.045 81.3103C173.952 73.4732 196.211 55.0518 209.179 59.2027C214.744 61.0105 216.794 63.1314 219.077 68.1306C220.632 71.5442 221.935 74.7154 220.602 78.5633C220.602 78.6744 202.423 100.449 200.968 101.651C197.696 104.327 190.94 106.7 190.021 111.336C189.374 114.598 197.555 121.152 199.373 123.799C201.716 127.202 201.049 131.171 202.705 134.817C203.887 137.392 206.674 137.948 207.028 141.2C207.038 141.334 207.038 141.469 207.028 141.604C207.028 143.775 204.2 144.401 204.382 146.522C204.655 149.673 207.018 151.4 205.877 154.965C204.867 158.207 201.403 160.298 199.686 163.186C198.161 165.762 198.676 169.66 196.767 171.862C193.828 175.285 188.324 176.366 185.153 179.517C181.981 182.668 180.557 186.375 178.396 189.94C173.276 198.403 165.55 202.382 156.268 205.462C152.107 206.846 146.845 206.553 142.543 206.796C138.503 207.018 134.403 207.947 130.323 207.805C110.407 207.21 79.5228 197.191 63.4849 185.839C58.5059 182.304 55.3448 177.366 51.2747 172.912C47.2047 168.458 41.5692 162.964 40.7107 156.5Z" fill="#355CA8"/>
<path fill-rule="evenodd" clip-rule="evenodd" d="M86.8651 72.8268C86.9661 72.8268 86.6631 72.7056 86.653 72.5945C86.5891 71.5371 86.6161 70.4761 86.7338 69.4233C87.1277 62.6971 87.2085 51.113 93.8034 46.8612C108.367 37.4788 117.87 67.161 109.306 72.3319C106.973 73.7357 99.55 73.5539 96.7019 73.7761C93.8539 73.9983 89.1072 74.5336 86.3096 73.0793" fill="#E72261"/>
<path fill-rule="evenodd" clip-rule="evenodd" d="M64.9898 160.49C65.1109 160.762 64.7878 159.924 64.7777 159.631C64.7725 159.039 64.8232 158.447 64.9292 157.864C65.1378 156.135 65.5584 154.44 66.1815 152.814C67.9691 148.774 73.0996 145.825 77.3918 147.946C85.8551 152.137 92.7934 159.429 100.53 164.772C105.853 168.503 111.62 171.556 117.699 173.861C121.93 175.386 126.525 175.881 130.909 176.709C139.311 178.335 147.653 180.173 156.238 180.537C161.888 180.847 167.554 180.722 173.185 180.163C177.012 179.729 200.342 172.326 198.625 181.264C197.858 185.304 193.737 184.365 190.889 185.536C188.93 186.354 190.99 188.637 188.99 189.576C186.062 190.96 170.064 191.899 166.469 192.07C158.44 192.474 149.754 193.555 141.796 192.404C128.727 190.515 124.061 191.858 109.235 188.687C102.166 187.172 95.9748 183.516 90.0464 179.476C82.6132 174.427 58.5564 161.54 66.2724 151.198" fill="#E72261"/>
<path fill-rule="evenodd" clip-rule="evenodd" d="M74.2307 125.021C74.4832 125.283 75.8567 124.768 76.0789 124.718C85.2593 122.597 94.0155 116.204 103.721 117.375C111.195 118.274 118.618 121.91 125.657 124.445C129.828 125.95 134.514 127.182 138.372 129.414C141.129 130.999 142.2 134.625 145.108 135.837C147.613 136.847 150.946 136.695 153.592 137.029C160.348 137.877 167.044 138.887 173.791 139.432C180.759 139.988 198.524 138.837 203.523 145.31C208.523 151.784 204.463 158.884 199.665 163.772C197.949 165.509 196.413 167.388 193.959 168.064C188.081 169.7 181.567 168.216 175.73 167.054C166.59 165.226 157.551 162.924 149.209 158.732C145.795 157.026 143.23 153.248 139.463 152.249C137.332 151.673 134.322 153.996 132.191 154.349C129.746 154.586 127.279 154.394 124.899 153.784C120.395 152.915 116.335 151.128 112.073 149.522C96.7726 143.795 85.2896 137.342 74.3014 125.223" fill="white"/>
<path fill-rule="evenodd" clip-rule="evenodd" d="M93.662 141.129C93.6195 141.048 93.5954 140.958 93.5913 140.866C94.3717 138.302 95.6216 135.905 97.2776 133.797C98.8286 131.646 100.949 129.97 103.401 128.958C105.852 127.947 108.537 127.639 111.154 128.07C114.325 128.525 118.224 129.414 120.809 131.423C123.839 133.787 126.152 140.887 126.021 144.432C125.692 147.938 124.742 151.358 123.213 154.531" fill="#010101"/>
<path fill-rule="evenodd" clip-rule="evenodd" d="M155.844 162.651C154.723 158.793 156.501 154.41 159.187 151.683C170.125 140.574 191.647 148.29 185.334 164.641C185.021 165.448 184.577 167.852 183.83 168.387" fill="#010101"/>
<path d="M182.845 154.852C183.087 153.349 182.051 151.932 180.531 151.687C179.011 151.443 177.583 152.463 177.341 153.967C177.099 155.47 178.135 156.887 179.655 157.132C181.175 157.376 182.603 156.356 182.845 154.852Z" fill="white"/>
<path d="M171.66 159.826C171.765 159.171 171.306 158.552 170.634 158.444C169.963 158.336 169.332 158.78 169.227 159.435C169.122 160.09 169.581 160.709 170.253 160.817C170.924 160.925 171.555 160.482 171.66 159.826Z" fill="white"/>
<path d="M169.079 149.752C169.227 148.832 168.646 147.974 167.781 147.834C166.916 147.695 166.096 148.328 165.948 149.248C165.8 150.167 166.381 151.026 167.245 151.165C168.11 151.304 168.931 150.671 169.079 149.752Z" fill="white"/>
<path d="M120.802 137.9C121.05 136.358 119.979 134.903 118.41 134.651C116.84 134.398 115.367 135.443 115.119 136.985C114.871 138.527 115.942 139.982 117.511 140.235C119.081 140.487 120.554 139.442 120.802 137.9Z" fill="white"/>
<path d="M111.73 142.844C111.851 142.095 111.333 141.389 110.573 141.267C109.813 141.145 109.099 141.653 108.978 142.402C108.858 143.151 109.376 143.857 110.136 143.979C110.896 144.101 111.61 143.593 111.73 142.844Z" fill="white"/>
<path d="M107.874 133.38C108.015 132.505 107.455 131.686 106.624 131.553C105.792 131.419 105.004 132.02 104.863 132.896C104.722 133.771 105.282 134.59 106.113 134.723C106.945 134.857 107.733 134.256 107.874 133.38Z" fill="white"/>
<path d="M72.8875 153.673C73.3723 154.42 73.847 155.177 74.3923 156.086C75.7445 158.109 77.5189 159.815 79.5935 161.086C89.5313 167.842 98.0553 173.902 109.639 177.689C126.909 183.345 147.401 185.769 165.55 185.597C174.255 185.526 179.113 183.324 187.657 184.708" stroke="#010101" stroke-width="3.2243" stroke-linecap="square" stroke-linejoin="round"/>
<path d="M94.0256 141.22H93.9246C93.7226 141.22 93.8741 140.664 93.9246 140.594C94.1014 139.906 94.3241 139.232 94.5911 138.574C95.3384 136.814 96.3612 135.185 97.621 133.746C101.459 129.171 105.892 127.515 111.689 128.404C115.585 128.969 119.14 130.937 121.688 133.938C127.455 140.392 127.253 146.169 123.455 153.44" stroke="#010101" stroke-width="3.2243" stroke-linecap="round" stroke-linejoin="round"/>
<path d="M155.268 160.722C154.723 160.358 155.672 157.056 155.834 156.571C157.124 152.646 159.901 149.382 163.57 147.482C171.488 143.442 185.637 147.674 187.183 157.329C187.356 159.385 187.073 161.454 186.354 163.388C185.728 165.408 185.031 167.61 183.415 169.125" stroke="#010101" stroke-width="3.2243" stroke-linecap="round" stroke-linejoin="round"/>
<path d="M176.285 192.828C169.529 205.038 143.068 209.179 127.647 206.432C119.193 204.937 106.761 202.523 97.1766 200.483C74.1701 195.595 61.2126 185.334 46.5785 165.57C43.3366 161.176 40.4179 156.48 40.2058 150.895C39.7311 138.382 50.3052 119.587 57.8394 110.498C61.2732 106.316 65.6462 102.67 68.7872 98.2974C70.2262 96.29 71.2808 94.0335 71.8978 91.6419C72.7865 87.9152 73.4127 81.5425 74.0994 75.8363C75.4831 64.5149 75.6649 45.4169 85.5017 37.1051C88.463 34.7367 92.0491 33.2805 95.8233 32.9138C100.56 32.4795 110.599 33.7117 114.376 36.7516C121.557 42.5486 121.244 77.2502 114.81 84.3097C112.003 87.3395 88.2083 88.2485 83.8555 86.8245C82.7519 86.42 81.8402 85.6163 81.3003 84.5723C74.0893 70.4331 98.7117 73.2509 105.872 73.3822C107.185 73.3822 110.053 73.1903 110.265 71.9076C110.62 69.0236 110.745 66.1159 110.639 63.212C110.467 58.8491 109.781 53.7994 107.205 49.9919C106.283 48.5801 105.056 47.3933 103.614 46.5193C102.172 45.6453 100.552 45.1063 98.8733 44.9422C86.451 43.9323 87.5923 66.6761 86.4106 74.0184" stroke="#010101" stroke-width="4.29942" stroke-linecap="round" stroke-linejoin="round"/>
<path d="M186.667 184.557C189.051 184.557 196.03 185.789 197.908 183.668C199.383 182.022 199.766 178.547 197.999 177.214C196.989 176.477 195.979 176.497 194.646 176.265C192.64 175.955 190.601 175.925 188.586 176.174C181.325 177.386 174.245 180.406 166.863 180.507C153.562 180.688 119.395 174.78 107.377 169.216C100.802 166.186 77.0181 144.108 71.1908 146.694C68.7887 147.863 66.8782 149.846 65.7977 152.289C64.78 154.892 64.8126 157.789 65.8886 160.368C67.3429 164.267 70.9383 167.175 76.4021 170.65C82.9263 174.75 91.2785 179.911 98.0855 183.648C102.802 186.233 116.264 190.172 121.617 190.717C133.736 191.949 140.988 193.272 152.925 192.616C162.308 192.111 171.306 192.313 180.729 191.141C184.769 190.626 189.182 189.889 190.435 187.849C191.939 185.566 188.596 184.849 186.667 184.557Z" stroke="#010101" stroke-width="3.2243" stroke-linecap="round" stroke-linejoin="round"/>
<path d="M117.062 81.7546C117.234 81.4113 119.537 81.7546 119.87 81.7546C132.696 82.4818 157.238 87.6931 157.147 87.8143C156.844 87.7032 167.246 77.3008 173.306 72.8873C187.445 62.6566 197.979 50.4464 214.643 62.6566C216.592 64.0807 225.015 73.5034 219.551 80.5124C216.521 84.4411 204.008 97.1764 201.372 101.509C198.938 105.549 194.444 106.559 190.97 109.235C190.317 109.819 189.829 110.564 189.556 111.396C186.607 118.739 196.706 119.819 199.837 123.273C201.796 125.435 202.12 129.05 202.392 131.817C202.604 134.019 202.322 134.171 202.14 136.574" stroke="#010101" stroke-width="4.29942" stroke-linecap="round" stroke-linejoin="round"/>
<path d="M205.119 138.493C207.412 140.442 205.685 145.785 204.109 144.947C198.908 142.26 192.081 140.584 184.92 139.382C175.77 137.847 164.984 137.524 155.733 137.029C152.299 136.847 147.189 136.736 142.604 135.009C142.604 135.009 150.35 132.272 152.198 131.787C156.106 130.865 160.11 130.411 164.126 130.434C169.563 130.217 175.01 130.463 180.406 131.171C191.626 132.575 203.2 136.877 205.119 138.493Z" stroke="#010101" stroke-width="4.29942" stroke-linecap="round" stroke-linejoin="round"/>
<path d="M125.425 154.733C128.303 155.379 131.818 155.894 134.231 153.955C137.312 151.471 139.463 147.603 141.119 144.068C147.956 129.464 133.797 126.717 122.001 122.991C114.154 120.516 105.044 117.204 96.7524 117.557C91.5815 117.789 87.2691 121.597 82.4214 123.213C80.6944 123.768 75.6851 123.506 74.2408 124.556C74.4574 124.973 74.7073 125.371 74.9882 125.748C76.7933 128.561 78.896 131.171 81.2599 133.534C87.461 139.594 94.5407 143.109 102.307 146.664C109.762 150.025 117.498 152.725 125.425 154.733V154.733Z" stroke="#010101" stroke-width="4.29942" stroke-linecap="round" stroke-linejoin="round"/>
<path d="M137.746 151.279C138.056 151.474 138.35 151.693 138.625 151.935C142.988 155.076 147.149 158.52 152.178 160.621C155.582 162.035 159.086 162.984 162.56 164.196C172.074 167.499 181.749 170.256 191.929 168.963C196.979 168.296 198.534 166.943 201.463 162.742C205.947 156.248 206.018 152.016 203.301 145.229" stroke="#010101" stroke-width="3.2243" stroke-linecap="round" stroke-linejoin="round"/>
<path d="M143.078 133.797C142.695 133.888 142.977 133.009 142.866 132.635C142.517 131.478 142.032 130.366 141.422 129.323C139.249 125.4 135.935 122.23 131.919 120.233C129.017 118.973 125.96 118.103 122.829 117.648L119.961 117.092L118.022 116.729" stroke="#010101" stroke-width="3.2243" stroke-linecap="square" stroke-linejoin="round"/>
<path d="M137.726 153.814C137.726 153.814 135.787 158.54 134.363 159.742C126.041 166.731 114.376 163.217 104.67 161.651" stroke="#010101" stroke-width="3.2243" stroke-linecap="square" stroke-linejoin="round"/>
<path d="M195.959 168.004C195.807 168.246 196.545 168.004 196.797 168.095C198.161 168.65 198.07 169.458 197.181 170.892C193.394 177.073 171.034 172.76 165.146 171.811" stroke="#010101" stroke-width="3.2243" stroke-linecap="round" stroke-linejoin="round"/>
<path d="M163.348 168.973C163.348 168.973 163.802 170.357 163.903 170.599C164.399 172.096 164.764 173.634 164.994 175.194" stroke="#010101" stroke-width="3.2243" stroke-linecap="square" stroke-linejoin="round"/>
</g>
</svg>
