<?xml version="1.0" encoding="utf-8"?>
<!-- Generator: Adobe Illustrator 25.4.1, SVG Export Plug-In . SVG Version: 6.00 Build 0)  -->
<svg version="1.1" id="Layer_1" xmlns="http://www.w3.org/2000/svg" xmlns:xlink="http://www.w3.org/1999/xlink" x="0px" y="0px"
	 viewBox="0 0 451 451" style="enable-background:new 0 0 451 451;" xml:space="preserve">
<style type="text/css">
	.st0{fill:#FFFFFF;}
	.st1{fill:#EC297B;}
	.st2{fill:#231F20;}
	.st3{fill:#404041;}
	.st4{fill:#D0D2D3;}
	.st5{fill:#58595B;}
</style>
<circle class="st0" cx="225.5" cy="225.5" r="225.5"/>
<circle class="st1" cx="226.18" cy="225.23" r="221.21"/>
<polygon class="st2" points="218.5,372.7 215.15,329.61 253.28,356.47 "/>
<polygon class="st2" points="301.28,226.11 273.03,226.11 225.03,356.47 253.28,356.47 "/>
<polygon class="st3" points="273.1,226.11 263.15,199.26 215.15,329.61 225.1,356.47 "/>
<polygon class="st4" points="138.19,365.95 83.54,365.95 199.25,45.47 253.89,45.47 "/>
<polygon class="st0" points="363.07,365.95 308.42,365.95 199.25,45.47 253.89,45.47 "/>
<polygon class="st5" points="348.43,98.84 320.18,98.84 272.18,229.2 300.43,229.2 "/>
<polygon class="st3" points="320.25,98.84 310.3,71.99 262.3,202.34 272.25,229.2 "/>
<path class="st4" d="M338.33,71.99c-2.66,0-28.02,0-28.02,0l9.94,26.85h28.18L338.33,71.99z"/>
</svg>
