<svg width="256" height="256" viewBox="0 0 256 256" fill="none" xmlns="http://www.w3.org/2000/svg">
<path d="M128.18 256C198.745 256 255.95 198.795 255.95 128.23C255.95 57.6646 198.745 0.460083 128.18 0.460083C57.6146 0.460083 0.410034 57.6646 0.410034 128.23C0.410034 198.795 57.6146 256 128.18 256Z" fill="#EC297B"/>
<path d="M123.744 213.408L121.809 188.519L143.833 204.034L123.744 213.408Z" fill="#231F20"/>
<path d="M171.557 128.738H155.24L127.516 204.034H143.833L171.557 128.738Z" fill="#231F20"/>
<path d="M155.281 128.738L149.534 113.23L121.809 188.519L127.556 204.034L155.281 128.738Z" fill="#404041"/>
<path d="M77.3573 209.509H45.7917L112.625 24.4014H144.185L77.3573 209.509Z" fill="#D0D2D3"/>
<path d="M207.247 209.509H175.681L112.625 24.4014H144.185L207.247 209.509Z" fill="white"/>
<path d="M198.791 55.2277H182.474L154.749 130.523H171.066L198.791 55.2277Z" fill="#58595B"/>
<path d="M182.514 55.2277L176.767 39.7192L149.043 115.009L154.79 130.523L182.514 55.2277Z" fill="#404041"/>
<path d="M192.957 39.7192C191.421 39.7192 176.773 39.7192 176.773 39.7192L182.514 55.2277H198.791L192.957 39.7192Z" fill="#D0D2D3"/>
</svg>
