<svg width="256" height="256" viewBox="0 0 256 256" fill="none" xmlns="http://www.w3.org/2000/svg">
<g clip-path="url(#clip0_10_73)">
<path d="M128 256C198.692 256 256 198.693 256 128C256 57.3077 198.692 0.00012207 128 0.00012207C57.3076 0.00012207 0 57.3077 0 128C0 198.693 57.3076 256 128 256Z" fill="black"/>
<path d="M166.686 18.5656C166.686 18.5656 152.155 35.1599 149.92 72.0945L135.389 101.172L155.508 88.2391C155.508 88.2391 160.538 85.04 166.685 85.0413C172.833 85.0427 177.863 88.2942 177.863 88.2942L197.982 101.172L183.451 72.0945C181.216 35.1599 166.686 18.5656 166.686 18.5656Z" fill="#B2B2B2" stroke="black" stroke-width="0.147864"/>
<path d="M119.139 31.9362C119.139 31.9362 86.3391 69.3954 81.293 152.769L48.4929 218.407L93.9084 189.213C93.9084 189.213 105.262 181.992 119.138 181.995C133.016 181.998 144.37 189.338 144.37 189.338L189.785 218.407L156.985 152.769C151.939 69.3954 119.139 31.9362 119.139 31.9362Z" fill="#E5E5E5"/>
</g>
<defs>
<clipPath id="clip0_10_73">
<rect width="256" height="256" fill="white"/>
</clipPath>
</defs>
</svg>
