<?xml version="1.0" encoding="UTF-8" standalone="no"?>
<svg
   width="256"
   height="256"
   viewBox="0 0 192 192"
   version="1.1"
   id="svg83"
   xmlns="http://www.w3.org/2000/svg"
   xmlns:svg="http://www.w3.org/2000/svg">
  <defs
     id="defs83" />
  <g
     id="g83"
     transform="matrix(1.3568177,0,0,1.3304531,-193.95582,-195.36276)">
    <path
       fill="#fdfdfd"
       stroke="#fdfdfd"
       stroke-width="0.0190628"
       opacity="1"
       d="m 208.38129,151.74965 c 1.3827,0.10167 2.68406,-0.44734 4.06675,-0.38633 0.95567,0.0406 1.91136,-0.0814 2.84672,0.12199 0.83367,0.14234 1.72836,-0.061 2.54171,0.22367 2.56204,0.10168 5.10375,0.52868 7.62512,0.89469 0.97602,0.22367 1.8707,0.65068 2.84672,0.81335 1.28103,0.22366 2.48071,0.75233 3.76174,1.03701 1.17934,0.44734 2.2977,1.05736 3.55839,1.32169 1.11834,0.244 2.07403,0.91502 3.15172,1.30135 1.28102,0.63035 2.48071,1.36237 3.82273,1.85037 0.85401,0.67102 1.9927,0.89469 2.82637,1.6267 1.3827,1.09802 2.98906,1.85036 4.37175,2.96871 1.26069,1.01669 2.52138,2.09437 3.9244,2.96872 0.63035,0.38634 0.99635,1.03702 1.52503,1.52502 0.71168,0.48802 1.44369,0.97603 1.95203,1.70804 0.38635,0.61001 1.03702,0.97602 1.50469,1.54536 0.36601,0.46767 0.93535,0.67101 1.36237,1.07768 0.81334,1.24036 1.78936,2.37904 2.84672,3.4364 l 0.44733,0.81335 c 0.42701,0.75233 0.87434,1.50468 1.52503,2.1147 0.77268,1.17935 1.68769,2.27737 2.3587,3.53805 0.36601,0.56935 0.87435,1.07769 1.09802,1.72837 0.32535,0.89468 0.99635,1.60635 1.46403,2.44004 0.26433,0.52868 0.427,1.11836 0.75235,1.6267 0.73201,1.17936 1.19968,2.50103 1.6877,3.8024 0.38633,0.671 0.85401,1.30136 1.03701,2.07403 0.48801,1.6267 1.26069,3.13139 1.78936,4.73775 0.44735,0.89469 0.42701,1.93171 0.79301,2.86705 0.30501,0.87435 0.42701,1.78936 0.67102,2.68404 0.20333,0.89469 0.48801,1.8097 0.50834,2.74505 0.67101,3.00939 1.05735,6.07978 1.28102,9.15016 0.20333,1.60636 0.0406,3.25339 0.10167,4.88008 0.061,0.61002 -0.14233,1.22002 -0.16267,1.83003 0.0203,1.83004 -0.183,3.68041 -0.44734,5.49011 -0.061,1.03702 -0.30501,2.0537 -0.50835,3.09071 -0.22367,1.6877 -0.732,3.33473 -1.03701,5.04275 -0.54901,1.40303 -0.71168,2.94839 -1.38269,4.33108 -0.183,0.97601 -0.52867,1.91137 -1.01669,2.76538 -0.366,0.91502 -0.52867,1.89103 -0.93535,2.76538 -0.93534,1.52503 -1.48436,3.23306 -2.33837,4.79875 -0.34567,0.56934 -0.40667,1.28102 -0.83367,1.78937 -0.91503,1.03701 -1.30137,2.44003 -2.25704,3.43639 -0.63035,0.63034 -0.85402,1.54536 -1.38269,2.25704 -0.75235,1.34202 -2.05371,2.31804 -2.56205,3.78206 -1.66736,1.58603 -2.92805,3.5584 -4.59541,5.16476 -2.11471,2.01303 -4.10741,4.20907 -6.50679,5.87643 -0.69134,0.67101 -1.50468,1.17935 -2.21637,1.85037 -0.77267,0.58968 -1.70802,0.95568 -2.46037,1.60636 -0.77267,0.67101 -1.64702,1.19969 -2.52137,1.72836 -1.09802,0.46768 -2.01304,1.28103 -3.07039,1.83003 -0.93535,0.48801 -1.78937,1.15902 -2.82639,1.40303 -1.15902,0.32533 -2.21637,0.89469 -3.29405,1.38269 -1.5047,0.56934 -2.96872,1.17936 -4.51409,1.60636 -0.93535,0.50834 -2.01303,0.58968 -3.02971,0.77268 -2.09437,0.54901 -4.16841,1.17935 -6.32377,1.36235 -3.21273,0.63035 -6.48645,0.79302 -9.76017,0.77269 -1.5047,-0.24401 -3.05006,0.061 -4.53441,-0.30501 -1.7487,-0.061 -3.41607,-0.63034 -5.16476,-0.71168 -0.85402,-0.10167 -1.66737,-0.46767 -2.50104,-0.61001 -0.56934,-0.122 -1.1387,-0.14234 -1.66736,-0.40667 -0.85402,-0.36601 -1.8097,-0.32534 -2.68405,-0.63034 -0.67101,-0.24401 -1.32169,-0.54902 -2.01304,-0.73202 -1.58603,-0.427 -2.98905,-1.36236 -4.59541,-1.74869 -1.28102,-0.46768 -2.62305,-0.89469 -3.76173,-1.72837 -0.52868,-0.38633 -1.15902,-0.61 -1.70804,-0.95569 -0.93534,-0.71167 -2.09436,-1.07768 -3.00938,-1.85036 -0.58968,-0.50834 -1.30135,-0.85401 -1.8707,-1.38269 -0.61001,-0.50834 -1.46402,-0.65067 -1.9927,-1.26069 -0.63034,-0.77267 -1.66736,-1.01668 -2.27737,-1.78935 -0.61001,-0.77269 -1.58603,-1.09803 -2.23671,-1.83004 -0.97601,-0.87435 -1.8097,-1.8707 -2.84671,-2.66372 -0.99635,-1.13868 -2.11471,-2.21636 -3.31439,-3.17204 -0.85402,-1.15903 -1.62669,-2.39938 -2.64338,-3.4364 -1.11836,-1.85037 -2.54171,-3.47707 -3.70073,-5.28676 -0.244,-0.58968 -0.61001,-1.09802 -1.01668,-1.58602 -0.54902,-0.61002 -0.73202,-1.42336 -1.17936,-2.07405 -0.32534,-0.56934 -0.87434,-0.99634 -0.99636,-1.64702 -0.24399,-1.01668 -0.79301,-1.91137 -1.32167,-2.78572 -0.38635,-0.93534 -0.75236,-1.89103 -1.28103,-2.76538 -0.85401,-1.40303 -0.95569,-3.09071 -1.7487,-4.53441 -0.44734,-0.75234 -0.44734,-1.64703 -0.79301,-2.4197 -0.46768,-1.19969 -0.65068,-2.46038 -1.03702,-3.66006 -0.50834,-1.46403 -0.61001,-2.98906 -0.99635,-4.47342 -0.0814,-1.13868 -0.30501,-2.23671 -0.48801,-3.35506 -0.305,-1.01668 -0.69134,-2.07404 -0.48801,-3.13138 0.18301,0.0204 0.52868,0.0814 0.71169,0.10166 0,0.56935 0.061,1.19969 0.48801,1.60637 0.38634,0.28467 1.2252,0.26557 1.67254,0.32657 0.0406,0.22366 1.05015,-0.0889 1.09081,0.13473 0.75236,-0.366 0.13574,-0.17628 0.94909,-0.21696 0.061,-0.12199 0.25262,-0.0817 0.31362,-0.20368 0.26434,-0.16267 0.54901,-0.32534 0.83368,-0.46768 -0.22367,0.34568 -0.46767,0.65068 -0.73201,0.97602 0.89468,-0.0406 1.76903,-0.0406 2.66371,-0.061 0.061,2.03337 0.67102,3.9854 1.07769,5.95777 0.32533,0.95568 0.63034,1.91137 0.77267,2.90771 0.10168,0.79301 0.65068,1.40303 0.81335,2.1757 0.22367,0.95569 0.40668,1.91137 0.83369,2.78572 0.69134,1.44369 1.32169,2.90772 1.95203,4.37174 0.71167,1.15902 1.13868,2.46039 1.85037,3.6194 0.75234,1.40302 1.64703,2.74505 2.37903,4.14807 0.93536,1.30136 1.8707,2.60272 2.90772,3.80241 0.71168,1.15901 1.50469,2.27736 2.58238,3.13138 0.56934,0.44735 0.87435,1.13868 1.32169,1.70803 0.93536,1.28102 2.35871,2.1147 3.33472,3.37539 0.63034,0.87435 1.6877,1.26069 2.44004,2.01303 1.01668,0.97603 2.09438,1.91137 3.33473,2.58238 1.24036,1.01669 2.66371,1.8097 3.96507,2.74505 1.52502,0.65068 2.90771,1.54536 4.33107,2.33837 0.71168,0.26434 1.50469,0.30501 2.13504,0.75235 l 0.32533,0.122 c 1.8097,0.42701 3.4364,1.40302 5.2461,1.85037 1.30135,0.50834 2.68404,0.69135 4.02606,1.15902 0.99636,0.244 2.05371,0.22367 3.0704,0.46767 0.87434,0.244 1.78936,0.44734 2.72471,0.44734 0.89468,0 1.76903,0.28468 2.64337,0.46768 2.03337,-0.22368 4.10741,0.16267 6.12044,-0.14234 1.32169,-0.16267 2.64338,-0.30501 3.94474,-0.63034 1.5047,-0.36601 3.07039,-0.36601 4.55475,-0.85402 1.09802,-0.32534 2.27737,-0.36601 3.35506,-0.85401 1.46402,-0.46767 2.84671,-1.24036 4.3514,-1.60636 1.07768,-0.22367 1.9927,-0.87435 3.00939,-1.24036 1.17935,-0.46767 2.15537,-1.30135 3.35506,-1.72836 1.13867,-0.38634 2.03336,-1.19969 3.09072,-1.7487 0.91501,-0.488 1.56568,-1.38269 2.52138,-1.8097 1.62669,-0.77268 2.72471,-2.29771 4.2904,-3.19238 0.71167,-0.38634 1.26069,-0.95569 1.6877,-1.62669 0.16267,-0.18301 0.34566,-0.36602 0.52867,-0.54902 0.61,-0.58968 1.28102,-1.07768 1.91137,-1.64703 0.48801,-0.65067 0.79301,-1.46402 1.42335,-2.01303 0.95569,-0.89468 1.99271,-1.76903 2.54172,-2.98906 0.22367,-0.549 0.71167,-0.89467 1.07768,-1.32168 1.03702,-1.24035 1.91136,-2.60272 2.72471,-3.98541 0.81335,-1.32169 1.85037,-2.52137 2.33838,-4.00573 0.48801,-1.44369 1.48436,-2.62304 2.01303,-4.02607 0.40668,-1.03701 0.89468,-2.01303 1.22003,-3.07039 0.83367,-2.07403 1.28101,-4.29041 1.97237,-6.42543 0.44734,-1.3217 0.488,-2.74506 0.91501,-4.06675 0.427,-2.2977 0.75235,-4.61574 0.75235,-6.95411 0.28467,-2.29772 0.12199,-4.61575 0.16267,-6.91346 -0.28468,-3.94473 -0.81335,-7.9098 -1.78937,-11.75287 -0.50835,-1.19969 -0.69135,-2.50104 -1.17936,-3.72106 -0.26433,-0.71168 -0.305,-1.46403 -0.58968,-2.17571 -1.32168,-3.6194 -2.74504,-7.23878 -4.81908,-10.49218 -0.89467,-1.34202 -1.48435,-2.88738 -2.60271,-4.08708 -0.89468,-1.34201 -1.9927,-2.50103 -2.86705,-3.84305 -0.79301,-0.85402 -1.42335,-1.83003 -2.44004,-2.44005 -0.54901,-0.93535 -1.40302,-1.58603 -2.09436,-2.37904 -0.40668,-0.488 -1.09802,-0.67101 -1.40303,-1.24036 -0.50834,-0.83367 -1.46402,-1.24035 -2.07404,-1.9927 -1.64702,-1.17934 -3.19239,-2.52137 -4.83941,-3.70072 -1.40303,-0.65068 -2.54171,-1.7487 -3.98541,-2.31804 -1.26068,-0.75235 -2.62305,-1.30136 -3.94473,-1.93171 -1.8097,-0.89467 -3.66006,-1.68769 -5.57143,-2.37903 -1.66736,-0.40667 -3.27372,-1.07769 -4.98175,-1.3827 -2.23671,-0.65067 -4.57508,-0.81335 -6.87279,-1.07768 -0.83368,-0.16267 -1.6877,-0.14234 -2.54171,-0.16267 -2.3587,0 -4.71741,-0.0203 -7.07613,0.061 -2.44003,0.366 -4.92074,0.48801 -7.27945,1.19969 -0.89468,0.20333 -1.8097,0.38633 -2.66371,0.73201 -1.28102,0.44734 -2.64338,0.65067 -3.88374,1.19969 -1.19968,0.52867 -2.46037,0.91501 -3.61939,1.54535 -1.3827,0.79301 -2.96872,1.24036 -4.27008,2.17571 -1.05735,0.44734 -2.09436,0.97602 -3.00938,1.66736 -1.40303,0.71168 -2.60271,1.74869 -3.84307,2.68405 -1.54536,1.38269 -3.33472,2.48071 -4.65641,4.08707 -1.46402,1.17935 -2.56205,2.72471 -3.88373,4.0464 -0.65068,0.77268 -1.3827,1.48436 -1.99271,2.27737 -1.09801,1.36236 -1.93169,2.92805 -3.11105,4.22941 -1.03702,1.78936 -2.09436,3.57873 -3.11105,5.38843 -0.58968,0.81335 -0.83368,1.76903 -1.26069,2.66371 -0.63034,1.28103 -1.1997,2.60271 -1.68769,3.94473 -0.71169,1.6267 -0.99635,3.41606 -1.70804,5.06309 -0.50834,1.01668 -0.58966,2.15537 -0.93535,3.21273 -0.77268,3.68038 -1.40302,7.42179 -1.50468,11.18352 l -7.13713,4.02606 c -0.24401,-0.061 -0.50834,-0.14233 -0.75235,-0.20333 -0.0814,-0.83368 -0.122,-1.6877 -0.0814,-2.52137 0.12202,-1.01669 -0.061,-2.07404 0.22367,-3.07039 0,-1.19969 0.48801,-2.33837 0.46769,-3.53807 0.244,-1.03701 0.366,-2.07403 0.44734,-3.11105 0.38633,-1.17935 0.42701,-2.44004 0.71167,-3.66006 0.12201,-0.77267 0.42701,-1.48437 0.61001,-2.2367 0.24401,-1.42336 0.85402,-2.74506 1.11836,-4.16841 0.75234,-1.32169 0.95568,-2.84671 1.62669,-4.20907 0.46767,-0.95568 0.83368,-1.97237 1.40303,-2.88739 0.32534,-0.44734 0.305,-1.03702 0.488,-1.52502 0.91502,-1.7487 1.85037,-3.47706 2.70439,-5.22576 0.58967,-0.61001 1.03702,-1.32169 1.32169,-2.1147 0.24399,-0.65068 0.89467,-1.03702 1.17935,-1.66736 0.549,-1.15902 1.52503,-2.01304 2.15537,-3.13139 0.65067,-1.5657 2.2367,-2.46038 3.00939,-3.94473 0.549,-1.11836 1.66736,-1.70804 2.52137,-2.52138 0.73201,-0.50835 1.13869,-1.30136 1.76903,-1.91137 1.56569,-1.13869 2.80604,-2.62304 4.37174,-3.74139 1.85037,-1.09803 3.3144,-2.74506 5.20543,-3.76174 1.26068,-0.79302 2.52137,-1.54535 3.76173,-2.33837 1.15901,-0.38634 2.19603,-1.01669 3.21272,-1.66737 1.54536,-0.56934 2.82638,-1.72836 4.47341,-1.97237 1.26068,-0.32533 2.50104,-0.75233 3.72107,-1.24035 3.27372,-0.93535 6.54745,-2.01303 9.9635,-2.31804 1.13868,-0.183 2.31804,-0.32533 3.47705,-0.38634 z"
       id="path4"
       style="fill:#b3b3b3" />
    <path
       fill="#020202"
       stroke="#020202"
       stroke-width="0.0190628"
       opacity="1"
       d="m 212.02103,152.66467 c 1.13868,-0.34567 2.56204,-0.54902 3.51773,0.34567 0.58967,0.79301 1.28102,1.66736 1.07768,2.72472 -0.183,0.52867 -0.28468,1.19968 -0.79302,1.52502 -0.40667,0.26434 -0.83367,0.61001 -1.36235,0.58968 -0.83368,0 -1.66736,0 -2.50105,0.0204 -0.488,-0.75235 -1.32169,-1.40303 -1.26068,-2.35871 -0.10167,-1.09802 0.73202,-1.99271 1.32169,-2.84672 z"
       id="path5" />
    <path
       fill="#010101"
       stroke="#010101"
       stroke-width="0.0190628"
       opacity="1"
       d="m 189.1253,157.58542 c 0.79301,-0.28468 1.72836,-0.0814 2.48071,0.26434 1.48436,1.40303 1.42336,4.43274 -0.58968,5.32743 -0.73201,0.28466 -1.64703,0.915 -2.37904,0.305 -0.366,-0.28468 -0.81335,-0.58968 -0.89469,-1.07769 -0.14233,-0.69134 -0.38633,-1.34202 -0.58967,-2.01303 -0.061,-1.28103 1.07769,-2.07404 1.97237,-2.80605 z"
       id="path6" />
    <path
       fill="#020202"
       stroke="#020202"
       stroke-width="0.0190628"
       opacity="1"
       d="m 235.93344,157.68708 c 0.36601,-0.0814 0.73202,-0.20333 1.09801,-0.22367 0.52868,0.10168 0.91503,0.50835 1.36237,0.77268 1.07768,0.61002 1.32169,2.01304 1.40303,3.17206 -0.28468,0.83368 -0.85402,1.70803 -1.72837,1.99271 -1.13869,0.40667 -2.62305,0.16266 -3.33473,-0.89469 -0.79301,-1.05736 -0.427,-2.48071 -0.16267,-3.63973 0.10167,-0.67101 0.85403,-0.87434 1.36236,-1.17936 z"
       id="path7" />
    <path
       fill="#010102"
       stroke="#010102"
       stroke-width="0.0190628"
       opacity="1"
       d="m 201.54918,160.69648 c 2.35871,-0.71168 4.83942,-0.83369 7.27945,-1.1997 2.35872,-0.0814 4.71743,-0.061 7.07613,-0.061 0.85401,0.0204 1.70803,0 2.54171,0.16268 2.29771,0.26433 4.63608,0.427 6.87279,1.07768 1.70803,0.30501 3.31439,0.97602 4.98175,1.38269 1.91137,0.69135 3.76173,1.48436 5.57143,2.37904 1.32168,0.63035 2.68405,1.17935 3.94473,1.93171 1.4437,0.56934 2.58238,1.66735 3.98541,2.31803 1.64702,1.17936 3.19239,2.52138 4.83941,3.70073 0.61002,0.75235 1.5657,1.15903 2.07404,1.9927 0.30501,0.56935 0.99635,0.75235 1.40303,1.24036 0.69134,0.79301 1.54535,1.44369 2.09436,2.37903 1.01669,0.61002 1.64703,1.58604 2.44004,2.44005 0.87435,1.34203 1.97237,2.50105 2.86705,3.84306 1.11836,1.1997 1.70804,2.74506 2.60271,4.08707 2.07404,3.2534 3.4974,6.87279 4.81908,10.49219 0.28468,0.71168 0.32535,1.46402 0.58968,2.17571 0.48801,1.22002 0.67101,2.52137 1.17936,3.72106 0.97602,3.84306 1.50469,7.80814 1.78937,11.75286 -0.0406,2.29771 0.122,4.61575 -0.16267,6.91347 0,2.33837 -0.32535,4.6564 -0.75235,6.95411 -0.42701,1.32169 -0.46767,2.74505 -0.91501,4.06674 -0.69136,2.13503 -1.1387,4.35141 -1.97237,6.42543 -0.32535,1.05736 -0.81335,2.03339 -1.22003,3.0704 -0.52867,1.40303 -1.52502,2.58238 -2.01303,4.02607 -0.48801,1.48436 -1.52503,2.68404 -2.33838,4.00573 -0.81335,1.38269 -1.68769,2.74505 -2.72471,3.98541 -0.36601,0.427 -0.85401,0.77268 -1.07768,1.32168 -0.54901,1.22003 -1.58603,2.09438 -2.54172,2.98905 -0.63034,0.54902 -0.93534,1.36237 -1.42335,2.01304 -0.63035,0.56934 -1.30137,1.05735 -1.91137,1.64703 -0.0814,-0.0406 -0.22367,-0.10167 -0.305,-0.14234 0.549,-0.93535 1.40302,-1.62669 2.0537,-2.46037 0.73201,-0.93535 1.76903,-1.6267 2.27738,-2.72472 -0.46769,-0.38633 -0.97603,-0.71168 -1.48437,-0.99635 0.34567,-0.83368 1.17936,-1.24035 1.66737,-1.95203 0.50833,-0.71168 1.03701,-1.40302 1.46402,-2.15538 0.58968,-0.93534 1.48436,-1.74869 1.6267,-2.90771 0.22367,-1.64703 0.10166,-3.33472 0.10166,-5.00208 -0.061,-0.67101 0.0814,-1.44369 -0.48801,-1.93171 -0.0203,0.44735 0.0203,0.91502 0.0203,1.36236 -0.20333,0.14235 -0.427,0.20334 -0.63035,0.28468 0.0203,-2.62304 -0.183,-5.20543 -0.549,-7.78781 -0.32534,-1.30135 -0.38634,-2.64337 -0.87435,-3.90406 -0.22367,-0.58968 -0.26433,-1.24036 -0.34567,-1.89103 -0.40668,1.95202 -1.32169,3.70072 -2.09437,5.49009 -0.65068,1.9927 -2.27737,3.4364 -3.29405,5.2461 -0.42702,0.83367 -1.4437,1.17935 -1.8097,2.07402 -0.58968,1.34203 -1.09803,2.72472 -1.60637,4.12775 -0.36601,1.05734 -1.36235,1.72835 -1.87069,2.7247 -0.81335,1.52503 -1.44369,3.13139 -2.33838,4.57509 -0.69134,0.99635 -1.6877,1.76902 -2.27737,2.82638 -0.14234,0.26433 -0.38633,0.44734 -0.63034,0.61 -1.30136,0.77269 -2.41971,1.78937 -3.63973,2.66372 -0.77269,0.56934 -1.72836,0.77268 -2.50105,1.34203 -1.03702,0.71167 -2.19604,1.19968 -3.33472,1.70802 -1.91137,0.71168 -3.94473,1.01668 -5.95777,1.11836 1.66736,-0.75235 3.35506,-1.44369 5.00208,-2.21638 1.3217,-0.83367 2.72472,-1.56569 3.84307,-2.66371 0.71168,-0.63035 1.26069,-1.4437 2.0537,-1.97236 l 2.70438,-3.47707 c 0.50834,-0.71168 0.52868,-1.66736 1.11836,-2.31804 0.85401,-1.09802 1.28102,-2.44003 2.13503,-3.53806 -1.54535,0.89468 -3.25339,1.5047 -5.02242,1.7487 -1.58602,0.061 -3.13139,0.42701 -4.71742,0.30501 1.66737,-0.14234 2.98906,-1.28103 4.51408,-1.83003 1.11836,-0.38634 2.23671,-0.77268 3.21273,-1.4437 1.24035,-0.67101 2.15536,-1.8097 3.45673,-2.4197 0.81334,-0.34569 1.36235,-1.07769 2.01303,-1.66737 0.61001,-0.61 1.28101,-1.15902 1.99271,-1.66736 0.46766,-0.32534 0.58967,-0.89468 0.87434,-1.34202 0.52867,-0.77269 1.07768,-1.52502 1.48435,-2.37904 0.34569,-0.91502 0.46768,-1.89104 0.89469,-2.76539 0.22367,-0.0406 0.46768,-0.061 0.69135,-0.10166 0.20334,0.75234 -0.26435,1.46403 -0.0406,2.21637 0.56934,-1.07769 0.54901,-2.35871 1.03702,-3.47706 0.93535,-2.48071 0.85401,-5.18509 0.65068,-7.7878 -0.32535,-1.54536 -0.50835,-3.13139 -1.03703,-4.63608 -0.58967,-1.40302 -0.75233,-2.92806 -1.40302,-4.31075 -0.58967,-1.19968 -1.13869,-2.44004 -1.91136,-3.53805 -0.73201,-0.95569 -0.87435,-2.25704 -1.78936,-3.09073 -0.61001,-0.87434 -1.60637,-1.40302 -2.09437,-2.37904 -0.30502,-0.54901 -0.58968,-1.13867 -1.07769,-1.56569 -0.93534,-0.81334 -1.85037,-1.70803 -2.58238,-2.70438 -0.30501,-0.42701 -0.85401,-0.69135 -1.05734,-1.15903 0.061,-0.81335 0.427,-1.58602 0.75233,-2.33836 0.50835,-1.07769 0.77268,-2.27737 1.36236,-3.33473 0.87435,-1.72836 2.01304,-3.35506 3.4974,-4.65641 1.36235,-1.48436 3.19238,-2.78572 5.30709,-2.74504 0.67101,3.02971 0.488,6.14076 0.488,9.21115 -0.0203,2.31805 -0.10166,4.65641 -0.61,6.93379 -0.34568,1.60636 -1.48436,3.00938 -3.05006,3.51772 0.10168,0.99635 0.34568,1.97237 0.63035,2.92805 0.44734,0.73202 1.17935,1.26069 1.72836,1.91137 0.50834,0.52867 1.48121,1.84093 1.82688,2.47128 0.16266,0.58967 -0.10405,-0.32853 0.18062,0.22048 l 0.47321,0.8463 c 0.24401,0.54901 0.40667,1.13869 0.67101,1.70804 1.07768,1.74869 1.24036,3.86339 1.91137,5.77476 0.65068,-1.78937 1.32169,-3.59907 1.34202,-5.51043 0.32534,-2.15537 0.12201,-4.35141 0.28467,-6.50678 0.20334,-1.30136 -0.22367,-2.56205 -0.26433,-3.84307 -0.0204,-1.76903 -0.12201,-3.55839 0.10167,-5.30709 0.20333,-4.47341 -0.63036,-8.90615 -1.4437,-13.29823 -0.58968,-1.50468 -0.54901,-3.15172 -1.11835,-4.65641 -0.50834,-1.91137 -1.70803,-3.53807 -2.56204,-5.28676 -1.17935,0.93536 -2.21638,2.03338 -3.3754,2.98905 -0.89468,1.26069 -1.93169,2.39938 -2.96871,3.51773 -1.30136,1.89103 -2.90772,3.57873 -3.9244,5.65277 -0.89469,1.28102 -1.64703,2.66371 -2.54172,3.96506 -0.50834,0.77269 -0.36601,1.80971 -0.122,2.66372 -0.85401,-1.28103 -2.31804,-1.87071 -3.57873,-2.66372 -1.36235,-0.65067 -2.86704,-0.89467 -4.2904,-1.34202 -1.52503,-0.44734 -3.09073,0.0204 -4.61575,0.061 -2.03337,0.44735 -4.1074,0.56934 -6.14077,0.99635 -1.07769,0.18301 -2.09437,0.63035 -3.17206,0.91502 -0.44734,-0.69135 -0.93535,-1.40302 -1.15902,-2.21637 -0.38634,-1.24036 -1.24035,-2.23671 -1.85037,-3.3754 -0.61,-0.99634 -1.46402,-1.80969 -2.01303,-2.84671 -0.79301,-0.89468 -1.58602,-1.83002 -2.56204,-2.54171 -0.54901,-0.38633 -0.97603,-0.93535 -1.54536,-1.30136 -0.91502,-0.63034 -1.72837,-1.44369 -2.74505,-1.93169 -1.01668,-0.48802 -1.87071,-1.38269 -3.00938,-1.60636 -0.87435,0.22367 -1.48437,1.11834 -1.8097,1.91135 -0.36601,1.6877 -0.34567,3.4364 -0.36601,5.14443 -0.20334,1.89103 -0.10167,3.8024 -0.122,5.69344 -0.061,2.52137 0.0406,5.02241 0.36601,7.52346 0.183,1.42335 0.16266,2.88738 0.71168,4.22941 0.16267,1.72836 0.93139,2.8889 1.07373,4.59692 -0.0814,0.42701 -0.78907,1.40151 -0.91106,1.82852 -0.061,-0.40668 -0.14233,-0.79302 -0.20335,-1.17935 l 0.50835,4.45307 0.14233,-0.28467 c 0.22367,-0.48801 1.58638,-5.03931 -0.21944,-2.66068 0.20334,0.18301 2.77304,-4.41319 2.9357,-4.18951 0.10167,0.83368 -1.63856,7.60253 -1.37424,8.43622 -0.12199,1.32169 -0.61001,2.58237 -0.77267,3.9244 -0.14233,1.26069 -0.50834,2.52137 -0.46768,3.82273 0.0406,0.87435 -0.366,1.7487 -0.12199,2.62305 l 1.06973,0.72958 c -0.10166,0.56934 0.19038,0.46752 0.17005,1.0572 -0.0203,0.50833 0.0671,1.08163 0.0875,1.61031 0.0203,1.28101 -0.63909,1.41455 -0.0697,2.59391 0.20335,0.427 -0.72884,1.04445 -0.42384,1.00379 0.42701,1.30135 0.69135,2.64338 1.38269,3.82272 0.44734,0.77269 0.93536,1.5047 1.44369,2.21638 0.34568,0.46767 0.52868,1.07768 1.03702,1.40303 0.79301,0.488 1.52503,1.03701 2.27737,1.60635 0.79301,0.65068 1.58603,1.38269 2.62305,1.62669 1.26069,0.24401 2.19604,1.24035 3.45673,1.4437 1.74869,0.28467 3.51773,0.10167 5.26642,0.183 1.54536,0.18301 3.11105,0.122 4.67675,0.0814 1.34202,-0.22368 2.72471,0.061 4.0464,-0.34567 1.17936,-0.22367 2.27738,-0.75236 3.47706,-0.93535 -0.244,0.305 -0.52867,0.56934 -0.89467,0.732 -1.0167,0.56935 -2.03338,1.13869 -3.07039,1.66737 -1.99271,0.54901 -4.04641,0.87435 -6.05944,1.34202 -1.72838,0.10167 -3.47707,0.18301 -5.20543,0.0203 -1.34203,-0.26433 -2.68404,-0.54902 -4.02607,-0.89468 -1.15902,-0.28468 -2.03337,-1.15902 -3.11105,-1.64702 -0.81335,-0.38635 -1.5657,-0.89469 -2.41971,-1.24036 -0.48801,-0.20333 -0.93534,-0.46768 -1.32169,-0.81335 -0.48801,2.07404 -0.38634,4.2294 -0.73202,6.34411 -0.56934,2.41971 -0.63034,4.96142 -1.24035,7.38113 -0.50834,3.00938 -1.11834,5.99844 -1.76902,8.98749 -0.75236,1.48435 -1.42336,2.98905 -2.09438,4.51407 -0.16267,0.67101 -0.16267,1.3827 -0.32534,2.0537 0.87435,0.14235 1.74871,0.30501 2.64338,0.48801 -0.58967,0.14234 -1.17935,0.28468 -1.7487,0.38634 0.40668,0.67102 1.19969,0.52867 1.85037,0.34567 0.10168,0.10167 0.28468,0.26434 0.38634,0.34568 0.244,0.22367 0.46767,0.46767 0.69135,0.71167 -0.244,0.26435 -0.48801,0.52869 -0.71169,0.81335 -1.34202,-0.46766 -2.72471,-0.65068 -4.02606,-1.15901 -1.8097,-0.44735 -3.4364,-1.42336 -5.2461,-1.85037 l -0.32533,-0.12201 c -0.63035,-0.44733 -1.42336,-0.488 -2.13504,-0.75234 -1.42336,-0.79301 -2.80605,-1.6877 -4.33107,-2.33838 -1.30136,-0.93534 -2.72471,-1.72835 -3.96507,-2.74504 -1.24035,-0.67101 -2.31805,-1.60636 -3.33473,-2.58238 -0.75234,-0.75234 -1.8097,-1.13868 -2.44004,-2.01303 -0.97601,-1.26069 -2.39937,-2.09437 -3.33472,-3.3754 -0.44734,-0.56934 -0.75235,-1.26068 -1.32169,-1.70802 -1.07769,-0.85402 -1.8707,-1.97237 -2.58238,-3.13139 -1.03702,-1.19969 -1.97236,-2.50104 -2.90772,-3.8024 -0.732,-1.40302 -1.62669,-2.74506 -2.37903,-4.14807 -0.71169,-1.15902 -1.1387,-2.46038 -1.85037,-3.6194 -0.63034,-1.46403 -1.26069,-2.92805 -1.95203,-4.37174 -0.42701,-0.87435 -0.61002,-1.83004 -0.83369,-2.78572 -0.16267,-0.77267 -0.71167,-1.38269 -0.81335,-2.1757 -0.14233,-0.99635 -0.44734,-1.95203 -0.77267,-2.90771 -0.40667,-1.97238 -1.01668,-3.9244 -1.07769,-5.95777 -0.89468,0.0204 -1.76903,0.0204 -2.66371,0.061 l -0.47673,0.0319 c -1.86791,-0.14627 -1.39211,-0.0317 -2.34965,-0.21489 -0.44734,-0.061 -0.91501,-0.0814 -1.30135,-0.36601 -0.42701,-0.40668 -0.48801,-1.03702 -0.48801,-1.60636 -0.0203,-1.36236 -0.0203,-2.70438 -0.0203,-4.06674 -0.0814,-2.23671 -0.0637,-1.96592 0.28191,-4.16196 l 0.34843,0.0342 c 2.15537,-0.0406 4.35141,-0.18301 6.50678,0.10167 0.10167,-3.76173 0.73201,-7.50314 1.50469,-11.18352 0.34568,-1.05736 0.427,-2.19605 0.93534,-3.21273 0.71169,-1.64703 0.99636,-3.43639 1.70804,-5.06309 0.488,-1.34202 1.05735,-2.6637 1.68769,-3.94473 0.42701,-0.89468 0.67102,-1.85036 1.2607,-2.66371 1.01668,-1.8097 2.07403,-3.59907 3.11105,-5.38843 1.17935,-1.30136 2.01303,-2.86705 3.11105,-4.22941 0.61001,-0.79301 1.34202,-1.50469 1.9927,-2.27737 1.32169,-1.32169 2.41971,-2.86705 3.88373,-4.0464 1.3217,-1.60636 3.11105,-2.70438 4.65642,-4.08707 1.24036,-0.93536 2.44003,-1.97237 3.84306,-2.68405 0.91503,-0.69134 1.95203,-1.22002 3.00939,-1.66736 1.30135,-0.93535 2.88738,-1.3827 4.27007,-2.17571 1.15902,-0.63034 2.41971,-1.01668 3.6194,-1.54536 1.24035,-0.54901 2.60271,-0.75234 3.88374,-1.19968 0.85401,-0.34568 1.76902,-0.52868 2.66371,-0.73201 z"
       id="path8"
       style="fill:#000000" />
    <path
       fill="#e8e9ea"
       stroke="#e8e9ea"
       stroke-width="0.0190628"
       opacity="1"
       d="m 182.51685,171.55466 c 0.36601,-0.20334 0.75235,-0.38634 0.99635,-0.71167 0,0.50833 0.10167,1.03701 0.12201,1.54534 0.0406,6.50679 0.061,13.01356 0.0406,19.50001 -0.0203,0.0814 -0.0406,0.26434 -0.0406,0.34567 -0.24401,0.42701 -0.50834,0.87435 -0.58968,1.38269 -0.34568,2.21638 -0.26434,4.47342 -0.65068,6.68979 0.0203,-6.05944 0.0203,-12.09854 0.0203,-18.15798 0.0406,-3.53806 -0.061,-7.07612 0.10167,-10.59385 z"
       id="path9"
       style="fill:#999999" />
    <path
       fill="#030303"
       stroke="#030303"
       stroke-width="0.0190628"
       opacity="1"
       d="m 255.27077,175.47906 c 0.38635,-1.26069 1.34202,-2.33837 2.68406,-2.56204 0.79301,0.14233 1.60636,0.40668 2.17569,0.99635 0.38634,0.56934 0.69989,1.23116 0.8957,1.8212 -0.0481,0.41094 -0.061,0.65067 -0.20334,0.93534 -0.183,0.58968 -0.10268,1.20853 -0.61102,1.63553 -1.28103,0.48801 -2.96873,0.61001 -3.96507,-0.488 -0.50834,-0.69136 -0.71168,-1.54537 -0.97602,-2.33838 z"
       id="path10" />
    <path
       fill="#030303"
       stroke="#030303"
       stroke-width="0.0190628"
       opacity="1"
       d="m 167.77493,173.20168 c 0.99635,-0.14233 2.25704,-0.28466 2.94839,0.65068 1.30135,1.30137 0.81335,3.72107 -0.77269,4.49375 -0.549,0.14234 -1.07768,0.26434 -1.62669,0.38633 -0.69135,-0.10166 -1.40302,-0.30499 -1.95203,-0.75233 -0.46767,-0.75235 -0.67101,-1.66737 -0.58969,-2.56205 0.0204,-1.09802 0.93537,-2.01303 1.99271,-2.21638 z"
       id="path11" />
    <path
       fill="#fdfdfd"
       stroke="#fdfdfd"
       stroke-width="0.0190628"
       opacity="1"
       d="m 247.6793,185.06541 c 1.15902,-0.95568 2.19604,-2.05371 3.37539,-2.98905 0.85402,1.74869 2.05371,3.37538 2.56206,5.28675 0.56933,1.5047 0.52866,3.15172 1.11834,4.65641 0.81334,4.39208 1.83262,8.78539 1.62929,13.2588 -0.22367,1.7487 -0.28026,3.58865 -0.25992,5.35768 0.0406,1.28102 0.46767,2.54171 0.26433,3.84307 -0.16266,2.15537 0.0406,4.35141 -0.28467,6.50677 -0.0203,1.91137 -0.69134,3.72107 -1.34202,5.51044 -0.67101,-1.91137 -0.86103,-4.03723 -1.9387,-5.78593 -0.26435,-0.56933 -0.42701,-1.15901 -0.67102,-1.70803 -0.26433,-0.69134 -0.75235,-1.26068 -1.34203,-1.68769 -0.34567,-0.63035 -0.63034,-1.32168 -1.13868,-1.85037 -0.549,-0.65067 -1.28102,-1.17935 -1.72836,-1.91136 -0.28467,-0.95569 -0.52868,-1.9317 -0.63035,-2.92805 1.5657,-0.50835 2.70438,-1.91136 3.05006,-3.51772 0.50834,-2.27738 0.58967,-4.61575 0.61001,-6.93379 0,-3.07039 0.18301,-6.18145 -0.48801,-9.21116 -2.1147,-0.0406 -3.94474,1.26069 -5.30709,2.74504 -1.48436,1.30135 -2.62305,2.92805 -3.49739,4.65641 -0.58968,1.05736 -0.85402,2.25705 -1.36237,3.33474 -0.32533,0.75233 -0.69134,1.52502 -0.75233,2.33837 0.20333,0.46766 0.75233,0.73201 1.05734,1.15902 0.73201,0.99634 1.64704,1.89103 2.58238,2.70438 0.48801,0.42701 0.77268,1.01668 1.07769,1.56568 0.488,0.97603 1.48436,1.5047 2.09437,2.37906 0.91501,0.83367 1.05735,2.13502 1.78936,3.09071 0.77267,1.09802 1.52275,2.3226 2.11243,3.52229 0.65067,1.38269 0.63962,2.93464 1.22929,4.33766 0.52868,1.5047 0.71169,3.09072 1.03703,4.63609 0.20333,2.6027 0.28467,5.30708 -0.65068,7.78779 -0.48801,1.11836 -0.46768,2.39938 -1.03702,3.47706 -0.22368,-0.75234 0.24401,-1.46402 0.0406,-2.21637 -0.22367,0.0406 -0.52394,0.18055 -0.7476,0.22122 -0.42701,0.87435 -0.49275,1.73082 -0.83844,2.64583 -0.40667,0.85402 -0.95568,1.60636 -1.48435,2.37905 -0.28467,0.44734 -0.34122,1.17114 -0.80889,1.49647 -0.71168,0.50835 -1.47549,0.89175 -2.0855,1.50176 -0.65068,0.58967 -1.17235,1.33283 -1.98569,1.67851 -1.30137,0.61001 -2.21638,1.7487 -3.45673,2.41971 -0.97602,0.67101 -3.0265,1.74809 -4.14485,2.13443 -1.52503,0.549 -1.94193,0.9858 -3.60929,1.12814 1.58602,0.122 3.13138,-0.24401 4.71741,-0.305 1.76904,-0.24401 3.47707,-0.85402 5.02242,-1.7487 -0.85402,1.09802 -1.10315,2.73973 -1.95717,3.83775 -0.58967,0.65068 -0.78788,1.30666 -1.29621,2.01835 l -0.35984,0.50894 c -0.13022,0.11246 -0.10331,0.46597 -0.20596,0.60299 -0.24999,0.33369 -0.75075,0.60508 -0.83723,1.0231 -0.46767,0.40668 -0.85402,0.91502 -1.30136,1.34203 -0.79301,0.52867 -1.34203,1.34203 -2.0537,1.97236 -1.11835,1.09802 -2.52138,1.83004 -3.84307,2.66372 -1.64702,0.77268 -3.33471,1.46402 -5.00207,2.21637 2.01303,-0.10168 4.04639,-0.40667 5.95776,-1.11836 1.13868,-0.50833 2.2977,-0.99634 3.33472,-1.70802 0.77269,-0.56934 1.72836,-0.77269 2.50105,-1.34203 1.22002,-0.87435 2.33837,-1.89103 3.63972,-2.66371 0.24401,-0.16267 0.48801,-0.34566 0.63035,-0.61001 0.58967,-1.05735 1.58603,-1.83003 2.27737,-2.82638 0.89469,-1.44369 1.52503,-3.05005 2.33838,-4.57507 0.50833,-0.99636 1.50468,-1.66737 1.87069,-2.72472 0.50834,-1.40303 1.01669,-2.78572 1.60636,-4.12774 0.36601,-0.89468 1.38269,-1.24035 1.8097,-2.07404 1.01669,-1.80969 2.64338,-3.25338 3.29406,-5.24609 0.77268,-1.78937 1.68769,-3.53807 2.09437,-5.49009 0.0814,0.65067 0.122,1.30135 0.34567,1.89103 0.48801,1.26069 0.54901,2.60272 0.87435,3.90407 0.36601,2.58237 0.56934,5.16475 0.54901,7.7878 0.14233,1.30136 0.10167,2.62304 0.20334,3.94474 0.0204,0.549 0.36601,1.01668 0.79302,1.34201 -0.14235,1.15903 -1.03703,1.97237 -1.6267,2.90773 -0.42701,0.75234 -0.95569,1.44369 -1.46403,2.15536 -0.48801,0.71168 -1.32169,1.11836 -1.66736,1.95204 -0.75235,1.58603 -2.56205,2.23671 -3.39573,3.76173 -0.83368,1.26068 -2.46037,1.70802 -3.25339,3.02972 -0.69134,0.65067 -1.40302,1.32168 -2.25703,1.76903 -0.67102,0.34567 -1.07769,0.99634 -1.6877,1.42335 -2.48071,1.72837 -5.08342,3.27373 -7.7878,4.63609 -1.7487,0.73201 -3.51773,1.40302 -5.22575,2.21636 -2.35872,0.73202 -4.69709,1.5657 -7.15747,1.83003 -1.62669,0.14234 -3.19238,0.83369 -4.85975,0.75236 -1.89103,0.32534 -3.82273,0.183 -5.71376,0.22367 -1.36236,-0.0204 -2.72471,0 -4.06674,-0.22367 -1.8707,0 -3.63973,-0.69135 -5.49009,-0.85402 -0.46768,-0.061 -0.91502,-0.16267 -1.36237,-0.24401 -0.89467,-0.18299 -1.76902,-0.34566 -2.64337,-0.488 0.16266,-0.67101 0.16266,-1.38269 0.32534,-2.05371 0.67101,-1.52502 1.34203,-3.02972 2.09437,-4.51407 0.65068,-2.98905 1.26068,-5.9781 1.76903,-8.98749 0.61001,-2.41972 0.67101,-4.96142 1.24035,-7.38113 0.34568,-2.1147 0.24401,-4.27007 0.73201,-6.34411 0.38635,0.34568 0.83369,0.61001 1.3217,0.81335 0.85401,0.34567 1.60635,0.85401 2.41971,1.24035 1.07768,0.48801 1.95203,1.36236 3.11105,1.64704 1.34203,0.34567 2.68404,0.63034 4.02607,0.89468 1.72836,0.16267 3.47706,0.0814 5.20543,-0.0204 2.01303,-0.46767 4.06673,-0.79302 6.05943,-1.34202 1.03701,-0.52868 2.05369,-1.09803 3.07038,-1.66736 0.36601,-0.16268 0.65068,-0.42701 0.89468,-0.73202 -1.19968,0.183 -2.2977,0.71168 -3.47705,0.93535 -1.3217,0.40667 -2.70438,0.122 -4.04641,0.34567 -1.56569,0.0406 -3.13138,0.10167 -4.67674,-0.0814 -1.7487,-0.0814 -3.51773,0.10167 -5.26642,-0.18299 -1.26069,-0.20334 -2.19605,-1.1997 -3.45674,-1.44369 -1.03702,-0.24401 -1.83003,-0.97603 -2.62304,-1.6267 -0.75235,-0.56934 -1.48436,-1.11836 -2.27737,-1.60637 -0.50835,-0.32533 -0.69134,-0.93534 -1.03701,-1.40302 -0.50836,-0.71168 -0.99636,-1.44369 -1.4437,-2.21636 -0.69135,-1.17936 -0.95569,-2.52139 -1.38269,-3.82274 h -0.0203 c -0.16267,-0.71168 -0.34567,-1.42335 -0.73201,-2.0537 0.28467,-0.65069 0.122,-1.34202 0.0406,-2.01303 0,-0.97602 0.10168,-1.97238 -0.122,-2.92806 -0.24401,-0.87435 0.16266,-1.74869 0.122,-2.62304 -0.0406,-1.30136 0.32535,-2.56205 0.46768,-3.82274 0.16266,-1.34201 0.65068,-2.60271 0.77268,-3.9244 0.36601,-0.79301 0.71167,-1.58602 0.95568,-2.41971 0.24401,-0.81335 0.97602,-1.56569 0.65068,-2.46037 -0.34567,-0.83369 -0.83368,-1.64702 -0.89469,-2.56205 -0.32533,0.65068 -0.75233,1.26069 -0.99634,1.97237 -0.28467,0.75235 -0.34567,1.5657 -0.48801,2.35871 -0.10167,0.52868 -0.34567,1.03702 -0.56935,1.52503 -0.122,0.061 -0.34567,0.14233 -0.44733,0.183 -0.12201,-0.87435 -0.0814,-1.7487 -0.20334,-2.60271 -0.0814,-0.58968 -0.14234,-1.17936 0,-1.7487 0.061,0.38634 0.14233,0.77267 0.20334,1.17935 0.122,-0.427 0.20333,-0.83368 0.28467,-1.26069 0.14233,-0.91501 -0.46971,-2.54529 -0.26637,-3.46032 -0.0806,-0.90249 -0.0192,-0.21761 -0.18097,-1.70443 -0.54902,-1.34203 -0.52868,-2.80605 -0.71168,-4.22941 -0.32534,-2.50104 -0.42702,-5.00208 -0.36601,-7.52346 0.0203,-1.89104 -0.0814,-3.8024 0.122,-5.69343 0.0203,-1.70803 0,-3.45672 0.36601,-5.14442 0.32533,-0.79301 0.93534,-1.68769 1.80969,-1.91137 1.13869,0.22368 1.99271,1.11836 3.00939,1.60636 1.01669,0.48801 1.83004,1.30136 2.74505,1.9317 0.56934,0.366 0.99635,0.91502 1.54536,1.30136 0.97602,0.71168 1.76903,1.64702 2.56204,2.54171 0.54901,1.03702 1.40303,1.85036 2.01304,2.84671 0.61001,1.13869 1.46402,2.13504 1.85037,3.37539 0.22366,0.81335 0.71167,1.52503 1.15901,2.21637 1.07769,-0.28466 2.09437,-0.73201 3.17207,-0.915 2.03336,-0.42702 4.10739,-0.54902 6.14076,-0.99636 1.52502,-0.0406 3.09072,-0.50834 4.61575,-0.061 1.42336,0.44734 2.92805,0.69134 4.2904,1.34202 1.2607,0.79301 2.72472,1.38269 3.57873,2.66371 -0.244,-0.85402 -0.38634,-1.89103 0.122,-2.66371 0.89469,-1.30135 1.64703,-2.68405 2.54172,-3.96507 1.01668,-2.07404 2.62304,-3.76173 3.9244,-5.65276 1.03702,-1.11835 2.07403,-2.25705 2.96871,-3.51773 z"
       id="path13"
       style="fill:#d45500;stroke:#d45500" />
    <path
       fill="#010102"
       stroke="#010102"
       stroke-width="0.0190628"
       opacity="1"
       d="m 203.98923,202.50253 c -0.54902,-4.55475 -1.26069,-9.19083 -0.52868,-13.78624 0.79301,0.63034 1.42335,1.42335 1.95203,2.2977 1.89104,1.72837 3.19238,3.96508 4.39208,6.20178 0.549,0.81334 0.79301,1.7487 1.28101,2.58238 0.61002,1.13868 0.89469,2.39938 1.52503,3.53806 -0.50834,0.46767 -1.01668,0.99635 -1.62668,1.36235 -0.61002,0.32534 -0.91503,0.95568 -1.46403,1.36236 -0.69136,0.54901 -1.0777,1.36236 -1.7487,1.9317 -0.58968,0.54901 -0.83369,1.52503 -1.68769,1.78936 0,0.28468 -0.0203,0.56935 -0.0406,0.85402 -0.26433,0.22367 -0.52867,0.44734 -0.81333,0.65067 0.0406,0.99635 -0.58968,1.8707 -1.1387,2.66372 -0.0814,-0.183 -0.22367,-0.52867 -0.305,-0.71168 0.22367,-0.34568 0.46767,-0.671 0.69134,-0.99635 -0.18301,-0.77268 0,-1.54536 0.26434,-2.27737 0.22367,-1.52503 0,-3.05006 -0.20334,-4.55474 -0.14233,-0.97603 -0.56934,-1.89103 -0.549,-2.90772 z"
       id="path14" />
    <path
       fill="#dedfde"
       stroke="#dedfde"
       stroke-width="0.0190628"
       opacity="1"
       d="m 183.04553,193.6167 c 0.0814,-0.50834 0.34567,-0.95568 0.58968,-1.38269 0.10166,2.92805 0.0203,5.87645 0.0406,8.82482 0,5.20543 0,10.41085 -0.0406,15.61627 -0.34568,0.0203 -0.69135,0.061 -1.03702,0.10167 -0.0406,0.75236 -0.061,1.50469 -0.0814,2.25705 l -0.0814,-0.18302 c -0.183,-0.26433 -0.122,-0.61 -0.14234,-0.91501 0.0203,-3.86339 0,-7.7268 0,-11.59019 0.10167,-2.01304 -0.061,-4.04641 0.10167,-6.03911 0.38634,-2.21637 0.305,-4.47341 0.65068,-6.68979 z"
       id="path15"
       style="fill:#ececec" />
    <path
       fill="#020203"
       stroke="#020203"
       stroke-width="0.0190628"
       opacity="1"
       d="m 155.39172,195.71108 c 0.97601,-0.20335 2.09437,-0.10167 2.78571,0.65067 0.56935,0.75235 1.13869,1.6877 0.83368,2.66371 -0.366,0.81335 -0.73201,1.6877 -1.48435,2.25704 -0.93536,0.48802 -2.19604,0.44734 -3.05006,-0.20333 -1.40302,-1.07768 -1.50469,-3.33472 -0.28467,-4.57508 0.36601,-0.32534 0.73201,-0.67101 1.19969,-0.79301 z"
       id="path17" />
    <path
       fill="#090908"
       stroke="#090908"
       stroke-width="0.0190628"
       opacity="1"
       d="m 201.91519,213.05571 c 0.24401,-0.71167 0.67101,-1.32169 0.99635,-1.97237 0.061,0.91502 0.54901,1.72836 0.89468,2.56205 0.32534,0.89467 -0.40667,1.64702 -0.65067,2.46037 -0.24401,0.83369 -0.58968,1.6267 -0.9557,2.41971 -0.26432,-0.83369 -0.10166,-1.6877 -0.20333,-2.52138 -0.16267,-0.22367 -0.36601,-0.40667 -0.56934,-0.58968 0.14234,-0.79301 0.20333,-1.60635 0.48801,-2.3587 z"
       id="path21" />
    <path
       fill="#0a0a09"
       stroke="#0a0a09"
       stroke-width="0.0190628"
       opacity="1"
       d="m 211.87869,212.3237 c 1.15902,0.10166 1.6267,1.30135 2.21637,2.13504 -0.32534,-0.0406 -0.65067,-0.0814 -0.95568,-0.12201 0.26433,0.77269 0.34567,1.5657 0.24401,2.37905 0.44734,1.09801 1.22001,2.2367 0.85401,3.45672 -0.0814,0.71168 -0.24401,1.40302 -0.44735,2.07403 -0.0203,-0.97601 -0.18299,-1.91137 -0.24399,-2.88738 0,-0.75234 -0.71169,-1.26069 -0.69135,-2.01303 -0.10168,-1.30136 -0.87435,-2.39938 -0.91501,-3.70073 0.44733,0.061 0.71168,0.44734 1.05734,0.71167 -0.14233,-0.79301 -0.65068,-1.40302 -1.11835,-2.03336 z"
       id="path22" />
    <path
       fill="#0c0b09"
       stroke="#0c0b09"
       stroke-width="0.0190628"
       opacity="1"
       d="m 227.61697,212.7507 c 0.50834,-0.0203 1.05734,-0.10167 1.54535,0.0814 0.61001,0.42701 0.97602,1.11835 1.38269,1.72836 0.26434,0 0.52868,0 0.77269,0.0203 -0.061,0.34567 0.0203,0.79301 -0.34568,1.01668 -0.305,0 -0.58967,0.0203 -0.89468,0.0203 -0.28467,-0.99635 -0.77269,-2.29771 -1.99271,-2.35871 0.16268,0.58968 0.58968,1.03702 0.87436,1.5657 -0.79301,-0.32535 -1.9317,-1.09802 -1.34202,-2.07404 z"
       id="path23" />
    <path
       fill="#040403"
       stroke="#040403"
       stroke-width="0.0190628"
       opacity="1"
       d="m 228.28797,217.50879 c 1.30137,-0.48802 2.60272,-1.38269 4.06675,-1.03702 1.64702,0.52867 3.35505,1.07768 4.67673,2.25704 -0.85401,0.34566 -1.72836,0.65067 -2.48069,1.19968 -0.38635,0.46768 -0.30501,1.19969 -0.81335,1.58603 -0.71169,0.65068 -1.38269,1.38269 -2.27738,1.76904 -0.65068,0.10166 -1.32169,0.061 -1.97237,0 0.95569,-0.36601 2.13504,-0.26435 2.90772,-1.03703 0.54902,-0.65067 1.11835,-1.28102 1.58603,-1.9927 -0.28468,0.18301 -0.54901,0.44734 -0.89468,0.488 -1.09802,0.10168 -2.01304,0.81335 -3.13139,0.77269 -0.42702,-0.54901 -1.52503,-0.63034 -1.70803,0.16267 -0.0814,0.38634 -0.10167,0.79302 -0.16268,1.17935 -0.427,0.0406 -0.83367,0.061 -1.24035,0.12201 -0.183,-0.99636 -0.16267,-2.05371 0.26435,-2.98905 0.38633,-0.83369 0.63034,-1.72838 1.17934,-2.48071 z"
       id="path24" />
    <path
       fill="#eff0ef"
       stroke="#eff0ef"
       stroke-width="0.0190628"
       opacity="1"
       d="m 182.59819,216.77677 c 0.34567,-0.0406 0.69134,-0.0814 1.03702,-0.10167 0,2.15538 0.0203,4.33108 0,6.50678 -0.30501,-0.16267 -0.67102,-0.28467 -0.79302,-0.65067 -0.44734,-1.11836 -0.183,-2.33838 -0.32534,-3.49739 0.0203,-0.75236 0.0406,-1.50469 0.0814,-2.25705 z"
       id="path25" />
    <path
       fill="#0a0a0a"
       stroke="#0a0a0a"
       stroke-width="0.0190628"
       opacity="1"
       d="m 208.2593,217.50879 c 0.44734,-0.22368 0.89468,-0.50835 1.38268,-0.67102 0.81335,0 1.66736,-0.20333 2.46038,0.0814 -0.16266,0.12199 -0.46766,0.366 -0.63034,0.488 0.40667,-0.20333 0.79302,-0.427 1.24035,-0.488 0.0203,0.24401 0.061,0.73201 0.0814,0.97601 -0.24401,-0.10166 -0.46768,-0.20334 -0.71168,-0.30499 0.65068,0.61 0.56935,1.56568 0.42701,2.37903 -0.244,0.69135 -0.52868,1.42336 -1.28103,1.70803 -0.32533,-0.10167 -0.67101,-0.16267 -0.99635,-0.24401 -0.58968,-0.427 -1.03702,-0.97601 -1.54536,-1.46402 0.061,-0.85401 0.0406,-1.70804 -0.427,-2.46037 z"
       id="path26" />
    <path
       fill="#020202"
       stroke="#020202"
       stroke-width="0.0190628"
       opacity="1"
       d="m 273.32709,216.83777 c 1.09801,-0.14233 2.33837,-0.10167 3.17205,0.73202 0.61001,0.99634 0.67101,2.19603 0.46768,3.31439 -0.52868,0.91501 -1.38269,1.85036 -2.50105,1.8707 -1.03702,0.122 -2.13504,-0.42701 -2.66371,-1.3217 -0.366,-0.95568 -0.40667,-2.07403 -0.10167,-3.05004 0.22367,-0.77269 0.93535,-1.26069 1.6267,-1.54537 z"
       id="path27" />
    <path
       fill="#020202"
       stroke="#020202"
       stroke-width="0.0190628"
       opacity="1"
       d="m 270.12967,195.42731 c 1.09802,-0.14233 2.33837,-0.10167 3.17205,0.73202 0.61001,0.99634 0.67102,2.19603 0.46768,3.31438 -0.52868,0.91502 -1.38269,1.85037 -2.50105,1.87071 -1.03701,0.12199 -2.13503,-0.42701 -2.6637,-1.3217 -0.36601,-0.95568 -0.40668,-2.07404 -0.10168,-3.05005 0.22367,-0.77268 0.93535,-1.26069 1.6267,-1.54536 z"
       id="path27-6" />
    <path
       fill="#fdfdfd"
       stroke="#fdfdfd"
       stroke-width="0.0190628"
       opacity="1"
       d="m 167.04291,217.02077 c 0.28468,0.061 0.56935,0.14235 0.87436,0.14235 1.70803,0 3.41606,0.0204 5.14442,0.0406 0.0203,0.85401 0,1.70803 -0.10167,2.56204 -0.0406,2.17571 0.0203,4.33107 -0.0203,6.50679 -0.0203,0.61 0.14234,1.19968 0.16268,1.80969 1.48436,0.52868 3.47705,-0.75235 3.25338,-2.39937 0.0203,-2.60272 0,-5.18509 0.0203,-7.76747 0.0814,-0.10167 0.24401,-0.30501 0.32534,-0.40667 0.14234,0.61 0.0814,1.24035 0.10167,1.85036 0,2.23671 0.0203,4.47341 0,6.73045 0.061,0.69135 -0.61001,1.09802 -0.95569,1.6267 -0.38633,0.61 -1.17934,0.69133 -1.80969,0.85401 -4.02608,0.0406 -8.05214,-0.061 -12.07821,0.061 -0.305,-0.52867 -0.44734,-1.13868 -0.46768,-1.7487 -0.366,-1.80969 -0.0406,-3.66006 -0.34567,-5.49008 0.0814,-1.38271 -0.20333,-2.8264 0.16267,-4.16841 1.48436,-0.10167 3.00939,0.14234 4.47341,-0.20334 -0.0406,2.80605 -0.0203,5.6121 -0.0406,8.43848 0.0203,0.52868 -0.16267,1.05735 0,1.56569 0.34567,-0.0204 0.79301,0.061 1.01668,-0.28467 0.122,-0.48801 0.061,-0.99635 0.0814,-1.48435 -0.061,-2.37905 -0.0204,-4.75809 -0.0406,-7.1168 -0.0406,-0.40667 0.10167,-0.75235 0.244,-1.11835 z"
       id="path28"
       style="fill:#4d4d4d" />
    <path
       fill="#8e8f90"
       stroke="#8e8f90"
       stroke-width="0.0190628"
       opacity="1"
       d="m 209.23531,217.36646 c 0.20334,-0.30502 0.73202,0.0203 0.50835,0.32532 -0.20334,0.28468 -0.73202,-0.0406 -0.50835,-0.32532 z"
       id="path29" />
    <path
       fill="#f0f1f1"
       stroke="#f0f1f1"
       stroke-width="0.0190628"
       opacity="1"
       d="m 148.29526,219.56249 c 0.0204,-0.48802 -0.0814,-1.01668 0.14233,-1.46403 -0.0406,0.83368 0,1.6877 0.0814,2.52138 0.24401,0.061 0.50834,0.14233 0.75235,0.20333 0,1.36236 0,2.70438 0.0203,4.06674 -0.18301,-0.0203 -0.52869,-0.0814 -0.7117,-0.10166 -0.0814,-0.0204 -0.22367,-0.0406 -0.28466,-0.0406 -0.0203,-1.72837 0.061,-3.45672 0,-5.18509 z"
       id="path31" />
    <path
       fill="#fbfcfc"
       stroke="#fbfcfc"
       stroke-width="0.0190628"
       opacity="1"
       d="m 182.43552,218.8508 0.0814,0.18302 c 0.14234,1.15901 -0.122,2.37903 0.32535,3.49739 0.12199,0.366 0.488,0.488 0.79301,0.65067 0.0203,14.37592 0,28.77216 0,43.14808 0.0203,0.52867 -0.0203,1.05736 -0.14233,1.56569 -0.54902,-0.244 -1.05736,-0.69134 -1.01669,-1.38269 -0.061,-15.8806 -0.0814,-31.76121 -0.0406,-47.66216 z"
       id="path33"
       style="fill:#999999" />
    <path
       fill="#fdfdfd"
       stroke="#fdfdfd"
       stroke-width="0.0190628"
       opacity="1"
       d="m 150.08309,220.99116 c 1.90328,-0.0726 3.63334,-0.11941 6.12198,-0.005 0,0.89468 -0.0422,1.98814 -0.0219,2.88283 -0.34566,0.14233 -0.6898,0.0655 -1.07613,0.0452 -1.5047,-0.0406 -3.27972,0.17974 -4.93907,0.0329 -0.16267,-0.122 -0.0207,-0.5412 -0.002,-0.7242 -0.0814,-0.83368 -0.0422,-1.39771 -0.0829,-2.23139 z"
       id="path35"
       style="fill:#b3b3b3" />
    <path
       fill="#fcfcfd"
       stroke="#fcfcfd"
       stroke-width="0.0190628"
       opacity="1"
       d="m 156.55997,220.93796 c 0.83369,0 1.55647,-0.0944 2.39014,-0.0131 0.34567,0.24401 1.02251,0.80553 0.91194,1.39134 0.0814,0.77268 -0.15959,0.9267 -0.4646,1.59771 -0.95568,0.0406 -1.89103,0 -2.84671,-0.0406 -0.0201,-1.00751 -0.0315,-1.93891 0.009,-2.93527 z"
       id="path37"
       style="fill:#4d4d4d" />
    <path
       fill="#020202"
       stroke="#020202"
       stroke-width="0.0190628"
       opacity="1"
       d="m 207.85263,226.55728 c 0.87435,-1.30136 2.05369,-2.46039 3.55839,-3.00939 -0.427,0.85401 -1.07768,1.54536 -1.5047,2.39937 -0.38633,0.75235 -1.07769,1.30136 -1.40301,2.09437 -0.54902,1.15902 -1.34204,2.19604 -2.39938,2.94839 l -0.0814,0.40667 c 0.915,-0.38633 1.74869,-0.99635 2.76537,-1.11835 1.76903,-0.46768 3.6194,-0.22367 5.42909,-0.22367 1.0777,0.32534 2.19604,0.36601 3.23306,0.79301 0.63034,0.52868 1.28102,1.03702 1.8707,1.60637 0.26434,0.22367 0.0203,0.56934 -0.10167,0.81334 -0.34567,0.50834 -0.95568,0.79302 -1.28103,1.32169 -0.50833,0.77268 -0.89467,1.66736 -1.64702,2.23671 -1.05736,0.77267 -1.28103,2.2367 -2.21637,3.11105 l -0.10167,0.67101 c 0.81334,0.79301 1.8707,1.36236 2.98906,1.60636 1.38268,0.0406 2.76538,0.10167 4.12773,-0.061 1.46403,-0.305 2.92805,-0.79301 4.14807,-1.64703 0.44735,-0.30499 1.03702,-0.44734 1.32169,-0.93534 0.24401,-0.34568 0.42701,-0.73202 0.63034,-1.07769 -0.24399,-0.71168 -0.83367,-1.24035 -1.03701,-1.95203 0.99635,0.16267 1.93169,0.71168 2.98905,0.67101 0.63034,-0.061 1.36236,0.122 1.91136,-0.28467 0.44735,-0.305 1.0167,-0.44734 1.40303,-0.81335 0.69135,-0.89468 1.7487,-1.34202 2.56205,-2.09437 0.10167,0.0406 0.28466,0.10167 0.38634,0.14233 -0.30501,0.44735 -0.63035,0.87435 -0.89469,1.34203 h 1.03702 c 0,0.22367 0.0203,0.46768 0.0406,0.71168 -1.36235,0.77268 -2.54171,1.85036 -4.00573,2.52138 -0.58968,0.34567 -1.05735,0.85401 -1.6877,1.13868 -1.42335,0.69135 -2.54171,1.91137 -4.08707,2.33838 -0.75234,0.20333 -1.36236,0.81334 -2.17571,0.79301 -2.86704,0.32534 -5.77477,0.52868 -8.66215,0.71168 -2.11469,0.50833 -4.4734,1.30135 -6.56777,0.244 -0.69135,-0.44734 -1.58602,-0.50834 -2.1757,-1.09802 -0.38635,-0.40666 -0.91503,-0.75235 -1.03702,-1.34202 -0.183,-0.87434 -0.87435,-1.46403 -1.28102,-2.19603 -0.22367,-0.71169 -0.44734,-1.4437 -0.67101,-2.15538 -0.122,-0.95568 -0.0814,-1.95203 0,-2.90772 0.44734,-1.36235 0.87435,-2.72471 1.66736,-3.9244 0.63034,-1.48436 1.70803,-2.74505 2.94839,-3.78206 z"
       id="path42" />
    <path
       fill="#fdfefd"
       stroke="#fdfefd"
       stroke-width="0.0373358"
       opacity="1"
       d="m 206.90796,236.58639 c 0.95075,-0.42038 1.90148,-0.98091 2.88616,-1.16775 0.81493,0.0934 1.56193,0.42039 2.34289,0.70065 -0.0679,0.70065 0.16977,1.72828 -0.44141,1.96183 -1.49402,0.98091 -3.36153,0.84078 -4.78764,-0.28027 0,-0.32697 0,-0.9342 0,-1.21446 z"
       id="path47"
       style="fill:#ffaaaa" />
    <path
       fill="#fefdfd"
       stroke="#fefdfd"
       stroke-width="0.0190628"
       opacity="1"
       d="m 205.45325,234.38574 c 0.16267,-0.671 0.44733,-1.32168 0.61001,-2.01303 -0.10168,0.65068 0.10167,1.26069 0.305,1.85037 0.16267,0.81333 -0.54136,1.6313 -0.13469,2.36331 -0.90736,0.47186 0.82152,1.56695 1.14686,1.87196 0.81335,1.03701 2.87157,0.44147 3.92891,1.13282 0.14235,0.56934 0.32536,1.19969 -0.10165,1.70803 -0.77269,0.63034 -1.89105,0.61 -2.7654,0.22367 -0.87435,-0.183 -1.36235,-0.99635 -1.93169,-1.58603 -1.1997,-1.58603 -1.13868,-3.66007 -1.05735,-5.5511 z"
       id="path48"
       style="fill:#000000;stroke:#000000;stroke-opacity:1" />
    <path
       fill="#040404"
       stroke="#040404"
       stroke-width="0.0190628"
       opacity="1"
       d="m 155.39172,237.96447 c 1.05735,-0.10166 2.27738,0.0203 3.00939,0.87435 0.38633,0.69135 0.77267,1.46402 0.65067,2.29771 -0.38634,1.05735 -1.01668,2.2367 -2.23671,2.46037 -0.81333,0.44735 -1.62668,-0.0203 -2.33837,-0.40667 -0.85401,-0.50834 -0.99635,-1.58603 -1.09802,-2.4807 -0.16267,-1.28104 0.91502,-2.29772 2.01304,-2.74506 z"
       id="path53" />
    <path
       fill="#030303"
       stroke="#030303"
       stroke-width="0.0190628"
       opacity="1"
       d="m 269.87036,237.98481 c 0.81334,-0.10168 1.78937,-0.183 2.44004,0.40666 0.85401,0.58968 1.34202,1.6877 1.19969,2.72472 -0.14234,0.75235 -0.16267,1.58602 -0.75235,2.1757 -0.67101,0.30501 -1.40302,0.56935 -2.13503,0.56935 -0.52868,-0.183 -1.05736,-0.36601 -1.52503,-0.63034 -0.99635,-0.85401 -1.48436,-2.31804 -0.95568,-3.53806 0.38634,-0.71169 0.93534,-1.42336 1.72836,-1.70803 z"
       id="path54" />
    <path
       fill="#1e1e1d"
       stroke="#1e1e1d"
       stroke-width="0.0190628"
       opacity="1"
       d="m 258.36149,243.6579 c 0.56934,0.48801 0.42701,1.26069 0.48801,1.9317 0,1.66736 0.12201,3.35506 -0.10166,5.00209 -0.42701,-0.32533 -0.77269,-0.79302 -0.79301,-1.34202 -0.10168,-1.32169 -0.061,-2.64338 -0.20335,-3.94473 0.20335,-0.0814 0.42702,-0.14234 0.63035,-0.28468 0,-0.44734 -0.0406,-0.91502 -0.0203,-1.36236 z"
       id="path59" />
    <path
       fill="#0a0a09"
       stroke="#0a0a09"
       stroke-width="0.0190628"
       opacity="1"
       d="m 237.84398,256.39657 -2.31722,2.97927 c 0.44735,-0.427 0.83369,-0.93534 1.30136,-1.34203 0.58968,-0.244 1.13786,-0.98656 1.01586,-1.63724 z"
       id="path62" />
    <path
       fill="#181718"
       stroke="#181718"
       stroke-width="0.0190628"
       opacity="1"
       d="m 250.59403,261.36854 c 0.83367,-1.52503 2.64337,-2.17571 3.39572,-3.76173 0.50834,0.28467 1.01668,0.61001 1.48437,0.99634 -0.50835,1.09802 -1.54537,1.78938 -2.27738,2.72473 -0.65068,0.83368 -1.5047,1.52502 -2.0537,2.46036 0.0814,0.0406 0.22367,0.10168 0.305,0.14234 -0.18301,0.18301 -0.366,0.36601 -0.52867,0.54902 -0.0204,-0.0814 -0.061,-0.24401 -0.0814,-0.32535 -0.69134,0.58968 -1.34202,1.26069 -2.19604,1.6267 -0.44734,-0.44734 -0.89468,-0.91502 -1.30136,-1.38269 0.79302,-1.32169 2.41971,-1.76903 3.2534,-3.02972 z"
       id="path64" />
    <path
       fill="#060605"
       stroke="#060605"
       stroke-width="0.0190628"
       opacity="1"
       d="m 167.63259,259.96552 c 0.85402,-0.0814 1.89103,-0.24401 2.56205,0.40667 0.73201,0.63034 1.38269,1.50469 1.28102,2.50105 0.061,0.99635 -0.69134,1.74869 -1.32169,2.44003 -0.63035,0.52868 -1.58603,0.69135 -2.33836,0.34568 -0.58969,-0.183 -1.05736,-0.61001 -1.52504,-0.99635 -0.36601,-0.95569 -0.73201,-1.9927 -0.40667,-2.98906 0.26434,-0.83367 1.01668,-1.36235 1.74869,-1.70802 z"
       id="path65" />
    <path
       fill="#191817"
       stroke="#191817"
       stroke-width="0.0190628"
       opacity="1"
       d="m 256.45012,260.51453 c 0.67102,-0.81336 1.89104,-0.73202 2.80606,-0.50835 -0.16268,0 -0.46768,0.0406 -0.63035,0.0406 0.50834,0.50835 1.52502,0.99635 1.09802,1.85036 -0.75234,-0.26433 -1.60637,-1.07768 -2.4197,-0.52867 -0.58968,0.305 -0.79302,1.05735 -0.67102,1.68769 0.122,0.71169 0.26434,1.40303 0.20334,2.1147 -0.85402,-0.366 -1.38269,-1.28101 -1.72836,-2.1147 -0.14234,-1.05734 0.69134,-1.85036 1.34201,-2.5417 z"
       id="path66" />
    <path
       fill="#070707"
       stroke="#070707"
       stroke-width="0.0190628"
       opacity="1"
       d="m 258.62583,260.04685 c 0.16267,0 0.46767,-0.0406 0.63035,-0.0406 0.91501,0.16267 1.44369,0.99634 1.95203,1.66736 0.22367,0.44734 0.38634,1.13869 -0.061,1.48436 -0.63036,0.58968 -0.61002,1.60636 -1.3217,2.13504 -0.69134,0.44733 -1.58602,0.73202 -2.37903,0.42701 -0.20335,-0.16268 -0.61001,-0.24401 -0.61001,-0.54902 0.061,-0.71168 -0.0814,-1.40301 -0.20334,-2.1147 -0.12201,-0.63034 0.0814,-1.38269 0.67102,-1.6877 0.81333,-0.549 1.66736,0.26435 2.4197,0.52868 0.427,-0.85401 -0.58968,-1.34202 -1.09803,-1.85036 z"
       id="path67" />
    <path
       fill="#060606"
       stroke="#060606"
       stroke-width="0.0190628"
       opacity="1"
       d="m 248.64199,265.78095 c 0.85402,-0.36601 1.5047,-1.03702 2.19604,-1.6267 0.0203,0.0814 0.061,0.24401 0.0814,0.32535 -0.42701,0.67101 -0.97603,1.24036 -1.6877,1.62669 -1.56569,0.89468 -2.66371,2.4197 -4.2904,3.19239 -0.9557,0.42701 -1.60637,1.32169 -2.52138,1.8097 -1.05736,0.549 -1.95205,1.36235 -3.09072,1.74869 -1.19969,0.42701 -2.17571,1.26069 -3.35506,1.72836 -1.01669,0.36601 -1.93171,1.01669 -3.00939,1.24036 -1.50469,0.366 -2.88738,1.13869 -4.3514,1.60636 -1.07769,0.48801 -2.25704,0.52868 -3.35506,0.85401 -1.48436,0.48802 -3.05005,0.48802 -4.55475,0.85402 -1.30136,0.32534 -2.62305,0.46768 -3.94474,0.63035 -2.01303,0.305 -4.08706,-0.0814 -6.12044,0.14233 -0.87434,-0.183 -1.74869,-0.46767 -2.64337,-0.46767 -0.93535,0 -1.85037,-0.20334 -2.72471,-0.44734 -1.01669,-0.24401 -2.07404,-0.22367 -3.0704,-0.46768 0.22368,-0.28467 0.46769,-0.549 0.71169,-0.81335 -0.22368,-0.244 -0.44735,-0.48801 -0.69135,-0.71168 0.20334,0.0406 0.69135,-0.0814 0.48801,-0.366 -0.26434,-0.20334 -0.58967,-0.0204 -0.87435,0.0203 -0.65068,0.183 -1.44369,0.32535 -1.85037,-0.34567 0.56935,-0.10166 1.15903,-0.244 1.7487,-0.38634 0.44734,0.0814 0.89468,0.183 1.36236,0.244 1.85036,0.16268 3.6194,0.85403 5.4901,0.85403 1.34202,0.22366 2.70437,0.20333 4.06674,0.22366 1.89103,-0.0406 3.82272,0.10167 5.71375,-0.22366 1.66737,0.0814 3.23306,-0.61002 4.85976,-0.75236 2.46038,-0.26433 4.79875,-1.09801 7.15746,-1.83003 1.70802,-0.81335 3.47705,-1.48436 5.22575,-2.21636 2.70438,-1.36237 5.30709,-2.90773 7.7878,-4.63609 0.61001,-0.42701 1.01668,-1.07768 1.6877,-1.42335 0.85401,-0.44734 1.56569,-1.11836 2.25703,-1.76903 0.40668,0.46766 0.85402,0.93534 1.30136,1.38269 z"
       id="path68" />
    <path
       fill="#020102"
       stroke="#020102"
       stroke-width="0.0190628"
       opacity="1"
       d="m 188.55595,276.0088 c 1.11836,-0.42701 2.39938,-0.30501 3.47706,0.18299 0.38635,1.03702 0.91502,2.17571 0.44734,3.27373 -0.22367,0.89468 -0.83367,1.78937 -1.76902,2.01304 -0.48802,0.0406 -0.95568,0.0203 -1.4437,-0.0406 -1.05735,-0.44734 -1.95203,-1.38268 -2.2977,-2.50103 -0.0814,-1.15903 0.67102,-2.27738 1.62669,-2.86705 z"
       id="path72" />
    <path
       fill="#040504"
       stroke="#040504"
       stroke-width="0.0190628"
       opacity="1"
       d="m 236.54345,275.60212 c 0.65067,0 1.42336,-0.20334 1.97237,0.26434 0.75235,0.50834 0.95568,1.46403 1.28103,2.25704 0.12199,1.40302 -0.89469,2.64337 -2.01305,3.37539 -0.32533,0.34568 -0.83367,0.20334 -1.26069,0.16267 -0.71167,-0.28468 -1.40301,-0.69134 -1.91135,-1.28102 -0.71169,-1.26069 -0.73202,-2.94839 0.16266,-4.08707 0.54901,-0.32535 1.13869,-0.56934 1.76903,-0.69135 z"
       id="path74" />
    <path
       fill="#020202"
       stroke="#020202"
       stroke-width="0.0190628"
       opacity="1"
       d="m 211.08567,282.65791 c 0.40668,-0.71168 1.03702,-1.48436 1.95204,-1.42336 1.03702,-0.14233 2.15537,0.122 2.88739,0.93535 0.65067,0.99636 0.58967,2.29771 0.0814,3.35505 -0.75235,0.36601 -1.50469,0.75236 -2.33837,0.81335 -0.79301,-0.14233 -1.66736,-0.26433 -2.25704,-0.85401 -0.26434,-0.63035 -0.427,-1.28102 -0.69135,-1.89103 -0.10166,-0.36601 0.20333,-0.65067 0.366,-0.93535 z"
       id="path83" />
    <rect
       style="fill:#000000;stroke:#000000;stroke-width:0.2145;stroke-opacity:1"
       id="rect83"
       width="0.95118523"
       height="0.89905602"
       x="201.62694"
       y="276.22427" />
    <rect
       style="fill:#000000;stroke:#000000;stroke-width:0.2145;stroke-opacity:1"
       id="rect84"
       width="0.78176159"
       height="0.70653832"
       x="202.32608"
       y="276.55087" />
  </g>
</svg>
