<svg width="256" height="256" viewBox="0 0 256 256" fill="none" xmlns="http://www.w3.org/2000/svg">
<rect width="256" height="256" fill="white"/>
<path fill-rule="evenodd" clip-rule="evenodd" d="M111.525 61.5885C111.394 61.7575 111.143 62.1018 110.969 62.3533C110.794 62.6048 110.605 62.7821 110.549 62.7476C110.493 62.713 110.473 62.7507 110.503 62.8307C110.552 62.9562 109.982 63.833 109.274 64.7226C109.157 64.8692 109.061 65.0272 109.06 65.074C109.059 65.12 108.971 65.2519 108.864 65.3664C108.757 65.4816 108.434 65.9232 108.146 66.3488C107.364 67.5066 106.853 68.1331 106.76 68.0499C106.715 68.0096 106.711 68.0339 106.751 68.1043C106.824 68.2311 106.535 68.6772 105.244 70.4295C105.2 70.4877 105.021 70.752 104.845 71.0157C104.669 71.28 104.416 71.616 104.282 71.7626C103.864 72.2202 103.941 72.8877 104.466 73.3626C104.551 73.44 104.766 73.7907 104.972 74.1895C105.07 74.3802 105.191 74.5357 105.238 74.5357C105.286 74.5357 105.325 74.5811 105.325 74.6362C105.325 74.7271 106.373 76.473 106.578 76.7226C106.626 76.7815 107.092 77.5495 107.612 78.4295C108.133 79.3095 108.827 80.4596 109.156 80.9856C109.483 81.5117 109.811 82.0634 109.883 82.2125C109.956 82.361 110.063 82.5543 110.123 82.6426C110.181 82.7309 110.487 83.2583 110.802 83.8157C111.117 84.3731 111.51 85.0695 111.676 85.3626C111.842 85.6557 112.215 86.3277 112.506 86.8557C112.796 87.3837 113.168 88.0557 113.33 88.3495C113.724 89.0586 114.862 91.2327 115.396 92.2957C115.631 92.7655 115.861 93.1655 115.908 93.1847C115.954 93.2045 115.992 93.2628 115.992 93.3146C115.992 93.3984 116.949 95.3875 117.246 95.9226C117.312 96.0397 117.507 96.448 117.68 96.8295C117.854 97.2103 118.21 97.9783 118.471 98.5357C119.148 99.9789 119.392 100.521 119.614 101.084C119.721 101.356 119.907 101.77 120.027 102.003C120.223 102.385 120.726 103.597 121.821 106.323C122.021 106.821 122.306 107.589 122.453 108.029C122.601 108.469 122.786 108.973 122.865 109.149C122.944 109.325 123.044 109.637 123.086 109.843C123.129 110.048 123.198 110.264 123.241 110.323C123.312 110.421 123.883 112.201 124.043 112.829C124.081 112.976 124.154 113.192 124.205 113.309C124.443 113.853 125.525 118.629 125.656 119.709C125.801 120.903 125.956 120.847 126.066 119.561C126.103 119.114 126.202 118.245 126.284 117.629C127.062 111.841 127.067 100.051 126.294 95.0157C126.208 94.4583 126.108 93.6666 126.073 93.2557C126.036 92.8455 125.886 91.8375 125.739 91.0157C125.591 90.1946 125.376 88.9946 125.26 88.3495C125.145 87.7037 124.983 86.96 124.903 86.6957C124.822 86.432 124.724 86.0237 124.684 85.7895C124.563 85.0663 123.708 82.0263 123.2 80.5095C122.501 78.4192 122.355 78.0237 121.805 76.7226C121.533 76.0775 121.232 75.3575 121.136 75.1226C120.602 73.8099 118.9 70.6067 117.95 69.1245C117.753 68.8173 117.592 68.521 117.592 68.4666C117.592 68.4115 117.555 68.3508 117.509 68.3316C117.465 68.3117 117.239 68.0077 117.01 67.6557C116.78 67.3037 116.564 66.992 116.529 66.9626C116.494 66.9332 116.28 66.6452 116.053 66.3226C115.14 65.0215 113.877 63.4995 112.616 62.1754L111.764 61.2813L111.525 61.5885ZM149.645 132.464C145.1 133.01 143.12 134.924 135.516 146.111C131.006 152.748 128.479 156.258 125.933 159.423C121.471 164.969 117.47 168.646 113.378 170.959C112.733 171.325 111.965 171.825 111.672 172.073C111.378 172.32 111.019 172.607 110.872 172.712L110.605 172.901L111.065 172.828C111.317 172.788 111.966 172.637 112.505 172.493C113.044 172.349 113.653 172.19 113.858 172.14C114.612 171.957 115.842 171.594 116.205 171.448C116.496 171.33 117.451 171.073 117.805 171.017C117.835 171.012 117.954 170.956 118.072 170.893C118.189 170.829 118.645 170.672 119.085 170.543C119.525 170.414 120.053 170.245 120.258 170.168C120.464 170.091 121.424 169.777 122.392 169.471C123.36 169.164 124.608 168.769 125.165 168.592C127.129 167.969 130.455 166.826 131.245 166.502C131.685 166.321 132.525 165.984 133.112 165.752C133.698 165.52 134.425 165.205 134.727 165.053C135.029 164.901 135.307 164.776 135.345 164.776C135.434 164.776 137.748 163.619 138.644 163.127C139.021 162.919 139.41 162.749 139.508 162.749C139.605 162.749 139.657 162.705 139.623 162.65C139.589 162.596 139.659 162.52 139.777 162.483C139.895 162.445 139.992 162.37 139.992 162.316C139.992 162.261 140.055 162.216 140.131 162.216C140.252 162.216 141.968 161.179 142.279 160.918C142.341 160.866 142.776 160.543 143.245 160.2C143.714 159.858 144.263 159.427 144.464 159.244C144.665 159.06 144.861 158.909 144.898 158.909C145.228 158.909 148.746 155.044 149.348 154.021C149.961 152.979 150.694 151.701 151.134 150.909C152.089 149.188 152.581 148.341 152.898 147.869C152.987 147.738 153.2 147.397 153.372 147.11C153.544 146.824 153.808 146.437 153.959 146.252C154.108 146.065 154.399 145.686 154.603 145.409C156.197 143.243 157.419 142.707 160.898 142.651C163.319 142.612 166.281 141.846 169.485 140.431C171.86 139.381 175.298 137.26 175.298 136.843C175.298 136.714 175.285 136.71 173.698 136.396C172.705 136.199 169.671 135.496 165.858 134.578C158.371 132.776 152.939 132.068 149.645 132.464ZM109.214 173.153C108.25 173.722 107.551 173.798 104.365 173.683C93.2938 173.28 79.3795 185.786 72.7523 202.095C72.408 202.942 72.513 202.92 73.2144 201.998C73.7002 201.359 74.0989 200.94 75.2368 199.868C75.3309 199.779 75.5754 199.592 75.7802 199.452C75.9843 199.311 76.2 199.142 76.2583 199.077C76.673 198.612 79.7936 196.974 81.1651 196.501C81.6343 196.34 82.0663 196.173 82.1251 196.132C82.3319 195.986 84.9162 195.291 86.2806 195.014C87.0416 194.86 87.6938 194.716 87.7303 194.693C87.7898 194.656 89.1549 194.481 92.3651 194.101C95.5843 193.719 102.345 193.781 106.552 194.23C107.197 194.3 107.989 194.36 108.312 194.366L108.898 194.376L108.973 193.096C109.014 192.392 109.099 191.144 109.16 190.323C109.222 189.501 109.298 188.421 109.328 187.923C109.358 187.424 109.43 186.584 109.487 186.056C109.544 185.528 109.638 184.352 109.697 183.443C109.976 179.098 110.132 176.9 110.228 175.923C110.286 175.336 110.347 174.424 110.363 173.896L110.392 172.936L110.018 172.917C109.788 172.906 109.479 172.997 109.214 173.153Z" fill="#E4D34C"/>
<path fill-rule="evenodd" clip-rule="evenodd" d="M74.7581 47.3895C74.6723 47.5943 74.552 47.7626 74.4906 47.7626C74.4291 47.7626 74.408 47.8093 74.4432 47.8663C74.4784 47.9233 74.3856 48.2279 74.2365 48.5434C74.0874 48.8583 73.9651 49.1508 73.9651 49.193C73.9651 49.2346 73.8493 49.5181 73.7078 49.8228C72.5853 52.2413 70.5968 58.2804 69.5402 62.4826C69.1197 64.1543 69.1158 64.1716 68.9494 65.0426C68.8874 65.3652 68.76 65.9597 68.6659 66.3636C68.5085 67.0413 68.5085 67.1047 68.6704 67.1956C68.7664 67.2493 68.8451 67.3357 68.8451 67.3882C68.8451 67.4401 69.1453 67.8746 69.512 68.3533C69.8787 68.8314 70.2742 69.3581 70.392 69.5233C70.5091 69.6884 70.897 70.1997 71.2534 70.6593C71.8326 71.4068 73.7034 73.8682 74.3171 74.69C74.4464 74.8628 74.673 75.1508 74.8214 75.33C74.9699 75.5092 75.5222 76.2317 76.0477 76.9357C76.5738 77.6397 77.0422 78.2637 77.0883 78.3226C77.1344 78.3815 78.0099 79.5335 79.0339 80.8826C80.0573 82.2317 81.0301 83.5041 81.1952 83.7095C81.3603 83.9143 81.6611 84.3213 81.864 84.6132C82.0662 84.9057 82.319 85.2417 82.4259 85.3601C82.5328 85.4791 83.2515 86.4161 84.0221 87.4426C84.7933 88.4692 85.4499 89.3332 85.4813 89.3626C85.5459 89.4228 87.6611 92.21 87.992 92.6701C88.2717 93.0599 89.5907 94.7917 89.8307 95.0849C89.9344 95.2103 90.1763 95.5226 90.3696 95.778C91.4128 97.1565 92.8739 99.0497 93.0749 99.2826C93.3846 99.6417 95.336 102.175 95.4569 102.376C95.5101 102.464 95.4006 102.383 95.2125 102.197C95.025 102.012 94.872 101.807 94.872 101.744C94.872 101.681 94.8297 101.641 94.7785 101.656C94.7273 101.67 94.4752 101.466 94.2185 101.203C93.9619 100.938 93.1997 100.197 92.5251 99.5533C91.8506 98.9108 89.5702 96.6989 87.4582 94.6381C85.3462 92.578 83.08 90.3725 82.4221 89.7383C81.7622 89.1021 81.2554 88.5319 81.2925 88.4673C81.329 88.402 81.32 88.3847 81.272 88.4282C81.1747 88.5165 79.231 86.6925 79.2752 86.5549C79.2912 86.5063 79.2624 86.4922 79.2112 86.5242C79.1606 86.5556 78.367 85.8202 77.4486 84.8897C76.5302 83.9591 75.5984 83.042 75.3789 82.8506C74.5558 82.1364 70.9251 78.5377 70.92 78.4327C70.9174 78.3719 70.865 78.3322 70.8042 78.3437C70.7427 78.3553 70.0246 77.6909 69.2086 76.8673C67.2899 74.9313 67.4115 74.9812 67.2611 76.0602C66.9232 78.4871 66.9098 86.7009 67.2413 88.4557C67.297 88.7495 67.3693 89.3012 67.4026 89.6826C67.5888 91.8343 67.7501 93.0452 67.9914 94.1095C68.0451 94.3437 68.1885 95.0484 68.3107 95.6743C68.6832 97.5847 69.503 100.592 70.2102 102.643C70.5392 103.597 70.417 103.461 73.8736 106.75C74.8298 107.658 75.807 108.595 76.0464 108.83C77.7437 110.495 81.3904 113.979 81.5773 114.113C81.7027 114.204 82.6486 115.116 83.6803 116.14C85.5056 117.953 86.1891 118.591 86.8624 119.107C87.0429 119.245 87.1594 119.409 87.121 119.471C87.0832 119.532 87.0992 119.553 87.1574 119.517C87.215 119.482 87.4986 119.701 87.7872 120.004C88.0758 120.308 88.216 120.482 88.0982 120.392C87.9811 120.301 87.537 120.025 87.112 119.777C86.6864 119.529 86.3382 119.281 86.3382 119.224C86.3382 119.169 86.3024 119.134 86.2582 119.148C86.2147 119.162 85.8973 119.005 85.5536 118.801C85.2099 118.597 84.7779 118.34 84.5936 118.23C84.4093 118.121 84.2346 118.001 84.2051 117.964C84.1757 117.926 83.9837 117.805 83.7782 117.693C83.0358 117.29 80.0976 115.451 80.063 115.368C80.0432 115.321 79.9709 115.283 79.9018 115.283C79.832 115.283 79.5261 115.115 79.2214 114.91C78.9162 114.704 78.6384 114.536 78.6038 114.536C78.5693 114.536 77.9069 114.115 77.1331 113.599C76.3587 113.084 75.329 112.429 74.8451 112.144C74.3613 111.859 73.9651 111.574 73.9651 111.513C73.9651 111.434 73.9318 111.434 73.8525 111.512C73.7731 111.592 73.8486 111.86 74.1066 112.414C74.3082 112.848 74.6512 113.587 74.8682 114.056C75.5216 115.469 76.2384 116.926 76.3638 117.096C76.4291 117.184 76.5994 117.52 76.7427 117.843C76.8854 118.165 77.0288 118.453 77.0614 118.483C77.0934 118.512 77.3277 118.944 77.5818 119.443C78.1629 120.582 78.5795 121.337 79.1018 122.2C79.327 122.573 79.512 122.904 79.512 122.935C79.512 122.967 79.704 123.297 79.9382 123.669C80.1731 124.04 80.3651 124.368 80.3651 124.398C80.3651 124.447 80.7619 125.098 81.3757 126.056C82.3235 127.535 82.4982 127.829 82.4982 127.939C82.4982 128.008 82.5411 128.081 82.5936 128.101C82.7094 128.144 84.312 130.513 84.312 130.64C84.312 130.691 84.3478 130.748 84.392 130.767C84.5162 130.822 85.0582 131.576 85.0582 131.693C85.0582 131.751 85.0947 131.814 85.1395 131.834C85.2509 131.883 85.912 132.735 85.912 132.831C85.912 132.873 86.0438 133.062 86.2051 133.252C86.3664 133.441 86.6902 133.871 86.9251 134.208C87.16 134.545 87.4717 134.956 87.6182 135.121C87.7654 135.286 88.0771 135.672 88.312 135.978C90.5142 138.854 95.6214 144.5 96.1821 144.678C96.3837 144.743 96.0298 145.171 94.0534 147.256C93.5939 147.741 93.2329 148.137 93.2502 148.136C93.2803 148.136 92.177 149.44 91.7622 149.896C91.6554 150.013 91.1645 150.622 90.671 151.249C90.1776 151.877 89.7411 152.357 89.7008 152.316C89.6605 152.276 89.6426 152.291 89.6605 152.349C89.679 152.408 89.2432 153.056 88.6922 153.789C87.0282 156.004 85.2432 158.595 83.7885 160.909C83.5946 161.217 83.3904 161.469 83.3341 161.469C83.2784 161.469 83.2598 161.513 83.2931 161.567C83.3258 161.621 83.2438 161.8 83.1101 161.967C82.9763 162.133 82.7843 162.437 82.6832 162.643C82.5827 162.848 82.4528 163.088 82.3952 163.176C82.337 163.264 82.0413 163.768 81.7373 164.296C81.4326 164.824 81.1318 165.291 81.0678 165.334C81.0038 165.377 80.9923 165.413 81.0422 165.414C81.1472 165.416 80.5987 166.392 80.4278 166.508C80.3638 166.55 80.3485 166.587 80.3939 166.588C80.4989 166.589 80.056 167.47 79.8973 167.574C79.8294 167.619 79.8243 167.654 79.8851 167.656C79.9562 167.658 79.9562 167.685 79.8851 167.738C79.8262 167.781 79.6291 168.128 79.4461 168.509C78.607 170.261 78.4086 170.701 78.4259 170.776C78.4368 170.82 78.3971 170.856 78.3382 170.856C78.28 170.856 78.232 170.911 78.232 170.979C78.232 171.046 78.1066 171.37 77.9542 171.699C77.6106 172.437 77.6093 172.439 76.9699 174.003C76.3446 175.532 76.287 175.677 76.2538 175.816C76.2397 175.875 76.1341 176.163 76.0202 176.456C75.7635 177.115 75.7021 177.287 75.6874 177.39C75.681 177.435 75.6054 177.608 75.5184 177.776C75.432 177.944 75.336 178.218 75.3059 178.387C75.2547 178.668 75.1504 178.986 74.9251 179.549C74.8778 179.667 74.7312 180.17 74.5987 180.669C74.4662 181.168 74.3306 181.624 74.2973 181.683C74.2646 181.741 74.2333 181.837 74.2288 181.896C74.2237 181.955 74.1898 182.074 74.1526 182.163C74.1162 182.25 73.9856 182.755 73.8634 183.283C73.7418 183.811 73.6093 184.363 73.5702 184.509C73.4877 184.819 73.4531 184.988 73.3904 185.383C73.3654 185.541 73.3194 185.712 73.288 185.763C73.2566 185.813 73.2048 186.068 73.1722 186.329C73.0909 186.975 73.0147 187.384 72.904 187.763C72.8528 187.939 72.8086 188.154 72.8061 188.243C72.8035 188.33 72.776 188.57 72.7446 188.776C72.6762 189.222 72.6134 189.709 72.5322 190.429C72.4989 190.723 72.449 191.107 72.4214 191.283C72.145 193.047 72.0451 196.913 72.2109 199.463C72.4259 202.783 72.4317 202.801 72.8944 201.662C79.4928 185.406 93.7334 172.933 104.873 173.653C107.182 173.802 107.965 173.709 109.112 173.151C109.637 172.895 109.945 172.805 110.151 172.847C110.485 172.916 110.697 172.799 111.725 171.98C112.107 171.677 112.875 171.173 113.432 170.86C119.654 167.373 125.055 161.386 134.498 147.51C143.609 134.123 145.06 132.756 150.588 132.351C154.085 132.094 158.719 132.803 167.672 134.965C170.95 135.756 173.25 136.275 174.285 136.458C174.872 136.563 175.387 136.7 175.429 136.765C175.476 136.837 175.923 136.461 176.589 135.788L177.673 134.692L178.592 134.755C179.098 134.79 179.632 134.839 179.778 134.865C179.925 134.89 180.429 134.935 180.898 134.964C181.368 134.992 182.04 135.038 182.392 135.066C182.744 135.093 183.464 135.142 183.992 135.174C184.52 135.207 185.192 135.259 185.485 135.289C186.01 135.343 186.405 135.373 188.205 135.494C188.704 135.528 189.448 135.597 189.858 135.649C190.269 135.701 190.701 135.743 190.818 135.743C191.068 135.742 192.275 135.831 193.112 135.912C193.435 135.942 194.011 135.992 194.392 136.023C196.596 136.197 197.401 136.271 197.485 136.305C197.515 136.317 197.755 136.339 198.018 136.354C198.283 136.369 198.763 136.407 199.085 136.438C199.408 136.47 200.032 136.524 200.472 136.558C200.912 136.593 201.464 136.643 201.698 136.669C201.933 136.695 202.461 136.745 202.872 136.78C203.282 136.814 204.027 136.892 204.525 136.954C205.024 137.015 205.648 137.08 205.912 137.099C206.439 137.135 207.393 137.223 208.178 137.308C208.457 137.338 208.913 137.385 209.192 137.413C210.411 137.533 210.889 137.587 211.138 137.635C211.285 137.663 211.633 137.709 211.912 137.738C212.19 137.768 212.646 137.82 212.925 137.855C213.204 137.891 213.576 137.932 213.752 137.946C214.074 137.973 215.122 138.096 215.618 138.165C215.765 138.186 216.149 138.232 216.472 138.268C216.795 138.305 217.202 138.375 217.378 138.426C217.554 138.476 217.771 138.518 217.858 138.519C218.192 138.524 219.575 138.757 220.459 138.958C220.746 139.023 220.997 139.059 221.019 139.038C221.053 139.004 219.661 138.437 218.552 138.035C218.317 137.949 217.981 137.816 217.805 137.739C217.629 137.661 217.101 137.464 216.632 137.299C216.162 137.135 215.755 136.97 215.725 136.933C215.696 136.895 215.436 136.805 215.147 136.734C214.859 136.662 214.451 136.527 214.24 136.434C214.03 136.341 213.788 136.25 213.703 136.233C213.618 136.216 213.449 136.153 213.33 136.093C213.21 136.034 212.872 135.915 212.578 135.829C212.285 135.743 211.493 135.474 210.818 135.231C210.144 134.989 209.52 134.773 209.432 134.751C209.344 134.73 209.26 134.703 209.245 134.691C209.23 134.679 209.182 134.661 209.138 134.652C209.023 134.626 207.914 134.264 207.725 134.19C207.637 134.156 207.541 134.12 207.512 134.11C207.483 134.099 207.378 134.055 207.28 134.012C207.182 133.969 207.038 133.921 206.96 133.906C206.476 133.813 205.459 133.499 205.005 133.302C204.812 133.218 203.144 132.728 202.681 132.618C202.575 132.593 202.335 132.523 202.147 132.461C201.709 132.319 200.361 131.918 200.152 131.868C199.904 131.809 197.985 131.291 197.805 131.235C197.495 131.137 195.508 130.63 195.245 130.581C195.099 130.553 194.859 130.486 194.712 130.433C194.474 130.347 192.56 129.898 192.152 129.834C192.064 129.82 191.884 129.78 191.752 129.745C191.326 129.634 191.04 129.573 190.658 129.514C190.453 129.482 190.117 129.407 189.912 129.347C189.707 129.288 189.394 129.217 189.218 129.192C188.818 129.132 188.472 129.064 188.472 129.044C188.472 129.035 188.304 129.007 188.098 128.981C187.893 128.956 187.197 128.832 186.552 128.707C185.906 128.582 185.234 128.472 185.058 128.462C184.882 128.452 184.667 128.414 184.578 128.379C184.491 128.343 184.347 128.316 184.258 128.319C184.171 128.322 183.931 128.298 183.725 128.264C183.52 128.23 183.016 128.171 182.605 128.131C182.194 128.091 181.776 128.042 181.674 128.024C181.573 128.005 181.045 127.958 180.501 127.92L179.512 127.851L178.577 126.901C178.062 126.377 177.614 125.95 177.579 125.95C177.545 125.95 177.174 125.648 176.754 125.281C176.335 124.913 175.68 124.374 175.298 124.085C174.917 123.795 174.581 123.529 174.552 123.494C174.523 123.46 174.317 123.321 174.096 123.187C173.874 123.052 173.634 122.884 173.563 122.813C173.49 122.742 173.276 122.592 173.085 122.48C172.894 122.368 172.738 122.239 172.738 122.193C172.738 122.147 172.689 122.11 172.628 122.11C172.485 122.11 170.136 120.709 170.089 120.596C170.07 120.548 169.983 120.51 169.897 120.51C169.81 120.51 169.274 120.273 168.706 119.984C168.137 119.695 167.24 119.282 166.712 119.066C166.184 118.849 165.692 118.624 165.618 118.565C165.545 118.505 165.485 118.484 165.485 118.517C165.485 118.55 165.266 118.48 164.997 118.362C164.729 118.243 164.382 118.122 164.227 118.095C164.072 118.067 163.895 118.004 163.835 117.957C163.774 117.909 163.581 117.842 163.405 117.808C163.041 117.738 161.354 117.306 161.112 117.221C161.024 117.19 160.88 117.15 160.792 117.133C160.704 117.115 160.296 117.032 159.885 116.947C159.474 116.863 158.875 116.763 158.552 116.725C158.229 116.687 157.797 116.616 157.592 116.566C157.024 116.431 156.395 116.408 153.378 116.405C150.08 116.402 148.793 116.491 145.485 116.95C145.25 116.982 144.914 117.028 144.738 117.052C144.089 117.139 142.228 117.474 141.55 117.626C141.263 117.691 140.879 117.766 140.697 117.794C140.207 117.868 140.046 117.904 138.818 118.216C138.203 118.373 137.627 118.517 137.538 118.537C137.451 118.557 137.378 118.581 137.378 118.59C137.378 118.599 137.282 118.624 137.165 118.645C137.048 118.666 136.544 118.81 136.045 118.965C135.547 119.12 135.09 119.256 135.032 119.268C134.973 119.279 134.877 119.318 134.818 119.354C134.679 119.439 133.124 119.901 133.07 119.873C133.047 119.861 132.999 119.891 132.964 119.94C132.864 120.077 131.875 120.409 131.767 120.342C131.715 120.31 131.672 120.334 131.672 120.396C131.672 120.458 131.619 120.51 131.555 120.51C131.49 120.51 131.286 120.578 131.101 120.662C130.26 121.046 129.313 121.46 129.243 121.475C129.2 121.484 128.985 121.584 128.765 121.696C128.545 121.809 128.365 121.868 128.365 121.829C128.365 121.789 128.274 121.839 128.161 121.941C128.049 122.042 127.893 122.137 127.815 122.15C127.736 122.165 127.504 122.28 127.298 122.408C127.093 122.537 126.891 122.642 126.85 122.642C126.809 122.643 126.535 122.784 126.242 122.957C125.705 123.274 125.394 123.155 125.655 122.733C125.698 122.664 125.685 122.638 125.625 122.675C125.567 122.711 125.41 122.491 125.276 122.185C125.142 121.879 124.919 121.381 124.779 121.076C124.639 120.771 124.525 120.491 124.525 120.452C124.525 120.413 124.327 119.966 124.086 119.459C123.844 118.951 123.637 118.488 123.624 118.43C123.612 118.371 123.468 118.035 123.306 117.683C123.143 117.331 122.969 116.947 122.919 116.83C122.868 116.712 122.604 116.136 122.331 115.55C122.059 114.963 121.826 114.422 121.814 114.348C121.802 114.274 121.735 114.157 121.666 114.087C121.596 114.017 121.538 113.91 121.536 113.848C121.536 113.786 121.367 113.406 121.163 113.003C120.959 112.6 120.792 112.204 120.792 112.123C120.792 112.042 120.747 111.976 120.692 111.976C120.638 111.976 120.559 111.868 120.517 111.736C120.442 111.494 119.188 108.84 118.704 107.896C118.56 107.618 118.442 107.367 118.439 107.338C118.43 107.223 117.993 106.296 117.669 105.708C117.48 105.362 117.315 105.028 117.302 104.965C117.289 104.902 117.133 104.604 116.955 104.302C116.777 104 116.632 103.686 116.632 103.605C116.632 103.522 116.585 103.427 116.528 103.391C116.422 103.325 115.984 102.437 115.931 102.18C115.915 102.101 115.835 101.957 115.755 101.86C115.674 101.763 115.298 101.059 114.92 100.296C114.541 99.5335 114.208 98.8852 114.178 98.8557C114.023 98.7009 113.767 98.13 113.826 98.0711C113.863 98.0333 113.845 98.0026 113.786 98.0026C113.726 98.0026 113.588 97.7985 113.477 97.5495C113.367 97.2999 113.228 97.0605 113.168 97.0177C113.108 96.9748 113.093 96.9383 113.135 96.9377C113.177 96.9364 113.094 96.7623 112.95 96.5498C112.806 96.338 112.712 96.1255 112.741 96.0788C112.77 96.0327 112.754 95.9783 112.707 95.9585C112.578 95.9047 111.298 93.5629 111.298 93.3799C111.298 93.2922 111.259 93.2045 111.21 93.1847C111.095 93.1386 110.324 91.8157 110.412 91.8157C110.448 91.8157 110.405 91.7319 110.315 91.6295C110.226 91.5265 109.895 90.9626 109.579 90.3764C109.263 89.7895 108.957 89.2282 108.898 89.1277C108.149 87.8497 107.672 87.0068 107.672 86.9588C107.672 86.9268 107.622 86.8423 107.561 86.7713C107.372 86.5511 106.178 84.4717 106.178 84.3636C106.178 84.3066 106.14 84.2445 106.094 84.2247C105.97 84.1722 105.314 83.0695 105.406 83.0676C105.449 83.0669 105.432 83.0305 105.367 82.9876C105.204 82.8794 103.026 79.3108 103.058 79.2065C103.073 79.1604 103.037 79.1226 102.978 79.1226C102.92 79.1226 102.872 79.0548 102.872 78.9716C102.872 78.8884 102.832 78.8045 102.783 78.7847C102.678 78.7425 100.792 75.801 100.792 75.6788C100.792 75.6327 100.74 75.5604 100.675 75.5188C100.511 75.4113 98.3862 72.1901 98.4771 72.1857C98.5181 72.1837 98.4675 72.1185 98.3651 72.041C98.1526 71.8791 97.6451 71.1604 97.6451 71.0202C97.6451 70.969 97.6073 70.9108 97.5619 70.8916C97.4525 70.8449 95.8717 68.6298 95.6714 68.242C95.5862 68.0769 95.4794 67.9258 95.4333 67.9053C95.3878 67.8855 94.7754 67.1015 94.0714 66.1626C93.3674 65.2237 92.6838 64.3367 92.552 64.1901C92.4195 64.0442 92.312 63.8906 92.312 63.8484C92.312 63.8068 92.2038 63.6596 92.072 63.522C91.7994 63.2372 91.6714 63.0829 90.7254 61.8957C89.9741 60.953 87.08 57.5789 86.657 57.1527C86.5091 57.0042 85.5626 56.0372 84.5526 55.0042C83.5434 53.9713 82.6998 53.1437 82.6781 53.1649C82.657 53.186 82.3472 52.9037 81.9907 52.5364C81.6336 52.1697 81.1286 51.7012 80.8682 51.4957C80.607 51.2903 80.4195 51.0746 80.4502 51.0157C80.481 50.9575 80.4688 50.9428 80.4227 50.9844C80.3773 51.0253 79.9498 50.7335 79.4723 50.3354C78.399 49.4407 77.1562 48.5063 76.072 47.778C75.617 47.4727 75.2451 47.1764 75.2451 47.1194C75.2451 46.8615 74.8989 47.0535 74.7581 47.3895ZM165.692 124.335C165.725 124.385 165.903 124.504 166.088 124.598C167.213 125.174 167.31 127.142 166.26 128.056C166.04 128.246 165.836 128.406 165.806 128.411C165.776 128.415 165.656 128.446 165.538 128.48C164.434 128.796 163.147 128.269 162.746 127.336C162.475 126.707 162.615 125.203 162.944 125.203C162.999 125.203 163.017 125.159 162.984 125.105C162.912 124.988 163.719 124.326 163.817 124.423C163.854 124.461 163.885 124.439 163.885 124.374C163.885 124.142 165.543 124.106 165.692 124.335Z" fill="#252625"/>
<path fill-rule="evenodd" clip-rule="evenodd" d="M82.072 52.5959C82.072 52.6145 82.2275 52.7706 82.4182 52.9428L82.7651 53.2558L82.4515 52.9095C82.1597 52.5863 82.072 52.5134 82.072 52.5959ZM83.5606 53.9758C83.8224 54.2548 84.0502 54.4826 84.0675 54.4826C84.1475 54.4826 84.063 54.3866 83.592 53.945L83.0851 53.4695L83.5606 53.9758ZM84.5251 54.9626C84.7241 55.1681 84.911 55.3358 84.9405 55.3358C84.9699 55.3358 84.831 55.1681 84.632 54.9626C84.4329 54.7572 84.2461 54.5895 84.2166 54.5895C84.1872 54.5895 84.3261 54.7572 84.5251 54.9626ZM90.4387 61.5578C90.6025 61.7729 90.7587 61.9495 90.7849 61.9495C90.8592 61.9495 90.3971 61.3255 90.2608 61.241C90.1942 61.2001 90.2742 61.3422 90.4387 61.5578ZM70.6537 78.2958C70.9155 78.5748 71.1433 78.8026 71.1606 78.8026C71.2406 78.8026 71.1561 78.7066 70.6851 78.265L70.1782 77.7895L70.6537 78.2958ZM74.4681 82.002C74.8323 82.3783 75.1459 82.6644 75.1645 82.6375C75.183 82.6113 74.8848 82.3034 74.5014 81.9534L73.8051 81.3172L74.4681 82.002ZM78.4675 85.8938C79.0371 86.4762 79.5177 86.9313 79.535 86.9044C79.5523 86.8775 79.0857 86.4014 78.4989 85.8452L77.432 84.8346L78.4675 85.8938ZM82.4937 89.8158C82.936 90.2868 83.032 90.3719 83.032 90.2913C83.032 90.2746 82.8035 90.0462 82.5251 89.785L82.0182 89.3095L82.4937 89.8158ZM86.6537 93.8695C86.9155 94.1479 87.1433 94.3758 87.1606 94.3758C87.2406 94.3758 87.1561 94.2804 86.6851 93.8382L86.1782 93.3626L86.6537 93.8695ZM90.9206 98.0295C91.3629 98.5006 91.4582 98.585 91.4582 98.505C91.4582 98.4878 91.2304 98.2599 90.952 97.9982L90.4451 97.5226L90.9206 98.0295ZM93.1651 100.169C93.1651 100.188 93.3213 100.344 93.512 100.516L93.8582 100.83L93.5453 100.483C93.2534 100.159 93.1651 100.087 93.1651 100.169ZM94.5181 101.268C94.5705 101.406 94.5507 101.429 94.4368 101.362C94.3529 101.313 94.3766 101.377 94.488 101.504C94.6 101.631 94.7177 101.736 94.7497 101.736C94.7817 101.736 94.7542 101.682 94.6883 101.616C94.6224 101.551 94.5917 101.436 94.6205 101.361C94.6493 101.285 94.6224 101.193 94.5603 101.155C94.4893 101.11 94.4739 101.153 94.5181 101.268ZM95.0134 101.988C95.1209 102.075 95.2797 102.233 95.3661 102.341C95.5126 102.522 95.5152 102.519 95.4083 102.298C95.3456 102.168 95.1869 102.009 95.0563 101.946C94.8349 101.839 94.8323 101.842 95.0134 101.988ZM79.2982 114.968C79.6681 115.219 79.8793 115.292 79.6182 115.079C79.4717 114.959 79.304 114.86 79.2451 114.86C79.1862 114.86 79.2105 114.908 79.2982 114.968ZM87.192 119.486C87.4697 119.795 87.5107 119.882 87.352 119.826C87.1805 119.765 87.1651 119.777 87.272 119.884C87.3609 119.974 87.4403 119.983 87.512 119.912C87.5837 119.84 87.4857 119.683 87.2189 119.437L86.8182 119.07L87.192 119.486ZM151.646 132.319C151.809 132.344 152.049 132.343 152.18 132.318C152.311 132.293 152.178 132.272 151.885 132.273C151.592 132.274 151.484 132.294 151.646 132.319ZM153.885 132.423C153.987 132.449 154.156 132.449 154.258 132.423C154.361 132.396 154.277 132.374 154.072 132.374C153.867 132.374 153.783 132.396 153.885 132.423ZM143.454 135.47L142.925 136.03L143.485 135.5C143.793 135.209 144.045 134.957 144.045 134.94C144.045 134.86 143.947 134.949 143.454 135.47ZM95.2387 145.923L94.9251 146.27L95.272 145.956C95.4627 145.784 95.6182 145.628 95.6182 145.609C95.6182 145.527 95.5305 145.599 95.2387 145.923ZM86.7261 156.376L86.5341 156.723L86.7536 156.456C86.9488 156.22 87.0352 156.03 86.9481 156.03C86.9315 156.03 86.8317 156.185 86.7261 156.376ZM83.9261 160.536C83.5587 161.159 83.5344 161.212 83.7219 160.99C83.9382 160.731 84.1251 160.403 84.0553 160.403C84.0272 160.403 83.9689 160.463 83.9261 160.536ZM85.9587 182.296L85.6451 182.643L85.992 182.329C86.1827 182.157 86.3382 182.001 86.3382 181.983C86.3382 181.9 86.2505 181.973 85.9587 182.296ZM83.9318 184.323L83.6182 184.67L83.9651 184.356C84.1558 184.184 84.312 184.028 84.312 184.009C84.312 183.927 84.2237 183.999 83.9318 184.323Z" fill="#6C6E52"/>
<path fill-rule="evenodd" clip-rule="evenodd" d="M91.8852 98.9095C92.0842 99.1143 92.2711 99.2826 92.3005 99.2826C92.33 99.2826 92.1911 99.1143 91.9921 98.9095C91.793 98.704 91.6061 98.5357 91.5767 98.5357C91.5473 98.5357 91.6861 98.704 91.8852 98.9095Z" fill="#858887"/>
<path fill-rule="evenodd" clip-rule="evenodd" d="M153.299 116.318C153.433 116.344 153.625 116.342 153.726 116.316C153.828 116.289 153.72 116.268 153.485 116.269C153.25 116.271 153.167 116.292 153.299 116.318ZM85.055 183.203L84.4719 183.816L85.085 183.233C85.4223 182.912 85.6982 182.636 85.6982 182.62C85.6982 182.54 85.5964 182.633 85.055 183.203Z" fill="#8A9674"/>
</svg>
