<svg id="Layer_1" data-name="Layer 1" xmlns="http://www.w3.org/2000/svg" viewBox="0 0 694.64 772.96"><defs><style>.cls-1{fill:#18be4a;}</style></defs><title>xbull final</title><path class="cls-1" d="M325.8,808.54q-15.19,0-30.37,0a30.84,30.84,0,0,1-3.78-.19,2.53,2.53,0,0,1-2.23-2.21,8.88,8.88,0,0,1-.2-1.67c0-4.5-.06-9-.11-13.5,0-1.8.41-3.33,2.1-4.28a6,6,0,0,0,2.68-4.12,26.1,26.1,0,0,0,1.07-6.64c0-3.37,0-6.75,0-10.12q0-22.78,0-45.56a54.85,54.85,0,0,0-.63-7.55c-.29-2.07-1-3.85-2.8-4.93s-2.52-2.84-2.49-5c.06-4.5,0-9,0-13.5a10.36,10.36,0,0,1,.21-2.09,2.24,2.24,0,0,1,2-1.88,23,23,0,0,1,2.94-.18c19.4,0,38.81-.1,58.21.16a77.77,77.77,0,0,1,22.06,3.15,27.48,27.48,0,0,1,16,12.91,20.62,20.62,0,0,1,2.25,8.07,38.67,38.67,0,0,1-3.66,21.32c-2.58,5.58-7.15,8.89-12.77,11-1.05.39-2.14.7-3.16,1.15a1.32,1.32,0,0,0-.65,1,1.26,1.26,0,0,0,.61,1,26.39,26.39,0,0,0,3.19,1.07A24.06,24.06,0,0,1,388,753.13a9.77,9.77,0,0,0,.87.91c5.27,4.5,6.76,10.51,6.65,17.07a57.94,57.94,0,0,1-2.27,15.35c-2.56,8.75-8.22,14.58-16.49,18a55.73,55.73,0,0,1-20.17,4c-10.26.18-20.53,0-30.79,0Zm9.14-38.92h-.05c0,3.08,0,6.17,0,9.25a29.1,29.1,0,0,0,.14,2.94,2,2,0,0,0,1.83,2c3.37.31,6.73.4,9.91-1.06a6.28,6.28,0,0,0,3.59-3.37c2.18-5.81,2.75-11.71.84-17.71a7.33,7.33,0,0,0-5.19-5.09,25.48,25.48,0,0,0-7.47-1c-2.62.07-3.52.93-3.58,3.57C334.87,762.61,334.94,766.11,334.94,769.62Zm.06-48.17c0,3.5-.07,7,0,10.51.05,1.91.82,2.81,2.45,2.78a30.91,30.91,0,0,0,11.11-2,4.38,4.38,0,0,0,2.9-3.83,49.82,49.82,0,0,0-.2-11.74,8.27,8.27,0,0,0-6.85-7.09,44.53,44.53,0,0,0-6.24-.83c-2.16-.16-3.35.86-3.1,2.94C335.48,715.33,334.89,718.38,335,721.45Z" transform="translate(-71.22 -38.06)"/><path class="cls-1" d="M463.75,744.16q0-13.71,0-27.42c0-.84,0-1.69,0-2.53a8.41,8.41,0,0,0-2.95-7.14,5.47,5.47,0,0,1-2-4.45c0-4.5,0-9,0-13.5a7.54,7.54,0,0,1,.11-1.26,2.67,2.67,0,0,1,2.42-2.52,19.53,19.53,0,0,1,2.94-.18q19.62,0,39.23-.05c4.64,0,5,.42,5.08,5.06,0,3.8,0,7.59,0,11.39,0,2.38-.49,4.4-2.46,6-2.63,2.1-3.42,5-3.44,8.27,0,7.17.15,14.35-.18,21.51-.59,12.65-.37,25.3-.65,37.94a38.09,38.09,0,0,1-9,23.61,17.07,17.07,0,0,1-3.05,2.88,43.49,43.49,0,0,1-22.55,8.57,111.85,111.85,0,0,1-15.15.64c-6.88-.32-13.77-.88-20.42-2.79a37.13,37.13,0,0,1-17.31-10.81A18.25,18.25,0,0,1,411,792a58.15,58.15,0,0,1-4.46-18.79,16.93,16.93,0,0,1,.23-3.36,40.76,40.76,0,0,0,.13-10.1,87.46,87.46,0,0,1-.42-9.68c0-8.3,0-16.59,0-24.89a70.19,70.19,0,0,1,.36-7.15,26.09,26.09,0,0,0-.7-7.1,6.65,6.65,0,0,0-2.29-3.47,5.55,5.55,0,0,1-1.75-4.14c0-4.78,0-9.56.11-14.34.08-2.87.94-3.58,3.93-3.77.7,0,1.41,0,2.11,0l37.12-.06c1,0,2,0,3,0,3.64.17,4.33.83,4.41,4.62s0,7.88,0,11.81a6.79,6.79,0,0,1-2.2,5.68,7,7,0,0,0-2.23,4.43,31.74,31.74,0,0,0-.49,4.6c0,18.42,0,36.84,0,55.26a56.35,56.35,0,0,0,.93,8.79,5.3,5.3,0,0,0,3.21,4.15,9.31,9.31,0,0,0,6.17.72,5.11,5.11,0,0,0,4.16-3.71,29.25,29.25,0,0,0,1.43-8.69C463.7,763.28,463.75,753.72,463.75,744.16Z" transform="translate(-71.22 -38.06)"/><path class="cls-1" d="M150.52,685.15c6.33,0,12.65,0,19,0,4.57,0,4.93.43,5,5.15,0,1.41.06,2.81,0,4.22-.22,5.91,1.45,11.38,3.76,16.72a11.23,11.23,0,0,0,1.3,2.15,1.24,1.24,0,0,0,2.12-.17c.71-1.37,1.28-2.8,1.9-4.21a30.46,30.46,0,0,0,2.64-13.54c-.07-2.25-.07-4.5.06-6.74.16-2.73.92-3.42,3.63-3.6,1-.07,2,0,3,0l33.31-.15c2.16,0,2.9.49,2.94,2.64.11,4.92.06,9.84,0,14.76a5.21,5.21,0,0,1-2,4c-3.8,3.24-6.49,7.35-9.22,11.46-4.42,6.68-8.91,13.32-13.36,20q-.7,1.05-1.38,2.12a4.1,4.1,0,0,0-.13,4.4c.2.37.37.76.58,1.13q5.93,10.44,11.87,20.88c1.39,2.44,2.69,4.94,4.13,7.35,2.23,3.74,4.49,7.47,6.85,11.12a10.7,10.7,0,0,1,1.89,6.33c-.11,3.79-.06,7.59-.1,11.39a20.14,20.14,0,0,1-.13,2.52c-.33,2.41-1.11,3.14-3.52,3.37-.7.07-1.4.06-2.11.06H185.45a24.37,24.37,0,0,1-2.53-.07c-2.1-.22-3-1-3.27-3.18a24.59,24.59,0,0,1-.17-3.36c0-3.65,0-7.31-.05-11-.14-6.13-2.67-11.42-6.06-16.36a1.5,1.5,0,0,0-2.51-.05,6.06,6.06,0,0,0-.79,1c-3.31,5.49-5.83,11.22-5.73,17.81.05,3.23,0,6.47-.06,9.7a19.69,19.69,0,0,1-.13,2.52c-.27,1.91-1,2.63-3,2.88a17.39,17.39,0,0,1-2.1.09c-9.7,0-19.4.06-29.1,0-4.82,0-5.36-.59-5.43-5.29-.06-4.5-.06-9-.11-13.49a3.34,3.34,0,0,1,.95-2.68c2.53-2.34,4-5.39,5.63-8.35a79.7,79.7,0,0,1,4.3-7.22c3.81-5.56,7.28-11.35,10.89-17,1.66-2.61,3.22-5.28,5-7.78,1.92-2.67,1.8-5.07-.06-7.72-4.68-6.68-9.22-13.44-13.83-20.17-1.83-2.66-3.64-5.34-5.53-8a21.73,21.73,0,0,0-3.23-3.88,6.58,6.58,0,0,1-2.38-5.56c.08-3.93,0-7.87.06-11.81a12.78,12.78,0,0,1,.17-2.1,2.34,2.34,0,0,1,2.25-2.14,27.45,27.45,0,0,1,3.36-.15q9.28,0,18.56,0Z" transform="translate(-71.22 -38.06)"/><path class="cls-1" d="M562.15,808.57H520.4a40.27,40.27,0,0,1-4.21-.17,2.56,2.56,0,0,1-2.3-2.15,2.34,2.34,0,0,1-.1-.41,134.68,134.68,0,0,1,0-14.32,4.36,4.36,0,0,1,1.8-3.22,7.09,7.09,0,0,0,2.6-5.11,57.49,57.49,0,0,0,.42-5.87q.09-27.2.11-54.4a55.25,55.25,0,0,1,.44-8.83,7,7,0,0,0-2.21-6.9,5.06,5.06,0,0,1-1.72-4.12c0-4.78,0-9.56,0-14.34a7.5,7.5,0,0,1,.21-1.67,2,2,0,0,1,1.69-1.67,22.63,22.63,0,0,1,3.35-.23q19.19,0,38.38,0c5.22,0,5.47.27,5.5,5.48,0,3.8,0,7.59,0,11.39a6.42,6.42,0,0,1-2.1,5.26,8.6,8.6,0,0,0-2.64,7.66,62.89,62.89,0,0,1,.33,6.31q.05,28.25.05,56.51a44.11,44.11,0,0,0,.19,4.63,2,2,0,0,0,2.32,1.94,16.42,16.42,0,0,0,6.9-1.71,5.38,5.38,0,0,0,3-4.31c.07-.7.15-1.4.15-2.1.08-7.17,1-14.3.75-21.48a18.47,18.47,0,0,1,.12-2.95,2.24,2.24,0,0,1,2.14-2.22,20.87,20.87,0,0,1,2.94-.17c8.86,0,17.71,0,26.57,0,5.11,0,5.64.52,5.65,5.51q0,24,0,48.07c0,5.05-.51,5.55-5.58,5.56-14.34,0-28.68,0-43,0Z" transform="translate(-71.22 -38.06)"/><path class="cls-1" d="M664,808.53H622.63c-1.4,0-2.81,0-4.21-.16a2.7,2.7,0,0,1-2.5-2.46,13.39,13.39,0,0,1-.17-2.1c-.06-3.51-.08-7-.15-10.54,0-2.19.22-4.18,2.23-5.57a4.46,4.46,0,0,0,1.88-3.19,67.59,67.59,0,0,0,.94-8.37q0-31,0-62c0-2.75-.21-5.33-2.41-7.34a5.4,5.4,0,0,1-1.64-4.19q0-7,0-13.91c0-.14,0-.28,0-.42.23-2.36.82-3,3.08-3.16,1.12-.08,2.25,0,3.37,0,6.6,0,13.21,0,19.81,0a106.22,106.22,0,0,0,11.78-.49,53.72,53.72,0,0,1,8.42-.07c2.48.11,3.27.91,3.31,3.42.09,5.2,0,10.4,0,15.6a4,4,0,0,1-1.78,3.61c-2.37,1.55-3,3.95-3.16,6.56,0,.7,0,1.4,0,2.11q0,30.78,0,61.55c0,.56,0,1.12,0,1.69-.08,4.47.41,5.24,5.52,4.81,4.18-.35,5.9-1.93,7-6.06a26.15,26.15,0,0,0,.76-6.68c0-5.48,0-11,0-16.44,0-4.74.57-5.29,5.38-5.31q13.7-.06,27.4,0c4.34,0,5.19.79,5.16,5.22-.07,9,.3,18-.42,27-.41,5.17-.1,10.39-.14,15.59,0,2.81,0,5.62-.16,8.43-.11,2-.87,2.7-2.91,2.86-1.26.1-2.53.08-3.79.08Z" transform="translate(-71.22 -38.06)"/><path class="cls-1" d="M372.82,550.77c0-.24,0-.56-.13-.73-3.78-4.7-5.41-10.22-6.07-16.07a5.37,5.37,0,0,0-2.36-3.93c-7.45-5.72-14.66-11.71-20.37-19.27s-9.26-16-9.17-25.75c0-3.33,1.21-6.29,2.45-9.25,4.76-11.33,11.57-21.55,17.57-32.2,8-14.15,14.83-28.73,17.79-44.86.42-2.27.73-4.55,1.35-6.86a16.41,16.41,0,0,1,1.22,6.42c1.65,28.34-6.43,53.84-23,76.64-4.77,6.56-5.08,13.09-2.53,20.2,3.17,8.85,9.21,15.69,16.2,21.64,12.77,10.87,27.35,18.08,44,20.72,1.49.24,3,.36,4.5.56.15,0,.27.21.76.6-7.28,3.26-14.67,3.53-22.09,2.88s-14.59-3.19-21.89-6.27c.54,2.84,2.29,4.33,4,5.78a66.33,66.33,0,0,0,13.82,8.66c6.16,3.07,12.53,5.66,18.94,8.15,1.2.47,2.43,1.08,2.76-1,.18-1.11,1.09-1.32,2-1.33,3.93,0,7.86-.06,11.79-.12,1.37,0,2.27.41,2.22,2s.64,1.7,1.86,1.22c11.48-4.5,23-8.89,33.09-16.24a14.71,14.71,0,0,0,5.78-7.15c-14.47,6.14-28.89,9.29-44.68,3.42,2.8-1.27,5.15-1,7.34-1.39,21.46-4.31,39.45-14.43,53-31.79,4.65-5.95,7.68-12.68,7.17-20.54a15.15,15.15,0,0,0-3-8.42,120.56,120.56,0,0,1-23.7-59,83.36,83.36,0,0,1,.57-26c1.24,2,1.05,3.86,1.35,5.6,2.5,14.62,8,28.12,15.16,41,5.52,10,11.27,19.89,16.87,29.86,1.18,2.1,2,4.37,3.15,6.51,4.74,9.06,3.33,18-.6,26.82-4.53,10.16-12.38,17.58-20.73,24.55a2.09,2.09,0,0,1-.21.16c-4.74,3-8.22,6.63-8.36,12.88-.07,3.4-2,6.59-4,9.55,1.26.77,2.25,0,3.18-.24a205.5,205.5,0,0,0,140-133.2A193.66,193.66,0,0,0,620,357.53c.07-3.57.56-7.12.22-10.7-.17-1.84-1-2.27-2.64-1.7a105.85,105.85,0,0,0-10.86,4.56c-9.15,4.3-18.37,5.61-27.89,1.11-5.9-2.79-10.32-7.29-14.45-12.14-2.55-3-4.85-6.2-7.75-8.87a20.4,20.4,0,0,0-7.77-4.69c3.61-1.62,7.23-1.2,10.83-.41a31.83,31.83,0,0,1,10.67,4.84c4.24,2.8,8.26,6,13.06,7.86a7.28,7.28,0,0,0,5.68.14c5.16-2,10.48-3.62,15.54-5.84,14.23-6.26,27.67-4.37,40.69,3.37.84.5,1.73.92,2.61,1.35.11.05.32-.08.94-.25-10.49-13.9-24-23.71-39-31.62s-31.11-12.94-48.33-13.62c17-3.79,33.73-3.65,50.73,3-1.06-3.39-1.9-6.18-2.82-8.94-.36-1.1-1.25-1-2.22-.82a38.36,38.36,0,0,1-7.81,1.07c1-.37,1.94-.78,2.93-1.12,19.52-6.69,38.92-13.7,57.83-22C680.82,253.1,700.9,243,718.5,228.6c7.73-6.31,14.61-13.41,19.85-22,6.55-10.67,9.57-22.14,8.2-34.76-1.08-9.9-2.77-19.61-6.22-29-7.27-19.76-21.12-32.48-41.21-38.53a130.45,130.45,0,0,0-29-4.93,6.83,6.83,0,0,1-3.86-1,123.58,123.58,0,0,1,18.88-1.1c10.29.22,20.46,1.37,30.31,4.7,19.7,6.66,32.92,20.13,41.22,38.83a120.72,120.72,0,0,1,9,33c.61,4.46-.73,8.87-1.61,13.23-5.87,28.83-22.17,50-47.5,64.53-14.52,8.33-30.14,13.88-46.17,18.41-4,1.12-3.93,1.09-2.77,5a272.36,272.36,0,0,1,9.95,51.43,262.46,262.46,0,0,1,.81,37.19,263.52,263.52,0,0,1-205.34,244c-4,.91-4,.88-4,5,0,13.93-.07,27.87.06,41.8,0,2.73-.83,3.52-3.51,3.5-11.7-.12-23.4,0-35.1-.06-3.3,0-3.44-.15-3.45-3.5q0-18,0-35.91c0-4.59,0-4.57-4.72-4.55s-9.29.12-13.93,0c-2.44-.09-3.27.67-3.25,3.17.1,12.33.05,24.65,0,37,0,3.85,0,3.86-3.89,3.86-11.61,0-23.23-.06-34.84,0-2.58,0-3.38-.82-3.36-3.38.1-14.29,0-28.58.1-42.88,0-2.27-.78-3.08-2.89-3.54a258.36,258.36,0,0,1-118-59.11q-63.16-55.35-83.06-137.07A265,265,0,0,1,164,272.26c.65-2.11.35-2.95-1.84-3.59-15.38-4.52-30.3-10.18-44.11-18.47-26.78-16.07-42.19-39.6-46.58-70.5-1.07-7.54,1.09-14.55,2.82-21.6C77.81,144,83.59,130.92,93.5,120c9.31-10.28,20.92-16.57,34.24-19.84,14-3.44,28.24-3.57,42.52-1.6-3.71,1.11-7.57,1-11.36,1.5-10.51,1.28-20.8,3.4-30.5,7.79-18.14,8.22-28.61,22.77-34,41.46a115.8,115.8,0,0,0-4.31,25.29c-.93,15.77,5,29.15,15,40.94,11.05,13,24.91,22.41,39.59,30.72,23.88,13.51,49.34,23.41,75.09,32.63,5.94,2.12,11.9,4.17,17.72,6.81-4.05-.81-8.14-1.46-12.14-2.5-2.48-.64-3.59,0-4.25,2.43-1.07,3.94-2.38,7.82-3.37,12.12,19-10.15,38.8-11.27,59.3-6.8-17.29.74-33.37,5.71-48.57,13.71s-28.66,18-39.29,32c1.48.28,2.17-.56,3-1,6.7-3.65,13.53-6.83,21.28-7.63,6.23-.65,12.06.83,17.81,2.86,6.15,2.16,12.25,4.46,18.34,6.78a6.86,6.86,0,0,0,5.17-.08c4.58-1.74,8.37-4.76,12.4-7.39,4.53-3,9.23-5.37,14.74-6a29.3,29.3,0,0,1,7.67.47c0,.29,0,.57-.08.59-7.5,2.4-11.47,8.79-16.16,14.33-5.74,6.79-12.41,12.06-21.43,13.69-6.89,1.24-13.27-.49-19.5-3.26-4.8-2.14-9.5-4.56-14.72-5.67-6.63-1.42-7.06-1.13-7.06,5.48,0,51.22,16.6,96.43,50,135.13,29.34,34,66.23,55.83,110.07,65.8C371.39,550.87,372.06,551.27,372.82,550.77Zm21.27,39.55h12.31c4.06,0,4.07,0,4.07-4q0-10,0-20.08c0-6.06.26-5.37-5.32-5.32-8.83.08-17.47-.72-25.41-5.09-2.32-1.28-1.83.66-1.84,1.73,0,10,0,20-.06,30,0,2.16.82,2.79,2.85,2.75C385.17,590.26,389.63,590.32,394.09,590.32Zm65.14-17.4c0-4.82-.06-9.64,0-14.45,0-2.09-.4-2.9-2.52-1.67a25.32,25.32,0,0,1-6.51,2.4c-6.81,1.77-13.75,2-20.72,1.69-2-.08-2.91.49-2.88,2.68.09,8,.08,16.06,0,24.09,0,2,.66,2.7,2.63,2.68q13.65-.09,27.3,0c2,0,2.71-.75,2.68-2.69C459.18,582.74,459.23,577.83,459.23,572.93Z" transform="translate(-71.22 -38.06)"/><path class="cls-1" d="M166.42,101.68c-5,2.49-10.13,4.79-14.91,7.71-8.59,5.23-16.16,11.59-21,20.56-8.15,15.1-6.63,29.94,1.92,44.31,6.74,11.33,17.07,18.28,29.1,23C172,201.32,183,203,194.15,204.32c2.07.24,3-.9,4-2.39a253.82,253.82,0,0,1,33-39.33c36.43-35.3,79.35-58.58,129-69.28,2.28-.49,3-1.43,3-3.74-.1-16,0-32-.1-48,0-2.63.67-3.58,3.45-3.54q17.68.21,35.37,0c2.65,0,3.33.94,3.32,3.43-.09,14.2,0,28.4,0,42.6,0,3.4,0,3.39,3.46,3.39l15,0c3.32,0,3.39,0,3.39-3.49q0-21,0-42.07c0-3.83,0-3.84,3.9-3.84,11.61,0,23.22.07,34.83-.05,2.6,0,3.34.81,3.33,3.36-.1,16.08,0,32.15-.09,48.23,0,2.34.56,3.41,3.06,4A260.54,260.54,0,0,1,584.61,149a249.29,249.29,0,0,1,46,50.22c2.89,4.22,5.54,6.07,11,5.31,10.54-1.47,21.07-2.74,31.16-6.27,12.33-4.32,23-11,30.5-22,14-20.77,10.28-45-9.25-60.71a87.27,87.27,0,0,0-20.94-12.32c-.81-.34-1.61-.72-2.5-1.12.42-.9,1.11-.66,1.64-.58,12.31,1.9,23.72,5.89,33.27,14.24a50,50,0,0,1,17.39,34c1.36,14.56-2.12,27.92-12.05,39-6.52,7.3-14.71,12.44-23.52,16.53C670.61,213.09,653,216.59,634.61,217c-14.25.29-28.32-1.45-42.42-3-13.13-1.49-26.28-2.92-39.4.13-.15,0-.33-.08-.92-.24,3.11-1.61,6.23-2,9.21-2.9.84-.25,2.12-.08,2.39-.92.33-1-.92-1.6-1.58-2.27a202.24,202.24,0,0,0-99.08-56.17c-2.85-.68-3.66-1.94-3.63-4.74.13-12.68.06-25.37.05-38,0-3.33-.16-3.49-3.48-3.49q-12.73,0-25.46,0c-3.59,0-3.63,0-3.63,3.54,0,11.34-.06,22.69,0,34,0,2.55-.74,3.53-3.36,3.35a85.19,85.19,0,0,0-9.64-.08c-2.5.12-3.27-.93-3.26-3.29.06-11.25,0-22.51,0-33.76,0-3.69-.09-3.78-3.73-3.79q-12.59,0-25.19,0c-3.65,0-3.66,0-3.66,3.78,0,12.33-.07,24.65.05,37,0,2.56-.82,3.52-3.33,4a202.84,202.84,0,0,0-96.8,49c-3.38,3.05-6.64,6.21-10.13,9.84,6,1.73,12.06,2.32,17.49,5-3.76-.3-7.46-1.07-11.2-1.45-8.61-.87-17.12.09-25.63,1-16.23,1.73-32.42,4.19-48.82,3.42-20.9-1-40.8-5.62-59-16.49C126.62,192,117,180.45,114.5,164c-4.34-28.31,11.87-52.81,39.78-60.35C158.22,102.56,162.19,101.53,166.42,101.68Z" transform="translate(-71.22 -38.06)"/><path class="cls-1" d="M474.92,346a18.42,18.42,0,0,1,4.79.16c12.29.74,22-4.29,25-17.15.18-.75.79-1.66.06-2.26s-1.49.21-2.19.5c-7.33,3-15,5.38-21.87,9.42A42.53,42.53,0,0,0,463.3,355c-.25.53-.35,1.23-1.24,1.43a5.38,5.38,0,0,1,0-3.31c1.19-6.28,4.52-11.4,8.76-16,8.34-9,18.65-15.47,28.9-22,7.91-5,16.09-9.65,23.18-15.87,2.58-2.26,4.83-4.75,5.87-8.14.51-1.66.23-2.63-1.64-3.16-12.28-3.48-20-11.84-24.92-23.27-1.61-3.77-3.39-7.48-5.08-11.22-4.59-10.12-12.78-14.51-23.53-14.6s-20.87,2.5-31,5.53c-4.19,1.26-8.3,2.74-12.46,4.11a4.74,4.74,0,0,1-2.87.47,40.14,40.14,0,0,1,8.2-6.73c16.27-10.93,34-14.93,53.28-10.67,9.22,2,16,7.19,20.14,15.72,1.88,3.85,3.91,7.62,5.88,11.43,6,11.53,15.58,17.82,28.31,19.54,1.94.26,3.9.43,5.85.6,1.64.14,2.17.77,1,2.17-4.17,5.17-7.19,11.08-10.57,16.75A61.29,61.29,0,0,1,512.58,322c-2,.94-2.65,1.68-1.89,4.17,2.48,8.11-.5,15-6.12,20.71s-12.48,7-20,4.68A22.65,22.65,0,0,1,474.92,346Z" transform="translate(-71.22 -38.06)"/><path class="cls-1" d="M409.84,249c-1.24.31-2.25-.41-3.29-.77-12.16-4.22-24.43-8.06-37.34-9.18-7.8-.67-15.4-.11-21.88,5-3.74,3-6,7-8,11.25-2.38,5-4.31,10.19-7,15a35.85,35.85,0,0,1-21.23,17.35c-3.15,1-3.39,1.51-2.07,4.61a20.32,20.32,0,0,0,6,7.42c8.81,7.37,18.91,12.82,28.46,19.07,8.24,5.38,16.32,10.95,23,18.24,4.37,4.74,7.76,10,8.85,16.52.16.93.55,1.88,0,2.81-.74,0-.85-.63-1.06-1.08-5-10.57-13.54-17.32-24-21.88-5.32-2.32-10.76-4.34-16.13-6.54-1.44-.59-2-.38-1.72,1.3a21.14,21.14,0,0,0,18.29,17.73c3.83.5,7.59,0,11.64-.16-6.76,7.15-19.58,9.71-28.33,2.34-5.68-4.78-10.67-15.4-7-23.09.87-1.81-.53-2.14-1.62-2.66a65.12,65.12,0,0,1-20.59-15.12c-4.51-5-7.75-10.9-11.13-16.68a87.83,87.83,0,0,0-6.05-9.15c-.45-.59-1.41-1.11-.89-2,.4-.7,1.29-.47,2-.5a54.43,54.43,0,0,0,9.79-1.39c10.92-2.38,18.78-8.75,24-18.53,2-3.79,4-7.57,5.84-11.45,4.89-10.43,13.68-15.23,24.51-16.81,21.08-3.06,39.51,3.11,55.69,16.62C409.1,247.77,409.81,248.12,409.84,249Z" transform="translate(-71.22 -38.06)"/><path class="cls-1" d="M415.09,233.14c-1.92-7.93-5.49-7.83-11.53-8.06-6.86-.26-13.7.9-20.52,1.68a278.9,278.9,0,0,1-51.31,1.45c-3.74-.26-7.48-.51-11.19-1-2.05-.26-2.76.36-2.7,2.39a63,63,0,0,1-2,17c-1.94,7.8-6.19,14.16-12,19.58-1.94,1.81-3.85,3.64-5.83,5.52-.61-1,0-1.57.31-2.15q14-27.67-1.57-54.47c-1.81-3.12-1.71-3.08,2-3.26,16-.78,32-.6,47.95-.42,15.62.17,31.24.83,46.64,3.71,6.14,1.15,12.25,2.57,17.52,6.28a11.07,11.07,0,0,1,5,8.2C415.89,230.78,416.09,232.06,415.09,233.14Z" transform="translate(-71.22 -38.06)"/><path class="cls-1" d="M422.35,233a9.21,9.21,0,0,1,2.15-9.76c2.59-2.88,6-4.38,9.62-5.59,8.34-2.82,17-3.93,25.73-4.75,23.32-2.21,46.71-1.64,70.08-1.51,3.3,0,6.59.36,9.89.37,2.38,0,2.28,1,1.31,2.58a61.53,61.53,0,0,0-7.19,17.23c-3,12.49-1.17,24.44,4.28,36a12.38,12.38,0,0,1,1.65,4.14c-10.92-8.43-18.31-18.56-19.69-32.39a77,77,0,0,1-.52-9.88c.06-1.95-.72-2.43-2.59-2.22a259.91,259.91,0,0,1-57.94,0c-7.44-.81-14.91-1.47-22.36-2.18a26.51,26.51,0,0,0-8,.62C424.84,226.47,423,229.13,422.35,233Z" transform="translate(-71.22 -38.06)"/><path class="cls-1" d="M740.47,154.52a40.34,40.34,0,0,1,2.9,13.17c1.07,15.31-3.76,28.85-12.64,41.09C720.2,223.29,706.33,234,691,242.94c-25.18,14.71-52.32,24.07-81,28.93-13.32,2.26-26.75,3.25-40.19.75-7.84-1.46-15.2-4-20.83-10.07-4-4.32-5.37-9.56-5.5-15.25a1.78,1.78,0,0,1,.65-1.71c.69.82.41,1.86.61,2.76,1.94,8.64,7.51,14,15.48,17.09,8.91,3.46,18.26,4.29,27.66,3.58,38.35-2.9,72.77-16.87,104.57-37.84,13.72-9.05,26-19.83,35.57-33.33C737.24,184.9,742.39,170.78,740.47,154.52Z" transform="translate(-71.22 -38.06)"/><path class="cls-1" d="M292.82,245.28c1.17,8.47-1.61,15.32-8.44,20.38-6.37,4.71-13.8,6.63-21.51,7.48-19.38,2.12-38.27-.94-56.93-5.86-28.14-7.42-54.57-18.61-77.83-36.44-12.18-9.34-22.57-20.29-29.15-34.41a57.69,57.69,0,0,1-3.3-40.74,9.83,9.83,0,0,1,.47-1.23s.16,0,.47-.13A56.71,56.71,0,0,0,97.38,173c2.87,12.62,9.41,23.27,17.86,32.82,17.38,19.64,39.12,33.16,62.65,44A211.86,211.86,0,0,0,234,267.3c12.58,2,25.2,2.84,37.73-.35A31.38,31.38,0,0,0,285.42,260C289.79,256,292,251,292.82,245.28Z" transform="translate(-71.22 -38.06)"/><path class="cls-1" d="M482.5,485l-15.19,5.39q-14.76,5.26-29.24,11.26c-2.32,1-2.54,2-1.28,4,2.29,3.62,3.7,7.74,6.33,11.17,2.23,2.91,3.47,3.38,6.91,2.33a25,25,0,0,0,12.37-8.56c2.26-2.81,2.43-4.54,1.11-8.4a5.3,5.3,0,0,1,3.35,4.77c.34,3.52-1.05,6.5-3.11,9.17-4.7,6.09-10.33,10.61-18.58,10.54a9.28,9.28,0,0,1-6.54-2.57c-2.58-2.4-4.42-5.37-6.42-8.21a46.07,46.07,0,0,0-5.11-6.53c-5.73-5.64-13.25-5.06-18,1.43-2.59,3.52-4.65,7.41-7.49,10.77-6.13,7.24-9,7.77-17.27,3.14-4.82-2.69-9.18-5.9-12.09-10.7s-2.51-8.57.78-11.36a6.15,6.15,0,0,1,1.09-.5c-2.48,5.32.75,8.47,4,11.38,3.42,3.07,7.3,5.44,12.16,5.58a4.22,4.22,0,0,0,4.09-2c2.49-4.12,5-8.25,7.4-12.41.94-1.61-.63-1.76-1.5-2.11-7.53-3.05-15.06-6.1-22.63-9.06-6.4-2.51-12.84-4.91-19.26-7.37a5.48,5.48,0,0,1-1.78-1.07c4.71-.74,9.35-.13,14,.47,15.15,1.94,29.67,6.3,43.83,11.87a11.74,11.74,0,0,0,9,.19c13.18-4.79,26.53-9,40.37-11.56a144.36,144.36,0,0,1,16-1.71A3.35,3.35,0,0,1,482.5,485Z" transform="translate(-71.22 -38.06)"/><path class="cls-1" d="M286.62,337.75c1.76.15,2.66,1.21,3.7,2,7.6,5.48,12.11,13.21,15.7,21.61a264.06,264.06,0,0,1,10.37,27.28,44.92,44.92,0,0,0,16,23c9.93,7.79,14,18.63,14.73,30.93a5.67,5.67,0,0,1-.41,1.27,29.82,29.82,0,0,0-6.84-8q-9.57-7.33-19.13-14.67c-14.1-10.88-22.14-25.44-25.67-42.66-2.27-11.1-4.29-22.25-6.5-33.37C288.14,342.69,287.34,340.35,286.62,337.75Z" transform="translate(-71.22 -38.06)"/><path class="cls-1" d="M490.64,443.35c.13-9.31,2.25-17.88,8.06-25.28a73.4,73.4,0,0,1,10.75-10.41,29.28,29.28,0,0,0,9.22-12.86c3.84-10.94,7.81-21.84,12.31-32.54,3.86-9.17,8.73-17.6,17.22-23.36.7-.47,1.25-1.32,2.48-1.08-1,3.88-2,7.7-2.85,11.59-2,9.43-3.37,19-5.31,28.4-3.92,19-13.2,34.5-29.09,45.86q-4.57,3.27-9,6.69C499.39,434.2,494.1,437.74,490.64,443.35Z" transform="translate(-71.22 -38.06)"/><path class="cls-1" d="M430.84,486.08c4-4.53,9.06-7.38,14.34-9.89A109.82,109.82,0,0,1,462.11,470c-19.88-21.8-24.69-46.22-14.27-74,1.08,1.39.71,2.57.69,3.62-.22,14.95,1.49,29.59,7,43.6,5,12.52,12.4,23.08,24.2,30.14a14,14,0,0,1,1.36,1.23A298.93,298.93,0,0,0,430.84,486.08Z" transform="translate(-71.22 -38.06)"/><path class="cls-1" d="M357.08,474.63c2.87-2.06,5.09-3.5,7.14-5.15,11.8-9.49,18.1-22.3,21.9-36.59,2.87-10.77,3.74-21.79,3.81-32.89q0-1.47.08-2.94c0-.13.19-.25.53-.66a64.79,64.79,0,0,1,3.89,13.1c4.44,21.36-1.25,40.08-14.91,56.69-3.16,3.85-3.15,3.77,1.68,5.35,9,3,17.74,6.63,25.11,12.87.52.44,1.28.71,1.37,2A276.22,276.22,0,0,0,357.08,474.63Z" transform="translate(-71.22 -38.06)"/><path class="cls-1" d="M458.21,288.65a10.44,10.44,0,0,0,0,1.61,8.79,8.79,0,0,1-3.83,9,14.78,14.78,0,0,0-2.25,2.29,2.58,2.58,0,0,0,0,3.83,2.24,2.24,0,0,0,.36.39c5.57,3.58,6.42,9,5.67,14.94-.21,1.64.85,4.09-.61,4.72s-2.58-1.73-3.72-2.88c-5.6-5.63-11.08-11.39-16.68-17-1.36-1.37-1.51-2.29-.06-3.72,6.36-6.27,12.62-12.64,18.93-18.95.47-.47.88-1.38,1.7-1s.42,1.28.44,2C458.24,285.43,458.21,287,458.21,288.65Z" transform="translate(-71.22 -38.06)"/><path class="cls-1" d="M407.85,265.9c2.57-.74,5.36.82,7.64,3.73a21.91,21.91,0,0,0,2.09,2.07c1.48,1.43,3,1.51,4.44,0a4.13,4.13,0,0,0,.75-.76c4.13-7.49,11.3-5.13,17.64-5.46.31,0,.83.16.9.37.32.87-.5,1.25-1,1.73Q433.22,275,426,282.45c-1.55,1.6-3.15,3.17-4.69,4.78a1.7,1.7,0,0,1-2.76.07L398.3,268.21c-.37-.35-.94-.75-.61-1.33s.95-.37,1.46-.41Z" transform="translate(-71.22 -38.06)"/><path class="cls-1" d="M443.27,341.07c-4.61.27-8.9.89-13.23.49-1.83-.17-2.74-1.89-3.92-3.05-4.89-4.81-4.93-4.88-9.52.09-1.9,2.06-3.77,3.56-6.82,3.37-2.83-.18-5.69.18-8.54.25-.75,0-1.79.33-2.11-.63-.25-.75.58-1.23,1.06-1.72q6.29-6.38,12.61-12.74c2.13-2.15,4.32-4.26,6.38-6.48,1.21-1.31,2.07-1.17,3.29,0,6.66,6.45,13.39,12.83,20.09,19.24A7,7,0,0,1,443.27,341.07Z" transform="translate(-71.22 -38.06)"/><path class="cls-1" d="M382.41,318.42a5.37,5.37,0,0,0,0-.8c-.7-4.44.81-7.79,4.34-10.68s3.6-4,0-6.67c-4.66-3.46-5.18-7.93-4.69-13,.17-1.74-.84-4.34.62-5s2.69,1.81,3.9,3c5.54,5.43,11,11,16.47,16.44,1.31,1.3,1.65,2.22.17,3.71-6.23,6.25-12.34,12.62-18.52,18.93-.52.53-1,1.56-1.89,1.12-.7-.34-.39-1.29-.41-2C382.39,321.81,382.41,320.11,382.41,318.42Z" transform="translate(-71.22 -38.06)"/><path class="cls-1" d="M551,320.08c14.34-10.54,45.91-8.77,59.75,4.17C591.26,316.54,571.42,314,551,320.08Z" transform="translate(-71.22 -38.06)"/><path class="cls-1" d="M287.87,320.4c-20.78-6.34-40.56-3.89-60.31,4.14C236.17,312.19,277.64,309.31,287.87,320.4Z" transform="translate(-71.22 -38.06)"/><path class="cls-1" d="M426.1,304.2a5.6,5.6,0,0,1-5.64,5.56,5.74,5.74,0,0,1-5.8-6,5.72,5.72,0,0,1,11.44.44Z" transform="translate(-71.22 -38.06)"/></svg>