<svg width="1024" height="1024" viewBox="0 0 1024 1024" fill="none" xmlns="http://www.w3.org/2000/svg">
<rect width="1024" height="1024" rx="512" fill="black"/>
<path d="M430.48 771V245.4H602.56C636.64 245.4 666.16 251.88 691.12 264.84C716.56 277.8 736 296.28 749.44 320.28C763.36 343.8 770.32 371.64 770.32 403.8C770.32 435.48 763.36 463.32 749.44 487.32C735.52 511.32 716.08 529.8 691.12 542.76C666.16 555.72 636.64 562.2 602.56 562.2H508.24V771H430.48ZM508.24 492.36H602.56C629.44 492.36 650.8 484.44 666.64 468.6C682.96 452.28 691.12 430.68 691.12 403.8C691.12 376.44 682.96 354.84 666.64 339C650.8 323.16 629.44 315.24 602.56 315.24H508.24V492.36Z" fill="white"/>
<line x1="222" y1="527.28" x2="431" y2="527.28" stroke="white" stroke-width="69.84"/>
</svg>
