<?xml version="1.0" encoding="utf-8"?>
<!-- Generator: Adobe Illustrator 24.3.0, SVG Export Plug-In . SVG Version: 6.00 Build 0)  -->
<svg version="1.1" id="Ebene_1" xmlns="http://www.w3.org/2000/svg" xmlns:xlink="http://www.w3.org/1999/xlink" x="0px" y="0px"
	 viewBox="0 0 256 256" style="enable-background:new 0 0 256 256;" xml:space="preserve">
<style type="text/css">
	.st0{fill:#FFFFFF;}
</style>
<g>
	<circle cx="128" cy="128" r="126.6"/>
	<path class="st0" d="M206.5,181.1c1-212.9-156.7-219.5-158.7-3.9c-0.7,15.4,1.5,27.1,10.4,27.7c13.1-1.4,7.2-23.9,16-23.9
		c13.4,0-0.5,48.3,18,48.3c15.4,0,6.1-43.6,22.2-44c11.8-0.3,3.1,26.4,15.9,26.4c8.3,0,6.7-13.7,13.8-13.7c8.7,0,4.1,34.8,12.8,34.5
		c6.9-0.2,2.7-49.2,12.4-50c14-1.2,8.6,38.8,19.7,39.1C202.4,223.3,206.8,198.2,206.5,181.1z"/>
	<path d="M122.6,99c-3.9-4.1-32.8-24.8-42.8-31.9c-1.8-1.3-4.3-0.6-5.2,1.5c-12.2,29.9,19.6,50.1,46.9,34.5
		C123,102.3,123.7,100.2,122.6,99z"/>
	<path d="M134.1,103.1c27.3,15.6,59.1-4.6,46.9-34.5c-0.8-2-3.3-2.7-5.1-1.5C166,74.2,137,94.9,133.1,99
		C132,100.2,132.7,102.3,134.1,103.1z"/>
	<path d="M185.2,106.7c-4.4,8.3-9.2,16.4-13.9,24.4c-2.3,4-4.7,8-6.9,12c-2.2,4-4.4,8-6,12.1c-0.8,2-1.5,4.1-1.6,5.5
		c-0.1,0.4,0,0.6,0,0.8c0,0-0.1-0.1,0,0c0,0.1,0.5,0.4,1.2,0.6c1.6,0.4,3.7,0.5,5.8,0.3c2.2-0.2,4.4-0.5,6.6-0.8
		c8.9-1.6,18-4,27.1-6.2c-8.1,4.9-16.6,8.9-25.9,11.7c-2.3,0.7-4.7,1.3-7.2,1.6c-2.5,0.3-5.1,0.6-8.1,0.1c-1.5-0.3-3.3-1-4.9-2.6
		c-0.8-0.8-1.4-2-1.6-3.1c-0.1-0.5-0.2-1-0.2-1.5c-0.1-0.5,0-0.8,0-1.3c0.2-3.2,1.2-5.5,2.1-7.9c4-9.1,9.2-16.9,14.8-24.5
		C172.3,120.5,178.4,113.3,185.2,106.7z"/>
	<path d="M69.7,107.4c6.8,6.6,12.9,13.7,18.5,21.3c5.6,7.6,10.9,15.4,14.8,24.5c0.9,2.4,1.8,4.7,2.1,7.9c0,0.4,0.1,0.8,0,1.3
		c-0.1,0.5-0.1,1-0.2,1.5c-0.3,1.1-0.9,2.3-1.6,3.1c-1.5,1.6-3.3,2.3-4.9,2.6c-3,0.5-5.6,0.3-8.1-0.1c-2.5-0.4-4.8-0.9-7.2-1.6
		C74,165,65.4,161,57.3,156.1c9.2,2.2,18.2,4.6,27.1,6.2c2.2,0.4,4.5,0.7,6.6,0.8c2.1,0.2,4.3,0.1,5.8-0.3c0.7-0.2,1.2-0.5,1.2-0.6
		c0.1-0.1-0.1,0,0,0c0-0.2,0-0.3,0-0.8c-0.1-1.5-0.8-3.6-1.6-5.5c-1.6-4-3.8-8.1-6-12.1c-2.2-4-4.6-8-6.9-12
		C78.9,123.8,74.2,115.8,69.7,107.4z"/>
</g>
</svg>
