<svg id="Layer_1" data-name="Layer 1" xmlns="http://www.w3.org/2000/svg" viewBox="0 0 500 500"><defs><style>.cls-1{fill:#e44461;}.cls-2{fill:#bc395b;}.cls-3,.cls-6{fill:none;stroke-linecap:round;stroke-linejoin:round;stroke-width:20px;}.cls-3{stroke:#000;}.cls-4{fill:#3bb777;}.cls-5{fill:#239957;}.cls-6{stroke:#fff;}.cls-7{fill:#fff;}</style></defs><title>apple</title><path class="cls-1" d="M474.5,249.86C474.5,125.87,374,60.51,250,60.51S25.5,125.87,25.5,249.86a224.08,224.08,0,0,0,11.62,70.95H37S109,548,250,474.37C391,548,463,320.81,463,320.81h-.11A224.08,224.08,0,0,0,474.5,249.86Z"/><path class="cls-2" d="M474.5,249.86c0-78-39.81-132.74-100.17-162.67,36.38,31.68,58.75,76.81,58.75,135.06a223.85,223.85,0,0,1-11.63,70.95h.12S365.47,470.08,255.34,461a141.65,141.65,0,0,1-15.94,18.31c3.5-1.5,7-3.05,10.6-4.92C391,548,463,320.81,463,320.81h-.11A224.08,224.08,0,0,0,474.5,249.86Z"/><path class="cls-3" d="M317.4,158.05s-19.14,24.19-67.4,24.19-67.4-24.19-67.4-24.19"/><path class="cls-3" d="M474.5,249.86C474.5,125.87,374,60.51,250,60.51S25.5,125.87,25.5,249.86a224.08,224.08,0,0,0,11.62,70.95H37S109,548,250,474.37C391,548,463,320.81,463,320.81h-.11A224.08,224.08,0,0,0,474.5,249.86Z"/><path class="cls-3" d="M250,182.24s-30.41-98.38,46.69-171.3"/><path class="cls-4" d="M83,31.55C253.34-22.24,245.29,116,245.29,116S136.77,201.9,83,31.55Z"/><path class="cls-5" d="M83,31.55,245.29,116S136.77,201.9,83,31.55Z"/><path class="cls-3" d="M83,31.55C253.34-22.24,245.29,116,245.29,116S136.77,201.9,83,31.55Z"/><path class="cls-6" d="M123.69,204.09s28,38.56,80.95,36.25"/><circle class="cls-7" cx="99.94" cy="170.14" r="15.16"/></svg>