<?xml version="1.0" encoding="UTF-8"?>
<svg width="256" height="256" fill="none" version="1.1" viewBox="0 0 256 256" xmlns="http://www.w3.org/2000/svg">
 <defs>
  <filter id="filter3510" x="-.2507" y="-.2507" width="256" height="256" color-interpolation-filters="sRGB">
   <feGaussianBlur stdDeviation="13.027264"/>
  </filter>
 </defs>
 <g transform="matrix(.8427 0 0 .84278 -21.067 -57.599)">
  <rect x="48.772" y="92.272" width="256" height="256" fill="#000" stroke="#000" stroke-linejoin="round" stroke-miterlimit="5.4" stroke-width="47.544" style="paint-order:stroke fill markers"/>
 </g>
 <g transform="matrix(1.3671 0 0 1.3672 -15.528 -75.029)" filter="url(#filter3510)" style="mix-blend-mode:normal">
  <circle cx="105" cy="148.5" r="62.356" fill="#f1d4d4" stroke-miterlimit="5.4" stroke-width=".15358" style="paint-order:stroke fill markers"/>
 </g>
 <g transform="matrix(1.5998 0 0 1.6 -39.965 -109.6)" fill="#000">
  <path d="m111.83 91.505-3.2262 0.0217c-1.7743 0.01175-3.9816 0.10078-4.9056 0.19844-5.0214 0.53068-10.566 1.8679-15.051 3.6303-14.835 5.8289-26.624 17.609-32.434 32.408-3.4 8.6611-4.6173 18.736-3.3993 28.126 0.90473 6.9748 3.3437 14.423 6.6135 20.195 2.8265 4.9891 5.4876 8.491 9.5441 12.559 4.5624 4.5758 8.094 7.2284 13.651 10.254 6.4324 3.5016 14.611 5.8998 22.154 6.4962 0.3373 0.0267 2.1066 0.0602 3.9315 0.0744l3.3181 0.0253-0.0832-5.1118-0.0827-5.1124 0.73432-0.10025c0.40368-0.0553 1.0515-0.10167 1.4402-0.10283 1.208-4e-3 5.5126-0.71577 7.7778-1.2862 15.133-3.8108 27.462-14.647 32.894-28.909 4.4779-11.758 3.8043-25.023-1.8433-36.297-1.2328-2.4609-3.1613-5.579-4.4375-7.1737-0.47235-0.59027-1.1038-1.3817-1.403-1.7591-3.7873-4.7766-10.374-9.8252-16.642-12.756-4.9079-2.2949-11.375-3.9445-17.054-4.3501l-1.4164-0.10077-0.0403-5.4653zm-4.7832 2.5471c0.27383-0.0013 0.53856 0.0016 0.79375 0.0098l1.5301 0.04909 0.0512 3.9589c0.0341 2.6312-3e-3 4.0244-0.11059 4.1543-0.10857 0.1308-0.85563 0.22824-2.2598 0.29559-6.3984 0.30686-13.218 2.0921-18.985 4.9687-4.5924 2.2909-8.6334 5.2159-12.434 9.0015-4.891 4.8712-8.4511 10.316-10.675 16.326-6.6535 17.979-1.6388 37.714 12.814 50.427 3.6588 3.2184 8.55 6.297 13.067 8.2238 4.6905 2.0008 10.919 3.4061 16.47 3.7166l2.0702 0.11575 9e-3 3.6794c5e-3 2.0238-0.0199 3.7662-0.0548 3.8716-0.10478 0.31598-3.2045 0.2217-6.6234-0.20154-8.5988-1.0645-16.536-4.0343-23.793-8.9028-9.9988-6.7077-17.501-16.569-21.281-27.973-1.2935-3.902-2.2341-8.3432-2.5957-12.252-0.20745-2.2426-0.21106-7.6936-0.0067-9.8888 0.32445-3.4853 1.1188-7.5888 2.0929-10.809 5.1521-17.03 18.133-30.402 35.025-36.081 4.697-1.5792 10.79-2.6685 14.897-2.6903zm2.7905 14.475c3.6629 3e-3 4.6139 0.0533 6.4818 0.34365 7.0132 1.0902 13.702 3.8978 19.3 8.1003 2.1508 1.6147 6.1477 5.5351 7.6435 7.4972 4.1994 5.5086 6.7552 11.343 7.923 18.091 0.30265 1.7487 0.34441 2.5194 0.34209 6.2859-2e-3 3.7428-0.0464 4.5482-0.34571 6.2859-1.5734 9.1333-5.9412 17.059-12.825 23.27-6.0329 5.4436-13.983 9.1843-22.081 10.389-2.0637 0.30703-8.2842 0.53283-9.9653 0.36174-3.9199-0.39894-7.6087-1.2182-11.055-2.4552-14.164-5.0843-24.305-17.073-26.764-31.642-0.3043-1.8029-0.34935-2.6036-0.34778-6.2094 0.0016-3.5655 0.0501-4.4262 0.34623-6.2089 1.9629-11.817 9.1876-22.264 19.576-28.307 4.88-2.8389 9.716-4.5671 15.255-5.4514 1.9451-0.31051 2.7599-0.35396 6.5159-0.35088z" stroke-width=".15332"/>
  <path d="m128.58 121.73c-0.45543 0.0305-1.6816 0.34642-3.6251 0.93486-9.4463 2.8601-17.051 4.68-26.518 6.3461-3.0525 0.5372-4.5663 0.86912-4.8294 1.0591-0.69988 0.50535-0.75726 1.0637-0.3797 3.6969 1.3088 9.1278 0.67565 21.802-1.8359 36.751-0.60626 3.6085-0.58396 3.9704 0.28058 4.5132 0.60175 0.37778 1.5103 0.29535 2.02-0.18357 0.40412-0.37965 0.46481-0.63014 1.1334-4.6683 0.585-3.5334 1.1544-7.5454 1.4577-10.272 0.41317-3.7147 0.33028-3.4041 0.93695-3.5179 0.29314-0.055 3.412-0.54255 6.9306-1.0834l6.3976-0.98337 0.42162-0.46804c0.62861-0.69779 0.59061-1.5513-0.0997-2.2416-0.29735-0.29735-0.67604-0.52115-0.88156-0.52103-0.19816 1e-4 -2.637 0.34715-5.4196 0.77106-7.0664 1.0765-7.4291 1.1266-7.5172 1.0385-0.0431-0.0431 5e-3 -1.8825 0.10659-4.0874 0.20485-4.4435 0.0155-10.835-0.41802-14.114-0.12725-0.96252-0.1773-1.8032-0.11109-1.8679 0.0662-0.0648 1.535-0.36707 3.2636-0.67196 6.7018-1.182 16.417-3.4372 22.73-5.2762l1.0361-0.30184-1.266 1.5328c-0.69632 0.84307-1.3618 1.6677-1.4787 1.8326-0.29294 0.41314-0.26646 1.3844 0.0509 1.8688 0.45427 0.69329 1.7272 0.8996 2.3518 0.3812 0.37668-0.31262 6.2425-7.498 6.5186-7.985 0.51652-0.91105-0.0838-2.2531-1.1085-2.4782-0.0335-7e-3 -0.0829-9e-3 -0.14792-5e-3zm0 0c-0.45543 0.0305-1.6816 0.34642-3.6251 0.93486-9.4463 2.8601-17.051 4.68-26.518 6.3461-3.0525 0.5372-4.5663 0.86912-4.8294 1.0591-0.69988 0.50535-0.75726 1.0637-0.3797 3.6969 1.3088 9.1278 0.67565 21.802-1.8359 36.751-0.60626 3.6085-0.58396 3.9704 0.28058 4.5132 0.60175 0.37778 1.5103 0.29535 2.02-0.18357 0.40412-0.37965 0.46481-0.63014 1.1334-4.6683 0.585-3.5334 1.1544-7.5454 1.4577-10.272 0.41317-3.7147 0.33028-3.4041 0.93695-3.5179 0.29314-0.055 3.412-0.54255 6.9306-1.0834l6.3976-0.98337 0.42162-0.46804c0.62861-0.69779 0.59061-1.5513-0.0997-2.2416-0.29735-0.29735-0.67604-0.52115-0.88156-0.52103-0.19816 1e-4 -2.637 0.34715-5.4196 0.77106-7.0664 1.0765-7.4291 1.1266-7.5172 1.0385-0.0431-0.0431 5e-3 -1.8825 0.10659-4.0874 0.20485-4.4435 0.0155-10.835-0.41802-14.114-0.12725-0.96252-0.1773-1.8032-0.11109-1.8679 0.0662-0.0648 1.535-0.36707 3.2636-0.67196 6.7018-1.182 16.417-3.4372 22.73-5.2762l1.0361-0.30184-1.266 1.5328c-0.69632 0.84307-1.3618 1.6677-1.4787 1.8326-0.29294 0.41314-0.26646 1.3844 0.0509 1.8688 0.45427 0.69329 1.7272 0.8996 2.3518 0.3812 0.37668-0.31262 6.2425-7.498 6.5186-7.985 0.51652-0.91105-0.0838-2.2531-1.1085-2.4782-0.0335-7e-3 -0.0829-9e-3 -0.14792-5e-3z" stroke-width=".040565"/>
 </g>
</svg>
