<?xml version="1.0" encoding="UTF-8"?>
<svg id="Layer_1" data-name="Layer 1" xmlns="http://www.w3.org/2000/svg" viewBox="0 0 256 256">
  <defs>
    <style>
      .cls-1 {
        fill: #8ac6e5;
      }

      .cls-2 {
        fill: #b8feff;
      }

      .cls-3 {
        fill: #425c8a;
      }

      .cls-4 {
        fill: #52b5b6;
      }

      .cls-5 {
        fill: #478fb3;
      }

      .cls-6 {
        fill: #386c86;
      }

      .cls-7 {
        fill: #73d2d3;
      }

      .cls-8 {
        fill: #75d3d4;
      }
    </style>
  </defs>
  <circle class="cls-2" cx="128" cy="128" r="128"/>
  <g>
    <g>
      <path class="cls-7" d="M134.65,235.97c-2.87,.25-5.74,.31-8.61,.25-7.68-.17-15.24-1.07-22.6-3.32-5.86-1.79-11.57-3.92-16.45-7.74-2.95-2.31-5.68-4.86-7.82-7.98-.49-.71-1.18-1.15-1.89-1.6-3.82-2.39-7.97-4.02-12.3-5.16-2.74-.72-5.53-1.22-8.28-1.89-4.01-.97-7.54-2.89-10.25-5.98-2.14-2.44-2.09-5.22,.18-7.9,1.77-2.09,4.3-2.83,6.78-3.61,3.43-1.08,7.02-1.1,10.56-1.47,2.1-.21,4.21-.36,6.32-.36,4.6,0,9.2,.05,13.79,.19,3.92,.12,7.83,.26,11.75,.13,2.55-.09,5.07-.6,7.59-1.08,5.83-1.13,11.66-2.31,17.5-3.37,2.89-.53,5.83-.69,8.77-.89,3.73-.26,7.45-.66,11.18-.77,2.52-.08,5.05-.13,7.57-.19,2.86-.07,5.74-.04,8.59,.03,5.57,.12,11.16-.18,16.72,.27,2.65,.21,5.34,.06,7.96,.64,6.37,1.41,12.69,3.07,18.32,6.46,2.33,1.4,4.61,3.16,4.89,6.34,.07,.75,.12,1.48-.23,2.13-.87,1.61-1.67,3.27-3.04,4.55-.88,.83-1.63,1.81-2.53,2.62-1.55,1.39-1.88,3.05-1.36,4.99,.54,2.01,.23,3.98-.35,5.92-.12,.39-.31,.79-.57,1.09-1.7,1.91-3.41,3.79-5.78,4.97-2.82,1.41-5.53,3.02-8.5,4.11-1.2,.44-2.4,.88-3.62,1.27-4.67,1.5-9.41,2.75-14.19,3.87-4.75,1.11-9.52,2.09-14.34,2.82-2.35,.36-4.74,.57-7.12,.66-2.87,.11-5.75,.03-8.62,.03Z"/>
      <path class="cls-8" d="M65.81,166.27c1.39,.09,2.78,1.16,4.15,2.3,2.71,2.26,3.82,5.34,4.44,8.67,.07,.4,.03,.81-.32,1.02-.43,.26-.83,0-1.09-.34-.69-.91-1.64-1.55-2.32-2.49-.91-1.24-2.36-1.77-3.77-2.26-1.61-.56-3.03-1.39-3.9-2.9-1.32-2.28-.3-3.99,2.82-4Z"/>
      <path class="cls-8" d="M56.24,179.81c1.74-.1,3.46-.05,5.13,.51,.69,.23,1.32,.55,1.43,1.34,.11,.81-.48,1.25-1.08,1.63-2.2,1.36-4.65,1.49-7.12,1.4-1.52-.06-3.03-.24-4.55-.32-.67-.04-1.31-.19-1.91-.45-.55-.24-1.06-.6-1.09-1.27-.02-.73,.51-1.11,1.1-1.36,2.12-.9,4.31-1.52,6.64-1.47,.48,.01,.97,0,1.46,0Z"/>
      <path class="cls-8" d="M198.24,170.22c1.06,.18,1.97,.52,2.4,1.5,.41,.95-.03,1.71-.71,2.41-1.02,1.08-2.37,1.4-3.73,1.65-1.67,.3-3.36,.47-4.7,1.69-.36,.33-.79,.24-1.14-.06-.37-.31-.35-.71-.16-1.13,.53-1.17,1.48-1.99,2.37-2.86,1.36-1.32,2.93-2.3,4.71-2.94,.32-.12,.66-.18,.95-.26Z"/>
      <path class="cls-8" d="M198.55,180.42c1.48,.02,2.35,.55,2.76,1.66,.27,.72,.11,1.29-.58,1.67-.74,.41-1.32,.12-1.67-.51-.46-.83-.64-1.82-1.73-2.19-.37-.12-.05-.38,.15-.5,.35-.22,.74-.11,1.08-.13Z"/>
    </g>
    <path class="cls-4" d="M94.47,189.86c2.46-.14,6.05-.39,9.65-.55,2.25-.1,4.51-.03,6.76-.1,3.29-.1,6.54-.51,9.8-.93,7.44-.97,14.76-2.71,22.21-3.55,5.36-.61,10.75-.8,16.17-.36,5.07,.41,9.98,1.46,14.79,3.02,2.88,.93,5.47,2.39,7.07,5.13,1.5,2.56,2.3,5.24,1.41,8.23-.25,.82-.3,1.7-.47,2.55-.19,.95-.46,1.89-1.03,2.7-2.01,2.9-4.04,5.75-7.07,7.8-2.38,1.61-5,2.51-7.66,3.34-3.37,1.05-6.75,2.02-9.98,3.49-2.47,1.13-4.7,2.66-6.99,4.07-1.8,1.11-3.68,1.92-5.63,2.61-3.66,1.3-7.48,1.64-11.33,1.69-4.16,.06-8.14-.97-12.11-2.08-5.55-1.55-10.82-3.81-16.03-6.24-3.46-1.61-6.53-3.76-9.09-6.63-2.45-2.75-5.3-4.82-8.97-5.68-1.51-.35-2.97-.93-4.42-1.48-1.64-.62-3.1-1.54-4.19-2.96-1.24-1.62-2.62-3.14-3.68-4.88-.88-1.44-.72-2.35,.56-3.46,1.85-1.61,4.05-2.72,6.29-3.56,4.1-1.55,8.4-2.3,13.95-2.17Z"/>
    <g>
      <path class="cls-1" d="M137.44,216.68c3.23-4.11,4.77-8.85,6.28-13.66,2.32-7.41,6.43-13.84,11.43-19.74,5.02-5.93,10.77-11.09,16.73-16.01,4.32-3.57,7.69-7.95,10.47-12.69,3.37-5.73,5.61-12,6.09-18.72,.24-3.31-.04-6.63-.88-9.9-.66-2.58-1.04-5.22-1.61-7.83-.92-4.23-3.13-7.83-5.72-11.2-3.95-5.14-8.11-10.12-11.92-15.36-3.04-4.18-6.86-7.52-10.7-10.86-3.78-3.29-7.36-6.75-10.53-10.62-2.52-3.08-4.81-6.35-7.4-9.38-1.57-1.83-3.51-3.34-5.27-5-.54-.51-1.05-1.06-1.56-1.57,1.94-3.23,4.62-5.51,7.54-7.54-.05-.09-.11-.18-.16-.26-.97,.47-2,.84-2.89,1.42-2.73,1.78-5.41,3.66-7.39,6.31-3.35,4.48-5.64,9.46-6.72,14.95-.49,2.47-.83,5.01-.84,7.53,0,2.19,.58,4.38,.85,6.57,.9,7.34,4.23,13.69,7.81,20,1.89,3.33,3.35,6.91,4.99,10.38,.66,1.39,.79,2.81,.49,4.35-.49,2.54-.75,5.13-1.24,7.67-.48,2.46-1.37,4.8-2.89,6.84-1.4,1.89-2.72,3.86-4.24,5.65-1.42,1.66-3.15,2.97-5.34,3.63-3.25,.97-6.38,2.41-9.88,2.2-.89-.05-1.78-.26-2.64-.51-.86-.25-.94-.69-.32-1.35,.66-.7,1.47-1.29,2.01-2.07,2.22-3.24,2.69-6.95,2.53-10.73-.08-2.03-.44-4.06-.81-6.07-.48-2.63-2.13-4.71-3.57-6.85-3.55-5.29-8.24-9.54-13.01-13.67-3.22-2.78-6.7-5.27-9.97-8.01-2.91-2.44-5.42-5.23-7.1-8.72-1.34-2.8-1.39-5.7-.93-8.64,.8-5.11,2.63-9.9,4.57-14.66,2.44-5.98,5.33-11.74,8.74-17.23,2.77-4.48,5.52-8.97,8.29-13.46,2.34-3.78,5.37-6.88,9.22-9.12,1.61-.93,3.43-1.01,5.25-.99,5.62,.03,10.55,2.09,15.1,5.21,5.4,3.71,10.88,7.32,16.13,11.22,3.11,2.3,5.97,4.97,8.74,7.69,3.81,3.74,7.5,7.6,11.07,11.56,2.01,2.23,3.61,4.83,5.53,7.15,5.03,6.06,10.48,11.72,16.21,17.15,3.76,3.57,7.65,7.16,10.26,11.7,4.05,7.05,8.16,14.13,9.95,22.2,1.03,4.66,1.72,9.36,.7,14.12-.68,3.17-1.84,6.16-3.45,8.99-2.71,4.75-5.47,9.48-8.04,14.31-3.07,5.78-6.07,11.62-8.9,17.52-1.97,4.12-3.63,8.39-5.41,12.6-1.61,3.8-3.16,7.62-4.79,11.4-2.07,4.81-5.53,8.43-10.15,10.76-3.88,1.97-7.9,3.73-11.99,5.22-6.02,2.19-12.15,4.05-18.24,6.05-.12,.04-.25,.04-.48,.08ZM95.85,45.06c.66-.32,1.49-.5,1.96-1,1.1-1.18,2.07-2.49,3.01-3.81,.66-.92,.51-2.32-.26-3.04-.18-.17-.69-.27-.83-.15-2.07,1.76-3.86,3.76-5.04,6.24-.47,1-.02,1.62,1.15,1.77Zm2.12,18.15c0-1.64-.94-2.67-2.76-3.05-.36-.08-1.03,.12-1.18,.39-.78,1.45-1.45,2.96-2.12,4.47-.1,.24-.06,.63,.08,.86,.8,1.41,2.93,1.82,4.19,.78,1.12-.93,1.61-2.21,1.79-3.45Zm26.68-28.35c.12,.64,.13,1.32,.39,1.89,.17,.38,.71,.85,1.07,.84,1.09-.04,2.2-.19,3.25-.49,1.1-.32,1.56-1.2,1.5-2.32-.07-1.17-.86-2.19-1.81-2.54-1.21-.45-2.13,.27-3.13,.67-.87,.35-1.58,.8-1.28,1.95Zm76.57,91.07c1.54-.05,2.15-1.12,2.74-2.2,.6-1.11,.33-2.14-.4-3.09-.47-.6-1.4-.72-1.81-.2-.83,1.06-1.61,2.16-2.38,3.27-.43,.63-.27,1.22,.36,1.6,.46,.27,.99,.42,1.49,.62Zm-85.94-17.61c-.34-.73-.52-1.63-1.06-2.14-.47-.45-1.35-.54-2.06-.6-.13-.01-.4,.9-.48,1.4-.08,.5-.06,1.04,0,1.55,.11,1.05,.93,1.81,1.82,1.74,1.16-.1,1.56-.57,1.79-1.95Zm-7.86-56.23c-.76,.16-2.1,1.69-1.95,2.32,.05,.2,.25,.42,.45,.51,.3,.15,.66,.29,.98,.28,.5-.02,1.26,0,1.45-.31,.36-.55,.57-1.35,.47-1.98-.06-.34-.91-.55-1.4-.82Zm2.55,10.53c.38-.56,.68-.86,.76-1.21,.03-.14-.52-.6-.65-.54-.35,.14-.68,.44-.86,.77-.06,.11,.36,.48,.75,.98Z"/>
      <path class="cls-5" d="M207.64,113.4c-1.48-.22-3.13-.79-4.78-.56-4.44,.63-11.54-5.93-15.06-12.11-3.52-6.18-9.19-13.39-14.27-19.77-5.09-6.39-9.37-11.64-13.81-17.33-4.44-5.69-5.07-7.6-9.63-12.18-4.81-4.84-8.8-8.24-14.25-9.81s-9.18-2.41-14.64,1.57-3.52,11.29-5.93,25.5c-2.41,14.2-9.62,8.02-25.2,12.69-5.4,1.62-8.65,2.09-10.9,1.76,.19,.9,.48,1.8,.91,2.68,1.67,3.5,4.19,6.29,7.1,8.72,3.26,2.74,6.74,5.22,9.97,8.01,4.78,4.13,9.46,8.38,13.01,13.67,1.43,2.14,3.09,4.22,3.57,6.85,.36,2.01,.72,4.04,.81,6.07,.16,3.79-.31,7.5-2.53,10.73-.54,.78-1.35,1.37-2.01,2.07-.62,.66-.53,1.1,.32,1.35,.86,.25,1.75,.46,2.64,.51,3.5,.21,6.63-1.23,9.88-2.2,2.19-.66,3.92-1.97,5.34-3.63,1.53-1.78,2.84-3.76,4.24-5.65,1.52-2.05,2.41-4.38,2.89-6.84,.5-2.54,.75-5.13,1.24-7.67,.3-1.54,.17-2.96-.49-4.35-1.64-3.47-3.1-7.05-4.99-10.38-3.58-6.31-6.9-12.67-7.81-20-.27-2.2-.85-4.38-.85-6.57,0-2.51,.35-5.05,.84-7.53,1.08-5.48,3.37-10.47,6.72-14.95,1.98-2.65,4.66-4.53,7.39-6.31,.89-.58,1.92-.95,2.89-1.42,.05,.09,.11,.18,.16,.26-2.93,2.03-5.6,4.31-7.54,7.54,.51,.52,1.02,1.06,1.56,1.57,1.76,1.66,3.7,3.17,5.27,5,2.59,3.02,4.87,6.3,7.4,9.38,3.17,3.87,6.75,7.33,10.53,10.62,3.83,3.33,7.66,6.67,10.7,10.86,3.81,5.24,7.97,10.22,11.92,15.36,2.59,3.37,4.79,6.97,5.72,11.2,.57,2.6,.94,5.25,1.61,7.83,.84,3.27,1.12,6.59,.88,9.9-.48,6.71-2.73,12.98-6.09,18.72-2.78,4.74-6.15,9.13-10.47,12.69-5.97,4.92-11.72,10.08-16.73,16.01-5,5.91-9.11,12.34-11.43,19.74-1.51,4.81-3.05,9.54-6.28,13.66,.23-.04,.36-.04,.48-.08,6.09-2,12.22-3.86,18.24-6.05,4.09-1.49,8.11-3.25,11.99-5.22,4.62-2.34,8.08-5.95,10.15-10.76,1.63-3.79,3.19-7.6,4.79-11.4,1.78-4.21,3.44-8.48,5.41-12.6,2.83-5.91,5.83-11.74,8.9-17.52,2.57-4.83,5.33-9.56,8.04-14.31,1.61-2.82,2.77-5.82,3.45-8.99,1.02-4.76,.34-9.46-.7-14.12-.17-.75-.36-1.49-.56-2.22Zm-94.16-3.13c-.89,.07-1.71-.69-1.82-1.74-.05-.51-.08-1.05,0-1.55,.08-.5,.35-1.41,.48-1.4,.71,.06,1.59,.15,2.06,.6,.54,.51,.72,1.41,1.06,2.14-.23,1.38-.63,1.85-1.79,1.95Zm90.46,13.46c-.59,1.08-1.2,2.15-2.74,2.2-.5-.2-1.03-.35-1.49-.62-.63-.38-.8-.97-.36-1.6,.77-1.11,1.56-2.2,2.38-3.27,.41-.53,1.34-.41,1.81,.2,.73,.94,1,1.98,.4,3.09Z"/>
      <path d="M136.82,109.74c1.04,2.89,1.99,5.81,3.15,8.65,1.05,2.58,.7,4.84-.93,7.03-.7,.94-1.31,1.98-1.76,3.06-.34,.8-.6,1.77-.47,2.59,.36,2.34-.34,4.39-1.36,6.39-.42,.83-1.01,1.58-1.58,2.32-.71,.93-1.72,1.56-2.86,1.47-2.34-.18-4.33,.82-6.37,1.64-3.52,1.42-7.1,2.56-10.93,2.76-1.62,.09-3.09-.28-4.42-1.23-1.01-.72-1.24-1.6-.66-2.7,.1-.18,.2-.37,.34-.52,3.13-3.24,3.34-7.33,3.23-11.46-.05-2.17-.43-4.34-.63-6.51-.19-2-1.42-3.52-2.4-5.13-2.6-4.25-6.12-7.7-9.94-10.84-4.45-3.65-8.99-7.18-13.45-10.82-3.39-2.78-6.21-6.05-7.87-10.18-1.5-3.73-1.52-7.57-.69-11.45,1.4-6.52,3.93-12.64,6.76-18.63,1.51-3.19,3.37-6.21,5.15-9.26,3.38-5.78,6.79-11.53,10.22-17.27,3.08-5.16,7.64-8.52,13.49-9.55,5.35-.95,10.62,.05,15.33,2.91,8.07,4.9,15.87,10.2,23.03,16.39,4.57,3.95,9.06,7.98,12.96,12.62,2.14,2.55,4.18,5.18,6.19,7.82,5.75,7.55,12.05,14.55,19.09,20.95,5.7,5.18,10.86,10.92,14.12,18.08,1.18,2.58,2.45,5.12,3.68,7.68,2.23,4.66,3.21,9.66,3.71,14.75,.46,4.67-.21,9.21-2.02,13.54-.63,1.5-1.37,2.95-2.17,4.37-7.22,12.96-13.73,26.3-20.36,39.57-1.67,3.35-2.84,6.9-3.91,10.5-2.73,9.16-8.36,15.87-17.14,19.93-4.07,1.89-8.22,3.51-12.49,4.84-4.5,1.4-8.92,3.06-13.45,4.35-2.68,.76-5.49,1.17-8.27,1.44-2.15,.21-4.22-.37-6.13-1.55-2-1.23-4.04-2.45-6.2-3.36-1.67-.7-3.52-.98-5.32-1.34-1.6-.32-3.07-.87-4.33-1.91-2.83-2.32-6.02-3.74-9.68-4.22-2.69-.35-5.06-1.48-7.2-3.23-1.48-1.21-3.22-2.19-4.98-2.94-4.07-1.73-6.59-4.51-7.18-9.02-.62-4.78,.88-8.84,4.14-12.15,2.34-2.39,3.6-5.19,4.56-8.26,.44-1.42,1.06-2.78,1.63-4.16,1.18-2.88,3.58-4.34,6.34-5.28,3.8-1.3,7.64-2.49,11.47-3.73,.33-.11,.65-.25,.99-.32,2.22-.46,3.85-1.62,5.38-3.38,3.3-3.82,7.72-5.79,12.71-6.37,1.93-.22,3.88-.22,5.81-.4,2.73-.25,4.85-1.74,6.73-3.58,.45-.44,.61-1.3,.69-1.99,.2-1.58,.17-3.19,.41-4.76,.32-2.12,1.16-4.07,2.5-5.76,1.76-2.21,1.92-4.77,1.61-7.41-.08-.66-.46-1.29-.72-1.92-.51-1.28-1.27-2.51-1.51-3.84-.51-2.89-1.79-5.28-3.93-7.26-.71-.65-1.33-1.4-2-2.1-.05,.05-.11,.09-.16,.14Zm.62,106.94c.23-.04,.36-.04,.48-.08,6.09-2,12.22-3.86,18.24-6.05,4.09-1.49,8.11-3.25,11.99-5.22,4.62-2.34,8.08-5.95,10.15-10.76,1.63-3.79,3.19-7.6,4.79-11.4,1.78-4.21,3.44-8.48,5.41-12.6,2.83-5.91,5.83-11.74,8.9-17.52,2.57-4.83,5.33-9.56,8.04-14.31,1.61-2.82,2.77-5.82,3.45-8.99,1.02-4.76,.34-9.46-.7-14.12-1.79-8.08-5.9-15.15-9.95-22.2-2.61-4.54-6.49-8.14-10.26-11.7-5.73-5.42-11.17-11.09-16.21-17.15-1.92-2.32-3.52-4.92-5.53-7.15-3.57-3.96-7.27-7.82-11.07-11.56-2.77-2.72-5.63-5.38-8.74-7.69-5.26-3.9-10.74-7.51-16.13-11.22-4.55-3.13-9.48-5.18-15.1-5.21-1.81-.01-3.64,.06-5.25,.99-3.85,2.24-6.88,5.34-9.22,9.12-2.77,4.48-5.52,8.98-8.29,13.46-3.4,5.5-6.3,11.25-8.74,17.23-1.94,4.76-3.78,9.55-4.57,14.66-.46,2.94-.41,5.84,.93,8.64,1.67,3.5,4.19,6.29,7.1,8.72,3.26,2.74,6.74,5.22,9.97,8.01,4.78,4.13,9.46,8.38,13.01,13.67,1.43,2.14,3.09,4.22,3.57,6.85,.36,2.01,.72,4.04,.81,6.07,.16,3.79-.31,7.5-2.53,10.73-.54,.78-1.35,1.37-2.01,2.07-.62,.66-.53,1.1,.32,1.35,.86,.25,1.75,.46,2.64,.51,3.5,.21,6.63-1.23,9.88-2.2,2.19-.66,3.92-1.97,5.34-3.63,1.53-1.78,2.84-3.76,4.24-5.65,1.52-2.05,2.41-4.38,2.89-6.84,.5-2.54,.75-5.13,1.24-7.67,.3-1.54,.17-2.96-.49-4.35-1.64-3.47-3.1-7.05-4.99-10.38-3.58-6.31-6.9-12.67-7.81-20-.27-2.2-.85-4.38-.85-6.57,0-2.51,.35-5.05,.84-7.53,1.08-5.48,3.37-10.47,6.72-14.95,1.98-2.65,4.66-4.53,7.39-6.31,.89-.58,1.92-.95,2.89-1.42,.05,.09,.11,.18,.16,.26-2.93,2.03-5.6,4.31-7.54,7.54,.51,.52,1.02,1.06,1.56,1.57,1.76,1.66,3.7,3.17,5.27,5,2.59,3.02,4.87,6.3,7.4,9.38,3.17,3.87,6.75,7.33,10.53,10.62,3.83,3.33,7.66,6.67,10.7,10.86,3.81,5.24,7.98,10.22,11.92,15.36,2.59,3.37,4.79,6.97,5.72,11.2,.57,2.6,.94,5.25,1.61,7.83,.84,3.27,1.12,6.59,.88,9.9-.48,6.71-2.73,12.98-6.09,18.72-2.78,4.74-6.15,9.13-10.47,12.69-5.97,4.92-11.72,10.08-16.73,16.01-5,5.91-9.11,12.34-11.43,19.74-1.51,4.81-3.05,9.54-6.28,13.66Zm23.4-76.56c-.02,.2,0,.41-.06,.6-1.68,5.55-7.24,9.14-13.38,8.22-.79-.12-1.62-.65-2.21-1.21-.97-.92-1.76-2.04-2.62-3.05-1.3,2.94-4.38,3.76-6.99,5.5,.35,.48,.65,1.02,1.06,1.43,1.54,1.53,2.18,3.47,2.31,5.53,.22,3.44-1.61,5.93-4.16,7.94-3.76,2.96-8.12,4.44-12.87,4.71-3.75,.21-6.44-1.53-7.88-4.93-.77-1.81-.83-3.68-.29-5.57-.16-.02-.23-.05-.29-.03-4.47,1.5-8.93,3.01-13.4,4.5-.95,.32-1.93,.55-2.88,.87-2.1,.71-3.71,2.05-4.58,4.1-.92,2.16-1.69,4.39-2.53,6.58,.09,.05,.19,.09,.28,.14,.74-.51,1.47-1.02,2.21-1.53,3.58-2.48,7.39-4.4,11.82-4.72,3.63-.26,6.69,1.18,8.7,4.09,1.16,1.67,1.77,3.85,2.15,5.89,1.09,5.86-.55,11.41-2.94,16.63-1.84,4.02-4.28,7.79-8.12,9.97,2.18,1.38,4.38,2.8,6.6,4.19,.41,.26,.89,.42,1.25,.59,0-1.57-.09-3.06,.02-4.52,.23-2.99,1.36-5.74,2.66-8.38,2.25-4.57,5.22-8.52,9.76-11.18,3.71-2.17,7.42-2.43,11.33-.82,4.75,1.96,7.59,5.35,7.86,10.61,.07,1.35,.01,2.71,.01,4.07,2.3-6.72,6.32-12.42,10.71-17.91-.49,.1-.91,.28-1.32,.44-4.79,1.93-10.33-.88-11.5-5.85-1.12-4.77,.21-8.84,3.66-12.22,3.75-3.68,8.21-5.45,13.52-4.72,3.33,.46,5.61,2.35,6.32,5.31,.18,.76,.07,1.59,.18,2.37,.14,1.02,.37,2.03,.59,3.23,2.28-1.88,4.27-3.6,6.34-5.23,4.42-3.47,7.68-7.89,10.19-12.83,1.4-2.76,2.56-5.69,3.46-8.66,.89-2.93,1.56-5.97,1.87-9.01,.55-5.46-1-10.73-2.27-15.96-1.25-5.15-3.85-9.69-7.16-13.83-3.72-4.66-7.44-9.31-11.1-14.01-2.74-3.53-5.96-6.55-9.39-9.38-1.52-1.26-3.07-2.51-4.42-3.94-4.14-4.39-8.18-8.86-12.27-13.29-1.74-1.88-3.48-3.75-5.27-5.58-.87-.89-1.83-1.69-2.79-2.5-.34-.28-.78-.44-1.44-.81-.12,1.1-.3,1.9-.29,2.7,.06,4.11-.38,8.05-3.53,11.14-.81,.8-1.72,1.52-2.43,2.4-1.31,1.61-1.05,3.47-.74,5.36,.12,.74,.35,1.2,1.01,1.53,1.5,.73,2.76,1.78,3.48,3.3,.71,1.49,1.51,3.01,1.85,4.61,.62,2.95,.55,5.88-1.61,8.36-.18,.2-.2,.71-.08,.98,.37,.86,.84,1.67,1.28,2.49,1.79,3.31,3.7,6.5,7.06,8.55,1.1,.67,1.96,1.74,2.89,2.68,.84,.85,1.63,1.75,2.46,2.66,.29-1.14,.54-2.23,.86-3.31,.3-1.02,1-1.74,2.09-1.73,1.34,0,2.7,.08,4.01,.34,4.42,.89,6.25,4.23,6.2,8.37-.02,1.92-.8,3.83-2.54,4.89-1.97,1.19-4.08,2.28-6.39,1.36,.15,1.89,.29,3.73,.43,5.59,2.52-2.25,5.29-3.67,8.71-1.91,2.01,1.03,3.3,2.65,3.76,4.99-.86-1.09-1.66-2.11-2.46-3.12-.01,1.35,.23,2.49,.34,3.65,.35,3.76-.91,7.17-2.41,10.51-1.2,2.66-3.07,4.59-6,5.32-.15,.04-.28,.14-.41,.21,5.7,.13,9.61-2.42,11.72-7.72Zm-68.21,40.46c-.89,1.41-1.99,2.75-2.66,4.28-1.69,3.87-1.92,7.9-.75,11.99,.44,1.52,1.07,2.94,2.34,3.96,.97,.78,1.98,1.51,2.99,2.24,1.87,1.35,3.83,2.24,6.28,1.86,2.87-.44,5.02-2.03,6.82-4.06,2.96-3.36,4.66-7.41,5.7-11.74,1.22-5.09,.82-9.95-2-14.5-2.62-4.22-6.64-5.54-11.19-3.6-5.68,2.42-10.53,5.85-14.21,10.93-2.86,3.94-3.7,8.04-1.95,12.62,.79,2.06,2.44,3.22,4.35,4.36-2.39-6.38-.58-15.04,4.28-18.32Zm28.81,15.61c-.03,.09-.03,.18-.08,.25-3.23,4.47-3.12,9.44-2.12,14.52,.07,.38,.44,.77,.77,1.01,1.46,1.05,3,1.99,4.44,3.06,1.57,1.16,3.16,2.26,5.14,2.61,2.82,.49,5.5,.44,7.44-2.12,.58-.77,1.12-1.59,1.54-2.46,.93-1.93,2.17-3.82,2.57-5.86,.62-3.17,.81-6.46,.9-9.7,.14-4.86-2.13-8.35-6.63-10.29-3.67-1.58-7.26-1.68-10.65,.76-1.91,1.38-3.7,2.83-5.2,4.72-3.42,4.31-5.4,9.17-6.09,14.56-.13,.99,.23,2.05,.4,3.06,.03,.2,.24,.51,.4,.53,1.01,.11,2.02,.16,3.05,.23-.61-5.62,.34-10.65,4.13-14.89Zm27.5-16.75c4.49-.06,7.62-1.83,10.45-4.3,2-1.74,3.67-3.69,4.07-6.44,.27-1.85,.12-3.7-1.21-5.08-2.06-2.12-4.63-3.03-7.64-2.62-2.49,.34-4.51,1.6-6.57,2.91-3.65,2.33-6.28,6.95-5.32,11.65,.34,1.65,1.19,2.75,2.73,3.2,1.31,.39,2.7,.53,3.49,.68Zm-26.44-13.14c2.82,.15,5.47-1.14,8.13-2.43,3.03-1.47,5.12-3.85,6.61-6.8,.62-1.23,.56-2.39-.36-3.57-1.75-2.26-4.16-2.94-6.79-2.95-4.06-.03-7.72,1.13-10.97,3.74-1.92,1.54-3.36,3.21-4.05,5.59-.54,1.88,.15,3.37,1.4,4.6,1.58,1.57,3.66,1.83,6.04,1.82Zm34.73-33.95c-.14-.77-.27-2.19-.67-3.54-.49-1.64-2.39-2.46-4.09-2.12-2.15,.44-3.38,1.98-4.72,3.5-2.64,3.01-3.94,6.56-4.29,10.47-.09,1.04,.08,2.16,.35,3.18,.34,1.28,1.1,2.32,2.5,2.67,2.65,.67,6.29-.77,7.74-3.1,1.99-3.19,2.9-6.7,3.17-11.08Zm-9.19-23.19c1.18,.12,1.89,.87,2.44,1.76,1.95,3.08,2.75,6.35,1.51,9.95,2.43-.58,3.16-3.19,3.11-4.99-.06-2.06-1-3.75-2.38-5.16-1.08-1.1-2.23-2.21-3.99-2.12-.83,.04-1.66,.09-2.48,.05-1.07-.05-1.72,.41-1.98,1.42-.13,.5-.29,1.02-.28,1.52,.08,3.01,.83,5.88,2.02,8.62,.64,1.48,3.15,2.21,4.53,.95,1.41-1.29,1.59-2.86,1.47-4.53-.23-3.04-1.17-5.75-3.97-7.46Zm-32.79,55.34c1.08,2.82,3.48,4.53,6.58,4.47,5.32-.1,10.14-1.64,14.06-5.45,1.55-1.51,2.4-3.35,2.76-5.45,.04-.22-.04-.46-.08-.86-.65,.92-1.12,1.68-1.69,2.38-2.89,3.57-6.64,5.85-11.06,6.95-3.71,.92-7.36,.96-10.59-2.05Zm9.69-84.46c-.25,2.93,1.46,10.47,2.96,13.1,2.9-3.17,.94-11.86-2.96-13.1Zm20.16,99.91c.95,1.16,2.59,2.36,3.79,2.58,3.09,.55,5.65-.69,7.83-2.68,2.53-2.31,4.88-4.82,7.33-7.21,1.31-1.27,1.34-1.24,.71-2.95-.01-.03-.08-.05-.12-.07-3.33,7.34-10.96,12.77-19.55,10.33Zm-15.13-41.11c.38,.63,.96,.47,1.52,.09,1.56-1.06,2.73-2.5,3.43-4.21,.36-.89,.28-1.96,.33-2.96,.01-.2-.27-.42-.41-.63-.18,.14-.41,.25-.52,.43-1.44,2.4-2.87,4.8-4.34,7.28Zm-.63-80.47c-.28,.13-.47,.16-.51,.25-1.09,2.57-2.16,5.15-3.21,7.73-.06,.14,.12,.51,.25,.54,.17,.05,.49-.07,.59-.23,.87-1.25,1.83-2.45,2.52-3.8,.69-1.35,.6-2.86,.35-4.5Zm8.3,59.41c-.36,2.69-.71,5.29-1.06,7.98,2.74-2.26,3.1-5.07,1.06-7.98Z"/>
      <path class="cls-3" d="M160.84,140.11c-2.11,5.3-6.02,7.85-11.72,7.72,.14-.07,.27-.18,.41-.21,2.93-.73,4.8-2.66,6-5.32,1.5-3.34,2.76-6.75,2.41-10.51-.11-1.16-.35-2.31-.34-3.65,.8,1.02,1.6,2.03,2.46,3.12-.46-2.34-1.75-3.96-3.76-4.99-3.42-1.76-6.19-.34-8.71,1.91-.14-1.86-.29-3.7-.43-5.59,2.31,.93,4.42-.16,6.39-1.36,1.74-1.06,2.52-2.97,2.54-4.89,.05-4.13-1.79-7.47-6.2-8.37-1.31-.26-2.67-.33-4.01-.34-1.09,0-1.79,.71-2.09,1.73-.32,1.08-.57,2.18-.86,3.31-.83-.9-1.62-1.81-2.46-2.66-.93-.93-1.79-2-2.89-2.68-3.36-2.05-5.26-5.24-7.06-8.55-.45-.82-.91-1.64-1.28-2.49-.12-.27-.1-.78,.08-.98,2.16-2.48,2.23-5.41,1.61-8.36-.33-1.6-1.13-3.11-1.85-4.61-.72-1.52-1.98-2.57-3.48-3.3-.66-.32-.89-.79-1.01-1.53-.31-1.89-.57-3.75,.74-5.36,.72-.88,1.62-1.6,2.43-2.4,3.15-3.09,3.58-7.03,3.53-11.14-.01-.8,.17-1.61,.29-2.7,.66,.36,1.11,.52,1.44,.81,.96,.8,1.92,1.61,2.79,2.5,1.79,1.83,3.53,3.7,5.27,5.58,4.09,4.43,8.13,8.91,12.27,13.29,1.35,1.43,2.9,2.69,4.42,3.94,3.43,2.83,6.65,5.86,9.39,9.38,3.66,4.7,7.38,9.36,11.1,14.01,3.3,4.14,5.91,8.68,7.16,13.83,1.27,5.23,2.82,10.5,2.27,15.96-.31,3.04-.99,6.08-1.87,9.01-.9,2.97-2.05,5.9-3.46,8.66-2.51,4.94-5.77,9.36-10.19,12.83-2.07,1.63-4.06,3.35-6.34,5.23-.22-1.2-.45-2.21-.59-3.23-.11-.78,0-1.61-.18-2.37-.72-2.96-2.99-4.85-6.32-5.31-5.31-.73-9.76,1.04-13.52,4.72-3.45,3.38-4.78,7.45-3.66,12.22,1.17,4.97,6.71,7.77,11.5,5.85,.41-.17,.83-.34,1.32-.44-4.39,5.49-8.41,11.19-10.71,17.91,0-1.36,.06-2.72-.01-4.07-.27-5.26-3.11-8.65-7.86-10.61-3.91-1.61-7.62-1.35-11.33,.82-4.54,2.66-7.51,6.61-9.76,11.18-1.3,2.64-2.43,5.39-2.66,8.38-.11,1.47-.02,2.95-.02,4.52-.36-.17-.84-.33-1.25-.59-2.22-1.39-4.43-2.8-6.6-4.19,3.83-2.18,6.27-5.95,8.12-9.97,2.39-5.22,4.03-10.76,2.94-16.63-.38-2.04-.99-4.23-2.15-5.89-2.01-2.91-5.07-4.35-8.7-4.09-4.42,.32-8.24,2.24-11.82,4.72-.74,.51-1.47,1.02-2.21,1.53-.09-.05-.19-.09-.28-.14,.84-2.2,1.61-4.42,2.53-6.58,.87-2.05,2.48-3.39,4.58-4.1,.95-.32,1.93-.55,2.88-.87,4.47-1.49,8.93-3,13.4-4.5,.06-.02,.13,.01,.29,.03-.54,1.89-.48,3.76,.29,5.57,1.44,3.4,4.13,5.14,7.88,4.93,4.75-.27,9.1-1.75,12.87-4.71,2.55-2.01,4.38-4.5,4.16-7.94-.13-2.06-.77-4-2.31-5.53-.42-.41-.71-.95-1.06-1.43,2.61-1.74,5.68-2.56,6.99-5.5,.85,1.02,1.65,2.13,2.62,3.05,.59,.57,1.42,1.09,2.21,1.21,6.14,.92,11.71-2.67,13.38-8.22,.06-.19,.04-.4,.06-.6Zm-17.77-58.78h-.01c1.47-.59,2.2-2.04,1.85-3.72-.53-2.51-1.75-4.64-3.49-6.51-1.75-1.88-3.52-3.29-6.46-2.89-2.34,.32-3.95,3.08-3.33,4.86,1.32,3.78,3.61,6.77,7.12,8.74,1.81,1.02,2.61,.87,4.12-.48,.04-.03,.13,0,.2,0Zm31.61,71.98c4.31-2.67,7.15-6.27,7.31-11.56,.06-2.05-.48-3.9-1.99-5.39-2.02-1.99-5.41-2.12-7.32-.06-1.38,1.49-2.58,3.17-3.71,4.86-1.14,1.7-1.64,3.67-1.65,5.71-.03,3.38,1.76,5.53,4.76,6.88,1.47,.66,2.92,.82,4.28,.01,3.63-2.16,6.3-5.09,6.9-9.46,.14-1.02,.3-2.12-.48-3.17,.26,5.66-3.17,10.75-8.11,12.18Zm-12.6-43.75c-.1,2.67,.57,5.82,1.95,8.23,.67,1.18,1.54,2.31,2.51,3.26,.99,.97,2.31,1.37,3.75,1.05,.94-.21,1.89-.42,2.83-.63,1.6-.35,2.21-.98,2.31-2.59,.35-5.42-1.51-10.09-5.15-14.01-.96-1.04-2.42-1.71-3.76-2.29-1.5-.65-2.14-.31-3.02,1.08-1.18,1.86-1.49,3.92-1.44,5.91Zm-.89-16.94c-.18-.73-.29-1.49-.56-2.18-1.53-3.99-3.65-7.5-7.64-9.57-1.55-.8-3.84-.54-4.47,1.42-.12,.36-.27,.72-.48,1.03-1.49,2.18-1.22,4.42,.19,6.4,1.31,1.84,2.91,3.5,4.55,5.07,.82,.78,1.96,1.3,3.04,1.73,2.94,1.17,5.15-1.22,5.38-3.89Zm-15.13,8.25c.07-.35,.19-.7,.21-1.06,.17-4.95-4.54-8.89-9.42-7.88-1.8,.37-2.51,1.26-2.64,3.1-.3,4.36,3.88,8.6,6.82,9.59,2.23,.75,4-.69,3.78-3.05-.17-1.89-.76-3.66-1.98-5.16-.96-1.19-1.98-2.33-2.97-3.5,3.7,1.35,6.22,3.61,6.21,7.96Z"/>
      <path class="cls-5" d="M92.63,180.58c-4.86,3.28-6.67,11.94-4.28,18.32-1.91-1.15-3.56-2.3-4.35-4.36-1.75-4.58-.91-8.68,1.95-12.62,3.68-5.08,8.53-8.51,14.21-10.93,4.55-1.94,8.58-.62,11.19,3.6,2.82,4.55,3.22,9.42,2,14.5-1.04,4.33-2.74,8.38-5.7,11.74-1.79,2.03-3.95,3.62-6.82,4.06-2.45,.38-4.41-.51-6.28-1.86-1.01-.73-2.02-1.46-2.99-2.24-1.27-1.02-1.91-2.44-2.34-3.96-1.17-4.08-.95-8.11,.75-11.99,.67-1.53,1.76-2.87,2.66-4.28Zm8.15,13.25c-.43,.34-.85,.71-1.3,1.01-2.53,1.64-5.56,.35-6.04-2.58-.11-.68-.15-1.39-.06-2.07,.51-3.56,2.37-6.46,4.68-9.1,.93-1.06,2.1-1.77,3.58-1.9,1.42-.13,2.68,.08,3.74,1.16-.29-.48-.62-.89-1.05-1.17-1.14-.73-2.48-.93-3.69-.46-1.49,.58-3.11,1.22-4.22,2.31-2.74,2.71-4.64,5.96-4.63,10,0,2.6,1.55,4.7,3.83,5.33,1.86,.52,4.02-.49,5.16-2.54Z"/>
      <path class="cls-5" d="M121.44,196.19c-3.79,4.24-4.74,9.27-4.13,14.89-1.03-.07-2.04-.11-3.05-.23-.16-.02-.37-.33-.4-.53-.17-1.02-.53-2.07-.4-3.06,.7-5.4,2.67-10.26,6.09-14.56,1.5-1.89,3.29-3.34,5.2-4.72,3.39-2.44,6.98-2.34,10.65-.76,4.5,1.94,6.77,5.42,6.63,10.29-.09,3.24-.28,6.53-.9,9.7-.4,2.04-1.63,3.94-2.57,5.86-.42,.87-.96,1.69-1.54,2.46-1.93,2.56-4.62,2.61-7.44,2.12-1.98-.34-3.56-1.44-5.14-2.61-1.45-1.07-2.98-2.02-4.44-3.06-.33-.24-.7-.63-.77-1.01-1.01-5.08-1.11-10.05,2.12-14.52,.05-.07,.06-.17,.08-.25Zm14.97,7.44c-.01-3.14,.07-6.03-1.75-8.62-2.04-2.9-5.89-3.44-8.57-1.08-2.03,1.79-3.38,4.05-4.23,6.57-.92,2.75-.96,5.58-.1,8.37,.13,.42,.41,.79,.62,1.19,.11-.03,.22-.06,.34-.09-.96-2.54-.36-4.99,.24-7.44,.71-2.89,2.01-5.46,4.25-7.47,1.78-1.6,4.38-1.81,5.71-.38,.78,.84,1.51,1.86,1.9,2.93,.67,1.87,1.04,3.85,1.6,6.01Zm-1.19,4.42c-.65,1.21-1.22,2.25-1.85,3.41,1.7-.95,2.41-2.13,1.85-3.41Z"/>
      <path class="cls-5" d="M148.94,179.44c-.79-.15-2.18-.29-3.49-.68-1.53-.46-2.39-1.55-2.73-3.2-.97-4.7,1.67-9.32,5.32-11.65,2.05-1.31,4.07-2.58,6.57-2.91,3.02-.41,5.58,.5,7.64,2.62,1.33,1.37,1.48,3.22,1.21,5.08-.4,2.75-2.07,4.7-4.07,6.44-2.83,2.47-5.97,4.24-10.45,4.3Zm1.49-6.67c.63-2.66,2.78-3.46,4.68-4.55-2.62,.54-4.81,1.64-5.62,4.51-.4-.12-.76-.23-1.12-.33-1.12-.32-1.39-.8-1.03-1.9,.14-.42,.32-.85,.57-1.21,1.23-1.77,2.81-3.15,4.78-4.05,2.25-1.02,4.42-1.39,6.3,.85-.14-.45-.31-.85-.61-1.12-1.04-.94-2.25-1.45-3.69-1.38-3.37,.16-7.22,3.32-8.02,6.59-.39,1.6,.19,2.62,1.7,3.3,2.13,.96,6.59-.59,7.68-2.29-1.76,.97-3.42,1.95-5.63,1.59Z"/>
      <path class="cls-5" d="M122.49,166.3c-2.38,.01-4.46-.25-6.04-1.82-1.24-1.24-1.94-2.72-1.4-4.6,.69-2.37,2.13-4.04,4.05-5.59,3.25-2.62,6.91-3.77,10.97-3.74,2.63,.02,5.04,.69,6.79,2.95,.92,1.19,.98,2.35,.36,3.57-1.49,2.95-3.57,5.33-6.61,6.8-2.66,1.29-5.31,2.58-8.13,2.43Zm-.78-4.45c.61,.11,1.15,.31,1.67,.28,3.81-.23,7.04-1.68,9.35-4.8,1.34-1.81,.78-3.23-1.43-3.73-5.13-1.17-8.84,.85-11.93,4.46-.49,.57-.69,1.5-.77,2.29-.08,.75,.44,1.25,1.27,1.29-.85-.67-.82-1.43-.27-2.22,.37-.54,.75-1.09,1.22-1.54,2.66-2.51,5.98-3.37,9.48-3.68,.59-.05,1.25,.12,1.79,.37,.62,.28,.9,.83,.52,1.55-.35,.67-.77,.95-1.59,.71-.7-.21-1.53-.37-2.22-.21-2.99,.71-5.61,2.01-7.08,5.23Z"/>
      <path class="cls-5" d="M157.22,132.35c-.27,4.37-1.18,7.89-3.17,11.08-1.46,2.33-5.09,3.76-7.74,3.1-1.4-.35-2.16-1.4-2.5-2.67-.27-1.02-.45-2.13-.35-3.18,.35-3.91,1.64-7.46,4.29-10.47,1.33-1.52,2.57-3.06,4.72-3.5,1.7-.35,3.6,.48,4.09,2.12,.4,1.34,.53,2.76,.67,3.54Zm-4.3,2.66c-2.83,.83-3.73,3.1-2.25,5.46-1.34,.99-2.54,.54-2.75-1.08-.23-1.76,.38-3.37,1.24-4.84,.62-1.06,1.17-2.3,2.95-2.24-.86-.66-1.49-.49-2.1-.13-2.73,1.6-3.43,5.45-2.69,7.91,.27,.87,.92,1.45,1.84,1.41,1.24-.05,2.43-.36,2.99-1.67,.41-.94,.86-1.88,1.12-2.87,.38-1.48,.04-2.94-.7-3.74,.11,.58,.22,1.15,.34,1.79Z"/>
      <path class="cls-5" d="M148.03,109.16c2.8,1.71,3.74,4.42,3.97,7.46,.13,1.67-.06,3.24-1.47,4.53-1.38,1.27-3.89,.53-4.53-.95-1.19-2.74-1.95-5.61-2.02-8.62-.01-.5,.15-1.02,.28-1.52,.26-1.01,.91-1.47,1.98-1.42,.83,.04,1.66,0,2.48-.05,1.76-.09,2.92,1.01,3.99,2.12,1.38,1.42,2.32,3.11,2.38,5.16,.05,1.8-.68,4.41-3.11,4.99,1.24-3.6,.44-6.87-1.51-9.95-.56-.88-1.26-1.63-2.44-1.76Zm1.53,7.92c-.48-1.4-.91-2.66-1.34-3.91-.24-.71-.71-1.39-1.46-1.16-.54,.17-1.15,.82-1.3,1.37-.48,1.71,.01,3.31,1.16,4.63,.38,.43,1.25,.89,1.65,.73,.54-.21,.84-1.02,1.3-1.66Z"/>
      <path class="cls-5" d="M115.25,164.5c3.22,3,6.88,2.97,10.59,2.05,4.41-1.1,8.16-3.38,11.06-6.95,.56-.69,1.04-1.46,1.69-2.38,.04,.4,.11,.64,.08,.86-.36,2.09-1.21,3.94-2.76,5.45-3.92,3.81-8.74,5.35-14.06,5.45-3.1,.06-5.5-1.65-6.58-4.47Z"/>
      <path class="cls-5" d="M124.94,80.04c3.9,1.25,5.87,9.93,2.96,13.1-1.51-2.63-3.21-10.18-2.96-13.1Z"/>
      <path class="cls-5" d="M145.09,179.95c8.58,2.44,16.22-3,19.55-10.33,.04,.02,.11,.04,.12,.07,.63,1.71,.6,1.68-.71,2.95-2.46,2.39-4.8,4.9-7.33,7.21-2.18,1.98-4.75,3.22-7.83,2.68-1.21-.21-2.85-1.41-3.79-2.58Z"/>
      <path class="cls-5" d="M129.96,138.85c1.47-2.48,2.9-4.88,4.34-7.28,.11-.18,.35-.29,.52-.43,.15,.21,.43,.43,.41,.63-.05,1,.03,2.07-.33,2.96-.7,1.71-1.87,3.15-3.43,4.21-.56,.38-1.14,.53-1.52-.09Z"/>
      <path class="cls-5" d="M129.33,58.37c.25,1.64,.34,3.16-.35,4.5-.69,1.34-1.65,2.55-2.52,3.8-.11,.15-.42,.27-.59,.23-.13-.04-.31-.41-.25-.54,1.05-2.59,2.13-5.16,3.21-7.73,.04-.09,.23-.12,.51-.25Z"/>
      <path class="cls-5" d="M137.63,117.78c2.04,2.91,1.67,5.72-1.06,7.98,.36-2.69,.7-5.29,1.06-7.98Z"/>
      <path d="M95.85,45.06c-1.16-.14-1.62-.77-1.15-1.77,1.17-2.48,2.96-4.48,5.04-6.24,.14-.12,.65-.02,.83,.15,.77,.72,.91,2.12,.26,3.04-.94,1.32-1.91,2.63-3.01,3.81-.47,.51-1.3,.68-1.96,1Zm4.17-7.82c-1.91,2.1-4.06,3.92-4.8,6.79,1.32,.34,2.14-.19,2.79-1.1,.72-1.01,1.42-2.04,2.16-3.04,.66-.9,.44-1.72-.15-2.64Z"/>
      <path d="M97.96,63.21c-.17,1.24-.67,2.52-1.79,3.45-1.26,1.04-3.39,.63-4.19-.78-.13-.23-.18-.63-.08-.86,.66-1.51,1.34-3.02,2.12-4.47,.15-.27,.82-.46,1.18-.39,1.83,.38,2.76,1.41,2.76,3.05Zm-.66-.39c-.19-.97-1.02-1.79-2.29-2.02-.33-.06-.92,.16-1.06,.42-.52,.96-.96,1.97-1.32,3.01-.14,.4-.14,1.01,.07,1.35,.69,1.09,2.47,1.21,3.2,.16,.61-.88,.95-1.94,1.41-2.93Z"/>
      <path d="M124.64,34.86c-.3-1.15,.41-1.61,1.28-1.95,1-.4,1.91-1.12,3.13-.67,.94,.35,1.74,1.37,1.81,2.54,.07,1.12-.4,2.01-1.5,2.32-1.05,.3-2.16,.45-3.25,.49-.36,.01-.9-.46-1.07-.84-.26-.57-.27-1.26-.39-1.89Zm2.03,2.08c.91-.17,1.86-.26,2.73-.57,.38-.13,.77-.66,.86-1.08,.26-1.13-.38-1.96-1.29-2.49-1.31-.78-2.28,.32-3.31,.81-.85,.4-.42,1.31-.33,1.96,.09,.66,.08,1.7,1.34,1.38Z"/>
      <path d="M201.21,125.94c-.5-.2-1.03-.35-1.49-.62-.63-.38-.8-.97-.36-1.6,.77-1.11,1.56-2.2,2.38-3.27,.41-.53,1.34-.41,1.81,.2,.73,.94,1,1.98,.4,3.09-.59,1.08-1.2,2.15-2.74,2.2Zm2.41-3.39c-.25-.47-.48-.95-.74-1.41-.34-.6-.67-.58-1.05,0-.51,.78-1.08,1.52-1.64,2.27-.66,.89-.38,1.54,.74,1.71,1.26,.19,2.57-1.08,2.7-2.57Z"/>
      <path d="M115.27,108.32c-.23,1.38-.63,1.85-1.79,1.95-.89,.07-1.71-.69-1.82-1.74-.05-.51-.08-1.05,0-1.55,.08-.5,.35-1.41,.48-1.4,.71,.06,1.59,.15,2.06,.6,.54,.51,.72,1.41,1.06,2.14Zm-3.19-2.36c.09,.94,.02,1.84,.3,2.61,.15,.41,.89,.77,1.4,.81,.25,.02,.77-.7,.82-1.12,.13-1.22-.7-1.97-2.52-2.3Z"/>
      <path d="M107.41,52.09c.49,.27,1.34,.48,1.4,.82,.11,.63-.11,1.43-.47,1.98-.19,.3-.94,.29-1.45,.31-.33,.01-.68-.13-.98-.28-.19-.09-.4-.31-.45-.51-.16-.63,1.19-2.16,1.95-2.32Zm-1.44,2.14c1.64,.7,2.05,.69,2.37-.15,.17-.43,.57-.95-.24-1.28-1.01-.4-1.39-.18-2.13,1.43Z"/>
      <path d="M109.97,62.63c-.4-.5-.81-.88-.75-.98,.18-.33,.52-.63,.86-.77,.14-.05,.68,.41,.65,.54-.08,.35-.38,.65-.76,1.21Z"/>
      <path d="M174.68,153.31c4.94-1.43,8.37-6.52,8.11-12.18,.78,1.05,.62,2.15,.48,3.17-.6,4.37-3.27,7.31-6.9,9.46-1.36,.81-2.81,.65-4.28-.01-3-1.35-4.78-3.5-4.76-6.88,.02-2.04,.51-4.01,1.65-5.71,1.13-1.69,2.33-3.37,3.71-4.86,1.92-2.06,5.3-1.93,7.32,.06,1.51,1.49,2.06,3.34,1.99,5.39-.16,5.29-3,8.89-7.31,11.56Zm-6.1-7.26c.2,1.12,.25,2.28,.61,3.34,.98,2.91,3.8,3.81,6.34,2.07,2.91-1.99,4.65-4.8,5.44-8.2,.42-1.8,.28-3.58-.61-5.25-1.48-2.78-5.22-3.44-7.44-1.24-.83,.82-1.41,1.87-2.16,2.78-1.55,1.89-2.23,4.03-2.18,6.49Z"/>
      <path d="M162.09,109.56c-.05-1.99,.26-4.05,1.44-5.91,.88-1.39,1.52-1.73,3.02-1.08,1.34,.58,2.8,1.25,3.76,2.29,3.64,3.92,5.49,8.59,5.15,14.01-.1,1.61-.71,2.24-2.31,2.59-.95,.21-1.89,.42-2.83,.63-1.44,.32-2.76-.08-3.75-1.05-.98-.95-1.84-2.07-2.51-3.26-1.38-2.42-2.05-5.56-1.95-8.23Zm.35,.02c0,4.81,2.38,8.28,5.89,11.11,1.13,.91,2.53,.47,3.23-.84,.85-1.6,1.21-3.32,1.04-5.11-.4-4.26-2.45-7.73-5.42-10.68-1.57-1.56-2.96-1.28-3.71,.81-.54,1.5-.7,3.14-1.03,4.72Zm9.75,11.36c2.23-.15,2.88-1.33,2.8-3.37-.02-.48-.13-.96-.19-1.44-.49-3.8-1.81-7.24-4.4-10.12-.57-.63-1.25-1.18-1.86-1.75,1.18,1.84,2.51,3.55,3.43,5.46,1.75,3.63,2.29,7.38,.22,11.21Z"/>
      <path d="M161.2,92.62c-.23,2.67-2.43,5.06-5.38,3.89-1.08-.43-2.22-.95-3.04-1.73-1.64-1.57-3.24-3.23-4.55-5.07-1.41-1.98-1.68-4.21-.19-6.4,.21-.31,.36-.67,.48-1.03,.63-1.96,2.92-2.22,4.47-1.42,3.99,2.07,6.11,5.57,7.64,9.57,.27,.7,.38,1.45,.56,2.18Zm-6.14-7.97c2.89,2.34,4.28,5.57,5.46,8.98,.02-.91,.05-1.85-.29-2.64-1.73-3.97-4.55-7.07-8.02-9.6-1.11-.81-2.21-.41-2.79,.85-.3,.66-.52,1.37-.86,2-.66,1.19-.64,2.46,.06,3.47,1.51,2.18,3.13,4.31,4.91,6.27,.96,1.05,2.34,1.75,3.89,1.76,1.6,0,2.39-1.06,2-2.59-.8-3.17-2.25-6-4.35-8.5Z"/>
      <path d="M143.07,81.33c-.07,0-.16-.03-.2,0-1.5,1.35-2.31,1.5-4.12,.48-3.51-1.97-5.8-4.96-7.12-8.74-.62-1.78,.99-4.55,3.33-4.86,2.94-.4,4.71,1.01,6.46,2.89,1.74,1.87,2.96,4,3.49,6.51,.35,1.68-.38,3.13-1.86,3.7,1.89-1.71,1.46-3.56,.43-5.52-1.08-2.06-2.49-3.85-4.24-5.33-.84-.71-1.89-1.17-2.84-1.74-.05,.08-.09,.16-.14,.24,3.19,2.49,4.88,4.58,6,7.33,.66,1.62,.95,3.3,.81,5.04Zm-.75-1.85c-.33-3.89-2.39-7-5.6-9.4-.58-.43-1.38-.7-2.11-.78-.49-.06-1.21,.18-1.53,.54-.71,.8-1.06,1.85-.62,2.89,.51,1.19,1.12,2.37,1.84,3.45,1.44,2.16,3.23,3.96,5.68,5,1.37,.58,2.4-.06,2.34-1.71Z"/>
      <path d="M146.07,100.86c.02-4.35-2.51-6.61-6.21-7.96,.99,1.16,2.01,2.31,2.97,3.5,1.22,1.5,1.81,3.27,1.98,5.16,.22,2.36-1.55,3.8-3.78,3.05-2.93-.99-7.12-5.23-6.82-9.59,.13-1.84,.84-2.73,2.64-3.1,4.88-1.01,9.59,2.93,9.42,7.88-.01,.35-.13,.7-.21,1.06Zm-8.97-8.53c-1.18-.07-1.84,.6-2,1.54-.16,.99-.28,2.18,.13,3.01,.78,1.59,1.82,3.09,2.99,4.43,.79,.91,1.91,1.62,3.01,2.15,1.64,.78,3.05-.29,2.88-2.09-.08-.82-.21-1.66-.5-2.43-.95-2.55-2.8-4.41-4.9-6.04-.43-.33-1.07-.39-1.61-.58Z"/>
      <path d="M100.78,193.83c-1.14,2.05-3.3,3.05-5.16,2.54-2.28-.63-3.82-2.73-3.83-5.33,0-4.04,1.88-7.29,4.63-10,1.1-1.09,2.73-1.72,4.22-2.31,1.21-.47,2.55-.28,3.69,.46,.43,.27,.76,.69,1.05,1.17-1.06-1.08-2.33-1.29-3.74-1.16-1.48,.13-2.65,.84-3.58,1.9-2.3,2.64-4.16,5.54-4.68,9.1-.1,.67-.06,1.39,.06,2.07,.48,2.93,3.52,4.22,6.04,2.58,.46-.3,.87-.67,1.3-1.01Z"/>
      <path d="M136.41,203.63c-.56-2.17-.94-4.14-1.6-6.01-.38-1.07-1.11-2.09-1.9-2.93-1.33-1.43-3.93-1.22-5.71,.38-2.24,2.01-3.54,4.58-4.25,7.47-.6,2.45-1.2,4.9-.24,7.44-.11,.03-.22,.06-.34,.09-.21-.4-.49-.77-.62-1.19-.86-2.8-.82-5.62,.1-8.37,.84-2.52,2.2-4.78,4.23-6.57,2.67-2.36,6.52-1.82,8.57,1.08,1.83,2.59,1.74,5.48,1.75,8.62Z"/>
      <path d="M135.21,208.05c.56,1.29-.15,2.46-1.85,3.41,.63-1.16,1.19-2.2,1.85-3.41Z"/>
      <path d="M150.43,172.76c2.2,.36,3.87-.62,5.63-1.59-1.1,1.69-5.55,3.25-7.68,2.29-1.51-.68-2.1-1.7-1.7-3.3,.8-3.27,4.65-6.42,8.02-6.59,1.44-.07,2.65,.44,3.69,1.38,.3,.27,.47,.68,.61,1.12-1.88-2.24-4.06-1.87-6.3-.85-1.97,.9-3.54,2.28-4.78,4.05-.25,.36-.44,.79-.57,1.21-.36,1.11-.08,1.58,1.03,1.9,.36,.1,.72,.21,1.12,.33,.81-2.87,2.99-3.96,5.62-4.51-1.9,1.08-4.05,1.89-4.68,4.55Z"/>
      <path d="M121.71,161.85c1.47-3.22,4.09-4.52,7.08-5.23,.69-.16,1.51,0,2.22,.21,.82,.25,1.24-.04,1.59-.71,.38-.72,.09-1.27-.52-1.55-.54-.25-1.2-.43-1.79-.37-3.51,.31-6.83,1.18-9.48,3.68-.47,.44-.85,1-1.22,1.54-.55,.79-.58,1.55,.27,2.22-.83-.04-1.35-.55-1.27-1.29,.08-.79,.28-1.72,.77-2.29,3.09-3.61,6.8-5.63,11.93-4.46,2.21,.5,2.77,1.92,1.43,3.73-2.31,3.12-5.54,4.57-9.35,4.8-.52,.03-1.05-.17-1.67-.28Zm8.33-3.23c-2.34-1.03-6.41,.62-7.57,2.93,2.91,.11,5.1-1.48,7.57-2.93Z"/>
      <path d="M152.92,135.01c-.12-.64-.23-1.21-.34-1.79,.74,.79,1.08,2.25,.7,3.74-.26,.99-.71,1.93-1.12,2.87-.56,1.31-1.75,1.62-2.99,1.67-.93,.03-1.58-.54-1.84-1.41-.75-2.46-.04-6.31,2.69-7.91,.61-.36,1.24-.53,2.1,.13-1.78-.06-2.33,1.18-2.95,2.24-.86,1.48-1.47,3.08-1.24,4.84,.21,1.62,1.41,2.08,2.75,1.08-1.48-2.37-.58-4.63,2.25-5.46Zm-1.48,4.78c.46-1.25,.92-2.49,1.38-3.74-1.21,.65-1.81,2.32-1.38,3.74Z"/>
      <path d="M149.56,117.07c-.47,.64-.77,1.44-1.3,1.66-.4,.16-1.27-.3-1.65-.73-1.14-1.31-1.63-2.92-1.16-4.63,.15-.55,.77-1.21,1.3-1.37,.75-.23,1.22,.44,1.46,1.16,.43,1.26,.86,2.51,1.34,3.91Zm-1.68-4.36c-.4-.09-.87-.35-1.18-.21-.27,.12-.47,.66-.51,1.03-.14,1.43,.28,2.73,1.19,3.84,.19,.23,.56,.32,.84,.48-1.8-2.36-2-4.2-.34-5.13Zm-.07,.84c-.61,1.23-.06,3.06,.99,3.54,.09-1.27,.03-2.47-.99-3.54Z"/>
      <path class="cls-3" d="M100.01,37.24c.58,.92,.81,1.74,.15,2.64-.74,1-1.43,2.03-2.16,3.04-.65,.91-1.47,1.44-2.79,1.1,.74-2.88,2.89-4.69,4.8-6.79Z"/>
      <path class="cls-3" d="M97.31,62.83c-.46,.98-.8,2.05-1.41,2.93-.73,1.05-2.52,.93-3.2-.16-.21-.34-.21-.95-.07-1.35,.36-1.03,.8-2.05,1.32-3.01,.15-.27,.73-.48,1.06-.42,1.28,.22,2.11,1.04,2.29,2.02Z"/>
      <path class="cls-3" d="M126.67,36.94c-1.25,.32-1.25-.72-1.34-1.38-.09-.64-.52-1.55,.33-1.96,1.03-.49,2-1.58,3.31-.81,.91,.54,1.54,1.37,1.29,2.49-.09,.42-.49,.95-.86,1.08-.87,.3-1.81,.39-2.73,.57Z"/>
      <path class="cls-3" d="M203.62,122.55c-.13,1.49-1.44,2.76-2.7,2.57-1.12-.17-1.39-.82-.74-1.71,.56-.75,1.12-1.49,1.64-2.27,.39-.59,.71-.61,1.05,0,.26,.46,.5,.94,.74,1.41Z"/>
      <path class="cls-3" d="M112.08,105.96c1.82,.33,2.65,1.08,2.52,2.3-.05,.42-.57,1.14-.82,1.12-.5-.04-1.25-.4-1.4-.81-.28-.77-.21-1.67-.3-2.61Z"/>
      <path class="cls-3" d="M105.97,54.23c.75-1.61,1.12-1.83,2.13-1.43,.81,.32,.41,.84,.24,1.28-.33,.85-.73,.86-2.37,.15Z"/>
      <path class="cls-5" d="M168.58,146.05c-.05-2.45,.63-4.6,2.18-6.49,.74-.91,1.33-1.96,2.16-2.78,2.23-2.2,5.96-1.55,7.44,1.24,.89,1.67,1.03,3.45,.61,5.25-.79,3.4-2.53,6.2-5.44,8.2-2.54,1.73-5.35,.83-6.34-2.07-.36-1.06-.42-2.22-.61-3.34Zm3.73,3.12c2.51,.1,4.41-3.15,4.25-7.09-.02-.54-.21-1.06-.32-1.6-.07,.01-.14,.03-.21,.04,.03,.29,.06,.58,.09,.86-2.48,.4-4.12,3.82-3.27,5.79,.3-3.06,1.48-4.85,3.12-4.73,.26,2.45-1.27,5.33-3.66,6.72Z"/>
      <path class="cls-5" d="M162.44,109.58c.33-1.58,.49-3.22,1.03-4.72,.75-2.09,2.14-2.37,3.71-.81,2.97,2.95,5.02,6.42,5.42,10.68,.17,1.79-.19,3.51-1.04,5.11-.7,1.32-2.1,1.75-3.23,.84-3.52-2.83-5.9-6.3-5.89-11.11Zm5.65,7.11c.85-.7,.92-2.53,.19-4.71-.47-1.4-2.25-2.93-3.59-2.97,.24,.18,.39,.3,.54,.42,.52,.44,.89,.77,.65,1.68-.34,1.28,.24,2.44,1.41,3.42q-1.08-2.7-.84-3.47c1.45,1.6,2.01,3.54,1.64,5.64Z"/>
      <path class="cls-5" d="M172.18,120.94c2.07-3.83,1.53-7.59-.22-11.21-.92-1.91-2.26-3.62-3.43-5.46,.62,.58,1.29,1.12,1.86,1.75,2.59,2.88,3.91,6.32,4.4,10.12,.06,.48,.17,.96,.19,1.44,.09,2.04-.57,3.22-2.8,3.37Z"/>
      <path class="cls-5" d="M155.05,84.64c2.11,2.51,3.56,5.33,4.35,8.5,.39,1.53-.4,2.6-2,2.59-1.55,0-2.93-.7-3.89-1.76-1.78-1.96-3.4-4.09-4.91-6.27-.7-1.01-.71-2.28-.06-3.47,.35-.63,.56-1.34,.86-2,.58-1.27,1.67-1.67,2.79-.85,3.46,2.52,6.29,5.62,8.02,9.6,.34,.79,.31,1.73,.29,2.64-1.18-3.41-2.57-6.64-5.46-8.98Zm2.39,8.77c.38-3.64-4.18-8.83-6.72-7.8,.39,.24,.72,.44,1.05,.65-.27,2.48,.95,5.25,2.9,6.59,1,.69,1.63,.58,2.22-.36,.02-.04,.08-.05,.13-.08,.11,.26,.21,.5,.42,.99Z"/>
      <path class="cls-5" d="M142.32,79.49c.06,1.65-.97,2.29-2.34,1.71-2.45-1.04-4.24-2.85-5.68-5-.72-1.08-1.32-2.26-1.84-3.45-.45-1.04-.09-2.09,.62-2.89,.32-.36,1.04-.6,1.53-.54,.73,.09,1.52,.35,2.11,.78,3.21,2.4,5.27,5.5,5.6,9.4Zm-6.48-6.41c.26,.36,.59,.64,.7,1,.37,1.18,.87,2.24,2.01,2.88-.52-.93-1.02-1.81-1.52-2.69l.33-.19c1.04,1.24,2.44,2.24,2.56,4.16,.58-.98-.34-3.13-1.74-4.31-1.17-.99-1.92-1.2-2.35-.85Z"/>
      <path class="cls-5" d="M143.07,81.33c.14-1.75-.15-3.42-.81-5.04-1.12-2.75-2.81-4.84-6-7.33,.05-.08,.09-.16,.14-.24,.95,.57,2,1.03,2.84,1.74,1.75,1.49,3.17,3.28,4.24,5.33,1.03,1.96,1.46,3.81-.43,5.52,0,0,.02,.02,.02,.02Z"/>
      <path class="cls-5" d="M137.1,92.33c.54,.18,1.18,.24,1.61,.58,2.1,1.63,3.94,3.49,4.9,6.04,.29,.77,.43,1.61,.5,2.43,.17,1.8-1.25,2.87-2.88,2.09-1.1-.53-2.22-1.24-3.01-2.15-1.17-1.34-2.21-2.84-2.99-4.43-.41-.83-.29-2.03-.13-3.01,.15-.94,.82-1.61,2-1.54Zm.74,5.05c.32,.51,.59,1.06,.97,1.52,.37,.45,.86,.82,1.29,1.22,.04-.04,.07-.09,.11-.13-.46-.68-.93-1.36-1.39-2.04,.09-.09,.18-.18,.28-.27,.58,.5,1.23,.94,1.69,1.53,.2,.26-.02,.83-.06,1.53,.24-.38,.5-.6,.51-.84,.1-1.63-2.08-3.53-3.66-3.16-.26,.06-.66,.54-.62,.73,.4,1.78,1.25,3.31,2.93,4.19,.61,.32,1.2,.15,1.4-.71-1.31,.59-3.46-1.53-3.45-3.57Z"/>
      <path class="cls-3" d="M130.04,158.62c-2.47,1.45-4.66,3.04-7.57,2.93,1.16-2.31,5.24-3.97,7.57-2.93Z"/>
      <path class="cls-3" d="M151.44,139.79c-.43-1.42,.17-3.09,1.38-3.74-.46,1.25-.92,2.49-1.38,3.74Z"/>
      <path class="cls-5" d="M147.88,112.71c-1.65,.94-1.45,2.77,.34,5.13-.29-.16-.65-.25-.84-.48-.91-1.11-1.33-2.41-1.19-3.84,.04-.37,.24-.91,.51-1.03,.3-.13,.78,.13,1.18,.21Z"/>
      <path class="cls-3" d="M147.8,113.55c1.02,1.07,1.08,2.27,.99,3.54-1.05-.48-1.6-2.3-.99-3.54Z"/>
      <path d="M172.32,149.17c2.39-1.39,3.92-4.27,3.66-6.72-1.64-.12-2.81,1.67-3.12,4.73-.85-1.98,.79-5.39,3.27-5.79-.03-.28-.06-.57-.09-.86,.07-.01,.14-.03,.21-.04,.11,.53,.29,1.06,.32,1.6,.16,3.94-1.73,7.19-4.25,7.09Z"/>
      <path d="M168.08,116.69c.38-2.1-.19-4.03-1.64-5.64q-.24,.77,.84,3.47c-1.17-.98-1.75-2.15-1.41-3.42,.24-.9-.13-1.24-.65-1.68-.15-.12-.3-.24-.54-.42,1.34,.04,3.11,1.57,3.59,2.97,.74,2.18,.66,4.01-.19,4.71Z"/>
      <path d="M157.44,93.42c-.21-.49-.31-.74-.42-.99-.04,.03-.1,.04-.13,.08-.6,.94-1.22,1.04-2.22,.36-1.95-1.34-3.17-4.12-2.9-6.59-.33-.21-.67-.41-1.05-.65,2.54-1.03,7.1,4.16,6.72,7.8Zm-4.53-6.79c-.15,.09-.3,.19-.46,.28,.01,2.04,.87,3.72,2.41,5.06,.33,.28,.89,.3,1.34,.44,.02-.48,.24-1.1,.02-1.41-1.04-1.5-2.2-2.92-3.32-4.37Z"/>
      <path d="M135.84,73.07c.42-.35,1.18-.14,2.35,.85,1.4,1.18,2.32,3.34,1.74,4.31-.12-1.92-1.51-2.92-2.56-4.16l-.33,.19c.5,.88,.99,1.76,1.52,2.69-1.15-.64-1.64-1.7-2.01-2.88-.11-.36-.44-.64-.7-1Z"/>
      <path d="M137.84,97.38c-.01,2.04,2.13,4.16,3.45,3.57-.2,.86-.79,1.03-1.4,.71-1.68-.88-2.53-2.41-2.93-4.19-.04-.2,.36-.67,.62-.73,1.57-.37,3.76,1.53,3.66,3.16-.01,.23-.27,.45-.51,.84,.05-.7,.26-1.27,.06-1.53-.46-.59-1.11-1.03-1.69-1.53-.09,.09-.18,.18-.28,.27,.46,.68,.93,1.36,1.39,2.04-.04,.04-.07,.09-.11,.13-.43-.4-.92-.77-1.29-1.22-.38-.46-.65-1.01-.97-1.52Z"/>
      <path class="cls-3" d="M152.91,86.63c1.12,1.45,2.28,2.87,3.32,4.37,.22,.31,0,.93-.02,1.41-.45-.14-1.01-.15-1.34-.44-1.54-1.34-2.4-3.02-2.41-5.06,.15-.09,.3-.19,.46-.28Z"/>
      <path class="cls-1" d="M115.27,115.15c-2.15-1.52-5.37-2.85-9.12-4,1.44,1.6,2.79,3.29,4,5.09,1.43,2.14,3.09,4.22,3.57,6.85,.36,2.01,.72,4.04,.81,6.07,.16,3.79-.31,7.5-2.53,10.73-.54,.78-1.35,1.37-2.01,2.07-.62,.66-.53,1.1,.32,1.35,.86,.25,1.75,.46,2.64,.51,.01,0,.03,0,.04,0,4.42-3.42,7.36-9.13,9.49-12.7,3.17-5.31-.67-11.35-7.2-15.98Z"/>
      <path class="cls-6" d="M191.38,155.62c-8.15-.19-8.33,8.33-10.18,14.55-1.85,6.22-11.86,13.04-22.97,26.33-8.66,10.36-5.84,8.98-5.19,15.15,1.04-.36,2.08-.72,3.12-1.1,4.09-1.49,8.11-3.25,11.99-5.22,4.62-2.34,8.08-5.95,10.15-10.76,1.63-3.79,3.19-7.6,4.79-11.4,1.78-4.21,3.44-8.48,5.41-12.6,2.33-4.86,4.77-9.66,7.28-14.44-1.28-.3-2.74-.47-4.4-.51Z"/>
      <path class="cls-1" d="M111.36,174.58c-2.62-4.22-6.64-5.54-11.19-3.6-5.68,2.42-10.53,5.85-14.21,10.93-1.96,2.7-2.97,5.48-2.85,8.43,1.37,.76,2.04,1,2.87-.91,1.11-2.57,1.11-5.55,2.78-7.08,1.67-1.53,4.72-4.72,6.11-4.93s4.72-2.56,8.68-1.28c3.96,1.28,3.54,2.32,5.42,3.02,1.87,.69,2.02,3.36,3.4-.69,.14-.4,.27-.76,.41-1.11-.38-.94-.84-1.86-1.41-2.78Z"/>
      <path class="cls-1" d="M141.22,206.74c.55-3.03,.73-6.16,.82-9.24,.14-4.86-2.13-8.35-6.63-10.29-3.67-1.58-7.26-1.68-10.65,.76-1.91,1.38-3.7,2.83-5.2,4.72-3.42,4.31-5.4,9.17-6.09,14.56-.13,.99,.23,2.05,.4,3.06,.03,.2,.24,.51,.4,.53,.19,.02,.38,.04,.57,.06,1.14-.76,1.14-.77,1.14-3.14,0-2.85-.42-6.46,2.22-9.79s4.51-6.43,6.8-7.07c2.29-.64,3.68-1.61,6.87-.64,3.19,.97,2.99-.28,5.14,3.4,2.15,3.68,2.88,5.21,1.93,9.23-.95,4.03-1.51,5.86,.41,4.72,.75-.45,1.38-.57,1.87-.88Z"/>
      <path class="cls-1" d="M135.61,211.2c-.58,1.32-1.09,2.36,0,2.29s1.78,.13,2.53-1.14,.68-1.45,.64-1.63,.24-.34-.64-.48-1.65-.34-1.86,0-.67,.96-.67,.96Z"/>
      <path class="cls-1" d="M118.59,164.23c-1.63-1.72-2.43-1.76-.53-4.3,.41-.55,.7-.95,.94-1.26,.1-.23,.22-.44,.37-.61,3.09-3.61,6.8-5.63,11.93-4.46,.84,.19,1.44,.51,1.78,.94,.5,.31,1.17,.99,.81,2.4-.56,2.15,2.99,.96,3.26-1.74,.04-.38,.08-.73,.12-1.06-.11-.21-.24-.43-.4-.64-1.75-2.26-4.16-2.94-6.79-2.95-4.06-.03-7.72,1.13-10.97,3.74-1.92,1.54-3.36,3.21-4.05,5.59-.54,1.86,.14,3.34,1.36,4.56,.29,.15,.52,.33,.65,.57,.41,.31,.86,.54,1.32,.72,.66-.02,1.11-.53,.19-1.5Z"/>
      <path class="cls-1" d="M132.6,159.3c-.79,.62-1.07,.69-.93,1.11s.76,.5,1.39,.49,.97,0,1.04-.49-.26-.93-.65-1.11-.85,0-.85,0Z"/>
      <path class="cls-1" d="M162.25,163.62c-2.06-2.12-4.63-3.03-7.64-2.62-2.49,.34-4.51,1.6-6.57,2.91-3.65,2.33-6.28,6.95-5.32,11.65,.34,1.65,1.19,2.75,2.73,3.2,.12,.03,.23,.06,.35,.09,1.01-1.3,1.67-1.45,.76-2.71-.91-1.27-1.5-.21-1.46-2.38,.04-2.17,0-1.11,.37-3.05,.37-1.94,.23-2.18,.88-3.01s2.52-2.96,3.9-3.52,4.02-2.26,6.98-1.09c2.14,.85,4.88,1.92,5.59,1.25-.16-.25-.35-.5-.57-.73Z"/>
      <path class="cls-1" d="M150.04,176.14s1.48-.34,1.57,.54-.42,1.3-.79,1.34-1.39-.19-1.44-.46,.65-1.42,.65-1.42Z"/>
      <path class="cls-1" d="M161.06,166.31c0,.61,.05,1.25,.37,1.2s1.11,0,1.06-.6-.73-1.18-.73-1.18c0,0-.71-.14-.7,.58Z"/>
      <path class="cls-1" d="M180.36,138.02c-1.48-2.78-5.22-3.44-7.44-1.24-.83,.82-1.41,1.87-2.16,2.78-.44,.53-.8,1.09-1.1,1.66,.1,.21,.32,.31,.67,.27,1.04-.12,1.91-.95,3.6-2.3s2.86-2.33,4.04-.38c1.18,1.94,1.94,4.17,1.67,5.42-.28,1.25-1.4,4.28,.38,1.86,.4-.89,.72-1.83,.95-2.82,.42-1.8,.28-3.58-.61-5.25Z"/>
      <path class="cls-1" d="M156.55,128.81c-.49-1.64-2.39-2.46-4.09-2.12-2.15,.44-3.38,1.98-4.72,3.5-1.48,1.68-2.53,3.54-3.24,5.53,.15,1.81,.82,3.33,1.66,.66,1.26-4.03,.91-3.41,2.03-5.24,1.11-1.84,2.77-3.37,4.48-3.16s3.51,.21,3.58,1.6c.07,1.39-.62,4.48,.94,3.32,.01-.18,.03-.36,.04-.55-.14-.77-.27-2.19-.67-3.54Z"/>
      <path class="cls-1" d="M171.39,110.06c-.96-2.23-2.42-4.21-4.22-6-1.57-1.56-2.96-1.28-3.71,.81-.54,1.5-.7,3.14-1.03,4.72,0,2.74,.77,5.03,2.08,7.03,1.1,.95,2.07,1.19,1.38-.22-1.18-2.43-2.58-4.01-2.33-7,.25-3,.38-3.98,1.6-3.8,1.22,.18,3.55,2.91,4.5,3.8,.39,.36,1.1,.66,1.73,.67Z"/>
      <path class="cls-1" d="M151.23,115.87c.23-.18,.46-.3,.64-.43-.38-2.55-1.41-4.79-3.84-6.28,.07,0,.13,.02,.2,.03-.87-.35-1.65-.45-2.2-.55-.68,.01-1.17,.26-1.49,.75,.11,.15,.39,.32,.39,.32,.14,.65,.6,.35,1.85,.43,1.25,.08,2.37,1.54,2.71,2.24s1.15,3.94,1.73,3.48Z"/>
    </g>
  </g>
</svg>