<?xml version="1.0" encoding="UTF-8" standalone="no"?>
<svg
   version="1.0"
   width="256"
   height="256"
   viewBox="0 0 191.99999 191.99999"
   preserveAspectRatio="xMidYMid meet"
   id="svg69"
   sodipodi:docname="icon.svg"
   inkscape:version="1.1.1 (3bf5ae0d25, 2021-09-20)"
   xmlns:inkscape="http://www.inkscape.org/namespaces/inkscape"
   xmlns:sodipodi="http://sodipodi.sourceforge.net/DTD/sodipodi-0.dtd"
   xmlns="http://www.w3.org/2000/svg"
   xmlns:svg="http://www.w3.org/2000/svg">
  <defs
     id="defs73" />
  <sodipodi:namedview
     id="namedview71"
     pagecolor="#ffffff"
     bordercolor="#666666"
     borderopacity="1.0"
     inkscape:pageshadow="2"
     inkscape:pageopacity="0.0"
     inkscape:pagecheckerboard="0"
     inkscape:document-units="pt"
     showgrid="false"
     inkscape:zoom="0.86178639"
     inkscape:cx="605.13836"
     inkscape:cy="317.36403"
     inkscape:window-width="2560"
     inkscape:window-height="1017"
     inkscape:window-x="-8"
     inkscape:window-y="-8"
     inkscape:window-maximized="1"
     inkscape:current-layer="svg69"
     units="px" />
  <metadata
     id="metadata55">
Created by potrace 1.16, written by Peter Selinger 2001-2019
</metadata>
  <g
     transform="matrix(0.06193684,0,0,-0.06121332,20.088535,172.98113)"
     fill="#000000"
     stroke="none"
     id="g67">
    <path
       d="m 965,2510 c 6,-9 -3,-11 -37,-9 -34,3 -44,1 -41,-9 4,-9 -1,-10 -20,-3 -21,8 -25,7 -21,-3 4,-10 -10,-16 -55,-21 -33,-4 -64,-4 -69,-1 -6,3 -9,-2 -8,-12 1,-13 -7,-17 -36,-17 -20,0 -34,-4 -30,-9 3,-5 -2,-6 -12,-3 -11,5 -15,3 -10,-5 5,-7 -1,-9 -19,-6 -19,4 -24,1 -19,-10 4,-12 0,-14 -16,-10 -12,4 -25,1 -29,-4 -4,-7 -1,-8 7,-3 9,5 11,4 6,-3 -4,-7 -16,-12 -27,-12 -11,0 -27,-7 -36,-16 -9,-8 -27,-14 -42,-12 -19,2 -25,-1 -23,-13 3,-21 -23,-43 -42,-36 -10,4 -13,1 -10,-7 6,-15 -22,-29 -39,-19 -7,3 -9,3 -5,-2 10,-10 -11,-37 -23,-29 -5,3 -9,-1 -9,-9 0,-19 -34,-49 -45,-40 -4,5 -5,2 -1,-4 4,-7 2,-13 -5,-13 -7,0 -9,-8 -6,-21 4,-13 1,-19 -6,-16 -9,3 -11,-17 -9,-75 3,-56 0,-78 -7,-73 -6,3 -11,-1 -11,-10 0,-11 -5,-15 -15,-12 -8,4 -17,1 -21,-5 -5,-7 -2,-8 6,-3 10,6 12,4 7,-9 -4,-10 -10,-35 -13,-57 -4,-21 -10,-40 -15,-40 -5,-1 -15,-2 -21,-3 -8,-1 -12,-12 -10,-30 3,-22 0,-27 -11,-23 -10,4 -13,-1 -9,-20 3,-17 1,-24 -6,-19 -6,4 -8,-2 -4,-16 3,-12 1,-19 -5,-15 -5,3 -9,-4 -9,-16 1,-15 -5,-22 -16,-21 -10,1 -16,-2 -13,-6 2,-4 5,-235 5,-513 1,-455 3,-505 17,-500 13,5 15,0 11,-25 -2,-17 -1,-29 3,-27 4,3 10,-15 13,-40 4,-25 11,-45 16,-45 4,0 11,-18 15,-40 4,-25 12,-40 21,-40 12,0 18,-25 17,-76 0,-6 8,-9 18,-7 17,5 25,-10 20,-40 0,-4 2,-6 6,-5 11,4 54,-28 48,-34 -3,-2 5,-4 18,-4 14,1 22,-5 21,-15 -1,-12 4,-15 19,-11 13,3 18,1 13,-6 -5,-8 -1,-10 10,-5 14,5 16,2 12,-14 -4,-17 -2,-19 15,-15 13,3 18,1 14,-5 -5,-7 0,-9 13,-6 18,5 25,-6 22,-37 0,-3 11,-6 26,-5 19,0 27,-5 26,-16 -1,-12 4,-15 19,-11 14,4 18,2 12,-7 -6,-10 -3,-11 13,-2 15,8 23,7 32,-4 6,-8 10,-18 7,-22 -3,-4 15,-6 40,-4 28,2 43,-1 40,-6 -4,-6 4,-8 20,-5 17,3 24,1 19,-6 -4,-6 2,-8 14,-5 11,3 20,0 20,-6 0,-7 97,-11 319,-13 268,-3 318,-1 313,11 -4,10 2,13 26,9 17,-2 29,-1 27,3 -7,10 21,19 61,19 19,0 34,5 34,10 0,6 9,10 20,10 11,0 20,5 20,11 0,7 19,10 54,7 39,-2 52,0 49,9 -6,14 41,28 58,17 8,-4 9,-3 5,4 -4,7 -2,12 4,12 7,0 9,7 6,16 -5,13 0,16 27,12 30,-3 33,-1 29,16 -3,13 -1,17 6,12 7,-4 12,-2 12,5 0,6 8,9 19,6 14,-3 17,0 14,14 -4,14 -1,16 16,12 14,-4 26,1 34,11 7,10 28,18 48,19 30,2 35,5 31,21 -4,16 -1,18 21,14 16,-3 24,-1 20,5 -4,6 2,8 14,5 16,-4 19,-1 16,12 -5,18 28,37 45,26 5,-3 8,5 8,17 -1,14 5,22 15,21 12,-1 15,4 11,19 -4,15 -2,18 8,12 7,-5 11,-4 8,1 -8,13 9,54 22,54 6,0 8,-6 4,-12 -4,-7 -3,-9 2,-5 4,4 9,18 9,30 0,13 6,22 15,21 12,-1 14,9 11,44 -2,25 1,42 6,39 5,-3 7,10 5,29 l -4,34 h -389 -388 l -3,78 -3,77 -165,5 c -102,3 -158,8 -147,14 19,9 25,80 7,91 -27,17 0,24 105,27 73,2 118,7 123,14 4,7 32,20 62,30 30,9 63,26 73,36 23,23 39,14 31,-18 l -6,-24 327,2 328,3 8,23 c 6,15 5,21 -1,17 -6,-3 -10,3 -10,15 0,11 -10,34 -21,49 -15,21 -20,39 -17,64 3,30 1,33 -16,29 -16,-4 -18,-1 -14,16 4,14 2,20 -4,16 -7,-5 -9,2 -6,18 4,21 1,24 -15,20 -16,-4 -18,0 -15,24 3,26 0,29 -21,26 -20,-3 -23,0 -19,16 4,15 2,19 -8,15 -9,-3 -14,2 -14,16 0,12 -5,21 -11,21 -5,0 -8,4 -5,9 4,5 -3,7 -14,4 -12,-3 -22,1 -26,11 -3,9 -11,13 -17,9 -6,-4 -8,1 -5,13 5,18 -3,19 -194,16 -132,-2 -198,1 -198,8 0,5 4,10 9,10 5,0 11,6 14,13 3,9 -8,11 -44,9 l -49,-4 11,31 c 9,26 14,29 30,21 15,-8 17,-7 13,5 -4,10 0,15 11,15 13,0 16,6 12,21 -5,17 -2,20 13,16 11,-3 19,-2 18,2 -3,24 4,42 15,38 9,-3 11,17 9,89 l -3,94 h 26 c 15,0 24,-4 20,-10 -3,-6 1,-7 9,-4 9,4 16,1 16,-6 0,-7 7,-10 15,-7 8,4 17,2 20,-3 4,-6 20,-10 36,-10 20,0 28,-4 23,-12 -4,-7 -3,-8 5,-4 16,10 53,-3 48,-17 -3,-9 19,-12 78,-12 71,0 81,2 78,16 -3,9 1,20 8,24 8,6 10,4 4,-6 -5,-8 -5,-11 -1,-7 7,6 7,130 2,300 -1,14 -5,24 -10,20 -5,-3 -7,4 -4,16 4,14 2,19 -7,16 -15,-6 -28,23 -18,39 3,7 3,9 -2,5 -11,-10 -48,39 -42,55 3,9 -3,13 -17,13 -11,-1 -20,4 -19,10 1,7 -6,10 -17,7 -18,-5 -25,7 -22,38 1,3 -9,5 -21,5 -16,-1 -22,5 -22,19 0,11 -7,20 -15,21 -37,2 -42,5 -37,18 4,9 0,12 -13,9 -10,-3 -21,1 -25,8 -6,8 -4,10 5,4 8,-5 11,-4 6,3 -4,6 -13,9 -21,6 -13,-5 -49,19 -40,27 2,2 -15,5 -38,7 -39,3 -81,27 -73,41 3,4 -13,5 -35,3 -51,-5 -92,5 -86,22 4,10 -37,13 -191,15 -108,1 -201,5 -206,8 -5,4 -6,1 -1,-7 z m 520,-650 c 4,-6 9,-44 12,-85 6,-70 4,-77 -22,-115 -28,-40 -28,-40 -94,-40 -37,0 -72,5 -78,11 -6,6 -21,9 -34,7 -18,-2 -24,-9 -24,-28 0,-27 23,-37 93,-39 79,-2 44,-37 -54,-53 -102,-17 -194,11 -233,70 l -23,35 21,28 c 12,15 21,30 21,33 0,15 106,116 121,116 10,0 21,5 24,10 3,6 15,10 25,10 10,0 23,6 27,14 4,7 22,18 38,24 39,14 172,15 180,2 z"
       id="path57" />
    <path
       d="m 1433,979 c -15,-15 -18,-215 -5,-237 6,-9 33,-12 98,-10 l 89,3 3,43 c 2,27 -1,42 -9,42 -8,0 -8,4 -1,13 5,6 14,28 20,48 8,32 7,38 -21,69 -28,32 -36,35 -96,38 -45,2 -70,-1 -78,-9 z"
       id="path59" />
    <path
       d="m 1670,906 c 0,-55 5,-94 15,-112 8,-16 15,-37 15,-46 0,-16 11,-18 80,-18 68,0 82,3 87,18 4,9 11,20 17,24 5,4 10,52 10,110 1,85 -2,103 -14,103 -12,0 -16,-19 -21,-85 -9,-129 -11,-132 -72,-128 -42,2 -53,7 -55,22 -3,11 -10,26 -18,34 -9,9 -14,38 -14,88 0,59 -3,74 -15,74 -12,0 -15,-16 -15,-84 z"
       id="path61" />
    <path
       d="m 1970,961 c 0,-17 -4,-33 -10,-36 -5,-3 -10,-48 -10,-98 v -92 h 138 c 75,0 143,4 150,8 29,19 -6,27 -119,27 h -119 v 110 c 0,91 -3,110 -15,110 -10,0 -15,-10 -15,-29 z"
       id="path63" />
    <path
       d="m 2295,975 c -45,-24 -65,-53 -65,-96 0,-47 16,-86 50,-119 20,-20 38,-25 91,-28 l 65,-4 11,49 c 13,56 7,128 -13,144 -8,6 -14,17 -14,24 0,35 -79,54 -125,30 z m 89,-50 c 27,-29 39,-97 24,-131 -9,-19 -19,-24 -47,-24 -32,0 -40,5 -69,49 -17,28 -32,53 -32,58 1,12 33,48 55,61 30,17 44,15 69,-13 z"
       id="path65" />
  </g>
  <ellipse
     style="fill:#000000;fill-rule:evenodd;stroke-width:0.461805"
     id="path136"
     cx="104.51322"
     cy="66.940819"
     rx="1.1434495"
     ry="1.1300921" />
  <path
     style="fill:none;stroke:#000000;stroke-width:0.485101px;stroke-linecap:butt;stroke-linejoin:miter;stroke-opacity:1"
     d="m 106.42868,111.00281 c 66.16092,-1.54227 65.39049,-1.54227 66.25723,-1.54227 0.86674,0 0.38522,21.9003 0.38522,21.9003 l -66.20908,-0.6169 z"
     id="path436" />
  <ellipse
     style="fill:#f9f9f9;stroke-width:0.732094"
     id="path606"
     cx="114.15583"
     cy="117.32552"
     rx="4.2545047"
     ry="2.4330456" />
  <ellipse
     style="fill:#f9f9f9;stroke-width:0.540327"
     id="path630"
     cx="114.43417"
     cy="125.08811"
     rx="3.260462"
     ry="1.3903118" />
</svg>
