<?xml version="1.0" standalone="no"?>
<!DOCTYPE svg PUBLIC "-//W3C//DTD SVG 20010904//EN"
 "http://www.w3.org/TR/2001/REC-SVG-20010904/DTD/svg10.dtd">
<svg version="1.0" xmlns="http://www.w3.org/2000/svg"
 width="256.000000pt" height="256.000000pt" viewBox="0 0 256.000000 256.000000"
 preserveAspectRatio="xMidYMid meet">

<g transform="translate(0.000000,256.000000) scale(0.100000,-0.100000)"
fill="#000000" stroke="none">
<path d="M1395 2245 c-86 -52 -95 -55 -190 -65 -55 -6 -140 -22 -189 -36 -88
-25 -89 -25 -186 -10 -125 20 -123 21 -160 -11 -35 -29 -34 -22 -14 -165 5
-39 2 -55 -22 -105 -27 -53 -29 -67 -29 -168 0 -100 3 -117 30 -180 39 -93 70
-138 149 -213 36 -35 66 -69 66 -77 0 -7 -16 -38 -35 -70 -67 -111 -91 -194
-116 -397 -9 -76 -9 -112 1 -165 16 -87 43 -134 119 -205 66 -61 110 -76 192
-65 34 4 43 1 72 -28 53 -53 128 -67 210 -39 61 21 97 63 97 115 0 35 3 39 25
39 17 0 36 -12 56 -35 37 -42 91 -59 170 -53 50 4 62 9 113 54 123 107 146
181 128 418 -8 105 -18 171 -31 206 -16 42 -17 52 -6 56 23 9 43 81 60 214 37
287 57 416 66 425 19 20 10 83 -18 116 -30 36 -94 68 -134 69 -20 0 -30 8 -40
33 -22 54 -70 120 -114 157 -30 25 -44 45 -49 70 -15 89 -37 140 -66 155 -43
22 -57 19 -155 -40z m145 -17 c6 -13 16 -51 24 -86 13 -56 21 -69 73 -120 69
-67 98 -121 119 -226 17 -82 13 -133 -21 -248 -16 -57 -77 -162 -122 -209 -23
-25 -23 -27 -7 -44 17 -16 19 -16 46 16 61 73 99 141 128 229 26 77 31 107 31
186 0 104 1 106 64 80 49 -21 69 -70 45 -114 -5 -9 -18 -84 -29 -167 -11 -82
-28 -206 -37 -275 -17 -128 -31 -172 -61 -189 -17 -9 -17 -12 1 -58 25 -65 33
-119 42 -270 9 -171 -5 -224 -80 -298 -67 -67 -83 -75 -150 -75 -93 0 -148 68
-93 117 12 11 32 24 44 27 26 8 36 31 20 45 -20 16 -94 -23 -117 -62 -17 -29
-28 -35 -67 -41 -25 -3 -48 -4 -50 -2 -2 2 -24 83 -48 180 -24 98 -47 186 -50
197 -7 22 -33 25 -41 5 -3 -8 15 -99 41 -203 37 -147 52 -194 72 -214 55 -59
5 -124 -97 -124 -78 0 -112 24 -122 86 -3 24 -15 76 -26 114 -20 67 -36 128
-100 390 -26 103 -33 120 -51 123 -28 4 -27 -14 5 -141 14 -56 37 -147 50
-202 14 -55 34 -131 46 -170 11 -38 21 -81 21 -95 2 -24 -1 -25 -60 -28 -70
-3 -108 14 -124 56 -13 33 10 67 56 86 37 16 46 40 19 50 -23 9 -92 -31 -114
-66 l-19 -31 -20 33 c-33 55 -46 156 -33 253 6 45 14 103 16 128 6 57 29 125
68 206 41 84 44 86 120 74 34 -6 83 -13 108 -16 l45 -6 -3 -39 c-8 -81 29
-139 101 -159 59 -17 113 -2 157 44 31 32 34 41 35 98 1 61 1 62 30 65 80 7
162 25 178 39 9 9 17 28 17 43 0 49 -14 53 -172 39 -137 -11 -385 -8 -523 8
-57 6 -62 9 -125 73 -109 111 -157 234 -148 379 4 57 12 90 33 131 24 48 27
60 20 110 -4 30 -8 73 -9 95 -1 37 1 40 28 43 17 2 70 -4 118 -13 87 -17 89
-17 156 4 98 31 199 51 265 51 41 0 66 6 85 19 56 41 148 91 165 91 9 0 22
-10 27 -22z m-251 -1069 c33 -12 61 -52 61 -89 0 -33 -26 -75 -55 -88 -94 -43
-186 52 -133 139 28 45 69 58 127 38z"/>
<path d="M1412 2159 c-29 -17 -52 -33 -50 -34 4 -4 171 -75 176 -75 8 0 -12
97 -24 118 -19 29 -39 28 -102 -9z"/>
<path d="M758 2049 c-26 -14 -20 -139 6 -139 6 0 40 29 75 64 l63 63 -39 7
c-21 4 -49 9 -63 11 -14 3 -33 0 -42 -6z"/>
<path d="M1393 1923 c-34 -7 -89 -61 -75 -75 8 -8 19 -4 42 16 48 39 83 44
159 21 19 -7 22 -5 19 11 -5 27 -75 40 -145 27z"/>
<path d="M890 1824 c-42 -18 -70 -42 -70 -61 0 -7 7 -13 15 -13 8 0 15 5 15
10 0 6 20 20 45 32 46 23 44 23 134 -3 30 -9 19 18 -14 34 -43 21 -79 21 -125
1z"/>
<path d="M1642 1818 c-7 -7 -32 -15 -57 -18 -55 -6 -64 -24 -15 -28 35 -3 100
25 101 43 1 15 -15 17 -29 3z"/>
<path d="M1162 1758 c-18 -18 -14 -46 8 -60 12 -8 20 -24 20 -40 0 -60 -78
-90 -120 -48 -23 23 -49 17 -29 -7 23 -27 69 -45 99 -38 16 4 41 20 55 37 24
29 26 29 50 14 51 -33 126 -12 146 41 15 40 -1 47 -25 11 -18 -27 -29 -34 -63
-36 -34 -3 -44 1 -62 23 -19 25 -19 29 -5 50 12 18 13 28 4 44 -12 24 -58 29
-78 9z"/>
<path d="M1608 1733 c-57 -4 -74 -15 -42 -27 25 -9 83 -7 105 4 21 12 26 31 7
28 -7 -1 -39 -3 -70 -5z"/>
<path d="M783 1653 c-52 -4 -68 -15 -37 -27 22 -9 43 -7 87 5 37 10 52 31 20
27 -10 -1 -42 -3 -70 -5z"/>
<path d="M1530 1649 c0 -22 130 -25 137 -3 3 8 -20 11 -67 12 -38 0 -70 -4
-70 -9z"/>
<path d="M837 1585 c-11 -7 -36 -17 -58 -20 -43 -7 -44 -25 -1 -25 32 1 94 30
100 48 5 16 -18 15 -41 -3z"/>
<path d="M901 1537 c-6 -8 -30 -20 -53 -27 -58 -18 -69 -30 -30 -30 51 0 129
48 104 64 -6 3 -15 0 -21 -7z"/>
<path d="M1224 1103 c-15 -27 -34 -58 -42 -70 -12 -19 -12 -23 -1 -23 8 0 27
23 42 50 16 28 32 50 38 50 14 0 11 -9 -16 -57 -18 -29 -22 -43 -13 -43 7 0
21 12 30 27 l16 28 7 -28 c4 -15 12 -27 17 -27 7 0 8 12 3 33 -4 17 -8 42 -7
55 0 12 -4 22 -9 22 -5 0 -9 7 -9 15 0 30 -29 14 -56 -32z"/>
</g>
</svg>
