<svg xmlns="http://www.w3.org/2000/svg" xmlns:xlink="http://www.w3.org/1999/xlink" viewBox="0 0 258.31 256.43"><defs><style>.cls-1{fill:#1f1f1f;}.cls-2{fill:url(#linear-gradient);}</style><linearGradient id="linear-gradient" x1="284.63" y1="-122.47" x2="472.83" y2="-234.87" gradientTransform="matrix(1, 0, 0, -1, -243.77, -35.28)" gradientUnits="userSpaceOnUse"><stop offset="0.03" stop-color="#fbdf87"/><stop offset="0.84" stop-color="#f59791"/></linearGradient></defs><g id="Layer_2" data-name="Layer 2"><rect class="cls-1" width="258.31" height="256.43"/></g><g id="Layer_1" data-name="Layer 1"><path class="cls-2" d="M183.79,90.46a53.68,53.68,0,0,0-107,0H18.46V117.3H31.87l17.89,89.48h156.6l17.89-85h13.41V90.46Zm-94,86.39a13.35,13.35,0,1,1,13.35-13.35,13.35,13.35,0,0,1-13.35,13.35Zm25.45,0L92.49,130h24.09l21.91,46.84Zm56.42-3.66A15.92,15.92,0,0,1,161,176.83H144.53l-21.75-46.75h38q6.23,0,9.67,2.94t3.44,8.27a12.32,12.32,0,0,1-1,5.05,9.21,9.21,0,0,1-3,3.73,10.64,10.64,0,0,1-4.74,1.91,11.48,11.48,0,0,1,7.54,3.8,12.31,12.31,0,0,1,2.67,8.29c0,4-1.26,7-3.75,9.13ZM83.77,94.93a46.52,46.52,0,0,1,93,0Z" transform="translate(2.47 0.2)"/></g></svg>