<svg width="256" height="256" viewBox="0 0 256 256" fill="none" xmlns="http://www.w3.org/2000/svg">
<g clip-path="url(#clip0_10_73)">
<g clip-path="url(#clip1_10_73)">
<path d="M257.31 0H-1V256.43H257.31V0Z" fill="#1F1F1F"/>
<path d="M185.26 90.66C184.157 77.2287 178.043 64.7036 168.131 55.5724C158.22 46.4413 145.236 41.3723 131.76 41.3723C118.284 41.3723 105.3 46.4413 95.3886 55.5724C85.4771 64.7036 79.3627 77.2287 78.26 90.66H19.93V117.5H33.34L51.23 206.98H207.83L225.72 121.98H239.13V90.66H185.26ZM91.26 177.05C88.6196 177.05 86.0385 176.267 83.8431 174.8C81.6477 173.333 79.9366 171.248 78.9262 168.809C77.9158 166.369 77.6514 163.685 78.1665 161.096C78.6816 158.506 79.9531 156.127 81.8201 154.26C83.6872 152.393 86.0659 151.122 88.6555 150.607C91.2452 150.091 93.9294 150.356 96.3688 151.366C98.8082 152.377 100.893 154.088 102.36 156.283C103.827 158.479 104.61 161.06 104.61 163.7C104.61 167.241 103.203 170.636 100.7 173.14C98.1963 175.644 94.8006 177.05 91.26 177.05ZM116.71 177.05L93.96 130.2H118.05L139.96 177.04L116.71 177.05ZM173.13 173.39C170.139 175.862 166.348 177.156 162.47 177.03H146L124.25 130.28H162.25C166.403 130.28 169.627 131.26 171.92 133.22C174.213 135.18 175.36 137.937 175.36 141.49C175.386 143.225 175.045 144.946 174.36 146.54C173.706 148.026 172.671 149.313 171.36 150.27C169.959 151.282 168.332 151.938 166.62 152.18C169.525 152.443 172.221 153.802 174.16 155.98C176.03 158.326 176.98 161.274 176.83 164.27C176.83 168.27 175.57 171.27 173.08 173.4L173.13 173.39ZM85.24 95.13C85.5948 83.0335 90.6495 71.5514 99.3312 63.1206C108.013 54.6898 119.638 49.974 131.74 49.974C143.842 49.974 155.467 54.6898 164.149 63.1206C172.83 71.5514 177.885 83.0335 178.24 95.13H85.24Z" fill="url(#paint0_linear_10_73)"/>
</g>
</g>
<defs>
<linearGradient id="paint0_linear_10_73" x1="42.33" y1="87.39" x2="230.53" y2="199.79" gradientUnits="userSpaceOnUse">
<stop offset="0.03" stop-color="#FBDF87"/>
<stop offset="0.84" stop-color="#F59791"/>
</linearGradient>
<clipPath id="clip0_10_73">
<rect width="256" height="256" fill="white"/>
</clipPath>
<clipPath id="clip1_10_73">
<rect width="258.31" height="256.43" fill="white" transform="translate(-1)"/>
</clipPath>
</defs>
</svg>
