<svg xmlns="http://www.w3.org/2000/svg" xmlns:xlink="http://www.w3.org/1999/xlink" viewBox="0 0 256 256"><defs><style>.cls-1{fill:none;}.cls-2{fill:#231f20;}.cls-3{fill:#f5f6e2;}.cls-4{fill:url(#linear-gradient);}.cls-5{fill:#970a98;}.cls-6{fill:url(#linear-gradient-2);}.cls-7{fill:#fefefe;}.cls-8{fill:#f6f6f6;}.cls-9{fill:url(#linear-gradient-3);}.cls-10{fill:#020202;}.cls-11{fill:#030303;}.cls-12{fill:#262626;}.cls-13{fill:#f7f7f7;}.cls-14{fill:#efefef;}.cls-15{fill:url(#Zebra);}</style><linearGradient id="linear-gradient" x1="18.84" y1="141.63" x2="246.67" y2="141.63" gradientUnits="userSpaceOnUse"><stop offset="0" stop-color="#e204c8"/><stop offset="0" stop-color="#e104c7"/><stop offset="0.04" stop-color="#b803a2"/><stop offset="0.09" stop-color="#960384"/><stop offset="0.14" stop-color="#7b026c"/><stop offset="0.18" stop-color="#68025b"/><stop offset="0.23" stop-color="#5d0250"/><stop offset="0.28" stop-color="#59024d"/><stop offset="0.67" stop-color="#d30cff"/><stop offset="0.88" stop-color="#7926e9"/><stop offset="1" stop-color="#9d0488"/></linearGradient><linearGradient id="linear-gradient-2" y1="125.85" x2="256" y2="125.85" gradientUnits="userSpaceOnUse"><stop offset="0" stop-color="#e1aed0"/><stop offset="0.51" stop-color="#c38dbc"/><stop offset="1" stop-color="#d661a0"/></linearGradient><linearGradient id="linear-gradient-3" x1="226.79" y1="200.13" x2="229.99" y2="200.13" xlink:href="#linear-gradient-2"/><pattern id="Zebra" data-name="Zebra" width="124.42" height="124.42" patternTransform="translate(-223.41 -492.81) scale(0.35)" patternUnits="userSpaceOnUse" viewBox="0 0 124.42 124.42"><rect class="cls-1" width="124.42" height="124.42"/><path class="cls-2" d="M37.82,251.32c-1.12-3.12-3.27-15.49-4.66-21.8-1.46-6.62,0-3.66-.67-12.66s0-11.34,0-14a67.82,67.82,0,0,1,1.33-18c2-10,1.22-15.78,4.55-26.11s1.67-26,1.67-26l-5.67-15s-1,13.67-1,15.33,1.67,5.34.33,11.34-1.33,19-2.66,21.66-3.34,9.34-3.34,17.34a60.64,60.64,0,0,0,1,12.33c-3-1.67-4.33-8.33-4.33-12s-1.67-6.67,0-9.67-.55-12.89-.55-15.89.67-8,0-16c-.23-2.82-.05-7.75-1.72-10.09s-1.67-9-1.67-10.33-8.88,2.68-8.88,2.68a133.7,133.7,0,0,0,3.22,13c1.66,5.77-.28,6.42,1.72,14.75S20,167.08,19.7,173.42s2.34,21,2.34,26,2.33,4.33.66,10.66S16,224.49,19.91,231.56c.17,3.15-1.83,7.15-3.21,8.9s-7.34,6-4.46,10.12h8.34a27.27,27.27,0,0,1-.13-3.87c.05-2.67,1.13-4.13,2.38-7.13s1.75-6.75,1.25-9c3.12,2.75,5.87,5.75,6.37,11.38s3,5.62,3.38,6.75S37.82,251.32,37.82,251.32Z"/><path class="cls-2" d="M44.58,124.21c.38,7.16,5.77,13.9,5.14,18.91-.66,5.34-7.33,11.34-7.33,23.34s3,10.33,4,21-2,4-3.67,15.33-3.66,18-2.33,27.67,3,11.5,4.33,19-.66,14.33,5.34,8,9.83-7.4,9.14-8.65c-2.88-5.24-7.48-20-4.81-28.35s-2.9-11.27-.57-20.94,10.67-26.33,10.67-29.33,1.23-13.73,2.23-20.07.67-11-4.66-20.33c-1.28-2.23-2.18-4-3-5.65Z"/><path class="cls-2" d="M66.63,124.09c1.05,2.22,3.08,5.76,4.82,15.33,1.91,10.5,2,5.77-.63,21.77s6,20,5,40.33-13,22.56-12.37,32.56,9,31.67,10,32.67,5,3.33,5-4.33-2-18-.66-24.67,6.33-18.67,7.33-24.33,4-6,7-16.67-4.63-12.23-7.63-21.89-2.33-16-3.33-19.34a72.48,72.48,0,0,1-2.71-17.1c-.18-6.67-.53-8.5-.94-14.52Z"/><path class="cls-2" d="M104,228.16c1,1.83-1.2,11.23-1.55,21.08l-13.94.1c.27-2,.86-4.12,1.15-6.51a69.73,69.73,0,0,0,0-9.08c-.33-7,7-18.67,10-26.33s6.79-15.23,6.79-24.56S97,162.75,92.7,151.75s-6.33-17.67-3-33.33c0,0,12.92-17.14,14.34-14.67s-1.49,17.07-2.34,29.33c-.49,7.11,4.45,13.11,5.12,16.11s0,7,1.67,15.67,11,19.66,10.33,28.33c-.49,6.42,1.12,14.11-7,27C110.33,222.57,104,228.16,104,228.16Z"/><path class="cls-2" d="M125.53,123.8c-.08,6.1-1.62,12.81.92,21.28,3,10,9.59,9,8.92,22.34-.67,13.49-1.49,29.24,1.08,39,1.67,6.33,4.67,14.33,1.34,22.33-6.26,15-11.43,9.23-12.34,20.33-1,12.34-3.41,14-3.41,14-3-5-5-6.66-5.34-13.66s.09-13,3.09-24.34,6.66-22.33,4-30.66-2-13-5.34-21.34-.29-6.56-2-18.22c-2.37-16.57-.54-12.29-.54-21.4,0-3.2.47-5.66.75-9.38Z"/><path class="cls-2" d="M1.12,123.8C1,129.9-.5,136.61,2,145.08c3,10,9.58,9,8.92,22.34-.68,13.49-1.49,29.24,1.08,39,1.67,6.33,4.67,14.33,1.33,22.33C7.12,243.76,1.94,238,1,249.08c-1,12.34-3.42,14-3.42,14-3-5-5-6.66-5.33-13.66s.08-13,3.08-24.34,6.67-22.33,4-30.66-2-13-5.33-21.34-.3-6.56-2-18.22c-2.37-16.57-.54-12.29-.54-21.4,0-3.2.46-5.66.75-9.38Z"/><path class="cls-2" d="M125.52.05c-.08,6.1-1.62,12.81.92,21.28,3,10,9.59,9,8.92,22.34s-1.49,29.24,1.08,39C138.11,89,141.11,97,137.78,105c-6.26,15-11.44,9.23-12.34,20.33-1,12.34-3.41,14-3.41,14-3-5-5-6.66-5.34-13.66s.09-13,3.09-24.34,6.66-22.33,4-30.66-2-13-5.34-21.34-.29-6.56-2-18.22c-2.37-16.57-.54-12.29-.54-21.4,0-3.2.47-5.66.75-9.38Z"/><rect class="cls-3" width="124.42" height="124.42"/><path class="cls-2" d="M37.82,126.91c-1.12-3.13-3.27-15.5-4.66-21.8-1.46-6.63,0-3.67-.67-12.67s0-11.33,0-14a67.82,67.82,0,0,1,1.33-18c2-10,1.22-15.77,4.55-26.11S40,8.33,40,8.33l-5.67-15s-1,13.67-1,15.34S35,14,33.7,20,32.37,39,31,41.67,27.7,51,27.7,59a60.64,60.64,0,0,0,1,12.33c-3-1.66-4.33-8.33-4.33-12s-1.67-6.66,0-9.66-.55-12.9-.55-15.9.67-8,0-16C23.59,15,23.77,10,22.1,7.69s-1.67-9-1.67-10.34S11.55,0,11.55,0a133.7,133.7,0,0,0,3.22,13c1.66,5.77-.28,6.42,1.72,14.75S20,42.67,19.7,49,22,70,22,75s2.33,4.33.66,10.67-6.67,14.4-2.79,21.48c.17,3.14-1.83,7.14-3.21,8.89s-7.34,6-4.46,10.13h8.34a27.52,27.52,0,0,1-.13-3.88c.05-2.67,1.13-4.12,2.38-7.12s1.75-6.75,1.25-9c3.12,2.75,5.87,5.75,6.37,11.37s3,5.63,3.38,6.75S37.82,126.91,37.82,126.91Z"/><path class="cls-2" d="M44.58-.21C45,7,50.35,13.7,49.72,18.71,49.06,24,42.39,30,42.39,42s3,10.33,4,21-2,4-3.67,15.33-3.66,18-2.33,27.67,3,11.5,4.33,19-.66,14.33,5.34,8,9.83-7.4,9.14-8.65c-2.88-5.24-7.48-20-4.81-28.35s-2.9-11.27-.57-20.93S64.49,48.77,64.49,45.77,65.72,32,66.72,25.71s.67-11-4.66-20.34c-1.28-2.22-2.18-3.95-3-5.64Z"/><path class="cls-2" d="M66.63-.33C67.68,1.89,69.71,5.44,71.45,15c1.91,10.5,2,5.77-.63,21.77s6,20,5,40.34-13,22.56-12.37,32.56,9,31.66,10,32.66,5,3.34,5-4.33-2-18-.66-24.67S84.12,94.67,85.12,89s4-6,7-16.67-4.63-12.22-7.63-21.89-2.33-16-3.33-19.33A72.67,72.67,0,0,1,78.45,14c-.18-6.67-.53-8.5-.94-14.52Z"/><path class="cls-2" d="M104,103.75c1,1.83-1.2,11.22-1.55,21.07l-13.94.1c.27-2,.86-4.11,1.15-6.5a69.9,69.9,0,0,0,0-9.09c-.33-7,7-18.66,10-26.33s6.79-15.23,6.79-24.56S97,38.33,92.7,27.33,86.37,9.67,89.7-6c0,0,12.92-17.14,14.34-14.67S102.55-3.59,101.7,8.67c-.49,7.11,4.45,13.1,5.12,16.1s0,7,1.67,15.67,11,19.67,10.33,28.33c-.49,6.42,1.12,14.11-7,27C110.33,98.15,104,103.75,104,103.75Z"/><path class="cls-2" d="M125.53-.62c-.08,6.1-1.62,12.81.92,21.29,3,10,9.59,9,8.92,22.33-.67,13.49-1.49,29.24,1.08,39,1.67,6.33,4.67,14.33,1.34,22.33-6.26,15-11.43,9.23-12.34,20.34-1,12.33-3.41,14-3.41,14-3-5-5-6.67-5.34-13.67s.09-13,3.09-24.33,6.66-22.34,4-30.67-2-13-5.34-21.33-.29-6.56-2-18.23C114.12,13.87,116,18.15,116,9c0-3.19.47-5.65.75-9.37Z"/><path class="cls-2" d="M1.11.05C1,6.15-.51,12.86,2,21.33c3,10,9.58,9,8.91,22.34S9.46,72.91,12,82.67C13.69,89,16.69,97,13.36,105,7.11,120,1.93,114.23,1,125.33c-1,12.34-3.42,14-3.42,14-3-5-5-6.66-5.33-13.66s.08-13,3.08-24.34S2,79-.64,70.67s-2-13-5.33-21.34-.3-6.56-2-18.22c-2.37-16.57-.54-12.29-.54-21.4,0-3.2.46-5.66.75-9.38Z"/><path class="cls-2" d="M1.12-.62C1,5.48-.5,12.19,2,20.67c3,10,9.58,9,8.92,22.33C10.28,56.49,9.47,72.24,12,82c1.67,6.33,4.67,14.33,1.33,22.33-6.25,15-11.43,9.23-12.33,20.34-1,12.33-3.42,14-3.42,14-3-5-5-6.67-5.33-13.67s.08-13,3.08-24.33S2,78.33-.63,70-2.63,57-6,48.67s-.3-6.56-2-18.23C-10.29,13.87-8.46,18.15-8.46,9c0-3.19.46-5.65.75-9.37Z"/><path class="cls-2" d="M125.52-124.36c-.08,6.09-1.62,12.8.92,21.28,3,10,9.59,9,8.92,22.33-.67,13.49-1.49,29.24,1.08,39,1.67,6.33,4.67,14.33,1.34,22.33-6.26,15-11.44,9.24-12.34,20.34-1,12.33-3.41,14-3.41,14-3-5-5-6.67-5.34-13.67s.09-13,3.09-24.33,6.66-22.34,4-30.67-2-13-5.34-21.33-.29-6.56-2-18.23c-2.37-16.57-.54-12.29-.54-21.4,0-3.19.47-5.65.75-9.37Z"/><path class="cls-2" d="M37.82,2.49C36.7-.63,34.55-13,33.16-19.31c-1.46-6.62,0-3.67-.67-12.67s0-11.33,0-14a67.84,67.84,0,0,1,1.33-18c2-10,1.22-15.77,4.55-26.1s1.67-26,1.67-26l-5.67-15s-1,13.66-1,15.33,1.67,5.33.33,11.33-1.33,19-2.66,21.67S27.7-73.42,27.7-65.42a60.81,60.81,0,0,0,1,12.34c-3-1.67-4.33-8.34-4.33-12s-1.67-6.67,0-9.67-.55-12.89-.55-15.89.67-8,0-16c-.23-2.82-.05-7.76-1.72-10.09s-1.67-9-1.67-10.33-8.88,2.67-8.88,2.67a132.85,132.85,0,0,0,3.22,13c1.66,5.78-.28,6.42,1.72,14.76S20-81.75,19.7-75.42s2.34,21,2.34,26,2.33,4.34.66,10.67S16-24.34,19.91-17.27c.17,3.15-1.83,7.15-3.21,8.9s-7.34,6-4.46,10.12h8.34a27.27,27.27,0,0,1-.13-3.87c.05-2.68,1.13-4.13,2.38-7.13s1.75-6.75,1.25-9C27.2-15.5,30-12.5,30.45-6.87s3,5.62,3.38,6.75S37.82,2.49,37.82,2.49Z"/><path class="cls-2" d="M44.58-124.62c.38,7.16,5.77,13.9,5.14,18.91-.66,5.34-7.33,11.34-7.33,23.34s3,10.33,4,21-2,4-3.67,15.33-3.66,18-2.33,27.67,3,11.5,4.33,19-.66,14.34,5.34,8S59.89,1.23,59.2,0c-2.88-5.25-7.48-20-4.81-28.35s-2.9-11.27-.57-20.94S64.49-75.64,64.49-78.64s1.23-13.73,2.23-20.07.67-11-4.66-20.33c-1.28-2.23-2.18-4-3-5.65Z"/><path class="cls-2" d="M66.63-124.74c1.05,2.22,3.08,5.76,4.82,15.32,1.91,10.5,2,5.78-.63,21.78s6,20,5,40.33-13,22.56-12.37,32.56,9,31.67,10,32.67,5,3.33,5-4.34-2-18-.66-24.66,6.33-18.67,7.33-24.34,4-6,7-16.66S87.49-64.31,84.49-74s-2.33-16-3.33-19.33a72.58,72.58,0,0,1-2.71-17.11c-.18-6.66-.53-8.49-.94-14.52Z"/><path class="cls-2" d="M104-20.67c1,1.83-1.2,11.23-1.55,21.08L88.55.5c.27-2,.86-4.11,1.15-6.5a69.73,69.73,0,0,0,0-9.08c-.33-7,7-18.67,10-26.34s6.79-15.22,6.79-24.56S97-86.08,92.7-97.08s-6.33-17.67-3-33.34c0,0,12.92-17.14,14.34-14.66s-1.49,17.07-2.34,29.33c-.49,7.11,4.45,13.11,5.12,16.11s0,7,1.67,15.66,11,19.67,10.33,28.34c-.49,6.42,1.12,14.1-7,27C110.33-26.27,104-20.67,104-20.67Z"/><path class="cls-2" d="M125.53-125c-.08,6.1-1.62,12.81.92,21.28,3,10,9.59,9,8.92,22.33-.67,13.49-1.49,29.25,1.08,39,1.67,6.34,4.67,14.34,1.34,22.34-6.26,15-11.43,9.23-12.34,20.33-1,12.33-3.41,14-3.41,14-3-5-5-6.67-5.34-13.67s.09-13,3.09-24.33,6.66-22.33,4-30.67-2-13-5.34-21.33-.29-6.56-2-18.23c-2.37-16.56-.54-12.28-.54-21.39,0-3.2.47-5.66.75-9.38Z"/><path class="cls-2" d="M1.11-124.36C1-118.27-.51-111.56,2-103.08c3,10,9.58,9,8.91,22.33-.67,13.49-1.48,29.24,1.09,39,1.66,6.33,4.66,14.33,1.33,22.33C7.11-4.4,1.93-10.18,1,.92c-1,12.33-3.42,14-3.42,14-3-5-5-6.67-5.33-13.67s.08-13,3.08-24.33S2-45.42-.64-53.75s-2-13-5.33-21.33-.3-6.56-2-18.23c-2.37-16.57-.54-12.29-.54-21.4,0-3.19.46-5.65.75-9.37Z"/><path class="cls-2" d="M1.12-125C1-118.93-.5-112.22,2-103.75c3,10,9.58,9,8.92,22.33-.68,13.49-1.49,29.25,1.08,39,1.67,6.34,4.67,14.34,1.33,22.34C7.12-5.07,1.94-10.85,1,.25c-1,12.33-3.42,14-3.42,14-3-5-5-6.67-5.33-13.67s.08-13,3.08-24.33S2-46.08-.63-54.42s-2-13-5.33-21.33-.3-6.56-2-18.23c-2.37-16.56-.54-12.28-.54-21.39,0-3.2.46-5.66.75-9.38Z"/></pattern></defs><g id="Layer_2" data-name="Layer 2"><g id="_1" data-name="1"><path class="cls-4" d="M99.1,245.42c8.79,2.87,15.74-1.54,23.07-5.33,19.11-9.9,35.16-23.54,49.69-39.18,2.37-2.55,3.87-5.66,6-8.81,3.49,5.87,6.84,11.52,10.19,17.17q6.88,11.65,13.77,23.3l1.81-1.3c-6.44-11.08-13-22.1-19.45-33.15-.6-1-1.16-2.06-1.84-3-2.28-3.24-3.52-6.34-1.85-10.59,1.52-3.88-1.25-7.6-6.18-8.24-4.51-.59-5.52-4-7.05-7-1.23-2.4,2.25-7.15,5.83-8.63a16.15,16.15,0,0,1,6.37-1.1,3.94,3.94,0,0,1,3.62,2.13c4.66,8.12,9.9,15.87,15.28,23.53a20.68,20.68,0,0,1,3.86,10.05,45.18,45.18,0,0,0,2.87,11.44c1.55,4.07,4.5,6.19,8.84,6a3,3,0,0,1,3.11,1.59c.65,1.09,1.61,2.19,2.42,3.28.49-.5,1-1,1.46-1.51-.83-1.25-1.6-2.42-2.38-3.58-.63-.95,0-1.41.66-1.91a42.44,42.44,0,0,0,7.59-8.19h0l2.48-4.86.72.3a18,18,0,0,1-2.18,5c-.94,2.69-1.91,5.37-2.8,8.07q-.16.51-.3,1c1.35-1.55,2.65-3.13,3.92-4.74,2.71-8,6.38-15.45,12.62-21.49q1-.92,1.95-1.77c1.24-2.56,2.4-5.17,3.47-7.81a25.56,25.56,0,0,0-6.15,3.9,47.34,47.34,0,0,0-5.82,5.92,37.68,37.68,0,0,0-3.18-19.49c-4.76-10.45-14-15.26-25.25-13.19-1.1.21-2.17.48-3.22.78a113.57,113.57,0,0,0,4.19-16.1c4.52-25.32-1.24-46.92-17.1-64.2-2.44-2.66-2.72-4-1.43-7.06,4.74-11,2-21.2-8.29-31a18.8,18.8,0,0,0-11.57-5,27.1,27.1,0,0,0-13.12,1.6c-5.52,2.29-9.72,6.76-12.84,13.66-.14.3-.24.49-.31.61l-.6-.13C129.48,43,119.07,42.53,109.22,45a119.8,119.8,0,0,0-15.56,5.37L90,51.79q-.77.28-1.5.6A62.58,62.58,0,0,0,61.29,73.55c-.11.15-.2.26-.27.34s-.27-.12-.49-.24c-8.07-4.26-16-4.85-23.42-1.75a33.4,33.4,0,0,0-8.58,5.31c-7.46,6.23-9,14.85-9.56,21.66C18,111.37,22.49,119,34,124.21l.66.32a11.82,11.82,0,0,0,3.23,1.16,2.21,2.21,0,0,1,.37.09,7.06,7.06,0,0,1,0,1.08A75.88,75.88,0,0,0,44,165.07C50.08,179.26,59.19,189,71.8,194.69a108.12,108.12,0,0,0,17,6.23,48.58,48.58,0,0,0-7.57,17.94c-2.09,10.51,3.23,22.49,11.85,26.7,1.07.52,1.25.79,1.36,2,.13,1.4.3,2.76.5,4.11,1.59.43,3.19.82,4.81,1.19A49.05,49.05,0,0,1,99.1,245.42ZM207.36,157.8a17.08,17.08,0,0,1,20.27,12,33.36,33.36,0,0,1-9.41,38.47c-4.18,3.43-8.85,3.22-11.05-2.7a47.21,47.21,0,0,1-3-13.73c-.2-3.53-2-6.44-4.19-8.91-2.83-3.19-4.91-6.84-7.31-10.29-.56-.8-.72-1.53,0-2.06,2.32-1.7,2.92-4.41,4-6.78C198.76,159.11,203.26,158.64,207.36,157.8Zm-59.91-111C151.07,38.68,157.78,35.09,166,35c7.44-.06,13.22,3.83,16.65,10.75,4.49,9,4.47,15-.3,23.47-3-2.42-6.05-4.66-9.19-6.81a84.45,84.45,0,0,0-23.82-11.35C146.73,50.31,146.32,49.34,147.45,46.8Zm-109.37,74c-5.12-2.54-10.39-4.72-12.82-10.59a26,26,0,0,1,14-34c7-3,13.6-1.4,20,2.06,1.92,1,.32,2-.2,2.8-3.16,5.09-6.45,10.1-9.52,15.24-4.14,6.93-6.36,14.57-7.72,22.45C41.34,121.35,40.63,122.1,38.08,120.83Zm39.07,70.94a50.28,50.28,0,0,1-19.07-13.08,60.2,60.2,0,0,1-14.61-31.78c-3.32-21.73,1.32-41.72,14.27-59.65,2.65-3.67,5.2-7.43,7.78-11.15A53.57,53.57,0,0,1,88.43,57.55c8.3-3.71,16.65-7.27,25.69-8.75,12.9-2.11,25.13,1,37.1,5.2,15,5.31,28,13.55,38.15,26,11,13.41,15.44,28.85,14.56,46-.73,14.11-5,27.3-10.76,40.06a16.85,16.85,0,0,1-1.12,1.72c-.93,1.48-1.64,1.66-2.65-.07-1.59-2.72-3.52-5.24-5.11-8a4.55,4.55,0,0,0-4.3-2.42c-7.34-.19-11.63,2.22-14.44,8.1-1.14,2.36-1.33,4.42.45,6.55a24.31,24.31,0,0,1,2,3.48,110.5,110.5,0,0,0-14.87,3c-9.51,2.59-17.49,8.14-25.74,13.12-9.08,5.48-18.59,8.58-29.3,6.54A109.86,109.86,0,0,1,77.15,191.77Zm17.21,49.07c-6.62-3.88-8.69-10.52-8.71-17.66,0-8.18,4-15.07,8.33-21.71.78-1.21,2.06-1,3.23-.79,11.65,2.36,21.91-1.32,31.64-7.27,6.7-4.09,13.13-8.74,20.59-11.34,6.73-2.36,13.61-4.47,20.9-4.28a8.7,8.7,0,0,1,2.61.34c5.85,2,6.57,3.11,4.56,8.68-3.29,9.11-9.91,15.77-16.67,22.2-8.88,8.44-18.16,16.53-28.72,22.82-6.13,3.65-12.29,7.37-19.7,10.38C106.66,245.67,100.3,244.33,94.36,240.84Z"/><path class="cls-5" d="M185.93,220.09c-6.56-5.34-13.74-6.46-21.65-3.65-15.51,5.52-24.9,16.13-27.18,32.64a4.17,4.17,0,0,1-1.72,2.89,30.59,30.59,0,0,0-4.11,4c1.19,0,2.37-.08,3.55-.14a19.45,19.45,0,0,1,1.8-1.46l.18,1.33q1.19-.08,2.37-.18a36,36,0,0,1,16.38-32.34c5.52-3.49,11.44-6,18.25-5.87a13.06,13.06,0,0,1,5.64,1.49,31.64,31.64,0,0,1,11.87,10.12c-1.9.42-2.83-.76-3.9-1.43-8-5-15.74-3.22-23.15,1.08-9.72,5.65-13.93,14.65-13.32,25.39.81-.15,1.61-.3,2.41-.47a28.31,28.31,0,0,1,3-13.12c3-6.1,8.57-9,12.46-11.23,6.15-2.87,10.58-2.73,15.14-.83a22.43,22.43,0,0,1,10.86,8.87c.82-.5,1.63-1,2.44-1.54A37.77,37.77,0,0,0,185.93,220.09Z"/><path class="cls-6" d="M93.13,245.56c-8.62-4.21-13.94-16.19-11.85-26.7a48.58,48.58,0,0,1,7.57-17.94,108.12,108.12,0,0,1-17-6.23C59.19,189,50.08,179.26,44,165.07a75.88,75.88,0,0,1-5.71-38.21,7.06,7.06,0,0,0,0-1.08,2.21,2.21,0,0,0-.37-.09,11.82,11.82,0,0,1-3.23-1.16l-.66-.32C22.49,119,18,111.37,19,98.87c.53-6.81,2.1-15.43,9.56-21.66a33.4,33.4,0,0,1,8.58-5.31c7.47-3.1,15.35-2.51,23.42,1.75.22.12.38.19.49.24s.16-.19.27-.34A62.58,62.58,0,0,1,88.5,52.39q.73-.31,1.5-.6l3.66-1.46A119.8,119.8,0,0,1,109.22,45c9.85-2.43,20.26-2,32.76,1.33l.6.13c.07-.12.17-.31.31-.61,3.12-6.9,7.32-11.37,12.84-13.66a27.1,27.1,0,0,1,13.12-1.6,18.8,18.8,0,0,1,11.57,5c10.32,9.85,13,20,8.29,31.05-1.29,3-1,4.4,1.43,7.06,15.86,17.28,21.62,38.88,17.1,64.2a113.57,113.57,0,0,1-4.19,16.1c1-.3,2.12-.57,3.22-.78,11.28-2.07,20.49,2.74,25.25,13.19a37.68,37.68,0,0,1,3.18,19.49,47.34,47.34,0,0,1,5.82-5.92,25.56,25.56,0,0,1,6.15-3.9A128,128,0,1,0,95,251.69c-.2-1.35-.37-2.71-.5-4.11C94.38,246.35,94.2,246.08,93.13,245.56Z"/><path class="cls-7" d="M127.38,191.5c8.25-5,16.23-10.53,25.74-13.12a110.5,110.5,0,0,1,14.87-3,24.31,24.31,0,0,0-2-3.48c-1.78-2.13-1.59-4.19-.45-6.55,2.81-5.88,7.1-8.29,14.44-8.1a4.55,4.55,0,0,1,4.3,2.42c1.59,2.72,3.52,5.24,5.11,8,1,1.73,1.72,1.55,2.65.07a16.85,16.85,0,0,0,1.12-1.72c5.81-12.76,10-25.95,10.76-40.06.88-17.12-3.58-32.56-14.56-46-10.17-12.43-23.19-20.67-38.15-26-12-4.25-24.2-7.31-37.1-5.2-9,1.48-17.39,5-25.69,8.75A53.57,53.57,0,0,0,65.52,76.11c-2.58,3.72-5.13,7.48-7.78,11.15-13,17.93-17.59,37.92-14.27,59.65a60.2,60.2,0,0,0,14.61,31.78,50.28,50.28,0,0,0,19.07,13.08A109.86,109.86,0,0,0,98.08,198C108.79,200.08,118.3,197,127.38,191.5ZM169.15,87.67c9.6-3.9,19.53.23,23.42,9.76,3.83,9.34-.54,19.38-10.14,23.33A17.65,17.65,0,0,1,159,110.94C155.12,101.58,159.5,91.59,169.15,87.67Zm-24.09,60.39a33,33,0,0,0,5.52.28c7.87-.22,15.25-3.87,19.24-12.1,2.35-5.28,3.42-5.92,5.16-1.85a49.88,49.88,0,0,1,1.77,5.13c3.59,10.71-1.71,21.43-12.06,20.1-11.87-1.18-22.08-11.31-25-12.52-.4-.23-.67-.37-.81-.43s-.13-.06,0,0A30.77,30.77,0,0,0,145.06,148.06Zm-56-1.59c-5.25-12.69.81-26.63,14-32.11,13.37-5.56,27.67-.09,32.93,12.61s-1,26.81-14.26,32.29S94.25,159.08,89,146.47Z"/><path d="M112.42,242.21c7.41-3,13.57-6.73,19.7-10.38,10.56-6.29,19.84-14.38,28.72-22.82,6.76-6.43,13.38-13.09,16.67-22.2,2-5.57,1.29-6.72-4.56-8.68a8.7,8.7,0,0,0-2.61-.34c-7.29-.19-14.17,1.92-20.9,4.28-7.46,2.6-13.89,7.25-20.59,11.34-9.73,6-20,9.63-31.64,7.27-1.17-.23-2.45-.42-3.23.79-4.35,6.64-8.35,13.53-8.33,21.71,0,7.14,2.09,13.78,8.71,17.66C100.3,244.33,106.66,245.67,112.42,242.21Z"/><path d="M136.62,254.36a19.45,19.45,0,0,0-1.8,1.46l2-.13Z"/><path d="M164.26,228.56c7.41-4.3,15.17-6.08,23.15-1.08,1.07.67,2,1.85,3.9,1.43a31.64,31.64,0,0,0-11.87-10.12,13.06,13.06,0,0,0-5.64-1.49c-6.81-.17-12.73,2.38-18.25,5.87a36,36,0,0,0-16.38,32.34q6-.51,11.77-1.56C150.33,243.21,154.54,234.21,164.26,228.56Z"/><path class="cls-7" d="M177.86,192.1c-2.13,3.15-3.63,6.26-6,8.81-14.53,15.64-30.58,29.28-49.69,39.18-7.33,3.79-14.28,8.2-23.07,5.33a49.05,49.05,0,0,0,.7,7.46A128.41,128.41,0,0,0,128,256c1.09,0,2.18,0,3.27,0a30.59,30.59,0,0,1,4.11-4,4.17,4.17,0,0,0,1.72-2.89c2.28-16.51,11.67-27.12,27.18-32.64,7.91-2.81,15.09-1.69,21.65,3.65a37.77,37.77,0,0,1,11.36,15.54q2.31-1.47,4.53-3.06-6.91-11.62-13.77-23.3C184.7,203.62,181.35,198,177.86,192.1Z"/><path class="cls-7" d="M184,228.3c-4.56-1.9-9-2-15.14.83-3.89,2.21-9.47,5.13-12.46,11.23a28.31,28.31,0,0,0-3,13.12,127.2,127.2,0,0,0,41.5-16.31A22.43,22.43,0,0,0,184,228.3Z"/><path d="M196.62,163.81c-1.09,2.37-1.69,5.08-4,6.78-.71.53-.55,1.26,0,2.06,2.4,3.45,4.48,7.1,7.31,10.29,2.19,2.47,4,5.38,4.19,8.91a47.21,47.21,0,0,0,3,13.73c2.2,5.92,6.87,6.13,11.05,2.7a33.36,33.36,0,0,0,9.41-38.47,17.08,17.08,0,0,0-20.27-12C203.26,158.64,198.76,159.11,196.62,163.81Z"/><path d="M59,81.08c.52-.85,2.12-1.76.2-2.8-6.38-3.46-13-5-20-2.06a26,26,0,0,0-14,34c2.43,5.87,7.7,8.05,12.82,10.59,2.55,1.27,3.26.52,3.71-2.06,1.36-7.88,3.58-15.52,7.72-22.45C52.58,91.18,55.87,86.17,59,81.08Z"/><path d="M241.25,185.62c-6.24,6-9.91,13.51-12.62,21.49a128.34,128.34,0,0,0,14.57-23.26Q242.21,184.71,241.25,185.62Z"/><path d="M149.36,51.09a84.45,84.45,0,0,1,23.82,11.35c3.14,2.15,6.22,4.39,9.19,6.81,4.77-8.49,4.79-14.42.3-23.47C179.24,38.86,173.46,35,166,35c-8.24.06-15,3.65-18.57,11.77C146.32,49.34,146.73,50.31,149.36,51.09Z"/><path class="cls-8" d="M227.81,202.76l-1-.41h0a42.44,42.44,0,0,1-7.59,8.19c-.64.5-1.29,1-.66,1.91.78,1.16,1.55,2.33,2.38,3.58,1.29-1.37,2.56-2.76,3.79-4.18q.14-.51.3-1C225.9,208.13,226.87,205.45,227.81,202.76Z"/><path class="cls-9" d="M229.27,197.49l-2.48,4.86,1,.41a18,18,0,0,0,2.18-5Z"/><path class="cls-10" d="M121.67,159.26c13.29-5.48,19.52-19.59,14.26-32.29S116.37,108.8,103,114.36c-13.16,5.48-19.22,19.42-14,32.11S108.52,164.68,121.67,159.26ZM106.2,137.1c2.08-4.58,7.73-7.2,13-6,4.63,1,8.93,6.33,8.64,11.11-.07,1.22.63,2.77-.71,3.82-2.74,4.53-6.12,7.95-12,6.95C106,150.39,102.77,144.63,106.2,137.1Z"/><path class="cls-10" d="M182.43,120.76c9.6-4,14-14,10.14-23.33-3.89-9.53-13.82-13.66-23.42-9.76s-14,13.91-10.19,23.27A17.65,17.65,0,0,0,182.43,120.76ZM177.51,112c2.3-1.34,5.11-2.67,7.41.4-2.29,3.84-5.61,5.6-10.08,5.07C173,114.38,175.73,113.06,177.51,112Z"/><path class="cls-11" d="M164.69,159.62c10.35,1.33,15.65-9.39,12.06-20.1a49.88,49.88,0,0,0-1.77-5.13c-1.74-4.07-2.81-3.43-5.16,1.85-4,8.23-11.37,11.88-19.24,12.1a33,33,0,0,1-5.52-.28,30.77,30.77,0,0,1-6.17-1.39c.14.06.41.2.81.43C142.61,148.31,152.82,158.44,164.69,159.62Z"/><path class="cls-11" d="M138.89,146.67c-.13-.06-.14,0,0,0Z"/><path class="cls-12" d="M123,143.49c1.81-.14,4-.43,4.14,2.51,1.34-1.05.64-2.6.71-3.82.29-4.78-4-10.09-8.64-11.11-5.3-1.17-11,1.45-13,6-3.43,7.53-.19,13.29,8.91,15.85C115.3,147.12,117.93,143.87,123,143.49Z"/><path class="cls-13" d="M116.16,151.28a2.78,2.78,0,0,1-1,1.67c5.93,1,9.31-2.42,12-6.95C121.61,143.62,118,145.37,116.16,151.28Z"/><path class="cls-13" d="M123,143.49c-5.09.38-7.72,3.63-7.91,9.46a2.78,2.78,0,0,0,1-1.67c1.8-5.91,5.45-7.66,11-5.28C127.06,143.06,124.83,143.35,123,143.49Z"/><path class="cls-14" d="M184.92,112.42c-2.3-3.07-5.11-1.74-7.41-.4-1.78,1-4.49,2.36-2.67,5.47C179.31,118,182.63,116.26,184.92,112.42Z"/><path class="cls-15" d="M213.93,212.67c-4.34.21-7.29-1.91-8.84-6a45.18,45.18,0,0,1-2.87-11.44,20.68,20.68,0,0,0-3.86-10.05c-5.38-7.66-10.62-15.41-15.28-23.53a3.94,3.94,0,0,0-3.62-2.13,16.15,16.15,0,0,0-6.37,1.1c-3.58,1.48-7.06,6.23-5.83,8.63,1.53,3,2.54,6.4,7.05,7,4.93.64,7.7,4.36,6.18,8.24-1.67,4.25-.43,7.35,1.85,10.59.68,1,1.24,2,1.84,3,6.49,11,13,22.07,19.45,33.15a129.45,129.45,0,0,0,15.83-13.73c-.81-1.09-1.77-2.19-2.42-3.28A3,3,0,0,0,213.93,212.67Z"/></g></g></svg>