<svg id="svg" version="1.1" xmlns="http://www.w3.org/2000/svg" xmlns:xlink="http://www.w3.org/1999/xlink" width="400" height="400" viewBox="0, 0, 400,400"><g id="svgg"><path id="path0" d="M214.600 62.062 C 206.087 63.136,196.998 64.725,194.438 65.587 C 193.111 66.034,191.758 66.400,191.432 66.400 C 190.350 66.400,179.137 70.118,174.800 71.914 C 172.838 72.727,163.369 77.383,162.400 78.011 C 162.070 78.225,161.350 78.582,160.800 78.804 C 159.785 79.214,151.665 84.254,150.200 85.383 C 148.600 86.617,144.792 89.437,142.617 91.000 C 138.754 93.775,126.636 105.394,124.000 108.850 C 123.450 109.571,122.335 110.934,121.522 111.879 C 120.710 112.824,119.415 114.542,118.644 115.698 C 117.874 116.854,116.346 118.857,115.250 120.150 C 114.153 121.442,113.028 123.062,112.749 123.750 C 112.470 124.437,111.513 126.051,110.621 127.336 C 109.729 128.620,108.894 129.880,108.765 130.136 C 108.635 130.391,108.247 131.140,107.902 131.800 C 106.398 134.678,103.265 141.216,101.288 145.600 C 99.840 148.813,98.897 151.335,97.850 154.800 C 97.285 156.670,96.361 159.640,95.798 161.400 C 95.234 163.160,94.519 165.807,94.210 167.283 C 93.900 168.758,93.465 170.305,93.243 170.719 C 93.022 171.133,92.641 173.428,92.398 175.819 C 92.155 178.210,91.742 181.074,91.480 182.183 C 89.878 188.965,91.185 218.523,93.214 221.400 C 93.369 221.620,93.714 222.520,93.981 223.400 C 95.213 227.461,100.090 236.773,102.780 240.200 C 103.817 241.520,105.219 243.419,105.896 244.420 C 106.900 245.903,110.448 249.585,114.355 253.200 C 116.342 255.038,119.921 257.734,122.104 259.037 C 123.477 259.856,124.870 260.742,125.200 261.005 C 133.149 267.342,160.970 273.292,170.227 270.634 C 171.312 270.322,173.010 269.950,174.000 269.807 C 176.062 269.508,185.065 267.072,188.540 265.872 C 190.587 265.165,192.277 263.602,191.565 263.074 C 190.531 262.306,186.697 260.052,185.544 259.534 C 184.729 259.167,183.758 258.402,183.385 257.834 C 183.013 257.265,182.503 256.800,182.252 256.800 C 180.381 256.800,166.641 241.023,163.964 235.801 C 163.174 234.260,162.156 232.280,161.700 231.400 C 159.828 227.784,157.148 219.811,155.783 213.800 L 154.330 207.400 154.498 198.200 C 154.677 188.433,155.869 180.654,157.902 175.993 C 158.332 175.007,159.180 172.698,159.785 170.862 C 160.391 169.026,161.477 166.478,162.199 165.201 C 162.921 163.924,163.719 162.276,163.973 161.540 C 166.116 155.308,183.373 137.997,189.648 135.783 C 190.599 135.447,191.742 134.839,192.189 134.431 C 193.269 133.442,196.249 131.978,200.400 130.395 C 202.270 129.683,204.340 128.868,205.000 128.584 C 205.660 128.301,207.097 127.937,208.193 127.775 C 209.290 127.613,210.754 127.244,211.446 126.955 C 217.777 124.310,237.263 124.292,244.200 126.925 C 245.080 127.260,246.579 127.623,247.531 127.733 C 248.483 127.842,249.563 128.195,249.931 128.515 C 250.299 128.836,251.320 129.226,252.200 129.382 C 253.080 129.539,254.340 129.907,255.000 130.201 C 255.660 130.496,257.720 131.382,259.577 132.171 C 261.435 132.960,263.325 133.937,263.777 134.342 C 264.230 134.747,265.680 135.679,267.000 136.413 C 275.266 141.008,287.864 153.742,291.315 160.990 C 293.079 164.696,292.888 164.365,295.112 167.544 C 297.399 170.813,295.060 170.600,328.617 170.600 C 363.509 170.600,360.400 171.051,360.400 165.986 C 360.400 161.256,357.111 150.903,353.829 145.303 C 353.065 144.000,352.082 141.644,351.646 140.067 C 351.124 138.184,350.088 136.030,348.625 133.785 C 347.400 131.906,345.931 129.431,345.360 128.285 C 343.991 125.535,341.995 122.419,338.708 117.900 C 337.228 115.865,336.013 113.988,336.008 113.729 C 336.004 113.470,335.577 112.926,335.061 112.519 C 334.544 112.113,333.251 110.705,332.187 109.390 C 330.461 107.258,325.215 101.931,322.137 99.186 C 321.512 98.628,320.550 97.693,320.000 97.108 C 317.715 94.677,315.333 92.493,314.392 91.964 C 313.170 91.277,309.404 88.592,305.327 85.500 C 303.659 84.235,302.140 83.200,301.951 83.200 C 301.638 83.200,299.095 81.638,293.800 78.192 C 292.700 77.476,291.350 76.754,290.800 76.587 C 290.250 76.420,289.141 75.867,288.335 75.359 C 286.856 74.425,277.949 70.800,277.135 70.800 C 276.892 70.800,276.120 70.445,275.417 70.011 C 274.714 69.576,271.903 68.663,269.170 67.981 C 266.436 67.299,262.760 66.236,261.000 65.619 C 256.835 64.158,252.791 63.305,247.600 62.792 C 245.290 62.564,242.680 62.207,241.800 61.998 C 239.819 61.529,218.428 61.579,214.600 62.062 M301.814 227.923 C 298.338 228.101,297.770 228.810,296.182 234.953 C 295.082 239.208,294.167 242.118,293.401 243.800 C 293.101 244.460,292.738 245.450,292.596 246.000 C 292.453 246.550,291.999 247.900,291.586 249.000 C 291.173 250.100,290.362 252.260,289.783 253.800 C 289.204 255.340,288.307 257.255,287.789 258.055 C 287.272 258.855,286.568 260.115,286.224 260.855 C 285.881 261.595,285.060 263.186,284.400 264.392 C 283.740 265.598,283.200 266.785,283.200 267.029 C 283.200 267.606,273.476 282.227,272.047 283.800 C 271.447 284.460,270.450 285.760,269.831 286.689 C 269.213 287.618,267.872 289.160,266.853 290.115 C 265.834 291.070,264.464 292.560,263.809 293.426 C 261.863 295.998,251.658 305.743,250.027 306.586 C 249.405 306.907,248.791 307.447,248.661 307.785 C 248.531 308.123,248.149 308.400,247.813 308.400 C 247.476 308.400,247.200 308.547,247.200 308.726 C 247.200 309.007,243.721 311.597,238.800 314.980 C 238.030 315.509,235.510 317.045,233.200 318.393 C 230.890 319.741,228.730 321.016,228.400 321.227 C 228.070 321.438,227.080 321.972,226.200 322.415 C 225.320 322.858,224.150 323.475,223.600 323.786 C 222.171 324.594,217.312 326.798,216.925 326.813 C 216.746 326.819,215.700 327.268,214.600 327.809 C 213.500 328.350,212.393 328.794,212.140 328.796 C 210.634 328.808,203.200 332.818,203.200 333.619 C 203.200 336.337,241.146 336.778,252.200 334.189 C 264.118 331.397,269.055 330.035,272.600 328.561 C 273.260 328.286,274.340 327.935,275.000 327.780 C 275.660 327.625,277.190 326.982,278.400 326.351 C 279.610 325.721,282.093 324.684,283.918 324.048 C 285.744 323.411,287.544 322.613,287.918 322.274 C 288.293 321.935,289.950 321.158,291.600 320.548 C 293.250 319.938,295.050 319.007,295.600 318.480 C 296.150 317.952,297.230 317.251,298.000 316.922 C 298.770 316.593,299.760 316.000,300.200 315.604 C 300.640 315.208,301.630 314.544,302.400 314.129 C 304.731 312.871,306.944 311.361,308.000 310.308 C 308.550 309.760,309.598 309.005,310.328 308.631 C 312.536 307.500,317.132 303.620,320.972 299.646 C 322.967 297.581,326.907 293.622,329.727 290.848 C 332.859 287.766,335.336 284.948,336.095 283.602 C 336.778 282.391,337.858 280.770,338.496 280.000 C 339.638 278.620,340.669 277.159,344.175 271.954 C 345.910 269.379,348.400 264.807,348.400 264.198 C 348.400 264.032,349.000 263.060,349.734 262.039 C 350.467 261.018,351.202 259.647,351.366 258.993 C 351.642 257.892,353.648 253.318,355.015 250.668 C 355.337 250.045,355.600 249.364,355.600 249.155 C 355.600 248.946,356.482 246.486,357.560 243.687 C 359.475 238.718,361.228 230.493,360.678 229.060 C 360.560 228.752,359.785 228.374,358.956 228.218 C 357.485 227.942,306.560 227.679,301.814 227.923 " stroke="none" fill="#f6faf8" fill-rule="evenodd"></path><path id="path1" d="M151.839 60.888 C 148.781 61.068,143.651 61.681,140.439 62.250 C 137.228 62.819,133.250 63.517,131.600 63.801 C 128.169 64.392,120.590 66.568,115.600 68.394 C 113.730 69.078,111.186 69.999,109.947 70.440 C 106.262 71.751,95.781 77.034,91.557 79.709 C 79.881 87.104,74.975 90.573,71.600 93.821 C 70.610 94.774,68.067 97.139,65.950 99.077 C 56.774 107.474,46.130 121.265,40.384 132.200 C 35.950 140.638,33.236 146.352,32.579 148.632 C 32.204 149.934,31.401 151.990,30.795 153.200 C 29.504 155.779,29.007 157.551,26.641 168.000 C 22.650 185.635,22.061 204.924,25.001 221.800 C 25.346 223.780,25.822 226.570,26.060 228.000 C 26.298 229.430,26.807 231.410,27.193 232.400 C 27.578 233.390,28.023 235.100,28.182 236.200 C 28.452 238.069,29.061 239.898,32.643 249.600 C 34.784 255.399,39.300 264.665,42.197 269.200 C 43.111 270.630,44.652 273.060,45.622 274.600 C 47.375 277.381,52.499 284.370,55.594 288.200 C 62.335 296.542,75.834 308.525,84.925 314.237 C 86.643 315.317,89.164 316.933,90.527 317.828 C 93.749 319.946,109.787 327.848,111.600 328.211 C 112.370 328.366,115.384 329.371,118.297 330.445 C 136.991 337.335,167.280 339.654,185.600 335.597 C 187.470 335.183,190.025 334.662,191.279 334.439 C 192.532 334.217,194.422 333.599,195.479 333.066 C 196.535 332.533,199.650 331.430,202.400 330.615 C 205.150 329.801,207.940 328.882,208.600 328.575 C 209.260 328.267,212.590 326.833,216.000 325.388 C 225.186 321.496,233.146 317.122,239.600 312.421 C 240.810 311.540,242.880 310.062,244.200 309.136 C 250.129 304.976,260.573 295.230,265.821 288.957 C 269.492 284.571,273.338 279.568,274.399 277.800 C 275.268 276.352,278.294 272.091,278.802 271.600 C 278.916 271.490,280.246 268.970,281.758 266.000 C 283.269 263.030,284.722 260.330,284.987 260.000 C 285.252 259.670,285.697 258.821,285.977 258.113 C 286.257 257.406,286.737 256.619,287.043 256.364 C 287.349 256.110,287.600 255.599,287.600 255.229 C 287.600 254.646,289.365 249.949,290.993 246.200 C 291.793 244.356,292.785 241.288,293.579 238.200 C 293.975 236.660,294.682 234.166,295.149 232.658 C 296.121 229.526,296.235 227.493,295.476 226.863 C 294.675 226.198,231.346 226.168,229.890 226.832 C 229.131 227.177,228.332 228.289,227.207 230.562 C 224.981 235.059,222.120 240.009,221.059 241.200 C 220.569 241.750,219.296 243.370,218.229 244.800 C 213.511 251.127,206.497 257.093,198.800 261.328 C 197.590 261.993,196.212 262.912,195.738 263.369 C 193.243 265.776,185.689 269.115,180.200 270.236 C 178.660 270.551,176.140 271.101,174.600 271.459 C 168.418 272.896,152.814 272.537,145.400 270.789 C 136.715 268.741,127.923 264.871,120.455 259.809 C 118.175 258.264,115.872 256.710,115.338 256.355 C 114.503 255.801,107.859 249.117,105.372 246.328 C 103.287 243.991,99.293 238.369,98.317 236.400 C 98.045 235.850,97.316 234.560,96.697 233.533 C 95.293 231.204,92.096 223.517,91.740 221.617 C 91.594 220.838,91.238 219.634,90.950 218.943 C 88.312 212.623,88.084 193.400,90.477 179.000 C 90.915 176.360,91.452 172.850,91.669 171.200 C 92.034 168.421,92.491 166.642,94.187 161.400 C 94.542 160.300,95.190 157.975,95.626 156.234 C 96.063 154.493,97.204 151.253,98.163 149.034 C 99.122 146.815,100.042 144.550,100.207 144.000 C 100.529 142.924,103.930 136.151,107.235 130.000 C 110.262 124.367,111.433 122.615,117.786 114.200 C 122.283 108.244,124.449 105.798,130.428 99.916 C 136.026 94.411,142.048 89.186,145.200 87.102 C 145.750 86.738,147.703 85.347,149.540 84.010 C 158.520 77.475,175.698 69.085,187.200 65.616 C 196.764 62.731,173.447 59.614,151.839 60.888 M222.800 126.656 C 222.030 126.750,220.050 127.082,218.400 127.393 C 216.750 127.705,214.064 128.155,212.432 128.394 C 206.367 129.282,194.803 134.262,196.421 135.289 C 196.520 135.352,197.146 135.783,197.812 136.248 C 198.479 136.714,199.829 137.498,200.812 137.992 C 204.123 139.655,207.495 142.431,213.963 148.819 C 216.166 150.994,219.831 155.290,220.377 156.335 C 220.646 156.850,221.480 157.951,222.231 158.782 C 222.983 159.613,224.048 161.263,224.599 162.447 C 227.833 169.400,228.910 170.982,230.600 171.268 C 232.713 171.625,291.996 171.738,292.900 171.387 C 295.015 170.564,291.906 163.979,284.880 154.400 C 275.837 142.072,258.367 131.261,242.600 128.234 C 237.117 127.182,225.845 126.283,222.800 126.656 " stroke="none" fill="#575d5a" fill-rule="evenodd"></path><path id="path2" d="M0.000 200.000 L 0.000 400.000 200.000 400.000 L 400.000 400.000 400.000 200.000 L 400.000 0.000 200.000 0.000 L 0.000 0.000 0.000 200.000 M250.600 59.687 C 251.920 60.030,253.900 60.432,255.000 60.581 C 256.100 60.729,258.080 61.180,259.400 61.584 C 263.915 62.963,268.999 64.461,270.600 64.882 C 275.099 66.066,278.608 67.333,282.481 69.170 C 284.836 70.286,287.014 71.200,287.321 71.200 C 287.629 71.200,288.718 71.650,289.740 72.200 C 290.763 72.750,292.375 73.617,293.322 74.127 C 295.507 75.303,299.675 78.037,300.200 78.639 C 300.420 78.891,301.177 79.289,301.882 79.522 C 303.374 80.015,307.559 82.761,309.648 84.617 C 310.444 85.325,312.385 86.657,313.960 87.577 C 317.500 89.644,335.405 107.229,337.830 111.020 C 338.665 112.325,340.125 114.347,341.074 115.512 C 342.023 116.678,342.800 117.788,342.800 117.980 C 342.800 118.171,343.520 119.239,344.400 120.352 C 345.280 121.466,346.000 122.470,346.000 122.585 C 346.000 122.699,346.630 123.618,347.400 124.627 C 348.170 125.636,348.800 126.640,348.800 126.859 C 348.800 127.078,349.498 128.099,350.351 129.128 C 351.632 130.674,354.000 135.540,354.000 136.626 C 354.000 136.785,354.838 138.735,355.862 140.958 C 357.981 145.557,358.656 147.231,360.879 153.400 C 365.011 164.866,365.904 169.559,364.300 171.373 C 362.316 173.617,361.457 173.666,327.088 173.514 C 294.765 173.372,293.600 173.311,293.600 171.767 C 293.600 171.308,293.392 171.195,292.900 171.387 C 291.996 171.738,232.713 171.625,230.600 171.268 C 228.910 170.982,227.833 169.400,224.599 162.447 C 224.048 161.263,222.983 159.613,222.231 158.782 C 221.480 157.951,220.646 156.850,220.377 156.335 C 219.831 155.290,216.166 150.994,213.963 148.819 C 207.473 142.410,204.260 139.767,200.600 137.829 C 199.500 137.247,197.970 136.401,197.200 135.950 L 195.800 135.130 196.951 136.120 C 198.590 137.532,198.034 138.112,195.362 137.778 C 193.620 137.560,192.987 137.650,192.100 138.242 C 191.495 138.646,190.529 139.252,189.954 139.588 C 185.417 142.241,185.480 142.187,178.349 149.523 C 171.378 156.696,167.988 160.782,167.065 163.126 C 166.691 164.075,165.660 166.235,164.774 167.926 C 163.130 171.059,161.905 174.288,161.406 176.800 C 161.253 177.570,160.705 179.394,160.189 180.853 C 159.673 182.312,159.046 185.002,158.796 186.830 C 158.546 188.659,158.088 190.643,157.780 191.239 C 156.951 192.842,156.943 206.780,157.769 209.000 C 158.097 209.880,158.373 211.063,158.382 211.630 C 158.392 212.196,158.822 213.906,159.337 215.430 C 159.853 216.953,160.601 219.550,161.000 221.200 C 161.399 222.850,161.950 224.560,162.224 225.000 C 162.497 225.440,162.841 226.373,162.986 227.072 C 163.132 227.772,163.492 228.545,163.786 228.789 C 164.081 229.033,164.440 229.706,164.585 230.284 C 165.010 231.977,172.403 242.861,174.243 244.502 C 175.169 245.327,178.179 248.207,180.933 250.902 C 187.082 256.918,187.398 257.157,191.946 259.240 C 194.752 260.525,195.671 261.143,195.852 261.864 L 196.088 262.807 198.544 261.465 C 206.411 257.169,213.446 251.213,218.229 244.800 C 219.296 243.370,220.569 241.750,221.059 241.200 C 222.120 240.009,224.981 235.059,227.207 230.562 C 228.332 228.289,229.131 227.177,229.890 226.832 C 231.335 226.173,294.674 226.198,295.469 226.857 C 295.863 227.184,296.083 227.035,296.386 226.236 C 297.080 224.411,297.285 224.400,330.657 224.400 L 362.462 224.400 363.564 225.503 C 365.125 227.063,365.337 229.084,364.373 233.200 C 363.935 235.070,363.329 237.773,363.026 239.207 C 362.723 240.642,362.165 242.532,361.787 243.407 C 360.246 246.970,359.461 248.626,359.085 249.108 C 358.603 249.726,356.804 254.789,356.802 255.535 C 356.798 256.582,353.079 263.823,351.832 265.210 C 351.135 265.985,350.133 267.785,349.604 269.210 C 348.606 271.901,347.141 274.224,344.029 278.047 C 341.817 280.764,338.604 285.151,337.087 287.526 C 336.475 288.484,332.539 292.718,328.339 296.934 C 324.140 301.150,320.286 305.143,319.776 305.807 C 319.265 306.471,317.816 307.641,316.555 308.407 C 315.295 309.173,313.529 310.461,312.632 311.269 C 308.578 314.920,306.254 316.778,304.995 317.376 C 304.246 317.731,303.538 318.177,303.421 318.366 C 303.304 318.556,302.725 318.832,302.135 318.980 C 301.546 319.128,300.620 319.598,300.078 320.025 C 299.536 320.451,298.778 320.800,298.395 320.800 C 298.012 320.800,297.460 321.086,297.170 321.436 C 296.473 322.276,289.622 325.521,284.600 327.391 C 279.783 329.185,277.558 330.198,275.294 331.629 C 274.105 332.382,272.773 332.795,270.894 332.995 C 269.412 333.152,267.480 333.524,266.600 333.820 C 265.720 334.115,264.100 334.553,263.000 334.793 C 261.900 335.032,260.460 335.473,259.800 335.774 C 258.550 336.342,253.979 337.090,244.800 338.226 C 235.647 339.359,212.219 338.850,207.200 337.409 C 206.870 337.314,204.127 337.045,201.105 336.810 C 198.083 336.576,195.128 336.201,194.538 335.976 L 193.466 335.569 194.330 334.964 C 195.929 333.844,196.308 332.620,194.817 333.391 C 194.137 333.743,192.550 334.214,191.290 334.437 C 190.031 334.661,187.470 335.183,185.600 335.597 C 167.280 339.654,136.991 337.335,118.297 330.445 C 115.384 329.371,112.370 328.366,111.600 328.211 C 109.787 327.848,93.749 319.946,90.527 317.828 C 89.164 316.933,86.643 315.317,84.925 314.237 C 75.834 308.525,62.335 296.542,55.594 288.200 C 52.499 284.370,47.375 277.381,45.622 274.600 C 44.652 273.060,43.111 270.630,42.197 269.200 C 39.300 264.665,34.784 255.399,32.643 249.600 C 29.061 239.898,28.452 238.069,28.182 236.200 C 28.023 235.100,27.578 233.390,27.193 232.400 C 26.807 231.410,26.298 229.430,26.060 228.000 C 25.822 226.570,25.346 223.780,25.001 221.800 C 22.061 204.924,22.650 185.635,26.641 168.000 C 29.007 157.551,29.504 155.779,30.795 153.200 C 31.401 151.990,32.204 149.934,32.579 148.632 C 33.236 146.352,35.950 140.638,40.384 132.200 C 46.130 121.265,56.774 107.474,65.950 99.077 C 68.067 97.139,70.610 94.774,71.600 93.821 C 74.975 90.573,79.881 87.104,91.557 79.709 C 95.781 77.034,106.262 71.751,109.947 70.440 C 111.186 69.999,113.730 69.078,115.600 68.394 C 120.590 66.568,128.169 64.392,131.600 63.801 C 133.250 63.517,137.210 62.833,140.400 62.282 C 155.770 59.625,182.160 60.227,188.477 63.378 C 189.567 63.922,189.810 63.910,191.138 63.242 C 191.942 62.838,194.019 62.195,195.753 61.814 C 197.487 61.434,200.007 60.749,201.353 60.292 C 205.354 58.936,206.529 58.877,227.800 58.972 C 244.772 59.048,248.603 59.168,250.600 59.687 M201.600 140.000 C 201.600 140.220,201.341 140.400,201.024 140.400 C 200.707 140.400,200.336 140.220,200.200 140.000 C 200.064 139.780,200.323 139.600,200.776 139.600 C 201.229 139.600,201.600 139.780,201.600 140.000 M29.076 154.700 C 28.975 155.085,28.893 154.770,28.893 154.000 C 28.893 153.230,28.975 152.915,29.076 153.300 C 29.176 153.685,29.176 154.315,29.076 154.700 M58.600 292.950 C 58.600 292.977,58.817 293.390,59.082 293.866 C 59.466 294.556,59.455 294.822,59.027 295.177 C 58.416 295.684,56.203 293.442,56.631 292.750 C 56.807 292.465,58.600 292.647,58.600 292.950 " stroke="none" fill="#45e38c" fill-rule="evenodd"></path><path id="path3" d="M205.600 59.172 C 204.610 59.332,202.699 59.836,201.353 60.292 C 200.007 60.749,197.487 61.434,195.753 61.814 C 192.288 62.576,189.820 63.649,189.476 64.545 C 189.354 64.864,188.657 65.255,187.927 65.414 C 179.734 67.201,158.510 77.483,149.540 84.010 C 147.703 85.347,145.750 86.738,145.200 87.102 C 142.048 89.186,136.026 94.411,130.428 99.916 C 124.449 105.798,122.283 108.244,117.786 114.200 C 111.433 122.615,110.262 124.367,107.235 130.000 C 103.930 136.151,100.529 142.924,100.207 144.000 C 100.042 144.550,99.122 146.815,98.163 149.034 C 97.204 151.253,96.063 154.493,95.626 156.234 C 95.190 157.975,94.542 160.300,94.187 161.400 C 92.491 166.642,92.034 168.421,91.669 171.200 C 91.452 172.850,90.915 176.360,90.477 179.000 C 88.084 193.400,88.312 212.623,90.950 218.943 C 91.238 219.634,91.594 220.838,91.740 221.617 C 92.096 223.517,95.293 231.204,96.697 233.533 C 97.316 234.560,98.045 235.850,98.317 236.400 C 99.293 238.369,103.287 243.991,105.372 246.328 C 107.859 249.117,114.503 255.801,115.338 256.355 C 115.872 256.710,118.175 258.264,120.455 259.809 C 130.780 266.807,142.504 271.089,154.000 272.061 C 159.596 272.534,171.347 272.271,173.800 271.618 C 174.680 271.384,176.930 270.919,178.800 270.584 C 180.670 270.250,183.100 269.627,184.200 269.200 C 185.300 268.774,187.320 267.992,188.690 267.463 C 192.242 266.091,195.994 263.592,195.990 262.600 C 195.986 261.279,195.537 260.913,191.587 259.011 C 186.771 256.693,186.243 256.292,180.644 250.704 C 178.090 248.154,175.225 245.377,174.279 244.534 C 172.413 242.869,165.015 231.995,164.585 230.284 C 164.440 229.706,164.081 229.033,163.786 228.789 C 163.492 228.545,163.132 227.772,162.986 227.072 C 162.841 226.373,162.497 225.440,162.224 225.000 C 161.950 224.560,161.399 222.850,161.000 221.200 C 160.601 219.550,159.853 216.953,159.337 215.430 C 158.822 213.906,158.392 212.196,158.382 211.630 C 158.373 211.063,158.097 209.880,157.769 209.000 C 156.943 206.780,156.951 192.842,157.780 191.239 C 158.088 190.643,158.546 188.659,158.796 186.830 C 159.046 185.002,159.673 182.312,160.189 180.853 C 160.705 179.394,161.253 177.570,161.406 176.800 C 161.905 174.288,163.130 171.059,164.774 167.926 C 165.660 166.235,166.691 164.075,167.065 163.126 C 167.988 160.782,171.378 156.696,178.349 149.523 C 185.480 142.187,185.417 142.241,189.954 139.588 C 190.529 139.252,191.495 138.646,192.100 138.242 C 192.987 137.650,193.620 137.560,195.362 137.778 C 197.977 138.105,198.615 137.521,197.027 136.254 L 195.951 135.396 197.076 134.363 C 199.658 131.988,207.254 129.153,213.580 128.203 C 215.822 127.866,218.499 127.388,219.528 127.139 C 223.381 126.210,234.902 126.756,242.600 128.234 C 258.367 131.261,275.837 142.072,284.880 154.400 C 290.524 162.095,293.600 167.747,293.600 170.424 C 293.600 173.536,291.669 173.358,327.088 173.514 C 368.032 173.695,366.400 174.069,364.424 164.972 C 363.571 161.044,363.214 159.878,360.879 153.400 C 358.656 147.231,357.981 145.557,355.862 140.958 C 354.838 138.735,354.000 136.785,354.000 136.626 C 354.000 135.540,351.632 130.674,350.351 129.128 C 349.498 128.099,348.800 127.078,348.800 126.859 C 348.800 126.640,348.170 125.636,347.400 124.627 C 346.630 123.618,346.000 122.699,346.000 122.585 C 346.000 122.470,345.280 121.466,344.400 120.352 C 343.520 119.239,342.800 118.171,342.800 117.980 C 342.800 117.788,342.023 116.678,341.074 115.512 C 340.125 114.347,338.665 112.325,337.830 111.020 C 335.405 107.229,317.500 89.644,313.960 87.577 C 312.385 86.657,310.444 85.325,309.648 84.617 C 307.559 82.761,303.374 80.015,301.882 79.522 C 301.177 79.289,300.420 78.891,300.200 78.639 C 299.675 78.037,295.507 75.303,293.322 74.127 C 292.375 73.617,290.763 72.750,289.740 72.200 C 288.718 71.650,287.629 71.200,287.321 71.200 C 287.014 71.200,284.836 70.286,282.481 69.170 C 278.608 67.333,275.099 66.066,270.600 64.882 C 268.999 64.461,263.915 62.963,259.400 61.584 C 258.080 61.180,256.100 60.729,255.000 60.581 C 253.900 60.432,251.920 60.030,250.600 59.687 C 247.990 59.009,209.349 58.566,205.600 59.172 M246.545 60.986 C 249.435 61.506,252.880 62.046,254.200 62.186 C 255.520 62.325,257.410 62.698,258.400 63.014 C 259.390 63.330,261.640 63.961,263.400 64.416 C 272.697 66.819,274.444 67.349,277.200 68.600 C 278.850 69.349,281.460 70.425,283.000 70.991 C 286.244 72.184,293.234 75.713,295.038 77.069 C 295.719 77.581,296.402 78.000,296.557 78.000 C 296.712 78.000,297.809 78.621,298.995 79.379 C 300.181 80.138,301.837 81.131,302.676 81.586 C 303.514 82.042,305.010 83.043,306.000 83.812 C 306.990 84.582,308.790 85.883,310.001 86.705 C 313.720 89.231,315.257 90.445,319.200 93.968 C 326.599 100.580,335.545 110.041,337.800 113.638 C 338.020 113.989,339.010 115.362,340.000 116.690 C 340.990 118.017,342.118 119.620,342.506 120.251 C 342.894 120.883,344.244 122.945,345.506 124.833 C 346.768 126.721,348.330 129.061,348.978 130.033 C 350.619 132.494,352.580 136.537,353.831 140.038 C 354.413 141.667,355.145 143.290,355.457 143.645 C 356.458 144.783,361.806 160.225,362.714 164.600 C 362.943 165.700,363.307 167.279,363.525 168.110 C 364.038 170.071,363.724 171.173,362.519 171.631 C 361.366 172.069,297.222 172.130,296.544 171.694 C 296.292 171.532,295.543 170.320,294.877 169.000 C 291.143 161.594,289.717 159.115,287.669 156.466 C 286.421 154.853,284.877 152.783,284.237 151.866 C 282.045 148.724,271.883 139.774,268.000 137.566 C 267.230 137.128,265.880 136.338,265.000 135.810 C 261.622 133.784,258.072 132.045,254.800 130.814 C 248.293 128.367,247.389 128.073,245.600 127.826 C 244.610 127.689,242.990 127.321,242.000 127.008 C 236.160 125.161,220.864 125.140,214.200 126.969 C 213.100 127.271,211.480 127.639,210.600 127.786 C 208.740 128.099,202.513 129.941,201.614 130.445 C 201.276 130.634,199.978 131.226,198.729 131.760 C 197.480 132.294,195.680 133.443,194.729 134.314 C 193.778 135.186,192.010 136.394,190.800 137.000 C 189.590 137.605,187.880 138.718,187.000 139.473 C 186.120 140.228,183.960 142.046,182.200 143.513 C 178.150 146.891,171.980 153.137,169.865 156.000 C 168.971 157.210,168.014 158.430,167.738 158.711 C 165.785 160.697,159.405 175.785,158.313 181.000 C 158.082 182.100,157.534 184.260,157.094 185.800 C 156.431 188.120,156.263 190.178,156.115 197.800 C 155.926 207.473,155.855 206.787,157.980 215.800 C 159.278 221.306,161.677 227.788,163.976 232.000 C 164.637 233.210,165.621 235.028,166.164 236.039 C 169.783 242.779,179.993 253.454,187.642 258.494 C 193.857 262.589,194.073 262.853,192.377 264.285 C 190.442 265.920,179.162 269.985,176.491 270.010 C 175.891 270.016,173.870 270.371,172.000 270.800 C 162.331 273.017,144.846 270.800,134.200 266.007 C 133.320 265.611,131.792 264.952,130.804 264.543 C 122.488 261.101,110.577 251.749,105.481 244.661 C 104.557 243.374,103.073 241.450,102.185 240.385 C 94.522 231.192,89.963 215.843,90.013 199.400 C 90.042 189.688,91.813 173.285,93.443 167.644 C 96.859 155.816,98.446 150.962,100.521 146.000 C 102.878 140.362,108.161 130.066,110.502 126.546 C 111.546 124.977,112.407 123.537,112.416 123.346 C 112.425 123.156,112.920 122.348,113.516 121.552 C 117.921 115.665,119.718 113.330,122.415 109.992 C 125.505 106.166,136.011 95.528,139.000 93.199 C 151.773 83.246,155.998 80.550,169.000 74.054 C 174.485 71.314,176.123 70.660,184.800 67.746 C 187.770 66.748,190.920 65.586,191.800 65.164 C 193.878 64.168,199.678 62.592,204.080 61.829 C 205.994 61.497,208.040 61.105,208.626 60.958 C 214.875 59.389,237.766 59.406,246.545 60.986 M200.200 140.000 C 200.336 140.220,200.707 140.400,201.024 140.400 C 201.341 140.400,201.600 140.220,201.600 140.000 C 201.600 139.780,201.229 139.600,200.776 139.600 C 200.323 139.600,200.064 139.780,200.200 140.000 M28.893 154.000 C 28.893 154.770,28.975 155.085,29.076 154.700 C 29.176 154.315,29.176 153.685,29.076 153.300 C 28.975 152.915,28.893 153.230,28.893 154.000 M297.694 224.815 C 296.648 225.235,296.000 226.677,296.000 228.584 C 296.000 229.316,295.617 231.150,295.149 232.658 C 294.682 234.166,293.975 236.660,293.579 238.200 C 292.785 241.288,291.793 244.356,290.993 246.200 C 289.365 249.949,287.600 254.646,287.600 255.229 C 287.600 255.599,287.349 256.110,287.043 256.364 C 286.737 256.619,286.257 257.406,285.977 258.113 C 285.697 258.821,285.252 259.670,284.987 260.000 C 284.722 260.330,283.269 263.030,281.758 266.000 C 280.246 268.970,278.916 271.490,278.802 271.600 C 278.294 272.091,275.268 276.352,274.399 277.800 C 273.338 279.568,269.492 284.571,265.821 288.957 C 260.573 295.230,250.129 304.976,244.200 309.136 C 242.880 310.062,240.810 311.540,239.600 312.421 C 233.146 317.122,225.186 321.496,216.000 325.388 C 212.590 326.833,209.260 328.268,208.600 328.577 C 207.940 328.886,205.060 329.827,202.200 330.667 C 197.471 332.057,196.848 332.351,195.319 333.915 L 193.638 335.634 194.624 336.009 C 195.166 336.215,198.083 336.576,201.105 336.810 C 204.127 337.045,206.870 337.314,207.200 337.409 C 212.219 338.850,235.647 339.359,244.800 338.226 C 253.979 337.090,258.550 336.342,259.800 335.774 C 260.460 335.473,261.900 335.032,263.000 334.793 C 264.100 334.553,265.720 334.115,266.600 333.820 C 267.480 333.524,269.412 333.152,270.894 332.995 C 272.773 332.795,274.105 332.382,275.294 331.629 C 277.558 330.198,279.783 329.185,284.600 327.391 C 289.622 325.521,296.473 322.276,297.170 321.436 C 297.460 321.086,298.012 320.800,298.395 320.800 C 298.778 320.800,299.536 320.451,300.078 320.025 C 300.620 319.598,301.546 319.128,302.135 318.980 C 302.725 318.832,303.304 318.556,303.421 318.366 C 303.538 318.177,304.246 317.731,304.995 317.376 C 306.254 316.778,308.578 314.920,312.632 311.269 C 313.529 310.461,315.295 309.173,316.555 308.407 C 317.816 307.641,319.265 306.471,319.776 305.807 C 320.286 305.143,324.140 301.150,328.339 296.934 C 332.539 292.718,336.475 288.484,337.087 287.526 C 338.604 285.151,341.817 280.764,344.029 278.047 C 347.141 274.224,348.606 271.901,349.604 269.210 C 350.133 267.785,351.135 265.985,351.832 265.210 C 353.079 263.823,356.798 256.582,356.802 255.535 C 356.804 254.789,358.603 249.726,359.085 249.108 C 359.461 248.626,360.246 246.970,361.787 243.407 C 362.165 242.532,362.723 240.642,363.026 239.207 C 363.329 237.773,363.935 235.070,364.373 233.200 C 365.337 229.084,365.125 227.063,363.564 225.503 L 362.462 224.400 330.531 224.425 C 312.352 224.440,298.210 224.607,297.694 224.815 M362.985 226.784 C 363.867 227.757,363.886 230.286,363.025 231.951 C 362.681 232.616,362.400 233.548,362.400 234.022 C 362.400 235.479,361.221 239.646,359.916 242.800 C 358.350 246.586,357.386 249.096,356.211 252.450 C 355.700 253.907,354.847 255.887,354.315 256.850 C 353.783 257.812,353.033 259.400,352.647 260.377 C 352.261 261.354,351.568 262.684,351.107 263.331 C 350.645 263.979,349.490 266.059,348.539 267.954 C 347.588 269.849,345.908 272.660,344.806 274.200 C 343.704 275.740,342.148 277.990,341.348 279.200 C 340.549 280.410,339.498 281.850,339.013 282.400 C 338.528 282.950,337.625 284.300,337.008 285.400 C 336.127 286.969,327.317 296.309,320.000 303.432 C 319.000 304.405,314.727 307.685,313.835 308.162 C 313.376 308.409,312.511 309.073,311.913 309.639 C 311.316 310.204,308.706 312.070,306.113 313.784 C 303.521 315.498,300.922 317.231,300.337 317.635 C 299.752 318.039,297.502 319.299,295.337 320.435 C 293.172 321.570,290.854 322.828,290.188 323.228 C 286.938 325.181,270.590 331.385,264.800 332.862 C 262.270 333.508,259.030 334.378,257.600 334.797 C 256.170 335.216,253.380 335.758,251.400 336.001 C 249.420 336.244,246.041 336.724,243.891 337.067 C 232.172 338.938,196.294 336.214,199.003 333.659 C 199.395 333.290,203.930 331.372,208.600 329.601 C 212.345 328.180,218.429 325.620,222.800 323.626 C 225.853 322.233,236.186 316.233,237.426 315.133 C 237.880 314.730,238.407 314.400,238.596 314.400 C 238.969 314.400,245.604 309.516,249.925 306.061 C 261.138 297.095,277.247 277.687,282.698 266.577 C 284.091 263.737,287.168 257.963,287.587 257.400 C 288.124 256.680,291.534 247.821,292.990 243.362 C 294.742 237.996,294.848 237.649,296.406 232.200 C 297.097 229.780,297.923 227.395,298.241 226.900 L 298.818 226.000 330.547 226.000 C 361.550 226.000,362.292 226.018,362.985 226.784 M56.631 292.750 C 56.203 293.442,58.416 295.684,59.027 295.177 C 59.455 294.822,59.466 294.556,59.082 293.866 C 58.817 293.390,58.600 292.977,58.600 292.950 C 58.600 292.647,56.807 292.465,56.631 292.750 " stroke="none" fill="#87d9ad" fill-rule="evenodd"></path><path id="path4" d="M215.345 60.171 C 212.235 60.457,209.211 60.811,208.626 60.958 C 208.040 61.105,205.994 61.497,204.080 61.829 C 199.678 62.592,193.878 64.168,191.800 65.164 C 190.920 65.586,187.770 66.748,184.800 67.746 C 176.123 70.660,174.485 71.314,169.000 74.054 C 155.998 80.550,151.773 83.246,139.000 93.199 C 133.601 97.407,123.402 108.401,116.969 116.948 C 112.970 122.262,112.750 122.575,112.414 123.411 C 112.234 123.856,111.258 125.433,110.244 126.915 C 109.230 128.396,108.400 129.707,108.400 129.827 C 108.400 130.751,111.885 125.881,112.749 123.750 C 113.028 123.062,114.153 121.442,115.250 120.150 C 116.346 118.857,117.874 116.854,118.644 115.698 C 119.415 114.542,120.710 112.824,121.522 111.879 C 122.335 110.934,123.450 109.571,124.000 108.850 C 126.636 105.394,138.754 93.775,142.617 91.000 C 144.792 89.437,148.600 86.617,150.200 85.383 C 151.665 84.254,159.785 79.214,160.800 78.804 C 161.350 78.582,162.070 78.225,162.400 78.011 C 163.369 77.383,172.838 72.727,174.800 71.914 C 179.137 70.118,190.350 66.400,191.432 66.400 C 191.758 66.400,193.111 66.034,194.438 65.587 C 197.151 64.673,206.226 63.112,215.200 62.015 C 219.435 61.497,239.632 61.484,241.800 61.998 C 242.680 62.207,245.290 62.564,247.600 62.792 C 252.791 63.305,256.835 64.158,261.000 65.619 C 262.760 66.236,266.436 67.299,269.170 67.981 C 271.903 68.663,274.714 69.576,275.417 70.011 C 276.120 70.445,276.892 70.800,277.135 70.800 C 277.949 70.800,286.856 74.425,288.335 75.359 C 289.141 75.867,290.250 76.420,290.800 76.587 C 291.350 76.754,292.700 77.476,293.800 78.192 C 299.095 81.638,301.638 83.200,301.951 83.200 C 302.140 83.200,303.659 84.235,305.327 85.500 C 309.404 88.592,313.170 91.277,314.392 91.964 C 315.333 92.493,317.715 94.677,320.000 97.108 C 320.550 97.693,321.512 98.628,322.137 99.186 C 325.215 101.931,330.461 107.258,332.187 109.390 C 333.251 110.705,334.544 112.113,335.061 112.519 C 335.577 112.926,336.004 113.470,336.008 113.729 C 336.013 113.988,337.228 115.865,338.708 117.900 C 341.995 122.419,343.991 125.535,345.360 128.285 C 345.931 129.431,347.400 131.906,348.625 133.785 C 350.088 136.030,351.124 138.184,351.646 140.067 C 352.082 141.644,353.065 144.000,353.829 145.303 C 357.111 150.903,360.400 161.256,360.400 165.986 C 360.400 171.051,363.509 170.600,328.617 170.600 C 295.060 170.600,297.399 170.813,295.112 167.544 C 292.888 164.365,293.079 164.696,291.315 160.990 C 287.864 153.742,275.266 141.008,267.000 136.413 C 265.680 135.679,264.230 134.747,263.777 134.342 C 263.325 133.937,261.435 132.960,259.577 132.171 C 257.720 131.382,255.660 130.496,255.000 130.201 C 254.340 129.907,253.080 129.563,252.200 129.436 C 250.973 129.259,250.844 129.287,251.646 129.554 C 255.652 130.887,260.865 133.329,265.000 135.810 C 265.880 136.338,267.230 137.128,268.000 137.566 C 271.883 139.774,282.045 148.724,284.237 151.866 C 284.877 152.783,286.421 154.853,287.669 156.466 C 289.717 159.115,291.143 161.594,294.877 169.000 C 295.543 170.320,296.292 171.532,296.544 171.694 C 297.222 172.130,361.366 172.069,362.519 171.631 C 363.724 171.173,364.038 170.071,363.525 168.110 C 363.307 167.279,362.943 165.700,362.714 164.600 C 361.806 160.225,356.458 144.783,355.457 143.645 C 355.145 143.290,354.413 141.667,353.831 140.038 C 352.580 136.537,350.619 132.494,348.978 130.033 C 348.330 129.061,346.768 126.721,345.506 124.833 C 344.244 122.945,342.894 120.883,342.506 120.251 C 342.118 119.620,340.990 118.017,340.000 116.690 C 339.010 115.362,338.020 113.989,337.800 113.638 C 335.545 110.041,326.599 100.580,319.200 93.968 C 315.257 90.445,313.720 89.231,310.001 86.705 C 308.790 85.883,306.990 84.582,306.000 83.812 C 305.010 83.043,303.514 82.042,302.676 81.586 C 301.837 81.131,300.181 80.138,298.995 79.379 C 297.809 78.621,296.712 78.000,296.557 78.000 C 296.402 78.000,295.719 77.581,295.038 77.069 C 293.234 75.713,286.244 72.184,283.000 70.991 C 281.460 70.425,278.850 69.349,277.200 68.600 C 274.444 67.349,272.697 66.819,263.400 64.416 C 261.640 63.961,259.390 63.330,258.400 63.014 C 257.410 62.698,255.520 62.325,254.200 62.186 C 252.880 62.046,249.435 61.506,246.545 60.986 C 239.820 59.776,224.111 59.366,215.345 60.171 M217.200 125.590 C 214.890 126.020,212.280 126.634,211.400 126.956 C 210.520 127.277,208.990 127.662,208.000 127.812 C 207.010 127.961,205.660 128.312,205.000 128.591 C 204.340 128.871,202.270 129.683,200.400 130.395 C 196.249 131.978,193.269 133.442,192.189 134.431 C 191.742 134.839,190.599 135.447,189.648 135.783 C 183.373 137.997,166.116 155.308,163.973 161.540 C 163.719 162.276,162.921 163.924,162.199 165.201 C 161.477 166.478,160.391 169.026,159.785 170.862 C 159.180 172.698,158.332 175.007,157.902 175.993 C 155.869 180.654,154.677 188.433,154.498 198.200 L 154.330 207.400 155.783 213.800 C 157.148 219.811,159.828 227.784,161.700 231.400 C 162.156 232.280,163.174 234.260,163.964 235.801 C 166.641 241.023,180.381 256.800,182.252 256.800 C 182.503 256.800,183.013 257.265,183.385 257.834 C 183.758 258.402,184.729 259.167,185.544 259.534 C 186.697 260.052,190.531 262.306,191.565 263.074 C 192.277 263.602,190.587 265.165,188.540 265.872 C 185.065 267.072,176.062 269.508,174.000 269.807 C 173.010 269.950,171.312 270.322,170.227 270.634 C 160.970 273.292,133.149 267.342,125.200 261.005 C 124.870 260.742,123.477 259.856,122.104 259.037 C 119.921 257.734,116.342 255.038,114.355 253.200 C 110.448 249.585,106.900 245.903,105.896 244.420 C 105.219 243.419,103.817 241.520,102.780 240.200 C 100.090 236.773,95.213 227.461,93.981 223.400 C 93.714 222.520,93.369 221.620,93.214 221.400 C 90.990 218.246,89.950 189.884,91.719 180.648 C 92.094 178.694,92.379 176.354,92.354 175.448 C 92.290 173.156,91.421 178.870,90.629 186.800 C 89.105 202.056,90.108 214.256,93.706 224.199 C 95.643 229.552,99.851 237.585,102.185 240.385 C 103.073 241.450,104.557 243.374,105.481 244.661 C 110.577 251.749,122.488 261.101,130.804 264.543 C 131.792 264.952,133.320 265.611,134.200 266.007 C 144.846 270.800,162.331 273.017,172.000 270.800 C 173.870 270.371,175.891 270.016,176.491 270.010 C 179.162 269.985,190.442 265.920,192.377 264.285 C 194.073 262.853,193.857 262.589,187.642 258.494 C 179.993 253.454,169.783 242.779,166.164 236.039 C 165.621 235.028,164.637 233.210,163.976 232.000 C 161.677 227.788,159.278 221.306,157.980 215.800 C 155.855 206.787,155.926 207.473,156.115 197.800 C 156.263 190.178,156.431 188.120,157.094 185.800 C 157.534 184.260,158.082 182.100,158.313 181.000 C 159.405 175.785,165.785 160.697,167.738 158.711 C 168.014 158.430,168.971 157.210,169.865 156.000 C 171.980 153.137,178.150 146.891,182.200 143.513 C 183.960 142.046,186.120 140.228,187.000 139.473 C 187.880 138.718,189.590 137.605,190.800 137.000 C 192.010 136.394,193.778 135.186,194.729 134.314 C 195.680 133.443,197.480 132.294,198.729 131.760 C 199.978 131.226,201.276 130.634,201.614 130.445 C 202.513 129.941,208.740 128.099,210.600 127.786 C 211.480 127.639,213.100 127.271,214.200 126.969 C 220.876 125.136,236.217 125.162,242.000 127.016 C 242.990 127.333,244.700 127.710,245.800 127.853 C 246.900 127.995,248.312 128.370,248.937 128.686 C 250.213 129.329,250.732 129.174,249.825 128.421 C 249.499 128.150,248.459 127.839,247.516 127.730 C 246.572 127.622,245.080 127.260,244.200 126.925 C 239.261 125.051,224.123 124.302,217.200 125.590 M105.217 136.033 C 100.013 146.246,98.265 150.939,93.448 167.628 C 93.094 168.854,92.719 170.744,92.614 171.828 C 92.461 173.420,92.484 173.528,92.735 172.386 C 92.906 171.609,93.179 170.758,93.341 170.495 C 93.504 170.232,93.892 168.798,94.205 167.308 C 94.517 165.819,95.234 163.160,95.798 161.400 C 96.361 159.640,97.285 156.670,97.850 154.800 C 99.223 150.257,100.093 148.097,103.408 141.000 C 105.929 135.604,107.035 133.391,107.752 132.313 C 108.150 131.715,108.403 131.010,108.315 130.746 C 108.227 130.482,106.833 132.861,105.217 136.033 M298.241 226.900 C 297.923 227.395,297.097 229.780,296.406 232.200 C 294.848 237.649,294.742 237.996,292.990 243.362 C 291.534 247.821,288.124 256.680,287.587 257.400 C 287.168 257.963,284.091 263.737,282.698 266.577 C 277.247 277.687,261.138 297.095,249.925 306.061 C 245.604 309.516,238.969 314.400,238.596 314.400 C 238.407 314.400,237.880 314.730,237.426 315.133 C 236.186 316.233,225.853 322.233,222.800 323.626 C 218.429 325.620,212.345 328.180,208.600 329.601 C 203.930 331.372,199.395 333.290,199.003 333.659 C 196.294 336.214,232.172 338.938,243.891 337.067 C 246.041 336.724,249.420 336.244,251.400 336.001 C 253.380 335.758,256.170 335.216,257.600 334.797 C 259.030 334.378,262.270 333.508,264.800 332.862 C 270.590 331.385,286.938 325.181,290.188 323.228 C 290.854 322.828,293.172 321.570,295.337 320.435 C 297.502 319.299,299.752 318.039,300.337 317.635 C 300.922 317.231,303.521 315.498,306.113 313.784 C 308.706 312.070,311.316 310.204,311.913 309.639 C 312.511 309.073,313.376 308.409,313.835 308.162 C 314.727 307.685,319.000 304.405,320.000 303.432 C 327.317 296.309,336.127 286.969,337.008 285.400 C 337.625 284.300,338.528 282.950,339.013 282.400 C 339.498 281.850,340.549 280.410,341.348 279.200 C 342.148 277.990,343.704 275.740,344.806 274.200 C 345.908 272.660,347.588 269.849,348.539 267.954 C 349.490 266.059,350.645 263.979,351.107 263.331 C 351.568 262.684,352.261 261.354,352.647 260.377 C 353.033 259.400,353.783 257.812,354.315 256.850 C 354.847 255.887,355.700 253.907,356.211 252.450 C 357.386 249.096,358.350 246.586,359.916 242.800 C 361.221 239.646,362.400 235.479,362.400 234.022 C 362.400 233.548,362.681 232.616,363.025 231.951 C 363.886 230.286,363.867 227.757,362.985 226.784 C 362.292 226.018,361.550 226.000,330.547 226.000 L 298.818 226.000 298.241 226.900 M358.956 228.218 C 359.785 228.374,360.560 228.752,360.678 229.060 C 361.228 230.493,359.475 238.718,357.560 243.687 C 356.482 246.486,355.600 248.946,355.600 249.155 C 355.600 249.364,355.337 250.045,355.015 250.668 C 353.648 253.318,351.642 257.892,351.366 258.993 C 351.202 259.647,350.467 261.018,349.734 262.039 C 349.000 263.060,348.400 264.032,348.400 264.198 C 348.400 264.807,345.910 269.379,344.175 271.954 C 340.669 277.159,339.638 278.620,338.496 280.000 C 337.858 280.770,336.778 282.391,336.095 283.602 C 335.336 284.948,332.859 287.766,329.727 290.848 C 326.907 293.622,322.967 297.581,320.972 299.646 C 317.132 303.620,312.536 307.500,310.328 308.631 C 309.598 309.005,308.550 309.760,308.000 310.308 C 306.944 311.361,304.731 312.871,302.400 314.129 C 301.630 314.544,300.640 315.208,300.200 315.604 C 299.760 316.000,298.770 316.593,298.000 316.922 C 297.230 317.251,296.150 317.952,295.600 318.480 C 295.050 319.007,293.250 319.938,291.600 320.548 C 289.950 321.158,288.293 321.935,287.918 322.274 C 287.544 322.613,285.744 323.411,283.918 324.048 C 282.093 324.684,279.610 325.721,278.400 326.351 C 277.190 326.982,275.660 327.625,275.000 327.780 C 274.340 327.935,273.260 328.286,272.600 328.561 C 269.055 330.035,264.118 331.397,252.200 334.189 C 241.146 336.778,203.200 336.337,203.200 333.619 C 203.200 332.818,210.634 328.808,212.140 328.796 C 212.393 328.794,213.500 328.350,214.600 327.809 C 215.700 327.268,216.746 326.819,216.925 326.813 C 217.312 326.798,222.171 324.594,223.600 323.786 C 224.150 323.475,225.320 322.858,226.200 322.415 C 227.080 321.972,228.070 321.438,228.400 321.227 C 228.730 321.016,230.890 319.741,233.200 318.393 C 235.510 317.045,238.030 315.509,238.800 314.980 C 243.721 311.597,247.200 309.007,247.200 308.726 C 247.200 308.547,247.476 308.400,247.813 308.400 C 248.149 308.400,248.531 308.123,248.661 307.785 C 248.791 307.447,249.405 306.907,250.027 306.586 C 251.658 305.743,261.863 295.998,263.809 293.426 C 264.464 292.560,265.834 291.070,266.853 290.115 C 267.872 289.160,269.213 287.618,269.831 286.689 C 270.450 285.760,271.447 284.460,272.047 283.800 C 273.476 282.227,283.200 267.606,283.200 267.029 C 283.200 266.785,283.740 265.598,284.400 264.392 C 285.060 263.186,285.881 261.595,286.224 260.855 C 286.568 260.115,287.272 258.855,287.789 258.055 C 288.307 257.255,289.204 255.340,289.783 253.800 C 290.362 252.260,291.173 250.100,291.586 249.000 C 291.999 247.900,292.453 246.550,292.596 246.000 C 292.738 245.450,293.101 244.460,293.401 243.800 C 294.167 242.118,295.082 239.208,296.182 234.953 C 297.770 228.810,298.338 228.101,301.814 227.923 C 306.560 227.679,357.485 227.942,358.956 228.218 " stroke="none" fill="#9cecc4" fill-rule="evenodd"></path></g></svg>