<?xml version="1.0" encoding="UTF-8" standalone="no"?>
<svg
   version="1.0"
   width="256"
   height="256"
   viewBox="0 0 191.99999 191.99999"
   preserveAspectRatio="xMidYMid meet"
   id="svg69"
   sodipodi:docname="icon.svg"
   inkscape:version="1.1.1 (3bf5ae0d25, 2021-09-20)"
   inkscape:export-filename="F:\dev\ASA list\asa-list\BULO-498684064\icon.png"
   inkscape:export-xdpi="96"
   inkscape:export-ydpi="96"
   xmlns:inkscape="http://www.inkscape.org/namespaces/inkscape"
   xmlns:sodipodi="http://sodipodi.sourceforge.net/DTD/sodipodi-0.dtd"
   xmlns="http://www.w3.org/2000/svg"
   xmlns:svg="http://www.w3.org/2000/svg">
  <defs
     id="defs73" />
  <sodipodi:namedview
     id="namedview71"
     pagecolor="#ffffff"
     bordercolor="#666666"
     borderopacity="1.0"
     inkscape:pageshadow="2"
     inkscape:pageopacity="0.0"
     inkscape:pagecheckerboard="0"
     inkscape:document-units="pt"
     showgrid="false"
     inkscape:zoom="27.577164"
     inkscape:cx="133.57066"
     inkscape:cy="89.512466"
     inkscape:window-width="2560"
     inkscape:window-height="1017"
     inkscape:window-x="-8"
     inkscape:window-y="-8"
     inkscape:window-maximized="1"
     inkscape:current-layer="layer3"
     units="px" />
  <metadata
     id="metadata55">
Created by potrace 1.16, written by Peter Selinger 2001-2019
</metadata>
  <g
     inkscape:groupmode="layer"
     id="layer1"
     inkscape:label="corps"
     style="display:inline">
    <path
       style="fill:none;stroke:#000000;stroke-width:0.75px;stroke-linecap:butt;stroke-linejoin:miter;stroke-opacity:1"
       d="m 112.91951,63.313253 c 1.13468,0.289457 2.59028,-0.369478 3.69872,0 0.28017,0.09339 0.59011,0.559322 0.87028,0.652714 0.13761,0.04587 0.31446,-0.08046 0.43514,0 0.13494,0.08995 0.0826,0.345188 0.21757,0.435143 0.12069,0.08046 0.29754,-0.04587 0.43514,0 0.38197,0.127322 0.7059,0.525392 1.08786,0.652714 0.13761,0.04587 0.30541,-0.06487 0.43515,0 0.0398,0.01992 0.22626,0.365515 0.43514,0.435142 0.1376,0.04587 0.30541,-0.06487 0.43514,0 0.0649,0.03243 -0.0513,0.16629 0,0.217572 0.19041,0.190407 0.84504,0.136632 1.08786,0.217571 0.50864,0.169549 0.92745,0.503827 1.523,0.652714 0.65202,0.163005 1.28426,0.0491 1.95814,0.217572 1.55514,0.388785 2.43872,0.652713 4.13385,0.652713 0.46447,0 2.73785,0.09059 2.82843,0 0.0513,-0.05129 -0.0513,-0.166289 0,-0.217571 0.2115,-0.211501 0.93011,-0.337221 1.08786,-0.652714 0.11156,-0.223136 0.42046,-0.933024 0.65271,-1.087857 0.0186,-0.0124 0.77223,-0.239025 0.87029,-0.435142 0.22691,-0.453827 0,-2.596484 0,-3.26357 0,-0.581362 0.0652,-0.848259 0.21757,-1.305428 0.29166,-0.87499 0,-3.276082 0,-4.351426 0,-1.724115 0.34036,-3.888281 -0.43514,-5.439283 -0.15699,-0.313976 -0.67706,-0.599756 -0.87029,-0.870285 -0.3848,-0.538715 -1.51703,-1.940239 -1.74057,-2.610856 -0.12512,-0.375364 -0.30663,-1.918688 -0.43515,-2.175713 -0.0324,-0.06487 -0.18513,0.06487 -0.21756,0 -0.0973,-0.194602 0.0973,-0.458113 0,-0.652715 -0.0917,-0.183471 -0.34341,-0.25167 -0.43515,-0.435142 -0.16082,-0.321639 -0.31548,-1.164029 -0.43514,-1.522999 0.0813,-0.473982 -0.36261,-0.07252 -0.43514,-0.217572 -0.0927,-0.185353 -0.0506,-0.703269 -0.21757,-0.870285 -0.0513,-0.05129 -0.16629,0.05129 -0.21757,0 -0.19567,-0.195668 -0.41283,-0.84797 -0.65272,-1.087856 -0.1849,-0.184901 -0.48936,-0.230955 -0.65271,-0.435143 -0.14327,-0.179085 -0.0904,-0.461892 -0.21758,-0.652714 -0.0402,-0.06035 -0.16629,0.05129 -0.21756,0 -0.24659,-0.246584 -0.29212,-0.689987 -0.65272,-0.870285 -0.0649,-0.03243 -0.16629,0.05129 -0.21757,0 -0.45016,-0.450163 0.68791,0.0176 -0.21757,-0.435143 -0.4116,-0.2058 -0.6732,-0.593847 -1.08785,-0.870285 -0.24873,-0.165821 -0.79008,-0.236623 -1.08786,-0.435143 -0.0725,-0.07252 -0.14505,-0.145048 -0.21757,-0.217571 0,-0.07252 0.0513,-0.166289 0,-0.217571 -0.40147,-0.401467 -1.46584,-1.059275 -1.95815,-1.305429 -0.53586,-0.267933 0.19641,0.631552 -0.65271,-0.217571 -0.0513,-0.05129 0.0604,-0.177342 0,-0.217571 -0.37023,-0.246818 -0.71763,-0.188324 -1.08786,-0.435143 -0.47936,-0.319576 -0.97218,-0.90425 -1.523,-1.087856 -0.1376,-0.04587 -0.30541,0.06487 -0.43514,0 -0.18347,-0.09174 -0.27104,-0.312066 -0.43514,-0.435143 -0.44142,-0.33107 -1.07361,-0.428015 -1.523,-0.652714 -0.46777,-0.233882 -0.85698,-0.601216 -1.30543,-0.870285 -1.06892,-0.641355 -2.6346,-1.249444 -3.69871,-1.740571 -0.92503,-0.426936 -2.07497,-0.764178 -3.046,-1.087856 -0.25211,-0.08404 -0.61717,0.06328 -0.87028,0 -1.33913,-0.334782 -2.5934,-0.974706 -3.91629,-1.305428 -0.59112,-0.147782 -1.39388,-0.02948 -1.95814,-0.217571 -0.0973,-0.03243 -0.14504,-0.145048 -0.21757,-0.217572 -0.21757,-0.07253 -0.43022,-0.161948 -0.65272,-0.217571 -2.332392,-0.5831 0.24431,0.112127 -2.393277,-0.217571 -0.321833,-0.04023 -0.555638,-0.35648 -0.870285,-0.435143 -0.746108,-0.186525 -1.635473,0.126303 -2.393288,0 -2.877082,-0.479513 -5.977057,-0.217572 -8.920425,-0.217572 -2.911635,0 -5.788462,-0.217571 -8.70285,-0.217571 -0.992977,0 -2.739375,-0.319778 -3.698714,0 -1.57745,0.525817 -3.280935,1.314111 -5.00414,2.175713 -0.483282,0.241641 -1.28028,0.204998 -1.740571,0.435143 -0.06487,0.03243 0.0688,0.194638 0,0.217572 -0.441491,0.147163 -1.070663,0.06679 -1.523,0.217571 -0.883122,0.294374 -1.859664,0.628094 -2.828427,0.870285 -0.142214,0.03555 -0.980902,0.328189 -1.087856,0.435143 -0.05129,0.05129 0.0688,0.194637 0,0.217571 -0.441491,0.147164 -1.070663,0.06679 -1.522999,0.217571 -0.194602,0.06487 -0.236139,0.385392 -0.435143,0.435143 -0.211075,0.05277 -0.446308,-0.0688 -0.652714,0 -0.06881,0.02294 0.0688,0.194637 0,0.217572 -0.206406,0.06881 -0.439368,-0.04267 -0.652714,0 -0.631896,0.126378 -1.595726,0.404147 -2.175713,0.652713 -2.850336,1.221573 -5.198744,3.206275 -7.832568,4.786569 -1.21062,0.726372 -3.455408,1.279695 -4.351426,2.175714 -0.379405,0.379404 -0.49088,0.708451 -0.870285,1.087856 -0.265285,0.265285 -0.605001,0.38743 -0.870285,0.652714 -0.312953,0.312953 -0.487082,0.781293 -0.870286,1.087857 -1.278447,1.022757 -2.361854,1.910997 -3.263569,3.263569 -0.160011,0.240017 -0.524199,0.395684 -0.652714,0.652715 -0.71313,1.426259 0.03671,6.162707 -0.435143,8.050138 -0.123872,0.495486 -0.337461,0.476219 -0.652714,0.870285 -0.740504,0.92563 -3.481957,3.265202 -3.916283,4.133855 -0.03243,0.06487 0.05129,0.16629 0,0.217572 -0.05129,0.05129 -0.185139,-0.06487 -0.217572,0 -0.0973,0.194601 0.153846,0.498867 0,0.652713 -0.05129,0.05129 -0.166289,-0.05129 -0.217572,0 -0.390363,0.390365 -1.372853,3.683418 -1.522998,4.133856 -0.09456,0.283678 -0.0517,0.621483 -0.217572,0.870285 -0.113784,0.170677 -0.358959,0.244686 -0.435142,0.435143 -0.0808,0.202009 0.03577,0.438103 0,0.652714 -0.318314,1.909878 -0.08003,-0.332579 -0.435143,1.087856 -0.136515,0.546061 0.136515,1.194509 0,1.740571 -0.250781,1.003124 0.026,2.07175 -0.217572,3.045998 -0.452739,1.81096 0.01502,-0.262632 -0.435142,1.087857 -0.105863,0.317587 0.146535,0.794787 0,1.087856 -0.712483,1.424966 -0.939128,3.183686 -1.740571,4.786571 -0.09956,0.199118 0.147623,0.722663 0,0.870285 -0.05129,0.0513 -0.185137,-0.06488 -0.217571,0 -0.337778,0.675555 0.184074,4.083773 0,5.004135 -0.469159,2.345798 -0.435143,4.760603 -0.435143,7.179855 0,2.174963 -0.269825,4.586108 0,6.744713 0.215816,1.726522 0.458391,3.47281 0.652714,5.22171 0.142397,1.28157 -0.0223,3.36961 0.217572,4.569 0.03181,0.15901 0.190911,0.27518 0.217571,0.43514 0.336669,2.02001 0,4.65597 0,6.74471 0,2.46036 -0.335895,5.91644 0,8.26771 0.106894,0.74826 0.217572,1.39328 0.217572,2.17571 0,1.37796 0,2.75591 0,4.13386 0,0.2528 -0.111012,1.18997 0,1.523 0.368992,1.10698 1.44523,5.36151 1.958141,5.87442 0.11467,0.11467 0.320473,0.1029 0.435143,0.21758 0.102564,0.10256 -0.06487,0.30541 0,0.43514 0.145047,0.29009 0.290095,0.58019 0.435143,0.87029 0.09174,0.18347 0.343406,0.25167 0.435142,0.43514 0.133727,0.26745 0.09978,0.59544 0.217571,0.87028 0.225534,0.52625 0.692257,0.98892 0.870285,1.523 0.287813,0.86344 0.473689,1.16495 0.870286,1.95814 0.16538,0.33076 0.08023,0.74451 0.217571,1.08786 0.194229,0.48557 0.636403,0.83766 0.870285,1.30542 0.473479,0.94696 -0.101852,0.46662 0.652715,1.52301 0.178842,0.25038 0.482037,0.39669 0.652714,0.65271 0.127215,0.19083 0.09958,0.45606 0.217571,0.65271 0.723227,1.20538 1.723595,2.56045 2.828427,3.48114 1.291779,1.07649 2.86051,1.8654 4.351426,2.61086 0.556286,0.27814 1.453063,0.34967 1.958142,0.65272 0.139058,0.0834 0.07677,0.35468 0.217572,0.43514 0.479552,0.27403 0.987165,0.51875 1.522998,0.65271 0.211076,0.0528 0.438104,-0.0358 0.652715,0 0.329823,0.055 1.831159,0.85816 2.175713,1.08786 0.06034,0.0402 -0.06035,0.17734 0,0.21757 0.190823,0.12722 0.461891,0.0904 0.652714,0.21757 2.111212,1.40747 3.300302,4.1461 5.874425,5.00414 0.777648,0.25922 1.653132,0.406 2.393285,0.65271 0.973089,0.32437 2.269159,-0.2486 3.26357,0 2.804134,0.70104 5.586445,1.45069 8.485281,1.74057 1.771879,0.17719 3.654792,0 5.439286,0 3.181342,0 6.615022,0.31758 9.79071,0 0.161362,-0.0161 0.27333,-0.20678 0.435142,-0.21756 0.928208,-0.0619 5.560095,0.32234 6.527138,0 1.304925,-0.43498 3.18426,-0.31975 4.569,-0.43515 0.870345,-0.0725 1.974705,0.21343 2.828427,0 1.77591,-0.44397 3.56716,-0.99341 5.43928,-1.30542 0.42922,-0.0716 0.87466,0.0616 1.30543,0 0.74342,-0.10621 1.61927,-0.30615 2.39329,-0.43514 1.08608,-0.18102 1.9971,-0.82564 3.04599,-1.08787 0.80235,-0.20058 2.07709,-0.27704 2.82843,-0.65271 0.55275,-0.27637 -0.22282,-0.26004 0.65271,-0.43514 0.74772,-0.14954 0.94459,-0.11675 1.74057,-0.43514 1.36326,-0.5453 2.7005,-1.48036 4.13386,-1.95814 0.1376,-0.0459 0.29009,0 0.43514,0 0.2901,-0.0725 0.58926,-0.11539 0.87029,-0.21757 1.4452,-0.52553 2.69519,-1.41865 4.13385,-1.95815 0.88062,-0.33023 0.93291,-0.047 1.74057,-0.65272 0.0581,-0.0435 -0.0649,-0.18513 0,-0.21756 0.26746,-0.13373 0.60283,-0.0838 0.87028,-0.21758 0.43062,-0.2153 0.56284,-0.7804 0.87029,-1.08785 0.22934,-0.22934 0.64095,-0.2058 0.87028,-0.43514 0.56256,-0.56255 1.02549,-1.51237 1.52301,-2.17571 1.01934,-1.35914 2.15997,-2.64178 3.48114,-3.69872 1.01112,-0.8089 3.82694,-2.79269 5.00414,-3.26357 0.13467,-0.0539 0.30541,0.0649 0.43514,0 0.93597,-0.46799 1.46459,-1.55658 2.39328,-2.17571 0.5648,-0.37653 0.91462,-0.71921 1.30543,-1.30543 0.59679,-0.89517 1.81404,-1.30824 2.17572,-2.39328 0.0458,-0.13761 -0.0459,-0.29754 0,-0.43514 0.0324,-0.0973 0.14504,-0.14505 0.21756,-0.21758 0.0725,-0.14505 0.16629,-0.28129 0.21758,-0.43514 0.3466,-1.0398 -0.21647,-2.39884 0,-3.48114 0.20599,-1.02998 0.21757,-1.98417 0.21757,-3.046 0,-0.17036 0.10856,-0.9793 0,-1.08786 -0.0513,-0.0513 -0.16629,0.0513 -0.21757,0 -0.65037,-0.65037 -0.70763,-3.37546 -0.87029,-4.35142 -0.1833,-1.09983 0,-2.3565 0,-3.48114 0,-2.69082 0.2011,-5.50518 -0.43514,-8.05014 -0.17492,-0.69966 -0.0414,-1.47114 -0.21757,-2.17572 -0.20374,-0.81496 0.0494,-1.81003 -0.21757,-2.61085 -0.10701,-0.32102 -0.34391,-0.59657 -0.43514,-0.87029 -0.22503,-0.67507 -0.11275,-1.74848 -0.43514,-2.39328 -0.40197,-0.80391 -0.71292,-1.67349 -1.08786,-2.61086 -0.17377,-0.43438 -0.50463,-0.64358 -0.65272,-1.08785 -0.15045,-0.45134 -0.39221,-1.56738 -0.65271,-1.958147 -0.17068,-0.256013 -0.55542,-0.36081 -0.65272,-0.65271 -0.82842,-2.48526 -2.51766,-4.81776 -3.69871,-7.179855 -0.31191,-0.623813 -1.25761,-1.692758 -1.74057,-2.175713 -0.11467,-0.114675 -0.34519,-0.08264 -0.43514,-0.217575 -0.0805,-0.120682 0.0804,-0.314452 0,-0.435142 -0.0577,-0.0865 -1.81792,-1.647083 -1.95815,-1.74057 -0.32024,-0.213503 -0.99221,-0.339503 -1.30542,-0.65271 -0.0513,-0.0513 0.0649,-0.185138 0,-0.217575 -0.12974,-0.06488 -0.30541,0.06488 -0.43514,0 -0.0649,-0.0324 0.0513,-0.16629 0,-0.217568 -0.0479,-0.04785 -3.71052,-1.889557 -3.91629,-1.958145 -1.32054,-0.440175 -2.77339,-0.85194 -4.13385,-1.305427 -0.68121,-0.22707 -2.16822,0 -2.82843,0 -2.46581,0 -4.93161,0 -7.39743,0 -1.45103,0 -4.11978,-0.329873 -5.43927,0 -0.1056,0.0264 -0.43895,0.43134 -0.65272,0.217567 -0.18131,-0.181305 0.18131,-0.906547 0,-1.087852 -0.33616,-0.336158 -1.51502,-0.427163 -1.95815,-0.870285 -0.0513,-0.0513 0.0513,-0.16629 0,-0.217575 -0.32635,-0.326355 -1.63178,0.326362 -1.95814,0 -0.10256,-0.102563 0,-0.290093 0,-0.435143 0,-0.132772 -0.0848,-0.785505 0,-0.870285 0.0513,-0.0513 0.1663,0.0513 0.21757,0 0.0513,-0.0513 0,-0.145042 0,-0.217567 0.0725,-0.07252 0.13223,-0.16068 0.21758,-0.217575 0.98407,-0.65604 1.5876,-1.011368 2.61085,-1.522995 0.31578,-0.15789 1.57848,-1.360913 1.95815,-1.74057 0.16216,-0.162173 0.0554,-0.490545 0.21756,-0.652718 0.54308,-0.54307 0.76741,-0.664528 1.08787,-1.305427 0.45273,-0.90548 -0.015,0.232592 0.43514,-0.217572 0.19605,-0.196054 0.30542,-0.828429 0.43514,-1.087856 0.17174,-0.343492 0.47137,-1.124092 0.65271,-1.305428 0.0513,-0.05129 0.18514,0.06487 0.21757,0 0.19457,-0.38914 0.0781,-0.886912 0.21757,-1.305428 0.0725,-0.217571 0.0554,-0.490545 0.21758,-0.652713 0.0513,-0.05129 0.19463,0.0688 0.21756,0 0.11703,-0.351055 0.38562,-4.885632 0.21758,-5.221712 -0.16217,-0.324337 -0.43514,-0.58019 -0.65272,-0.870286 z"
       id="path282" />
    <path
       style="fill:#f9f9f9;stroke-width:0.290095"
       d="m 91.133233,218.55829 c -1.252564,-0.2263 -3.56072,-0.73675 -5.129238,-1.13435 -1.837575,-0.4658 -3.658865,-0.72291 -5.120958,-0.72291 -2.661405,0 -5.812697,-0.80865 -7.162051,-1.83785 -0.505975,-0.38593 -1.830868,-1.64298 -2.944204,-2.79344 -2.693101,-2.78292 -5.923231,-4.94185 -7.393854,-4.94185 -0.726682,0 -2.075205,-0.66344 -2.576656,-1.26765 -0.198845,-0.23959 -0.77678,-0.52358 -1.2843,-0.63109 -1.322495,-0.28015 -5.26701,-2.37354 -6.890565,-3.65688 -1.313154,-1.03799 -4.040479,-4.48501 -4.040479,-5.10669 0,-0.15964 -0.213651,-0.46757 -0.474778,-0.68429 -0.261128,-0.21672 -0.71918,-0.9642 -1.017893,-1.66106 -0.298712,-0.69687 -0.803047,-1.59749 -1.120744,-2.00137 -0.317698,-0.40389 -0.577631,-0.98381 -0.577631,-1.28871 0,-0.3049 -0.587443,-1.76192 -1.305428,-3.23782 -0.717986,-1.47591 -1.305428,-2.7874 -1.305428,-2.91443 0,-0.12702 -0.261086,-0.56288 -0.58019,-0.96855 -0.319105,-0.40567 -0.580191,-0.96084 -0.580191,-1.2337 0,-0.27286 -0.261387,-0.73266 -0.580859,-1.02178 -0.319473,-0.28912 -0.986323,-1.77796 -1.481889,-3.30853 -0.821774,-2.53808 -0.928199,-3.31871 -1.209919,-8.87486 -0.169889,-3.35059 -0.328158,-10.59572 -0.351707,-16.10027 -0.04344,-10.15266 -0.290061,-14.81838 -1.142392,-21.61209 -0.416313,-3.31832 -0.431789,-4.7119 -0.128862,-11.6038 0.189351,-4.30791 0.356622,-9.354 0.371714,-11.21352 0.01509,-1.85952 0.125348,-3.48043 0.245012,-3.60201 0.119664,-0.12159 0.217571,-0.4932 0.217571,-0.82581 0,-0.33261 0.503956,-2.10582 1.119902,-3.94046 1.296248,-3.860973 1.695728,-5.803345 1.938963,-9.427709 0.168946,-2.517419 0.499717,-4.292273 1.027208,-5.511807 0.138024,-0.319105 0.650386,-1.8481 1.138583,-3.397768 0.488197,-1.549665 1.002313,-2.888453 1.142481,-2.975082 0.140168,-0.08663 0.538519,-0.743487 0.885225,-1.459686 0.346706,-0.716198 1.434979,-2.028246 2.418384,-2.915658 0.983406,-0.887413 2.212274,-2.146678 2.730819,-2.798368 l 0.942809,-1.18489 0.0032,-4.238078 c 0.0049,-6.543328 -0.353797,-5.758445 5.124493,-11.212273 4.445829,-4.425977 4.884823,-4.781617 6.846182,-5.546257 1.152659,-0.449366 3.858071,-1.981129 6.012027,-3.403917 4.986964,-3.294122 7.165029,-4.403786 9.790178,-4.987826 1.158164,-0.257667 2.178272,-0.585823 2.266905,-0.729235 0.08863,-0.143411 0.51603,-0.260749 0.949768,-0.260749 0.433739,0 1.063541,-0.192563 1.399558,-0.427919 0.765938,-0.536484 4.943174,-1.884173 5.855488,-1.889138 0.374264,-0.002 1.026978,-0.179966 1.450476,-0.395399 0.423498,-0.215433 1.357439,-0.593093 2.075424,-0.839244 0.717986,-0.246151 2.533235,-0.991528 4.033888,-1.656392 l 2.728461,-1.208844 15.446934,0.282284 c 10.22668,0.186886 15.64997,0.39095 16.04775,0.603832 0.33045,0.176852 1.37661,0.386163 2.32479,0.465135 0.94819,0.07897 2.18751,0.337258 2.75404,0.573969 0.56653,0.236712 1.40498,0.430385 1.86323,0.430385 0.45825,0 1.96344,0.391629 3.34487,0.870286 1.38143,0.478656 2.81785,0.870285 3.19205,0.870285 1.2731,0 7.85166,2.635685 9.53268,3.819243 0.43112,0.303542 1.86709,1.091337 3.19104,1.750655 1.32396,0.659318 2.81114,1.503411 3.30486,1.875762 0.49372,0.372351 1.02829,0.677002 1.18794,0.677002 0.15965,0 0.52655,0.261086 0.81534,0.58019 0.28879,0.319105 0.76884,0.580191 1.06678,0.580191 0.29794,0 1.0936,0.505142 1.76813,1.122537 0.67453,0.617396 1.49454,1.205512 1.82225,1.306923 1.14936,0.355679 5.4608,5.109976 6.01788,6.636011 0.10192,0.279217 0.31996,0.507667 0.48452,0.507667 0.16456,0 0.2992,0.208721 0.2992,0.463824 0,0.424892 0.5598,1.892549 1.16492,3.054127 0.13522,0.259575 0.33465,0.97756 0.44317,1.595523 0.24827,1.4137 1.34342,3.342484 2.78722,4.908818 1.45166,1.574871 1.62378,2.649525 1.48452,9.269031 -0.0604,2.871941 -0.10002,6.341795 -0.088,7.710786 0.021,2.392153 -0.007,2.502125 -0.71354,2.824157 -0.40448,0.184291 -0.87081,0.632221 -1.03628,0.995394 -0.76679,1.682906 -3.87631,2.13181 -8.33316,1.203007 -1.2298,-0.256287 -2.88872,-0.56829 -3.68648,-0.693336 -1.96373,-0.307808 -2.8861,-0.662864 -7.08291,-2.726493 l -3.60176,-1.771043 h -2.99779 c -1.64879,0 -2.99784,0.04643 -2.9979,0.10317 -6e-5,0.05675 0.32625,0.491023 0.72513,0.965068 0.81449,0.967963 0.80098,0.886693 0.7288,4.385208 -0.0316,1.532804 -0.21598,2.865536 -0.46147,3.336093 -0.22484,0.43098 -0.40961,1.034407 -0.41059,1.340947 -8.7e-4,0.306541 -0.1761,0.763441 -0.38915,1.015333 -0.21305,0.251893 -0.56464,0.914885 -0.78129,1.473318 -0.21666,0.558433 -0.48343,1.080604 -0.59283,1.16038 -0.38666,0.281973 -2.29985,2.90955 -2.29985,3.15861 0,0.37218 -2.27467,2.17112 -4.08209,3.22835 -2.36489,1.38332 -2.88019,1.95606 -2.88019,3.20123 0,1.28509 0.57697,1.86203 1.60426,1.6042 1.12999,-0.28361 3.56746,0.92475 3.67697,1.82282 l 0.0855,0.7015 10.93738,-0.0591 10.93737,-0.0591 2.6971,0.86857 c 3.32815,1.07179 6.01471,2.28338 8.40864,3.79214 2.30952,1.45555 4.29673,2.98555 4.29673,3.30816 0,0.1364 0.55968,0.81571 1.24375,1.50957 1.20183,1.21906 5.04433,7.74764 6.29456,10.69475 0.33272,0.78431 0.78172,1.56757 0.99778,1.74057 0.21606,0.173 0.55631,0.83671 0.75611,1.47492 0.19981,0.63821 0.66033,1.74783 1.02339,2.46581 1.09596,2.16739 1.82948,4.12669 2.11779,5.65686 0.15031,0.79776 0.40905,1.8421 0.57496,2.32076 0.53036,1.53002 0.96914,7.31017 1.20018,15.81018 0.21313,7.84097 0.52278,10.97319 1.16079,11.74195 0.41506,0.50012 0.20508,9.93186 -0.23082,10.36777 -0.189,0.189 -0.34364,0.54447 -0.34364,0.78993 0,0.61102 -7.23512,7.56033 -7.87127,7.56033 -0.92641,0 -6.73854,4.13883 -8.95425,6.37634 -1.19664,1.20842 -2.74585,3.07476 -3.44269,4.14744 -0.69684,1.07267 -1.44355,1.95031 -1.65936,1.95031 -0.21581,0 -0.68193,0.39163 -1.03581,0.87029 -0.35389,0.47866 -0.79709,0.87028 -0.9849,0.87028 -0.18781,0 -0.67338,0.26109 -1.07906,0.58019 -0.40567,0.31911 -0.92439,0.58019 -1.15269,0.58019 -0.22831,0 -1.73534,0.64563 -3.34896,1.43473 -1.61362,0.78909 -3.42965,1.52178 -4.03562,1.6282 -0.60597,0.10641 -2.40718,0.82147 -4.00271,1.58902 -1.59552,0.76755 -3.42312,1.48737 -4.06133,1.59959 -0.63821,0.11222 -1.35619,0.37189 -1.59552,0.57703 -0.23933,0.20514 -1.15549,0.50493 -2.03591,0.66621 -0.88042,0.16127 -2.30388,0.57036 -3.16326,0.9091 -1.92343,0.75814 -5.16213,1.45739 -6.78622,1.46517 -0.66766,0.003 -2.45409,0.3428 -3.96984,0.75467 -2.08644,0.56694 -3.91866,0.81186 -7.54247,1.0082 -17.12564,0.92792 -34.410448,1.09839 -38.394231,0.37867 z"
       id="path360"
       transform="scale(0.75)" />
    <path
       style="fill:#000000;stroke-width:0.290095"
       d="m 94.425952,218.72238 c -2.303692,-0.13098 -4.789984,-0.48972 -6.817235,-0.98364 -1.755075,-0.4276 -4.667476,-0.90734 -6.472004,-1.06608 -3.712631,-0.32661 -6.464212,-1.07379 -7.484633,-2.03242 -0.38124,-0.35816 -0.693165,-0.57065 -0.693165,-0.4722 0,0.0985 -1.001901,-0.8574 -2.226448,-2.12412 -3.152141,-3.26071 -6.115595,-5.05147 -8.724642,-5.27215 -0.19944,-0.0169 -0.362618,-0.16121 -0.362618,-0.32076 0,-0.15956 -0.07318,-0.21692 -0.162629,-0.12747 -0.08945,0.0894 -0.475141,-0.14988 -0.8571,-0.53184 -0.381958,-0.38196 -0.894058,-0.69447 -1.137999,-0.69447 -0.465955,0 -4.694561,-1.96685 -5.301346,-2.46581 -2.742832,-2.25544 -3.818409,-3.25472 -3.834825,-3.56277 -0.0109,-0.20445 -0.215624,-0.44686 -0.454953,-0.5387 -0.239328,-0.0918 -0.435142,-0.34883 -0.435142,-0.57109 0,-0.22225 -0.130543,-0.4041 -0.290095,-0.4041 -0.159553,0 -0.290095,-0.14967 -0.290095,-0.33259 0,-0.18293 -0.425863,-0.99883 -0.946361,-1.8131 -1.097608,-1.71712 -1.991392,-3.53185 -3.729566,-7.5725 -0.68635,-1.59552 -1.699448,-3.74948 -2.251329,-4.78657 -2.409108,-4.52717 -2.850992,-5.81309 -3.223339,-9.38018 -0.270298,-2.58946 -0.542851,-12.07716 -0.701394,-24.4159 -0.09116,-7.09455 -0.287809,-10.59098 -0.884196,-15.72102 -0.536579,-4.61558 -0.5769,-8.82473 -0.178707,-18.65524 0.404626,-9.98932 0.419533,-10.11574 1.647585,-13.97218 1.46215,-4.591581 1.514551,-4.835498 2.004746,-9.331795 0.334744,-3.070428 0.717111,-4.875553 1.628394,-7.68752 1.58823,-4.900841 2.488849,-6.439435 5.836405,-9.970766 l 2.828427,-2.983703 v -3.976252 c 0,-6.577162 -0.143067,-6.263291 5.329525,-11.692329 2.709265,-2.687704 5.16721,-4.871706 5.839136,-5.188351 2.685766,-1.265666 4.241425,-2.125392 7.397425,-4.088145 1.834851,-1.141114 3.923536,-2.392664 4.641521,-2.781221 0.717986,-0.388557 1.3707,-0.771739 1.450476,-0.851515 0.07978,-0.07978 0.340862,-0.195744 0.58019,-0.257706 0.239329,-0.06196 1.479485,-0.428385 2.755903,-0.814275 1.276419,-0.385889 2.764122,-0.815288 3.306008,-0.954219 0.541886,-0.138932 1.094694,-0.425222 1.228463,-0.6362 0.133766,-0.210979 0.245214,-0.299495 0.247657,-0.196703 0.0023,0.102793 1.179332,-0.190928 2.615312,-0.652713 1.435979,-0.461786 2.804053,-0.83961 3.040167,-0.83961 0.546505,0 6.174126,-2.224956 7.040623,-2.783603 0.358992,-0.23145 0.652714,-0.354633 0.652714,-0.273739 0,0.08089 0.499053,-0.113042 1.109007,-0.430968 1.086705,-0.566423 1.394415,-0.572157 15.302515,-0.285183 7.80643,0.161075 15.30312,0.43306 16.65932,0.604411 1.35619,0.171352 2.80693,0.355284 3.22387,0.408738 2.35866,0.3024 15.10211,3.868876 16.9345,4.739413 0.48044,0.228248 1.46096,0.692224 2.17895,1.031058 0.71799,0.338834 1.34894,0.713968 1.40213,0.833633 0.0532,0.119664 0.19408,0.217571 0.3131,0.217571 0.11902,0 1.23838,0.5824 2.48747,1.294221 1.24908,0.711822 2.38098,1.226289 2.51532,1.14326 0.13434,-0.08303 0.24426,-0.02517 0.24426,0.128562 0,0.250046 1.05884,0.938263 4.33063,2.814801 0.95999,0.550605 1.99036,1.288887 5.16066,3.697741 0.67296,0.511333 1.30002,1.152412 1.39345,1.424621 0.0934,0.272209 0.56455,0.827016 1.04692,1.232904 0.48238,0.405888 0.80081,0.737979 0.70765,0.737979 -0.0932,0 0.28844,0.651375 0.84802,1.4475 0.55959,0.796125 1.01743,1.570777 1.01743,1.721449 0,0.150673 0.31187,1.033175 0.69305,1.961117 0.38117,0.927943 0.84332,2.241992 1.02698,2.920109 0.18367,0.678119 1.005,2.11409 1.82517,3.191047 2.37986,3.124931 2.32308,2.786459 2.28143,13.60146 l -0.0247,6.42164 -1.37795,1.457743 c -2.24732,2.377451 -3.86026,2.537357 -11.08652,1.099118 -3.28687,-0.654185 -5.48638,-1.473939 -10.27445,-3.829261 -1.86301,-0.916445 -2.19055,-0.982413 -4.87765,-0.982413 h -2.88054 l 0.65217,1.16038 c 0.3587,0.638209 0.73426,1.160381 0.83458,1.160381 0.34274,0 -0.13328,5.372819 -0.61684,6.962282 -0.65717,2.160112 -2.99755,6.15037 -4.84921,8.267711 -0.45074,0.51542 -2.36567,2.13038 -2.36567,1.9951 0,-0.30586 -3.49371,2.27291 -3.76429,2.77849 -0.40267,0.7524 -0.37506,2.13968 0.0511,2.56581 0.19147,0.19147 0.87682,0.34861 1.523,0.3492 1.36703,0.001 2.97414,0.87529 3.31784,1.80441 l 0.23729,0.64144 10.84883,-0.0798 10.84882,-0.0798 2.97348,1.01282 c 1.63541,0.55706 2.97547,0.92356 2.97791,0.81445 0.002,-0.10911 0.10035,-0.059 0.21757,0.11142 0.20753,0.30166 3.96273,2.14322 4.32041,2.11873 0.0986,-0.007 0.25915,0.10307 0.35676,0.24405 0.2465,0.356 2.0631,1.60783 2.0631,1.42169 0,-0.2938 1.72019,1.37808 3.37163,3.27695 1.71983,1.9775 4.47245,6.6376 8.15476,13.80572 3.74199,7.28429 4.75617,12.35469 5.16421,25.81847 0.21553,7.11161 0.60342,11.45704 1.09255,12.23959 0.11884,0.19014 0.21732,2.50131 0.21884,5.13595 0.003,5.21684 -0.19355,6.12915 -1.68559,7.82334 -2.00698,2.2789 -5.94608,5.68318 -7.6768,6.63451 -1.92678,1.05909 -4.266,2.6954 -6.67368,4.66831 -1.31629,1.0786 -4.86687,5.16153 -4.86687,5.59657 0,0.43068 -3.55955,3.50159 -4.7531,4.10062 -1.21687,0.61073 -5.80017,2.67724 -7.31784,3.29945 -0.46106,0.18903 -1.12281,0.39178 -1.47055,0.45056 -0.34775,0.0588 -1.58791,0.54114 -2.75591,1.07191 -2.7939,1.26963 -6.35012,2.5645 -10.09057,3.67414 -1.66943,0.49525 -3.16837,0.98269 -3.331,1.0832 -0.16262,0.1005 -0.49378,0.21226 -0.73591,0.24835 -5.49263,0.81871 -8.29718,1.28788 -10.15843,1.6994 -2.34077,0.51754 -9.45669,0.94268 -21.90218,1.30853 -10.41224,0.30609 -13.479155,0.30457 -19.001228,-0.009 z"
       id="path399"
       transform="scale(0.75)" />
    <path
       style="fill:#000000"
       d="m 94.425952,219.96103 c -1.905574,-0.14281 -4.783369,-0.67185 -8.526519,-1.5675 -2.772018,-0.66327 -4.136489,-0.85394 -5.27213,-0.73674 -1.730257,0.17858 -4.783804,-0.49573 -6.653055,-1.46919 -0.638209,-0.33236 -2.397958,-1.85405 -3.910554,-3.38152 -1.512597,-1.52748 -2.851789,-2.77723 -2.975987,-2.77723 -0.124196,0 -0.762266,-0.38861 -1.41793,-0.86357 -0.655664,-0.47496 -1.666239,-0.94174 -2.245725,-1.03728 -1.512961,-0.24945 -2.533736,-0.68186 -3.108262,-1.31671 -0.275592,-0.30452 -0.736593,-0.55368 -1.024447,-0.55368 -0.725399,0 -5.114079,-2.29378 -6.907462,-3.61025 -1.518461,-1.11465 -3.597176,-3.58711 -4.513561,-5.36851 -0.283255,-0.55064 -0.682461,-1.1686 -0.887125,-1.37327 -0.427255,-0.42725 -2.100051,-3.83553 -3.034831,-6.18339 -0.705457,-1.77188 -2.140326,-4.67744 -3.294955,-6.67219 -1.064326,-1.83873 -1.272724,-2.3533 -2.408517,-5.94695 l -1.008548,-3.19104 -0.12553,-14.9399 c -0.129551,-15.41841 -0.314847,-19.64939 -1.152718,-26.32072 -0.398327,-3.17157 -0.456377,-5.28449 -0.311643,-11.34332 0.280695,-11.75048 0.605213,-17.51535 1.029966,-18.29675 0.572673,-1.05352 2.051275,-5.76238 2.051275,-6.532635 0,-0.372047 0.195815,-1.145098 0.435143,-1.717894 0.285426,-0.683119 0.435143,-2.010719 0.435143,-3.858589 0,-2.712897 0.210015,-3.892731 1.02518,-5.759293 0.209039,-0.478657 0.670535,-1.784085 1.025546,-2.900951 1.213001,-3.816105 1.966718,-5.096988 4.608967,-7.832567 4.074272,-4.218186 3.783558,-3.518857 3.784814,-9.104594 9.58e-4,-4.254193 0.06697,-4.928028 0.562398,-5.740534 0.808082,-1.325267 9.244595,-9.576347 10.297994,-10.071645 0.488056,-0.229479 1.652434,-0.753889 2.587506,-1.165355 0.935073,-0.411465 3.380896,-1.862741 5.435164,-3.225056 4.514834,-2.994073 7.167835,-4.30305 9.68329,-4.777682 1.040902,-0.196404 1.892548,-0.466944 1.892548,-0.6012 0,-0.134257 0.489536,-0.332311 1.087857,-0.440121 0.598321,-0.10781 1.229887,-0.307971 1.403477,-0.444803 0.423272,-0.33364 5.853748,-1.996325 6.520172,-1.996325 0.290066,0 0.608071,-0.130542 0.70668,-0.290095 0.09861,-0.159552 0.448063,-0.290095 0.776567,-0.290095 0.328504,0 1.789405,-0.538674 3.246448,-1.197054 5.250579,-2.372526 4.733392,-2.296875 13.614752,-1.991487 4.33983,0.149226 10.10983,0.263619 12.82222,0.254206 6.14632,-0.02133 14.65736,0.795192 15.33318,1.471015 0.16662,0.166617 0.74076,0.30294 1.27587,0.30294 0.53511,0 2.33855,0.4569 4.00765,1.015333 1.6691,0.558433 3.39176,1.016531 3.82814,1.017995 0.95667,0.0032 6.25678,2.132444 8.6467,3.473672 0.94593,0.530857 2.33346,1.273247 3.08341,1.649757 0.74994,0.376509 1.44299,0.813136 1.54011,0.970281 0.0971,0.157146 0.41995,0.285719 0.7174,0.285719 0.29745,0 0.9243,0.322686 1.39301,0.71708 0.46871,0.394394 1.16408,0.853478 1.54526,1.020186 1.50755,0.659321 3.34764,1.814011 4.18801,2.628051 0.48625,0.471017 1.02566,0.856395 1.19867,0.856395 0.89921,0 6.47504,5.943477 6.47504,6.901976 0,0.15858 0.19581,0.363468 0.43514,0.455307 0.23933,0.09184 0.43514,0.374975 0.43514,0.629192 0,0.254216 0.31496,1.139477 0.69991,1.967246 0.38496,0.827769 0.84701,2.235891 1.02679,3.129159 0.2532,1.25809 0.64915,2.009958 1.75688,3.336093 2.63449,3.153923 2.46947,2.307251 2.41577,12.394522 l -0.0476,8.941981 -1.1853,1.094262 c -0.65191,0.601842 -1.18612,1.21222 -1.18713,1.356394 -8.7e-4,0.144175 -0.40322,0.490583 -0.8938,0.7698 -1.1309,0.643665 -5.40195,0.691343 -8.45169,0.09434 -1.16129,-0.22733 -2.76415,-0.537894 -3.56191,-0.690148 -0.79776,-0.15225 -1.90737,-0.44363 -2.46581,-0.647509 -1.52372,-0.556301 -6.45942,-2.952742 -7.00138,-3.399401 -0.3142,-0.258951 -1.07615,-0.361409 -2.2579,-0.303614 l -1.78367,0.08723 -0.10822,3.626188 c -0.077,2.580599 -0.24101,3.87713 -0.56873,4.496474 -0.25328,0.478657 -0.46132,1.148023 -0.4623,1.48748 -8.7e-4,0.339455 -0.19093,0.774163 -0.4221,0.966014 -0.23116,0.191852 -0.57742,0.824914 -0.76947,1.406807 -0.68498,2.075532 -4.47934,6.255632 -6.93288,7.637702 -2.1379,1.20426 -2.61086,1.65886 -2.61086,2.50948 0,0.6581 0.0846,0.70451 1.01002,0.55433 0.55816,-0.0906 1.09158,-0.0319 1.19234,0.1311 0.10027,0.16225 0.76778,0.54596 1.48334,0.85268 0.71556,0.30673 1.36059,0.78546 1.43341,1.06385 0.1226,0.46871 0.92448,0.51016 10.83546,0.56009 l 10.70307,0.0539 2.78807,0.8931 c 5.56815,1.78363 10.1506,4.49486 13.15371,7.78246 2.23217,2.44361 5.90107,8.39825 7.3234,11.88587 0.34161,0.83765 0.72711,1.523 0.85667,1.523 0.12956,0 0.49441,0.68535 0.81079,1.523 0.31637,0.83765 1.1151,2.69151 1.77496,4.11968 0.65985,1.42817 1.27699,3.1905 1.37143,3.91628 0.0944,0.72579 0.30974,1.58069 0.47848,1.8998 0.16873,0.3191 0.46318,2.1467 0.65433,4.06133 0.19116,1.91463 0.50835,4.58514 0.70488,5.93448 0.22503,1.54502 0.30454,4.17643 0.21477,7.10733 -0.16034,5.23504 0.3345,10.352 1.08085,11.17672 0.6786,0.74984 0.30326,10.08388 -0.47262,11.75326 -0.70617,1.51939 -7.40552,7.94887 -8.77203,8.41865 -3.18812,1.09602 -9.31213,6.32712 -11.79296,10.07347 -0.71265,1.07618 -1.40387,1.95734 -1.53604,1.95814 -0.13218,8.7e-4 -0.7573,0.52361 -1.38916,1.16182 -0.63186,0.63821 -1.32363,1.16038 -1.53726,1.16038 -0.21362,0 -0.53959,0.18216 -0.72436,0.4048 -0.18477,0.22264 -0.75556,0.48389 -1.26842,0.58056 -0.51286,0.0967 -1.95829,0.70409 -3.21205,1.34981 -1.25377,0.64572 -3.08137,1.37907 -4.06133,1.62966 -0.97997,0.25059 -2.89137,1.01111 -4.24757,1.69005 -1.35619,0.67894 -2.92079,1.33324 -3.47688,1.45401 -0.5561,0.12077 -1.27408,0.38529 -1.59553,0.58784 -0.32144,0.20253 -1.30243,0.51478 -2.17997,0.69388 -0.87753,0.17909 -2.73499,0.71734 -4.12769,1.1961 -1.53548,0.52785 -3.5908,0.97182 -5.22171,1.12794 -1.47925,0.1416 -4.27733,0.65973 -6.21796,1.15141 -2.50583,0.63487 -3.89305,0.84576 -4.78657,0.72769 -0.69198,-0.0914 -2.75939,0.002 -4.59424,0.20721 -1.83485,0.20541 -5.29424,0.41108 -7.68752,0.45703 -6.99134,0.13425 -23.406473,0.23827 -24.513038,0.15534 z m 24.513038,-0.97533 c 13.70572,-0.6068 15.24805,-0.73559 18.27599,-1.52614 1.59552,-0.41658 3.379,-0.75766 3.96329,-0.75797 1.60856,-8.7e-4 5.15002,-0.74852 6.68777,-1.41192 0.75241,-0.32459 2.18838,-0.73808 3.19105,-0.91885 1.00266,-0.18077 2.01884,-0.50264 2.25817,-0.71526 0.23932,-0.21261 0.95731,-0.48103 1.59552,-0.59646 0.63821,-0.11543 2.26999,-0.76367 3.62619,-1.44051 1.35619,-0.67685 3.31337,-1.44739 4.34928,-1.71231 1.03591,-0.26493 2.53715,-0.84973 3.33609,-1.29957 0.79894,-0.44983 2.26641,-1.11386 3.26104,-1.47561 0.99463,-0.36175 1.95705,-0.83681 2.13871,-1.0557 0.18166,-0.21889 0.49273,-0.39798 0.69125,-0.39798 0.54544,0 3.62114,-3.15018 4.93476,-5.05426 0.63821,-0.92508 2.01064,-2.48345 3.04985,-3.46304 2.13781,-2.01516 7.01382,-5.36833 8.13938,-5.59735 1.10698,-0.22524 7.81289,-6.78804 8.32379,-8.14615 0.49225,-1.30855 0.80606,-10.7059 0.37486,-11.22546 -0.67133,-0.80891 -0.94608,-3.4778 -1.18165,-11.47848 -0.25641,-8.70854 -0.82627,-15.6607 -1.36807,-16.6902 -0.16512,-0.31375 -0.39213,-1.1579 -0.50447,-1.87589 -0.18991,-1.21374 -2.5319,-7.05985 -3.48643,-8.70285 -0.23173,-0.39888 -0.86125,-1.63904 -1.39893,-2.7559 -3.78064,-7.85311 -7.46824,-12.68751 -11.461,-15.0252 -3.50105,-2.04982 -5.48866,-2.96574 -8.57967,-3.95365 l -2.87063,-0.91748 -10.90889,0.041 -10.90889,0.041 -0.0855,-0.68894 c -0.1095,-0.88202 -2.62443,-2.11876 -3.82163,-1.87932 -0.97012,0.19402 -1.45959,-0.24421 -1.45959,-1.30681 0,-0.98176 0.74851,-1.71591 3.08976,-3.0305 1.47155,-0.82625 3.39925,-2.59154 4.4009,-4.030112 0.11109,-0.159552 0.6018,-0.812266 1.09046,-1.450475 0.48866,-0.638209 1.05636,-1.580316 1.26155,-2.09357 0.20519,-0.513256 0.55484,-1.084047 0.77701,-1.268426 0.22216,-0.184379 0.40393,-0.65209 0.40393,-1.039356 0,-0.387268 0.19027,-1.072069 0.42282,-1.521778 0.27785,-0.537302 0.44225,-1.863336 0.47946,-3.867391 0.0494,-2.660607 -0.0189,-3.155927 -0.5357,-3.881985 l -0.59233,-0.832248 2.83922,8.7e-4 c 2.15534,5.8e-4 2.96864,0.110352 3.37645,0.455548 0.80821,0.684108 5.82926,3.010621 7.64455,3.542113 2.76449,0.809406 8.18033,1.667983 10.49063,1.663086 l 2.22293,-0.0047 1.76588,-1.73868 c 1.64367,-1.618341 1.76287,-1.824138 1.72242,-2.973474 -0.0347,-0.986355 -0.0688,-1.059694 -0.16922,-0.36451 -0.17155,1.187202 -1.33539,2.643308 -2.94387,3.683119 -1.30825,0.845723 -1.40507,0.862415 -4.09582,0.706179 -2.84772,-0.165354 -7.00803,-0.959133 -9.27565,-1.769778 -0.71392,-0.255216 -2.89695,-1.181917 -4.85118,-2.059335 l -3.55313,-1.595309 -3.03208,0.08242 -3.03208,0.08242 0.89573,1.305428 0.89573,1.305428 -0.32474,2.936021 c -0.37261,3.368755 -0.78471,4.580375 -2.64165,7.766744 -1.73291,2.973548 -3.41287,4.824941 -5.79256,6.383661 -2.97994,1.95188 -3.27439,2.31278 -3.17186,3.8876 l 0.0874,1.3423 1.65268,0.32969 c 1.91963,0.38293 3.0076,1.01211 3.29029,1.90278 l 0.2004,0.63141 10.74382,-0.15957 10.74382,-0.15957 3.46775,1.12645 c 1.90726,0.61956 3.87839,1.36952 4.38029,1.66659 0.5019,0.29708 1.36945,0.71538 1.92788,0.92956 0.55843,0.21418 1.46934,0.75661 2.02424,1.20539 0.5549,0.44879 1.16092,0.81598 1.3467,0.81598 0.18579,0 1.0737,0.79485 1.97312,1.76633 2.75844,2.97944 5.42128,7.27296 9.29762,14.99131 4.03602,8.03629 4.76963,11.56904 5.37553,25.88633 0.17218,4.06859 0.44633,8.3765 0.60922,9.57314 0.88758,6.52048 0.84357,12.56331 -0.10471,14.37848 -0.88423,1.69256 -5.90276,6.12688 -9.86778,8.71907 -2.90323,1.89803 -4.58781,3.26621 -6.92388,5.62342 -1.69794,1.71331 -3.17423,3.38942 -3.28064,3.72469 -0.29941,0.94336 -3.84645,3.72752 -6.13543,4.81585 -4.61304,2.19333 -14.29175,5.96671 -20.04961,7.81663 -3.77374,1.21244 -10.16145,2.50621 -16.61826,3.36584 -4.30773,0.57352 -15.4428,0.97591 -27.55903,0.99592 l -12.909236,0.0212 -4.786569,-0.92115 c -2.632613,-0.50663 -6.256353,-1.12112 -8.052756,-1.36553 -1.796405,-0.24441 -3.820337,-0.68952 -4.497628,-0.98911 -0.677291,-0.2996 -2.513486,-1.73533 -4.080431,-3.19051 -3.241784,-3.01057 -4.898079,-4.18798 -6.826274,-4.85263 -1.284966,-0.44293 -2.327146,-0.92674 -4.246992,-1.97158 -0.478657,-0.26051 -2.019341,-0.99399 -3.423741,-1.62997 -2.208299,-1.00003 -2.904327,-1.51023 -5.149188,-3.77441 -1.427653,-1.43994 -2.595732,-2.76046 -2.595732,-2.93449 0,-0.17402 -0.51727,-1.18776 -1.149489,-2.25275 -0.632219,-1.06498 -2.133802,-4.14026 -3.33685,-6.83396 -1.203049,-2.69369 -2.569045,-5.56564 -3.035549,-6.38209 -0.466503,-0.81646 -1.185858,-2.49165 -1.598567,-3.72265 -0.927646,-2.76692 -1.190573,-7.00299 -1.607644,-25.90104 -0.179891,-8.15109 -0.464395,-14.6342 -0.757466,-17.26066 -0.383859,-3.4401 -0.439275,-6.13527 -0.3042,-14.79485 0.196469,-12.59548 0.393358,-14.6194 1.911864,-19.65295 0.711919,-2.359868 1.342203,-5.270448 1.633317,-7.542469 0.810288,-6.323954 2.607995,-12.206276 4.576575,-14.975127 0.532081,-0.748381 2.011225,-2.499125 3.286985,-3.890537 l 2.319564,-2.529841 0.203996,-4.628816 c 0.155486,-3.528096 0.329986,-4.907773 0.733815,-5.801903 1.171669,-2.594223 8.686649,-9.701689 12.030882,-11.378484 1.134831,-0.569003 4.311172,-2.387125 7.058532,-4.04027 4.427495,-2.664116 5.400097,-3.125172 8.557805,-4.056772 1.959433,-0.57808 3.693145,-1.155962 3.852698,-1.284184 0.159552,-0.128221 2.117694,-0.756489 4.351426,-1.39615 2.233732,-0.639662 5.777868,-1.891464 7.875858,-2.781783 l 3.814528,-1.618762 5.613567,0.0045 c 8.08597,0.0064 23.15975,0.512804 26.21031,0.880492 4.71864,0.568745 16.82221,3.93787 20.30666,5.65252 9.05327,4.454991 16.39312,9.241718 19.15178,12.489953 2.22317,2.617711 2.96716,3.927238 4.22317,7.433473 0.74137,2.069585 1.62443,3.881725 2.46684,5.062261 2.15872,3.025173 2.20573,3.232283 2.39219,10.540629 0.1177,4.6131 0.22821,6.059262 0.37686,4.931616 0.11567,-0.877537 0.16432,-4.03126 0.10809,-7.008271 -0.0787,-4.169241 -0.20565,-5.61276 -0.55243,-6.283358 -0.24762,-0.478837 -0.56292,-0.915041 -0.70068,-0.969344 -0.13775,-0.0543 -0.84257,-0.907377 -1.56627,-1.895716 -0.8907,-1.216415 -1.37861,-2.215761 -1.51019,-3.093206 -0.10691,-0.712923 -0.51445,-1.95969 -0.90564,-2.770593 -0.39119,-0.810903 -0.71126,-1.654839 -0.71126,-1.875414 0,-0.220574 -0.19581,-0.563556 -0.43514,-0.76218 -0.23933,-0.198625 -0.43514,-0.493799 -0.43514,-0.655942 0,-0.35502 -2.98518,-4.062485 -4.20638,-5.224154 -0.47866,-0.455321 -1.30504,-1.021756 -1.83639,-1.258744 -0.53136,-0.236988 -1.41688,-0.881655 -1.96782,-1.432593 -0.55094,-0.550938 -1.2382,-1.001705 -1.52726,-1.001705 -0.28906,0 -0.76184,-0.261086 -1.05062,-0.580191 -0.28879,-0.319104 -0.6827,-0.58019 -0.87536,-0.58019 -0.19266,0 -0.84309,-0.391628 -1.44541,-0.870285 -0.60231,-0.478657 -1.31213,-0.870285 -1.57739,-0.870285 -0.26525,0 -0.62918,-0.146895 -0.80871,-0.326434 -1.40846,-1.40845 -11.81565,-6.055658 -13.56135,-6.055658 -0.33872,0 -1.71919,-0.389053 -3.06771,-0.864562 -1.34853,-0.475509 -2.8713,-0.867137 -3.38394,-0.870285 -0.51264,-0.0031 -1.60466,-0.270833 -2.42671,-0.594855 -0.82205,-0.324022 -1.72642,-0.515565 -2.00971,-0.425652 -0.2833,0.08991 -1.08415,-0.04022 -1.77968,-0.289182 -1.0416,-0.372842 -3.99465,-0.504327 -16.74717,-0.745669 -17.058123,-0.322825 -15.744566,-0.42692 -20.344163,1.612201 -3.256425,1.443658 -4.384912,1.858856 -5.946949,2.188029 -1.911399,0.402796 -5.18051,1.480287 -5.793182,1.909419 -0.315127,0.220724 -0.862566,0.401316 -1.216528,0.401316 -0.353963,0 -0.713364,0.112934 -0.798673,0.250963 -0.0853,0.138029 -0.974174,0.411245 -1.975263,0.607146 -2.585821,0.506015 -5.331849,1.857166 -9.885425,4.864011 -2.179807,1.439383 -4.909494,2.992607 -6.065972,3.45161 -2.107929,0.836632 -2.877034,1.479049 -9.341254,7.802548 -1.749533,1.711446 -2.574486,2.848945 -2.814338,3.88059 -0.133666,0.574921 -0.246143,3.031834 -0.249949,5.459805 l -0.0069,4.414493 -3.191046,3.329235 c -1.755075,1.831081 -3.191046,3.489479 -3.191046,3.685328 0,0.195849 -0.189519,0.565508 -0.421153,0.821462 -0.231635,0.255951 -1.068895,2.441452 -1.860578,4.856665 -1.200161,3.661371 -1.470669,4.88975 -1.6274,7.390039 -0.229471,3.660678 -0.494838,4.940116 -1.931633,9.313152 -0.616835,1.87741 -1.121518,3.66467 -1.121518,3.97169 0,0.30703 -0.133085,0.64048 -0.295746,0.74101 -0.179032,0.11065 -0.273557,1.51982 -0.239523,3.57078 0.03092,1.8634 -0.101996,7.07367 -0.295374,11.57838 -0.309259,7.20411 -0.29583,8.60141 0.111523,11.6038 0.799873,5.89547 1.144776,12.37851 1.177044,22.12457 0.01717,5.18545 0.125471,11.97367 0.240672,15.08494 0.197843,5.34319 0.266162,5.84184 1.232139,8.99295 0.562476,1.83485 1.249166,3.59718 1.52598,3.91628 0.681751,0.78591 4.371513,8.38255 4.39304,9.04458 0.02012,0.61856 1.987194,4.18419 4.170536,7.55973 1.85404,2.86642 5.869775,5.85239 9.403175,6.99189 0.741949,0.23928 1.70418,0.72763 2.138291,1.08523 0.434111,0.3576 1.474445,0.79712 2.311853,0.97672 2.150356,0.46116 4.00534,1.71541 7.342278,4.96448 1.595523,1.55351 3.292579,3.01726 3.771236,3.25279 1.692502,0.8328 4.177187,1.37114 6.328494,1.37114 1.317258,0 3.403593,0.28962 5.27969,0.73291 6.176745,1.45948 7.022109,1.53556 17.111232,1.54 5.26522,0.002 12.44508,-0.12294 15.95523,-0.27834 z"
       id="path475"
       transform="scale(0.75)" />
    <path
       style="fill:#000000;stroke-width:0.205128"
       d="m 93.641026,219.97037 c -3.707924,-0.57873 -5.092084,-0.85007 -7.893682,-1.54742 -2.972425,-0.73987 -3.452099,-0.80626 -5.029395,-0.69605 -1.472076,0.10286 -2.047048,0.0409 -3.692308,-0.39799 -3.22594,-0.86051 -3.886806,-1.2781 -6.84167,-4.3232 -1.450098,-1.49438 -2.923062,-2.83573 -3.273253,-2.98079 -0.350191,-0.14505 -0.810121,-0.43714 -1.022068,-0.64909 -0.502882,-0.50288 -2.381916,-1.37046 -2.702094,-1.24759 -0.39561,0.15181 -2.538933,-0.73081 -2.848726,-1.1731 -0.154607,-0.22073 -0.916944,-0.61053 -1.694082,-0.86622 -1.797586,-0.59143 -5.286643,-2.54875 -6.824117,-3.82824 -1.333594,-1.10983 -2.966147,-3.07673 -3.846788,-4.6346 -0.323525,-0.57233 -0.888228,-1.44002 -1.254894,-1.92822 -0.366667,-0.48819 -0.666667,-1.0455 -0.666667,-1.23847 0,-0.19297 -0.229716,-0.68936 -0.51048,-1.10309 -0.76036,-1.12046 -1.130546,-1.90014 -1.130546,-2.38115 0,-0.36789 -2.315082,-5.46197 -2.890291,-6.35977 -0.108425,-0.16923 -0.432308,-0.7923 -0.719742,-1.38461 -0.287433,-0.59231 -0.596779,-1.07692 -0.687436,-1.07692 -0.278992,0 -0.95637,-1.80413 -1.925433,-5.12821 l -0.926912,-3.17949 -0.136944,-5.53846 c -0.07532,-3.04615 -0.156506,-9.87692 -0.180413,-15.17948 -0.04748,-10.53013 -0.233121,-14.21705 -1.040405,-20.66267 -0.531981,-4.24751 -0.532339,-4.26098 -0.310418,-11.69231 0.122197,-4.09194 0.300417,-8.22451 0.396045,-9.18349 0.09563,-0.95897 0.123124,-2.78456 0.0611,-4.05686 -0.0716,-1.46868 -0.03195,-2.47974 0.108589,-2.76923 0.121745,-0.25077 0.267623,-0.68673 0.324172,-0.96878 0.05655,-0.28205 0.616932,-2.02231 1.245296,-3.867237 0.628363,-1.844929 1.090181,-3.439036 1.026263,-3.542458 -0.06392,-0.103423 0.06666,-0.717011 0.290171,-1.363532 0.305943,-0.88495 0.434763,-1.949138 0.521192,-4.305585 0.06314,-1.721553 0.209626,-3.307272 0.32552,-3.523822 0.115894,-0.21655 0.255768,-0.746468 0.31083,-1.177596 0.05506,-0.43113 0.239956,-0.886355 0.410874,-1.011612 0.170918,-0.12526 0.31076,-0.331848 0.31076,-0.459085 0,-0.773248 1.473132,-4.768794 2.732308,-7.410786 0.133128,-0.279327 1.580512,-1.88225 3.21641,-3.562049 l 2.974359,-3.054185 0.111897,-5.053333 c 0.07056,-3.18632 0.201501,-5.262261 0.354424,-5.618821 0.13339,-0.311019 2.390728,-2.712147 5.016308,-5.33584 l 4.773781,-4.770352 2.533299,-1.105232 c 1.732311,-0.755776 3.6132,-1.821247 5.948718,-3.369785 5.172238,-3.42939 7.89266,-4.73573 10.756328,-5.165164 0.524461,-0.07865 1.058121,-0.26898 1.185914,-0.42296 0.127792,-0.15398 0.569228,-0.33496 0.980968,-0.402177 0.411741,-0.06722 1.071696,-0.288589 1.466568,-0.491936 0.98415,-0.506809 5.37648,-1.858246 6.03952,-1.858246 0.29646,0 0.743461,-0.1294 0.993337,-0.287557 0.249877,-0.158156 0.777399,-0.349664 1.172271,-0.425573 0.394872,-0.07591 1.956653,-0.695318 3.470624,-1.376465 4.684148,-2.107432 4.501243,-2.067072 8.631942,-1.904763 4.15585,0.163297 23.58717,0.551717 25.8095,0.515915 1.01518,-0.01635 1.71308,0.08281 2.15384,0.306051 0.35863,0.181634 1.21838,0.363318 1.91056,0.403742 1.28182,0.07486 2.88383,0.424715 3.25431,0.710695 0.11282,0.08709 0.78954,0.221956 1.50382,0.299705 0.71428,0.07775 2.32966,0.512648 3.58974,0.966443 1.26008,0.453794 2.60864,0.826825 2.9968,0.828956 1.42481,0.0078 7.99908,2.641718 10.3542,4.14827 0.63284,0.404819 1.74939,1.007534 2.48123,1.339367 0.73184,0.331832 1.33062,0.701427 1.33062,0.821324 0,0.119896 0.21258,0.217993 0.47241,0.217993 0.25982,0 0.87616,0.3 1.36963,0.666666 0.49348,0.366667 1.253,0.851282 1.68783,1.076923 2.5464,1.321363 3.18505,1.721635 3.9806,2.494821 0.48451,0.47089 1.08747,0.921718 1.33991,1.001841 0.57696,0.183117 2.40035,1.60999 2.94449,2.304162 0.22564,0.287858 0.57179,0.667101 0.76923,0.842763 0.19744,0.175661 0.35897,0.4077 0.35897,0.515641 0,0.107942 0.3,0.497736 0.66667,0.86621 1.12495,1.130493 1.79487,1.970605 1.79487,2.250847 0,0.147088 0.12658,0.34125 0.28129,0.431471 0.15471,0.09022 0.4307,0.682732 0.61332,1.316691 0.18261,0.633957 0.47141,1.268337 0.64178,1.409732 0.17037,0.141395 0.30977,0.471099 0.30977,0.732679 0,0.261577 0.084,0.527526 0.18671,0.590995 0.1027,0.06347 0.2961,0.76386 0.42978,1.556426 0.268,1.588882 0.99101,2.851639 2.84678,4.971963 0.58984,0.673922 1.13001,1.532831 1.2543,1.994427 0.34556,1.283303 0.25706,16.495079 -0.10577,18.180544 -0.052,0.241442 -0.37269,0.551107 -0.7196,0.6948 -0.36754,0.15224 -0.84003,0.624724 -1.14481,1.144791 -0.28543,0.487059 -0.68633,0.938677 -0.89087,1.003596 -0.20454,0.06492 -0.58982,0.307042 -0.85618,0.53805 -0.45332,0.393167 -0.65483,0.411593 -3.15257,0.288299 -1.46756,-0.07245 -3.79519,-0.356498 -5.17251,-0.631233 -1.37733,-0.274734 -2.8081,-0.500418 -3.17949,-0.50152 -0.37139,-10e-4 -1.16904,-0.231871 -1.77255,-0.51282 -0.60351,-0.28095 -1.27735,-0.510817 -1.49742,-0.510817 -0.22006,0 -1.20054,-0.415384 -2.17883,-0.923077 -0.97829,-0.507692 -1.87567,-0.923077 -1.99417,-0.923077 -0.1185,0 -0.76732,-0.366621 -1.44182,-0.814713 -1.27924,-0.849836 -2.17086,-1.006487 -3.9956,-0.701994 l -0.71795,0.119805 -0.0356,3.46642 c -0.0289,2.815982 -0.10113,3.591754 -0.38469,4.134351 -0.19199,0.36736 -0.4232,1.099781 -0.5138,1.627602 -0.0906,0.527824 -0.34534,1.140304 -0.56611,1.361067 -0.22076,0.220765 -0.59961,0.931179 -0.84187,1.578697 -0.29179,0.779853 -0.78977,1.532246 -1.47508,2.228677 -0.56903,0.578255 -1.15388,1.333594 -1.29968,1.678534 -0.3771,0.89217 -2.13376,2.35577 -4.4485,3.70637 -1.96133,1.1444 -2.22004,1.42985 -2.22671,2.45687 -0.003,0.39612 0.0838,0.4231 1.0555,0.32974 0.79982,-0.0769 1.11426,-0.0251 1.28745,0.21169 0.12603,0.17236 0.78056,0.53183 1.45452,0.79883 0.9021,0.35738 1.24187,0.60101 1.28789,0.92349 0.0616,0.43156 0.14973,0.44032 5.94872,0.59122 3.23741,0.0843 7.96183,0.10595 10.49871,0.0482 l 4.61252,-0.10496 3.18235,1.01333 c 3.05125,0.97158 8.82339,3.65888 8.82339,4.10785 0,0.0971 0.3923,0.34612 0.87179,0.55337 1.21254,0.52408 4.62309,3.92345 5.95155,5.93205 1.30689,1.97597 4.85997,8.62311 5.17239,9.67656 0.0837,0.28205 0.41134,0.78974 0.72821,1.12821 0.32512,0.34727 0.72901,1.15161 0.92702,1.84615 0.19299,0.67692 0.51252,1.46154 0.71005,1.74359 0.66093,0.9437 2.19295,5.01226 2.32525,6.17513 0.0719,0.63223 0.30538,1.5553 0.51877,2.05129 0.26841,0.62387 0.43025,1.65609 0.52515,3.34938 0.0754,1.34618 0.28838,3.14618 0.4732,4 0.26645,1.23094 0.34468,2.93289 0.37776,8.21907 0.0518,8.27254 0.42214,11.92975 1.23988,12.24355 0.26846,0.10302 0.28921,0.78329 0.16064,5.2656 -0.13796,4.80973 -0.18001,5.22162 -0.64114,6.28061 -0.46764,1.07393 -2.04025,2.88647 -4.25607,4.90539 -0.44714,0.40741 -1.30048,1.24164 -1.89629,1.85385 -1.248,1.28231 -2.05188,1.85798 -2.59723,1.85991 -0.50465,0.002 -2.41028,1.15156 -4.96281,2.99437 -2.48969,1.79745 -5.28666,4.67273 -6.97312,7.1684 -0.78575,1.16275 -1.46435,1.93858 -1.84616,2.11062 -0.33204,0.14962 -0.85841,0.62709 -1.1697,1.06104 -0.35545,0.49549 -0.79421,0.83912 -1.17949,0.92374 -0.33743,0.0741 -0.6135,0.20263 -0.6135,0.28559 0,0.20063 -1.36008,0.8422 -1.7854,0.8422 -0.18457,0 -1.68144,0.64484 -3.32637,1.43298 -1.64494,0.78814 -3.45233,1.51987 -4.01643,1.62606 -0.56411,0.10618 -2.26246,0.7951 -3.77411,1.53092 -1.51166,0.73582 -3.18539,1.43156 -3.71941,1.54608 -0.53401,0.11453 -1.28182,0.39007 -1.66179,0.61232 -0.37996,0.22225 -1.5001,0.55452 -2.48918,0.73837 -0.98909,0.18385 -2.43555,0.59704 -3.21437,0.91819 -1.72375,0.71082 -3.95062,1.19222 -6.67961,1.44398 -1.1282,0.10408 -3.34359,0.52748 -4.92307,0.94089 -2.7468,0.71894 -3.04144,0.75435 -6.76923,0.81361 -2.60756,0.0415 -4.44004,0.1744 -5.53692,0.4017 -1.21883,0.25257 -2.63982,0.33452 -5.53846,0.3194 -2.14444,-0.0112 -8.51437,0.0149 -14.15539,0.0579 -5.641032,0.043 -10.487186,0.0422 -10.769237,-0.002 z m 25.333334,-0.94454 c 2.36923,-0.0472 4.86154,-0.19199 5.53846,-0.32173 0.67692,-0.12975 2.98462,-0.27732 5.12821,-0.32796 3.71208,-0.0877 4.05767,-0.13173 7.26687,-0.9264 1.85318,-0.4589 3.8576,-0.83436 4.45426,-0.83436 1.58261,0 4.88188,-0.69897 6.53528,-1.38453 0.78974,-0.32747 2.25744,-0.75739 3.26156,-0.95538 1.00411,-0.198 2.06565,-0.52974 2.35897,-0.7372 0.29332,-0.20746 1.0279,-0.47806 1.63239,-0.60135 0.6045,-0.12328 2.31219,-0.82376 3.79488,-1.55663 1.51454,-0.74862 3.19014,-1.42237 3.82399,-1.53761 0.62051,-0.11282 2.37436,-0.79942 3.89744,-1.52579 1.52307,-0.72636 3.14688,-1.4175 3.60845,-1.53586 0.46157,-0.11836 1.00664,-0.4002 1.21128,-0.62632 0.20463,-0.22611 0.52575,-0.41112 0.71359,-0.41112 0.18785,0 0.71157,-0.39231 1.16383,-0.87179 0.45226,-0.47949 1.05899,-1.03019 1.34828,-1.22377 0.28929,-0.19358 1.02979,-1.0705 1.64557,-1.94871 2.51179,-3.58231 4.50929,-5.49644 8.56541,-8.20794 2.31291,-1.54617 3.08965,-1.97877 3.90036,-2.17231 0.28965,-0.0692 2.11071,-1.6846 4.15385,-3.68485 2.77605,-2.71777 3.63809,-3.6821 3.63809,-4.06976 0,-0.27943 0.11539,-0.62344 0.25642,-0.76448 0.16972,-0.16974 0.26866,-1.0331 0.29266,-2.55384 0.0199,-1.26358 0.10256,-3.42396 0.18359,-4.80084 0.12823,-2.17854 0.1018,-2.57294 -0.20362,-3.03906 -0.76553,-1.16836 -0.95782,-3.02781 -1.14505,-11.07291 -0.1189,-5.10883 -0.29074,-8.51438 -0.49867,-9.88288 -0.17449,-1.1484 -0.37535,-3.04071 -0.44636,-4.20512 -0.0807,-1.32323 -0.26773,-2.44023 -0.49878,-2.97876 -0.20331,-0.4739 -0.43489,-1.38372 -0.51462,-2.02184 -0.14559,-1.16521 -1.41362,-4.55092 -2.15174,-5.74521 -0.2174,-0.35178 -0.57964,-1.23647 -0.80497,-1.96599 -0.2286,-0.74012 -0.63546,-1.53851 -0.92049,-1.80628 -0.28095,-0.26394 -0.61849,-0.81247 -0.75009,-1.21895 -0.33558,-1.03657 -1.18589,-2.69545 -3.21297,-6.26822 -1.86704,-3.29069 -3.34365,-5.35714 -3.97012,-5.55598 -0.21143,-0.0671 -0.38442,-0.29127 -0.38442,-0.49814 0,-0.42703 -1.99429,-2.22579 -3.07692,-2.77524 -0.39487,-0.2004 -1.05671,-0.63055 -1.47076,-0.95588 -1.16981,-0.91916 -5.13036,-2.7254 -8.02827,-3.66134 l -2.62723,-0.84853 -10.39841,0.007 c -5.71912,0.004 -10.72148,0.0334 -11.11635,0.066 -0.68672,0.0566 -0.72061,0.0277 -0.77901,-0.66629 -0.0574,-0.68213 -0.14848,-0.76623 -1.52333,-1.40678 -1.10126,-0.51308 -1.6475,-0.65642 -2.2126,-0.58062 -1.16784,0.15664 -1.43378,-0.10276 -1.43378,-1.39856 0,-1.07319 0.0331,-1.14069 0.8486,-1.73145 0.46674,-0.3381 1.45905,-0.95021 2.20513,-1.36025 1.28117,-0.7041 3.7155,-2.81969 3.7155,-3.22901 0,-0.10373 0.36954,-0.61431 0.8212,-1.134621 1.45193,-1.672603 1.64807,-1.952012 2.17555,-3.099196 0.28515,-0.620145 0.63833,-1.266299 0.78485,-1.435897 0.14653,-0.169598 0.3295,-0.723744 0.40662,-1.231436 0.0771,-0.507692 0.27453,-1.12833 0.43871,-1.379194 0.20926,-0.319762 0.33826,-1.374734 0.4315,-3.528933 0.13188,-3.046862 0.12871,-3.078528 -0.37468,-3.749012 -0.27923,-0.371907 -0.56126,-0.768502 -0.62673,-0.881323 -0.0764,-0.131587 0.8606,-0.220533 2.61354,-0.248098 2.6003,-0.04089 2.76857,-0.01854 3.47602,0.461538 0.40889,0.277479 0.87235,0.504509 1.02991,0.504509 0.15756,0 0.33611,0.08031 0.39677,0.178455 0.0979,0.158396 1.76263,1.023202 2.58058,1.340573 0.16924,0.06566 0.44616,0.201583 0.61539,0.302049 1.01968,0.605335 4.17498,1.63834 5.4359,1.779647 0.67692,0.07586 1.96923,0.305194 2.87179,0.509627 0.90257,0.204435 2.84573,0.434051 4.31816,0.510258 l 2.67712,0.138558 0.92592,-0.62489 c 0.50925,-0.34369 1.03454,-0.863317 1.16732,-1.154728 0.13277,-0.29141 0.56525,-0.720909 0.96106,-0.954441 0.68399,-0.403567 0.71803,-0.476962 0.68682,-1.481268 -0.0256,-0.823061 -0.0514,-0.897941 -0.11687,-0.338712 -0.0915,0.781576 -0.76113,1.59832 -2.36315,2.882289 -1.79649,1.439838 -3.66303,1.489793 -9.79484,0.262142 -2.97706,-0.596039 -5.33043,-1.434677 -9.33333,-3.326004 l -2.8718,-1.356888 -3.02564,-0.06606 c -2.13591,-0.04663 -3.02564,0.0014 -3.02564,0.163701 0,0.126369 0.33578,0.754668 0.74618,1.396223 l 0.74617,1.166464 -0.12697,2.054453 c -0.0698,1.129949 -0.22816,2.608298 -0.35184,3.285221 -0.28283,1.547967 -1.69121,4.555844 -3.20799,6.851317 -1.20833,1.828657 -3.44244,4.217897 -4.22712,4.520617 -0.86955,0.33547 -3.66066,2.52891 -3.84929,3.02503 -0.27092,0.71259 -0.23602,1.97677 0.0657,2.38058 0.16323,0.21845 0.76783,0.4146 1.66369,0.53977 1.63855,0.22894 2.81034,0.90188 3.19734,1.83618 l 0.25961,0.62675 10.79866,-0.12672 10.79865,-0.12673 2.97436,0.97796 c 5.44197,1.78931 9.44028,4.00254 12.05821,6.67473 2.65082,2.70575 5.61982,7.48646 9.55444,15.38462 3.68355,7.39418 4.52535,11.47973 5.05068,24.51282 0.29912,7.42071 0.57964,11.0584 0.97285,12.61538 0.25984,1.0289 0.33739,2.34029 0.33965,5.74359 0.004,5.81989 -0.0756,6.09857 -2.45262,8.59635 -2.43676,2.56062 -4.73048,4.45765 -7.48067,6.18691 -4.49261,2.82488 -7.98895,5.8612 -10.10665,8.77691 -1.66381,2.29077 -4.03429,4.43418 -5.98717,5.41366 -1.74396,0.87469 -7.55743,3.38092 -8.17444,3.52406 -0.32158,0.0746 -1.89081,0.67562 -3.48718,1.33559 -6.32504,2.61488 -12.62969,4.59172 -16.74864,5.25158 -1.74872,0.28015 -4.42564,0.73583 -5.94872,1.01262 -4.34685,0.78997 -10.39427,1.15908 -25.74605,1.57143 -10.53424,0.28295 -16.939488,0.0849 -20.715486,-0.64064 -5.193122,-0.99779 -6.585573,-1.23768 -6.871042,-1.18372 -0.418634,0.0791 6.836029,1.74294 9.127452,2.09332 1.813619,0.27732 14.590596,0.30686 26.871796,0.0621 z M 81.333333,216.8507 c 1.123559,-0.13382 1.119207,-0.13545 -1.056695,-0.39593 -4.736318,-0.56699 -5.885099,-1.10785 -9.35647,-4.40518 -3.496851,-3.32153 -6.590193,-5.28036 -8.338644,-5.28036 -0.264004,0 -0.594921,-0.13846 -0.73537,-0.30769 -0.140449,-0.16923 -0.368213,-0.30769 -0.506146,-0.30769 -0.13793,0 -0.410828,-0.17685 -0.606439,-0.393 -0.19561,-0.21615 -0.879148,-0.60092 -1.518972,-0.85506 -2.668455,-1.0599 -4.913307,-2.33815 -6.570045,-3.74108 -0.942932,-0.79848 -1.864405,-1.68719 -2.047717,-1.97491 -0.183312,-0.28772 -0.496437,-0.64375 -0.695834,-0.79117 -0.199397,-0.14743 -0.362539,-0.39358 -0.362539,-0.54701 0,-0.15344 -0.08513,-0.30974 -0.18918,-0.34735 -0.328229,-0.11863 -3.328885,-5.81223 -4.522487,-8.58119 -0.364747,-0.84616 -1.667491,-3.61539 -2.894988,-6.15385 -1.227497,-2.53846 -2.368768,-5.16923 -2.536159,-5.84615 -0.674058,-2.72588 -0.768888,-4.75451 -1.347242,-28.82052 -0.112519,-4.68205 -0.340324,-9.89743 -0.506233,-11.58974 -0.750577,-7.65604 -0.775385,-8.22681 -0.646375,-14.87179 0.150873,-7.77111 0.453247,-14.24208 0.765609,-16.38446 0.121301,-0.83196 0.721367,-3.1736 1.333481,-5.20364 0.914445,-3.032715 1.203718,-4.386684 1.621971,-7.591796 0.59074,-4.526894 0.987195,-6.30977 2.150393,-9.67042 1.399774,-4.044158 2.153898,-5.243011 5.72722,-9.104753 l 2.433363,-2.62977 0.08058,-4.502454 c 0.07734,-4.321175 0.101866,-4.548356 0.609241,-5.6425 0.680371,-1.467204 2.463144,-3.452999 6.484244,-7.222667 2.735745,-2.564686 3.514625,-3.174151 5.077587,-3.973166 1.015385,-0.519082 4.292308,-2.401534 7.282052,-4.183224 l 5.435897,-3.239439 3.589744,-1.060084 c 1.974359,-0.583047 3.728205,-1.174022 3.897435,-1.313279 0.169231,-0.139256 1.738462,-0.648198 3.48718,-1.130981 3.485159,-0.962176 5.950002,-1.807274 8,-2.742884 2.788402,-1.272613 3.832952,-1.645075 5.025641,-1.792023 1.365964,-0.168296 17.127814,0.09365 24.865144,0.41323 7.65865,0.316333 9.5647,0.655534 19.07257,3.39417 5.58341,1.608241 6.16264,1.841387 10.93772,4.4026 2.10141,1.127132 3.94238,2.049331 4.09106,2.049331 0.14868,0 0.37281,0.135566 0.49807,0.301259 0.12526,0.165693 1.4339,1.026994 2.90809,1.914002 2.71197,1.631775 7.67863,5.234148 7.67863,5.569398 0,0.100253 0.4418,0.674333 0.98178,1.275732 1.60869,1.791678 2.62869,3.595867 3.73596,6.608216 1.25649,3.418307 1.70566,4.331704 2.9822,6.064402 1.81344,2.46145 1.80784,2.435758 1.93309,8.865423 0.1046,5.369545 0.22702,6.690606 0.49715,5.364954 0.19073,-0.936037 -0.0359,-11.181581 -0.26398,-11.933306 -0.11478,-0.378327 -0.60922,-1.116788 -1.09874,-1.641026 -1.6326,-1.748384 -2.61245,-3.405834 -2.93883,-4.971122 -0.16507,-0.791694 -0.38358,-1.596144 -0.48558,-1.787664 -0.41548,-0.780129 -1.01946,-2.228076 -1.14434,-2.743376 -0.0732,-0.301955 -0.30936,-0.708568 -0.52485,-0.903588 -0.2155,-0.195019 -0.39181,-0.52489 -0.39181,-0.733046 0,-0.208154 -0.0899,-0.378464 -0.19986,-0.378464 -0.10993,0 -0.35132,-0.3 -0.53644,-0.666666 -0.18512,-0.366667 -0.60287,-0.88105 -0.92834,-1.143073 -0.32548,-0.262023 -0.59177,-0.566479 -0.59177,-0.676568 0,-0.405761 -2.96146,-3.10517 -3.80179,-3.465375 -0.47758,-0.204714 -1.01193,-0.577241 -1.18746,-0.827839 -0.44162,-0.630498 -1.99391,-1.628794 -2.53432,-1.629857 -0.24566,-4.92e-4 -0.6184,-0.219215 -0.82831,-0.486072 -0.20991,-0.266856 -0.58768,-0.550586 -0.8395,-0.63051 -0.25182,-0.07992 -0.88294,-0.469794 -1.4025,-0.866378 -0.51955,-0.396584 -1.18693,-0.764856 -1.48307,-0.818382 -0.29614,-0.05353 -0.72568,-0.272969 -0.95453,-0.487649 -0.22886,-0.21468 -0.82252,-0.53372 -1.31925,-0.708978 -0.49673,-0.175257 -1.21608,-0.557336 -1.59856,-0.849064 -1.72865,-1.318509 -9.14124,-4.384614 -10.60021,-4.384614 -0.365,0 -1.71338,-0.374465 -2.9964,-0.832143 -1.32915,-0.474133 -2.91044,-0.885245 -3.67548,-0.955569 -0.7385,-0.06788 -1.68305,-0.299703 -2.099,-0.515152 -0.48821,-0.252875 -1.2961,-0.416039 -2.27919,-0.460317 -0.88963,-0.04007 -1.79621,-0.209926 -2.18017,-0.40848 -0.4376,-0.226295 -1.11555,-0.332476 -2.02851,-0.317711 -2.33635,0.03779 -22.33837,-0.364479 -25.37124,-0.510248 -3.886755,-0.18681 -4.820181,-0.0012 -8.728462,1.735274 -1.787259,0.794108 -3.418582,1.443833 -3.625163,1.443833 -0.20658,0 -0.569054,0.135499 -0.805495,0.30111 -0.236443,0.16561 -0.833906,0.360392 -1.327695,0.432848 -1.368061,0.200741 -5.991046,1.701533 -6.290502,2.04213 C 82.87208,39.864624 82.429881,40 82.034888,40 c -0.40976,0 -0.970494,0.186553 -1.305743,0.434415 -0.32317,0.238928 -0.688663,0.371942 -0.812207,0.295586 -0.123547,-0.07636 -0.22463,-0.04107 -0.22463,0.07841 0,0.119479 -0.307832,0.217234 -0.68407,0.217234 -0.86362,0 -2.932849,0.674388 -4.539938,1.479623 -0.680643,0.341036 -3.061129,1.813858 -5.28997,3.272937 -2.685064,1.75774 -4.726888,2.93256 -6.051282,3.481777 -1.099364,0.455898 -2.281308,1.042537 -2.626543,1.303643 -0.345235,0.261106 -2.576039,2.409862 -4.957346,4.775015 -3.484244,3.460609 -4.372796,4.455688 -4.550642,5.096205 -0.125861,0.45329 -0.221491,2.675249 -0.222142,5.161491 -8.62e-4,3.286103 -0.07251,4.536365 -0.289763,5.056327 -0.158741,0.37992 -1.464067,1.873052 -2.900724,3.318073 -2.50908,2.523687 -3.372345,3.580854 -3.373993,4.131832 -4.31e-4,0.141026 -0.166887,0.422529 -0.369922,0.625565 -0.203036,0.203036 -0.769347,1.610729 -1.25847,3.128205 -0.489123,1.517477 -1.026605,3.05303 -1.194403,3.412339 -0.586196,1.255225 -1.033557,4.204794 -1.060813,6.994209 -0.0091,0.928884 -0.174035,1.966942 -0.436272,2.745379 -0.231922,0.688451 -0.379097,1.362689 -0.327056,1.498305 0.05204,0.135619 -0.417665,1.715582 -1.043792,3.51103 -0.626128,1.79545 -1.180555,3.65676 -1.232061,4.13625 -0.05151,0.47948 -0.189959,0.87179 -0.307673,0.87179 -0.144887,0 -0.172439,1.01053 -0.08529,3.12821 0.0745,1.81027 0.0441,3.5171 -0.07214,4.05128 -0.110484,0.50769 -0.301794,4.31341 -0.425133,8.45715 -0.215428,7.23761 -0.20675,7.67349 0.220524,11.07692 0.883577,7.03809 1.108465,11.25422 1.140888,21.38901 0.01697,5.30256 0.123707,12.27179 0.237206,15.48717 l 0.206362,5.84616 0.835859,2.76923 c 1.000613,3.31506 1.392847,4.28746 1.791062,4.44027 0.164441,0.0631 0.394721,0.47028 0.511733,0.90483 0.117013,0.43455 0.441092,1.06146 0.720176,1.39313 0.279084,0.33168 0.507426,0.77934 0.507426,0.99481 0,0.21547 0.255479,0.80215 0.567733,1.30372 0.70973,1.14005 2.098933,4.35202 2.098933,4.85294 0,0.20572 0.223557,0.70303 0.496793,1.10514 0.273237,0.4021 0.787609,1.3466 1.143049,2.09889 0.355441,0.7523 0.733377,1.36781 0.839859,1.36781 0.106482,0 0.351102,0.34615 0.5436,0.76923 0.968679,2.12898 2.902666,4.45258 4.851093,5.82837 1.720589,1.21491 4.712866,2.76206 6.169442,3.18988 0.568197,0.16689 1.282222,0.55542 1.586718,0.8634 0.551528,0.55783 1.760821,1.04143 2.604224,1.04143 0.539001,0 2.711003,1.07148 3.084664,1.52172 0.148089,0.17844 0.404702,0.32443 0.570251,0.32443 0.165548,0 1.712164,1.3846 3.436923,3.07689 3.34256,3.27962 3.617475,3.45886 6.468256,4.21708 1.848995,0.49177 2.501145,0.54112 4.307692,0.32596 z"
       id="path514"
       transform="scale(0.75)" />
    <path
       style="fill:#000000;stroke-width:0.205128"
       d="m 100.7484,32.54367 c -3.659834,0.157065 -6.664531,2.67139 -10.145836,3.506811 -1.594295,0.764565 -3.41831,0.811791 -5.069311,1.478766 -1.694299,0.521902 -3.30275,1.281527 -4.999198,1.763622 -1.146818,0.794328 -2.711191,0.57747 -3.969552,1.207131 -5.763153,2.133542 -10.239432,6.701494 -16.054934,8.731557 -1.773386,1.018704 -2.986004,2.856821 -4.535885,4.201296 -1.999217,2.098969 -4.226693,4.040306 -5.961665,6.360817 -0.490784,3.50322 -0.303996,7.069819 -0.463141,10.598558 -2.748375,3.029473 -6.350142,5.655434 -7.549279,9.758414 -0.601028,1.867504 -1.279846,3.719059 -2.038061,5.515223 -0.336256,1.450123 -0.707363,2.88704 -0.668669,4.400642 0.0156,2.186217 -0.288861,4.296014 -0.882212,6.394229 -0.533443,2.915034 -2.06847,5.585564 -2.483974,8.516424 -0.14727,4.1634 -0.301128,8.31604 -0.586539,12.47596 -0.195933,5.5557 -0.4635,11.14973 0.449844,16.66208 1.345511,11.88276 0.621007,23.8935 1.070976,35.8406 0.04253,2.14692 -0.06312,4.31883 0.806163,6.33634 0.730742,2.09386 1.057516,4.43914 2.328466,6.28879 1.60519,2.46636 2.78834,5.23966 3.936699,7.95954 0.221487,1.50064 1.319869,2.63292 1.823718,4.0016 0.644794,1.56791 1.856663,2.82382 2.652498,4.32902 2.230747,3.56312 5.977904,5.75973 9.740932,7.38893 1.720295,0.40868 2.889225,1.92026 4.685897,2.16947 1.305014,0.0818 2.535133,0.80394 3.45112,1.68069 1.78061,0.83173 2.945322,2.57204 4.398222,3.85143 1.651479,1.84648 3.81542,3.19521 6.265641,3.65938 2.287286,0.88643 4.71495,-0.0407 7.01998,0.70626 4.456412,1.01839 8.944642,2.27127 13.562547,2.0131 8.995263,-0.0496 18.011403,0.17845 26.988383,-0.4954 4.13689,-0.62824 8.42411,0.0751 12.45794,-1.27043 3.17615,-0.96737 6.55126,-0.78293 9.71235,-1.82035 2.16588,-0.81744 4.4061,-1.31212 6.64113,-1.92199 2.05114,-0.92537 4.26473,-1.45341 6.2614,-2.53083 2.59436,-1.28067 5.45602,-1.8651 8.00291,-3.26369 1.36304,-0.76747 2.94023,-1.0533 4.29447,-1.79006 0.87743,-0.54153 1.89383,-0.9205 2.47676,-1.85297 1.57033,-1.05676 2.53982,-2.70783 3.66066,-4.19471 3.18955,-3.9014 7.19601,-7.19229 11.82932,-9.15264 2.44133,-2.01076 4.64354,-4.32593 6.78766,-6.64944 2.29607,-2.4655 1.58067,-6.06202 1.81832,-9.1158 -0.10522,-1.45867 0.35736,-3.07181 -0.20213,-4.45472 -1.03125,-0.9605 -0.6948,-2.65643 -0.91649,-3.92596 -0.37482,-5.50143 -0.0126,-11.09416 -0.74056,-16.5484 -0.54585,-2.69055 -0.18881,-5.58553 -1.26883,-8.17868 -0.43216,-3.07284 -1.84447,-5.87412 -3.1214,-8.65866 -0.5581,-2.06183 -2.09814,-3.5922 -2.85343,-5.58023 -2.32863,-4.64193 -4.80807,-9.42373 -8.96635,-12.70907 -0.84314,-0.70687 -1.85794,-1.07721 -2.63895,-1.83489 -3.71588,-2.04287 -7.71375,-3.6575 -11.81365,-4.6858 -6.76463,0.15294 -13.55554,0.26487 -20.30214,-0.20243 -0.42153,-0.21318 -0.54881,-0.86969 -1.11298,-0.98397 -1.05324,-0.2269 -1.77881,-1.1919 -2.83533,-1.31651 -0.62026,0.009 -1.79852,0.36007 -1.28526,-0.63341 1.18628,-1.54165 3.27869,-2.03891 4.67668,-3.3734 1.59629,-1.08035 2.25877,-2.95832 3.65465,-4.232769 0.91968,-1.094265 1.17614,-2.558056 2.07212,-3.663461 0.39043,-1.162055 0.74688,-2.345058 1.10256,-3.514825 0.22561,-2.180521 0.11806,-4.379883 0.17989,-6.568108 1.66459,-0.490854 3.37364,-0.123931 4.74599,0.902244 1.72711,0.785136 3.39317,1.763922 5.1875,2.385415 1.49815,0.462273 2.94452,1.148353 4.54768,1.169473 3.28186,0.569826 6.66079,1.275621 10.00401,0.94471 0.95791,-0.594702 2.03087,-1.110689 2.52604,-2.207933 0.48675,-0.835035 1.8968,-0.963489 1.76923,-2.160656 0.30453,-5.865819 0.39871,-11.762755 0.0689,-17.628205 -0.79338,-2.450396 -3.36669,-3.887655 -3.97677,-6.429487 -0.1764,-0.964361 -0.4266,-1.929221 -0.76843,-2.814103 -0.14896,-0.886917 -0.93327,-1.522392 -1.04006,-2.45633 -0.17833,-0.827147 -0.83832,-1.317079 -1.10737,-2.078925 -1.87639,-2.146695 -3.49821,-4.643978 -5.95473,-6.186299 -1.72135,-0.942099 -3.10267,-2.501796 -4.95232,-3.300481 -1.5275,-0.492801 -2.59172,-1.970384 -4.19832,-2.202324 -1.05958,-1.092971 -2.71341,-1.378368 -3.93069,-2.30008 -3.21306,-1.804195 -6.65286,-3.293136 -10.22957,-4.197516 -2.65177,-0.360152 -5.13051,-1.753263 -7.78926,-1.932292 -1.5247,-0.662449 -3.19889,-0.824901 -4.84054,-1.023637 -2.60185,-0.889647 -5.43206,-0.482314 -8.13532,-0.67392 -7.75799,-0.135423 -15.51875,-0.229647 -23.27013,-0.482731 z m 28.45152,2.014824 c 0.37983,-0.05436 2.11476,0.260457 0.98638,0.135016 -0.36249,-0.05749 -2.47272,-0.156269 -1.1262,-0.133814 0.0466,2.1e-5 0.0932,-0.0012 0.13982,-0.0012 z m 35.02684,13.040464 c 0.27442,0.130949 1.2959,0.894711 0.54768,0.370994 -0.15757,-0.106545 -0.44868,-0.300735 -0.54768,-0.370994 z m -103.052081,2.99319 c -1.250203,0.943345 -2.382702,2.029491 -3.532051,3.090143 1.108486,-1.059814 2.333795,-2.326046 3.532051,-3.090143 z m 112.503611,6.465944 c 1.98523,3.745334 -0.47178,-0.81688 0,0 z M 53.710337,57.589744 c -0.956077,1.071103 -1.93919,2.171848 -2.505609,3.509616 0.09216,-1.47744 1.672137,-2.488168 2.505609,-3.509616 z m 121.310493,2.682291 c 0.0971,0.203112 0.1467,0.44985 0,0 z m 4.21034,7.840146 c 0.27065,0.308869 0.37807,1.218182 0.33974,1.185495 -0.0411,-0.341914 -0.31696,-1.131727 -0.33974,-1.185495 z M 45.067708,77.255208 c -0.15271,0.215779 -0.759849,1.147198 -0.36258,0.457133 -0.02722,0.0085 0.808273,-1.054115 0.36258,-0.457133 z m -1.209134,2.008815 c -0.04151,0.06158 0.284949,-0.553795 0,0 z m 106.187096,4.564502 c -0.40065,0.39838 -0.55994,-0.09434 0,0 z M 41.324119,86.50601 c -0.190415,0.788999 -0.471146,2.166614 -0.175593,0.653059 0.05789,-0.371832 0.449359,-1.685809 0.175593,-0.653059 z m 120.709131,0.469551 c 0.35712,0.17345 2.58157,0.910078 1.55008,0.573717 -0.45472,-0.140892 -1.73833,-0.625637 -1.85214,-0.69513 l 0.19033,0.0765 z m 15.27444,1.415865 c -0.64965,0.497979 -1.31088,1.205877 -2.20072,0.943912 0.85244,-0.142977 1.65817,-0.520064 2.32813,-1.064103 z m -27.53646,5.660658 c 0.008,0.410086 -0.61832,1.269356 -0.61979,1.276041 0.13857,-0.175194 0.70761,-1.68567 0.61979,-1.276041 z m -1.55208,3.034456 c -0.007,0.01031 0.01,-0.01694 0,0 z m -110.850961,8.09735 c -0.09445,0.548 -0.166638,1.79914 -0.215431,1.87628 0.100129,-0.63355 -0.264007,-1.49023 0.231857,-1.98084 z m 103.675881,3.47316 c 0.45734,-0.0269 1.58849,0.47346 0.59656,0.13542 -0.16642,-0.0491 -0.49931,-0.11282 -0.59656,-0.13542 z m 2.08013,0.77725 c 0.34097,0.0749 0.98164,0.69539 0.82652,0.79847 -0.21435,-0.32038 -0.51269,-0.59003 -0.82652,-0.79847 z m 37.0657,8.35857 c 0.3555,0.31021 0.70531,0.6301 1.01322,0.98838 -0.29222,-0.31617 -0.80794,-0.80725 -1.01322,-0.98838 z m 2.54768,2.73478 c 1.07207,1.21828 1.89989,2.62519 2.70994,4.02443 -0.8656,-1.42782 -1.77779,-2.83191 -2.81851,-4.13942 z m 11.79808,24.81249 c 0.0256,0.14117 -0.031,-0.16666 0,0 z M 38.192708,165.22436 c 0.104166,2.92488 0.163657,5.85402 0.412661,8.77123 -0.36643,-3.42425 -0.376084,-6.86763 -0.457933,-10.30769 0.01509,0.51215 0.03018,1.02431 0.04527,1.53646 z m 158.622192,7.22035 c 0.61485,1.02838 0.1503,2.31205 0.20393,3.4371 -0.0212,-1.13001 -0.11655,-2.40273 -0.20393,-3.4371 z m -156.453922,7.65866 c 0.288066,0.57182 0.818137,1.84253 0.209935,0.60857 -0.197039,-0.42677 -0.763405,-1.92525 -0.209935,-0.60857 z m 156.429492,1.72996 c 0.033,0.14418 -0.21479,1.13025 -0.0998,0.54888 0.0309,-0.0885 0.12998,-0.84309 0.0998,-0.54888 z m -0.47436,1.69832 c -0.058,0.33872 -1.16973,1.50453 -0.49039,0.68069 0.13974,-0.0931 0.47588,-0.8638 0.49039,-0.68069 z m -5.69872,5.93229 c -0.75177,0.59419 -1.37565,1.45886 -2.34015,1.72196 0.94767,-0.64932 1.85682,-1.3537 2.73718,-2.09135 -0.13234,0.12313 -0.26469,0.24626 -0.39703,0.36939 z m -17.79607,15.51923 c -0.0793,0.13969 -0.99473,0.70131 -0.44151,0.31531 0.0797,-0.0424 0.65186,-0.50371 0.44151,-0.31531 z m -98.525646,10.21715 c 0.743774,0.36246 0.830829,0.48044 0.05729,0.0737 -0.119364,-0.09 -0.494562,-0.35319 -0.05729,-0.0737 z m 3.166265,1.11298 c 0.755911,0.1512 1.518662,0.26468 2.281251,0.3758 -0.833844,0.10551 -1.635725,-0.22466 -2.435098,-0.40785 z m 44.114581,2.32292 c -0.37253,0.0236 -2.62632,0.0957 -1.44671,0.0517 0.37565,-0.0126 2.93231,-0.12475 1.44671,-0.0517 z"
       id="path553"
       transform="scale(0.75)" />
    <path
       style="fill:#000000;stroke-width:0.205128"
       d="m 100.85857,32.253606 c -3.687936,-0.06203 -6.725561,2.452132 -10.150693,3.352827 -3.202552,0.969143 -6.438845,1.892962 -9.57887,3.109913 -3.009895,0.937571 -6.107393,1.721799 -8.807292,3.423478 -3.966146,2.306171 -7.646671,5.081683 -11.94351,6.774038 -2.840072,2.076864 -5.103072,4.844918 -7.622937,7.285252 -1.32839,1.584898 -3.453523,2.969586 -3.33159,5.293124 -0.158749,2.917543 -0.149651,5.841417 -0.227765,8.761768 -2.819703,3.017016 -6.315632,5.743208 -7.570726,9.85401 -1.393725,3.586015 -2.803851,7.271744 -2.788689,11.175377 -0.195989,4.249325 -1.84456,8.182822 -2.966306,12.216607 -0.665788,5.03405 -0.688784,10.13523 -0.964729,15.20201 -0.183254,5.76063 -0.175601,11.5596 0.641415,17.26802 1.20455,12.50617 0.407685,25.13269 1.13341,37.68622 0.458142,3.13628 1.624115,6.15458 2.941106,9.02484 2.988128,4.67438 4.31324,10.15736 7.44351,14.77203 1.990449,3.37314 4.842722,6.27104 8.444079,7.89444 2.911448,1.48619 5.846847,3.00123 8.97379,3.95693 4.366872,2.36881 6.965545,7.56692 12.111713,8.62257 3.312513,0.59926 6.713816,0.37378 9.935453,1.37366 3.948451,1.04038 8.011708,1.58091 12.098201,1.47007 12.01397,0.0481 24.05888,-0.1207 36.01529,-1.29923 3.17807,-0.69953 6.37488,-1.30808 9.60056,-1.75682 5.86637,-1.42894 11.66783,-3.23231 17.15776,-5.76371 3.64971,-1.26216 7.12012,-2.96001 10.69521,-4.40536 3.99668,-2.10274 5.93697,-6.44194 9.27839,-9.29645 2.41762,-2.39508 5.22324,-4.26174 8.268,-5.73979 2.68786,-1.9303 4.93467,-4.42222 7.2012,-6.81832 2.43234,-2.68028 1.78824,-6.57191 2.0329,-9.88232 0.034,-1.60685 0.25557,-3.33226 -0.64988,-4.75791 -0.78761,-3.51552 -0.48335,-7.18226 -0.72864,-10.75879 -0.13454,-5.22457 -0.47202,-10.46008 -1.34228,-15.61621 -1.02276,-4.64958 -2.8041,-9.13583 -5.06327,-13.3168 -3.08958,-5.58641 -5.68135,-11.84195 -10.9776,-15.76172 -3.69889,-2.73809 -8.05412,-4.46599 -12.41506,-5.83251 -4.17832,-0.7297 -8.45536,-0.18549 -12.67347,-0.34723 -3.15201,-0.11053 -6.35338,0.11251 -9.45714,-0.5286 -1.32592,-1.12785 -3.10668,-1.93895 -4.79848,-2.13381 1.90048,-1.90299 4.69837,-2.75306 6.25602,-5.05008 1.32566,-1.715836 2.78901,-3.347717 3.59014,-5.397838 1.61471,-2.72337 1.94696,-5.962892 1.78154,-9.067708 0.0372,-0.782462 -0.33593,-1.962872 0.79618,-1.804086 2.702,0.02333 4.87034,1.946143 7.32573,2.834935 4.05402,1.8785 8.57154,2.316029 12.96514,2.737179 1.63017,0.101676 3.43297,0.197307 4.71835,-1.01242 1.06294,-0.880047 1.7906,-2.10518 2.9202,-2.951617 0.63245,-1.360759 0.12211,-3.083185 0.28848,-4.588447 -0.1007,-4.572738 0.22754,-9.167983 -0.18184,-13.727163 -0.4797,-2.712788 -3.37928,-4.180595 -3.92405,-6.901124 -0.86694,-3.31761 -2.16598,-6.623768 -4.56475,-9.147785 -2.41372,-3.209696 -5.80767,-5.434365 -9.19109,-7.496364 -2.43098,-1.38709 -4.81889,-2.847924 -7.33635,-4.079978 -4.08771,-2.30811 -8.43176,-4.172018 -13.00646,-5.244933 -4.28927,-1.233859 -8.5571,-2.297044 -12.9765,-2.942316 -9.78403,-0.408392 -19.58186,-0.579675 -29.3738,-0.661859 z m 63.82893,15.65024 c -0.43777,0.47502 0.19642,-0.455691 0,0 z m -14.85937,35.709937 c 0.92505,0.336576 -0.54642,1.009524 -0.31811,0.05128 0.0907,-0.06213 0.21298,-0.07149 0.31811,-0.05128 z m -8.23278,25.022437 c -0.0292,0.35352 -0.15215,0.13441 0,0 z m 55.33454,73.38982 c 0.75208,0.69851 -1.63564,-0.033 0,0 z m -24.42268,22.97156 c 0.49973,0.52894 -0.0322,0.55631 0,0 z"
       id="path592"
       transform="scale(0.75)" />
  </g>
  <g
     inkscape:groupmode="layer"
     id="layer4"
     inkscape:label="Bras"
     style="display:inline">
    <path
       style="fill:none;stroke:#000000;stroke-width:0.75px;stroke-linecap:butt;stroke-linejoin:miter;stroke-opacity:1"
       d="m 84.417667,111.94044 c 0.0651,0.31067 0.513375,-0.13934 0.652718,0 0.02565,0.0256 -0.03015,0.0887 0,0.10879 0.30117,0.20078 0.430747,0.10219 0.652717,0.43514 0.503858,0.75579 1.006928,1.4978 1.305428,2.39329 0.06533,0.19595 -0.05025,0.45168 0,0.65271 0.09664,0.38659 0.277845,0.55569 0.435143,0.87028 0.07743,0.15488 0.08128,0.92529 0,1.08786 -0.0162,0.0324 -0.08867,-0.0302 -0.108788,0 -0.08995,0.13493 -0.16629,0.2813 -0.217575,0.43514 -0.05437,0.1631 -0.01455,0.62019 -0.10878,0.7615 -0.32904,0.49355 -0.71748,0.76841 -1.196647,1.08786 -0.278355,0.18557 -0.36693,0.32636 -0.65271,0.32636 3.133905,0.1965 6.267888,0.78981 9.46435,0.54393 1.366115,-0.10509 2.682169,-0.46088 4.025069,-0.65272 0.910762,-0.13011 2.024518,-0.0332 2.828428,-0.43514 0.22574,-0.11287 1.30967,-0.0711 1.523,0 0.31727,0.10576 0.49285,0.32636 0.87028,0.32636"
       id="path7212" />
    <path
       style="fill:#ff8080;fill-opacity:1;stroke:#000000;stroke-width:0.75px;stroke-linecap:butt;stroke-linejoin:miter;stroke-opacity:1"
       d="m 103.8903,119.8818 c 0.3482,-0.46255 0.0124,-2.64804 0.21757,-3.26357 0.0162,-0.0487 0.0926,-0.0601 0.10879,-0.10879 0.13055,-0.39163 -0.13054,-0.9138 0,-1.30543 0.15848,-0.47542 0.0226,-0.8968 0.10879,-1.41421 0.22234,-1.3341 0.10878,-2.77534 0.10878,-4.13385 0.55749,-0.11168 3.48732,0.42896 3.69871,0.21757 0.0256,-0.0256 -0.0256,-0.0832 0,-0.10879 0.0424,-0.0424 0.36876,0 0.43515,0 -0.003,-0.74403 0.29823,-1.38239 0.43514,-2.06693 0.0321,-0.16035 -0.0554,-0.48654 0,-0.65271 0.059,-0.17699 0.21757,-0.30841 0.21757,-0.43514 -1.09887,-0.42176 -1.24696,-0.52285 -1.95814,0.54392 -0.0468,0.0702 -0.17046,0.38803 -0.21757,0.43515 -0.007,0.007 -0.292,0.20039 -0.32636,0.21757 -0.0649,0.0324 -0.16629,-0.0513 -0.21757,0 -0.0256,0.0256 0.0256,0.0831 0,0.10878 -0.0838,0.0838 -0.48415,0.32636 -0.54393,0.32636 -0.4791,0.18952 -1.14324,-0.16285 -1.63178,0 -0.0973,0.0324 -0.12235,0.17948 -0.21757,0.21757 -0.30548,0.12219 -0.49558,0.12893 -0.7615,0.21757 -0.0973,0.0324 -0.12584,0.17171 -0.21758,0.21757 -0.247,0.12351 -0.4995,0.23903 -0.7615,0.32636 -0.1032,0.0344 -0.22905,-0.0486 -0.32635,0 -0.0863,0.0431 -0.20586,0.21172 -0.21757,0.21757 -0.0649,0.0324 -0.15271,-0.0324 -0.21757,0 -0.0274,0.0137 -0.0862,0.17247 -0.10879,0.21757 -0.0546,0.1092 -0.67873,0.51319 -0.7615,0.7615 -0.0229,0.0688 0.0513,0.16629 0,0.21757 -0.0513,0.0513 -0.14877,-0.0229 -0.21757,0 -0.15429,0.0514 -0.15533,0.26412 -0.21757,0.32636 -0.0811,0.0811 -0.23095,0.0452 -0.32636,0.10879 -0.03626,0.0363 -0.07252,0.0725 -0.108785,0.10878 0,0.0363 0.02564,0.0832 0,0.10879 -0.297265,0.29726 -1.420326,0.44125 -1.631785,0.65271 -2.319374,0.0541 -4.658181,-0.10068 -6.962282,0.10879 -0.474992,0.0432 -0.938668,0.18099 -1.414214,0.21757 -0.614636,0.0473 -1.23472,-0.0473 -1.849356,0 -0.358915,0.0276 -0.592732,0.10879 -0.979071,0.10879 -0.752189,0 -1.749756,0.15046 -2.50207,0 -0.282783,-0.0566 -0.304872,-0.63123 -0.10879,-0.43515"
       id="path7216" />
    <path
       style="fill:#ff8080;fill-opacity:1;stroke-width:0.145048"
       d="m 144.35035,141.8395 c -1.13377,0.16694 -1.177,1.66845 -2.19044,2.06438 -1.19798,0.82341 -2.80615,0.31083 -4.06247,1.04876 -0.95917,0.60497 -2.15824,0.72681 -2.96469,1.56918 -0.55278,0.36393 -0.63437,1.07184 -1.24528,1.33611 -1.11482,0.99766 -2.59909,1.52491 -4.08908,1.44979 -3.4917,0.0382 -7.02222,0.0206 -10.51264,0.39536 -1.24592,0.10309 -2.51063,0.0861 -3.7432,0.29591 -0.65409,0.29779 -0.17088,0.98012 0.21559,1.15472 -0.028,0.50571 0.48749,0.76171 0.87425,0.83855 0.18135,1.8192 0.19001,3.69127 0.017,5.50643 -0.89436,0.35519 -0.31277,1.74968 0.57377,1.52532 6.28723,0.19229 12.57892,0.16053 18.86827,0.2297 0.72356,0.18406 1.67196,1.09365 2.37317,0.44137 0.42295,-1.99733 0.19489,-4.10606 0.44465,-6.1178 0.28099,-2.46181 0.21479,-5.01948 0.45793,-7.4382 1.59492,-0.0219 3.21419,0.4516 4.79252,0.14505 0.86637,-0.60739 0.82288,-1.85897 1.05952,-2.7984 0.10838,-0.67116 0.0857,-1.70763 -0.86887,-1.64623 z"
       id="path10295"
       transform="scale(0.75)" />
    <path
       style="fill:#ff8080;fill-opacity:1;stroke-width:0.145048"
       d="m 144.30503,141.39444 c -1.31465,0.3692 -1.61484,2.13321 -3.01654,2.39074 -1.45692,0.32057 -2.97842,0.47072 -4.2953,1.24179 -1.19645,0.44984 -2.38352,1.18199 -3.04858,2.28553 -1.10471,0.94747 -2.49256,1.62973 -3.97169,1.5044 -4.78907,0.15075 -9.6006,0.17141 -14.35671,0.79228 -0.73889,0.0395 -1.11259,0.94525 -0.56234,1.46804 0.28815,0.57094 0.92308,0.96961 1.20939,1.45359 -0.0733,1.6132 0.14744,3.28454 -0.13344,4.86589 -0.70394,0.72543 -0.18616,2.29454 0.95535,2.03616 6.28346,0.22143 12.5796,0.30381 18.86262,0.24154 0.87311,0.27032 2.11988,1.20097 2.83778,0.17876 0.52912,-1.81531 0.3457,-3.76851 0.54086,-5.63827 0.1486,-2.5412 0.25684,-5.08546 0.45946,-7.6231 1.53613,-0.0569 3.20153,0.59281 4.66135,-0.079 1.07608,-0.90416 1.14078,-2.51241 1.16491,-3.81939 0.0233,-0.69566 -0.63304,-1.30136 -1.30712,-1.29892 z"
       id="path10334"
       transform="scale(0.75)" />
    <path
       style="fill:#ff8080;fill-opacity:1;stroke-width:0.145048"
       d="m 144.34072,141.01823 c -1.55515,0.18449 -1.95182,2.2835 -3.55791,2.41594 -2.62143,0.52515 -5.39048,1.37878 -7.15436,3.52081 -1.15451,1.26827 -2.91709,1.46551 -4.53303,1.45347 -4.58717,0.20292 -9.23352,0.1462 -13.78744,0.8636 -1.09551,0.23909 -1.11153,1.75492 -0.32267,2.37403 0.45334,0.58812 1.11533,1.08505 0.85583,1.92066 -0.0954,1.53557 0.18587,3.13232 -0.46177,4.56795 0.0461,0.80318 0.51653,1.95098 1.51014,1.72129 6.31725,0.27237 12.66552,0.0935 18.96986,0.25406 0.95149,0.35335 2.32363,1.15466 3.11544,0.0794 0.7292,-1.45752 0.51741,-3.1862 0.70968,-4.76599 0.16985,-2.79794 0.27513,-5.60134 0.53569,-8.39282 1.60405,0.0515 3.82349,0.71635 5.03361,-0.80485 0.72992,-1.16467 0.89293,-2.67264 0.66942,-4.00892 -0.18497,-0.68658 -0.87443,-1.20331 -1.58249,-1.19862 z"
       id="path10373"
       transform="scale(0.75)" />
    <ellipse
       style="fill:#000000;fill-opacity:1;stroke-width:0.75"
       id="path10481"
       cx="84.510948"
       cy="111.94426"
       rx="1.7794545"
       ry="1.3636464" />
    <path
       style="fill:none;stroke:#555555;stroke-width:0.75px;stroke-linecap:butt;stroke-linejoin:miter;stroke-opacity:1"
       d="m 70.656286,125.37548 c 0.398563,-1.27434 0.271963,-2.41006 0.271963,-3.75311 0,-2.03415 0.159917,-4.55596 0.652715,-6.52714 0.04975,-0.19901 0.370275,-0.24055 0.435142,-0.43515 0.114278,-0.34283 -0.05209,-0.81819 0.217571,-1.08785 0.05128,-0.0513 0.16629,0.0513 0.217572,0 0.341027,-0.34103 0.701104,-1.13625 1.087856,-1.523 0.975188,-0.97519 3.481177,-1.87856 3.481132,-3.10039"
       id="path64212" />
    <path
       style="fill:none;stroke:#000000;stroke-width:0.75px;stroke-linecap:butt;stroke-linejoin:miter;stroke-opacity:1"
       d="M 78.48885,123.74369 77.23782,118.3588"
       id="path64280" />
    <path
       style="fill:none;stroke:#5c5c5c;stroke-width:0.75px;stroke-linecap:butt;stroke-linejoin:miter;stroke-opacity:1"
       d="m 78.48885,123.74369 c -2.292,-2.64282 -3.68136,-4.44052 -2.121315,-7.56061 0.03345,-0.0669 0.133695,-0.96204 0.217568,-1.08785 0.113782,-0.17068 0.32961,-0.25925 0.435142,-0.43515 0.153847,-0.25641 0.03817,-0.63106 0.217575,-0.87028 0.184612,-0.24615 0.468097,-0.40656 0.65271,-0.65271 0.110438,-0.14726 0.0958,-0.74852 0.217575,-0.87029 0.114667,-0.11467 0.320468,-0.10291 0.435142,-0.21757 0.126105,-0.12611 0.309038,-0.74418 0.435143,-0.87029 0.190845,-0.19084 0.897007,-0.46186 1.087852,-0.65271 0.0513,-0.0513 -0.0513,-0.16629 0,-0.21757 0.18,-0.18 1.523003,-1.28814 1.523003,-1.52301 -8e-6,-0.28146 -0.145058,-0.54393 -0.217583,-0.8159"
       id="path64282" />
  </g>
  <g
     inkscape:groupmode="layer"
     id="layer5"
     inkscape:label="BULO cadre"
     style="display:inline">
    <rect
       style="fill:#ffffff;fill-opacity:1;fill-rule:nonzero;stroke:#f9ff12;stroke-width:0.75;stroke-opacity:1"
       id="rect65933"
       width="62.007828"
       height="18.493563"
       x="104.6518"
       y="110.09109" />
  </g>
  <g
     inkscape:groupmode="layer"
     id="layer6"
     inkscape:label="BULO itself"
     style="display:inline">
    <path
       style="fill:none;stroke:#ff0000;stroke-width:2.005;stroke-linecap:butt;stroke-linejoin:miter;stroke-opacity:1;stroke-miterlimit:4;stroke-dasharray:none"
       d="m 106.98356,125.97379 c 1.21667,-2.41098 -1.64039,-5.49444 0,-7.83257 0.38367,-0.54682 0.92842,-1.01153 1.52649,-1.52299 0.46035,-0.39371 -0.35486,-0.90082 0,-1.30543 1.04288,-1.18916 0.76323,-2.43661 0.76323,-3.69872"
       id="path72375" />
    <path
       style="fill:none;stroke:#ff0000;stroke-width:1.976;stroke-linecap:butt;stroke-linejoin:miter;stroke-opacity:1;stroke-miterlimit:4;stroke-dasharray:none"
       d="m 107.31056,111.6132 c 0.23662,0.077 0.4623,0.19368 0.70985,0.23089 0.72679,0.1092 1.49857,-0.0678 2.23235,0 0.925,0.0857 1.8239,0.31962 2.72843,0.45916 0.37877,0.0584 0.43307,0.009 0.74412,0.15306 0.0493,0.0228 0.11606,-0.0228 0.16536,0 0.5409,0.25033 0.8288,0.88101 1.2402,1.07139 0.40679,0.18827 1.71723,1.51901 1.81895,1.98974 0.0216,0.10005 -0.024,0.2065 0,0.30611 0.0321,0.1341 0.13624,0.24794 0.16537,0.38264 0.027,0.12507 -0.0227,0.25684 0,0.38265 0.0157,0.087 0.1141,0.28776 0.16535,0.38264 0.0171,0.0316 0.0256,1.10043 0,1.14791 -0.16461,0.30473 -0.5531,0.82994 -0.90947,0.99488 -0.12548,0.058 -0.27957,0.0704 -0.41341,0.15305 -0.0607,0.0374 -0.18068,0.13747 -0.24804,0.15306 -0.0802,0.0186 -0.1696,-0.0242 -0.24803,0 -0.0943,0.0292 -0.15916,0.11192 -0.24805,0.15305 -0.19874,0.092 -0.44355,0.0362 -0.66144,0.0765 -0.66491,0.12309 -1.28988,0.15306 -1.98431,0.15306 -0.45246,0 -0.96437,0.0584 -1.40556,0 -0.19862,-0.0263 -0.38085,-0.12253 -0.57875,-0.15306 -0.13593,-0.021 -0.27888,0.0276 -0.41341,0 -0.28218,-0.0581 -0.65295,-0.22696 -0.90947,-0.3061 -0.0785,-0.0242 -0.17715,0.0394 -0.24803,0 -0.11816,-0.0656 -0.20748,-0.17255 -0.33073,-0.22959 -0.10598,-0.0246 -0.46014,-0.0982 -0.57876,-0.15306 -0.0826,-0.051 -0.16535,-0.10204 -0.24804,-0.15306 0,-0.0255 0.0196,-0.0585 0,-0.0765 -0.004,-0.004 -0.41339,-0.1126 -0.41339,-0.0765 0,0.0765 0.16536,0 0.24803,0 1.54358,0 -0.16693,-0.0485 0.74412,0.0765 0.65939,0.0904 1.3268,0.12816 1.98433,0.22959 0.17193,0.0265 0.32911,0.1067 0.49607,0.15306 0.38779,0.10767 0.76762,0.11854 1.15751,0.22959 0.55041,0.15675 1.07767,0.38394 1.57092,0.61222 0.12987,0.0602 0.38137,0.0469 0.49607,0.15306 0.0436,0.0403 0.0315,0.12141 0.0826,0.15306 0.0459,0.0282 0.1195,-0.0283 0.16537,0 0.0513,0.0316 0.0486,0.10559 0.0826,0.15305 0.12007,0.16671 0.37867,0.27395 0.49607,0.38264 0.20519,0.18992 0.66752,1.17045 0.74412,1.45403 0.0341,0.12619 0.0256,0.26378 0.0826,0.38265 0.0559,0.11655 0.19209,0.18955 0.24804,0.30611 0.0877,0.18263 0.63548,1.90878 0.57876,2.06626 -0.0661,0.18345 -0.69337,0.18841 -0.8268,0.22958 -0.15245,0.0471 -0.26418,0.17435 -0.41339,0.2296 -0.0511,0.0189 -0.11949,-0.0283 -0.16537,0 -0.0649,0.04 -0.10049,0.11302 -0.16536,0.15305 -0.0688,0.0425 -0.16782,-0.0186 -0.24803,0 -0.35353,0.0818 -0.71381,0.229 -1.07483,0.30611 -0.57539,0.12289 -1.15616,0.0994 -1.73628,0.15306 -0.31166,0.0289 -0.578,0.10721 -0.90948,0.0765 -0.89136,-0.0825 -0.27403,-0.0478 -1.15751,-0.22958 -0.12694,-0.0262 -0.2903,0.038 -0.41341,0 -0.35638,-0.10995 -0.62172,-0.27978 -0.99216,-0.38264 -0.3803,-0.1056 -0.89368,-0.14574 -1.24019,-0.30612 -0.0171,-0.008 -0.55715,-0.30554 -0.57876,-0.22958 -0.0822,0.28883 -0.059,0.59485 -0.0885,0.89226"
       id="path75647" />
    <path
       style="fill:none;stroke:#ff0000;stroke-width:2.242;stroke-linecap:butt;stroke-linejoin:miter;stroke-opacity:1;stroke-miterlimit:4;stroke-dasharray:none"
       d="m 120.45873,112.46441 c 0.0242,1.00366 -0.0677,2.01881 0.0769,3.00814 0.0231,0.15828 -0.0731,0.45873 0,0.60164 0.0115,0.0224 0.0688,-0.0238 0.0769,0 0.0213,0.0627 -0.0143,0.29246 0,0.37602 0.0617,0.36201 0.0769,0.68319 0.0769,1.05284 0,0.73349 0.0769,1.43576 0.0769,2.18091 0,0.48209 -0.11362,1.51123 0,1.9553 0.0406,0.15824 0.0909,0.47844 0.15394,0.60163 0.11734,0.22933 0.061,-0.13755 0.15391,0.22561 0.0475,0.18564 0.32326,0.91751 0.46177,1.05285 0.0182,0.0178 0.0655,-0.0224 0.0769,0 0.0229,0.0449 -0.0162,0.10285 0,0.15041 0.11801,0.34596 0.53322,0.91451 0.76962,1.20326 -0.0658,0.34889 0.16547,0.0865 0.23088,0.1504 0.0181,0.0178 0,0.0502 0,0.0752 0.0513,0.0502 0.0958,0.10787 0.15392,0.15041 0.47246,0.34624 -0.1473,-0.14717 0.30784,0.0752 0.0229,0.0113 0,0.0502 0,0.0752 0.0513,0.025 0.0995,0.0575 0.15393,0.0752 0.91311,0.29743 2.11407,0.30081 3.07845,0.30081 0.46112,0 1.28059,0.12637 1.69315,-0.0752 0.10309,-0.0504 0.10663,-0.17941 0.15392,-0.22561 0.17942,-0.17534 0.59192,-0.30939 0.76962,-0.52643 0.46151,-0.56372 0.75035,-1.39123 1.07746,-2.0305 0.39847,-0.77875 0.91053,-1.51614 1.23139,-2.33131 0.45987,-1.16834 0.81632,-3.33592 0.61568,-4.51222 -0.009,-0.0553 -0.0711,-0.0946 -0.0769,-0.15041 -0.0409,-0.40052 0.15582,-2.40466 -0.0769,-2.63213"
       id="path82585" />
    <path
       style="fill:none;stroke:#ff0000;stroke-width:1.95;stroke-linecap:butt;stroke-linejoin:miter;stroke-opacity:1;stroke-miterlimit:4;stroke-dasharray:none"
       d="m 137.38462,112.46154 c 0.0985,0.44339 0.27726,1.1894 0.30768,1.61538 0.0899,1.25816 0,2.58664 0,3.84616 0,0.84315 0.13833,1.67878 0.0769,2.53846 -0.0297,0.41575 -0.11677,0.82292 -0.15385,1.23077 -0.034,0.37345 -0.0946,2.98874 0,3.46154 0.005,0.0251 0.0588,-0.0182 0.0769,0 0.03,0.03 0,0.26074 0,0.30769 1.17951,0 2.35901,0 3.53852,0 1.12517,0 2.26002,0.0388 3.38461,0 0.71857,-0.0248 1.63281,-0.26125 2.38462,-0.15385 0.3648,0.0521 0.70965,0.18486 1.07692,0.23077 0.20981,0.0262 0.40524,0.1305 0.61539,0.15385 0.30581,0.034 0.61691,-0.0306 0.92307,0 0.52226,0.0522 1.00908,0.15384 1.53847,0.15384 0.16943,0 0.61538,0.0815 0.61538,-0.15384"
       id="path82587" />
    <path
       style="fill:none;stroke:#ff0000;stroke-width:2.25;stroke-linecap:butt;stroke-linejoin:miter;stroke-opacity:1;stroke-miterlimit:4;stroke-dasharray:none"
       d="m 158.92308,125.84615 c -1.32115,-0.94367 -0.73559,-0.54142 -3.23078,-2.07692 -1.23966,-0.76287 -2.55352,-1.33783 -3.23076,-2.6923 -0.78769,-1.57539 -0.57881,-3.6318 0.38461,-5.07693 0.16092,-0.24137 0.41026,-0.41025 0.61538,-0.61539 1.14722,-1.1472 1.87425,-1.51053 3.38463,-2.07692 0.3239,-0.12146 0.58925,-0.26 0.92307,-0.30769 0.4449,-0.0636 0.21364,0.0475 0.69231,0.15385 0.46104,0.10245 0.15909,-0.13048 0.61538,0.0769 1.02406,0.46548 0.18519,0.14297 0.76924,0.46154 0.17204,0.0938 2.36244,1.34028 2.46154,1.53846 0.10687,0.21375 0.14579,0.5313 0.23076,0.76923 0.0849,0.23782 0.22784,0.45273 0.3077,0.69231 0.20739,0.62217 0.18029,1.28607 0.30769,1.92308 0.3359,1.6795 0.39972,2.58656 0.15384,4.30769 -0.0241,0.16833 -0.0716,0.56897 -0.15384,0.6923 -0.0318,0.0477 -0.11654,0.0334 -0.15385,0.0769 -1.10161,1.65242 0.3414,-0.40117 -0.61539,0.6923 -0.81551,0.93202 0.47094,-0.19638 -0.61538,0.76924 -0.4099,0.36435 -0.88255,0.65456 -1.30769,1 -0.14072,0.11433 -0.24696,0.26662 -0.38462,0.38461 -0.13575,0.11637 -0.36927,0.15385 -0.53846,0.15385 -0.13564,0 -0.33045,0.0328 -0.46154,0 -0.46149,-0.11537 -0.46154,-1.01292 -0.46154,-1.38462"
       id="path82589" />
  </g>
  <g
     inkscape:groupmode="layer"
     id="layer3"
     inkscape:label="Tete"
     style="display:inline">
    <path
       style="fill:none;stroke:#000000;stroke-width:0.75px;stroke-linecap:butt;stroke-linejoin:miter;stroke-opacity:1"
       d="m 82.894672,76.14996 c 0.47832,1.047113 0.386453,0.854055 1.087853,1.08786 0.362685,0.120893 0.48519,0.702758 0.652717,0.870285 0.450165,0.450158 -0.01763,-0.687908 0.435143,0.217568 0.22251,0.44502 0.963255,1.398397 1.305427,1.74057 0.0135,0.612622 0.490545,0.05542 0.652718,0.217575 0.152423,0.152422 0.26337,0.5382 0.435143,0.65271 0.248797,0.16587 0.658837,0.006 0.870284,0.217575 0.0513,0.0513 -0.0513,0.16629 0,0.217567 0.102563,0.10257 0.332573,-0.102562 0.435143,0 0.0513,0.0513 -0.0513,0.16629 0,0.217575 0.168398,0.168405 0.843562,0.09542 1.087853,0.217568 0.44868,0.22434 0.888457,0.444232 1.305427,0.652717 0.416385,0.208193 4.384995,0 5.004142,0 1.15947,0 2.805188,0.27777 3.916278,0 0.91027,0.39399 0.25167,-0.34341 0.43515,-0.435142 0.17406,-0.08703 0.47865,0.08703 0.65271,0 0.30153,-0.150765 0.53173,-0.531728 0.65272,-0.652718 0.0912,-0.09117 0.52085,-0.151635 0.65271,-0.217567 0.35473,-0.177368 0.46742,-0.68499 0.65271,-0.870286 0.10901,-0.109004 0.51009,-0.292507 0.65272,-0.435142 0.0754,-0.07541 0.36015,-0.832792 0.43514,-0.870285 0.12974,-0.06488 0.30541,0.06488 0.43514,0 0.12974,-0.06488 -0.0649,-0.305408 0,-0.435143 0.0917,-0.183472 0.34341,-0.25167 0.43515,-0.435142 0.0649,-0.129735 -0.10257,-0.33258 0,-0.435143 0.30849,-0.308497 0.99693,-0.779362 1.30542,-1.08786 0.1849,-0.184897 0.25025,-0.467812 0.43515,-0.65271 0.31815,-0.318157 0.94315,-0.435667 1.08785,-0.652717 0.30637,-0.459561 0.34634,-1.063436 0.65272,-1.522999 1.55149,-2.32724 1.95814,-4.766449 1.95814,-7.614996 0,-0.514835 0.0737,-1.666906 -0.21757,-1.958141 -0.0513,-0.05128 -0.16629,0.05129 -0.21757,0 -0.10257,-0.102565 0.072,-0.309206 0,-0.435143 -0.25947,-0.454071 -0.53548,-0.903666 -0.87029,-1.305428 -0.0536,-0.06425 -0.59564,-0.349543 -0.65271,-0.435142 -0.12722,-0.190824 -0.0904,-0.461891 -0.21758,-0.652715 -0.0445,-0.06676 -3.62093,-0.435142 -4.78657,-0.435142 -0.47237,0 -3.911208,-0.0051 -3.916278,0 -0.0513,0.05129 0,0.145047 0,0.217571 -0.290092,0.07252 -0.602827,0.08384 -0.870285,0.217571 -0.278587,0.139295 -0.557062,0.765878 -0.870285,0.870286 -0.137602,0.04587 -0.314452,-0.08046 -0.435142,0 -0.134933,0.08995 -0.09445,0.329605 -0.217568,0.435142 -0.45687,0.391598 -1.522222,1.02536 -2.17572,1.305428 -0.279502,0.119788 -1.317067,0.546838 -1.74057,0.652714 -0.180562,0.04514 -0.48789,-0.08241 -0.65271,0 -0.35613,0.178066 -0.731722,0.474648 -1.08786,0.652714 -0.233197,0.1166 -0.201945,-0.116599 -0.435142,0 -0.375765,0.187883 -0.430178,0.43018 -0.65271,0.652714 -0.05903,0.05903 -0.760298,0.135079 -0.870285,0.217571 -0.664838,0.498628 -1.293308,1.024372 -1.958145,1.523 -0.15105,0.113287 -0.766403,0.331262 -0.870285,0.435142 -0.581025,0.581023 -1.428645,1.863787 -1.958138,2.393285 -0.0513,0.05129 -0.16629,-0.05128 -0.217575,0 -0.126105,0.126104 -0.309037,0.744181 -0.435142,0.870285 -0.0513,0.05128 -0.14505,0 -0.217575,0 -0.145043,0.217572 -0.332138,0.412368 -0.435143,0.652714 -0.117787,0.274846 -0.08384,0.602831 -0.217567,0.870285 -0.03247,0.06487 -0.16629,-0.05129 -0.217575,0 -0.84912,0.849123 0.05033,0.116846 -0.217568,0.652714 -0.468292,0.936584 -0.680745,1.589745 0,2.610855 z"
       id="path665" />
    <path
       style="fill:none;stroke:#000000;stroke-width:0.75px;stroke-linecap:butt;stroke-linejoin:miter;stroke-opacity:1"
       d="m 95.296238,75.932392 c 0.362617,0 0.73017,-0.05962 1.087852,0 0.101175,0.01688 0.118073,0.19269 0.217575,0.217568 0.54012,0.13503 0.992123,0.06593 1.523002,0.217575 1.39752,0.399293 0.66054,0.382702 1.740571,0.65271 0.740992,0.18525 6.656812,0.129675 6.744702,0.217575 0.2901,0.290092 -0.36261,0.217567 0.21758,0.217567"
       id="path667" />
    <path
       style="fill:#ff8080;fill-opacity:1;stroke:#000000;stroke-width:0.75px;stroke-linecap:butt;stroke-linejoin:miter;stroke-opacity:1"
       d="m 102.91124,68.970107 c -0.89435,-0.04437 -1.95815,0.314841 -1.95815,-0.652713 0,-0.145048 -0.10256,-0.332579 0,-0.435143 0.10901,-0.109003 0.72765,-0.07493 0.87029,-0.217571 0.10878,-0.108786 -0.10879,-0.543929 0,-0.652714 0.0576,-0.05759 0.56313,0 0.65271,0 0.0896,0 0.59512,-0.05759 0.65271,0 0.26847,0.268463 -0.14739,1.747601 -0.21756,1.958141 z"
       id="path669" />
    <path
       style="fill:#ff8080;fill-opacity:1;stroke-width:0.290095"
       d="m 136.15318,82.486726 c -1.04112,-0.04421 -2.15183,0.0458 -2.89415,0.775664 -1.54828,0.351154 -3.63799,0.119676 -4.23811,2.013668 -0.92671,1.725348 -3.14221,0.899023 -4.5027,2.004036 -1.28878,-0.0211 -2.27367,0.794472 -3.19331,1.570026 -1.10039,-0.02311 -1.43502,1.115305 -1.72924,1.883352 -1.08169,0.483614 -1.39047,1.824104 -2.47714,2.262401 -0.46091,0.821284 -0.56149,1.88934 -1.68675,2.10319 -0.98368,0.606047 -1.70887,1.595721 -1.93094,2.687912 -0.78846,0.429339 -0.75529,1.469193 -1.50034,1.991571 -0.68665,1.019734 -0.61773,3.032384 0.81533,3.202374 0.50835,1.77232 2.22353,2.63648 3.60012,3.58426 0.38382,1.2814 1.70503,0.57992 2.60746,0.69635 1.11627,0.64774 2.53078,0.47187 3.52477,1.40854 2.17709,0.51838 4.55665,0.35919 6.74981,-0.0312 0.90619,-0.83056 2.09256,-0.87791 3.27943,-0.77226 1.21714,-0.0384 2.35821,-0.54692 3.40805,-1.0669 0.94785,-1.0852 -0.82329,-1.78559 -1.73084,-1.64545 -1.85938,0.023 -3.6246,-0.50769 -5.39008,-0.92971 -1.56678,0.10753 -2.52637,-1.39127 -2.04484,-2.81029 0.032,-0.81218 0.13226,-1.832564 1.21364,-1.597226 2.76284,-0.382221 5.39849,0.719946 8.17026,0.421636 2.40181,-0.23201 5.11677,0.40065 7.31414,-0.776889 0.57849,-0.45839 0.15965,-1.457032 1.07539,-1.581358 0.70338,-0.584028 0.3645,-1.6798 1.22837,-2.157016 0.62611,-2.62273 0.52502,-5.424152 0.44477,-8.111897 -0.28877,-1.110363 -1.57178,-1.828992 -1.16151,-3.162716 0.19098,-1.96506 -2.22054,-1.965696 -3.57684,-1.923244 -1.79138,-0.02454 -3.58317,-0.05579 -5.37475,-0.03886 z m 0.89295,5.91692 c 0.5201,0.593088 1.6446,0.471051 1.84426,1.469173 0.43506,0.768669 0.33113,1.576252 -0.22437,2.202343 0.0876,1.037568 -1.46905,0.710888 -1.86239,1.500902 -0.51825,0.56275 -1.4159,1.643522 -1.99723,0.444775 -0.59755,-1.272036 -2.33836,-1.24666 -2.72758,-2.623888 0.73752,-0.765761 1.26056,-1.991269 2.2726,-2.389885 1.04179,0.154495 1.78582,-0.433859 2.69471,-0.60342 z"
       id="path4060"
       transform="scale(0.75)" />
    <path
       style="fill:#ff8080;fill-opacity:1;stroke-width:0.290095"
       d="m 137.75891,82.182466 c -1.88272,-0.05576 -3.7733,0.06939 -5.48348,0.887849 -1.40373,0.212055 -3.32363,0.630172 -3.64262,2.228407 -2.56042,1.467738 -5.81212,1.533282 -8.13796,3.529868 -1.227,1.282421 -2.20836,2.799975 -3.51344,4.035834 -0.70763,1.337391 -1.98102,2.076596 -2.95421,3.173482 -0.94603,1.884309 -3.09907,3.753967 -2.53153,6.046674 0.70337,1.15683 1.64155,2.19172 2.49414,3.21767 1.50903,0.71783 2.56758,2.68976 4.44491,2.32303 2.48909,0.27247 4.57537,2.02653 7.18779,1.61365 2.11324,0.12186 4.097,-0.54906 6.08633,-1.08049 1.68668,-0.1308 3.6574,-0.32208 4.92368,-1.52923 0.22899,-1.58404 -2.01548,-1.88862 -3.18651,-1.87032 -2.05944,-0.3858 -4.42216,-0.48936 -6.16452,-1.69978 -0.29036,-0.87177 -0.0586,-1.92229 0.13541,-2.7627 5.10862,-0.359872 10.29235,0.75125 15.35975,-0.14958 1.40642,-0.212368 1.36559,-1.819946 2.33492,-2.563828 1.9071,-2.575348 1.20974,-6.001941 1.42668,-8.991248 0.0613,-1.737258 -1.33614,-3.094676 -1.21364,-4.850027 -0.74032,-2.022613 -3.48746,-1.352583 -5.15483,-1.558881 -0.8036,-0.0087 -1.60726,-0.0045 -2.41087,-3.8e-4 z m -0.88049,6.735645 c 1.91243,0.06787 2.54884,2.940257 0.77283,3.724209 -1.00496,0.258964 -1.73133,2.102661 -2.85675,1.018166 -0.6057,-0.819806 -1.94566,-1.380807 -2.20178,-2.344558 0.71681,-1.25066 1.88728,-2.309788 3.40069,-2.198376 0.3029,-0.03721 0.57469,-0.224462 0.88501,-0.199441 z"
       id="path4099"
       transform="scale(0.75)" />
    <path
       style="fill:#ff8080;fill-opacity:1;stroke-width:0.290095"
       d="m 137.96288,81.892371 c -3.11798,0.03645 -6.61038,0.36269 -9.09947,2.415381 -2.5189,2.480813 -6.80249,2.040755 -9.0598,4.962213 -2.15563,2.402927 -4.40607,4.743723 -6.42969,7.250677 -1.00435,1.832696 -3.2687,4.135168 -1.74794,6.289738 1.87497,2.94812 4.87364,5.29224 8.43385,5.61784 3.41601,1.42179 7.25239,1.42101 10.7679,0.34721 2.03052,-0.56791 4.814,-0.32109 6.10962,-2.26634 0.1343,-1.72703 -2.25218,-1.83946 -3.47151,-2.14795 -1.93374,-0.42268 -4.28518,-0.35786 -5.8478,-1.68618 -0.39027,-1.4531 0.17794,-2.62967 1.83056,-2.08151 4.51003,-0.082 9.09737,0.37475 13.56715,-0.19619 2.43029,-1.700634 3.85616,-4.76944 3.74274,-7.732015 0.19646,-2.635736 0.20554,-5.332205 -0.90242,-7.787501 -0.0167,-1.926027 -1.89771,-3.216925 -3.74347,-2.961576 -1.38283,-0.03792 -2.76653,-0.02881 -4.14972,-0.0238 z m -1.42611,7.448984 c 1.61002,-0.239339 2.51077,2.187605 0.98813,2.928148 -0.86685,0.587718 -2.06848,1.846662 -2.99614,0.623251 -0.62765,-0.61251 -2.31805,-1.465935 -0.9445,-2.276 0.75857,-0.795391 1.8518,-1.275822 2.95251,-1.275399 z"
       id="path4138"
       transform="scale(0.75)" />
    <path
       style="fill:#ff8080;fill-opacity:1;stroke-width:0.290095"
       d="m 138.33286,81.602842 c -3.60296,-0.08705 -7.40019,0.469771 -10.25304,2.856757 -3.04239,1.888543 -7.04548,2.28733 -9.24422,5.395118 -2.73158,3.228345 -6.08597,6.158231 -7.78017,10.108538 -1.00837,2.932125 1.97994,5.066815 3.86019,6.774175 2.58311,1.82896 5.84168,2.37567 8.87339,3.03183 4.22614,0.13993 8.54135,-0.62478 12.48259,-2.14285 1.44836,-0.47816 1.12085,-2.30424 -0.12238,-2.80746 -2.51509,-1.29187 -5.75556,-0.74125 -8.0966,-2.36382 -0.46763,-1.71326 1.06631,-1.54083 2.37459,-1.43745 4.23525,-0.21634 8.58672,0.45338 12.75511,-0.45667 2.13558,-1.095978 3.11792,-3.662672 3.66982,-5.881225 0.47037,-3.837278 0.56701,-8.104154 -1.39778,-11.569808 -1.5372,-2.396546 -4.81194,-1.200643 -7.1215,-1.507135 z m -1.60289,8.086967 c 0.96085,0.210746 1.80433,1.55564 0.60852,2.189312 -0.79631,1.062029 -2.30623,1.416704 -3.24147,0.240801 -1.4868,-0.807132 0.44084,-1.997227 1.26294,-2.148516 0.44325,-0.139902 0.90168,-0.27766 1.37001,-0.281597 z"
       id="path4177"
       transform="scale(0.75)" />
    <path
       style="fill:#ff8080;fill-opacity:1;stroke-width:0.290095"
       d="m 138.52664,81.371673 c -3.4808,0.02105 -7.24365,0.147138 -10.08704,2.446544 -3.40396,2.051505 -7.64819,2.901519 -10.19911,6.227872 -2.695,3.215107 -6.13562,6.127124 -7.53805,10.190831 -0.74927,3.18367 2.40373,5.4001 4.61294,7.04198 4.22303,2.54684 9.3515,3.33677 14.18148,2.4235 2.6783,-0.56435 5.74168,-0.79081 7.90736,-2.60235 0.76697,-1.7235 -1.2977,-2.92539 -2.74967,-3.13042 -2.04377,-0.72264 -4.5784,-0.52232 -6.29484,-1.94455 -0.008,-0.73809 1.4838,-0.24145 1.93321,-0.46347 4.30275,-0.27024 8.70464,0.058 12.94606,-0.72467 3.11362,-1.923281 4.30898,-5.820546 4.03641,-9.320437 0.14619,-3.477304 0.041,-7.693425 -3.07803,-9.942357 -1.59868,-0.748187 -3.89227,-0.01805 -5.67072,-0.202473 z m -1.89299,8.781042 c 1.73283,0.178745 0.15454,2.520521 -1.06802,2.185345 -0.72962,0.05866 -2.3559,-0.927679 -1.13432,-1.49297 0.63967,-0.440481 1.42186,-0.710401 2.20234,-0.692375 z"
       id="path4216"
       transform="scale(0.75)" />
    <path
       style="fill:#ff8080;fill-opacity:1;stroke-width:0.290095"
       d="m 139.49211,81.001688 c -3.92227,-0.02164 -8.06951,0.272383 -11.4021,2.571761 -3.79311,2.0108 -8.08914,3.48151 -10.80151,7.016675 -2.59332,3.067678 -5.71465,6.024759 -7.00874,9.918756 -0.29366,3.4728 3.06682,5.86803 5.71125,7.42859 5.53051,3.28012 12.34463,2.71328 18.29979,1.06463 1.51134,-0.44805 4.1034,-1.32194 3.2902,-3.39786 -1.33626,-2.33883 -4.53891,-2.0834 -6.78268,-2.90945 -0.94975,-0.23315 -2.19147,-0.74909 -0.44921,-0.7308 4.35903,-0.56374 8.93444,0.30891 13.16127,-1.04886 3.69839,-2.230616 4.28989,-6.914107 4.17863,-10.84739 0.001,-3.348247 -0.80473,-7.256336 -3.88513,-9.097214 -1.43726,0.01039 -2.87451,0.02078 -4.31177,0.03116 z m -4.80753,10.343703 c 0.17756,1.141595 -0.4001,-1.077501 0,0 z m 0.4952,0.521265 c 1.53439,-0.231568 0.44191,0.448684 -0.16601,-0.06516 z"
       id="path4255"
       transform="scale(0.75)" />
    <path
       style="fill:#ff8080;fill-opacity:1;stroke-width:0.290095"
       d="m 138.55383,80.731424 c -4.19779,-0.219811 -8.26647,1.093403 -11.88229,3.149482 -3.57468,1.867131 -7.39843,3.586833 -9.92297,6.875433 -2.52406,3.055924 -5.77427,5.951204 -6.70904,9.948021 -0.24057,3.737 3.3724,6.18681 6.30957,7.71457 5.17971,2.93432 11.4202,2.63439 16.99719,1.15996 1.7976,-0.5381 4.69299,-1.12045 4.69081,-3.46471 -0.7892,-2.89032 -4.44497,-2.90314 -6.78707,-3.66525 -1.35258,-0.30924 1.84057,-0.16993 2.12402,-0.2737 3.47002,-0.27711 7.14416,0.13175 10.45362,-1.09749 3.98231,-2.541634 4.2839,-7.768022 4.12119,-12.019863 -0.17321,-2.786204 -0.87097,-6.006282 -3.18688,-7.79499 -1.92816,-0.831765 -4.169,-0.424027 -6.20815,-0.531463 z m -2.92021,11.021347 c 0.1202,0.379923 -0.17692,0.35863 0,0 z"
       id="path4372"
       transform="scale(0.75)" />
    <ellipse
       style="fill:#000000;fill-opacity:1;stroke-width:0.96077"
       id="path4795"
       cx="102.08004"
       cy="68.697723"
       rx="1.1583943"
       ry="1.219164" />
    <ellipse
       style="fill:#000000;fill-opacity:1;fill-rule:nonzero;stroke:#000000;stroke-width:2.25;stroke-miterlimit:4;stroke-dasharray:none;stroke-opacity:1"
       id="path102734"
       cx="113.08652"
       cy="61.097237"
       rx="2.0435557"
       ry="1.8362508" />
  </g>
</svg>
