<svg width="256" height="256" viewBox="0 0 256 256" fill="none" xmlns="http://www.w3.org/2000/svg">
<g clip-path="url(#clip0_10_73)">
<path d="M128.025 256C198.704 256 256 198.704 256 128.025C256 57.3469 198.704 0.0506592 128.025 0.0506592C57.3469 0.0506592 0.0506592 57.3469 0.0506592 128.025C0.0506592 198.704 57.3469 256 128.025 256Z" fill="#19191E" stroke="black" stroke-width="0.177427"/>
<path d="M128 247C193.722 247 247 193.722 247 128C247 62.2781 193.722 9 128 9C62.2781 9 9 62.2781 9 128C9 193.722 62.2781 247 128 247Z" stroke="#F0F0F0" stroke-width="2"/>
<path fill-rule="evenodd" clip-rule="evenodd" d="M114.429 43.8666H133.705C135.891 43.8666 139.165 43.4904 140.761 44.2108C157.167 73.9239 173.575 103.641 189.983 133.361C193.769 140.187 197.556 147.014 201.342 153.841C202.889 156.477 206.031 160.081 206.505 163.307C202.605 170.477 198.704 177.648 194.802 184.82C161.819 184.877 128.832 184.934 95.842 184.992H71.059C67.9826 184.992 62.7533 185.535 61.077 184.476L52.2997 167.782C51.5673 166.38 48.9238 163.873 49.7181 161.414L114.429 43.8666ZM116.495 45.5876L171.396 142.654H109.955C106.226 149.194 102.497 155.734 98.7678 162.274H203.923C182.299 123.382 160.671 84.4867 139.04 45.5876H116.495V45.5876ZM114.773 46.9645C99.2283 75.4162 83.6815 103.871 68.1333 132.328L56.6023 153.325C55.0674 155.959 51.923 159.882 51.6113 162.791C55.0534 169.158 58.4954 175.526 61.9375 181.894C62.0523 181.837 62.1669 181.779 62.2817 181.722L116.495 84.139L117.011 84.4832L146.785 140.933H168.126V140.761L114.773 46.9645ZM116.495 87.9252L63.6586 183.099H179.313C183.865 183.099 189.456 183.587 193.425 182.755C197.438 177.332 200.506 170.317 203.579 164.167V163.995H95.6699V163.823L127.337 108.406L116.495 87.9252ZM128.198 110.643C122.576 120.682 116.954 130.721 111.331 140.761H144.375L128.198 110.643Z" fill="#F0F0F0" stroke="#F0F0F0" stroke-width="0.532281" stroke-linejoin="round"/>
</g>
<defs>
<clipPath id="clip0_10_73">
<rect width="256" height="256" fill="white"/>
</clipPath>
</defs>
</svg>
