<svg width="256" height="256" viewBox="0 0 256 256" fill="none" xmlns="http://www.w3.org/2000/svg">
<path d="M108.259 104.038C120.176 97.043 132.093 90.0391 144.788 82.585C156.826 90.1862 169.037 97.9001 181.248 105.614C169.011 112.393 156.774 119.172 144.537 125.95C132.447 118.643 120.349 111.345 108.259 104.038Z" fill="#12DB90"/>
<path d="M59 43.609C71.1505 35.7739 83.301 27.9303 95.6071 20C108.458 27.8004 120.695 35.2285 132.923 42.648C120.574 49.7039 108.216 56.7597 95.8663 63.8156C83.5776 57.08 71.2888 50.3445 59 43.609Z" fill="#12DB91"/>
<path d="M95.8662 63.8155C108.215 56.7597 120.573 49.7038 132.923 42.6479C132.923 52.3357 132.923 62.0234 132.923 72.196C123.209 77.9619 113.288 83.8576 103.359 89.762C101.086 91.0174 98.8217 92.2727 96.5489 93.528C96.3242 93.4761 96.1255 93.3895 95.9267 93.2683C95.9094 83.4507 95.8835 73.6331 95.8662 63.8155Z" fill="#068B5A"/>
<path d="M95.8664 63.8155C95.8923 73.6331 95.9096 83.4507 95.9355 93.2682C93.4466 92.0649 90.9491 90.8615 88.4603 89.6667C78.6517 83.8576 68.8518 78.0484 59 72.2219C59 62.6034 59 53.1062 59 43.6089C71.2888 50.3444 83.5776 57.0799 95.8664 63.8155Z" fill="#0FB97A"/>
<path d="M108.259 104.038C120.349 111.345 132.439 118.644 144.537 125.942C144.52 135.803 144.511 145.672 144.494 155.533C144.261 155.706 144.002 155.819 143.716 155.879C141.556 154.633 139.387 153.377 137.226 152.131C127.28 146.226 117.333 140.313 107.464 134.452C107.317 132.833 107.178 131.413 107.049 129.993C107.455 121.353 107.853 112.696 108.259 104.038Z" fill="#0FBA7A"/>
<path d="M151.745 174.787C151.745 194.258 151.745 213.737 151.745 233.442C149.645 234.654 147.614 235.831 145.583 237C145.583 221.858 145.583 206.716 145.583 190.111C141.029 192.587 138.462 193.99 135.895 195.383C128.403 199.072 120.902 202.76 113.409 206.448C113.859 199.695 114.308 192.942 114.766 186.189C117.117 184.882 119.476 183.583 121.826 182.276C121.792 183.462 121.766 184.657 121.731 185.843C121.731 188.605 121.731 191.366 121.731 195.609C129.734 190.405 136.63 185.912 143.535 181.428C144.053 177.722 144.563 174.017 145.211 169.333C147.562 171.116 149.325 172.45 151.088 173.792C150.993 173.878 150.803 173.982 150.811 174.043C150.855 174.268 150.967 174.476 151.062 174.683C151.278 174.753 151.511 174.796 151.745 174.787Z" fill="#CD6300"/>
<path d="M144.494 155.542C144.511 145.681 144.52 135.811 144.537 125.95C156.774 119.172 169.011 112.393 181.248 105.614C181.248 112.124 181.248 118.644 181.248 125.154C178.837 124.115 176.426 123.076 173.228 121.691C166.436 126.132 159.298 130.799 152.16 135.465C152.134 140.989 152.099 146.512 152.073 152.035C149.541 153.204 147.018 154.373 144.494 155.542Z" fill="#068B5A"/>
<path d="M152.151 135.465C159.289 130.799 166.427 126.132 173.22 121.691C176.417 123.076 178.828 124.115 181.24 125.154C186.157 128.582 191.074 132.019 196 135.448C189.009 139.283 182.026 143.127 175.043 146.962C167.412 143.127 159.782 139.3 152.151 135.465Z" fill="#12DB90"/>
<path d="M92.5308 157.377C97.2147 154.122 101.899 150.867 106.582 147.611C109.028 146.183 111.482 144.754 113.937 143.326C121.429 147.655 128.922 151.983 136.423 156.304C129.242 160.511 122.069 164.719 114.896 168.926C107.429 165.074 99.9801 161.221 92.5308 157.377Z" fill="#13DB91"/>
<path d="M151.079 173.774C149.316 172.441 147.553 171.099 145.203 169.316C144.555 173.999 144.036 177.705 143.526 181.41C141.176 180.215 138.816 179.012 136.466 177.817C136.544 176.397 136.613 174.986 136.691 173.566C136.768 167.775 136.855 161.983 136.932 156.191C137.028 154.84 137.123 153.49 137.226 152.139C139.387 153.386 141.556 154.641 143.716 155.888C144.2 157.42 144.676 158.944 145.16 160.476C151.961 164.589 158.762 168.701 166.453 173.35C166.453 169.558 166.453 166.943 166.453 164.32C166.548 163.1 166.643 161.87 166.747 160.649C169.236 161.801 171.725 162.944 174.222 164.095C174.421 164.199 174.637 164.268 174.853 164.32C174.991 171.367 175.121 178.415 175.259 185.462C167.421 181.904 159.592 178.345 151.753 174.787C151.511 174.796 151.287 174.753 151.062 174.675C151.105 174.372 151.114 174.077 151.079 173.774Z" fill="#8D450B"/>
<path d="M113.928 143.326C111.474 144.755 109.028 146.183 106.583 147.612C100.68 143.984 94.769 140.348 88.4604 136.469C88.4604 120.955 88.4604 105.302 88.4604 89.6582C90.9493 90.8616 93.4468 92.065 95.9357 93.2597C96.1258 93.3809 96.3332 93.4675 96.5579 93.5195C96.627 106.558 96.6875 119.587 96.748 132.625C102.469 136.192 108.199 139.759 113.928 143.326Z" fill="#8A430B"/>
<path d="M92.5306 157.377C99.9799 161.23 107.429 165.082 114.879 168.926C114.559 174.458 114.23 179.999 113.911 185.531C111.69 184.449 109.477 183.358 107.256 182.276C102.287 179.246 97.3269 176.216 92.522 173.289C92.5306 167.766 92.5306 162.571 92.5306 157.377Z" fill="#0EB778"/>
<path d="M174.845 164.32C174.629 164.268 174.413 164.199 174.214 164.095C174.49 158.381 174.767 152.667 175.043 146.953C182.026 143.118 189.017 139.274 196.009 135.439C196.009 140.807 196.009 146.183 196.009 151.914C191.273 154.762 186.408 157.689 181.551 160.615C179.313 161.853 177.083 163.091 174.845 164.32Z" fill="#068B5A"/>
<path d="M135.896 195.383C138.462 193.989 141.029 192.587 145.583 190.111C145.583 206.716 145.583 221.858 145.583 237C142.662 236.013 139.75 235.026 135.896 233.719C135.896 220.568 135.896 207.98 135.896 195.383Z" fill="#8F450B"/>
<path d="M96.739 132.634C96.6785 119.596 96.618 106.566 96.5488 93.528C98.813 92.2726 101.086 91.0173 103.359 89.762C103.531 102.688 103.704 115.605 103.877 128.53C101.501 129.898 99.1241 131.266 96.739 132.634Z" fill="#CA6201"/>
<path d="M96.7393 132.634C99.1158 131.266 101.501 129.898 103.877 128.53C104.932 129.024 105.995 129.517 107.049 130.011C107.179 131.431 107.308 132.85 107.464 134.469C117.333 140.33 127.28 146.244 137.227 152.148C137.132 153.498 137.037 154.849 136.933 156.2C136.743 156.182 136.57 156.217 136.414 156.312C128.922 151.983 121.429 147.655 113.928 143.335C108.198 139.759 102.469 136.192 96.7393 132.634Z" fill="#E3751D"/>
<path d="M174.845 164.32C177.074 163.082 179.313 161.853 181.542 160.615C181.542 167.68 181.542 174.744 181.542 181.904C179.33 183.15 177.29 184.302 175.251 185.462C175.121 178.415 174.983 171.368 174.845 164.32Z" fill="#C86101"/>
<path d="M107.265 182.276C109.486 183.358 111.698 184.449 113.911 185.531C114.196 185.748 114.481 185.964 114.766 186.18C114.317 192.933 113.868 199.686 113.41 206.439C111.465 205.539 109.521 204.638 107.265 203.582C107.265 196.318 107.265 189.297 107.265 182.276Z" fill="#90460B"/>
<path d="M145.16 160.476C144.676 158.944 144.2 157.42 143.716 155.888C144.001 155.827 144.261 155.706 144.494 155.542C147.018 154.373 149.541 153.204 152.064 152.035L152.073 152.2C152.108 153.628 152.134 155.066 152.168 156.494C149.835 157.819 147.493 159.152 145.16 160.476Z" fill="#BD6209"/>
<path d="M114.766 186.181C114.481 185.964 114.196 185.748 113.911 185.531C114.239 179.999 114.559 174.467 114.879 168.926C122.051 164.719 129.233 160.511 136.406 156.304C136.57 156.208 136.743 156.174 136.933 156.191C136.855 161.983 136.768 167.775 136.691 173.567C131.73 176.467 126.778 179.367 121.818 182.267C119.467 183.575 117.117 184.882 114.766 186.181Z" fill="#088A59"/>
<path d="M136.466 177.817C138.816 179.012 141.176 180.216 143.526 181.41C136.621 185.903 129.725 190.388 121.723 195.6C121.723 191.358 121.723 188.596 121.723 185.834C126.64 183.159 131.557 180.493 136.466 177.817Z" fill="#E97018"/>
<path d="M151.08 173.774C151.114 174.077 151.105 174.372 151.054 174.666C150.967 174.45 150.855 174.242 150.803 174.025C150.794 173.965 150.984 173.861 151.08 173.774Z" fill="#DA6A00"/>
<path d="M152.082 152.2L152.073 152.035C152.099 146.512 152.134 140.988 152.16 135.465C159.79 139.3 167.421 143.127 175.043 146.962C174.767 152.676 174.49 158.39 174.214 164.104C171.725 162.952 169.236 161.81 166.747 160.658C161.856 157.836 156.965 155.013 152.082 152.2Z" fill="#0FB97A"/>
<path d="M145.16 160.476C147.502 159.143 149.835 157.819 152.177 156.485C156.939 159.1 161.7 161.706 166.453 164.32C166.453 166.944 166.453 169.558 166.453 173.35C158.762 168.701 151.961 164.589 145.16 160.476Z" fill="#E97018"/>
</svg>
