<svg width="512" height="512" viewBox="0 0 512 512" fill="none" xmlns="http://www.w3.org/2000/svg">
<circle cx="256" cy="256" r="256" fill="#00384E"/>
<path d="M242.455 291.6C237.582 291.6 233.226 289.077 230.803 284.855C228.376 280.632 228.392 275.597 230.847 271.388L253.438 232.677C257.629 225.493 265.396 221.031 273.714 221.031H405.695V238.177H273.714C271.472 238.177 269.373 239.38 268.243 241.316L248.906 274.451H338.865V291.596H242.455V291.6Z" fill="url(#paint0_linear_11820_185297)"/>
<path d="M337.535 288.753H243.975C240.138 288.753 236.702 286.766 234.791 283.438C232.88 280.11 232.893 276.142 234.826 272.824L257.417 234.114C261.098 227.802 267.926 223.882 275.234 223.882H404.368V235.33H275.234C271.983 235.33 268.945 237.075 267.305 239.884L245.469 277.305H337.539V288.753H337.535Z" fill="url(#paint1_linear_11820_185297)"/>
<path d="M214.228 350.871C205.735 350.871 197.824 346.304 193.586 338.951L193.509 338.82C185.72 325.43 167.416 293.929 165.718 290.668C157.267 274.468 153.191 260.374 153.598 248.779C153.923 239.499 157.088 234.841 158.053 233.634L159.83 231.408L166.483 236.716L170.61 239.729L171.807 243.846C171.667 244.117 170.409 246.725 170.775 252.432C171.135 258.071 173.189 267.905 180.927 282.745C182.236 285.261 198.49 313.284 208.429 330.356C209.629 332.439 211.855 333.728 214.237 333.728H296.789C299.174 333.728 301.393 332.448 302.581 330.385L337.585 269.758C343.069 260.355 346.467 253.498 346.486 248.346C346.502 244.076 344.32 240.331 338.152 234.025L336.158 231.99L349.307 220.931L350.406 222.039C354.985 226.72 358.243 230.987 360.367 235.089C362.603 239.404 363.679 243.697 363.663 248.209C363.625 257.285 359.138 266.829 352.412 278.363L317.427 338.954C313.186 346.304 305.275 350.871 296.786 350.871H214.228Z" fill="white"/>
<path d="M296.778 348.02H214.226C206.749 348.02 199.785 343.998 196.052 337.527C193.412 332.989 170.115 292.938 168.242 289.349C148.645 251.778 159.026 236.974 160.275 235.41L169.223 242.55L164.749 238.98L169.373 242.349C169.303 242.457 162.456 253.504 178.391 284.059C179.869 286.897 198.788 319.474 205.956 331.785C207.666 334.747 210.828 336.575 214.226 336.575H296.778C300.176 336.575 303.341 334.75 305.038 331.804L340.042 271.181C352.389 250.011 352.405 244.527 340.179 232.031L348.363 224.025C365.614 241.655 363.773 253.211 349.943 276.926L314.952 337.527C311.216 344.001 304.252 348.02 296.778 348.02Z" fill="white"/>
<path d="M191.209 406C177.287 406 164.31 398.51 157.349 386.451L93.0569 275.092C86.0956 263.036 86.0956 248.053 93.0569 235.993L157.349 124.635C164.313 112.575 177.287 105.085 191.209 105.085H319.796C333.718 105.085 346.692 112.575 353.656 124.635C355.392 127.638 355.153 131.36 353.048 134.121L316.812 181.621C315.178 183.764 312.707 184.997 310.035 184.997C309.838 184.997 309.637 184.99 309.44 184.974C306.574 184.786 304.007 183.191 302.571 180.707C301.377 178.643 299.157 177.36 296.775 177.36H214.227C211.845 177.36 209.622 178.643 208.431 180.704C208.393 180.768 208.195 181.108 207.848 181.697C195.164 203.355 153.467 274.621 149.451 282.429C140.522 299.788 138.461 313.672 137.993 318.637L172.191 377.872C176.102 384.642 183.388 388.848 191.206 388.848H319.793C327.61 388.848 334.897 384.642 338.807 377.872L403.099 266.513C407.009 259.743 407.009 251.333 403.099 244.559L396.937 233.888C395.79 231.904 395.488 229.595 396.08 227.382C396.673 225.172 398.09 223.322 400.074 222.179C401.379 221.424 402.86 221.029 404.36 221.029C407.414 221.029 410.261 222.672 411.783 225.319L417.942 235.99C424.903 248.049 424.903 263.032 417.942 275.089L353.65 386.447C346.689 398.507 333.715 405.997 319.789 405.997H191.209V406ZM191.209 122.23C183.391 122.23 176.105 126.437 172.195 133.207L107.903 244.566C103.992 251.339 103.992 259.749 107.903 266.519L125.201 296.482C127.465 289.174 130.481 281.837 134.207 274.592C139.108 265.061 192.846 173.392 193.61 172.09C197.843 164.765 205.743 160.215 214.227 160.215H296.778C301.065 160.215 305.313 161.403 308.997 163.597L335.502 128.854C331.394 124.673 325.671 122.227 319.796 122.227H191.209V122.23Z" fill="url(#paint2_linear_11820_185297)"/>
<path d="M319.796 403.154H191.209C178.299 403.154 166.271 396.208 159.816 385.028L95.5248 273.669C89.0699 262.492 89.0699 248.601 95.5248 237.42L159.816 126.062C166.271 114.884 178.302 107.936 191.209 107.936H319.796C332.702 107.936 344.733 114.881 351.188 126.062C352.344 128.058 352.182 130.558 350.781 132.396L314.544 179.895C313.385 181.414 311.557 182.274 309.631 182.134C307.72 182.01 305.997 180.943 305.039 179.284C303.338 176.345 300.173 174.514 296.775 174.514H214.227C210.829 174.514 207.663 176.338 205.966 179.284C205.406 180.246 151.543 272.144 146.922 281.134C137.235 299.967 135.42 314.768 135.083 319.296L169.73 379.305C174.147 386.954 182.379 391.705 191.209 391.705H319.796C328.629 391.705 336.858 386.954 341.275 379.305L405.567 267.947C409.984 260.301 409.984 250.795 405.567 243.143L399.405 232.471C397.822 229.733 398.761 226.233 401.5 224.653C404.245 223.071 407.739 224.01 409.318 226.749L415.48 237.42C421.935 248.604 421.935 262.492 415.48 273.669L351.188 385.028C344.733 396.208 332.706 403.154 319.796 403.154ZM191.209 119.384C182.379 119.384 174.147 124.135 169.73 131.784L105.438 243.143C101.021 250.792 101.021 260.297 105.438 267.947L126.128 303.778C127.987 296.263 131.201 286.675 136.745 275.898C141.509 266.631 193.849 177.326 196.075 173.526C199.791 167.087 206.756 163.065 214.23 163.065H296.781C301.494 163.065 306.004 164.664 309.631 167.47L339.189 128.724C334.527 122.89 327.384 119.381 319.799 119.381H191.209V119.384Z" fill="url(#paint3_linear_11820_185297)"/>
<defs>
<linearGradient id="paint0_linear_11820_185297" x1="228.994" y1="256.318" x2="405.694" y2="256.318" gradientUnits="userSpaceOnUse">
<stop stop-color="#21E786"/>
<stop offset="0.631" stop-color="white"/>
</linearGradient>
<linearGradient id="paint1_linear_11820_185297" x1="233.368" y1="256.318" x2="404.366" y2="256.318" gradientUnits="userSpaceOnUse">
<stop stop-color="#21E786"/>
<stop offset="0.631" stop-color="white"/>
</linearGradient>
<linearGradient id="paint2_linear_11820_185297" x1="87.8356" y1="255.543" x2="423.171" y2="255.543" gradientUnits="userSpaceOnUse">
<stop stop-color="#21E786"/>
<stop offset="1" stop-color="white"/>
</linearGradient>
<linearGradient id="paint3_linear_11820_185297" x1="90.6824" y1="255.544" x2="420.324" y2="255.544" gradientUnits="userSpaceOnUse">
<stop stop-color="#21E786"/>
<stop offset="0.9973" stop-color="white"/>
</linearGradient>
</defs>
</svg>
