<?xml version="1.0" encoding="utf-8"?>
<!-- Generator: Adobe Illustrator 26.0.1, SVG Export Plug-In . SVG Version: 6.00 Build 0)  -->
<svg version="1.1" id="Layer_1" xmlns="http://www.w3.org/2000/svg" xmlns:xlink="http://www.w3.org/1999/xlink" x="0px" y="0px"
	 viewBox="0 0 256 256" style="enable-background:new 0 0 256 256;" xml:space="preserve">
<style type="text/css">
	.st0{fill:#FDEC09;}
	.st1{fill:#010101;}
</style>
<rect x="0" class="st0" width="256" height="256"/>
<path class="st1" d="M141.14,167.22c0-8.68-0.01-17.37,0.01-26.05c0-0.64-0.16-0.78-0.78-0.78c-17.35,0.02-34.69,0.01-52.04,0.03
	c-0.63,0-0.78-0.15-0.78-0.78c0.02-26.27,0.02-52.54,0-78.81c0-0.63,0.1-0.83,0.8-0.83c26.27,0.02,52.54,0.02,78.81,0
	c0.63,0,0.79,0.15,0.79,0.79c-0.02,35.21-0.02,70.43,0,105.64c0,0.61-0.12,0.79-0.77,0.79c-8.68-0.03-17.37-0.02-26.05-0.02
	L141.14,167.22z M127.73,86.82c-4.25,0-8.51,0.01-12.76-0.01c-0.5,0-0.66,0.11-0.65,0.64c0.02,8.51,0.02,17.01,0,25.52
	c0,0.49,0.08,0.67,0.63,0.67c8.53-0.02,17.06-0.02,25.59,0c0.5,0,0.61-0.14,0.6-0.62c-0.01-8.53-0.02-17.06,0-25.58
	c0-0.54-0.18-0.62-0.66-0.62C136.24,86.83,131.99,86.82,127.73,86.82z"/>
<path class="st1" d="M141.13,167.21c0.01,1.7,0.02,3.4,0.02,5.1c0,6.98-0.01,13.96,0.01,20.95c0,0.56-0.09,0.77-0.73,0.77
	c-17.39-0.02-34.78-0.02-52.17,0c-0.59,0-0.71-0.16-0.71-0.72c0.02-8.49,0.01-16.97,0.01-25.46c0-0.41-0.01-0.66,0.56-0.65
	c17.56,0.02,35.13,0.01,52.69,0.02c0.11,0,0.22,0.01,0.33,0.02C141.14,167.22,141.13,167.21,141.13,167.21z"/>
</svg>
