<?xml version="1.0" encoding="UTF-8"?>
<svg width="256px" height="256px" viewBox="0 0 256 256" version="1.1" xmlns="http://www.w3.org/2000/svg" xmlns:xlink="http://www.w3.org/1999/xlink">
    <title>Group 16</title>
    <defs>
        <polygon id="path-1" points="0 0 256 0 256 256 0 256"></polygon>
        <linearGradient x1="50%" y1="0%" x2="50%" y2="100%" id="linearGradient-3">
            <stop stop-color="#0C71CA" offset="0%"></stop>
            <stop stop-color="#1D9ED8" offset="100%"></stop>
        </linearGradient>
    </defs>
    <g id="Page-2" stroke="none" stroke-width="1" fill="none" fill-rule="evenodd">
        <g id="Group-16">
            <mask id="mask-2" fill="white">
                <use xlink:href="#path-1"></use>
            </mask>
            <g id="Path"></g>
            <g id="Group-3" mask="url(#mask-2)" fill="#FFFFFF">
                <g transform="translate(30.000000, 30.000000)" id="Oval">
                    <circle cx="98.5" cy="98.5" r="98.5"></circle>
                </g>
            </g>
            <g id="usdc" mask="url(#mask-2)" fill="#2775CA">
                <g transform="translate(45.000000, 49.000000)" id="Path">
                    <path d="M62.8441472,155.39401 C62.8441472,158.002469 60.7872144,159.4845 58.2465848,158.697041 C24.4811295,147.999103 0,116.554805 0,79.4534167 C0,42.3527216 24.4811295,10.9073143 58.2465848,0.209584418 C60.7872144,-0.573091768 62.8441472,0.90401804 62.8441472,3.51289245 L62.8441472,9.95321322 C62.8441472,11.6899905 61.4893774,13.734265 59.8226127,14.3001126 C33.1081024,24.042563 13.97088,49.5306615 13.97088,79.4090528 C13.97088,109.288137 33.1081024,134.780742 59.8226127,144.517924 C61.4893774,145.127927 62.8441472,147.127075 62.8441472,148.870438 L62.8441472,155.39401 Z"></path>
                    <path d="M89.6995369,131.107273 C89.6995369,133.02485 88.1108104,134.592642 86.1697368,134.592642 L79.1523338,134.592642 C77.2112602,134.592642 75.623237,133.02485 75.623237,131.107273 L75.623237,120.135507 C60.2662505,118.089535 52.7663923,109.596116 50.7360012,98.0580299 C50.3815443,96.0960347 51.9695676,94.3117087 54.0006619,94.3117087 L62.0322055,94.3117087 C63.7081397,94.3117087 65.1210443,95.488767 65.4740947,97.1405351 C66.9756136,104.021746 70.9906821,109.290747 83.3003237,109.290747 C92.3910183,109.290747 98.8352419,104.282697 98.8352419,96.7963011 C98.8352419,89.3029648 95.0388958,86.4741384 81.7123004,84.2949149 C62.0322055,81.6826228 52.7213819,75.8028836 52.7213819,60.5621996 C52.7213819,48.8054971 61.7248689,39.6617808 75.6682474,37.7011736 L75.6682474,26.9447625 C75.6682474,25.0280175 77.2576772,23.4595318 79.1973442,23.4595318 L86.2147472,23.4595318 C88.1558208,23.4595318 89.743844,25.0280175 89.743844,26.9447625 L89.743844,38.0065425 C101.085059,40.012261 108.27758,46.3660161 110.617418,56.904019 C111.057676,58.9104315 109.468949,60.7787339 107.396361,60.7787339 L99.9816005,60.7787339 C98.392874,60.7787339 97.0699902,59.7328454 96.5847218,58.2094711 C94.5993411,51.5066238 89.743844,48.6333801 81.314943,48.6333801 C72.0048227,48.6333801 67.194336,53.0737215 67.194336,59.2997768 C67.194336,65.8756184 69.931531,69.1826247 84.2300698,71.2334545 C103.555004,73.8457466 113.530435,79.2875591 113.530435,95.5338783 C113.530435,107.856207 104.262512,117.828584 89.743844,120.135507 L89.743844,131.107273 L89.6995369,131.107273 Z"></path>
                    <path d="M108.710625,158.696696 C106.172095,159.485191 104.112375,158.001821 104.112375,155.392228 L104.112375,148.95389 C104.112375,147.038477 105.29544,145.25552 107.133902,144.600175 C133.848842,134.853207 152.985882,109.354364 152.985882,79.4629712 C152.985882,49.5708845 133.848842,24.071972 107.133902,14.3252821 C105.470631,13.7150131 104.112375,11.7152724 104.112375,9.97142867 L104.112375,3.5333678 C104.112375,0.923358114 106.172095,-0.598569628 108.710625,0.223559844 C142.475796,10.9322556 166.956522,42.3898211 166.956522,79.5066609 C166.914643,116.535428 142.475796,147.950413 108.710625,158.696696 Z"></path>
                </g>
            </g>
            <g id="exchange-cny-svgrepo-com-(1)" mask="url(#mask-2)" fill="url(#linearGradient-3)" fill-rule="nonzero">
                <g transform="translate(0.000000, 6.000000)" id="Shape">
                    <path d="M218.258999,160.506236 C234.540244,121.788253 224.355317,76.9910283 192.938337,49.1362289 C161.521357,21.2814294 115.861012,16.5653386 79.4225345,37.4115949 L67.2827573,16.1364316 C105.07748,-5.48330201 151.504308,-5.37135623 189.194512,16.4303889 C244.141689,48.1777829 265.190497,116.15542 239.577035,172.840196 L256,182.320321 L205.030068,209.437887 L203.010851,151.699764 L218.258999,160.506236 Z M37.7532387,84.4937641 C21.4719934,123.211747 31.6569203,168.008972 63.0739003,195.863771 C94.4908802,223.718571 140.151226,228.434661 176.589703,207.588405 L188.72948,228.863568 C150.934758,250.483302 104.507929,250.371356 66.8177255,228.569611 C11.8705483,196.822217 -9.178259,128.84458 16.4352024,72.1598035 L0,62.6919272 L50.9699316,35.5743615 L52.9891486,93.3124846 L37.741001,84.5060123 L37.7532387,84.4937641 Z"></path>
                </g>
            </g>
        </g>
    </g>
</svg>