<svg version="1.1" id="Layer_1" xmlns="http://www.w3.org/2000/svg" xmlns:xlink="http://www.w3.org/1999/xlink" x="0px" y="0px"
	 width="100%" viewBox="0 0 512 512" enable-background="new 0 0 512 512" xml:space="preserve">
<path fill="#FFFEFF" opacity="1.000000" stroke="none" 
	d="
M513.000000,198.000000 
	C513.000000,303.307739 513.000000,408.115479 513.000000,512.961609 
	C342.400574,512.961609 171.801163,512.961609 1.100867,512.961609 
	C1.100867,342.442291 1.100867,171.884491 1.100867,1.163351 
	C171.666534,1.163351 342.333252,1.163351 513.000000,1.163351 
	C513.000000,66.532135 513.000000,132.016068 513.000000,198.000000 
M296.320312,396.053925 
	C295.728729,396.731537 295.137146,397.409180 293.913300,398.577118 
	C290.921051,403.078766 287.130646,407.249603 285.099762,412.149689 
	C280.626648,422.941986 278.790070,434.470795 278.842957,446.140015 
	C278.928955,465.109985 279.422699,484.078094 279.765869,503.046631 
	C279.776917,503.655670 280.024048,504.260468 280.214691,505.104340 
	C300.018341,505.104340 319.665436,505.102173 339.312561,505.106384 
	C342.742279,505.107117 342.640106,503.171509 342.358734,500.454376 
	C341.118256,488.474915 339.744476,476.486237 339.215363,464.465851 
	C338.950989,458.459473 341.962524,452.914825 346.715881,449.167969 
	C357.993530,440.278198 369.589752,431.792603 381.719879,422.926514 
	C389.955872,416.676025 398.381989,410.657990 406.379791,404.116364 
	C416.431366,395.894836 421.817505,384.239807 428.041870,373.234070 
	C434.492920,361.827576 441.146271,350.534760 447.530457,339.091370 
	C450.832245,333.173065 453.742584,327.036346 457.060455,320.188995 
	C457.393829,317.959839 458.066589,315.713623 457.955566,313.506836 
	C457.863190,311.670959 457.255554,308.740417 456.146698,308.346100 
	C454.588898,307.792145 452.252472,308.903412 450.428772,309.709320 
	C440.717499,314.000702 436.603851,323.742157 429.510895,330.758575 
	C429.263794,330.545105 429.083405,330.285278 429.001892,329.204407 
	C430.119598,325.877899 431.165405,322.525116 432.368500,319.229767 
	C436.016083,309.239044 439.866669,299.318787 443.285187,289.251221 
	C443.942352,287.315796 442.995941,284.835846 442.789337,282.607117 
	C440.317505,282.837463 437.817169,282.915527 435.387268,283.370026 
	C434.353851,283.563354 433.467865,284.544891 431.904663,285.281464 
	C431.803986,285.632965 431.703308,285.984497 431.623505,286.448303 
	C431.623505,286.448303 431.576874,286.552521 430.939606,286.402802 
	C429.933868,287.597900 428.928131,288.792999 427.765350,290.652527 
	C426.845551,291.555389 425.580505,292.294220 425.061157,293.387329 
	C421.270416,301.366028 417.350586,309.301941 414.013580,317.472748 
	C410.063690,327.144257 406.900208,337.156342 400.588440,345.875977 
	C400.041931,343.922119 399.621490,342.419067 399.109467,340.307220 
	C398.799347,339.847168 398.489197,339.387146 398.033966,338.523346 
	C398.033966,338.523346 398.051453,338.094666 398.799988,338.034485 
	C404.485352,340.125244 403.455170,335.285828 403.963715,332.676666 
	C404.839417,328.183990 404.898651,323.533478 405.752319,319.034943 
	C407.299652,310.881012 409.338989,302.818665 410.796722,294.650970 
	C411.123199,292.821533 410.493866,289.968170 409.216919,288.949310 
	C407.974396,287.957886 404.885376,287.967194 403.406189,288.860413 
	C400.365112,290.696747 396.834259,292.904724 395.345490,295.880524 
	C392.337006,301.894073 390.067871,308.396973 388.396790,314.929077 
	C386.443207,322.565521 385.452759,330.448334 383.916107,338.932953 
	C383.064301,339.307556 381.164001,340.143311 378.543488,341.295807 
	C379.082642,334.278412 379.726166,328.032104 379.944366,321.771027 
	C380.010315,319.878845 379.366364,316.773499 378.212067,316.311523 
	C376.565125,315.652405 373.940735,316.503052 372.095886,317.429688 
	C363.272186,321.861877 361.660187,330.904877 359.182281,339.097839 
	C357.568085,344.434875 357.274475,350.171295 356.389282,355.728790 
	C355.094971,357.718933 352.630859,359.401154 350.034607,360.845917 
	C338.379791,367.331482 326.687439,373.749542 314.336884,380.289886 
	C311.220856,382.525757 308.104828,384.761627 304.365234,387.202301 
	C302.913910,388.808899 301.462585,390.415527 299.407104,392.253601 
	C298.537079,393.473694 297.667053,394.693817 296.320312,396.053925 
M179.168335,449.650391 
	C180.769928,451.118744 182.371536,452.587097 184.147415,454.761292 
	C187.854446,460.264008 189.588669,466.452576 188.884064,472.930389 
	C187.911728,481.869476 186.329849,490.749756 184.786026,499.616394 
	C183.836609,505.069183 184.396820,506.056763 189.959641,505.967194 
	C207.272354,505.688538 224.582870,505.231995 241.896332,505.072815 
	C246.177185,505.033478 247.899139,503.049988 248.117584,499.188080 
	C248.820221,486.766266 249.720291,474.348419 250.056915,461.915863 
	C250.249893,454.787994 249.349625,447.637665 249.204178,440.492065 
	C248.905930,425.837280 243.799561,412.752686 235.539398,401.025696 
	C225.561508,386.860046 211.543472,377.503632 195.551041,370.091339 
	C195.551041,370.091339 195.071686,369.974548 194.976822,369.446075 
	C194.665298,369.409729 194.353760,369.373383 193.383377,368.999634 
	C184.973846,364.362183 176.564331,359.724762 168.145889,355.082367 
	C171.507980,350.303406 170.227173,345.129913 169.058136,340.041138 
	C167.192001,331.917847 164.624603,323.954285 158.479752,318.038971 
	C156.777084,316.399902 153.085739,315.694824 150.666901,316.219910 
	C147.684631,316.867371 148.151993,319.744873 148.518570,322.720001 
	C149.265869,328.784943 148.915054,334.985168 148.394150,340.801392 
	C146.583786,339.766724 144.773422,338.732056 143.820557,338.187469 
	C144.290192,335.667877 145.059219,333.846466 144.881561,332.122589 
	C143.696472,320.624359 140.898972,309.528656 136.013245,298.284241 
	C134.408920,296.130798 132.804596,293.977386 130.998199,291.252808 
	C130.381317,290.832397 129.764450,290.411987 128.463150,289.712524 
	C126.506294,288.853333 124.619286,287.730957 122.578156,287.189270 
	C118.217987,286.032227 116.153336,287.981415 116.990883,292.382324 
	C118.438965,299.991150 120.211693,307.542542 121.490211,315.177979 
	C122.722916,322.539825 123.502899,329.977448 124.481781,337.381775 
	C122.160225,334.802643 121.133224,331.938995 119.861473,329.188507 
	C114.230072,317.008881 108.802902,304.722168 102.726181,292.766815 
	C100.037430,287.476898 95.899750,283.098450 89.456467,281.720398 
	C85.717377,280.920715 83.680145,282.320160 84.001083,285.830292 
	C84.323647,289.358002 85.343773,292.907654 86.588943,296.250000 
	C91.238297,308.730011 96.105400,321.128906 100.875099,333.517395 
	C94.275032,326.306030 87.703667,319.126007 80.786644,311.338898 
	C79.939812,310.826172 79.035286,310.388275 78.256126,309.787720 
	C74.890350,307.193542 71.194351,305.382568 67.573402,308.730804 
	C64.310822,311.747620 65.690643,315.391174 67.767372,318.601715 
	C70.795723,323.283447 74.286964,327.696045 76.990417,332.552094 
	C86.040588,348.808563 94.686287,365.290649 103.774849,381.525116 
	C108.556839,390.066956 112.881683,399.001984 121.245705,404.998932 
	C132.860397,413.326691 144.369904,421.804810 155.807388,430.374756 
	C162.632156,435.488495 169.232880,440.901215 176.133728,446.753357 
	C177.052414,447.518768 177.971115,448.284149 179.168335,449.650391 
M419.012665,188.215622 
	C422.989685,183.662933 427.092316,179.213181 430.920990,174.538971 
	C444.384155,158.102509 453.253479,139.491806 454.843445,118.194572 
	C456.315979,98.470634 452.569855,79.647736 443.176727,61.844120 
	C422.537994,22.725746 379.215668,2.103797 337.347321,9.204958 
	C304.259033,14.816958 281.469513,34.463642 266.699249,63.964661 
	C263.104706,71.144119 260.252563,78.695259 256.740021,86.812820 
	C255.912949,84.790329 255.343353,83.489426 254.843979,82.162102 
	C249.842102,68.867317 243.627518,56.284855 234.832031,44.971546 
	C221.225327,27.469748 204.613800,15.045082 182.480042,10.173772 
	C165.546188,6.446881 148.818176,6.861427 132.309616,11.051226 
	C107.301163,17.398258 87.969254,32.089066 73.775696,53.595947 
	C59.264450,75.584213 53.979794,99.934464 57.292381,125.730171 
	C60.184170,148.249008 71.640038,167.252090 86.569580,183.850388 
	C100.668678,199.525406 116.618538,213.346970 133.172699,226.447113 
	C152.443024,241.696671 171.594589,257.097626 190.687988,272.568298 
	C194.527542,275.679352 197.905716,279.366364 201.443817,282.841583 
	C209.580276,290.833435 218.794678,298.031769 225.525986,307.074829 
	C234.339752,318.915588 241.348541,332.127808 248.756775,344.967590 
	C250.642181,348.235352 252.665726,350.160431 256.352386,350.169708 
	C259.973053,350.178833 262.252289,348.542206 264.082916,345.190033 
	C270.297363,333.810364 275.929810,321.921295 283.604065,311.576630 
	C294.315338,297.138184 306.641083,283.894714 318.369202,270.219818 
	C319.122925,269.340942 320.675903,269.147552 322.397949,269.169312 
	C327.102783,274.783417 331.319763,280.927307 336.663086,285.848083 
	C341.132355,289.963898 346.554169,293.672699 352.220459,295.691772 
	C358.358978,297.879120 366.931732,294.062317 371.885406,284.651550 
	C377.735657,273.537476 381.461029,262.353027 379.726868,249.199844 
	C378.679199,241.253784 376.575958,234.216980 373.444519,227.001144 
	C378.921600,222.680038 382.098236,215.008636 391.567780,215.100449 
	C406.168701,213.578400 415.955078,203.990936 419.012665,188.215622 
M386.203033,257.998138 
	C387.195709,262.501251 389.611633,265.703827 394.282227,266.853333 
	C403.897064,269.219727 413.193024,268.275391 422.251556,264.316986 
	C434.005432,259.180695 438.944427,245.366104 435.654419,233.814514 
	C432.858521,223.997986 420.439636,220.196182 410.980316,224.821259 
	C405.863342,227.323166 401.200317,231.311264 397.240509,235.489487 
	C391.507172,241.539108 386.824677,248.485367 386.203033,257.998138 
z"/>
<path fill="#FE2CAE" opacity="1.000000" stroke="none" 
	d="
M321.857086,268.635254 
	C320.675903,269.147552 319.122925,269.340942 318.369202,270.219818 
	C306.641083,283.894714 294.315338,297.138184 283.604065,311.576630 
	C275.929810,321.921295 270.297363,333.810364 264.082916,345.190033 
	C262.252289,348.542206 259.973053,350.178833 256.352386,350.169708 
	C252.665726,350.160431 250.642181,348.235352 248.756775,344.967590 
	C241.348541,332.127808 234.339752,318.915588 225.525986,307.074829 
	C218.794678,298.031769 209.580276,290.833435 201.443817,282.841583 
	C197.905716,279.366364 194.527542,275.679352 190.687988,272.568298 
	C171.594589,257.097626 152.443024,241.696671 133.172699,226.447113 
	C116.618538,213.346970 100.668678,199.525406 86.569580,183.850388 
	C71.640038,167.252090 60.184170,148.249008 57.292381,125.730171 
	C53.979794,99.934464 59.264450,75.584213 73.775696,53.595947 
	C87.969254,32.089066 107.301163,17.398258 132.309616,11.051226 
	C148.818176,6.861427 165.546188,6.446881 182.480042,10.173772 
	C204.613800,15.045082 221.225327,27.469748 234.832031,44.971546 
	C243.627518,56.284855 249.842102,68.867317 254.843979,82.162102 
	C255.343353,83.489426 255.912949,84.790329 256.740021,86.812820 
	C260.252563,78.695259 263.104706,71.144119 266.699249,63.964661 
	C281.469513,34.463642 304.259033,14.816958 337.347321,9.204958 
	C379.215668,2.103797 422.537994,22.725746 443.176727,61.844120 
	C452.569855,79.647736 456.315979,98.470634 454.843445,118.194572 
	C453.253479,139.491806 444.384155,158.102509 430.920990,174.538971 
	C427.092316,179.213181 422.989685,183.662933 418.542114,188.214355 
	C418.364685,181.437057 419.784149,174.457230 418.606293,167.947357 
	C417.604919,162.412827 414.646698,156.388824 410.703033,152.421661 
	C404.286102,145.966476 392.850586,148.934692 386.140564,154.381226 
	C373.961639,164.266891 366.757812,177.389389 363.894928,192.752792 
	C362.646912,199.449860 364.914886,204.815964 370.673859,209.158356 
	C376.758240,213.746078 383.382385,215.224976 390.660156,215.180145 
	C382.098236,215.008636 378.921600,222.680038 372.808167,227.073364 
	C368.263824,222.456192 364.535339,217.602249 360.415253,213.107239 
	C346.199341,197.597626 327.612762,194.400696 308.131653,196.619965 
	C291.039886,198.567032 277.638824,207.950684 268.925812,222.932602 
	C265.755188,228.384491 263.415863,234.601242 262.077789,240.768555 
	C260.277618,249.065445 267.930176,257.419189 279.203644,259.042084 
	C289.459167,260.518433 299.912994,260.853790 310.294250,261.126526 
	C316.020844,261.276978 319.416870,263.957092 321.857086,268.635254 
M323.773743,124.223534 
	C319.630371,127.746338 314.828247,130.735535 311.463531,134.889099 
	C300.050385,148.977905 297.128632,160.816452 307.585999,176.230377 
	C314.602997,186.573227 329.409515,189.917099 338.378296,183.051346 
	C340.430176,181.480591 342.103333,179.278610 343.578644,177.113525 
	C352.292206,164.325745 358.879333,150.785843 355.892822,134.693329 
	C354.512970,127.257973 350.215881,121.775970 342.555908,119.583488 
	C335.723907,117.628006 330.072235,120.856682 323.773743,124.223534 
M265.120483,203.786621 
	C271.806824,206.425186 277.477081,205.337646 279.767059,199.850891 
	C284.251099,189.107346 288.299591,178.176346 286.126862,166.033295 
	C284.482513,156.843460 277.543091,150.716064 268.172607,150.859192 
	C260.474548,150.976776 252.481064,157.875229 249.188278,166.788193 
	C245.319336,177.260742 252.647598,196.071259 265.120483,203.786621 
z"/>
<path fill="#020102" opacity="1.000000" stroke="none" 
	d="
M322.127502,268.902283 
	C319.416870,263.957092 316.020844,261.276978 310.294250,261.126526 
	C299.912994,260.853790 289.459167,260.518433 279.203644,259.042084 
	C267.930176,257.419189 260.277618,249.065445 262.077789,240.768555 
	C263.415863,234.601242 265.755188,228.384491 268.925812,222.932602 
	C277.638824,207.950684 291.039886,198.567032 308.131653,196.619965 
	C327.612762,194.400696 346.199341,197.597626 360.415253,213.107239 
	C364.535339,217.602249 368.263824,222.456192 372.511475,227.270966 
	C376.575958,234.216980 378.679199,241.253784 379.726868,249.199844 
	C381.461029,262.353027 377.735657,273.537476 371.885406,284.651550 
	C366.931732,294.062317 358.358978,297.879120 352.220459,295.691772 
	C346.554169,293.672699 341.132355,289.963898 336.663086,285.848083 
	C331.319763,280.927307 327.102783,274.783417 322.127502,268.902283 
z"/>
<path fill="#030102" opacity="1.000000" stroke="none" 
	d="
M391.113953,215.140289 
	C383.382385,215.224976 376.758240,213.746078 370.673859,209.158356 
	C364.914886,204.815964 362.646912,199.449860 363.894928,192.752792 
	C366.757812,177.389389 373.961639,164.266891 386.140564,154.381226 
	C392.850586,148.934692 404.286102,145.966476 410.703033,152.421661 
	C414.646698,156.388824 417.604919,162.412827 418.606293,167.947357 
	C419.784149,174.457230 418.364685,181.437057 418.294128,188.456177 
	C415.955078,203.990936 406.168701,213.578400 391.113953,215.140289 
z"/>
<path fill="#060305" opacity="1.000000" stroke="none" 
	d="
M386.067047,257.608765 
	C386.824677,248.485367 391.507172,241.539108 397.240509,235.489487 
	C401.200317,231.311264 405.863342,227.323166 410.980316,224.821259 
	C420.439636,220.196182 432.858521,223.997986 435.654419,233.814514 
	C438.944427,245.366104 434.005432,259.180695 422.251556,264.316986 
	C413.193024,268.275391 403.897064,269.219727 394.282227,266.853333 
	C389.611633,265.703827 387.195709,262.501251 386.067047,257.608765 
z"/>
<path fill="#F8F6F7" opacity="1.000000" stroke="none" 
	d="
M427.922363,289.988098 
	C428.928131,288.792999 429.933868,287.597900 431.007202,286.779541 
	C432.543793,287.151337 434.089935,287.435516 435.462494,287.069214 
	C437.225281,286.598816 438.848663,285.605988 441.575470,284.362396 
	C438.944031,301.625854 429.372833,315.266754 425.273712,332.011627 
	C427.363739,330.862274 428.166748,330.420685 428.969757,329.979095 
	C429.083405,330.285278 429.263794,330.545105 429.581451,331.245544 
	C424.507324,330.555328 423.326813,334.543427 421.438599,337.926392 
	C420.967438,338.146088 420.848572,338.388794 420.553009,338.920288 
	C419.809570,340.064362 419.389038,340.991272 418.994385,341.932434 
	C419.020294,341.946686 419.011383,341.940369 418.567444,342.031769 
	C417.713776,343.378571 417.303986,344.633972 416.930695,345.931396 
	C416.967163,345.973419 416.870483,345.918304 416.524780,345.702454 
	C414.957214,347.296600 413.735321,349.106659 412.335571,350.881775 
	C411.878479,350.973511 411.802094,351.176300 411.609802,351.620667 
	C406.556061,358.533112 401.821014,365.279999 396.797546,372.162109 
	C395.538208,373.405518 394.567291,374.513733 393.608734,375.638947 
	C393.621094,375.655945 393.601562,375.660675 393.271851,375.846680 
	C390.242126,378.155029 387.542053,380.277344 384.626587,382.466064 
	C384.128967,382.872070 383.846771,383.211639 383.231873,383.568207 
	C381.434784,384.564240 379.970306,385.543274 378.375275,386.518799 
	C378.101562,386.606567 377.956268,386.694275 377.386505,386.862000 
	C374.259796,387.875122 371.555450,388.804626 368.710480,389.656677 
	C368.329041,389.642395 368.199982,389.798309 367.801941,390.084106 
	C365.987671,389.648346 364.554230,389.175354 363.050690,388.349182 
	C363.087555,386.840179 363.194489,385.684387 363.560089,384.299408 
	C365.431976,382.705505 366.975708,381.246796 368.670593,379.992401 
	C375.850769,374.678284 383.075897,369.424927 390.611206,364.080444 
	C397.317841,354.274628 404.498352,344.957458 409.877899,334.696136 
	C416.807892,321.477356 422.334534,307.519379 428.323975,293.817932 
	C428.771027,292.795258 428.082794,291.276337 427.922363,289.988098 
z"/>
<path fill="#20161C" opacity="1.000000" stroke="none" 
	d="
M81.132309,311.945984 
	C87.703667,319.126007 94.275032,326.306030 100.875099,333.517395 
	C96.105400,321.128906 91.238297,308.730011 86.588943,296.250000 
	C85.343773,292.907654 84.323647,289.358002 84.001083,285.830292 
	C83.680145,282.320160 85.717377,280.920715 89.456467,281.720398 
	C95.899750,283.098450 100.037430,287.476898 102.726181,292.766815 
	C108.802902,304.722168 114.230072,317.008881 119.861473,329.188507 
	C121.133224,331.938995 122.160225,334.802643 124.481781,337.381775 
	C123.502899,329.977448 122.722916,322.539825 121.490211,315.177979 
	C120.211693,307.542542 118.438965,299.991150 116.990883,292.382324 
	C116.153336,287.981415 118.217987,286.032227 122.578156,287.189270 
	C124.619286,287.730957 126.506294,288.853333 128.852539,290.200012 
	C129.174988,291.147064 129.108078,291.606567 128.764862,292.391144 
	C126.322380,291.785858 124.156189,290.855530 121.831024,289.711029 
	C121.155617,289.713104 120.639183,289.929291 120.078163,290.074036 
	C120.033569,290.002594 120.148361,290.125977 119.898102,290.208435 
	C119.727844,290.855194 119.807846,291.419434 120.010612,292.326416 
	C120.108543,293.393616 120.083725,294.118134 120.050240,295.145447 
	C120.311211,295.958557 120.580849,296.468872 120.979156,297.369812 
	C122.063530,303.843018 123.019234,309.925568 123.794273,316.132996 
	C123.975243,316.820374 124.336868,317.382874 124.837326,318.362854 
	C125.503029,324.117035 126.029877,329.453766 126.492897,334.144012 
	C131.190308,333.715088 135.743591,333.299347 141.474228,332.776123 
	C140.677734,327.646149 140.104767,321.617096 138.724121,315.779022 
	C137.549606,310.812653 135.392380,306.083405 133.799515,301.206909 
	C133.515961,300.338806 133.865875,299.263763 133.923279,298.284271 
	C134.613327,298.527679 135.303391,298.771088 135.993454,299.014496 
	C140.898972,309.528656 143.696472,320.624359 144.881561,332.122589 
	C145.059219,333.846466 144.290192,335.667877 143.820557,338.187469 
	C144.773422,338.732056 146.583786,339.766724 148.872406,341.261780 
	C151.025787,343.252686 152.700912,344.783234 154.659256,346.572540 
	C153.513550,346.741608 152.598129,346.876709 151.416061,346.943542 
	C150.374680,346.102417 149.599945,345.329590 148.736359,344.209473 
	C148.017273,343.609192 147.387024,343.356201 146.554367,343.102356 
	C146.069885,343.010071 145.890686,342.821045 145.823715,342.319824 
	C145.554596,342.083405 145.276108,342.061584 144.636734,342.001007 
	C143.184586,341.446014 142.093338,340.929749 140.974854,340.226227 
	C140.629837,340.023224 140.312012,340.007477 139.560669,339.971130 
	C136.273056,340.632324 133.418961,341.314148 130.309326,341.992188 
	C129.713089,341.981110 129.372437,341.973755 128.983795,341.686676 
	C128.626312,341.090698 128.316833,340.774475 128.007355,340.458252 
	C127.825783,340.666931 127.644218,340.875610 127.462646,341.084259 
	C127.963837,341.400208 128.465027,341.716156 129.000122,342.307587 
	C129.516602,343.050201 129.999176,343.517334 130.672974,344.307556 
	C131.589111,345.939575 132.314041,347.248474 133.067871,348.657837 
	C133.096756,348.758331 133.445984,348.963440 133.689087,349.062317 
	C134.006638,349.319489 134.081100,349.477814 134.131866,349.967712 
	C134.658829,350.873108 135.209488,351.446899 135.929321,352.116119 
	C136.098511,352.211578 136.169281,352.593597 136.158112,352.838959 
	C136.484848,353.402710 136.822754,353.721100 137.418030,354.297363 
	C139.777756,356.737823 141.880112,358.920410 144.122467,361.407318 
	C144.413666,362.635101 144.564896,363.558563 144.716125,364.481995 
	C144.429138,364.561646 144.142151,364.641266 143.855164,364.720886 
	C143.296204,363.886261 142.737244,363.051605 141.474213,361.165649 
	C141.646423,363.944427 141.742706,365.498169 141.458466,367.002197 
	C131.574112,359.029114 124.285210,349.507477 120.006142,337.686646 
	C119.975891,337.581146 119.755371,337.206116 119.493378,336.901886 
	C118.522987,334.743164 117.807610,332.891327 117.107315,331.033783 
	C112.081955,317.703827 107.622124,304.089935 98.997238,292.479095 
	C97.161316,290.007599 94.804794,287.778137 92.281761,286.020477 
	C90.946167,285.090027 88.736595,285.414185 86.921577,285.171936 
	C86.989426,286.883728 86.619675,288.761810 87.196754,290.280060 
	C90.714127,299.534027 94.438568,308.709473 98.110870,317.904327 
	C100.008446,322.655548 101.378662,327.729034 103.972778,332.067596 
	C109.650681,341.563690 115.957527,350.683716 122.034897,360.183075 
	C122.180817,360.718018 122.401291,360.910248 122.893906,361.200012 
	C123.119896,361.588379 123.175713,361.762177 122.849922,361.939331 
	C120.304878,361.964874 118.141434,361.987000 115.741028,361.893402 
	C115.347458,361.473175 115.190857,361.168701 115.011719,360.695068 
	C114.911736,360.293121 114.757912,360.134399 114.302269,359.771179 
	C111.230965,355.461487 108.263397,351.509979 105.562050,347.384186 
	C97.485268,335.048370 89.658653,322.526886 78.166214,312.826965 
	C79.293953,312.340363 80.213127,312.143188 81.132309,311.945984 
M140.097427,360.295166 
	C140.185669,360.346375 140.273895,360.397614 140.362122,360.448853 
	C140.244415,360.296936 140.126694,360.144989 139.757828,359.586121 
	C139.405350,359.603485 139.052887,359.620819 138.700409,359.638153 
	C139.130951,359.762115 139.561478,359.886108 140.097427,360.295166 
M134.774094,356.045502 
	C133.920624,354.269562 133.067169,352.493591 132.213699,350.717651 
	C131.708206,351.002441 131.202728,351.287231 130.697235,351.572021 
	C131.909607,353.236755 133.121964,354.901520 134.774094,356.045502 
M116.441093,359.288940 
	C117.106216,359.336670 117.771332,359.384399 118.436447,359.432129 
	C118.437599,359.150726 118.438751,358.869324 118.439903,358.587921 
	C117.774872,358.615753 117.109848,358.643585 116.441093,359.288940 
M126.550186,344.671967 
	C126.530388,345.242767 126.493729,345.814575 126.528419,346.382080 
	C126.530754,346.420227 127.072159,346.425476 127.362846,346.446014 
	C127.267448,345.896790 127.172050,345.347534 126.550186,344.671967 
z"/>
<path fill="#211D1F" opacity="1.000000" stroke="none" 
	d="
M315.008606,380.191956 
	C326.687439,373.749542 338.379791,367.331482 350.034607,360.845917 
	C352.630859,359.401154 355.094971,357.718933 356.389282,355.728790 
	C357.274475,350.171295 357.568085,344.434875 359.182281,339.097839 
	C361.660187,330.904877 363.272186,321.861877 372.095886,317.429688 
	C373.940735,316.503052 376.565125,315.652405 378.212067,316.311523 
	C379.366364,316.773499 380.010315,319.878845 379.944366,321.771027 
	C379.726166,328.032104 379.082642,334.278412 378.543488,341.295807 
	C381.164001,340.143311 383.064301,339.307556 383.916107,338.932953 
	C385.452759,330.448334 386.443207,322.565521 388.396790,314.929077 
	C390.067871,308.396973 392.337006,301.894073 395.345490,295.880524 
	C396.834259,292.904724 400.365112,290.696747 403.406189,288.860413 
	C404.885376,287.967194 407.974396,287.957886 409.216919,288.949310 
	C410.493866,289.968170 411.123199,292.821533 410.796722,294.650970 
	C409.338989,302.818665 407.299652,310.881012 405.752319,319.034943 
	C404.898651,323.533478 404.839417,328.183990 403.963715,332.676666 
	C403.455170,335.285828 404.485352,340.125244 398.268219,337.830261 
	C397.324585,337.669739 396.912720,337.713440 396.500854,337.757141 
	C397.060272,338.147125 397.619690,338.537109 398.179077,338.927063 
	C398.489197,339.387146 398.799347,339.847168 398.775513,340.643372 
	C397.678986,340.974884 396.916473,340.970245 395.806427,340.744537 
	C389.715363,338.978424 384.872040,341.040771 380.237671,344.198944 
	C372.903168,349.197113 365.509644,354.108582 357.791046,359.072998 
	C356.952484,359.528259 356.464020,359.967285 355.894562,360.561035 
	C355.655945,360.914764 355.450287,361.009857 354.839722,361.028748 
	C353.978577,361.500305 353.474335,361.944214 352.893860,362.537079 
	C352.667999,362.875092 352.472687,362.971466 351.980957,363.041016 
	C351.491852,363.346924 351.253540,363.586945 350.740417,364.052185 
	C347.032959,366.211426 343.600250,368.145416 339.934570,370.112396 
	C339.389801,370.260773 339.164307,370.469421 338.863281,370.927307 
	C338.701477,371.083344 338.252380,371.102448 338.001343,371.135284 
	C337.504669,371.389313 337.259033,371.610474 336.729431,372.053040 
	C332.448883,374.257874 328.452209,376.241302 324.088898,378.255951 
	C321.626648,379.279755 319.578949,380.407593 317.404541,381.177704 
	C316.798309,381.392426 315.817566,380.549622 315.008606,380.191956 
M404.265167,306.877075 
	C405.457397,301.698273 406.649597,296.519470 407.978210,290.748230 
	C396.608276,293.826019 386.737030,316.140686 388.338654,332.804413 
	C392.137970,333.052063 395.971252,333.301941 400.361359,333.588104 
	C401.581299,325.260101 402.865417,316.494080 404.265167,306.877075 
M375.226807,333.733246 
	C375.796814,328.881927 376.366821,324.030609 377.039520,318.305359 
	C362.705719,324.934845 363.482117,338.561707 360.209717,350.212799 
	C364.240814,347.845764 367.583557,344.710358 371.414734,342.376831 
	C374.628693,340.419220 375.592651,338.011780 375.226807,333.733246 
z"/>
<path fill="#241C21" opacity="1.000000" stroke="none" 
	d="
M195.996185,370.304138 
	C211.543472,377.503632 225.561508,386.860046 235.539398,401.025696 
	C243.799561,412.752686 248.905930,425.837280 249.204178,440.492065 
	C249.349625,447.637665 250.249893,454.787994 250.056915,461.915863 
	C249.720291,474.348419 248.820221,486.766266 248.117584,499.188080 
	C247.899139,503.049988 246.177185,505.033478 241.896332,505.072815 
	C224.582870,505.231995 207.272354,505.688538 189.959641,505.967194 
	C184.396820,506.056763 183.836609,505.069183 184.786026,499.616394 
	C186.329849,490.749756 187.911728,481.869476 188.884064,472.930389 
	C189.588669,466.452576 187.854446,460.264008 184.245392,454.145050 
	C185.165833,453.360046 185.988297,453.191315 187.099945,453.226807 
	C194.329071,463.252899 192.229950,473.939697 190.437973,484.627533 
	C189.450668,490.516174 188.659348,496.437653 187.833923,501.980133 
	C207.369080,501.980133 225.952927,501.980133 244.632019,501.980133 
	C245.147339,499.253845 245.839584,497.163116 245.893707,495.055969 
	C246.316223,478.605316 246.800873,462.152100 246.848679,445.698425 
	C246.864365,440.300415 246.370605,434.687256 244.862122,429.537994 
	C240.093445,413.260162 233.227173,398.004761 218.833099,387.746979 
	C211.472351,382.501434 203.602386,377.970459 195.973221,372.765106 
	C195.987991,371.710480 195.992096,371.007324 195.996185,370.304138 
z"/>
<path fill="#22161D" opacity="1.000000" stroke="none" 
	d="
M381.057251,423.143677 
	C369.589752,431.792603 357.993530,440.278198 346.715881,449.167969 
	C341.962524,452.914825 338.950989,458.459473 339.215363,464.465851 
	C339.744476,476.486237 341.118256,488.474915 342.358734,500.454376 
	C342.640106,503.171509 342.742279,505.107117 339.312561,505.106384 
	C319.665436,505.102173 300.018341,505.104340 280.214691,505.104340 
	C280.024048,504.260468 279.776917,503.655670 279.765869,503.046631 
	C279.422699,484.078094 278.928955,465.109985 278.842957,446.140015 
	C278.790070,434.470795 280.626648,422.941986 285.099762,412.149689 
	C287.130646,407.249603 290.921051,403.078766 294.493103,399.046570 
	C295.337097,399.949677 295.601288,400.383362 295.735352,401.127380 
	C283.250702,415.904419 281.686188,433.548401 281.289581,451.376434 
	C281.056824,461.838837 281.664398,472.324219 282.036194,482.794220 
	C282.258423,489.051880 282.755402,495.299805 283.164886,502.154358 
	C302.256622,502.154358 320.979462,502.154358 340.012390,502.154358 
	C338.819855,496.102539 337.515869,490.009888 336.431183,483.878448 
	C333.598145,467.864014 334.429321,453.261902 349.907440,442.981049 
	C360.107300,436.206116 369.606964,428.377075 379.708984,421.099854 
	C380.350983,421.834351 380.704132,422.489014 381.057251,423.143677 
z"/>
<path fill="#272124" opacity="1.000000" stroke="none" 
	d="
M80.959473,311.642456 
	C80.213127,312.143188 79.293953,312.340363 77.809082,312.693298 
	C76.408882,312.303894 75.618561,311.399780 74.730423,311.290497 
	C73.037155,311.082153 71.288071,311.327301 69.562164,311.384155 
	C69.674385,312.776611 69.436203,314.324707 69.971375,315.529205 
	C71.105827,318.082550 72.548042,320.516357 74.033554,322.893250 
	C78.509109,330.054291 83.404076,336.975525 87.517853,344.335510 
	C95.200020,358.079712 102.208221,372.202972 109.991135,385.887390 
	C113.146507,391.435425 116.860840,397.099030 121.619377,401.205139 
	C129.743561,408.215393 139.023376,413.866760 147.575363,420.405914 
	C157.300964,427.842438 166.760696,435.626648 176.242126,443.742371 
	C176.076950,444.876495 176.005630,445.528046 175.934326,446.179565 
	C169.232880,440.901215 162.632156,435.488495 155.807388,430.374756 
	C144.369904,421.804810 132.860397,413.326691 121.245705,404.998932 
	C112.881683,399.001984 108.556839,390.066956 103.774849,381.525116 
	C94.686287,365.290649 86.040588,348.808563 76.990417,332.552094 
	C74.286964,327.696045 70.795723,323.283447 67.767372,318.601715 
	C65.690643,315.391174 64.310822,311.747620 67.573402,308.730804 
	C71.194351,305.382568 74.890350,307.193542 78.256126,309.787720 
	C79.035286,310.388275 79.939812,310.826172 80.959473,311.642456 
z"/>
<path fill="#F5F3F5" opacity="1.000000" stroke="none" 
	d="
M121.989998,289.925171 
	C124.156189,290.855530 126.322380,291.785858 128.745361,292.362183 
	C129.002136,292.008179 128.959152,291.953125 128.813461,292.341980 
	C129.438705,292.492920 130.209641,292.255005 131.034882,291.968109 
	C131.089157,291.919098 131.200272,291.823944 131.200272,291.823944 
	C132.804596,293.977386 134.408920,296.130798 136.003357,298.649353 
	C135.303391,298.771088 134.613327,298.527679 133.923279,298.284271 
	C133.865875,299.263763 133.515961,300.338806 133.799515,301.206909 
	C135.392380,306.083405 137.549606,310.812653 138.724121,315.779022 
	C140.104767,321.617096 140.677734,327.646149 141.474228,332.776123 
	C135.743591,333.299347 131.190308,333.715088 126.492897,334.144012 
	C126.029877,329.453766 125.503029,324.117035 124.877701,318.094666 
	C124.511131,316.942078 124.243034,316.475098 123.974930,316.008118 
	C123.019234,309.925568 122.063530,303.843018 121.017059,297.074524 
	C120.637154,295.873260 120.348030,295.357971 120.058899,294.842651 
	C120.083725,294.118134 120.108543,293.393616 120.093330,292.023376 
	C120.084984,290.960419 120.116669,290.543213 120.148361,290.125977 
	C120.148361,290.125977 120.033569,290.002594 120.393433,290.084290 
	C121.165527,290.085724 121.577766,290.005463 121.989998,289.925171 
z"/>
<path fill="#272124" opacity="1.000000" stroke="none" 
	d="
M381.388550,423.035095 
	C380.704132,422.489014 380.350983,421.834351 379.894653,420.858002 
	C382.694244,418.341187 385.540466,416.066101 388.509735,413.964874 
	C401.017151,405.113617 412.849884,395.683502 419.964752,381.538513 
	C423.832733,373.848602 428.130066,366.369415 432.377777,358.876801 
	C439.551178,346.223450 446.838898,333.634949 454.422424,321.013550 
	C455.454102,321.004730 456.141937,321.001526 456.829773,320.998291 
	C453.742584,327.036346 450.832245,333.173065 447.530457,339.091370 
	C441.146271,350.534760 434.492920,361.827576 428.041870,373.234070 
	C421.817505,384.239807 416.431366,395.894836 406.379791,404.116364 
	C398.381989,410.657990 389.955872,416.676025 381.388550,423.035095 
z"/>
<path fill="#22181E" opacity="1.000000" stroke="none" 
	d="
M195.773621,370.197754 
	C195.992096,371.007324 195.987991,371.710480 195.615021,372.699005 
	C180.320633,365.005066 164.674835,358.233917 151.682709,347.011780 
	C152.598129,346.876709 153.513550,346.741608 154.659256,346.572540 
	C152.700912,344.783234 151.025787,343.252686 149.183655,341.425903 
	C148.915054,334.985168 149.265869,328.784943 148.518570,322.720001 
	C148.151993,319.744873 147.684631,316.867371 150.666901,316.219910 
	C153.085739,315.694824 156.777084,316.399902 158.479752,318.038971 
	C164.624603,323.954285 167.192001,331.917847 169.058136,340.041138 
	C170.227173,345.129913 171.507980,350.303406 168.145889,355.082367 
	C176.564331,359.724762 184.973846,364.362183 193.845947,369.329346 
	C194.530289,369.843109 194.784668,369.948273 195.071686,369.974548 
	C195.071686,369.974548 195.551041,370.091339 195.773621,370.197754 
M152.146454,334.103027 
	C152.764725,340.242493 160.603775,347.570068 166.868393,347.727234 
	C167.228943,337.863953 162.993362,329.519043 158.192108,321.392487 
	C157.569260,320.338257 156.358337,319.470184 155.224747,318.912048 
	C152.745712,317.691437 150.948196,318.088562 151.182999,321.404877 
	C151.461914,325.344452 151.820526,329.278412 152.146454,334.103027 
z"/>
<path fill="#2C1F27" opacity="1.000000" stroke="none" 
	d="
M396.153931,340.965637 
	C396.916473,340.970245 397.678986,340.974884 398.821289,340.947754 
	C399.621490,342.419067 400.041931,343.922119 400.588440,345.875977 
	C406.900208,337.156342 410.063690,327.144257 414.013580,317.472748 
	C417.350586,309.301941 421.270416,301.366028 425.061157,293.387329 
	C425.580505,292.294220 426.845551,291.555389 427.843842,290.320312 
	C428.082794,291.276337 428.771027,292.795258 428.323975,293.817932 
	C422.334534,307.519379 416.807892,321.477356 409.877899,334.696136 
	C404.498352,344.957458 397.317841,354.274628 390.366821,363.916016 
	C391.640839,360.900085 393.485870,357.979614 395.330933,355.059113 
	C394.844269,354.715942 394.357605,354.372742 393.870972,354.029541 
	C391.286438,357.008911 388.701935,359.988281 385.791687,363.005188 
	C384.360168,363.707367 383.254395,364.372070 381.853149,364.924866 
	C380.996643,364.526703 380.435577,364.240448 380.035889,363.650330 
	C384.728485,359.137024 389.498077,355.149139 393.697266,350.631104 
	C396.036316,348.114471 398.317810,344.931610 396.153931,340.965637 
z"/>
<path fill="#261E23" opacity="1.000000" stroke="none" 
	d="
M456.945099,320.593628 
	C456.141937,321.001526 455.454102,321.004730 454.472290,320.590820 
	C454.550354,317.206024 454.922424,314.238312 455.294525,311.270630 
	C454.506744,310.911194 453.718964,310.551788 452.931213,310.192383 
	C448.016541,315.357727 442.840698,320.303192 438.257721,325.747742 
	C433.285400,331.654785 428.865082,338.026428 424.138611,344.261536 
	C424.073212,344.327637 423.957794,344.676392 423.847412,345.051788 
	C423.556915,345.615906 423.376801,345.804596 422.955780,346.088989 
	C422.545837,346.640533 422.376831,347.096405 422.188965,347.712219 
	C422.170135,347.872192 421.879517,348.011169 421.661804,348.143250 
	C421.269043,348.740631 421.093994,349.205994 420.798492,349.986084 
	C419.237823,351.975647 417.797638,353.650452 415.914886,355.177673 
	C416.972839,351.704346 418.473358,348.378540 420.093048,344.781616 
	C420.142944,343.675690 420.073700,342.840912 419.748718,341.945984 
	C419.318115,341.896667 419.143311,341.907410 418.968506,341.918182 
	C419.389038,340.991272 419.809570,340.064362 420.714355,339.256226 
	C425.207092,343.047791 424.779694,339.785583 424.989594,337.051178 
	C423.702179,337.369354 422.673431,337.623627 421.644653,337.877869 
	C423.326813,334.543427 424.507324,330.555328 429.789215,331.364044 
	C436.603851,323.742157 440.717499,314.000702 450.428772,309.709320 
	C452.252472,308.903412 454.588898,307.792145 456.146698,308.346100 
	C457.255554,308.740417 457.863190,311.670959 457.955566,313.506836 
	C458.066589,315.713623 457.393829,317.959839 456.945099,320.593628 
z"/>
<path fill="#241C21" opacity="1.000000" stroke="none" 
	d="
M428.985840,329.591736 
	C428.166748,330.420685 427.363739,330.862274 425.273712,332.011627 
	C429.372833,315.266754 438.944031,301.625854 441.575470,284.362396 
	C438.848663,285.605988 437.225281,286.598816 435.462494,287.069214 
	C434.089935,287.435516 432.543793,287.151337 431.325836,286.854370 
	C431.576874,286.552521 431.623505,286.448303 431.817139,286.242950 
	C432.178802,285.747803 432.346832,285.458008 432.514893,285.168213 
	C433.467865,284.544891 434.353851,283.563354 435.387268,283.370026 
	C437.817169,282.915527 440.317505,282.837463 442.789337,282.607117 
	C442.995941,284.835846 443.942352,287.315796 443.285187,289.251221 
	C439.866669,299.318787 436.016083,309.239044 432.368500,319.229767 
	C431.165405,322.525116 430.119598,325.877899 428.985840,329.591736 
z"/>
<path fill="#292326" opacity="1.000000" stroke="none" 
	d="
M314.672729,380.240906 
	C315.817566,380.549622 316.798309,381.392426 317.404541,381.177704 
	C319.578949,380.407593 321.626648,379.279755 323.899048,378.545349 
	C319.254456,381.600586 314.433044,384.397614 309.151855,387.138672 
	C307.457672,387.054291 306.223236,387.025879 304.988800,386.997498 
	C308.104828,384.761627 311.220856,382.525757 314.672729,380.240906 
z"/>
<path fill="#22161D" opacity="1.000000" stroke="none" 
	d="
M304.677002,387.099884 
	C306.223236,387.025879 307.457672,387.054291 308.971436,387.447815 
	C306.566284,390.084778 303.881805,392.356689 301.086060,394.287659 
	C300.653625,393.305206 300.332458,392.663696 300.011292,392.022156 
	C301.462585,390.415527 302.913910,388.808899 304.677002,387.099884 
z"/>
<path fill="#272124" opacity="1.000000" stroke="none" 
	d="
M186.810760,453.022583 
	C185.988297,453.191315 185.165833,453.360046 184.158264,453.792114 
	C182.371536,452.587097 180.769928,451.118744 179.304016,449.163208 
	C179.619675,447.828583 179.799637,446.981140 180.282715,446.253235 
	C182.660812,448.589355 184.735794,450.805969 186.810760,453.022583 
z"/>
<path fill="#241C21" opacity="1.000000" stroke="none" 
	d="
M179.979584,446.133728 
	C179.799637,446.981140 179.619675,447.828583 179.164764,448.862762 
	C177.971115,448.284149 177.052414,447.518768 176.034027,446.466461 
	C176.005630,445.528046 176.076950,444.876495 176.536469,443.906006 
	C177.942978,444.435944 178.961288,445.284821 179.979584,446.133728 
z"/>
<path fill="#22161D" opacity="1.000000" stroke="none" 
	d="
M294.809235,398.801392 
	C295.137146,397.409180 295.728729,396.731537 297.033691,396.014191 
	C298.377075,396.049133 299.007141,396.123810 299.475311,396.495819 
	C298.164124,398.134430 297.014801,399.475708 295.865509,400.817017 
	C295.601288,400.383362 295.337097,399.949677 294.809235,398.801392 
z"/>
<path fill="#292326" opacity="1.000000" stroke="none" 
	d="
M299.637177,396.198486 
	C299.007141,396.123810 298.377075,396.049133 297.272034,395.944214 
	C297.667053,394.693817 298.537079,393.473694 299.709198,392.137878 
	C300.332458,392.663696 300.653625,393.305206 301.017151,394.509003 
	C300.585419,395.446991 300.111298,395.822754 299.637177,396.198486 
z"/>
<path fill="#2C1F27" opacity="1.000000" stroke="none" 
	d="
M398.106506,338.725220 
	C397.619690,338.537109 397.060272,338.147125 396.500854,337.757141 
	C396.912720,337.713440 397.324585,337.669739 397.893951,337.860352 
	C398.051453,338.094666 398.033966,338.523346 398.106506,338.725220 
z"/>
<path fill="#F5F3F5" opacity="1.000000" stroke="none" 
	d="
M129.021652,292.037140 
	C129.108078,291.606567 129.174988,291.147064 129.194748,290.339539 
	C129.764450,290.411987 130.381317,290.832397 131.099243,291.538391 
	C131.200272,291.823944 131.089157,291.919098 130.696045,291.925293 
	C129.855011,291.938721 129.407089,291.945923 128.959152,291.953125 
	C128.959152,291.953125 129.002136,292.008179 129.021652,292.037140 
z"/>
<path fill="#F8F6F7" opacity="1.000000" stroke="none" 
	d="
M432.209778,285.224854 
	C432.346832,285.458008 432.178802,285.747803 431.806702,286.186798 
	C431.703308,285.984497 431.803986,285.632965 432.209778,285.224854 
z"/>
<path fill="#241C21" opacity="1.000000" stroke="none" 
	d="
M195.024261,369.710327 
	C194.784668,369.948273 194.530289,369.843109 194.175385,369.498047 
	C194.353760,369.373383 194.665298,369.409729 195.024261,369.710327 
z"/>
<path fill="#030102" opacity="1.000000" stroke="none" 
	d="
M324.061829,123.991531 
	C330.072235,120.856682 335.723907,117.628006 342.555908,119.583488 
	C350.215881,121.775970 354.512970,127.257973 355.892822,134.693329 
	C358.879333,150.785843 352.292206,164.325745 343.578644,177.113525 
	C342.103333,179.278610 340.430176,181.480591 338.378296,183.051346 
	C329.409515,189.917099 314.602997,186.573227 307.585999,176.230377 
	C297.128632,160.816452 300.050385,148.977905 311.463531,134.889099 
	C314.828247,130.735535 319.630371,127.746338 324.061829,123.991531 
z"/>
<path fill="#030102" opacity="1.000000" stroke="none" 
	d="
M264.804871,203.558899 
	C252.647598,196.071259 245.319336,177.260742 249.188278,166.788193 
	C252.481064,157.875229 260.474548,150.976776 268.172607,150.859192 
	C277.543091,150.716064 284.482513,156.843460 286.126862,166.033295 
	C288.299591,178.176346 284.251099,189.107346 279.767059,199.850891 
	C277.477081,205.337646 271.806824,206.425186 264.804871,203.558899 
z"/>
<path fill="#332C30" opacity="1.000000" stroke="none" 
	d="
M386.117432,362.967682 
	C388.701935,359.988281 391.286438,357.008911 393.870972,354.029541 
	C394.357605,354.372742 394.844269,354.715942 395.330933,355.059113 
	C393.485870,357.979614 391.640839,360.900085 390.040222,363.984985 
	C383.075897,369.424927 375.850769,374.678284 368.670593,379.992401 
	C366.975708,381.246796 365.431976,382.705505 363.364075,383.969818 
	C359.843811,383.077820 360.750519,380.524445 360.538208,378.484497 
	C360.558807,378.492462 360.560516,378.448578 360.926361,378.586060 
	C362.881287,378.111572 364.470337,377.499542 366.425110,376.962372 
	C373.233032,372.840790 379.682281,368.654938 386.088562,364.404388 
	C386.315887,364.253571 386.117462,363.461090 386.117432,362.967682 
z"/>
<path fill="#CEBBC7" opacity="1.000000" stroke="none" 
	d="
M419.973877,345.052734 
	C418.473358,348.378540 416.972839,351.704346 415.846802,355.140137 
	C416.221283,355.250122 416.128174,355.123932 415.874146,354.824280 
	C414.421783,356.034241 413.223389,357.543823 411.690735,359.293945 
	C411.286224,360.391724 411.215973,361.248932 411.120850,362.107483 
	C411.095947,362.108826 411.087708,362.157959 410.817078,361.793976 
	C409.850616,362.313263 409.154816,363.196533 408.472412,364.216736 
	C408.357452,364.556763 408.199219,364.583832 407.847412,364.782257 
	C407.270142,365.776703 406.856628,366.423706 406.462280,367.207031 
	C406.359558,367.550781 406.202179,367.582855 405.840637,367.797852 
	C405.580261,368.403778 405.488525,368.651398 405.356567,369.324219 
	C405.584869,369.844147 405.853424,369.938812 406.111938,370.062531 
	C406.101929,370.091553 406.044952,370.114319 405.889099,369.765503 
	C405.478607,369.422577 405.224030,369.428497 404.673401,369.697479 
	C403.622681,371.654663 402.867981,373.348724 402.101257,375.064301 
	C402.089203,375.085815 402.044891,375.107330 401.780273,374.666229 
	C401.041718,374.862701 400.567780,375.500305 400.065399,376.077393 
	C400.036926,376.016907 400.131592,376.111328 399.874939,375.848114 
	C399.410248,375.714539 399.202179,375.844177 398.654114,376.050385 
	C397.849762,376.140625 397.385468,376.154266 396.900085,375.840515 
	C397.290863,374.784485 397.702698,374.055847 398.412476,373.149292 
	C403.334930,366.555634 407.986725,360.159027 412.518646,353.678558 
	C412.802124,353.273193 412.147003,352.211517 411.928558,351.455170 
	C411.802094,351.176300 411.878479,350.973511 412.245789,351.333008 
	C413.846130,349.852234 415.358307,347.885284 416.870483,345.918335 
	C416.870483,345.918304 416.967163,345.973419 417.184387,346.210815 
	C417.924988,345.936218 418.448425,345.424255 419.227478,344.910706 
	C419.646698,344.957001 419.810272,345.004852 419.973877,345.052734 
z"/>
<path fill="#261E23" opacity="1.000000" stroke="none" 
	d="
M411.609802,351.620667 
	C412.147003,352.211517 412.802124,353.273193 412.518646,353.678558 
	C407.986725,360.159027 403.334930,366.555634 398.307098,372.884399 
	C397.631195,372.540619 397.358612,372.283752 397.085999,372.026917 
	C401.821014,365.279999 406.556061,358.533112 411.609802,351.620667 
z"/>
<path fill="#261E23" opacity="1.000000" stroke="none" 
	d="
M363.120758,388.702362 
	C364.554230,389.175354 365.987671,389.648346 367.926453,390.063538 
	C368.597321,389.955017 368.737122,389.864471 368.851105,389.734100 
	C371.555450,388.804626 374.259796,387.875122 377.506256,387.322388 
	C378.202484,387.976257 378.356628,388.253357 378.259705,388.740479 
	C376.788025,389.360992 375.567444,389.771515 374.043945,390.246887 
	C373.155090,390.884369 372.569092,391.457031 371.633148,392.009430 
	C370.195160,392.331757 369.107117,392.674316 367.753784,393.037659 
	C367.311676,393.073334 367.134857,393.088165 366.637146,393.078186 
	C365.887207,393.055328 365.458130,393.057343 364.803589,393.030365 
	C364.578125,393.001373 364.128571,392.933563 364.075989,392.619080 
	C363.664062,391.537811 363.304688,390.770996 362.988159,389.678589 
	C363.060913,389.136108 363.090820,388.919250 363.120758,388.702362 
z"/>
<path fill="#2F252B" opacity="1.000000" stroke="none" 
	d="
M363.050690,388.349182 
	C363.090820,388.919250 363.060913,389.136108 362.668213,389.532715 
	C361.051422,388.298981 359.797424,386.885529 358.067352,384.935425 
	C358.279816,384.855499 357.300659,385.223816 356.397339,385.237762 
	C357.821350,382.747803 359.169495,380.612152 360.517609,378.476501 
	C360.750519,380.524445 359.843811,383.077820 363.105469,384.199005 
	C363.194489,385.684387 363.087555,386.840179 363.050690,388.349182 
z"/>
<path fill="#261E23" opacity="1.000000" stroke="none" 
	d="
M384.842010,382.399658 
	C387.542053,380.277344 390.242126,378.155029 393.369324,376.217712 
	C393.899017,376.635803 394.001495,376.868896 394.065918,377.458954 
	C392.695282,379.501099 391.362732,381.186249 389.672516,382.892029 
	C388.409729,383.180115 387.504578,383.447601 386.179565,383.360199 
	C385.453766,382.803467 385.147888,382.601562 384.842010,382.399658 
z"/>
<path fill="#2F252B" opacity="1.000000" stroke="none" 
	d="
M421.438599,337.926422 
	C422.673431,337.623627 423.702179,337.369354 424.989594,337.051178 
	C424.779694,339.785583 425.207092,343.047791 421.037231,339.039062 
	C420.848572,338.388794 420.967438,338.146088 421.438599,337.926422 
z"/>
<path fill="#2F252B" opacity="1.000000" stroke="none" 
	d="
M396.797546,372.162109 
	C397.358612,372.283752 397.631195,372.540619 398.009155,373.062378 
	C397.702698,374.055847 397.290863,374.784485 396.724426,376.050781 
	C396.047760,376.726471 395.525696,376.864471 394.828491,376.719421 
	C394.301025,376.164856 393.948700,375.893402 393.596375,375.621948 
	C394.567291,374.513733 395.538208,373.405518 396.797546,372.162109 
z"/>
<path fill="#261E23" opacity="1.000000" stroke="none" 
	d="
M416.524811,345.702454 
	C415.358307,347.885284 413.846130,349.852234 412.423676,351.367920 
	C413.735321,349.106659 414.957214,347.296600 416.524811,345.702454 
z"/>
<path fill="#261E23" opacity="1.000000" stroke="none" 
	d="
M378.505859,386.522278 
	C379.970306,385.543274 381.434784,384.564240 383.547668,383.881104 
	C384.407928,384.384277 384.619720,384.591583 384.600861,385.039551 
	C382.841400,386.142059 381.312653,387.003998 379.466492,387.528015 
	C378.934662,386.967468 378.720245,386.744873 378.505859,386.522278 
z"/>
<path fill="#261E23" opacity="1.000000" stroke="none" 
	d="
M418.971863,344.912292 
	C418.448425,345.424255 417.924988,345.936218 417.147888,346.168762 
	C417.303986,344.633972 417.713776,343.378571 418.523804,342.302795 
	C418.958710,342.662140 418.993378,342.841827 419.015808,343.336487 
	C418.992981,344.071716 418.982422,344.492035 418.971863,344.912292 
z"/>
<path fill="#261E23" opacity="1.000000" stroke="none" 
	d="
M383.880341,383.864075 
	C383.846771,383.211639 384.128967,382.872070 384.626587,382.466064 
	C385.147888,382.601562 385.453766,382.803467 385.990601,383.541931 
	C385.758179,384.318634 385.294861,384.558777 384.831543,384.798920 
	C384.619720,384.591583 384.407928,384.384277 383.880341,383.864075 
z"/>
<path fill="#2F252B" opacity="1.000000" stroke="none" 
	d="
M368.710480,389.656677 
	C368.737122,389.864471 368.597321,389.955017 368.307220,390.026306 
	C368.199982,389.798309 368.329041,389.642395 368.710480,389.656677 
z"/>
<path fill="#261E23" opacity="1.000000" stroke="none" 
	d="
M377.928619,387.238770 
	C377.956268,386.694275 378.101562,386.606567 378.375275,386.518799 
	C378.720245,386.744873 378.934662,386.967468 379.281677,387.686462 
	C379.137970,388.363373 378.836823,388.479248 378.510803,388.530487 
	C378.356628,388.253357 378.202484,387.976257 377.928619,387.238770 
z"/>
<path fill="#261E23" opacity="1.000000" stroke="none" 
	d="
M418.967712,342.211395 
	C419.011383,341.940369 419.020294,341.946686 418.994385,341.932434 
	C419.143311,341.907410 419.318115,341.896667 419.641968,342.163940 
	C419.598206,342.716248 419.343903,342.909424 419.028015,343.021515 
	C418.993378,342.841827 418.958710,342.662140 418.967712,342.211395 
z"/>
<path fill="#261E23" opacity="1.000000" stroke="none" 
	d="
M393.608734,375.638947 
	C393.948700,375.893402 394.301025,376.164856 394.602905,376.738434 
	C394.552490,377.040527 394.104004,377.101959 394.104004,377.101959 
	C394.001495,376.868896 393.899017,376.635803 393.699036,376.031677 
	C393.601562,375.660675 393.621094,375.655945 393.608734,375.638947 
z"/>
<path fill="#FCFCFC" opacity="1.000000" stroke="none" 
	d="
M180.282715,446.253235 
	C178.961288,445.284821 177.942978,444.435944 176.630310,443.423401 
	C166.760696,435.626648 157.300964,427.842438 147.575363,420.405914 
	C139.023376,413.866760 129.743561,408.215393 121.619377,401.205139 
	C116.860840,397.099030 113.146507,391.435425 109.991135,385.887390 
	C102.208221,372.202972 95.200020,358.079712 87.517853,344.335510 
	C83.404076,336.975525 78.509109,330.054291 74.033554,322.893250 
	C72.548042,320.516357 71.105827,318.082550 69.971375,315.529205 
	C69.436203,314.324707 69.674385,312.776611 69.562164,311.384155 
	C71.288071,311.327301 73.037155,311.082153 74.730423,311.290497 
	C75.618561,311.399780 76.408882,312.303894 77.600510,312.982697 
	C89.658653,322.526886 97.485268,335.048370 105.562050,347.384186 
	C108.263397,351.509979 111.230965,355.461487 114.248039,359.961853 
	C114.525360,360.715668 114.730370,360.860077 115.034264,360.864227 
	C115.190857,361.168701 115.347458,361.473175 115.834091,362.222900 
	C118.433334,365.712372 120.601837,368.838989 123.004555,371.773895 
	C124.828346,374.001678 126.950256,375.985413 129.061432,378.320984 
	C129.613281,378.891113 130.043228,379.217957 130.638885,379.831512 
	C133.749756,382.752502 136.532532,385.612671 139.722855,387.905945 
	C140.939056,388.780212 143.089874,388.354279 144.824524,388.485229 
	C144.834290,388.449554 144.911484,388.538788 144.651489,389.066711 
	C145.119827,389.404449 145.848175,389.214294 146.517105,389.157928 
	C146.521957,389.533844 146.673706,389.618378 146.654694,390.073425 
	C147.122955,390.410400 147.849487,390.219269 148.514618,390.160126 
	C148.510925,390.533234 148.659531,390.622498 148.533325,390.856567 
	C148.779526,391.734680 149.391449,392.316162 150.316467,393.091370 
	C154.499023,395.757935 158.445587,397.645905 163.394730,395.000916 
	C167.291580,395.550873 169.362015,393.795166 170.611511,390.720581 
	C172.166168,386.895142 172.367798,383.015961 168.959991,380.283600 
	C160.771820,373.718384 152.324966,367.475769 143.982483,361.102997 
	C141.880112,358.920410 139.777756,356.737823 137.446609,354.053101 
	C136.868301,353.231873 136.518784,352.912750 136.169281,352.593597 
	C136.169281,352.593597 136.098511,352.211578 135.876984,351.818420 
	C135.155472,350.828888 134.655502,350.232513 134.155548,349.636139 
	C134.081100,349.477814 134.006638,349.319489 133.709991,348.931580 
	C133.387344,348.501465 133.237732,348.453247 133.038971,348.557373 
	C132.314041,347.248474 131.589111,345.939575 130.757202,343.981384 
	C130.621796,342.886719 130.593338,342.441315 130.564880,341.995941 
	C133.418961,341.314148 136.273056,340.632324 139.669800,340.156433 
	C140.212479,340.362366 140.596436,340.555389 140.596436,340.555389 
	C140.596436,340.555389 141.002075,340.413513 141.002075,340.413513 
	C142.093338,340.929749 143.184586,341.446014 144.790649,342.207611 
	C145.475098,342.480164 145.644730,342.507324 145.814346,342.534485 
	C145.890686,342.821045 146.069885,343.010071 146.713013,343.392456 
	C147.657806,343.974457 148.241501,344.265625 148.825195,344.556793 
	C149.599945,345.329590 150.374680,346.102417 151.416061,346.943512 
	C164.674835,358.233917 180.320633,365.005066 195.604370,373.050446 
	C203.602386,377.970459 211.472351,382.501434 218.833099,387.746979 
	C233.227173,398.004761 240.093445,413.260162 244.862122,429.537994 
	C246.370605,434.687256 246.864365,440.300415 246.848679,445.698425 
	C246.800873,462.152100 246.316223,478.605316 245.893707,495.055969 
	C245.839584,497.163116 245.147339,499.253845 244.632019,501.980133 
	C225.952927,501.980133 207.369080,501.980133 187.833923,501.980133 
	C188.659348,496.437653 189.450668,490.516174 190.437973,484.627533 
	C192.229950,473.939697 194.329071,463.252899 187.099945,453.226837 
	C184.735794,450.805969 182.660812,448.589355 180.282715,446.253235 
z"/>
<path fill="#F7F5F6" opacity="1.000000" stroke="none" 
	d="
M122.007500,359.957336 
	C115.957527,350.683716 109.650681,341.563690 103.972778,332.067596 
	C101.378662,327.729034 100.008446,322.655548 98.110870,317.904327 
	C94.438568,308.709473 90.714127,299.534027 87.196754,290.280060 
	C86.619675,288.761810 86.989426,286.883728 86.921577,285.171936 
	C88.736595,285.414185 90.946167,285.090027 92.281761,286.020477 
	C94.804794,287.778137 97.161316,290.007599 98.997238,292.479095 
	C107.622124,304.089935 112.081955,317.703827 117.107315,331.033783 
	C117.807610,332.891327 118.522987,334.743164 119.422577,337.026794 
	C119.667503,337.677277 119.808380,337.789337 120.036392,337.792175 
	C124.285210,349.507477 131.574112,359.029114 141.476074,366.973480 
	C141.874222,366.994476 141.862610,367.055603 141.891068,367.054718 
	C141.919525,367.053833 141.958755,367.148621 141.966980,367.459869 
	C142.143921,367.892090 142.312622,368.013031 142.606323,368.358093 
	C143.035049,368.727234 143.338760,368.872223 143.593033,369.115662 
	C143.543579,369.214172 143.780014,369.087036 144.075928,369.358154 
	C145.342300,370.060150 146.312775,370.490997 147.312729,371.086456 
	C147.342209,371.251068 147.753601,371.524506 147.753601,371.524506 
	C147.753601,371.524506 148.207291,371.443176 148.241394,371.453247 
	C148.275513,371.463348 148.340591,371.492065 148.511047,371.713745 
	C149.324478,372.064514 149.967468,372.193634 150.675323,372.350159 
	C150.740189,372.377594 150.805161,372.502533 150.599518,372.823486 
	C154.487808,376.343323 158.801422,379.311066 162.549118,382.874084 
	C163.760056,384.025299 163.484528,386.739990 163.467377,388.818359 
	C154.034576,389.800903 147.100800,384.794495 140.791199,379.788818 
	C134.301392,374.640289 129.033890,367.951019 123.231537,361.935944 
	C123.175713,361.762177 123.119896,361.588379 122.899826,360.964111 
	C122.588501,360.203156 122.345810,360.017700 122.007500,359.957336 
z"/>
<path fill="#332C30" opacity="1.000000" stroke="none" 
	d="
M122.849930,361.939331 
	C129.033890,367.951019 134.301392,374.640289 140.791199,379.788818 
	C147.100800,384.794495 154.034576,389.800903 163.550140,389.315186 
	C164.117111,390.062958 164.179764,390.392853 163.934448,390.894073 
	C161.942856,391.161682 160.117523,391.726501 158.601608,391.268127 
	C153.643082,389.768738 148.797180,387.896851 143.279144,385.945862 
	C144.011978,387.174683 144.413376,387.847778 144.814774,388.520874 
	C143.089874,388.354279 140.939056,388.780212 139.722855,387.905945 
	C136.532532,385.612671 133.749756,382.752502 130.957611,379.480774 
	C131.316254,378.603424 131.521881,378.363556 132.004578,378.289490 
	C132.718719,378.034546 133.155762,377.613861 133.592819,377.193176 
	C130.802643,374.361877 128.012482,371.530579 125.222305,368.699280 
	C124.908226,369.001129 124.594147,369.302979 124.280067,369.604828 
	C125.788643,371.436462 127.423843,373.183258 128.738144,375.145081 
	C129.207657,375.845856 128.900558,377.066925 128.958405,378.051819 
	C128.968887,378.053131 128.939514,378.077728 128.939514,378.077728 
	C126.950256,375.985413 124.828346,374.001678 123.004555,371.773895 
	C120.601837,368.838989 118.433334,365.712372 116.071068,362.338654 
	C118.141434,361.987000 120.304878,361.964874 122.849930,361.939331 
M142.558075,384.287506 
	C141.189606,383.782837 139.821152,383.278137 138.452698,382.773438 
	C138.351425,383.343781 138.250153,383.914154 138.148880,384.484497 
	C139.819565,384.608978 141.490265,384.733459 142.558075,384.287506 
z"/>
<path fill="#2F252B" opacity="1.000000" stroke="none" 
	d="
M164.242416,390.722717 
	C164.179764,390.392853 164.117111,390.062958 163.971710,389.236298 
	C163.484528,386.739990 163.760056,384.025299 162.549118,382.874084 
	C158.801422,379.311066 154.487808,376.343323 150.840347,372.580383 
	C151.496170,371.383392 151.705521,370.750519 151.914886,370.117615 
	C151.715332,370.055023 151.515793,369.992432 151.316238,369.929810 
	C151.080978,370.727478 150.845718,371.525116 150.610458,372.322754 
	C149.967468,372.193634 149.324478,372.064514 148.431625,371.333527 
	C148.168549,370.474121 148.155334,370.216583 148.372833,369.948364 
	C148.842056,369.783875 149.080551,369.630035 149.319046,369.476227 
	C148.915604,369.328125 148.512177,369.180023 147.944733,368.733276 
	C146.145081,366.028595 144.366531,366.141144 142.481308,368.133942 
	C142.312622,368.013031 142.143921,367.892090 142.190369,367.360321 
	C142.405502,366.949524 142.063644,366.620392 142.063644,366.620392 
	C142.063644,366.620392 141.862610,367.055603 141.862610,367.055603 
	C141.862610,367.055603 141.874222,366.994476 141.856598,367.023193 
	C141.742706,365.498169 141.646423,363.944427 141.474213,361.165649 
	C142.737244,363.051605 143.296204,363.886261 143.855164,364.720886 
	C144.142151,364.641266 144.429138,364.561646 144.716125,364.481995 
	C144.564896,363.558563 144.413666,362.635101 144.122467,361.407318 
	C152.324966,367.475769 160.771820,373.718384 168.959991,380.283600 
	C172.367798,383.015961 172.166168,386.895142 170.611511,390.720581 
	C169.362015,393.795166 167.291580,395.550873 163.394577,394.804382 
	C163.000336,394.521759 163.002060,394.128723 163.329529,393.986603 
	C165.564697,391.856628 167.472397,389.868774 169.572357,387.642212 
	C169.264679,385.946411 168.764740,384.489319 168.089569,382.778687 
	C167.377136,381.916138 166.839966,381.307098 166.183990,380.487427 
	C165.863892,380.013519 165.609375,379.820374 165.135529,379.464783 
	C164.476746,378.954803 163.984085,378.677368 163.354767,378.228699 
	C162.990662,377.861755 162.748215,377.686859 162.346069,377.337280 
	C161.962433,376.918427 161.694550,376.738068 161.138794,376.355865 
	C160.478027,376.235779 160.076202,376.360504 159.674362,376.485229 
	C159.953735,376.864838 160.233109,377.244415 160.670319,377.785583 
	C161.064117,378.148834 161.331131,378.292938 161.793213,378.558563 
	C162.211884,378.947357 162.499115,379.092712 162.971405,379.418213 
	C163.581909,380.009430 164.039932,380.356079 164.602936,380.857605 
	C164.871155,381.211426 165.066315,381.371552 165.426361,381.781219 
	C166.044098,382.749115 166.528885,383.428589 167.005325,384.523193 
	C167.049606,385.768829 167.102219,386.599274 167.077667,387.754517 
	C166.081146,388.960449 165.161774,389.841583 164.242416,390.722717 
M155.941177,373.009918 
	C155.566818,372.892639 155.192459,372.775391 154.818100,372.658142 
	C154.746872,372.912933 154.675659,373.167694 154.604431,373.422516 
	C155.116867,373.470825 155.629288,373.519135 155.941177,373.009918 
M156.747025,374.462952 
	C157.408295,374.977264 158.069565,375.491547 158.730850,376.005859 
	C158.907150,375.761139 159.083450,375.516418 159.259766,375.271698 
	C158.643402,374.847839 158.027054,374.423981 156.747025,374.462952 
z"/>
<path fill="#2F252B" opacity="1.000000" stroke="none" 
	d="
M134.554214,356.305878 
	C133.121964,354.901520 131.909607,353.236755 130.697235,351.572021 
	C131.202728,351.287231 131.708206,351.002441 132.213699,350.717651 
	C133.067169,352.493591 133.920624,354.269562 134.554214,356.305878 
z"/>
<path fill="#30272C" opacity="1.000000" stroke="none" 
	d="
M116.442955,358.980164 
	C117.109848,358.643585 117.774872,358.615753 118.439896,358.587921 
	C118.438751,358.869324 118.437599,359.150726 118.436447,359.432129 
	C117.771332,359.384399 117.106216,359.336670 116.442955,358.980164 
z"/>
<path fill="#22181E" opacity="1.000000" stroke="none" 
	d="
M126.813416,344.735138 
	C127.172050,345.347534 127.267448,345.896790 127.362846,346.446045 
	C127.072159,346.425476 126.530754,346.420227 126.528419,346.382080 
	C126.493729,345.814575 126.530388,345.242767 126.813416,344.735138 
z"/>
<path fill="#2F252B" opacity="1.000000" stroke="none" 
	d="
M134.131866,349.967712 
	C134.655502,350.232513 135.155472,350.828888 135.707794,351.722961 
	C135.209488,351.446899 134.658829,350.873108 134.131866,349.967712 
z"/>
<path fill="#22181E" opacity="1.000000" stroke="none" 
	d="
M130.309326,341.992188 
	C130.593338,342.441315 130.621796,342.886719 130.566010,343.658264 
	C129.999176,343.517334 129.516602,343.050201 129.016815,342.291473 
	C128.999603,341.999878 129.031769,341.966431 129.031769,341.966431 
	C129.372437,341.973755 129.713089,341.981110 130.309326,341.992188 
z"/>
<path fill="#22181E" opacity="1.000000" stroke="none" 
	d="
M128.982910,342.015991 
	C128.465027,341.716156 127.963837,341.400208 127.462646,341.084259 
	C127.644218,340.875610 127.825783,340.666931 128.007355,340.458252 
	C128.316833,340.774475 128.626312,341.090698 128.983795,341.686676 
	C129.031769,341.966431 128.999603,341.999878 128.982910,342.015991 
z"/>
<path fill="#22181E" opacity="1.000000" stroke="none" 
	d="
M123.794273,316.132996 
	C124.243034,316.475098 124.511131,316.942078 124.738861,317.677246 
	C124.336868,317.382874 123.975243,316.820374 123.794273,316.132996 
z"/>
<path fill="#22181E" opacity="1.000000" stroke="none" 
	d="
M140.974854,340.226227 
	C141.002075,340.413513 140.596436,340.555389 140.596436,340.555389 
	C140.596436,340.555389 140.212479,340.362366 140.103333,340.177063 
	C140.312012,340.007477 140.629837,340.023224 140.974854,340.226227 
z"/>
<path fill="#22181E" opacity="1.000000" stroke="none" 
	d="
M120.050247,295.145447 
	C120.348030,295.357971 120.637154,295.873260 120.888382,296.683899 
	C120.580849,296.468872 120.311211,295.958557 120.050247,295.145447 
z"/>
<path fill="#2F252B" opacity="1.000000" stroke="none" 
	d="
M136.158112,352.838959 
	C136.518784,352.912750 136.868301,353.231873 137.189240,353.795227 
	C136.822754,353.721100 136.484848,353.402710 136.158112,352.838959 
z"/>
<path fill="#2F252B" opacity="1.000000" stroke="none" 
	d="
M139.992004,360.010101 
	C139.561478,359.886108 139.130951,359.762115 138.700409,359.638153 
	C139.052887,359.620819 139.405350,359.603485 139.878815,359.793182 
	C139.999817,360.000244 139.992004,360.010101 139.992004,360.010101 
z"/>
<path fill="#22181E" opacity="1.000000" stroke="none" 
	d="
M121.831024,289.711029 
	C121.577766,290.005463 121.165527,290.085724 120.438019,290.155762 
	C120.639183,289.929291 121.155617,289.713104 121.831024,289.711029 
z"/>
<path fill="#22181E" opacity="1.000000" stroke="none" 
	d="
M148.736359,344.209473 
	C148.241501,344.265625 147.657806,343.974457 146.915436,343.393250 
	C147.387024,343.356201 148.017273,343.609192 148.736359,344.209473 
z"/>
<path fill="#22181E" opacity="1.000000" stroke="none" 
	d="
M119.898094,290.208435 
	C120.116669,290.543213 120.084984,290.960419 119.970573,291.680664 
	C119.807846,291.419434 119.727844,290.855194 119.898094,290.208435 
z"/>
<path fill="#22181E" opacity="1.000000" stroke="none" 
	d="
M120.006142,337.686646 
	C119.808380,337.789337 119.667503,337.677277 119.684570,337.331024 
	C119.755371,337.206116 119.975891,337.581146 120.006142,337.686646 
z"/>
<path fill="#2F252B" opacity="1.000000" stroke="none" 
	d="
M133.067871,348.657837 
	C133.237732,348.453247 133.387344,348.501465 133.466888,348.832733 
	C133.445984,348.963440 133.096756,348.758331 133.067871,348.657837 
z"/>
<path fill="#30272C" opacity="1.000000" stroke="none" 
	d="
M115.011719,360.695068 
	C114.730370,360.860077 114.525360,360.715668 114.473465,360.240356 
	C114.757912,360.134399 114.911736,360.293121 115.011719,360.695068 
z"/>
<path fill="#332C30" opacity="1.000000" stroke="none" 
	d="
M122.034897,360.183075 
	C122.345810,360.017700 122.588501,360.203156 122.729652,360.749573 
	C122.401291,360.910248 122.180817,360.718018 122.034897,360.183075 
z"/>
<path fill="#2F252B" opacity="1.000000" stroke="none" 
	d="
M140.004395,359.996643 
	C140.126694,360.144989 140.244415,360.296936 140.362122,360.448853 
	C140.273895,360.397614 140.185669,360.346375 140.044708,360.152649 
	C139.992004,360.010101 139.999817,360.000244 140.004395,359.996643 
z"/>
<path fill="#22181E" opacity="1.000000" stroke="none" 
	d="
M145.823715,342.319824 
	C145.644730,342.507324 145.475098,342.480164 145.151535,342.246368 
	C145.276108,342.061584 145.554596,342.083405 145.823715,342.319824 
z"/>
<path fill="#FDFCFC" opacity="1.000000" stroke="none" 
	d="
M360.538208,378.484497 
	C359.169495,380.612152 357.821350,382.747803 356.421570,385.250244 
	C356.369965,385.617096 356.325653,385.617462 356.114410,385.844116 
	C357.089874,388.860352 358.276581,391.649902 359.475220,394.427612 
	C359.487122,394.415741 359.471283,394.451447 359.747162,394.752014 
	C368.106873,397.814606 375.356934,395.699158 382.208557,391.202240 
	C382.207367,391.144501 382.102814,391.095367 382.453156,391.234497 
	C382.899200,390.961029 382.994904,390.548431 383.076904,390.076111 
	C383.063202,390.016418 383.104370,390.138214 383.358398,390.444122 
	C384.076874,390.528168 384.541321,390.306305 385.353882,390.028809 
	C390.645050,385.664124 395.588165,381.355072 400.572144,376.752167 
	C400.452545,376.342651 400.292084,376.226990 400.131592,376.111328 
	C400.131592,376.111328 400.036926,376.016907 400.347137,376.357300 
	C401.119873,376.167542 401.582367,375.637451 402.044891,375.107330 
	C402.044891,375.107330 402.089203,375.085815 402.410797,375.127747 
	C403.542419,373.993652 404.352448,372.817627 405.453217,371.472717 
	C405.844299,370.907349 405.944611,370.510834 406.044952,370.114319 
	C406.044952,370.114319 406.101929,370.091553 406.481049,370.090698 
	C407.145355,369.696625 407.430542,369.303406 407.716675,368.415161 
	C407.148163,367.759949 406.578766,367.599762 406.009338,367.439545 
	C406.202179,367.582855 406.359558,367.550781 407.130035,367.562744 
	C407.856140,366.666351 407.933624,365.550598 408.011139,364.434814 
	C408.199219,364.583832 408.357452,364.556763 408.808044,364.709961 
	C409.782715,364.096863 410.435211,363.127411 411.087708,362.157959 
	C411.087708,362.157959 411.095947,362.108826 411.420380,362.367340 
	C412.344116,361.828674 412.943420,361.031525 413.823914,360.043274 
	C414.779480,358.276062 415.453827,356.700012 416.128174,355.123932 
	C416.128174,355.123932 416.221283,355.250122 416.289368,355.287689 
	C417.797638,353.650452 419.237823,351.975647 421.013062,349.851532 
	C421.525238,348.938538 421.702393,348.474854 421.879517,348.011169 
	C421.879517,348.011169 422.170135,347.872192 422.415100,347.602600 
	C422.838928,346.886444 423.017853,346.439850 423.196716,345.993256 
	C423.376801,345.804596 423.556915,345.615906 423.980713,345.034607 
	C424.224365,344.642029 424.361053,344.411957 424.361053,344.411957 
	C424.361053,344.411957 424.204041,344.195465 424.204041,344.195465 
	C428.865082,338.026428 433.285400,331.654785 438.257721,325.747742 
	C442.840698,320.303192 448.016541,315.357727 452.931213,310.192383 
	C453.718964,310.551788 454.506744,310.911194 455.294525,311.270630 
	C454.922424,314.238312 454.550354,317.206024 454.128418,320.596436 
	C446.838898,333.634949 439.551178,346.223450 432.377777,358.876801 
	C428.130066,366.369415 423.832733,373.848602 419.964752,381.538513 
	C412.849884,395.683502 401.017151,405.113617 388.509735,413.964874 
	C385.540466,416.066101 382.694244,418.341187 379.605774,420.778137 
	C369.606964,428.377075 360.107300,436.206116 349.907440,442.981049 
	C334.429321,453.261902 333.598145,467.864014 336.431183,483.878448 
	C337.515869,490.009888 338.819855,496.102539 340.012390,502.154358 
	C320.979462,502.154358 302.256622,502.154358 283.164886,502.154358 
	C282.755402,495.299805 282.258423,489.051880 282.036194,482.794220 
	C281.664398,472.324219 281.056824,461.838837 281.289581,451.376434 
	C281.686188,433.548401 283.250702,415.904419 295.735352,401.127380 
	C297.014801,399.475708 298.164124,398.134430 299.475311,396.495819 
	C300.111298,395.822754 300.585419,395.446991 301.128448,394.849915 
	C303.881805,392.356689 306.566284,390.084778 309.431213,387.503784 
	C314.433044,384.397614 319.254456,381.600586 324.265717,378.514160 
	C328.452209,376.241302 332.448883,374.257874 336.995178,372.062866 
	C337.780670,371.601654 338.016541,371.352051 338.252380,371.102448 
	C338.252380,371.102448 338.701477,371.083344 339.109497,370.933105 
	C339.846863,370.652527 340.063538,370.418030 340.167572,370.079437 
	C343.600250,368.145416 347.032959,366.211426 351.011780,364.040192 
	C351.782562,363.527039 352.007141,363.251099 352.231720,362.975159 
	C352.472687,362.971466 352.667999,362.875092 353.224762,362.449738 
	C354.153473,361.809296 354.675049,361.405182 355.196625,361.001099 
	C355.450287,361.009857 355.655945,360.914764 356.220276,360.482727 
	C357.131683,359.852051 357.636383,359.454407 358.141113,359.056763 
	C365.509644,354.108582 372.903168,349.197113 380.237671,344.198944 
	C384.872040,341.040771 389.715363,338.978424 395.806427,340.744537 
	C398.317810,344.931610 396.036316,348.114471 393.697266,350.631104 
	C389.498077,355.149139 384.728485,359.137024 379.704895,363.742920 
	C378.775543,365.047943 378.338593,365.956512 377.917419,366.900146 
	C377.933228,366.935242 377.861572,366.907196 377.524475,366.716278 
	C373.826874,368.554352 370.385223,370.466003 367.162994,372.694916 
	C366.360260,373.250214 366.265961,374.829590 365.892120,375.938782 
	C365.938202,375.939301 365.912537,375.850769 365.657776,375.513367 
	C363.788849,376.266815 362.174683,377.357697 360.560516,378.448547 
	C360.560516,378.448578 360.558807,378.492462 360.538208,378.484497 
z"/>
<path fill="#FAF9F9" opacity="1.000000" stroke="none" 
	d="
M404.207336,307.302582 
	C402.865417,316.494080 401.581299,325.260101 400.361359,333.588104 
	C395.971252,333.301941 392.137970,333.052063 388.338654,332.804413 
	C386.737030,316.140686 396.608276,293.826019 407.978210,290.748230 
	C406.649597,296.519470 405.457397,301.698273 404.207336,307.302582 
z"/>
<path fill="#F5F3F5" opacity="1.000000" stroke="none" 
	d="
M375.170593,334.169434 
	C375.592651,338.011780 374.628693,340.419220 371.414734,342.376831 
	C367.583557,344.710358 364.240814,347.845764 360.209717,350.212799 
	C363.482117,338.561707 362.705719,324.934845 377.039520,318.305359 
	C376.366821,324.030609 375.796814,328.881927 375.170593,334.169434 
z"/>
<path fill="#292326" opacity="1.000000" stroke="none" 
	d="
M357.791046,359.072998 
	C357.636383,359.454407 357.131683,359.852051 356.301239,360.327972 
	C356.464020,359.967285 356.952484,359.528259 357.791046,359.072998 
z"/>
<path fill="#292326" opacity="1.000000" stroke="none" 
	d="
M354.839722,361.028748 
	C354.675049,361.405182 354.153473,361.809296 353.300964,362.300751 
	C353.474335,361.944214 353.978577,361.500305 354.839722,361.028748 
z"/>
<path fill="#292326" opacity="1.000000" stroke="none" 
	d="
M351.980957,363.041016 
	C352.007141,363.251099 351.782562,363.527039 351.286591,363.814972 
	C351.253540,363.586945 351.491852,363.346924 351.980957,363.041016 
z"/>
<path fill="#292326" opacity="1.000000" stroke="none" 
	d="
M339.934570,370.112396 
	C340.063538,370.418030 339.846863,370.652527 339.271301,370.777100 
	C339.164307,370.469421 339.389801,370.260773 339.934570,370.112396 
z"/>
<path fill="#292326" opacity="1.000000" stroke="none" 
	d="
M338.001343,371.135284 
	C338.016541,371.352051 337.780670,371.601654 337.279083,371.841461 
	C337.259033,371.610474 337.504669,371.389313 338.001343,371.135284 
z"/>
<path fill="#20161C" opacity="1.000000" stroke="none" 
	d="
M128.813461,292.341980 
	C129.407089,291.945923 129.855011,291.938721 130.641769,291.974304 
	C130.209641,292.255005 129.438705,292.492920 128.813461,292.341980 
z"/>
<path fill="#F0EDEF" opacity="1.000000" stroke="none" 
	d="
M152.145538,333.658905 
	C151.820526,329.278412 151.461914,325.344452 151.182999,321.404877 
	C150.948196,318.088562 152.745712,317.691437 155.224747,318.912048 
	C156.358337,319.470184 157.569260,320.338257 158.192108,321.392487 
	C162.993362,329.519043 167.228943,337.863953 166.868393,347.727234 
	C160.603775,347.570068 152.764725,340.242493 152.145538,333.658905 
z"/>
<path fill="#C8B3C0" opacity="1.000000" stroke="none" 
	d="
M385.791687,363.005188 
	C386.117462,363.461090 386.315887,364.253571 386.088562,364.404388 
	C379.682281,368.654938 373.233032,372.840790 366.444946,376.695160 
	C366.036926,376.185699 365.974731,376.018250 365.912537,375.850769 
	C365.912537,375.850769 365.938202,375.939301 366.255188,375.965576 
	C370.249176,373.572235 373.947235,371.183105 377.568878,368.683289 
	C377.911713,368.446625 377.775421,367.515747 377.861572,366.907196 
	C377.861572,366.907196 377.933228,366.935242 378.141418,367.247070 
	C379.615906,366.718140 380.882263,365.877441 382.148621,365.036743 
	C383.254395,364.372070 384.360168,363.707367 385.791687,363.005188 
z"/>
<path fill="#2F252B" opacity="1.000000" stroke="none" 
	d="
M381.853149,364.924866 
	C380.882263,365.877441 379.615906,366.718140 378.125610,367.211975 
	C378.338593,365.956512 378.775543,365.047943 379.543518,364.046814 
	C380.435577,364.240448 380.996643,364.526703 381.853149,364.924866 
z"/>
<path fill="#2F252B" opacity="1.000000" stroke="none" 
	d="
M419.015808,343.336487 
	C419.343903,342.909424 419.598206,342.716248 419.897705,342.224060 
	C420.073700,342.840912 420.142944,343.675690 420.093018,344.781616 
	C419.810272,345.004852 419.646698,344.957001 419.227478,344.910736 
	C418.982422,344.492035 418.992981,344.071716 419.015808,343.336487 
z"/>
<path fill="#2F252B" opacity="1.000000" stroke="none" 
	d="
M422.955811,346.088989 
	C423.017853,346.439850 422.838928,346.886444 422.433929,347.442627 
	C422.376831,347.096405 422.545837,346.640533 422.955811,346.088989 
z"/>
<path fill="#2F252B" opacity="1.000000" stroke="none" 
	d="
M421.661804,348.143250 
	C421.702393,348.474854 421.525238,348.938538 421.133545,349.536774 
	C421.093994,349.205994 421.269043,348.740631 421.661804,348.143250 
z"/>
<path fill="#2F252B" opacity="1.000000" stroke="none" 
	d="
M424.138611,344.261536 
	C424.204041,344.195465 424.361053,344.411957 424.361053,344.411957 
	C424.361053,344.411957 424.224365,344.642029 424.091064,344.659210 
	C423.957794,344.676392 424.073212,344.327637 424.138611,344.261536 
z"/>
<path fill="#2F252B" opacity="1.000000" stroke="none" 
	d="
M365.657776,375.513367 
	C365.974731,376.018250 366.036926,376.185699 366.079254,376.620331 
	C364.470337,377.499542 362.881287,378.111572 360.926361,378.586060 
	C362.174683,377.357697 363.788849,376.266815 365.657776,375.513367 
z"/>
<path fill="#332C30" opacity="1.000000" stroke="none" 
	d="
M400.531311,377.046082 
	C395.588165,381.355072 390.645050,385.664124 385.302124,389.575317 
	C384.850189,388.877716 384.798065,388.577942 384.922791,388.020264 
	C386.743164,386.131989 388.386658,384.501678 390.030151,382.871399 
	C391.362732,381.186249 392.695282,379.501099 394.065918,377.458954 
	C394.104004,377.101959 394.552490,377.040527 394.778076,377.021484 
	C395.525696,376.864471 396.047760,376.726471 396.745483,376.378174 
	C397.385468,376.154266 397.849762,376.140625 398.834229,376.322083 
	C399.746674,376.693512 400.139008,376.869812 400.531311,377.046082 
z"/>
<path fill="#261E23" opacity="1.000000" stroke="none" 
	d="
M415.874146,354.824280 
	C415.453827,356.700012 414.779480,358.276062 413.519226,359.916992 
	C412.630585,359.672333 412.327789,359.362885 412.025024,359.053406 
	C413.223389,357.543823 414.421783,356.034241 415.874146,354.824280 
z"/>
<path fill="#2F252B" opacity="1.000000" stroke="none" 
	d="
M405.162476,371.641602 
	C404.352448,372.817627 403.542419,373.993652 402.422852,375.106232 
	C402.867981,373.348724 403.622681,371.654663 404.712769,370.251709 
	C405.086243,370.909088 405.124359,371.275360 405.162476,371.641602 
z"/>
<path fill="#2F252B" opacity="1.000000" stroke="none" 
	d="
M411.690735,359.293945 
	C412.327789,359.362885 412.630585,359.672333 413.238037,360.108093 
	C412.943420,361.031525 412.344116,361.828674 411.445251,362.366028 
	C411.215973,361.248932 411.286224,360.391724 411.690735,359.293945 
z"/>
<path fill="#2F252B" opacity="1.000000" stroke="none" 
	d="
M410.817078,361.793976 
	C410.435211,363.127411 409.782715,364.096863 408.794617,364.573059 
	C409.154816,363.196533 409.850616,362.313263 410.817078,361.793976 
z"/>
<path fill="#2F252B" opacity="1.000000" stroke="none" 
	d="
M401.780273,374.666229 
	C401.582367,375.637451 401.119873,376.167542 400.375610,376.417786 
	C400.567780,375.500305 401.041718,374.862701 401.780273,374.666229 
z"/>
<path fill="#261E23" opacity="1.000000" stroke="none" 
	d="
M407.847412,364.782257 
	C407.933624,365.550598 407.856140,366.666351 407.110870,367.426422 
	C406.856628,366.423706 407.270142,365.776703 407.847412,364.782257 
z"/>
<path fill="#2F252B" opacity="1.000000" stroke="none" 
	d="
M407.715729,368.910187 
	C407.430542,369.303406 407.145355,369.696625 406.491058,370.061707 
	C405.853424,369.938812 405.584869,369.844147 405.937805,369.365051 
	C406.944763,368.957184 407.330231,368.933685 407.715729,368.910187 
z"/>
<path fill="#261E23" opacity="1.000000" stroke="none" 
	d="
M407.716675,368.415161 
	C407.330231,368.933685 406.944763,368.957184 405.978027,368.939819 
	C405.488525,368.651398 405.580261,368.403778 405.840637,367.797852 
	C406.578766,367.599762 407.148163,367.759949 407.716675,368.415161 
z"/>
<path fill="#261E23" opacity="1.000000" stroke="none" 
	d="
M405.453217,371.472717 
	C405.124359,371.275360 405.086243,370.909088 405.008789,369.988617 
	C405.224030,369.428497 405.478607,369.422577 405.889099,369.765503 
	C405.944611,370.510834 405.844299,370.907349 405.453217,371.472717 
z"/>
<path fill="#2F252B" opacity="1.000000" stroke="none" 
	d="
M400.572174,376.752197 
	C400.139008,376.869812 399.746674,376.693512 399.174255,376.245483 
	C399.202179,375.844177 399.410248,375.714539 399.874939,375.848114 
	C400.292084,376.226990 400.452545,376.342651 400.572174,376.752197 
z"/>
<path fill="#2F252B" opacity="1.000000" stroke="none" 
	d="
M382.209778,391.259979 
	C375.356934,395.699158 368.106873,397.814606 360.153473,394.634216 
	C361.565460,393.788422 362.847015,393.360992 364.128571,392.933563 
	C364.128571,392.933563 364.578125,393.001373 364.833679,393.318909 
	C365.400360,393.948761 365.711517,394.261108 366.022675,394.573425 
	C366.334473,394.083313 366.646271,393.593170 366.958069,393.103027 
	C367.134857,393.088165 367.311676,393.073334 367.966217,393.307373 
	C369.623688,393.047363 370.803375,392.538513 371.983093,392.029663 
	C372.569092,391.457031 373.155090,390.884369 374.003723,390.608765 
	C375.691528,390.915375 377.118317,390.886169 378.541290,390.946259 
	C379.766327,390.997925 380.987122,391.151489 382.209778,391.259979 
z"/>
<path fill="#CEBBC7" opacity="1.000000" stroke="none" 
	d="
M382.208557,391.202240 
	C380.987122,391.151489 379.766327,390.997925 378.541290,390.946259 
	C377.118317,390.886169 375.691528,390.915375 374.306641,390.543915 
	C375.567444,389.771515 376.788025,389.360992 378.259705,388.740479 
	C378.836823,388.479248 379.137970,388.363373 379.599060,388.024353 
	C381.312653,387.003998 382.841400,386.142059 384.600861,385.039551 
	C385.294861,384.558777 385.758179,384.318634 386.410461,383.896790 
	C387.504578,383.447601 388.409729,383.180115 389.672516,382.892029 
	C388.386658,384.501678 386.743164,386.131989 384.527557,388.104797 
	C383.671753,389.010925 383.388062,389.574585 383.104370,390.138214 
	C383.104370,390.138214 383.063202,390.016418 382.689819,389.856201 
	C382.245239,390.162476 382.174011,390.628906 382.102814,391.095367 
	C382.102814,391.095367 382.207367,391.144501 382.208557,391.202240 
z"/>
<path fill="#332C30" opacity="1.000000" stroke="none" 
	d="
M364.075989,392.619080 
	C362.847015,393.360992 361.565460,393.788422 359.877594,394.333649 
	C359.471283,394.451447 359.487122,394.415741 359.621948,394.044922 
	C358.613098,390.988556 357.469360,388.303009 356.325623,385.617462 
	C356.325653,385.617462 356.369965,385.617096 356.345734,385.604614 
	C357.300659,385.223816 358.279816,384.855499 358.067352,384.935425 
	C359.797424,386.885529 361.051422,388.298981 362.625366,389.858337 
	C363.304688,390.770996 363.664062,391.537811 364.075989,392.619080 
z"/>
<path fill="#332C30" opacity="1.000000" stroke="none" 
	d="
M371.633118,392.009399 
	C370.803375,392.538513 369.623688,393.047363 368.231537,393.286560 
	C369.107117,392.674316 370.195160,392.331757 371.633118,392.009399 
z"/>
<path fill="#332C30" opacity="1.000000" stroke="none" 
	d="
M366.637146,393.078186 
	C366.646271,393.593170 366.334473,394.083313 366.022675,394.573425 
	C365.711517,394.261108 365.400360,393.948761 365.059143,393.347900 
	C365.458130,393.057343 365.887207,393.055328 366.637146,393.078186 
z"/>
<path fill="#D4D0D2" opacity="1.000000" stroke="none" 
	d="
M163.934448,390.894073 
	C165.161774,389.841583 166.081146,388.960449 167.362305,387.624695 
	C168.276093,387.407013 168.828094,387.643982 169.380096,387.880920 
	C167.472397,389.868774 165.564697,391.856628 162.909302,393.939209 
	C158.104645,392.947784 154.047699,391.861664 149.753082,390.543030 
	C149.309998,390.393677 149.104538,390.476807 148.899063,390.559937 
	C148.659531,390.622498 148.510925,390.533234 148.135696,389.912537 
	C147.516434,389.537079 147.214706,389.541168 146.912964,389.545288 
	C146.673706,389.618378 146.521957,389.533844 146.134033,388.922791 
	C145.510742,388.548798 145.211121,388.543793 144.911484,388.538788 
	C144.911484,388.538788 144.834290,388.449554 144.824524,388.485229 
	C144.413376,387.847778 144.011978,387.174683 143.279144,385.945862 
	C148.797180,387.896851 153.643082,389.768738 158.601608,391.268127 
	C160.117523,391.726501 161.942856,391.161682 163.934448,390.894073 
z"/>
<path fill="#30272C" opacity="1.000000" stroke="none" 
	d="
M149.990753,390.775513 
	C154.047699,391.861664 158.104645,392.947784 162.581833,394.081329 
	C163.002060,394.128723 163.000336,394.521759 163.000488,394.718262 
	C158.445587,397.645905 154.499023,395.757935 150.312759,392.737701 
	C149.994232,391.718719 149.992493,391.247131 149.990753,390.775513 
z"/>
<path fill="#332C30" opacity="1.000000" stroke="none" 
	d="
M130.791901,379.194061 
	C130.043228,379.217957 129.613281,378.891113 129.061432,378.320984 
	C128.939514,378.077728 128.968887,378.053131 129.164459,377.633057 
	C130.149170,377.516541 130.938339,377.820099 131.727493,378.123688 
	C131.521881,378.363556 131.316254,378.603424 130.791901,379.194061 
z"/>
<path fill="#332C30" opacity="1.000000" stroke="none" 
	d="
M149.753098,390.543030 
	C149.992493,391.247131 149.994232,391.718719 149.999695,392.544006 
	C149.391449,392.316162 148.779526,391.734680 148.533325,390.856567 
	C149.104538,390.476807 149.309998,390.393677 149.753098,390.543030 
z"/>
<path fill="#332C30" opacity="1.000000" stroke="none" 
	d="
M146.654694,390.073425 
	C147.214706,389.541168 147.516434,389.537079 148.197083,389.780518 
	C147.849487,390.219269 147.122955,390.410400 146.654694,390.073425 
z"/>
<path fill="#332C30" opacity="1.000000" stroke="none" 
	d="
M144.651489,389.066711 
	C145.211121,388.543793 145.510742,388.548798 146.193451,388.788940 
	C145.848175,389.214294 145.119827,389.404449 144.651489,389.066711 
z"/>
<path fill="#20161C" opacity="1.000000" stroke="none" 
	d="
M148.142105,369.959015 
	C148.155334,370.216583 148.168549,370.474121 148.261169,371.111847 
	C148.340591,371.492065 148.275513,371.463348 148.038483,371.272217 
	C147.628723,371.028015 147.455994,370.974915 147.283249,370.921844 
	C146.312775,370.490997 145.342300,370.060150 144.065582,369.328430 
	C143.759323,369.027618 143.642487,369.017181 143.642487,369.017181 
	C143.338760,368.872223 143.035049,368.727234 142.606323,368.358093 
	C144.366531,366.141144 146.145081,366.028595 147.932709,368.965637 
	C148.084656,369.496643 148.142105,369.959015 148.142105,369.959015 
z"/>
<path fill="#20161C" opacity="1.000000" stroke="none" 
	d="
M141.891068,367.054718 
	C141.862610,367.055603 142.063644,366.620392 142.063644,366.620392 
	C142.063644,366.620392 142.405502,366.949524 142.182129,367.049072 
	C141.958755,367.148621 141.919525,367.053833 141.891068,367.054718 
z"/>
<path fill="#332C30" opacity="1.000000" stroke="none" 
	d="
M143.593033,369.115662 
	C143.642487,369.017181 143.759323,369.027618 143.769669,369.057312 
	C143.780014,369.087036 143.543579,369.214172 143.593033,369.115662 
z"/>
<path fill="#2F252B" opacity="1.000000" stroke="none" 
	d="
M147.312729,371.086456 
	C147.455994,370.974915 147.628723,371.028015 148.004379,371.262146 
	C148.207291,371.443176 147.753601,371.524506 147.753601,371.524506 
	C147.753601,371.524506 147.342209,371.251068 147.312729,371.086456 
z"/>
<path fill="#C8B3C0" opacity="1.000000" stroke="none" 
	d="
M132.004578,378.289490 
	C130.938339,377.820099 130.149170,377.516541 129.153976,377.631714 
	C128.900558,377.066925 129.207657,375.845856 128.738144,375.145081 
	C127.423843,373.183258 125.788643,371.436462 124.280067,369.604828 
	C124.594147,369.302979 124.908226,369.001129 125.222305,368.699280 
	C128.012482,371.530579 130.802643,374.361877 133.592819,377.193176 
	C133.155762,377.613861 132.718719,378.034546 132.004578,378.289490 
z"/>
<path fill="#D4D0D2" opacity="1.000000" stroke="none" 
	d="
M142.859512,384.572723 
	C141.490265,384.733459 139.819565,384.608978 138.148880,384.484497 
	C138.250153,383.914154 138.351425,383.343781 138.452698,382.773438 
	C139.821152,383.278137 141.189606,383.782837 142.859512,384.572723 
z"/>
<path fill="#332C30" opacity="1.000000" stroke="none" 
	d="
M169.572357,387.642242 
	C168.828094,387.643982 168.276093,387.407013 167.439453,387.299927 
	C167.102219,386.599274 167.049606,385.768829 167.160461,384.289398 
	C167.637573,383.437714 167.951187,383.234955 168.264801,383.032196 
	C168.764740,384.489319 169.264679,385.946411 169.572357,387.642242 
z"/>
<path fill="#998B94" opacity="1.000000" stroke="none" 
	d="
M156.041443,373.288696 
	C155.629288,373.519135 155.116867,373.470825 154.604431,373.422485 
	C154.675659,373.167694 154.746872,372.912933 154.818100,372.658142 
	C155.192459,372.775391 155.566818,372.892639 156.041443,373.288696 
z"/>
<path fill="#998B94" opacity="1.000000" stroke="none" 
	d="
M157.078857,374.231537 
	C158.027054,374.423981 158.643402,374.847839 159.259766,375.271698 
	C159.083450,375.516418 158.907150,375.761139 158.730850,376.005859 
	C158.069565,375.491547 157.408295,374.977264 157.078857,374.231537 
z"/>
<path fill="#998B94" opacity="1.000000" stroke="none" 
	d="
M168.089569,382.778687 
	C167.951187,383.234955 167.637573,383.437714 167.168823,383.874268 
	C166.528885,383.428589 166.044098,382.749115 165.691895,381.599304 
	C165.983932,380.985291 166.143356,380.841675 166.302795,380.698029 
	C166.839966,381.307098 167.377136,381.916138 168.089569,382.778687 
z"/>
<path fill="#332C30" opacity="1.000000" stroke="none" 
	d="
M150.675323,372.350159 
	C150.845718,371.525116 151.080978,370.727478 151.316238,369.929810 
	C151.515793,369.992432 151.715332,370.055023 151.914886,370.117615 
	C151.705521,370.750519 151.496170,371.383392 151.045990,372.259399 
	C150.805161,372.502533 150.740189,372.377594 150.675323,372.350159 
z"/>
<path fill="#998B94" opacity="1.000000" stroke="none" 
	d="
M163.491409,378.399933 
	C163.984085,378.677368 164.476746,378.954803 164.918121,379.703247 
	C164.743881,380.350372 164.620926,380.526581 164.497955,380.702759 
	C164.039932,380.356079 163.581909,380.009430 163.152557,379.236084 
	C163.284622,378.672913 163.388016,378.536407 163.491409,378.399933 
z"/>
<path fill="#332C30" opacity="1.000000" stroke="none" 
	d="
M148.372833,369.948364 
	C148.142105,369.959015 148.084656,369.496643 148.096695,369.264282 
	C148.512177,369.180023 148.915604,369.328125 149.319046,369.476227 
	C149.080551,369.630035 148.842056,369.783875 148.372833,369.948364 
z"/>
<path fill="#998B94" opacity="1.000000" stroke="none" 
	d="
M165.558960,381.310852 
	C165.066315,381.371552 164.871155,381.211426 164.602936,380.857605 
	C164.620926,380.526581 164.743881,380.350372 165.084244,379.935760 
	C165.609375,379.820374 165.863892,380.013519 166.183990,380.487427 
	C166.143356,380.841675 165.983932,380.985291 165.558960,381.310852 
z"/>
<path fill="#998B94" opacity="1.000000" stroke="none" 
	d="
M160.512482,377.623993 
	C160.233109,377.244415 159.953735,376.864838 159.674362,376.485229 
	C160.076202,376.360504 160.478027,376.235779 160.906372,376.602081 
	C160.792755,377.270081 160.652618,377.447021 160.512482,377.623993 
z"/>
<path fill="#998B94" opacity="1.000000" stroke="none" 
	d="
M161.165314,376.846924 
	C161.694550,376.738068 161.962433,376.918427 162.126587,377.546753 
	C161.910919,378.094360 161.770050,378.236938 161.629196,378.379547 
	C161.331131,378.292938 161.064117,378.148834 160.670319,377.785583 
	C160.652618,377.447021 160.792755,377.270081 161.165314,376.846924 
z"/>
<path fill="#998B94" opacity="1.000000" stroke="none" 
	d="
M163.000092,378.991577 
	C162.499115,379.092712 162.211884,378.947357 161.793213,378.558563 
	C161.770050,378.236938 161.910919,378.094360 162.271271,377.742249 
	C162.748215,377.686859 162.990662,377.861755 163.354767,378.228699 
	C163.388016,378.536407 163.284622,378.672913 163.000092,378.991577 
z"/>
<path fill="#2F252B" opacity="1.000000" stroke="none" 
	d="
M377.524475,366.716278 
	C377.775421,367.515747 377.911713,368.446625 377.568878,368.683289 
	C373.947235,371.183105 370.249176,373.572235 366.209106,375.965088 
	C366.265961,374.829590 366.360260,373.250214 367.162994,372.694916 
	C370.385223,370.466003 373.826874,368.554352 377.524475,366.716278 
z"/>
<path fill="#2F252B" opacity="1.000000" stroke="none" 
	d="
M356.114380,385.844116 
	C357.469360,388.303009 358.613098,390.988556 359.610046,394.056763 
	C358.276581,391.649902 357.089874,388.860352 356.114380,385.844116 
z"/>
<path fill="#2F252B" opacity="1.000000" stroke="none" 
	d="
M383.358398,390.444122 
	C383.388062,389.574585 383.671753,389.010925 384.350677,388.362732 
	C384.798065,388.577942 384.850189,388.877716 384.954071,389.630981 
	C384.541321,390.306305 384.076874,390.528168 383.358398,390.444122 
z"/>
<path fill="#2F252B" opacity="1.000000" stroke="none" 
	d="
M382.453156,391.234497 
	C382.174011,390.628906 382.245239,390.162476 382.703552,389.915924 
	C382.994904,390.548431 382.899200,390.961029 382.453156,391.234497 
z"/>
</svg>