<?xml version="1.0" encoding="UTF-8"?>
<svg xmlns="http://www.w3.org/2000/svg" xmlns:xlink="http://www.w3.org/1999/xlink" width="256px" height="256px" viewBox="0 0 256 256" version="1.1">
<g id="surface1">
<path style=" stroke:none;fill-rule:nonzero;fill:rgb(0%,0%,0%);fill-opacity:1;" d="M 123.832031 27.027344 C 118.453125 27.398438 111.789062 28.429688 106.960938 29.617188 C 91.429688 33.464844 77.957031 40.445312 65.449219 51.128906 C 62.921875 53.300781 57.578125 58.691406 55.148438 61.539062 C 49.578125 68.054688 45.199219 74.699219 41.351562 82.453125 C 38.96875 87.28125 37.664062 90.433594 36.039062 95.242188 C 30.90625 110.574219 29.519531 126.3125 31.886719 142.625 C 33.769531 155.640625 38.390625 168.625 45.183594 180.015625 C 46.472656 182.171875 49.609375 186.867188 50.847656 188.476562 C 52.492188 190.648438 54.726562 193.398438 56.082031 194.910156 C 57.625 196.664062 62.148438 201.300781 63.277344 202.296875 C 63.660156 202.632812 64.355469 203.261719 64.789062 203.664062 C 67.140625 205.851562 72 209.601562 75.652344 212.015625 C 76.941406 212.867188 78.019531 213.621094 78.035156 213.6875 C 78.070312 213.769531 78.164062 213.816406 78.230469 213.816406 C 78.308594 213.816406 79.019531 214.203125 79.789062 214.667969 C 84.730469 217.660156 91.847656 220.992188 97.625 223.019531 C 103.148438 224.964844 110.148438 226.671875 115.894531 227.492188 C 123.6875 228.601562 133.828125 228.746094 141.972656 227.894531 C 151.582031 226.878906 160.789062 224.707031 168.722656 221.585938 C 181.390625 216.617188 191.566406 209.9375 200.5625 200.671875 C 202.898438 198.273438 205.875 194.832031 205.875 194.527344 C 205.875 194.429688 205.941406 194.347656 206.019531 194.347656 C 206.101562 194.347656 206.777344 193.527344 207.53125 192.546875 C 217.675781 179.046875 223.917969 162.6875 225.980469 144.234375 C 226.65625 138.214844 226.71875 136.332031 226.71875 119.539062 L 226.71875 103.367188 L 201.09375 103.320312 L 175.484375 103.289062 L 174.632812 101.871094 C 173.472656 99.941406 171.910156 97.65625 171.734375 97.65625 C 171.652344 97.65625 171.589844 97.578125 171.589844 97.480469 C 171.589844 97.253906 170.269531 95.597656 168.484375 93.570312 L 167.226562 92.15625 L 167.839844 91.398438 C 168.160156 90.996094 168.644531 90.417969 168.902344 90.113281 C 169.222656 89.742188 169.304688 89.515625 169.191406 89.402344 C 169.078125 89.292969 168.933594 89.308594 168.742188 89.46875 C 168.578125 89.597656 168 90.09375 167.453125 90.5625 L 166.4375 91.414062 L 165.359375 90.386719 C 163.925781 89.035156 162.285156 87.632812 160.917969 86.636719 C 160.191406 86.105469 159.839844 85.75 159.886719 85.574219 C 159.917969 85.445312 162.253906 81.101562 165.054688 75.9375 C 167.855469 70.773438 170.140625 66.511719 170.140625 66.429688 C 170.140625 66.234375 165.890625 63.742188 162.960938 62.230469 C 157.136719 59.238281 150.179688 56.871094 143.582031 55.667969 C 140.039062 55.007812 137.640625 54.734375 133.828125 54.507812 L 130.574219 54.332031 L 130.480469 53.367188 C 130.429688 52.835938 130.382812 52.160156 130.382812 51.871094 L 130.382812 51.324219 L 132.203125 51.324219 C 138.527344 51.324219 147.542969 52.929688 154.335938 55.265625 C 159.660156 57.082031 166.488281 60.25 169.738281 62.421875 C 170.09375 62.648438 170.65625 63.003906 170.976562 63.210938 L 171.574219 63.566406 L 176.355469 55.152344 C 178.976562 50.519531 181.664062 45.804688 182.324219 44.660156 C 183.277344 42.988281 183.46875 42.539062 183.308594 42.394531 C 182.9375 42.054688 177.851562 39.160156 175.613281 38.015625 C 163.847656 32 151.96875 28.507812 138.992188 27.253906 C 135.984375 26.964844 126.761719 26.820312 123.832031 27.027344 Z M 128.660156 51.433594 C 128.742188 51.597656 128.484375 54.234375 128.371094 54.363281 C 128.320312 54.410156 127.195312 54.507812 125.859375 54.570312 C 110.953125 55.3125 95.789062 61.296875 83.945312 71.128906 C 81.5625 73.105469 76.296875 78.449219 74.253906 80.957031 C 65.480469 91.753906 60.023438 104.460938 58.285156 118.089844 C 57.867188 121.324219 57.5625 125.957031 57.691406 127.113281 C 57.753906 127.742188 57.722656 128.082031 57.578125 128.191406 C 57.480469 128.273438 56.835938 128.371094 56.175781 128.402344 L 54.96875 128.464844 L 54.984375 125.167969 C 55.082031 113.261719 58.753906 100.199219 65.09375 89.226562 C 71.066406 78.898438 78.984375 70.386719 88.613281 63.953125 C 99.140625 56.90625 110.617188 52.835938 123.378906 51.578125 C 125.921875 51.324219 128.5625 51.257812 128.660156 51.433594 Z M 130.109375 56.421875 C 130.609375 61.8125 131.042969 66.527344 131.429688 70.546875 C 131.574219 71.964844 131.894531 75.550781 132.167969 78.511719 C 132.425781 81.472656 132.796875 85.414062 132.957031 87.28125 C 133.136719 89.128906 133.390625 91.882812 133.519531 93.394531 C 133.648438 94.890625 133.8125 96.546875 133.859375 97.046875 C 133.972656 98.074219 133.972656 98.074219 132.972656 97.882812 L 132.457031 97.769531 L 132.570312 96.722656 C 132.652344 95.871094 132.636719 95.695312 132.457031 95.757812 C 132.3125 95.808594 132.203125 96.160156 132.152344 96.738281 C 132.105469 97.222656 132.023438 97.671875 131.976562 97.738281 C 131.910156 97.785156 131.394531 97.785156 130.800781 97.722656 L 129.738281 97.609375 L 129.738281 95.46875 C 129.738281 94.214844 129.675781 93.296875 129.578125 93.234375 C 129.382812 93.121094 129.351562 51.484375 129.546875 51.484375 C 129.609375 51.484375 129.867188 53.703125 130.109375 56.421875 Z M 119.277344 78.816406 C 119.277344 78.882812 118.9375 79.316406 118.503906 79.75 C 117.957031 80.347656 117.539062 80.621094 117.023438 80.765625 C 112.933594 81.859375 108.878906 83.515625 105.351562 85.511719 L 103.757812 86.410156 L 102.472656 86.363281 L 101.167969 86.316406 L 102.535156 85.429688 C 106.671875 82.792969 112.144531 80.476562 117.503906 79.089844 C 119.308594 78.625 119.277344 78.640625 119.277344 78.816406 Z M 142.132812 79.269531 C 145.433594 80.121094 148.667969 81.3125 151.695312 82.773438 C 153.578125 83.691406 157.488281 85.960938 157.664062 86.234375 C 157.730469 86.332031 157.328125 86.394531 156.539062 86.394531 C 155.332031 86.394531 155.285156 86.378906 153.578125 85.429688 C 150.40625 83.644531 146.496094 82.019531 143.097656 81.070312 C 141.539062 80.636719 141.34375 80.539062 140.570312 79.765625 C 139.300781 78.511719 139.269531 78.511719 142.132812 79.269531 Z M 126.035156 80.75 C 126.035156 81.023438 125.957031 81.277344 125.875 81.328125 C 125.777344 81.390625 124.683594 81.570312 123.414062 81.730469 C 118.324219 82.40625 113.964844 83.691406 109.375 85.894531 C 104.949219 88.019531 101.859375 90.128906 97.433594 94.039062 L 96.613281 94.761719 L 96.144531 94.359375 L 95.695312 93.957031 L 96.5 93.214844 C 100.363281 89.660156 104.917969 86.621094 109.539062 84.496094 C 113.738281 82.582031 119.035156 81.070312 123.589844 80.523438 C 126.148438 80.21875 126.035156 80.199219 126.035156 80.75 Z M 136.5 80.699219 C 145.253906 81.921875 153.65625 85.703125 160.644531 91.558594 C 161.65625 92.414062 162.671875 93.3125 162.882812 93.539062 L 163.285156 93.972656 L 162.863281 94.390625 L 162.445312 94.808594 L 160.933594 93.457031 C 153.65625 86.910156 145.078125 82.953125 135.550781 81.730469 C 133.246094 81.425781 132.957031 81.328125 132.957031 80.75 C 132.957031 80.21875 133.007812 80.21875 136.5 80.699219 Z M 125.828125 83.128906 C 125.777344 83.644531 125.472656 86.878906 125.167969 90.335938 C 124.84375 93.78125 124.539062 96.933594 124.492188 97.335938 C 124.363281 98.253906 124.25 97.996094 123.847656 95.679688 C 123.652344 94.550781 123.476562 93.957031 123.347656 93.957031 C 123.089844 93.957031 123.089844 93.8125 123.460938 96.113281 C 123.621094 97.175781 123.734375 98.089844 123.703125 98.140625 C 123.621094 98.269531 121.691406 98.6875 121.609375 98.589844 C 121.59375 98.558594 121.449219 98.125 121.304688 97.609375 C 121.015625 96.628906 120.613281 96.304688 120.789062 97.207031 C 120.835938 97.496094 120.933594 97.996094 120.980469 98.300781 L 121.078125 98.863281 L 120.082031 99.152344 C 119.53125 99.3125 119.050781 99.410156 119.003906 99.378906 C 118.96875 99.332031 118.617188 98.476562 118.230469 97.480469 C 117.859375 96.484375 117.457031 95.628906 117.359375 95.597656 C 117.070312 95.5 117.152344 95.871094 117.828125 97.722656 C 118.179688 98.703125 118.472656 99.539062 118.472656 99.605469 C 118.472656 99.667969 118.277344 99.796875 118.035156 99.878906 C 117.777344 99.972656 117.3125 100.152344 116.972656 100.296875 L 116.378906 100.554688 L 115.976562 99.667969 C 115.765625 99.183594 115.507812 98.785156 115.429688 98.785156 C 115.1875 98.785156 115.203125 98.960938 115.589844 99.894531 C 115.78125 100.34375 115.910156 100.746094 115.878906 100.761719 C 115.523438 101.035156 114.269531 101.679688 114.09375 101.679688 C 113.980469 101.679688 113.433594 100.875 112.871094 99.910156 C 111.953125 98.300781 111.550781 97.835938 111.550781 98.316406 C 111.550781 98.414062 111.984375 99.265625 112.515625 100.214844 C 113.046875 101.164062 113.480469 101.984375 113.480469 102.03125 C 113.480469 102.097656 112.386719 102.835938 111.773438 103.175781 C 111.660156 103.238281 111.371094 102.964844 111.066406 102.484375 C 110.566406 101.695312 110.261719 101.46875 110.261719 101.871094 C 110.261719 101.984375 110.472656 102.402344 110.746094 102.804688 C 111.277344 103.609375 111.257812 103.691406 110.085938 104.511719 C 109.539062 104.878906 109.410156 104.914062 109.230469 104.71875 C 109.117188 104.589844 108.507812 103.851562 107.847656 103.078125 C 107.105469 102.195312 106.609375 101.726562 106.527344 101.808594 C 106.429688 101.90625 106.738281 102.417969 107.347656 103.207031 C 107.894531 103.882812 108.328125 104.480469 108.328125 104.527344 C 108.328125 104.625 108.296875 104.605469 102.308594 99.585938 C 99.605469 97.335938 97.402344 95.40625 97.402344 95.324219 C 97.382812 95.082031 98.800781 93.730469 100.492188 92.363281 C 107.269531 86.894531 115.105469 83.5625 123.945312 82.390625 C 124.523438 82.308594 125.199219 82.246094 125.457031 82.226562 L 125.921875 82.210938 Z M 135.46875 82.453125 C 142.164062 83.273438 149.023438 85.832031 154.769531 89.628906 C 156.84375 91.011719 159.195312 92.832031 160.628906 94.164062 C 161.914062 95.371094 161.914062 95.226562 160.5 96.417969 C 156.570312 99.683594 153.03125 102.660156 152.0625 103.496094 C 151.46875 104.027344 150.9375 104.414062 150.890625 104.367188 C 150.839844 104.316406 151.210938 103.753906 151.726562 103.128906 C 152.289062 102.417969 152.578125 101.921875 152.5 101.839844 C 152.402344 101.742188 151.839844 102.289062 151.003906 103.289062 C 150.261719 104.171875 149.617188 104.898438 149.570312 104.898438 C 149.390625 104.898438 147.925781 103.691406 147.925781 103.53125 C 147.925781 103.449219 148.136719 103.046875 148.410156 102.644531 C 148.714844 102.195312 148.828125 101.871094 148.730469 101.777344 C 148.652344 101.695312 148.554688 101.648438 148.523438 101.695312 C 148.492188 101.726562 148.234375 102.113281 147.945312 102.53125 C 147.414062 103.304688 147.414062 103.304688 146.992188 103.03125 C 146.769531 102.886719 146.351562 102.628906 146.042969 102.453125 C 145.753906 102.273438 145.511719 102.097656 145.511719 102.066406 C 145.511719 102.015625 145.949219 101.210938 146.496094 100.261719 C 147.574219 98.363281 147.605469 98.285156 147.363281 98.203125 C 147.269531 98.15625 146.769531 98.847656 146.269531 99.699219 C 145.769531 100.570312 145.289062 101.390625 145.207031 101.519531 C 145.078125 101.710938 144.902344 101.679688 144.082031 101.277344 C 143.53125 101.019531 143.097656 100.746094 143.097656 100.683594 C 143.097656 100.601562 143.242188 100.261719 143.421875 99.910156 C 143.597656 99.554688 143.742188 99.167969 143.742188 99.023438 C 143.742188 98.527344 143.4375 98.816406 143.035156 99.667969 L 142.632812 100.570312 L 142.019531 100.296875 C 141.683594 100.152344 141.296875 100.007812 141.167969 99.957031 C 140.554688 99.714844 140.554688 99.605469 141.167969 97.851562 C 141.503906 96.902344 141.828125 96 141.890625 95.839844 C 141.972656 95.664062 141.921875 95.566406 141.761719 95.566406 C 141.503906 95.566406 141.519531 95.5 140.75 97.65625 C 140.441406 98.492188 140.121094 99.25 140.039062 99.332031 C 139.910156 99.460938 138.316406 99.023438 138.058594 98.785156 C 137.980469 98.71875 138.027344 98.253906 138.15625 97.753906 C 138.285156 97.253906 138.335938 96.820312 138.269531 96.773438 C 138.09375 96.660156 137.980469 96.851562 137.691406 97.816406 C 137.527344 98.398438 137.367188 98.621094 137.175781 98.605469 C 136.546875 98.574219 135.292969 98.203125 135.292969 98.058594 C 135.292969 97.960938 135.4375 97.046875 135.597656 96 C 135.871094 94.261719 135.855469 93.601562 135.566406 94.070312 C 135.5 94.183594 135.308594 95.035156 135.148438 96 C 134.664062 98.800781 134.632812 98.734375 134.164062 93.394531 C 134.035156 91.882812 133.746094 88.808594 133.539062 86.554688 C 133.328125 84.304688 133.183594 82.40625 133.230469 82.324219 C 133.3125 82.179688 133.214844 82.179688 135.46875 82.453125 Z M 97.222656 95.886719 C 100.652344 98.734375 108.121094 105.007812 108.570312 105.410156 C 108.652344 105.492188 108.457031 105.796875 108.089844 106.183594 L 107.460938 106.828125 L 106.800781 106.199219 C 106.445312 105.863281 105.996094 105.523438 105.804688 105.476562 C 105.625 105.410156 104.871094 104.734375 104.144531 103.964844 C 103.421875 103.191406 100.554688 100.28125 97.769531 97.480469 C 94.984375 94.679688 92.714844 92.347656 92.714844 92.265625 C 92.714844 92.105469 92.570312 91.992188 97.222656 95.886719 Z M 166.246094 92.621094 C 165.941406 92.992188 160.757812 99.347656 158.40625 102.242188 C 157.390625 103.480469 156.441406 104.640625 156.28125 104.816406 C 156.105469 104.992188 155.429688 105.828125 154.753906 106.667969 C 154.078125 107.503906 153.464844 108.257812 153.382812 108.355469 C 153.289062 108.4375 152.996094 108.257812 152.59375 107.875 L 151.953125 107.246094 L 152.546875 106.632812 C 152.871094 106.296875 153.222656 105.847656 153.304688 105.636719 C 153.496094 105.21875 166.101562 92.347656 166.34375 92.347656 C 166.421875 92.347656 166.375 92.476562 166.246094 92.621094 Z M 94.808594 95.808594 C 95.226562 96.257812 95.324219 96.082031 93.777344 97.898438 C 87.386719 105.410156 83.394531 114.855469 82.496094 124.652344 C 82.429688 125.3125 82.300781 125.859375 82.1875 125.890625 C 82.09375 125.925781 81.769531 125.988281 81.496094 126.039062 C 80.964844 126.117188 80.964844 126.117188 80.964844 125.441406 C 80.964844 123.832031 81.59375 120.070312 82.351562 117.058594 C 83.992188 110.609375 87.257812 103.996094 91.394531 98.785156 C 92.730469 97.09375 94.195312 95.4375 94.34375 95.421875 C 94.390625 95.40625 94.597656 95.582031 94.808594 95.808594 Z M 165.746094 96.484375 C 170.898438 102.308594 174.695312 109.433594 176.660156 116.882812 C 177.402344 119.730469 178.351562 125.585938 178.109375 125.957031 C 178.078125 126.019531 177.738281 126.039062 177.351562 125.988281 C 176.675781 125.890625 176.660156 125.875 176.613281 125.25 C 176.433594 122.480469 175.53125 117.960938 174.550781 114.742188 C 173.828125 112.410156 172.007812 107.921875 171.734375 107.824219 C 171.652344 107.792969 171.589844 107.664062 171.589844 107.519531 C 171.589844 107.199219 169.65625 103.835938 168.402344 102 C 167.453125 100.601562 165.90625 98.621094 164.441406 96.917969 L 163.863281 96.242188 L 164.203125 95.824219 C 164.378906 95.597656 164.585938 95.40625 164.652344 95.40625 C 164.730469 95.40625 165.214844 95.886719 165.746094 96.484375 Z M 98.992188 100.890625 C 100.714844 103.015625 102.726562 105.492188 103.46875 106.378906 C 104.191406 107.277344 104.789062 108.035156 104.789062 108.066406 C 104.789062 108.210938 104.546875 108.035156 103.484375 107.148438 C 102.855469 106.617188 102.277344 106.183594 102.195312 106.183594 C 101.777344 106.183594 102.230469 106.714844 103.597656 107.855469 C 104.433594 108.566406 105.109375 109.191406 105.109375 109.273438 C 105.109375 109.449219 103.953125 111.011719 103.808594 111.011719 C 103.757812 111.011719 103.40625 110.785156 103.050781 110.527344 C 102.679688 110.253906 102.308594 110.046875 102.214844 110.046875 C 101.859375 110.046875 102.085938 110.367188 102.777344 110.867188 C 103.179688 111.15625 103.5 111.429688 103.5 111.476562 C 103.5 111.71875 102.4375 113.261719 102.277344 113.261719 C 102.164062 113.261719 101.34375 112.828125 100.441406 112.296875 C 98.738281 111.285156 98.511719 111.203125 98.511719 111.523438 C 98.527344 111.636719 99.316406 112.199219 100.28125 112.765625 C 101.261719 113.328125 102.050781 113.84375 102.050781 113.90625 C 102.050781 114.066406 101.070312 115.835938 100.988281 115.835938 C 100.941406 115.835938 100.554688 115.660156 100.121094 115.433594 C 99.1875 114.96875 99.15625 114.953125 99.15625 115.289062 C 99.15625 115.433594 99.476562 115.675781 99.960938 115.871094 C 100.410156 116.046875 100.765625 116.304688 100.765625 116.417969 C 100.765625 116.65625 100.007812 118.410156 99.910156 118.410156 C 99.878906 118.410156 99.058594 118.121094 98.109375 117.769531 C 96.304688 117.09375 95.871094 116.996094 95.96875 117.300781 C 96 117.398438 96.835938 117.785156 97.820312 118.136719 C 98.800781 118.507812 99.652344 118.863281 99.703125 118.894531 C 99.75 118.941406 99.652344 119.425781 99.492188 119.941406 C 99.1875 121 99.121094 121.035156 97.675781 120.742188 C 96.707031 120.550781 96.933594 120.9375 97.949219 121.226562 C 98.429688 121.371094 98.863281 121.546875 98.914062 121.628906 C 99.042969 121.839844 98.640625 123.589844 98.429688 123.65625 C 98.269531 123.71875 96.257812 123.445312 94.777344 123.140625 C 94.453125 123.078125 94.324219 123.109375 94.324219 123.285156 C 94.324219 123.445312 94.839844 123.609375 96.257812 123.882812 C 97.320312 124.074219 98.1875 124.300781 98.1875 124.347656 C 98.1875 124.414062 96.871094 124.589844 95.257812 124.734375 C 93.632812 124.894531 90.429688 125.199219 88.128906 125.410156 C 82.703125 125.925781 83.21875 125.957031 83.21875 125.121094 C 83.21875 124.75 83.363281 123.480469 83.542969 122.304688 C 84.621094 115.066406 87.003906 108.839844 91.027344 102.804688 C 92.796875 100.132812 95.324219 97.011719 95.679688 97.011719 C 95.773438 97.03125 97.273438 98.765625 98.992188 100.890625 Z M 165.039062 98.800781 C 165.8125 99.714844 167.128906 101.484375 167.96875 102.726562 C 169.496094 105.007812 171.589844 108.804688 171.589844 109.289062 C 171.589844 109.449219 171.652344 109.5625 171.71875 109.5625 C 171.878906 109.5625 172.765625 111.75 173.585938 114.148438 C 174.597656 117.125 175.453125 121.144531 175.839844 124.878906 L 175.9375 125.8125 L 175.421875 125.8125 C 175.128906 125.8125 174.277344 125.746094 173.519531 125.652344 C 172.765625 125.570312 169.65625 125.28125 166.597656 124.992188 C 163.542969 124.71875 160.980469 124.429688 160.917969 124.363281 C 160.851562 124.300781 161.65625 124.089844 162.71875 123.898438 C 164.183594 123.625 164.667969 123.464844 164.667969 123.285156 C 164.667969 123.109375 164.554688 123.0625 164.28125 123.140625 C 163.445312 123.351562 160.613281 123.753906 160.53125 123.671875 C 160.484375 123.625 160.355469 123.140625 160.242188 122.59375 C 160.015625 121.5 159.953125 121.597656 161.160156 121.242188 C 162.011719 120.984375 162.238281 120.550781 161.433594 120.726562 C 159.773438 121.082031 159.886719 121.128906 159.597656 120.117188 C 159.453125 119.601562 159.355469 119.101562 159.40625 119.007812 C 159.453125 118.894531 160.226562 118.523438 161.144531 118.1875 C 162.058594 117.832031 162.914062 117.460938 163.027344 117.367188 C 163.507812 116.914062 162.882812 117.027344 161.0625 117.703125 C 160 118.089844 159.082031 118.363281 159.035156 118.296875 C 158.96875 118.21875 158.761719 117.785156 158.566406 117.316406 C 158.292969 116.640625 158.246094 116.398438 158.40625 116.222656 C 158.503906 116.09375 158.679688 115.996094 158.777344 115.996094 C 158.875 115.996094 159.195312 115.851562 159.484375 115.675781 C 160.320312 115.160156 159.9375 115 158.921875 115.433594 C 158.421875 115.660156 158.003906 115.820312 157.988281 115.804688 C 157.972656 115.773438 157.730469 115.355469 157.457031 114.855469 C 156.859375 113.777344 156.78125 113.90625 158.984375 112.601562 C 159.808594 112.121094 160.484375 111.636719 160.484375 111.523438 C 160.484375 111.429688 160.433594 111.332031 160.371094 111.332031 C 160.320312 111.332031 159.53125 111.765625 158.617188 112.296875 C 157.039062 113.214844 156.457031 113.441406 156.457031 113.117188 C 156.457031 113.039062 156.363281 112.859375 156.265625 112.75 C 156.152344 112.636719 155.925781 112.296875 155.765625 112.023438 L 155.492188 111.523438 L 156.089844 111.027344 C 156.425781 110.753906 156.75 110.527344 156.8125 110.527344 C 156.894531 110.527344 156.941406 110.414062 156.941406 110.285156 C 156.941406 110.15625 156.894531 110.046875 156.828125 110.046875 C 156.714844 110.046875 156.105469 110.414062 155.460938 110.882812 C 155.15625 111.105469 155.15625 111.105469 154.269531 109.835938 L 153.835938 109.226562 L 154.460938 108.710938 C 154.800781 108.4375 155.347656 107.953125 155.652344 107.664062 C 155.960938 107.359375 156.378906 107.003906 156.570312 106.875 C 156.910156 106.652344 157.085938 106.183594 156.828125 106.183594 C 156.78125 106.183594 156.183594 106.632812 155.542969 107.164062 C 154.882812 107.710938 154.316406 108.128906 154.285156 108.097656 C 154.253906 108.050781 154.625 107.566406 155.089844 106.988281 C 155.574219 106.410156 155.976562 105.847656 155.976562 105.734375 C 155.976562 105.636719 156.039062 105.539062 156.121094 105.539062 C 156.203125 105.539062 157.828125 103.625 159.757812 101.261719 C 161.675781 98.910156 163.332031 97.03125 163.429688 97.0625 C 163.542969 97.09375 164.265625 97.867188 165.039062 98.800781 Z M 133.519531 98.429688 L 134.003906 98.558594 L 134.277344 101.535156 C 134.96875 109.191406 135.855469 118.75 135.953125 119.648438 C 136.015625 120.214844 136.015625 120.664062 135.953125 120.664062 C 135.902344 120.664062 135.566406 120.488281 135.210938 120.261719 C 134.070312 119.539062 132.796875 119.070312 131.300781 118.796875 C 130.480469 118.652344 129.722656 118.507812 129.625 118.476562 C 129.464844 118.425781 129.417969 116.273438 129.417969 108.386719 C 129.417969 102.871094 129.464844 98.300781 129.546875 98.21875 C 129.675781 98.074219 132.8125 98.234375 133.519531 98.429688 Z M 124.234375 99.605469 C 124.183594 99.894531 123.910156 100.007812 122.414062 100.390625 C 118.550781 101.359375 114.785156 103.191406 111.757812 105.554688 C 110.726562 106.359375 110.375 106.488281 110.164062 106.152344 C 110.003906 105.910156 110.855469 105.1875 112.820312 103.867188 C 115.605469 102 118.839844 100.554688 122.253906 99.667969 C 124.105469 99.183594 124.296875 99.167969 124.234375 99.605469 Z M 137.046875 99.75 C 140.957031 100.746094 144.210938 102.324219 147.574219 104.800781 C 148.363281 105.378906 148.878906 105.878906 148.84375 106.023438 C 148.765625 106.472656 148.167969 106.25 146.882812 105.265625 C 143.9375 103.0625 140.203125 101.277344 136.742188 100.410156 C 134.808594 99.941406 134.726562 99.894531 134.726562 99.585938 C 134.726562 99.167969 134.855469 99.183594 137.046875 99.75 Z M 124.121094 100.617188 C 124.152344 100.664062 124.007812 102.742188 123.78125 105.234375 L 123.363281 109.789062 L 122.898438 109.980469 C 122.625 110.09375 122.316406 110.191406 122.222656 110.207031 C 122.109375 110.207031 121.578125 109.335938 121.03125 108.257812 C 120.5 107.179688 120.015625 106.34375 119.984375 106.394531 C 119.9375 106.441406 120.191406 107.390625 120.5625 108.515625 C 120.917969 109.644531 121.207031 110.574219 121.175781 110.59375 C 120.660156 110.945312 117.90625 112.457031 117.792969 112.457031 C 117.601562 112.457031 111.066406 106.972656 111.066406 106.8125 C 111.066406 106.359375 114.527344 104.078125 117.101562 102.820312 C 119.839844 101.484375 123.75 100.261719 124.121094 100.617188 Z M 138.109375 101.292969 C 140.585938 102.066406 143.277344 103.367188 145.433594 104.816406 C 147.414062 106.167969 147.925781 106.570312 147.925781 106.796875 C 147.925781 107.003906 141.472656 112.457031 141.214844 112.457031 C 141.101562 112.457031 140.605469 112.183594 140.089844 111.847656 C 139.574219 111.523438 138.847656 111.105469 138.460938 110.945312 C 138.09375 110.785156 137.785156 110.59375 137.785156 110.527344 C 137.785156 110.449219 138.078125 109.464844 138.429688 108.339844 C 138.769531 107.199219 139.027344 106.25 138.992188 106.214844 C 138.960938 106.183594 138.496094 107.019531 137.964844 108.082031 C 137.433594 109.144531 136.933594 110.0625 136.835938 110.109375 C 136.757812 110.15625 136.484375 110.125 136.210938 110.027344 C 135.757812 109.882812 135.710938 109.773438 135.628906 109.03125 C 135.5 107.90625 135.082031 103.351562 134.953125 101.777344 L 134.839844 100.503906 L 135.550781 100.601562 C 135.9375 100.648438 137.09375 100.972656 138.109375 101.292969 Z M 85.8125 105.492188 C 84.054688 108.726562 82.671875 112.199219 81.59375 115.996094 C 81.144531 117.589844 81.0625 117.734375 80.242188 118.570312 C 79.148438 119.648438 79.148438 119.585938 79.902344 116.609375 C 81.191406 111.636719 83.121094 107.003906 85.761719 102.597656 L 86.839844 100.792969 L 86.890625 102.113281 L 86.9375 103.433594 Z M 173.441406 102.804688 C 174.453125 104.511719 176.304688 108.242188 176.980469 109.964844 C 178.300781 113.296875 179.945312 119.070312 179.605469 119.199219 C 179.285156 119.3125 177.882812 117.621094 177.707031 116.914062 C 176.804688 113.40625 175.46875 109.917969 173.570312 106.199219 C 172.074219 103.238281 172.074219 103.238281 172.074219 102.015625 C 172.074219 100.570312 172.105469 100.585938 173.441406 102.804688 Z M 115.542969 111.269531 C 118.96875 114.164062 121.980469 116.671875 122.222656 116.867188 L 122.671875 117.222656 L 122.480469 119.34375 C 122.351562 120.824219 122.222656 121.53125 122.042969 121.660156 C 121.851562 121.820312 120.644531 120.664062 114.753906 114.710938 C 110.875 110.769531 107.703125 107.472656 107.6875 107.375 C 107.6875 107.148438 108.894531 106.023438 109.136719 106.023438 C 109.230469 106.023438 112.113281 108.386719 115.542969 111.269531 Z M 152.144531 108.066406 C 152.484375 108.386719 152.757812 108.757812 152.757812 108.886719 C 152.757812 109.0625 148.894531 113.921875 146.914062 116.238281 C 146.6875 116.496094 145.433594 118.042969 144.113281 119.667969 L 141.730469 122.609375 L 140.28125 122.496094 C 137.882812 122.320312 137.382812 122.222656 137.382812 121.917969 C 137.382812 121.773438 137.882812 121.113281 138.496094 120.46875 C 140.136719 118.734375 151.355469 107.472656 151.453125 107.472656 C 151.5 107.472656 151.808594 107.746094 152.144531 108.066406 Z M 106.558594 110.125 C 106.71875 110.320312 106.671875 110.480469 106.300781 110.960938 C 103.742188 114.324219 101.441406 119.3125 100.765625 122.964844 C 100.605469 123.832031 100.492188 124.089844 100.21875 124.203125 C 99.605469 124.429688 99.558594 124.121094 99.945312 122.480469 C 100.714844 119.246094 102.277344 115.5 103.824219 113.101562 C 104.789062 111.621094 106.078125 109.882812 106.238281 109.882812 C 106.300781 109.882812 106.445312 109.996094 106.558594 110.125 Z M 153.449219 110.574219 C 154.335938 111.652344 155.976562 114.261719 155.976562 114.582031 C 155.976562 114.742188 156.039062 114.871094 156.105469 114.871094 C 156.328125 114.871094 157.519531 117.429688 158.148438 119.230469 C 158.777344 121.019531 159.355469 123.316406 159.355469 123.976562 C 159.355469 124.332031 159.308594 124.363281 159.003906 124.265625 C 158.503906 124.121094 158.566406 124.234375 158.214844 122.675781 C 157.859375 120.984375 156.894531 118.121094 156.363281 117.125 C 156.152344 116.722656 155.910156 116.191406 155.816406 115.933594 C 155.574219 115.257812 154.140625 112.894531 153.207031 111.636719 C 152.46875 110.609375 152.304688 110.222656 152.546875 109.996094 C 152.742188 109.789062 152.871094 109.882812 153.449219 110.574219 Z M 109.792969 114.082031 C 111.242188 115.871094 112.5 117.429688 112.5625 117.558594 C 112.644531 117.6875 112.5 118.105469 112.144531 118.699219 C 111.824219 119.199219 111.421875 119.957031 111.210938 120.375 C 111.003906 120.808594 110.746094 121.144531 110.617188 121.144531 C 110.488281 121.144531 109.570312 120.890625 108.554688 120.566406 C 107.523438 120.246094 106.671875 120.019531 106.640625 120.050781 C 106.589844 120.085938 107.429688 120.566406 108.492188 121.128906 C 109.554688 121.675781 110.421875 122.175781 110.421875 122.207031 C 110.421875 122.257812 110.324219 122.515625 110.195312 122.804688 L 109.988281 123.335938 L 106.140625 123.6875 C 104.015625 123.898438 102.003906 124.089844 101.664062 124.140625 L 101.039062 124.234375 L 101.152344 123.414062 C 101.441406 121.257812 102.90625 117.285156 104.371094 114.726562 C 105.304688 113.117188 106.847656 110.867188 107.058594 110.851562 C 107.105469 110.851562 108.328125 112.3125 109.792969 114.082031 Z M 153.625 113.023438 C 154.65625 114.550781 155.976562 117.140625 155.976562 117.605469 C 155.976562 117.800781 156.039062 117.914062 156.105469 117.863281 C 156.410156 117.6875 158.214844 123.800781 157.941406 124.058594 C 157.875 124.121094 156.8125 124.074219 155.574219 123.960938 C 154.335938 123.832031 152.355469 123.640625 151.179688 123.542969 C 149.101562 123.351562 149.023438 123.316406 148.878906 122.933594 C 148.570312 122.144531 148.730469 121.949219 150.632812 120.9375 C 151.628906 120.421875 152.417969 119.957031 152.386719 119.90625 C 152.320312 119.859375 149.488281 120.710938 148.476562 121.097656 C 148.363281 121.128906 147.976562 120.597656 147.605469 119.90625 C 147.234375 119.214844 146.882812 118.621094 146.832031 118.570312 C 146.480469 118.296875 146.335938 117.785156 146.527344 117.382812 C 146.640625 117.15625 146.769531 116.964844 146.816406 116.964844 C 146.882812 116.964844 147.671875 116.046875 148.585938 114.902344 C 149.488281 113.777344 150.648438 112.394531 151.128906 111.832031 L 152.015625 110.816406 L 152.386719 111.269531 C 152.59375 111.523438 153.144531 112.3125 153.625 113.023438 Z M 123.140625 112.457031 C 123.140625 112.636719 123.074219 112.78125 122.976562 112.78125 C 122.898438 112.78125 122.816406 112.636719 122.816406 112.457031 C 122.816406 112.28125 122.898438 112.136719 122.976562 112.136719 C 123.074219 112.136719 123.140625 112.28125 123.140625 112.457031 Z M 136.242188 112.699219 C 136.128906 112.988281 136.113281 112.988281 136.015625 112.683594 C 135.871094 112.3125 136 112.054688 136.191406 112.25 C 136.289062 112.347656 136.289062 112.539062 136.242188 112.699219 Z M 122.882812 115.195312 C 122.816406 115.851562 122.738281 116.449219 122.671875 116.511719 C 122.625 116.5625 121.898438 116.03125 121.078125 115.324219 C 119.355469 113.84375 119.355469 113.890625 121.109375 113.023438 L 122.253906 112.441406 L 122.609375 113.214844 C 122.929688 113.890625 122.960938 114.148438 122.882812 115.195312 Z M 139.363281 114.003906 C 139.332031 114.117188 138.671875 114.757812 137.867188 115.433594 C 136.210938 116.820312 136.210938 116.820312 136.191406 114.9375 C 136.175781 113.90625 136.417969 112.910156 136.757812 112.585938 C 136.933594 112.410156 139.414062 113.761719 139.363281 114.003906 Z M 115.476562 121.050781 C 116.152344 121.871094 116.699219 122.59375 116.699219 122.640625 C 116.699219 122.691406 116.121094 122.769531 115.429688 122.835938 C 114.335938 122.933594 114.058594 122.898438 113.402344 122.609375 C 112.742188 122.320312 112.660156 122.242188 112.757812 121.917969 C 112.933594 121.355469 113.980469 119.539062 114.125 119.539062 C 114.1875 119.539062 114.800781 120.214844 115.476562 121.050781 Z M 131.910156 119.777344 C 134.246094 120.390625 136.691406 122.222656 137.882812 124.25 C 138.882812 125.957031 139.285156 127.421875 139.285156 129.351562 C 139.285156 132.246094 138.414062 134.371094 136.339844 136.445312 C 134.4375 138.359375 132.136719 139.328125 129.496094 139.328125 C 125.34375 139.328125 121.640625 136.625 120.210938 132.519531 C 119.742188 131.152344 119.628906 128.515625 119.984375 127.082031 C 120.835938 123.65625 123.71875 120.679688 127.019531 119.792969 C 128.191406 119.472656 130.71875 119.472656 131.910156 119.777344 Z M 145.707031 120.761719 C 146.042969 121.371094 146.316406 121.96875 146.316406 122.078125 C 146.316406 122.191406 145.996094 122.433594 145.609375 122.609375 C 144.996094 122.917969 144.757812 122.949219 143.679688 122.835938 C 143.003906 122.789062 142.453125 122.660156 142.453125 122.578125 C 142.453125 122.304688 144.773438 119.539062 144.949219 119.585938 C 145.046875 119.617188 145.382812 120.132812 145.707031 120.761719 Z M 112.917969 122.917969 C 112.964844 122.996094 112.871094 123.078125 112.691406 123.078125 C 112.5 123.078125 112.355469 122.996094 112.355469 122.917969 C 112.355469 122.820312 112.449219 122.753906 112.578125 122.753906 C 112.707031 122.753906 112.871094 122.820312 112.917969 122.917969 Z M 146.640625 122.917969 C 146.640625 122.996094 146.527344 123.078125 146.398438 123.078125 C 146.269531 123.078125 146.15625 122.996094 146.15625 122.917969 C 146.15625 122.820312 146.269531 122.753906 146.398438 122.753906 C 146.527344 122.753906 146.640625 122.820312 146.640625 122.917969 Z M 120.097656 124.394531 C 119.339844 125.925781 118.953125 127.292969 118.953125 128.464844 C 118.953125 128.902344 118.890625 129.367188 118.824219 129.480469 C 118.710938 129.640625 116.570312 129.671875 108.636719 129.640625 L 98.589844 129.59375 L 98.542969 128.644531 C 98.496094 127.773438 98.71875 125.214844 98.863281 125.089844 C 98.882812 125.070312 100.941406 124.863281 103.421875 124.621094 C 105.898438 124.394531 109.8125 124.011719 112.113281 123.800781 C 119.902344 123.042969 120.644531 122.980469 120.707031 123.027344 C 120.742188 123.042969 120.46875 123.671875 120.097656 124.394531 Z M 98.335938 125.441406 C 98.316406 125.601562 98.269531 125.910156 98.207031 126.132812 C 98.109375 126.503906 98.011719 126.535156 97.222656 126.535156 C 96.113281 126.535156 95.96875 126.839844 97.046875 126.90625 C 97.480469 126.9375 97.914062 127.035156 97.996094 127.148438 C 98.078125 127.261719 98.109375 127.789062 98.058594 128.335938 L 97.996094 129.351562 L 95.917969 129.351562 C 94.726562 129.351562 93.828125 129.414062 93.761719 129.511719 C 93.699219 129.625 86.726562 129.671875 73.402344 129.671875 C 60.074219 129.671875 53.101562 129.625 53.039062 129.511719 C 52.988281 129.414062 53.070312 129.351562 53.214844 129.351562 C 53.472656 129.351562 71.484375 127.664062 78.070312 127.019531 C 80.902344 126.746094 85.390625 126.328125 91.589844 125.730469 C 93.941406 125.523438 96.113281 125.3125 96.417969 125.28125 C 97.929688 125.121094 98.351562 125.152344 98.335938 125.441406 Z M 205.714844 128.289062 C 205.714844 128.417969 205.648438 128.5625 205.585938 128.613281 C 205.441406 128.691406 200.851562 128.257812 200.742188 128.128906 C 200.707031 128.097656 201.804688 128.0625 203.1875 128.0625 C 205.28125 128.0625 205.714844 128.097656 205.714844 128.289062 Z M 160.546875 129.65625 C 160.675781 129.851562 160.339844 133.90625 160.191406 134.03125 C 160.128906 134.097656 158.777344 134.257812 157.183594 134.402344 C 153.222656 134.773438 146.542969 135.402344 141.921875 135.835938 C 139.816406 136.042969 138.078125 136.171875 138.042969 136.140625 C 138.011719 136.109375 138.253906 135.640625 138.574219 135.09375 C 139.394531 133.742188 139.832031 132.535156 140.074219 130.894531 L 140.265625 129.511719 L 150.359375 129.511719 C 156.25 129.511719 160.5 129.578125 160.546875 129.65625 Z M 206.292969 129.65625 C 206.246094 129.722656 205.648438 129.835938 204.957031 129.898438 C 204.265625 129.960938 200.257812 130.332031 196.054688 130.734375 C 191.855469 131.136719 186.496094 131.636719 184.144531 131.859375 C 176.804688 132.535156 174.984375 132.714844 171.429688 133.050781 C 163.910156 133.777344 161.351562 134.015625 161.078125 134.015625 C 160.835938 134.015625 160.789062 133.90625 160.835938 133.324219 L 160.886719 132.648438 L 161.914062 132.714844 C 162.71875 132.746094 162.914062 132.714844 162.863281 132.554688 C 162.816406 132.410156 162.445312 132.296875 161.914062 132.246094 L 161.046875 132.167969 L 161.046875 129.914062 L 163.171875 129.835938 C 164.328125 129.785156 165.34375 129.707031 165.410156 129.625 C 165.570312 129.464844 206.390625 129.480469 206.292969 129.65625 Z M 205.503906 132.441406 C 204.988281 142.609375 201.675781 154.242188 196.621094 163.621094 C 192.757812 170.796875 187.589844 177.632812 182.085938 182.84375 C 181.519531 183.375 180.621094 184.230469 180.074219 184.742188 C 177.320312 187.351562 172.023438 191.261719 167.808594 193.785156 C 163.574219 196.328125 157.070312 199.238281 152.355469 200.703125 C 146.058594 202.667969 138.078125 204.003906 132.699219 204.003906 L 130.671875 204.003906 L 130.785156 202.667969 C 130.847656 201.941406 130.914062 201.332031 130.945312 201.300781 C 130.960938 201.265625 132.136719 201.1875 133.539062 201.089844 C 143.695312 200.480469 152.851562 198.015625 161.867188 193.496094 C 165.230469 191.808594 170.589844 188.574219 171.460938 187.703125 C 171.605469 187.558594 171.765625 187.429688 171.832031 187.429688 C 171.976562 187.429688 174.34375 185.613281 176.175781 184.085938 C 182.761719 178.597656 188.621094 171.582031 193.015625 163.910156 C 198.453125 154.433594 201.753906 143.605469 202.480469 132.859375 C 202.542969 131.8125 202.65625 130.910156 202.703125 130.847656 C 202.800781 130.765625 204.023438 130.589844 205.296875 130.492188 C 205.585938 130.476562 205.601562 130.574219 205.503906 132.441406 Z M 57.402344 130.894531 C 57.722656 130.945312 57.753906 131.089844 57.867188 132.441406 C 58.640625 143.140625 61.214844 152.453125 65.898438 161.609375 C 70.761719 171.101562 77.007812 178.742188 85.488281 185.597656 C 87.050781 186.867188 87.113281 186.917969 89.175781 188.347656 C 99.847656 195.796875 113.351562 200.496094 125.761719 201.058594 C 126.984375 201.105469 128.015625 201.21875 128.0625 201.28125 C 128.097656 201.347656 128.175781 201.992188 128.242188 202.699219 L 128.339844 204.003906 L 127.308594 204.003906 C 126.746094 204.003906 125.117188 203.890625 123.703125 203.761719 C 111.097656 202.632812 99.414062 198.5625 88.917969 191.664062 C 88.128906 191.148438 87.453125 190.695312 87.40625 190.648438 C 87.355469 190.601562 86.535156 189.988281 85.570312 189.296875 C 83.542969 187.816406 81.980469 186.53125 79.855469 184.566406 C 79.019531 183.792969 78.308594 183.199219 78.261719 183.214844 C 78.214844 183.246094 78.132812 183.183594 78.070312 183.085938 C 78.003906 182.972656 77.136719 182.042969 76.152344 180.996094 C 66.898438 171.199219 60.523438 159.664062 57.304688 146.886719 C 56.144531 142.300781 55.292969 136.878906 55.097656 132.777344 L 55.003906 130.621094 L 56.03125 130.71875 C 56.59375 130.765625 57.222656 130.847656 57.402344 130.894531 Z M 82.445312 133.4375 C 82.511719 133.535156 82.574219 133.886719 82.574219 134.210938 C 82.574219 135.207031 83.347656 139.453125 83.945312 141.691406 C 85.792969 148.707031 89.496094 155.625 94.277344 160.996094 C 95.421875 162.269531 95.484375 162.382812 95.292969 162.75 C 95.179688 162.960938 94.921875 163.28125 94.710938 163.476562 L 94.34375 163.828125 L 93.488281 162.894531 C 88.386719 157.328125 84.25 149.605469 82.335938 142.0625 C 81.59375 139.117188 80.964844 135.335938 80.964844 133.742188 L 80.964844 133.050781 L 81.65625 133.148438 C 82.027344 133.210938 82.382812 133.339844 82.445312 133.4375 Z M 178.09375 133.195312 C 178.222656 133.40625 177.753906 137.1875 177.367188 139.164062 C 176.773438 142.125 175.902344 145.085938 174.664062 148.335938 C 174.101562 149.816406 171.945312 154.128906 171.75 154.128906 C 171.671875 154.128906 171.589844 154.257812 171.589844 154.402344 C 171.589844 154.738281 169.867188 157.425781 168.433594 159.355469 C 167.179688 161.046875 164.859375 163.78125 164.683594 163.78125 C 164.621094 163.78125 164.328125 163.492188 164.039062 163.121094 L 163.507812 162.476562 L 164.089844 161.800781 C 165.859375 159.742188 167.324219 157.875 168.402344 156.300781 C 169.804688 154.273438 171.589844 151.136719 171.589844 150.71875 C 171.589844 150.554688 171.652344 150.425781 171.734375 150.425781 C 172.007812 150.425781 173.828125 146.050781 174.535156 143.671875 C 175.453125 140.628906 176.191406 137.074219 176.5 134.226562 C 176.613281 133.261719 176.628906 133.230469 177.109375 133.164062 C 177.402344 133.132812 177.707031 133.082031 177.820312 133.082031 C 177.914062 133.066406 178.042969 133.117188 178.09375 133.195312 Z M 90.140625 133.9375 C 92.394531 134.160156 95.128906 134.417969 96.226562 134.515625 C 97.304688 134.613281 98.1875 134.757812 98.1875 134.804688 C 98.1875 134.871094 97.320312 135.078125 96.257812 135.289062 C 94.824219 135.5625 94.324219 135.722656 94.324219 135.898438 C 94.324219 136.078125 94.4375 136.125 94.695312 136.058594 C 95.679688 135.820312 98.238281 135.449219 98.414062 135.511719 C 98.625 135.59375 99.058594 137.332031 98.914062 137.554688 C 98.882812 137.621094 98.496094 137.765625 98.078125 137.878906 C 97.09375 138.152344 96.996094 138.199219 97.191406 138.394531 C 97.289062 138.488281 97.675781 138.457031 98.253906 138.3125 L 99.15625 138.070312 L 99.414062 138.972656 C 99.558594 139.488281 99.71875 139.96875 99.75 140.066406 C 99.796875 140.210938 98.078125 140.984375 96.226562 141.625 C 95.886719 141.738281 95.839844 142.0625 96.160156 142.0625 C 96.273438 142.0625 97.160156 141.773438 98.109375 141.417969 C 99.058594 141.0625 99.894531 140.773438 99.945312 140.773438 C 100.054688 140.773438 100.765625 142.542969 100.765625 142.816406 C 100.765625 142.898438 100.410156 143.140625 99.960938 143.316406 C 99.523438 143.507812 99.15625 143.734375 99.15625 143.816406 C 99.15625 144.089844 99.589844 144.023438 100.28125 143.671875 C 100.636719 143.492188 100.941406 143.347656 100.988281 143.347656 C 101.070312 143.347656 102.050781 145.117188 102.050781 145.277344 C 102.050781 145.328125 101.261719 145.84375 100.28125 146.40625 C 99.316406 146.984375 98.511719 147.546875 98.511719 147.644531 C 98.511719 147.757812 98.558594 147.851562 98.625 147.851562 C 98.71875 147.851562 100.636719 146.773438 101.84375 146.050781 L 102.359375 145.746094 L 102.921875 146.648438 C 103.242188 147.128906 103.5 147.597656 103.5 147.660156 C 103.5 147.742188 103.179688 148.015625 102.777344 148.304688 C 102.085938 148.785156 101.859375 149.140625 102.214844 149.140625 C 102.308594 149.140625 102.679688 148.914062 103.050781 148.65625 C 103.40625 148.382812 103.757812 148.175781 103.839844 148.175781 C 103.96875 148.175781 105.109375 149.71875 105.109375 149.914062 C 105.109375 150.007812 103.082031 151.84375 102.246094 152.488281 C 102.070312 152.617188 102.035156 152.726562 102.148438 152.839844 C 102.261719 152.953125 102.679688 152.710938 103.484375 152.035156 C 104.113281 151.503906 104.675781 151.070312 104.722656 151.070312 C 104.886719 151.070312 104.46875 151.667969 103.757812 152.421875 C 103.355469 152.855469 103.019531 153.257812 103.019531 153.308594 C 103.003906 153.355469 102.839844 153.597656 102.648438 153.820312 C 102.453125 154.0625 101.183594 155.609375 99.816406 157.28125 C 98.460938 158.953125 97.222656 160.433594 97.078125 160.5625 C 96.933594 160.707031 96.742188 160.949219 96.644531 161.125 C 96.242188 161.851562 95.96875 161.816406 95.210938 160.964844 C 90.011719 155.125 86.375 148.289062 84.507812 140.824219 C 83.976562 138.761719 83.21875 134.453125 83.21875 133.582031 C 83.21875 133.292969 83.347656 133.292969 90.140625 133.9375 Z M 175.773438 133.855469 C 175.773438 134.5625 175.179688 138.183594 174.726562 140.128906 C 174.085938 143.027344 172.105469 148.65625 171.734375 148.65625 C 171.652344 148.65625 171.589844 148.800781 171.589844 148.980469 C 171.589844 149.914062 168.257812 155.511719 166.050781 158.3125 C 164.714844 160 163.203125 161.6875 163.027344 161.6875 C 162.863281 161.6875 162.558594 161.335938 161.207031 159.679688 C 157.761719 155.445312 156.25 153.644531 156.121094 153.644531 C 156.039062 153.644531 155.976562 153.546875 155.976562 153.4375 C 155.976562 153.339844 155.605469 152.808594 155.171875 152.277344 C 154.71875 151.746094 154.367188 151.265625 154.367188 151.183594 C 154.367188 151.101562 154.898438 151.488281 155.542969 152.019531 C 156.203125 152.566406 156.78125 153 156.828125 153 C 157.101562 153 156.894531 152.503906 156.539062 152.261719 C 156.3125 152.117188 155.894531 151.761719 155.605469 151.488281 C 155.316406 151.214844 154.800781 150.75 154.460938 150.476562 L 153.835938 149.960938 L 154.269531 149.347656 C 155.21875 147.996094 155.234375 147.980469 155.75 148.480469 C 156.074219 148.769531 156.683594 149.140625 156.84375 149.140625 C 157.152344 149.140625 156.828125 148.65625 156.203125 148.207031 L 155.476562 147.675781 L 155.765625 147.160156 C 155.925781 146.886719 156.121094 146.582031 156.183594 146.484375 C 156.25 146.40625 156.394531 146.195312 156.507812 146.050781 C 156.683594 145.792969 156.84375 145.859375 158.390625 146.742188 C 160.417969 147.917969 160.484375 147.949219 160.484375 147.660156 C 160.484375 147.53125 159.855469 147.066406 159.097656 146.628906 C 158.34375 146.195312 157.554688 145.714844 157.328125 145.550781 L 156.941406 145.261719 L 157.425781 144.296875 C 157.699219 143.78125 157.941406 143.347656 157.972656 143.347656 C 158.003906 143.347656 158.4375 143.523438 158.921875 143.75 C 159.5 144.007812 159.855469 144.089844 159.9375 143.976562 C 160.0625 143.765625 160.097656 143.800781 159.066406 143.285156 C 158.359375 142.914062 158.230469 142.800781 158.308594 142.527344 C 158.472656 142.0625 159.035156 140.773438 159.097656 140.773438 C 159.128906 140.773438 159.9375 141.0625 160.886719 141.417969 C 161.835938 141.773438 162.753906 142.0625 162.914062 142.0625 C 163.621094 142.0625 163.105469 141.738281 161.351562 141.097656 C 160.320312 140.710938 159.4375 140.292969 159.386719 140.164062 C 159.339844 140.035156 159.4375 139.535156 159.582031 139.054688 C 159.902344 138.070312 159.773438 138.105469 161.433594 138.457031 C 162.335938 138.652344 161.964844 138.167969 160.980469 137.878906 C 160.515625 137.75 160.144531 137.554688 160.144531 137.476562 C 160.144531 136.992188 160.355469 135.820312 160.484375 135.640625 C 160.578125 135.464844 160.917969 135.464844 162.429688 135.707031 C 163.429688 135.851562 164.347656 136.011719 164.457031 136.058594 C 164.570312 136.109375 164.667969 136.027344 164.667969 135.898438 C 164.667969 135.640625 164.621094 135.625 162.382812 135.207031 C 161.511719 135.046875 160.804688 134.871094 160.804688 134.789062 C 160.804688 134.726562 160.917969 134.660156 161.0625 134.660156 C 161.335938 134.660156 166.761719 134.160156 171.347656 133.710938 C 172.941406 133.550781 174.582031 133.40625 175.019531 133.390625 C 175.757812 133.375 175.773438 133.390625 175.773438 133.855469 Z M 100.554688 135.046875 C 100.570312 135.0625 100.8125 135.914062 101.070312 136.914062 C 102.003906 140.5 103.773438 144.265625 105.914062 147.128906 C 106.445312 147.835938 106.882812 148.464844 106.882812 148.511719 C 106.882812 148.578125 106.738281 148.785156 106.558594 148.996094 L 106.238281 149.382812 L 105.835938 148.898438 C 105.0625 147.980469 103.53125 145.679688 102.808594 144.3125 C 101.554688 141.964844 100.714844 139.761719 99.976562 136.800781 C 99.507812 135 99.523438 134.789062 100.089844 134.917969 C 100.328125 134.980469 100.539062 135.046875 100.554688 135.046875 Z M 159.386719 134.902344 C 159.515625 135.046875 158.9375 137.589844 158.375 139.328125 C 157.828125 141 156.328125 144.3125 156.105469 144.3125 C 156.039062 144.3125 155.976562 144.425781 155.976562 144.585938 C 155.976562 145.070312 153.109375 149.316406 152.789062 149.300781 C 152.722656 149.300781 152.546875 149.109375 152.386719 148.898438 C 152.097656 148.496094 152.097656 148.496094 152.804688 147.5625 C 154.222656 145.730469 155.976562 142.722656 155.976562 142.140625 C 155.976562 142.011719 156.039062 141.902344 156.121094 141.902344 C 156.347656 141.902344 157.519531 138.714844 158.003906 136.800781 C 158.375 135.289062 158.503906 134.980469 158.777344 134.933594 C 158.96875 134.902344 159.164062 134.855469 159.210938 134.835938 C 159.257812 134.835938 159.339844 134.855469 159.386719 134.902344 Z M 104.386719 135.289062 C 106.078125 135.464844 108.007812 135.65625 108.714844 135.722656 C 109.957031 135.820312 109.972656 135.835938 110.195312 136.367188 C 110.324219 136.65625 110.421875 136.960938 110.421875 137.042969 C 110.421875 137.105469 109.632812 137.589844 108.652344 138.105469 C 107.105469 138.90625 106.285156 139.453125 106.914062 139.261719 C 107.027344 139.214844 107.945312 138.925781 108.941406 138.601562 C 109.941406 138.265625 110.792969 138.039062 110.808594 138.054688 C 110.839844 138.085938 111.035156 138.441406 111.226562 138.84375 C 111.421875 139.246094 111.839844 139.984375 112.144531 140.5 C 112.644531 141.320312 112.675781 141.464844 112.484375 141.738281 C 111.824219 142.703125 107.414062 147.996094 107.285156 147.996094 C 106.847656 148.015625 104.613281 144.523438 103.339844 141.882812 C 102.035156 139.101562 100.796875 134.980469 101.296875 134.980469 C 101.3125 134.980469 102.710938 135.128906 104.386719 135.289062 Z M 157.828125 135.65625 C 157.601562 137.027344 156.328125 140.773438 156.105469 140.773438 C 156.039062 140.773438 155.976562 140.917969 155.976562 141.097656 C 155.976562 141.464844 155.285156 142.898438 154.398438 144.394531 C 153.625 145.714844 151.96875 148.015625 151.789062 148.015625 C 151.726562 148.015625 150.597656 146.710938 149.296875 145.117188 C 148.007812 143.523438 146.898438 142.222656 146.832031 142.222656 C 146.769531 142.222656 146.640625 142.027344 146.527344 141.804688 C 146.335938 141.386719 146.429688 141.015625 146.882812 140.515625 C 146.976562 140.421875 147.300781 139.824219 147.605469 139.199219 C 147.976562 138.441406 148.265625 138.054688 148.457031 138.054688 C 148.605469 138.039062 149.539062 138.296875 150.519531 138.617188 C 151.5 138.925781 152.339844 139.164062 152.371094 139.117188 C 152.402344 139.085938 151.628906 138.617188 150.632812 138.085938 C 148.859375 137.15625 148.8125 137.121094 148.84375 136.605469 C 148.84375 136.316406 148.925781 136.011719 149.007812 135.949219 C 149.070312 135.882812 150.839844 135.65625 152.917969 135.464844 C 154.992188 135.289062 156.78125 135.09375 156.859375 135.0625 C 156.957031 135.03125 157.230469 135 157.472656 135 C 157.921875 134.980469 157.941406 135 157.828125 135.65625 Z M 112.917969 136.269531 C 112.871094 136.351562 112.707031 136.429688 112.578125 136.429688 C 112.449219 136.429688 112.355469 136.351562 112.355469 136.269531 C 112.355469 136.171875 112.5 136.109375 112.691406 136.109375 C 112.871094 136.109375 112.964844 136.171875 112.917969 136.269531 Z M 146.640625 136.269531 C 146.640625 136.351562 146.527344 136.429688 146.398438 136.429688 C 146.269531 136.429688 146.15625 136.351562 146.15625 136.269531 C 146.15625 136.171875 146.269531 136.109375 146.398438 136.109375 C 146.527344 136.109375 146.640625 136.171875 146.640625 136.269531 Z M 116.667969 136.496094 C 116.765625 136.589844 114.285156 139.648438 114.109375 139.648438 C 113.980469 139.648438 112.675781 137.21875 112.675781 136.992188 C 112.675781 136.960938 112.949219 136.769531 113.289062 136.589844 C 113.804688 136.300781 114.078125 136.269531 115.234375 136.351562 C 115.992188 136.398438 116.636719 136.460938 116.667969 136.496094 Z M 145.625 136.542969 C 146.011719 136.703125 146.316406 136.945312 146.316406 137.074219 C 146.300781 137.460938 145.125 139.566406 144.933594 139.566406 C 144.707031 139.566406 142.453125 136.863281 142.453125 136.605469 C 142.453125 136.238281 144.757812 136.1875 145.625 136.542969 Z M 119.839844 136.753906 C 121.527344 136.945312 122.171875 137.089844 121.898438 137.1875 C 121.785156 137.234375 121.691406 137.347656 121.691406 137.445312 C 121.691406 137.554688 119.453125 139.875 116.714844 142.625 C 113.980469 145.359375 110.855469 148.527344 109.777344 149.65625 C 108.683594 150.796875 107.71875 151.714844 107.605469 151.714844 C 107.492188 151.714844 107.105469 151.375 106.753906 150.972656 C 106.207031 150.394531 106.109375 150.203125 106.269531 150.042969 C 106.382812 149.929688 108.910156 146.855469 111.871094 143.21875 C 118.003906 135.707031 117.085938 136.445312 119.839844 136.753906 Z M 141.410156 141.609375 C 143.789062 144.023438 146.992188 147.273438 148.523438 148.820312 C 150.050781 150.363281 151.308594 151.699219 151.308594 151.792969 C 151.308594 152.019531 150.148438 153.164062 149.921875 153.164062 C 149.8125 153.164062 149.117188 152.648438 148.378906 152.019531 C 147.636719 151.394531 146.71875 150.605469 146.316406 150.28125 C 145.914062 149.945312 144.613281 148.851562 143.421875 147.835938 C 142.230469 146.824219 140.136719 145.070312 138.785156 143.925781 C 136.546875 142.0625 136.320312 141.835938 136.402344 141.449219 C 136.449219 141.207031 136.53125 140.4375 136.578125 139.726562 C 136.707031 138.007812 136.820312 137.234375 136.964844 137.234375 C 137.015625 137.234375 139.027344 139.214844 141.410156 141.609375 Z M 124.183594 138.761719 C 125.410156 139.503906 126.984375 140.003906 128.371094 140.113281 L 129.496094 140.210938 L 129.546875 150.554688 C 129.578125 159.917969 129.5625 160.902344 129.320312 160.996094 C 129.0625 161.09375 125.246094 160.789062 125.117188 160.660156 C 125.070312 160.613281 124.894531 159.082031 124.730469 157.234375 C 124.554688 155.398438 124.28125 152.324219 124.105469 150.425781 C 123.925781 148.527344 123.636719 145.375 123.460938 143.429688 C 123.300781 141.480469 123.105469 139.503906 123.058594 139.035156 C 122.992188 138.554688 123.011719 138.199219 123.105469 138.199219 C 123.1875 138.199219 123.671875 138.457031 124.183594 138.761719 Z M 81.609375 143.234375 C 82.640625 146.902344 84.074219 150.425781 85.957031 153.933594 L 86.9375 155.769531 L 86.890625 157.070312 L 86.839844 158.390625 L 86.050781 157.105469 C 83.316406 152.617188 81.207031 147.660156 79.902344 142.574219 C 79.148438 139.601562 79.148438 139.535156 80.242188 140.613281 C 81.078125 141.449219 81.144531 141.59375 81.609375 143.234375 Z M 179.542969 140.96875 C 178.207031 146.808594 175.644531 153.050781 172.78125 157.425781 L 172.152344 158.390625 L 172.105469 157.089844 C 172.054688 155.832031 172.089844 155.738281 172.652344 154.753906 C 173.457031 153.402344 175.128906 149.878906 175.824219 148.09375 C 176.339844 146.742188 177.304688 143.800781 177.707031 142.300781 C 177.882812 141.625 179.203125 139.96875 179.574219 139.96875 C 179.734375 139.96875 179.71875 140.179688 179.542969 140.96875 Z M 122.863281 143.925781 C 122.960938 144.941406 122.929688 145.277344 122.671875 145.859375 C 122.480469 146.261719 122.238281 146.566406 122.09375 146.566406 C 121.769531 146.566406 120.433594 145.890625 119.917969 145.457031 L 119.515625 145.132812 L 120.0625 144.683594 C 120.371094 144.441406 121.0625 143.863281 121.59375 143.414062 C 122.140625 142.945312 122.609375 142.59375 122.671875 142.640625 C 122.71875 142.671875 122.816406 143.25 122.863281 143.925781 Z M 138.15625 143.992188 C 138.832031 144.554688 139.394531 145.117188 139.394531 145.214844 C 139.394531 145.328125 138.816406 145.699219 138.109375 146.066406 L 136.835938 146.742188 L 136.484375 146.050781 C 136.210938 145.519531 136.144531 145.117188 136.160156 144.3125 C 136.175781 143.75 136.226562 143.105469 136.273438 142.914062 C 136.386719 142.480469 136.320312 142.449219 138.15625 143.992188 Z M 136.257812 146.886719 C 136.082031 147.160156 135.886719 146.902344 135.96875 146.550781 C 136.046875 146.246094 136.082031 146.246094 136.210938 146.46875 C 136.289062 146.613281 136.304688 146.808594 136.257812 146.886719 Z M 123.140625 146.726562 C 123.140625 146.902344 123.074219 147.046875 122.976562 147.046875 C 122.898438 147.046875 122.816406 146.902344 122.816406 146.726562 C 122.816406 146.550781 122.898438 146.40625 122.976562 146.40625 C 123.074219 146.40625 123.140625 146.550781 123.140625 146.726562 Z M 143.984375 148.898438 C 145.144531 149.863281 146.253906 150.8125 146.480469 151.023438 C 146.703125 151.230469 147.089844 151.554688 147.347656 151.746094 L 147.816406 152.101562 L 147.347656 152.46875 C 147.089844 152.679688 146.800781 152.90625 146.71875 152.96875 C 146.625 153.035156 146.300781 153.273438 145.996094 153.5 C 144.320312 154.722656 141.230469 156.300781 138.992188 157.070312 C 137.175781 157.683594 135.082031 158.230469 134.953125 158.101562 C 134.90625 158.054688 135.019531 156.445312 135.195312 154.515625 C 135.742188 148.800781 135.628906 149.347656 136.257812 149.140625 C 136.5625 149.042969 136.886719 148.996094 136.980469 149.058594 C 137.078125 149.125 137.578125 150.007812 138.109375 151.039062 C 138.625 152.070312 139.058594 152.808594 139.058594 152.679688 C 139.074219 152.550781 138.816406 151.648438 138.511719 150.699219 C 138.207031 149.75 137.949219 148.867188 137.949219 148.738281 C 137.949219 148.625 138.480469 148.238281 139.121094 147.871094 C 139.75 147.515625 140.492188 147.082031 140.765625 146.902344 C 141.214844 146.582031 141.246094 146.582031 141.570312 146.871094 C 141.746094 147.03125 142.839844 147.933594 143.984375 148.898438 Z M 118.550781 147.066406 C 118.824219 147.242188 119.515625 147.644531 120.128906 147.949219 C 120.722656 148.253906 121.207031 148.59375 121.207031 148.722656 C 121.207031 148.835938 120.949219 149.769531 120.644531 150.765625 C 120.339844 151.777344 120.082031 152.664062 120.082031 152.761719 C 120.097656 152.984375 121.511719 150.425781 121.640625 149.945312 C 121.691406 149.734375 121.867188 149.429688 122.011719 149.269531 C 122.238281 149.027344 122.367188 149.011719 122.785156 149.15625 C 123.105469 149.269531 123.332031 149.460938 123.378906 149.671875 C 123.523438 150.445312 124.152344 158.003906 124.054688 158.085938 C 123.75 158.390625 118.761719 156.71875 116.425781 155.511719 C 114.285156 154.402344 111.386719 152.453125 111.386719 152.117188 C 111.386719 152.003906 112.515625 150.910156 112.628906 150.910156 C 112.757812 150.910156 115.414062 148.59375 115.414062 148.464844 C 115.414062 148.398438 115.507812 148.335938 115.621094 148.335938 C 115.71875 148.335938 116.21875 147.964844 116.699219 147.53125 C 117.183594 147.097656 117.699219 146.742188 117.828125 146.726562 C 117.957031 146.726562 118.292969 146.871094 118.550781 147.066406 Z M 106.496094 151.34375 C 106.785156 151.683594 107.042969 151.988281 107.042969 152.035156 C 107.042969 152.085938 106.753906 152.40625 106.398438 152.742188 C 106.042969 153.082031 105.753906 153.4375 105.753906 153.53125 C 105.753906 153.628906 104.46875 155.027344 102.890625 156.621094 C 94.921875 164.683594 92.539062 167.046875 92.699219 166.757812 C 92.78125 166.582031 93.699219 165.421875 94.726562 164.183594 C 95.757812 162.945312 96.644531 161.816406 96.707031 161.6875 C 96.757812 161.5625 96.964844 161.320312 97.160156 161.125 C 97.351562 160.949219 98.703125 159.355469 100.136719 157.570312 C 101.585938 155.785156 102.96875 154.09375 103.226562 153.789062 C 103.46875 153.484375 104.113281 152.679688 104.675781 152.003906 C 105.222656 151.328125 105.738281 150.765625 105.804688 150.75 C 105.882812 150.75 106.1875 151.023438 106.496094 151.34375 Z M 152.46875 153.035156 C 154.300781 154.625 166.390625 166.773438 166.261719 166.902344 C 166.195312 166.964844 156.988281 159.355469 155.894531 158.328125 C 155.71875 158.164062 154.382812 157.039062 152.949219 155.816406 L 150.308594 153.613281 L 150.921875 152.984375 C 151.257812 152.632812 151.566406 152.359375 151.613281 152.359375 C 151.644531 152.359375 152.03125 152.664062 152.46875 153.035156 Z M 111.644531 153.035156 C 112.03125 153.308594 112.355469 153.597656 112.355469 153.675781 C 112.355469 153.742188 112.417969 153.804688 112.515625 153.804688 C 112.59375 153.804688 113.175781 154.128906 113.785156 154.53125 C 116.234375 156.105469 119.242188 157.425781 122.300781 158.214844 L 124.183594 158.714844 L 124.234375 159.324219 C 124.265625 159.695312 124.21875 159.917969 124.105469 159.917969 C 123.6875 159.917969 120.613281 159.066406 119.242188 158.566406 C 117.539062 157.957031 114.898438 156.667969 113.5625 155.832031 C 113.078125 155.511719 112.59375 155.253906 112.515625 155.253906 C 112.417969 155.253906 112.355469 155.191406 112.355469 155.125 C 112.355469 155.042969 111.96875 154.722656 111.484375 154.386719 C 111.019531 154.0625 110.488281 153.644531 110.34375 153.484375 C 110.070312 153.179688 110.070312 153.144531 110.34375 152.839844 C 110.726562 152.421875 110.808594 152.421875 111.644531 153.035156 Z M 148.605469 152.792969 C 148.765625 152.9375 148.894531 153.128906 148.894531 153.226562 C 148.894531 153.660156 144.996094 156.234375 142.535156 157.425781 C 140.167969 158.566406 135.308594 160.097656 134.890625 159.839844 C 134.695312 159.726562 134.679688 159.113281 134.855469 158.839844 C 134.921875 158.746094 135.582031 158.519531 136.339844 158.34375 C 140.074219 157.441406 144.113281 155.542969 146.992188 153.324219 C 147.558594 152.890625 148.074219 152.535156 148.152344 152.535156 C 148.234375 152.519531 148.441406 152.632812 148.605469 152.792969 Z M 110.421875 154.949219 L 111.242188 155.609375 L 110.96875 156.027344 C 110.824219 156.265625 110.597656 156.605469 110.472656 156.78125 C 110.359375 156.960938 110.261719 157.183594 110.261719 157.296875 C 110.261719 157.714844 110.566406 157.488281 111.066406 156.71875 C 111.53125 155.976562 111.597656 155.929688 111.96875 156.089844 C 112.175781 156.1875 112.355469 156.332031 112.355469 156.414062 C 112.355469 156.476562 112.449219 156.539062 112.5625 156.539062 C 112.660156 156.539062 112.933594 156.6875 113.144531 156.847656 L 113.527344 157.136719 L 113.078125 157.972656 C 112.820312 158.421875 112.5625 158.792969 112.484375 158.792969 C 112.417969 158.792969 112.355469 158.90625 112.355469 159.035156 C 112.355469 159.164062 112.160156 159.628906 111.917969 160.0625 C 111.660156 160.5 111.53125 160.917969 111.597656 160.996094 C 111.757812 161.160156 112.339844 160.417969 112.355469 160.03125 C 112.355469 159.886719 112.417969 159.757812 112.484375 159.757812 C 112.5625 159.757812 112.902344 159.261719 113.253906 158.632812 C 113.625 157.972656 113.996094 157.507812 114.140625 157.507812 C 114.285156 157.507812 114.671875 157.683594 114.992188 157.910156 C 115.316406 158.132812 115.652344 158.3125 115.734375 158.3125 C 115.976562 158.3125 115.925781 158.746094 115.6875 158.988281 C 115.558594 159.097656 115.414062 159.46875 115.347656 159.808594 C 115.1875 160.675781 115.605469 160.433594 116.039062 159.421875 C 116.234375 158.988281 116.410156 158.632812 116.441406 158.632812 C 116.523438 158.632812 118.375 159.453125 118.453125 159.515625 C 118.488281 159.550781 118.214844 160.402344 117.84375 161.414062 C 117.136719 163.378906 117.070312 163.683594 117.375 163.585938 C 117.488281 163.539062 117.859375 162.703125 118.230469 161.722656 C 118.597656 160.738281 118.9375 159.886719 118.984375 159.824219 C 119.164062 159.644531 121.046875 160.273438 121.046875 160.515625 C 121.046875 160.644531 120.964844 161.0625 120.871094 161.464844 C 120.742188 161.980469 120.722656 162.234375 120.851562 162.363281 C 120.964844 162.476562 121.09375 162.234375 121.289062 161.542969 C 121.449219 160.980469 121.65625 160.5625 121.785156 160.5625 C 122.1875 160.5625 123.621094 160.917969 123.6875 161.03125 C 123.734375 161.09375 123.621094 162.011719 123.460938 163.074219 C 123.089844 165.375 123.089844 165.230469 123.347656 165.230469 C 123.492188 165.230469 123.636719 164.792969 123.765625 163.972656 C 124.074219 162.109375 124.28125 161.175781 124.378906 161.269531 C 124.425781 161.320312 124.765625 164.648438 125.136719 168.6875 L 125.792969 176.007812 L 125.070312 176.007812 C 122.300781 176.007812 115.074219 174.207031 111.628906 172.675781 C 110.40625 172.128906 106.1875 170.007812 106.078125 169.894531 C 105.898438 169.703125 103.324219 168.125 103.179688 168.125 C 103.082031 168.125 103.019531 168.058594 103.019531 167.996094 C 103.019531 167.914062 102.535156 167.511719 101.941406 167.0625 C 100.347656 165.90625 97.867188 163.75 97.867188 163.539062 C 97.867188 163.441406 98.976562 162.429688 100.328125 161.285156 C 101.664062 160.144531 102.921875 159.082031 103.097656 158.9375 C 103.277344 158.777344 103.96875 158.199219 104.628906 157.636719 C 105.304688 157.070312 105.949219 156.523438 106.078125 156.429688 C 106.207031 156.316406 106.753906 155.867188 107.269531 155.414062 C 107.796875 154.980469 108.25 154.640625 108.296875 154.675781 C 108.328125 154.722656 107.925781 155.300781 107.378906 155.960938 C 106.832031 156.621094 106.398438 157.199219 106.398438 157.25 C 106.398438 157.296875 106.496094 157.34375 106.625 157.34375 C 106.753906 157.34375 107.414062 156.652344 108.105469 155.816406 C 108.796875 154.980469 109.425781 154.289062 109.472656 154.289062 C 109.539062 154.289062 109.957031 154.578125 110.421875 154.949219 Z M 150.921875 155.816406 C 152.046875 157.152344 152.59375 157.617188 152.59375 157.214844 C 152.59375 157.152344 152.304688 156.734375 151.9375 156.300781 C 150.953125 155.109375 150.566406 154.53125 150.855469 154.707031 C 151.179688 154.898438 161.09375 163.265625 161.207031 163.460938 C 161.304688 163.621094 159.355469 165.359375 157.503906 166.789062 C 153.707031 169.667969 148.941406 172.242188 144.628906 173.722656 C 141.390625 174.832031 137.160156 175.78125 134.617188 175.960938 C 133.28125 176.054688 133.28125 176.054688 133.28125 175.671875 C 133.28125 175.460938 133.425781 173.753906 133.601562 171.90625 C 133.957031 168.238281 134.566406 161.527344 134.566406 161.320312 C 134.566406 161.238281 134.632812 161.222656 134.695312 161.269531 C 134.777344 161.320312 134.96875 162.15625 135.128906 163.136719 C 135.308594 164.101562 135.484375 164.988281 135.550781 165.101562 C 135.855469 165.582031 135.871094 164.957031 135.628906 163.265625 C 135.46875 162.269531 135.339844 161.335938 135.324219 161.207031 C 135.308594 161.046875 135.550781 160.917969 136.097656 160.789062 C 137.417969 160.464844 137.433594 160.484375 137.691406 161.367188 C 137.980469 162.332031 138.09375 162.527344 138.269531 162.414062 C 138.335938 162.363281 138.300781 161.929688 138.171875 161.449219 C 138.042969 160.949219 137.980469 160.484375 138.027344 160.402344 C 138.140625 160.226562 139.847656 159.726562 140.023438 159.824219 C 140.089844 159.871094 140.457031 160.738281 140.828125 161.769531 C 141.472656 163.476562 141.8125 164.039062 141.8125 163.332031 C 141.8125 163.183594 141.519531 162.300781 141.183594 161.367188 C 140.84375 160.433594 140.585938 159.628906 140.636719 159.566406 C 140.730469 159.386719 142.472656 158.632812 142.597656 158.695312 C 142.664062 158.746094 142.890625 159.132812 143.097656 159.582031 C 143.46875 160.386719 143.742188 160.628906 143.742188 160.160156 C 143.742188 160.03125 143.582031 159.597656 143.386719 159.195312 C 143.195312 158.808594 143.066406 158.457031 143.113281 158.421875 C 143.148438 158.390625 143.597656 158.132812 144.097656 157.859375 L 145.03125 157.34375 L 145.238281 157.714844 C 146.109375 159.097656 146.640625 160.0625 146.640625 160.226562 C 146.640625 160.449219 147.285156 161.09375 147.394531 160.980469 C 147.542969 160.835938 147.300781 160.160156 146.960938 159.808594 C 146.785156 159.613281 146.640625 159.371094 146.640625 159.292969 C 146.640625 159.195312 146.429688 158.761719 146.171875 158.328125 C 145.898438 157.875 145.675781 157.410156 145.640625 157.28125 C 145.609375 157.136719 145.949219 156.816406 146.480469 156.460938 L 147.363281 155.882812 L 147.6875 156.316406 C 148.363281 157.234375 148.683594 157.554688 148.78125 157.394531 C 148.828125 157.3125 148.667969 156.925781 148.394531 156.523438 C 148.136719 156.140625 147.925781 155.738281 147.925781 155.65625 C 147.925781 155.496094 149.359375 154.304688 149.554688 154.289062 C 149.617188 154.289062 150.230469 154.980469 150.921875 155.816406 Z M 126.164062 161.320312 C 126.519531 161.398438 126.535156 161.480469 126.488281 162.347656 C 126.421875 163.605469 126.726562 163.585938 126.890625 162.332031 C 127.050781 161.253906 127.035156 161.269531 128.515625 161.464844 L 129.253906 161.578125 L 129.253906 163.636719 C 129.253906 164.828125 129.320312 165.726562 129.417969 165.792969 C 129.527344 165.855469 129.578125 173.015625 129.5625 186.753906 C 129.5625 198.515625 129.496094 207.476562 129.417969 207.300781 C 129.335938 207.125 129.046875 204.4375 128.773438 201.347656 C 128.320312 196.296875 126.890625 180.65625 126.019531 171.261719 C 125.84375 169.316406 125.570312 166.308594 125.410156 164.585938 C 125.246094 162.863281 125.152344 161.398438 125.183594 161.320312 C 125.261719 161.175781 125.664062 161.175781 126.164062 161.320312 Z M 98.316406 165.082031 C 99.75 166.386719 102.710938 168.625 104.691406 169.878906 C 106.078125 170.746094 110.855469 173.273438 111.128906 173.273438 C 111.195312 173.273438 111.53125 173.417969 111.917969 173.578125 C 114.640625 174.832031 120.191406 176.265625 123.78125 176.652344 C 124.796875 176.765625 125.699219 176.910156 125.761719 176.972656 C 125.988281 177.167969 126.101562 178.902344 125.90625 178.902344 C 125.8125 178.902344 124.621094 178.757812 123.269531 178.582031 C 119.210938 178.050781 114.414062 176.78125 110.984375 175.316406 C 109.570312 174.703125 106.316406 173.113281 105.433594 172.582031 C 102.597656 170.90625 98.898438 168.15625 96.578125 166.050781 L 95.695312 165.230469 L 96.257812 164.683594 C 96.5625 164.375 96.917969 164.132812 97.03125 164.117188 C 97.160156 164.101562 97.738281 164.535156 98.316406 165.082031 Z M 162.738281 164.664062 C 163.378906 165.324219 163.445312 165.230469 161.207031 167.144531 C 154.671875 172.757812 147.171875 176.425781 138.832031 178.097656 C 136.644531 178.535156 133.246094 178.9375 133.085938 178.773438 C 133.007812 178.695312 133.007812 178.246094 133.070312 177.777344 L 133.199219 176.910156 L 135.371094 176.636719 C 142.214844 175.765625 148.585938 173.480469 154.367188 169.863281 C 155.203125 169.332031 155.925781 168.832031 155.945312 168.753906 C 155.976562 168.671875 156.074219 168.605469 156.167969 168.605469 C 156.378906 168.605469 159.148438 166.484375 160.644531 165.164062 C 161.304688 164.585938 161.914062 164.101562 162.011719 164.101562 C 162.109375 164.101562 162.429688 164.359375 162.738281 164.664062 Z M 104.722656 173.320312 C 107.75 175.15625 112.851562 177.296875 116.539062 178.277344 C 117.554688 178.550781 117.875 178.726562 118.519531 179.355469 C 119.292969 180.109375 119.5 180.609375 119.003906 180.449219 C 118.839844 180.398438 117.957031 180.175781 117.039062 179.949219 C 113.625 179.097656 109.90625 177.699219 106.625 176.023438 C 104.578125 174.996094 103.148438 174.207031 103.019531 174.078125 C 102.96875 174.027344 102.550781 173.738281 102.101562 173.449219 C 101.632812 173.160156 101.296875 172.839844 101.34375 172.757812 C 101.410156 172.660156 101.941406 172.628906 102.597656 172.660156 C 103.582031 172.710938 103.886719 172.804688 104.722656 173.320312 Z M 157.632812 172.871094 C 157.601562 173.0625 154.960938 174.703125 153.03125 175.734375 C 151.195312 176.714844 148.636719 177.824219 146.398438 178.613281 C 144.5 179.304688 139.863281 180.546875 139.734375 180.417969 C 139.6875 180.382812 140.054688 179.949219 140.539062 179.449219 C 141.136719 178.855469 141.617188 178.519531 142.050781 178.40625 C 145.578125 177.488281 150.070312 175.703125 153.160156 173.964844 C 154.042969 173.464844 154.945312 172.96875 155.171875 172.839844 C 155.636719 172.597656 157.683594 172.613281 157.632812 172.871094 Z M 157.632812 172.871094 "/>
<path style=" stroke:none;fill-rule:nonzero;fill:rgb(0%,0%,0%);fill-opacity:1;" d="M 120.789062 86.957031 C 120.660156 87.28125 120.851562 87.519531 121.222656 87.519531 C 121.449219 87.519531 121.527344 87.410156 121.527344 87.121094 C 121.527344 86.828125 121.449219 86.71875 121.207031 86.71875 C 121.03125 86.71875 120.835938 86.828125 120.789062 86.957031 Z M 120.789062 86.957031 "/>
<path style=" stroke:none;fill-rule:nonzero;fill:rgb(0%,0%,0%);fill-opacity:1;" d="M 112.339844 88.632812 C 112.046875 88.855469 111.953125 89.097656 111.953125 89.613281 C 111.953125 90.128906 112.046875 90.367188 112.339844 90.59375 C 112.851562 91.027344 113.578125 90.980469 114.042969 90.496094 C 115.1875 89.371094 113.578125 87.617188 112.339844 88.632812 Z M 112.339844 88.632812 "/>
<path style=" stroke:none;fill-rule:nonzero;fill:rgb(0%,0%,0%);fill-opacity:1;" d="M 105.320312 93.410156 C 105.273438 93.539062 105.351562 93.78125 105.496094 93.925781 C 105.738281 94.164062 105.769531 94.164062 106.027344 93.925781 C 106.238281 93.699219 106.253906 93.601562 106.078125 93.410156 C 105.820312 93.089844 105.449219 93.089844 105.320312 93.410156 Z M 105.320312 93.410156 "/>
<path style=" stroke:none;fill-rule:nonzero;fill:rgb(0%,0%,0%);fill-opacity:1;" d="M 137.417969 86.925781 C 137.289062 87.265625 137.546875 87.554688 137.882812 87.488281 C 138.316406 87.410156 138.285156 86.8125 137.851562 86.75 C 137.65625 86.71875 137.464844 86.796875 137.417969 86.925781 Z M 137.417969 86.925781 "/>
<path style=" stroke:none;fill-rule:nonzero;fill:rgb(0%,0%,0%);fill-opacity:1;" d="M 145.03125 88.648438 C 144.015625 89.660156 144.933594 91.285156 146.269531 90.804688 C 147.558594 90.351562 147.1875 88.324219 145.835938 88.324219 C 145.5625 88.324219 145.207031 88.46875 145.03125 88.648438 Z M 145.03125 88.648438 "/>
<path style=" stroke:none;fill-rule:nonzero;fill:rgb(0%,0%,0%);fill-opacity:1;" d="M 152.804688 93.410156 C 152.757812 93.539062 152.820312 93.765625 152.949219 93.890625 C 153.144531 94.085938 153.222656 94.085938 153.480469 93.910156 C 153.851562 93.636719 153.707031 93.152344 153.238281 93.152344 C 153.0625 93.152344 152.871094 93.265625 152.804688 93.410156 Z M 152.804688 93.410156 "/>
<path style=" stroke:none;fill-rule:nonzero;fill:rgb(0%,0%,0%);fill-opacity:1;" d="M 93.683594 105.300781 C 93.425781 105.605469 93.585938 106.023438 93.988281 106.023438 C 94.359375 106.023438 94.550781 105.574219 94.308594 105.28125 C 94.070312 104.992188 93.921875 104.992188 93.683594 105.300781 Z M 93.683594 105.300781 "/>
<path style=" stroke:none;fill-rule:nonzero;fill:rgb(0%,0%,0%);fill-opacity:1;" d="M 89.175781 112.136719 C 88.742188 112.570312 88.742188 113.585938 89.175781 113.988281 C 89.996094 114.726562 91.269531 114.148438 91.269531 113.039062 C 91.269531 111.960938 89.929688 111.378906 89.175781 112.136719 Z M 89.175781 112.136719 "/>
<path style=" stroke:none;fill-rule:nonzero;fill:rgb(0%,0%,0%);fill-opacity:1;" d="M 87.324219 120.9375 C 87.082031 121.164062 87.082031 121.226562 87.308594 121.4375 C 87.597656 121.742188 88.046875 121.582031 88.046875 121.164062 C 88.046875 120.742188 87.628906 120.617188 87.324219 120.9375 Z M 87.324219 120.9375 "/>
<path style=" stroke:none;fill-rule:nonzero;fill:rgb(0%,0%,0%);fill-opacity:1;" d="M 164.621094 105.28125 C 164.570312 105.410156 164.636719 105.636719 164.75 105.8125 C 164.957031 106.085938 164.988281 106.085938 165.246094 105.828125 C 165.390625 105.683594 165.472656 105.445312 165.425781 105.316406 C 165.296875 104.992188 164.730469 104.976562 164.621094 105.28125 Z M 164.621094 105.28125 "/>
<path style=" stroke:none;fill-rule:nonzero;fill:rgb(0%,0%,0%);fill-opacity:1;" d="M 168.046875 112.167969 C 167.660156 112.585938 167.628906 113.375 167.96875 113.859375 C 168.5 114.628906 169.804688 114.421875 170.140625 113.503906 C 170.316406 113.023438 170.058594 112.183594 169.65625 111.976562 C 169.144531 111.703125 168.402344 111.800781 168.046875 112.167969 Z M 168.046875 112.167969 "/>
<path style=" stroke:none;fill-rule:nonzero;fill:rgb(0%,0%,0%);fill-opacity:1;" d="M 170.992188 120.921875 C 170.945312 121.050781 171.011719 121.292969 171.15625 121.417969 C 171.378906 121.644531 171.429688 121.644531 171.652344 121.417969 C 171.976562 121.097656 171.976562 120.890625 171.652344 120.761719 C 171.25 120.617188 171.105469 120.648438 170.992188 120.921875 Z M 170.992188 120.921875 "/>
<path style=" stroke:none;fill-rule:nonzero;fill:rgb(0%,0%,0%);fill-opacity:1;" d="M 127.324219 121.917969 C 125.859375 122.417969 125.054688 122.917969 124.007812 123.945312 C 122.414062 125.539062 121.691406 127.324219 121.691406 129.609375 C 121.691406 134.015625 125.167969 137.554688 129.496094 137.554688 C 133.519531 137.554688 136.902344 134.484375 137.367188 130.382812 C 137.769531 126.96875 135.613281 123.429688 132.3125 122.09375 C 131.058594 121.597656 128.5625 121.515625 127.324219 121.917969 Z M 129.289062 123.589844 C 129.320312 124.332031 129.402344 124.765625 129.546875 124.816406 C 129.691406 124.863281 129.738281 124.558594 129.738281 123.65625 L 129.738281 122.433594 L 130.222656 122.433594 C 130.769531 122.433594 130.769531 122.417969 130.382812 124.25 C 130.316406 124.589844 130.316406 124.894531 130.398438 124.941406 C 130.574219 125.039062 130.640625 124.894531 130.898438 123.65625 C 131.121094 122.625 131.285156 122.464844 131.71875 122.804688 C 131.992188 122.996094 131.992188 123.042969 131.636719 123.882812 C 131.445312 124.363281 131.21875 124.78125 131.15625 124.816406 C 130.929688 124.910156 131.011719 125.328125 131.25 125.328125 C 131.378906 125.328125 131.671875 124.863281 131.925781 124.203125 C 132.378906 123.042969 132.652344 122.851562 133.007812 123.429688 C 133.152344 123.640625 133.054688 123.882812 132.585938 124.589844 C 131.925781 125.585938 131.894531 125.652344 132.203125 125.652344 C 132.296875 125.636719 132.667969 125.199219 133.007812 124.652344 L 133.632812 123.671875 L 133.972656 124.027344 L 134.308594 124.363281 L 133.554688 125.136719 C 132.859375 125.828125 132.605469 126.292969 132.910156 126.292969 C 132.972656 126.292969 133.390625 125.925781 133.84375 125.488281 C 134.664062 124.6875 134.679688 124.6875 134.953125 124.992188 C 135.324219 125.394531 135.242188 125.507812 134.164062 126.230469 C 133.683594 126.550781 133.328125 126.875 133.375 126.96875 C 133.472656 127.113281 133.648438 127.019531 134.875 126.199219 C 135.292969 125.910156 135.484375 125.859375 135.644531 126.003906 C 136.097656 126.375 135.871094 126.730469 134.9375 127.097656 C 133.921875 127.5 133.648438 127.679688 133.792969 127.839844 C 133.859375 127.886719 134.375 127.742188 134.96875 127.515625 C 136.113281 127.050781 136.339844 127.082031 136.339844 127.644531 C 136.339844 127.984375 136.226562 128.046875 135.339844 128.226562 C 134.214844 128.433594 134.035156 128.515625 134.148438 128.691406 C 134.195312 128.757812 134.726562 128.722656 135.324219 128.613281 C 135.917969 128.5 136.46875 128.449219 136.53125 128.484375 C 136.613281 128.53125 136.660156 128.738281 136.660156 128.949219 C 136.660156 129.320312 136.613281 129.335938 135.421875 129.382812 C 134.710938 129.414062 134.164062 129.496094 134.164062 129.59375 C 134.164062 129.6875 134.710938 129.769531 135.421875 129.800781 C 136.613281 129.851562 136.660156 129.867188 136.660156 130.234375 C 136.660156 130.445312 136.613281 130.65625 136.546875 130.6875 C 136.46875 130.734375 135.917969 130.671875 135.292969 130.558594 C 134.679688 130.429688 134.148438 130.363281 134.117188 130.398438 C 133.921875 130.574219 134.359375 130.785156 135.292969 130.960938 C 136.226562 131.136719 136.339844 131.203125 136.339844 131.539062 C 136.339844 132.101562 136.113281 132.132812 135.035156 131.683594 C 133.921875 131.234375 133.714844 131.203125 133.792969 131.460938 C 133.828125 131.539062 134.277344 131.796875 134.792969 132.007812 C 136 132.503906 136.097656 132.601562 135.742188 133.035156 L 135.453125 133.390625 L 134.503906 132.730469 C 133.941406 132.328125 133.503906 132.117188 133.410156 132.214844 C 133.328125 132.296875 133.648438 132.617188 134.195312 132.988281 C 135.179688 133.664062 135.324219 133.9375 134.855469 134.242188 C 134.617188 134.386719 134.4375 134.273438 133.777344 133.632812 C 132.699219 132.570312 132.410156 132.761719 133.425781 133.855469 C 134.324219 134.820312 134.324219 134.835938 134.050781 135.109375 C 133.714844 135.449219 133.539062 135.335938 132.957031 134.417969 C 132.652344 133.9375 132.296875 133.535156 132.203125 133.535156 C 131.894531 133.535156 131.925781 133.597656 132.585938 134.597656 C 133.054688 135.304688 133.152344 135.546875 133.007812 135.753906 C 132.667969 136.316406 132.394531 136.125 131.925781 134.980469 C 131.671875 134.355469 131.378906 133.855469 131.25 133.855469 C 131.011719 133.855469 130.929688 134.273438 131.15625 134.371094 C 131.21875 134.386719 131.445312 134.820312 131.636719 135.304688 C 131.976562 136.125 131.992188 136.1875 131.734375 136.382812 C 131.234375 136.753906 131.089844 136.605469 130.882812 135.496094 C 130.640625 134.289062 130.574219 134.128906 130.398438 134.257812 C 130.316406 134.289062 130.351562 134.789062 130.480469 135.335938 C 130.769531 136.734375 130.769531 136.753906 130.222656 136.753906 L 129.753906 136.753906 L 129.707031 135.496094 C 129.675781 134.804688 129.59375 134.257812 129.496094 134.257812 C 129.402344 134.257812 129.320312 134.804688 129.289062 135.496094 C 129.238281 136.703125 129.222656 136.753906 128.851562 136.753906 C 128.386719 136.753906 128.339844 136.460938 128.628906 135.144531 C 128.789062 134.371094 128.742188 133.984375 128.515625 134.226562 C 128.46875 134.273438 128.304688 134.804688 128.191406 135.402344 C 128.0625 135.996094 127.9375 136.511719 127.902344 136.542969 C 127.871094 136.574219 127.660156 136.527344 127.421875 136.445312 L 127.003906 136.285156 L 127.339844 135.433594 C 127.773438 134.386719 127.886719 133.855469 127.710938 133.855469 C 127.628906 133.855469 127.40625 134.273438 127.195312 134.773438 C 126.679688 136.109375 126.632812 136.171875 126.214844 135.964844 C 125.761719 135.707031 125.777344 135.59375 126.4375 134.613281 C 127.035156 133.742188 127.097656 133.535156 126.839844 133.535156 C 126.761719 133.535156 126.421875 133.9375 126.101562 134.417969 C 125.472656 135.351562 125.246094 135.464844 124.910156 135.046875 C 124.730469 134.835938 124.8125 134.675781 125.519531 133.96875 C 125.988281 133.503906 126.359375 133.066406 126.359375 133.003906 C 126.359375 132.699219 125.890625 132.957031 125.199219 133.648438 C 124.570312 134.273438 124.363281 134.386719 124.152344 134.242188 C 123.652344 133.9375 123.765625 133.726562 124.730469 133.050781 C 125.601562 132.472656 125.941406 132.085938 125.601562 132.085938 C 125.519531 132.085938 125.039062 132.375 124.507812 132.746094 C 123.621094 133.339844 123.542969 133.375 123.347656 133.117188 C 122.992188 132.632812 123.105469 132.488281 124.074219 132.085938 C 125.070312 131.683594 125.34375 131.507812 125.183594 131.347656 C 125.136719 131.28125 124.605469 131.441406 124.023438 131.699219 C 123.121094 132.070312 122.929688 132.101562 122.800781 131.910156 C 122.445312 131.347656 122.625 131.152344 123.78125 130.945312 C 124.554688 130.816406 124.910156 130.671875 124.910156 130.527344 C 124.910156 130.382812 124.796875 130.332031 124.636719 130.382812 C 124.476562 130.429688 124.054688 130.511719 123.703125 130.558594 C 123.347656 130.621094 122.929688 130.703125 122.785156 130.75 C 122.558594 130.800781 122.496094 130.71875 122.496094 130.332031 L 122.496094 129.851562 L 123.652344 129.800781 C 124.394531 129.769531 124.828125 129.6875 124.878906 129.542969 C 124.925781 129.398438 124.621094 129.351562 123.71875 129.351562 L 122.496094 129.351562 L 122.496094 128.867188 C 122.496094 128.59375 122.542969 128.386719 122.625 128.386719 C 122.6875 128.402344 123.203125 128.5 123.78125 128.628906 C 124.363281 128.738281 124.84375 128.820312 124.878906 128.789062 C 125.070312 128.613281 124.636719 128.402344 123.703125 128.226562 C 122.640625 128.015625 122.445312 127.839844 122.800781 127.277344 C 122.929688 127.082031 123.121094 127.113281 124.023438 127.484375 C 124.605469 127.742188 125.136719 127.902344 125.183594 127.839844 C 125.34375 127.679688 125.070312 127.5 124.074219 127.097656 C 123.105469 126.695312 122.992188 126.550781 123.347656 126.070312 C 123.558594 125.796875 123.621094 125.8125 124.570312 126.457031 C 125.117188 126.824219 125.601562 127.097656 125.648438 127.050781 C 125.8125 126.890625 125.585938 126.664062 124.667969 126.054688 C 124.183594 125.730469 123.78125 125.410156 123.78125 125.34375 C 123.78125 125.28125 123.910156 125.105469 124.074219 124.960938 C 124.347656 124.703125 124.410156 124.734375 125.152344 125.488281 C 125.859375 126.214844 126.359375 126.488281 126.359375 126.183594 C 126.359375 126.117188 125.988281 125.683594 125.519531 125.214844 C 124.8125 124.507812 124.730469 124.347656 124.910156 124.140625 C 125.246094 123.703125 125.519531 123.847656 126.117188 124.765625 C 126.421875 125.25 126.746094 125.652344 126.839844 125.652344 C 127.097656 125.652344 127.035156 125.441406 126.4375 124.574219 C 126.132812 124.105469 125.875 123.65625 125.875 123.574219 C 125.875 123.398438 126.503906 123.011719 126.597656 123.109375 C 126.632812 123.140625 126.890625 123.671875 127.179688 124.285156 C 127.789062 125.636719 127.984375 125.34375 127.421875 123.914062 C 127.035156 122.949219 127.035156 122.917969 127.324219 122.753906 C 127.839844 122.480469 127.9375 122.5625 128.128906 123.511719 C 128.386719 124.832031 128.449219 125.007812 128.644531 125.007812 C 128.757812 125.007812 128.773438 124.816406 128.707031 124.476562 C 128.644531 124.203125 128.546875 123.625 128.5 123.191406 C 128.402344 122.464844 128.417969 122.433594 128.820312 122.433594 C 129.222656 122.433594 129.238281 122.464844 129.289062 123.589844 Z M 129.289062 123.589844 "/>
<path style=" stroke:none;fill-rule:nonzero;fill:rgb(0%,0%,0%);fill-opacity:1;" d="M 128.289062 126.550781 C 125.617188 127.710938 125.648438 131.523438 128.355469 132.632812 C 129.609375 133.148438 130.992188 132.792969 131.945312 131.714844 C 132.441406 131.152344 132.796875 130.269531 132.796875 129.59375 C 132.796875 127.371094 130.300781 125.683594 128.289062 126.550781 Z M 128.289062 126.550781 "/>
<path style=" stroke:none;fill-rule:nonzero;fill:rgb(0%,0%,0%);fill-opacity:1;" d="M 87.421875 137.71875 C 87.113281 137.894531 87.277344 138.441406 87.644531 138.441406 C 87.855469 138.441406 87.984375 138.3125 88.015625 138.105469 C 88.0625 137.734375 87.742188 137.507812 87.421875 137.71875 Z M 87.421875 137.71875 "/>
<path style=" stroke:none;fill-rule:nonzero;fill:rgb(0%,0%,0%);fill-opacity:1;" d="M 89.289062 145.148438 C 88.128906 146.035156 89.222656 147.851562 90.574219 147.289062 C 91.765625 146.792969 91.394531 144.957031 90.09375 144.957031 C 89.804688 144.957031 89.433594 145.054688 89.289062 145.148438 Z M 89.289062 145.148438 "/>
<path style=" stroke:none;fill-rule:nonzero;fill:rgb(0%,0%,0%);fill-opacity:1;" d="M 93.699219 153.386719 C 93.457031 153.675781 93.648438 154.128906 94.019531 154.128906 C 94.421875 154.128906 94.582031 153.710938 94.324219 153.402344 C 94.085938 153.097656 93.941406 153.097656 93.699219 153.386719 Z M 93.699219 153.386719 "/>
<path style=" stroke:none;fill-rule:nonzero;fill:rgb(0%,0%,0%);fill-opacity:1;" d="M 171.011719 137.796875 C 170.945312 137.925781 170.992188 138.152344 171.105469 138.28125 C 171.25 138.457031 171.363281 138.472656 171.605469 138.3125 C 171.976562 138.085938 172.007812 137.78125 171.652344 137.652344 C 171.269531 137.507812 171.105469 137.539062 171.011719 137.796875 Z M 171.011719 137.796875 "/>
<path style=" stroke:none;fill-rule:nonzero;fill:rgb(0%,0%,0%);fill-opacity:1;" d="M 168.191406 145.261719 C 167.644531 145.824219 167.597656 146.355469 168.0625 146.953125 C 168.722656 147.789062 170.300781 147.242188 170.300781 146.164062 C 170.300781 145.648438 169.496094 144.796875 169.015625 144.796875 C 168.820312 144.796875 168.449219 145.003906 168.191406 145.261719 Z M 168.191406 145.261719 "/>
<path style=" stroke:none;fill-rule:nonzero;fill:rgb(0%,0%,0%);fill-opacity:1;" d="M 164.730469 153.386719 C 164.585938 153.773438 164.796875 154.160156 165.101562 154.09375 C 165.296875 154.0625 165.390625 153.902344 165.390625 153.644531 C 165.390625 153.179688 164.878906 152.984375 164.730469 153.386719 Z M 164.730469 153.386719 "/>
<path style=" stroke:none;fill-rule:nonzero;fill:rgb(0%,0%,0%);fill-opacity:1;" d="M 105.433594 165.632812 C 105.433594 165.921875 105.511719 166.03125 105.753906 166.03125 C 105.996094 166.03125 106.078125 165.921875 106.078125 165.632812 C 106.078125 165.339844 105.996094 165.230469 105.753906 165.230469 C 105.511719 165.230469 105.433594 165.339844 105.433594 165.632812 Z M 105.433594 165.632812 "/>
<path style=" stroke:none;fill-rule:nonzero;fill:rgb(0%,0%,0%);fill-opacity:1;" d="M 112.46875 168.480469 C 111.597656 169.15625 111.953125 170.632812 113.03125 170.8125 C 114.222656 170.988281 114.914062 169.539062 114.042969 168.6875 C 113.625 168.253906 112.902344 168.15625 112.46875 168.480469 Z M 112.46875 168.480469 "/>
<path style=" stroke:none;fill-rule:nonzero;fill:rgb(0%,0%,0%);fill-opacity:1;" d="M 120.835938 171.875 C 120.707031 172.210938 120.964844 172.5 121.304688 172.4375 C 121.738281 172.355469 121.707031 171.761719 121.273438 171.695312 C 121.078125 171.664062 120.886719 171.746094 120.835938 171.875 Z M 120.835938 171.875 "/>
<path style=" stroke:none;fill-rule:nonzero;fill:rgb(0%,0%,0%);fill-opacity:1;" d="M 152.980469 165.308594 C 152.835938 165.679688 153.046875 166.066406 153.351562 166 C 153.707031 165.9375 153.835938 165.390625 153.527344 165.210938 C 153.222656 165.003906 153.078125 165.035156 152.980469 165.308594 Z M 152.980469 165.308594 "/>
<path style=" stroke:none;fill-rule:nonzero;fill:rgb(0%,0%,0%);fill-opacity:1;" d="M 145.238281 168.480469 C 144.789062 168.703125 144.515625 169.460938 144.707031 169.957031 C 144.886719 170.441406 145.464844 170.859375 145.949219 170.859375 C 146.460938 170.859375 147.121094 170.136719 147.121094 169.574219 C 147.121094 169.007812 146.460938 168.285156 145.949219 168.300781 C 145.753906 168.300781 145.433594 168.382812 145.238281 168.480469 Z M 145.238281 168.480469 "/>
<path style=" stroke:none;fill-rule:nonzero;fill:rgb(0%,0%,0%);fill-opacity:1;" d="M 137.640625 171.664062 C 137.335938 171.839844 137.496094 172.386719 137.867188 172.386719 C 138.078125 172.386719 138.207031 172.257812 138.238281 172.050781 C 138.285156 171.679688 137.964844 171.453125 137.640625 171.664062 Z M 137.640625 171.664062 "/>
</g>
</svg>
