<?xml version="1.0" encoding="utf-8"?>
<!-- Generator: Adobe Illustrator 26.0.3, SVG Export Plug-In . SVG Version: 6.00 Build 0)  -->
<svg version="1.1" id="Layer_1" xmlns="http://www.w3.org/2000/svg" xmlns:xlink="http://www.w3.org/1999/xlink" x="0px" y="0px"
	   width="256" height="256"  viewBox="0 0 256 256" style="enable-background:new 0 0 256 256;" xml:space="preserve">
<style type="text/css">
	.st0{fill:#BFA100;}
	.st1{fill:#FBCD18;}
	.st2{fill:#FFE991;}
	.st3{font-family:'Algerian';}
	.st4{font-size:194.4806px;}
</style>
<g id="Layer_1_00000165223995040622484620000017683087090443924637_">
	<ellipse class="st0" cx="123.7" cy="129" rx="123.7" ry="127"/>
	<ellipse class="st1" cx="132.3" cy="127" rx="123.7" ry="127"/>
	<ellipse class="st2" cx="130.4" cy="127" rx="110.1" ry="113.1"/>
	<g>
		<path class="st1" d="M130.4,33.3c2.4,0,4.3-2,4.3-4.5s-1.9-4.5-4.3-4.5c-2.4,0-4.3,2-4.3,4.5S128,33.3,130.4,33.3z"/>
		<path class="st1" d="M110.3,35.5c0.3,0,0.6,0,0.9-0.1c1.2-0.2,2.1-0.9,2.8-1.9c0.6-1,0.9-2.2,0.6-3.4c-0.4-2-2.2-3.5-4.3-3.5
			c-0.3,0-0.6,0-0.9,0.1c-2.3,0.5-3.9,2.9-3.3,5.3C106.4,34,108.2,35.5,110.3,35.5z"/>
		<path class="st1" d="M91,42c0.6,0,1.2-0.1,1.8-0.4c2.2-1,3.2-3.6,2.2-5.9c-0.7-1.6-2.3-2.6-4-2.6c-0.6,0-1.2,0.1-1.8,0.4
			c-1.1,0.5-1.9,1.4-2.3,2.5c-0.4,1.1-0.4,2.3,0.1,3.4C87.7,40.9,89.3,42,91,42z"/>
		<path class="st1" d="M73.4,43.5c-0.9,0-1.8,0.3-2.6,0.8c-1.9,1.4-2.4,4.3-1,6.3c0.8,1.1,2.1,1.8,3.5,1.8c0.9,0,1.8-0.3,2.6-0.8
			c0.9-0.7,1.5-1.7,1.7-2.9c0.2-1.2-0.1-2.4-0.8-3.3C76.1,44.2,74.8,43.5,73.4,43.5z"/>
		<path class="st1" d="M55.5,65.2c0.8,0.7,1.8,1.1,2.9,1.1c1.2,0,2.4-0.5,3.2-1.5c1.6-1.8,1.4-4.7-0.3-6.3c-0.8-0.7-1.8-1.1-2.9-1.1
			c-1.2,0-2.4,0.5-3.2,1.5c-0.8,0.9-1.2,2-1.1,3.2C54,63.3,54.6,64.4,55.5,65.2z"/>
		<path class="st1" d="M48.6,74.8c-0.7-0.4-1.4-0.6-2.2-0.6c-1.5,0-3,0.8-3.8,2.2c-1.2,2.1-0.5,4.9,1.6,6.1c0.7,0.4,1.4,0.6,2.2,0.6
			c1.5,0,3-0.8,3.8-2.2c0.6-1,0.7-2.2,0.4-3.4C50.3,76.4,49.6,75.4,48.6,74.8z"/>
		<path class="st1" d="M36.9,102c0.4,0.1,0.9,0.2,1.4,0.2c1.9,0,3.5-1.2,4.2-3.1c0.3-1.1,0.2-2.3-0.2-3.4c-0.5-1-1.4-1.8-2.5-2.2
			c-0.4-0.1-0.9-0.2-1.4-0.2c-1.9,0-3.5,1.2-4.2,3.1C33.3,98.7,34.6,101.2,36.9,102z"/>
		<path class="st1" d="M33.5,122.5c0.1,0,0.3,0,0.4,0c2.2,0,4.1-1.7,4.3-4c0.2-2.4-1.5-4.7-3.9-4.9c-0.1,0-0.3,0-0.4,0
			c-2.2,0-4.1,1.7-4.3,4C29.4,120.1,31.2,122.2,33.5,122.5z"/>
		<path class="st1" d="M34.4,143.3c2.4-0.2,4.1-2.5,3.9-4.9c-0.2-2.3-2.1-4-4.3-4c-0.1,0-0.3,0-0.4,0c-2.4,0.2-4.1,2.5-3.9,4.9
			c0.2,2.3,2.1,4,4.3,4C34.1,143.4,34.3,143.4,34.4,143.3z"/>
		<path class="st1" d="M42.3,157.9c-0.6-1.8-2.3-3.1-4.2-3.1c-0.4,0-0.9,0-1.4,0.2c-2.3,0.7-3.5,3.3-2.8,5.6
			c0.6,1.8,2.3,3.1,4.2,3.1c0.4,0,0.9,0,1.4-0.2c1.1-0.3,2-1.1,2.5-2.2C42.6,160.2,42.7,159,42.3,157.9z"/>
		<path class="st1" d="M46.4,173.8c-0.8,0-1.5,0.2-2.2,0.6c-2.1,1.2-2.8,4-1.6,6.1c0.8,1.4,2.2,2.2,3.8,2.2c0.8,0,1.5-0.2,2.2-0.6
			c1-0.6,1.7-1.5,2-2.7c0.3-1.1,0.1-2.4-0.4-3.4C49.4,174.7,48,173.8,46.4,173.8z"/>
		<path class="st1" d="M58.3,190.7c-1.1,0-2.1,0.4-2.9,1.1c-0.9,0.8-1.4,1.9-1.4,3.1c-0.1,1.2,0.3,2.3,1.1,3.2
			c0.8,0.9,2,1.5,3.2,1.5c1.1,0,2.1-0.4,2.9-1.1c1.8-1.6,1.9-4.5,0.3-6.3C60.8,191.2,59.6,190.7,58.3,190.7z"/>
		<path class="st1" d="M76,205.4c-0.7-0.5-1.6-0.8-2.6-0.8c-1.4,0-2.7,0.7-3.5,1.8c-1.4,2-1,4.8,1,6.3c0.7,0.5,1.6,0.8,2.6,0.8
			c1.4,0,2.7-0.7,3.5-1.8c0.7-0.9,1-2.1,0.8-3.3C77.5,207.2,76.9,206.1,76,205.4z"/>
		<path class="st1" d="M92.7,215.4c-0.6-0.2-1.2-0.4-1.8-0.4c-1.7,0-3.3,1-4,2.6c-0.5,1.1-0.5,2.3-0.1,3.4c0.4,1.1,1.2,2,2.3,2.5
			c0.6,0.2,1.2,0.4,1.8,0.4c1.7,0,3.3-1,4-2.6C95.9,219,94.9,216.4,92.7,215.4z"/>
		<path class="st1" d="M111.1,221.6c-0.3,0-0.6-0.1-0.9-0.1c-2,0-3.8,1.5-4.3,3.5c-0.5,2.4,1,4.8,3.3,5.3c0.3,0,0.6,0.1,0.9,0.1
			c2,0,3.8-1.5,4.3-3.5c0.2-1.2,0-2.4-0.6-3.4C113.3,222.5,112.3,221.8,111.1,221.6z"/>
		<path class="st1" d="M130.4,223.7c-2.4,0-4.3,2-4.3,4.5s1.9,4.5,4.3,4.5c2.4,0,4.3-2,4.3-4.5S132.8,223.7,130.4,223.7z"/>
		<path class="st1" d="M150.6,221.5c-0.3,0-0.6,0-0.9,0.1c-1.2,0.2-2.1,0.9-2.8,1.9s-0.9,2.2-0.6,3.4c0.4,2,2.2,3.5,4.3,3.5
			c0.3,0,0.6,0,0.9-0.1c1.2-0.2,2.1-0.9,2.8-1.9c0.6-1,0.9-2.2,0.6-3.3C154.4,223,152.6,221.5,150.6,221.5z"/>
		<path class="st1" d="M169.9,215c-0.6,0-1.2,0.1-1.8,0.4c-2.2,1-3.2,3.6-2.2,5.9c0.7,1.6,2.3,2.6,4,2.6c0.6,0,1.2-0.1,1.8-0.4
			c1.1-0.5,1.9-1.4,2.3-2.5c0.4-1.1,0.4-2.3-0.1-3.4C173.1,216.1,171.6,215,169.9,215z"/>
		<path class="st1" d="M187.4,204.6c-0.9,0-1.8,0.3-2.6,0.8c-0.9,0.7-1.5,1.7-1.7,2.9c-0.2,1.2,0.1,2.4,0.8,3.3
			c0.8,1.1,2.1,1.8,3.5,1.8c0.9,0,1.8-0.3,2.6-0.8c1.9-1.4,2.4-4.3,1-6.3C190.1,205.3,188.8,204.6,187.4,204.6z"/>
		<path class="st1" d="M205.4,191.8c-0.8-0.7-1.8-1.1-2.9-1.1c-1.2,0-2.4,0.5-3.2,1.5c-1.6,1.8-1.4,4.7,0.3,6.3
			c0.8,0.7,1.8,1.1,2.9,1.1c1.2,0,2.4-0.5,3.2-1.5C207.3,196.3,207.2,193.5,205.4,191.8z"/>
		<path class="st1" d="M216.6,174.4c-0.7-0.4-1.4-0.6-2.2-0.6c-1.5,0-3,0.8-3.8,2.2c-1.2,2.1-0.5,4.9,1.6,6.1
			c0.7,0.4,1.4,0.6,2.2,0.6c1.5,0,3-0.8,3.8-2.2C219.3,178.4,218.7,175.7,216.6,174.4z"/>
		<path class="st1" d="M224,155c-0.4-0.1-0.9-0.2-1.4-0.2c-1.9,0-3.6,1.2-4.2,3.1c-0.3,1.1-0.3,2.3,0.2,3.4c0.5,1,1.4,1.8,2.5,2.2
			c0.4,0.1,0.9,0.2,1.4,0.2c1.9,0,3.6-1.2,4.2-3.1c0.4-1.1,0.3-2.3-0.2-3.4C226,156.2,225.1,155.4,224,155z"/>
		<path class="st1" d="M227.3,134.4c-0.1,0-0.3,0-0.5,0c-2.2,0-4.1,1.7-4.3,4c-0.2,2.4,1.5,4.7,3.9,4.9c0.1,0,0.3,0,0.5,0
			c2.2,0,4.1-1.7,4.3-4C231.4,136.9,229.7,134.7,227.3,134.4z"/>
		<path class="st1" d="M226.4,113.7c-1.2,0.1-2.2,0.7-2.9,1.6c-0.7,0.9-1.1,2.1-1,3.3c0.2,2.3,2.1,4,4.3,4c0.1,0,0.3,0,0.4,0
			c1.2-0.1,2.2-0.7,2.9-1.6c0.7-0.9,1.1-2.1,1-3.3c-0.2-2.3-2.1-4-4.3-4C226.7,113.6,226.5,113.6,226.4,113.7z"/>
		<path class="st1" d="M218.5,99.1c0.6,1.8,2.2,3.1,4.2,3.1c0.4,0,0.9,0,1.4-0.2c1.1-0.3,2-1.1,2.5-2.2c0.5-1,0.6-2.3,0.2-3.4
			c-0.6-1.8-2.2-3.1-4.2-3.1c-0.4,0-0.9,0-1.4,0.2c-1.1,0.3-2,1.1-2.6,2.2C218.2,96.7,218.1,98,218.5,99.1z"/>
		<path class="st1" d="M214.4,83.2c0.8,0,1.5-0.2,2.2-0.6c2.1-1.2,2.8-4,1.6-6.1c-0.8-1.4-2.2-2.2-3.8-2.2c-0.8,0-1.5,0.2-2.2,0.6
			c-2.1,1.2-2.8,4-1.6,6.1C211.4,82.3,212.8,83.2,214.4,83.2z"/>
		<path class="st1" d="M202.5,66.3c1.1,0,2.1-0.4,2.9-1.1c1.8-1.6,1.9-4.5,0.3-6.3c-0.8-0.9-2-1.5-3.2-1.5c-1.1,0-2.1,0.4-2.9,1.1
			c-1.8,1.6-1.9,4.5-0.3,6.3C200.1,65.8,201.2,66.3,202.5,66.3z"/>
		<path class="st1" d="M184.9,51.5c0.7,0.5,1.6,0.8,2.6,0.8c1.4,0,2.7-0.7,3.5-1.8c1.4-2,1-4.8-1-6.3c-0.7-0.5-1.6-0.8-2.6-0.8
			c-1.4,0-2.7,0.7-3.5,1.8c-0.7,0.9-1,2.1-0.8,3.3C183.3,49.8,183.9,50.9,184.9,51.5z"/>
		<path class="st1" d="M168.1,41.6c0.6,0.2,1.2,0.4,1.8,0.4c1.7,0,3.3-1,4-2.6c0.5-1.1,0.5-2.3,0.1-3.4c-0.4-1.1-1.2-2-2.3-2.5
			c-0.6-0.2-1.2-0.4-1.8-0.4c-1.7,0-3.3,1-4,2.6C164.9,38,165.9,40.6,168.1,41.6z"/>
		<path class="st1" d="M149.7,35.4c0.3,0,0.6,0.1,0.9,0.1c2,0,3.8-1.5,4.3-3.5c0.2-1.2,0-2.4-0.6-3.4c-0.6-1-1.6-1.7-2.8-1.9
			c-0.3,0-0.6-0.1-0.9-0.1c-2,0-3.8,1.5-4.3,3.5c-0.2,1.2,0,2.4,0.6,3.4C147.6,34.5,148.5,35.2,149.7,35.4z"/>
	</g>
	<text transform="matrix(0.9736 0 0 1 60.3776 180.5879)" class="st3 st4">A</text>
</g>
</svg>
