<svg width="256" height="256" viewBox="0 0 256 256" fill="none" xmlns="http://www.w3.org/2000/svg">
<path d="M123.7 256C192.018 256 247.4 199.14 247.4 129C247.4 58.8598 192.018 2 123.7 2C55.3824 2 0 58.8598 0 129C0 199.14 55.3824 256 123.7 256Z" fill="#BFA100"/>
<path d="M132.3 254C200.618 254 256 197.14 256 127C256 56.8598 200.618 0 132.3 0C63.9825 0 8.6001 56.8598 8.6001 127C8.6001 197.14 63.9825 254 132.3 254Z" fill="#FBCD18"/>
<path d="M130.4 240.1C191.206 240.1 240.5 189.463 240.5 127C240.5 64.5365 191.206 13.8999 130.4 13.8999C69.5932 13.8999 20.2998 64.5365 20.2998 127C20.2998 189.463 69.5932 240.1 130.4 240.1Z" fill="#FFE991"/>
<path d="M130.4 33.3C132.8 33.3 134.7 31.3 134.7 28.8C134.7 26.3 132.8 24.3 130.4 24.3C128 24.3 126.1 26.3 126.1 28.8C126.1 31.3 128 33.3 130.4 33.3Z" fill="#FBCD18"/>
<path d="M110.3 35.5001C110.6 35.5001 110.9 35.5001 111.2 35.4001C112.4 35.2001 113.3 34.5001 114 33.5001C114.6 32.5001 114.9 31.3001 114.6 30.1001C114.2 28.1001 112.4 26.6001 110.3 26.6001C110 26.6001 109.7 26.6001 109.4 26.7001C107.1 27.2001 105.5 29.6001 106.1 32.0001C106.4 34.0001 108.2 35.5001 110.3 35.5001Z" fill="#FBCD18"/>
<path d="M91.0004 42.0001C91.6004 42.0001 92.2004 41.9001 92.8004 41.6001C95.0004 40.6001 96.0004 38.0001 95.0004 35.7001C94.3004 34.1001 92.7004 33.1001 91.0004 33.1001C90.4004 33.1001 89.8004 33.2001 89.2004 33.5001C88.1004 34.0001 87.3004 34.9001 86.9004 36.0001C86.5004 37.1001 86.5004 38.3001 87.0004 39.4001C87.7004 40.9001 89.3004 42.0001 91.0004 42.0001Z" fill="#FBCD18"/>
<path d="M73.4002 43.5C72.5002 43.5 71.6002 43.8 70.8002 44.3C68.9002 45.7 68.4002 48.6 69.8002 50.6C70.6002 51.7 71.9002 52.4 73.3002 52.4C74.2002 52.4 75.1002 52.1 75.9002 51.6C76.8002 50.9 77.4002 49.9 77.6002 48.7C77.8002 47.5 77.5002 46.3 76.8002 45.4C76.1002 44.2 74.8002 43.5 73.4002 43.5Z" fill="#FBCD18"/>
<path d="M55.5001 65.2001C56.3001 65.9001 57.3001 66.3001 58.4001 66.3001C59.6001 66.3001 60.8001 65.8001 61.6001 64.8001C63.2001 63.0001 63.0001 60.1001 61.3001 58.5001C60.5001 57.8001 59.5001 57.4001 58.4001 57.4001C57.2001 57.4001 56.0001 57.9001 55.2001 58.9001C54.4001 59.8001 54.0001 60.9001 54.1001 62.1001C54.0001 63.3001 54.6001 64.4001 55.5001 65.2001Z" fill="#FBCD18"/>
<path d="M48.6004 74.8C47.9004 74.4 47.2004 74.2 46.4004 74.2C44.9004 74.2 43.4004 75 42.6004 76.4C41.4004 78.5 42.1004 81.3 44.2004 82.5C44.9004 82.9 45.6004 83.1 46.4004 83.1C47.9004 83.1 49.4004 82.3 50.2004 80.9C50.8004 79.9 50.9004 78.7 50.6004 77.5C50.3004 76.4 49.6004 75.4 48.6004 74.8Z" fill="#FBCD18"/>
<path d="M36.9 102C37.3 102.1 37.8 102.2 38.3 102.2C40.2 102.2 41.8 101 42.5 99.1C42.8 98 42.7 96.8 42.3 95.7C41.8 94.7 40.9 93.9 39.8 93.5C39.4 93.4 38.9 93.3 38.4 93.3C36.5 93.3 34.9 94.5 34.2 96.4C33.3 98.7 34.6 101.2 36.9 102Z" fill="#FBCD18"/>
<path d="M33.5002 122.5C33.6002 122.5 33.8002 122.5 33.9002 122.5C36.1002 122.5 38.0002 120.8 38.2002 118.5C38.4002 116.1 36.7002 113.8 34.3002 113.6C34.2002 113.6 34.0002 113.6 33.9002 113.6C31.7002 113.6 29.8002 115.3 29.6002 117.6C29.4002 120.1 31.2002 122.2 33.5002 122.5Z" fill="#FBCD18"/>
<path d="M34.4001 143.3C36.8001 143.1 38.5 140.8 38.3 138.4C38.1 136.1 36.2001 134.4 34.0001 134.4C33.9001 134.4 33.7 134.4 33.6 134.4C31.2 134.6 29.5001 136.9 29.7001 139.3C29.9001 141.6 31.8001 143.3 34.0001 143.3C34.1001 143.4 34.3001 143.4 34.4001 143.3Z" fill="#FBCD18"/>
<path d="M42.2999 157.9C41.6999 156.1 39.9999 154.8 38.0999 154.8C37.6999 154.8 37.1999 154.8 36.6999 155C34.3999 155.7 33.1999 158.3 33.8999 160.6C34.4999 162.4 36.1999 163.7 38.0999 163.7C38.4999 163.7 38.9999 163.7 39.4999 163.5C40.5999 163.2 41.4999 162.4 41.9999 161.3C42.5999 160.2 42.6999 159 42.2999 157.9Z" fill="#FBCD18"/>
<path d="M46.4004 173.8C45.6004 173.8 44.9004 174 44.2004 174.4C42.1004 175.6 41.4004 178.4 42.6004 180.5C43.4004 181.9 44.8004 182.7 46.4004 182.7C47.2004 182.7 47.9004 182.5 48.6004 182.1C49.6004 181.5 50.3004 180.6 50.6004 179.4C50.9004 178.3 50.7004 177 50.2004 176C49.4004 174.7 48.0004 173.8 46.4004 173.8Z" fill="#FBCD18"/>
<path d="M58.3 190.7C57.2 190.7 56.2 191.1 55.4 191.8C54.5 192.6 54 193.7 54 194.9C53.9 196.1 54.3 197.2 55.1 198.1C55.9 199 57.1 199.6 58.3 199.6C59.4 199.6 60.4 199.2 61.2 198.5C63 196.9 63.1 194 61.5 192.2C60.8 191.2 59.6 190.7 58.3 190.7Z" fill="#FBCD18"/>
<path d="M76.0001 205.4C75.3001 204.9 74.4001 204.6 73.4001 204.6C72.0001 204.6 70.7001 205.3 69.9001 206.4C68.5001 208.4 68.9001 211.2 70.9001 212.7C71.6001 213.2 72.5001 213.5 73.5001 213.5C74.9001 213.5 76.2001 212.8 77.0001 211.7C77.7001 210.8 78.0001 209.6 77.8001 208.4C77.5001 207.2 76.9001 206.1 76.0001 205.4Z" fill="#FBCD18"/>
<path d="M92.7003 215.4C92.1003 215.2 91.5003 215 90.9003 215C89.2003 215 87.6003 216 86.9003 217.6C86.4003 218.7 86.4003 219.9 86.8003 221C87.2003 222.1 88.0003 223 89.1003 223.5C89.7003 223.7 90.3003 223.9 90.9003 223.9C92.6003 223.9 94.2003 222.9 94.9003 221.3C95.9003 219 94.9003 216.4 92.7003 215.4Z" fill="#FBCD18"/>
<path d="M111.1 221.6C110.8 221.6 110.5 221.5 110.2 221.5C108.2 221.5 106.4 223 105.9 225C105.4 227.4 106.9 229.8 109.2 230.3C109.5 230.3 109.8 230.4 110.1 230.4C112.1 230.4 113.9 228.9 114.4 226.9C114.6 225.7 114.4 224.5 113.8 223.5C113.3 222.5 112.3 221.8 111.1 221.6Z" fill="#FBCD18"/>
<path d="M130.4 223.7C128 223.7 126.1 225.7 126.1 228.2C126.1 230.7 128 232.7 130.4 232.7C132.8 232.7 134.7 230.7 134.7 228.2C134.7 225.7 132.8 223.7 130.4 223.7Z" fill="#FBCD18"/>
<path d="M150.6 221.5C150.3 221.5 150 221.5 149.7 221.6C148.5 221.8 147.6 222.5 146.9 223.5C146.2 224.5 146 225.7 146.3 226.9C146.7 228.9 148.5 230.4 150.6 230.4C150.9 230.4 151.2 230.4 151.5 230.3C152.7 230.1 153.6 229.4 154.3 228.4C154.9 227.4 155.2 226.2 154.9 225.1C154.4 223 152.6 221.5 150.6 221.5Z" fill="#FBCD18"/>
<path d="M169.9 215C169.3 215 168.7 215.1 168.1 215.4C165.9 216.4 164.9 219 165.9 221.3C166.6 222.9 168.2 223.9 169.9 223.9C170.5 223.9 171.1 223.8 171.7 223.5C172.8 223 173.6 222.1 174 221C174.4 219.9 174.4 218.7 173.9 217.6C173.1 216.1 171.6 215 169.9 215Z" fill="#FBCD18"/>
<path d="M187.4 204.6C186.5 204.6 185.6 204.9 184.8 205.4C183.9 206.1 183.3 207.1 183.1 208.3C182.9 209.5 183.2 210.7 183.9 211.6C184.7 212.7 186 213.4 187.4 213.4C188.3 213.4 189.2 213.1 190 212.6C191.9 211.2 192.4 208.3 191 206.3C190.1 205.3 188.8 204.6 187.4 204.6Z" fill="#FBCD18"/>
<path d="M205.4 191.8C204.6 191.1 203.6 190.7 202.5 190.7C201.3 190.7 200.1 191.2 199.3 192.2C197.7 194 197.9 196.9 199.6 198.5C200.4 199.2 201.4 199.6 202.5 199.6C203.7 199.6 204.9 199.1 205.7 198.1C207.3 196.3 207.2 193.5 205.4 191.8Z" fill="#FBCD18"/>
<path d="M216.6 174.4C215.9 174 215.2 173.8 214.4 173.8C212.9 173.8 211.4 174.6 210.6 176C209.4 178.1 210.1 180.9 212.2 182.1C212.9 182.5 213.6 182.7 214.4 182.7C215.9 182.7 217.4 181.9 218.2 180.5C219.3 178.4 218.7 175.7 216.6 174.4Z" fill="#FBCD18"/>
<path d="M224 155C223.6 154.9 223.1 154.8 222.6 154.8C220.7 154.8 219 156 218.4 157.9C218.1 159 218.1 160.2 218.6 161.3C219.1 162.3 220 163.1 221.1 163.5C221.5 163.6 222 163.7 222.5 163.7C224.4 163.7 226.1 162.5 226.7 160.6C227.1 159.5 227 158.3 226.5 157.2C226 156.2 225.1 155.4 224 155Z" fill="#FBCD18"/>
<path d="M227.3 134.4C227.2 134.4 227 134.4 226.8 134.4C224.6 134.4 222.7 136.1 222.5 138.4C222.3 140.8 224 143.1 226.4 143.3C226.5 143.3 226.7 143.3 226.9 143.3C229.1 143.3 231 141.6 231.2 139.3C231.4 136.9 229.7 134.7 227.3 134.4Z" fill="#FBCD18"/>
<path d="M226.4 113.7C225.2 113.8 224.2 114.4 223.5 115.3C222.8 116.2 222.4 117.4 222.5 118.6C222.7 120.9 224.6 122.6 226.8 122.6C226.9 122.6 227.1 122.6 227.2 122.6C228.4 122.5 229.4 121.9 230.1 121C230.8 120.1 231.2 118.9 231.1 117.7C230.9 115.4 229 113.7 226.8 113.7C226.7 113.6 226.5 113.6 226.4 113.7Z" fill="#FBCD18"/>
<path d="M218.5 99.1C219.1 100.9 220.7 102.2 222.7 102.2C223.1 102.2 223.6 102.2 224.1 102C225.2 101.7 226.1 100.9 226.6 99.8C227.1 98.8 227.2 97.5 226.8 96.4C226.2 94.6 224.6 93.3 222.6 93.3C222.2 93.3 221.7 93.3 221.2 93.5C220.1 93.8 219.2 94.6 218.6 95.7C218.2 96.7 218.1 98 218.5 99.1Z" fill="#FBCD18"/>
<path d="M214.4 83.2C215.2 83.2 215.9 83 216.6 82.6C218.7 81.4 219.4 78.6 218.2 76.5C217.4 75.1 216 74.3 214.4 74.3C213.6 74.3 212.9 74.5 212.2 74.9C210.1 76.1 209.4 78.9 210.6 81C211.4 82.3 212.8 83.2 214.4 83.2Z" fill="#FBCD18"/>
<path d="M202.5 66.3001C203.6 66.3001 204.6 65.9001 205.4 65.2001C207.2 63.6001 207.3 60.7001 205.7 58.9001C204.9 58.0001 203.7 57.4001 202.5 57.4001C201.4 57.4001 200.4 57.8001 199.6 58.5001C197.8 60.1001 197.7 63.0001 199.3 64.8001C200.1 65.8001 201.2 66.3001 202.5 66.3001Z" fill="#FBCD18"/>
<path d="M184.9 51.5001C185.6 52.0001 186.5 52.3001 187.5 52.3001C188.9 52.3001 190.2 51.6001 191 50.5001C192.4 48.5001 192 45.7001 190 44.2001C189.3 43.7001 188.4 43.4001 187.4 43.4001C186 43.4001 184.7 44.1001 183.9 45.2001C183.2 46.1001 182.9 47.3001 183.1 48.5001C183.3 49.8001 183.9 50.9001 184.9 51.5001Z" fill="#FBCD18"/>
<path d="M168.1 41.6001C168.7 41.8001 169.3 42.0001 169.9 42.0001C171.6 42.0001 173.2 41.0001 173.9 39.4001C174.4 38.3001 174.4 37.1001 174 36.0001C173.6 34.9001 172.8 34.0001 171.7 33.5001C171.1 33.3001 170.5 33.1001 169.9 33.1001C168.2 33.1001 166.6 34.1001 165.9 35.7001C164.9 38.0001 165.9 40.6001 168.1 41.6001Z" fill="#FBCD18"/>
<path d="M149.7 35.4001C150 35.4001 150.3 35.5001 150.6 35.5001C152.6 35.5001 154.4 34.0001 154.9 32.0001C155.1 30.8001 154.9 29.6001 154.3 28.6001C153.7 27.6001 152.7 26.9001 151.5 26.7001C151.2 26.7001 150.9 26.6001 150.6 26.6001C148.6 26.6001 146.8 28.1001 146.3 30.1001C146.1 31.3001 146.3 32.5001 146.9 33.5001C147.6 34.5001 148.5 35.2001 149.7 35.4001Z" fill="#FBCD18"/>
<path d="M152.205 49.4851L142.329 60.6905L157.903 102.094L161.701 100.004L147.647 62.5898L157.713 51.0045L160.182 52.0491L150.591 63.1595L163.885 98.5801C164.645 98.0103 165.088 97.6621 165.215 97.5355L168.348 94.8766C170.248 93.3572 171.45 92.281 171.957 91.6479C173.603 98.8649 176.135 105.322 179.554 111.02C177.718 110.893 176.388 110.83 175.565 110.83C169.551 110.83 165.151 111.78 162.366 113.679L179.554 160.305L193.798 171.32H145.843L158.947 160.305L148.407 132.576C141.443 139.603 136.093 146.282 132.358 152.613L130.174 152.043C133.909 145.839 139.48 138.907 146.887 131.247L147.647 130.297L145.843 126.119C138.309 132.386 132.073 139.667 127.135 147.96L125.426 145.206C122.134 139.952 117.924 133.969 112.796 127.258L111.846 126.119C106.972 136.944 104.534 145.744 104.534 152.518C104.534 156.506 105.199 159.893 106.529 162.679C107.921 165.401 111.213 169.991 116.405 176.448C116.848 177.018 117.544 177.904 118.494 179.107H67.2147L65.3154 176.543H113.651L112.036 174.549C107.858 169.484 105.104 165.559 103.775 162.774C102.509 159.925 101.875 156.601 101.875 152.803C101.875 146.346 104.503 136.723 109.757 123.935L105.579 119.566C104.756 121.592 103.711 124.568 102.445 128.493L99.3115 138.179C97.6022 143.37 96.7476 147.675 96.7476 151.094C96.7476 154.639 97.349 157.583 98.5519 159.925C99.7547 162.267 102.287 165.464 106.149 169.516C106.529 169.896 107.098 170.497 107.858 171.32H60.3774C69.4304 166.636 76.5842 160.337 81.8387 152.423C87.1565 144.51 92.411 132.291 97.6022 115.768L97.9821 114.439C94.6268 111.59 89.7838 109.849 83.453 109.216C86.9349 104.025 89.6255 98.6117 91.5247 92.9774C92.411 93.8003 92.9491 94.3068 93.1391 94.4967L97.4123 98.4851C98.8684 99.8779 100.609 101.302 102.635 102.758L104.344 98.5801L103.205 97.6305C100.04 94.8449 97.3807 92.5975 95.2282 90.8882L94.3736 90.2235L95.8929 88.1343C99.2482 90.3501 102.477 92.914 105.579 95.8262L118.494 60.3107L108.428 49.4851H152.205ZM128.75 79.9677L118.304 107.506C118.874 108.139 119.19 108.519 119.253 108.646L123.147 113.014C125.236 115.293 127.895 118.838 131.124 123.65L132.073 125.074C134.795 121.656 138.024 118.269 141.759 114.913L128.75 79.9677ZM124.476 68.9522L109.377 108.836C114.189 113.774 118.335 118.649 121.817 123.46L126.186 129.537C126.249 129.601 126.565 130.012 127.135 130.772C127.705 130.202 128.021 129.854 128.085 129.727L129.414 128.113C129.604 127.86 129.952 127.448 130.459 126.879C126.027 120.041 120.868 113.869 114.98 108.361L127.135 76.2642L124.476 68.9522ZM180.313 96.206C181.706 101.904 185.188 109.722 190.759 119.661C189.366 119.472 188.575 119.377 188.385 119.377L180.693 118.712C177.211 118.395 174.679 118.237 173.096 118.237C172.843 118.237 172.21 118.269 171.197 118.332L187.056 160.4L208.232 179.107H153.25L151.445 176.543H201.87L184.777 161.444L167.874 116.718C170.026 116.148 172.495 115.863 175.281 115.863C178.699 115.863 182.498 116.148 186.676 116.718L185.536 114.629C181.485 107.158 178.762 100.416 177.37 94.4018L180.313 96.206Z" fill="black"/>
</svg>
