<svg version="1.1" id="Layer_1" xmlns="http://www.w3.org/2000/svg" xmlns:xlink="http://www.w3.org/1999/xlink" x="0px" y="0px"
	 width="100%" viewBox="0 0 256 256" enable-background="new 0 0 256 256" xml:space="preserve">
<path fill="#EEF4E8" opacity="1.000000" stroke="none" 
	d="
M175.000000,257.000000 
	C116.666672,257.000000 58.833340,257.000000 1.000008,257.000000 
	C1.000005,171.666672 1.000005,86.333351 1.000003,1.000019 
	C86.333321,1.000013 171.666641,1.000013 257.000000,1.000006 
	C257.000000,86.333313 257.000000,171.666626 257.000000,256.999969 
	C229.833328,257.000000 202.666672,257.000000 175.000000,257.000000 
M90.209785,71.969193 
	C84.601181,73.436516 78.980606,74.859985 73.387901,76.385597 
	C69.214912,77.523941 66.580421,81.212013 67.205391,84.831299 
	C67.959404,89.197899 71.644142,91.922256 76.367180,91.168411 
	C79.620697,90.649124 82.784225,89.566017 86.742088,88.824669 
	C91.840759,86.929596 96.939423,85.034523 102.788712,83.120239 
	C108.552612,80.173019 114.316505,77.225792 120.780365,74.118553 
	C127.220123,69.832687 133.659882,65.546829 140.820297,61.126019 
	C144.065704,63.904282 147.311096,66.682541 150.836197,69.700241 
	C155.560928,57.055862 160.279373,44.428314 165.348709,30.861708 
	C159.251450,32.039486 154.129395,33.028896 148.168564,33.920017 
	C140.387482,35.207535 132.606415,36.495052 123.919334,37.932484 
	C126.927032,41.872093 129.368103,45.069515 131.938919,48.436878 
	C129.639908,50.327717 127.746391,51.885063 125.170975,53.709682 
	C119.021461,57.417976 112.871956,61.126270 106.047386,65.042046 
	C101.025002,67.334335 96.002625,69.626625 90.209785,71.969193 
M80.707474,151.357452 
	C83.829735,151.468018 86.973640,151.857834 90.068756,151.618027 
	C93.878799,151.322800 96.957085,149.285629 97.074753,145.222855 
	C97.308151,137.164108 97.017441,129.090179 97.072235,120.290009 
	C95.046089,118.256973 93.019943,116.223938 90.097679,113.982925 
	C87.455261,113.963882 84.793243,113.732368 82.174858,113.973885 
	C77.876503,114.370346 75.025833,116.648727 74.986351,121.217957 
	C74.920753,128.809158 75.101181,136.402481 75.006119,144.723221 
	C76.680443,146.790054 78.354767,148.856903 80.707474,151.357452 
M135.041656,110.924156 
	C135.097473,117.281792 135.153290,123.639435 135.038345,130.917511 
	C135.021378,133.369904 134.721710,135.861359 135.053909,138.265503 
	C135.547241,141.835999 136.487732,145.344711 137.509567,149.541458 
	C141.461380,150.281998 145.401093,151.542892 149.367981,151.635117 
	C154.663773,151.758240 157.789810,148.587799 157.871063,143.292084 
	C158.020920,133.525635 157.782227,123.753204 157.880219,113.063766 
	C157.812531,106.374725 157.744843,99.685684 157.839310,92.258949 
	C156.430344,85.586662 154.949158,84.227402 148.123459,83.967255 
	C147.292160,83.947510 146.460876,83.912285 145.629547,83.910423 
	C137.312897,83.891830 134.987808,86.185692 135.001602,94.546898 
	C135.010101,99.698418 135.136414,104.849754 135.041656,110.924156 
M105.042381,128.917526 
	C105.028152,133.349609 104.783020,137.798035 105.094925,142.207031 
	C105.256294,144.488174 106.405495,146.699432 107.380669,149.614166 
	C112.586151,153.126984 118.314369,152.669937 123.550491,150.515259 
	C128.633011,148.423828 127.748459,143.149658 127.755280,138.687027 
	C127.770271,128.876099 127.861565,119.063446 127.691093,109.255508 
	C127.653137,107.071976 126.663498,104.904984 125.952438,102.070778 
	C123.966843,101.101852 121.981239,100.132935 119.106941,98.990204 
	C117.611183,98.971298 116.115189,98.925217 114.619705,98.938126 
	C107.579620,98.998871 105.017914,101.515808 105.016762,108.560432 
	C105.015709,115.038620 105.144997,121.516823 105.042381,128.917526 
M50.961372,214.850708 
	C51.209385,224.294968 51.209385,224.294968 57.913857,226.682510 
	C58.947853,226.818863 59.981850,226.955215 61.762138,227.528091 
	C63.184338,227.655212 64.606537,227.782318 66.558090,228.138077 
	C67.692596,228.056519 68.827095,227.974945 70.767601,228.015900 
	C84.278343,226.284943 91.245293,217.405289 87.849304,206.129379 
	C85.875870,199.576859 80.497154,196.607956 74.775963,194.019089 
	C70.860970,192.247528 66.756248,190.728256 63.187550,188.403549 
	C59.316593,185.881927 58.304169,181.903290 59.874470,177.396194 
	C61.382103,173.068985 64.556747,171.146118 68.940109,170.904007 
	C75.270691,170.554306 78.970680,173.163147 81.358360,179.465973 
	C81.864555,180.802216 82.700996,182.013321 84.021492,184.461716 
	C86.525520,171.355927 83.917831,168.083145 72.444862,167.839096 
	C70.783203,167.803772 69.110764,167.772827 67.457893,167.912506 
	C59.417873,168.591980 53.266792,173.494919 51.810566,180.310043 
	C50.218628,187.760315 53.243275,193.591751 61.064640,197.733414 
	C63.549252,199.049103 66.344543,199.782410 68.814438,201.120453 
	C71.706543,202.687225 74.667145,204.317993 77.114441,206.470764 
	C80.781212,209.696274 81.048409,214.049637 79.428688,218.408081 
	C77.882927,222.567474 74.536148,224.524170 70.211990,224.952988 
	C62.385197,225.729202 57.816456,222.134445 53.831871,211.412918 
	C52.987118,210.915482 52.142365,210.418045 51.297615,209.920593 
	C51.227375,211.270142 51.157139,212.619675 50.961372,214.850708 
M165.048767,116.500000 
	C165.050690,125.156563 164.973129,133.814117 165.081406,142.469360 
	C165.158615,148.641876 168.143433,151.532196 174.344971,151.748260 
	C176.173569,151.811981 178.016922,151.864822 179.835907,151.712448 
	C184.941483,151.284775 187.879089,148.521912 187.907990,143.352203 
	C188.031784,121.212196 188.034515,99.070671 187.905807,76.930725 
	C187.875748,71.760193 184.849503,69.105965 179.699966,68.898949 
	C178.037796,68.832123 176.370712,68.860580 174.706299,68.880600 
	C167.693893,68.964920 165.080124,71.527977 165.055817,78.543205 
	C165.013123,90.861992 165.046997,103.181053 165.048767,116.500000 
M185.956253,170.427109 
	C172.870132,167.626129 159.736557,169.649384 146.513153,169.563553 
	C146.911346,170.792053 147.480301,171.735367 147.975540,171.698151 
	C153.976715,171.247116 154.016739,175.041733 153.966812,179.426682 
	C153.819046,192.404739 153.832535,205.386337 153.964355,218.364716 
	C154.000565,221.931610 153.201309,224.181351 149.125290,224.212540 
	C148.166351,224.219879 147.213943,225.079544 146.258530,225.547104 
	C146.395737,226.043518 146.532944,226.539932 146.670166,227.036331 
	C159.652069,226.513107 172.772354,228.715424 185.589478,225.123520 
	C198.997406,221.366058 205.735870,209.797424 204.478470,194.458572 
	C203.513947,182.692780 198.512787,174.224945 185.956253,170.427109 
M113.415329,191.500244 
	C113.412552,200.328888 113.319931,209.158813 113.447014,217.985580 
	C113.505638,222.057251 112.148247,224.289322 107.726959,224.177261 
	C106.486748,224.145813 105.223442,225.024796 103.970734,225.486160 
	C104.091660,225.795715 104.212578,226.105255 104.333496,226.414795 
	C113.172340,226.414795 122.011185,226.414795 130.850021,226.414795 
	C130.907074,225.976135 130.964127,225.537491 131.021179,225.098831 
	C129.901123,224.776321 128.765778,224.134232 127.663681,224.186935 
	C123.025566,224.408737 121.624191,222.167252 121.773155,217.783020 
	C122.021904,210.462097 121.838768,203.126526 121.838257,195.797119 
	C121.837723,188.023239 121.838150,180.249359 121.838150,171.592300 
	C126.390388,172.144470 130.917145,171.542297 133.955566,173.388992 
	C136.937332,175.201202 138.405960,179.503021 141.025391,183.444717 
	C141.025391,178.430603 141.025391,173.923416 141.025391,169.299469 
	C125.260429,169.299469 109.517334,169.299469 94.071777,169.299469 
	C94.071777,174.072647 94.071777,178.507843 94.071777,182.943039 
	C100.723907,171.499390 102.421341,170.536316 113.415337,172.730087 
	C113.415337,178.580490 113.415337,184.540436 113.415329,191.500244 
z"/>
<path fill="#79D63A" opacity="1.000000" stroke="none" 
	d="
M165.048782,116.000000 
	C165.046997,103.181053 165.013123,90.861992 165.055817,78.543205 
	C165.080124,71.527977 167.693893,68.964920 174.706299,68.880600 
	C176.370712,68.860580 178.037796,68.832123 179.699966,68.898949 
	C184.849503,69.105965 187.875748,71.760193 187.905807,76.930725 
	C188.034515,99.070671 188.031784,121.212196 187.907990,143.352203 
	C187.879089,148.521912 184.941483,151.284775 179.835907,151.712448 
	C178.016922,151.864822 176.173569,151.811981 174.344971,151.748260 
	C168.143433,151.532196 165.158615,148.641876 165.081406,142.469360 
	C164.973129,133.814117 165.050690,125.156563 165.048782,116.000000 
z"/>
<path fill="#2D3D1D" opacity="1.000000" stroke="none" 
	d="
M186.340897,170.552460 
	C198.512787,174.224945 203.513947,182.692780 204.478470,194.458572 
	C205.735870,209.797424 198.997406,221.366058 185.589478,225.123520 
	C172.772354,228.715424 159.652069,226.513107 146.670166,227.036331 
	C146.532944,226.539932 146.395737,226.043518 146.258530,225.547104 
	C147.213943,225.079544 148.166351,224.219879 149.125290,224.212540 
	C153.201309,224.181351 154.000565,221.931610 153.964355,218.364716 
	C153.832535,205.386337 153.819046,192.404739 153.966812,179.426682 
	C154.016739,175.041733 153.976715,171.247116 147.975540,171.698151 
	C147.480301,171.735367 146.911346,170.792053 146.513153,169.563553 
	C159.736557,169.649384 172.870132,167.626129 186.340897,170.552460 
M173.267120,172.011993 
	C171.104507,172.021393 168.940247,171.980606 166.779709,172.052460 
	C163.850937,172.149841 162.128647,173.471924 162.138702,176.649979 
	C162.182434,190.458878 162.178467,204.267899 162.200302,218.076874 
	C162.205597,221.426376 163.891647,223.544937 167.205414,223.794281 
	C179.753235,224.738419 192.096512,221.559296 194.301804,205.548599 
	C194.842331,201.624283 195.153717,197.602158 194.959778,193.655014 
	C194.313507,180.502701 187.398438,173.450165 173.267120,172.011993 
z"/>
<path fill="#2F3F1F" opacity="1.000000" stroke="none" 
	d="
M57.521034,226.166534 
	C51.209385,224.294968 51.209385,224.294968 51.255737,214.235443 
	C52.295773,213.084244 53.041447,212.548294 53.787117,212.012360 
	C57.816456,222.134445 62.385197,225.729202 70.211990,224.952988 
	C74.536148,224.524170 77.882927,222.567474 79.428688,218.408081 
	C81.048409,214.049637 80.781212,209.696274 77.114441,206.470764 
	C74.667145,204.317993 71.706543,202.687225 68.814438,201.120453 
	C66.344543,199.782410 63.549252,199.049103 61.064640,197.733414 
	C53.243275,193.591751 50.218628,187.760315 51.810566,180.310043 
	C53.266792,173.494919 59.417873,168.591980 67.457893,167.912506 
	C69.110764,167.772827 70.783203,167.803772 72.444862,167.839096 
	C83.917831,168.083145 86.525520,171.355927 84.021492,184.461716 
	C82.700996,182.013321 81.864555,180.802216 81.358360,179.465973 
	C78.970680,173.163147 75.270691,170.554306 68.940109,170.904007 
	C64.556747,171.146118 61.382103,173.068985 59.874470,177.396194 
	C58.304169,181.903290 59.316593,185.881927 63.187550,188.403549 
	C66.756248,190.728256 70.860970,192.247528 74.775963,194.019089 
	C80.497154,196.607956 85.875870,199.576859 87.849304,206.129379 
	C91.245293,217.405289 84.278343,226.284943 70.142273,227.723892 
	C68.354210,227.591064 67.191475,227.750259 66.028740,227.909439 
	C64.606537,227.782318 63.184338,227.655212 61.202835,227.049988 
	C59.602699,226.436783 58.561867,226.301666 57.521034,226.166534 
z"/>
<path fill="#334323" opacity="1.000000" stroke="none" 
	d="
M113.415329,191.000320 
	C113.415337,184.540436 113.415337,178.580490 113.415337,172.730087 
	C102.421341,170.536316 100.723907,171.499390 94.071777,182.943039 
	C94.071777,178.507843 94.071777,174.072647 94.071777,169.299469 
	C109.517334,169.299469 125.260429,169.299469 141.025391,169.299469 
	C141.025391,173.923416 141.025391,178.430603 141.025391,183.444717 
	C138.405960,179.503021 136.937332,175.201202 133.955566,173.388992 
	C130.917145,171.542297 126.390388,172.144470 121.838150,171.592300 
	C121.838150,180.249359 121.837723,188.023239 121.838257,195.797119 
	C121.838768,203.126526 122.021904,210.462097 121.773155,217.783020 
	C121.624191,222.167252 123.025566,224.408737 127.663681,224.186935 
	C128.765778,224.134232 129.901123,224.776321 131.021179,225.098831 
	C130.964127,225.537491 130.907074,225.976135 130.850021,226.414795 
	C122.011185,226.414795 113.172340,226.414795 104.333496,226.414795 
	C104.212578,226.105255 104.091660,225.795715 103.970734,225.486160 
	C105.223442,225.024796 106.486748,224.145813 107.726959,224.177261 
	C112.148247,224.289322 113.505638,222.057251 113.447014,217.985580 
	C113.319931,209.158813 113.412552,200.328888 113.415329,191.000320 
z"/>
<path fill="#73AB3A" opacity="1.000000" stroke="none" 
	d="
M125.852867,53.442406 
	C127.746391,51.885063 129.639908,50.327717 131.938919,48.436878 
	C129.368103,45.069515 126.927032,41.872093 123.919334,37.932484 
	C132.606415,36.495052 140.387482,35.207535 148.730804,34.293312 
	C148.919693,36.656925 148.818863,38.748409 148.124283,40.619495 
	C145.555542,47.539387 142.790726,54.386497 140.099609,61.260967 
	C133.659882,65.546829 127.220123,69.832687 120.408112,73.770554 
	C120.921745,70.491211 121.833427,67.567352 122.686996,64.626633 
	C123.767014,60.905735 124.799744,57.171112 125.852867,53.442406 
z"/>
<path fill="#77CC39" opacity="1.000000" stroke="none" 
	d="
M157.677155,92.996643 
	C157.744843,99.685684 157.812531,106.374725 157.446899,113.541008 
	C155.950409,115.139389 154.522736,116.084518 153.882645,117.409981 
	C149.447571,126.593651 145.243378,135.889023 140.785278,145.061157 
	C140.058868,146.555679 138.442764,147.617767 137.237885,148.879730 
	C136.487732,145.344711 135.547241,141.835999 135.053909,138.265503 
	C134.721710,135.861359 135.021378,133.369904 135.475922,130.444580 
	C137.071411,128.720352 138.598190,127.652733 139.327576,126.188042 
	C144.200119,116.403427 148.825790,106.495445 153.740494,96.732674 
	C154.505966,95.212097 156.338211,94.228539 157.677155,92.996643 
z"/>
<path fill="#76B83D" opacity="1.000000" stroke="none" 
	d="
M140.459961,61.193489 
	C142.790726,54.386497 145.555542,47.539387 148.124283,40.619495 
	C148.818863,38.748409 148.919693,36.656925 149.150192,34.342453 
	C154.129395,33.028896 159.251450,32.039486 165.348709,30.861708 
	C160.279373,44.428314 155.560928,57.055862 150.836197,69.700241 
	C147.311096,66.682541 144.065704,63.904282 140.459961,61.193489 
z"/>
<path fill="#74B439" opacity="1.000000" stroke="none" 
	d="
M107.108398,148.942261 
	C106.405495,146.699432 105.256294,144.488174 105.094925,142.207031 
	C104.783020,137.798035 105.028152,133.349609 105.478874,128.444214 
	C107.349220,126.491997 109.245567,125.246552 110.131607,123.491142 
	C112.975243,117.857430 115.544334,112.077156 118.009605,106.264465 
	C118.961304,104.020508 119.350288,101.537895 119.995644,99.164009 
	C121.981239,100.132935 123.966843,101.101852 125.997101,102.883636 
	C126.028954,104.689941 125.968033,105.685501 126.011505,106.676476 
	C126.222939,111.496773 125.424881,115.722382 122.705841,120.162010 
	C118.594658,126.874733 116.071442,134.541672 112.539307,141.636780 
	C111.208244,144.310516 108.946091,146.520737 107.108398,148.942261 
z"/>
<path fill="#7AC040" opacity="1.000000" stroke="none" 
	d="
M107.244530,149.278214 
	C108.946091,146.520737 111.208244,144.310516 112.539307,141.636780 
	C116.071442,134.541672 118.594658,126.874733 122.705841,120.162010 
	C125.424881,115.722382 126.222939,111.496773 126.011505,106.676476 
	C125.968033,105.685501 126.028954,104.689941 126.076904,103.213440 
	C126.663498,104.904984 127.653137,107.071976 127.691093,109.255508 
	C127.861565,119.063446 127.770271,128.876099 127.755280,138.687027 
	C127.748459,143.149658 128.633011,148.423828 123.550491,150.515259 
	C118.314369,152.669937 112.586151,153.126984 107.244530,149.278214 
z"/>
<path fill="#7CD53E" opacity="1.000000" stroke="none" 
	d="
M137.373718,149.210602 
	C138.442764,147.617767 140.058868,146.555679 140.785278,145.061157 
	C145.243378,135.889023 149.447571,126.593651 153.882645,117.409981 
	C154.522736,116.084518 155.950409,115.139389 157.359497,114.000763 
	C157.782227,123.753204 158.020920,133.525635 157.871063,143.292084 
	C157.789810,148.587799 154.663773,151.758240 149.367981,151.635117 
	C145.401093,151.542892 141.461380,150.281998 137.373718,149.210602 
z"/>
<path fill="#75C537" opacity="1.000000" stroke="none" 
	d="
M157.758240,92.627792 
	C156.338211,94.228539 154.505966,95.212097 153.740494,96.732674 
	C148.825790,106.495445 144.200119,116.403427 139.327576,126.188042 
	C138.598190,127.652733 137.071411,128.720352 135.561310,129.984375 
	C135.153290,123.639435 135.097473,117.281792 135.483154,110.452538 
	C136.671143,109.701340 137.868225,109.623276 138.096817,109.112106 
	C141.803833,100.822952 145.388000,92.478867 148.999954,84.147202 
	C154.949158,84.227402 156.430344,85.586662 157.758240,92.627792 
z"/>
<path fill="#71A239" opacity="1.000000" stroke="none" 
	d="
M90.993805,114.190895 
	C93.019943,116.223938 95.046089,118.256973 96.742966,120.943146 
	C94.959778,126.030273 93.660126,130.523163 91.997841,134.877594 
	C90.884727,137.793427 88.857407,140.390884 87.955025,143.349167 
	C86.679184,147.531815 84.868340,150.684692 80.029091,150.923737 
	C78.354767,148.856903 76.680443,146.790054 75.451599,144.349884 
	C76.765999,143.576065 78.132240,143.399780 78.429016,142.741394 
	C82.701683,133.262604 86.830475,123.718971 90.993805,114.190895 
z"/>
<path fill="#71A039" opacity="1.000000" stroke="none" 
	d="
M125.511917,53.576046 
	C124.799744,57.171112 123.767014,60.905735 122.686996,64.626633 
	C121.833427,67.567352 120.921745,70.491211 120.058136,73.850563 
	C114.316505,77.225792 108.552612,80.173019 102.409828,82.734528 
	C103.598145,78.415382 105.362854,74.544617 106.640121,70.519188 
	C107.188881,68.789734 106.725807,66.739212 106.722443,64.834564 
	C112.871956,61.126270 119.021461,57.417976 125.511917,53.576046 
z"/>
<path fill="#6E8B3A" opacity="1.000000" stroke="none" 
	d="
M85.987976,88.734894 
	C82.784225,89.566017 79.620697,90.649124 76.367180,91.168411 
	C71.644142,91.922256 67.959404,89.197899 67.205391,84.831299 
	C66.580421,81.212013 69.214912,77.523941 73.387901,76.385597 
	C78.980606,74.859985 84.601181,73.436516 90.599174,72.342926 
	C90.235329,74.998055 89.449295,77.269264 88.736954,79.563347 
	C87.790550,82.611191 86.901611,85.676880 85.987976,88.734894 
z"/>
<path fill="#6E9A36" opacity="1.000000" stroke="none" 
	d="
M90.545746,114.086914 
	C86.830475,123.718971 82.701683,133.262604 78.429016,142.741394 
	C78.132240,143.399780 76.765999,143.576065 75.537537,143.985733 
	C75.101181,136.402481 74.920753,128.809158 74.986351,121.217957 
	C75.025833,116.648727 77.876503,114.370346 82.174858,113.973885 
	C84.793243,113.732368 87.455261,113.963882 90.545746,114.086914 
z"/>
<path fill="#70973A" opacity="1.000000" stroke="none" 
	d="
M86.365036,88.779785 
	C86.901611,85.676880 87.790550,82.611191 88.736954,79.563347 
	C89.449295,77.269264 90.235329,74.998055 90.984406,72.317787 
	C96.002625,69.626625 101.025002,67.334335 106.384918,64.938309 
	C106.725807,66.739212 107.188881,68.789734 106.640121,70.519188 
	C105.362854,74.544617 103.598145,78.415382 102.034515,82.744133 
	C96.939423,85.034523 91.840759,86.929596 86.365036,88.779785 
z"/>
<path fill="#71AC37" opacity="1.000000" stroke="none" 
	d="
M119.551292,99.077103 
	C119.350288,101.537895 118.961304,104.020508 118.009605,106.264465 
	C115.544334,112.077156 112.975243,117.857430 110.131607,123.491142 
	C109.245567,125.246552 107.349220,126.491997 105.566116,127.982956 
	C105.144997,121.516823 105.015709,115.038620 105.016762,108.560432 
	C105.017914,101.515808 107.579620,98.998871 114.619705,98.938126 
	C116.115189,98.925217 117.611183,98.971298 119.551292,99.077103 
z"/>
<path fill="#74BE38" opacity="1.000000" stroke="none" 
	d="
M148.561707,84.057228 
	C145.388000,92.478867 141.803833,100.822952 138.096817,109.112106 
	C137.868225,109.623276 136.671143,109.701340 135.567261,109.991043 
	C135.136414,104.849754 135.010101,99.698418 135.001602,94.546898 
	C134.987808,86.185692 137.312897,83.891830 145.629547,83.910423 
	C146.460876,83.912285 147.292160,83.947510 148.561707,84.057228 
z"/>
<path fill="#76AC3F" opacity="1.000000" stroke="none" 
	d="
M80.368286,151.140594 
	C84.868340,150.684692 86.679184,147.531815 87.955025,143.349167 
	C88.857407,140.390884 90.884727,137.793427 91.997841,134.877594 
	C93.660126,130.523163 94.959778,126.030273 96.678520,121.309410 
	C97.017441,129.090179 97.308151,137.164108 97.074753,145.222855 
	C96.957085,149.285629 93.878799,151.322800 90.068756,151.618027 
	C86.973640,151.857834 83.829735,151.468018 80.368286,151.140594 
z"/>
<path fill="#364626" opacity="1.000000" stroke="none" 
	d="
M53.809494,211.712646 
	C53.041447,212.548294 52.295773,213.084244 51.318504,213.794708 
	C51.157139,212.619675 51.227375,211.270142 51.297615,209.920593 
	C52.142365,210.418045 52.987118,210.915482 53.809494,211.712646 
z"/>
<path fill="#364626" opacity="1.000000" stroke="none" 
	d="
M66.293411,228.023758 
	C67.191475,227.750259 68.354210,227.591064 69.739273,227.662628 
	C68.827095,227.974945 67.692596,228.056519 66.293411,228.023758 
z"/>
<path fill="#364626" opacity="1.000000" stroke="none" 
	d="
M57.717445,226.424530 
	C58.561867,226.301666 59.602699,226.436783 60.829689,226.831726 
	C59.981850,226.955215 58.947853,226.818863 57.717445,226.424530 
z"/>
<path fill="#EBF1E5" opacity="1.000000" stroke="none" 
	d="
M173.714294,172.018829 
	C187.398438,173.450165 194.313507,180.502701 194.959778,193.655014 
	C195.153717,197.602158 194.842331,201.624283 194.301804,205.548599 
	C192.096512,221.559296 179.753235,224.738419 167.205414,223.794281 
	C163.891647,223.544937 162.205597,221.426376 162.200302,218.076874 
	C162.178467,204.267899 162.182434,190.458878 162.138702,176.649979 
	C162.128647,173.471924 163.850937,172.149841 166.779709,172.052460 
	C168.940247,171.980606 171.104507,172.021393 173.714294,172.018829 
z"/>
</svg>