<?xml version="1.0" encoding="UTF-8"?>
<!DOCTYPE svg PUBLIC "-//W3C//DTD SVG 1.1//EN" "http://www.w3.org/Graphics/SVG/1.1/DTD/svg11.dtd">
<!-- Creator: CorelDRAW 2019 (64-Bit) -->
<svg xmlns="http://www.w3.org/2000/svg" xml:space="preserve" width="21.6746mm" height="21.6746mm" version="1.1" style="shape-rendering:geometricPrecision; text-rendering:geometricPrecision; image-rendering:optimizeQuality; fill-rule:evenodd; clip-rule:evenodd"
viewBox="0 0 2167.46 2167.46"
 xmlns:xlink="http://www.w3.org/1999/xlink">
 <defs>
  <style type="text/css">
   <![CDATA[
    .fil0 {fill:#FEFEFE}
    .fil2 {fill:#2F2859}
    .fil1 {fill:#1C1B17}
   ]]>
  </style>
 </defs>
 <g id="Layer_x0020_1">
  <metadata id="CorelCorpID_0Corel-Layer"/>
  <rect class="fil0" x="-8.21" y="-2.73" width="2178.4" height="2167.45"/>
  <ellipse class="fil1" cx="519.18" cy="1191.83" rx="417.47" ry="705.59"/>
  <ellipse class="fil0" cx="519.18" cy="1125.45" rx="365.69" ry="618.06"/>
  <ellipse class="fil2" cx="409.16" cy="1283.54" rx="189.46" ry="279.34"/>
  <circle class="fil0" cx="322.05" cy="1405.54" r="82.97"/>
  <path class="fil1" d="M210.16 476.76c91.04,-64.02 196.55,-100.62 309.02,-100.62 112.48,0 217.98,36.6 309.03,100.62 -80.78,-128.19 -189.48,-206.71 -309.03,-206.71 -119.55,0 -228.25,78.52 -309.02,206.71z"/>
  <ellipse class="fil1" cx="1648.28" cy="1191.83" rx="417.47" ry="705.59"/>
  <ellipse class="fil0" cx="1648.28" cy="1125.45" rx="365.69" ry="618.06"/>
  <ellipse class="fil2" cx="1538.26" cy="1283.54" rx="189.46" ry="279.34"/>
  <circle class="fil0" cx="1451.14" cy="1405.54" r="82.97"/>
  <path class="fil1" d="M1339.25 476.76c91.05,-64.02 196.55,-100.62 309.03,-100.62 112.47,0 217.98,36.6 309.02,100.62 -80.77,-128.19 -189.47,-206.71 -309.02,-206.71 -119.55,0 -228.25,78.52 -309.03,206.71z"/>
 </g>
</svg>
