<svg width="256" height="256" viewBox="0 0 256 256" fill="none" xmlns="http://www.w3.org/2000/svg">
<g clip-path="url(#clip0_10_31)">
<path d="M256 0H0V256H256V0Z" fill="#0A0236" stroke="black" stroke-width="0.213333"/>
<path d="M160.065 203.995L197.7 182.267C201.994 179.79 205.232 174.182 205.232 169.221V125.857C205.232 122.817 203.972 120.346 201.775 119.077C199.578 117.808 196.809 117.952 194.177 119.47L183.458 125.649V109.508C183.458 104.549 180.219 98.9412 175.925 96.4619L164.2 89.6911L173.063 84.579C180.598 80.2334 180.598 80.2334 180.598 78.1534C180.598 76.0734 180.598 76.071 173.066 71.7233L135.429 49.9953C131.134 47.5136 124.66 47.5136 120.367 49.9953L82.73 71.7233C75.1974 76.0734 75.1974 76.0734 75.1974 78.1419C75.1974 80.2099 75.1974 80.2099 82.7255 84.5604L91.5955 89.6907L79.8705 96.4614C75.5761 98.9408 72.3377 104.546 72.3377 109.508V125.457L61.8253 119.381C59.1927 117.86 56.4217 117.715 54.2267 118.982C52.0273 120.251 50.7673 122.722 50.7673 125.763V169.147C50.7673 174.106 54.0057 179.716 58.2999 182.193L95.8545 203.876C98.4868 205.395 101.26 205.54 103.455 204.271C105.655 203.004 106.915 200.531 106.917 197.493L106.926 184.928L120.367 192.689C124.662 195.169 131.136 195.169 135.429 192.689L148.941 184.889L148.932 198.262V198.351C148.932 206.171 148.936 206.177 150.609 207.233L150.849 207.371C152.607 208.298 152.607 208.298 160.066 203.995L160.065 203.995ZM86.2547 78.4563C86.071 78.3509 85.8905 78.2475 85.7113 78.1412C85.8897 78.038 86.071 77.9345 86.2547 77.8259L123.891 56.0984C125.99 54.8858 129.806 54.8858 131.903 56.0984L169.539 77.8259C169.728 77.9362 169.913 78.0448 170.096 78.1504C169.913 78.256 169.728 78.3646 169.539 78.4723L157.147 85.6194L135.431 73.079C131.136 70.5993 124.662 70.5993 120.368 73.079L98.6504 85.6194L86.2547 78.4563ZM83.3947 102.567L98.6406 93.7636L120.321 106.297C124.615 108.779 131.09 108.781 135.383 106.304L157.143 93.7587L172.398 102.567C172.567 102.666 172.736 102.8 172.902 102.923L127.857 128.892L82.9088 102.913C83.0711 102.793 83.2303 102.662 83.3954 102.568L83.3947 102.567ZM99.8647 197.489C99.8647 197.693 99.8477 197.857 99.8272 197.989C99.7047 197.943 99.555 197.871 99.3779 197.77L61.8238 176.087C59.725 174.875 57.8163 171.569 57.8163 169.147V125.762C57.8163 125.562 57.8302 125.398 57.8515 125.269C57.9739 125.318 58.1216 125.386 58.2937 125.488L72.3362 133.605V156.265C72.3362 161.224 75.5744 166.834 79.8686 169.312L99.8769 180.863L99.8647 197.489ZM123.892 186.586L106.93 176.793L106.947 154.16C106.947 149.204 103.713 143.596 99.424 141.114L79.3905 129.532V109.508C79.3905 109.36 79.4189 109.201 79.4327 109.048L124.332 134.998L124.296 186.769C124.163 186.708 124.017 186.656 123.892 186.586L123.892 186.586ZM131.906 186.586C131.735 186.685 131.537 186.762 131.347 186.845L131.38 135.003L176.367 109.063C176.381 109.208 176.409 109.363 176.409 109.505V129.712L156.501 141.191C152.206 143.668 148.966 149.274 148.961 154.233L148.947 176.744L131.906 186.586ZM155.994 180.818L175.922 169.311C180.218 166.834 183.457 161.227 183.457 156.265V133.793L197.697 125.581C197.873 125.48 198.023 125.41 198.146 125.362C198.167 125.492 198.181 125.656 198.181 125.86V169.224C198.181 171.644 196.273 174.954 194.173 176.164L156.539 197.892C156.351 198 156.166 198.109 155.982 198.214L155.994 180.818Z" fill="#2381E7"/>
</g>
<defs>
<clipPath id="clip0_10_31">
<rect width="256" height="256" fill="white"/>
</clipPath>
</defs>
</svg>
