<?xml version="1.0" encoding="UTF-8"?>
<svg width="256px" height="256px" viewBox="0 0 256 256" version="1.1" xmlns="http://www.w3.org/2000/svg" xmlns:xlink="http://www.w3.org/1999/xlink">
    <title>Group 16</title>
    <defs>
        <polygon id="path-1" points="0 0 256 0 256 256 0 256"></polygon>
        <filter id="filter-3">
            <feColorMatrix in="SourceGraphic" type="matrix" values="0 0 0 0 1.000000 0 0 0 0 1.000000 0 0 0 0 1.000000 0 0 0 1.000000 0"></feColorMatrix>
        </filter>
        <linearGradient x1="50%" y1="0%" x2="50%" y2="100%" id="linearGradient-4">
            <stop stop-color="#0C71CA" offset="0%"></stop>
            <stop stop-color="#1D9ED8" offset="100%"></stop>
        </linearGradient>
    </defs>
    <g id="Page-2" stroke="none" stroke-width="1" fill="none" fill-rule="evenodd">
        <g id="Group-16">
            <mask id="mask-2" fill="white">
                <use xlink:href="#path-1"></use>
            </mask>
            <g id="Path"></g>
            <g id="Group-3" mask="url(#mask-2)">
                <g transform="translate(30.000000, 30.000000)">
                    <circle id="Oval" fill="#000000" cx="98.5" cy="98.5" r="98.5"></circle>
                    <g filter="url(#filter-3)" fill="none" id="frALGO" stroke-width="1">
                        <g transform="translate(32.000000, 24.000000)">
                            <polygon id="Path" fill="#000000" fill-rule="nonzero" points="21.6805511 126 39.8242299 94.4384766 57.9679088 63 75.9890987 31.4384766 78.9747685 26.4396982 80.3068371 31.4384766 85.8341513 52.2180186 79.6484579 63 61.504779 94.4384766 43.4682751 126 65.1488241 126 83.2925069 94.4384766 92.693534 78.1040059 97.1184474 94.4384766 105.524253 126 125 126 116.594195 94.4384766 108.18839 63 105.968278 54.8942861 119.457376 31.4384766 99.7672706 31.4384766 99.1088952 29.1159658 92.2495125 3.3376455 91.3614654 0 72.4522285 0 72.0082069 0.661377938 54.3085496 31.4384766 36.1801809 63 18.1436808 94.4384766 0 126"></polygon>
                        </g>
                    </g>
                </g>
            </g>
            <g id="exchange-cny-svgrepo-com-(1)" mask="url(#mask-2)" fill="url(#linearGradient-4)" fill-rule="nonzero">
                <g transform="translate(0.000000, 6.000000)" id="Shape">
                    <path d="M218.258999,160.506236 C234.540244,121.788253 224.355317,76.9910283 192.938337,49.1362289 C161.521357,21.2814294 115.861012,16.5653386 79.4225345,37.4115949 L67.2827573,16.1364316 C105.07748,-5.48330201 151.504308,-5.37135623 189.194512,16.4303889 C244.141689,48.1777829 265.190497,116.15542 239.577035,172.840196 L256,182.320321 L205.030068,209.437887 L203.010851,151.699764 L218.258999,160.506236 Z M37.7532387,84.4937641 C21.4719934,123.211747 31.6569203,168.008972 63.0739003,195.863771 C94.4908802,223.718571 140.151226,228.434661 176.589703,207.588405 L188.72948,228.863568 C150.934758,250.483302 104.507929,250.371356 66.8177255,228.569611 C11.8705483,196.822217 -9.178259,128.84458 16.4352024,72.1598035 L0,62.6919272 L50.9699316,35.5743615 L52.9891486,93.3124846 L37.741001,84.5060123 L37.7532387,84.4937641 Z"></path>
                </g>
            </g>
        </g>
    </g>
</svg>