<svg width="256" height="256" viewBox="0 0 256 256" fill="none" xmlns="http://www.w3.org/2000/svg">
<rect width="256" height="256" fill="white"/>
<path d="M52.1 130.8C52.1 130.6 52.2 130.5 52.3 130.4C53.3 128.6 54.4 126.9 55.6 125.3C57.4 122.8 59.3 120.4 61.3 118.2C68.7 110.1 77.5 104.4 87.9 101.1C89 100.7 90.2 100.4 91.3 100.1C91.4 100.1 91.5 100.1 91.6 99.9998L91.7 99.8998C91.7 99.6998 91.7 99.3998 91.7 99.1998C91.7 96.1998 91.7 93.1998 91.7 90.2998C91.7 90.0998 91.7 89.7998 91.7 89.5998C91.8 87.2998 93.5 85.4998 95.3 85.0998C95.8 84.9998 96.2 84.9998 96.7 84.9998C98.9 84.9998 101.1 84.9998 103.3 84.9998C103.5 84.9998 103.8 84.9998 104 84.9998C104.2 84.9998 104.3 84.8998 104.4 84.7998C104.6 84.7998 104.7 84.7998 104.9 84.7998C105.1 84.7998 105.4 84.7998 105.6 84.7998C106.9 84.7998 108.1 84.7998 109.4 84.7998C109.7 84.7998 109.9 84.7998 110.1 84.8998C110.2 84.9998 110.4 84.9998 110.6 84.8998C110.9 84.8998 111.2 84.8998 111.5 84.8998C113.8 84.8998 116.2 84.8998 118.5 84.8998C119 84.8998 119.5 84.8998 120 85.0998C121.7 85.5998 122.8 86.5998 123.3 88.2998C123.4 88.6998 123.5 89.0998 123.5 89.5998C123.5 89.8998 123.5 90.1998 123.5 90.3998C123.5 93.3998 123.5 96.4998 123.5 99.4998C123.5 99.7998 123.5 100.1 123.5 100.3C123.5 100.4 123.6 100.5 123.7 100.5C124.1 100.6 124.6 100.8 125 100.9C125.2 101 125.5 101 125.7 101.1C125.8 101.3 125.9 101.5 125.9 101.7C125.9 101.9 126 102.1 126.2 102.1C126.5 102.2 126.7 102.3 127 102.4C127.3 102.5 127.5 102.6 127.8 102.7C128.1 102.8 128.4 102.9 128.7 103.1C129 103.2 129.3 103.4 129.6 103.5C129.7 103.5 129.7 103.6 129.8 103.6C130.3 103.7 130.7 104 131.1 104.2C132 104.7 132.9 105.1 133.9 105.6C134.1 105.7 134.3 105.7 134.4 105.9C134.7 106.1 135 106.3 135.4 106.5C135.7 106.7 136 106.9 136.4 107.1C136.6 107.2 136.8 107.3 136.9 107.4C137.2 107.6 137.5 107.8 137.8 107.9C138.4 108.2 138.8 108.6 139.4 108.9C139.9 109.4 140.6 109.7 141.2 110.2C141.4 110.3 141.6 110.4 141.7 110.6C141.9 110.8 142.1 110.9 142.3 111C142.5 111.2 142.8 111.3 143 111.5C143.2 111.7 143.4 111.9 143.6 112.1L143.7 112.2C144.1 112.4 144.3 112.7 144.6 113C144.7 113.1 144.9 113.3 145 113.4C145.3 113.6 145.5 113.8 145.8 114.1C146.3 114.6 146.7 115 147.2 115.5C147.4 115.7 147.6 115.9 147.9 116C148.1 116.1 148.2 116.2 148.3 116.4C148.4 116.7 148.7 116.9 148.9 117.1C149.5 117.7 150 118.2 150.6 118.8C150.7 118.9 150.9 119.1 151 119.2C151.1 119.4 151.2 119.6 151.4 119.7C151.6 119.9 151.9 120.2 152 120.5C152 120.6 152.1 120.7 152.2 120.8C152.7 121.2 152.9 121.7 153.3 122.2C153.4 122.4 153.6 122.6 153.7 122.8C153.9 123 154 123.3 154.2 123.5C154.3 123.6 154.4 123.8 154.5 123.9C154.9 124.4 155.2 125 155.6 125.5C155.8 125.7 156 126 156.1 126.3C156.3 126.7 156.6 127.1 156.8 127.5C156.9 127.6 157 127.7 157 127.8C157.3 128.4 157.7 128.9 157.9 129.5C157.9 129.6 158 129.6 158 129.7C158.2 130 158.4 130.3 158.5 130.6C159 131.7 159.6 132.7 160.1 133.8C160.4 134.4 160.8 135.1 161 135.7C161.3 136.2 161.4 136.8 161.7 137.3C161.8 137.4 161.8 137.6 161.9 137.7C162 138 162.1 138.4 162.3 138.7C162.4 138.8 162.4 139 162.5 139.1C162.7 139.6 162.9 140.1 163 140.6C163.2 141.1 163.4 141.6 163.5 142.2C163.6 142.5 163.7 142.9 163.8 143.2C163.9 143.5 164 143.9 164.1 144.2C164.2 144.4 164.2 144.7 164.3 144.9C164.4 145.1 164.4 145.4 164.5 145.6C164.6 145.8 164.6 146.1 164.6 146.3C164.6 146.4 164.6 146.4 164.6 146.5C164.7 146.7 164.7 147 164.8 147.2C164.9 147.5 164.9 147.7 165 148C165 148.1 165 148.1 165.1 148.2C165.2 148.4 165.2 148.6 165.2 148.7C165.2 148.9 165.3 149.1 165.4 149.3C165.4 149.5 165.4 149.8 165.5 150C165.5 150.1 165.5 150.1 165.6 150.2C165.7 150.4 165.7 150.6 165.7 150.7C165.7 150.9 165.7 151.1 165.7 151.3C165.9 151.6 165.8 152 165.8 152.3C165.8 152.5 165.8 152.6 165.8 152.8C166 153.2 165.9 153.5 165.9 153.9C165.9 154.3 165.9 154.6 166 155C166.1 155.1 166 155.3 166 155.5C166 156.2 166 156.8 166 157.5C166 157.7 166 157.9 166.1 158.1C166.2 158.2 166.2 158.4 166.2 158.6C166.2 159.7 166.2 160.9 166.2 162C166.2 162.2 166.2 162.3 166.1 162.5C166 162.7 166 162.9 166 163.1C166 163.7 166 164.3 166 165C166 165.2 166 165.3 165.9 165.5C165.8 165.7 165.8 166 165.8 166.2C165.8 166.5 165.8 166.8 165.8 167.1C165.8 167.2 165.8 167.4 165.7 167.5C165.6 167.8 165.6 168.1 165.6 168.4C165.6 168.6 165.6 168.8 165.6 169C165.4 169.3 165.5 169.7 165.5 170C165.5 170.2 165.5 170.3 165.4 170.5C165.3 170.6 165.3 170.8 165.3 171C165.3 171.1 165.3 171.3 165.2 171.4C165.1 171.6 165.1 171.9 165.1 172.1C165.1 172.3 165.1 172.5 165 172.6C165 172.7 164.9 172.8 164.9 173C164.9 173.2 164.9 173.4 164.8 173.6C164.8 174 164.5 174.4 164.6 174.9C164.6 175 164.6 175 164.6 175.1C164.4 175.4 164.5 175.8 164.3 176.2C164.3 176.6 164.1 176.9 164.1 177.2C163.9 177.5 164 177.9 163.8 178.2C163.5 179.1 163.2 180 162.9 180.8C162.9 180.9 162.8 181 162.8 181.2C162.8 181.4 162.7 181.6 162.6 181.7C162.5 181.9 162.4 182.2 162.3 182.5C162.1 183 161.9 183.5 161.7 184.1C161.6 184.4 161.5 184.7 161.3 185C161.2 185.3 161 185.6 160.8 185.9C160.7 186 160.7 186.1 160.6 186.2C160.5 186.5 160.4 186.8 160.2 187.1C159.7 188.1 159.2 189.1 158.7 190.1C158.6 190.3 158.5 190.5 158.4 190.7C158.2 190.9 158.1 191.2 157.9 191.5C157.8 191.7 157.7 191.8 157.6 192C157.4 192.2 157.3 192.4 157.2 192.6C157.1 192.8 156.9 193.1 156.8 193.3C156.6 193.7 156.3 194 156.1 194.4C156 194.6 155.9 194.7 155.8 194.9C155.7 195.1 155.5 195.2 155.4 195.4C155 195.9 154.7 196.5 154.3 197C154.1 197.3 153.9 197.5 153.7 197.8C153.5 198.1 153.3 198.3 153.1 198.5C152.9 198.8 152.7 199 152.5 199.3L152.4 199.4C152.3 199.7 152 199.9 151.8 200.2C151.7 200.3 151.6 200.4 151.6 200.5C151.4 200.9 151 201.2 150.7 201.6C150.6 201.7 150.5 201.8 150.4 202C150.3 202.2 150.1 202.4 149.9 202.6C148.6 203.9 147.3 205.2 145.9 206.6C145.8 206.7 145.7 206.8 145.6 206.9C145.3 207.1 145 207.4 144.7 207.6C144.5 207.8 144.3 208 144.1 208.2C143.8 208.3 143.6 208.6 143.3 208.8C143.1 208.9 142.9 209 142.8 209.2C142.6 209.4 142.4 209.5 142.3 209.7C142.3 209.7 142.3 209.7 142.2 209.7C142 209.8 141.8 210 141.6 210.1C141.4 210.3 141.1 210.4 140.9 210.6C140.8 210.7 140.7 210.7 140.6 210.8C140.1 211.2 139.4 211.5 138.9 212C138.8 212.1 138.7 212.1 138.7 212.1C138.4 212.3 138.1 212.5 137.7 212.7C137.2 213.1 136.6 213.4 136.1 213.7C135.8 213.9 135.5 214 135.2 214.2C134.9 214.4 134.6 214.6 134.2 214.8C133.6 215.1 133 215.4 132.4 215.8C132.3 215.9 132.1 216 131.9 216C131.7 216 131.6 216.1 131.5 216.2C131.1 216.4 130.7 216.6 130.3 216.8C129.9 217 129.5 217.1 129.1 217.3C128.7 217.5 128.3 217.7 127.9 217.8C127.5 218 127.1 218.1 126.7 218.3C126.3 218.5 125.8 218.6 125.4 218.8C124.8 219 124.3 219.2 123.7 219.4C123.1 219.6 122.6 219.8 122 219.9C121.5 220.1 121.1 220.2 120.6 220.3C120.4 220.5 120.1 220.4 119.8 220.5C119.5 220.6 119.2 220.6 118.9 220.7C118.5 220.7 118.2 220.8 117.8 220.9C117.6 220.9 117.4 221 117.2 221.1C117 221.1 116.8 221.1 116.6 221.1C116.5 221.1 116.5 221.1 116.4 221.1C116.2 221.2 116 221.2 115.8 221.2C115.7 221.2 115.6 221.2 115.4 221.3C115.2 221.4 115 221.4 114.9 221.4C114.7 221.4 114.5 221.4 114.3 221.4C114 221.6 113.7 221.5 113.4 221.5C113.3 221.5 113.1 221.5 113 221.5C112.7 221.7 112.3 221.6 112 221.6C111.6 221.6 111.2 221.6 110.8 221.7C110.7 221.8 110.5 221.7 110.3 221.7C109.7 221.7 109.1 221.7 108.5 221.7C108.3 221.7 108.1 221.7 107.9 221.8C107.8 221.9 107.6 221.9 107.4 221.9C106.2 221.9 105 221.9 103.8 221.9C103.6 221.9 103.5 221.9 103.3 221.8C103.1 221.7 102.8 221.7 102.6 221.7C102.1 221.7 101.6 221.7 101.1 221.7C100.8 221.7 100.6 221.7 100.4 221.6C100.3 221.6 100.2 221.5 100 221.5C99.7 221.5 99.4 221.5 99.1 221.5C99 221.5 98.8 221.5 98.7 221.4C98.4 221.3 98.1 221.3 97.8 221.3C97.6 221.3 97.4 221.3 97.2 221.3C96.9 221.1 96.6 221.2 96.3 221.1C96.2 221.1 96.1 221.1 96 221C95.8 220.9 95.5 220.9 95.3 220.9C95.2 220.9 95 220.9 94.9 220.8C94.7 220.7 94.5 220.7 94.3 220.7C94.1 220.7 93.9 220.5 93.7 220.5C93.3 220.5 93 220.3 92.6 220.3C92.2 220.2 91.9 220.1 91.5 220.1H91.4C91.2 219.9 90.9 220 90.6 219.9C90.3 219.8 90.1 219.7 89.8 219.6C89.5 219.5 89.3 219.5 89 219.4C88.8 219.3 88.6 219.3 88.4 219.2C88 219 87.6 219 87.2 218.9C86.5 218.7 85.8 218.5 85.2 218.2C85.1 218.2 85 218.2 84.9 218.1C84.6 218 84.3 217.9 84 217.8C83.7 217.7 83.4 217.5 83.1 217.4C82.8 217.3 82.5 217.2 82.2 217C81.9 216.9 81.6 216.7 81.3 216.6C81.2 216.6 81.1 216.5 81 216.5C80.7 216.5 80.5 216.3 80.2 216.2C79.4 215.8 78.6 215.4 77.8 215C77.6 214.9 77.4 214.9 77.3 214.7C77 214.4 76.6 214.3 76.3 214.1C76.2 214 76.1 214 76 213.9C75.8 213.7 75.5 213.6 75.2 213.4C74.9 213.2 74.7 213.1 74.4 212.9C74.3 212.8 74.1 212.7 74 212.7C73.3 212.3 72.6 211.8 72 211.4C71.5 211 70.9 210.7 70.4 210.3C70.1 210.1 69.9 209.9 69.6 209.7C69.3 209.5 69.1 209.3 68.9 209.1C68.6 208.9 68.4 208.7 68.1 208.5C68 208.4 68 208.4 67.9 208.3C67.7 208.2 67.5 208 67.3 207.8C67 207.5 66.8 207.2 66.4 207C66.3 207 66.2 206.8 66.1 206.8C65.8 206.5 65.5 206.2 65.2 205.9C64.8 205.6 64.5 205.2 64.1 204.9C64 204.8 63.9 204.7 63.8 204.7C63.6 204.5 63.3 204.2 63.1 204C62.8 203.7 62.5 203.5 62.3 203.1C62.2 203 62.1 202.9 62 202.8C61.7 202.4 61.3 202.1 60.9 201.7C60.8 201.6 60.7 201.5 60.6 201.4C60.4 201 60 200.7 59.7 200.3C59.6 200.2 59.4 200 59.4 199.9C59.4 199.8 59.3 199.7 59.2 199.7C58.9 199.4 58.7 199.2 58.5 198.8C58.4 198.6 58.2 198.5 58.1 198.3C58 198.1 57.9 197.9 57.7 197.8C57.4 197.5 57.3 197.2 57 196.9C56.9 196.5 56.5 196.3 56.3 195.9C56 195.4 55.7 195 55.4 194.5C55 193.9 54.6 193.4 54.3 192.8C54 192.5 53.9 192 53.6 191.7C53.4 191.5 53.3 191.2 53.2 191C53 190.7 52.9 190.4 52.7 190.1C52.5 189.8 52.3 189.4 52.1 189.1C51.8 188.5 51.5 187.8 51.1 187.2C51 187 50.8 186.8 50.8 186.5C50.6 186 50.4 185.5 50.2 185.1C50.1 185 50.1 184.9 50 184.8C49.9 184.5 49.8 184.3 49.7 184C49.6 183.7 49.5 183.4 49.4 183.1C49.2 182.6 48.9 182 48.8 181.5C48.6 180.8 48.3 180.1 48.1 179.4C47.9 179.2 48 178.9 47.9 178.6C47.7 178 47.5 177.4 47.4 176.8C47.3 176.6 47.3 176.4 47.2 176.2C47.2 176 47.1 175.8 47 175.6C46.9 175.3 46.9 174.9 46.8 174.6C46.7 174.3 46.7 173.9 46.5 173.6C46.5 173.3 46.4 172.9 46.3 172.6C46.3 172.2 46.2 171.7 46.1 171.3V171.2C46.1 170.9 46 170.7 45.9 170.5C45.9 170.2 45.9 169.9 45.9 169.7C45.9 169.6 45.9 169.6 45.8 169.5C45.8 169.4 45.7 169.3 45.7 169.2C45.7 168.8 45.7 168.5 45.5 168.1C45.5 168 45.5 167.9 45.5 167.8C45.5 167.6 45.5 167.3 45.5 167.1C45.5 166.8 45.5 166.6 45.4 166.4C45.3 166.3 45.3 166.1 45.3 165.9C45.3 165.5 45.3 165 45.3 164.6C45.3 164.4 45.3 164.3 45.2 164.1C45.1 163.8 45.1 163.5 45.1 163.2C45.1 161.5 45.1 159.8 45.1 158.2C45.1 157.8 45.1 157.3 45.1 156.9C45.1 156.7 45.1 156.6 45.2 156.4C45.3 156.2 45.3 156 45.3 155.8C45.3 155.4 45.3 154.9 45.3 154.5C45.3 154.4 45.3 154.2 45.3 154.1C45.5 153.7 45.4 153.3 45.5 152.9C45.5 152.8 45.5 152.6 45.6 152.5C45.7 152.2 45.7 152 45.7 151.7C45.7 151.5 45.7 151.3 45.7 151.1C45.9 150.8 45.8 150.6 45.8 150.3C45.8 150.1 45.8 150 45.9 149.8C45.9 149.7 46 149.6 46 149.5C46 149.1 46 148.8 46.2 148.4C46.2 148.3 46.2 148.3 46.2 148.2C46.2 148 46.2 147.8 46.3 147.7C46.4 147.6 46.4 147.4 46.4 147.2C46.4 147.1 46.4 146.9 46.5 146.8C46.6 146.6 46.6 146.3 46.7 146.1C46.8 145.9 46.8 145.6 46.8 145.4C46.8 145.3 46.8 145.3 46.8 145.2C47 144.9 46.9 144.5 47.1 144.1C47.1 143.7 47.3 143.4 47.4 143.1C47.6 142.8 47.5 142.4 47.7 142.1C47.8 141.9 47.9 141.6 48 141.3C48.2 140.7 48.4 140.1 48.6 139.5C48.8 138.9 48.9 138.3 49.3 137.8C49.3 137.7 49.3 137.7 49.3 137.6C49.5 137.1 49.6 136.7 49.8 136.2C49.9 136 50 135.9 50 135.7C50.2 135.2 50.4 134.7 50.6 134.2C51.1 133.3 51.5 132.4 52 131.5C52 131.4 52.1 131.3 52.1 131.2C52.1 131.1 52.2 131 52.1 130.9C52.2 130.9 52.1 130.9 52.1 130.8ZM49.7 157.5C49.7 158 49.7 158.6 49.7 159.1C49.7 159.2 49.7 159.4 49.7 159.5C49.7 159.6 49.8 159.7 49.8 159.7C49.9 159.8 50 159.9 50.1 159.9C50.6 160 51.1 160.2 51.6 160C51.7 160 51.8 160 51.9 160C52.3 159.9 52.7 159.8 53.1 159.6C53.5 159.4 53.7 159 53.7 158.5C53.7 158.2 53.7 157.9 53.7 157.7C53.7 156.7 53.7 155.6 53.9 154.6C53.9 153.9 54 153.2 54.1 152.6C54.2 151.9 54.3 151.3 54.4 150.7C54.5 150.2 54.6 149.8 54.7 149.3C54.9 148.3 55.1 147.4 55.4 146.4C55.7 145.1 56.1 143.9 56.6 142.7C57 141.7 57.3 140.8 57.7 139.8C58.1 138.9 58.6 137.9 59 137C59 136.9 59.1 136.8 59.2 136.7C59.5 136.2 59.7 135.7 60 135.2C60.4 134.5 60.7 133.8 61.2 133.2C61.7 132.3 62.3 131.5 62.9 130.6C63.7 129.5 64.5 128.3 65.4 127.2C66.1 126.3 66.9 125.4 67.7 124.5C67.8 124.4 67.9 124.3 68 124.2C68.3 123.8 68.7 123.4 69 123.1C69.9 122.2 70.7 121.4 71.6 120.6C72.2 120.1 72.7 119.6 73.3 119.1C74.1 118.5 74.8 117.8 75.6 117.2C76.6 116.5 77.5 115.7 78.5 115C79.9 114 81.4 113 82.9 112.2C83.9 111.6 84.9 111 86 110.4C86.6 110.1 87.2 109.8 87.7 109.5C88 109.3 88.4 109.1 88.8 109C89.9 108.5 91 107.9 92.2 107.5C92.5 107.4 92.7 107.2 92.9 107.1C93.1 107 93.2 106.8 93.3 106.6C93.3 106.5 93.3 106.4 93.2 106.2C93.1 106.1 93.1 106 93 106C92.8 105.8 92.5 105.7 92.2 105.6C91.6 105.5 91 105.6 90.5 105.8C90.2 105.9 89.9 106 89.6 106.1C88 106.7 86.5 107.4 85 108.1C84.1 108.5 83.2 109 82.4 109.5C80.7 110.4 79 111.4 77.4 112.5C76.2 113.3 75 114.1 73.9 115C73.2 115.5 72.5 116.1 71.8 116.6C71.4 116.9 70.9 117.3 70.5 117.7C70.1 118.1 69.6 118.4 69.2 118.8C68.8 119.2 68.4 119.6 68 120C67.9 120.1 67.9 120.1 67.8 120.2C67.5 120.4 67.3 120.7 67 120.9C66.4 121.5 65.8 122.2 65.2 122.8C64.2 123.9 63.2 125 62.2 126.2C61.2 127.3 60.3 128.5 59.5 129.8C58 132 56.6 134.2 55.4 136.6C54.7 137.9 54.1 139.2 53.5 140.6C52.8 142.2 52.2 143.9 51.7 145.6C51.4 146.6 51.1 147.6 50.9 148.7C50.7 149.5 50.5 150.3 50.4 151.2C50.3 151.6 50.3 152.1 50.2 152.5C50.1 152.8 50.1 153.2 50.1 153.5C50.1 153.6 50.1 153.8 50.1 153.9C50 154.4 50 154.8 49.9 155.3C49.9 155.5 49.9 155.6 49.8 155.8C49.7 156.1 49.7 156.4 49.7 156.7C49.7 156.6 49.7 157.1 49.7 157.5Z" fill="#262626"/>
<path d="M212.2 32.3998C212.2 32.4998 212.3 32.5998 212.2 32.6998C212.1 32.9998 212 33.1998 211.9 33.4998C211.6 34.1998 211.3 34.8998 210.9 35.5998C209.4 38.8998 207.8 42.1998 206.1 45.4998C204.2 49.0998 202.3 52.4998 200.2 55.8998C199 57.6998 197.8 59.5998 196.6 61.2998C195.4 62.9998 194.1 64.5998 192.8 66.1998C191.2 68.1998 189.4 70.0998 187.5 71.7998C185.6 73.5998 183.5 75.1998 181.3 76.6998C179.7 77.6998 178 78.5998 176.3 79.2998C174.8 79.8998 173.3 80.4998 171.7 80.8998C170.5 81.1998 169.3 81.4998 168.1 81.5998C167.4 81.6998 166.7 81.6998 166.1 81.7998C165.5 81.8998 164.9 81.8998 164.2 81.8998C163.9 81.8998 163.5 81.8998 163.2 81.7998C163 81.7998 162.8 81.7998 162.5 81.6998C160.5 81.5998 158.6 81.0998 156.8 80.3998C154.2 79.3998 151.8 77.7998 149.8 75.7998C149.6 75.5998 149.3 75.2998 149.1 75.0998C149 74.9998 148.8 74.8998 148.7 74.8998C148.7 74.6998 148.7 74.4998 148.5 74.2998C148.2 73.9998 148 73.5998 147.7 73.2998C147.3 72.7998 146.9 72.2998 146.6 71.6998C146.4 71.3998 146.2 70.9998 146 70.6998C145.9 70.4998 145.7 70.4998 145.5 70.4998C145.3 70.0998 145.2 69.5998 145 69.1998C145 69.0998 145 69.0998 145 68.9998C145 68.6998 144.9 68.3998 144.8 68.0998C144.4 66.9998 144 65.8998 143.8 64.6998C143.7 64.0998 143.5 63.4998 143.5 62.8998C143.5 62.7998 143.5 62.6998 143.5 62.5998C143.3 61.4998 143.3 60.3998 143.4 59.3998C143.4 58.7998 143.5 58.1998 143.6 57.6998C143.8 56.5998 144.1 55.4998 144.4 54.3998C144.4 54.2998 144.5 54.1998 144.5 54.1998C144.7 54.0998 144.7 53.9998 144.7 53.7998C144.8 53.6998 144.9 53.6998 144.9 53.5998C145 53.3998 145.1 53.0998 145.2 52.7998C145.4 52.5998 145.5 52.2998 145.6 52.0998C145.7 51.8998 145.8 51.6998 145.8 51.4998C145.8 51.3998 145.9 51.2998 146 51.1998C146.2 51.0998 146.2 50.8998 146.3 50.7998C146.5 50.5998 146.6 50.3998 146.6 50.0998C146.8 50.0998 146.9 49.9998 147 49.8998C147.1 49.7998 147.2 49.6998 147.2 49.5998C147.3 49.2998 147.5 49.0998 147.7 48.8998C148 48.5998 148.3 48.3998 148.5 47.9998C148.5 47.8998 148.6 47.8998 148.7 47.7998C149.2 47.3998 149.5 46.8998 150.1 46.5998C150.2 46.5998 150.2 46.4998 150.3 46.3998C150.7 46.0998 151 45.6998 151.4 45.3998C151.5 45.2998 151.6 45.1998 151.7 45.1998C151.8 45.0998 151.9 44.9998 152 44.8998C152.3 44.6998 152.5 44.5998 152.8 44.3998C153.1 44.1998 153.3 43.9998 153.6 43.7998C153.8 43.6998 154.1 43.4998 154.3 43.3998C154.5 43.2998 154.8 43.0998 155 42.9998C155.4 42.7998 155.8 42.5998 156.2 42.2998C156.9 41.8998 157.6 41.5998 158.4 41.1998C158.7 40.9998 159.1 40.8998 159.4 40.7998C159.8 40.6998 160.2 40.4998 160.5 40.3998C160.9 40.2998 161.3 40.0998 161.6 39.9998C162 39.8998 162.4 39.6998 162.9 39.7998H163C163.3 39.6998 163.5 39.6998 163.8 39.6998C164 39.6998 164.1 39.6998 164.3 39.5998C164.4 39.4998 164.6 39.4998 164.8 39.4998C165 39.4998 165.3 39.4998 165.5 39.4998C165.6 39.4998 165.8 39.4998 165.9 39.3998C166.2 39.2998 166.4 39.2998 166.7 39.2998C167.6 39.2998 168.6 39.2998 169.5 39.2998C169.9 39.2998 170.2 39.2998 170.6 39.3998C170.7 39.3998 170.8 39.3998 171 39.3998C171.4 39.3998 171.8 39.3998 172.2 39.3998C172.4 39.3998 172.5 39.3998 172.7 39.4998C172.9 39.5998 173.1 39.5998 173.3 39.5998C173.7 39.5998 174.2 39.5998 174.6 39.7998C174.7 39.7998 174.8 39.7998 175 39.7998C175.2 39.7998 175.4 39.7998 175.7 39.7998C175.8 39.7998 176 39.7998 176.1 39.8998C176.4 39.9998 176.7 39.9998 177 39.9998C177.3 39.9998 177.7 39.9998 178 40.0998C178.1 40.1998 178.2 40.0998 178.4 40.0998C178.6 40.0998 178.9 40.0998 179.1 40.0998C179.2 40.0998 179.4 40.0998 179.5 40.1998C179.7 40.2998 180 40.2998 180.2 40.2998C180.5 40.2998 180.8 40.2998 181.1 40.2998C181.2 40.2998 181.4 40.2998 181.5 40.3998C181.8 40.4998 182 40.4998 182.3 40.4998C183.1 40.4998 184 40.4998 184.8 40.4998C185 40.4998 185.3 40.4998 185.5 40.5998C185.9 40.6998 186.3 40.6998 186.7 40.5998C186.9 40.4998 187.1 40.4998 187.3 40.4998C188.1 40.4998 188.9 40.4998 189.6 40.4998C189.8 40.4998 189.9 40.4998 190.1 40.4998C190.5 40.2998 190.9 40.3998 191.3 40.2998C191.4 40.2998 191.6 40.2998 191.7 40.1998C192 40.0998 192.2 40.0998 192.5 40.0998C192.7 40.0998 192.8 40.0998 193 40.0998C193.3 39.9998 193.6 39.9998 193.9 39.9998C194 39.9998 194.1 39.9998 194.2 39.8998C194.4 39.7998 194.6 39.7998 194.8 39.7998C194.9 39.7998 195 39.7998 195.1 39.6998C195.4 39.4998 195.8 39.5998 196.1 39.3998C196.5 39.3998 196.8 39.1998 197.2 39.1998C197.7 39.0998 198.2 38.9998 198.6 38.7998C199.2 38.5998 199.7 38.3998 200.3 38.1998C200.9 37.9998 201.5 37.7998 202 37.4998C202.4 37.3998 202.8 37.0998 203.2 36.9998C203.8 36.6998 204.4 36.5998 204.9 36.2998C206.3 35.5998 207.6 34.8998 209 34.2998C209.2 34.1998 209.3 34.1998 209.5 33.9998C209.8 33.7998 210.1 33.5998 210.4 33.4998C210.7 33.3998 211 33.0998 211.4 32.8998C211.7 32.7998 212 32.5998 212.2 32.2998C212 32.3998 212.1 32.3998 212.2 32.3998Z" fill="#6BB647"/>
<path d="M52.1 130.8L52.2 130.9C52.3 131 52.2 131.1 52.2 131.2C52.2 131.3 52.1 131.4 52.1 131.5C51.6 132.4 51.2 133.3 50.7 134.2C50.4 134.7 50.3 135.2 50.1 135.7C50.1 135.9 50 136.1 49.9 136.2C49.7 136.6 49.5 137.1 49.4 137.6C49.4 137.7 49.4 137.7 49.4 137.8C49.1 138.3 49 139 48.7 139.5C48.5 140.1 48.3 140.7 48.1 141.3C48 141.6 48 141.9 47.8 142.1C47.6 142.4 47.7 142.8 47.5 143.1C47.4 143.4 47.2 143.7 47.2 144.1C47 144.4 47.1 144.8 46.9 145.2C46.9 145.3 46.9 145.3 46.9 145.4C46.9 145.6 46.9 145.9 46.8 146.1C46.7 146.3 46.7 146.6 46.6 146.8C46.5 146.9 46.5 147 46.5 147.2C46.5 147.4 46.5 147.5 46.4 147.7C46.3 147.9 46.3 148.1 46.3 148.2C46.3 148.3 46.3 148.3 46.3 148.4C46.1 148.7 46.1 149.1 46.1 149.5C46.1 149.6 46.1 149.7 46 149.8C45.9 149.9 45.9 150.1 45.9 150.3C45.9 150.6 45.9 150.9 45.8 151.1C45.8 151.3 45.8 151.5 45.8 151.7C45.8 152 45.8 152.3 45.7 152.5C45.6 152.6 45.6 152.7 45.6 152.9C45.6 153.3 45.6 153.7 45.4 154.1C45.3 154.2 45.4 154.3 45.4 154.5C45.4 154.9 45.4 155.4 45.4 155.8C45.4 156 45.4 156.2 45.3 156.4C45.2 156.5 45.2 156.7 45.2 156.9C45.2 157.3 45.2 157.8 45.2 158.2C45.2 159.9 45.2 161.6 45.2 163.2C45.2 163.5 45.2 163.8 45.3 164.1C45.4 164.2 45.4 164.4 45.4 164.6C45.4 165 45.4 165.5 45.4 165.9C45.4 166.1 45.4 166.2 45.5 166.4C45.6 166.6 45.6 166.9 45.6 167.1C45.6 167.3 45.6 167.6 45.6 167.8C45.6 167.9 45.6 168 45.6 168.1C45.8 168.4 45.7 168.8 45.8 169.2C45.8 169.3 45.9 169.4 45.9 169.5C45.9 169.6 46 169.6 46 169.7C46 170 46 170.3 46 170.5C46 170.7 46.2 171 46.2 171.2V171.3C46.3 171.7 46.4 172.1 46.4 172.6C46.5 172.9 46.6 173.3 46.6 173.6C46.8 173.9 46.8 174.3 46.9 174.6C47 174.9 47.1 175.3 47.1 175.6C47.1 175.8 47.2 176 47.3 176.2C47.3 176.4 47.3 176.6 47.5 176.8C47.6 177.4 47.8 178 48 178.6C48.1 178.9 48 179.2 48.2 179.4C48.4 180.1 48.7 180.8 48.9 181.5C49.1 182.1 49.3 182.6 49.5 183.1C49.6 183.4 49.7 183.7 49.8 184C49.9 184.3 50.1 184.5 50.1 184.8C50.1 184.9 50.2 185 50.3 185.1C50.5 185.6 50.8 186 50.9 186.5C51 186.7 51.1 186.9 51.2 187.2C51.5 187.8 51.8 188.5 52.2 189.1C52.4 189.5 52.6 189.8 52.8 190.1C53 190.4 53.1 190.7 53.3 191C53.4 191.2 53.6 191.5 53.7 191.7C53.9 192.1 54.1 192.5 54.4 192.8C54.7 193.4 55.1 194 55.5 194.5C55.8 195 56.1 195.4 56.4 195.9C56.5 196.3 56.9 196.5 57.1 196.9C57.4 197.2 57.5 197.5 57.8 197.8C58 197.9 58 198.2 58.2 198.3C58.3 198.5 58.5 198.6 58.6 198.8C58.8 199.1 59 199.4 59.3 199.7C59.4 199.8 59.4 199.8 59.5 199.9C59.6 200.1 59.7 200.2 59.8 200.3C60.1 200.6 60.5 200.9 60.7 201.4C60.8 201.5 60.9 201.6 61 201.7C61.4 202.1 61.7 202.4 62.1 202.8C62.2 202.9 62.3 203 62.4 203.1C62.6 203.5 62.9 203.7 63.2 204C63.4 204.2 63.7 204.5 63.9 204.7C64 204.8 64.1 204.9 64.2 204.9C64.7 205.1 65 205.5 65.3 205.9C65.6 206.2 65.9 206.5 66.2 206.8C66.3 206.9 66.4 207 66.5 207C66.9 207.2 67.1 207.5 67.4 207.8C67.6 208 67.7 208.2 68 208.3C68.1 208.3 68.2 208.4 68.2 208.5C68.5 208.7 68.7 209 69 209.1C69.3 209.2 69.5 209.5 69.7 209.7C70 209.9 70.2 210.1 70.5 210.3C71 210.8 71.6 211.1 72.1 211.4C72.8 211.9 73.4 212.3 74.1 212.7C74.2 212.8 74.4 212.9 74.5 212.9C74.8 213 75 213.2 75.3 213.4C75.6 213.6 75.9 213.7 76.1 213.9C76.2 214 76.3 214 76.4 214.1C76.8 214.3 77.1 214.4 77.4 214.7C77.5 214.8 77.7 214.9 77.9 215C78.7 215.4 79.5 215.8 80.3 216.2C80.5 216.3 80.8 216.5 81.1 216.5C81.2 216.5 81.3 216.6 81.4 216.6C81.7 216.7 82 216.9 82.3 217C82.6 217.1 82.9 217.3 83.2 217.4C83.5 217.5 83.8 217.6 84.1 217.8C84.4 217.9 84.7 218 85 218.1C85.1 218.1 85.2 218.1 85.3 218.2C85.9 218.5 86.6 218.7 87.3 218.9C87.7 219 88.1 219.1 88.5 219.2C88.7 219.3 88.9 219.3 89.1 219.4C89.4 219.5 89.6 219.6 89.9 219.6C90.2 219.7 90.4 219.8 90.7 219.9C91 220 91.3 219.9 91.5 220.1H91.6C92 220.1 92.3 220.2 92.7 220.3C93.1 220.4 93.4 220.5 93.8 220.5C94 220.5 94.2 220.7 94.4 220.7C94.6 220.7 94.8 220.7 95 220.8C95.1 220.8 95.2 220.9 95.4 220.9C95.6 220.9 95.9 220.9 96.1 221C96.2 221 96.3 221.1 96.4 221.1C96.7 221.1 97 221.1 97.3 221.3C97.5 221.3 97.7 221.3 97.9 221.3C98.2 221.3 98.5 221.3 98.8 221.4C98.9 221.5 99 221.4 99.2 221.5C99.5 221.5 99.8 221.5 100.1 221.5C100.2 221.5 100.4 221.5 100.5 221.6C100.7 221.7 101 221.7 101.2 221.7C101.7 221.7 102.2 221.7 102.7 221.7C102.9 221.7 103.2 221.7 103.4 221.8C103.5 221.9 103.7 221.9 103.9 221.9C105.1 221.9 106.3 221.9 107.5 221.9C107.7 221.9 107.8 221.9 108 221.8C108.2 221.7 108.4 221.7 108.6 221.7C109.2 221.7 109.8 221.7 110.4 221.7C110.6 221.7 110.7 221.7 110.9 221.7C111.3 221.5 111.7 221.6 112.1 221.6C112.4 221.6 112.8 221.6 113.1 221.5C113.2 221.5 113.3 221.5 113.5 221.5C113.8 221.5 114.1 221.5 114.4 221.4C114.6 221.4 114.8 221.4 115 221.4C115.2 221.4 115.4 221.4 115.5 221.3C115.6 221.3 115.7 221.2 115.9 221.2C116.1 221.2 116.3 221.2 116.5 221.1C116.6 221.1 116.6 221.1 116.7 221.1C116.9 221.1 117.1 221.1 117.3 221.1C117.5 221.1 117.7 221 117.9 220.9C118.3 220.8 118.6 220.7 119 220.7C119.3 220.5 119.6 220.6 119.9 220.5C120.2 220.4 120.5 220.4 120.7 220.3C121.2 220.2 121.7 220.1 122.1 219.9C122.7 219.8 123.2 219.6 123.8 219.4C124.4 219.2 124.9 219 125.5 218.8C125.9 218.6 126.4 218.5 126.8 218.3C127.2 218.1 127.6 218 128 217.8C128.4 217.7 128.8 217.5 129.2 217.3C129.6 217.1 130 217 130.4 216.8C130.8 216.6 131.2 216.4 131.6 216.2C131.7 216.1 131.9 216.1 132 216C132.2 215.9 132.4 215.9 132.5 215.8C133.1 215.4 133.7 215.1 134.3 214.8C134.6 214.6 135 214.5 135.3 214.2C135.6 214 135.9 213.9 136.2 213.7C136.8 213.4 137.3 213.1 137.8 212.7C138.1 212.6 138.5 212.4 138.8 212.1C138.9 212 139 212 139 212C139.5 211.5 140.1 211.2 140.7 210.8C140.8 210.7 140.9 210.7 141 210.6C141.2 210.4 141.5 210.3 141.7 210.1C141.9 210 142 209.7 142.3 209.7H142.4C142.6 209.5 142.8 209.4 142.9 209.2C143.1 209.1 143.3 209 143.4 208.8C143.7 208.6 143.9 208.3 144.2 208.2C144.4 208 144.6 207.8 144.8 207.6C145.1 207.3 145.3 207.1 145.7 206.9C145.8 206.8 145.9 206.7 146 206.6C147.3 205.3 148.6 204 150 202.6C150.2 202.4 150.3 202.3 150.5 202C150.6 201.9 150.7 201.8 150.8 201.6C151.1 201.3 151.5 201 151.7 200.5C151.8 200.4 151.9 200.3 151.9 200.2C152.1 200 152.4 199.7 152.5 199.4C152.5 199.3 152.6 199.3 152.6 199.3C152.8 199.1 153.1 198.8 153.2 198.5C153.3 198.2 153.6 198 153.8 197.8C154 197.5 154.2 197.3 154.4 197C154.9 196.5 155.1 195.9 155.5 195.4C155.6 195.2 155.8 195 155.9 194.9C156 194.7 156.1 194.6 156.2 194.4C156.4 194 156.7 193.7 156.9 193.3C157 193.1 157.2 192.8 157.3 192.6C157.4 192.4 157.5 192.2 157.7 192C157.8 191.9 157.9 191.7 158 191.5C158.1 191.2 158.3 190.9 158.5 190.7C158.6 190.5 158.7 190.3 158.8 190.1C159.3 189.1 159.8 188.1 160.3 187.1C160.5 186.8 160.6 186.5 160.7 186.2C160.7 186.1 160.8 186 160.9 185.9C161.1 185.6 161.2 185.3 161.4 185C161.5 184.7 161.7 184.4 161.8 184.1C162 183.6 162.2 183.1 162.4 182.5C162.5 182.2 162.6 182 162.7 181.7C162.8 181.5 162.8 181.4 162.9 181.2C162.9 181.1 163 181 163 180.8C163.3 179.9 163.6 179 163.9 178.2C164.1 177.9 164 177.5 164.2 177.2C164.3 176.9 164.5 176.6 164.4 176.2C164.6 175.9 164.5 175.5 164.7 175.1C164.7 175 164.7 175 164.7 174.9C164.7 174.5 164.9 174.1 164.9 173.6C165 173.4 165 173.2 165 173C165 172.9 165 172.8 165.1 172.6C165.2 172.4 165.2 172.2 165.2 172.1C165.2 171.8 165.2 171.6 165.3 171.4C165.4 171.3 165.3 171.2 165.4 171C165.4 170.8 165.4 170.7 165.5 170.5C165.6 170.4 165.6 170.2 165.6 170C165.6 169.7 165.6 169.3 165.7 169C165.7 168.8 165.7 168.6 165.7 168.4C165.7 168.1 165.7 167.8 165.8 167.5C165.9 167.4 165.8 167.3 165.9 167.1C165.9 166.8 165.9 166.5 165.9 166.2C165.9 165.9 165.9 165.7 166 165.5C166.1 165.4 166.1 165.2 166.1 165C166.1 164.4 166.1 163.8 166.1 163.1C166.1 162.9 166.1 162.7 166.2 162.5C166.3 162.4 166.3 162.2 166.3 162C166.3 160.9 166.3 159.7 166.3 158.6C166.3 158.4 166.3 158.3 166.2 158.1C166.1 157.9 166.1 157.7 166.1 157.5C166.1 156.8 166.1 156.2 166.1 155.5C166.1 155.3 166.1 155.2 166.1 155C165.9 154.6 166 154.3 166 153.9C166 153.5 166 153.2 165.9 152.8C165.8 152.7 165.9 152.5 165.9 152.3C165.9 152 165.9 151.6 165.8 151.3C165.8 151.1 165.8 150.9 165.8 150.7C165.8 150.5 165.8 150.3 165.7 150.2C165.7 150.1 165.6 150.1 165.6 150C165.6 149.8 165.6 149.5 165.5 149.3C165.5 149.1 165.3 148.9 165.3 148.7C165.3 148.5 165.3 148.3 165.2 148.2C165.2 148.1 165.2 148.1 165.1 148C165.1 147.7 165.1 147.4 164.9 147.2C164.8 147 164.8 146.7 164.7 146.5C164.7 146.4 164.7 146.4 164.7 146.3C164.7 146.1 164.7 145.8 164.6 145.6C164.5 145.4 164.5 145.1 164.4 144.9C164.3 144.7 164.3 144.4 164.2 144.2C164.1 143.9 164.1 143.5 163.9 143.2C163.8 142.9 163.6 142.6 163.6 142.2C163.5 141.6 163.3 141.1 163.1 140.6C163 140.1 162.8 139.6 162.6 139.1C162.5 139 162.5 138.8 162.4 138.7C162.2 138.4 162.1 138 162 137.7C161.9 137.6 161.9 137.4 161.8 137.3C161.5 136.8 161.4 136.2 161.1 135.7C160.9 135 160.5 134.4 160.2 133.8C159.7 132.7 159.1 131.7 158.6 130.6C158.4 130.3 158.3 130 158.1 129.7C158.1 129.7 158 129.6 158 129.5C157.8 128.9 157.3 128.4 157.1 127.8C157 127.7 157 127.6 156.9 127.5C156.7 127.1 156.4 126.7 156.2 126.3C156.1 126 155.9 125.8 155.7 125.5C155.3 125 155 124.4 154.6 123.9C154.5 123.8 154.5 123.6 154.3 123.5C154.1 123.3 154 123 153.8 122.8C153.6 122.6 153.4 122.4 153.4 122.2C153 121.8 152.7 121.2 152.3 120.8C152.2 120.7 152.1 120.6 152.1 120.5C152 120.2 151.7 120 151.5 119.7C151.3 119.5 151.2 119.4 151.1 119.2C151 119 150.9 118.9 150.7 118.8C150.1 118.2 149.6 117.7 149 117.1C148.8 116.9 148.6 116.7 148.4 116.4C148.3 116.2 148.2 116.1 148 116C147.7 115.9 147.5 115.7 147.3 115.5C146.8 115 146.4 114.6 145.9 114.1C145.7 113.9 145.4 113.6 145.1 113.4C144.9 113.3 144.8 113.2 144.7 113C144.4 112.7 144.2 112.4 143.8 112.2C143.7 112.2 143.7 112.1 143.7 112.1C143.5 111.9 143.3 111.7 143.1 111.5C142.9 111.3 142.6 111.2 142.4 111C142.2 110.8 142 110.7 141.8 110.6C141.6 110.5 141.5 110.3 141.3 110.2C140.8 109.7 140.1 109.4 139.5 108.9C139 108.6 138.5 108.2 137.9 107.9C137.6 107.7 137.3 107.6 137 107.4C136.8 107.3 136.6 107.2 136.5 107.1C136.2 106.9 135.9 106.7 135.5 106.5C135.2 106.3 134.8 106.2 134.5 105.9C134.4 105.8 134.2 105.7 134 105.6C133.1 105.1 132.2 104.7 131.2 104.2C130.8 104 130.4 103.7 129.9 103.6C129.8 103.6 129.8 103.5 129.7 103.5C129.4 103.3 129.1 103.2 128.8 103.1C128.5 103 128.2 102.9 127.9 102.7C127.6 102.6 127.4 102.5 127.1 102.4C126.8 102.3 126.6 102.2 126.3 102.1C126.1 102.1 126 101.9 126 101.7C126 101.5 125.9 101.3 125.8 101.1C125.9 101.1 126 101.1 126.1 101.1C129.4 102.1 132.7 103.4 135.8 104.9C142.7 108.3 148.8 112.8 154.1 118.4C159.8 124.4 164.1 131.3 167.2 139C168.3 141.9 169.3 144.9 169.9 147.9C170.2 149.4 170.5 150.8 170.8 152.3C171 153.5 171.1 154.7 171.3 155.9C171.4 157.1 171.5 158.3 171.6 159.4C171.7 161.5 171.7 163.6 171.6 165.7C171.6 165.9 171.6 166.1 171.6 166.3C171.6 167.4 171.5 168.4 171.3 169.5C171.1 171 170.9 172.5 170.6 173.9C170.2 175.8 169.8 177.7 169.3 179.5C167.8 185 165.5 190.3 162.5 195.2C156.2 205.6 147.6 213.6 136.7 219.2C132.3 221.4 127.8 223.1 123 224.3C121.3 224.7 119.6 225.1 117.9 225.3C116.7 225.5 115.6 225.6 114.4 225.8C113.3 225.9 112.2 226 111.1 226.1C110.5 226.1 109.9 226.1 109.3 226.2C108.2 226.2 107.1 226.2 105.9 226.2C105.4 226.2 104.8 226.2 104.3 226.1C103.7 226.1 103.1 226.1 102.5 226C102.3 226 102.1 226 101.9 226C100.9 225.9 99.9 225.8 98.9 225.7C98 225.6 97.2 225.4 96.3 225.3C95 225.1 93.7 224.8 92.4 224.5C88.5 223.5 84.7 222.2 81 220.5C73.9 217.2 67.6 212.8 62.1 207.2C55.1 200.1 50.1 191.8 46.9 182.4C46.1 179.9 45.4 177.4 44.9 174.8C44.6 173.5 44.4 172.2 44.2 170.8C44.1 170 44 169.2 43.9 168.4C43.7 167.1 43.7 165.8 43.6 164.5C43.5 162.9 43.5 161.4 43.6 159.8C43.6 159.5 43.6 159.2 43.6 159C43.6 157.8 43.7 156.6 43.9 155.5C44.1 154 44.3 152.5 44.6 151C45.8 144.1 48.2 137.6 51.5 131.5C51.8 131.2 51.9 131 52.1 130.8Z" fill="#1C1C1C"/>
<path d="M145.5 70.5996C145.7 70.5996 145.9 70.6996 146 70.7996C146.2 71.1996 146.4 71.4996 146.6 71.7996C146.9 72.3996 147.3 72.8996 147.7 73.3996C148 73.6996 148.2 74.0996 148.5 74.3996C148.7 74.5996 148.7 74.7996 148.7 74.9996C148 75.5996 147.3 76.0996 146.5 76.4996C145.1 77.1996 143.7 77.7996 142.2 78.1996C141.1 78.4996 140 78.6996 138.8 78.7996C137.9 78.8996 137 78.8996 136.1 78.9996C135.3 79.0996 134.4 79.0996 133.6 79.0996C132.5 79.0996 131.5 78.9996 130.4 78.8996C129.5 78.7996 128.5 78.7996 127.6 78.5996C126.8 78.4996 126 78.3996 125.2 78.2996C125 78.2996 124.8 78.1996 124.6 78.1996C124.3 78.1996 124 78.0996 123.8 78.0996C123.5 78.0996 123.2 77.9996 123 77.9996C122.7 77.9996 122.3 77.8996 122 77.8996C121.4 77.8996 120.8 77.7996 120.1 77.7996C119.3 77.7996 118.5 77.6996 117.8 77.7996C117.5 77.7996 117.1 77.8996 116.8 77.8996C115.9 77.9996 115 78.1996 114.2 78.5996C112.8 79.1996 111.8 80.1996 111.2 81.5996C110.8 82.5996 110.6 83.5996 110.7 84.5996C110.5 84.5996 110.4 84.5996 110.2 84.5996C110 84.4996 109.7 84.3996 109.5 84.4996C108.2 84.4996 107 84.4996 105.7 84.4996C105.5 84.4996 105.2 84.4996 105 84.4996C104.8 84.4996 104.7 84.4996 104.5 84.4996C104.6 84.2996 104.8 84.3996 104.9 84.3996C105 84.3996 105.1 84.2996 105.1 84.1996C105.1 84.0996 105.1 84.0996 105.1 83.9996C105.1 83.8996 105.1 83.7996 105.1 83.6996C105.2 81.8996 105.7 80.1996 106.5 78.4996C107 77.5996 107.6 76.6996 108.3 75.8996C109.4 74.7996 110.7 73.9996 112.1 73.3996C113.3 72.8996 114.6 72.5996 116 72.3996C117.9 72.0996 119.8 72.1996 121.7 72.2996C122.6 72.3996 123.5 72.3996 124.4 72.5996C125.2 72.6996 126 72.7996 126.8 72.8996C127.6 72.9996 128.5 73.0996 129.3 73.1996C129.4 73.1996 129.4 73.1996 129.5 73.1996C131.9 73.3996 134.2 73.4996 136.6 73.3996C137.5 73.3996 138.5 73.1996 139.4 73.0996C140.3 72.9996 141.2 72.6996 142 72.4996C143.2 72.0996 144.3 71.4996 145.3 70.6996C145.3 70.7996 145.4 70.6996 145.5 70.5996Z" fill="#438E43"/>
<path d="M212.2 32.3998C212.1 32.3998 212 32.3998 211.9 32.4998C211.7 32.7998 211.4 32.8998 211.1 33.0998C210.8 33.2998 210.5 33.4998 210.1 33.6998C209.8 33.7998 209.5 33.9998 209.2 34.1998C209.1 34.2998 208.9 34.3998 208.7 34.4998C207.3 35.1998 206 35.8998 204.6 36.4998C204 36.7998 203.4 36.9998 202.9 37.1998C202.5 37.2998 202.1 37.5998 201.7 37.6998C201.2 37.9998 200.5 38.0998 200 38.3998C199.4 38.5998 198.9 38.7998 198.3 38.9998C197.8 39.1998 197.4 39.2998 196.9 39.3998C196.5 39.4998 196.2 39.5998 195.8 39.5998C195.5 39.7998 195.1 39.6998 194.8 39.8998C194.7 39.8998 194.6 39.8998 194.5 39.9998C194.3 39.9998 194.1 39.9998 193.9 40.0998C193.8 40.0998 193.7 40.1998 193.6 40.1998C193.3 40.1998 193 40.1998 192.7 40.2998C192.6 40.3998 192.4 40.2998 192.2 40.2998C191.9 40.2998 191.6 40.2998 191.4 40.3998C191.3 40.4998 191.2 40.3998 191 40.4998C190.6 40.4998 190.2 40.4998 189.8 40.6998C189.7 40.7998 189.5 40.6998 189.3 40.6998C188.5 40.6998 187.7 40.6998 187 40.6998C186.8 40.6998 186.6 40.6998 186.4 40.7998C186 40.8998 185.6 40.8998 185.2 40.7998C185 40.6998 184.7 40.6998 184.5 40.6998C183.7 40.6998 182.8 40.6998 182 40.6998C181.7 40.6998 181.4 40.6998 181.2 40.5998C181.1 40.5998 181 40.4998 180.8 40.4998C180.5 40.4998 180.2 40.4998 179.9 40.4998C179.7 40.4998 179.4 40.4998 179.2 40.3998C179.1 40.3998 179 40.2998 178.8 40.2998C178.6 40.2998 178.3 40.2998 178.1 40.2998C178 40.2998 177.8 40.2998 177.7 40.2998C177.4 40.0998 177 40.1998 176.7 40.1998C176.4 40.1998 176.1 40.1998 175.8 40.0998C175.7 39.9998 175.6 40.0998 175.4 39.9998C175.2 39.9998 175 39.9998 174.7 39.9998C174.6 39.9998 174.4 39.9998 174.3 39.9998C173.9 39.7998 173.4 39.8998 173 39.7998C172.8 39.7998 172.6 39.7998 172.4 39.6998C172.3 39.5998 172.1 39.5998 171.9 39.5998C171.5 39.5998 171.1 39.5998 170.7 39.5998C170.6 39.5998 170.4 39.5998 170.3 39.5998C169.9 39.3998 169.6 39.4998 169.2 39.4998C168.3 39.4998 167.3 39.4998 166.4 39.4998C166.1 39.4998 165.8 39.4998 165.6 39.5998C165.5 39.5998 165.4 39.6998 165.2 39.6998C165 39.6998 164.7 39.6998 164.5 39.6998C164.3 39.6998 164.2 39.6998 164 39.7998C163.9 39.8998 163.7 39.8998 163.5 39.8998C163.2 39.8998 162.9 39.8998 162.7 39.9998H162.6C162.2 39.9998 161.8 40.1998 161.3 40.1998C160.9 40.2998 160.5 40.3998 160.2 40.5998C159.8 40.6998 159.4 40.8998 159.1 40.9998C158.8 41.0998 158.4 41.2998 158.1 41.3998C157.4 41.6998 156.7 42.0998 155.9 42.4998C155.5 42.7998 155.1 42.9998 154.7 43.1998C154.5 43.2998 154.2 43.4998 154 43.5998C153.8 43.6998 153.5 43.8998 153.3 43.9998C153 44.1998 152.8 44.3998 152.5 44.5998C152.2 44.7998 152 44.8998 151.7 45.0998C151.6 45.1998 151.5 45.2998 151.4 45.3998C151.3 45.4998 151.2 45.5998 151.1 45.5998C150.7 45.7998 150.3 46.1998 150 46.5998C149.9 46.6998 149.9 46.6998 149.8 46.7998C149.2 47.0998 148.9 47.5998 148.4 47.9998C148.3 48.0998 148.3 48.0998 148.2 48.1998C148 48.5998 147.7 48.7998 147.4 49.0998C147.2 49.2998 147 49.4998 146.9 49.7998C146.8 49.8998 146.7 49.9998 146.7 50.0998C146.6 50.1998 146.4 50.2998 146.3 50.2998C146.3 50.1998 146.3 50.0998 146.3 49.8998C146.5 49.7998 146.5 49.6998 146.5 49.5998C146.6 49.5998 146.6 49.4998 146.6 49.3998C146.7 49.1998 146.9 48.9998 147 48.7998C148 47.3998 149.2 46.1998 150.5 45.0998C152.8 43.0998 155.4 41.4998 158.2 40.1998C159.9 39.3998 161.7 38.7998 163.6 38.4998C165.7 38.0998 167.7 38.0998 169.8 38.1998C170.5 38.1998 171.3 38.2998 172 38.3998C172.9 38.4998 173.7 38.5998 174.6 38.6998C175.4 38.7998 176.1 38.8998 176.9 38.9998C177.5 39.0998 178.2 39.0998 178.8 39.1998C180.6 39.3998 182.4 39.4998 184.3 39.5998C184.6 39.5998 184.9 39.5998 185.2 39.5998C185.7 39.5998 186.2 39.5998 186.7 39.5998C187.3 39.5998 187.8 39.4998 188.4 39.4998C189.7 39.4998 190.9 39.2998 192.2 39.0998C194.6 38.7998 197 38.1998 199.3 37.3998C201.8 36.5998 204.1 35.5998 206.4 34.4998C208.1 33.5998 209.8 32.6998 211.5 31.6998C211.7 31.5998 212 31.3998 212.2 31.2998C212.3 31.2998 212.3 31.2998 212.3 31.3998V31.4998C212.3 31.6998 212.2 31.8998 212.1 32.0998C212.3 31.9998 212.3 32.1998 212.2 32.3998Z" fill="#4B8F44"/>
<path d="M145.9 51.2996C145.8 51.3996 145.8 51.4996 145.7 51.5996C145.7 51.7996 145.6 51.9996 145.5 52.1996C145.4 52.3996 145.2 52.6996 145.1 52.8996C145 53.0996 144.9 53.3996 144.8 53.6996C144.8 53.7996 144.7 53.7996 144.6 53.8996C144.6 53.6996 144.6 53.5996 144.7 53.3996C145 52.5996 145.3 51.8996 145.7 51.1996C145.7 51.0996 145.8 51.0996 145.8 51.0996C145.8 51.0996 145.9 51.1996 145.9 51.2996Z" fill="#609F52"/>
<path d="M145.9 51.2997C145.9 51.1997 145.8 51.0997 145.7 51.0997C145.8 50.7997 145.9 50.5997 146.1 50.3997C146.2 50.3997 146.2 50.2997 146.2 50.1997C146.3 50.1997 146.3 50.1997 146.4 50.1997C146.4 50.4997 146.4 50.6997 146.1 50.8997C146.1 50.9997 146.1 51.1997 145.9 51.2997Z" fill="#4B8F44"/>
<path d="M146.7 49.3999C146.7 49.5999 146.6 49.6999 146.5 49.6999C146.5 49.5999 146.5 49.4999 146.7 49.3999Z" fill="#7EA266"/>
<path d="M146.4 50.0997C146.3 50.0997 146.3 50.0997 146.2 50.0997C146.2 49.8997 146.3 49.7997 146.4 49.6997C146.5 49.8997 146.5 49.9997 146.4 50.0997Z" fill="#7EA266"/>
<path d="M144.6 53.7998C144.6 53.9998 144.6 54.0998 144.4 54.1998C144.4 54.0998 144.4 53.8998 144.6 53.7998Z" fill="#609F52"/>
<path d="M146.8 49.1997C146.8 49.2997 146.7 49.3997 146.7 49.3997C146.7 49.2997 146.7 49.1997 146.8 49.1997Z" fill="#7EA266"/>
<path d="M146.3 50.0996C146.3 50.1996 146.3 50.2996 146.2 50.2996C146.1 50.1996 146.2 50.0996 146.3 50.0996Z" fill="#7EA266"/>
<path d="M49.7 157.5C49.7 157 49.7 156.6 49.7 156.1C49.7 155.8 49.7 155.5 49.8 155.2C49.8 155.1 49.8 154.9 49.9 154.7C49.9 154.2 49.9 153.8 50.1 153.3C50.1 153.2 50.1 153.1 50.1 152.9C50.1 152.6 50.2 152.2 50.2 151.9C50.3 151.5 50.3 151 50.4 150.6C50.6 149.8 50.7 149 50.9 148.1C51.1 147.1 51.4 146.1 51.7 145C52.2 143.3 52.8 141.6 53.5 140C54.1 138.7 54.7 137.3 55.4 136C56.6 133.6 58 131.4 59.5 129.2C60.4 128 61.3 126.8 62.2 125.6C63.2 124.5 64.1 123.3 65.2 122.2C65.8 121.6 66.4 120.9 67 120.3C67.2 120.1 67.5 119.8 67.8 119.6C67.9 119.5 67.9 119.5 68 119.4C68.4 119 68.8 118.6 69.2 118.2C69.6 117.8 70 117.5 70.5 117.1C70.9 116.7 71.3 116.4 71.8 116C72.5 115.5 73.2 114.9 73.9 114.4C75 113.5 76.2 112.7 77.4 111.9C79 110.8 80.7 109.9 82.4 108.9C83.3 108.4 84.1 108 85 107.5C86.5 106.8 88 106.1 89.6 105.5C89.9 105.4 90.2 105.3 90.5 105.2C91.1 105 91.6 104.9 92.2 105C92.5 105 92.8 105.2 93 105.4C93.1 105.5 93.1 105.5 93.2 105.6C93.3 105.7 93.3 105.8 93.3 106C93.2 106.2 93.1 106.4 92.9 106.5C92.7 106.6 92.4 106.8 92.2 106.9C91 107.4 89.9 107.9 88.8 108.4C88.4 108.6 88.1 108.7 87.7 108.9C87.1 109.2 86.6 109.5 86 109.8C85 110.4 83.9 111 82.9 111.6C81.4 112.5 80 113.5 78.5 114.4C77.5 115.1 76.5 115.8 75.6 116.6C74.8 117.2 74 117.8 73.3 118.5C72.7 119 72.2 119.5 71.6 120C70.7 120.8 69.8 121.7 69 122.5C68.6 122.9 68.3 123.2 68 123.6C67.9 123.7 67.8 123.8 67.7 123.9C66.9 124.7 66.1 125.7 65.4 126.6C64.5 127.7 63.7 128.8 62.9 130C62.3 130.8 61.8 131.7 61.2 132.6C60.8 133.3 60.4 133.9 60 134.6C59.7 135.1 59.5 135.6 59.2 136.1C59.1 136.2 59.1 136.3 59 136.4C58.6 137.3 58.1 138.3 57.7 139.2C57.3 140.1 56.9 141.1 56.6 142.1C56.1 143.3 55.8 144.6 55.4 145.8C55.1 146.8 54.9 147.7 54.7 148.7C54.6 149.2 54.5 149.6 54.4 150.1C54.3 150.7 54.2 151.4 54.1 152C54 152.7 53.9 153.4 53.9 154C53.7 155 53.8 156 53.7 157.1C53.7 157.4 53.7 157.7 53.7 157.9C53.7 158.4 53.5 158.7 53.1 159C52.7 159.2 52.3 159.4 51.9 159.4C51.8 159.4 51.7 159.4 51.6 159.4C51.1 159.6 50.6 159.4 50.1 159.3C50 159.3 49.9 159.2 49.8 159.1C49.7 159 49.7 159 49.7 158.9C49.7 158.8 49.7 158.7 49.7 158.5C49.6 158.6 49.6 158.1 49.7 157.5Z" fill="#898C8A"/>
</svg>
