<svg width="1024" height="1024" viewBox="0 0 1024 1024" fill="none" xmlns="http://www.w3.org/2000/svg">
<g clip-path="url(#clip0_16_14)">
<rect width="1024" height="1024" fill="white"/>
<circle cx="512" cy="512" r="512" fill="#00FF00"/>
<path d="M625.125 425.159L598.136 483.682H224.557L245.864 425.159H625.125ZM574.273 540.5L546.716 599.591H224.557L245.864 540.5H574.273ZM694.443 270.898L660.92 342.773C650.314 333.682 638.761 325.443 626.261 318.057C613.761 310.67 600.314 304.799 585.92 300.443C571.527 295.898 556.091 293.625 539.614 293.625C509.311 293.625 482.322 301.769 458.648 318.057C434.973 334.345 416.318 358.776 402.682 391.352C389.235 423.739 382.511 464.08 382.511 512.375C382.511 560.67 389.235 601.011 402.682 633.398C416.318 665.784 434.973 690.121 458.648 706.409C482.322 722.508 509.311 730.557 539.614 730.557C556.28 730.557 571.811 728.379 586.205 724.023C600.788 719.667 614.045 713.985 625.977 706.977C638.098 699.78 648.989 692.205 658.648 684.25L693.023 755.841C672.947 774.023 649.652 787.754 623.136 797.034C596.621 806.314 568.78 810.955 539.614 810.955C492.076 810.955 449.936 798.928 413.193 774.875C376.64 750.822 347.947 716.542 327.114 672.034C306.28 627.337 295.864 574.117 295.864 512.375C295.864 450.443 306.28 397.129 327.114 352.432C347.947 307.735 376.64 273.36 413.193 249.307C449.936 225.254 492.076 213.227 539.614 213.227C569.917 213.227 598.136 218.246 624.273 228.284C650.409 238.133 673.799 252.337 694.443 270.898Z" fill="black"/>
</g>
<defs>
<clipPath id="clip0_16_14">
<rect width="1024" height="1024" fill="white"/>
</clipPath>
</defs>
</svg>
