<svg width="1024" height="1024" viewBox="0 0 1024 1024" fill="none" xmlns="http://www.w3.org/2000/svg">
<g clip-path="url(#clip0_1_2)">
<rect width="1024" height="1024" rx="512" fill="black"/>
<path d="M212.8 595.4V534.6H275.2C274.133 525 273.6 515.4 273.6 505.8C273.6 495.667 274.133 485.8 275.2 476.2H212.8V414.6H284.8C299.733 354.333 329.6 306.067 374.4 269.8C419.733 233.533 476.8 215.4 545.6 215.4C612.8 215.4 667.733 232.2 710.4 265.8C753.6 298.867 780.533 345.533 791.2 405.8H678.4C671.467 375.4 656.533 351.667 633.6 334.6C611.2 317 581.6 308.2 544.8 308.2C506.933 308.2 474.933 317.533 448.8 336.2C423.2 354.867 404.267 381 392 414.6H558.4V476.2H379.2C378.667 485.8 378.4 495.667 378.4 505.8C378.4 515.933 378.667 525.533 379.2 534.6H558.4V595.4H392C403.733 629.533 422.667 655.933 448.8 674.6C474.933 693.267 506.933 702.6 544.8 702.6C581.6 702.6 611.2 694.6 633.6 678.6C656.533 662.067 671.467 639.4 678.4 610.6H791.2C780.533 668.2 753.6 713.267 710.4 745.8C667.733 778.333 612.8 794.6 545.6 794.6C476.8 794.6 419.733 776.733 374.4 741C329.067 704.733 298.933 656.2 284 595.4H212.8Z" fill="white"/>
</g>
<defs>
<clipPath id="clip0_1_2">
<rect width="1024" height="1024" fill="white"/>
</clipPath>
</defs>
</svg>
