<svg width="1024" height="1024" viewBox="0 0 1024 1024" fill="none" xmlns="http://www.w3.org/2000/svg">
<g clip-path="url(#clip0_16_14)">
<circle cx="512" cy="512" r="512" fill="#282828"/>
<path d="M627.72 423.17L600.163 483.682H223.175L245.618 423.17H627.72ZM575.163 540.5L545.902 601.864H223.175L245.618 540.5H575.163ZM699.311 268.341L659.538 353C650.447 345.803 640.126 338.795 628.572 331.977C617.019 325.159 604.235 319.477 590.22 314.932C576.205 310.386 560.864 308.114 544.197 308.114C515.978 308.114 491.072 315.595 469.482 330.557C447.891 345.33 430.94 367.867 418.629 398.17C406.508 428.284 400.447 466.447 400.447 512.659C400.447 558.871 406.508 597.034 418.629 627.148C430.94 657.261 447.891 679.61 469.482 694.193C491.072 708.777 515.978 716.068 544.197 716.068C560.864 716.068 576.205 713.89 590.22 709.534C604.235 705.178 616.83 699.686 628.004 693.057C639.368 686.428 649.122 679.799 657.266 673.17L697.607 757.83C677.341 775.443 653.951 788.701 627.436 797.602C601.11 806.504 573.364 810.955 544.197 810.955C495.713 810.955 452.72 799.117 415.22 775.443C377.91 751.58 348.648 717.394 327.436 672.886C306.224 628.189 295.618 574.78 295.618 512.659C295.618 450.348 306.224 396.845 327.436 352.148C348.648 307.451 377.91 273.17 415.22 249.307C452.72 225.254 495.713 213.227 544.197 213.227C574.5 213.227 602.625 218.057 628.572 227.716C654.709 237.186 678.288 250.727 699.311 268.341Z" fill="white"/>
<circle cx="512" cy="512" r="432" stroke="white" stroke-width="16" stroke-dasharray="16 16"/>
</g>
<defs>
<clipPath id="clip0_16_14">
<rect width="1024" height="1024" fill="white"/>
</clipPath>
</defs>
</svg>
