<svg width="1024" height="1024" viewBox="0 0 1024 1024" fill="none" xmlns="http://www.w3.org/2000/svg">
<g clip-path="url(#clip0_1_2)">
<rect width="1024" height="1024" rx="512" fill="black"/>
<path d="M274.4 594.6V538.6H324.8C324.267 527.933 324 517 324 505.8C324 494.6 324.267 483.4 324.8 472.2H274.4V415.4H332C343.2 354.067 366.133 305.533 400.8 269.8C436 233.533 481.067 215.4 536 215.4C591.467 215.4 635.733 230.333 668.8 260.2C701.867 290.067 721.333 329 727.2 377H637.6C632.267 351.933 620.8 332.2 603.2 317.8C586.133 302.867 563.467 295.4 535.2 295.4C505.333 295.4 480.533 305.8 460.8 326.6C441.6 347.4 427.733 377 419.2 415.4H566.4V472.2H411.2C410.667 482.867 410.4 494.067 410.4 505.8C410.4 517 410.667 527.933 411.2 538.6H566.4V594.6H419.2C427.2 633 441.067 662.6 460.8 683.4C480.533 704.2 505.067 714.6 534.4 714.6C563.733 714.6 586.667 707.667 603.2 693.8C619.733 679.4 631.2 660.733 637.6 637.8H727.2C717.067 685.267 696.267 723.4 664.8 752.2C633.333 780.467 589.867 794.6 534.4 794.6C478.933 794.6 433.867 776.733 399.2 741C365.067 704.733 342.4 655.933 331.2 594.6H274.4Z" fill="white"/>
</g>
<defs>
<clipPath id="clip0_1_2">
<rect width="1024" height="1024" fill="white"/>
</clipPath>
</defs>
</svg>
