<svg width="256" height="256" fill="none" xmlns="http://www.w3.org/2000/svg"><path fill-rule="evenodd" clip-rule="evenodd" d="M129 255c70.14 0 127-56.86 127-127S199.14 1 129 1 2 57.86 2 128s56.86 127 127 127Zm-1.5-22c58.27 0 105.5-47.23 105.5-105.5S185.77 22 127.5 22 22 69.23 22 127.5 69.23 233 127.5 233Z" fill="#262626"/><circle cx="127.5" cy="127.5" r="105.5" fill="url(#a)"/><circle cx="127.5" cy="127.5" r="105.5" fill="url(#b)" fill-opacity=".2"/><g filter="url(#c)" fill-opacity=".4"><path d="M105 18c-.4-.4-6.17-2.17-9-3l-25.5 8.5-27.5 20 5.5 2.5c.5 1.17 1.7 3.7 2.5 4.5.8.8 3 .33 4 0h2.5c1.17 1.17 4 3.8 6 5a8.9 8.9 0 0 0 5.5 1c.17.67.7 2.3 1.5 3.5.8 1.2.33 2.83 0 3.5.17.33.8 1.2 2 2s3.17.33 4 0c.33.67 1.3 2 2.5 2s3.5-1.33 4.5-2c.83.5 3 1.6 5 2 2 .4 4.17-1.83 5-3h5c2 0 3.17-.67 3.5-1 .33-.67 1-2.3 1-3.5 0-1.2-2-4.5-3-6 .33.5 1.2 1.2 2 0l1-1.5 3 1.5h3l3-1.5h4c.67.5 2.4 1.5 4 1.5s2-1 2-1.5h3c0 .5.2 1.8 1 3s2 2.5 2.5 3c1.83.5 6.5 1.5 10.5 1.5s5.67-2.33 6-3.5l-1.5-2.5-3.5-3.5c-.83-.33-2.7-1.3-3.5-2.5-.8-1.2-4.33-2.83-6-3.5.5.17 1.9.4 3.5 0a3.6 3.6 0 0 0 2.5-2.5c.33.33 1.7 1.1 4.5 1.5 2.8.4 5.5-.83 6.5-1.5-.33-.5-1.3-1.7-2.5-2.5s-4.5-1.33-6-1.5v-2.5c-.17-.67-.7-2.2-1.5-3-.8-.8-2.67-1.33-3.5-1.5l-3.5 1.5c-.67-.5-2.7-1.5-5.5-1.5s-7.17 1-9 1.5c-.5-.83-1.8-2.7-3-3.5a118 118 0 0 0-5-3l2-1v-3l-3-1c-.5-.83-1.6-2.6-2-3Z" fill="url(#d)"/><path d="M143 21c0-1.2-1.67-2.83-2.5-3.5L162 20l23.5 15.5L182 38c-.83.17-2.8.4-4 0-1.2-.4-2.5-1.83-3-2.5-.83.33-2.7 1.1-3.5 1.5-.8.4-3.67-1.5-5-2.5l-1-2c-.5-.17-1.9-.5-3.5-.5s-4-.67-5-1c-.5.5-1.9 1.5-3.5 1.5s-3-1.67-3.5-2.5c-.5.33-1.8 1-3 1s-1.83-2-2-3c-.67 0-2.2-.2-3-1-.8-.8-.33-2 0-2.5.33-.67 1-2.3 1-3.5Z" fill="url(#e)"/><path d="M32 71c-4-1.2-8.33-.5-10 0L6 94l7.5 3c1.83.33 5.9 1.2 7.5 2 1.6.8 4.67.33 6 0l6 1c2.4.4 5.33-1.83 6.5-3 .5-.17 1.9-.4 3.5 0s3.33-1.17 4-2c.67-.33 2.4-1 4-1s3.67-2.67 4.5-4c.83.33 3.5 1 7.5 1s5-1.33 5-2c1.17.17 3.7.4 4.5 0 .8-.4 1-1.17 1-1.5a7.42 7.42 0 0 0-3-3c-1.6-.8-4-1-5-1 0-.67-.3-2.2-1.5-3-1.2-.8-2.5.33-3 1l-3-2h-2.5L52 77l-5-2c-2-.8-6.83-1-9-1-.33-.5-2-1.8-6-3Z" fill="url(#f)"/></g><path d="m56.11 93.31.05.1.1.03c.4.18.72.56 1.02.86l.23.22.1.1c.08.08.08.08.19.13l.1.25.1.05c0 .09 0 .09-.05.2l-.2.14h2.2v.3h.61c0 .59 0 .59-.05.7l-.3.12c-.17.07-.33.13-.49.24-.14.1-.22.1-.39.08l.1.1-.1.08-.16.11-.15.1-.29.22c-.11.09-.11.09-.21.09v-.15l-.16.15.1.1-.38.3-.1.09-.74.55.12.1c.13.1.13.1.18.2h-.1v.25l.15-.2a2.6 2.6 0 0 1 .53.32c.1.09.1.15.14.28l.3.2c-.07.2-.21.32-.4.44-.33 0-.56-.2-.81-.37a18.8 18.8 0 0 0-2.68-1.5l-.66-.31.06-.15v.1l.15-.05c.06-.12.1-.25.14-.38.08-.16.18-.25.32-.37.25 0 .43.1.64.24l.12.08.13.08c.26.16.52.32.8.45a733.8 733.8 0 0 0 .83-.7c.23-.2.4-.23.7-.2h.1c-.03-.2-.03-.2-.15-.34l.46-.4a2067 2067 0 0 0-3.37.03h-.3c-.57 0-1.13.02-1.7.07v-.75h.2l.1.2h.16l.05-.15h.1v-.35l.09.08c.15.1.25.1.43.07l.15-.1h.48a50.1 50.1 0 0 1 1.62.03h.33l.8.02-.16-.2h.1v-.1h-.26l-.06-.14c-.07-.16-.07-.16-.22-.19l-.12-.01c-.1-.15-.1-.15-.14-.27a.81.81 0 0 0-.34-.32c-.09-.06-.09-.06-.16-.13a.72.72 0 0 0-.27-.16l-.17-.06c.07-.3.22-.43.46-.6Zm1.38 1.84-.05.15.36-.05v-.1h-.3Zm2.15.3-.1.04v.1l.2-.1-.1-.05Zm-.87.04.1.3.28-.02h.15c.14-.02.14-.02.24-.13h-.11l-.14.01h-.26l-.1-.16h-.16Zm-2.1.45.2.05-.2-.05Zm.26.1.72.1v.1h.61v-.15a68.8 68.8 0 0 0-.72-.1l-.15-.02-.14-.02-.12-.01c-.11 0-.11 0-.2.1Zm-3.02-.05v.05h.1c.26.02.42.06.62.25l-.05-.2c-.17-.11-.23-.11-.42-.1h-.24Zm2.4 0-.1.15.46-.1v-.05h-.35Zm-2.8.05v.25h.15l.2-.25h-.36Zm6.8 0 .1.1v-.1h-.1Zm-.1.05c-.13.15-.13.15-.1.35l.14-.05.06-.3h-.1Zm-5.02.1v.05h.26v-.05h-.26Zm4.3.2c-.05.12-.05.12-.05.25.24 0 .28-.05.46-.2l-.05-.15a.69.69 0 0 0-.36.1Zm-.26.1-.15.2.25-.1v-.1h-.1Zm-1.02.74v.15-.15Zm-.05.25c-.14.06-.14.06-.26.15l-.05.15a.84.84 0 0 0 .41-.25l-.1-.05Zm-3.79.25-.05.25.2.15.1-.05c-.04-.12-.1-.23-.15-.35h-.1Zm3.33 0-.2.2.25-.1-.05-.1Zm-.26.2-.05.1h.1l-.05-.1Zm-2.6.1c-.06.07-.06.07-.1.15.25.18.42.27.76.24.1.05.1.05.14.18.05.13.05.13.15.16.15.01.28-.01.42-.04-.12-.13-.25-.2-.4-.3l-.11-.1c-.25-.16-.56-.3-.87-.3Zm2.04.24c-.07.1-.07.1-.1.2l.1.1c.1-.01.1-.01.2-.05l-.15-.05c.1-.15.1-.15.24-.18l.12-.02v-.14c-.16 0-.27.07-.41.14Zm-.56.5a12.6 12.6 0 0 0 .21.34c.1.13.2.15.35.2l.15.2h.1v-.3l-.18-.05a.7.7 0 0 1-.37-.25l-.11-.14h-.15Zm1.79.75-.06.14h.1l-.04-.14Zm-.62.24v.05h.41v-.05h-.4Z" fill="#E4C389"/><path d="m56.9 91.18.16.04c.13.05.13.05.19.15a123.45 123.45 0 0 0 .1.24l.04.11-.3.2c.26.52.94 1.06 1.45 1.35.17.12.2.24.23.44l.18-.01c.24 0 .37.07.57.19.33.2.67.34 1.04.46l.14.05.32.1v.1l.77.15c0 .2 0 .2-.1.3l-.1.1-.16.3c-.35-.03-.6-.13-.92-.28l-.14-.07C58 93.98 58 93.98 57.49 93.16c-.12-.15-.12-.15-.3-.22-.15-.04-.22-.12-.32-.23l-.11-.1-.09-.1a.9.9 0 0 0-.37.28 127.43 127.43 0 0 0-.27.32c-.33.4-.76.67-1.18.96l-.45.34a5.18 5.18 0 0 1-2.43 1.18l-.03-.08c-.1-.17-.25-.22-.43-.31V95l.08-.03c1.9-.68 3.8-1.64 4.7-3.5l.18-.3c.18-.05.26-.03.44.01Zm.23.5-.05.1.2-.1h-.15ZM55.8 93l.06.15.15-.25c-.12 0-.12 0-.2.1Zm-3.88 2.29c.09.1.09.1.2.1l.13-.02.12-.01c.12-.02.12-.02.21-.12-.05-.07-.05-.07-.16-.06-.18 0-.33.05-.5.1Zm4.14-10.97.37-.01h2.14l1.38.01.05.35h.51c-.06-.07-.06-.07-.2-.05h-.16l-.05-.2.2-.1.1.15h.16v.2l.12-.1c.14-.1.14-.1.34-.1v3.97h-.77l-.05-.2h-.56V88a100.52 100.52 0 0 1-2.86.05v.54H56v-.33a1008.89 1008.89 0 0 0 0-2.66v-.54c0-.14-.01-.27-.03-.4-.02-.19-.02-.19.08-.34Zm2.92.6h.6c-.08-.1-.08-.1-.19-.11h-.22c-.1 0-.1 0-.2.11Zm-2.2.1v.84h2.86v-.84h-2.86Zm-.46.2.05.15-.05-.15Zm4.34.1-.05.2.1-.2h-.05Zm-.1.44.05.1-.05-.1Zm-.61.55v.3c.18-.06.24-.09.36-.25-.11-.1-.23-.18-.36-.05Zm-.31.1.05.3.16-.05.05-.3c-.12 0-.12 0-.26.05Zm-2.86.1v.8h2.86v-.8h-2.86Zm3.73.64.05.1-.05-.1Zm-.72.4v.15l.26-.05v-.15c-.15-.01-.15-.01-.26.05Zm-2.8.3c0 .03.02.06.04.1h.2v-.1c.15.02.28.05.42.1l-.06-.15a.9.9 0 0 0-.6.05Zm1.27 0v.1h.4v-.1h-.4Zm2.35.15.05.1-.05-.1Zm-.36.3.06.1.1-.05-.16-.05Zm-3.95-8.15.25.02h.12c.3.02.3.02.41.13 0 .12-.03.18-.12.27-.11.11-.14.23-.18.38l-.1-.05-.16.1h.26v.9c1.5-.47 1.5-.47 2.88-1.18.13-.07.13-.07.29-.07l.15.2.12-.05.29-.1.1.1c.14.14.28.23.44.33.1.08.1.15.12.26a2.1 2.1 0 0 1-.54.16l-.16.03-.34.07c-.3.05-.6.12-.9.21a.92.92 0 0 1-.46-.02V82c-.65.21-.65.21-.87.2-.15-.01-.15-.01-.27.07-.16.09-.3.12-.49.16l-.18.04-.13.03a39.58 39.58 0 0 0 0 .41c-.01.13-.01.13.05.23.48.16.97.16 1.47.16h.33c.63.03.63.03 1.21-.14a.98.98 0 0 0 .23-.48l.05-.19.03-.14.09.04.36.16.12.06c.04 0 .07.02.1.04l.05-.2a5.76 5.76 0 0 1 .66.3l.1.04c-.08.34-.22.59-.45.85l-.08.08c-.74.62-2.76.35-3.66.29l-.15-.01-.13-.01c-.3-.03-.61-.08-.9-.2-.2-.27-.2-.58-.23-.9v-.11l-.02-.35-.01-.11a26.4 26.4 0 0 1-.05-1.54v-.43c.02-.2.11-.2.3-.2Zm-.14.95.05.1-.05-.1Zm.51 1.64-.05.1h.1l-.05-.1Zm.46 1.04v.05h.46v-.05h-.46Zm.46.05v.05l.52.05c-.2-.1-.3-.11-.52-.1Zm1.54 0-.05.1.56-.05v-.05h-.51Zm-.82.05v.05h.3v-.05h-.3ZM53.7 80l.93.05v.2l-.1.04c-.12.06-.12.06-.16.21l.05.1v1.24l1.33-.05v.6h-.15v.15l-.5-.03h-.28l-.13-.01c-.11-.01-.11-.01-.27-.06v.12a35.23 35.23 0 0 1 .04.75c0 .46 0 .46-.11.63-.2.17-.37.2-.64.23-.15.1-.15.1-.26.2l.1-.05c.15-.04.25-.05.41-.05.27.01.27.01.51-.1.1-.14.1-.14.16-.3l-.1-.04.42-.22.13-.07.12-.06a369.33 369.33 0 0 1 .3-.15l.1.65-.47.24-.14.07-.13.07-.12.06c-.1.05-.2.08-.32.1v.11a245.81 245.81 0 0 1 .02 2.12v.3c0 .73 0 .73-.26.99-.65.33-1.39.33-2.1.3a84.06 84.06 0 0 0-.03-.2V88c-.02-.13-.02-.13-.13-.26v-.15l.35.02.2.01c.16.02.16.02.27.07l-.06-.3.57.05v-2.23l-.51.25-.1-.1-.13.05-.15.07-.16.07c-.13.05-.13.05-.23.05l-.15-.23a7.3 7.3 0 0 0-.26-.41l.15-.05a350.04 350.04 0 0 0 .78-.26l.34-.11.11-.04c.17-.04.17-.04.3-.14l.01-.42v-1.5h-.15a200.71 200.71 0 0 1-1.13.08h-.1l-.26.02c-.05-.05-.05-.05-.06-.18v-.3c.01-.12.01-.12.06-.17l.41.02.12.01.29.02v-.15l.87.05-.05-.25a13.23 13.23 0 0 1-.04-.45l-.02-.3a2264.28 2264.28 0 0 1-.04-.74l.56.05V80Zm.21 1.35-.3.2.05.14c.12-.05.2-.1.3-.2l-.05-.14Zm.16.04-.06.15h.1l-.04-.15Zm-.72.1v.3h.2l-.05-.25-.15-.05Zm.72 1.64.05.15-.05-.15Zm-.2.05-.06.2.2-.05-.05-.15h-.1Zm-.32.25.06.25.1-.05-.16-.2Zm1.8.2c.01.16.03.23.15.35v-.45c-.07 0-.07 0-.16.1Zm-2 3.57v.2h.3l-.04-.15-.26-.05Zm1.53-18.76c.81.24.81.24 1.08.54-.05.15-.05.15-.2.24-.2.13-.2.13-.47.46l4.35-.05c-.2.39-.57.66-.91.94a5.98 5.98 0 0 1-.98.89l2.6.06.03.8.01.25c.02.57.02 1.15.02 1.73H58.9c-1.53 0-3.05-.02-4.58-.05v.6c-.07 0-.13.02-.2.04v.1l.2.05a9.92 9.92 0 0 1 .03.45c-.03.15-.03.15-.15.23l-.13.06-.06.1.16.02a9.62 9.62 0 0 0 5.56.11c.19-.09.33-.17.4-.37.04-.1.06-.2.09-.31l.02-.12.07-.27.09.05.12.07.12.07c.11.05.21.09.33.1l.05-.24.77.3c-.13.5-.29 1.02-.77 1.29-.61.26-1.31.26-1.97.26h-1.2c-.99 0-1.98-.01-2.96-.06h-.13c-1.17-.06-1.17-.06-1.51-.35a1.6 1.6 0 0 1-.18-.86v-.64l-.02-.5v-.32c0-.44-.02-.89-.04-1.33v-.18l-.02-.39h-.15l-.3-.2-.12.1c-.14.1-.14.1-.24.1a2.18 2.18 0 0 1-.37-.2l-.14-.07c-.11-.08-.11-.08-.21-.18.9-.55.9-.55 1.17-.64v-.1l.21-.16c.2-.14.36-.3.52-.48l.33-.35c.45-.48.84-1.03 1.2-1.6Zm-.55 2.4c-.1.13-.21.25-.32.36-.13.12-.13.12-.2.27a54.78 54.78 0 0 0 1.7.07c.83.09.83.09 1.58-.19.17-.16.3-.33.43-.52.08-.12.16-.23.25-.33l.07-.1.06-.08a191.3 191.3 0 0 0-2.18-.1c-.69-.04-1.02.04-1.4.62Zm-1.61.36a.66.66 0 0 0-.14.36c.27-.01.44-.16.62-.34v-.1c-.26-.02-.26-.02-.48.08Zm4.82.27.05.2h.31l.05-.1h-.3v-.1h-.1Zm-3.42.1c.1.1.1.1.23.1h.12l.06-.1h-.41Zm.2.5v1.68h2.1v-1.13c0-.19-.03-.37-.05-.56h-2.05Zm2.87 0v1.68h1.94v-1.69h-1.94Zm1.99.98.05.1-.05-.1Zm-2.66.3.05.2-.05-.2Zm0 .3.03.08c.03.15-.02.23-.08.37l.05.1c.1-.01.1-.01.2-.05.08-.15.1-.24.1-.4l-.3-.1Zm2.7.32-.14.13c.14 0 .27-.02.4-.05v.2h.1l.06-.35c-.2-.07-.27-.06-.42.07Zm-4.85-17a11.46 11.46 0 0 1 .57.06l.3.04v.2l.2.05v.2h.1l-.04.08c-.06.12-.06.12-.1.26h2.2v-.54h.2v-.25c.34-.01.64.02.97.1a2.8 2.8 0 0 1-.1.4c-.06.14-.06.14-.05.3h2.66v.74h-.67l-.1.25a93.4 93.4 0 0 1-1.9-.1c0 .18-.03.36-.04.54h-.31l.1.3-.12.04c-.15.07-.17.1-.24.26l-.1.1 3.12.05v.7l-.66-.06-.05.25-1.54-.1.28.22c.37.28.71.57 1.05.87-.03.19-.09.25-.24.36a.65.65 0 0 1-.53.14l-.05.05 1.08.05-.05 2.13.76-.05h.56v.32l.01.18c0 .15 0 .15-.06.2h-.76v.1c-.84 0-1.67 0-2.5-.02a85.7 85.7 0 0 0-2.77-.04h-.34c-.9 0-1.82.01-2.73.06v-.1a1.6 1.6 0 0 0-.52-.05c-.29 0-.29 0-.4-.05v-.7c.47 0 .9.02 1.38.05v-2.13h1.56c.25 0 .5.01.74.05v-.1l-.1-.02c-.1-.03-.1-.03-.15-.08l-.01-.26v-2.56c-.08-.03-.16-.04-.25-.06l-.05-.15h-.2v-.1h-.1v-.4H54l.08-.08c.1-.13.09-.2.08-.36l.05-.1-.15-.05-.05.1c-.06.1-.06.1-.21.15-.34-.07-.34-.07-.46-.25l-.1.1c.02.14.02.14.1.25l.36-.05.2.3a5.7 5.7 0 0 1-.78.07l-.13.01-.32.02-.05-.15h-.1l-.05-.1h-.61v-.15h-.1v-.75l2.55.1v-.8c.02 0 .04-.02.05-.04Zm3.53.3.05.1-.05-.1Zm.05.1v.15l-.1.04.2-.05-.05-.14h-.05Zm-3.17.2.05.1-.05-.1Zm.62.5.05.19h.25v-.2h-.3Zm-.06.74v.4c.19 0 .38.03.57.04.05.33.05.33.05.5l-.05.05v1.34a3.2 3.2 0 0 0 1.44-1.68l.14-.3h.16v-.4a437.68 437.68 0 0 0-1.76 0h-.28l-.12-.01c-.1 0-.1 0-.15.06Zm2.15.6v.1h.1v-.1h-.1Zm-2.15.29-.1.1.16.05-.06-.15Zm2.36.4c-.05.15-.05.15 0 .3l.22-.02.13-.01.1-.03.06-.1-.2-.04a1.4 1.4 0 0 1-.31-.1Zm-2.46.6.05.1-.05-.1Zm1.69.57-.1.18a1.6 1.6 0 0 1-.26.33.67.67 0 0 1-.36-.09l-.1-.05c-.1-.05-.1-.05-.2-.2v.79c0 .11 0 .11.05.25 1.02.03 2.04.06 3.07.05a2.93 2.93 0 0 0-1.08-1.1h-.1c.1-.25.2-.4.41-.59-.6-.07-1-.12-1.33.43Zm1.18-.13v.1l.25.05c.12-.1.12-.1.1-.25-.2-.02-.2-.02-.35.1Zm-2.87.4-.05.15.15.04-.05-.2h-.05Zm-.1.3.05.1.05-.1h-.1Zm-.72.84c.18.1.36.13.57.15l.1-.05v-.1a1.62 1.62 0 0 0-.67 0Zm3.79.05.1.25c.25-.07.25-.07.41-.25-.06-.07-.06-.07-.23-.06-.17 0-.17 0-.28.06Zm-4.04.54v1.17c-.02.12-.02.12.05.17h1.02v-1.34c-.55-.04-.55-.04-1.07 0Zm1.94 0v1.34h1.13v-1.34H56.1Zm1.94 0v1.22c-.01.12-.01.12.06.17h.97v-1.39h-1.03Zm-2.45.2-.1.2.1.05.05-.25h-.05Zm3.58.5v.15l.15-.05v-.1h-.15Zm-.72.74v.1l.1-.05-.1-.05Z" fill="#E4C389"/><path d="M17 152c1.36.23 2.7.47 4.06.72l.13.02 1.46.27 2.97.54.15.02c1.58.3 3.16.58 4.74.86l.15.03 1.79.32 10.61 1.92.33.06a42442.05 42442.05 0 0 1 2.15.39l.5.09 7.7 1.4.34.06 2.7.48 4.82.88a12769.37 12769.37 0 0 0 20.8 3.75l.14.03 4.62.84.85.15a55276.47 55276.47 0 0 0 27.03 4.9l4.9.88 2.34.42.13.02 11.71 2.12 4.37.8.15.02 1.74.32c.5.1 1 .18 1.51.27l.51.1.13.02 1.85.34a.99.99 0 0 1-.18.4l-.09.12-.09.12-.19.27-.1.13-.34.5-.67.97-.66.95-1.25 1.8a170.36 170.36 0 0 0-1.65 2.38l-.5.74-1.16 1.67-.95 1.37-1.15 1.66-.95 1.36-1.15 1.66a261.21 261.21 0 0 0-2.43 3.52l-.5.7-.59.85-.85 1.23-.26.39-.09.12-.28.41-.09.13-.08.12-.08.1c-.1.13-.16.14-.32.16l-.2.03h-.12l-.38.05-.28.03-.75.08-.62.07a6722.81 6722.81 0 0 1-3 .33l-1.3.14-.78.09-.74.08-.27.03a41.44 41.44 0 0 1-.47.05 5.21 5.21 0 0 1-1.47-.07l-.5-.07-.54-.07-.95-.13-1.4-.18-2.37-.31-3.39-.45-1.36-.18-.15-.02-2.3-.3c-2.63-.36-5.27-.7-7.9-1.05l-.13-.02-3.02-.4-1.87-.25-.12-.01-.5-.07-5.99-.79-.1-.01-6.03-.8-.18-.02-8.5-1.12-.37-.04-1.34-.18-1.26-.16-.19-.03-14.75-1.94-.13-.02-5.18-.68-.26-.04-.13-.02-7.46-.98-.11-.02-1.02-.13-2.75-.36-2.2-.3h-.11l-5.63-.75-1.29-.17-.17-.02-.7-.1-1.99-.25-1.2-.16-.8-.1-.49-.07-.22-.03-.3-.04-.16-.02a3.3 3.3 0 0 1-.45-.12v-.15l.11-1.93.02-.37.03-.54v-.15l.04-.57v-.15a68.86 68.86 0 0 0 .05-3.23 1337.74 1337.74 0 0 0 0-2.3c0-1.87 0-3.75-.1-5.62l-.03-.75a63.1 63.1 0 0 0-.34-4.54 57.15 57.15 0 0 0-.26-2.8c0-.08 0-.08-.02-.15l-.01-.13-.01-.11c0-.09 0-.09-.06-.13a3.85 3.85 0 0 1-.06-.5l-.02-.16-.06-.66-.05-.47-.02-.15-.01-.14-.01-.13c-.01-.09-.01-.09-.07-.14l-.06-.53c0-.19 0-.19-.08-.34l-.04-.3-.02-.2c0-.1-.02-.19-.03-.29 0-.1-.02-.18-.03-.28l-.01-.17c0-.13 0-.13-.07-.18-.05-.3-.05-.58-.05-.88h-.1v-.1l-.02-.12v-.12c-.01-.1-.01-.1-.07-.15a3.24 3.24 0 0 1-.03-.2l-.01-.11-.02-.25-.02-.12v-.11c-.01-.09-.01-.09-.07-.13l-.03-.3c0-.1 0-.1-.07-.14l-.06-.54c0-.19 0-.19-.08-.34l-.04-.34c0-.1 0-.1-.06-.15l-.04-.3c0-.1 0-.1-.06-.14l-.03-.3c0-.09 0-.09-.07-.14l-.06-.53c0-.19 0-.19-.08-.35v-.44H17V152Z" fill="url(#g)"/><g filter="url(#h)"><path d="M124.77 172.4 20.43 153.22l14.53 32.59 42.3 3.62.02-1.44-2.41-1.5-25.7-5.75c.97-.14 5.06-.3 13.62.24 8.56.53 28.19 3.22 36.93 4.5l2.43.04-.93-2.43 2.5-3.33 4.9-2.33 2.94-.91c.82-.8 2.67-2.37 3.45-2.36l5.84.1a5.23 5.23 0 0 0 3.92-1.86Z" fill="url(#i)"/></g><path d="M205.5 59.94c2 .4 5.5 1.17 7 1.5l25 13.5 8.5 65-33.5 65.5-35.5 31-83-1.5c3.33-8.66 11.2-29.2 16-42 4.8-12.8 16.67-27.66 22-33.5-2.67-1.66-8.8-5.3-12-6.5-4-1.5-6.5-7-8.5-10-1.6-2.4 2-7.33 4-9.5l-2-4 2-4v-2.5l2-4 2.5-4-2.5-3c-1.17-1.16-3.6-4-4-6-.5-2.5 3.5-7 6.5-8 2.4-.8 3.67-2.33 4-3 .33-.83 2.4-5 8-15s15-14.5 19-15.5v-3c.5-.66 1.2-2.3 0-3.5-1.2-1.2-.5-2.16 0-2.5l4-2 2.5-2.5-2.5-2.5c2.5-.33 8.7-.8 13.5 0 4.8.8 10.33 3.67 12.5 5l4-2.5c1.5-.5 5.4-1.2 9 0 3.6 1.2 5.17 6.5 5.5 9 1.17-.16 4-.4 6 0Z" fill="url(#j)"/><path d="M162.47 144.16c.46 0 .91-.01 1.37-.03 1.6-.03 2.56.47 3.86 1.34 1.04.69 2.01 1.13 3.2 1.52a6.4 6.4 0 0 1 3.19 2.4c.57.7 1.21 1.19 1.94 1.7.58.41 1.13.86 1.69 1.3.65.51 1.2.89 1.95 1.26.74.37.98.64 1.41 1.34.1.6.1.6.13 1.23.15 1.93.98 2.98 2.28 4.35.36.46.36.46.36 1.22l.44.2c.58.3 1.08.64 1.6 1.02l.53.38c.73.67.93 1.22 1.03 2.2l-.08.73c-.75.5-.75.5-1.65.68-.92.24-.92.24-1.24 1.03-.41 2.16 0 4.38.88 6.35l.25.75a607.45 607.45 0 0 0 1.71 3.08c.53.67.81.88 1.53 1.27 1.55.89 2.2 2.46 2.92 4.04a5.4 5.4 0 0 0 2.7 2.31c.87.47.92.72 1.2 1.64.2 1.34.34 2.7-.36 3.9-.45.48-.92.93-1.4 1.39l-.75 1.26h-.5l-.03.96c-.13 4.3-.13 4.3-1.23 6.34l-.25.54c-.26.47-.26.47-.78.97-.71.74-.73 1.26-.73 2.27l-.5.75h-.76l-.04.47c-.1.65-.2 1.2-.47 1.8-.92.36-.92.36-1.47.5-.94.44-1.34 1.3-1.88 2.16-.38.56-.7.91-1.24 1.32-.72.5-.72.5-1.05 1.23-.56.83-1.2.84-2.15 1.08-.9.74-1.15 1.7-1.51 2.77l-.26.75c-1.23 3.56-1.74 7.7-.19 11.24.23.72.16 1.14-.06 1.86-.54.54-1.74.4-2.5.44l-1.44.12-.77.06a124.7 124.7 0 0 0-32.76 6.89l-.6.21c-.98.34-.98.34-1.77.99-.57.5-.97.45-1.72.45h-.8a1739.82 1739.82 0 0 0-1.63-.01 15.06 15.06 0 0 1-4.3-.59 16.64 16.64 0 0 0-3.17-.3h-1.51l-1.65-.02-4.7-.05c-4.1-.03-8.2-.11-12.3-.45-2.5-.2-5-.28-7.5-.33a596.94 596.94 0 0 1-3.05-.05c-1.28-.03-1.28-.03-1.84-.3-.1-1.14-.1-1.14.35-1.72.48-.66.68-1.27.93-2.05l.28-.9a1716.86 1716.86 0 0 0 1.82-5.83 109.2 109.2 0 0 1 3.18-8.83l.78-2 .24-.6c.4-1 .83-1.97 1.32-2.93.8-1.58 1.42-3.23 2.06-4.9a50.78 50.78 0 0 1 2.37-5.5c.42-.93.79-1.84 1.1-2.81 2.2-6.67 5.68-13.19 9.13-19.3.58-1.03 1.1-2.08 1.63-3.15a45.95 45.95 0 0 1 5.67-8.82 52.58 52.58 0 0 0 3.37-4.63c.64-1 1.4-1.78 2.25-2.6.47-.46.9-.94 1.33-1.45a46.2 46.2 0 0 1 2.68-2.8c.67-.66 1.3-1.34 1.91-2.06a27.36 27.36 0 0 1 6.9-5.5l.46-.29c5.2-3.19 12.5-7.09 18.66-5.26Zm-31.95 26.7c-.83.96-1.6 1.93-2.17 3.08-.51 1.03-1.32 1.7-2.16 2.47-.48.44-.48.44-.56.97-.17.65-.52.93-1 1.38a27.76 27.76 0 0 0-3.41 4.43l-.5.5c.16.79.16.79.75 1.01l.21-.34a48.9 48.9 0 0 1 7.1-8.97c.48-.5.74-.91 1.02-1.53.3-.64.58-1.16.97-1.75.05-.66.05-.66 0-1.26h-.25Zm52.83 13.34-.3.33c-.46.42-.46.42-1.06.75-2.23 1.44-3.58 4.46-4.18 6.97a33.12 33.12 0 0 0-.17 3.04c0 .27-.02.53-.03.8l-.05 1.96h.5l.03-.52.16-2.36.05-.82a10.7 10.7 0 0 1 1.27-4.61l.4-.79c1.6-2.93 1.6-2.93 2.81-3.65l.57-.35v-.75Z" fill="#252525"/><path d="M154.45 64.01c1.25.01 2.04.08 3.06.8.52.35 1.04.51 1.63.71 1.62.63 2.8 1.7 4.08 2.85l.59.48c2.9 2.55 4.66 6.62 5.45 10.35.1.37.18.75.27 1.13a37.63 37.63 0 0 1 1 8.57c.03.67.04 1.34.05 2l.02.63c0 1.8-.38 3.33-1.37 4.85-.92.88-1.85 1.4-2.99 1.95a1393.62 1393.62 0 0 1-4.77 2.38 30.89 30.89 0 0 0-3.21 1.8l-1.35.82c-1.5.9-2.87 1.79-4.13 3-.37.31-.37.31-.88.31l-.19.43c-.36.68-.8 1.24-1.28 1.84l-.52.65c-.52.6-.52.6-1.06 1.14-.51.5-.51.5-.97 1.23l-.75.22-.76.28-.22.62c-.28.64-.28.64-1.16 1.03-1.15.4-2.33.67-3.52.92l-.63.14-1.51.32v.5c-.7.53-1.42 1-2.14 1.5-.67.55-.74.7-.88 1.52l-.35.35c-.56.57-.76 1.18-1.05 1.92-.33.83-.62 1.52-1.12 2.26-.07.9-.1 1.79-.12 2.69-.04 1.15-.14 1.92-.88 2.85-.57.52-.57.52-1.21 1.01l-.68.52-.63.49c-.96.77-.96.77-1.85 1.62-.5.47-1.02.82-1.6 1.2l-.6.4-.48.3.13.74c.21 1.54.36 2.9-.38 4.3v.5l.76.25-.35 1.17-.2.65c-.14.48-.3.95-.48 1.41-.33 1.15-.34 2.26-.37 3.45-.02.46-.06.92-.11 1.38l-.5.25-.32.87c-.44.9-.44.9-1.1 1.29a5.16 5.16 0 0 1-3.8-.86l-.57-.54-.7-.5-.56-.5v-1.01h.5l.13-3.3.04-.93c.07-1.82.07-1.82.07-3.64.02-.96.38-1.25 1.02-1.95l.7-1.06a20.68 20.68 0 0 1 3.26-4.12c.42-.48.41-.76.4-1.39.03-.99.03-.99-.58-1.5-.47-.1-.47-.1-1-.15l-.6-.08-1.26-.14c-1.13-.15-1.54-.23-2.32-1.12-.36-.77-.36-.77-.37-1.43.63-1.42 2.19-2 3.53-2.61l.62-.28c.73-.25 1.46-.4 2.21-.57 2.4-.4 2.4-.4 4.47-1.42v-1.26c-1.05-.08-1.54.1-2.38.73-1.25.88-2.34 1.42-3.91 1.29l-.25-.26c-.86-.07-1.35-.1-2.1.37-.92.54-1.86.63-2.93.64-.25-.25-.25-.25-.38-1.15 0-1.23.6-1.83 1.44-2.68l.45-.45.48-.61c.8-.6 1.56-.55 2.53-.65.55-.45.55-.45.67-1.07a4.61 4.61 0 0 1 2.35-2.2c.73-.07 1.42-.05 2.15 0 .82 0 1.23-.27 1.88-.76.5-.17 1-.35 1.5-.5-.16-.25-.32-.5-.5-.75v-.76l-.64.02a237.7 237.7 0 0 1-3.42.06l-1.49.02-.9.01a4.5 4.5 0 0 1-2.35-1.12c-.4-.17-.8-.33-1.21-.47a10.5 10.5 0 0 1-3.57-2.05 5.8 5.8 0 0 1 0-3.27h-.5a7.6 7.6 0 0 1 1-4.89c.87-1.1 1.92-1.43 3.27-1.66h1.77c.71-.4 1.34-.87 1.99-1.38a7.83 7.83 0 0 1 3.4-1.51c3-.63 4.49-2.05 6.13-4.54.54-.85 1.05-1.7 1.52-2.6.55-1.04 1.18-2.05 1.8-3.06l.38-.67c.4-.63.86-1.07 1.38-1.6l.25-.75h.5l.18-.4c.44-.83.98-1.59 1.52-2.35l.32-.47a10.95 10.95 0 0 1 4.36-3.56 17.06 17.06 0 0 0 3.55-2.3l.38-.24.76.26c.43-.4.43-.4.75-1.01l-.22-.82-.03-.94c.54-.56 1.13-1.02 1.74-1.5.57-.56.7-.8.78-1.57v-.96l.25-1.26v-.76c.46-.46 1.17-.31 1.8-.33Zm-10.1 15.44c-.28.48-.52.97-.73 1.49-.27.52-.27.52-.74 1.1-.63.8-1.06 1.63-1.5 2.56l-.24.49a3.62 3.62 0 0 0-.3 2.92 4.1 4.1 0 0 0 2.26-1l.61-.2c.81-.39 1.02-.76 1.45-1.54l.37-.66c.21-.39.4-.79.59-1.2.4-.69 1.02-.72 1.76-.94.68-.4.96-.6 1.2-1.35l.06-.66.08-.66c-.03-.63-.03-.63-.52-1.05-1.52-.81-3.11-.44-4.34.7Zm-4.79 13.35c-.45.7-.61 1.15-.81 1.95-.48 1.75-1.55 3-2.87 4.21a6.81 6.81 0 0 0-1.72 3.84c.18 1.07.56 1.42 1.4 2.08.76.46 1.37.6 2.26.62l.64.03c1.1-.25 1.48-1.18 2.05-2.07l.42-.69a23.89 23.89 0 0 1 3.68-4.44l.52-.55a8.5 8.5 0 0 1 3.5-2.47c.62-.45.62-.45 1.01-1V93.3l-1.98.1-.57.04c-1.02.04-1.02.04-1.98.36-.67.04-1.34.01-2 0l-.26-2.01c-1.47-.06-2.22-.03-3.29 1Z" fill="#262626"/><path d="m116.19 99.34.25.76c-.24.48-.24.48-.6 1.02a7.03 7.03 0 0 0-.91 3.76h.5l-.04.56c-.1 1.55-.1 1.55.51 2.94 1.24.84 2.55 1.53 3.97 2.02 1 .46 1.4 1.31 1.85 2.29.13.7.13.7 0 1.26-.38.45-.38.45-.75.75l.25.76v1.76c-1.7.5-1.7.5-2.27.5l-.2.45c-.33.6-.7 1-1.2 1.47-.85.77-.85.77-1.14 1.85a1226.13 1226.13 0 0 1 .03 1.52 6.47 6.47 0 0 0 3.52-1c.7-.05.7-.05 1.26 0l.25 1.5-.76.26v.5a97.64 97.64 0 0 0-2.51 1.26l-.57.3a5.7 5.7 0 0 0-2.7 2.97c-.1.84-.1.84 0 1.51 1.28-.08 1.28-.08 2.32-.77 1.1-.76 2.17-.58 3.46-.49l.6.04c.7.06 1.3.15 1.92.48.43.84.47 1.6.25 2.5-.5.76-1.13 1.37-1.76 2.02a29.55 29.55 0 0 0-3 4.08c-.27.45-.27.45-.67.93-.9 1.34-.63 3.26-.45 4.8.17 1.62-.17 3-.66 4.54l.46.22c.72.38 1.38.84 2.06 1.3a6.2 6.2 0 0 0 2.51.75l-.5.25.25.58c.25.68.25.68.25 1.44-1.47-.29-2.31-.89-3.45-1.84-.53-.4-1-.66-1.61-.92-2.26-1.06-3.56-3.62-4.6-5.78-.54-2.76.1-5.12 1.1-7.7.66-1.77.45-3.02.06-4.84l-.1-.5-.32-1.45a4.4 4.4 0 0 1 .73-3.46c.1-.17.22-.33.33-.5l.31-.46c.63-.93.6-1.7.5-2.77l-.12-.46c-.47-2.02-.37-4.5.63-6.34.3-.4.62-.78.94-1.16.71-.87.71-.87.88-1.97-.35-1-.78-1.92-1.28-2.85-.29-.57-.29-.57-.54-1.32l-.47-.24c-1.02-.5-1.53-1.54-2.04-2.53a5.52 5.52 0 0 1 .25-4.03c.79-1.15 1.6-2.18 3.02-2.52Z" fill="#FAFAFA"/><path d="m151.9 64.85 1.01.25-.1.5c-.18.79-.18.79-.15 1.72-.08.77-.21 1.01-.78 1.57l-.64.5c-.62.48-.62.48-1.1 1 .02.92.02.92.26 1.76-.5.74-.5.74-1.01 1.26l-.75-.25c-.6.36-.6.36-1.22.88a17.02 17.02 0 0 1-3.38 2.01 7.98 7.98 0 0 0-3.45 2.9l-.48.66c-.61.86-1.2 1.73-1.79 2.61h-.5l-.05.42c-.2.59-.2.59-.75 1.1-.9.83-1.33 1.92-1.85 3.02a26.3 26.3 0 0 1-1.63 2.76l-.41.68c-1.37 2.2-2.6 4.18-5.12 5.11-.92.16-1.83.24-2.77.25v-.75c.42-.26.42-.26.98-.52.65-.39.97-.59 1.26-1.3.08-.4.14-.82.19-1.23a15.57 15.57 0 0 1 1.68-5.5c1.18-2.4 2.7-4.6 4.2-6.81l.53-.8a42.68 42.68 0 0 1 9.27-9.52l.55-.45a9.11 9.11 0 0 1 3-1.64c.74-.28 1.34-.74 1.99-1.19.75-.35 1.17-.5 2-.5v.5c.6-.24.6-.24 1.02-1Z" fill="#F9F9F9"/><path d="m142.85 91.79.25 2.01.97.02h.55c.51.01.51.01 1-.27.64-.02 1.27-.02 1.91-.02h.54l1.32.02c-.4.84-.7 1.27-1.51 1.76l-.72.24c-2.7.92-4 3.4-5.28 5.8-.72 1.27-1.77 2.27-2.8 3.28l-.26.25c-.95.14-1.88.21-2.74-.26-.72-.6-1.23-1.08-1.35-2.03a5.16 5.16 0 0 1 1.33-4c.4-.43.82-.85 1.25-1.26a5.84 5.84 0 0 0 1.5-2.79c.37-1.19.64-1.87 1.78-2.5.74-.37 1.44-.27 2.26-.25Z" fill="#FBFBFB"/><path d="M148.13 78.44c.57.3.57.3 1 .76.09.6.09.6 0 1.26l-.06.66c-.23.75-.51.96-1.19 1.35l-.79.24c-.73.19-.73.19-1 .69l-.22.58c-1.44 2.7-1.44 2.7-3.02 3.28l-.52.4c-.49.35-.49.35-1.5.35-.43-1.48.01-2.34.67-3.65l.26-.56a13.6 13.6 0 0 1 2.1-3.1l.23-.65c.73-1.63 2.44-1.93 4.04-1.6Z" fill="#F3F3F3"/><path d="m120.71 111.18.4.12c.77.16 1.51.18 2.3.2l1 .04 1.02.03 1.04.03 2.54.08.1.61.16.65.5.25-.47.2c-.2.1-.4.18-.62.27l-.6.27c-.62.27-.62.27-1.33.77-.6 0-.6 0-1.3-.06a3.93 3.93 0 0 0-3.1 1.15c-.47.52-.7 1-.88 1.68-.5.5-.5.5-1 .55l-1.52-.05c.65-.64 1.13-.64 2.02-.75v-.82c0-1.95 0-1.95.5-2.45a5.83 5.83 0 0 0-.76-2.77Z" fill="#CECECE"/><path d="M127.44 120.16c.57.08.57.08.82.33.08.6.08.6 0 1.26-.74.7-1.43.92-2.4 1.14-1.3.3-2.55.64-3.82 1.01-.57.12-.57.12-1.33-.13l.5-.26v-1.5l.73.18c1.31.2 2.4-.35 3.55-.94l.71-.57c.55-.44.55-.44 1.24-.52Z" fill="#E8E8E8"/><path d="m117.2 125.78.5.25-.18.55c-.13.72-.13.72.17 1.4.49.66.49.66 1.44.77l.83.05v.25l-.5.08a5.83 5.83 0 0 0-3.27 1.44c-.71-.07-.71-.07-1.26-.26-.24-.9-.33-1.34.08-2.19l.48-.64.48-.65c.47-.55.47-.55 1.22-1.05Z" fill="#D4D4D4"/><path d="M183.35 184.2v.75l-1.29.88c-.84.68-1.3 1.57-1.81 2.5-.1.2-.22.38-.33.57-1.17 2.06-1.47 3.87-1.63 6.22l-.07.85-.16 2.08h-.5l.08-2.76.02-.78c.08-2.4.67-4.28 1.88-6.35l.25-.44a8.17 8.17 0 0 1 3.3-3.27l.26-.25Z" fill="#B2B2B2"/><path d="M127 176.4c.17.07.33.16.5.24l-.47.56a57.46 57.46 0 0 0-5.56 7.5l-.76-.25c.15-.99.63-1.51 1.26-2.27l.44-.67c1.14-1.73 2.3-3.3 4.09-4.36l.5-.76Z" fill="#B3B3B3"/><path d="M130.52 170.85c.35.7.21 1.03 0 1.77-.23.42-.49.84-.75 1.25l-.44.9c-.57 1.02-1.3 1.34-2.33 1.87l-.5.76h-.76c.4-.86.84-1.36 1.56-1.98.9-.9 1.45-2.02 2.05-3.12.36-.59.67-1 1.17-1.45Z" fill="#7B7B7B"/><path d="M147.88 93.3h1.76c-.05.96-.24 1.24-.94 1.93-.82.59-.82.59-1.42.8a5.6 5.6 0 0 0-1.92 1.5l-.62.65-.63.66-1.26 1.26c0-1.04.42-1.43 1.04-2.25l.58-.8a6 6 0 0 1 2.92-1.97c.9-.33 1.36-.82 2-1.53h-1.51v-.25Z" fill="#C8C8C8"/><path d="M117.7 139.13h.25a26.48 26.48 0 0 1 .12 5.92c-.05.86-.1 1.56-.38 2.38h-.5l-.25 1.01.11-1.22.06-.7c.08-.6.08-.6.33-1.1-.04-.87-.1-1.74-.19-2.6-.1-1.35.06-2.4.44-3.7Z" fill="#C1C1C1"/><path d="M134.55 101.36h.25l.07.46c.17.99.31 1.65.95 2.45 1.01.5 1.9.6 3 .36.66-.58.66-.58 1.01-1.26l.5.25c-.97 1.48-.97 1.48-1.25 1.77a5.3 5.3 0 0 1-4.16-.94c-.37-.32-.37-.32-.62-.83-.06-1.64-.06-1.64.25-2.26Z" fill="#C8C8C8"/><path d="m124.99 95.06.25.5.76.26-.62.15c-1.41.55-2.59 1.46-3.82 2.33-.8.38-1.48.34-2.36.29.32-.63.54-.68 1.17-.96l.57-.26 1.17-.52a10.7 10.7 0 0 0 2.88-1.79Z" fill="#BDBDBD"/><path fill-rule="evenodd" clip-rule="evenodd" d="M128 255c70.14 0 127-56.86 127-127S198.14 1 128 1 1 57.86 1 128s56.86 127 127 127Zm-.5-22c58.27 0 105.5-47.23 105.5-105.5S185.77 22 127.5 22 22 69.23 22 127.5 69.23 233 127.5 233Z" fill="url(#k)"/><path fill-rule="evenodd" clip-rule="evenodd" d="M128 255c70.14 0 127-56.86 127-127S198.14 1 128 1 1 57.86 1 128s56.86 127 127 127Zm-.5-22c58.27 0 105.5-47.23 105.5-105.5S185.77 22 127.5 22 22 69.23 22 127.5 69.23 233 127.5 233Z" fill="url(#l)"/><g filter="url(#m)" fill="#E4C389"><path d="M182.58 226v.77c0 .28 0 .56-.05.84l-.16.04a35.76 35.76 0 0 0-.74.23c-.4.12-.6.26-.87.57-.1.24-.06.47 0 .72.06.13.12.23.2.34.06.08.06.08.06.19l.09.04c.12.06.12.06.23.14.2.1.35.12.56.08.25-.11.48-.24.7-.4.09-.07.09-.07.2-.07l.04-.16c.13-.13.26-.23.42-.31.13.01.13.01.26.1l.11.08c.1.07.21.15.3.24v.1l.1.01c.15.05.24.13.36.23l.13.1.1.08c-.09.2-.22.35-.36.51l-.07.09c-.42.5-.93.95-1.6 1.06a9.9 9.9 0 0 1-.84.02 2.9 2.9 0 0 1-2.05-.8 2.8 2.8 0 0 1-.78-2.15c.07-.87.58-1.42 1.16-2.02l.13-.14c.54-.5 1.66-.77 2.37-.54Zm-1.08.82-.53.17c-.5.15-.78.62-1.03 1.06a1.9 1.9 0 0 0-.07 1.44l.21.47h.1l.06.2h.1v.1a2.63 2.63 0 0 0 1.74.7c.4.03.84-.11 1.14-.38.1-.1.17-.2.25-.31l.09-.1.06-.11-.05-.16a.66.66 0 0 0-.38.2c-.5.44-1.03.6-1.7.59a1.65 1.65 0 0 1-.9-.45c-.09-.09-.09-.09-.2-.08a7.2 7.2 0 0 0-.04-.13c-.06-.18-.06-.18-.14-.34a2.4 2.4 0 0 1-.08-1.5c.2-.49.57-.84 1.05-1.05.13-.05.27-.07.41-.1l.21-.06.16-.05-.06-.2a.98.98 0 0 0-.4.1Zm6.33-1.96c.32.24.58.61.68 1 .06.63.04 1.21-.37 1.71-.12.13-.25.25-.4.35h-.1v.1l-.2.08-.1.04c-.52.18-.98.1-1.47-.11a1.87 1.87 0 0 1-.63-.58v-.1h-.1a1.68 1.68 0 0 1-.29-.78v-.1c-.04-.3 0-.53.13-.79l.09-.18c.31-.5.6-.83 1.19-.98.6-.11 1.06.02 1.57.34Zm-1.87.59c-.26.35-.27.74-.23 1.17.05.22.12.38.24.57h.1v.1c.26.17.48.28.79.27.35-.1.66-.33.85-.65.15-.3.18-.59.09-.92a1.57 1.57 0 0 0-.7-.74 1.3 1.3 0 0 0-1.14.2Z"/><path d="m188.37 224.01.26.26.13.12c.59.63.83 1.34.8 2.2-.05.74-.4 1.4-.93 1.9-.32.28-.63.48-1.04.58l-.2.05a2.8 2.8 0 0 1-2.06-.28l-.2-.13a2.82 2.82 0 0 1-1.24-1.85c-.09-1.03.17-1.63.8-2.4l.19-.24.1-.13c.78-.87 2.53-.67 3.39-.08Zm-2.6.47-.11.04c-.47.23-.8.85-.96 1.32-.18.6-.04 1.08.24 1.62a2.1 2.1 0 0 0 2.88.69c.5-.37.87-.86.97-1.48.05-.62-.06-1.1-.43-1.6a1.87 1.87 0 0 0-1.19-.75 2.83 2.83 0 0 0-1.4.16Zm3.9-3.12c.15.06.19.13.27.27l.1.14.09.15.1.15.2.3.29.45.65.98a14.71 14.71 0 0 1 .36.55c.08.13.08.13.08.24.44-.23.84-.51 1.25-.79.22.2.38.42.54.66l.08.1c.17.25.17.25.16.4-.06.13-.12.16-.25.24l-.13.08-.13.09-.29.18-.15.1-.64.41-.44.3-.1.06-.23.16-.13.08c-.11.06-.11.06-.27.06l-.28-.41-.18-.29-.1-.16-.4-.6a5.48 5.48 0 0 0-.07-.11l-.3-.45c-.29-.43-.57-.85-.84-1.29-.17-.28-.35-.55-.54-.82-.16-.24-.16-.24-.16-.35l.18-.13.12-.07.12-.07.24-.16.12-.07.49-.34c.09-.05.09-.05.19-.04Zm-.36.93c0 .21.01.25.12.42l.08.13a14.71 14.71 0 0 1 .17.26l.6.89c.16.22.3.45.44.68l.52.8.08.13c.1.1.14.13.28.13.12-.05.12-.05.25-.14l.15-.1.08-.06.33-.2.12-.08.25-.15.1-.07.11-.06.07-.08v-.2c-.24.08-.44.21-.66.35l-.11.07-.8.51-.03-.1a2.84 2.84 0 0 0-.32-.55l-.19-.3-.13-.2-.28-.4-.34-.53-.26-.39-.12-.19-.17-.26-.1-.14c-.08-.13-.08-.13-.24-.17Zm3.59-3.23a3.71 3.71 0 0 1 .5.58l.19.25.1.14a62.53 62.53 0 0 1 1.3 1.83c.15.21.15.21.21.33.18-.03.29-.1.43-.2l.12-.1.26-.2.12-.09.11-.08c.1-.06.1-.06.32-.06l.1.26h.1c.1.1.1.1.19.25l.1.14c.19.28.19.28.18.39-.17.38-.77.68-1.1.91l-.81.58c-.61.44-.61.44-.75.44l-.13-.19-.08-.12-.09-.13c-.23-.34-.46-.68-.72-1l-.8-1.1a51.5 51.5 0 0 0-.5-.71l-.1-.12-.65-.9a5 5 0 0 1 .76-.64l.14-.1a13 13 0 0 1 .5-.36Zm-.3.99c0 .25.09.36.24.55.23.3.45.62.67.94.22.33.45.65.7.96.25.3.46.62.68.94l.2-.05v-.1l.11-.04c.22-.1.39-.24.57-.38l.22-.16.1-.08.28-.2a.38.38 0 0 0 .13-.09v-.15c-.28.02-.46.18-.67.35l-.42.33-.09.06c-.2.15-.2.15-.33.13-.13-.05-.18-.11-.26-.23l-.09-.12-.1-.13a.42.42 0 0 0-.09-.14l-.3-.4-.08-.13-.3-.44-.66-.88-.29-.43-.07-.11h-.16Zm4.53-2.97c.23.06.4.15.6.28l.9.52c.5.27.99.56 1.47.87-.2.2-.42.4-.65.58l-.1.08-.34.27-.11.1a62.7 62.7 0 0 1-.4.3c-.12.1-.22.18-.38.23a123.7 123.7 0 0 1-.62-2l-.37-1.23Zm1.2 1.5.07.28.04.16c.04.13.09.23.15.35.18-.08.32-.19.47-.31-.07-.2-.15-.22-.34-.32l-.15-.09c-.13-.07-.13-.07-.24-.06Z"/><path d="M197.08 215.93c.2.06.36.16.53.27.23.16.47.3.72.43s.48.27.72.41l.16.1c.26.15.52.3.78.47l.79.46.87.49.16.1.12.09v.2c-.1.1-.2.18-.31.26l-.19.13-.1.07-.34.28c-.19.15-.19.15-.38.15l-.14-.05c-.15-.06-.15-.06-.31-.05-.22.11-.38.27-.55.44-.13.13-.13.13-.24.2a.92.92 0 0 0-.31.24c0 .14 0 .14.04.28.03.15.03.15.01.3-.15.18-.34.32-.53.45l-.36.27-.36.27a.63.63 0 0 1-.18-.33l-.05-.14-.05-.15-.05-.16-.16-.5-.1-.34a373.46 373.46 0 0 1-1.18-3.86l.4-.33.12-.1.11-.09a9.32 9.32 0 0 1 .36-.26Zm-.15.9c-.07.09-.07.09-.04.21.05.24.13.46.2.7l.04.15c.12.4.26.78.4 1.17.1.3.2.6.28.92.15.54.15.54.36 1.06l.16-.05-.02-.1a1 1 0 0 1 .02-.42c.14-.17.3-.29.48-.41l.37-.28.18-.14c.15-.12.3-.23.44-.36l.15-.13.13-.12c.13-.07.13-.07.27-.06a4.13 4.13 0 0 1 .33.15c.03-.03.06-.04.1-.06v-.16c-.13-.1-.13-.1-.3-.19l-.09-.05-.3-.17-.37-.22-.1-.05a6.79 6.79 0 0 1-.61-.41 17.39 17.39 0 0 1-1.4-.83l-.14-.08-.13-.08c-.15-.08-.26-.09-.4 0Zm5.3-3.29c.34.2.53.45.64.83.06.39-.01.65-.23.98a2.54 2.54 0 0 1-.48.5c-.13.1-.26.22-.39.34-.2-.08-.31-.2-.46-.37l-.07-.08-.2-.23-.1-.1-.78-.94c.2-.45.67-.68 1.09-.89l.1-.06c.27-.1.62-.08.88.02Zm-1.19.88c.23.31.47.6.73.89l.16-.11v-.1l.15-.06c.1-.14.1-.2.09-.37l-.03-.15h-.1l-.06-.15-.2-.06v-.1c-.37-.08-.48-.06-.74.2Z"/><path d="M202.7 212.73c.64.5 1 .88 1.16 1.69.04.52-.12.89-.42 1.3-.12.14-.24.28-.37.4-.1.13-.15.23-.2.38l.06.07.3.3.1.1.1.12.1.1c.07.1.07.1.05.2a.55.55 0 0 1-.2.26l-.1.09-.1.09-.1.08c-.24.2-.49.4-.74.58-.37-.4-.74-.79-1.07-1.21l-.46-.52c-.24-.25-.47-.51-.69-.79l-.55-.6c-.25-.27-.49-.56-.72-.85.18-.45.76-.8 1.13-1.1l.33-.3.26-.16.2-.13a1.8 1.8 0 0 1 1.94-.1Zm-2.86 1.69.1.1a50.03 50.03 0 0 1 1.43 1.63c.22.27.45.53.69.78l.08.09.08.08.19.23.1.11h.15c-.03-.21-.14-.33-.28-.5a13.73 13.73 0 0 0-.45-.49 1.56 1.56 0 0 1 .33-.48c.09-.1.09-.1.21-.2.38-.42.64-.94.62-1.5-.03-.27-.09-.45-.28-.63-1.17-.85-2.09-.1-2.97.78Zm4.43-4.8c.16.06.26.14.36.27l.09.1a20.68 20.68 0 0 0 .24.3l.08.08c.07.09.07.09.16.17.06.07.06.07.06.17-.1.22-.26.39-.47.53l.06.2h.12c.82-.02 1.67.1 2.29.69.33.36.42.68.41 1.16-.05.7-.52 1.22-1.04 1.67-.3.22-.62.4-.95.55l-.24-.27-.29-.33-.17-.2a83.2 83.2 0 0 0-.29-.34c.07-.2.12-.21.3-.31.42-.23.42-.23.74-.58-.01-.14-.01-.14-.05-.26h-.2a3.82 3.82 0 0 1-2.15-.52 1.32 1.32 0 0 1-.58-.75c-.1-.45.07-.8.3-1.2l.18-.24h.1v-.1h.11l.04-.1c.08-.14.17-.22.29-.33l.12-.1c.13-.1.24-.2.38-.26Zm-.05.94c-.46.37-.46.37-.68.89 0 .29.1.44.28.64.22.2.42.27.72.3l.1.02.64.03c.52-.01.85.1 1.23.45.13.2.14.29.1.52-.16.47-.49.74-.93.96l.05.15c.3-.03.5-.2.68-.41v-.1h.1c.26-.32.46-.64.42-1.05-.08-.3-.27-.4-.51-.56-.38-.22-.9-.18-1.32-.16-.39 0-.75-.01-1.09-.22a.83.83 0 0 1-.22-.53.9.9 0 0 1 .12-.4l.2-.11c.1-.1.18-.2.27-.32l-.16-.1Zm2.98-3.6c.31.16.5.38.67.68l.16.2.09.09.06.07-.08.09-.39.37-.14.13-.12.13-.12.11c-.1.1-.1.1-.08.23.06.13.13.18.26.25.11 0 .11 0 .2-.05l.06-.1h.1v-.11l.2-.18.48-.45c.24.11.4.28.59.46l.1.1c.1.09.18.17.25.28 0 .16-.03.22-.13.35-.08.06-.08.06-.19.06v.1c-.08.1-.08.1-.2.19-.19.16-.19.16-.37.34-.01.1-.01.1.05.2a187.52 187.52 0 0 0 .37.2c.02 0 .04-.03.07-.05l.71-.72.08-.09c.08-.06.08-.06.18-.06.13.06.2.13.3.24l.12.11.12.12.11.12.29.3c-.09.24-.22.38-.42.55-.2.17-.2.17-.36.38h-.1a5.8 5.8 0 0 1-.04.1c-.09.14-.19.23-.32.34a6.8 6.8 0 0 0-.45.43c-.13.12-.13.12-.24.12l-.04.1a.71.71 0 0 1-.22.27c-.23-.01-.36-.19-.51-.34l-.09-.09-.18-.18-.28-.28-.18-.18-.08-.09c-.15-.14-.28-.3-.42-.45a10.72 10.72 0 0 0-.9-.91l-.39-.39-.38-.38-.13-.11-.1-.11-.1-.1c-.07-.1-.07-.1-.06-.2a.5.5 0 0 1 .22-.25 5.34 5.34 0 0 0 .62-.6l.1-.09 1.24-1.25Zm-.13 1-.15.15-.08.08-.26.26-.17.17-.42.43c.26.3.53.59.82.87l.22.21.38.38.45.45.28.28c.36.35.36.35.5.55.1.14.1.14.27.18l1.2-1.2-.05-.16c-.17.08-.28.17-.41.31l-.12.12-.24.26-.12.12-.1.1c-.1.08-.1.08-.2.08-.26-.12-.45-.36-.65-.56l-.15-.15-.14-.13-.13-.13c-.09-.12-.09-.12-.08-.23.06-.12.13-.2.23-.3a11.56 11.56 0 0 0 .23-.23l.12-.11c.28-.29.28-.29.4-.35v-.15l-.15-.06-.11.13c-.63.7-.63.7-.88.86-.16 0-.16 0-.26-.08l-.12-.12-.12-.12-.13-.14-.14-.13c-.32-.33-.32-.33-.38-.45h-.1c.1-.19.22-.34.37-.49l.13-.13.13-.12.14-.14.32-.32-.05-.1c-.16-.02-.16-.02-.28.1Zm4.87-2.63c.42.34.69.68.78 1.21a2.8 2.8 0 0 1-.54 1.74c-.15.21-.29.33-.5.46a199.29 199.29 0 0 1-1.16-1.08l-.51-.48-1-.9c.05-.31.35-.49.58-.67.7-.53 1.57-.7 2.35-.28Zm-1.98.8c.05.17.1.2.23.32.16.13.3.26.44.4.17.18.35.34.53.5.15.12.28.26.41.4.28-.12.36-.32.47-.58.1-.3.04-.53-.08-.82a1.29 1.29 0 0 0-.58-.5c-.56-.1-.95-.03-1.42.28Z"/><path d="m212.46 204.46.1.07c.2.13.31.25.42.45l.1.05.16.26.08.13c.37.64.48 1.24.3 1.96a4.29 4.29 0 0 1-.87 1.46c-.18.25-.38.45-.6.67-.1.1-.19.2-.28.32-.14.16-.14.16-.3.2l-.06-.06-.1-.1-.08-.08c-.1-.1-.2-.2-.32-.29l-.64-.58-.23-.22-.12-.11c-.51-.49-1.02-.97-1.54-1.44l-.47-.44a26.94 26.94 0 0 1-.3-.27c.1-.18.2-.32.36-.46.14-.13.27-.27.39-.42 1.05-1.2 2.51-2.1 4-1.1Zm-3.5 1.46-.2.26c.07.16.14.26.27.38l.08.09.31.28.62.56.22.2.1.1c.65.62.65.62 1.32 1.2.57-.25.97-1.04 1.2-1.59.17-.48.17-.95-.04-1.42-.1-.16-.2-.3-.33-.42h-.1v-.11a2.37 2.37 0 0 0-1.5-.69c-.78.01-1.43.62-1.94 1.16Zm7.67-9.7c.2.07.21.12.31.28l.1.16.11.19.29.47.07.12c.17.27.35.53.54.8.13.16.24.34.35.52l.35.54.17.27.44.66.08.12.16.23c.07.1.07.1.16.28-.09.43-.5.7-.83.94-.23.11-.46.07-.7 0a4.1 4.1 0 0 1-.76-.36l.09.19.05.1a11.28 11.28 0 0 1 .57.8c.07.16.07.16.07.28a6.78 6.78 0 0 1-.41.6c-.26.33-.26.33-.37.42-.33 0-.63-.14-.93-.25l-.17-.07c-.3-.1-.59-.22-.89-.34l-.18-.07-.34-.13a7.02 7.02 0 0 0-.88-.3c-.14-.04-.27-.1-.4-.16l-.77-.3-.1-.04c-.2-.08-.4-.15-.61-.21.03-.22.15-.34.29-.5.26-.3.51-.63.75-.96.27.03.49.09.74.2.04 0 .07.02.1.03l.3.13.2.08.43.18c-.03-.2-.12-.33-.23-.49l-.11-.16-.26-.37-.06-.09a15.2 15.2 0 0 0-.2-.25c-.07-.15-.07-.15-.06-.25.07-.19.2-.33.31-.48a13.2 13.2 0 0 0 .15-.2l.07-.09c.11-.1.2-.1.34-.12.13.03.13.03.25.08l.14.06.15.06.28.1.14.06.6.21a5.88 5.88 0 0 0-.63-1.01c-.31-.43-.31-.43-.29-.6.05-.12.1-.2.18-.3l.1-.1.08-.11c.23-.28.46-.56.67-.85Zm-.16 1.2c-.04.13-.06.19 0 .31l.06.1.07.12.08.13.08.12c.18.28.36.55.56.82a20.88 20.88 0 0 0 .7 1.11l.08.12.3.46a7.15 7.15 0 0 1-1.1-.37l-.14-.05a6.9 6.9 0 0 1-.53-.24 3.51 3.51 0 0 0-.5-.19l-.65-.23-.14-.05-.33-.13c.05.19.1.3.21.46l.1.16.24.35.13.2.06.1c.18.25.34.52.5.8.17.28.36.55.55.83.1.13.1.13.14.23a7.35 7.35 0 0 1-.7-.23l-.2-.07-.2-.08-1.34-.5-.65-.26c-.15-.06-.3-.09-.45-.1l-.1.2.1.04 1.03.37.53.2.51.18.2.07.92.34.12.04.29.12c.15.05.26.06.41.05-.03-.21-.1-.35-.2-.53l-.1-.15-.11-.16-.1-.16a36.97 36.97 0 0 0-.95-1.36 9.24 9.24 0 0 1-.41-.67l.08.03.85.31.31.12 1.56.56.11.04c.18.07.18.07.37.1a1.22 1.22 0 0 0-.2-.53l-.1-.15-.12-.16-.11-.19-.32-.48-.2-.3c-.2-.31-.4-.61-.62-.91l-.14-.26a13.5 13.5 0 0 0-.25-.41l-.1-.16-.08-.1h-.1Zm5.31-3.07c.38.31.62.77.7 1.25 0 .6-.1 1.07-.5 1.53-.2.2-.38.35-.66.45l-.1.03c-.46.13-.93.08-1.35-.13-.59-.33-.9-.64-1.1-1.31-.13-.52.06-1 .3-1.44.25-.38.58-.63 1.02-.73a2.2 2.2 0 0 1 1.7.35Zm-1.96.6c-.25.28-.23.58-.23.95.02.23.09.4.22.58l.06.1c.2.25.4.37.71.42.29.02.5-.04.74-.2.31-.3.4-.6.44-1.03a1.5 1.5 0 0 0-.44-.9 1.26 1.26 0 0 0-1.5.07Z"/><path d="M222.23 193.46c.68.5 1.04 1.08 1.22 1.9.07.96-.15 1.76-.79 2.5-.59.57-1.36.82-2.16.82-.18-.01-.35-.05-.52-.09l-.1-.03a2.95 2.95 0 0 1-1.76-1.38 2.74 2.74 0 0 1-.29-1.88c.1-.28.22-.54.34-.8.07-.13.12-.27.18-.41.11-.26.29-.38.52-.53l.13-.08a2.87 2.87 0 0 1 3.23-.02Zm-2.94.73a13 13 0 0 1-.17.11c-.2.2-.26.41-.35.67l-.05.12c-.23.6-.18 1.14.07 1.72.08.13.15.24.24.35h.1l.04.1c.18.3.59.46.9.58.4.1 1.01.1 1.4-.1l.17-.11.16-.1c.43-.32.79-.78.88-1.3a2.48 2.48 0 0 0-.63-1.99 1.4 1.4 0 0 0-.41-.26l-.14-.06a2.25 2.25 0 0 0-2.2.27Zm4.79-4.11c.24.2.42.46.48.77 0 .7-.38 1.23-.78 1.77a2.52 2.52 0 0 1-.42-.25c-.32-.23-.66-.44-.99-.65a5.7 5.7 0 0 1-.63-.45c.07-.2.16-.34.28-.5l.1-.12.1-.11.07-.12.08-.09h.1v-.1c.13-.1.13-.1.3-.19l.16-.1c.43-.2.78-.13 1.15.14Zm-1.3.77-.1.1v.16c.13.11.13.11.3.21l.17.11.16.1.15.1c.11.01.11.01.21-.05a.82.82 0 0 0 .15-.67c-.06-.14-.1-.18-.24-.24-.36-.14-.54-.12-.8.18Z"/><path d="m223.62 188.78.16.01c.28.05.47.17.7.33l.15.11c.22.18.36.32.47.58l.06.14c.1.24.2.5.28.75l1.99.15c-.08.2-.13.3-.25.47l-.08.1c-.02.05-.05.08-.08.12l-.17.24-.08.11-.33.5c-.06.08-.06.08-.21.18h-.48l-.18-.01-.18-.01c-.45-.02-.45-.02-.57-.08v.1l.1.04c.2.09.38.2.57.33l.1.08.27.18a10.81 10.81 0 0 1-.94 1.4 3.68 3.68 0 0 1-.39-.21l-.1-.07a5.18 5.18 0 0 1-.11-.07l-.12-.08-1-.67-1.3-.88c-1.04-.69-1.04-.69-1.41-.99a7.1 7.1 0 0 1 1.25-1.82h.1l.04-.1c.24-.41.73-.7 1.16-.9.2-.05.38-.05.58-.03Zm-1.1 1.13v.1l-.09.05c-.42.23-.7.76-.95 1.16.08.2.2.28.38.4l.7.46.1.06.8.54c.1.08.22.16.34.23l.24.17.35.24.1.07c.2.14.2.14.43.17v-.2c-.07-.08-.07-.08-.18-.14l-.1-.06-.13-.07-.23-.13a.27.27 0 0 0-.1-.06c-.1-.07-.1-.07-.2-.22l.06-.09.23-.38.08-.13.08-.13.07-.11c.06-.1.06-.1.06-.2l.2.04c.48.1.88.12 1.36 0l.05-.2-1.5-.05c0-.14.03-.28.04-.42-.02-.39-.24-.7-.49-.98-.55-.47-1.08-.53-1.7-.12Zm1.88-4.11 1.43.92.39.26.26.16.12.09c.3.2.61.4.91.62.11.1.11.1.23.08.08-.1.08-.1.16-.24l.1-.15.2-.31.1-.15.08-.14.09-.1c.2 0 .24 0 .4.1l.11.08.12.07.11.07.46.3c-.03.16-.09.28-.18.42a33 33 0 0 0-.08.12l-.08.13-.08.13a56.03 56.03 0 0 1-1.07 1.62l-.14.2-.1.15c-.28-.08-.5-.23-.75-.4l-.25-.17-.13-.08-.5-.34-.19-.13-.1-.06-.51-.35-.29-.19-.63-.41c-.37-.26-.75-.5-1.13-.74.03-.24.12-.38.25-.57l.06-.09.2-.27.12-.19.31-.45Zm.05 1.04v.15c.13.11.13.11.3.22l.1.06.28.2.3.2.33.2c.12.1.25.18.38.26l.2.14 1.45.97c.18-.17.3-.35.43-.56l.13-.2.06-.09.17-.26.1-.15.08-.14c.07-.1.1-.2.13-.33-.1 0-.1 0-.21.06-.12.13-.12.13-.22.3l-.07.09-.12.19-.19.28-.29.44c-.6-.22-1.13-.66-1.66-1.02l-.32-.22a4.42 4.42 0 0 0-.3-.2 45.89 45.89 0 0 1-.63-.42l-.15-.1c-.12-.09-.12-.09-.28-.07Zm5.6-4.49c.16.12.28.25.4.42l.11.16c.24.44.18 1.08.06 1.54a4.6 4.6 0 0 1-.54 1.06 2.13 2.13 0 0 1-.56-.31c-.25-.18-.51-.35-.78-.51l-.92-.6-.12-.07c-.25-.17-.5-.35-.74-.54.03-.08.08-.16.12-.23l.06-.13c.08-.11.08-.11.23-.16l.1-.21c.67-.73 1.74-1.03 2.58-.42Zm-2.16.89c.07.2.12.2.3.31l.15.1.08.05.56.36.11.07.11.07.1.07.2.13c.17.12.17.12.38.14l.07-.17.04-.1c.13-.3.15-.59.05-.9a1.04 1.04 0 0 0-.6-.56c-.62-.2-1.1-.03-1.55.43Z"/><path d="M230.66 181.58c.6.53 1.01 1.14 1.05 1.96a3.37 3.37 0 0 1-.14.87c-.1.35-.26.65-.44.97l-.06.09c-.74 1.27-.74 1.27-.93 1.37-.1-.05-.1-.05-.2-.13l-.14-.08-.13-.09a8.64 8.64 0 0 0-.58-.38 29.1 29.1 0 0 1-.12-.09l-.48-.31-.73-.47a33.9 33.9 0 0 1-1.1-.71l-.16-.1-.8-.56c.18-.33.37-.64.57-.94l.08-.13c.44-.64.44-.64.6-.81h.11l.05-.16h.1l.04-.09c.24-.42.81-.7 1.26-.83.83-.06 1.5.06 2.15.62Zm-3.27.92c-.13.15-.13.15-.12.27h-.1a6.2 6.2 0 0 0-.47.73c.06.19.13.21.3.3.22.12.42.27.63.4a69.17 69.17 0 0 0 1.68 1.12l.11.07.2.13c.17.12.33.2.52.27.2-.28.4-.55.52-.88l.13-.35c.2-.52.3-1.09.09-1.62-.08-.16-.16-.3-.27-.43h-.1l-.06-.16c-.33-.25-.7-.4-1.1-.52l-.11-.04c-.78-.21-1.33.13-1.85.71Zm2.33-5.52c.44.2.84.46 1.25.73-.07.24-.17.46-.27.68-.05.1-.05.1-.04.2l.18-.05a21.46 21.46 0 0 1 .35-.1c.63-.2 1.39-.28 2 .01.36.2.58.44.8.77a2.4 2.4 0 0 1-.28 1.85l-.08.14-.07.13c-.13.2-.13.2-.2.28h-.1l-.03.1a2.4 2.4 0 0 1-.28.37h-.1l-.05.1-1.05-.62-.14-.08-.12-.08v-.15h.1l.05-.13.06-.13.16-.06.1-.26.08-.07c.12-.13.14-.28.18-.45-.1-.11-.1-.11-.24-.12-.18.01-.18.01-.37.09-.58.2-1.41.3-2 .08-.37-.2-.64-.4-.8-.8-.13-.76.2-1.43.58-2.07l.07-.1h.1l.05-.1.1-.16Zm.2.94-.14.23-.1.12c-.16.27-.19.6-.12.9.24.26.53.4.87.44.35 0 .68-.11 1.01-.2.53-.15.86-.2 1.35.07.1.06.1.06.21.06.03.44.03.76-.2 1.14v.1h-.1c-.18.19-.18.19-.22.43l.16.05c.36-.5.65-.93.68-1.57a.93.93 0 0 0-.37-.57c-.37-.2-.7-.17-1.09-.06l-.14.05-.14.04-.57.19c-.17.05-.31.06-.49.05h-.17a1.03 1.03 0 0 1-.42-.11.92.92 0 0 1-.1-.63c.06-.19.06-.19.15-.36l.1-.32-.15-.05ZM22.14 74.32c.28.08.54.25.8.38l.14.08.14.08.13.06c.1.08.1.08.14.18.01.2-.15.32-.27.46-.21.24-.34.43-.4.74l.1.1c.23 0 .42-.04.63-.12a2.86 2.86 0 0 1 2.05 0c.36.2.57.43.69.82.1.68-.23 1.39-.57 1.95-.1.14-.22.26-.35.38l-.6-.33-.17-.1-.16-.09-.15-.08c-.12-.08-.12-.08-.17-.18l.13-.28a.9.9 0 0 0 .13-.5l-.09.02c-.86.28-1.7.45-2.57.08-.28-.19-.58-.45-.67-.78a2.9 2.9 0 0 1 .51-2.23l.06-.07h.1l.1-.26h.11l.02-.1c.03-.1.03-.1.19-.21Zm.2.89-.22.36-.06.1c-.24.4-.34.8-.29 1.26.1.2.22.37.43.47a1.3 1.3 0 0 0 .9.02c.28-.07.54-.16.81-.27.36-.13.73-.22 1.1-.08.13.09.2.19.24.33a1 1 0 0 1-.14.73l-.1.3h.2c.23-.33.38-.63.36-1.05-.05-.18-.11-.23-.26-.33a4.33 4.33 0 0 0-.25-.12l-.1-.06c-.4-.18-.86.03-1.25.15-.87.27-.87.27-1.33.04l-.13-.08c-.1-.06-.1-.06-.21-.05-.03-.45-.03-.77.2-1.15v-.1h.1l.02-.1.04-.11.16-.06-.05-.15-.16-.05Zm2.46-4.33c.27.1.5.24.74.39a221.5 221.5 0 0 0 .56.34l.26.15c1.16.7 1.16.7 1.62 1.05a2.8 2.8 0 0 1-.26.52h-.1l-.05.1c-.24.45-.63.67-1.1.84a1.7 1.7 0 0 1-2.16-1.04c-.17-.77 0-1.52.39-2.2l.1-.15Zm.26.99-.07.17-.05.1a1.1 1.1 0 0 0-.04.85c.15.29.3.47.62.58.4.12.78.1 1.16-.08.17-.15.27-.27.36-.47l-1.4-.9-.12-.08-.11-.07-.1-.06c-.1-.05-.1-.05-.25-.04Z"/><path d="M24.6 69.63c.32.01.56.2.83.37a106.22 106.22 0 0 1 .57.36l.16.1.26.17.63.38 1.24.75.16.1a95.53 95.53 0 0 1 .52.34c.2.13.2.13.26.24l-.15.27a172.52 172.52 0 0 1-.2.33l-.1.16c-.32.51-.32.51-.44.65h-.1l-.04.12c-.06.14-.06.14-.17.3h-.1l-.05.15h-.1l-.04.12a1 1 0 0 1-.39.4l-.09.08c-.5.36-1 .49-1.61.43a2.11 2.11 0 0 1-.7-.24c-.1-.06-.1-.06-.23-.1-.62-.27-1.06-.91-1.36-1.5a2.57 2.57 0 0 1 .13-1.93 13.63 13.63 0 0 1 .4-.82c.07-.19.17-.36.28-.53.15-.23.29-.46.42-.7Zm.15.99a3.59 3.59 0 0 0-.79 2.45c.09.47.36.82.73 1.1a2.8 2.8 0 0 0 1.83.46c.27-.1.51-.23.73-.41v-.1h.1c.19-.21.35-.44.5-.66l.07-.1c.23-.3.23-.3.32-.66-.08-.07-.08-.07-.2-.13l-.12-.07a61.34 61.34 0 0 1-.43-.25l-.15-.09-.62-.38a114.03 114.03 0 0 0-1.34-.84l-.26-.16-.15-.1c-.11-.07-.11-.07-.22-.06Zm2.08-4.49c.5.1.96.5 1.38.77l.59.37a165.53 165.53 0 0 1 2.62 1.68c-.28.5-.58.98-.89 1.46a1.2 1.2 0 0 1-.51-.2l-.15-.1-.16-.1-.34-.21-.17-.11-.85-.53-.3-.19-.13-.09-.3-.2c-.09-.04-.09-.04-.17-.1l-.14-.08c-.1-.08-.1-.08-.22-.07l-.14.2-.08.14-.09.14-.17.28-.07.12-.18.27c-.28-.08-.5-.21-.74-.37l-.12-.07-.1-.06-.1-.07c-.08-.06-.08-.06-.14-.22l.2-.34.06-.1.57-.9a18 18 0 0 0 .54-.86c.09-.16.19-.31.3-.46Zm.1 1-.13.21c-.13.23-.27.46-.42.68l-.06.1-.28.43c-.1.13-.1.13-.08.26l.04.09c.23-.08.3-.24.4-.44l.11-.2.06-.1c.13-.23.27-.45.42-.67.75.13 1.59.87 2.22 1.28l1.12.7.1-.2a148.3 148.3 0 0 0-2.75-1.73c-.17-.1-.34-.22-.5-.33-.13-.1-.13-.1-.24-.09Zm3.97-3.5c.2.07.35.16.52.27l.64.4.17.11.17.1.17.11.42.26c-.08.4-.28.67-.58.94l-.1.09c-.25.22-.25.22-.37.22v.1c-.7.25-.7.25-1 .1-.33-.2-.6-.45-.71-.82v-.16l-.01-.1c-.03-.6.34-1.14.68-1.62Zm.2.94c-.12.21-.22.39-.2.64.04.2.04.2.14.3.3.15.3.15.64.15.14-.11.14-.11.26-.26l.16-.15c-.08-.22-.21-.29-.4-.4l-.17-.1a3.69 3.69 0 0 0-.42-.18Z"/><path d="M29.65 61.7c.27.03.45.13.66.28.3.2.6.4.9.58.29.18.57.35.85.54.33.23.67.43 1.02.64.4.24.79.49 1.16.78-.18.34-.38.68-.58 1.01l-.07.1c-.12.2-.23.35-.4.5l-.1.16h-.1l-.05.13-.06.13-.16.05-.05.16c-.4.4-.84.69-1.41.7a2 2 0 0 1-1.38-.68c-.16-.2-.25-.43-.35-.66l-.06-.13c-.13-.31-.13-.31-.13-.43h-.13c-.42 0-.85 0-1.27-.03h-.19l-.45-.02c.06-.17.13-.31.23-.46l.07-.11.08-.12.15-.23.08-.12.37-.58c.06-.1.06-.1.12-.15l.31-.01h1.1l-.09-.04a45.9 45.9 0 0 1-.36-.23l-.12-.08-.12-.07-.11-.07c-.11-.1-.13-.15-.14-.29.06-.12.06-.12.15-.25a19 19 0 0 0 .44-.7l.11-.17.08-.13Zm.15 1-.05.2.41.26.12.07.1.07.11.07c.1.06.1.06.25.1a64.95 64.95 0 0 1-.34.63l-.09.15-.08.15c-.07.11-.07.11-.06.22l-.13-.02c-.72-.12-.72-.12-1.43.02l-.1.16c.51.04 1.03.06 1.56.05l-.01.1c-.01.46.08.84.37 1.2h.1l.06.16c.27.18.6.35.94.31.3-.08.6-.18.83-.41v-.1c.05-.03.1-.04.16-.06a5 5 0 0 0 .57-.79c.13-.19.13-.19.16-.4-.1-.09-.1-.09-.22-.16l-.14-.1-.16-.09-.15-.1-.33-.2-.65-.4-.24-.15-.56-.36-.16-.1-.3-.2-.15-.1-.12-.07c-.11-.07-.11-.07-.27-.12Zm5.27-3.87v.1l.1.03c.25.07.38.32.5.54.28.61.22 1.07 0 1.69-.18.4-.41.62-.8.83l-.12.06-.3.1-.15.02c-.55.08-1-.09-1.46-.38a2 2 0 0 1-.4-2.59c.71-.82 1.7-1.02 2.63-.4Zm-1.82.58c-.34.42-.4.71-.37 1.25.1.32.36.54.63.73.3.14.56.14.86.04l.18-.1.17-.08a.8.8 0 0 0 .3-.6c-.02-.51-.11-.9-.5-1.28a1.01 1.01 0 0 0-.7-.24c-.25.03-.4.1-.57.28Z"/><path d="m34.65 57.58.18.04c.5.12.82.4 1.18.75l.11.1c.48.5.7 1.17.71 1.86a3.3 3.3 0 0 1-.85 2.07 3.2 3.2 0 0 1-2.37.78 3.08 3.08 0 0 1-1.98-1.23 2.9 2.9 0 0 1-.5-2.04c.13-.52.34-.96.66-1.39l.11-.16a2.6 2.6 0 0 1 1.35-.78l.13-.04c.43-.1.85-.04 1.27.04Zm-2.32 1.47a.83.83 0 0 0-.18.46h-.1a2.3 2.3 0 0 0 0 1.67c.16.32.37.54.64.76a.4.4 0 0 1 .14.18c.55.3 1.21.38 1.82.2a2 2 0 0 0 1.19-1.08c.24-.66.3-1.2 0-1.84a1.8 1.8 0 0 0-.4-.51l-.07-.1c-.28-.34-.82-.49-1.24-.54a2.1 2.1 0 0 0-1.8.8Zm4.57-6.84c.28.06.55.13.83.23l.63.22a13.4 13.4 0 0 0 1.71.57c.23.07.46.14.68.24.27.11.56.2.84.3a115.32 115.32 0 0 1 .68.22 5.73 5.73 0 0 1-.73 1.05l-.08.1-.24.3c-.27-.02-.5-.1-.76-.19l-.65-.23-.24-.09-.17-.06c.12.22.25.43.4.64.23.3.44.61.64.93-.12.2-.24.4-.38.58l-.12.17c-.14.15-.18.17-.38.18l-.36-.1-.1-.04a38.94 38.94 0 0 1-.52-.18c-.5-.18-.5-.18-.64-.25.2.36.43.67.68 1 .35.46.35.46.36.67-.09.17-.21.31-.34.46l-.2.24-.1.12-.4.54c-.18-.14-.3-.26-.42-.45a19.5 19.5 0 0 0-.54-.83l-.09-.13-.25-.37a41.43 41.43 0 0 0-1-1.4l-.11-.17a48.77 48.77 0 0 1-.65-.94l-.1-.16c-.07-.14-.07-.14-.04-.29.1-.16.2-.29.33-.43h.1l.05-.1c.1-.19.27-.25.48-.31.38-.03.7.1 1.04.26l.26.1a230.23 230.23 0 0 0-.31-.47c-.15-.22-.3-.43-.48-.63-.07-.16-.04-.24 0-.41l.35-.46.1-.13.24-.3Zm.1.89c-.01.2 0 .3.14.46l.08.1.1.12.16.22.08.12.09.12.56.77.77 1.11a141.96 141.96 0 0 1-.73-.26l-.24-.08c-.6-.22-.6-.22-1.22-.4l-.27-.12a5.43 5.43 0 0 0-.88-.23c.03.27.13.44.3.65.25.33.49.67.72 1.01l.73 1.07.08.1.52.71.16-.05a2.3 2.3 0 0 0-.32-.58l-.06-.09-.41-.56a7.66 7.66 0 0 1-.46-.7l-.55-.8-.34-.5.09.03c.69.3.69.3 1.4.5l.4.16a12.4 12.4 0 0 0 1.34.48c.12.04.12.04.26-.02l-.1-.15a495.1 495.1 0 0 1-1.88-2.77c.21 0 .38.07.58.14.25.1.5.19.77.25.22.06.43.14.64.22l.6.23.12.04a55.33 55.33 0 0 0 .49.17c.15.05.15.05.35.04l.05-.2-.24-.09-.22-.07-.61-.2a248.98 248.98 0 0 1-2.3-.78l-.2-.07a3.26 3.26 0 0 0-.55-.1Zm5.53-5.94a50.86 50.86 0 0 1 .95.82c.35.3.7.6 1.03.92.2.17.4.34.62.5.1.1.1.1.16.2 0 .11 0 .11-.07.21l-.1.1-.1.1c-.1.07-.1.07-.2.07l-.03.09c-.1.17-.26.24-.44.33l-.1.05c-.26.13-.5.23-.78.26l-.2.01a1.9 1.9 0 0 1-1.25-.5c-.07-.09-.07-.09-.07-.24h-.1a1.97 1.97 0 0 1-.12-1.72c.1-.23.2-.43.33-.63l.1-.17c.11-.15.23-.28.37-.4Zm.05.99c-.26.37-.42.69-.35 1.15.1.3.3.5.56.67.32.13.64.2.98.1.21-.09.4-.22.58-.36-.2-.25-.41-.46-.66-.67-.29-.24-.57-.49-.84-.74-.11-.11-.11-.11-.27-.15Z"/><path d="M42.58 45.85a30.29 30.29 0 0 0 .54.46l1 .89.71.62c.3.25.6.51.89.78.28.26.57.5.87.75-.08.19-.2.32-.34.47-.16.17-.16.17-.28.36h-.1l-.04.09a4.06 4.06 0 0 1-1.9 1.53 2.4 2.4 0 0 1-1.87-.22 3.12 3.12 0 0 1-1.43-1.9 4.63 4.63 0 0 1-.05-.35c-.04-.59.2-1.24.54-1.7l.1-.16c.4-.6.86-1.12 1.36-1.62ZM42.37 47l-.13.14-.12.14a2.82 2.82 0 0 0-.33.49 2.48 2.48 0 0 0-.5 1.62c.09.4.23.66.5.95l.08.08c.39.37 1.04.7 1.58.71.58 0 1.05-.4 1.46-.77l.12-.13.19-.18c.12-.13.23-.25.33-.4-.08-.21-.24-.34-.41-.5l-.1-.08c-.22-.2-.46-.4-.7-.59l-.6-.55a12 12 0 0 0-.72-.62l-.31-.29c-.16-.16-.18-.18-.34-.02Zm3.03-4.17c.32.27.62.56.91.87.18.17.35.35.54.5.29.25.54.52.8.78.22.22.43.42.67.62.19.17.36.35.54.54l.12.11.27.28c-.17.2-.34.4-.53.59-.14.13-.14.13-.25.3h-.1l-.04.09a1.8 1.8 0 0 1-.28.34l-.13.12-.13.13a155.58 155.58 0 0 0-.37.37c-.1.09-.1.09-.15.2h-.1v.1l-.16.05a8.9 8.9 0 0 1-.94-1.04 49.51 49.51 0 0 0 .42-.41l.12-.12.11-.11.1-.1c.1-.09.1-.09.14-.2h.1l-.3-.36a.64.64 0 0 0-.42.24l-.1.1-.4.47c-.08.07-.08.07-.29.07-.1-.07-.1-.07-.2-.18l-.11-.11-.12-.12-.12-.12-.28-.3c.08-.16.16-.3.28-.43l.1-.11c.09-.09.09-.09.2-.09l.03-.09c.07-.13.16-.22.27-.32-.07-.21-.17-.26-.36-.37-.16.04-.16.04-.2.16h-.11l-.04.08c-.1.18-.24.31-.39.45l-.09.09-.21.21c-.26-.11-.43-.3-.62-.49l-.11-.1-.1-.1-.1-.1c-.06-.1-.06-.1-.06-.2.06-.13.13-.2.23-.3l.12-.12.12-.11c.26-.25.5-.5.73-.77.18-.2.37-.39.57-.58l.12-.12.3-.3Zm-.16 1.04-.05.16-.21.1c-.09.07-.09.07-.17.16l-.1.09-.08.09-.1.1-.09.08-.08.09c-.07.07-.07.07-.06.17h-.1c-.12.15-.12.15-.1.32a.6.6 0 0 0 .37-.2l.09-.1.1-.1.09-.09c.17-.15.17-.15.23-.35h.1l.21-.2c.43.35.81.75 1.2 1.14-.13.26-.32.44-.53.64l-.2.19-.1.09c-.07.07-.07.07-.06.18l-.1.05.2.1c.25-.24.49-.48.71-.74l.08-.1.08-.09c.08-.06.08-.06.17-.05.16.06.25.16.36.28l.14.14.15.15a69.86 69.86 0 0 0 .5.52l-.1.12c-.11.12-.11.12-.1.24l-.1.04a.97.97 0 0 0-.29.26l-.1.11-.08.11a55.78 55.78 0 0 0-.26.32c.09.04.09.04.2.05.1-.07.1-.07.19-.17l.1-.1.18-.23c.13-.15.27-.27.43-.4.1-.1.17-.19.25-.3a1.02 1.02 0 0 0-.27-.38l-.1-.09-.11-.1a21.5 21.5 0 0 1-.85-.81 8.4 8.4 0 0 0-.54-.52 6.52 6.52 0 0 1-.41-.38l-.1-.11-.22-.22-.1-.1-.09-.1c-.07-.07-.07-.07-.18-.06Zm3.12-3.57c.15.1.26.22.39.34l.07.08c.2.2.4.42.59.65-.24.27-.53.48-.83.68h-.1c-.1.13-.11.19-.1.34.03.12.03.12.1.18h.29c.93 0 1.64.05 2.35.69.24.24.33.52.32.86-.1.81-.79 1.42-1.4 1.9l-.1.1c-.26-.2-.49-.43-.7-.67l-.1-.08c-.2-.22-.2-.22-.2-.46l.18-.22.1-.11c.09-.08.09-.08.2-.08l-.06-.21h-.17c-.89.01-1.7-.07-2.39-.68a1.6 1.6 0 0 1-.37-1.13c.07-.73.58-1.28 1.1-1.74.4-.31.4-.31.58-.31v-.1c.15-.06.15-.06.25-.02Zm-.28 1-.14.14c-.24.24-.24.24-.35.3a8.2 8.2 0 0 0-.21.36l-.1.15a.97.97 0 0 0 .01.8c.35.37.74.43 1.23.45h.43c.47 0 .83.02 1.24.25.18.21.16.47.16.75h-.1l-.06.15-.1.05v.1l-.21.11v.21c.33-.15.56-.34.7-.68a.85.85 0 0 0 .07-.42 1.4 1.4 0 0 0-.82-.67 4.56 4.56 0 0 0-1.02-.04c-.41 0-.79-.06-1.1-.36l-.1-.1c-.13-.13-.13-.13-.14-.23.02-.41.2-.65.48-.94.15-.13.29-.23.47-.31v-.1c-.16-.08-.2-.07-.34.04Zm4.24-1.86c.17.07.25.18.37.31l.15.17.08.1.3.31.1.12.2.21c.17.18.32.34.43.55-.33.32-.64.58-1.05.78l-.12.09c-.25.13-.53.1-.81.07-.34-.1-.5-.34-.67-.63a1.4 1.4 0 0 1 0-.99c.06-.12.12-.24.2-.36h.1l.01-.1c.05-.14.12-.19.25-.27h.1l.05-.1c.15-.27.15-.27.31-.26Zm-.1.89a1.4 1.4 0 0 0-.35.57c.07.25.24.4.46.52.23.05.4.04.6-.08l.08-.08c-.03-.2-.1-.27-.25-.4a4.27 4.27 0 0 1-.37-.4l-.11-.13h-.05Z"/><path d="M51.55 37.2c.17.07.28.16.4.29l.1.1.3.32c.2.23.4.46.62.68l.1.12.42.42c.1.1.1.1.1.2h.1l.16.19c.2.23.4.45.62.67l.78.86a9.37 9.37 0 0 1-1.41 1.38 176.04 176.04 0 0 0-.22.19c-.16.12-.33.2-.5.3l-.1.04c-.4.2-.8.25-1.23.12a2.6 2.6 0 0 1-1.41-1.26c-.18-.4-.24-.8-.14-1.23.12-.25.26-.47.42-.68l.07-.1.4-.53a1.56 1.56 0 0 0-.28-.41l-.1-.11a5.2 5.2 0 0 0-.24-.25c-.1-.11-.1-.11-.1-.27.07-.08.07-.08.18-.17l.41-.38c.18-.18.36-.34.55-.5Zm-.21 1.04c.03.2.1.27.24.4.21.2.38.41.54.64l-.11.12c-.3.32-.57.63-.77 1.03l-.07.11c-.2.37-.2.76-.12 1.16.14.34.44.47.76.6.33.14.6.15.93.03a3.5 3.5 0 0 0 1.2-.85c.11-.11.11-.11.27-.22-.08-.24-.2-.36-.38-.53l-.57-.6c-.16-.2-.33-.37-.5-.54a79 79 0 0 1-.86-.93l-.2-.21-.1-.12c-.1-.1-.1-.1-.26-.1Zm4.38-3.02c.14.13.18.29.24.47l.03.1.13.37.12.38.09.25.42 1.21.05.14.04.11c.03.1.03.1.03.2l-.21-.05v-.1l-.1-.02c-.2-.05-.37-.15-.55-.26-.27-.15-.53-.3-.8-.43-.45-.22-.88-.46-1.32-.7a.9.9 0 0 1 .27-.37l.1-.08.1-.09a58.58 58.58 0 0 0 .87-.72l.49-.41Zm-.63 1.12-.12.1-.08.08c.06.2.14.22.33.32l.16.09c.12.07.12.07.24.06-.04-.3-.15-.56-.27-.84-.1 0-.19.12-.26.19Z"/><path d="M55.98 33.34c.15.13.2.26.27.44l.06.18.06.18.06.18a124.65 124.65 0 0 1 .52 1.54l.5 1.46.07.18a157.18 157.18 0 0 1 .2.58l.04.1.1.27c.05.15.06.22 0 .36-.16.17-.35.32-.52.47l-.1.1c-.07.07-.07.07-.22.16a1.1 1.1 0 0 1-.6-.22c-.46-.27-.93-.52-1.4-.77-1.01-.54-2-1.1-3-1.67v-.15l.34-.3.2-.17.1-.08.42-.4c.08-.04.08-.04.2-.03l.2.1c.13.06.17.04.31 0 .13-.1.13-.1.25-.23l.14-.13.13-.12c.3-.26.3-.26.42-.26v-.1l.1-.06a2.72 2.72 0 0 0-.1-.52c.35-.33.71-.65 1.09-.95l.16-.14Zm-.36 1.15c-.05.24-.05.24-.04.49-.02.13-.02.13-.12.24l-.14.1-.15.12-.09.07-.58.5c-.23.2-.23.2-.34.25v.1l-.1.04a1.7 1.7 0 0 0-.32.22v.1c-.03 0-.06-.02-.09-.04l-.11-.06-.11-.06c-.12-.06-.12-.06-.27.01.07.18.1.2.26.29l.12.07.14.07.14.08.83.46.6.35.45.25a12.53 12.53 0 0 1 .97.57c.14.06.14.06.29.02.13-.07.13-.07.22-.23-.02-.1-.02-.1-.07-.22a47 47 0 0 0-.06-.13l-.06-.14-.12-.28-.06-.15a11.8 11.8 0 0 0-.43-1.27l-.44-1.26-.04-.13-.04-.12a2.58 2.58 0 0 0-.14-.31h-.1Zm3.54-3.43c.13.05.18.1.27.22l.09.12.1.13.09.13a62.9 62.9 0 0 1 .55.72l1.02 1.33a196.73 196.73 0 0 0 1.02 1.32c.1.13.1.13.1.29-.1.09-.1.09-.25.18l-.73.55-.1.08-.23.18a.77.77 0 0 1-.36-.29l-.08-.1-.1-.13a222.54 222.54 0 0 0-.58-.75c-.24-.3-.47-.6-.7-.92-.2-.28-.41-.56-.63-.83a.84.84 0 0 0-.43.21l-.12.1-.26.21-.12.1-.12.1c-.1.06-.1.06-.25.06-.1-.11-.1-.11-.2-.26a12.5 12.5 0 0 0-.48-.65c-.05-.08-.05-.08-.05-.24l.3-.24.18-.14.1-.07.43-.33.17-.13.44-.34a79.14 79.14 0 0 1 .54-.42l.1-.09.1-.07c.09-.05.09-.05.19-.03Zm-.7 1.23-.2.16-.1.08-.3.23-.09.07-.18.13-.2.17v.16c.19 0 .23-.05.38-.16l.13-.1.14-.1.13-.1c.25-.18.25-.18.47-.4.1-.08.1-.08.21-.08.12.06.17.1.24.21l.08.1.08.12.16.23.09.12.33.44.13.16a209.49 209.49 0 0 0 .97 1.25l.1.13.08.12.08.09h.16c-.02-.25-.15-.4-.31-.58l-.16-.18-.08-.1c-.2-.22-.37-.46-.54-.7a171.12 171.12 0 0 0-1-1.33l-.08-.12-.09-.11-.07-.1c-.2-.19-.4.06-.56.19Zm4.09-3.69c.24.21.41.45.59.72l.1.13.2.3.42.6a162.07 162.07 0 0 1 1.26 1.82l.09.12a41.49 41.49 0 0 0 .24.34l.07.1c.06.1.08.18.1.3l-1.35.93a.8.8 0 0 1-.39-.33l-.11-.16-.5-.76c-.2-.3-.4-.58-.62-.86a29.43 29.43 0 0 1-.6-.83c-.07-.13-.07-.13-.07-.24a7.5 7.5 0 0 0-.77.49l-.43.3c-.27-.12-.38-.32-.54-.55l-.09-.12-.08-.11-.08-.11c-.05-.1-.05-.1-.04-.21a.5.5 0 0 1 .21-.24l.12-.08.13-.1.17-.1.66-.46c.5-.33.5-.33.97-.68.1-.08.22-.15.34-.22Zm-.66 1.2c-.22.17-.45.34-.69.5-.18.11-.35.25-.53.38l.06.16c.28-.1.5-.28.73-.46.25-.19.5-.34.78-.48.37.5.74 1.02 1.1 1.55a88.6 88.6 0 0 0 .84 1.21l.08.11.17.26.15-.06c-.07-.27-.2-.46-.37-.69l-.16-.2-.07-.1-.44-.62-.07-.1-.26-.38-.09-.13-.41-.62-.07-.11a16.3 16.3 0 0 1-.13-.2l-.17-.24c-.21 0-.28.09-.45.22Zm5.93-2.61c.18.1.36.22.52.36v.1h.1c.3.37.43.73.47 1.2l.02.2c-.03.26-.15.46-.28.7l-.09.15c-.24.41-.5.63-.95.78-.57.12-1.05.08-1.57-.2l-.26-.22v-.1h-.1c-.42-.48-.5-.91-.49-1.53.04-.43.24-.82.54-1.13h.1v-.1c.25-.2.5-.28.79-.37.41-.14.8 0 1.2.16Zm-1.67.93c-.19.27-.28.56-.26.9.09.42.32.69.68.93.37.18.74.06 1.12-.06.2-.15.25-.35.32-.59.05-.46 0-.87-.25-1.28-.08-.08-.08-.08-.17-.14l-.1-.07c-.47-.28-1-.06-1.34.31Z"/><path d="M68.81 26.65a2.8 2.8 0 0 1 1.05 1.9 2.9 2.9 0 0 1-.64 2.02l-.11.17c-.44.62-.94.81-1.68.95a2.7 2.7 0 0 1-1.99-.44l-.18-.15-.1-.08a4.3 4.3 0 0 1-.21-.18v-.1c-.05-.03-.1-.04-.16-.06a3.18 3.18 0 0 1-.6-2.28c.15-.74.56-1.4 1.18-1.84h.1l.05-.16a2.94 2.94 0 0 1 3.3.25Zm-2.97.48v.1l-.1.04c-.24.14-.4.35-.53.6l-.1.15a2.28 2.28 0 0 0-.06 1.56c.1.2.2.39.32.58h.1l.04.09c.17.3.58.52.9.61.68.11 1.41.08 1.98-.34.09-.11.17-.23.24-.35l.06-.1c.3-.47.5-.91.43-1.48a8.02 8.02 0 0 0-.2-.67h-.11l-.05-.13-.1-.24h-.11l-.1-.2h-.11l-.05-.16a2.13 2.13 0 0 0-2.45-.06Zm7.93-3.05a2.71 2.71 0 0 1 .88 2.87 3.6 3.6 0 0 1-.63 1l-.1.12a3.06 3.06 0 0 1-2.27 1.1h-.15c-.14 0-.14 0-.35-.1V27.5l.5-.14c.47-.13 1.01-.32 1.27-.76.07-.24.08-.42 0-.67a3.43 3.43 0 0 0-.24-.37c-.07-.1-.07-.1-.07-.2h-.1v-.1c-.22-.1-.44-.18-.68-.16-.23.08-.44.2-.63.35-.1.07-.1.07-.2.07l-.05.15h-.1v.1h-.17l-.05.16h-.1l-.05.16-.16.05c-.14-.08-.14-.08-.3-.2a8.42 8.42 0 0 0-.7-.5 2.2 2.2 0 0 1-.3-.29l.17-.26.1-.14.1-.12h.1c0-.03.02-.06.04-.09.06-.12.13-.22.22-.33h.1l.04-.1c.08-.13.14-.15.27-.2l.08-.08c.87-.85 2.68-.4 3.53.25Zm-3.46.58c-.08.1-.15.21-.21.33l-.1.16.22.1.1-.12c.1-.13.1-.13.2-.19v-.1l.11-.04c.13-.05.24-.1.36-.17.42-.2.84-.26 1.31-.2a9.96 9.96 0 0 0 .83.36v.1h.11l.04.14c.06.17.06.17.14.3.2.35.3.9.21 1.3l-.13.3-.07.15c-.3.54-.75.83-1.34 1l-.18.05-.13.05v.15a2.25 2.25 0 0 0 1.53-.66c.1-.1.1-.1.09-.22h.1a122.85 122.85 0 0 0 .24-.48c.2-.4.2-.93.08-1.36l-.16-.35-.06-.12a.76.76 0 0 0-.2-.25h-.1v-.1h-.11v-.1a2.8 2.8 0 0 0-1.83-.56c-.4.06-.79.23-1.05.53Zm165.82 126.26c.15.07.28.15.41.26l.11.08.12.1.26.19a25.14 25.14 0 0 1 .73.56l.11.09a138 138 0 0 0 3 2.24c.39.28.77.59 1.16.89a36.3 36.3 0 0 0 1.48 1.13l.15.12c.24.23.32.44.34.78-.01.18-.04.36-.07.54l-.02.14c-.06.35-.06.35-.19.47l-.33.05-.2.02-.22.02-.22.02-1.34.12c0 .03 0 .06-.02.1-.07.4-.18.78-.3 1.16-.2-.03-.3-.11-.45-.25l-.59-.51-.15-.13a.94.94 0 0 0-.76-.2c-.44.05-.87.06-1.31.07l-.25.01-.52.02c-.22 0-.44 0-.66.02h-.51l-.24.02a60.46 60.46 0 0 1-1.67.01c-.08-.08-.06-.17-.06-.3 0-.3.07-.58.16-.88l.05-.15c.08-.27.08-.27.13-.37.2-.07.38-.06.58-.06h.66c.47 0 .95 0 1.42-.02h.12c.18-.02.35-.03.52-.09l-1.03-.85c-.24-.2-.47-.4-.7-.62-.2-.17-.41-.33-.63-.48-.16-.18-.19-.34-.17-.58.04-.2.1-.4.16-.6l.05-.16.12-.4c.27 0 .37.11.56.29l.2.17.09.08.32.26a24.86 24.86 0 0 0 1.74 1.38 20.74 20.74 0 0 1 1.19.95c.08.07.08.07.2.12v.11l.1.06c.11.05.11.05.17.1a7.76 7.76 0 0 0 .52-.02l1.02-.08c-.2-.2-.39-.37-.6-.53l-.2-.15-.1-.07-1.21-.95-.85-.66a40.17 40.17 0 0 1-2.55-2c-.1-.1-.1-.1-.16-.2-.02-.33.04-.6.13-.9l.04-.14c.1-.33.1-.33.16-.4ZM12.54 96.46c.19.17.34.34.49.54.36.44.72.78 1.3.88.4.04.8.05 1.2.06.73.02 1.45.08 2.16.14l.9.07.25.02.46.03.2.02h.2l.39.08c.03.45-.07.75-.26 1.16l-.07.16c-.14.3-.14.3-.21.41a1 1 0 0 1-.57.01c-.35-.05-.7-.08-1.05-.11l-.14-.01-.43-.04a299.98 299.98 0 0 1-.7-.05l-.76-.09c.27.31.55.6.86.89l.46.49a23 23 0 0 0 .7.73l.43.43c.04.4-.07.67-.23 1.03a14.02 14.02 0 0 1-.3.64c-.22-.03-.3-.09-.43-.25a8.94 8.94 0 0 0-.96-.96v-.11h-.12a5.96 5.96 0 0 1-.2-.25c-.2-.22-.42-.41-.65-.61-.37-.32-.73-.66-1.08-1l-.14-.13-.13-.12-.11-.1c-.08-.1-.08-.1-.08-.22l-.11-.04c-.15-.08-.19-.14-.27-.28a.57.57 0 0 0-.4-.23l-.65.01h-.23l-.56.03 1.31 1.26a302.02 302.02 0 0 1 1.2 1.16l.22.21c.52.5.52.5 1.07.98a6.93 6.93 0 0 1 .51.47c.2.2.38.39.56.6.15.15.32.28.49.42.14.12.15.19.17.37-.02.29-.1.5-.22.77l-.05.14c-.14.35-.14.35-.35.48l-.07-.07-.74-.73-.28-.26-.4-.4-.13-.11a13 13 0 0 0-.73-.65l-.6-.53-.13-.13c-.3-.26-.58-.54-.87-.82a9.52 9.52 0 0 0-.59-.52l-.5-.43-.09-.08a4.46 4.46 0 0 1-.47-.49c-.13-.14-.28-.25-.43-.37l-.73-.67-.18-.17-.26-.25-.16-.15A.97.97 0 0 1 9 99.1c.12-1.07.12-1.07.43-1.36.1-.02.1-.02.24-.02h.49l.53.01h1.26l.04-.1c.12-.3.24-.57.39-.85l.1-.18.06-.13Z"/></g><path d="m62.93 228.47.32.1.15.05c.18.06.34.15.5.25l.17.1.13.08v.1l.16.06c-.21.07-.32.02-.51-.08l-.12-.06a2.6 2.6 0 0 1-.8-.55v-.05Zm4.07-.69.05.1a4.99 4.99 0 0 1-.37.7c-.05-.16-.05-.16.03-.32l.1-.17.1-.18.1-.13Zm.48-.84c0 .2-.06.28-.16.46l-.09.15-.07.13-.05-.11.15-.3.09-.15c.07-.13.07-.13.13-.18Zm-4.65-1.01-.04.13c-.17.67-.29 1.47.09 2.1.13-.17.22-.34.32-.52l.09-.17.19-.35.09-.17.08-.16c.07-.12.07-.12.18-.17-.08.29-.22.53-.37.79-.19.33-.19.33-.35.68a.6.6 0 0 1-.28.33l-.13-.14-.18-.18-.08-.09c-.16-.16-.27-.27-.51-.28h-.21c.03-.24.12-.41.25-.61a8.59 8.59 0 0 1 .25-.4l.13-.22c.35-.57.35-.57.48-.57Zm-2.96-1.16.1.05-.28.5-.08.14-.08.13-.08.13c-.05.09-.1.18-.17.26a1.87 1.87 0 0 1-.5-.26l-.13-.1-.13-.1-.14-.1a4.46 4.46 0 0 1-.63-.55c.17.06.32.11.48.2.43.18.88.08 1.3-.08.12-.06.23-.13.34-.22Z" fill="#4F4F4F" fill-opacity=".5"/><path d="M67.46 223.1c.3.2.5.42.7.72.13.19.13.19.32.3l.32.01c-.08.2-.19.31-.33.46l-.14.13-.14.14-.14.14-.13.14-.13.12c-.1.09-.1.09-.2.09.04-.13.1-.25.15-.37.18-.36.28-.72.17-1.12-.17-.37-.5-.6-.87-.76a1.66 1.66 0 0 0-1.3.07c-.32.2-.54.38-.64.75 0 .2.02.39.05.58l.27-.2c.2.07.38.16.57.27l.19.1.2.12.09.06.5.28.52.3.3.17.13.08.12.07.1.06.08.07v.21l-.06-.16a4.17 4.17 0 0 0-.26-.1 19.5 19.5 0 0 1-.4-.22l-.12-.07c-.27-.15-.54-.3-.8-.47l-.1-.06a83.61 83.61 0 0 1-.66-.4l-.16-.1c-.14-.08-.14-.08-.3 0l-.05.1-.1.05c-.13.07-.16.13-.22.27l.27-.27.07.1.57.69c.98 1.14.98 1.14.96 1.98-.05.58-.39 1.01-.8 1.4-.37.3-.72.41-1.17.48.2.18.43.28.67.38l.13.06.3.15.03-.12c.03-.15.08-.27.15-.4a48.66 48.66 0 0 1 .15-.3l.07-.14.19-.37c.1.28-.1.53-.22.78a22.52 22.52 0 0 0-.23.48c-.08.12-.08.12-.18.17-.16 0-.25-.05-.4-.13l-.16-.08-.17-.1-.17-.08c-.42-.22-.42-.22-.48-.4l-.1-.05.14-.04.18-.06.19-.05c.18-.07.29-.15.44-.28h.1l.05-.09.12-.24c.21-.39.31-.7.2-1.14-.16-.5-.55-.88-.9-1.26l-.26-.31c-.1-.13-.1-.13-.21-.18l-.05.1a6.05 6.05 0 0 1-.26.45l-.07.12a8.68 8.68 0 0 0-.26.44l-.05-.1c.07-.15.14-.29.22-.42l.07-.12c.09-.15.17-.3.28-.44.08-.08.08-.08.06-.21-.05-.14-.05-.14-.13-.28a1.3 1.3 0 0 1-.07-.95c.21-.55.53-.85 1.06-1.1.73-.3 1.45-.28 2.14.1Zm-2.63 1.93-.26.32.05.1.27-.31-.06-.1Zm-12.47-4.43c.18.08.33.19.49.32l.14.11.1.1c0 .04-.03.1-.04.15l-.32-.23a1.89 1.89 0 0 0-.27-.2l-.1-.1v-.16Zm6.44-3.55c.23.03.37.17.53.31l.18.16.1.08.46.38.1.07.48.38.1.07.2.15c.16.12.27.22.34.4a1.97 1.97 0 0 1-.68-.4l-.22-.17c-.22.17-.4.35-.58.56l-.36.42-.13.13-.09.1c.07.2.16.25.33.38l.19.15a40.18 40.18 0 0 1 .48.36c.61.47 1.23.93 1.86 1.39a2 2 0 0 1-.31.45c-.32.38-.6.78-.88 1.18l-.34.46-.1.14-.07.1.11.05c-.04.18-.1.3-.2.47l-.09.15-.1.15c-.2.36-.42.71-.61 1.08l-.22-.06c.22-.44.44-.86.71-1.27.1-.15.1-.15.11-.28.04-.2.15-.33.26-.48l.07-.1.15-.2.22-.3a30.14 30.14 0 0 1 1.13-1.49l-.26-.2-.23-.16a158.63 158.63 0 0 0-1.7-1.3l-.61-.46a7.58 7.58 0 0 0-.73.82c-.58.72-1.1 1.49-1.63 2.26l-.06.1c-.24.3-.24.3-.32.64l.1.2-.33-.16c.08-.28.22-.5.38-.73l.09-.13.18-.26.3-.45c.35-.5.69-.99 1.09-1.44.2-.23.37-.47.54-.7.1-.13.2-.22.33-.3l-.16-.06-.03.09c-.1.17-.22.32-.34.47l-.07.1-.5.6c-.32.38-.6.8-.88 1.22l-.33.48c-.2.28-.38.58-.56.88-.09.13-.09.13-.2.18-.5-.38-.98-.77-1.47-1.16l.05-.1c.2.08.36.2.53.34.2.16.2.16.42.29l.04-.12c.07-.15.15-.28.24-.42l.1-.16.12-.17.11-.17a22.64 22.64 0 0 1 1.64-2.16l.12-.15.23-.28c.28-.35.57-.68.87-1l.55-.6a9.04 9.04 0 0 0-.74-.7v-.1Zm-5.7-2.17c.25.1.42.3.61.48.12.11.12.11.23.13.13.03.19.08.29.17a7.88 7.88 0 0 0 .2.18l.2.19.11.09.63.5a3 3 0 0 1-.45.61c-.3.34-.58.7-.85 1.05l-.2.26c-.46.59-.9 1.19-1.29 1.82l-.06.07h-.16v.11a1.3 1.3 0 0 1-.57-.38l-.08-.07-.2-.19.43-1.55.05-.19.25-.8c.06-.17.1-.29.01-.47a3.92 3.92 0 0 0-.41-.4l-.62-.53c-.08-.07-.08-.07-.18-.23l.1-.05c.35.27.69.56 1.01.87.15.13.15.13.31.24l.04-.2a7.76 7.76 0 0 1 .34-1.07c.15-.43.15-.43.26-.64Zm.8.7a337.69 337.69 0 0 0-.65 1.85c-.21.6-.39 1.21-.55 1.83l-.03.11a44.37 44.37 0 0 0-.13.5c-.04.14-.04.14.03.3l.17-.23.12-.16.29-.41c.39-.55.8-1.07 1.22-1.58l.26-.31.1-.14.48-.6c-.08-.2-.2-.3-.37-.44-.25-.2-.5-.42-.74-.64-.1-.1-.1-.1-.2-.09Z" fill="#4F4F4F" fill-opacity=".5"/><path d="M51.83 214.57c0 .33-.18.52-.4.75l-.08.09c-.2.2-.2.2-.31.27l-.07.13a3.8 3.8 0 0 1-.43.62c-.26.33-.52.67-.76 1.01l-.08.11-.08.11-.06.1a.63.63 0 0 0-.1.3l.14.12.2.17a56.1 56.1 0 0 1 .63.55l.36.28c.14.09.21.16.3.3a3.7 3.7 0 0 1-.9-.63l-.27-.24-.13-.12a26.2 26.2 0 0 0-.5-.44c.09-.26.24-.46.4-.68l.08-.12a33.09 33.09 0 0 1 1.1-1.47c-.03-.1-.03-.1-.1-.2-.16-.07-.24-.07-.4 0l-.15.09a15 15 0 0 1-.16.1l-.18.1a165.42 165.42 0 0 1-.7.44l-.27.17-.57.36c.1.27.35.43.56.62.13.12.13.12.13.28a1.33 1.33 0 0 1-.4-.27l-.1-.1-.11-.1-.23-.22-.11-.11a30 30 0 0 0-.45-.41l-.14-.13-.1-.09.05-.1c.22.09.33.22.48.4.1.08.1.08.23.06.14-.04.24-.1.37-.17l.13-.08.13-.08.15-.09a39.1 39.1 0 0 0 .92-.56l1.02-.59c.2-.1.4-.22.59-.33l.21-.12.16-.08Zm-.32.37a2.9 2.9 0 0 0-.35.18l-.1.05-.23.14.1.2c.22.03.22.03.34-.1l.12-.16.13-.15.1-.11-.1-.05Zm.85-.85.21.1c0 .13 0 .13-.05.27a.96.96 0 0 1-.53.21c.07-.26.17-.4.37-.58Zm0 .1-.1.16.2-.1-.1-.05Zm2.34-.95.09.06c-.03.27-.11.5-.22.74l-.05.12-.16.37-.1.26-.26.62c-.25-.12-.44-.3-.66-.47-.11-.1-.21-.15-.35-.22l-.2-.16-.1-.09-.07-.06.06-.27.22-.14.14-.07.14-.07a35.96 35.96 0 0 0 1.06-.53l.18-.09c.16-.05.16-.05.29 0Zm-1.69.9-.16.1-.12.06c-.01.11-.01.11.08.19l.1.08.1.09c.08.08.08.08.2.06l.26-.73c-.2 0-.29.06-.46.15Zm-7.11-5.97c.25.05.37.2.54.37.17.18.3.31.53.42l.26.27.34.3.72.7c.52-.23.91-.83 1.27-1.27l-.23-.23-.13-.13c-.1-.11-.1-.11-.22-.17v-.1h-.11l.05-.16.27.23.2.16c.28.25.55.52.81.79l.1.1.08.08c.08.07.08.07.18.12v.16c-.2-.09-.35-.23-.51-.38l-.09-.07-.2-.19c-.4.18-.69.6-.97.92-.24.28-.24.28-.4.35l-.06.12c-.12.19-.27.34-.42.5-.38.4-.74.82-1.09 1.24l-.1.12c-.46.56-.9 1.14-1.34 1.72l.1.22.22.05.05-.08c.54-.74 1.1-1.46 1.7-2.15.14-.15.28-.3.4-.46l.8-.9c-.06-.1-.13-.18-.2-.27l.05-.1.32.26c-.08.18-.19.3-.32.45-.22.23-.42.47-.62.72l-.3.33c-.2.19-.36.4-.52.61l-.18.24-.09.12-.5.64-.52.67-.07.08h-.16l-.1-.1c-.13-.13-.2-.14-.38-.17l-.05-.1.1-.11-.07-.05a6.2 6.2 0 0 1-.77-.68l-.11-.12a88.52 88.52 0 0 1-1.21-1.21l.05-.1.14.13.5.5.2.21c.55.55.55.55 1.12 1.06l.05.05.2-1.32c.36-2.42.36-2.42.57-3.5l.13-.73-.37.4-.1.1c-.34.36-.66.73-.98 1.1l-.07.09-.7.85-.74.9c0-.2.05-.24.17-.4l.12-.14a235.37 235.37 0 0 1 1.61-1.9l.23-.26.83-.9Zm.9.85c-.12.52-.22 1.05-.31 1.58l-.08.4c-.18.9-.18.9-.24 1.82.23-.21.42-.44.61-.69.33-.4.68-.78 1.03-1.16l.23-.25.08-.1c.07-.07.07-.07.06-.18h.1c-.07-.2-.21-.32-.38-.47a14.1 14.1 0 0 1-.99-.95h-.1Z" fill="#4F4F4F" fill-opacity=".5"/><path d="M45.86 205.16c.16.07.27.16.4.28l.1.1.12.12.1.1.12.12.1.1c.06.08.06.08.06.18l.09.03c.17.1.3.22.39.4-.02.46-.16.92-.27 1.37l-.06.25-.15.6a2.07 2.07 0 0 1-.84-.75c-.04-.23.03-.4.1-.63l.09-.38.12-.57-.5.5-.17.16c-.28.29-.57.57-.83.88l-.44.47a30.7 30.7 0 0 0-1.5 1.74l-.15.2-.17.2-.08.09c-.13.16-.13.16-.18.36.08.14.18.24.3.34l.23.24v.16c-.22-.09-.37-.25-.53-.42l-.1-.1a196.13 196.13 0 0 1-.95-.96l.05-.16c.23.2.45.4.66.62.08.08.08.08.19.07l.17-.21.11-.15.07-.08a43.77 43.77 0 0 1 1.68-1.97l.46-.5a17.36 17.36 0 0 1 .56-.6c.41-.45.85-.88 1.28-1.3-.12-.27-.31-.43-.52-.62-.11-.13-.11-.13-.11-.28Zm-4.55-2.06c.19.18.36.38.48.6.15.27.34.48.6.63a2.24 2.24 0 0 1 .5.44l.5.55c.12.14.26.26.4.38.06.1.06.1.05.2a.69.69 0 0 1-.2.28l-.1.1-.1.12-.22.22-.11.12a32.13 32.13 0 0 0-1.54 1.73l-.95 1.13a6.75 6.75 0 0 1-.84-.85c.16 0 .16 0 .26.09l.1.11.12.11c.1.1.18.21.26.33.22-.09.35-.26.5-.44l.17-.2.08-.1a46 46 0 0 1 1.43-1.63c.2-.23.4-.45.62-.67l.1-.12.27-.28c-.22-.45-.64-.8-1-1.15a4.54 4.54 0 0 1-.32-.38c-.2.08-.34.22-.5.37l-.07.08-.5.55-.38.39c-.23.23-.44.47-.65.73a11.35 11.35 0 0 1-.87.95c-.1.1-.1.1-.2.26 0 .15 0 .15.05.26-.27-.22-.5-.46-.74-.72l-.48-.5.06-.1.06.07.09.09.08.09c.08.08.08.08.19.07l.15-.17.1-.12.12-.14c.61-.72 1.25-1.41 1.92-2.08.44-.42.44-.42.77-.93l-.37-.32-.26.26-.14.15c-.12.11-.12.11-.18.23h-.1v.1h-.1l-.06.16h-.1l-.05.1c-.06.12-.13.19-.22.28l-.1.1-.1.1c-.23.22-.45.44-.66.69l-.46.5c-.18.2-.34.4-.5.63-.1.11-.2.12-.35.14l-.21-.32c.19 0 .23.05.37.16.42-.44.42-.44.82-.9.35-.4.72-.8 1.1-1.17l.26-.29c.2-.23.42-.46.64-.68l.11-.12.11-.1.1-.1c.08-.07.08-.07.19-.07Z" fill="#4F4F4F" fill-opacity=".5"/><path d="M42.37 201.46c.27.22.52.47.76.73l.1.1.5.55c.17.2.36.4.56.58.09.1.09.1.09.2h.1l-.05.16a9.6 9.6 0 0 1-.74-.69c-.2.09-.32.2-.46.35l-.15.15-.14.15-.15.15-.37.37a1.09 1.09 0 0 1-.4-.31l-.1-.11c-.08-.1-.13-.2-.19-.32l.35-.35.1-.1c.2-.21.42-.4.65-.59.09-.08.09-.08.07-.28-.1-.13-.1-.13-.23-.24a1.22 1.22 0 0 1-.36-.45l.06-.05Zm-12.95-4.97c.23.07.35.2.52.37.12.07.12.07.22.1v.16c-.33-.06-.54-.27-.74-.53v-.1Zm6.98-2.17c.22.21.4.45.6.7l.18.24.08.12.68.83c.83.94 1.47 1.92 1.43 3.22a3.8 3.8 0 0 1-1.33 2.6c-.41.39-.9.75-1.49.8.26-.31.55-.6.84-.9l.13-.14.14-.13.12-.12c.1-.08.1-.08.2-.08l-.05-.1a121.43 121.43 0 0 0-.84.82l-.3.3a339 339 0 0 0-.1.1 1.2 1.2 0 0 0-.35.51c-.07.1-.07.1-.15.17a317.08 317.08 0 0 0-.19.18l-.09.1-.18.17-.29.28c-.36-.38-.72-.77-1.05-1.19a9.07 9.07 0 0 0-.41-.46.56.56 0 0 1-.12-.3c-.06-.1-.06-.1-.14-.17l-.13-.15.06-.1.07.07c.44.4.84.59 1.43.58.96-.1 1.7-.7 2.35-1.34l.13-.12c.24-.22.48-.48.61-.78 0-.23-.17-.38-.32-.54l-.16-.18-.08-.1c-.1-.1-.18-.22-.27-.33l-.59-.73-.09-.12-.08-.1-.08-.1c-.07-.08-.07-.08-.18-.13l-.84.76c-.23.23-.47.45-.72.67l-.56.54-.29.26c-.34.3-.65.62-.97.94 0-.2.07-.24.2-.37l.09-.09.09-.09a111.2 111.2 0 0 1 1.32-1.27l.49-.44c.8-.76.8-.76 1.2-1.07a.8.8 0 0 1 .35.28l.08.1.09.1.18.24.1.12.46.57.08.1c.31.44.31.44.72.77a31.87 31.87 0 0 0 .2-.6c.21-.62.16-1.24-.1-1.83a5.28 5.28 0 0 0-1-1.32c-.2.08-.33.2-.48.34l-.6.52c-.3.24-.58.5-.87.77l-.49.44-.54.5-.35.3c-.23.2-.44.41-.65.63a8 8 0 0 1-.6.55c-.08.07-.16.14-.23.23.01.19.08.35.16.53-.23-.09-.34-.25-.48-.44l-.15-.2-.08-.1-.45-.56-.25-.3a8.15 8.15 0 0 0-.2-.24l-.09-.12.06-.16c.25.24.47.52.68.8.16-.08.27-.15.4-.27l.1-.1.1-.1.23-.21.23-.22a33.51 33.51 0 0 1 2-1.8 40 40 0 0 1 1.86-1.59c-.1-.27-.26-.45-.45-.67l-.08-.12.05-.16Zm1.95 5.55c.06.15.14.25.25.37.12.16.12.16.11.27-.07.17-.22.28-.36.4l-.1.09-.22.2.06.1.42-.37.11-.1.1-.1.1-.08c.07-.09.07-.09.05-.2a1.16 1.16 0 0 0-.23-.32l-.1-.12c-.08-.1-.08-.1-.19-.14Zm-4.12 2.54c.08.18.19.31.32.46l.13.14a29.08 29.08 0 0 1 .71.83c.19-.08.3-.2.45-.34l.12-.12c.13-.14.23-.28.33-.44h-.15c-.7-.04-1.3-.19-1.91-.53Zm-2.65-14.96h.1c.07.07.07.07.13.18l.07.12.07.12a21.98 21.98 0 0 0 .99 1.5c.5.7.96 1.36.85 2.26-.1.49-.37.88-.78 1.16h-.1a8.64 8.64 0 0 0 .18.25l.1.14c.09.14.09.14.09.25a.98.98 0 0 1-.32.32l-.16.13a24.42 24.42 0 0 0-1.08.86c-.43.32-.84.68-1.25 1.03l-.1.1-.21.18-.27.23c-.06.04-.06.04-.11.1-.1.06-.1.06-.31.06l-.16-.2a2.16 2.16 0 0 0-.28-.35c-.17-.17-.3-.35-.45-.54l-.08-.1c-.26-.36-.5-.72-.72-1.09h.16l.14.19a21.43 21.43 0 0 1 .33.51l.08.13.5.7.02-.1c.05-.39.15-.61.4-.9l.13-.16c.14-.16.3-.3.45-.43.37-.32.8-.7.87-1.22.02-.62-.3-1.03-.63-1.52-.18-.25-.18-.25-.18-.37l-.11.12c-.14.13-.27.24-.42.35l-.17.13-.2.14-.5.36-.12.1c-.3.22-.6.45-.9.7-.21.16-.21.16-.33.16l.08.15.08.17-.05.1c-.16-.19-.16-.19-.16-.37h-.1c-.15-.06-.2-.14-.29-.28a52 52 0 0 0-.1-.14l-.1-.16-.2-.29-.19-.28a13.16 13.16 0 0 0-.2-.3l-.08-.13c-.06-.1-.06-.1-.06-.27.24.08.33.28.46.49l.07.1.15.26c.27-.08.46-.25.67-.42a17.14 17.14 0 0 1 1.35-.97l.37-.24a35.46 35.46 0 0 0 2.14-1.48l.16-.1.7-.49a3.5 3.5 0 0 0-.4-.72l-.07-.13.05-.1Zm.7 1.92-.12.09-.11.08-.12.09c-.26.18-.51.38-.77.57a3.21 3.21 0 0 0 .42.77c.18.29.37.57.56.84.08.13.08.13.1.24.05.16.14.26.24.4.2.27.2.27.27.44-.64.04-1.04-.03-1.52-.46l-.23-.22-.05.1.12.27c.24.51.35 1.05.15 1.6-.28.55-.82.97-1.27 1.4-.11.12-.19.23-.26.39l-.07.13c-.06.13-.06.13 0 .28l.1-.09c.28-.25.57-.5.86-.73l.52-.44c.27-.23.54-.45.82-.66l.7-.56c.17-.15.36-.29.55-.43a1.07 1.07 0 0 0-.18-.41 1.65 1.65 0 0 1-.19-.35c-.08-.2-.21-.34-.35-.5-.07-.11-.07-.11-.07-.22a.7.7 0 0 1 .27-.27c.3-.22.59-.52.68-.89.07-.57-.21-.98-.53-1.43l-.1-.16c-.22 0-.26.01-.42.13Zm-1.65 1.24-.1.07-.1.07-.1.06c-.09.1-.1.16-.12.29.07.13.15.24.24.36l.07.1c.25.33.48.61.9.7.27 0 .52-.08.75-.21a2.7 2.7 0 0 0-.33-.6l-.06-.1-.13-.2-.2-.3-.13-.2-.06-.08a4.2 4.2 0 0 0-.15-.21c-.19 0-.33.14-.48.25Zm-2.69-5.28a.7.7 0 0 1 .26.48l-.17.09c-.41.21-.82.43-1.2.68l-.54.31-.18.1-.36.2c-.28.15-.5.29-.72.52-.15.11-.3.21-.47.31l-.12.08-.31.2c-.25-.24-.4-.51-.57-.8l-.16-.29-.1-.18-.1-.17a.7.7 0 0 1-.07-.42l.1.07.14.09.14.08a2.3 2.3 0 0 0 1.69.12 6.82 6.82 0 0 0 2.74-1.47Zm-4.6 1.54a9.9 9.9 0 0 0 .59 1.08c.08.15.08.15.25.19l.2-.11.12-.08.12-.08.12-.07.29-.2-.05-.1-.26-.07a3.8 3.8 0 0 1-1.28-.56h-.1Zm-1.17-1.91c.24.24.4.47.57.77l.1.18c.1.2.13.36.13.59a4.15 4.15 0 0 1-.6-.92.3.3 0 0 1-.06-.11.98.98 0 0 1-.14-.5Z" fill="#4F4F4F" fill-opacity=".5"/><path d="M28.47 181.87c.45.39.75.9.8 1.5a3.94 3.94 0 0 1-1.23 3.23l-.1.11c-.73.68-1.62.91-2.6.9l-.05-.1.1-.07c.65-.35 1.3-.72 1.93-1.1.3-.19.62-.36.93-.53-.02-.26-.13-.35-.31-.53a3.76 3.76 0 0 1-.31-.5l-.1-.16a56.6 56.6 0 0 1-1.07-1.98c-.43.12-.83.31-1.23.5l-.38.19-1.14.54-.46.22a223.62 223.62 0 0 0-.53.26l-.17.08c-.19.06-.34.07-.53.06-.04-.84.04-1.59.58-2.28l.1-.12c1.39-1.68 4.19-1.5 5.77-.22Zm-5.82 1.42c-.29.37-.38.69-.42 1.15.9-.4 1.82-.82 2.72-1.25l.13-.06.64-.3.24-.12.11-.06a.91.91 0 0 1 .44-.12l.05.1c.33.66.67 1.3 1.04 1.93l.1.16.08.16.08.13c.07.1.14.19.23.27.55-.49.97-1.04 1.03-1.79a2.2 2.2 0 0 0-.6-1.38 2.24 2.24 0 0 0-1.67-.6c-1.4.1-3.23.75-4.2 1.78Zm.95-6.36.05.1.24.44.08.17.41.78c.27.5.52 1 .75 1.52a11 11 0 0 1-.9.34l-1.46.53-.1.03-1.1.42-.2.07-.36.14-.16.07-.14.05c-.12.04-.12.04-.28.04l-.36-.7-.12-.23a51.6 51.6 0 0 1-.84-1.66l-.08-.14-.16-.35-.06-.11c-.13-.28-.13-.28-.07-.45.09-.04.09-.04.2-.06l.14-.03.14-.03.33-.07.17-.04.74-.17c.75-.18 1.5-.34 2.25-.5l.1-.01.31-.06.29-.07c.09-.02.09-.02.2-.02Zm-.58.18-.11.02-.36.07-.12.03c-.52.1-1.03.22-1.54.34-.45.11-.9.21-1.36.3l-.18.05-.15.03a2.8 2.8 0 0 0-.4.14c.06.22.14.43.25.63l.09.2.1.19.04.1.27.53a87.08 87.08 0 0 1 .48.97l.1.2a24.5 24.5 0 0 0 .22.44c.07.13.07.13.19.17.16.01.28-.05.44-.11l.1-.04.22-.09.6-.23.13-.05 1.61-.6.15-.05c.84-.3.84-.3 1.19-.4a1.9 1.9 0 0 0-.2-.58l-.1-.18a34.5 34.5 0 0 0-.1-.2l-.09-.2c-.3-.59-.62-1.17-.94-1.76-.19 0-.35.04-.53.08ZM233.2 68.56a12.87 12.87 0 0 1 .28.5l.17.31.1.17a41.54 41.54 0 0 0 .45.86l.34.63a26.2 26.2 0 0 0 .25.46l.14.26c.07.14.07.14.07.3-.55.18-1.11.33-1.68.47l-.27.07a98.58 98.58 0 0 1-2.29.56l-.17.05-.16.04c-.14.03-.21.04-.35-.03-.08-.1-.08-.1-.15-.24l-.09-.16-.09-.17-.2-.36a35.13 35.13 0 0 0-.44-.78l-.16-.3a15.5 15.5 0 0 0-.34-.6c-.06-.13-.06-.13-.06-.25.07-.13.14-.15.28-.2a78.52 78.52 0 0 1 .31-.1c.12-.05.24-.1.35-.13l.19-.07.97-.38.1-.04c.38-.15.76-.3 1.13-.47l.1-.04a42.43 42.43 0 0 0 .66-.3l.16-.07a.52.52 0 0 1 .4.01Zm-.51.15-.15.07-.17.07-.34.14-.18.08-.84.34-.16.06c-.47.2-.95.38-1.43.56-.26.1-.52.2-.76.33.07.2.16.39.27.58l.1.18.1.2.05.1c.43.92.43.92 1 1.74a5.91 5.91 0 0 0 .95-.17l.38-.09.13-.03a77.55 77.55 0 0 0 2.33-.6l.4-.1.13-.04c.2-.05.2-.05.4-.13a1.9 1.9 0 0 0-.21-.53l-.05-.09-.15-.3-.06-.1c-.27-.52-.55-1.04-.85-1.55-.15-.27-.3-.54-.43-.81-.2 0-.28.02-.46.1Zm-2.19-4.91c.4.36.69.83.85 1.33l-.05.16-.07-.12c-.08-.15-.08-.15-.19-.24-.29-.3-.52-.7-.53-1.13Zm-2.37-1.1a1.85 1.85 0 0 1-.6.44l-.15.09c-.38.21-.75.44-1.1.67-.35.23-.7.44-1.06.64.03.22.08.3.24.45.34.35.57.81.81 1.23l.2.33.09.17.37.63.06.1.13.21a4.38 4.38 0 0 0 .82-.35l.36-.17.24-.13c.42-.2.84-.42 1.25-.64.33-.18.67-.35 1-.51l.13-.06.12-.06a9 9 0 0 1 .1-.05c.1-.03.1-.03.32-.03.2.59.03 1.36-.22 1.91a3.47 3.47 0 0 1-2.15 1.68c-1.06.27-2.32.2-3.29-.32l-.13-.06a2.63 2.63 0 0 1-1.36-1.64 3.86 3.86 0 0 1 2.93-4.5c.3-.05.59-.05.89-.04Zm-2.89 2.5c-.44.51-.82 1.04-.8 1.74.06.56.3 1.03.71 1.43.61.45 1.33.46 2.06.38a7.81 7.81 0 0 0 3.24-1.46l.1-.07c.41-.32.65-.74.75-1.25v-.2a4.7 4.7 0 0 0-.9.39l-.29.14-.42.2-1.72.9c-.7.37-.7.37-.9.37l-.06-.1c-.38-.67-.76-1.34-1.17-2l-.1-.16-.1-.15-.08-.14-.07-.1c-.16-.01-.16-.01-.25.08Z" fill="#4F4F4F" fill-opacity=".5"/><path d="M229.24 61.95c.2.07.24.16.35.35l.06.09.11.19.18.28.11.19.1.16c.1.18.15.35.2.54l-.32-.16-.1-.05-.11-.06c-.54-.24-1.29-.13-1.83.07-.79.32-1.51.75-2.19 1.26l-.31.21c-.22-.3-.22-.3-.22-.48l.16-.08c.4-.22.8-.46 1.18-.72.29-.2.59-.37.9-.55l.48-.3c.14-.09.14-.09.24-.09l.02-.1c.05-.14.1-.17.22-.24l.12-.07.12-.07.23-.14.1-.06c.1-.06.1-.06.2-.17Zm-.24.28-.11.07-.11.07-.11.07-.28.2v.1l.14.04c.56.13 1.05.35 1.55.6-.1-.28-.26-.53-.42-.78l-.08-.14-.09-.14-.07-.12-.08-.09c-.17 0-.2.02-.34.12Zm-5.44-8.3c.18.06.23.16.32.32.07.1.07.1.17.14.15.08.22.18.32.32l.12.17a16.9 16.9 0 0 0 .34.46l.2.27.1.14a332.52 332.52 0 0 0 .18.24c.07.1.07.1.12.26h-.1l-.15-.19-.08-.12-.1-.13-.18-.26-.1-.13c-.11-.17-.24-.34-.36-.5l-.12-.15-.08-.11v.13c-.06.46-.16.7-.47 1.03a15.07 15.07 0 0 1-.73.78c-.31.3-.54.62-.56 1.08 0 .55.35.94.67 1.37.2.25.2.25.2.37l.11-.12c.45-.44.97-.82 1.47-1.2l.4-.31.09-.08.57-.46-.06-.26.16.1v.16l.1.01c.17.06.22.16.33.31l.06.08.2.29a31.12 31.12 0 0 0 .39.55c.12.18.23.35.3.56h-.16l-.14-.19-.08-.11-.08-.13-.08-.12-.2-.3c-.24.13-.44.3-.65.47-.53.44-1.08.83-1.64 1.22-.44.3-.86.62-1.28.95-.35.28-.72.54-1.08.8l-.16.11-.15.1-.12.1c-.1.06-.1.06-.2.06.09.26.23.48.39.71.08.13.08.13.08.3-.23-.08-.29-.25-.4-.44-.18-.28-.35-.56-.54-.83l-.07-.1-.38-.5c-.59-.75-1-1.33-.94-2.31.07-.42.32-.78.64-1.05.1-.06.1-.06.2-.06-.13-.2-.27-.39-.42-.59.2-.24.42-.46.66-.67l.2-.16.1-.09.39-.33.76-.64c.2-.16.38-.32.55-.5l.41-.37.27-.27c.15-.14.15-.14.29-.18Zm-.22.27-.12.1c-.03.05-.08.09-.12.13-.29.27-.59.55-.9.81l-.09.08-.26.23-.1.08-.59.5-.69.59-.43.37a39.63 39.63 0 0 0 .28.44l.09.09c.13 0 .13 0 .28-.03a1.58 1.58 0 0 1 1.3.4h.11v.1l.16.06a8.3 8.3 0 0 0-.16-.46 2.1 2.1 0 0 1-.11-1.38c.19-.42.52-.75.86-1.07.38-.36.68-.66.73-1.21-.1 0-.17.1-.24.17Zm-2.93 3.47a2.8 2.8 0 0 0 .44.68l.09.12-.1.1-.08.07-.2.2c-.35.32-.54.61-.6 1.09.07.5.33.86.66 1.23.07.04.14.08.21.1.15-.1.3-.2.45-.32l.13-.09.8-.59c-.08-.15-.16-.3-.26-.43l-.09-.13-.09-.13-.53-.78-.08-.11c-.06-.1-.06-.1-.14-.29-.12-.27-.3-.5-.5-.72h-.11Zm.69.8a17 17 0 0 0 .91 1.33l.08.1.12.2a2 2 0 0 0 .6-.35l.08-.06a76 76 0 0 0 .22-.17c-.03-.25-.15-.41-.3-.6l-.07-.1a1.93 1.93 0 0 0-.64-.57c-.4-.03-.68-.02-1 .22Zm1.9-5.18c.28.12.49.24.69.47v.1h-.21l-.22-.26c-.16-.1-.16-.1-.31-.16l.05-.15Zm-6.6-5.45c-.38.41-.76.81-1.16 1.2l-.56.6c-.16.2-.34.36-.5.53.1.23.23.48.49.57.18.08.29.2.41.35l.08.08.59.7a20.87 20.87 0 0 1 .9 1.04c.22-.11.39-.26.56-.43l.08-.08.27-.27.2-.2.49-.5.5-.5.81-.82.48-.47c-.02.23-.18.35-.33.5l-.09.09-.27.26a51.76 51.76 0 0 0-.43.43c-.15.14-.15.14-.25.3h-.11l-.03.1c-.1.15-.22.26-.36.38-.23.2-.45.42-.66.64l-.14.14-.27.27-.12.13-.11.12c-.1.07-.1.07-.22.07a.66.66 0 0 1-.25-.2l-.08-.1-.09-.1-.09-.11-.18-.22-.42-.5-.08-.09c-.39-.5-.39-.5-.87-.9a16.22 16.22 0 0 0-.2.68c-.19.6-.1 1.16.16 1.72a4.8 4.8 0 0 0 .74 1l.26.3c.2-.03.3-.12.45-.25l.14-.13.15-.14.23-.22.17-.15.48-.43c.3-.27.57-.55.85-.83.17-.18.35-.35.54-.51.25-.22.48-.45.72-.69l.13-.13a12.53 12.53 0 0 0 .9-.96 4.83 4.83 0 0 0-.22-.47h.16c.1.1.1.1.2.24l.14.16.06.09.4.46a24.73 24.73 0 0 1 .6.7l.11.13.08.12-.06.16a11.6 11.6 0 0 1-.49-.51l-.11-.13c-.08-.1-.08-.1-.08-.2-.26.2-.48.42-.7.68-.09.1-.18.18-.29.27-.26.23-.5.48-.76.74-.27.28-.55.55-.85.8l-.5.46-.1.1-.52.5c-.24.25-.5.46-.78.67l-.31.27c.14.24.3.45.5.67.08.12.08.12.08.23h-.16a4.92 4.92 0 0 1-.42-.53l-.08-.1-.4-.5-.08-.09-.51-.57c-.85-.92-1.55-1.93-1.53-3.24.05-1.06.58-2 1.35-2.7.95-.81.95-.81 1.35-.68Z" fill="#4F4F4F" fill-opacity=".5"/><path d="M217.4 46.62c.2.09.33.22.49.38a7.34 7.34 0 0 1 .58.63l.46.5c.1.13.16.25.21.4.1.12.1.12.21.2l-.05.12-.09-.07c-.45-.31-.88-.54-1.44-.46-.73.15-1.24.48-1.8.95l-.11.09c-.45.37-.8.84-1.1 1.34-.23-.1-.36-.25-.53-.43.07-.16.15-.27.28-.4l.1-.1.1-.1.11-.1.3-.3c.22-.21.42-.43.62-.65l.07-.08.08-.09a26.6 26.6 0 0 1 .5-.53c.1-.13.15-.24.21-.4l.17-.17c.23-.22.43-.47.63-.73Zm.05.11-.31.33-.09.09a3.5 3.5 0 0 0-.4.53h.2c.57.03 1.1.08 1.62.36l.14.06.1-.05a60.7 60.7 0 0 0-.96-1.06l-.1-.1-.08-.1c-.06-.07-.06-.07-.12-.06Zm-2.65-2.75c.2.03.3.06.43.21l-.05.16-.32-.21-.1.12a174.25 174.25 0 0 1-1.28 1.5c-.27.32-.54.63-.84.92l-.05.1h-.11l-.04.1c-.07.13-.16.22-.27.33a2.9 2.9 0 0 0-.38.42c-.17-.02-.22-.06-.34-.2l-.13-.12c-.32.02-.55.37-.76.57l-.15.15-.14.14-.13.13c-.1.11-.1.11-.09.23.08.17.21.28.35.4l.28.29v.1c-.2-.03-.3-.12-.44-.27l-.11-.11-.3-.34c-.28-.32-.59-.61-.9-.91l-.23-.23-.14-.14c-.1-.11-.1-.11-.1-.22.16 0 .16 0 .28.11l.15.16a127.44 127.44 0 0 0 .37.37c.17-.08.28-.17.4-.31l.12-.12.11-.13.23-.24.1-.11.1-.1.08-.1c.07-.06.07-.06.17-.06.16.08.26.19.38.32.15.16.27.28.47.37l.22.21.15.05.04-.09c.08-.13.16-.21.26-.32.14-.13.28-.27.4-.41l.45-.5c.28-.3.54-.59.8-.9l.44-.54c.22-.25.43-.5.63-.78Zm-4.96-4.97c.22.1.37.25.54.4l.1.1.54.53.39.33.07.07v.1c-.2-.02-.29-.1-.42-.25a1.8 1.8 0 0 0-.48-.38l-.12.16a36.9 36.9 0 0 1-1.98 2.46l-.35.41c-.25.31-.53.6-.8.9l-.53.58c-.13.14-.13.14-.29.28-.12.11-.12.11-.12.23.1.16.22.28.36.4l.29.3v.1h-.16v-.1l-.1-.05a1.41 1.41 0 0 1-.34-.28l-.12-.13-.13-.13a209.34 209.34 0 0 0-.37-.37c-.1-.11-.1-.11-.23-.18-.09-.09-.09-.09-.1-.2.05-.45.15-.9.25-1.35l.06-.24.13-.57c.2.12.35.24.5.4.16.17.16.17.34.29-.02.54-.15 1.06-.26 1.58.23-.19.44-.38.64-.6l.07-.08a40.82 40.82 0 0 0 1.5-1.75l.14-.15c.55-.65 1.05-1.33 1.56-2.01a1.3 1.3 0 0 0-.35-.46 5.38 5.38 0 0 1-.23-.23v-.1Z" fill="#4F4F4F" fill-opacity=".5"/><path d="M212.96 42.08a10.25 10.25 0 0 1 1.13 1.08l.2.2.52.52-.06.1-.06-.07-.09-.09-.08-.09c-.08-.08-.08-.08-.19-.07l-.25.33a25.1 25.1 0 0 1-1.67 1.94l-.72.78-.1.1-.1.1c-.07.08-.07.08-.12.2-.23-.03-.34-.17-.49-.33l-.14-.15-.11-.11c.07-.15.15-.27.26-.4l.1-.1.55-.61.08-.08.2-.22c.22-.25.44-.5.65-.77a21.07 21.07 0 0 1 .83-.99l.12-.14.1-.12c.08-.1.08-.1.07-.21a1.25 1.25 0 0 0-.35-.41l-.28-.29v-.1Zm-.85-.9c.23.09.38.26.54.43l.1.09.2.22-.05.1-.68-.68-.57.6-.08.1c-.21.25-.42.5-.62.77-.33.42-.68.83-1.04 1.23a20.67 20.67 0 0 0-.62.72c-.1.12-.1.12-.09.28l.3.32.1.09.29.29.2.2.49.47-.06.1L209 45c.16-.24.3-.42.49-.62.23-.25.45-.51.67-.78a12.28 12.28 0 0 0 .9-1.07l.58-.73.48-.61Zm-11.52-4.81a.7.7 0 0 1-.22.54l-.1.1-.16-.06a48.5 48.5 0 0 0-.05-.26l.53-.32Zm-.32.37-.1.05v.1l.2-.1-.1-.05Zm6.66-.42.09.04c.18.09.36.16.54.22l-.05.21.08.06c.24.17.45.36.66.58.2.2.43.39.65.57l.12.1.1.1c.08.07.08.07.08.18l.09.03c.18.1.3.24.44.4l-.05.1-.4-.38-.11-.1a24.22 24.22 0 0 1-.91-.87l-.11-.1-.11-.09-.24-.2-.18-.17-.17 1.32c-.1 1-.21 2-.37 2.98l-.02.13c-.06.4-.13.79-.24 1.18h.11l.04-.1c.08-.13.17-.24.28-.36.26-.28.5-.57.74-.86l.14-.19.94-1.19.66-.84c0 .23-.13.35-.27.53l-.09.11-.27.36-.2.25c-.44.57-.88 1.14-1.37 1.68a10.12 10.12 0 0 0-.6.71c-.27 0-.35-.1-.53-.28a1.58 1.58 0 0 0-.58-.4l-.23-.23a8.38 8.38 0 0 0-.93-.85l-.13-.11-.09-.08c-.22.08-.36.25-.51.43a39.89 39.89 0 0 1-.45.5c-.18.17-.18.17-.25.39l.2.18.11.1.27.2.1.1v.16a1.49 1.49 0 0 1-.4-.27l-.1-.1-.57-.5a14.8 14.8 0 0 0-.48-.42.88.88 0 0 1-.19-.3c.24.08.4.21.57.38l.08.07.2.19c.36-.3.65-.63.95-.97l.1-.12.09-.1c.07-.08.07-.08.18-.13l.04-.1c.09-.16.2-.29.33-.43l.07-.1c.09-.08.17-.18.25-.27a22.27 22.27 0 0 0 1.28-1.62l.62-.85.1-.12.08-.12.07-.11c.07-.09.07-.09.12-.2a2.52 2.52 0 0 0-.37-.15l-.05.07a25 25 0 0 1-1.29 1.77l-.25.32c-.24.3-.48.6-.74.9-.18.2-.35.42-.53.64l.22.26-.06.1-.31-.26c.07-.21.16-.34.32-.5.25-.29.5-.58.73-.87l.16-.2a24.4 24.4 0 0 0 1.16-1.54l.19-.26.45-.6Zm-.48 1.8c-.36.42-.36.42-.7.86l-.48.58-.57.68-.11.13c-.1.12-.1.12-.15.28l.08.07a48.82 48.82 0 0 1 1.01.9l.13.12.12.1c.09.1.09.1.2.08.16-.88.3-1.76.42-2.65l.01-.13.05-.4.02-.12c.02-.18.04-.33-.03-.5Zm-7.82-2.38c.3.18.54.4.8.63l-.04.12-.05.16-.04.16c-.04.14-.04.14-.04.3.2-.1.39-.2.59-.32l-.13-.12a.92.92 0 0 1-.24-.35c.46.3.46.3.5.5l.03.13-.6.32-.17.1-.5.27-.18.1-.17.08-.15.08c-.16.06-.24.05-.4 0 .03-.3.14-.56.25-.85a6.34 6.34 0 0 1 .17-.44l.14-.36.07-.18.06-.17c.05-.11.05-.11.1-.16Z" fill="#4F4F4F" fill-opacity=".5"/><path d="M200.11 30.55c.2.12.39.26.57.41l.16.13.12.1-.1.05c-.03.11-.03.11-.04.24-.02.27-.07.52-.14.78l-.04.14-.1.41-.12.43-.07.26c-.08.32-.08.32-.13.65.09.13.09.13.22.23l.15.12.16.13.14.11.53.42c.12.1.12.1.17.26l.01-.14c.05-.2.12-.3.25-.46a16.21 16.21 0 0 0 .87-1.19l.18-.26.1-.15.07-.13c-.07-.21-.22-.3-.4-.43l-.2-.16a8.24 8.24 0 0 1-.43-.36 2.2 2.2 0 0 0-.45-.32c.28 0 .43.15.64.32l.48.4.15.12.15.11c.1.1.16.18.22.32l-.06.09-.44.64-.15.2-.07.12-.4.55-.08.11-.16.2c-.14.2-.14.2-.17.42l.26.16a40.56 40.56 0 0 0 1.81-1.15l.16-.1.14-.1c.12-.07.12-.07.16-.19l-.12-.1-.16-.12-.16-.13c-.22-.19-.22-.19-.3-.28v-.1c.22.07.36.16.52.32l.14.13.14.13.22.19.1.09.22.19.12.1.1.09c.08.08.08.08.08.18-.2-.03-.3-.13-.46-.27l-.13-.11-.1-.1c-.26.15-.51.3-.76.47l-.24.16-.13.08a57 57 0 0 1-1.94 1.22l-.16.1-.14.08-.12.07-.1.05-.1-.06c.1-.33.3-.56.54-.82l.09-.13c-.07-.22-.22-.3-.4-.44l-.2-.15-.1-.08a9.56 9.56 0 0 1-.52-.44c-.08.16-.14.31-.19.48l-.04.16-.1.32c-.1.33-.2.64-.35.94a7.24 7.24 0 0 1-.68-.5c-.11-.08-.11-.08-.24-.12-.2-.09-.34-.22-.5-.36l-.2-.18-.09-.08c-.18-.16-.37-.3-.57-.45.08-.22.19-.37.34-.54a20.61 20.61 0 0 0 1-1.3c.34-.46.66-.95.97-1.44.17-.25.32-.48.55-.68l.05-.06Zm-.26.37-.23.38c-.47.75-.98 1.45-1.53 2.15l-.48.63-.1.12-.2.27c.16.22.35.38.57.55l.2.15.09.07.27.22c.12.13.12.13.24.12.43-1.29.82-2.6 1.12-3.91l.03-.14c.05-.2.08-.4.07-.6h-.05Zm1.64 4.55-.48.58.05.1.69-.41c-.04-.19-.04-.19-.26-.27Zm-2.12-5.6.5.31.1.08.09.08v.16a1.34 1.34 0 0 1-.52-.32l-.13-.12-.1-.09c.03-.03.04-.07.06-.1Zm-6.56-4.76.16.05a4.66 4.66 0 0 1-.3.64l-.07.14-.07.13c-.1.18-.18.35-.3.52l-.05.2c-.1.33-.3.59-.5.86l-.34.48a10.24 10.24 0 0 1-.85 1.16c.06.18.1.2.24.3l.13.08.13.09a51.29 51.29 0 0 1 1.05.72l.11.09.58.42.1.09.21.15.25.17c.2-.07.27-.2.4-.37.17-.26.35-.5.54-.75a12.93 12.93 0 0 0 1.13-1.68l.09-.14.17-.25c.14-.24.28-.46.37-.72l-.06-.1.22.1c-.08.24-.18.45-.31.67l-.06.1c-.57.92-1.17 1.81-1.84 2.67l-.37.5-.07.08h-.16v.1c.3-.13.44-.37.63-.63l.2-.28.1-.13.31-.42c.54-.72 1.02-1.5 1.46-2.3.08-.13.15-.25.26-.36a69.85 69.85 0 0 1 .7.5l.34.26.11.08.1.08.1.07c.08.07.08.07.19.22-.27 0-.37-.1-.56-.26-.2-.19-.2-.19-.45-.26l-.07.13a16.93 16.93 0 0 1-1.03 1.63 21.09 21.09 0 0 1-1.46 2c-.33.43-.7.84-1.05 1.24l-.1.11-.09.1c-.07.07-.07.07-.06.18l.44.33c.25.18.25.18.3.36a.82.82 0 0 1-.4-.2l-.11-.09-.12-.1-.26-.2-.13-.1-.7-.54-.14-.1a7.43 7.43 0 0 0-.67-.47v-.16c.28.1.47.26.7.44.13.1.13.1.25.08a.6.6 0 0 0 .27-.21l.08-.1.1-.11.08-.11a54.76 54.76 0 0 0 .34-.4c.09-.09.09-.09.19-.23-.01-.13-.04-.19-.14-.28l-.1-.07-.11-.08-.13-.09-.26-.18-.13-.1-.62-.44a24.52 24.52 0 0 0-.83-.59l-.23-.15c-.25-.16-.25-.16-.3-.34.06-.12.06-.12.17-.26l.12-.16.12-.16.22-.3.1-.16.11-.16.11-.15.63-.92-.1-.06c.02-.2.08-.34.18-.51l.08-.15.09-.14.17-.3a55.08 55.08 0 0 1 .37-.66c.05-.09.05-.09.1-.14Z" fill="#4F4F4F" fill-opacity=".5"/><path d="M194.67 26.48c.23.08.36.2.52.37a1.07 1.07 0 0 1-.52-.37Zm-6.98-.37h.1l.13.26.08.14c.13.3.16.6.05.92-.24.57-.58.87-1.14 1.13-.64.26-1.21.23-1.85-.02a2.2 2.2 0 0 1-.97-.87c-.1-.15-.1-.15-.27-.2-.13-.01-.13-.01-.3.02.07-.17.16-.29.29-.42l.11-.12.12-.13.23-.24.1-.1c.1-.1.1-.1.2-.26h.1c-.02.18-.07.32-.16.48-.15.33-.16.7-.07 1.06.16.34.5.5.82.64.45.16.83.2 1.28 0 .27-.14.49-.35.64-.62.06-.28.05-.5-.07-.77h-.1v-.1l.1-.1c.17-.12.26-.25.38-.42l.2-.28Z" fill="#4F4F4F" fill-opacity=".5"/><path d="M192.97 25.32c.2.08.37.17.55.3a30.84 30.84 0 0 1 .5.34c.23.16.45.32.65.52a3 3 0 0 1-.37-.16 1.6 1.6 0 0 0-1.21-.11c-.27.1-.5.23-.75.38.07-.25.18-.47.32-.7l.31-.57Zm-8.77-.05.05.1c-.07.14-.07.14-.16.27l.12.04c.24.1.47.23.7.35l.16.08a22.86 22.86 0 0 1 1.33.75l.14.08.13.08c.14.05.2.04.33 0l-.1.2a57.7 57.7 0 0 1-1.95-1l-.22-.11a9.32 9.32 0 0 1-.74-.42c.06-.16.11-.28.2-.42Zm1.21-2.07.06.11-.13.29-.09.17-.09.18-.09.18-.08.17-.08.15c-.08.13-.08.13-.23.24a7.09 7.09 0 0 1 .36-.8c.12-.23.24-.46.38-.68Zm2.39-1c.58.1 1.07.37 1.53.74-.1.06-.1.06-.25.02l-.6-.27-.11-.05c-.24-.12-.4-.24-.58-.44Z" fill="#4F4F4F" fill-opacity=".5"/><path d="M186.16 21.52c.3.05.55.17.83.3l.15.08.15.07.14.06c.1.07.1.07.15.23l.16.05v.05l-.1.02c-.41.07-.74.17-1 .52-.27.42-.4.8-.33 1.31.13.45.46.76.77 1.09l.35.38.12.13.08.1c.22-.08.23-.15.34-.35l.06-.1c.22-.4.42-.8.62-1.22.18-.37.37-.73.57-1.09h.1l.06-.15.13.13.17.18.08.09c.17.16.28.28.52.28l.16-.05c.03.08.03.08.05.21-.05.13-.1.24-.18.35l-.05.1a19.08 19.08 0 0 1-.3.54l-.11.2-.06.1c-.09.15-.17.29-.3.4-.07-.2-.04-.27.02-.47a2.4 2.4 0 0 0-.08-1.59c-.1-.13-.1-.13-.2-.21l-.04.09c-.09.29-.2.55-.34.82l-.06.12-.13.25-.19.37a5 5 0 0 1-1 1.42 18.9 18.9 0 0 0-.36.47h-.1l-.2-.22a9.19 9.19 0 0 0-.52-.62c-.53-.58-.96-1.05-.95-1.86.08-.64.49-1.14.95-1.54.32-.24.64-.31 1.03-.41l-1.16-.53-.06.32-.1.24-.07.13-.06.13a30.5 30.5 0 0 0-.35.77c-.07-.2-.03-.26.06-.45l.07-.17.08-.18.07-.16.35-.73Z" fill="#4F4F4F" fill-opacity=".5"/><path fill-rule="evenodd" clip-rule="evenodd" d="M252 127.5c0 68.76-55.74 124.5-124.5 124.5C58.74 252 3 196.26 3 127.5 3 58.74 58.74 3 127.5 3 196.26 3 252 58.74 252 127.5Zm-2 0c0 67.66-54.84 122.5-122.5 122.5C59.85 250 5 195.16 5 127.5 5 59.85 59.85 5 127.5 5 195.16 5 250 59.85 250 127.5Z" fill="#000" fill-opacity=".22"/><path d="M126.5 88c.8-1.6 2.33-5.33 3.5-7 1.17-.33 6.3-1 13.5-1s16 .67 19.5 1l-7 17.5c-3.33-.67-11.6-2-18-2s-13.33.67-16 1c1.17-2.5 3.7-7.9 4.5-9.5Z" fill="#fff"/><path d="M138.22 95.27c-6.09 0-12.68.58-15.22.87 2.28-4.44 4.5-10.14 7-14.28 1.11-.28 6.6-.86 13.45-.86s14.72.58 18.05.86L155.34 97c-3.17-.58-11.03-1.73-17.12-1.73Z" fill="url(#n)"/><path d="M139.5 81h2.74L129.9 96h-.9l10.5-15Zm6.4 0h1.82l-13.7 14.48L145.9 81Zm-5.94 11.38L136.3 96h1.37l2.29-3.62Z" fill="#fff"/><path d="m129.91 96 12.33-15h2.28l-14.6 15Zm5.94-2.07L147.72 81H150l-14.15 12.93ZM139.5 96l3.65-3.1h2.74l-3.65 3.1h-2.74Z" fill="#F661CE"/><path d="m102.43 8.15-2.78 2.78 1.02 3.8 3.8 1.01 2.77-2.78-1.01-3.8-3.8-1Z" fill="url(#o)"/><path d="m163.45 235.88-2.78 2.78 1.02 3.8 3.8 1 2.77-2.77-1.01-3.8-3.8-1.01Z" fill="url(#p)"/><defs><linearGradient id="b" x1="128" y1="141" x2="127.5" y2="233" gradientUnits="userSpaceOnUse"><stop offset=".13" stop-color="#AEAEAE" stop-opacity="0"/><stop offset=".13" stop-color="#B1B1B1"/><stop offset=".19" stop-color="#AAA" stop-opacity="0"/><stop offset=".2" stop-color="#969696" stop-opacity=".85"/><stop offset=".29" stop-color="#AAA" stop-opacity=".24"/><stop offset=".33" stop-color="#8B8B8B"/></linearGradient><linearGradient id="d" x1="73.56" y1="77.09" x2="119.1" y2="18.51" gradientUnits="userSpaceOnUse"><stop stop-color="#fff"/><stop offset="1" stop-color="#D9D8D8"/></linearGradient><linearGradient id="e" x1="58.5" y1="115.05" x2="128.21" y2="16.97" gradientUnits="userSpaceOnUse"><stop stop-color="#fff"/><stop offset="1" stop-color="#D9D8D8"/></linearGradient><linearGradient id="f" x1="58.5" y1="115.05" x2="128.21" y2="16.97" gradientUnits="userSpaceOnUse"><stop stop-color="#fff"/><stop offset="1" stop-color="#D9D8D8"/></linearGradient><linearGradient id="g" x1="80.69" y1="152" x2="80.69" y2="199.87" gradientUnits="userSpaceOnUse"><stop stop-color="#848484"/><stop offset="0" stop-color="#ACACAC"/><stop offset="1" stop-color="#636060"/></linearGradient><linearGradient id="i" x1="123.16" y1="181.06" x2="20.37" y2="160.13" gradientUnits="userSpaceOnUse"><stop stop-color="#8A8A8A"/><stop offset=".43" stop-color="#585858"/><stop offset="1" stop-color="#747474"/></linearGradient><linearGradient id="k" x1="1" y1="111.13" x2="255" y2="137.43" gradientUnits="userSpaceOnUse"><stop offset=".01" stop-color="#979797"/><stop offset="1" stop-color="#101010"/></linearGradient><linearGradient id="l" x1="176" y1="1" x2="105.68" y2="255" gradientUnits="userSpaceOnUse"><stop stop-color="#fff" stop-opacity=".44"/><stop offset=".12" stop-color="#fff" stop-opacity=".16"/><stop offset=".22" stop-color="#fff" stop-opacity=".08"/><stop offset=".26" stop-color="#fff" stop-opacity=".25"/><stop offset=".45" stop-color="#fff" stop-opacity=".33"/><stop offset=".49" stop-color="#fff" stop-opacity=".08"/><stop offset=".56" stop-color="#fff" stop-opacity="0"/><stop offset=".57" stop-color="#fff" stop-opacity="0"/><stop offset=".59" stop-color="#fff" stop-opacity=".08"/><stop offset=".7" stop-color="#fff" stop-opacity=".18"/><stop offset=".74" stop-color="#fff" stop-opacity=".13"/><stop offset=".77" stop-color="#fff" stop-opacity=".28"/><stop offset="1" stop-color="#fff" stop-opacity=".15"/></linearGradient><linearGradient id="n" x1="157" y1="97" x2="130.38" y2="76.51" gradientUnits="userSpaceOnUse"><stop offset=".4" stop-color="#D0F2FF"/><stop offset=".71" stop-color="#72CCFF"/></linearGradient><radialGradient id="a" cx="0" cy="0" r="1" gradientUnits="userSpaceOnUse" gradientTransform="matrix(27.00003 -148.00032 194.55299 35.49274 128 170)"><stop offset=".12" stop-color="#F8F8F8"/><stop offset=".48" stop-color="#F1F1F1"/><stop offset=".69" stop-color="#E2E2E2"/><stop offset="1" stop-color="#AEAEAE"/></radialGradient><radialGradient id="j" cx="0" cy="0" r="1" gradientUnits="userSpaceOnUse" gradientTransform="matrix(-174.00025 -214.0004 172.61586 -140.35115 332.5 253)"><stop offset=".55" stop-color="#95EFFF" stop-opacity=".88"/><stop offset=".71" stop-color="#C1E7EE" stop-opacity="0"/><stop offset=".91" stop-color="#fff"/></radialGradient><radialGradient id="o" cx="0" cy="0" r="1" gradientUnits="userSpaceOnUse" gradientTransform="rotate(75 43.94 73.38) scale(3.92929)"><stop offset=".21" stop-color="#fff"/><stop offset=".24" stop-color="#39F4FB"/><stop offset=".5" stop-color="#15B3BA"/><stop offset=".65" stop-color="#0A7E82"/><stop offset="1" stop-color="#0B3948"/></radialGradient><radialGradient id="p" cx="0" cy="0" r="1" gradientUnits="userSpaceOnUse" gradientTransform="rotate(75 -73.94 227) scale(3.92929)"><stop offset=".21" stop-color="#fff"/><stop offset=".24" stop-color="#39F4FB"/><stop offset=".5" stop-color="#15B3BA"/><stop offset=".65" stop-color="#0A7E82"/><stop offset="1" stop-color="#0B3948"/></radialGradient><filter id="c" x="5" y="15" width="180.5" height="86.05" filterUnits="userSpaceOnUse" color-interpolation-filters="sRGB"><feFlood flood-opacity="0" result="BackgroundImageFix"/><feColorMatrix in="SourceAlpha" values="0 0 0 0 0 0 0 0 0 0 0 0 0 0 0 0 0 0 127 0" result="hardAlpha"/><feOffset dx="-1" dy="1"/><feComposite in2="hardAlpha" operator="out"/><feColorMatrix values="0 0 0 0 1 0 0 0 0 1 0 0 0 0 1 0 0 0 0.54 0"/><feBlend in2="BackgroundImageFix" result="effect1_dropShadow_5_2"/><feBlend in="SourceGraphic" in2="effect1_dropShadow_5_2" result="shape"/></filter><filter id="h" x="20.43" y="152.72" width="105.34" height="37.71" filterUnits="userSpaceOnUse" color-interpolation-filters="sRGB"><feFlood flood-opacity="0" result="BackgroundImageFix"/><feColorMatrix in="SourceAlpha" values="0 0 0 0 0 0 0 0 0 0 0 0 0 0 0 0 0 0 127 0" result="hardAlpha"/><feOffset dy="1"/><feComposite in2="hardAlpha" operator="out"/><feColorMatrix values="0 0 0 0 0 0 0 0 0 0 0 0 0 0 0 0 0 0 0.37 0"/><feBlend in2="BackgroundImageFix" result="effect1_dropShadow_5_2"/><feColorMatrix in="SourceAlpha" values="0 0 0 0 0 0 0 0 0 0 0 0 0 0 0 0 0 0 127 0" result="hardAlpha"/><feOffset dx="1" dy="-.5"/><feComposite in2="hardAlpha" operator="out"/><feColorMatrix values="0 0 0 0 0.758333 0 0 0 0 0.758333 0 0 0 0 0.758333 0 0 0 0.61 0"/><feBlend in2="effect1_dropShadow_5_2" result="effect2_dropShadow_5_2"/><feBlend in="SourceGraphic" in2="effect2_dropShadow_5_2" result="shape"/></filter><filter id="m" x="9" y="23.36" width="235.25" height="208.53" filterUnits="userSpaceOnUse" color-interpolation-filters="sRGB"><feFlood flood-opacity="0" result="BackgroundImageFix"/><feColorMatrix in="SourceAlpha" values="0 0 0 0 0 0 0 0 0 0 0 0 0 0 0 0 0 0 127 0" result="hardAlpha"/><feOffset dx=".25" dy=".25"/><feComposite in2="hardAlpha" operator="out"/><feColorMatrix values="0 0 0 0 0 0 0 0 0 0 0 0 0 0 0 0 0 0 0.75 0"/><feBlend in2="BackgroundImageFix" result="effect1_dropShadow_5_2"/><feBlend in="SourceGraphic" in2="effect1_dropShadow_5_2" result="shape"/></filter></defs></svg>