<?xml version="1.0" encoding="UTF-8"?>
<svg id="svg" width="256" height="256" version="1.1" viewBox="0 0 256 256" xmlns="http://www.w3.org/2000/svg">
 <g id="svgg" transform="matrix(.7208 0 0 .72048 -16.143 -16.109)" fill-rule="evenodd">
  <path d="m191.8 22.67c-14.517 0.988-23.713 2.377-35.449 5.354-109.7 27.823-165.79 150.29-115.15 251.44 52.098 104.07 188.82 130.86 276.09 54.093 88.436-77.793 77.965-218.76-20.997-282.69-30.563-19.743-70.461-30.507-104.49-28.189m17.187 17.373c95.117 5.819 163.9 90.837 149.49 184.76-12.064 78.609-80.949 136.7-160.66 135.49-86.861-1.323-156.6-71.058-157.92-157.92-1.292-84.857 64.198-156.28 148.68-162.14 1.612-0.112 3.325-0.231 3.809-0.265 2.214-0.156 13.707-0.108 16.601 0.069m-6.152 19.838c-6.71 0.286-14.792 1.23-20.215 2.363-2.19 0.458-9.922 2.758-11.328 3.371-0.483 0.21-2.153 0.879-3.711 1.485-1.557 0.606-3.491 1.457-4.297 1.892-0.805 0.434-2.343 1.216-3.418 1.738-1.074 0.521-2.217 1.088-2.539 1.261-0.322 0.172-1.267 0.664-2.099 1.093-0.833 0.428-1.514 0.814-1.514 0.856 0 0.043 0.997 1.946 2.216 4.231 1.219 2.284 2.858 5.384 3.643 6.888 2.17 4.158 6.232 10.839 6.591 10.839 0.141 0 5.637-2.663 6.495-3.147 1.077-0.608 3.732-1.873 4.59-2.187 0.43-0.158 1.704-0.654 2.832-1.103 5.616-2.236 12.776-3.955 17.962-4.311 1.562-0.107 3.482-0.282 4.269-0.387 1.843-0.248 6.937-0.238 8.824 0.018 0.805 0.109 2.168 0.274 3.027 0.367 1.507 0.164 3.571 0.678 7.91 1.971 1.128 0.337 2.447 0.686 2.93 0.776 1.033 0.193 2.599 0.731 4.102 1.408 0.59 0.266 1.557 0.68 2.148 0.919 1.16 0.47 1.613 0.688 4.59 2.21 4.519 2.311 11.081 7.266 13.739 10.376 1.295 1.514 3.741 4.722 3.741 4.905 0 0.1 1.76 2.458 1.969 2.639 0.378 0.326 3.366 5.182 3.422 5.562 0.016 0.112 0.482 0.969 1.035 1.905 1.17 1.981 3.287 6.094 4.148 8.06 0.329 0.752 0.944 2.097 1.367 2.99 0.866 1.828 1.537 3.466 1.648 4.027 0.041 0.208 0.465 1.57 0.942 3.028 0.934 2.854 1.878 6.509 1.844 7.142-0.012 0.215 0.203 1.358 0.478 2.539 1.184 5.094 2.349 18.656 1.662 19.344-0.039 0.039-0.771-0.592-1.627-1.403-3.452-3.269-10.424-9.01-14.079-11.593-1.668-1.179-3.392-2.344-3.47-2.344-0.105 0-2.829-1.641-3.733-2.249-2.213-1.489-7.394-3.688-13.965-5.929-1.88-0.641-4.341-1.491-5.469-1.889-5.549-1.958-10.466-3.194-15.527-3.903-1.182-0.165-2.905-0.43-3.829-0.588-9.52-1.628-23.197-1.572-31.23 0.128-1.02 0.216-2.427 0.515-3.125 0.666s-3.071 0.834-5.273 1.518c-3.28 1.019-7.02 1.975-7.16 1.829-0.054-0.057 0.498-5.349 0.608-5.822 0.581-2.498 1.055-26.433 0.571-28.848l-0.12-0.604-3.444 0.105c-1.894 0.058-4.92 0.231-6.724 0.385-1.805 0.154-5.445 0.28-8.089 0.28h-4.807l0.115 6.396c0.189 10.479-0.127 25.88-0.608 29.639-0.22 1.718-0.583 4.839-0.807 6.933-0.44 4.109-1.051 8.514-1.464 10.547-0.142 0.698-0.361 2.061-0.487 3.027-0.289 2.221-2.249 13.678-2.739 16.016-0.202 0.967-0.682 3.116-1.065 4.777-0.383 1.66-0.831 3.795-0.995 4.743-0.487 2.803-1.797 8.059-2.715 10.89-0.861 2.656-1.25 3.955-2.629 8.789-0.413 1.451-1.196 3.824-1.738 5.274-0.543 1.45-1.529 4.131-2.192 5.957s-1.544 4.04-1.96 4.919c-0.415 0.879-0.97 2.11-1.233 2.735-0.741 1.761-3.739 7.874-4.317 8.802-0.383 0.616-0.451 0.856-0.261 0.923 0.141 0.05 2.541 0.872 5.334 1.826 2.793 0.953 7.71 2.76 10.927 4.015 5.692 2.219 6.358 2.406 6.358 1.789 0-0.163 0.26-0.832 0.577-1.486 0.317-0.655 0.619-1.426 0.67-1.712 0.051-0.287 0.283-1.006 0.514-1.596 0.231-0.591 0.467-1.228 0.525-1.416 0.057-0.188 0.181-0.342 0.276-0.342s0.173-0.135 0.173-0.3c0-0.164 0.207-0.714 0.461-1.22 0.254-0.507 0.568-1.273 0.698-1.703s0.53-1.484 0.888-2.344c1.343-3.22 1.853-4.532 2.316-5.957 0.261-0.805 0.931-2.739 1.488-4.296 0.557-1.558 1.047-3.083 1.089-3.389 0.042-0.305 0.354-1.272 0.692-2.148 0.574-1.487 1.628-4.743 1.838-5.673 0.208-0.927 0.696-2.672 1.262-4.513 0.528-1.719 1.302-4.528 1.48-5.371 0.035-0.161 0.079-0.337 0.1-0.391s0.028-0.163 0.016-0.243c-0.013-0.08 0.187-0.959 0.445-1.953 0.257-0.994 0.655-2.819 0.886-4.054 0.23-1.235 0.499-2.641 0.598-3.125 0.246-1.198 0.63-3.742 0.62-4.101-0.01-0.365 1.241-8.169 1.628-10.157 0.309-1.586 1.043-7.21 1.122-8.595 0.048-0.851 0.052-0.856 1.22-1.312 3.643-1.42 8.732-2.909 12.206-3.57 1.128-0.214 2.71-0.602 3.516-0.861s1.949-0.609 2.54-0.776 1.558-0.442 2.148-0.609c5.994-1.7 14.215-2.251 19.532-1.31 1.235 0.218 3.081 0.5 4.101 0.627 2.776 0.343 6.892 1.168 8.985 1.8 1.02 0.309 2.569 0.768 3.441 1.021 1.429 0.414 5.829 1.999 6.812 2.454 0.215 0.099 0.962 0.365 1.661 0.592 0.698 0.226 1.832 0.719 2.521 1.094 0.688 0.376 2.094 0.998 3.125 1.383 1.03 0.385 2.181 0.893 2.557 1.127 0.376 0.235 1.343 0.779 2.148 1.21 1.755 0.939 3.318 1.888 4.435 2.692 0.452 0.326 1.619 1.163 2.593 1.861 8.588 6.157 14.594 12.161 18.215 18.211 0.724 1.21 1.427 2.355 1.562 2.546 0.531 0.747 5.96 11.655 6.606 13.272 0.203 0.508 0.409 1.146 0.459 1.418 0.049 0.272 0.315 1.059 0.59 1.747 0.276 0.689 0.501 1.369 0.5 1.512 0 0.142 0.13 0.655 0.29 1.138 0.635 1.919 1.299 4.363 1.371 5.044 0.041 0.395 0.091 0.762 0.11 0.816 0.019 0.053 0.028 0.15 0.021 0.214s0.115 0.592 0.271 1.172c1.964 7.294 2.218 13.799 0.953 24.38-0.435 3.634-2.249 10.543-3.806 14.493-0.206 0.523-0.336 0.951-0.289 0.951 0.336 0-3.314 7.514-5.13 10.562-1.567 2.631-3.863 6.14-4.295 6.563-0.199 0.196-0.575 0.664-0.835 1.04-2.015 2.917-8.366 9.71-12.586 13.461-5.377 4.78-8.541 6.768-17.675 11.103-2.156 1.023-10.535 4.232-12.11 4.638-0.591 0.152-1.554 0.411-2.14 0.576-5.228 1.466-11.018 2.24-17.782 2.377-9.944 0.202-13.926-0.181-23.047-2.218-1.235-0.276-2.772-0.578-3.415-0.672s-1.478-0.262-1.856-0.373c-0.377-0.111-1.301-0.37-2.053-0.576-0.752-0.205-2.111-0.684-3.02-1.064-0.909-0.379-1.723-0.69-1.809-0.69-1.587 0-12.559-6.805-16.265-10.088-2.979-2.64-5.211-4.585-6.248-5.445-0.643-0.534-2.476-2.157-4.072-3.608-1.596-1.45-3.106-2.792-3.354-2.982l-0.451-0.345-4.168 3.973c-4.16 3.965-12.894 12.84-13.026 13.234-0.106 0.319 9.619 10.187 12.9 13.089 3.648 3.227 9.592 7.687 13.732 10.304 5.03 3.18 12.857 6.88 16.159 7.638 0.458 0.106 2.811 0.672 5.228 1.26 2.417 0.587 5.185 1.205 6.152 1.373 12.133 2.104 14.989 2.351 27.246 2.356 8.594 3e-3 11.536-0.155 16.309-0.877 8.296-1.254 9.418-1.485 13.281-2.736 1.611-0.522 3.457-1.079 4.102-1.239 0.644-0.159 2.524-0.824 4.178-1.477s3.096-1.188 3.204-1.188 0.645-0.208 1.192-0.463c0.548-0.254 1.919-0.889 3.047-1.41 7.769-3.589 12.624-6.496 18.52-11.091 2.64-2.057 18.657-17.925 18.997-18.821 0.094-0.245 0.897-1.375 1.785-2.51 0.889-1.135 1.705-2.219 1.814-2.408 0.108-0.19 0.434-0.644 0.723-1.01 0.8-1.014 1.803-2.412 1.808-2.521 3e-3 -0.054 0.586-0.977 1.295-2.051 0.71-1.074 1.446-2.256 1.637-2.627 0.19-0.371 0.469-0.797 0.62-0.948 0.305-0.305 4.235-8.256 4.459-9.023 0.079-0.268 0.261-0.752 0.405-1.074 0.569-1.273 2.366-6.61 2.52-7.483 0.054-0.306 0.495-1.714 0.979-3.128 0.999-2.915 1.58-4.999 1.754-6.283 0.066-0.484 0.247-1.538 0.404-2.344 1.738-8.955 2.061-20.956 0.763-28.32-0.275-1.558-0.58-3.431-0.679-4.163s-0.22-1.397-0.269-1.476c-0.05-0.08-0.142-0.712-0.204-1.404-0.232-2.542-1.777-9.85-2.379-11.249-0.146-0.338-0.266-0.734-0.268-0.879-9e-3 -0.806-2.747-8.267-3.429-9.345-1.086-1.714-1.083-2.93 0.016-5.584 3.676-8.88 5.5-31.991 3.622-45.881-0.189-1.396-0.361-2.927-0.382-3.402-0.021-0.474-0.169-1.441-0.327-2.148-0.159-0.707-0.549-2.55-0.867-4.096s-0.767-3.479-0.999-4.297c-0.231-0.818-0.449-1.706-0.483-1.975-0.034-0.268-0.637-2.158-1.339-4.199-0.703-2.041-1.314-3.853-1.359-4.027s-0.406-1.009-0.803-1.856c-0.397-0.846-1.246-2.769-1.888-4.273-0.641-1.504-1.571-3.482-2.066-4.395-0.496-0.913-1.101-2.043-1.346-2.512s-0.525-0.952-0.623-1.074c-0.097-0.122-0.512-0.882-0.92-1.687-1.012-1.996-5.15-8.676-5.565-8.985-0.072-0.053-0.188-0.28-0.258-0.502-0.069-0.223-0.284-0.575-0.476-0.782-0.193-0.206-0.943-1.167-1.668-2.134-4.636-6.182-12.83-14.435-17.411-17.535-0.645-0.436-1.655-1.163-2.246-1.615-1.095-0.838-5.281-3.363-6.472-3.903-0.361-0.164-0.965-0.482-1.341-0.708-1.764-1.057-9.23-4.172-11.425-4.766-0.86-0.233-2.997-0.874-4.75-1.424-8.023-2.517-17.972-3.664-28.063-3.234" fill="#040404"/>
  <path d="m193.56 40.038c-106.49 5.08-178.44 108.63-145.69 209.67 24.368 75.178 100.95 121.56 178.8 108.28 102.14-17.422 161.13-125.04 120.86-220.49-25.713-60.94-88.353-100.59-153.96-97.462m19.528 19.922c7.029 0.423 10.297 0.895 14.355 2.073 0.967 0.281 2.286 0.648 2.93 0.815 5.007 1.302 13.204 4.375 16.406 6.15 0.215 0.119 1.665 0.911 3.223 1.76 1.557 0.849 2.876 1.609 2.929 1.688 0.054 0.079 0.923 0.692 1.932 1.363 6.613 4.395 14.534 12.082 19.756 19.17 0.971 1.318 1.913 2.646 2.093 2.951s0.396 0.554 0.481 0.554c0.084 0 0.153 0.132 0.153 0.293s0.082 0.293 0.182 0.293 0.242 0.188 0.314 0.418c0.073 0.229 0.409 0.779 0.746 1.222s0.973 1.42 1.413 2.171c2.476 4.225 3.025 5.192 3.606 6.346 0.352 0.698 1.018 1.895 1.479 2.66 0.461 0.764 1.008 1.819 1.215 2.344 0.207 0.524 0.657 1.525 1.001 2.223 0.343 0.698 0.933 2.06 1.311 3.026 0.377 0.967 1.018 2.466 1.424 3.33 0.406 0.865 0.923 2.183 1.15 2.93s0.806 2.632 1.286 4.19c1.298 4.211 1.664 5.636 1.782 6.933 0.059 0.645 0.357 2.315 0.662 3.711 3.227 14.762 2.086 41.177-2.25 52.092-1.357 3.416-1.383 4.022-0.264 6.146 0.797 1.514 1.755 3.805 1.823 4.36 0.065 0.531 1.334 4.39 1.506 4.58 0.093 0.102 0.168 0.308 0.168 0.459 0 0.15 0.12 0.55 0.266 0.888 0.421 0.98 1.412 5.988 3.135 15.85 0.978 5.605 1.289 15.04 0.696 21.192-0.129 1.342-0.225 2.793-0.212 3.222 0.035 1.188-0.808 6.662-1.338 8.692-0.098 0.376-0.283 1.123-0.411 1.66s-0.4 1.504-0.604 2.148c-0.204 0.645-0.413 1.412-0.465 1.704-0.052 0.293-0.348 1.26-0.659 2.149-0.809 2.316-1.78 5.334-1.876 5.831-0.114 0.593-0.877 2.774-1.054 3.012-0.079 0.107-0.301 0.634-0.493 1.171-0.411 1.153-4.094 8.73-4.597 9.458-0.192 0.277-0.861 1.338-1.489 2.359-0.627 1.02-1.341 2.127-1.586 2.46-0.245 0.332-0.445 0.708-0.445 0.836 0 0.127-0.13 0.281-0.288 0.342-0.159 0.061-0.553 0.541-0.876 1.066-0.324 0.526-1.49 2.147-2.593 3.603-1.103 1.455-2.158 2.928-2.344 3.273-0.468 0.866-13.785 14.396-16.614 16.88-2.508 2.202-5.07 4.158-7.363 5.62-0.806 0.514-1.509 0.998-1.563 1.077-0.097 0.141-3.852 2.343-3.995 2.343-0.042 0-0.837 0.439-1.767 0.976-0.93 0.538-1.76 0.977-1.844 0.977s-1.357 0.615-2.829 1.367c-1.473 0.752-2.76 1.367-2.862 1.367-0.101 0-0.556 0.169-1.012 0.376-3.822 1.733-10.363 4.006-15.476 5.377-1.074 0.288-2.261 0.608-2.637 0.711-10.983 3.01-36.527 3.081-51.074 0.142-2.686-0.542-5.341-1.065-5.901-1.161-2.513-0.43-11.263-3.007-11.873-3.496-0.107-0.086-1.03-0.522-2.05-0.97-3.886-1.702-7.244-3.617-11.754-6.699-3.927-2.685-4.819-3.34-5.719-4.204-0.434-0.416-1.053-0.918-1.375-1.116s-0.718-0.505-0.879-0.683c-0.161-0.177-1.391-1.229-2.734-2.338-2.466-2.036-8.98-8.425-11.798-11.572l-1.528-1.707 2.512-2.666c2.764-2.933 12.722-12.749 14.163-13.96l0.907-0.763 2.511 2.277c1.38 1.252 3.092 2.821 3.804 3.488 0.712 0.666 1.633 1.466 2.048 1.778 0.415 0.311 0.949 0.793 1.188 1.072 0.647 0.755 7.075 5.96 9.023 7.306 0.933 0.644 2.001 1.406 2.372 1.693 0.785 0.605 2.475 1.575 4.856 2.786 3.045 1.55 7.79 3.626 8.286 3.626 0.17 0 0.818 0.139 1.441 0.308 3.333 0.906 8.732 2.15 10.117 2.331 0.537 0.07 1.68 0.255 2.539 0.41 8.472 1.537 22.988 1.627 27.638 0.172 0.162-0.051 1.261-0.227 2.442-0.392 3.908-0.545 11.04-2.731 15.632-4.791 0.434-0.195 1.377-0.576 2.096-0.846 0.719-0.271 1.946-0.831 2.726-1.245 0.781-0.413 1.97-0.987 2.644-1.275 2.212-0.945 9.36-5.294 10.649-6.478 0.344-0.317 1.329-1.192 2.189-1.946 3.681-3.226 10.273-10.033 12.079-12.473 0.3-0.405 0.752-0.933 1.005-1.172 0.43-0.406 3.352-4.733 5.394-7.985 1.015-1.617 3.752-6.836 4.163-7.938 0.148-0.397 0.547-1.426 0.886-2.285 0.675-1.711 1.544-4.251 1.68-4.912 0.047-0.231 0.258-0.978 0.469-1.66 1.012-3.285 1.976-7.626 2.16-9.732 0.109-1.238 0.339-3.613 0.513-5.278 0.353-3.389 0.274-8.114-0.191-11.328-0.148-1.021-0.282-2.163-0.299-2.539-0.053-1.187-1.137-6.103-2.068-9.375-0.26-0.914-0.519-1.968-0.577-2.344-0.315-2.072-2.663-7.989-4.883-12.305-0.911-1.772-2.236-4.363-2.944-5.756-0.708-1.394-1.443-2.712-1.633-2.93-0.438-0.501-1.396-1.999-1.407-2.198-0.026-0.494-5.456-7.051-7.187-8.68-1.357-1.276-4.54-3.918-7.139-5.924-0.418-0.322-1.121-0.871-1.562-1.22-0.442-0.348-1.155-0.863-1.584-1.144-0.43-0.281-0.869-0.616-0.977-0.744-0.256-0.306-1.741-1.316-2.838-1.931-0.48-0.269-1.444-0.851-2.142-1.294-1.091-0.693-3.266-1.804-5.623-2.874-2.609-1.184-8.018-3.427-9.045-3.751-0.688-0.217-2.129-0.714-3.203-1.106-9.897-3.604-23.993-5.476-31.659-4.205-2.479 0.411-3.516 0.656-7.013 1.656-0.967 0.276-2.182 0.588-2.701 0.694-0.518 0.105-1.011 0.234-1.094 0.285s-2.295 0.622-4.916 1.268-5.337 1.316-6.035 1.489c-0.699 0.173-1.748 0.54-2.333 0.817s-1.622 0.698-2.305 0.937c-0.684 0.239-1.278 0.469-1.321 0.513-0.061 0.06-0.805 5.351-1.369 9.731-0.034 0.268-0.08 0.532-0.101 0.586s-0.024 0.24-8e-3 0.414c0.029 0.294-0.481 3.381-1.964 11.891-0.328 1.879-0.635 3.857-0.684 4.394-0.099 1.111-0.523 2.905-1.778 7.52-0.482 1.772-0.911 3.442-0.954 3.711-0.088 0.547-0.688 2.623-1.269 4.394-0.212 0.645-0.692 2.227-1.067 3.516s-0.846 2.783-1.047 3.32c-0.371 0.994-0.457 1.251-1.565 4.688-0.799 2.476-1.11 3.342-2.27 6.33-0.517 1.333-0.956 2.563-0.975 2.734-0.035 0.312-1.502 3.848-2.276 5.486-0.229 0.484-0.423 0.967-0.433 1.075-9e-3 0.107-0.213 0.623-0.454 1.147-0.24 0.524-0.437 1.019-0.437 1.099 0 0.136-0.464 1.274-1.077 2.639-0.475 1.059-0.716 1.747-0.77 2.201-0.103 0.861 0.531 1.049-8.993-2.652-1.933-0.752-5.888-2.175-8.789-3.164-2.9-0.988-5.306-1.828-5.345-1.866-0.04-0.038 0.29-0.644 0.733-1.345 0.444-0.702 1.011-1.739 1.262-2.305 0.251-0.565 1.076-2.346 1.834-3.958 2.593-5.514 3.524-7.625 3.922-8.89 0.218-0.696 1.137-3.287 2.041-5.758 1.689-4.614 2.365-6.727 3.56-11.121 0.378-1.39 1.026-3.5 1.441-4.688s1.169-4.093 1.674-6.457c0.506-2.363 1.359-6.274 1.897-8.691 0.537-2.417 1.138-5.317 1.335-6.445s0.712-4.029 1.144-6.446 0.971-5.757 1.198-7.422 0.498-3.348 0.601-3.74c0.3-1.137 1.095-6.814 1.445-10.322 0.177-1.773 0.499-4.717 0.716-6.543 0.511-4.295 0.813-18.018 0.635-28.76l-0.128-7.666h4.951c2.722 0 6.624-0.129 8.669-0.287 2.046-0.157 5.064-0.311 6.707-0.341l2.988-0.055 0.137 0.488c0.076 0.268 0.138 5.586 0.138 11.816 0 11.357-0.034 12.15-0.785 18.164-0.501 4.014-0.553 4.993-0.26 4.904 0.145-0.044 0.703-0.185 1.24-0.312 0.538-0.128 2.076-0.566 3.418-0.975 1.343-0.408 2.793-0.83 3.223-0.938s1.801-0.505 3.048-0.882c4.611-1.397 6.718-1.693 14.921-2.096 12.806-0.629 28.633 1.372 37.89 4.791 1.075 0.396 2.305 0.814 2.735 0.927 0.429 0.114 2.431 0.809 4.447 1.545 2.017 0.735 3.799 1.337 3.962 1.337 0.429 0 3.151 1.076 4.971 1.966 0.866 0.423 1.64 0.769 1.721 0.769 0.231 0 1.348 0.6 3.188 1.713 0.928 0.561 1.734 1.021 1.791 1.021 0.106 0 2.061 1.234 4.154 2.623 3.916 2.598 9.569 7.083 13.266 10.525 1.074 1 2.401 2.23 2.949 2.733l0.996 0.914 0.122-2.001c0.106-1.738-0.217-7.411-0.553-9.716-0.055-0.376-0.186-1.694-0.291-2.93-0.105-1.235-0.419-3.213-0.697-4.394-0.279-1.182-0.589-2.544-0.689-3.028-0.1-0.483-0.409-1.801-0.687-2.929s-0.532-2.189-0.565-2.358c-0.154-0.779-1.491-4.724-2.048-6.041-0.34-0.805-0.647-1.6-0.682-1.765-0.211-1.004-6.075-12.618-6.684-13.239-0.139-0.142-0.253-0.327-0.253-0.411 0-0.23-1.939-3.569-2.333-4.018-0.189-0.215-0.678-0.942-1.086-1.616-0.409-0.674-0.969-1.465-1.245-1.758-0.275-0.293-0.803-0.972-1.172-1.509-2.781-4.04-5.467-6.755-10.255-10.363-0.847-0.638-1.726-1.302-1.953-1.475-0.227-0.174-0.822-0.54-1.322-0.816-0.499-0.275-1.273-0.731-1.719-1.013-0.639-0.403-5.562-2.839-7.724-3.821-1.435-0.652-7.672-2.521-12.012-3.599-5.28-1.312-10.58-1.759-15.31-1.289-4.304 0.427-8.394 0.973-10.275 1.371-1.021 0.217-2.057 0.395-2.302 0.396-0.907 7e-3 -9.098 2.642-11.859 3.815-2.108 0.896-5.677 2.623-7.324 3.543-0.376 0.211-0.991 0.501-1.367 0.646s-1.276 0.555-2 0.911l-1.317 0.646-0.944-1.41c-2.178-3.254-3.674-5.833-6.486-11.182-1.636-3.111-3.446-6.515-4.024-7.563-1.233-2.24-1.18-2-0.512-2.351 7.078-3.718 14.036-7.007 16.405-7.754 0.618-0.195 2.511-0.845 4.206-1.445s3.541-1.17 4.101-1.267c0.561-0.097 1.723-0.364 2.583-0.594 5.596-1.499 10.246-2.055 21.972-2.625 2.643-0.128 6.986-0.097 9.766 0.07m33.52 49.712c3.235 1.896 10.056 13.708 11.295 19.56 0.439 2.076-1.496 4.353-3.702 4.353-2.044 0-3.141-1.141-4.129-4.295-1.304-4.162-4.924-10.659-7.595-13.63-3.317-3.689-0.043-8.434 4.131-5.988m13.355 28.395c2.798 1.417 2.744 5.591-0.09 6.878-2.542 1.155-5.37-0.709-5.37-3.539 0-2.911 2.856-4.658 5.46-3.339m-5.787 59.689c4.017 1.046 7.746 7.622 11.038 19.46 1.666 5.993 1.769 17.363 0.195 21.57-1.719 4.594-8.094 5.114-10.415 0.849-0.733-1.346-0.821-2.744-0.422-6.711 0.394-3.915 0.398-7.679 0.012-10.072-0.644-3.99-3.711-12.309-5.657-15.344-3.579-5.584-0.526-11.257 5.249-9.752m5.667 54.383c5.162 2.212 4.792 10.277-0.565 12.303-6.231 2.356-11.571-6.102-6.84-10.834 1.897-1.896 4.981-2.508 7.405-1.469" fill="#fb83f3"/>
  <path d="m243.51 109.17c-2.818 0.903-3.309 3.969-1.039 6.493 2.671 2.971 6.291 9.468 7.595 13.63 0.77 2.46 1.38 3.401 2.544 3.93 2.182 0.991 4.566-0.168 5.192-2.523 0.904-3.396-7.256-18.714-11.2-21.025-0.927-0.544-2.281-0.765-3.092-0.505m13.764 28.517c-2.194 0.542-3.405 3.24-2.417 5.382 1.476 3.199 6.155 2.846 7.065-0.532 0.745-2.768-1.9-5.528-4.648-4.85m-6.386 60.146c-3.929 1.384-4.737 5.356-1.967 9.678 1.946 3.035 5.013 11.354 5.657 15.344 0.386 2.393 0.382 6.157-0.012 10.072-0.399 3.967-0.311 5.365 0.422 6.711 2.321 4.265 8.696 3.745 10.415-0.849 1.574-4.207 1.471-15.577-0.195-21.57-4.132-14.862-8.887-21.298-14.32-19.386m5.137 53.921c-5.175 0.934-7.156 6.934-3.596 10.893 4.074 4.532 11.074 1.577 11.074-4.675 0-4.117-3.409-6.953-7.478-6.218" fill="#fcfbfc"/>
  <path d="m193.51 39.982c0.242 0.046 0.637 0.046 0.879 0 0.241-0.047 0.044-0.085-0.44-0.085-0.483 0-0.681 0.038-0.439 0.085m12.305 0c0.241 0.046 0.637 0.046 0.878 0 0.242-0.047 0.044-0.085-0.439-0.085s-0.681 0.038-0.439 0.085m3.808 0.192c0.188 0.049 0.496 0.049 0.684 0s0.034-0.09-0.342-0.09-0.53 0.041-0.342 0.09m-24.365 21.443c-1.31 0.336-0.695 0.349 0.781 0.016 0.645-0.146 0.952-0.265 0.684-0.266-0.269-1e-3 -0.928 0.112-1.465 0.25m-10.352 2.657c-0.537 0.208-0.722 0.328-0.412 0.268 0.614-0.12 1.901-0.642 1.584-0.644-0.107 0-0.635 0.169-1.172 0.376m58.887-0.338c0 0.144 1.993 0.738 2.104 0.627 0.046-0.046-0.282-0.183-0.729-0.303-0.448-0.121-0.94-0.268-1.094-0.327-0.155-0.059-0.281-0.058-0.281 3e-3m-72.168 5.791c-0.764 0.505-0.492 0.506 0.337 0 0.352-0.214 0.552-0.389 0.444-0.389-0.107 0-0.459 0.175-0.781 0.389m-5.42 2.65c-0.757 0.411-0.671 0.553 0.098 0.162 0.736-0.375 0.866-0.472 0.618-0.461-0.098 4e-3 -0.42 0.139-0.716 0.299m-65.881 10.875-0.574 0.635 0.635-0.574c0.592-0.535 0.724-0.696 0.574-0.696-0.034 0-0.32 0.286-0.635 0.635m219.74 0.342c0.529 0.537 1.005 0.976 1.059 0.976s-0.335-0.439-0.864-0.976-1.006-0.977-1.06-0.977c-0.053 0 0.336 0.44 0.865 0.977m-113.43 1.7c0.243 0.047 0.595 0.045 0.781-4e-3 0.187-0.048-0.012-0.087-0.441-0.084-0.43 2e-3 -0.583 0.042-0.34 0.088m19.082 0.258c0.962 0.203 1.781 0.337 1.82 0.298 0.106-0.105-2.602-0.696-3.12-0.68-0.248 8e-3 0.337 0.18 1.3 0.382m-20.644-0.062c0.243 0.046 0.594 0.045 0.781-4e-3s-0.012-0.087-0.442-0.085-0.582 0.042-0.339 0.089m-1.907 0.252c-0.656 0.21 0.053 0.21 0.879 0 0.526-0.134 0.536-0.149 0.098-0.153-0.269-2e-3 -0.708 0.067-0.977 0.153m-10.351 2.637c-0.376 0.145-0.552 0.266-0.391 0.269 0.161 4e-3 0.557-0.114 0.879-0.262 0.754-0.345 0.403-0.351-0.488-7e-3m133.69 1.66c0.529 0.537 1.006 0.977 1.059 0.977 0.054 0-0.335-0.44-0.864-0.977s-1.006-0.976-1.059-0.976c-0.054 0 0.335 0.439 0.864 0.976m-233.41 0.44-0.573 0.634 0.634-0.573c0.592-0.535 0.725-0.696 0.574-0.696-0.034 0-0.319 0.285-0.635 0.635m149.15 0.219c0.201 0.18 1.351 0.708 1.351 0.621 0-0.113-1.083-0.694-1.293-0.694-0.077 0-0.103 0.033-0.058 0.073m41.808 1.791c0.35 0.489 0.768 0.994 0.929 1.123 0.16 0.13-0.088-0.27-0.551-0.887-0.998-1.329-1.298-1.516-0.378-0.236m-36.356 1.075c0.678 0.46 1.064 0.594 0.586 0.203-0.268-0.219-0.576-0.4-0.683-0.4-0.108-1e-3 -0.064 0.088 0.097 0.197m7.715 5.391c1.499 1.458 2.827 2.586 1.953 1.659-0.537-0.57-1.24-1.219-1.562-1.442-0.322-0.224-0.498-0.322-0.391-0.217m4.382 4.316c0.47 0.564 0.893 1.026 0.939 1.026 0.132 0-1.071-1.474-1.451-1.777-0.189-0.151 0.041 0.188 0.512 0.751m-90.264 0.779c0.568 0.04 1.447 0.04 1.953 0 0.507-0.041 0.042-0.073-1.032-0.072-1.074 0-1.489 0.033-0.921 0.072m-18.23 0.693c-0.053 0.138-0.07 1.786-0.038 3.662l0.058 3.411 0.088-7.116 4.59-0.124-2.301-0.042c-1.725-0.031-2.325 0.021-2.397 0.209m9.727-0.116c0.188 0.049 0.496 0.049 0.684 0s0.034-0.089-0.342-0.089-0.53 0.04-0.342 0.089m13.714 11.779c0 5.103 0.025 7.19 0.056 4.639s0.031-6.726 0-9.277c-0.031-2.552-0.056-0.464-0.056 4.638m90.534-5.985c0 0.209 0.937 1.641 1.166 1.782 0.113 0.07-0.074-0.296-0.416-0.813-0.758-1.146-0.75-1.135-0.75-0.969m-113.78 6.474c0 2.041 0.029 2.849 0.064 1.796s0.035-2.723 0-3.711c-0.036-0.988-0.065-0.126-0.064 1.915m-0.195 14.648c0 2.148 0.028 3.054 0.063 2.012 0.035-1.041 0.036-2.799 1e-3 -3.906s-0.064-0.254-0.064 1.894m151.79-0.976c0.189 0.779 0.446 1.464 0.549 1.464 0.106 0-0.427-1.786-0.578-1.937-0.062-0.062-0.049 0.151 0.029 0.473m-115.34 4.637c-0.483 0.11-0.791 0.23-0.683 0.267 0.107 0.036 0.678-0.054 1.269-0.201 1.244-0.308 0.727-0.366-0.586-0.066m34.278 0.159c0.429 0.089 1.045 0.155 1.367 0.148 0.439-0.01 0.366-0.052-0.293-0.169-1.179-0.21-2.103-0.192-1.074 0.021m-70.947 2.235c2e-3 0.429 0.042 0.582 0.089 0.339 0.046-0.243 0.045-0.594-4e-3 -0.781s-0.087 0.012-0.085 0.442m25.439 0.879c-0.246 0.105-0.282 0.167-0.098 0.167 0.161 0 0.469-0.075 0.684-0.167 0.246-0.106 0.282-0.168 0.098-0.168-0.162 0-0.469 0.075-0.684 0.168m102.51 1.982c0.054 0.177 0.204 0.861 0.334 1.519 0.129 0.659 0.275 1.158 0.324 1.11 0.125-0.125-0.341-2.306-0.568-2.658-0.16-0.248-0.174-0.244-0.09 0.029m26.823 4.17c0.06 0.644 0.142 1.208 0.183 1.253 0.13 0.145 0.031-1.237-0.133-1.839-0.104-0.385-0.121-0.185-0.05 0.586m0.305 2.148c2e-3 0.43 0.042 0.583 0.089 0.34s0.045-0.595-4e-3 -0.781c-0.049-0.187-0.087 0.012-0.085 0.441m-36.963 7.386c0 0.048 0.322 0.334 0.717 0.634 0.394 0.301 0.655 0.448 0.58 0.326-0.155-0.25-1.297-1.096-1.297-0.96m12.537 4.789c0.078 0.931 0.111 2.571 0.072 3.646-0.068 1.91-0.066 1.921 0.092 0.488 0.165-1.506 0.034-5.617-0.185-5.751-0.067-0.042-0.058 0.686 0.021 1.617m-64.686 0.34c0.698 0.143 1.446 0.254 1.66 0.246 0.215-8e-3 -0.18-0.132-0.878-0.275-0.699-0.143-1.446-0.254-1.661-0.246-0.214 8e-3 0.181 0.131 0.879 0.275m11.328 2.915c0.892 0.343 1.243 0.338 0.489-7e-3 -0.323-0.148-0.718-0.266-0.879-0.262-0.161 3e-3 0.014 0.124 0.39 0.269m78.191 1.074c0 0.806 0.035 1.136 0.077 0.733s0.042-1.062 0-1.465-0.077-0.073-0.077 0.732m-135.42 1.758c-0.484 0.203-0.78 0.374-0.659 0.38 0.277 0.013 1.635-0.547 1.635-0.676 0-0.12 0.055-0.137-0.976 0.296m135.22 2.539c0 0.591 0.036 0.833 0.081 0.537 0.045-0.295 0.045-0.779 0-1.074s-0.081-0.054-0.081 0.537m-65-0.24c0.107 0.1 0.59 0.333 1.074 0.519 0.483 0.185 0.791 0.256 0.683 0.156-0.107-0.099-0.59-0.333-1.074-0.518-0.483-0.186-0.791-0.256-0.683-0.157m64.799 3.56c0 0.484 0.038 0.682 0.085 0.44 0.046-0.242 0.046-0.637 0-0.879-0.047-0.242-0.085-0.044-0.085 0.439m-48.43 6.972c0.164 0.265 1.697 1.502 1.697 1.369 0-0.05-0.413-0.429-0.919-0.843-0.505-0.414-0.855-0.651-0.778-0.526m-90.765 4.015c-0.071 0.564-0.17 1.333-0.219 1.709-0.08 0.606-0.07 0.625 0.083 0.161 0.208-0.625 0.487-2.896 0.357-2.896-0.05 0-0.15 0.462-0.221 1.026m94.708-0.705c0.995 0.883 1.361 1.14 0.978 0.687-0.213-0.252-0.564-0.548-0.78-0.659s-0.305-0.123-0.198-0.028m6.519 7.267c0.328 0.413 0.75 0.874 0.939 1.025s-0.041-0.187-0.511-0.751c-0.987-1.183-1.313-1.392-0.428-0.274m101.83 1.787c0 0.376 0.04 0.53 0.09 0.342 0.049-0.188 0.049-0.495 0-0.683-0.05-0.188-0.09-0.035-0.09 0.341m-319.92 0.391c0 0.376 0.041 0.53 0.09 0.342s0.049-0.496 0-0.684-0.09-0.034-0.09 0.342m-0.187 3.32c0 0.484 0.038 0.681 0.085 0.44 0.046-0.242 0.046-0.637 0-0.879-0.047-0.242-0.085-0.044-0.085 0.439m320.31 0c0 0.484 0.039 0.681 0.085 0.44 0.047-0.242 0.047-0.637 0-0.879-0.046-0.242-0.085-0.044-0.085 0.439m-68.75 0.391c0 0.483 0.039 0.681 0.085 0.439 0.047-0.241 0.047-0.637 0-0.879-0.046-0.241-0.085-0.043-0.085 0.44m-137.04 2.058c-0.067 0.175-0.115 0.464-0.105 0.643 9e-3 0.18 0.094 0.067 0.189-0.25 0.184-0.616 0.119-0.921-0.084-0.393m111.79 5.634c0 0.21 0.581 1.292 0.694 1.292 0.053 0-0.048-0.285-0.226-0.634-0.362-0.713-0.468-0.862-0.468-0.658m-226.31 4.222c0 0.483 0.038 0.681 0.085 0.439 0.046-0.241 0.046-0.637 0-0.878-0.047-0.242-0.085-0.044-0.085 0.439m320.31 0c0 0.483 0.039 0.681 0.085 0.439 0.047-0.241 0.047-0.637 0-0.878-0.046-0.242-0.085-0.044-0.085 0.439m-208.54 0.439c-0.259 0.856-0.445 1.927-0.311 1.783 0.174-0.186 0.596-2.027 0.465-2.027-0.044 0-0.114 0.11-0.154 0.244m-111.59 2.881c0 0.376 0.041 0.53 0.09 0.342s0.049-0.495 0-0.683-0.09-0.035-0.09 0.341m108.74 6.261c-0.118 0.221-0.186 0.488-0.15 0.595 0.035 0.106 0.165-0.075 0.288-0.402 0.257-0.68 0.18-0.787-0.138-0.193m123.18 2.04c0.067 0.43 0.196 0.957 0.286 1.172 0.105 0.248 0.12 0.105 0.042-0.391-0.067-0.429-0.196-0.957-0.286-1.172-0.105-0.247-0.12-0.105-0.042 0.391m26.372 0.879c0.064 0.483 0.148 0.916 0.186 0.96 0.147 0.17 0.036-1.075-0.13-1.448-0.115-0.261-0.134-0.099-0.056 0.488m0.468 2.674c-9e-3 0.45 0.054 0.862 0.139 0.914 0.085 0.053 0.122-0.228 0.083-0.623-0.107-1.081-0.205-1.21-0.222-0.291m-152.76 2.629c-0.126 0.467-0.276 0.937-0.335 1.045-0.071 0.13-0.038 0.13 0.1 0 0.228-0.217 0.668-1.69 0.542-1.816-0.043-0.043-0.182 0.303-0.307 0.771m128.18 6.513c2e-3 0.43 0.042 0.583 0.089 0.34s0.045-0.595-4e-3 -0.781c-0.049-0.187-0.087 0.012-0.085 0.441m0.224 4.59c0 1.558 0.03 2.195 0.067 1.416s0.037-2.053 0-2.832-0.067-0.141-0.067 1.416m-133.91 2.819c-0.16 0.484-0.218 0.835-0.131 0.781 0.174-0.107 0.595-1.486 0.487-1.594-0.037-0.037-0.197 0.329-0.356 0.813m158.06 16.138c-0.135 0.76-0.208 1.42-0.16 1.467 0.047 0.047 0.197-0.535 0.333-1.295 0.135-0.759 0.208-1.419 0.16-1.467-0.047-0.047-0.197 0.536-0.333 1.295m-32.149 13.483c-0.172 0.333-0.278 0.639-0.236 0.681 0.043 0.043 0.223-0.229 0.402-0.604 0.402-0.842 0.263-0.906-0.166-0.077m-5.662 9.406c-0.302 0.456-0.423 0.727-0.271 0.601 0.294-0.242 1.042-1.431 0.901-1.431-0.046 0-0.329 0.373-0.63 0.83m29.729 1.425c-0.458 0.962-0.394 1.126 0.086 0.217 0.218-0.413 0.361-0.786 0.319-0.828s-0.224 0.233-0.405 0.611m-2.926 5.462c-0.179 0.375-0.285 0.681-0.236 0.681 0.134 0 0.727-1.196 0.638-1.285-0.043-0.042-0.224 0.23-0.402 0.604m-159.9 2.732c-0.474 0.483-0.818 0.879-0.765 0.879 0.054 0 0.486-0.396 0.961-0.879 0.474-0.483 0.818-0.879 0.765-0.879-0.054 0-0.486 0.396-0.961 0.879m-6.347 6.152c-1.609 1.612-2.881 2.93-2.827 2.93 0.053 0 1.413-1.318 3.022-2.93 1.609-1.611 2.881-2.929 2.827-2.929s-1.414 1.318-3.022 2.929m157.91 3.125c-0.34 0.43-0.575 0.782-0.521 0.782 0.053 0 0.376-0.352 0.716-0.782 0.341-0.429 0.575-0.781 0.521-0.781-0.053 0-0.376 0.352-0.716 0.781m-132.42 0.651c0 0.054 0.352 0.376 0.781 0.717 0.43 0.34 0.782 0.574 0.782 0.521 0-0.054-0.352-0.376-0.782-0.717-0.429-0.34-0.781-0.575-0.781-0.521m-30.866 1.84-1.068 1.123 1.123-1.068c0.618-0.587 1.124-1.092 1.124-1.123 0-0.145-0.187 0.024-1.179 1.068m0.397 4.638c0.584 0.591 1.105 1.075 1.159 1.075 0.053 0-0.38-0.484-0.963-1.075-0.584-0.59-1.105-1.074-1.159-1.074s0.38 0.484 0.963 1.074m38.965-0.488c0.322 0.213 0.674 0.388 0.781 0.389 0.108 0-0.092-0.175-0.444-0.39-0.829-0.505-1.101-0.505-0.337 1e-3m-34.375 5.274c1.931 1.933 3.556 3.515 3.609 3.515 0.054 0-1.482-1.582-3.414-3.515-1.931-1.934-3.555-3.516-3.609-3.516s1.483 1.582 3.414 3.516m38.965-3.04c0 0.1 1.732 0.895 1.929 0.885 0.177-9e-3 -0.462-0.363-1.247-0.691-0.375-0.157-0.682-0.244-0.682-0.194m-78.711 2.905c0 0.034 0.286 0.32 0.635 0.635l0.635 0.574-0.574-0.635c-0.535-0.592-0.696-0.725-0.696-0.574m86.914 0.097c0.351 0.224 2.365 0.667 2.485 0.547 0.047-0.047-0.425-0.191-1.048-0.32-0.624-0.129-1.268-0.276-1.432-0.325-0.262-0.079-0.263-0.067-5e-3 0.098m147.55 3.211-1.166 1.221 1.22-1.166c0.672-0.641 1.221-1.19 1.221-1.22 0-0.145-0.193 0.031-1.275 1.165m-229 2.393c1.77 1.772 3.262 3.223 3.316 3.223 0.053 0-1.351-1.451-3.121-3.223-1.77-1.773-3.262-3.223-3.316-3.223s1.351 1.45 3.121 3.223m96.094-2.627c0.483 0.086 1.142 0.152 1.464 0.147 0.433-8e-3 0.356-0.051-0.293-0.167-0.483-0.086-1.142-0.152-1.464-0.146-0.433 7e-3 -0.356 0.051 0.293 0.166m21.289 0c-0.441 0.1-0.197 0.117 0.683 0.048 0.752-0.058 1.404-0.139 1.449-0.18 0.139-0.126-1.414-0.03-2.132 0.132m-18.699 0.326c0.297 0.045 0.736 0.043 0.977-3e-3 0.24-0.046-3e-3 -0.083-0.54-0.082-0.537 2e-3 -0.734 0.04-0.437 0.085m16.697-3e-3c0.241 0.047 0.637 0.047 0.879 0 0.241-0.046 0.043-0.084-0.44-0.084s-0.681 0.038-0.439 0.084m108.83 4.696-1.264 1.319 1.318-1.264c1.225-1.174 1.408-1.373 1.264-1.373-0.03 0-0.623 0.593-1.318 1.318m-219.53 2.064c0 0.033 0.286 0.319 0.635 0.634l0.635 0.574-0.574-0.635c-0.535-0.591-0.696-0.724-0.696-0.573m165.11 0.362c-0.793 0.598-1.021 0.833-0.563 0.582 0.508-0.277 1.402-0.996 1.247-1.001-0.066-3e-3 -0.374 0.186-0.684 0.419m-111.99 7.869c0 0.054 0.352 0.277 0.782 0.497 0.429 0.219 0.781 0.354 0.781 0.3 0-0.053-0.352-0.277-0.781-0.496-0.43-0.219-0.782-0.354-0.782-0.301m14.16 5.881c0.538 0.15 1.065 0.265 1.172 0.255 0.331-0.028-1.342-0.532-1.758-0.529-0.214 1e-3 0.049 0.125 0.586 0.274m13.672 2.928c0.645 0.145 1.348 0.259 1.563 0.253 0.215-7e-3 -0.137-0.131-0.781-0.276-0.645-0.146-1.348-0.259-1.563-0.253s0.137 0.13 0.781 0.276m17.92 25.221c0.188 0.049 0.496 0.049 0.684 0 0.188-0.05 0.034-0.09-0.342-0.09s-0.53 0.04-0.342 0.09m18.946 0c0.188 0.049 0.495 0.049 0.683 0 0.188-0.05 0.034-0.09-0.342-0.09s-0.529 0.04-0.341 0.09m-15.723 0.198c0.242 0.047 0.637 0.047 0.879 0 0.241-0.046 0.044-0.085-0.44-0.085-0.483 0-0.681 0.039-0.439 0.085m12.305 0c0.241 0.047 0.637 0.047 0.878 0 0.242-0.046 0.044-0.085-0.439-0.085s-0.681 0.039-0.439 0.085" fill="#723c6e"/>
  <path d="m195.27 39.985c0.351 0.044 0.879 0.043 1.172-2e-3 0.294-0.044 6e-3 -0.08-0.638-0.079-0.645 1e-3 -0.885 0.038-0.534 0.081m8.594 0c0.351 0.044 0.878 0.043 1.172-2e-3 0.293-0.044 6e-3 -0.08-0.638-0.079-0.645 1e-3 -0.885 0.038-0.534 0.081m-10.453 20.501c0.188 0.049 0.496 0.049 0.684 0s0.034-0.089-0.342-0.089-0.53 0.04-0.342 0.089m-2.588 0.256c-0.799 0.124-0.817 0.138-0.195 0.152 0.376 8e-3 1.079-0.056 1.563-0.142 1.17-0.208-0.035-0.217-1.368-0.01m30.469 0.105c1.655 0.341 2.403 0.325 0.879-0.019-0.645-0.145-1.392-0.259-1.66-0.253-0.269 5e-3 0.083 0.128 0.781 0.272m-32.666 0.228c0.242 0.047 0.637 0.047 0.879 0 0.242-0.046 0.044-0.084-0.439-0.084-0.484 0-0.682 0.038-0.44 0.084m-11.279 2.393c-0.591 0.198-1 0.368-0.909 0.379 0.238 0.029 2.276-0.577 2.276-0.677 0-0.133-0.22-0.085-1.367 0.298m54.611-0.098c0.334 0.155 0.862 0.331 1.172 0.392 0.483 0.095 0.466 0.072-0.119-0.157-1.055-0.414-1.8-0.58-1.053-0.235m-62.582 2.779c-0.464 0.164-0.808 0.332-0.766 0.375 0.089 0.089 1.901-0.506 1.901-0.624 0-0.123-0.222-0.074-1.135 0.249m70.666-0.052c0.269 0.143 0.708 0.315 0.977 0.382 0.268 0.067 0.136-0.047-0.293-0.254-0.884-0.425-1.432-0.528-0.684-0.128m10.938 5.28c0 0.053 0.263 0.234 0.586 0.4 0.322 0.167 0.585 0.259 0.585 0.206 0-0.054-0.263-0.234-0.585-0.401-0.323-0.167-0.586-0.259-0.586-0.205m9.765 7.041c0.365 0.376 0.707 0.684 0.76 0.684 0.054 0-0.2-0.308-0.564-0.684-0.365-0.376-0.707-0.684-0.761-0.684-0.053 0 0.201 0.308 0.565 0.684m2.149 1.953c0.692 0.698 1.302 1.27 1.356 1.27 0.053 0-0.469-0.572-1.161-1.27s-1.302-1.269-1.356-1.269 0.469 0.571 1.161 1.269m3.125 2.93c0.583 0.591 1.104 1.074 1.158 1.074s-0.38-0.483-0.963-1.074c-0.584-0.591-1.105-1.074-1.159-1.074-0.053 0 0.38 0.483 0.964 1.074m-177.35 1.611-1.067 1.123 1.123-1.067c1.043-0.992 1.212-1.179 1.067-1.179-0.03 0-0.536 0.505-1.123 1.123m224.62 1.904c1.232 1.236 2.284 2.247 2.338 2.247 0.053 0-0.911-1.011-2.142-2.247-1.232-1.235-2.284-2.246-2.338-2.246s0.91 1.011 2.142 2.246m-44.539-0.83c0.809 0.863 0.985 1.018 0.985 0.871 0-0.031-0.418-0.449-0.928-0.928l-0.928-0.87 0.871 0.927m-77.433 0.147c-0.527 0.134-0.537 0.149-0.098 0.153 0.268 2e-3 0.708-0.067 0.977-0.153 0.656-0.21-0.053-0.21-0.879 0m27.148 0.111c0.537 0.15 1.064 0.264 1.172 0.255 0.33-0.028-1.342-0.532-1.758-0.529-0.215 1e-3 0.049 0.125 0.586 0.274m-133.5 2.379-1.264 1.318 1.319-1.263c0.725-0.696 1.318-1.289 1.318-1.319 0-0.144-0.199 0.039-1.373 1.264m185.55-0.635c0.364 0.376 0.706 0.684 0.76 0.684s-0.2-0.308-0.565-0.684c-0.364-0.376-0.706-0.683-0.76-0.683s0.2 0.307 0.565 0.683m1.343 1.63c0.327 0.414 0.75 0.875 0.939 1.026s-0.041-0.187-0.512-0.751c-0.986-1.183-1.312-1.392-0.427-0.275m-102.27 4.618c-0.349 0.152-0.635 0.323-0.635 0.379 0 0.121 0.99-0.281 1.26-0.511 0.256-0.219 0.114-0.189-0.625 0.132m72.998 2.505c0 0.048 0.323 0.334 0.717 0.635 0.395 0.3 0.656 0.447 0.58 0.325-0.154-0.25-1.297-1.096-1.297-0.96m-85.007 7.303c0.243 0.047 0.594 0.045 0.781-4e-3 0.187-0.048-0.012-0.087-0.442-0.084-0.43 2e-3 -0.582 0.042-0.339 0.088m-2.639 0.192c0.188 0.049 0.495 0.049 0.683 0s0.034-0.089-0.342-0.089-0.529 0.04-0.341 0.089m-2.439 0.199c0.242 0.047 0.594 0.045 0.781-4e-3 0.186-0.049-0.012-0.087-0.442-0.085s-0.582 0.042-0.339 0.089m-5.366 0.202c0.73 0.038 1.872 0.038 2.539 0s0.07-0.069-1.326-0.069c-1.397 0-1.942 0.032-1.213 0.069m104.63 1.126c0.778 0.937 0.843 0.997 0.631 0.582-0.111-0.216-0.407-0.567-0.659-0.779-0.441-0.374-0.44-0.367 0.028 0.197m31.058 0.21c1e-3 0.22 0.738 1.449 0.869 1.449 0.052 0-0.095-0.33-0.325-0.733-0.517-0.902-0.545-0.938-0.544-0.716m2.87 5.255c0.178 0.375 0.359 0.646 0.402 0.604 0.089-0.089-0.504-1.285-0.638-1.285-0.049 0 0.057 0.306 0.236 0.681m-144.43 1.077c0 0.376 0.04 0.529 0.09 0.341 0.049-0.188 0.049-0.495 0-0.683-0.05-0.188-0.09-0.034-0.09 0.342m146.84 4.146c-0.023 0.231 0.614 1.736 0.698 1.652 0.043-0.043-0.094-0.464-0.304-0.936-0.209-0.472-0.387-0.794-0.394-0.716m-146.82 9.135c0 1.235 0.032 1.741 0.07 1.123 0.039-0.618 0.039-1.628 0-2.246-0.038-0.618-0.07-0.112-0.07 1.123m152.34 6.888c0.062 0.244 0.212 0.909 0.334 1.478 0.122 0.57 0.261 0.997 0.308 0.949 0.112-0.111-0.513-2.87-0.649-2.87-0.057 0-0.054 0.2 7e-3 0.443m-111.64 2.039c0.242 0.046 0.638 0.046 0.879 0 0.242-0.047 0.044-0.085-0.439-0.085-0.484 0-0.681 0.038-0.44 0.085m24.48-0.065c0.044 0.04 0.608 0.122 1.253 0.182 0.77 0.072 0.971 0.055 0.586-0.05-0.603-0.163-1.985-0.263-1.839-0.132m-26.579 0.318c-0.659 0.138-0.663 0.144-0.098 0.146 0.322 2e-3 0.85-0.064 1.172-0.146 0.811-0.207-0.094-0.207-1.074 0m29.346 0.134c0.188 0.049 0.495 0.049 0.683 0s0.034-0.089-0.342-0.089-0.529 0.04-0.341 0.089m-68.168 1.428c0 0.376 0.04 0.53 0.089 0.342s0.049-0.496 0-0.684-0.089-0.034-0.089 0.342m28.373 1.172c-0.247 0.106-0.283 0.168-0.098 0.168 0.161 0 0.469-0.076 0.684-0.168 0.246-0.106 0.282-0.168 0.097-0.168-0.161 0-0.469 0.076-0.683 0.168m99.225 1.66c0.076 0.43 0.209 0.858 0.295 0.951 0.085 0.094 0.07-0.211-0.035-0.678-0.245-1.09-0.442-1.297-0.26-0.273m-128.38 4.785c0 0.376 0.04 0.53 0.089 0.342s0.049-0.495 0-0.683-0.089-0.035-0.089 0.341m105.36 1.638c0.457 0.338 1.435 0.751 1.435 0.606 0-0.049-0.329-0.24-0.732-0.424-1.107-0.505-1.157-0.518-0.703-0.182m50.671 2.968c0.01 0.636 0.088 1.595 0.176 2.133 0.106 0.658 0.124 0.308 0.054-1.075-0.114-2.24-0.257-2.901-0.23-1.058m-25.362 2.23c0 0.376 0.04 0.53 0.089 0.342s0.049-0.496 0-0.684-0.089-0.034-0.089 0.342m0.286 2.442c0.058 0.966 0.139 1.794 0.18 1.839 0.129 0.141 0.047-1.603-0.123-2.621-0.12-0.719-0.135-0.513-0.057 0.782m25.532 2.832c0 2.202 0.029 3.103 0.063 2.002 0.035-1.101 0.035-2.903 0-4.004-0.034-1.101-0.063-0.2-0.063 2.002m-25.219 0.195c0 0.591 0.037 0.833 0.081 0.537 0.045-0.295 0.045-0.779 0-1.074-0.044-0.296-0.081-0.054-0.081 0.537m-79.006 1.512c0.676 0.038 1.73 0.038 2.344-1e-3 0.613-0.038 0.06-0.07-1.229-0.069-1.289 0-1.791 0.032-1.115 0.07m-14.803 2.59c-0.392 0.125-0.411 0.157-0.097 0.162 0.215 3e-3 0.566-0.07 0.781-0.162 0.498-0.214-0.016-0.214-0.684 0m118.81 5.273c0 0.591 0.037 0.833 0.081 0.537 0.045-0.295 0.045-0.779 0-1.074-0.044-0.296-0.081-0.054-0.081 0.537m-0.201 3.711c0 0.483 0.038 0.681 0.085 0.439 0.046-0.241 0.046-0.637 0-0.879-0.047-0.241-0.085-0.043-0.085 0.44m-51.242 6.511c0.285 0.355 1.384 1.192 1.384 1.054 0-0.043-0.373-0.375-0.83-0.737-0.456-0.363-0.706-0.506-0.554-0.317m-87.378 1.602c-0.075 0.605-0.096 1.14-0.047 1.19 0.05 0.049 0.152-0.405 0.228-1.01 0.075-0.605 0.096-1.14 0.047-1.19-0.05-0.049-0.152 0.405-0.228 1.01m102.44 13.664c0 0.108 0.181 0.415 0.4 0.684 0.266 0.324 0.332 0.357 0.198 0.098-0.329-0.638-0.6-0.991-0.598-0.782m-220.08 0.684c0 0.376 0.041 0.53 0.09 0.342s0.049-0.496 0-0.684-0.09-0.034-0.09 0.342m114.84 2.549c-0.126 0.68-0.196 1.271-0.154 1.312 0.113 0.113 0.542-2.076 0.457-2.331-0.04-0.12-0.176 0.338-0.303 1.019m-115.02 1.455c1e-3 0.644 0.038 0.884 0.081 0.533 0.044-0.351 0.043-0.878-2e-3 -1.171-0.044-0.294-0.08-7e-3 -0.079 0.638m320.31 0c1e-3 0.644 0.037 0.884 0.081 0.533 0.043-0.351 0.042-0.878-2e-3 -1.171-0.045-0.294-0.08-7e-3 -0.079 0.638m-320.31 8.594c1e-3 0.644 0.038 0.884 0.081 0.533 0.044-0.351 0.043-0.878-2e-3 -1.172-0.044-0.293-0.08-6e-3 -0.079 0.639m320.31 0c1e-3 0.644 0.037 0.884 0.081 0.533 0.043-0.351 0.042-0.878-2e-3 -1.172-0.045-0.293-0.08-6e-3 -0.079 0.639m-208.11 0.97c-0.164 0.588-0.233 1.029-0.154 0.98 0.167-0.103 0.636-1.864 0.525-1.975-0.04-0.04-0.208 0.407-0.371 0.995m-112.03 3.033c0 0.376 0.041 0.53 0.09 0.342s0.049-0.495 0-0.683-0.09-0.035-0.09 0.341m256.42 0.391c-2e-3 0.161 0.118 0.732 0.267 1.27 0.149 0.537 0.276 0.8 0.281 0.586 6e-3 -0.215-0.114-0.787-0.267-1.27-0.152-0.483-0.278-0.747-0.281-0.586m-25.11 7.129c0.076 0.322 0.214 0.668 0.305 0.768 0.092 0.1 0.084-0.109-0.019-0.466-0.238-0.83-0.469-1.074-0.286-0.302m27.735 7.129c0.26 1.748 0.47 2.509 0.356 1.287-0.06-0.636-0.187-1.339-0.283-1.563-0.13-0.305-0.149-0.236-0.073 0.276m-25.058 6.152c2e-3 0.43 0.042 0.583 0.089 0.34 0.046-0.243 0.045-0.595-4e-3 -0.782-0.049-0.186-0.087 0.013-0.085 0.442m-130 0.4c-0.18 0.378-0.326 0.795-0.324 0.925 3e-3 0.131 0.18-0.149 0.394-0.621 0.465-1.024 0.402-1.294-0.07-0.304m129.8 12.979c0 0.484 0.038 0.681 0.085 0.44 0.047-0.242 0.047-0.638 0-0.879-0.047-0.242-0.085-0.044-0.085 0.439m25.659 5.839c-0.074 0.795-0.096 1.483-0.049 1.529 0.121 0.122 0.373-2.405 0.27-2.714-0.048-0.143-0.147 0.391-0.221 1.185m-0.272 2.462c2e-3 0.43 0.042 0.582 0.089 0.339s0.045-0.594-4e-3 -0.781-0.087 0.012-0.085 0.442m-2.751 11.611c-0.114 0.328-0.166 0.596-0.115 0.596 0.132 0 0.5-1.015 0.403-1.111-0.044-0.045-0.174 0.187-0.288 0.515m-2.637 8.246c-0.177 0.45-0.289 0.85-0.25 0.889s0.218-0.295 0.397-0.743c0.179-0.447 0.291-0.847 0.25-0.889-0.042-0.041-0.22 0.293-0.397 0.743m-30.866 2.946-0.351 0.634 0.402-0.488c0.357-0.433 0.516-0.781 0.356-0.781-0.031 0-0.214 0.286-0.407 0.635m-4.838 6.738c-0.562 0.678-0.8 1.025-0.704 1.025 0.055 0 0.333-0.307 0.62-0.683 0.532-0.698 0.597-0.961 0.084-0.342m-3.098 3.662c-0.474 0.483-0.819 0.879-0.765 0.879s0.486-0.396 0.96-0.879c0.475-0.483 0.819-0.879 0.765-0.879-0.053 0-0.485 0.396-0.96 0.879m-122.75-0.314c0.486 0.567 3.809 3.612 3.809 3.49 0-0.049-0.945-0.956-2.1-2.017-1.155-1.06-1.924-1.723-1.709-1.473m-2.741 1.046-0.97 1.026 1.026-0.969c0.952-0.901 1.115-1.082 0.969-1.082-0.031 0-0.492 0.461-1.025 1.025m121.39 3.614-3.22 3.271 3.271-3.22c3.04-2.992 3.36-3.323 3.221-3.323-0.028 0-1.5 1.472-3.272 3.272m34.833-1.563c-0.184 0.296-0.428 0.664-0.541 0.819-0.151 0.205-0.146 0.245 0.017 0.147 0.237-0.142 1.093-1.503 0.945-1.503-0.047 0-0.237 0.242-0.421 0.537m-160.23 1.758-1.264 1.318 1.319-1.263c1.224-1.174 1.407-1.373 1.264-1.373-0.03 0-0.624 0.593-1.319 1.318m11.521-0.488c0.81 0.862 0.985 1.017 0.985 0.871 0-0.032-0.418-0.449-0.928-0.928l-0.928-0.871 0.871 0.928m109.58 4.345c-0.475 0.484-0.819 0.879-0.765 0.879 0.053 0 0.486-0.395 0.96-0.879 0.474-0.483 0.819-0.878 0.765-0.878s-0.486 0.395-0.96 0.878m-1.673 1.514-0.573 0.635 0.634-0.574c0.592-0.534 0.725-0.696 0.574-0.696-0.034 0-0.319 0.286-0.635 0.635m-127.53 2.735-0.969 1.025 1.025-0.969c0.953-0.901 1.115-1.082 0.97-1.082-0.031 0-0.493 0.462-1.026 1.026m158.79 2.929-2.145 2.197 2.197-2.145c2.041-1.992 2.286-2.249 2.145-2.249-0.028 0-1.017 0.989-2.197 2.197m-126.46-0.837c0.268 0.225 0.664 0.5 0.879 0.612 0.266 0.138 0.235 0.073-0.098-0.207-0.269-0.225-0.664-0.5-0.879-0.612-0.267-0.138-0.236-0.073 0.098 0.207m87.988 0.202c-0.322 0.214-0.498 0.387-0.391 0.385 0.196-3e-3 1.258-0.764 1.075-0.77-0.054-1e-3 -0.362 0.172-0.684 0.385m30.663 8.643-5.663 5.713 5.713-5.663c5.309-5.262 5.801-5.763 5.663-5.763-0.028 0-2.599 2.571-5.713 5.713m-41.796-3.069c-0.488 0.235-0.505 0.262-0.097 0.163 0.553-0.136 1.175-0.453 0.878-0.448-0.107 1e-3 -0.459 0.129-0.781 0.285m-146.19 2.105c0 0.033 0.285 0.319 0.635 0.635l0.634 0.573-0.573-0.635c-0.535-0.591-0.696-0.724-0.696-0.573m85.937 0.622c0.376 0.145 0.904 0.264 1.172 0.265 0.283 1e-3 0.077-0.112-0.488-0.269-1.232-0.342-1.578-0.34-0.684 4e-3m150.97 1.807-0.673 0.732 0.733-0.673c0.681-0.626 0.822-0.792 0.673-0.792-0.033 0-0.363 0.33-0.733 0.733m-234.18 0.488c0.809 0.862 0.985 1.018 0.985 0.871 0-0.031-0.418-0.449-0.928-0.928l-0.928-0.871 0.871 0.928m125.45 0.477c0.188 0.049 0.495 0.049 0.683 0 0.188-0.05 0.034-0.09-0.342-0.09s-0.529 0.04-0.341 0.09m104.73 3.234-1.166 1.221 1.221-1.166c1.134-1.083 1.31-1.276 1.165-1.276-0.03 0-0.579 0.55-1.22 1.221m-51.469 0.684-0.674 0.732 0.733-0.673c0.403-0.37 0.732-0.7 0.732-0.732 0-0.15-0.165-9e-3 -0.791 0.673m-1.467 1.269-0.574 0.635 0.635-0.574c0.592-0.534 0.725-0.696 0.574-0.696-0.034 0-0.32 0.286-0.635 0.635m-170.02 1.563c0.478 0.51 0.896 0.927 0.927 0.927 0.147 0-8e-3 -0.175-0.87-0.984l-0.928-0.871 0.871 0.928m218.55 0.683-0.673 0.733 0.732-0.673c0.403-0.371 0.733-0.7 0.733-0.733 0-0.149-0.166-8e-3 -0.792 0.673m-216.59 1.087c0 0.033 0.285 0.319 0.635 0.635l0.634 0.573-0.573-0.635c-0.535-0.591-0.696-0.724-0.696-0.573m158.59 3.276c-0.325 0.266-0.358 0.332-0.098 0.198 0.637-0.329 0.99-0.6 0.781-0.598-0.107 0-0.415 0.181-0.683 0.4m-109.38 2.532c0.677 0.459 1.063 0.593 0.586 0.203-0.269-0.22-0.577-0.4-0.684-0.401-0.108-1e-3 -0.064 0.088 0.098 0.198m104.39 0.185c-0.764 0.506-0.492 0.507 0.337 1e-3 0.352-0.214 0.552-0.39 0.444-0.389-0.107 0-0.459 0.175-0.781 0.388m-5.664 2.745c-0.43 0.204-0.649 0.369-0.488 0.367s0.6-0.171 0.976-0.377c0.877-0.48 0.533-0.473-0.488 0.01m-87.512 2.729c0.531 0.207 0.996 0.345 1.034 0.308 0.093-0.093-1.458-0.706-1.758-0.694-0.132 5e-3 0.194 0.178 0.724 0.386m60.559 5.269c-0.665 0.119-0.694 0.142-0.195 0.156 0.322 9e-3 0.937-0.056 1.367-0.145 1.022-0.212 1e-3 -0.221-1.172-0.011m-37.644 0.138c0.243 0.046 0.594 0.045 0.781-4e-3s-0.012-0.087-0.442-0.085c-0.429 2e-3 -0.582 0.042-0.339 0.089m1.562 0.195c0.243 0.047 0.595 0.045 0.781-4e-3 0.187-0.049-0.012-0.087-0.441-0.085-0.43 2e-3 -0.583 0.042-0.34 0.089m34.275-3e-3c0.188 0.049 0.496 0.049 0.684 0 0.188-0.05 0.034-0.09-0.342-0.09s-0.53 0.04-0.342 0.09m-32.712 0.198c0.243 0.047 0.594 0.045 0.781-4e-3s-0.012-0.087-0.442-0.085c-0.429 3e-3 -0.582 0.043-0.339 0.089m31.25 0c0.243 0.047 0.594 0.045 0.781-4e-3s-0.012-0.087-0.442-0.085c-0.429 3e-3 -0.582 0.043-0.339 0.089m-18.655 24.216c0.188 0.049 0.496 0.049 0.684 0 0.188-0.05 0.034-0.09-0.342-0.09s-0.53 0.04-0.342 0.09m16.602 0c0.188 0.049 0.495 0.049 0.683 0 0.188-0.05 0.034-0.09-0.342-0.09s-0.529 0.04-0.341 0.09m-12.79 0.202c0.351 0.043 0.879 0.042 1.172-2e-3 0.294-0.045 6e-3 -0.08-0.638-0.079-0.645 1e-3 -0.885 0.037-0.534 0.081m8.594 0c0.351 0.043 0.878 0.042 1.172-2e-3 0.293-0.045 6e-3 -0.08-0.638-0.079-0.645 1e-3 -0.885 0.037-0.534 0.081" fill="#9b5094"/>
 </g>
</svg>
