<?xml version="1.0" encoding="UTF-8"?>
<!DOCTYPE svg PUBLIC "-//W3C//DTD SVG 1.1//EN" "http://www.w3.org/Graphics/SVG/1.1/DTD/svg11.dtd">
<svg xmlns="http://www.w3.org/2000/svg" version="1.1" width="256px" height="256px" style="shape-rendering:geometricPrecision; text-rendering:geometricPrecision; image-rendering:optimizeQuality; fill-rule:evenodd; clip-rule:evenodd" xmlns:xlink="http://www.w3.org/1999/xlink">
<g><path style="opacity:1" fill="#000000" d="M -0.5,-0.5 C 84.8333,-0.5 170.167,-0.5 255.5,-0.5C 255.5,84.8333 255.5,170.167 255.5,255.5C 170.167,255.5 84.8333,255.5 -0.5,255.5C -0.5,170.167 -0.5,84.8333 -0.5,-0.5 Z"/></g>
<g><path style="opacity:0.995" fill="#fefefe" d="M 97.5,72.5 C 109.186,72.1678 120.852,72.5011 132.5,73.5C 142.314,96.2841 152.314,118.951 162.5,141.5C 168.307,118.605 173.641,95.6047 178.5,72.5C 188.167,72.5 197.833,72.5 207.5,72.5C 198.4,112.5 189.233,152.5 180,192.5C 171.099,194.456 161.932,195.122 152.5,194.5C 141.425,166.615 129.758,138.949 117.5,111.5C 110.812,138.768 104.312,166.101 98,193.5C 88.5834,194.485 79.0834,194.818 69.5,194.5C 71.7945,181.157 74.7945,167.99 78.5,155C 66.5046,154.5 54.5046,154.333 42.5,154.5C 42.5,149.833 42.5,145.167 42.5,140.5C 55.5,140.5 68.5,140.5 81.5,140.5C 83.4226,132.554 85.0892,124.554 86.5,116.5C 71.8333,116.5 57.1667,116.5 42.5,116.5C 42.5,111.5 42.5,106.5 42.5,101.5C 58.5,101.5 74.5,101.5 90.5,101.5C 92.4554,91.7186 94.7887,82.0519 97.5,72.5 Z"/></g>
</svg>
