<svg id="svg" version="1.1" xmlns="http://www.w3.org/2000/svg" xmlns:xlink="http://www.w3.org/1999/xlink" width="400" height="400" viewBox="0, 0, 400,400"><g id="svgg"><path id="path0" d="M134.080 106.880 C 133.816 107.144,133.600 107.747,133.600 108.220 C 133.600 108.693,133.439 109.602,133.243 110.240 C 133.047 110.878,132.668 112.480,132.400 113.800 C 132.133 115.120,131.776 116.650,131.607 117.200 C 131.438 117.750,131.088 119.190,130.830 120.400 C 130.195 123.379,129.620 125.917,129.200 127.600 C 129.008 128.370,128.659 129.855,128.425 130.900 C 128.191 131.945,127.809 133.655,127.575 134.700 C 127.341 135.745,126.992 137.230,126.800 138.000 C 126.380 139.683,125.805 142.221,125.170 145.200 C 124.912 146.410,124.559 147.850,124.385 148.400 C 124.211 148.950,123.837 150.525,123.552 151.900 L 123.035 154.400 92.717 154.400 L 62.400 154.400 62.400 162.797 L 62.400 171.195 90.700 171.297 C 115.232 171.386,118.983 171.478,118.873 171.982 C 118.802 172.303,118.569 173.383,118.353 174.382 C 118.137 175.382,117.808 176.830,117.621 177.600 C 117.434 178.370,117.064 179.990,116.800 181.200 C 116.314 183.423,115.846 185.442,115.222 188.000 C 115.034 188.770,114.664 190.390,114.400 191.600 C 114.136 192.810,113.757 194.475,113.560 195.300 C 113.362 196.125,113.038 197.475,112.840 198.300 C 112.643 199.125,112.264 200.790,112.000 202.000 C 111.736 203.210,111.357 204.875,111.160 205.700 C 110.962 206.525,110.638 207.875,110.440 208.700 C 109.909 210.918,109.148 214.406,108.849 216.000 L 108.587 217.400 85.093 217.503 L 61.600 217.606 61.600 226.000 L 61.600 234.393 82.900 234.496 L 104.200 234.600 104.099 235.800 C 104.043 236.460,103.830 237.630,103.624 238.400 C 103.419 239.170,103.069 240.610,102.847 241.600 C 102.625 242.590,102.064 245.020,101.600 247.000 C 101.136 248.980,100.575 251.410,100.353 252.400 C 100.131 253.390,99.792 254.830,99.600 255.600 C 99.243 257.030,98.655 259.590,97.947 262.800 C 97.728 263.790,97.392 265.230,97.200 266.000 C 97.008 266.770,96.672 268.210,96.453 269.200 C 95.745 272.410,95.157 274.970,94.800 276.400 C 94.608 277.170,94.272 278.610,94.053 279.600 C 93.345 282.810,92.757 285.370,92.400 286.800 C 92.208 287.570,91.859 289.055,91.625 290.100 C 91.391 291.145,91.009 292.855,90.775 293.900 C 90.541 294.945,90.192 296.430,90.000 297.200 C 89.808 297.970,89.472 299.410,89.253 300.400 C 88.157 305.369,87.544 307.960,86.851 310.566 C 86.622 311.427,86.527 312.282,86.641 312.466 C 86.754 312.650,97.821 312.800,111.234 312.800 L 135.620 312.800 136.039 311.700 C 136.269 311.095,136.643 309.700,136.869 308.600 C 137.095 307.500,137.434 305.970,137.622 305.200 C 138.246 302.642,138.714 300.623,139.200 298.400 C 139.464 297.190,139.843 295.525,140.040 294.700 C 140.238 293.875,140.562 292.525,140.760 291.700 C 140.957 290.875,141.336 289.210,141.600 288.000 C 141.864 286.790,142.243 285.125,142.440 284.300 C 142.638 283.475,142.962 282.125,143.160 281.300 C 143.357 280.475,143.736 278.810,144.000 277.600 C 144.264 276.390,144.643 274.725,144.840 273.900 C 145.038 273.075,145.362 271.725,145.560 270.900 C 145.757 270.075,146.136 268.410,146.400 267.200 C 146.664 265.990,147.043 264.325,147.240 263.500 C 147.438 262.675,147.762 261.325,147.960 260.500 C 148.157 259.675,148.536 258.010,148.800 256.800 C 149.286 254.577,149.754 252.558,150.378 250.000 C 150.566 249.230,150.936 247.610,151.200 246.400 C 151.464 245.190,151.834 243.570,152.022 242.800 C 152.646 240.242,153.114 238.223,153.600 236.000 C 153.864 234.790,154.243 233.125,154.440 232.300 C 154.638 231.475,154.962 230.125,155.160 229.300 C 155.357 228.475,155.736 226.810,156.000 225.600 C 156.264 224.390,156.643 222.725,156.840 221.900 C 157.038 221.075,157.362 219.725,157.560 218.900 C 157.757 218.075,158.136 216.410,158.400 215.200 C 158.664 213.990,159.034 212.370,159.222 211.600 C 159.846 209.042,160.314 207.023,160.800 204.800 C 161.286 202.577,161.754 200.558,162.378 198.000 C 162.566 197.230,162.936 195.610,163.200 194.400 C 163.464 193.190,163.843 191.525,164.040 190.700 C 164.238 189.875,164.562 188.525,164.760 187.700 C 164.957 186.875,165.336 185.210,165.600 184.000 C 166.097 181.727,166.553 179.765,167.227 177.000 C 167.441 176.120,167.726 174.728,167.860 173.906 C 168.224 171.676,169.004 171.245,169.723 172.876 C 170.044 173.604,170.688 175.053,171.153 176.096 C 171.619 177.138,172.000 178.078,172.000 178.184 C 172.000 178.290,172.436 179.330,172.969 180.495 C 173.502 181.660,174.326 183.598,174.800 184.800 C 175.274 186.002,176.098 187.940,176.631 189.105 C 177.164 190.270,177.600 191.304,177.600 191.402 C 177.600 191.500,178.140 192.759,178.800 194.200 C 179.460 195.641,180.000 196.907,180.000 197.014 C 180.000 197.121,180.360 198.017,180.800 199.004 C 181.240 199.992,181.960 201.608,182.400 202.596 C 182.840 203.583,183.200 204.485,183.200 204.600 C 183.200 204.715,183.560 205.617,184.000 206.604 C 184.440 207.592,185.160 209.208,185.600 210.196 C 186.040 211.183,186.400 212.079,186.400 212.186 C 186.400 212.293,186.940 213.559,187.600 215.000 C 188.260 216.441,188.800 217.700,188.800 217.798 C 188.800 217.896,189.236 218.930,189.769 220.095 C 190.302 221.260,191.126 223.198,191.600 224.400 C 192.074 225.602,192.898 227.540,193.431 228.705 C 193.964 229.870,194.400 230.910,194.400 231.016 C 194.400 231.122,194.760 232.017,195.200 233.004 C 195.640 233.992,196.360 235.608,196.800 236.596 C 197.240 237.583,197.600 238.479,197.600 238.586 C 197.600 238.693,198.140 239.959,198.800 241.400 C 199.460 242.841,200.000 244.107,200.000 244.214 C 200.000 244.321,200.381 245.262,200.847 246.304 C 202.855 250.799,203.200 251.602,203.200 251.784 C 203.200 251.890,203.636 252.930,204.169 254.095 C 204.702 255.260,205.526 257.198,206.000 258.400 C 206.474 259.602,207.298 261.540,207.831 262.705 C 208.364 263.870,208.800 264.904,208.800 265.002 C 208.800 265.100,209.340 266.359,210.000 267.800 C 210.660 269.241,211.200 270.507,211.200 270.614 C 211.200 270.721,211.560 271.617,212.000 272.604 C 212.440 273.592,213.160 275.208,213.600 276.196 C 214.040 277.183,214.400 278.078,214.400 278.184 C 214.400 278.290,214.836 279.330,215.369 280.495 C 215.902 281.660,216.726 283.598,217.200 284.800 C 217.674 286.002,218.498 287.940,219.031 289.105 C 219.564 290.270,220.000 291.304,220.000 291.402 C 220.000 291.500,220.540 292.759,221.200 294.200 C 221.860 295.641,222.400 296.907,222.400 297.014 C 222.400 297.121,222.760 298.017,223.200 299.004 C 223.640 299.992,224.360 301.608,224.800 302.596 C 225.240 303.583,225.600 304.478,225.600 304.584 C 225.600 304.690,226.028 305.727,226.551 306.888 C 227.075 308.050,227.875 309.855,228.329 310.900 L 229.155 312.800 251.990 312.800 C 269.915 312.800,274.856 312.692,274.969 312.300 C 275.048 312.025,275.332 310.720,275.599 309.400 C 275.867 308.080,276.224 306.550,276.393 306.000 C 276.562 305.450,276.912 304.010,277.170 302.800 C 277.805 299.821,278.380 297.283,278.800 295.600 C 278.992 294.830,279.341 293.345,279.575 292.300 C 279.809 291.255,280.191 289.545,280.425 288.500 C 280.659 287.455,281.008 285.970,281.200 285.200 C 281.392 284.430,281.728 282.990,281.947 282.000 C 282.655 278.790,283.243 276.230,283.600 274.800 C 283.957 273.370,284.545 270.810,285.253 267.600 C 285.472 266.610,285.808 265.170,286.000 264.400 C 286.192 263.630,286.541 262.145,286.775 261.100 C 287.009 260.055,287.391 258.345,287.625 257.300 C 287.859 256.255,288.208 254.770,288.400 254.000 C 288.592 253.230,288.941 251.745,289.175 250.700 C 289.409 249.655,289.791 247.945,290.025 246.900 C 290.259 245.855,290.608 244.370,290.800 243.600 C 290.992 242.830,291.341 241.345,291.575 240.300 C 291.809 239.255,292.191 237.545,292.425 236.500 C 292.659 235.455,293.008 233.970,293.200 233.200 C 293.392 232.430,293.731 230.990,293.953 230.000 C 294.175 229.010,294.736 226.580,295.200 224.600 C 295.664 222.620,296.225 220.190,296.447 219.200 C 296.669 218.210,297.008 216.770,297.200 216.000 C 297.557 214.570,298.145 212.010,298.853 208.800 C 299.072 207.810,299.408 206.370,299.600 205.600 C 299.792 204.830,300.141 203.345,300.375 202.300 C 300.609 201.255,300.991 199.545,301.225 198.500 C 301.459 197.455,301.808 195.970,302.000 195.200 C 302.192 194.430,302.541 192.945,302.775 191.900 C 303.009 190.855,303.391 189.145,303.625 188.100 C 303.859 187.055,304.208 185.570,304.400 184.800 C 304.592 184.030,304.928 182.590,305.147 181.600 C 305.855 178.390,306.443 175.830,306.800 174.400 C 306.992 173.630,307.341 172.145,307.575 171.100 C 307.809 170.055,308.191 168.345,308.425 167.300 C 308.659 166.255,309.008 164.770,309.200 164.000 C 309.392 163.230,309.728 161.790,309.947 160.800 C 310.655 157.590,311.243 155.030,311.600 153.600 C 311.792 152.830,312.141 151.345,312.375 150.300 C 312.609 149.255,312.991 147.545,313.225 146.500 C 313.459 145.455,313.808 143.970,314.000 143.200 C 314.192 142.430,314.531 140.990,314.753 140.000 C 314.975 139.010,315.536 136.580,316.000 134.600 C 316.464 132.620,317.025 130.190,317.247 129.200 C 317.469 128.210,317.808 126.770,318.000 126.000 C 318.420 124.317,318.995 121.779,319.630 118.800 C 319.888 117.590,320.238 116.150,320.407 115.600 C 320.576 115.050,320.933 113.520,321.200 112.200 C 321.468 110.880,321.847 109.278,322.043 108.640 C 322.239 108.002,322.400 107.236,322.400 106.937 C 322.400 106.484,318.298 106.411,297.716 106.497 L 273.033 106.600 272.695 108.000 C 272.510 108.770,272.205 110.030,272.019 110.800 C 271.833 111.570,271.464 113.190,271.200 114.400 C 270.936 115.610,270.557 117.275,270.360 118.100 C 270.162 118.925,269.838 120.275,269.640 121.100 C 269.443 121.925,269.065 123.590,268.801 124.800 C 267.957 128.669,267.530 130.565,267.179 132.000 C 266.570 134.491,266.091 136.553,265.600 138.800 C 265.114 141.023,264.646 143.042,264.022 145.600 C 263.834 146.370,263.464 147.990,263.200 149.200 C 262.936 150.410,262.548 152.120,262.338 153.000 C 262.128 153.880,261.796 155.320,261.600 156.200 C 261.404 157.080,261.072 158.520,260.862 159.400 C 260.652 160.280,260.264 161.990,260.000 163.200 C 259.736 164.410,259.366 166.030,259.178 166.800 C 258.554 169.358,258.086 171.377,257.600 173.600 C 257.336 174.810,256.966 176.430,256.778 177.200 C 256.154 179.758,255.686 181.777,255.200 184.000 C 254.936 185.210,254.557 186.875,254.360 187.700 C 254.162 188.525,253.838 189.875,253.640 190.700 C 253.443 191.525,253.065 193.190,252.801 194.400 C 251.957 198.269,251.530 200.165,251.179 201.600 C 250.570 204.091,250.091 206.153,249.600 208.400 C 249.336 209.610,248.957 211.275,248.760 212.100 C 248.562 212.925,248.238 214.275,248.040 215.100 C 247.510 217.313,246.749 220.805,246.450 222.396 C 246.085 224.340,245.103 224.397,244.429 222.513 C 244.131 221.681,243.373 219.870,242.744 218.490 C 242.115 217.109,241.600 215.900,241.600 215.802 C 241.600 215.704,241.150 214.628,240.600 213.412 C 240.050 212.195,239.150 210.205,238.600 208.988 C 238.050 207.772,237.600 206.697,237.600 206.600 C 237.600 206.503,237.150 205.428,236.600 204.212 C 236.050 202.995,235.150 201.005,234.600 199.788 C 234.050 198.572,233.600 197.497,233.600 197.400 C 233.600 197.303,233.171 196.273,232.646 195.112 C 232.122 193.950,231.111 191.650,230.399 190.000 C 228.946 186.628,227.953 184.379,226.555 181.288 C 226.030 180.127,225.600 179.096,225.600 178.998 C 225.600 178.900,225.060 177.641,224.400 176.200 C 223.740 174.759,223.200 173.500,223.200 173.402 C 223.200 173.304,222.750 172.228,222.200 171.012 C 221.650 169.795,220.750 167.805,220.200 166.588 C 219.650 165.372,219.200 164.297,219.200 164.200 C 219.200 164.103,218.750 163.028,218.200 161.812 C 217.650 160.595,216.750 158.605,216.200 157.388 C 215.650 156.172,215.200 155.097,215.200 155.000 C 215.200 154.903,214.750 153.828,214.200 152.612 C 213.650 151.395,212.750 149.405,212.200 148.188 C 211.650 146.972,211.200 145.897,211.200 145.800 C 211.200 145.703,210.750 144.628,210.200 143.412 C 209.650 142.195,208.750 140.205,208.200 138.988 C 207.650 137.772,207.200 136.696,207.200 136.598 C 207.200 136.500,206.660 135.241,206.000 133.800 C 205.340 132.359,204.800 131.100,204.800 131.002 C 204.800 130.904,204.350 129.828,203.800 128.612 C 203.250 127.395,202.350 125.405,201.800 124.188 C 201.250 122.972,200.800 121.897,200.800 121.800 C 200.800 121.703,200.350 120.628,199.800 119.412 C 199.250 118.195,198.350 116.205,197.800 114.988 C 197.250 113.772,196.800 112.692,196.800 112.590 C 196.800 112.487,196.176 111.053,195.413 109.402 L 194.027 106.400 164.293 106.400 C 141.701 106.400,134.445 106.515,134.080 106.880 " stroke="none" fill="#fbfbfb" fill-rule="evenodd"></path><path id="path1" d="M0.000 200.000 L 0.000 400.000 200.000 400.000 L 400.000 400.000 400.000 200.000 L 400.000 0.000 200.000 0.000 L 0.000 0.000 0.000 200.000 M195.413 109.402 C 196.176 111.053,196.800 112.487,196.800 112.590 C 196.800 112.692,197.250 113.772,197.800 114.988 C 198.350 116.205,199.250 118.195,199.800 119.412 C 200.350 120.628,200.800 121.703,200.800 121.800 C 200.800 121.897,201.250 122.972,201.800 124.188 C 202.350 125.405,203.250 127.395,203.800 128.612 C 204.350 129.828,204.800 130.904,204.800 131.002 C 204.800 131.100,205.340 132.359,206.000 133.800 C 206.660 135.241,207.200 136.500,207.200 136.598 C 207.200 136.696,207.650 137.772,208.200 138.988 C 208.750 140.205,209.650 142.195,210.200 143.412 C 210.750 144.628,211.200 145.703,211.200 145.800 C 211.200 145.897,211.650 146.972,212.200 148.188 C 212.750 149.405,213.650 151.395,214.200 152.612 C 214.750 153.828,215.200 154.903,215.200 155.000 C 215.200 155.097,215.650 156.172,216.200 157.388 C 216.750 158.605,217.650 160.595,218.200 161.812 C 218.750 163.028,219.200 164.103,219.200 164.200 C 219.200 164.297,219.650 165.372,220.200 166.588 C 220.750 167.805,221.650 169.795,222.200 171.012 C 222.750 172.228,223.200 173.304,223.200 173.402 C 223.200 173.500,223.740 174.759,224.400 176.200 C 225.060 177.641,225.600 178.900,225.600 178.998 C 225.600 179.096,226.030 180.127,226.555 181.288 C 227.953 184.379,228.946 186.628,230.399 190.000 C 231.111 191.650,232.122 193.950,232.646 195.112 C 233.171 196.273,233.600 197.303,233.600 197.400 C 233.600 197.497,234.050 198.572,234.600 199.788 C 235.150 201.005,236.050 202.995,236.600 204.212 C 237.150 205.428,237.600 206.503,237.600 206.600 C 237.600 206.697,238.050 207.772,238.600 208.988 C 239.150 210.205,240.050 212.195,240.600 213.412 C 241.150 214.628,241.600 215.704,241.600 215.802 C 241.600 215.900,242.115 217.109,242.744 218.490 C 243.373 219.870,244.131 221.681,244.429 222.513 C 245.103 224.397,246.085 224.340,246.450 222.396 C 246.749 220.805,247.510 217.313,248.040 215.100 C 248.238 214.275,248.562 212.925,248.760 212.100 C 248.957 211.275,249.336 209.610,249.600 208.400 C 250.091 206.153,250.570 204.091,251.179 201.600 C 251.530 200.165,251.957 198.269,252.801 194.400 C 253.065 193.190,253.443 191.525,253.640 190.700 C 253.838 189.875,254.162 188.525,254.360 187.700 C 254.557 186.875,254.936 185.210,255.200 184.000 C 255.686 181.777,256.154 179.758,256.778 177.200 C 256.966 176.430,257.336 174.810,257.600 173.600 C 258.086 171.377,258.554 169.358,259.178 166.800 C 259.366 166.030,259.736 164.410,260.000 163.200 C 260.264 161.990,260.652 160.280,260.862 159.400 C 261.072 158.520,261.404 157.080,261.600 156.200 C 261.796 155.320,262.128 153.880,262.338 153.000 C 262.548 152.120,262.936 150.410,263.200 149.200 C 263.464 147.990,263.834 146.370,264.022 145.600 C 264.646 143.042,265.114 141.023,265.600 138.800 C 266.091 136.553,266.570 134.491,267.179 132.000 C 267.530 130.565,267.957 128.669,268.801 124.800 C 269.065 123.590,269.443 121.925,269.640 121.100 C 269.838 120.275,270.162 118.925,270.360 118.100 C 270.557 117.275,270.936 115.610,271.200 114.400 C 271.464 113.190,271.833 111.570,272.019 110.800 C 272.205 110.030,272.510 108.770,272.695 108.000 L 273.033 106.600 297.716 106.497 C 318.298 106.411,322.400 106.484,322.400 106.937 C 322.400 107.236,322.239 108.002,322.043 108.640 C 321.847 109.278,321.468 110.880,321.200 112.200 C 320.933 113.520,320.576 115.050,320.407 115.600 C 320.238 116.150,319.888 117.590,319.630 118.800 C 318.995 121.779,318.420 124.317,318.000 126.000 C 317.808 126.770,317.469 128.210,317.247 129.200 C 317.025 130.190,316.464 132.620,316.000 134.600 C 315.536 136.580,314.975 139.010,314.753 140.000 C 314.531 140.990,314.192 142.430,314.000 143.200 C 313.808 143.970,313.459 145.455,313.225 146.500 C 312.991 147.545,312.609 149.255,312.375 150.300 C 312.141 151.345,311.792 152.830,311.600 153.600 C 311.243 155.030,310.655 157.590,309.947 160.800 C 309.728 161.790,309.392 163.230,309.200 164.000 C 309.008 164.770,308.659 166.255,308.425 167.300 C 308.191 168.345,307.809 170.055,307.575 171.100 C 307.341 172.145,306.992 173.630,306.800 174.400 C 306.443 175.830,305.855 178.390,305.147 181.600 C 304.928 182.590,304.592 184.030,304.400 184.800 C 304.208 185.570,303.859 187.055,303.625 188.100 C 303.391 189.145,303.009 190.855,302.775 191.900 C 302.541 192.945,302.192 194.430,302.000 195.200 C 301.808 195.970,301.459 197.455,301.225 198.500 C 300.991 199.545,300.609 201.255,300.375 202.300 C 300.141 203.345,299.792 204.830,299.600 205.600 C 299.408 206.370,299.072 207.810,298.853 208.800 C 298.145 212.010,297.557 214.570,297.200 216.000 C 297.008 216.770,296.669 218.210,296.447 219.200 C 296.225 220.190,295.664 222.620,295.200 224.600 C 294.736 226.580,294.175 229.010,293.953 230.000 C 293.731 230.990,293.392 232.430,293.200 233.200 C 293.008 233.970,292.659 235.455,292.425 236.500 C 292.191 237.545,291.809 239.255,291.575 240.300 C 291.341 241.345,290.992 242.830,290.800 243.600 C 290.608 244.370,290.259 245.855,290.025 246.900 C 289.791 247.945,289.409 249.655,289.175 250.700 C 288.941 251.745,288.592 253.230,288.400 254.000 C 288.208 254.770,287.859 256.255,287.625 257.300 C 287.391 258.345,287.009 260.055,286.775 261.100 C 286.541 262.145,286.192 263.630,286.000 264.400 C 285.808 265.170,285.472 266.610,285.253 267.600 C 284.545 270.810,283.957 273.370,283.600 274.800 C 283.243 276.230,282.655 278.790,281.947 282.000 C 281.728 282.990,281.392 284.430,281.200 285.200 C 281.008 285.970,280.659 287.455,280.425 288.500 C 280.191 289.545,279.809 291.255,279.575 292.300 C 279.341 293.345,278.992 294.830,278.800 295.600 C 278.380 297.283,277.805 299.821,277.170 302.800 C 276.912 304.010,276.562 305.450,276.393 306.000 C 276.224 306.550,275.867 308.080,275.599 309.400 C 275.332 310.720,275.048 312.025,274.969 312.300 C 274.856 312.692,269.915 312.800,251.990 312.800 L 229.155 312.800 228.329 310.900 C 227.875 309.855,227.075 308.050,226.551 306.888 C 226.028 305.727,225.600 304.690,225.600 304.584 C 225.600 304.478,225.240 303.583,224.800 302.596 C 224.360 301.608,223.640 299.992,223.200 299.004 C 222.760 298.017,222.400 297.121,222.400 297.014 C 222.400 296.907,221.860 295.641,221.200 294.200 C 220.540 292.759,220.000 291.500,220.000 291.402 C 220.000 291.304,219.564 290.270,219.031 289.105 C 218.498 287.940,217.674 286.002,217.200 284.800 C 216.726 283.598,215.902 281.660,215.369 280.495 C 214.836 279.330,214.400 278.290,214.400 278.184 C 214.400 278.078,214.040 277.183,213.600 276.196 C 213.160 275.208,212.440 273.592,212.000 272.604 C 211.560 271.617,211.200 270.721,211.200 270.614 C 211.200 270.507,210.660 269.241,210.000 267.800 C 209.340 266.359,208.800 265.100,208.800 265.002 C 208.800 264.904,208.364 263.870,207.831 262.705 C 207.298 261.540,206.474 259.602,206.000 258.400 C 205.526 257.198,204.702 255.260,204.169 254.095 C 203.636 252.930,203.200 251.890,203.200 251.784 C 203.200 251.602,202.855 250.799,200.847 246.304 C 200.381 245.262,200.000 244.321,200.000 244.214 C 200.000 244.107,199.460 242.841,198.800 241.400 C 198.140 239.959,197.600 238.693,197.600 238.586 C 197.600 238.479,197.240 237.583,196.800 236.596 C 196.360 235.608,195.640 233.992,195.200 233.004 C 194.760 232.017,194.400 231.122,194.400 231.016 C 194.400 230.910,193.964 229.870,193.431 228.705 C 192.898 227.540,192.074 225.602,191.600 224.400 C 191.126 223.198,190.302 221.260,189.769 220.095 C 189.236 218.930,188.800 217.896,188.800 217.798 C 188.800 217.700,188.260 216.441,187.600 215.000 C 186.940 213.559,186.400 212.293,186.400 212.186 C 186.400 212.079,186.040 211.183,185.600 210.196 C 185.160 209.208,184.440 207.592,184.000 206.604 C 183.560 205.617,183.200 204.715,183.200 204.600 C 183.200 204.485,182.840 203.583,182.400 202.596 C 181.960 201.608,181.240 199.992,180.800 199.004 C 180.360 198.017,180.000 197.121,180.000 197.014 C 180.000 196.907,179.460 195.641,178.800 194.200 C 178.140 192.759,177.600 191.500,177.600 191.402 C 177.600 191.304,177.164 190.270,176.631 189.105 C 176.098 187.940,175.274 186.002,174.800 184.800 C 174.326 183.598,173.502 181.660,172.969 180.495 C 172.436 179.330,172.000 178.290,172.000 178.184 C 172.000 178.078,171.619 177.138,171.153 176.096 C 170.688 175.053,170.044 173.604,169.723 172.876 C 169.004 171.245,168.224 171.676,167.860 173.906 C 167.726 174.728,167.441 176.120,167.227 177.000 C 166.553 179.765,166.097 181.727,165.600 184.000 C 165.336 185.210,164.957 186.875,164.760 187.700 C 164.562 188.525,164.238 189.875,164.040 190.700 C 163.843 191.525,163.464 193.190,163.200 194.400 C 162.936 195.610,162.566 197.230,162.378 198.000 C 161.754 200.558,161.286 202.577,160.800 204.800 C 160.314 207.023,159.846 209.042,159.222 211.600 C 159.034 212.370,158.664 213.990,158.400 215.200 C 158.136 216.410,157.757 218.075,157.560 218.900 C 157.362 219.725,157.038 221.075,156.840 221.900 C 156.643 222.725,156.264 224.390,156.000 225.600 C 155.736 226.810,155.357 228.475,155.160 229.300 C 154.962 230.125,154.638 231.475,154.440 232.300 C 154.243 233.125,153.864 234.790,153.600 236.000 C 153.114 238.223,152.646 240.242,152.022 242.800 C 151.834 243.570,151.464 245.190,151.200 246.400 C 150.936 247.610,150.566 249.230,150.378 250.000 C 149.754 252.558,149.286 254.577,148.800 256.800 C 148.536 258.010,148.157 259.675,147.960 260.500 C 147.762 261.325,147.438 262.675,147.240 263.500 C 147.043 264.325,146.664 265.990,146.400 267.200 C 146.136 268.410,145.757 270.075,145.560 270.900 C 145.362 271.725,145.038 273.075,144.840 273.900 C 144.643 274.725,144.264 276.390,144.000 277.600 C 143.736 278.810,143.357 280.475,143.160 281.300 C 142.962 282.125,142.638 283.475,142.440 284.300 C 142.243 285.125,141.864 286.790,141.600 288.000 C 141.336 289.210,140.957 290.875,140.760 291.700 C 140.562 292.525,140.238 293.875,140.040 294.700 C 139.843 295.525,139.464 297.190,139.200 298.400 C 138.714 300.623,138.246 302.642,137.622 305.200 C 137.434 305.970,137.095 307.500,136.869 308.600 C 136.643 309.700,136.269 311.095,136.039 311.700 L 135.620 312.800 111.234 312.800 C 97.821 312.800,86.754 312.650,86.641 312.466 C 86.527 312.282,86.622 311.427,86.851 310.566 C 87.544 307.960,88.157 305.369,89.253 300.400 C 89.472 299.410,89.808 297.970,90.000 297.200 C 90.192 296.430,90.541 294.945,90.775 293.900 C 91.009 292.855,91.391 291.145,91.625 290.100 C 91.859 289.055,92.208 287.570,92.400 286.800 C 92.757 285.370,93.345 282.810,94.053 279.600 C 94.272 278.610,94.608 277.170,94.800 276.400 C 95.157 274.970,95.745 272.410,96.453 269.200 C 96.672 268.210,97.008 266.770,97.200 266.000 C 97.392 265.230,97.728 263.790,97.947 262.800 C 98.655 259.590,99.243 257.030,99.600 255.600 C 99.792 254.830,100.131 253.390,100.353 252.400 C 100.575 251.410,101.136 248.980,101.600 247.000 C 102.064 245.020,102.625 242.590,102.847 241.600 C 103.069 240.610,103.419 239.170,103.624 238.400 C 103.830 237.630,104.043 236.460,104.099 235.800 L 104.200 234.600 82.900 234.496 L 61.600 234.393 61.600 226.000 L 61.600 217.606 85.093 217.503 L 108.587 217.400 108.849 216.000 C 109.148 214.406,109.909 210.918,110.440 208.700 C 110.638 207.875,110.962 206.525,111.160 205.700 C 111.357 204.875,111.736 203.210,112.000 202.000 C 112.264 200.790,112.643 199.125,112.840 198.300 C 113.038 197.475,113.362 196.125,113.560 195.300 C 113.757 194.475,114.136 192.810,114.400 191.600 C 114.664 190.390,115.034 188.770,115.222 188.000 C 115.846 185.442,116.314 183.423,116.800 181.200 C 117.064 179.990,117.434 178.370,117.621 177.600 C 117.808 176.830,118.137 175.382,118.353 174.382 C 118.569 173.383,118.802 172.303,118.873 171.982 C 118.983 171.478,115.232 171.386,90.700 171.297 L 62.400 171.195 62.400 162.797 L 62.400 154.400 92.717 154.400 L 123.035 154.400 123.552 151.900 C 123.837 150.525,124.211 148.950,124.385 148.400 C 124.559 147.850,124.912 146.410,125.170 145.200 C 125.805 142.221,126.380 139.683,126.800 138.000 C 126.992 137.230,127.341 135.745,127.575 134.700 C 127.809 133.655,128.191 131.945,128.425 130.900 C 128.659 129.855,129.008 128.370,129.200 127.600 C 129.620 125.917,130.195 123.379,130.830 120.400 C 131.088 119.190,131.438 117.750,131.607 117.200 C 131.776 116.650,132.133 115.120,132.400 113.800 C 132.668 112.480,133.047 110.878,133.243 110.240 C 133.439 109.602,133.600 108.693,133.600 108.220 C 133.600 106.358,132.899 106.400,164.293 106.400 L 194.027 106.400 195.413 109.402 " stroke="none" fill="#040404" fill-rule="evenodd"></path></g></svg>