<?xml version="1.0" encoding="UTF-8"?>
<svg xmlns="http://www.w3.org/2000/svg" xmlns:xlink="http://www.w3.org/1999/xlink" width="256px" height="256px" viewBox="0 0 256 256" version="1.1">
<g id="surface1">
<path style=" stroke:none;fill-rule:evenodd;fill:rgb(98.431373%,98.431373%,98.431373%);fill-opacity:1;" d="M 85.8125 68.402344 C 85.640625 68.570312 85.503906 68.957031 85.503906 69.261719 C 85.503906 69.5625 85.402344 70.144531 85.277344 70.554688 C 85.148438 70.960938 84.90625 71.988281 84.734375 72.832031 C 84.566406 73.675781 84.335938 74.65625 84.226562 75.007812 C 84.121094 75.359375 83.894531 76.28125 83.730469 77.054688 C 83.324219 78.960938 82.957031 80.585938 82.6875 81.664062 C 82.566406 82.15625 82.339844 83.105469 82.191406 83.777344 C 82.042969 84.445312 81.796875 85.539062 81.648438 86.207031 C 81.5 86.875 81.273438 87.828125 81.152344 88.320312 C 80.882812 89.398438 80.515625 91.019531 80.109375 92.929688 C 79.945312 93.703125 79.71875 94.625 79.605469 94.976562 C 79.496094 95.328125 79.253906 96.335938 79.074219 97.214844 L 78.742188 98.816406 L 39.9375 98.816406 L 39.9375 109.566406 L 58.046875 109.628906 C 73.75 109.6875 76.148438 109.746094 76.078125 110.070312 C 76.035156 110.273438 75.882812 110.964844 75.746094 111.605469 C 75.609375 112.246094 75.398438 113.171875 75.277344 113.664062 C 75.15625 114.15625 74.921875 115.195312 74.753906 115.96875 C 74.441406 117.390625 74.140625 118.683594 73.742188 120.320312 C 73.621094 120.8125 73.386719 121.847656 73.214844 122.625 C 73.046875 123.398438 72.804688 124.464844 72.679688 124.992188 C 72.550781 125.519531 72.34375 126.382812 72.21875 126.910156 C 72.089844 127.441406 71.847656 128.503906 71.679688 129.28125 C 71.511719 130.054688 71.269531 131.121094 71.140625 131.648438 C 71.015625 132.175781 70.808594 133.039062 70.679688 133.566406 C 70.339844 134.988281 69.855469 137.21875 69.664062 138.238281 L 69.496094 139.136719 L 39.425781 139.269531 L 39.425781 150.011719 L 53.054688 150.078125 L 66.6875 150.144531 L 66.625 150.910156 C 66.585938 151.335938 66.453125 152.082031 66.320312 152.574219 C 66.1875 153.070312 65.964844 153.992188 65.820312 154.625 C 65.679688 155.257812 65.320312 156.8125 65.023438 158.078125 C 64.726562 159.347656 64.367188 160.902344 64.226562 161.535156 C 64.082031 162.167969 63.867188 163.089844 63.742188 163.585938 C 63.515625 164.5 63.140625 166.136719 62.6875 168.191406 C 62.546875 168.824219 62.332031 169.746094 62.207031 170.238281 C 62.085938 170.734375 61.871094 171.65625 61.730469 172.289062 C 61.277344 174.34375 60.902344 175.980469 60.671875 176.894531 C 60.550781 177.390625 60.335938 178.308594 60.195312 178.945312 C 59.742188 181 59.363281 182.636719 59.136719 183.550781 C 59.011719 184.042969 58.789062 184.996094 58.640625 185.664062 C 58.492188 186.332031 58.246094 187.425781 58.097656 188.097656 C 57.945312 188.765625 57.722656 189.714844 57.601562 190.207031 C 57.476562 190.699219 57.261719 191.621094 57.121094 192.257812 C 56.421875 195.4375 56.027344 197.09375 55.585938 198.761719 C 55.4375 199.3125 55.378906 199.859375 55.449219 199.976562 C 55.523438 200.097656 62.605469 200.191406 71.191406 200.191406 L 86.796875 200.191406 L 87.066406 199.488281 C 87.210938 199.101562 87.453125 198.207031 87.597656 197.503906 C 87.742188 196.800781 87.957031 195.820312 88.078125 195.328125 C 88.476562 193.691406 88.777344 192.398438 89.089844 190.976562 C 89.257812 190.203125 89.5 189.136719 89.625 188.609375 C 89.753906 188.078125 89.960938 187.214844 90.085938 186.6875 C 90.210938 186.160156 90.453125 185.09375 90.625 184.320312 C 90.792969 183.546875 91.035156 182.480469 91.160156 181.953125 C 91.289062 181.425781 91.496094 180.558594 91.621094 180.03125 C 91.75 179.503906 91.992188 178.4375 92.160156 177.664062 C 92.328125 176.890625 92.570312 175.824219 92.699219 175.296875 C 92.824219 174.769531 93.03125 173.902344 93.160156 173.375 C 93.285156 172.847656 93.527344 171.78125 93.695312 171.007812 C 93.863281 170.234375 94.109375 169.167969 94.234375 168.640625 C 94.359375 168.113281 94.566406 167.246094 94.695312 166.71875 C 94.820312 166.191406 95.0625 165.125 95.230469 164.351562 C 95.542969 162.929688 95.84375 161.636719 96.242188 160 C 96.363281 159.507812 96.597656 158.46875 96.769531 157.695312 C 96.9375 156.921875 97.171875 155.886719 97.292969 155.390625 C 97.695312 153.753906 97.992188 152.460938 98.304688 151.039062 C 98.472656 150.265625 98.714844 149.199219 98.839844 148.671875 C 98.96875 148.144531 99.175781 147.28125 99.300781 146.753906 C 99.429688 146.222656 99.671875 145.160156 99.839844 144.382812 C 100.007812 143.609375 100.25 142.542969 100.378906 142.015625 C 100.503906 141.488281 100.710938 140.625 100.839844 140.097656 C 100.964844 139.566406 101.207031 138.503906 101.375 137.726562 C 101.546875 136.953125 101.78125 135.917969 101.902344 135.425781 C 102.300781 133.785156 102.601562 132.496094 102.910156 131.070312 C 103.222656 129.648438 103.523438 128.355469 103.921875 126.71875 C 104.042969 126.226562 104.277344 125.191406 104.449219 124.414062 C 104.617188 123.640625 104.859375 122.574219 104.984375 122.046875 C 105.113281 121.519531 105.320312 120.65625 105.445312 120.128906 C 105.574219 119.601562 105.816406 118.535156 105.984375 117.761719 C 106.300781 116.304688 106.59375 115.050781 107.023438 113.28125 C 107.164062 112.71875 107.34375 111.824219 107.429688 111.300781 C 107.664062 109.871094 108.164062 109.597656 108.621094 110.640625 C 108.828125 111.105469 109.242188 112.035156 109.539062 112.703125 C 109.835938 113.367188 110.078125 113.96875 110.078125 114.039062 C 110.078125 114.105469 110.359375 114.769531 110.699219 115.515625 C 111.042969 116.261719 111.570312 117.503906 111.871094 118.273438 C 112.175781 119.042969 112.703125 120.28125 113.042969 121.027344 C 113.386719 121.773438 113.664062 122.433594 113.664062 122.496094 C 113.664062 122.558594 114.007812 123.367188 114.433594 124.289062 C 114.855469 125.210938 115.199219 126.019531 115.199219 126.089844 C 115.199219 126.15625 115.429688 126.730469 115.710938 127.363281 C 115.992188 127.996094 116.453125 129.027344 116.734375 129.660156 C 117.019531 130.292969 117.246094 130.871094 117.246094 130.945312 C 117.246094 131.019531 117.476562 131.59375 117.761719 132.226562 C 118.042969 132.859375 118.503906 133.894531 118.785156 134.527344 C 119.066406 135.15625 119.296875 135.730469 119.296875 135.800781 C 119.296875 135.867188 119.640625 136.679688 120.0625 137.601562 C 120.488281 138.523438 120.832031 139.328125 120.832031 139.390625 C 120.832031 139.453125 121.109375 140.113281 121.453125 140.859375 C 121.792969 141.605469 122.320312 142.847656 122.625 143.617188 C 122.925781 144.386719 123.453125 145.625 123.796875 146.371094 C 124.136719 147.117188 124.414062 147.78125 124.414062 147.851562 C 124.414062 147.917969 124.644531 148.492188 124.929688 149.121094 C 125.210938 149.753906 125.671875 150.789062 125.953125 151.421875 C 126.234375 152.054688 126.464844 152.625 126.464844 152.695312 C 126.464844 152.761719 126.808594 153.574219 127.230469 154.496094 C 127.65625 155.417969 128 156.226562 128 156.296875 C 128 156.367188 128.242188 156.96875 128.542969 157.632812 C 129.828125 160.511719 130.046875 161.023438 130.046875 161.140625 C 130.046875 161.210938 130.328125 161.875 130.667969 162.621094 C 131.007812 163.367188 131.535156 164.605469 131.839844 165.375 C 132.144531 166.144531 132.671875 167.386719 133.011719 168.132812 C 133.351562 168.875 133.632812 169.539062 133.632812 169.601562 C 133.632812 169.664062 133.976562 170.46875 134.398438 171.390625 C 134.824219 172.3125 135.167969 173.125 135.167969 173.191406 C 135.167969 173.261719 135.398438 173.835938 135.679688 174.464844 C 135.960938 175.097656 136.421875 176.132812 136.703125 176.765625 C 136.984375 177.398438 137.214844 177.96875 137.214844 178.039062 C 137.214844 178.105469 137.496094 178.769531 137.835938 179.515625 C 138.175781 180.261719 138.703125 181.503906 139.007812 182.273438 C 139.3125 183.042969 139.839844 184.28125 140.179688 185.027344 C 140.519531 185.773438 140.800781 186.433594 140.800781 186.496094 C 140.800781 186.558594 141.144531 187.367188 141.566406 188.289062 C 141.992188 189.210938 142.335938 190.019531 142.335938 190.089844 C 142.335938 190.15625 142.566406 190.730469 142.847656 191.363281 C 143.128906 191.996094 143.589844 193.027344 143.871094 193.660156 C 144.152344 194.292969 144.382812 194.867188 144.382812 194.933594 C 144.382812 195 144.65625 195.664062 144.992188 196.410156 C 145.328125 197.152344 145.839844 198.308594 146.128906 198.976562 L 146.660156 200.191406 L 161.273438 200.191406 C 172.746094 200.191406 175.90625 200.121094 175.980469 199.871094 C 176.03125 199.695312 176.210938 198.859375 176.382812 198.015625 C 176.554688 197.171875 176.785156 196.191406 176.890625 195.839844 C 177 195.488281 177.222656 194.566406 177.390625 193.792969 C 177.796875 191.886719 178.164062 190.261719 178.433594 189.183594 C 178.554688 188.691406 178.777344 187.742188 178.929688 187.070312 C 179.078125 186.402344 179.320312 185.308594 179.472656 184.640625 C 179.621094 183.972656 179.84375 183.019531 179.96875 182.527344 C 180.089844 182.035156 180.304688 181.113281 180.445312 180.480469 C 180.898438 178.425781 181.277344 176.789062 181.503906 175.871094 C 181.734375 174.957031 182.109375 173.320312 182.5625 171.265625 C 182.703125 170.628906 182.917969 169.707031 183.039062 169.214844 C 183.164062 168.722656 183.386719 167.773438 183.535156 167.105469 C 183.6875 166.433594 183.929688 165.339844 184.078125 164.671875 C 184.230469 164.003906 184.453125 163.054688 184.574219 162.558594 C 184.699219 162.066406 184.921875 161.117188 185.070312 160.449219 C 185.222656 159.777344 185.464844 158.683594 185.617188 158.015625 C 185.765625 157.347656 185.988281 156.398438 186.113281 155.902344 C 186.234375 155.410156 186.457031 154.460938 186.609375 153.792969 C 186.757812 153.125 187.003906 152.027344 187.152344 151.359375 C 187.300781 150.691406 187.523438 149.742188 187.648438 149.246094 C 187.769531 148.753906 187.988281 147.832031 188.128906 147.199219 C 188.273438 146.566406 188.632812 145.011719 188.929688 143.742188 C 189.226562 142.476562 189.585938 140.921875 189.726562 140.289062 C 189.867188 139.65625 190.085938 138.734375 190.207031 138.238281 C 190.4375 137.324219 190.8125 135.6875 191.265625 133.632812 C 191.40625 133 191.621094 132.078125 191.742188 131.585938 C 191.867188 131.089844 192.089844 130.140625 192.238281 129.472656 C 192.390625 128.804688 192.632812 127.707031 192.785156 127.039062 C 192.933594 126.371094 193.15625 125.421875 193.28125 124.929688 C 193.402344 124.433594 193.625 123.484375 193.777344 122.816406 C 193.925781 122.148438 194.171875 121.054688 194.320312 120.382812 C 194.46875 119.714844 194.691406 118.765625 194.816406 118.273438 C 194.9375 117.777344 195.152344 116.859375 195.292969 116.222656 C 195.746094 114.167969 196.125 112.53125 196.351562 111.617188 C 196.476562 111.125 196.699219 110.171875 196.847656 109.503906 C 196.996094 108.835938 197.242188 107.742188 197.390625 107.070312 C 197.542969 106.402344 197.765625 105.453125 197.886719 104.960938 C 198.011719 104.46875 198.226562 103.546875 198.367188 102.910156 C 198.820312 100.859375 199.195312 99.21875 199.425781 98.304688 C 199.546875 97.8125 199.769531 96.859375 199.921875 96.191406 C 200.070312 95.523438 200.3125 94.429688 200.464844 93.761719 C 200.613281 93.089844 200.835938 92.140625 200.960938 91.648438 C 201.082031 91.15625 201.300781 90.234375 201.441406 89.601562 C 201.585938 88.964844 201.941406 87.410156 202.238281 86.144531 C 202.535156 84.875 202.894531 83.320312 203.039062 82.6875 C 203.179688 82.054688 203.398438 81.132812 203.519531 80.640625 C 203.789062 79.5625 204.15625 77.9375 204.5625 76.03125 C 204.726562 75.257812 204.953125 74.335938 205.058594 73.984375 C 205.167969 73.632812 205.398438 72.652344 205.566406 71.808594 C 205.738281 70.964844 205.980469 69.9375 206.109375 69.53125 C 206.234375 69.121094 206.335938 68.632812 206.335938 68.441406 C 206.335938 68.148438 203.710938 68.101562 190.539062 68.15625 L 174.742188 68.222656 L 174.523438 69.121094 C 174.40625 69.613281 174.210938 70.417969 174.09375 70.910156 C 173.972656 71.40625 173.738281 72.441406 173.566406 73.214844 C 173.398438 73.992188 173.15625 75.054688 173.03125 75.585938 C 172.902344 76.113281 172.695312 76.976562 172.570312 77.503906 C 172.445312 78.03125 172.203125 79.097656 172.03125 79.871094 C 171.492188 82.347656 171.21875 83.5625 170.996094 84.480469 C 170.605469 86.074219 170.296875 87.394531 169.984375 88.832031 C 169.671875 90.253906 169.375 91.546875 168.972656 93.183594 C 168.855469 93.675781 168.617188 94.714844 168.449219 95.488281 C 168.277344 96.261719 168.03125 97.355469 167.894531 97.921875 C 167.761719 98.484375 167.550781 99.40625 167.425781 99.96875 C 167.296875 100.53125 167.085938 101.453125 166.953125 102.015625 C 166.816406 102.578125 166.570312 103.671875 166.398438 104.449219 C 166.230469 105.222656 165.996094 106.257812 165.875 106.753906 C 165.472656 108.390625 165.175781 109.679688 164.863281 111.105469 C 164.695312 111.878906 164.457031 112.914062 164.339844 113.40625 C 163.9375 115.046875 163.640625 116.335938 163.328125 117.761719 C 163.160156 118.535156 162.917969 119.601562 162.789062 120.128906 C 162.664062 120.65625 162.457031 121.519531 162.328125 122.046875 C 162.203125 122.574219 161.960938 123.640625 161.792969 124.414062 C 161.253906 126.890625 160.980469 128.105469 160.753906 129.023438 C 160.363281 130.617188 160.058594 131.9375 159.742188 133.375 C 159.574219 134.152344 159.332031 135.214844 159.207031 135.742188 C 159.078125 136.273438 158.871094 137.136719 158.746094 137.664062 C 158.40625 139.082031 157.917969 141.316406 157.726562 142.332031 C 157.496094 143.578125 156.867188 143.613281 156.433594 142.410156 C 156.242188 141.875 155.757812 140.71875 155.355469 139.832031 C 154.953125 138.949219 154.625 138.175781 154.625 138.113281 C 154.625 138.050781 154.335938 137.363281 153.984375 136.582031 C 153.632812 135.804688 153.054688 134.53125 152.703125 133.753906 C 152.351562 132.972656 152.0625 132.285156 152.0625 132.222656 C 152.0625 132.160156 151.777344 131.472656 151.425781 130.695312 C 151.070312 129.917969 150.496094 128.644531 150.144531 127.863281 C 149.792969 127.085938 149.503906 126.398438 149.503906 126.335938 C 149.503906 126.273438 149.230469 125.613281 148.894531 124.871094 C 148.558594 124.128906 147.910156 122.65625 147.457031 121.601562 C 146.527344 119.441406 145.890625 118.003906 144.996094 116.023438 C 144.660156 115.28125 144.382812 114.621094 144.382812 114.558594 C 144.382812 114.496094 144.039062 113.691406 143.617188 112.769531 C 143.195312 111.847656 142.847656 111.039062 142.847656 110.976562 C 142.847656 110.914062 142.558594 110.226562 142.207031 109.449219 C 141.855469 108.667969 141.28125 107.394531 140.929688 106.617188 C 140.574219 105.839844 140.289062 105.148438 140.289062 105.089844 C 140.289062 105.027344 140 104.339844 139.648438 103.558594 C 139.296875 102.78125 138.71875 101.507812 138.367188 100.726562 C 138.015625 99.949219 137.726562 99.261719 137.726562 99.199219 C 137.726562 99.136719 137.441406 98.449219 137.089844 97.671875 C 136.734375 96.894531 136.160156 95.621094 135.808594 94.839844 C 135.457031 94.0625 135.167969 93.375 135.167969 93.3125 C 135.167969 93.25 134.878906 92.5625 134.527344 91.785156 C 134.175781 91.003906 133.601562 89.730469 133.246094 88.953125 C 132.894531 88.175781 132.609375 87.484375 132.609375 87.421875 C 132.609375 87.359375 132.261719 86.554688 131.839844 85.632812 C 131.417969 84.710938 131.070312 83.902344 131.070312 83.839844 C 131.070312 83.777344 130.785156 83.089844 130.433594 82.3125 C 130.078125 81.53125 129.503906 80.257812 129.152344 79.480469 C 128.800781 78.703125 128.511719 78.015625 128.511719 77.953125 C 128.511719 77.890625 128.222656 77.203125 127.871094 76.421875 C 127.519531 75.644531 126.945312 74.371094 126.59375 73.59375 C 126.238281 72.8125 125.953125 72.121094 125.953125 72.058594 C 125.953125 71.992188 125.550781 71.074219 125.0625 70.015625 L 124.175781 68.097656 L 105.148438 68.097656 C 90.6875 68.097656 86.042969 68.167969 85.8125 68.402344 "/>
<path style=" stroke:none;fill-rule:evenodd;fill:rgb(1.568627%,1.568627%,1.568627%);fill-opacity:1;" d="M 0 128 L 0 256 L 256 256 L 256 0 L 0 0 L 0 128 M 125.0625 70.015625 C 125.550781 71.074219 125.953125 71.992188 125.953125 72.058594 C 125.953125 72.121094 126.238281 72.8125 126.59375 73.59375 C 126.945312 74.371094 127.519531 75.644531 127.871094 76.421875 C 128.222656 77.203125 128.511719 77.890625 128.511719 77.953125 C 128.511719 78.015625 128.800781 78.703125 129.152344 79.480469 C 129.503906 80.257812 130.078125 81.53125 130.433594 82.3125 C 130.785156 83.089844 131.070312 83.777344 131.070312 83.839844 C 131.070312 83.902344 131.417969 84.710938 131.839844 85.632812 C 132.261719 86.554688 132.609375 87.359375 132.609375 87.421875 C 132.609375 87.484375 132.894531 88.175781 133.246094 88.953125 C 133.601562 89.730469 134.175781 91.003906 134.527344 91.785156 C 134.878906 92.5625 135.167969 93.25 135.167969 93.3125 C 135.167969 93.375 135.457031 94.0625 135.808594 94.839844 C 136.160156 95.621094 136.734375 96.894531 137.089844 97.671875 C 137.441406 98.449219 137.726562 99.136719 137.726562 99.199219 C 137.726562 99.261719 138.015625 99.949219 138.367188 100.726562 C 138.71875 101.507812 139.296875 102.78125 139.648438 103.558594 C 140 104.339844 140.289062 105.027344 140.289062 105.089844 C 140.289062 105.148438 140.574219 105.839844 140.929688 106.617188 C 141.28125 107.394531 141.855469 108.667969 142.207031 109.449219 C 142.558594 110.226562 142.847656 110.914062 142.847656 110.976562 C 142.847656 111.039062 143.195312 111.847656 143.617188 112.769531 C 144.039062 113.691406 144.382812 114.496094 144.382812 114.558594 C 144.382812 114.621094 144.660156 115.28125 144.996094 116.023438 C 145.890625 118.003906 146.527344 119.441406 147.457031 121.601562 C 147.910156 122.65625 148.558594 124.128906 148.894531 124.871094 C 149.230469 125.613281 149.503906 126.273438 149.503906 126.335938 C 149.503906 126.398438 149.792969 127.085938 150.144531 127.863281 C 150.496094 128.644531 151.070312 129.917969 151.425781 130.695312 C 151.777344 131.472656 152.0625 132.160156 152.0625 132.222656 C 152.0625 132.285156 152.351562 132.972656 152.703125 133.753906 C 153.054688 134.53125 153.632812 135.804688 153.984375 136.582031 C 154.335938 137.363281 154.625 138.050781 154.625 138.113281 C 154.625 138.175781 154.953125 138.949219 155.355469 139.832031 C 155.757812 140.71875 156.242188 141.875 156.433594 142.410156 C 156.867188 143.613281 157.496094 143.578125 157.726562 142.332031 C 157.917969 141.316406 158.40625 139.082031 158.746094 137.664062 C 158.871094 137.136719 159.078125 136.273438 159.207031 135.742188 C 159.332031 135.214844 159.574219 134.152344 159.742188 133.375 C 160.058594 131.9375 160.363281 130.617188 160.753906 129.023438 C 160.980469 128.105469 161.253906 126.890625 161.792969 124.414062 C 161.960938 123.640625 162.203125 122.574219 162.328125 122.046875 C 162.457031 121.519531 162.664062 120.65625 162.789062 120.128906 C 162.917969 119.601562 163.160156 118.535156 163.328125 117.761719 C 163.640625 116.335938 163.9375 115.046875 164.339844 113.40625 C 164.457031 112.914062 164.695312 111.878906 164.863281 111.105469 C 165.175781 109.679688 165.472656 108.390625 165.875 106.753906 C 165.996094 106.257812 166.230469 105.222656 166.398438 104.449219 C 166.570312 103.671875 166.816406 102.578125 166.953125 102.015625 C 167.085938 101.453125 167.296875 100.53125 167.425781 99.96875 C 167.550781 99.40625 167.761719 98.484375 167.894531 97.921875 C 168.03125 97.355469 168.277344 96.261719 168.449219 95.488281 C 168.617188 94.714844 168.855469 93.675781 168.972656 93.183594 C 169.375 91.546875 169.671875 90.253906 169.984375 88.832031 C 170.296875 87.394531 170.605469 86.074219 170.996094 84.480469 C 171.21875 83.5625 171.492188 82.347656 172.03125 79.871094 C 172.203125 79.097656 172.445312 78.03125 172.570312 77.503906 C 172.695312 76.976562 172.902344 76.113281 173.03125 75.585938 C 173.15625 75.054688 173.398438 73.992188 173.566406 73.214844 C 173.738281 72.441406 173.972656 71.40625 174.09375 70.910156 C 174.210938 70.417969 174.40625 69.613281 174.523438 69.121094 L 174.742188 68.222656 L 190.539062 68.15625 C 203.710938 68.101562 206.335938 68.148438 206.335938 68.441406 C 206.335938 68.632812 206.234375 69.121094 206.109375 69.53125 C 205.980469 69.9375 205.738281 70.964844 205.566406 71.808594 C 205.398438 72.652344 205.167969 73.632812 205.058594 73.984375 C 204.953125 74.335938 204.726562 75.257812 204.5625 76.03125 C 204.15625 77.9375 203.789062 79.5625 203.519531 80.640625 C 203.398438 81.132812 203.179688 82.054688 203.039062 82.6875 C 202.894531 83.320312 202.535156 84.875 202.238281 86.144531 C 201.941406 87.410156 201.585938 88.964844 201.441406 89.601562 C 201.300781 90.234375 201.082031 91.15625 200.960938 91.648438 C 200.835938 92.140625 200.613281 93.089844 200.464844 93.761719 C 200.3125 94.429688 200.070312 95.523438 199.921875 96.191406 C 199.769531 96.859375 199.546875 97.8125 199.425781 98.304688 C 199.195312 99.21875 198.820312 100.859375 198.367188 102.910156 C 198.226562 103.546875 198.011719 104.46875 197.886719 104.960938 C 197.765625 105.453125 197.542969 106.402344 197.390625 107.070312 C 197.242188 107.742188 196.996094 108.835938 196.847656 109.503906 C 196.699219 110.171875 196.476562 111.125 196.351562 111.617188 C 196.125 112.53125 195.746094 114.167969 195.292969 116.222656 C 195.152344 116.859375 194.9375 117.777344 194.816406 118.273438 C 194.691406 118.765625 194.46875 119.714844 194.320312 120.382812 C 194.171875 121.054688 193.925781 122.148438 193.777344 122.816406 C 193.625 123.484375 193.402344 124.433594 193.28125 124.929688 C 193.15625 125.421875 192.933594 126.371094 192.785156 127.039062 C 192.632812 127.707031 192.390625 128.804688 192.238281 129.472656 C 192.089844 130.140625 191.867188 131.089844 191.742188 131.585938 C 191.621094 132.078125 191.40625 133 191.265625 133.632812 C 190.8125 135.6875 190.4375 137.324219 190.207031 138.238281 C 190.085938 138.734375 189.867188 139.65625 189.726562 140.289062 C 189.585938 140.921875 189.226562 142.476562 188.929688 143.742188 C 188.632812 145.011719 188.273438 146.566406 188.128906 147.199219 C 187.988281 147.832031 187.769531 148.753906 187.648438 149.246094 C 187.523438 149.742188 187.300781 150.691406 187.152344 151.359375 C 187.003906 152.027344 186.757812 153.125 186.609375 153.792969 C 186.457031 154.460938 186.234375 155.410156 186.113281 155.902344 C 185.988281 156.398438 185.765625 157.347656 185.617188 158.015625 C 185.464844 158.683594 185.222656 159.777344 185.070312 160.449219 C 184.921875 161.117188 184.699219 162.066406 184.574219 162.558594 C 184.453125 163.054688 184.230469 164.003906 184.078125 164.671875 C 183.929688 165.339844 183.6875 166.433594 183.535156 167.105469 C 183.386719 167.773438 183.164062 168.722656 183.039062 169.214844 C 182.917969 169.707031 182.703125 170.628906 182.5625 171.265625 C 182.109375 173.320312 181.734375 174.957031 181.503906 175.871094 C 181.277344 176.789062 180.898438 178.425781 180.445312 180.480469 C 180.304688 181.113281 180.089844 182.035156 179.96875 182.527344 C 179.84375 183.019531 179.621094 183.972656 179.472656 184.640625 C 179.320312 185.308594 179.078125 186.402344 178.929688 187.070312 C 178.777344 187.742188 178.554688 188.691406 178.433594 189.183594 C 178.164062 190.261719 177.796875 191.886719 177.390625 193.792969 C 177.222656 194.566406 177 195.488281 176.890625 195.839844 C 176.785156 196.191406 176.554688 197.171875 176.382812 198.015625 C 176.210938 198.859375 176.03125 199.695312 175.980469 199.871094 C 175.90625 200.121094 172.746094 200.191406 161.273438 200.191406 L 146.660156 200.191406 L 146.128906 198.976562 C 145.839844 198.308594 145.328125 197.152344 144.992188 196.410156 C 144.65625 195.664062 144.382812 195 144.382812 194.933594 C 144.382812 194.867188 144.152344 194.292969 143.871094 193.660156 C 143.589844 193.027344 143.128906 191.996094 142.847656 191.363281 C 142.566406 190.730469 142.335938 190.15625 142.335938 190.089844 C 142.335938 190.019531 141.992188 189.210938 141.566406 188.289062 C 141.144531 187.367188 140.800781 186.558594 140.800781 186.496094 C 140.800781 186.433594 140.519531 185.773438 140.179688 185.027344 C 139.839844 184.28125 139.3125 183.042969 139.007812 182.273438 C 138.703125 181.503906 138.175781 180.261719 137.835938 179.515625 C 137.496094 178.769531 137.214844 178.105469 137.214844 178.039062 C 137.214844 177.96875 136.984375 177.398438 136.703125 176.765625 C 136.421875 176.132812 135.960938 175.097656 135.679688 174.464844 C 135.398438 173.835938 135.167969 173.261719 135.167969 173.191406 C 135.167969 173.125 134.824219 172.3125 134.398438 171.390625 C 133.976562 170.46875 133.632812 169.664062 133.632812 169.601562 C 133.632812 169.539062 133.351562 168.875 133.011719 168.132812 C 132.671875 167.386719 132.144531 166.144531 131.839844 165.375 C 131.535156 164.605469 131.007812 163.367188 130.667969 162.621094 C 130.328125 161.875 130.046875 161.210938 130.046875 161.140625 C 130.046875 161.023438 129.828125 160.511719 128.542969 157.632812 C 128.242188 156.96875 128 156.367188 128 156.296875 C 128 156.226562 127.65625 155.417969 127.230469 154.496094 C 126.808594 153.574219 126.464844 152.761719 126.464844 152.695312 C 126.464844 152.625 126.234375 152.054688 125.953125 151.421875 C 125.671875 150.789062 125.210938 149.753906 124.929688 149.121094 C 124.644531 148.492188 124.414062 147.917969 124.414062 147.851562 C 124.414062 147.78125 124.136719 147.117188 123.796875 146.371094 C 123.453125 145.625 122.925781 144.386719 122.625 143.617188 C 122.320312 142.847656 121.792969 141.605469 121.453125 140.859375 C 121.109375 140.113281 120.832031 139.453125 120.832031 139.390625 C 120.832031 139.328125 120.488281 138.523438 120.0625 137.601562 C 119.640625 136.679688 119.296875 135.867188 119.296875 135.800781 C 119.296875 135.730469 119.066406 135.15625 118.785156 134.527344 C 118.503906 133.894531 118.042969 132.859375 117.761719 132.226562 C 117.476562 131.59375 117.246094 131.019531 117.246094 130.945312 C 117.246094 130.871094 117.019531 130.292969 116.734375 129.660156 C 116.453125 129.027344 115.992188 127.996094 115.710938 127.363281 C 115.429688 126.730469 115.199219 126.15625 115.199219 126.089844 C 115.199219 126.019531 114.855469 125.210938 114.433594 124.289062 C 114.007812 123.367188 113.664062 122.558594 113.664062 122.496094 C 113.664062 122.433594 113.386719 121.773438 113.042969 121.027344 C 112.703125 120.28125 112.175781 119.042969 111.871094 118.273438 C 111.570312 117.503906 111.042969 116.261719 110.699219 115.515625 C 110.359375 114.769531 110.078125 114.105469 110.078125 114.039062 C 110.078125 113.96875 109.835938 113.367188 109.539062 112.703125 C 109.242188 112.035156 108.828125 111.105469 108.621094 110.640625 C 108.164062 109.597656 107.664062 109.871094 107.429688 111.300781 C 107.34375 111.824219 107.164062 112.71875 107.023438 113.28125 C 106.59375 115.050781 106.300781 116.304688 105.984375 117.761719 C 105.816406 118.535156 105.574219 119.601562 105.445312 120.128906 C 105.320312 120.65625 105.113281 121.519531 104.984375 122.046875 C 104.859375 122.574219 104.617188 123.640625 104.449219 124.414062 C 104.277344 125.191406 104.042969 126.226562 103.921875 126.71875 C 103.523438 128.355469 103.222656 129.648438 102.910156 131.070312 C 102.601562 132.496094 102.300781 133.785156 101.902344 135.425781 C 101.78125 135.917969 101.546875 136.953125 101.375 137.726562 C 101.207031 138.503906 100.964844 139.566406 100.839844 140.097656 C 100.710938 140.625 100.503906 141.488281 100.378906 142.015625 C 100.25 142.542969 100.007812 143.609375 99.839844 144.382812 C 99.671875 145.160156 99.429688 146.222656 99.300781 146.753906 C 99.175781 147.28125 98.96875 148.144531 98.839844 148.671875 C 98.714844 149.199219 98.472656 150.265625 98.304688 151.039062 C 97.992188 152.460938 97.695312 153.753906 97.292969 155.390625 C 97.171875 155.886719 96.9375 156.921875 96.769531 157.695312 C 96.597656 158.46875 96.363281 159.507812 96.242188 160 C 95.84375 161.636719 95.542969 162.929688 95.230469 164.351562 C 95.0625 165.125 94.820312 166.191406 94.695312 166.71875 C 94.566406 167.246094 94.359375 168.113281 94.234375 168.640625 C 94.109375 169.167969 93.863281 170.234375 93.695312 171.007812 C 93.527344 171.78125 93.285156 172.847656 93.160156 173.375 C 93.03125 173.902344 92.824219 174.769531 92.699219 175.296875 C 92.570312 175.824219 92.328125 176.890625 92.160156 177.664062 C 91.992188 178.4375 91.75 179.503906 91.621094 180.03125 C 91.496094 180.558594 91.289062 181.425781 91.160156 181.953125 C 91.035156 182.480469 90.792969 183.546875 90.625 184.320312 C 90.453125 185.09375 90.210938 186.160156 90.085938 186.6875 C 89.960938 187.214844 89.753906 188.078125 89.625 188.609375 C 89.5 189.136719 89.257812 190.203125 89.089844 190.976562 C 88.777344 192.398438 88.476562 193.691406 88.078125 195.328125 C 87.957031 195.820312 87.742188 196.800781 87.597656 197.503906 C 87.453125 198.207031 87.210938 199.101562 87.066406 199.488281 L 86.796875 200.191406 L 71.191406 200.191406 C 62.605469 200.191406 55.523438 200.097656 55.449219 199.976562 C 55.378906 199.859375 55.4375 199.3125 55.585938 198.761719 C 56.027344 197.09375 56.421875 195.4375 57.121094 192.257812 C 57.261719 191.621094 57.476562 190.699219 57.601562 190.207031 C 57.722656 189.714844 57.945312 188.765625 58.097656 188.097656 C 58.246094 187.425781 58.492188 186.332031 58.640625 185.664062 C 58.789062 184.996094 59.011719 184.042969 59.136719 183.550781 C 59.363281 182.636719 59.742188 181 60.195312 178.945312 C 60.335938 178.308594 60.550781 177.390625 60.671875 176.894531 C 60.902344 175.980469 61.277344 174.34375 61.730469 172.289062 C 61.871094 171.65625 62.085938 170.734375 62.207031 170.238281 C 62.332031 169.746094 62.546875 168.824219 62.6875 168.191406 C 63.140625 166.136719 63.515625 164.5 63.742188 163.585938 C 63.867188 163.089844 64.082031 162.167969 64.226562 161.535156 C 64.367188 160.902344 64.726562 159.347656 65.023438 158.078125 C 65.320312 156.8125 65.679688 155.257812 65.820312 154.625 C 65.964844 153.992188 66.1875 153.070312 66.320312 152.574219 C 66.453125 152.082031 66.585938 151.335938 66.625 150.910156 L 66.6875 150.144531 L 53.054688 150.078125 L 39.425781 150.011719 L 39.425781 139.269531 L 69.496094 139.136719 L 69.664062 138.238281 C 69.855469 137.21875 70.339844 134.988281 70.679688 133.566406 C 70.808594 133.039062 71.015625 132.175781 71.140625 131.648438 C 71.269531 131.121094 71.511719 130.054688 71.679688 129.28125 C 71.847656 128.503906 72.089844 127.441406 72.21875 126.910156 C 72.34375 126.382812 72.550781 125.519531 72.679688 124.992188 C 72.804688 124.464844 73.046875 123.398438 73.214844 122.625 C 73.386719 121.847656 73.621094 120.8125 73.742188 120.320312 C 74.140625 118.683594 74.441406 117.390625 74.753906 115.96875 C 74.921875 115.195312 75.15625 114.15625 75.277344 113.664062 C 75.398438 113.171875 75.609375 112.246094 75.746094 111.605469 C 75.882812 110.964844 76.035156 110.273438 76.078125 110.070312 C 76.148438 109.746094 73.75 109.6875 58.046875 109.628906 L 39.9375 109.566406 L 39.9375 98.816406 L 78.742188 98.816406 L 79.074219 97.214844 C 79.253906 96.335938 79.496094 95.328125 79.605469 94.976562 C 79.71875 94.625 79.945312 93.703125 80.109375 92.929688 C 80.515625 91.019531 80.882812 89.398438 81.152344 88.320312 C 81.273438 87.828125 81.5 86.875 81.648438 86.207031 C 81.796875 85.539062 82.042969 84.445312 82.191406 83.777344 C 82.339844 83.105469 82.566406 82.15625 82.6875 81.664062 C 82.957031 80.585938 83.324219 78.960938 83.730469 77.054688 C 83.894531 76.28125 84.121094 75.359375 84.226562 75.007812 C 84.335938 74.65625 84.566406 73.675781 84.734375 72.832031 C 84.90625 71.988281 85.148438 70.960938 85.277344 70.554688 C 85.402344 70.144531 85.503906 69.5625 85.503906 69.261719 C 85.503906 68.070312 85.054688 68.097656 105.148438 68.097656 L 124.175781 68.097656 L 125.0625 70.015625 "/>
</g>
</svg>
