<?xml version="1.0" standalone="no"?>
<!DOCTYPE svg PUBLIC "-//W3C//DTD SVG 20010904//EN"
 "http://www.w3.org/TR/2001/REC-SVG-20010904/DTD/svg10.dtd">
<svg version="1.0" xmlns="http://www.w3.org/2000/svg"
 width="500.000000pt" height="500.000000pt" viewBox="0 0 500.000000 500.000000"
 preserveAspectRatio="xMidYMid meet">

<g transform="translate(0.000000,500.000000) scale(0.100000,-0.100000)"
fill="#000000" stroke="none">
<path d="M0 2500 l0 -2500 2500 0 2500 0 0 2500 0 2500 -2500 0 -2500 0 0
-2500z m2746 435 c175 -404 321 -735 324 -735 4 0 206 868 328 1408 l14 62
310 0 c291 0 310 -1 306 -17 -2 -10 -137 -591 -298 -1290 l-294 -1273 -287 0
-286 0 -373 880 c-205 484 -376 880 -379 880 -3 0 -87 -350 -185 -777 -99
-428 -190 -824 -204 -880 l-24 -103 -309 0 -309 0 5 23 c50 211 215 934 215
944 0 10 -54 13 -265 13 l-265 0 0 105 0 105 293 0 292 0 64 278 c35 152 66
283 68 290 4 9 -70 12 -351 12 l-356 0 0 105 0 105 379 0 378 0 21 88 c11 48
42 183 68 299 l49 213 376 0 376 0 319 -735z"/>
</g>
</svg>
