<?xml version="1.0" encoding="utf-8"?>
<!-- Generator: Adobe Illustrator 26.0.0, SVG Export Plug-In . SVG Version: 6.00 Build 0)  -->
<svg version="1.1" id="Capa_1" xmlns="http://www.w3.org/2000/svg" xmlns:xlink="http://www.w3.org/1999/xlink" x="0px" y="0px"
	 viewBox="0 0 256 256" style="enable-background:new 0 0 256 256;" xml:space="preserve">
<style type="text/css">
	.st0{fill:#FFFFFF;}
	.st1{fill:#0067B4;}
	.st2{fill:#009CDA;}
	.st3{fill:#00BFE9;}
	.st4{fill:#006DB5;}
	.st5{fill:#008BD4;}
	.st6{fill:#00A4DE;}
	.st7{fill:#0065B3;}
	.st8{fill:#0068B4;}
	.st9{fill:#0071B5;}
	.st10{fill:#009BDA;}
	.st11{fill:#0069B4;}
	.st12{fill:#00AAE0;}
	.st13{fill:#008AD3;}
	.st14{fill:#00B5E5;}
	.st15{fill:#0070B5;}
	.st16{fill:#0094D7;}
	.st17{fill:#00A0DD;}
</style>
<g>
	<circle class="st0" cx="128" cy="128" r="127.9"/>
	<g>
		<g>
			<path class="st1" d="M64.6,115.4c0.5,0.5,0.9,1,1.4,1.5c0.1,0,0.3,0.1,0.4,0.2c0.9,1,1.7,2,2.6,3.1c0.1,0.1,0.1,0.1,0.1,0.2
				c0.5,0.9,1.3,1.7,2,2.4c2,2.3,4,4.6,6.3,6.6c2.2,1.9,4.6,3.5,7.6,4.3c-1.8,0.2-7-0.9-10.4-2.8c-3.2-1.8-5.9-4.1-8.4-6.7
				c-0.2-0.1-0.4-0.2-0.6-0.4c-0.9-1-1.8-2.1-2.7-3.1c-0.4-0.7-1-1.2-1.4-1.8c0-0.2,0.1-0.4,0.2-0.5c0.7-0.9,1.5-1.8,2.3-2.7
				C64.1,115.5,64.3,115.2,64.6,115.4z"/>
			<path class="st2" d="M64.6,115.4c-0.4,0-0.6,0.4-0.8,0.6c-0.8,0.9-1.5,1.8-2.3,2.6c-0.1,0.1-0.1,0.2-0.1,0.3
				c-0.4,0.6-0.9,1.2-1.4,1.7c-0.6-0.3-0.9-0.9-1.3-1.3c-0.6-0.6-1.1-1.3-1.7-2c-0.1-0.1-0.2-0.2-0.2-0.4c0.4-0.7,1.1-1.1,1.5-1.7
				c0.9-1,2-1.9,2.9-2.8c0.1-0.1,0.2-0.2,0.4-0.2c2.7-2.2,5.6-3.9,8.9-4.9c2.1-0.6,4.2-1.1,6.4-1.2c-2.1,0.5-4,1.5-5.7,2.7
				c-2.4,1.8-4.5,3.9-6.5,6.1C64.7,115,64.6,115.2,64.6,115.4z"/>
			<path class="st3" d="M69,120.4c-1-1.2-2-2.3-3-3.5c1.5-1.5,3-3,4.7-4.2c3.3-2.5,7-4.3,11.1-5c0.9-0.2,1.8-0.3,2.7-0.3
				c-1.3,0.4-2.5,1-3.7,1.7c-2.8,1.7-5.1,3.9-7.3,6.3C72,117,70.5,118.7,69,120.4z"/>
			<path class="st4" d="M60.1,130.6c1.7,1.6,3.5,3.1,5.6,4.1c1.2,0.6,2.4,1,3.6,1.4c-1.9-0.1-3.8-0.4-5.7-0.9
				c-1.9-0.5-3.8-1.3-5.6-2.3c-0.2-0.1-0.3-0.2-0.5-0.2c-0.7-0.2-1.2-0.6-1.7-1c-0.7-0.4-1.3-0.9-1.9-1.4c-0.4-0.5-1-0.7-1.3-1.3
				c-0.1-0.2,0-0.4,0.1-0.6c0.8-0.8,1.5-1.7,2.3-2.5c0.1-0.1,0.2-0.2,0.4-0.2c0.6,0.4,1,1,1.5,1.5c0.8,0.8,1.6,1.6,2.3,2.4
				C59.6,129.9,59.9,130.2,60.1,130.6z"/>
			<path class="st5" d="M60.1,130.6c-1.1-1.1-2.1-2.2-3.2-3.3c0.4-0.7,1-1.2,1.4-1.8c1-1.1,1.9-2.3,2.9-3.4c0.4-0.3,0.6-0.7,1-1.1
				c0.2-0.2,0.3-0.4,0.6-0.4c1,0.8,1.7,2,2.6,2.9c0.2,0.2,0.4,0.4,0.7,0.7c-0.7,0.3-1.1,1-1.5,1.6c-0.3,0.7-1,1.1-1.5,1.8
				c-0.4,0.5-0.8,0.9-1.3,1.3C61.2,129.4,60.6,130,60.1,130.6z"/>
			<path class="st6" d="M39.1,117c1.8-2.1,3.6-4.2,5.7-6.1c1.1,0.9,2.3,1.7,3.1,2.9c-0.3,0.7-0.9,1.1-1.3,1.7c-1,1.2-2,2.3-2.9,3.5
				c-0.4,0.3-0.6,0.7-1,1c-0.1,0.1-0.2,0.3-0.5,0.4c-0.6-0.1-0.8-0.6-1.1-1C40.5,118.7,39.7,117.9,39.1,117z"/>
			<path class="st7" d="M61.8,112.2c-1,0.8-1.9,1.7-2.8,2.6c-0.2,0.2-0.4,0.3-0.6,0.5c-0.4,0-0.5-0.5-0.8-0.7
				c-0.3-0.2-0.5-0.5-0.8-0.7c-1-1-2-2-3-2.9c-0.6-0.5-1.2-0.9-1.7-1.5c0-0.2,0.1-0.3,0.2-0.4c0.8-0.7,1.6-1.5,2.5-2.1
				c0.2-0.1,0.4-0.5,0.8-0.1c0.6,0.4,1.1,0.8,1.7,1.2c0.2,0.1,0.3,0.3,0.6,0.3c0.8,0.6,1.7,1.2,2.3,2.1
				C60.6,111,61.2,111.6,61.8,112.2z"/>
			<path class="st8" d="M61.8,128.9c0-0.1,0-0.2,0.1-0.2c0.9-0.9,1.7-2,2.7-2.8c1.8,2,3.6,3.9,5.7,5.5c2,1.6,4.1,2.9,6.7,3.5
				C72.7,134.9,66.6,133,61.8,128.9z"/>
			<path class="st9" d="M39.1,117c1,0.8,1.7,1.9,2.5,2.8c0.2,0.2,0.4,0.5,0.6,0.6c0.5,0.5,1,1,1.3,1.7c-0.3,0.8-1,1.2-1.4,1.9
				c-0.4,0.5-0.9,0.9-1.3,1.3c-0.1,0.1-0.3,0.3-0.5,0.2c-1.3-1.6-2.6-3.1-4-4.7c-0.2-0.2-0.1-0.4,0-0.6
				C37.3,119.1,38.2,118.1,39.1,117z"/>
			<path class="st9" d="M49.1,133.4c-2.1-1.3-4-2.9-5.7-4.7c0.2-0.5,0.7-0.8,1.1-1.2c0.5-0.5,1-1,1.5-1.5c0.2-0.2,0.3-0.3,0.6-0.4
				c0.6,0.4,1,1,1.5,1.5c1,1.2,2.1,2.2,3.1,3.4c0.3,0.4,0.8,0.6,1,1.2c-0.1,0.4-0.5,0.5-0.8,0.7c-0.5,0.3-1,0.6-1.5,0.9
				C49.6,133.4,49.4,133.5,49.1,133.4z"/>
			<path class="st10" d="M46.6,125.7c-0.9,0.8-1.7,1.7-2.6,2.5c-0.2,0.2-0.4,0.4-0.6,0.5c-1.1-1-2.1-2.1-3-3.3
				c1.2-1,2.2-2.2,3.2-3.4c0.4-0.6,0.7-1.2,1.4-1.5c0.2,0,0.3,0.1,0.4,0.2c0.9,1,1.7,2.1,2.6,3.1c0.1,0.1,0.1,0.1,0.1,0.2
				C47.6,124.7,47.2,125.3,46.6,125.7z"/>
			<path class="st11" d="M47.8,113.8c-0.6-0.8-1.4-1.4-2.2-2c-0.3-0.3-0.6-0.5-0.9-0.9c1-1,2.1-1.9,3.3-2.6c0.7,0.2,1.2,0.7,1.7,1.1
				c0.4,0.3,0.8,0.7,1.2,1.1c0.5,0.6,1.1,1,1.5,1.6c-0.1,0.4-0.4,0.6-0.7,0.9c-0.7,0.6-1.3,1.3-1.9,1.9c-0.2,0.2-0.3,0.4-0.6,0.4
				C48.8,114.9,48.3,114.3,47.8,113.8z"/>
			<path class="st12" d="M51,110.6c-1-0.8-1.9-1.5-2.9-2.3c3.7-2.7,7.9-4.1,12.5-4.4c-0.8,0.4-1.7,0.7-2.5,1.1
				c-0.8,0.4-1.6,0.9-2.3,1.4c-0.1,0.1-0.3,0.2-0.2,0.4c-0.1,0-0.3,0-0.4,0.1c-1.1,0.8-2.1,1.7-3,2.6
				C51.9,109.9,51.5,110.3,51,110.6z"/>
			<path class="st13" d="M49.1,133.4c1.1-0.4,2-1,2.9-1.8c0.5-0.5,1-0.8,1.5-1.2c0.1-0.1,0.3-0.2,0.5-0.1c1.2,0.8,2.4,1.7,3.6,2.5
				c-0.6,0.4-1.1,0.9-1.7,1.3c-0.1,0.1-0.4,0.2-0.3,0.5c-0.7,0.3-1.3,0.8-2,1.1C52,135,50.5,134.3,49.1,133.4z"/>
			<path class="st14" d="M60.1,110.4c-0.7-0.7-1.6-1.3-2.3-2.1c1.7-1.1,3.6-1.8,5.6-2.4c1.6-0.5,3.3-0.8,5.1-0.9
				C65.2,106.1,62.5,108.1,60.1,110.4z"/>
			<path class="st15" d="M53.5,135.6c0.6-0.5,1.2-1,2-1.1c1.5,0.9,2.9,1.8,4.6,2.3c0.5,0.1,0.9,0.3,1.5,0.4
				C58.7,137.1,56.1,136.6,53.5,135.6z"/>
			<path class="st11" d="M60.1,120.5c0.4,0.5,0.9,1.1,1.3,1.6c0,0.4-0.4,0.6-0.7,0.9c-0.8,0.8-1.4,1.8-2.3,2.5
				c-0.5-0.1-0.7-0.5-1-0.8c-0.2-0.1-0.3-0.4-0.5-0.5c-1.2-1.1-2.1-2.4-3.2-3.7c-0.4-0.6-1-1.1-1.3-1.7c-0.1-0.4,0.2-0.6,0.4-0.8
				c0.7-0.9,1.5-1.7,2.2-2.6c0.1-0.1,0.3-0.3,0.5-0.3c0.6,0.5,1.1,1,1.4,1.7C58,118.1,59,119.3,60.1,120.5z"/>
			<path class="st16" d="M53.9,120.5c1.1,1.2,2,2.5,3.2,3.7c-0.5,0.6-0.9,1.2-1.5,1.6c-1,0.8-1.7,1.9-2.7,2.8
				c-0.1,0.1-0.1,0.3-0.1,0.4c-0.7,0.4-1.1,1.1-1.7,1.6c-0.7-1.1-1.8-1.9-2.6-2.9c-0.1-0.2-0.3-0.4-0.4-0.5c0.4-0.6,0.9-1.1,1.3-1.7
				c1.1-1.1,2.1-2.2,3-3.4C52.9,121.6,53.2,120.9,53.9,120.5z"/>
			<path class="st4" d="M52.4,122.2c-0.1,0.5-0.5,0.7-0.8,1c-0.7,0.8-1.4,1.7-2.3,2.4c-0.7-0.2-1-0.9-1.4-1.4
				c-0.9-1.1-1.8-2.1-2.6-3.2c-0.1-0.1-0.2-0.3-0.4-0.4c-0.4-0.5-1-1-1.2-1.6c0-0.5,0.5-0.8,0.8-1.1c0.7-0.8,1.3-1.7,2.2-2.4
				c0.4,0,0.6,0.3,0.8,0.6c0.2,0.3,0.4,0.5,0.7,0.8c1.1,1.2,2.1,2.4,3.2,3.7c0.3,0.4,0.6,0.7,0.9,1.1
				C52.2,121.7,52.4,121.9,52.4,122.2z"/>
			<path class="st17" d="M48,116.9c0.5-0.5,1.1-1,1.4-1.6c1-1,2.1-2.1,3.1-3.1c0.4-0.5,0.9-0.9,1.4-1.3c1.1,0.9,2.1,1.8,3,2.9
				c-0.6,0.4-1,1-1.4,1.5c-1.1,1.2-2.2,2.3-3,3.6c-0.4,0.6-0.9,1.2-1.4,1.7C50.1,119.3,49,118.1,48,116.9z"/>
		</g>
		<path d="M58.7,193.7c0.3-0.5,0.5-0.9,0.7-1.3c19.6-34.7,39.2-69.3,58.8-104c0.6-1,1.1-1.4,2.3-1.4c4.4,0.1,8.9,0,13.3,0
			c0.8,0,1.1,0.2,1.3,1c2.1,8.2,4.3,16.3,6.4,24.5c0.2,0.9,0.6,1.1,1.5,1.1c4.6,0,9.2,0,13.9,0c0.4,0,0.8,0,1.4,0
			c-0.2,0.5-0.4,0.8-0.6,1.1c-3.4,6-6.7,11.9-10.1,17.9c-0.4,0.6-0.4,1.2-0.2,1.9c5.1,19.3,10.2,38.7,15.3,58.1
			c0.1,0.3,0.1,0.6,0.2,1c-5.4,0-10.8,0-16.2,0c-3.5-13.4-7-26.7-10.6-40.3c-0.3,0.5-0.5,0.7-0.6,1c-7.2,12.7-14.4,25.4-21.6,38.1
			c-0.5,0.9-1.1,1.3-2.2,1.3c-5.1-0.1-10.2,0-15.3,0c-0.4,0-0.7,0-1.3,0c0.3-0.5,0.4-0.8,0.6-1.2c11.3-20,22.6-40,34-60.1
			c0.4-0.8,0.6-1.5,0.4-2.4c-1.7-6.5-3.4-13-5.2-19.6c-0.1-0.2-0.1-0.5-0.3-0.9c-0.3,0.5-0.5,0.8-0.7,1.2
			c-8.5,14.9-16.9,29.9-25.4,44.8c-7,12.4-14,24.7-21,37.1c-0.4,0.7-0.8,1-1.7,1c-5.2,0-10.4,0-15.7,0
			C59.6,193.7,59.3,193.7,58.7,193.7z"/>
		<g>
			<path class="st1" d="M104.6,174.2c0.6,0.7,1.2,1.4,1.9,2.1c0.2,0.1,0.4,0.1,0.5,0.3c1.1,1.4,2.3,2.7,3.4,4.1
				c0.1,0.1,0.1,0.2,0.1,0.3c0.7,1.2,1.7,2.2,2.6,3.3c2.7,3.1,5.4,6.2,8.5,8.8c3,2.5,6.2,4.7,10.2,5.7c-2.4,0.3-9.4-1.2-13.9-3.7
				c-4.3-2.4-8-5.5-11.3-9c-0.3-0.1-0.6-0.2-0.8-0.5c-1.2-1.4-2.4-2.8-3.6-4.2c-0.5-0.9-1.4-1.5-1.9-2.5c-0.1-0.3,0.1-0.5,0.3-0.7
				c1-1.2,2-2.4,3.1-3.6C103.9,174.3,104.1,173.9,104.6,174.2z"/>
			<path class="st2" d="M104.6,174.2c-0.5,0-0.7,0.5-1,0.8c-1,1.2-2,2.4-3,3.5c-0.1,0.1-0.1,0.2-0.2,0.4c-0.5,0.8-1.2,1.6-1.9,2.3
				c-0.8-0.4-1.2-1.1-1.7-1.7c-0.8-0.9-1.5-1.8-2.3-2.6c-0.1-0.1-0.3-0.3-0.3-0.5c0.5-0.9,1.5-1.4,2-2.3c1.2-1.4,2.6-2.5,3.9-3.8
				c0.2-0.1,0.3-0.3,0.6-0.2c3.6-2.9,7.5-5.2,11.9-6.6c2.8-0.9,5.6-1.4,8.5-1.5c-2.8,0.7-5.3,2-7.6,3.7c-3.3,2.3-6.1,5.2-8.8,8.1
				C104.7,173.7,104.6,173.9,104.6,174.2z"/>
			<path class="st3" d="M110.5,180.9c-1.3-1.6-2.7-3.1-4-4.7c2-2,4-4,6.2-5.7c4.4-3.4,9.3-5.7,14.8-6.7c1.2-0.2,2.4-0.4,3.7-0.4
				c-1.7,0.6-3.4,1.3-4.9,2.3c-3.7,2.2-6.8,5.2-9.7,8.4C114.5,176.3,112.5,178.6,110.5,180.9z"/>
			<path class="st4" d="M98.5,194.6c2.3,2.1,4.7,4.1,7.5,5.5c1.5,0.8,3.2,1.4,4.9,1.8c-2.6-0.1-5.1-0.5-7.6-1.2
				c-2.6-0.7-5.1-1.7-7.4-3c-0.2-0.1-0.4-0.3-0.7-0.3c-0.9-0.2-1.6-0.8-2.3-1.3c-0.9-0.6-1.7-1.2-2.5-1.9c-0.5-0.6-1.4-1-1.8-1.7
				c-0.1-0.3-0.1-0.6,0.2-0.8c1.1-1,2-2.3,3.1-3.3c0.2-0.2,0.3-0.3,0.6-0.3c0.9,0.5,1.3,1.3,2,2c1,1.1,2.1,2.1,3.1,3.1
				C98,193.7,98.3,194.1,98.5,194.6z"/>
			<path class="st5" d="M98.5,194.6c-1.4-1.5-2.8-2.9-4.2-4.4c0.5-0.9,1.3-1.6,1.9-2.4c1.3-1.5,2.6-3,3.9-4.5c0.5-0.4,0.9-1,1.3-1.4
				c0.2-0.2,0.4-0.6,0.8-0.5c1.3,1.1,2.3,2.6,3.5,3.9c0.3,0.3,0.6,0.6,0.9,0.9c-1,0.5-1.5,1.4-2.1,2.2c-0.5,0.9-1.4,1.5-2,2.3
				c-0.5,0.6-1.1,1.2-1.7,1.7C100,193,99.3,193.8,98.5,194.6z"/>
			<path class="st6" d="M70.5,176.4c2.4-2.9,4.8-5.6,7.6-8.1c1.5,1.2,3.1,2.2,4.2,3.9c-0.4,0.9-1.3,1.4-1.7,2.3
				c-1.3,1.6-2.7,3.1-3.9,4.7c-0.5,0.4-0.8,1-1.3,1.4c-0.2,0.2-0.3,0.5-0.6,0.5c-0.7-0.2-1-0.8-1.4-1.3
				C72.3,178.6,71.3,177.6,70.5,176.4z"/>
			<path class="st7" d="M100.8,169.9c-1.3,1.1-2.5,2.2-3.7,3.5c-0.2,0.2-0.5,0.4-0.8,0.7c-0.6-0.1-0.7-0.7-1.1-1
				c-0.4-0.3-0.7-0.7-1-1c-1.3-1.4-2.7-2.6-4.1-3.9c-0.8-0.7-1.7-1.2-2.3-2c0-0.3,0.1-0.4,0.3-0.6c1.1-0.9,2.1-2,3.3-2.8
				c0.3-0.2,0.6-0.6,1-0.2c0.7,0.5,1.5,1.1,2.2,1.6c0.2,0.2,0.4,0.4,0.8,0.4c1.1,0.8,2.3,1.7,3,2.9
				C99.3,168.4,100,169.1,100.8,169.9z"/>
			<path class="st8" d="M100.9,192.3c0-0.1,0-0.2,0.1-0.3c1.2-1.2,2.3-2.6,3.6-3.7c2.4,2.6,4.8,5.2,7.6,7.4c2.6,2.1,5.4,3.8,9,4.7
				C115.5,200.3,107.2,197.8,100.9,192.3z"/>
			<path class="st9" d="M70.5,176.4c1.3,1.1,2.3,2.5,3.4,3.7c0.3,0.3,0.5,0.6,0.8,0.8c0.7,0.6,1.4,1.3,1.8,2.2
				c-0.4,1-1.3,1.7-1.9,2.5c-0.5,0.7-1.2,1.2-1.8,1.8c-0.2,0.2-0.3,0.4-0.6,0.3c-1.8-2.1-3.5-4.2-5.3-6.3c-0.3-0.3-0.2-0.5,0-0.8
				C68.1,179.2,69.3,177.8,70.5,176.4z"/>
			<path class="st9" d="M83.9,198.3c-2.8-1.7-5.3-3.9-7.6-6.2c0.3-0.7,0.9-1.1,1.4-1.6c0.7-0.7,1.4-1.4,2.1-2.1
				c0.2-0.2,0.4-0.5,0.8-0.5c0.8,0.5,1.4,1.3,2,2c1.3,1.5,2.9,2.9,4.1,4.5c0.5,0.5,1.1,0.8,1.3,1.6c-0.2,0.5-0.7,0.7-1.1,1
				c-0.6,0.5-1.3,0.9-2,1.2C84.4,198.3,84.2,198.5,83.9,198.3z"/>
			<path class="st10" d="M80.5,188c-1.1,1.1-2.3,2.2-3.4,3.4c-0.3,0.3-0.5,0.5-0.8,0.7c-1.4-1.4-2.8-2.8-4.1-4.4
				c1.6-1.4,3-2.9,4.3-4.6c0.5-0.8,0.9-1.6,1.9-2c0.2,0,0.4,0.2,0.6,0.3c1.1,1.4,2.3,2.7,3.4,4.1c0.1,0.1,0.1,0.2,0.1,0.3
				C81.8,186.7,81.3,187.5,80.5,188z"/>
			<path class="st11" d="M82.2,172.1c-0.8-1.1-1.9-1.9-2.9-2.7c-0.4-0.4-0.9-0.7-1.2-1.2c1.4-1.3,2.8-2.5,4.4-3.5
				c1,0.2,1.6,1,2.3,1.5c0.6,0.4,1.1,0.9,1.7,1.4c0.6,0.7,1.5,1.3,2,2.2c-0.1,0.6-0.5,0.9-0.9,1.2c-0.9,0.8-1.7,1.7-2.5,2.6
				c-0.2,0.2-0.4,0.5-0.8,0.5C83.4,173.6,82.8,172.8,82.2,172.1z"/>
			<path class="st12" d="M86.4,167.8c-1.3-1-2.6-2-3.8-3c5-3.6,10.6-5.4,16.7-5.9c-1.1,0.5-2.3,0.9-3.3,1.4
				c-1.1,0.5-2.1,1.2-3.1,1.9c-0.2,0.1-0.4,0.3-0.3,0.5c-0.2-0.1-0.3,0-0.5,0.1c-1.5,1-2.8,2.2-4,3.5
				C87.5,166.9,87,167.4,86.4,167.8z"/>
			<path class="st13" d="M83.9,198.3c1.4-0.6,2.7-1.4,3.9-2.4c0.6-0.6,1.4-1.1,2-1.7c0.2-0.1,0.4-0.2,0.6-0.2
				c1.6,1.1,3.2,2.3,4.8,3.4c-0.7,0.6-1.5,1.2-2.2,1.7c-0.2,0.2-0.5,0.2-0.5,0.6c-0.9,0.4-1.7,1.1-2.7,1.5
				C87.7,200.5,85.7,199.6,83.9,198.3z"/>
			<path class="st14" d="M98.5,167.6c-1-1-2.1-1.8-3-2.9c2.3-1.5,4.8-2.5,7.5-3.2c2.2-0.6,4.4-1.1,6.8-1.1
				C105.3,161.8,101.8,164.4,98.5,167.6z"/>
			<path class="st15" d="M89.8,201.3c0.8-0.6,1.6-1.4,2.7-1.5c2,1.2,3.9,2.5,6.1,3.1c0.6,0.2,1.2,0.4,2,0.6
				C96.8,203.3,93.2,202.6,89.8,201.3z"/>
			<path class="st11" d="M98.5,181.1c0.6,0.7,1.2,1.5,1.7,2.2c-0.1,0.6-0.6,0.8-0.9,1.2c-1,1.1-1.8,2.5-3.1,3.4
				c-0.7-0.1-0.9-0.7-1.4-1.1c-0.2-0.2-0.4-0.5-0.6-0.7c-1.6-1.5-2.8-3.3-4.3-4.9c-0.6-0.8-1.3-1.5-1.8-2.3
				c-0.1-0.5,0.3-0.8,0.6-1.1c1-1.2,2-2.3,2.9-3.5c0.2-0.2,0.3-0.4,0.6-0.4c0.8,0.6,1.5,1.3,1.9,2.3
				C95.7,177.8,97.1,179.5,98.5,181.1z"/>
			<path class="st16" d="M90.2,181.1c1.4,1.6,2.7,3.4,4.2,4.9c-0.6,0.8-1.3,1.6-2,2.2c-1.4,1.1-2.3,2.6-3.6,3.7
				c-0.2,0.2-0.1,0.3-0.1,0.5c-0.9,0.6-1.5,1.5-2.3,2.2c-1-1.5-2.4-2.5-3.5-3.9c-0.2-0.2-0.4-0.5-0.6-0.7c0.5-0.8,1.3-1.4,1.8-2.2
				c1.4-1.5,2.8-3,4-4.6C88.9,182.6,89.3,181.6,90.2,181.1z"/>
			<path class="st4" d="M88.2,183.3c-0.1,0.6-0.7,0.9-1.1,1.4c-1,1.1-1.8,2.3-3,3.2c-0.9-0.3-1.3-1.2-1.8-1.9
				c-1.2-1.4-2.4-2.8-3.5-4.3c-0.2-0.2-0.3-0.4-0.6-0.5c-0.6-0.7-1.3-1.3-1.6-2.2c0.1-0.7,0.6-1,1-1.5c1-1.1,1.7-2.3,2.9-3.3
				c0.5,0,0.7,0.4,1,0.8c0.3,0.4,0.6,0.7,0.9,1c1.5,1.6,2.8,3.3,4.2,4.9c0.4,0.5,0.8,1,1.2,1.5C88,182.7,88.3,182.9,88.2,183.3z"/>
			<path class="st17" d="M82.3,176.2c0.7-0.7,1.5-1.3,1.9-2.2c1.4-1.4,2.8-2.8,4.2-4.2c0.5-0.7,1.1-1.3,1.9-1.7
				c1.4,1.2,2.8,2.5,4,3.9c-0.8,0.6-1.3,1.3-1.9,2.1c-1.4,1.6-2.9,3.1-4,4.9c-0.6,0.8-1.1,1.6-1.9,2.2
				C85.1,179.5,83.7,177.8,82.3,176.2z"/>
		</g>
		<polygon points="95,193.7 119.5,150.3 131.5,161 113.3,193.7 		"/>
		<g>
			<path class="st1" d="M172,174.6c0.3,0.4,0.7,0.8,1,1.1c0.1,0,0.2,0.1,0.3,0.2c0.6,0.8,1.3,1.5,1.9,2.3c0,0,0.1,0.1,0.1,0.2
				c0.4,0.7,0.9,1.2,1.5,1.8c1.5,1.7,3,3.4,4.7,4.9c1.6,1.4,3.4,2.6,5.6,3.2c-1.3,0.2-5.2-0.7-7.7-2c-2.4-1.3-4.4-3-6.2-5
				c-0.2-0.1-0.3-0.1-0.5-0.3c-0.7-0.8-1.3-1.5-2-2.3c-0.3-0.5-0.7-0.9-1-1.4c0-0.2,0.1-0.3,0.1-0.4c0.5-0.7,1.1-1.3,1.7-2
				C171.6,174.7,171.7,174.5,172,174.6z"/>
			<path class="st2" d="M172,174.6c-0.3,0-0.4,0.3-0.6,0.4c-0.6,0.6-1.1,1.3-1.7,2c0,0.1-0.1,0.1-0.1,0.2c-0.3,0.5-0.6,0.9-1,1.3
				c-0.4-0.2-0.6-0.6-1-1c-0.4-0.5-0.8-1-1.3-1.5c-0.1-0.1-0.1-0.2-0.1-0.3c0.3-0.5,0.8-0.8,1.1-1.3c0.7-0.8,1.4-1.4,2.2-2.1
				c0.1-0.1,0.2-0.2,0.3-0.1c2-1.6,4.1-2.9,6.6-3.7c1.5-0.5,3.1-0.8,4.7-0.9c-1.5,0.4-2.9,1.1-4.2,2c-1.8,1.3-3.3,2.9-4.8,4.5
				C172,174.4,172,174.5,172,174.6z"/>
			<path class="st3" d="M175.2,178.3c-0.7-0.9-1.5-1.7-2.2-2.6c1.1-1.1,2.2-2.2,3.4-3.1c2.4-1.9,5.1-3.2,8.2-3.7
				c0.7-0.1,1.3-0.2,2-0.2c-1,0.3-1.9,0.7-2.7,1.2c-2.1,1.2-3.8,2.9-5.4,4.6C177.4,175.8,176.3,177.1,175.2,178.3z"/>
			<path class="st4" d="M168.6,185.9c1.3,1.2,2.6,2.3,4.1,3.1c0.9,0.4,1.8,0.8,2.7,1c-1.4-0.1-2.8-0.3-4.2-0.7
				c-1.4-0.4-2.8-1-4.1-1.7c-0.1-0.1-0.2-0.2-0.4-0.2c-0.5-0.1-0.9-0.5-1.3-0.7c-0.5-0.3-1-0.7-1.4-1.1c-0.3-0.3-0.8-0.5-1-1
				c-0.1-0.2,0-0.3,0.1-0.4c0.6-0.6,1.1-1.2,1.7-1.8c0.1-0.1,0.2-0.2,0.3-0.2c0.5,0.3,0.7,0.7,1.1,1.1c0.6,0.6,1.2,1.2,1.7,1.7
				C168.3,185.4,168.5,185.6,168.6,185.9z"/>
			<path class="st5" d="M168.6,185.9c-0.8-0.8-1.6-1.6-2.3-2.4c0.3-0.5,0.7-0.9,1.1-1.3c0.7-0.8,1.4-1.7,2.2-2.5
				c0.3-0.2,0.5-0.5,0.7-0.8c0.1-0.1,0.2-0.3,0.4-0.3c0.7,0.6,1.3,1.5,2,2.1c0.2,0.2,0.3,0.3,0.5,0.5c-0.5,0.3-0.8,0.8-1.1,1.2
				c-0.3,0.5-0.7,0.8-1.1,1.3c-0.3,0.3-0.6,0.7-0.9,0.9C169.4,185,169,185.4,168.6,185.9z"/>
			<path class="st6" d="M153.1,175.8c1.3-1.6,2.7-3.1,4.2-4.5c0.8,0.7,1.7,1.2,2.3,2.1c-0.2,0.5-0.7,0.8-0.9,1.3
				c-0.7,0.9-1.5,1.7-2.2,2.6c-0.3,0.2-0.5,0.5-0.7,0.8c-0.1,0.1-0.2,0.3-0.3,0.3c-0.4-0.1-0.6-0.5-0.8-0.7
				C154.1,177,153.6,176.5,153.1,175.8z"/>
			<path class="st7" d="M169.8,172.2c-0.7,0.6-1.4,1.2-2.1,1.9c-0.1,0.1-0.3,0.2-0.4,0.4c-0.3,0-0.4-0.4-0.6-0.5
				c-0.2-0.2-0.4-0.4-0.6-0.5c-0.7-0.7-1.5-1.5-2.2-2.1c-0.4-0.4-0.9-0.7-1.3-1.1c0-0.1,0.1-0.2,0.2-0.3c0.6-0.5,1.2-1.1,1.8-1.5
				c0.2-0.1,0.3-0.3,0.6-0.1c0.4,0.3,0.8,0.6,1.2,0.9c0.1,0.1,0.2,0.2,0.4,0.2c0.6,0.5,1.3,0.9,1.7,1.6
				C169,171.4,169.4,171.8,169.8,172.2z"/>
			<path class="st8" d="M169.9,184.6c0-0.1,0-0.1,0.1-0.2c0.7-0.7,1.2-1.4,2-2.1c1.3,1.4,2.7,2.9,4.2,4.1c1.5,1.2,3,2.1,5,2.6
				C178,189,173.4,187.6,169.9,184.6z"/>
			<path class="st9" d="M153.1,175.8c0.7,0.6,1.2,1.4,1.9,2.1c0.1,0.2,0.3,0.3,0.5,0.5c0.4,0.4,0.8,0.7,1,1.2
				c-0.2,0.6-0.7,0.9-1.1,1.4c-0.3,0.4-0.6,0.7-1,1c-0.1,0.1-0.2,0.2-0.4,0.2c-1-1.2-2-2.3-2.9-3.5c-0.2-0.2-0.1-0.3,0-0.4
				C151.8,177.4,152.5,176.6,153.1,175.8z"/>
			<path class="st9" d="M160.5,187.9c-1.6-0.9-3-2.1-4.2-3.4c0.2-0.4,0.5-0.6,0.8-0.9c0.4-0.4,0.8-0.8,1.1-1.1
				c0.1-0.1,0.2-0.3,0.4-0.3c0.5,0.3,0.8,0.7,1.1,1.1c0.7,0.9,1.6,1.6,2.3,2.5c0.3,0.3,0.6,0.4,0.7,0.9c-0.1,0.3-0.4,0.4-0.6,0.5
				c-0.4,0.3-0.7,0.5-1.1,0.7C160.8,187.9,160.7,188,160.5,187.9z"/>
			<path class="st10" d="M158.6,182.2c-0.6,0.6-1.3,1.2-1.9,1.9c-0.1,0.1-0.3,0.3-0.5,0.4c-0.8-0.8-1.5-1.6-2.2-2.4
				c0.9-0.7,1.6-1.6,2.3-2.5c0.3-0.4,0.5-0.9,1-1.1c0.1,0,0.2,0.1,0.3,0.2c0.6,0.8,1.3,1.5,1.9,2.3c0,0,0.1,0.1,0.1,0.2
				C159.4,181.5,159.1,182,158.6,182.2z"/>
			<path class="st11" d="M159.6,173.5c-0.5-0.6-1-1-1.6-1.5c-0.2-0.2-0.5-0.4-0.6-0.6c0.8-0.7,1.6-1.4,2.4-1.9
				c0.5,0.1,0.9,0.5,1.3,0.8c0.3,0.2,0.6,0.5,0.9,0.8c0.4,0.4,0.8,0.7,1.1,1.2c0,0.3-0.3,0.5-0.5,0.6c-0.5,0.4-0.9,0.9-1.4,1.4
				c-0.1,0.1-0.2,0.3-0.5,0.3C160.2,174.3,159.9,173.8,159.6,173.5z"/>
			<path class="st12" d="M161.9,171c-0.7-0.6-1.4-1.1-2.1-1.7c2.8-2,5.9-3,9.2-3.3c-0.6,0.3-1.2,0.5-1.8,0.8c-0.6,0.3-1.2,0.7-1.7,1
				c-0.1,0.1-0.2,0.1-0.2,0.3c-0.1,0-0.2,0-0.3,0c-0.8,0.6-1.5,1.2-2.2,1.9C162.5,170.6,162.3,170.9,161.9,171z"/>
			<path class="st13" d="M160.5,187.9c0.8-0.3,1.5-0.8,2.1-1.3c0.4-0.3,0.8-0.6,1.1-0.9c0.1-0.1,0.2-0.1,0.3-0.1
				c0.9,0.6,1.8,1.2,2.6,1.9c-0.4,0.3-0.8,0.6-1.2,1c-0.1,0.1-0.3,0.1-0.2,0.3c-0.5,0.2-1,0.6-1.5,0.8
				C162.6,189.2,161.5,188.6,160.5,187.9z"/>
			<path class="st14" d="M168.6,170.9c-0.5-0.5-1.2-1-1.7-1.6c1.3-0.8,2.7-1.4,4.1-1.8c1.2-0.3,2.5-0.6,3.7-0.6
				C172.4,167.7,170.4,169.2,168.6,170.9z"/>
			<path class="st15" d="M163.8,189.6c0.5-0.3,0.9-0.8,1.5-0.8c1.1,0.7,2.1,1.4,3.4,1.7c0.3,0.1,0.7,0.2,1.1,0.3
				C167.6,190.7,165.7,190.3,163.8,189.6z"/>
			<path class="st11" d="M168.6,178.4c0.3,0.4,0.6,0.8,1,1.2c0,0.3-0.3,0.5-0.5,0.7c-0.6,0.6-1,1.4-1.7,1.9c-0.4,0-0.5-0.4-0.7-0.6
				c-0.1-0.1-0.2-0.3-0.3-0.4c-0.9-0.8-1.6-1.8-2.4-2.7c-0.3-0.4-0.7-0.8-1-1.3c0-0.3,0.2-0.4,0.3-0.6c0.5-0.6,1.1-1.3,1.6-1.9
				c0.1-0.1,0.2-0.2,0.3-0.2c0.4,0.4,0.8,0.7,1,1.2C167.1,176.6,167.8,177.5,168.6,178.4z"/>
			<path class="st16" d="M164,178.4c0.8,0.9,1.5,1.9,2.3,2.7c-0.3,0.4-0.7,0.9-1.1,1.2c-0.8,0.6-1.3,1.4-2,2.1
				c-0.1,0.1-0.1,0.2-0.1,0.3c-0.5,0.3-0.8,0.8-1.3,1.2c-0.5-0.8-1.3-1.4-1.9-2.1c-0.1-0.1-0.2-0.3-0.3-0.4c0.3-0.5,0.7-0.8,1-1.2
				c0.8-0.8,1.5-1.6,2.2-2.5C163.3,179.2,163.5,178.7,164,178.4z"/>
			<path class="st4" d="M162.9,179.6c-0.1,0.4-0.4,0.5-0.6,0.8c-0.5,0.6-1,1.3-1.7,1.8c-0.5-0.2-0.7-0.6-1-1c-0.7-0.8-1.3-1.6-2-2.3
				c-0.1-0.1-0.2-0.2-0.3-0.3c-0.3-0.4-0.7-0.7-0.9-1.2c0-0.4,0.4-0.6,0.6-0.8c0.5-0.6,1-1.3,1.6-1.8c0.3,0,0.4,0.2,0.6,0.4
				c0.2,0.2,0.3,0.4,0.5,0.6c0.8,0.9,1.6,1.8,2.3,2.7c0.2,0.3,0.4,0.5,0.7,0.8C162.8,179.3,163,179.4,162.9,179.6z"/>
			<path class="st17" d="M159.7,175.7c0.4-0.4,0.8-0.7,1-1.2c0.8-0.8,1.6-1.5,2.3-2.3c0.3-0.4,0.6-0.7,1-0.9
				c0.8,0.7,1.5,1.4,2.2,2.1c-0.4,0.3-0.7,0.7-1,1.1c-0.8,0.9-1.6,1.7-2.2,2.7c-0.3,0.4-0.6,0.9-1,1.2
				C161.2,177.5,160.4,176.6,159.7,175.7z"/>
		</g>
		<g>
			<path class="st1" d="M174.2,85.3c1.3,1.5,2.7,2.9,4,4.4c0.4,0.1,0.8,0.3,1.1,0.6c2.5,2.9,5,5.8,7.4,8.8c0.1,0.2,0.2,0.4,0.2,0.7
				c1.5,2.6,3.7,4.7,5.6,7c5.7,6.6,11.5,13.2,18.2,18.9c6.4,5.5,13.3,10.2,21.8,12.3c-5.1,0.7-20.1-2.7-29.8-8
				c-9.2-5-17.1-11.7-24.2-19.3c-0.6-0.3-1.3-0.5-1.8-1.1c-2.6-3-5.2-5.9-7.8-8.9c-1.1-1.9-2.9-3.3-4-5.3c-0.1-0.6,0.2-1,0.6-1.5
				c2.1-2.6,4.4-5.1,6.6-7.7C172.6,85.7,173.1,84.8,174.2,85.3z"/>
			<path class="st2" d="M174.2,85.3c-1.1,0.1-1.6,1-2.2,1.7c-2.2,2.5-4.4,5-6.5,7.6c-0.2,0.2-0.2,0.5-0.3,0.8
				c-1.1,1.8-2.5,3.4-4,4.9c-1.7-0.8-2.5-2.5-3.7-3.7c-1.7-1.8-3.2-3.8-4.9-5.7c-0.3-0.3-0.5-0.6-0.5-1.1c1.1-2,3.1-3.1,4.3-4.9
				c2.6-3,5.6-5.4,8.4-8.1c0.3-0.3,0.7-0.7,1.3-0.5C173.6,70,182,65,191.6,62c6-1.9,12-3,18.3-3.3c-6,1.5-11.4,4.3-16.3,7.9
				c-7,5-13,11.2-18.8,17.4C174.3,84.4,174.2,84.8,174.2,85.3z"/>
			<path class="st3" d="M186.9,99.9c-2.9-3.4-5.8-6.7-8.6-10.1c4.3-4.2,8.6-8.5,13.4-12.2c9.5-7.3,20-12.2,31.8-14.3
				c2.6-0.5,5.2-0.8,7.9-0.9c-3.7,1.2-7.3,2.8-10.6,4.9c-8,4.8-14.7,11.2-20.9,18.1C195.4,90,191.1,95,186.9,99.9z"/>
			<path class="st4" d="M161.2,129.2c4.9,4.5,10.1,8.8,16,11.9c3.3,1.7,6.8,2.9,10.4,3.9c-5.5-0.3-10.9-1.1-16.3-2.5
				c-5.6-1.5-10.9-3.7-16-6.5c-0.5-0.3-0.9-0.6-1.5-0.6c-1.9-0.5-3.3-1.8-4.9-2.9c-1.9-1.3-3.7-2.6-5.4-4.1
				c-1.2-1.4-2.9-2.1-3.8-3.7c-0.3-0.6-0.1-1.2,0.4-1.6c2.4-2.2,4.3-4.8,6.7-7.1c0.4-0.3,0.7-0.7,1.2-0.7c1.8,1,2.9,2.8,4.3,4.3
				c2.2,2.3,4.5,4.5,6.7,6.8C159.9,127.2,160.7,128,161.2,129.2z"/>
			<path class="st5" d="M161.2,129.2c-3-3.1-6-6.3-9.1-9.4c1.1-2,2.9-3.4,4.2-5.2c2.8-3.2,5.6-6.5,8.4-9.8c1-0.9,1.9-2,2.7-3.1
				c0.5-0.5,0.8-1.3,1.7-1.2c2.9,2.4,4.9,5.7,7.6,8.3c0.6,0.6,1.3,1.2,1.9,1.9c-2.1,1-3.1,3-4.5,4.7c-1,2-2.9,3.3-4.2,5
				c-1,1.4-2.3,2.5-3.6,3.7C164.3,125.6,162.7,127.4,161.2,129.2z"/>
			<path class="st6" d="M101,90.1c5-6.1,10.4-12,16.2-17.4c3.2,2.6,6.7,4.8,9,8.3c-0.8,1.9-2.7,3-3.6,4.9c-2.9,3.3-5.8,6.6-8.4,10.1
				c-1.1,0.8-1.8,2-2.7,3c-0.4,0.4-0.7,1-1.3,1.1c-1.6-0.3-2.2-1.8-3.1-2.9C105,94.8,102.7,92.7,101,90.1z"/>
			<path class="st7" d="M166,76.3c-2.7,2.4-5.5,4.8-8,7.4c-0.5,0.5-1.1,0.9-1.6,1.4c-1.3-0.1-1.5-1.4-2.3-2.1
				c-0.8-0.6-1.4-1.4-2.2-2.1c-2.8-2.9-5.7-5.6-8.7-8.3c-1.6-1.5-3.5-2.6-5-4.2c0-0.5,0.3-0.9,0.6-1.2c2.4-2,4.5-4.3,7.1-6
				c0.6-0.4,1.3-1.3,2.2-0.4c1.6,1.2,3.2,2.3,4.8,3.5c0.5,0.4,1,0.9,1.7,0.9c2.4,1.8,4.9,3.6,6.5,6.1
				C162.7,72.9,164.4,74.6,166,76.3z"/>
			<path class="st8" d="M166.2,124.2c0.1-0.2,0.1-0.5,0.2-0.7c2.7-2.6,4.8-5.6,7.7-8c5.1,5.6,10.4,11.1,16.4,15.8
				c5.6,4.5,11.7,8.2,19.3,10.1C197.5,141.5,179.8,136,166.2,124.2z"/>
			<path class="st9" d="M101,90.1c2.7,2.4,4.8,5.3,7.2,8c0.6,0.6,1,1.3,1.8,1.8c1.5,1.4,2.9,2.9,3.8,4.8c-0.8,2.3-2.8,3.5-4.1,5.3
				c-1.1,1.4-2.5,2.6-3.8,3.8c-0.4,0.4-0.7,0.8-1.4,0.6c-3.8-4.5-7.6-9-11.4-13.4c-0.6-0.7-0.4-1.1,0.1-1.7
				C95.8,96.2,98.4,93.1,101,90.1z"/>
			<path class="st9" d="M129.6,137.2c-6.1-3.7-11.5-8.3-16.4-13.4c0.7-1.5,2-2.3,3.1-3.4c1.4-1.5,2.9-3,4.4-4.4
				c0.5-0.5,0.9-1,1.6-1.1c1.8,1.1,2.9,2.8,4.2,4.3c2.8,3.3,6.1,6.2,8.8,9.7c1,1.1,2.4,1.7,2.8,3.3c-0.4,1.1-1.5,1.5-2.4,2.1
				c-1.4,1-2.8,1.8-4.3,2.6C130.9,137.2,130.3,137.6,129.6,137.2z"/>
			<path class="st10" d="M122.4,115.1c-2.5,2.4-4.9,4.8-7.4,7.2c-0.6,0.5-1.2,1-1.8,1.5c-3.1-3-6-6.1-8.7-9.4
				c3.4-2.9,6.4-6.3,9.1-9.8c1.1-1.6,2-3.4,4-4.2c0.5,0,0.9,0.3,1.2,0.7c2.4,3,5,5.9,7.4,8.9c0.2,0.2,0.2,0.4,0.2,0.7
				C125.2,112.2,124.2,114,122.4,115.1z"/>
			<path class="st11" d="M126,81c-1.8-2.3-4.1-4-6.2-5.8c-0.9-0.8-1.8-1.5-2.5-2.5c2.9-2.8,6.1-5.4,9.5-7.6c2,0.4,3.3,2.1,4.9,3.2
				c1.3,0.9,2.4,2,3.6,3c1.4,1.6,3.2,2.8,4.3,4.6c-0.2,1.2-1.1,1.9-1.9,2.5c-2,1.6-3.6,3.7-5.4,5.5c-0.5,0.5-0.9,1.1-1.8,1.2
				C128.7,84,127.4,82.4,126,81z"/>
			<path class="st12" d="M135,71.6c-2.7-2.2-5.5-4.3-8.2-6.5c10.7-7.6,22.8-11.7,35.9-12.6c-2.4,1.1-4.8,1.9-7.2,3.1
				c-2.3,1.2-4.5,2.5-6.6,4c-0.4,0.3-0.8,0.5-0.7,1.1c-0.4-0.1-0.7-0.1-1.1,0.2c-3.1,2.2-5.9,4.8-8.7,7.5
				C137.6,69.7,136.5,70.8,135,71.6z"/>
			<path class="st13" d="M129.6,137.2c3.1-1.2,5.8-3,8.3-5.1c1.4-1.3,2.9-2.4,4.4-3.6c0.4-0.3,0.8-0.5,1.3-0.4
				c3.4,2.4,6.8,4.8,10.2,7.3c-1.6,1.2-3.2,2.5-4.8,3.7c-0.4,0.3-1.2,0.5-1,1.3c-2,0.9-3.7,2.4-5.8,3.2
				C137.9,141.9,133.6,139.8,129.6,137.2z"/>
			<path class="st14" d="M161.1,71.2c-2.1-2.1-4.6-3.8-6.5-6.1c4.9-3.2,10.4-5.3,16-6.9c4.7-1.3,9.5-2.4,14.5-2.5
				C175.7,58.8,168.1,64.4,161.1,71.2z"/>
			<path class="st15" d="M142.3,143.6c1.8-1.3,3.4-2.9,5.8-3.2c4.2,2.6,8.3,5.3,13.1,6.7c1.3,0.4,2.6,0.8,4.3,1.3
				C157.3,147.8,149.7,146.4,142.3,143.6z"/>
			<path class="st11" d="M161.1,100.2c1.2,1.6,2.5,3.1,3.7,4.7c-0.1,1.2-1.2,1.8-1.9,2.5c-2.2,2.4-3.9,5.3-6.6,7.3
				c-1.4-0.2-2-1.5-2.9-2.3c-0.5-0.4-0.8-1.1-1.3-1.5c-3.4-3.2-6.1-7-9.1-10.5c-1.2-1.7-2.8-3.2-3.8-5c-0.1-1.1,0.6-1.7,1.2-2.3
				c2.1-2.5,4.2-5,6.3-7.4c0.4-0.4,0.7-0.8,1.3-0.8c1.6,1.4,3.2,2.8,4.1,4.8C155.1,93.2,158.1,96.7,161.1,100.2z"/>
			<path class="st16" d="M143.3,100.2c3,3.5,5.8,7.2,9.1,10.5c-1.3,1.7-2.7,3.3-4.4,4.7c-2.9,2.3-5,5.5-7.8,8
				c-0.4,0.4-0.3,0.7-0.2,1.1c-1.9,1.3-3.3,3.2-5,4.6c-2.1-3.1-5.2-5.3-7.4-8.3c-0.4-0.5-0.8-1-1.3-1.5c1-1.8,2.7-3.1,3.8-4.8
				c3-3.1,5.9-6.4,8.7-9.8C140.5,103.4,141.4,101.3,143.3,100.2z"/>
			<path class="st4" d="M139.1,104.9c-0.2,1.4-1.5,2-2.3,2.9c-2,2.4-4,5-6.5,6.9c-2-0.7-2.8-2.5-3.9-4.1c-2.5-3-5.1-6.1-7.6-9.1
				c-0.3-0.4-0.7-0.9-1.2-1c-1.2-1.5-2.9-2.7-3.5-4.7c0.1-1.5,1.4-2.2,2.2-3.2c2.1-2.3,3.7-5,6.2-7c1.1,0,1.6,0.9,2.2,1.6
				c0.6,0.8,1.3,1.5,2,2.2c3.2,3.4,6,7,9.1,10.5c0.8,1.1,1.7,2.1,2.6,3.2C138.6,103.7,139.2,104.1,139.1,104.9z"/>
			<path class="st17" d="M126.4,89.7c1.5-1.5,3.1-2.7,4-4.7c3-3,6-6,9-9c1.2-1.4,2.5-2.7,4.1-3.7c3,2.6,6,5.3,8.6,8.3
				c-1.6,1.2-2.8,2.8-4,4.4c-3.1,3.3-6.2,6.6-8.7,10.5c-1.2,1.7-2.4,3.4-4,4.8C132.4,96.7,129.4,93.2,126.4,89.7z"/>
		</g>
		<path d="M125,109.3l-11.4,19.5l-13.9-7.6l13.9-24.6l4.7-8.4c0,0,0.6-1,1.5-1.1h13.6c0,0,1.3-0.5,1.7,1.1l1.1,4.1L125,109.3z"/>
	</g>
</g>
</svg>
