<svg width="256" height="256" viewBox="0 0 256 256" fill="none" xmlns="http://www.w3.org/2000/svg">
<g clip-path="url(#clip0_10_63)">
<path d="M123.366 236.795C72.8081 236.795 32.3615 195.456 38.7319 133.472C39.6071 125.584 41.2492 117.794 43.636 110.21C43.181 165.625 80.2401 201.778 125.894 201.778C165.582 201.778 204.259 168.168 211.489 122.755C211.489 123.323 211.691 123.841 211.792 124.385C223.067 185.726 174.076 236.795 123.366 236.795Z" fill="#863C1C"/>
<path d="M211.489 123.125C204.108 169.329 165.582 203.68 125.894 203.68C80.2402 203.68 43.1811 166.637 43.6361 110.333C56.8065 67.3151 92.5259 22.5435 135.273 22.5435C175.037 22.5435 202.439 75.5878 211.489 123.125Z" fill="#D76A27"/>
<path fill-rule="evenodd" clip-rule="evenodd" d="M201.512 89.7345C193.043 122.902 162.343 147.474 125.768 147.474C92.1736 147.474 63.5359 126.744 52.5282 97.6641C67.6036 58.789 99.4024 21.9999 136.739 21.9999C166.298 21.9999 188.772 53.5255 201.512 89.7345Z" fill="#DC7C27"/>
<path fill-rule="evenodd" clip-rule="evenodd" d="M190.178 63.885C193.177 81.2136 189.247 99.8074 177.727 115.325C155.277 145.566 112.505 152.672 82.1934 131.198C67.7555 120.969 58.7486 106.102 55.7003 90.0669C71.7902 54.1305 101.846 21.9999 136.739 21.9999C158.911 21.9999 177.097 39.7378 190.178 63.885Z" fill="#E28825"/>
<path d="M168.805 109.004C187.935 83.2345 182.865 47.7659 157.481 29.7824C132.097 11.7989 96.0102 18.1105 76.8799 43.8797C57.7496 69.649 62.8196 105.118 88.204 123.101C113.588 141.085 149.675 134.773 168.805 109.004Z" fill="#E38E25"/>
<path d="M159.883 102.683C175.685 81.396 171.912 52.3913 151.456 37.8988C130.999 23.4063 101.605 28.9141 85.8023 50.2007C69.9997 71.4874 73.7726 100.492 94.2293 114.985C114.686 129.477 144.08 123.969 159.883 102.683Z" fill="#E79424"/>
<path d="M147.99 99.4119C159.268 84.2197 157.343 64.0631 143.69 54.3908C130.037 44.7184 109.827 49.1931 98.5484 64.3853C87.2702 79.5774 89.1953 99.734 102.848 109.406C116.501 119.079 136.712 114.604 147.99 99.4119Z" fill="#EEA920"/>
<path d="M140.598 91.4386C149.179 79.8789 148.321 64.9712 138.68 58.1413C129.04 51.3114 114.268 55.1457 105.686 66.7054C97.1045 78.2651 97.963 93.1728 107.604 100.003C117.244 106.833 132.016 102.998 140.598 91.4386Z" fill="#F2B51C"/>
<path d="M131.316 82.2766C136.005 75.9612 136.296 68.3556 131.967 65.289C127.639 62.2223 120.329 64.8559 115.641 71.1713C110.952 77.4866 110.661 85.0922 114.99 88.1589C119.318 91.2255 126.628 88.5919 131.316 82.2766Z" fill="#F5C116"/>
<path d="M46.8971 108.259L82.7681 99.3936L103.497 120.063L130.166 111.938L145.713 124.483L170.992 113.42L185.806 131.126C185.806 131.126 200.695 126.015 206.534 119.693" stroke="#231F20" stroke-width="5.05582" stroke-miterlimit="10"/>
<path d="M100.312 84.6265C98.3652 85.5155 94.4723 82.972 92.728 79.8357C89.1889 73.3163 97.0255 62.5494 103.699 57.3141C109.177 53.0071 115.934 50.5469 122.962 50.3008C126.981 50.1032 132.214 49.8316 135.804 53.2642C139.393 56.6967 139.697 61.4134 139.216 61.7345C120.687 74.3041 115.631 77.7367 100.312 84.6265Z" fill="#F9DE88"/>
<path fill-rule="evenodd" clip-rule="evenodd" d="M81.2062 65.3477C65.6274 85.8716 55.3072 112.077 53.1156 134.329L53.113 134.356L53.1102 134.383C52.7099 138.224 52.5041 141.869 52.5041 145.4V145.438L52.5038 145.476C52.294 171.475 60.7751 190.878 73.7496 203.768C86.7807 216.715 105.067 223.813 125.743 223.813C160.851 223.813 194.862 198.252 201.474 156.758C203.08 146.529 202.978 136.114 201.174 125.916L201.171 125.899C197.134 102.841 188.746 78.5434 177.04 60.2828C165.151 41.7365 151.303 31.5 136.739 31.5C116.512 31.5 96.9015 44.6703 81.2062 65.3477ZM66.0722 53.8602C83.4988 30.902 108.051 12.5 136.739 12.5C160.978 12.5 179.829 29.4278 193.035 50.0288C206.424 70.9145 215.53 97.7453 219.886 122.619C222.054 134.884 222.175 147.412 220.242 159.715L220.241 159.725L220.239 159.735C212.134 210.642 170.007 242.813 125.743 242.813C100.688 242.813 77.3777 234.156 60.3583 217.247C43.2895 200.288 33.2675 175.747 33.5041 145.361C33.5056 141.11 33.7537 136.824 34.2098 132.44C36.7761 106.445 48.5351 76.9639 66.0722 53.8602Z" fill="#231F20"/>
</g>
<defs>
<clipPath id="clip0_10_63">
<rect width="256" height="256" fill="white"/>
</clipPath>
</defs>
</svg>
