<svg id="Layer_1" data-name="Layer 1" xmlns="http://www.w3.org/2000/svg" xmlns:xlink="http://www.w3.org/1999/xlink" viewBox="0 0 70.9 98.53"><defs><style>.cls-1,.cls-12,.cls-13{fill:none;}.cls-2{fill:#863c1c;}.cls-3{fill:#d76a27;}.cls-4{clip-path:url(#clip-path);}.cls-5{fill:#dc7c27;}.cls-6{fill:#e28825;}.cls-7{fill:#e38e25;}.cls-8{fill:#e79424;}.cls-9{fill:#eea920;}.cls-10{fill:#f2b51c;}.cls-11{fill:#f5c116;}.cls-12,.cls-13{stroke:#231f20;stroke-miterlimit:10;}.cls-12{stroke-width:4px;}.cls-13{stroke-width:2px;}.cls-14{fill:#f9de88;}</style><clipPath id="clip-path" transform="translate(-15.27 1.51)"><path id="SVGID" class="cls-1" d="M83.66,64.94C80.75,83.65,65.49,97.49,49.79,97.49c-18.09,0-32.71-14.92-32.52-37.76,0-1.58.1-3.19.26-4.86C19.42,35.3,35,9.75,54.38,9.76c15.35,0,25.86,22,29.17,41.42A42.71,42.71,0,0,1,83.66,64.94Z"/></clipPath></defs><title>AlchEgg</title><path class="cls-2" d="M49.06,96.41c-20,0-36-16.74-33.48-41.84a50.62,50.62,0,0,1,1.94-9.42C17.34,67.59,32,82.23,50.06,82.23c15.7,0,31-13.61,33.86-32,0,.23.08.44.12.66C88.5,75.73,69.12,96.41,49.06,96.41Z" transform="translate(-15.27 1.51)"/><path class="cls-3" d="M83.92,50.38C81,69.09,65.76,83,50.06,83,32,83,17.34,68,17.52,45.2,22.73,27.78,36.86,9.65,53.77,9.65,69.5,9.65,80.34,31.13,83.92,50.38Z" transform="translate(-15.27 1.51)"/><g class="cls-4"><circle class="cls-5" cx="34.74" cy="30.87" r="30.88"/><ellipse class="cls-6" cx="48.85" cy="31.48" rx="27.39" ry="26.82" transform="translate(-20.58 54.05) rotate(-54.05)"/><ellipse class="cls-7" cx="48.85" cy="31.48" rx="23.34" ry="22.46" transform="translate(-20.58 54.05) rotate(-54.05)"/><ellipse class="cls-8" cx="48.85" cy="31.48" rx="19.28" ry="18.1" transform="translate(-20.58 54.05) rotate(-54.05)"/><ellipse class="cls-9" cx="49.02" cy="33.69" rx="13.76" ry="12.08" transform="translate(-22.3 55.1) rotate(-54.05)"/><ellipse class="cls-10" cx="48.97" cy="32.54" rx="10.47" ry="8.53" transform="translate(-21.39 54.59) rotate(-54.05)"/><ellipse class="cls-11" cx="49.11" cy="31.59" rx="5.72" ry="3.83" transform="translate(-20.57 54.31) rotate(-54.05)"/></g><path class="cls-12" d="M83.67,64.6C80.76,83.31,65.7,95,50,95c-18.09,0-32.91-12.76-32.73-35.6,0-1.58.09-3.19.26-4.86C19.41,35,35,9.43,54.35,9.43c15.35,0,25.87,22,29.19,41.41A42.73,42.73,0,0,1,83.67,64.6Z" transform="translate(-15.27 1.51)"/><path class="cls-13" d="M18.81,44.36,33,40.77l8.2,8.37,10.55-3.29,6.15,5.08,10-4.48,5.86,7.17s5.89-2.07,8.2-4.63" transform="translate(-15.27 1.51)"/><path class="cls-14" d="M39.94,34.79c-.77.36-2.31-.67-3-1.94-1.4-2.64,1.7-7,4.34-9.12a12.89,12.89,0,0,1,7.62-2.84c1.59-.08,3.66-.19,5.08,1.2s1.54,3.3,1.35,3.43C48,30.61,46,32,39.94,34.79Z" transform="translate(-15.27 1.51)"/></svg>