<svg id="Capa_1" data-name="Capa 1" xmlns="http://www.w3.org/2000/svg" viewBox="0 0 255.8 255.57"><defs><style>.cls-1{fill:#00b16d;}.cls-2{fill:#ff7300;}.cls-3{fill:#006b3f;}</style></defs><path class="cls-1" d="M118.72,234.22c0,.15-.1.29-.16.44l-.07.19c-.06.17-.13.33-.19.49s0,0,0,0l-.15.37a1.11,1.11,0,0,0-.07.16l-.18.42c-.07.14-.13.29-.2.44l-.2.44-.12.23c-.14.32-.3.63-.46.94l-.22.42c-.33.63-.68,1.23-1,1.81l-.06.1-.51.82-.51.78-.28.41-.34.48c-.06.09-.13.18-.19.28l0,0-.26.36a1.34,1.34,0,0,1-.11.14l-.21.29a1,1,0,0,1-.13.16c-.33.44-.67.87-1,1.28a2.09,2.09,0,0,0-.14.17c-.24.29-.48.58-.72.85l-.27.31-.13.16-1.18,1.3-.27.28,0,0-.35.36h0l-.26.26-.12.13-.25.25-.37.38-.11.12-.81.8-.12.13-.12.12-.1.09-.27.28-.17.17-.09.09-.31.31-.2.22-.12.13a4.4,4.4,0,0,0-.48.62l0,0a.3.3,0,0,0,0,.08.13.13,0,0,0,0,.07.06.06,0,0,0,0,0,0,0,0,0,0,0,0A128,128,0,0,1,9.53,79.51c.24,4.12,1.16,9.78,4.23,13,.15.17.31.32.47.47,1.21,1.1,1.8,3.12,15.91,1.81l.49,0,.58-.06,1.37-.12.27,0,.29,0,.42,0h0l.77-.06.73-.06.47,0h0l.3,0,.42,0h0l.28,0H37l.27,0h.41l.44,0,.79,0h3l.89,0h.17l.63,0h.21l.21,0,.51.08.27,0h0l2,.77.36.21.16.1h0l.06,0,.11.07.17.11.35.22.18.12.1.06.2.12.1.06a21.93,21.93,0,0,1,11,16.82c.3,4.65-2.06,10.81-2.89,12.71l-.14.32-.27.65-.14.33c-.23.57-.45,1.16-.68,1.78l-.27.76-.1.26c-.1.32-.21.63-.32,1l-.12.39,0,.1c0,.11-.07.21-.1.32s-.09.28-.14.43a2.76,2.76,0,0,1-.08.27l-.18.61c0,.15-.08.3-.13.45l-.12.46,0,.09c0,.12-.06.25-.1.37a1.33,1.33,0,0,1-.05.19c-.06.25-.13.51-.19.77s-.12.45-.17.67l-.09.39c0,.15-.07.29-.1.44s-.11.45-.16.69,0,.23-.07.34-.07.32-.11.48l-.15.77c0,.12,0,.25-.07.37l-.21,1.13-.15.85v0c0,.29-.09.59-.14.89l-.21,1.39c0,.31-.09.63-.13.94-.06.49-.13,1-.18,1.48l-.06.44-.06.62c0,.13,0,.27,0,.41s0,.37-.05.56A66.44,66.44,0,0,0,51.21,159c.43,5.46,2.63,11.56,6.61,18.41,5.38,9.25,12.24,17.65,14.62,18.45,2.07.69-3.54-7.88-6.48-17.48L65.57,177c-.28-1-.53-2.07-.72-3.07-.07-.31-.12-.62-.18-.93l0-.14c-.07-.38-.13-.77-.18-1.15,0-.21-.06-.42-.08-.63a.06.06,0,0,0,0,0l-.06-.58-.06-.62c0-.2,0-.41-.05-.61s0-.61,0-.9,0-.39,0-.59,0-.3,0-.45,0-.52,0-.78v-.25c0-.1,0-.2,0-.3s0-.25,0-.38,0-.28,0-.42l0-.41,0-.4v0c0-.25,0-.5.08-.74a.28.28,0,0,1,0-.09c0-.12,0-.23,0-.35v0c0-.12,0-.24,0-.36l.06-.38c0-.25.08-.49.13-.74a.43.43,0,0,1,0-.11c0-.22.08-.43.13-.64s0-.23.08-.35l.09-.35c0-.18.09-.35.14-.52l.15-.5c0-.11.07-.22.1-.33s.08-.22.11-.32l.12-.32h0c0-.1.08-.2.11-.3l.12-.29,0-.05c0-.09.07-.18.11-.26L66,157l0-.09.24-.5.14-.28h0l.15-.26c0-.09.09-.17.14-.26s.1-.17.16-.25l.15-.24a2,2,0,0,1,.16-.24,1.88,1.88,0,0,1,.16-.23,1.77,1.77,0,0,1,.16-.22l.18-.24.15-.18c.17-.21.35-.41.53-.6l.15-.15.34-.31a2.75,2.75,0,0,1,.26-.22l.18-.14v0l.16-.11.24-.17.17-.11.19-.11.43-.23.18-.08.21-.09.18-.07.2-.06.08,0,.07,0,.14,0,.15,0,.18,0,.09,0,.21,0,.14,0,.2,0h.26a6.82,6.82,0,0,1,1.1.06l.16,0,.19,0,.14,0c.36.07.73.15,1.1.26l.14.05a11.36,11.36,0,0,1,1.43.55l.14.07a11.49,11.49,0,0,1,2.8,1.89l.11.1a1.14,1.14,0,0,1,.11.11,5.77,5.77,0,0,1,.42.44l.09.1.09.11.1.12.09.11c0,.08.11.15.17.23a6.52,6.52,0,0,1,.53.87c0,.1.09.19.13.29,3.11,7,.65,12,.74,19.26a31.61,31.61,0,0,0,1.79,10.07c3.38,9.89,11,13.44,14.47,14.12,5.42,1.09-5.85-2.52-6.51-15.57-.55-10.74,2-13.49,4.58-14.68a9.47,9.47,0,0,1,7.35-.27C111.78,172,129.23,205.05,118.72,234.22Z" transform="translate(-0.09 -0.09)"/><path class="cls-2" d="M255.89,127.88A127.7,127.7,0,0,1,107,253.89l.14,0c.18,0,.38-.08.59-.14l.16,0,.69-.21.18-.07.23-.08.41-.15.39-.15L110,253c.38-.15.77-.32,1.18-.5l.11-.06c.39-.17.8-.37,1.21-.58l.5-.25,0,0c.36-.18.73-.38,1.1-.59l.57-.32.58-.33.59-.35,1.22-.75.61-.4.63-.42.32-.21.63-.45c.63-.44,1.27-.9,1.91-1.39l.16-.12.87-.67.33-.27c.24-.18.47-.38.71-.57l.32-.27c.42-.34.84-.71,1.26-1.08l.31-.27.31-.28.28-.25.27-.25.37-.34,1.18-1.13.33-.33a1.59,1.59,0,0,0,.13-.13l.32-.32.55-.56.3-.33.4-.42c.11-.11.21-.22.31-.34s.21-.22.31-.34l.62-.69.31-.35.3-.36.31-.36.9-1.1.3-.37.29-.38.3-.39c.2-.25.39-.51.58-.77l.29-.39.29-.4c.09-.14.19-.27.28-.4l.28-.41c.1-.13.19-.27.28-.41s.19-.27.28-.41l.35-.53.1-.16.32-.49.32-.51.24-.39.28-.48.25-.42v0l.26-.44.25-.45c.08-.13.16-.28.23-.42l.05-.08.1-.2.15-.26.21-.4.36-.7a1.63,1.63,0,0,0,.11-.23c.06-.11.12-.23.17-.34s.11-.21.16-.32l.22-.46.1-.2q.45-1,.87-2c.08-.19.17-.39.25-.59A56.45,56.45,0,0,0,145.35,201a37.09,37.09,0,0,0-.1-3.94c-.83-10.56-5.51-21.32-2.06-30.1,7.73-19.74,29.32-38,48.91-52.08,18.84-13.6,36.8-22.08,39.67-23.23l1.37-.53.3-.11.11,0,.27-.09.28-.1.58-.21.67-.23.54-.19.94-.32.36-.12.72-.24.72-.24.73-.25.36-.12,2.37-.82.25-.08.52-.19.31-.11.71-.26.28-.11a31.25,31.25,0,0,0,3.31-1.41l.19-.1.09,0,.17-.1.3-.19.06,0a2.45,2.45,0,0,0,.29-.23A127.77,127.77,0,0,1,255.89,127.88Z" transform="translate(-0.09 -0.09)"/><path class="cls-3" d="M248.19,84.07l-.1,0-.1,0-.12,0c-.79-.19-4-.35-4-.35-9.11.37-9.19.54-14.56,1.38-.76.11-3.45.83-4.2,1-10.67,2.6-22,7-33.6,11.8-20.24,8.37-41.16,17.91-60.24,20.94a49.72,49.72,0,0,1-16.55-.1c-18.64-3.3-30.3-16.79-32.62-22a41.36,41.36,0,0,1-3.47-13.18c-.93-9.66,1.31-16.84-4.85-24.12-4.41-5.22-10.66-7.57-16.62-8.5a47.93,47.93,0,0,0-9.51-.47,50.13,50.13,0,0,0-8.22,1l-.37.1c-.28.06-.57.13-.83.21a1.14,1.14,0,0,0-.25.06l-.15,0-.74.19,0,0-.25.06-1.12.31,0,0a1.66,1.66,0,0,0-.21.06h0l-.47.13-.14,0-.44.13q-1,.31-2.1.66l-.76.26-.1,0-.18.06-.72.26-.21.07L29,54.57l-.33.13-.81.32-.38.16-.1,0-.45.19-.35.15-.13.06,0,0c-1.23.54-2.43,1.12-3.58,1.76l-.06,0-.92.52L21.7,58l-.46.28a127.56,127.56,0,0,1,227,25.76Z" transform="translate(-0.09 -0.09)"/></svg>