<?xml version="1.0" encoding="UTF-8"?><svg width="256" height="256" viewBox="0 0 256 256" xmlns="http://www.w3.org/2000/svg"><defs><style>.cls-1{fill:#70e100;}.cls-1,.cls-2{stroke-width:0px;}.cls-2{fill:#071736;}</style></defs><g id="Capa_1-2"><path class="cls-2" d="M118.26,480.17c-32.72-28.81-54.09-63.62-63.82-104.11-13.28-55.24-3.97-117.83,27.65-186l4.6-9.91,34.23,22.21-17.28-100.15L8,131.5l20.02,9.16-3.36,8.39c-44.84,111.9-20.21,194.16,8.36,243.47,20.77,35.86,50.67,66.1,85.24,87.65Z"/><path class="cls-2" d="M475.38,116.74l-5.74-6.98C393.07,16.65,309.07-1.27,252.12.07c-41.43.98-82.32,12.67-117.84,32.62,41-14.85,81.79-16.86,121.98-5.93,54.83,14.91,105.23,53.15,149.82,113.64l6.48,8.79-35.93,19.35,96.13,32.98,20.28-97.94-17.66,13.15Z"/><path class="cls-2" d="M516.05,269.82c-8.35,42.8-27.61,78.81-57.65,107.65-40.99,39.35-99.7,62.91-174.52,70.03l-10.88,1.03,1.89-40.76-77.72,65.47,73.56,67.77-2.2-21.91,8.94-1.33c119.24-17.78,177.81-80.58,205.95-130.12,20.47-36.04,31.48-77.11,32.63-117.83Z"/><path class="cls-1" d="M347.21,223.43s-29.01,6.49-42.67,23.99c-6.99,8.96-10.17,16.08-11.75,22.97-.59-2.48-1.42-5-2.59-7.43-6.16-12.83-18.93-21.95-29.38-23.74,0,0-1.92,20.58,6.74,33.38,6.83,10.09,12.7,13.28,19.82,16.08v35.91c0,2.46-1.08,4.78-2.95,6.37l-36.15,30.6v-155.71c13.08-2.67,22.4-14.68,21.53-28.24-.88-13.62-12.25-24.69-25.9-25.22-7.44-.3-14.46,2.39-19.8,7.53-5.34,5.14-8.29,12.06-8.29,19.47,0,13.47,9.98,24.79,23.09,26.71v107.08l-43.6-27.06c-1.77-1.1-2.82-2.99-2.82-5.07v-26.67c9.98-2.36,17.11-11.7,16.53-22.13-.62-11.04-9.77-19.93-20.82-20.25-5.87-.18-11.4,1.98-15.6,6.07-4.21,4.09-6.53,9.56-6.53,15.41,0,10.28,7.2,18.97,17.06,21.03v29.11c0,3.73,1.89,7.13,5.06,9.1l50.73,31.49v43.83c0,2.47,1.45,4.73,3.68,5.77.85.39,1.76.59,2.67.59,1.48,0,2.95-.51,4.12-1.5l42.73-36.17c2.95-2.49,4.63-6.13,4.63-9.99v-36.98c7.57-1.77,20.94-6.06,31-15.63,14.82-14.11,21.64-35.62,19.47-50.69Z"/></g></svg>
