<svg width="256" height="256" viewBox="0 0 256 256" fill="none" xmlns="http://www.w3.org/2000/svg">
<path fill-rule="evenodd" clip-rule="evenodd" d="M75.5588 88.6667V101.775H88.6667V114.892H101.775V128H114.892V141.108H128V154.226H141.108V141.108H154.225V128H141.108V114.892H128V101.775H114.892V88.6667H101.775V75.559H75.5588V88.6667ZM101.775 95.2256V101.775H114.892V114.892H128V128H141.108V141.108H128V128H114.892V114.892H101.775V101.775H88.6667V88.6667H101.775V95.2256ZM206.666 95.2256V101.775H193.559V180.441H154.225V193.559H128V206.666H88.6667V219.775H167.334V206.666H193.559V193.559H206.666V167.334H219.774V88.6667H206.666V95.2256Z" fill="#FCE280"/>
<path fill-rule="evenodd" clip-rule="evenodd" d="M173.892 124.725V134.559H160.774V141.108H154.225V154.225H141.108V160.774H134.559V173.892H114.892V180.441H141.108V167.334H154.225V180.441H180.441V154.225H167.334V141.108H180.441V114.892H173.892V124.725ZM173.892 167.334V173.892H160.774V167.334H167.334V160.774H173.892V167.334Z" fill="#8C6C04"/>
<path fill-rule="evenodd" clip-rule="evenodd" d="M88.6667 29.6667V36.2255H62.4412V49.3334H49.3333V62.4412H36.2255V88.6667H23.1079V167.334H36.2255V193.559H49.3333V206.666H62.4412V219.775H88.6667V232.892H167.334V219.775H193.559V206.666H206.666V193.559H219.774V167.334H232.892V88.6667H219.774V62.4412H206.666V49.3334H193.559V36.2255H167.334V23.1079H88.6667V29.6667ZM167.334 42.7745V49.3334H193.559V62.4412H167.334V49.3334H88.6667V62.4412H62.4412V88.6667H49.3333V167.334H62.4412V193.559H49.3333V167.334H36.2255V88.6667H49.3333V62.4412H62.4412V49.3334H88.6667V36.2255H167.334V42.7745ZM101.775 82.1079V88.6667H114.892V101.775H128V114.892H141.108V128H154.225V114.892H193.559V101.775H206.666V88.6667H219.774V167.334H206.666V193.559H193.559V206.666H167.334V219.775H88.6667V206.666H114.892V154.226H128V141.108H114.892V128H101.775V114.892H88.6667V101.775H75.5588V75.5589H101.775V82.1079Z" fill="#FAC814"/>
<path fill-rule="evenodd" clip-rule="evenodd" d="M88.6667 42.7745V49.3333H62.4412V62.4411H49.3334V88.6666H36.2256V167.334H49.3334V193.559H62.4412V167.334H49.3334V88.6666H62.4412V62.4411H88.6667V49.3333H167.334V62.4411H193.559V49.3333H167.334V36.2255H88.6667V42.7745Z" fill="#E1A404"/>
<path fill-rule="evenodd" clip-rule="evenodd" d="M88.6666 16.5588V23.1079H62.4411V36.2255H49.3334V49.3334H36.2255V62.4411H23.1079V88.6666H10V167.334H23.1079V193.559H36.2255V206.666H49.3334V219.775H62.4411V232.892H88.6666V246H167.334V232.892H193.559V219.775H206.666V206.666H219.775V193.559H232.892V167.334H246V88.6666H232.892V62.4411H219.775V49.3334H206.666V36.2255H193.559V23.1079H167.334V10H88.6666V16.5588ZM167.334 29.6666V36.2255H193.559V49.3334H206.666V62.4411H219.775V88.6666H232.892V167.334H219.775V193.559H206.666V206.666H193.559V219.775H167.334V232.892H88.6666V219.775H62.4411V206.666H49.3334V193.559H36.2255V167.334H23.1079V88.6666H36.2255V62.4411H49.3334V49.3334H62.4411V36.2255H88.6666V23.1079H167.334V29.6666Z" fill="#040404"/>
<path fill-rule="evenodd" clip-rule="evenodd" d="M88.6665 95.2255V101.774H101.774V114.892H114.892V128H128V141.108H141.108V154.225H154.225V141.108H141.108V128H128V114.892H114.892V101.774H101.774V88.6666H88.6665V95.2255ZM167.334 164.059V167.334H160.774V173.892H173.892V160.774H167.334V164.059Z" fill="#B48404"/>
<path fill-rule="evenodd" clip-rule="evenodd" d="M180.441 128V141.108H167.334V154.225H180.441V180.441H193.559V114.892H180.441V128ZM141.108 173.892V180.441H114.892V206.666H128V193.559H154.225V167.334H141.108V173.892Z" fill="#FCD542"/>
<path fill-rule="evenodd" clip-rule="evenodd" d="M154.225 128V141.108H160.774V134.559H173.892V114.892H154.225V128ZM114.892 164.059V173.892H134.559V160.774H141.108V154.225H114.892V164.059Z" fill="#DCAC04"/>
</svg>
