<svg xmlns="http://www.w3.org/2000/svg" version="1.0" viewBox="0 0 256 256"><g fill="#FFF" stroke-width="0"><path d="M0 128v128h256V0H0zM105 26.5c3.6.9 7 1.9 7.7 2.3.8.5.2 4.4-2.3 14.2-1.9 7.4-3.4 13.8-3.4 14.2 0 .7 2.7 1.5 10 3.3 2.5.6 2.6.5 5.9-13.2 1.9-7.6 3.7-14.1 4-14.5.6-.7 17.6 3.4 18.8 4.6.4.4-.9 7.1-2.9 14.9l-3.5 14.2 2.6 1.2c1.4.6 4.8 2.1 7.6 3.3 21.4 9.5 30.1 24.5 24.8 43.4-2.8 10.2-9 17.9-16.6 20.7l-3.5 1.2 4.1 3c5.1 3.5 8.1 6.9 11 12.2 1.7 3.3 2.1 5.7 2.1 13 0 18.9-9.7 34.9-24.5 40.6-5.5 2.1-8.1 2.4-18.9 2.4-6.9 0-15-.4-18-.8l-5.5-.9-3.5 14.6c-3.1 13.1-3.7 14.6-5.6 14.6-2.7 0-15.6-2.9-17.1-3.8-.7-.5.1-5.2 2.6-15.3l3.7-14.7-5.5-1.3c-3.1-.7-6-1.3-6.5-1.4-.5 0-2.6 6.5-4.6 14.5-2.1 8-4.1 14.5-4.6 14.5-2.2-.1-16.1-3.7-17.4-4.5-1.2-.8-.9-3.1 2.3-15.6 2-8.1 3.6-14.8 3.4-14.9-.1 0-8.1-2-17.7-4.4s-17.8-4.5-18.2-4.8c-.4-.2.5-2.9 1.9-6.1 4.9-11.1 7.3-16.2 7.6-16.2.2 0 3.9.9 8.2 2 7.1 1.8 8.1 1.9 10.2.5 1.3-.9 2.3-1.8 2.3-2 0-.3 2.7-11.2 5.9-24.2C67.5 75.2 67.1 76.9 65 73c-.9-1.8-5-3.4-15.2-6-2.7-.7-4.8-1.5-4.8-1.9 0-1.7 4.4-18.7 5-19.4.4-.5 6.6.6 13.6 2.4 7.1 1.8 15.2 3.8 18 4.4l5.2 1.3 2.6-11.2c4.8-19.7 4.5-18.9 6.9-18.2 1.2.3 5.1 1.3 8.7 2.1m125 46V78h-21.7l-.7 3.7c-1.1 6.9-1 7 4.6 7.6 14.2 1.7 22.2 12.1 18.9 24.5-2.6 9.6-10 14.1-22.8 14.2-8.7 0-18.3-1.6-18.3-3 0-.5.5-3.2 1.1-6 1-4.7 1.3-5.1 3.3-4.5 1.1.4 5.8 1 10.3 1.2 7.8.5 8.3.4 10.7-2.1 3.1-3 3.2-4.5.6-7.9-2.5-3.2-7.5-4.7-15.6-4.7-3.3 0-6.3-.2-6.5-.5-.3-.2-.2-3.5.2-7.2.4-3.8 1-11.2 1.4-16.6l.7-9.7H230zm-.5 79.5c.8 6.1.3 7-4.2 7-5.8 0-11.2 2.1-15.6 6.1l-4.2 3.8 7.3.1c8.3 0 12.6 1.5 16.3 5.6 6.4 7 6.5 17.7.2 26.2-3.7 4.9-9 7.2-17 7.2-9.3 0-14.7-2.7-18.8-9.4-2.9-4.7-3-5.5-3-16 0-9.5.3-11.8 2.4-16.4 5-11 17.8-19 30.8-19.1l5.1-.1z"/><path d="M112.5 94.8c-4.4 4.2-15.4 14.4-24.3 22.6l-16.3 15 10.8 2.3c5.9 1.3 11.9 2.6 13.2 2.9 2.1.5 2.3.9 1.8 4.7-.3 2.3-1.5 8.5-2.7 13.7-1.1 5.2-2.5 11.5-3 14s-1.2 5.4-1.6 6.5c-1.1 2.7 1.8.3 24.6-21 10.2-9.5 19.8-18.4 21.4-19.7l3-2.5-7.5-1.7c-4-.9-10.1-2.3-13.4-3s-5.9-1.7-5.8-2.2c.3-1.6 3.2-15.7 5.7-27.4 1.3-6.3 2.4-11.6 2.3-11.7s-3.8 3.3-8.2 7.5m91.5 90.4c0 2.5.8 5.7 2 7.5 1.7 2.8 2.5 3.3 5.9 3.3 4.7 0 8.1-3.5 8.1-8.1 0-4.8-3.1-6.9-10-6.9h-6z"/></g><path fill="#004040" d="M94.6 26.2c-.3.7-1.9 7.5-3.8 15l-3.3 13.7-3-.6c-1.6-.3-9.7-2.3-18-4.4-8.2-2.1-15.3-3.5-15.6-3.1s-1.6 4.5-2.7 9.2c-1.5 5.9-1.8 8.7-1 9.1.6.4 3.7 1.2 6.8 1.8 3.2.7 7.3 2.2 9.1 3.4 5.5 3.7 5.2 6-5.6 49.5-5.2 21.3-10.2 40.2-11 41.9-1.9 4.3-4.5 4.8-13.5 2.4-4.1-1-7.5-1.8-7.6-1.7-.6 1.1-8.4 19.5-8.4 19.9 0 .2 7.8 2.4 17.2 4.7 9.5 2.4 17.7 4.6 18.1 5 .5.4-.8 7.2-2.8 15s-3.3 14.5-3 14.9c.4.3 4.3 1.5 8.8 2.6l8.2 2 3.5-14.2c1.9-7.8 3.9-14.5 4.3-14.9.6-.7 12.4 2.3 13.9 3.5.4.3-.9 6.7-2.8 14.1s-3.3 13.9-3 14.6c.4 1 14.2 4.9 16.3 4.6.3-.1 2.3-6.5 4.2-14.4l3.6-14.3 4 .2c2.2.1 8.8.5 14.7.9 22.8 1.5 36.2-5.2 43.8-22 8.9-19.7 5-36.6-10.6-45.8-3.6-2.1-4.4-3.8-1.9-3.8 3 0 9.1-3.9 13.2-8.3 3.1-3.3 4.8-6.5 6.4-11.7 6-19.9-3.6-34.8-29.1-45.1-3-1.3-5.6-2.3-5.8-2.4-.1-.1 1.4-6.6 3.4-14.5 1.9-7.8 3.2-14.6 2.7-15-.4-.5-4.4-1.7-8.8-2.7l-8-1.9-3.4 14c-1.8 7.8-3.5 14.3-3.8 14.5-.2.3-3.7-.3-7.7-1.3l-7.3-1.9 3.3-13.1c1.9-7.2 3.4-13.8 3.4-14.7 0-1.2-2-2.1-7.7-3.4-4.3-1-8.1-2-8.6-2.2-.4-.2-.9.2-1.1.9m24.9 73.3c-5 23.5-5.7 26.7-5.3 26.9.1.1 5.9 1.5 12.8 3 6.8 1.5 12.7 2.9 13 3.2.6.6-7.3 8.2-32.8 31.7-10 9.3-18.2 16.2-18.2 15.5 0-1.4.7-4.6 6.1-29.6 1.6-7.3 2-10.5 1.2-11-.6-.4-5.1-1.5-10-2.6-4.8-1-10.6-2.3-12.8-2.8l-4-1 3.5-3c1.9-1.7 11.8-10.8 22-20.3 26-24.1 26.5-24.5 26.8-23.2.1.7-.9 6.6-2.3 13.2m77-23.8c-.3 4.9-1 12.2-1.4 16.4l-.7 7.7 8.1.4c8.9.5 14 2.5 15.7 6.3 1.5 3.4-.6 8-4.3 9.5-2.9 1.3-15.9 1-19.1-.4-1.7-.8-2-.2-3.3 6-.5 2.8-.3 3.2 2.2 3.9 20 5.1 34.7-.5 36.9-14.1 1.7-10.8-6.1-19.6-18.7-21.1-2.7-.3-5.2-1-5.5-1.4-.2-.5-.2-3.1.2-5.9l.7-5H229V67h-31.8zm16.8 74.2c-14.9 5.1-22.3 15.9-22.3 32.4 0 8.9 1.5 13.7 5.7 18.6 3.9 4.7 8.5 6.4 16.4 6.3 6.4-.1 10.1-1.6 14.1-5.9 6-6.3 7.3-14.8 3.6-22.3-3.6-7.1-12.5-10.7-21.9-9-4.7.9-5.1-.4-1.4-4.9 3-3.5 11.8-7.1 17.5-7.1 4.3 0 4.6-.6 3.4-6.9-.6-2.9-.9-3.1-5.3-3.1-2.5.1-6.9.9-9.8 1.9m5.4 32.7c2.2 2.2 2.5 3.2 2 6.7-.7 5.1-3.6 7.7-8.6 7.7s-8.2-3.4-8.8-9.4c-.8-7-.3-7.6 6.7-7.6 5.2 0 6.5.4 8.7 2.6"/></svg>
