<?xml version="1.0" encoding="UTF-8"?>
<!DOCTYPE svg PUBLIC "-//W3C//DTD SVG 1.1//EN" "http://www.w3.org/Graphics/SVG/1.1/DTD/svg11.dtd">
<svg xmlns="http://www.w3.org/2000/svg" version="1.1" width="256px" height="256px" style="shape-rendering:geometricPrecision; text-rendering:geometricPrecision; image-rendering:optimizeQuality; fill-rule:evenodd; clip-rule:evenodd" xmlns:xlink="http://www.w3.org/1999/xlink">
<g><path style="opacity:1" fill="#fdfefe" d="M -0.5,-0.5 C 84.8333,-0.5 170.167,-0.5 255.5,-0.5C 255.5,84.8333 255.5,170.167 255.5,255.5C 170.167,255.5 84.8333,255.5 -0.5,255.5C -0.5,170.167 -0.5,84.8333 -0.5,-0.5 Z"/></g>
<g><path style="opacity:1" fill="#0bfdfe" d="M 198.5,31.5 C 244.895,69.0344 258.395,116.368 239,173.5C 236,178.833 233,184.167 230,189.5C 229.196,190.804 228.029,191.471 226.5,191.5C 221.221,189.796 216.054,187.796 211,185.5C 201.925,189.135 192.759,192.469 183.5,195.5C 169.849,190.949 156.183,186.616 142.5,182.5C 143.09,178.397 144.09,174.397 145.5,170.5C 150.167,170.5 154.833,170.5 159.5,170.5C 161.967,170.245 163.967,169.245 165.5,167.5C 172.26,165.62 179.26,164.953 186.5,165.5C 188.169,167.662 190.169,167.995 192.5,166.5C 194.69,156.23 197.023,145.897 199.5,135.5C 199.5,135.167 199.5,134.833 199.5,134.5C 199.5,133.833 199.5,133.167 199.5,132.5C 203.417,125.785 201.75,121.119 194.5,118.5C 190.394,115.465 186.061,112.798 181.5,110.5C 182.483,106.702 182.817,102.702 182.5,98.5C 182.5,97.5 182.5,96.5 182.5,95.5C 182.253,92.1461 181.253,89.1461 179.5,86.5C 175.213,79.2126 169.546,73.2126 162.5,68.5C 161.421,66.457 159.754,65.1237 157.5,64.5C 129.054,52.0912 104.221,57.4245 83,80.5C 80.8431,82.8171 79.3431,85.4838 78.5,88.5C 76.4131,89.5846 75.0798,91.2512 74.5,93.5C 73.0937,93.9731 72.427,94.9731 72.5,96.5C 70.4131,97.5846 69.0798,99.2512 68.5,101.5C 65.6771,104.475 63.3437,107.808 61.5,111.5C 60.0937,111.973 59.427,112.973 59.5,114.5C 58.0069,115.312 57.3402,116.645 57.5,118.5C 57.3402,120.355 58.0069,121.688 59.5,122.5C 61.4742,125.482 63.4742,128.482 65.5,131.5C 65.8333,132.833 66.1667,134.167 66.5,135.5C 65.1667,136.167 64.1667,137.167 63.5,138.5C 61.1667,140.5 58.8333,142.5 56.5,144.5C 52.4115,143.291 48.4115,141.791 44.5,140C 39.7781,133.384 35.4447,126.551 31.5,119.5C 26.3927,124.864 21.3927,130.364 16.5,136C 14.7525,136.352 13.0858,136.852 11.5,137.5C 10.1667,137.5 8.83333,137.5 7.5,137.5C 5.45603,115.359 9.28936,94.3595 19,74.5C 20.6091,71.5932 22.4424,68.9266 24.5,66.5C 27.9001,65.1003 30.2334,62.7669 31.5,59.5C 32.675,59.719 33.675,59.3857 34.5,58.5C 35.0521,56.6666 35.8855,54.9999 37,53.5C 38.6665,54.3402 38.8331,53.8402 37.5,52C 38.87,50.5587 39.87,48.892 40.5,47C 42.8713,45.1214 45.5379,43.9547 48.5,43.5C 48.3505,42.448 48.5172,41.448 49,40.5C 51.3034,42.8351 53.8034,42.8351 56.5,40.5C 58.5772,39.0124 59.5772,37.0124 59.5,34.5C 60.9778,34.762 62.3112,34.4287 63.5,33.5C 64.9793,31.2347 66.3126,28.9013 67.5,26.5C 68.1667,26.8333 68.8333,27.1667 69.5,27.5C 71.8061,25.0021 74.6395,23.3354 78,22.5C 78.3333,22.8333 78.6667,23.1667 79,23.5C 93.198,18.2684 107.698,13.9351 122.5,10.5C 126.521,11.7639 130.521,11.7639 134.5,10.5C 140.734,13.1482 147.068,14.1482 153.5,13.5C 159.945,15.3674 166.278,17.7008 172.5,20.5C 174.883,19.538 175.883,20.538 175.5,23.5C 183.032,26.4267 190.699,29.0934 198.5,31.5 Z"/></g>
<g><path style="opacity:1" fill="#35f6fc" d="M 198.5,31.5 C 190.699,29.0934 183.032,26.4267 175.5,23.5C 175.883,20.538 174.883,19.538 172.5,20.5C 166.278,17.7008 159.945,15.3674 153.5,13.5C 147.068,14.1482 140.734,13.1482 134.5,10.5C 130.521,11.7639 126.521,11.7639 122.5,10.5C 107.698,13.9351 93.198,18.2684 79,23.5C 78.6667,23.1667 78.3333,22.8333 78,22.5C 74.6395,23.3354 71.8061,25.0021 69.5,27.5C 68.8333,27.1667 68.1667,26.8333 67.5,26.5C 66.3126,28.9013 64.9793,31.2347 63.5,33.5C 62.3112,34.4287 60.9778,34.762 59.5,34.5C 59.5772,37.0124 58.5772,39.0124 56.5,40.5C 53.8034,42.8351 51.3034,42.8351 49,40.5C 48.5172,41.448 48.3505,42.448 48.5,43.5C 45.5379,43.9547 42.8713,45.1214 40.5,47C 39.87,48.892 38.87,50.5587 37.5,52C 38.8331,53.8402 38.6665,54.3402 37,53.5C 35.8855,54.9999 35.0521,56.6666 34.5,58.5C 33.675,59.3857 32.675,59.719 31.5,59.5C 30.2334,62.7669 27.9001,65.1003 24.5,66.5C 43.8803,34.9857 71.8803,15.819 108.5,9C 141.481,4.91178 171.481,12.4118 198.5,31.5 Z"/></g>
<g><path style="opacity:1" fill="#01edfe" d="M 122.5,39.5 C 150.24,37.1354 174.574,44.9688 195.5,63C 199.072,66.4034 202.072,70.2367 204.5,74.5C 204.167,74.8333 203.833,75.1667 203.5,75.5C 184.938,53.6408 161.272,42.9742 132.5,43.5C 102.15,43.7413 77.317,55.4079 58,78.5C 54.6337,84.52 51.3004,90.52 48,96.5C 47.6717,93.7929 48.005,91.1262 49,88.5C 50.9343,84.2406 53.2677,80.2406 56,76.5C 73.5544,55.616 95.7211,43.2826 122.5,39.5 Z"/></g>
<g><path style="opacity:1" fill="#f8fef9" d="M 157.5,64.5 C 158.113,70.2709 157.446,75.6042 155.5,80.5C 152.46,74.9519 148.46,70.1186 143.5,66C 136.833,65.3333 130.167,65.3333 123.5,66C 121.804,67.1764 120.138,68.343 118.5,69.5C 116.421,69.9707 114.421,70.6373 112.5,71.5C 110.265,71.2053 108.265,71.5386 106.5,72.5C 100.006,74.2138 94.0057,76.8805 88.5,80.5C 84.7535,82.6994 81.4202,85.3661 78.5,88.5C 79.3431,85.4838 80.8431,82.8171 83,80.5C 104.221,57.4245 129.054,52.0912 157.5,64.5 Z"/></g>
<g><path style="opacity:1" fill="#fafbb2" d="M 155.5,80.5 C 155.525,83.179 156.858,84.5123 159.5,84.5C 159.218,79.4775 159.051,74.4775 159,69.5C 159.333,68.8333 159.667,68.1667 160,67.5C 160.671,68.2524 161.504,68.5858 162.5,68.5C 169.546,73.2126 175.213,79.2126 179.5,86.5C 179.53,87.4972 179.03,88.1639 178,88.5C 175.976,86.9841 173.809,85.6508 171.5,84.5C 170.893,84.6236 170.56,84.9569 170.5,85.5C 169.259,83.0688 168.092,83.0688 167,85.5C 166.339,90.5576 166.672,95.5576 168,100.5C 168.414,100.957 168.914,101.291 169.5,101.5C 170.132,98.8976 171.132,96.5643 172.5,94.5C 172.5,95.5 172.5,96.5 172.5,97.5C 171.532,99.6074 171.198,101.941 171.5,104.5C 166.715,102.299 162.715,99.1327 159.5,95C 157.783,93.4412 155.783,92.6079 153.5,92.5C 154.258,95.3519 154.258,98.0185 153.5,100.5C 152.833,99.1667 151.833,98.1667 150.5,97.5C 149.167,95.5 147.833,93.5 146.5,91.5C 146.674,89.139 147.007,86.8056 147.5,84.5C 142.601,85.2833 138.601,87.6167 135.5,91.5C 133.856,91.8102 132.856,92.8102 132.5,94.5C 129.911,95.4194 127.911,97.086 126.5,99.5C 120.474,101.342 114.641,103.675 109,106.5C 108.503,103.854 108.336,101.187 108.5,98.5C 110.636,88.427 113.969,78.7603 118.5,69.5C 120.138,68.343 121.804,67.1764 123.5,66C 130.167,65.3333 136.833,65.3333 143.5,66C 148.46,70.1186 152.46,74.9519 155.5,80.5 Z"/></g>
<g><path style="opacity:1" fill="#fafdd2" d="M 157.5,64.5 C 159.754,65.1237 161.421,66.457 162.5,68.5C 161.504,68.5858 160.671,68.2524 160,67.5C 159.667,68.1667 159.333,68.8333 159,69.5C 159.051,74.4775 159.218,79.4775 159.5,84.5C 156.858,84.5123 155.525,83.179 155.5,80.5C 157.446,75.6042 158.113,70.2709 157.5,64.5 Z"/></g>
<g><path style="opacity:1" fill="#fdc608" d="M 106.5,77.5 C 104.272,82.6321 102.605,87.9654 101.5,93.5C 100.302,99.7819 100.302,106.115 101.5,112.5C 101.68,121.528 101.347,130.528 100.5,139.5C 99.5592,141.05 98.8925,142.716 98.5,144.5C 96.5293,146.808 94.5293,149.142 92.5,151.5C 89.9039,152.265 87.2372,152.599 84.5,152.5C 82.5,149.833 80.1667,147.5 77.5,145.5C 74.8482,141.518 71.8482,137.851 68.5,134.5C 67.8333,133.167 66.8333,132.167 65.5,131.5C 63.4742,128.482 61.4742,125.482 59.5,122.5C 59.5,119.833 59.5,117.167 59.5,114.5C 59.427,112.973 60.0937,111.973 61.5,111.5C 65.3081,109.223 67.6415,105.89 68.5,101.5C 70.5869,100.415 71.9202,98.7488 72.5,96.5C 73.9063,96.0269 74.573,95.0269 74.5,93.5C 75.0798,91.2512 76.4131,89.5846 78.5,88.5C 81.4202,85.3661 84.7535,82.6994 88.5,80.5C 94.4846,78.5105 100.485,76.5105 106.5,74.5C 106.5,75.5 106.5,76.5 106.5,77.5 Z"/></g>
<g><path style="opacity:1" fill="#fbd34b" d="M 106.5,72.5 C 107.675,72.281 108.675,72.6143 109.5,73.5C 108.479,74.9014 107.479,76.2347 106.5,77.5C 106.5,76.5 106.5,75.5 106.5,74.5C 100.485,76.5105 94.4846,78.5105 88.5,80.5C 94.0057,76.8805 100.006,74.2138 106.5,72.5 Z"/></g>
<g><path style="opacity:1" fill="#f3f2aa" d="M 106.5,72.5 C 108.265,71.5386 110.265,71.2053 112.5,71.5C 109.952,77.1622 107.618,82.8288 105.5,88.5C 103.466,89.5907 102.132,91.2574 101.5,93.5C 102.605,87.9654 104.272,82.6321 106.5,77.5C 107.479,76.2347 108.479,74.9014 109.5,73.5C 108.675,72.6143 107.675,72.281 106.5,72.5 Z"/></g>
<g><path style="opacity:1" fill="#90eac8" d="M 146.5,91.5 C 146.167,91.5 145.833,91.5 145.5,91.5C 142.332,90.5565 138.999,90.5565 135.5,91.5C 138.601,87.6167 142.601,85.2833 147.5,84.5C 147.007,86.8056 146.674,89.139 146.5,91.5 Z"/></g>
<g><path style="opacity:1" fill="#77f6de" d="M 179.5,86.5 C 181.253,89.1461 182.253,92.1461 182.5,95.5C 181.128,94.4884 179.795,93.4884 178.5,92.5C 177.01,90.7202 175.01,90.0535 172.5,90.5C 171.833,88.8333 171.167,87.1667 170.5,85.5C 170.56,84.9569 170.893,84.6236 171.5,84.5C 173.809,85.6508 175.976,86.9841 178,88.5C 179.03,88.1639 179.53,87.4972 179.5,86.5 Z"/></g>
<g><path style="opacity:1" fill="#ecee8a" d="M 170.5,85.5 C 171.167,87.1667 171.833,88.8333 172.5,90.5C 172.5,91.8333 172.5,93.1667 172.5,94.5C 171.132,96.5643 170.132,98.8976 169.5,101.5C 168.914,101.291 168.414,100.957 168,100.5C 166.672,95.5576 166.339,90.5576 167,85.5C 168.092,83.0688 169.259,83.0688 170.5,85.5 Z"/></g>
<g><path style="opacity:1" fill="#294c73" d="M 145.5,91.5 C 142.161,91.8897 138.827,92.3897 135.5,93C 136.756,93.4169 137.423,94.2502 137.5,95.5C 136.167,95.5 135.5,96.1667 135.5,97.5C 134.9,96.0998 133.9,95.0998 132.5,94.5C 132.856,92.8102 133.856,91.8102 135.5,91.5C 138.999,90.5565 142.332,90.5565 145.5,91.5 Z"/></g>
<g><path style="opacity:1" fill="#b1e55b" d="M 74.5,93.5 C 74.573,95.0269 73.9063,96.0269 72.5,96.5C 72.427,94.9731 73.0937,93.9731 74.5,93.5 Z"/></g>
<g><path style="opacity:1" fill="#f7fbf4" d="M 171.5,104.5 C 171.833,104.5 172.167,104.5 172.5,104.5C 173.403,106.62 174.737,106.954 176.5,105.5C 176.694,107.912 178.027,108.912 180.5,108.5C 180.833,109.167 181.167,109.833 181.5,110.5C 186.061,112.798 190.394,115.465 194.5,118.5C 189.637,118.181 184.97,118.514 180.5,119.5C 178.708,119.366 177.042,119.699 175.5,120.5C 169.702,113.59 163.036,107.59 155.5,102.5C 154.833,102.833 154.167,103.167 153.5,103.5C 153.5,102.5 153.5,101.5 153.5,100.5C 154.258,98.0185 154.258,95.3519 153.5,92.5C 155.783,92.6079 157.783,93.4412 159.5,95C 162.715,99.1327 166.715,102.299 171.5,104.5 Z"/></g>
<g><path style="opacity:1" fill="#3cafbd" d="M 172.5,90.5 C 175.01,90.0535 177.01,90.7202 178.5,92.5C 176.883,91.962 175.216,91.6287 173.5,91.5C 172.831,95.6759 174.331,97.0093 178,95.5C 178.847,98.4904 177.68,99.8238 174.5,99.5C 173.833,98.8333 173.167,98.1667 172.5,97.5C 172.5,96.5 172.5,95.5 172.5,94.5C 172.5,93.1667 172.5,91.8333 172.5,90.5 Z"/></g>
<g><path style="opacity:1" fill="#122b65" d="M 178.5,92.5 C 179.795,93.4884 181.128,94.4884 182.5,95.5C 182.5,96.5 182.5,97.5 182.5,98.5C 180.833,99.5 179.5,100.833 178.5,102.5C 177.833,103.5 177.167,104.5 176.5,105.5C 174.737,106.954 173.403,106.62 172.5,104.5C 172.077,102.219 172.744,100.552 174.5,99.5C 177.68,99.8238 178.847,98.4904 178,95.5C 174.331,97.0093 172.831,95.6759 173.5,91.5C 175.216,91.6287 176.883,91.962 178.5,92.5 Z"/></g>
<g><path style="opacity:1" fill="#7abc8a" d="M 118.5,69.5 C 113.969,78.7603 110.636,88.427 108.5,98.5C 107.075,106.636 107.741,114.636 110.5,122.5C 111.37,126.685 112.703,130.685 114.5,134.5C 113.094,132.526 111.594,130.526 110,128.5C 108.301,129.406 106.467,129.739 104.5,129.5C 104.24,115.804 104.573,102.137 105.5,88.5C 107.618,82.8288 109.952,77.1622 112.5,71.5C 114.421,70.6373 116.421,69.9707 118.5,69.5 Z"/></g>
<g><path style="opacity:1" fill="#08165b" d="M 145.5,91.5 C 145.833,91.5 146.167,91.5 146.5,91.5C 147.833,93.5 149.167,95.5 150.5,97.5C 151.63,99.3146 152.296,101.315 152.5,103.5C 150.544,105.958 148.378,108.292 146,110.5C 143.596,108.307 140.763,106.974 137.5,106.5C 137.027,105.094 136.027,104.427 134.5,104.5C 133.508,104.672 132.842,104.338 132.5,103.5C 131.2,102.173 129.867,100.84 128.5,99.5C 129.857,97.8144 131.19,96.1477 132.5,94.5C 133.9,95.0998 134.9,96.0998 135.5,97.5C 137.065,99.7188 139.065,100.052 141.5,98.5C 142.833,97.5 142.833,96.5 141.5,95.5C 140.005,96.7053 138.672,96.7053 137.5,95.5C 137.423,94.2502 136.756,93.4169 135.5,93C 138.827,92.3897 142.161,91.8897 145.5,91.5 Z"/></g>
<g><path style="opacity:1" fill="#2eacc6" d="M 137.5,95.5 C 138.672,96.7053 140.005,96.7053 141.5,95.5C 142.833,96.5 142.833,97.5 141.5,98.5C 139.065,100.052 137.065,99.7188 135.5,97.5C 135.5,96.1667 136.167,95.5 137.5,95.5 Z"/></g>
<g><path style="opacity:1" fill="#38435c" d="M 150.5,97.5 C 151.833,98.1667 152.833,99.1667 153.5,100.5C 153.5,101.5 153.5,102.5 153.5,103.5C 153.167,103.5 152.833,103.5 152.5,103.5C 152.296,101.315 151.63,99.3146 150.5,97.5 Z"/></g>
<g><path style="opacity:1" fill="#b2e85a" d="M 72.5,96.5 C 71.9202,98.7488 70.5869,100.415 68.5,101.5C 69.0798,99.2512 70.4131,97.5846 72.5,96.5 Z"/></g>
<g><path style="opacity:1" fill="#293764" d="M 132.5,94.5 C 131.19,96.1477 129.857,97.8144 128.5,99.5C 129.867,100.84 131.2,102.173 132.5,103.5C 130.883,102.962 129.216,102.629 127.5,102.5C 126.89,101.609 126.557,100.609 126.5,99.5C 127.911,97.086 129.911,95.4194 132.5,94.5 Z"/></g>
<g><path style="opacity:1" fill="#37526c" d="M 172.5,97.5 C 173.167,98.1667 173.833,98.8333 174.5,99.5C 172.744,100.552 172.077,102.219 172.5,104.5C 172.167,104.5 171.833,104.5 171.5,104.5C 171.198,101.941 171.532,99.6074 172.5,97.5 Z"/></g>
<g><path style="opacity:1" fill="#26a1a9" d="M 182.5,98.5 C 182.817,102.702 182.483,106.702 181.5,110.5C 181.167,109.833 180.833,109.167 180.5,108.5C 180.975,105.918 180.308,103.918 178.5,102.5C 179.5,100.833 180.833,99.5 182.5,98.5 Z"/></g>
<g><path style="opacity:1" fill="#eef2c1" d="M 105.5,88.5 C 104.573,102.137 104.24,115.804 104.5,129.5C 104.573,131.027 103.906,132.027 102.5,132.5C 102.824,125.646 102.491,118.979 101.5,112.5C 100.302,106.115 100.302,99.7819 101.5,93.5C 102.132,91.2574 103.466,89.5907 105.5,88.5 Z"/></g>
<g><path style="opacity:1" fill="#fcfcaf" d="M 155.5,102.5 C 163.036,107.59 169.702,113.59 175.5,120.5C 174.527,120.987 173.527,121.487 172.5,122C 163.609,131.628 154.609,141.128 145.5,150.5C 145.704,147.482 146.037,144.482 146.5,141.5C 148.049,135.531 149.383,129.531 150.5,123.5C 153.572,116.926 155.239,109.926 155.5,102.5 Z"/></g>
<g><path style="opacity:1" fill="#d5e092" d="M 178.5,102.5 C 180.308,103.918 180.975,105.918 180.5,108.5C 178.027,108.912 176.694,107.912 176.5,105.5C 177.167,104.5 177.833,103.5 178.5,102.5 Z"/></g>
<g><path style="opacity:1" fill="#d4df3e" d="M 68.5,101.5 C 67.6415,105.89 65.3081,109.223 61.5,111.5C 63.3437,107.808 65.6771,104.475 68.5,101.5 Z"/></g>
<g><path style="opacity:1" fill="#bfd888" d="M 108.5,98.5 C 108.336,101.187 108.503,103.854 109,106.5C 114.641,103.675 120.474,101.342 126.5,99.5C 126.557,100.609 126.89,101.609 127.5,102.5C 126.417,102.461 125.417,102.127 124.5,101.5C 123.481,102.687 122.314,103.687 121,104.5C 117.213,110.425 113.713,116.425 110.5,122.5C 107.741,114.636 107.075,106.636 108.5,98.5 Z"/></g>
<g><path style="opacity:1" fill="#dade36" d="M 59.5,114.5 C 59.5,117.167 59.5,119.833 59.5,122.5C 58.0069,121.688 57.3402,120.355 57.5,118.5C 57.3402,116.645 58.0069,115.312 59.5,114.5 Z"/></g>
<g><path style="opacity:1" fill="#dfe178" d="M 127.5,102.5 C 129.216,102.629 130.883,102.962 132.5,103.5C 132.842,104.338 133.508,104.672 134.5,104.5C 134.973,105.906 135.973,106.573 137.5,106.5C 140.763,106.974 143.596,108.307 146,110.5C 148.378,108.292 150.544,105.958 152.5,103.5C 152.833,103.5 153.167,103.5 153.5,103.5C 154.167,103.167 154.833,102.833 155.5,102.5C 155.239,109.926 153.572,116.926 150.5,123.5C 148.955,122.77 148.122,121.437 148,119.5C 146.866,124.797 146.032,124.797 145.5,119.5C 143.801,119.34 142.134,119.506 140.5,120C 138.243,121.45 135.91,122.617 133.5,123.5C 133.464,127.824 132.131,131.658 129.5,135C 131.752,137.475 131.752,140.141 129.5,143C 132.817,143.498 136.15,143.665 139.5,143.5C 139.33,146.491 140.663,148.491 143.5,149.5C 144.137,148.782 144.137,147.782 143.5,146.5C 144.396,144.664 145.396,142.997 146.5,141.5C 146.037,144.482 145.704,147.482 145.5,150.5C 143.774,152.82 143.107,155.487 143.5,158.5C 142.5,158.5 141.5,158.5 140.5,158.5C 138.574,156.707 136.241,155.707 133.5,155.5C 130.054,154.072 126.387,153.239 122.5,153C 121.915,151.698 121.249,150.531 120.5,149.5C 118.5,144.5 116.5,139.5 114.5,134.5C 112.703,130.685 111.37,126.685 110.5,122.5C 113.713,116.425 117.213,110.425 121,104.5C 122.314,103.687 123.481,102.687 124.5,101.5C 125.417,102.127 126.417,102.461 127.5,102.5 Z"/></g>
<g><path style="opacity:1" fill="#707d6d" d="M 134.5,104.5 C 136.027,104.427 137.027,105.094 137.5,106.5C 135.973,106.573 134.973,105.906 134.5,104.5 Z"/></g>
<g><path style="opacity:1" fill="#e7e577" d="M 150.5,123.5 C 149.383,129.531 148.049,135.531 146.5,141.5C 145.396,142.997 144.396,144.664 143.5,146.5C 144.137,147.782 144.137,148.782 143.5,149.5C 140.663,148.491 139.33,146.491 139.5,143.5C 136.15,143.665 132.817,143.498 129.5,143C 131.752,140.141 131.752,137.475 129.5,135C 132.131,131.658 133.464,127.824 133.5,123.5C 135.91,122.617 138.243,121.45 140.5,120C 142.134,119.506 143.801,119.34 145.5,119.5C 146.032,124.797 146.866,124.797 148,119.5C 148.122,121.437 148.955,122.77 150.5,123.5 Z"/></g>
<g><path style="opacity:1" fill="#071d68" d="M 194.5,118.5 C 201.75,121.119 203.417,125.785 199.5,132.5C 198.5,132.5 197.5,132.5 196.5,132.5C 196.662,130.473 196.495,128.473 196,126.5C 194.513,128.272 194.18,130.272 195,132.5C 196.049,134.107 197.549,134.773 199.5,134.5C 199.5,134.833 199.5,135.167 199.5,135.5C 196.28,137.603 193.28,139.936 190.5,142.5C 189.833,142.167 189.167,141.833 188.5,141.5C 186.5,139.167 184.5,136.833 182.5,134.5C 187.795,135.037 190.295,132.703 190,127.5C 188.534,125.675 186.701,125.175 184.5,126C 188.04,126.329 189.206,128.162 188,131.5C 185.959,132.423 183.792,132.756 181.5,132.5C 178.796,132.33 177.129,130.997 176.5,128.5C 175.657,124.321 176.99,121.321 180.5,119.5C 184.97,118.514 189.637,118.181 194.5,118.5 Z"/></g>
<g><path style="opacity:1" fill="#f7fefc" d="M 56.5,144.5 C 52.5627,149.776 48.2294,154.776 43.5,159.5C 43.1667,159.5 42.8333,159.5 42.5,159.5C 32.3616,152.927 22.0282,146.594 11.5,140.5C 10.4376,139.575 10.4376,138.575 11.5,137.5C 13.0858,136.852 14.7525,136.352 16.5,136C 21.3927,130.364 26.3927,124.864 31.5,119.5C 35.4447,126.551 39.7781,133.384 44.5,140C 48.4115,141.791 52.4115,143.291 56.5,144.5 Z"/></g>
<g><path style="opacity:1" fill="#f4d84b" d="M 101.5,112.5 C 102.491,118.979 102.824,125.646 102.5,132.5C 102.007,134.806 101.674,137.139 101.5,139.5C 101.167,139.5 100.833,139.5 100.5,139.5C 101.347,130.528 101.68,121.528 101.5,112.5 Z"/></g>
<g><path style="opacity:1" fill="#214377" d="M 180.5,119.5 C 176.99,121.321 175.657,124.321 176.5,128.5C 175.527,126.052 175.194,123.385 175.5,120.5C 177.042,119.699 178.708,119.366 180.5,119.5 Z"/></g>
<g><path style="opacity:1" fill="#7afbe4" d="M 175.5,120.5 C 175.194,123.385 175.527,126.052 176.5,128.5C 177.129,130.997 178.796,132.33 181.5,132.5C 181.5,132.833 181.5,133.167 181.5,133.5C 176.21,143.69 170.544,153.69 164.5,163.5C 164.5,163.833 164.5,164.167 164.5,164.5C 160.486,164.666 156.486,164.499 152.5,164C 149.401,163.613 146.734,162.446 144.5,160.5C 144.672,159.508 144.338,158.842 143.5,158.5C 143.107,155.487 143.774,152.82 145.5,150.5C 154.609,141.128 163.609,131.628 172.5,122C 173.527,121.487 174.527,120.987 175.5,120.5 Z"/></g>
<g><path style="opacity:1" fill="#1fa6d3" d="M 182.5,134.5 C 182.5,133.833 182.167,133.5 181.5,133.5C 181.5,133.167 181.5,132.833 181.5,132.5C 183.792,132.756 185.959,132.423 188,131.5C 189.206,128.162 188.04,126.329 184.5,126C 186.701,125.175 188.534,125.675 190,127.5C 190.295,132.703 187.795,135.037 182.5,134.5 Z"/></g>
<g><path style="opacity:1" fill="#29bde3" d="M 199.5,132.5 C 199.5,133.167 199.5,133.833 199.5,134.5C 197.549,134.773 196.049,134.107 195,132.5C 194.18,130.272 194.513,128.272 196,126.5C 196.495,128.473 196.662,130.473 196.5,132.5C 197.5,132.5 198.5,132.5 199.5,132.5 Z"/></g>
<g><path style="opacity:1" fill="#05b0bc" d="M 114.5,155.5 C 110.002,156.411 105.668,157.911 101.5,160C 100.62,161.356 100.286,162.856 100.5,164.5C 99.2179,159.899 97.2179,155.565 94.5,151.5C 96.7053,149.637 98.0387,147.303 98.5,144.5C 100.408,143.514 101.408,141.848 101.5,139.5C 102.094,136.09 104.094,134.924 107.5,136C 110.937,141.273 114.937,146.106 119.5,150.5C 117.43,151.903 115.763,153.57 114.5,155.5 Z"/></g>
<g><path style="opacity:1" fill="#1bf2f6" d="M 181.5,133.5 C 182.167,133.5 182.5,133.833 182.5,134.5C 184.5,136.833 186.5,139.167 188.5,141.5C 188.632,144.57 188.299,147.57 187.5,150.5C 179.996,155.087 172.329,159.42 164.5,163.5C 170.544,153.69 176.21,143.69 181.5,133.5 Z"/></g>
<g><path style="opacity:1" fill="#42c2ac" d="M 114.5,134.5 C 116.5,139.5 118.5,144.5 120.5,149.5C 119.851,152.816 117.851,154.816 114.5,155.5C 115.763,153.57 117.43,151.903 119.5,150.5C 114.937,146.106 110.937,141.273 107.5,136C 104.094,134.924 102.094,136.09 101.5,139.5C 101.674,137.139 102.007,134.806 102.5,132.5C 103.906,132.027 104.573,131.027 104.5,129.5C 106.467,129.739 108.301,129.406 110,128.5C 111.594,130.526 113.094,132.526 114.5,134.5 Z"/></g>
<g><path style="opacity:1" fill="#f3f49c" d="M 66.5,135.5 C 66.7317,145.375 67.3984,155.208 68.5,165C 68.1667,166 67.8333,167 67.5,168C 68.7349,170.026 70.0683,171.86 71.5,173.5C 72.531,175.961 73.1977,178.627 73.5,181.5C 73.1575,183.225 72.1575,183.725 70.5,183C 64.5441,177.863 58.2108,173.363 51.5,169.5C 54.7215,158.831 58.7215,148.497 63.5,138.5C 64.1667,137.167 65.1667,136.167 66.5,135.5 Z"/></g>
<g><path style="opacity:1" fill="#1aebeb" d="M 7.5,137.5 C 8.83333,137.5 10.1667,137.5 11.5,137.5C 10.4376,138.575 10.4376,139.575 11.5,140.5C 22.0282,146.594 32.3616,152.927 42.5,159.5C 37.1667,165.167 31.8333,170.833 26.5,176.5C 24.7549,178.033 23.7549,180.033 23.5,182.5C 22.8333,182.5 22.5,182.833 22.5,183.5C 19.7321,179.414 17.2321,175.08 15,170.5C 11.1503,159.789 8.65029,148.789 7.5,137.5 Z"/></g>
<g><path style="opacity:1" fill="#69bf81" d="M 100.5,139.5 C 100.833,139.5 101.167,139.5 101.5,139.5C 101.408,141.848 100.408,143.514 98.5,144.5C 98.8925,142.716 99.5592,141.05 100.5,139.5 Z"/></g>
<g><path style="opacity:1" fill="#06dff6" d="M 199.5,135.5 C 197.023,145.897 194.69,156.23 192.5,166.5C 192.775,160.879 191.775,155.545 189.5,150.5C 189.401,147.763 189.735,145.096 190.5,142.5C 193.28,139.936 196.28,137.603 199.5,135.5 Z"/></g>
<g><path style="opacity:1" fill="#5ea378" d="M 77.5,145.5 C 80.1667,147.5 82.5,149.833 84.5,152.5C 81.1667,151.167 78.8333,148.833 77.5,145.5 Z"/></g>
<g><path style="opacity:1" fill="#57b681" d="M 98.5,144.5 C 98.0387,147.303 96.7053,149.637 94.5,151.5C 93.8333,151.5 93.1667,151.5 92.5,151.5C 94.5293,149.142 96.5293,146.808 98.5,144.5 Z"/></g>
<g><path style="opacity:1" fill="#0d6787" d="M 188.5,141.5 C 189.167,141.833 189.833,142.167 190.5,142.5C 189.735,145.096 189.401,147.763 189.5,150.5C 188.833,150.5 188.167,150.5 187.5,150.5C 188.299,147.57 188.632,144.57 188.5,141.5 Z"/></g>
<g><path style="opacity:1" fill="#078caf" d="M 68.5,134.5 C 71.8482,137.851 74.8482,141.518 77.5,145.5C 78.8333,148.833 81.1667,151.167 84.5,152.5C 85.4486,153.152 86.6153,153.486 88,153.5C 90.0081,153.693 91.5081,153.026 92.5,151.5C 93.1667,151.5 93.8333,151.5 94.5,151.5C 97.2179,155.565 99.2179,159.899 100.5,164.5C 104.018,172.887 106.851,181.554 109,190.5C 109.383,191.056 109.883,191.389 110.5,191.5C 112.705,198.113 114.705,204.78 116.5,211.5C 116.785,213.288 116.452,214.955 115.5,216.5C 113.736,214.722 111.736,213.389 109.5,212.5C 96.7865,202.771 84.7865,192.438 73.5,181.5C 73.1977,178.627 72.531,175.961 71.5,173.5C 68.5475,160.487 67.5475,147.487 68.5,134.5 Z"/></g>
<g><path style="opacity:1" fill="#60a475" d="M 92.5,151.5 C 91.5081,153.026 90.0081,153.693 88,153.5C 86.6153,153.486 85.4486,153.152 84.5,152.5C 87.2372,152.599 89.9039,152.265 92.5,151.5 Z"/></g>
<g><path style="opacity:1" fill="#84bc83" d="M 120.5,149.5 C 121.249,150.531 121.915,151.698 122.5,153C 126.387,153.239 130.054,154.072 133.5,155.5C 133.433,156.959 133.766,158.292 134.5,159.5C 134.688,161.103 134.188,162.437 133,163.5C 129.861,159.517 126.027,156.517 121.5,154.5C 120.914,154.709 120.414,155.043 120,155.5C 117.098,165.37 113.932,175.037 110.5,184.5C 110.285,186.523 110.285,188.856 110.5,191.5C 109.883,191.389 109.383,191.056 109,190.5C 106.851,181.554 104.018,172.887 100.5,164.5C 100.286,162.856 100.62,161.356 101.5,160C 105.668,157.911 110.002,156.411 114.5,155.5C 117.851,154.816 119.851,152.816 120.5,149.5 Z"/></g>
<g><path style="opacity:1" fill="#98c88b" d="M 63.5,138.5 C 58.7215,148.497 54.7215,158.831 51.5,169.5C 43.5983,171.059 35.9316,173.392 28.5,176.5C 33.8943,171.11 38.8943,165.444 43.5,159.5C 48.2294,154.776 52.5627,149.776 56.5,144.5C 58.8333,142.5 61.1667,140.5 63.5,138.5 Z"/></g>
<g><path style="opacity:1" fill="#072c7a" d="M 187.5,150.5 C 188.167,150.5 188.833,150.5 189.5,150.5C 191.775,155.545 192.775,160.879 192.5,166.5C 190.169,167.995 188.169,167.662 186.5,165.5C 180.347,164.347 174.014,164.18 167.5,165C 166.956,165.717 166.289,166.217 165.5,166.5C 165.672,165.508 165.338,164.842 164.5,164.5C 164.5,164.167 164.5,163.833 164.5,163.5C 172.329,159.42 179.996,155.087 187.5,150.5 Z"/></g>
<g><path style="opacity:1" fill="#78b27b" d="M 134.5,159.5 C 135.167,160.167 135.833,160.833 136.5,161.5C 137.092,165.089 139.092,167.422 142.5,168.5C 143.5,169.167 144.5,169.833 145.5,170.5C 141.845,169.925 138.845,170.925 136.5,173.5C 128.002,177.555 119.335,181.222 110.5,184.5C 113.932,175.037 117.098,165.37 120,155.5C 120.414,155.043 120.914,154.709 121.5,154.5C 126.027,156.517 129.861,159.517 133,163.5C 134.188,162.437 134.688,161.103 134.5,159.5 Z"/></g>
<g><path style="opacity:1" fill="#212d5b" d="M 133.5,155.5 C 136.241,155.707 138.574,156.707 140.5,158.5C 139.167,158.5 137.833,158.5 136.5,158.5C 136.5,159.5 136.5,160.5 136.5,161.5C 135.833,160.833 135.167,160.167 134.5,159.5C 133.766,158.292 133.433,156.959 133.5,155.5 Z"/></g>
<g><path style="opacity:1" fill="#57929c" d="M 140.5,158.5 C 141.5,158.5 142.5,158.5 143.5,158.5C 144.338,158.842 144.672,159.508 144.5,160.5C 142.847,160.34 141.514,159.674 140.5,158.5 Z"/></g>
<g><path style="opacity:1" fill="#061c65" d="M 140.5,158.5 C 141.514,159.674 142.847,160.34 144.5,160.5C 146.734,162.446 149.401,163.613 152.5,164C 156.486,164.499 160.486,164.666 164.5,164.5C 165.338,164.842 165.672,165.508 165.5,166.5C 165.5,166.833 165.5,167.167 165.5,167.5C 163.421,167.971 161.421,168.637 159.5,169.5C 153.797,169.625 148.13,169.292 142.5,168.5C 139.092,167.422 137.092,165.089 136.5,161.5C 136.5,160.5 136.5,159.5 136.5,158.5C 137.833,158.5 139.167,158.5 140.5,158.5 Z"/></g>
<g><path style="opacity:1" fill="#0f92b5" d="M 186.5,165.5 C 179.26,164.953 172.26,165.62 165.5,167.5C 165.5,167.167 165.5,166.833 165.5,166.5C 166.289,166.217 166.956,165.717 167.5,165C 174.014,164.18 180.347,164.347 186.5,165.5 Z"/></g>
<g><path style="opacity:1" fill="#dfefaa" d="M 65.5,131.5 C 66.8333,132.167 67.8333,133.167 68.5,134.5C 67.5475,147.487 68.5475,160.487 71.5,173.5C 70.0683,171.86 68.7349,170.026 67.5,168C 67.8333,167 68.1667,166 68.5,165C 67.3984,155.208 66.7317,145.375 66.5,135.5C 66.1667,134.167 65.8333,132.833 65.5,131.5 Z"/></g>
<g><path style="opacity:1" fill="#11477e" d="M 142.5,168.5 C 148.13,169.292 153.797,169.625 159.5,169.5C 159.5,169.833 159.5,170.167 159.5,170.5C 154.833,170.5 150.167,170.5 145.5,170.5C 144.5,169.833 143.5,169.167 142.5,168.5 Z"/></g>
<g><path style="opacity:1" fill="#128eaf" d="M 165.5,167.5 C 163.967,169.245 161.967,170.245 159.5,170.5C 159.5,170.167 159.5,169.833 159.5,169.5C 161.421,168.637 163.421,167.971 165.5,167.5 Z"/></g>
<g><path style="opacity:1" fill="#61dab1" d="M 42.5,159.5 C 42.8333,159.5 43.1667,159.5 43.5,159.5C 38.8943,165.444 33.8943,171.11 28.5,176.5C 27.8333,176.5 27.1667,176.5 26.5,176.5C 31.8333,170.833 37.1667,165.167 42.5,159.5 Z"/></g>
<g><path style="opacity:1" fill="#4e9e8e" d="M 51.5,169.5 C 52.2476,173.812 52.9143,178.146 53.5,182.5C 43.5,182.5 33.5,182.5 23.5,182.5C 23.7549,180.033 24.7549,178.033 26.5,176.5C 27.1667,176.5 27.8333,176.5 28.5,176.5C 35.9316,173.392 43.5983,171.059 51.5,169.5 Z"/></g>
<g><path style="opacity:1" fill="#a2cf8e" d="M 136.5,173.5 C 137.376,173.369 138.043,173.702 138.5,174.5C 133.697,188.741 129.197,203.074 125,217.5C 123.951,219.107 122.451,219.773 120.5,219.5C 120.167,219.5 119.833,219.5 119.5,219.5C 119.267,216.458 118.267,213.792 116.5,211.5C 114.705,204.78 112.705,198.113 110.5,191.5C 110.285,188.856 110.285,186.523 110.5,184.5C 119.335,181.222 128.002,177.555 136.5,173.5 Z"/></g>
<g><path style="opacity:1" fill="#a8da9c" d="M 51.5,169.5 C 58.2108,173.363 64.5441,177.863 70.5,183C 72.1575,183.725 73.1575,183.225 73.5,181.5C 84.7865,192.438 96.7865,202.771 109.5,212.5C 111.527,215.194 113.861,217.527 116.5,219.5C 104.011,220.495 91.3443,220.829 78.5,220.5C 78.1667,220.5 77.8333,220.5 77.5,220.5C 71.5188,217.062 65.1854,214.062 58.5,211.5C 57.8281,210.051 57.1614,208.718 56.5,207.5C 56.577,203.785 56.2436,200.119 55.5,196.5C 54.8333,191.833 54.1667,187.167 53.5,182.5C 52.9143,178.146 52.2476,173.812 51.5,169.5 Z"/></g>
<g><path style="opacity:1" fill="#227fa3" d="M 55.5,196.5 C 56.2436,200.119 56.577,203.785 56.5,207.5C 56.5,208.5 56.5,209.5 56.5,210.5C 52.1667,210.5 47.8333,210.5 43.5,210.5C 42.8333,210.5 42.5,210.167 42.5,209.5C 46.8333,209.5 51.1667,209.5 55.5,209.5C 55.4955,205.466 55.1621,201.466 54.5,197.5C 47.0869,196.872 40.0869,197.539 33.5,199.5C 29.6882,195.223 26.3548,190.557 23.5,185.5C 27.4451,184.175 31.7784,183.508 36.5,183.5C 40.8333,183.667 45.1667,183.833 49.5,184C 50.8742,188.578 52.8742,192.745 55.5,196.5 Z"/></g>
<g><path style="opacity:1" fill="#2b8697" d="M 23.5,182.5 C 33.5,182.5 43.5,182.5 53.5,182.5C 54.1667,187.167 54.8333,191.833 55.5,196.5C 52.8742,192.745 50.8742,188.578 49.5,184C 45.1667,183.833 40.8333,183.667 36.5,183.5C 31.7784,183.508 27.4451,184.175 23.5,185.5C 22.6618,185.158 22.3284,184.492 22.5,183.5C 22.5,182.833 22.8333,182.5 23.5,182.5 Z"/></g>
<g><path style="opacity:1" fill="#8dc489" d="M 145.5,170.5 C 144.09,174.397 143.09,178.397 142.5,182.5C 141.434,184.701 140.767,187.035 140.5,189.5C 136.72,199.598 133.386,209.931 130.5,220.5C 126.958,220.813 123.625,220.479 120.5,219.5C 122.451,219.773 123.951,219.107 125,217.5C 129.197,203.074 133.697,188.741 138.5,174.5C 138.043,173.702 137.376,173.369 136.5,173.5C 138.845,170.925 141.845,169.925 145.5,170.5 Z"/></g>
<g><path style="opacity:1" fill="#0e70ab" d="M 42.5,209.5 C 39.5285,206.192 36.5285,202.859 33.5,199.5C 40.0869,197.539 47.0869,196.872 54.5,197.5C 55.1621,201.466 55.4955,205.466 55.5,209.5C 51.1667,209.5 46.8333,209.5 42.5,209.5 Z"/></g>
<g><path style="opacity:1" fill="#85bac7" d="M 142.5,198.5 C 142.5,198.167 142.5,197.833 142.5,197.5C 169.508,197.167 196.508,197.5 223.5,198.5C 223.376,199.107 223.043,199.44 222.5,199.5C 196.005,198.502 169.339,198.169 142.5,198.5 Z"/></g>
<g><path style="opacity:1" fill="#036d9f" d="M 142.5,198.5 C 169.339,198.169 196.005,198.502 222.5,199.5C 218.806,202.527 215.473,205.86 212.5,209.5C 189.833,209.5 167.167,209.5 144.5,209.5C 144.795,207.265 144.461,205.265 143.5,203.5C 142.699,201.958 142.366,200.292 142.5,198.5 Z"/></g>
<g><path style="opacity:1" fill="#75f4d6" d="M 140.5,189.5 C 141.255,192.053 141.922,194.72 142.5,197.5C 142.5,197.833 142.5,198.167 142.5,198.5C 142.366,200.292 142.699,201.958 143.5,203.5C 143.5,205.833 143.5,208.167 143.5,210.5C 144.414,213.728 144.747,217.061 144.5,220.5C 139.833,220.5 135.167,220.5 130.5,220.5C 133.386,209.931 136.72,199.598 140.5,189.5 Z"/></g>
<g><path style="opacity:1" fill="#0981a5" d="M 143.5,203.5 C 144.461,205.265 144.795,207.265 144.5,209.5C 167.167,209.5 189.833,209.5 212.5,209.5C 212.5,210.167 212.167,210.5 211.5,210.5C 188.833,210.5 166.167,210.5 143.5,210.5C 143.5,208.167 143.5,205.833 143.5,203.5 Z"/></g>
<g><path style="opacity:1" fill="#66f1d7" d="M 56.5,207.5 C 57.1614,208.718 57.8281,210.051 58.5,211.5C 65.1854,214.062 71.5188,217.062 77.5,220.5C 70.6457,220.176 63.979,220.509 57.5,221.5C 56.8333,221.5 56.1667,221.5 55.5,221.5C 50.8744,218.542 46.8744,214.876 43.5,210.5C 47.8333,210.5 52.1667,210.5 56.5,210.5C 56.5,209.5 56.5,208.5 56.5,207.5 Z"/></g>
<g><path style="opacity:1" fill="#2beee1" d="M 143.5,210.5 C 166.167,210.5 188.833,210.5 211.5,210.5C 208.457,214.544 204.791,217.877 200.5,220.5C 181.833,220.5 163.167,220.5 144.5,220.5C 144.747,217.061 144.414,213.728 143.5,210.5 Z"/></g>
<g><path style="opacity:1" fill="#2aa6af" d="M 116.5,211.5 C 118.267,213.792 119.267,216.458 119.5,219.5C 118.652,220.625 117.652,220.625 116.5,219.5C 113.861,217.527 111.527,215.194 109.5,212.5C 111.736,213.389 113.736,214.722 115.5,216.5C 116.452,214.955 116.785,213.288 116.5,211.5 Z"/></g>
<g><path style="opacity:1" fill="#52e0cd" d="M 116.5,219.5 C 117.652,220.625 118.652,220.625 119.5,219.5C 119.833,219.5 120.167,219.5 120.5,219.5C 123.625,220.479 126.958,220.813 130.5,220.5C 113.167,221.833 95.8333,221.833 78.5,220.5C 91.3443,220.829 104.011,220.495 116.5,219.5 Z"/></g>
<g><path style="opacity:1" fill="#1de7f2" d="M 57.5,221.5 C 63.979,220.509 70.6457,220.176 77.5,220.5C 77.8333,220.5 78.1667,220.5 78.5,220.5C 95.8333,221.833 113.167,221.833 130.5,220.5C 135.167,220.5 139.833,220.5 144.5,220.5C 163.167,220.5 181.833,220.5 200.5,220.5C 200.5,221.167 200.167,221.5 199.5,221.5C 152.163,222.556 104.83,222.556 57.5,221.5 Z"/></g>
<g><path style="opacity:1" fill="#15e3fd" d="M 55.5,221.5 C 56.1667,221.5 56.8333,221.5 57.5,221.5C 104.83,222.556 152.163,222.556 199.5,221.5C 170.209,242.728 137.543,249.895 101.5,243C 84.1385,239.815 68.8052,232.648 55.5,221.5 Z"/></g>
</svg>
