<?xml version="1.0" encoding="utf-8"?>
<svg viewBox="0 0 256 256" xmlns="http://www.w3.org/2000/svg">
  <g transform="matrix(0.057577, 0, 0, -0.056198, -3.454173, 256.144501)" fill="#000000" stroke="none">
    <path d="M2041 4549 c-58 -5 -107 -13 -110 -17 -3 -5 -40 -14 -81 -21 -93 -14 -242 -50 -253 -61 -9 -8 19 -117 35 -137 6 -7 7 -13 3 -13 -4 0 -3 -6 3 -12 10 -13 72 -206 72 -226 0 -6 -30 -20 -67 -32 -150 -48 -414 -199 -523 -298 -19 -18 -39 -32 -45 -32 -12 0 -75 62 -75 73 0 4 -16 21 -35 38 -19 17 -35 35 -35 41 0 5 -30 43 -67 84 l-67 75 -113 -113 c-63 -62 -127 -133 -143 -158 -16 -25 -38 -51 -50 -58 -11 -7 -25 -23 -29 -35 -5 -12 -35 -58 -66 -102 -32 -44 -67 -100 -78 -125 -11 -25 -34 -70 -53 -100 -18 -30 -49 -98 -70 -150 -20 -52 -40 -100 -45 -105 -12 -16 -78 -263 -79 -296 0 -13 23 -20 113 -33 61 -10 117 -21 122 -25 6 -4 43 -13 83 -20 83 -15 80 -6 57 -146 -19 -111 -20 -362 -4 -507 7 -60 10 -110 8 -113 -3 -2 -79 -17 -170 -32 -90 -15 -167 -32 -170 -37 -4 -5 -16 -6 -28 -3 -17 4 -21 1 -21 -16 0 -45 69 -296 99 -360 17 -36 31 -72 31 -80 0 -50 277 -519 316 -534 8 -3 14 -11 14 -19 0 -7 54 -69 120 -136 l119 -123 73 75 c40 41 103 109 139 150 64 73 67 74 86 57 11 -9 23 -17 26 -17 4 0 26 -18 48 -40 23 -22 46 -40 51 -40 5 0 41 -22 81 -49 73 -49 312 -169 380 -191 20 -6 37 -17 37 -24 0 -18 -31 -109 -43 -124 -5 -6 -6 -12 -2 -12 4 0 3 -6 -2 -12 -18 -23 -76 -229 -67 -237 10 -9 186 -55 249 -66 22 -4 44 -10 50 -13 14 -9 23 -10 170 -28 145 -18 466 -14 565 7 30 6 63 12 72 13 10 1 21 5 24 9 4 4 17 7 28 7 32 0 276 61 276 69 0 8 -58 198 -67 221 -4 8 -7 17 -8 20 -1 3 -5 12 -8 20 -7 16 -47 131 -47 135 0 2 12 6 28 9 43 11 166 58 172 67 3 4 35 21 72 38 78 34 297 176 305 197 3 8 10 14 16 14 6 0 19 8 29 17 18 16 21 14 64 -28 98 -94 226 -251 219 -267 -17 -48 313 309 353 380 11 19 41 65 67 104 27 38 57 89 67 112 11 24 27 52 35 62 15 17 73 147 73 162 0 5 12 32 26 61 28 57 80 221 95 301 5 28 12 58 14 67 5 14 -7 19 -62 29 -37 7 -72 16 -78 20 -5 4 -64 16 -131 25 l-120 18 13 96 c15 119 15 433 0 561 l-12 95 100 23 c55 12 109 23 120 23 10 0 24 4 30 8 5 5 40 14 77 21 66 12 68 13 62 39 -29 128 -67 261 -88 304 -13 29 -31 72 -39 97 -21 61 -78 182 -94 198 -7 7 -13 18 -13 24 0 17 -191 299 -206 305 -8 3 -14 11 -14 18 0 8 -50 66 -112 130 l-112 117 -44 -49 c-70 -77 -185 -196 -215 -222 l-28 -24 -23 22 c-12 11 -26 21 -30 21 -5 0 -26 18 -48 40 -22 22 -45 40 -50 40 -6 0 -40 21 -76 46 -74 52 -257 145 -349 179 -60 21 -61 23 -49 46 7 13 14 29 15 34 2 6 5 15 7 20 2 6 22 71 45 145 23 74 45 140 50 146 6 7 4 15 -3 22 -18 14 -173 57 -288 78 -52 10 -97 21 -100 24 -3 3 -14 5 -25 6 -11 1 -60 6 -110 12 -101 13 -308 13 -464 1z m159 -371 c26 -28 25 -42 -3 -55 -46 -21 -77 26 -41 61 20 20 19 20 44 -6z m217 -16 c8 -34 -19 -55 -53 -40 -29 14 -30 28 -4 56 24 26 48 19 57 -16z m-215 -199 c20 -18 24 -43 7 -43 -5 0 -8 -4 -5 -9 3 -5 -3 -11 -14 -14 -38 -10 -66 43 -38 71 16 16 28 15 50 -5z m206 5 c28 -28 0 -81 -38 -71 -11 3 -17 9 -14 14 3 5 0 9 -5 9 -16 0 -13 21 6 42 19 21 34 23 51 6z m149 -250 c7 -6 19 -8 28 -5 8 4 17 2 20 -3 4 -6 15 -10 27 -10 11 0 57 -12 103 -26 l83 -26 -15 -30 c-12 -23 -21 -29 -37 -25 -65 15 -154 39 -171 48 -11 5 -60 16 -110 23 -49 8 -82 14 -72 15 11 1 17 9 17 24 0 13 2 26 5 29 8 8 109 -4 122 -14z m-494 -15 c7 -37 4 -40 -46 -48 -23 -4 -47 -11 -53 -16 -5 -4 -35 -15 -65 -22 -30 -8 -70 -21 -89 -29 -71 -30 -86 -30 -98 -2 -7 14 -12 29 -12 34 0 14 220 80 316 94 7 1 17 5 20 9 14 13 22 7 27 -20z m-508 -163 c-3 -5 -11 -10 -16 -10 -6 0 -7 5 -4 10 3 6 11 10 16 10 6 0 7 -4 4 -10z m1680 -149 c50 -43 111 -103 136 -133 l46 -53 -22 -17 c-22 -16 -24 -14 -134 93 -61 60 -118 109 -125 109 -20 0 -27 27 -14 55 6 14 14 25 17 25 4 0 47 -35 96 -79z m-1802 6 c9 10 17 13 17 7 0 -6 -21 -24 -47 -41 -43 -28 -106 -90 -216 -212 -31 -34 -41 -40 -53 -30 -8 6 -14 20 -14 30 0 10 56 76 124 146 l125 128 23 -22 c23 -21 25 -22 41 -6z m-675 -89 c4 -34 -18 -51 -52 -38 -28 10 -36 46 -15 67 19 19 64 0 67 -29z m3130 -6 c2 -22 -2 -34 -13 -38 -25 -10 -65 16 -65 41 0 30 9 36 45 33 26 -3 30 -7 33 -36z m-94 -42 c14 -28 13 -31 -6 -41 -22 -12 -72 6 -62 23 3 4 0 8 -7 8 -7 0 -5 8 6 20 26 28 51 25 69 -10z m-2856 -62 c5 -39 -20 -52 -52 -27 -30 24 -33 37 -9 54 24 18 57 3 61 -27z m2770 -5 c3 -28 -1 -33 -22 -39 -38 -9 -56 2 -56 34 0 37 8 44 45 40 26 -3 30 -7 33 -35z m-2920 -5 c30 -30 4 -69 -38 -58 -42 10 -40 70 3 70 13 0 28 -5 35 -12z m-146 -35 c11 -13 13 -25 7 -41 -12 -31 -36 -38 -59 -17 -15 14 -17 22 -8 46 11 33 37 38 60 12z m3341 -12 c13 -23 14 -31 4 -39 -25 -21 -51 -18 -63 8 -11 20 -10 27 3 42 23 25 36 22 56 -11z m-93 -45 c19 -23 8 -61 -18 -64 -30 -4 -52 14 -52 43 0 34 47 48 70 21z m-3054 -57 c14 -15 16 -24 8 -37 -11 -17 -59 -34 -68 -24 -8 8 -7 67 1 75 13 13 40 7 59 -14z m2969 -48 c-8 -10 -25 -17 -38 -16 -18 1 -22 8 -22 36 0 22 4 33 13 32 6 -2 12 3 12 10 0 6 12 -1 26 -17 23 -26 24 -30 9 -45z m-140 -236 c11 -33 23 -65 27 -70 8 -14 38 -170 38 -201 0 -20 -5 -24 -28 -24 -27 0 -28 2 -49 108 -11 59 -27 121 -34 137 -7 17 -13 32 -14 35 -1 3 -8 18 -15 33 -12 24 -12 30 1 38 33 21 53 6 74 -56z m-2679 42 c5 -4 -30 -111 -37 -117 -8 -6 -28 -100 -44 -210 -7 -47 -13 -73 -14 -57 -1 22 -7 29 -30 33 -19 4 -28 11 -26 23 2 9 9 55 16 104 7 48 16 87 21 87 5 0 6 5 3 10 -3 6 -2 10 2 10 5 0 17 30 27 66 19 65 19 66 49 60 17 -3 32 -8 33 -9z m2761 -624 c-3 -10 -5 -4 -5 12 0 17 2 24 5 18 2 -7 2 -21 0 -30z m-34 -83 c27 0 27 6 6 -115 -6 -38 -16 -81 -22 -95 -6 -14 -11 -27 -12 -30 -1 -3 -7 -17 -13 -31 -6 -15 -16 -45 -22 -68 -10 -39 -12 -40 -33 -29 -12 7 -25 13 -29 14 -5 1 -10 2 -12 3 -6 1 24 93 35 107 11 14 59 223 60 261 0 27 1 27 9 6 6 -15 18 -23 33 -23z m-2798 -97 c10 -49 24 -101 31 -118 27 -62 64 -158 61 -161 -1 -1 -17 -4 -35 -6 l-34 -3 -33 97 c-18 54 -30 100 -27 103 3 3 1 5 -5 5 -12 0 -37 145 -28 160 3 5 16 10 29 10 21 0 25 -8 41 -87z m2895 -452 c0 -10 -8 -25 -18 -34 -15 -13 -22 -14 -42 -4 -28 14 -33 46 -11 63 21 16 71 -2 71 -25z m-3010 -141 c0 -24 -24 -42 -52 -38 -18 2 -23 9 -23 33 0 23 5 30 25 35 29 8 50 -5 50 -30z m385 22 c-3 -3 -11 0 -18 7 -9 10 -8 11 6 5 10 -3 15 -9 12 -12z m2243 -14 c7 -7 12 -18 12 -26 0 -7 -59 -72 -131 -144 l-131 -131 -17 28 -16 28 125 128 c69 70 130 128 136 128 5 1 15 -4 22 -11z m-2043 -202 l69 -63 -27 -17 -27 -18 -104 98 c-57 55 -116 114 -131 132 l-27 32 24 20 23 19 65 -70 c36 -39 96 -99 135 -133z m2495 69 c10 -12 9 -20 -4 -41 -22 -32 -59 -30 -64 4 -7 44 41 70 68 37z m-2044 -315 c32 -11 68 -24 79 -29 32 -15 151 -41 192 -42 21 -1 30 -3 21 -6 -11 -3 -18 -14 -18 -28 0 -13 -3 -26 -8 -28 -8 -6 -108 10 -132 20 -8 4 -24 7 -35 8 -11 0 -25 4 -31 7 -6 4 -43 16 -84 27 -40 11 -75 23 -77 25 -10 9 9 66 21 66 7 0 39 -9 72 -20z m1008 -9 l15 -29 -107 -32 c-59 -18 -114 -33 -122 -34 -9 -1 -20 -5 -25 -8 -6 -3 -36 -9 -67 -13 -57 -7 -58 -7 -58 18 0 16 -7 27 -17 30 -11 3 -7 5 10 6 36 1 179 31 192 39 17 11 129 50 147 51 10 1 24 -12 32 -28z m-616 -138 c-10 -2 -28 -2 -40 0 -13 2 -5 4 17 4 22 1 32 -1 23 -4z m-24 -159 c30 -12 13 -74 -20 -74 -14 0 -44 27 -44 40 0 11 29 40 40 40 5 0 15 -3 24 -6z m111 -124 c17 -19 17 -21 0 -40 -22 -25 -37 -25 -58 -2 -15 16 -15 20 -1 40 19 27 36 28 59 2z m103 -103 l22 -23 -20 -22 c-28 -30 -39 -28 -69 11 -12 15 -11 20 9 37 29 25 32 25 58 -3z"/>
  </g>
</svg>