<?xml version="1.0" standalone="no"?>
<!DOCTYPE svg PUBLIC "-//W3C//DTD SVG 20010904//EN"
 "http://www.w3.org/TR/2001/REC-SVG-20010904/DTD/svg10.dtd">
<svg version="1.0" xmlns="http://www.w3.org/2000/svg"
 width="250.000000pt" height="250.000000pt" viewBox="0 0 250.000000 250.000000"
 preserveAspectRatio="xMidYMid meet">

<g transform="translate(0.000000,250.000000) scale(0.100000,-0.100000)"
fill="#000000" stroke="none">
<path d="M1050 2365 c-459 -73 -843 -388 -983 -808 -47 -138 -60 -235 -54
-402 5 -180 32 -295 101 -440 166 -351 468 -587 871 -681 125 -30 426 -27 555
5 381 95 672 323 836 656 77 158 105 273 111 460 6 167 -7 264 -54 402 -142
425 -526 737 -993 808 -116 18 -276 18 -390 0z m390 -136 c218 -32 447 -148
608 -307 226 -223 339 -532 304 -835 -74 -646 -730 -1074 -1392 -906 -367 93
-667 372 -774 719 -111 361 -9 750 266 1022 190 187 426 293 723 322 51 5 181
-3 265 -15z"/>
<path d="M1098 1980 c-87 -13 -223 -59 -295 -101 -32 -19 -92 -68 -134 -109
-63 -62 -84 -91 -121 -170 -56 -117 -75 -185 -87 -318 -28 -303 67 -576 256
-733 140 -116 306 -169 532 -169 194 0 320 30 494 117 105 52 163 102 177 151
5 21 10 129 10 242 0 180 -3 210 -19 247 -34 74 -50 78 -335 81 -267 4 -290 0
-326 -46 -23 -29 -27 -109 -7 -133 34 -41 47 -44 226 -49 l176 -5 3 -127 3
-127 -50 -26 c-198 -100 -455 -113 -596 -31 -58 34 -129 111 -164 175 -52 99
-65 168 -65 341 0 139 3 163 26 232 74 223 241 340 463 325 149 -10 220 -54
321 -198 56 -79 96 -109 148 -109 38 0 87 23 116 55 21 22 25 36 25 88 0 83
-31 144 -114 228 -73 73 -167 124 -281 154 -77 19 -287 28 -382 15z"/>
</g>
</svg>
