<svg width="256" height="256" viewBox="0 0 256 256" fill="none" xmlns="http://www.w3.org/2000/svg">
<path d="M113.107 97.72C107.578 95.6012 102.54 92.3117 98.3181 88.0632L98.706 87.3637C105.008 77.0944 110.669 66.4659 114.931 55.1107C117.913 47.1645 121.89 34.1825 124.571 25.1479C125.431 22.2495 129.586 22.2681 130.41 25.1772C131.942 30.5909 133.699 36.7998 134.639 40.1219C138.729 54.5827 144.483 68.3004 152.101 81.158C152.991 82.655 154.503 85.1645 156.641 88.6756C152.09 93.0743 146.651 96.378 140.714 98.3487C139.747 95.3038 133.586 76.6497 129.894 65.4815C128.993 62.7554 125.151 62.7317 124.216 65.4463C121.392 73.6466 116.967 86.4979 113.107 97.72Z" fill="#F57B0A"/>
<path d="M127.271 142.94C130.361 142.94 133.381 142.024 135.95 140.307C138.519 138.589 140.521 136.149 141.704 133.293C142.886 130.437 143.195 127.295 142.593 124.264C141.99 121.232 140.502 118.447 138.317 116.262C136.132 114.076 133.349 112.588 130.318 111.985C127.288 111.382 124.147 111.691 121.292 112.874C118.438 114.057 115.998 116.06 114.281 118.63C112.565 121.2 111.649 124.222 111.649 127.312C111.649 131.457 113.295 135.432 116.224 138.363C119.154 141.294 123.128 142.94 127.271 142.94Z" fill="#F57B0A"/>
<path d="M157.311 113.185C159.429 107.654 162.717 102.614 166.964 98.3904L167.663 98.7785C177.929 105.083 188.553 110.746 199.904 115.009C207.849 117.993 220.829 121.972 229.86 124.654C232.758 125.515 232.739 129.669 229.831 130.493C224.418 132.026 218.209 133.784 214.887 134.725C200.432 138.817 186.719 144.572 173.866 152.194C172.37 153.083 169.862 154.596 166.352 156.735C161.955 152.182 158.652 146.741 156.682 140.802C159.726 139.834 178.377 133.67 189.541 129.977C192.266 129.075 192.29 125.235 189.576 124.3C181.379 121.474 168.53 117.047 157.311 113.185Z" fill="#F57B0A"/>
<path d="M141.893 157.28C147.422 159.399 152.46 162.688 156.682 166.937L156.294 167.636C149.992 177.906 144.331 188.534 140.069 199.889C137.087 207.835 133.11 220.818 130.429 229.852C129.569 232.75 125.414 232.732 124.59 229.823C123.058 224.409 121.301 218.2 120.361 214.878C116.27 200.417 110.517 186.7 102.899 173.842C102.009 172.345 100.497 169.836 98.3594 166.324C102.91 161.926 108.349 158.622 114.286 156.651C115.253 159.696 121.414 178.35 125.106 189.519C126.007 192.245 129.849 192.268 130.784 189.554C133.608 181.353 138.033 168.502 141.893 157.28Z" fill="#F57B0A"/>
<path d="M97.6893 141.815C95.5713 147.346 92.283 152.386 88.0361 156.61L87.3368 156.222C77.0714 149.917 66.4469 144.254 55.0958 139.991C47.1513 137.007 34.1712 133.028 25.1398 130.346C22.2421 129.485 22.2608 125.331 25.1691 124.507C30.5818 122.974 36.7909 121.216 40.1126 120.275C54.568 116.183 68.2806 110.428 81.1335 102.806C82.6299 101.917 85.1385 100.404 88.6483 98.2655C93.0454 102.818 96.3478 108.259 98.3178 114.198C95.2737 115.166 76.6226 121.33 65.4589 125.023C62.7338 125.925 62.7102 129.765 65.4239 130.7C73.621 133.526 86.4697 137.953 97.6893 141.815Z" fill="#F57B0A"/>
</svg>
