<?xml version="1.0" encoding="UTF-8" standalone="no"?>
<!-- Created with Inkscape (http://www.inkscape.org/) -->

<svg
   version="1.1"
   id="svg9"
   width="256"
   height="256"
   viewBox="0 0 256 256"
   sodipodi:docname="icon.svg"
   inkscape:version="1.1.1 (3bf5ae0d25, 2021-09-20)"
   xmlns:inkscape="http://www.inkscape.org/namespaces/inkscape"
   xmlns:sodipodi="http://sodipodi.sourceforge.net/DTD/sodipodi-0.dtd"
   xmlns:xlink="http://www.w3.org/1999/xlink"
   xmlns="http://www.w3.org/2000/svg"
   xmlns:svg="http://www.w3.org/2000/svg">
  <defs
     id="defs13">
    <linearGradient
       inkscape:collect="always"
       id="linearGradient5363">
      <stop
         style="stop-color:#6f7c91;stop-opacity:1"
         offset="0"
         id="stop5359" />
      <stop
         style="stop-color:#ffffff;stop-opacity:1"
         offset="1"
         id="stop5361" />
    </linearGradient>
    <linearGradient
       inkscape:collect="always"
       id="linearGradient4842">
      <stop
         style="stop-color:#6f7c91;stop-opacity:1"
         offset="0"
         id="stop4838" />
      <stop
         style="stop-color:#ffffff;stop-opacity:1"
         offset="1"
         id="stop4840" />
    </linearGradient>
    <linearGradient
       inkscape:collect="always"
       id="linearGradient1068">
      <stop
         style="stop-color:#00194b;stop-opacity:1"
         offset="0"
         id="stop1064" />
      <stop
         style="stop-color:#ffffff;stop-opacity:1"
         offset="1"
         id="stop1066" />
    </linearGradient>
    <linearGradient
       inkscape:collect="always"
       xlink:href="#linearGradient1068"
       id="linearGradient1070"
       x1="230.90234"
       y1="362.09961"
       x2="230.89655"
       y2="86.275864"
       gradientUnits="userSpaceOnUse" />
    <linearGradient
       inkscape:collect="always"
       xlink:href="#linearGradient4842"
       id="linearGradient4844"
       x1="342.15518"
       y1="102.25862"
       x2="310.03448"
       y2="102.10345"
       gradientUnits="userSpaceOnUse" />
    <linearGradient
       inkscape:collect="always"
       xlink:href="#linearGradient5363"
       id="linearGradient5365"
       x1="345.10345"
       y1="95.120689"
       x2="302.43103"
       y2="95.431038"
       gradientUnits="userSpaceOnUse" />
  </defs>
  <sodipodi:namedview
     id="namedview11"
     pagecolor="#ffffff"
     bordercolor="#666666"
     borderopacity="1.0"
     inkscape:pageshadow="2"
     inkscape:pageopacity="0.0"
     inkscape:pagecheckerboard="0"
     showgrid="false"
     width="450px"
     fit-margin-top="0"
     fit-margin-left="0"
     fit-margin-right="0"
     fit-margin-bottom="0"
     inkscape:zoom="1.1392276"
     inkscape:cx="341.89832"
     inkscape:cy="199.69671"
     inkscape:window-width="1920"
     inkscape:window-height="1017"
     inkscape:window-x="-8"
     inkscape:window-y="-8"
     inkscape:window-maximized="1"
     inkscape:current-layer="g15" />
  <g
     inkscape:groupmode="layer"
     inkscape:label="Image"
     id="g15"
     transform="translate(453.40738,-5.9029731)"
     style="display:inline">
    <g
       id="g5652"
       transform="matrix(0.56888889,0,0,0.56888889,-195.46896,2.5448373)">
      <path
         id="path5233"
         style="fill:url(#linearGradient5365);stroke:#00194b;stroke-width:0.438894"
         transform="translate(-453.40737,5.9029731)"
         d="m 334.82031,90.945312 c -5.19324,-0.145591 -11.03729,0.88117 -14.91797,2.847657 -3.34413,1.694599 -8.18911,5.729216 -10.71093,8.898441 -5.48636,6.8948 -7.5282,15.84222 -5.65039,24.70703 2.2503,10.62335 11.9005,20.64725 22.02734,22.81836 3.15119,0.67559 7.24707,0.82723 10.83008,0.58203 1.7915,-0.1226 3.45172,-0.34502 4.80859,-0.66211 1.35688,-0.31709 2.40619,-0.67892 3.0625,-1.33008 0.30917,-0.30673 0.58592,-0.7834 0.52539,-1.28125 -0.0605,-0.49785 -0.30139,-0.91319 -0.67578,-1.55078 -0.22858,-0.38929 -0.38089,-0.73247 -0.70508,-1.05469 -0.32418,-0.32222 -0.7976,-0.51414 -1.38672,-0.58203 -1.17823,-0.13578 -3.07962,0.0388 -7.19726,0.32617 -7.47875,0.52204 -13.08351,-1.55778 -18.375,-6.81445 -5.05862,-5.02535 -7.12935,-9.73756 -7.17383,-16.2793 -0.0826,-12.14137 8.76384,-22.577511 20.55469,-24.271482 3.05749,-0.439265 4.1262,-0.409874 7.68359,0.195313 2.39429,0.40732 3.78464,0.608818 4.86914,0.345703 0.54225,-0.131558 1.00467,-0.424279 1.32813,-0.826172 0.32346,-0.401894 0.52433,-0.880045 0.7207,-1.44336 0.17315,-0.496696 0.29651,-0.941464 0.25391,-1.416015 -0.0426,-0.474551 -0.31568,-0.937583 -0.72071,-1.244141 -0.81005,-0.613115 -2.06593,-0.911656 -4.27148,-1.402344 -1.49021,-0.331539 -3.14771,-0.513966 -4.87891,-0.5625 z" />
      <path
         id="path3977"
         style="fill:url(#linearGradient4844);stroke:#00194b;stroke-width:0.62069"
         transform="translate(-453.40737,5.9029731)"
         d="m 332.9043,98.234375 c -3.08108,0.148762 -6.42906,0.90442 -9.20899,2.265625 -4.92089,2.40953 -10.05788,7.92189 -11.88476,12.80469 -1.78449,4.76892 -1.7892,10.67957 -0.01,15.43554 2.33707,6.24637 8.08498,11.52988 15.29883,14.1875 a 0.81036803,0.81036803 0 0 0 0.008,0.002 c 3.10956,1.14341 8.59411,1.17664 11.7461,0.0762 0.92664,-0.32353 1.58438,-0.59186 2.06445,-1.14063 0.48007,-0.54876 0.5563,-1.2913 0.47851,-2.00585 -0.14818,-1.36119 -0.8297,-2.52357 -2.10937,-3.09571 -1.27967,-0.57213 -3.01945,-0.71901 -5.62695,-0.72656 -3.1482,-0.009 -5.31213,-0.37411 -6.875,-1.08399 -4.14952,-1.88476 -6.87304,-6.07919 -7.74414,-10.78124 -0.87111,-4.70206 0.12885,-9.84383 3.28515,-13.53126 2.95975,-3.4578 5.70067,-4.59133 11.29883,-4.61914 2.5598,-0.0127 4.00831,-0.0354 5.14844,-0.44336 1.14012,-0.40793 1.77279,-1.28179 2.37695,-2.42773 0.35787,-0.67878 0.63494,-1.19712 0.54102,-1.87109 -0.0939,-0.67397 -0.57915,-1.09703 -1.10352,-1.480472 -1.78826,-1.307589 -4.60252,-1.713216 -7.68359,-1.564453 z" />
      <path
         id="path938"
         style="fill:url(#linearGradient1070);stroke-width:0.62069"
         transform="translate(-453.40737,5.9029731)"
         d="M 245.67578,87.6875 A 2.6224129,2.6224129 0 0 0 243.4043,89 l -46.15235,79.91406 c -38.22109,66.17979 -65.3678,113.26586 -82.96289,143.9043 -8.79754,15.31922 -15.206634,26.5246 -19.419919,33.95508 -2.106643,3.71524 -3.663586,6.48558 -4.701172,8.36328 -0.518794,0.93885 -0.907194,1.65125 -1.177735,2.16601 -0.13527,0.25739 -0.240666,0.46164 -0.330078,0.64844 -0.04471,0.0934 -0.08426,0.17838 -0.134765,0.30274 -0.0505,0.12435 -0.216797,-0.11993 -0.216797,1.0625 0,1.41401 0.785519,1.92993 1.101562,2.16601 0.316043,0.23609 0.504958,0.31195 0.675782,0.38477 0.341646,0.14563 0.598523,0.21429 0.886718,0.28711 0.576391,0.14564 1.231643,0.26059 1.960938,0.35156 1.563125,0.19497 4.413004,0.19842 8.607426,0.20508 4.19441,0.007 9.4098,-0.0364 14.52148,-0.11133 5.11168,-0.075 10.11673,-0.18291 13.89648,-0.30664 1.88988,-0.0619 3.46953,-0.12731 4.62891,-0.19727 0.57969,-0.035 1.04873,-0.0703 1.44141,-0.11328 0.19634,-0.0215 0.36684,-0.0423 0.58203,-0.084 0.10759,-0.0208 0.22099,-0.0418 0.41211,-0.10352 0.19112,-0.0617 0.44386,0.0101 1.1289,-0.69531 0.57048,-0.58748 0.31435,-0.3889 0.34961,-0.44336 0.0353,-0.0545 0.0645,-0.10049 0.0977,-0.1543 0.0663,-0.10761 0.14721,-0.242 0.25,-0.41406 0.20557,-0.34411 0.49543,-0.83453 0.86914,-1.4707 0.74742,-1.27234 1.82773,-3.12542 3.20898,-5.49805 2.76251,-4.74526 6.72372,-11.56993 11.58985,-19.9707 9.73226,-16.80155 23.08678,-39.90354 37.71484,-65.25196 31.00862,-53.73365 48.25965,-83.56923 57.86914,-99.9082 4.56669,-7.76472 7.21107,-12.12705 8.95703,-14.87305 0.0982,0.39912 0.0959,0.4726 0.2168,0.9668 0.55256,2.25926 1.31887,5.29451 2.24023,8.88086 1.84273,7.17269 4.30541,16.54633 6.91016,26.25391 l 3.3418,12.45312 -32.86524,56.93555 c -18.374,31.83236 -38.7334,67.09422 -45.24414,78.35742 l -11.84179,20.48242 a 2.6224129,2.6224129 0 0 0 2.25,3.93555 l 22.74609,0.16406 c 6.26997,0.0449 12.02073,0.0313 16.25195,-0.0254 2.11562,-0.0283 3.84785,-0.0672 5.09961,-0.11719 0.62589,-0.025 1.1251,-0.051 1.53321,-0.0859 0.20405,-0.0175 0.37961,-0.0351 0.59375,-0.0703 0.10706,-0.0176 0.21781,-0.0364 0.41015,-0.0918 0.19235,-0.0554 0.43551,0.0943 1.22461,-0.73242 0.28889,-0.30264 0.24597,-0.29644 0.28125,-0.34766 0.0353,-0.0512 0.0589,-0.087 0.082,-0.12305 0.0464,-0.0721 0.0904,-0.14416 0.14453,-0.23242 0.10829,-0.17652 0.24922,-0.41168 0.42774,-0.71094 0.35704,-0.59852 0.86236,-1.45095 1.49805,-2.5332 1.27136,-2.1645 3.06766,-5.24136 5.23632,-8.96484 4.33733,-7.44698 10.1617,-17.48333 16.23828,-27.97266 12.15317,-20.97866 25.29892,-43.74844 29.56836,-51.2793 0.98595,-1.7391 1.82922,-3.11286 2.65235,-4.45898 0.48887,1.5206 0.91672,2.79987 1.73242,5.64062 2.36638,8.24119 6.26258,22.60463 12.77148,46.86133 l 11.57422,43.13672 a 2.6224129,2.6224129 0 0 0 2.51172,1.94141 l 20.07617,0.16406 c 5.64367,0.0461 10.73978,0.0279 14.48828,-0.043 1.87426,-0.0354 3.40642,-0.083 4.53321,-0.14453 0.56339,-0.0308 1.01917,-0.0642 1.41406,-0.10938 0.19745,-0.0226 0.37482,-0.0451 0.60352,-0.0937 0.11434,-0.0243 0.23832,-0.0511 0.43554,-0.12109 0.19722,-0.07 0.46994,-0.0852 1.03125,-0.64648 0.93399,-0.934 0.76364,-1.4126 0.79492,-1.71289 0.0313,-0.3003 0.0226,-0.49223 0.0117,-0.68555 -0.0219,-0.38664 -0.0737,-0.75059 -0.14453,-1.1875 -0.14165,-0.87383 -0.37112,-1.99743 -0.68555,-3.38281 -0.62885,-2.77077 -1.59075,-6.55483 -2.78906,-10.94532 -2.21899,-8.13015 -8.82591,-32.68146 -14.67578,-54.52734 C 335.8877,266.0949 328.61111,238.92977 325.5664,227.5762 l -5.25782,-19.59375 10.24024,-17.83398 a 2.6224129,2.6224129 0 0 0 0,-0.002 c 7.34944,-12.80174 11.66862,-20.37991 14.11914,-24.86718 1.22526,-2.24364 1.97939,-3.69837 2.44922,-4.74805 0.23491,-0.52484 0.4042,-0.92892 0.53125,-1.44531 0.0635,-0.2582 0.1296,-0.54702 0.10937,-1.00782 -0.0202,-0.46079 -0.17483,-1.23774 -0.8125,-1.87695 -0.79745,-0.79856 -0.99825,-0.63819 -1.17578,-0.68945 -0.17774,-0.0513 -0.27966,-0.0671 -0.37695,-0.084 -0.19459,-0.0338 -0.35032,-0.0519 -0.5332,-0.0703 -0.36578,-0.0369 -0.81275,-0.0688 -1.3711,-0.10156 -1.11669,-0.0655 -2.6608,-0.13088 -4.54687,-0.19531 -3.77215,-0.12887 -8.89651,-0.25039 -14.48633,-0.33594 l -18.33008,-0.28125 -1.68164,-5.88867 c -1.19657,-4.18953 -5.23207,-19.0627 -8.92969,-32.91797 L 288.7871,90.431631 a 2.6224129,2.6224129 0 0 0 -2.37305,-1.941407 l -6.51758,-0.398437 C 276.12857,87.861255 267.06539,87.6875 259.44922,87.6875 Z" />
      <path
         id="path577"
         style="fill:#ffffff;stroke-width:0.62069"
         transform="translate(-453.40737,5.9029731)"
         d="m 305.11719,139.73438 c -0.44974,0.11113 -1.07204,0.45827 -1.44336,0.98632 -0.37133,0.52806 -0.45508,1.08067 -0.45508,1.43946 0,1.16026 0.24449,1.70145 0.52734,2.71289 0.28286,1.01144 0.65391,2.18137 1.04493,3.32617 0.39101,1.1448 0.79889,2.25529 1.16992,3.1543 0.18551,0.4495 0.35825,0.84233 0.54297,1.20312 0.0924,0.1804 0.18474,0.35082 0.31836,0.55274 0.13361,0.20191 0.18701,0.43763 0.85546,0.86914 0.93826,0.60566 1.13401,0.46367 1.56055,0.5371 0.42654,0.0734 0.89333,0.12773 1.42188,0.17383 1.05654,0.0922 2.34335,0.14771 3.67968,0.15039 l 4.6211,0.01 a 2.4700291,2.4700291 0 0 0 1.32812,-4.55664 l -2.75976,-1.75 c -1.18445,-0.75137 -4.25964,-3.1965 -6.28321,-5.07031 -1.09895,-1.01763 -2.09321,-1.88634 -2.86718,-2.50977 -0.38699,-0.31172 -0.70114,-0.55383 -1.04883,-0.77734 -0.17385,-0.11176 -0.2945,-0.22336 -0.75977,-0.38282 -0.23263,-0.0797 -0.55366,-0.29063 -1.45312,-0.0684 z" />
      <path
         id="path290"
         style="fill:#ffffff;stroke-width:0.877788"
         d="m 223.65625,16.835938 c -11.4402,-0.0095 -17.39349,-0.0052 -20.875,0.234374 -1.74076,0.119791 -2.89276,0.272478 -3.96289,0.683594 -1.07013,0.411117 -1.94599,1.276311 -2.35352,1.826172 -0.61977,0.83624 -1.53157,2.326276 -3.04882,4.832031 -1.51726,2.505756 -3.5397,5.902701 -5.9961,10.070313 -4.9128,8.335224 -11.56374,19.746989 -19.35742,33.197266 -15.58737,26.900552 -35.74603,61.952522 -55.69922,96.808592 -19.953189,34.85607 -39.69839,69.51484 -54.458983,95.62891 -7.380297,13.05703 -13.515219,23.97756 -17.808594,31.72461 -2.146687,3.87352 -3.832047,6.95253 -4.990234,9.12109 -0.579094,1.08428 -1.024013,1.9383 -1.339844,2.57227 -0.157916,0.31698 -0.282412,0.57307 -0.386719,0.81054 -0.05215,0.11874 -0.0998,0.22902 -0.152344,0.37696 -0.05255,0.14793 -0.171875,0.15413 -0.171874,0.94726 -10e-7,1.14096 0.286198,1.77234 0.638671,2.74024 0.352474,0.96789 0.833383,2.10215 1.425782,3.39648 1.184797,2.58865 2.813747,5.80517 4.677734,9.27344 3.727973,6.93653 8.375766,14.84256 12.220703,20.4707 36.217906,53.01511 96.009712,87.75799 157.623042,91.49805 60.72749,3.6863 117.56854,-16.94457 160.21876,-58.19336 24.66102,-23.8507 42.29788,-51.68675 52.99804,-83.66211 14.43913,-43.14856 14.55076,-88.13561 0.32422,-131.33984 C 400.96349,92.379806 345.6068,40.486799 277.24609,23.070312 255.31889,17.483844 249.94773,16.857687 223.65625,16.835938 Z m 41.19336,70.388671 c 5.12068,-0.03655 10.29511,-0.01457 14.37695,0.07227 2.04092,0.04342 3.81102,0.102703 5.14453,0.177734 1.33352,0.07503 2.43442,0.250154 2.27344,0.207032 0.2696,0.07222 0.24514,0.04539 0.46094,0.277343 0.2158,0.23195 0.61224,0.815867 1.10547,1.929688 0.98646,2.227641 2.33374,6.430175 4.44336,13.605464 0.89037,3.02836 1.77038,5.77734 2.48828,7.8125 0.35895,1.01758 0.67221,1.84832 0.95312,2.49805 0.14046,0.32486 0.2643,0.59612 0.43946,0.89843 0.0876,0.15116 0.17495,0.30694 0.38672,0.55079 0.21176,0.24384 0.49783,0.91601 1.96679,0.91601 1.41191,0 1.70862,-0.60488 1.95899,-0.86328 0.25037,-0.2584 0.3866,-0.45799 0.52343,-0.66602 0.27367,-0.41604 0.50762,-0.8575 0.76368,-1.38085 0.5121,-1.04672 1.0754,-2.39106 1.61718,-3.87696 2.80468,-7.69209 10.64111,-15.145873 19.72071,-18.421868 4.14337,-1.494945 14.22509,-1.60191 19.91015,0.05078 l 2.99414,0.871093 -0.15429,1.152344 c -0.12918,0.963095 -1.67906,5.908239 -3.27539,9.597651 l -2.33399,5.39453 -4.36328,-0.20507 c -2.66259,-0.12505 -4.45732,-0.15154 -6.14453,0.17773 -1.68722,0.32927 -3.09487,1.06969 -4.52539,2.03516 -5.1781,3.49471 -7.12398,9.76245 -4.88281,15.63086 1.13657,2.9761 2.74783,5.38988 5.30664,6.77734 2.55881,1.38746 5.62729,1.7207 9.73632,1.7207 h 4.92383 l 2.34571,5.46875 c 1.56965,3.65884 3.08781,8.7503 3.23242,10.03321 0.13835,1.22743 0.4104,2.42045 0.77148,3.47656 0.36109,1.0561 0.53312,1.92038 1.74219,2.92383 0.48084,0.39906 0.26787,0.0257 0.27539,0.29687 0.008,0.27121 -0.21577,1.48053 -1.17969,3.64258 -1.92784,4.32409 -6.46452,12.39975 -15.01758,27.32812 L 321.35352,207.375 a 2.4966729,2.4966729 0 0 0 -0.24414,1.89062 l 14.83593,55.00977 c 8.16013,30.25701 17.27339,63.99733 20.25586,74.98828 2.83379,10.44274 4.28001,16.3283 4.56445,19.37891 0.14223,1.5253 -0.0192,2.2238 -0.13085,2.4668 -0.0951,0.20692 -0.31152,0.36672 -0.75391,0.63476 -0.0569,0.0195 -0.0838,0.0376 -0.1582,0.0508 -0.30268,0.0537 -0.78294,0.1173 -1.37891,0.17774 -1.19194,0.12087 -2.85649,0.23393 -4.81445,0.33007 -3.91592,0.19229 -9.02114,0.32181 -14.18555,0.375 -5.16441,0.0532 -10.39502,0.0292 -14.57031,-0.0801 -2.08765,-0.0546 -3.91448,-0.13009 -5.31446,-0.22657 -1.39997,-0.0965 -2.50467,-0.27475 -2.54882,-0.28711 -0.26816,-0.075 -1.83383,-1.31064 -2.10547,-1.83593 -0.11585,-0.22402 -0.76171,-1.89422 -1.58008,-4.49219 -0.81837,-2.59797 -1.90595,-6.26688 -3.29102,-11.11328 -2.77013,-9.6928 -6.73239,-24.10117 -12.17187,-44.21289 -1.96188,-7.25378 -3.82694,-13.93002 -5.25391,-18.85742 -0.71348,-2.46371 -1.31589,-4.4879 -1.77343,-5.94532 -0.22878,-0.7287 -0.41951,-1.31092 -0.58008,-1.76367 -0.0803,-0.22637 -0.1512,-0.41674 -0.23242,-0.60937 -0.0812,-0.19263 0.17043,-0.17331 -0.62305,-0.98633 -0.56172,-0.57555 -1.60239,-0.84034 -2.21289,-0.75781 -0.6105,0.0825 -0.9183,0.28317 -1.15235,0.43359 -0.46808,0.30083 -0.67474,0.54123 -0.92187,0.81445 -0.49426,0.54644 -1.00083,1.22823 -1.66602,2.18555 -1.33037,1.91464 -3.22463,4.88271 -5.86718,9.18945 -5.28511,8.6135 -13.53632,22.54877 -25.85352,43.59375 -7.5635,12.92289 -15.55265,26.30568 -17.54883,29.41992 l -3.17383,4.95313 -6.03515,0.52734 c -3.57714,0.31156 -15.27243,0.33692 -25.29492,-0.01 -9.46442,-0.32738 -14.72221,-0.64309 -17.0918,-1.16016 -1.18479,-0.25853 -1.46135,-0.54596 -1.38477,-0.45898 0.0766,0.087 0.0293,0.20566 0.0293,-0.4375 0,0.62811 0.0568,-0.18188 0.48242,-1.19141 0.42564,-1.00953 1.12499,-2.48601 2.11914,-4.44531 1.98831,-3.91861 5.16138,-9.78686 9.81055,-18.1211 9.29834,-16.66847 24.50855,-43.21625 48.09961,-84.06835 10.56541,-18.29588 17.59171,-30.63781 21.97851,-38.67774 2.19341,-4.01996 3.72391,-6.95874 4.72657,-9.07422 0.50132,-1.05774 0.87126,-1.90448 1.13476,-2.6289 0.2635,-0.72443 0.51931,-1.17796 0.43946,-2.27735 -0.1819,-2.50419 -1.25011,-7.29479 -2.66016,-13.10937 -1.41005,-5.81459 -3.15751,-12.35604 -4.68945,-17.31836 l -2.67969,-8.68555 a 2.4966729,2.4966729 0 0 0 -4.51953,-0.55859 l -1.54102,2.54101 c -1.98441,3.27211 -18.07083,30.97523 -67.02344,115.37891 -20.01904,34.51666 -39.368,67.74705 -42.91406,73.70898 l -5.85156,9.83985 -7.43359,0.47265 c -8.97268,0.56946 -28.53951,0.62784 -37.613286,0.11133 -2.136774,-0.12163 -3.420852,-0.31301 -4.017578,-0.50781 -0.596726,-0.1948 -0.554896,-0.18418 -0.882812,-0.65234 -0.248878,-0.35533 -0.518807,-0.8517 -0.691406,-1.25782 -0.08146,-0.19168 -0.064,-0.0994 -0.0918,-0.21679 0.05447,-0.1145 0.08016,-0.17724 0.15625,-0.33008 0.323661,-0.65011 0.832878,-1.6224 1.509765,-2.88086 1.353775,-2.51692 3.384608,-6.19159 6.052735,-10.95117 5.336252,-9.51917 13.224622,-23.38817 23.412112,-41.16407 20.37498,-35.55179 49.94583,-86.73437 86.7207,-150.06836 18.38163,-31.65699 28.06918,-48.31408 33.36719,-57.136714 2.649,-4.411317 4.21231,-6.873807 5.14649,-8.189454 0.86247,-1.214663 0.90739,-1.168211 1.01367,-1.21875 0.29278,-0.04139 0.76333,-0.09097 1.34765,-0.136718 1.16864,-0.0915 2.81052,-0.174527 4.74805,-0.246094 3.87507,-0.143133 8.94757,-0.238843 14.06836,-0.275391 z"
         transform="translate(-453.40737,5.9029731)" />
      <g
         id="g5643">
        <path
           style="fill:#000000;stroke-width:1.04451"
           d="m -248.19779,455.3042 c -29.14155,-2.80988 -56.22902,-10.69993 -82.59665,-24.05877 -56.91963,-28.83767 -99.67497,-81.97764 -115.44485,-143.48468 -5.45781,-21.28702 -7.16808,-34.87293 -7.16808,-56.94124 0,-22.06831 1.71027,-35.65422 7.16808,-56.94124 20.01979,-78.0829 82.75768,-140.797515 160.86955,-160.809877 21.29492,-5.4557847 34.88587,-7.1654199 56.96237,-7.1654199 22.0765,0 35.66745,1.7096352 56.96237,7.1654199 78.111875,20.012362 140.849758,82.726977 160.869548,160.809877 5.4578145,21.28702 7.168082,34.87293 7.168082,56.94124 0,22.06831 -1.7102675,35.65422 -7.168082,56.94124 -20.015507,78.06621 -82.771035,140.80863 -160.832308,160.79871 -7.50451,1.92176 -18.64833,4.23613 -24.76404,5.14303 -13.97672,2.07261 -39.11557,2.84655 -52.02599,1.60171 z m 41.20677,-18.77825 c 81.55465,-9.10965 149.163987,-63.4434 174.809245,-140.48417 30.3190145,-91.08122 -5.912551,-190.52556 -87.941815,-241.372772 -25.83635,-16.015097 -56.02852,-26.198136 -87.91213,-29.650487 -11.41533,-1.236049 -43.03004,-0.810725 -46.74519,0.628882 -1.91019,0.740186 -163.76181,283.181807 -163.76181,285.775017 0,2.36025 7.52573,17.28475 13.95501,27.67462 33.53409,54.19174 89.98062,90.05145 153.19695,97.32394 11.15555,1.28335 33.37986,1.3359 44.39974,0.10497 z m -159.80797,-67.82289 c -1.02289,-1.12986 -1.63746,-2.9042 -1.36571,-3.94298 0.73404,-2.80595 156.47377,-272.183679 157.87971,-273.07918 0.66251,-0.421983 10.88659,-0.774439 22.72017,-0.783234 19.36454,-0.01439 21.6849,0.17101 23.20897,1.854462 0.93135,1.02875 3.45286,8.367362 5.60336,16.308012 2.63392,9.72571 4.14635,13.80157 4.63422,12.48884 0.39833,-1.0718 1.50939,-4.16774 2.46901,-6.87986 3.87596,-10.95448 16.31914,-20.29337 28.51146,-21.398521 6.28925,-0.570077 17.20813,1.743209 18.5617,3.932498 0.36467,0.589838 -1.13059,5.306703 -3.32281,10.481933 -3.80053,8.97202 -4.10817,9.37255 -6.61689,8.6147 -9.43744,-2.85093 -17.25684,1.95699 -17.25684,10.61071 0,8.65373 7.8194,13.46165 17.25684,10.61072 2.51017,-0.75829 2.81639,-0.35724 6.66546,8.72936 2.76862,6.53596 3.69672,9.86173 2.95809,10.60008 -0.73861,0.73834 -0.45354,1.69845 0.90862,3.06011 1.09171,1.09131 1.98493,2.67028 1.98493,3.50884 0,0.83856 -6.39719,12.65103 -14.21597,26.24996 l -14.21597,24.72532 20.01263,74.26508 c 11.006958,40.84581 20.268294,75.04405 20.580764,75.99609 0.321809,0.98053 -0.379613,2.67837 -1.617874,3.91617 -2.07865,2.07788 -3.2575,2.18517 -24.00894,2.18517 -19.29264,0 -22.06483,-0.2119 -23.90894,-1.82754 -1.55272,-1.36035 -5.09909,-13.17378 -13.87237,-46.21082 -6.48251,-24.4108 -12.10436,-44.75659 -12.493,-45.21287 -0.38864,-0.45628 -12.78516,20.06004 -27.54783,45.59182 -14.76268,25.53179 -27.56737,46.69997 -28.45489,47.04042 -2.87334,1.1022 -48.46646,0.68596 -50.61235,-0.46206 -1.20268,-0.64342 -2.02072,-2.18064 -2.02072,-3.79721 0,-1.67517 16.88241,-31.97926 44.04985,-79.06991 24.22741,-41.99456 44.50906,-77.1019 45.07031,-78.01629 1.19351,-1.94449 -9.52279,-43.35122 -10.86429,-41.97855 -0.44305,0.45336 -26.99365,46.17355 -59.00133,101.60042 -32.00767,55.42687 -58.71876,101.12139 -59.35797,101.54337 -0.63922,0.42199 -12.25458,0.77444 -25.81191,0.78324 -23.1967,0.015 -24.75933,-0.1051 -26.50949,-2.0383 z m 85.97809,-65.33266 c 19.92137,-34.47814 47.50344,-82.2802 61.29348,-106.22678 13.79004,-23.94658 25.42538,-43.55363 25.85632,-43.57123 0.43094,-0.0177 0.78352,0.69706 0.78352,1.58812 0,0.89106 3.07578,13.10716 6.83504,27.14691 l 6.83506,25.52679 -43.52008,75.45678 c -23.93605,41.50121 -44.44441,76.98407 -45.57414,78.85078 l -2.05407,3.39401 h 23.48872 23.48871 l 14.36573,-24.80241 c 7.90116,-13.64133 20.36453,-35.14723 27.69638,-47.79088 7.33185,-12.64366 13.91689,-24.27468 14.63343,-25.84673 0.71654,-1.57204 1.61861,-2.85826 2.00459,-2.85826 0.38599,0 3.86893,11.866 7.73988,26.36888 3.87095,14.50289 9.94475,37.17752 13.49733,50.38807 l 6.45927,24.01918 21.27319,0.28308 c 19.825023,0.26381 21.22583,0.15976 20.577729,-1.52856 -0.382506,-0.9964 -9.621359,-35.19468 -20.530809,-75.99617 l -19.83535,-74.18452 13.66592,-23.79179 c 7.51627,-13.0855 13.93064,-24.48134 14.25417,-25.32413 0.50497,-1.31546 -2.37317,-1.53233 -20.33652,-1.53233 h -20.92476 l -1.07471,-3.39401 c -1.40288,-4.43039 -16.84721,-62.026063 -16.84721,-62.827374 0,-0.338025 -9.29894,-0.614591 -20.66431,-0.614591 h -20.66431 l -27.29126,47.255125 c -15.0102,25.99032 -49.90206,86.41067 -77.53747,134.26746 -27.63541,47.85679 -50.2462,87.45827 -50.2462,88.00328 0,0.60363 9.01569,0.8811 23.06601,0.70989 l 23.06601,-0.28105 z m 144.34711,-146.80139 c -2.01105,-1.20182 -5.63095,-4.09451 -8.04423,-6.42819 l -4.38777,-4.24305 1.5239,5.12671 c 0.83814,2.81968 1.74014,5.71413 2.00442,6.4321 0.30885,0.83906 2.63813,1.30399 6.52032,1.30148 l 6.03981,-0.004 -3.65645,-2.18514 z m 24.85739,-1.02141 c 2.87268,-1.00104 3.11116,-1.3875 2.15324,-3.48915 -0.99285,-2.17827 -1.42648,-2.28354 -5.53483,-1.34376 -9.66473,2.21078 -19.91563,-2.03511 -25.7002,-10.64494 -11.9243,-17.74825 4.76538,-41.752341 25.7002,-36.96355 4.10835,0.93978 4.54198,0.83451 5.53483,-1.34376 0.95792,-2.101659 0.71944,-2.488107 -2.15324,-3.489153 -4.65464,-1.622026 -13.27777,-1.384748 -18.86749,0.519159 -6.52049,2.220924 -14.10392,9.115524 -17.09967,15.546464 -3.53872,7.59652 -3.44498,18.04065 0.22807,25.40876 3.20473,6.42868 10.3795,13.0675 16.44392,15.21557 5.22749,1.85163 14.82449,2.14228 19.29517,0.58436 z m -2.4734,-7.19947 c 2.35329,-0.89438 2.53674,-1.30896 1.54351,-3.48803 -1.00026,-2.19453 -1.79478,-2.46393 -7.05591,-2.39247 -4.53641,0.0616 -6.69274,-0.4633 -9.18196,-2.23513 -8.74233,-6.22278 -8.74233,-20.42133 0,-26.64412 2.48922,-1.77182 4.64555,-2.29673 9.18196,-2.23512 5.26113,0.0714 6.05565,-0.19795 7.05591,-2.39248 0.99323,-2.17907 0.80978,-2.59364 -1.54351,-3.48802 -6.77575,-2.57518 -15.97017,-0.15839 -21.8827,5.75195 -8.93452,8.9312 -8.9299,22.43767 0.0108,31.38863 5.93214,5.93899 15.04666,8.32881 21.87197,5.73479 z"
           id="path117" />
      </g>
    </g>
  </g>
</svg>
