<?xml version="1.0" encoding="UTF-8" standalone="no"?>
<svg
   viewBox="20.00000000000003 142.30508203043965 535.0030378710303 290.38983593912076"
   version="1.1"
   id="svg144"
   sodipodi:docname="test.svg"
   inkscape:version="1.1.1 (3bf5ae0d25, 2021-09-20)"
   xmlns:inkscape="http://www.inkscape.org/namespaces/inkscape"
   xmlns:sodipodi="http://sodipodi.sourceforge.net/DTD/sodipodi-0.dtd"
   xmlns="http://www.w3.org/2000/svg"
   xmlns:svg="http://www.w3.org/2000/svg">
  <defs
     id="defs148" />
  <sodipodi:namedview
     id="namedview146"
     pagecolor="#ffffff"
     bordercolor="#666666"
     borderopacity="1.0"
     inkscape:pageshadow="2"
     inkscape:pageopacity="0.0"
     inkscape:pagecheckerboard="0"
     showgrid="false"
     inkscape:zoom="1.9775588"
     inkscape:cx="267.24869"
     inkscape:cy="145.38127"
     inkscape:window-width="1920"
     inkscape:window-height="1017"
     inkscape:window-x="-8"
     inkscape:window-y="-8"
     inkscape:window-maximized="1"
     inkscape:current-layer="svg144" />
  <g
     transform="matrix(0.43126685,0,0,0.46092906,193.33713,137.32224)"
     id="g126">
    <svg
       version="1.1"
       id="Layer_1"
       x="90"
       y="212.30508"
       viewBox="0 0 593.6 555.4"
       xml:space="preserve"
       height="150.38983"
       width="160.64507"
       preserveAspectRatio="xMinYMin"
       enable-background="new 0 0 593.6 555.4"
       style="overflow:visible"><linearGradient
         id="SVGID_1_"
         gradientUnits="userSpaceOnUse"
         x1="296.79019"
         y1="-9.0509996"
         x2="296.79019"
         y2="406.29401"><stop
           offset="0"
           style="stop-color: #77A4F9;"
           id="stop4" /><stop
           offset="1"
           style="stop-color: #6836EF;"
           id="stop6" /></linearGradient><path
         class="st0"
         d="M 296.8,0 C 132.9,0 0,132.9 0,296.8 0,407.8 60.9,504.5 151.1,555.4 241.5,525.1 265.3,446 271.5,408.1 c 1.2,-7.8 1.9,-14.9 2.2,-20.8 v 0 c 0.4,-6 0.4,-10.9 0.3,-14.3 h -0.2 l 5,-9.2 -17.3,0.1 -14.7,-46.5 -1.6,46.6 -47.1,28.4 -0.3,-44.7 42.3,-68.5 c 2,-135.9 56.3,-163.7 56.6,-163.9 0.2,0.2 54.5,28 56.6,163.9 l 42.3,68.5 -0.3,44.7 -47.1,-28.4 -1.6,-46.6 -14.6,46.4 -17.3,-0.1 5,9.2 h -0.2 c -0.1,3.4 0,8.3 0.3,14.3 v 0 c 0,0 0,0 0,0 0.3,5.9 1,13 2.2,20.8 6.2,37.9 30,117 120.5,147.4 C 532.7,504.5 593.6,407.8 593.6,296.8 593.6,132.9 460.7,0 296.8,0 Z"
         style="fill:url(#SVGID_1_)"
         id="path9" /><linearGradient
         id="SVGID_2_"
         gradientUnits="userSpaceOnUse"
         x1="296.87079"
         y1="311.63831"
         x2="296.87079"
         y2="56.530499"><stop
           offset="0"
           style="stop-color: #77A4F9; stop-opacity: 0;"
           id="stop11" /><stop
           offset="1"
           style="stop-color: #77ABF7;"
           id="stop13" /></linearGradient><path
         class="st1"
         d="m 542.9,299.2 c 0,-135.9 -110.2,-246 -246,-246 -135.9,0 -246,110.2 -246,246 0,103.1 63.5,191.4 153.5,228 47.5,-36.9 62.6,-90.1 67.3,-119.2 1.2,-7.8 1.9,-14.9 2.2,-20.8 v 0 c 0.4,-6 0.4,-10.9 0.3,-14.3 H 274 l 5,-9.2 -17.3,0.1 -14.7,-46.6 -1.6,46.6 -47.1,28.4 -0.3,-44.7 42.3,-68.5 c 2,-135.9 56.3,-163.7 56.6,-163.9 0.2,0.2 54.5,28 56.6,163.9 l 42.3,68.5 -0.3,44.7 -47.1,-28.4 -1.6,-46.6 -14.7,46.5 -17.3,-0.1 5,9.2 h -0.2 c -0.1,3.4 0,8.3 0.3,14.3 v 0 c 0,0 0,0 0,0 0.3,5.9 1,13 2.2,20.8 4.8,29 19.9,82.2 67.3,119.2 90,-36.5 153.5,-124.8 153.5,-227.9 z"
         style="fill:url(#SVGID_2_)"
         id="path16" /><linearGradient
         id="SVGID_3_"
         gradientUnits="userSpaceOnUse"
         x1="98.173401"
         y1="313.16049"
         x2="98.173401"
         y2="398.53159"><stop
           offset="0"
           style="stop-color: #C0A6EF;"
           id="stop18" /><stop
           offset="1"
           style="stop-color: #716FF4;"
           id="stop20" /></linearGradient><path
         class="st2"
         d="m 121.3,336.1 c -8.2,0 -16,2.1 -22.8,5.7 -7.7,-7.4 -18.1,-11.9 -29.5,-11.9 -23.6,0 -42.7,19.1 -42.7,42.7 0,23.6 19.1,42.7 42.7,42.7 4.4,0 8.6,-0.7 12.6,-1.9 8.9,12.4 23.4,20.5 39.8,20.5 27,0 48.9,-21.9 48.9,-48.9 -0.1,-27 -22,-48.9 -49,-48.9 z"
         style="fill:url(#SVGID_3_)"
         id="path23" /><linearGradient
         id="SVGID_4_"
         gradientUnits="userSpaceOnUse"
         x1="182.51801"
         y1="395.9733"
         x2="169.1839"
         y2="444.57809"><stop
           offset="0"
           style="stop-color: #C0A6EF;"
           id="stop25" /><stop
           offset="1"
           style="stop-color: #716FF4;"
           id="stop27" /></linearGradient><circle
         class="st3"
         cx="166.39999"
         cy="454.60001"
         r="66.400002"
         style="fill:url(#SVGID_4_)"
         id="circle30" /><linearGradient
         id="SVGID_5_"
         gradientUnits="userSpaceOnUse"
         x1="139.72569"
         y1="391.3201"
         x2="113.9178"
         y2="481.64761"><stop
           offset="0"
           style="stop-color: #C0A6EF;"
           id="stop32" /><stop
           offset="1"
           style="stop-color: #716FF4;"
           id="stop34" /></linearGradient><path
         class="st4"
         d="m 196.4,457.1 c -10.9,-8.6 -24.7,-13.8 -39.7,-13.8 -5.5,0 -10.9,0.7 -16,2 0.1,-1.8 0.2,-3.6 0.2,-5.4 0,-47.6 -38.5,-86.1 -86.1,-86.1 -17.1,0 -33,5 -46.4,13.6 19.7,80.6 72.2,148.3 142.7,188 73.7,-24.7 103.2,-81.9 114.9,-122.7 -6.3,-2.3 -13,-3.6 -20.1,-3.6 -21,0 -39.4,11.3 -49.5,28 z"
         style="fill:url(#SVGID_5_)"
         id="path37" /><linearGradient
         id="SVGID_6_"
         gradientUnits="userSpaceOnUse"
         x1="144.3235"
         y1="474.84"
         x2="133.5703"
         y2="555.70459"><stop
           offset="0"
           style="stop-color: #C0A6EF;"
           id="stop39" /><stop
           offset="1"
           style="stop-color: #716FF4;"
           id="stop41" /></linearGradient><path
         class="st5"
         d="m 151.1,555.4 c 31.5,-10.6 54.9,-27.1 72.3,-45.7 -8.7,-0.2 -17.7,1.5 -26.2,5.1 -5.1,2.2 -9.7,4.9 -13.9,8.1 -0.6,-1.7 -1.2,-3.4 -2,-5.1 -18.6,-43.8 -69.1,-64.2 -112.9,-45.6 -2.8,1.2 -5.4,2.5 -8,3.9 24.5,32.3 55.3,59.3 90.7,79.3 z"
         style="fill:url(#SVGID_6_)"
         id="path44" /><linearGradient
         id="SVGID_7_"
         gradientUnits="userSpaceOnUse"
         x1="-5004.7241"
         y1="313.16049"
         x2="-5004.7241"
         y2="398.53159"
         gradientTransform="matrix(-1,0,0,1,-4510.4956,0)"><stop
           offset="0"
           style="stop-color: #C0A6EF;"
           id="stop46" /><stop
           offset="1"
           style="stop-color: #716FF4;"
           id="stop48" /></linearGradient><path
         class="st6"
         d="m 471.1,336.1 c 8.2,0 16,2.1 22.8,5.7 7.7,-7.4 18.1,-11.9 29.5,-11.9 23.6,0 42.7,19.1 42.7,42.7 0,23.6 -19.1,42.7 -42.7,42.7 -4.4,0 -8.6,-0.7 -12.6,-1.9 -8.9,12.4 -23.4,20.5 -39.8,20.5 -27,0 -48.9,-21.9 -48.9,-48.9 0.1,-27 22,-48.9 49,-48.9 z"
         style="fill:url(#SVGID_7_)"
         id="path51" /><linearGradient
         id="SVGID_8_"
         gradientUnits="userSpaceOnUse"
         x1="-4920.3799"
         y1="395.9733"
         x2="-4933.7139"
         y2="444.57809"
         gradientTransform="matrix(-1,0,0,1,-4510.4956,0)"><stop
           offset="0"
           style="stop-color: #C0A6EF;"
           id="stop53" /><stop
           offset="1"
           style="stop-color: #716FF4;"
           id="stop55" /></linearGradient><circle
         class="st7"
         cx="426"
         cy="454.60001"
         r="66.400002"
         style="fill:url(#SVGID_8_)"
         id="circle58" /><linearGradient
         id="SVGID_9_"
         gradientUnits="userSpaceOnUse"
         x1="-4964.6235"
         y1="391.3201"
         x2="-4990.4316"
         y2="481.64761"
         gradientTransform="matrix(-1,0,0,1,-4510.4956,0)"><stop
           offset="0"
           style="stop-color: #C0A6EF;"
           id="stop60" /><stop
           offset="1"
           style="stop-color: #716FF4;"
           id="stop62" /></linearGradient><path
         class="st8"
         d="m 397.4,457.1 c 10.9,-8.6 24.7,-13.8 39.7,-13.8 5.5,0 10.9,0.7 16,2 -0.1,-1.8 -0.2,-3.6 -0.2,-5.4 0,-47.6 38.5,-86.1 86.1,-86.1 17.1,0 33,5 46.4,13.6 C 565.7,448 513.2,515.7 442.7,555.4 369,530.7 339.5,473.5 327.8,432.7 c 6.3,-2.3 13,-3.6 20.1,-3.6 21,0 39.4,11.3 49.5,28 z"
         style="fill:url(#SVGID_9_)"
         id="path65" /><linearGradient
         id="SVGID_10_"
         gradientUnits="userSpaceOnUse"
         x1="-4960.0259"
         y1="474.84"
         x2="-4970.7793"
         y2="555.70459"
         gradientTransform="matrix(-1,0,0,1,-4510.4956,0)"><stop
           offset="0"
           style="stop-color: #C0A6EF;"
           id="stop67" /><stop
           offset="1"
           style="stop-color: #716FF4;"
           id="stop69" /></linearGradient><path
         class="st9"
         d="m 442.7,555.4 c -31.5,-10.6 -54.9,-27.1 -72.3,-45.7 8.7,-0.2 17.7,1.5 26.2,5.1 5.1,2.2 9.7,4.9 13.9,8.1 0.6,-1.7 1.2,-3.4 2,-5.1 18.6,-43.8 69.1,-64.2 112.9,-45.6 2.8,1.2 5.4,2.5 8,3.9 -24.4,32.3 -55.3,59.3 -90.7,79.3 z"
         style="fill:url(#SVGID_10_)"
         id="path72" /><linearGradient
         id="SVGID_11_"
         gradientUnits="userSpaceOnUse"
         x1="233.776"
         y1="168.50729"
         x2="325.29529"
         y2="260.02661"><stop
           offset="0"
           style="stop-color: #77A4F9;"
           id="stop74" /><stop
           offset="1"
           style="stop-color: #716FF4;"
           id="stop76" /></linearGradient><circle
         class="st10"
         cx="296.79999"
         cy="231.5"
         r="27.9"
         style="fill:url(#SVGID_11_)"
         id="circle79" /><linearGradient
         id="SVGID_12_"
         gradientUnits="userSpaceOnUse"
         x1="433.33969"
         y1="261.70029"
         x2="413.33859"
         y2="179.76041"><stop
           offset="0"
           style="stop-color: #77A4F9; stop-opacity: 0;"
           id="stop81" /><stop
           offset="1"
           style="stop-color: #77ABF7;"
           id="stop83" /></linearGradient><circle
         class="st11"
         cx="426"
         cy="231.5"
         r="55.099998"
         style="fill:url(#SVGID_12_)"
         id="circle86" /><linearGradient
         id="SVGID_13_"
         gradientUnits="userSpaceOnUse"
         x1="164.3938"
         y1="305.8143"
         x2="151.7065"
         y2="253.8371"><stop
           offset="0"
           style="stop-color: #77A4F9; stop-opacity: 0;"
           id="stop88" /><stop
           offset="1"
           style="stop-color: #77ABF7;"
           id="stop90" /></linearGradient><circle
         class="st12"
         cx="159.7"
         cy="286.70001"
         r="35"
         style="fill:url(#SVGID_13_)"
         id="circle93" /><linearGradient
         id="SVGID_14_"
         gradientUnits="userSpaceOnUse"
         x1="390.90201"
         y1="121.2871"
         x2="369.70279"
         y2="34.438599"><stop
           offset="0"
           style="stop-color: #77A4F9; stop-opacity: 0;"
           id="stop95" /><stop
           offset="1"
           style="stop-color: #77ABF7;"
           id="stop97" /></linearGradient><circle
         class="st13"
         cx="383.10001"
         cy="89.300003"
         r="58.5"
         style="fill:url(#SVGID_14_)"
         id="circle100" /><linearGradient
         id="SVGID_15_"
         gradientUnits="userSpaceOnUse"
         x1="230.892"
         y1="171.3914"
         x2="322.41129"
         y2="262.91061"><stop
           offset="0"
           style="stop-color: #77A4F9; stop-opacity: 0;"
           id="stop102" /><stop
           offset="1"
           style="stop-color: #77ABF7;"
           id="stop104" /></linearGradient><path
         class="st14"
         d="m 296.8,203.7 c -15.4,0 -27.9,12.5 -27.9,27.9 0,15.4 12.5,27.9 27.9,27.9 z"
         style="fill:url(#SVGID_15_)"
         id="path107" /><polygon
         class="st15"
         points="186.7,159.3 208.7,161 186.7,162.7 185,184.8 183.3,162.7 161.2,161 183.3,159.3 185,137.2 "
         style="fill:#ffffff"
         id="polygon109" /><polygon
         class="st15"
         points="458.9,112.9 489.3,115.2 458.9,117.5 456.6,147.9 454.3,117.5 423.9,115.2 454.3,112.9 456.6,82.5 "
         style="fill:#ffffff"
         id="polygon111" /><polygon
         class="st15"
         points="515,272.7 530.2,273.8 515,275 513.8,290.2 512.7,275 497.5,273.8 512.7,272.7 513.8,257.5 "
         style="fill:#ffffff"
         id="polygon113" /><polygon
         class="st15"
         points="84.8,397.1 100,398.3 84.8,399.4 83.7,414.6 82.5,399.4 67.3,398.3 82.5,397.1 83.7,381.9 "
         style="fill:#ffffff"
         id="polygon115" /><polygon
         class="st15"
         points="35.6,208.2 50.8,209.3 35.6,210.5 34.5,225.7 33.3,210.5 18.1,209.3 33.3,208.2 34.5,193 "
         style="fill:#ffffff"
         id="polygon117" /><polygon
         class="st15"
         points="168.9,285.4 185,286.7 168.9,287.9 167.7,303.9 166.5,287.9 150.4,286.7 166.5,285.4 167.7,269.4 "
         style="fill:#ffffff"
         id="polygon119" /><polygon
         class="st15"
         points="249.4,54.5 279.7,56.8 249.4,59.1 247.1,89.3 244.8,59.1 214.6,56.8 244.8,54.5 247.1,24.3 "
         style="fill:#ffffff"
         id="polygon121" /><polygon
         class="st15"
         points="524.3,405.9 551.9,408 524.3,410.1 522.2,437.8 520,410.1 492.4,408 520,405.9 522.2,378.3 "
         style="fill:#ffffff"
         id="polygon123" /></svg>
  </g>
</svg>
