<?xml version="1.0" encoding="utf-8"?>
<!-- Generator: Adobe Illustrator 25.4.1, SVG Export Plug-In . SVG Version: 6.00 Build 0)  -->
<svg version="1.1" id="katman_1" xmlns="http://www.w3.org/2000/svg" xmlns:xlink="http://www.w3.org/1999/xlink" x="0px" y="0px"
	 viewBox="0 0 256 256" style="enable-background:new 0 0 256 256;" xml:space="preserve">
<style type="text/css">
	.st0{fill:#4FB47D;}
	.st1{fill:#4FB47D;stroke:#4FB47D;stroke-miterlimit:10;}
	.st2{fill:#EAE773;}
	.st3{fill:#302F38;}
	.st4{fill:#313039;}
	.st5{fill:#4FB47C;}
	.st6{fill:#020203;}
	.st7{fill:#090A09;}
	.st8{fill:#111110;}
	.st9{fill:#EBE871;}
	.st10{fill:#ECE870;}
</style>
<g>
	<g id="ofuILH.tif">
		<g>
			<g>
				<path d="M194.1,214.7c-1.4-7.4-4.5-14.2-9.4-20.1c-0.9-1.1-1.5-2.2-1.9-3.7c-1.6-6.4-5.4-11.5-11.2-15c-5.6-3.3-10-1.9-12.8,4
					c-1.8,3.7-2.5,7.7-2.9,11.8c-0.1,1.2,0.1,2.5-1.3,3.2c-4,2.1-8.1,1.5-12.3,0.5c-3.3-0.7-5.2-2.6-5.9-5.8c-0.6-2.6-1.6-5-2.1-7.6
					c-2-10-3.3-20.1-2.9-30.3h-3.3c0.3,14.3,1.1,28.5,6.6,42c1.7,4.2,4,8.1,7.5,11.2c1.2,1.1,1.4,1.7-0.1,2.6
					c-1.7,1.1-2.9,2.7-3.7,4.5c-0.4,0.9-0.5,1.8,0.6,2.3c0.9,0.5,1.7,0.2,2.2-0.8c3.6-6.4,10-6.4,16.5-7.2c-0.9,2.2-2,3.7-3.6,5
					c-0.7,0.6-1.3,1.3-0.6,2.2c0.8,1,1.7,0.8,2.6,0.2c2.1-1.4,3.2-3.6,4.5-5.6c2.5-4.1,4.5-8.4,8.5-12.7
					c-1.1,10.3-1.1,19.8-4.5,28.8c-0.8,2.2-2,4.1-3.7,5.8c-2.3,2.2-4.7,3.1-8.1,2.4c-9.9-2.1-19.6-4.8-29.3-7.7
					c-1.5-0.5-2.7-0.8-2.8-3c-0.8-23.3-1.7-46.7-2.6-70h-3.3c1.6,22.9,1.7,45.8,2.8,68.7c0.1,2.6-0.5,3.8-3.2,4.6
					c-9.3,2.6-18.6,5.2-28,7.3c-4.5,1-7.3-0.5-9.8-3.7c-3.1-4.1-4.2-8.9-5.1-13.8c-1-5.5-0.8-11.1-2.1-16.6
					c-0.1-0.5-0.4-1.4,0.5-1.6c0.8-0.2,1.2,0.5,1.5,1c2.2,3.5,4.4,7.1,6.6,10.6c1.1,1.8,2.1,3.6,3.8,5c0.9,0.8,2.1,1.7,3.2,0.4
					c1-1.2-0.1-1.9-0.9-2.7c-1.3-1.2-2.5-2.4-2.9-4.5c6.5,0.3,12.4,1.3,16.2,7c0.7,1,1.5,1.3,2.5,0.7c0.9-0.6,1-1.6,0.3-2.3
					c-4.1-3.8-1.3-7.3,0.2-11c4.8-11.7,6.3-23.9,6.4-36.4c0.1-4.3-0.1-8.6-0.1-12.8h-3.3c0.1,1.8,0.1,3.5,0.2,5.3
					c0.3,10.6-0.2,21.2-2.6,31.6c0.1,0.4,0.2,0.8,0.3,1.2c0.1,0.5-0.1,1-0.7,1.2c-0.1,0-0.1,0-0.2,0c-0.1,0.5-0.2,1-0.4,1.5
					c-0.3,1.1-0.3,2.4-1.6,3.1c-4.4,2.1-14.4-0.9-16.9-5.2c-2.1-3.6-4-7.4-5.6-11.2c-2.2-5.1-5.9-6.5-11-4.3
					c-5.7,2.4-9.6,6.8-11.1,12.4c-2.1,7.8-5.3,15.2-7.9,22.8c-4.9,14.4,0.6,22.9,15.8,26c6.5,1.3,13.1,1.1,19.6,0.2
					c11.7-1.7,23-4.9,34.2-8.5c2.8-0.9,5.2-1,8,0c8.1,2.7,16.4,4.9,24.7,6.8c10.8,2.4,21.7,3.8,32.7,0.8
					C191.2,232.4,196.2,225.1,194.1,214.7z M64.4,178.6c4.3-2.6,6.8-1.7,8.8,2.8c1.2,2.7,2.8,5.2,3.8,8c2.7,7.4,8.7,9.3,15.8,9.7
					c1.4,0.1,2.9,0,4.4,0c0,2.1-1.3,3.6-2,5.3c-0.5,1.3-1.2,1.6-2.6,1c-3.7-1.7-7.8-1.9-11.7-2c-1.7-0.1-2.6-0.7-3.4-2
					c-1.1-1.9-2.3-3.8-3.6-5.5c-5.8-7.6-10.3-8.4-18.9-3C56.7,186.5,59.3,181.7,64.4,178.6z M55.1,230.4c-1,0.6-1.8-0.5-2.5-1.1
					c-1.9-1.3-4-2.6-2.5-5.4c0.5-1,1.1-2,2.3-2.1c1.2-0.1,2,0.9,2.5,1.8c0.7,1.2,1.1,2.6,1,4.1C55.9,228.7,56.1,229.9,55.1,230.4z
					 M64.3,233.5c-3.5-0.1-3.5-2.7-3.5-4.8c0-2.1,0.2-5.1,3.1-4.9c2.8,0.3,3.2,3.2,3.4,5.7C66.9,231.2,67.5,233.6,64.3,233.5z
					 M69.9,233.9c-1.7,0-1.4-1-1.1-2c0.7-2.6,0.3-5-0.9-7.3c-1-1.7-2.4-3.1-4.5-2.8c-2.1,0.3-3.3,1.8-3.9,3.7
					c-0.4,1.2-0.2,2.6-0.4,3.9c-0.2,0.9,1.2,2.6-0.7,2.6c-1.8,0-0.8-1.6-0.8-2.6c0-1.1,0.1-2.2,0-3.3c-0.3-2.6-1.2-5-4-5.9
					c-2.8-0.8-4.2,1.2-5.9,4c-1.3-8.9,1.4-15.7,5.1-22.3c1.9-3.4,4.1-6.6,7.5-8.7c3.8-2.3,6.8-1.3,7.4,3c1,6.8,1.4,13.7,2.5,20.5
					c1,6.1,2.9,12,8.5,16.3C75.5,234.1,72.7,233.9,69.9,233.9z M164.7,195.8c-3.1,5.6-7.1,7.9-13.7,8.4c-4.8,0.3-6.9-1.6-9.5-4.7
					c1.6-0.6,3.1-0.4,4.5-0.1c2.3,0.4,4.7,0.2,6.9-0.3c4.5-1.1,5.6-2.5,6.2-7.1c0.5-3.8,1-7.6,3-11c2.2-3.9,4.3-4.5,8.1-2.1
					c4.1,2.5,6.8,6.1,9.1,11.1C172.2,187.7,167.5,190.7,164.7,195.8z M174.1,233.5c-3,0.1-2.7-2.1-2.8-3.9c-0.2-3.2,1.7-6.3,3.4-5.9
					c2.6,0.6,2.6,2.9,2.9,5C177.4,230.9,177.6,233.4,174.1,233.5z M187.9,227.8c-0.6,0.5-1.1,1.1-1.8,1.5c-0.9,0.5-1.7,1.8-2.9,1.2
					c-0.9-0.5-0.5-1.8-0.7-3.1c0.2-0.8,0.2-1.9,0.6-2.9c0.5-1.2,1.3-2.5,2.8-2.6c1.2-0.1,1.9,1,2.4,2
					C189.1,225.3,189.3,226.6,187.9,227.8z M190.7,223.4c-1.3-1-1.8-2.8-3.6-3.2c-2.5-0.6-5,1.3-5.9,4.6c-0.5,1.7-0.3,3.5-0.2,5.2
					c0.1,0.7,0.1,1.4-0.9,1.4c-0.8-0.1-0.6-0.8-0.5-1.3c0.1-1.7,0-3.3-0.6-4.9c-0.7-1.9-1.9-3.3-4-3.4c-1.9-0.1-3.3,1.1-4.2,2.8
					c-1.3,2.3-1.6,4.8-0.9,7.3c0.6,1.8-0.1,2.1-1.6,2c-1.1-0.1-2.2,0-3.3,0c-1.4-0.1-2.9-0.3-4.7-0.5c9-8.1,8.8-19,10-29.5
					c0.3-2.6,0.5-5.2,0.8-7.8c0.5-3.6,3.1-4.9,6.5-3.3c1.9,0.9,3.5,2.4,4.8,4c5.2,6.4,8.3,13.7,9.1,21.8
					C191.6,220.1,191.6,221.8,190.7,223.4z"/>
				<path class="st0" d="M128.1,151.7c0.3,14.3,1.1,28.5,6.6,42c1.7,4.2,4,8.1,7.5,11.2c1.2,1.1,1.4,1.7-0.1,2.6
					c-1.7,1.1-2.9,2.7-3.7,4.5c-0.4,0.9-0.5,1.8,0.6,2.3c0.9,0.5,1.7,0.2,2.2-0.8c3.6-6.4,10-6.4,16.5-7.2c-0.9,2.2-2,3.7-3.6,5
					c-0.7,0.6-1.3,1.3-0.6,2.2c0.8,1,1.7,0.8,2.6,0.2c2.1-1.4,3.2-3.6,4.5-5.6c2.5-4.1,4.5-8.4,8.5-12.7
					c-1.1,10.3-1.1,19.8-4.5,28.8c-0.8,2.2-2,4.1-3.7,5.8c-2.3,2.2-4.7,3.1-8.1,2.4c-9.9-2.1-19.6-4.8-29.3-7.7
					c-1.5-0.5-2.7-0.8-2.8-3c-0.8-23.3-1.7-46.7-2.6-70C121.4,151.7,124.8,151.7,128.1,151.7z"/>
				<path class="st0" d="M117.5,220.4c-1.1-22.9-1.1-45.8-2.8-68.7h-8c0,4.3,0.2,8.6,0.1,12.8c-0.2,12.5-1.6,24.7-6.4,36.4
					c-1.5,3.7-4.4,7.2-0.2,11c0.7,0.6,0.7,1.7-0.3,2.3c-1,0.6-1.8,0.3-2.5-0.7c-3.8-5.7-9.7-6.8-16.2-7c0.4,2.1,1.7,3.3,2.9,4.5
					c0.8,0.8,1.9,1.5,0.9,2.7c-1.1,1.3-2.2,0.4-3.2-0.4c-1.6-1.4-2.7-3.2-3.8-5c-2.2-3.6-4.4-7.1-6.6-10.6c-0.3-0.5-0.7-1.2-1.5-1
					c-0.9,0.2-0.7,1.1-0.5,1.6c1.3,5.5,1.1,11.1,2.1,16.6c0.9,4.9,1.9,9.7,5.1,13.8c2.5,3.2,5.3,4.7,9.8,3.7
					c9.4-2.1,18.7-4.7,28-7.3C117,224.2,117.6,223,117.5,220.4z"/>
				<path class="st0" d="M47.6,224.2c-1.3-8.9,1.4-15.7,5.1-22.3c1.9-3.4,4.1-6.6,7.5-8.7c3.8-2.3,6.8-1.3,7.4,3
					c1,6.8,1.4,13.7,2.5,20.5c1,6.1,2.9,12,8.5,16.3c-3,1-5.8,0.8-8.6,0.8c-1.7,0-1.4-1-1.1-2c0.7-2.6,0.3-5-0.9-7.3
					c-1-1.7-2.4-3.1-4.5-2.8c-2.1,0.3-3.3,1.8-3.9,3.7c-0.4,1.2-0.2,2.6-0.4,3.9c-0.2,0.9,1.2,2.6-0.7,2.6c-1.8,0-0.8-1.6-0.8-2.6
					c0-1.1,0.1-2.2,0-3.3c-0.3-2.6-1.2-5-4-5.9C50.7,219.4,49.3,221.4,47.6,224.2z M65,205.8c0-3.7-1.9-6.5-4.5-6.7
					c-2.7-0.2-4.8,2.2-5.4,6c-0.7,4.3,1.1,8.2,4.1,8.5C62.3,213.9,65,210.3,65,205.8z"/>
				<path class="st0" d="M190.7,223.4c-1.3-1-1.8-2.8-3.6-3.2c-2.5-0.6-5,1.3-5.9,4.6c-0.5,1.7-0.3,3.5-0.2,5.2
					c0.1,0.7,0.1,1.4-0.9,1.4c-0.8-0.1-0.6-0.8-0.5-1.3c0.1-1.7,0-3.3-0.6-4.9c-0.7-1.9-1.9-3.3-4-3.4c-1.9-0.1-3.3,1.1-4.2,2.8
					c-1.3,2.3-1.6,4.8-0.9,7.3c0.6,1.8-0.1,2.1-1.6,2c-1.1-0.1-2.2,0-3.3,0c-1.4-0.1-2.9-0.3-4.7-0.5c9-8.1,8.8-19,10-29.5
					c0.3-2.6,0.5-5.2,0.8-7.8c0.5-3.6,3.1-4.9,6.5-3.3c1.9,0.9,3.5,2.4,4.8,4c5.2,6.4,8.3,13.7,9.1,21.8
					C191.6,220.1,191.6,221.8,190.7,223.4z M183.7,206.7c0.1-1.6-0.3-3.1-1-4.5c-0.9-1.8-2.3-3.3-4.6-3.1c-2.2,0.2-3.2,1.7-3.9,3.5
					c-0.9,2.4-0.7,4.8,0.2,7.1c0.9,2.2,2.3,4.2,5.1,3.9c2.6-0.3,3.5-2.4,4.1-4.6C183.7,208.2,183.6,207.4,183.7,206.7z"/>
				<path class="st1" d="M92.8,199.1c-7-0.4-13.1-2.3-15.8-9.7c-1-2.8-2.7-5.3-3.8-8c-2-4.5-4.5-5.4-8.8-2.8
					c-5.1,3.1-7.7,8-9.4,14.1c8.6-5.4,13.1-4.6,18.9,3c1.3,1.7,2.5,3.6,3.6,5.5c0.8,1.4,1.7,2,3.4,2c4,0.1,8,0.3,11.7,2
					c1.4,0.6,2.1,0.3,2.6-1c0.6-1.7,2-3.2,2-5.3C95.7,199.1,94.3,199.2,92.8,199.1z"/>
				<path class="st0" d="M179.3,189.8c-7.1-2.2-11.8,0.9-14.6,5.9c-3.1,5.6-7.1,7.9-13.7,8.4c-4.8,0.3-6.9-1.6-9.5-4.7
					c1.6-0.6,3.1-0.4,4.5-0.1c2.3,0.4,4.7,0.2,6.9-0.3c4.5-1.1,5.6-2.5,6.2-7.1c0.5-3.8,1-7.6,3-11c2.2-3.9,4.3-4.5,8.1-2.1
					C174.2,181.2,177,184.9,179.3,189.8z"/>
				<path class="st2" d="M67.3,229.5c-0.4,1.8,0.2,4.1-3,4c-3.5-0.1-3.5-2.7-3.5-4.8c0-2.1,0.2-5.1,3.1-4.9
					C66.7,224,67.1,227,67.3,229.5z"/>
				<path class="st2" d="M177.7,228.7c-0.3,2.3-0.1,4.7-3.6,4.8c-3,0.1-2.7-2.1-2.8-3.9c-0.2-3.2,1.7-6.3,3.4-5.9
					C177.4,224.3,177.5,226.6,177.7,228.7z"/>
				<path class="st2" d="M55.9,227.7c0,1,0.1,2.2-0.8,2.7c-1,0.6-1.8-0.5-2.5-1.1c-1.9-1.3-4-2.6-2.5-5.4c0.5-1,1.1-2,2.3-2.1
					c1.2-0.1,2,0.9,2.5,1.8C55.6,224.9,56,226.3,55.9,227.7z"/>
				<path class="st2" d="M182.6,227.3c0.2-0.8,0.2-1.9,0.6-2.9c0.5-1.2,1.3-2.5,2.8-2.6c1.2-0.1,1.9,1,2.4,2
					c0.6,1.4,0.9,2.7-0.5,3.9c-0.6,0.5-1.1,1.1-1.8,1.5c-0.9,0.5-1.7,1.8-2.9,1.2C182.4,229.9,182.8,228.6,182.6,227.3z"/>
				<path class="st3" d="M65,205.8c0,4.5-2.7,8.1-5.8,7.8c-3-0.3-4.9-4.2-4.1-8.5c0.6-3.8,2.8-6.1,5.4-6
					C63.1,199.3,65,202.1,65,205.8z M63.2,206.1c-0.4-2.1-0.3-5.1-3.1-5c-3,0.1-3.3,3.2-3.3,5.6c-0.1,2,0.2,4.9,2.8,4.8
					C62.5,211.5,62.7,208.4,63.2,206.1z"/>
				<path class="st4" d="M183.7,206.7c-0.1,0.8,0,1.6-0.2,2.3c-0.6,2.2-1.4,4.3-4.1,4.6c-2.8,0.3-4.2-1.6-5.1-3.9
					c-0.9-2.3-1.1-4.7-0.2-7.1c0.7-1.9,1.8-3.3,3.9-3.5c2.3-0.2,3.7,1.3,4.6,3.1C183.4,203.6,183.8,205.1,183.7,206.7z M181.8,207.1
					c-0.1-1.5-0.2-2.7-0.8-3.8c-0.6-1.2-1.3-2.4-2.9-2.3c-1.6,0.1-2.1,1.5-2.5,2.7c-0.6,2.1-0.4,4.1,0.7,6c0.6,1.1,1.3,2.1,2.8,1.9
					c1.3-0.2,1.7-1.3,2.1-2.3C181.7,208.6,181.7,207.7,181.8,207.1z"/>
				<path class="st2" d="M63.2,206.1c-0.5,2.3-0.7,5.3-3.7,5.4c-2.6,0.1-2.9-2.8-2.8-4.8c0.1-2.4,0.3-5.5,3.3-5.6
					C62.9,201,62.8,204,63.2,206.1z"/>
				<path class="st2" d="M181.8,207.1c-0.1,0.5-0.1,1.4-0.4,2.2c-0.4,1-0.8,2.1-2.1,2.3c-1.5,0.2-2.2-0.8-2.8-1.9
					c-1.1-1.9-1.3-4-0.7-6c0.3-1.2,0.8-2.6,2.5-2.7c1.6-0.1,2.3,1.1,2.9,2.3C181.6,204.4,181.7,205.6,181.8,207.1z"/>
			</g>
		</g>
	</g>
	<g>
		<path class="st5" d="M200.4,38.1c-7.2-8.7-18.9-13.4-30.6-15.7c-20.4-4-42.2-1.6-60.9,6.8c-5.3,2.4-10.4,5.3-13.9,9.6
			c-5.6,7-5.8,16.4-5.6,25.1c0.8,39.6,4.2,79.2,10.1,118.5l-0.9-5c2.5,7.5,1.2,17.8,10.7,21.7c7.8,3.2,17.2,6.9,23.1,1.2
			c5.2-4.9,4.5-12.8,3.7-19.6c-2.9-23.2-3.9-46.5-3.1-69.8c0.1-1.5,0.2-3.3,1.5-4.3c1.2-1,2.9-1,4.5-1c19.9,0.2,40.9-4.7,54.9-17.7
			C207.8,75,212.4,52.7,200.4,38.1z"/>
		<g>
			<path class="st6" d="M201.1,37.8c-9.9-11.9-26.7-16.1-41.5-17.4c-16.5-1.5-33.5,1-48.8,7.4c-7,2.9-14.4,6.7-18.3,13.5
				c-3.8,6.6-4,14.4-3.9,21.8c0.3,18.7,1.3,37.4,2.8,56.1c1.5,18.9,3.6,37.7,6.3,56.4c0.3,2.3,0.7,4.6,1,6.8c0.5-0.1,1-0.3,1.4-0.4
				c-0.3-1.7-0.6-3.3-0.9-5c-0.5,0.1-1,0.3-1.4,0.4c2,6.1,1.5,13.5,6,18.5c2.6,2.9,6.5,4.1,10.1,5.4c3.8,1.4,8,2.6,12.1,2.1
				c3.8-0.4,7-2.5,9-5.8c2-3.4,2.4-7.4,2.2-11.2c-0.2-4.9-1-9.8-1.6-14.7c-0.6-5.6-1.1-11.1-1.4-16.7c-0.7-11.2-1-22.4-0.9-33.6
				c0-2.8,0.1-5.6,0.2-8.4c0.1-2.2-0.4-6.1,2.3-7c1.1-0.4,2.4-0.2,3.6-0.2c1.2,0,2.4,0,3.6-0.1c2.2-0.1,4.5-0.2,6.7-0.4
				c17.1-1.5,35.4-7.2,47.2-20.3c10.2-11.3,14.8-29,7.2-42.9C203.3,40.9,202.3,39.3,201.1,37.8c-0.3-0.4-1.7,0.1-1.3,0.6
				c10.1,12.4,8.1,30.2-0.7,42.8c-10,14.3-27.9,20.9-44.6,23.1c-4.5,0.6-9.1,0.9-13.6,0.9c-1.9,0-3.9-0.2-5.7,0.5
				c-1.7,0.7-2.6,2.2-2.8,4c-0.3,2.5-0.2,5.1-0.3,7.7c-0.1,2.6-0.1,5.3-0.1,7.9c0,5.3,0.1,10.6,0.2,15.9c0.3,10.7,1.1,21.3,2.2,31.9
				c0.5,4.6,1.3,9.3,1.5,13.9c0.2,4-0.3,8.3-2.7,11.6c-2.8,3.8-7.1,4.6-11.6,3.9c-4.2-0.7-8.4-2.3-12.2-4.1
				c-6.8-3.1-7.7-10.3-9-16.9c-0.3-1.5-0.6-3-1.1-4.5c-0.2-0.5-1.6-0.2-1.4,0.4c0.3,1.7,0.6,3.3,0.9,5c0.1,0.5,1.5,0.2,1.4-0.4
				c-2.7-18-4.9-36.1-6.5-54.2c-1.6-18.1-2.7-36.3-3.3-54.4c-0.2-7.9-1-16.2,0.6-24.1c0.7-3.7,2.1-7.3,4.4-10.3
				c2.4-3.1,5.7-5.5,9.2-7.4c7.1-3.9,15-6.5,22.9-8.3c8.2-1.8,16.5-2.7,24.9-2.5c8,0.2,16,1.3,23.7,3.5c7.2,2,14.2,5.2,19.8,10.1
				c1.4,1.2,2.6,2.5,3.8,3.9C200.1,38.8,201.5,38.3,201.1,37.8z"/>
		</g>
	</g>
	<g>
		<g>
			<path class="st0" d="M123.5,201.5c0,1.4,0,2.7,0,4.1c0.7-0.2,1.4-0.4,2.2-0.6c-0.2-1.1-0.3-2.4-0.7-3.4c-0.3-0.8-0.9-1.3-1.8-1.2
				c-0.5,0-1.3,0.2-1.5,0.7c-0.7,1.6-1,3.3-1,5.1c0,0.4,0.9,0.3,1.1,0.3c0.4-0.1,0.9-0.3,1.1-0.7c0.7-1.3,0.6-2.9-0.1-4.2
				c-0.7,0.2-1.4,0.5-2.1,0.7c0.8,1.3,1.8,2.5,2.9,3.6c1.2,1.1,2.4,2.2,4.1,1.5c1.5-0.6,1.5-2.1,1.7-3.4c0.2-1.8,0.3-3.6,0.3-5.3
				c-0.7,0.2-1.4,0.4-2.2,0.6c0.6,2,1.9,3.7,3.6,4.8c0.6,0.4,1.8,0.1,2.1-0.6c0.8-2.2,0.8-4.6-0.1-6.8c-0.3-0.6-2.2-0.2-2.2,0.4
				c0,2,1,3.7,2.7,4.8c0.4,0.3,1.9,0,2-0.7c0.5-3.5-0.7-7-3-9.6c-0.5-0.5-2.6,0.2-2,0.8c2.2,2.5,3.3,5.8,2.8,9
				c0.7-0.2,1.3-0.4,2-0.7c-1.4-0.9-2.3-2.4-2.3-4.1c-0.7,0.1-1.4,0.3-2.2,0.4c0.8,2.1,0.8,4.4,0.1,6.5c0.7-0.2,1.4-0.4,2.1-0.6
				c-1.6-1.1-2.9-2.7-3.4-4.6c-0.2-0.8-2.2-0.1-2.2,0.6c0,1.4,0,2.8-0.2,4.2c-0.1,0.6-0.1,1.2-0.2,1.7c0,0.3-0.1,0.6-0.2,0.9
				c0,0.1-0.2,0.5-0.2,0.5c0.4-0.1,0.5-0.2,0.2-0.3c-0.1-0.1-0.2-0.2-0.3-0.2c-0.2-0.2-0.4-0.4-0.7-0.6c-0.4-0.4-0.8-0.8-1.2-1.2
				c-0.8-0.9-1.5-1.8-2.1-2.8c-0.3-0.6-2.4,0.1-2.1,0.7c0.7,1.3,0.7,2.6,0.1,3.9c0.7-0.1,1.4-0.3,2.2-0.4c0-1.7,0.3-3.3,1-4.8
				c-0.5,0.2-1,0.5-1.5,0.7c0.4,0,0.6,1.2,0.7,1.5c0.2,0.9,0.3,1.7,0.5,2.6c0.1,0.8,2.2,0.2,2.2-0.6c0-1.4,0-2.7,0-4.1
				C125.7,200.2,123.5,200.6,123.5,201.5L123.5,201.5z"/>
		</g>
	</g>
	<g>
		<g>
			<path class="st0" d="M113.3,198.3c-0.1,1.6-0.5,3.1-1.2,4.6c-0.3,0.6,1.8,0.2,2.1-0.2c1.3-1.9,2.3-4,3-6.2
				c-0.7,0.2-1.4,0.3-2.2,0.5c0.6,3,0,6.2-1.6,8.8c0.7-0.1,1.4-0.1,2.1-0.2c0.4-2.6,0.9-5.2,1.3-7.9c0.1-0.7-1.9-0.2-2.2,0.3
				c-0.7,1.8-2.2,3.3-4,4.1c0.5,0,1,0,1.5,0c-0.5-2.6-0.5-5.2,0-7.7c-0.7,0.2-1.4,0.3-2.2,0.5c0.2,2.1-0.9,4.1-2.7,5.3
				c0.6-0.1,1.3-0.1,1.9-0.2c0-2.6-0.1-5.2-0.1-7.8c0-0.6-2,0-2.2,0.5c-0.7,2.2-1.9,4.1-3.4,5.8c0.7-0.1,1.4-0.2,2.1-0.3
				c0.1-2.3,0.6-4.6,1.6-6.7c-0.7,0.2-1.4,0.3-2.2,0.5c0,2.5-0.9,4.9-2.4,6.8c0.7-0.1,1.4-0.1,2.1-0.2c1.1-2.8,2.3-5.6,3.7-8.3
				c0.2-0.4-0.8-0.3-0.9-0.3c-0.4,0.1-1,0.2-1.3,0.7c-1.4,2.7-2.6,5.5-3.7,8.3c-0.2,0.7,1.8,0.1,2.1-0.2c1.6-2.2,2.5-4.7,2.6-7.4
				c0-0.6-2,0.1-2.2,0.5c-1,2.2-1.5,4.5-1.6,6.9c0,0.6,1.9-0.1,2.1-0.3c1.6-1.8,2.8-3.8,3.6-6c-0.7,0.2-1.4,0.3-2.2,0.5
				c0,2.6,0.1,5.2,0.1,7.8c0,0.6,1.7-0.1,1.9-0.2c2.1-1.3,3.4-3.6,3.1-6.1c-0.1-0.6-2.1-0.1-2.2,0.5c-0.5,2.6-0.5,5.3,0,8
				c0.1,0.5,1.3,0.1,1.5,0c2.4-1,4.4-2.7,5.4-5.1c-0.7,0.1-1.4,0.2-2.2,0.3c-0.4,2.6-0.9,5.2-1.3,7.9c-0.1,0.7,1.8,0.2,2.1-0.2
				c1.8-2.8,2.5-6,1.8-9.3c-0.1-0.6-2,0-2.2,0.5c-0.7,2.1-1.6,4.1-2.8,5.9c0.7-0.1,1.4-0.1,2.1-0.2c0.6-1.5,1-3,1.2-4.6
				C115.5,197.3,113.3,197.7,113.3,198.3L113.3,198.3z"/>
		</g>
	</g>
	<g>
		<g>
			<path class="st0" d="M120.3,202.6c-0.4,0-0.8,0-1.3-0.1c0.1,0,0.3,0.1,0.4,0.1c0,0,0,0,0-0.1c0,0,0,0.1,0,0.1
				c0-0.2,0.1-0.3,0.2-0.4c0,0-0.1,0.1-0.1,0.1c0.1-0.1,0.1-0.1,0.2-0.2c-0.1,0-0.1,0.1-0.2,0.1c0.1,0,0.1-0.1,0.2-0.1
				c-0.1,0-0.1,0.1-0.2,0.1c0,0,0.1,0,0.1,0c-0.4,0.2-0.3,0.1-0.2,0.1c0.1,0-0.4,0.1-0.2,0.1c0.2-0.1-0.4,0.1-0.2,0
				c0.1,0-0.3,0-0.2,0c0,0,0,0,0.1,0c-0.1,0-0.2,0-0.2,0c0.1,0,0.1,0,0.2,0c-0.1,0-0.1,0-0.2,0c0.1,0,0.1,0,0.2,0
				c0.5-0.3,1.1-0.6,1.6-0.9c-0.3,0-0.6,0-0.8,0c-0.3,0-0.5,0-0.8,0.1c-0.2,0.1-0.5,0.2-0.7,0.3c-0.1,0-0.1,0.1-0.2,0.1
				c-0.1,0.1-0.1,0.1-0.1,0.2c0.1,0.1,0.3,0.1,0.4,0.1c0.3,0,0.6,0,0.8,0c0.3,0,0.5,0,0.8-0.1c0.2-0.1,0.4-0.1,0.6-0.2
				c0.1,0,0.1-0.1,0.2-0.1c0.1,0,0.1-0.1,0.2-0.2c0,0,0-0.1,0-0.1c0-0.1-0.1-0.1-0.2-0.1c-0.4-0.1-0.8-0.1-1.2,0
				c-0.5,0.1-1,0.3-1.5,0.5c-0.2,0.1-0.4,0.3-0.6,0.5c-0.1,0.2-0.2,0.3-0.2,0.5c0,0.1,0.3,0.1,0.4,0.1c0.4,0,0.8,0,1.3,0.1
				c0.3,0,0.5,0,0.8-0.1c0.2-0.1,0.5-0.2,0.7-0.3c0.1,0,0.1-0.1,0.2-0.1c0.1-0.1,0.1-0.1,0.1-0.2
				C120.6,202.6,120.4,202.6,120.3,202.6L120.3,202.6z"/>
		</g>
	</g>
	<g>
		<g>
			<path class="st7" d="M154.4,62.4c-1.1,5.9,0.5,12.6,4.8,16.4c4.3,3.8,11.4,3.8,15.1-0.7c1.9-2.3,2.7-5.5,3.1-8.5
				c0.6-4.6,0.4-9.6-1.7-13.7c-2.1-4.1-6.3-7.1-10.6-6.5c-1.8,0.3-3.6,1.1-5.1,2.4c-3.9,3.2-6,8.9-5.2,14.2"/>
			<g>
				<path class="st8" d="M152.9,62.5c-1.1,6.2,0.5,13.5,5.6,17.5c4.6,3.6,11.8,3.4,16.1-0.7c2.6-2.5,3.6-6.1,4.1-9.5
					c0.5-3.6,0.5-7.5-0.4-11c-1.7-6.3-7.6-12-14.6-10.2c-7.5,2-11.5,10.4-10.5,17.7c0.2,1.3,3.1,0.6,2.9-0.8
					c-0.8-5.3,1.5-11.7,6.4-14.3c5.5-3,10.9,2.4,12.5,7.4c1,3,1.2,6.2,0.9,9.4c-0.2,2.9-0.7,6-2.3,8.6c-2.6,4.4-8.4,5-12.4,2.2
					c-5.2-3.5-6.5-10.7-5.5-16.5C156.1,60.9,153.2,61.2,152.9,62.5L152.9,62.5z"/>
			</g>
		</g>
		<g>
			<path class="st9" d="M164.2,69.5c-0.5,2.4-0.2,5.2,1.1,7.1c1.3,1.8,3.6,2.4,5.1,0.9c1.4-1.4,1.7-3.9,1.8-6.2
				c0.1-1.8,0-3.6-0.5-5.2c-0.5-1.6-1.6-3-2.9-3.2c-1.6-0.2-3.1,1.5-3.8,3.5c-0.6,2-0.6,4.3-0.6,6.5"/>
			<g>
				<path class="st10" d="M163.5,69.7c-0.5,2.7-0.3,6.6,2.2,8.3c2.2,1.5,5.2,0.4,6.3-1.9c0.6-1.4,0.8-2.9,0.9-4.4
					c0.1-1.8,0.1-3.6-0.4-5.3c-0.4-1.3-1.1-2.9-2.4-3.5c-1.1-0.5-2.3-0.3-3.3,0.3c-3.4,1.9-3.2,6.7-3.1,10c0,0.2,1.5,0,1.4-0.4
					c0-2.7-0.2-5.7,1.3-8c0.3-0.5,0.7-1,1.2-1.3c0.5-0.4,1.1-0.1,1.6,0.2c1,0.7,1.5,1.8,1.9,2.9c0.4,1.3,0.5,2.8,0.5,4.2
					c0,1.3-0.1,2.6-0.3,3.9c-0.2,1.1-0.6,2.3-1.5,3.1c-0.9,0.8-2,0.3-2.8-0.3c-2.2-1.8-2.4-5.3-1.9-7.9
					C165,69.1,163.5,69.3,163.5,69.7L163.5,69.7z"/>
			</g>
		</g>
	</g>
	<g>
		<g>
			<path class="st5" d="M105.1,196.3c0.5,1.9-0.4,3.7,0,5.6c0.3,1.5,1.5,2.6,3,2.6c1.8,0,3.2-1.4,4.9-1.5c1.5-0.1,3.2,0,4.2-1.3
				c0.2-0.3,0.1-0.6-0.2-0.7c-1.8-0.8-3.6-1.5-5.4-2.3c-0.3,0.3-0.6,0.7-0.8,1c3.2,0.9,6.5,1.7,9.7,2.6c0.3,0.1,0.8,0,1-0.3
				c0.2-0.2,0.2-0.6-0.2-0.7c-3.2-0.9-6.5-1.7-9.7-2.6c-0.6-0.2-1.7,0.6-0.8,1c1.8,0.8,3.6,1.5,5.4,2.3c-0.1-0.2-0.1-0.5-0.2-0.7
				c-0.7,0.9-2.4,0.6-3.5,0.7c-0.7,0.1-1.4,0.4-2,0.7c-0.7,0.3-1.4,0.8-2.1,0.8c-1.4,0.1-2-1.6-2-2.7c0-1.6,0.6-3.2,0.1-4.8
				C106.4,195.3,104.9,195.7,105.1,196.3L105.1,196.3z"/>
		</g>
	</g>
	<g>
		<g>
			<path class="st5" d="M123.7,198c0.8,3.6,2,7,3.6,10.4c0.3,0.6,1.5,0.3,1.4-0.4c-0.2-2.4-0.5-4.9-0.5-7.4c0-1.6,1.7-0.4,2.3,0.3
				c0.7,0.8,1.2,1.7,1.4,2.8c0.2,0.7,1.6,0.3,1.4-0.4c-0.2-1.4-1.2-3.9-3-3.3c-0.9,0.3-1.2,1.2-2,1.7c-1,0.7-2.3,0.8-3.4,0.8
				c-2.4-0.1-4.6-1.1-6.9-1.4c-2.4-0.2-5,0.5-7.3-0.6c-0.2,0.3-0.3,0.7-0.5,1c2.1,0,4.3-0.1,6.4-0.1c-0.2-0.1-0.4-0.2-0.7-0.3
				c0.1,0.2,0.1,0.5,0,0.7c-0.4,0.7,1.1,0.7,1.4,0.2c0.2-0.4,0.3-0.8,0.1-1.3c-0.1-0.3-0.4-0.3-0.7-0.3c-2.1,0-4.3,0.1-6.4,0.1
				c-0.5,0-1.2,0.7-0.5,1c1.9,0.9,4,0.7,6.1,0.6c2.5-0.1,4.7,0.8,7.1,1.2c1.7,0.3,3.5,0.3,5.2-0.4c0.8-0.4,1.4-0.9,2-1.5
				c0.5-0.4,0.6-0.2,1,0.3c0.4,0.6,0.6,1.2,0.7,1.9c0.5-0.1,1-0.3,1.4-0.4c-0.5-2.1-3.1-5.8-5.7-4.4c-1.3,0.7-1,2.2-0.9,3.4
				c0.2,2.1,0.3,4.1,0.5,6.2c0.5-0.1,1-0.3,1.4-0.4c-1.6-3.3-2.8-6.8-3.6-10.4C125,196.9,123.5,197.3,123.7,198L123.7,198z"/>
		</g>
	</g>
	<g>
		<g>
			<path class="st5" d="M114.7,202.2c2.4,0,4.9,0,7.3,0c0.2-0.3,0.4-0.6,0.5-0.9c-3.1,0-6.2,0-9.3,0c-0.1,0.3-0.2,0.6-0.3,0.9
				c2.9-0.5,5.8-0.6,8.7-0.2c0.1-0.3,0.2-0.6,0.3-0.9c-1.9,0.3-3.9,0.6-5.8,0.9c-0.1,0.3-0.1,0.6-0.2,0.9c2.1-0.3,4.2-0.4,6.3-0.3
				c0-0.3,0.1-0.6,0.1-0.9c-2,0.4-4.1,0.5-6.2,0.3c-0.3,0-0.7,0.1-0.9,0.4c-0.2,0.2-0.1,0.5,0.2,0.6c1.8,0.5,3.5-0.2,5.3-0.1
				c0.8,0,1.5,0.3,2,0.9c0.3,0.5,0.4,1.2-0.1,1.7c0.4,0,0.8-0.1,1.3-0.1c-1.1-1.2-2-2.4-2.9-3.8c-0.3-0.4-1.5-0.1-1.4,0.5
				c0.3,1.4,0.8,2.7,1.5,4c0.3,0.5,1.7,0,1.3-0.6c-0.6-1.2-1.1-2.5-1.4-3.8c-0.5,0.2-0.9,0.3-1.4,0.5c0.8,1.3,1.8,2.6,2.9,3.8
				c0.3,0.4,1,0.1,1.3-0.1c0.6-0.5,0.8-1.3,0.5-2c-0.3-0.8-1-1.3-1.8-1.6c-0.9-0.3-1.9-0.3-2.9-0.1c-1.1,0.1-2.2,0.4-3.3,0.1
				c-0.2,0.3-0.5,0.6-0.7,0.9c2.3,0.2,4.7,0,7-0.4c0.5-0.1,0.9-0.9,0.1-0.9c-2.2-0.2-4.5-0.1-6.7,0.3c-0.3,0-0.8,0.2-0.8,0.5
				c0,0.3,0.4,0.4,0.6,0.4c1.9-0.3,3.9-0.6,5.8-0.9c0.3,0,0.7-0.2,0.8-0.5c0.1-0.3-0.2-0.4-0.4-0.5c-3-0.3-6.1-0.3-9.1,0.2
				c-0.3,0-0.7,0.2-0.8,0.5c-0.1,0.3,0.2,0.5,0.4,0.5c3.1,0,6.2,0,9.3,0c0.3,0,0.8-0.1,0.9-0.4c0.1-0.3-0.1-0.5-0.4-0.5
				c-2.4,0-4.9,0-7.3,0c-0.3,0-0.8,0.1-0.9,0.4C114.2,202,114.4,202.2,114.7,202.2L114.7,202.2z"/>
		</g>
	</g>
	<g>
		<g>
			<path class="st5" d="M104.7,192.3c0.6,1.6,0,3.5-1.5,4.3c0.4-0.1,0.9-0.1,1.3-0.2c0-1.8,0.9-3.6,2.4-4.6c-0.4,0-0.8,0-1.2,0
				c-1.3,1.3-2.5,2.7-3.8,4c-0.2,0.2,0.2,0.2,0.3,0.2c0.3,0,0.8-0.1,1-0.3c1.3-1.3,2.5-2.7,3.8-4c0.2-0.2-0.1-0.2-0.3-0.2
				c-0.3,0-0.7,0.1-0.9,0.3c-1.7,1.2-2.8,3-2.8,5c0,0.1,0.5,0.1,0.5,0.1c0.3,0,0.5-0.1,0.8-0.3c1.6-1,2.5-3,1.8-4.8
				C106,191.6,104.6,192,104.7,192.3L104.7,192.3z"/>
		</g>
	</g>
</g>
</svg>
