<svg width="256" height="256" viewBox="0 0 256 256" fill="none" xmlns="http://www.w3.org/2000/svg">
<g clip-path="url(#clip0_1_2)">
<path d="M128 256C198.692 256 256 198.692 256 128C256 57.3075 198.692 0 128 0C57.3075 0 0 57.3075 0 128C0 198.692 57.3075 256 128 256Z" fill="url(#paint0_radial_1_2)"/>
<path d="M128 256C198.692 256 256 198.692 256 128C256 57.3075 198.692 0 128 0C57.3075 0 0 57.3075 0 128C0 198.692 57.3075 256 128 256Z" fill="url(#paint1_radial_1_2)" fill-opacity="0.5"/>
<path d="M125.119 199.57L125.172 170.357C125.171 169.848 125.036 169.348 124.78 168.907C124.525 168.466 124.158 168.099 123.717 167.845L93.5252 150.347C93.0826 150.092 92.5806 149.957 92.0695 149.957C91.5585 149.957 91.0564 150.092 90.6138 150.347L65.2845 164.9C64.8467 165.157 64.4837 165.524 64.2314 165.964C63.9791 166.404 63.8464 166.903 63.8464 167.411C63.8464 167.918 63.9791 168.417 64.2314 168.857C64.4837 169.297 64.8467 169.664 65.2845 169.921L120.762 202.068C121.202 202.32 121.701 202.453 122.209 202.452C122.717 202.452 123.216 202.319 123.656 202.067C124.097 201.814 124.463 201.451 124.72 201.013C124.976 200.575 125.114 200.077 125.119 199.57Z" fill="white"/>
<path d="M89.334 143.048L89.3971 108.161C89.3957 107.651 89.2605 107.151 89.0051 106.71C88.7496 106.269 88.3828 105.903 87.9414 105.648L62.6606 90.998C62.2197 90.7434 61.7197 90.609 61.2105 90.608C60.7013 90.607 60.2008 90.7395 59.7588 90.9923C59.3169 91.2451 58.949 91.6094 58.6919 92.0487C58.4348 92.4881 58.2974 92.9872 58.2935 93.4962L58.1819 157.601C58.1824 158.112 58.3173 158.613 58.5731 159.055C58.8288 159.497 59.1964 159.864 59.6389 160.12C60.0814 160.375 60.5832 160.509 61.094 160.509C61.6049 160.509 62.1066 160.374 62.549 160.119L87.8832 145.566C88.3244 145.31 88.6907 144.943 88.9453 144.501C89.1999 144.059 89.334 143.558 89.334 143.048Z" fill="white"/>
<path d="M190.587 165.122L165.306 150.472C164.864 150.217 164.362 150.082 163.851 150.082C163.34 150.082 162.838 150.217 162.395 150.472L132.14 167.858C131.7 168.112 131.333 168.478 131.078 168.918C130.823 169.358 130.687 169.857 130.685 170.366L130.636 199.578C130.639 200.085 130.775 200.583 131.029 201.022C131.284 201.46 131.648 201.825 132.087 202.079C132.526 202.334 133.024 202.469 133.531 202.472C134.038 202.475 134.537 202.345 134.979 202.096L190.563 170.143C191.002 169.888 191.367 169.523 191.621 169.084C191.876 168.645 192.011 168.147 192.013 167.639C192.016 167.132 191.885 166.633 191.635 166.191C191.385 165.749 191.024 165.381 190.587 165.122Z" fill="white"/>
<path d="M65.4391 86.222L90.7199 100.872C91.1625 101.127 91.6645 101.262 92.1756 101.262C92.6866 101.262 93.1887 101.127 93.6313 100.872L123.886 83.4861C124.326 83.2318 124.693 82.8663 124.948 82.4263C125.204 81.9862 125.339 81.487 125.341 80.9782L125.39 51.7659C125.387 51.2588 125.252 50.7613 124.997 50.3226C124.743 49.8839 124.378 49.5193 123.939 49.2649C123.5 49.0105 123.003 48.8752 122.495 48.8722C121.988 48.8693 121.489 48.999 121.047 49.2483L65.4488 81.2013C65.0105 81.4573 64.6467 81.8234 64.3936 82.2632C64.1405 82.7031 64.0068 83.2015 64.0059 83.7089C64.0049 84.2164 64.1366 84.7153 64.388 85.1561C64.6395 85.5969 65.0018 85.9644 65.4391 86.222Z" fill="white"/>
<path d="M130.906 51.7742L130.852 80.9865C130.854 81.496 130.989 81.9963 131.244 82.4373C131.5 82.8783 131.867 83.2445 132.308 83.4992L162.499 100.997C162.942 101.252 163.444 101.386 163.955 101.386C164.466 101.386 164.968 101.252 165.411 100.997L190.74 86.4438C191.178 86.187 191.541 85.8202 191.793 85.3798C192.045 84.9395 192.178 84.4409 192.178 83.9334C192.178 83.4259 192.045 82.9273 191.793 82.487C191.541 82.0466 191.178 81.6799 190.74 81.423L135.253 49.2711C134.813 49.0212 134.314 48.8906 133.807 48.8922C133.301 48.8939 132.803 49.0277 132.364 49.2806C131.925 49.5334 131.559 49.8964 131.304 50.3338C131.048 50.7711 130.911 51.2676 130.906 51.7742Z" fill="white"/>
<path d="M166.694 108.308L166.631 143.201C166.633 143.71 166.768 144.209 167.024 144.649C167.279 145.089 167.646 145.454 168.086 145.709L193.367 160.363C193.808 160.618 194.309 160.753 194.818 160.753C195.328 160.754 195.829 160.621 196.271 160.368C196.713 160.114 197.081 159.75 197.338 159.309C197.594 158.869 197.731 158.37 197.734 157.86L197.822 93.7554C197.818 93.2487 197.682 92.7517 197.427 92.3137C197.172 91.8757 196.807 91.5118 196.369 91.2579C195.93 91.0041 195.433 90.8692 194.926 90.8665C194.419 90.8638 193.92 90.9934 193.479 91.2426L168.145 105.795C167.704 106.051 167.338 106.417 167.084 106.858C166.829 107.299 166.695 107.799 166.694 108.308Z" fill="white"/>
</g>
<defs>
<radialGradient id="paint0_radial_1_2" cx="0" cy="0" r="1" gradientUnits="userSpaceOnUse" gradientTransform="translate(68.4463 42.8463) rotate(56.9519) scale(253.492)">
<stop stop-color="#3E3E3E"/>
<stop offset="1" stop-color="#141312"/>
</radialGradient>
<radialGradient id="paint1_radial_1_2" cx="0" cy="0" r="1" gradientUnits="userSpaceOnUse" gradientTransform="translate(127.326 99.1663) rotate(85.1469) scale(272.336)">
<stop stop-color="#535353" stop-opacity="0.55"/>
<stop offset="1" stop-color="#0D0D0D"/>
</radialGradient>
<clipPath id="clip0_1_2">
<rect width="256" height="256" fill="white"/>
</clipPath>
</defs>
</svg>
