<svg width="256" height="256" viewBox="0 0 256 256" fill="none" xmlns="http://www.w3.org/2000/svg">
<path d="M128 256C153.316 256 178.064 248.493 199.113 234.428C220.162 220.363 236.569 200.373 246.256 176.983C255.944 153.595 258.479 127.858 253.54 103.029C248.602 78.199 236.411 55.3916 218.51 37.4904C200.608 19.5893 177.801 7.39846 152.971 2.45954C128.142 -2.47936 102.405 0.0554537 79.0166 9.74347C55.6274 19.4315 35.6368 35.8376 21.5719 56.887C7.50706 77.9365 0 102.684 0 128C0 161.948 13.4857 194.505 37.4904 218.51C61.495 242.514 94.0522 256 128 256Z" fill="#2775C9"/>
<path d="M163.25 148.341C163.25 129.675 151.89 123.381 129.916 120.368C113.677 118.021 110.557 114.208 110.557 106.635C110.557 99.0613 116.05 94.3414 126.557 94.3414C136.13 94.3414 141.65 97.6748 143.917 105.382C144.157 106.225 144.663 106.968 145.36 107.501C146.056 108.035 146.906 108.329 147.783 108.341H156.183C156.732 108.353 157.276 108.243 157.778 108.02C158.279 107.797 158.725 107.466 159.084 107.051C159.443 106.636 159.706 106.147 159.855 105.619C160.003 105.091 160.033 104.536 159.943 103.995C157.277 91.8081 149.063 84.4748 136.183 82.1814V69.328C136.183 68.2672 135.762 67.2498 135.012 66.4997C134.262 65.7494 133.244 65.3281 132.183 65.3281H124.183C123.122 65.3281 122.105 65.7494 121.355 66.4997C120.605 67.2498 120.183 68.2672 120.183 69.328V81.7279C104.183 83.9679 94.0765 94.5279 94.0765 108.075C94.0765 125.595 104.743 132.395 127.036 135.408C142.21 137.888 146.53 141.168 146.53 149.781C146.53 158.395 139.196 164.181 128.85 164.181C114.903 164.181 110.183 158.075 108.61 150.155C108.427 149.246 107.938 148.427 107.225 147.835C106.512 147.243 105.617 146.914 104.69 146.901H95.57C95.0258 146.898 94.4874 147.013 93.9926 147.24C93.4977 147.466 93.0582 147.798 92.7052 148.212C92.352 148.626 92.0938 149.113 91.9484 149.637C91.8029 150.161 91.7738 150.711 91.8631 151.248C94.1832 164.582 102.743 174.341 120.183 176.688V189.328C120.183 190.389 120.605 191.407 121.355 192.157C122.105 192.907 123.122 193.328 124.183 193.328H132.183C133.244 193.328 134.262 192.907 135.012 192.157C135.762 191.407 136.183 190.389 136.183 189.328V176.688C152.717 174.075 163.25 162.662 163.25 148.341Z" fill="white"/>
<path d="M100.741 204.475C85.333 198.849 72.027 188.622 62.6255 175.181C53.224 161.739 48.1817 145.732 48.1817 129.329C48.1817 112.926 53.224 96.9189 62.6255 83.4772C72.027 70.0353 85.333 59.8087 100.741 54.1821C101.729 53.7485 102.575 53.0462 103.184 52.1551C103.792 51.264 104.137 50.2201 104.181 49.1422V41.6754C104.245 41.0142 104.134 40.3478 103.859 39.7432C103.584 39.1386 103.155 38.6168 102.615 38.2303C102.074 37.8439 101.442 37.6067 100.78 37.5418C100.119 37.4773 99.4527 37.5879 98.8479 37.8621C79.4442 44.0464 62.51 56.2413 50.4933 72.6836C38.4765 89.1258 32 108.963 32 129.329C32 149.694 38.4765 169.532 50.4933 185.974C62.51 202.416 79.4442 214.611 98.8479 220.795C99.4527 221.07 100.119 221.18 100.78 221.116C101.442 221.051 102.074 220.814 102.615 220.427C103.155 220.041 103.584 219.519 103.859 218.915C104.134 218.31 104.245 217.643 104.181 216.982V209.516C104.137 208.438 103.792 207.393 103.184 206.502C102.575 205.612 101.729 204.909 100.741 204.475Z" fill="white"/>
<path d="M157.513 37.8621C156.908 37.5879 156.242 37.4773 155.581 37.5418C154.919 37.6067 154.287 37.8439 153.746 38.2303C153.206 38.6168 152.777 39.1386 152.502 39.7432C152.227 40.3478 152.116 41.0142 152.18 41.6754V49.1422C152.224 50.2201 152.569 51.264 153.178 52.1551C153.786 53.0462 154.632 53.7485 155.62 54.1821C171.028 59.8087 184.334 70.0353 193.736 83.4772C203.137 96.9189 208.179 112.926 208.179 129.329C208.179 145.732 203.137 161.739 193.736 175.181C184.334 188.622 171.028 198.849 155.62 204.475C154.6 204.863 153.723 205.554 153.108 206.455C152.493 207.356 152.169 208.424 152.18 209.516V216.982C152.116 217.643 152.227 218.31 152.502 218.915C152.777 219.519 153.206 220.041 153.746 220.427C154.287 220.814 154.919 221.051 155.581 221.116C156.242 221.18 156.908 221.07 157.513 220.795C176.917 214.611 193.851 202.416 205.868 185.974C217.885 169.532 224.361 149.694 224.361 129.329C224.361 108.963 217.885 89.1258 205.868 72.6836C193.851 56.2413 176.917 44.0464 157.513 37.8621Z" fill="white"/>
</svg>
