<?xml version="1.0" encoding="UTF-8"?>
<!DOCTYPE svg PUBLIC "-//W3C//DTD SVG 1.1//EN" "http://www.w3.org/Graphics/SVG/1.1/DTD/svg11.dtd">
<svg xmlns="http://www.w3.org/2000/svg" version="1.1" width="510px" height="512px" style="shape-rendering:geometricPrecision; text-rendering:geometricPrecision; image-rendering:optimizeQuality; fill-rule:evenodd; clip-rule:evenodd" xmlns:xlink="http://www.w3.org/1999/xlink">
<g><path style="opacity:1" fill="#030202" d="M -0.5,-0.5 C 22.1667,-0.5 44.8333,-0.5 67.5,-0.5C 69.799,3.33279 71.9657,7.33279 74,11.5C 74.8249,13.7008 74.3249,15.5341 72.5,17C 67.6461,20.1715 62.3127,21.5048 56.5,21C 52.9518,18.4093 51.6185,14.9093 52.5,10.5C 49.8431,10.838 47.5098,10.1713 45.5,8.5C 44.3279,8.91862 43.3279,9.58529 42.5,10.5C 43.5,12.1667 44.8333,13.5 46.5,14.5C 47.7115,17.7672 48.7115,21.1006 49.5,24.5C 50.4776,24.9767 51.3109,25.6433 52,26.5C 52.0288,31.3943 52.8621,36.0609 54.5,40.5C 53.772,42.1547 53.6053,43.8214 54,45.5C 59.0023,41.9152 64.5023,39.4152 70.5,38C 77.8666,37.2103 85.1999,36.2103 92.5,35C 89.9533,32.3502 87.9533,29.3502 86.5,26C 88.5583,23.2357 89.725,20.0691 90,16.5C 91.7417,13.8239 93.9084,11.4905 96.5,9.5C 95.8257,7.48346 94.6591,5.81679 93,4.5C 92.51,3.20677 92.3433,1.87344 92.5,0.5C 90.2646,0.794717 88.2646,0.461384 86.5,-0.5C 146.167,-0.5 205.833,-0.5 265.5,-0.5C 265.804,0.14987 266.137,0.816537 266.5,1.5C 268.686,2.22081 270.853,2.88748 273,3.5C 274.184,8.06991 276.35,12.2366 279.5,16C 280.209,22.0397 282.709,27.2064 287,31.5C 287.392,35.0723 289.059,37.7389 292,39.5C 292.49,40.7932 292.657,42.1266 292.5,43.5C 291.957,43.56 291.624,43.8933 291.5,44.5C 292.325,45.3857 293.325,45.719 294.5,45.5C 297.541,45.3794 299.208,46.8794 299.5,50C 298.637,52.3619 296.97,53.8619 294.5,54.5C 295.611,55.6113 296.278,56.9446 296.5,58.5C 295.063,60.5771 294.396,62.9105 294.5,65.5C 295.552,65.3505 296.552,65.5172 297.5,66C 300.352,68.5206 301.852,71.6873 302,75.5C 303,76.1667 304,76.8333 305,77.5C 306.253,83.3513 309.587,87.3513 315,89.5C 316.033,93.3086 314.533,95.3086 310.5,95.5C 304.085,93.3619 297.751,91.0286 291.5,88.5C 289.998,86.825 288.665,84.9917 287.5,83C 284.167,82.3333 282.167,80.3333 281.5,77C 280.584,76.6258 279.75,76.1258 279,75.5C 278.506,77.1341 278.34,78.8008 278.5,80.5C 283.187,80.9162 284.521,83.2495 282.5,87.5C 284.85,89.2133 285.85,91.5466 285.5,94.5C 299.422,95.7104 311.256,101.377 321,111.5C 323.81,114.464 325.976,117.798 327.5,121.5C 326.599,123.727 324.933,124.727 322.5,124.5C 322.5,127.5 322.5,130.5 322.5,133.5C 326.264,133.588 329.764,134.588 333,136.5C 332.981,134.893 332.815,133.226 332.5,131.5C 333.222,131.918 333.722,132.584 334,133.5C 333.987,140.08 334.987,146.413 337,152.5C 337.5,160.493 337.666,168.493 337.5,176.5C 336.834,172.316 336.167,167.982 335.5,163.5C 332.952,158.608 328.952,156.274 323.5,156.5C 323.499,162.373 322.166,167.873 319.5,173C 321.02,174.885 322.02,177.051 322.5,179.5C 324.193,180.228 325.693,181.228 327,182.5C 327.54,185.361 328.54,188.028 330,190.5C 330.383,189.944 330.883,189.611 331.5,189.5C 327.176,197.985 320.51,203.652 311.5,206.5C 308.547,205.996 305.714,204.996 303,203.5C 302.695,201.443 302.695,199.443 303,197.5C 296.254,205.196 287.754,208.03 277.5,206C 276.167,204.667 276.167,203.333 277.5,202C 282.916,201.841 288.25,201.174 293.5,200C 295.954,198.26 297.454,196.093 298,193.5C 292.584,194.639 287.084,194.806 281.5,194C 280.483,192.951 280.316,191.784 281,190.5C 295.169,192.747 305.835,187.747 313,175.5C 316.428,171 317.762,166 317,160.5C 305.994,175.831 290.994,182.497 272,180.5C 264.997,180.225 257.997,179.891 251,179.5C 247.424,179.515 244.258,180.182 241.5,181.5C 238.623,174.686 236.623,167.52 235.5,160C 237.155,144.709 240.655,129.875 246,115.5C 247.458,113.04 249.291,110.873 251.5,109C 256.559,106.768 260.892,103.601 264.5,99.5C 262.681,98.6801 261.014,97.6801 259.5,96.5C 260.986,93.1 260.82,89.7667 259,86.5C 257,85.8333 255,85.1667 253,84.5C 247.12,76.7068 241.286,69.0402 235.5,61.5C 233.983,60.0892 232.649,60.2559 231.5,62C 229.833,62.6667 228.167,62.6667 226.5,62C 224.837,58.3817 223.17,54.7151 221.5,51C 203.751,48.7021 186.751,51.2021 170.5,58.5C 180.491,70.4714 188.991,83.4714 196,97.5C 196.498,100.482 196.665,103.482 196.5,106.5C 194.139,106.674 191.806,107.007 189.5,107.5C 188.448,107.649 187.448,107.483 186.5,107C 180.686,99.4631 173.019,96.2964 163.5,97.5C 160.296,96.6167 157.629,94.9501 155.5,92.5C 161.849,92.7348 168.183,93.2348 174.5,94C 181.025,95.6933 186.359,99.1933 190.5,104.5C 191.835,100.13 191.002,96.1303 188,92.5C 177.864,70.6981 162.031,54.5314 140.5,44C 115.054,39.0322 89.7211,39.3656 64.5,45C 60.5808,46.5403 57.0808,48.7069 54,51.5C 54.7488,55.4812 54.5821,59.4812 53.5,63.5C 55.6816,65.7336 56.015,68.2336 54.5,71C 55.2703,72.7748 56.437,74.2748 58,75.5C 58.6256,77.7135 58.4589,79.8801 57.5,82C 59.5747,85.824 61.5747,89.6573 63.5,93.5C 62.3702,95.3146 61.7036,97.3146 61.5,99.5C 63.1788,99.7148 64.1788,99.0481 64.5,97.5C 65.1174,97.6107 65.6174,97.944 66,98.5C 67.6374,96.1898 69.804,94.6898 72.5,94C 94.7141,93.0373 116.714,92.5373 138.5,92.5C 141.568,93.0218 144.568,93.8551 147.5,95C 158.095,100.875 166.928,108.709 174,118.5C 176.575,121.726 178.075,125.393 178.5,129.5C 173.097,120.928 166.097,113.762 157.5,108C 149.228,104.848 140.895,101.848 132.5,99C 127.734,97.9629 122.901,97.4629 118,97.5C 101.838,98.149 85.6717,98.649 69.5,99C 67.6547,100.128 65.6547,100.628 63.5,100.5C 63.0728,103.376 62.4062,106.209 61.5,109C 61.6667,110.5 62.5,111.333 64,111.5C 83.9694,105.38 104.469,103.213 125.5,105C 136.665,108.248 146.665,113.581 155.5,121C 162.652,124.077 169.652,127.41 176.5,131C 178.902,133.703 180.235,136.87 180.5,140.5C 178.329,138.5 175.996,136.666 173.5,135C 164.13,134.268 154.797,134.602 145.5,136C 149.723,140.112 151.723,145.112 151.5,151C 151.702,159.893 149.369,168.059 144.5,175.5C 155.902,179.163 167.235,178.83 178.5,174.5C 180.005,171.869 180.671,172.203 180.5,175.5C 180.275,178.546 178.942,180.879 176.5,182.5C 176.631,181.761 176.464,181.094 176,180.5C 173.834,182.121 171.334,182.955 168.5,183C 154.304,183.857 140.304,182.524 126.5,179C 113.822,174.665 101.155,170.331 88.5,166C 83.8333,162 79.1667,158 74.5,154C 68.857,153.136 63.1903,152.469 57.5,152C 56.1341,150.4 55.1341,148.567 54.5,146.5C 52.5866,145.627 50.7533,144.627 49,143.5C 48.5004,150.492 48.3337,157.492 48.5,164.5C 47.8344,160.681 47.5011,156.681 47.5,152.5C 47.5916,147.858 48.2582,143.358 49.5,139C 47.2819,136.488 44.7819,134.321 42,132.5C 40.3005,133.406 38.4672,133.739 36.5,133.5C 39.0188,130.143 41.3521,126.643 43.5,123C 41.6461,121.477 40.1461,119.644 39,117.5C 35.6298,120.535 32.6298,123.868 30,127.5C 29.5034,129.81 29.3367,132.143 29.5,134.5C 26.4842,134.841 23.8175,136.007 21.5,138C 23.6526,138.099 25.3192,138.933 26.5,140.5C 27.1465,142.156 27.8131,143.823 28.5,145.5C 28.278,147.055 27.6113,148.389 26.5,149.5C 28.8103,155.051 29.1437,160.718 27.5,166.5C 33.4932,166.672 34.8265,169.172 31.5,174C 29.5273,174.495 27.5273,174.662 25.5,174.5C 25.569,178.776 26.569,182.776 28.5,186.5C 28.278,188.055 27.6113,189.389 26.5,190.5C 28.5958,191.592 29.9292,193.259 30.5,195.5C 28.7982,198.199 26.7982,200.699 24.5,203C 26.5364,203.454 28.3697,204.287 30,205.5C 32.4528,204.507 34.9528,204.34 37.5,205C 38.8333,206.333 38.8333,207.667 37.5,209C 32.6426,209.189 27.9759,210.189 23.5,212C 26.2309,214.897 27.2309,218.397 26.5,222.5C 32.4717,221.526 38.4717,221.359 44.5,222C 45.3802,223.356 45.7135,224.856 45.5,226.5C 33.822,225.445 22.822,227.612 12.5,233C 9.60004,235.397 7.26671,238.23 5.5,241.5C 2.40969,242.914 1.24302,241.914 2,238.5C 5.92075,231.443 11.7541,226.61 19.5,224C 13.7066,218.547 8.37325,212.88 3.5,207C 4.2887,205.374 5.2887,203.874 6.5,202.5C 4.89638,201.397 3.89638,199.897 3.5,198C 4.54473,196.047 4.54473,194.047 3.5,192C 4.12712,188.314 5.12712,184.814 6.5,181.5C 5.17793,181.67 4.01127,181.337 3,180.5C 3.04182,177.399 1.87515,175.066 -0.5,173.5C -0.5,170.5 -0.5,167.5 -0.5,164.5C 4.55584,162.813 4.55584,160.813 -0.5,158.5C -0.5,154.833 -0.5,151.167 -0.5,147.5C 3.25539,144.613 3.25539,141.613 -0.5,138.5C -0.5,92.1667 -0.5,45.8333 -0.5,-0.5 Z"/></g>
<g><path style="opacity:1" fill="#684e3f" d="M 67.5,-0.5 C 73.8333,-0.5 80.1667,-0.5 86.5,-0.5C 88.2646,0.461384 90.2646,0.794717 92.5,0.5C 92.3433,1.87344 92.51,3.20677 93,4.5C 94.6591,5.81679 95.8257,7.48346 96.5,9.5C 93.9084,11.4905 91.7417,13.8239 90,16.5C 89.725,20.0691 88.5583,23.2357 86.5,26C 87.9533,29.3502 89.9533,32.3502 92.5,35C 85.1999,36.2103 77.8666,37.2103 70.5,38C 64.5023,39.4152 59.0023,41.9152 54,45.5C 53.6053,43.8214 53.772,42.1547 54.5,40.5C 52.8621,36.0609 52.0288,31.3943 52,26.5C 51.3109,25.6433 50.4776,24.9767 49.5,24.5C 48.7115,21.1006 47.7115,17.7672 46.5,14.5C 44.8333,13.5 43.5,12.1667 42.5,10.5C 43.3279,9.58529 44.3279,8.91862 45.5,8.5C 47.5098,10.1713 49.8431,10.838 52.5,10.5C 51.6185,14.9093 52.9518,18.4093 56.5,21C 62.3127,21.5048 67.6461,20.1715 72.5,17C 74.3249,15.5341 74.8249,13.7008 74,11.5C 71.9657,7.33279 69.799,3.33279 67.5,-0.5 Z"/></g>
<g><path style="opacity:1" fill="#fdfdfe" d="M 265.5,-0.5 C 322.5,-0.5 379.5,-0.5 436.5,-0.5C 436.5,170.167 436.5,340.833 436.5,511.5C 422.833,511.5 409.167,511.5 395.5,511.5C 395.96,506.511 394.96,501.844 392.5,497.5C 391.675,496.614 390.675,496.281 389.5,496.5C 388.738,492.452 386.404,491.452 382.5,493.5C 388.332,473.851 386.498,454.851 377,436.5C 371.476,427.453 366.476,418.12 362,408.5C 352.091,395.867 341.591,383.7 330.5,372C 321.442,365.139 311.775,359.305 301.5,354.5C 301.5,353.833 301.167,353.5 300.5,353.5C 299.466,350.014 298.133,346.68 296.5,343.5C 299.453,339.375 302.619,335.375 306,331.5C 307.411,329.35 308.245,327.016 308.5,324.5C 316.985,324.353 318.985,320.853 314.5,314C 315.459,311.88 315.626,309.713 315,307.5C 313.692,305.359 312.192,303.359 310.5,301.5C 315.342,296.496 319.175,290.829 322,284.5C 322.83,278.492 321.33,273.159 317.5,268.5C 323.143,261.023 328.976,253.689 335,246.5C 337.153,241.396 336.987,236.396 334.5,231.5C 342.968,229.873 350.134,225.873 356,219.5C 358.159,215.808 357.993,212.308 355.5,209C 351.535,208.475 349.869,210.309 350.5,214.5C 348.396,214.799 346.396,214.466 344.5,213.5C 345.575,210.562 345.741,207.562 345,204.5C 342.128,201.527 339.961,198.194 338.5,194.5C 338.082,193.778 337.416,193.278 336.5,193C 340.15,184.881 342.483,176.381 343.5,167.5C 344.791,167.737 345.791,167.404 346.5,166.5C 346.783,165.711 347.283,165.044 348,164.5C 348.667,159.167 348.667,153.833 348,148.5C 346.482,147.837 345.315,146.837 344.5,145.5C 343.791,144.596 342.791,144.263 341.5,144.5C 337.546,129.262 330.379,115.596 320,103.5C 316.774,100.675 313.607,98.0087 310.5,95.5C 314.533,95.3086 316.033,93.3086 315,89.5C 309.587,87.3513 306.253,83.3513 305,77.5C 304,76.8333 303,76.1667 302,75.5C 301.852,71.6873 300.352,68.5206 297.5,66C 296.552,65.5172 295.552,65.3505 294.5,65.5C 294.396,62.9105 295.063,60.5771 296.5,58.5C 296.278,56.9446 295.611,55.6113 294.5,54.5C 296.97,53.8619 298.637,52.3619 299.5,50C 299.208,46.8794 297.541,45.3794 294.5,45.5C 293.833,44.8333 293.167,44.1667 292.5,43.5C 292.657,42.1266 292.49,40.7932 292,39.5C 289.059,37.7389 287.392,35.0723 287,31.5C 282.709,27.2064 280.209,22.0397 279.5,16C 276.35,12.2366 274.184,8.06991 273,3.5C 270.853,2.88748 268.686,2.22081 266.5,1.5C 266.137,0.816537 265.804,0.14987 265.5,-0.5 Z"/></g>
<g><path style="opacity:1" fill="#295729" d="M 436.5,-0.5 C 437.167,-0.5 437.833,-0.5 438.5,-0.5C 438.5,170.167 438.5,340.833 438.5,511.5C 437.833,511.5 437.167,511.5 436.5,511.5C 436.5,340.833 436.5,170.167 436.5,-0.5 Z"/></g>
<g><path style="opacity:1" fill="#255a15" d="M 438.5,-0.5 C 462.167,-0.5 485.833,-0.5 509.5,-0.5C 509.5,170.167 509.5,340.833 509.5,511.5C 485.833,511.5 462.167,511.5 438.5,511.5C 438.5,340.833 438.5,170.167 438.5,-0.5 Z"/></g>
<g><path style="opacity:1" fill="#694e40" d="M 153.5,5.5 C 159.004,6.72637 164.67,7.5597 170.5,8C 171.716,11.5521 173.383,14.8855 175.5,18C 177.833,18.3333 180.167,18.6667 182.5,19C 184.704,22.4064 187.371,25.4064 190.5,28C 193.713,28.7026 196.879,28.5359 200,27.5C 201.3,29.4593 203.133,30.626 205.5,31C 206.779,35.2797 209.612,37.7797 214,38.5C 214.233,40.7801 215.066,42.7801 216.5,44.5C 200.757,45.29 185.423,48.1233 170.5,53C 168.167,53.6667 165.833,53.6667 163.5,53C 158.023,48.0937 152.023,43.9271 145.5,40.5C 144.12,32.5247 141.453,25.0247 137.5,18C 143,13.9944 148.333,9.8277 153.5,5.5 Z"/></g>
<g><path style="opacity:1" fill="#674d3f" d="M 118.5,4.5 C 123.378,6.53925 127.212,9.87258 130,14.5C 135.134,21.7603 138.3,29.7603 139.5,38.5C 126.746,37.8271 114.08,36.4938 101.5,34.5C 103.792,30.7075 106.626,27.3741 110,24.5C 110.219,23.062 110.719,21.7287 111.5,20.5C 113.585,18.4121 115.752,16.4121 118,14.5C 118.498,11.1832 118.665,7.8499 118.5,4.5 Z"/></g>
<g><path style="opacity:1" fill="#6a4f40" d="M 155.5,92.5 C 145.352,88.1509 135.019,83.9842 124.5,80C 102.155,75.506 81.8215,80.006 63.5,93.5C 61.5747,89.6573 59.5747,85.824 57.5,82C 58.4589,79.8801 58.6256,77.7135 58,75.5C 56.437,74.2748 55.2703,72.7748 54.5,71C 56.015,68.2336 55.6816,65.7336 53.5,63.5C 54.5821,59.4812 54.7488,55.4812 54,51.5C 57.0808,48.7069 60.5808,46.5403 64.5,45C 89.7211,39.3656 115.054,39.0322 140.5,44C 162.031,54.5314 177.864,70.6981 188,92.5C 191.002,96.1303 191.835,100.13 190.5,104.5C 186.359,99.1933 181.025,95.6933 174.5,94C 168.183,93.2348 161.849,92.7348 155.5,92.5 Z"/></g>
<g><path style="opacity:1" fill="#737373" d="M 292.5,43.5 C 293.167,44.1667 293.833,44.8333 294.5,45.5C 293.325,45.719 292.325,45.3857 291.5,44.5C 291.624,43.8933 291.957,43.56 292.5,43.5 Z"/></g>
<g><path style="opacity:1" fill="#694f40" d="M 259.5,96.5 C 258.833,96.8333 258.167,97.1667 257.5,97.5C 257.265,96.9033 256.765,96.5699 256,96.5C 251.463,97.0532 247.296,98.5532 243.5,101C 241.167,102.243 240.5,103.909 241.5,106C 243.922,106.135 246.255,105.635 248.5,104.5C 246.628,109.043 243.628,112.71 239.5,115.5C 233.033,111.433 226.033,108.766 218.5,107.5C 211.352,106.508 204.019,106.175 196.5,106.5C 196.665,103.482 196.498,100.482 196,97.5C 188.991,83.4714 180.491,70.4714 170.5,58.5C 186.751,51.2021 203.751,48.7021 221.5,51C 223.17,54.7151 224.837,58.3817 226.5,62C 228.167,62.6667 229.833,62.6667 231.5,62C 232.649,60.2559 233.983,60.0892 235.5,61.5C 241.286,69.0402 247.12,76.7068 253,84.5C 255,85.1667 257,85.8333 259,86.5C 260.82,89.7667 260.986,93.1 259.5,96.5 Z"/></g>
<g><path style="opacity:1" fill="#664c3e" d="M 19.5,23.5 C 19.9873,26.4934 21.3206,29.1601 23.5,31.5C 23.1667,32.1667 22.8333,32.8333 22.5,33.5C 24.361,36.5828 25.5277,39.9161 26,43.5C 27.2051,44.0712 28.3717,44.7379 29.5,45.5C 26.4551,49.6088 27.1217,52.9421 31.5,55.5C 32.641,57.4213 32.8077,59.4213 32,61.5C 27.3327,64.569 27.4994,67.569 32.5,70.5C 29.3952,75.3554 30.3952,79.1888 35.5,82C 35.6421,87.7599 35.4754,93.5932 35,99.5C 36.8204,102.313 38.9871,104.813 41.5,107C 37.6447,111.853 33.478,116.353 29,120.5C 27.7202,120.387 26.8869,119.72 26.5,118.5C 27.8333,116.833 27.8333,115.167 26.5,113.5C 24.0299,112.862 22.3633,111.362 21.5,109C 22.5466,104.139 23.5466,99.3057 24.5,94.5C 24.1105,90.4379 23.4439,86.4379 22.5,82.5C 23.0885,78.5054 24.0885,74.6721 25.5,71C 25.4197,68.4458 24.0864,66.9458 21.5,66.5C 20.9013,63.1127 19.568,60.1127 17.5,57.5C 18.1667,54.1667 18.8333,50.8333 19.5,47.5C 17.7053,44.4458 16.7053,41.1125 16.5,37.5C 16.9489,34.6773 17.9489,32.1773 19.5,30C 19.5607,28.2894 18.8941,26.956 17.5,26C 18.3805,25.2917 19.0472,24.4584 19.5,23.5 Z"/></g>
<g><path style="opacity:1" fill="#644a3c" d="M 291.5,88.5 C 288.545,87.8413 285.545,87.5079 282.5,87.5C 284.521,83.2495 283.187,80.9162 278.5,80.5C 278.34,78.8008 278.506,77.1341 279,75.5C 279.75,76.1258 280.584,76.6258 281.5,77C 282.167,80.3333 284.167,82.3333 287.5,83C 288.665,84.9917 289.998,86.825 291.5,88.5 Z"/></g>
<g><path style="opacity:1" fill="#140f0c" d="M 178.5,129.5 C 180.4,132.518 181.733,135.851 182.5,139.5C 182.655,142.853 181.988,143.186 180.5,140.5C 180.235,136.87 178.902,133.703 176.5,131C 169.652,127.41 162.652,124.077 155.5,121C 146.665,113.581 136.665,108.248 125.5,105C 104.469,103.213 83.9694,105.38 64,111.5C 62.5,111.333 61.6667,110.5 61.5,109C 62.4062,106.209 63.0728,103.376 63.5,100.5C 65.6547,100.628 67.6547,100.128 69.5,99C 85.6717,98.649 101.838,98.149 118,97.5C 122.901,97.4629 127.734,97.9629 132.5,99C 140.895,101.848 149.228,104.848 157.5,108C 166.097,113.762 173.097,120.928 178.5,129.5 Z"/></g>
<g><path style="opacity:1" fill="#0d0a08" d="M 257.5,97.5 C 254.72,100.064 251.72,102.397 248.5,104.5C 246.255,105.635 243.922,106.135 241.5,106C 240.5,103.909 241.167,102.243 243.5,101C 247.296,98.5532 251.463,97.0532 256,96.5C 256.765,96.5699 257.265,96.9033 257.5,97.5 Z"/></g>
<g><path style="opacity:1" fill="#694f40" d="M 163.5,97.5 C 173.019,96.2964 180.686,99.4631 186.5,107C 187.448,107.483 188.448,107.649 189.5,107.5C 189.5,107.833 189.5,108.167 189.5,108.5C 185.525,107.858 182.192,108.858 179.5,111.5C 178.127,111.657 176.793,111.49 175.5,111C 171.663,106.331 167.663,101.831 163.5,97.5 Z"/></g>
<g><path style="opacity:1" fill="#98918c" d="M 196.5,106.5 C 204.019,106.175 211.352,106.508 218.5,107.5C 208.801,107.275 199.134,107.608 189.5,108.5C 189.5,108.167 189.5,107.833 189.5,107.5C 191.806,107.007 194.139,106.674 196.5,106.5 Z"/></g>
<g><path style="opacity:1" fill="#130e0b" d="M 95.5,109.5 C 106.896,109.091 118.23,109.591 129.5,111C 140.213,117.076 150.88,123.076 161.5,129C 130.5,129.922 99.4996,131.089 68.5,132.5C 68.4312,129.916 67.2645,127.916 65,126.5C 64.6667,124.167 64.3333,121.833 64,119.5C 63.0754,118.953 62.2421,118.287 61.5,117.5C 72.5471,113.161 83.8805,110.494 95.5,109.5 Z"/></g>
<g><path style="opacity:1" fill="#c7c6c5" d="M 218.5,107.5 C 226.033,108.766 233.033,111.433 239.5,115.5C 242.183,116.669 243.349,118.669 243,121.5C 240.708,121.925 238.541,121.258 236.5,119.5C 235.833,119.167 235.167,118.833 234.5,118.5C 221.917,111.743 208.584,109.743 194.5,112.5C 193.833,112.5 193.167,112.5 192.5,112.5C 187.884,112.921 183.55,114.254 179.5,116.5C 176.5,116.833 175.167,115.5 175.5,112.5C 177.099,112.768 178.432,112.434 179.5,111.5C 182.192,108.858 185.525,107.858 189.5,108.5C 199.134,107.608 208.801,107.275 218.5,107.5 Z"/></g>
<g><path style="opacity:1" fill="#684e3f" d="M 192.5,112.5 C 196.877,116.711 200.71,121.378 204,126.5C 205.384,133.411 205.884,140.411 205.5,147.5C 198.933,139.428 191.767,131.761 184,124.5C 183.601,124.728 183.435,125.062 183.5,125.5C 181.93,122.686 180.597,119.686 179.5,116.5C 183.55,114.254 187.884,112.921 192.5,112.5 Z"/></g>
<g><path style="opacity:1" fill="#090605" d="M 192.5,112.5 C 193.167,112.5 193.833,112.5 194.5,112.5C 202.509,115.351 207.675,121.018 210,129.5C 210.5,135.825 210.666,142.158 210.5,148.5C 208.708,148.634 207.042,148.301 205.5,147.5C 205.884,140.411 205.384,133.411 204,126.5C 200.71,121.378 196.877,116.711 192.5,112.5 Z"/></g>
<g><path style="opacity:1" fill="#684e40" d="M 36.5,133.5 C 34.2362,134.219 31.9029,134.552 29.5,134.5C 29.3367,132.143 29.5034,129.81 30,127.5C 32.6298,123.868 35.6298,120.535 39,117.5C 40.1461,119.644 41.6461,121.477 43.5,123C 41.3521,126.643 39.0188,130.143 36.5,133.5 Z"/></g>
<g><path style="opacity:1" fill="#0e0b08" d="M 234.5,118.5 C 235.167,118.833 235.833,119.167 236.5,119.5C 237.833,120.5 237.833,121.5 236.5,122.5C 233.101,124.388 230.101,126.888 227.5,130C 224.333,130.833 223.167,129.667 224,126.5C 226.858,122.786 230.358,120.12 234.5,118.5 Z"/></g>
<g><path style="opacity:1" fill="#090605" d="M 205.5,147.5 C 207.934,152.574 208.768,157.907 208,163.5C 206.887,164.711 205.72,164.711 204.5,163.5C 204.234,157.791 202.734,152.458 200,147.5C 195.658,142.991 191.158,138.658 186.5,134.5C 185.696,131.421 184.696,128.421 183.5,125.5C 183.435,125.062 183.601,124.728 184,124.5C 191.767,131.761 198.933,139.428 205.5,147.5 Z"/></g>
<g><path style="opacity:1" fill="#b1b0b0" d="M 282.5,87.5 C 285.545,87.5079 288.545,87.8413 291.5,88.5C 297.751,91.0286 304.085,93.3619 310.5,95.5C 313.607,98.0087 316.774,100.675 320,103.5C 330.379,115.596 337.546,129.262 341.5,144.5C 342.791,144.263 343.791,144.596 344.5,145.5C 343.503,145.47 342.836,145.97 342.5,147C 343.442,153.453 343.775,159.953 343.5,166.5C 344.5,166.5 345.5,166.5 346.5,166.5C 345.791,167.404 344.791,167.737 343.5,167.5C 342.483,176.381 340.15,184.881 336.5,193C 337.416,193.278 338.082,193.778 338.5,194.5C 334.083,198.074 329.75,201.907 325.5,206C 321.532,208.711 317.198,210.544 312.5,211.5C 294.036,217.01 276.369,215.176 259.5,206C 255.343,203.336 251.343,200.503 247.5,197.5C 246.061,195.64 244.395,193.973 242.5,192.5C 238.208,188.223 235.208,183.223 233.5,177.5C 231.737,171.586 230.404,165.586 229.5,159.5C 230.7,156.031 230.7,152.698 229.5,149.5C 230.341,147.621 230.675,145.621 230.5,143.5C 231.321,140.359 231.821,137.025 232,133.5C 233.768,129.914 235.268,126.247 236.5,122.5C 237.833,121.5 237.833,120.5 236.5,119.5C 238.541,121.258 240.708,121.925 243,121.5C 243.349,118.669 242.183,116.669 239.5,115.5C 243.628,112.71 246.628,109.043 248.5,104.5C 251.72,102.397 254.72,100.064 257.5,97.5C 258.167,97.1667 258.833,96.8333 259.5,96.5C 261.014,97.6801 262.681,98.6801 264.5,99.5C 260.892,103.601 256.559,106.768 251.5,109C 249.291,110.873 247.458,113.04 246,115.5C 240.655,129.875 237.155,144.709 235.5,160C 236.623,167.52 238.623,174.686 241.5,181.5C 247.135,193.498 256.468,200.998 269.5,204C 276.922,208.729 285.089,210.562 294,209.5C 298.167,209.333 302.333,209.167 306.5,209C 308.491,208.626 310.158,207.793 311.5,206.5C 320.51,203.652 327.176,197.985 331.5,189.5C 334.266,185.54 336.266,181.207 337.5,176.5C 337.666,168.493 337.5,160.493 337,152.5C 334.987,146.413 333.987,140.08 334,133.5C 333.722,132.584 333.222,131.918 332.5,131.5C 332.408,127.316 330.741,123.983 327.5,121.5C 325.976,117.798 323.81,114.464 321,111.5C 311.256,101.377 299.422,95.7104 285.5,94.5C 285.85,91.5466 284.85,89.2133 282.5,87.5 Z"/></g>
<g><path style="opacity:1" fill="#313131" d="M 327.5,121.5 C 330.741,123.983 332.408,127.316 332.5,131.5C 332.815,133.226 332.981,134.893 333,136.5C 329.764,134.588 326.264,133.588 322.5,133.5C 322.5,130.5 322.5,127.5 322.5,124.5C 324.933,124.727 326.599,123.727 327.5,121.5 Z"/></g>
<g><path style="opacity:1" fill="#130e0b" d="M 273.5,121.5 C 283.397,121.705 293.064,123.205 302.5,126C 306.382,129.264 308.549,133.43 309,138.5C 311.512,140.709 313.678,143.209 315.5,146C 313.087,146.484 310.754,146.15 308.5,145C 302.21,142.188 296.21,138.855 290.5,135C 287.768,134.587 285.101,133.92 282.5,133C 270.811,132.694 259.144,132.027 247.5,131C 255.028,124.46 263.695,121.293 273.5,121.5 Z"/></g>
<g><path style="opacity:1" fill="#323232" d="M 281.5,139.5 C 281.735,138.903 282.235,138.57 283,138.5C 289.467,140.151 295.3,142.984 300.5,147C 305.31,149.326 310.31,151.159 315.5,152.5C 309.096,166.703 298.096,173.87 282.5,174C 288.635,166.027 290.135,157.193 287,147.5C 285.884,144.244 284.051,141.578 281.5,139.5 Z"/></g>
<g><path style="opacity:1" fill="#6a5548" d="M -0.5,138.5 C 3.25539,141.613 3.25539,144.613 -0.5,147.5C -0.5,144.5 -0.5,141.5 -0.5,138.5 Z"/></g>
<g><path style="opacity:1" fill="#aeadac" d="M 155.5,92.5 C 157.629,94.9501 160.296,96.6167 163.5,97.5C 167.663,101.831 171.663,106.331 175.5,111C 176.793,111.49 178.127,111.657 179.5,111.5C 178.432,112.434 177.099,112.768 175.5,112.5C 175.167,115.5 176.5,116.833 179.5,116.5C 180.597,119.686 181.93,122.686 183.5,125.5C 184.696,128.421 185.696,131.421 186.5,134.5C 186.19,137.713 186.523,140.713 187.5,143.5C 187.906,148.909 188.573,154.242 189.5,159.5C 188.802,162.897 188.135,166.397 187.5,170C 189.134,170.494 190.801,170.66 192.5,170.5C 191.081,171.451 189.415,171.784 187.5,171.5C 187.5,172.5 187.5,173.5 187.5,174.5C 184.806,180.217 181.806,185.884 178.5,191.5C 177.5,192.833 176.5,194.167 175.5,195.5C 169.961,201.529 163.628,206.696 156.5,211C 148.716,213.292 141.049,215.959 133.5,219C 117.711,222.646 102.044,222.313 86.5,218C 54.8709,201.918 39.8709,176.085 41.5,140.5C 36.5,140.5 31.5,140.5 26.5,140.5C 25.3192,138.933 23.6526,138.099 21.5,138C 23.8175,136.007 26.4842,134.841 29.5,134.5C 31.9029,134.552 34.2362,134.219 36.5,133.5C 38.4672,133.739 40.3005,133.406 42,132.5C 44.7819,134.321 47.2819,136.488 49.5,139C 48.2582,143.358 47.5916,147.858 47.5,152.5C 47.5011,156.681 47.8344,160.681 48.5,164.5C 48.8788,169.682 50.0455,174.682 52,179.5C 61.853,195.019 74.6864,207.519 90.5,217C 103.881,217.903 117.214,217.57 130.5,216C 140.334,212.055 150.001,207.721 159.5,203C 163.275,201.389 166.275,198.889 168.5,195.5C 169.488,194.205 170.488,192.872 171.5,191.5C 173.417,188.669 175.083,185.669 176.5,182.5C 178.942,180.879 180.275,178.546 180.5,175.5C 182.006,164.526 183.006,153.359 183.5,142C 183.472,140.93 183.139,140.097 182.5,139.5C 181.733,135.851 180.4,132.518 178.5,129.5C 178.075,125.393 176.575,121.726 174,118.5C 166.928,108.709 158.095,100.875 147.5,95C 144.568,93.8551 141.568,93.0218 138.5,92.5C 128.663,85.4569 117.663,82.6236 105.5,84C 101.167,84.3333 96.8333,84.6667 92.5,85C 84.4902,87.6734 76.4902,90.34 68.5,93C 66.9586,94.3712 65.6253,95.8712 64.5,97.5C 64.1788,99.0481 63.1788,99.7148 61.5,99.5C 61.7036,97.3146 62.3702,95.3146 63.5,93.5C 81.8215,80.006 102.155,75.506 124.5,80C 135.019,83.9842 145.352,88.1509 155.5,92.5 Z"/></g>
<g><path style="opacity:1" fill="#303030" d="M 101.5,139.5 C 102.93,139.421 104.264,139.754 105.5,140.5C 107.465,147.54 105.298,149.207 99,145.5C 98.0339,142.66 98.8672,140.66 101.5,139.5 Z"/></g>
<g><path style="opacity:1" fill="#313131" d="M 76.5,136.5 C 81.1785,136.334 85.8452,136.501 90.5,137C 86.5276,141.784 83.1943,146.951 80.5,152.5C 78.7721,150.774 76.7721,149.441 74.5,148.5C 73.6922,146.577 73.1922,144.577 73,142.5C 70.8239,142.012 68.9906,141.012 67.5,139.5C 67.7093,138.914 68.0426,138.414 68.5,138C 71.3647,137.817 74.0314,137.317 76.5,136.5 Z"/></g>
<g><path style="opacity:1" fill="#323232" d="M 180.5,140.5 C 181.988,143.186 182.655,142.853 182.5,139.5C 183.139,140.097 183.472,140.93 183.5,142C 183.006,153.359 182.006,164.526 180.5,175.5C 180.671,172.203 180.005,171.869 178.5,174.5C 167.235,178.83 155.902,179.163 144.5,175.5C 149.369,168.059 151.702,159.893 151.5,151C 151.723,145.112 149.723,140.112 145.5,136C 154.797,134.602 164.13,134.268 173.5,135C 175.996,136.666 178.329,138.5 180.5,140.5 Z"/></g>
<g><path style="opacity:1" fill="#15110e" d="M 138.5,92.5 C 116.714,92.5373 94.7141,93.0373 72.5,94C 69.804,94.6898 67.6374,96.1898 66,98.5C 65.6174,97.944 65.1174,97.6107 64.5,97.5C 65.6253,95.8712 66.9586,94.3712 68.5,93C 76.4902,90.34 84.4902,87.6734 92.5,85C 96.8333,84.6667 101.167,84.3333 105.5,84C 117.663,82.6236 128.663,85.4569 138.5,92.5 Z"/></g>
<g><path style="opacity:1" fill="#2f2f2f" d="M 246.5,143.5 C 251.668,144.339 252.668,146.839 249.5,151C 244.917,151.934 243.417,150.1 245,145.5C 245.717,144.956 246.217,144.289 246.5,143.5 Z"/></g>
<g><path style="opacity:1" fill="#191919" d="M 344.5,145.5 C 345.315,146.837 346.482,147.837 348,148.5C 348.667,153.833 348.667,159.167 348,164.5C 347.283,165.044 346.783,165.711 346.5,166.5C 345.5,166.5 344.5,166.5 343.5,166.5C 343.775,159.953 343.442,153.453 342.5,147C 342.836,145.97 343.503,145.47 344.5,145.5 Z"/></g>
<g><path style="opacity:1" fill="#ececec" d="M 229.5,149.5 C 230.7,152.698 230.7,156.031 229.5,159.5C 229.437,164.203 229.771,168.87 230.5,173.5C 226.681,173.117 223.014,172.117 219.5,170.5C 218.348,167.894 218.182,165.227 219,162.5C 221.985,157.689 225.485,153.356 229.5,149.5 Z"/></g>
<g><path style="opacity:1" fill="#303030" d="M 268.5,149.5 C 276.885,148.716 280.051,152.383 278,160.5C 271.909,165.343 267.743,164.009 265.5,156.5C 266.237,154.03 267.237,151.696 268.5,149.5 Z"/></g>
<g><path style="opacity:1" fill="#323232" d="M 337.5,176.5 C 336.266,181.207 334.266,185.54 331.5,189.5C 330.883,189.611 330.383,189.944 330,190.5C 328.54,188.028 327.54,185.361 327,182.5C 325.693,181.228 324.193,180.228 322.5,179.5C 322.02,177.051 321.02,174.885 319.5,173C 322.166,167.873 323.499,162.373 323.5,156.5C 328.952,156.274 332.952,158.608 335.5,163.5C 336.167,167.982 336.834,172.316 337.5,176.5 Z"/></g>
<g><path style="opacity:1" fill="#61483b" d="M -0.5,158.5 C 4.55584,160.813 4.55584,162.813 -0.5,164.5C -0.5,162.5 -0.5,160.5 -0.5,158.5 Z"/></g>
<g><path style="opacity:1" fill="#0d0c0b" d="M 230.5,143.5 C 230.675,145.621 230.341,147.621 229.5,149.5C 225.485,153.356 221.985,157.689 219,162.5C 218.182,165.227 218.348,167.894 219.5,170.5C 223.014,172.117 226.681,173.117 230.5,173.5C 229.771,168.87 229.437,164.203 229.5,159.5C 230.404,165.586 231.737,171.586 233.5,177.5C 213.551,178.71 208.718,170.71 219,153.5C 222.298,149.2 225.965,145.2 230,141.5C 230.464,142.094 230.631,142.761 230.5,143.5 Z"/></g>
<g><path style="opacity:1" fill="#323232" d="M 246.5,160.5 C 251.159,160.015 252.492,161.848 250.5,166C 245.728,166.81 244.395,164.977 246.5,160.5 Z"/></g>
<g><path style="opacity:1" fill="#140f0d" d="M 311.5,206.5 C 310.158,207.793 308.491,208.626 306.5,209C 302.333,209.167 298.167,209.333 294,209.5C 285.089,210.562 276.922,208.729 269.5,204C 256.468,200.998 247.135,193.498 241.5,181.5C 244.258,180.182 247.424,179.515 251,179.5C 257.997,179.891 264.997,180.225 272,180.5C 290.994,182.497 305.994,175.831 317,160.5C 317.762,166 316.428,171 313,175.5C 305.835,187.747 295.169,192.747 281,190.5C 280.316,191.784 280.483,192.951 281.5,194C 287.084,194.806 292.584,194.639 298,193.5C 297.454,196.093 295.954,198.26 293.5,200C 288.25,201.174 282.916,201.841 277.5,202C 276.167,203.333 276.167,204.667 277.5,206C 287.754,208.03 296.254,205.196 303,197.5C 302.695,199.443 302.695,201.443 303,203.5C 305.714,204.996 308.547,205.996 311.5,206.5 Z"/></g>
<g><path style="opacity:1" fill="#070503" d="M 242.5,192.5 C 244.395,193.973 246.061,195.64 247.5,197.5C 246.737,198.268 245.737,198.768 244.5,199C 252.651,206.81 259.651,215.476 265.5,225C 264.902,226.301 263.902,227.135 262.5,227.5C 255.719,218.879 248.719,210.379 241.5,202C 235.99,197.832 229.99,194.498 223.5,192C 222.313,190.981 221.313,189.814 220.5,188.5C 220.887,187.28 221.72,186.613 223,186.5C 229.201,189.508 235.701,191.508 242.5,192.5 Z"/></g>
<g><path style="opacity:1" fill="#8d4418" d="M 218.5,315.5 C 205.077,297.466 187.41,291.299 165.5,297C 159.537,298.793 153.537,300.459 147.5,302C 143.805,304.51 140.138,307.01 136.5,309.5C 129.672,309.361 123.005,308.361 116.5,306.5C 114.824,304.166 112.491,303.166 109.5,303.5C 83.2999,291.4 57.6332,278.233 32.5,264C 28.2407,260.619 24.0741,257.119 20,253.5C 17.58,247.956 18.08,242.789 21.5,238C 27.8802,237.922 34.2135,238.589 40.5,240C 53.5741,243.85 66.5741,247.85 79.5,252C 112.578,259.082 145.912,264.749 179.5,269C 201.54,269.965 223.54,271.465 245.5,273.5C 256.167,273.016 266.834,272.516 277.5,272C 294.789,270.113 307.622,261.613 316,246.5C 320.242,239.687 323.075,232.354 324.5,224.5C 327.737,227.959 330.237,231.959 332,236.5C 332.388,239.685 331.721,242.685 330,245.5C 322.82,253.349 315.987,261.516 309.5,270C 304.58,272.916 300.247,276.582 296.5,281C 294.112,282.861 291.446,284.194 288.5,285C 251.107,288.024 213.774,287.358 176.5,283C 168.137,281.127 159.804,279.127 151.5,277C 133.253,277.571 115.253,275.904 97.5,272C 82.0456,266.071 66.379,260.737 50.5,256C 46.6562,253.578 42.9895,250.911 39.5,248C 35.7047,247.196 34.3714,248.53 35.5,252C 40.1667,255 44.8333,258 49.5,261C 65.4585,265.479 81.1252,270.813 96.5,277C 102.203,277.815 107.87,278.815 113.5,280C 126.199,280.179 138.865,280.845 151.5,282C 184.347,289.785 217.68,293.285 251.5,292.5C 263.154,291.488 274.821,290.655 286.5,290C 294.703,288.565 301.37,284.565 306.5,278C 308.933,276.368 311.433,274.868 314,273.5C 318.314,278.096 318.648,283.096 315,288.5C 310.952,292.88 307.285,297.546 304,302.5C 296.516,309.889 287.516,314.222 277,315.5C 257.51,314.637 238.01,314.637 218.5,315.5 Z"/></g>
<g><path style="opacity:1" fill="#6a4f40" d="M 194.5,112.5 C 208.584,109.743 221.917,111.743 234.5,118.5C 230.358,120.12 226.858,122.786 224,126.5C 223.167,129.667 224.333,130.833 227.5,130C 230.101,126.888 233.101,124.388 236.5,122.5C 235.268,126.247 233.768,129.914 232,133.5C 231.821,137.025 231.321,140.359 230.5,143.5C 230.631,142.761 230.464,142.094 230,141.5C 225.965,145.2 222.298,149.2 219,153.5C 208.718,170.71 213.551,178.71 233.5,177.5C 235.208,183.223 238.208,188.223 242.5,192.5C 235.701,191.508 229.201,189.508 223,186.5C 221.72,186.613 220.887,187.28 220.5,188.5C 221.313,189.814 222.313,190.981 223.5,192C 229.99,194.498 235.99,197.832 241.5,202C 248.719,210.379 255.719,218.879 262.5,227.5C 263.902,227.135 264.902,226.301 265.5,225C 259.651,215.476 252.651,206.81 244.5,199C 245.737,198.768 246.737,198.268 247.5,197.5C 251.343,200.503 255.343,203.336 259.5,206C 276.369,215.176 294.036,217.01 312.5,211.5C 314.556,212.216 316.723,212.883 319,213.5C 320.712,225.319 318.045,235.986 311,245.5C 303.618,257.881 292.785,265.048 278.5,267C 241.074,268.661 203.74,267.328 166.5,263C 137.029,258.512 107.695,253.178 78.5,247C 63.9233,242.356 49.2566,238.023 34.5,234C 18.2932,229.534 11.4599,235.701 14,252.5C 15.3999,255.902 17.5665,258.736 20.5,261C 25.8333,264.667 31.1667,268.333 36.5,272C 51.3894,279.218 66.0561,286.885 80.5,295C 84.9838,296.743 89.3171,298.743 93.5,301C 97.3563,301.177 101.023,301.677 104.5,302.5C 95.1607,302.334 85.8274,302.5 76.5,303C 60.25,312.02 53.75,325.854 57,344.5C 60.8538,364.358 72.8538,373.691 93,372.5C 97.8763,371.996 102.71,371.33 107.5,370.5C 109.085,374.76 110.418,379.093 111.5,383.5C 109.613,386.577 107.446,389.577 105,392.5C 103.2,395.977 101.867,399.644 101,403.5C 96.6847,408.464 93.6847,414.13 92,420.5C 83.587,430.658 77.2537,441.992 73,454.5C 72.6426,463.604 69.9759,471.937 65,479.5C 62.92,486.878 60.42,493.878 57.5,500.5C 57.5,499.167 57.5,497.833 57.5,496.5C 50.2542,493.544 43.2542,490.044 36.5,486C 23.7022,475.703 11.3689,464.869 -0.5,453.5C -0.5,423.833 -0.5,394.167 -0.5,364.5C 2.52203,368.474 6.02203,372.14 10,375.5C 10.3333,379.167 10.6667,382.833 11,386.5C 14.2056,388.124 16.8723,387.458 19,384.5C 21.1632,375.513 22.3298,366.513 22.5,357.5C 22.278,355.945 21.6113,354.611 20.5,353.5C 21.9377,350.917 21.6044,348.583 19.5,346.5C 20.0219,345.393 20.3552,344.226 20.5,343C 18.486,340.477 16.986,337.644 16,334.5C 15.7746,327.782 15.1079,321.115 14,314.5C 12.2429,313.881 11.0762,312.714 10.5,311C 14.9931,306.477 14.3264,302.977 8.5,300.5C 10.1394,297.112 9.13942,295.112 5.5,294.5C 4.49818,290.609 3.66485,286.609 3,282.5C 1.98873,281.663 0.822066,281.33 -0.5,281.5C -0.5,245.5 -0.5,209.5 -0.5,173.5C 1.87515,175.066 3.04182,177.399 3,180.5C 4.01127,181.337 5.17793,181.67 6.5,181.5C 5.12712,184.814 4.12712,188.314 3.5,192C 4.54473,194.047 4.54473,196.047 3.5,198C 3.89638,199.897 4.89638,201.397 6.5,202.5C 5.2887,203.874 4.2887,205.374 3.5,207C 8.37325,212.88 13.7066,218.547 19.5,224C 11.7541,226.61 5.92075,231.443 2,238.5C 1.24302,241.914 2.40969,242.914 5.5,241.5C 7.26671,238.23 9.60004,235.397 12.5,233C 22.822,227.612 33.822,225.445 45.5,226.5C 45.7135,224.856 45.3802,223.356 44.5,222C 38.4717,221.359 32.4717,221.526 26.5,222.5C 27.2309,218.397 26.2309,214.897 23.5,212C 27.9759,210.189 32.6426,209.189 37.5,209C 38.8333,207.667 38.8333,206.333 37.5,205C 34.9528,204.34 32.4528,204.507 30,205.5C 28.3697,204.287 26.5364,203.454 24.5,203C 26.7982,200.699 28.7982,198.199 30.5,195.5C 29.9292,193.259 28.5958,191.592 26.5,190.5C 27.6113,189.389 28.278,188.055 28.5,186.5C 26.569,182.776 25.569,178.776 25.5,174.5C 27.5273,174.662 29.5273,174.495 31.5,174C 34.8265,169.172 33.4932,166.672 27.5,166.5C 29.1437,160.718 28.8103,155.051 26.5,149.5C 27.6113,148.389 28.278,147.055 28.5,145.5C 27.8131,143.823 27.1465,142.156 26.5,140.5C 31.5,140.5 36.5,140.5 41.5,140.5C 39.8709,176.085 54.8709,201.918 86.5,218C 102.044,222.313 117.711,222.646 133.5,219C 141.049,215.959 148.716,213.292 156.5,211C 163.628,206.696 169.961,201.529 175.5,195.5C 176.739,196.212 177.239,197.212 177,198.5C 171.46,205.707 164.96,211.874 157.5,217C 145.868,221.875 134.201,226.541 122.5,231C 118.584,232.102 114.584,232.769 110.5,233C 109.167,234.333 109.167,235.667 110.5,237C 113.167,237.667 115.833,237.667 118.5,237C 132.489,231.67 146.489,226.337 160.5,221C 170.11,212.391 179.444,203.391 188.5,194C 194.831,191.332 200.331,187.499 205,182.5C 206.91,175.654 204.577,170.987 198,168.5C 196.352,163.509 194.685,158.509 193,153.5C 191.54,149.261 189.706,145.928 187.5,143.5C 186.523,140.713 186.19,137.713 186.5,134.5C 191.158,138.658 195.658,142.991 200,147.5C 202.734,152.458 204.234,157.791 204.5,163.5C 205.72,164.711 206.887,164.711 208,163.5C 208.768,157.907 207.934,152.574 205.5,147.5C 207.042,148.301 208.708,148.634 210.5,148.5C 210.666,142.158 210.5,135.825 210,129.5C 207.675,121.018 202.509,115.351 194.5,112.5 Z"/></g>
<g><path style="opacity:1" fill="#0b0907" d="M 175.5,195.5 C 176.5,194.167 177.5,192.833 178.5,191.5C 187.246,190.377 194.746,186.71 201,180.5C 201.896,177.208 200.729,174.875 197.5,173.5C 194.133,176.747 190.8,177.08 187.5,174.5C 187.5,173.5 187.5,172.5 187.5,171.5C 189.415,171.784 191.081,171.451 192.5,170.5C 192.483,166.466 191.483,162.799 189.5,159.5C 188.573,154.242 187.906,148.909 187.5,143.5C 189.706,145.928 191.54,149.261 193,153.5C 194.685,158.509 196.352,163.509 198,168.5C 204.577,170.987 206.91,175.654 205,182.5C 200.331,187.499 194.831,191.332 188.5,194C 179.444,203.391 170.11,212.391 160.5,221C 146.489,226.337 132.489,231.67 118.5,237C 115.833,237.667 113.167,237.667 110.5,237C 109.167,235.667 109.167,234.333 110.5,233C 114.584,232.769 118.584,232.102 122.5,231C 134.201,226.541 145.868,221.875 157.5,217C 164.96,211.874 171.46,205.707 177,198.5C 177.239,197.212 176.739,196.212 175.5,195.5 Z"/></g>
<g><path style="opacity:1" fill="#684e40" d="M 178.5,191.5 C 181.806,185.884 184.806,180.217 187.5,174.5C 190.8,177.08 194.133,176.747 197.5,173.5C 200.729,174.875 201.896,177.208 201,180.5C 194.746,186.71 187.246,190.377 178.5,191.5 Z"/></g>
<g><path style="opacity:1" fill="#efefef" d="M 189.5,159.5 C 191.483,162.799 192.483,166.466 192.5,170.5C 190.801,170.66 189.134,170.494 187.5,170C 188.135,166.397 188.802,162.897 189.5,159.5 Z"/></g>
<g><path style="opacity:1" fill="#010101" d="M 171.5,191.5 C 170.488,192.872 169.488,194.205 168.5,195.5C 143.807,195.91 119.141,193.743 94.5,189C 89.8325,187.835 85.4992,185.835 81.5,183C 75.6842,177.907 70.0175,172.574 64.5,167C 60.7104,166.23 58.877,164.063 59,160.5C 60.8684,159.328 62.7017,159.495 64.5,161C 70.5211,166.023 76.1878,171.356 81.5,177C 95.6396,185.22 110.973,189.22 127.5,189C 142.603,189.817 157.27,190.65 171.5,191.5 Z"/></g>
<g><path style="opacity:1" fill="#313131" d="M 104.5,153.5 C 108.225,153.78 109.392,155.78 108,159.5C 104.828,162.388 102.661,161.722 101.5,157.5C 101.787,155.557 102.787,154.223 104.5,153.5 Z"/></g>
<g><path style="opacity:1" fill="#313131" d="M 129.5,145.5 C 136.725,145.22 139.891,148.553 139,155.5C 136.081,161.025 131.581,162.858 125.5,161C 121.874,158.749 120.707,155.582 122,151.5C 124.114,148.879 126.614,146.879 129.5,145.5 Z"/></g>
<g><path style="opacity:1" fill="#15100d" d="M 176.5,182.5 C 175.083,185.669 173.417,188.669 171.5,191.5C 157.27,190.65 142.603,189.817 127.5,189C 110.973,189.22 95.6396,185.22 81.5,177C 76.1878,171.356 70.5211,166.023 64.5,161C 62.7017,159.495 60.8684,159.328 59,160.5C 58.877,164.063 60.7104,166.23 64.5,167C 70.0175,172.574 75.6842,177.907 81.5,183C 85.4992,185.835 89.8325,187.835 94.5,189C 119.141,193.743 143.807,195.91 168.5,195.5C 166.275,198.889 163.275,201.389 159.5,203C 150.001,207.721 140.334,212.055 130.5,216C 117.214,217.57 103.881,217.903 90.5,217C 74.6864,207.519 61.853,195.019 52,179.5C 50.0455,174.682 48.8788,169.682 48.5,164.5C 48.3337,157.492 48.5004,150.492 49,143.5C 50.7533,144.627 52.5866,145.627 54.5,146.5C 55.1341,148.567 56.1341,150.4 57.5,152C 63.1903,152.469 68.857,153.136 74.5,154C 79.1667,158 83.8333,162 88.5,166C 101.155,170.331 113.822,174.665 126.5,179C 140.304,182.524 154.304,183.857 168.5,183C 171.334,182.955 173.834,182.121 176,180.5C 176.464,181.094 176.631,181.761 176.5,182.5 Z"/></g>
<g><path style="opacity:1" fill="#010100" d="M -0.5,281.5 C 0.822066,281.33 1.98873,281.663 3,282.5C 3.66485,286.609 4.49818,290.609 5.5,294.5C 9.13942,295.112 10.1394,297.112 8.5,300.5C 14.3264,302.977 14.9931,306.477 10.5,311C 11.0762,312.714 12.2429,313.881 14,314.5C 15.1079,321.115 15.7746,327.782 16,334.5C 16.986,337.644 18.486,340.477 20.5,343C 20.3552,344.226 20.0219,345.393 19.5,346.5C 21.6044,348.583 21.9377,350.917 20.5,353.5C 21.6113,354.611 22.278,355.945 22.5,357.5C 22.3298,366.513 21.1632,375.513 19,384.5C 16.8723,387.458 14.2056,388.124 11,386.5C 10.6667,382.833 10.3333,379.167 10,375.5C 6.02203,372.14 2.52203,368.474 -0.5,364.5C -0.5,336.833 -0.5,309.167 -0.5,281.5 Z"/></g>
<g><path style="opacity:1" fill="#0a0604" d="M 338.5,194.5 C 339.961,198.194 342.128,201.527 345,204.5C 345.741,207.562 345.575,210.562 344.5,213.5C 346.396,214.466 348.396,214.799 350.5,214.5C 349.869,210.309 351.535,208.475 355.5,209C 357.993,212.308 358.159,215.808 356,219.5C 350.134,225.873 342.968,229.873 334.5,231.5C 336.987,236.396 337.153,241.396 335,246.5C 328.976,253.689 323.143,261.023 317.5,268.5C 321.33,273.159 322.83,278.492 322,284.5C 319.175,290.829 315.342,296.496 310.5,301.5C 312.192,303.359 313.692,305.359 315,307.5C 315.626,309.713 315.459,311.88 314.5,314C 318.985,320.853 316.985,324.353 308.5,324.5C 308.245,327.016 307.411,329.35 306,331.5C 302.619,335.375 299.453,339.375 296.5,343.5C 295.272,342.694 294.272,341.694 293.5,340.5C 298.004,335.499 301.504,329.832 304,323.5C 305.309,318.934 305.809,314.267 305.5,309.5C 301.183,310.962 297.183,313.128 293.5,316C 290.167,317 286.833,318 283.5,319C 262.825,319.327 242.158,319.827 221.5,320.5C 220.752,318.668 219.752,317.001 218.5,315.5C 238.01,314.637 257.51,314.637 277,315.5C 287.516,314.222 296.516,309.889 304,302.5C 307.285,297.546 310.952,292.88 315,288.5C 318.648,283.096 318.314,278.096 314,273.5C 311.433,274.868 308.933,276.368 306.5,278C 301.37,284.565 294.703,288.565 286.5,290C 274.821,290.655 263.154,291.488 251.5,292.5C 217.68,293.285 184.347,289.785 151.5,282C 138.865,280.845 126.199,280.179 113.5,280C 107.87,278.815 102.203,277.815 96.5,277C 81.1252,270.813 65.4585,265.479 49.5,261C 44.8333,258 40.1667,255 35.5,252C 34.3714,248.53 35.7047,247.196 39.5,248C 42.9895,250.911 46.6562,253.578 50.5,256C 66.379,260.737 82.0456,266.071 97.5,272C 115.253,275.904 133.253,277.571 151.5,277C 159.804,279.127 168.137,281.127 176.5,283C 213.774,287.358 251.107,288.024 288.5,285C 291.446,284.194 294.112,282.861 296.5,281C 300.247,276.582 304.58,272.916 309.5,270C 315.987,261.516 322.82,253.349 330,245.5C 331.721,242.685 332.388,239.685 332,236.5C 330.237,231.959 327.737,227.959 324.5,224.5C 323.075,232.354 320.242,239.687 316,246.5C 307.622,261.613 294.789,270.113 277.5,272C 266.834,272.516 256.167,273.016 245.5,273.5C 223.54,271.465 201.54,269.965 179.5,269C 145.912,264.749 112.578,259.082 79.5,252C 66.5741,247.85 53.5741,243.85 40.5,240C 34.2135,238.589 27.8802,237.922 21.5,238C 18.08,242.789 17.58,247.956 20,253.5C 24.0741,257.119 28.2407,260.619 32.5,264C 57.6332,278.233 83.2999,291.4 109.5,303.5C 107.784,303.371 106.117,303.038 104.5,302.5C 101.023,301.677 97.3563,301.177 93.5,301C 89.3171,298.743 84.9838,296.743 80.5,295C 66.0561,286.885 51.3894,279.218 36.5,272C 31.1667,268.333 25.8333,264.667 20.5,261C 17.5665,258.736 15.3999,255.902 14,252.5C 11.4599,235.701 18.2932,229.534 34.5,234C 49.2566,238.023 63.9233,242.356 78.5,247C 107.695,253.178 137.029,258.512 166.5,263C 203.74,267.328 241.074,268.661 278.5,267C 292.785,265.048 303.618,257.881 311,245.5C 318.045,235.986 320.712,225.319 319,213.5C 316.723,212.883 314.556,212.216 312.5,211.5C 317.198,210.544 321.532,208.711 325.5,206C 329.75,201.907 334.083,198.074 338.5,194.5 Z"/></g>
<g><path style="opacity:1" fill="#9e9b97" d="M 218.5,315.5 C 219.752,317.001 220.752,318.668 221.5,320.5C 226.461,328.057 228.795,336.39 228.5,345.5C 228.5,347.5 228.5,349.5 228.5,351.5C 228.167,352.5 227.5,353.167 226.5,353.5C 226.891,343.368 224.557,334.035 219.5,325.5C 214.032,313.867 205.365,305.367 193.5,300C 181.549,297.85 169.882,298.85 158.5,303C 159.308,303.308 159.975,303.808 160.5,304.5C 156.243,308.387 156.91,309.387 162.5,307.5C 162.5,308.5 162.5,309.5 162.5,310.5C 160.516,310.383 158.85,311.05 157.5,312.5C 156.123,310.711 155.123,308.711 154.5,306.5C 155.09,305.201 156.09,304.368 157.5,304C 153.666,303.888 150.333,305.055 147.5,307.5C 142.541,309.142 138.374,312.142 135,316.5C 134.517,317.448 134.351,318.448 134.5,319.5C 132.336,319.721 130.67,320.721 129.5,322.5C 129.267,320.938 128.6,319.605 127.5,318.5C 129.71,318.106 131.043,316.773 131.5,314.5C 133.5,313.167 135.167,311.5 136.5,309.5C 140.138,307.01 143.805,304.51 147.5,302C 153.537,300.459 159.537,298.793 165.5,297C 187.41,291.299 205.077,297.466 218.5,315.5 Z"/></g>
<g><path style="opacity:1" fill="#b6b5b3" d="M 104.5,302.5 C 106.117,303.038 107.784,303.371 109.5,303.5C 111.509,305.065 113.843,306.065 116.5,306.5C 119.28,309.064 122.28,311.397 125.5,313.5C 126.942,314.82 127.608,316.486 127.5,318.5C 128.6,319.605 129.267,320.938 129.5,322.5C 130.371,325.112 131.037,327.779 131.5,330.5C 133.861,330.326 136.194,329.993 138.5,329.5C 138.5,330.833 138.5,332.167 138.5,333.5C 139.5,333.5 140.5,333.5 141.5,333.5C 141.5,331.833 141.5,330.167 141.5,328.5C 143.5,327.833 144.833,326.5 145.5,324.5C 147.482,326.597 148.482,329.264 148.5,332.5C 149.5,332.5 150.5,332.5 151.5,332.5C 151.192,330.076 151.526,327.743 152.5,325.5C 155.172,327.425 156.172,330.092 155.5,333.5C 156.5,333.5 157.5,333.5 158.5,333.5C 158.5,331.833 158.5,330.167 158.5,328.5C 159.93,328.421 161.264,328.754 162.5,329.5C 162.998,332.593 163.998,335.426 165.5,338C 169.211,338.175 172.878,338.675 176.5,339.5C 174.765,343.757 175.598,347.424 179,350.5C 179.333,354.167 179.667,357.833 180,361.5C 180.708,362.381 181.542,363.047 182.5,363.5C 182.5,364.833 182.5,366.167 182.5,367.5C 188.687,365.652 195.02,365.152 201.5,366C 203.426,366.422 204.426,367.589 204.5,369.5C 204.483,371.565 204.15,373.565 203.5,375.5C 195.309,373.672 186.976,373.006 178.5,373.5C 177.382,340.37 161.049,328.704 129.5,338.5C 129.865,331.585 127.865,325.585 123.5,320.5C 123.067,317.805 121.734,315.638 119.5,314C 116.473,311.65 113.14,310.15 109.5,309.5C 91.4139,303.269 76.5806,307.936 65,323.5C 62.2387,333.101 61.9054,342.768 64,352.5C 67.4934,359.179 72.9934,363.345 80.5,365C 91.2228,365.909 101.89,367.076 112.5,368.5C 115.406,384.135 124.739,393.301 140.5,396C 147.158,396.5 153.825,396.666 160.5,396.5C 164.411,427.446 181.411,439.446 211.5,432.5C 212.922,431.075 214.589,430.075 216.5,429.5C 220.859,426.796 223.192,422.796 223.5,417.5C 224.811,410.265 224.811,402.932 223.5,395.5C 226.838,394.147 230.171,393.48 233.5,393.5C 234.466,395.396 234.799,397.396 234.5,399.5C 235.043,402.218 235.709,404.885 236.5,407.5C 236.205,409.735 236.539,411.735 237.5,413.5C 236.597,416.391 236.264,419.391 236.5,422.5C 235.326,423.514 234.66,424.847 234.5,426.5C 230.111,435.518 222.777,440.185 212.5,440.5C 211.945,438.271 210.611,436.605 208.5,435.5C 207.5,435.833 206.833,436.5 206.5,437.5C 208.256,439.191 208.756,441.191 208,443.5C 207.29,442.027 206.124,441.36 204.5,441.5C 202.833,441.5 201.167,441.5 199.5,441.5C 198.5,441.5 197.5,441.5 196.5,441.5C 191.954,441.732 187.621,440.899 183.5,439C 166.761,433.089 157.761,421.256 156.5,403.5C 140.209,406.402 126.209,402.069 114.5,390.5C 113.744,387.997 112.744,385.663 111.5,383.5C 110.418,379.093 109.085,374.76 107.5,370.5C 102.71,371.33 97.8763,371.996 93,372.5C 72.8538,373.691 60.8538,364.358 57,344.5C 53.75,325.854 60.25,312.02 76.5,303C 85.8274,302.5 95.1607,302.334 104.5,302.5 Z"/></g>
<g><path style="opacity:1" fill="#3d2116" d="M 109.5,303.5 C 112.491,303.166 114.824,304.166 116.5,306.5C 113.843,306.065 111.509,305.065 109.5,303.5 Z"/></g>
<g><path style="opacity:1" fill="#0f0c0a" d="M 116.5,306.5 C 123.005,308.361 129.672,309.361 136.5,309.5C 135.167,311.5 133.5,313.167 131.5,314.5C 129.621,313.659 127.621,313.325 125.5,313.5C 122.28,311.397 119.28,309.064 116.5,306.5 Z"/></g>
<g><path style="opacity:1" fill="#b9b8b6" d="M 147.5,307.5 C 148.5,307.5 149.5,307.5 150.5,307.5C 150.579,308.93 150.246,310.264 149.5,311.5C 150.167,312.833 150.833,314.167 151.5,315.5C 150.675,316.386 149.675,316.719 148.5,316.5C 148.586,315.504 148.252,314.671 147.5,314C 146.062,313.781 144.729,313.281 143.5,312.5C 144.857,310.814 146.19,309.148 147.5,307.5 Z"/></g>
<g><path style="opacity:1" fill="#ecebe7" d="M 109.5,309.5 C 111.927,311.558 114.593,313.391 117.5,315C 118.337,316.011 118.67,317.178 118.5,318.5C 117.244,318.904 116.077,319.571 115,320.5C 110.97,318.399 106.804,316.732 102.5,315.5C 102.973,311.362 105.307,309.362 109.5,309.5 Z"/></g>
<g><path style="opacity:1" fill="#9d9a97" d="M 197.5,311.5 C 200.371,313.544 203.038,315.877 205.5,318.5C 207.432,320.663 207.765,322.997 206.5,325.5C 204.567,323.063 202.4,320.729 200,318.5C 199.536,319.094 199.369,319.761 199.5,320.5C 198.833,320.5 198.5,320.833 198.5,321.5C 197.391,321.443 196.391,321.11 195.5,320.5C 193.912,318.384 191.912,318.051 189.5,319.5C 190.326,320.451 190.492,321.451 190,322.5C 188.647,321.315 187.48,319.981 186.5,318.5C 185.817,318.863 185.15,319.196 184.5,319.5C 183.5,320.167 182.5,320.833 181.5,321.5C 180.5,322.167 179.5,322.833 178.5,323.5C 176.435,323.483 174.435,323.15 172.5,322.5C 173.203,320.284 174.536,318.451 176.5,317C 178.996,315.92 181.33,314.586 183.5,313C 181.08,312.313 178.913,312.813 177,314.5C 176.275,313.941 175.442,313.608 174.5,313.5C 169.234,314.094 164.234,315.427 159.5,317.5C 158.702,317.957 158.369,318.624 158.5,319.5C 156.219,319.923 154.552,319.256 153.5,317.5C 157.03,314.906 161.03,313.072 165.5,312C 173.442,310.532 181.442,309.532 189.5,309C 188.207,308.51 186.873,308.343 185.5,308.5C 185.261,306.533 185.594,304.699 186.5,303C 188.888,302.135 190.388,302.968 191,305.5C 192.099,302.956 193.265,302.956 194.5,305.5C 191.437,309.282 192.437,311.282 197.5,311.5 Z"/></g>
<g><path style="opacity:1" fill="#b59944" d="M 109.5,309.5 C 113.14,310.15 116.473,311.65 119.5,314C 121.734,315.638 123.067,317.805 123.5,320.5C 122.18,319.058 120.514,318.392 118.5,318.5C 118.67,317.178 118.337,316.011 117.5,315C 114.593,313.391 111.927,311.558 109.5,309.5 Z"/></g>
<g><path style="opacity:1" fill="#694e40" d="M 293.5,340.5 C 288.933,336.441 283.933,332.941 278.5,330C 275.183,329.502 271.85,329.335 268.5,329.5C 266.473,329.338 264.473,329.505 262.5,330C 257.62,332.607 252.62,334.94 247.5,337C 242.982,340.752 238.316,344.252 233.5,347.5C 232.22,346.069 230.553,345.402 228.5,345.5C 228.795,336.39 226.461,328.057 221.5,320.5C 242.158,319.827 262.825,319.327 283.5,319C 286.833,318 290.167,317 293.5,316C 297.183,313.128 301.183,310.962 305.5,309.5C 305.809,314.267 305.309,318.934 304,323.5C 301.504,329.832 298.004,335.499 293.5,340.5 Z"/></g>
<g><path style="opacity:1" fill="#ae8f2f" d="M 109.5,309.5 C 105.307,309.362 102.973,311.362 102.5,315.5C 106.804,316.732 110.97,318.399 115,320.5C 116.077,319.571 117.244,318.904 118.5,318.5C 117.527,320.068 117.36,321.735 118,323.5C 120.268,327.942 122.768,332.276 125.5,336.5C 126.655,333.554 126.821,330.554 126,327.5C 124.097,325.559 123.264,323.226 123.5,320.5C 127.865,325.585 129.865,331.585 129.5,338.5C 161.049,328.704 177.382,340.37 178.5,373.5C 186.976,373.006 195.309,373.672 203.5,375.5C 203.5,376.167 203.5,376.833 203.5,377.5C 201.151,377.458 199.818,378.625 199.5,381C 200.555,383.055 201.888,383.555 203.5,382.5C 204.776,384.562 205.61,386.896 206,389.5C 207.41,390.787 208.91,391.954 210.5,393C 214.887,393.791 219.221,394.625 223.5,395.5C 224.811,402.932 224.811,410.265 223.5,417.5C 223.5,412.5 223.5,407.5 223.5,402.5C 221.833,402.5 220.167,402.5 218.5,402.5C 221.337,413.665 218.67,423.165 210.5,431C 210.57,431.765 210.903,432.265 211.5,432.5C 181.411,439.446 164.411,427.446 160.5,396.5C 153.825,396.666 147.158,396.5 140.5,396C 124.739,393.301 115.406,384.135 112.5,368.5C 101.89,367.076 91.2228,365.909 80.5,365C 72.9934,363.345 67.4934,359.179 64,352.5C 61.9054,342.768 62.2387,333.101 65,323.5C 76.5806,307.936 91.4139,303.269 109.5,309.5 Z"/></g>
<g><path style="opacity:1" fill="#6c5244" d="M 125.5,313.5 C 127.621,313.325 129.621,313.659 131.5,314.5C 131.043,316.773 129.71,318.106 127.5,318.5C 127.608,316.486 126.942,314.82 125.5,313.5 Z"/></g>
<g><path style="opacity:1" fill="#ad8f31" d="M 172.5,322.5 C 169.843,322.162 167.51,322.829 165.5,324.5C 163.677,323.253 161.677,322.586 159.5,322.5C 159.737,321.209 159.404,320.209 158.5,319.5C 158.369,318.624 158.702,317.957 159.5,317.5C 164.234,315.427 169.234,314.094 174.5,313.5C 175.442,313.608 176.275,313.941 177,314.5C 178.913,312.813 181.08,312.313 183.5,313C 181.33,314.586 178.996,315.92 176.5,317C 174.536,318.451 173.203,320.284 172.5,322.5 Z"/></g>
<g><path style="opacity:1" fill="#adaba5" d="M 210.5,367.5 C 209.167,367.833 207.833,368.167 206.5,368.5C 213.09,354.182 213.09,339.849 206.5,325.5C 207.765,322.997 207.432,320.663 205.5,318.5C 205.5,317.5 205.5,316.5 205.5,315.5C 212.333,314.67 215,317.67 213.5,324.5C 211.891,324.094 210.557,324.094 209.5,324.5C 211.238,328.049 212.571,331.716 213.5,335.5C 216.272,336.371 218.938,336.371 221.5,335.5C 221.919,340.698 219.752,342.365 215,340.5C 215.485,346.757 215.151,353.09 214,359.5C 212.544,362.032 211.377,364.699 210.5,367.5 Z"/></g>
<g><path style="opacity:1" fill="#ae9035" d="M 147.5,307.5 C 146.19,309.148 144.857,310.814 143.5,312.5C 144.729,313.281 146.062,313.781 147.5,314C 148.252,314.671 148.586,315.504 148.5,316.5C 146.089,316.137 144.589,317.137 144,319.5C 142.416,318.139 140.582,317.472 138.5,317.5C 138.5,321.5 138.5,325.5 138.5,329.5C 136.194,329.993 133.861,330.326 131.5,330.5C 131.037,327.779 130.371,325.112 129.5,322.5C 130.67,320.721 132.336,319.721 134.5,319.5C 134.351,318.448 134.517,317.448 135,316.5C 138.374,312.142 142.541,309.142 147.5,307.5 Z"/></g>
<g><path style="opacity:1" fill="#0f0b09" d="M 184.5,319.5 C 184.733,321.062 185.4,322.395 186.5,323.5C 184.447,323.598 182.78,322.931 181.5,321.5C 182.5,320.833 183.5,320.167 184.5,319.5 Z"/></g>
<g><path style="opacity:1" fill="#eceae5" d="M 118.5,318.5 C 120.514,318.392 122.18,319.058 123.5,320.5C 123.264,323.226 124.097,325.559 126,327.5C 126.821,330.554 126.655,333.554 125.5,336.5C 122.768,332.276 120.268,327.942 118,323.5C 117.36,321.735 117.527,320.068 118.5,318.5 Z"/></g>
<g><path style="opacity:1" fill="#6b5041" d="M 181.5,321.5 C 182.78,322.931 184.447,323.598 186.5,323.5C 192.07,329.567 198.404,334.734 205.5,339C 206.823,339.816 207.489,340.983 207.5,342.5C 204.967,341.146 203.3,341.98 202.5,345C 201.099,345.41 199.766,345.91 198.5,346.5C 195.5,346.5 192.5,346.5 189.5,346.5C 190.305,337.969 186.638,334.969 178.5,337.5C 177.808,336.975 177.308,336.308 177,335.5C 176.805,331.426 177.305,327.426 178.5,323.5C 179.5,322.833 180.5,322.167 181.5,321.5 Z"/></g>
<g><path style="opacity:1" fill="#8d8c8b" d="M 89.5,320.5 C 90.9464,319.387 92.6131,319.22 94.5,320C 98.3051,322.284 102.138,324.451 106,326.5C 106.012,330.273 107.179,333.606 109.5,336.5C 109.058,337.739 108.391,338.739 107.5,339.5C 106.469,338.751 105.302,338.085 104,337.5C 103.383,338.449 103.549,339.282 104.5,340C 101.8,342.405 99.9669,341.905 99,338.5C 97.8173,339.731 96.6507,339.731 95.5,338.5C 96.325,337.614 97.325,337.281 98.5,337.5C 98.6882,335.897 98.1882,334.563 97,333.5C 92.0422,338.471 88.8755,337.137 87.5,329.5C 87.7093,328.914 88.0426,328.414 88.5,328C 92.4902,328.658 96.4902,329.325 100.5,330C 98.1599,326.491 94.8266,324.491 90.5,324C 92.5675,323.313 94.5675,323.48 96.5,324.5C 97.6956,324.154 97.6956,323.654 96.5,323C 93.4487,322.352 91.1154,321.519 89.5,320.5 Z"/></g>
<g><path style="opacity:1" fill="#ae9034" d="M 219.5,325.5 C 224.557,334.035 226.891,343.368 226.5,353.5C 225.5,355.167 224.167,356.5 222.5,357.5C 219.09,361.58 215.09,364.914 210.5,367.5C 211.377,364.699 212.544,362.032 214,359.5C 215.151,353.09 215.485,346.757 215,340.5C 219.752,342.365 221.919,340.698 221.5,335.5C 218.938,336.371 216.272,336.371 213.5,335.5C 212.571,331.716 211.238,328.049 209.5,324.5C 210.557,324.094 211.891,324.094 213.5,324.5C 215,317.67 212.333,314.67 205.5,315.5C 205.5,316.5 205.5,317.5 205.5,318.5C 203.038,315.877 200.371,313.544 197.5,311.5C 192.437,311.282 191.437,309.282 194.5,305.5C 193.265,302.956 192.099,302.956 191,305.5C 190.388,302.968 188.888,302.135 186.5,303C 185.594,304.699 185.261,306.533 185.5,308.5C 186.873,308.343 188.207,308.51 189.5,309C 181.442,309.532 173.442,310.532 165.5,312C 161.03,313.072 157.03,314.906 153.5,317.5C 152.185,318.476 150.852,319.476 149.5,320.5C 148.571,319.311 148.238,317.978 148.5,316.5C 149.675,316.719 150.675,316.386 151.5,315.5C 150.833,314.167 150.167,312.833 149.5,311.5C 150.246,310.264 150.579,308.93 150.5,307.5C 149.5,307.5 148.5,307.5 147.5,307.5C 150.333,305.055 153.666,303.888 157.5,304C 156.09,304.368 155.09,305.201 154.5,306.5C 155.123,308.711 156.123,310.711 157.5,312.5C 158.85,311.05 160.516,310.383 162.5,310.5C 162.5,309.5 162.5,308.5 162.5,307.5C 156.91,309.387 156.243,308.387 160.5,304.5C 159.975,303.808 159.308,303.308 158.5,303C 169.882,298.85 181.549,297.85 193.5,300C 205.365,305.367 214.032,313.867 219.5,325.5 Z"/></g>
<g><path style="opacity:1" fill="#b8b7b4" d="M 219.5,325.5 C 219.5,327.5 219.5,329.5 219.5,331.5C 210.225,329.464 210.225,327.464 219.5,325.5 Z"/></g>
<g><path style="opacity:1" fill="#b8b6ae" d="M 197.5,311.5 C 196.699,309.958 196.366,308.292 196.5,306.5C 198.167,306.5 199.833,306.5 201.5,306.5C 201.5,308.167 201.5,309.833 201.5,311.5C 200.167,311.5 198.833,311.5 197.5,311.5 Z"/></g>
<g><path style="opacity:1" fill="#b8b7b2" d="M 165.5,302.5 C 167.39,302.297 168.89,302.963 170,304.5C 171.549,301.997 173.216,301.997 175,304.5C 176.471,302.128 177.637,302.128 178.5,304.5C 177.95,308.024 176.116,309.024 173,307.5C 172.612,308.428 171.945,309.095 171,309.5C 168.571,307.579 166.738,305.245 165.5,302.5 Z"/></g>
<g><path style="opacity:1" fill="#7c7a78" d="M 148.5,316.5 C 148.238,317.978 148.571,319.311 149.5,320.5C 150.852,319.476 152.185,318.476 153.5,317.5C 154.552,319.256 156.219,319.923 158.5,319.5C 159.404,320.209 159.737,321.209 159.5,322.5C 161.677,322.586 163.677,323.253 165.5,324.5C 167.51,322.829 169.843,322.162 172.5,322.5C 174.435,323.15 176.435,323.483 178.5,323.5C 177.305,327.426 176.805,331.426 177,335.5C 177.308,336.308 177.808,336.975 178.5,337.5C 186.638,334.969 190.305,337.969 189.5,346.5C 192.5,346.5 195.5,346.5 198.5,346.5C 193.422,347.017 188.422,348.184 183.5,350C 182.748,350.671 182.414,351.504 182.5,352.5C 180.066,353.354 180.233,354.354 183,355.5C 183.688,360.602 184.521,360.436 185.5,355C 184.944,353.989 184.278,353.156 183.5,352.5C 188.833,352.5 194.167,352.5 199.5,352.5C 197.031,353.317 194.365,353.817 191.5,354C 193.464,356.167 193.798,358.501 192.5,361C 191.551,361.617 190.718,361.451 190,360.5C 189.667,359.167 189.333,357.833 189,356.5C 188.027,358.392 187.36,360.392 187,362.5C 185.644,363.38 184.144,363.714 182.5,363.5C 181.542,363.047 180.708,362.381 180,361.5C 179.667,357.833 179.333,354.167 179,350.5C 175.598,347.424 174.765,343.757 176.5,339.5C 172.878,338.675 169.211,338.175 165.5,338C 163.998,335.426 162.998,332.593 162.5,329.5C 161.264,328.754 159.93,328.421 158.5,328.5C 158.5,330.167 158.5,331.833 158.5,333.5C 157.5,333.5 156.5,333.5 155.5,333.5C 156.172,330.092 155.172,327.425 152.5,325.5C 151.526,327.743 151.192,330.076 151.5,332.5C 150.5,332.5 149.5,332.5 148.5,332.5C 148.482,329.264 147.482,326.597 145.5,324.5C 144.167,324.5 142.833,324.5 141.5,324.5C 141.5,325.833 141.5,327.167 141.5,328.5C 141.5,330.167 141.5,331.833 141.5,333.5C 140.5,333.5 139.5,333.5 138.5,333.5C 138.5,332.167 138.5,330.833 138.5,329.5C 138.5,325.5 138.5,321.5 138.5,317.5C 140.582,317.472 142.416,318.139 144,319.5C 144.589,317.137 146.089,316.137 148.5,316.5 Z"/></g>
<g><path style="opacity:1" fill="#a28a3e" d="M 145.5,324.5 C 144.833,326.5 143.5,327.833 141.5,328.5C 141.5,327.167 141.5,325.833 141.5,324.5C 142.833,324.5 144.167,324.5 145.5,324.5 Z"/></g>
<g><path style="opacity:1" fill="#a18c51" d="M 153.5,320.5 C 155.048,320.821 155.715,321.821 155.5,323.5C 151.36,324.044 150.693,323.044 153.5,320.5 Z"/></g>
<g><path style="opacity:1" fill="#694f40" d="M 268.5,334.5 C 269.459,346.17 268.126,357.503 264.5,368.5C 261.984,368.755 259.65,369.589 257.5,371C 250.784,376.717 243.784,382.05 236.5,387C 231.213,388.304 225.88,389.471 220.5,390.5C 213.485,389.818 208.818,386.151 206.5,379.5C 207.555,374.282 210.555,370.782 215.5,369C 221.533,368.852 225.867,371.519 228.5,377C 226.72,379.784 224.553,382.284 222,384.5C 221.517,385.448 221.351,386.448 221.5,387.5C 227.768,386.739 231.768,383.239 233.5,377C 231.473,371.468 227.806,367.301 222.5,364.5C 233.35,352.47 246.017,342.97 260.5,336C 263.117,335.178 265.784,334.678 268.5,334.5 Z"/></g>
<g><path style="opacity:1" fill="#6b5243" d="M 180.5,339.5 C 182.144,339.286 183.644,339.62 185,340.5C 185.495,342.473 185.662,344.473 185.5,346.5C 180.962,345.989 179.296,343.656 180.5,339.5 Z"/></g>
<g><path style="opacity:1" fill="#9f9d9c" d="M 89.5,320.5 C 91.1154,321.519 93.4487,322.352 96.5,323C 97.6956,323.654 97.6956,324.154 96.5,324.5C 94.5675,323.48 92.5675,323.313 90.5,324C 94.8266,324.491 98.1599,326.491 100.5,330C 96.4902,329.325 92.4902,328.658 88.5,328C 88.0426,328.414 87.7093,328.914 87.5,329.5C 88.8755,337.137 92.0422,338.471 97,333.5C 98.1882,334.563 98.6882,335.897 98.5,337.5C 97.325,337.281 96.325,337.614 95.5,338.5C 96.6507,339.731 97.8173,339.731 99,338.5C 99.9669,341.905 101.8,342.405 104.5,340C 103.549,339.282 103.383,338.449 104,337.5C 105.302,338.085 106.469,338.751 107.5,339.5C 106.962,341.117 106.629,342.784 106.5,344.5C 104.164,346.391 101.498,346.891 98.5,346C 95.392,343.63 92.0587,341.63 88.5,340C 86.5125,338.681 85.3459,336.848 85,334.5C 82.0335,335.99 81.7002,337.99 84,340.5C 88.8804,345.848 94.7137,349.514 101.5,351.5C 100.119,353.274 100.452,354.774 102.5,356C 100.067,357.632 97.5666,359.132 95,360.5C 89.9078,358.262 84.7412,356.096 79.5,354C 78.7894,352.745 77.956,351.579 77,350.5C 79.6973,341.108 83.0307,331.774 87,322.5C 87.7083,321.619 88.5416,320.953 89.5,320.5 Z"/></g>
<g><path style="opacity:1" fill="#71716f" d="M 106.5,344.5 C 105.567,347.37 103.9,349.704 101.5,351.5C 94.7137,349.514 88.8804,345.848 84,340.5C 81.7002,337.99 82.0335,335.99 85,334.5C 85.3459,336.848 86.5125,338.681 88.5,340C 92.0587,341.63 95.392,343.63 98.5,346C 101.498,346.891 104.164,346.391 106.5,344.5 Z"/></g>
<g><path style="opacity:1" fill="#ebe8e2" d="M 161.5,342.5 C 163.973,342.736 165.64,344.069 166.5,346.5C 164.227,350.438 162.061,350.438 160,346.5C 159.516,344.807 160.016,343.473 161.5,342.5 Z"/></g>
<g><path style="opacity:1" fill="#b8b8b5" d="M 216.5,344.5 C 218.337,344.639 218.67,345.306 217.5,346.5C 216.702,346.043 216.369,345.376 216.5,344.5 Z"/></g>
<g><path style="opacity:1" fill="#969695" d="M 207.5,342.5 C 209.051,344.913 209.717,347.579 209.5,350.5C 206.306,351.758 202.973,352.424 199.5,352.5C 194.167,352.5 188.833,352.5 183.5,352.5C 183.167,352.5 182.833,352.5 182.5,352.5C 182.414,351.504 182.748,350.671 183.5,350C 188.422,348.184 193.422,347.017 198.5,346.5C 199.766,345.91 201.099,345.41 202.5,345C 203.3,341.98 204.967,341.146 207.5,342.5 Z"/></g>
<g><path style="opacity:1" fill="#9f832f" d="M 228.5,345.5 C 230.553,345.402 232.22,346.069 233.5,347.5C 232.415,349.587 230.749,350.92 228.5,351.5C 228.5,349.5 228.5,347.5 228.5,345.5 Z"/></g>
<g><path style="opacity:1" fill="#ad8e2f" d="M 195.5,320.5 C 193.015,321.26 193.015,322.26 195.5,323.5C 197.616,324.942 199.116,326.942 200,329.5C 200.301,326.493 200.135,323.493 199.5,320.5C 199.369,319.761 199.536,319.094 200,318.5C 202.4,320.729 204.567,323.063 206.5,325.5C 213.09,339.849 213.09,354.182 206.5,368.5C 206.158,369.338 205.492,369.672 204.5,369.5C 204.426,367.589 203.426,366.422 201.5,366C 195.02,365.152 188.687,365.652 182.5,367.5C 182.5,366.167 182.5,364.833 182.5,363.5C 184.144,363.714 185.644,363.38 187,362.5C 187.36,360.392 188.027,358.392 189,356.5C 189.333,357.833 189.667,359.167 190,360.5C 190.718,361.451 191.551,361.617 192.5,361C 193.798,358.501 193.464,356.167 191.5,354C 194.365,353.817 197.031,353.317 199.5,352.5C 202.973,352.424 206.306,351.758 209.5,350.5C 209.717,347.579 209.051,344.913 207.5,342.5C 207.489,340.983 206.823,339.816 205.5,339C 198.404,334.734 192.07,329.567 186.5,323.5C 185.4,322.395 184.733,321.062 184.5,319.5C 185.15,319.196 185.817,318.863 186.5,318.5C 187.48,319.981 188.647,321.315 190,322.5C 190.492,321.451 190.326,320.451 189.5,319.5C 191.912,318.051 193.912,318.384 195.5,320.5 Z"/></g>
<g><path style="opacity:1" fill="#6d523c" d="M 199.5,320.5 C 200.135,323.493 200.301,326.493 200,329.5C 199.116,326.942 197.616,324.942 195.5,323.5C 196.71,323.068 197.71,322.401 198.5,321.5C 198.5,320.833 198.833,320.5 199.5,320.5 Z"/></g>
<g><path style="opacity:1" fill="#0c0808" d="M 195.5,320.5 C 196.391,321.11 197.391,321.443 198.5,321.5C 197.71,322.401 196.71,323.068 195.5,323.5C 193.015,322.26 193.015,321.26 195.5,320.5 Z"/></g>
<g><path style="opacity:1" fill="#b8b7b3" d="M 216.5,349.5 C 218.924,349.192 221.257,349.526 223.5,350.5C 223.291,351.086 222.957,351.586 222.5,352C 220.527,352.495 218.527,352.662 216.5,352.5C 216.5,351.5 216.5,350.5 216.5,349.5 Z"/></g>
<g><path style="opacity:1" fill="#ad8f2b" d="M 182.5,352.5 C 182.833,352.5 183.167,352.5 183.5,352.5C 184.278,353.156 184.944,353.989 185.5,355C 184.521,360.436 183.688,360.602 183,355.5C 180.233,354.354 180.066,353.354 182.5,352.5 Z"/></g>
<g><path style="opacity:1" fill="#eae7de" d="M 166.5,349.5 C 171.86,352.58 173.693,357.247 172,363.5C 170.289,361.044 168.956,358.377 168,355.5C 166.926,354.382 165.76,353.382 164.5,352.5C 165.193,351.482 165.859,350.482 166.5,349.5 Z"/></g>
<g><path style="opacity:1" fill="#b9b5ac" d="M 222.5,357.5 C 220.5,358.167 218.5,358.833 216.5,359.5C 216.5,357.5 216.5,355.5 216.5,353.5C 219.878,352.891 221.878,354.224 222.5,357.5 Z"/></g>
<g><path style="opacity:1" fill="#726e6c" d="M 268.5,329.5 C 271.85,329.335 275.183,329.502 278.5,330C 283.933,332.941 288.933,336.441 293.5,340.5C 294.272,341.694 295.272,342.694 296.5,343.5C 298.133,346.68 299.466,350.014 300.5,353.5C 301.054,361.07 300.387,368.404 298.5,375.5C 296.167,377.5 293.833,379.5 291.5,381.5C 286.899,381.055 282.565,381.722 278.5,383.5C 277.015,380.917 274.682,379.584 271.5,379.5C 271.315,377.804 270.481,376.471 269,375.5C 267.811,377.233 266.644,378.9 265.5,380.5C 265.025,378.216 264.025,376.216 262.5,374.5C 265.295,373.642 265.962,371.642 264.5,368.5C 268.126,357.503 269.459,346.17 268.5,334.5C 268.5,332.833 268.5,331.167 268.5,329.5 Z"/></g>
<g><path style="opacity:1" fill="#b9b9b9" d="M 297.5,354.5 C 296.849,353.909 296.182,353.243 295.5,352.5C 294.671,357.467 294.171,362.467 294,367.5C 293.727,370.393 292.893,373.06 291.5,375.5C 291.747,376.713 292.414,377.38 293.5,377.5C 287.746,381.222 281.746,381.389 275.5,378C 273.027,375.527 270.527,373.027 268,370.5C 268.658,365.855 269.658,361.189 271,356.5C 271.5,348.507 271.666,340.507 271.5,332.5C 274.607,332.351 277.607,332.851 280.5,334C 285.317,338.24 290.317,342.24 295.5,346C 296.713,348.687 297.38,351.52 297.5,354.5 Z"/></g>
<g><path style="opacity:1" fill="#858584" d="M 149.5,347.5 C 155.879,347.213 158.879,350.213 158.5,356.5C 156.947,354.615 154.947,353.615 152.5,353.5C 154.059,361.773 150.726,365.273 142.5,364C 145.102,362.86 147.769,362.027 150.5,361.5C 150.5,360.5 150.5,359.5 150.5,358.5C 148.516,358.383 146.85,359.05 145.5,360.5C 142.274,359.123 141.941,357.457 144.5,355.5C 145.451,356.326 146.451,356.492 147.5,356C 145.516,354.19 143.349,354.024 141,355.5C 139.941,355.37 139.108,354.87 138.5,354C 139.665,352.916 140.998,352.083 142.5,351.5C 145.393,352.74 148.227,354.074 151,355.5C 151.711,353.633 151.211,352.133 149.5,351C 146.956,349.908 144.289,349.241 141.5,349C 144.039,347.324 146.539,347.491 149,349.5C 149.464,348.906 149.631,348.239 149.5,347.5 Z"/></g>
<g><path style="opacity:1" fill="#a1a09f" d="M 149.5,347.5 C 149.631,348.239 149.464,348.906 149,349.5C 146.539,347.491 144.039,347.324 141.5,349C 144.289,349.241 146.956,349.908 149.5,351C 151.211,352.133 151.711,353.633 151,355.5C 148.227,354.074 145.393,352.74 142.5,351.5C 140.998,352.083 139.665,352.916 138.5,354C 139.108,354.87 139.941,355.37 141,355.5C 143.349,354.024 145.516,354.19 147.5,356C 146.451,356.492 145.451,356.326 144.5,355.5C 141.941,357.457 142.274,359.123 145.5,360.5C 146.85,359.05 148.516,358.383 150.5,358.5C 150.5,359.5 150.5,360.5 150.5,361.5C 147.769,362.027 145.102,362.86 142.5,364C 150.726,365.273 154.059,361.773 152.5,353.5C 154.947,353.615 156.947,354.615 158.5,356.5C 159.167,356.5 159.5,356.833 159.5,357.5C 158.352,358.164 157.019,358.331 155.5,358C 154.167,360 152.833,362 151.5,364C 152.035,366.109 153.035,366.609 154.5,365.5C 156.321,366.728 157.321,368.394 157.5,370.5C 155.143,370.663 152.81,370.497 150.5,370C 144.979,367.076 139.645,363.909 134.5,360.5C 135.433,354.859 137.433,349.692 140.5,345C 144.055,343.426 147.055,344.259 149.5,347.5 Z"/></g>
<g><path style="opacity:1" fill="#0b0806" d="M 268.5,329.5 C 268.5,331.167 268.5,332.833 268.5,334.5C 265.784,334.678 263.117,335.178 260.5,336C 246.017,342.97 233.35,352.47 222.5,364.5C 227.806,367.301 231.473,371.468 233.5,377C 231.768,383.239 227.768,386.739 221.5,387.5C 221.351,386.448 221.517,385.448 222,384.5C 224.553,382.284 226.72,379.784 228.5,377C 225.867,371.519 221.533,368.852 215.5,369C 210.555,370.782 207.555,374.282 206.5,379.5C 208.818,386.151 213.485,389.818 220.5,390.5C 225.88,389.471 231.213,388.304 236.5,387C 243.784,382.05 250.784,376.717 257.5,371C 259.65,369.589 261.984,368.755 264.5,368.5C 265.962,371.642 265.295,373.642 262.5,374.5C 260.326,374.75 258.659,375.75 257.5,377.5C 256.883,377.611 256.383,377.944 256,378.5C 255.814,380.9 255.314,383.234 254.5,385.5C 254.522,384.005 254.189,382.338 253.5,380.5C 250.45,382.928 248.117,385.928 246.5,389.5C 246.251,388.418 246.085,387.085 246,385.5C 244.622,387.213 242.955,388.547 241,389.5C 240.667,391.833 240.333,394.167 240,396.5C 239.798,394.744 239.298,393.078 238.5,391.5C 237.833,391.833 237.167,392.167 236.5,392.5C 235.832,394.969 235.165,397.302 234.5,399.5C 234.799,397.396 234.466,395.396 233.5,393.5C 230.171,393.48 226.838,394.147 223.5,395.5C 219.221,394.625 214.887,393.791 210.5,393C 208.91,391.954 207.41,390.787 206,389.5C 205.61,386.896 204.776,384.562 203.5,382.5C 203.5,380.833 203.5,379.167 203.5,377.5C 203.5,376.833 203.5,376.167 203.5,375.5C 204.15,373.565 204.483,371.565 204.5,369.5C 205.492,369.672 206.158,369.338 206.5,368.5C 207.833,368.167 209.167,367.833 210.5,367.5C 215.09,364.914 219.09,361.58 222.5,357.5C 224.167,356.5 225.5,355.167 226.5,353.5C 227.5,353.167 228.167,352.5 228.5,351.5C 230.749,350.92 232.415,349.587 233.5,347.5C 238.316,344.252 242.982,340.752 247.5,337C 252.62,334.94 257.62,332.607 262.5,330C 264.473,329.505 266.473,329.338 268.5,329.5 Z"/></g>
<g><path style="opacity:1" fill="#e4e4e4" d="M 297.5,354.5 C 300.96,363.053 299.626,370.72 293.5,377.5C 292.414,377.38 291.747,376.713 291.5,375.5C 292.893,373.06 293.727,370.393 294,367.5C 294.171,362.467 294.671,357.467 295.5,352.5C 296.182,353.243 296.849,353.909 297.5,354.5 Z"/></g>
<g><path style="opacity:1" fill="#6a4f40" d="M 300.5,353.5 C 301.167,353.5 301.5,353.833 301.5,354.5C 301.5,356.5 301.5,358.5 301.5,360.5C 320.403,367.9 335.236,380.233 346,397.5C 354.741,404.641 360.741,413.641 364,424.5C 380.43,445.319 385.097,468.652 378,494.5C 376.363,500.429 374.196,506.096 371.5,511.5C 330.833,511.5 290.167,511.5 249.5,511.5C 247.28,506.728 244.78,502.062 242,497.5C 236.333,492.5 230.667,487.5 225,482.5C 222.395,477.59 219.061,473.257 215,469.5C 214.722,470.416 214.222,471.082 213.5,471.5C 213.197,466.108 212.531,460.775 211.5,455.5C 212.448,450.565 212.781,445.565 212.5,440.5C 222.777,440.185 230.111,435.518 234.5,426.5C 243.009,433.181 251.342,440.014 259.5,447C 260.833,447.667 262.167,448.333 263.5,449C 267.833,449.333 272.167,449.667 276.5,450C 277.051,455.137 279.718,458.47 284.5,460C 289.493,465.723 295.826,468.223 303.5,467.5C 303.351,468.552 303.517,469.552 304,470.5C 309.87,476.394 317.037,479.227 325.5,479C 329.449,485.611 335.282,488.778 343,488.5C 350.683,487.742 357.517,484.909 363.5,480C 366.999,475.325 370.332,470.492 373.5,465.5C 372.652,463.717 371.319,463.217 369.5,464C 364.36,471.148 358.027,476.814 350.5,481C 345.833,481.667 341.167,481.667 336.5,481C 333.806,478.347 332.973,475.18 334,471.5C 337.667,466.833 341.333,462.167 345,457.5C 347.865,451.96 351.532,446.96 356,442.5C 356.783,440.681 356.283,439.348 354.5,438.5C 350.8,441.507 347.3,444.84 344,448.5C 338.966,456.876 333.132,464.709 326.5,472C 318.413,474.457 312.079,472.124 307.5,465C 308,463.5 308.5,462 309,460.5C 317.661,450.174 326.661,440.174 336,430.5C 336.783,428.681 336.283,427.348 334.5,426.5C 326.658,434.21 318.825,441.876 311,449.5C 308.4,453.097 306.234,456.93 304.5,461C 303.391,461.638 302.225,462.138 301,462.5C 296.627,461.062 292.46,459.228 288.5,457C 284.552,453.599 282.385,449.433 282,444.5C 287.928,431.569 296.428,420.903 307.5,412.5C 308.848,411.399 310.348,410.399 312,409.5C 312.667,407.167 312.667,404.833 312,402.5C 307.756,395.422 302.589,389.089 296.5,383.5C 299.335,381.164 302.002,378.664 304.5,376C 302.888,372.897 300.888,372.73 298.5,375.5C 300.387,368.404 301.054,361.07 300.5,353.5 Z"/></g>
<g><path style="opacity:1" fill="#9e9c9a" d="M 134.5,360.5 C 135.812,364.004 137.812,367.17 140.5,370C 145.091,372.111 149.424,374.277 153.5,376.5C 153.071,377.953 152.904,379.619 153,381.5C 151.023,382.905 148.857,383.905 146.5,384.5C 141.346,382.893 136.346,380.893 131.5,378.5C 130.065,377.071 129.065,375.405 128.5,373.5C 130.134,368.901 132.134,364.567 134.5,360.5 Z"/></g>
<g><path style="opacity:1" fill="#757472" d="M 159.5,357.5 C 160.339,358.641 161.006,359.974 161.5,361.5C 159.333,364.469 157.999,367.803 157.5,371.5C 156.113,373.21 154.779,374.877 153.5,376.5C 149.424,374.277 145.091,372.111 140.5,370C 137.812,367.17 135.812,364.004 134.5,360.5C 139.645,363.909 144.979,367.076 150.5,370C 152.81,370.497 155.143,370.663 157.5,370.5C 157.321,368.394 156.321,366.728 154.5,365.5C 153.035,366.609 152.035,366.109 151.5,364C 152.833,362 154.167,360 155.5,358C 157.019,358.331 158.352,358.164 159.5,357.5 Z"/></g>
<g><path style="opacity:1" fill="#0c0906" d="M 296.5,383.5 C 295.18,382.058 293.514,381.392 291.5,381.5C 293.833,379.5 296.167,377.5 298.5,375.5C 300.888,372.73 302.888,372.897 304.5,376C 302.002,378.664 299.335,381.164 296.5,383.5 Z"/></g>
<g><path style="opacity:1" fill="#0d0c0a" d="M 271.5,379.5 C 271.068,380.71 270.401,381.71 269.5,382.5C 268.005,382.011 266.671,381.345 265.5,380.5C 266.644,378.9 267.811,377.233 269,375.5C 270.481,376.471 271.315,377.804 271.5,379.5 Z"/></g>
<g><path style="opacity:1" fill="#f1f0ed" d="M 271.5,379.5 C 274.682,379.584 277.015,380.917 278.5,383.5C 276.519,386.801 273.852,388.468 270.5,388.5C 269.534,386.604 269.201,384.604 269.5,382.5C 270.401,381.71 271.068,380.71 271.5,379.5 Z"/></g>
<g><path style="opacity:1" fill="#dddbd5" d="M 203.5,377.5 C 203.5,379.167 203.5,380.833 203.5,382.5C 201.888,383.555 200.555,383.055 199.5,381C 199.818,378.625 201.151,377.458 203.5,377.5 Z"/></g>
<g><path style="opacity:1" fill="#654c3e" d="M 257.5,377.5 C 258.473,380.135 260.14,382.135 262.5,383.5C 254.223,391.963 245.556,399.963 236.5,407.5C 235.709,404.885 235.043,402.218 234.5,399.5C 235.165,397.302 235.832,394.969 236.5,392.5C 237.167,392.167 237.833,391.833 238.5,391.5C 239.298,393.078 239.798,394.744 240,396.5C 240.333,394.167 240.667,391.833 241,389.5C 242.955,388.547 244.622,387.213 246,385.5C 246.085,387.085 246.251,388.418 246.5,389.5C 248.117,385.928 250.45,382.928 253.5,380.5C 254.189,382.338 254.522,384.005 254.5,385.5C 255.314,383.234 255.814,380.9 256,378.5C 256.383,377.944 256.883,377.611 257.5,377.5 Z"/></g>
<g><path style="opacity:1" fill="#f1f1f0" d="M 264.5,389.5 C 266.478,390.144 267.811,391.478 268.5,393.5C 267.304,395.145 266.304,396.811 265.5,398.5C 252.849,403.82 244.849,413.153 241.5,426.5C 239.814,425.143 238.148,423.81 236.5,422.5C 236.264,419.391 236.597,416.391 237.5,413.5C 246.551,405.443 255.551,397.443 264.5,389.5 Z"/></g>
<g><path style="opacity:1" fill="#a0a09e" d="M 208.5,394.5 C 208.631,395.376 208.298,396.043 207.5,396.5C 205.618,395.907 203.785,395.24 202,394.5C 202,395.833 202,397.167 202,398.5C 198.015,395.525 193.848,395.025 189.5,397C 190.893,398.171 191.727,399.671 192,401.5C 192.49,400.207 192.657,398.873 192.5,397.5C 194.75,397.181 196.75,397.681 198.5,399C 196.82,399.034 195.32,399.201 194,399.5C 194.446,401.883 195.612,404.05 197.5,406C 196.167,406.333 194.833,406.667 193.5,407C 197.107,407.797 200.274,406.964 203,404.5C 202.016,406.598 202.349,408.598 204,410.5C 204.915,409.672 205.581,408.672 206,407.5C 206.44,409.076 207.273,410.41 208.5,411.5C 207.573,413.946 205.906,414.779 203.5,414C 197.436,411.094 191.769,407.594 186.5,403.5C 186.167,404 185.833,404.5 185.5,405C 188.675,411.423 193.675,415.757 200.5,418C 197.854,418.497 195.187,418.664 192.5,418.5C 192.519,420.06 192.852,421.56 193.5,423C 193.164,424.03 192.497,424.53 191.5,424.5C 188.546,423.572 185.546,422.739 182.5,422C 180.848,420.53 179.848,418.697 179.5,416.5C 183.054,407.058 186.887,397.724 191,388.5C 195.061,386.818 198.561,387.651 201.5,391C 204.592,390.893 206.925,392.059 208.5,394.5 Z"/></g>
<g><path style="opacity:1" fill="#6a4f40" d="M 114.5,390.5 C 126.209,402.069 140.209,406.402 156.5,403.5C 157.761,421.256 166.761,433.089 183.5,439C 187.621,440.899 191.954,441.732 196.5,441.5C 188.43,451.29 181.597,461.957 176,473.5C 169.821,480.014 163.988,486.847 158.5,494C 144.657,503.586 129.157,508.419 112,508.5C 95.7228,508.072 79.8894,505.406 64.5,500.5C 66.0148,495.479 67.5148,490.479 69,485.5C 70.4077,480.924 72.741,476.924 76,473.5C 77.9727,464.064 80.3061,454.73 83,445.5C 86.9918,440.173 90.9918,434.84 95,429.5C 97.1647,426.164 98.498,422.497 99,418.5C 103.577,414.567 106.243,409.567 107,403.5C 109.407,398.971 111.907,394.638 114.5,390.5 Z"/></g>
<g><path style="opacity:1" fill="#0d0d0c" d="M 262.5,383.5 C 263.285,385.374 263.952,387.374 264.5,389.5C 255.551,397.443 246.551,405.443 237.5,413.5C 236.539,411.735 236.205,409.735 236.5,407.5C 245.556,399.963 254.223,391.963 262.5,383.5 Z"/></g>
<g><path style="opacity:1" fill="#ad8d2f" d="M 262.5,374.5 C 264.025,376.216 265.025,378.216 265.5,380.5C 266.671,381.345 268.005,382.011 269.5,382.5C 269.201,384.604 269.534,386.604 270.5,388.5C 273.852,388.468 276.519,386.801 278.5,383.5C 282.565,381.722 286.899,381.055 291.5,381.5C 293.514,381.392 295.18,382.058 296.5,383.5C 302.589,389.089 307.756,395.422 312,402.5C 312.667,404.833 312.667,407.167 312,409.5C 310.348,410.399 308.848,411.399 307.5,412.5C 302.473,415.212 297.473,417.879 292.5,420.5C 291.5,420.5 290.5,420.5 289.5,420.5C 289.649,419.448 289.483,418.448 289,417.5C 285.833,415.667 283.333,413.167 281.5,410C 276.827,406.822 271.827,404.322 266.5,402.5C 265.566,401.432 265.232,400.099 265.5,398.5C 266.304,396.811 267.304,395.145 268.5,393.5C 267.811,391.478 266.478,390.144 264.5,389.5C 263.952,387.374 263.285,385.374 262.5,383.5C 260.14,382.135 258.473,380.135 257.5,377.5C 258.659,375.75 260.326,374.75 262.5,374.5 Z"/></g>
<g><path style="opacity:1" fill="#f5d047" d="M 297.5,390.5 C 299.773,390.957 301.106,392.29 301.5,394.5C 302.49,397.151 303.49,399.817 304.5,402.5C 303.749,404.996 302.749,407.33 301.5,409.5C 299.059,410.557 296.725,411.89 294.5,413.5C 290.416,409.405 286.082,405.739 281.5,402.5C 290.014,402.643 295.348,398.643 297.5,390.5 Z"/></g>
<g><path style="opacity:1" fill="#bcbab2" d="M 295.5,387.5 C 297.048,387.821 297.715,388.821 297.5,390.5C 295.348,398.643 290.014,402.643 281.5,402.5C 279.994,391.882 284.661,386.882 295.5,387.5 Z"/></g>
<g><path style="opacity:1" fill="#f2ce47" d="M 295.5,387.5 C 284.661,386.882 279.994,391.882 281.5,402.5C 277.294,401.399 273.294,399.733 269.5,397.5C 274.076,389.919 280.743,385.586 289.5,384.5C 292.102,384.467 294.102,385.467 295.5,387.5 Z"/></g>
<g><path style="opacity:1" fill="#6a4f40" d="M 266.5,402.5 C 271.827,404.322 276.827,406.822 281.5,410C 283.333,413.167 285.833,415.667 289,417.5C 289.483,418.448 289.649,419.448 289.5,420.5C 290.5,420.5 291.5,420.5 292.5,420.5C 286.281,427.244 281.281,434.911 277.5,443.5C 272.082,444.897 266.749,444.731 261.5,443C 254.293,438.642 249.626,432.476 247.5,424.5C 250.997,414.673 257.331,407.339 266.5,402.5 Z"/></g>
<g><path style="opacity:1" fill="#edebe4" d="M 301.5,394.5 C 305.485,397.265 308.151,401.098 309.5,406C 309.415,407.107 309.081,408.107 308.5,409C 306.19,409.497 303.857,409.663 301.5,409.5C 302.749,407.33 303.749,404.996 304.5,402.5C 303.49,399.817 302.49,397.151 301.5,394.5 Z"/></g>
<g><path style="opacity:1" fill="#82817f" d="M 208.5,394.5 C 209.221,397.979 210.554,401.312 212.5,404.5C 210.179,407.394 209.012,410.727 209,414.5C 206.982,416.35 205.149,418.35 203.5,420.5C 204.428,421.768 204.595,423.101 204,424.5C 199.762,428.349 195.595,428.349 191.5,424.5C 192.497,424.53 193.164,424.03 193.5,423C 192.852,421.56 192.519,420.06 192.5,418.5C 195.187,418.664 197.854,418.497 200.5,418C 193.675,415.757 188.675,411.423 185.5,405C 185.833,404.5 186.167,404 186.5,403.5C 191.769,407.594 197.436,411.094 203.5,414C 205.906,414.779 207.573,413.946 208.5,411.5C 207.273,410.41 206.44,409.076 206,407.5C 205.581,408.672 204.915,409.672 204,410.5C 202.349,408.598 202.016,406.598 203,404.5C 200.274,406.964 197.107,407.797 193.5,407C 194.833,406.667 196.167,406.333 197.5,406C 195.612,404.05 194.446,401.883 194,399.5C 195.32,399.201 196.82,399.034 198.5,399C 196.75,397.681 194.75,397.181 192.5,397.5C 192.657,398.873 192.49,400.207 192,401.5C 191.727,399.671 190.893,398.171 189.5,397C 193.848,395.025 198.015,395.525 202,398.5C 202,397.167 202,395.833 202,394.5C 203.785,395.24 205.618,395.907 207.5,396.5C 208.298,396.043 208.631,395.376 208.5,394.5 Z"/></g>
<g><path style="opacity:1" fill="#ebebeb" d="M 231.5,404.5 C 232.75,404.577 233.583,405.244 234,406.5C 235.717,415.247 234.05,423.247 229,430.5C 227.395,433.274 225.228,433.94 222.5,432.5C 229.804,424.639 232.804,415.306 231.5,404.5 Z"/></g>
<g><path style="opacity:1" fill="#ebe8e2" d="M 223.5,417.5 C 221.182,421.465 218.848,425.465 216.5,429.5C 214.589,430.075 212.922,431.075 211.5,432.5C 210.903,432.265 210.57,431.765 210.5,431C 218.67,423.165 221.337,413.665 218.5,402.5C 220.167,402.5 221.833,402.5 223.5,402.5C 223.5,407.5 223.5,412.5 223.5,417.5 Z"/></g>
<g><path style="opacity:1" fill="#080605" d="M 265.5,398.5 C 265.232,400.099 265.566,401.432 266.5,402.5C 257.331,407.339 250.997,414.673 247.5,424.5C 249.626,432.476 254.293,438.642 261.5,443C 266.749,444.731 272.082,444.897 277.5,443.5C 281.281,434.911 286.281,427.244 292.5,420.5C 297.473,417.879 302.473,415.212 307.5,412.5C 296.428,420.903 287.928,431.569 282,444.5C 282.385,449.433 284.552,453.599 288.5,457C 292.46,459.228 296.627,461.062 301,462.5C 302.225,462.138 303.391,461.638 304.5,461C 306.234,456.93 308.4,453.097 311,449.5C 318.825,441.876 326.658,434.21 334.5,426.5C 336.283,427.348 336.783,428.681 336,430.5C 326.661,440.174 317.661,450.174 309,460.5C 308.5,462 308,463.5 307.5,465C 312.079,472.124 318.413,474.457 326.5,472C 333.132,464.709 338.966,456.876 344,448.5C 347.3,444.84 350.8,441.507 354.5,438.5C 356.283,439.348 356.783,440.681 356,442.5C 351.532,446.96 347.865,451.96 345,457.5C 341.333,462.167 337.667,466.833 334,471.5C 332.973,475.18 333.806,478.347 336.5,481C 341.167,481.667 345.833,481.667 350.5,481C 358.027,476.814 364.36,471.148 369.5,464C 371.319,463.217 372.652,463.717 373.5,465.5C 370.332,470.492 366.999,475.325 363.5,480C 357.517,484.909 350.683,487.742 343,488.5C 335.282,488.778 329.449,485.611 325.5,479C 317.037,479.227 309.87,476.394 304,470.5C 303.517,469.552 303.351,468.552 303.5,467.5C 295.826,468.223 289.493,465.723 284.5,460C 279.718,458.47 277.051,455.137 276.5,450C 272.167,449.667 267.833,449.333 263.5,449C 262.167,448.333 260.833,447.667 259.5,447C 251.342,440.014 243.009,433.181 234.5,426.5C 234.66,424.847 235.326,423.514 236.5,422.5C 238.148,423.81 239.814,425.143 241.5,426.5C 244.849,413.153 252.849,403.82 265.5,398.5 Z"/></g>
<g><path style="opacity:1" fill="#af8f25" d="M 223.5,417.5 C 223.192,422.796 220.859,426.796 216.5,429.5C 218.848,425.465 221.182,421.465 223.5,417.5 Z"/></g>
<g><path style="opacity:1" fill="#ab8d32" d="M 212.5,440.5 C 212.781,445.565 212.448,450.565 211.5,455.5C 212.531,460.775 213.197,466.108 213.5,471.5C 213.253,473.858 213.919,475.858 215.5,477.5C 214.869,479.903 213.869,482.236 212.5,484.5C 213.417,487.758 213.751,491.091 213.5,494.5C 213.473,497.23 214.14,499.73 215.5,502C 214.131,505.012 213.464,508.179 213.5,511.5C 210.833,511.5 208.167,511.5 205.5,511.5C 206.895,510.352 206.728,509.352 205,508.5C 204.5,501.842 204.334,495.175 204.5,488.5C 205.636,483.319 205.636,477.985 204.5,472.5C 199.452,473.557 195.119,475.89 191.5,479.5C 188.519,478.448 185.519,478.281 182.5,479C 180.922,476.661 181.255,474.828 183.5,473.5C 185.738,474.537 188.071,474.703 190.5,474C 192.49,472.249 194.823,471.249 197.5,471C 202.143,468.534 204.476,464.7 204.5,459.5C 204.5,457.5 204.5,455.5 204.5,453.5C 204.136,449.378 204.136,445.378 204.5,441.5C 206.124,441.36 207.29,442.027 208,443.5C 208.756,441.191 208.256,439.191 206.5,437.5C 206.833,436.5 207.5,435.833 208.5,435.5C 210.611,436.605 211.945,438.271 212.5,440.5 Z"/></g>
<g><path style="opacity:1" fill="#10100f" d="M 301.5,354.5 C 311.775,359.305 321.442,365.139 330.5,372C 341.591,383.7 352.091,395.867 362,408.5C 366.476,418.12 371.476,427.453 377,436.5C 386.498,454.851 388.332,473.851 382.5,493.5C 380.807,499.608 378.807,505.608 376.5,511.5C 374.833,511.5 373.167,511.5 371.5,511.5C 374.196,506.096 376.363,500.429 378,494.5C 385.097,468.652 380.43,445.319 364,424.5C 360.741,413.641 354.741,404.641 346,397.5C 335.236,380.233 320.403,367.9 301.5,360.5C 301.5,358.5 301.5,356.5 301.5,354.5 Z"/></g>
<g><path style="opacity:1" fill="#4b3b24" d="M 199.5,441.5 C 201.167,441.5 202.833,441.5 204.5,441.5C 204.136,445.378 204.136,449.378 204.5,453.5C 203.475,450.026 202.808,446.36 202.5,442.5C 201.209,442.737 200.209,442.404 199.5,441.5 Z"/></g>
<g><path style="opacity:1" fill="#f4f3f0" d="M 204.5,459.5 C 204.476,464.7 202.143,468.534 197.5,471C 194.823,471.249 192.49,472.249 190.5,474C 188.071,474.703 185.738,474.537 183.5,473.5C 182.314,471.806 182.481,470.139 184,468.5C 188.113,462.053 192.613,455.886 197.5,450C 198.332,449.312 198.998,449.479 199.5,450.5C 200.62,453.918 202.287,456.918 204.5,459.5 Z"/></g>
<g><path style="opacity:1" fill="#a6882f" d="M 111.5,383.5 C 112.744,385.663 113.744,387.997 114.5,390.5C 111.907,394.638 109.407,398.971 107,403.5C 106.243,409.567 103.577,414.567 99,418.5C 98.498,422.497 97.1647,426.164 95,429.5C 90.9918,434.84 86.9918,440.173 83,445.5C 80.3061,454.73 77.9727,464.064 76,473.5C 72.741,476.924 70.4077,480.924 69,485.5C 67.5148,490.479 66.0148,495.479 64.5,500.5C 63.6129,504.096 62.6129,507.762 61.5,511.5C 60.5,511.5 59.5,511.5 58.5,511.5C 58.719,510.325 58.3857,509.325 57.5,508.5C 56.913,509.233 56.913,510.233 57.5,511.5C 56.1667,511.5 54.8333,511.5 53.5,511.5C 54.4363,507.691 55.7696,504.025 57.5,500.5C 60.42,493.878 62.92,486.878 65,479.5C 69.9759,471.937 72.6426,463.604 73,454.5C 77.2537,441.992 83.587,430.658 92,420.5C 93.6847,414.13 96.6847,408.464 101,403.5C 101.867,399.644 103.2,395.977 105,392.5C 107.446,389.577 109.613,386.577 111.5,383.5 Z"/></g>
<g><path style="opacity:1" fill="#050301" d="M -0.5,453.5 C 11.3689,464.869 23.7022,475.703 36.5,486C 43.2542,490.044 50.2542,493.544 57.5,496.5C 57.5,497.833 57.5,499.167 57.5,500.5C 55.7696,504.025 54.4363,507.691 53.5,511.5C 50.8333,511.5 48.1667,511.5 45.5,511.5C 44.0578,509.363 42.8911,507.03 42,504.5C 31.7194,494.568 21.8861,484.068 12.5,473C 11.552,472.517 10.552,472.351 9.5,472.5C 9.64945,471.448 9.48278,470.448 9,469.5C 5.57924,466.251 2.41257,462.918 -0.5,459.5C -0.5,457.5 -0.5,455.5 -0.5,453.5 Z"/></g>
<g><path style="opacity:1" fill="#030202" d="M 196.5,441.5 C 197.5,441.5 198.5,441.5 199.5,441.5C 200.209,442.404 201.209,442.737 202.5,442.5C 202.808,446.36 203.475,450.026 204.5,453.5C 204.5,455.5 204.5,457.5 204.5,459.5C 202.287,456.918 200.62,453.918 199.5,450.5C 198.998,449.479 198.332,449.312 197.5,450C 192.613,455.886 188.113,462.053 184,468.5C 182.481,470.139 182.314,471.806 183.5,473.5C 181.255,474.828 180.922,476.661 182.5,479C 185.519,478.281 188.519,478.448 191.5,479.5C 195.023,483.693 199.356,486.693 204.5,488.5C 204.334,495.175 204.5,501.842 205,508.5C 206.728,509.352 206.895,510.352 205.5,511.5C 157.5,511.5 109.5,511.5 61.5,511.5C 62.6129,507.762 63.6129,504.096 64.5,500.5C 79.8894,505.406 95.7228,508.072 112,508.5C 129.157,508.419 144.657,503.586 158.5,494C 163.988,486.847 169.821,480.014 176,473.5C 181.597,461.957 188.43,451.29 196.5,441.5 Z"/></g>
<g><path style="opacity:1" fill="#73573d" d="M 74.5,464.5 C 75.9405,466.42 75.6071,468.087 73.5,469.5C 73.1667,469.167 72.8333,468.833 72.5,468.5C 73.6302,467.378 74.2969,466.044 74.5,464.5 Z"/></g>
<g><path style="opacity:1" fill="#020100" d="M -0.5,470.5 C 12.2254,484.221 24.8921,497.888 37.5,511.5C 24.8333,511.5 12.1667,511.5 -0.5,511.5C -0.5,497.833 -0.5,484.167 -0.5,470.5 Z"/></g>
<g><path style="opacity:1" fill="#e2d4b0" d="M 207.5,468.5 C 209.924,470.228 210.09,472.228 208,474.5C 207.505,472.527 207.338,470.527 207.5,468.5 Z"/></g>
<g><path style="opacity:1" fill="#6b4f41" d="M 71.5,472.5 C 73.8852,473.867 73.5518,475.201 70.5,476.5C 70.1667,476.333 69.8333,476.167 69.5,476C 70.305,474.887 70.9717,473.721 71.5,472.5 Z"/></g>
<g><path style="opacity:1" fill="#f4f2ed" d="M 204.5,488.5 C 199.356,486.693 195.023,483.693 191.5,479.5C 195.119,475.89 199.452,473.557 204.5,472.5C 205.636,477.985 205.636,483.319 204.5,488.5 Z"/></g>
<g><path style="opacity:1" fill="#f1f1ef" d="M 215.5,477.5 C 222.139,486.304 229.972,493.971 239,500.5C 241.372,503.91 243.205,507.577 244.5,511.5C 242.167,511.5 239.833,511.5 237.5,511.5C 236.375,509.871 235.041,508.371 233.5,507C 226.812,502.733 220.145,498.566 213.5,494.5C 213.751,491.091 213.417,487.758 212.5,484.5C 213.869,482.236 214.869,479.903 215.5,477.5 Z"/></g>
<g><path style="opacity:1" fill="#0f0f0f" d="M 249.5,511.5 C 247.833,511.5 246.167,511.5 244.5,511.5C 243.205,507.577 241.372,503.91 239,500.5C 229.972,493.971 222.139,486.304 215.5,477.5C 213.919,475.858 213.253,473.858 213.5,471.5C 214.222,471.082 214.722,470.416 215,469.5C 219.061,473.257 222.395,477.59 225,482.5C 230.667,487.5 236.333,492.5 242,497.5C 244.78,502.062 247.28,506.728 249.5,511.5 Z"/></g>
<g><path style="opacity:1" fill="#e5decc" d="M 208.5,486.5 C 209.693,486.97 210.36,487.97 210.5,489.5C 210.167,490.5 209.833,491.5 209.5,492.5C 208.534,490.604 208.201,488.604 208.5,486.5 Z"/></g>
<g><path style="opacity:1" fill="#0a0908" d="M 213.5,494.5 C 220.145,498.566 226.812,502.733 233.5,507C 235.041,508.371 236.375,509.871 237.5,511.5C 229.5,511.5 221.5,511.5 213.5,511.5C 213.464,508.179 214.131,505.012 215.5,502C 214.14,499.73 213.473,497.23 213.5,494.5 Z"/></g>
<g><path style="opacity:1" fill="#b49332" d="M 395.5,511.5 C 389.167,511.5 382.833,511.5 376.5,511.5C 378.807,505.608 380.807,499.608 382.5,493.5C 386.404,491.452 388.738,492.452 389.5,496.5C 390.675,496.281 391.675,496.614 392.5,497.5C 394.96,501.844 395.96,506.511 395.5,511.5 Z"/></g>
<g><path style="opacity:1" fill="#231c08" d="M 208.5,499.5 C 210.484,499.484 211.484,500.484 211.5,502.5C 211.547,504 210.881,505 209.5,505.5C 208.534,503.604 208.201,501.604 208.5,499.5 Z"/></g>
<g><path style="opacity:1" fill="#9d8128" d="M -0.5,459.5 C 2.41257,462.918 5.57924,466.251 9,469.5C 9.48278,470.448 9.64945,471.448 9.5,472.5C 10.552,472.351 11.552,472.517 12.5,473C 21.8861,484.068 31.7194,494.568 42,504.5C 42.8911,507.03 44.0578,509.363 45.5,511.5C 42.8333,511.5 40.1667,511.5 37.5,511.5C 24.8921,497.888 12.2254,484.221 -0.5,470.5C -0.5,466.833 -0.5,463.167 -0.5,459.5 Z"/></g>
<g><path style="opacity:1" fill="#382e0e" d="M 32.5,501.5 C 33.9778,501.238 35.3112,501.571 36.5,502.5C 34.5365,505.194 33.2032,504.861 32.5,501.5 Z"/></g>
<g><path style="opacity:1" fill="#181303" d="M 28.5,496.5 C 30.3588,496.461 31.6921,497.294 32.5,499C 30.3858,499.442 29.0524,498.609 28.5,496.5 Z"/></g>
<g><path style="opacity:1" fill="#171203" d="M 24.5,491.5 C 25.5,491.5 26.5,491.5 27.5,491.5C 27.762,492.978 27.4287,494.311 26.5,495.5C 24.8888,494.68 24.2222,493.346 24.5,491.5 Z"/></g>
<g><path style="opacity:1" fill="#181303" d="M 18.5,485.5 C 21.1526,486.142 22.3193,487.808 22,490.5C 20.2287,489.696 18.7287,488.529 17.5,487C 18.056,486.617 18.3893,486.117 18.5,485.5 Z"/></g>
<g><path style="opacity:1" fill="#271f08" d="M 13.5,482.5 C 14.4971,481.287 15.4971,481.454 16.5,483C 15.4232,483.47 14.4232,483.303 13.5,482.5 Z"/></g>
<g><path style="opacity:1" fill="#130d01" d="M 8.5,474.5 C 11.1142,474.277 12.7809,475.444 13.5,478C 12.4366,479.188 11.1033,479.688 9.5,479.5C 9.37133,477.784 9.038,476.117 8.5,474.5 Z"/></g>
<g><path style="opacity:1" fill="#171304" d="M 4.5,469.5 C 6.561,470.751 6.89434,472.418 5.5,474.5C 3.29572,473.218 2.96238,471.551 4.5,469.5 Z"/></g>
<g><path style="opacity:1" fill="#2e2509" d="M 0.5,465.5 C 2.46455,465.948 2.79789,466.948 1.5,468.5C 0.614324,467.675 0.28099,466.675 0.5,465.5 Z"/></g>
<g><path style="opacity:1" fill="#3e3311" d="M 59.5,501.5 C 61.9725,502.749 62.1391,504.415 60,506.5C 58.4807,504.861 58.314,503.194 59.5,501.5 Z"/></g>
<g><path style="opacity:1" fill="#050300" d="M 37.5,505.5 C 38.9953,505.415 39.9953,506.081 40.5,507.5C 38.6043,508.639 37.6043,507.973 37.5,505.5 Z"/></g>
<g><path style="opacity:1" fill="#0f0d01" d="M 58.5,511.5 C 58.1667,511.5 57.8333,511.5 57.5,511.5C 56.913,510.233 56.913,509.233 57.5,508.5C 58.3857,509.325 58.719,510.325 58.5,511.5 Z"/></g>
</svg>
