<?xml version="1.0" encoding="UTF-8"?>
<!DOCTYPE svg PUBLIC "-//W3C//DTD SVG 1.1//EN" "http://www.w3.org/Graphics/SVG/1.1/DTD/svg11.dtd">
<svg xmlns="http://www.w3.org/2000/svg" version="1.1" width="256px" height="256px" style="shape-rendering:geometricPrecision; text-rendering:geometricPrecision; image-rendering:optimizeQuality; fill-rule:evenodd; clip-rule:evenodd" xmlns:xlink="http://www.w3.org/1999/xlink">
<g><path style="opacity:1" fill="#e81b23" d="M -0.5,-0.5 C 84.8333,-0.5 170.167,-0.5 255.5,-0.5C 255.5,54.5 255.5,109.5 255.5,164.5C 238.658,161.498 226.824,152.165 220,136.5C 218.568,134.561 216.735,133.228 214.5,132.5C 207.116,124.745 200.95,116.079 196,106.5C 188.566,99.7391 181.9,92.4058 176,84.5C 173.686,75.3199 172.352,65.9865 172,56.5C 171.844,53.8091 171.011,51.4758 169.5,49.5C 169.672,48.5084 169.338,47.8417 168.5,47.5C 166.641,38.6214 162.308,31.1214 155.5,25C 151.5,21.6667 147.5,18.3333 143.5,15C 131.894,8.41201 119.394,5.91201 106,7.5C 87.5521,8.87761 69.0521,9.71095 50.5,10C 39.9007,13.4578 36.4007,20.6245 40,31.5C 40.4709,33.2464 41.1376,34.913 42,36.5C 44.5139,39.6777 47.0139,42.8444 49.5,46C 43.95,54.2665 38.7834,62.7665 34,71.5C 31.3879,76.3899 29.0545,81.3899 27,86.5C 26.3333,89.5 26.3333,92.5 27,95.5C 30.3945,104.024 34.7278,112.024 40,119.5C 49.0513,128.705 60.0513,134.371 73,136.5C 87.9854,138.614 102.152,142.948 115.5,149.5C 117.12,151.984 119.453,153.484 122.5,154C 123.899,155.062 124.899,156.395 125.5,158C 121.319,162.014 117.319,166.181 113.5,170.5C 108.382,175.378 103.715,180.711 99.5,186.5C 95.641,192.885 92.3076,199.551 89.5,206.5C 88.0911,208.972 86.4244,211.305 84.5,213.5C 82.1084,216.598 79.9417,219.931 78,223.5C 74.17,234.144 70.3367,244.811 66.5,255.5C 44.1667,255.5 21.8333,255.5 -0.5,255.5C -0.5,170.167 -0.5,84.8333 -0.5,-0.5 Z"/></g>
<g><path style="opacity:1" fill="#160e11" d="M 168.5,47.5 C 168.649,48.552 168.483,49.552 168,50.5C 167.647,47.8475 166.48,45.8475 164.5,44.5C 162.797,40.767 160.797,37.1003 158.5,33.5C 152.517,28.8495 146.85,23.8495 141.5,18.5C 141.167,18.5 140.833,18.5 140.5,18.5C 134.954,15.1445 128.954,12.6445 122.5,11C 99.4507,10.7014 76.4507,11.368 53.5,13C 43.3907,15.2236 40.0574,21.0569 43.5,30.5C 43.8333,30.5 44.1667,30.5 44.5,30.5C 44.4914,32.3084 44.9914,33.9751 46,35.5C 48.3644,38.6902 50.8644,41.6902 53.5,44.5C 54.2341,45.7079 54.5674,47.0413 54.5,48.5C 53.4923,50.3386 51.9923,51.6719 50,52.5C 47.814,56.714 45.814,61.0474 44,65.5C 43.5272,70.2572 44.0272,74.9239 45.5,79.5C 44.7063,87.94 40.373,93.2733 32.5,95.5C 35.3302,107.186 41.3302,117.019 50.5,125C 68.6929,132.54 87.6929,137.206 107.5,139C 110.239,140.026 112.572,141.526 114.5,143.5C 113.522,143.811 112.855,144.478 112.5,145.5C 114.288,146.283 115.288,147.616 115.5,149.5C 102.152,142.948 87.9854,138.614 73,136.5C 60.0513,134.371 49.0513,128.705 40,119.5C 34.7278,112.024 30.3945,104.024 27,95.5C 26.3333,92.5 26.3333,89.5 27,86.5C 29.0545,81.3899 31.3879,76.3899 34,71.5C 38.7834,62.7665 43.95,54.2665 49.5,46C 47.0139,42.8444 44.5139,39.6777 42,36.5C 41.1376,34.913 40.4709,33.2464 40,31.5C 36.4007,20.6245 39.9007,13.4578 50.5,10C 69.0521,9.71095 87.5521,8.87761 106,7.5C 119.394,5.91201 131.894,8.41201 143.5,15C 147.5,18.3333 151.5,21.6667 155.5,25C 162.308,31.1214 166.641,38.6214 168.5,47.5 Z"/></g>
<g><path style="opacity:1" fill="#cac98f" d="M 140.5,18.5 C 136.359,17.5069 132.359,16.0069 128.5,14C 120.878,12.952 113.211,12.452 105.5,12.5C 87.1628,13.667 68.8295,14.8336 50.5,16C 47.9691,17.4888 45.8025,19.3222 44,21.5C 43.502,24.4816 43.3354,27.4816 43.5,30.5C 40.0574,21.0569 43.3907,15.2236 53.5,13C 76.4507,11.368 99.4507,10.7014 122.5,11C 128.954,12.6445 134.954,15.1445 140.5,18.5 Z"/></g>
<g><path style="opacity:1" fill="#faf88f" d="M 140.5,18.5 C 140.833,18.5 141.167,18.5 141.5,18.5C 144.636,23.3739 147.636,28.3739 150.5,33.5C 151.258,32.1886 152.258,31.6886 153.5,32C 155.457,33.7456 156.457,35.9122 156.5,38.5C 155.127,38.6567 153.793,38.49 152.5,38C 149.666,35.7338 146.666,33.9005 143.5,32.5C 141.604,31.5344 139.604,31.2011 137.5,31.5C 134.351,31.5848 131.684,30.5848 129.5,28.5C 129.38,27.4138 128.713,26.7472 127.5,26.5C 122.75,25.7101 118.084,24.7101 113.5,23.5C 100.653,21.7109 87.9859,23.0442 75.5,27.5C 72.1301,28.8698 69.7968,31.2031 68.5,34.5C 68.5,35.1667 68.1667,35.5 67.5,35.5C 62.7291,36.4702 58.2291,38.1369 54,40.5C 50.1494,37.7837 46.9828,34.4504 44.5,30.5C 44.1667,30.5 43.8333,30.5 43.5,30.5C 43.3354,27.4816 43.502,24.4816 44,21.5C 45.8025,19.3222 47.9691,17.4888 50.5,16C 68.8295,14.8336 87.1628,13.667 105.5,12.5C 113.211,12.452 120.878,12.952 128.5,14C 132.359,16.0069 136.359,17.5069 140.5,18.5 Z"/></g>
<g><path style="opacity:1" fill="#c0be85" d="M 97.5,24.5 C 102.64,23.5119 107.974,23.1786 113.5,23.5C 118.084,24.7101 122.75,25.7101 127.5,26.5C 128.713,26.7472 129.38,27.4138 129.5,28.5C 124.519,28.4479 119.852,27.2812 115.5,25C 109.509,24.5005 103.509,24.3338 97.5,24.5 Z"/></g>
<g><path style="opacity:1" fill="#5c5e3c" d="M 87.5,26.5 C 85.4855,27.9238 83.1522,28.5905 80.5,28.5C 82.5145,27.0762 84.8478,26.4095 87.5,26.5 Z"/></g>
<g><path style="opacity:1" fill="#e6e69d" d="M 113.5,23.5 C 107.974,23.1786 102.64,23.5119 97.5,24.5C 94.0968,24.8511 90.7635,25.5178 87.5,26.5C 84.8478,26.4095 82.5145,27.0762 80.5,28.5C 76.2717,30.0661 72.2717,32.0661 68.5,34.5C 69.7968,31.2031 72.1301,28.8698 75.5,27.5C 87.9859,23.0442 100.653,21.7109 113.5,23.5 Z"/></g>
<g><path style="opacity:1" fill="#f1c6b5" d="M 165.5,74.5 C 168.274,79.7154 171.774,84.3821 176,88.5C 180.547,97.0449 186.547,104.378 194,110.5C 195.765,113.032 197.265,115.699 198.5,118.5C 199.636,122.771 201.802,126.437 205,129.5C 210.254,143.387 205.754,152.554 191.5,157C 182.833,160 174.167,163 165.5,166C 160.833,166.667 156.167,166.667 151.5,166C 143.734,160.302 135.734,154.969 127.5,150C 123.205,147.684 118.871,145.517 114.5,143.5C 112.572,141.526 110.239,140.026 107.5,139C 87.6929,137.206 68.6929,132.54 50.5,125C 41.3302,117.019 35.3302,107.186 32.5,95.5C 40.373,93.2733 44.7063,87.94 45.5,79.5C 44.0272,74.9239 43.5272,70.2572 44,65.5C 45.814,61.0474 47.814,56.714 50,52.5C 51.9923,51.6719 53.4923,50.3386 54.5,48.5C 64.2769,43.4413 73.6102,37.6079 82.5,31C 108.308,25.6192 131.642,30.9526 152.5,47C 155.273,49.3834 157.439,52.2167 159,55.5C 160.488,62.1835 162.655,68.5169 165.5,74.5 Z"/></g>
<g><path style="opacity:1" fill="#e9e899" d="M 141.5,18.5 C 146.85,23.8495 152.517,28.8495 158.5,33.5C 160.797,37.1003 162.797,40.767 164.5,44.5C 165.843,48.5141 167.176,52.5141 168.5,56.5C 168.813,60.0419 168.479,63.3752 167.5,66.5C 164.574,60.2264 161.74,53.8931 159,47.5C 152.89,40.5505 145.723,35.2172 137.5,31.5C 139.604,31.2011 141.604,31.5344 143.5,32.5C 146.666,33.9005 149.666,35.7338 152.5,38C 153.793,38.49 155.127,38.6567 156.5,38.5C 156.457,35.9122 155.457,33.7456 153.5,32C 152.258,31.6886 151.258,32.1886 150.5,33.5C 147.636,28.3739 144.636,23.3739 141.5,18.5 Z"/></g>
<g><path style="opacity:1" fill="#e1df9f" d="M 44.5,30.5 C 46.9828,34.4504 50.1494,37.7837 54,40.5C 58.2291,38.1369 62.7291,36.4702 67.5,35.5C 62.5268,37.9888 57.8601,40.9888 53.5,44.5C 50.8644,41.6902 48.3644,38.6902 46,35.5C 44.9914,33.9751 44.4914,32.3084 44.5,30.5 Z"/></g>
<g><path style="opacity:1" fill="#18130f" d="M 97.5,24.5 C 103.509,24.3338 109.509,24.5005 115.5,25C 119.852,27.2812 124.519,28.4479 129.5,28.5C 131.684,30.5848 134.351,31.5848 137.5,31.5C 145.723,35.2172 152.89,40.5505 159,47.5C 161.74,53.8931 164.574,60.2264 167.5,66.5C 167.461,67.7562 167.961,68.7562 169,69.5C 169.814,64.9796 169.647,60.6463 168.5,56.5C 167.176,52.5141 165.843,48.5141 164.5,44.5C 166.48,45.8475 167.647,47.8475 168,50.5C 168.483,49.552 168.649,48.552 168.5,47.5C 169.338,47.8417 169.672,48.5084 169.5,49.5C 169.936,55.0303 170.603,60.5303 171.5,66C 171.038,68.6769 170.204,71.1769 169,73.5C 168.29,72.0267 167.124,71.3601 165.5,71.5C 165.5,72.5 165.5,73.5 165.5,74.5C 162.655,68.5169 160.488,62.1835 159,55.5C 157.439,52.2167 155.273,49.3834 152.5,47C 131.642,30.9526 108.308,25.6192 82.5,31C 73.6102,37.6079 64.2769,43.4413 54.5,48.5C 54.5674,47.0413 54.2341,45.7079 53.5,44.5C 57.8601,40.9888 62.5268,37.9888 67.5,35.5C 68.1667,35.5 68.5,35.1667 68.5,34.5C 72.2717,32.0661 76.2717,30.0661 80.5,28.5C 83.1522,28.5905 85.4855,27.9238 87.5,26.5C 90.7635,25.5178 94.0968,24.8511 97.5,24.5 Z"/></g>
<g><path style="opacity:1" fill="#5e5d4a" d="M 168.5,56.5 C 169.647,60.6463 169.814,64.9796 169,69.5C 167.961,68.7562 167.461,67.7562 167.5,66.5C 168.479,63.3752 168.813,60.0419 168.5,56.5 Z"/></g>
<g><path style="opacity:1" fill="#dadbda" d="M 35.5,75.5 C 37.3904,75.2965 38.8904,75.9632 40,77.5C 43.061,86.7496 39.8943,90.9163 30.5,90C 29.6198,88.6439 29.2865,87.1439 29.5,85.5C 31.8333,85.5 34.1667,85.5 36.5,85.5C 36.8897,82.5342 36.223,79.8676 34.5,77.5C 34.8627,76.8165 35.1961,76.1499 35.5,75.5 Z"/></g>
<g><path style="opacity:1" fill="#d9baae" d="M 144.5,81.5 C 145.5,81.5 146.5,81.5 147.5,81.5C 147.731,87.3338 147.731,93.0005 147.5,98.5C 146.127,98.3433 144.793,98.51 143.5,99C 141.257,100.053 138.924,101.387 136.5,103C 131.365,102.92 126.531,103.753 122,105.5C 120.333,103.372 118.166,102.039 115.5,101.5C 114.469,100.3 113.635,98.9663 113,97.5C 112.333,93.1667 112.333,88.8333 113,84.5C 114.001,81.7844 115.668,81.1178 118,82.5C 124.692,79.9943 131.192,77.3276 137.5,74.5C 139.921,74.2287 140.587,74.8953 139.5,76.5C 141.336,77.919 143.336,79.0857 145.5,80C 144.944,80.3826 144.611,80.8826 144.5,81.5 Z"/></g>
<g><path style="opacity:1" fill="#141010" d="M 144.5,81.5 C 148.002,91.1273 145.002,97.6273 135.5,101C 129.833,101.667 124.167,101.667 118.5,101C 115.46,96.3797 114.46,91.3797 115.5,86C 121.483,84.0013 127.483,82.0013 133.5,80C 137.362,79.2423 141.028,79.7423 144.5,81.5 Z"/></g>
<g><path style="opacity:1" fill="#8e8d8c" d="M 134.5,88.5 C 135.167,90.5 135.833,92.5 136.5,94.5C 136.44,95.0431 136.107,95.3764 135.5,95.5C 134.614,94.675 134.281,93.675 134.5,92.5C 133.325,92.719 132.325,92.3857 131.5,91.5C 132.34,90.265 133.34,89.265 134.5,88.5 Z"/></g>
<g><path style="opacity:1" fill="#e7e5e7" d="M 120.5,95.5 C 120.298,93.0504 120.631,90.717 121.5,88.5C 123.607,87.6996 125.774,87.0329 128,86.5C 128.833,86.8333 129.667,87.1667 130.5,87.5C 127.509,91.008 127.842,94.008 131.5,96.5C 131.291,97.086 130.957,97.586 130.5,98C 127.833,98.6667 125.167,98.6667 122.5,98C 121.619,97.2917 120.953,96.4584 120.5,95.5 Z"/></g>
<g><path style="opacity:1" fill="#939397" d="M 121.5,88.5 C 120.631,90.717 120.298,93.0504 120.5,95.5C 119.848,94.5514 119.514,93.3847 119.5,92C 119.608,90.3189 120.275,89.1522 121.5,88.5 Z"/></g>
<g><path style="opacity:1" fill="#e4e2e3" d="M 136.5,94.5 C 135.833,92.5 135.167,90.5 134.5,88.5C 132.896,87.713 132.229,86.3797 132.5,84.5C 135.518,84.2962 138.518,83.9629 141.5,83.5C 141.723,88.0524 140.056,91.7191 136.5,94.5 Z"/></g>
<g><path style="opacity:1" fill="#180d16" d="M 169.5,49.5 C 171.011,51.4758 171.844,53.8091 172,56.5C 172.352,65.9865 173.686,75.3199 176,84.5C 181.9,92.4058 188.566,99.7391 196,106.5C 200.95,116.079 207.116,124.745 214.5,132.5C 213.07,132.579 211.736,132.246 210.5,131.5C 207.804,125.81 203.804,121.477 198.5,118.5C 197.265,115.699 195.765,113.032 194,110.5C 186.547,104.378 180.547,97.0449 176,88.5C 171.774,84.3821 168.274,79.7154 165.5,74.5C 165.5,73.5 165.5,72.5 165.5,71.5C 167.124,71.3601 168.29,72.0267 169,73.5C 170.204,71.1769 171.038,68.6769 171.5,66C 170.603,60.5303 169.936,55.0303 169.5,49.5 Z"/></g>
<g><path style="opacity:1" fill="#150c0a" d="M 68.5,110.5 C 69.675,110.281 70.675,110.614 71.5,111.5C 70.3947,112.892 69.0614,114.059 67.5,115C 62.5111,115.499 57.5111,115.666 52.5,115.5C 52.5,114.5 52.5,113.5 52.5,112.5C 57.1785,112.666 61.8452,112.499 66.5,112C 67.4158,111.722 68.0825,111.222 68.5,110.5 Z"/></g>
<g><path style="opacity:1" fill="#11101c" d="M 230.5,163.5 C 228.956,163.297 227.622,162.63 226.5,161.5C 220.248,165.392 217.082,163.726 217,156.5C 216.517,157.448 216.351,158.448 216.5,159.5C 214.876,159.64 213.71,158.973 213,157.5C 212.551,160.132 211.717,162.632 210.5,165C 211.592,170.126 211.759,175.293 211,180.5C 208.551,181.725 208.051,183.392 209.5,185.5C 208.246,187.334 207.579,189.334 207.5,191.5C 206.127,191.343 204.793,191.51 203.5,192C 204.634,193.016 204.301,193.683 202.5,194C 203.357,194.689 204.023,195.522 204.5,196.5C 202.445,197.187 200.779,198.354 199.5,200C 200.554,202.382 201.221,204.882 201.5,207.5C 200.167,207.5 198.833,207.5 197.5,207.5C 197.476,212.143 197.476,216.809 197.5,221.5C 196.188,224.243 194.021,225.91 191,226.5C 190.506,228.134 190.34,229.801 190.5,231.5C 184.5,231.5 178.5,231.5 172.5,231.5C 172.808,229.076 172.474,226.743 171.5,224.5C 170.201,223.91 169.368,222.91 169,221.5C 168.503,219.19 168.337,216.857 168.5,214.5C 167.5,214.5 166.5,214.5 165.5,214.5C 163.213,209.476 162.046,204.143 162,198.5C 158.938,195.287 154.772,193.954 149.5,194.5C 149.5,193.167 149.5,191.833 149.5,190.5C 147.5,190.5 145.5,190.5 143.5,190.5C 144.833,184.5 142.5,182.167 136.5,183.5C 138.164,177.11 135.831,174.11 129.5,174.5C 129.5,177.5 129.5,180.5 129.5,183.5C 127.396,183.799 125.396,183.466 123.5,182.5C 122.359,181.575 122.359,180.741 123.5,180C 115.457,177.948 112.791,180.781 115.5,188.5C 113.61,188.297 112.11,188.963 111,190.5C 108.74,186.514 106.906,186.848 105.5,191.5C 107.397,194.756 110.063,196.756 113.5,197.5C 113.192,199.924 113.526,202.257 114.5,204.5C 117.577,205.774 120.077,207.774 122,210.5C 122.499,215.155 122.666,219.821 122.5,224.5C 124.833,224.5 127.167,224.5 129.5,224.5C 129.337,226.857 129.503,229.19 130,231.5C 132.154,232.23 134.321,232.897 136.5,233.5C 136.217,234.289 135.717,234.956 135,235.5C 133.867,233.789 132.367,233.289 130.5,234C 126.404,240.02 125.737,246.187 128.5,252.5C 132.391,233.999 133.724,233.999 132.5,252.5C 133.5,252.5 134.5,252.5 135.5,252.5C 135.201,250.396 135.534,248.396 136.5,246.5C 137.604,248.389 138.937,250.055 140.5,251.5C 141.452,249.955 141.785,248.288 141.5,246.5C 143.599,247.37 143.932,248.703 142.5,250.5C 176.827,251.5 211.16,251.833 245.5,251.5C 245.5,252.5 245.5,253.5 245.5,254.5C 203.833,254.5 162.167,254.5 120.5,254.5C 121.108,247.33 121.775,240.163 122.5,233C 121.088,228.998 119.755,224.998 118.5,221C 118.957,220.586 119.291,220.086 119.5,219.5C 116.633,216.423 114.8,212.756 114,208.5C 111.799,206.067 109.133,204.401 106,203.5C 105.626,202.584 105.126,201.75 104.5,201C 106.17,197.549 105.17,195.049 101.5,193.5C 102.423,189.074 104.756,185.574 108.5,183C 108.167,182.667 107.833,182.333 107.5,182C 109.032,181.3 110.032,180.134 110.5,178.5C 109.5,177.167 108.5,177.167 107.5,178.5C 105.43,181.904 102.763,184.57 99.5,186.5C 103.715,180.711 108.382,175.378 113.5,170.5C 114.94,169.637 116.274,169.637 117.5,170.5C 119.349,169.407 121.016,168.074 122.5,166.5C 123.086,166.709 123.586,167.043 124,167.5C 126.527,166.274 128.694,164.608 130.5,162.5C 131.736,163.246 133.07,163.579 134.5,163.5C 134.5,162.5 134.5,161.5 134.5,160.5C 139.824,161.094 142.991,164.094 144,169.5C 144.853,171.125 145.853,171.458 147,170.5C 148.748,172.135 149.915,174.135 150.5,176.5C 153.158,177.651 154.825,179.651 155.5,182.5C 154.262,185.166 154.262,187.832 155.5,190.5C 157.988,189.588 159.655,190.588 160.5,193.5C 161.689,194.429 163.022,194.762 164.5,194.5C 163.833,196.819 163.666,199.153 164,201.5C 165.509,202.09 167.009,202.756 168.5,203.5C 170.362,210.511 173.695,216.678 178.5,222C 180.459,222.931 182.459,223.764 184.5,224.5C 186.621,223.65 188.788,222.65 191,221.5C 191.003,217.564 191.836,213.897 193.5,210.5C 192.164,208.625 192.664,207.292 195,206.5C 195.926,199.712 198.759,193.879 203.5,189C 202.409,186.936 202.242,184.769 203,182.5C 205.374,180.622 207.208,178.288 208.5,175.5C 209.491,171.034 209.491,166.368 208.5,161.5C 209.059,157.349 210.559,153.683 213,150.5C 213.498,147.183 213.665,143.85 213.5,140.5C 214.93,140.421 216.264,140.754 217.5,141.5C 218.308,143.423 218.808,145.423 219,147.5C 219.333,147.167 219.667,146.833 220,146.5C 222.636,151.203 225.803,155.537 229.5,159.5C 230.429,160.689 230.762,162.022 230.5,163.5 Z"/></g>
<g><path style="opacity:1" fill="#111020" d="M 230.5,163.5 C 233.797,163.671 234.131,163.005 231.5,161.5C 232.365,160.417 233.365,160.251 234.5,161C 236.95,163.744 239.95,165.744 243.5,167C 242.346,167.914 242.513,168.747 244,169.5C 245.164,169.835 246.497,169.835 248,169.5C 248.202,171.256 248.702,172.922 249.5,174.5C 250.251,173.624 250.751,172.624 251,171.5C 251.667,172.833 252.333,172.833 253,171.5C 253.5,199.165 253.667,226.831 253.5,254.5C 250.833,254.5 248.167,254.5 245.5,254.5C 245.5,253.5 245.5,252.5 245.5,251.5C 211.16,251.833 176.827,251.5 142.5,250.5C 143.932,248.703 143.599,247.37 141.5,246.5C 137.678,242.913 137.012,238.913 139.5,234.5C 138.743,232.596 137.743,232.263 136.5,233.5C 134.321,232.897 132.154,232.23 130,231.5C 129.503,229.19 129.337,226.857 129.5,224.5C 127.167,224.5 124.833,224.5 122.5,224.5C 122.666,219.821 122.499,215.155 122,210.5C 120.077,207.774 117.577,205.774 114.5,204.5C 113.526,202.257 113.192,199.924 113.5,197.5C 110.063,196.756 107.397,194.756 105.5,191.5C 106.906,186.848 108.74,186.514 111,190.5C 112.11,188.963 113.61,188.297 115.5,188.5C 112.791,180.781 115.457,177.948 123.5,180C 122.359,180.741 122.359,181.575 123.5,182.5C 125.396,183.466 127.396,183.799 129.5,183.5C 129.5,180.5 129.5,177.5 129.5,174.5C 135.831,174.11 138.164,177.11 136.5,183.5C 142.5,182.167 144.833,184.5 143.5,190.5C 145.5,190.5 147.5,190.5 149.5,190.5C 149.5,191.833 149.5,193.167 149.5,194.5C 154.772,193.954 158.938,195.287 162,198.5C 162.046,204.143 163.213,209.476 165.5,214.5C 166.5,214.5 167.5,214.5 168.5,214.5C 168.337,216.857 168.503,219.19 169,221.5C 169.368,222.91 170.201,223.91 171.5,224.5C 172.474,226.743 172.808,229.076 172.5,231.5C 178.5,231.5 184.5,231.5 190.5,231.5C 190.34,229.801 190.506,228.134 191,226.5C 194.021,225.91 196.188,224.243 197.5,221.5C 197.476,216.809 197.476,212.143 197.5,207.5C 198.833,207.5 200.167,207.5 201.5,207.5C 201.221,204.882 200.554,202.382 199.5,200C 200.779,198.354 202.445,197.187 204.5,196.5C 204.023,195.522 203.357,194.689 202.5,194C 204.301,193.683 204.634,193.016 203.5,192C 204.793,191.51 206.127,191.343 207.5,191.5C 207.579,189.334 208.246,187.334 209.5,185.5C 208.051,183.392 208.551,181.725 211,180.5C 211.759,175.293 211.592,170.126 210.5,165C 211.717,162.632 212.551,160.132 213,157.5C 213.71,158.973 214.876,159.64 216.5,159.5C 216.351,158.448 216.517,157.448 217,156.5C 217.082,163.726 220.248,165.392 226.5,161.5C 227.622,162.63 228.956,163.297 230.5,163.5 Z"/></g>
<g><path style="opacity:1" fill="#0a080e" d="M 198.5,118.5 C 203.804,121.477 207.804,125.81 210.5,131.5C 211.736,132.246 213.07,132.579 214.5,132.5C 216.735,133.228 218.568,134.561 220,136.5C 226.824,152.165 238.658,161.498 255.5,164.5C 255.5,194.833 255.5,225.167 255.5,255.5C 192.5,255.5 129.5,255.5 66.5,255.5C 70.3367,244.811 74.17,234.144 78,223.5C 79.9417,219.931 82.1084,216.598 84.5,213.5C 85.4959,213.586 86.3292,213.252 87,212.5C 87.5,213.5 88,214.5 88.5,215.5C 85.6033,220.071 83.77,225.071 83,230.5C 78.4715,234.415 76.1382,239.415 76,245.5C 75.6667,245.167 75.3333,244.833 75,244.5C 73.6557,247.498 73.489,250.498 74.5,253.5C 87.1535,254.666 99.8202,254.833 112.5,254C 110.099,253.195 110.266,252.362 113,251.5C 114.357,246.255 114.19,240.922 112.5,235.5C 112.931,234.707 113.265,233.873 113.5,233C 111.139,227.381 109.473,221.548 108.5,215.5C 106.877,216.476 105.543,215.976 104.5,214C 104.833,213.667 105.167,213.333 105.5,213C 103.965,212.504 102.465,212.67 101,213.5C 100.055,213.095 99.3879,212.428 99,211.5C 98.6924,212.308 98.1924,212.975 97.5,213.5C 96.5,212.5 95.5,211.5 94.5,210.5C 95.4847,208.902 95.6514,207.235 95,205.5C 93.7294,210.212 91.896,210.545 89.5,206.5C 92.3076,199.551 95.641,192.885 99.5,186.5C 102.763,184.57 105.43,181.904 107.5,178.5C 108.5,177.167 109.5,177.167 110.5,178.5C 110.032,180.134 109.032,181.3 107.5,182C 107.833,182.333 108.167,182.667 108.5,183C 104.756,185.574 102.423,189.074 101.5,193.5C 105.17,195.049 106.17,197.549 104.5,201C 105.126,201.75 105.626,202.584 106,203.5C 109.133,204.401 111.799,206.067 114,208.5C 114.8,212.756 116.633,216.423 119.5,219.5C 119.291,220.086 118.957,220.586 118.5,221C 119.755,224.998 121.088,228.998 122.5,233C 121.775,240.163 121.108,247.33 120.5,254.5C 162.167,254.5 203.833,254.5 245.5,254.5C 248.167,254.5 250.833,254.5 253.5,254.5C 253.667,226.831 253.5,199.165 253,171.5C 252.333,172.833 251.667,172.833 251,171.5C 250.751,172.624 250.251,173.624 249.5,174.5C 248.702,172.922 248.202,171.256 248,169.5C 246.497,169.835 245.164,169.835 244,169.5C 242.513,168.747 242.346,167.914 243.5,167C 239.95,165.744 236.95,163.744 234.5,161C 233.365,160.251 232.365,160.417 231.5,161.5C 234.131,163.005 233.797,163.671 230.5,163.5C 230.762,162.022 230.429,160.689 229.5,159.5C 225.803,155.537 222.636,151.203 220,146.5C 219.667,146.833 219.333,147.167 219,147.5C 218.808,145.423 218.308,143.423 217.5,141.5C 216.264,140.754 214.93,140.421 213.5,140.5C 213.665,143.85 213.498,147.183 213,150.5C 210.559,153.683 209.059,157.349 208.5,161.5C 209.491,166.368 209.491,171.034 208.5,175.5C 207.208,178.288 205.374,180.622 203,182.5C 202.242,184.769 202.409,186.936 203.5,189C 198.759,193.879 195.926,199.712 195,206.5C 192.664,207.292 192.164,208.625 193.5,210.5C 191.836,213.897 191.003,217.564 191,221.5C 188.788,222.65 186.621,223.65 184.5,224.5C 182.459,223.764 180.459,222.931 178.5,222C 173.695,216.678 170.362,210.511 168.5,203.5C 167.009,202.756 165.509,202.09 164,201.5C 163.666,199.153 163.833,196.819 164.5,194.5C 163.022,194.762 161.689,194.429 160.5,193.5C 159.655,190.588 157.988,189.588 155.5,190.5C 154.262,187.832 154.262,185.166 155.5,182.5C 154.825,179.651 153.158,177.651 150.5,176.5C 149.915,174.135 148.748,172.135 147,170.5C 145.853,171.458 144.853,171.125 144,169.5C 142.991,164.094 139.824,161.094 134.5,160.5C 134.5,161.5 134.5,162.5 134.5,163.5C 133.07,163.579 131.736,163.246 130.5,162.5C 128.694,164.608 126.527,166.274 124,167.5C 123.586,167.043 123.086,166.709 122.5,166.5C 121.016,168.074 119.349,169.407 117.5,170.5C 116.274,169.637 114.94,169.637 113.5,170.5C 117.319,166.181 121.319,162.014 125.5,158C 124.899,156.395 123.899,155.062 122.5,154C 119.453,153.484 117.12,151.984 115.5,149.5C 115.288,147.616 114.288,146.283 112.5,145.5C 112.855,144.478 113.522,143.811 114.5,143.5C 118.871,145.517 123.205,147.684 127.5,150C 135.734,154.969 143.734,160.302 151.5,166C 156.167,166.667 160.833,166.667 165.5,166C 174.167,163 182.833,160 191.5,157C 205.754,152.554 210.254,143.387 205,129.5C 201.802,126.437 199.636,122.771 198.5,118.5 Z"/></g>
<g><path style="opacity:1" fill="#6b70c9" d="M 188.5,204.5 C 188.5,205.833 188.5,207.167 188.5,208.5C 187.209,210.949 186.209,213.616 185.5,216.5C 184.167,217.833 182.833,217.833 181.5,216.5C 180.544,214.925 179.877,213.258 179.5,211.5C 177.313,207.422 175.979,202.922 175.5,198C 175.667,196.5 175.833,195 176,193.5C 178.215,190.404 179.881,187.071 181,183.5C 182.45,187.561 184.45,191.228 187,194.5C 188.199,197.726 188.699,201.059 188.5,204.5 Z"/></g>
<g><path style="opacity:1" fill="#282b53" d="M 189.5,193.5 C 190.647,197.646 190.814,201.98 190,206.5C 189.722,207.416 189.222,208.082 188.5,208.5C 188.5,207.167 188.5,205.833 188.5,204.5C 189.482,201.038 189.815,197.371 189.5,193.5 Z"/></g>
<g><path style="opacity:1" fill="#6e6f79" d="M 172.5,192.5 C 172.5,192.833 172.5,193.167 172.5,193.5C 172.66,195.199 172.494,196.866 172,198.5C 170.961,197.756 170.461,196.756 170.5,195.5C 171.167,194.5 171.833,193.5 172.5,192.5 Z"/></g>
<g><path style="opacity:1" fill="#1f2039" d="M 172.5,167.5 C 171.544,168.659 170.544,169.826 169.5,171C 172.32,174.489 175.153,177.989 178,181.5C 178.167,182.5 178.333,183.5 178.5,184.5C 175.073,188.459 173.74,193.126 174.5,198.5C 173.833,196.833 173.167,195.167 172.5,193.5C 172.5,193.167 172.5,192.833 172.5,192.5C 172.504,190.158 173.337,188.158 175,186.5C 175.667,184.833 175.667,183.167 175,181.5C 172.242,177.924 169.409,174.591 166.5,171.5C 167.144,168.196 169.144,166.862 172.5,167.5 Z"/></g>
<g><path style="opacity:1" fill="#e0e0e0" d="M 201.5,170.5 C 201.5,168.167 201.5,165.833 201.5,163.5C 194.915,161.527 192.915,163.36 195.5,169C 194.833,170.333 194.167,171.667 193.5,173C 193.86,174.652 194.193,176.318 194.5,178C 188.484,178.14 186.484,181.307 188.5,187.5C 190.226,187.815 191.893,187.981 193.5,188C 195.328,185.481 196.995,182.981 198.5,180.5C 196.706,185.439 194.873,190.439 193,195.5C 191.961,194.756 191.461,193.756 191.5,192.5C 191.238,190.436 190.071,189.103 188,188.5C 187.296,186.722 186.796,184.888 186.5,183C 188.339,177.48 190.672,172.147 193.5,167C 192.852,165.56 192.519,164.06 192.5,162.5C 196.611,161.405 200.278,159.405 203.5,156.5C 203.833,157.333 204.167,158.167 204.5,159C 204.184,163.157 203.184,166.99 201.5,170.5 Z"/></g>
<g><path style="opacity:1" fill="#1f203b" d="M 192.5,162.5 C 192.519,164.06 192.852,165.56 193.5,167C 190.672,172.147 188.339,177.48 186.5,183C 186.796,184.888 187.296,186.722 188,188.5C 190.071,189.103 191.238,190.436 191.5,192.5C 190.075,190.969 189.409,191.302 189.5,193.5C 187.159,190.465 185.159,187.132 183.5,183.5C 185.118,178.973 187.118,174.64 189.5,170.5C 191.711,168.505 192.044,166.172 190.5,163.5C 191.167,163.167 191.833,162.833 192.5,162.5 Z"/></g>
<g><path style="opacity:1" fill="#f8f8f7" d="M 201.5,170.5 C 201.417,174.176 200.417,177.509 198.5,180.5C 196.995,182.981 195.328,185.481 193.5,188C 191.893,187.981 190.226,187.815 188.5,187.5C 186.484,181.307 188.484,178.14 194.5,178C 194.193,176.318 193.86,174.652 193.5,173C 194.167,171.667 194.833,170.333 195.5,169C 192.915,163.36 194.915,161.527 201.5,163.5C 201.5,165.833 201.5,168.167 201.5,170.5 Z"/></g>
<g><path style="opacity:1" fill="#676bb6" d="M 190.5,163.5 C 192.044,166.172 191.711,168.505 189.5,170.5C 187.118,174.64 185.118,178.973 183.5,183.5C 185.159,187.132 187.159,190.465 189.5,193.5C 189.815,197.371 189.482,201.038 188.5,204.5C 188.699,201.059 188.199,197.726 187,194.5C 184.45,191.228 182.45,187.561 181,183.5C 179.881,187.071 178.215,190.404 176,193.5C 175.833,195 175.667,196.5 175.5,198C 175.979,202.922 177.313,207.422 179.5,211.5C 176.095,207.97 174.429,203.637 174.5,198.5C 173.74,193.126 175.073,188.459 178.5,184.5C 178.333,183.5 178.167,182.5 178,181.5C 175.153,177.989 172.32,174.489 169.5,171C 170.544,169.826 171.544,168.659 172.5,167.5C 178.564,166.948 184.564,165.614 190.5,163.5 Z"/></g>
<g><path style="opacity:1" fill="#f0efef" d="M 166.5,171.5 C 169.409,174.591 172.242,177.924 175,181.5C 175.667,183.167 175.667,184.833 175,186.5C 173.337,188.158 172.504,190.158 172.5,192.5C 171.833,193.5 171.167,194.5 170.5,195.5C 165.129,188.455 160.129,181.121 155.5,173.5C 159.133,172.588 162.8,171.921 166.5,171.5 Z"/></g>
<g><path style="opacity:1" fill="#6d73d6" d="M 189.5,170.5 C 187.61,170.297 186.11,170.963 185,172.5C 184.122,175.709 182.789,178.709 181,181.5C 177.375,179.584 175.875,176.584 176.5,172.5C 175.5,172.5 174.5,172.5 173.5,172.5C 173.5,171.5 173.5,170.5 173.5,169.5C 175.833,169.5 178.167,169.5 180.5,169.5C 180.351,170.552 180.517,171.552 181,172.5C 182.115,171 182.948,169.333 183.5,167.5C 185.396,166.534 187.396,166.201 189.5,166.5C 189.5,167.833 189.5,169.167 189.5,170.5 Z"/></g>
<g><path style="opacity:1" fill="#100f1b" d="M 84.5,213.5 C 86.4244,211.305 88.0911,208.972 89.5,206.5C 91.896,210.545 93.7294,210.212 95,205.5C 95.6514,207.235 95.4847,208.902 94.5,210.5C 95.5,211.5 96.5,212.5 97.5,213.5C 98.1924,212.975 98.6924,212.308 99,211.5C 99.3879,212.428 100.055,213.095 101,213.5C 102.465,212.67 103.965,212.504 105.5,213C 105.167,213.333 104.833,213.667 104.5,214C 105.543,215.976 106.877,216.476 108.5,215.5C 109.473,221.548 111.139,227.381 113.5,233C 113.265,233.873 112.931,234.707 112.5,235.5C 114.19,240.922 114.357,246.255 113,251.5C 110.266,252.362 110.099,253.195 112.5,254C 99.8202,254.833 87.1535,254.666 74.5,253.5C 73.489,250.498 73.6557,247.498 75,244.5C 75.3333,244.833 75.6667,245.167 76,245.5C 76.1382,239.415 78.4715,234.415 83,230.5C 83.77,225.071 85.6033,220.071 88.5,215.5C 88,214.5 87.5,213.5 87,212.5C 86.3292,213.252 85.4959,213.586 84.5,213.5 Z"/></g>
<g><path style="opacity:1" fill="#f0f0f1" d="M 141.5,246.5 C 141.785,248.288 141.452,249.955 140.5,251.5C 138.937,250.055 137.604,248.389 136.5,246.5C 135.534,248.396 135.201,250.396 135.5,252.5C 134.5,252.5 133.5,252.5 132.5,252.5C 133.724,233.999 132.391,233.999 128.5,252.5C 125.737,246.187 126.404,240.02 130.5,234C 132.367,233.289 133.867,233.789 135,235.5C 135.717,234.956 136.217,234.289 136.5,233.5C 137.743,232.263 138.743,232.596 139.5,234.5C 137.012,238.913 137.678,242.913 141.5,246.5 Z"/></g>
</svg>
