<?xml version="1.0" encoding="utf-8"?>
<svg viewBox="0 0 1200 1200" xmlns="http://www.w3.org/2000/svg" xmlns:bx="https://boxy-svg.com">
  <rect width="1200" height="1200" style="stroke: rgb(0, 0, 0); fill: rgb(10, 2, 54);" bx:origin="0.089087 0.070712"/>
  <path d="M 750.304 956.226 L 926.717 854.378 C 946.846 842.766 962.027 816.479 962.027 793.224 L 962.027 589.957 C 962.027 575.704 956.121 564.123 945.821 558.174 C 935.521 552.225 922.544 552.899 910.203 560.014 L 859.959 588.979 L 859.959 513.319 C 859.959 490.074 844.779 463.787 824.649 452.165 L 769.688 420.427 L 811.234 396.464 C 846.554 376.094 846.554 376.094 846.554 366.344 C 846.554 356.594 846.554 356.583 811.245 336.203 L 634.823 234.353 C 614.693 222.72 584.344 222.72 564.219 234.353 L 387.797 336.203 C 352.488 356.594 352.488 356.594 352.488 366.29 C 352.488 375.984 352.488 375.984 387.776 396.377 L 429.354 420.425 L 374.393 452.163 C 354.263 463.785 339.083 490.061 339.083 513.317 L 339.083 588.078 L 289.806 559.599 C 277.466 552.47 264.477 551.788 254.188 557.727 C 243.878 563.677 237.972 575.257 237.972 589.512 L 237.972 792.878 C 237.972 816.123 253.152 842.42 273.281 854.032 L 449.318 955.669 C 461.657 962.788 474.658 963.469 484.946 957.52 C 495.256 951.582 501.163 939.991 501.173 925.747 L 501.217 866.852 L 564.222 903.23 C 584.351 914.853 614.7 914.853 634.825 903.23 L 698.16 866.666 L 698.117 929.352 L 698.117 929.772 C 698.117 966.425 698.138 966.457 705.981 971.403 L 707.103 972.052 C 715.345 976.399 715.345 976.399 750.31 956.227 Z M 404.319 367.764 C 403.458 367.27 402.612 366.785 401.772 366.287 C 402.608 365.803 403.458 365.318 404.319 364.809 L 580.74 262.961 C 590.577 257.277 608.468 257.277 618.295 262.961 L 794.716 364.809 C 795.599 365.326 796.467 365.835 797.327 366.33 C 796.467 366.825 795.599 367.334 794.716 367.839 L 736.625 401.341 L 634.831 342.558 C 614.702 330.934 584.353 330.934 564.227 342.558 L 462.424 401.341 Z M 390.913 480.785 L 462.378 439.517 L 564.006 498.268 C 584.135 509.902 614.485 509.913 634.61 498.3 L 736.606 439.494 L 808.114 480.785 C 808.906 481.248 809.698 481.876 810.48 482.45 L 599.329 604.183 L 388.635 482.404 C 389.396 481.844 390.142 481.228 390.916 480.786 Z M 468.116 925.729 C 468.116 926.686 468.036 927.457 467.94 928.074 C 467.366 927.856 466.664 927.521 465.834 927.048 L 289.799 825.41 C 279.961 819.726 271.014 804.228 271.014 792.877 L 271.014 589.51 C 271.014 588.574 271.079 587.803 271.179 587.197 C 271.753 587.43 272.445 587.749 273.252 588.223 L 339.076 626.275 L 339.076 732.493 C 339.076 755.739 354.255 782.036 374.384 793.648 L 468.173 847.795 Z M 580.742 874.623 L 501.235 828.716 L 501.313 722.626 C 501.313 699.392 486.155 673.106 466.05 661.472 L 372.143 607.181 L 372.143 513.32 C 372.143 512.624 372.276 511.878 372.341 511.161 L 582.804 632.803 L 582.639 875.48 C 582.012 875.193 581.33 874.949 580.745 874.62 Z M 618.311 874.623 C 617.507 875.085 616.582 875.448 615.689 875.834 L 615.844 632.826 L 826.72 511.231 C 826.784 511.912 826.917 512.64 826.917 513.303 L 826.917 608.027 L 733.597 661.834 C 713.468 673.445 698.277 699.721 698.256 722.967 L 698.191 828.487 Z M 731.222 847.586 L 824.634 793.647 C 844.774 782.036 859.954 755.75 859.954 732.493 L 859.954 627.157 L 926.703 588.662 C 927.528 588.188 928.234 587.859 928.808 587.636 C 928.908 588.242 928.973 589.013 928.973 589.971 L 928.973 793.237 C 928.973 804.583 920.029 820.097 910.188 825.771 L 733.776 927.619 C 732.894 928.125 732.026 928.634 731.165 929.129 Z" style="fill: rgb(35, 129, 231);"/>
</svg>