<svg width="256" height="256" viewBox="0 0 256 256" fill="none" xmlns="http://www.w3.org/2000/svg">
<g clip-path="url(#clip0_5887:48031)">
<path d="M128.015 255.974C57.4201 255.974 0.191406 198.672 0.191406 127.987C0.191406 57.3018 57.4201 0 128.015 0C198.61 0 255.839 57.3018 255.839 127.987C255.839 198.672 198.61 255.974 128.015 255.974ZM126.053 245.458C136.062 245.47 142.528 244.906 150.103 243.385C170.325 239.352 186.951 231.029 203.326 216.715C205.639 214.71 213.471 206.877 215.372 204.686C224.807 193.822 230.831 183.914 236.373 170.067C237.953 166.15 239.853 159.576 240.976 154.26C242.602 146.637 243.357 139.76 243.563 130.901C243.678 125.866 243.655 124.793 243.38 124.56C243.06 124.304 237.243 123.581 224.281 122.159C220.754 121.763 216.471 121.296 214.754 121.11C210.654 120.644 210.105 120.667 203.784 121.343C196.936 122.066 194.417 122.415 194.28 122.625C194.211 122.742 195.402 125.329 196.936 128.43C198.448 131.507 199.662 134.211 199.616 134.444C199.524 134.911 195.471 136.636 189.127 138.898C183.241 141.019 183.951 141.112 182.509 137.965C181.822 136.52 180.196 132.859 178.89 129.852C177.562 126.845 176.302 123.954 176.073 123.441C175.844 122.928 175.386 121.902 175.066 121.156C174.424 119.641 174.241 119.594 172.707 120.62C171.791 121.226 171.791 121.157 173.783 125.609C177.31 133.466 179.486 141.322 180.081 148.269L180.241 150.018L179.234 151.207C178.707 151.859 177.883 152.862 177.425 153.421C173.966 157.734 165.653 167.992 165.539 168.085C165.47 168.155 165.08 168.644 164.668 169.157C163.958 170.09 163.936 170.23 163.936 172.188C163.936 177.83 163.088 189.113 162.218 195.011C161.485 199.93 161.371 200.583 160.226 205.595L159.241 209.885L154.661 213.871C149.141 218.697 144.859 222.334 143.828 223.08C143.072 223.616 143.027 223.616 142.339 223.266C138.652 221.354 131.187 216.132 131.187 215.456C131.187 214.804 130.202 204.453 129.927 202.122C128.691 191.981 126.171 178.389 123.675 168.411C123.034 165.917 122.942 165.684 120.973 162.863C119.851 161.254 118.591 159.436 118.179 158.83C117.514 157.851 115.614 155.193 113.851 152.745C112.889 151.416 113.164 151.51 99.7665 148.269C95.4381 147.22 91.6818 146.195 91.3841 146.008C91.0864 145.822 90.4912 144.865 90.0561 143.886C88.3156 140.063 85.3386 132.743 85.3386 132.3C85.3386 131.787 87.056 122.672 88.2698 116.797C88.7965 114.279 89.1856 112.857 89.4375 112.671C89.6436 112.508 90.6286 112.111 91.6592 111.761C95.8959 110.339 103.705 107.379 111.034 104.395C116.896 102.017 116.37 102.063 119.393 103.509C122.622 105.024 124.958 105.677 130.156 106.539C138.263 107.845 140.668 108.358 146.645 110.036C158.92 113.487 164.6 114.768 168.974 115.095L170.943 115.235L171.814 113.323C172.684 111.365 175.409 104.534 175.73 103.532C175.982 102.716 175.569 102.576 172.615 102.576H169.959L169.798 101.807C169.707 101.41 168.974 97.4473 168.172 93.0179C167.348 88.5885 166.569 84.5087 166.386 83.9259C166.088 82.8769 166.088 82.8771 164.852 82.7139C162.745 82.4575 155.6 82.0609 153.012 82.0609H150.607L150.767 83.6226C151.019 86.1637 151.546 88.1222 152.21 89.0314C152.554 89.4977 153.859 91.2228 155.119 92.9013C158.142 96.8645 159.012 98.1234 158.828 98.2866C158.76 98.3565 157.706 97.9369 156.47 97.3541C153.401 95.8621 153.355 95.8854 153.974 98.0068C154.684 100.385 154.775 100.292 150.951 101.248C146.393 102.39 144.515 102.809 144.057 102.809C143.622 102.809 144.63 101.807 146.256 100.665C146.92 100.198 147.218 99.8252 147.218 99.4289C147.218 98.7295 145.065 92.505 144.401 91.2928C144.034 90.6167 143.027 89.731 140.599 87.9593C138.767 86.6304 137.164 85.5578 137.05 85.5578C136.912 85.5578 136.294 86.0709 135.653 86.6771C135.034 87.2832 133.775 88.4488 132.859 89.2415L131.232 90.7099L129.378 90.3603C125.141 89.5443 122.874 89.2643 122.668 89.5674C122.576 89.7306 121.751 91.1762 120.858 92.7848C118.728 96.5614 117.446 98.613 117.171 98.613C116.851 98.613 112.201 96.3983 110.278 95.3259C108.033 94.067 107.896 93.904 108.308 93.0881C108.583 92.5519 112.202 87.7958 112.614 87.4228C112.705 87.3529 113.301 86.6538 113.965 85.8611C114.927 84.7188 115.408 84.3456 116.141 84.1357C116.668 83.9959 118.751 83.4364 120.767 82.8535C122.782 82.294 124.82 81.7112 125.301 81.5947C126.195 81.3382 126.103 81.4312 129.95 75.9294C131.187 74.1577 131.416 74.0413 139.088 70.5211C140.989 69.6585 143.53 68.4929 144.744 67.9334C145.981 67.3739 147.034 66.9076 147.126 66.9076C147.195 66.9076 147.745 66.3717 148.317 65.6956C148.913 65.0428 149.828 64.0168 150.355 63.434C151.294 62.3849 151.34 62.2451 152.462 57.5825C154.5 49.0967 154.821 47.3249 154.386 47.3249C154.18 47.3249 146.897 51.0316 146.142 51.5445C145.844 51.7077 145.615 51.9175 145.615 51.9875C145.615 52.0574 146.393 52.5472 147.309 53.1067C148.248 53.6429 149.119 54.2255 149.256 54.412C149.439 54.6218 148.981 55.2279 147.263 56.9064C144.584 59.5874 143.118 60.8463 142.729 60.8463C142.34 60.8463 142.042 60.2868 141.103 57.6058C139.958 54.3187 139.981 54.3187 138.149 57.0929C137.279 58.3985 136.454 59.4475 136.294 59.4475C135.859 59.4475 130.156 54.7384 127.019 51.7776C126.401 51.2181 125.919 50.5887 125.919 50.3789C125.919 50.0059 128.278 47.8375 141.011 36.6474L148.248 30.3066L155.577 30.2833C159.607 30.26 163.89 30.19 165.081 30.0968L167.256 29.9569L167.554 29.0477C167.966 27.7888 169.226 20.0723 169.157 19.3729C169.066 18.7435 168.447 18.4637 163.478 16.9251C154.042 13.9877 145.042 12.3791 135.24 11.8895C130.041 11.6331 127.82 11.6331 122.713 11.9128C114.194 12.3791 104.598 13.9643 98.3234 15.9692C95.0715 16.995 92.9416 17.8343 92.9416 18.0674C92.9416 18.1373 93.3539 18.7201 93.8348 19.3496C95.0256 20.8882 95.5068 22.2171 95.4152 23.779C95.3465 25.0379 95.3234 25.061 94.3386 25.5739C93.789 25.8536 92.3462 26.3201 91.1324 26.5999C88.0408 27.2992 86.2313 27.9051 84.1702 28.9542C80.277 30.9358 77.1168 33.1974 74.4145 35.925C70.8648 39.5384 69.7884 41.217 65.3685 50.0059C61.6814 57.2794 60.2157 59.4242 58.1088 60.5199C55.8873 61.6622 53.4827 61.0326 51.9254 58.9111C51.4674 58.2817 50.391 56.3933 49.5437 54.7148C48.6963 53.013 47.8259 51.451 47.6427 51.2179C47.1846 50.705 46.0856 50.7052 43.9329 51.2881C40.658 52.1506 39.1236 53.1298 35.8029 56.5101C30.1234 62.2917 27.1007 67.1407 22.4746 77.8646C16.2225 92.4118 12.9245 104.255 11.2756 118.196C10.7718 122.392 10.5886 134.468 10.9321 139.224C12.8329 164.541 21.627 186.059 37.635 204.569C38.5053 205.595 39.3526 206.551 39.4671 206.691C40.0626 207.367 44.5281 211.96 46.0396 213.428C61.9331 228.908 81.5139 239.259 102.675 243.362C110.599 244.901 114.583 245.32 122.828 245.437C123.944 245.45 125.018 245.457 126.053 245.458ZM125.182 240.334C117.27 240.334 114.477 240.156 108.766 239.282C88.2011 236.205 69.6052 227.486 53.4369 213.358C50.3681 210.677 43.429 203.567 40.6351 200.257C24.7416 181.397 16.8864 160.672 15.7872 134.748C15.0772 118.289 17.9628 102.296 24.6958 85.0916C29.0928 73.9014 31.9555 68.3996 36.3754 62.7113C39.3526 58.888 42.1008 56.65 43.8184 56.65C44.9634 56.65 45.4902 57.1629 46.9329 59.6807C49.1086 63.5273 51.9025 65.6019 55.3606 65.9049C57.8798 66.1381 61.1544 64.5533 63.559 61.9655C65.2537 60.1238 66.468 58.1187 69.0787 52.8034C73.2009 44.3875 75.0097 41.5433 77.9869 38.6992C81.6969 35.179 86.7812 32.4047 91.453 31.3557C93.6745 30.8661 96.3997 29.7706 97.6364 28.8614C99.3769 27.5792 100.27 25.6907 100.27 23.2894C100.27 21.2379 100.476 20.5385 101.209 20.1655C102.514 19.4662 108.331 18.2539 114.011 17.4846C116.599 17.1349 118.934 17.0649 128.484 17.0416C138.584 17.0183 140.279 17.0649 143.416 17.4846C147.744 18.0441 151.867 18.8365 156.859 20.0954C162.722 21.5408 164.073 22.4504 163.203 24.3154L162.836 25.1076L155.371 25.271C150.424 25.3643 147.653 25.5044 147.126 25.7142C146.279 25.994 142.752 28.9311 136.34 34.6194C125.118 44.5973 122.301 46.9286 120.652 47.5813C119.118 48.1875 117.744 49.6096 117.125 51.1948C116.484 52.85 115.66 54.6218 115.339 55.0414C115.179 55.2512 114.423 55.8107 113.667 56.3003C112.912 56.7899 112.179 57.3261 112.064 57.4426C110.805 58.7948 108.515 62.6645 108.056 64.273C107.782 65.1589 107.827 65.4387 108.4 67.3037C109.316 70.381 110.278 72.5262 111.103 73.3888C112.087 74.4379 113.163 74.6708 115.98 74.4843C118.27 74.3211 118.385 74.3444 119.393 74.9272C120.515 75.6033 120.881 76.3726 120.469 77.2818C120.171 77.9345 118.431 78.7974 115.82 79.5667C113.301 80.3127 112.751 80.6153 111.469 81.9907C109.614 83.949 105.285 89.3345 104.14 91.1296C103.27 92.4351 103.018 93.0643 103.018 93.7637C103.018 95.0226 103.934 96.7479 105.194 97.797C106.476 98.916 106.889 100.221 106.179 101.107C105.858 101.504 101.644 103.276 97.4074 104.768C92.4149 106.539 87.4682 108.381 86.6438 108.777C84.9262 109.593 84.4911 111.015 82.0864 124.024C80.323 133.466 80.3691 132.859 81.4454 135.61C84.0791 142.208 87.0329 148.875 87.6054 149.481C88.4757 150.414 90.4454 150.973 104.392 154.354L109.545 155.589L110.69 156.778C111.812 157.921 117.629 166.033 118.408 167.502C118.614 167.922 119.072 169.437 119.393 170.906C119.713 172.375 120.194 174.426 120.446 175.475C122.599 184.707 124.477 196.573 125.69 208.836C126.675 218.557 126.652 218.464 128.004 219.723C129.149 220.772 138.561 227.113 140.576 228.186C141.882 228.885 142.225 228.955 143.37 228.885C144.309 228.815 144.904 228.605 145.546 228.162C147.263 226.926 156.401 219.047 160.5 215.247C163.317 212.636 163.432 212.519 163.913 210.98C164.897 207.763 166.272 201.142 167.004 196.06C167.829 190.395 168.653 179.788 168.722 174.379C168.745 172.794 168.837 171.419 168.951 171.349C169.043 171.279 169.524 170.696 170.027 170.067C170.508 169.414 171.356 168.365 171.859 167.735C181.73 155.683 184.226 152.395 184.73 150.973C184.959 150.297 185.005 149.528 184.89 148.339C184.799 147.314 184.822 146.497 184.982 146.217C185.28 145.658 188.28 144.306 193.02 142.604C201.219 139.643 202.776 138.991 203.463 138.198C205.066 136.426 205.089 134.421 203.6 131.064C202.593 128.803 202.318 127.171 202.891 126.798C204.585 125.726 211.158 125.772 221.418 126.915C233.349 128.243 236.556 128.686 237.632 129.153L238.594 129.596V132.346C238.594 138.781 237.197 149.668 235.502 156.545C231.517 172.608 224.074 187.201 213.425 199.79C211.639 201.935 202.685 211.074 200.898 212.612C200.074 213.312 199.226 214.058 199.02 214.244C198.814 214.431 198.173 214.967 197.601 215.41C197.028 215.853 196.433 216.366 196.249 216.552C195.585 217.182 191.348 220.329 189.058 221.891C175.065 231.426 160.89 236.881 143.21 239.539C139.065 240.168 136.34 240.285 126.836 240.331C126.26 240.333 125.71 240.334 125.182 240.334ZM166.416 108.319C164.982 108.295 157.294 106.605 157.294 106.283C157.294 105.956 158.76 105.374 160.18 105.141C160.821 105.024 161.874 104.674 162.493 104.348C163.088 104.022 163.615 103.765 163.638 103.742C163.661 103.742 163.913 104.301 164.234 104.954C164.531 105.63 165.218 106.632 165.768 107.169C166.317 107.705 166.707 108.218 166.638 108.288C166.615 108.312 166.538 108.321 166.416 108.319ZM138.466 102.884C137.841 102.848 135.086 100.211 134.485 99.0091L134.141 98.3798H136.683C139.134 98.3798 139.202 98.4029 139.202 98.8925C139.179 99.8716 138.744 102.669 138.561 102.856C138.539 102.878 138.507 102.887 138.466 102.884ZM127.264 99.7308C126.754 99.7243 125.45 99.2739 125.141 98.9393C124.729 98.543 124.843 98.0999 125.622 97.0275C126.194 96.2348 126.836 96.0719 127.271 96.6081C127.523 96.9344 127.683 99.4522 127.454 99.6854C127.425 99.718 127.358 99.732 127.264 99.7308ZM161.038 90.3437C160.961 90.3414 160.847 90.174 160.661 89.8243C160.202 88.9617 160.18 88.8216 160.5 88.8216C160.615 88.8216 160.821 89.0314 160.958 89.3112C161.096 89.5676 161.188 89.9642 161.142 90.174C161.116 90.2875 161.084 90.3453 161.038 90.3437ZM126.146 71.0274C124.793 71.0165 122.052 70.7379 121.866 70.5675C121.729 70.4276 122.209 69.5653 122.759 68.9824C122.919 68.7959 123.331 68.2833 123.675 67.7937C124.018 67.3275 124.454 66.8146 124.614 66.6281C124.775 66.4649 125.141 65.9751 125.439 65.5322C126.057 64.6696 125.966 64.5299 124.5 64.0637C123.332 63.714 122.988 63.2706 121.225 59.9602L119.691 57.0929L120.194 55.8804C121.087 53.7357 121.637 52.6868 121.889 52.6868C122.026 52.6868 123.148 53.8294 124.362 55.2048C128.232 59.5876 131.874 63.9704 132.24 64.6465C132.584 65.276 132.561 65.3226 131.69 66.395C130.156 68.2367 127.408 70.8242 126.813 70.9873C126.697 71.0179 126.459 71.03 126.146 71.0274ZM114.273 69.6506C114.243 69.6504 114.217 69.6452 114.194 69.635C114.011 69.5884 113.53 68.516 113.118 67.3037C112.293 64.8325 112.225 65.2757 113.759 62.8279C114.583 61.4991 114.95 61.0794 115.293 61.0794C115.454 61.0794 116.003 61.8485 116.53 62.7577C117.858 65.2289 117.904 65.7184 116.919 67.0706C115.867 68.5351 114.714 69.6513 114.273 69.6506Z" fill="url(#paint0_radial_5887:48031)"/>
<path d="M118.064 0.140188C108.96 0.629756 97.5396 2.89109 87.7932 6.08494C84.1471 7.2972 78.3911 9.46529 76.9236 10.1647C76.2814 10.4677 75.6851 10.7242 75.5935 10.7242C75.3411 10.7242 68.3239 14.2211 66.6959 15.1536C58.6697 19.7928 51.1019 25.1315 44.1995 31.0296C37.6868 36.578 29.3395 45.67 23.9964 52.9203C15.7865 64.1337 9.06753 77.5152 5.26087 90.2906C2.83013 98.3801 1.08711 107.519 0.330455 115.865C0.261752 116.564 0.147017 120.178 0.0551828 123.908C-0.151158 133.303 0.215721 140.646 1.24765 147.453C4.61872 170.044 13.0347 189.3 27.4591 207.367C28.7892 209.022 29.9817 210.514 30.1191 210.654C33.9947 214.991 38.8335 219.956 41.8374 222.66C44.4287 225.015 44.7956 225.341 47.0889 227.183C54.6564 233.338 61.6278 237.907 70.0209 242.22C75.4101 244.994 78.46 246.346 83.6655 248.281C102.86 255.438 125.585 257.746 146.729 254.669C158.562 252.944 170.555 249.47 180.898 244.784C186.264 242.36 193.969 238.047 197.821 235.319C198.624 234.76 199.312 234.294 199.381 234.294C199.427 234.294 200.94 233.221 202.729 231.916C211.856 225.132 218.804 218.651 226.968 209.232C227.312 208.836 228.619 207.204 229.903 205.596C243.387 188.391 251.964 168.365 254.945 147.104C255.885 140.343 256 138.385 256 127.521C256 116.657 255.954 115.748 254.945 108.638C251.826 86.6305 242.401 65.1362 228.275 47.908C220.134 37.9535 210.755 29.2112 200.848 22.3339C195.551 18.6505 191.561 16.2726 185.736 13.2886C174.362 7.50702 163.01 3.73035 150.146 1.51564C143.06 0.280065 141.729 0.186814 130.332 0.116876C124.416 0.093563 118.889 0.0935626 118.064 0.140188ZM139.964 4.68618C147.875 5.19906 158.997 7.48371 167.872 10.3978C183.237 15.48 195.918 22.8235 209.563 34.5964C212.934 37.5105 221.143 45.9264 224.101 49.5399C234.008 61.6159 241.025 74.0649 245.681 87.8894C252.147 107.052 253.661 129.946 249.9 151.533C249.648 153.002 248.937 156.312 248.318 158.877C244.098 176.385 236.531 191.375 224.4 206.132C220.341 211.121 211.604 219.77 206.696 223.71C206.192 224.106 205.182 224.945 204.426 225.551C203.692 226.157 202.454 227.113 201.674 227.673C189.016 236.928 176.93 242.896 162.552 247.022C142.601 252.711 117.467 253.014 96.8516 247.768C80.6844 243.689 67.4986 237.231 52.9366 226.274C52.2486 225.738 51.6296 225.271 51.5606 225.202C51.4919 225.132 50.6663 224.456 49.726 223.686C40.1176 215.9 30.5091 205.223 23.6524 194.778C15.0986 181.723 9.61785 168.179 6.63678 152.815C4.9398 144.05 4.57292 139.457 4.57292 127.987C4.57292 116.494 4.9856 111.435 6.63678 102.926C10.604 82.5974 18.7449 65.4625 32.0913 49.4234C34.8432 46.1129 42.5254 38.14 45.8278 35.156C59.6098 22.7303 74.9971 14.0346 92.1504 8.99904C100.222 6.62113 110.748 4.80274 118.408 4.45305C123.132 4.21992 134.896 4.3598 139.964 4.68618Z" fill="url(#paint1_radial_5887:48031)"/>
<path d="M122.484 11.912C113.965 12.3783 104.37 13.9636 98.0946 15.9685C94.8426 16.9942 92.7128 17.8335 92.7128 18.0666C92.7128 18.1365 93.125 18.7194 93.606 19.3488C94.7968 20.8875 95.2778 22.2163 95.1862 23.7782C95.1175 25.0371 95.0946 25.0604 94.1098 25.5733C93.5602 25.8531 92.1174 26.3193 90.9036 26.5991C87.8119 27.2985 86.0027 27.9046 83.9416 28.9537C80.0484 30.9353 76.888 33.1966 74.1857 35.9242C70.636 39.5377 69.5596 41.2162 65.1397 50.0051C61.4526 57.2787 59.9869 59.4234 57.88 60.5191C55.6585 61.6615 53.2539 61.032 51.6966 58.9106C51.2386 58.2811 50.1622 56.3928 49.3149 54.7143C48.4675 53.0124 47.5973 51.4505 47.4141 51.2174C46.956 50.7045 45.8568 50.7045 43.7041 51.2873C40.4292 52.1499 38.8948 53.129 35.5741 56.5093C29.8946 62.2909 26.8716 67.14 22.2456 77.8638C15.9935 92.411 12.6957 104.254 11.0468 118.195C10.543 122.391 10.3598 134.467 10.7033 139.223C12.6041 164.541 21.3982 186.058 37.4062 204.569C38.2765 205.594 39.1238 206.55 39.2383 206.69C39.8337 207.366 44.2995 211.959 45.811 213.428C61.7045 228.907 81.2851 239.258 102.446 243.361C110.37 244.9 114.355 245.319 122.599 245.436C134.508 245.576 141.515 245.063 149.874 243.384C170.096 239.351 186.723 231.029 203.097 216.715C205.41 214.71 213.242 206.877 215.143 204.685C224.578 193.821 230.601 183.914 236.144 170.066C237.724 166.149 239.625 159.575 240.747 154.26C242.373 146.636 243.128 139.759 243.335 130.9C243.449 125.865 243.426 124.792 243.151 124.559C242.831 124.303 237.014 123.58 224.052 122.158C220.525 121.762 216.242 121.296 214.525 121.109C210.425 120.643 209.876 120.666 203.555 121.342C196.708 122.065 194.188 122.415 194.051 122.624C193.982 122.741 195.173 125.329 196.708 128.429C198.219 131.506 199.433 134.211 199.387 134.444C199.295 134.91 195.242 136.635 188.898 138.897C183.013 141.018 183.723 141.111 182.28 137.964C181.593 136.519 179.967 132.859 178.661 129.851C177.333 126.844 176.074 123.953 175.845 123.44C175.615 122.927 175.157 121.902 174.837 121.156C174.196 119.64 174.012 119.594 172.478 120.619C171.562 121.226 171.562 121.156 173.554 125.608C177.081 133.465 179.257 141.321 179.852 148.268L180.013 150.017L179.005 151.206C178.478 151.859 177.654 152.861 177.196 153.42C173.738 157.733 165.424 167.991 165.31 168.084C165.241 168.154 164.852 168.644 164.44 169.157C163.73 170.089 163.707 170.229 163.707 172.187C163.707 177.829 162.859 189.112 161.989 195.01C161.256 199.929 161.142 200.582 159.997 205.594L159.012 209.884L154.432 213.87C148.913 218.696 144.63 222.333 143.599 223.079C142.844 223.615 142.798 223.615 142.111 223.266C138.424 221.354 130.958 216.132 130.958 215.456C130.958 214.803 129.973 204.452 129.698 202.121C128.462 191.98 125.943 178.388 123.446 168.411C122.805 165.916 122.714 165.683 120.744 162.862C119.622 161.254 118.362 159.435 117.95 158.829C117.286 157.85 115.385 155.192 113.622 152.744C112.66 151.416 112.935 151.509 99.5374 148.268C95.2091 147.219 91.4533 146.194 91.1555 146.007C90.8578 145.821 90.2624 144.865 89.8273 143.886C88.0868 140.062 85.1096 132.742 85.1096 132.299C85.1096 131.786 86.8272 122.671 88.041 116.796C88.5677 114.278 88.957 112.856 89.2089 112.67C89.415 112.507 90.3998 112.11 91.4303 111.761C95.6671 110.339 103.476 107.378 110.805 104.394C116.668 102.016 116.141 102.062 119.164 103.508C122.393 105.023 124.729 105.676 129.927 106.539C138.034 107.844 140.439 108.357 146.416 110.035C158.691 113.486 164.371 114.768 168.745 115.094L170.715 115.234L171.585 113.323C172.455 111.364 175.18 104.534 175.501 103.531C175.753 102.715 175.341 102.575 172.386 102.575H169.73L169.57 101.806C169.478 101.41 168.745 97.4465 167.944 93.0171C167.119 88.5877 166.34 84.508 166.157 83.9251C165.86 82.8761 165.86 82.8761 164.623 82.7129C162.516 82.4564 155.371 82.0601 152.783 82.0601H150.378L150.539 83.6221C150.79 86.1632 151.317 88.1214 151.981 89.0306C152.325 89.4969 153.63 91.222 154.89 92.9006C157.913 96.8637 158.783 98.1226 158.6 98.2858C158.531 98.3557 157.478 97.9361 156.241 97.3533C153.172 95.8613 153.126 95.8846 153.745 98.0061C154.455 100.384 154.546 100.291 150.722 101.247C146.164 102.389 144.287 102.808 143.829 102.808C143.393 102.808 144.401 101.806 146.027 100.664C146.691 100.197 146.989 99.8245 146.989 99.4281C146.989 98.7288 144.836 92.5042 144.172 91.292C143.806 90.6159 142.798 89.73 140.37 87.9583C138.538 86.6294 136.935 85.557 136.821 85.557C136.683 85.557 136.065 86.0699 135.424 86.6761C134.805 87.2822 133.546 88.4478 132.63 89.2405L131.004 90.7092L129.149 90.3595C124.912 89.5435 122.645 89.2638 122.439 89.5668C122.347 89.73 121.523 91.1754 120.629 92.784C118.5 96.5607 117.217 98.6122 116.942 98.6122C116.622 98.6122 111.973 96.3975 110.049 95.3251C107.805 94.0662 107.667 93.903 108.08 93.0871C108.354 92.5509 111.973 87.7951 112.385 87.4221C112.477 87.3521 113.072 86.6527 113.736 85.8601C114.698 84.7178 115.179 84.3448 115.912 84.135C116.439 83.9951 118.523 83.4356 120.538 82.8528C122.553 82.2933 124.591 81.7104 125.072 81.5939C125.965 81.3374 125.874 81.4307 129.721 75.9289C130.958 74.1571 131.187 74.0405 138.859 70.5203C140.76 69.6577 143.302 68.4921 144.516 67.9326C145.752 67.3731 146.806 66.9068 146.897 66.9068C146.966 66.9068 147.516 66.3706 148.088 65.6946C148.684 65.0418 149.6 64.0161 150.126 63.4332C151.065 62.3842 151.111 62.2443 152.233 57.5817C154.271 49.0959 154.592 47.3241 154.157 47.3241C153.951 47.3241 146.668 51.0309 145.913 51.5437C145.615 51.7069 145.386 51.9167 145.386 51.9867C145.386 52.0566 146.164 52.5462 147.08 53.1057C148.019 53.6419 148.89 54.2247 149.027 54.4112C149.21 54.621 148.752 55.2271 147.035 56.9057C144.355 59.5866 142.89 60.8455 142.5 60.8455C142.111 60.8455 141.813 60.286 140.874 57.6051C139.729 54.318 139.752 54.3179 137.92 57.0922C137.05 58.3977 136.225 59.4468 136.065 59.4468C135.63 59.4468 129.927 54.7376 126.79 51.7769C126.172 51.2174 125.691 50.5879 125.691 50.3781C125.691 50.0051 128.05 47.837 140.783 36.6469L148.019 30.3058L155.348 30.2825C159.378 30.2592 163.661 30.1892 164.852 30.096L167.028 29.9561L167.325 29.0469C167.737 27.788 168.997 20.0715 168.928 19.3721C168.837 18.7427 168.218 18.4629 163.249 16.9243C153.813 13.9869 144.813 12.3783 135.012 11.8887C129.813 11.6323 127.591 11.6323 122.484 11.912ZM143.187 17.4838C147.516 18.0433 151.638 18.8359 156.63 20.0948C162.493 21.5402 163.844 22.4494 162.974 24.3144L162.608 25.1071L155.142 25.2703C150.195 25.3635 147.424 25.5034 146.897 25.7132C146.05 25.9929 142.523 28.9304 136.111 34.6187C124.889 44.5965 122.072 46.9278 120.423 47.5806C118.889 48.1867 117.515 49.6088 116.897 51.194C116.255 52.8492 115.431 54.621 115.11 55.0406C114.95 55.2505 114.194 55.81 113.438 56.2995C112.683 56.7891 111.95 57.3253 111.835 57.4419C110.576 58.794 108.286 62.6639 107.828 64.2725C107.553 65.1584 107.599 65.4381 108.171 67.3032C109.087 70.3804 110.049 72.5252 110.874 73.3878C111.858 74.4369 112.935 74.67 115.752 74.4835C118.042 74.3203 118.156 74.3436 119.164 74.9264C120.286 75.6025 120.652 76.3718 120.24 77.281C119.942 77.9338 118.202 78.7963 115.591 79.5657C113.072 80.3117 112.522 80.6147 111.24 81.9902C109.385 83.9485 105.057 89.3337 103.912 91.1288C103.041 92.4343 102.789 93.0638 102.789 93.7631C102.789 95.022 103.705 96.7472 104.965 97.7962C106.247 98.9153 106.66 100.221 105.95 101.107C105.629 101.503 101.415 103.275 97.1786 104.767C92.1861 106.539 87.2394 108.38 86.415 108.777C84.6974 109.592 84.2622 111.015 81.8576 124.023C80.0942 133.465 80.14 132.859 81.2164 135.61C83.85 142.207 86.8043 148.875 87.3768 149.481C88.2471 150.413 90.2166 150.973 104.163 154.353L109.316 155.589L110.461 156.778C111.583 157.92 117.4 166.033 118.179 167.501C118.385 167.921 118.843 169.436 119.164 170.905C119.484 172.374 119.965 174.425 120.217 175.474C122.37 184.706 124.248 196.572 125.462 208.835C126.446 218.556 126.424 218.463 127.775 219.722C128.92 220.771 138.332 227.112 140.348 228.185C141.653 228.884 141.996 228.954 143.141 228.884C144.08 228.814 144.676 228.604 145.317 228.161C147.035 226.926 156.172 219.046 160.272 215.246C163.088 212.635 163.203 212.518 163.684 210.98C164.669 207.763 166.043 201.142 166.776 196.06C167.6 190.395 168.424 179.787 168.493 174.379C168.516 172.793 168.608 171.418 168.722 171.348C168.814 171.278 169.295 170.695 169.799 170.066C170.279 169.413 171.127 168.364 171.631 167.735C181.501 155.682 183.997 152.395 184.501 150.973C184.73 150.297 184.776 149.527 184.661 148.338C184.57 147.313 184.593 146.497 184.753 146.217C185.051 145.657 188.051 144.305 192.791 142.603C200.99 139.643 202.547 138.99 203.234 138.197C204.838 136.425 204.86 134.421 203.372 131.064C202.364 128.802 202.089 127.17 202.662 126.797C204.357 125.725 210.929 125.772 221.189 126.914C233.121 128.243 236.327 128.686 237.403 129.152L238.365 129.595V132.346C238.365 138.78 236.968 149.667 235.273 156.544C231.289 172.607 223.846 187.201 213.196 199.79C211.41 201.934 202.456 211.073 200.67 212.612C199.845 213.311 198.998 214.057 198.792 214.243C198.585 214.43 197.944 214.966 197.372 215.409C196.799 215.852 196.204 216.365 196.021 216.551C195.356 217.181 191.12 220.328 188.83 221.89C174.837 231.425 160.661 236.88 142.981 239.538C138.836 240.167 136.111 240.284 126.607 240.33C117.4 240.354 114.629 240.214 108.538 239.281C87.9722 236.204 69.3764 227.485 53.2081 213.358C50.1393 210.677 43.2002 203.566 40.4063 200.256C24.5128 181.396 16.6576 160.671 15.5584 134.747C14.8484 118.288 17.734 102.296 24.467 85.0908C28.864 73.9007 31.7267 68.3989 36.1466 62.7105C39.1238 58.8873 41.872 56.6492 43.5896 56.6492C44.7346 56.6492 45.2614 57.1621 46.7041 59.6799C48.8798 63.5265 51.6737 65.6013 55.1318 65.9044C57.6509 66.1375 60.9258 64.5522 63.3305 61.9645C65.0252 60.1228 66.2389 58.1179 68.8497 52.8026C72.9719 44.3867 74.7811 41.5426 77.7583 38.6984C81.4683 35.1782 86.5524 32.404 91.2242 31.3549C93.4457 30.8653 96.1709 29.7696 97.4076 28.8604C99.1481 27.5782 100.041 25.6899 100.041 23.2887C100.041 21.2371 100.247 20.5378 100.98 20.1648C102.286 19.4654 108.102 18.2531 113.782 17.4838C116.37 17.1341 118.706 17.0642 128.256 17.0409C138.355 17.0175 140.05 17.0642 143.187 17.4838ZM124.133 55.2038C128.004 59.5866 131.645 63.9694 132.011 64.6455C132.355 65.2749 132.332 65.3216 131.462 66.394C129.927 68.2357 127.179 70.8234 126.584 70.9866C125.965 71.1498 121.866 70.7768 121.637 70.5669C121.5 70.4271 121.981 69.5645 122.53 68.9817C122.691 68.7952 123.103 68.2823 123.446 67.7927C123.79 67.3265 124.225 66.8136 124.385 66.6271C124.546 66.4639 124.912 65.9743 125.21 65.5314C125.828 64.6688 125.736 64.5289 124.271 64.0627C123.103 63.713 122.759 63.2701 120.996 59.9596L119.462 57.0922L119.965 55.8799C120.859 53.7351 121.408 52.6861 121.66 52.6861C121.797 52.6861 122.92 53.8284 124.133 55.2038ZM116.301 62.7572C117.629 65.2283 117.675 65.7179 116.69 67.07C115.568 68.632 114.332 69.7976 113.965 69.6344C113.782 69.5878 113.301 68.5154 112.889 67.3032C112.064 64.832 111.996 65.2749 113.53 62.8271C114.355 61.4983 114.721 61.0787 115.064 61.0787C115.225 61.0787 115.774 61.848 116.301 62.7572ZM160.73 89.3104C160.867 89.5668 160.959 89.9632 160.913 90.173C160.844 90.476 160.73 90.3828 160.432 89.8233C159.974 88.9607 159.951 88.8208 160.272 88.8208C160.386 88.8208 160.592 89.0306 160.73 89.3104ZM127.042 96.6073C127.294 96.9337 127.454 99.4514 127.225 99.6846C127.042 99.8944 125.278 99.3349 124.912 98.9386C124.5 98.5422 124.614 98.0993 125.393 97.0269C125.965 96.2343 126.607 96.0711 127.042 96.6073ZM138.973 98.8919C138.951 99.8711 138.515 102.669 138.332 102.855C137.989 103.205 134.897 100.291 134.256 99.0085L133.912 98.3791H136.454C138.905 98.3791 138.973 98.4024 138.973 98.8919ZM164.005 104.953C164.302 105.629 164.989 106.632 165.539 107.168C166.089 107.704 166.478 108.217 166.409 108.287C166.111 108.59 157.065 106.632 157.065 106.282C157.065 105.956 158.531 105.373 159.951 105.14C160.592 105.023 161.646 104.674 162.264 104.347C162.859 104.021 163.386 103.764 163.409 103.741C163.432 103.741 163.684 104.301 164.005 104.953Z" fill="url(#paint2_radial_5887:48031)"/>
<path d="M97.4998 38.0692C95.3699 38.8152 94.8661 39.7944 92.4844 47.9771L91.3164 52.0103L92.0493 53.3391C93.0798 55.2274 93.5607 55.6704 94.9348 56.1133C96.0112 56.463 96.4234 56.463 98.599 56.2066C101.92 55.8335 104.301 55.3207 105.424 54.7378C106.477 54.2017 109.752 51.6839 110.531 50.8213C110.805 50.4949 111.309 49.7955 111.63 49.236C112.386 47.9772 112.294 47.068 111.034 43.2447C109.34 38.0925 109.088 37.906 102.79 37.8361C99.7441 37.7895 98.0723 37.8827 97.4998 38.0692ZM104.095 42.5686L106.179 42.7318L106.775 44.7367C107.095 45.8324 107.37 46.9048 107.37 47.1379C107.37 47.6741 105.263 49.5158 103.866 50.2152C103.088 50.6115 101.805 50.9379 100.156 51.171C98.7822 51.3575 97.3623 51.5673 97.0188 51.6373C96.5379 51.7072 96.3776 51.6372 96.3776 51.3575C96.3776 51.1477 96.9272 49.0495 97.5685 46.6949L98.7822 42.4287H100.408C101.301 42.4287 102.973 42.4987 104.095 42.5686Z" fill="url(#paint3_radial_5887:48031)"/>
</g>
<defs>
<radialGradient id="paint0_radial_5887:48031" cx="0" cy="0" r="1" gradientUnits="userSpaceOnUse" gradientTransform="translate(128.015 127.987) scale(127.824 130.12)">
<stop stop-color="#C79F00"/>
<stop offset="1" stop-color="#FFEE00"/>
</radialGradient>
<radialGradient id="paint1_radial_5887:48031" cx="0" cy="0" r="1" gradientUnits="userSpaceOnUse" gradientTransform="translate(128 128.051) scale(128 130.3)">
<stop stop-color="#6B6B6B"/>
<stop offset="1" stop-color="#313132"/>
</radialGradient>
<radialGradient id="paint2_radial_5887:48031" cx="0" cy="0" r="1" gradientUnits="userSpaceOnUse" gradientTransform="translate(126.964 128.579) scale(116.436 118.528)">
<stop stop-color="#6B6B6B"/>
<stop offset="1" stop-color="#313132"/>
</radialGradient>
<radialGradient id="paint3_radial_5887:48031" cx="0" cy="0" r="1" gradientUnits="userSpaceOnUse" gradientTransform="translate(101.713 47.1064) scale(10.3967 10.5835)">
<stop stop-color="#6B6B6B"/>
<stop offset="1" stop-color="#313132"/>
</radialGradient>
<clipPath id="clip0_5887:48031">
<rect width="256" height="256" fill="white"/>
</clipPath>
</defs>
</svg>
