<?xml version="1.0" standalone="no"?>
<!DOCTYPE svg PUBLIC "-//W3C//DTD SVG 20010904//EN"
 "http://www.w3.org/TR/2001/REC-SVG-20010904/DTD/svg10.dtd">
<svg version="1.0" xmlns="http://www.w3.org/2000/svg"
 width="1349.000000pt" height="1349.000000pt" viewBox="0 0 1349.000000 1349.000000"
 preserveAspectRatio="xMidYMid meet">

<g transform="translate(0.000000,1349.000000) scale(0.100000,-0.100000)"
fill="#000000" stroke="none">
<path d="M0 6740 l0 -6740 6745 0 6745 0 0 6740 0 6740 -2772 -1 c-2717 -1
-2771 -2 -2665 -20 1257 -212 2365 -739 3317 -1576 169 -149 487 -475 640
-656 150 -178 171 -207 163 -221 -3 -6 -3 -8 2 -4 10 9 45 -29 45 -49 0 -8 4
-12 9 -9 5 3 12 -5 15 -19 4 -14 11 -25 17 -25 6 0 6 -8 -2 -21 -8 -15 -8 -24
0 -32 6 -6 11 -15 11 -19 0 -15 -27 -8 -41 10 -12 15 -12 16 1 7 9 -5 6 -1 -7
10 -24 21 -32 42 -11 29 7 -4 8 -3 4 5 -4 6 -11 9 -15 7 -4 -3 -21 11 -37 32
-24 31 -105 124 -124 142 -3 3 -49 55 -102 115 -141 161 -429 442 -683 666
-77 68 -350 286 -440 350 -574 415 -1213 730 -1924 949 -678 209 -1409 308
-2094 285 -267 -10 -247 -21 53 -29 749 -20 1517 -187 2252 -490 566 -233
1021 -498 1463 -852 151 -121 166 -139 40 -48 -835 609 -1760 984 -2825 1148
-1625 250 -3300 -129 -4675 -1058 -222 -150 -395 -285 -635 -495 -366 -320
-536 -501 -785 -836 -102 -137 -242 -341 -324 -472 -18 -29 -39 -53 -47 -53
-7 0 -17 -8 -23 -17 -12 -22 -26 -10 -35 30 -6 25 -4 28 16 25 13 -2 26 -7 30
-13 5 -6 8 -5 8 3 0 7 -11 17 -25 22 -14 5 -25 16 -25 24 0 8 -3 21 -6 30 -4
11 -1 16 11 16 13 0 15 4 8 13 -6 6 -13 24 -17 40 -5 21 -3 27 10 27 12 0 14
4 7 13 -6 6 -13 24 -17 40 -5 21 -3 27 9 27 9 0 13 5 10 10 -4 6 -10 8 -14 6
-4 -3 -7 11 -7 30 0 21 5 34 13 34 13 0 12 4 -15 57 -16 31 -15 36 6 31 15 -4
18 0 16 19 -3 31 14 93 27 93 6 0 6 -7 -1 -20 -8 -16 -8 -18 4 -14 9 3 14 11
13 17 -1 7 4 11 11 9 8 -1 11 2 7 8 -3 6 -11 8 -16 5 -13 -9 -11 7 5 27 7 10
17 14 21 10 5 -4 5 -2 2 5 -4 6 9 31 29 55 20 23 51 61 69 83 216 261 293 345
484 534 424 417 922 791 1411 1061 476 262 967 464 1450 595 74 20 185 52 247
71 261 78 567 151 843 199 l135 23 -3007 1 -3008 1 0 -6740z m12284 4114 c5
-14 4 -15 -9 -4 -17 14 -19 20 -6 20 5 0 12 -7 15 -16z m30 -30 c3 -8 2 -12
-4 -9 -6 3 -10 10 -10 16 0 14 7 11 14 -7z m-7 -76 c-3 -8 -6 -5 -6 6 -1 11 2
17 5 13 3 -3 4 -12 1 -19z m-11043 -30 c-3 -4 -9 -8 -15 -8 -5 0 -9 4 -9 8 0
5 7 9 15 9 8 0 12 -4 9 -9z m39 -510 c-21 -36 -64 -48 -55 -15 3 12 11 17 24
14 11 -3 22 2 28 14 6 10 13 19 16 19 3 0 -2 -14 -13 -32z m-66 -106 c-8 -10
-17 -24 -20 -32 -4 -12 -6 -12 -6 2 -1 9 6 23 14 31 8 8 11 18 7 22 -4 5 -1 5
6 1 11 -7 11 -11 -1 -24z m4893 -302 c22 -44 149 -308 281 -588 132 -279 268
-564 301 -634 34 -71 64 -128 67 -128 3 0 165 312 360 693 194 381 364 702
378 715 24 22 28 22 296 22 158 0 278 -4 287 -10 12 -8 12 -10 -5 -10 -16 0
-17 -2 -5 -10 8 -5 11 -12 7 -16 -4 -4 -2 -13 4 -20 8 -10 -7 -14 -72 -20
l-82 -7 -212 -431 c-117 -237 -285 -576 -374 -753 l-161 -323 68 -34 c37 -19
95 -55 130 -80 34 -25 66 -46 72 -46 5 0 102 185 215 411 114 226 215 426 225
445 11 18 51 95 89 171 71 140 111 207 111 188 0 -6 -6 -17 -12 -23 -10 -10
-10 -15 -1 -20 8 -5 9 -13 3 -22 -5 -8 -4 -22 2 -33 8 -15 7 -18 -3 -12 -9 6
-11 3 -6 -9 7 -19 -77 -201 -309 -668 -84 -169 -174 -350 -199 -403 l-46 -97
28 -35 c126 -156 197 -290 240 -448 24 -89 27 -118 27 -265 0 -147 -3 -176
-27 -265 -103 -385 -391 -673 -773 -771 -543 -139 -1114 185 -1273 722 -98
334 -36 690 169 957 22 29 50 64 62 79 21 27 21 29 6 60 -9 18 -117 238 -240
488 -315 643 -310 632 -302 665 4 18 2 30 -7 36 -12 8 -12 10 0 18 9 6 10 11
2 15 -6 4 -9 12 -6 17 4 5 1 9 -5 9 -6 0 -8 5 -4 11 3 6 15 -3 27 -23 26 -43
257 -492 455 -885 86 -172 160 -313 164 -313 3 0 42 24 85 54 43 29 97 63 121
75 23 12 42 23 42 26 0 4 -176 373 -370 775 -78 162 -162 336 -185 385 -24 50
-72 152 -108 227 l-65 137 -74 3 c-57 2 -73 6 -73 18 -1 8 4 18 10 22 6 5 6 8
-2 8 -7 0 -10 7 -7 15 5 13 50 15 320 15 l314 0 40 -80z m540 -4879 l5 -383
335 383 336 384 192 -3 c106 -2 192 -5 192 -8 0 -4 -64 -77 -143 -163 -78 -86
-207 -228 -287 -316 -79 -88 -155 -172 -168 -187 l-24 -26 171 -226 c94 -124
248 -327 341 -451 l171 -225 -193 0 -193 1 -249 329 c-137 182 -252 330 -257
330 -4 0 -57 -56 -118 -124 l-111 -124 -2 -208 -3 -209 -140 -1 c-77 0 -148 2
-157 4 -17 4 -18 51 -18 801 0 439 3 800 6 804 3 3 74 5 158 4 l151 -2 5 -384z
m-2760 -421 l0 -800 -150 0 -150 0 0 631 c0 597 -1 631 -17 626 -20 -6 -299
-132 -325 -147 -19 -10 -34 3 -23 20 3 6 1 10 -6 10 -7 0 -9 3 -6 6 3 4 2 14
-3 24 -12 22 -1 68 11 48 7 -10 9 -9 9 5 0 19 -11 22 -26 7 -6 -6 -10 -3 -11
11 -1 14 3 19 13 15 8 -3 14 -1 14 5 0 5 -7 12 -15 15 -8 4 -15 11 -15 16 0 6
7 8 15 4 9 -3 15 0 15 9 0 8 -8 16 -17 16 -10 1 -2 5 17 10 31 7 30 8 -14 5
-31 -3 -44 -1 -35 5 8 5 22 9 31 9 9 0 19 4 22 9 4 5 -4 7 -16 4 -46 -11 0 17
207 126 l210 110 133 0 132 1 0 -800z m741 425 c142 -203 262 -371 267 -373 5
-1 126 166 268 372 l259 376 153 0 152 0 0 -800 0 -800 -155 0 -155 0 0 520
c0 309 -4 520 -9 520 -5 0 -121 -153 -256 -340 -136 -187 -251 -340 -255 -340
-4 0 -116 150 -248 333 -133 184 -248 340 -257 347 -13 11 -15 -42 -15 -514
l0 -526 -150 0 -150 0 0 800 0 801 147 -3 147 -3 257 -370z m1559 -425 l0
-800 -160 0 -160 0 0 800 0 800 160 0 160 0 0 -800z m2780 685 c0 -93 3 -115
14 -115 8 0 115 52 239 115 l224 115 131 0 132 0 0 -800 0 -800 -150 0 -150 0
0 625 c0 529 -2 625 -14 625 -8 0 -90 -36 -182 -79 -108 -50 -171 -75 -176
-68 -3 6 -19 57 -34 114 l-27 103 -439 0 -438 0 0 -185 0 -185 380 0 380 0 0
-135 0 -135 -380 0 -380 0 0 -200 0 -200 435 0 435 0 0 -140 0 -140 -590 0
-590 0 0 800 0 800 590 0 590 0 0 -115z m1328 93 c1 -13 3 -32 5 -42 1 -10 -5
-21 -13 -23 -13 -4 -13 -3 0 6 10 7 11 11 2 11 -8 0 -10 8 -6 25 3 14 2 25 -3
25 -5 0 -10 -24 -12 -52 -1 -29 -7 -55 -13 -59 -7 -4 -7 -9 1 -13 6 -4 11 -22
11 -40 0 -17 5 -37 12 -44 9 -9 9 -12 0 -12 -7 0 -12 -11 -12 -25 0 -14 5 -25
10 -25 7 0 7 -6 0 -20 -6 -11 -18 -20 -26 -20 -8 0 -12 -4 -9 -10 3 -5 3 -10
-2 -10 -13 0 -71 -130 -89 -199 -34 -136 -34 -362 1 -506 10 -38 32 -98 51
-132 18 -33 30 -64 26 -69 -4 -4 -2 -4 4 -1 6 4 23 -6 37 -22 l25 -28 -25 -28
c-20 -21 -23 -29 -12 -35 7 -5 17 -6 23 -3 6 4 6 -1 1 -13 -5 -10 -11 -55 -13
-99 -3 -68 -1 -81 15 -93 16 -12 14 -13 -17 -7 -47 10 -95 35 -156 82 -125 95
-204 231 -255 443 -19 79 -22 122 -22 260 0 178 16 279 68 415 62 166 202 317
338 365 29 10 52 19 52 19 0 1 2 -9 3 -21z m-9094 -1638 c-6 -6 -10 -3 -10 10
0 13 4 16 10 10 7 -7 7 -13 0 -20z m21 -20 c3 -5 1 -10 -4 -10 -6 0 -11 5 -11
10 0 6 2 10 4 10 3 0 8 -4 11 -10z m60 -102 c26 -46 58 -98 72 -116 13 -17 21
-37 18 -42 -4 -6 -2 -9 3 -8 5 2 43 -46 83 -107 41 -60 76 -112 79 -115 3 -3
17 -21 30 -40 135 -199 426 -545 660 -784 428 -438 869 -783 1385 -1086 173
-101 612 -319 797 -395 558 -228 1138 -383 1703 -454 344 -43 548 -54 910 -48
454 8 722 33 1129 108 88 16 174 29 190 29 46 0 626 192 851 282 523 208 1071
526 1500 868 561 448 1017 929 1419 1495 37 53 50 65 58 54 7 -10 8 -8 5 9 -5
19 -3 21 9 11 8 -6 14 -17 14 -25 0 -7 10 -22 21 -33 18 -17 20 -24 11 -49
-15 -43 -143 -236 -284 -427 -18 -25 -209 -259 -281 -345 -136 -162 -325 -358
-404 -417 -42 -31 -123 -100 -182 -153 -190 -172 -560 -453 -821 -625 -459
-301 -1122 -608 -1677 -776 -492 -148 -1025 -245 -1538 -280 -220 -15 -834 -6
-1050 15 -1196 117 -2327 541 -3290 1234 -460 331 -928 777 -1303 1240 -51 63
-89 119 -86 124 4 6 2 8 -4 4 -6 -3 -20 7 -32 24 -12 16 -16 30 -10 30 6 0 15
-10 20 -22 l9 -23 0 22 c1 24 -25 43 -49 35 -12 -4 -13 -2 -2 9 17 18 15 34
-2 19 -13 -10 -14 -7 -10 16 3 16 9 33 14 39 10 12 8 39 -3 43 -21 7 -29 2
-18 -12 14 -17 -3 -71 -20 -60 -8 4 -7 9 2 15 12 8 11 11 -1 19 -10 6 -11 10
-2 10 6 0 12 4 12 10 0 5 -8 7 -17 4 -14 -5 -15 -4 -4 4 8 6 10 15 6 22 -5 8
-4 11 2 7 15 -10 35 17 27 37 -4 11 -1 16 11 16 13 0 15 4 8 13 -6 6 -13 24
-17 40 -5 23 -3 27 16 27 19 0 20 2 6 13 -18 14 -41 97 -26 97 5 0 7 10 3 23
-6 22 -6 22 9 2 8 -11 20 -25 26 -32 5 -7 10 -15 10 -18 0 -7 135 -192 234
-320 467 -606 1090 -1168 1741 -1571 1106 -683 2421 -1026 3710 -965 132 7
301 18 375 26 203 23 381 47 376 53 -3 2 -83 -4 -178 -14 -246 -27 -974 -27
-1223 -1 -869 91 -1608 303 -2345 672 -978 489 -1806 1206 -2444 2115 -143
203 -287 446 -278 469 3 8 1 12 -4 8 -6 -3 -11 3 -11 14 -1 10 0 19 2 19 2 0
24 -37 50 -82z m10996 -255 c-12 -20 -14 -14 -5 12 4 9 9 14 11 11 3 -2 0 -13
-6 -23z m-26 0 c-15 -38 -23 -72 -17 -77 3 -3 0 -6 -7 -6 -9 0 -11 -8 -6 -27
4 -18 3 -24 -3 -18 -14 15 -21 100 -9 120 8 14 11 15 18 4 7 -11 9 -10 9 4 0
9 5 17 11 17 7 0 8 -7 4 -17z m-55 -59 c0 -8 -5 -12 -10 -9 -6 4 -8 11 -5 16
9 14 15 11 15 -7z m-10997 -9 c-3 -9 -8 -14 -10 -11 -3 3 -2 9 2 15 9 16 15
13 8 -4z m11060 -57 c-2 -44 -3 -46 -12 -23 -8 20 -3 55 8 55 3 0 5 -15 4 -32z
m-11065 -13 c-3 -3 -9 2 -12 12 -6 14 -5 15 5 6 7 -7 10 -15 7 -18z"/>
<path d="M5698 9795 c-3 -3 136 -295 309 -648 173 -353 335 -686 360 -740 41
-86 49 -98 67 -92 33 9 198 44 239 50 32 5 36 8 27 24 -5 11 -154 326 -330
702 -177 376 -324 687 -328 690 -9 9 -336 22 -344 14z"/>
<path d="M7563 9778 c-4 -7 -166 -326 -360 -708 -223 -438 -348 -697 -342
-701 6 -4 32 -9 58 -13 25 -3 79 -14 119 -23 44 -10 76 -13 81 -7 4 5 144 279
311 609 167 330 331 655 366 722 35 68 64 125 64 128 0 3 -65 5 -144 5 -105 0
-147 -3 -153 -12z"/>
<path d="M6700 8273 c-248 -25 -437 -111 -612 -281 -163 -158 -260 -356 -289
-589 -27 -226 39 -476 176 -668 63 -89 209 -222 298 -274 178 -101 310 -136
507 -135 177 0 276 24 437 104 278 138 460 375 523 680 47 226 5 482 -112 676
-169 281 -428 447 -753 484 -89 10 -107 10 -175 3z m278 -214 c130 -34 263
-115 359 -219 55 -59 77 -105 76 -158 -1 -52 -9 -63 -22 -31 -15 41 -148 176
-219 222 -127 84 -242 118 -397 118 -162 0 -284 -40 -421 -137 -65 -46 -144
-127 -177 -181 -28 -48 -38 -41 -31 25 7 68 33 110 116 187 192 178 455 242
716 174z m-150 -399 c11 -12 36 -58 56 -104 l38 -84 86 -13 c78 -13 87 -16 90
-37 2 -13 -2 -22 -10 -22 -8 0 -6 -5 5 -11 14 -8 16 -14 6 -25 -6 -8 -7 -14
-2 -14 5 0 9 -10 7 -22 -1 -13 -3 -28 -3 -34 -1 -6 -20 -32 -42 -58 -46 -52
-45 -43 -20 -214 6 -45 5 -57 -11 -78 -28 -35 -59 -30 -160 21 l-89 46 -91
-46 c-106 -53 -144 -56 -167 -14 -13 24 -13 38 2 130 l16 102 -42 50 c-40 49
-41 52 -42 124 0 41 4 78 10 83 5 4 44 13 86 20 l76 12 39 81 c53 110 68 127
109 127 22 0 41 -8 53 -20z m-650 -737 c98 -144 263 -257 442 -304 69 -18 253
-15 330 5 144 38 298 138 387 250 21 26 47 59 58 73 l20 24 2 -30 c1 -17 -2
-31 -8 -31 -6 0 -8 -4 -4 -9 3 -5 1 -12 -5 -16 -5 -3 -10 -12 -10 -18 0 -7 4
-6 10 3 5 8 12 11 15 8 10 -9 -50 -94 -105 -148 -85 -86 -206 -155 -337 -192
-101 -29 -285 -31 -383 -4 -113 30 -237 98 -319 172 -82 75 -137 154 -118 166
9 6 9 8 -1 8 -7 0 -10 5 -7 10 3 6 2 10 -4 10 -7 0 -7 8 -2 23 5 14 5 30 0 40
-22 38 3 13 39 -40z"/>
<path d="M6735 7484 c-22 -41 -46 -80 -52 -86 -7 -5 -50 -14 -95 -20 -46 -5
-89 -11 -96 -14 -7 -2 18 -34 62 -76 l74 -73 -15 -88 c-8 -49 -12 -91 -9 -94
3 -4 43 13 89 37 l82 43 82 -42 c46 -22 86 -41 91 -41 4 0 1 44 -7 97 l-15 96
72 66 c40 37 72 69 72 72 0 4 -37 10 -82 14 -117 10 -122 13 -168 105 -22 44
-41 80 -43 80 -1 0 -20 -34 -42 -76z"/>
<path d="M3241 4884 c0 -11 3 -14 6 -6 3 7 2 16 -1 19 -3 4 -6 -2 -5 -13z"/>
<path d="M10265 5260 c3 -5 8 -10 11 -10 2 0 4 5 4 10 0 6 -5 10 -11 10 -5 0
-7 -4 -4 -10z"/>
<path d="M10278 4014 c-4 -3 -4 -12 -1 -20 3 -10 0 -12 -10 -8 -8 3 -18 1 -21
-4 -5 -9 41 -8 51 1 3 3 1 13 -4 22 -5 8 -12 13 -15 9z"/>
<path d="M1280 3531 c0 -6 4 -13 10 -16 6 -3 7 1 4 9 -7 18 -14 21 -14 7z"/>
<path d="M12215 3050 c-3 -5 -2 -10 4 -10 5 0 13 5 16 10 3 6 2 10 -4 10 -5 0
-13 -4 -16 -10z"/>
<path d="M12201 3014 c0 -11 3 -14 6 -6 3 7 2 16 -1 19 -3 4 -6 -2 -5 -13z"/>
<path d="M7888 343 c7 -3 16 -2 19 1 4 3 -2 6 -13 5 -11 0 -14 -3 -6 -6z"/>
<path d="M7763 323 c9 -2 23 -2 30 0 6 3 -1 5 -18 5 -16 0 -22 -2 -12 -5z"/>
<path d="M6493 13413 c9 -2 25 -2 35 0 9 3 1 5 -18 5 -19 0 -27 -2 -17 -5z"/>
<path d="M12215 10920 c3 -5 8 -10 11 -10 2 0 4 5 4 10 0 6 -5 10 -11 10 -5 0
-7 -4 -4 -10z"/>
</g>
</svg>
