<svg width="256" height="256" viewBox="0 0 256 256" fill="none" xmlns="http://www.w3.org/2000/svg">
<circle cx="128" cy="128" r="128" fill="#2F3130"/>
<path d="M184.338 67.8871C184.6 64.7736 182.042 62.2324 178.918 62.2324H123.757C120.633 62.2324 118.1 64.7654 118.1 67.8899V120.221C118.1 123.346 115.567 125.879 112.443 125.879H66.0932C61.0385 125.879 58.5209 132.003 62.114 135.558L117.861 190.718C118.92 191.766 120.35 192.354 121.84 192.354H171.019C176.045 192.354 178.576 186.29 175.041 182.718L121.52 128.621C154.763 126.936 181.563 100.831 184.338 67.8871Z" fill="#2F3130"/>
<path d="M77 58C77 56.3431 78.3431 55 80 55H99C100.657 55 102 56.3431 102 58V90C102 93.866 105.134 97 109 97H147C150.866 97 154 93.866 154 90V58C154 56.3431 155.343 55 157 55H176C177.657 55 179 56.3431 179 58V197C179 198.657 177.657 200 176 200H157C155.343 200 154 198.657 154 197V132C154 128.134 150.866 125 147 125H109C105.134 125 102 128.134 102 132V197C102 198.657 100.657 200 99 200H80C78.3431 200 77 198.657 77 197V58Z" fill="white"/>
</svg>
