<?xml version="1.0" standalone="no"?>
<!DOCTYPE svg PUBLIC "-//W3C//DTD SVG 20010904//EN"
 "http://www.w3.org/TR/2001/REC-SVG-20010904/DTD/svg10.dtd">
<svg version="1.0" xmlns="http://www.w3.org/2000/svg"
 width="256.000000pt" height="256.000000pt" viewBox="0 0 256.000000 256.000000"
 preserveAspectRatio="xMidYMid meet">
<metadata>
Created by potrace 1.16, written by Peter Selinger 2001-2019
</metadata>
<g transform="translate(0.000000,256.000000) scale(0.012190,-0.012190)"
fill="#000000" stroke="none">
<path d="M10191 19442 c-13 -2 -37 -12 -55 -23 -38 -23 -77 -24 -118 -3 -39
20 -159 14 -206 -10 -37 -19 -74 -20 -118 -4 -28 10 -36 9 -52 -5 -29 -27
-121 -40 -191 -27 -64 11 -99 3 -134 -32 -25 -26 -108 -25 -131 1 -17 19 -19
19 -58 -19 -52 -51 -74 -58 -102 -31 -34 32 -80 28 -106 -9 -12 -16 -28 -30
-35 -30 -8 0 -49 -16 -91 -35 -75 -34 -80 -35 -131 -25 -52 11 -56 10 -102
-19 -37 -24 -57 -30 -93 -29 -36 2 -55 -4 -86 -26 -36 -24 -48 -27 -101 -24
-53 3 -63 0 -88 -23 -24 -22 -41 -27 -107 -33 -63 -5 -84 -11 -108 -31 -23
-20 -41 -25 -82 -25 -54 0 -116 -16 -116 -29 0 -16 -53 -31 -108 -31 -48 0
-59 -4 -77 -25 -14 -18 -36 -28 -75 -35 -30 -6 -67 -19 -82 -30 -17 -13 -43
-20 -71 -20 -29 0 -49 -6 -58 -17 -8 -9 -33 -24 -55 -35 -23 -10 -47 -25 -54
-33 -7 -9 -29 -15 -50 -15 -26 0 -48 -8 -67 -24 -15 -13 -49 -26 -75 -30 -31
-5 -56 -16 -77 -36 -27 -26 -38 -30 -90 -30 -51 0 -61 -3 -75 -25 -10 -15 -30
-27 -53 -31 -36 -7 -123 -58 -123 -73 0 -12 -46 -28 -100 -37 -28 -4 -50 -15
-62 -29 -10 -13 -31 -26 -47 -30 -16 -3 -36 -14 -46 -25 -9 -10 -36 -21 -61
-25 -28 -4 -48 -13 -54 -25 -13 -24 -83 -44 -127 -37 -29 5 -34 3 -39 -19 -7
-26 -67 -84 -88 -84 -7 0 -23 -11 -35 -24 -12 -13 -38 -26 -58 -29 -26 -5 -50
-20 -84 -56 -33 -34 -58 -52 -83 -56 -25 -5 -49 -22 -84 -61 -42 -45 -55 -54
-84 -54 -30 0 -39 -6 -66 -48 -25 -39 -46 -56 -106 -87 -61 -31 -78 -45 -86
-71 -14 -42 -37 -60 -84 -67 -47 -7 -73 -29 -81 -68 -4 -18 -17 -35 -34 -44
-15 -7 -33 -20 -40 -29 -7 -8 -29 -17 -51 -21 -35 -6 -39 -10 -49 -49 -8 -33
-18 -46 -50 -64 -32 -18 -44 -20 -66 -12 -35 13 -45 6 -45 -36 0 -19 -7 -48
-15 -63 -19 -38 -86 -90 -130 -102 -43 -12 -65 -34 -65 -65 0 -13 -8 -31 -17
-39 -58 -51 -83 -65 -116 -65 -38 0 -47 -12 -47 -64 0 -22 -10 -46 -30 -71
-45 -56 -63 -67 -95 -55 -23 9 -27 7 -35 -16 -6 -14 -10 -42 -10 -63 0 -30 -7
-44 -37 -72 -21 -19 -56 -39 -78 -44 -39 -11 -40 -12 -45 -64 -8 -71 -49 -111
-114 -111 l-43 0 -6 -66 c-8 -81 -25 -104 -79 -104 -37 0 -38 -1 -38 -38 0
-45 -51 -122 -80 -122 -27 0 -50 -27 -50 -61 0 -16 -4 -29 -8 -29 -5 0 -16
-16 -25 -36 -11 -22 -29 -40 -51 -49 -19 -8 -37 -19 -40 -24 -4 -5 -20 -12
-36 -16 -38 -8 -43 -17 -30 -50 16 -42 -18 -108 -69 -134 -22 -12 -51 -21 -65
-21 -27 0 -39 -22 -36 -68 6 -85 1 -104 -40 -144 -36 -36 -44 -39 -82 -36
l-43 3 0 -86 c-1 -100 -15 -131 -68 -148 -39 -13 -53 -37 -61 -106 -4 -35 -14
-58 -34 -78 -23 -25 -33 -28 -70 -24 -38 4 -43 2 -49 -20 -3 -14 0 -56 6 -93
11 -58 10 -73 -4 -106 -19 -45 -30 -54 -71 -54 -40 0 -46 -14 -38 -98 5 -59 4
-70 -15 -94 -13 -16 -36 -30 -56 -34 -38 -7 -42 -18 -20 -48 19 -26 19 -80 0
-100 -8 -8 -19 -27 -25 -41 -9 -25 -14 -27 -56 -23 -39 3 -45 1 -50 -19 -7
-27 3 -61 27 -92 19 -24 19 -26 -15 -76 -28 -41 -35 -45 -78 -45 -35 0 -38 -2
-44 -36 -5 -28 -2 -42 15 -65 38 -51 38 -90 2 -131 -18 -20 -44 -38 -62 -42
-25 -5 -30 -9 -23 -23 5 -10 9 -48 9 -85 0 -55 -4 -71 -21 -88 l-20 -21 -26
21 c-14 11 -29 20 -32 20 -3 0 -6 -27 -6 -60 0 -46 4 -62 16 -67 26 -10 36
-50 20 -87 -13 -30 -27 -40 -89 -60 -25 -8 -13 -63 20 -94 23 -21 24 -25 10
-45 -8 -13 -28 -24 -47 -27 -46 -7 -60 -52 -29 -93 46 -63 25 -143 -46 -173
-42 -17 -46 -48 -15 -107 11 -20 20 -47 20 -60 0 -26 -28 -57 -52 -57 -27 0
-41 -27 -34 -67 18 -115 18 -120 1 -153 -10 -19 -26 -41 -38 -50 -14 -12 -18
-23 -13 -38 4 -12 12 -22 17 -22 12 0 12 -33 -1 -46 -22 -22 -49 -88 -41 -98
14 -17 24 -83 17 -111 -3 -13 -20 -40 -37 -60 -17 -19 -28 -39 -25 -44 4 -5
10 -31 15 -57 10 -53 -1 -90 -30 -99 -11 -4 -22 -18 -25 -32 -6 -21 -2 -30 20
-45 21 -16 26 -28 26 -64 0 -40 -4 -47 -31 -62 -27 -15 -30 -21 -25 -52 3 -19
15 -42 28 -52 29 -22 16 -48 -33 -64 -45 -15 -48 -43 -10 -85 23 -24 31 -43
31 -69 0 -38 -23 -80 -44 -80 -13 0 -26 -29 -26 -57 0 -7 9 -21 20 -31 26 -24
41 -77 31 -105 -5 -12 -21 -33 -35 -46 -33 -31 -33 -48 -1 -63 30 -14 37 -36
33 -109 -3 -53 -4 -54 -46 -74 -25 -12 -42 -26 -42 -37 0 -9 18 -38 40 -63 32
-36 40 -54 40 -84 0 -45 -28 -86 -65 -95 -33 -8 -32 -20 7 -68 36 -46 40 -91
10 -141 -18 -31 -18 -32 11 -87 41 -77 50 -196 18 -236 -31 -39 -27 -80 11
-115 l31 -30 -7 -115 c-6 -119 0 -152 38 -183 20 -17 21 -51 2 -76 -12 -16
-12 -22 1 -41 13 -20 12 -29 -3 -78 -17 -55 -17 -56 4 -79 26 -27 28 -55 7
-83 -25 -34 -18 -67 20 -92 38 -24 42 -37 21 -67 -22 -34 -27 -71 -11 -85 8
-7 24 -32 34 -56 18 -39 18 -47 5 -96 -18 -68 -18 -67 10 -80 34 -15 38 -30
19 -84 -15 -43 -15 -49 2 -78 10 -17 31 -43 46 -58 17 -15 29 -37 29 -51 0
-14 6 -30 14 -36 26 -22 29 -62 7 -92 -15 -20 -21 -43 -21 -83 l0 -54 42 -14
c46 -14 59 -33 76 -108 8 -32 7 -51 -2 -70 -16 -35 -9 -76 17 -93 13 -8 36
-34 52 -57 27 -39 30 -51 30 -121 1 -73 2 -78 32 -106 30 -28 31 -32 26 -90
l-5 -60 46 -27 c25 -14 50 -36 56 -46 17 -32 0 -130 -22 -130 -5 0 4 -12 21
-26 17 -14 31 -32 31 -39 0 -7 7 -15 15 -18 8 -4 21 -21 29 -39 9 -18 21 -41
28 -50 10 -15 9 -21 -10 -38 -22 -20 -22 -20 -2 -40 11 -11 20 -29 20 -40 0
-13 7 -20 19 -20 10 0 24 -7 31 -15 21 -26 50 -89 50 -111 0 -11 9 -29 20 -39
14 -13 20 -31 20 -62 0 -30 4 -43 14 -43 23 0 74 -67 82 -105 4 -25 15 -40 35
-51 33 -17 46 -56 32 -94 -9 -23 -6 -31 19 -58 15 -18 28 -39 28 -47 0 -8 9
-15 20 -15 28 0 70 -44 70 -73 0 -13 -7 -32 -15 -43 -22 -29 -19 -61 8 -68 27
-7 93 -69 102 -95 3 -11 -1 -34 -10 -51 -19 -38 -14 -47 40 -70 24 -11 46 -28
50 -39 3 -12 14 -21 24 -21 53 0 73 -87 28 -126 -15 -13 -27 -25 -27 -28 0 -2
18 -7 40 -11 27 -4 46 -15 56 -30 8 -13 35 -33 60 -44 55 -26 73 -59 56 -104
-11 -28 -10 -33 5 -42 9 -5 27 -20 39 -33 11 -12 32 -22 46 -22 45 0 62 -31
54 -99 l-7 -59 38 -16 c98 -42 132 -81 114 -129 -9 -23 -6 -28 26 -49 20 -13
49 -31 65 -41 29 -20 44 -54 35 -86 -3 -14 5 -22 33 -35 20 -9 48 -16 62 -16
54 0 81 -47 64 -110 -7 -27 -4 -30 67 -59 19 -7 34 -27 52 -68 33 -73 51 -93
87 -93 44 0 71 -34 66 -82 -4 -40 -2 -42 38 -60 24 -10 46 -27 49 -38 4 -13
15 -20 31 -20 30 0 74 -41 74 -69 0 -26 49 -71 77 -71 26 0 63 -32 63 -55 0
-8 8 -24 17 -34 10 -11 26 -31 36 -45 13 -19 27 -26 51 -26 38 0 76 -34 76
-68 0 -12 4 -22 8 -22 5 0 17 -8 28 -18 23 -21 82 -52 100 -52 45 0 90 -52 82
-95 -2 -12 15 -27 62 -51 35 -19 69 -34 75 -34 18 0 55 -44 55 -66 1 -24 66
-74 97 -74 37 0 60 -17 72 -52 11 -33 64 -78 93 -78 29 0 108 -51 114 -73 7
-28 66 -67 101 -67 76 0 123 -30 123 -78 0 -25 18 -32 89 -32 61 0 99 -22 103
-58 2 -32 4 -37 11 -48 3 -6 29 -14 56 -18 27 -3 54 -13 60 -20 6 -7 23 -14
37 -14 28 0 60 -25 69 -53 4 -11 11 -19 18 -19 6 0 21 -10 34 -22 15 -14 34
-21 52 -20 30 2 81 -31 81 -52 0 -43 95 -79 149 -56 41 16 85 -7 101 -55 18
-55 34 -65 104 -65 61 0 62 0 109 -50 25 -27 49 -45 52 -40 17 28 120 -10 149
-55 14 -21 22 -23 90 -22 66 2 78 -1 98 -21 13 -12 28 -37 34 -55 l11 -32 80
0 c89 0 111 -11 133 -66 11 -27 14 -28 33 -14 12 8 42 15 67 15 39 0 51 -6 90
-41 60 -55 76 -62 121 -55 41 7 102 -12 123 -38 7 -9 43 -16 101 -20 77 -6 93
-10 115 -31 23 -22 35 -25 93 -25 62 0 68 -2 79 -25 13 -28 25 -31 52 -10 32
24 81 19 105 -11 12 -15 21 -33 21 -40 0 -22 73 -18 87 5 6 10 26 21 43 24 61
13 112 -36 97 -93 -3 -11 -1 -22 3 -25 14 -9 62 14 82 40 37 48 128 18 128
-42 0 -12 8 -23 20 -26 11 -3 20 -1 20 4 0 5 14 16 32 25 37 19 135 15 152 -7
6 -8 24 -25 38 -38 26 -23 28 -23 52 -7 14 9 41 16 61 16 30 0 39 -5 56 -35
17 -28 28 -35 52 -36 49 -2 60 1 94 27 46 35 68 31 95 -16 27 -47 38 -49 82
-15 37 28 78 32 116 10 33 -19 62 -19 97 2 38 21 78 11 102 -27 l17 -29 47 24
c59 32 94 32 127 0 l27 -25 18 20 c29 32 63 25 105 -20 39 -42 50 -48 50 -27
0 19 40 53 72 61 21 5 32 0 53 -21 14 -15 25 -32 25 -37 0 -4 6 -3 14 3 24 20
102 39 120 29 16 -9 39 -4 119 25 23 8 32 6 52 -13 l25 -24 28 27 c19 18 39
27 60 27 34 0 72 -29 72 -55 0 -23 13 -18 45 15 38 40 83 39 103 -2 11 -24 17
-27 45 -21 18 3 46 19 62 34 36 34 63 37 96 10 21 -17 25 -17 46 -4 25 17 108
12 127 -7 18 -18 61 -11 71 12 13 29 68 43 106 27 16 -6 29 -15 29 -19 0 -15
63 15 77 37 13 19 24 22 81 22 37 0 76 -6 87 -13 11 -8 35 -17 52 -20 28 -6
34 -4 49 21 10 15 24 34 33 41 20 16 62 15 86 -2 22 -16 79 -2 109 28 24 24
100 16 132 -15 l23 -22 7 27 c7 31 55 73 92 83 14 3 37 2 51 -4 27 -10 63 0
94 26 20 16 79 8 97 -14 18 -22 49 -18 61 8 13 29 98 87 127 87 13 0 34 -11
48 -25 29 -29 52 -24 60 14 17 69 80 90 138 46 39 -30 62 -25 71 15 13 57 75
91 124 66 46 -24 74 -20 99 14 28 37 84 50 123 28 22 -13 31 -13 58 -2 17 7
31 20 31 28 0 22 56 64 102 77 34 9 48 8 75 -5 32 -15 33 -15 33 7 0 61 57 88
124 59 42 -19 43 -19 54 -1 7 10 12 27 12 38 0 10 8 29 19 42 24 29 81 31 111
4 21 -19 22 -19 40 5 10 13 21 37 24 52 3 17 17 33 37 43 29 15 35 15 73 1 56
-21 63 -20 81 12 58 103 75 115 142 103 36 -7 45 -5 63 14 11 12 20 29 20 38
0 33 38 59 84 56 60 -4 106 17 106 48 0 13 12 35 26 50 21 21 32 24 62 19 30
-4 40 -2 50 14 7 11 18 20 26 20 7 0 25 11 40 25 15 14 38 25 52 25 36 0 60
15 120 76 45 47 57 54 91 54 45 0 49 3 91 57 21 27 44 44 65 49 46 10 87 41
87 68 0 40 42 73 87 67 21 -3 101 27 143 54 30 19 40 32 40 51 0 37 15 60 49
73 21 9 35 10 50 2 17 -9 26 -6 54 18 18 16 45 33 60 36 24 6 27 12 27 50 0
51 25 77 74 79 26 1 42 10 70 40 20 22 36 49 36 61 0 22 24 61 50 83 9 8 32
11 63 8 45 -5 48 -4 61 27 7 18 24 38 37 45 13 7 34 31 47 53 16 28 32 41 53
46 23 4 28 10 23 22 -17 42 -15 60 9 85 28 28 74 34 96 14 10 -10 15 -10 18
-1 2 6 15 23 29 38 13 14 24 32 24 40 0 7 10 22 23 32 15 12 21 27 19 44 -2
17 6 37 21 55 23 26 30 28 84 26 58 -2 59 -2 71 31 7 19 9 47 6 64 -8 43 30
86 77 86 42 0 70 31 62 69 -8 41 14 85 49 97 17 6 35 8 40 5 5 -3 24 11 42 32
27 32 32 43 25 62 -11 29 12 78 41 87 11 4 37 5 57 3 34 -3 37 0 45 30 5 17
13 32 18 32 6 0 8 16 4 38 -4 29 -1 43 16 65 12 15 28 27 36 27 8 0 30 16 49
35 32 31 34 37 23 60 -16 36 11 92 49 101 54 12 60 14 90 44 27 27 30 35 23
61 -14 49 14 99 56 99 36 0 72 56 71 109 -1 36 3 46 23 60 13 9 45 37 70 64
25 26 55 47 65 47 15 0 16 3 7 12 -35 35 0 108 60 122 24 5 27 10 22 36 -5 23
-1 35 22 58 16 16 36 31 44 34 12 4 11 10 -4 43 -17 35 -17 40 -2 71 14 31 26
38 79 46 15 2 19 13 22 51 2 37 10 56 31 78 15 16 36 29 46 29 26 0 33 26 13
46 -10 11 -15 29 -13 53 2 28 10 40 35 56 18 11 32 25 33 32 0 6 16 24 35 40
33 26 35 30 25 59 -13 37 0 78 30 94 14 7 20 21 20 43 0 18 6 42 14 53 8 11
26 55 41 99 14 44 32 85 38 90 18 14 51 87 49 109 -2 33 26 73 59 85 31 11 32
12 25 61 -6 45 -4 53 19 76 14 13 25 33 25 44 0 30 21 69 40 75 13 4 20 21 25
60 6 55 24 85 51 85 19 0 18 7 -6 37 -11 14 -20 37 -20 50 0 26 40 73 63 73
23 0 34 41 29 103 -6 79 13 142 53 174 l33 26 -34 32 c-40 38 -43 64 -10 101
17 21 32 28 57 27 l34 -1 -2 77 c-1 42 -5 97 -9 122 -5 40 -3 50 15 68 11 11
32 21 46 21 30 0 32 20 10 73 -21 50 -19 71 10 105 32 38 31 48 -5 82 -19 17
-30 38 -30 54 0 29 40 76 65 76 8 0 15 6 15 13 0 8 7 28 16 46 15 31 15 34 -5
55 -35 37 -28 81 19 123 l39 36 -24 19 c-21 16 -25 28 -25 74 0 31 5 64 10 74
7 13 7 21 0 25 -24 15 -7 78 32 117 l20 20 -31 29 c-49 44 -41 105 16 138 15
8 14 15 -12 65 -32 62 -27 80 26 91 40 9 45 25 20 66 -27 43 -30 179 -6 199
14 12 14 15 0 30 -20 22 -14 123 9 149 24 27 20 70 -10 98 -25 23 -26 28 -22
114 3 80 6 93 26 109 30 25 28 35 -18 90 -34 40 -40 53 -34 77 8 32 41 73 61
73 17 0 17 3 -11 58 -13 26 -27 74 -30 107 -6 52 -3 71 24 143 16 45 30 84 30
86 0 3 -18 7 -40 11 -50 9 -60 26 -60 109 0 57 3 67 25 84 22 18 24 23 14 45
-9 19 -8 31 5 55 16 31 16 32 -14 47 -59 30 -78 130 -35 175 l25 26 -28 30
c-37 37 -48 59 -56 109 -7 44 -2 56 31 74 21 11 21 13 6 39 -9 15 -30 36 -47
47 -44 29 -49 84 -10 120 l28 26 -27 22 c-29 24 -49 74 -40 106 3 11 18 24 34
30 23 8 29 16 29 40 0 24 -5 32 -24 37 -37 9 -74 55 -86 107 -11 52 -6 70 29
99 34 29 27 56 -18 68 -49 13 -58 24 -74 96 -12 51 -11 62 2 85 15 26 14 28
-33 75 -72 73 -86 127 -41 162 23 18 34 60 19 74 -3 4 -18 3 -33 -2 -55 -15
-74 23 -72 142 1 69 -2 90 -14 94 -8 3 -31 26 -51 51 -35 43 -38 50 -41 125
-2 74 -5 82 -33 108 -16 15 -30 36 -30 45 0 10 -10 33 -21 52 -18 29 -20 40
-12 68 10 30 8 34 -19 50 -47 27 -62 71 -50 141 10 59 10 59 -21 89 -18 17
-44 38 -58 47 -20 13 -28 28 -33 65 -12 83 -34 139 -62 154 -15 7 -38 32 -53
54 -26 38 -27 42 -12 67 20 35 5 69 -48 102 -31 20 -43 35 -52 68 -15 59 -60
137 -82 144 -22 7 -37 43 -37 88 0 34 -32 86 -53 86 -20 0 -97 89 -90 105 3 9
2 35 -1 59 -7 42 -9 45 -47 51 -48 8 -69 27 -69 63 0 51 -11 69 -55 91 -46 23
-55 36 -55 81 0 35 -9 60 -22 60 -21 0 -77 32 -84 48 -4 9 -10 42 -13 72 l-6
55 -35 0 c-35 0 -54 25 -31 40 16 9 13 42 -5 70 -10 15 -29 27 -52 31 -62 11
-84 30 -77 67 6 28 2 34 -24 50 -26 15 -31 24 -31 56 0 46 -14 61 -57 61 -43
0 -64 32 -66 102 l-2 53 -40 0 c-44 1 -65 10 -65 28 0 7 -7 25 -15 40 -10 21
-12 34 -5 47 20 37 12 50 -29 50 -57 0 -111 52 -118 114 -5 43 -7 45 -49 55
-32 8 -48 19 -58 39 -8 16 -22 34 -30 41 -8 7 -21 39 -27 72 -13 65 -13 65
-105 60 -49 -3 -56 6 -64 69 -5 41 -8 45 -41 55 -57 16 -112 68 -124 117 -7
30 -16 44 -30 46 -11 2 -29 12 -40 22 -11 10 -34 25 -51 33 -41 21 -47 40 -23
71 l20 25 -29 15 c-16 8 -34 22 -41 30 -9 10 -30 16 -56 16 -62 0 -73 7 -86
54 -12 46 -23 56 -59 56 -27 0 -66 22 -120 69 l-35 30 17 31 c17 31 17 31 -10
41 -15 6 -41 8 -59 4 -28 -5 -38 0 -73 33 -22 21 -44 51 -49 68 -5 18 -14 27
-22 25 -51 -15 -65 -11 -106 25 -38 33 -43 42 -43 81 l0 43 -76 0 c-70 0 -78
2 -105 29 -16 16 -29 38 -29 49 0 33 -25 45 -81 40 -46 -5 -53 -2 -99 34 -42
34 -50 45 -50 74 0 26 -4 34 -18 34 -10 0 -23 -5 -30 -12 -8 -8 -22 -7 -57 6
-41 16 -47 22 -57 62 -15 54 -42 66 -93 38 -33 -17 -35 -17 -54 1 -12 10 -21
26 -21 36 0 24 -71 96 -103 104 -14 4 -35 2 -46 -5 -13 -6 -36 -8 -57 -4 -39
7 -110 65 -124 101 -7 18 -20 22 -77 28 -73 8 -135 36 -189 87 -28 26 -37 29
-89 27 -52 -2 -59 0 -77 24 -17 23 -27 27 -71 27 -33 0 -63 7 -82 19 -17 10
-47 23 -68 30 -20 7 -46 26 -58 42 -11 16 -25 26 -31 23 -20 -12 -90 -5 -108
11 -10 9 -24 31 -31 48 -7 18 -14 34 -15 36 -2 2 -15 -6 -30 -18 -43 -34 -76
-28 -128 26 l-45 48 -97 1 c-95 1 -97 1 -123 31 -40 47 -63 56 -100 37 -23
-11 -45 -14 -81 -9 -60 8 -76 20 -87 64 -12 48 -31 57 -92 45 -29 -6 -77 -7
-113 -3 -52 6 -66 12 -85 35 l-22 28 -23 -21 c-13 -11 -38 -24 -56 -28 -29 -6
-37 -3 -70 33 -20 22 -43 47 -50 56 -18 23 -81 21 -107 -4 -11 -11 -35 -22
-51 -26 -31 -6 -45 2 -111 64 -29 27 -33 27 -78 1 -27 -16 -46 -20 -76 -16
-48 6 -68 21 -86 65 -16 38 -54 44 -88 12 -23 -22 -99 -36 -139 -26 -14 3 -32
19 -40 35 -15 28 -17 28 -62 20 -26 -5 -52 -13 -58 -18 -38 -29 -128 -4 -160
44 -21 33 -56 32 -85 -1 -21 -24 -28 -26 -91 -22 -50 3 -74 9 -90 23 -21 19
-22 19 -83 0 -34 -10 -99 -20 -144 -22 -78 -4 -84 -3 -106 21 -29 31 -79 35
-99 8 -23 -32 -35 -33 -67 -6 l-31 26 -34 -21 c-45 -28 -80 -27 -100 4 -20 30
-35 31 -121 4 -77 -24 -120 -20 -157 14 -14 13 -33 21 -47 19z m-41 -597 c12
-14 138 -9 155 6 15 15 69 10 94 -8 15 -10 51 -18 95 -20 62 -4 77 -2 119 21
61 33 84 33 120 -1 25 -25 36 -28 97 -28 57 0 72 4 92 23 37 34 91 30 120 -8
20 -28 26 -30 85 -30 45 0 63 4 63 13 0 7 9 23 21 36 33 35 87 26 117 -19 29
-44 71 -61 87 -35 36 63 80 71 127 25 24 -24 38 -30 73 -30 24 0 47 5 50 10 3
6 19 10 36 10 28 0 53 -18 74 -54 6 -10 27 -20 51 -23 35 -4 44 -1 71 26 48
47 74 42 144 -29 32 -33 63 -60 68 -60 5 0 11 10 15 23 6 26 43 47 82 47 22 0
65 -31 75 -56 2 -5 17 -16 33 -26 29 -16 30 -15 57 13 42 45 95 36 124 -21 18
-34 29 -36 73 -14 41 20 80 3 104 -46 18 -34 19 -35 70 -32 29 2 68 10 86 18
45 21 75 11 109 -35 25 -35 33 -39 82 -44 39 -4 60 -2 75 9 11 8 31 14 44 14
28 0 72 -42 72 -68 0 -10 8 -27 19 -36 18 -16 21 -16 52 3 19 12 41 21 50 21
25 0 69 -39 69 -61 0 -27 43 -41 104 -34 46 6 53 4 76 -20 38 -42 65 -48 119
-29 41 15 50 15 76 3 26 -13 35 -28 51 -86 2 -9 23 -13 59 -13 56 0 95 -22 95
-54 0 -7 11 -21 24 -29 21 -14 26 -14 36 -2 7 8 28 15 46 15 41 0 67 -26 74
-73 5 -32 5 -32 57 -29 42 3 56 -1 72 -17 12 -12 21 -29 21 -38 1 -10 15 -25
35 -34 32 -15 35 -15 54 4 46 46 121 13 121 -53 0 -35 3 -38 43 -53 23 -9 53
-16 67 -15 94 6 150 -22 150 -75 0 -32 43 -61 77 -52 49 12 103 -30 103 -79 0
-8 7 -19 15 -26 12 -10 22 -9 49 4 56 27 106 -4 106 -64 0 -29 6 -41 26 -55
24 -16 27 -16 45 1 11 10 36 18 56 18 43 0 69 -28 79 -82 4 -20 11 -45 16 -54
9 -19 53 -24 63 -8 8 13 61 13 84 0 24 -12 45 -64 37 -93 -4 -19 0 -25 27 -35
19 -7 47 -12 64 -12 33 0 73 -37 73 -69 0 -9 9 -26 18 -39 16 -21 20 -22 31
-8 21 25 74 20 101 -9 20 -21 22 -31 17 -75 -6 -50 -5 -52 25 -64 25 -11 35
-11 57 0 53 28 101 -8 101 -76 0 -65 24 -87 74 -69 62 22 116 -24 100 -86 -7
-27 20 -49 73 -60 21 -4 44 -22 67 -50 22 -27 48 -46 66 -50 34 -8 60 -39 60
-73 0 -28 22 -52 46 -52 30 0 64 -40 64 -77 0 -21 5 -33 14 -33 7 0 30 -13 51
-30 25 -20 49 -30 72 -30 60 0 100 -60 73 -110 -8 -15 -5 -24 16 -45 24 -24
26 -31 20 -76 -6 -46 3 -65 19 -39 11 17 64 11 85 -10 20 -20 24 -35 20 -78
-2 -24 34 -61 60 -62 26 0 80 -62 80 -91 0 -19 6 -30 20 -34 11 -3 25 -15 30
-26 6 -10 17 -19 25 -19 8 0 24 -13 37 -30 12 -16 30 -30 40 -30 26 0 68 -45
68 -72 0 -13 -7 -34 -16 -46 -14 -21 -14 -25 12 -66 26 -42 29 -43 69 -38 37
4 45 1 63 -23 27 -34 27 -49 2 -90 -26 -42 -17 -65 24 -65 19 0 42 -9 55 -22
21 -19 23 -27 17 -74 -5 -46 -3 -58 21 -98 22 -36 34 -45 56 -46 15 0 37 -10
48 -21 17 -17 20 -29 16 -62 -7 -50 17 -97 48 -97 54 0 91 -69 62 -113 -13
-20 -13 -26 -1 -50 9 -16 23 -27 35 -27 28 0 79 -53 79 -82 0 -13 -7 -34 -16
-46 -18 -27 -11 -42 20 -42 13 0 34 -8 47 -19 25 -20 30 -66 15 -128 -8 -31
-7 -33 16 -33 40 0 78 -36 78 -74 0 -17 -5 -37 -11 -43 -18 -18 -1 -53 25 -53
41 0 76 -37 76 -79 0 -20 -4 -41 -10 -47 -17 -17 0 -52 30 -58 37 -7 61 -44
68 -102 4 -37 1 -49 -18 -69 -26 -27 -25 -28 39 -30 76 -2 109 -76 56 -125
-17 -16 -25 -33 -23 -50 2 -20 10 -26 42 -31 22 -4 45 -15 53 -25 19 -26 16
-75 -7 -104 -29 -37 -25 -64 9 -77 16 -6 37 -22 46 -37 16 -24 16 -29 1 -77
-20 -61 -16 -79 21 -79 54 0 89 -61 63 -109 -13 -25 9 -81 31 -81 22 0 79 -65
79 -90 0 -10 -11 -31 -24 -46 l-23 -28 25 -21 c19 -16 25 -30 23 -53 -3 -35
-2 -88 2 -156 2 -42 4 -45 34 -51 58 -11 84 -83 43 -120 -26 -24 -27 -65 -1
-65 22 0 61 -44 61 -70 0 -23 -38 -70 -56 -70 -16 0 -16 -2 -8 -24 3 -9 18
-16 33 -16 81 -1 101 -105 26 -145 -25 -14 -31 -22 -25 -34 5 -9 12 -33 15
-53 4 -28 11 -38 24 -38 21 0 46 -26 55 -57 8 -24 -8 -61 -32 -79 -25 -18 -8
-98 24 -112 28 -13 47 -55 38 -84 -3 -10 -17 -29 -30 -41 -27 -25 -25 -52 5
-62 18 -5 41 -45 41 -70 0 -7 -11 -27 -26 -44 -21 -25 -25 -38 -22 -83 2 -44
6 -53 23 -56 76 -14 94 -119 25 -145 -28 -10 -30 -15 -30 -60 0 -40 5 -52 27
-71 34 -29 35 -76 4 -110 -20 -21 -22 -31 -16 -67 4 -24 16 -55 26 -69 10 -14
22 -51 25 -82 7 -63 -2 -83 -43 -99 -21 -8 -22 -12 -16 -74 5 -55 11 -71 35
-95 37 -37 37 -74 -1 -109 -40 -37 -47 -115 -13 -148 34 -35 30 -85 -10 -116
-28 -22 -32 -32 -36 -86 -4 -56 -2 -62 23 -84 18 -15 27 -33 27 -51 0 -32 -29
-77 -60 -91 -35 -16 -33 -94 4 -138 44 -52 28 -109 -36 -128 l-40 -12 0 -70
c0 -54 4 -74 20 -94 11 -14 20 -36 20 -48 0 -26 -36 -75 -55 -75 -22 0 -31
-84 -11 -112 24 -34 20 -85 -9 -113 -13 -14 -28 -25 -34 -25 -5 0 -15 -25 -21
-57 -11 -53 -11 -57 9 -72 61 -47 31 -141 -45 -141 -11 0 -13 -6 -8 -22 4 -13
8 -34 9 -48 1 -14 10 -38 20 -53 13 -20 16 -39 12 -73 -6 -58 -28 -82 -81 -86
-41 -3 -41 -3 -44 -45 -2 -24 4 -55 12 -72 22 -41 20 -58 -9 -86 -16 -17 -35
-25 -60 -25 -29 0 -37 -5 -45 -26 -13 -34 -13 -44 4 -44 7 0 25 -9 40 -21 58
-45 13 -144 -63 -137 -34 3 -36 1 -39 -31 -2 -22 4 -49 18 -73 31 -55 18 -83
-56 -128 -66 -41 -75 -59 -45 -89 31 -31 28 -84 -5 -110 -15 -12 -40 -21 -55
-21 -25 0 -29 -4 -29 -28 0 -16 -6 -37 -14 -47 -12 -17 -12 -22 5 -44 10 -13
19 -30 19 -37 0 -31 -25 -64 -59 -78 -50 -19 -69 -42 -53 -64 21 -30 33 -64
27 -81 -10 -33 -72 -91 -96 -91 -20 0 -28 -10 -44 -53 -15 -39 -18 -59 -11
-79 12 -34 -12 -73 -58 -92 -18 -7 -43 -30 -55 -50 -21 -33 -21 -37 -7 -52 9
-8 16 -31 16 -49 0 -38 -37 -75 -76 -75 -13 0 -28 -9 -35 -21 -9 -17 -7 -25
10 -43 46 -49 10 -118 -67 -131 -39 -6 -43 -10 -72 -72 -27 -58 -29 -68 -19
-97 17 -46 1 -87 -39 -105 -27 -12 -32 -20 -32 -48 0 -37 -29 -73 -59 -73 -25
0 -61 -50 -61 -86 0 -29 -34 -74 -56 -74 -7 0 -33 -24 -58 -54 -46 -53 -46
-54 -40 -108 6 -52 5 -56 -22 -77 -19 -15 -38 -21 -57 -18 -24 3 -33 -3 -57
-37 -25 -37 -26 -44 -14 -61 19 -26 18 -48 -7 -79 -16 -20 -29 -26 -59 -26
-29 0 -40 -5 -45 -19 -7 -22 -76 -86 -126 -117 -34 -20 -35 -25 -24 -74 5 -18
0 -34 -16 -54 -20 -26 -26 -28 -69 -23 -40 5 -51 2 -68 -16 -11 -12 -22 -31
-24 -42 -1 -11 -17 -27 -33 -35 -56 -29 -57 -29 -40 -53 22 -31 18 -64 -10
-92 -27 -28 -61 -32 -92 -10 -20 14 -25 12 -71 -25 -49 -38 -50 -40 -39 -69
24 -65 -28 -118 -93 -94 -27 10 -32 7 -93 -48 -62 -57 -65 -61 -54 -89 23 -60
-33 -112 -96 -91 -16 6 -34 8 -41 4 -41 -24 -111 -93 -123 -121 -8 -19 -23
-36 -34 -39 -12 -3 -19 -14 -19 -29 0 -38 -35 -66 -80 -63 -34 3 -44 -2 -88
-46 -27 -28 -65 -62 -84 -77 -30 -23 -34 -31 -30 -62 3 -28 -1 -40 -23 -61
-25 -26 -44 -29 -85 -11 -10 4 -35 -6 -63 -25 -40 -26 -47 -36 -47 -63 0 -49
-38 -80 -88 -72 -33 5 -45 2 -74 -22 -19 -15 -67 -45 -106 -67 -69 -39 -72
-41 -72 -77 0 -65 -65 -101 -115 -64 -16 12 -28 8 -97 -27 -70 -37 -78 -44
-78 -69 0 -35 -40 -78 -72 -78 -13 0 -33 7 -45 15 -20 14 -27 13 -86 -16 -51
-25 -65 -38 -73 -63 -12 -41 -53 -64 -91 -50 -23 8 -38 5 -85 -16 -32 -14 -57
-30 -58 -36 0 -6 -9 -23 -21 -38 -22 -28 -64 -35 -99 -16 -30 16 -46 3 -42
-34 8 -69 -73 -102 -124 -51 -33 33 -50 32 -62 -4 -13 -36 -44 -54 -83 -49
-24 4 -29 1 -29 -17 0 -61 -86 -87 -131 -39 -22 23 -24 24 -36 8 -7 -10 -13
-28 -13 -40 0 -26 -33 -70 -58 -76 -31 -9 -81 18 -88 46 -3 14 -7 26 -9 26 -2
0 -19 -16 -38 -35 -27 -27 -43 -35 -70 -35 -27 0 -37 -5 -42 -20 -10 -30 -50
-53 -85 -48 -19 3 -30 0 -30 -7 0 -7 -9 -24 -21 -39 -26 -33 -81 -36 -106 -6
-22 26 -44 25 -66 -1 -16 -18 -25 -20 -67 -14 -41 6 -54 3 -79 -14 -31 -23
-90 -28 -122 -11 -17 10 -19 7 -19 -20 0 -62 -79 -94 -125 -50 -18 17 -25 18
-47 8 -16 -8 -29 -24 -32 -40 -12 -63 -100 -74 -135 -18 -17 29 -33 28 -44 -2
-3 -9 -18 -25 -32 -34 -23 -15 -32 -16 -58 -6 -28 11 -34 9 -57 -13 -33 -32
-74 -32 -103 -1 -30 32 -67 20 -67 -22 0 -16 -9 -37 -20 -47 -42 -38 -120 -11
-120 42 0 32 -17 29 -53 -12 -37 -42 -84 -48 -118 -14 -13 13 -27 18 -40 14
-11 -4 -30 0 -43 9 -23 14 -24 14 -30 -15 -8 -43 -63 -66 -106 -44 -24 12 -35
13 -51 4 -12 -6 -37 -9 -57 -6 -26 5 -38 2 -51 -13 -28 -33 -64 -35 -99 -5
-21 18 -38 24 -54 20 -16 -4 -34 2 -58 20 l-35 26 -8 -30 c-8 -34 -50 -71 -79
-71 -29 0 -58 19 -67 43 -7 18 -15 21 -51 18 -33 -2 -48 -10 -67 -32 -16 -19
-34 -29 -52 -29 -31 0 -71 25 -71 45 0 8 -11 22 -24 30 -22 15 -26 14 -65 -11
-22 -15 -41 -31 -41 -36 0 -18 -42 -48 -68 -48 -29 0 -63 29 -75 62 -8 24 -75
12 -104 -19 -37 -39 -123 -22 -123 24 0 17 -10 16 -34 -2 -11 -8 -32 -15 -48
-15 -27 0 -68 30 -68 50 0 19 -49 11 -60 -10 -28 -53 -101 -49 -127 6 -21 43
-64 47 -99 9 -34 -37 -86 -35 -115 5 -31 41 -100 52 -133 21 -32 -30 -78 -27
-115 6 -48 44 -88 73 -101 73 -7 0 -21 -11 -32 -25 -35 -45 -128 -22 -128 31
0 12 -5 14 -17 9 -48 -20 -61 -17 -77 14 -22 42 -64 43 -94 1 -36 -49 -93 -39
-129 22 -12 21 -34 38 -57 46 -35 13 -39 12 -60 -7 -12 -12 -35 -21 -51 -21
-33 0 -75 35 -75 63 0 17 -5 19 -53 13 -48 -6 -57 -4 -97 23 -46 32 -70 39
-70 21 0 -19 -40 -50 -64 -50 -13 0 -36 10 -50 21 -24 19 -27 28 -24 68 l3 46
-46 -1 c-29 0 -64 -9 -91 -24 -40 -21 -47 -22 -74 -9 -18 9 -33 27 -40 48 -17
51 -79 67 -142 35 -27 -13 -36 -13 -59 -2 -38 18 -56 58 -43 93 9 24 7 27 -25
41 -46 19 -48 19 -73 -16 -44 -59 -141 -23 -130 49 4 29 4 29 -49 33 -31 2
-60 -2 -70 -10 -45 -33 -113 2 -113 58 0 25 -6 33 -37 46 -21 10 -58 17 -82
18 -40 1 -47 5 -75 44 -38 54 -83 76 -111 56 -43 -32 -102 -3 -113 55 -7 31
-13 36 -67 53 -33 11 -82 21 -110 23 -67 3 -79 10 -98 50 -12 26 -23 35 -41
35 -39 0 -75 21 -84 49 -8 23 -13 25 -51 22 -51 -3 -68 9 -82 63 -6 22 -18 49
-26 58 -14 16 -19 16 -50 3 -54 -23 -88 -19 -112 11 -12 15 -21 34 -21 44 0
10 -9 29 -21 44 -19 25 -22 25 -49 11 -38 -20 -52 -19 -84 6 -20 16 -26 29
-26 59 0 41 -16 62 -31 39 -6 -10 -12 -4 -23 21 -19 47 -23 49 -55 37 -45 -17
-76 -2 -113 54 -33 51 -91 91 -135 93 -30 2 -72 43 -95 94 -19 41 -20 42 -69
42 -63 0 -99 31 -99 84 0 31 -5 38 -42 60 -24 13 -58 27 -75 31 -38 8 -63 38
-63 77 0 17 -6 29 -18 32 -11 4 -25 17 -32 30 -13 25 -37 36 -79 36 -30 0 -71
37 -71 64 0 11 -9 30 -21 42 -16 17 -28 21 -63 17 -35 -4 -48 -1 -65 16 -24
24 -27 68 -6 97 16 24 11 34 -18 34 -11 0 -37 16 -58 35 -22 19 -47 35 -57 35
-29 0 -60 41 -64 85 -3 37 -7 41 -58 67 -30 15 -61 28 -67 28 -20 0 -46 48
-41 75 3 14 0 26 -8 29 -6 2 -15 18 -19 35 -8 36 -30 51 -77 51 -19 0 -43 7
-55 15 -25 18 -38 66 -24 92 10 19 -18 53 -110 136 -25 22 -29 32 -24 56 5 25
3 29 -24 34 -22 5 -32 14 -37 32 -5 18 -15 28 -36 32 -33 7 -58 37 -58 72 0
13 -6 32 -14 40 -8 9 -18 32 -23 51 -7 26 -20 41 -54 60 -48 29 -69 59 -69
103 0 16 -12 44 -26 63 -22 28 -33 34 -65 34 -63 0 -88 59 -52 122 17 29 17
31 0 42 -11 6 -41 31 -67 56 -48 44 -49 47 -52 109 -3 60 -5 66 -33 81 -16 9
-38 33 -48 53 -10 20 -24 37 -30 37 -6 0 -21 10 -34 22 -24 22 -32 81 -13 93
5 3 6 13 3 23 -11 29 -66 92 -80 92 -22 0 -53 38 -53 65 0 14 6 34 12 45 19
29 -1 54 -44 58 -60 5 -76 34 -65 122 4 40 -7 60 -34 60 -11 0 -29 10 -40 21
-18 18 -20 29 -15 65 3 24 2 44 -4 44 -5 0 -11 9 -15 19 -3 11 -19 36 -36 57
-24 30 -29 45 -25 68 5 22 1 35 -15 52 -18 19 -21 31 -16 70 5 49 0 57 -56 97
-30 20 -46 94 -29 131 13 29 -2 56 -32 56 -60 0 -95 68 -61 117 13 19 13 24
-2 50 -9 16 -29 37 -44 46 -38 21 -45 56 -22 103 20 40 22 74 8 132 -6 26 -12
32 -33 32 -62 0 -88 90 -36 127 22 17 25 24 19 51 -4 21 -17 37 -35 47 -33 17
-44 44 -35 85 6 26 3 31 -28 44 -53 22 -72 72 -45 116 10 15 9 27 -2 57 -7 21
-13 53 -11 71 1 26 -6 40 -34 66 -44 42 -48 90 -10 126 l25 23 -26 24 c-21 20
-25 31 -22 63 3 35 1 40 -17 40 -27 0 -64 27 -74 54 -11 27 6 74 30 87 26 13
24 57 -3 86 -26 28 -28 76 -3 103 17 19 17 21 2 38 -23 25 -21 71 4 98 l21 22
-21 21 c-24 24 -27 69 -7 96 9 12 11 27 6 40 -4 11 -4 29 1 40 15 38 10 61
-16 73 -55 25 -57 100 -5 130 42 24 41 76 -2 159 -31 62 -32 63 -15 98 9 19
23 35 32 35 22 0 19 49 -5 85 -27 40 -25 71 5 107 32 37 32 72 0 113 -20 28
-22 35 -11 50 11 15 11 23 -1 45 -14 28 -6 71 16 84 6 4 6 19 0 42 -8 28 -7
41 5 59 17 26 10 67 -18 107 -24 34 -19 65 14 100 19 20 30 41 30 61 0 16 11
42 25 59 23 27 24 31 10 51 -18 26 -19 60 -4 86 8 12 9 23 2 35 -7 13 -5 31 5
60 15 41 15 44 -6 71 -41 52 -17 135 38 135 18 0 20 7 20 71 0 61 -3 75 -25
101 -25 30 -32 71 -16 97 5 8 24 22 42 30 27 13 36 26 47 65 13 44 12 55 -4
102 -21 63 -13 102 26 121 39 19 54 110 25 143 -8 9 -17 30 -21 46 -7 37 25
81 64 86 23 2 28 8 30 36 2 18 -3 43 -10 55 -17 26 -8 97 14 111 12 7 12 16 4
47 -9 35 -8 41 16 66 45 49 52 70 34 114 -23 56 -20 76 14 111 32 32 54 99 52
156 -2 37 22 102 37 102 6 0 11 13 11 29 0 17 11 43 27 62 25 29 27 39 25 98
-3 73 12 100 60 105 43 4 48 13 46 96 -1 94 13 134 53 150 28 12 29 15 23 60
-4 30 -2 50 5 54 6 4 11 19 11 33 0 31 26 63 50 63 13 0 19 12 23 50 8 68 21
87 67 101 45 14 44 13 29 40 -11 21 11 98 38 130 7 8 13 27 13 41 0 14 9 33
20 43 11 10 20 23 20 28 0 6 7 18 16 28 9 10 19 33 23 51 5 25 18 40 54 63 41
27 47 34 47 66 0 53 18 94 46 110 44 23 74 67 74 108 0 27 7 44 25 61 14 13
25 29 25 36 0 22 37 58 71 69 32 11 34 15 40 69 7 64 27 92 73 104 28 7 32 13
36 53 8 63 33 99 70 99 33 0 52 25 43 58 -13 51 37 113 108 132 43 12 53 32
50 98 -2 36 3 48 29 73 23 23 37 30 60 27 27 -2 35 3 60 41 18 27 30 57 30 77
0 18 5 36 10 39 6 3 10 14 10 24 0 29 38 55 87 61 41 4 48 8 55 35 5 17 9 49
9 72 0 27 7 50 20 67 17 22 28 26 74 26 66 0 80 17 69 86 -5 39 -3 49 17 70
28 29 67 31 102 4 l25 -20 26 34 c14 19 26 38 26 42 0 13 52 119 68 137 17 19
72 23 89 6 18 -18 33 -1 33 35 0 18 3 36 7 40 4 4 8 21 9 37 3 51 51 87 96 70
30 -11 55 21 67 85 10 54 38 84 78 84 14 0 44 14 68 31 35 26 44 38 48 72 4
28 14 49 32 64 31 27 48 28 85 6 24 -14 31 -14 44 -4 9 8 16 22 16 32 0 10 11
26 25 35 14 9 25 25 25 35 0 11 10 29 21 40 18 18 29 20 68 15 51 -7 71 5 85
52 4 12 12 22 17 22 5 0 9 12 9 27 0 58 69 92 118 57 31 -21 56 -10 71 31 7
20 25 43 39 53 15 9 35 27 46 40 24 30 54 41 86 32 21 -6 33 -1 63 26 20 19
37 41 37 49 0 8 9 24 20 35 24 24 91 27 112 6 20 -20 48 -1 48 31 0 35 37 73
70 73 15 0 37 9 50 20 13 11 26 20 30 20 3 0 11 15 18 33 11 32 45 57 76 57 7
0 25 -9 39 -20 l25 -20 21 29 c12 17 30 33 41 36 11 4 20 12 20 19 0 7 13 24
28 39 31 30 76 35 108 13 18 -13 24 -11 67 22 26 20 47 44 47 54 0 47 90 79
120 43 12 -14 15 -13 31 4 10 11 27 22 39 26 11 3 20 15 20 25 0 30 50 63 85
55 89 -18 95 -18 95 3 0 10 9 31 21 46 24 30 78 36 103 11 8 -8 17 -15 19 -15
3 0 27 23 55 50 53 53 81 61 119 35 18 -13 22 -13 33 0 7 8 25 15 41 15 15 0
34 7 41 16 56 70 56 69 140 48 46 -11 91 4 138 46 57 52 83 59 120 31 49 -35
103 -33 124 7 8 15 32 46 54 70 50 54 81 56 124 8 l31 -35 28 21 c16 12 31 29
34 39 8 23 56 42 89 33 14 -3 35 -17 46 -31 25 -32 64 -24 100 18 59 71 70 79
98 79 20 0 40 -10 60 -31 l31 -32 31 27 c22 18 43 26 71 26 26 0 46 7 59 20
25 25 95 27 128 4 20 -14 24 -14 44 0 12 9 38 16 57 16 19 0 43 8 53 17 26 23
74 21 101 -6 22 -20 26 -20 53 -6 16 8 42 15 59 15 20 0 36 9 51 27 16 20 29
26 55 25 95 -3 127 -8 143 -21 15 -12 19 -11 33 8 26 38 87 47 113 16z"/>
<path d="M10747 18579 c-23 -14 -67 -105 -67 -139 0 -15 5 -31 11 -37 7 -7 -4
-14 -38 -22 -92 -23 -159 -91 -178 -180 -10 -47 12 -117 49 -153 51 -52 86
-61 256 -67 181 -7 211 -18 248 -91 36 -71 10 -110 -86 -130 -79 -17 -167 0
-283 56 -112 54 -142 54 -164 2 -22 -54 0 -85 95 -133 36 -18 89 -40 118 -49
42 -14 52 -22 52 -40 0 -12 7 -31 15 -42 9 -12 14 -44 15 -92 0 -64 3 -76 25
-97 31 -32 69 -32 101 0 22 22 25 32 23 97 -1 40 2 90 6 110 6 34 12 39 49 49
90 24 152 72 180 141 48 113 -27 274 -152 331 -38 17 -76 22 -202 27 -90 4
-164 12 -177 19 -30 15 -29 46 2 76 31 32 101 33 206 5 125 -35 146 -36 174
-10 14 13 25 35 25 50 0 28 -25 70 -42 70 -6 0 -42 9 -79 20 l-69 21 0 75 c0
102 -23 145 -78 144 -9 0 -25 -5 -35 -11z"/>
<path d="M10098 18335 c-1 -2 -62 -10 -134 -19 -73 -9 -160 -25 -195 -36 -35
-11 -74 -20 -86 -20 -56 0 -113 -66 -113 -131 0 -29 26 -69 45 -69 8 0 17 -6
22 -12 4 -7 10 -123 13 -256 l5 -244 28 -24 c39 -33 72 -30 132 11 49 34 57
36 176 46 153 12 183 21 199 59 14 35 6 66 -24 85 -19 13 -43 13 -152 5 -122
-9 -155 -14 -196 -26 -16 -5 -18 3 -18 70 0 41 4 77 9 81 5 3 57 12 116 20
158 22 187 31 213 61 44 51 0 122 -68 109 -48 -8 -275 -42 -276 -41 -1 1 -3
30 -5 65 l-4 65 42 12 c22 7 98 19 168 28 74 9 137 22 151 31 49 32 41 104
-14 123 -17 6 -32 9 -34 7z"/>
<path d="M9079 18166 c-20 -14 -50 -46 -67 -73 -27 -42 -84 -193 -94 -248 -2
-15 -23 5 -87 87 -84 107 -112 128 -168 128 -40 0 -79 -27 -98 -67 -16 -34
-17 -55 -9 -233 4 -107 8 -251 9 -318 0 -118 1 -125 24 -143 30 -25 57 -24
108 3 64 34 80 82 40 122 -22 22 -24 34 -30 183 -4 88 -10 181 -13 206 -4 26
-3 47 2 47 5 0 21 -17 35 -38 55 -78 160 -181 195 -192 63 -21 124 28 124 102
0 33 35 175 55 222 10 23 20 35 25 30 5 -5 30 -90 55 -189 31 -121 56 -196 76
-228 16 -27 29 -57 29 -67 0 -22 45 -60 70 -60 10 0 29 9 44 21 37 29 35 80
-5 155 -19 35 -47 121 -69 209 -42 165 -89 299 -121 339 -27 35 -81 35 -130 2z"/>
<path d="M12311 18112 c-54 -54 -157 -386 -168 -544 -6 -73 -5 -77 21 -103 42
-42 90 -32 213 42 115 70 303 167 303 156 0 -5 -13 -60 -29 -123 -47 -188 -58
-267 -40 -298 8 -15 27 -31 42 -36 39 -14 78 8 172 96 193 181 319 267 456
313 80 27 99 44 99 87 0 45 -34 71 -84 65 -110 -12 -266 -97 -425 -229 -45
-38 -83 -68 -85 -68 -9 0 35 145 65 215 36 86 37 118 3 152 -22 22 -32 25 -72
21 -53 -6 -249 -91 -386 -169 -48 -28 -90 -48 -92 -46 -5 5 47 211 68 270 8
22 24 43 38 50 37 19 46 56 25 109 -26 71 -78 87 -124 40z"/>
<path d="M8133 17905 c-17 -8 -71 -23 -120 -34 -48 -10 -122 -31 -163 -46 -41
-15 -95 -28 -119 -30 -61 -3 -85 -32 -79 -97 3 -27 12 -56 21 -66 18 -20 63
-131 119 -292 43 -124 70 -177 117 -227 42 -47 78 -44 177 12 43 25 86 47 94
49 114 32 192 60 213 77 52 40 25 122 -40 122 -42 -1 -220 -58 -296 -96 -46
-23 -70 -30 -76 -23 -11 14 -54 146 -50 151 2 1 55 17 117 34 173 48 267 101
278 158 5 26 1 37 -19 57 -33 33 -62 33 -109 1 -20 -13 -53 -31 -74 -39 -55
-22 -213 -66 -234 -66 -20 0 -66 98 -52 112 14 14 123 49 217 69 172 37 245
94 198 157 -24 32 -71 39 -120 17z"/>
<path d="M13633 17613 c-15 -16 -67 -83 -115 -149 -49 -66 -133 -166 -188
-222 -55 -55 -102 -113 -106 -128 -13 -49 6 -77 66 -99 30 -11 110 -48 178
-82 67 -35 128 -63 136 -63 7 0 25 9 40 21 19 15 26 30 26 55 0 41 -30 65
-163 133 l-86 44 62 67 62 66 54 -48 c119 -108 179 -131 221 -86 32 35 26 67
-22 107 -22 20 -68 61 -101 92 l-60 56 29 41 c46 64 75 62 195 -14 125 -80
152 -94 184 -94 54 0 87 80 48 116 -31 28 -236 156 -289 180 -28 13 -71 27
-97 30 -42 6 -49 4 -74 -23z"/>
<path d="M7101 17604 c-52 -44 -64 -142 -36 -299 8 -43 13 -81 11 -82 -2 -2
-45 19 -97 47 -102 54 -143 61 -180 31 -21 -17 -24 -30 -27 -99 -5 -103 14
-171 80 -282 62 -104 151 -232 197 -282 42 -48 88 -52 120 -12 30 38 27 54
-24 125 -106 152 -220 348 -213 369 1 5 53 -18 113 -51 61 -34 123 -66 138
-71 38 -14 82 6 97 43 11 26 8 40 -23 123 -36 94 -61 206 -55 246 2 18 36 -19
168 -185 219 -276 218 -275 245 -275 35 0 75 37 75 70 0 31 -46 104 -119 189
-26 31 -81 99 -121 151 -153 197 -231 270 -291 270 -15 0 -41 -12 -58 -26z"/>
<path d="M14995 16741 c-20 -17 -144 -41 -300 -56 -192 -19 -226 -32 -340
-131 -88 -76 -142 -104 -255 -128 -117 -26 -124 -29 -149 -69 -16 -24 -46 -49
-85 -70 -36 -19 -101 -71 -161 -128 -55 -53 -115 -105 -133 -117 -56 -33 -198
-160 -224 -200 -14 -20 -37 -57 -51 -82 -38 -68 -169 -192 -298 -283 -37 -25
-90 -76 -119 -113 -73 -93 -164 -180 -197 -189 -15 -3 -53 -22 -84 -41 -31
-19 -61 -34 -66 -34 -6 0 -41 -22 -78 -50 -91 -67 -124 -75 -260 -63 -61 5
-143 6 -185 2 -194 -21 -329 -28 -411 -22 -118 8 -159 -7 -228 -87 -67 -77
-130 -108 -237 -116 -84 -7 -75 -9 -299 64 -64 20 -97 25 -165 24 -112 -3
-461 46 -499 70 -12 7 -45 8 -109 1 -50 -5 -155 -9 -234 -8 -143 0 -143 0
-208 34 -98 51 -196 65 -347 50 -116 -12 -124 -11 -185 9 -36 12 -75 22 -89
22 -31 -1 -227 -52 -255 -68 -69 -37 -120 -47 -239 -45 -107 2 -125 6 -174 30
-56 27 -134 98 -204 186 -30 37 -58 57 -124 88 -77 37 -99 55 -236 190 -132
131 -161 155 -239 195 -97 51 -124 78 -214 211 -72 107 -136 173 -167 173 -32
0 -302 129 -349 167 -22 18 -63 36 -105 46 -86 22 -210 63 -256 85 -20 9 -80
59 -135 109 -55 51 -112 97 -125 102 -14 6 -118 13 -232 17 l-206 7 -122 -62
c-136 -69 -251 -160 -279 -220 -9 -20 -21 -72 -27 -116 -11 -77 -10 -84 14
-144 29 -69 28 -124 -1 -226 -8 -27 -17 -93 -20 -145 l-5 -96 45 -89 c53 -108
64 -146 72 -256 4 -52 14 -97 25 -119 11 -19 19 -40 19 -47 0 -6 11 -33 25
-60 25 -46 25 -51 19 -183 -4 -99 -2 -161 9 -235 17 -111 62 -308 77 -335 5
-10 21 -71 35 -135 18 -85 34 -131 55 -164 17 -25 39 -64 49 -86 24 -49 57
-213 65 -317 6 -83 31 -160 90 -274 35 -69 36 -74 36 -183 0 -61 -8 -155 -17
-209 -9 -53 -16 -114 -14 -134 12 -202 -5 -368 -49 -463 -68 -148 -81 -194
-74 -266 5 -49 2 -80 -10 -115 -9 -27 -20 -83 -26 -124 -5 -41 -23 -140 -40
-220 -21 -101 -30 -173 -30 -238 0 -100 -5 -118 -92 -302 -22 -47 -49 -106
-59 -132 -24 -62 -68 -148 -113 -222 -19 -32 -61 -124 -92 -204 -31 -80 -77
-183 -101 -228 -63 -120 -96 -264 -97 -421 -1 -113 1 -125 26 -175 35 -71 52
-157 49 -250 -3 -95 13 -184 46 -262 65 -156 194 -405 231 -446 61 -69 107
-164 132 -270 12 -52 39 -149 60 -215 21 -66 42 -136 46 -155 12 -62 43 -121
86 -163 27 -27 58 -76 90 -145 54 -116 83 -149 198 -218 117 -72 156 -110 233
-223 95 -140 345 -389 548 -545 35 -28 91 -81 124 -119 33 -38 76 -88 97 -110
l36 -41 59 11 c36 8 72 9 94 4 36 -8 139 -85 209 -156 34 -35 132 -79 230
-105 45 -11 148 -49 205 -75 17 -7 73 -33 125 -58 52 -24 131 -61 175 -82 248
-115 366 -194 545 -363 74 -71 176 -165 225 -209 50 -44 108 -100 130 -123 57
-60 167 -148 265 -213 134 -88 158 -92 515 -90 317 3 415 -5 494 -39 141 -62
275 -92 473 -108 78 -7 153 -16 165 -21 18 -6 31 -3 59 16 20 14 54 30 75 35
56 15 178 74 299 144 58 33 149 79 203 103 54 23 123 58 155 77 31 20 75 42
97 50 45 15 173 74 255 116 78 40 266 120 282 120 7 0 45 16 83 36 39 19 78
37 87 39 9 2 41 21 70 43 29 21 94 66 143 100 50 34 131 91 180 126 50 35 146
102 215 150 69 47 159 116 201 153 124 111 303 238 434 309 64 35 124 73 350
224 50 33 153 124 275 244 107 105 248 233 312 284 64 52 118 97 120 102 2 5
21 28 43 52 22 24 59 66 82 94 26 31 65 63 101 82 66 35 134 103 159 159 10
21 59 81 109 133 84 87 99 108 153 221 33 68 73 138 91 154 39 38 172 211 192
250 9 17 19 57 23 89 6 55 11 64 55 105 41 39 54 60 79 133 16 47 50 135 74
195 43 103 79 199 133 361 13 41 30 86 38 100 24 47 66 218 66 268 0 27 7 74
15 104 10 40 13 92 10 193 -4 136 -14 192 -41 232 -8 11 -14 31 -14 46 0 27
-94 190 -144 250 -42 50 -57 92 -50 140 6 39 5 42 -43 87 -28 26 -53 58 -56
73 -4 14 -26 45 -49 70 -24 24 -75 80 -113 124 -88 101 -166 177 -231 225
-110 82 -184 186 -184 258 0 43 -11 64 -73 136 -80 93 -87 112 -80 225 6 115
-3 146 -52 166 -48 21 -58 45 -50 119 6 64 4 72 -81 228 -31 56 -45 166 -38
288 l7 116 -41 75 c-64 118 -77 167 -62 242 12 58 19 164 19 297 1 30 -9 117
-21 193 -21 134 -21 140 -4 194 14 42 16 72 11 123 -8 84 10 152 59 216 42 55
54 114 36 191 -8 36 -9 83 -5 135 7 74 10 84 43 120 33 36 37 49 54 151 9 62
18 146 18 188 0 42 7 96 16 121 14 41 14 52 0 97 -17 56 -13 76 28 144 29 49
29 50 10 160 -5 31 0 50 27 104 32 63 33 70 34 182 0 88 -4 126 -18 159 -9 24
-21 83 -26 132 -6 50 -20 116 -34 152 -24 60 -47 191 -47 268 0 38 -92 334
-111 357 -13 15 -21 16 -34 4z m11 -96 c9 -14 16 -38 16 -53 0 -15 6 -37 14
-49 8 -12 14 -40 14 -62 0 -22 5 -43 10 -46 6 -3 10 -24 10 -45 0 -21 4 -50
10 -64 5 -14 14 -60 19 -101 5 -42 19 -94 31 -118 13 -26 24 -74 30 -128 4
-47 15 -107 24 -132 25 -74 38 -172 26 -202 -5 -14 -10 -46 -10 -69 0 -27 -7
-52 -18 -67 -31 -40 -42 -104 -29 -166 11 -51 10 -57 -15 -102 -34 -59 -45
-121 -28 -160 9 -23 9 -45 -3 -108 -9 -43 -18 -130 -21 -193 -7 -138 -14 -166
-62 -236 -35 -50 -38 -62 -44 -146 -4 -51 -3 -111 2 -133 16 -69 12 -105 -15
-133 -14 -15 -38 -54 -53 -86 -24 -54 -27 -71 -26 -165 0 -73 -4 -119 -15
-149 -12 -31 -14 -55 -8 -90 5 -26 10 -87 11 -137 2 -49 6 -162 9 -250 5 -107
3 -177 -5 -212 -16 -73 1 -129 90 -300 21 -40 21 -47 10 -115 -20 -119 8 -273
65 -359 45 -69 56 -108 50 -179 -5 -55 -3 -70 14 -98 12 -18 37 -40 56 -49
l35 -17 -1 -116 c-2 -130 3 -145 68 -220 51 -58 83 -112 83 -138 0 -75 105
-227 201 -293 61 -41 101 -79 224 -214 44 -48 98 -107 120 -131 23 -24 41 -53
42 -66 1 -14 20 -39 47 -62 43 -35 46 -40 40 -75 -7 -43 28 -124 75 -176 38
-41 121 -189 121 -215 0 -11 13 -47 29 -79 29 -56 30 -63 30 -203 1 -105 -3
-157 -14 -188 -8 -23 -15 -66 -15 -94 0 -28 -5 -67 -10 -86 -5 -19 -16 -60
-24 -90 -7 -30 -25 -80 -39 -111 -14 -30 -32 -78 -41 -105 -30 -96 -64 -190
-83 -234 -12 -25 -26 -61 -33 -80 -7 -19 -18 -48 -25 -65 -16 -39 -50 -128
-70 -186 -12 -32 -26 -50 -49 -63 -41 -22 -55 -51 -67 -134 -8 -57 -17 -73
-88 -170 -44 -59 -94 -120 -111 -137 -18 -17 -60 -87 -96 -160 -58 -117 -74
-139 -153 -220 -54 -55 -97 -108 -108 -135 -22 -50 -91 -118 -150 -148 -37
-20 -57 -38 -174 -166 -83 -91 -100 -106 -185 -171 -43 -33 -175 -154 -292
-270 -137 -135 -228 -217 -256 -231 -24 -12 -66 -40 -93 -62 -52 -43 -108 -79
-217 -139 -103 -57 -271 -168 -338 -224 -32 -27 -63 -49 -68 -49 -6 0 -43 -31
-82 -69 -40 -37 -118 -99 -173 -136 -156 -107 -161 -110 -191 -134 -16 -12
-54 -39 -85 -59 -31 -20 -110 -75 -175 -121 -128 -90 -272 -167 -424 -225
-106 -41 -151 -60 -195 -84 -80 -43 -216 -107 -271 -128 -34 -13 -90 -41 -124
-63 -33 -22 -85 -47 -113 -57 -59 -19 -245 -115 -293 -151 -18 -13 -58 -33
-90 -44 -33 -12 -63 -24 -69 -29 -5 -4 -40 -19 -77 -34 -52 -20 -83 -26 -145
-26 -196 1 -506 61 -568 110 -5 4 -26 11 -45 15 -19 4 -45 15 -58 23 -15 10
-43 15 -75 14 -29 -1 -194 -1 -367 -1 -291 1 -318 3 -356 21 -23 10 -50 28
-60 39 -9 10 -21 19 -26 19 -5 0 -52 42 -104 92 -52 51 -100 95 -107 97 -7 2
-14 7 -17 10 -13 16 -111 90 -164 125 -32 21 -95 72 -140 115 -333 316 -370
348 -426 365 -54 17 -175 70 -235 103 -188 101 -349 171 -480 209 -180 52
-208 66 -281 139 -27 27 -74 68 -103 89 -51 38 -58 40 -155 47 -95 7 -102 9
-121 36 -42 59 -281 287 -370 354 -101 75 -297 278 -363 375 -75 112 -122 157
-263 253 -81 55 -117 86 -129 111 -87 177 -106 210 -131 229 -32 24 -63 79
-74 131 -8 43 -41 150 -65 210 -9 25 -25 81 -34 125 -36 163 -70 242 -136 317
-21 24 -51 66 -67 93 -56 96 -186 381 -201 440 -8 34 -16 117 -17 193 -3 137
-7 155 -58 261 -17 36 -22 62 -21 130 1 114 47 325 79 361 22 24 120 258 146
346 5 17 31 68 58 112 63 106 104 188 196 402 l76 175 5 115 c5 113 12 162 54
346 11 50 20 107 20 126 0 20 9 64 21 99 16 50 19 78 14 127 -6 66 5 113 46
195 25 50 56 140 70 205 19 84 21 144 9 252 -9 90 -9 117 5 180 19 93 38 331
29 379 -9 50 -40 109 -60 113 -32 6 -66 114 -75 238 -9 130 -21 203 -36 222
-6 7 -16 36 -22 63 -7 28 -26 67 -42 88 -40 49 -54 86 -73 182 -8 44 -26 113
-40 152 -14 40 -28 94 -32 120 -3 27 -12 64 -19 83 -15 40 -30 183 -26 250 7
147 3 250 -11 272 -35 56 -63 138 -69 208 -14 144 -25 183 -78 277 l-52 90 7
69 c3 38 12 91 20 117 7 27 16 88 20 135 5 74 3 96 -15 146 -50 143 34 306
194 377 25 11 67 35 93 52 l47 32 225 -3 225 -4 60 -55 c33 -30 82 -75 109
-100 27 -25 66 -52 85 -60 20 -8 55 -23 78 -33 40 -19 70 -27 184 -49 36 -8
66 -21 87 -41 17 -16 67 -45 109 -65 263 -125 298 -144 323 -181 14 -21 30
-42 35 -48 6 -6 23 -29 39 -51 94 -126 153 -180 268 -237 25 -13 97 -73 160
-133 126 -123 233 -215 250 -215 36 0 106 -52 164 -122 75 -90 181 -174 233
-185 43 -8 269 -9 326 -1 22 3 71 20 108 37 37 17 101 39 142 47 64 13 77 13
102 1 25 -13 80 -19 178 -19 17 0 71 3 121 7 111 9 172 1 217 -29 78 -53 122
-60 402 -62 221 -1 280 -4 395 -24 74 -13 200 -26 280 -30 92 -4 161 -12 190
-22 194 -70 242 -80 325 -74 133 11 167 27 260 122 97 98 115 104 236 79 72
-14 85 -14 113 -2 55 26 339 38 494 22 77 -8 154 13 221 62 25 18 73 47 106
64 33 17 67 37 75 43 8 7 38 21 65 31 38 14 67 36 125 98 41 44 90 101 109
126 19 25 38 47 42 49 4 2 44 30 90 64 120 88 259 230 294 302 33 66 121 152
225 221 36 24 84 63 106 87 69 74 139 133 208 173 38 22 75 53 87 71 18 30 28
35 117 55 123 28 183 56 267 127 112 95 122 99 257 121 67 12 148 21 178 22
30 0 73 6 95 14 61 20 83 18 101 -10z"/>
<path d="M14605 16423 c-22 -9 -52 -24 -66 -34 -18 -13 -43 -18 -88 -17 -49 1
-68 -4 -89 -20 -15 -12 -52 -38 -82 -58 -90 -61 -157 -123 -194 -177 -45 -69
-71 -94 -196 -190 -138 -105 -304 -265 -360 -346 -40 -58 -50 -66 -93 -76 -61
-15 -102 -55 -123 -117 -14 -43 -37 -76 -106 -154 -9 -11 -28 -27 -42 -37 -34
-23 -90 -126 -117 -212 -12 -39 -28 -83 -36 -99 -12 -24 -13 -33 -2 -52 7 -14
22 -24 33 -24 12 0 31 -6 42 -14 38 -27 182 -96 201 -96 10 0 43 -15 73 -33
30 -18 69 -39 87 -46 17 -7 45 -28 62 -46 17 -19 80 -59 141 -90 90 -46 116
-65 140 -100 17 -25 43 -47 62 -54 75 -28 125 -59 188 -118 56 -53 81 -68 156
-95 78 -28 97 -41 152 -95 34 -35 67 -63 73 -63 6 0 26 -16 44 -35 34 -38 59
-39 70 -4 4 12 16 19 31 19 13 0 40 14 60 33 27 25 37 42 41 77 3 25 9 50 14
56 12 15 46 129 58 196 5 31 24 99 41 150 25 78 30 109 30 191 0 76 5 112 23
165 13 37 30 99 36 137 7 39 24 106 37 150 43 143 49 182 36 219 -7 18 -12 48
-12 67 0 62 38 273 54 306 24 45 25 438 2 480 -8 15 -18 42 -21 58 -10 44
-130 160 -180 174 -22 6 -50 11 -61 11 -12 0 -24 7 -28 15 -7 19 -40 18 -91
-2z m125 -73 c63 -12 131 -66 156 -124 10 -22 26 -53 36 -68 16 -23 18 -50 18
-232 0 -187 -2 -210 -20 -243 -11 -21 -20 -49 -20 -62 0 -14 -7 -69 -16 -123
-13 -78 -15 -114 -6 -177 8 -67 7 -90 -8 -144 -10 -36 -23 -74 -28 -84 -6 -11
-14 -44 -17 -74 -4 -30 -22 -108 -41 -174 -28 -99 -33 -135 -32 -205 2 -71 -3
-101 -29 -180 -17 -52 -37 -120 -43 -150 -13 -56 -21 -83 -59 -180 -11 -31
-21 -63 -21 -73 0 -12 -8 -17 -27 -17 -16 0 -41 -11 -58 -24 -27 -21 -33 -23
-55 -11 -14 7 -43 33 -65 56 -53 56 -113 93 -194 120 -53 18 -80 35 -138 89
-40 37 -104 84 -145 105 -40 21 -87 55 -105 75 -21 24 -68 55 -130 86 -54 26
-114 63 -133 81 -45 41 -203 127 -301 163 -42 16 -99 43 -127 60 l-52 31 19
38 c11 20 26 61 34 91 19 71 66 152 99 168 15 7 36 27 47 45 11 17 34 45 51
62 18 18 37 50 46 82 16 56 51 93 89 93 34 0 99 53 131 108 35 59 204 221 340
325 106 81 160 133 221 213 46 61 94 103 191 168 64 43 82 50 140 56 42 4 86
16 117 32 36 19 55 23 67 17 10 -5 40 -14 68 -19z"/>
<path d="M5823 16176 c-18 -15 -38 -26 -45 -25 -38 5 -48 -3 -59 -43 -24 -88
-36 -270 -28 -418 4 -60 1 -73 -37 -150 -75 -155 -79 -224 -18 -355 29 -63 40
-77 81 -100 108 -63 114 -76 114 -269 1 -84 -4 -179 -10 -212 -6 -32 -12 -112
-13 -176 l-3 -117 56 -58 c31 -32 62 -69 70 -83 16 -32 59 -197 59 -228 0 -14
9 -39 19 -56 33 -53 51 -135 57 -256 6 -114 27 -234 46 -257 12 -16 58 -17 58
-3 0 20 116 112 188 149 63 32 91 77 108 173 18 104 40 171 62 191 9 8 42 17
72 20 53 4 57 7 110 68 76 87 205 213 265 259 28 21 88 53 134 71 84 33 104
48 185 144 28 32 65 59 125 89 123 61 219 117 274 159 27 20 53 37 57 37 29 0
110 98 110 133 0 37 -65 108 -148 164 -121 80 -171 128 -199 193 -38 85 -69
118 -141 153 -56 28 -70 40 -101 92 -40 66 -55 76 -159 106 -63 18 -82 30
-130 77 -50 49 -202 162 -218 162 -14 0 -114 53 -114 60 0 13 -80 58 -143 82
-28 10 -69 33 -89 49 -20 16 -40 29 -44 29 -4 0 -17 8 -28 18 -12 11 -39 26
-61 35 -36 13 -48 13 -93 2 -29 -8 -56 -17 -62 -20 -5 -3 -16 8 -25 25 -26 51
-109 98 -185 106 -61 6 -68 5 -97 -20z m178 -67 c27 -17 51 -39 54 -50 9 -26
54 -79 69 -79 6 0 28 11 47 24 61 42 82 42 126 4 21 -19 92 -61 157 -93 66
-33 139 -76 163 -97 47 -40 145 -101 184 -113 35 -11 90 -48 119 -80 49 -53
117 -95 181 -111 87 -22 95 -28 123 -82 30 -58 60 -86 110 -102 52 -17 108
-75 125 -129 14 -50 87 -132 166 -188 185 -133 191 -140 143 -190 -18 -19 -62
-53 -98 -75 -36 -22 -83 -52 -105 -68 -22 -15 -89 -53 -150 -84 -109 -56 -177
-111 -216 -172 -15 -24 -39 -39 -114 -69 -53 -21 -112 -50 -133 -65 -46 -35
-211 -196 -277 -273 -48 -55 -53 -57 -98 -57 -60 0 -79 -10 -106 -56 -23 -38
-55 -147 -66 -224 -9 -62 -27 -86 -85 -115 -27 -14 -74 -45 -104 -70 -31 -25
-60 -45 -65 -45 -13 0 -19 43 -24 170 -5 111 -25 209 -57 275 -10 22 -29 85
-40 140 -28 133 -44 168 -113 245 l-58 65 6 110 c4 61 10 137 16 170 13 88 11
338 -3 372 -23 53 -50 83 -108 123 -49 33 -64 51 -89 105 -50 104 -42 162 44
329 40 77 42 106 19 208 -15 66 -15 73 0 99 11 19 16 52 16 113 l0 86 38 24
c20 13 43 31 51 40 23 28 97 21 152 -15z"/>
<path d="M10840 14096 c-70 -53 -205 -116 -258 -122 -28 -3 -76 1 -117 11 -38
9 -86 19 -105 22 -19 3 -37 9 -40 13 -5 7 -104 46 -194 75 -46 16 -51 16 -88
-1 -53 -24 -78 -58 -78 -105 0 -31 7 -46 35 -74 20 -19 45 -35 57 -35 27 0 77
-16 146 -47 30 -14 81 -30 115 -38 69 -15 129 -35 177 -60 28 -15 39 -15 74
-5 23 7 49 16 58 21 10 5 26 9 36 9 10 0 27 7 38 15 10 8 26 15 35 15 15 0 88
31 119 50 8 5 42 25 75 44 102 58 115 75 115 146 0 81 -18 100 -97 100 -50 -1
-64 -5 -103 -34z"/>
<path d="M11437 13859 c-43 -4 -84 -12 -90 -18 -6 -6 -20 -11 -32 -11 -18 0
-64 -15 -146 -48 -15 -6 -42 -23 -60 -39 -68 -57 -166 -104 -244 -117 -121
-20 -1094 -3 -1325 24 -122 14 -229 35 -243 49 -6 6 -21 11 -34 11 -13 0 -23
4 -23 9 0 5 -25 17 -55 26 -78 25 -253 18 -316 -13 -25 -12 -52 -22 -60 -22
-8 0 -24 -7 -35 -15 -10 -8 -26 -15 -35 -15 -21 0 -140 -61 -182 -92 -18 -13
-61 -39 -97 -57 -72 -37 -187 -109 -210 -132 -8 -8 -33 -26 -55 -39 -22 -13
-97 -77 -167 -142 -180 -168 -215 -247 -144 -322 28 -31 40 -36 78 -36 51 0
66 10 98 64 55 92 305 301 455 381 50 27 99 56 110 66 29 25 202 112 255 129
25 7 50 17 55 21 6 3 42 9 81 13 54 5 81 3 115 -10 24 -9 62 -21 84 -28 22 -7
51 -17 65 -23 23 -10 70 -21 195 -43 28 -5 158 -12 290 -15 132 -4 335 -11
450 -17 396 -19 440 -20 520 -9 44 5 121 16 170 22 50 6 114 22 142 35 49 21
161 90 173 105 3 3 23 15 45 27 38 19 59 25 170 53 36 9 184 13 545 13 551 1
549 1 590 69 28 45 25 81 -9 119 l-29 33 -509 1 c-279 0 -543 -3 -586 -7z"/>
<path d="M12670 13190 c-47 -22 -92 -44 -100 -50 -17 -11 -84 -44 -115 -56
-21 -8 -384 -23 -560 -23 -55 0 -127 4 -160 10 -144 25 -707 42 -810 25 -75
-12 -150 -28 -220 -47 -38 -11 -86 -24 -105 -29 -19 -5 -72 -18 -117 -29 -45
-11 -91 -25 -102 -30 -11 -6 -26 -8 -34 -5 -8 3 -31 -2 -52 -10 -21 -9 -48
-16 -62 -16 -13 0 -32 -4 -41 -9 -17 -9 -55 -14 -242 -31 -120 -11 -298 -43
-327 -58 -12 -7 -34 -12 -50 -12 -16 0 -37 -6 -48 -13 -20 -14 -239 -37 -348
-37 -95 0 -165 -25 -215 -77 -89 -92 -82 -172 18 -223 l37 -19 46 29 c25 15
48 37 51 48 8 24 63 32 230 32 73 0 139 6 170 14 28 8 78 20 111 27 33 7 69
17 80 22 30 16 150 35 360 57 99 11 188 25 250 39 22 5 65 14 95 21 30 7 63
17 73 22 10 5 39 13 65 18 80 14 185 41 219 56 18 7 56 16 85 20 29 4 67 13
85 21 24 10 90 13 255 12 235 0 279 -4 528 -39 85 -12 173 -19 195 -16 22 4
160 10 307 15 296 10 261 3 466 103 117 57 152 65 152 35 0 -24 39 -104 66
-137 23 -27 32 -30 79 -30 45 0 59 5 80 25 20 21 25 35 25 79 0 35 -5 58 -15
66 -8 7 -15 19 -15 27 0 8 -16 48 -35 88 -48 98 -90 125 -197 125 -63 -1 -84
-6 -158 -40z"/>
<path d="M12583 12219 c-24 -6 -43 -14 -43 -19 0 -4 -24 -11 -52 -14 -124 -13
-205 -24 -228 -30 -14 -4 -45 -12 -70 -18 -25 -6 -49 -14 -55 -18 -5 -4 -26
-10 -45 -13 -60 -9 -94 -18 -127 -33 -17 -8 -38 -14 -48 -14 -9 0 -28 -6 -43
-13 -15 -8 -54 -19 -87 -26 -33 -7 -74 -16 -91 -22 -17 -5 -52 -9 -77 -9 -53
0 -161 -44 -194 -79 -22 -23 -118 -47 -155 -38 -23 6 -51 26 -117 82 -87 74
-153 73 -203 -2 -44 -67 -4 -131 141 -228 117 -78 134 -82 346 -70 132 7 138
8 170 36 18 16 43 29 56 29 13 0 39 4 56 9 18 5 49 11 70 12 21 2 49 9 63 16
14 7 34 13 45 13 27 0 261 63 365 98 47 16 105 30 130 31 25 1 56 6 70 12 25
10 209 6 321 -6 47 -6 62 -12 89 -41 75 -80 150 -85 212 -12 33 38 38 49 38
94 0 36 -5 56 -17 65 -9 8 -33 37 -54 66 -26 34 -49 54 -71 61 -18 5 -53 15
-78 23 -25 7 -49 16 -54 21 -6 4 -21 8 -35 8 -13 0 -32 7 -42 16 -22 20 -127
27 -186 13z"/>
<path d="M9940 12133 c-8 -2 -24 -8 -35 -13 -11 -5 -40 -11 -65 -14 -25 -3
-79 -11 -120 -17 -94 -16 -192 -15 -295 2 -92 15 -682 19 -855 6 -110 -8 -270
-32 -330 -48 -19 -5 -69 -14 -110 -20 -287 -40 -348 -62 -532 -187 -69 -46
-96 -79 -137 -165 -41 -85 -11 -169 66 -183 46 -9 87 11 117 57 14 21 26 42
26 46 1 27 107 107 191 146 54 25 92 34 274 63 55 8 120 20 145 25 25 6 90 14
146 19 55 5 113 14 128 20 17 6 175 10 425 10 332 0 405 -3 434 -15 44 -18
270 -21 314 -4 15 6 60 15 98 21 39 5 88 11 109 14 22 3 48 10 57 15 10 5 36
9 59 9 54 0 75 12 89 51 34 98 -21 170 -129 168 -30 0 -62 -3 -70 -6z"/>
<path d="M8185 11550 c-91 -9 -184 -42 -277 -97 -52 -32 -68 -48 -90 -93 -48
-97 -35 -203 35 -277 35 -36 58 -49 142 -77 55 -19 128 -46 163 -59 34 -14
104 -37 155 -52 114 -33 181 -59 277 -109 138 -71 171 -86 234 -110 90 -34
135 -39 238 -27 172 21 213 36 283 105 75 75 106 138 109 221 1 58 -1 63 -59
150 -64 95 -112 132 -200 155 -110 30 -240 76 -330 120 -267 128 -278 132
-344 140 -36 5 -96 8 -134 8 -37 0 -80 2 -95 5 -15 2 -63 1 -107 -3z m236 -75
c82 -13 234 -58 252 -75 5 -4 -28 -26 -72 -49 -46 -24 -93 -57 -109 -77 -41
-50 -66 -141 -66 -246 -1 -49 -4 -88 -9 -88 -53 -4 -261 54 -362 100 -11 5
-47 20 -80 32 -56 22 -62 27 -89 82 -15 33 -31 76 -33 97 -5 34 -1 42 40 86
26 28 72 61 104 77 32 15 65 31 73 36 19 9 112 29 160 33 75 8 108 6 191 -8z
m819 -297 c82 -37 160 -136 160 -202 0 -72 -67 -178 -137 -214 -32 -17 -241
-53 -285 -50 l-43 3 73 70 c41 39 82 87 93 107 27 52 26 174 -1 254 -11 32
-18 64 -16 70 6 15 74 -1 156 -38z"/>
<path d="M12549 11430 c-47 -4 -91 -10 -97 -14 -6 -3 -62 -11 -124 -17 -255
-23 -795 -163 -889 -230 -15 -11 -44 -51 -63 -90 -30 -60 -35 -78 -30 -113 4
-22 12 -47 18 -55 18 -23 81 -59 127 -72 24 -7 49 -16 54 -19 25 -17 159 -49
250 -59 186 -22 760 15 850 54 17 7 59 23 95 35 97 34 149 63 213 120 81 73
99 112 91 198 -10 108 -31 169 -67 196 -75 56 -108 67 -228 70 -63 1 -153 -1
-200 -4z m269 -60 c115 -19 160 -72 169 -202 5 -81 5 -84 -23 -117 -37 -45
-108 -88 -224 -139 -83 -36 -209 -77 -216 -69 -4 5 18 215 31 290 14 84 11
107 -24 174 -26 51 -26 60 -3 66 34 9 228 7 290 -3z m-1055 -183 c-5 -34 35
-216 58 -259 6 -13 27 -42 45 -64 18 -23 30 -44 27 -48 -25 -25 -271 34 -425
101 l-58 26 0 44 c0 43 41 133 60 133 5 0 16 8 26 18 14 14 218 78 261 81 8 1
10 -10 6 -32z"/>
<path d="M14433 10994 c-24 -14 -66 -41 -95 -60 -49 -33 -57 -35 -109 -29 -48
5 -60 2 -93 -20 -21 -14 -59 -36 -84 -49 -26 -13 -64 -38 -86 -55 -21 -17 -46
-31 -56 -31 -9 0 -48 -20 -85 -45 -38 -25 -76 -47 -84 -50 -9 -3 -24 -17 -34
-32 -9 -16 -34 -55 -55 -87 -35 -54 -45 -62 -107 -87 -37 -15 -93 -41 -124
-56 -50 -25 -57 -33 -68 -73 -15 -50 -61 -102 -168 -188 -92 -75 -109 -95
-143 -172 -61 -141 -151 -252 -216 -266 -17 -3 -67 -28 -111 -54 -121 -72
-149 -82 -241 -82 -84 0 -92 3 -180 67 -19 14 -25 13 -68 -10 -47 -25 -88 -31
-121 -18 -10 3 -35 45 -57 92 -73 160 -147 224 -282 246 -85 13 -109 22 -158
58 -22 17 -38 19 -95 15 -37 -3 -90 -15 -118 -27 -54 -23 -137 -33 -173 -19
-12 4 -38 22 -57 40 -18 18 -72 52 -119 76 l-87 44 -107 -7 c-121 -7 -144 0
-172 52 -36 68 -28 66 -200 58 -167 -8 -204 -18 -220 -60 -5 -14 -24 -34 -41
-44 -34 -21 -210 -66 -299 -77 -30 -3 -65 -10 -78 -15 -12 -5 -66 -18 -119
-28 -94 -20 -143 -46 -143 -77 0 -22 -183 -151 -295 -207 -38 -19 -124 -56
-190 -82 -97 -38 -136 -48 -200 -52 -90 -5 -127 6 -185 56 -30 27 -43 31 -92
31 -95 0 -135 26 -208 137 -81 123 -90 128 -208 125 l-93 -3 -34 34 c-21 21
-36 48 -41 73 -7 43 -34 98 -61 129 -41 46 -228 127 -326 141 -37 5 -57 15
-89 46 l-41 39 -95 -3 c-73 -2 -96 0 -100 11 -2 7 -23 36 -46 64 -59 72 -88
78 -202 37 -202 -71 -264 -79 -264 -34 0 30 -77 99 -124 112 -57 15 -363 16
-491 2 -96 -11 -173 -42 -247 -101 -31 -24 -46 -29 -93 -29 -35 0 -70 -7 -94
-19 -37 -19 -124 -93 -231 -197 -30 -30 -62 -59 -71 -66 -9 -7 -38 -47 -64
-88 l-48 -75 8 -80 c12 -121 10 -149 -16 -184 -29 -39 -27 -82 8 -206 19 -66
28 -126 33 -225 8 -152 23 -198 126 -402 29 -59 64 -135 77 -170 34 -88 102
-225 130 -258 32 -37 42 -68 66 -187 16 -81 34 -130 85 -237 65 -132 67 -135
158 -215 51 -44 112 -99 136 -123 24 -23 68 -56 98 -73 56 -32 88 -73 150
-194 15 -30 52 -79 81 -109 46 -45 54 -58 48 -80 -5 -22 4 -34 72 -98 173
-161 242 -229 243 -239 0 -10 63 -55 76 -55 4 0 16 -10 28 -22 12 -13 48 -45
80 -73 66 -56 91 -80 123 -119 19 -23 28 -26 89 -26 85 0 178 -43 230 -106 40
-48 143 -120 229 -158 33 -15 72 -34 87 -42 14 -8 49 -14 76 -14 96 0 221 -55
527 -232 28 -16 93 -49 145 -74 107 -51 162 -92 235 -173 71 -79 241 -248 305
-302 30 -26 78 -58 105 -72 65 -32 204 -135 277 -203 64 -61 118 -88 210 -105
35 -6 97 -19 138 -30 41 -10 113 -20 160 -23 114 -7 376 -32 475 -46 106 -15
151 -25 205 -46 109 -41 331 -27 488 32 37 14 126 45 197 69 119 41 382 165
496 235 25 15 57 31 70 35 50 16 376 171 455 217 33 18 99 48 147 66 81 31
232 113 331 181 22 15 106 72 186 125 80 54 186 129 235 168 50 38 122 94 161
124 39 29 121 106 182 171 126 134 185 183 274 231 35 18 88 52 117 75 57 44
290 262 304 284 5 8 42 42 83 77 55 47 84 65 115 70 31 5 57 21 112 72 142
128 238 230 269 282 21 37 47 64 82 87 29 18 83 64 121 102 39 38 97 87 130
108 33 22 92 67 130 101 69 61 72 65 95 146 13 46 35 108 51 138 15 31 32 76
39 100 43 161 93 258 164 313 73 57 115 146 156 330 17 74 30 108 55 140 30
39 70 127 111 242 8 22 23 57 34 77 11 20 29 71 40 112 25 97 48 167 62 184 6
7 13 46 16 87 4 63 2 77 -15 99 -13 16 -23 49 -27 88 -10 93 -63 254 -105 323
-20 33 -43 73 -51 88 -7 15 -35 53 -62 85 -26 31 -63 80 -81 107 -39 57 -122
145 -137 145 -5 0 -31 20 -57 45 -53 50 -87 64 -114 46 -29 -18 -136 -14 -172
7 -18 9 -36 22 -42 29 -5 6 -27 20 -47 31 -40 20 -112 22 -131 3 -6 -6 -24
-11 -40 -11 -15 0 -37 -4 -47 -10 -25 -13 -72 4 -140 52 -31 21 -67 38 -80 38
-14 0 -54 10 -90 21 -173 56 -226 60 -287 23z m202 -60 c55 -14 106 -31 115
-38 9 -8 28 -12 46 -9 22 4 38 -2 60 -20 65 -55 109 -70 190 -65 41 3 80 10
87 17 12 12 97 15 97 3 0 -4 26 -23 57 -42 56 -34 60 -35 165 -35 97 0 109 -2
122 -21 8 -11 34 -33 58 -49 59 -40 117 -94 135 -129 8 -15 32 -47 52 -70 21
-22 57 -72 81 -111 24 -38 54 -86 67 -106 31 -47 79 -199 86 -274 4 -33 16
-86 27 -119 23 -64 22 -72 -20 -211 -12 -38 -28 -96 -36 -128 -7 -31 -25 -79
-38 -105 -28 -56 -86 -199 -86 -213 0 -6 -22 -45 -49 -87 -39 -62 -52 -96 -70
-177 -33 -149 -59 -211 -107 -254 -22 -21 -45 -40 -50 -42 -10 -5 -72 -98 -99
-149 -10 -19 -24 -57 -32 -85 -8 -27 -21 -74 -29 -102 -8 -29 -23 -68 -33 -85
-11 -18 -31 -73 -46 -123 -24 -79 -33 -95 -76 -136 -26 -25 -81 -68 -121 -94
-40 -27 -104 -80 -143 -119 -38 -38 -94 -85 -123 -103 -37 -24 -65 -54 -96
-101 -24 -37 -86 -108 -142 -161 -124 -117 -143 -132 -230 -175 -59 -29 -101
-64 -247 -207 -97 -94 -187 -179 -199 -187 -13 -9 -40 -30 -60 -49 -21 -18
-68 -48 -105 -67 -73 -36 -199 -136 -248 -195 -71 -86 -197 -201 -285 -260
-52 -36 -130 -93 -172 -128 -42 -34 -115 -85 -160 -112 -46 -27 -115 -74 -153
-103 -39 -30 -124 -80 -190 -112 -66 -31 -128 -62 -139 -67 -10 -6 -36 -17
-57 -25 -22 -7 -59 -27 -83 -43 -43 -30 -228 -122 -381 -191 -43 -19 -112 -52
-154 -74 -159 -80 -305 -157 -316 -165 -12 -10 -210 -78 -340 -116 -49 -15
-115 -35 -146 -45 -149 -48 -252 -46 -396 5 -40 14 -87 25 -105 25 -18 0 -74
7 -125 15 -93 15 -317 35 -450 40 -52 2 -81 8 -106 24 -24 14 -51 21 -88 21
-106 0 -190 34 -254 100 -51 53 -232 186 -295 216 -26 13 -61 35 -76 50 -16
14 -67 61 -114 104 -47 43 -114 113 -150 155 -73 86 -207 196 -260 213 -20 7
-67 30 -105 53 -39 23 -95 54 -126 70 -31 15 -77 42 -102 59 -25 17 -61 36
-79 42 -18 6 -53 24 -78 39 -45 28 -219 79 -269 79 -47 0 -124 46 -259 157
-171 139 -174 140 -262 154 -41 6 -95 20 -120 32 -46 23 -171 130 -387 334
-67 63 -145 133 -173 155 -43 36 -50 47 -50 77 0 28 -8 42 -44 75 -24 23 -54
64 -66 91 -13 28 -37 68 -54 90 -18 22 -44 59 -59 82 -18 29 -44 51 -80 69
-28 14 -62 39 -75 55 -13 16 -45 43 -70 61 -68 46 -175 157 -196 203 -10 22
-33 72 -51 110 -45 97 -52 119 -65 205 -12 76 -61 189 -136 310 -18 30 -49 94
-68 142 -18 48 -46 108 -60 134 -15 26 -45 88 -67 138 -36 81 -41 104 -50 211
-10 128 -32 253 -55 318 -17 47 -18 113 -3 123 30 18 38 69 27 173 -9 89 -9
104 6 119 8 10 21 34 27 53 7 23 53 75 138 158 169 166 192 181 273 181 58 0
68 3 115 39 118 88 169 99 474 103 198 2 207 1 242 -21 21 -12 49 -44 64 -69
34 -59 38 -62 98 -62 60 0 123 17 230 60 98 40 114 36 167 -42 34 -50 44 -58
86 -67 32 -6 63 -6 95 1 47 10 50 9 80 -19 49 -45 78 -59 136 -67 30 -4 63
-14 75 -22 11 -8 28 -14 37 -14 28 0 158 -70 179 -97 11 -14 25 -44 31 -67 14
-55 45 -120 67 -139 26 -24 110 -39 173 -32 59 6 89 0 89 -18 0 -15 75 -123
114 -165 46 -50 115 -82 178 -82 47 0 59 -5 113 -46 l60 -45 105 4 c94 4 117
9 215 46 61 23 148 60 195 82 152 73 370 229 370 265 0 8 3 14 6 14 3 0 105
20 227 45 321 64 390 89 424 153 15 28 23 32 59 32 22 0 89 3 147 7 95 5 107
4 107 -10 0 -28 60 -86 98 -96 21 -6 84 -9 142 -8 99 2 109 0 165 -28 33 -16
90 -58 127 -92 68 -63 82 -71 93 -53 13 21 45 10 51 -17 3 -16 13 -53 21 -83
8 -30 18 -71 23 -90 18 -69 79 -193 113 -229 56 -59 67 -82 66 -136 0 -79 -24
-193 -45 -216 -10 -11 -59 -48 -109 -81 -49 -34 -113 -82 -141 -108 -56 -50
-137 -80 -218 -80 -58 0 -94 -17 -112 -51 -17 -34 -18 -90 -1 -111 18 -24 111
-48 182 -48 75 0 289 59 360 100 85 49 235 220 283 323 19 41 24 77 33 220 6
95 11 177 11 183 3 26 -48 87 -99 122 -53 35 -57 41 -91 132 -19 52 -38 118
-43 145 -4 28 -11 60 -15 73 -6 20 -3 22 27 22 19 0 42 -8 54 -20 19 -18 68
-33 197 -59 84 -18 144 -77 203 -203 50 -109 71 -129 144 -136 36 -3 58 1 90
18 38 19 45 20 59 7 65 -57 166 -77 262 -53 63 16 90 28 175 73 22 12 70 35
106 52 82 38 141 89 176 149 15 26 37 61 49 77 12 17 27 46 33 65 8 24 58 81
156 179 80 79 145 149 145 155 0 6 11 28 25 49 27 38 77 69 157 93 60 19 103
55 133 113 39 75 73 104 220 179 77 39 167 92 200 117 49 37 65 44 85 38 51
-14 81 -5 177 56 53 33 109 61 123 61 14 0 70 -12 125 -26z"/>
<path d="M9625 9376 c-41 -18 -105 -82 -152 -152 -95 -143 -108 -226 -48 -320
19 -30 35 -60 35 -67 1 -28 40 -95 78 -132 23 -22 83 -65 134 -97 100 -61 152
-73 194 -43 30 20 47 69 40 108 -8 41 -39 71 -131 124 -80 47 -100 66 -109
108 -4 17 -18 47 -32 67 -13 21 -24 46 -24 55 0 25 43 87 107 155 45 48 53 62
53 95 0 45 -20 77 -60 98 -35 18 -46 18 -85 1z"/>
<path d="M10627 9200 c-20 -17 -37 -43 -41 -62 -3 -18 -25 -64 -49 -102 -32
-53 -42 -81 -42 -113 0 -82 70 -130 154 -104 46 13 141 100 141 128 0 10 9 32
20 48 22 33 26 89 10 147 -24 87 -126 117 -193 58z"/>
<path d="M10146 9188 c-97 -72 -58 -247 66 -299 81 -33 168 54 134 135 -7 17
-18 55 -25 83 -23 94 -106 132 -175 81z"/>
<path d="M9293 8451 c-249 -127 -455 -281 -533 -399 -44 -67 -65 -145 -50
-183 33 -80 136 -57 154 34 14 70 112 167 286 285 78 52 307 170 373 191 62
21 85 86 46 135 -36 46 -80 36 -276 -63z"/>
<path d="M12116 8109 c-48 -50 -97 -112 -111 -139 -23 -45 -29 -50 -102 -78
-43 -16 -105 -37 -138 -47 -33 -10 -107 -42 -165 -71 -58 -29 -130 -62 -160
-74 -72 -28 -432 -120 -471 -120 -16 0 -78 -11 -137 -24 -150 -34 -430 -53
-537 -37 -164 24 -300 75 -475 176 -69 40 -154 89 -190 109 -36 20 -92 58
-125 84 -33 26 -71 54 -84 62 l-23 16 21 39 c26 49 27 79 1 105 -48 48 -108
34 -213 -49 -131 -105 -197 -189 -197 -251 0 -43 14 -66 48 -78 36 -12 88 10
98 42 13 44 32 54 99 54 64 0 65 0 157 -68 51 -38 125 -86 163 -106 39 -21
114 -64 168 -96 119 -73 193 -106 321 -147 167 -54 271 -65 476 -51 96 6 229
22 295 35 66 13 154 29 195 35 41 7 109 21 150 32 41 11 100 26 130 34 128 33
229 70 324 119 56 29 164 73 239 98 170 58 228 93 261 162 13 27 58 87 100
133 64 70 76 88 76 117 0 45 -29 75 -74 75 -30 0 -44 -11 -120 -91z"/>
<path d="M10073 6909 c-14 -14 -17 -58 -5 -75 21 -33 176 -77 332 -96 117 -13
372 -5 494 17 125 22 238 54 259 72 37 34 8 93 -46 93 -14 0 -66 -9 -114 -21
-269 -62 -536 -65 -750 -7 -102 27 -155 33 -170 17z"/>
<path d="M16093 15996 c-32 -24 -48 -80 -33 -117 13 -30 38 -42 91 -43 18 -1
62 -30 135 -90 l107 -89 -35 -18 c-22 -11 -75 -67 -139 -146 -57 -70 -123
-152 -147 -182 -35 -43 -42 -59 -37 -80 7 -32 40 -61 70 -61 34 0 67 31 177
169 56 69 119 145 140 168 21 24 38 53 38 65 1 19 12 11 69 -49 77 -82 104
-91 146 -48 45 44 35 68 -72 177 -96 98 -202 191 -336 297 -76 60 -134 76
-174 47z"/>
<path d="M16724 15366 c-26 -19 -37 -56 -26 -87 10 -27 9 -28 -116 -151 -123
-121 -155 -163 -155 -201 0 -35 33 -67 69 -67 13 0 42 16 64 36 28 25 41 32
44 23 2 -8 7 -75 10 -149 9 -224 31 -292 93 -298 37 -4 75 25 75 58 1 14 -4
57 -10 95 -6 39 -13 123 -17 187 l-7 117 54 -21 c215 -82 326 144 164 333 -93
109 -193 161 -242 125z"/>
<path d="M17176 14669 c-14 -11 -26 -24 -26 -29 0 -5 -30 -37 -67 -72 -38 -35
-88 -83 -112 -108 -82 -85 -126 -219 -101 -310 15 -55 78 -122 143 -151 73
-33 221 -34 322 -2 64 20 216 104 265 145 30 27 27 81 -7 108 -35 27 -54 22
-155 -41 -104 -64 -178 -89 -268 -89 -114 0 -160 29 -160 101 0 61 36 112 170
238 117 111 130 126 130 157 0 68 -76 98 -134 53z"/>
<path d="M17540 13794 c-36 -23 -58 -56 -72 -107 -14 -53 3 -136 51 -245 18
-40 26 -71 21 -76 -13 -13 -98 -9 -145 7 -33 11 -45 22 -67 68 -16 31 -33 87
-39 131 -7 47 -18 83 -28 92 -52 47 -121 15 -121 -57 0 -40 21 -154 35 -188 4
-11 -5 -21 -35 -34 -73 -33 -93 -95 -44 -134 35 -27 52 -26 111 5 l50 25 37
-22 c109 -64 283 -62 354 4 63 59 64 105 5 239 -40 92 -55 168 -32 168 51 0
213 -118 177 -129 -46 -14 -63 -75 -32 -119 37 -54 134 -70 172 -29 47 50 51
121 10 200 -11 22 -17 42 -13 45 3 4 21 5 40 3 41 -3 85 34 85 71 0 80 -114
108 -208 53 -30 -18 -31 -18 -94 10 -78 36 -179 45 -218 19z"/>
<path d="M3499 13712 c-25 -21 -30 -71 -9 -97 16 -20 185 -115 298 -167 l86
-41 -65 -29 c-35 -16 -155 -60 -267 -98 -112 -39 -216 -77 -232 -87 -84 -49
-48 -183 49 -183 60 0 269 -31 369 -55 127 -31 163 -31 187 -5 22 25 24 75 3
96 -16 17 -81 35 -238 68 l-105 23 85 28 c47 15 141 52 210 80 69 29 143 58
165 65 93 29 127 68 106 123 -13 34 -38 49 -151 90 -123 45 -181 72 -315 146
-60 34 -120 61 -131 61 -12 0 -32 -8 -45 -18z"/>
<path d="M17945 13175 c-14 -13 -25 -35 -25 -48 0 -14 22 -69 49 -123 l48 -99
-105 -37 c-137 -48 -259 -107 -305 -148 -47 -41 -51 -87 -11 -119 35 -27 53
-26 95 5 43 33 153 84 261 122 152 53 128 66 214 -113 79 -165 97 -185 147
-166 37 14 50 37 44 80 -5 44 -299 639 -324 659 -26 19 -62 14 -88 -13z"/>
<path d="M3030 12834 c-17 -15 -37 -38 -44 -53 -26 -51 -88 -247 -88 -279 0
-42 27 -72 64 -72 51 0 65 16 89 95 12 41 23 75 25 75 1 0 15 -5 31 -11 15 -6
118 -26 228 -45 209 -36 273 -49 282 -57 3 -3 -11 -49 -31 -101 -37 -99 -38
-126 -3 -155 24 -20 77 -10 98 19 10 14 41 85 69 159 28 73 59 145 70 158 39
49 19 138 -33 156 -40 13 -73 -5 -94 -50 -10 -21 -18 -39 -19 -41 0 -1 -57 9
-125 22 -68 14 -173 32 -234 41 -128 20 -154 35 -155 86 0 43 -34 79 -72 79
-15 0 -40 -12 -58 -26z"/>
<path d="M7639 4402 c-144 -48 -242 -164 -271 -321 -32 -170 78 -368 240 -432
46 -19 77 -23 157 -24 92 0 105 3 167 32 85 40 151 106 191 191 30 62 32 75
32 172 0 97 -2 110 -31 170 -40 83 -107 151 -191 192 -56 27 -78 32 -152 35
-63 2 -101 -2 -142 -15z m219 -26 c17 -9 45 -30 63 -48 115 -115 131 -418 30
-568 -112 -167 -335 -132 -411 66 -28 74 -39 239 -20 323 27 124 96 216 178
240 47 13 122 7 160 -13z m200 -175 c36 -72 37 -79 37 -181 0 -98 -2 -110 -32
-170 -17 -36 -48 -81 -69 -100 l-37 -35 26 45 c40 69 57 151 57 270 0 117 -15
186 -57 260 l-26 45 32 -30 c18 -16 49 -64 69 -104z m-531 101 c-32 -35 -68
-132 -76 -204 -15 -138 18 -293 77 -363 16 -19 16 -19 -3 -5 -73 55 -126 161
-133 265 -7 108 22 196 89 269 28 31 54 56 57 56 3 0 -2 -8 -11 -18z"/>
<path d="M11429 4402 c-144 -48 -242 -164 -271 -321 -32 -170 78 -368 240
-432 46 -19 77 -23 157 -24 92 0 105 3 167 32 85 40 151 106 191 191 30 62 32
75 32 172 0 97 -2 110 -32 172 -39 82 -105 148 -192 191 -82 40 -203 48 -292
19z m219 -26 c17 -9 45 -30 63 -48 115 -115 131 -418 30 -568 -112 -167 -335
-132 -411 66 -28 74 -39 239 -20 323 27 124 96 216 178 240 47 13 122 7 160
-13z m200 -175 c36 -72 37 -79 37 -181 0 -98 -2 -110 -32 -170 -17 -36 -48
-81 -69 -100 l-37 -35 26 45 c40 69 57 151 57 270 0 117 -15 186 -57 260 l-26
45 32 -30 c18 -16 49 -64 69 -104z m-530 102 c-51 -58 -80 -157 -80 -274 0
-126 28 -230 81 -294 11 -14 6 -12 -14 5 -45 38 -54 50 -87 119 -40 82 -48
180 -24 266 21 69 37 96 90 153 39 41 65 60 34 25z"/>
<path d="M12891 4368 c-68 -157 -227 -510 -251 -557 -35 -71 -73 -117 -111
-137 -54 -28 -32 -34 116 -34 80 0 145 4 145 8 0 5 -18 14 -39 21 -83 24 -99
87 -51 199 l22 52 140 0 139 0 36 -77 c20 -45 36 -95 37 -118 1 -39 0 -40 -46
-55 -27 -8 -48 -18 -48 -22 0 -5 81 -8 180 -8 168 0 216 8 158 25 -30 9 -66
43 -86 80 -9 17 -80 172 -158 345 -78 173 -147 316 -153 318 -6 2 -19 -16 -30
-40z m128 -290 c130 -295 140 -316 168 -360 13 -21 23 -40 23 -43 0 -3 -28 -5
-62 -5 -48 0 -59 3 -50 12 7 7 12 24 12 38 0 14 -52 142 -115 283 -63 141
-115 261 -115 267 0 21 22 52 30 44 4 -5 53 -111 109 -236z m-93 16 c32 -75
61 -141 62 -145 2 -5 -53 -9 -122 -9 -69 0 -126 3 -126 8 -1 13 115 282 121
282 3 0 32 -61 65 -136z"/>
<path d="M8230 4390 c0 -5 12 -16 28 -24 15 -8 42 -29 61 -46 l33 -31 -4 -247
c-4 -235 -5 -249 -27 -296 -15 -30 -37 -56 -57 -68 -19 -11 -34 -24 -34 -29 0
-5 68 -9 150 -9 142 0 189 10 120 25 -17 4 -44 18 -62 33 -55 46 -62 76 -66
297 -2 110 -2 215 0 234 3 34 7 31 302 -285 164 -175 305 -320 312 -322 12 -3
14 50 15 325 0 370 3 387 61 418 21 11 38 23 38 28 0 4 -61 7 -135 7 -128 0
-172 -10 -105 -25 37 -8 76 -39 95 -75 20 -39 22 -485 2 -459 -11 15 -88 97
-348 374 -37 38 -88 96 -115 127 l-49 57 -107 1 c-64 0 -108 -4 -108 -10z
m186 -43 c12 -17 142 -160 288 -316 259 -277 266 -285 266 -325 l-1 -41 -26
30 c-14 17 -79 86 -143 155 -64 69 -128 137 -141 151 -112 122 -282 302 -319
337 l-45 42 50 0 c45 0 52 -3 71 -33z"/>
<path d="M9160 4390 c0 -5 11 -12 25 -16 14 -3 36 -20 50 -36 l25 -30 0 -287
c0 -272 -1 -290 -20 -313 -10 -14 -33 -31 -50 -38 -16 -7 -30 -16 -30 -21 0
-5 147 -9 330 -9 182 0 330 1 330 3 0 1 14 49 30 107 17 58 30 108 30 112 0
20 -28 3 -58 -35 -55 -68 -132 -126 -191 -143 -75 -23 -174 -16 -204 14 -21
21 -22 32 -25 187 l-3 165 53 0 c105 0 167 -37 183 -110 15 -67 25 -23 25 110
0 77 -3 140 -7 140 -5 0 -15 -18 -24 -39 -22 -52 -64 -73 -156 -79 l-73 -5 0
117 c0 143 10 170 73 187 50 14 155 6 195 -15 44 -23 90 -75 108 -123 27 -71
37 -53 29 55 -4 53 -9 100 -12 105 -7 11 -633 9 -633 -3z m209 -39 l-29 -29 0
-302 0 -301 25 -24 24 -25 -71 0 -71 0 21 23 c22 23 22 29 22 327 l0 304 -27
28 -27 28 81 0 81 0 -29 -29z"/>
<path d="M10290 4388 c0 -4 15 -14 34 -22 69 -29 71 -37 71 -346 0 -309 -2
-317 -71 -346 -19 -8 -34 -18 -34 -22 0 -4 114 -7 253 -7 240 0 255 1 310 23
162 66 246 203 234 384 -11 165 -110 287 -269 333 -48 13 -98 16 -293 13 -129
-2 -235 -6 -235 -10z m473 -36 c59 -26 114 -84 145 -151 34 -73 43 -219 18
-303 -46 -158 -209 -264 -329 -214 -65 27 -68 47 -65 361 3 272 3 274 27 299
13 14 33 27 45 30 38 8 115 -3 159 -22z m-260 1 l-23 -15 0 -311 c0 -275 2
-313 17 -329 15 -17 13 -18 -47 -18 -60 0 -62 1 -47 18 15 16 17 54 17 322 0
298 0 304 -22 327 l-21 23 74 -1 c70 0 73 -1 52 -16z m413 -65 c171 -158 137
-455 -66 -573 -8 -5 4 13 27 39 67 76 87 139 88 276 0 106 -2 120 -28 175 -15
33 -47 80 -70 104 -52 54 -15 38 49 -21z"/>
<path d="M12095 4391 c3 -5 19 -12 35 -16 16 -4 43 -19 60 -35 l31 -29 -3
-310 c-3 -331 -3 -330 -53 -345 -37 -11 -50 9 -50 75 0 55 -3 64 -26 82 -38
28 -79 13 -98 -36 -12 -32 -11 -40 5 -74 29 -58 83 -85 165 -81 85 4 136 36
170 105 23 46 24 59 29 321 l5 274 33 29 c18 16 39 29 47 29 8 0 15 5 15 10 0
6 -69 10 -186 10 -110 0 -183 -4 -179 -9z m231 -42 l-26 -31 0 -261 c0 -279
-5 -320 -46 -364 -19 -21 -24 -23 -18 -8 5 11 10 159 12 329 l3 309 -27 28
-28 29 78 0 78 0 -26 -31z"/>
<path d="M13380 4390 c0 -5 11 -12 25 -16 14 -3 36 -20 50 -36 l25 -30 0 -287
c0 -272 -1 -290 -20 -313 -10 -14 -33 -31 -50 -38 -16 -7 -30 -16 -30 -21 0
-5 79 -9 175 -9 100 0 175 4 175 9 0 5 -16 15 -36 21 -59 20 -74 56 -74 182
l0 106 47 41 c37 33 49 39 58 29 7 -7 53 -77 104 -155 104 -160 112 -190 54
-207 -68 -19 -28 -26 147 -26 169 0 223 9 149 25 -16 4 -45 22 -64 41 -31 30
-278 394 -291 427 -8 22 166 179 241 219 36 18 65 36 65 41 0 4 -70 7 -155 7
-97 0 -155 -4 -155 -10 0 -5 6 -10 14 -10 7 0 25 -9 40 -21 19 -15 26 -30 26
-56 0 -32 -13 -48 -140 -177 l-140 -141 0 162 c0 158 1 162 25 191 14 17 39
33 55 37 72 16 19 25 -145 25 -108 0 -175 -4 -175 -10z m209 -39 l-29 -29 0
-302 0 -301 25 -24 24 -25 -71 0 -71 0 21 23 c22 23 22 29 22 332 l0 309 -27
23 -28 22 82 1 81 0 -29 -29z m292 -413 c56 -84 122 -179 146 -210 l44 -58
-63 0 -64 0 4 33 c3 28 -12 56 -103 195 -90 135 -105 164 -95 177 7 8 16 15
21 15 4 0 54 -69 110 -152z"/>
</g>
</svg>
