<?xml version="1.0" encoding="UTF-8"?><svg id="a" xmlns="http://www.w3.org/2000/svg" viewBox="0 0 1999.44 1999.44"><defs><style>.b,.c{opacity:.25;}.b,.d{fill:#cd4407;}.c,.e{fill:#4f8e40;}</style></defs><g><g><path class="e" d="M1543.02,435.83c64.19-30.21,134.34-50.01,208.24-57.21-44.05-52.7-93.58-100.71-147.75-143.12-73.81,19.83-143.39,49.8-207.09,88.36,53.24,31.59,102.42,69.23,146.6,111.97Z"/><path class="b" d="M1533.55,1335.53c62.21-97,98.27-212.22,98.27-335.81s-35.9-238.26-97.84-335.12c-55.74,47.64-99.46,108.91-126.01,178.66,18.69,48.59,28.96,101.33,28.96,156.46s-10.34,108.25-29.16,156.98c26.47,69.79,70.11,131.12,125.78,178.83Z"/><path class="c" d="M1259.28,428.56c-48.4,45.97-90.95,97.91-126.49,154.6,54.87,17.72,105.01,45.87,148.07,82.11,34.83-54.14,77.87-102.6,127.37-143.7-44.74-37.53-94.82-68.97-148.95-93.01Z"/><path class="c" d="M944.07,564.95c34.45-67.26,76.66-129.95,125.42-186.99-21.73-2.26-43.79-3.44-66.13-3.44-347.09,0-628.45,279.92-628.45,625.21s281.37,625.21,628.45,625.21c22.05,0,43.84-1.14,65.31-3.35-48.69-57.1-90.8-119.85-125.17-187.15-218-26.15-386.95-210.79-386.95-434.71s169.24-408.88,387.51-434.77Z"/><path class="d" d="M1872.22,561.9c-16.95-1.98-34.18-3.02-51.65-3.02-54.73,0-107.12,9.99-155.48,28.2,74.47,119.96,117.48,261.3,117.48,412.65s-43.22,293.35-118.02,413.5c48.51,18.34,101.08,28.4,156.01,28.4,17.29,0,34.33-1.03,51.09-2.96,67.2-131.86,105.11-280.99,105.11-438.94s-37.7-306.24-104.55-437.82Z"/><path class="d" d="M992.01,1786.2c-212.88,0-401.73-79.59-543.86-215.73-46.86,40.18-94.76,71.71-154.58,101.98,177.56,182.04,431.03,299.27,706.14,299.27,148.28,0,288.82-32.92,414.71-91.72-73.85-32.87-142.8-74.6-205.51-123.78-68.93,19.52-141.69,29.98-216.91,29.98Z"/><path class="e" d="M201.45,999.72c0-156.32,45.85-301.98,124.89-424.42-24.91-7.05-97.08-24.35-195.25-20.96C61.82,687.77,22.67,839.19,22.67,999.72s36.29,300.54,100.77,430.25c94.53,4.43,157.1-10.08,192.33-22.66-72.54-118.86-114.32-258.37-114.32-407.59Z"/><path class="d" d="M450.81,426.49c141.44-132.22,331.8-213.25,541.2-213.25,75.57,0,148.66,10.57,217.88,30.27,62.78-49.11,131.8-90.74,205.72-123.52-126.19-59.15-267.14-92.27-415.88-92.27-272.53,0-518.95,111.05-696.17,290.1-1.21,1.22-4.26,4.34-5.46,5.57,83.34,41.1,136.17,88.17,152.71,103.11Z"/><path class="e" d="M1395.55,1676.1c63.65,38.65,133.19,68.71,206.96,88.63,54.22-42.34,103.8-90.29,147.91-142.93-73.88-7.29-143.99-27.19-208.14-57.48-44.23,42.68-93.46,80.25-146.74,111.77Z"/><path class="c" d="M1280.42,1334.54c-43.1,36.18-93.28,64.27-148.19,81.92,35.47,56.74,77.96,108.72,126.29,154.75,54.16-23.97,104.28-55.34,149.07-92.81-49.44-41.16-92.41-89.67-127.17-143.86Z"/></g><path class="e" d="M326.34,575.3c-45.09-38.85-102.02-69.07-158.01-91.88C75.98,632.58,22.67,808.46,22.67,996.79s53.31,364.21,145.66,513.37c55.99-22.81,107.41-54.5,152.5-93.35-75.68-121.99-119.38-265.9-119.38-420.02s13.65-299.13,124.89-421.49Z"/></g><g><path class="d" d="M840.74,765.58l-77.62-112.12h-85.67v112.12h-93.15V363.08h174.23c35.65,0,66.6,5.95,92.86,17.83,26.25,11.89,46.48,28.75,60.66,50.6,14.18,21.85,21.27,47.73,21.27,77.62s-7.19,55.69-21.56,77.34c-14.38,21.66-34.79,38.24-61.24,49.74l90.27,129.38h-100.05Zm-23.57-308.49c-14.57-12.08-35.85-18.11-63.83-18.11h-75.9v140.3h75.9c27.98,0,49.25-6.13,63.83-18.4,14.56-12.26,21.85-29.51,21.85-51.75s-7.29-39.96-21.85-52.04Z"/><path class="d" d="M1035.66,363.08h182.85c43.7,0,82.31,8.34,115.86,25.01,33.54,16.67,59.6,40.16,78.2,70.44,18.59,30.29,27.89,65.55,27.89,105.8s-9.3,75.52-27.89,105.8c-18.6,30.29-44.66,53.76-78.2,70.44-33.55,16.68-72.16,25.01-115.86,25.01h-182.85V363.08Zm178.25,326.02c40.25,0,72.35-11.21,96.31-33.64,23.95-22.43,35.94-52.8,35.94-91.14s-11.98-68.71-35.94-91.14c-23.96-22.42-56.06-33.64-96.31-33.64h-85.1v249.55h85.1Z"/><path class="d" d="M380.16,855.08h182.85c43.7,0,82.31,8.34,115.86,25.01,33.54,16.67,59.6,40.16,78.2,70.44,18.59,30.29,27.89,65.55,27.89,105.8s-9.3,75.52-27.89,105.8c-18.6,30.29-44.66,53.76-78.2,70.44-33.55,16.67-72.16,25.01-115.86,25.01h-182.85v-402.5Zm178.25,326.02c40.25,0,72.35-11.21,96.31-33.64,23.95-22.43,35.94-52.8,35.94-91.14s-11.99-68.71-35.94-91.14c-23.96-22.42-56.06-33.64-96.31-33.64h-85.1v249.55h85.1Z"/><path class="d" d="M1143.18,1171.33h-186.88l-35.65,86.25h-95.45l179.4-402.5h92l179.97,402.5h-97.75l-35.65-86.25Zm-29.32-70.73l-63.83-154.1-63.82,154.1h127.65Z"/><path class="d" d="M1440.45,929.83v106.38h186.3v74.75h-186.3v146.62h-93.15v-402.5h304.17v74.75h-211.03Z"/><path class="d" d="M1064.69,1347.08v402.5h-93.15v-327.75h-80.5v-74.75h173.65Z"/></g></svg>