<?xml version="1.0" encoding="utf-8"?>
<!-- Generator: Adobe Illustrator 25.0.0, SVG Export Plug-In . SVG Version: 6.00 Build 0)  -->
<svg version="1.1" id="Layer_1" xmlns="http://www.w3.org/2000/svg" xmlns:xlink="http://www.w3.org/1999/xlink" x="0px" y="0px"
	 viewBox="0 0 599 599" style="enable-background:new 0 0 599 599;" xml:space="preserve">
<style type="text/css">
	.st0{fill:#FAB732;}
	.st1{fill:#F99B30;}
	.st2{fill:#FECC08;}
	.st3{fill:#4E112E;}
	.st4{fill:#2F071A;}
	.st5{fill:#FD7F0C;}
	.st6{fill:#FBC235;}
	.st7{fill:#F8E98A;}
	.st8{fill:#FBB42D;}
	.st9{fill:#FE6B00;}
	.st10{fill:#FBC932;}
	.st11{fill:#FD810E;}
	.st12{fill:#F9EE88;}
	.st13{fill:#F88C75;}
	.st14{fill:#F9F089;}
	.st15{fill:#F89F74;}
	.st16{fill:#F89974;}
	.st17{fill:#FCB020;}
	.st18{fill:#FC9A1F;}
	.st19{fill:#FC9818;}
	.st20{fill:#F9EE87;}
	.st21{fill:#F88075;}
	.st22{fill:#FD7C08;}
	.st23{fill:#FBDD4C;}
	.st24{fill:#FBC53F;}
	.st25{fill:#FAD052;}
	.st26{fill:#FCD62D;}
	.st27{fill:#FB9F22;}
	.st28{fill:#FD8410;}
	.st29{fill:#FAC246;}
	.st30{fill:#F9D667;}
	.st31{fill:#F8F7A1;}
	.st32{fill:#FAC144;}
	.st33{fill:#F9D160;}
	.st34{fill:#F9E079;}
	.st35{fill:#F8EA8B;}
	.st36{fill:#F9D362;}
	.st37{fill:#F8E27D;}
	.st38{fill:#F8EB8D;}
	.st39{fill:#F9E37F;}
	.st40{fill:#F9D96E;}
	.st41{fill:#F9CC57;}
	.st42{fill:#F8EE91;}
	.st43{fill:#F9CF5C;}
	.st44{fill:#F9E17A;}
	.st45{fill:#F8ED8F;}
	.st46{fill:#F8EF93;}
	.st47{fill:#F9E581;}
	.st48{fill:#F9D96C;}
	.st49{fill:#C54759;}
	.st50{fill:#FE8279;}
</style>
<g>
	<path class="st0" d="M81,100.9C140.8,33.4,232.7-4.3,322.6,2.2c48.2,2.9,95.6,18.2,136.5,43.8c26.1,16.2,49.4,36.8,69.3,60.2
		c-2.6,0.5-5.1,1-7.7,1.5c-8.9-12.5-20.6-22.6-32.2-32.4c-29.5-25-64.3-43.7-101.3-54.8c-68.9-21-145.6-15-210.2,16.8
		c-34.7,16.6-66.1,40.2-91.7,69c-2.5-0.4-4.9-0.8-7.4-1.2C78.9,103.7,80,102.3,81,100.9z"/>
	<g>
		<path class="st0" d="M462.4,140c7-3.1,13.4-8.4,21.5-8.4c-13.1,7.9-27.2,14.4-39.1,24.2c-3.3,2.7-10.1,5.6-6.8,10.9
			c6,5.2,12.8,9.6,18.4,15.3c4.9,4.6,10.4,8.7,14.5,14.2c3.6,4.6,7.4,9,11.5,13.2c0.2,2-0.1,4.3,1.6,5.8
			c8.2,9.9,15.3,20.7,21.1,32.2c-4.1,2.4-8.7,3.7-13.3,4.7c-1.3,4.2-0.2,8.6-0.4,12.9c-1.6,5.7-5.6,10.7-5.4,16.9
			c0.8,30.2-7.1,60-18.3,87.8c-5.6,14.1-13.2,27.3-20.8,40.4c-8.9,18-19.7,35.5-34.6,49.3c-13.9,14.9-33.7,22-50.1,33.6
			c-1.8,1.3-2.8,3.2-3.9,5l-0.2,0.3c-67.2,17.1-142.8,7-199.7-34l0-0.2c0.4-3.5,1-7.3-0.3-10.7c-1.7-4.5-4.8-8.2-7.2-12.3
			c-6-10.3-10.7-21.6-12.8-33.4c-2.3-12.3-3.4-24.9-5.7-37.2c-3.4-16.8-2.4-34.1-0.3-51.1c3-15.7,4.4-31.8,8.1-47.4
			c1.9-7.8,2.5-16,6-23.3c5.1-10.9,10.6-21.5,17.1-31.6c6-10,16.3-17.3,20-28.7c1.6-5.1,4.7-11.4,1-16.3c-1.6-2.5-4.6-2.7-7.2-2.5
			h-0.4c-3.2-3.2-6.5-6.3-9.8-9.5c0.6-0.1,1.9-0.3,2.5-0.4c7.2,3.1,14.8-0.1,22.2,0.5c3.5,3.6,7-0.1,10.2-1.9
			c10.9-4.6,22.9-5.4,34.6-6.2c11.6-0.8,23.2,1,34.8,0.7c7-0.1,14.1,0.2,21.1,0.2c-4.4-1.5-8.9-2.7-13.5-3.9l-0.2-0.3
			c-1-1.7-2-3.4-3.1-5.2c5.7,0.5,9.3,6.3,15.1,6c9.9,0.3,19.7,0.2,29.5-0.3c-3-2.5-6-5.1-8.7-7.9c8.4-0.7,16.8,0.7,25,2.6
			c10,1.9,20.3,1,30.4,1.2c-1.3-1.4-2.5-2.8-3.8-4.2c6.6,2,13.4,2.5,20,4.1c13.4,4.5,28.1,6,42,3.2c0.8-0.1,2.3-0.4,3.1-0.5
			C439.8,148,451.9,145.6,462.4,140z M213.2,251.9c-6.5,11.5-8.2,25.4-6,38.3c1.6,9.1,5.4,18.3,12.8,24.2c5.3,4.4,13.1,5.7,19.4,2.6
			c9.4-4.4,14.8-14.3,17.5-24c2.6-10.1,3.3-21.1-0.1-31.1c-0.3,5.6-0.5,11.8-4.6,16.1c-2.7,3-7.6,2.2-9.9-0.8
			c-5.7-6.7-6.5-16.3-5.3-24.7c0.5-4.8,3.7-8.4,6.3-12.2c-4-1.4-8.2-3.1-12.5-2.2C223,239.4,217,245.3,213.2,251.9z M338.1,258.3
			c-6.4,12.7-7.5,27.8-3.8,41.5c2.4,8.6,7.2,17.2,15.3,21.4c-5.7,0.7-11.3,3-17.1,2c-7.5-1.1-14.9-2.8-22.5-2.4
			c-9.8,0.3-19.7-0.9-29.4,0.9c-8.4,1.7-16.6-1.7-25-1c-9.7,0.5-19.6-0.9-29.3,1.1c-12.4,3.5-24.8,7.8-36.1,14.4
			c-4.7,3.4-10.2,6.4-12.8,11.8c-4.3,1.4-8.7,2.9-12.1,6c0.7,0.9,2,2.6,2.7,3.5c-7.9,7.9-12.2,18.6-15.2,29.1
			c-2.1,5.3-1.4,11.1-2.6,16.6c-1.5,12.5,0.8,25.7,7.6,36.3c3.4,4.4,8.1,7.6,11.8,11.8c7.7,8.8,18.1,14.8,28.2,20.5
			c9.1,4.3,19,6.2,28.9,7.3c9.8,3.5,20.2,1,30.2,2.2c16.9,3.7,34.3,4.1,51.5,4c9.9-0.6,19.6-2.4,29.3-4c13.8,0.2,26.2-6.6,39.5-9.3
			c3.7-0.6,7.7,1.9,11.1-0.2c8.1-4.6,15.3-10.6,21.5-17.5c10-11.9,20.4-24.5,23.9-40.1c0.4-9.3,0.3-19.3-4.2-27.7
			c-1.9-3.9-2-8.3-2.8-12.4c-0.7,0.7-1.4,1.5-2.1,2.2c0-5.2-3.8-9.3-4.2-14.5c-1.8-9.1-11-13.5-17.6-18.9c4.8,0.1,12.9,4.6,14.2-2.8
			c-8.3-4.1-17.9-3.9-26.9-3.8c2-0.6,3.8-1.4,5.7-2.1c-10.4-5.9-21.9-9.9-33.8-11.1c6.4-2.3,11.8-7,15.2-12.8
			c7.8-13.1,9.1-29.4,5.6-44.2c-0.9,5.8-0.8,12.5-5.3,16.8c-2.6,2.6-7.2,2-9.4-0.8c-5.9-6.8-6.8-16.7-5.4-25.3c0.5-4.7,3.9-8.1,6-12
			c-4.2-1.4-8.6-3-13-1.8C347.8,244.5,341.7,251.2,338.1,258.3z"/>
	</g>
	<path class="st0" d="M45.7,148.6c1.4,5.1,1.8,10.8-1,15.6c-11.5,21.2-20.2,44-26.1,67.3c-8.2,31.8-10.2,64.8-7.8,97.5
		c3.3,36.8,13.8,72.9,30.3,106c9.3,17.5,20.1,34.3,32.4,49.9c27.5,34,62.8,61.8,102.6,80.1c55.3,25.7,118.8,33,178.5,20.8
		c48.4-9.6,93.9-32.1,131.6-63.7c9.5-7.7,17.7-16.7,26.3-25.3c37.1-40,62.6-90.5,73.1-144c12.5-63.6,3.4-131.4-26.6-189
		c-2.8-4.7-2-10.2-1.5-15.3c30.7,52.4,43.8,114.7,38.1,175.1c-5.2,58.1-27.9,114.4-64.2,160c-31.1,39.2-72,70.5-118.1,90.1
		C360.5,596.3,301.1,603,244.6,593c-56.8-9.9-110.5-37.3-151.9-77.4c-34.3-33-60.3-74.6-75.1-119.8C-9.3,314.4,1.2,221.7,45.7,148.6
		z"/>
</g>
<g>
	<path class="st1" d="M177,37.3C241.7,5.5,318.4-0.6,387.2,20.5c37,11.1,71.8,29.8,101.3,54.8c11.6,9.8,23.3,19.9,32.2,32.4
		c-3.1,0.6-6.2,1.1-9.2,1.7c-3-4.8-7-8.8-11.1-12.7c-52.7-52.4-127.1-82.5-201.5-80.5c-69.4,0.5-137.8,28.6-188.6,75.5
		c-5.4,5.1-11.1,10.2-15.5,16.2c-3.1-0.6-6.2-1.2-9.4-1.8C110.9,77.5,142.3,53.9,177,37.3z"/>
	<path class="st1" d="M554,115.8c2.4,10.7,0.9,22,3.5,32.6c-0.5,5.1-1.2,10.6,1.5,15.3c30,57.5,39.1,125.4,26.6,189
		c-10.5,53.5-36,104-73.1,144c-8.7,8.5-16.9,17.6-26.3,25.3c-37.7,31.7-83.3,54.1-131.6,63.7c-59.7,12.3-123.2,4.9-178.5-20.8
		c-39.8-18.3-75.1-46.1-102.6-80.1c-12.3-15.6-23.1-32.3-32.4-49.9c-16.5-33.1-27-69.1-30.3-106c-2.3-32.6-0.3-65.7,7.8-97.5
		c6-23.4,14.6-46.1,26.1-67.3c2.8-4.8,2.4-10.4,1-15.6l-0.1-0.3c0.4-0.7,1.3-2,1.8-2.7c0.4,13.9-0.5,27.7,0.3,41.6
		c-0.4-3-0.8-6-1.2-9c-36.8,73.2-38.8,162.8-6,237.8c27.9,65,81.6,118.5,146.9,145.9c46.2,19.8,97.9,26.5,147.7,19.7
		c51.1-7,100.3-28,140.4-60.5c41-32.5,72.3-76.8,90.3-125.9c23-62.1,23.1-132.2,0.8-194.5c-3.4-8.2-5.8-17-10.9-24.4
		C557,156.1,556.1,135.9,554,115.8z"/>
</g>
<g>
	<path class="st2" d="M110.2,91.8c50.9-47,119.3-75,188.6-75.5c74.4-2,148.8,28.1,201.5,80.5c4.1,3.9,8.1,7.9,11.1,12.7
		c-2.8,0.5-5.6,1-8.4,1.4c-29.5-32.2-67.1-56.8-108.2-71.4c-34.3-12.2-71.1-17.4-107.4-15.3c-65.9,4.1-130.3,32.1-177.4,78.5
		c-2.7,2.5-5,6.2-9.1,6.5c-2.1-0.3-4.1-0.7-6.2-1.1C99.2,102,104.8,96.9,110.2,91.8z"/>
	<path class="st2" d="M555.6,176.3c5.2,7.4,7.6,16.1,10.9,24.4c22.3,62.3,22.2,132.4-0.8,194.5c-18,49-49.3,93.4-90.3,125.9
		c-40.1,32.5-89.3,53.6-140.4,60.5c-49.8,6.8-101.5,0.1-147.7-19.7C122,534.5,68.4,480.9,40.4,415.9c-32.8-75.1-30.8-164.6,6-237.8
		c0.4,3,0.9,6,1.2,9c0.1,1,0.4,3,0.5,4c-9.7,23.7-17.3,48.3-20.6,73.7c-5,36-3.1,73.1,6.3,108.2c11.2,42.7,32.7,82.7,62.6,115.2
		c37.3,41,87.6,70,141.8,81.7c34.4,7.7,70.3,8.3,105,2.5c48.1-8,93.9-29.4,131.4-60.6c38.1-31.7,67.7-73.7,84.4-120.4
		c22-60.5,22.2-128.7-0.1-189.1c-1.3-3.5-2.8-6.9-4.3-10.3C554.7,186.7,555.1,181.5,555.6,176.3z"/>
</g>
<g>
	<path class="st3" d="M287.4,24.2c36.3-2,73.1,3.1,107.4,15.3c41.1,14.6,78.7,39.2,108.2,71.4c-23.4,2.4-46.3,7.9-69.1,13.4
		c-9.5,2-18,6.6-26.6,11c-7,3.8-15.3,1.6-22.2-1.2c-23-11-40.4-30.2-60-46.1C315,79.8,305,71.1,296,61.6c-2.3-2.8-7.3-1.3-6.9,2.6
		c0.4,10.9,6.6,20.4,9,30.9c-21.5-1.9-44.5-3.6-64.7,5.5c-3.4,1.4-8.9,5.1-5.2,9c9.6,2.2,20.5,2,28.4,8.9
		c-7.9,2.1-16.1,3.3-23.8,6.4c-9.7,3.9-19.2,8.6-27.5,14.9c-12.1-9.2-26.3-15.9-41.3-18.7c0.5-2.2,1.7-4.2,3.3-5.7
		c26.9-29.3,57.5-55.5,92.2-75.1c10.7-6.2,22.2-10.7,34-14.6C291.5,25.2,289.4,24.6,287.4,24.2z"/>
	<path class="st3" d="M539.2,250.4c9-18.3,12-38.6,15.5-58.5c1.4,3.4,3,6.8,4.3,10.3c-2.4,4.2-0.4,9.3-0.9,13.8
		c-1.3,42.9-14.4,84.3-29.9,123.9c-0.3-0.7-1-2-1.4-2.6c2.6-18.9,1.8-38.4-2.4-57c-0.5-2.7-1.4-5.7,0.7-7.9
		C530.1,265.3,535.6,258.5,539.2,250.4z"/>
	<path class="st3" d="M37.6,352.3c6.1-32.9,17.9-64.5,32.5-94.6c4.6,9.3,11.9,16.7,17.5,25.4c-5.4,18.5-8.3,37.8-7.2,57.1
		c1.7,40.9,20.5,80.4,49.5,109.1c26.9,27.4,62,46.1,99,55.8c40.4,10.6,83.3,11.1,123.9,1.9c42.2-9.5,82.5-29.3,114.1-59
		c0.4,2.8-1.3,5.1-2.9,7.2c-18.6,25.6-38.8,50.2-61.8,72c-15.9,14.6-32.5,28.6-51.2,39.4c-2.8,1.6-5.4,3.6-7.7,5.9
		c-34.7,5.8-70.6,5.2-105-2.5c-54.2-11.8-104.4-40.7-141.8-81.7c-29.9-32.5-51.4-72.5-62.6-115.2C35.7,366.3,36.2,359.2,37.6,352.3z
		"/>
</g>
<g>
	<path class="st4" d="M110,102.7c47.1-46.4,111.5-74.4,177.4-78.5c2,0.5,4.1,1,6.1,1.5c-11.7,3.8-23.3,8.4-34,14.6
		c-34.7,19.6-65.4,45.8-92.2,75.1c-1.6,1.6-2.8,3.5-3.3,5.7c-20.9-4.8-41.7-9.9-63.1-12C105,108.8,107.3,105.2,110,102.7z"/>
	<path class="st4" d="M48.2,191.1c2.3,23.5,10.3,46.1,21.8,66.6c-14.6,30-26.4,61.7-32.5,94.6c-1.3,6.9-1.9,14-3.7,20.8
		c-9.4-35.2-11.3-72.2-6.3-108.2C30.9,239.4,38.5,214.8,48.2,191.1z"/>
	<path class="st4" d="M558.1,216.1c0.4-4.6-1.5-9.6,0.9-13.8c22.3,60.4,22.1,128.7,0.1,189.1c-16.8,46.7-46.3,88.7-84.4,120.4
		c-37.5,31.2-83.2,52.6-131.4,60.6c2.3-2.3,4.8-4.3,7.7-5.9c18.8-10.7,35.4-24.8,51.2-39.4c23-21.8,43.3-46.3,61.8-72
		c1.6-2.1,3.2-4.4,2.9-7.2c31.3-28.9,54.1-68,59.9-110.6c0.3,0.7,1,2,1.4,2.6C543.7,300.4,556.7,259,558.1,216.1z"/>
</g>
<g>
	<g>
		<path d="M289.1,64.2c-0.5-3.9,4.6-5.4,6.9-2.6c9.1,9.5,19,18.1,29.3,26.3c19.6,15.8,37,35,60,46.1c6.9,2.9,15.2,5.1,22.2,1.2
			c8.5-4.4,17.1-9,26.6-11c22.8-5.5,45.7-11,69.1-13.4c2.8-0.4,5.6-0.9,8.4-1.4c3.1-0.6,6.2-1.1,9.2-1.7c2.6-0.5,5.1-0.9,7.7-1.5
			c7.3-1.4,14.7-3,22.2-2.3c4.7,1.8,2.6,8,3.4,11.8c2.1,20.1,3,40.3,1.6,60.5c-0.5,5.2-0.9,10.4-0.9,15.7
			c-3.5,19.9-6.5,40.2-15.5,58.5c-3.6,8.1-9.1,14.9-14.2,22c-2,2.2-1.2,5.3-0.7,7.9c4.3,18.6,5,38.1,2.4,57
			c-5.8,42.6-28.6,81.7-59.9,110.6c-31.6,29.7-71.9,49.5-114.1,59c-40.7,9.2-83.6,8.7-123.9-1.9c-37-9.7-72.1-28.4-99-55.8
			c-29-28.7-47.8-68.1-49.5-109.1c-1.1-19.3,1.8-38.6,7.2-57.1C82,274.5,74.7,267,70,257.7c-11.5-20.5-19.6-43.1-21.8-66.6
			c-0.1-1-0.4-3-0.5-4c-0.8-13.8,0.2-27.7-0.3-41.6c-0.8-13.3,1.4-26.4,2.2-39.6c-0.2-2.8,2.7-4.5,5.2-4.2
			c7.5,0.2,14.9,1.5,22.3,3.1l-0.5-2.1c1.5-0.6,3-1.1,4.5-1.7c-1.1,1.4-2.1,2.7-3.2,4.1c2.5,0.3,5,0.7,7.4,1.2
			c3.1,0.5,6.3,1.2,9.4,1.8c2.1,0.4,4.1,0.8,6.2,1.1c21.4,2.1,42.2,7.2,63.1,12c15,2.8,29.2,9.5,41.3,18.7
			c8.4-6.3,17.9-10.9,27.5-14.9c7.6-3.1,15.8-4.3,23.8-6.4c-7.8-6.9-18.8-6.7-28.4-8.9c-3.7-3.9,1.9-7.6,5.2-9
			c20.2-9.1,43.2-7.4,64.7-5.5C295.7,84.7,289.5,75.1,289.1,64.2z M299,75.3c1.3,5.2,2.1,10.6,4.1,15.6c2.5,6.9,8.7,11.3,13.8,16.3
			c-7.4-1.3-14.6-4-22.1-4.8c-13.9-1.6-28.1-2.4-41.9,0.2l-0.2-0.2c-3.2,0.6-6.5,1.3-9.5,2.5c6.6,1.9,13.8,3.9,18.4,9.5
			c2.9,3.3,6.4,6.1,10.1,8.4c-8.6,2.7-17.6,4.1-26.4,6L245,129c-9.4,2-18.3,6.3-26.6,11.1c-4.9,2-9.3,5.4-13.2,9
			c10.7-3.4,22-4.3,33.1-5.1c5.5,0.2,11.1,0.2,16.6,0.3c8,0.4,15.7,2.5,23.4,4.3l0.2,0.3c4.5,1.2,9,2.4,13.5,3.9
			c-7,0-14.1-0.3-21.1-0.2c-11.6,0.3-23.2-1.5-34.8-0.7c-11.7,0.8-23.7,1.6-34.6,6.2c-3.2,1.8-6.7,5.6-10.2,1.9
			c0.6-2.8,1.3-5.6,2-8.4l0.4,0.1c1.8-2.7,3.8-5.3,5.9-7.8c-14.2-10.4-31.7-14.8-48.6-18.5c-14.4-2.7-28.6-6.7-43.2-8.2
			c-9-0.5-17.7-2.6-26.6-3.8c11.3,3.4,21.9,8.6,32.7,13c18.2,10,36.6,20,52.4,33.7l0.3-0.1c3.3,3.2,6.6,6.3,9.8,9.5h0.4
			c2.1,3.1,5.4,6.6,2.4,10.3c-1,0-3-0.1-4-0.2c-12.4-14.9-28.7-26-45.5-35.4c-14.4-8.5-29.7-15.6-45.7-20.6
			c-7.1-2-14.2-3.7-21.3-5.5c-2.6-0.4-6.9-2.4-6.7,1.9c-1.8,16.7-0.6,33.5-1,50.3c-0.9,19.4,1.9,39.1,9,57.2
			c7.1,16.2,15.3,32.3,27,45.7c11.3-29.5,30.5-55.6,53.9-76.7c2.5-2.6,5.7-3.7,8.8-1.4c0.2,6.2-6.6,8.5-9.8,12.8l-0.2-0.1
			c-3.1,3.5-7,6.4-9.5,10.3c-26.8,28.5-44.2,66.3-46.4,105.6c-1.9,30.5,5.9,61.4,21.6,87.7c12.3,20.8,29.2,38.8,48.9,52.8l0,0.2
			c56.9,41,132.5,51.1,199.7,34l0.2-0.3c19.5-4.6,38.5-11.8,55.9-21.7c32.8-16.7,61.3-42.3,81-73.4c17.2-27.3,26.7-59.6,25.8-91.9
			c-0.8-22-6.2-43.8-16-63.6c-5.8-11.5-12.9-22.3-21.1-32.2c-1.6-1.5-1.4-3.8-1.6-5.8c2.1-0.9,5.2-2.1,6.8,0.4
			c13.8,16.2,24.3,35.1,31.2,55.2c14.3-15.1,19.6-36,23.5-55.8c2.6-14.6,4.6-29.5,4.2-44.4c-0.3-15.3,1-30.7-1.7-45.9
			c-21.2,4.5-42.6,10.3-61.4,21.4c-2.8,0.6-5.2,2.3-7.6,3.7c-8.9,5.4-18.5,9.8-26.7,16.3c-4.1,2.4-7.5,6.9-12.6,6.5
			c-3.3-5.3,3.5-8.2,6.8-10.9c11.9-9.8,25.9-16.3,39.1-24.2c6.2-2.4,12.1-5.8,18.4-8c12.5-5.4,26-8.2,39.2-11.6
			c-10.3,1.1-20.4,3.2-30.5,5.4c-8.9,1.5-17.9,1.7-26.7,3.4c-10.5,1.7-20.8,4.5-31.3,6.4c-15.1,3.4-30.7,6.6-43.8,15.2
			c-4.4,1-8.9,2-13.4,2.2c-8.3-2-16.3-4.9-23.6-9.3c-3.1-2.4-6.4-4.4-9.5-6.6c-14.3-10.1-26.3-23-40.2-33.5
			c-5.5-5.3-11.7-9.7-17.4-14.7l-0.2-0.7C302.7,78.4,300.9,76.8,299,75.3z"/>
	</g>
	<path d="M213.2,251.9c3.8-6.6,9.8-12.5,17.5-13.8c4.3-0.9,8.5,0.8,12.5,2.2c-2.6,3.8-5.8,7.4-6.3,12.2c-1.2,8.4-0.3,18,5.3,24.7
		c2.3,3.1,7.2,3.8,9.9,0.8c4.1-4.3,4.3-10.5,4.6-16.1c3.4,10,2.7,21,0.1,31.1c-2.7,9.6-8,19.5-17.5,24c-6.3,3.1-14,1.7-19.4-2.6
		c-7.4-5.9-11.1-15.2-12.8-24.2C205,277.2,206.7,263.4,213.2,251.9z"/>
	<path d="M338.1,258.3c3.6-7.2,9.7-13.9,17.8-15.6c4.4-1.1,8.8,0.5,13,1.8c-2.1,4-5.5,7.4-6,12c-1.4,8.6-0.5,18.5,5.4,25.3
		c2.2,2.8,6.8,3.4,9.4,0.8c4.5-4.3,4.4-11.1,5.3-16.8c3.5,14.7,2.2,31-5.6,44.2c-3.4,5.9-8.8,10.5-15.2,12.8
		c-4.3,0.4-8.7,0.3-12.6-1.6c-8.1-4.3-12.9-12.9-15.3-21.4C330.6,286.2,331.7,271,338.1,258.3z"/>
	<path d="M370,340.1c6.6-1.9,13.4-3.2,20.3-4c9.1-0.1,18.6-0.3,26.9,3.8c-1.3,7.5-9.4,2.9-14.2,2.8c-7.8-1.1-15.8-0.7-23.6,0.5
		c-4.6,0.8-9.1,1.7-13.6,2.8c-3.3,0.9-6.5,1.9-9.7,3c-3.3,1.2-6.6,2.6-9.9,4.1c-5.5,2.5-10.6,5.9-15.8,8.9c3.5-3.9,7.9-6.7,12.3-9.5
		c4.9-3.1,10.1-5.8,15.4-8.1C362,342.8,366,341.4,370,340.1z"/>
	<path d="M177.4,348c10.1-3,20.8-3.5,31.2-2.7c6.7,0.7,13.4,1.9,19.9,3.6c6.6,1.8,13.1,4.3,19.3,7.2c2.3,1.1,4.6,2.3,6.9,3.6
		c-2.6-0.5-5.1-1.4-7.6-2.3c-4.7-1.7-9.5-3.1-14.3-4.2c-3.1-0.7-6.2-1.2-9.3-1.7c-10.1-1.3-20.4-1.5-30.6-0.5
		c-8.7,0.8-16.5,4.7-24.9,6.5c-0.7-0.9-2-2.6-2.7-3.5C168.7,350.9,173.1,349.3,177.4,348z"/>
	<g>
		<path d="M279.2,351.7c8.8-1.4,17.6-3.6,26.6-3.1c2.5,0.3,5.6,0.3,7.2,2.5c1.9,2.9,0.7,6.6-1,9.2c-4.9,7.1-11.2,13.1-15.7,20.4
			c-0.9,6.4,4.3,11.1,8.7,14.9c7.6,7.1,18.8,8.2,28.8,7.4c12-0.9,22.4-9,28.4-19.1c-5.1,0.2-10.2,0.4-15.1,1.5
			c-2.8,0.5-5.6,1.6-8.5,0.7c6.1-3,12.9-4.4,19.6-5.3c2-0.3,3.9-0.4,5.9-0.6c1.5-3.6,2.9-7.2,4.1-10.9c0.5-0.3,1.6-1,2.1-1.4
			c-0.4,4.1-1,8.2-1.8,12.2c6.2,0.1,12.4,0.5,18.5,1.7c3.7,0.7,7.3,1.7,10.9,2.8c5.4,1.9,10.7,4.2,15.6,7.1c0.6,0.4,1.8,1.2,2.4,1.6
			c-1.6,3.3-4.8,4.5-7.9,2.5c-6.7-3.6-13.6-7.1-21-8.8c-5.2-1.2-10.5-2.1-15.8-2.6c-1-0.1-3.1-0.2-4.1-0.3
			c-2.7,5.5-6.1,10.7-10.5,15.1c-8,8.3-19.5,12.7-31,11.7c-2.6,4.3-6.7,8-7.6,13.2c-2,7.6-2.8,16.8-10,21.5
			c-15.4,8.9-37.9,0.8-43.6-16.2c-1.9-5-1-10.5,0.6-15.5c-0.9-1.8-1.8-3.6-2.8-5.3c-5-0.6-10.2,0.2-15.2-1.1
			c-5.1-1.2-9.8-3.8-13.9-6.9c-4.2-3.4-7.8-7.4-10.9-11.9c-1.6,0.4-3.2,0.7-4.8,1.1c-5.3,1.5-10.4,3.4-15.4,5.6
			c-4.9,2.3-9.5,5.2-13.7,8.5c-2.5,1.9-4.9,3.9-7.8,5.2c-1.7-0.8-3.2-1.9-4.5-3.1c7.2-6.7,15.7-11.9,24.8-15.6
			c6.1-2.5,12.6-4.2,19-5.5c-2-4.7-3.6-9.7-4.5-14.7c-3.2,0.3-6.4,0.5-9.6,0.9c-5.5,0.7-11.2,1.3-16.5,3.1c-5,1.6-9.5,4.7-14.9,4.9
			c-0.2-1.5-0.3-3.1-0.3-4.6c1.5-1.1,3.2-2,4.9-2.8c8.8-3.7,18.1-5.6,27.6-6.6c6.4-0.4,12.9-0.3,19.2,0.4c4.1,0.5,8.2,1.2,12.3,2.1
			c4,0.9,8,2.2,11.6,4.3c-4.8-0.4-9.6-1.4-14.4-1.8c-5.7-0.4-11.4-0.3-17.1-0.2c1.8,4.9,3.9,9.6,6.5,14.1c5-0.3,10-0.5,15-0.5
			c3.8,0.4,7.7,0.9,11.4,1.9c-7.7,1.7-15.7,0.3-23.5,1.8c8.4,11.2,23.2,15.5,36.7,13c10.1-0.9,18.9-7.6,24.1-16.1
			c-6.4-5.1-12.6-10.5-18-16.7c-2.8-3-4.5-8-1.8-11.6C271.2,353.1,275.4,352.4,279.2,351.7z M275.5,411.7c-5.3,1.4-5.8,7.6-6.5,12.1
			c2.5,14.3,19.3,22.7,32.6,17.9c5.9-2.7,8.1-9.5,9.3-15.4c0.7-4.2,4.1-10.9-1.7-12.8C298.6,409.6,286.4,408.2,275.5,411.7z"/>
	</g>
	<path d="M367.5,360.1c3.8-0.8,7.7-1.4,11.6-1.8c5.6-0.5,11.2-0.5,16.8-0.1c5.9,0.6,11.6,1.9,17.3,3.6c-0.2,3.1-2.1,5.8-5.6,4.7
		c-5.5-1.4-11-2.8-16.6-2.9c-4.1,0-8.3,0.2-12.4,0.4c-4.3,0.3-8.7,0.8-13,1.4c-3.8,0.5-7.5,1.2-11.2,2.1c-5.8,1.3-11.3,3.6-17,4.9
		c5-3.8,10.8-6.3,16.7-8.5C358.4,362.4,362.9,361,367.5,360.1z"/>
</g>
<g>
	<path class="st5" d="M299,75.3c1.9,1.5,3.8,3.1,5.7,4.7l0.2,0.7c2.5,9.2,5.4,19.4,14.2,24.7c-0.5,0.4-1.6,1.4-2.2,1.8
		c-5.1-4.9-11.3-9.4-13.8-16.3C301.1,85.9,300.3,80.5,299,75.3z"/>
</g>
<g>
	<g>
		<path class="st6" d="M304.8,80.6c5.7,5,12,9.4,17.4,14.7c7.3,11,17.3,19.9,27.6,27.9c7,4.6,13.9,9.8,22.1,12.2
			c7.3,4.4,15.3,7.3,23.6,9.3c9.1,4.5,19.6,2,29.3,3.3c-13.9,2.7-28.6,1.2-42-3.2c-6.6-1.6-13.5-2.1-20-4.1c1.2,1.4,2.5,2.8,3.8,4.2
			c-10.1-0.1-20.4,0.7-30.4-1.2c-8.2-1.9-16.6-3.3-25-2.6c2.7,2.8,5.7,5.4,8.7,7.9c-9.8,0.5-19.7,0.6-29.5,0.3
			c-5.8,0.3-9.4-5.5-15.1-6c-9.2-1.6-18.5-3.5-27.1-7.4c9.6-3.9,19.8-5.9,29.1-10.6c4,1,8,1.3,12.1,1.6
			c-8.3-4.7-15.6-10.8-23.3-16.3c-0.1-0.8-0.2-2.5-0.3-3.3c6.5-0.1,13-0.2,19.5-0.9c11-1.5,21.7,2.4,32.2,5.2c0.1-0.7,0.2-2,0.2-2.6
			c1.6-0.3,3.2-0.6,4.9-0.9c-1.2-1-2.5-2-3.7-3C310.2,100.1,307.3,89.9,304.8,80.6z M279,113.4c9.2,6.1,16.7,14.7,26.7,19.4
			c10,5.1,21.7,2.3,32.2,6.2c-4.8-4.6-10.9-7.4-16.2-11.3c-3.9-2.6-7.5-5.7-11.3-8.3c-2.8-2.1-6.6-1.3-9.6-2.8
			C294,113.6,286.4,112.9,279,113.4z M269.3,135.9c3.7,3.8,9.4,3.9,14.3,5.2c4.2,0.7,7.6,3.3,11.5,4.7c4.6,1.4,9.4,1,14.1,0.6
			c-4.3-4.3-9.3-7.9-14.6-10.9C286.6,131.6,277.3,132.8,269.3,135.9z"/>
	</g>
</g>
<g>
	<path class="st7" d="M322.2,95.3c13.9,10.5,25.9,23.4,40.2,33.5c3.1,2.3,6.5,4.3,9.5,6.6c-8.2-2.4-15.1-7.6-22.1-12.2
		C339.5,115.2,329.6,106.3,322.2,95.3z"/>
	<path class="st7" d="M277.9,330.1c6.2-0.6,12.2-2.2,18.3-3.1c7.7-1.2,15.1,1.6,22.6,2.9c6.6,1.1,13.1,2.8,19,6.1
		c6.4,3.6,13.5,5.6,20.3,8.3c-5.3,2.3-10.5,5-15.4,8.1c-7.6-12.3-21.7-18.6-35.5-21.1c-10.7-1.1-21.5,0.5-31.7,3.8
		c-11.6,3.1-20,12.3-27.8,20.9c-6.2-2.9-12.6-5.4-19.3-7.2c6.2-6.9,15-10,22.9-14.3C259.5,330.1,269.1,331.1,277.9,330.1z"/>
</g>
<g>
	<path class="st8" d="M252.8,102.6c13.8-2.6,28-1.8,41.9-0.2c7.5,0.8,14.7,3.4,22.1,4.8c0.5-0.4,1.6-1.4,2.2-1.8c1.2,1,2.4,2,3.7,3
		c-1.6,0.3-3.2,0.6-4.9,0.9c-0.1,0.6-0.2,1.9-0.2,2.6c-10.5-2.8-21.2-6.7-32.2-5.2c-6.5,0.8-13,0.9-19.5,0.9
		c0.1,0.8,0.2,2.5,0.3,3.3C261.7,108.1,257.1,105.6,252.8,102.6z"/>
</g>
<g>
	<path class="st9" d="M243.1,104.9c3.1-1.2,6.3-1.9,9.5-2.5l0.2,0.2c4.3,3,8.9,5.5,13.3,8.3c7.7,5.5,15.1,11.5,23.3,16.3
		c-4.1-0.3-8.2-0.6-12.1-1.6c-2-0.8-3.9-1.7-5.8-2.7c-3.8-2.3-7.3-5-10.1-8.4C256.9,108.8,249.7,106.8,243.1,104.9z"/>
</g>
<g>
	<path class="st10" d="M510.9,117.4c10.1-2.2,20.2-4.3,30.5-5.4c-13.2,3.4-26.6,6.1-39.2,11.6c-6.3,2.2-12.2,5.6-18.4,8
		c-8,0.1-14.5,5.3-21.5,8.4c-10.5,5.6-22.6,7.9-34.4,7.6c5.2-1.7,10.2-4,14.9-6.7c14.8-5.8,28.8-13.8,44-18.5
		C494.7,119.9,503,119.9,510.9,117.4z"/>
</g>
<g>
	<path class="st11" d="M81.3,113.4c8.9,1.3,17.6,3.3,26.6,3.8c14.6,1.5,28.8,5.5,43.2,8.2c17,3.7,34.4,8,48.6,18.5
		c-2.1,2.5-4.1,5.1-5.9,7.8l-0.4-0.1c-14.1-2.1-26.3-9.8-39.7-14.3c-12.9-4.6-25.8-10.8-39.7-10.9
		C103.2,121.9,92.5,116.7,81.3,113.4z"/>
</g>
<g>
	<path class="st12" d="M279,113.4c7.4-0.6,15,0.2,21.8,3.2c3.1,1.5,6.8,0.7,9.6,2.8c3.9,2.7,7.4,5.7,11.3,8.3
		c5.3,3.8,11.4,6.6,16.2,11.3c-10.4-3.9-22.1-1.1-32.2-6.2C295.7,128.1,288.2,119.6,279,113.4z"/>
</g>
<g>
	<path class="st13" d="M56,119.8c-0.2-4.3,4.2-2.3,6.7-1.9c7.1,1.9,14.2,3.5,21.3,5.5c16,5,31.2,12.2,45.7,20.6
		c16.8,9.4,33.1,20.5,45.5,35.4c-7.2,5-14.1,10.4-21.4,15.4c-3.1-2.3-6.3-1.2-8.8,1.4c-7.1-11.7-17.5-20.9-27.1-30.6
		c-17.2-14.5-33.2-30.6-52.8-41.9C62.2,122.3,59.1,121.1,56,119.8z"/>
</g>
<g>
	<path class="st14" d="M484.2,120.8c8.8-1.7,17.8-2,26.7-3.4c-7.8,2.5-16.2,2.5-24,5c-15.2,4.7-29.2,12.7-44,18.5
		c-11.2,1.8-22.6,4.2-33.8,1.6c13.1-8.6,28.8-11.8,43.8-15.2C463.4,125.3,473.7,122.6,484.2,120.8z"/>
</g>
<g>
	<path class="st15" d="M56,119.8c3.1,1.2,6.2,2.5,9.1,4c19.6,11.3,35.6,27.4,52.8,41.9c9.5,9.7,20,18.9,27.1,30.6
		c-23.4,21.1-42.6,47.2-53.9,76.7c-11.7-13.4-19.9-29.5-27-45.7c-7.1-18.1-9.8-37.8-9-57.2C55.5,153.4,54.3,136.6,56,119.8z"/>
</g>
<g>
	<path class="st16" d="M484.9,140.2c18.8-11.1,40.2-16.9,61.4-21.4c2.7,15.2,1.4,30.6,1.7,45.9c0.4,14.9-1.6,29.8-4.2,44.4
		c-4,19.8-9.2,40.8-23.5,55.8c-7-20.1-17.5-39-31.2-55.2c-1.6-2.5-4.7-1.3-6.8-0.4c-4.1-4.2-8-8.5-11.5-13.2
		c-4.1-5.4-9.5-9.5-14.5-14.2c8.7-11.4,18.6-21.8,29.1-31.5c5.2-4.6,11.1-8.3,15.7-13.6C495.8,138.2,490.4,139.7,484.9,140.2z"/>
</g>
<g>
	<path class="st17" d="M271.6,122.8c1.9,1,3.8,1.9,5.8,2.7c-9.3,4.7-19.5,6.7-29.1,10.6c8.5,3.9,17.8,5.8,27.1,7.4
		c1,1.7,2,3.4,3.1,5.2c-7.7-1.9-15.4-4-23.4-4.3c-5.6-3.4-12.2-4.6-18.4-6.5c3.2-2.6,6.1-5.4,8.4-8.8l0.2-0.3
		C254,126.9,263,125.5,271.6,122.8z"/>
</g>
<g>
	<path class="st18" d="M114,126.3c13.9,0.2,26.8,6.3,39.7,10.9c13.4,4.5,25.6,12.2,39.7,14.3c-0.7,2.8-1.4,5.6-2,8.4
		c-7.4-0.6-15,2.6-22.2-0.5c-0.6,0.1-1.9,0.3-2.5,0.4l-0.3,0.1C150.6,146.3,132.2,136.3,114,126.3z"/>
</g>
<g>
	<path class="st19" d="M218.4,140.1c8.3-4.8,17.1-9.1,26.6-11.1c-2.3,3.4-5.3,6.2-8.4,8.8c6.2,1.8,12.8,3,18.4,6.5
		c-5.5-0.1-11.1-0.1-16.6-0.3C232.7,139.3,225,141.7,218.4,140.1z"/>
</g>
<g>
	<path class="st20" d="M269.3,135.9c8-3.1,17.3-4.3,25.3-0.4c5.3,3,10.3,6.6,14.6,10.9c-4.7,0.4-9.5,0.8-14.1-0.6
		c-3.9-1.4-7.4-4-11.5-4.7C278.7,139.8,273,139.8,269.3,135.9z"/>
</g>
<g>
	<path class="st21" d="M484.9,140.2c5.5-0.5,10.9-2,16.2-3.3c-4.5,5.3-10.5,9-15.7,13.6c-10.5,9.7-20.4,20.1-29.1,31.5
		c-5.6-5.8-12.4-10.1-18.4-15.3c5.1,0.4,8.6-4.1,12.6-6.5c8.2-6.5,17.8-10.9,26.7-16.3C479.7,142.6,482.1,140.8,484.9,140.2z"/>
</g>
<g>
	<path class="st22" d="M205.2,149.1c3.9-3.6,8.3-7,13.2-9c6.6,1.7,14.3-0.8,19.9,3.9C227.2,144.8,215.9,145.7,205.2,149.1z"/>
</g>
<g>
	<path class="st23" d="M409,142.5c11.2,2.6,22.7,0.2,33.8-1.6c-4.7,2.8-9.7,5.1-14.9,6.7c-0.8,0.1-2.3,0.3-3.1,0.5
		c-9.7-1.4-20.2,1.2-29.3-3.3C400.2,144.6,404.6,143.5,409,142.5z"/>
</g>
<g>
	<path class="st24" d="M176.9,169.4c2.6-0.2,5.7,0.1,7.2,2.5c3.7,4.9,0.6,11.2-1,16.3c-3.7,11.4-14,18.7-20,28.7
		c-6.5,10.1-12,20.8-17.1,31.6c-3.5,7.3-4.1,15.5-6,23.3c-3.6,15.6-5.1,31.6-8.1,47.4c-2,16.9-3,34.2,0.3,51.1
		c2.3,12.3,3.4,24.9,5.7,37.2c2.2,11.8,6.8,23,12.8,33.4c2.4,4.1,5.6,7.8,7.2,12.3c1.3,3.4,0.7,7.2,0.3,10.7
		c-19.7-14-36.6-32-48.9-52.8c1.7-4.4,3.5-9.1,2.7-13.9c-2.9-19.1-7.2-38.1-7.1-57.5c0.9-17,0.5-34.3,4.8-51c1.7-6-0.2-13,3.7-18.3
		c5.6-8.5,6.1-19.2,11.2-27.9c3.6-8,8.9-15.7,9.5-24.7c2.6-3.9,6.4-6.9,9.5-10.3l0.2,0.1c4.4,3.5,8.5-0.8,12.1-3.2
		c9.2-6.7,17.9-14.5,23.1-24.8C182.3,176.1,179,172.5,176.9,169.4z"/>
</g>
<g>
	<path class="st25" d="M153.8,194.9c7.2-5,14.1-10.4,21.4-15.4c1,0.1,3,0.1,4,0.2c-5.1,10.3-13.9,18.2-23.1,24.8
		c-3.6,2.5-7.7,6.8-12.1,3.2C147.2,203.4,154,201.1,153.8,194.9z"/>
</g>
<g>
	<path class="st26" d="M87.8,323.6c2.2-39.2,19.6-77.1,46.4-105.6c-0.6,9-5.9,16.7-9.5,24.7c-5,8.8-5.5,19.4-11.2,27.9
		c-3.9,5.3-2,12.3-3.7,18.3c-4.3,16.7-3.9,33.9-4.8,51c-0.1,19.4,4.2,38.4,7.1,57.5c0.9,4.8-1,9.5-2.7,13.9
		C93.7,385,85.9,354.1,87.8,323.6z"/>
</g>
<g>
	<path class="st27" d="M504.9,247.4c9.8,19.7,15.2,41.6,16,63.6c-5.8,1.3-12.6,0.2-17.6,3.9c-3.1,10.9-4.9,22.2-8.9,32.9
		c-12.3,40-35.9,75.5-63.2,106.8c-5.4,7.5-11.7,14.2-17.1,21.8c-17.4,9.9-36.5,17.1-55.9,21.7c1.1-1.8,2.1-3.8,3.9-5
		c16.4-11.6,36.1-18.7,50.1-33.6c14.9-13.7,25.7-31.2,34.6-49.3c7.7-13.1,15.2-26.3,20.8-40.4c11.2-27.8,19.1-57.6,18.3-87.8
		c-0.2-6.2,3.7-11.2,5.4-16.9c0.1-4.3-0.9-8.7,0.4-12.9C496.2,251,500.8,249.8,504.9,247.4z"/>
</g>
<g>
	<path class="st28" d="M503.4,314.8c5-3.6,11.8-2.6,17.6-3.9c0.9,32.3-8.6,64.6-25.8,91.9c-19.7,31.1-48.2,56.7-81,73.4
		c5.4-7.5,11.7-14.2,17.1-21.8c27.3-31.3,51-66.8,63.2-106.8C498.5,337,500.3,325.7,503.4,314.8z"/>
</g>
<g>
	<path class="st29" d="M226.2,321.8c9.6-2,19.5-0.6,29.3-1.1c8.4-0.7,16.7,2.7,25,1c9.7-1.8,19.6-0.6,29.4-0.9
		c7.6-0.3,15,1.3,22.5,2.4c5.8,1,11.5-1.2,17.1-2c3.9,1.9,8.3,2,12.6,1.6c11.9,1.2,23.4,5.2,33.8,11.1c-1.9,0.7-3.8,1.5-5.7,2.1
		c-6.9,0.8-13.7,2-20.3,4c-5.9-4.9-14.1-4.5-21.2-6.7c-15.8-4.5-32-8.4-48.6-8.7c-10.8-0.2-21.3,2.9-32.1,2.6
		c-6.4-0.2-12.8,0.3-18.9,2.2c-7.5,2.3-15.8,2.5-22.5,6.8c-5.7,3.6-12.5,5-18,9c-10.5-0.7-21.1-0.3-31.2,2.7
		c2.6-5.4,8.1-8.4,12.8-11.8C201.4,329.7,213.8,325.3,226.2,321.8z"/>
</g>
<g>
	<path class="st30" d="M268,327.3c10.8,0.3,21.3-2.7,32.1-2.6c16.6,0.3,32.8,4.2,48.6,8.7c7.1,2.2,15.3,1.7,21.2,6.7
		c-4,1.3-8,2.7-11.9,4.3c-6.8-2.7-13.9-4.7-20.3-8.3c-5.8-3.3-12.4-5-19-6.1c-7.5-1.3-14.9-4-22.6-2.9c-6.1,0.9-12.2,2.5-18.3,3.1
		c-8.9,1-18.4,0-26.5,4.5c-7.9,4.2-16.8,7.4-22.9,14.3c-6.5-1.7-13.2-2.9-19.9-3.6c5.5-4,12.3-5.4,18-9c6.8-4.3,15-4.5,22.5-6.8
		C255.3,327.6,261.7,327.1,268,327.3z"/>
</g>
<g>
	<path class="st31" d="M275.5,335.2c10.2-3.3,21-4.9,31.7-3.8c13.8,2.4,27.8,8.8,35.5,21.1c-4.4,2.8-8.9,5.6-12.3,9.5
		c5.2-3,10.3-6.4,15.8-8.9c2.9,3.4,5.5,7,7.8,10.8c-5.8,2.2-11.7,4.6-16.7,8.5c5.8-1.3,11.3-3.6,17-4.9c1.8,4.3,3.2,8.7,3.8,13.3
		c-6.7,0.9-13.5,2.4-19.6,5.3c2.8,0.9,5.7-0.2,8.5-0.7c5-1.1,10.1-1.3,15.1-1.5c-6.1,10.1-16.4,18.2-28.4,19.1
		c-9.9,0.7-21.1-0.3-28.8-7.4c-4.4-3.7-9.6-8.5-8.7-14.9c4.5-7.3,10.9-13.3,15.7-20.4c1.7-2.6,3-6.3,1-9.2c-1.6-2.3-4.7-2.2-7.2-2.5
		c-9-0.4-17.8,1.7-26.6,3.1c-3.8,0.7-8,1.4-10.9,4.2c-2.7,3.6-0.9,8.6,1.8,11.6c5.4,6.2,11.6,11.6,18,16.7
		c-5.3,8.4-14,15.2-24.1,16.1c-13.4,2.5-28.3-1.8-36.7-13c7.8-1.6,15.8-0.1,23.5-1.8c-3.7-1-7.6-1.5-11.4-1.9
		c-2.8-0.6-5.6-1.3-8.4-2c1.4-3.8,2.7-7.6,4.1-11.4c4.8,0.4,9.6,1.4,14.4,1.8c-3.6-2.1-7.6-3.4-11.6-4.3c2.2-4.1,4.4-8.8,9.2-10.2
		c2.5,0.9,5,1.8,7.6,2.3c-2.3-1.3-4.6-2.5-6.9-3.6C255.5,347.5,263.9,338.2,275.5,335.2z"/>
	<path class="st31" d="M325.5,410.9c11.5,0.9,22.9-3.4,31-11.7c0.8,3.4,1.3,6.9,0.6,10.3c-4.1,22.7-17.8,43.9-37.7,55.8
		c-8,4.5-17.7,9.4-27,5.5c-9.7-4.1-21.7-1.5-29.9-9c-6.5-5.5-13.8-10.4-18.2-18c-4.7-8-9.2-16.3-10.5-25.6
		c-0.8-5.8-2.6-11.9-0.6-17.7c4.1,3.2,8.8,5.7,13.9,6.9c4.9,1.3,10.1,0.6,15.2,1.1c1.1,1.7,1.9,3.5,2.8,5.3
		c-1.6,5-2.5,10.4-0.6,15.5c5.7,17,28.2,25.1,43.6,16.2c7.2-4.7,8-13.9,10-21.5C318.8,418.9,322.9,415.2,325.5,410.9z"/>
</g>
<g>
	<path class="st32" d="M379.4,343.2c7.8-1.2,15.7-1.6,23.6-0.5c6.5,5.4,15.7,9.8,17.6,18.9c0.4,5.1,4.1,9.2,4.2,14.5
		c0.7-0.8,1.4-1.5,2.1-2.2c0.8,4.2,0.9,8.6,2.8,12.4c4.5,8.4,4.6,18.4,4.2,27.7c-3.5,15.5-13.9,28.2-23.9,40.1
		c-6.2,6.9-13.4,13-21.5,17.5c-3.5,2-7.4-0.4-11.1,0.2c-13.3,2.7-25.7,9.5-39.5,9.3c-9.7,1.6-19.4,3.5-29.3,4
		c-17.2,0.2-34.6-0.3-51.5-4c-10-1.2-20.4,1.3-30.2-2.2c-9.9-1.1-19.8-3.1-28.9-7.3c-10.2-5.6-20.5-11.6-28.2-20.5
		c-3.7-4.2-8.4-7.4-11.8-11.8c-6.9-10.7-9.1-23.8-7.6-36.3c1.2-5.5,0.5-11.3,2.6-16.6c3-10.5,7.3-21.3,15.2-29.1
		c8.4-1.7,16.3-5.7,24.9-6.5c-6.2,5.6-11.7,12.5-14.1,20.6c-1.7,0.8-3.4,1.7-4.9,2.8c0,1.5,0.2,3.1,0.3,4.6
		c-1.8,7.9-3.7,16-2.7,24.1c1.6,13.7,6,27.6,14.7,38.5c12.4,13.1,30.7,16.9,46.1,25.1c9.9,4.4,19.6,10.1,30.7,10.9
		c18.2,3.6,37,5.7,55.4,2.1c8.2-1.9,17.4-0.7,24.8-5.4c6.1-3.6,12.6-6.5,19.3-9c7.9-4.4,13.4-11.8,20.4-17.3
		c5.2-4.1,10.3-8.8,12.7-15.2c2.3-6.2,5.3-12,9.2-17.4c4.2-5.7,2.9-13.1,3-19.7c3.1,2.1,6.4,0.8,7.9-2.5c-0.6-0.4-1.8-1.2-2.4-1.6
		c-0.4-8.7-5.3-16.5-5.9-25.2c3.5,1.1,5.4-1.6,5.6-4.7c-5.6-1.7-11.4-3-17.3-3.6c-0.5-1.9-0.5-4.1-2.1-5.4
		C389.6,348.7,384.5,345.8,379.4,343.2z"/>
</g>
<g>
	<path class="st33" d="M365.8,346c4.5-1.1,9.1-2.1,13.6-2.8c5.1,2.6,10.2,5.5,14.3,9.6c1.6,1.3,1.6,3.6,2.1,5.4
		c-5.6-0.4-11.2-0.3-16.8,0.1C375.8,353.1,371.6,348.3,365.8,346z"/>
</g>
<g>
	<path class="st34" d="M356,349.1c3.2-1.1,6.5-2.1,9.7-3c5.9,2.2,10,7.1,13.3,12.3c-3.9,0.4-7.7,1-11.6,1.8
		C365,355.2,361.4,350.8,356,349.1z"/>
</g>
<g>
	<path class="st35" d="M346.1,353.1c3.2-1.5,6.5-2.8,9.9-4.1c5.4,1.8,9,6.1,11.4,11c-4.6,1-9.1,2.3-13.5,3.9
		C351.7,360.1,349.1,356.5,346.1,353.1z"/>
</g>
<g>
	<path class="st36" d="M192.9,351c10.2-1,20.5-0.8,30.6,0.5c-4.3,3-7.7,7.1-10.4,11.5c-2.2,0.7-4.5,1.4-6.7,2.1
		c-9.4,1-18.8,2.9-27.6,6.6C181.2,363.4,186.7,356.6,192.9,351z"/>
</g>
<g>
	<path class="st37" d="M223.5,351.5c3.1,0.5,6.2,1,9.3,1.7c-2.8,3.8-7.3,7.1-7.2,12.3c-6.4-0.7-12.8-0.8-19.2-0.4
		c2.2-0.6,4.5-1.4,6.7-2.1C215.9,358.5,219.2,354.4,223.5,351.5z"/>
</g>
<g>
	<path class="st38" d="M232.8,353.2c4.9,1.1,9.7,2.5,14.3,4.2c-4.9,1.4-7.1,6.1-9.2,10.2c-4.1-0.9-8.1-1.6-12.3-2.1
		C225.4,360.2,230,356.9,232.8,353.2z"/>
</g>
<g>
	<path class="st39" d="M365.5,365.4c4.3-0.6,8.6-1.1,13-1.4c5.1,4.5,6.9,11.3,8.4,17.7c-6.1-1.2-12.3-1.6-18.5-1.7
		c0.8-4,1.4-8.1,1.8-12.2c-0.5,0.3-1.6,1-2.1,1.4C367.3,367.9,366.4,366.7,365.5,365.4z"/>
</g>
<g>
	<path class="st40" d="M378.5,364c4.1-0.3,8.2-0.4,12.4-0.4c2.4,7,5.7,13.6,6.9,20.9c-3.6-1.1-7.2-2.1-10.9-2.8
		C385.4,375.4,383.6,368.5,378.5,364z"/>
</g>
<g>
	<path class="st41" d="M390.9,363.6c5.7,0,11.2,1.5,16.6,2.9c0.6,8.7,5.5,16.5,5.9,25.2c-4.9-2.9-10.2-5.3-15.6-7.1
		C396.6,377.2,393.3,370.6,390.9,363.6z"/>
</g>
<g>
	<path class="st42" d="M354.3,367.5c3.7-0.9,7.5-1.5,11.2-2.1c0.9,1.3,1.7,2.5,2.6,3.8c-1.2,3.7-2.6,7.3-4.1,10.9
		c-2,0.2-3.9,0.4-5.9,0.6C357.5,376.2,356.1,371.7,354.3,367.5z"/>
</g>
<g>
	<path class="st43" d="M189.1,374c5.3-1.8,10.9-2.4,16.5-3.1c-2.2,6.2-7.8,12.5-4.9,19.3c-9.1,3.7-17.6,8.9-24.8,15.6
		c1.4,1.3,2.9,2.3,4.5,3.1c2.9-1.3,5.3-3.3,7.8-5.2c2.7,13.2,7,27.2,17.5,36.4c9.3,8.5,18.6,17.4,30.2,22.7
		c4.7,2.1,9.2,4.5,13.5,7.4c5.9,4,13.4,3.9,20.1,5.5c10,2.4,20.3,3.7,30.7,3.5c14.5-0.5,28.5-5.5,43-5.1c-7.4,4.6-16.6,3.5-24.8,5.4
		c-18.3,3.7-37.2,1.5-55.4-2.1c-11.1-0.8-20.8-6.5-30.7-10.9c-15.4-8.2-33.8-12-46.1-25.1c-8.7-10.9-13.1-24.8-14.7-38.5
		c-1-8.2,0.9-16.2,2.7-24.1C179.6,378.8,184.1,375.6,189.1,374z"/>
</g>
<g>
	<path class="st44" d="M205.6,370.9c3.2-0.4,6.4-0.6,9.6-0.9c0.9,5.1,2.5,10,4.5,14.7c-6.5,1.3-12.9,3-19,5.5
		C197.8,383.4,203.4,377.1,205.6,370.9z"/>
</g>
<g>
	<path class="st45" d="M218,369.8c5.7-0.1,11.4-0.2,17.1,0.2c-1.3,3.8-2.7,7.6-4.1,11.4c2.8,0.7,5.6,1.4,8.4,2c-5,0-10,0.2-15,0.5
		C221.9,379.5,219.8,374.7,218,369.8z"/>
</g>
<g>
	<path class="st46" d="M356.4,399.1c4.4-4.3,7.8-9.5,10.5-15.1c1,0.1,3.1,0.2,4.1,0.3c0.3,5.3,1.3,10.5,1.5,15.8
		c-0.5,27.6-17.5,53.6-41.2,67.1c-10,2.5-19.1,8.6-29.7,8.3c-11.2,0.1-22.6-1-33.3-4.5c-6.9-2.2-11.8-7.8-17.9-11.3
		c-7.2-4.2-14.4-8.8-19-15.8c-6.8-10.4-13.2-21.6-14.6-34.1c-1-6.7,1.1-13.4,0.4-20.2c1.6-0.4,3.2-0.8,4.8-1.1
		c3.1,4.4,6.7,8.5,10.9,11.9c-2,5.8-0.2,11.8,0.6,17.7c1.3,9.3,5.8,17.7,10.5,25.6c4.4,7.5,11.7,12.4,18.2,18
		c8.2,7.5,20.3,4.9,29.9,9c9.3,3.9,18.9-1,27-5.5c19.9-11.9,33.6-33.1,37.7-55.8C357.8,406,357.2,402.5,356.4,399.1z"/>
</g>
<g>
	<path class="st47" d="M371,384.4c5.3,0.4,10.6,1.3,15.8,2.6c4,17.9-0.2,36.9-10,52.2c-3.2,4.6-7.5,8.3-11.4,12.3
		c-4.5,4.4-8.5,9.4-14.1,12.5c-6.5,3.6-12.8,8-20.4,8.7c-9.9,1-19.4,4.6-29.4,4.8c-9.8,0.4-19.6-1.1-29.2-3
		c-5.9-1.2-12.3-1.6-17.4-5.3c-4.4-3.1-8.9-6.3-13.9-8.4c-10.6-4.5-18.2-13.6-25-22.5c-9.4-12.2-15.2-27.4-14.2-42.9
		c5-2.2,10.1-4.1,15.4-5.6c0.7,6.7-1.4,13.4-0.4,20.2c1.4,12.5,7.8,23.7,14.6,34.1c4.6,7,11.9,11.7,19,15.8
		c6.1,3.5,11.1,9,17.9,11.3c10.7,3.5,22.1,4.6,33.3,4.5c10.6,0.3,19.7-5.8,29.7-8.3c23.7-13.5,40.7-39.5,41.2-67.1
		C372.3,394.9,371.4,389.7,371,384.4z"/>
</g>
<g>
	<path class="st48" d="M386.8,387c7.5,1.7,14.4,5.1,21,8.8c-0.1,6.6,1.2,14-3,19.7c-3.9,5.3-6.9,11.2-9.2,17.4
		c-2.4,6.4-7.5,11.1-12.7,15.2c-7,5.5-12.6,12.9-20.4,17.3c-6.6,2.5-13.1,5.3-19.3,9c-14.5-0.4-28.6,4.6-43,5.1
		c-10.3,0.3-20.6-1.1-30.7-3.5c-6.7-1.7-14.1-1.6-20.1-5.5c-4.3-2.8-8.9-5.2-13.5-7.4c-11.6-5.3-20.9-14.2-30.2-22.7
		c-10.5-9.2-14.8-23.2-17.5-36.4c4.2-3.3,8.8-6.2,13.7-8.5c-0.9,15.5,4.9,30.7,14.2,42.9c6.8,8.9,14.4,18,25,22.5
		c5,2.1,9.4,5.3,13.9,8.4c5,3.7,11.4,4.1,17.4,5.3c9.6,1.9,19.4,3.3,29.2,3c10-0.2,19.5-3.8,29.4-4.8c7.6-0.7,14-5.2,20.4-8.7
		c5.6-3,9.6-8.1,14.1-12.5c3.9-4,8.2-7.6,11.4-12.3C386.6,423.8,390.8,404.9,386.8,387z"/>
</g>
<g>
	<path class="st49" d="M275.5,411.7c10.9-3.4,23.1-2.1,33.6,1.9c5.8,1.8,2.4,8.6,1.7,12.8c-0.6-1.8-1.4-3.6-3.1-4.4
		c-11.8-7.1-27.7-6.4-38.7,1.9C269.8,419.3,270.2,413.1,275.5,411.7z"/>
</g>
<g>
	<path class="st50" d="M269,423.8c11.1-8.3,26.9-9,38.7-1.9c1.8,0.8,2.6,2.7,3.1,4.4c-1.2,5.9-3.4,12.7-9.3,15.4
		C288.4,446.5,271.5,438.1,269,423.8z"/>
</g>
</svg>
