<svg id="Layer_1" data-name="Layer 1" xmlns="http://www.w3.org/2000/svg" viewBox="0 0 235.27 235.26"><defs><style>.cls-1,.cls-2,.cls-3{fill:#ffce09;}.cls-1{stroke:#fdb92c;stroke-width:36px;}.cls-1,.cls-2,.cls-7,.cls-8{stroke-miterlimit:10;}.cls-2,.cls-7,.cls-8{stroke:#f99c32;}.cls-2{stroke-width:22px;}.cls-4{fill:#fdf5a6;}.cls-5,.cls-7,.cls-8{fill:#fddb56;}.cls-6{fill:#808181;}.cls-7{stroke-width:3px;}.cls-8{stroke-width:2px;}.cls-9{fill:#fee5da;}.cls-10{fill:#ffead0;}.cls-11{fill:#f99c32;}</style></defs><circle class="cls-1" cx="117.63" cy="117.63" r="99.63"/><circle class="cls-2" cx="117.63" cy="117.95" r="99.63"/><circle class="cls-3" cx="118.94" cy="117.95" r="99.63"/><path class="cls-4" d="M180.2,44.48a97.39,97.39,0,0,1-133,135.44,97.38,97.38,0,1,0,133-135.44Z" transform="translate(-11.78 -10.96)"/><path class="cls-5" d="M45.15,145.62A94,94,0,0,1,213.68,88.31a94,94,0,1,0-156,104.17A93.57,93.57,0,0,1,45.15,145.62Z" transform="translate(-11.78 -10.96)"/><path class="cls-6" d="M185.71,66c.06-.09.14-.15.23,0a1.53,1.53,0,0,1-.13.13A.47.47,0,0,1,185.71,66Z" transform="translate(-11.78 -10.96)"/><path class="cls-7" d="M208.73,82l-.32-.31c-.68.87-1.31,1.8-2,2.59C196.43,95,187.2,106.5,177.83,117.88c-.77.94-.85,1.48.1,2.42a33.69,33.69,0,0,1,8.69,13.19c.61,1.82,1.2,3.65,1.82,5.53C199.5,121.94,206.89,103.26,208.73,82Z" transform="translate(-11.78 -10.96)"/><path class="cls-8" d="M208.45,82a48.26,48.26,0,0,0-7,2.42c-15,5.74-29.82,12-44.35,19a2,2,0,0,1-2.74-.52,26.19,26.19,0,0,0-10.59-7.7c-7.62-3.33-15.45-5.4-23.74-4.81a15.86,15.86,0,0,0-4.86.94,31.88,31.88,0,0,1,5.1,1.22,7.47,7.47,0,0,1,3.07,1.62c.43.46.88.93.7,1.66a1.57,1.57,0,0,1-1.39,1.22c-.84.17-1.68.32-2.51.53-6,1.49-11.54,4.1-16,9a5.52,5.52,0,0,0-1.6,2.52.56.56,0,0,0,.67,0,44.75,44.75,0,0,1,15.17-3.35,28.28,28.28,0,0,1,10.11.93c.57.17,1.32.32,1.09,1.19s-.9.53-1.43.44a43.37,43.37,0,0,0-14.86.24A35.87,35.87,0,0,0,100.88,113c-1,.62-1.89.27-2.15-.75a3.28,3.28,0,0,1,.19-1.76,16,16,0,0,1,4-6.66c.63-.65.63-1-.12-1.54-2.14-1.59-4.2-3.31-6.34-4.89-9.72-7.22-19.53-14.29-30-20.18-.39-.22-.75-.59-1.28-.52a3.22,3.22,0,0,0,.29,1.74A181.42,181.42,0,0,0,74,102.26c2.91,6.67,5.62,13.43,8.74,20a2.26,2.26,0,0,1-.09,2.58,27.52,27.52,0,0,0-2.84,4.91,50.31,50.31,0,0,0-3.71,37.95c3.67,12.86,12,21.71,22.55,28.11,9.38,5.71,19.86,7,30.39,6.82,8.74-.12,17.13-2.5,25.29-6,11.46-4.87,20.87-12.37,27.47-23.84A50.65,50.65,0,0,0,189,145.88c-.2-8.39-2.48-15.86-8.3-21.73-.87-.88-1.7-1.81-2.52-2.75a3.7,3.7,0,0,1-.18-5.21c9.17-10.65,18.42-21.22,28.13-31.29a18.71,18.71,0,0,0,2.49-2.76s.16-.15.15-.16S208.54,81.9,208.45,82Z" transform="translate(-11.78 -10.96)"/><path class="cls-7" d="M75.56,139.45a43.92,43.92,0,0,1,8.64-18.17,1.4,1.4,0,0,0,0-1.78c-2.6-4.84-5.11-9.72-7.59-14.61-4.84-9.53-9.57-19.09-12.79-29.21-.06-.2-.08-.48-.43-.47C54.68,92.66,60.19,125.93,75.56,139.45Z" transform="translate(-11.78 -10.96)"/><path class="cls-4" d="M76,138.83C62.24,126.19,57.32,95.08,65.12,78.77c.31,0,.33.25.38.44,2.88,9.46,7.1,18.4,11.42,27.31,2.22,4.57,4.46,9.13,6.79,13.65a1.38,1.38,0,0,1,0,1.67A41.88,41.88,0,0,0,76,138.83Z" transform="translate(-11.78 -10.96)"/><path class="cls-4" d="M207.48,85.57c-1.62,18.76-8.15,35.21-17.92,50.24-.55-1.65-1.06-3.26-1.61-4.86a29.77,29.77,0,0,0-7.67-11.62c-.84-.82-.77-1.3-.09-2.13,8.28-10,16.43-20.18,25.21-29.63.65-.7,1.2-1.51,1.8-2.28Z" transform="translate(-11.78 -10.96)"/><path class="cls-9" d="M156,167.78a29.53,29.53,0,0,1-.06,6.84,21,21,0,0,1-7.56,12.8c-6.1,4.91-13.06,6.64-20.52,6.13A27.06,27.06,0,0,1,113,187.89a21.29,21.29,0,0,1-8.18-13.31,17.5,17.5,0,0,1,.08-6.45,2.85,2.85,0,0,0,.17-1.48,16.57,16.57,0,0,1,4.06-1.92c.56-.19,1.21-.66,1.7-.36s.06,1.09.22,1.64a6.57,6.57,0,0,0,.16.67c.48,1,0,1.53-.78,2a15,15,0,0,0-4.74,4.54c-.22.34-.73.77-.24,1.17s.73-.26,1-.58a19.2,19.2,0,0,1,4.88-4.39c.47-.31.74-.36,1.14.18,2.92,3.95,6.87,4.66,11.16,3.91a9,9,0,0,0,6.5-4.56c4.48,6.85,16,6.88,19-1.37.16-.44.4-.69.85-.66A20.79,20.79,0,0,1,156,167.78Z" transform="translate(-11.78 -10.96)"/><path class="cls-10" d="M119,151.42l.65-.18a57.18,57.18,0,0,1,5.66-1.43c8-1.22,15.58.15,22.35,5.3.29.22.59.38.58.82a33,33,0,0,0-7.86,3.47c-.45.26-1,.64-.56,1.29s.82.28,1.24,0l.78-.46a30.47,30.47,0,0,1,8-3.54c.32.87,1.09,1.32,1.62,2,.31.4.79.7.65,1.36a42.77,42.77,0,0,0-4.4.64c-1.9.46-3.75,1.11-5.61,1.71-.41.13-.86.38-.69,1s.71.5,1.16.36.79-.31,1.19-.46a25.68,25.68,0,0,1,9.87-2c.17,1.4,1.26,2.36,1.52,3.72.07.4.2.79.3,1.18-1.37.12-2.67-.49-4-.44s-2.18-.17-1.83-1.9c.05-.23.05-.59-.44-.59-.11.24-.26.51-.37.8a2,2,0,0,1-2.3,1.58,15.32,15.32,0,0,0-3.29.3c-.54.07-1.28.15-1.18.94s.77.6,1.34.51a10.71,10.71,0,0,1,3.67-.31,1.76,1.76,0,0,1-.09.44c-3.07,5.27-11.8,5.43-15.41.18a.84.84,0,0,1,.21-1.35,16.4,16.4,0,0,0,3.61-3.86,4.14,4.14,0,0,0,.58-3.66c-.61-1.85-2.1-2.18-3.6-2.32a19.18,19.18,0,0,0-8.25,1.39c-2.73,1-3.18,3.43-1.13,5.65a15.57,15.57,0,0,0,4.76,3.14c1.18.58,1.26.68.36,1.67a9.2,9.2,0,0,1-8.66,2.94,8.59,8.59,0,0,1-5.19-2.4c-.57-.6-.54-.94.23-1.23a16.36,16.36,0,0,1,3.38-1.19c.5-.07,1.15-.25,1-1s-.87-.6-1.37-.4c-1.07.41-2.13.9-3.19,1.37-1.59.71-1.52.69-2-1.2-.3-1.13-.12-1.58,1-1.63,1.4-.07,2.79-.3,4.18-.45.48-.05,1-.07,1-.74s-.53-.73-1-.75c-.21,0-.42,0-.64,0A28.43,28.43,0,0,0,106,164.53a11.58,11.58,0,0,1,2-3.93,2.47,2.47,0,0,0,.56-1.2,23.69,23.69,0,0,1,5.19.07,19.72,19.72,0,0,1,3.5.61c.42.12.93.2,1.07-.38s-.32-.87-.81-1c-.33-.08-.66-.17-1-.24a30.58,30.58,0,0,0-6.18-.57c1.3-1.93,3.18-3.07,5-4.34C116.46,152.7,117.91,152.39,119,151.42Z" transform="translate(-11.78 -10.96)"/><path class="cls-11" d="M106,164.52a28.61,28.61,0,0,1,10.84-2.76c.22,0,.43,0,.64,0,.48,0,1,.07,1,.75s-.56.7-1,.75c-1.39.15-2.78.37-4.18.44-1.13.06-1.31.5-1,1.64.51,1.88.44,1.9,2,1.19,1.06-.47,2.11-1,3.19-1.37.5-.19,1.21-.44,1.37.41.14.7-.51.88-1,.95a15.83,15.83,0,0,0-3.38,1.2c-.77.29-.8.63-.23,1.23a8.58,8.58,0,0,0,5.19,2.39,9.18,9.18,0,0,0,8.66-2.93c.9-1,.82-1.09-.36-1.68a15.36,15.36,0,0,1-4.76-3.13c-2-2.23-1.6-4.69,1.13-5.66a19.18,19.18,0,0,1,8.25-1.39c1.5.15,3,.48,3.6,2.32a4.13,4.13,0,0,1-.58,3.66,16.26,16.26,0,0,1-3.61,3.87.84.84,0,0,0-.21,1.35c3.61,5.24,12.34,5.09,15.41-.18a1.86,1.86,0,0,0,.09-.44,11,11,0,0,0-3.67.3c-.57.1-1.24.29-1.34-.51s.64-.86,1.18-.94a16,16,0,0,1,3.29-.29,2,2,0,0,0,2.3-1.59c.11-.29.26-.56.37-.79.49,0,.49.36.44.58-.35,1.74.58,2,1.83,1.91s2.65.55,4,.44c1.35.37,2.69.73,4,1.11.41.12.94.23.82.83s-.66.36-1,.28a16.19,16.19,0,0,0-3.22-.68,21.13,21.13,0,0,0-6.17-.85c-.45,0-.68.23-.84.67-3,8.25-14.48,8.22-19,1.37a8.91,8.91,0,0,1-6.5,4.56c-4.28.75-8.24,0-11.16-3.91-.4-.54-.67-.5-1.14-.18a18.79,18.79,0,0,0-4.87,4.39c-.24.32-.47,1-1,.58s0-.83.25-1.17a14.94,14.94,0,0,1,4.73-4.54c.83-.5,1.26-1,.78-2a4.68,4.68,0,0,1-.15-.67c-.16-.56.23-1.37-.23-1.64s-1.14.16-1.69.36a16.63,16.63,0,0,0-4.07,1.92,8.78,8.78,0,0,0-2.38,1.55c-.38.26-.81,1-1.25.41s.32-.94.67-1.29A22.34,22.34,0,0,1,106,164.52Z" transform="translate(-11.78 -10.96)"/><path class="cls-11" d="M148.68,139.9a13.24,13.24,0,0,1-2.27,7.62c-2.08,2.91-5.23,2.9-7.34,0-3-4.07-2.92-11.54.13-15.51,2.09-2.73,5.12-2.76,7.2,0C148,134.09,148.53,136.58,148.68,139.9Z" transform="translate(-11.78 -10.96)"/><path class="cls-11" d="M149.84,156.71a30.47,30.47,0,0,0-8,3.54l-.78.47c-.42.25-.9.53-1.24,0s.11-1,.56-1.29a32.2,32.2,0,0,1,7.86-3.47c3.28-.9,6.56-1.87,10-1.33a15.68,15.68,0,0,1,2.22.56c.33.1.64.34.48.8s-.48.34-.77.28a20.4,20.4,0,0,0-2-.46A17.85,17.85,0,0,0,149.84,156.71Z" transform="translate(-11.78 -10.96)"/><path class="cls-11" d="M110.29,157.89a31.32,31.32,0,0,1,6.18.58c.33.07.66.16,1,.24.48.12,1,.34.81,1s-.65.51-1.07.39a19.9,19.9,0,0,0-3.5-.62,24.34,24.34,0,0,0-5.19-.06,18.55,18.55,0,0,0-8.75,1.93c-.31.15-.6.33-.91.49s-.59.2-.77-.17.08-.61.33-.78a11.85,11.85,0,0,1,2.51-1.33A30.63,30.63,0,0,1,110.29,157.89Z" transform="translate(-11.78 -10.96)"/><path class="cls-11" d="M153.63,161.33a25.72,25.72,0,0,0-9.87,2c-.39.16-.79.33-1.19.46s-1,.33-1.16-.36.28-.83.69-1c1.86-.6,3.71-1.26,5.61-1.72a43.17,43.17,0,0,1,4.4-.64,20.22,20.22,0,0,1,7.7.56c.24.07.49.15.73.24s.7.29.59.75-.57.47-.95.36a17,17,0,0,0-5.28-.76C154.47,161.23,154.05,161.29,153.63,161.33Z" transform="translate(-11.78 -10.96)"/><path class="cls-11" d="M120.3,139c0,3.86-.56,6.71-2.54,9s-5,2.2-6.83-.35c-3-4.2-3-11.56.1-15.74,2.21-3,5.74-2.44,7.72,1.2A12.22,12.22,0,0,1,120.3,139Z" transform="translate(-11.78 -10.96)"/><polygon class="cls-11" points="167.26 107.25 172.72 107.44 178.17 107.63 183.63 107.8 184.5 107.85 183.91 108.41 181.44 110.78 179.58 110.71 174.13 110.52 168.68 110.35 170.09 113.43 175.54 113.62 178.37 113.71 176.44 115.58 172.71 119.17 173.97 121.93 177.71 118.35 181.43 114.77 182.39 113.84 186.45 113.98 185.17 111.18 185.44 110.91 188.5 107.98 188.89 107.6 187.66 104.91 187.54 104.9 182.22 104.72 176.76 104.54 171.32 104.36 165.85 104.17 167.26 107.25"/><polygon class="cls-11" points="65.6 126.06 62.73 121.06 59.87 116.07 56.99 111.08 56.55 110.28 57.3 110.47 60.42 111.26 61.4 112.97 64.26 117.96 67.14 122.94 68.67 119.83 65.8 114.83 64.31 112.25 66.77 112.86 71.52 114.05 72.89 111.26 68.14 110.06 63.41 108.88 62.19 108.58 60.06 104.86 58.67 107.68 58.32 107.59 54.45 106.61 53.94 106.49 52.61 109.2 52.66 109.31 55.47 114.19 58.34 119.19 61.2 124.17 64.07 129.17 65.6 126.06"/><path class="cls-5" d="M120.73,134.87c0,1.93-.28,3.35-1.27,4.5a2,2,0,0,1-3.41-.18,7.3,7.3,0,0,1,0-7.87c1.1-1.5,2.87-1.22,3.85.6A6.08,6.08,0,0,1,120.73,134.87Z" transform="translate(-11.78 -10.96)"/><path class="cls-5" d="M149.51,134.75c0,1.93-.27,3.36-1.27,4.5a2,2,0,0,1-3.41-.17,7.32,7.32,0,0,1,0-7.88c1.1-1.49,2.87-1.22,3.86.6A6.2,6.2,0,0,1,149.51,134.75Z" transform="translate(-11.78 -10.96)"/></svg>