<svg width="256" height="256" viewBox="0 0 256 256" fill="none" xmlns="http://www.w3.org/2000/svg">
<path d="M34.6177 43.1225C60.175 14.2745 99.4511 -1.83773 137.872 0.940232C158.472 2.17963 178.73 8.71853 196.21 19.6594C207.364 26.583 217.322 35.387 225.827 45.3876C224.716 45.6013 223.647 45.815 222.536 46.0287C218.733 40.6865 213.732 36.37 208.775 32.1816C196.167 21.4972 181.294 13.5052 165.481 8.76127C136.035 -0.213691 103.255 2.35058 75.6461 15.9412C60.8161 23.0357 47.3964 33.1219 36.4555 45.4304C35.387 45.2594 34.3613 45.0885 33.2928 44.9175C33.7202 44.3192 34.1903 43.7209 34.6177 43.1225Z" fill="#FAB732"/>
<path d="M197.62 59.833C200.612 58.5081 203.347 56.243 206.809 56.243C201.21 59.6193 195.184 62.3973 190.098 66.5856C188.688 67.7395 185.782 68.9789 187.192 71.244C189.756 73.4664 192.663 75.3469 195.056 77.7829C197.15 79.7489 199.501 81.5011 201.253 83.8517C202.791 85.8177 204.415 87.6981 206.168 89.4931C206.253 90.3479 206.125 91.3309 206.852 91.9719C210.356 96.203 213.39 100.819 215.869 105.734C214.117 106.759 212.151 107.315 210.185 107.742C209.629 109.537 210.1 111.418 210.014 113.255C209.33 115.691 207.621 117.828 207.706 120.478C208.048 133.385 204.672 146.121 199.885 158.002C197.492 164.028 194.244 169.669 190.996 175.268C187.192 182.961 182.576 190.44 176.208 196.338C170.268 202.706 161.806 205.74 154.797 210.698C154.028 211.253 153.6 212.065 153.13 212.835L153.045 212.963C124.325 220.271 92.0148 215.955 67.6969 198.432V198.347C67.8679 196.851 68.1243 195.227 67.5687 193.774C66.8422 191.85 65.5173 190.269 64.4916 188.517C61.9273 184.115 59.9186 179.285 59.0212 174.242C58.0382 168.986 57.5681 163.601 56.5851 158.344C55.132 151.164 55.5594 143.77 56.4569 136.505C57.739 129.795 58.3373 122.914 59.9186 116.247C60.7307 112.913 60.9871 109.409 62.4829 106.289C64.6625 101.631 67.0131 97.1005 69.7911 92.7839C72.3554 88.5102 76.7574 85.3903 78.3387 80.5182C79.0225 78.3385 80.3474 75.646 78.7661 73.5519C78.0823 72.4834 76.8001 72.398 75.6889 72.4834H75.518C74.1504 71.1158 72.74 69.791 71.3297 68.4233C71.5861 68.3806 72.1417 68.2951 72.3981 68.2524C75.4752 69.5773 78.7233 68.2097 81.8859 68.4661C83.3818 70.0046 84.8776 68.4233 86.2452 67.6541C90.9036 65.6881 96.0322 65.3462 101.032 65.0043C105.99 64.6624 110.948 65.4317 115.905 65.3035C118.897 65.2607 121.931 65.389 124.923 65.389C123.043 64.7479 121.119 64.235 119.153 63.7222L119.068 63.594C118.641 62.8674 118.213 62.1409 117.743 61.3716C120.179 61.5853 121.718 64.0641 124.196 63.9359C128.427 64.0641 132.616 64.0213 136.804 63.8076C135.522 62.7392 134.24 61.628 133.086 60.4314C136.676 60.1322 140.266 60.7305 143.77 61.5425C148.044 62.3546 152.446 61.9699 156.763 62.0554C156.207 61.4571 155.694 60.8587 155.139 60.2604C157.959 61.1152 160.866 61.3289 163.686 62.0127C169.413 63.9359 175.696 64.5769 181.636 63.3803C181.978 63.3375 182.619 63.2093 182.961 63.1666C187.961 63.2521 193.133 62.2263 197.62 59.833ZM91.1173 107.657C88.3393 112.572 87.6128 118.512 88.553 124.025C89.2368 127.915 90.8609 131.846 94.0235 134.368C96.2886 136.248 99.6221 136.804 102.315 135.479C106.332 133.599 108.64 129.368 109.794 125.222C110.905 120.905 111.204 116.204 109.751 111.931C109.623 114.324 109.537 116.974 107.785 118.811C106.631 120.093 104.537 119.752 103.554 118.469C101.118 115.606 100.776 111.503 101.289 107.913C101.503 105.862 102.87 104.323 103.981 102.699C102.272 102.101 100.477 101.374 98.6392 101.759C95.3056 102.314 92.7413 104.836 91.1173 107.657ZM144.497 110.392C141.762 115.82 141.292 122.273 142.873 128.128C143.899 131.804 145.95 135.479 149.412 137.274C146.976 137.573 144.582 138.556 142.104 138.129C138.898 137.659 135.736 136.932 132.488 137.103C128.299 137.231 124.068 136.719 119.923 137.488C116.333 138.214 112.828 136.761 109.238 137.06C105.093 137.274 100.862 136.676 96.716 137.531C91.4165 139.026 86.117 140.864 81.2876 143.685C79.2789 145.138 76.9283 146.42 75.8171 148.728C73.9794 149.326 72.0989 149.967 70.6459 151.292C70.945 151.677 71.5006 152.403 71.7998 152.788C68.4235 156.164 66.5858 160.737 65.3036 165.225C64.4061 167.49 64.7053 169.969 64.1924 172.319C63.5514 177.661 64.5343 183.303 67.4405 187.833C68.8936 189.714 70.9023 191.081 72.4836 192.876C75.7744 196.637 80.2191 199.201 84.5357 201.637C88.4248 203.475 92.6559 204.287 96.8869 204.757C101.075 206.253 105.52 205.185 109.794 205.697C117.016 207.279 124.453 207.45 131.804 207.407C136.035 207.151 140.18 206.381 144.326 205.697C150.224 205.783 155.523 202.877 161.207 201.723C162.789 201.466 164.498 202.535 165.951 201.637C169.413 199.671 172.49 197.107 175.14 194.158C179.414 189.072 183.859 183.687 185.354 177.02C185.525 173.046 185.483 168.772 183.559 165.182C182.747 163.515 182.705 161.635 182.363 159.882C182.064 160.182 181.764 160.524 181.465 160.823C181.465 158.6 179.841 156.848 179.67 154.626C178.901 150.737 174.969 148.856 172.148 146.548C174.2 146.591 177.662 148.514 178.217 145.352C174.67 143.599 170.567 143.685 166.721 143.728C167.575 143.471 168.345 143.129 169.157 142.83C164.712 140.308 159.797 138.599 154.711 138.086C157.447 137.103 159.754 135.094 161.207 132.616C164.541 127.017 165.097 120.051 163.601 113.726C163.216 116.204 163.259 119.068 161.336 120.905C160.224 122.017 158.259 121.76 157.318 120.564C154.797 117.657 154.412 113.426 155.01 109.751C155.224 107.742 156.677 106.289 157.575 104.622C155.78 104.024 153.899 103.34 152.019 103.853C148.643 104.494 146.036 107.358 144.497 110.392Z" fill="#FAB732"/>
<path d="M19.5313 63.5086C20.1296 65.6882 20.3006 68.1243 19.1039 70.1757C14.189 79.2361 10.4708 88.9803 7.9493 98.9383C4.4448 112.529 3.59004 126.632 4.61575 140.608C6.0261 156.335 10.5136 171.764 17.5653 185.91C21.54 193.389 26.1557 200.569 31.4124 207.236C43.1653 221.767 58.2518 233.648 75.2615 241.469C98.8956 252.453 126.034 255.573 151.549 250.359C172.234 246.256 191.68 236.64 207.792 223.135C211.852 219.844 215.356 215.997 219.032 212.322C234.888 195.227 245.786 173.644 250.273 150.779C255.615 123.598 251.726 94.6218 238.905 70.0047C237.708 67.996 238.05 65.6455 238.264 63.4658C251.384 85.8605 256.983 112.486 254.547 138.3C252.325 163.131 242.623 187.192 227.109 206.681C213.818 223.434 196.338 236.811 176.636 245.187C154.07 254.846 128.684 257.71 104.537 253.436C80.2618 249.205 57.3116 237.495 39.6181 220.357C24.959 206.253 13.8471 188.474 7.52193 169.157C-3.97457 134.368 0.51291 94.75 19.5313 63.5086Z" fill="#FAB732"/>
<path d="M75.6461 15.9412C103.297 2.35053 136.077 -0.256483 165.481 8.76121C181.294 13.5051 196.167 21.4971 208.775 32.1816C213.732 36.3699 218.733 40.6864 222.536 46.0287C221.211 46.2851 219.886 46.4988 218.604 46.7552C217.322 44.7038 215.613 42.9943 213.86 41.3275C191.338 18.9328 159.541 6.06873 127.744 6.92349C98.0835 7.13717 68.8508 19.1465 47.1399 39.1906C44.8321 41.3702 42.396 43.5499 40.5155 46.1141C39.1907 45.8577 37.8658 45.6013 36.4982 45.3449C47.3963 33.1218 60.816 23.0357 75.6461 15.9412Z" fill="#F99B30"/>
<path d="M236.768 49.4905C237.794 54.0634 237.153 58.8928 238.264 63.423C238.05 65.6027 237.751 67.9532 238.905 69.9619C251.726 94.5362 255.615 123.555 250.273 150.737C245.786 173.601 234.887 195.184 219.032 212.279C215.314 215.912 211.809 219.801 207.792 223.092C191.679 236.64 172.191 246.213 151.549 250.316C126.034 255.573 98.8955 252.41 75.2615 241.426C58.2518 233.605 43.1653 221.724 31.4124 207.193C26.1556 200.526 21.5399 193.389 17.5653 185.867C10.5135 171.721 6.02606 156.335 4.61571 140.565C3.63274 126.632 4.4875 112.486 7.94927 98.8955C10.5135 88.8948 14.189 79.1933 19.1039 70.1329C20.3005 68.0815 20.1296 65.6881 19.5312 63.4658L19.4885 63.3376C19.6595 63.0384 20.0441 62.4828 20.2578 62.1836C20.4287 68.1242 20.0441 74.022 20.386 79.9626C20.215 78.6805 20.0441 77.3983 19.8731 76.1162C4.1456 107.4 3.29084 145.693 17.3089 177.747C29.2327 205.527 52.183 228.391 80.0908 240.101C99.8357 248.564 121.931 251.427 143.215 248.521C165.054 245.529 186.081 236.554 203.219 222.664C220.741 208.775 234.118 189.842 241.811 168.857C251.641 142.317 251.683 112.358 242.153 85.7322C240.7 82.2277 239.674 78.4668 237.494 75.3042C238.05 66.7138 237.665 58.0808 236.768 49.4905Z" fill="#F99B30"/>
<path d="M47.0972 39.2333C68.8507 19.1465 98.0835 7.17991 127.701 6.96622C159.498 6.11146 191.295 18.9756 213.818 41.3702C215.57 43.037 217.279 44.7465 218.562 46.7979C217.365 47.0116 216.168 47.2253 214.972 47.3963C202.364 33.6347 186.294 23.1211 168.729 16.8814C154.07 11.6674 138.343 9.44502 122.829 10.3425C94.6644 12.0948 67.1412 24.0614 47.0117 43.8918C45.8578 44.9602 44.8748 46.5415 43.1225 46.6697C42.225 46.5415 41.3703 46.3706 40.4728 46.1996C42.396 43.5926 44.7893 41.413 47.0972 39.2333Z" fill="#FECC08"/>
<path d="M237.452 75.3468C239.674 78.5094 240.7 82.2276 242.11 85.7748C251.641 112.401 251.598 142.36 241.768 168.9C234.075 189.842 220.698 208.817 203.176 222.707C186.038 236.597 165.011 245.615 143.172 248.563C121.888 251.47 99.793 248.606 80.0481 240.144C52.1402 228.434 29.2327 205.526 17.2661 177.747C3.24808 145.651 4.10284 107.4 19.8304 76.1161C20.0013 77.3982 20.215 78.6804 20.3432 79.9625C20.386 80.3899 20.5142 81.2446 20.5569 81.672C16.4113 91.8009 13.1633 102.314 11.7529 113.17C9.61602 128.555 10.428 144.411 14.4454 159.412C19.2321 177.661 28.4207 194.756 41.1993 208.646C57.1406 226.169 78.6377 238.563 101.802 243.563C116.504 246.854 131.846 247.11 146.676 244.632C167.233 241.213 186.807 232.067 202.834 218.732C219.117 205.185 231.768 187.235 238.905 167.276C248.307 141.42 248.393 112.272 238.862 86.4587C238.307 84.9628 237.665 83.5097 237.024 82.0566C237.067 79.7915 237.238 77.5692 237.452 75.3468Z" fill="#FECC08"/>
<path d="M122.829 10.3426C138.343 9.48781 154.07 11.6674 168.729 16.8815C186.295 23.1212 202.364 33.6347 214.972 47.3963C204.971 48.422 195.184 50.7726 185.44 53.1232C181.38 53.978 177.747 55.9439 174.072 57.8244C171.08 59.4484 167.533 58.5082 164.584 57.3115C154.754 52.6104 147.318 44.4047 138.941 37.6093C134.624 34.1048 130.351 30.3866 126.504 26.3265C125.521 25.1299 123.384 25.7709 123.555 27.4377C123.726 32.0962 126.376 36.1563 127.402 40.6437C118.213 39.8317 108.383 39.1052 99.7503 42.9943C98.2972 43.5927 95.9466 45.174 97.5279 46.8407C101.631 47.781 106.289 47.6955 109.666 50.6444C106.289 51.5419 102.785 52.0548 99.4939 53.3796C95.3483 55.0464 91.2882 57.0551 87.741 59.7476C82.5697 55.8157 76.5009 52.9523 70.0902 51.7556C70.3039 50.8154 70.8168 49.9606 71.5006 49.3195C82.9971 36.7973 96.0748 25.6 110.905 17.2234C115.478 14.5736 120.393 12.6504 125.436 10.9836C124.581 10.7699 123.684 10.5135 122.829 10.3426Z" fill="#4E112E"/>
<path d="M230.443 107.016C234.289 99.1947 235.571 90.5189 237.067 82.014C237.665 83.4671 238.349 84.9202 238.905 86.416C237.879 88.211 238.734 90.3907 238.52 92.3139C237.965 110.648 232.366 128.342 225.742 145.266C225.613 144.967 225.314 144.411 225.143 144.155C226.254 136.077 225.913 127.744 224.118 119.794C223.904 118.64 223.519 117.358 224.417 116.418C226.554 113.384 228.904 110.477 230.443 107.016Z" fill="#4E112E"/>
<path d="M16.0695 150.566C18.6765 136.505 23.7195 123 29.9593 110.136C31.9252 114.11 35.0451 117.273 37.4384 120.991C35.1306 128.898 33.8912 137.146 34.3613 145.394C35.0878 162.874 43.1225 179.756 55.5165 192.021C67.013 203.732 82.014 211.724 97.8271 215.869C115.093 220.399 133.428 220.613 150.779 216.681C168.815 212.621 186.038 204.159 199.543 191.466C199.714 192.663 198.988 193.645 198.304 194.543C190.355 205.484 181.722 215.997 171.892 225.314C165.097 231.554 158.002 237.537 150.01 242.153C148.813 242.837 147.702 243.692 146.719 244.675C131.889 247.153 116.546 246.897 101.844 243.606C78.6805 238.563 57.2261 226.212 41.2421 208.689C28.4635 194.799 19.2748 177.704 14.4882 159.455C15.2574 156.549 15.4711 153.515 16.0695 150.566Z" fill="#4E112E"/>
<path d="M47.0117 43.8918C67.1413 24.0614 94.6645 12.0948 122.829 10.3425C123.684 10.5562 124.581 10.7699 125.436 10.9836C120.435 12.6076 115.478 14.5736 110.905 17.2233C96.0748 25.6 82.9543 36.7973 71.5005 49.3195C70.8167 50.0033 70.3039 50.8153 70.0902 51.7556C61.158 49.7041 52.2685 47.5245 43.1226 46.627C44.8748 46.4988 45.8578 44.9602 47.0117 43.8918Z" fill="#2F071A"/>
<path d="M20.5997 81.6721C21.5827 91.7155 25.0017 101.374 29.9166 110.136C23.6768 122.957 18.6338 136.505 16.0267 150.566C15.4712 153.515 15.2147 156.549 14.4454 159.455C10.4281 144.411 9.61606 128.598 11.753 113.213C13.206 102.315 16.4541 91.801 20.5997 81.6721Z" fill="#2F071A"/>
<path d="M238.52 92.3566C238.691 90.3906 237.879 88.2537 238.905 86.4587C248.435 112.272 248.35 141.462 238.948 167.276C231.768 187.235 219.16 205.185 202.877 218.733C186.85 232.067 167.319 241.213 146.719 244.632C147.702 243.649 148.771 242.794 150.01 242.11C158.045 237.537 165.139 231.511 171.892 225.271C181.722 215.955 190.397 205.484 198.304 194.5C198.988 193.603 199.671 192.62 199.543 191.423C212.92 179.072 222.664 162.361 225.143 144.155C225.271 144.454 225.571 145.01 225.742 145.266C232.366 128.385 237.922 110.691 238.52 92.3566Z" fill="#2F071A"/>
<path d="M123.555 27.4377C123.342 25.771 125.521 25.1299 126.504 26.3266C130.393 30.3867 134.624 34.0621 139.026 37.5666C147.403 44.3192 154.839 52.5249 164.669 57.2688C167.618 58.5082 171.165 59.4484 174.157 57.7817C177.79 55.9012 181.465 53.9352 185.525 53.0805C195.269 50.7299 205.056 48.3793 215.057 47.3536C216.254 47.1827 217.45 46.969 218.647 46.7553C219.972 46.4988 221.297 46.2852 222.579 46.0287C223.69 45.815 224.759 45.6441 225.87 45.3877C228.99 44.7893 232.152 44.1055 235.358 44.4047C237.366 45.174 236.469 47.8237 236.811 49.4478C237.708 58.0381 238.093 66.6711 237.494 75.3042C237.281 77.5266 237.11 79.7489 237.11 82.014C235.614 90.5189 234.332 99.1947 230.485 107.016C228.947 110.477 226.596 113.384 224.417 116.418C223.562 117.358 223.904 118.683 224.118 119.794C225.955 127.744 226.254 136.077 225.143 144.155C222.664 162.361 212.92 179.072 199.543 191.423C186.038 204.116 168.815 212.578 150.779 216.638C133.385 220.57 115.05 220.357 97.827 215.826C82.014 211.681 67.013 203.689 55.5165 191.979C43.1225 179.713 35.0878 162.874 34.3612 145.352C33.8911 137.103 35.1305 128.855 37.4384 120.948C35.0451 117.316 31.9252 114.11 29.9165 110.136C25.0016 101.374 21.5399 91.7155 20.5996 81.6721C20.5569 81.2448 20.4287 80.39 20.386 79.9626C20.0441 74.0648 20.4714 68.1242 20.2577 62.1837C19.9158 56.4995 20.8561 50.9008 21.198 45.2594C21.1125 44.0628 22.3519 43.3362 23.4203 43.4645C26.6257 43.5499 29.7883 44.1055 32.9509 44.7893L32.7372 43.8918C33.3783 43.6354 34.0193 43.4217 34.6604 43.1653C34.1903 43.7636 33.7629 44.3192 33.2928 44.9175C34.3612 45.0458 35.4297 45.2167 36.4554 45.4304C37.7803 45.6441 39.1479 45.9433 40.4728 46.1997C41.3703 46.3706 42.225 46.5416 43.1225 46.6698C52.2684 47.5673 61.1579 49.7469 70.0901 51.7983C76.5008 52.995 82.5696 55.8584 87.7409 59.7903C91.3309 57.0978 95.391 55.1319 99.4938 53.4224C102.742 52.0975 106.246 51.5847 109.665 50.6872C106.332 47.7382 101.631 47.8237 97.5279 46.8835C95.9466 45.2167 98.3399 43.6354 99.7502 43.0371C108.383 39.1479 118.213 39.8745 127.402 40.6865C126.376 36.199 123.726 32.0962 123.555 27.4377ZM127.786 32.1817C128.342 34.404 128.684 36.7119 129.539 38.8488C130.607 41.7977 133.257 43.6781 135.436 45.815C132.274 45.2594 129.197 44.1055 125.991 43.7636C120.051 43.0798 113.982 42.7379 108.084 43.8491L107.999 43.7636C106.631 44.02 105.221 44.3192 103.939 44.8321C106.759 45.6441 109.836 46.4988 111.802 48.8922C113.042 50.3025 114.538 51.4992 116.119 52.4822C112.443 53.6361 108.597 54.2344 104.836 55.0464L104.708 55.1319C100.69 55.9867 96.8868 57.8244 93.3395 59.8758C91.2454 60.7306 89.3649 62.1837 87.6981 63.7222C92.2711 62.2691 97.1005 61.8845 101.844 61.5426C104.195 61.6281 106.588 61.6281 108.939 61.6708C112.358 61.8418 115.649 62.7392 118.94 63.5085L119.025 63.6367C120.948 64.1496 122.871 64.6625 124.795 65.3035C121.803 65.3035 118.769 65.1753 115.777 65.218C110.819 65.3463 105.862 64.577 100.904 64.9189C95.9038 65.2608 90.7753 65.6027 86.1168 67.5686C84.7492 68.3379 83.2534 69.962 81.7576 68.3806C82.014 67.184 82.3132 65.9873 82.6123 64.7907L82.7833 64.8334C83.5526 63.6795 84.4073 62.5683 85.3048 61.4998C79.236 57.0551 71.7569 55.1746 64.5342 53.5933C58.3799 52.4394 52.3112 50.7299 46.0714 50.0888C42.225 49.8751 38.5068 48.9776 34.7031 48.4648C39.5325 49.9179 44.0627 52.1403 48.6784 54.0207C56.4567 58.2945 64.3205 62.5683 71.0731 68.4234L71.2013 68.3806C72.6117 69.7483 74.022 71.0731 75.3896 72.4407H75.5606C76.4581 73.7656 77.8684 75.2615 76.5863 76.8428C76.1589 76.8428 75.3041 76.8 74.8768 76.7573C69.5773 70.3893 62.611 65.6454 55.431 61.6281C49.2768 57.9953 42.7379 54.9609 35.8998 52.8241C32.8654 51.9693 29.831 51.2428 26.7966 50.4735C25.6855 50.3025 23.8477 49.4478 23.9332 51.2855C23.1639 58.4227 23.6768 65.6027 23.5058 72.7827C23.1212 81.0738 24.3178 89.4932 27.3522 97.2287C30.3866 104.152 33.8911 111.033 38.8915 116.76C43.7208 104.152 51.9265 92.9977 61.9272 83.98C62.9956 82.8688 64.3632 82.3987 65.6881 83.3817C65.7736 86.0314 62.8674 87.0144 61.4998 88.8521L61.4143 88.8094C60.0895 90.3052 58.4227 91.5446 57.3542 93.2114C45.9005 105.392 38.4641 121.547 37.5239 138.343C36.7118 151.378 40.0454 164.584 46.7552 175.824C52.012 184.713 59.2347 192.406 67.6541 198.389V198.475C91.9719 215.997 124.282 220.314 153.002 213.006L153.087 212.877C161.421 210.912 169.541 207.834 176.978 203.603C190.996 196.466 203.176 185.525 211.595 172.234C218.946 160.566 223.006 146.762 222.622 132.958C222.28 123.555 219.972 114.238 215.784 105.776C213.305 100.861 210.27 96.2458 206.766 92.0147C206.082 91.3736 206.168 90.3907 206.082 89.5359C206.98 89.1513 208.304 88.6384 208.988 89.7069C214.886 96.6304 219.374 104.708 222.323 113.298C228.434 106.845 230.699 97.9125 232.366 89.4504C233.477 83.2107 234.332 76.8427 234.161 70.4748C234.033 63.9359 234.588 57.3543 233.434 50.8581C224.374 52.7813 215.228 55.2601 207.193 60.004C205.997 60.2604 204.971 60.987 203.945 61.5853C200.142 63.8932 196.039 65.7736 192.534 68.5516C190.782 69.5773 189.329 71.5005 187.149 71.3296C185.739 69.0645 188.645 67.8251 190.055 66.6711C195.141 62.4828 201.125 59.7049 206.766 56.3286C209.416 55.3029 211.937 53.8498 214.63 52.9095C219.972 50.6017 225.742 49.405 231.383 47.9519C226.981 48.4221 222.664 49.3195 218.348 50.2598C214.544 50.9008 210.698 50.9863 206.937 51.7129C202.449 52.4394 198.047 53.6361 193.56 54.4481C187.106 55.9012 180.439 57.2688 174.841 60.9443C172.96 61.3716 171.037 61.799 169.114 61.8845C165.567 61.0297 162.148 59.7903 159.028 57.9099C157.703 56.8842 156.292 56.0294 154.968 55.0892C148.856 50.7726 143.728 45.2594 137.787 40.772C135.436 38.5069 132.787 36.6264 130.351 34.4895L130.265 34.1903C129.368 33.5065 128.598 32.8227 127.786 32.1817Z" fill="black"/>
<path d="M91.1172 107.657C92.7412 104.836 95.3055 102.315 98.5963 101.759C100.434 101.374 102.229 102.101 103.939 102.699C102.827 104.323 101.46 105.862 101.246 107.913C100.733 111.503 101.118 115.606 103.511 118.469C104.494 119.794 106.588 120.093 107.742 118.811C109.494 116.974 109.58 114.324 109.708 111.931C111.161 116.204 110.862 120.906 109.751 125.222C108.597 129.325 106.332 133.556 102.272 135.479C99.5793 136.804 96.2885 136.206 93.9806 134.368C90.818 131.846 89.2367 127.872 88.5102 124.025C87.6127 118.469 88.3392 112.572 91.1172 107.657Z" fill="black"/>
<path d="M144.497 110.392C146.035 107.315 148.642 104.451 152.104 103.725C153.985 103.255 155.865 103.939 157.66 104.494C156.763 106.204 155.31 107.657 155.096 109.623C154.497 113.298 154.882 117.529 157.404 120.435C158.344 121.632 160.31 121.888 161.421 120.777C163.344 118.94 163.301 116.033 163.686 113.597C165.182 119.88 164.626 126.846 161.293 132.487C159.84 135.009 157.532 136.975 154.797 137.958C152.959 138.129 151.078 138.086 149.412 137.274C145.95 135.436 143.898 131.761 142.873 128.128C141.291 122.316 141.762 115.82 144.497 110.392Z" fill="black"/>
<path d="M158.13 145.352C160.951 144.54 163.857 143.984 166.806 143.642C170.695 143.599 174.755 143.514 178.302 145.266C177.747 148.471 174.285 146.505 172.234 146.463C168.9 145.993 165.481 146.164 162.147 146.676C160.182 147.018 158.258 147.403 156.335 147.873C154.925 148.258 153.557 148.685 152.19 149.155C150.779 149.668 149.369 150.266 147.959 150.907C145.608 151.976 143.428 153.429 141.206 154.711C142.702 153.044 144.582 151.848 146.463 150.651C148.557 149.326 150.779 148.172 153.044 147.189C154.711 146.505 156.421 145.907 158.13 145.352Z" fill="black"/>
<path d="M75.817 148.728C80.1336 147.446 84.7065 147.232 89.1513 147.574C92.0147 147.873 94.8781 148.386 97.6561 149.113C100.477 149.882 103.255 150.95 105.905 152.19C106.887 152.66 107.87 153.173 108.853 153.728C107.742 153.515 106.674 153.13 105.605 152.745C103.597 152.019 101.545 151.42 99.4938 150.95C98.169 150.651 96.8441 150.437 95.5192 150.224C91.2027 149.668 86.8007 149.583 82.4414 150.01C78.7232 150.352 75.3897 152.019 71.7997 152.788C71.5005 152.403 70.9449 151.677 70.6458 151.292C72.0988 149.967 73.9793 149.283 75.817 148.728Z" fill="black"/>
<path d="M119.324 150.309C123.085 149.711 126.846 148.771 130.692 148.984C131.761 149.113 133.086 149.113 133.77 150.053C134.582 151.292 134.069 152.873 133.342 153.985C131.248 157.019 128.556 159.583 126.632 162.703C126.248 165.438 128.47 167.447 130.351 169.071C133.599 172.106 138.385 172.576 142.659 172.234C147.788 171.849 152.232 168.387 154.797 164.071C152.617 164.156 150.437 164.242 148.343 164.712C147.147 164.926 145.95 165.396 144.71 165.011C147.317 163.729 150.224 163.131 153.087 162.746C153.942 162.618 154.754 162.575 155.609 162.49C156.25 160.951 156.848 159.412 157.361 157.831C157.575 157.703 158.045 157.404 158.258 157.233C158.087 158.985 157.831 160.737 157.489 162.447C160.139 162.49 162.789 162.66 165.396 163.173C166.977 163.472 168.515 163.9 170.054 164.37C172.362 165.182 174.627 166.165 176.721 167.404C176.978 167.575 177.49 167.917 177.747 168.088C177.063 169.499 175.695 170.011 174.371 169.157C171.507 167.618 168.558 166.122 165.396 165.396C163.173 164.883 160.908 164.498 158.643 164.285C158.216 164.242 157.318 164.199 156.891 164.156C155.737 166.507 154.284 168.729 152.403 170.61C148.984 174.157 144.069 176.037 139.155 175.61C138.043 177.448 136.291 179.029 135.906 181.251C135.052 184.5 134.71 188.431 131.633 190.44C125.051 194.244 115.435 190.782 112.999 183.517C112.187 181.38 112.572 179.029 113.255 176.892C112.871 176.123 112.486 175.354 112.059 174.627C109.922 174.371 107.699 174.713 105.563 174.157C103.383 173.644 101.374 172.533 99.622 171.208C97.827 169.755 96.2884 168.045 94.9636 166.122C94.2797 166.293 93.5959 166.421 92.9121 166.592C90.647 167.233 88.4674 168.045 86.3305 168.986C84.2363 169.969 82.2704 171.208 80.4754 172.618C79.407 173.43 78.3813 174.285 77.1419 174.841C76.4153 174.499 75.7742 174.029 75.2186 173.516C78.2958 170.652 81.9285 168.43 85.8176 166.849C88.4247 165.78 91.2026 165.054 93.9378 164.498C93.0831 162.49 92.3993 160.353 92.0146 158.216C90.647 158.344 89.2794 158.429 87.9118 158.6C85.5612 158.9 83.1252 159.156 80.86 159.925C78.7232 160.609 76.8 161.934 74.4921 162.019C74.4066 161.378 74.3639 160.695 74.3639 160.053C75.005 159.583 75.7315 159.199 76.458 158.857C80.219 157.276 84.1936 156.463 88.2537 156.036C90.9889 155.865 93.7669 155.908 96.4594 156.207C98.2116 156.421 99.9639 156.72 101.716 157.105C103.426 157.489 105.135 158.045 106.674 158.942C104.622 158.771 102.571 158.344 100.519 158.173C98.0834 158.002 95.6474 158.045 93.2113 158.088C93.9806 160.182 94.8781 162.19 95.9893 164.114C98.1262 163.985 100.263 163.9 102.4 163.9C104.024 164.071 105.691 164.285 107.272 164.712C103.981 165.438 100.562 164.84 97.2287 165.481C100.819 170.268 107.144 172.106 112.913 171.037C117.23 170.652 120.991 167.789 123.213 164.156C120.478 161.977 117.828 159.669 115.52 157.019C114.324 155.737 113.597 153.6 114.751 152.061C115.905 150.908 117.7 150.608 119.324 150.309ZM117.743 175.952C115.478 176.55 115.264 179.2 114.965 181.123C116.033 187.235 123.213 190.825 128.897 188.773C131.419 187.619 132.359 184.713 132.872 182.192C133.171 180.397 134.624 177.533 132.146 176.721C127.615 175.054 122.401 174.456 117.743 175.952Z" fill="black"/>
<path d="M157.062 153.899C158.686 153.557 160.353 153.301 162.019 153.13C164.413 152.916 166.806 152.916 169.199 153.087C171.721 153.344 174.157 153.899 176.593 154.626C176.507 155.951 175.695 157.105 174.2 156.634C171.849 156.036 169.498 155.438 167.105 155.395C165.353 155.395 163.558 155.481 161.806 155.566C159.968 155.694 158.087 155.908 156.25 156.164C154.626 156.378 153.044 156.677 151.463 157.062C148.984 157.617 146.634 158.6 144.198 159.156C146.335 157.532 148.813 156.463 151.335 155.523C153.173 154.882 155.096 154.284 157.062 153.899Z" fill="black"/>
<path d="M127.786 32.1816C128.598 32.8227 129.41 33.5065 130.222 34.1903L130.308 34.4895C131.376 38.4214 132.616 42.7806 136.377 45.0457C136.163 45.2167 135.693 45.6441 135.436 45.815C133.257 43.7209 130.607 41.7977 129.539 38.8488C128.684 36.7119 128.342 34.404 127.786 32.1816Z" fill="#FD7F0C"/>
<path d="M130.265 34.4468C132.701 36.5837 135.394 38.4641 137.701 40.7292C140.821 45.4304 145.095 49.2341 149.497 52.6531C152.489 54.6191 155.438 56.8414 158.942 57.8671C162.062 59.7476 165.481 60.987 169.028 61.8418C172.918 63.765 177.405 62.6965 181.551 63.2521C175.61 64.406 169.328 63.765 163.601 61.8845C160.78 61.2007 157.831 60.987 155.053 60.1323C155.566 60.7306 156.122 61.3289 156.677 61.9272C152.361 61.8845 147.959 62.2264 143.685 61.4144C140.18 60.6024 136.59 60.004 133 60.3032C134.154 61.4999 135.436 62.6111 136.719 63.6795C132.53 63.8932 128.299 63.9359 124.111 63.8077C121.632 63.9359 120.093 61.4571 117.657 61.2434C113.726 60.5596 109.751 59.7476 106.075 58.0808C110.178 56.4141 114.538 55.5593 118.512 53.5506C120.222 53.978 121.931 54.1062 123.683 54.2344C120.136 52.2257 117.016 49.6187 113.726 47.2681C113.683 46.9262 113.64 46.1997 113.597 45.8578C116.375 45.8151 119.153 45.7723 121.931 45.4732C126.632 44.8321 131.205 46.4989 135.693 47.6955C135.736 47.3964 135.778 46.8408 135.778 46.5843C136.462 46.4561 137.146 46.3279 137.872 46.1997C137.36 45.7723 136.804 45.3449 136.291 44.9176C132.573 42.7807 131.334 38.4214 130.265 34.4468ZM119.239 48.4648C123.171 51.0718 126.376 54.7473 130.65 56.756C134.924 58.9356 139.924 57.7389 144.411 59.4057C142.36 57.4398 139.753 56.2431 137.488 54.5763C135.821 53.4651 134.282 52.1403 132.658 51.0291C131.462 50.1316 129.838 50.4735 128.556 49.8324C125.649 48.5503 122.401 48.2511 119.239 48.4648ZM115.093 58.0808C116.674 59.7049 119.111 59.7476 121.205 60.3032C123 60.6024 124.453 61.7136 126.12 62.3119C128.085 62.9102 130.137 62.7393 132.146 62.5683C130.308 60.7306 128.171 59.192 125.906 57.9099C122.487 56.2431 118.512 56.756 115.093 58.0808Z" fill="#FBC235"/>
<path d="M137.702 40.7292C143.642 45.2167 148.771 50.7299 154.882 55.0464C156.207 56.0294 157.66 56.8842 158.942 57.8671C155.438 56.8414 152.489 54.6191 149.497 52.6531C145.095 49.2341 140.864 45.4304 137.702 40.7292Z" fill="#F8E98A"/>
<path d="M118.769 141.078C121.418 140.821 123.983 140.138 126.59 139.753C129.881 139.24 133.043 140.437 136.248 140.992C139.069 141.462 141.847 142.189 144.369 143.599C147.104 145.138 150.138 145.993 153.044 147.147C150.779 148.13 148.557 149.283 146.463 150.608C143.215 145.352 137.189 142.659 131.291 141.591C126.718 141.121 122.102 141.804 117.743 143.215C112.785 144.54 109.195 148.471 105.862 152.147C103.212 150.908 100.477 149.839 97.6134 149.07C100.263 146.121 104.024 144.796 107.4 142.958C110.905 141.078 115.008 141.505 118.769 141.078Z" fill="#F8E98A"/>
<path d="M108.041 43.8491C113.939 42.7379 120.008 43.0798 125.949 43.7637C129.154 44.1056 132.231 45.2167 135.394 45.8151C135.607 45.6441 136.077 45.2167 136.334 45.0458C136.847 45.4732 137.36 45.9005 137.915 46.3279C137.231 46.4561 136.548 46.5844 135.821 46.7126C135.778 46.969 135.736 47.5246 135.736 47.8238C131.248 46.6271 126.675 44.9603 121.974 45.6014C119.196 45.9433 116.418 45.986 113.64 45.986C113.683 46.3279 113.726 47.0545 113.768 47.3964C111.845 46.1997 109.879 45.1313 108.041 43.8491Z" fill="#FBB42D"/>
<path d="M103.896 44.832C105.221 44.3191 106.588 44.02 107.956 43.7635L108.041 43.849C109.879 45.1312 111.845 46.1996 113.726 47.3963C117.016 49.7469 120.179 52.3111 123.684 54.3625C121.931 54.2343 120.179 54.1061 118.512 53.6787C117.657 53.3368 116.845 52.9522 116.033 52.5248C114.409 51.5418 112.914 50.3879 111.717 48.9348C109.794 46.4988 106.717 45.644 103.896 44.832Z" fill="#FE6B00"/>
<path d="M218.348 50.1743C222.664 49.2341 226.981 48.3366 231.383 47.8665C225.742 49.3195 220.015 50.4735 214.63 52.824C211.937 53.7643 209.416 55.2174 206.766 56.2431C203.347 56.2858 200.569 58.5082 197.577 59.8331C193.09 62.2264 187.919 63.2094 182.875 63.0811C185.098 62.3546 187.235 61.3716 189.243 60.2177C195.569 57.7389 201.552 54.3199 208.048 52.3112C211.424 51.2427 214.972 51.2427 218.348 50.1743Z" fill="#FBC932"/>
<path d="M34.7458 48.4647C38.5495 49.0203 42.2677 49.8751 46.1141 50.0888C52.3539 50.7298 58.4226 52.4393 64.5769 53.5933C71.8423 55.1746 79.2787 57.0123 85.3475 61.4998C84.45 62.5682 83.5953 63.6794 82.826 64.8333L82.655 64.7906C76.629 63.8931 71.415 60.6023 65.6881 58.6791C60.1749 56.7131 54.6617 54.0634 48.7211 54.0206C44.1054 52.0974 39.5325 49.8751 34.7458 48.4647Z" fill="#FD810E"/>
<path d="M119.239 48.4648C122.401 48.2084 125.649 48.5503 128.556 49.8324C129.88 50.4735 131.462 50.1316 132.658 51.0291C134.325 52.183 135.821 53.4652 137.488 54.5764C139.753 56.2004 142.36 57.3971 144.411 59.4057C139.967 57.739 134.966 58.9356 130.65 56.756C126.376 54.7473 123.171 51.1146 119.239 48.4648Z" fill="#F9EE88"/>
<path d="M23.9332 51.2C23.8478 49.3623 25.7282 50.217 26.7967 50.388C29.8311 51.2 32.8655 51.8838 35.8998 52.7386C42.7379 54.8755 49.2341 57.9526 55.4311 61.5426C62.611 65.5599 69.5773 70.3038 74.8768 76.6718C71.7997 78.8087 68.8508 81.1165 65.7309 83.2534C64.406 82.2705 63.0384 82.7406 61.97 83.8518C58.9356 78.8514 54.4908 74.9195 50.388 70.774C43.0371 64.577 36.199 57.6962 27.8224 52.8668C26.583 52.2684 25.2581 51.7556 23.9332 51.2Z" fill="#F88C75"/>
<path d="M206.937 51.6274C210.698 50.9009 214.544 50.7726 218.348 50.1743C215.014 51.2428 211.424 51.2428 208.091 52.3112C201.595 54.3199 195.611 57.7389 189.286 60.2177C184.499 60.987 179.627 62.0127 174.841 60.9015C180.439 57.2261 187.149 55.8585 193.56 54.4054C198.047 53.5506 202.449 52.3967 206.937 51.6274Z" fill="#F9F089"/>
<path d="M23.9332 51.2C25.258 51.7128 26.5829 52.2684 27.8223 52.9095C36.1989 57.7388 43.037 64.6196 50.3879 70.8166C54.448 74.9622 58.9355 78.8941 61.9699 83.8944C51.9692 92.9121 43.7636 104.067 38.9342 116.674C33.9338 110.948 30.4293 104.067 27.3949 97.1432C24.3605 89.4076 23.2066 80.9883 23.5485 72.6971C23.7195 65.5599 23.2066 58.3799 23.9332 51.2Z" fill="#F89F74"/>
<path d="M207.236 59.9185C215.271 55.1746 224.417 52.6958 233.477 50.7726C234.631 57.2687 234.075 63.8504 234.204 70.3893C234.375 76.7572 233.52 83.1252 232.409 89.3649C230.699 97.827 228.477 106.802 222.365 113.213C219.374 104.622 214.886 96.5449 209.031 89.6213C208.347 88.5529 207.022 89.0657 206.125 89.4504C204.373 87.6554 202.706 85.8177 201.21 83.809C199.458 81.5011 197.15 79.7489 195.013 77.7402C198.731 72.8681 202.962 68.4233 207.45 64.2778C209.672 62.3118 212.194 60.7305 214.16 58.4654C211.895 59.0637 209.587 59.7048 207.236 59.9185Z" fill="#F89974"/>
<path d="M116.076 52.4822C116.888 52.9096 117.7 53.2942 118.555 53.6361C114.58 55.6448 110.221 56.4995 106.118 58.1663C109.751 59.8331 113.726 60.6451 117.7 61.3289C118.128 62.0555 118.555 62.782 119.025 63.5513C115.734 62.7393 112.443 61.8418 109.024 61.7136C106.631 60.2605 103.81 59.7476 101.161 58.9356C102.528 57.8244 103.768 56.6278 104.751 55.1747L104.836 55.0465C108.554 54.2344 112.401 53.6361 116.076 52.4822Z" fill="#FCB020"/>
<path d="M48.7212 53.9779C54.6618 54.0634 60.1749 56.6704 65.6881 58.6363C71.415 60.5595 76.629 63.8504 82.6551 64.7479C82.3559 65.9445 82.0567 67.1412 81.8003 68.3378C78.6377 68.0814 75.3896 69.449 72.3125 68.1241C72.0561 68.1669 71.5005 68.2524 71.2441 68.2951L71.1158 68.3378C64.3633 62.5255 56.4995 58.2517 48.7212 53.9779Z" fill="#FC9A1F"/>
<path d="M93.3396 59.8757C96.8868 57.8243 100.648 55.9866 104.708 55.1318C103.725 56.5849 102.443 57.7816 101.118 58.8928C103.768 59.6621 106.588 60.1749 108.982 61.6707C106.631 61.628 104.238 61.628 101.887 61.5425C99.4511 59.5338 96.1603 60.5596 93.3396 59.8757Z" fill="#FC9818"/>
<path d="M115.093 58.0808C118.512 56.7559 122.487 56.243 125.906 57.9098C128.171 59.192 130.308 60.7305 132.146 62.5682C130.137 62.7392 128.085 62.9102 126.12 62.3118C124.453 61.7135 122.957 60.6023 121.205 60.3031C119.111 59.7475 116.674 59.7475 115.093 58.0808Z" fill="#F9EE87"/>
<path d="M207.236 59.9185C209.587 59.7048 211.895 59.0638 214.16 58.5082C212.236 60.7733 209.672 62.3546 207.45 64.3205C202.962 68.4661 198.731 72.9109 195.013 77.783C192.62 75.3042 189.714 73.4664 187.149 71.2441C189.329 71.415 190.825 69.4918 192.534 68.4661C196.039 65.6881 200.142 63.8077 203.945 61.4998C205.014 60.9442 206.039 60.175 207.236 59.9185Z" fill="#F88075"/>
<path d="M87.6981 63.7223C89.3649 62.1837 91.2454 60.7306 93.3395 59.8759C96.1602 60.6024 99.4511 59.5339 101.844 61.5426C97.1005 61.8845 92.2711 62.2692 87.6981 63.7223Z" fill="#FD7C08"/>
<path d="M174.798 60.9015C179.585 62.0126 184.499 60.9869 189.243 60.2177C187.235 61.4143 185.098 62.3973 182.875 63.0811C182.534 63.1238 181.892 63.2093 181.551 63.2948C177.405 62.6965 172.917 63.8076 169.028 61.8844C171.037 61.799 172.917 61.3288 174.798 60.9015Z" fill="#FBDD4C"/>
<path d="M75.6033 72.398C76.7145 72.3126 78.0394 72.4408 78.6804 73.4665C80.2617 75.5606 78.9369 78.2531 78.2531 80.4328C76.6718 85.3049 72.2698 88.4247 69.7055 92.6985C66.9275 97.0151 64.5769 101.588 62.3973 106.204C60.9015 109.324 60.6451 112.828 59.833 116.162C58.2945 122.829 57.6534 129.667 56.3713 136.419C55.5165 143.642 55.0891 151.036 56.4995 158.258C57.4824 163.515 57.9526 168.9 58.9355 174.157C59.8758 179.2 61.8417 183.987 64.406 188.431C65.4317 190.184 66.7993 191.765 67.4831 193.688C68.0387 195.141 67.7823 196.765 67.6113 198.261C59.192 192.278 51.9693 184.585 46.7125 175.696C47.439 173.815 48.2083 171.806 47.8664 169.755C46.627 161.592 44.7893 153.472 44.832 145.181C45.2167 137.915 45.0457 130.522 46.8834 123.384C47.61 120.82 46.798 117.828 48.4648 115.563C50.8581 111.931 51.0718 107.358 53.2514 103.639C54.79 100.22 57.0551 96.9296 57.3115 93.0832C58.4227 91.4164 60.0467 90.1343 61.3716 88.6812L61.4571 88.7239C63.3375 90.2197 65.0898 88.382 66.6284 87.3563C70.5602 84.4929 74.2784 81.1593 76.5008 76.7573C77.9112 75.2615 76.5008 73.7229 75.6033 72.398Z" fill="#FBC53F"/>
<path d="M65.7309 83.2961C68.808 81.1592 71.757 78.8514 74.8768 76.7145C75.3042 76.7572 76.159 76.7572 76.5863 76.8C74.4067 81.202 70.6458 84.5783 66.7139 87.399C65.1753 88.4674 63.4231 90.3051 61.5426 88.7666C62.9102 86.9288 65.8164 85.9459 65.7309 83.2961Z" fill="#FAD052"/>
<path d="M37.5238 138.3C38.4641 121.547 45.9005 105.349 57.3542 93.1686C57.0978 97.015 54.8327 100.306 53.2941 103.725C51.1572 107.486 50.9435 112.016 48.5075 115.649C46.8407 117.914 47.6527 120.905 46.9262 123.47C45.0884 130.607 45.2594 137.958 44.8747 145.266C44.832 153.557 46.6697 161.677 47.9091 169.84C48.2938 171.892 47.4818 173.9 46.7552 175.781C40.0454 164.541 36.7118 151.335 37.5238 138.3Z" fill="#FCD62D"/>
<path d="M215.784 105.734C219.972 114.153 222.28 123.512 222.622 132.915C220.143 133.47 217.237 133 215.1 134.582C213.775 139.24 213.006 144.069 211.296 148.642C206.039 165.738 195.953 180.909 184.286 194.286C181.978 197.492 179.285 200.355 176.978 203.603C169.541 207.834 161.378 210.911 153.087 212.877C153.557 212.108 153.985 211.253 154.754 210.741C161.763 205.783 170.182 202.749 176.166 196.381C182.534 190.525 187.149 183.046 190.953 175.311C194.244 169.712 197.449 164.071 199.842 158.045C204.629 146.164 208.005 133.428 207.663 120.521C207.578 117.871 209.245 115.734 209.971 113.298C210.014 111.46 209.587 109.58 210.142 107.785C212.065 107.272 214.031 106.759 215.784 105.734Z" fill="#FB9F22"/>
<path d="M215.143 134.539C217.279 133 220.186 133.428 222.664 132.872C223.049 146.676 218.989 160.481 211.638 172.148C203.219 185.44 191.038 196.381 177.02 203.518C179.328 200.312 182.021 197.449 184.329 194.201C195.996 180.824 206.125 165.652 211.339 148.557C213.048 144.027 213.818 139.197 215.143 134.539Z" fill="#FD8410"/>
<path d="M96.6731 137.531C100.776 136.676 105.007 137.274 109.195 137.06C112.785 136.761 116.333 138.214 119.88 137.488C124.025 136.719 128.256 137.231 132.445 137.103C135.693 136.975 138.855 137.659 142.061 138.129C144.54 138.556 146.976 137.616 149.369 137.274C151.036 138.086 152.916 138.129 154.754 137.958C159.84 138.471 164.755 140.18 169.199 142.702C168.387 143.001 167.575 143.343 166.763 143.599C163.814 143.941 160.908 144.454 158.087 145.309C155.566 143.215 152.061 143.386 149.027 142.445C142.274 140.522 135.351 138.855 128.256 138.727C123.641 138.642 119.153 139.967 114.538 139.838C111.802 139.753 109.067 139.967 106.46 140.779C103.255 141.762 99.7075 141.847 96.8441 143.685C94.408 145.223 91.5018 145.822 89.1512 147.531C84.6638 147.232 80.1335 147.403 75.817 148.685C76.9282 146.377 79.2788 145.095 81.2875 143.642C86.0741 140.907 91.3736 139.026 96.6731 137.531Z" fill="#FAC246"/>
<path d="M114.538 139.881C119.153 140.009 123.641 138.727 128.256 138.77C135.351 138.898 142.274 140.565 149.027 142.488C152.061 143.428 155.566 143.215 158.087 145.352C156.378 145.907 154.668 146.506 153.002 147.189C150.096 146.035 147.061 145.181 144.326 143.642C141.847 142.232 139.026 141.505 136.206 141.035C133 140.479 129.838 139.326 126.547 139.796C123.94 140.18 121.333 140.864 118.726 141.121C114.922 141.548 110.862 141.121 107.4 143.044C104.024 144.839 100.22 146.206 97.6134 149.155C94.8354 148.429 91.972 147.916 89.1085 147.617C91.4591 145.907 94.3653 145.309 96.8013 143.77C99.7075 141.933 103.212 141.847 106.417 140.864C109.11 140.009 111.845 139.796 114.538 139.881Z" fill="#F9D667"/>
<path d="M117.743 143.257C122.102 141.847 126.718 141.163 131.291 141.633C137.189 142.659 143.172 145.394 146.463 150.651C144.582 151.848 142.659 153.044 141.206 154.711C143.428 153.429 145.608 151.976 147.959 150.907C149.198 152.361 150.309 153.899 151.292 155.523C148.813 156.463 146.292 157.489 144.155 159.156C146.634 158.6 148.984 157.617 151.42 157.062C152.19 158.899 152.788 160.78 153.044 162.746C150.181 163.13 147.275 163.772 144.668 165.011C145.864 165.396 147.104 164.925 148.3 164.712C150.437 164.242 152.617 164.156 154.754 164.071C152.147 168.387 147.745 171.849 142.616 172.234C138.385 172.533 133.599 172.105 130.308 169.071C128.427 167.49 126.205 165.438 126.59 162.703C128.513 159.583 131.248 157.019 133.299 153.985C134.026 152.873 134.582 151.292 133.727 150.053C133.043 149.07 131.718 149.112 130.65 148.984C126.803 148.813 123.042 149.711 119.281 150.309C117.657 150.608 115.862 150.907 114.623 152.104C113.469 153.643 114.238 155.78 115.392 157.062C117.7 159.711 120.35 162.019 123.085 164.199C120.82 167.789 117.102 170.695 112.785 171.08C107.058 172.148 100.69 170.31 97.1005 165.524C100.434 164.84 103.853 165.481 107.144 164.755C105.563 164.327 103.896 164.113 102.272 163.942C101.075 163.686 99.8784 163.387 98.6818 163.088C99.2801 161.464 99.8357 159.84 100.434 158.216C102.485 158.387 104.537 158.814 106.588 158.985C105.05 158.087 103.34 157.532 101.631 157.147C102.571 155.395 103.511 153.386 105.563 152.788C106.631 153.173 107.699 153.557 108.811 153.771C107.828 153.215 106.845 152.702 105.862 152.232C109.195 148.514 112.785 144.54 117.743 143.257Z" fill="#F8F7A1"/>
<path d="M139.112 175.61C144.027 175.995 148.899 174.157 152.361 170.61C152.703 172.063 152.916 173.559 152.617 175.012C150.865 184.713 145.01 193.774 136.505 198.859C133.086 200.783 128.94 202.877 124.966 201.21C120.82 199.458 115.691 200.569 112.187 197.364C109.409 195.013 106.289 192.919 104.409 189.671C102.4 186.252 100.477 182.704 99.9212 178.73C99.5793 176.251 98.81 173.644 99.6648 171.165C101.417 172.533 103.426 173.601 105.605 174.114C107.7 174.67 109.922 174.371 112.102 174.584C112.572 175.311 112.914 176.08 113.298 176.849C112.614 178.986 112.23 181.294 113.042 183.474C115.478 190.739 125.094 194.201 131.675 190.397C134.753 188.389 135.095 184.457 135.949 181.209C136.248 179.029 138.001 177.448 139.112 175.61Z" fill="#F8F7A1"/>
<path d="M162.148 146.676C165.481 146.164 168.857 145.993 172.234 146.463C175.012 148.771 178.944 150.651 179.756 154.54C179.927 156.72 181.508 158.472 181.551 160.737C181.85 160.395 182.149 160.096 182.448 159.797C182.79 161.592 182.833 163.472 183.645 165.096C185.568 168.686 185.611 172.96 185.44 176.935C183.944 183.559 179.499 188.987 175.225 194.073C172.576 197.022 169.499 199.629 166.037 201.552C164.541 202.407 162.874 201.381 161.293 201.637C155.609 202.791 150.309 205.697 144.411 205.612C140.266 206.296 136.12 207.108 131.889 207.321C124.538 207.407 117.102 207.193 109.879 205.612C105.605 205.099 101.161 206.168 96.9723 204.672C92.7412 204.202 88.5102 203.347 84.621 201.552C80.2618 199.159 75.8598 196.594 72.569 192.791C70.9877 190.996 68.979 189.628 67.5259 187.748C64.577 183.175 63.6367 177.576 64.2778 172.234C64.7907 169.883 64.4915 167.404 65.389 165.139C66.6711 160.652 68.5089 156.036 71.8851 152.702C75.4751 151.976 78.8514 150.266 82.5269 149.925C79.8771 152.318 77.5266 155.267 76.5008 158.729C75.7743 159.07 75.0478 159.455 74.4067 159.925C74.4067 160.566 74.4922 161.25 74.5349 161.891C73.7656 165.267 72.9536 168.729 73.381 172.191C74.0648 178.046 75.9453 183.987 79.6634 188.645C84.9629 194.244 92.784 195.868 99.3656 199.372C103.597 201.253 107.742 203.689 112.486 204.031C120.264 205.569 128.299 206.467 136.163 204.928C139.667 204.116 143.599 204.629 146.762 202.62C149.369 201.082 152.147 199.842 155.01 198.774C158.387 196.893 160.737 193.731 163.729 191.38C165.951 189.628 168.131 187.619 169.157 184.884C170.14 182.234 171.422 179.756 173.089 177.448C174.883 175.012 174.328 171.849 174.371 169.028C175.696 169.926 177.106 169.37 177.747 167.96C177.491 167.789 176.978 167.447 176.721 167.276C176.55 163.558 174.456 160.224 174.2 156.506C175.696 156.976 176.508 155.822 176.593 154.497C174.2 153.771 171.721 153.215 169.199 152.959C168.986 152.147 168.986 151.207 168.302 150.651C166.507 149.027 164.327 147.788 162.148 146.676Z" fill="#FAC144"/>
<path d="M156.335 147.873C158.258 147.403 160.224 146.976 162.148 146.677C164.327 147.788 166.507 149.027 168.259 150.779C168.943 151.335 168.943 152.318 169.157 153.087C166.763 152.916 164.37 152.959 161.977 153.13C160.609 150.908 158.814 148.856 156.335 147.873Z" fill="#F9D160"/>
<path d="M152.147 149.198C153.515 148.728 154.925 148.301 156.293 147.916C158.814 148.856 160.566 150.95 161.977 153.173C160.31 153.344 158.686 153.6 157.019 153.942C155.993 151.805 154.455 149.925 152.147 149.198Z" fill="#F9E079"/>
<path d="M147.916 150.908C149.284 150.266 150.694 149.711 152.147 149.155C154.455 149.925 155.993 151.762 157.019 153.856C155.053 154.284 153.13 154.839 151.249 155.523C150.309 153.899 149.198 152.361 147.916 150.908Z" fill="#F8EA8B"/>
<path d="M82.4414 150.01C86.8007 149.583 91.2027 149.668 95.5192 150.224C93.6815 151.506 92.2284 153.258 91.0745 155.139C90.1343 155.438 89.1513 155.737 88.2111 156.036C84.1937 156.463 80.1763 157.275 76.4154 158.857C77.4411 155.31 79.7917 152.403 82.4414 150.01Z" fill="#F9D362"/>
<path d="M95.5192 150.224C96.8441 150.437 98.169 150.651 99.4939 150.95C98.2972 152.574 96.374 153.985 96.4167 156.207C93.6815 155.908 90.9463 155.865 88.2111 156.036C89.1513 155.78 90.1343 155.438 91.0745 155.139C92.2712 153.215 93.6815 151.463 95.5192 150.224Z" fill="#F8E27D"/>
<path d="M99.4939 150.95C101.588 151.42 103.639 152.019 105.605 152.745C103.511 153.344 102.571 155.352 101.674 157.104C99.9213 156.72 98.2117 156.421 96.4168 156.207C96.3313 153.942 98.2972 152.531 99.4939 150.95Z" fill="#F8EB8D"/>
<path d="M156.207 156.164C158.045 155.908 159.882 155.694 161.763 155.566C163.943 157.489 164.712 160.395 165.353 163.131C162.746 162.618 160.096 162.447 157.446 162.404C157.788 160.694 158.045 158.942 158.216 157.19C158.002 157.318 157.532 157.617 157.318 157.788C156.976 157.233 156.592 156.72 156.207 156.164Z" fill="#F9E37F"/>
<path d="M161.763 155.566C163.515 155.438 165.267 155.395 167.062 155.395C168.088 158.387 169.498 161.207 170.011 164.327C168.473 163.857 166.934 163.43 165.353 163.131C164.712 160.438 163.943 157.489 161.763 155.566Z" fill="#F9D96E"/>
<path d="M167.062 155.395C169.499 155.395 171.849 156.036 174.157 156.634C174.413 160.353 176.508 163.686 176.679 167.404C174.584 166.165 172.319 165.139 170.011 164.37C169.499 161.207 168.088 158.387 167.062 155.395Z" fill="#F9CC57"/>
<path d="M151.42 157.062C153.002 156.677 154.626 156.421 156.207 156.164C156.592 156.72 156.934 157.233 157.318 157.788C156.805 159.37 156.207 160.908 155.566 162.447C154.711 162.532 153.899 162.618 153.044 162.703C152.788 160.78 152.19 158.857 151.42 157.062Z" fill="#F8EE91"/>
<path d="M80.8174 159.84C83.0825 159.07 85.4759 158.814 87.8692 158.515C86.9289 161.165 84.5356 163.857 85.775 166.763C81.8859 168.345 78.2531 170.567 75.176 173.43C75.7743 173.986 76.4154 174.413 77.0992 174.755C78.3386 174.2 79.3643 173.345 80.4328 172.533C81.5867 178.174 83.4244 184.158 87.9119 188.09C91.8865 191.722 95.8612 195.526 100.819 197.791C102.827 198.689 104.751 199.714 106.588 200.954C109.11 202.663 112.315 202.62 115.179 203.304C119.452 204.33 123.854 204.886 128.299 204.8C134.496 204.586 140.48 202.449 146.677 202.62C143.514 204.586 139.582 204.116 136.078 204.928C128.256 206.51 120.179 205.569 112.401 204.031C107.657 203.689 103.511 201.253 99.2802 199.372C92.6986 195.868 84.8348 194.244 79.578 188.645C75.8598 183.987 73.9794 178.046 73.2955 172.191C72.8682 168.687 73.6802 165.267 74.4495 161.891C76.7573 161.891 78.6805 160.524 80.8174 159.84Z" fill="#F9CF5C"/>
<path d="M87.8691 158.515C89.2367 158.344 90.6043 158.258 91.9719 158.13C92.3566 160.31 93.0404 162.404 93.8951 164.413C91.1172 164.968 88.3819 165.695 85.7749 166.763C84.5355 163.857 86.9289 161.165 87.8691 158.515Z" fill="#F9E17A"/>
<path d="M93.1686 158.045C95.6046 158.002 98.0407 157.959 100.477 158.13C99.9212 159.754 99.3228 161.378 98.7245 163.002C99.9212 163.301 101.118 163.601 102.314 163.857C100.178 163.857 98.0407 163.943 95.9038 164.071C94.8354 162.19 93.9379 160.139 93.1686 158.045Z" fill="#F8ED8F"/>
<path d="M152.318 170.567C154.198 168.729 155.651 166.507 156.805 164.114C157.233 164.156 158.13 164.199 158.558 164.242C158.686 166.507 159.113 168.729 159.199 170.994C158.985 182.79 151.72 193.902 141.591 199.671C137.317 200.74 133.428 203.347 128.898 203.219C124.111 203.261 119.239 202.791 114.666 201.295C111.717 200.355 109.623 197.962 107.016 196.466C103.939 194.671 100.861 192.705 98.8956 189.714C95.9894 185.269 93.2542 180.482 92.6558 175.14C92.2284 172.276 93.1259 169.413 92.8268 166.507C93.5106 166.336 94.1944 166.165 94.8782 166.037C96.2031 167.917 97.7416 169.669 99.5366 171.123C98.6819 173.601 99.4511 176.166 99.7931 178.687C100.349 182.662 102.272 186.252 104.281 189.628C106.161 192.833 109.281 194.928 112.059 197.321C115.563 200.526 120.735 199.415 124.837 201.167C128.812 202.834 132.915 200.74 136.377 198.817C144.882 193.731 150.737 184.67 152.489 174.969C152.916 173.516 152.66 172.02 152.318 170.567Z" fill="#F8EF93"/>
<path d="M158.558 164.284C160.823 164.455 163.088 164.84 165.31 165.396C167.02 173.046 165.225 181.166 161.036 187.705C159.669 189.671 157.831 191.252 156.164 192.962C154.241 194.842 152.532 196.979 150.138 198.304C147.36 199.842 144.668 201.723 141.42 202.022C137.189 202.449 133.129 203.988 128.855 204.073C124.666 204.244 120.478 203.603 116.375 202.791C113.854 202.278 111.119 202.107 108.939 200.526C107.058 199.201 105.135 197.834 102.998 196.936C98.4681 195.013 95.22 191.124 92.3139 187.32C88.2965 182.106 85.8177 175.61 86.2451 168.986C88.382 168.045 90.5616 167.233 92.8267 166.592C93.1259 169.456 92.2284 172.319 92.6558 175.225C93.2541 180.568 95.9893 185.354 98.8955 189.799C100.861 192.791 103.981 194.799 107.016 196.552C109.623 198.047 111.76 200.398 114.666 201.381C119.239 202.877 124.111 203.347 128.898 203.304C133.428 203.432 137.317 200.825 141.591 199.757C151.72 193.987 158.985 182.875 159.199 171.08C159.113 168.772 158.729 166.55 158.558 164.284Z" fill="#F9E581"/>
<path d="M165.31 165.396C168.516 166.122 171.464 167.575 174.285 169.157C174.242 171.977 174.798 175.14 173.003 177.576C171.336 179.841 170.054 182.363 169.071 185.012C168.045 187.748 165.866 189.756 163.643 191.508C160.652 193.859 158.258 197.022 154.925 198.902C152.104 199.971 149.326 201.167 146.676 202.749C140.479 202.578 134.453 204.715 128.299 204.928C123.897 205.056 119.495 204.458 115.179 203.432C112.315 202.706 109.153 202.749 106.588 201.082C104.751 199.885 102.785 198.859 100.819 197.919C95.8611 195.654 91.8865 191.85 87.9119 188.218C83.4244 184.286 81.5867 178.302 80.4327 172.661C82.2277 171.251 84.1937 170.011 86.2878 169.028C85.9032 175.653 88.382 182.149 92.3566 187.363C95.2628 191.167 98.5109 195.056 103.041 196.979C105.178 197.876 107.058 199.244 108.982 200.569C111.119 202.15 113.854 202.321 116.418 202.834C120.521 203.646 124.709 204.244 128.898 204.116C133.171 204.031 137.231 202.492 141.462 202.065C144.711 201.766 147.446 199.842 150.181 198.347C152.574 197.064 154.284 194.885 156.207 193.004C157.874 191.295 159.712 189.756 161.079 187.748C165.225 181.123 167.02 173.046 165.31 165.396Z" fill="#F9D96C"/>
<path d="M117.743 175.952C122.401 174.499 127.615 175.055 132.103 176.764C134.582 177.533 133.129 180.44 132.829 182.235C132.573 181.465 132.231 180.696 131.505 180.354C126.461 177.32 119.666 177.619 114.965 181.166C115.307 179.2 115.478 176.55 117.743 175.952Z" fill="#C54759"/>
<path d="M114.965 181.123C119.709 177.576 126.461 177.277 131.505 180.311C132.274 180.653 132.616 181.465 132.829 182.192C132.317 184.713 131.376 187.619 128.855 188.773C123.256 190.825 116.033 187.235 114.965 181.123Z" fill="#FE8279"/>
</svg>
