<svg width="256" height="256" viewBox="0 0 256 256" fill="none" xmlns="http://www.w3.org/2000/svg">
<g clip-path="url(#clip0_26_2)">
<path fill-rule="evenodd" clip-rule="evenodd" d="M70.1147 85.3333V99.552H84.3334V113.781H98.5521V128H112.781V142.219H127V156.448H141.219V142.219H155.448V128H141.219V113.781H127V99.552H112.781V85.3333H98.5521V71.1147H70.1147V85.3333ZM98.5521 92.448V99.552H112.781V113.781H127V128H141.219V142.219H127V128H112.781V113.781H98.5521V99.552H84.3334V85.3333H98.5521V92.448ZM212.333 92.448V99.552H198.115V184.885H155.448V199.115H127V213.333H84.3334V227.552H169.667V213.333H198.115V199.115H212.333V170.667H226.552V85.3333H212.333V92.448Z" fill="#FCE280"/>
<path fill-rule="evenodd" clip-rule="evenodd" d="M176.781 124.448V135.115H162.552V142.219H155.448V156.448H141.219V163.552H134.115V177.781H112.781V184.885H141.219V170.667H155.448V184.885H183.885V156.448H169.667V142.219H183.885V113.781H176.781V124.448V124.448ZM176.781 170.667V177.781H162.552V170.667H169.667V163.552H176.781V170.667" fill="#8C6C04"/>
<path fill-rule="evenodd" clip-rule="evenodd" d="M84.3334 21.3333V28.448H55.8854V42.6667H41.6667V56.8853H27.4481V85.3333H13.2188V170.667H27.4481V199.115H41.6667V213.333H55.8854V227.552H84.3334V241.781H169.667V227.552H198.115V213.333H212.333V199.115H226.552V170.667H240.781V85.3333H226.552V56.8853H212.333V42.6667H198.115V28.448H169.667V14.2187H84.3334V21.3333ZM169.667 35.552V42.6667H198.115V56.8853H169.667V42.6667H84.3334V56.8853H55.8854V85.3333H41.6667V170.667H55.8854V199.115H41.6667V170.667H27.4481V85.3333H41.6667V56.8853H55.8854V42.6667H84.3334V28.448H169.667V35.552ZM98.5521 78.2187V85.3333H112.781V99.552H127V113.781H141.219V128H155.448V113.781H198.115V99.552H212.333V85.3333H226.552V170.667H212.333V199.115H198.115V213.333H169.667V227.552H84.3334V213.333H112.781V156.448H127V142.219H112.781V128H98.5521V113.781H84.3334V99.552H70.1147V71.1147H98.5521V78.2187Z" fill="#FAC814"/>
<path fill-rule="evenodd" clip-rule="evenodd" d="M84.3333 35.552V42.6667H55.8853V56.8853H41.6667V85.3333H27.448V170.667H41.6667V199.115H55.8853V170.667H41.6667V85.3333H55.8853V56.8853H84.3333V42.6667H169.667V56.8853H198.115V42.6667H169.667V28.448H84.3333V35.552Z" fill="#E1A404"/>
<path fill-rule="evenodd" clip-rule="evenodd" d="M84.3333 7.11467V14.2187H55.8853V28.448H41.6667V42.6667H27.448V56.8853H13.2187V85.3333H-1V170.667H13.2187V199.115H27.448V213.333H41.6667V227.552H55.8853V241.781H84.3333V256H169.667V241.781H198.115V227.552H212.333V213.333H226.552V199.115H240.781V170.667H255V85.3333H240.781V56.8853H226.552V42.6667H212.333V28.448H198.115V14.2187H169.667V0H84.3333V7.11467ZM169.667 21.3333V28.448H198.115V42.6667H212.333V56.8853H226.552V85.3333H240.781V170.667H226.552V199.115H212.333V213.333H198.115V227.552H169.667V241.781H84.3333V227.552H55.8853V213.333H41.6667V199.115H27.448V170.667H13.2187V85.3333H27.448V56.8853H41.6667V42.6667H55.8853V28.448H84.3333V14.2187H169.667V21.3333Z" fill="#040404"/>
<path fill-rule="evenodd" clip-rule="evenodd" d="M84.3333 92.448V99.552H98.5519V113.781H112.781V128H127V142.219H141.219V156.448H155.448V142.219H141.219V128H127V113.781H112.781V99.552H98.5519V85.3333H84.3333V92.448ZM169.667 167.115V170.667H162.552V177.781H176.781V163.552H169.667V167.115Z" fill="#B48404"/>
<path fill-rule="evenodd" clip-rule="evenodd" d="M183.885 128V142.219H169.667V156.448H183.885V184.885H198.115V113.781H183.885V128ZM141.219 177.781V184.885H112.781V213.333H127V199.115H155.448V170.667H141.219V177.781" fill="#FCD542"/>
<path fill-rule="evenodd" clip-rule="evenodd" d="M155.448 128V142.219H162.552V135.115H176.781V113.781H155.448V128ZM112.781 167.115V177.781H134.115V163.552H141.219V156.448H112.781V167.115" fill="#DCAC04"/>
</g>
<defs>
<clipPath id="clip0_26_2">
<rect width="256" height="256" fill="white"/>
</clipPath>
</defs>
</svg>
