<?xml version="1.0" standalone="no"?>
<!DOCTYPE svg PUBLIC "-//W3C//DTD SVG 20010904//EN"
 "http://www.w3.org/TR/2001/REC-SVG-20010904/DTD/svg10.dtd">
<svg version="1.0" xmlns="http://www.w3.org/2000/svg"
 width="256.000000pt" height="256.000000pt" viewBox="0 0 256.000000 256.000000"
 preserveAspectRatio="xMidYMid meet">

<g transform="translate(0.000000,256.000000) scale(0.100000,-0.100000)"
fill="#000000" stroke="none">
<path d="M1135 2554 c-309 -47 -555 -167 -758 -371 -178 -177 -298 -400 -353
-653 -26 -119 -26 -381 0 -500 111 -513 493 -895 1006 -1006 119 -26 381 -26
500 0 513 111 895 493 1006 1006 26 119 26 381 0 500 -110 506 -483 885 -986
1001 -83 19 -344 34 -415 23z m155 -817 c38 -14 72 -38 111 -77 49 -48 67 -59
124 -75 65 -17 136 -61 177 -109 34 -39 67 -114 76 -170 33 -211 -125 -396
-338 -396 -100 0 -169 29 -244 101 -50 49 -70 61 -120 74 -129 33 -220 126
-252 258 -29 115 4 230 88 316 102 102 236 130 378 78z"/>
<path d="M1080 1681 c-191 -58 -255 -304 -117 -450 106 -112 300 -108 399 8
l36 42 31 -16 32 -16 -20 -27 c-37 -52 -86 -91 -150 -120 l-63 -29 38 -31
c186 -153 461 -8 442 232 -13 153 -130 254 -285 244 -93 -5 -158 -40 -206
-108 -14 -21 -16 -21 -47 -5 l-31 16 19 32 c27 43 106 103 166 124 l48 18 -37
32 c-63 54 -175 78 -255 54z"/>
</g>
</svg>
