<?xml version="1.0" standalone="no"?>
<!DOCTYPE svg PUBLIC "-//W3C//DTD SVG 20010904//EN"
 "http://www.w3.org/TR/2001/REC-SVG-20010904/DTD/svg10.dtd">
<svg version="1.0" xmlns="http://www.w3.org/2000/svg"
 width="256.000000pt" height="256.000000pt" viewBox="0 0 256.000000 256.000000"
 preserveAspectRatio="xMidYMid meet">

<g transform="translate(0.000000,256.000000) scale(0.100000,-0.100000)"
fill="#000000" stroke="none">
<path d="M967 1832 l-169 -187 91 -3 91 -3 0 -96 0 -95 -57 -62 c-98 -104
-143 -214 -143 -346 0 -211 136 -401 336 -470 329 -114 669 129 666 475 -2
244 -175 446 -417 486 l-75 13 0 48 0 47 94 3 93 3 -158 175 c-88 96 -165 180
-172 186 -9 10 -49 -29 -180 -174z m321 -13 l143 -159 -80 0 -81 0 0 -175 c0
-110 4 -175 10 -175 6 0 10 40 10 100 l0 100 40 0 c46 0 150 -32 198 -62 l32
-20 0 -94 c0 -52 -1 -94 -3 -94 -1 0 -34 7 -72 15 -41 8 -124 15 -198 15 -193
0 -341 -36 -432 -106 -25 -19 -45 -32 -45 -30 0 17 43 122 64 154 32 50 85
112 97 112 5 0 9 -30 9 -66 0 -48 3 -65 13 -62 9 4 13 54 15 196 l2 191 -80 3
-80 3 142 158 c78 86 144 157 147 156 3 0 70 -72 149 -160z m416 -558 c18 -36
37 -82 41 -101 l7 -35 -28 27 c-16 15 -55 39 -86 53 l-58 26 0 92 0 91 45 -44
c24 -24 60 -73 79 -109z m-204 -33 l55 -13 3 -83 3 -82 -121 0 c-73 0 -120 -4
-120 -10 0 -6 47 -10 120 -10 l121 0 -3 -82 -3 -83 -55 -12 c-30 -6 -83 -15
-117 -19 -35 -3 -63 -10 -63 -15 0 -13 87 -10 160 6 36 8 68 14 73 15 4 0 7
-42 7 -94 l0 -94 -32 -20 c-48 -30 -152 -62 -198 -62 l-40 0 0 320 c0 207 -4
320 -10 320 -6 0 -10 -114 -10 -321 l0 -322 -61 6 c-41 3 -83 16 -128 39 l-66
33 -3 263 c-2 204 -5 263 -15 259 -9 -3 -13 -65 -15 -245 -1 -133 -6 -242 -11
-242 -27 0 -115 128 -142 208 -24 69 -24 70 4 45 29 -27 89 -63 105 -63 24 0
11 20 -26 39 -44 23 -98 75 -105 102 -5 17 1 19 69 19 43 0 74 4 74 10 0 6
-31 10 -74 10 -70 0 -74 1 -69 21 18 67 154 139 321 169 64 12 305 4 372 -12z
m170 -67 c40 -24 90 -81 90 -102 0 -5 -40 -9 -90 -9 l-90 0 0 76 c0 73 1 75
23 69 12 -4 42 -19 67 -34z m90 -140 c0 -36 -94 -117 -157 -136 -22 -6 -23 -4
-23 69 l0 76 90 0 c50 0 90 -4 90 -9z m-15 -103 c-12 -56 -73 -162 -120 -208
l-45 -44 0 91 0 92 59 26 c33 15 70 38 82 51 29 31 32 30 24 -8z"/>
<path d="M1040 1040 c0 -6 40 -10 100 -10 60 0 100 4 100 10 0 6 -40 10 -100
10 -60 0 -100 -4 -100 -10z"/>
<path d="M1040 847 c0 -16 93 -37 163 -37 66 0 39 16 -45 27 -46 7 -91 15
-100 18 -12 5 -18 2 -18 -8z"/>
</g>
</svg>

