<?xml version="1.0" encoding="UTF-8" standalone="no"?>
<svg
   xmlns:dc="http://purl.org/dc/elements/1.1/"
   xmlns:cc="http://creativecommons.org/ns#"
   xmlns:rdf="http://www.w3.org/1999/02/22-rdf-syntax-ns#"
   xmlns:svg="http://www.w3.org/2000/svg"
   xmlns="http://www.w3.org/2000/svg"
   xmlns:sodipodi="http://sodipodi.sourceforge.net/DTD/sodipodi-0.dtd"
   xmlns:inkscape="http://www.inkscape.org/namespaces/inkscape"
   width="128px"
   height="128px"
   viewBox="0 0 128 128"
   aria-hidden="true"
   role="img"
   class="iconify iconify--noto"
   preserveAspectRatio="xMidYMid meet"
   version="1.1"
   id="svg150"
   sodipodi:docname="logo.svg"
   inkscape:version="1.0.2 (e86c870879, 2021-01-15)"
   inkscape:export-filename="/home/reflipd/Documents/magm/svg/logo.png"
   inkscape:export-xdpi="96"
   inkscape:export-ydpi="96">
  <title
     id="title186">MAGMA</title>
  <metadata
     id="metadata156">
    <rdf:RDF>
      <cc:Work
         rdf:about="">
        <dc:format>image/svg+xml</dc:format>
        <dc:type
           rdf:resource="http://purl.org/dc/dcmitype/StillImage" />
        <dc:title>MAGMA</dc:title>
        <dc:creator>
          <cc:Agent>
            <dc:title>https://magm.red</dc:title>
          </cc:Agent>
        </dc:creator>
        <dc:publisher>
          <cc:Agent>
            <dc:title>Redeaux Games</dc:title>
          </cc:Agent>
        </dc:publisher>
        <cc:license
           rdf:resource="http://creativecommons.org/licenses/by/4.0/" />
      </cc:Work>
      <cc:License
         rdf:about="http://creativecommons.org/licenses/by/4.0/">
        <cc:permits
           rdf:resource="http://creativecommons.org/ns#Reproduction" />
        <cc:permits
           rdf:resource="http://creativecommons.org/ns#Distribution" />
        <cc:requires
           rdf:resource="http://creativecommons.org/ns#Notice" />
        <cc:requires
           rdf:resource="http://creativecommons.org/ns#Attribution" />
        <cc:permits
           rdf:resource="http://creativecommons.org/ns#DerivativeWorks" />
      </cc:License>
    </rdf:RDF>
  </metadata>
  <defs
     id="defs154" />
  <sodipodi:namedview
     pagecolor="#505050"
     bordercolor="#ffffff"
     borderopacity="1"
     objecttolerance="10"
     gridtolerance="10"
     guidetolerance="10"
     inkscape:pageopacity="0"
     inkscape:pageshadow="2"
     inkscape:window-width="1366"
     inkscape:window-height="724"
     id="namedview152"
     showgrid="false"
     inkscape:pagecheckerboard="true"
     inkscape:showpageshadow="false"
     showborder="false"
     borderlayer="false"
     inkscape:zoom="1.97"
     inkscape:cx="-32.700508"
     inkscape:cy="64"
     inkscape:window-x="0"
     inkscape:window-y="0"
     inkscape:window-maximized="1"
     inkscape:current-layer="svg150" />
  <radialGradient
     id="IconifyId17ecdb2904d178eab21402"
     cx="66.666"
     cy="64.777"
     r="52.908"
     gradientUnits="userSpaceOnUse">
    <stop
       offset=".174"
       stop-color="#e79f68"
       id="stop2" />
    <stop
       offset=".278"
       stop-color="#e6a272"
       id="stop4" />
    <stop
       offset=".453"
       stop-color="#e3ab8d"
       id="stop6" />
    <stop
       offset=".531"
       stop-color="#e2af9b"
       id="stop8" />
    <stop
       offset=".783"
       stop-color="#e1d1cc"
       id="stop10" />
    <stop
       offset=".883"
       stop-color="#e0e0e0"
       id="stop12" />
  </radialGradient>
  <path
     d="M74.13 63.5s-.27-11.46 5.46-18.28s13.1-12.01 17.74-15.28c4.64-3.27 11.19-7.37 10.37-13.23c-.82-5.87-5.4-9.76-25.32-9.76S48.76 8.8 36.07 15.48s-7.31 15.32-1.91 16.78c4.77 1.29 10.84 1.81 15.65 6.94c8.73 9.3 7.81 23.62 7.81 23.62l16.51.68z"
     fill="url(#IconifyId17ecdb2904d178eab21402)"
     id="path15" />
  <path
     d="M41.38 68.14S25.83 89.7 21.73 95.02s-12.55 14.05-12 15.14c.55 1.09 6.96 3.68 6.96 3.68s32.47 4.64 35.06 4.64s55.8-15.14 55.8-15.14s-18.69-39.98-24.7-37.66s-41.47 2.46-41.47 2.46z"
     fill="#717578"
     id="path17" />
  <path
     d="M66.76 80.96s-4.64 4.09-6.82 6.28s-8.29 7.1-7.5 7.91c.65.67 9.87-3.52 10.83-4c.82-.41 11-4.19 11.68-3.23c.68.96-2.28 3.23-3.27 4.64c-.92 1.31-17.17 17.68-21.01 18.69c-2.76.73-19.51 1.64-20.06.27c-.55-1.36 6-10.64 4.37-12.01c-1.64-1.36-8.33 3.03-12.28 5.35s-10.09 5.29-11.05 5.43s-1.91-.14-1.91-.14s-.29 1.71 8.19 5.59c6.68 3.06 12.14 5.87 30.43 7.64s31.38.14 39.02-.96c7.64-1.09 21.69-5.46 25.38-7.09c3.68-1.64 6.53-3.33 6.14-4.5c-.14-.41-21.42-28.65-21.42-28.65L86 65.14L66.76 80.96z"
     fill="#474b4e"
     id="path19" />
  <radialGradient
     id="IconifyId17ecdb2904d178eab21403"
     cx="65.384"
     cy="44.795"
     r="50.161"
     gradientTransform="matrix(0 1 -1.4561 0 130.608 -20.59)"
     gradientUnits="userSpaceOnUse">
    <stop
       offset=".39"
       stop-color="#cb2d30"
       id="stop21" />
    <stop
       offset=".492"
       stop-color="#d23730"
       id="stop23" />
    <stop
       offset=".665"
       stop-color="#e45231"
       id="stop25" />
    <stop
       offset=".715"
       stop-color="#ea5b31"
       id="stop27" />
    <stop
       offset=".792"
       stop-color="#ea6032"
       id="stop29" />
    <stop
       offset=".887"
       stop-color="#ec6f36"
       id="stop31" />
    <stop
       offset=".967"
       stop-color="#ed823a"
       id="stop33" />
  </radialGradient>
  <path
     d="M53.35 53.06c-4.25.63-5.76 5.45-10.18 11.07c-2.55 3.24-4.73 5.44-5.94 6.92c-1.36 1.67-3.16 5.11-1.36 6.08c1.8.97 4.58-1.93 5.34-3.53c.75-1.59 1.87-3.22 2.92-2.1c1.05 1.12 1.12 3.07-1.57 5.32c-2.7 2.25-5.85 4.87-5.55 7.2s1.87 3 3.67 2.47c1.8-.52 6.15-5.55 7.8-8.02c1.65-2.47 4.27-6.75 6.07-6.75s1.77 3.75-1.8 7.95c-4.12 4.85-6.13 6.53-11.02 10.95c-5.08 4.58-4.42 6.22-3.52 7.12c.9.9 3.45 1.12 7.12-2.02c3.67-3.15 8.85-9.07 11.1-11.7c2.25-2.62 4.27-5.47 6.6-5.32s1.72 2.47 2.02 3.6c.3 1.12.3 3.22 3.07 3.22s4.27-2.85 5.17-5.1s.82-5.25 2.62-5.55c1.8-.3 2.02 1.5 3.45 4.35c1.42 2.85 6.9 14.69 8.25 16.79c1.35 2.1 2.85 6.07 7.27 4.72c4.42-1.35-1.27-9.52-2.62-11.55c-1.35-2.02-5.25-8.85-6.75-13.42s-1.5-6-.52-6.75c.97-.75 2.62 1.35 4.8 5.4c2.17 4.05 4.05 7.8 5.77 9.3c1.72 1.5 3.22 1.35 3.97.67c.75-.67 1.05-3.22-.9-5.17c-1.95-1.95-4.16-4.65-6.25-7.71c-2.31-3.39-5.59-8.87-7.39-12.02s-2.83-5.31-5.28-5.69c-3.17-.49-5.45 1.88-7.25 3.15c-1.8 1.27-4.27 1.95-6.75 1.8c-2.47-.15-5.77-2.85-7.12-4.05c-1.34-1.18-2.69-2-5.24-1.63z"
     fill="url(#IconifyId17ecdb2904d178eab21403)"
     id="path36" />
  <path
     d="M55.56 57.12s1.7.36 2.94 1.29s4.29 3.42 8.26 3.36c3.97-.05 6.18-1.96 7.78-2.89c1.6-.93 3.09-.77 3.09-.77s-2.69 10.49-10.68 10.8c-10.45.41-11.39-11.79-11.39-11.79z"
     fill="#ec5f32"
     id="path38" />
  <radialGradient
     id="IconifyId17ecdb2904d178eab21404"
     cx="103.004"
     cy="55.494"
     r="12.247"
     gradientUnits="userSpaceOnUse">
    <stop
       offset=".045"
       stop-color="#cb2d30"
       id="stop40" />
    <stop
       offset=".344"
       stop-color="#d23730"
       id="stop42" />
    <stop
       offset=".851"
       stop-color="#e45231"
       id="stop44" />
    <stop
       offset="1"
       stop-color="#ea5b31"
       id="stop46" />
  </radialGradient>
  <path
     d="M105.24 58.54c-1.46.21-.7 2.3-.49 7.24s.16 7.02 2.51 7.03c2.94.01 2.02-6.2 1.46-8.08c-.55-1.88-1.72-6.44-3.48-6.19z"
     fill="url(#IconifyId17ecdb2904d178eab21404)"
     id="path49" />
  <radialGradient
     id="IconifyId17ecdb2904d178eab21405"
     cx="101.39"
     cy="32.475"
     r="15.726"
     gradientUnits="userSpaceOnUse">
    <stop
       offset=".294"
       stop-color="#cb2d30"
       id="stop51" />
    <stop
       offset=".515"
       stop-color="#d23730"
       id="stop53" />
    <stop
       offset=".89"
       stop-color="#e45231"
       id="stop55" />
    <stop
       offset="1"
       stop-color="#ea5b31"
       id="stop57" />
  </radialGradient>
  <path
     d="M104.89 34.45c-.64 1.28 1.39 2.72 3.27 4.94c1.27 1.51 3.13 5.22 5.71 5.5c2.58.28 2.88-2.82 1.6-4.6c-1.25-1.74-3.41-3.48-5.85-4.73c-2.43-1.25-4.24-2.09-4.73-1.11z"
     fill="url(#IconifyId17ecdb2904d178eab21405)"
     id="path60" />
  <radialGradient
     id="IconifyId17ecdb2904d178eab21406"
     cx="71.108"
     cy="28.034"
     r="23.699"
     gradientUnits="userSpaceOnUse">
    <stop
       offset=".045"
       stop-color="#cb2d30"
       id="stop62" />
    <stop
       offset=".344"
       stop-color="#d23730"
       id="stop64" />
    <stop
       offset=".851"
       stop-color="#e45231"
       id="stop66" />
    <stop
       offset="1"
       stop-color="#ea5b31"
       id="stop68" />
  </radialGradient>
  <path
     d="M71.96 22.05c.77.35 1.53-.14 1.81-1.18c.18-.69 3.26-5.69 7.8-8.77c3.69-2.51 5.43-2.51 7.31-3.27c1.14-.47 2.16-2.23 1.6-3.55c-.53-1.26-1.67-1.74-3.55-1.46c-1.19.18-5.53 1.29-9.82 5.92c-5.29 5.71-5.57 9.68-5.71 10.37c-.14.69-.18 1.6.56 1.94z"
     fill="url(#IconifyId17ecdb2904d178eab21406)"
     id="path71" />
  <radialGradient
     id="IconifyId17ecdb2904d178eab21407"
     cx="65.859"
     cy="27.226"
     r="19.059"
     gradientUnits="userSpaceOnUse">
    <stop
       offset=".423"
       stop-color="#cb2d30"
       id="stop73" />
    <stop
       offset=".604"
       stop-color="#d23730"
       id="stop75" />
    <stop
       offset=".91"
       stop-color="#e45231"
       id="stop77" />
    <stop
       offset="1"
       stop-color="#ea5b31"
       id="stop79" />
  </radialGradient>
  <path
     d="M61.79 22.68c-1.43.38-2.65-1.67-5.22-4.32c-2.58-2.65-4.87-2.99-6.13-4.6s-1.04-3.41.07-4.39c1.11-.97 3.06-1.11 4.8.21c1.74 1.32 3.97 3.83 5.57 7.31c.87 1.88 2.24 5.44.91 5.79z"
     fill="url(#IconifyId17ecdb2904d178eab21407)"
     id="path82" />
  <radialGradient
     id="IconifyId17ecdb2904d178eab21408"
     cx="31.942"
     cy="30.052"
     r="16.559"
     gradientUnits="userSpaceOnUse">
    <stop
       offset=".341"
       stop-color="#cb2d30"
       id="stop84" />
    <stop
       offset=".547"
       stop-color="#d23730"
       id="stop86" />
    <stop
       offset=".897"
       stop-color="#e45231"
       id="stop88" />
    <stop
       offset="1"
       stop-color="#ea5b31"
       id="stop90" />
  </radialGradient>
  <path
     d="M27.98 33.3c-1.01-.95-5.03.73-8.11 3.32c-1.47 1.23-2.95 2.69-3.56 4.22c-.51 1.3-.49 2.95.71 3.75c1.08.72 2.4.38 3.32-.33c1.27-.99 2.15-2.98 2.89-4.08c1.3-1.92 3.46-3.75 4.17-4.36c.65-.57 1.34-1.81.58-2.52z"
     fill="url(#IconifyId17ecdb2904d178eab21408)"
     id="path93" />
  <radialGradient
     id="IconifyId17ecdb2904d178eab21409"
     cx="31.538"
     cy="53.067"
     r="19.084"
     gradientUnits="userSpaceOnUse">
    <stop
       offset=".483"
       stop-color="#cb2d30"
       id="stop95" />
    <stop
       offset=".645"
       stop-color="#d23730"
       id="stop97" />
    <stop
       offset=".919"
       stop-color="#e45231"
       id="stop99" />
    <stop
       offset="1"
       stop-color="#ea5b31"
       id="stop101" />
  </radialGradient>
  <path
     d="M31.31 59.59c-1.16-.36-2.9.91-4.36 6.49c-1.29 4.94-1.69 9.39 1.56 9.47c3.42.09 2-4.89 2.4-9.38s1.56-6.23.4-6.58z"
     fill="url(#IconifyId17ecdb2904d178eab21409)"
     id="path104" />
  <radialGradient
     id="IconifyId17ecdb2904d178eab21410"
     cx="43.022"
     cy="45.973"
     r="11.209"
     gradientUnits="userSpaceOnUse">
    <stop
       offset=".045"
       stop-color="#cb2d30"
       id="stop106" />
    <stop
       offset=".344"
       stop-color="#d23730"
       id="stop108" />
    <stop
       offset=".851"
       stop-color="#e45231"
       id="stop110" />
    <stop
       offset="1"
       stop-color="#ea5b31"
       id="stop112" />
  </radialGradient>
  <path
     d="M31 53.11c1.91.38 2.91-1.07 3.3-2.4c.31-1.06 1.62-6.58 8.44-7.2c6.6-.6 11.32 6.04 12 6.77c.69.73 1.59.86 2.1.34c.45-.45.36-1.28-.09-2.4c-.47-1.2-5.92-10.57-15.6-9.34c-9.17 1.16-12.34 8.23-12.26 10.93c.07 1.89.61 3 2.11 3.3z"
     fill="url(#IconifyId17ecdb2904d178eab21410)"
     id="path115" />
  <radialGradient
     id="IconifyId17ecdb2904d178eab21411"
     cx="89.752"
     cy="44.069"
     r="12.551"
     gradientUnits="userSpaceOnUse">
    <stop
       offset=".045"
       stop-color="#cb2d30"
       id="stop117" />
    <stop
       offset=".344"
       stop-color="#d23730"
       id="stop119" />
    <stop
       offset=".851"
       stop-color="#e45231"
       id="stop121" />
    <stop
       offset="1"
       stop-color="#ea5b31"
       id="stop123" />
  </radialGradient>
  <path
     d="M74.48 51.9c1.24.41 1.82-.97 2.27-1.62c.45-.65 2.84-5.23 7.09-7.42c4.26-2.19 7.46-2.43 11.47-.61c2.13.97 3.63 3.59 4.54 5.19c1.22 2.15 2.92 2.72 4.54 1.82c1.62-.89 1.86-3.57-.53-6.77c-1.93-2.59-6.25-7.01-13.91-6.24c-12.2 1.22-15.49 11.91-15.81 12.93c-.35 1.18-.51 2.44.34 2.72z"
     fill="url(#IconifyId17ecdb2904d178eab21411)"
     id="path126" />
  <radialGradient
     id="IconifyId17ecdb2904d178eab21412"
     cx="51.323"
     cy="34.898"
     r="42.087"
     gradientUnits="userSpaceOnUse">
    <stop
       offset=".394"
       stop-color="#cb2d30"
       id="stop128" />
    <stop
       offset=".584"
       stop-color="#d23730"
       id="stop130" />
    <stop
       offset=".906"
       stop-color="#e45231"
       id="stop132" />
    <stop
       offset="1"
       stop-color="#ea5b31"
       id="stop134" />
  </radialGradient>
  <path
     d="M68.6 54.21c1.27.13 1.6-.43 1.95-2.63c.8-4.95 2.03-14.3 8.59-21.86c5.18-5.97 11.01-5.25 13.58-3.65c2.25 1.4 2.8 2.74 3.71 3.71c.91.97 2.74 2.13 4.38.97c1.37-.96 1.71-3.41-.67-6.09s-4.81-4.87-10.78-5.36c-5.97-.49-11.87 3.35-15.04 7.98s-5.48 11.2-6.21 15.65c-.73 4.45-.79 8.4-.79 9.32c0 .91.24 1.85 1.28 1.96z"
     fill="url(#IconifyId17ecdb2904d178eab21412)"
     id="path137" />
  <radialGradient
     id="IconifyId17ecdb2904d178eab21413"
     cx="76.76"
     cy="47.011"
     r="40.3"
     gradientUnits="userSpaceOnUse">
    <stop
       offset=".42"
       stop-color="#cb2d30"
       id="stop139" />
    <stop
       offset=".602"
       stop-color="#d23730"
       id="stop141" />
    <stop
       offset=".91"
       stop-color="#e45231"
       id="stop143" />
    <stop
       offset="1"
       stop-color="#ea5b31"
       id="stop145" />
  </radialGradient>
  <path
     d="M63.51 54.22c1.33-.2 1.52-1.22 1.34-2.8c-.18-1.58-1.37-10.27-3.75-17.03c-2.37-6.76-5.96-13.06-12.97-14.37c-7-1.31-12.57 3.61-13.35 4.42c-1.22 1.27-2.49 3.39-.97 5.1c1.52 1.71 3.98.38 5.56-1.33c1.58-1.71 4.24-4.04 8.57-2.7c4.32 1.34 6.37 5.39 8.26 9.23c1.89 3.84 3.39 9.37 4.18 12.29c.79 2.92 1.29 5.23 1.6 6.09c.31.8.92 1.19 1.53 1.1z"
     fill="url(#IconifyId17ecdb2904d178eab21413)"
     id="path148" />
  <text
     xml:space="preserve"
     style="font-size:12px;line-height:0;font-family:'Rock 3D';-inkscape-font-specification:'Rock 3D'"
     x="3.4461007"
     y="122.11115"
     id="text160"><tspan
       sodipodi:role="line"
       id="tspan158"
       x="3.4461007"
       y="122.11115"
       style="font-size:26.6667px;line-height:1.55;fill:#ffffff">MAGMA</tspan></text>
  <text
     xml:space="preserve"
     style="font-size:12px;line-height:0;font-family:'Rock 3D';-inkscape-font-specification:'Rock 3D'"
     x="2.3124452"
     y="123.00738"
     id="text160-3"><tspan
       sodipodi:role="line"
       id="tspan158-6"
       x="2.3124452"
       y="123.00738"
       style="font-size:26.6667px;line-height:1.55;fill:#000000">MAGMA</tspan></text>
</svg>
