<?xml version="1.0" standalone="no"?>
<!DOCTYPE svg PUBLIC "-//W3C//DTD SVG 20010904//EN"
 "http://www.w3.org/TR/2001/REC-SVG-20010904/DTD/svg10.dtd">
<svg version="1.0" xmlns="http://www.w3.org/2000/svg"
 width="256.000000pt" height="256.000000pt" viewBox="0 0 256.000000 256.000000"
 preserveAspectRatio="xMidYMid meet">
<metadata>
Created by potrace 1.16, written by Peter Selinger 2001-2019
</metadata>
<g transform="translate(0.000000,256.000000) scale(0.064000,-0.064000)"
fill="#000000" stroke="none">
<path d="M0 2000 l0 -2000 2000 0 2000 0 0 2000 0 2000 -2000 0 -2000 0 0
-2000z m3031 1100 c25 -7 45 -24 67 -54 31 -43 33 -43 119 -57 l88 -15 -2 -47
c-2 -27 -8 -57 -13 -68 -18 -33 -77 -51 -170 -50 l-85 0 -58 -61 -58 -60 -46
17 c-58 22 -137 87 -181 147 l-34 48 24 29 c12 17 26 30 29 30 4 1 9 -17 13
-40 8 -48 31 -73 114 -122 101 -59 130 -48 151 57 17 88 14 115 -19 184 -17
35 -30 66 -30 68 0 8 55 4 91 -6z m-385 -301 c46 -60 150 -141 205 -159 44
-15 44 -16 24 -84 -20 -65 -19 -95 3 -102 41 -14 179 -87 206 -108 l29 -24
-123 -146 c-68 -80 -126 -146 -129 -146 -3 1 -23 16 -45 35 l-39 34 62 73 c43
51 57 74 48 80 -6 4 -48 8 -91 8 -73 0 -87 -4 -179 -46 -155 -71 -217 -76
-426 -33 -155 32 -297 23 -389 -25 -18 -9 -68 -40 -110 -67 -127 -83 -329
-172 -484 -214 l-66 -18 -36 -86 c-20 -47 -36 -89 -36 -93 0 -9 750 -11 750
-2 0 3 -25 35 -56 70 -52 59 -55 66 -41 82 31 35 88 166 94 214 5 45 9 52 40
64 44 19 137 30 191 24 l43 -5 -49 -70 c-27 -38 -82 -107 -121 -153 l-72 -83
66 -75 67 -74 214 0 214 0 0 -55 0 -55 -860 0 -860 0 0 55 0 55 113 0 114 0
37 94 c53 134 82 171 164 207 163 72 217 104 277 163 41 41 67 76 77 106 18
50 57 166 65 192 3 11 -9 24 -44 44 -78 45 -270 173 -283 190 -33 38 16 21
188 -66 l187 -95 65 32 c54 27 87 35 193 48 168 19 429 69 517 99 83 28 150
69 205 125 21 23 40 41 41 41 1 0 19 -23 40 -51z m309 -1129 l225 0 0 -55 0
-55 -340 0 -340 0 0 55 0 55 60 0 60 0 0 190 0 189 -40 23 c-22 13 -40 25 -40
28 0 3 42 24 93 47 l92 42 3 -260 2 -259 225 0z m-1510 -294 c41 -17 55 -42
55 -95 0 -30 -6 -44 -25 -60 -38 -29 -79 -35 -118 -16 -84 40 -73 147 18 177
30 9 33 9 70 -6z m232 -1 c30 -13 33 -17 23 -30 -9 -11 -23 -13 -53 -8 -32 5
-43 2 -54 -12 -21 -29 -16 -63 12 -81 32 -21 55 -12 55 21 0 20 5 25 25 25 22
0 25 -4 25 -34 0 -38 -12 -51 -56 -60 -39 -9 -98 14 -113 42 -14 26 -14 78 0
103 10 20 61 48 87 49 7 0 29 -7 49 -15z m221 -8 c24 -19 6 -32 -43 -32 -41 0
-51 -4 -61 -23 -15 -30 -7 -59 18 -73 28 -15 58 -2 58 27 0 17 5 24 20 24 17
0 20 -7 20 -40 0 -37 -2 -40 -37 -49 -125 -35 -198 114 -84 171 35 17 83 15
109 -5z m381 -3 c12 -11 12 -16 1 -29 -9 -11 -16 -13 -24 -5 -14 14 -59 13
-74 -2 -17 -17 -15 -58 5 -80 18 -20 44 -23 59 -8 11 11 44 3 44 -10 0 -12
-23 -27 -52 -34 -34 -8 -93 15 -107 42 -16 30 -13 84 4 110 28 39 110 48 144
16z m204 -15 c17 -18 27 -40 27 -59 0 -37 -44 -86 -85 -94 -45 -9 -97 21 -111
64 -16 48 1 90 47 113 44 22 86 14 122 -24z m-1236 7 c22 -19 28 -32 28 -66 0
-34 -6 -47 -28 -66 -23 -20 -39 -24 -93 -24 l-64 0 0 90 0 90 64 0 c54 0 70
-4 93 -24z m1464 -21 c34 -44 51 -56 48 -32 -1 6 -1 27 0 45 1 27 5 32 26 32
25 0 25 -1 25 -90 0 -89 0 -90 -24 -90 -17 0 -37 15 -65 48 l-41 47 0 -47 c0
-44 -2 -48 -25 -48 -25 0 -25 1 -25 90 0 88 0 90 24 90 16 0 34 -14 57 -45z"/>
</g>
</svg>
