<?xml version="1.0" standalone="no"?>
<!DOCTYPE svg PUBLIC "-//W3C//DTD SVG 20010904//EN"
 "http://www.w3.org/TR/2001/REC-SVG-20010904/DTD/svg10.dtd">
<svg version="1.0" xmlns="http://www.w3.org/2000/svg"
 width="252.000000pt" height="252.000000pt" viewBox="0 0 252.000000 252.000000"
 preserveAspectRatio="xMidYMid meet">

<g transform="translate(0.000000,252.000000) scale(0.100000,-0.100000)"
fill="#000000" stroke="none">
<path d="M1354 1612 c-24 -8 -113 -73 -114 -84 0 -3 35 -21 78 -38 42 -18 89
-41 103 -51 l26 -18 36 44 c20 24 37 47 37 50 0 4 -19 29 -42 56 -42 50 -66
58 -124 41z m6 -43 c0 -6 9 -9 20 -6 21 5 28 -7 10 -18 -16 -10 -50 5 -50 21
0 8 5 14 10 14 6 0 10 -5 10 -11z"/>
<path d="M1706 1603 c-8 -20 21 -46 41 -39 7 3 13 1 13 -5 0 -15 -30 -23 -43
-10 -19 19 -27 12 -27 -24 0 -48 32 -66 65 -35 13 12 27 20 32 17 5 -3 10 12
11 34 3 34 -1 41 -30 59 -40 24 -54 25 -62 3z"/>
<path d="M1770 1343 c-31 -6 -40 -19 -40 -60 0 -49 31 -75 83 -71 37 3 42 6
45 30 2 20 -2 28 -18 31 -18 4 -18 5 2 3 17 -1 24 -8 26 -29 4 -35 -11 -55
-45 -59 l-25 -3 34 -34 c32 -31 34 -37 28 -73 -4 -21 -9 -40 -11 -42 -13 -12
-151 -97 -186 -115 -70 -35 -142 -29 -241 19 -44 22 -86 40 -92 40 -16 0 -11
-22 18 -74 31 -57 50 -65 157 -69 60 -2 78 2 122 26 44 23 65 27 130 27 56 0
81 -4 94 -16 46 -42 62 14 33 121 -14 56 -12 125 4 125 4 0 25 14 45 31 l38
32 -23 11 c-40 20 -32 88 11 85 13 -1 13 -2 -1 -6 -26 -7 -25 -63 1 -63 24 0
44 51 32 84 -16 40 -54 56 -128 55 -37 -1 -79 -4 -93 -6z"/>
<path d="M670 1160 c-1 -154 50 -425 87 -461 33 -32 418 -348 421 -345 2 3
-126 370 -177 506 -11 30 -25 73 -30 95 -6 22 -16 49 -23 58 -12 17 -16 17
-46 2 -44 -22 -64 -13 -125 57 -28 34 -64 75 -79 92 l-27 31 -1 -35z"/>
<path d="M242 711 c-16 -10 62 -129 141 -213 l54 -58 66 0 67 0 -5 28 c-6 33
-35 241 -35 247 0 9 -275 5 -288 -4z"/>
<path d="M1414 523 c3 -21 6 -48 6 -60 l0 -23 333 0 333 0 30 32 c16 18 40 45
53 61 l24 27 -393 0 -393 0 7 -37z"/>
</g>
</svg>
