<?xml version="1.0" standalone="no"?>
<!DOCTYPE svg PUBLIC "-//W3C//DTD SVG 20010904//EN"
 "http://www.w3.org/TR/2001/REC-SVG-20010904/DTD/svg10.dtd">
<svg version="1.0" xmlns="http://www.w3.org/2000/svg"
 width="256.000000pt" height="256.000000pt" viewBox="0 0 256.000000 256.000000"
 preserveAspectRatio="xMidYMid meet">

<g transform="translate(0.000000,256.000000) scale(0.100000,-0.100000)"
fill="#000000" stroke="none">
<path d="M1095 2184 c-41 -23 -45 -32 -39 -83 4 -35 13 -51 40 -74 19 -16 34
-36 34 -44 0 -27 24 -7 47 38 12 24 23 56 23 71 0 15 5 39 10 54 7 16 7 31 2
36 -18 18 -86 19 -117 2z"/>
<path d="M900 2086 c0 -17 52 -16 58 2 2 8 -7 12 -27 12 -19 0 -31 -5 -31 -14z"/>
<path d="M418 1587 c-24 -21 -33 -54 -29 -104 1 -18 63 -41 127 -47 30 -3 59
-8 64 -11 5 -3 11 -1 14 4 4 5 2 12 -4 16 -5 3 -19 25 -29 48 -23 48 -82 117
-102 117 -8 0 -26 -10 -41 -23z"/>
<path d="M2192 1547 c-1 -30 -11 -61 -27 -87 -14 -22 -22 -40 -18 -40 5 0 0
-5 -10 -11 -9 -6 -15 -16 -11 -22 3 -7 -1 -4 -9 6 -11 14 -16 15 -20 5 -4 -10
-6 -10 -6 0 -1 6 -7 12 -14 12 -31 0 -66 -25 -65 -47 1 -12 4 -20 6 -18 3 2
13 0 23 -5 13 -7 20 -6 26 4 4 8 21 17 36 20 25 4 30 1 44 -31 10 -25 12 -48
7 -72 -10 -48 -7 -62 21 -90 l23 -24 15 30 c8 16 18 44 22 63 9 49 -11 280
-27 319 l-14 34 -2 -46z"/>
<path d="M479 1320 c-9 -5 -32 -11 -53 -13 -20 -2 -38 -6 -40 -8 -75 -84 -83
-99 -90 -153 -11 -97 44 -260 119 -350 47 -55 80 -72 101 -51 36 36 86 4 65
-41 -6 -15 -9 -36 -5 -47 6 -19 7 -19 19 -4 18 25 48 10 123 -60 80 -75 82
-101 5 -73 l-28 11 30 -25 c17 -14 38 -25 48 -26 9 0 17 -4 17 -9 0 -14 52
-48 114 -76 36 -16 55 -20 53 -12 -1 6 4 11 11 10 6 -2 12 6 12 17 0 22 16 27
23 8 6 -19 98 -14 109 6 6 10 23 16 43 16 50 0 142 65 154 108 6 22 6 43 0 60
-8 20 -7 29 4 37 23 16 10 75 -17 76 -71 5 -86 11 -86 40 0 21 -25 26 -33 7
-4 -10 -8 -9 -16 2 -9 13 -12 12 -17 -7 -3 -12 -15 -25 -26 -29 -25 -8 -98
-73 -98 -87 0 -5 -7 -15 -15 -21 -17 -12 -17 -17 -9 -114 4 -39 2 -62 -4 -62
-6 0 -14 -9 -17 -21 -8 -23 -15 -20 -19 8 -2 10 -10 17 -18 15 -8 -1 -23 7
-33 18 -10 11 -23 20 -29 20 -6 0 -28 5 -48 10 l-37 11 0 55 c1 35 10 75 24
108 12 28 23 55 23 59 0 5 19 29 41 55 44 49 49 62 27 62 -8 0 -20 14 -28 30
-13 31 -27 37 -44 20 -14 -14 -78 46 -70 65 9 23 -31 37 -85 31 -46 -6 -48 -5
-34 11 55 64 73 92 71 108 -2 10 -8 21 -14 23 -7 2 -12 12 -12 22 0 10 -4 22
-10 25 -15 9 -12 61 4 75 8 6 12 18 10 25 -13 33 -173 59 -215 35z m134 -227
c-7 -2 -13 -11 -13 -19 0 -8 -7 -14 -15 -14 -9 0 -21 -12 -27 -26 -14 -29 0
-44 40 -44 37 0 16 -18 -31 -25 -23 -4 -46 -11 -52 -15 -5 -4 -21 -10 -34 -12
-21 -2 -26 2 -32 32 -9 41 3 60 40 61 14 0 46 15 71 34 25 19 50 34 55 34 6
-1 4 -3 -2 -6z m432 -638 c-32 -14 -41 -13 -30 4 3 6 18 11 33 10 l27 -1 -30
-13z"/>
<path d="M662 554 c10 -10 20 -15 24 -12 3 4 -5 12 -18 18 -22 12 -22 12 -6
-6z"/>
</g>
</svg>
