<?xml version="1.0" standalone="no"?>
<!DOCTYPE svg PUBLIC "-//W3C//DTD SVG 20010904//EN"
 "http://www.w3.org/TR/2001/REC-SVG-20010904/DTD/svg10.dtd">
<svg version="1.0" xmlns="http://www.w3.org/2000/svg"
 width="256.000000pt" height="256.000000pt" viewBox="0 0 256.000000 256.000000"
 preserveAspectRatio="xMidYMid meet">
<metadata>
Created by potrace 1.16, written by Peter Selinger 2001-2019
</metadata>
<g transform="translate(0.000000,256.000000) scale(0.040000,-0.040000)"
fill="#000000" stroke="none">
<path d="M3044 6328 c-18 -16 -34 -28 -37 -28 -4 0 -17 11 -31 25 -21 21 -35
25 -81 25 -50 0 -60 -4 -87 -31 l-31 -30 4 -162 4 -162 -57 -3 c-63 -3 -56 -9
-72 68 -37 183 -44 204 -80 237 -63 58 -148 36 -192 -48 -14 -29 -15 -29 -45
-13 -66 34 -204 24 -279 -19 -84 -49 -160 -154 -160 -222 0 -14 -2 -25 -5 -25
-7 0 -78 40 -94 54 -8 6 -63 13 -128 15 -108 3 -116 2 -170 -25 -31 -16 -82
-55 -114 -87 -68 -67 -99 -137 -107 -239 -2 -38 -7 -68 -10 -68 -3 0 -30 12
-61 27 -46 23 -73 28 -151 31 -126 5 -185 -16 -268 -96 -80 -78 -112 -149
-112 -251 0 -86 -13 -121 -28 -80 -6 14 -22 39 -37 57 -24 29 -32 32 -78 32
-55 -1 -93 -22 -116 -67 -16 -32 -13 -84 7 -118 10 -16 24 -46 32 -65 7 -19
22 -48 33 -63 10 -16 17 -31 13 -34 -3 -3 -45 8 -93 26 -93 33 -175 40 -203
18 -67 -52 -66 -143 1 -195 38 -30 369 -132 429 -132 15 0 30 -20 59 -79 57
-112 102 -144 173 -120 53 17 78 54 78 117 0 43 -11 73 -73 196 l-74 145 41
-28 c157 -108 304 -127 446 -60 119 56 194 163 206 293 7 77 12 87 33 62 20
-24 103 -41 196 -41 78 0 98 4 149 29 74 35 151 107 177 163 11 24 23 42 27
40 68 -35 88 -39 181 -35 79 3 105 9 149 31 29 14 63 38 76 52 27 29 34 30 57
9 22 -20 93 -21 124 0 47 31 58 69 50 171 l-7 92 64 5 c34 3 65 4 67 2 4 -4
14 -54 28 -131 3 -20 19 -45 40 -64 33 -28 40 -30 87 -25 28 3 69 5 91 4 22
-2 133 -3 247 -3 193 0 209 1 235 21 15 11 32 35 38 52 5 18 12 32 15 32 3 0
16 -24 30 -52 38 -79 103 -117 178 -103 29 5 53 22 106 78 62 64 68 68 63 41
-9 -44 12 -105 52 -146 34 -37 109 -72 206 -97 100 -26 172 -43 194 -46 12 -2
30 -13 38 -24 19 -28 65 -51 101 -51 32 0 91 39 108 73 7 12 16 20 20 17 5 -3
24 -34 42 -69 52 -97 99 -168 117 -175 9 -3 30 -6 45 -6 16 0 35 -8 42 -17 37
-48 134 -135 167 -149 20 -9 65 -19 101 -22 l65 -7 6 -40 c3 -22 10 -49 17
-61 24 -45 253 -247 320 -283 31 -16 68 -13 112 9 30 15 42 29 51 60 18 60 3
97 -61 148 -154 124 -208 182 -169 182 6 0 53 -36 105 -79 138 -115 177 -130
239 -91 44 27 67 85 54 133 -7 28 -33 55 -119 126 -61 50 -110 95 -110 99 0 5
17 23 39 40 l38 31 29 -22 c16 -12 68 -61 115 -109 86 -88 87 -88 137 -88 40
0 57 6 81 26 29 24 31 31 31 89 l0 63 -109 108 c-114 115 -185 165 -264 186
-36 9 -54 10 -78 1 -35 -14 -45 -1 -36 45 6 27 0 39 -57 128 -24 37 -99 89
-152 104 -41 12 -189 9 -231 -5 -18 -6 -22 -2 -28 27 -22 101 -133 221 -267
289 -74 37 -86 40 -146 37 -57 -3 -66 -1 -72 17 -20 53 -122 103 -303 150
-105 26 -176 30 -234 10 -18 -6 -23 -3 -28 18 -8 30 -39 59 -81 76 -26 10 -37
9 -75 -7 -24 -11 -49 -26 -56 -33 -6 -8 -25 -55 -41 -104 -52 -158 -114 -307
-123 -298 -5 5 -10 102 -12 216 l-2 207 -31 31 c-36 36 -92 45 -141 22 -31
-14 -33 -14 -57 14 l-24 28 -244 0 -243 0 -31 -27z m494 -25 c34 -29 37 -66 9
-99 -22 -25 -32 -28 -103 -33 l-79 -6 -3 -237 -2 -238 80 0 c67 0 83 -3 100
-20 26 -26 26 -72 -1 -96 -18 -16 -40 -18 -222 -19 -136 0 -211 4 -229 12 -22
10 -33 9 -65 -7 -33 -16 -41 -16 -64 -4 -29 14 -41 35 -45 74 -3 34 -31 150
-37 156 -3 3 -31 1 -63 -5 -32 -6 -79 -11 -105 -11 -26 0 -51 -4 -54 -10 -3
-5 -1 -53 5 -105 12 -114 7 -141 -31 -161 -35 -18 -56 -9 -92 37 l-25 32 -16
-30 c-24 -48 -125 -110 -192 -119 -97 -12 -150 -1 -190 37 -29 28 -34 40 -32
69 3 31 8 37 44 49 38 13 42 13 71 -8 25 -19 38 -22 70 -16 52 8 101 39 113
70 23 59 -28 90 -162 98 -54 4 -112 13 -131 20 -153 64 -183 257 -57 370 111
100 280 102 351 4 34 -47 37 -89 9 -117 -30 -30 -73 -26 -103 10 -22 26 -33
30 -73 30 -35 0 -56 -6 -81 -26 -29 -22 -33 -31 -33 -70 0 -62 30 -79 154 -87
102 -6 178 -31 217 -73 12 -13 26 -24 30 -24 9 0 1 66 -17 145 -7 33 -20 98
-28 145 -8 47 -19 98 -25 114 -26 66 73 126 119 71 14 -17 38 -108 58 -225
l17 -95 45 1 c46 1 171 22 179 30 2 2 -1 39 -7 82 -7 42 -12 115 -12 161 0 97
13 121 65 121 50 0 62 -23 69 -130 3 -52 16 -147 27 -210 54 -302 53 -297 94
-276 16 8 40 11 69 6 27 -4 49 -3 56 4 12 12 13 141 3 339 l-6 137 -55 0 c-43
0 -61 5 -79 22 -26 24 -30 65 -9 93 13 18 29 19 199 20 102 0 189 3 193 8 13
13 61 7 82 -10z m201 -40 c19 -17 21 -30 25 -222 4 -144 10 -225 22 -277 10
-41 21 -74 25 -74 10 0 49 50 49 62 0 5 13 37 29 71 16 34 47 116 70 182 68
195 72 205 91 215 48 26 110 0 110 -46 0 -29 -99 -316 -128 -370 -5 -10 -28
-58 -50 -106 -27 -56 -58 -105 -90 -137 -46 -48 -51 -51 -100 -51 -49 0 -53 2
-76 38 -61 91 -86 241 -86 507 0 177 1 185 22 205 27 25 59 26 87 3z m785
-154 c17 -6 45 -18 63 -25 17 -8 35 -14 40 -14 18 0 69 -30 88 -50 21 -23 15
-76 -13 -96 -24 -19 -53 -17 -109 7 -88 38 -227 80 -249 75 -23 -6 -73 -111
-77 -161 -2 -26 2 -30 43 -42 78 -24 153 -44 204 -54 27 -5 58 -17 68 -26 24
-22 23 -75 -2 -98 -23 -20 -84 -17 -180 10 -139 39 -172 45 -186 34 -18 -15
-29 -96 -15 -112 9 -12 71 -34 186 -67 17 -5 48 -12 70 -16 22 -4 52 -15 67
-26 l27 -19 25 39 c25 40 132 260 168 347 12 28 25 54 30 60 4 5 8 16 8 26 0
25 46 69 73 69 47 0 186 -79 252 -144 76 -74 96 -112 98 -180 2 -73 -22 -118
-81 -152 -40 -24 -61 -29 -139 -32 -95 -4 -127 -18 -105 -44 6 -7 18 -33 28
-58 21 -53 83 -160 93 -160 4 0 16 7 27 15 10 8 28 15 40 15 29 0 68 -44 61
-70 -11 -41 84 -120 144 -120 33 0 59 28 59 65 0 22 -16 55 -51 106 -29 41
-60 92 -70 114 -63 137 47 305 200 305 96 0 221 -80 255 -162 46 -108 -22
-232 -102 -187 -25 14 -27 20 -27 78 0 60 -2 65 -35 92 -65 54 -170 29 -170
-41 0 -14 20 -54 45 -90 66 -97 95 -159 95 -207 0 -24 3 -43 8 -43 4 0 57 51
117 114 160 165 185 177 283 131 69 -32 278 -233 287 -276 10 -46 -16 -79 -64
-79 -35 0 -45 7 -110 77 -69 73 -163 153 -182 153 -10 0 -139 -121 -139 -131
0 -11 86 -91 166 -154 80 -64 101 -100 77 -134 -8 -12 -26 -27 -40 -32 -34
-13 -80 16 -227 144 -69 60 -82 65 -105 36 -39 -48 -46 -67 -31 -94 8 -14 64
-67 126 -118 105 -86 113 -94 113 -128 1 -22 -5 -42 -15 -50 -25 -21 -80 -16
-106 10 -13 12 -65 55 -116 96 -124 97 -157 142 -157 215 l0 55 -85 5 c-69 4
-94 10 -132 33 -58 33 -105 81 -124 124 -17 40 -28 47 -54 33 -51 -27 -122 63
-199 255 -16 38 -33 71 -39 73 -5 1 -20 -19 -32 -45 -40 -84 -67 -113 -105
-113 -35 0 -65 21 -65 46 0 9 -11 14 -29 14 -16 0 -42 5 -58 11 -15 6 -62 17
-103 25 -41 8 -84 19 -95 24 -11 5 -45 19 -76 30 -31 11 -65 31 -77 43 -31 33
-40 129 -19 199 8 29 23 80 32 113 29 102 84 255 109 304 35 68 89 84 203 60
48 -10 100 -23 117 -30z m-1464 26 c14 -8 44 -14 68 -15 l42 0 0 -185 0 -185
-45 0 c-25 0 -45 1 -45 3 -1 7 -30 173 -44 247 -17 92 -20 150 -8 150 4 -1 18
-7 32 -15z m520 -152 c0 -91 6 -185 14 -220 7 -35 9 -63 5 -63 -5 0 -23 9 -41
20 -23 14 -51 20 -90 20 l-58 0 0 190 0 190 48 1 c26 0 56 4 67 9 55 24 55 23
55 -147z m-1790 -45 c105 -49 200 -172 234 -305 22 -85 21 -127 -3 -206 -47
-148 -202 -236 -363 -207 -80 15 -132 41 -190 98 -26 25 -51 43 -55 39 -4 -4
1 -29 10 -55 25 -69 23 -199 -3 -255 -22 -47 -83 -110 -140 -144 -78 -48 -232
-47 -326 1 -71 36 -169 143 -205 223 -58 130 -29 284 72 382 71 69 124 91 219
91 70 0 90 -4 145 -31 73 -35 138 -89 180 -148 37 -54 43 -46 12 16 -13 26
-32 78 -42 116 -17 64 -17 70 0 135 36 138 121 233 245 273 48 16 152 5 210
-23z m2666 -8 c60 -21 115 -44 146 -60 10 -6 36 -10 58 -10 22 0 40 -4 40 -8
0 -5 -9 -27 -20 -50 -11 -22 -20 -46 -20 -52 0 -15 -26 -12 -41 6 -18 22 -64
44 -91 44 -30 1 -188 46 -198 57 -13 14 29 93 49 93 10 0 44 -9 77 -20z m687
-570 c13 -50 35 -94 78 -157 32 -48 59 -91 59 -95 0 -15 -45 -8 -66 10 -12 9
-24 32 -27 49 -9 48 -35 82 -80 105 -32 16 -45 18 -64 9 -13 -6 -26 -11 -28
-11 -7 0 -54 87 -60 113 -7 27 -7 27 51 28 33 0 68 4 79 9 36 15 40 11 58 -60z
m-4501 -228 c32 -64 78 -153 103 -197 25 -44 50 -90 55 -102 5 -13 30 -65 55
-117 54 -110 57 -151 13 -175 -38 -22 -79 -6 -98 39 -8 19 -26 58 -40 85 l-26
50 -139 34 c-173 42 -307 87 -334 112 -28 26 -26 64 4 94 30 31 41 31 115 1
78 -32 237 -72 246 -63 4 4 -2 24 -13 45 -57 100 -123 237 -123 253 0 32 13
51 43 64 57 24 76 7 139 -123z"/>
<path d="M4855 5724 c-19 -42 -35 -83 -35 -90 0 -21 30 -32 95 -34 119 -6 137
-1 149 37 6 18 -2 32 -43 72 -46 47 -106 91 -123 91 -4 0 -23 -34 -43 -76z"/>
<path d="M1597 5816 c-50 -18 -74 -41 -103 -98 -31 -61 -31 -125 1 -198 64
-150 190 -208 314 -145 101 50 120 156 55 291 -38 78 -81 121 -148 149 -43 18
-69 18 -119 1z m135 -63 c33 -20 89 -99 106 -152 38 -110 -16 -195 -124 -195
-73 0 -128 39 -166 119 -45 96 -31 180 38 225 37 25 106 26 146 3z"/>
<path d="M968 5444 c-30 -15 -58 -40 -75 -67 -38 -58 -39 -162 -3 -222 54 -91
144 -155 220 -155 261 0 264 325 5 446 -63 30 -88 29 -147 -2z m140 -48 c67
-35 152 -153 152 -209 0 -42 -29 -96 -59 -112 -77 -39 -145 -27 -214 38 -87
82 -100 190 -31 261 30 31 41 36 80 36 25 0 57 -6 72 -14z"/>
<path d="M2940 5472 c-39 -4 -142 -43 -170 -63 -14 -10 -41 -40 -60 -67 -30
-42 -48 -55 -128 -92 -51 -23 -113 -46 -138 -51 -65 -12 -155 -80 -264 -198
-90 -97 -93 -99 -145 -104 -111 -11 -236 -101 -368 -265 -126 -157 -137 -185
-158 -399 -12 -119 -11 -134 22 -438 24 -223 59 -336 140 -442 l40 -54 -44
-107 c-60 -143 -83 -213 -115 -362 -24 -115 -27 -144 -27 -355 0 -200 3 -244
23 -342 61 -302 182 -564 367 -793 141 -176 350 -351 541 -455 75 -41 85 -50
80 -69 -13 -52 -9 -166 7 -190 40 -61 142 -59 382 7 156 42 162 43 250 35 50
-5 154 -6 232 -3 l143 7 20 -35 c12 -21 34 -40 52 -46 44 -15 288 -13 381 3
122 22 153 62 144 187 l-6 77 52 28 c191 99 389 266 550 463 143 175 270 432
330 666 47 185 52 230 52 460 0 192 -3 234 -23 330 -41 193 -91 338 -175 502
l-31 62 27 49 c66 121 86 225 123 647 7 76 -9 254 -31 348 -20 85 -116 218
-256 353 -86 82 -162 123 -245 131 -49 5 -62 11 -83 37 -62 75 -171 181 -223
217 -33 23 -78 43 -105 49 -27 5 -87 27 -134 49 -72 34 -93 49 -131 99 -45 56
-86 84 -168 112 -24 9 -136 13 -370 14 -184 1 -346 0 -360 -2z m683 -59 c16
-8 26 -17 24 -20 -3 -3 9 -33 27 -67 53 -100 72 -156 56 -166 -8 -5 -21 -5
-29 0 -9 4 -89 18 -179 30 -134 18 -191 21 -325 17 -145 -5 -243 -20 -263 -40
-4 -4 -17 -7 -29 -7 -13 0 -28 -7 -35 -15 -7 -8 -18 -15 -24 -15 -23 0 -310
-130 -379 -172 -221 -133 -397 -326 -498 -543 -61 -132 -87 -241 -96 -395 -24
-449 220 -840 706 -1127 41 -24 87 -47 102 -50 15 -3 30 -12 33 -20 4 -10 13
-12 28 -8 15 4 18 3 10 -2 -9 -7 -2 -14 23 -26 20 -9 43 -17 52 -17 9 0 24 -6
32 -13 18 -15 114 -47 140 -47 9 0 21 -4 27 -10 5 -5 34 -14 64 -20 61 -12 70
-17 50 -31 -17 -11 -145 -6 -210 9 -25 6 -94 19 -153 31 -192 36 -287 75 -412
173 -139 108 -279 278 -355 428 -61 122 -148 367 -166 470 -18 100 -24 309
-12 420 15 147 103 395 190 539 142 234 356 440 458 441 14 0 49 11 79 25 30
14 56 23 58 21 3 -3 -2 -19 -10 -36 -9 -16 -11 -28 -6 -25 10 7 107 124 149
181 32 43 58 61 123 85 47 17 82 19 387 18 272 -1 340 -4 363 -16z m-148 -313
c28 -5 75 -14 105 -22 54 -13 55 -15 76 -68 12 -30 25 -77 29 -103 6 -44 5
-48 -12 -43 -32 10 -197 39 -243 43 -25 3 -84 7 -132 10 -49 3 -88 9 -88 15 0
14 99 116 144 149 42 31 46 32 121 19z m-1430 -250 c3 -5 -8 -27 -26 -48 -17
-21 -52 -78 -78 -127 -40 -79 -49 -90 -70 -87 -31 5 -108 -17 -122 -34 -6 -8
-19 -14 -28 -14 -19 -1 -55 -46 -46 -60 3 -6 -1 -7 -9 -4 -11 4 -16 0 -16 -10
0 -9 -4 -16 -10 -16 -5 0 -19 -21 -31 -47 -18 -42 -21 -70 -24 -233 -2 -101 0
-189 5 -195 5 -6 9 -20 8 -30 -1 -43 14 -151 27 -194 82 -268 114 -346 163
-403 33 -36 40 -58 21 -58 -6 0 -35 25 -65 55 -73 73 -128 189 -144 306 -6 46
-16 98 -21 114 -43 144 -39 538 7 668 21 58 138 210 232 298 56 53 97 82 143
101 73 31 76 32 84 18z m1395 -1 c140 -17 370 -85 370 -110 0 -3 -21 -16 -47
-28 -27 -12 -73 -36 -104 -54 -119 -69 -148 -101 -129 -138 7 -13 8 -24 2 -32
-22 -27 -35 -127 -30 -233 5 -99 8 -115 38 -172 47 -90 122 -165 206 -204 63
-30 77 -33 164 -33 88 0 101 3 162 33 78 38 138 100 177 182 24 50 26 66 26
175 0 66 -4 134 -8 150 l-8 30 28 -35 c37 -46 45 -59 96 -165 58 -118 74 -173
87 -284 24 -215 -57 -496 -172 -594 -23 -20 -51 -44 -60 -52 -10 -8 -20 -15
-23 -15 -2 0 -39 -20 -81 -45 -41 -25 -78 -45 -81 -45 -3 0 -49 -15 -102 -34
-108 -37 -227 -74 -262 -81 -13 -3 -37 -7 -52 -11 -131 -28 -344 -46 -467 -38
-63 4 -131 8 -150 8 -19 1 -39 4 -45 7 -5 4 -26 10 -45 13 -56 11 -298 95
-376 131 -38 17 -97 49 -130 70 -32 22 -75 47 -96 58 -55 28 -136 100 -162
145 -45 78 -66 127 -80 192 -9 41 -21 94 -26 118 -35 153 30 403 151 584 46
69 128 163 135 155 3 -2 -2 -30 -11 -63 -30 -117 -8 -274 50 -360 28 -42 106
-109 154 -134 47 -23 193 -40 236 -27 60 19 138 59 177 90 85 67 148 194 163
323 7 64 -12 169 -42 227 -10 21 -11 32 -3 48 10 18 6 26 -30 59 -23 21 -78
57 -121 80 -43 23 -79 45 -79 49 0 11 150 50 230 60 96 12 274 12 370 0z
m1158 -29 c97 -46 231 -176 291 -284 24 -42 21 -45 -14 -12 -40 37 -102 49
-147 29 -21 -9 -38 -21 -38 -26 0 -5 -7 -4 -15 3 -8 7 -15 18 -15 24 0 19 -86
192 -120 241 -17 24 -30 46 -30 49 0 12 27 5 88 -24z m-1793 -137 c74 -37 92
-53 58 -53 -60 0 -223 -110 -254 -171 -31 -61 -26 -76 32 -96 56 -20 103 -56
96 -76 -9 -28 -57 -32 -117 -11 -38 13 -64 17 -74 12 -48 -27 21 -249 90 -295
39 -25 18 -33 -36 -13 -90 33 -155 93 -196 184 -94 207 20 462 241 537 70 24
75 24 160 -18z m1193 -68 c155 -72 262 -267 232 -426 -14 -75 -63 -171 -107
-210 -40 -35 -140 -85 -150 -75 -4 3 5 19 18 34 40 43 61 102 66 182 6 82 -10
160 -31 160 -8 0 -31 -7 -51 -16 -77 -32 -117 27 -54 80 17 14 34 26 39 26 22
0 17 33 -10 63 -36 41 -110 82 -181 100 -60 16 -70 28 -37 45 13 6 43 23 68
37 59 33 127 33 198 0z m660 -202 c26 -73 48 -167 63 -263 15 -101 6 -301 -16
-360 -10 -25 -17 -53 -17 -63 1 -9 -3 -15 -8 -12 -10 6 -28 -21 -47 -70 l-11
-30 -1 30 c0 17 4 50 10 75 6 25 13 59 16 75 9 51 11 475 2 481 -5 3 -9 23 -9
44 0 21 -4 41 -8 44 -5 3 -7 18 -4 34 2 17 -1 39 -7 50 -10 19 -5 36 9 27 4
-2 16 -30 28 -62z m-2248 -1661 c0 -4 -5 -13 -11 -19 -6 -6 -8 -16 -5 -22 11
-18 26 -13 26 9 0 11 5 20 11 20 5 0 7 -4 4 -10 -3 -5 0 -10 7 -10 8 -1 6 -6
-6 -15 -19 -14 -19 -15 5 -15 14 0 29 4 35 10 6 6 15 6 24 0 13 -8 12 -10 -2
-10 -21 0 -23 -11 -6 -28 8 -8 8 -15 -1 -26 -22 -26 -31 -75 -16 -84 10 -5 11
-12 5 -22 -8 -13 -10 -12 -10 3 0 10 -4 15 -10 12 -5 -3 -10 -1 -10 4 0 6 -5
11 -11 11 -6 0 -8 -9 -4 -20 5 -16 2 -20 -15 -20 -18 0 -21 4 -17 23 3 12 9
50 13 85 7 62 1 74 -25 50 -7 -7 -12 -8 -11 -3 5 22 -1 35 -14 35 -18 0 -29
-27 -27 -62 2 -17 -3 -28 -10 -28 -8 0 -10 -13 -6 -42 4 -33 3 -39 -5 -25 -10
19 -5 80 13 149 6 25 14 35 23 32 8 -3 20 2 27 10 15 17 29 21 29 8z m1695
-48 c-10 -7 -22 -11 -26 -8 -5 3 -9 3 -9 0 0 -7 60 -65 69 -67 28 -6 51 -5 51
3 0 5 5 6 10 3 6 -3 14 4 19 17 12 29 12 28 17 -129 2 -88 0 -134 -7 -139 -6
-4 -15 0 -20 7 -11 19 -20 6 -29 -43 -5 -27 -4 -48 2 -55 6 -7 7 -13 2 -13 -4
0 -3 -5 4 -12 15 -15 15 -29 0 -26 -7 2 -15 -14 -18 -39 -8 -56 -20 -66 -20
-17 0 21 -3 49 -6 62 -5 18 -3 21 10 16 11 -4 16 0 16 14 0 26 -20 40 -21 15
-1 -13 -3 -11 -9 7 -13 40 -11 47 12 53 20 6 20 8 7 24 -8 10 -16 34 -18 53
-2 19 -7 37 -12 38 -5 2 -7 8 -4 13 3 5 1 17 -5 28 -15 29 -2 51 30 51 22 0
30 -6 33 -22 3 -18 5 -16 6 8 1 29 -1 31 -41 32 -27 1 -45 8 -51 18 -8 14 -11
14 -18 3 -12 -20 -11 -31 2 -23 6 3 15 0 20 -7 14 -23 10 -30 -11 -19 -11 6
-20 7 -20 3 0 -4 -6 2 -14 13 -11 14 -12 22 -3 33 9 10 7 16 -6 26 -21 15 -22
35 -2 35 8 0 15 -9 15 -19 0 -11 6 -18 15 -17 28 4 28 16 -1 42 -16 14 -24 28
-18 30 6 3 20 11 30 18 10 8 23 12 28 9 5 -4 1 -12 -9 -19z m-1469 -130 c14
-4 37 -18 53 -33 15 -14 44 -41 65 -60 93 -84 189 -256 246 -440 45 -148 41
-241 -13 -241 -31 0 -33 3 -115 112 -80 106 -160 185 -254 251 -33 23 -69 48
-79 56 -51 37 -6 -19 117 -145 130 -133 194 -210 194 -234 0 -19 -25 -21 -63
-5 -49 20 -197 20 -266 -1 -36 -10 -57 -12 -64 -5 -12 12 -2 405 12 475 32
149 97 293 128 282 8 -3 26 -9 39 -12z m479 -68 c99 12 90 19 87 -71 -2 -44 3
-141 11 -215 7 -74 11 -164 9 -199 -5 -85 12 -72 28 22 9 57 10 97 1 176 -14
126 -14 241 -1 275 12 31 35 33 75 6 53 -37 96 -51 111 -39 9 7 14 8 14 1 0
-13 26 -23 79 -28 24 -2 46 -6 48 -8 3 -2 -2 -17 -10 -33 -32 -61 -57 -162
-66 -263 -6 -58 -15 -123 -20 -145 -6 -22 -13 -51 -15 -65 l-5 -25 -118 3
c-130 3 -167 8 -158 22 9 14 -28 100 -63 149 -26 36 -32 54 -32 94 0 64 -32
180 -76 276 -19 41 -34 75 -34 77 0 9 58 7 75 -3 11 -7 37 -10 60 -7z m760
-123 c59 -75 69 -110 41 -140 -12 -13 -25 -23 -31 -23 -5 0 -26 -19 -45 -42
-19 -23 -47 -54 -62 -68 -16 -15 -28 -32 -28 -38 0 -5 -7 -12 -15 -16 -8 -3
-15 -15 -15 -26 0 -11 -4 -20 -9 -20 -15 0 -63 -78 -55 -91 5 -8 3 -9 -5 -5
-16 10 -51 -21 -51 -44 0 -10 -7 -21 -16 -24 -9 -3 -14 -13 -11 -21 6 -13 -29
-33 -39 -22 -12 11 -20 113 -13 152 11 60 73 221 115 302 44 82 109 170 132
176 48 13 62 6 107 -50z m108 -464 c0 -52 -4 -125 -7 -164 -4 -38 -13 -189
-22 -335 -8 -146 -19 -276 -25 -290 -11 -30 -5 -116 9 -113 5 1 12 -6 15 -16
3 -14 0 -17 -15 -13 -16 4 -19 0 -16 -18 4 -34 -43 -44 -173 -36 -116 6 -139
11 -139 32 0 14 32 19 96 15 17 -1 49 6 70 16 l39 18 -104 5 -104 5 -10 30
c-25 77 -82 117 -185 131 -54 7 -92 37 -92 73 0 14 19 16 156 16 129 0 158 3
167 16 7 8 20 18 30 22 9 3 17 11 17 16 0 5 9 13 20 16 24 8 41 36 46 79 13
93 15 224 5 321 -11 117 -4 147 37 163 9 3 22 10 27 14 6 4 24 19 41 33 18 14
36 25 40 25 5 0 20 9 34 20 14 11 30 18 35 16 6 -1 9 -41 8 -97z m-710 -156
c4 -3 2 -13 -5 -20 -9 -11 -9 -17 3 -25 11 -7 8 -8 -10 -5 -16 4 -25 1 -28
-12 -2 -9 -14 -21 -26 -26 -12 -6 -23 -18 -25 -29 -3 -11 0 -16 7 -12 6 4 11
2 11 -4 0 -6 -8 -10 -18 -8 -11 2 -45 -27 -94 -77 -66 -69 -79 -78 -95 -69
-38 23 -36 193 3 208 19 7 18 36 -2 36 -8 0 -13 4 -9 10 3 5 12 7 20 3 9 -3
21 0 28 6 8 6 31 15 53 20 46 11 178 14 187 4z m233 -14 c18 -20 18 -21 0 -18
-10 3 -23 -4 -30 -16 -6 -10 -21 -28 -33 -38 -23 -19 -31 -47 -13 -47 15 0 32
-40 25 -58 -6 -13 -10 -9 -20 18 -14 40 -44 52 -52 21 -3 -11 -13 -23 -22 -26
-9 -2 -22 -14 -29 -26 -13 -21 -12 -21 15 -15 27 6 27 6 8 -9 -11 -9 -26 -13
-33 -10 -22 8 -35 -5 -21 -21 6 -8 8 -15 3 -15 -5 -1 -13 -2 -19 -3 -22 -3
-85 -30 -85 -36 0 -4 10 -11 23 -17 l22 -10 -22 -7 c-13 -4 -23 -12 -23 -17 0
-12 17 -12 25 1 4 6 11 8 16 4 24 -14 -9 -24 -84 -24 -72 0 -86 3 -112 25 -23
18 -25 23 -10 20 15 -4 31 9 60 46 22 28 48 58 58 67 9 9 17 22 17 29 0 7 6
13 13 13 8 0 22 17 32 38 11 21 36 51 57 67 23 18 36 35 35 48 -1 14 5 20 27
23 15 1 31 5 34 8 3 3 31 6 62 6 45 0 61 -4 76 -21z m715 -86 c34 -55 33 -163
-1 -218 -22 -36 -25 -38 -28 -17 -2 12 -10 22 -17 22 -12 0 -13 23 -8 132 5
107 4 130 -7 123 -9 -5 -11 -4 -6 3 11 18 41 -2 67 -45z m-1428 -62 c22 -9 27
-17 27 -46 0 -20 12 -71 26 -114 28 -86 33 -90 124 -110 30 -7 69 -17 85 -21
17 -5 61 -9 98 -8 38 0 72 -4 75 -9 4 -6 13 -12 20 -14 7 -2 24 -24 39 -48
l26 -44 -29 7 c-83 19 -301 79 -316 87 -20 10 -59 12 -82 3 -12 -5 -16 -20
-16 -60 0 -30 4 -54 8 -54 5 0 15 -23 22 -51 8 -29 27 -68 43 -88 l29 -36 -31
-27 c-35 -31 -51 -33 -180 -18 -97 11 -113 20 -86 50 15 17 30 20 99 20 58 0
77 3 69 11 -18 18 -140 24 -168 9 -22 -12 -28 -11 -45 5 -16 14 -19 26 -14 50
4 25 -2 47 -25 91 -54 106 -99 236 -106 311 l-8 73 29 11 c91 37 222 46 287
20z m1556 -42 c55 -37 61 -44 61 -75 0 -42 -25 -94 -45 -94 -8 0 -15 -7 -15
-15 0 -8 -4 -15 -10 -15 -5 0 -9 5 -7 11 2 13 -51 31 -66 22 -6 -4 -7 7 -3 28
3 19 9 67 12 107 4 39 8 72 9 72 2 0 30 -18 64 -41z m261 -66 c87 -31 93 -53
15 -53 -37 0 -76 -9 -115 -25 -74 -31 -83 -31 -74 -2 4 12 9 40 10 62 1 22 2
40 3 41 7 6 127 -11 161 -23z m-1830 -599 c0 -3 -8 -18 -19 -32 -23 -34 -33
-73 -22 -91 7 -10 16 -1 35 35 40 76 50 86 101 92 l46 5 -30 -44 c-16 -24 -32
-60 -36 -79 -6 -33 -11 -37 -54 -47 -26 -6 -89 -10 -141 -10 l-95 2 4 25 c5
37 38 97 63 114 30 21 34 6 9 -35 -22 -35 -29 -95 -11 -84 6 4 21 28 34 53 29
57 72 102 97 102 11 0 19 -3 19 -6z"/>
<path d="M3097 3920 c-86 -4 -170 -11 -185 -15 -29 -8 -313 -61 -402 -75 -90
-14 -174 -12 -209 6 -25 13 -35 13 -46 4 -26 -21 -17 -38 62 -117 140 -138
287 -219 545 -302 228 -74 286 -83 463 -78 132 4 266 19 360 42 74 18 173 48
210 65 22 9 51 21 65 25 38 12 170 85 213 118 30 23 37 35 35 56 -3 26 -4 26
-74 23 -84 -3 -98 1 -334 113 -213 100 -194 92 -275 116 -84 24 -209 29 -428
19z m291 -49 c11 -7 10 -16 -8 -51 -32 -63 -66 -90 -111 -90 -44 0 -96 39
-122 92 -15 30 -15 34 0 46 19 14 220 17 241 3z m-380 -68 c-35 -62 -48 -73
-88 -73 -40 0 -93 31 -118 67 -13 21 -12 23 9 32 13 5 65 16 114 23 106 15
116 9 83 -49z m577 22 c37 -14 81 -33 97 -41 l30 -16 -22 -24 c-35 -36 -104
-60 -136 -45 -44 19 -87 151 -50 151 7 0 44 -11 81 -25z"/>
</g>
</svg>
