<svg id="svg" version="1.1" xmlns="http://www.w3.org/2000/svg" xmlns:xlink="http://www.w3.org/1999/xlink" width="400" height="400" viewBox="0, 0, 400,400"><g id="svgg"><path id="path0" d="M183.705 95.087 C 184.314 95.179,185.214 95.177,185.705 95.082 C 186.197 94.987,185.700 94.911,184.600 94.914 C 183.500 94.917,183.097 94.995,183.705 95.087 M191.507 95.090 C 192.226 95.179,193.306 95.177,193.907 95.086 C 194.508 94.995,193.920 94.922,192.600 94.924 C 191.280 94.926,190.788 95.001,191.507 95.090 M134.200 107.627 C 133.540 108.050,133.205 108.397,133.456 108.398 C 133.706 108.399,134.336 108.046,134.856 107.613 C 136.045 106.623,135.759 106.629,134.200 107.627 M185.500 107.882 C 185.995 107.978,186.805 107.978,187.300 107.882 C 187.795 107.787,187.390 107.709,186.400 107.709 C 185.410 107.709,185.005 107.787,185.500 107.882 M189.705 107.887 C 190.314 107.979,191.214 107.977,191.705 107.882 C 192.197 107.787,191.700 107.711,190.600 107.714 C 189.500 107.717,189.097 107.795,189.705 107.887 M129.000 110.361 C 117.596 117.110,105.483 126.685,99.700 133.522 L 97.200 136.478 97.200 199.169 L 97.200 261.861 98.100 262.660 C 99.048 263.502,102.570 265.831,104.600 266.958 C 105.260 267.325,106.340 267.970,107.000 268.392 C 107.660 268.814,109.520 269.934,111.133 270.880 C 112.746 271.826,114.456 272.835,114.933 273.123 C 115.410 273.410,116.470 274.040,117.289 274.523 C 118.108 275.005,120.600 276.480,122.827 277.800 C 125.054 279.120,127.444 280.519,128.138 280.908 C 128.832 281.298,130.047 282.018,130.838 282.508 C 131.629 282.999,137.089 286.190,142.971 289.600 C 148.853 293.010,154.325 296.187,155.133 296.660 C 155.940 297.133,157.758 298.109,159.174 298.830 C 160.590 299.550,163.740 301.277,166.174 302.667 L 170.600 305.196 178.200 305.189 C 185.540 305.183,199.563 304.317,200.367 303.821 C 200.583 303.687,202.523 303.233,204.680 302.810 C 208.809 302.002,211.023 301.467,217.159 299.797 C 222.322 298.392,222.268 298.473,220.800 294.296 C 220.360 293.044,220.000 291.588,220.000 291.060 C 220.000 288.187,218.679 286.138,217.473 287.139 C 216.993 287.538,212.855 288.969,208.800 290.138 C 204.946 291.249,199.102 292.454,195.800 292.817 C 194.040 293.011,191.556 293.348,190.280 293.567 C 187.756 294.000,186.267 293.673,185.855 292.598 C 185.266 291.065,185.572 186.191,186.167 185.376 C 186.651 184.714,187.402 184.566,191.267 184.369 L 195.800 184.138 192.350 184.069 C 186.990 183.962,186.535 183.804,186.239 181.954 C 186.085 180.994,185.471 179.813,184.647 178.895 C 183.479 177.593,182.717 176.391,181.005 173.148 C 180.788 172.737,180.456 172.400,180.268 172.400 C 180.080 172.400,179.448 172.026,178.863 171.569 C 178.278 171.111,176.090 169.493,174.000 167.973 C 171.910 166.452,169.944 164.981,169.630 164.704 C 169.317 164.427,168.687 163.981,168.230 163.714 C 167.435 163.249,167.447 163.228,168.500 163.214 C 169.172 163.206,169.600 163.413,169.600 163.749 C 169.600 164.077,170.225 164.398,171.156 164.547 C 172.012 164.683,172.817 165.067,172.944 165.398 C 173.071 165.729,173.516 166.000,173.934 166.000 C 174.351 166.000,175.121 166.321,175.646 166.713 C 176.171 167.105,177.632 167.960,178.894 168.613 C 182.324 170.388,183.301 170.937,184.389 171.703 C 184.933 172.087,185.542 172.400,185.743 172.400 C 186.235 172.400,184.330 170.923,183.147 170.387 C 182.626 170.152,181.480 169.530,180.600 169.005 C 179.720 168.481,178.550 167.794,178.000 167.478 C 169.667 162.701,132.685 141.322,131.800 140.771 C 131.140 140.360,130.060 139.749,129.400 139.414 C 128.740 139.078,127.570 138.412,126.800 137.934 C 126.030 137.456,124.230 136.417,122.800 135.626 C 119.178 133.622,119.078 132.648,122.277 130.550 C 123.555 129.713,124.690 128.928,124.800 128.807 C 124.988 128.600,129.155 125.843,131.800 124.176 C 133.881 122.865,135.277 122.100,139.892 119.744 C 142.362 118.482,144.324 117.391,144.251 117.318 C 144.179 117.245,143.597 117.458,142.960 117.790 C 142.322 118.123,141.530 118.397,141.200 118.400 C 140.870 118.403,140.060 118.763,139.400 119.200 C 137.970 120.147,136.000 120.271,136.000 119.414 C 136.000 119.092,136.360 118.635,136.800 118.400 C 137.960 117.779,137.798 117.138,136.005 115.253 C 135.127 114.331,134.293 113.115,134.152 112.551 C 133.935 111.687,133.732 111.565,132.847 111.771 C 130.232 112.382,128.890 112.469,128.628 112.046 C 128.472 111.794,128.614 111.600,128.954 111.600 C 129.284 111.600,129.790 111.282,130.077 110.894 C 130.365 110.505,131.095 109.969,131.700 109.702 C 132.305 109.436,132.800 109.033,132.800 108.809 C 132.800 108.179,132.437 108.327,129.000 110.361 M150.590 130.728 C 147.758 132.197,141.481 135.875,140.422 136.686 C 139.942 137.054,142.868 138.891,155.200 145.965 C 170.191 154.564,169.781 154.326,171.301 155.329 C 171.908 155.730,172.719 155.976,173.102 155.875 C 173.690 155.722,173.674 155.684,173.000 155.638 C 172.560 155.607,171.750 155.230,171.200 154.800 C 170.650 154.370,169.975 154.014,169.700 154.009 C 169.425 154.004,169.200 153.853,169.200 153.674 C 169.200 153.495,168.615 153.043,167.900 152.669 C 167.185 152.296,166.060 151.638,165.400 151.207 C 164.740 150.775,163.501 150.012,162.646 149.511 C 161.791 149.010,160.757 148.404,160.349 148.164 C 159.940 147.925,159.275 147.430,158.871 147.064 C 158.467 146.699,157.836 146.400,157.469 146.400 C 157.101 146.400,156.800 146.133,156.800 145.808 C 156.800 145.482,156.345 145.101,155.789 144.962 C 155.234 144.822,154.597 144.369,154.375 143.954 C 154.148 143.528,153.542 143.200,152.986 143.200 C 152.444 143.200,152.000 143.020,152.000 142.800 C 152.000 142.175,153.473 142.331,154.171 143.029 C 154.517 143.374,154.800 143.567,154.800 143.456 C 154.800 143.346,155.349 143.413,156.021 143.606 C 158.214 144.235,157.883 143.037,155.000 139.908 C 153.526 138.309,152.140 136.505,151.921 135.900 C 151.509 134.764,151.271 134.672,148.638 134.627 C 146.797 134.595,146.291 133.774,147.767 133.212 C 148.335 132.996,148.800 132.672,148.800 132.492 C 148.800 132.311,149.975 131.561,151.412 130.824 C 152.849 130.087,154.119 129.330,154.236 129.142 C 154.523 128.678,154.652 128.621,150.590 130.728 M266.200 140.800 C 267.059 141.680,267.852 142.400,267.962 142.400 C 268.072 142.400,267.459 141.680,266.600 140.800 C 265.741 139.920,264.948 139.200,264.838 139.200 C 264.728 139.200,265.341 139.920,266.200 140.800 M111.726 142.060 C 112.207 142.313,112.690 142.637,112.800 142.780 C 112.910 142.923,117.663 145.731,123.362 149.020 C 133.708 154.990,136.043 156.345,138.081 157.557 C 138.675 157.911,144.130 161.080,150.203 164.600 C 156.276 168.120,161.730 171.290,162.322 171.644 C 165.375 173.469,166.242 173.977,169.920 176.096 C 172.646 177.666,173.980 178.677,174.145 179.296 C 174.672 181.271,174.437 292.930,173.905 293.267 C 173.043 293.814,172.406 293.644,170.268 292.295 C 169.131 291.578,167.840 290.764,167.400 290.487 C 166.960 290.210,166.060 289.713,165.400 289.381 C 164.740 289.049,163.544 288.378,162.743 287.889 C 161.941 287.400,152.131 281.722,140.943 275.271 C 129.754 268.821,120.330 263.385,120.000 263.193 C 119.670 263.000,118.529 262.338,117.464 261.721 C 116.399 261.105,114.869 260.207,114.064 259.727 C 113.259 259.246,111.958 258.494,111.173 258.056 C 110.389 257.617,109.533 257.001,109.272 256.687 C 108.777 256.090,108.526 142.766,109.018 141.971 C 109.333 141.461,110.673 141.506,111.726 142.060 M120.653 157.081 C 120.514 157.220,120.400 177.276,120.400 201.651 L 120.400 245.969 121.278 246.786 C 121.760 247.236,123.930 248.638,126.099 249.902 C 128.268 251.166,130.349 252.383,130.722 252.606 C 131.095 252.829,133.650 254.359,136.400 256.006 C 139.150 257.653,141.670 259.144,142.000 259.319 C 142.330 259.495,143.261 260.035,144.068 260.519 C 147.129 262.355,156.476 267.830,157.711 268.510 C 158.420 268.900,159.540 269.573,160.200 270.006 C 160.860 270.438,161.850 271.008,162.400 271.272 C 162.950 271.536,163.760 272.058,164.200 272.430 C 165.342 273.397,166.796 273.785,166.817 273.127 C 167.058 265.606,166.720 238.186,166.382 237.779 C 166.141 237.488,163.345 235.780,160.168 233.982 C 156.990 232.183,153.853 230.210,153.195 229.596 L 152.000 228.479 151.991 202.140 C 151.983 177.780,151.930 175.737,151.291 174.964 C 150.737 174.293,142.558 169.446,126.046 160.000 C 125.469 159.670,124.458 159.021,123.798 158.557 C 122.020 157.306,120.936 156.797,120.653 157.081 M302.561 178.000 C 302.561 181.410,302.622 182.805,302.697 181.100 C 302.772 179.395,302.772 176.605,302.697 174.900 C 302.622 173.195,302.561 174.590,302.561 178.000 M187.200 172.800 C 187.750 172.976,188.650 173.117,189.200 173.113 C 190.098 173.106,190.078 173.074,189.000 172.800 C 187.308 172.369,185.856 172.369,187.200 172.800 M253.925 193.499 C 257.514 193.566,263.274 193.566,266.725 193.499 C 270.176 193.433,267.240 193.378,260.200 193.378 C 253.160 193.379,250.336 193.433,253.925 193.499 M225.400 231.844 C 217.236 239.553,203.583 246.627,195.600 247.285 L 194.200 247.400 194.089 262.400 C 193.961 279.631,193.935 279.369,195.718 279.064 C 213.021 276.107,220.000 273.562,220.000 270.208 C 220.000 269.491,220.360 267.777,220.800 266.400 C 221.240 265.023,221.600 263.654,221.600 263.359 C 221.600 260.815,228.661 248.556,232.670 244.137 C 233.437 243.292,234.635 241.972,235.332 241.204 L 236.600 239.808 235.400 240.794 C 234.740 241.337,233.349 242.584,232.309 243.566 C 231.269 244.548,230.301 245.234,230.157 245.090 C 229.871 244.805,231.009 242.165,231.566 241.821 C 232.826 241.042,232.396 239.518,230.414 237.737 C 229.306 236.741,228.400 235.709,228.400 235.443 C 228.400 234.147,225.798 234.068,224.541 235.326 C 222.639 237.227,223.447 234.681,225.400 232.616 C 229.363 228.428,229.363 228.102,225.400 231.844 M247.600 244.261 C 221.606 264.073,224.737 305.056,253.327 319.238 C 254.687 319.913,256.091 320.617,256.447 320.803 C 266.113 325.854,285.983 325.219,294.800 319.578 C 295.130 319.367,295.850 318.977,296.400 318.712 C 297.328 318.264,302.000 314.814,302.000 314.576 C 302.000 314.517,301.325 314.800,300.500 315.205 C 298.752 316.062,298.206 315.761,298.779 314.255 C 299.209 313.123,299.187 313.086,293.422 305.537 C 292.571 304.422,291.998 303.218,291.995 302.537 C 291.984 300.266,291.439 299.189,291.206 300.976 C 290.886 303.428,289.187 303.700,285.969 301.814 C 284.643 301.036,283.374 300.400,283.150 300.400 C 282.927 300.400,281.014 299.476,278.899 298.346 C 274.521 296.007,274.475 296.009,269.973 298.647 C 268.704 299.391,267.521 300.000,267.343 300.000 C 267.166 300.000,265.746 300.639,264.188 301.419 C 261.805 302.613,261.184 302.774,260.288 302.433 C 258.454 301.736,258.458 301.513,260.562 290.066 C 261.312 285.985,261.598 286.498,255.207 280.455 C 248.204 273.833,248.507 272.887,258.000 271.734 C 265.480 270.825,266.800 270.195,266.800 267.536 C 266.800 266.431,266.712 266.356,265.681 266.582 C 264.706 266.796,264.481 266.659,263.933 265.514 C 263.587 264.791,261.156 261.320,258.529 257.800 C 255.903 254.280,252.955 250.170,251.977 248.668 C 250.207 245.947,250.194 245.936,248.682 246.175 C 246.976 246.445,247.098 245.391,248.941 243.927 C 250.604 242.607,249.366 242.915,247.600 244.261 " stroke="none" fill="#1a7ed4" fill-rule="evenodd"></path><path id="path1" d="M180.600 95.258 C 177.300 95.445,173.520 95.782,172.200 96.006 C 163.424 97.495,159.700 98.310,155.498 99.660 C 154.233 100.067,152.754 100.400,152.212 100.400 C 151.670 100.400,150.636 100.654,149.914 100.963 C 149.191 101.273,147.092 102.096,145.249 102.791 C 140.237 104.683,133.742 107.956,132.334 109.300 C 131.930 109.685,131.373 110.000,131.096 110.000 C 130.819 110.000,130.368 110.360,130.093 110.800 C 129.818 111.240,129.314 111.600,128.973 111.600 C 128.619 111.600,128.471 111.791,128.628 112.046 C 128.890 112.469,130.232 112.382,132.847 111.771 C 133.732 111.565,133.935 111.687,134.152 112.551 C 134.293 113.115,135.127 114.331,136.005 115.253 C 137.798 117.138,137.960 117.779,136.800 118.400 C 136.360 118.635,136.000 119.092,136.000 119.414 C 136.000 120.271,137.970 120.147,139.400 119.200 C 140.060 118.763,140.870 118.403,141.200 118.400 C 141.530 118.397,142.254 118.158,142.809 117.868 C 143.365 117.578,144.355 117.146,145.009 116.906 C 145.664 116.667,147.460 115.992,149.000 115.408 C 154.770 113.216,161.886 111.015,165.200 110.396 C 166.190 110.211,167.720 109.879,168.600 109.658 C 177.959 107.308,198.841 107.308,208.200 109.658 C 209.080 109.879,210.610 110.211,211.600 110.396 C 220.161 111.995,236.129 118.443,243.916 123.446 C 248.968 126.692,251.762 128.517,252.170 128.839 C 252.407 129.025,254.850 130.949,257.600 133.114 C 267.663 141.036,277.517 151.785,285.029 163.033 C 286.806 165.693,288.741 168.500,289.329 169.272 C 290.439 170.727,290.614 171.444,290.068 172.304 C 289.814 172.704,279.205 172.809,238.289 172.815 C 182.270 172.824,186.551 172.991,182.600 170.644 C 181.720 170.121,180.010 169.183,178.800 168.560 C 177.590 167.936,176.171 167.105,175.646 166.713 C 175.121 166.321,174.351 166.000,173.934 166.000 C 173.516 166.000,173.071 165.729,172.944 165.398 C 172.817 165.067,172.012 164.683,171.156 164.547 C 170.225 164.398,169.600 164.077,169.600 163.749 C 169.600 163.413,169.172 163.206,168.500 163.214 C 167.447 163.228,167.435 163.249,168.230 163.714 C 168.687 163.981,169.317 164.427,169.630 164.704 C 169.944 164.981,171.910 166.452,174.000 167.973 C 176.090 169.493,178.278 171.111,178.863 171.569 C 179.448 172.026,180.080 172.400,180.268 172.400 C 180.456 172.400,180.788 172.737,181.005 173.148 C 182.717 176.391,183.479 177.593,184.647 178.895 C 185.472 179.814,186.085 180.993,186.240 181.957 C 186.601 184.217,183.829 184.096,239.508 184.282 L 290.416 184.452 291.036 185.399 C 291.626 186.299,290.912 197.648,290.193 198.812 C 290.083 198.989,289.730 200.544,289.409 202.267 C 288.285 208.284,285.274 218.304,283.374 222.349 C 282.059 225.147,282.522 225.784,286.113 226.119 C 287.483 226.247,289.414 226.719,290.402 227.167 C 292.879 228.290,293.107 228.235,293.961 226.300 C 296.284 221.043,299.600 209.396,299.600 206.499 C 299.600 205.877,299.876 204.308,300.213 203.013 C 301.282 198.911,302.336 187.035,302.451 177.800 L 302.561 169.000 300.134 164.343 C 293.358 151.337,280.078 134.949,268.400 125.180 C 266.970 123.984,265.710 122.895,265.600 122.761 C 264.753 121.729,256.878 116.173,250.600 112.178 C 249.216 111.297,245.157 109.043,243.400 108.178 C 242.740 107.854,241.930 107.418,241.600 107.209 C 241.270 107.001,239.920 106.362,238.600 105.790 C 237.280 105.218,235.917 104.600,235.572 104.417 C 233.485 103.308,225.336 100.400,224.315 100.400 C 223.924 100.400,222.567 100.066,221.302 99.658 C 213.259 97.063,192.033 94.095,186.987 94.859 C 186.774 94.891,183.900 95.070,180.600 95.258 M180.600 121.793 C 173.520 122.697,171.805 123.030,166.000 124.633 C 162.266 125.663,155.210 128.442,154.000 129.358 C 153.670 129.608,152.366 130.350,151.101 131.006 C 149.837 131.663,148.802 132.339,148.801 132.510 C 148.801 132.680,148.335 132.996,147.767 133.212 C 146.291 133.774,146.797 134.595,148.638 134.627 C 151.271 134.672,151.509 134.764,151.921 135.900 C 152.140 136.505,153.526 138.309,155.000 139.908 C 157.883 143.037,158.214 144.235,156.021 143.606 C 155.349 143.413,154.800 143.346,154.800 143.456 C 154.800 143.567,154.517 143.374,154.171 143.029 C 153.473 142.331,152.000 142.175,152.000 142.800 C 152.000 143.020,152.444 143.200,152.986 143.200 C 153.542 143.200,154.148 143.528,154.375 143.954 C 154.597 144.369,155.234 144.822,155.789 144.962 C 156.345 145.101,156.800 145.482,156.800 145.808 C 156.800 146.133,157.101 146.400,157.469 146.400 C 157.836 146.400,158.467 146.699,158.871 147.064 C 159.275 147.430,159.940 147.925,160.349 148.164 C 160.757 148.404,161.791 149.010,162.646 149.511 C 163.501 150.012,164.740 150.775,165.400 151.207 C 166.060 151.638,167.185 152.296,167.900 152.669 C 168.615 153.043,169.200 153.495,169.200 153.674 C 169.200 153.853,169.397 154.000,169.638 154.000 C 169.879 154.000,170.554 154.333,171.138 154.739 C 172.692 155.821,173.963 156.026,175.396 155.427 C 176.095 155.135,178.002 154.677,179.633 154.408 C 181.265 154.140,183.578 153.758,184.773 153.560 C 191.622 152.426,204.058 154.006,210.200 156.790 C 210.640 156.990,212.317 157.715,213.927 158.403 C 217.217 159.808,219.789 161.253,223.602 163.841 L 226.204 165.607 247.369 165.504 C 270.993 165.388,269.785 165.574,267.121 162.466 C 266.174 161.361,264.950 159.844,264.400 159.095 C 255.109 146.431,238.509 133.351,224.583 127.722 C 220.894 126.231,215.896 124.633,212.375 123.820 C 211.152 123.538,209.532 123.107,208.775 122.863 C 203.203 121.068,190.160 120.573,180.600 121.793 M244.902 193.822 C 244.564 194.069,244.187 195.397,243.994 197.022 C 243.812 198.550,243.476 200.340,243.247 201.000 C 243.019 201.660,242.350 203.820,241.762 205.800 C 241.174 207.780,240.471 209.850,240.199 210.400 C 239.928 210.950,239.119 212.660,238.403 214.200 C 236.175 218.991,229.558 228.383,225.410 232.642 C 223.720 234.378,223.026 235.600,223.730 235.600 C 224.025 235.600,224.390 235.477,224.541 235.326 C 225.798 234.068,228.400 234.147,228.400 235.443 C 228.400 235.709,229.306 236.741,230.414 237.737 C 232.396 239.518,232.826 241.042,231.566 241.821 C 231.024 242.156,229.868 244.801,230.143 245.077 C 230.280 245.213,231.351 244.441,232.524 243.362 C 236.894 239.343,237.619 238.732,240.922 236.294 C 248.562 230.655,256.272 227.117,263.350 226.002 C 266.569 225.495,268.399 224.657,268.402 223.690 C 268.404 223.310,268.639 222.550,268.925 222.000 C 270.908 218.186,273.977 206.426,274.812 199.438 C 275.046 197.479,275.406 195.563,275.611 195.180 C 276.419 193.670,275.439 193.562,260.174 193.480 C 250.369 193.426,245.287 193.541,244.902 193.822 M267.800 236.219 C 258.882 237.398,249.686 241.636,247.643 245.508 C 247.177 246.391,247.205 246.409,248.682 246.175 C 250.194 245.936,250.207 245.947,251.977 248.668 C 252.955 250.170,255.903 254.280,258.529 257.800 C 261.156 261.320,263.587 264.791,263.933 265.514 C 264.481 266.659,264.706 266.796,265.681 266.582 C 266.712 266.356,266.800 266.431,266.800 267.536 C 266.800 270.195,265.480 270.825,258.000 271.734 C 248.507 272.887,248.204 273.833,255.207 280.455 C 261.598 286.498,261.312 285.985,260.562 290.066 C 258.458 301.513,258.454 301.736,260.288 302.433 C 261.184 302.774,261.805 302.613,264.188 301.419 C 265.746 300.639,267.166 300.000,267.343 300.000 C 267.521 300.000,268.704 299.391,269.973 298.647 C 274.475 296.009,274.521 296.007,278.899 298.346 C 281.014 299.476,282.927 300.400,283.150 300.400 C 283.374 300.400,284.643 301.036,285.969 301.814 C 289.187 303.700,290.886 303.428,291.206 300.976 C 291.439 299.189,291.984 300.266,291.995 302.537 C 291.998 303.218,292.571 304.422,293.422 305.537 C 299.187 313.086,299.209 313.123,298.779 314.255 C 297.335 318.054,303.157 314.446,308.170 308.436 C 309.617 306.702,310.800 305.183,310.800 305.061 C 310.800 304.940,311.379 303.983,312.086 302.935 C 313.556 300.757,315.569 296.835,315.587 296.114 C 315.594 295.846,315.858 295.036,316.173 294.314 C 318.460 289.070,319.128 277.981,317.573 271.074 C 317.118 269.053,316.488 266.809,316.173 266.086 C 315.858 265.364,315.600 264.533,315.600 264.239 C 315.600 263.322,312.181 256.955,310.190 254.165 C 300.338 240.358,285.142 233.925,267.800 236.219 M275.913 257.913 C 276.305 258.305,277.930 261.257,279.523 264.473 C 283.090 271.670,282.138 270.994,290.367 272.172 C 300.387 273.607,300.501 273.878,293.765 280.230 C 287.287 286.338,287.372 286.197,288.152 289.517 C 288.715 291.913,289.285 295.267,289.881 299.690 C 290.290 302.721,289.048 302.590,281.374 298.787 L 274.687 295.473 270.043 297.772 C 267.489 299.036,264.734 300.415,263.921 300.835 C 259.607 303.065,259.158 302.029,260.721 293.464 L 261.968 286.633 261.037 285.412 C 260.524 284.741,258.102 282.303,255.653 279.996 C 248.969 273.697,248.991 273.668,261.600 271.957 C 266.687 271.267,266.669 271.283,269.978 264.520 C 273.706 256.902,274.272 256.272,275.913 257.913 " stroke="none" fill="#0facd0" fill-rule="evenodd"></path><path id="path2" d="M0.000 200.000 L 0.000 400.000 200.000 400.000 L 400.000 400.000 400.000 200.000 L 400.000 0.000 200.000 0.000 L 0.000 0.000 0.000 200.000 M205.200 94.747 C 210.671 95.650,215.317 96.651,220.100 97.955 C 221.805 98.420,224.505 99.150,226.100 99.577 C 231.119 100.923,239.642 104.659,246.200 108.388 C 247.740 109.264,249.540 110.278,250.200 110.641 C 252.651 111.992,261.753 118.266,264.757 120.675 C 278.297 131.534,293.192 148.842,299.804 161.400 C 300.615 162.940,301.835 165.182,302.515 166.381 C 304.098 169.173,304.253 171.696,303.638 184.630 C 303.210 193.608,302.729 197.741,301.382 204.000 C 301.074 205.430,300.629 207.860,300.393 209.400 C 299.897 212.641,299.312 214.775,297.099 221.400 C 294.314 229.739,294.393 229.666,289.771 228.225 C 287.883 227.637,285.408 227.050,284.269 226.923 C 281.003 226.556,280.440 225.480,281.946 222.484 C 283.381 219.632,286.377 210.258,287.470 205.200 C 288.992 198.163,290.616 187.073,290.219 186.430 C 289.932 185.966,188.635 185.781,187.433 186.243 C 186.356 186.656,186.477 291.844,187.554 292.185 C 190.735 293.195,211.941 288.871,217.156 286.150 C 219.325 285.018,220.225 285.610,220.607 288.420 C 220.739 289.399,221.309 291.954,221.872 294.097 C 222.972 298.285,222.687 299.997,220.891 300.002 C 220.511 300.003,218.040 300.635,215.400 301.406 C 202.360 305.215,195.811 306.132,181.400 306.170 L 169.800 306.200 168.000 305.015 C 165.696 303.498,164.491 302.811,160.774 300.893 C 158.199 299.565,149.468 294.630,145.571 292.300 C 142.930 290.721,141.696 289.998,133.921 285.475 C 129.455 282.877,122.830 278.980,119.200 276.815 C 115.570 274.651,110.576 271.694,108.102 270.244 C 101.406 266.319,96.932 263.322,96.643 262.567 C 96.457 262.083,96.296 179.299,96.398 136.545 C 96.402 134.894,103.551 127.667,112.107 120.666 C 114.970 118.324,123.948 112.110,126.600 110.636 C 127.260 110.269,128.520 109.543,129.400 109.023 C 136.286 104.953,146.637 100.541,153.335 98.820 C 155.939 98.152,158.196 97.526,158.350 97.431 C 158.850 97.122,170.497 94.891,174.000 94.433 C 175.870 94.188,177.940 93.918,178.600 93.833 C 182.383 93.343,200.462 93.965,205.200 94.747 M179.000 109.589 C 174.598 109.953,166.020 111.366,163.200 112.192 C 162.210 112.482,159.690 113.217,157.600 113.826 C 153.133 115.127,144.599 118.487,140.378 120.607 C 134.601 123.508,131.498 125.403,123.200 131.098 C 121.154 132.502,120.715 134.400,122.436 134.400 C 122.716 134.400,148.711 149.258,152.600 151.641 C 153.260 152.046,154.340 152.651,155.000 152.986 C 155.660 153.322,156.785 153.957,157.500 154.398 C 159.560 155.669,160.438 156.179,174.200 164.100 L 187.230 171.600 238.015 171.600 C 294.837 171.600,290.278 171.844,287.862 168.931 C 287.347 168.309,285.735 166.000,284.281 163.800 C 275.343 150.274,261.091 135.908,248.600 127.833 C 246.620 126.553,244.478 125.142,243.840 124.697 C 242.414 123.702,230.579 117.799,229.200 117.395 C 228.650 117.234,228.020 116.966,227.800 116.799 C 227.241 116.377,219.214 113.697,215.600 112.727 C 205.218 109.940,190.260 108.658,179.000 109.589 M198.800 120.024 C 213.172 121.340,227.082 126.245,239.400 134.340 C 241.998 136.048,246.339 139.132,246.800 139.598 C 246.910 139.709,248.080 140.685,249.400 141.766 C 254.043 145.570,261.456 153.429,265.800 159.153 C 266.866 160.557,268.336 162.357,269.067 163.153 C 270.426 164.633,270.851 166.546,269.900 166.901 C 269.625 167.004,259.860 167.120,248.200 167.159 C 224.475 167.238,226.253 167.434,222.286 164.305 C 218.816 161.568,209.891 157.687,202.600 155.746 C 197.804 154.468,183.085 154.694,177.895 156.124 C 175.747 156.716,173.682 157.200,173.307 157.200 C 172.740 157.200,168.098 154.628,157.676 148.538 C 156.864 148.063,155.750 147.418,155.200 147.103 C 153.107 145.906,151.328 144.869,149.282 143.656 C 148.118 142.965,147.015 142.400,146.831 142.400 C 146.648 142.400,146.304 142.166,146.066 141.879 C 145.828 141.593,144.285 140.683,142.637 139.858 C 137.982 137.526,138.095 136.769,143.600 133.443 C 161.158 122.837,179.862 118.290,198.800 120.024 M109.867 143.067 C 109.720 143.213,109.600 168.562,109.600 199.397 L 109.600 255.461 110.500 256.268 C 110.995 256.711,115.593 259.488,120.717 262.437 C 125.841 265.387,130.701 268.188,131.517 268.662 C 134.280 270.270,134.996 270.675,137.400 271.996 C 138.720 272.722,139.980 273.450,140.200 273.615 C 140.420 273.780,141.320 274.323,142.200 274.823 C 145.649 276.780,144.615 276.180,159.393 284.800 C 172.352 292.359,172.453 292.414,172.867 292.159 C 173.692 291.649,173.254 179.638,172.424 178.928 C 171.998 178.563,167.183 175.666,161.724 172.491 C 156.266 169.316,151.148 166.331,150.351 165.859 C 149.554 165.386,143.469 161.850,136.829 158.000 C 130.188 154.150,124.270 150.712,123.677 150.359 C 111.632 143.196,110.392 142.542,109.867 143.067 M123.759 157.336 C 124.881 158.071,128.105 160.006,130.921 161.636 C 133.738 163.266,136.528 164.891,137.121 165.247 C 137.715 165.603,141.260 167.657,145.000 169.812 C 148.740 171.966,152.111 174.105,152.491 174.565 C 153.130 175.337,153.183 177.389,153.197 201.800 C 153.205 216.320,153.344 228.394,153.506 228.630 C 153.668 228.867,156.105 230.397,158.922 232.030 C 161.740 233.664,164.703 235.383,165.508 235.852 C 168.134 237.380,168.027 236.519,168.066 256.449 L 168.101 274.600 167.060 274.726 C 166.412 274.804,165.373 274.415,164.309 273.697 C 163.369 273.062,160.350 271.237,157.600 269.640 C 137.334 257.878,121.503 248.330,120.300 247.145 L 119.200 246.062 119.200 201.297 C 119.200 176.677,119.320 156.413,119.467 156.267 C 120.086 155.648,121.851 156.088,123.759 157.336 M276.409 192.611 C 278.215 194.787,273.336 216.227,269.158 224.473 C 268.226 226.312,268.148 226.358,265.103 226.840 C 242.823 230.369,224.690 248.660,220.628 271.703 C 220.315 273.475,219.636 273.987,215.800 275.339 C 206.957 278.457,195.488 280.840,193.819 279.906 C 193.276 279.603,193.200 277.563,193.200 263.389 L 193.200 247.218 194.100 246.667 C 194.595 246.364,196.080 245.894,197.400 245.624 C 219.972 240.996,237.568 222.391,242.497 197.939 C 243.014 195.375,243.676 192.991,243.968 192.639 C 244.753 191.693,275.624 191.665,276.409 192.611 M282.400 235.151 C 318.761 242.315,332.153 286.666,305.755 312.495 C 282.822 334.934,245.747 327.436,232.097 297.600 C 227.492 287.536,227.466 272.796,232.037 262.956 C 232.456 262.052,232.800 261.213,232.800 261.091 C 232.800 260.970,233.550 259.549,234.467 257.935 C 244.123 240.933,263.939 231.514,282.400 235.151 " stroke="none" fill="#041b3b" fill-rule="evenodd"></path><path id="path3" d="M273.500 257.900 C 273.157 258.285,271.572 261.264,269.978 264.520 C 266.669 271.283,266.687 271.267,261.600 271.957 C 248.991 273.668,248.969 273.697,255.653 279.996 C 258.102 282.303,260.524 284.741,261.037 285.412 L 261.968 286.633 260.721 293.464 C 259.158 302.029,259.607 303.065,263.921 300.835 C 264.734 300.415,267.489 299.036,270.043 297.772 L 274.687 295.473 281.374 298.787 C 289.048 302.590,290.290 302.721,289.881 299.690 C 289.285 295.267,288.715 291.913,288.152 289.517 C 287.372 286.197,287.287 286.338,293.765 280.230 C 300.501 273.878,300.387 273.607,290.367 272.172 C 282.138 270.994,283.090 271.670,279.523 264.473 C 275.894 257.149,275.020 256.195,273.500 257.900 " stroke="none" fill="#edf5f9" fill-rule="evenodd"></path><path id="path4" d="M178.600 93.833 C 177.940 93.918,175.870 94.188,174.000 94.433 C 170.497 94.891,158.850 97.122,158.350 97.431 C 158.196 97.526,155.939 98.152,153.335 98.820 C 146.637 100.541,136.286 104.953,129.400 109.023 C 128.520 109.543,127.260 110.269,126.600 110.636 C 123.948 112.110,114.970 118.324,112.107 120.666 C 103.551 127.667,96.402 134.894,96.398 136.545 C 96.296 179.299,96.457 262.083,96.643 262.567 C 96.932 263.322,101.406 266.319,108.102 270.244 C 110.576 271.694,115.570 274.651,119.200 276.815 C 122.830 278.980,129.455 282.877,133.921 285.475 C 141.696 289.998,142.930 290.721,145.571 292.300 C 149.468 294.630,158.199 299.565,160.774 300.893 C 164.491 302.811,165.696 303.498,168.000 305.015 L 169.800 306.200 181.400 306.170 C 195.811 306.132,202.360 305.215,215.400 301.406 C 218.040 300.635,220.511 300.003,220.891 300.002 C 222.687 299.997,222.972 298.285,221.872 294.097 C 221.309 291.954,220.739 289.399,220.607 288.420 C 220.225 285.610,219.325 285.018,217.156 286.150 C 211.941 288.871,190.735 293.195,187.554 292.185 C 186.477 291.844,186.356 186.656,187.433 186.243 C 188.635 185.781,289.932 185.966,290.219 186.430 C 290.616 187.073,288.992 198.163,287.470 205.200 C 286.377 210.258,283.381 219.632,281.946 222.484 C 280.440 225.480,281.003 226.556,284.269 226.923 C 285.408 227.050,287.883 227.637,289.771 228.225 C 294.393 229.666,294.314 229.739,297.099 221.400 C 299.312 214.775,299.897 212.641,300.393 209.400 C 300.629 207.860,301.074 205.430,301.382 204.000 C 304.259 190.635,304.865 170.525,302.515 166.381 C 301.835 165.182,300.615 162.940,299.804 161.400 C 293.192 148.842,278.297 131.534,264.757 120.675 C 261.753 118.266,252.651 111.992,250.200 110.641 C 249.540 110.278,247.740 109.264,246.200 108.388 C 239.642 104.659,231.119 100.923,226.100 99.577 C 224.505 99.150,221.805 98.420,220.100 97.955 C 207.548 94.532,188.115 92.602,178.600 93.833 M199.663 95.401 C 203.327 95.726,206.747 96.148,207.263 96.339 C 207.778 96.530,209.190 96.811,210.400 96.963 C 212.614 97.242,217.460 98.369,220.800 99.381 C 221.790 99.681,223.230 100.047,224.000 100.196 C 229.664 101.287,241.503 106.622,251.529 112.600 C 263.610 119.803,278.389 133.215,288.111 145.797 C 289.650 147.789,292.118 151.209,293.600 153.402 C 294.590 154.867,295.625 156.308,295.900 156.604 C 296.175 156.901,296.400 157.263,296.400 157.410 C 296.400 157.556,296.737 158.154,297.149 158.738 C 297.560 159.322,299.019 161.960,300.390 164.600 L 302.882 169.400 302.670 178.600 C 302.467 187.419,301.279 200.282,300.470 202.420 C 300.266 202.959,299.980 204.390,299.834 205.600 C 299.179 211.036,295.336 224.634,293.758 227.100 C 293.052 228.203,292.446 228.223,290.238 227.217 C 289.293 226.787,287.307 226.310,285.824 226.158 C 282.398 225.807,281.858 225.031,283.205 222.390 C 284.954 218.961,288.100 208.687,289.204 202.800 C 289.431 201.590,289.799 199.880,290.023 199.000 C 290.686 196.396,291.515 186.680,291.157 185.711 C 290.650 184.340,291.999 184.371,237.868 184.489 C 187.781 184.598,186.724 184.616,186.168 185.376 C 185.572 186.191,185.266 291.064,185.855 292.598 C 186.267 293.673,187.756 294.000,190.280 293.567 C 191.556 293.348,194.040 293.011,195.800 292.817 C 199.102 292.454,204.946 291.249,208.800 290.138 C 212.855 288.969,216.993 287.538,217.473 287.139 C 218.679 286.138,220.000 288.187,220.000 291.060 C 220.000 291.588,220.360 293.044,220.800 294.296 C 222.268 298.473,222.322 298.392,217.159 299.797 C 211.023 301.467,208.809 302.002,204.680 302.810 C 202.523 303.233,200.583 303.687,200.367 303.821 C 199.563 304.317,185.540 305.183,178.200 305.189 L 170.600 305.196 166.174 302.667 C 163.740 301.277,160.590 299.550,159.174 298.830 C 157.758 298.109,155.940 297.133,155.133 296.660 C 154.325 296.187,148.853 293.010,142.971 289.600 C 137.089 286.190,131.629 282.999,130.838 282.508 C 130.047 282.018,128.832 281.298,128.138 280.908 C 127.444 280.519,125.054 279.120,122.827 277.800 C 120.600 276.480,118.108 275.005,117.289 274.523 C 116.470 274.040,115.410 273.410,114.933 273.123 C 114.456 272.835,112.746 271.826,111.133 270.880 C 109.520 269.934,107.660 268.814,107.000 268.392 C 106.340 267.970,105.260 267.325,104.600 266.958 C 102.570 265.831,99.048 263.502,98.100 262.660 L 97.200 261.861 97.200 199.169 L 97.200 136.478 99.700 133.522 C 107.237 124.611,122.895 113.091,136.200 106.668 C 138.400 105.606,140.483 104.590,140.828 104.410 C 141.422 104.101,144.519 102.891,149.000 101.217 C 150.100 100.806,151.720 100.355,152.600 100.213 C 153.480 100.072,154.920 99.713,155.800 99.415 C 157.939 98.691,164.002 97.303,167.103 96.827 C 168.480 96.616,169.800 96.324,170.037 96.177 C 171.826 95.072,190.447 94.583,199.663 95.401 M183.600 108.057 C 178.557 108.339,168.998 109.431,168.414 109.791 C 168.212 109.916,167.001 110.210,165.723 110.444 C 161.558 111.207,151.157 114.460,147.400 116.174 C 144.967 117.284,135.362 122.050,134.200 122.724 C 131.909 124.052,125.139 128.434,124.800 128.807 C 124.690 128.928,123.555 129.713,122.277 130.550 C 119.078 132.648,119.178 133.622,122.800 135.626 C 124.230 136.417,126.030 137.456,126.800 137.934 C 127.570 138.412,128.740 139.078,129.400 139.414 C 130.060 139.749,131.140 140.360,131.800 140.771 C 132.460 141.182,142.900 147.226,155.000 154.203 C 167.100 161.179,177.540 167.222,178.200 167.632 C 178.860 168.041,179.940 168.648,180.600 168.980 C 181.864 169.616,182.431 169.955,184.966 171.590 L 186.531 172.600 238.048 172.707 C 289.322 172.814,289.566 172.811,289.995 172.009 C 290.624 170.835,281.272 156.981,275.426 150.426 C 260.063 133.203,245.021 122.327,226.600 115.125 C 221.711 113.213,214.772 111.121,211.077 110.444 C 209.799 110.210,208.596 109.921,208.403 109.802 C 206.814 108.820,190.492 107.672,183.600 108.057 M206.400 110.781 C 214.428 112.258,226.158 115.557,227.800 116.799 C 228.020 116.966,228.650 117.234,229.200 117.395 C 230.579 117.799,242.414 123.702,243.840 124.697 C 244.478 125.142,246.620 126.553,248.600 127.833 C 261.091 135.908,275.343 150.274,284.281 163.800 C 285.735 166.000,287.347 168.309,287.862 168.931 C 290.278 171.844,294.837 171.600,238.015 171.600 L 187.230 171.600 174.200 164.100 C 160.438 156.179,159.560 155.669,157.500 154.398 C 156.785 153.957,155.660 153.322,155.000 152.986 C 154.340 152.651,153.260 152.046,152.600 151.641 C 148.711 149.258,122.716 134.400,122.436 134.400 C 120.715 134.400,121.154 132.502,123.200 131.098 C 131.498 125.403,134.601 123.508,140.378 120.607 C 144.599 118.487,153.133 115.127,157.600 113.826 C 159.690 113.217,162.210 112.482,163.200 112.192 C 173.829 109.079,193.634 108.432,206.400 110.781 M183.200 120.036 C 169.795 121.187,156.358 125.736,143.600 133.443 C 138.095 136.769,137.982 137.526,142.637 139.858 C 144.285 140.683,145.828 141.593,146.066 141.879 C 146.304 142.166,146.648 142.400,146.831 142.400 C 147.015 142.400,148.118 142.965,149.282 143.656 C 151.328 144.869,153.107 145.906,155.200 147.103 C 155.750 147.418,156.864 148.063,157.676 148.538 C 168.098 154.628,172.740 157.200,173.307 157.200 C 173.682 157.200,175.747 156.716,177.895 156.124 C 183.085 154.694,197.804 154.468,202.600 155.746 C 209.891 157.687,218.816 161.568,222.286 164.305 C 226.253 167.434,224.475 167.238,248.200 167.159 C 259.860 167.120,269.625 167.004,269.900 166.901 C 270.851 166.546,270.426 164.633,269.067 163.153 C 268.336 162.357,266.866 160.557,265.800 159.153 C 261.456 153.429,254.043 145.570,249.400 141.766 C 248.080 140.685,246.910 139.709,246.800 139.598 C 246.339 139.132,241.998 136.048,239.400 134.340 C 222.481 123.221,203.215 118.318,183.200 120.036 M204.200 121.968 C 211.245 123.114,220.155 125.601,225.000 127.774 C 236.890 133.107,245.854 139.229,254.945 148.225 C 259.999 153.226,269.395 164.765,268.855 165.305 C 268.678 165.482,258.959 165.618,247.258 165.607 L 225.984 165.587 223.922 164.106 C 219.703 161.075,212.845 157.713,206.887 155.756 C 197.783 152.766,182.989 152.583,176.313 155.377 C 174.364 156.193,172.575 156.166,171.260 155.300 C 169.781 154.326,170.111 154.518,155.200 145.965 C 142.850 138.881,139.946 137.057,140.422 136.683 C 143.019 134.643,157.959 126.800,159.247 126.800 C 159.485 126.800,160.246 126.544,160.940 126.230 C 162.112 125.700,166.591 124.339,170.800 123.234 C 179.665 120.906,194.270 120.352,204.200 121.968 M109.018 141.971 C 108.526 142.766,108.777 256.090,109.272 256.687 C 109.533 257.001,110.389 257.617,111.173 258.056 C 111.958 258.494,113.259 259.246,114.064 259.727 C 114.869 260.207,116.399 261.105,117.464 261.721 C 118.529 262.338,119.670 263.000,120.000 263.193 C 120.330 263.385,129.754 268.821,140.943 275.271 C 152.131 281.722,161.941 287.400,162.743 287.889 C 163.544 288.378,164.740 289.049,165.400 289.381 C 166.060 289.713,166.960 290.210,167.400 290.487 C 167.840 290.764,169.131 291.578,170.268 292.295 C 172.406 293.644,173.043 293.814,173.905 293.267 C 174.437 292.930,174.672 181.271,174.145 179.296 C 173.980 178.677,172.646 177.666,169.920 176.096 C 166.242 173.977,165.375 173.469,162.322 171.644 C 161.730 171.290,156.276 168.120,150.203 164.600 C 144.130 161.080,138.675 157.911,138.081 157.557 C 136.043 156.345,133.708 154.990,123.362 149.020 C 117.663 145.731,112.910 142.923,112.800 142.780 C 112.049 141.804,109.463 141.251,109.018 141.971 M116.704 146.259 C 119.947 148.162,123.085 150.007,123.677 150.359 C 124.270 150.712,130.188 154.150,136.829 158.000 C 143.469 161.850,149.554 165.386,150.351 165.859 C 151.148 166.331,156.266 169.316,161.724 172.491 C 167.183 175.666,171.998 178.563,172.424 178.928 C 173.254 179.638,173.692 291.649,172.867 292.159 C 172.453 292.414,172.352 292.359,159.393 284.800 C 144.615 276.180,145.649 276.780,142.200 274.823 C 141.320 274.323,140.420 273.780,140.200 273.615 C 139.980 273.450,138.720 272.722,137.400 271.996 C 134.996 270.675,134.280 270.270,131.517 268.662 C 130.701 268.188,125.841 265.387,120.717 262.437 C 115.593 259.488,110.995 256.711,110.500 256.268 L 109.600 255.461 109.600 199.397 C 109.600 168.562,109.720 143.213,109.867 143.067 C 110.352 142.581,110.764 142.774,116.704 146.259 M119.467 156.267 C 119.320 156.413,119.200 176.677,119.200 201.297 L 119.200 246.062 120.300 247.145 C 121.503 248.330,137.334 257.878,157.600 269.640 C 160.350 271.237,163.369 273.062,164.309 273.697 C 165.373 274.415,166.412 274.804,167.060 274.726 L 168.101 274.600 168.066 256.449 C 168.027 236.519,168.134 237.380,165.508 235.852 C 164.703 235.383,161.740 233.664,158.922 232.030 C 156.105 230.397,153.668 228.867,153.506 228.630 C 153.344 228.394,153.205 216.320,153.197 201.800 C 153.183 177.389,153.130 175.337,152.491 174.565 C 152.111 174.105,148.740 171.966,145.000 169.812 C 141.260 167.657,137.715 165.603,137.121 165.247 C 136.528 164.891,133.738 163.266,130.921 161.636 C 128.105 160.006,124.881 158.071,123.759 157.336 C 121.851 156.088,120.086 155.648,119.467 156.267 M123.798 158.557 C 124.458 159.021,125.469 159.670,126.046 160.000 C 142.558 169.446,150.737 174.293,151.291 174.964 C 151.930 175.737,151.983 177.780,151.991 202.140 L 152.000 228.479 153.195 229.596 C 153.853 230.210,156.990 232.183,160.168 233.982 C 163.345 235.780,166.141 237.488,166.382 237.779 C 166.720 238.186,167.058 265.606,166.817 273.127 C 166.796 273.785,165.342 273.397,164.200 272.430 C 163.760 272.058,162.950 271.536,162.400 271.272 C 161.850 271.008,160.860 270.438,160.200 270.006 C 159.540 269.573,158.420 268.900,157.711 268.510 C 156.476 267.830,147.129 262.355,144.068 260.519 C 143.261 260.035,142.330 259.495,142.000 259.319 C 141.670 259.144,139.150 257.653,136.400 256.006 C 133.650 254.359,131.095 252.829,130.722 252.606 C 130.349 252.383,128.268 251.166,126.099 249.902 C 123.930 248.638,121.760 247.236,121.278 246.786 L 120.400 245.969 120.400 201.651 C 120.400 177.276,120.514 157.220,120.653 157.081 C 120.936 156.797,122.020 157.306,123.798 158.557 M243.968 192.639 C 243.676 192.991,243.014 195.375,242.497 197.939 C 237.568 222.391,219.972 240.996,197.400 245.624 C 196.080 245.894,194.595 246.364,194.100 246.667 L 193.200 247.218 193.200 263.389 C 193.200 277.563,193.276 279.603,193.819 279.906 C 195.488 280.840,206.957 278.457,215.800 275.339 C 219.636 273.987,220.315 273.475,220.628 271.703 C 224.690 248.660,242.823 230.369,265.103 226.840 C 268.148 226.358,268.226 226.312,269.158 224.473 C 273.336 216.227,278.215 194.787,276.409 192.611 C 275.624 191.665,244.753 191.693,243.968 192.639 M275.353 193.948 C 275.870 194.520,275.939 194.921,275.645 195.648 C 275.433 196.172,275.053 198.310,274.801 200.400 C 274.549 202.490,274.105 205.190,273.814 206.400 C 272.002 213.941,270.407 219.176,268.982 222.260 C 268.662 222.954,268.400 223.698,268.400 223.914 C 268.400 224.713,266.245 225.682,263.659 226.047 C 261.029 226.418,256.923 227.568,254.600 228.585 C 238.883 235.463,229.680 244.718,222.453 260.911 C 221.984 261.962,221.600 263.063,221.600 263.359 C 221.600 263.654,221.240 265.023,220.800 266.400 C 220.360 267.777,220.000 269.491,220.000 270.208 C 220.000 273.562,213.021 276.107,195.718 279.064 C 193.935 279.369,193.961 279.631,194.089 262.400 L 194.200 247.400 195.600 247.285 C 199.650 246.951,210.194 242.842,215.624 239.481 C 223.456 234.634,231.261 226.567,235.989 218.433 C 239.294 212.748,240.528 209.663,243.425 199.854 C 243.741 198.784,244.000 197.132,244.000 196.183 C 244.000 193.084,243.381 193.200,259.967 193.200 C 273.828 193.200,274.715 193.243,275.353 193.948 M265.000 235.411 C 253.961 237.915,245.526 243.265,238.215 252.400 C 236.411 254.654,232.800 260.450,232.800 261.091 C 232.800 261.213,232.456 262.052,232.037 262.956 C 219.475 290.001,240.635 323.503,271.491 325.424 C 305.229 327.524,329.764 292.009,315.662 261.486 C 306.573 241.812,285.223 230.824,265.000 235.411 M280.600 236.028 C 291.478 237.314,301.743 243.352,309.600 253.084 C 315.242 260.072,318.484 270.061,318.473 280.418 C 318.469 283.729,318.256 287.036,317.983 288.035 C 317.717 289.006,317.267 290.790,316.984 292.000 C 314.707 301.716,304.624 314.804,296.400 318.718 C 295.850 318.980,295.130 319.367,294.800 319.578 C 285.983 325.219,266.113 325.854,256.447 320.803 C 256.091 320.617,254.687 319.913,253.327 319.238 C 227.433 306.394,221.712 270.076,242.275 249.087 C 245.994 245.291,253.933 239.600,255.509 239.600 C 255.640 239.600,256.479 239.258,257.374 238.839 C 263.115 236.152,272.276 235.044,280.600 236.028 " stroke="none" fill="#0d6990" fill-rule="evenodd"></path></g></svg>