<?xml version="1.0" standalone="no"?>
<!DOCTYPE svg PUBLIC "-//W3C//DTD SVG 20010904//EN"
 "http://www.w3.org/TR/2001/REC-SVG-20010904/DTD/svg10.dtd">
<svg version="1.0" xmlns="http://www.w3.org/2000/svg"
 width="256.000000pt" height="256.000000pt" viewBox="0 0 256.000000 256.000000"
 preserveAspectRatio="xMidYMid meet">
<metadata>
Created by potrace 1.16, written by Peter Selinger 2001-2019
</metadata>
<g transform="translate(0.000000,256.000000) scale(0.100000,-0.100000)"
fill="#000000" stroke="none">
<path d="M1228 2238 c-2 -5 -11 -10 -20 -12 -10 -1 -21 -6 -25 -11 -4 -4 -2
-5 5 -1 8 5 12 -1 12 -18 0 -18 -4 -24 -15 -20 -8 4 -12 10 -9 15 3 5 -2 6
-10 3 -9 -3 -13 -11 -9 -17 4 -6 0 -8 -10 -4 -10 4 -17 1 -17 -6 0 -8 -4 -6
-10 3 -7 11 -10 11 -10 2 0 -7 -4 -10 -10 -7 -5 3 -10 0 -10 -7 0 -10 -2 -10
-9 1 -7 11 -9 11 -13 0 -4 -12 -9 -12 -31 0 -15 8 -27 20 -27 28 0 7 -4 13
-10 13 -5 0 -10 -4 -10 -10 0 -5 -6 -10 -14 -10 -24 0 -27 -16 -11 -54 14 -33
14 -39 1 -58 -15 -21 -15 -21 -33 9 -16 28 -19 29 -31 15 -7 -10 -10 -11 -7
-4 6 11 3 12 -14 2 -12 -6 -18 -16 -15 -22 5 -7 2 -9 -9 -5 -9 3 -22 0 -30 -7
-11 -11 -16 -11 -32 0 -22 16 -39 18 -30 4 3 -5 -1 -10 -9 -10 -29 0 -18 -44
14 -62 27 -15 29 -19 19 -42 -7 -14 -38 -53 -71 -88 -121 -129 -185 -252 -222
-428 -18 -82 -27 -109 -32 -92 -5 19 -13 22 -55 22 -46 0 -65 12 -36 23 7 4 8
6 1 6 -6 1 -17 -6 -24 -14 -9 -11 -9 -15 -1 -15 9 0 9 -5 1 -20 -7 -13 -7 -20
-1 -20 6 0 8 -6 6 -13 -3 -6 5 -17 17 -22 16 -7 23 -19 23 -37 0 -14 3 -30 7
-34 4 -4 5 -24 2 -45 l-6 -38 33 9 c44 13 49 13 49 -4 0 -18 -63 -40 -96 -33
-18 3 -24 0 -24 -14 0 -24 35 -81 43 -72 4 4 16 -3 27 -14 10 -12 16 -24 13
-27 -4 -3 -1 -6 5 -6 7 0 12 -11 12 -24 0 -13 6 -26 12 -28 10 -4 10 -10 1
-31 -14 -30 -9 -34 13 -12 23 23 40 18 19 -5 -10 -11 -24 -20 -30 -20 -20 0
-28 -33 -10 -42 8 -5 15 -15 15 -22 0 -18 31 -29 43 -17 11 11 56 -25 57 -44
0 -5 11 -23 24 -39 17 -21 29 -27 42 -22 17 6 17 6 0 -13 -10 -11 -21 -19 -25
-17 -14 9 -4 -41 12 -57 9 -9 17 -14 17 -10 0 5 5 1 10 -7 6 -10 13 -11 18 -5
6 9 30 11 70 7 6 -1 11 -7 10 -14 -2 -7 3 -13 10 -14 6 -1 17 -2 23 -3 5 0 8
-5 5 -10 -3 -5 3 -11 14 -14 11 -3 20 -9 19 -14 -1 -4 1 -16 6 -27 5 -12 3
-21 -6 -27 -11 -7 -11 -9 4 -9 9 0 17 -5 17 -11 0 -5 5 -7 10 -4 6 3 10 1 10
-4 0 -6 9 -11 21 -11 11 0 18 4 15 9 -8 13 46 21 67 10 9 -6 22 -7 27 -4 6 3
10 1 10 -5 0 -6 6 -10 13 -9 25 3 56 -13 50 -27 -3 -8 1 -14 8 -14 12 0 12 -2
0 -9 -11 -7 -9 -10 8 -16 11 -3 21 -9 21 -13 0 -4 11 -7 24 -7 13 0 22 3 19 7
-2 5 3 8 11 8 9 0 15 6 14 13 -2 6 3 11 10 9 6 -1 12 2 12 8 0 14 28 12 33 -2
3 -10 7 -10 20 0 11 9 21 10 34 4 10 -5 23 -7 30 -5 7 2 15 -7 19 -21 7 -28
16 -33 63 -31 25 0 35 6 37 19 4 31 14 47 23 41 5 -3 12 -1 15 4 4 5 17 8 31
6 14 -1 25 2 25 7 0 5 4 7 9 4 5 -4 11 -1 13 5 2 7 21 1 51 -14 26 -14 47 -21
47 -15 0 6 7 8 15 4 8 -3 15 -1 15 4 0 6 3 9 8 9 19 -3 23 2 12 16 -18 21 11
61 50 70 16 4 30 11 30 16 0 6 5 7 10 4 6 -3 10 -1 10 6 0 8 13 10 42 6 52 -7
103 16 93 41 -4 9 -9 23 -12 30 -3 6 0 12 6 12 6 0 11 6 11 13 0 36 108 99
133 78 11 -8 18 -6 31 8 23 25 26 50 10 82 -13 25 -9 69 6 69 4 0 20 18 34 39
19 27 34 38 46 36 22 -4 44 19 37 39 -3 7 0 19 6 25 8 8 6 16 -8 31 -10 11
-22 17 -26 14 -5 -3 -9 4 -9 15 0 12 4 21 9 21 5 0 8 11 5 25 -2 14 -1 25 4
25 4 0 8 10 9 22 1 13 14 31 28 41 14 10 25 25 25 32 0 7 6 15 13 18 9 3 9 7
0 19 -7 8 -10 18 -6 21 3 4 1 7 -5 7 -7 0 -20 8 -29 18 -25 24 -26 139 -2 165
14 15 15 25 7 57 -8 32 -14 38 -34 35 -15 -1 -24 3 -24 11 0 8 -5 14 -11 14
-6 0 -9 7 -5 15 3 8 2 15 -2 15 -4 0 -9 12 -10 28 -1 15 -7 29 -12 30 -14 5
-12 18 4 35 17 17 11 50 -18 87 -12 16 -20 21 -23 13 -7 -19 -26 -16 -46 7 -9
11 -14 20 -11 20 2 0 -7 11 -21 25 -14 14 -26 31 -27 38 -4 34 -3 43 6 49 6 4
3 17 -7 32 -20 29 -57 53 -57 36 0 -6 -4 -8 -10 -5 -5 3 -10 2 -10 -4 0 -13
-42 -5 -55 11 -6 7 -24 21 -40 30 -23 13 -29 23 -27 43 1 14 -2 25 -8 25 -5 0
-10 9 -10 20 0 18 -14 24 -46 19 -4 0 -11 5 -15 13 -7 10 -9 8 -9 -6 0 -12 -5
-16 -14 -13 -8 3 -17 1 -20 -6 -3 -9 -7 -8 -15 3 -5 8 -13 11 -17 8 -3 -4 -13
-1 -20 7 -8 7 -22 11 -32 8 -21 -5 -45 19 -49 50 -5 29 -6 29 -60 30 -36 0
-49 -3 -51 -16 -2 -9 -9 -14 -18 -10 -8 3 -14 0 -14 -6 0 -15 -27 -14 -33 2
-4 10 -7 10 -18 0 -26 -26 -77 -6 -84 32 -2 11 -4 22 -4 25 -1 3 -6 -2 -11
-10 -5 -8 -10 -10 -10 -4 0 13 -28 14 -32 2z m202 -374 c77 -17 171 -69 214
-117 15 -17 50 -64 76 -104 41 -62 48 -80 54 -141 9 -87 -11 -187 -53 -271
-17 -33 -33 -61 -36 -61 -2 0 -34 7 -70 15 -37 9 -74 15 -84 14 -9 -1 -29 1
-45 6 -18 5 -36 4 -48 -4 -33 -20 -52 4 -72 92 -10 45 -27 107 -38 136 -30 84
-11 121 50 100 19 -6 37 -6 55 0 41 16 34 38 -16 45 -23 4 -56 15 -72 26 l-30
20 30 -4 c17 -3 46 -7 65 -10 19 -2 43 -7 53 -11 31 -13 21 41 -17 82 -18 21
-36 48 -40 59 -4 12 -15 29 -25 38 -17 15 -21 15 -65 -4 -26 -11 -57 -20 -68
-20 -30 0 -75 -51 -89 -101 -12 -47 0 -145 37 -286 11 -40 14 -77 10 -106 -7
-42 -9 -45 -44 -51 -20 -4 -54 -8 -74 -9 -21 -1 -43 -8 -50 -15 -6 -6 -29 -12
-51 -12 -37 0 -39 2 -68 65 -85 181 -53 372 86 510 117 117 259 157 425 119z
m-36 -696 c13 -18 16 -54 16 -190 0 -91 -4 -178 -10 -192 -10 -28 -38 -34 -58
-14 -17 17 -17 389 0 406 18 18 35 15 52 -10z m-220 0 c5 -10 7 -10 12 0 3 6
12 12 20 12 12 0 14 -35 14 -210 0 -180 -2 -210 -15 -210 -13 0 -15 26 -15
174 0 106 -4 177 -10 181 -7 4 -10 -57 -10 -174 0 -154 -2 -181 -15 -181 -13
0 -15 29 -15 203 0 112 3 207 7 210 10 11 21 8 27 -5z m324 0 c8 -8 12 -46 12
-105 0 -76 -3 -93 -15 -93 -12 0 -15 17 -15 90 0 53 -4 90 -10 90 -6 0 -10
-41 -10 -104 0 -100 1 -104 25 -120 22 -15 25 -23 25 -80 0 -67 -13 -91 -47
-84 -14 2 -19 15 -21 56 -2 32 1 52 7 52 6 0 11 -18 11 -40 0 -22 5 -40 10
-40 6 0 10 24 10 54 0 43 -4 56 -21 67 -18 13 -22 27 -26 120 -6 112 3 149 35
149 10 0 23 -5 30 -12z m-400 -10 c8 -8 12 -67 12 -200 0 -172 -1 -188 -19
-197 -13 -7 -23 -7 -34 2 -14 10 -16 41 -18 196 -2 169 -1 185 16 197 23 17
28 17 43 2z m490 6 c27 -8 29 -34 2 -34 -19 0 -20 -7 -20 -99 0 -79 3 -100 15
-105 20 -7 19 -26 0 -26 -13 0 -15 -11 -13 -57 3 -51 6 -58 26 -61 38 -6 24
-22 -18 -22 l-40 0 0 205 c0 217 -1 212 48 199z m72 -129 c0 -70 4 -115 10
-115 6 0 10 43 10 110 0 91 3 110 15 110 22 0 21 -216 -1 -245 -10 -14 -14
-39 -13 -79 2 -39 -1 -61 -9 -64 -8 -2 -12 17 -12 65 -1 44 -6 75 -15 87 -22
29 -22 246 0 246 12 0 15 -19 15 -115z m-660 86 c15 -29 9 -363 -7 -369 -10
-3 -13 14 -13 62 0 35 -4 68 -10 71 -6 4 -10 -20 -10 -65 0 -53 -3 -71 -12
-68 -10 4 -14 51 -16 183 -1 99 0 185 2 192 8 20 54 16 66 -6z m-102 -185 c1
-93 -1 -173 -5 -176 -5 -4 -20 -10 -35 -14 l-28 -6 0 179 c0 188 1 192 45 188
19 -2 20 -10 23 -171z"/>
<path d="M405 1610 c-11 -5 -14 -9 -7 -9 6 -1 12 -10 12 -22 0 -11 7 -27 15
-35 17 -17 20 -44 5 -44 -5 0 -7 -7 -4 -15 4 -9 0 -15 -7 -15 -11 0 -11 -3 1
-10 11 -7 11 -10 2 -10 -7 0 -10 -5 -6 -11 3 -6 1 -15 -7 -19 -9 -6 -5 -11 15
-16 18 -4 32 -2 41 7 17 19 36 100 29 126 -3 11 -1 24 5 27 22 14 10 33 -28
44 -43 14 -39 13 -66 2z"/>
</g>
</svg>
