<?xml version="1.0" encoding="utf-8"?>
<!-- Generator: Adobe Illustrator 24.2.0, SVG Export Plug-In . SVG Version: 6.00 Build 0)  -->
<svg version="1.1" id="Layer_1" xmlns="http://www.w3.org/2000/svg" xmlns:xlink="http://www.w3.org/1999/xlink" x="0px" y="0px"
	 viewBox="0 0 256 256" style="enable-background:new 0 0 256 256;" xml:space="preserve">
<style type="text/css">
	.st0{clip-path:url(#SVGID_2_);}
	.st1{fill-rule:evenodd;clip-rule:evenodd;fill:#0D0D43;}
	.st2{fill:none;stroke:#0D0D43;stroke-width:2.554;stroke-linecap:round;stroke-miterlimit:10;}
</style>
<g>
	<defs>
		<rect id="SVGID_1_" x="2" y="2" width="252" height="252"/>
	</defs>
	<clipPath id="SVGID_2_">
		<use xlink:href="#SVGID_1_"  style="overflow:visible;"/>
	</clipPath>
	<g class="st0">
		<g>
			<path class="st1" d="M207.2,81.9c-2,3.9-4.5,7.5-7.3,10.8c-8,9.3-18.9,15.6-31,17.9v0c-0.2,0-0.5,0.1-0.7,0.1
				c-0.2,0-0.3,0.1-0.5,0.1c-0.5,0.1-1,0.2-1.5,0.2c-0.5,0.1-1,0.1-1.5,0.2c-0.1,0-0.1,0-0.2,0c-0.5,0.1-1,0.1-1.4,0.1
				c-0.1,0-0.2,0-0.3,0c-0.5,0-0.9,0.1-1.4,0.1c-0.1,0-0.2,0-0.2,0c-0.5,0-1,0-1.5,0c0,0-0.1,0-0.1,0c-0.2,0-0.5,0-0.7,0
				c-0.2,0-0.4,0-0.6,0c-0.1,0-0.3,0-0.4,0c-0.5,0-1,0-1.5,0c-0.1,0-0.2,0-0.2,0c-0.4,0-0.8,0-1.2-0.1c-0.1,0-0.3,0-0.4,0
				c-0.4,0-0.8-0.1-1.2-0.1c-0.1,0-0.2,0-0.3,0c-0.5-0.1-1-0.1-1.4-0.2c-0.1,0-0.2,0-0.4-0.1c-0.4-0.1-0.8-0.1-1.1-0.2
				c-0.1,0-0.3,0-0.4-0.1c-0.5-0.1-1-0.2-1.4-0.3c0,0-0.1,0-0.1,0c-0.4-0.1-0.9-0.2-1.3-0.3c-0.1,0-0.3-0.1-0.4-0.1
				c-0.4-0.1-0.8-0.2-1.1-0.3c-0.1,0-0.2-0.1-0.3-0.1c-0.5-0.1-0.9-0.3-1.4-0.4c-0.1,0-0.2-0.1-0.3-0.1c-0.4-0.1-0.7-0.2-1.1-0.3
				c-0.1,0-0.3-0.1-0.4-0.1c-0.5-0.2-0.9-0.3-1.4-0.5l-0.8-0.3l-0.8-0.3l-1.5-0.6l-1-0.5l0,0l0,0l0,0c-1,0.7-2.1,1.4-3.2,2.1
				c1.6,0.8,3.2,1.6,4.9,2.3c0.5,0.2,1,0.4,1.4,0.6l1.4,0.5c1,0.3,2,0.6,2.9,0.9c1,0.2,2,0.5,3,0.8l1.5,0.3c0.5,0.1,1,0.2,1.5,0.3
				c0.5,0.1,0.9,0.1,1.4,0.2c0.1,0,0.3,0,0.4,0.1c0.3,0,0.7,0.1,1,0.1c0.2,0,0.3,0,0.5,0.1c0.4,0,0.7,0.1,1.1,0.1c0.1,0,0.2,0,0.3,0
				c0.5,0,0.9,0.1,1.4,0.1c0.1,0,0.2,0,0.3,0c0.4,0,0.7,0,1.1,0.1c0.2,0,0.3,0,0.5,0c0.3,0,0.7,0,1,0c0.1,0,0.3,0,0.4,0
				c0.5,0,0.9,0,1.4,0c0,0,0,0,0,0c0.5,0,0.9,0,1.4,0c0.1,0,0.3,0,0.4,0c0.3,0,0.7,0,1-0.1c0.2,0,0.3,0,0.5,0c0.4,0,0.7-0.1,1.1-0.1
				c0.1,0,0.2,0,0.3,0c0.5,0,0.9-0.1,1.4-0.2c0.1,0,0.2,0,0.3,0c0.4,0,0.7-0.1,1.1-0.2c0.2,0,0.3,0,0.5-0.1c2-0.3,3.9-0.7,5.8-1.2
				c8-2.2,15.5-6,21.9-11.3c3.2-2.6,6.2-5.6,8.8-8.8c2.6-3.2,4.9-6.7,6.8-10.5c3.8-7.5,5.9-15.7,6.2-24.1c0,4.2-0.5,8.4-1.5,12.5
				c-1,4.1-2.4,8.1-4.2,11.9c-1.8,3.8-4,7.4-6.6,10.8c-2.6,3.3-5.5,6.4-8.7,9.2c-6.5,5.5-14,9.7-22.2,12.1c-1.9,0.6-3.9,1-5.9,1.4v0
				c-0.3,0-0.5,0.1-0.8,0.1c-0.2,0-0.3,0.1-0.5,0.1c-0.4,0.1-0.8,0.1-1.2,0.2c-0.1,0-0.1,0-0.2,0c-0.9,0.1-1.9,0.2-2.8,0.3
				c-0.1,0-0.1,0-0.2,0c-0.4,0-0.8,0.1-1.2,0.1c-0.1,0-0.2,0-0.3,0c-0.4,0-0.7,0-1.1,0.1c-0.1,0-0.2,0-0.3,0c-0.4,0-0.7,0-1.1,0
				c-0.1,0-0.2,0-0.4,0c-0.2,0-0.5,0-0.7,0c-0.1,0-0.2,0-0.2,0c-0.4,0-0.7,0-1.1,0c-0.3,0-0.7,0-1,0c-0.4,0-0.7,0-1.1-0.1
				c-0.3,0-0.5,0-0.8-0.1c-0.3,0-0.5,0-0.8-0.1c-0.3,0-0.6-0.1-0.8-0.1c-0.2,0-0.5-0.1-0.7-0.1c-0.3,0-0.6-0.1-0.9-0.1
				c-0.2,0-0.4-0.1-0.6-0.1c-0.6-0.1-1.2-0.2-1.8-0.3c-0.2,0-0.4-0.1-0.6-0.1c-0.3-0.1-0.7-0.1-1-0.2c-0.2,0-0.4-0.1-0.6-0.1
				c-0.3-0.1-0.7-0.1-1-0.2c-0.2,0-0.3-0.1-0.5-0.1c-1.2-0.3-2.4-0.6-3.5-0.9c-0.1,0-0.2-0.1-0.4-0.1c-0.4-0.1-0.7-0.2-1.1-0.3
				c-0.1,0-0.3-0.1-0.4-0.1c-0.4-0.1-0.7-0.2-1.1-0.4c-0.1,0-0.1-0.1-0.2-0.1c-1.2-0.4-2.4-0.9-3.6-1.5c-0.1,0-0.2-0.1-0.3-0.1
				c-0.4-0.2-0.7-0.3-1.1-0.5c-0.1,0-0.2-0.1-0.3-0.1c-0.8-0.4-1.6-0.8-2.4-1.2l0,0l0,0l0,0c-3.6,1.9-7.4,3.4-11.3,4.6
				c-0.5,0.1-0.9,0.3-1.4,0.4c-0.1,0-0.2,0.1-0.3,0.1c-0.5,0.1-0.9,0.2-1.4,0.3c0,0-0.1,0-0.1,0c-0.4,0.1-0.9,0.2-1.3,0.3
				c-0.1,0-0.2,0-0.3,0.1c-0.5,0.1-0.9,0.2-1.4,0.3c-0.1,0-0.1,0-0.2,0c-0.4,0.1-0.8,0.1-1.3,0.2c-0.1,0-0.2,0-0.3,0.1
				c-0.5,0.1-0.9,0.1-1.4,0.2c-0.1,0-0.2,0-0.2,0c-0.4,0-0.8,0.1-1.2,0.1c-0.1,0-0.2,0-0.3,0c-0.5,0-0.9,0.1-1.4,0.1
				c-0.1,0-0.2,0-0.3,0c-0.4,0-0.8,0-1.2,0.1c-0.1,0-0.2,0-0.3,0c-0.5,0-0.9,0-1.4,0c-0.1,0-0.2,0-0.3,0c-0.2,0-0.4,0-0.6,0
				c-0.2,0-0.4,0-0.6,0c-0.1,0-0.2,0-0.3,0c-0.5,0-0.9,0-1.4,0c-0.1,0-0.2,0-0.3,0c-0.4,0-0.8,0-1.2-0.1c-0.1,0-0.1,0-0.2,0
				c-0.5,0-0.9-0.1-1.4-0.1c-0.1,0-0.2,0-0.3,0c-0.4,0-0.9-0.1-1.3-0.1c0,0-0.1,0-0.1,0c-0.4,0-0.7-0.1-1.1-0.1v0
				c-8.6-1.2-16.9-4.4-24.2-9.2l-0.7-0.4l-0.7-0.5l-1.3-0.9c-0.4-0.3-0.9-0.6-1.3-1l-1.3-1c-0.8-0.7-1.6-1.4-2.4-2.1l-1.2-1.1
				l-0.6-0.6c-0.2-0.2-0.4-0.4-0.6-0.6c-3-3.1-5.7-6.5-8-10.1C47.3,82,44.4,73.7,43.4,65c-0.9-8.7,0.2-17.5,3.3-25.6
				c3.1-8.2,8.1-15.5,14.5-21.4c3.2-3,6.7-5.6,10.4-7.8c3.7-2.2,7.7-4,11.9-5.3c4.1-1.3,8.4-2.2,12.8-2.5c4.3-0.3,8.7-0.2,13,0.5
				c2.2,0.3,4.3,0.8,6.4,1.3c0.5,0.1,1,0.3,1.6,0.5c0.5,0.2,1,0.3,1.6,0.5l1.5,0.6c0.3,0.1,0.5,0.2,0.8,0.3l0.8,0.3
				c2.3,0.9,4.5,2,6.7,3.2c3.4-1.9,7-3.5,10.7-4.6c4.2-1.3,8.4-2.2,12.8-2.5c4.3-0.3,8.7-0.2,13,0.5c2.2,0.3,4.3,0.8,6.4,1.3
				c0.5,0.1,1,0.3,1.6,0.5c0.5,0.2,1.1,0.3,1.6,0.5l1.5,0.6c0.3,0.1,0.5,0.2,0.8,0.3l0.8,0.3c4,1.6,7.9,3.7,11.5,6.2
				c3.6,2.5,6.8,5.4,9.8,8.6c2.9,3.2,5.5,6.8,7.6,10.6c0.3,0.5,0.5,1,0.8,1.4l0.7,1.5l0.7,1.5c0.2,0.5,0.5,1,0.6,1.5
				c0.4,1,0.8,2,1.1,3.1l0.5,1.6l0.4,1.6c0.3,1,0.5,2.1,0.8,3.2c0.1,0.5,0.2,1.1,0.3,1.6l0.3,1.6l0.2,1.6c0.1,0.5,0.1,1.1,0.2,1.6
				l0.1,1.6c0,0.3,0,0.5,0,0.8v0.8c0.1,4.4-0.4,8.7-1.4,13C210.7,73.9,209.2,78,207.2,81.9z M137.7,102.5l1.2,0.6
				c0.1-0.1,0.2-0.1,0.3-0.2c0.4-0.3,0.8-0.6,1.2-1c0.2-0.2,0.5-0.4,0.7-0.6c-0.7-0.3-1.4-0.6-2.1-0.9c-0.6-0.3-1.3-0.6-1.9-0.9h0
				l0,0h0c-0.7,0.6-1.4,1.1-2.1,1.7c0,0,0.1,0,0.1,0.1l1.3,0.7C136.8,102.1,137.2,102.3,137.7,102.5z M165.5,100
				c0.1,0,0.3,0,0.4-0.1c0.3-0.1,0.6-0.1,0.9-0.2c0.2,0,0.3-0.1,0.5-0.1c0.3-0.1,0.6-0.1,0.9-0.2c0.1,0,0.3-0.1,0.4-0.1
				c6.3-1.5,12.1-4.4,17.1-8.5l1.2-1l1.1-1c0.4-0.3,0.7-0.7,1.1-1c0.4-0.4,0.7-0.7,1.1-1.1c2.7-2.9,5.1-6.2,6.9-9.7
				c0.2-0.4,0.4-0.9,0.7-1.3l0.3-0.7c0.1-0.2,0.2-0.5,0.3-0.7L199,73l0.5-1.4c0.7-1.9,1.2-3.8,1.6-5.7c0.2-1,0.3-2,0.5-2.9l0.2-1.5
				l0.1-0.8l0-0.7c0-0.5,0.1-1,0.1-1.5v-2.2l0-0.7c0-0.5-0.1-1-0.1-1.5l-0.2-1.5c0-0.2,0-0.5-0.1-0.7l-0.1-0.7
				c-0.1-0.5-0.1-1-0.2-1.5l-0.3-1.5c-1.8-7.8-5.8-15-11.4-20.7c-5.6-5.8-12.6-10-20.3-12.3c-0.5-0.2-1-0.3-1.4-0.4s-1-0.3-1.5-0.4
				c-1-0.2-2-0.4-2.9-0.5c-2-0.3-4-0.5-6-0.5h-2.2l-0.7,0l-1.5,0.1l-1.5,0.2l-0.7,0.1c-0.2,0-0.5,0.1-0.7,0.1l-1.5,0.2
				c-0.5,0.1-1,0.2-1.5,0.3c-0.5,0.1-1,0.2-1.5,0.3L144,15c-0.5,0.1-1,0.3-1.4,0.4c-1,0.3-1.9,0.7-2.8,1c-0.3,0.1-0.6,0.2-0.9,0.4
				c0.7,0.6,1.3,1.2,2,1.9c0.4-0.2,0.9-0.3,1.3-0.5c8.4-3,17.5-3.3,26-0.9c8.5,2.4,16.1,7.4,21.8,14.2c1.4,1.7,2.7,3.5,3.8,5.4
				c1.1,1.9,2.1,3.9,2.9,6c0.2,0.5,0.4,1,0.6,1.6l0.5,1.6c0.3,1.1,0.6,2.1,0.8,3.2c0.5,2.2,0.7,4.4,0.8,6.6c0.1,2.2,0,4.4-0.3,6.6
				c-0.3,2.2-0.8,4.4-1.4,6.5c-0.6,2.1-1.5,4.2-2.4,6.2c-5,10-13.8,17.6-24.5,21c-0.6,0.2-1.3,0.4-2,0.6v0c0,0-0.1,0-0.1,0
				c-0.4,0.1-0.7,0.2-1.1,0.3l0,0c-0.4,0.1-0.7,0.2-1.1,0.2c-0.1,0-0.2,0-0.3,0.1c-0.4,0.1-0.7,0.1-1.1,0.2c0,0-0.1,0-0.1,0
				c-0.3,0.1-0.7,0.1-1,0.1c-0.1,0-0.2,0-0.3,0c-0.4,0-0.7,0.1-1.1,0.1c-0.1,0-0.1,0-0.2,0c-0.3,0-0.7,0.1-1,0.1c-0.1,0-0.2,0-0.2,0
				c-0.4,0-0.7,0-1.1,0.1c-0.1,0-0.2,0-0.2,0c-0.3,0-0.7,0-1,0c0,0-0.1,0-0.1,0c0,0,0,0-0.1,0c-0.3,0-0.6,0-0.9,0
				c-3.4-0.1-6.8-0.6-10.1-1.6l0,0l0,0l0,0c-0.6,0.7-1.2,1.3-1.8,2c0.2,0.1,0.4,0.1,0.6,0.2c1,0.3,1.9,0.5,2.9,0.8
				c0.5,0.1,1,0.2,1.5,0.3l0.7,0.1l0.7,0.1c2,0.3,4,0.5,5.9,0.5h1.5c0.5,0,1,0,1.5-0.1c1,0,2-0.2,3-0.3
				C164.6,100.1,165,100,165.5,100z M128.5,35.4c0.5-0.6,1.1-1.2,1.7-1.8c-0.5-0.6-1.1-1.2-1.7-1.8c-0.6,0.6-1.1,1.2-1.7,1.8
				C127.4,34.1,128,34.7,128.5,35.4z M127,45.4c0.5,1,0.9,2.1,1.3,3.1c0.4-1.1,0.9-2.1,1.5-3.1c-0.4-0.9-0.9-1.8-1.3-2.6
				C127.9,43.6,127.5,44.5,127,45.4L127,45.4z M128.6,25.9c0.6-0.5,1.3-1.1,2-1.6c-0.6-0.6-1.3-1.1-2-1.6c-0.6,0.4-1.1,0.9-1.7,1.3
				c-0.1,0.1-0.2,0.2-0.3,0.3C127.3,24.8,127.9,25.4,128.6,25.9L128.6,25.9z M131.3,65.7c0.8-2.8,1.2-5.7,1.2-8.7
				c0-1.8-0.2-3.6-0.6-5.4C130.3,56.2,130.1,61,131.3,65.7z M131,76.1c-0.5,0.7-1,1.5-1.6,2.2c0.5,0.7,1,1.4,1.5,2.1
				c0.5-0.7,1.1-1.3,1.6-2C132,77.6,131.5,76.9,131,76.1z M131,86.7c-0.6,0.6-1.2,1.1-1.8,1.6c0.6,0.6,1.2,1.1,1.8,1.7l0.1-0.1l0,0
				l0.1-0.1l1.1-1c0.2-0.2,0.3-0.3,0.5-0.5C132.2,87.9,131.6,87.3,131,86.7z M144.7,98c0.6-0.6,1.3-1.3,1.9-1.9
				c-0.6-0.2-1.2-0.4-1.8-0.6c-0.8-0.3-1.6-0.6-2.3-1c0,0,0,0,0,0l0,0c0,0,0,0,0,0c-0.6,0.6-1.2,1.2-1.8,1.8c0.1,0,0.2,0.1,0.3,0.1
				c0.9,0.4,1.8,0.8,2.7,1.2C143.9,97.8,144.3,97.9,144.7,98z M151.8,93c0.3,0.1,0.6,0.1,1,0.2c0.1,0,0.2,0,0.3,0
				c0.3,0,0.6,0.1,0.9,0.1c0.1,0,0.2,0,0.3,0c0.3,0,0.5,0.1,0.8,0.1c0.1,0,0.2,0,0.3,0c0.3,0,0.6,0.1,0.8,0.1c0.1,0,0.2,0,0.3,0
				c0.3,0,0.6,0,1,0c0.1,0,0.1,0,0.2,0c0.5,0,1,0,1.6,0c0.3,0,0.5,0,0.8,0c0.2,0,0.4,0,0.6,0c0.2,0,0.4,0,0.7,0c0.2,0,0.4,0,0.6,0
				c0.2,0,0.4,0,0.7-0.1c0.2,0,0.4,0,0.6-0.1c0.2,0,0.4-0.1,0.7-0.1c0.2,0,0.4-0.1,0.6-0.1c0.2,0,0.4-0.1,0.7-0.1
				c0.2,0,0.4-0.1,0.6-0.1c0.2,0,0.4-0.1,0.7-0.1c0.2,0,0.4-0.1,0.6-0.1c0.2-0.1,0.4-0.1,0.7-0.2c0.2,0,0.4-0.1,0.6-0.1
				c0.2-0.1,0.4-0.1,0.7-0.2c0.3-0.1,0.6-0.2,0.9-0.3c9.5-3.1,17.4-9.9,21.9-18.8c0.9-1.8,1.6-3.6,2.2-5.5c0.6-1.9,1-3.8,1.2-5.8
				c0.2-2,0.3-3.9,0.2-5.9c-0.4-8-3.3-15.6-8.4-21.7c-5.1-6.2-11.9-10.6-19.6-12.8c-7.5-2.1-15.5-1.9-22.9,0.6
				c0.6,0.7,1.1,1.3,1.6,2c4-1.2,8.2-1.8,12.4-1.6c4.5,0.2,8.9,1.2,12.9,3c4.1,1.8,7.8,4.3,11,7.5c3.2,3.1,5.8,6.8,7.6,10.9
				c1.8,4.1,2.8,8.5,2.9,13c0.1,4.5-0.8,9-2.5,13.1c-3.5,8.4-10.1,15-18.4,18.6c-1.2,0.5-2.4,0.9-3.6,1.3h0c0,0-0.1,0-0.1,0
				c-0.3,0.1-0.7,0.2-1,0.3c0,0,0,0,0,0c-0.3,0.1-0.7,0.2-1,0.2c-0.1,0-0.2,0-0.3,0.1c-0.3,0.1-0.6,0.1-0.9,0.2c-0.1,0-0.1,0-0.2,0
				c-0.3,0.1-0.7,0.1-1,0.2c-0.1,0-0.2,0-0.2,0c-0.3,0-0.6,0.1-0.8,0.1c-0.1,0-0.2,0-0.3,0c-0.4,0-0.7,0.1-1.1,0.1c0,0-0.1,0-0.1,0
				c-0.3,0-0.6,0-0.9,0.1c-0.1,0-0.2,0-0.3,0c-0.3,0-0.6,0-0.9,0c0,0-0.1,0-0.1,0h-0.1c-2.2,0-4.3-0.2-6.5-0.7l0,0l0,0l0,0
				c-0.5,0.7-1,1.5-1.5,2.2c0.4,0.1,0.7,0.2,1.1,0.2C151.7,93,151.8,93,151.8,93L151.8,93z M136.6,94.2c0.6-0.6,1.2-1.1,1.8-1.7
				c-0.7-0.4-1.4-0.9-2.1-1.4c-0.3,0.3-0.7,0.7-1,1l-0.8,0.7C135.1,93.2,135.8,93.7,136.6,94.2z M137.3,83.3
				c-0.6-0.5-1.2-1.1-1.8-1.7c-0.5,0.7-1,1.3-1.6,2c0.6,0.6,1.2,1.1,1.8,1.7C136.3,84.6,136.8,84,137.3,83.3L137.3,83.3z
				 M143.1,73.4l0.2-0.4l0.5-1.4c0.2-0.7,0.5-1.4,0.7-2.1c-0.7-1-1.3-2-1.8-3.1c-0.2,0.9-0.4,1.7-0.7,2.5c-0.2,0.7-0.5,1.5-0.7,2.2
				C141.8,71.9,142.4,72.7,143.1,73.4z M140.8,85.9c-0.5,0.7-1,1.3-1.6,1.9c0.7,0.5,1.4,0.9,2.2,1.3c0.5-0.6,1.1-1.3,1.6-2
				C142.2,86.8,141.5,86.4,140.8,85.9L140.8,85.9z M143.3,62.4c0.2,0.7,0.4,1.4,0.6,2.1c0.3,0.8,0.7,1.6,1.2,2.4
				c0.1-0.3,0.2-0.7,0.2-1c0.2-1,0.3-2,0.5-2.9l0.2-1.5l0.1-0.7l0-0.7c0-0.5,0.1-1,0.1-1.5v-2.2l0-0.7c0-0.5-0.1-1-0.1-1.5l-0.2-1.5
				c0-0.2,0-0.5-0.1-0.7l-0.1-0.4c-1,1.3-1.7,2.8-2.2,4.4c0,0.1,0,0.1,0,0.2C143.7,58,143.6,60.2,143.3,62.4L143.3,62.4z
				 M142.8,49.3c0.2,0.9,0.4,1.9,0.5,2.8c0.6-1,1.3-2,2.1-2.9l-0.2-1.1c-0.3-1.1-0.6-2.2-0.9-3.3c0,0-0.1,0.1-0.1,0.1
				c-0.7,0.6-1.3,1.2-1.9,1.9C142.4,47.6,142.6,48.4,142.8,49.3L142.8,49.3z M146.5,38.7c0.8-0.4,1.5-0.7,2.3-1l-0.6-1.3l-0.6-1.2
				c-0.8,0.3-1.6,0.6-2.3,1C145.8,37,146.2,37.8,146.5,38.7L146.5,38.7z M149.1,46.2c0.4-0.2,0.8-0.4,1.2-0.6
				c0.4-0.2,0.8-0.3,1.2-0.5c0-0.1,0-0.2-0.1-0.3l-0.4-1.5l-0.5-1.4c-0.1-0.3-0.2-0.6-0.3-0.8c-0.8,0.3-1.6,0.6-2.3,1
				C148.4,43.5,148.8,44.9,149.1,46.2L149.1,46.2z M148.6,70.8c0.7,0.6,1.4,1.1,2.2,1.5c0.4-1.2,0.7-2.4,1-3.6
				c0.2-0.7,0.3-1.4,0.5-2.1c-0.7-0.6-1.3-1.2-1.8-2c-0.1-0.2-0.3-0.4-0.4-0.6C149.7,66.3,149.2,68.5,148.6,70.8L148.6,70.8z
				 M150.9,47c-0.4,0.2-0.9,0.5-1.3,0.7l-0.1,0.1c1.1,5.2,1.3,10.6,0.6,15.9c0.1,0.3,0.3,0.5,0.5,0.8c0.5,0.7,1,1.3,1.7,1.8
				c0.6-3.1,0.9-6.3,0.8-9.5V56c0-0.3,0-0.5,0-0.7l-0.1-1.5c0-0.5-0.1-1-0.1-1.5l-0.2-1.5l-0.2-1.5c-0.1-0.5-0.2-1-0.3-1.5
				c-0.1-0.4-0.2-0.8-0.3-1.2C151.5,46.7,151.2,46.8,150.9,47L150.9,47z M152.2,34.6l0.7,1.5l0.3,0.6c0.3,0,0.5-0.1,0.8-0.1
				c2.3-0.2,4.6-0.1,6.8,0.3c6.8,1.4,12.5,5.9,15.5,12.1c1,2.1,1.6,4.3,1.8,6.5c0.2,2.3,0,4.5-0.5,6.7c-0.6,2.2-1.5,4.3-2.8,6.1
				c-1.3,1.9-2.9,3.5-4.7,4.8c-3.2,2.3-7,3.6-11,3.6c-0.4,1.1-0.8,2.3-1.3,3.4c2.8,0.1,5.6-0.3,8.2-1.2c0.9-0.3,1.8-0.7,2.6-1.1
				c0.9-0.4,1.7-0.9,2.5-1.4c1.6-1.1,3-2.3,4.3-3.7c1.3-1.4,2.4-3,3.3-4.7c2.7-5.1,3.3-11.1,1.7-16.7c-0.5-1.8-1.3-3.6-2.2-5.3
				c-5-8.5-14.6-13.4-24.4-12.3c-0.6,0.1-1.2,0.2-1.8,0.3L152.2,34.6z M161.2,68.2c0.1,0,0.2-0.1,0.3-0.1l0.4-0.1
				c0.1,0,0.2-0.1,0.4-0.1c0.2-0.1,0.5-0.2,0.7-0.3c0.5-0.2,0.9-0.5,1.3-0.8c0.4-0.3,0.8-0.6,1.2-0.9c0.2-0.2,0.4-0.4,0.6-0.5
				c0.1-0.1,0.2-0.2,0.3-0.3l0.2-0.3c0.7-0.8,1.2-1.6,1.7-2.5c0.4-0.9,0.7-1.9,0.9-2.9l0.1-0.7c0-0.2,0-0.5,0-0.8c0-0.3,0-0.5,0-0.8
				l-0.1-0.8c0-0.1,0-0.2,0-0.4l-0.1-0.4l-0.1-0.7l-0.2-0.7c-0.1-0.2-0.1-0.5-0.3-0.7c-1.6-3.8-4.9-6.6-8.8-7.5
				c-1.2-0.3-2.4-0.4-3.6-0.3c0.1,0.4,0.2,0.8,0.3,1.3c0.1,0.5,0.2,1.1,0.3,1.6l0.3,1.6l0.2,1.6c0.1,0.5,0.1,1.1,0.2,1.6l0.1,1.6
				c0,0.3,0,0.5,0,0.8v0.8c0.1,3.9-0.3,7.8-1.1,11.6c0.7,0.2,1.5,0.3,2.2,0.3c0.8,0,1.6-0.1,2.4-0.3c0.7-3.2,1.1-6.5,1.2-9.7
				C162.1,61.8,161.8,65,161.2,68.2L161.2,68.2z M158.5,69c-0.8,0-1.6-0.1-2.3-0.3c-0.1,0.3-0.1,0.7-0.2,1c-0.3,1.4-0.7,2.8-1.2,4.2
				c0.9,0.2,1.8,0.4,2.7,0.4c0.6,0,1.3,0,1.9,0c0.6-1.8,1.1-3.6,1.5-5.5C160.1,69,159.3,69,158.5,69L158.5,69z M155.2,42.2l0.4,1.6
				c0.1,0.2,0.1,0.4,0.2,0.6c1.4-0.1,2.8,0.1,4.2,0.4c4.2,1.1,7.9,4.3,9.4,8.4c0.1,0.3,0.2,0.5,0.3,0.8l0.2,0.8l0.1,0.8l0.1,0.4
				c0,0.1,0,0.3,0,0.4l0.1,0.8c0,0.3,0,0.5,0,0.8c0,0.3,0,0.5-0.1,0.8l-0.1,0.8c-0.4,2.1-1.4,4.1-2.9,5.7l-0.3,0.3
				c-0.1,0.1-0.2,0.2-0.3,0.3c-0.2,0.2-0.4,0.4-0.6,0.5c-0.4,0.3-0.9,0.7-1.3,0.9c-0.5,0.3-0.9,0.5-1.4,0.8
				c-0.2,0.1-0.5,0.2-0.8,0.3c-0.1,0-0.2,0.1-0.4,0.1l-0.4,0.1c-0.2,0.1-0.4,0.1-0.5,0.1c-0.1,0.8-0.3,1.5-0.5,2.3
				c-0.3,1.1-0.5,2.2-0.9,3.2c3.1-0.2,6.1-1.4,8.6-3.3c1.5-1.2,2.9-2.6,4-4.2c1.1-1.6,1.9-3.4,2.3-5.3c0.4-1.9,0.6-3.8,0.3-5.7
				c-0.2-1.9-0.8-3.8-1.6-5.5c-3.5-7-11.1-11.1-18.9-10.2c0.1,0.2,0.1,0.3,0.2,0.5L155.2,42.2z M158.5,76.7c-0.4,0-0.8,0-1.2-0.1
				c-1.1-0.1-2.2-0.3-3.3-0.6c-0.4,1.1-0.9,2.2-1.3,3.2c1.5,0.4,2.9,0.7,4.5,0.8C157.6,79,158.1,77.9,158.5,76.7L158.5,76.7z
				 M150.7,83.2c-0.4,0.7-0.8,1.4-1.2,2.1c1.4,0.5,2.9,0.9,4.4,1.1c0.4-0.7,0.9-1.5,1.3-2.2C153.6,84,152.1,83.7,150.7,83.2
				L150.7,83.2z M150,74.4c-0.8-0.4-1.5-0.9-2.2-1.4c0,0,0,0,0,0l-0.6,1.5l-0.6,1.5c0,0.1-0.1,0.2-0.1,0.3c0.7,0.5,1.4,0.9,2.2,1.3
				C149.2,76.6,149.6,75.5,150,74.4L150,74.4z M149.8,30.1c1.1-0.3,2.3-0.5,3.5-0.6c11.6-1.3,22.8,4.4,28.7,14.4
				c1.1,2,2,4.1,2.7,6.2c1.3,4.4,1.4,9.1,0.3,13.5c-0.5,2.2-1.3,4.3-2.4,6.4c-1.1,2-2.4,3.9-3.9,5.6c-1.5,1.7-3.3,3.2-5.1,4.4
				c-0.9,0.6-1.9,1.2-2.9,1.7c-1,0.5-2.1,1-3.1,1.3c-3.7,1.3-7.7,1.8-11.6,1.3c-0.4,0.8-0.8,1.5-1.2,2.3c1.3,0.2,2.7,0.3,4,0.3
				c3.9,0,7.8-0.8,11.4-2.3c7.3-3.1,13-8.9,16.1-16.2c1.5-3.6,2.2-7.5,2.1-11.4c-0.1-3.9-0.9-7.8-2.5-11.3c-1.6-3.6-3.9-6.8-6.7-9.6
				c-8-8-19.7-11.1-30.6-8.2C148.9,28.6,149.3,29.3,149.8,30.1L149.8,30.1z M150.1,90.1C150.1,90.1,150.1,90.1,150.1,90.1
				c-0.3-0.1-0.5-0.2-0.8-0.2h0c-0.8-0.2-1.6-0.5-2.5-0.8c-0.2,0.3-0.4,0.6-0.6,0.8h0c-0.3,0.4-0.6,0.8-0.9,1.2
				c1.4,0.6,2.8,1,4.2,1.4c0.6-0.7,1.1-1.4,1.6-2.1C150.9,90.3,150.5,90.2,150.1,90.1L150.1,90.1z M145.4,83.6
				c0.4-0.7,0.8-1.4,1.2-2.1c-0.7-0.4-1.5-0.8-2.2-1.3c-0.4,0.7-0.8,1.4-1.2,2C144,82.8,144.7,83.2,145.4,83.6z M139.2,75.7
				c-0.4,0.7-0.8,1.5-1.2,2.2c0.6,0.6,1.2,1.2,1.8,1.8c0.4-0.7,0.8-1.4,1.2-2.1C140.4,77,139.8,76.4,139.2,75.7L139.2,75.7z
				 M139.3,56c-0.1-1.3-0.2-2.7-0.4-4c-0.3,0.8-0.6,1.5-0.8,2.3c-1,3.7-0.9,7.5,0.3,11.1c0,0,0,0.1,0,0.1c0.3-1.2,0.5-2.4,0.7-3.7
				C139.3,60,139.4,58,139.3,56L139.3,56z M140.7,42.6c0.3-0.2,0.5-0.5,0.8-0.7c0.4-0.3,0.8-0.7,1.3-1c-0.4-0.8-0.7-1.7-1.2-2.5
				c-0.7,0.5-1.4,1-2,1.6C140,40.9,140.4,41.7,140.7,42.6L140.7,42.6z M143.2,32.4c0.8-0.4,1.5-0.7,2.3-1c-0.4-0.7-0.9-1.4-1.4-2.1
				c-0.8,0.3-1.5,0.7-2.3,1.1C142.3,31.1,142.8,31.7,143.2,32.4L143.2,32.4z M130.9,98.6c0.3-0.2,0.6-0.4,1-0.7
				c0.4-0.3,0.8-0.6,1.2-0.9c-0.7-0.5-1.4-1-2.1-1.5l0,0l0,0l0,0c-0.7,0.5-1.4,1-2.1,1.5c0.4,0.3,0.8,0.6,1.1,0.8
				C130.3,98.1,130.6,98.4,130.9,98.6z M122.3,101.5l1.2,1c0.1,0.1,0.2,0.2,0.3,0.2c1.1-0.5,2.1-1,3.1-1.6c-0.3-0.2-0.6-0.4-0.8-0.6
				c-0.4-0.3-0.8-0.7-1.3-1l-0.3,0.2c-0.9,0.5-1.9,0.9-2.8,1.3C121.9,101.1,122.1,101.3,122.3,101.5z M117.9,97.2
				c0.1,0.1,0.2,0.3,0.4,0.4c1-0.4,2.1-0.8,3.1-1.3l-0.2-0.2l-0.6-0.6l-0.6-0.6l-0.5-0.5c-1,0.5-2,0.9-3,1.2
				c0.1,0.1,0.2,0.2,0.3,0.3C117.1,96.4,117.5,96.8,117.9,97.2z M112.5,58.2c0.1-1.5,0.2-3,0.4-4.4c0-0.1-0.1-0.2-0.1-0.3
				c-0.5-1.1-1.1-2.2-1.9-3.1c-0.1,0.5-0.2,1.1-0.3,1.7c-0.1,1-0.3,2-0.4,3c0,0.5-0.1,1-0.1,1.5l-0.1,1.5c-0.1,2.5,0,5,0.3,7.5
				c0,0,0.1-0.1,0.1-0.1c0.1-0.1,0.2-0.2,0.3-0.3l0.2-0.3c0.7-0.8,1.2-1.6,1.7-2.6C112.4,60.9,112.4,59.5,112.5,58.2z M112.6,63.6
				c-0.4,0.6-0.8,1.2-1.3,1.7l-0.3,0.3c-0.1,0.1-0.2,0.2-0.3,0.3c-0.1,0.1-0.3,0.3-0.4,0.4c0.2,1.2,0.4,2.4,0.7,3.6
				c0.1,0.2,0.1,0.5,0.2,0.7l0.2,0.7l0.1,0.5c0.4-0.2,0.7-0.5,1.1-0.8c0.4-0.3,0.8-0.6,1.1-0.9C113.2,67.9,112.8,65.8,112.6,63.6z
				 M111.4,83.1c-1,0.3-1.9,0.6-2.9,0.8c0.4,0.7,0.8,1.5,1.2,2.2c1-0.2,2-0.5,3-0.9C112.2,84.5,111.8,83.8,111.4,83.1z M85.9,78.1
				c-3.5-3-6.1-6.9-7.5-11.4c-1.4-4.4-1.4-9.2-0.1-13.6c1.3-4.4,3.9-8.3,7.5-11.3c3.5-3,7.8-4.8,12.4-5.4c1.8-0.2,3.6-0.2,5.4,0.1
				c0.4-0.9,0.8-1.8,1.3-2.7c-2.3-0.4-4.6-0.4-6.9-0.2c-3.9,0.4-7.6,1.7-10.8,3.8c-3.3,2.1-6.1,4.8-8.2,8.1
				c-4.3,6.6-5.4,14.8-2.8,22.2c1.3,3.7,3.3,7.1,5.9,9.9c2.7,2.9,5.9,5.2,9.4,6.7c3.6,1.6,7.4,2.4,11.3,2.4c1.1,0,2.2-0.1,3.3-0.2
				c-0.4-0.8-0.8-1.5-1.2-2.3C98,85,91.1,82.7,85.9,78.1z M107.6,73.6l-0.3-1.2l-0.2-0.8c-0.1-0.3-0.1-0.5-0.2-0.8
				c-0.2-0.8-0.3-1.5-0.5-2.3c0,0,0,0,0,0l-0.4,0.1c-0.8,0.2-1.6,0.3-2.4,0.4c0.3,1.8,0.7,3.5,1.2,5.2
				C105.7,74.1,106.6,73.9,107.6,73.6L107.6,73.6z M94.8,64.5c1.2,1.6,2.8,2.9,4.7,3.5c-0.2-1-0.3-2-0.4-3c-0.7-6.5-0.2-13,1.3-19.4
				c-0.8,0-1.7,0.1-2.5,0.3c-0.2,0-0.5,0.1-0.7,0.2l-0.7,0.2c-0.5,0.2-0.9,0.4-1.4,0.6c-0.4,0.2-0.9,0.5-1.3,0.7l-0.6,0.4
				c-0.2,0.1-0.4,0.3-0.6,0.4c-3.2,2.5-5.1,6.2-5.4,10.2c-0.1,2,0.2,3.9,0.9,5.8c0.7,1.8,1.8,3.5,3.1,4.9c2.5,2.7,5.9,4.4,9.6,4.8
				c-0.5-1.9-1-3.9-1.3-5.8c-2-0.7-3.7-2.1-4.9-3.8c-1.2-1.8-1.7-3.9-1.4-6C93.1,60.7,93.6,62.8,94.8,64.5L94.8,64.5z M89.8,70.8
				c-1.5-1.7-2.7-3.6-3.4-5.7c-2.4-6.5-0.2-13.7,5.4-17.8c0.2-0.2,0.4-0.3,0.7-0.5l0.7-0.4c0.5-0.3,1-0.5,1.5-0.8
				c0.5-0.2,1-0.4,1.5-0.6l0.8-0.2c0.3-0.1,0.5-0.2,0.8-0.2c1-0.2,2.1-0.3,3.2-0.3c0.4-1.4,0.8-2.9,1.4-4.3c-1.2-0.1-2.4,0-3.6,0.1
				c-3.8,0.5-7.4,2.1-10.3,4.7c-2.9,2.5-5,5.8-6,9.5c-1,3.7-0.9,7.5,0.3,11.1c1.2,3.6,3.4,6.8,6.2,9.3c3.9,3.4,8.9,5.3,14.2,5.4
				c-0.5-1.1-0.9-2.3-1.3-3.5c-0.1,0-0.1,0-0.2,0C97,76.3,92.8,74.2,89.8,70.8L89.8,70.8z M104.7,46.2c-1.7,6-2.3,12.2-1.7,18.5
				c0.1,1.3,0.3,2.6,0.5,3.9c0.8,0,1.6-0.2,2.3-0.4l0.4-0.1c0,0,0.1,0,0.1,0c-0.6-3.4-0.8-6.8-0.7-10.2l0.1-1.6
				c0-0.5,0.1-1.1,0.2-1.6c0.1-1.1,0.3-2.2,0.4-3.3c0.2-1.3,0.5-2.7,0.9-4C106.4,46.8,105.6,46.5,104.7,46.2z M107.5,46.1
				c0.4-1.4,0.9-2.9,1.4-4.3c-0.8-0.4-1.6-0.7-2.4-0.9c0,0,0,0.1,0,0.1c-0.5,1.3-1,2.7-1.4,4C105.9,45.3,106.7,45.6,107.5,46.1
				L107.5,46.1z M108.7,77.1c-0.1-0.3-0.2-0.5-0.3-0.8l-0.1-0.3c-0.9,0.3-1.9,0.5-2.9,0.6c0.4,1.1,0.8,2.2,1.2,3.3
				c1-0.2,2-0.4,2.9-0.7c-0.1-0.2-0.2-0.4-0.2-0.6L108.7,77.1z M108.6,90.8L108.6,90.8L108.6,90.8L108.6,90.8
				c-1,0.2-1.9,0.3-2.9,0.4l0,0c-0.2,0-0.5,0-0.7,0.1c-0.1,0-0.1,0-0.2,0c-0.2,0-0.4,0-0.5,0c-0.1,0-0.2,0-0.3,0c-0.2,0-0.3,0-0.5,0
				c-0.1,0-0.2,0-0.3,0c-0.1,0-0.3,0-0.4,0h-0.1c-0.3,0-0.7,0-1,0c-0.1,0-0.2,0-0.3,0c-0.2,0-0.5,0-0.7,0c-0.1,0-0.2,0-0.3,0
				c-0.3,0-0.6,0-0.9-0.1c0,0-0.1,0-0.1,0c-0.3,0-0.7-0.1-1-0.1c-0.1,0-0.2,0-0.3,0c-0.2,0-0.5-0.1-0.7-0.1c-0.1,0-0.2,0-0.3-0.1
				c-0.3,0-0.5-0.1-0.8-0.2c-0.1,0-0.1,0-0.2,0c-0.3-0.1-0.6-0.1-1-0.2c-0.1,0-0.2,0-0.3-0.1c-0.2-0.1-0.5-0.1-0.7-0.2
				c-0.1,0-0.1,0-0.2,0v0c-1.5-0.4-2.9-0.9-4.3-1.6c-4.1-1.8-7.8-4.5-10.9-7.8c-3.1-3.3-5.4-7.2-6.9-11.5
				c-2.9-8.7-1.7-18.2,3.3-25.9c2.5-3.8,5.7-7,9.5-9.4c3.8-2.4,8.2-3.9,12.7-4.4c3.2-0.4,6.4-0.2,9.6,0.5c0.5-0.7,0.9-1.5,1.4-2.2
				c-5.9-1.5-12.1-1.2-17.9,0.7c-11.4,3.9-19.9,13.6-22.2,25.4c-0.7,3.9-0.7,7.8,0,11.7c0.7,3.9,2.2,7.6,4.2,11
				c5,8.3,13.1,14.2,22.6,16.3c0.1,0,0.1,0,0.2,0c0.4,0.1,0.7,0.1,1.1,0.2c0.1,0,0.2,0,0.3,0.1c0.3,0.1,0.6,0.1,0.9,0.1
				c0.1,0,0.3,0,0.4,0.1c0.3,0,0.6,0.1,0.9,0.1c0.1,0,0.2,0,0.3,0c0.4,0,0.8,0.1,1.1,0.1c0,0,0.1,0,0.1,0c0.4,0,0.9,0.1,1.3,0.1
				c0,0,0.1,0,0.1,0c0.4,0,0.8,0,1.2,0c0.1,0,0.1,0,0.2,0c0.8,0,1.7-0.1,2.6-0.1c0.1,0,0.1,0,0.2,0c0.8-0.1,1.7-0.2,2.5-0.3
				c0.1,0,0.1,0,0.2,0c0.4-0.1,0.8-0.2,1.3-0.2C109.6,92.3,109.1,91.5,108.6,90.8L108.6,90.8z M107.9,37.7c0.8,0.3,1.6,0.6,2.3,1
				c0.4-0.9,0.8-1.7,1.3-2.6c-0.7-0.3-1.4-0.6-2.2-0.9c0,0-0.1,0-0.1,0C108.8,35.9,108.4,36.8,107.9,37.7L107.9,37.7z M111.2,49
				c0.8,0.9,1.5,1.9,2,2.9c0-0.1,0-0.3,0.1-0.4c0.4-1.9,0.9-3.7,1.5-5.6c-0.6-0.7-1.3-1.3-2-1.9C112.1,45.7,111.6,47.4,111.2,49z
				 M114.5,72.9c-0.1,0.1-0.2,0.2-0.3,0.2c-0.6,0.4-1.2,0.8-1.9,1.2l0.2,0.5c0.1,0.2,0.2,0.5,0.3,0.7l0.5,1.4
				c0.1,0.2,0.1,0.3,0.2,0.5c0.6-0.3,1.2-0.7,1.8-1.1c0.1-0.1,0.3-0.2,0.4-0.3C115.3,75.1,114.9,74,114.5,72.9L114.5,72.9z
				 M115.4,81.4c0.4,0.7,0.8,1.4,1.2,2.1c0.7-0.4,1.5-0.8,2.2-1.3c-0.4-0.7-0.8-1.4-1.2-2.1C116.9,80.5,116.2,81,115.4,81.4
				L115.4,81.4z M115.1,89c-0.9,0.4-1.8,0.7-2.8,1h0c-0.1,0-0.2,0-0.2,0.1c0.5,0.7,1,1.4,1.5,2.1c0.1,0,0.1,0,0.2-0.1
				c0.5-0.1,0.9-0.3,1.3-0.5c0.1,0,0.1,0,0.2-0.1c0.4-0.1,0.8-0.3,1.1-0.4c0.1,0,0.1,0,0.2-0.1c-0.3-0.4-0.6-0.7-0.8-1.1h0
				C115.5,89.6,115.3,89.3,115.1,89L115.1,89z M113.2,96.7L113.2,96.7L113.2,96.7L113.2,96.7c-0.9,0.2-1.8,0.4-2.7,0.6
				c-0.1,0-0.2,0-0.3,0c-0.4,0.1-0.7,0.1-1.1,0.2c-0.1,0-0.3,0-0.4,0.1c-0.3,0-0.6,0.1-0.9,0.1c-0.2,0-0.3,0-0.5,0.1
				c-0.3,0-0.6,0.1-0.9,0.1c-0.2,0-0.3,0-0.5,0c-0.3,0-0.6,0-0.8,0.1c-0.2,0-0.4,0-0.5,0c-0.3,0-0.5,0-0.8,0c-0.2,0-0.4,0-0.6,0
				c-0.1,0-0.2,0-0.3,0c-0.3,0-0.6,0-1,0c-0.3,0-0.6,0-0.9,0c-0.1,0-0.2,0-0.3,0c-0.2,0-0.4,0-0.6,0c-0.1,0-0.2,0-0.3,0
				c-0.2,0-0.4,0-0.6-0.1c-0.1,0-0.2,0-0.3,0c-0.2,0-0.4,0-0.6-0.1c-0.1,0-0.2,0-0.3,0c-0.3,0-0.6-0.1-0.9-0.1c0,0,0,0,0,0
				c-0.3,0-0.6-0.1-0.9-0.2c-0.1,0-0.2,0-0.3-0.1c-0.2,0-0.4-0.1-0.6-0.1c-0.1,0-0.2,0-0.3-0.1c-0.2,0-0.4-0.1-0.6-0.1
				c-0.1,0-0.1,0-0.2,0v0c-1.7-0.4-3.4-0.9-5.1-1.5c-8.4-3.2-15.4-9-20-16.7c-2.3-3.8-3.9-8-4.7-12.4c-0.8-4.4-0.8-8.9,0-13.3
				c2.6-13.4,12.2-24.4,25.1-28.8c4.2-1.4,8.7-2,13.1-1.9c3,0.1,6,0.6,8.9,1.5c0.6-0.7,1.1-1.4,1.7-2c-0.6-0.2-1.2-0.4-1.8-0.6
				c-7.7-2.1-15.9-1.9-23.4,0.8c-7.5,2.7-14.1,7.6-18.9,14c-1.2,1.6-2.3,3.3-3.2,5c-0.2,0.4-0.5,0.9-0.7,1.3
				c-0.2,0.5-0.4,0.9-0.6,1.3l-0.6,1.4l-0.5,1.4c-1.3,3.7-2.1,7.7-2.2,11.6c-0.1,4,0.3,7.9,1.4,11.8c0.5,1.9,1.2,3.8,2,5.6
				c0.8,1.8,1.8,3.6,2.8,5.2c4.3,6.7,10.5,12.1,17.7,15.6c0.9,0.4,1.8,0.8,2.7,1.2c0.9,0.3,1.9,0.7,2.8,1s1.9,0.5,2.9,0.8
				c0.2,0.1,0.5,0.1,0.7,0.2c0.3,0.1,0.5,0.1,0.8,0.2l0.7,0.1l0.7,0.1c2,0.3,4,0.5,5.9,0.5h1.5c0.5,0,1,0,1.5-0.1c1,0,2-0.2,3-0.3
				c2.3-0.3,4.5-0.8,6.7-1.4C114.4,98.1,113.8,97.4,113.2,96.7z M112.9,29.2c-0.3,0.4-0.5,0.7-0.8,1.1c-0.2,0.3-0.4,0.6-0.6,1
				c0.8,0.3,1.5,0.6,2.3,1c0.5-0.7,0.9-1.4,1.4-2C114.5,29.9,113.7,29.5,112.9,29.2L112.9,29.2z M114.1,40.6
				c-0.1,0.1-0.1,0.2-0.2,0.4c0.7,0.5,1.4,1.1,2,1.7l0.2-0.5c0.2-0.5,0.5-1,0.7-1.5c0.1-0.3,0.3-0.5,0.4-0.8c-0.6-0.6-1.3-1.1-2-1.6
				C114.9,39,114.5,39.8,114.1,40.6L114.1,40.6z M116.8,58.3c-0.1,2.5,0.1,4.9,0.5,7.3c0.7-1.3,1.3-2.7,1.6-4.2
				c0.4-1.9,0.6-3.8,0.3-5.7c-0.2-1.7-0.7-3.4-1.4-5c-0.1,0.6-0.3,1.1-0.4,1.7C117.1,54.4,116.9,56.3,116.8,58.3L116.8,58.3z
				 M118.9,68.3c-0.3,0.4-0.5,0.7-0.8,1.1c0.3,1.2,0.7,2.5,1.1,3.7c0.1-0.2,0.3-0.3,0.4-0.5c0.5-0.6,1-1.2,1.4-1.8
				c-0.5-1.4-0.8-2.8-1.1-4.3C119.6,67.2,119.3,67.8,118.9,68.3L118.9,68.3z M119,87.1c0.5,0.7,1,1.3,1.5,2c0.7-0.4,1.5-0.9,2.2-1.3
				c-0.5-0.6-1-1.3-1.5-2C120.5,86.3,119.8,86.7,119,87.1L119,87.1z M123.5,92.4l0.1,0.1l0.5,0.5l1.1,1l0.1,0.1
				c0.7-0.4,1.4-0.9,2.2-1.4c-0.6-0.6-1.2-1.1-1.8-1.7C125,91.5,124.2,91.9,123.5,92.4L123.5,92.4C123.5,92.4,123.5,92.4,123.5,92.4
				z M120.4,103.7c-0.6-0.5-1.2-1.1-1.9-1.6c-3.1,1.1-6.4,1.9-9.7,2.3c-1.1,0.1-2.2,0.3-3.3,0.3c-0.5,0-1.1,0.1-1.6,0.1h-1.6
				c-2.2,0-4.4-0.2-6.6-0.6l-0.8-0.1l-0.8-0.2c-0.5-0.1-1.1-0.2-1.6-0.3c-1.1-0.3-2.1-0.5-3.2-0.9c-1-0.3-2.1-0.7-3.1-1.1
				c-1-0.4-2-0.8-3-1.3c-8-3.8-14.8-9.7-19.5-17.1c-1.2-1.8-2.2-3.8-3.1-5.8c-3.7-8.1-4.7-17.1-3.1-25.9c0.4-2.2,1-4.3,1.7-6.4
				l0.6-1.5l0.6-1.5c0.2-0.5,0.5-1,0.7-1.5c0.2-0.5,0.5-1,0.8-1.5c1-1.9,2.2-3.8,3.6-5.5c5.3-7.1,12.6-12.5,20.9-15.5
				c8.4-3,17.5-3.3,26-0.9c1.3,0.4,2.6,0.8,3.9,1.3c0.2-0.2,0.5-0.4,0.7-0.6c0.4-0.4,0.9-0.8,1.3-1.2c-1.6-0.7-3.2-1.2-4.9-1.7
				c-0.5-0.2-1-0.3-1.4-0.4s-1-0.3-1.5-0.4c-1-0.2-2-0.4-2.9-0.5c-2-0.3-4-0.5-6-0.5h-2.2l-0.7,0.1l-1.5,0.1l-1.5,0.2l-0.7,0.1
				c-0.2,0-0.5,0.1-0.7,0.1L92.6,14c-0.5,0.1-1,0.2-1.5,0.3c-0.5,0.1-1,0.2-1.5,0.3L88.3,15c-0.5,0.1-1,0.3-1.4,0.4
				c-1,0.3-1.9,0.7-2.8,1c-0.5,0.2-0.9,0.4-1.4,0.6c-0.5,0.2-0.9,0.4-1.4,0.6c-0.9,0.4-1.8,0.9-2.7,1.4c-1.8,1-3.4,2-5.1,3.2
				c-0.8,0.6-1.6,1.2-2.4,1.8c-0.4,0.3-0.8,0.6-1.1,1l-1.1,1c-1.5,1.4-2.8,2.8-4.1,4.4c-1.3,1.5-2.5,3.2-3.5,4.9l-0.8,1.3
				c-0.3,0.4-0.5,0.9-0.7,1.3c-0.5,0.9-0.9,1.8-1.4,2.7c-1.7,3.6-2.9,7.5-3.6,11.4c-0.1,1-0.3,2-0.4,3c0,0.5-0.1,1-0.1,1.5l-0.1,1.5
				c-0.2,4,0.2,8,1.1,11.9c0.1,0.2,0.1,0.5,0.2,0.7l0.2,0.7l0.4,1.4l0.5,1.4l0.2,0.7c0.1,0.2,0.2,0.5,0.3,0.7l0.5,1.4
				c0.2,0.5,0.4,0.9,0.6,1.4c0.4,0.9,0.9,1.8,1.3,2.7c1.9,3.5,4.2,6.8,6.9,9.8l1,1.1l0.5,0.5l0.5,0.5l1.1,1l1.1,1
				c0.7,0.7,1.5,1.3,2.3,1.9c0.4,0.3,0.8,0.6,1.2,0.9c0.4,0.3,0.8,0.6,1.2,0.9c0.8,0.6,1.7,1.1,2.5,1.6c0.4,0.3,0.9,0.5,1.3,0.8
				l1.3,0.7c0.4,0.2,0.9,0.5,1.3,0.7l1.4,0.6l1.4,0.6l0.7,0.3l0.7,0.3c2.7,1,5.6,1.8,8.5,2.3c0.1,0,0.3,0,0.4,0.1
				c0.4,0.1,0.8,0.1,1.3,0.2c0,0,0,0,0.1,0c0.4,0.1,0.9,0.1,1.3,0.2c0.1,0,0.3,0,0.4,0c0.3,0,0.7,0.1,1,0.1c0.1,0,0.3,0,0.4,0
				c0.4,0,0.9,0.1,1.3,0.1c0,0,0,0,0.1,0c0.4,0,0.9,0,1.3,0c0.1,0,0.3,0,0.4,0c0.4,0,0.8,0,1.2,0c0,0,0.1,0,0.1,0c0.4,0,0.9,0,1.3,0
				c0.1,0,0.2,0,0.2,0c0.4,0,0.9,0,1.3-0.1c0.1,0,0.2,0,0.2,0c0.4,0,0.9-0.1,1.3-0.1c0.1,0,0.1,0,0.2,0c0.5-0.1,0.9-0.1,1.4-0.2
				c3.7-0.5,7.4-1.5,11-2.9L120.4,103.7z M117.3,23.8c-0.6,0.6-1.1,1.3-1.7,1.9c0.8,0.4,1.5,0.7,2.3,1.1c0.5-0.6,1.1-1.3,1.7-1.9
				C118.9,24.5,118.1,24.1,117.3,23.8z M118.9,32.5c-0.5,0.7-1,1.3-1.4,2c0.7,0.5,1.4,1,2,1.5c0.4-0.7,0.9-1.4,1.4-2
				C120.3,33.5,119.6,33,118.9,32.5L118.9,32.5z M120.5,43.2c-0.1,0.2-0.2,0.5-0.3,0.7l-0.6,1.4l-0.4,1.2c0.5,0.8,1,1.6,1.4,2.5
				c0.1,0.2,0.2,0.4,0.3,0.6c0.4-1.3,0.9-2.7,1.4-4C121.7,44.8,121.1,44,120.5,43.2L120.5,43.2z M121.1,77.4
				c0.4,0.8,0.8,1.5,1.2,2.2c0.6-0.6,1.3-1.1,1.8-1.8c-0.4-0.8-0.8-1.5-1.2-2.3c0,0,0,0,0,0C122.3,76.2,121.7,76.8,121.1,77.4z
				 M124.1,65.3c1.7-4.4,1.9-9.3,0.6-13.8c-0.2,0.8-0.4,1.6-0.6,2.4C123.5,57.7,123.5,61.5,124.1,65.3L124.1,65.3z M124.7,83.2
				c0.5,0.7,1,1.3,1.6,2c0.6-0.5,1.2-1.1,1.8-1.6c-0.5-0.6-1.1-1.3-1.5-2C125.9,82.1,125.3,82.7,124.7,83.2L124.7,83.2z M135.1,74.3
				c0.2-0.4,0.4-0.7,0.6-1.1c0.2-0.5,0.5-1,0.7-1.5c-0.6-1-1.1-2-1.5-3.1c-0.2,0.5-0.3,0.9-0.5,1.4c-0.2,0.6-0.5,1.1-0.8,1.7
				C134,72.6,134.5,73.5,135.1,74.3z M135.7,49.2c0.5-1,1.1-2,1.8-2.9c-0.3-1-0.7-2-1.1-2.9c-0.6,0.7-1.2,1.5-1.7,2.3
				c0,0,0,0.1-0.1,0.1C135,46.9,135.4,48,135.7,49.2L135.7,49.2z M137.5,36.2c0.7-0.5,1.3-1,2-1.5c-0.4-0.7-0.9-1.4-1.4-2
				c-0.7,0.5-1.4,1-2,1.5C136.6,34.8,137,35.5,137.5,36.2L137.5,36.2z M139.2,26.9c0.7-0.4,1.5-0.8,2.3-1.1c-0.5-0.6-1-1.2-1.5-1.8
				c0,0-0.1-0.1-0.1-0.1c-0.8,0.4-1.5,0.8-2.3,1.2C138.1,25.6,138.6,26.2,139.2,26.9z M133.6,106.7c0.2-0.1,0.5-0.3,0.7-0.4
				c0.2-0.1,0.3-0.2,0.5-0.3c-0.2-0.1-0.3-0.2-0.5-0.3l-1.4-0.8c-0.5-0.3-0.9-0.5-1.4-0.8c-0.2-0.1-0.4-0.2-0.6-0.3l0,0l0,0l0,0
				c-1,0.6-2.1,1.2-3.2,1.8c1.3,0.8,2.5,1.6,3.8,2.3c0.1,0,0.2-0.1,0.2-0.1c0.4-0.2,0.7-0.4,1.1-0.6
				C133.1,107,133.4,106.8,133.6,106.7z M120.3,10.3l-0.7-0.3c-0.2-0.1-0.5-0.2-0.7-0.3l-1.4-0.5c-0.5-0.2-1-0.3-1.4-0.5
				c-0.5-0.2-1-0.3-1.4-0.4c-1.9-0.5-3.9-0.9-5.9-1.2c-4-0.6-8-0.8-12-0.4c-4,0.3-8,1.1-11.8,2.3c-3.8,1.2-7.5,2.9-11,4.9
				c-3.5,2.1-6.7,4.5-9.6,7.3c-2.9,2.8-5.5,5.8-7.8,9.2c-2.3,3.3-4.2,6.9-5.7,10.6c-3,7.5-4.2,15.6-3.5,23.7
				c0.7,8.1,3.3,15.9,7.5,22.9c2.1,3.5,4.6,6.7,7.4,9.7c0.2,0.2,0.3,0.4,0.5,0.6l0.5,0.5l1.1,1.1c0.7,0.7,1.5,1.4,2.3,2l1.2,1
				c0.4,0.3,0.8,0.7,1.2,1l1.2,0.9l0.6,0.5l0.6,0.4c3.4,2.3,7,4.3,10.8,5.8c0.5,0.2,0.9,0.4,1.4,0.6l1.4,0.5c1,0.3,1.9,0.6,2.9,0.9
				c1,0.2,2,0.5,3,0.8l1.5,0.3c0.5,0.1,1,0.2,1.5,0.3c0.5,0.1,0.9,0.2,1.4,0.2c0.1,0,0.3,0,0.4,0.1c0.3,0,0.7,0.1,1,0.1
				c0.2,0,0.3,0,0.5,0.1c0.3,0,0.7,0.1,1,0.1c0.1,0,0.2,0,0.4,0c0.5,0,0.9,0.1,1.4,0.1c0.1,0,0.2,0,0.3,0c0.4,0,0.7,0,1.1,0.1
				c0.2,0,0.3,0,0.5,0c0.3,0,0.7,0,1,0c0.1,0,0.3,0,0.4,0c0.4,0,0.9,0,1.3,0c0.1,0,0.2,0,0.2,0c0.4,0,0.9,0,1.3,0c0,0,0.1,0,0.1,0
				c0.5,0,0.9-0.1,1.4-0.1c0.1,0,0.2,0,0.3,0c0.4,0,0.9-0.1,1.3-0.1c0.1,0,0.1,0,0.2,0c0.4,0,0.8-0.1,1.3-0.1c0.1,0,0.1,0,0.2,0
				c0.4-0.1,0.9-0.1,1.3-0.2c0.1,0,0.2,0,0.3,0c0.5-0.1,0.9-0.1,1.3-0.2c0,0,0.1,0,0.1,0c0.4-0.1,0.9-0.2,1.3-0.3c0.1,0,0.2,0,0.2,0
				c0.4-0.1,0.9-0.2,1.3-0.3c0.1,0,0.2,0,0.3-0.1c0.4-0.1,0.9-0.2,1.3-0.3c0.7-0.2,1.3-0.4,2-0.6c0.2-0.1,0.4-0.1,0.6-0.2
				c0.1,0,0.1,0,0.2-0.1c2.5-0.8,5-1.8,7.3-2.9c-1-0.6-2-1.2-3-1.9l-0.7-0.4l-0.2-0.1l0,0l0,0l0,0c-0.6,0.3-1.2,0.5-1.8,0.8
				c-4.1,1.6-8.3,2.7-12.6,3.4c-0.5,0.1-1,0.1-1.5,0.2c-0.1,0-0.1,0-0.2,0c-0.5,0.1-1,0.1-1.4,0.1c-0.1,0-0.2,0-0.3,0
				c-0.5,0-0.9,0.1-1.4,0.1c-0.1,0-0.2,0-0.2,0c-0.5,0-1,0-1.5,0c0,0-0.1,0-0.1,0c-0.2,0-0.5,0-0.7,0c-0.2,0-0.4,0-0.6,0
				c-0.1,0-0.2,0-0.3,0c-0.5,0-1,0-1.4,0c-0.1,0-0.2,0-0.3,0c-0.4,0-0.8,0-1.2-0.1c-0.1,0-0.2,0-0.4,0c-0.5,0-1-0.1-1.4-0.1
				c-0.1,0-0.1,0-0.2,0c-0.4,0-0.8-0.1-1.3-0.2c-0.1,0-0.2,0-0.4-0.1c-0.5-0.1-0.9-0.1-1.4-0.2l0,0c-3.2-0.6-6.4-1.4-9.5-2.5
				l-0.8-0.3l-0.8-0.3l-1.5-0.6l-1.5-0.7c-0.5-0.2-1-0.5-1.5-0.7l-1.4-0.8c-0.5-0.3-0.9-0.5-1.4-0.8c-0.9-0.5-1.9-1.1-2.8-1.7
				c-0.5-0.3-0.9-0.6-1.3-0.9s-0.9-0.6-1.3-1c-0.8-0.7-1.7-1.3-2.5-2.1l-1.2-1.1l-1.2-1.1l-0.6-0.6l-0.6-0.6l-1.1-1.2
				c-2.9-3.3-5.4-6.8-7.5-10.7c-0.5-1-1-1.9-1.4-3c-0.2-0.5-0.5-1-0.7-1.5L53,77.1c-0.1-0.3-0.2-0.5-0.3-0.8l-0.3-0.8L51.9,74
				l-0.4-1.6l-0.2-0.8c-0.1-0.3-0.1-0.5-0.2-0.8c-1-4.3-1.4-8.7-1.2-13l0.1-1.6c0-0.5,0.1-1.1,0.2-1.6c0.1-1.1,0.3-2.2,0.4-3.3
				c0.8-4.3,2.1-8.5,3.9-12.5c0.5-1,0.9-2,1.5-2.9c0.3-0.5,0.5-1,0.8-1.4l0.8-1.4c1.2-1.8,2.5-3.6,3.9-5.3c1.4-1.7,2.9-3.3,4.5-4.8
				l1.2-1.1c0.4-0.4,0.8-0.7,1.2-1.1c0.8-0.7,1.7-1.4,2.6-2c1.8-1.3,3.6-2.5,5.5-3.5c0.9-0.5,1.9-1,2.9-1.5c0.5-0.3,1-0.4,1.5-0.7
				c0.5-0.2,1-0.4,1.5-0.6c1-0.4,2-0.8,3.1-1.1c0.5-0.2,1-0.3,1.6-0.5l1.6-0.4c0.5-0.1,1.1-0.3,1.6-0.4c0.5-0.1,1.1-0.2,1.6-0.3
				l1.6-0.3c0.3,0,0.5-0.1,0.8-0.1l0.8-0.1l1.6-0.2L98.4,9l0.8,0h2.5c2.2,0,4.4,0.2,6.6,0.5c1.1,0.1,2.2,0.4,3.2,0.6
				c0.5,0.1,1.1,0.3,1.6,0.4c0.5,0.1,1.1,0.3,1.6,0.4c2.5,0.7,5,1.7,7.4,2.8c0.7-0.6,1.5-1.1,2.3-1.6
				C123,11.4,121.7,10.8,120.3,10.3z M122.6,18.8c-0.7,0.6-1.3,1.1-2,1.7c0.8,0.4,1.5,0.8,2.3,1.3l0,0c0.4-0.4,0.8-0.7,1.2-1.1
				c0.2-0.2,0.5-0.4,0.7-0.6C124.1,19.7,123.3,19.3,122.6,18.8z M123.3,27.3c-0.6,0.6-1.1,1.2-1.7,1.8c0.7,0.5,1.3,1,2,1.5
				c0.5-0.6,1.1-1.2,1.7-1.8C124.7,28.3,124,27.8,123.3,27.3z M124.1,37c-0.5,0.7-1,1.4-1.4,2.1c0.6,0.7,1.2,1.3,1.7,2.1
				c0.4-0.8,0.9-1.5,1.4-2.2C125.3,38.2,124.7,37.6,124.1,37z M127.1,74.2c0.6-0.8,1.1-1.7,1.6-2.5c-0.3-0.8-0.7-1.6-0.9-2.4
				c-0.1-0.3-0.2-0.5-0.3-0.8c-0.2,0.5-0.5,1-0.7,1.5c-0.3,0.5-0.6,1-0.9,1.5C126.3,72.4,126.7,73.3,127.1,74.2z M130.9,16
				c-0.7-0.5-1.5-1-2.3-1.5c-0.8,0.5-1.5,1-2.3,1.5c0.8,0.5,1.5,0.9,2.3,1.4C129.4,16.9,130.1,16.5,130.9,16
				C130.9,16,130.9,16,130.9,16z M132.5,41.2c0.6-0.7,1.1-1.4,1.7-2.1c-0.4-0.7-0.9-1.4-1.4-2.1c-0.6,0.6-1.2,1.3-1.7,1.9
				C131.7,39.7,132.1,40.5,132.5,41.2L132.5,41.2z M133.4,30.7c0.6-0.5,1.3-1,2-1.5c-0.5-0.6-1.1-1.2-1.7-1.8c-0.7,0.5-1.3,1-2,1.5
				C132.3,29.5,132.9,30.1,133.4,30.7L133.4,30.7z M134.3,21.9c0.7-0.4,1.5-0.9,2.3-1.3c-0.7-0.6-1.3-1.2-2-1.8
				c-0.1,0-0.2,0.1-0.3,0.1c-0.7,0.4-1.3,0.8-2,1.2C133,20.7,133.7,21.3,134.3,21.9L134.3,21.9z M208.8,56.8V56c0-0.3,0-0.5,0-0.7
				l-0.1-1.5c0-0.5-0.1-1-0.1-1.5l-0.2-1.5l-0.2-1.5c-0.1-0.5-0.2-1-0.3-1.5c-0.2-1-0.4-2-0.7-2.9l-0.4-1.5l-0.5-1.4
				c-0.3-1-0.7-1.9-1-2.8c-0.2-0.5-0.4-0.9-0.6-1.4l-0.6-1.4l-0.7-1.3c-0.2-0.4-0.4-0.9-0.7-1.3c-2-3.5-4.3-6.8-7-9.8
				c-2.7-3-5.7-5.6-9-8c-3.3-2.3-6.9-4.2-10.6-5.7l-0.7-0.3c-0.2-0.1-0.5-0.2-0.7-0.3l-1.4-0.5c-0.5-0.2-1-0.3-1.4-0.5
				s-1-0.3-1.4-0.4c-1.9-0.5-3.9-0.9-5.9-1.2c-4-0.6-8-0.8-12-0.4c-4,0.3-8,1.1-11.8,2.3c-2.7,0.8-5.2,1.9-7.7,3.1
				c0.2,0.1,0.3,0.2,0.5,0.3c0.6,0.4,1.2,0.9,1.8,1.3l0,0c0.5-0.3,1-0.4,1.5-0.7c0.5-0.2,1-0.4,1.5-0.6c1-0.4,2-0.8,3.1-1.1
				c0.5-0.2,1-0.3,1.6-0.5l1.6-0.4c0.5-0.1,1.1-0.3,1.6-0.4c0.5-0.1,1.1-0.2,1.6-0.3l1.6-0.3c0.3,0,0.5-0.1,0.8-0.1l0.8-0.1l1.6-0.2
				l1.6-0.1l0.8,0h2.5c2.2,0,4.4,0.2,6.5,0.6c1.1,0.1,2.2,0.4,3.2,0.6c0.5,0.1,1.1,0.3,1.6,0.4c0.5,0.1,1.1,0.3,1.6,0.4
				c8.4,2.5,16.1,7.1,22.2,13.4c6.2,6.3,10.5,14.2,12.5,22.8c2,8.6,1.5,17.6-1.5,26l-0.6,1.5l-0.6,1.5c-0.1,0.3-0.2,0.5-0.3,0.8
				l-0.4,0.7c-0.2,0.5-0.5,1-0.7,1.5c-1,1.9-2.2,3.8-3.4,5.6c-1.3,1.8-2.7,3.5-4.2,5.1c-0.4,0.4-0.8,0.8-1.1,1.2
				c-0.4,0.4-0.8,0.8-1.2,1.1l-1.2,1.1l-1.3,1c-1.7,1.4-3.5,2.6-5.4,3.8l-0.7,0.4c-0.2,0.1-0.5,0.3-0.7,0.4l-1.4,0.8
				c-1,0.5-2,1-3,1.4c-2.7,1.2-5.5,2.1-8.4,2.7v0c-0.3,0.1-0.6,0.1-0.9,0.2c0,0-0.1,0-0.1,0c-0.5,0.1-1,0.2-1.4,0.3
				c-0.1,0-0.2,0-0.3,0.1c-0.5,0.1-1,0.2-1.5,0.2c-1.1,0.1-2.2,0.3-3.3,0.3c-0.6,0-1.1,0.1-1.6,0.1h-1.6c-2.2,0-4.4-0.2-6.6-0.6
				l-0.8-0.1l-0.8-0.2c-0.5-0.1-1.1-0.2-1.6-0.3c-1.1-0.3-2.1-0.5-3.2-0.9c-0.9-0.3-1.8-0.6-2.8-0.9c-0.4,0.3-0.8,0.7-1.2,1
				c-0.3,0.3-0.6,0.5-0.9,0.8l0.2,0.1l0.7,0.3l0.7,0.3c0.4,0.2,0.8,0.3,1.3,0.4c0.1,0,0.2,0.1,0.4,0.1c0.3,0.1,0.7,0.2,1,0.3
				c0.1,0,0.2,0.1,0.3,0.1c0.4,0.1,0.9,0.2,1.3,0.4c0.1,0,0.2,0,0.3,0.1c0.3,0.1,0.7,0.2,1,0.3c0.1,0,0.3,0.1,0.4,0.1
				c0.4,0.1,0.8,0.2,1.2,0.3c0,0,0.1,0,0.1,0c0.4,0.1,0.9,0.2,1.3,0.2c0.1,0,0.2,0,0.4,0.1c0.3,0.1,0.7,0.1,1,0.2
				c0.1,0,0.2,0,0.3,0.1c0.4,0.1,0.9,0.1,1.3,0.2c0.1,0,0.2,0,0.2,0c0.4,0,0.7,0.1,1.1,0.1c0.1,0,0.3,0,0.4,0c0.4,0,0.8,0.1,1.1,0.1
				c0.1,0,0.1,0,0.2,0c0.4,0,0.9,0,1.3,0c0.1,0,0.2,0,0.4,0c0.4,0,0.8,0,1.2,0c0,0,0.1,0,0.1,0c0.4,0,0.9,0,1.3,0c0.1,0,0.1,0,0.2,0
				c0.4,0,0.9,0,1.3-0.1c0.1,0,0.2,0,0.2,0c0.4,0,0.9-0.1,1.3-0.1c0.1,0,0.1,0,0.2,0c0.5-0.1,0.9-0.1,1.4-0.2
				c0.5-0.1,1.1-0.2,1.6-0.3c0.2,0,0.3-0.1,0.5-0.1c0.4-0.1,0.7-0.1,1.1-0.2c2.9-0.6,5.7-1.4,8.4-2.5c3.7-1.5,7.2-3.5,10.5-5.8
				c3.3-2.3,6.3-5.1,8.9-8.1c2.6-3,4.9-6.4,6.8-9.9c1.8-3.6,3.3-7.3,4.2-11.2C208.5,64.8,208.9,60.8,208.8,56.8z"/>
			<path class="st2" d="M157.9,58.3c0-1-1.3-0.5-1.7,0c-0.9,1.3,0.4,2.9,1.7,3.3c2.3,0.7,4.5-1.1,5-3.3c0.7-3.2-1.9-6.1-5-6.6
				c-4.1-0.6-7.8,2.6-8.3,6.6c-0.6,5,3.4,9.3,8.3,9.9c6,0.6,11.1-4.1,11.7-9.9c0.6-6.8-4.9-12.6-11.7-13.1
				c-7.8-0.6-14.4,5.6-15,13.1c-0.6,8.6,6.4,15.9,15,16.4c9.6,0.6,17.8-7.1,18.3-16.4"/>
			<path id="Shape_2_copy" class="st2" d="M102.2,58.7c0-1-1.4-0.5-1.7,0c-0.9,1.3,0.4,2.9,1.7,3.3c2.3,0.7,4.6-1.1,5-3.3
				c0.7-3.2-1.9-6.1-5-6.6c-4.2-0.7-7.9,2.6-8.4,6.6c-0.7,5,3.4,9.4,8.4,9.9c6,0.6,11.2-4.1,11.8-9.9c0.6-6.8-5-12.7-11.8-13.3
				c-7.8-0.6-14.6,5.7-15.1,13.3c-0.6,8.6,6.5,16,15.1,16.6c9.7,0.6,17.9-7.2,18.5-16.6"/>
			<path class="st1" d="M130.2,126.4h0.3c2,0,3.7,1.7,3.7,3.7v120.2c0,2-1.7,3.7-3.7,3.7l0,0h-0.3c-2,0-3.7-1.7-3.7-3.7l0,0V130.1
				C126.5,128,128.1,126.4,130.2,126.4z"/>
		</g>
	</g>
</g>
</svg>
