<svg width="179" height="195" viewBox="0 0 179 195" fill="none" xmlns="http://www.w3.org/2000/svg">
<g opacity="0.39">
<path opacity="0.39" d="M50.0044 8.30293C55.8753 6.82983 61.813 5.42369 67.7173 4.08451C73.6216 2.74532 79.5259 1.27222 85.4635 0H85.6637C95.671 2.7788 105.511 5.35673 115.385 8.30293C105.378 5.99284 95.3707 3.281 85.3635 0.770029C79.4592 2.14269 73.5215 3.34796 67.5838 4.62018C61.6462 5.8924 55.9754 7.16463 50.0044 8.30293Z" fill="white"/>
</g>
<path opacity="0.2" d="M58.3086 32.1399C62.7301 32.1399 66.3144 30.6709 66.3144 28.8589C66.3144 27.0468 62.7301 25.5779 58.3086 25.5779C53.8871 25.5779 50.3027 27.0468 50.3027 28.8589C50.3027 30.6709 53.8871 32.1399 58.3086 32.1399Z" fill="#2B1B2E"/>
<path opacity="0.6" d="M100.272 19.9881C104.694 19.9881 108.278 18.5192 108.278 16.7071C108.278 14.8951 104.694 13.4261 100.272 13.4261C95.8509 13.4261 92.2666 14.8951 92.2666 16.7071C92.2666 18.5192 95.8509 19.9881 100.272 19.9881Z" fill="#2B1B2E"/>
<path opacity="0.4" d="M82.5938 33.2417C84.9888 33.2417 86.9303 32.3574 86.9303 31.2664C86.9303 30.1755 84.9888 29.2911 82.5938 29.2911C80.1988 29.2911 78.2573 30.1755 78.2573 31.2664C78.2573 32.3574 80.1988 33.2417 82.5938 33.2417Z" fill="#2B1B2E"/>
<path opacity="0.2" d="M70.4161 18.6807C72.8111 18.6807 74.7526 17.7963 74.7526 16.7054C74.7526 15.6145 72.8111 14.7301 70.4161 14.7301C68.0211 14.7301 66.0796 15.6145 66.0796 16.7054C66.0796 17.7963 68.0211 18.6807 70.4161 18.6807Z" fill="#2B1B2E"/>
<path opacity="0.2" d="M22.7833 34.1154C25.1782 34.1154 27.1198 33.231 27.1198 32.1401C27.1198 31.0492 25.1782 30.1648 22.7833 30.1648C20.3883 30.1648 18.4468 31.0492 18.4468 32.1401C18.4468 33.231 20.3883 34.1154 22.7833 34.1154Z" fill="#2B1B2E"/>
<path opacity="0.4" d="M38.3258 38.0337C40.7207 38.0337 42.6622 37.1494 42.6622 36.0584C42.6622 34.9675 40.7207 34.0831 38.3258 34.0831C35.9308 34.0831 33.9893 34.9675 33.9893 36.0584C33.9893 37.1494 35.9308 38.0337 38.3258 38.0337Z" fill="#2B1B2E"/>
<path d="M93.3686 154.072H73.354C72.4206 154.072 71.5086 153.791 70.7356 153.266C69.9626 152.741 69.3642 151.995 69.0175 151.126L64.1807 139.307H103.776L97.1046 151.762C96.7669 152.465 96.2355 153.056 95.5734 153.465C94.9113 153.875 94.1462 154.085 93.3686 154.072Z" fill="#550537" fill-opacity="0.7"/>
<path d="M120.02 33.5466L120.153 37.3633L47.3669 37.1289L47 33.8145L120.02 33.5466Z" fill="#E2E2E2"/>
<path d="M120.289 37.161V37.3953H111.916C104.244 50.7872 103.71 60.128 104.744 66.2213C105.814 70.667 106.152 75.2586 105.745 79.814C105.149 84.184 103.901 88.4391 102.042 92.4358C99.9071 98.0268 98.7062 106.832 103.009 120.559H95.7707C91.3008 106.665 92.6018 97.826 94.7366 92.2014C96.5942 88.1924 97.8423 83.9266 98.4393 79.5461C98.8469 74.9908 98.5088 70.3992 97.4386 65.9534C96.4045 59.8601 97.4386 49.9167 98.873 37.0605L120.289 37.161Z" fill="#515251"/>
<path d="M114.084 65.9869C115.154 70.4326 115.492 75.0242 115.084 79.5796C114.487 83.96 113.239 88.2259 111.382 92.2348C109.247 97.8594 108.046 106.698 112.416 120.592H103.976C99.5396 106.865 100.874 98.0603 102.875 92.4357C104.738 88.4286 105.986 84.162 106.578 79.7804C106.986 75.2251 106.648 70.6335 105.577 66.1877C104.543 60.0944 105.077 50.8206 112.749 37.3618H120.021C113.65 50.5528 113.049 59.9271 114.084 65.9869Z" fill="white"/>
<path d="M113.113 65.986C114.184 70.4317 114.522 75.0233 114.114 79.5787C113.517 83.9591 112.269 88.225 110.411 92.2339C108.277 97.8585 107.076 106.697 111.446 120.591H102.873C98.4694 106.865 99.7703 98.0594 101.905 92.4683C103.768 88.4611 105.016 84.1945 105.608 79.813C106.015 75.2577 105.677 70.6661 104.607 66.2203C103.573 60.127 104.107 50.8532 111.779 37.3944H120.018C112.613 50.7193 112.079 59.9262 113.113 65.986Z" fill="#550537"/>
<path d="M97.1049 65.9536C98.1733 70.3996 98.5113 74.9909 98.1056 79.5463C97.5135 83.9278 96.2652 88.1944 94.4029 92.2015C92.268 97.8261 91.0671 106.698 95.437 120.559H56.1751C59.244 105.995 57.943 96.9222 56.1751 91.2306C54.5683 86.9257 53.5582 82.4196 53.1729 77.8388C52.8792 74.0889 52.9798 70.3184 53.4731 66.5897C54.1402 60.6303 53.4731 51.3565 47.3687 37.0272H104.277C96.6045 50.5864 96.2042 59.8603 97.1049 65.9536Z" fill="#2D2D2D"/>
<path d="M97.4355 65.9883C98.5057 70.4341 98.8437 75.0257 98.4362 79.581C97.8392 83.9615 96.5911 88.2273 94.7335 92.2363C92.5986 97.8608 91.3978 106.699 95.7676 120.593H56.6391C59.708 106.03 58.4071 96.9569 56.6391 91.2319C55.0242 86.9294 54.0138 82.4222 53.6369 77.8401C53.3432 74.0902 53.4438 70.3197 53.9371 66.5909C54.6043 60.6316 53.9371 51.2573 47.8994 36.995H104.607C96.9351 50.6212 96.4014 59.895 97.4355 65.9883Z" fill="#550537"/>
<path d="M111.081 132.376H56.0073L56.6078 118.951H111.081V132.376Z" fill="#E2E2E2"/>
<path d="M105.175 129.096H62.144V142.555H105.175V129.096Z" fill="#451533"/>
<path d="M108.445 121.496H56.0073V134.954H108.445V121.496Z" fill="#969696"/>
<path d="M111.815 119.488L112.95 120.994H114.851L116.686 125.213L118.754 132.879L147.708 183.333H146.707L116.819 131.975L115.485 124.543L113.183 121.798L112.116 121.496L111.182 119.822L111.815 119.488Z" fill="white"/>
<path d="M118.051 132.88L147.706 183.735H144.504L108.411 134.956L108.311 132.712L118.051 132.88Z" fill="#451533"/>
<path d="M56.3061 120.561L19.5127 183.737H22.715L58.5745 135.828V120.595L56.3061 120.561Z" fill="#451533"/>
<path d="M90.7644 121.496V134.854L87.2952 187.651H84.0929L77.3213 133.983L77.2212 121.596L90.7644 121.496Z" fill="#451533"/>
<path d="M114.648 22.3955H61.9431C61.8933 21.4662 61.6511 20.5575 61.2318 19.7274C60.8125 18.8973 60.2254 18.1641 59.508 17.5744C58.7584 16.8579 57.9303 16.229 57.0396 15.6996C57.6066 15.1639 58.1737 14.6952 58.7074 14.2599C65.2999 8.49694 73.5997 5.0731 82.3246 4.5174C90.6818 4.2595 98.8901 6.77805 105.675 11.682C110.278 15.03 113.981 18.7797 114.348 21.1567C114.422 21.5756 114.522 21.9894 114.648 22.3955Z" fill="#550537"/>
<path d="M55.8398 30.2284C56.8071 32.2707 56.4402 32.9068 57.3409 33.9112C51.103 33.9112 47.0334 33.9112 47 33.9112C47.923 31.324 49.1196 28.8435 50.5693 26.5122H53.0711C54.1825 27.5975 55.1169 28.8516 55.8398 30.2284Z" fill="#969696"/>
<path d="M120.019 33.5456C120.019 33.5456 84.6599 33.8134 63.1108 33.8804C62.5041 31.422 62.0474 28.9287 61.7432 26.4144H116.216C117.344 28.8641 118.614 31.2452 120.019 33.5456Z" fill="#550537"/>
<path d="M116.218 26.4138H59.0761L56.8745 22.3962H114.65C115.061 23.7765 115.586 25.1203 116.218 26.4138Z" fill="#DCF1FC"/>
<path d="M83.8916 124.107L85.3593 187.551L87.2941 187.651L90.7633 134.854V121.496L83.8916 124.107Z" fill="#451533"/>
<path d="M77.2212 121.596L83.8927 124.107L90.7644 121.496C88.396 119.755 86.5947 116.24 83.6592 116.307C80.7237 116.374 79.5229 119.822 77.2212 121.596Z" fill="#451533"/>
<path d="M90.7644 121.496L83.8927 124.174L77.2212 121.596L90.7644 121.496Z" fill="#171717"/>
<path d="M83.7261 120.76C84.4261 120.76 84.9937 120.191 84.9937 119.488C84.9937 118.786 84.4261 118.216 83.7261 118.216C83.026 118.216 82.4585 118.786 82.4585 119.488C82.4585 120.191 83.026 120.76 83.7261 120.76Z" fill="#515251"/>
<path d="M83.7266 120.66C84.3714 120.66 84.8941 120.135 84.8941 119.488C84.8941 118.841 84.3714 118.316 83.7266 118.316C83.0818 118.316 82.5591 118.841 82.5591 119.488C82.5591 120.135 83.0818 120.66 83.7266 120.66Z" fill="#6D6D6D"/>
<path d="M83.7265 120.325C84.1871 120.325 84.5605 119.95 84.5605 119.488C84.5605 119.026 84.1871 118.651 83.7265 118.651C83.2659 118.651 82.8926 119.026 82.8926 119.488C82.8926 119.95 83.2659 120.325 83.7265 120.325Z" fill="#848484"/>
<path d="M83.7275 120.122C84.0776 120.122 84.3613 119.838 84.3613 119.486C84.3613 119.135 84.0776 118.85 83.7275 118.85C83.3775 118.85 83.0938 119.135 83.0938 119.486C83.0938 119.838 83.3775 120.122 83.7275 120.122Z" fill="#969696"/>
<path d="M114.817 121.496C116.16 125.218 117.274 129.02 118.153 132.879H108.412V121.463C108.304 119.735 108.304 118.002 108.412 116.273C108.412 115.704 109.179 114.332 109.746 114.399L111.081 118.416C111.081 118.416 111.681 120.726 112.315 121.128C112.949 121.53 114.383 121.095 114.817 121.496Z" fill="#451533"/>
<path d="M53.8699 119.587C52.5322 123.311 51.4183 127.112 50.5342 130.97H58.5066L59.6074 119.085C59.8646 117.751 59.9542 116.39 59.8743 115.034C59.8743 114.498 58.3065 113.962 57.7394 114.063L57.3391 116.708C57.3391 116.708 56.9055 118.951 56.2717 119.386C55.6379 119.821 54.2702 119.219 53.8699 119.587Z" fill="#451533"/>
<path d="M64.8133 118.952H59.6762C59.843 118.082 60.0432 116.91 60.2433 115.604C60.7181 112.467 60.9967 109.302 61.0773 106.13C61.0773 101.978 61.0773 102.213 61.0773 95.7176C61.0773 91.8675 61.0773 91.8005 61.0773 90.16C60.2396 85.5425 59.6605 80.8816 59.3427 76.199C59.0758 68.3648 60.1432 61.0663 60.3434 55.743C60.5509 49.432 59.6127 43.1358 57.5747 37.1619H63.8126C64.5286 43.3177 64.8628 49.5122 64.8133 55.7095C64.8133 60.7315 64.4464 67.4943 64.3797 75.7973C64.3797 77.9065 64.3797 79.4131 64.3797 81.5558C64.3797 85.339 64.3797 86.6112 64.3797 89.6578C64.3797 91.6331 64.3797 93.0058 64.3797 95.4498C64.1462 102.447 63.9127 102.146 63.8793 105.929C63.8707 109.038 64.0377 112.146 64.3797 115.236C64.4797 116.81 64.6799 118.048 64.8133 118.952Z" fill="#EAEAEA"/>
<path d="M47.3688 36.4909H47.302L42.9989 36.3905L40.1635 36.3235L38.5957 36.29L40.1635 34.4821H40.764L43.5993 34.4486L47.0018 34.4152" fill="#969696"/>
<path d="M47.3682 36.4922C44.4492 36.7093 41.521 36.7764 38.5951 36.6931H37.6611L38.2949 36.0235L39.8627 34.2491H40.0295C42.257 34.2381 44.4836 34.3387 46.701 34.5504C44.4858 34.8065 42.2592 34.9517 40.0295 34.9856H40.3297L38.7619 36.7935L38.4617 36.124C41.4349 36.0923 44.4077 36.2153 47.3682 36.4922Z" fill="#231F20"/>
<path d="M127.023 34.1812L126.923 34.4825L124.922 34.5159L124.455 35.9556L123.354 35.989L120.151 36.056L120.018 34.1812H127.023Z" fill="#2D2D2D"/>
<path d="M15.142 39.1053L17.944 39.1723L16.8766 42.3194H14.1079L15.142 39.1053Z" fill="#E2E2E2"/>
<path d="M16.811 33.8788L19.7465 33.9123L18.8124 36.6241L15.9771 36.5237L16.811 33.8788Z" fill="#E2E2E2"/>
<path d="M21.1144 29.8976L20.6807 31.1363L17.7119 31.1028L18.0788 29.9311L21.1144 29.8976Z" fill="#E2E2E2"/>
<path d="M21.1798 39.2023L24.1486 39.2692L23.1145 42.3159H20.2124L21.1798 39.2023Z" fill="#E2E2E2"/>
<path d="M27.3525 29.8284L26.8855 31.201L25.9515 33.9798L24.9841 36.7921L21.9819 36.6917L22.8492 33.9464L23.7165 31.1676L24.1168 29.8618L27.3525 29.8284Z" fill="#E2E2E2"/>
<path d="M27.3842 39.3027L30.0195 39.3362L29.0187 42.3159H26.4502L27.3842 39.3027Z" fill="#E2E2E2"/>
<path d="M29.052 34.0132L31.8207 34.0467L30.82 36.9929L28.1514 36.8924L29.052 34.0132Z" fill="#E2E2E2"/>
<path d="M33.29 29.7631L32.7897 31.2696L29.9209 31.2362L30.3545 29.7965L33.29 29.7631Z" fill="#E2E2E2"/>
<path d="M33.2581 39.4049L35.8933 39.4384L34.926 42.3176H32.3574L33.2581 39.4049Z" fill="#E2E2E2"/>
<path d="M34.9233 34.0831L37.7253 34.1166L36.6912 37.1633L33.9893 37.0628L34.9233 34.0831Z" fill="#E2E2E2"/>
<path d="M39.2286 29.7263L38.6949 31.3333L35.8262 31.2999L36.2932 29.7598L39.2286 29.7263Z" fill="#E2E2E2"/>
<path d="M39.1603 39.5072L42.0624 39.5407L41.2284 42.3195H38.293L39.1603 39.5072Z" fill="#E2E2E2"/>
<path d="M40.864 34.1478L43.6994 34.1813L43.5993 34.4491L42.9989 36.391L42.7321 37.3284H42.6987L39.8633 37.2614L40.1635 36.324L38.5957 36.2905L40.1635 34.4826H40.764L40.864 34.1478Z" fill="#E2E2E2"/>
<path d="M45.0329 29.6608L44.4992 31.4017L41.7305 31.3682L42.2642 29.6942L45.0329 29.6608Z" fill="#E2E2E2"/>
<path d="M128.526 31.7023L127.793 34.4811H126.925L124.924 34.5146L125.024 34.1798L125.791 31.6688L128.526 31.7023Z" fill="#969696"/>
<path d="M127.026 37.4288L126.425 39.7723L123.29 39.8058L124.023 37.3618L127.026 37.4288Z" fill="#969696"/>
<path d="M136.868 31.8381L136.167 34.416L131.998 34.4495L132.665 31.7711L136.868 31.8381Z" fill="#969696"/>
<path d="M135.366 37.5284L134.765 39.7045L130.662 39.738L131.229 37.4949L135.366 37.5284Z" fill="#969696"/>
<path d="M144.336 31.9041L143.669 34.3816H140.3L140.934 31.8706L144.336 31.9041Z" fill="#969696"/>
<path d="M142.836 37.6303L142.302 39.6725H139L139.5 37.5968L142.836 37.6303Z" fill="#969696"/>
<path d="M149.874 37.7328L149.374 39.6077L146.539 39.6412L147.006 37.6993L149.874 37.7328Z" fill="#969696"/>
<path d="M151.411 32.0065L150.777 34.3166L147.842 34.3501L148.442 31.973L151.411 32.0065Z" fill="#969696"/>
<path d="M131.227 37.4962L130.66 39.7393L126.424 39.7728L127.024 37.4292L131.227 37.4962Z" fill="#ABAAAA"/>
<path d="M132.662 31.7724L131.995 34.4508L127.792 34.4842L128.525 31.7054L132.662 31.7724Z" fill="#ABAAAA"/>
<path d="M139.5 37.5941L139 39.6698L134.763 39.7033L135.364 37.5271L139.5 37.5941Z" fill="#550537"/>
<path d="M140.937 31.8719L140.303 34.3828L136.167 34.4163L136.867 31.8384L140.937 31.8719Z" fill="#ABAAAA"/>
<path d="M147.007 37.6965L146.54 39.6383L142.303 39.6718L142.837 37.6295L147.007 37.6965Z" fill="#ABAAAA"/>
<path d="M148.443 31.9726L147.843 34.3496L143.673 34.3831L144.34 31.9056L148.443 31.9726Z" fill="#ABAAAA"/>
<path d="M129.294 28.8578L128.526 31.7036L125.791 31.6701L126.658 28.8578L129.26 28.8243V28.8578H129.294Z" fill="#ABAAAA"/>
<path d="M133.399 28.7921L132.665 31.7718L128.529 31.7048L129.296 28.8591L133.366 28.8256V28.7921H133.399Z" fill="#550537"/>
<path d="M137.666 28.7923L136.865 31.8389L132.662 31.7719L133.396 28.7923L137.632 28.7588V28.7923H137.666Z" fill="#ABAAAA"/>
<path d="M141.736 28.724L140.936 31.8711L136.866 31.8376L137.667 28.791L141.703 28.7575V28.724H141.736Z" fill="#969696"/>
<path d="M145.172 28.7249L144.338 31.9054L140.936 31.872L141.736 28.7249L145.139 28.6914V28.7249H145.172Z" fill="#ABAAAA"/>
<path d="M149.274 28.6567L148.44 31.9712L144.337 31.9043L145.171 28.7237L149.24 28.6902V28.6567H149.274Z" fill="#969696"/>
<path d="M152.311 28.6243L151.411 32.0057L148.442 31.9722L149.276 28.6577L152.311 28.6243Z" fill="#ABAAAA"/>
<path d="M127.792 34.4851L127.025 37.4313L124.022 37.3643L124.456 35.9582L124.923 34.5186L126.925 34.4851H127.792Z" fill="#ABAAAA"/>
<path d="M131.995 34.4478L131.228 37.4944L127.025 37.4274L127.792 34.4812L131.995 34.4478Z" fill="#550537"/>
<path d="M136.165 34.4152L135.364 37.5288L131.228 37.4953L131.995 34.4486L136.165 34.4152Z" fill="#ABAAAA"/>
<path d="M140.303 34.3829L139.502 37.597L135.366 37.53L136.166 34.4164L140.303 34.3829Z" fill="#969696"/>
<path d="M143.672 34.3829L142.838 37.6305L139.502 37.597L140.303 34.3829H143.672Z" fill="#ABAAAA"/>
<path d="M150.777 34.313L149.877 37.7279L147.008 37.6944L147.842 34.3465L150.777 34.313Z" fill="#ABAAAA"/>
<path d="M147.842 34.3507L147.008 37.6987L142.838 37.6317L143.672 34.3842L147.842 34.3507Z" fill="#550537"/>
<path d="M126.423 39.7721L125.756 42.2831H122.52L123.287 39.8056L126.423 39.7721Z" fill="#ABAAAA"/>
<path d="M130.662 39.7371L130.029 42.2815H125.759L126.426 39.7705L130.662 39.7371Z" fill="#969696"/>
<path d="M134.763 39.7047L134.096 42.2826H130.026L130.66 39.7382L134.763 39.7047Z" fill="#ABAAAA"/>
<path d="M139.001 39.6724L138.334 42.2838H134.098L134.765 39.7058L139.001 39.6724Z" fill="#969696"/>
<path d="M142.302 39.6724L141.601 42.2838H138.332L138.999 39.6724H142.302Z" fill="#ABAAAA"/>
<path d="M146.54 39.639L145.873 42.2839H141.603L142.304 39.6725L146.54 39.639Z" fill="#969696"/>
<path d="M149.373 39.6051L148.639 42.2835H145.871L146.538 39.6386L149.373 39.6051Z" fill="#ABAAAA"/>
<path opacity="0.4" d="M120.285 34.1812L120.886 34.8507L124.755 35.0181L125.022 34.1812H120.285Z" fill="white"/>
<path opacity="0.4" d="M135.565 28.7572L133.697 34.3817H143.037L144.638 28.6567L135.565 28.7572Z" fill="#550537"/>
<path d="M85.5604 40.744L76.7206 57.1489C75.5999 56.312 74.686 55.2274 74.0497 53.9793C73.4135 52.7311 73.0718 51.3527 73.0513 49.9508C73.213 48.4967 73.6736 47.0921 74.4038 45.8257C75.134 44.5593 76.118 43.4587 77.2936 42.5934C78.4692 41.7282 79.8109 41.1171 81.2338 40.7987C82.6567 40.4804 84.1299 40.4617 85.5604 40.744Z" fill="#2AB679"/>
<path d="M93.9676 49.9507C93.8124 52.5856 92.63 55.0534 90.6761 56.8202C88.7222 58.5871 86.1539 59.5109 83.5266 59.3919C82.0626 59.3955 80.612 59.1111 79.2568 58.5549L88.0966 41.4803C89.791 42.1646 91.2493 43.3308 92.2923 44.8356C93.3353 46.3404 93.9176 48.1183 93.9676 49.9507Z" fill="#2AB679"/>
<path d="M83.5262 81.4529C87.5792 81.4529 90.8649 78.485 90.8649 74.8239C90.8649 71.1628 87.5792 68.1949 83.5262 68.1949C79.4731 68.1949 76.1875 71.1628 76.1875 74.8239C76.1875 78.485 79.4731 81.4529 83.5262 81.4529Z" fill="#2AB679"/>
<path d="M90.8654 74.8259C90.7136 76.6669 89.8718 78.3817 88.5099 79.6243C87.1479 80.867 85.3672 81.5451 83.5267 81.5218C81.6151 81.5812 79.7455 80.9517 78.2562 79.7474C77.4976 79.1384 76.8807 78.3704 76.4486 77.4972C76.0165 76.624 75.7795 75.6667 75.7544 74.692C75.7747 73.7117 76.0093 72.7477 76.4416 71.8684C76.8739 70.9891 77.4934 70.2157 78.2562 69.6031C79.7557 68.4211 81.621 67.805 83.5267 67.8622C85.4104 67.8428 87.2281 68.5579 88.597 69.8569C89.9659 71.1558 90.7791 72.9372 90.8654 74.8259ZM90.8654 74.8259C90.8463 73.9103 90.6273 73.0101 90.2239 72.1886C89.8204 71.3672 89.2423 70.6446 88.5304 70.0718C87.1148 68.9327 85.3402 68.339 83.5267 68.3978C82.649 68.3341 81.7677 68.4527 80.9376 68.746C80.1076 69.0393 79.3467 69.5012 78.7024 70.1028C78.0581 70.7044 77.5442 71.4328 77.1929 72.2425C76.8415 73.0522 76.6601 73.926 76.6601 74.8092C76.6601 75.6924 76.8415 76.5661 77.1929 77.3759C77.5442 78.1856 78.0581 78.914 78.7024 79.5156C79.3467 80.1172 80.1076 80.579 80.9376 80.8724C81.7677 81.1657 82.649 81.2842 83.5267 81.2205C85.336 81.2889 87.1102 80.7072 88.5304 79.58C89.2423 79.0072 89.8204 78.2846 90.2239 77.4632C90.6273 76.6418 90.8463 75.7415 90.8654 74.8259Z" fill="#231F20"/>
<path d="M83.5258 96.1513C86.2524 96.1513 88.4627 94.1577 88.4627 91.6985C88.4627 89.2393 86.2524 87.2457 83.5258 87.2457C80.7992 87.2457 78.5889 89.2393 78.5889 91.6985C78.5889 94.1577 80.7992 96.1513 83.5258 96.1513Z" fill="#DCF1FC"/>
<path d="M88.4621 91.7018C88.3181 92.9679 87.715 94.1367 86.7676 94.9851C85.8202 95.8336 84.5948 96.3026 83.3251 96.3026C82.0553 96.3026 80.83 95.8336 79.8826 94.9851C78.9352 94.1367 78.332 92.9679 78.188 91.7018C78.332 90.4356 78.9352 89.2669 79.8826 88.4184C80.83 87.5699 82.0553 87.101 83.3251 87.101C84.5948 87.101 85.8202 87.5699 86.7676 88.4184C87.715 89.2669 88.3181 90.4356 88.4621 91.7018ZM88.4621 91.7018C88.4202 91.0971 88.2585 90.507 87.9863 89.9659C87.7142 89.4248 87.3371 88.9438 86.8773 88.5509C86.4175 88.158 85.8841 87.8611 85.3085 87.6778C84.7329 87.4945 84.1266 87.4284 83.5252 87.4833C82.9395 87.431 82.3494 87.5016 81.7924 87.6907C81.2354 87.8798 80.7237 88.1832 80.2899 88.5815C79.8561 88.9799 79.5097 89.4645 79.2727 90.0046C79.0356 90.5447 78.9132 91.1284 78.9132 91.7185C78.9132 92.3086 79.0356 92.8923 79.2727 93.4324C79.5097 93.9725 79.8561 94.4571 80.2899 94.8555C80.7237 95.2539 81.2354 95.5572 81.7924 95.7463C82.3494 95.9354 82.9395 96.006 83.5252 95.9537C84.1284 96.0039 84.7354 95.9334 85.3112 95.7463C85.887 95.5591 86.42 95.2591 86.8793 94.8635C87.3386 94.4679 87.715 93.9848 87.9867 93.442C88.2584 92.8992 88.42 92.3077 88.4621 91.7018Z" fill="#231F20"/>
<path d="M83.5258 108.708C86.2524 108.708 88.4627 106.714 88.4627 104.255C88.4627 101.796 86.2524 99.8022 83.5258 99.8022C80.7992 99.8022 78.5889 101.796 78.5889 104.255C78.5889 106.714 80.7992 108.708 83.5258 108.708Z" fill="#2AB679"/>
<path d="M88.4626 104.253C88.5706 105.305 88.3555 106.366 87.8463 107.292C87.337 108.218 86.5579 108.966 85.6133 109.435C84.6687 109.905 83.6037 110.073 82.5611 109.918C81.5185 109.763 80.548 109.291 79.7797 108.567C79.0114 107.843 78.482 106.9 78.2624 105.866C78.0428 104.831 78.1435 103.754 78.551 102.778C78.9585 101.803 79.6534 100.975 80.5425 100.407C81.4316 99.839 82.4725 99.5571 83.5257 99.5993C84.7846 99.597 85.9969 100.077 86.9146 100.943C87.8323 101.808 88.386 102.992 88.4626 104.253ZM88.4626 104.253C88.4205 103.647 88.2589 103.056 87.9872 102.513C87.7154 101.97 87.339 101.487 86.8797 101.091C86.4204 100.696 85.8874 100.396 85.3117 100.208C84.7359 100.021 84.1288 99.9509 83.5257 100.001C82.7205 100.129 81.9687 100.485 81.3589 101.028C80.7492 101.571 80.3071 102.278 80.0849 103.065C79.8626 103.853 79.8695 104.687 80.1047 105.47C80.34 106.254 80.7937 106.953 81.4123 107.486C82.031 108.019 82.7886 108.363 83.5958 108.477C84.4029 108.592 85.2258 108.472 85.9673 108.132C86.7087 107.792 87.3377 107.246 87.7799 106.558C88.222 105.871 88.459 105.071 88.4626 104.253Z" fill="#231F20"/>
<path d="M88.0966 41.4778L79.2569 58.5523C78.3536 58.1981 77.5011 57.7253 76.7217 57.1462L85.5615 40.7412C86.4352 40.8733 87.2877 41.121 88.0966 41.4778Z" fill="#DCF1FC"/>
<path d="M93.9687 49.9494C93.8138 52.6017 92.6383 55.0898 90.6903 56.8888C88.7423 58.6878 86.1741 59.6568 83.5278 59.5915C80.8653 59.6344 78.2709 58.7468 76.1891 57.0805C75.1146 56.2383 74.2455 55.1613 73.6477 53.9315C73.0499 52.7016 72.7393 51.3512 72.7393 49.9829C72.7393 48.6145 73.0499 47.2641 73.6477 46.0343C74.2455 44.8044 75.1146 43.7275 76.1891 42.8852C78.2858 41.1718 80.9249 40.2691 83.6278 40.3408L85.5959 40.5751C86.2297 40.5751 86.8635 40.9434 87.4973 41.1108C88.7379 41.5206 89.8758 42.1944 90.8331 43.0861C91.8212 43.9327 92.6137 44.9853 93.1552 46.1706C93.6967 47.3559 93.9743 48.6454 93.9687 49.9494ZM93.9687 49.9494C93.9193 48.6593 93.5962 47.3947 93.021 46.24C92.4457 45.0853 91.6316 44.0671 90.6329 43.2535C89.6708 42.4139 88.5296 41.8068 87.2972 41.4791C86.6827 41.2914 86.0593 41.135 85.4291 41.0103L83.5278 40.8429C81.0067 40.8348 78.5755 41.782 76.7202 43.4952C74.8649 45.2083 73.7221 47.5611 73.5205 50.0833C73.5259 51.3579 73.806 52.6162 74.3415 53.772C74.877 54.9278 75.6552 55.9536 76.6227 56.7792C78.5807 58.4286 81.039 59.3612 83.5945 59.4241C86.1869 59.4815 88.7159 58.6156 90.733 56.9801C91.7613 56.1251 92.5856 55.0498 93.1455 53.8332C93.7055 52.6165 93.9867 51.2894 93.9687 49.9494Z" fill="#231F20"/>
<path d="M63.1123 33.8804H56.1739C55.2732 32.876 55.3733 32.3403 54.4059 30.2981C53.4385 28.2558 53.5052 26.9501 53.0049 26.4144H61.6779C62.004 28.9301 62.483 31.4234 63.1123 33.8804Z" fill="#EAEAEA"/>
<path d="M61.9458 22.3977H51.9385C51.9385 21.9625 52.1053 21.5272 52.172 21.0585C53.4513 19.0067 55.0768 17.1941 56.9755 15.7018C60.011 17.4762 62.1793 20.4894 61.9458 22.3977Z" fill="#F9F9FA"/>
<path d="M53.7723 26.4138H50.4365C50.8298 25.583 51.1534 24.7207 51.4039 23.8359C51.4039 23.3671 51.6708 22.8984 51.7708 22.3962H51.971L53.7723 26.4138Z" fill="#F8EDB6"/>
<path opacity="0.9" d="M59.0756 26.4138H56.3403L54.7725 22.3962H56.874L59.0756 26.4138Z" fill="#FEE86B"/>
<path d="M42.2625 29.6941L40.7614 34.4817L40.161 36.323L38.2929 42.3159H34.9238L39.227 29.7276L42.2625 29.6941Z" fill="#FCC896"/>
<path d="M36.2934 29.7631L32.3572 42.3179H29.0215L33.2913 29.7631H36.2934Z" fill="#C2C1C0"/>
<path d="M30.3538 29.7953L26.451 42.3166H23.1152L27.3517 29.8288L30.3538 29.7953Z" fill="#C2C1C0"/>
<path d="M24.1156 29.861L20.2127 42.3154H16.877L21.1134 29.8944L24.1156 29.861Z" fill="#FCC896"/>
<path d="M44.4993 31.4024L43.6987 34.1812L40.8633 34.1477L41.7306 31.3689L44.4993 31.4024Z" fill="#C2C1C0"/>
<path d="M41.7275 31.3702L40.8602 34.149L37.7246 34.1155L38.692 31.3367L41.7275 31.3702Z" fill="#E2E2E2"/>
<path d="M38.6932 31.3369L37.7259 34.1158L34.9238 34.0823L35.8245 31.3035L38.6932 31.3369Z" fill="#C2C1C0"/>
<path d="M35.8262 31.3047L34.9255 34.0835L31.8232 34.05L32.7906 31.2712L35.8262 31.3047Z" fill="#FCC896"/>
<path d="M32.7898 31.2681L31.8224 34.0469L29.0537 34.0134L29.921 31.2346L32.7898 31.2681Z" fill="#C2C1C0"/>
<path d="M29.9232 31.2348L29.0559 34.0136L25.9536 33.9801L26.8876 31.2013L29.9232 31.2348Z" fill="#E2E2E2"/>
<path d="M23.7166 31.17L22.8493 33.9488L19.7471 33.9153L20.6811 31.1365L23.7166 31.17Z" fill="#E2E2E2"/>
<path d="M20.6815 31.1326L19.7475 33.9114L16.812 33.8779L17.7127 31.0991L20.6815 31.1326Z" fill="#C2C1C0"/>
<path d="M26.8849 31.2024L25.9509 33.9812L22.8486 33.9477L23.7159 31.1689L26.8849 31.2024Z" fill="#FCC896"/>
<path d="M18.8139 36.6235L17.9466 39.168L15.1445 39.101L15.9785 36.5231L18.8139 36.6235Z" fill="#C2C1C0"/>
<path d="M21.9816 36.6922L21.181 39.2032L17.9453 39.1697L18.8126 36.6252L21.9816 36.6922Z" fill="#E2E2E2"/>
<path d="M24.9844 36.7911L24.1505 39.2686L21.1816 39.2016L21.9822 36.6907L24.9844 36.7911Z" fill="#FCC896"/>
<path d="M28.1548 36.8933L27.3875 39.3038L24.1519 39.2703L24.9858 36.7928L28.1548 36.8933Z" fill="#E2E2E2"/>
<path d="M30.8216 36.9931L30.021 39.3367L27.3857 39.3032L28.153 36.8927L30.8216 36.9931Z" fill="#C2C1C0"/>
<path d="M33.9901 37.0619L33.2562 39.4055L30.0205 39.3386L30.8211 36.995L33.9901 37.0619Z" fill="#FCC896"/>
<path d="M36.6927 37.161L35.9254 39.4376H35.8921L33.2568 39.4041L33.9907 37.0605L36.6927 37.161Z" fill="#C2C1C0"/>
<path d="M39.861 37.2623L39.1605 39.5054L35.9248 39.4385L36.692 37.1619L39.861 37.2623Z" fill="#E2E2E2"/>
<path d="M42.698 37.3267L42.0642 39.5364L39.1621 39.5029L39.8626 37.2598L42.698 37.3267Z" fill="#C2C1C0"/>
<path d="M56.3419 26.4138H53.7733L52.1055 22.3962H54.7741L56.3419 26.4138Z" fill="#FEE86B"/>
<path opacity="0.5" d="M92.7651 134.955H108.41V124.108L92.7651 134.955Z" fill="#F3EBA5"/>
<path opacity="0.2" d="M59.6763 118.952C60.677 112.022 57.8083 113.93 57.8083 113.93C59.1455 106.377 58.7 98.6137 56.5073 91.2644C54.9006 86.9594 53.8904 82.4534 53.5051 77.8726C53.3492 75.6433 53.3492 73.4059 53.5051 71.1766L60.3434 85.7402C60.6296 87.1453 60.8412 88.5646 60.9772 89.9922C60.9772 91.6327 60.9772 91.6996 60.9772 95.5498C60.9772 102.078 61.2441 101.81 60.9772 105.962C60.8716 109.134 60.582 112.298 60.1099 115.437C59.9098 116.809 59.7096 117.981 59.5428 118.785H64.8467C64.6799 117.881 64.4798 116.642 64.2796 115.135C63.9377 112.045 63.7706 108.937 63.7793 105.828C63.7793 102.112 64.0461 102.48 64.2796 95.3824L70.9512 118.148V118.785H59.6096L59.6763 118.952Z" fill="white"/>
<path opacity="0.2" d="M64.8462 118.952H59.6758C59.8426 118.081 60.0427 116.91 60.2429 115.604C60.715 112.465 61.0046 109.302 61.1102 106.129C61.1102 101.978 60.91 102.246 61.1102 95.7171C61.1102 91.867 61.1102 91.8 61.1102 90.1595C60.936 88.6733 60.6799 87.198 60.3429 85.7402L63.145 91.5992L64.2791 95.4158C64.0456 102.38 63.8121 102.112 63.7788 105.861C63.7702 108.971 63.9372 112.078 64.2791 115.169C64.4793 116.809 64.6794 118.048 64.8462 118.952Z" fill="white"/>
<path d="M64.2799 81.6239C64.2799 85.4071 64.2799 86.6793 64.2799 89.7259C64.2799 91.7012 64.2799 93.0739 64.2799 95.5179L63.1457 91.7012L60.3437 85.7419C59.697 82.5662 59.3286 79.3399 59.2429 76.0997C58.976 68.2655 60.0435 60.967 60.2436 55.6437C60.45 49.3574 59.5234 43.0853 57.5083 37.1295C57.5083 37.1295 57.5083 37.1295 57.5083 37.1295H63.7462C64.4621 43.2741 64.7963 49.4575 64.7469 55.6437C64.7469 60.6657 64.38 67.4285 64.3132 75.7315C64.2799 77.9746 64.2465 79.4812 64.2799 81.6239Z" fill="#EAEAEA"/>
<path opacity="0.06" d="M177.863 183.266C176.162 185.208 174.527 187.083 172.526 188.891C154.312 189.694 128.594 190.196 100.073 190.196C87.7973 190.196 76.022 190.196 65.1808 189.929C27.0864 189.326 0 187.752 0 185.945C0 183.601 44.7993 181.693 100.073 181.693C107.745 181.693 115.173 181.693 122.356 181.693C144.605 182.027 164.019 182.53 177.863 183.266Z" fill="black"/>
<path opacity="0.2" d="M178.394 182.832L177.861 183.434C176.159 185.376 174.525 187.251 172.523 189.059C170.522 190.867 168.754 192.708 166.752 194.416H147.639C120.091 194.433 92.5629 192.936 65.1785 189.929C52.3024 188.423 44.5635 186.883 44.5635 185.945C44.5635 183.937 77.9211 182.229 122.353 181.794C129.514 181.794 136.942 181.794 144.636 181.794C158.213 181.693 169.321 182.062 178.394 182.832Z" fill="black"/>
<path opacity="0.3" d="M114.384 21.1593C113.634 20.8085 112.929 20.3703 112.282 19.8536C107.551 16.747 102.466 14.2182 97.1378 12.3207C86.7636 8.63792 78.4576 5.62476 71.9195 9.44143C67.3828 12.0863 66.0819 16.5726 60.2443 17.4765H59.4104C58.6607 16.76 57.8326 16.1311 56.9419 15.6017C57.509 15.066 58.0761 14.5973 58.6098 14.162C65.2022 8.39904 73.502 4.9752 82.227 4.41949C90.5842 4.1616 98.7924 6.68015 105.577 11.5841C110.314 15.133 114.017 18.7822 114.384 21.1593Z" fill="#F9F9FA"/>
<path opacity="0.5" d="M90.333 6.52764C91.4879 8.48584 92.0121 10.7542 91.8341 13.0227C98.6724 14.5293 95.37 5.38934 90.333 6.52764Z" fill="#F9F9FA"/>
<path d="M47 33.8122C47.4571 32.0397 48.2009 30.3545 49.2016 28.8237C49.6353 28.0202 50.0689 27.2167 50.4358 26.3797L51.3365 23.8353C51.5766 22.9655 51.766 22.0823 51.9036 21.1904C52.2137 20.284 52.7405 19.4678 53.438 18.8133C54.6754 17.4657 55.9897 16.1913 57.3742 14.9967C62.7998 10.0288 69.4223 6.56698 76.5882 4.95279C83.8453 3.48467 91.3762 4.27906 98.1706 7.2294C101.545 8.60657 104.702 10.4673 107.544 12.7535C108.979 13.9035 110.338 15.1448 111.614 16.4698C112.998 17.7286 114.023 19.3349 114.583 21.1234C114.8 22.2673 115.124 23.3882 115.55 24.4714C115.909 25.556 116.332 26.6181 116.817 27.6519C117.785 29.6942 118.852 31.703 120.153 33.6448C118.919 31.7364 117.785 29.7611 116.817 27.7524C116.3 26.7315 115.843 25.6806 115.45 24.6053C114.97 23.533 114.612 22.41 114.382 21.2573C113.801 19.572 112.803 18.0627 111.48 16.8715C110.196 15.5871 108.837 14.3798 107.411 13.2557C103.184 9.85383 98.272 7.41265 93.0141 6.10059C87.7561 4.78852 82.2772 4.63679 76.9551 5.65586C69.7923 7.1531 63.1518 10.5259 57.7078 15.4319C56.3156 16.6062 55.0007 17.8699 53.7716 19.2151C53.1228 19.7916 52.6198 20.5145 52.3039 21.3243C52.1598 22.2318 51.948 23.1271 51.6701 24.0027L50.6693 26.5806C50.269 27.3841 49.802 28.1876 49.335 28.9911C48.3037 30.4618 47.5153 32.0897 47 33.8122Z" fill="#231F20"/>
<path d="M45.0315 29.6608C45.0315 30.2299 45.0315 30.7991 45.0315 31.3682L44.5311 32.9418L43.5971 36.1223L42.6297 39.2694L42.1627 40.8429L41.2954 42.316V40.6086L41.7624 39.035L42.8299 35.8545L43.7639 32.7074L44.2642 31.1339C44.4886 30.627 44.7449 30.135 45.0315 29.6608Z" fill="#231F20"/>
<path d="M18.0781 29.9292C22.548 29.5275 27.0513 29.4605 31.4212 29.3935C35.791 29.3266 40.3944 29.3935 44.7642 29.6614C40.2609 30.0631 35.791 30.1301 31.4212 30.197C27.0513 30.264 22.5814 30.2305 18.0781 29.9292Z" fill="#231F20"/>
<path d="M14.1079 42.2158C14.1079 41.6467 14.1079 41.111 14.1079 40.5418L14.6083 39.0018L15.609 35.8882L16.5764 32.8081L17.0767 31.2345L17.9774 29.8284V31.5023L17.477 33.0424L16.4763 36.156L15.5089 39.2361L15.0086 40.8097C14.7083 41.3788 14.4415 41.8475 14.1079 42.2158Z" fill="#231F20"/>
<path d="M41.2277 42.2154C36.691 42.5502 32.1877 42.5836 27.6511 42.6171C23.1145 42.6506 18.6112 42.6171 14.1079 42.2154C18.6112 41.8806 23.1478 41.8471 27.6511 41.8136C32.1544 41.7801 36.691 41.981 41.2277 42.2154Z" fill="#231F20"/>
<path d="M152.312 28.6243C152.312 29.2269 152.312 29.8295 152.312 30.4322L151.845 32.1396L150.944 35.4876L150.01 38.8355L149.576 40.543L148.709 42.15V40.3421L149.143 38.6347L150.077 35.2867L150.977 31.9387L151.444 30.2313C151.745 29.6956 151.978 29.1599 152.312 28.6243Z" fill="#231F20"/>
<path d="M126.656 28.8263C130.926 28.458 135.196 28.391 139.466 28.2906C143.735 28.1902 148.038 28.2906 152.308 28.5919C148.038 28.9937 143.769 29.0271 139.499 29.1276C135.229 29.228 130.926 29.1611 126.656 28.8263Z" fill="#231F20"/>
<path d="M122.52 42.2162C122.943 39.953 123.5 37.7171 124.188 35.5203C124.857 33.2344 125.682 30.9971 126.656 28.8243C125.811 33.437 124.423 37.9325 122.52 42.2162Z" fill="#231F20"/>
<path d="M148.639 42.2159C144.269 42.5507 139.933 42.5842 135.563 42.6177C131.193 42.6512 126.857 42.6177 122.52 42.2159C126.857 41.8811 131.226 41.8477 135.563 41.8142C139.899 41.7807 144.269 41.9481 148.639 42.2159Z" fill="#231F20"/>
</svg>
