<?xml version="1.0" encoding="utf-8"?>
<!-- Generator: Adobe Illustrator 24.3.0, SVG Export Plug-In . SVG Version: 6.00 Build 0)  -->
<svg version="1.1" id="Ebene_1" xmlns="http://www.w3.org/2000/svg" xmlns:xlink="http://www.w3.org/1999/xlink" x="0px" y="0px"
	 viewBox="0 0 256 256" style="enable-background:new 0 0 256 256;" xml:space="preserve">
<style type="text/css">
	.st0{fill:#1C4823;}
	.st1{fill:url(#SVGID_1_);}
</style>
<rect x="-0.01" y="-0.03" class="st0" width="256" height="256"/>
<g>
	<linearGradient id="SVGID_1_" gradientUnits="userSpaceOnUse" x1="43.0494" y1="127.1644" x2="211.5028" y2="127.1644">
		<stop  offset="0" style="stop-color:#B7832A"/>
		<stop  offset="0.0632" style="stop-color:#C08B24"/>
		<stop  offset="0.1644" style="stop-color:#D7A015"/>
		<stop  offset="0.2405" style="stop-color:#EDB406"/>
		<stop  offset="0.6784" style="stop-color:#FADD30"/>
		<stop  offset="0.8432" style="stop-color:#EAC862"/>
		<stop  offset="1" style="stop-color:#B7832A"/>
	</linearGradient>
	<path class="st1" d="M211.45,100c-0.36-10.27-10.27-18.47-20.37-22.95c-11.29-5.01-23.35-7-35.57-8.11
		c-7.17-0.65-14.33-1.34-21.54-1.23c-0.31,0-1.69,0.01-3.45,0.01c-1.51-14.33,1.83-24.24,9.96-29.9
		c-1.39-9.45-5.77-14.24-13.14-14.38c-5.36,12.69-6.92,28.1-4.8,44.22c-1.02,0-1.75,0.01-1.97,0.01c-7.21-0.1-14.38,0.63-21.54,1.28
		c-12.22,1.11-24.28,3.1-35.57,8.11C53.38,81.52,43.46,89.73,43.1,100c-0.14,2.29-0.03,2.94,0.49,6.19c0.46,2.9,1.56,5.66,2.66,8.44
		c3.42,8.61,8.93,15.76,15.02,22.54c0.84,0.94,1.6,1.66,1.59,3.16c-0.06,9.4,0.58,18.71,2.48,27.98
		c5.49,26.86,19.98,46.68,45.11,58.13c5.46,2.49,10.92,4.43,16.81,4.47v0c0,0,0.01,0,0.01,0c0,0,0.01,0,0.01,0v0
		c5.89-0.04,11.36-1.98,16.81-4.47c25.13-11.45,39.62-31.27,45.11-58.13c1.9-9.26,2.54-18.58,2.48-27.98
		c-0.01-1.5,0.75-2.23,1.59-3.16c6.09-6.79,11.6-13.94,15.02-22.54c1.1-2.77,2.2-5.54,2.66-8.44
		C211.48,102.94,211.58,102.29,211.45,100z M126.29,133.73l0.99-2.36l0.99,2.36l14.39,33.88h-15.37h-0.02H111.9L126.29,133.73z
		 M84.91,193.03c-5.63-8.8-9.39-18.98-11.36-30.93c-1.66-10-1.95-20.7-0.92-33.66c0.02-0.25,0.05-0.39,0.07-0.44
		c0.02,0,0.17-0.11,0.48-0.27c13.84-6.98,29.06-10.88,46.33-11.86L84.91,193.03z M140.66,217.89c-4.32,1.84-8.79,3.73-13.39,3.79
		c-4.6-0.05-9.07-1.94-13.39-3.79c-6.82-2.91-12.95-6.92-18.32-11.95l10.42-24.45h21.28h0.02h21.28l10.42,24.45
		C153.62,210.97,147.49,214.98,140.66,217.89z M181.01,162.1c-1.98,11.94-5.73,22.12-11.36,30.93l-34.61-77.16
		c17.27,0.98,32.5,4.88,46.33,11.86c0.32,0.16,0.46,0.27,0.48,0.27c0.02,0.06,0.05,0.19,0.07,0.44
		C182.95,141.4,182.66,152.1,181.01,162.1z"/>
</g>
</svg>
