<svg width="256" height="256" viewBox="0 0 256 256" fill="none" xmlns="http://www.w3.org/2000/svg">
<g clip-path="url(#clip0_10_23)">
<path d="M255.99 -0.0300293H-0.0100098V255.97H255.99V-0.0300293Z" fill="#1C4823"/>
<path d="M211.45 99.9999C211.09 89.7299 201.18 81.5299 191.08 77.0499C179.79 72.0399 167.73 70.0499 155.51 68.9399C148.34 68.2899 141.18 67.5999 133.97 67.7099C133.66 67.7099 132.28 67.7199 130.52 67.7199C129.01 53.3899 132.35 43.4799 140.48 37.8199C139.09 28.3699 134.71 23.5799 127.34 23.4399C121.98 36.1299 120.42 51.5399 122.54 67.6599C121.52 67.6599 120.79 67.6699 120.57 67.6699C113.36 67.5699 106.19 68.2999 99.03 68.9499C86.81 70.0599 74.75 72.0499 63.46 77.0599C53.38 81.5199 43.46 89.7299 43.1 99.9999C42.96 102.29 43.07 102.94 43.59 106.19C44.05 109.09 45.15 111.85 46.25 114.63C49.67 123.24 55.18 130.39 61.27 137.17C62.11 138.11 62.87 138.83 62.86 140.33C62.8 149.73 63.44 159.04 65.34 168.31C70.83 195.17 85.32 214.99 110.45 226.44C115.91 228.93 121.37 230.87 127.26 230.91H127.27H127.28C133.17 230.87 138.64 228.93 144.09 226.44C169.22 214.99 183.71 195.17 189.2 168.31C191.1 159.05 191.74 149.73 191.68 140.33C191.67 138.83 192.43 138.1 193.27 137.17C199.36 130.38 204.87 123.23 208.29 114.63C209.39 111.86 210.49 109.09 210.95 106.19C211.48 102.94 211.58 102.29 211.45 99.9999ZM126.29 133.73L127.28 131.37L128.27 133.73L142.66 167.61H127.29H127.27H111.9L126.29 133.73ZM84.91 193.03C79.28 184.23 75.52 174.05 73.55 162.1C71.89 152.1 71.6 141.4 72.63 128.44C72.65 128.19 72.68 128.05 72.7 128C72.72 128 72.87 127.89 73.18 127.73C87.02 120.75 102.24 116.85 119.51 115.87L84.91 193.03ZM140.66 217.89C136.34 219.73 131.87 221.62 127.27 221.68C122.67 221.63 118.2 219.74 113.88 217.89C107.06 214.98 100.93 210.97 95.56 205.94L105.98 181.49H127.26H127.28H148.56L158.98 205.94C153.62 210.97 147.49 214.98 140.66 217.89ZM181.01 162.1C179.03 174.04 175.28 184.22 169.65 193.03L135.04 115.87C152.31 116.85 167.54 120.75 181.37 127.73C181.69 127.89 181.83 128 181.85 128C181.87 128.06 181.9 128.19 181.92 128.44C182.95 141.4 182.66 152.1 181.01 162.1Z" fill="url(#paint0_linear_10_23)"/>
</g>
<defs>
<linearGradient id="paint0_linear_10_23" x1="43.0494" y1="127.164" x2="211.503" y2="127.164" gradientUnits="userSpaceOnUse">
<stop stop-color="#B7832A"/>
<stop offset="0.0632" stop-color="#C08B24"/>
<stop offset="0.1644" stop-color="#D7A015"/>
<stop offset="0.2405" stop-color="#EDB406"/>
<stop offset="0.6784" stop-color="#FADD30"/>
<stop offset="0.8432" stop-color="#EAC862"/>
<stop offset="1" stop-color="#B7832A"/>
</linearGradient>
<clipPath id="clip0_10_23">
<rect width="256" height="256" fill="white"/>
</clipPath>
</defs>
</svg>
