<?xml version="1.0" encoding="utf-8"?>
<!-- Generator: Adobe Illustrator 24.3.0, SVG Export Plug-In . SVG Version: 6.00 Build 0)  -->
<svg version="1.1" id="Ebene_1" xmlns="http://www.w3.org/2000/svg" xmlns:xlink="http://www.w3.org/1999/xlink" x="0px" y="0px"
	 viewBox="0 0 187.09 187.55" style="enable-background:new 0 0 187.09 187.55;" xml:space="preserve">
<style type="text/css">
	.st0{fill:#1B4822;}
	.st1{fill:url(#SVGID_1_);}
</style>
<g>
	<circle class="st0" cx="93.18" cy="93.48" r="89.23"/>
	<linearGradient id="SVGID_1_" gradientUnits="userSpaceOnUse" x1="33.2728" y1="92.5368" x2="151.1396" y2="92.5368">
		<stop  offset="0" style="stop-color:#B9842A"/>
		<stop  offset="0.0632" style="stop-color:#C28C24"/>
		<stop  offset="0.1644" style="stop-color:#D9A215"/>
		<stop  offset="0.2405" style="stop-color:#EFB606"/>
		<stop  offset="0.6784" style="stop-color:#FBDE31"/>
		<stop  offset="0.8432" style="stop-color:#EBCA63"/>
		<stop  offset="1" style="stop-color:#B9842A"/>
	</linearGradient>
	<path class="st1" d="M151.1,73.53c-0.25-7.18-7.19-12.93-14.25-16.06c-7.9-3.5-16.34-4.9-24.89-5.68
		c-5.01-0.46-10.03-0.94-15.07-0.86c-0.22,0-1.18,0.01-2.41,0.01c-1.05-10.03,1.28-16.96,6.97-20.92
		c-0.97-6.61-4.04-9.97-9.19-10.06c-3.75,8.88-4.84,19.66-3.36,30.94c-0.72,0-1.22,0.01-1.38,0.01c-5.04-0.07-10.06,0.44-15.07,0.89
		c-8.55,0.78-16.99,2.17-24.89,5.68c-7.06,3.13-14,8.87-14.25,16.06c-0.1,1.6-0.02,2.06,0.34,4.33c0.32,2.03,1.09,3.96,1.86,5.9
		c2.39,6.02,6.25,11.02,10.51,15.77c0.59,0.66,1.12,1.16,1.11,2.21c-0.04,6.58,0.41,13.09,1.73,19.58
		c3.84,18.79,13.98,32.66,31.56,40.67c3.82,1.74,7.64,3.1,11.76,3.12v0c0,0,0,0,0.01,0s0,0,0.01,0v0c4.12-0.03,7.95-1.38,11.76-3.12
		c17.58-8.01,27.72-21.88,31.56-40.67c1.33-6.48,1.78-13,1.73-19.58c-0.01-1.05,0.52-1.56,1.11-2.21
		c4.26-4.75,8.12-9.75,10.51-15.77c0.77-1.94,1.54-3.88,1.86-5.9C151.12,75.59,151.2,75.13,151.1,73.53z M91.51,97.13l0.69-1.65
		l0.69,1.65l10.07,23.7H92.21H92.2H81.45L91.51,97.13z M62.56,138.62c-3.94-6.16-6.57-13.28-7.95-21.64
		c-1.16-7-1.36-14.48-0.64-23.55c0.01-0.17,0.04-0.27,0.05-0.31c0.02,0,0.12-0.08,0.34-0.19c9.68-4.88,20.33-7.61,32.42-8.3
		L62.56,138.62z M101.57,156.02c-3.02,1.29-6.15,2.61-9.37,2.65c-3.22-0.04-6.34-1.36-9.37-2.65c-4.77-2.04-9.06-4.84-12.82-8.36
		l7.29-17.11H92.2h0.01h14.89l7.29,17.11C110.64,151.17,106.35,153.98,101.57,156.02z M129.8,116.98
		c-1.38,8.36-4.01,15.48-7.95,21.64L97.64,84.63c12.09,0.69,22.74,3.41,32.42,8.3c0.22,0.11,0.32,0.19,0.34,0.19
		c0.01,0.04,0.03,0.14,0.05,0.31C131.16,102.5,130.96,109.98,129.8,116.98z"/>
</g>
</svg>
