<svg width="256" height="256" viewBox="0 0 256 256" fill="none" xmlns="http://www.w3.org/2000/svg">
<circle cx="128" cy="128" r="128" fill="white"/>
<path d="M127.192 0.00064744C56.8152 0.444985 -0.00139904 57.6224 2.58378e-08 128C2.58378e-08 198.693 57.3076 256 128 256C198.692 256 256 198.693 256 128C256 57.3081 198.692 0.00064744 128 0.00064744C127.731 -0.000215813 127.461 -0.000215813 127.192 0.00064744ZM127.773 8.93086H128C193.761 8.93086 247.07 62.2401 247.07 128C247.07 193.761 193.761 247.07 128 247.07C62.2397 247.07 8.93032 193.761 8.93032 128C8.9302 62.3285 62.1015 9.05591 127.773 8.93086H127.773ZM128 17.8611C67.1716 17.8611 17.8605 67.1721 17.8605 128C17.8605 188.829 67.1716 238.14 128 238.14C188.828 238.14 238.14 188.829 238.14 128C238.14 67.1721 188.828 17.8611 128 17.8611Z" fill="url(#paint0_linear_6146:63150)"/>
<path d="M205 175H51V182H205V175Z" fill="#FFCDA1"/>
<path d="M95 106H89V153H95V106Z" fill="#FFCDA1"/>
<path d="M131 106H125V153H131V106Z" fill="#FFCDA1"/>
<path d="M167 109H161V156H167V109Z" fill="#FFCDA1"/>
<path d="M202 126H60V132H202V126Z" fill="#FFCDA1"/>
<path d="M97 84.6912C92.0823 91.5637 85.7247 95 77.9272 95C71.5918 95 66.1867 92.7167 61.712 88.1501C57.2373 83.5382 55 77.9995 55 71.5339C55 64.9327 57.2373 59.3713 61.712 54.8499C66.231 50.2833 71.7468 48 78.2595 48C86.1456 48.1808 92.3481 51.5267 96.8671 58.0375L89.9557 62.9206C86.6772 58.8062 82.6677 56.7489 77.9272 56.7489C73.8956 56.7489 70.462 58.1732 67.6266 61.0216C64.8354 63.8701 63.4399 67.329 63.4399 71.3983C63.4399 75.558 64.8354 79.0847 67.6266 81.9784C70.462 84.8268 73.8956 86.2511 77.9272 86.2511C82.4019 86.2511 86.4114 84.1712 89.9557 80.0116L97 84.6912Z" fill="white"/>
<path d="M149 71.2626C149 77.7735 146.672 83.3574 142.017 88.0144C137.407 92.6715 131.901 95 125.5 95C119.099 95 113.571 92.6715 108.916 88.0144C104.305 83.3574 102 77.8187 102 71.3983C102 64.797 104.26 59.2583 108.781 54.7821C113.302 50.2607 118.875 48 125.5 48C131.767 48 137.25 50.3059 141.95 54.9177C146.65 59.5296 149 64.9779 149 71.2626ZM140.473 71.2626C140.473 67.2838 138.996 63.8701 136.041 61.0216C133.132 58.1732 129.618 56.7489 125.5 56.7489C121.382 56.7489 117.846 58.1505 114.891 60.9538C111.982 63.7571 110.527 67.1934 110.527 71.2626C110.527 75.3771 111.982 78.9038 114.891 81.8427C117.846 84.7816 121.382 86.2511 125.5 86.2511C129.618 86.2511 133.132 84.7816 136.041 81.8427C138.996 78.9038 140.473 75.3771 140.473 71.2626Z" fill="white"/>
<path d="M198 72.8094C198 77.5758 197.085 81.5103 195.254 84.6129C193.467 87.7155 190.922 90.2336 187.617 92.1672C184.313 94.0557 180.807 95 177.1 95C173.394 95 169.866 94.0557 166.517 92.1672C163.167 90.2336 160.6 87.6931 158.813 84.5455C156.938 81.173 156 77.261 156 72.8094V49H164.507V72.8094C164.507 75.5973 165.088 78.0254 166.249 80.0938C167.321 81.9824 168.839 83.4888 170.804 84.6129C172.769 85.737 174.868 86.2991 177.1 86.2991C179.289 86.2991 181.343 85.737 183.263 84.6129C185.228 83.4888 186.746 81.9824 187.818 80.0938C188.979 78.0254 189.56 75.5973 189.56 72.8094V49H198V72.8094Z" fill="white"/>
<path d="M96 201.347C96 205.558 94.4941 209.469 91.4821 212.481C88.4992 215.494 84.6418 217 80.5005 217C76.3591 217 72.7825 215.494 69.7705 212.481C66.7876 209.469 65 205.587 65 201.434C65 197.164 66.7587 193.282 69.6837 190.387C72.6087 187.462 76.2143 186 80.5005 186C84.5549 186 88.3978 187.492 91.4387 190.475C94.4796 193.458 96 197.281 96 201.347ZM89.8906 201.348C89.8906 198.774 89.2316 197.163 87.3202 195.32C85.4377 193.478 83.1653 192.856 80.501 192.856C77.8366 192.856 75.8439 193.464 73.9325 195.277C72.05 197.09 71.6997 198.715 71.6997 201.348C71.6997 204.009 72.0496 205.989 73.932 207.89C75.8434 209.791 77.8361 210.443 80.5005 210.443C83.1648 210.443 85.4372 209.79 87.3197 207.889C89.2311 205.988 89.8906 204.009 89.8906 201.348V201.348Z" fill="white"/>
<path d="M186 215H179.681L165.319 196.139V215H159V186H165.233L179.595 205.075V186H186V215Z" fill="white"/>
<path d="M206 128.813C206 131.367 205.252 144.143 204.35 146.336C203.475 148.503 202.238 150.386 200.641 151.985C198.657 153.972 196.313 155.468 193.608 156.474C190.903 157.455 187.49 157.945 183.368 157.945L65.3204 157.944V174.999L56.1844 175V109.656H51V101H183.677C187.129 101 190.053 101.297 192.449 101.89C194.845 102.458 196.97 103.36 198.825 104.599C201.014 106.069 202.702 107.901 203.887 110.094C205.098 112.287 206 125.46 206 128.813V128.813ZM196.853 129.232C196.844 127.276 196.497 116.954 195.809 115.501C195.114 114.031 194.058 112.831 192.641 111.902C191.404 111.103 189.987 110.535 188.39 110.2C186.819 109.839 184.822 109.658 182.401 109.658L65.3204 109.655V149.323L181.28 149.325C184.372 149.325 186.883 149.054 188.815 148.512C190.747 147.945 192.319 147.055 193.53 145.842C194.74 144.604 195.59 143.301 196.08 141.934C196.583 140.6 196.84 131.081 196.852 129.427C196.853 129.362 196.853 129.232 196.853 129.232V129.232Z" fill="white"/>
<defs>
<linearGradient id="paint0_linear_6146:63150" x1="128" y1="256" x2="127.192" y2="0.000652433" gradientUnits="userSpaceOnUse">
<stop stop-color="#B25000"/>
<stop offset="1" stop-color="#FFB81F"/>
</linearGradient>
</defs>
</svg>
