<svg width="256" height="256" viewBox="0 0 256 256" fill="none" xmlns="http://www.w3.org/2000/svg">
<circle cx="128" cy="128" r="128" fill="black"/>
<path fill-rule="evenodd" clip-rule="evenodd" d="M119 63H135V76.0303C154.068 76.8037 164.913 92.2022 168 100L143.5 108C139 100.5 135 98.5 128.5 98.5C122 98.5 118 100 118 104.5C118 109 120 110 130.5 113C132.041 113.44 134.003 113.838 136.229 114.288C149.162 116.908 171 121.331 171 146.5C171 169.781 147.32 178.108 135 179.449V193H119V179.472C95.7506 178.022 85.3168 158.598 83 149L111 144C113.4 153.6 123.667 156.333 128.5 156.5C132.5 156.5 141 156 141 150C141 144.41 133.222 142.708 124.292 140.755C121.241 140.088 118.056 139.391 115 138.5C103 135 88.5 128.5 88.5 109C88.5 86.1684 108.515 77.606 119 76.069V63Z" fill="white"/>
</svg>
