<svg version="1.1" id="Layer_1" xmlns="http://www.w3.org/2000/svg" xmlns:xlink="http://www.w3.org/1999/xlink" x="0px" y="0px"
	 width="100%" viewBox="0 0 256 256" enable-background="new 0 0 256 256" xml:space="preserve">
<path fill="#008F20" opacity="1.000000" stroke="none" 
	d="
M136.000000,257.000000 
	C132.969406,257.000000 129.938812,257.000000 126.080521,256.729370 
	C125.131546,248.137146 125.051567,239.814575 124.852707,231.494873 
	C124.814812,229.909485 124.758347,228.037750 123.944275,226.803436 
	C117.821266,217.519714 111.570038,208.317657 105.164062,199.227386 
	C104.433144,198.190170 102.344360,197.279999 101.147987,197.536530 
	C93.864876,199.098160 86.580360,200.766602 79.479263,202.985016 
	C77.675041,203.548676 75.534470,206.088089 75.252808,207.974182 
	C73.513878,219.618988 72.262398,231.336578 70.496109,242.995087 
	C54.407352,234.833008 40.889191,224.023727 29.671276,210.245361 
	C16.948263,194.618332 8.453246,177.027679 3.889029,157.444122 
	C3.290892,154.877701 1.980502,152.477295 1.000000,150.000000 
	C1.000000,136.312439 1.000000,122.624878 1.405518,108.499039 
	C2.244386,106.401871 2.715548,104.751823 3.105464,103.082794 
	C10.047953,73.365639 24.551182,48.281261 48.518162,29.008453 
	C64.325279,16.297319 82.209656,7.936475 101.970154,3.459737 
	C104.058662,2.986587 105.993744,1.836196 108.000000,0.999999 
	C121.687561,1.000000 135.375122,1.000000 149.500977,1.405571 
	C150.437378,2.180129 150.894135,2.790074 151.439499,2.883633 
	C183.040726,8.305078 208.726685,23.796890 228.952835,48.497372 
	C241.827438,64.220024 250.008469,82.222519 254.541687,101.971893 
	C255.020844,104.059364 256.164581,105.994301 257.000000,108.000000 
	C257.000000,121.687561 257.000000,135.375122 256.594452,149.500916 
	C255.325470,153.523727 254.568008,157.137787 253.581573,160.688202 
	C246.600983,185.813507 234.144714,207.765182 214.327866,224.878098 
	C206.666397,231.494156 197.537399,236.410812 188.964417,241.673248 
	C187.506149,229.893265 185.991364,218.557663 184.917465,207.180450 
	C184.593719,203.750595 183.354156,202.128281 180.088806,201.457947 
	C174.582321,200.327515 169.062500,199.171799 163.670151,197.606781 
	C159.908218,196.514984 157.517776,197.228195 155.328476,200.631165 
	C149.953384,208.986008 144.067535,217.014145 138.760422,225.409683 
	C137.197556,227.882034 136.256897,231.113785 136.118027,234.048950 
	C135.756805,241.684067 135.998718,249.347733 136.000000,257.000000 
M98.246933,145.759842 
	C97.974960,149.458878 96.660271,153.485062 97.692467,156.774918 
	C99.010468,160.975647 102.335358,164.517654 104.593346,168.459244 
	C108.129448,174.631943 111.496384,180.901550 114.329956,187.381470 
	C110.908768,189.468872 110.615074,191.898972 113.027893,195.142075 
	C115.892090,198.991898 118.389885,203.113434 121.068306,207.102554 
	C124.170372,211.722595 127.296211,216.326660 130.787308,221.493546 
	C132.235657,219.700119 133.215790,218.646988 134.014877,217.470856 
	C139.136673,209.932220 144.067642,202.258301 149.375519,194.854065 
	C152.167297,190.959686 152.036926,188.285904 147.697540,185.550705 
	C149.965195,181.340347 152.225479,177.125992 154.503754,172.921371 
	C155.587036,170.922134 156.330978,168.570892 157.872025,167.017258 
	C164.130173,160.707962 164.701324,153.288757 162.681885,144.402267 
	C162.400925,138.949661 162.565140,133.428818 161.741882,128.059357 
	C160.249008,118.322853 155.528641,110.904778 144.963348,109.170433 
	C139.130157,108.212883 133.188828,107.193062 127.318604,107.311363 
	C105.865028,107.743721 92.967789,124.822220 98.246933,145.759842 
z"/>
<path fill="#000000" opacity="1.000000" stroke="none" 
	d="
M107.531342,0.999999 
	C105.993744,1.836196 104.058662,2.986587 101.970154,3.459737 
	C82.209656,7.936475 64.325279,16.297319 48.518162,29.008453 
	C24.551182,48.281261 10.047953,73.365639 3.105464,103.082794 
	C2.715548,104.751823 2.244386,106.401871 1.405518,108.030380 
	C1.000000,72.406387 1.000000,36.812778 1.000000,1.000000 
	C36.353928,1.000000 71.708305,1.000000 107.531342,0.999999 
z"/>
<path fill="#000000" opacity="1.000000" stroke="none" 
	d="
M257.000000,107.531342 
	C256.164581,105.994301 255.020844,104.059364 254.541687,101.971893 
	C250.008469,82.222519 241.827438,64.220024 228.952835,48.497372 
	C208.726685,23.796890 183.040726,8.305078 151.439499,2.883633 
	C150.894135,2.790074 150.437378,2.180129 149.969635,1.405571 
	C185.593613,1.000000 221.187210,1.000000 257.000000,1.000000 
	C257.000000,36.353928 257.000000,71.708305 257.000000,107.531342 
z"/>
<path fill="#000000" opacity="1.000000" stroke="none" 
	d="
M1.000000,150.468658 
	C1.980502,152.477295 3.290892,154.877701 3.889029,157.444122 
	C8.453246,177.027679 16.948263,194.618332 29.671276,210.245361 
	C40.889191,224.023727 54.407352,234.833008 70.663300,243.312851 
	C73.080162,244.448990 74.977036,245.232468 77.085800,246.315369 
	C86.852852,249.447968 96.414619,252.259598 105.944366,255.175812 
	C106.436264,255.326324 106.654404,256.371399 107.000000,257.000000 
	C71.739380,257.000000 36.478760,257.000000 1.000000,257.000000 
	C1.000000,221.646072 1.000000,186.291687 1.000000,150.468658 
z"/>
<path fill="#000000" opacity="1.000000" stroke="none" 
	d="
M189.077011,242.101700 
	C197.537399,236.410812 206.666397,231.494156 214.327866,224.878098 
	C234.144714,207.765182 246.600983,185.813507 253.581573,160.688202 
	C254.568008,157.137787 255.325470,153.523727 256.594452,149.969574 
	C257.000000,185.593262 257.000000,221.186523 257.000000,257.000000 
	C221.979416,257.000000 186.958359,257.000000 151.218201,256.625610 
	C151.473145,255.835785 152.424164,255.351807 153.424805,255.015442 
	C163.273865,251.704712 173.131165,248.418518 183.346832,245.078644 
	C185.497375,244.055176 187.287201,243.078445 189.077011,242.101700 
z"/>
<path fill="#0232A1" opacity="1.000000" stroke="none" 
	d="
M107.458069,257.000000 
	C106.654404,256.371399 106.436264,255.326324 105.944366,255.175812 
	C96.414619,252.259598 86.852852,249.447968 77.190094,245.912750 
	C78.046600,237.977493 79.191025,230.762878 79.937660,223.507324 
	C81.546478,207.873184 81.494453,208.018768 97.137886,204.806168 
	C100.399635,204.136322 102.022041,204.987045 103.753067,207.400864 
	C118.217705,227.570953 118.238724,227.556259 118.060577,252.501328 
	C118.049866,254.000961 118.020615,255.500443 118.000000,257.000000 
	C114.638710,257.000000 111.277428,257.000000 107.458069,257.000000 
z"/>
<path fill="#E70404" opacity="1.000000" stroke="none" 
	d="
M182.986115,245.125366 
	C173.131165,248.418518 163.273865,251.704712 153.424805,255.015442 
	C152.424164,255.351807 151.473145,255.835785 150.749542,256.625610 
	C148.299988,257.000000 145.599976,257.000000 142.442917,256.530884 
	C142.023636,248.925064 141.964127,241.785721 142.159836,234.653381 
	C142.216797,232.577515 142.480637,230.189316 143.546219,228.514847 
	C147.895477,221.680237 152.497589,214.998596 157.232819,208.423569 
	C158.303726,206.936584 160.420898,204.994324 161.818451,205.168732 
	C166.841690,205.795578 171.776306,207.186905 176.704590,208.445328 
	C177.266403,208.588776 177.833130,209.673019 177.958054,210.396881 
	C178.432114,213.143845 178.691040,215.927002 179.092758,218.687546 
	C180.375519,227.502350 181.686203,236.313065 182.986115,245.125366 
z"/>
<path fill="#EEF6F4" opacity="1.000000" stroke="none" 
	d="
M118.444168,257.000000 
	C118.020615,255.500443 118.049866,254.000961 118.060577,252.501328 
	C118.238724,227.556259 118.217705,227.570953 103.753067,207.400864 
	C102.022041,204.987045 100.399635,204.136322 97.137886,204.806168 
	C81.494453,208.018768 81.546478,207.873184 79.937660,223.507324 
	C79.191025,230.762878 78.046600,237.977493 76.978210,245.613312 
	C74.977036,245.232468 73.080162,244.448990 71.016098,243.347748 
	C72.262398,231.336578 73.513878,219.618988 75.252808,207.974182 
	C75.534470,206.088089 77.675041,203.548676 79.479263,202.985016 
	C86.580360,200.766602 93.864876,199.098160 101.147987,197.536530 
	C102.344360,197.279999 104.433144,198.190170 105.164062,199.227386 
	C111.570038,208.317657 117.821266,217.519714 123.944275,226.803436 
	C124.758347,228.037750 124.814812,229.909485 124.852707,231.494873 
	C125.051567,239.814575 125.131546,248.137146 125.626411,256.729370 
	C123.629440,257.000000 121.258888,257.000000 118.444168,257.000000 
z"/>
<path fill="#F2F3EE" opacity="1.000000" stroke="none" 
	d="
M183.346832,245.078644 
	C181.686203,236.313065 180.375519,227.502350 179.092758,218.687546 
	C178.691040,215.927002 178.432114,213.143845 177.958054,210.396881 
	C177.833130,209.673019 177.266403,208.588776 176.704590,208.445328 
	C171.776306,207.186905 166.841690,205.795578 161.818451,205.168732 
	C160.420898,204.994324 158.303726,206.936584 157.232819,208.423569 
	C152.497589,214.998596 147.895477,221.680237 143.546219,228.514847 
	C142.480637,230.189316 142.216797,232.577515 142.159836,234.653381 
	C141.964127,241.785721 142.023636,248.925064 141.992935,256.530884 
	C140.285645,257.000000 138.571289,257.000000 136.428467,257.000000 
	C135.998718,249.347733 135.756805,241.684067 136.118027,234.048950 
	C136.256897,231.113785 137.197556,227.882034 138.760422,225.409683 
	C144.067535,217.014145 149.953384,208.986008 155.328476,200.631165 
	C157.517776,197.228195 159.908218,196.514984 163.670151,197.606781 
	C169.062500,199.171799 174.582321,200.327515 180.088806,201.457947 
	C183.354156,202.128281 184.593719,203.750595 184.917465,207.180450 
	C185.991364,218.557663 187.506149,229.893265 188.964417,241.673279 
	C187.287201,243.078445 185.497375,244.055176 183.346832,245.078644 
z"/>
<path fill="#010104" opacity="1.000000" stroke="none" 
	d="
M114.934967,187.130112 
	C111.496384,180.901550 108.129448,174.631943 104.593346,168.459244 
	C102.335358,164.517654 99.010468,160.975647 97.692467,156.774918 
	C96.660271,153.485062 97.974960,149.458878 98.778488,145.361832 
	C100.543526,145.075653 101.777008,145.187485 103.339264,145.329117 
	C103.922989,142.401031 104.462318,139.490540 105.087204,136.598511 
	C107.205582,126.794449 113.237625,121.366997 123.310989,120.679146 
	C128.576202,120.319611 133.898010,120.306229 139.167786,120.604401 
	C148.127792,121.111366 153.054306,125.526535 155.014069,134.271072 
	C155.484589,136.370544 155.934937,138.481567 156.240753,140.609375 
	C156.800766,144.505585 158.556412,146.571426 162.773712,145.227997 
	C164.701324,153.288757 164.130173,160.707962 157.872025,167.017258 
	C156.330978,168.570892 155.587036,170.922134 154.503754,172.921371 
	C152.225479,177.125992 149.965195,181.340347 147.422791,186.145416 
	C141.887848,194.257004 136.627640,201.773865 130.863220,210.011230 
	C125.224854,201.911636 120.079910,194.520874 114.934967,187.130112 
z"/>
<path fill="#F3F9F6" opacity="1.000000" stroke="none" 
	d="
M162.727798,144.815125 
	C158.556412,146.571426 156.800766,144.505585 156.240753,140.609375 
	C155.934937,138.481567 155.484589,136.370544 155.014069,134.271072 
	C153.054306,125.526535 148.127792,121.111366 139.167786,120.604401 
	C133.898010,120.306229 128.576202,120.319611 123.310989,120.679146 
	C113.237625,121.366997 107.205582,126.794449 105.087204,136.598511 
	C104.462318,139.490540 103.922989,142.401031 103.339264,145.329117 
	C101.777008,145.187485 100.543526,145.075653 98.910858,144.950165 
	C92.967789,124.822220 105.865028,107.743721 127.318604,107.311363 
	C133.188828,107.193062 139.130157,108.212883 144.963348,109.170433 
	C155.528641,110.904778 160.249008,118.322853 161.741882,128.059357 
	C162.565140,133.428818 162.400925,138.949661 162.727798,144.815125 
z"/>
<path fill="#DCC203" opacity="1.000000" stroke="none" 
	d="
M114.632462,187.255798 
	C120.079910,194.520874 125.224854,201.911636 130.863220,210.011230 
	C136.627640,201.773865 141.887848,194.257004 147.316223,186.517349 
	C152.036926,188.285904 152.167297,190.959686 149.375519,194.854065 
	C144.067642,202.258301 139.136673,209.932220 134.014877,217.470856 
	C133.215790,218.646988 132.235657,219.700119 130.787308,221.493546 
	C127.296211,216.326660 124.170372,211.722595 121.068306,207.102554 
	C118.389885,203.113434 115.892090,198.991898 113.027893,195.142075 
	C110.615074,191.898972 110.908768,189.468872 114.632462,187.255798 
z"/>
</svg>