<?xml version="1.0" encoding="utf-8"?>
<!-- Generator: Adobe Illustrator 26.0.2, SVG Export Plug-In . SVG Version: 6.00 Build 0)  -->
<svg version="1.1" id="Layer_1" xmlns="http://www.w3.org/2000/svg" xmlns:xlink="http://www.w3.org/1999/xlink" x="0px" y="0px"
	 viewBox="0 0 256 256" style="enable-background:new 0 0 256 256;" xml:space="preserve">
<style type="text/css">
	.st0{fill:url(#SVGID_1_);}
	.st1{fill:#FFFFFF;}
</style>
<linearGradient id="SVGID_1_" gradientUnits="userSpaceOnUse" x1="38.6264" y1="217.3736" x2="217.3772" y2="38.6228">
	<stop  offset="0" style="stop-color:#F72D7F"/>
	<stop  offset="1" style="stop-color:#FD243D"/>
</linearGradient>
<path class="st0" d="M128,256L128,256C57.3,256,0,198.7,0,128v0C0,57.3,57.3,0,128,0h0c70.7,0,128,57.3,128,128v0
	C256,198.7,198.7,256,128,256z"/>
<path class="st1" d="M136,127.1c0.5,0.3,0.9,0.6,1.3,1c4.5,4.4,8.9,8.9,13.3,13.3c1.9,1.9,2.8,1.9,4.7,0L201,95.8
	c4.6-4.7,10.8-7.3,17.4-7.3c10.7-0.1,20.1,7.3,22.6,17.7c2,8.6-0.1,16.2-6.3,22.5c-24.3,24.4-48.7,48.8-73.1,73.2
	c-4.9,4.9-12,4.9-16.9-0.1c-5.4-5.4-10.8-10.9-16.2-16.3C101,158.3,73.7,131,46.4,103.8c-4.6-4.6-12-4.6-16.5,0
	c-4.6,4.6-4.6,12,0,16.5l74.5,74.5c1.8,1.8,2.8,3.8,2.1,6.4c-0.9,3.1-4.2,4.9-7.3,4c-0.7-0.2-1.3-0.5-1.8-0.9
	c-0.4-0.3-0.7-0.6-1-0.9c-25-25-50-50-75-75c-8.8-8.7-9.2-22.8-1-32c9.3-10.4,24.4-10.8,34.4-0.8c27.1,27,54.1,54.1,81.2,81.1
	c5,5,10,10,15,15c1.5,1.4,2.5,1.4,4,0l71.5-71.5c3.4-3.3,4.4-8.4,2.5-12.8c-1.7-4.3-5.9-7.2-10.5-7.1c-3.4-0.1-6.6,1.3-8.9,3.7
	L158,155.5c-0.9,1.2-2.2,2-3.7,2.3c-2,0.4-4.1-0.2-5.6-1.7c-12.6-12.6-25.2-25.2-37.8-37.7c-3.3-3.3-6.8-6.5-9.8-10.1
	c-8.4-10.3-10.7-22-6.2-34.5s13.7-20.4,27-22.8c18.8-3.5,37,8.9,40.6,27.7c2.4,12.1-0.9,22.8-9.5,31.7c-5.1,5.3-10.5,10.5-15.8,15.7
	C136.9,126.5,136.4,126.8,136,127.1z M128,118.7c0.3-0.3,0.6-0.6,0.9-0.9l15.4-15.4c5.5-5.2,8.1-12.8,6.8-20.3
	c-1.8-13-14.4-22.1-27.2-19.6c-9,1.7-15.2,7-18.1,15.6s-1.2,16.5,4.9,23.2c5.4,5.9,11.3,11.4,17,17.1
	C127.8,118.6,127.9,118.6,128,118.7L128,118.7z"/>
<path class="st1" d="M128.1,73.9c6.5,0,11.7,5.3,11.7,11.8c0,6.5-5.3,11.7-11.8,11.7c-6.5,0-11.7-5.3-11.7-11.7
	c-0.1-6.4,5-11.6,11.4-11.7L128.1,73.9L128.1,73.9z"/>
</svg>
