<svg width="256" height="256" viewBox="0 0 256 256" fill="none" xmlns="http://www.w3.org/2000/svg">
<g clip-path="url(#clip0_10_63)">
<path d="M256 127.928C256 198.658 198.658 256 127.928 256C57.1974 256 -0.144531 198.658 -0.144531 127.928C-0.144531 57.1974 57.1974 -0.144531 127.928 -0.144531C198.658 -0.144531 256 57.1974 256 127.928Z" fill="black"/>
<path d="M240.837 127.928C240.837 190.286 190.286 240.837 127.928 240.837C65.5697 240.837 15.0183 190.286 15.0183 127.928C15.0183 65.5697 65.5697 15.0183 127.928 15.0183C190.286 15.0183 240.837 65.5697 240.837 127.928Z" fill="#FBB03B"/>
<path d="M226.309 127.928C226.309 182.262 182.262 226.309 127.928 226.309C73.5934 226.309 29.5463 182.262 29.5463 127.928C29.5463 73.5934 73.5934 29.5463 127.928 29.5463C182.262 29.5463 226.309 73.5934 226.309 127.928Z" fill="black"/>
<path d="M138.007 105.277L172.027 121.47L170.846 111.443V111.422L169.966 109.757C158.685 106.235 147.961 104.991 138.007 105.277Z" fill="black"/>
<path d="M139.25 66.6416C133.464 54.4135 133.417 36.597 133.485 32.5331C132.783 32.7776 131.617 33.2095 130.098 33.8339C125.43 39.6462 118.91 50.7295 117.266 68.4628C123.963 67.3493 131.284 66.7509 139.25 66.6416Z" fill="#CE892E"/>
<path d="M166.381 73.3645C170.409 75.8569 173.832 78.8437 176.736 81.9605C180.217 73.2292 180.831 53.2532 180.92 49.616C179.593 49.6368 178.287 49.7044 177.022 49.8449C173.146 54.1846 168.135 61.7972 166.381 73.3645Z" fill="#CE892E"/>
<path d="M96.27 195.822C96.9204 197.399 97.7166 198.949 98.6012 200.443C103.248 185.332 113.618 174.618 129.619 168.452C138.949 164.851 148.138 166.084 155.319 168.468C158.05 167.796 160.548 167.458 162.614 167.286C155.6 163.368 141.738 157.634 127.511 163.118C111.261 169.394 100.813 180.342 96.27 195.822Z" fill="#CE892E"/>
<path d="M80.54 178.568C80.4672 177.595 80.3839 176.59 80.3267 175.581C85.1503 167.859 91.462 161.709 99.21 157.187C117.656 146.41 140.26 147.357 154.007 151.442C167.984 155.584 176.049 155.876 180.217 155.459C181.284 152.967 181.986 150.584 182.429 148.742C179.952 149.434 171.777 150.698 153.341 145.224C139.589 141.139 116.99 140.192 98.5387 150.969C90.7856 155.49 84.4738 161.641 79.6606 169.363C79.8532 172.615 80.1498 175.675 80.54 178.568Z" fill="#CE892E"/>
<path d="M70.1851 189.25C70.7002 187.231 71.2778 185.259 71.9179 183.365C70.4557 171.449 69.9614 154.132 75.4718 137.57H75.4874C80.5556 133.594 87.0963 129.067 94.8442 124.957C106.094 118.999 121.423 113.181 139.422 112.26L177.147 130.217L176.195 122.043L172.094 114.107L173.151 123.182L135.421 105.225C117.417 106.146 102.093 111.964 90.848 117.916C83.0896 122.027 76.5489 126.559 71.4912 130.535H71.4756C63.2593 155.241 68.4003 181.643 70.1851 189.25Z" fill="#CE892E"/>
<path d="M85.6134 80.2017C85.8684 80.0248 86.1285 79.8427 86.3939 79.6762C94.5373 74.3739 104.372 70.7263 116.137 68.6605C117.625 51.9575 123.385 40.999 128.042 34.6873C115.523 40.104 88.1475 54.7517 85.6134 80.2017Z" fill="#FBB03B"/>
<path d="M143.855 66.6468C152.384 66.959 159.476 69.3213 165.356 72.7608C167.078 61.9533 171.611 54.5436 175.399 50.027C159.424 52.1188 148.299 62.0105 143.855 66.6468Z" fill="#FBB03B"/>
<path d="M98.6012 200.448C105.386 212 117.76 221.017 121.116 223.328C121.293 202.67 126.773 187.33 137.429 177.735C143.247 172.485 149.767 169.805 155.319 168.473C148.128 166.1 138.949 164.867 129.619 168.463C113.613 174.623 103.237 185.342 98.6012 200.448Z" fill="#FBB03B"/>
<path d="M80.3267 175.581C80.3839 176.59 80.4672 177.595 80.54 178.568C80.54 178.604 80.54 178.635 80.5556 178.672C83.2562 198.84 90.0259 210.277 92.5391 213.951C92.6588 207.4 93.507 201.39 95.068 195.926C95.068 195.926 95.068 195.926 95.068 195.911C95.2293 195.297 95.4218 194.704 95.6144 194.11C100.454 179.031 110.991 168.301 127.111 162.088C142.815 156.042 158.04 163.223 164.633 167.167C165.309 167.573 165.902 167.958 166.386 168.265H166.423C167.063 168.697 167.521 169.025 167.786 169.233C174.181 166.491 177.98 160.694 180.212 155.459C176.044 155.87 167.968 155.584 154.002 151.442C140.249 147.357 117.651 146.41 99.1995 157.187C91.462 161.709 85.1502 167.859 80.3267 175.581Z" fill="#FBB03B"/>
<path d="M71.9179 183.365C73.6662 178.13 75.8777 173.359 78.5263 169.061C78.8645 168.515 79.2027 167.968 79.5565 167.453C84.3645 160.199 90.5202 154.372 97.9871 150.006C116.735 139.053 139.693 140.005 153.654 144.162C170.554 149.168 178.698 148.424 181.565 147.789C181.809 147.742 182.007 147.685 182.174 147.644L179.119 143.091L174.545 136.248L182.236 133.704L176.195 122.043L177.147 130.217L139.422 112.26C121.413 113.181 106.089 118.999 94.8442 124.957C87.0859 129.067 80.5452 133.594 75.4874 137.57H75.4718C69.9718 154.132 70.4557 171.449 71.9179 183.365Z" fill="#FBB03B"/>
<path d="M59.6586 139.516C61.3133 137.825 65.0493 134.182 70.5442 129.863C71.0697 129.458 71.6005 129.041 72.152 128.625C72.152 128.609 72.1676 128.609 72.1676 128.609C77.0537 124.879 83.1573 120.731 90.2912 116.959C101.234 111.162 116.007 105.491 133.329 104.236C134.089 104.164 134.838 104.127 135.608 104.091H135.618C146.348 103.56 158.014 104.746 170.331 108.618L170.554 108.696L171.735 110.98L171.746 110.991L183.412 133.495L194.662 134.396L184.77 111.152L184.645 110.85L189.11 105.038C188.548 103.284 185.103 93.1792 177.027 83.9223C176.783 83.6361 176.528 83.3551 176.262 83.0689C173.473 79.9937 170.154 77.0485 166.246 74.5717C165.902 74.3635 165.554 74.1346 165.2 73.9369C159.169 70.3361 151.806 67.8905 142.862 67.7344C142.565 67.7187 142.263 67.7188 141.961 67.7188H141.399C141.29 67.7188 141.186 67.7187 141.082 67.7344C140.645 67.7187 140.234 67.7344 139.807 67.7448C131.633 67.8332 124.093 68.4576 117.188 69.6336C116.813 69.7013 116.444 69.7585 116.069 69.8261C103.893 72.022 93.7255 75.9246 85.5249 81.5755C85.1242 81.8409 84.7339 82.1115 84.3593 82.4029C68.0777 94.1939 59.9344 113.16 59.6586 139.516Z" fill="#FBB03B"/>
<path d="M176.268 136.846L182.866 146.712L183.178 147.17L184.031 146.566L196.197 138.048L195.13 135.551L183.074 134.599L176.268 136.846Z" fill="#CE892E"/>
</g>
<defs>
<clipPath id="clip0_10_63">
<rect width="256" height="256" fill="white"/>
</clipPath>
</defs>
</svg>
