<?xml version="1.0" encoding="UTF-8"?>
<svg xmlns="http://www.w3.org/2000/svg" xmlns:xlink="http://www.w3.org/1999/xlink" width="256px" height="256px" viewBox="0 0 256 256" version="1.1">
<g id="surface1">
<path style=" stroke:none;fill-rule:nonzero;fill:rgb(0%,0%,0%);fill-opacity:1;" d="M 224.144531 128 C 224.144531 181.097656 181.097656 224.144531 128 224.144531 C 74.902344 224.144531 31.855469 181.097656 31.855469 128 C 31.855469 74.902344 74.902344 31.855469 128 31.855469 C 181.097656 31.855469 224.144531 74.902344 224.144531 128 Z M 224.144531 128 "/>
<path style=" stroke:none;fill-rule:nonzero;fill:rgb(98.431373%,69.019608%,23.137255%);fill-opacity:1;" d="M 212.761719 128 C 212.761719 174.8125 174.8125 212.761719 128 212.761719 C 81.1875 212.761719 43.238281 174.8125 43.238281 128 C 43.238281 81.1875 81.1875 43.238281 128 43.238281 C 174.8125 43.238281 212.761719 81.1875 212.761719 128 Z M 212.761719 128 "/>
<path style=" stroke:none;fill-rule:nonzero;fill:rgb(0%,0%,0%);fill-opacity:1;" d="M 201.855469 128 C 201.855469 168.789062 168.789062 201.855469 128 201.855469 C 87.210938 201.855469 54.144531 168.789062 54.144531 128 C 54.144531 87.210938 87.210938 54.144531 128 54.144531 C 168.789062 54.144531 201.855469 87.210938 201.855469 128 Z M 201.855469 128 "/>
<path style=" stroke:none;fill-rule:nonzero;fill:rgb(0%,0%,0%);fill-opacity:1;" d="M 135.566406 110.996094 L 161.105469 123.152344 L 160.21875 115.625 L 160.21875 115.609375 L 159.558594 114.359375 C 151.089844 111.714844 143.039062 110.78125 135.566406 110.996094 Z M 135.566406 110.996094 "/>
<path style=" stroke:none;fill-rule:nonzero;fill:rgb(80.784314%,53.72549%,18.039216%);fill-opacity:1;" d="M 136.5 81.992188 C 132.15625 72.8125 132.121094 59.4375 132.171875 56.386719 C 131.644531 56.570312 130.769531 56.894531 129.628906 57.363281 C 126.125 61.726562 121.230469 70.046875 119.996094 83.359375 C 125.023438 82.523438 130.519531 82.074219 136.5 81.992188 Z M 136.5 81.992188 "/>
<path style=" stroke:none;fill-rule:nonzero;fill:rgb(80.784314%,53.72549%,18.039216%);fill-opacity:1;" d="M 156.867188 87.039062 C 159.890625 88.910156 162.460938 91.152344 164.640625 93.492188 C 167.253906 86.9375 167.714844 71.941406 167.78125 69.210938 C 166.785156 69.226562 165.804688 69.277344 164.855469 69.382812 C 161.945312 72.640625 158.183594 78.355469 156.867188 87.039062 Z M 156.867188 87.039062 "/>
<path style=" stroke:none;fill-rule:nonzero;fill:rgb(80.784314%,53.72549%,18.039216%);fill-opacity:1;" d="M 104.234375 178.96875 C 104.722656 180.152344 105.320312 181.316406 105.984375 182.4375 C 109.472656 171.09375 117.257812 163.050781 129.269531 158.421875 C 136.273438 155.71875 143.171875 156.644531 148.5625 158.433594 C 150.613281 157.929688 152.488281 157.675781 154.039062 157.546875 C 148.773438 154.605469 138.367188 150.300781 127.6875 154.417969 C 115.488281 159.128906 107.644531 167.347656 104.234375 178.96875 Z M 104.234375 178.96875 "/>
<path style=" stroke:none;fill-rule:nonzero;fill:rgb(80.784314%,53.72549%,18.039216%);fill-opacity:1;" d="M 92.425781 166.015625 C 92.371094 165.285156 92.308594 164.53125 92.265625 163.773438 C 95.886719 157.976562 100.625 153.359375 106.441406 149.964844 C 120.289062 141.875 137.257812 142.585938 147.578125 145.652344 C 158.070312 148.761719 164.125 148.980469 167.253906 148.667969 C 168.054688 146.796875 168.582031 145.007812 168.914062 143.625 C 167.054688 144.144531 160.917969 145.09375 147.078125 140.984375 C 136.753906 137.917969 119.789062 137.207031 105.9375 145.296875 C 100.117188 148.691406 95.378906 153.308594 91.765625 159.105469 C 91.910156 161.546875 92.132812 163.84375 92.425781 166.015625 Z M 92.425781 166.015625 "/>
<path style=" stroke:none;fill-rule:nonzero;fill:rgb(80.784314%,53.72549%,18.039216%);fill-opacity:1;" d="M 84.652344 174.035156 C 85.039062 172.519531 85.472656 171.039062 85.953125 169.617188 C 84.855469 160.671875 84.484375 147.671875 88.621094 135.238281 L 88.632812 135.238281 C 92.4375 132.253906 97.347656 128.855469 103.164062 125.769531 C 111.609375 121.296875 123.117188 116.929688 136.628906 116.238281 L 164.949219 129.71875 L 164.234375 123.582031 L 161.15625 117.625 L 161.949219 124.4375 L 133.625 110.957031 C 120.109375 111.648438 108.605469 116.015625 100.164062 120.484375 C 94.339844 123.570312 89.429688 126.972656 85.632812 129.957031 L 85.621094 129.957031 C 79.453125 148.503906 83.3125 168.324219 84.652344 174.035156 Z M 84.652344 174.035156 "/>
<path style=" stroke:none;fill-rule:nonzero;fill:rgb(98.431373%,69.019608%,23.137255%);fill-opacity:1;" d="M 96.234375 92.171875 C 96.425781 92.039062 96.621094 91.902344 96.820312 91.777344 C 102.933594 87.796875 110.316406 85.058594 119.148438 83.507812 C 120.265625 70.96875 124.589844 62.742188 128.085938 58.003906 C 118.6875 62.070312 98.136719 73.066406 96.234375 92.171875 Z M 96.234375 92.171875 "/>
<path style=" stroke:none;fill-rule:nonzero;fill:rgb(98.431373%,69.019608%,23.137255%);fill-opacity:1;" d="M 139.957031 81.996094 C 146.359375 82.230469 151.683594 84.003906 156.097656 86.585938 C 157.390625 78.472656 160.792969 72.910156 163.636719 69.519531 C 151.644531 71.089844 143.292969 78.515625 139.957031 81.996094 Z M 139.957031 81.996094 "/>
<path style=" stroke:none;fill-rule:nonzero;fill:rgb(98.431373%,69.019608%,23.137255%);fill-opacity:1;" d="M 105.984375 182.441406 C 111.078125 191.113281 120.367188 197.882812 122.886719 199.617188 C 123.019531 184.109375 127.132812 172.59375 135.132812 165.390625 C 139.5 161.449219 144.394531 159.4375 148.5625 158.4375 C 143.164062 156.65625 136.273438 155.730469 129.269531 158.429688 C 117.253906 163.054688 109.464844 171.101562 105.984375 182.441406 Z M 105.984375 182.441406 "/>
<path style=" stroke:none;fill-rule:nonzero;fill:rgb(98.431373%,69.019608%,23.137255%);fill-opacity:1;" d="M 92.265625 163.773438 C 92.308594 164.53125 92.371094 165.285156 92.425781 166.015625 C 92.425781 166.042969 92.425781 166.066406 92.4375 166.09375 C 94.464844 181.234375 99.546875 189.820312 101.433594 192.578125 C 101.523438 187.660156 102.160156 183.148438 103.332031 179.046875 C 103.332031 179.046875 103.332031 179.046875 103.332031 179.035156 C 103.453125 178.574219 103.597656 178.128906 103.742188 177.683594 C 107.375 166.363281 115.285156 158.308594 127.386719 153.644531 C 139.175781 149.105469 150.605469 154.496094 155.554688 157.457031 C 156.0625 157.761719 156.507812 158.050781 156.871094 158.28125 L 156.898438 158.28125 C 157.378906 158.605469 157.722656 158.851562 157.921875 159.007812 C 162.722656 156.949219 165.574219 152.597656 167.25 148.667969 C 164.121094 148.976562 158.058594 148.761719 147.574219 145.652344 C 137.25 142.585938 120.285156 141.875 106.433594 149.964844 C 100.625 153.359375 95.886719 157.976562 92.265625 163.773438 Z M 92.265625 163.773438 "/>
<path style=" stroke:none;fill-rule:nonzero;fill:rgb(98.431373%,69.019608%,23.137255%);fill-opacity:1;" d="M 85.953125 169.617188 C 87.265625 165.6875 88.925781 162.105469 90.914062 158.878906 C 91.167969 158.46875 91.421875 158.058594 91.6875 157.671875 C 95.296875 152.226562 99.917969 147.851562 105.523438 144.574219 C 119.597656 136.351562 136.832031 137.066406 147.3125 140.1875 C 160 143.945312 166.113281 143.386719 168.265625 142.910156 C 168.449219 142.875 168.597656 142.832031 168.722656 142.800781 L 166.429688 139.382812 L 162.996094 134.246094 L 168.769531 132.335938 L 164.234375 123.582031 L 164.949219 129.71875 L 136.628906 116.238281 C 123.109375 116.929688 111.605469 121.296875 103.164062 125.769531 C 97.339844 128.855469 92.429688 132.253906 88.632812 135.238281 L 88.621094 135.238281 C 84.492188 147.671875 84.855469 160.671875 85.953125 169.617188 Z M 85.953125 169.617188 "/>
<path style=" stroke:none;fill-rule:nonzero;fill:rgb(98.431373%,69.019608%,23.137255%);fill-opacity:1;" d="M 76.75 136.699219 C 77.992188 135.429688 80.796875 132.695312 84.921875 129.453125 C 85.316406 129.148438 85.714844 128.835938 86.128906 128.523438 C 86.128906 128.511719 86.140625 128.511719 86.140625 128.511719 C 89.808594 125.710938 94.390625 122.597656 99.746094 119.765625 C 107.960938 115.414062 119.050781 111.15625 132.054688 110.214844 C 132.625 110.160156 133.1875 110.132812 133.765625 110.105469 L 133.773438 110.105469 C 141.828125 109.707031 150.585938 110.597656 159.832031 113.503906 L 160 113.5625 L 160.886719 115.277344 L 160.894531 115.285156 L 169.652344 132.179688 L 178.097656 132.855469 L 170.671875 115.40625 L 170.578125 115.179688 L 173.929688 110.816406 C 173.507812 109.5 170.921875 101.914062 164.859375 94.964844 C 164.675781 94.75 164.484375 94.539062 164.285156 94.324219 C 162.191406 92.015625 159.699219 89.804688 156.765625 87.945312 C 156.507812 87.789062 156.246094 87.617188 155.980469 87.46875 C 151.453125 84.765625 145.925781 82.929688 139.210938 82.8125 C 138.988281 82.800781 138.761719 82.800781 138.535156 82.800781 L 138.113281 82.800781 C 138.03125 82.800781 137.953125 82.800781 137.875 82.8125 C 137.546875 82.800781 137.238281 82.8125 136.917969 82.820312 C 130.78125 82.886719 125.121094 83.355469 119.9375 84.238281 C 119.65625 84.289062 119.378906 84.332031 119.097656 84.382812 C 109.957031 86.03125 102.324219 88.960938 96.167969 93.203125 C 95.867188 93.402344 95.574219 93.605469 95.292969 93.824219 C 83.070312 102.675781 76.957031 116.914062 76.75 136.699219 Z M 76.75 136.699219 "/>
<path style=" stroke:none;fill-rule:nonzero;fill:rgb(80.784314%,53.72549%,18.039216%);fill-opacity:1;" d="M 164.289062 134.695312 L 169.242188 142.101562 L 169.476562 142.445312 L 170.117188 141.992188 L 179.25 135.597656 L 178.449219 133.722656 L 169.398438 133.007812 Z M 164.289062 134.695312 "/>
</g>
</svg>
