<svg width="256" height="256" viewBox="0 0 256 256" fill="none" xmlns="http://www.w3.org/2000/svg">
<g clip-path="url(#clip0_11_1866)">
<path d="M255.99 -0.0300293H-0.0100098V255.97H255.99V-0.0300293Z" fill="black"/>
<path d="M119.593 30.363C102 59.9525 99.14 65.7662 85.36 100.475L80.68 112.19L58.84 112.45C46.7933 112.537 37 112.971 37 113.404C37 113.838 40.2067 117.569 44.1933 121.735L51.3 129.197L62.8267 130.672C71.9267 131.8 74.2667 132.408 74.2667 133.449C74.2667 134.143 72.88 141.953 71.2333 150.717C69.5867 159.394 68.2 167.203 68.2 167.898C68.2 169.373 71.9267 166.683 81.2867 158.439L87.0933 153.407L89.4333 143.775L91.86 134.143L96.28 134.577C98.7067 134.837 104.08 135.358 108.327 135.705C112.487 136.052 115.867 136.399 115.867 136.486C115.867 140.391 124.1 223.172 124.967 228.812C127.307 242.609 128.693 242.435 130.947 228.031C132.247 219.788 136.147 180.74 138.487 152.539C138.92 146.552 139.527 140.477 139.7 139.002L140.133 136.399L151.92 135.358C158.42 134.75 163.88 134.403 163.967 134.49C164.053 134.664 165.267 139.002 166.653 144.209L169.167 153.754L176.1 159.741C179.913 163.038 184.073 166.509 185.46 167.464L187.973 169.286L187.367 165.468C187.02 163.385 185.46 155.229 183.987 147.333C182.427 139.436 181.387 132.755 181.647 132.494C181.907 132.234 187.28 131.28 193.433 130.499L204.7 129.11L211.807 121.474C215.707 117.309 218.913 113.665 219 113.231C219 112.884 209.12 112.623 197.16 112.623H175.233L166.567 90.7567C161.453 77.9144 155.3 64.0308 151.487 57.089C143.773 42.945 131.38 21.8593 129.127 19.0825L127.48 17L119.593 30.363ZM135.54 73.6625C141.953 83.4678 155.733 110.541 155.733 113.491C155.733 114.012 152.787 114.359 148.107 114.359H140.48L137.273 106.723C133.287 97.6118 128.78 89.9758 127.567 90.3229C127.133 90.4097 124.013 95.8763 120.807 102.471L114.913 114.359H107.2C100.18 114.359 99.4867 114.185 100.007 112.797C102.52 105.855 114.653 82.4266 120.46 73.4022C124.36 67.3281 127.653 62.2953 127.827 62.2953C127.913 62.2953 131.38 67.4149 135.54 73.6625Z" fill="#FADA49"/>
</g>
<defs>
<clipPath id="clip0_11_1866">
<rect width="256" height="256" fill="white"/>
</clipPath>
</defs>
</svg>
