<?xml version="1.0" standalone="no"?>
<!DOCTYPE svg PUBLIC "-//W3C//DTD SVG 20010904//EN"
 "http://www.w3.org/TR/2001/REC-SVG-20010904/DTD/svg10.dtd">
<svg version="1.0" xmlns="http://www.w3.org/2000/svg"
 width="256.000000pt" height="256.000000pt" viewBox="0 0 256.000000 256.000000"
 preserveAspectRatio="xMidYMid meet">

<g transform="translate(0.000000,256.000000) scale(0.100000,-0.100000)"
fill="#000000" stroke="none">
<path d="M1183 2408 c-203 -341 -236 -408 -395 -808 l-54 -135 -252 -3 c-139
-1 -252 -6 -252 -11 0 -5 37 -48 83 -96 l82 -86 133 -17 c105 -13 132 -20 132
-32 0 -8 -16 -98 -35 -199 -19 -100 -35 -190 -35 -198 0 -17 43 14 151 109
l67 58 27 111 28 111 51 -5 c28 -3 90 -9 139 -13 48 -4 87 -8 87 -9 0 -45 95
-999 105 -1064 27 -159 43 -157 69 9 15 95 60 545 87 870 5 69 12 139 14 156
l5 30 136 12 c75 7 138 11 139 10 1 -2 15 -52 31 -112 l29 -110 80 -69 c44
-38 92 -78 108 -89 l29 -21 -7 44 c-4 24 -22 118 -39 209 -18 91 -30 168 -27
171 3 3 65 14 136 23 l130 16 82 88 c45 48 82 90 83 95 0 4 -114 7 -252 7
l-253 0 -100 252 c-59 148 -130 308 -174 388 -89 163 -232 406 -258 438 l-19
24 -91 -154z m184 -499 c74 -113 233 -425 233 -459 0 -6 -34 -10 -88 -10 l-88
0 -37 88 c-46 105 -98 193 -112 189 -5 -1 -41 -64 -78 -140 l-68 -137 -89 0
c-81 0 -89 2 -83 18 29 80 169 350 236 454 45 70 83 128 85 128 1 0 41 -59 89
-131z"/>
</g>
</svg>
