<?xml version="1.0" standalone="no"?>
<!DOCTYPE svg PUBLIC "-//W3C//DTD SVG 20010904//EN"
 "http://www.w3.org/TR/2001/REC-SVG-20010904/DTD/svg10.dtd">
<svg version="1.0" xmlns="http://www.w3.org/2000/svg"
 width="592.000000pt" height="422.000000pt" viewBox="0 0 592.000000 422.000000"
 preserveAspectRatio="xMidYMid meet">

<g transform="translate(0.000000,422.000000) scale(0.100000,-0.100000)"
fill="#000000" stroke="none">
<path d="M3054 2918 c-11 -13 -82 -122 -158 -243 -76 -121 -166 -264 -200
-317 -33 -53 -159 -255 -280 -450 -424 -687 -473 -764 -549 -880 -43 -65 -80
-124 -83 -131 -11 -30 56 -47 183 -47 102 0 122 3 135 18 17 20 268 420 268
427 0 5 237 382 371 590 50 77 93 146 97 154 3 8 100 167 216 353 334 535 326
522 314 535 -7 9 -51 13 -152 13 -135 0 -144 -1 -162 -22z"/>
<path d="M3423 2635 c-15 -26 -46 -75 -68 -109 -38 -58 -91 -145 -148 -245
l-25 -43 31 -52 c17 -28 40 -67 52 -86 12 -19 82 -136 155 -260 73 -124 139
-235 147 -247 7 -12 13 -27 13 -33 0 -7 -129 -10 -394 -10 l-394 0 -30 -37
c-57 -74 -192 -310 -192 -337 0 -14 63 -16 628 -16 l627 0 60 -106 c33 -58 74
-124 91 -147 l30 -42 279 -3 c341 -3 335 -5 270 96 -24 37 -56 85 -72 107 -28
41 -228 358 -311 495 -25 41 -66 107 -91 146 -25 40 -111 176 -191 303 -80
128 -173 276 -207 329 -34 53 -94 147 -133 209 -39 61 -78 117 -85 123 -12 10
-20 3 -42 -35z"/>
<path d="M2498 2572 l-138 -3 -38 -52 c-36 -50 -144 -219 -192 -302 -13 -22
-120 -195 -238 -385 -118 -190 -255 -410 -305 -490 -49 -80 -122 -194 -162
-255 -111 -170 -127 -199 -113 -213 8 -8 57 -12 148 -12 118 0 139 2 152 18 8
9 79 121 158 247 79 127 147 232 151 235 3 3 16 24 28 48 12 23 54 93 93 155
131 207 364 580 473 757 59 96 116 188 127 204 32 45 14 51 -144 48z"/>
<path d="M1212 1513 c-10 -16 -55 -86 -99 -158 -208 -336 -276 -450 -277 -464
-1 -14 18 -16 138 -19 86 -2 143 1 151 8 7 6 55 79 106 163 51 83 139 226 196
316 56 91 100 168 97 173 -3 4 -70 8 -149 8 l-144 0 -19 -27z"/>
</g>
</svg>
