<svg width="256" height="256" viewBox="0 0 256 256" fill="none" xmlns="http://www.w3.org/2000/svg">
<mask id="mask0_5872:56045" style="mask-type:alpha" maskUnits="userSpaceOnUse" x="22" y="41" width="212" height="188">
<path d="M126.88 228.52C106.574 228.52 22.6465 126.706 22.6465 111.869C22.6465 97.0328 39.6992 59.7007 55.751 49.5481C71.8027 39.3954 175.765 39.3954 200.719 49.5481C225.672 59.7007 233.863 97.0276 233.329 111.869C232.794 126.711 147.187 228.52 126.88 228.52Z" fill="white"/>
</mask>
<g mask="url(#mask0_5872:56045)">
<path d="M126.88 228.52C106.574 228.52 22.6465 126.706 22.6465 111.869C22.6465 97.0328 39.6992 59.7007 55.751 49.5481C71.8027 39.3954 175.765 39.3954 200.719 49.5481C225.672 59.7007 233.863 97.0276 233.329 111.869C232.794 126.711 147.187 228.52 126.88 228.52Z" fill="url(#paint0_linear_5872:56045)"/>
<path fill-rule="evenodd" clip-rule="evenodd" d="M88.5605 133.072L127.048 234.41L167.454 132.453L125.03 135.375L88.5605 133.072Z" fill="url(#paint1_linear_5872:56045)"/>
<path fill-rule="evenodd" clip-rule="evenodd" d="M201.3 48.3027L235.813 61.2883L233.572 112.783L167.453 132.453L128.242 59.0494L201.3 48.3027Z" fill="url(#paint2_linear_5872:56045)"/>
<path fill-rule="evenodd" clip-rule="evenodd" d="M166.843 131.058L126.053 233.685C149.242 224.814 171.178 208.307 191.861 184.163C212.544 160.02 228.624 134.445 240.099 107.439C226.701 113.958 214.047 119.058 202.139 122.742C190.231 126.425 178.466 129.198 166.843 131.058Z" fill="url(#paint3_linear_5872:56045)"/>
<path fill-rule="evenodd" clip-rule="evenodd" d="M127.119 57.6426L89.4238 132.86C101.343 134.464 113.883 135.266 127.047 135.266C140.21 135.266 153.4 134.057 166.618 131.64L127.119 57.6426Z" fill="url(#paint4_linear_5872:56045)"/>
<path d="M16.8145 108.471C48.5344 127.009 85.2783 135.928 127.046 135.228C168.814 134.527 206.421 125.608 239.868 108.471" stroke="url(#paint5_linear_5872:56045)" stroke-width="2.37652" stroke-linecap="round" stroke-linejoin="round"/>
<path fill-rule="evenodd" clip-rule="evenodd" d="M55.75 49.5488L127.046 234.409L200.718 49.5488C175.372 55.2085 150.814 58.0383 127.046 58.0383C103.277 58.0383 79.5117 55.2085 55.75 49.5488Z" stroke="url(#paint6_radial_5872:56045)" stroke-width="2.37652" stroke-linecap="round" stroke-linejoin="round"/>
<path fill-rule="evenodd" clip-rule="evenodd" d="M88.7597 131.725C78.9001 130.652 67.6342 128.046 54.962 123.908C42.2897 119.769 29.6364 114.391 17.002 107.773C30.4462 135.239 45.5643 158.7 62.3562 178.159C79.1482 197.617 100.991 216.126 127.885 233.686L88.7597 131.725Z" fill="url(#paint7_linear_5872:56045)"/>
<path fill-rule="evenodd" clip-rule="evenodd" d="M127.884 41.9351C93.1283 41.6363 53.9084 43.0342 53.6768 47.4685C53.4472 51.9029 91.7865 58.8537 126.901 59.1556C162.015 59.4574 202.845 52.3488 203.049 48.4425C203.251 44.5361 162.641 42.2338 127.884 41.9351Z" fill="url(#paint8_linear_5872:56045)"/>
</g>
<defs>
<linearGradient id="paint0_linear_5872:56045" x1="56.5353" y1="69.05" x2="168.216" y2="183.262" gradientUnits="userSpaceOnUse">
<stop stop-color="#64C5FB"/>
<stop offset="1" stop-color="#0040F2"/>
</linearGradient>
<linearGradient id="paint1_linear_5872:56045" x1="112.315" y1="149.949" x2="143.595" y2="162.216" gradientUnits="userSpaceOnUse">
<stop stop-color="#1E9CFF" stop-opacity="0.426573"/>
<stop offset="1" stop-color="#023DE0"/>
</linearGradient>
<linearGradient id="paint2_linear_5872:56045" x1="159.705" y1="78.3361" x2="205.51" y2="94.8102" gradientUnits="userSpaceOnUse">
<stop stop-color="#1E9CFF" stop-opacity="0.426573"/>
<stop offset="1" stop-color="#023DE0"/>
</linearGradient>
<linearGradient id="paint3_linear_5872:56045" x1="124.183" y1="122.264" x2="195.889" y2="158.935" gradientUnits="userSpaceOnUse">
<stop stop-color="#0432D1" stop-opacity="0"/>
<stop offset="1" stop-opacity="0.328671"/>
</linearGradient>
<linearGradient id="paint4_linear_5872:56045" x1="128.021" y1="129.351" x2="128.021" y2="57.6426" gradientUnits="userSpaceOnUse">
<stop stop-color="#CBE9FD" stop-opacity="0.545455"/>
<stop offset="1" stop-color="#9CCFFB" stop-opacity="0.0979021"/>
</linearGradient>
<linearGradient id="paint5_linear_5872:56045" x1="23.3606" y1="112.335" x2="232.227" y2="112.335" gradientUnits="userSpaceOnUse">
<stop stop-color="#ABD9FD"/>
<stop offset="0.508584" stop-color="#9CCFFB"/>
<stop offset="1" stop-color="#0545EB"/>
</linearGradient>
<radialGradient id="paint6_radial_5872:56045" cx="0" cy="0" r="1" gradientUnits="userSpaceOnUse" gradientTransform="translate(-22.5278 136.914) rotate(90) scale(104.994 99.3591)">
<stop stop-color="#9CCFFB"/>
<stop offset="1" stop-color="#9DD0FB" stop-opacity="0.153846"/>
</radialGradient>
<linearGradient id="paint7_linear_5872:56045" x1="86.6556" y1="125.56" x2="52.4032" y2="197.817" gradientUnits="userSpaceOnUse">
<stop stop-color="#CBE9FD"/>
<stop offset="1" stop-color="#9CCFFB" stop-opacity="0.0979021"/>
</linearGradient>
<linearGradient id="paint8_linear_5872:56045" x1="128.363" y1="59.1649" x2="128.363" y2="17.4815" gradientUnits="userSpaceOnUse">
<stop stop-color="#CBE9FD" stop-opacity="0.461538"/>
<stop offset="1" stop-color="#156CF0" stop-opacity="0"/>
</linearGradient>
</defs>
</svg>
