<svg xmlns="http://www.w3.org/2000/svg" width="256px" height="256px" viewBox="0 0 192 192"><defs><style>.cls-1{fill:#fff;}</style></defs><title>icon</title><g id="Layer_2" data-name="Layer 2"><g id="Layer_1-2" data-name="Layer 1"><g id="Layer_2-2" data-name="Layer 2"><g id="Layer_1-2-2" data-name="Layer 1-2"><path class="cls-1" d="M0,192V0H192V192Zm28.83-25.65c5.56,0,10-.28,14.46.08,4,.34,5.94-1.32,7.57-4.88,13.74-30,27.66-59.86,41.54-89.77.65-1.4,1.45-2.74,2.72-5.12,2.86,6,5.12,11,7.71,15.9a8.18,8.18,0,0,1,.08,8.06Q86.16,126.26,69.65,162c-.55,1.18-1,2.41-1.61,3.93h95c0-.66.14-.94,0-1.13-5.72-12-11.38-24.07-17.29-36-.58-1.17-2.71-2.11-4.18-2.2-4.58-.28-9.2-.11-13.81-.11-11.56,0-11.56,0-16.25,10.57-1.54,3.46-1.29,3.92,2.41,4,4.85.07,9.71-.07,14.56.1,1.37.05,3.31.43,4,1.36,1.64,2.4,2.69,5.19,4.25,8.4H94.93l20.32-42.45,1.18.29A54.9,54.9,0,0,1,119.1,114c1.1,2.81,2.9,4,6,3.84,3.48-.23,7,0,10.46-.06,4.67,0,4.93-.4,2.92-4.61q-19.93-41.53-39.9-83.11a46.17,46.17,0,0,0-2.51-4Z"/><path d="M28.83,166.35,96.07,26c1.19,1.9,2,2.92,2.51,4q20,41.57,39.89,83.13c2,4.21,1.75,4.59-2.92,4.61-3.49,0-7-.17-10.46.06-3.09.2-4.89-1-6-3.84a54.07,54.07,0,0,0-2.67-5.26l-1.18-.29L94.93,150.92h41.78c-1.56-3.21-2.61-6-4.25-8.4-.64-.93-2.58-1.31-4-1.36-4.85-.17-9.71,0-14.56-.1-3.7-.06-4-.52-2.41-4,4.69-10.57,4.69-10.57,16.25-10.57,4.61,0,9.23-.17,13.81.11,1.47.09,3.6,1,4.18,2.2,5.91,11.93,11.57,24,17.29,36,.09.19,0,.47,0,1.13H68c.62-1.52,1.06-2.75,1.61-3.93q16.59-35.72,33.26-71.4a8.18,8.18,0,0,0-.08-8.06c-2.59-4.89-4.85-10-7.71-15.9C93.81,69,93,70.36,92.36,71.76c-13.88,29.91-27.8,59.8-41.54,89.77-1.63,3.56-3.53,5.22-7.57,4.88C38.87,166.07,34.39,166.35,28.83,166.35Z"/></g></g></g></g></svg>