<svg xmlns="http://www.w3.org/2000/svg" viewBox="0 0 134.28 140.45"><title>icon</title><g id="Layer_2" data-name="Layer 2"><g id="Layer_1-2" data-name="Layer 1"><path d="M0,140.33C22.58,93.21,44.69,47.06,67.25,0c1.18,1.9,2,2.91,2.5,4q20,41.55,39.89,83.13c2,4.21,1.76,4.59-2.92,4.61-3.48,0-7-.17-10.45,0-3.1.21-4.9-1-6-3.84a56.28,56.28,0,0,0-2.67-5.25l-1.19-.29c-6.68,13.94-13.35,27.89-20.32,42.44h41.78c-1.56-3.2-2.61-6-4.25-8.39-.64-.93-2.58-1.31-3.95-1.36-4.85-.17-9.7,0-14.56-.11-3.7,0-3.94-.52-2.41-4C87.4,100.49,87.4,100.49,99,100.49c4.6,0,9.22-.17,13.81.11,1.47.09,3.59,1,4.17,2.2,5.92,11.92,11.58,24,17.29,36,.09.19,0,.47,0,1.13h-95c.62-1.53,1.06-2.76,1.61-3.93q16.59-35.73,33.26-71.4A8.13,8.13,0,0,0,74,56.54c-2.59-4.89-4.85-9.95-7.71-15.9C65,43,64.23,44.35,63.58,45.76Q42.75,90.61,22,135.53c-1.62,3.55-3.53,5.21-7.57,4.88C10,140.05,5.57,140.33,0,140.33Z"/></g></g></svg>