<svg id="Layer_1" data-name="Layer 1" xmlns="http://www.w3.org/2000/svg" xmlns:xlink="http://www.w3.org/1999/xlink" width="432.27" height="432.32" viewBox="0 0 432.27 432.32"><defs><style>.cls-1,.cls-2{fill-rule:evenodd;}.cls-2{fill:url(#linear-gradient);}</style><linearGradient id="linear-gradient" x1="57835.49" y1="-77981.53" x2="47089.46" y2="-88543.5" gradientTransform="matrix(0.03, 0, 0, -0.03, -1268.06, -2141.51)" gradientUnits="userSpaceOnUse"><stop offset="0" stop-color="#a98859"/><stop offset="0.51" stop-color="#f6e7ab"/><stop offset="1" stop-color="#a98859"/></linearGradient></defs><path class="cls-1" d="M216.14,1.7C335.5,1.7,432.27,98.1,432.27,217S335.5,432.32,216.14,432.32,0,335.92,0,217,96.77,1.7,216.14,1.7Zm-85.44,148c53.77-63.24,153.09-55.1,197.63,15.65C253.5,145.07,228,179,268.63,249.67c21,36.54,75.54,42.38,117,35.63a183.18,183.18,0,0,0,14.26-71.09c0-101.51-82.29-183.82-183.76-183.82S32.38,112.68,32.38,214.21a183.5,183.5,0,0,0,13.18,68.51c37-16.81,54.22-65,59.61-83.48,6-20.47,11.79-33.33,25.57-49.55ZM216,15.56c111.23,0,201.37,90.17,201.37,201.42S327.22,418.4,216,418.4,14.65,328.23,14.65,217,104.82,15.56,216,15.56Z"/><path class="cls-2" d="M216.14,0C335.5,0,432.27,96.4,432.27,215.31S335.5,430.62,216.14,430.62,0,334.22,0,215.31,96.77,0,216.14,0ZM130.7,148c53.77-63.24,153.09-55.1,197.63,15.65C253.5,143.37,228,177.27,268.63,248c21,36.54,75.54,42.38,117,35.63a183.18,183.18,0,0,0,14.26-71.09C399.9,111,317.61,28.69,216.14,28.69S32.38,111,32.38,212.51A183.5,183.5,0,0,0,45.56,281c37-16.81,54.22-65,59.61-83.48,6-20.47,11.79-33.33,25.57-49.55ZM216,13.86c111.23,0,201.37,90.17,201.37,201.42S327.22,416.7,216,416.7,14.65,326.53,14.65,215.28,104.82,13.86,216,13.86Z"/></svg>