<?xml version="1.0" standalone="no"?>
<!DOCTYPE svg PUBLIC "-//W3C//DTD SVG 20010904//EN"
 "http://www.w3.org/TR/2001/REC-SVG-20010904/DTD/svg10.dtd">
<svg version="1.0" xmlns="http://www.w3.org/2000/svg"
 width="256.000000pt" height="256.000000pt" viewBox="0 0 256.000000 256.000000"
 preserveAspectRatio="xMidYMid meet">

<g transform="translate(0.000000,256.000000) scale(0.100000,-0.100000)"
fill="#000000" stroke="none">
<path d="M1319 1624 c-33 -40 -547 -870 -543 -876 3 -5 33 -8 68 -8 l63 0 276
442 c152 243 274 445 271 450 -10 16 -121 9 -135 -8z"/>
<path d="M1453 1462 c-18 -31 -42 -73 -54 -93 l-21 -35 86 -143 c47 -78 86
-144 86 -147 0 -2 -76 -4 -168 -4 -148 0 -171 -2 -184 -17 -15 -18 -88 -140
-88 -149 0 -2 123 -4 273 -4 l272 0 38 -65 38 -65 124 0 c94 0 125 3 124 13 0
16 -471 760 -484 764 -5 1 -25 -23 -42 -55z"/>
<path d="M1002 1453 c-11 -16 -48 -75 -84 -133 -35 -58 -128 -207 -206 -331
-78 -125 -142 -232 -142 -238 0 -7 22 -11 58 -11 44 0 63 5 74 18 8 9 67 100
130 202 63 102 160 258 216 347 56 90 102 165 102 168 0 3 -29 5 -64 5 -59 0
-66 -2 -84 -27z"/>
<path d="M516 1008 c-7 -13 -46 -74 -85 -136 -39 -62 -71 -115 -71 -117 0 -3
29 -5 64 -5 l63 0 73 118 c41 64 80 127 88 140 l14 22 -66 0 c-57 0 -67 -3
-80 -22z"/>
</g>
</svg>
