<svg width="256" height="256" viewBox="0 0 256 256" fill="none" xmlns="http://www.w3.org/2000/svg">
<path d="M256 0H0V256H256V0Z" fill="#FDEC09"/>
<path d="M141.14 167.22C141.14 158.54 141.13 149.85 141.15 141.17C141.15 140.53 140.99 140.39 140.37 140.39C123.02 140.41 105.68 140.4 88.3298 140.42C87.6998 140.42 87.5498 140.27 87.5498 139.64C87.5698 113.37 87.5698 87.1 87.5498 60.83C87.5498 60.2 87.6498 60 88.3498 60C114.62 60.02 140.89 60.02 167.16 60C167.79 60 167.95 60.15 167.95 60.79C167.93 96 167.93 131.22 167.95 166.43C167.95 167.04 167.83 167.22 167.18 167.22C158.5 167.19 149.81 167.2 141.13 167.2L141.14 167.22ZM127.73 86.82C123.48 86.82 119.22 86.83 114.97 86.81C114.47 86.81 114.31 86.92 114.32 87.45C114.34 95.96 114.34 104.46 114.32 112.97C114.32 113.46 114.4 113.64 114.95 113.64C123.48 113.62 132.01 113.62 140.54 113.64C141.04 113.64 141.15 113.5 141.14 113.02C141.13 104.49 141.12 95.96 141.14 87.44C141.14 86.9 140.96 86.82 140.48 86.82C136.24 86.83 131.99 86.82 127.73 86.82Z" fill="#010101"/>
<path d="M141.13 167.21C141.14 168.91 141.15 170.61 141.15 172.31C141.15 179.29 141.14 186.27 141.16 193.26C141.16 193.82 141.07 194.03 140.43 194.03C123.04 194.01 105.65 194.01 88.2598 194.03C87.6698 194.03 87.5498 193.87 87.5498 193.31C87.5698 184.82 87.5598 176.34 87.5598 167.85C87.5598 167.44 87.5498 167.19 88.1198 167.2C105.68 167.22 123.25 167.21 140.81 167.22C140.92 167.22 141.03 167.23 141.14 167.24C141.14 167.22 141.13 167.21 141.13 167.21Z" fill="#010101"/>
</svg>
