<svg id="Layer_1" data-name="Layer 1" xmlns="http://www.w3.org/2000/svg" xmlns:xlink="http://www.w3.org/1999/xlink" viewBox="0 0 64 64"><defs><style>.cls-1{fill:#000223;}.cls-2{fill:url(#Gold);}</style><linearGradient id="Gold" x1="-43.14" y1="-9.21" x2="89.57" y2="63.57" gradientUnits="userSpaceOnUse"><stop offset="0.01" stop-color="#fbc926"/><stop offset="0.25" stop-color="#fffbcc"/><stop offset="0.3" stop-color="#f8f0bb"/><stop offset="0.41" stop-color="#e7d28e"/><stop offset="0.55" stop-color="#cca246"/><stop offset="0.6" stop-color="#c3922e"/><stop offset="0.87" stop-color="#eed688"/><stop offset="1" stop-color="#fffbcc"/></linearGradient></defs><rect class="cls-1" width="64" height="64"/><path class="cls-2" d="M47.84,20.64l1.91,1.11V24l-3.83,2.21V24L44,22.86,32,15.93,20,22.86l1.15.66L23,24.57l9-5.21,9.21,5.32-2.86,1.65-.43.25L32,23.16l-5.92,3.42-.09.05-1.64.95v8.84l1.64.95.09.05L32,40.84l5.92-3.42.09-.05,1.64-.95V33.74H32V30.26H42.94v5.61l3,2L49.75,40v2.22l-1.91,1.11L32,52.5,16.16,43.36l-1.91-1.11V40h0l3.84-2.21V40L20,41.14l12,6.93,12-6.93-2.78-1.81h0L32,44.64l-9.21-5.32-.09,0-1.64-1V27.9l-1.83-1.06-1.14-.66L14.25,24V21.75l1.91-1.11L32,11.5ZM17.92,36V27.58l-3.67-1.84V37.83h0Zm28,0,3.84,2.15V25.74l-3.84,2.19Zm15-4A28.91,28.91,0,1,1,32,3.09,28.94,28.94,0,0,1,60.91,32Zm-1,0A27.86,27.86,0,1,0,32,59.86,27.89,27.89,0,0,0,59.86,32Z"/></svg>