<svg id="Layer_1" data-name="Layer 1" xmlns="http://www.w3.org/2000/svg" xmlns:xlink="http://www.w3.org/1999/xlink" viewBox="0 0 1280 960"><defs><style>.cls-1{fill:#fc0;}.cls-2{fill:#c90;}.cls-3{fill:#ecbd00;}.cls-4{fill:#ffe000;}.cls-5{fill:#fff200;}.cls-6{fill:#b8860b;}.cls-7{fill:#fff;}.cls-8{opacity:0.15;}.cls-10,.cls-11,.cls-12,.cls-13,.cls-14,.cls-15,.cls-16,.cls-17,.cls-18,.cls-19,.cls-20,.cls-21,.cls-22,.cls-23,.cls-24,.cls-25,.cls-26,.cls-27,.cls-28,.cls-29,.cls-30,.cls-31,.cls-32,.cls-33,.cls-34,.cls-35,.cls-36,.cls-37,.cls-38,.cls-39,.cls-40,.cls-41,.cls-42,.cls-43,.cls-44,.cls-45,.cls-46,.cls-47,.cls-48,.cls-9{fill-rule:evenodd;}.cls-9{fill:url(#radial-gradient);}.cls-10{fill:url(#radial-gradient-2);}.cls-11{fill:url(#radial-gradient-3);}.cls-12{fill:url(#radial-gradient-4);}.cls-13{fill:url(#radial-gradient-5);}.cls-14{fill:url(#radial-gradient-6);}.cls-15{fill:url(#radial-gradient-7);}.cls-16{fill:url(#radial-gradient-8);}.cls-17{fill:url(#radial-gradient-9);}.cls-18{fill:url(#radial-gradient-10);}.cls-19{fill:url(#radial-gradient-11);}.cls-20{fill:url(#radial-gradient-12);}.cls-21{fill:url(#radial-gradient-13);}.cls-22{fill:url(#radial-gradient-14);}.cls-23{fill:url(#radial-gradient-15);}.cls-24{fill:url(#radial-gradient-16);}.cls-25{fill:url(#radial-gradient-17);}.cls-26{fill:url(#radial-gradient-18);}.cls-27{fill:url(#radial-gradient-19);}.cls-28{fill:url(#radial-gradient-20);}.cls-29{fill:url(#radial-gradient-21);}.cls-30{fill:url(#radial-gradient-22);}.cls-31{fill:url(#radial-gradient-23);}.cls-32{fill:url(#radial-gradient-24);}.cls-33{fill:url(#radial-gradient-25);}.cls-34{fill:url(#radial-gradient-26);}.cls-35{fill:url(#radial-gradient-27);}.cls-36{fill:url(#radial-gradient-28);}.cls-37{fill:url(#radial-gradient-29);}.cls-38{fill:url(#radial-gradient-30);}.cls-39{fill:url(#radial-gradient-31);}.cls-40{fill:url(#radial-gradient-32);}.cls-41{fill:url(#radial-gradient-33);}.cls-42{fill:url(#radial-gradient-34);}.cls-43{fill:url(#radial-gradient-35);}.cls-44{fill:url(#radial-gradient-36);}.cls-45{fill:url(#radial-gradient-37);}.cls-46{fill:url(#radial-gradient-38);}.cls-47{fill:url(#radial-gradient-39);}.cls-48{fill:url(#radial-gradient-40);}</style><radialGradient id="radial-gradient" cx="72316.88" cy="-2712.54" r="25.27" gradientTransform="matrix(0.05, 0.04, -0.61, 0.79, -4620.87, -115.19)" gradientUnits="userSpaceOnUse"><stop offset="0" stop-color="#fff"/><stop offset="1" stop-color="#fff" stop-opacity="0"/></radialGradient><radialGradient id="radial-gradient-2" cx="-54048.37" cy="-4486.32" r="25.23" gradientTransform="matrix(-0.04, 0.05, -0.79, -0.61, -5017.14, 371.97)" xlink:href="#radial-gradient"/><radialGradient id="radial-gradient-3" cx="15102.85" cy="-5216.18" r="9.67" gradientTransform="matrix(0.01, 0.06, -0.99, 0.13, -4717.75, 209.96)" xlink:href="#radial-gradient"/><radialGradient id="radial-gradient-4" cx="-94637.3" cy="-949.87" r="9.66" gradientTransform="matrix(-0.06, 0.01, -0.13, -0.99, -5342.28, 275.11)" xlink:href="#radial-gradient"/><radialGradient id="radial-gradient-5" cx="-434.89" cy="-2711.03" r="5.82" gradientTransform="translate(-723.29 2859.55) rotate(37.36)" gradientUnits="userSpaceOnUse"><stop offset="0" stop-color="#fff"/><stop offset="0.07" stop-color="#fff" stop-opacity="0.88"/><stop offset="0.24" stop-color="#fff" stop-opacity="0.61"/><stop offset="0.39" stop-color="#fff" stop-opacity="0.39"/><stop offset="0.53" stop-color="#fff" stop-opacity="0.22"/><stop offset="0.66" stop-color="#fff" stop-opacity="0.1"/><stop offset="0.77" stop-color="#fff" stop-opacity="0.03"/><stop offset="0.84" stop-color="#fff" stop-opacity="0"/></radialGradient><radialGradient id="radial-gradient-6" cx="73119.9" cy="-2880.51" r="25.27" xlink:href="#radial-gradient"/><radialGradient id="radial-gradient-7" cx="-56766.93" cy="-4535.89" r="25.23" gradientTransform="matrix(-0.04, 0.05, -0.79, -0.61, -5017.14, 371.97)" xlink:href="#radial-gradient"/><radialGradient id="radial-gradient-8" cx="13747.58" cy="-5370.01" r="9.67" gradientTransform="matrix(0.01, 0.06, -0.99, 0.13, -4717.75, 209.96)" xlink:href="#radial-gradient"/><radialGradient id="radial-gradient-9" cx="-97128.85" cy="-866.16" r="9.66" gradientTransform="matrix(-0.06, 0.01, -0.13, -0.99, -5342.28, 275.11)" xlink:href="#radial-gradient"/><radialGradient id="radial-gradient-10" cx="-385.28" cy="-2878.98" r="5.82" xlink:href="#radial-gradient-5"/><radialGradient id="radial-gradient-11" cx="74831.52" cy="-2784.18" r="25.27" xlink:href="#radial-gradient"/><radialGradient id="radial-gradient-12" cx="-55207.27" cy="-4641.66" r="25.23" gradientTransform="matrix(-0.04, 0.05, -0.79, -0.61, -5017.14, 371.97)" xlink:href="#radial-gradient"/><radialGradient id="radial-gradient-13" cx="16062.06" cy="-5376.68" r="9.67" gradientTransform="matrix(0.01, 0.06, -0.99, 0.13, -4717.75, 209.96)" xlink:href="#radial-gradient"/><radialGradient id="radial-gradient-14" cx="-97236.37" cy="-1009.07" r="9.66" gradientTransform="matrix(-0.06, 0.01, -0.13, -0.99, -5342.28, 275.11)" xlink:href="#radial-gradient"/><radialGradient id="radial-gradient-15" cx="-279.54" cy="-2782.63" r="5.82" xlink:href="#radial-gradient-5"/><radialGradient id="radial-gradient-16" cx="72530.88" cy="-2786.83" r="14.76" xlink:href="#radial-gradient"/><radialGradient id="radial-gradient-17" cx="-55250.76" cy="-4499.52" r="14.73" gradientTransform="matrix(-0.04, 0.05, -0.79, -0.61, -5017.14, 371.97)" xlink:href="#radial-gradient"/><radialGradient id="radial-gradient-18" cx="14403.55" cy="-5278.05" r="5.65" gradientTransform="matrix(0.01, 0.06, -0.99, 0.13, -4717.75, 209.96)" xlink:href="#radial-gradient"/><radialGradient id="radial-gradient-19" cx="-95639.42" cy="-906.68" r="5.64" gradientTransform="matrix(-0.06, 0.01, -0.13, -0.99, -5342.28, 275.11)" xlink:href="#radial-gradient"/><radialGradient id="radial-gradient-20" cx="-421.78" cy="-2785.31" r="3.4" xlink:href="#radial-gradient-5"/><radialGradient id="radial-gradient-21" cx="75701.33" cy="-2828.79" r="11.83" xlink:href="#radial-gradient"/><radialGradient id="radial-gradient-22" cx="-55929.29" cy="-4695.38" r="11.81" gradientTransform="matrix(-0.04, 0.05, -0.79, -0.61, -5017.14, 371.97)" xlink:href="#radial-gradient"/><radialGradient id="radial-gradient-23" cx="16166.61" cy="-5446.22" r="4.53" gradientTransform="matrix(0.01, 0.06, -0.99, 0.13, -4717.75, 209.96)" xlink:href="#radial-gradient"/><radialGradient id="radial-gradient-24" cx="-98362.62" cy="-1015.51" r="4.52" gradientTransform="matrix(-0.06, 0.01, -0.13, -0.99, -5342.28, 275.11)" xlink:href="#radial-gradient"/><radialGradient id="radial-gradient-25" cx="-225.95" cy="-2827.23" r="2.72" xlink:href="#radial-gradient-5"/><radialGradient id="radial-gradient-26" cx="76272.55" cy="-2761.5" r="11.83" xlink:href="#radial-gradient"/><radialGradient id="radial-gradient-27" cx="-54839.85" cy="-4730.69" r="11.81" gradientTransform="matrix(-0.04, 0.05, -0.79, -0.61, -5017.14, 371.97)" xlink:href="#radial-gradient"/><radialGradient id="radial-gradient-28" cx="17341.55" cy="-5423.6" r="4.53" gradientTransform="matrix(0.01, 0.06, -0.99, 0.13, -4717.75, 209.96)" xlink:href="#radial-gradient"/><radialGradient id="radial-gradient-29" cx="-97995.97" cy="-1088.07" r="4.52" gradientTransform="matrix(-0.06, 0.01, -0.13, -0.99, -5342.28, 275.11)" xlink:href="#radial-gradient"/><radialGradient id="radial-gradient-30" cx="-190.66" cy="-2759.93" r="2.72" xlink:href="#radial-gradient-5"/><radialGradient id="radial-gradient-31" cx="73686.07" cy="-2784.24" r="25.27" xlink:href="#radial-gradient"/><radialGradient id="radial-gradient-32" cx="-55208.65" cy="-4570.89" r="25.23" gradientTransform="matrix(-0.04, 0.05, -0.79, -0.61, -5017.14, 371.97)" xlink:href="#radial-gradient"/><radialGradient id="radial-gradient-33" cx="15250.66" cy="-5326.68" r="9.67" gradientTransform="matrix(0.01, 0.06, -0.99, 0.13, -4717.75, 209.96)" xlink:href="#radial-gradient"/><radialGradient id="radial-gradient-34" cx="-96426.93" cy="-958.98" r="9.66" gradientTransform="matrix(-0.06, 0.01, -0.13, -0.99, -5342.28, 275.11)" xlink:href="#radial-gradient"/><radialGradient id="radial-gradient-35" cx="-350.3" cy="-2782.71" r="5.82" xlink:href="#radial-gradient-5"/><radialGradient id="radial-gradient-36" cx="74177.24" cy="-2851.77" r="25.27" xlink:href="#radial-gradient"/><radialGradient id="radial-gradient-37" cx="-56301.51" cy="-4601.22" r="25.23" gradientTransform="matrix(-0.04, 0.05, -0.79, -0.61, -5017.14, 371.97)" xlink:href="#radial-gradient"/><radialGradient id="radial-gradient-38" cx="14824.96" cy="-5395.88" r="9.67" gradientTransform="matrix(0.01, 0.06, -0.99, 0.13, -4717.75, 209.96)" xlink:href="#radial-gradient"/><radialGradient id="radial-gradient-39" cx="-97547.65" cy="-932.68" r="9.66" gradientTransform="matrix(-0.06, 0.01, -0.13, -0.99, -5342.28, 275.11)" xlink:href="#radial-gradient"/><radialGradient id="radial-gradient-40" cx="-319.96" cy="-2850.23" r="5.82" xlink:href="#radial-gradient-5"/></defs><rect x="-2600" width="3880" height="960"/><path class="cls-1" d="M640,715.24a235.24,235.24,0,1,1,166.34-68.9A233.71,233.71,0,0,1,640,715.24Zm0-452.48c-119.79,0-217.24,97.45-217.24,217.24S520.21,697.24,640,697.24,857.24,599.79,857.24,480,759.79,262.76,640,262.76Z"/><polygon class="cls-2" points="467.63 467.55 503.94 620.93 566.66 567.05 467.63 467.55"/><polygon class="cls-3" points="583.8 485.17 559.9 369.38 467.63 467.55 566.66 567.05 583.8 485.17"/><polygon class="cls-4" points="727.95 314.01 559.9 369.38 583.8 485.17 686.59 427.75 727.95 314.01"/><polygon class="cls-4" points="816.77 472.61 732.57 477.85 671.36 583.26 812.57 559.9 816.77 472.61"/><polygon class="cls-5" points="727.95 314.01 686.59 427.75 732.57 477.85 816.77 472.61 727.95 314.01"/><polygon class="cls-3" points="812.57 559.9 772.06 620.93 671.36 583.26 812.57 559.9"/><polygon class="cls-6" points="566.66 567.05 503.94 620.93 772.06 620.93 671.36 583.26 566.66 567.05"/><polygon class="cls-1" points="671.36 583.26 566.66 567.05 583.8 485.17 686.59 427.75 732.57 477.85 671.36 583.26"/><polygon class="cls-7" points="727.95 472.83 689.86 430.73 727.95 314.01 686.59 427.75 583.8 485.17 686.59 433.71 727.95 480.24 671.36 583.26 732.57 477.85 816.77 472.61 727.95 472.83"/><g class="cls-8"><polygon class="cls-6" points="468.46 465.99 504.76 619.37 567.49 565.5 468.46 465.99"/><polygon class="cls-6" points="813.39 558.35 772.88 619.37 672.18 581.71 813.39 558.35"/><polygon class="cls-6" points="567.49 565.5 504.76 619.37 772.88 619.37 672.18 581.71 567.49 565.5"/><path class="cls-6" d="M672.19,581.71l137-22.67a487.74,487.74,0,0,0-90-58.29Z"/><path class="cls-6" d="M624.46,463.67l-39.84,19.94,37.11-20.73c-9.81-2.8-19.31-5.24-28.39-7.35a640.64,640.64,0,0,0-100.92-15l-24,25.49,99,99.51,104.71,16.21,45-82A556.66,556.66,0,0,0,624.46,463.67Z"/></g><path class="cls-9" d="M577.09,441.45c-8.46,11.08-15.88,19.65-16.56,19.12s5.63-9.93,14.08-21,15.88-19.65,16.57-19.13S585.56,430.36,577.09,441.45Z"/><path class="cls-10" d="M574.91,441.74c-11.09-8.46-19.66-15.88-19.13-16.56s9.94,5.62,21,14.08,19.65,15.88,19.12,16.56S586,450.2,574.91,441.74Z"/><path class="cls-11" d="M575.93,441.09c-5.29.71-9.62,1-9.66.7s4.21-1.17,9.5-1.88,9.63-1,9.66-.69S581.23,440.38,575.93,441.09Z"/><path class="cls-12" d="M575.26,440.58c-.71-5.29-1-9.62-.69-9.66s1.17,4.21,1.87,9.5,1,9.62.7,9.66S576,445.87,575.26,440.58Z"/><path class="cls-13" d="M580.69,444.19a5.81,5.81,0,1,1-1.1-8.15A5.81,5.81,0,0,1,580.69,444.19Z"/><path class="cls-14" d="M718.44,338c-8.46,11.09-15.88,19.65-16.56,19.13s5.63-9.93,14.08-21,15.88-19.64,16.57-19.13S726.91,327,718.44,338Z"/><path class="cls-15" d="M716.26,338.34c-11.09-8.46-19.66-15.88-19.13-16.56s9.94,5.62,21,14.08,19.64,15.88,19.12,16.56S727.34,346.8,716.26,338.34Z"/><path class="cls-16" d="M717.28,337.69c-5.29.71-9.62,1-9.66.7s4.21-1.18,9.5-1.89,9.63-1,9.66-.69S722.57,337,717.28,337.69Z"/><path class="cls-17" d="M716.61,337.18c-.71-5.29-1-9.62-.69-9.67s1.17,4.22,1.87,9.51,1,9.62.7,9.66S717.32,342.47,716.61,337.18Z"/><path class="cls-18" d="M722,340.79a5.82,5.82,0,1,1-1.1-8.15A5.81,5.81,0,0,1,722,340.79Z"/><path class="cls-19" d="M744,478.8c-8.46,11.09-15.88,19.65-16.56,19.13s5.62-9.93,14.07-21,15.89-19.64,16.58-19.13S752.49,467.72,744,478.8Z"/><path class="cls-20" d="M741.85,479.1c-11.09-8.47-19.66-15.88-19.13-16.57s9.94,5.63,21,14.09,19.64,15.88,19.12,16.56S752.93,487.56,741.85,479.1Z"/><path class="cls-21" d="M742.87,478.45c-5.3.71-9.62,1-9.66.7s4.2-1.18,9.5-1.89,9.62-1,9.65-.69S748.16,477.74,742.87,478.45Z"/><path class="cls-22" d="M742.2,477.94c-.71-5.29-1-9.62-.69-9.67s1.16,4.22,1.87,9.5,1,9.63.7,9.67S742.91,483.23,742.2,477.94Z"/><path class="cls-23" d="M747.63,481.55a5.82,5.82,0,1,1-1.1-8.15A5.81,5.81,0,0,1,747.63,481.55Z"/><path class="cls-24" d="M632.16,390c-4.94,6.47-9.27,11.47-9.67,11.16s3.29-5.8,8.22-12.27,9.27-11.47,9.68-11.17S637.1,383.55,632.16,390Z"/><path class="cls-25" d="M630.89,390.2c-6.48-4.94-11.48-9.27-11.17-9.67s5.8,3.28,12.27,8.22,11.47,9.27,11.17,9.67S637.36,395.14,630.89,390.2Z"/><path class="cls-26" d="M631.49,389.82c-3.1.41-5.62.6-5.65.41s2.46-.69,5.55-1.1,5.62-.6,5.64-.41S634.57,389.4,631.49,389.82Z"/><path class="cls-27" d="M631.09,389.52c-.41-3.09-.6-5.62-.4-5.64s.68,2.46,1.09,5.55.6,5.61.41,5.64S631.51,392.61,631.09,389.52Z"/><path class="cls-28" d="M634.26,391.63a3.4,3.4,0,1,1-.64-4.76A3.4,3.4,0,0,1,634.26,391.63Z"/><path class="cls-29" d="M813.15,475.45c-4,5.19-7.43,9.2-7.75,8.95s2.63-4.65,6.59-9.84,7.43-9.19,7.76-8.95S817.12,470.26,813.15,475.45Z"/><path class="cls-30" d="M812.13,475.59c-5.19-4-9.2-7.44-9-7.76s4.65,2.63,9.83,6.59,9.2,7.44,9,7.76S817.32,479.55,812.13,475.59Z"/><path class="cls-31" d="M812.61,475.28a19.07,19.07,0,0,1-4.52.33,18.56,18.56,0,0,1,4.45-.88,19,19,0,0,1,4.51-.33A17.71,17.71,0,0,1,812.61,475.28Z"/><path class="cls-32" d="M812.3,475a18.43,18.43,0,0,1-.33-4.52,18.56,18.56,0,0,1,.88,4.45,19,19,0,0,1,.33,4.52C813,479.51,812.63,477.52,812.3,475Z"/><path class="cls-33" d="M814.84,476.73a2.72,2.72,0,1,1-.52-3.81A2.73,2.73,0,0,1,814.84,476.73Z"/><path class="cls-34" d="M800.36,550.36c-4,5.19-7.43,9.2-7.75,9s2.63-4.65,6.59-9.84,7.43-9.2,7.76-9S804.33,545.17,800.36,550.36Z"/><path class="cls-35" d="M799.34,550.5c-5.19-4-9.2-7.43-9-7.75s4.65,2.63,9.84,6.59,9.19,7.43,8.95,7.75S804.53,554.46,799.34,550.5Z"/><path class="cls-36" d="M799.82,550.2a18.12,18.12,0,0,1-4.52.32,19.16,19.16,0,0,1,4.45-.88,18.64,18.64,0,0,1,4.51-.32A18.26,18.26,0,0,1,799.82,550.2Z"/><path class="cls-37" d="M799.51,550a18.52,18.52,0,0,1-.33-4.53,18.14,18.14,0,0,1,.88,4.45,19.13,19.13,0,0,1,.33,4.53A18.14,18.14,0,0,1,799.51,550Z"/><path class="cls-38" d="M802.05,551.65a2.73,2.73,0,1,1-.52-3.82A2.72,2.72,0,0,1,802.05,551.65Z"/><path class="cls-39" d="M687.83,435.8c-8.46,11.08-15.88,19.64-16.56,19.12s5.62-9.93,14.07-21,15.89-19.64,16.58-19.13S696.29,424.71,687.83,435.8Z"/><path class="cls-40" d="M685.65,436.09c-11.09-8.46-19.66-15.88-19.13-16.56s9.94,5.62,21,14.08,19.64,15.88,19.12,16.56S696.73,444.55,685.65,436.09Z"/><path class="cls-41" d="M686.67,435.44c-5.3.71-9.62,1-9.66.7s4.2-1.17,9.5-1.89,9.62-1,9.65-.68S692,434.73,686.67,435.44Z"/><path class="cls-42" d="M686,434.93c-.71-5.29-1-9.62-.69-9.67s1.16,4.22,1.87,9.51,1,9.62.7,9.66S686.71,440.22,686,434.93Z"/><path class="cls-43" d="M691.43,438.54a5.82,5.82,0,1,1-1.1-8.15A5.81,5.81,0,0,1,691.43,438.54Z"/><path class="cls-44" d="M752.92,400.54c-8.46,11.08-15.88,19.65-16.56,19.12s5.62-9.93,14.07-21S766.32,379,767,379.52,761.38,389.45,752.92,400.54Z"/><path class="cls-45" d="M750.74,400.83c-11.09-8.46-19.66-15.88-19.13-16.56s9.94,5.62,21,14.08,19.64,15.88,19.12,16.56S761.82,409.29,750.74,400.83Z"/><path class="cls-46" d="M751.76,400.18c-5.3.71-9.62,1-9.66.7s4.2-1.17,9.5-1.88,9.62-1,9.65-.69S757.05,399.48,751.76,400.18Z"/><path class="cls-47" d="M751.09,399.67c-.71-5.29-1-9.62-.69-9.66s1.16,4.21,1.87,9.5,1,9.62.7,9.66S751.8,405,751.09,399.67Z"/><path class="cls-48" d="M756.52,403.29a5.82,5.82,0,1,1-1.1-8.16A5.83,5.83,0,0,1,756.52,403.29Z"/></svg>