<?xml version="1.0" encoding="utf-8"?>
<!DOCTYPE svg PUBLIC "-//W3C//DTD SVG 1.0//EN" "http://www.w3.org/TR/2001/REC-SVG-20010904/DTD/svg10.dtd">
<svg version="1.0" xmlns="http://www.w3.org/2000/svg" width="256px" height="256px" viewBox="0 0 256 256" preserveAspectRatio="xMidYMid meet">
 <g fill="#ffffff">
  <path d="M0 197.70 l0 -58.25 1.15 0.15 c1 0.15 1.15 0.50 1.40 4.15 0.90 11.05 5.65 26.60 12.20 40 17.40 35.50 53.75 62.70 92.20 69.05 2.35 0.35 5.15 0.70 6.20 0.70 1.65 0 1.85 0.15 1.85 1.25 l0 1.25 -57.50 0 -57.50 0 0 -58.30z"/>
  <path d="M141 254.80 c0 -1.05 0.25 -1.20 3.40 -1.45 19.65 -1.65 45.90 -13.10 63.35 -27.60 20.90 -17.35 36.15 -41.10 42.80 -66.50 1.60 -6.20 2.95 -13.95 2.95 -17.10 0 -1.95 0.10 -2.15 1.25 -2.15 l1.25 0 0 58 0 58 -57.50 0 -57.50 0 0 -1.20z"/>
  <path d="M91.45 201.05 c-2.25 -0.70 -3.65 -1.60 -6 -3.90 l-2.30 -2.20 -1.90 1.25 c-2.75 1.90 -5.40 2.45 -10.80 2.20 -4.35 -0.15 -5.05 -0.35 -7.05 -1.65 -1.25 -0.85 -3.35 -2.15 -4.70 -3 -1.30 -0.80 -3.70 -2.75 -5.25 -4.25 l-2.90 -2.75 -2.05 2.15 c-6.35 6.75 -19.85 6.85 -26.15 0.20 -1.90 -2 -5.55 -7.35 -6.90 -10.10 -2 -4.10 -5.45 -14.15 -6.95 -20.25 -3.75 -15.30 -4.65 -35.50 -2.25 -50.10 4.50 -27.35 15.25 -48.55 34.25 -67.65 19 -19.10 42.25 -30.90 68.75 -34.85 4.65 -0.70 9.05 -0.90 19.50 -0.90 12 0 14.20 0.15 19.70 1.15 14.10 2.65 23.45 5.65 34.90 11.15 l6.65 3.20 0 1.75 0 1.80 -5.80 1.65 c-6.85 2 -16.50 6.65 -19.75 9.50 -2.90 2.55 -5.50 6.50 -5.45 8.35 0 0.80 0.10 2.60 0.25 3.95 l0.30 2.50 -3.90 1.85 c-4.20 1.95 -9.20 6.10 -11.60 9.60 -2.35 3.40 -3.75 7.90 -3.40 10.95 0.60 5.75 5.10 12.30 11.45 16.60 3.95 2.65 9.65 4.65 15.20 5.35 4.50 0.55 5.15 0.55 10.15 -0.55 2.90 -0.65 6.50 -1.30 7.95 -1.40 l2.65 -0.25 3.65 3.50 c6.45 6.15 15 9.20 25.55 9.15 8.75 0 18.50 -3.30 23.95 -8.15 2.45 -2.10 5.40 -2.65 6 -1.10 0.50 1.25 1.65 7.30 2.80 14.20 1.55 9.50 1.45 26.50 -0.20 37 -1.95 12.15 -4.95 22.50 -9.45 32.50 -1.75 3.85 -9.05 11.50 -12.50 13.05 -2.35 1.10 -3.30 1.20 -10.10 1.20 -7.15 0 -7.60 -0.05 -10.25 -1.35 -1.50 -0.75 -2.80 -1.20 -2.90 -1 -1.05 3 -5.95 7.20 -9.70 8.35 -3.30 0.95 -10 0.95 -13.30 0 -1.70 -0.55 -3.45 -1.60 -5.30 -3.30 l-2.80 -2.55 -3 2.80 c-4 3.65 -6.65 4.45 -13.95 4.20 -4.65 -0.15 -5.55 -0.30 -7.55 -1.50 -1.25 -0.70 -2.90 -2 -3.70 -2.85 l-1.45 -1.50 -2.50 2.20 c-3.40 3.10 -6.40 3.90 -13.30 3.65 -6.05 -0.20 -8.05 -1 -11.95 -5.05 l-2.15 -2.20 -2.80 2.90 c-3.80 4 -6.45 4.95 -13.30 4.90 -2.80 0 -5.70 -0.20 -6.40 -0.40z m-19.85 -11 c2.90 -1.25 6.05 -4.05 7.75 -6.90 1.15 -1.95 1.40 -2.15 3.20 -2.15 1.05 0 1.95 0.20 1.95 0.45 0 0.25 1 1.65 2.20 3.15 2.40 2.95 6.70 5.55 9.95 6.05 2.35 0.35 6.55 -0.85 8.80 -2.55 2.30 -1.70 5.50 -5.15 5.85 -6.20 0.20 -0.65 0.80 -0.90 2 -0.90 1.50 0 2.15 0.50 4.95 3.45 4.15 4.40 7.10 5.80 11.50 5.45 3.80 -0.35 6.30 -1.60 9.50 -4.85 3.40 -3.50 4.65 -3.50 8.25 0.25 4.60 4.65 8.80 6.20 13.50 4.95 3.35 -0.90 6.15 -2.85 8.70 -6.10 1.70 -2.15 2.35 -2.60 3.65 -2.60 1.30 -0.05 1.80 0.25 2.35 1.35 1.05 2.05 5.05 5.55 7.70 6.70 5.30 2.35 10.65 0.85 15.60 -4.45 1.65 -1.75 3 -3.40 3 -3.65 0 -0.30 0.85 -0.50 1.90 -0.50 1.70 0 2.10 0.25 3.55 2.25 1.60 2.20 5.50 5.75 6.35 5.75 0.90 0 6.50 -7.85 7.65 -10.75 0.65 -1.65 2.05 -4.70 3.10 -6.80 l1.90 -3.80 -0.85 -2.45 c-0.45 -1.35 -0.85 -2.50 -0.90 -2.60 -0.05 -0.05 -8.30 2.10 -18.40 4.85 -12.15 3.35 -19.60 5.15 -22.25 5.35 -6.20 0.50 -44.65 -0.80 -45.55 -1.55 -0.40 -0.35 -2.90 -1.20 -5.50 -1.95 -5.10 -1.45 -8.20 -2.75 -10.20 -4.35 -1 -0.80 -1.30 -1.45 -1.30 -3.10 0 -3 1.45 -4.35 4.70 -4.35 3.45 0 8.85 -1.20 11.95 -2.65 3.45 -1.55 7.80 -5.65 9.60 -8.90 3.35 -6.15 3.25 -12.25 -0.30 -19.45 -5.35 -10.85 -18.30 -18.55 -29.95 -17.75 l-4.25 0.30 -4.05 -4.65 c-2.25 -2.55 -6.75 -7.70 -10.05 -11.40 -3.30 -3.70 -7.30 -8.35 -8.95 -10.30 -1.60 -1.95 -6.20 -7.25 -10.20 -11.80 -4 -4.55 -10.60 -12.10 -14.70 -16.85 -4.05 -4.70 -7.60 -8.55 -7.80 -8.55 -0.20 0 -0.65 0.35 -1 0.70 -0.45 0.60 0.45 1.90 5.10 7.20 6.35 7.20 19.15 21.90 25.05 28.75 3.15 3.70 3.85 4.80 3.85 6.20 0 1.50 -0.15 1.65 -1.55 1.65 -1 0 -2.25 -0.60 -3.60 -1.65 -2.50 -2 -23.90 -19 -33.05 -26.25 -3.50 -2.80 -6.60 -5.10 -6.85 -5.10 -0.65 0 -0.90 0.65 -3 7.65 -5.05 16.60 -5.15 23.10 -0.40 32.75 3.50 7.20 12.15 14.95 22.30 20.05 6.30 3.15 26.45 10.30 31.95 11.35 1.50 0.30 1.70 0.50 1.70 1.95 0 2.70 2.95 10.15 4.90 12.35 0.60 0.75 0.70 1.70 0.40 5.20 -0.30 4.35 -1.50 7.95 -3.20 9.90 -1.65 1.85 -7.70 5.40 -14.70 8.60 -7.10 3.25 -9.70 5 -13.90 9.25 -4.85 4.90 -8.90 13 -7.45 14.75 0.85 1.05 4.20 0.70 7.55 -0.75z"/>
  <path d="M115.75 134.80 c-3.30 -1.50 -6.25 -5.95 -6.25 -9.55 0 -1.70 0.05 -1.75 2 -1.75 1.10 0 2.10 0.30 2.35 0.70 0.20 0.35 0.85 0.90 1.40 1.20 2.20 1.15 6.05 -2.40 5.40 -4.95 -0.35 -1.25 -2.25 -2.75 -4.45 -3.55 -1.60 -0.55 -1.75 -0.75 -1.60 -2.35 0.20 -2.40 1.60 -3.05 6.80 -3.05 4.90 0 6.75 0.65 9.45 3.35 2.45 2.45 3.40 5.50 3.05 9.80 -0.40 4.80 -2.80 8.45 -6.75 10.15 -2.10 0.90 -9.40 0.90 -11.40 0z"/>
  <path d="M0 58.25 l0 -58.25 57.25 0 57.25 0 0 1.25 c0 1.10 -0.20 1.25 -1.95 1.25 -1.10 0 -4.75 0.55 -8.15 1.25 -13.65 2.70 -28.05 8.15 -39.35 14.95 -17.95 10.75 -31.30 23.35 -42.35 39.95 -11.35 17 -17.85 34.65 -20.45 55.50 -0.25 1.90 -0.50 2.35 -1.30 2.35 -0.95 0 -0.95 -0.95 -0.95 -58.25z"/>
  <path d="M254.20 115.10 c-0.30 -0.20 -0.70 -1.85 -0.85 -3.65 -0.65 -7.05 -3.30 -17.75 -6.65 -26.90 -4.45 -12.05 -13.75 -27.85 -22 -37.30 -18.50 -21.30 -38.70 -34.20 -64.70 -41.50 -5.90 -1.65 -14.55 -3.25 -17.55 -3.25 -2.30 0 -2.45 -0.10 -2.45 -1.25 l0 -1.25 58 0 58 0 0 57.75 c0 59.40 0.05 58.60 -1.80 57.35z"/>
 </g>
 <g fill="#568df6">
  <path d="M113.50 255.50 c0 -0.25 -0.85 -0.50 -1.85 -0.50 -5.20 -0.05 -16.10 -2.50 -25.65 -5.75 -34.95 -11.95 -65 -41.15 -77.80 -75.50 -4 -10.80 -7.20 -23.85 -7.20 -29.50 0 -1.50 -0.25 -2.85 -0.50 -3 -0.65 -0.40 -0.65 -26 0 -28.10 0.20 -0.75 0.85 -4.30 1.45 -7.90 0.55 -3.55 1.80 -9.30 2.80 -12.75 13.20 -45.85 51.40 -80.95 98.15 -90.25 3.40 -0.70 7.05 -1.25 8.15 -1.25 1.05 0 1.95 -0.20 1.95 -0.50 0 -0.30 5.10 -0.50 14.25 -0.50 9.15 0 14.25 0.20 14.25 0.50 0 0.30 1.10 0.50 2.45 0.50 5.05 0 16.90 2.75 26.80 6.20 10.75 3.75 17.80 7.25 27.60 13.75 14.50 9.55 27 22.10 36.70 36.75 10.80 16.20 17.15 33 20 52.60 0.65 4.45 1.15 29.50 0.65 30.65 -0.20 0.45 -0.40 1.35 -0.45 2.05 -1.70 21.60 -12.75 47.75 -28 66.25 -16.55 20 -39.05 34.90 -63.50 42 -5.75 1.65 -13.65 3.25 -17.90 3.60 -1.85 0.15 -3.50 0.50 -3.65 0.70 -0.40 0.65 -28.70 0.55 -28.70 -0.05z m-9.35 -56.50 c2.95 -1.10 7.90 -5.70 8.90 -8.35 l0.55 -1.40 0.80 1.25 c1.65 2.45 5.35 6.10 7.50 7.40 1.75 1 3.10 1.30 6.10 1.50 5.60 0.30 8.70 -0.70 12.40 -4.15 1.65 -1.50 3.20 -2.75 3.45 -2.75 0.25 0 1.35 0.90 2.40 2.05 3.35 3.40 5.85 4.60 10.25 4.85 5.60 0.30 8.70 -0.70 12.35 -4.10 1.60 -1.50 3.20 -3.25 3.60 -3.90 l0.60 -1.20 3.65 3.60 c3.95 4 6.65 5.20 11.55 5.20 5.75 0 11.65 -3.35 14.25 -8.10 0.70 -1.30 1.40 -2.50 1.55 -2.65 0.20 -0.15 1.45 0.50 2.85 1.45 3.40 2.25 6.70 3 12.30 2.70 6.60 -0.35 8.70 -1.45 14.10 -7.05 4.55 -4.85 5.30 -6.10 8.80 -15.30 2.65 -7 4.70 -15.20 6.20 -24.55 1.60 -10.40 1.70 -24.65 0.20 -34 -1.65 -10.15 -2.75 -15 -3.35 -15 -0.15 0 -1.30 0.90 -2.55 2.05 -1.30 1.10 -4.15 2.90 -6.35 3.95 -11.10 5.30 -25.45 5.65 -36.90 0.95 -4.25 -1.75 -5.80 -2.80 -9.70 -6.60 l-3.10 -3 -4.65 1.15 c-14.40 3.60 -27.55 0.40 -36.65 -8.80 -7.20 -7.30 -8.30 -17.85 -2.70 -26 2.40 -3.50 7.40 -7.65 11.60 -9.60 3.35 -1.60 3.80 -2 3.50 -2.85 -0.20 -0.55 -0.35 -2.25 -0.35 -3.80 0 -5.50 4.45 -10.30 13.80 -14.95 3.25 -1.60 8.40 -3.60 11.60 -4.55 3.20 -0.90 5.80 -1.75 5.80 -1.95 0 -0.50 -13.20 -6.60 -18.50 -8.55 -6.15 -2.25 -14.35 -4.40 -23.05 -6.05 -5.35 -1 -7.80 -1.15 -18.20 -1.15 -9.05 0 -13.50 0.20 -18 0.90 -26.50 3.95 -49.75 15.75 -68.75 34.85 -13.15 13.20 -22.30 27.45 -28.40 44.35 -2.25 6.20 -4.70 15.80 -5.60 21.90 -0.35 2.20 -0.70 4.55 -0.85 5.25 -0.15 0.70 -0.35 5.75 -0.50 11.30 -0.25 11.50 0.80 21.45 3.35 31.95 1.50 6.10 4.95 16.15 6.95 20.25 1.35 2.75 5 8.15 6.90 10.10 2.75 2.90 7.50 4.90 11.70 4.90 4.60 0 9.90 -2.80 13.20 -7 l2 -2.55 0.75 1.15 c1.20 1.95 6.15 6.60 8.70 8.15 1.35 0.85 3.45 2.20 4.70 3 2.10 1.40 2.60 1.50 6.80 1.50 4.85 0 6.25 -0.45 9.85 -3.30 l1.80 -1.40 2.70 2.75 c4.10 4.20 6.15 5.10 11.80 5.15 2.50 0.05 4.45 -0.25 6.30 -0.95z"/>
  <path d="M62.55 192.30 c-1 -1.20 -0.40 -5.60 1.15 -8.85 1.95 -4.05 5.35 -8.35 9.40 -11.80 2.80 -2.40 5.10 -3.75 9.90 -5.90 11.35 -5.10 15.70 -8.15 17.40 -12.10 1.20 -2.95 1.95 -8.40 1.15 -8.90 -1.50 -0.90 -5.05 -9.75 -5.05 -12.50 0 -1.45 -0.20 -1.65 -1.70 -1.95 -2.75 -0.50 -18.55 -5.70 -23.95 -7.85 -10.70 -4.25 -17.75 -8.70 -23.95 -15 -4.70 -4.80 -7.65 -9.85 -9.15 -15.70 -1.05 -4.05 -0.95 -11.25 0.20 -17.10 1.35 -6.85 4.85 -18.20 6 -19.30 0.90 -0.90 1 -0.90 2.60 -0.05 0.95 0.45 4.40 3 7.70 5.65 3.30 2.60 11.50 9.15 18.25 14.50 6.75 5.35 13.25 10.50 14.50 11.50 1.55 1.25 2 1.45 1.45 0.65 -0.80 -1.10 -17.70 -20.60 -28.20 -32.50 -8.15 -9.25 -7.60 -8.05 -5 -10.60 2.70 -2.65 1.65 -3.40 11.70 8.20 4 4.65 10.55 12.15 14.55 16.70 4 4.55 8.60 9.85 10.20 11.80 1.65 1.95 5.65 6.60 8.95 10.30 3.30 3.70 7.80 8.85 10.05 11.40 3.95 4.50 4.10 4.60 5.80 4.25 4.65 -0.90 12.50 0.75 18.75 4 8.35 4.35 15.10 13.25 16.30 21.55 0.25 1.85 0.55 3.55 0.65 3.75 0.45 0.75 -1.70 8.65 -3 11.05 -1.75 3.20 -6.10 7.30 -9.55 8.85 -3.10 1.45 -8.50 2.65 -11.95 2.65 -2.05 0 -2.75 0.25 -3.70 1.20 -0.60 0.70 -1 1.60 -0.85 2 0.70 1.75 6.15 4.30 13.10 6.10 1.65 0.45 3.35 1.10 3.75 1.45 0.90 0.75 38.10 2.05 43.40 1.50 1.85 -0.20 12 -2.70 22.55 -5.60 10.55 -2.85 19.45 -5.10 19.80 -4.95 0.35 0.10 0.75 1 0.95 1.95 0.20 0.95 0.80 2.30 1.35 3 l1 1.30 -2.45 4.90 c-1.35 2.70 -2.95 6.25 -3.65 7.90 -1.20 3.15 -7.60 11.75 -8.65 11.75 -1.70 0 -6.20 -3.75 -9.20 -7.75 -1.05 -1.45 -1.10 -1.45 -1.70 -0.50 -1.45 2.45 -6.10 6.75 -8.55 7.80 -3.50 1.60 -9.55 1.65 -12.95 0.10 -2.65 -1.20 -6.65 -4.70 -7.70 -6.75 l-0.75 -1.45 -2.15 2.65 c-4.15 5.10 -9.20 7.30 -15 6.65 -3.95 -0.45 -6.45 -1.75 -10.05 -5.30 l-3.05 -2.95 -2.45 2.55 c-3.65 3.70 -5.65 4.60 -11.05 4.85 -6.10 0.30 -8.45 -0.75 -13 -5.55 -2.50 -2.65 -3.40 -3.30 -3.75 -2.80 -0.25 0.40 -0.45 0.80 -0.45 0.95 0 0.45 -3.80 4.30 -5.55 5.60 -6.25 4.80 -16.35 3.15 -21.75 -3.50 -1.20 -1.50 -2.20 -2.90 -2.20 -3.15 0 -1.10 -1 -0.30 -2.15 1.70 -1.65 2.85 -4.85 5.65 -7.75 6.95 -3.20 1.40 -9.60 1.85 -10.55 0.70z m62.75 -58.80 c3.25 -1.25 6.40 -5.10 6.95 -8.65 0.75 -4.40 -2.65 -9.90 -7.05 -11.35 -2.20 -0.75 -7.30 -0.45 -8.40 0.45 -0.70 0.60 -0.50 0.80 1.55 1.80 1.35 0.60 2.70 1.45 3.05 1.90 1.15 1.35 1.30 4.50 0.35 6.50 -1.75 3.65 -7.30 4.50 -9.60 1.40 -1 -1.35 -1.25 -0.25 -0.40 1.75 1 2.35 3.50 5.10 5.50 6 1.80 0.80 6.15 0.90 8.05 0.20z"/>
 </g>
</svg>