<?xml version="1.0" standalone="no"?>
<!DOCTYPE svg PUBLIC "-//W3C//DTD SVG 20010904//EN"
 "http://www.w3.org/TR/2001/REC-SVG-20010904/DTD/svg10.dtd">
<svg version="1.0" xmlns="http://www.w3.org/2000/svg"
 width="256.000000pt" height="256.000000pt" viewBox="0 0 256.000000 256.000000"
 preserveAspectRatio="xMidYMid meet">

<g transform="translate(0.000000,256.000000) scale(0.100000,-0.100000)"
fill="#000000" stroke="none">
<path d="M0 1280 l0 -1280 1280 0 1280 0 0 1280 0 1280 -1280 0 -1280 0 0
-1280z m1012 499 c26 -43 35 -50 71 -56 27 -4 52 -17 71 -35 29 -29 29 -30 22
-111 -13 -150 -23 -212 -39 -256 -10 -24 -17 -67 -17 -96 0 -38 -8 -67 -29
-106 -15 -30 -31 -72 -35 -94 -4 -22 -14 -59 -22 -83 -8 -23 -14 -70 -14 -103
0 -68 -13 -71 -31 -6 -14 53 -25 67 -55 67 -17 0 -25 -7 -29 -25 -3 -14 -7
-36 -10 -50 -8 -39 -22 -29 -28 21 -3 27 -13 54 -27 69 l-22 23 30 16 c17 9
37 28 44 43 17 37 41 36 42 0 2 -25 19 -46 39 -47 4 0 16 9 28 21 18 18 20 28
15 73 -6 49 -5 52 27 83 34 32 47 67 47 128 0 19 9 54 20 80 20 46 27 120 13
128 -5 2 -30 1 -58 -2 l-50 -6 24 -17 c35 -25 38 -91 5 -109 -13 -7 -24 -20
-24 -28 0 -9 -20 -36 -45 -59 -41 -38 -52 -65 -46 -104 3 -23 -20 -2 -43 36
-32 54 -103 89 -174 84 l-46 -3 2 63 c1 48 -2 64 -13 68 -22 9 -18 34 5 34 12
0 31 7 44 15 23 15 24 15 31 -22 4 -24 3 -39 -4 -41 -27 -9 -41 -33 -31 -52
23 -43 94 -29 142 28 24 28 25 34 16 83 -16 86 -31 122 -60 138 -24 14 -34 13
-100 -3 -99 -25 -153 -50 -172 -78 -12 -19 -14 -44 -7 -150 7 -122 8 -128 44
-186 54 -87 57 -101 62 -265 5 -144 0 -177 -26 -177 -4 0 -8 71 -7 158 1 171
-4 192 -64 285 -26 40 -32 63 -40 140 -17 187 -19 179 34 234 25 28 58 73 72
101 22 44 32 52 75 67 27 9 74 34 105 55 94 66 153 91 189 82 11 -3 32 -27 49
-53z m178 -854 c0 -28 4 -35 19 -35 15 0 21 8 24 38 2 20 4 -1 4 -48 0 -56 -2
-72 -6 -45 -4 27 -12 41 -23 43 -14 3 -18 -4 -18 -32 0 -19 -4 -38 -10 -41 -6
-4 -10 23 -10 74 0 47 4 81 10 81 6 0 10 -16 10 -35z m135 -39 c0 -53 -4 -71
-17 -79 -31 -20 -48 8 -48 78 0 70 4 77 40 73 24 -3 25 -6 25 -72z m90 -1 l0
-69 -32 -7 -33 -6 0 79 0 79 33 -3 32 -3 0 -70z m45 5 c0 -63 2 -70 20 -70 11
0 20 -4 20 -9 0 -5 -13 -9 -30 -9 l-30 1 0 79 c0 45 4 78 10 78 6 0 10 -30 10
-70z m148 63 c-15 -4 -18 -16 -18 -79 0 -48 -4 -73 -10 -69 -5 3 -10 37 -10
75 0 57 -3 69 -17 73 -10 3 2 5 27 5 25 0 37 -2 28 -5z m87 -67 c0 -53 -4 -71
-17 -79 -31 -20 -48 8 -48 78 0 70 4 77 40 73 24 -3 25 -6 25 -72z m42 39 c-7
-41 5 -39 23 5 7 16 17 30 22 30 5 0 8 -3 6 -7 -2 -5 -10 -20 -17 -35 -12 -24
-12 -33 4 -68 23 -50 12 -66 -11 -17 -19 40 -34 41 -27 3 3 -13 0 -27 -6 -30
-8 -5 -11 18 -11 73 0 54 4 81 11 81 8 0 10 -12 6 -35z m121 28 c-23 -4 -28
-9 -28 -34 0 -23 5 -29 23 -30 l22 -2 -22 -4 c-18 -3 -23 -11 -23 -34 0 -24 4
-29 26 -29 14 0 23 -4 19 -10 -3 -5 -19 -10 -36 -10 l-29 0 0 80 0 80 38 -1
c30 -2 32 -3 10 -6z m73 -49 l17 -49 4 55 c4 45 5 40 6 -29 2 -91 -4 -96 -30
-23 l-16 47 -1 -47 c-1 -26 -5 -50 -11 -53 -6 -4 -10 24 -10 75 0 95 14 103
41 24z"/>
<path d="M909 1786 c-19 -7 -46 -20 -60 -29 -23 -17 -23 -17 23 -11 57 8 73
-2 99 -64 22 -50 39 -47 39 7 0 37 -33 101 -55 107 -5 2 -26 -3 -46 -10z"/>
<path d="M760 1681 c-58 -21 -103 -42 -100 -47 7 -12 12 -11 97 20 135 48 142
43 192 -141 7 -24 17 -43 23 -43 17 0 1 135 -23 189 -33 74 -41 75 -189 22z"/>
<path d="M1052 1673 c2 -9 18 -21 35 -25 23 -6 35 -16 39 -33 10 -39 -3 -48
-61 -40 -58 7 -69 -2 -54 -42 14 -38 93 -27 126 16 7 9 13 37 13 63 0 37 -5
50 -22 62 -31 22 -80 21 -76 -1z"/>
<path d="M755 1625 c-33 -13 -73 -24 -90 -25 -34 0 -63 -15 -52 -26 4 -4 38 2
75 14 125 40 142 32 179 -88 15 -50 31 -90 35 -90 5 0 13 11 20 24 8 20 6 42
-10 106 -12 45 -27 88 -33 96 -16 20 -55 16 -124 -11z"/>
<path d="M1036 1621 c-7 -11 -1 -16 37 -25 24 -6 28 -4 25 11 -4 20 -52 31
-62 14z"/>
<path d="M1287 943 c-4 -3 -7 -33 -7 -65 0 -43 4 -58 14 -58 19 0 22 10 18 75
-4 52 -10 64 -25 48z"/>
<path d="M1370 886 c0 -53 3 -66 15 -66 13 0 15 11 13 62 -2 38 -8 63 -15 66
-10 3 -13 -14 -13 -62z"/>
<path d="M1650 886 c0 -53 3 -66 15 -66 13 0 15 11 13 62 -2 38 -8 63 -15 66
-10 3 -13 -14 -13 -62z"/>
</g>
</svg>
