<?xml version="1.0" encoding="utf-8"?>
<svg viewBox="158.18 132.015 194.344 193.749" xmlns="http://www.w3.org/2000/svg">
  <g transform="matrix(1, 0, 0, 1, 205.053741, 229.460602)" id="H3LBWxPSc5BaKUlj1JT0S">
    <path style="stroke: rgb(0,0,0); stroke-width: 1; stroke-dasharray: none; stroke-linecap: butt; stroke-dashoffset: 0; stroke-linejoin: miter; stroke-miterlimit: 4; fill: rgb(255,255,255); fill-rule: nonzero; opacity: 1;" vector-effect="non-scaling-stroke" transform=" translate(0, 0)" d="M 0 0" stroke-linecap="round"/>
  </g>
  <g transform="matrix(1, 0, 0, 1, 255.3311, 228.673462)" id="g-1">
    <path style="stroke: rgb(0,0,0); stroke-width: 1; stroke-dasharray: none; stroke-linecap: butt; stroke-dashoffset: 0; stroke-linejoin: miter; stroke-miterlimit: 4; fill: rgb(72,82,118); fill-rule: nonzero; opacity: 1;" vector-effect="non-scaling-stroke" transform=" translate(0, 0)" d="M 0 -95.37338 C 52.64611 -95.37338 95.37338 -52.64611 95.37338 0 C 95.37338 52.64611 52.64611 95.37338 0 95.37338 C -52.64611 95.37338 -95.37338 52.64611 -95.37338 0 C -95.37338 -52.64611 -52.64611 -95.37338 0 -95.37338 z" stroke-linecap="round"/>
  </g>
  <g transform="matrix(1, 0, 0, 1, 220.131088, 185.913467)" id="g-2">
    <path style="stroke: rgb(0,0,0); stroke-width: 1; stroke-dasharray: none; stroke-linecap: butt; stroke-dashoffset: 0; stroke-linejoin: miter; stroke-miterlimit: 4; fill: rgb(255,255,255); fill-rule: nonzero; opacity: 1;" vector-effect="non-scaling-stroke" transform=" translate(0, 0)" d="M 0 0" stroke-linecap="round"/>
  </g>
  <g transform="matrix(1, 0, 0, 1, 255.3311, 219.21347)" id="g-3">
    <path style="stroke: none; stroke-width: 1; stroke-dasharray: none; stroke-linecap: butt; stroke-dashoffset: 0; stroke-linejoin: miter; stroke-miterlimit: 4; fill: rgb(113,124,195); fill-rule: nonzero; opacity: 1;" vector-effect="non-scaling-stroke" transform=" translate(-80.35, -77.04)" d="M 35.10124 26.2722 C 38.71924 28.0822 39.821239999999996 31.166200000000003 39.828239999999994 39.4852 C 39.83624 51.855199999999996 41.511239999999994 70.99719999999999 43.50023999999999 81.4602 C 43.72423999999999 82.6392 44.00423999999999 84.1472 44.12123999999999 84.8102 C 47.52723999999999 104.0452 57.60023999999999 109.34519999999999 77.18824 102.21019999999999 C 79.46824 101.38019999999999 79.58923999999999 101.36319999999999 79.93123999999999 101.83119999999998 C 80.26523999999999 102.28719999999998 80.32224 102.29019999999998 80.77823999999998 101.87819999999998 C 81.23423999999999 101.46519999999998 81.39023999999998 101.48319999999998 83.12723999999999 102.13319999999997 C 84.81923999999998 102.76719999999997 88.53023999999999 103.78219999999997 92.35423999999999 104.65619999999997 C 99.61623999999999 106.31619999999997 107.77823999999998 103.97219999999997 111.27423999999999 99.22419999999997 C 113.95424 95.58219999999997 116.66023999999999 86.16019999999997 118.06924 75.56419999999997 C 118.20624 74.53219999999997 118.44824 72.72319999999998 118.60723999999999 71.54419999999998 C 119.81324 62.60719999999998 120.76624 48.870199999999976 120.77524 40.322199999999974 C 120.79024 25.300199999999975 126.20924 21.601199999999974 136.44424 29.625199999999975 C 139.34624 31.900199999999973 139.49924000000001 32.12419999999997 138.72424 32.949199999999976 C 138.15524000000002 33.55419999999997 136.96224 34.08319999999998 137.26324 33.59719999999998 C 137.34524 33.46319999999998 137.27223999999998 33.35419999999998 137.09924 33.35419999999998 C 136.92724 33.35419999999998 136.22624000000002 32.892199999999974 135.54324 32.328199999999974 C 130.16624 27.891199999999973 126.50524 27.340199999999975 124.86323999999999 30.722199999999972 C 123.90624 32.691199999999974 123.74824 34.050199999999975 123.58823999999998 41.66219999999997 C 123.35023999999999 52.90619999999997 122.83023999999999 60.49619999999997 121.56823999999999 71.14219999999997 C 121.32723999999999 73.17319999999998 121.02023999999999 75.25119999999997 120.51023999999998 78.31119999999997 C 119.73623999999998 82.93719999999998 119.73923999999998 82.92519999999998 118.91623999999999 86.48519999999996 C 118.75423999999998 87.18519999999997 118.50823999999999 88.27019999999996 118.36923999999999 88.89719999999997 C 118.23024 89.52319999999997 117.80724 90.99919999999997 117.43123999999999 92.17719999999997 C 117.05424 93.35419999999998 116.74623999999999 94.47119999999997 116.74623999999999 94.66019999999997 C 116.74623999999999 94.84719999999997 116.63523999999998 95.21019999999997 116.50023999999999 95.46619999999997 C 116.36424 95.72219999999997 116.00424 96.49919999999997 115.70024 97.19319999999998 C 112.58824 104.28119999999997 106.44424 107.90519999999998 97.58424 107.87819999999998 C 93.22023999999999 107.86519999999997 92.57024 107.77419999999998 87.14424 106.41719999999998 C 84.62223999999999 105.78619999999998 84.05024 105.74719999999998 84.05024 106.21219999999998 C 84.05024 106.62419999999999 86.33024 109.93419999999998 87.76924 111.61019999999998 C 92.76523999999999 117.42819999999998 95.76124 120.11019999999998 98.79624 121.47919999999998 C 99.45624 121.77619999999997 100.47824 122.24119999999998 101.06824 122.51019999999998 C 101.91624 122.89819999999999 102.81024000000001 123.00019999999998 105.35624 123.00019999999998 L 108.57224 123.00019999999998 L 110.98424 121.73219999999998 C 116.47224 118.84819999999998 124.09524 109.86519999999997 130.71524 98.48219999999998 C 131.10224 97.81719999999997 132.29724 95.76419999999997 133.37024 93.92219999999998 C 135.26924 90.66219999999997 143.44124 74.64219999999997 145.53724 70.07019999999997 C 148.69624 63.18219999999997 148.88524 62.85819999999997 150.47324 61.61019999999997 C 156.67924 56.73619999999997 160.69824 61.383199999999974 160.69824 73.43219999999997 L 160.69824 76.26319999999997 L 158.15224 76.10019999999997 L 158.09524000000002 74.35819999999997 C 158.00624000000002 71.61719999999997 157.45824000000002 66.53219999999997 157.15724000000003 65.64819999999997 C 155.89324000000002 61.941199999999974 154.81424000000004 61.529199999999975 152.21124000000003 63.757199999999976 C 151.14724000000004 64.66919999999998 150.93424000000005 65.01219999999998 149.71424000000002 67.79219999999998 C 148.72824000000003 70.04019999999998 147.27224 73.11419999999998 146.85924000000003 73.82219999999998 C 146.64424000000002 74.19019999999998 146.34524000000002 74.81319999999998 146.19424000000004 75.20719999999999 C 145.56624000000005 76.84819999999999 137.10124000000005 93.37319999999998 136.49924000000004 94.13419999999999 C 136.34824000000003 94.3252 135.96024000000006 94.98819999999999 135.63524000000004 95.6082 C 134.33824000000004 98.08319999999999 129.80024000000003 105.5812 129.07424000000003 106.4482 C 128.85224000000002 106.7112 128.01524000000003 107.8902 127.21324000000003 109.0672 C 126.41024000000003 110.2442 125.68624000000003 111.2682 125.60424000000003 111.3422 C 125.52124000000003 111.4162 125.09824000000003 111.9582 124.66624000000003 112.54820000000001 C 116.26824000000003 123.9912 107.71924000000003 128.36020000000002 100.13024000000003 125.0882 C 94.94124000000002 122.8522 92.81724000000003 121.2192 87.20324000000002 115.1482 C 85.91424000000002 113.7552 85.12224000000002 113.1562 85.12224000000002 113.5762 C 85.12224000000002 113.9172 86.28824000000002 117.1542 86.48424000000001 117.3582 C 86.61924000000002 117.4982 86.73024000000001 117.8902 86.73024000000001 118.22919999999999 C 86.73024000000001 118.56819999999999 86.85024000000001 118.8462 86.99824000000001 118.8462 C 87.14524000000002 118.8462 87.26624000000001 119.07719999999999 87.26624000000001 119.36019999999999 C 87.26624000000001 119.64219999999999 87.35624000000001 119.91319999999999 87.46724 119.96319999999999 C 87.57724 120.01219999999999 88.07424 120.83619999999999 88.57024 121.79419999999999 C 91.33424 127.13019999999999 95.51324 132.04819999999998 99.05824 134.1352 C 102.14724 135.9532 102.56624 136.0662 106.29424 136.0952 C 110.44724000000001 136.1262 111.02824 135.9422 118.36524 132.2602 C 121.31824 130.7782 123.85724 129.5662 124.00824 129.5662 C 124.15824 129.5662 125.33024 129.0692 126.61124 128.46020000000001 C 134.26623999999998 124.82720000000002 143.40524 121.52520000000001 145.79124 121.52920000000002 C 152.90223999999998 121.54320000000001 157.03524 126.96420000000002 155.05324 133.67620000000002 L 154.67723999999998 134.95220000000003 L 153.60023999999999 134.77720000000002 C 152.14123999999998 134.54120000000003 152.07623999999998 134.4352 152.38724 132.79620000000003 C 153.81524 125.26520000000002 148.04623999999998 122.20920000000002 139.66024 126.05420000000002 C 139.07023999999998 126.32420000000002 138.10523999999998 126.70120000000003 137.51623999999998 126.89120000000003 C 136.92623999999998 127.08120000000002 135.84123999999997 127.50820000000003 135.10423999999998 127.83920000000002 C 134.36723999999998 128.17020000000002 132.25623999999996 129.07120000000003 130.41423999999998 129.84320000000002 C 126.77123999999998 131.36720000000003 125.48323999999998 131.96020000000001 118.22023999999998 135.46120000000002 C 113.37123999999997 137.7982 112.79823999999998 138.0422 110.58223999999997 138.71220000000002 C 109.02123999999998 139.18420000000003 103.51123999999997 139.17820000000003 102.25623999999996 138.70420000000001 C 101.75023999999996 138.5122 101.09423999999996 138.26420000000002 100.80023999999996 138.15320000000003 C 98.74923999999996 137.37520000000004 96.26323999999995 135.86520000000002 94.44923999999996 134.29520000000002 C 92.41523999999995 132.53520000000003 91.57823999999997 132.16920000000002 92.32623999999996 133.36720000000003 C 92.51823999999995 133.67520000000002 92.90623999999995 134.33820000000003 93.18823999999995 134.83820000000003 C 98.83923999999995 144.90020000000004 108.59023999999995 150.93820000000002 119.53123999999995 151.15020000000004 C 124.20823999999996 151.24020000000004 124.23823999999995 151.25220000000004 124.24623999999996 152.90820000000005 L 124.25023999999996 153.87220000000005 L 121.50323999999996 154.01920000000004 C 117.27323999999996 154.24420000000003 111.84823999999996 153.59920000000005 109.64423999999997 152.60820000000004 C 105.90623999999997 150.93020000000004 104.70123999999997 150.28020000000004 102.40823999999996 148.70220000000003 C 98.09323999999997 145.73320000000004 94.07623999999996 141.40320000000003 91.24223999999997 136.66820000000004 C 90.53623999999996 135.48920000000004 89.85523999999997 134.39920000000004 89.72823999999997 134.24720000000005 C 89.09123999999997 133.48320000000004 86.18523999999996 127.36120000000005 85.21523999999997 124.74220000000005 C 84.86023999999996 123.78420000000006 84.46123999999996 122.75920000000005 84.32823999999997 122.46420000000005 C 84.03923999999996 121.82720000000005 83.28023999999996 119.48620000000005 82.45923999999997 116.70220000000005 C 82.13323999999997 115.59620000000005 81.75523999999997 114.32120000000005 81.61823999999997 113.86920000000005 C 81.48123999999997 113.41620000000005 81.37023999999997 112.89220000000005 81.37023999999997 112.70320000000005 C 81.37023999999997 112.20020000000005 80.54023999999997 110.53820000000005 80.28923999999996 110.53820000000005 C 80.17023999999996 110.53820000000005 79.95323999999997 111.05020000000005 79.80623999999996 111.67720000000004 C 79.26223999999996 114.00020000000004 78.64723999999995 116.31620000000004 78.43423999999996 116.83620000000005 C 78.31423999999996 117.13120000000005 77.79023999999995 118.69820000000004 77.27223999999995 120.32020000000004 C 76.07823999999995 124.05020000000005 75.04423999999996 126.63120000000004 73.48823999999995 129.76720000000003 C 72.81123999999994 131.13020000000003 72.25823999999994 132.29420000000002 72.25823999999994 132.35220000000004 C 72.25823999999994 132.60020000000003 69.89023999999995 136.34920000000005 68.00823999999994 139.08020000000005 C 65.87823999999995 142.17320000000004 61.273239999999944 147.01320000000004 59.10723999999995 148.43620000000004 C 58.45423999999995 148.86520000000004 57.437239999999946 149.53320000000005 56.84823999999995 149.91820000000004 C 56.258239999999944 150.30520000000004 55.41423999999995 150.78320000000005 54.97223999999995 150.98020000000005 C 54.52923999999995 151.17820000000006 53.50423999999995 151.67220000000006 52.69423999999995 152.07820000000007 C 50.05023999999995 153.40120000000007 46.43723999999995 154.04520000000008 41.528239999999954 154.06820000000008 C 36.70623999999995 154.09020000000007 36.689239999999955 154.08520000000007 37.03623999999996 152.67920000000007 L 37.284239999999954 151.67620000000008 L 40.768239999999956 151.60820000000007 C 43.994239999999955 151.54420000000007 48.00723999999995 151.05520000000007 49.893239999999956 150.49720000000008 C 56.677239999999955 148.48920000000007 65.68823999999995 140.15720000000007 69.14723999999995 132.69320000000008 C 69.89923999999995 131.07120000000006 69.53623999999995 131.24020000000007 66.72123999999995 133.82520000000008 C 65.27123999999995 135.15720000000007 63.842239999999954 136.3632000000001 63.54823999999995 136.5062000000001 C 63.25323999999995 136.6482000000001 62.16723999999995 137.1432000000001 61.13623999999995 137.6062000000001 C 60.10423999999995 138.06920000000008 58.97523999999995 138.58720000000008 58.62823999999995 138.7572000000001 C 57.80223999999995 139.1622000000001 51.492239999999946 139.1142000000001 50.11423999999995 138.6912000000001 C 48.76123999999995 138.2762000000001 48.25123999999995 138.0802000000001 46.79823999999995 137.4162000000001 C 46.13423999999995 137.1122000000001 45.10923999999995 136.65320000000008 44.52023999999995 136.3952000000001 C 42.952239999999954 135.7092000000001 38.88923999999995 133.7842000000001 34.567239999999956 131.6792000000001 C 32.48323999999995 130.6642000000001 30.659239999999954 129.8342000000001 30.513239999999954 129.8342000000001 C 30.368239999999954 129.8342000000001 29.298239999999954 129.3982000000001 28.138239999999954 128.8642000000001 C 25.620239999999953 127.7072000000001 20.830239999999954 125.9052000000001 17.100239999999953 124.7122000000001 C 15.419239999999952 124.1732000000001 12.910239999999952 124.3822000000001 11.221239999999954 125.2012000000001 C 8.331239999999953 126.6012000000001 7.560239999999954 128.7742000000001 8.327239999999954 133.3452000000001 L 8.535239999999954 134.5782000000001 L 7.516239999999954 134.7432000000001 C 6.194239999999954 134.95720000000009 5.984239999999954 134.74820000000008 5.548239999999954 132.7872000000001 C 3.8702399999999537 125.2222000000001 10.145239999999955 119.7462000000001 17.860239999999955 122.0422000000001 C 20.786239999999957 122.9142000000001 23.029239999999955 123.68720000000009 24.152239999999956 124.2132000000001 C 24.741239999999955 124.4882000000001 25.800239999999956 124.9012000000001 26.505239999999958 125.1292000000001 C 28.42223999999996 125.7522000000001 38.55323999999996 130.3632000000001 43.582239999999956 132.90320000000008 C 49.778239999999954 136.03320000000008 52.564239999999955 136.7742000000001 56.22423999999995 136.26520000000008 C 61.76823999999995 135.4942000000001 67.81123999999996 130.00320000000008 72.14823999999996 121.79420000000007 C 72.57723999999996 120.98320000000007 73.01823999999996 120.28020000000008 73.12923999999995 120.23120000000007 C 73.23923999999995 120.18120000000008 73.33023999999995 119.96920000000007 73.33023999999995 119.75820000000007 C 73.33023999999995 119.54720000000007 73.43523999999995 119.16520000000007 73.56423999999994 118.91020000000007 C 74.60823999999994 116.83720000000008 74.93823999999994 116.04820000000008 74.93823999999994 115.62020000000007 C 74.93823999999994 115.34820000000006 75.05823999999994 115.05120000000007 75.20623999999994 114.96020000000007 C 75.61423999999994 114.70820000000008 75.52523999999994 113.75420000000007 75.09423999999994 113.75420000000007 C 74.88523999999994 113.75420000000007 74.67423999999994 113.86220000000007 74.62523999999995 113.99620000000007 C 73.58723999999995 116.80220000000007 64.42723999999995 123.89920000000008 60.06423999999995 125.27620000000007 C 59.474239999999945 125.46220000000008 58.71523999999995 125.71920000000007 58.376239999999946 125.84820000000008 C 57.562239999999946 126.15720000000007 53.422239999999945 126.14820000000007 52.639239999999944 125.83620000000008 C 52.300239999999945 125.70120000000007 51.42923999999994 125.43920000000007 50.703239999999944 125.25220000000007 C 47.31723999999994 124.38420000000008 41.428239999999946 119.41320000000007 36.928239999999946 113.62620000000007 C 35.66523999999995 112.00120000000007 34.41523999999995 110.43820000000007 34.14923999999995 110.15320000000007 C 33.88323999999995 109.86720000000007 33.66623999999995 109.48520000000006 33.66623999999995 109.30420000000007 C 33.66623999999995 109.12320000000007 33.56623999999995 108.93520000000007 33.44423999999995 108.88520000000007 C 33.20723999999995 108.79020000000007 30.45023999999995 104.76720000000007 30.45023999999995 104.51720000000007 C 30.45023999999995 104.43520000000008 29.922239999999952 103.55520000000007 29.27623999999995 102.56220000000008 C 27.65423999999995 100.06620000000008 24.896239999999953 95.30920000000008 23.49023999999995 92.58220000000007 C 22.843239999999952 91.32920000000007 21.974239999999952 89.72620000000008 21.55823999999995 89.01920000000007 C 21.14223999999995 88.31320000000007 20.80223999999995 87.56920000000007 20.80223999999995 87.36720000000007 C 20.80223999999995 87.16420000000006 20.70923999999995 86.95920000000007 20.596239999999952 86.90920000000007 C 20.483239999999952 86.86020000000006 19.72923999999995 85.49320000000007 18.92123999999995 83.87220000000006 C 18.11323999999995 82.25020000000006 17.39123999999995 80.86420000000007 17.31823999999995 80.79020000000007 C 17.17123999999995 80.64320000000006 16.59523999999995 79.45720000000007 14.97523999999995 75.96620000000007 C 9.28023999999995 63.68920000000007 9.36323999999995 63.82520000000007 6.918239999999949 62.72320000000007 L 5.780239999999949 62.21020000000007 L 4.98323999999995 62.97520000000007 C 4.54523999999995 63.395200000000074 4.18623999999995 63.93320000000007 4.18623999999995 64.17120000000007 C 4.18623999999995 64.40820000000006 4.08723999999995 64.71720000000008 3.96623999999995 64.85720000000008 C 3.5892399999999496 65.29720000000007 3.1402399999999497 67.69320000000008 2.94123999999995 70.33820000000007 C 2.70323999999995 73.47720000000007 2.6722399999999498 73.96220000000007 2.61923999999995 75.24420000000008 L 2.57823999999995 76.26520000000008 L 1.45723999999995 76.18220000000008 C 0.4692399999999499 76.11020000000008 0.3082399999999499 76.00420000000008 0.10723999999994982 75.29620000000008 C -0.2607600000000502 74.00020000000008 0.3892399999999498 66.26320000000008 0.9842399999999498 64.84420000000009 C 1.1082399999999497 64.54920000000008 1.47323999999995 63.66920000000009 1.7972399999999498 62.88920000000009 C 3.4472399999999497 58.911200000000086 7.2272399999999495 58.576200000000085 10.87723999999995 62.08320000000009 C 11.74323999999995 62.91620000000009 15.174239999999951 69.17820000000009 15.174239999999951 69.92720000000008 C 15.174239999999951 70.01920000000008 20.419239999999952 80.96320000000009 20.765239999999952 81.59420000000009 C 20.887239999999952 81.81520000000009 21.123239999999953 82.23720000000009 21.29023999999995 82.53220000000009 C 21.457239999999953 82.82720000000009 21.94023999999995 83.79120000000009 22.36223999999995 84.6762000000001 C 22.78423999999995 85.5602000000001 23.52623999999995 87.0072000000001 24.01223999999995 87.89220000000009 C 24.497239999999948 88.77620000000009 25.31723999999995 90.28420000000008 25.83323999999995 91.24220000000008 C 27.37923999999995 94.11120000000008 28.96523999999995 96.86920000000008 30.45423999999995 99.28220000000007 C 31.22823999999995 100.53520000000007 32.09023999999995 101.96120000000008 32.36823999999995 102.45220000000008 C 32.64823999999995 102.94320000000008 33.62723999999995 104.43620000000007 34.54423999999995 105.77120000000008 C 35.461239999999954 107.10720000000008 36.48323999999995 108.60220000000008 36.81523999999995 109.09520000000008 C 48.35923999999996 126.23520000000008 60.24723999999995 127.49820000000008 71.85723999999996 112.81620000000008 C 72.44023999999996 112.07920000000009 73.23423999999996 111.17420000000008 73.62223999999996 110.80620000000008 C 74.46923999999996 110.00120000000007 76.54623999999997 106.62820000000008 76.54623999999997 106.05720000000008 C 76.54623999999997 105.62020000000008 76.60823999999997 105.61320000000008 73.59823999999998 106.37020000000008 C 70.56023999999998 107.13320000000009 70.01023999999998 107.26620000000008 68.64023999999998 107.57220000000008 C 67.90323999999998 107.73720000000009 65.39023999999998 107.87320000000008 63.056239999999974 107.87420000000009 C 59.156239999999976 107.87720000000009 58.10623999999997 107.74620000000009 56.312239999999974 107.03520000000009 C 56.01723999999997 106.91920000000009 55.309239999999974 106.68020000000008 54.738239999999976 106.50520000000009 C 49.958239999999975 105.0392000000001 46.35223999999998 100.99920000000009 43.866239999999976 94.32420000000009 C 43.53623999999998 93.43920000000008 43.15723999999997 92.43920000000008 43.022239999999975 92.10020000000009 C 42.88723999999998 91.76220000000009 42.778239999999975 91.19620000000009 42.778239999999975 90.84320000000008 C 42.778239999999975 90.49020000000009 42.67023999999998 90.13520000000008 42.53823999999997 90.05320000000007 C 42.406239999999976 89.97220000000007 42.241239999999976 89.45220000000008 42.171239999999976 88.89920000000008 C 42.10223999999997 88.34520000000008 41.866239999999976 87.22920000000008 41.64923999999998 86.41820000000008 C 41.43223999999998 85.60720000000008 41.10823999999998 84.10020000000009 40.930239999999976 83.06820000000009 C 40.751239999999974 82.0362000000001 40.50023999999998 80.7092000000001 40.370239999999974 80.1202000000001 C 40.239239999999974 79.5302000000001 40.00023999999998 78.08320000000009 39.83823999999997 76.9042000000001 C 39.675239999999974 75.7252000000001 39.42923999999997 73.9762000000001 39.29123999999997 73.0182000000001 C 38.211239999999975 65.5382000000001 37.43823999999997 54.583200000000105 37.14623999999997 42.60020000000011 C 36.90123999999997 32.52920000000011 36.84723999999997 32.098200000000105 35.59023999999997 30.076200000000107 C 34.043239999999976 27.589200000000105 29.74323999999997 28.541200000000106 25.380239999999972 32.336200000000105 C 23.822239999999972 33.692200000000106 23.102239999999973 33.86220000000011 22.261239999999972 33.0722000000001 C 21.316239999999972 32.1852000000001 21.40823999999997 31.9672000000001 23.415239999999972 30.3392000000001 C 26.99023999999997 27.439200000000103 28.945239999999973 26.3262000000001 31.254239999999974 25.8752000000001 z M 94.59995 19.36872 C 96.50543 25.30023 97.68329000000001 30.77145 98.92748 39.468720000000005 C 100.81219 52.646280000000004 100.62995000000001 71.75334000000001 98.47925000000001 86.40624 C 98.19584 88.33650999999999 96.62871000000001 90.18504 92.93768 92.94142 C 88.20078 96.47901999999999 82.01333 97.8887 76.58566 96.66662 C 73.60818 95.99595 73.50366000000001 95.96512999999999 73.34956000000001 95.71656 C 73.26983000000001 95.58725 73.02394000000001 95.48072 72.80351000000002 95.48072 C 72.14155000000002 95.48072 66.91756000000002 92.79268 65.95611000000002 91.95719000000001 C 64.62013000000002 90.79675000000002 64.43387000000003 90.65739 64.20205000000003 90.64801000000001 C 63.120000000000026 90.60513000000002 62.28853000000003 89.01388000000001 61.96559000000003 86.36872000000001 C 61.83092000000003 85.26322 61.54282000000003 83.05825000000002 61.326410000000024 81.46968000000001 C 56.676610000000025 47.39214000000001 65.09650000000002 6.006910000000005 77.80104000000003 0.4961600000000175 C 83.61798000000003 -2.0270599999999823 90.04797000000003 5.1962100000000175 94.59995000000004 19.368720000000017 z M 95.05421 8.46849 C 95.50914 8.81086 96.06255999999999 9.175339999999998 96.28366 9.27986 C 96.50476 9.38438 97.3168 9.85807 98.08864 10.332429999999999 C 98.86048 10.80679 100.29361 11.677119999999999 101.27382 12.266049999999998 C 104.31562 14.095149999999999 104.37994 14.714899999999998 101.91166 18.430719999999997 C 101.32406999999999 19.315119999999997 100.76395 20.21962 100.6668 20.44072 C 100.42761 20.9861 99.72946999999999 21.78072 99.48961 21.78072 C 99.38241 21.78072 98.96634 20.725469999999998 98.56501 19.43572 C 98.16301 18.14597 97.7389 16.84952 97.62098 16.55472 C 97.50373 16.25992 97.13456000000001 15.295119999999999 96.8009 14.41072 C 96.46657 13.52632 95.67663999999999 11.76154 95.0455 10.48921 C 94.41436 9.21688 93.97216 8.102 94.06194 8.01155 C 94.15239000000001 7.9211 94.59861000000001 8.12679 95.05421000000001 8.46849 z M 66.47737 8.31372 C 66.17787999999999 8.89796 64.05532 13.41577 63.864369999999994 13.87472 C 63.74175999999999 14.16952 63.38799999999999 14.98223 63.07845999999999 15.68104 C 62.768919999999994 16.379179999999998 62.51565999999999 17.10479 62.51565999999999 17.29239 C 62.51565999999999 17.48066 62.27445999999999 18.294040000000003 61.97965999999999 19.100720000000003 C 61.684859999999986 19.907400000000003 61.44365999999999 20.779740000000004 61.44365999999999 21.039700000000003 C 61.44365999999999 22.104330000000004 60.50029999999999 21.240700000000004 59.03165999999999 18.832720000000002 C 58.53719999999999 18.02202 57.91476999999999 17.111490000000003 57.64810999999999 16.809990000000003 C 56.40860999999999 15.405000000000003 57.08932999999999 13.479420000000003 59.20987999999999 12.395360000000004 C 59.627959999999995 12.181630000000004 60.75355999999999 11.510960000000004 61.711659999999995 10.904610000000003 C 62.66976 10.297590000000003 64.05666 9.423240000000003 64.79365999999999 8.960270000000003 C 66.10819999999998 8.134830000000003 66.68171999999998 7.914400000000003 66.47737 8.313720000000004 z" stroke-linecap="round"/>
  </g>
  <g transform="matrix(1, 0, 0, 1, 255.3311, 217.233475)" id="g-4">
    <path style="stroke: none; stroke-width: 1; stroke-dasharray: none; stroke-linecap: butt; stroke-dashoffset: 0; stroke-linejoin: miter; stroke-miterlimit: 4; fill: rgb(4,5,10); fill-rule: nonzero; opacity: 1;" vector-effect="non-scaling-stroke" transform=" translate(-80.35, -77.04)" d="M 35.10124 26.2722 C 38.71924 28.0822 39.821239999999996 31.166200000000003 39.828239999999994 39.4852 C 39.83624 51.855199999999996 41.511239999999994 70.99719999999999 43.50023999999999 81.4602 C 43.72423999999999 82.6392 44.00423999999999 84.1472 44.12123999999999 84.8102 C 47.52723999999999 104.0452 57.60023999999999 109.34519999999999 77.18824 102.21019999999999 C 79.46824 101.38019999999999 79.58923999999999 101.36319999999999 79.93123999999999 101.83119999999998 C 80.26523999999999 102.28719999999998 80.32224 102.29019999999998 80.77823999999998 101.87819999999998 C 81.23423999999999 101.46519999999998 81.39023999999998 101.48319999999998 83.12723999999999 102.13319999999997 C 84.81923999999998 102.76719999999997 88.53023999999999 103.78219999999997 92.35423999999999 104.65619999999997 C 99.61623999999999 106.31619999999997 107.77823999999998 103.97219999999997 111.27423999999999 99.22419999999997 C 113.95424 95.58219999999997 116.66023999999999 86.16019999999997 118.06924 75.56419999999997 C 118.20624 74.53219999999997 118.44824 72.72319999999998 118.60723999999999 71.54419999999998 C 119.81324 62.60719999999998 120.76624 48.870199999999976 120.77524 40.322199999999974 C 120.79024 25.300199999999975 126.20924 21.601199999999974 136.44424 29.625199999999975 C 139.34624 31.900199999999973 139.49924000000001 32.12419999999997 138.72424 32.949199999999976 C 138.15524000000002 33.55419999999997 136.96224 34.08319999999998 137.26324 33.59719999999998 C 137.34524 33.46319999999998 137.27223999999998 33.35419999999998 137.09924 33.35419999999998 C 136.92724 33.35419999999998 136.22624000000002 32.892199999999974 135.54324 32.328199999999974 C 130.16624 27.891199999999973 126.50524 27.340199999999975 124.86323999999999 30.722199999999972 C 123.90624 32.691199999999974 123.74824 34.050199999999975 123.58823999999998 41.66219999999997 C 123.35023999999999 52.90619999999997 122.83023999999999 60.49619999999997 121.56823999999999 71.14219999999997 C 121.32723999999999 73.17319999999998 121.02023999999999 75.25119999999997 120.51023999999998 78.31119999999997 C 119.73623999999998 82.93719999999998 119.73923999999998 82.92519999999998 118.91623999999999 86.48519999999996 C 118.75423999999998 87.18519999999997 118.50823999999999 88.27019999999996 118.36923999999999 88.89719999999997 C 118.23024 89.52319999999997 117.80724 90.99919999999997 117.43123999999999 92.17719999999997 C 117.05424 93.35419999999998 116.74623999999999 94.47119999999997 116.74623999999999 94.66019999999997 C 116.74623999999999 94.84719999999997 116.63523999999998 95.21019999999997 116.50023999999999 95.46619999999997 C 116.36424 95.72219999999997 116.00424 96.49919999999997 115.70024 97.19319999999998 C 112.58824 104.28119999999997 106.44424 107.90519999999998 97.58424 107.87819999999998 C 93.22023999999999 107.86519999999997 92.57024 107.77419999999998 87.14424 106.41719999999998 C 84.62223999999999 105.78619999999998 84.05024 105.74719999999998 84.05024 106.21219999999998 C 84.05024 106.62419999999999 86.33024 109.93419999999998 87.76924 111.61019999999998 C 92.76523999999999 117.42819999999998 95.76124 120.11019999999998 98.79624 121.47919999999998 C 99.45624 121.77619999999997 100.47824 122.24119999999998 101.06824 122.51019999999998 C 101.91624 122.89819999999999 102.81024000000001 123.00019999999998 105.35624 123.00019999999998 L 108.57224 123.00019999999998 L 110.98424 121.73219999999998 C 116.47224 118.84819999999998 124.09524 109.86519999999997 130.71524 98.48219999999998 C 131.10224 97.81719999999997 132.29724 95.76419999999997 133.37024 93.92219999999998 C 135.26924 90.66219999999997 143.44124 74.64219999999997 145.53724 70.07019999999997 C 148.69624 63.18219999999997 148.88524 62.85819999999997 150.47324 61.61019999999997 C 156.67924 56.73619999999997 160.69824 61.383199999999974 160.69824 73.43219999999997 L 160.69824 76.26319999999997 L 158.15224 76.10019999999997 L 158.09524000000002 74.35819999999997 C 158.00624000000002 71.61719999999997 157.45824000000002 66.53219999999997 157.15724000000003 65.64819999999997 C 155.89324000000002 61.941199999999974 154.81424000000004 61.529199999999975 152.21124000000003 63.757199999999976 C 151.14724000000004 64.66919999999998 150.93424000000005 65.01219999999998 149.71424000000002 67.79219999999998 C 148.72824000000003 70.04019999999998 147.27224 73.11419999999998 146.85924000000003 73.82219999999998 C 146.64424000000002 74.19019999999998 146.34524000000002 74.81319999999998 146.19424000000004 75.20719999999999 C 145.56624000000005 76.84819999999999 137.10124000000005 93.37319999999998 136.49924000000004 94.13419999999999 C 136.34824000000003 94.3252 135.96024000000006 94.98819999999999 135.63524000000004 95.6082 C 134.33824000000004 98.08319999999999 129.80024000000003 105.5812 129.07424000000003 106.4482 C 128.85224000000002 106.7112 128.01524000000003 107.8902 127.21324000000003 109.0672 C 126.41024000000003 110.2442 125.68624000000003 111.2682 125.60424000000003 111.3422 C 125.52124000000003 111.4162 125.09824000000003 111.9582 124.66624000000003 112.54820000000001 C 116.26824000000003 123.9912 107.71924000000003 128.36020000000002 100.13024000000003 125.0882 C 94.94124000000002 122.8522 92.81724000000003 121.2192 87.20324000000002 115.1482 C 85.91424000000002 113.7552 85.12224000000002 113.1562 85.12224000000002 113.5762 C 85.12224000000002 113.9172 86.28824000000002 117.1542 86.48424000000001 117.3582 C 86.61924000000002 117.4982 86.73024000000001 117.8902 86.73024000000001 118.22919999999999 C 86.73024000000001 118.56819999999999 86.85024000000001 118.8462 86.99824000000001 118.8462 C 87.14524000000002 118.8462 87.26624000000001 119.07719999999999 87.26624000000001 119.36019999999999 C 87.26624000000001 119.64219999999999 87.35624000000001 119.91319999999999 87.46724 119.96319999999999 C 87.57724 120.01219999999999 88.07424 120.83619999999999 88.57024 121.79419999999999 C 91.33424 127.13019999999999 95.51324 132.04819999999998 99.05824 134.1352 C 102.14724 135.9532 102.56624 136.0662 106.29424 136.0952 C 110.44724000000001 136.1262 111.02824 135.9422 118.36524 132.2602 C 121.31824 130.7782 123.85724 129.5662 124.00824 129.5662 C 124.15824 129.5662 125.33024 129.0692 126.61124 128.46020000000001 C 134.26623999999998 124.82720000000002 143.40524 121.52520000000001 145.79124 121.52920000000002 C 152.90223999999998 121.54320000000001 157.03524 126.96420000000002 155.05324 133.67620000000002 L 154.67723999999998 134.95220000000003 L 153.60023999999999 134.77720000000002 C 152.14123999999998 134.54120000000003 152.07623999999998 134.4352 152.38724 132.79620000000003 C 153.81524 125.26520000000002 148.04623999999998 122.20920000000002 139.66024 126.05420000000002 C 139.07023999999998 126.32420000000002 138.10523999999998 126.70120000000003 137.51623999999998 126.89120000000003 C 136.92623999999998 127.08120000000002 135.84123999999997 127.50820000000003 135.10423999999998 127.83920000000002 C 134.36723999999998 128.17020000000002 132.25623999999996 129.07120000000003 130.41423999999998 129.84320000000002 C 126.77123999999998 131.36720000000003 125.48323999999998 131.96020000000001 118.22023999999998 135.46120000000002 C 113.37123999999997 137.7982 112.79823999999998 138.0422 110.58223999999997 138.71220000000002 C 109.02123999999998 139.18420000000003 103.51123999999997 139.17820000000003 102.25623999999996 138.70420000000001 C 101.75023999999996 138.5122 101.09423999999996 138.26420000000002 100.80023999999996 138.15320000000003 C 98.74923999999996 137.37520000000004 96.26323999999995 135.86520000000002 94.44923999999996 134.29520000000002 C 92.41523999999995 132.53520000000003 91.57823999999997 132.16920000000002 92.32623999999996 133.36720000000003 C 92.51823999999995 133.67520000000002 92.90623999999995 134.33820000000003 93.18823999999995 134.83820000000003 C 98.83923999999995 144.90020000000004 108.59023999999995 150.93820000000002 119.53123999999995 151.15020000000004 C 124.20823999999996 151.24020000000004 124.23823999999995 151.25220000000004 124.24623999999996 152.90820000000005 L 124.25023999999996 153.87220000000005 L 121.50323999999996 154.01920000000004 C 117.27323999999996 154.24420000000003 111.84823999999996 153.59920000000005 109.64423999999997 152.60820000000004 C 105.90623999999997 150.93020000000004 104.70123999999997 150.28020000000004 102.40823999999996 148.70220000000003 C 98.09323999999997 145.73320000000004 94.07623999999996 141.40320000000003 91.24223999999997 136.66820000000004 C 90.53623999999996 135.48920000000004 89.85523999999997 134.39920000000004 89.72823999999997 134.24720000000005 C 89.09123999999997 133.48320000000004 86.18523999999996 127.36120000000005 85.21523999999997 124.74220000000005 C 84.86023999999996 123.78420000000006 84.46123999999996 122.75920000000005 84.32823999999997 122.46420000000005 C 84.03923999999996 121.82720000000005 83.28023999999996 119.48620000000005 82.45923999999997 116.70220000000005 C 82.13323999999997 115.59620000000005 81.75523999999997 114.32120000000005 81.61823999999997 113.86920000000005 C 81.48123999999997 113.41620000000005 81.37023999999997 112.89220000000005 81.37023999999997 112.70320000000005 C 81.37023999999997 112.20020000000005 80.54023999999997 110.53820000000005 80.28923999999996 110.53820000000005 C 80.17023999999996 110.53820000000005 79.95323999999997 111.05020000000005 79.80623999999996 111.67720000000004 C 79.26223999999996 114.00020000000004 78.64723999999995 116.31620000000004 78.43423999999996 116.83620000000005 C 78.31423999999996 117.13120000000005 77.79023999999995 118.69820000000004 77.27223999999995 120.32020000000004 C 76.07823999999995 124.05020000000005 75.04423999999996 126.63120000000004 73.48823999999995 129.76720000000003 C 72.81123999999994 131.13020000000003 72.25823999999994 132.29420000000002 72.25823999999994 132.35220000000004 C 72.25823999999994 132.60020000000003 69.89023999999995 136.34920000000005 68.00823999999994 139.08020000000005 C 65.87823999999995 142.17320000000004 61.273239999999944 147.01320000000004 59.10723999999995 148.43620000000004 C 58.45423999999995 148.86520000000004 57.437239999999946 149.53320000000005 56.84823999999995 149.91820000000004 C 56.258239999999944 150.30520000000004 55.41423999999995 150.78320000000005 54.97223999999995 150.98020000000005 C 54.52923999999995 151.17820000000006 53.50423999999995 151.67220000000006 52.69423999999995 152.07820000000007 C 50.05023999999995 153.40120000000007 46.43723999999995 154.04520000000008 41.528239999999954 154.06820000000008 C 36.70623999999995 154.09020000000007 36.689239999999955 154.08520000000007 37.03623999999996 152.67920000000007 L 37.284239999999954 151.67620000000008 L 40.768239999999956 151.60820000000007 C 43.994239999999955 151.54420000000007 48.00723999999995 151.05520000000007 49.893239999999956 150.49720000000008 C 56.677239999999955 148.48920000000007 65.68823999999995 140.15720000000007 69.14723999999995 132.69320000000008 C 69.89923999999995 131.07120000000006 69.53623999999995 131.24020000000007 66.72123999999995 133.82520000000008 C 65.27123999999995 135.15720000000007 63.842239999999954 136.3632000000001 63.54823999999995 136.5062000000001 C 63.25323999999995 136.6482000000001 62.16723999999995 137.1432000000001 61.13623999999995 137.6062000000001 C 60.10423999999995 138.06920000000008 58.97523999999995 138.58720000000008 58.62823999999995 138.7572000000001 C 57.80223999999995 139.1622000000001 51.492239999999946 139.1142000000001 50.11423999999995 138.6912000000001 C 48.76123999999995 138.2762000000001 48.25123999999995 138.0802000000001 46.79823999999995 137.4162000000001 C 46.13423999999995 137.1122000000001 45.10923999999995 136.65320000000008 44.52023999999995 136.3952000000001 C 42.952239999999954 135.7092000000001 38.88923999999995 133.7842000000001 34.567239999999956 131.6792000000001 C 32.48323999999995 130.6642000000001 30.659239999999954 129.8342000000001 30.513239999999954 129.8342000000001 C 30.368239999999954 129.8342000000001 29.298239999999954 129.3982000000001 28.138239999999954 128.8642000000001 C 25.620239999999953 127.7072000000001 20.830239999999954 125.9052000000001 17.100239999999953 124.7122000000001 C 15.419239999999952 124.1732000000001 12.910239999999952 124.3822000000001 11.221239999999954 125.2012000000001 C 8.331239999999953 126.6012000000001 7.560239999999954 128.7742000000001 8.327239999999954 133.3452000000001 L 8.535239999999954 134.5782000000001 L 7.516239999999954 134.7432000000001 C 6.194239999999954 134.95720000000009 5.984239999999954 134.74820000000008 5.548239999999954 132.7872000000001 C 3.8702399999999537 125.2222000000001 10.145239999999955 119.7462000000001 17.860239999999955 122.0422000000001 C 20.786239999999957 122.9142000000001 23.029239999999955 123.68720000000009 24.152239999999956 124.2132000000001 C 24.741239999999955 124.4882000000001 25.800239999999956 124.9012000000001 26.505239999999958 125.1292000000001 C 28.42223999999996 125.7522000000001 38.55323999999996 130.3632000000001 43.582239999999956 132.90320000000008 C 49.778239999999954 136.03320000000008 52.564239999999955 136.7742000000001 56.22423999999995 136.26520000000008 C 61.76823999999995 135.4942000000001 67.81123999999996 130.00320000000008 72.14823999999996 121.79420000000007 C 72.57723999999996 120.98320000000007 73.01823999999996 120.28020000000008 73.12923999999995 120.23120000000007 C 73.23923999999995 120.18120000000008 73.33023999999995 119.96920000000007 73.33023999999995 119.75820000000007 C 73.33023999999995 119.54720000000007 73.43523999999995 119.16520000000007 73.56423999999994 118.91020000000007 C 74.60823999999994 116.83720000000008 74.93823999999994 116.04820000000008 74.93823999999994 115.62020000000007 C 74.93823999999994 115.34820000000006 75.05823999999994 115.05120000000007 75.20623999999994 114.96020000000007 C 75.61423999999994 114.70820000000008 75.52523999999994 113.75420000000007 75.09423999999994 113.75420000000007 C 74.88523999999994 113.75420000000007 74.67423999999994 113.86220000000007 74.62523999999995 113.99620000000007 C 73.58723999999995 116.80220000000007 64.42723999999995 123.89920000000008 60.06423999999995 125.27620000000007 C 59.474239999999945 125.46220000000008 58.71523999999995 125.71920000000007 58.376239999999946 125.84820000000008 C 57.562239999999946 126.15720000000007 53.422239999999945 126.14820000000007 52.639239999999944 125.83620000000008 C 52.300239999999945 125.70120000000007 51.42923999999994 125.43920000000007 50.703239999999944 125.25220000000007 C 47.31723999999994 124.38420000000008 41.428239999999946 119.41320000000007 36.928239999999946 113.62620000000007 C 35.66523999999995 112.00120000000007 34.41523999999995 110.43820000000007 34.14923999999995 110.15320000000007 C 33.88323999999995 109.86720000000007 33.66623999999995 109.48520000000006 33.66623999999995 109.30420000000007 C 33.66623999999995 109.12320000000007 33.56623999999995 108.93520000000007 33.44423999999995 108.88520000000007 C 33.20723999999995 108.79020000000007 30.45023999999995 104.76720000000007 30.45023999999995 104.51720000000007 C 30.45023999999995 104.43520000000008 29.922239999999952 103.55520000000007 29.27623999999995 102.56220000000008 C 27.65423999999995 100.06620000000008 24.896239999999953 95.30920000000008 23.49023999999995 92.58220000000007 C 22.843239999999952 91.32920000000007 21.974239999999952 89.72620000000008 21.55823999999995 89.01920000000007 C 21.14223999999995 88.31320000000007 20.80223999999995 87.56920000000007 20.80223999999995 87.36720000000007 C 20.80223999999995 87.16420000000006 20.70923999999995 86.95920000000007 20.596239999999952 86.90920000000007 C 20.483239999999952 86.86020000000006 19.72923999999995 85.49320000000007 18.92123999999995 83.87220000000006 C 18.11323999999995 82.25020000000006 17.39123999999995 80.86420000000007 17.31823999999995 80.79020000000007 C 17.17123999999995 80.64320000000006 16.59523999999995 79.45720000000007 14.97523999999995 75.96620000000007 C 9.28023999999995 63.68920000000007 9.36323999999995 63.82520000000007 6.918239999999949 62.72320000000007 L 5.780239999999949 62.21020000000007 L 4.98323999999995 62.97520000000007 C 4.54523999999995 63.395200000000074 4.18623999999995 63.93320000000007 4.18623999999995 64.17120000000007 C 4.18623999999995 64.40820000000006 4.08723999999995 64.71720000000008 3.96623999999995 64.85720000000008 C 3.5892399999999496 65.29720000000007 3.1402399999999497 67.69320000000008 2.94123999999995 70.33820000000007 C 2.70323999999995 73.47720000000007 2.6722399999999498 73.96220000000007 2.61923999999995 75.24420000000008 L 2.57823999999995 76.26520000000008 L 1.45723999999995 76.18220000000008 C 0.4692399999999499 76.11020000000008 0.3082399999999499 76.00420000000008 0.10723999999994982 75.29620000000008 C -0.2607600000000502 74.00020000000008 0.3892399999999498 66.26320000000008 0.9842399999999498 64.84420000000009 C 1.1082399999999497 64.54920000000008 1.47323999999995 63.66920000000009 1.7972399999999498 62.88920000000009 C 3.4472399999999497 58.911200000000086 7.2272399999999495 58.576200000000085 10.87723999999995 62.08320000000009 C 11.74323999999995 62.91620000000009 15.174239999999951 69.17820000000009 15.174239999999951 69.92720000000008 C 15.174239999999951 70.01920000000008 20.419239999999952 80.96320000000009 20.765239999999952 81.59420000000009 C 20.887239999999952 81.81520000000009 21.123239999999953 82.23720000000009 21.29023999999995 82.53220000000009 C 21.457239999999953 82.82720000000009 21.94023999999995 83.79120000000009 22.36223999999995 84.6762000000001 C 22.78423999999995 85.5602000000001 23.52623999999995 87.0072000000001 24.01223999999995 87.89220000000009 C 24.497239999999948 88.77620000000009 25.31723999999995 90.28420000000008 25.83323999999995 91.24220000000008 C 27.37923999999995 94.11120000000008 28.96523999999995 96.86920000000008 30.45423999999995 99.28220000000007 C 31.22823999999995 100.53520000000007 32.09023999999995 101.96120000000008 32.36823999999995 102.45220000000008 C 32.64823999999995 102.94320000000008 33.62723999999995 104.43620000000007 34.54423999999995 105.77120000000008 C 35.461239999999954 107.10720000000008 36.48323999999995 108.60220000000008 36.81523999999995 109.09520000000008 C 48.35923999999996 126.23520000000008 60.24723999999995 127.49820000000008 71.85723999999996 112.81620000000008 C 72.44023999999996 112.07920000000009 73.23423999999996 111.17420000000008 73.62223999999996 110.80620000000008 C 74.46923999999996 110.00120000000007 76.54623999999997 106.62820000000008 76.54623999999997 106.05720000000008 C 76.54623999999997 105.62020000000008 76.60823999999997 105.61320000000008 73.59823999999998 106.37020000000008 C 70.56023999999998 107.13320000000009 70.01023999999998 107.26620000000008 68.64023999999998 107.57220000000008 C 67.90323999999998 107.73720000000009 65.39023999999998 107.87320000000008 63.056239999999974 107.87420000000009 C 59.156239999999976 107.87720000000009 58.10623999999997 107.74620000000009 56.312239999999974 107.03520000000009 C 56.01723999999997 106.91920000000009 55.309239999999974 106.68020000000008 54.738239999999976 106.50520000000009 C 49.958239999999975 105.0392000000001 46.35223999999998 100.99920000000009 43.866239999999976 94.32420000000009 C 43.53623999999998 93.43920000000008 43.15723999999997 92.43920000000008 43.022239999999975 92.10020000000009 C 42.88723999999998 91.76220000000009 42.778239999999975 91.19620000000009 42.778239999999975 90.84320000000008 C 42.778239999999975 90.49020000000009 42.67023999999998 90.13520000000008 42.53823999999997 90.05320000000007 C 42.406239999999976 89.97220000000007 42.241239999999976 89.45220000000008 42.171239999999976 88.89920000000008 C 42.10223999999997 88.34520000000008 41.866239999999976 87.22920000000008 41.64923999999998 86.41820000000008 C 41.43223999999998 85.60720000000008 41.10823999999998 84.10020000000009 40.930239999999976 83.06820000000009 C 40.751239999999974 82.0362000000001 40.50023999999998 80.7092000000001 40.370239999999974 80.1202000000001 C 40.239239999999974 79.5302000000001 40.00023999999998 78.08320000000009 39.83823999999997 76.9042000000001 C 39.675239999999974 75.7252000000001 39.42923999999997 73.9762000000001 39.29123999999997 73.0182000000001 C 38.211239999999975 65.5382000000001 37.43823999999997 54.583200000000105 37.14623999999997 42.60020000000011 C 36.90123999999997 32.52920000000011 36.84723999999997 32.098200000000105 35.59023999999997 30.076200000000107 C 34.043239999999976 27.589200000000105 29.74323999999997 28.541200000000106 25.380239999999972 32.336200000000105 C 23.822239999999972 33.692200000000106 23.102239999999973 33.86220000000011 22.261239999999972 33.0722000000001 C 21.316239999999972 32.1852000000001 21.40823999999997 31.9672000000001 23.415239999999972 30.3392000000001 C 26.99023999999997 27.439200000000103 28.945239999999973 26.3262000000001 31.254239999999974 25.8752000000001 z M 94.59995 19.36872 C 96.50543 25.30023 97.68329000000001 30.77145 98.92748 39.468720000000005 C 100.81219 52.646280000000004 100.62995000000001 71.75334000000001 98.47925000000001 86.40624 C 98.19584 88.33650999999999 96.62871000000001 90.18504 92.93768 92.94142 C 88.20078 96.47901999999999 82.01333 97.8887 76.58566 96.66662 C 73.60818 95.99595 73.50366000000001 95.96512999999999 73.34956000000001 95.71656 C 73.26983000000001 95.58725 73.02394000000001 95.48072 72.80351000000002 95.48072 C 72.14155000000002 95.48072 66.91756000000002 92.79268 65.95611000000002 91.95719000000001 C 64.62013000000002 90.79675000000002 64.43387000000003 90.65739 64.20205000000003 90.64801000000001 C 63.120000000000026 90.60513000000002 62.28853000000003 89.01388000000001 61.96559000000003 86.36872000000001 C 61.83092000000003 85.26322 61.54282000000003 83.05825000000002 61.326410000000024 81.46968000000001 C 56.676610000000025 47.39214000000001 65.09650000000002 6.006910000000005 77.80104000000003 0.4961600000000175 C 83.61798000000003 -2.0270599999999823 90.04797000000003 5.1962100000000175 94.59995000000004 19.368720000000017 z M 95.05421 8.46849 C 95.50914 8.81086 96.06255999999999 9.175339999999998 96.28366 9.27986 C 96.50476 9.38438 97.3168 9.85807 98.08864 10.332429999999999 C 98.86048 10.80679 100.29361 11.677119999999999 101.27382 12.266049999999998 C 104.31562 14.095149999999999 104.37994 14.714899999999998 101.91166 18.430719999999997 C 101.32406999999999 19.315119999999997 100.76395 20.21962 100.6668 20.44072 C 100.42761 20.9861 99.72946999999999 21.78072 99.48961 21.78072 C 99.38241 21.78072 98.96634 20.725469999999998 98.56501 19.43572 C 98.16301 18.14597 97.7389 16.84952 97.62098 16.55472 C 97.50373 16.25992 97.13456000000001 15.295119999999999 96.8009 14.41072 C 96.46657 13.52632 95.67663999999999 11.76154 95.0455 10.48921 C 94.41436 9.21688 93.97216 8.102 94.06194 8.01155 C 94.15239000000001 7.9211 94.59861000000001 8.12679 95.05421000000001 8.46849 z M 66.47737 8.31372 C 66.17787999999999 8.89796 64.05532 13.41577 63.864369999999994 13.87472 C 63.74175999999999 14.16952 63.38799999999999 14.98223 63.07845999999999 15.68104 C 62.768919999999994 16.379179999999998 62.51565999999999 17.10479 62.51565999999999 17.29239 C 62.51565999999999 17.48066 62.27445999999999 18.294040000000003 61.97965999999999 19.100720000000003 C 61.684859999999986 19.907400000000003 61.44365999999999 20.779740000000004 61.44365999999999 21.039700000000003 C 61.44365999999999 22.104330000000004 60.50029999999999 21.240700000000004 59.03165999999999 18.832720000000002 C 58.53719999999999 18.02202 57.91476999999999 17.111490000000003 57.64810999999999 16.809990000000003 C 56.40860999999999 15.405000000000003 57.08932999999999 13.479420000000003 59.20987999999999 12.395360000000004 C 59.627959999999995 12.181630000000004 60.75355999999999 11.510960000000004 61.711659999999995 10.904610000000003 C 62.66976 10.297590000000003 64.05666 9.423240000000003 64.79365999999999 8.960270000000003 C 66.10819999999998 8.134830000000003 66.68171999999998 7.914400000000003 66.47737 8.313720000000004 z" stroke-linecap="round"/>
  </g>
</svg>