<?xml version="1.0" encoding="UTF-8" standalone="no"?>
<!-- Created with Inkscape (http://www.inkscape.org/) -->

<svg
   width="256"
   height="256"
   viewBox="0 0 67.733335 67.733332"
   version="1.1"
   id="svg5"
   inkscape:export-filename="/home/pax/Desktop/AGNR/Diagrams/256x256agnrlogowht.png"
   inkscape:export-xdpi="19.34"
   inkscape:export-ydpi="19.34"
   inkscape:version="1.1.1 (3bf5ae0, 2021-09-20)"
   sodipodi:docname="agnr256whitenewlogo.svg"
   xmlns:inkscape="http://www.inkscape.org/namespaces/inkscape"
   xmlns:sodipodi="http://sodipodi.sourceforge.net/DTD/sodipodi-0.dtd"
   xmlns="http://www.w3.org/2000/svg"
   xmlns:svg="http://www.w3.org/2000/svg">
  <sodipodi:namedview
     id="namedview7"
     pagecolor="#505050"
     bordercolor="#eeeeee"
     borderopacity="1"
     inkscape:pageshadow="0"
     inkscape:pageopacity="0"
     inkscape:pagecheckerboard="0"
     inkscape:document-units="px"
     showgrid="false"
     units="px"
     width="256px"
     inkscape:zoom="0.70555556"
     inkscape:cx="50.314961"
     inkscape:cy="63.070866"
     inkscape:window-width="1920"
     inkscape:window-height="964"
     inkscape:window-x="1920"
     inkscape:window-y="27"
     inkscape:window-maximized="1"
     inkscape:current-layer="layer1" />
  <defs
     id="defs2" />
  <g
     inkscape:label="Layer 1"
     inkscape:groupmode="layer"
     id="layer1">
    <g
       id="g347"
       transform="matrix(1.0150105,0,0,1.0118702,-44.556819,88.428436)">
      <path
         style="fill:#e5e2da;stroke-width:0.0494604"
         d="m 73.20857,-22.718143 c -1.794817,-0.294874 -3.433621,-0.70441 -5.097837,-1.273946 -1.456604,-0.498483 -2.409938,-0.904964 -3.878261,-1.65359 -3.779529,-1.927018 -6.715683,-4.272743 -9.692114,-7.743152 -1.948492,-2.271859 -3.314394,-4.326149 -4.605848,-6.927113 -1.35889,-2.736763 -2.219555,-5.270098 -2.794021,-8.224123 -0.658311,-3.385157 -0.748866,-7.337713 -0.248728,-10.856845 0.80524,-5.665928 3.176381,-11.069221 6.8439,-15.595745 0.757821,-0.935311 2.781555,-3.015651 3.691573,-3.794815 3.193567,-2.734373 6.917452,-4.823903 10.670564,-5.987417 2.72055,-0.843407 5.041674,-1.244189 7.81445,-1.349296 3.826894,-0.145066 7.381137,0.361871 10.882415,1.552144 5.087229,1.729423 9.570181,4.752641 13.684187,9.228356 1.83591,1.997324 3.55971,4.565265 4.86984,7.254582 1.35657,2.784686 2.23272,5.552697 2.82736,8.932526 l 0.15623,0.887975 v 4.312649 4.312651 l -0.15623,0.887974 c -0.59464,3.37983 -1.47079,6.14784 -2.82736,8.932528 -2.68433,5.510144 -6.822681,10.054327 -11.992693,13.168763 -0.887719,0.534764 -2.815282,1.516228 -3.805088,1.937458 -2.090042,0.889449 -4.65617,1.615925 -7.073548,2.002539 l -0.780533,0.124831 -3.878252,-0.0044 c -3.846281,-0.0043 -3.884296,-0.0054 -4.610006,-0.124575 z"
         id="path111" />
      <g
         id="g340"
         transform="translate(-33.913621,-0.33254584)">
        <path
           style="fill:#a7a3db;stroke-width:0.0527107"
           d="m 109.31227,-20.446251 c -0.11615,-0.0109 -0.54378,-0.045 -0.95029,-0.0758 -1.56918,-0.11883 -3.57606,-0.45817 -5.33222,-0.9016 -5.45798,-1.37815 -10.592711,-4.25575 -14.711861,-8.2448 -3.575036,-3.46212 -6.231395,-7.50559 -8.027162,-12.218815 -0.753427,-1.977467 -1.409998,-4.528933 -1.726689,-6.709996 -0.219268,-1.510102 -0.276263,-2.300924 -0.305327,-4.236507 -0.03821,-2.544759 0.05729,-3.967232 0.408109,-6.078467 1.008928,-6.071793 3.802818,-11.884092 7.914362,-16.464727 0.832504,-0.927484 2.51043,-2.559304 3.355622,-3.263417 5.453944,-4.543569 11.988586,-7.182048 18.979496,-7.663315 0.98604,-0.06788 3.65985,-0.06788 4.64589,0 5.70326,0.392622 11.14439,2.232797 15.94485,5.3925 7.63266,5.02389 12.90972,13.059452 14.38396,21.902981 0.36489,2.188882 0.47569,3.765526 0.43392,6.174445 -0.0402,2.316269 -0.19071,3.795465 -0.5926,5.822837 -0.60157,3.034691 -1.5239,5.702412 -2.92682,8.46551 -2.90211,5.715791 -7.17039,10.269181 -12.72492,13.574911 -0.95911,0.57081 -3.13723,1.65348 -4.24993,2.11252 -2.83772,1.17066 -6.18342,1.99239 -9.42375,2.31455 -0.81373,0.0809 -4.51493,0.15148 -5.09464,0.0972 z m 4.09155,-2.86672 c 6.48267,-0.50031 12.38881,-2.91552 17.44765,-7.13494 2.96271,-2.4711 5.74782,-6.03504 7.5206,-9.623681 2.67784,-5.420721 3.69204,-11.640946 2.84881,-17.472 -0.73251,-5.065458 -2.55976,-9.566076 -5.55544,-13.683431 -2.06266,-2.834988 -4.48383,-5.154122 -7.53033,-7.212993 -4.05555,-2.740796 -8.76385,-4.4571 -13.70181,-4.99468 -2.73824,-0.298104 -5.17952,-0.23306 -7.94182,0.211596 -4.93754,0.794811 -9.413631,2.695785 -13.439811,5.707824 -6.643913,4.970399 -10.948064,12.523862 -11.875001,20.839735 -0.63418,5.689458 0.43594,11.573964 3.05014,16.772479 1.574151,3.130301 4.033051,6.408731 6.440262,8.586731 3.678715,3.32845 7.659817,5.57462 12.19304,6.87944 2.42821,0.69892 4.53947,1.04011 7.42885,1.20053 0.50133,0.0278 2.35091,-0.0177 3.11486,-0.0766 z m -3.08846,-9.05547 c -1.54273,-0.14668 -3.08774,-0.68424 -4.32337,-1.50423 -0.63264,-0.41984 -1.53498,-1.27441 -1.94489,-1.84192 -1.68841,-2.337591 -1.67205,-5.224788 0.0425,-7.502102 0.66709,-0.886036 1.7847,-1.803844 2.76623,-2.271693 0.43471,-0.207205 0.51884,-0.224163 0.56155,-0.113195 0.0549,0.142716 -0.0922,0.297059 -0.602,0.631582 -1.18988,0.780743 -1.9299,1.591594 -2.43695,2.670205 -0.38048,0.809352 -0.45118,1.154399 -0.45118,2.201892 0,0.80291 0.0155,0.97417 0.12056,1.3359 0.56472,1.943411 2.06086,3.476971 4.15576,4.259671 0.98104,0.36654 1.91408,0.52919 3.03567,0.52919 1.45777,0 2.63608,-0.27492 3.87881,-0.905 2.36027,-1.1967 3.73047,-3.459841 3.4663,-5.725253 -0.20724,-1.777154 -1.15531,-3.185871 -2.94824,-4.380708 -0.48687,-0.324458 -0.62904,-0.477135 -0.57502,-0.617479 0.0427,-0.110968 0.12684,-0.09401 0.56155,0.113195 1.05975,0.505131 2.39316,1.649089 3.00135,2.574916 0.73274,1.115426 1.07262,2.216029 1.07262,3.473408 0,1.01204 -0.2145,1.89605 -0.68137,2.808131 -1.45505,2.84256 -5.0606,4.6095 -8.6999,4.26349 z m -22.107555,-2.76897 -0.409155,-0.0179 v -0.15383 c 0,-0.15067 0.213682,-0.59945 2.230013,-4.683471 2.396176,-4.853388 5.847953,-11.847088 7.220921,-14.630423 0.835268,-1.693288 1.975575,-4.002316 2.534015,-5.131174 0.558441,-1.128858 1.199591,-2.431387 1.424781,-2.894508 0.2252,-0.463121 0.92598,-1.884062 1.55731,-3.157645 1.16806,-2.356349 2.14759,-4.33821 3.58951,-7.262584 0.44244,-0.897298 1.51151,-3.064232 2.37572,-4.815409 0.86421,-1.751177 1.7438,-3.53999 1.95465,-3.975139 0.21084,-0.435149 0.42297,-0.823959 0.4714,-0.864021 0.17582,-0.145455 0.14709,-0.19851 2.64861,4.891787 1.53503,3.123601 2.42433,4.928689 3.99288,8.104623 2.01382,4.077515 2.52145,5.105548 3.2613,6.604741 0.42853,0.868353 1.22392,2.478752 1.76752,3.578665 0.54361,1.099913 1.58903,3.219482 2.32315,4.710154 0.73413,1.490672 1.78542,3.622082 2.33622,4.736468 0.55079,1.114385 1.66739,3.376049 2.48133,5.025918 0.81394,1.64987 1.98433,4.018104 2.60087,5.262747 1.68199,3.395501 2.09468,4.253111 2.13522,4.437101 0.0326,0.14795 0.0207,0.17337 -0.1027,0.22016 -0.14985,0.0568 -1.32877,0.0622 -1.57506,0.007 -0.12149,-0.0271 -0.19237,-0.11564 -0.38483,-0.48058 -0.22442,-0.42551 -2.29199,-4.602142 -3.50406,-7.07839 -0.31169,-0.636792 -2.07022,-4.200984 -3.90784,-7.920426 -1.83762,-3.719279 -3.58429,-7.259789 -3.8815,-7.867636 -0.29721,-0.607847 -1.08052,-2.194563 -1.74071,-3.526037 -0.66018,-1.331474 -1.42043,-2.870826 -1.68945,-3.420782 -0.26902,-0.549957 -1.00417,-2.041944 -1.63367,-3.315528 -0.6295,-1.273583 -1.63507,-3.310265 -2.23462,-4.525958 -2.01645,-4.088778 -2.72735,-5.473251 -2.81037,-5.473251 -0.0484,0 -0.19549,0.235019 -0.37869,0.605215 -0.16472,0.332868 -0.84444,1.706444 -1.51048,3.05239 -0.66604,1.345946 -1.37823,2.790569 -1.58264,3.210273 -0.20441,0.419703 -1.0064,2.041944 -1.78221,3.604978 -0.7758,1.563034 -1.60631,3.24448 -1.84557,3.736547 -0.23926,0.492066 -1.56969,3.191853 -2.95649,5.999526 -1.386815,2.807673 -3.181344,6.442912 -3.98785,8.078309 -0.806505,1.635397 -1.946812,3.944425 -2.534016,5.131173 -0.587204,1.186749 -1.323494,2.678736 -1.6362,3.315528 -1.024708,2.086708 -2.956465,5.990359 -3.182336,6.430799 -0.140221,0.27343 -0.260102,0.44171 -0.327538,0.45978 -0.105483,0.0283 -0.519664,0.0254 -1.307435,-0.009 z m 22.752355,-4.088151 c -0.72883,-0.19507 -1.13362,-1.036095 -0.82515,-1.71438 0.14476,-0.318278 0.28814,-0.463794 0.6027,-0.611667 0.82485,-0.387752 1.78101,0.209274 1.78308,1.113355 0.002,0.805652 -0.78808,1.419472 -1.56063,1.212692 z m -0.142,-5.302843 c -0.28911,-0.195772 -0.42361,-0.434956 -0.42361,-0.753299 0,-0.476482 0.37517,-0.868353 0.83134,-0.868353 0.49742,0 0.85913,0.326102 0.89946,0.810914 0.0263,0.316375 -0.0482,0.499027 -0.30156,0.739159 -0.13817,0.130958 -0.21585,0.158629 -0.49306,0.17565 -0.27903,0.01713 -0.35695,0.0013 -0.51257,-0.104071 z m 0.11786,-4.389222 c -0.27235,-0.13858 -0.40029,-0.393064 -0.37152,-0.738945 0.0196,-0.236233 0.0543,-0.320028 0.18743,-0.452686 0.22228,-0.221579 0.65322,-0.267373 0.92727,-0.09853 0.59542,0.366827 0.37799,1.299862 -0.3161,1.356448 -0.16982,0.01384 -0.3134,-0.0084 -0.42708,-0.06628 z m 0.11255,-4.283455 c -0.34241,-0.137914 -0.43629,-0.573061 -0.18428,-0.854219 0.1266,-0.141239 0.19127,-0.170673 0.37497,-0.170673 0.1837,0 0.24836,0.02943 0.37496,0.170673 0.2623,0.29264 0.19511,0.691758 -0.13994,0.831312 -0.20116,0.08378 -0.26592,0.08727 -0.42571,0.02291 z m -0.0884,-5.812389 c -0.72883,-0.195074 -1.13362,-1.036096 -0.82514,-1.714381 0.14475,-0.318278 0.28813,-0.463794 0.60269,-0.611667 0.82485,-0.387752 1.78101,0.209274 1.78308,1.113355 0.002,0.805652 -0.78808,1.419467 -1.56063,1.212693 z"
           id="path103" />
        <path
           style="fill:#827bea;stroke-width:0.0527107"
           d="m 109.77263,-20.524599 c -2.50706,-0.151704 -4.02607,-0.356909 -5.99975,-0.81052 -3.863932,-0.888035 -7.524922,-2.470858 -10.867838,-4.698681 -7.737676,-5.15663 -12.963396,-13.418944 -14.303786,-22.615525 -0.243779,-1.672603 -0.291569,-2.453246 -0.291569,-4.762781 0,-2.310349 0.048,-3.093809 0.291805,-4.762782 0.923943,-6.324895 3.747007,-12.374156 7.967007,-17.071705 0.850212,-0.946423 2.629289,-2.678328 3.459119,-3.367397 2.106839,-1.749466 4.159223,-3.076331 6.678461,-4.317619 3.892501,-1.917929 7.984751,-3.010736 12.326531,-3.291714 1.08318,-0.0701 3.30054,-0.0701 4.38372,0 6.25525,0.404808 12.14811,2.541365 17.31558,6.27806 1.35812,0.98208 2.50586,1.971393 3.88245,3.346536 1.6646,1.662849 2.83195,3.082896 4.09177,4.977534 3.08681,4.642245 4.85313,9.643301 5.39035,15.261951 0.12701,1.328469 0.12697,4.566593 0,5.894271 -0.65866,6.882694 -3.29625,13.185501 -7.66417,18.314343 -5.65761,6.643207 -13.58361,10.752909 -22.23064,11.526795 -0.84417,0.07555 -3.7459,0.140568 -4.42896,0.09923 z m 3.93317,-2.704686 c 3.3251,-0.33049 6.06468,-0.990201 8.99022,-2.164903 3.31726,-1.332 6.61423,-3.448185 9.3901,-6.027108 1.83932,-1.708828 3.85055,-4.235985 5.27137,-6.623603 1.98479,-3.335333 3.328,-7.156705 3.90318,-11.104386 0.23438,-1.608638 0.28811,-2.40363 0.28811,-4.262821 0,-1.856848 -0.0531,-2.64427 -0.28744,-4.262822 -1.14923,-7.937568 -5.40685,-15.126784 -11.77009,-19.874453 -2.74869,-2.050818 -5.52214,-3.496891 -8.76383,-4.569449 -7.29128,-2.412418 -15.04206,-1.981211 -22.173546,1.233604 -3.344097,1.507493 -7.034621,4.156652 -9.439581,6.775991 -2.892233,3.150047 -4.958568,6.503857 -6.347352,10.302207 -2.658386,7.270739 -2.461345,15.044998 0.56329,22.224551 1.737021,4.123156 4.639251,8.123916 7.974299,10.992668 4.644057,3.994748 10.16651,6.453811 16.22435,7.224461 0.52474,0.06676 1.22073,0.131574 2.24375,0.208962 0.48309,0.03655 3.37047,-0.01697 3.93317,-0.0729 z m -3.58715,-9.165944 c -3.26556,-0.339942 -6.13304,-2.440965 -7.0185,-5.142501 -0.2161,-0.659307 -0.28486,-1.112026 -0.28486,-1.875482 0,-1.032828 0.1631,-1.738206 0.62061,-2.683998 0.64306,-1.329389 2.05419,-2.699512 3.47014,-3.369304 0.39132,-0.185109 0.51725,-0.199283 0.51725,-0.05822 0,0.104166 -0.24571,0.308935 -0.85866,0.715585 -1.27855,0.848224 -2.20636,2.096555 -2.58279,3.475035 -0.10582,0.387514 -0.12158,0.563453 -0.11785,1.315686 0.004,0.784465 0.0181,0.914109 0.14698,1.341999 0.34112,1.132455 0.97218,2.111059 1.84423,2.859923 1.42881,1.226985 3.33241,1.900933 5.36927,1.900933 3.49426,0 6.46267,-1.983607 7.24263,-4.839797 0.10389,-0.380446 0.12216,-0.573237 0.12216,-1.289372 0,-0.986532 -0.0917,-1.414919 -0.47671,-2.226752 -0.52056,-1.097686 -1.25886,-1.914518 -2.40057,-2.655933 -0.52432,-0.340486 -0.71344,-0.523163 -0.66687,-0.644146 0.04,-0.103892 0.13655,-0.07865 0.61728,0.161383 1.68754,0.842583 3.11961,2.4223 3.66553,4.043426 0.24499,0.727508 0.30552,1.114547 0.30552,1.953551 0,0.839005 -0.0605,1.226044 -0.30552,1.953552 -0.5801,1.722622 -1.99967,3.240048 -3.90631,4.175596 -1.5611,0.765992 -3.44682,1.082061 -5.30296,0.888836 z m -22.297367,-2.761719 c -0.08814,-0.08786 -0.454806,0.666499 8.489517,-17.465747 1.313586,-2.662948 3.201619,-6.487645 4.19563,-8.499329 3.00179,-6.075048 6.29809,-12.75849 8.24103,-16.709205 2.32186,-4.721169 2.38116,-4.837337 2.47906,-4.855992 0.0596,-0.01137 0.47983,0.793006 1.58045,3.025471 0.82457,1.672523 2.36496,4.793445 3.42308,6.935381 1.05813,2.141936 2.28567,4.628582 2.72787,5.525879 0.75342,1.528832 3.96741,8.041371 9.57069,19.393204 1.32158,2.677421 2.72928,5.531143 3.12823,6.341605 0.39895,0.810462 1.22751,2.48942 1.84124,3.731017 0.61373,1.241596 1.12144,2.330984 1.12824,2.420861 l 0.0124,0.163412 h -0.87111 -0.87111 l -0.19451,-0.394705 c -0.10698,-0.217088 -1.12524,-2.277452 -2.26281,-4.578586 -1.13756,-2.301134 -2.38361,-4.823303 -2.769,-5.604821 -0.38539,-0.781517 -1.09846,-2.22614 -1.5846,-3.210273 -0.48615,-0.984133 -1.24576,-2.523485 -1.68803,-3.420782 -0.44228,-0.897298 -1.88554,-3.822066 -3.20725,-6.499486 -1.32171,-2.67742 -3.8299,-7.760217 -5.57376,-11.295106 -3.9378,-7.982109 -4.32621,-8.755941 -4.39491,-8.755941 -0.0304,0 -0.45495,0.81112 -0.94354,1.80249 -0.48859,0.991369 -1.27995,2.595847 -1.75858,3.565507 -2.18945,4.435623 -5.94395,12.043204 -8.817748,17.867008 -1.72829,3.502355 -3.972487,8.049364 -4.987135,10.104465 -1.014649,2.055102 -2.329173,4.719365 -2.921165,5.920586 -0.591993,1.201221 -1.338395,2.705049 -1.658671,3.341841 l -0.582321,1.157803 -0.847846,0.01441 c -0.466316,0.0079 -0.863819,-0.0015 -0.883341,-0.02097 z m 23.138877,-4.068612 c -0.56906,-0.172554 -0.91927,-0.625123 -0.91896,-1.187573 6e-4,-1.092669 1.34678,-1.630191 2.08794,-0.833701 0.30398,0.326669 0.4085,0.712202 0.30719,1.133151 -0.0896,0.372506 -0.49092,0.784353 -0.8527,0.875162 -0.2758,0.06923 -0.42751,0.07238 -0.62347,0.01296 z m -0.10704,-5.279355 c -0.73179,-0.368193 -0.56795,-1.417644 0.24815,-1.589517 0.38882,-0.08189 0.83315,0.201548 0.9658,0.616091 0.12047,0.376467 -0.0807,0.828268 -0.4416,0.991642 -0.28657,0.129734 -0.48773,0.12499 -0.77235,-0.01822 z m 0.23937,-4.340855 c -0.54334,-0.135611 -0.72756,-0.813245 -0.32909,-1.210461 0.57411,-0.572294 1.48265,0.05844 1.1533,0.800651 -0.0843,0.18995 -0.15493,0.262689 -0.33359,0.343518 -0.22982,0.103976 -0.30107,0.113603 -0.49062,0.06629 z m -0.15013,-4.389115 c -0.1642,-0.09514 -0.26061,-0.394137 -0.19297,-0.598443 0.0973,-0.29377 0.46402,-0.435975 0.74198,-0.287689 0.28473,0.151905 0.32362,0.637118 0.0672,0.838199 -0.14954,0.11725 -0.4555,0.141051 -0.6162,0.04793 z m 0.0178,-5.778586 c -0.56907,-0.172554 -0.91927,-0.625123 -0.91896,-1.187573 5.9e-4,-1.092669 1.34678,-1.630191 2.08794,-0.833701 0.30398,0.326669 0.40849,0.712202 0.30719,1.133151 -0.0896,0.372506 -0.49093,0.784353 -0.8527,0.875162 -0.2758,0.06923 -0.42751,0.07238 -0.62347,0.01296 z"
           id="path101" />
        <path
           style="fill:#7168ed;stroke-width:0.0527107"
           d="m 109.12174,-20.631011 c -10.318288,-0.6413 -19.771785,-6.14455 -25.410509,-14.79244 -3.051426,-4.67985 -4.861313,-10.00851 -5.261484,-15.49082 -0.06963,-0.95387 -0.06932,-3.99933 5.02e-4,-4.94698 0.30722,-4.16979 1.415181,-8.2223 3.270639,-11.96274 1.657857,-3.34211 3.473198,-5.90646 6.019216,-8.50274 2.819985,-2.87565 6.009517,-5.13023 9.634934,-6.81061 3.360512,-1.55761 6.581892,-2.44166 10.532432,-2.89045 1.19014,-0.1352 5.46193,-0.1352 6.65207,0 2.89734,0.32915 5.22906,0.85554 7.78503,1.7575 3.4306,1.21061 7.1163,3.3065 9.92741,5.64526 2.32272,1.93244 4.48169,4.30244 6.16269,6.76505 3.2105,4.70327 5.06467,9.91182 5.5923,15.70928 0.0926,1.01724 0.0926,4.50864 0,5.52588 -0.51865,5.69886 -2.28774,10.74333 -5.41693,15.44615 -5.40698,8.12608 -14.26068,13.46086 -23.97131,14.44388 -1.5294,0.15482 -3.96007,0.20055 -5.51699,0.10378 z m 4.40831,-2.47051 c 6.13792,-0.52695 11.67747,-2.67477 16.45326,-6.37931 1.87124,-1.45151 3.74139,-3.29466 4.82316,-4.75355 0.17047,-0.22991 0.47856,-0.62005 0.68464,-0.86698 0.90624,-1.0859 2.41528,-3.53019 3.18277,-5.15534 1.63974,-3.47212 2.57018,-6.93974 2.92323,-10.89439 0.0877,-0.98225 0.0877,-3.49109 0,-4.47333 -0.48084,-5.38616 -2.11284,-10.14498 -4.9488,-14.43045 -2.58428,-3.90514 -5.77331,-6.9401 -9.88257,-9.40511 -4.59746,-2.75787 -10.09196,-4.26749 -15.53223,-4.26749 -5.44032,0 -10.93569,1.50988 -15.532241,4.26755 -3.771392,2.26262 -6.702776,4.95291 -9.210874,8.4533 -3.680794,5.13706 -5.66607,11.31035 -5.66607,17.61886 0,4.27402 0.896459,8.43228 2.688927,12.4727 1.494399,3.36854 4.140308,7.09432 6.779389,9.54626 4.886495,4.53997 10.672599,7.27205 17.172599,8.10853 0.67798,0.0873 1.41098,0.153 2.60679,0.23381 0.48475,0.0327 2.78334,-0.0171 3.45802,-0.0751 z m -3.22044,-9.26731 c -3.41068,-0.31678 -6.28759,-2.39239 -7.20342,-5.19706 -0.20209,-0.61889 -0.28209,-1.13589 -0.28209,-1.82298 0,-0.69005 0.08,-1.20422 0.28534,-1.83286 0.33627,-1.02974 0.98129,-2.02634 1.83664,-2.83775 0.70984,-0.67337 2.01556,-1.51311 2.35275,-1.51311 0.30165,0 0.0917,0.23317 -0.64683,0.7182 -1.51152,0.99275 -2.50737,2.42906 -2.75801,3.9779 -0.1028,0.63524 -0.0432,1.69523 0.12742,2.26567 0.29645,0.99123 0.77851,1.7888 1.53523,2.54004 1.01083,1.00351 2.32701,1.68163 3.94791,2.034 0.47052,0.10229 0.69601,0.11764 1.72896,0.11764 1.03294,0 1.25843,-0.0153 1.72895,-0.11764 1.62166,-0.35254 2.94626,-1.03453 3.94997,-2.03368 0.87763,-0.87366 1.42338,-1.86279 1.63744,-2.9678 0.096,-0.49546 0.096,-1.4688 0,-1.96427 -0.29522,-1.52392 -1.26071,-2.8806 -2.7456,-3.85803 -0.72894,-0.47982 -0.93619,-0.71203 -0.6355,-0.71203 0.41159,0 1.86036,0.98371 2.61572,1.77605 1.23314,1.29351 1.85842,2.77651 1.85842,4.40767 0,0.6904 -0.08,1.20425 -0.28571,1.83402 -1.09679,3.35855 -4.9491,5.56667 -9.04759,5.18602 z m -22.4369,-2.94423 c 0.0198,-0.0898 0.547423,-1.19759 1.172507,-2.46165 0.625084,-1.26407 1.427559,-2.89037 1.783278,-3.614 0.765357,-1.55693 2.120173,-4.30125 3.35157,-6.78893 0.487143,-0.98414 1.20085,-2.42876 1.586017,-3.21028 0.385167,-0.78151 1.198745,-2.42744 1.807951,-3.6576 0.609206,-1.23017 1.315258,-2.66295 1.569005,-3.18396 0.253746,-0.52101 0.84791,-1.72881 1.320362,-2.684 1.42674,-2.88452 2.61071,-5.28166 3.43111,-6.94682 0.42782,-0.86835 1.17614,-2.38402 1.66293,-3.36815 0.48679,-0.98414 1.14063,-2.31035 1.45297,-2.94714 0.31234,-0.63679 1.13833,-2.30967 1.83553,-3.71751 0.6972,-1.40784 1.36623,-2.78141 1.48672,-3.05239 0.35916,-0.80771 0.81594,-1.64944 0.90383,-1.66554 0.0819,-0.015 0.13704,0.0916 1.54431,2.9885 0.24607,0.50654 0.8805,1.79723 1.40985,2.8682 0.52934,1.07097 1.23007,2.49191 1.55717,3.15764 0.3271,0.66574 1.20608,2.44191 1.95329,3.94706 0.74721,1.50514 1.48348,2.99713 1.63616,3.31553 0.15268,0.31839 0.75831,1.54987 1.34585,2.73662 0.58753,1.18675 1.73987,3.51946 2.56074,5.1838 0.82088,1.66435 1.89049,3.83128 2.37692,4.81541 0.48643,0.98414 1.17515,2.38139 1.53049,3.10502 0.35533,0.72363 1.09731,2.22746 1.64884,3.34184 1.461,2.952 3.70263,7.49377 4.98666,10.10344 0.43409,0.88226 0.80242,1.6697 0.8185,1.74986 l 0.0292,0.14575 h -0.85135 -0.85137 l -1.08926,-2.19719 c -0.59909,-1.20846 -1.32071,-2.67084 -1.60359,-3.24974 -0.28288,-0.57891 -1.00731,-2.04721 -1.60985,-3.2629 -0.60254,-1.2157 -1.25602,-2.54191 -1.45219,-2.94714 -0.19616,-0.40523 -0.94396,-1.9209 -1.66177,-3.36816 -0.71781,-1.44725 -1.52579,-3.08133 -1.79552,-3.63129 -0.26972,-0.54995 -0.9117,-1.85248 -1.42663,-2.89451 -0.51493,-1.04202 -1.31018,-2.65242 -1.76723,-3.57866 -0.45704,-0.92624 -1.1935,-2.41823 -1.63657,-3.31553 -0.44306,-0.8973 -1.12069,-2.27087 -1.50583,-3.05239 -0.38514,-0.78152 -1.15708,-2.34455 -1.71542,-3.47341 -0.55834,-1.12886 -1.2827,-2.59716 -1.60968,-3.2629 -1.96929,-4.00948 -2.77313,-5.60482 -2.82411,-5.60482 -0.0317,0 -0.3629,0.62166 -0.73596,1.38147 -0.37305,0.75981 -1.18276,2.39981 -1.79935,3.64445 -0.61659,1.24464 -1.40016,2.83136 -1.74125,3.52604 -0.3411,0.69468 -0.98275,1.99721 -1.42589,2.89451 -2.24061,4.53692 -2.65522,5.37667 -3.3389,6.76262 -0.40694,0.82493 -1.10798,2.24587 -1.55787,3.15764 -0.44988,0.91177 -1.132629,2.29719 -1.517205,3.07871 -0.384576,0.78152 -1.168398,2.36823 -1.741825,3.52604 -0.573427,1.1578 -1.215247,2.46033 -1.426265,2.8945 -0.211019,0.43418 -0.971305,1.97353 -1.689523,3.42079 -0.718219,1.44725 -1.537763,3.10501 -1.82121,3.68392 -0.717159,1.46469 -2.729876,5.55045 -2.812886,5.71007 -0.06822,0.13119 -0.07091,0.13161 -0.928854,0.14605 l -0.860433,0.0145 z m 23.08735,-3.9125 c -1.07542,-0.2882 -1.2299,-1.72577 -0.24001,-2.23358 0.88727,-0.45516 1.92883,0.34586 1.71951,1.32241 -0.13981,0.65228 -0.83892,1.08283 -1.4795,0.91117 z m 0.0559,-5.19776 c -0.38817,-0.10422 -0.65842,-0.54818 -0.5899,-0.96907 0.0421,-0.25842 0.33654,-0.57613 0.59449,-0.6414 0.77721,-0.19665 1.38428,0.70296 0.89381,1.32452 -0.20397,0.25849 -0.56852,0.37452 -0.8984,0.28595 z m -0.0464,-4.46934 c -0.2075,-0.0768 -0.39682,-0.39611 -0.39097,-0.65936 0.009,-0.39492 0.27908,-0.66437 0.67525,-0.67312 0.55631,-0.0123 0.9042,0.58595 0.61536,1.05818 -0.1779,0.29084 -0.54917,0.40405 -0.89964,0.2743 z m -0.0568,-4.41211 c -0.11425,-0.11389 -0.15432,-0.20376 -0.15432,-0.34613 0,-0.25068 0.23446,-0.49996 0.47025,-0.49996 0.25338,0 0.4906,0.24175 0.4906,0.49996 0,0.16521 -0.0332,0.23649 -0.16449,0.35345 -0.22087,0.19672 -0.43986,0.19422 -0.64204,-0.007 z m 0.0474,-5.7087 c -1.07542,-0.2882 -1.2299,-1.72577 -0.24001,-2.23358 0.88727,-0.45516 1.92883,0.34586 1.71951,1.32241 -0.13981,0.65228 -0.83892,1.08283 -1.4795,0.91117 z"
           id="path99" />
      </g>
    </g>
  </g>
</svg>
