<?xml version="1.0" encoding="utf-8"?>
<!-- Generator: Adobe Illustrator 25.0.1, SVG Export Plug-In . SVG Version: 6.00 Build 0)  -->
<svg version="1.1" id="Layer_1" xmlns="http://www.w3.org/2000/svg" xmlns:xlink="http://www.w3.org/1999/xlink" x="0px" y="0px"
	 viewBox="0 0 256 256" style="enable-background:new 0 0 256 256;" xml:space="preserve">
<style type="text/css">
	.st0{fill:#E41E2A;}
	.st1{fill:#03539D;}
</style>
<g>
	<path class="st0" d="M139.75,200.45c31.02-8.42,45.94-30.87,44.8-55.65c-1.06-23.07-13.38-47.85-47.19-52.11
		c0-16.49,0-32.99,0-49.97c3.12,0.39,6.13,0.62,9.08,1.16c17.6,3.21,33.9,9.62,48.31,20.34c17.57,13.06,29.21,30.36,35.89,51.07
		c0.75,2.33,1.18,4.86,1.18,7.31c0.07,41.83,0.05,83.65,0.05,125.48c0,1.18,0,2.37,0,3.5c-11.02,1.64-25.4-6.75-38.08-22.11
		c-0.63,0.42-1.32,0.81-1.94,1.29c-12.42,9.44-25.81,16.83-41.49,19.24c-2.83,0.44-5.72,0.49-8.58,0.73
		c-1.39,0.12-2.04-0.42-2.03-1.9C139.76,232.74,139.75,216.67,139.75,200.45z"/>
	<path class="st1" d="M24.13,4.23c12.2,1.36,23.6,4.78,33.3,12.68c7.06,5.74,11.91,12.99,14.47,21.66c0.71,2.4,1.82,2.95,4.08,2.93
		c14.15-0.08,28.31,0.04,42.46-0.1c2.85-0.03,3.6,0.81,3.58,3.62c-0.13,15.06-0.06,30.12-0.06,45.18c0,0.92,0,1.83,0,3.21
		c-1.33,0-2.4,0-3.48,0c-12.66,0-25.33,0.07-37.99-0.06c-2.5-0.03-3.17,0.75-3.15,3.15c0.19,20.73-0.07,41.46,0.54,62.17
		c0.27,9.18,4.58,17.31,10.47,24.39c7.81,9.38,18.1,14.27,30.02,15.87c2.77,0.37,3.68,1.24,3.65,4.11
		c-0.15,14.5-0.07,29.01-0.07,43.51c0,1.09,0,2.19,0,3.46c-9.02,1.18-17.49-0.04-25.81-2.41c-19.29-5.5-34.43-17.04-46.83-32.48
		c-9.43-11.76-16.51-24.88-22.21-38.76c-0.79-1.91-0.84-4.15-1.08-6.26c-0.16-1.38-0.06-2.79-0.07-4.18
		c-0.16-23.33-0.33-46.66-0.49-69.98c-0.09-13.01-0.15-26.03-0.26-39.04c-0.12-13.38-0.27-26.75-0.45-40.13
		c-0.01-0.84-0.41-1.66-0.62-2.5C24.13,10.93,24.13,7.58,24.13,4.23z"/>
</g>
</svg>
