<svg width="256" height="256" viewBox="0 0 256 256" fill="none" xmlns="http://www.w3.org/2000/svg">
<g clip-path="url(#clip0_24_23)">
<path d="M256.001 127.999C256.001 198.691 198.693 256 128.001 256C57.3076 256 0 198.691 0 127.999C0 57.306 57.3076 -0.00163878 128.001 -0.00163878C198.693 -0.00163878 256.001 57.306 256.001 127.999Z" fill="#CFD387"/>
<path d="M60.5462 134.931C58.1796 134.931 55.9869 133.398 55.2607 131.017C53.2245 124.361 59.0061 117.556 73.4434 109.606C84.8852 103.31 100.625 96.9537 117.771 91.7118C134.917 86.464 151.518 82.9285 164.528 81.7567C180.937 80.2696 189.539 82.6775 191.577 89.3373C192.463 92.2597 190.818 95.3482 187.904 96.2431C185.276 97.0455 182.512 95.7977 181.33 93.4099C177.204 91.2806 155.657 91.7026 121.011 102.294C86.3632 112.893 68.2649 124.595 66.0325 128.668C66.3928 131.303 64.7928 133.887 62.1627 134.689C61.6262 134.853 61.0808 134.931 60.5462 134.931" fill="#2D4D32"/>
<path d="M66.9855 94.7068C64.6182 94.7068 62.424 93.1722 61.7007 90.7935C59.4192 83.3622 68.6095 77.2921 75.7135 73.383C84.1796 68.7265 95.8061 64.0275 108.453 60.1618C121.108 56.291 133.365 53.6863 142.984 52.8106C151.07 52.0716 162.069 51.9699 164.341 59.3945C165.237 62.3286 163.593 65.4246 160.674 66.3086C158.249 67.0484 155.714 66.0459 154.412 64.0234C150.653 62.789 135.447 63.4796 111.693 70.7441C87.9328 78.0044 74.9424 85.9411 72.5256 89.0612C72.567 91.4691 71.0308 93.7202 68.6095 94.4641C68.0638 94.6243 67.5253 94.7068 66.9855 94.7068" fill="#2D4D32"/>
<path d="M184.603 121.997C182.299 114.47 171.052 114.59 162.799 115.329C152.909 116.228 140.301 118.914 127.302 122.887C114.304 126.863 102.348 131.699 93.6535 136.478C86.3974 140.476 77.0011 146.662 79.3022 154.198C80.2017 157.115 83.2946 158.758 86.2139 157.864C88.6451 157.12 90.1948 154.848 90.1272 152.414C92.5493 149.197 105.916 140.994 130.546 133.462C151.043 127.199 165.347 125.678 171.737 126.1C169.164 128.202 164.291 131.189 156.483 134.188L156.341 134.251C137.639 142.09 131.27 154.819 136.89 173.151L138.019 176.847C139.585 175.926 141.297 175.165 143.115 174.604C144.939 174.047 146.78 173.732 148.605 173.618L147.317 169.403C144.162 158.758 145.401 150.851 160.552 144.486C168.93 141.241 187.85 132.627 184.603 121.997Z" fill="#2D4D32"/>
<path d="M164.327 221.741C164.327 221.741 158.548 211.516 149.09 207.775C147.864 207.288 146.569 206.911 145.223 206.677C144.216 192.095 140.663 185.485 140.663 185.485L140.63 185.387C140.663 185.36 140.685 185.339 140.718 185.318C142.139 184.202 143.775 183.327 145.611 182.765C147.441 182.208 149.291 182.014 151.089 182.149C151.121 182.149 151.182 182.155 151.216 182.162L151.256 182.276L153.676 189.577C152.496 190.776 151.765 192.425 151.765 194.243C151.765 197.581 154.212 200.337 157.403 200.838L159.005 205.664L164.327 221.741" fill="#2D4D32"/>
</g>
<defs>
<clipPath id="clip0_24_23">
<rect width="256" height="256" fill="white"/>
</clipPath>
</defs>
</svg>
