<svg width="256" height="256" viewBox="0 0 256 256" fill="none" xmlns="http://www.w3.org/2000/svg">
<rect width="256" height="256" fill="white"/>
<rect width="256" height="256" fill="black"/>
<path fill-rule="evenodd" clip-rule="evenodd" d="M0.159204 1.17964V0C0.0813377 0.245219 0.0280026 0.497611 0 0.753449V254.691V255.954H255.219H255.886C255.917 255.954 255.97 255.848 255.97 255.795H254.802H0.159204V254.615V1.17964ZM201.743 118.056H172.776L172.783 118.064H143.976C142.998 118.064 142.02 118.125 141.05 118.186C140.405 118.216 140.049 118.536 140.185 119.221C140.284 119.7 140.394 120.176 140.504 120.652L140.504 120.654C140.614 121.129 140.724 121.604 140.822 122.083C141.365 124.551 142.439 126.871 143.968 128.879C145.204 130.597 146.796 132.025 148.635 133.066C150.474 134.106 152.516 134.734 154.62 134.906C159.32 135.447 164.027 136.063 168.493 137.821C170.531 138.588 172.4 139.746 173.996 141.231C174.32 141.502 174.545 141.873 174.637 142.286C174.729 142.699 174.682 143.131 174.504 143.514C174.232 144.103 173.966 144.697 173.699 145.29L173.699 145.291C172.906 147.059 172.111 148.831 171.146 150.501C169.682 153.037 168.051 155.473 166.264 157.792C164.209 160.375 161.875 162.72 159.305 164.786C154.606 168.63 149.221 171.541 143.438 173.363C139.739 174.506 135.925 175.236 132.066 175.54C121.867 176.125 111.707 173.842 102.728 168.949C98.5897 166.685 94.8213 163.797 91.5539 160.387C89.1933 158.089 87.1371 155.495 85.4361 152.67C84.0791 150.242 82.7373 147.799 81.5395 145.287C80.2658 142.362 79.3396 139.297 78.7801 136.155C78.5754 135.173 78.9165 134.785 79.9096 134.785H91.9633H104.343C105.359 134.785 105.677 134.511 105.677 133.605V119.236C105.677 118.498 105.374 118.14 104.616 118.14C104.114 118.133 103.613 118.113 103.111 118.092L103.111 118.092C102.498 118.067 101.885 118.041 101.273 118.041H83.0254C82.6643 118.041 82.3024 118.048 81.9402 118.055H81.9401H81.94C81.2148 118.068 80.4885 118.082 79.7656 118.041C78.8255 117.98 78.636 117.615 78.8634 116.702C79.8207 112.473 81.2605 108.369 83.1542 104.471C84.3372 102.005 85.7031 99.6315 87.2404 97.3707C89.356 94.3597 91.7855 91.5838 94.4877 89.0903C96.7102 87.0177 99.1043 85.1387 101.644 83.4736C104.902 81.4161 108.388 79.7458 112.03 78.4962C116.599 76.924 121.378 76.0517 126.206 75.9086C132.32 75.6906 138.419 76.6623 144.165 78.7702C151.176 81.2521 157.564 85.2388 162.883 90.4526C164.368 92.035 165.986 93.4863 167.719 94.7906C169.094 95.7738 170.635 96.4984 172.268 96.9292C174.947 97.5268 177.717 97.5811 180.417 97.0891C182.6 96.7213 184.63 95.7274 186.262 94.2275C186.397 94.1358 186.511 94.0175 186.598 93.8798C186.686 93.7421 186.744 93.5879 186.769 93.4267C186.795 93.2656 186.787 93.1008 186.747 92.9427C186.707 92.7846 186.635 92.6365 186.535 92.5074C186.095 91.8605 185.661 91.2069 185.225 90.553C184.048 88.7836 182.869 87.0114 181.585 85.361C180.572 84.0588 179.46 82.8298 178.349 81.6013C177.532 80.6974 176.715 79.7938 175.937 78.8615C173.822 76.4802 171.456 74.3367 168.879 72.4686C165.271 69.6538 161.366 67.2446 157.235 65.2841C153.285 63.4129 149.171 61.9123 144.946 60.8014C140.929 59.7337 136.819 59.0557 132.673 58.777C125.677 58.29 118.649 58.9141 111.848 60.6264C109.539 61.151 107.261 61.8065 105.025 62.5899C102.281 63.6011 99.6135 64.8092 97.0425 66.205C94.051 67.8124 91.1894 69.6522 88.4836 71.7075C85.4904 74.0793 82.6589 76.6499 80.0082 79.4019C77.8844 81.6166 75.9163 83.9765 74.1178 86.4646C72.359 88.8163 70.8428 91.3126 69.3267 93.8165C68.2526 95.6092 67.2855 97.4644 66.4307 99.3723C65.3012 101.785 64.3308 104.258 63.3984 106.739C62.8292 108.258 62.3457 109.808 61.9504 111.382C61.488 113.216 61.1014 115.081 60.7299 116.938C60.7151 117.104 60.6667 117.266 60.5876 117.413C60.5085 117.56 60.4005 117.69 60.27 117.794C60.1395 117.898 59.9894 117.974 59.8286 118.018C59.6679 118.062 59.4999 118.072 59.335 118.049L58.7058 118.051C56.6022 118.059 54.4934 118.066 52.3909 118.011C50.9884 117.973 50.7762 117.676 51.0718 116.298L51.2514 115.461L51.2514 115.461L51.2515 115.46C51.934 112.276 52.6173 109.088 53.384 105.925C54.1156 102.777 55.1778 99.7155 56.5528 96.7923C56.9018 96.0604 57.245 95.3237 57.5886 94.5863L57.5892 94.5849C58.671 92.263 59.756 89.9341 61.0331 87.728C62.8703 84.6011 64.8694 81.573 67.022 78.656C68.6196 76.471 70.3674 74.4009 72.2529 72.461C74.5196 70.1245 76.9152 67.8945 79.3941 65.7712C81.4013 64.0452 83.5156 62.4488 85.7242 60.9917C88.8413 58.8426 92.175 57.0289 95.6703 55.5805C98.3919 54.5302 101.121 53.4876 103.88 52.5362C105.351 52.0263 105.556 51.9274 105.556 50.4052V34.9404C105.556 33.7607 105.237 33.4487 104.078 33.7607C102.038 34.3239 100.022 34.9404 98.0128 35.6025C93.6812 37.0527 89.4665 38.8337 85.4058 40.93C81.3085 43.0008 77.3526 45.3424 73.5644 47.9394C68.4943 51.408 63.781 55.375 59.4942 59.7816C57.4802 61.8736 55.6313 64.126 53.7868 66.373C53.4304 66.8072 53.0741 67.2412 52.7169 67.6738C51.5191 69.1655 50.3516 70.7333 49.2448 72.3163C48.3199 73.6406 47.4557 75.0105 46.6218 76.3957C46.5138 76.5736 46.4059 76.7513 46.298 76.9287C45.2849 78.5954 44.2801 80.2483 43.362 82.0504C42.3462 84.0444 41.4668 86.0917 40.6026 88.1389C39.6289 90.4467 38.7188 92.7899 37.811 95.1275L37.8109 95.1278L37.7142 95.3767C37.6226 95.6208 37.5749 95.8796 37.5272 96.1387C37.4841 96.3725 37.441 96.6065 37.3655 96.8303C37.2339 97.2133 37.085 97.5991 36.9349 97.988C36.6526 98.7195 36.366 99.4618 36.1829 100.217C35.7734 101.914 35.4044 103.619 35.0351 105.325L35.0351 105.325L35.0351 105.325C34.7071 106.84 34.379 108.356 34.0223 109.867C33.0344 114.11 32.8225 118.447 32.6114 122.769L32.6114 122.77L32.6114 122.77C32.5892 123.223 32.5671 123.677 32.544 124.13C32.4082 126.71 32.5163 129.309 32.6245 131.908L32.6245 131.908C32.6551 132.644 32.6857 133.38 32.7108 134.115C32.9678 139.001 33.73 143.847 34.9851 148.575C35.8114 151.893 36.8652 155.197 37.9568 158.469C38.7959 161.076 39.783 163.632 40.9134 166.125C42.475 169.459 44.1429 172.754 45.9774 175.943C48.6432 180.566 51.7129 184.941 55.1503 189.018C58.1908 192.767 61.5684 196.227 65.2405 199.354C68.3184 201.888 71.4038 204.415 74.7243 206.629C77.7987 208.68 81.0745 210.457 84.3352 212.225L84.3353 212.225C84.5963 212.366 84.8571 212.508 85.1177 212.649C86.7865 213.486 88.5086 214.21 90.2727 214.818C92.8427 215.808 95.4126 216.782 98.028 217.65C99.2649 218.06 100.529 218.391 101.794 218.722C102.522 218.913 103.249 219.103 103.971 219.309C105.359 219.705 105.616 219.537 105.616 218.099V206.416V202.132C105.634 201.801 105.544 201.473 105.359 201.198C105.174 200.923 104.905 200.717 104.593 200.609C104.264 200.47 103.933 200.334 103.602 200.197C102.901 199.909 102.2 199.621 101.515 199.3L100.927 199.022L100.926 199.022L100.925 199.021C98.7558 197.996 96.5843 196.97 94.4574 195.86C92.6077 194.901 90.8034 193.836 89.0219 192.748L88.5183 192.441L88.5178 192.441C86.3733 191.136 84.2308 189.833 82.1991 188.379C80.7247 187.336 79.3519 186.175 77.9797 185.015L77.9779 185.013C77.4386 184.557 76.8994 184.101 76.3542 183.653C73.4304 181.233 70.7423 178.539 68.326 175.608C66.7946 173.751 65.2709 171.902 63.8911 169.946C62.6668 168.18 61.5357 166.351 60.5025 164.466C59.3642 162.492 58.3293 160.46 57.4019 158.378C56.2951 155.821 55.2716 153.126 54.4301 150.554C53.5887 147.982 52.9064 145.356 52.2847 142.73C51.9999 141.526 51.7958 140.306 51.5914 139.084L51.5914 139.083C51.4586 138.289 51.3256 137.494 51.1704 136.703C50.9278 135.249 51.1704 134.868 52.6865 134.868C53.9317 134.864 55.1791 134.876 56.4264 134.887H56.4268H56.4271C57.4956 134.897 58.5639 134.906 59.6307 134.906C60.5555 134.906 60.8967 135.135 61.1014 136.025C61.2388 136.616 61.3702 137.207 61.5016 137.799C61.8122 139.197 62.1225 140.595 62.5114 141.969C63.2089 144.351 63.9821 146.711 64.7857 149.055C64.9698 149.592 65.2377 150.108 65.5042 150.622L65.5043 150.623C65.6985 150.997 65.8919 151.37 66.0517 151.749C66.2325 152.177 66.3772 152.623 66.5217 153.069C66.6802 153.557 66.8387 154.046 67.0448 154.512C67.1934 154.829 67.3407 155.149 67.4884 155.469L67.4895 155.471L67.4906 155.473L67.4907 155.474C68.0502 156.687 68.6145 157.911 69.2736 159.078C70.4107 161.087 71.6085 163.074 72.9048 164.976C74.3301 167.023 75.7856 169.025 77.3624 170.935C78.6074 172.4 79.939 173.787 81.35 175.091L81.5197 175.252L81.5201 175.252C83.5634 177.193 85.6098 179.136 87.771 180.928C90.4305 183.103 93.3122 184.988 96.3678 186.552C98.5073 187.743 100.72 188.796 102.993 189.703C106.146 190.891 109.372 191.87 112.652 192.633C116.271 193.444 119.937 194.023 123.629 194.369C129.951 194.937 136.324 194.423 142.475 192.846C144.309 192.405 146.144 191.918 147.941 191.324C149.897 190.708 151.845 190 153.733 189.186C155.772 188.295 157.758 187.275 159.721 186.225C161.267 185.409 162.77 184.515 164.225 183.546C166.021 182.313 167.795 181.004 169.531 179.657C171.212 178.421 172.814 177.081 174.33 175.646C175.814 174.156 177.2 172.566 178.587 170.975L178.587 170.974L178.587 170.974C178.999 170.501 179.411 170.028 179.826 169.558C182.543 166.483 184.891 163.098 186.823 159.474C188.446 156.414 189.894 153.263 191.258 150.082C193.121 145.639 194.395 140.969 195.049 136.193C195.193 135.142 195.488 134.823 196.565 134.823H203.759C204.987 134.823 205.313 135.15 205.124 136.345L205.035 136.893L205.035 136.893C204.679 139.086 204.322 141.281 203.805 143.438C203.204 146.055 202.46 148.636 201.576 151.17C200.287 154.793 198.862 158.317 197.346 161.825C196.853 162.812 196.278 163.754 195.625 164.641C195.332 165.109 195.041 165.578 194.751 166.047L194.751 166.048L194.75 166.048C194.011 167.241 193.274 168.432 192.501 169.596C190.364 172.807 187.925 175.804 185.216 178.546C183.457 180.35 181.57 182.077 179.667 183.759C177.839 185.435 175.926 187.015 173.936 188.493C170.316 191.145 166.485 193.492 162.481 195.51C159.424 196.999 156.344 198.424 153.262 199.851C152.782 200.073 152.302 200.296 151.822 200.518C151.497 200.613 151.213 200.814 151.015 201.09C150.817 201.366 150.717 201.701 150.731 202.04V204.323V218.274C150.731 219.354 151.041 219.674 151.936 219.415C152.405 219.281 152.874 219.146 153.343 219.012L153.344 219.012C155.977 218.259 158.609 217.506 161.215 216.66C163.254 216.006 165.248 215.199 167.227 214.377C169.296 213.56 171.32 212.633 173.291 211.599C175.945 210.138 178.545 208.547 181.054 206.858C183.708 205.069 186.3 203.174 188.779 201.165C190.527 199.745 192.163 198.198 193.797 196.653C194.246 196.228 194.696 195.803 195.147 195.381C196.357 194.309 197.497 193.16 198.559 191.941C200.995 188.952 203.377 185.936 205.707 182.892C206.91 181.353 208.009 179.736 208.997 178.051C210.878 174.748 212.72 171.43 214.38 168.013C215.722 165.22 216.906 162.354 217.928 159.428C219.019 156.323 220.005 153.164 220.763 149.968C221.694 146.382 222.438 142.749 222.992 139.085C223.761 133.396 223.944 127.642 223.538 121.915C223.239 116.885 222.617 111.879 221.673 106.93C221.4 105.529 221.066 104.144 220.71 102.767C220.689 102.685 220.668 102.603 220.647 102.521L220.571 102.222L220.564 102.194C220.144 100.542 219.724 98.8887 219.194 97.2717C218.474 95.1027 217.678 93.0098 216.813 90.8331C215.949 88.6565 215.07 86.4722 214.046 84.364C212.947 82.1113 211.696 79.9346 210.445 77.758C209.475 76.0684 208.467 74.3864 207.352 72.7882C205.904 70.7257 204.335 68.6099 202.872 66.7453C201.409 64.8807 199.908 63.0313 198.278 61.3113C196.299 59.2336 194.253 57.194 192.084 55.3141C189.454 53.0309 186.755 50.801 183.912 48.7918C180.789 46.5695 177.514 44.5298 174.216 42.5662C172.027 41.2999 169.767 40.1614 167.446 39.1567C165.081 38.0912 162.663 37.1398 160.222 36.2798C157.773 35.4194 155.282 34.6693 152.791 33.9194L152.365 33.7912L151.936 33.6618C151.072 33.3954 150.715 33.6922 150.715 34.5979V51.0674C150.694 51.407 150.804 51.7417 151.023 52.0013C151.243 52.261 151.553 52.4254 151.89 52.4601C153.055 52.7361 154.204 53.0739 155.332 53.4723C157.108 54.1159 158.855 54.853 160.608 55.5926L160.76 55.6566C164.394 57.2256 167.87 59.1422 171.138 61.3798C174.409 63.6171 177.492 66.1192 180.357 68.8611C181.944 70.2261 183.431 71.7038 184.807 73.2829C185.32 73.9107 185.862 74.5108 186.404 75.1115L186.405 75.1118L186.405 75.1124C187.257 76.0553 188.11 76.9997 188.855 78.0548C191.185 81.1158 193.305 84.3324 195.2 87.6823C195.59 88.4468 195.989 89.2089 196.389 89.9716C197.579 92.246 198.772 94.5259 199.749 96.8912C201.018 99.9754 202.008 103.174 202.997 106.371C203.089 106.669 203.181 106.967 203.274 107.265C203.828 109.168 204.283 111.098 204.638 113.049C204.846 114.082 204.974 115.131 205.104 116.182L205.104 116.186C205.127 116.374 205.15 116.562 205.174 116.75C205.182 116.818 205.191 116.885 205.199 116.953C205.283 117.638 205.086 118.003 204.252 117.996C203.813 117.992 203.372 118.009 202.931 118.026H202.931H202.931C202.534 118.041 202.137 118.056 201.743 118.056ZM128.277 226.722C126.344 226.815 124.418 226.437 122.664 225.619C120.909 224.801 119.378 223.568 118.202 222.026C117.044 220.634 116.26 218.967 115.923 217.185C115.586 215.403 115.707 213.565 116.276 211.843C116.733 210.304 117.51 208.879 118.556 207.663C119.601 206.447 120.891 205.467 122.341 204.788C123.831 204.019 125.458 203.552 127.129 203.415C128.799 203.278 130.48 203.473 132.075 203.989C136.677 205.389 139.368 208.616 140.331 213.205C140.623 214.606 140.616 216.053 140.309 217.451C140.002 218.848 139.402 220.164 138.549 221.311C137.273 223.365 135.384 224.963 133.151 225.877C131.554 226.345 129.929 226.709 128.284 226.965L128.277 226.722ZM122.484 30.7168C118.603 32.5738 115.639 36.8053 115.806 41.3717C115.764 42.9697 116.129 44.5519 116.867 45.9686C118.003 48.3929 119.921 50.3612 122.31 51.5548C123.93 52.4202 125.719 52.9215 127.552 53.024C129.384 53.1265 131.217 52.8278 132.923 52.1484C134.636 51.4966 136.173 50.4506 137.411 49.0945C138.648 47.7385 139.552 46.11 140.049 44.3399C141.982 38.3655 138.131 32.0715 132.825 30.1764C131.154 29.5595 129.377 29.2892 127.599 29.3821C125.822 29.475 124.082 29.9291 122.484 30.7168Z" fill="#F39D19"/>
</svg>
