<svg width="256" height="256" viewBox="0 0 256 256" fill="none" xmlns="http://www.w3.org/2000/svg">
<path d="M256 0H0V256H256V0Z" fill="#FDEC09"/>
<path d="M0 256C0 170.663 0 85.3375 0 0C85.3375 0 170.663 0 256 0C256 85.3375 256 170.663 256 256C170.663 256 85.3375 256 0 256ZM67.341 87.443C68.0099 87.6412 68.4681 87.8765 68.9264 87.9013C78.4634 88.533 78.9836 89.0779 78.996 98.5035C78.996 116.487 78.8969 134.484 79.0455 152.468C79.1075 160.593 78.1661 164.816 68.6168 163.937C68.2204 163.9 67.7745 164.346 67.1057 164.693C67.1924 166.402 67.2791 168.111 67.3658 169.746C78.2033 169.746 88.4463 169.746 98.7264 169.746C98.7264 167.665 98.7264 165.906 98.7264 164.197C87.7774 163.07 87.6536 162.946 87.6412 152.059C87.6288 135.239 87.6288 118.407 87.6536 101.588C87.6536 100.076 87.8518 98.5654 88.0375 95.8034C89.4 98.3672 90.1307 99.6429 90.7748 100.956C101.253 122.618 111.707 144.293 122.272 165.906C123.052 167.504 124.513 169.573 125.963 169.845C129.109 170.452 132.453 170.031 136.007 170.031C136.007 167.566 136.007 165.745 136.007 163.937C136.007 142.621 136.007 121.293 136.007 99.9774C136.007 88.9293 136.007 88.9293 146.894 87.4183C146.894 85.5728 146.894 83.6902 146.894 81.6961C136.354 81.6961 126.136 81.6961 115.72 81.6961C115.72 83.876 115.72 85.6595 115.72 87.6412C116.81 87.7403 117.776 87.8642 118.742 87.9013C125.566 88.1119 126.941 89.4495 126.991 96.1254C127.028 100.795 127.003 105.452 127.003 110.121C127.003 119.658 127.003 129.208 127.003 138.745C125.442 137.444 124.674 136.032 124.018 134.571C116.624 118.234 109.291 101.872 101.81 85.5728C101.067 83.9627 99.4819 81.597 98.231 81.5598C87.9756 81.2378 77.7079 81.374 67.3534 81.374C67.341 83.876 67.341 85.6471 67.341 87.443ZM167.405 111.645C153.892 111.558 146.585 116.599 144.838 127.214C142.188 143.364 149.31 152.976 165.56 153.781C176.62 154.338 185.624 151.006 188.647 141.247C192.821 127.82 188.535 111.459 167.405 111.645ZM147.006 169.783C160.655 169.783 173.697 169.783 186.888 169.783C186.888 166.427 186.888 163.392 186.888 160.271C173.4 160.271 160.221 160.271 147.006 160.271C147.006 163.603 147.006 166.538 147.006 169.783Z" fill="white"/>
<path d="M67.341 87.4429C67.341 85.6346 67.341 83.8635 67.341 81.4111C77.683 81.4111 87.9632 81.2625 98.2185 81.5969C99.4695 81.634 101.067 83.9997 101.798 85.6098C109.279 101.909 116.624 118.271 124.006 134.608C124.662 136.069 125.43 137.481 126.991 138.782C126.991 129.245 126.991 119.695 126.991 110.158C126.991 105.489 127.015 100.832 126.978 96.1625C126.929 89.4866 125.554 88.1489 118.729 87.9384C117.751 87.9136 116.785 87.7773 115.707 87.6783C115.707 85.6842 115.707 83.9006 115.707 81.7331C126.124 81.7331 136.342 81.7331 146.882 81.7331C146.882 83.7272 146.882 85.6098 146.882 87.4553C135.995 88.9664 135.995 88.9664 135.995 100.014C135.995 121.33 135.995 142.658 135.995 163.974C135.995 165.782 135.995 167.591 135.995 170.068C132.44 170.068 129.096 170.489 125.95 169.882C124.501 169.61 123.039 167.529 122.259 165.943C111.694 144.33 101.253 122.643 90.7623 100.993C90.1183 99.68 89.3875 98.4043 88.0251 95.8404C87.8393 98.6024 87.6411 100.113 87.6411 101.625C87.6164 118.444 87.6164 135.276 87.6287 152.096C87.6411 162.983 87.765 163.107 98.714 164.234C98.714 165.943 98.714 167.702 98.714 169.783C88.4462 169.783 78.1908 169.783 67.3534 169.783C67.2667 168.148 67.18 166.427 67.0933 164.73C67.7621 164.383 68.208 163.937 68.6043 163.974C78.1661 164.854 79.095 160.63 79.0331 152.505C78.8844 134.521 78.9959 116.525 78.9835 98.5405C78.9835 89.115 78.4633 88.57 68.914 87.9384C68.4681 87.8764 68.0098 87.6411 67.341 87.4429Z" fill="black"/>
<path d="M167.405 111.645C188.535 111.471 192.821 127.82 188.659 141.247C185.637 150.994 176.633 154.326 165.572 153.781C149.322 152.963 142.2 143.364 144.851 127.213C146.597 116.587 153.892 111.558 167.405 111.645ZM176.038 132.589C175.406 129.381 174.948 126.111 174.081 122.953C173.127 119.485 170.551 117.999 166.984 117.999C163.33 117.999 160.457 119.794 160.197 123.201C159.701 129.53 159.726 135.958 160.259 142.275C160.556 145.73 163.541 147.464 167.133 147.452C170.663 147.439 173.251 145.941 174.118 142.374C174.886 139.19 175.394 135.933 176.038 132.589Z" fill="black"/>
<path d="M147.006 169.783C147.006 166.538 147.006 163.59 147.006 160.271C160.221 160.271 173.387 160.271 186.888 160.271C186.888 163.38 186.888 166.427 186.888 169.783C173.697 169.783 160.655 169.783 147.006 169.783Z" fill="black"/>
<path d="M176.038 132.589C175.394 135.933 174.886 139.191 174.118 142.386C173.251 145.953 170.662 147.452 167.133 147.464C163.541 147.477 160.543 145.755 160.258 142.287C159.726 135.97 159.701 129.542 160.197 123.213C160.469 119.807 163.33 118.011 166.984 118.011C170.551 118.011 173.127 119.497 174.081 122.965C174.948 126.111 175.406 129.381 176.038 132.589Z" fill="white"/>
</svg>
