<svg width="256" height="256" viewBox="0 0 256 256" fill="none" xmlns="http://www.w3.org/2000/svg">
<path d="M146.72 76.25L157.524 81.8164L125.616 141.793L120.708 78.59H93.695L106.751 173.135C105.142 177.302 103.438 180.376 101.64 182.356C99.8414 184.335 97.8323 185.63 95.6125 186.241C94.8496 186.459 94.0727 186.625 93.2873 186.737L75.442 186.826L59.5703 207.998L93.7393 208.125C97.0447 208.037 100.332 207.611 103.551 206.854C107.19 205.952 110.544 204.148 113.301 201.607C116.195 198.928 119.269 195.033 122.525 189.922C125.811 184.752 129.75 177.935 134.343 169.471L177.807 92.2665L189.161 98.1164V42.5449L146.72 76.25Z" fill="url(#paint0_linear_5872:56036)"/>
<path d="M22.9637 127.993C22.9637 69.8359 69.9907 22.5164 127.793 22.5164C185.595 22.5164 232.616 69.8359 232.616 127.993C232.616 186.149 185.592 233.469 127.787 233.469C69.9819 233.469 22.9637 186.149 22.9637 127.993ZM127.273 0H124.067L123.89 0.0590903H123.875H123.683H123.482C57.3809 2.26907 3.98684 54.5581 0.0336989 120.181C0.0336989 120.249 0.0336989 120.317 0.0336989 120.385C0.0336989 120.586 0.0100627 120.79 0.00119919 120.99C0.00119919 121.05 0.00119919 121.112 0.00119919 121.171V121.194V121.377C0.00264372 121.385 0.00264372 121.393 0.00119919 121.401V121.572V121.605C0.00119919 121.67 0.00119919 121.726 0.00119919 121.788V121.809C0.00119919 121.871 0.00119919 121.933 0.00119919 121.998C0.00119919 121.998 0.00119919 121.998 0.00119919 122.013C0.00119919 122.072 0.00119919 122.134 0.00119919 122.193V122.219C0.00119919 122.273 0.00119919 122.332 0.00119919 122.388V122.423C0.00119919 122.479 0.00119919 122.533 0.00119919 122.589C0.00119919 122.645 0.00119919 122.618 0.00119919 122.63C0.00119919 122.642 0.00119919 122.739 0.00119919 122.796C0.00266395 122.808 0.00266395 122.821 0.00119919 122.834C0.00119919 122.893 0.00119919 122.949 0.00119919 123.008V123.038C0.00119919 123.094 0.00119919 123.153 0.00119919 123.209V123.245C0.00119919 123.301 0.00119919 123.354 0.00119919 123.41V123.449C0.00119919 123.502 0.00119919 123.549 0.00119919 123.599C0.00267058 123.618 0.00267058 123.637 0.00119919 123.655C0.00119919 123.709 0.00119919 123.759 0.00119919 123.809V123.859C0.00119919 123.912 0.00119919 123.96 0.00119919 124.01C-0.000272202 124.029 -0.000272202 124.047 0.00119919 124.066C0.00119919 124.119 0.00119919 124.161 0.00119919 124.211V124.273C0.00119919 124.314 0.00119919 124.356 0.00119919 124.4C-0.000329623 124.426 -0.000329623 124.453 0.00119919 124.48C0.00119919 124.521 0.00119919 124.562 0.00119919 124.607C0.00119919 124.651 0.00119919 124.66 0.00119919 124.684C0.00119919 124.707 0.00119919 124.763 0.00119919 124.808C0.00267374 124.835 0.00267374 124.863 0.00119919 124.89V125.009C-0.000324772 125.038 -0.000324772 125.068 0.00119919 125.097C0.00119919 125.133 0.00119919 125.171 0.00119919 125.207V125.23C0.00267022 125.254 0.00267022 125.277 0.00119919 125.301C0.00119919 125.348 0.00119919 125.39 0.00119919 125.437V125.567C0.00119919 125.597 0.00119919 125.629 0.00119919 125.659V125.732C0.00119919 125.777 0.00119919 125.818 0.00119919 125.859C0.002728 125.886 0.002728 125.913 0.00119919 125.939V126.072C0.0026654 126.09 0.0026654 126.108 0.00119919 126.125V126.335C-0.000399729 126.345 -0.000399729 126.355 0.00119919 126.365V126.56C0.00276645 126.576 0.00276645 126.593 0.00119919 126.61V126.879C0.00119919 126.911 0.00119919 126.941 0.00119919 126.973V127.177C0.00119919 127.284 0.00119919 127.387 0.00119919 127.493V128.004C0.00119919 128.279 0.00119919 128.557 0.00119919 128.832C0.447331 199.149 57.5788 256 127.991 256C198.681 256 255.986 198.682 255.986 128.004V127.709C255.986 127.597 255.986 127.49 255.986 127.381V127.1C255.986 127.056 255.986 127.009 255.986 126.964V126.749C255.986 126.716 255.986 126.687 255.986 126.651V126.427C255.986 126.397 255.986 126.368 255.986 126.338V126.214C255.986 126.184 255.986 126.164 255.986 126.134C255.986 126.105 255.986 126.043 255.986 125.998V125.821C255.986 125.786 255.986 125.753 255.986 125.718V125.647C255.986 125.599 255.986 125.561 255.986 125.514C255.986 125.467 255.986 125.467 255.986 125.44C255.986 125.413 255.986 125.354 255.986 125.307V125.236C255.986 125.189 255.986 125.147 255.986 125.1C255.988 125.079 255.988 125.059 255.986 125.038V124.681C255.985 124.653 255.985 124.625 255.986 124.598C255.986 124.557 255.986 124.518 255.986 124.477C255.985 124.45 255.985 124.424 255.986 124.397C255.986 124.353 255.986 124.311 255.986 124.27C255.985 124.249 255.985 124.229 255.986 124.208C255.986 124.161 255.986 124.11 255.986 124.063C255.986 124.016 255.986 124.019 255.986 124.001C255.986 123.983 255.986 123.907 255.986 123.859C255.985 123.832 255.985 123.804 255.986 123.777C255.986 123.732 255.986 123.697 255.986 123.655C255.986 123.614 255.986 123.596 255.986 123.564C255.986 123.531 255.986 123.487 255.986 123.449C255.986 123.41 255.986 123.389 255.986 123.36C255.986 123.33 255.986 123.283 255.986 123.245C255.986 123.206 255.986 123.192 255.986 123.165C255.986 123.138 255.986 123.082 255.986 123.038C255.986 122.994 255.986 122.988 255.986 122.964C255.986 122.94 255.986 122.878 255.986 122.831C255.988 122.811 255.988 122.792 255.986 122.772C255.986 122.722 255.986 122.677 255.986 122.627C255.985 122.609 255.985 122.59 255.986 122.571C255.986 122.521 255.986 122.474 255.986 122.42V122.382V122.217V122.166V122.013V121.968V121.806V121.785C255.986 121.723 255.986 121.667 255.986 121.602C255.988 121.592 255.988 121.582 255.986 121.572V121.398V121.372V121.191C255.986 121.191 255.986 121.174 255.986 121.165C255.986 121.106 255.986 121.05 255.986 120.987V120.961C255.986 120.899 255.986 120.843 255.986 120.784V120.766C255.986 120.701 255.986 120.642 255.986 120.58C255.985 120.575 255.985 120.57 255.986 120.565V120.376V120.358C255.986 120.296 255.986 120.234 255.986 120.172V120.154C251.596 54.5492 198.205 2.26907 132.127 0.0709084H131.929H131.914H131.725H131.711H131.524H127.273V0Z" fill="url(#paint1_linear_5872:56036)"/>
<defs>
<linearGradient id="paint0_linear_5872:56036" x1="140.952" y1="89.1199" x2="3.5261" y2="311.947" gradientUnits="userSpaceOnUse">
<stop stop-color="#F9B442"/>
<stop offset="0.01" stop-color="#F9B442"/>
<stop offset="1" stop-color="#FDE674"/>
</linearGradient>
<linearGradient id="paint1_linear_5872:56036" x1="75047.9" y1="150364" x2="201779" y2="10881" gradientUnits="userSpaceOnUse">
<stop stop-color="#F9B442"/>
<stop offset="0.01" stop-color="#F9B442"/>
<stop offset="1" stop-color="#FDE674"/>
</linearGradient>
</defs>
</svg>
