<?xml version="1.0" standalone="no"?>
<!DOCTYPE svg PUBLIC "-//W3C//DTD SVG 20010904//EN"
 "http://www.w3.org/TR/2001/REC-SVG-20010904/DTD/svg10.dtd">
<svg version="1.0" xmlns="http://www.w3.org/2000/svg"
 width="640.000000pt" height="640.000000pt" viewBox="0 0 640.000000 640.000000"
 preserveAspectRatio="xMidYMid meet">

<g transform="translate(0.000000,640.000000) scale(0.100000,-0.100000)"
fill="#000000" stroke="none">
<path d="M2915 6389 c-439 -55 -679 -118 -1024 -268 -237 -103 -527 -286 -746
-469 -745 -625 -1166 -1550 -1142 -2512 6 -232 15 -331 48 -510 119 -645 416
-1215 874 -1676 230 -231 466 -411 732 -558 485 -268 1050 -407 1598 -394 288
8 470 32 735 98 1427 357 2439 1680 2407 3148 -6 286 -29 467 -92 727 -107
437 -325 875 -616 1238 -107 133 -335 360 -475 473 -575 467 -1290 718 -2032
713 -108 -1 -228 -5 -267 -10z m324 -361 c18 -112 59 -363 92 -558 32 -195 88
-535 123 -755 36 -220 72 -438 81 -485 8 -47 33 -197 55 -335 23 -137 44 -253
48 -257 4 -3 104 -22 222 -42 118 -19 422 -69 675 -111 253 -42 620 -102 815
-134 195 -32 473 -78 618 -102 144 -24 262 -46 262 -49 0 -4 -51 -14 -112 -24
-62 -9 -135 -21 -163 -27 -27 -5 -230 -38 -450 -74 -220 -36 -587 -97 -815
-136 -228 -39 -458 -76 -510 -83 -52 -8 -113 -18 -135 -24 -22 -6 -71 -14
-108 -17 -38 -4 -79 -10 -92 -15 -12 -5 -59 -14 -103 -20 -45 -7 -88 -17 -97
-24 -11 -8 -21 -44 -30 -106 -13 -88 -41 -257 -79 -475 -9 -49 -57 -337 -106
-640 -98 -596 -193 -1177 -212 -1292 -7 -40 -15 -73 -18 -73 -3 0 -21 91 -39
203 -17 111 -39 238 -46 282 -8 44 -42 244 -75 445 -143 879 -201 1233 -220
1340 -11 63 -26 157 -35 208 -8 51 -17 97 -20 101 -2 5 -46 18 -97 29 -132 29
-147 32 -235 42 -43 5 -159 23 -258 40 -99 18 -209 36 -245 41 -36 4 -83 13
-105 19 -22 6 -150 28 -285 50 -212 34 -578 94 -1207 197 -90 15 -163 30 -163
33 0 3 132 28 293 54 160 26 465 77 677 112 212 35 565 93 785 129 220 36 497
82 615 101 118 20 218 39 222 42 3 4 22 104 42 222 44 267 150 911 256 1555
44 270 93 563 107 653 15 89 30 162 33 162 3 0 21 -91 39 -202z m-363 -1095
c-3 -16 -17 -100 -31 -188 -14 -88 -29 -168 -33 -178 -5 -11 -34 -28 -72 -41
-97 -34 -206 -87 -288 -140 l-73 -46 -157 113 c-86 62 -157 118 -157 124 0 6
29 33 65 60 184 138 390 236 625 298 120 32 128 32 121 -2z m814 -10 c134 -38
282 -101 396 -167 124 -72 255 -167 251 -181 -2 -5 -74 -60 -159 -122 l-156
-112 -103 62 c-57 34 -149 79 -204 100 -55 21 -106 42 -114 46 -10 5 -25 69
-48 202 -18 107 -33 198 -33 202 0 12 67 0 170 -30z m-1695 -371 c741 -531
720 -515 723 -548 1 -16 -8 -85 -21 -154 l-22 -125 -130 -23 c-72 -12 -141
-21 -154 -20 -18 2 -42 27 -90 93 -175 242 -770 1074 -787 1100 l-19 30 30
-19 c17 -11 228 -161 470 -334z m2899 336 c-4 -7 -149 -211 -322 -453 -173
-242 -365 -511 -426 -597 -88 -125 -116 -157 -135 -157 -32 -1 -275 40 -283
48 -8 8 -48 240 -48 278 1 25 27 47 263 215 144 102 416 297 605 432 189 135
346 246 348 246 3 0 2 -6 -2 -12z m-3014 -615 c25 -36 50 -71 55 -77 10 -11
50 -68 98 -138 l25 -38 -62 -102 c-34 -57 -78 -148 -99 -203 -21 -55 -42 -107
-46 -114 -5 -10 -69 -25 -206 -48 -109 -18 -201 -30 -204 -28 -18 19 89 345
159 485 61 120 204 330 224 330 6 0 31 -30 56 -67z m2769 -20 c150 -210 272
-487 306 -692 7 -42 6 -44 -16 -38 -13 3 -103 18 -199 33 -96 15 -180 32 -186
38 -7 6 -20 36 -29 66 -26 79 -80 192 -136 282 l-48 78 33 47 c17 27 50 73 71
103 22 31 58 81 80 113 22 31 45 56 51 57 6 0 39 -39 73 -87z m-3019 -1403
c96 -16 185 -30 197 -30 23 0 43 -26 43 -55 0 -34 67 -184 126 -283 l62 -102
-37 -53 c-112 -163 -187 -266 -194 -267 -14 0 -42 36 -120 155 -125 190 -193
341 -246 552 -22 87 -25 113 -13 113 4 0 86 -14 182 -30z m3330 14 c0 -52 -78
-294 -135 -419 -60 -132 -224 -385 -250 -384 -9 0 -63 74 -197 267 l-37 53 32
52 c18 29 38 61 44 72 32 51 94 191 103 232 15 66 27 83 58 84 15 0 99 13 187
28 196 35 195 35 195 15z m-2421 -165 c69 -11 128 -22 132 -25 4 -2 10 -23 14
-47 4 -23 9 -51 12 -62 3 -11 6 -31 8 -45 1 -14 6 -53 10 -86 l7 -62 -53 -39
c-81 -60 -1117 -801 -1147 -821 -24 -16 -25 -16 -16 1 6 9 201 285 434 612
365 509 429 594 450 594 14 1 81 -8 149 -20z m1501 12 c0 -4 17 -30 38 -57 21
-27 59 -78 84 -114 24 -36 193 -272 375 -525 181 -253 338 -473 349 -490 l19
-30 -30 19 c-32 20 -332 235 -869 622 l-321 230 2 63 c2 82 33 242 48 247 22
9 231 42 268 43 20 1 37 -3 37 -8z m-1559 -714 c57 -34 149 -79 204 -100 55
-21 107 -42 115 -46 10 -5 24 -68 47 -206 18 -109 31 -201 28 -203 -7 -8 -158
30 -260 65 -137 47 -282 120 -406 203 -145 97 -156 107 -137 126 10 10 227
170 304 224 0 0 47 -28 105 -63z m1694 -48 c85 -60 157 -115 161 -120 7 -13
-21 -36 -145 -119 -118 -80 -267 -155 -391 -198 -93 -32 -268 -77 -275 -70 -8
8 58 393 69 404 6 7 36 20 66 29 74 24 222 96 295 144 33 22 61 40 63 40 2 1
73 -49 157 -110z"/>
</g>
</svg>
