<?xml version="1.0" encoding="UTF-8"?>
<svg xmlns="http://www.w3.org/2000/svg" xmlns:xlink="http://www.w3.org/1999/xlink" width="256px" height="256px" viewBox="0 0 256 256" version="1.1">
<defs>
<radialGradient id="radial0" gradientUnits="userSpaceOnUse" cx="128.549" cy="98.8401" fx="129.5757" fy="43.2679" r="128.4412" >
<stop offset="0" style="stop-color:rgb(100%,100%,100%);stop-opacity:1;"/>
<stop offset="0.0716" style="stop-color:rgb(99.607843%,98.431373%,95.686275%);stop-opacity:1;"/>
<stop offset="0.1965" style="stop-color:rgb(98.823529%,94.901961%,84.705882%);stop-opacity:1;"/>
<stop offset="0.3587" style="stop-color:rgb(97.254902%,89.019608%,66.27451%);stop-opacity:1;"/>
<stop offset="0.4626" style="stop-color:rgb(96.078431%,84.705882%,53.333333%);stop-opacity:1;"/>
<stop offset="0.6848" style="stop-color:rgb(67.45098%,53.333333%,37.254902%);stop-opacity:1;"/>
<stop offset="0.8921" style="stop-color:rgb(42.745098%,26.27451%,23.921569%);stop-opacity:1;"/>
<stop offset="0.9884" style="stop-color:rgb(33.333333%,15.686275%,18.431373%);stop-opacity:1;"/>
</radialGradient>
</defs>
<g id="surface1">
<path style=" stroke:none;fill-rule:nonzero;fill:url(#radial0);" d="M 65.25 215.058594 L 190.980469 215.058594 L 229.828125 100.449219 L 128.121094 29.609375 L 26.398438 100.449219 Z M 65.25 215.058594 "/>
<path style=" stroke:none;fill-rule:nonzero;fill:rgb(0%,0%,0%);fill-opacity:1;" d="M 237.71875 89.109375 L 136.011719 18.269531 C 133.640625 16.621094 130.878906 15.789062 128.109375 15.789062 C 125.351562 15.789062 122.589844 16.621094 120.210938 18.269531 L 18.511719 89.109375 C 13.460938 92.628906 11.351562 99.058594 13.320312 104.878906 L 52.171875 219.5 C 54.070312 225.109375 59.328125 228.878906 65.261719 228.878906 L 190.980469 228.878906 C 196.898438 228.878906 202.160156 225.109375 204.070312 219.5 L 242.921875 104.890625 C 244.890625 99.058594 242.769531 92.628906 237.71875 89.109375 Z M 190.980469 215.058594 L 134.851562 215.058594 L 134.851562 125.359375 C 134.46875 108.019531 144.210938 92.980469 146.710938 89.421875 C 169.519531 91.988281 190.769531 99.289062 208.988281 110.921875 C 209.28125 111.101562 209.648438 111.050781 209.878906 110.789062 C 210.101562 110.53125 210.101562 110.148438 209.878906 109.898438 C 192.5 89.769531 168.511719 76.890625 142.511719 73.390625 L 142.511719 66.691406 C 142.511719 65.121094 141.230469 63.839844 139.660156 63.839844 L 116.578125 63.839844 C 115.011719 63.839844 113.730469 65.121094 113.730469 66.691406 L 113.730469 73.371094 C 87.679688 76.851562 63.640625 89.730469 46.230469 109.898438 C 46.011719 110.160156 46.011719 110.539062 46.230469 110.800781 C 46.359375 110.960938 46.550781 111.039062 46.75 111.039062 C 46.878906 111.039062 47 111 47.121094 110.929688 C 65.371094 99.28125 86.671875 91.96875 109.519531 89.421875 C 111.949219 92.960938 121.511719 108.011719 121.140625 125.378906 L 121.140625 215.078125 L 65.25 215.078125 L 26.398438 100.449219 L 128.109375 29.609375 L 229.820312 100.449219 Z M 190.980469 215.058594 "/>
</g>
</svg>
