<?xml version="1.0" encoding="UTF-8"?>
<svg id="Layer_1" data-name="Layer 1" xmlns="http://www.w3.org/2000/svg" width="256" height="256" viewBox="0 0 256 256">
  <defs>
    <style>
      .cls-1 {
        fill: #e1e1e1;
      }
    </style>
  </defs>
  <path class="cls-1" d="M125.04.04c74.11-1.78,134.4,60.3,130.81,134.22-3.36,69.16-61.64,123.68-131.09,121.69C56.41,253.99,2.26,200,.07,131.74-2.22,60.78,54.16,1.74,125.04.04ZM203.28,33.94c-12.89-9.07-26.78-17.39-42.16-21.45-5.83-1.54-11.4-2.91-17.39-3.72-5.4-.72-11.66-1.56-17.11-1.24-.79.05-1.64.25-2.44.26.17.25.72.35,1,.44,9.42,2.79,16.88,4.85,25.42,10,14.86,8.97,27.09,20.75,39.09,33.12,6.13,6.32,10.99,12.94,16,20.17,15.06,21.74,23.06,48.86,20.25,75.42-1.13,10.69-5.51,22.85-10.19,32.5-11.68,24.08-31.75,36.5-57.37,42.34-8.65,1.98-15.65,2.34-24.46,2.04-7.33-.25-14.88-.43-21.55-3.82-8.23-4.18-15.02-10.58-18.61-19.19l-2.49-6.49c0,3.34.17,7.02.96,10.27,1.52,6.22,3.51,11.64,6.68,17.18,8.27,14.46,24.14,26.07,41.42,25.03,25.74-1.55,47.9-11.74,66.64-29.07,5.73-5.3,11.57-11.98,15.83-18.57,2.01-3.12,4.54-8.5,6.11-11.97,3.79-8.32,6.27-18.62,7.2-27.7.33-3.26.72-6.6.87-9.79.38-8.2.11-16.23-1.1-24.37-1.48-9.93-5.22-19.63-8.88-28.92-1.66-4.22-3.2-8.25-5.45-12.13-1.74-3-3.2-6.15-4.9-9.17-2.54-4.5-5.63-9.2-8.61-13.42-2.13-3.02-4.5-5.86-6.61-8.9,2.13,1.31,4.16,2.97,6.03,4.64,9.53,8.51,16.71,18.44,23.67,29.07,6.26,9.56,12.13,19.36,17.66,29.36.21,0,.24-.41.24-.55-.09-3.23-1.15-7.46-1.91-10.65-3.12-13.08-8.26-26.12-14.94-37.67-6.96-12.04-16.49-22.33-26.87-31.39l-2.04-1.66ZM153.58,143.17c-.19-1.39.14-3.15,0-4.58-1.94,1.31-4.65,5.54-7.35,3.51-1.92-1.44-2.73-4.79-2.58-7.1.04-.57.69-3.2.51-3.45-.29.14-.56.31-.81.5-1.79,1.35-2.69,2.51-5.06,3.23-5.91,1.79-13.16-4.47-15.66-9.4-1.22-2.4-1.38-4.59-2.32-6.85-.6-1.45-1.91-3-2.71-4.45-2.26-4.11-3.68-8.7-3.85-13.42.19.03.24.23.31.38,1.25,2.45,2.07,5.66,3.24,8.18.66,1.43,2.93,5.24,3.98,6.32,2.13,2.18,5.67,3.86,8.34,5.22,3.24,1.66,7.97,4.46,11.68,4.11,2.29-.22,3.91-2,6.52-.71.99.49.81,1.53,1,2.39.34,1.49.74,2.97.97,4.49,1.68-.39,2.66-1.93,4.15-2.57,1.32-.57,2.73-1.03,3.77.25.63.78.59,1.31.89,2.13.45,1.24,1.02,2.47,1,3.84,1.43-.26,2.92-3.33,4.52-2.32.48.31,2.19,2.05,2.5,2.53.87,1.35,1.39,3.72,1.53,5.31.52-.43,1.13-.75,1.63-1.19.82-.71,1.67-2.12,2.95-2.08,1.14.04,2.77,1.49,3.39,2.4,1.67,2.45,1.18,5.14,1.46,7.9.65-.53,1.38-1.01,1.95-1.63.71-.79,1.25-1.88,1.95-2.7.47-.55,2.12-1.97,2.81-1.94,1.49.05,2.37,3.26,2.46,4.45.14,1.83-.96,3.64-1.13,5.46,1.39-.48,2.17-1.72,3.14-2.7.43-.43.92-.8,1.34-1.23.53-.55,1.39-1.96,2.12-2.08,1.25-.2,1.2.19,1.62,1.13,1.13,2.47,1.09,4.14.82,6.84-.06.63-.29,1.31-.37,1.95,3.34-1.51,4.92-5.33,6.68-8.32.6-1.02,1.22-1.36,1.35-2.66.15-1.44.49-3.57.12-4.89s-.97-2.42-1.12-3.9c-.18-1.83.31-3.17.38-4.89.02-.43.07-1.54-.12-1.86-.09-.16-2.6-1.93-2.94-2.12-2.85-1.59-5.96-2.87-8.86-4.32-1.55-.77-3.11-2.04-4.62-2.91-4.87-2.82-12.54-6.04-14.42-11.7-.74-2.22-.69-4.8-1.08-7.08-.19-1.08-1.77-.97-2.63-1.26-2.87-.99-6.71-5.59-9.05-7.66-2.62-2.31-4.81-3.06-6.77-6.32-2.8-4.65-3.92-8.87-8.65-12.17-4.99-3.48-9.47-6.74-13.99-10.88-5.95-5.46-11.58-11.31-17.33-16.95-6.15-6.04-12.26-12.11-18.22-18.32-.7-.73-1.18-1.72-2.13-2.2.48,2.32,1.85,4.3,2.81,6.42,2.01,4.45,3.69,8.65,6.21,12.87,3.21,5.38,7.51,10.15,11,15.37,2.37,3.54,4.29,7.57,6.88,10.95,1.66,2.17,5.11,3.61,7.36,5.2.83.59,1.61,1.22,2.29,1.97-.08.17-.34,0-.46-.04-4.72-1.83-8.82-4.64-13.27-6.82-2.6-1.27-5.44-2.28-8.08-3.47-3.26-1.48-6.56-3.41-9.8-4.77-.11-.05-.32-.27-.42-.08,1.76,2.79,4.39,5.09,7.05,7.02,1.64,1.19,2.54,1.36,4.22,2.19,1.8.88,4.85,3.19,6.54,4.42,2.21,1.6,4.03,3.41,6.12,5.02.85.65,1.94,1.19,2.81,1.83.93.69,1.82,1.5,2.65,2.31-.65-.11-1.29-.51-1.89-.81-4.41-2.23-8.89-5.2-12.93-8.04-1-.7-2.14-1.83-3.11-2.41s-2.14-.9-3.13-1.39c-4.98-2.44-9.62-5.03-14.36-7.87-5.15-3.09-10.35-6.15-15.48-9.26-6.97-4.23-13.98-8.45-21.11-12.43-1.13-.63-2.34-1.35-3.63-1.58,2.54,3.24,5.18,6.41,7.79,9.61,2.78,3.4,4.38,5.52,7.8,8.4,2.98,2.52,6.1,5.05,9.05,7.66,1.46,1.29,2.72,2.21,4.25,3.41,3.46,2.71,6.73,6.05,9.48,9.48,2.43,3.03,2.9,4.97,6.99,6.2,2.94.88,5.34,1.4,8.21,2.72,1.03.47,2.23,1.03,3.09,1.74-2.14-.23-4.21-.87-6.28-1.44-2.74-.75-5.57-1.54-8.26-2.41-3.54-1.15-4.39-3.26-6.38-5.92-1.63-2.19-4.36-4.82-6.39-6.67-3.62-3.31-4.91-3.73-9.92-3.89-4.06-.13-8.75.16-12.82.51-2.2.19-4.43.45-6.6.88l8.2,2.67c3.98,1.9,8.1,3.72,11.46,6.62.39.33,2.18,1.84,1.77,2.39-3.5.59-7.04.94-10.54,1.52-7.94,1.32-15.85,3.45-23.45,6.07-6.28,2.17-12.46,4.65-18.35,7.72.09.23.74.14.94.12,1.7-.11,3.34-.57,5.03-.75,4.12-.44,8.95-.32,13.03.42,2.88.52,9.4,2.59,11.22,4.85.23.29.64.72.48,1.1l-12.82,6.67c-10.9,6.67-22.64,14.33-31.01,24.12-.78.91-1.51,1.9-2.2,2.89l5.75-1.72c4.12-.46,7.84-1.32,12.03-1.16,2.17.08,8.76.57,10.41,1.65.37.24.61.51.4.98-1.48,1.74-3.07,3.4-4.46,5.21-3.68,4.82-7.33,10.26-10.63,15.36-1.88,2.9-4.6,6.79-6.01,9.81-.1.22-.63,1.67-.56,1.76,1.47-.78,3.83-3.65,5.51-2.18.82.71,2.22,3.12,2.76,4.15,2.64,5,4.66,10.66,7.24,15.74,5.97,11.77,15.59,23.45,26.08,31.43.16.12,1.15.92,1.24.83-.69-2.03-1.08-4.19-1.55-6.3-.39-1.75-.83-3.32-.96-5.19-.43-6.02-.61-15.1,1.83-20.63.07-.16.27-.57.42-.64,0,4.03.53,8.07,1.71,11.91,2.18,7.08,6.11,15.57,10.42,21.6,4.55,6.36,14.71,14.62,21.83,17.85,9.23,4.19,22.5,8.88,32.69,8.51.15,0,.47.09.44-.12-3.03-1.64-6.42-3.1-9.34-4.92-5.87-3.66-12.24-11.36-15.68-17.34-2.64-4.59-4.95-9.9-6.69-14.9-5.07-14.52-4.53-31.74-.66-46.47.88-3.34,2.28-6.47,3.55-9.63,1.21-3,2.34-6,3.78-8.9s5-8.19,5.2-11.13c.22-3.27-1.2-5.36-3.44-7.54-.79-.77-1.79-1.62-2.65-2.31-3.97-3.18-8.12-6.22-12.67-8.56l-4.98-2.37c2.54-.09,5.2.54,7.6,1.38,12.08,4.23,32.32,20.56,20.66,34.33-.17.2-2.17,2.07-2.01,2.2,3.12-.68,5.77-2.76,8.77-3.73,3.96-1.28,10.34-2.19,14.54-2.42.39-.02,2.41-.05,2.56.14l-.06.75c-2.78,1.36-5.72,2.4-8.47,3.81s-5.39,3.18-7.72,4.97c-1.74,1.33-7.11,5.33-7.96,6.98-.09.18-.18.33-.14.55,1.61-.7,3.02-1.81,4.56-2.66,8.11-4.44,20.69-7.27,29.93-7.01,10.52.29,17.97,2.74,26.48,8.82,5.48,3.91,12.15,10.85,11.65,18.12-.34,4.96-3.62,9.76-6.66,13.49,2.2-.33,4.31-1.27,6.22-2.38,8.43-4.96,13.74-15.93,14.14-25.54.03-.77.06-6.1-.13-6.35-.92.53-1.52,1.46-2.33,2.13-.95.79-3.91,2.71-5.12,2.36-.62-.18-.66-1.95-.72-2.55-.24-2.44-.01-4.9-.25-7.34-.83.66-1.27,1.65-2.01,2.45-.67.72-3.56,3.18-4.4,3.39-1.18.3-2.09-.21-2.8-1.1-1.11-1.39-1.53-4.26-1.61-6.05-.07-1.45.49-2.88.38-4.34-1.35.97-2.49,2.04-3.9,2.94-.5.32-2.07,1.36-2.53,1.31-.17-.02-.49-.16-.64-.25-2.13-1.25-1.49-5.93-1.71-7.96-.02-.19-.01-.31-.19-.43-1.87,1.27-4.13,5.4-6.78,3.38-.82-.62-1.56-2.07-1.7-3.07Z"/>
  <path d="M153.58,143.17c.14,1,.88,2.45,1.7,3.07,2.66,2.02,4.91-2.11,6.78-3.38.18.12.17.24.19.43.22,2.02-.42,6.7,1.71,7.96.15.09.47.23.64.25.47.06,2.03-.98,2.53-1.31,1.41-.9,2.56-1.97,3.9-2.94.11,1.46-.45,2.89-.38,4.34.08,1.79.5,4.65,1.61,6.05.71.89,1.62,1.41,2.8,1.1.83-.21,3.73-2.67,4.4-3.39.74-.8,1.18-1.79,2.01-2.45.24,2.44.02,4.9.25,7.34.06.6.1,2.37.72,2.55,1.2.35,4.17-1.57,5.12-2.36.8-.67,1.4-1.6,2.33-2.13.2.25.16,5.58.13,6.35-.4,9.6-5.71,20.58-14.14,25.54-1.9,1.12-4.02,2.05-6.22,2.38,3.04-3.73,6.33-8.53,6.66-13.49.5-7.27-6.17-14.21-11.65-18.12-8.51-6.08-15.96-8.53-26.48-8.82-9.24-.25-21.82,2.58-29.93,7.01-1.54.84-2.95,1.96-4.56,2.66-.04-.21.05-.37.14-.55.85-1.65,6.22-5.65,7.96-6.98,2.33-1.78,5.11-3.62,7.72-4.97,2.75-1.42,5.69-2.46,8.47-3.81l.06-.75c-.15-.18-2.17-.16-2.56-.14-4.2.23-10.58,1.14-14.54,2.42-3,.97-5.65,3.05-8.77,3.73-.16-.13,1.84-2,2.01-2.2,11.66-13.77-8.58-30.11-20.66-34.33-2.4-.84-5.06-1.47-7.6-1.38l4.98,2.37c4.55,2.34,8.7,5.37,12.67,8.56.86.69,1.86,1.55,2.65,2.31,2.24,2.17,3.66,4.27,3.44,7.54-.2,2.94-3.78,8.27-5.2,11.13s-2.57,5.9-3.78,8.9c-1.28,3.17-2.67,6.29-3.55,9.63-3.87,14.73-4.41,31.95.66,46.47,1.75,5,4.05,10.31,6.69,14.9,3.44,5.99,9.81,13.68,15.68,17.34,2.92,1.82,6.3,3.27,9.34,4.92.03.22-.29.12-.44.12-10.19.37-23.46-4.32-32.69-8.51-7.12-3.23-17.28-11.5-21.83-17.85-4.31-6.02-8.24-14.52-10.42-21.6-1.18-3.84-1.71-7.88-1.71-11.91-.16.07-.35.48-.42.64-2.45,5.53-2.27,14.61-1.83,20.63.13,1.86.57,3.43.96,5.19.47,2.1.85,4.26,1.55,6.3-.09.09-1.09-.71-1.24-.83-10.5-7.97-20.11-19.65-26.08-31.43-2.58-5.08-4.59-10.75-7.24-15.74-.54-1.03-1.94-3.43-2.76-4.15-1.68-1.46-4.05,1.41-5.51,2.18-.07-.09.46-1.54.56-1.76,1.41-3.02,4.14-6.91,6.01-9.81,3.3-5.1,6.95-10.54,10.63-15.36,1.38-1.81,2.98-3.47,4.46-5.21.22-.47-.03-.74-.4-.98-1.65-1.08-8.24-1.57-10.41-1.65-4.19-.16-7.91.71-12.03,1.16l-5.75,1.72c.68-.99,1.42-1.97,2.2-2.89,8.37-9.79,20.11-17.45,31.01-24.12l12.82-6.67c.15-.37-.25-.81-.48-1.1-1.82-2.27-8.34-4.33-11.22-4.85-4.07-.73-8.91-.85-13.03-.42-1.68.18-3.32.64-5.03.75-.2.01-.85.11-.94-.12,5.88-3.07,12.07-5.55,18.35-7.72,7.59-2.62,15.51-4.76,23.45-6.07,3.5-.58,7.04-.93,10.54-1.52.4-.55-1.38-2.06-1.77-2.39-3.37-2.9-7.48-4.72-11.46-6.62l-8.2-2.67c2.17-.43,4.39-.69,6.6-.88,4.06-.35,8.76-.64,12.82-.51,5.01.16,6.3.58,9.92,3.89,2.03,1.85,4.76,4.48,6.39,6.67,1.99,2.66,2.85,4.78,6.38,5.92,2.7.88,5.53,1.66,8.26,2.41,2.07.57,4.14,1.21,6.28,1.44-.86-.71-2.07-1.27-3.09-1.74-2.87-1.31-5.27-1.84-8.21-2.72-4.09-1.22-4.56-3.17-6.99-6.2-2.75-3.44-6.02-6.77-9.48-9.48-1.53-1.2-2.79-2.11-4.25-3.41-2.95-2.61-6.07-5.14-9.05-7.66-3.42-2.88-5.02-5-7.8-8.4-2.6-3.19-5.24-6.36-7.79-9.61,1.29.23,2.49.95,3.63,1.58,7.12,3.97,14.14,8.2,21.11,12.43,5.13,3.11,10.33,6.17,15.48,9.26,4.74,2.85,9.38,5.43,14.36,7.87.99.49,2.2.83,3.13,1.39s2.11,1.71,3.11,2.41c4.04,2.85,8.52,5.81,12.93,8.04.59.3,1.24.7,1.89.81-.83-.81-1.72-1.62-2.65-2.31-.87-.65-1.97-1.19-2.81-1.83-2.1-1.61-3.91-3.42-6.12-5.02-1.7-1.23-4.74-3.53-6.54-4.42-1.68-.82-2.58-1-4.22-2.19-2.66-1.93-5.28-4.23-7.05-7.02.1-.19.3.04.42.08,3.24,1.37,6.54,3.29,9.8,4.77,2.64,1.2,5.48,2.2,8.08,3.47,4.45,2.18,8.56,4.99,13.27,6.82.12.05.38.2.46.04-.68-.76-1.47-1.39-2.29-1.97-2.25-1.59-5.7-3.03-7.36-5.2-2.59-3.38-4.51-7.41-6.88-10.95-3.5-5.22-7.79-9.99-11-15.37-2.52-4.22-4.2-8.43-6.21-12.87-.96-2.11-2.33-4.1-2.81-6.42.95.48,1.43,1.47,2.13,2.2,5.97,6.21,12.07,12.28,18.22,18.32,5.75,5.65,11.38,11.49,17.33,16.95,4.51,4.14,9,7.4,13.99,10.88,4.72,3.3,5.85,7.52,8.65,12.17,1.96,3.26,4.15,4.01,6.77,6.32,2.34,2.07,6.18,6.67,9.05,7.66.86.3,2.44.19,2.63,1.26.39,2.29.34,4.86,1.08,7.08,1.88,5.66,9.55,8.88,14.42,11.7,1.51.88,3.08,2.14,4.62,2.91,2.9,1.45,6.01,2.73,8.86,4.32.34.19,2.85,1.96,2.94,2.12.19.32.14,1.43.12,1.86-.07,1.72-.56,3.06-.38,4.89.15,1.48.74,2.56,1.12,3.9s.03,3.45-.12,4.89c-.14,1.3-.75,1.64-1.35,2.66-1.76,2.99-3.34,6.81-6.68,8.32.08-.64.31-1.31.37-1.95.27-2.69.31-4.36-.82-6.84-.42-.93-.37-1.33-1.62-1.13-.74.12-1.59,1.53-2.12,2.08-.42.43-.92.8-1.34,1.23-.97.98-1.74,2.22-3.14,2.7.17-1.82,1.27-3.63,1.13-5.46-.09-1.19-.97-4.41-2.46-4.45-.69-.02-2.34,1.4-2.81,1.94-.7.81-1.24,1.91-1.95,2.7-.56.62-1.3,1.1-1.95,1.63-.28-2.76.21-5.45-1.46-7.9-.62-.91-2.25-2.36-3.39-2.4-1.27-.04-2.12,1.37-2.95,2.08-.51.44-1.12.76-1.63,1.19-.14-1.6-.66-3.96-1.53-5.31-.31-.48-2.01-2.22-2.5-2.53-1.59-1.02-3.09,2.06-4.52,2.32.02-1.36-.55-2.59-1-3.84-.3-.82-.25-1.35-.89-2.13-1.04-1.28-2.44-.81-3.77-.25-1.49.64-2.46,2.18-4.15,2.57-.23-1.52-.63-3-.97-4.49-.19-.85-.02-1.89-1-2.39-2.61-1.29-4.23.49-6.52.71-3.71.35-8.44-2.45-11.68-4.11-2.67-1.37-6.22-3.04-8.34-5.22-1.05-1.07-3.32-4.89-3.98-6.32-1.17-2.53-1.99-5.73-3.24-8.18-.07-.14-.12-.35-.31-.38.17,4.72,1.58,9.31,3.85,13.42.8,1.44,2.1,3,2.71,4.45.94,2.26,1.1,4.44,2.32,6.85,2.5,4.92,9.75,11.19,15.66,9.4,2.37-.72,3.27-1.88,5.06-3.23.25-.19.53-.37.81-.5.18.25-.47,2.88-.51,3.45-.14,2.3.66,5.65,2.58,7.1,2.69,2.03,5.41-2.21,7.35-3.51.14,1.43-.19,3.2,0,4.58ZM158.56,112.65c-2.02-1.18-3.38-2.82-5.04-4.32-3.18-2.89-8.38-4.21-12.38-5.71-.8-.3-6.09-2.57-6.41-2.32l1.89,2.69c3.25,3.07,5.88,8.62,10.87,8.98,1.47.11,3.06-.1,4.53,0,1.73.12,4.22,1.03,5.87,1.67.88.34,1.83,1.03,2.73,1.04l-2.06-2.02ZM195.02,136.94c.96-1.19-.06-4.14-.99-5.07-1.03-1.03-2.48-1.51-3.87-1.78-.58-.11-2.66-.54-2.98-.04-.12.49.68.62,1.01.88.53.42.9.96,1.51,1.38.71.48,2.14.95,2.68,1.46.66.62,1.2,1.99,1.9,2.75.16.17.46.59.73.43Z"/>
  <path d="M203.28,33.94l2.04,1.66c10.39,9.06,19.91,19.35,26.87,31.39,6.67,11.55,11.82,24.59,14.94,37.67.76,3.19,1.82,7.42,1.91,10.65,0,.14-.02.55-.24.55-5.54-10-11.4-19.8-17.66-29.36-6.96-10.63-14.14-20.56-23.67-29.07-1.87-1.67-3.9-3.34-6.03-4.64,2.1,3.04,4.47,5.88,6.61,8.9,2.98,4.22,6.08,8.92,8.61,13.42,1.7,3.02,3.16,6.17,4.9,9.17,2.24,3.87,3.79,7.91,5.45,12.13,3.65,9.29,7.4,18.99,8.88,28.92,1.21,8.14,1.48,16.17,1.1,24.37-.15,3.19-.54,6.53-.87,9.79-.93,9.08-3.41,19.38-7.2,27.7-1.58,3.47-4.1,8.85-6.11,11.97-4.26,6.59-10.1,13.28-15.83,18.57-18.74,17.32-40.9,27.52-66.64,29.07-17.28,1.04-33.15-10.57-41.42-25.03-3.17-5.54-5.16-10.96-6.68-17.18-.79-3.25-.97-6.94-.96-10.27l2.49,6.49c3.59,8.61,10.38,15.01,18.61,19.19,6.68,3.39,14.23,3.57,21.55,3.82,8.81.3,15.81-.06,24.46-2.04,25.62-5.85,45.68-18.26,57.37-42.34,4.68-9.65,9.06-21.8,10.19-32.5,2.81-26.56-5.19-53.67-20.25-75.42-5-7.23-9.86-13.85-16-20.17-12-12.37-24.23-24.15-39.09-33.12-8.54-5.15-16-7.21-25.42-10-.29-.09-.83-.19-1-.44.8,0,1.65-.21,2.44-.26,5.44-.32,11.71.52,17.11,1.24,5.98.8,11.56,2.18,17.39,3.72,15.38,4.06,29.28,12.38,42.16,21.45Z"/>
  <path class="cls-1" d="M158.56,112.65l2.06,2.02c-.9-.01-1.85-.7-2.73-1.04-1.65-.64-4.14-1.55-5.87-1.67-1.47-.1-3.06.11-4.53,0-4.99-.36-7.61-5.9-10.87-8.98l-1.89-2.69c.32-.26,5.61,2.02,6.41,2.32,4,1.5,9.2,2.82,12.38,5.71,1.65,1.5,3.02,3.14,5.04,4.32Z"/>
  <path class="cls-1" d="M195.02,136.94c-.27.16-.57-.25-.73-.43-.71-.76-1.25-2.12-1.9-2.75-.54-.51-1.97-.98-2.68-1.46-.61-.41-.98-.96-1.51-1.38-.33-.26-1.13-.39-1.01-.88.32-.5,2.4-.07,2.98.04,1.39.27,2.84.75,3.87,1.78.93.93,1.95,3.88.99,5.07Z"/>
</svg>