<?xml version="1.0" encoding="UTF-8" standalone="no"?>
<!-- Created with Inkscape (http://www.inkscape.org/) -->

<svg
   width="67.73333mm"
   height="67.73333mm"
   viewBox="0 0 67.73333 67.73333"
   version="1.1"
   id="svg5"
   inkscape:version="1.1.2 (0a00cf5339, 2022-02-04, custom)"
   sodipodi:docname="icon.svg"
   xmlns:inkscape="http://www.inkscape.org/namespaces/inkscape"
   xmlns:sodipodi="http://sodipodi.sourceforge.net/DTD/sodipodi-0.dtd"
   xmlns="http://www.w3.org/2000/svg"
   xmlns:svg="http://www.w3.org/2000/svg">
  <sodipodi:namedview
     id="namedview7"
     pagecolor="#ffffff"
     bordercolor="#999999"
     borderopacity="1"
     inkscape:pageshadow="0"
     inkscape:pageopacity="0"
     inkscape:pagecheckerboard="0"
     inkscape:document-units="mm"
     showgrid="false"
     inkscape:snap-global="false"
     fit-margin-top="0"
     fit-margin-left="0"
     fit-margin-right="0"
     fit-margin-bottom="0"
     inkscape:zoom="1.8101933"
     inkscape:cx="79.82573"
     inkscape:cy="141.97379"
     inkscape:window-width="1920"
     inkscape:window-height="1017"
     inkscape:window-x="-8"
     inkscape:window-y="-8"
     inkscape:window-maximized="1"
     inkscape:current-layer="layer1" />
  <defs
     id="defs2" />
  <g
     inkscape:label="Layer 1"
     inkscape:groupmode="layer"
     id="layer1"
     transform="translate(1411.4488,468.28009)">
    <g
       id="g269"
       transform="matrix(0.07111111,0,0,0.07111111,-1386.0809,-433.98237)">
      <path
         style="fill:#fefefe;stroke-width:0.264583"
         d="m -356.73645,-6.06174 v -476.25 h 476.25 476.25 v 476.25 476.25 h -476.25 -476.25 z m 493.98081,475.45167 c 28.0224,-1.21372 51.07747,-4.00881 77.53901,-9.40041 43.54107,-8.87163 85.17747,-23.62017 124.40975,-44.06876 46.94087,-24.46641 88.59473,-55.8673 125.43645,-94.56062 30.26034,-31.78117 56.29354,-68.27142 76.86648,-107.74231 18.21143,-34.94013 32.29589,-72.91639 41.14337,-110.93582 8.5249,-36.633362 12.59496,-71.773812 12.59496,-108.74375 0,-36.969938 -4.07006,-72.110388 -12.59496,-108.74375 -8.84748,-38.01943 -22.93194,-75.99569 -41.14337,-110.93583 -20.57294,-39.47088 -46.60614,-75.96113 -76.86648,-107.74229 -5.4659,-5.7406 -17.13296,-17.28586 -22.06586,-21.83547 -31.3655,-28.92841 -65.73586,-53.10927 -103.37059,-72.72516 -34.97873,-18.23156 -72.8744,-32.28612 -110.93582,-41.14336 -36.63336,-8.52492 -71.77381,-12.59497 -108.74375,-12.59497 -32.764995,0 -62.748134,3.04319 -95.269817,9.66958 -26.473018,5.39395 -50.138859,12.30654 -75.742721,22.1238 -57.707262,22.12662 -111.684092,56.22642 -156.409332,98.81142 -26.25362,24.99731 -48.74022,51.70847 -68.57544,81.45874 -31.32209,46.9791 -54.41008,100.25959 -67.12855,154.91354 -8.52492,36.633362 -12.59497,71.773812 -12.59497,108.74375 0,36.969938 4.07005,72.110388 12.59497,108.74375 10.69603,45.9631 28.92435,91.48892 52.96895,132.29167 22.82597,38.73476 49.97503,72.88826 82.73504,104.0806 44.72524,42.585 98.70207,76.68482 156.409332,98.81145 30.391867,11.65309 58.715328,19.41769 91.372955,25.04898 20.396623,3.51708 38.912879,5.47375 61.118753,6.45863 7.00484,0.31068 29.22698,0.32086 36.25164,0.0167 z M 108.00418,374.782 C 78.543376,373.54044 55.227711,370.36772 29.308969,364.07346 -22.450675,351.50382 -72.545587,327.34477 -113.98124,294.96948 l -4.49792,-3.51438 -0.0676,-23.1045 -0.0676,-23.10448 1.03137,0.88305 c 0.56724,0.48567 2.44313,2.1843 4.16864,3.77473 29.352731,27.05476 66.56807,50.32571 104.7633994,65.50914 31.8918696,12.67765 65.0408276,20.50563 99.0603436,23.39264 10.601697,0.89971 15.007507,1.06021 29.104167,1.06021 14.09666,0 18.50247,-0.1605 29.10417,-1.06021 62.98737,-5.34533 122.97603,-27.67251 174.35936,-64.89484 9.88697,-7.16219 21.10853,-16.30526 29.46439,-24.00694 1.72551,-1.59043 3.60138,-3.28906 4.16864,-3.77473 l 1.03135,-0.88305 -0.0676,23.10448 -0.0676,23.1045 -4.49792,3.51438 c -26.80613,20.94466 -58.2671,39.04287 -90.57714,52.10535 -39.21731,15.85497 -79.11949,24.74664 -122.67702,27.33691 -4.67678,0.2781 -27.59472,0.54538 -31.75,0.37026 z m -4.8948,-121.44531 c -1.96453,-0.19167 -5.714997,-0.52899 -8.334372,-0.74959 -2.619375,-0.22061 -6.029298,-0.57807 -7.577613,-0.79434 -1.548316,-0.21627 -3.870034,-0.50985 -5.159375,-0.65243 -2.673245,-0.2956 -9.119553,-1.39356 -11.869262,-2.02163 -1.018645,-0.23268 -2.387864,-0.51914 -3.042708,-0.63659 -0.654844,-0.11745 -2.321719,-0.464 -3.704167,-0.77012 -1.382448,-0.30612 -3.168385,-0.69776 -3.96875,-0.8703 -0.800364,-0.17253 -1.663567,-0.4173 -1.918229,-0.5439 -0.439288,-0.21844 -0.463021,-3.94779 -0.463021,-72.7533 V 101.02141 L 53.850846,95.435575 C 52.079275,92.363339 49.772241,88.361437 48.724068,86.542427 47.675921,84.723416 44.822469,79.782322 42.383063,75.562218 39.943684,71.342114 37.296158,66.758208 36.499656,65.37576 35.703181,63.993312 34.843894,62.505031 34.590185,62.068468 34.038925,61.119964 30.579789,55.135036 28.549747,51.617427 27.751923,50.234979 26.239855,47.615604 25.189592,45.796593 24.139328,43.977583 22.627605,41.358208 21.830204,39.97576 15.866786,29.637034 14.103127,26.584854 12.886467,24.497635 12.123038,23.187948 10.780648,20.866229 9.9033954,19.33826 9.0261429,17.810291 8.1015565,16.202948 7.8488,15.766385 7.5960435,15.329822 6.5003246,13.424823 5.4138925,11.533052 1.2607808,4.3013542 -2.5532673,-2.294576 -3.5756173,-4.01323 -4.5230637,-5.6059952 -4.8595344,-5.9256912 -6.658119,-6.9420881 -8.5261037,-7.9977227 -15.259485,-11.875165 -22.5677,-16.10363 c -1.67349,-0.968269 -26.498021,-15.308342 -55.165625,-31.866814 -28.667605,-16.558471 -52.165865,-30.148291 -52.218345,-30.199621 -0.23399,-0.228785 4.25304,-14.142508 6.05508,-18.77605 0.67914,-1.74625 1.38948,-3.651245 1.57854,-4.233335 0.18906,-0.58208 1.20895,-3.08239 2.26643,-5.55625 1.7717,-4.1447 2.40607,-5.59472 3.87774,-8.86354 0.96426,-2.1418 4.21935,-8.59295 4.46564,-8.85031 0.1323,-0.13825 0.24054,-0.4784 0.24054,-0.75592 0,-0.37081 0.12273,-0.45815 0.46302,-0.32954 0.25466,0.0963 46.974708,27.027033 103.8223421,59.846109 L 96.176983,-6.0178192 102.02443,4.1200881 107.87188,14.257969 V 134.00854 253.75909 l -0.59531,-0.037 c -0.32742,-0.0204 -2.20266,-0.19378 -4.16719,-0.38544 z M 131.4198,133.99333 V 14.342556 l 5.89928,-10.2098473 5.89931,-10.2098475 101.98455,-58.8836292 c 56.0915,-32.385979 102.709,-59.289872 103.59443,-59.786412 l 1.60985,-0.90279 0.27443,0.5936 c 0.15094,0.32646 0.81703,1.72468 1.48021,3.10713 4.12956,8.60838 5.06402,10.61574 5.60411,12.03854 0.33145,0.87313 0.91462,2.26449 1.29593,3.0919 0.38132,0.82743 0.69332,1.5645 0.69332,1.63798 0,0.0735 0.47625,1.15972 1.05833,2.41387 0.58208,1.25415 1.05833,2.39948 1.05833,2.54513 0,0.14568 0.51994,1.537631 1.15541,3.093195 0.63548,1.555592 1.35753,3.542718 1.60457,4.415843 0.24704,0.873125 0.77912,2.54 1.18239,3.704167 0.40331,1.164167 1.17113,3.485885 1.7063,5.159375 1.89783,5.934578 1.7753,5.38443 1.28363,5.762519 -0.24217,0.186214 -23.30249,13.540793 -51.24514,29.676831 -27.94267,16.136011 -56.03306,32.359653 -62.42306,36.052522 l -11.61817,6.7142782 -1.50292,2.6349325 c -0.82661,1.4492288 -2.60993,4.539959 -3.96295,6.8682923 -1.35303,2.3283333 -3.13889,5.4239583 -3.96857,6.879167 -0.82968,1.455208 -2.58035,4.491302 -3.89035,6.746875 -1.31003,2.255573 -4.23273,7.315729 -6.49491,11.244791 -2.26219,3.929063 -4.97793,8.632032 -6.03494,10.451042 -1.05704,1.81901 -2.81186,4.855104 -3.89959,6.746875 -1.08775,1.891771 -2.59858,4.511146 -3.35737,5.820833 -0.7588,1.309688 -2.27235,3.929063 -3.36344,5.820834 -1.09109,1.891771 -2.87703,4.987395 -3.96875,6.879166 -1.09175,1.891771 -3.15291,5.463646 -4.58036,7.9375 -1.42745,2.473854 -3.24908,5.629011 -4.04807,7.011459 -0.79899,1.382448 -2.32884,4.031588 -3.39966,5.886979 -1.07082,1.85539 -2.8231,4.891484 -3.89393,6.746875 -1.07082,1.85539 -2.6484,4.564062 -3.50573,6.019271 l -1.55876,2.645828 -0.13229,72.74042 -0.13229,72.74041 -1.45521,0.3487 c -11.37042,2.72441 -24.86311,5.07391 -33.86667,5.89724 -3.61775,0.33084 -9.22869,0.79478 -12.36927,1.02278 l -2.71198,0.1969 z m -368.69687,-71.109045 -19.84375,-11.469688 -0.59119,-4.198064 c -2.56217,-18.194311 -3.62573,-33.931225 -3.61861,-53.5428563 0.007,-18.9008277 0.93254,-33.0632857 3.31169,-50.6677087 9.16387,-67.807598 36.39204,-131.908418 78.78352,-185.472918 33.78484,-42.68941 75.96406,-77.33401 124.91771,-102.6032 11.846454,-6.11498 34.225071,-16.03411 35.460305,-15.71749 0.371158,0.0951 38.113811,21.79555 39.264034,22.57515 0.397828,0.26964 0.426667,0.37118 0.132292,0.46588 -0.207036,0.0666 -3.233923,1.03558 -6.726423,2.15329 -48.166893,15.41494 -92.352204,41.23193 -129.545348,75.69193 -5.86818,5.43695 -17.67176,17.43596 -22.59007,22.96409 -41.4233,46.5594 -69.28676,102.16363 -81.35334,162.348477 -3.41992,17.057634 -5.13504,30.270423 -6.40535,49.344791 -0.51544,7.739513 -0.43211,32.2339762 0.13725,40.348959 1.3896,19.805491 3.67292,35.973094 7.57608,53.644271 0.68302,3.092317 1.1728,5.618427 1.0884,5.613585 -0.0844,-0.0048 -9.08314,-5.17017 -19.9972,-11.478498 z M 456.156,74.171462 c 0.1956,-0.316468 2.43014,-10.616829 3.3144,-15.277994 4.5007,-23.724632 6.35548,-45.033274 6.03396,-69.320833 -0.15229,-11.503422 -0.3347,-15.569062 -1.11572,-24.870833 -2.64623,-31.514971 -9.70389,-62.730539 -20.96717,-92.736462 -7.51213,-20.01274 -18.42008,-42.22255 -29.47533,-60.01509 -29.49725,-47.4736 -69.01444,-86.43052 -116.63849,-114.9849 -18.02744,-10.80887 -38.37591,-20.547 -58.07014,-27.79055 -5.04455,-1.85538 -16.91979,-5.84032 -19.44688,-6.52573 -0.65484,-0.17761 -1.27931,-0.39749 -1.38768,-0.48862 -0.1084,-0.0911 8.74982,-5.33142 19.68494,-11.64509 l 19.88201,-11.4794 1.32845,0.47182 c 9.31974,3.31007 32.69353,14.33621 45.15895,21.30286 40.65643,22.72198 76.25988,51.96677 105.83447,86.93283 46.6997,55.21312 76.65747,122.28343 86.62546,193.939582 3.54825,25.507129 4.47844,53.1157124 2.65649,78.845833 -0.66013,9.322541 -1.97879,21.564706 -3.10266,28.804553 l -0.32313,2.081635 -19.84375,11.46945 c -10.91407,6.308196 -19.94009,11.473418 -20.0578,11.47826 -0.11774,0.0048 -0.15841,-0.08125 -0.0904,-0.191321 z M 4.4038721,-86.228876 C -52.558168,-119.11568 -99.20626,-146.15137 -99.258531,-146.30818 c -0.05227,-0.15682 0.1421,-0.54452 0.431935,-0.86154 0.289838,-0.31702 2.052542,-2.83858 3.917116,-5.60348 4.499862,-6.67266 14.585673,-20.03269 16.484878,-21.83651 0.234686,-0.22289 1.319662,-1.41116 2.411069,-2.64057 1.091406,-1.22944 2.282031,-2.55775 2.645833,-2.95182 0.363802,-0.3941 1.613958,-1.77827 2.778125,-3.07597 1.164167,-1.2977 2.29526,-2.47809 2.513542,-2.62308 0.30472,-0.2024 12.383479,6.65493 52.013458,29.52904 28.38913,16.38596 56.629803,32.67993 62.75705,36.20881 l 11.14044,6.41614 h 61.715125 61.71512 l 8.08408,-4.67116 c 4.44627,-2.56916 11.65598,-6.72097 16.0216,-9.22631 4.36563,-2.50532 28.98593,-16.70924 54.71176,-31.56424 l 46.77429,-27.00914 1.94378,2.03803 c 1.06911,1.12091 2.3898,2.57381 2.93489,3.22866 0.54513,0.65484 1.24386,1.42949 1.55276,1.72146 0.5474,0.51731 4.03186,4.59287 7.8028,9.12645 3.5033,4.21177 11.18968,14.54396 13.87653,18.65313 0.57092,0.87312 1.60573,2.44192 2.29957,3.48623 l 1.26151,1.89875 -103.60425,59.81531 -103.60427,59.815333 h -11.67447 -11.67448 z"
         id="path275" />
      <path
         style="fill:#0053fd;stroke-width:0.264583"
         d="m 105.68907,469.48386 c 0.1819,-0.0734 0.47956,-0.0734 0.66146,0 0.1819,0.0734 0.0331,0.13346 -0.33073,0.13346 -0.3638,0 -0.51263,-0.0601 -0.33073,-0.13346 z m 26.9875,0 c 0.1819,-0.0734 0.47956,-0.0734 0.66146,0 0.1819,0.0734 0.0331,0.13346 -0.33073,0.13346 -0.3638,0 -0.51263,-0.0601 -0.33073,-0.13346 z m -33.602082,-0.26458 c 0.181901,-0.0734 0.479557,-0.0734 0.661458,0 0.181901,0.0734 0.03307,0.13345 -0.330729,0.13345 -0.363802,0 -0.512631,-0.0601 -0.330729,-0.13345 z m 40.216662,0 c 0.18191,-0.0734 0.47956,-0.0734 0.66146,0 0.1819,0.0734 0.0331,0.13345 -0.33073,0.13345 -0.3638,0 -0.51263,-0.0601 -0.33073,-0.13345 z m -45.491793,-0.27009 c 0.191003,-0.0764 0.419206,-0.067 0.507127,0.0209 0.08792,0.0879 -0.06837,0.15047 -0.347265,0.13899 -0.30824,-0.0127 -0.37092,-0.0754 -0.159862,-0.15986 z m 51.064583,0 c 0.191,-0.0764 0.41921,-0.067 0.50713,0.0209 0.0879,0.0879 -0.0684,0.15047 -0.34727,0.13899 -0.30824,-0.0127 -0.37092,-0.0754 -0.15986,-0.15986 z m -55.562499,-0.26458 c 0.191002,-0.0764 0.419205,-0.067 0.507127,0.0209 0.08792,0.0879 -0.06837,0.15047 -0.347266,0.13898 -0.30824,-0.0127 -0.37092,-0.0754 -0.159861,-0.15986 z m 60.060419,0 c 0.191,-0.0764 0.4192,-0.067 0.50712,0.0209 0.0879,0.0879 -0.0684,0.15047 -0.34726,0.13898 -0.30824,-0.0127 -0.37092,-0.0754 -0.15986,-0.15986 z m -64.029169,-0.26459 c 0.191002,-0.0764 0.419205,-0.067 0.507127,0.0209 0.08792,0.0879 -0.06837,0.15046 -0.347266,0.13898 -0.30824,-0.0127 -0.37092,-0.0754 -0.159861,-0.15986 z m 67.997919,0 c 0.191,-0.0764 0.4192,-0.067 0.50712,0.0209 0.0879,0.0879 -0.0684,0.15046 -0.34726,0.13898 -0.30824,-0.0127 -0.37092,-0.0754 -0.15986,-0.15986 z m -80.433336,-1.05833 c 0.191003,-0.0764 0.419206,-0.067 0.507127,0.0209 0.08792,0.0879 -0.06837,0.15047 -0.347266,0.13899 -0.308239,-0.0127 -0.370919,-0.0754 -0.159861,-0.15986 z m 92.868746,0 c 0.19101,-0.0764 0.41921,-0.067 0.50713,0.0209 0.0879,0.0879 -0.0684,0.15047 -0.34726,0.13899 -0.30824,-0.0127 -0.37092,-0.0754 -0.15987,-0.15986 z m -95.514579,-0.26458 c 0.191002,-0.0764 0.419205,-0.067 0.507127,0.0209 0.08792,0.0879 -0.06837,0.15047 -0.347266,0.13898 -0.30824,-0.0127 -0.370919,-0.0754 -0.159861,-0.15986 z m 98.160419,0 c 0.191,-0.0764 0.4192,-0.067 0.50712,0.0209 0.0879,0.0879 -0.0684,0.15047 -0.34726,0.13898 -0.30824,-0.0127 -0.37092,-0.0754 -0.15986,-0.15986 z M 60.991024,466.03877 c 0.191003,-0.0764 0.419206,-0.067 0.507127,0.0209 0.08792,0.0879 -0.06837,0.15046 -0.347266,0.13898 -0.308239,-0.0127 -0.370919,-0.0754 -0.159861,-0.15986 z m 116.681246,0 c 0.19101,-0.0764 0.41921,-0.067 0.50713,0.0209 0.0879,0.0879 -0.0684,0.15046 -0.34726,0.13898 -0.30824,-0.0127 -0.37092,-0.0754 -0.15987,-0.15986 z M 58.874357,465.77419 c 0.191003,-0.0764 0.419206,-0.067 0.507127,0.0209 0.08792,0.0879 -0.06837,0.15047 -0.347265,0.13899 -0.30824,-0.0127 -0.37092,-0.0754 -0.159862,-0.15986 z m 120.914583,0 c 0.191,-0.0764 0.41921,-0.067 0.50713,0.0209 0.0879,0.0879 -0.0684,0.15047 -0.34727,0.13899 -0.30824,-0.0127 -0.37092,-0.0754 -0.15986,-0.15986 z M 57.022274,465.50961 c 0.191003,-0.0764 0.419206,-0.067 0.507127,0.0209 0.08792,0.0879 -0.06837,0.15047 -0.347266,0.13898 -0.308239,-0.0127 -0.370919,-0.0754 -0.159861,-0.15986 z m 124.618746,0 c 0.19101,-0.0764 0.41921,-0.067 0.50713,0.0209 0.0879,0.0879 -0.0684,0.15047 -0.34726,0.13898 -0.30824,-0.0127 -0.37092,-0.0754 -0.15987,-0.15986 z M 54.905607,465.24502 c 0.191003,-0.0764 0.419206,-0.067 0.507127,0.0209 0.08792,0.0879 -0.06837,0.15046 -0.347265,0.13898 -0.30824,-0.0127 -0.37092,-0.0754 -0.159862,-0.15986 z m 128.852083,0 c 0.191,-0.0764 0.41921,-0.067 0.50713,0.0209 0.0879,0.0879 -0.0684,0.15046 -0.34727,0.13898 -0.30824,-0.0127 -0.37092,-0.0754 -0.15986,-0.15986 z M 53.053524,464.98044 c 0.191003,-0.0764 0.419206,-0.067 0.507127,0.0209 0.08792,0.0879 -0.06837,0.15047 -0.347266,0.13899 -0.308239,-0.0127 -0.370919,-0.0754 -0.159861,-0.15986 z m 132.556246,0 c 0.19101,-0.0764 0.41921,-0.067 0.50713,0.0209 0.0879,0.0879 -0.0684,0.15047 -0.34726,0.13899 -0.30824,-0.0127 -0.37092,-0.0754 -0.15987,-0.15986 z M 49.613941,464.45127 c 0.191002,-0.0764 0.419205,-0.067 0.507127,0.0209 0.08792,0.0879 -0.06837,0.15046 -0.347266,0.13898 -0.30824,-0.0127 -0.37092,-0.0754 -0.159861,-0.15986 z m 139.435419,0 c 0.191,-0.0764 0.4192,-0.067 0.50712,0.0209 0.0879,0.0879 -0.0684,0.15046 -0.34726,0.13898 -0.30824,-0.0127 -0.37092,-0.0754 -0.15986,-0.15986 z M 47.761857,464.18669 c 0.191003,-0.0764 0.419206,-0.067 0.507127,0.0209 0.08792,0.0879 -0.06837,0.15047 -0.347265,0.13899 -0.30824,-0.0127 -0.37092,-0.0754 -0.159862,-0.15986 z m 143.139583,0 c 0.191,-0.0764 0.41921,-0.067 0.50713,0.0209 0.0879,0.0879 -0.0684,0.15047 -0.34727,0.13899 -0.30824,-0.0127 -0.37092,-0.0754 -0.15986,-0.15986 z M 109.00139,374.7549 c 0.25744,-0.0671 0.61463,-0.0627 0.79375,0.01 0.17915,0.0725 -0.0315,0.12735 -0.46805,0.12198 -0.43656,-0.005 -0.58311,-0.0647 -0.3257,-0.13179 z m 20.37292,0 c 0.25744,-0.0671 0.61462,-0.0627 0.79375,0.01 0.17915,0.0725 -0.0315,0.12735 -0.46805,0.12198 -0.43656,-0.005 -0.58312,-0.0647 -0.3257,-0.13179 z m -27.63745,-0.26196 c 0.191,-0.0764 0.4192,-0.067 0.50712,0.0209 0.0879,0.0879 -0.0684,0.15047 -0.34726,0.13899 -0.30824,-0.0127 -0.37092,-0.0754 -0.15986,-0.15986 z m 35.18958,0 c 0.191,-0.0764 0.41921,-0.067 0.50713,0.0209 0.0879,0.0879 -0.0684,0.15047 -0.34727,0.13899 -0.30824,-0.0127 -0.37092,-0.0754 -0.15986,-0.15986 z m -40.216666,-0.26458 c 0.191003,-0.0764 0.419206,-0.067 0.507127,0.0209 0.08792,0.0879 -0.06837,0.15047 -0.347266,0.13898 -0.308239,-0.0127 -0.370919,-0.0754 -0.159861,-0.15986 z m 45.243746,0 c 0.19101,-0.0764 0.41921,-0.067 0.50713,0.0209 0.0879,0.0879 -0.0684,0.15047 -0.34726,0.13898 -0.30824,-0.0127 -0.37092,-0.0754 -0.15987,-0.15986 z m -342.88414,-28.5927 c -0.3291,-0.41966 -0.31975,-0.429 0.0999,-0.0999 0.25466,0.19973 0.46302,0.40809 0.46302,0.46302 0,0.21778 -0.21727,0.0776 -0.56292,-0.36311 z m 640.32542,0.36311 c 0,-0.0549 0.20836,-0.26329 0.46302,-0.46302 0.41966,-0.32909 0.429,-0.31975 0.0999,0.0999 -0.34565,0.44071 -0.56293,0.58089 -0.56293,0.36311 z m -643.50042,-3.27353 c -0.3291,-0.41966 -0.31975,-0.429 0.0999,-0.0999 0.25466,0.19974 0.46302,0.4081 0.46302,0.46302 0,0.21778 -0.21727,0.0776 -0.56292,-0.36311 z m 646.67542,0.36311 c 0,-0.0549 0.20836,-0.26328 0.46302,-0.46302 0.41966,-0.32909 0.429,-0.31975 0.0999,0.0999 -0.34565,0.44072 -0.56293,0.58089 -0.56293,0.36311 z M 109.53056,339.8299 c 0.25744,-0.0671 0.61462,-0.0627 0.79375,0.01 0.17915,0.0725 -0.0315,0.12735 -0.46805,0.12198 -0.43656,-0.005 -0.58312,-0.0647 -0.3257,-0.13179 z m 19.31458,0 c 0.25744,-0.0671 0.61463,-0.0627 0.79375,0.01 0.17915,0.0725 -0.0315,0.12735 -0.46805,0.12198 -0.43656,-0.005 -0.58311,-0.0647 -0.3257,-0.13179 z m -26.31453,-0.26196 c 0.191,-0.0764 0.4192,-0.067 0.50712,0.0209 0.0879,0.0879 -0.0684,0.15047 -0.34726,0.13899 -0.30824,-0.0127 -0.37092,-0.0754 -0.15986,-0.15986 z m 33.60208,0 c 0.191,-0.0764 0.41921,-0.067 0.50713,0.0209 0.0879,0.0879 -0.0684,0.15047 -0.34727,0.13899 -0.30824,-0.0127 -0.37092,-0.0754 -0.15986,-0.15986 z m -38.364583,-0.26458 c 0.191003,-0.0764 0.419206,-0.067 0.507127,0.0209 0.08792,0.0879 -0.06837,0.15047 -0.347265,0.13898 -0.30824,-0.0127 -0.37092,-0.0754 -0.159862,-0.15986 z m 43.127083,0 c 0.191,-0.0764 0.41921,-0.067 0.50713,0.0209 0.0879,0.0879 -0.0684,0.15047 -0.34727,0.13898 -0.30824,-0.0127 -0.37092,-0.0754 -0.15986,-0.15986 z m -349.49872,-0.81145 c -0.32911,-0.41966 -0.31975,-0.429 0.0999,-0.0999 0.44073,0.34565 0.58089,0.56293 0.36313,0.56293 -0.0549,0 -0.2633,-0.20836 -0.46302,-0.46302 z m 655.67125,0.36311 c 0,-0.0549 0.20836,-0.26329 0.46302,-0.46302 0.41965,-0.32909 0.42899,-0.31975 0.0999,0.0999 -0.34565,0.44071 -0.56292,0.58089 -0.56292,0.36311 z m -672.34,-17.03186 c -0.32911,-0.41966 -0.31975,-0.429 0.0999,-0.0999 0.25466,0.19973 0.46302,0.40809 0.46302,0.46302 0,0.21778 -0.21727,0.0776 -0.56291,-0.36311 z m 689.00875,0.36311 c 0,-0.0549 0.20836,-0.26329 0.46302,-0.46302 0.41965,-0.32909 0.42899,-0.31975 0.0999,0.0999 -0.34565,0.44071 -0.56292,0.58089 -0.56292,0.36311 z m -693.24209,-4.86103 c -0.3291,-0.41966 -0.31975,-0.429 0.0999,-0.0999 0.25466,0.19974 0.46302,0.4081 0.46302,0.46302 0,0.21778 -0.21727,0.0776 -0.56292,-0.36311 z m 697.47542,0.36311 c 0,-0.0549 0.20836,-0.26328 0.46302,-0.46302 0.41966,-0.32909 0.429,-0.31975 0.0999,0.0999 -0.34565,0.44072 -0.56293,0.58089 -0.56293,0.36311 z m -359.96562,-1.3885 C 34.903319,313.37517 -33.463586,286.9004 -88.978117,240.01936 -102.75679,228.38351 -117.87104,213.05197 -129.42565,198.99034 -170.10464,149.48513 -194.97672,89.702584 -201.41657,25.952843 c -1.16608,-11.543347 -1.43537,-17.5496534 -1.43537,-32.014583 0,-14.46493 0.26929,-20.471236 1.43537,-32.014583 6.29439,-62.309777 30.37784,-121.255317 69.40089,-169.862497 13.49601,-16.81065 30.00153,-33.52391 46.477147,-47.06212 49.505208,-40.67899 109.287759,-65.55107 173.0375,-71.99092 11.543347,-1.16608 17.549653,-1.43537 32.014583,-1.43537 14.46493,0 20.47124,0.26929 32.01458,1.43537 69.98404,7.06963 135.09038,36.34765 186.79584,84.00125 5.25999,4.8478 16.33349,16.05005 20.91793,21.16116 46.05983,51.35121 74.27717,115.2048 81.20176,183.753127 1.1661,11.543347 1.43539,17.549653 1.43539,32.014583 0,14.4649296 -0.26929,20.471236 -1.43539,32.014583 -7.06961,69.984038 -36.34764,135.090377 -84.00124,186.795837 -7.77623,8.4374 -19.87642,20.04126 -28.4372,27.27068 -53.17972,44.90934 -117.84317,71.00046 -187.85417,75.79746 -5.62597,0.3855 -26.67852,0.70181 -32.14687,0.48303 z m 29.10416,-37.39126 c 52.54437,-3.66427 99.57774,-19.71728 142.47813,-48.62934 15.32697,-10.32938 27.67438,-20.57341 41.68452,-34.58355 11.15184,-11.15184 17.77166,-18.73517 26.57218,-30.43973 29.70453,-39.50669 48.73855,-86.529758 54.88776,-135.59896 1.67227,-13.344446 2.12236,-20.9189902 2.12236,-35.71875 0,-20.944787 -1.65002,-37.589963 -5.67836,-57.282292 -9.1857,-44.904048 -29.57282,-87.908708 -58.32517,-123.031248 -11.62341,-14.1986 -26.82407,-29.39926 -41.02267,-41.02266 -35.12254,-28.75236 -78.1272,-49.13949 -123.03125,-58.32519 -19.69233,-4.02832 -36.3375,-5.67834 -57.28229,-5.67834 -20.944787,0 -37.589963,1.65002 -57.282292,5.67834 -44.904051,9.1857 -87.908712,29.57283 -123.03125,58.32519 -14.1986,11.6234 -29.399256,26.82406 -41.022658,41.02266 -28.75236,35.12254 -49.13949,78.1272 -58.32519,123.031248 -4.02832,19.692329 -5.67834,36.337505 -5.67834,57.282292 0,20.944787 1.65002,37.589963 5.67834,57.282292 9.1857,44.904051 29.57283,87.908708 58.32519,123.031248 11.623402,14.1986 26.824058,29.39926 41.022658,41.02267 35.122538,28.75235 78.127199,49.13947 123.03125,58.32517 15.456482,3.16183 27.510026,4.61635 46.963542,5.66714 3.33542,0.18018 23.99527,-0.0849 27.91354,-0.35819 z m -40.542367,-26.1266 c 0.25744,-0.0671 0.614627,-0.0627 0.79375,0.01 0.179149,0.0725 -0.03149,0.12734 -0.468048,0.12197 -0.436563,-0.005 -0.583115,-0.0647 -0.325702,-0.13179 z m 45.900177,0.008 c 0.18191,-0.0734 0.47956,-0.0734 0.66146,0 0.1819,0.0734 0.0331,0.13346 -0.33073,0.13346 -0.3638,0 -0.51263,-0.0601 -0.33073,-0.13346 z m -49.344787,-0.27173 c 0.254661,-0.0666 0.67138,-0.0666 0.926041,0 0.254662,0.0665 0.0463,0.121 -0.463021,0.121 -0.509323,0 -0.717682,-0.0545 -0.46302,-0.121 z m 51.742577,0.003 c 0.191,-0.0764 0.41921,-0.067 0.50713,0.0209 0.0879,0.0879 -0.0684,0.15047 -0.34727,0.13899 -0.30824,-0.0127 -0.37092,-0.0754 -0.15986,-0.15987 z m -60.324999,-1.05834 c 0.191002,-0.0764 0.419205,-0.067 0.507126,0.0209 0.08792,0.0879 -0.06837,0.15047 -0.347265,0.13898 -0.30824,-0.0127 -0.37092,-0.0754 -0.159861,-0.15986 z m 69.849999,0 c 0.191,-0.0764 0.41921,-0.067 0.50713,0.0209 0.0879,0.0879 -0.0684,0.15047 -0.34727,0.13898 -0.30824,-0.0127 -0.37092,-0.0754 -0.15986,-0.15986 z m -71.966666,-0.26458 c 0.191003,-0.0764 0.419206,-0.067 0.507127,0.0209 0.08792,0.0879 -0.06837,0.15047 -0.347266,0.13899 -0.308239,-0.0127 -0.370919,-0.0754 -0.159861,-0.15986 z m 73.818746,0 c 0.19101,-0.0764 0.41921,-0.067 0.50713,0.0209 0.0879,0.0879 -0.0684,0.15047 -0.34726,0.13899 -0.30824,-0.0127 -0.37092,-0.0754 -0.15987,-0.15986 z M -130.25312,-78.541963 c 0,-0.136922 0.1177,-0.321707 0.26156,-0.410607 0.14998,-0.09271 0.19433,0.01349 0.10398,0.248973 -0.17589,0.458364 -0.36554,0.542211 -0.36554,0.161634 z M 312.62562,-179.82684 c -0.32909,-0.41966 -0.31975,-0.429 0.0999,-0.0999 0.25466,0.19973 0.46302,0.40809 0.46302,0.46302 0,0.21778 -0.21728,0.0776 -0.56293,-0.36311 z m -545.04165,493.97708 c -0.32911,-0.41966 -0.31975,-0.429 0.0999,-0.0999 0.44073,0.34565 0.58089,0.56293 0.36313,0.56293 -0.0549,0 -0.2633,-0.20836 -0.46302,-0.46302 z m 703.29625,0.36311 c 0,-0.0549 0.20836,-0.26328 0.46302,-0.46302 0.41965,-0.32909 0.42899,-0.31975 0.0999,0.0999 -0.34565,0.44072 -0.56292,0.58089 -0.56292,0.36311 z M -109.1202,253.82524 c -0.32911,-0.41966 -0.31975,-0.429 0.0999,-0.0999 0.25466,0.19974 0.46302,0.4081 0.46302,0.46302 0,0.21778 -0.21728,0.0776 -0.56292,-0.36311 z m 456.70458,0.36311 c 0,-0.0549 0.20836,-0.26328 0.46302,-0.46302 0.41966,-0.32909 0.429,-0.31975 0.0999,0.0999 -0.34565,0.44072 -0.56293,0.58089 -0.56293,0.36311 z m -459.08583,-2.47978 c -0.32911,-0.41965 -0.31975,-0.42899 0.0999,-0.0999 0.44073,0.34565 0.58088,0.56292 0.36312,0.56292 -0.0549,0 -0.2633,-0.20836 -0.46302,-0.46302 z m 461.46708,0.36312 c 0,-0.0549 0.20836,-0.26329 0.46302,-0.46302 0.41966,-0.32909 0.429,-0.31975 0.0999,0.0999 -0.34565,0.44072 -0.56293,0.5809 -0.56293,0.36312 z m -464.23659,-2.87666 -0.50403,-0.59531 0.59531,0.50403 c 0.55945,0.47366 0.71576,0.68659 0.50403,0.68659 -0.0502,0 -0.3181,-0.26789 -0.59531,-0.59531 z m 467.2793,0.0661 c 0.26339,-0.29104 0.53843,-0.52917 0.61119,-0.52917 0.0728,0 -0.0832,0.23813 -0.34661,0.52917 -0.26339,0.29104 -0.53842,0.52916 -0.61118,0.52916 -0.0728,0 0.0832,-0.23812 0.3466,-0.52916 z m -471.11065,-3.63802 -0.64143,-0.72761 0.7276,0.64143 c 0.40018,0.3528 0.72761,0.68022 0.72761,0.72761 0,0.20751 -0.21426,0.0386 -0.81378,-0.64143 z m 474.94711,0.0661 c 0.34176,-0.3638 0.68093,-0.66146 0.75369,-0.66146 0.0728,0 -0.14734,0.29766 -0.48911,0.66146 -0.34176,0.3638 -0.68093,0.66146 -0.75369,0.66146 -0.0728,0 0.14735,-0.29766 0.48911,-0.66146 z M -350.89473,65.486012 c 0.0127,-0.30824 0.0754,-0.370919 0.15985,-0.159861 0.0764,0.191002 0.067,0.419205 -0.0209,0.507127 -0.0879,0.08792 -0.15046,-0.06837 -0.13897,-0.347266 z m 940.59374,0 c 0.0127,-0.30824 0.0754,-0.370919 0.15986,-0.159861 0.0764,0.191002 0.067,0.419205 -0.0209,0.507127 -0.0879,0.08792 -0.15047,-0.06837 -0.13899,-0.347266 z m -940.85832,-1.852083 c 0.0127,-0.30824 0.0754,-0.37092 0.15985,-0.159862 0.0764,0.191003 0.067,0.419206 -0.0209,0.507127 -0.0879,0.08792 -0.15045,-0.06837 -0.13896,-0.347265 z m 941.1229,0 c 0.0127,-0.30824 0.0754,-0.37092 0.15986,-0.159862 0.0764,0.191003 0.067,0.419206 -0.0209,0.507127 -0.0879,0.08792 -0.15047,-0.06837 -0.13898,-0.347265 z m -941.65207,-3.439584 c 0.0127,-0.308239 0.0754,-0.370919 0.15985,-0.159861 0.0764,0.191003 0.067,0.419206 -0.0209,0.507127 -0.0879,0.08792 -0.15046,-0.06837 -0.13897,-0.347266 z m 942.18124,0 c 0.0127,-0.308239 0.0754,-0.370919 0.15986,-0.159861 0.0764,0.191003 0.067,0.419206 -0.0209,0.507127 -0.0879,0.08792 -0.15047,-0.06837 -0.13899,-0.347266 z m -942.44582,-1.852083 c 0.0127,-0.30824 0.0754,-0.370919 0.15985,-0.159861 0.0764,0.191002 0.067,0.419205 -0.0209,0.507127 -0.0879,0.08792 -0.15045,-0.06837 -0.13896,-0.347266 z m 942.7104,0 c 0.0127,-0.30824 0.0754,-0.370919 0.15986,-0.159861 0.0764,0.191002 0.067,0.419205 -0.0209,0.507127 -0.0879,0.08792 -0.15047,-0.06837 -0.13898,-0.347266 z m -942.97499,-2.116667 c 0.0127,-0.308239 0.0754,-0.370919 0.15986,-0.159861 0.0764,0.191003 0.067,0.419206 -0.0209,0.507127 -0.0879,0.08792 -0.15045,-0.06837 -0.13897,-0.347266 z m 943.23958,0 c 0.0127,-0.308239 0.0754,-0.370919 0.15986,-0.159861 0.0764,0.191003 0.067,0.419206 -0.0209,0.507127 -0.0879,0.08792 -0.15046,-0.06837 -0.13898,-0.347266 z m -943.50416,-1.852083 c 0.0127,-0.30824 0.0754,-0.370919 0.15985,-0.159861 0.0764,0.191002 0.067,0.419205 -0.0209,0.507127 -0.0879,0.08792 -0.15046,-0.06837 -0.13897,-0.347266 z m 943.76874,0 c 0.0127,-0.30824 0.0754,-0.370919 0.15986,-0.159861 0.0764,0.191002 0.067,0.419205 -0.0209,0.507127 -0.0879,0.08792 -0.15047,-0.06837 -0.13899,-0.347266 z m -944.03332,-2.116667 c 0.0127,-0.308239 0.0754,-0.370919 0.15985,-0.159861 0.0764,0.191003 0.067,0.419206 -0.0209,0.507127 -0.0879,0.08792 -0.15045,-0.06837 -0.13896,-0.347266 z m 944.2979,0 c 0.0127,-0.308239 0.0754,-0.370919 0.15986,-0.159861 0.0764,0.191003 0.067,0.419206 -0.0209,0.507127 -0.0879,0.08792 -0.15047,-0.06837 -0.13898,-0.347266 z m -945.35624,-9.260416 c 0.0127,-0.30824 0.0754,-0.37092 0.15986,-0.159862 0.0764,0.191003 0.067,0.419206 -0.0209,0.507127 -0.0879,0.08792 -0.15045,-0.06837 -0.13897,-0.347265 z m 946.41458,0 c 0.0127,-0.30824 0.0754,-0.37092 0.15986,-0.159862 0.0764,0.191003 0.067,0.419206 -0.0209,0.507127 -0.0879,0.08792 -0.15046,-0.06837 -0.13898,-0.347265 z m -946.67916,-2.645834 c 0.0127,-0.308239 0.0754,-0.370919 0.15985,-0.159861 0.0764,0.191003 0.067,0.419206 -0.0209,0.507127 -0.0879,0.08792 -0.15046,-0.06837 -0.13897,-0.347266 z m 946.94374,0 c 0.0127,-0.308239 0.0754,-0.370919 0.15986,-0.159861 0.0764,0.191003 0.067,0.419206 -0.0209,0.507127 -0.0879,0.08792 -0.15047,-0.06837 -0.13899,-0.347266 z m -852.48749,-7.672916 c 0.0127,-0.30824 0.0754,-0.37092 0.15985,-0.159862 0.0764,0.191003 0.067,0.419206 -0.0209,0.507127 -0.0879,0.08792 -0.15046,-0.06837 -0.13897,-0.347265 z m -95.51458,-4.7625 c 0.0127,-0.30824 0.0754,-0.37092 0.15985,-0.159862 0.0764,0.191003 0.067,0.419206 -0.0209,0.507127 -0.0879,0.08792 -0.15045,-0.06837 -0.13896,-0.347265 z m 949.0604,0 c 0.0127,-0.30824 0.0754,-0.37092 0.15986,-0.159862 0.0764,0.191003 0.067,0.419206 -0.0209,0.507127 -0.0879,0.08792 -0.15047,-0.06837 -0.13898,-0.347265 z m -854.07498,-0.79375 c 0.0127,-0.30824 0.0754,-0.37092 0.15985,-0.159862 0.0764,0.191003 0.067,0.419206 -0.0209,0.507127 -0.0879,0.08792 -0.15045,-0.06837 -0.13896,-0.347265 z m -95.25001,-3.175 c 0.0127,-0.30824 0.0754,-0.37092 0.15986,-0.159862 0.0764,0.191003 0.067,0.419206 -0.0209,0.507127 -0.0879,0.08792 -0.15045,-0.06837 -0.13897,-0.347265 z m 94.98542,0 c 0.0127,-0.30824 0.0754,-0.37092 0.15985,-0.159862 0.0764,0.191003 0.067,0.419206 -0.0209,0.507127 -0.0879,0.08792 -0.15046,-0.06837 -0.13897,-0.347265 z m 854.60416,0 c 0.0127,-0.30824 0.0754,-0.37092 0.15986,-0.159862 0.0764,0.191003 0.067,0.419206 -0.0209,0.507127 -0.0879,0.08792 -0.15046,-0.06837 -0.13898,-0.347265 z M 464.28651,22.888095 c 0.0127,-0.308239 0.0754,-0.370919 0.15986,-0.159861 0.0764,0.191003 0.067,0.419206 -0.0209,0.507127 -0.0879,0.08792 -0.15047,-0.06837 -0.13899,-0.347266 z m 35.18958,-2.116666 c 0.0127,-0.30824 0.0754,-0.37092 0.15986,-0.159862 0.0764,0.191003 0.067,0.419206 -0.0209,0.507127 -0.0879,0.08792 -0.15047,-0.06837 -0.13898,-0.347265 z m -855.13332,-1.322917 c 0.0127,-0.30824 0.0754,-0.370919 0.15985,-0.159861 0.0764,0.191002 0.067,0.419205 -0.0209,0.507127 -0.0879,0.08792 -0.15046,-0.06837 -0.13897,-0.347266 z m 820.20832,0 c 0.0127,-0.30824 0.0754,-0.370919 0.15986,-0.159861 0.0764,0.191002 0.067,0.419205 -0.0209,0.507127 -0.0879,0.08792 -0.15047,-0.06837 -0.13898,-0.347266 z m 129.91042,0 c 0.0127,-0.30824 0.0754,-0.370919 0.15986,-0.159861 0.0764,0.191002 0.067,0.419205 -0.0209,0.507127 -0.0879,0.08792 -0.15047,-0.06837 -0.13899,-0.347266 z m -820.20832,-0.529167 c 0.0127,-0.308239 0.0754,-0.370919 0.15985,-0.159861 0.0764,0.191003 0.067,0.419206 -0.0209,0.507127 -0.0879,0.08792 -0.15045,-0.06837 -0.13896,-0.347266 z m 725.48749,-2.116666 c 0.0127,-0.30824 0.0754,-0.37092 0.15986,-0.159862 0.0764,0.191003 0.067,0.419206 -0.0209,0.507127 -0.0879,0.08792 -0.15046,-0.06837 -0.13898,-0.347265 z m -760.67707,-0.529167 c 0.0127,-0.30824 0.0754,-0.370919 0.15985,-0.159861 0.0764,0.191002 0.067,0.419205 -0.0209,0.507127 -0.0879,0.08792 -0.15045,-0.06837 -0.13896,-0.347266 z m 725.75207,-0.529167 c 0.0127,-0.308239 0.0754,-0.370919 0.15986,-0.159861 0.0764,0.191003 0.067,0.419206 -0.0209,0.507127 -0.0879,0.08792 -0.15046,-0.06837 -0.13898,-0.347266 z m -690.82707,-0.79375 c 0.0127,-0.308239 0.0754,-0.370919 0.15985,-0.159861 0.0764,0.191003 0.067,0.419206 -0.0209,0.507127 -0.0879,0.08792 -0.15045,-0.06837 -0.13896,-0.347266 z m -129.88953,-0.904002 c 0,-0.363802 0.06,-0.51263 0.13345,-0.330729 0.0734,0.181901 0.0734,0.479557 0,0.661459 -0.0734,0.181901 -0.13345,0.03307 -0.13345,-0.33073 z m 950.64791,0 c 0,-0.363802 0.0601,-0.51263 0.13346,-0.330729 0.0734,0.181901 0.0734,0.479557 0,0.661459 -0.0734,0.181901 -0.13346,0.03307 -0.13346,-0.33073 z m -94.72083,-2.116666 c 0,-0.363802 0.0601,-0.512631 0.13346,-0.330729 0.0734,0.181901 0.0734,0.479557 0,0.661458 -0.0734,0.181901 -0.13346,0.03307 -0.13346,-0.330729 z m -761.18664,-0.79375 c 0,-0.509323 0.0545,-0.717683 0.121,-0.463021 0.0666,0.254661 0.0666,0.67138 0,0.926042 -0.0665,0.254661 -0.121,0.0463 -0.121,-0.463021 z m 726.24074,-0.154332 c 0.0127,-0.308239 0.0754,-0.370919 0.15986,-0.159861 0.0764,0.191003 0.067,0.419206 -0.0209,0.507127 -0.0879,0.08792 -0.15047,-0.06837 -0.13899,-0.347266 z m -691.33535,-0.639418 c 0,-0.3638024 0.06,-0.5126305 0.13345,-0.330729 0.0734,0.181901 0.0734,0.479557 0,0.661458 -0.0734,0.181901 -0.13345,0.03307 -0.13345,-0.330729 z M -356.16551,7.43201 c 0,-0.3638021 0.0601,-0.5126302 0.13346,-0.3307292 0.0734,0.1819011 0.0734,0.4795573 0,0.6614584 -0.0734,0.181901 -0.13346,0.033073 -0.13346,-0.3307292 z m 951.17709,0 c 0,-0.3638021 0.0601,-0.5126302 0.13345,-0.3307292 0.0734,0.1819011 0.0734,0.4795573 0,0.6614584 -0.0734,0.181901 -0.13345,0.033073 -0.13345,-0.3307292 z M 500.31035,5.05076 c 0,-0.5093229 0.0544,-0.7176823 0.12099,-0.4630208 0.0666,0.2546614 0.0666,0.6713802 0,0.9260416 -0.0665,0.2546615 -0.12099,0.046302 -0.12099,-0.4630208 z M 465.39069,4.3893017 c 0.003,-0.5820834 0.0571,-0.7890669 0.12042,-0.4599252 0.0633,0.3291152 0.0609,0.8053652 -0.005,1.0583333 -0.0662,0.2529417 -0.118,-0.016404 -0.11506,-0.5984081 z M -261.42507,3.7278433 c 0,-0.5093229 0.0545,-0.7176823 0.12101,-0.4630208 0.0665,0.2546615 0.0665,0.6713802 0,0.9260417 -0.0666,0.2546614 -0.12101,0.046302 -0.12101,-0.4630209 z m 34.93568,-0.79375 c 0,-0.6548437 0.0516,-0.9227343 0.11466,-0.5953125 0.0631,0.3274219 0.0631,0.8632032 0,1.190625 -0.0631,0.3274219 -0.11466,0.059531 -0.11466,-0.5953125 z m -0.0107,-18.2562503 c 0,-0.509323 0.0545,-0.717682 0.121,-0.46302 0.0665,0.254661 0.0665,0.67138 0,0.926041 -0.0666,0.254662 -0.121,0.0463 -0.121,-0.463021 z m -34.91966,-0.396875 c 0.003,-0.582083 0.0571,-0.789067 0.12041,-0.459925 0.0633,0.329115 0.0609,0.805365 -0.005,1.058333 -0.0662,0.252942 -0.118,-0.0164 -0.11506,-0.598408 z m 726.79526,-0.79375 c 0.005,-0.436562 0.0647,-0.583115 0.13179,-0.325702 0.0671,0.25744 0.0627,0.614627 -0.01,0.79375 -0.0725,0.17915 -0.12734,-0.03148 -0.12197,-0.468048 z m 34.94551,-0.661458 c 0,-0.654844 0.0516,-0.922734 0.11464,-0.595312 0.0631,0.327421 0.0631,0.863203 0,1.190625 -0.0631,0.327421 -0.11464,0.05953 -0.11464,-0.595313 z m -856.48654,-2.38125 c 0,-0.363802 0.0601,-0.51263 0.13346,-0.330729 0.0734,0.181901 0.0734,0.479557 0,0.661458 -0.0734,0.181901 -0.13346,0.03307 -0.13346,-0.330729 z m 951.17709,0 c 0,-0.363802 0.0601,-0.51263 0.13345,-0.330729 0.0734,0.181901 0.0734,0.479557 0,0.661458 -0.0734,0.181901 -0.13345,0.03307 -0.13345,-0.330729 z m -821.25687,-2.778125 c 0.005,-0.436562 0.0647,-0.583115 0.13178,-0.325702 0.0671,0.257439 0.0627,0.614627 -0.01,0.79375 -0.0725,0.179149 -0.12736,-0.03148 -0.12197,-0.468048 z m 691.34645,-0.661458 c 0,-0.363802 0.0601,-0.512631 0.13346,-0.330729 0.0734,0.181901 0.0734,0.479557 0,0.661458 -0.0734,0.181901 -0.13346,0.03307 -0.13346,-0.330729 z m -726.28125,-0.264584 c 0,-0.363802 0.06,-0.51263 0.13345,-0.330729 0.0734,0.181901 0.0734,0.479557 0,0.661459 -0.0734,0.181901 -0.13345,0.03307 -0.13345,-0.33073 z m 761.20625,-0.79375 c 0,-0.363802 0.0601,-0.51263 0.13346,-0.330729 0.0734,0.181901 0.0734,0.479557 0,0.661459 -0.0734,0.181901 -0.13346,0.03307 -0.13346,-0.33073 z m -855.92708,-2.116666 c 0,-0.363802 0.06,-0.512631 0.13345,-0.330729 0.0734,0.181901 0.0734,0.479557 0,0.661458 -0.0734,0.181901 -0.13345,0.03307 -0.13345,-0.330729 z m 950.64791,0 c 0,-0.363802 0.0601,-0.512631 0.13346,-0.330729 0.0734,0.181901 0.0734,0.479557 0,0.661458 -0.0734,0.181901 -0.13346,0.03307 -0.13346,-0.330729 z m -820.75838,-1.212665 c 0.0127,-0.30824 0.0754,-0.370919 0.15985,-0.159861 0.0764,0.191002 0.067,0.419205 -0.0209,0.507127 -0.0879,0.08792 -0.15045,-0.06837 -0.13896,-0.347266 z m 690.82707,-0.529167 c 0.0127,-0.308239 0.0754,-0.370919 0.15986,-0.159861 0.0764,0.191003 0.067,0.419206 -0.0209,0.507127 -0.0879,0.08792 -0.15046,-0.06837 -0.13898,-0.347266 z m -725.75207,-0.529166 c 0.0127,-0.30824 0.0754,-0.37092 0.15985,-0.159862 0.0764,0.191003 0.067,0.419206 -0.0209,0.507127 -0.0879,0.08792 -0.15045,-0.06837 -0.13896,-0.347265 z m 760.67707,-0.529167 c 0.0127,-0.30824 0.0754,-0.37092 0.15986,-0.159861 0.0764,0.191002 0.067,0.419205 -0.0209,0.507126 -0.0879,0.08792 -0.15046,-0.06837 -0.13898,-0.347265 z m -855.39791,-2.645833 c 0.0127,-0.30824 0.0754,-0.37092 0.15985,-0.159862 0.0764,0.191003 0.067,0.419206 -0.0209,0.507127 -0.0879,0.08792 -0.15046,-0.06837 -0.13897,-0.347265 z m 950.11874,0 c 0.0127,-0.30824 0.0754,-0.37092 0.15986,-0.159862 0.0764,0.191003 0.067,0.419206 -0.0209,0.507127 -0.0879,0.08792 -0.15047,-0.06837 -0.13899,-0.347265 z m -949.85416,-4.497917 c 0.0127,-0.30824 0.0754,-0.37092 0.15986,-0.159861 0.0764,0.191002 0.067,0.419205 -0.0209,0.507127 -0.0879,0.08792 -0.15045,-0.06837 -0.13897,-0.347266 z m 94.98542,0 c 0.0127,-0.30824 0.0754,-0.37092 0.15985,-0.159861 0.0764,0.191002 0.067,0.419205 -0.0209,0.507127 -0.0879,0.08792 -0.15046,-0.06837 -0.13897,-0.347266 z m 854.60416,0 c 0.0127,-0.30824 0.0754,-0.37092 0.15986,-0.159861 0.0764,0.191002 0.067,0.419205 -0.0209,0.507127 -0.0879,0.08792 -0.15046,-0.06837 -0.13898,-0.347266 z m -94.98542,-0.529167 c 0.0127,-0.308239 0.0754,-0.370919 0.15986,-0.159861 0.0764,0.191003 0.067,0.419206 -0.0209,0.507127 -0.0879,0.08792 -0.15047,-0.06837 -0.13899,-0.347266 z m -759.35415,-2.645833 c 0.0127,-0.30824 0.0754,-0.370919 0.15985,-0.159861 0.0764,0.191002 0.067,0.419205 -0.0209,0.507127 -0.0879,0.08792 -0.15045,-0.06837 -0.13896,-0.347266 z m -94.98542,-0.79375 c 0.0127,-0.30824 0.0754,-0.37092 0.15985,-0.159861 0.0764,0.191002 0.067,0.419205 -0.0209,0.507127 -0.0879,0.08792 -0.15045,-0.06837 -0.13896,-0.347266 z m 949.0604,0 c 0.0127,-0.30824 0.0754,-0.37092 0.15986,-0.159861 0.0764,0.191002 0.067,0.419205 -0.0209,0.507127 -0.0879,0.08792 -0.15047,-0.06837 -0.13898,-0.347266 z m -853.8104,-2.116667 c 0.0127,-0.308239 0.0754,-0.370919 0.15985,-0.159861 0.0764,0.191003 0.067,0.419206 -0.0209,0.507127 -0.0879,0.08792 -0.15045,-0.06837 -0.13896,-0.347266 z m 0.26458,-2.645833 c 0.0127,-0.30824 0.0754,-0.37092 0.15985,-0.159861 0.0764,0.191002 0.067,0.419205 -0.0209,0.507126 -0.0879,0.08792 -0.15046,-0.06837 -0.13897,-0.347265 z m -94.45625,-7.672917 c 0.0127,-0.308239 0.0754,-0.370919 0.15985,-0.159861 0.0764,0.191003 0.067,0.419206 -0.0209,0.507127 -0.0879,0.08792 -0.15046,-0.06837 -0.13897,-0.347266 z m 946.94374,0 c 0.0127,-0.308239 0.0754,-0.370919 0.15986,-0.159861 0.0764,0.191003 0.067,0.419206 -0.0209,0.507127 -0.0879,0.08792 -0.15047,-0.06837 -0.13899,-0.347266 z m -946.67916,-2.645833 c 0.0127,-0.30824 0.0754,-0.370919 0.15986,-0.159861 0.0764,0.191002 0.067,0.419205 -0.0209,0.507127 -0.0879,0.08792 -0.15045,-0.06837 -0.13897,-0.347266 z m 946.41458,0 c 0.0127,-0.30824 0.0754,-0.370919 0.15986,-0.159861 0.0764,0.191002 0.067,0.419205 -0.0209,0.507127 -0.0879,0.08792 -0.15046,-0.06837 -0.13898,-0.347266 z m -945.35624,-9.260417 c 0.0127,-0.308239 0.0754,-0.370919 0.15985,-0.159861 0.0764,0.191003 0.067,0.419206 -0.0209,0.507127 -0.0879,0.08792 -0.15045,-0.06837 -0.13896,-0.347266 z m 944.2979,0 c 0.0127,-0.308239 0.0754,-0.370919 0.15986,-0.159861 0.0764,0.191003 0.067,0.419206 -0.0209,0.507127 -0.0879,0.08792 -0.15047,-0.06837 -0.13898,-0.347266 z m -944.03332,-2.116666 c 0.0127,-0.30824 0.0754,-0.37092 0.15985,-0.159862 0.0764,0.191003 0.067,0.419206 -0.0209,0.507127 -0.0879,0.08792 -0.15046,-0.06837 -0.13897,-0.347265 z m 943.76874,0 c 0.0127,-0.30824 0.0754,-0.37092 0.15986,-0.159862 0.0764,0.191003 0.067,0.419206 -0.0209,0.507127 -0.0879,0.08792 -0.15047,-0.06837 -0.13899,-0.347265 z m -943.50416,-1.852084 c 0.0127,-0.308239 0.0754,-0.370919 0.15986,-0.159861 0.0764,0.191003 0.067,0.419206 -0.0209,0.507127 -0.0879,0.08792 -0.15045,-0.06837 -0.13897,-0.347266 z m 943.23958,0 c 0.0127,-0.308239 0.0754,-0.370919 0.15986,-0.159861 0.0764,0.191003 0.067,0.419206 -0.0209,0.507127 -0.0879,0.08792 -0.15046,-0.06837 -0.13898,-0.347266 z m -942.97499,-2.116666 c 0.0127,-0.30824 0.0754,-0.37092 0.15985,-0.159862 0.0764,0.191003 0.067,0.419206 -0.0209,0.507127 -0.0879,0.08792 -0.15045,-0.06837 -0.13896,-0.347265 z m 942.7104,0 c 0.0127,-0.30824 0.0754,-0.37092 0.15986,-0.159862 0.0764,0.191003 0.067,0.419206 -0.0209,0.507127 -0.0879,0.08792 -0.15047,-0.06837 -0.13898,-0.347265 z m -942.44582,-1.852084 c 0.0127,-0.308239 0.0754,-0.370919 0.15985,-0.159861 0.0764,0.191003 0.067,0.419206 -0.0209,0.507127 -0.0879,0.08792 -0.15046,-0.06837 -0.13897,-0.347266 z m 942.18124,0 c 0.0127,-0.308239 0.0754,-0.370919 0.15986,-0.159861 0.0764,0.191003 0.067,0.419206 -0.0209,0.507127 -0.0879,0.08792 -0.15047,-0.06837 -0.13899,-0.347266 z m -941.65207,-3.439583 c 0.0127,-0.30824 0.0754,-0.37092 0.15985,-0.159861 0.0764,0.191002 0.067,0.419205 -0.0209,0.507127 -0.0879,0.08792 -0.15045,-0.06837 -0.13896,-0.347266 z m 941.1229,0 c 0.0127,-0.30824 0.0754,-0.37092 0.15986,-0.159861 0.0764,0.191002 0.067,0.419205 -0.0209,0.507127 -0.0879,0.08792 -0.15047,-0.06837 -0.13898,-0.347266 z m -940.85832,-1.852083 c 0.0127,-0.30824 0.0754,-0.37092 0.15985,-0.159862 0.0764,0.191003 0.067,0.419206 -0.0209,0.507127 -0.0879,0.08792 -0.15046,-0.06837 -0.13897,-0.347265 z m 940.59374,0 c 0.0127,-0.30824 0.0754,-0.37092 0.15986,-0.159862 0.0764,0.191003 0.067,0.419206 -0.0209,0.507127 -0.0879,0.08792 -0.15047,-0.06837 -0.13899,-0.347265 z M -138.71978,-236.61372 c 0,-0.0549 0.20836,-0.2633 0.46302,-0.46302 0.41964,-0.32911 0.429,-0.31975 0.0999,0.0999 -0.34564,0.44073 -0.56291,0.58088 -0.56291,0.36312 z m 513.78707,-2.74437 c -0.32909,-0.41965 -0.31975,-0.42901 0.0999,-0.0999 0.44071,0.34564 0.58089,0.56292 0.36311,0.56292 -0.0549,0 -0.26329,-0.20836 -0.46302,-0.46302 z m -511.40582,0.0985 c 0,-0.0549 0.20836,-0.2633 0.46302,-0.46302 0.41964,-0.32911 0.429,-0.31975 0.0999,0.0999 -0.34564,0.44073 -0.56291,0.58089 -0.56291,0.36313 z m 508.10715,-3.67042 -0.50403,-0.59531 0.59531,0.50403 c 0.55944,0.47366 0.71575,0.68659 0.50404,0.68659 -0.0502,0 -0.31811,-0.26789 -0.59532,-0.59531 z m -504.1384,-0.56292 c 0,-0.0549 0.20836,-0.2633 0.46302,-0.46302 0.41964,-0.3291 0.429,-0.31975 0.0999,0.0999 -0.34564,0.44073 -0.56291,0.58089 -0.56291,0.36312 z m 496.7497,-7.11 -2.37574,-2.44739 2.44739,2.37573 c 1.34607,1.30665 2.4474,2.40798 2.4474,2.4474 0,0.1921 -0.31253,-0.10265 -2.51905,-2.37574 z m 45.34779,-2.24895 c -0.32909,-0.41965 -0.31975,-0.42901 0.0999,-0.0999 0.44072,0.34564 0.5809,0.56292 0.36312,0.56292 -0.0549,0 -0.26329,-0.20836 -0.46302,-0.46302 z m -577.28708,-3.87021 c 0,-0.0549 0.20836,-0.2633 0.46302,-0.46302 0.41965,-0.32911 0.42901,-0.31975 0.0999,0.0999 -0.34564,0.44073 -0.56292,0.58089 -0.56292,0.36313 z m 49.2125,-0.82615 c 0.34178,-0.3638 0.68094,-0.66146 0.7537,-0.66146 0.0728,0 -0.14734,0.29766 -0.48911,0.66146 -0.34178,0.3638 -0.68094,0.66146 -0.7537,0.66146 -0.0728,0 0.14734,-0.29766 0.48911,-0.66146 z m 474.50508,-0.99219 -0.50404,-0.59531 0.59532,0.50403 c 0.55943,0.47366 0.71575,0.6866 0.50403,0.6866 -0.0502,0 -0.31811,-0.26789 -0.59531,-0.59532 z m 48.27783,-0.39687 c -0.32909,-0.41965 -0.31975,-0.429 0.0999,-0.0999 0.44071,0.34565 0.58089,0.56292 0.36311,0.56292 -0.0549,0 -0.26329,-0.20836 -0.46302,-0.46302 z m -2.11667,-2.38125 c -0.32909,-0.41965 -0.31975,-0.429 0.0999,-0.0999 0.25466,0.19972 0.46302,0.40808 0.46302,0.46302 0,0.21777 -0.21728,0.0776 -0.56293,-0.36312 z m -516.69749,0.0985 c 0,-0.0549 0.20836,-0.2633 0.46302,-0.46302 0.41965,-0.32911 0.42901,-0.31975 0.0999,0.0999 -0.34564,0.44073 -0.56292,0.58088 -0.56292,0.36312 z m -48.68333,-0.52917 c 0,-0.0549 0.20836,-0.2633 0.46302,-0.46302 0.41965,-0.3291 0.429,-0.31975 0.0999,0.0999 -0.34565,0.44073 -0.56292,0.58089 -0.56292,0.36312 z m 515.37457,-0.36312 c -0.32909,-0.41965 -0.31975,-0.429 0.0999,-0.0999 0.25466,0.19972 0.46302,0.40808 0.46302,0.46302 0,0.21777 -0.21728,0.0776 -0.56293,-0.36312 z m -464.0454,-1.48896 c 0,-0.0549 0.20836,-0.2633 0.46302,-0.46302 0.41964,-0.32911 0.429,-0.31975 0.0999,0.0999 -0.34564,0.44073 -0.56291,0.58088 -0.56291,0.36312 z m 511.28215,-0.76 -0.50403,-0.59531 0.59531,0.50403 c 0.32743,0.27721 0.59532,0.5451 0.59532,0.59531 0,0.21173 -0.21294,0.0554 -0.6866,-0.50403 z m -49.88258,-0.13229 c -0.32909,-0.41965 -0.31975,-0.429 0.0999,-0.0999 0.25466,0.19972 0.46302,0.40808 0.46302,0.46302 0,0.21777 -0.21728,0.0776 -0.56293,-0.36312 z m -510.08291,-0.16604 c 0,-0.0549 0.20836,-0.2633 0.46302,-0.46302 0.41965,-0.32911 0.42901,-0.31975 0.0999,0.0999 -0.34564,0.44073 -0.56292,0.58089 -0.56292,0.36313 z m 505.84958,-3.53813 c -0.32909,-0.41964 -0.31975,-0.429 0.0999,-0.0999 0.25466,0.19972 0.46302,0.40808 0.46302,0.46302 0,0.21776 -0.21727,0.0776 -0.56292,-0.36313 z m 50.28456,-0.26458 -0.64143,-0.7276 0.72761,0.64143 c 0.40018,0.35279 0.7276,0.68021 0.7276,0.7276 0,0.20751 -0.21426,0.0386 -0.81378,-0.64143 z m -551.63622,-0.99219 c 0.34178,-0.3638 0.68094,-0.66146 0.7537,-0.66146 0.0728,0 -0.14734,0.29766 -0.48912,0.66146 -0.34177,0.3638 -0.68094,0.66146 -0.7537,0.66146 -0.0728,0 0.14734,-0.29766 0.48912,-0.66146 z m 11.1125,-11.063 c 0,-0.0455 0.38695,-0.43249 0.8599,-0.85989 l 0.85989,-0.77711 -0.7771,0.8599 c -0.72437,0.80154 -0.94269,0.98151 -0.94269,0.7771 z m 526.3719,-2.10002 -0.77711,-0.85989 0.8599,0.7771 c 0.80155,0.72437 0.98152,0.94269 0.77711,0.94269 -0.0455,0 -0.43249,-0.38696 -0.8599,-0.8599 z m -521.21252,-2.84427 c 0.26339,-0.29104 0.53842,-0.52917 0.61118,-0.52917 0.0728,0 -0.0832,0.23813 -0.3466,0.52917 -0.26339,0.29104 -0.53842,0.52917 -0.61118,0.52917 -0.0728,0 0.0832,-0.23813 0.3466,-0.52917 z m 517.35894,-0.7276 c -0.32909,-0.41965 -0.31975,-0.42901 0.0999,-0.0999 0.25466,0.19972 0.46302,0.40808 0.46302,0.46302 0,0.21776 -0.21728,0.0776 -0.56293,-0.36312 z m -514.31624,-2.01813 c 0,-0.0549 0.20836,-0.2633 0.46302,-0.46302 0.41965,-0.32911 0.42901,-0.31975 0.0999,0.0999 -0.34564,0.44073 -0.56292,0.58088 -0.56292,0.36312 z m 511.14124,-0.89229 c -0.32909,-0.41965 -0.31975,-0.429 0.0999,-0.0999 0.44072,0.34565 0.58089,0.56292 0.36311,0.56292 -0.0549,0 -0.26328,-0.20836 -0.46302,-0.46302 z m -607.18499,-36.94313 c 0,-0.0549 0.20836,-0.2633 0.46302,-0.46302 0.41965,-0.3291 0.42901,-0.31975 0.0999,0.0999 -0.34564,0.44073 -0.56292,0.58089 -0.56292,0.36312 z m 703.75791,-0.36312 c -0.32909,-0.41965 -0.31975,-0.429 0.0999,-0.0999 0.25466,0.19972 0.46302,0.40808 0.46302,0.46302 0,0.21777 -0.21728,0.0776 -0.56293,-0.36312 z m -700.84749,-2.81188 c 0,-0.0549 0.20836,-0.2633 0.46302,-0.46302 0.41965,-0.3291 0.429,-0.31975 0.0999,0.0999 -0.34565,0.44073 -0.56292,0.58089 -0.56292,0.36312 z m 697.93707,-0.36312 c -0.32909,-0.41965 -0.31975,-0.429 0.0999,-0.0999 0.44072,0.34565 0.58089,0.56292 0.36311,0.56292 -0.0549,0 -0.26328,-0.20836 -0.46302,-0.46302 z m -693.70374,-4.13479 c 0,-0.0549 0.20836,-0.2633 0.46302,-0.46302 0.41965,-0.32911 0.42901,-0.31975 0.0999,0.0999 -0.34564,0.44073 -0.56292,0.58089 -0.56292,0.36313 z m 689.47041,-0.36313 c -0.32909,-0.41964 -0.31975,-0.429 0.0999,-0.0999 0.25466,0.19972 0.46302,0.40808 0.46302,0.46302 0,0.21776 -0.21728,0.0776 -0.56293,-0.36313 z m -672.80166,-16.30562 c 0,-0.0549 0.20836,-0.2633 0.46302,-0.46302 0.41965,-0.32911 0.42901,-0.31975 0.0999,0.0999 -0.34564,0.44073 -0.56292,0.58089 -0.56292,0.36313 z m 656.13291,-0.36313 c -0.32909,-0.41964 -0.31975,-0.429 0.0999,-0.0999 0.44071,0.34564 0.58089,0.56291 0.36311,0.56291 -0.0549,0 -0.26329,-0.20836 -0.46302,-0.46302 z m -651.63499,-3.87021 c 0,-0.0549 0.20836,-0.2633 0.46302,-0.46302 0.41965,-0.3291 0.429,-0.31975 0.0999,0.0999 -0.34565,0.44073 -0.56292,0.58089 -0.56292,0.36312 z m 647.13707,-0.36312 c -0.32909,-0.41965 -0.31975,-0.429 0.0999,-0.0999 0.44072,0.34565 0.58089,0.56292 0.36311,0.56292 -0.0549,0 -0.26328,-0.20836 -0.46302,-0.46302 z m -643.96207,-2.54729 c 0,-0.0549 0.20836,-0.2633 0.46302,-0.46302 0.41965,-0.32911 0.429,-0.31975 0.0999,0.0999 -0.34565,0.44073 -0.56292,0.58089 -0.56292,0.36313 z m 640.78707,-0.36313 c -0.32909,-0.41964 -0.31975,-0.429 0.0999,-0.0999 0.44072,0.34564 0.58089,0.56291 0.36311,0.56291 -0.0549,0 -0.26328,-0.20836 -0.46302,-0.46302 z M 47.761857,-476.40706 c 0.191003,-0.0764 0.419206,-0.067 0.507127,0.0209 0.08792,0.0879 -0.06837,0.15046 -0.347265,0.13897 -0.30824,-0.0127 -0.37092,-0.0754 -0.159862,-0.15985 z m 143.139583,0 c 0.191,-0.0764 0.41921,-0.067 0.50713,0.0209 0.0879,0.0879 -0.0684,0.15046 -0.34727,0.13897 -0.30824,-0.0127 -0.37092,-0.0754 -0.15986,-0.15985 z m -141.287499,-0.26459 c 0.191002,-0.0764 0.419205,-0.067 0.507127,0.0209 0.08792,0.0879 -0.06837,0.15045 -0.347266,0.13897 -0.30824,-0.0127 -0.37092,-0.0754 -0.159861,-0.15986 z m 139.435419,0 c 0.191,-0.0764 0.4192,-0.067 0.50712,0.0209 0.0879,0.0879 -0.0684,0.15045 -0.34726,0.13897 -0.30824,-0.0127 -0.37092,-0.0754 -0.15986,-0.15986 z m -135.995836,-0.52916 c 0.191003,-0.0764 0.419206,-0.067 0.507127,0.0209 0.08792,0.0879 -0.06837,0.15046 -0.347266,0.13897 -0.308239,-0.0127 -0.370919,-0.0754 -0.159861,-0.15985 z m 132.556246,0 c 0.19101,-0.0764 0.41921,-0.067 0.50713,0.0209 0.0879,0.0879 -0.0684,0.15046 -0.34726,0.13897 -0.30824,-0.0127 -0.37092,-0.0754 -0.15987,-0.15985 z M 54.905607,-477.4654 c 0.191003,-0.0764 0.419206,-0.067 0.507127,0.0209 0.08792,0.0879 -0.06837,0.15045 -0.347265,0.13897 -0.30824,-0.0127 -0.37092,-0.0754 -0.159862,-0.15986 z m 128.852083,0 c 0.191,-0.0764 0.41921,-0.067 0.50713,0.0209 0.0879,0.0879 -0.0684,0.15045 -0.34727,0.13897 -0.30824,-0.0127 -0.37092,-0.0754 -0.15986,-0.15986 z m -126.735416,-0.26458 c 0.191003,-0.0764 0.419206,-0.067 0.507127,0.0209 0.08792,0.0879 -0.06837,0.15045 -0.347266,0.13896 -0.308239,-0.0127 -0.370919,-0.0754 -0.159861,-0.15985 z m 124.618746,0 c 0.19101,-0.0764 0.41921,-0.067 0.50713,0.0209 0.0879,0.0879 -0.0684,0.15045 -0.34726,0.13896 -0.30824,-0.0127 -0.37092,-0.0754 -0.15987,-0.15985 z m -122.766663,-0.26458 c 0.191003,-0.0764 0.419206,-0.067 0.507127,0.0209 0.08792,0.0879 -0.06837,0.15046 -0.347265,0.13897 -0.30824,-0.0127 -0.37092,-0.0754 -0.159862,-0.15985 z m 120.914583,0 c 0.191,-0.0764 0.41921,-0.067 0.50713,0.0209 0.0879,0.0879 -0.0684,0.15046 -0.34727,0.13897 -0.30824,-0.0127 -0.37092,-0.0754 -0.15986,-0.15985 z m -118.797916,-0.26459 c 0.191003,-0.0764 0.419206,-0.067 0.507127,0.0209 0.08792,0.0879 -0.06837,0.15045 -0.347266,0.13897 -0.308239,-0.0127 -0.370919,-0.0754 -0.159861,-0.15986 z m 116.681246,0 c 0.19101,-0.0764 0.41921,-0.067 0.50713,0.0209 0.0879,0.0879 -0.0684,0.15045 -0.34726,0.13897 -0.30824,-0.0127 -0.37092,-0.0754 -0.15987,-0.15986 z m -107.420829,-1.05833 c 0.191002,-0.0764 0.419205,-0.067 0.507127,0.0209 0.08792,0.0879 -0.06837,0.15045 -0.347266,0.13896 -0.30824,-0.0127 -0.370919,-0.0754 -0.159861,-0.15985 z m 98.160419,0 c 0.191,-0.0764 0.4192,-0.067 0.50712,0.0209 0.0879,0.0879 -0.0684,0.15045 -0.34726,0.13896 -0.30824,-0.0127 -0.37092,-0.0754 -0.15986,-0.15985 z m -95.514586,-0.26458 c 0.191003,-0.0764 0.419206,-0.067 0.507127,0.0209 0.08792,0.0879 -0.06837,0.15046 -0.347266,0.13897 -0.308239,-0.0127 -0.370919,-0.0754 -0.159861,-0.15985 z m 92.868746,0 c 0.19101,-0.0764 0.41921,-0.067 0.50713,0.0209 0.0879,0.0879 -0.0684,0.15046 -0.34726,0.13897 -0.30824,-0.0127 -0.37092,-0.0754 -0.15987,-0.15985 z m -80.433329,-1.05834 c 0.191002,-0.0764 0.419205,-0.067 0.507127,0.0209 0.08792,0.0879 -0.06837,0.15045 -0.347266,0.13897 -0.30824,-0.0127 -0.37092,-0.0754 -0.159861,-0.15986 z m 67.997919,0 c 0.191,-0.0764 0.4192,-0.067 0.50712,0.0209 0.0879,0.0879 -0.0684,0.15045 -0.34726,0.13897 -0.30824,-0.0127 -0.37092,-0.0754 -0.15986,-0.15986 z m -64.029169,-0.26458 c 0.191002,-0.0764 0.419205,-0.067 0.507127,0.0209 0.08792,0.0879 -0.06837,0.15045 -0.347266,0.13896 -0.30824,-0.0127 -0.37092,-0.0754 -0.159861,-0.15985 z m 60.060419,0 c 0.191,-0.0764 0.4192,-0.067 0.50712,0.0209 0.0879,0.0879 -0.0684,0.15045 -0.34726,0.13896 -0.30824,-0.0127 -0.37092,-0.0754 -0.15986,-0.15985 z m -55.562503,-0.26458 c 0.191003,-0.0764 0.419206,-0.067 0.507127,0.0209 0.08792,0.0879 -0.06837,0.15046 -0.347265,0.13897 -0.30824,-0.0127 -0.37092,-0.0754 -0.159862,-0.15985 z m 51.064583,0 c 0.191,-0.0764 0.41921,-0.067 0.50713,0.0209 0.0879,0.0879 -0.0684,0.15046 -0.34727,0.13897 -0.30824,-0.0127 -0.37092,-0.0754 -0.15986,-0.15985 z m -45.789452,-0.25908 c 0.181901,-0.0734 0.479557,-0.0734 0.661458,0 0.181901,0.0734 0.03307,0.13346 -0.330729,0.13346 -0.363802,0 -0.512631,-0.0601 -0.330729,-0.13346 z m 40.216662,0 c 0.18191,-0.0734 0.47956,-0.0734 0.66146,0 0.1819,0.0734 0.0331,0.13346 -0.33073,0.13346 -0.3638,0 -0.51263,-0.0601 -0.33073,-0.13346 z m -33.60208,-0.26458 c 0.1819,-0.0734 0.47956,-0.0734 0.66146,0 0.1819,0.0734 0.0331,0.13345 -0.33073,0.13345 -0.3638,0 -0.51263,-0.06 -0.33073,-0.13345 z m 26.9875,0 c 0.1819,-0.0734 0.47956,-0.0734 0.66146,0 0.1819,0.0734 0.0331,0.13345 -0.33073,0.13345 -0.3638,0 -0.51263,-0.06 -0.33073,-0.13345 z"
         id="path273" />
      <path
         style="fill:#000000;stroke-width:0.264583"
         d="m 105.09376,469.49929 c -0.87313,-0.051 -4.32594,-0.21929 -7.672918,-0.37405 -17.268349,-0.7984 -33.445239,-2.45411 -51.578061,-5.27902 -61.846274,-9.63506 -120.946862,-31.35606 -174.686931,-64.20191 -50.45206,-30.83623 -95.00203,-71.1912 -130.96541,-118.63313 -38.42229,-50.68568 -66.74204,-109.8304 -82.09389,-171.45 -6.64804,-26.684026 -11.23562,-55.367135 -13.09726,-81.888545 -0.90989,-12.962467 -1.07428,-18.1247256 -1.07428,-33.734375 0,-18.842858 0.4821,-29.25572 2.13761,-46.169792 5.29497,-54.097868 20.01766,-107.588848 43.03845,-156.368748 29.02519,-61.50292 70.26641,-115.50298 121.77602,-159.45004 55.63424,-47.4661 122.310527,-81.81353 193.0135433,-99.42842 30.7003187,-7.64866 59.6002267,-11.92181 93.5302087,-13.82941 8.094368,-0.45508 36.091048,-0.45508 44.185418,0 19.66582,1.10565 33.79552,2.56811 51.57806,5.33846 61.84627,9.63506 120.94686,31.35603 174.68694,64.2019 50.45204,30.83624 95.00203,71.1912 130.96539,118.63313 38.42231,50.68568 66.74204,109.8304 82.09391,171.45 6.64803,26.684026 11.23561,55.367135 13.09724,81.888545 0.90991,12.962467 1.07429,18.124726 1.07429,33.734375 0,18.842858 -0.4821,29.25572 -2.13762,46.169792 -5.29495,54.097872 -20.01763,107.588848 -43.03845,156.368748 -29.02519,61.50293 -70.2664,115.50298 -121.77601,159.45004 -55.63423,47.46611 -122.31053,81.81353 -193.01354,99.42843 -30.44929,7.58611 -58.68826,11.78621 -92.73646,13.7931 -4.54634,0.26797 -33.98364,0.54485 -37.30625,0.35092 z m 35.32187,-95.07699 c 15.86461,-1.00214 29.74684,-2.57765 43.39167,-4.92459 63.13403,-10.85919 121.82488,-37.05058 172.41486,-76.94192 l 1.38686,-1.09357 0.0148,-23.25365 0.0148,-23.25365 -2.18327,2.08698 c -1.20078,1.14785 -3.73086,3.46581 -5.62239,5.15105 -56.14681,50.02315 -126.985,80.43468 -201.74434,86.61077 -10.71203,0.88495 -15.31689,1.05497 -28.575,1.05497 -16.04836,0 -24.699176,-0.46641 -39.290629,-2.11833 -57.874694,-6.55207 -114.015626,-28.09486 -161.528125,-61.98272 -12.064085,-8.6046 -26.023556,-20.01753 -35.122996,-28.71574 l -2.18336,-2.08698 0.0148,23.25365 0.0148,23.25365 1.38687,1.09357 c 50.844119,40.09173 109.9634387,66.38499 173.340884,77.09318 16.579162,2.8012 30.460288,4.2068 50.667706,5.13062 3.96468,0.18127 29.34931,-0.0887 33.60209,-0.35729 z m -0.26458,-58.60548 c 70.011,-4.797 134.67445,-30.88812 187.85417,-75.79746 13.77868,-11.63585 28.89292,-26.96739 40.44754,-41.02902 40.67897,-49.50521 65.55105,-109.287756 71.9909,-173.037497 1.1661,-11.543347 1.43539,-17.5496534 1.43539,-32.014583 0,-14.46493 -0.26929,-20.471236 -1.43539,-32.014583 -6.29438,-62.309777 -30.37782,-121.255317 -69.40087,-169.862497 -13.49602,-16.81065 -30.00155,-33.52391 -46.47716,-47.06212 -49.50521,-40.67899 -109.28776,-65.55107 -173.0375,-71.99092 -11.54334,-1.16608 -17.54965,-1.43537 -32.01458,-1.43537 -14.46493,0 -20.471236,0.26929 -32.014583,1.43537 -69.984038,7.06963 -135.090377,36.34765 -186.795834,84.00125 -5.259993,4.8478 -16.333493,16.05005 -20.917933,21.16116 -46.05983,51.35121 -74.27717,115.2048 -81.20177,183.753127 -1.16608,11.543347 -1.43537,17.549653 -1.43537,32.014583 0,14.4649296 0.26929,20.471236 1.43537,32.014583 7.06963,69.984038 36.34765,135.090377 84.00125,186.795837 4.8478,5.25999 16.05005,16.33349 21.161162,20.91793 56.583156,50.75266 127.829072,79.57539 204.258338,82.63324 5.46835,0.21878 26.5209,-0.0975 32.14687,-0.48303 z M 109.1948,279.26678 c -19.453516,-1.05079 -31.50706,-2.50531 -46.963542,-5.66714 -44.904051,-9.1857 -87.908712,-29.57282 -123.03125,-58.32517 -14.1986,-11.62341 -29.399256,-26.82407 -41.022658,-41.02267 -28.75236,-35.12254 -49.13949,-78.127197 -58.32519,-123.031248 -4.02832,-19.692329 -5.67834,-36.337505 -5.67834,-57.282292 0,-20.944787 1.65002,-37.589963 5.67834,-57.282292 9.1857,-44.904048 29.57283,-87.908708 58.32519,-123.031248 11.623402,-14.1986 26.824058,-29.39926 41.022658,-41.02266 35.122538,-28.75236 78.127199,-49.13949 123.03125,-58.32519 19.692329,-4.02832 36.337505,-5.67834 57.282292,-5.67834 20.94479,0 37.58996,1.65002 57.28229,5.67834 44.90405,9.1857 87.90871,29.57283 123.03125,58.32519 14.1986,11.6234 29.39926,26.82406 41.02267,41.02266 28.75235,35.12254 49.13947,78.1272 58.32517,123.031248 4.02834,19.692329 5.67836,36.337505 5.67836,57.282292 0,14.7997598 -0.45009,22.374304 -2.12236,35.71875 -6.14921,49.069202 -25.18322,96.09227 -54.88776,135.59896 -8.80052,11.70456 -15.42034,19.28789 -26.57218,30.43973 -14.01014,14.01014 -26.35755,24.25417 -41.68452,34.58355 -42.90039,28.91206 -89.93376,44.96507 -142.47813,48.62934 -3.91827,0.27326 -24.57812,0.53837 -27.91354,0.35819 z M 107.87188,133.9687 V 14.178329 L 101.9849,4.0267696 96.097925,-6.1247637 -7.43565,-65.889085 c -56.943466,-32.870378 -103.61598,-59.757895 -103.71667,-59.750035 -0.18667,0.0145 -3.55164,6.71153 -5.1776,10.30446 -0.49392,1.09141 -1.20931,2.67251 -1.58978,3.51356 -0.38046,0.84106 -0.69175,1.58168 -0.69175,1.64582 0,0.10329 -0.60172,1.49077 -1.72769,3.98375 -1.14782,2.5414 -2.24106,5.23465 -2.24106,5.52093 0,0.18132 -0.4794,1.507885 -1.06532,2.947906 -1.21582,2.988125 -5.01932,14.226805 -5.68306,16.792496 -0.24347,0.941149 -0.57064,1.865974 -0.72703,2.055178 -0.20687,0.250295 -0.18241,0.43942 0.0898,0.69424 0.29748,0.278474 47.080095,27.332199 115.467902,66.773478 3.63802,2.0981455 7.3646238,4.2475147 8.2812992,4.7763639 1.1550915,0.6663531 1.8532475,1.2871185 2.274279,2.022131 0.5917142,1.0329598 4.87553001,8.4606077 6.7155219,11.6439421 0.5046662,0.873125 1.1276541,1.9446875 1.3844058,2.38125 0.2567517,0.4365625 1.1162506,1.924844 1.9099742,3.307292 0.79375,1.382448 2.3721483,4.120885 3.5075812,6.085416 1.1354327,1.964532 2.9224557,5.060157 3.9711577,6.879167 1.048703,1.81901 3.01199,5.212292 4.36282,7.540625 2.932007,5.053648 9.085025,15.708418 9.931612,17.197917 0.330862,0.582083 1.224412,2.129896 1.985725,3.439583 0.761285,1.309688 1.591521,2.738437 1.844939,3.175 0.253444,0.436563 1.348449,2.341562 2.433373,4.233333 1.084898,1.891771 3.557164,6.178021 5.493888,9.525 1.936723,3.34698 4.411583,7.633229 5.499682,9.525 1.088099,1.891771 2.186464,3.796771 2.440781,4.233334 0.956628,1.642136 3.455353,5.967809 5.884201,10.186458 1.382422,2.401094 2.768415,4.782344 3.080015,5.29167 l 0.566552,0.92604 v 72.65405 72.65403 l 2.315104,0.57063 c 2.189956,0.53977 3.026913,0.71977 8.135938,1.74985 1.164166,0.23471 3.128698,0.66026 4.365625,0.9457 1.236927,0.28543 3.141927,0.63976 4.233333,0.7874 1.091406,0.14763 2.639219,0.38907 3.439583,0.53652 0.800365,0.14748 3.41974,0.50107 5.820834,0.78576 2.401093,0.28472 5.258593,0.63277 6.35,0.77348 1.091406,0.14071 4.008437,0.38754 6.482291,0.54851 2.473853,0.16094 5.331353,0.38909 6.350003,0.50702 1.01864,0.1179 2.1795,0.23003 2.57968,0.24916 l 0.72761,0.0348 V 133.9687 Z m 30.95625,119.11674 c 3.27422,-0.22286 6.8461,-0.50914 7.9375,-0.63619 1.09141,-0.12703 3.23453,-0.37449 4.7625,-0.54986 1.52797,-0.17539 3.79016,-0.48384 5.02709,-0.68543 8.04047,-1.31045 10.55174,-1.74739 13.49375,-2.34775 1.81901,-0.37121 4.20026,-0.84961 5.29166,-1.06307 1.09141,-0.21347 2.57969,-0.56584 3.30729,-0.78304 0.72761,-0.21717 1.73964,-0.49397 2.24896,-0.61507 l 0.92605,-0.22019 0.13229,-72.74362 0.13229,-72.74358 3.9389,-6.74688 c 2.16641,-3.710781 6.37982,-10.973594 9.36316,-16.139583 2.98333,-5.16599 6.31965,-10.940521 7.41402,-12.832292 1.09437,-1.891771 2.847,-4.927865 3.89475,-6.746875 1.04775,-1.81901 2.59471,-4.497917 3.4377,-5.953125 1.69497,-2.925921 4.72363,-8.171524 6.95074,-12.038542 0.79615,-1.382448 1.65743,-2.870729 1.91391,-3.307291 0.25649,-0.436563 1.39147,-2.401094 2.52214,-4.365625 3.83514,-6.663399 4.79526,-8.329084 6.78673,-11.773959 1.6887,-2.921158 4.92609,-8.530484 6.56621,-11.377083 0.25154,-0.4365625 1.08024,-1.8653125 1.84153,-3.175 0.76131,-1.3096875 1.65489,-2.8575 1.98575,-3.4395833 4.86153,-8.5530002 4.69194,-8.3119119 6.64916,-9.452319 2.52532,-1.4714273 14.49875,-8.3850687 72.73113,-41.9960157 27.79448,-16.042614 50.68361,-29.309325 50.86472,-29.481595 0.33245,-0.316177 0.1451,-0.971629 -3.52573,-12.335695 -1.30255,-4.032383 -3.15429,-8.891614 -5.55427,-14.575107 -1.08072,-2.55926 -1.96493,-4.725 -1.96493,-4.81274 0,-0.17923 -1.3544,-3.06985 -4.36663,-9.31944 -1.12223,-2.32834 -2.26147,-4.73935 -2.53166,-5.35782 -0.27017,-0.61846 -0.54809,-1.12448 -0.61757,-1.12448 -0.0695,0 -46.71647,26.898736 -103.65994,59.774988 l -103.53357,59.7749837 -5.8756,10.1411616 -5.87561,10.1411617 -0.0114,119.783485 -0.0114,119.78349 0.7276,-0.12763 c 0.40019,-0.0702 3.40651,-0.30996 6.68073,-0.53279 z m 95.96308,-339.209753 c 56.87026,-32.829317 103.50167,-59.785067 103.62536,-59.901667 0.12369,-0.1166 0.0265,-0.43228 -0.21608,-0.70149 -0.24255,-0.26921 -1.65757,-2.33495 -3.14455,-4.59052 -2.32542,-3.52742 -5.42182,-7.95523 -6.20937,-8.87931 -0.13142,-0.1542 -1.4337,-1.89413 -2.89396,-3.86646 -1.46027,-1.97237 -2.94873,-3.87027 -3.30772,-4.21757 -0.35896,-0.34729 -1.58782,-1.81821 -2.73079,-3.26869 -1.14297,-1.45047 -2.2606,-2.8268 -2.48362,-3.05853 -0.22302,-0.23169 -1.00078,-1.12389 -1.72839,-1.98268 -1.35189,-1.59559 -2.88237,-3.28012 -6.60104,-7.26551 -1.15673,-1.23968 -2.13053,-2.2951 -2.164,-2.34537 -0.0335,-0.0503 -23.73299,13.57106 -52.66563,30.26965 -28.93261,16.69857 -57.21442,33.02151 -62.84846,36.27319 l -10.24371,5.91211 H 119.5444 57.909554 l -10.936023,-6.30708 c -6.014826,-3.46887 -34.310928,-19.79793 -62.880266,-36.28676 l -51.944244,-29.9797 -1.193985,1.29564 c -3.162644,3.43191 -5.351886,5.85544 -6.401752,7.08692 -0.634127,0.74385 -1.766015,2.00729 -2.515262,2.80765 -0.749273,0.80036 -1.835997,2.05052 -2.414931,2.77813 -0.578962,0.7276 -1.274948,1.56104 -1.546622,1.85208 -0.271701,0.29104 -2.046976,2.61276 -3.945096,5.15937 -1.898148,2.54662 -3.592116,4.74927 -3.764386,4.8948 -0.300567,0.25386 -1.541701,2.04033 -6.601095,9.50145 -1.274035,1.87883 -2.490298,3.58992 -2.702806,3.80243 -0.212511,0.21251 -0.350671,0.56063 -0.307023,0.77359 0.04365,0.21296 46.6328,27.27624 103.5314453,60.140611 l 103.4520817,59.75342 11.82558,0.02011 11.82558,0.01984 z M -217.14583,73.908572 c -0.5464,-1.744265 -3.07589,-13.976932 -4.11699,-19.909895 -8.44002,-48.0972022 -6.69367,-96.830066 5.16734,-144.197917 13.61156,-54.35875 39.9341,-104.1014 77.356,-146.18229 4.57841,-5.14841 6.11499,-6.75906 13.51186,-14.16306 7.39079,-7.39792 9.24832,-9.17167 14.42138,-13.77094 36.000318,-32.00715 77.050766,-55.61727 122.898957,-70.68517 2.837656,-0.93259 5.963047,-1.92378 6.945312,-2.20263 0.982266,-0.27886 1.785938,-0.58331 1.785938,-0.67658 0,-0.0933 -6.39961,-3.86315 -14.2213545,-8.37752 -7.8217448,-4.51437 -16.7919925,-9.6924 -19.9339195,-11.50672 l -5.71254,-3.29878 -1.960377,0.80117 c -19.374115,7.91792 -33.106598,14.56558 -49.414801,23.92084 -57.570365,33.02544 -105.791365,80.98072 -139.326595,138.55887 -26.7976,46.00998 -43.57361,96.93124 -49.47706,150.180727 -2.42582,21.881041 -2.89986,46.323329 -1.32646,68.394791 0.65588,9.200674 1.92186,20.842499 3.10581,28.560739 l 0.32251,2.102379 19.84375,11.456882 c 10.91406,6.30129 19.94106,11.457173 20.06001,11.457517 0.11895,0 0.151,-0.207751 0.0712,-0.462413 z m 693.45,-10.993913 19.84375,-11.455691 0.32888,-1.971305 c 1.04212,-6.246442 2.59681,-20.735872 3.23498,-30.149403 1.13459,-16.7355308 1.08606,-35.258269 -0.13795,-52.652083 -3.00352,-42.681261 -13.63922,-85.912117 -30.75644,-125.015627 -3.30761,-7.55607 -4.44113,-9.97701 -8.21616,-17.54754 -12.16861,-24.40334 -26.34892,-46.66215 -43.2323,-67.8616 -15.75864,-19.78718 -34.69746,-39.0929 -54.43871,-55.49331 -30.0848,-24.9935 -63.21193,-44.83371 -99.84796,-59.80008 l -4.99483,-2.04046 -5.72079,3.30353 c -3.14643,1.81694 -12.12633,7.00052 -19.9553,11.51907 -7.829,4.51855 -14.13931,8.29959 -14.02292,8.40231 0.11636,0.10272 2.05706,0.75561 4.31263,1.45086 43.60746,13.44134 86.62228,37.21025 121.57604,67.17985 10.1359,8.69057 24.52047,22.7138 32.7315,31.90925 41.28672,46.23657 69.34224,101.90996 81.53225,161.792705 9.99758,49.112382 9.29498,100.151777 -2.04049,148.232813 -0.21444,0.909505 -0.31112,1.653381 -0.21489,1.653037 0.0962,0 9.10465,-5.155698 20.01871,-11.456326 z"
         id="path271" />
    </g>
  </g>
</svg>
