<?xml version="1.0" encoding="UTF-8"?>
<svg id="Layer_1" data-name="Layer 1" xmlns="http://www.w3.org/2000/svg" width="256" height="256" viewBox="0 0 256 256">
  <defs>
    <style>
      .cls-1 {
        fill: #fff;
      }
    </style>
  </defs>
  <path d="M219.07,38.02c41.89,42.33,49.01,108.47,16.89,158.82-30.46,47.75-88.96,70.01-143.8,54.03C46.02,237.43,11.15,199.01,2.24,151.78-7.88,98.17,16.95,44.33,63.88,17.18,114.39-12.05,178.23-3.25,219.07,38.02ZM224,72.03c-14.31-24.58-38.2-42.97-65.64-50.67-48.93-13.73-100.74,7.4-126.13,50.96-10.19,17.49-15.51,37.87-15.02,58.17.22.06.25-.09.38-.19,3.37-2.54,6.56-5.53,9.91-8.13,5.65-4.39,11.73-8.16,17.87-11.82,1.07-.64,8.65-4.71,8.8-5.24.06-.17,0-.24-.11-.36-.07-.08-1.4-.77-1.63-.88-5.63-2.78-12.2-4.16-18.49-3.82-2.63.14-5.39.78-8.02,1.01-.15.01-.29,0-.44,0l.06-.25c4.35-2.25,8.84-4.4,13.5-5.91,10.62-3.46,21.37-5.85,32.21-8.52.33-.08,2.6-.61,2.6-.78-5.18-4.07-11.49-7.28-17.73-9.45-.83-.29-2.93-.7-3.48-1.03-.16-.1-.26-.13-.22-.35l6.95.13c5.55-.26,11.14-.2,16.71-.31,3.26,2.58,6.35,5.43,9.37,8.31,2.71,2.59,4.65,5.35,8.39,6.64l8.21,2.25-8.36-4.1c-5.23-5.26-10.42-10.62-16.08-15.49-4.11-3.54-8.71-6.64-12.28-10.77-3.81-4.41-7.21-9.29-10.81-13.87l-.1-.47c.19-.19,4.18,2.12,4.67,2.4,11.58,6.64,22.79,13.97,34.34,20.66,5.24,3.03,10.53,6.01,15.94,8.74v-.25c-1.46-1.07-2.87-2.22-4.26-3.38-2.76-2.31-5.85-4.76-8.46-7.19-.56-.52-1.07-1.1-1.63-1.63l.31-.28,28.51,14.36c-1.87-1.57-4.08-2.8-6-4.33-2.08-1.66-3.05-4.58-4.4-6.87-4.33-7.38-10.92-14.39-14.65-21.8-2.35-4.68-4.89-10.05-6.93-14.86-.12-.29-.24-.6-.35-.9l.31-.19c2.67,2.76,5.51,5.35,8.21,8.07,9.66,9.74,18.9,19.95,29.07,29.18,3.67,3.33,7.3,6.45,11.6,8.94,3.24,4.51,6.16,9.26,9.41,13.77,2.53,3.51,6.5,6.2,9.97,8.82.87.66,3.13,1.93,3.5,2.76,1.06,2.38,1.21,5.81,2.19,8.08,1.66,3.86,9.87,6.44,13.16,9.02,1.16.91,2.13,2.24,3.45,2.94,1.71.91,3.49.75,5.27,1.12,6.19,1.29,5.14,11.78,5.63,16.41.11,1.05.42,2.07.5,3.13-.06.34-.9.98-1.18,1.33-2.03,2.55-3.61,6.37-5.72,8.56-.27.28-.63.56-.57-.06.26-2.97.74-7.96-2.14-9.87-2.79-1.85-4.02,3.22-5.24,4.73-.24-.16-.18-.32-.19-.56-.05-2.34.93-5.69-.92-7.53-.74-.74-1.59-.82-2.45-.22-1.73,1.18-2.94,5.26-4.65,7-.12.12-.16.24-.37.19.03-3.08.42-6.2-1.21-9-1.73-2.99-4.44.06-6.33,1.03-.4.21-1.61.94-1.73.27-.34-1.89-.31-3.37-1.17-5.22-.74-1.59-3.8-3.74-5.55-3.97-3.13-.41-5.44.95-7.51,3.12-.19-.12-.16-.25-.19-.43-.26-1.88-.37-5.61-1.4-7.12-1.77-2.6-4.96-.6-7.32-.35-2.2.23-3.76-.79-5.65-1.72-6.14-3.03-13.34-6.41-16.1-13.08l-1.23-3.59c-.03,2.19.59,4.4,1.22,6.48,2.01,6.69,6.77,14.57,12.53,18.66,2.27,1.61,4.66,2.51,7.47,1.62,1.81-.58,2.96-1.91,4.49-2.9.15-.1.28-.23.49-.2-.2,2.43-.17,4.88.29,7.29.64,3.4,3.96,5.26,7.3,4.86,1.2-.15,3.84-2.45,4.82-3.32.31-.28,1.47-1.67,1.81-1.57.18.11.18.25.2.43.37,3.41.36,8.35,4.72,9.05,1.82.3,3.22-1.44,4.36-2.6.24-.24.12-.5.68-.38-.11,1.56-.52,3.31-.16,4.86.27,1.19,1.57,3.2,2.48,4.03,2.17,1.98,3.36.99,5.02-.88.46-.52,1.19-1.78,1.63-2.13.35-.28.49.51.52.71.18,1.4.19,3.25.3,4.74.08,1.12-.32,2.62.76,3.37.89.62,1.6.37,2.37-.24,1.6-1.26,3.15-3.31,3.89-5.2.16-.03.21,0,.31.13.15.22.3,1.69.32,2.06.48,8-1.05,14.34-5.39,21.03-3.34,5.16-8.01,9.42-14.16,10.83-.2-.21,1.17-1.55,1.37-1.82,6.75-8.52,5.16-19.1-2.75-26.16-11.2-10.01-26.85-11.09-41.01-8.03-6.67,1.44-11.47,3.6-17.11,7.32-.15.1-.92.65-1.04.52-.04-.29.1-.47.25-.69.7-1,2.36-2.54,3.31-3.4,3.91-3.55,8.47-6.36,13.11-8.88l6.9-3.31c-6.32.7-12.85,1.67-18.86,3.75-2.48.86-5.18,2.36-7.58,3.07-.17.05-.33.08-.5.06l.13-.43c2.96-1.88,6.48-4.01,7.64-7.51,2.49-7.47-3.4-15.32-8.84-19.84s-11.29-7.25-17.85-8.77c-.3.29,1.4.82,1.55.89,5.11,2.49,16,10.07,18.09,15.35,1.06,2.68.19,4.94-.91,7.41-3.57,8.08-7.48,14.9-9.95,23.61-7.33,25.81.69,57.35,23.01,73.27,2.45,1.75,3.11,2,6.14,2.51,29.21,4.94,59.96-7.75,77.22-31.62,29.07-40.19,16.25-100.34-11.63-137.6-14.71-19.66-36.04-36.59-60.44-42l-.22-.35c4.85.38,9.71,1.32,14.44,2.41,28.2,6.53,53.8,21.04,77.21,37.55l9.11,6.61ZM153.82,114.6l-6.1-6.11-14.45-5.78c3.07,3.46,5.28,8.84,10.25,9.85,2.09.43,4.26.26,6.42.72,1.36.29,2.58.88,3.88,1.32ZM186.91,135.63c.78-3.94-1.86-5.68-5.11-6.85-.73-.26-1.5-.59-2.29-.53.86.8,1.33,2.02,2.06,2.88,1.13,1.33,3.41,1.45,4.45,3.07l.88,1.44ZM17.48,135.64c.35,6.04,1.26,12.16,2.66,18.04.5,2.1,1.05,4.21,1.78,6.23l16.61-24.09c-.04-.19-.86-.29-1.07-.31-5.72-.65-12.06-.97-17.78-.24-.73.09-1.47.24-2.2.37Z"/>
  <path class="cls-1" d="M224,72.03l-9.11-6.61c-23.41-16.51-49.01-31.02-77.21-37.55-4.73-1.1-9.59-2.03-14.44-2.41l.22.35c24.4,5.41,45.73,22.33,60.44,42,27.88,37.26,40.7,97.41,11.63,137.6-17.26,23.87-48.01,36.56-77.22,31.62-3.03-.51-3.69-.76-6.14-2.51-22.32-15.93-30.34-47.46-23.01-73.27,2.47-8.7,6.38-15.53,9.95-23.61,1.09-2.48,1.97-4.73.91-7.41-2.1-5.29-12.98-12.86-18.09-15.35-.15-.07-1.85-.6-1.55-.89,6.57,1.52,12.67,4.47,17.85,8.77,5.44,4.52,11.33,12.37,8.84,19.84-1.17,3.5-4.69,5.63-7.64,7.51l-.13.43c.18.02.34,0,.5-.06,2.4-.71,5.1-2.22,7.58-3.07,6.02-2.08,12.55-3.05,18.86-3.75l-6.9,3.31c-4.63,2.52-9.19,5.33-13.11,8.88-.94.86-2.6,2.4-3.31,3.4-.15.22-.29.4-.25.69.12.12.89-.42,1.04-.52,5.63-3.73,10.44-5.88,17.11-7.32,14.16-3.06,29.81-1.97,41.01,8.03,7.91,7.06,9.5,17.65,2.75,26.16-.21.26-1.58,1.61-1.37,1.82,6.15-1.41,10.82-5.66,14.16-10.83,4.33-6.69,5.86-13.03,5.39-21.03-.02-.37-.17-1.84-.32-2.06-.09-.13-.14-.16-.31-.13-.74,1.89-2.29,3.94-3.89,5.2-.77.61-1.49.86-2.37.24-1.08-.75-.68-2.25-.76-3.37-.1-1.49-.12-3.34-.3-4.74-.03-.21-.17-.99-.52-.71-.44.35-1.17,1.62-1.63,2.13-1.65,1.87-2.84,2.86-5.02.88-.91-.83-2.21-2.84-2.48-4.03-.36-1.55.06-3.3.16-4.86-.56-.12-.45.14-.68.38-1.14,1.16-2.55,2.89-4.36,2.6-4.36-.71-4.35-5.64-4.72-9.05-.02-.18-.02-.33-.2-.43-.34-.1-1.5,1.29-1.81,1.57-.98.87-3.62,3.17-4.82,3.32-3.34.4-6.66-1.46-7.3-4.86-.45-2.4-.49-4.85-.29-7.29-.21-.04-.34.1-.49.2-1.53.99-2.68,2.32-4.49,2.9-2.8.89-5.19,0-7.47-1.62-5.76-4.09-10.51-11.97-12.53-18.66-.63-2.08-1.25-4.3-1.22-6.48l1.23,3.59c2.76,6.67,9.96,10.06,16.1,13.08,1.88.93,3.45,1.95,5.65,1.72,2.36-.25,5.55-2.25,7.32.35,1.03,1.51,1.13,5.24,1.4,7.12.03.19,0,.31.19.43,2.07-2.16,4.38-3.53,7.51-3.12,1.75.23,4.81,2.38,5.55,3.97.86,1.85.82,3.33,1.17,5.22.12.67,1.33-.06,1.73-.27,1.89-.97,4.6-4.02,6.33-1.03,1.62,2.8,1.24,5.92,1.21,9,.21.05.25-.07.37-.19,1.7-1.74,2.92-5.82,4.65-7,.86-.59,1.71-.51,2.45.22,1.85,1.84.87,5.19.92,7.53,0,.23-.05.4.19.56,1.22-1.52,2.45-6.59,5.24-4.73,2.88,1.91,2.4,6.9,2.14,9.87-.06.62.3.35.57.06,2.1-2.19,3.69-6.01,5.72-8.56.28-.35,1.12-.99,1.18-1.33-.08-1.05-.39-2.08-.5-3.13-.49-4.63.56-15.12-5.63-16.41-1.78-.37-3.57-.21-5.27-1.12-1.32-.7-2.29-2.03-3.45-2.94-3.29-2.58-11.5-5.16-13.16-9.02-.98-2.27-1.12-5.71-2.19-8.08-.37-.83-2.63-2.1-3.5-2.76-3.46-2.63-7.43-5.31-9.97-8.82-3.25-4.5-6.16-9.26-9.41-13.77-4.3-2.49-7.93-5.61-11.6-8.94-10.17-9.23-19.41-19.43-29.07-29.18-2.7-2.72-5.55-5.31-8.21-8.07l-.31.19c.12.3.23.6.35.9,2.04,4.81,4.58,10.18,6.93,14.86,3.73,7.41,10.32,14.42,14.65,21.8,1.34,2.29,2.32,5.21,4.4,6.87,1.92,1.53,4.13,2.76,6,4.33l-28.51-14.36-.31.28c.56.53,1.06,1.11,1.63,1.63,2.62,2.43,5.7,4.89,8.46,7.19,1.39,1.16,2.8,2.31,4.26,3.38v.25c-5.41-2.73-10.7-5.7-15.94-8.74-11.55-6.69-22.75-14.01-34.34-20.66-.49-.28-4.49-2.59-4.67-2.4l.1.47c3.6,4.57,7,9.45,10.81,13.87,3.57,4.13,8.17,7.23,12.28,10.77,5.66,4.87,10.84,10.23,16.08,15.49l8.36,4.1-8.21-2.25c-3.74-1.3-5.68-4.06-8.39-6.64-3.02-2.88-6.1-5.72-9.37-8.31-5.57.11-11.16.05-16.71.31l-6.95-.13c-.04.22.06.25.22.35.55.33,2.66.74,3.48,1.03,6.23,2.17,12.55,5.39,17.73,9.45,0,.17-2.27.7-2.6.78-10.83,2.67-21.59,5.06-32.21,8.52-4.66,1.52-9.16,3.67-13.5,5.91l-.06.25c.14,0,.29.01.44,0,2.63-.22,5.39-.86,8.02-1.01,6.3-.34,12.87,1.04,18.49,3.82.23.11,1.55.8,1.63.88.11.12.17.19.11.36-.14.53-7.73,4.6-8.8,5.24-6.15,3.66-12.22,7.43-17.87,11.82-3.35,2.6-6.55,5.58-9.91,8.13-.13.09-.16.24-.38.19-.49-20.3,4.82-40.68,15.02-58.17C57.62,28.76,109.43,7.63,158.36,21.36c27.44,7.7,51.33,26.09,65.64,50.67Z"/>
  <path class="cls-1" d="M17.48,135.64c.73-.13,1.46-.28,2.2-.37,5.72-.74,12.06-.41,17.78.24.2.02,1.03.13,1.07.31l-16.61,24.09c-.73-2.02-1.28-4.14-1.78-6.23-1.39-5.89-2.31-12-2.66-18.04Z"/>
  <path class="cls-1" d="M153.82,114.6c-1.3-.44-2.52-1.03-3.88-1.32-2.16-.46-4.33-.29-6.42-.72-4.97-1.02-7.19-6.39-10.25-9.85l14.45,5.78,6.1,6.11Z"/>
  <path class="cls-1" d="M186.91,135.63l-.88-1.44c-1.04-1.61-3.32-1.74-4.45-3.07-.73-.87-1.2-2.08-2.06-2.88.79-.06,1.56.27,2.29.53,3.24,1.17,5.89,2.91,5.11,6.85Z"/>
</svg>