<svg xmlns="http://www.w3.org/2000/svg" width="256" height="256"><path d="M128,0h0A128,128,0,0,1,256,128h0A128,128,0,0,1,128,256h0A128,128,0,0,1,0,128H0A128,128,0,0,1,128,0Z" fill="#2fbc72"/><path d="M192 126.12l-.07-1.55a4.25 4.25 0 0 0-.05-.8c0-.52-.07-1-.12-1.54l-.16-1.67-.1-.8-.12-.83-.2-1.37a.38.38 0 0 1 0-.15l-.14-.79-.46-2.32-.36-1.53-.22-.77-.4-1.5-.44-1.43-.74-2.27-.26-.74-.28-.72-1.18-2.91-.29-.63-.62-1.39-.34-.69-.19-.39-.3-.57-.9-1.76-.37-.66-.38-.66-2-3.24-.42-.62a61.17 61.17 0 0 0-4.18-5.43l-.43-.5-.13-.15-1-1.06-1-1.06q-1.87-1.92-3.87-3.69l-.58-.5-4.8-3.75-1.25-.86-2-1.31-.54-.33-3.33-1.88-1.37-.69-.7-.33-.69-.33-.7-.32-.81-.36-.63-.26-.71-.29-2.89-1.1-.74-.25-.74-.24-.74-.24-1.5-.44-.76-.21-.8-.24-.76-.19-.77-.18-.68-.15-4-.73-.79-.12-2.45-.3-1.53-.13-1.81-.12h-1.42-1.74a64 64 0 0 0-64 63.16V129a66 66 0 0 0 .93 10 64.08 64.08 0 0 0 47.23 51l.57.14 2.18.5h.16a62.67 62.67 0 0 0 9.75 1.25l3.17.08h.11A64 64 0 0 0 187.88 151h-36.66a24.92 24.92 0 0 1-47.32-11h49.84 37.13a64.44 64.44 0 0 0 1-8.76h0L192 128v-1.91zM103.75 116a24.91 24.91 0 0 1 24.91-24.92h1.25a10 10 0 0 1 1.25.1l1.26.15 1.25.22 1.2.28a24.45 24.45 0 0 1 5.24 2 2.11 2.11 0 0 1 .3.16l1.26.7.28.17.62.44 1 .68.52.42a3.39 3.39 0 0 1 .42.33l.46.38.62.54.13.12.59.57a24.88 24.88 0 0 1 4.57 6.25l.54 1.13.87 2.22.37 1.17.16.63.11.4.08.37.08.37.14.74.11.67v.26a5 5 0 0 0 .09.66l.08.84v1.87z" fill="#f4f5ef"/></svg>
