<svg xmlns="http://www.w3.org/2000/svg" viewBox="0 0 409.32 409.32"><rect width="409.32" height="409.32" rx="204.66" fill="#2fbc72"/><path d="M307 201.65l-.11-2.47c0-.43 0-.86-.07-1.29 0-.82-.12-1.64-.19-2.45l-.27-2.67-.16-1.28-.18-1.34-.33-2.19a2.4 2.4 0 0 1 0-.24l-.22-1.25-.74-3.72-.57-2.44-.31-1.25-.64-2.39-.69-2.3-1.19-3.63-.42-1.17-.44-1.16q-.88-2.35-1.89-4.65l-.46-1-1-2.23-.54-1.1-.31-.63-.47-.91-1.5-2.81-.6-1.06-.61-1.06q-1.54-2.64-3.25-5.17l-.68-1a100.51 100.51 0 0 0-6.68-8.68l-.69-.8-.2-.23-1.53-1.7-1.6-1.69q-3-3.09-6.19-5.9l-.92-.8-7.68-6-2-1.38-3.25-2.09-.87-.53q-2.62-1.58-5.33-3l-2.19-1.11-1.11-.53-1.11-.53-1.12-.51-1.29-.57-1-.41-1.14-.47-4.63-1.75-1.18-.41-1.18-.38-1.18-.38-2.4-.71-1.21-.33-1.21-.32-1.21-.3-1.23-.29-1.09-.24-6.36-1.18-1.26-.19-3.92-.47-2.45-.22-2.9-.18-2.27-.09h-2.62-.15a102.32 102.32 0 0 0-102.32 101v1.32 1.58a105 105 0 0 0 1.49 16 102.46 102.46 0 0 0 75.52 81.62l.9.22 3.49.8h.25a100 100 0 0 0 15.6 2l5.07.13h.17a102.36 102.36 0 0 0 95.42-65.72h-58.61a39.85 39.85 0 0 1-75.66-17.46h79.69l59.36.06a100.11 100.11 0 0 0 1.68-14v-.08l.13-5.18v-1.58zm-141.12-16.2a39.84 39.84 0 0 1 39.84-39.84h1 1c.68 0 1.36.08 2 .16l2 .25 2 .35 1.93.44a39.07 39.07 0 0 1 8.38 3.22 3.62 3.62 0 0 1 .48.25l2 1.12.45.28 1 .69 1.56 1.1.84.66a6.66 6.66 0 0 1 .66.53l.74.61 1 .87.2.18.94.91a39.88 39.88 0 0 1 7.31 10l.86 1.8 1.4 3.56.58 1.87.27 1 .17.64.13.59.13.6.22 1.18.17 1.07.06.42c0 .35.09.7.13 1.05l.13 1.35v.62.75.29 1.33z" fill="#f4f5ef"/></svg>
