<?xml version="1.0" encoding="UTF-8"?><svg id="a" xmlns="http://www.w3.org/2000/svg" viewBox="0 0 1688 1688"><defs><style>.b{fill:#d1e1f4;}.c{fill:#fff;}.d{fill:#91b4dc;}.e{fill:#d29f6a;}.f{fill:none;stroke:#255d26;stroke-miterlimit:10;stroke-width:8px;}.g{fill:#d98835;}.h{fill:#527060;}.i{fill:#aae0be;}.j{fill:#6ba082;}.k{fill:#6e96c0;}.l{fill:#714b26;}.m{fill:#b67535;}.n{fill:#b99a7b;}.o{fill:#4f8e40;}.p{fill:#a6dacc;}</style></defs><ellipse class="c" cx="844.48" cy="850.93" rx="833.38" ry="831.11"/><g><circle class="b" cx="575.64" cy="1460.2" r="138.91"/><circle class="m" cx="287.67" cy="1233.21" r="138.91"/><circle class="j" cx="172.48" cy="891.02" r="138.91"/><circle class="l" cx="253.79" cy="545.45" r="138.91"/><circle class="i" cx="477.39" cy="274.41" r="138.91" transform="translate(-54.22 417.94) rotate(-45)"/><circle class="g" cx="795.86" cy="179.55" r="138.91" transform="translate(106.14 615.35) rotate(-45)"/><circle class="d" cx="1134.66" cy="220.21" r="138.91" transform="translate(176.62 866.82) rotate(-45)"/><circle class="n" cx="1392.14" cy="443.81" r="138.91"/><circle class="k" cx="1517.5" cy="752.12" r="138.91" transform="translate(-87.36 1293.32) rotate(-45)"/><circle class="h" cx="1470.07" cy="1107.85" r="138.91"/><circle class="p" cx="1256.62" cy="1385.67" r="138.91" transform="translate(-611.76 1294.42) rotate(-45)"/><circle class="e" cx="924.6" cy="1511.02" r="138.91" transform="translate(-797.64 1096.36) rotate(-45)"/></g><path class="f" d="M1228.64,1214.87c-6.74,0-20.21,0-33.69-1.11-142.61-6.65-184.16-36.57-217.85-83.11-44.92-60.95-77.48-128.55-115.66-195.04-16.84-29.92-32.56-36.57-68.5-36.57l-22.46-1.11v161.79c0,89.76,11.23,97.52,95.45,107.49v41h-343.62v-41c85.34-8.87,95.45-17.73,95.45-107.49v-424.43c0-87.55-11.23-99.74-95.45-106.38v-41h325.65c99.94,0,157.21,11.08,203.25,42.11,44.92,29.92,75.24,78.68,75.24,147.39,0,98.63-66.25,150.71-140.37,179.52,16.84,33.24,60.64,105.28,94.33,156.25,39.3,60.95,64.01,90.87,85.34,115.25,25.83,28.81,38.18,37.68,70.75,48.76l-7.86,37.68Zm-427.84-362.37c48.29,0,85.34-7.76,110.05-28.81,37.06-31.03,52.78-73.14,52.78-129.66,0-117.47-68.5-159.58-131.38-159.58-30.32,0-44.92,4.43-51.66,11.08-7.86,6.65-10.11,19.95-10.11,42.11v264.85h30.32Z"/><g><path class="o" d="M362.53,746.42h140.26c27.65,0,49.98,3.74,67,11.23,17.02,7.48,31.08,18.23,42.2,32.23,11.11,14,19.17,30.29,24.18,48.86,5,18.58,7.5,38.26,7.5,59.05,0,32.57-3.72,57.83-11.15,75.78-7.43,17.95-17.75,32.99-30.95,45.12-13.2,12.13-27.37,20.2-42.51,24.22-20.7,5.54-39.46,8.32-56.27,8.32h-140.26v-304.79Zm94.41,69.03v166.53h23.13c19.73,0,33.76-2.18,42.1-6.55s14.87-11.99,19.59-22.87c4.72-10.88,7.09-28.52,7.09-52.91,0-32.29-5.28-54.4-15.84-66.32-10.56-11.92-28.07-17.88-52.52-17.88h-23.55Z"/><path class="o" d="M697.02,746.42h94.62v304.79h-94.62v-304.79Z"/><path class="o" d="M860,746.42h88.16l115.04,168.63v-168.63h88.99v304.79h-88.99l-114.42-167.35v167.35h-88.78v-304.79Z"/><path class="o" d="M1218.67,746.42h94.62v304.79h-94.62v-304.79Z"/></g></svg>