<?xml version="1.0" encoding="iso-8859-1"?>
<!-- Generator: Adobe Illustrator 19.0.0, SVG Export Plug-In . SVG Version: 6.00 Build 0)  -->
<svg version="1.1" id="Layer_1" xmlns="http://www.w3.org/2000/svg" xmlns:xlink="http://www.w3.org/1999/xlink" x="0px" y="0px"
	 viewBox="0 0 512 512" style="enable-background:new 0 0 512 512;" xml:space="preserve">
<circle style="fill:#8C8484;" cx="256" cy="256" r="247.83"/>
<circle style="fill:#FBCD18;" cx="256" cy="256" r="167.217"/>
<path style="fill:#A8A2A2;" d="M448.825,281.153c-2.824,0-5.57-1.465-7.083-4.086c-2.256-3.908-0.917-8.904,2.99-11.16L461.889,256
	l-17.157-9.906c-3.908-2.256-5.246-7.253-2.99-11.161c2.255-3.908,7.251-5.247,11.16-2.99l29.413,16.981
	c2.527,1.46,4.085,4.156,4.085,7.075s-1.558,5.616-4.085,7.075l-29.413,16.981C451.616,280.8,450.21,281.152,448.825,281.153z"/>
<path style="fill:#FEF7D8;" d="M231.827,146.848l-28.942,68.368h18.129c5.972,0,10.813,4.841,10.813,10.813v136.927h48.347V146.848
	H231.827z"/>
<path d="M437.019,74.981C388.667,26.628,324.38,0,256,0S123.332,26.628,74.981,74.981C26.628,123.332,0,187.62,0,256
	s26.628,132.668,74.981,181.019C123.332,485.372,187.62,512,256,512s132.667-26.628,181.019-74.981
	C485.372,388.668,512,324.38,512,256S485.372,123.332,437.019,74.981z M256,495.66c-132.149,0-239.66-107.51-239.66-239.66
	S123.851,16.34,256,16.34S495.66,123.851,495.66,256S388.149,495.66,256,495.66z M231.827,371.127h48.347
	c4.513,0,8.17-3.658,8.17-8.17V146.848c0-4.512-3.657-8.17-8.17-8.17h-48.347c-3.281,0-6.244,1.963-7.524,4.985l-28.942,68.368
	c-1.068,2.523-0.801,5.414,0.714,7.697c1.513,2.284,4.071,3.657,6.811,3.657h18.129c1.458,0,2.643,1.185,2.643,2.643v136.927
	C223.657,367.469,227.314,371.127,231.827,371.127z M221.013,207.046h-5.798l22.025-52.028h34.764v199.768h-32.007V226.028
	C239.997,215.562,231.481,207.046,221.013,207.046z M190.376,267.859v-10.232h-13.092v18.303c0,1.084,1.302,3.308,2.246,3.838
	l16.602,9.326c6.133,3.446,10.584,11.052,10.584,18.086v19.107c0,8.288-6.532,15.06-14.716,15.487v3.699
	c0,4.512-3.658,8.17-8.17,8.17c-4.512,0-8.17-3.658-8.17-8.17v-3.699c-8.184-0.427-14.716-7.199-14.716-15.487v-11.045
	c0-4.512,3.658-8.17,8.17-8.17c4.512,0,8.17,3.658,8.17,8.17v10.232h6.535c0.003,0,0.007,0,0.011,0c0.004,0,0.007,0,0.011,0h6.535
	v-18.295c0-1.084-1.302-3.308-2.246-3.839l-16.602-9.325c-6.133-3.446-10.584-11.052-10.584-18.086v-19.116
	c0-8.288,6.532-15.06,14.716-15.486v-3.699c0-4.512,3.658-8.17,8.17-8.17c4.512,0,8.17,3.658,8.17,8.17v3.699
	c8.184,0.426,14.716,7.199,14.716,15.486v11.045c0,4.512-3.658,8.17-8.17,8.17C194.034,276.029,190.376,272.371,190.376,267.859z
	 M231.944,59.098l16.981-29.413c1.46-2.527,4.156-4.085,7.075-4.085s5.616,1.558,7.075,4.085l16.982,29.413
	c2.256,3.908,0.917,8.904-2.99,11.161c-1.287,0.743-2.692,1.096-4.077,1.096c-2.824,0-5.569-1.465-7.083-4.086L256,50.111
	l-9.906,17.157c-2.256,3.908-7.254,5.246-11.161,2.99C231.025,68.002,229.686,63.005,231.944,59.098z M59.098,280.056
	l-29.413-16.981c-2.527-1.46-4.085-4.156-4.085-7.075c0-2.919,1.558-5.616,4.085-7.075l29.413-16.981
	c3.906-2.256,8.904-0.918,11.161,2.99c2.256,3.908,0.917,8.904-2.99,11.161L50.111,256l17.157,9.906
	c3.908,2.256,5.246,7.253,2.99,11.161c-1.513,2.621-4.259,4.086-7.083,4.086C61.79,281.153,60.384,280.8,59.098,280.056z
	 M280.057,452.902l-16.982,29.413c-1.46,2.527-4.156,4.085-7.075,4.085c-2.919,0-5.616-1.558-7.075-4.085l-16.981-29.413
	c-2.256-3.908-0.917-8.904,2.99-11.16c3.908-2.256,8.904-0.917,11.161,2.99L256,461.889l9.907-17.157
	c2.255-3.909,7.253-5.247,11.16-2.99C280.975,443.998,282.314,448.995,280.057,452.902z M486.4,256c0,2.919-1.558,5.616-4.085,7.075
	l-29.413,16.981c-1.287,0.743-2.692,1.096-4.077,1.096c-2.824,0-5.57-1.465-7.083-4.086c-2.256-3.908-0.917-8.904,2.99-11.16
	L461.889,256l-17.157-9.906c-3.908-2.256-5.246-7.253-2.99-11.161c2.255-3.908,7.251-5.247,11.16-2.99l29.413,16.981
	C484.842,250.384,486.4,253.081,486.4,256z M467.549,298.079c-0.88,4.426-5.181,7.299-9.606,6.42l-6.548-1.302
	c-1.808,7.526-4.069,14.9-6.714,22.114l6.172,2.557c4.169,1.727,6.149,6.507,4.422,10.675c-1.303,3.146-4.345,5.046-7.551,5.046
	c-1.043,0-2.101-0.2-3.123-0.624l-6.166-2.553c-3.238,6.994-6.868,13.8-10.898,20.38l5.552,3.71
	c3.751,2.507,4.761,7.58,2.254,11.333c-1.575,2.357-4.164,3.632-6.801,3.632c-1.561,0-3.137-0.447-4.532-1.378l-5.584-3.731
	c-4.527,6.195-9.414,12.157-14.667,17.848l4.761,4.76c3.191,3.191,3.191,8.364,0,11.554c-1.596,1.595-3.688,2.393-5.778,2.393
	c-2.09,0-4.182-0.797-5.778-2.393l-4.759-4.759c-5.692,5.253-11.654,10.14-17.849,14.667l3.732,5.585
	c2.507,3.752,1.497,8.826-2.254,11.333c-1.394,0.931-2.973,1.378-4.532,1.378c-2.637,0-5.226-1.276-6.801-3.633l-3.709-5.551
	c-6.58,4.03-13.386,7.66-20.38,10.898l2.553,6.165c1.728,4.169-0.252,8.948-4.422,10.675c-1.022,0.424-2.082,0.624-3.123,0.624
	c-3.206,0-6.247-1.9-7.551-5.046l-2.557-6.172c-7.214,2.646-14.589,4.905-22.115,6.715l1.302,6.546
	c0.881,4.426-1.992,8.727-6.419,9.607c-0.538,0.107-1.074,0.159-1.604,0.159c-3.818,0-7.231-2.69-8.005-6.578l-2.866-14.406
	c-0.424-2.126,0.016-4.335,1.222-6.136c1.205-1.803,3.077-3.051,5.205-3.473c11.656-2.306,22.895-5.679,33.613-10.01
	c0.324-0.19,0.658-0.366,1.013-0.514c0.366-0.151,0.736-0.264,1.11-0.359c10.387-4.349,20.272-9.606,29.563-15.676
	c0.376-0.377,0.792-0.722,1.25-1.028c0.467-0.312,0.954-0.569,1.454-0.773c9.105-6.181,17.613-13.155,25.432-20.827
	c0.31-0.481,0.673-0.94,1.095-1.362s0.88-0.783,1.361-1.094c7.673-7.82,14.646-16.327,20.83-25.433
	c0.205-0.5,0.461-0.987,0.772-1.453c0.306-0.458,0.653-0.874,1.027-1.248c6.07-9.291,11.327-19.177,15.677-29.565
	c0.096-0.373,0.208-0.743,0.359-1.109c0.147-0.355,0.324-0.687,0.513-1.009c4.332-10.72,7.704-21.959,10.01-33.617
	c0.42-2.128,1.67-4,3.473-5.206c1.803-1.206,4.013-1.646,6.136-1.222l14.407,2.865C465.555,289.353,468.43,293.654,467.549,298.079z
	 M225.171,440.588c1.205,1.802,1.645,4.01,1.222,6.136l-2.865,14.406c-0.773,3.887-4.186,6.578-8.005,6.578
	c-0.528,0-1.064-0.051-1.602-0.159c-4.426-0.88-7.3-5.182-6.42-9.607l1.302-6.546c-7.526-1.809-14.9-4.069-22.114-6.715
	l-2.557,6.172c-1.304,3.146-4.345,5.046-7.551,5.046c-1.043,0-2.101-0.2-3.123-0.624c-4.169-1.727-6.148-6.507-4.422-10.675
	l2.553-6.165c-6.995-3.238-13.8-6.868-20.38-10.898l-3.709,5.551c-1.575,2.357-4.164,3.633-6.801,3.633
	c-1.56,0-3.136-0.447-4.532-1.378c-3.752-2.507-4.762-7.581-2.255-11.333l3.732-5.585c-6.195-4.527-12.157-9.414-17.848-14.667
	l-4.761,4.759c-1.595,1.595-3.686,2.393-5.777,2.393c-2.09,0-4.182-0.797-5.777-2.393c-3.191-3.191-3.191-8.364,0-11.554
	l4.759-4.759c-5.253-5.691-10.14-11.654-14.667-17.849l-5.585,3.732c-1.394,0.931-2.972,1.378-4.532,1.378
	c-2.637,0-5.226-1.275-6.801-3.632c-2.507-3.752-1.498-8.826,2.255-11.333l5.551-3.709c-4.03-6.58-7.66-13.385-10.898-20.38
	l-6.165,2.553c-1.022,0.424-2.082,0.624-3.123,0.624c-3.206,0-6.247-1.899-7.551-5.046c-1.727-4.169,0.253-8.948,4.422-10.675
	l6.172-2.557c-2.646-7.214-4.905-14.588-6.715-22.114l-6.546,1.302c-4.426,0.879-8.727-1.993-9.607-6.42
	c-0.88-4.426,1.994-8.727,6.42-9.607l14.406-2.865c2.126-0.424,4.335,0.016,6.136,1.222c1.802,1.206,3.051,3.079,3.473,5.206
	c2.306,11.657,5.679,22.895,10.01,33.613c0.19,0.322,0.366,0.657,0.514,1.012c0.151,0.365,0.265,0.736,0.359,1.109
	c4.349,10.388,9.606,20.274,15.677,29.565c0.376,0.375,0.721,0.791,1.027,1.248c0.312,0.466,0.569,0.953,0.772,1.453
	c6.181,9.106,13.155,17.613,20.829,25.433c0.481,0.31,0.94,0.672,1.362,1.094c0.422,0.422,0.784,0.88,1.095,1.362
	c7.819,7.673,16.327,14.648,25.434,20.83c0.499,0.205,0.986,0.461,1.452,0.771c0.459,0.306,0.875,0.653,1.249,1.027
	c9.291,6.07,19.177,11.328,29.565,15.677c0.373,0.096,0.743,0.208,1.109,0.359c0.356,0.147,0.688,0.325,1.012,0.514
	c10.719,4.331,21.957,7.704,33.613,10.01C222.093,437.537,223.965,438.785,225.171,440.588z M286.83,71.412
	c-1.206-1.802-1.646-4.01-1.222-6.136l2.866-14.406c0.881-4.426,5.182-7.298,9.607-6.42c4.426,0.881,7.299,5.182,6.419,9.607
	l-1.302,6.546c7.526,1.809,14.901,4.069,22.115,6.715l2.557-6.172c1.728-4.169,6.51-6.147,10.675-4.422
	c4.169,1.727,6.149,6.507,4.422,10.675l-2.553,6.165c6.994,3.238,13.8,6.868,20.38,10.898l3.709-5.551
	c2.508-3.752,7.582-4.761,11.333-2.255c3.751,2.507,4.76,7.581,2.254,11.333l-3.732,5.585c6.195,4.527,12.157,9.414,17.849,14.667
	l4.759-4.759c3.192-3.191,8.364-3.191,11.555,0c3.191,3.191,3.191,8.364,0,11.554l-4.76,4.761
	c5.253,5.691,10.14,11.653,14.667,17.848l5.584-3.731c3.753-2.508,8.826-1.498,11.333,2.254c2.507,3.752,1.497,8.826-2.254,11.333
	l-5.552,3.71c4.03,6.58,7.66,13.386,10.898,20.38l6.166-2.553c4.17-1.728,8.948,0.253,10.675,4.422
	c1.728,4.169-0.252,8.948-4.422,10.675l-6.172,2.557c2.645,7.214,4.905,14.588,6.714,22.114l6.548-1.302
	c4.424-0.883,8.728,1.996,9.606,6.42c0.881,4.426-1.994,8.727-6.42,9.607l-14.407,2.865c-0.528,0.106-1.062,0.157-1.594,0.157
	c-1.606,0-3.189-0.474-4.543-1.379c-1.802-1.206-3.052-3.079-3.473-5.206c-2.304-11.652-5.676-22.885-10.006-33.601
	c-0.192-0.326-0.369-0.665-0.519-1.024c-0.151-0.365-0.264-0.736-0.359-1.109c-4.357-10.41-9.628-20.316-15.715-29.624
	c-0.357-0.363-0.696-0.751-0.989-1.191c-0.312-0.466-0.568-0.953-0.772-1.453c-6.183-9.106-13.156-17.614-20.83-25.433
	c-0.48-0.31-0.939-0.672-1.361-1.094c-0.422-0.422-0.784-0.88-1.094-1.362c-7.84-7.693-16.372-14.684-25.504-20.877
	c-0.475-0.199-0.939-0.429-1.383-0.724c-0.459-0.306-0.875-0.653-1.25-1.028c-9.29-6.07-19.176-11.327-29.563-15.676
	c-0.373-0.096-0.744-0.208-1.11-0.361c-0.355-0.147-0.69-0.325-1.013-0.514c-10.719-4.331-21.957-7.704-33.613-10.01
	C289.907,74.463,288.035,73.215,286.83,71.412z M44.451,213.92c0.88-4.425,5.177-7.298,9.607-6.42l6.546,1.302
	c1.809-7.526,4.069-14.9,6.715-22.114l-6.172-2.557c-4.169-1.727-6.148-6.507-4.422-10.675c1.727-4.168,6.508-6.148,10.675-4.422
	l6.165,2.553c3.238-6.995,6.868-13.8,10.898-20.38l-5.551-3.709c-3.752-2.507-4.762-7.581-2.255-11.333
	c2.507-3.752,7.58-4.761,11.333-2.255l5.585,3.732c4.527-6.195,9.414-12.158,14.667-17.849l-4.759-4.759
	c-3.191-3.191-3.191-8.364,0-11.554c3.191-3.191,8.364-3.191,11.554,0l4.761,4.759c5.691-5.253,11.653-10.14,17.848-14.667
	l-3.732-5.585c-2.507-3.752-1.498-8.826,2.255-11.333c3.751-2.506,8.826-1.498,11.333,2.255l3.709,5.551
	c6.58-4.03,13.385-7.66,20.38-10.898l-2.553-6.165c-1.727-4.169,0.253-8.948,4.422-10.675c4.169-1.726,8.948,0.252,10.675,4.422
	l2.557,6.172c7.214-2.646,14.588-4.905,22.114-6.715l-1.302-6.546c-0.88-4.426,1.994-8.727,6.42-9.607
	c4.424-0.88,8.727,1.994,9.607,6.42l2.865,14.406c0.423,2.128-0.017,4.335-1.222,6.136c-1.206,1.803-3.079,3.051-5.206,3.473
	c-11.657,2.306-22.895,5.679-33.613,10.01c-0.324,0.19-0.657,0.366-1.012,0.514c-0.366,0.151-0.738,0.265-1.11,0.361
	c-10.388,4.349-20.273,9.606-29.564,15.676c-0.376,0.376-0.792,0.721-1.249,1.027c-0.443,0.295-0.907,0.525-1.381,0.724
	c-9.132,6.194-17.664,13.183-25.505,20.877c-0.31,0.481-0.672,0.94-1.094,1.362s-0.88,0.784-1.362,1.094
	c-7.672,7.819-14.646,16.327-20.829,25.433c-0.205,0.499-0.461,0.987-0.772,1.453c-0.294,0.439-0.632,0.828-0.99,1.191
	c-6.086,9.308-11.357,19.214-15.714,29.623c-0.095,0.373-0.208,0.744-0.359,1.109c-0.149,0.361-0.327,0.699-0.52,1.026
	c-4.329,10.715-7.7,21.948-10.005,33.6c-0.421,2.128-1.67,4-3.473,5.206c-1.354,0.906-2.937,1.379-4.543,1.379
	c-0.532,0-1.065-0.051-1.594-0.157l-14.406-2.865C46.445,222.647,43.571,218.346,44.451,213.92z M355.132,249.456v-16.931
	l-2.431,2.002c-3.018,2.484-7.371,2.484-10.387,0l-2.433-2.001v16.931c0,4.512-3.657,8.17-8.17,8.17c-4.513,0-8.17-3.658-8.17-8.17
	v-34.241c0-3.161,1.824-6.039,4.683-7.389c2.856-1.349,6.238-0.929,8.681,1.082l10.602,8.73l10.602-8.73
	c2.441-2.009,5.824-2.429,8.681-1.082c2.86,1.35,4.683,4.227,4.683,7.389v34.241c0,4.512-3.657,8.17-8.17,8.17
	C358.789,257.627,355.132,253.968,355.132,249.456z M347.506,205.345c-4.805,0-8.715-3.91-8.715-8.715
	c0-4.805,3.91-8.715,8.715-8.715c4.805,0,8.715,3.91,8.715,8.715C356.221,201.435,352.312,205.345,347.506,205.345z
	 M368.433,131.959c-2.867,3.486-8.014,3.988-11.5,1.123C328.594,109.784,292.749,96.953,256,96.953
	c-87.699,0-159.047,71.348-159.047,159.047S168.301,415.047,256,415.047S415.047,343.699,415.047,256
	c0-36.75-12.831-72.595-36.128-100.932c-2.866-3.486-2.364-8.634,1.122-11.5c3.483-2.865,8.634-2.364,11.499,1.122
	c25.696,31.255,39.847,70.785,39.847,111.31c0,96.709-78.679,175.387-175.387,175.387c-96.709,0-175.387-78.678-175.387-175.387
	S159.291,80.613,256,80.613c40.524,0,80.054,14.151,111.31,39.847C370.796,123.324,371.298,128.474,368.433,131.959z"/>
<g>
</g>
<g>
</g>
<g>
</g>
<g>
</g>
<g>
</g>
<g>
</g>
<g>
</g>
<g>
</g>
<g>
</g>
<g>
</g>
<g>
</g>
<g>
</g>
<g>
</g>
<g>
</g>
<g>
</g>
</svg>
