<?xml version="1.0" encoding="UTF-8"?>
<svg xmlns="http://www.w3.org/2000/svg" xmlns:xlink="http://www.w3.org/1999/xlink" width="256px" height="256px" viewBox="0 0 256 256" version="1.1">
<g id="surface1">
<path style=" stroke:none;fill-rule:nonzero;fill:rgb(54.901961%,51.764706%,51.764706%);fill-opacity:1;" d="M 251.914062 128 C 251.914062 196.4375 196.4375 251.914062 128 251.914062 C 59.5625 251.914062 4.085938 196.4375 4.085938 128 C 4.085938 59.5625 59.5625 4.085938 128 4.085938 C 196.4375 4.085938 251.914062 59.5625 251.914062 128 Z M 251.914062 128 "/>
<path style=" stroke:none;fill-rule:nonzero;fill:rgb(98.431373%,80.392157%,9.411765%);fill-opacity:1;" d="M 211.609375 128 C 211.609375 174.175781 174.175781 211.609375 128 211.609375 C 81.824219 211.609375 44.390625 174.175781 44.390625 128 C 44.390625 81.824219 81.824219 44.390625 128 44.390625 C 174.175781 44.390625 211.609375 81.824219 211.609375 128 Z M 211.609375 128 "/>
<path style=" stroke:none;fill-rule:nonzero;fill:rgb(65.882353%,63.529412%,63.529412%);fill-opacity:1;" d="M 224.414062 140.578125 C 223 140.578125 221.628906 139.84375 220.871094 138.535156 C 219.742188 136.578125 220.414062 134.082031 222.367188 132.953125 L 230.945312 128 L 222.367188 123.046875 C 220.410156 121.917969 219.742188 119.421875 220.871094 117.464844 C 222 115.511719 224.496094 114.84375 226.449219 115.972656 L 241.15625 124.460938 C 242.421875 125.191406 243.199219 126.539062 243.199219 128 C 243.199219 129.460938 242.421875 130.808594 241.15625 131.535156 L 226.449219 140.027344 C 225.808594 140.398438 225.105469 140.574219 224.414062 140.578125 Z M 224.414062 140.578125 "/>
<path style=" stroke:none;fill-rule:nonzero;fill:rgb(99.607843%,96.862745%,84.705882%);fill-opacity:1;" d="M 115.914062 73.425781 L 101.441406 107.609375 L 110.507812 107.609375 C 113.492188 107.609375 115.914062 110.027344 115.914062 113.015625 L 115.914062 181.476562 L 140.085938 181.476562 L 140.085938 73.425781 Z M 115.914062 73.425781 "/>
<path style=" stroke:none;fill-rule:nonzero;fill:rgb(0%,0%,0%);fill-opacity:1;" d="M 218.507812 37.492188 C 194.332031 13.3125 162.191406 0 128 0 C 93.808594 0 61.664062 13.3125 37.492188 37.492188 C 13.3125 61.664062 0 93.808594 0 128 C 0 162.191406 13.3125 194.335938 37.492188 218.507812 C 61.664062 242.6875 93.808594 256 128 256 C 162.191406 256 194.332031 242.6875 218.507812 218.507812 C 242.6875 194.335938 256 162.191406 256 128 C 256 93.808594 242.6875 61.664062 218.507812 37.492188 Z M 128 247.828125 C 61.925781 247.828125 8.171875 194.074219 8.171875 128 C 8.171875 61.925781 61.925781 8.171875 128 8.171875 C 194.074219 8.171875 247.828125 61.925781 247.828125 128 C 247.828125 194.074219 194.074219 247.828125 128 247.828125 Z M 115.914062 185.5625 L 140.085938 185.5625 C 142.34375 185.5625 144.171875 183.734375 144.171875 181.476562 L 144.171875 73.425781 C 144.171875 71.167969 142.34375 69.339844 140.085938 69.339844 L 115.914062 69.339844 C 114.273438 69.339844 112.792969 70.320312 112.152344 71.832031 L 97.679688 106.015625 C 97.148438 107.277344 97.28125 108.722656 98.039062 109.863281 C 98.792969 111.007812 100.074219 111.691406 101.441406 111.691406 L 110.507812 111.691406 C 111.238281 111.691406 111.828125 112.285156 111.828125 113.015625 L 111.828125 181.476562 C 111.828125 183.734375 113.65625 185.5625 115.914062 185.5625 Z M 110.507812 103.523438 L 107.609375 103.523438 L 118.621094 77.507812 L 136.003906 77.507812 L 136.003906 177.394531 L 120 177.394531 L 120 113.015625 C 120 107.78125 115.742188 103.523438 110.507812 103.523438 Z M 95.1875 133.929688 L 95.1875 128.8125 L 88.640625 128.8125 L 88.640625 137.964844 C 88.640625 138.507812 89.292969 139.617188 89.765625 139.882812 L 98.066406 144.546875 C 101.132812 146.269531 103.359375 150.074219 103.359375 153.589844 L 103.359375 163.144531 C 103.359375 167.289062 100.09375 170.671875 96 170.886719 L 96 172.738281 C 96 174.992188 94.171875 176.820312 91.914062 176.820312 C 89.660156 176.820312 87.828125 174.992188 87.828125 172.738281 L 87.828125 170.886719 C 83.738281 170.671875 80.472656 167.289062 80.472656 163.144531 L 80.472656 157.621094 C 80.472656 155.363281 82.300781 153.535156 84.558594 153.535156 C 86.8125 153.535156 88.640625 155.363281 88.640625 157.621094 L 88.640625 162.738281 L 91.910156 162.738281 C 91.910156 162.738281 91.914062 162.738281 91.914062 162.738281 C 91.917969 162.738281 91.917969 162.738281 91.921875 162.738281 L 95.1875 162.738281 L 95.1875 153.589844 C 95.1875 153.046875 94.535156 151.933594 94.066406 151.671875 L 85.765625 147.007812 C 82.699219 145.285156 80.472656 141.480469 80.472656 137.964844 L 80.472656 128.40625 C 80.472656 124.261719 83.738281 120.875 87.828125 120.664062 L 87.828125 118.8125 C 87.828125 116.558594 89.660156 114.730469 91.914062 114.730469 C 94.171875 114.730469 96 116.558594 96 118.8125 L 96 120.664062 C 100.09375 120.875 103.359375 124.261719 103.359375 128.40625 L 103.359375 133.929688 C 103.359375 136.183594 101.527344 138.015625 99.273438 138.015625 C 97.015625 138.015625 95.1875 136.183594 95.1875 133.929688 Z M 115.972656 29.550781 L 124.460938 14.84375 C 125.191406 13.578125 126.539062 12.800781 128 12.800781 C 129.460938 12.800781 130.808594 13.578125 131.539062 14.84375 L 140.027344 29.550781 C 141.15625 31.503906 140.488281 34 138.535156 35.128906 C 137.890625 35.5 137.1875 35.675781 136.496094 35.675781 C 135.082031 35.675781 133.710938 34.945312 132.953125 33.632812 L 128 25.054688 L 123.046875 33.632812 C 121.917969 35.589844 119.421875 36.257812 117.464844 35.128906 C 115.511719 34 114.84375 31.503906 115.972656 29.550781 Z M 29.550781 140.027344 L 14.84375 131.539062 C 13.578125 130.808594 12.800781 129.460938 12.800781 128 C 12.800781 126.539062 13.578125 125.191406 14.84375 124.460938 L 29.550781 115.972656 C 31.503906 114.84375 34 115.511719 35.128906 117.46875 C 36.257812 119.421875 35.589844 121.917969 33.632812 123.046875 L 25.054688 128 L 33.632812 132.953125 C 35.589844 134.082031 36.257812 136.578125 35.128906 138.535156 C 34.371094 139.84375 33 140.578125 31.585938 140.578125 C 30.894531 140.578125 30.191406 140.398438 29.550781 140.027344 Z M 140.027344 226.449219 L 131.539062 241.15625 C 130.808594 242.421875 129.460938 243.199219 128 243.199219 C 126.539062 243.199219 125.191406 242.421875 124.460938 241.15625 L 115.972656 226.449219 C 114.84375 224.496094 115.511719 222 117.46875 220.871094 C 119.421875 219.742188 121.917969 220.414062 123.046875 222.367188 L 128 230.945312 L 132.953125 222.367188 C 134.082031 220.410156 136.578125 219.742188 138.535156 220.871094 C 140.488281 222 141.15625 224.496094 140.027344 226.449219 Z M 243.199219 128 C 243.199219 129.460938 242.421875 130.808594 241.15625 131.539062 L 226.449219 140.027344 C 225.808594 140.398438 225.105469 140.574219 224.414062 140.574219 C 223 140.574219 221.628906 139.84375 220.871094 138.53125 C 219.742188 136.578125 220.414062 134.082031 222.367188 132.953125 L 230.945312 128 L 222.367188 123.046875 C 220.410156 121.917969 219.742188 119.421875 220.871094 117.464844 C 222 115.511719 224.496094 114.84375 226.449219 115.972656 L 241.15625 124.460938 C 242.421875 125.191406 243.199219 126.539062 243.199219 128 Z M 233.773438 149.039062 C 233.335938 151.253906 231.183594 152.6875 228.972656 152.25 L 225.699219 151.597656 C 224.792969 155.363281 223.664062 159.046875 222.339844 162.65625 L 225.425781 163.933594 C 227.511719 164.796875 228.5 167.1875 227.636719 169.273438 C 226.984375 170.84375 225.464844 171.792969 223.863281 171.792969 C 223.339844 171.792969 222.8125 171.695312 222.300781 171.484375 L 219.21875 170.207031 C 217.597656 173.703125 215.785156 177.105469 213.769531 180.394531 L 216.542969 182.25 C 218.421875 183.503906 218.925781 186.039062 217.671875 187.917969 C 216.882812 189.097656 215.589844 189.734375 214.269531 189.734375 C 213.492188 189.734375 212.703125 189.511719 212.003906 189.042969 L 209.214844 187.179688 C 206.949219 190.277344 204.507812 193.257812 201.878906 196.101562 L 204.261719 198.484375 C 205.855469 200.078125 205.855469 202.664062 204.261719 204.261719 C 203.460938 205.058594 202.414062 205.457031 201.371094 205.457031 C 200.324219 205.457031 199.28125 205.058594 198.480469 204.261719 L 196.101562 201.878906 C 193.257812 204.507812 190.277344 206.949219 187.179688 209.214844 L 189.042969 212.007812 C 190.296875 213.882812 189.792969 216.417969 187.917969 217.671875 C 187.21875 218.136719 186.429688 218.363281 185.652344 218.363281 C 184.332031 218.363281 183.039062 217.722656 182.25 216.546875 L 180.394531 213.769531 C 177.105469 215.785156 173.703125 217.601562 170.207031 219.21875 L 171.484375 222.300781 C 172.347656 224.386719 171.355469 226.777344 169.273438 227.640625 C 168.761719 227.851562 168.230469 227.949219 167.710938 227.949219 C 166.105469 227.949219 164.585938 227 163.933594 225.429688 L 162.65625 222.34375 C 159.050781 223.664062 155.363281 224.792969 151.597656 225.699219 L 152.25 228.972656 C 152.691406 231.183594 151.253906 233.335938 149.039062 233.777344 C 148.769531 233.828125 148.503906 233.855469 148.238281 233.855469 C 146.328125 233.855469 144.621094 232.511719 144.234375 230.566406 L 142.800781 223.363281 C 142.589844 222.300781 142.808594 221.195312 143.414062 220.296875 C 144.015625 219.394531 144.953125 218.769531 146.015625 218.558594 C 151.84375 217.40625 157.464844 215.71875 162.824219 213.554688 C 162.984375 213.460938 163.152344 213.371094 163.328125 213.296875 C 163.511719 213.222656 163.695312 213.164062 163.882812 213.117188 C 169.078125 210.941406 174.019531 208.316406 178.664062 205.28125 C 178.851562 205.089844 179.0625 204.917969 179.289062 204.765625 C 179.523438 204.609375 179.765625 204.480469 180.015625 204.378906 C 184.570312 201.289062 188.824219 197.800781 192.734375 193.964844 C 192.886719 193.726562 193.070312 193.496094 193.28125 193.285156 C 193.492188 193.074219 193.722656 192.894531 193.960938 192.738281 C 197.796875 188.828125 201.285156 184.574219 204.375 180.019531 C 204.480469 179.769531 204.605469 179.527344 204.761719 179.292969 C 204.914062 179.066406 205.089844 178.859375 205.277344 178.671875 C 208.3125 174.023438 210.941406 169.082031 213.113281 163.886719 C 213.164062 163.703125 213.21875 163.515625 213.292969 163.332031 C 213.367188 163.15625 213.457031 162.988281 213.550781 162.828125 C 215.714844 157.46875 217.402344 151.847656 218.554688 146.019531 C 218.765625 144.957031 219.390625 144.019531 220.292969 143.417969 C 221.195312 142.816406 222.296875 142.59375 223.359375 142.804688 L 230.5625 144.238281 C 232.777344 144.675781 234.214844 146.828125 233.773438 149.039062 Z M 112.585938 220.292969 C 113.1875 221.195312 113.40625 222.300781 113.195312 223.363281 L 111.765625 230.566406 C 111.378906 232.507812 109.671875 233.855469 107.761719 233.855469 C 107.496094 233.855469 107.230469 233.828125 106.960938 233.773438 C 104.746094 233.335938 103.308594 231.183594 103.75 228.972656 L 104.402344 225.699219 C 100.636719 224.792969 96.953125 223.664062 93.34375 222.339844 L 92.066406 225.425781 C 91.414062 227 89.894531 227.949219 88.289062 227.949219 C 87.769531 227.949219 87.238281 227.847656 86.730469 227.636719 C 84.644531 226.773438 83.65625 224.382812 84.519531 222.300781 L 85.792969 219.21875 C 82.296875 217.597656 78.894531 215.785156 75.605469 213.769531 L 73.75 216.542969 C 72.960938 217.722656 71.667969 218.359375 70.347656 218.359375 C 69.570312 218.359375 68.78125 218.136719 68.082031 217.671875 C 66.207031 216.417969 65.703125 213.882812 66.957031 212.003906 L 68.820312 209.210938 C 65.722656 206.949219 62.742188 204.503906 59.898438 201.878906 L 57.515625 204.257812 C 56.71875 205.054688 55.675781 205.453125 54.628906 205.453125 C 53.585938 205.453125 52.539062 205.054688 51.742188 204.257812 C 50.144531 202.664062 50.144531 200.078125 51.742188 198.480469 L 54.121094 196.101562 C 51.492188 193.257812 49.050781 190.273438 46.785156 187.175781 L 43.992188 189.042969 C 43.296875 189.507812 42.507812 189.734375 41.726562 189.734375 C 40.410156 189.734375 39.113281 189.09375 38.328125 187.917969 C 37.074219 186.039062 37.578125 183.503906 39.453125 182.25 L 42.230469 180.394531 C 40.214844 177.105469 38.402344 173.703125 36.78125 170.207031 L 33.699219 171.480469 C 33.1875 171.695312 32.65625 171.792969 32.136719 171.792969 C 30.535156 171.792969 29.015625 170.84375 28.363281 169.269531 C 27.5 167.1875 28.488281 164.796875 30.574219 163.933594 L 33.660156 162.65625 C 32.335938 159.046875 31.207031 155.359375 30.300781 151.597656 L 27.027344 152.25 C 24.816406 152.6875 22.664062 151.253906 22.226562 149.039062 C 21.785156 146.824219 23.222656 144.675781 25.433594 144.234375 L 32.636719 142.804688 C 33.699219 142.589844 34.804688 142.8125 35.707031 143.414062 C 36.605469 144.015625 37.230469 144.953125 37.441406 146.015625 C 38.59375 151.84375 40.28125 157.464844 42.449219 162.824219 C 42.542969 162.984375 42.628906 163.152344 42.703125 163.328125 C 42.78125 163.511719 42.835938 163.699219 42.882812 163.882812 C 45.058594 169.078125 47.6875 174.019531 50.722656 178.667969 C 50.910156 178.855469 51.082031 179.0625 51.234375 179.289062 C 51.390625 179.523438 51.519531 179.765625 51.621094 180.015625 C 54.710938 184.570312 58.199219 188.824219 62.035156 192.734375 C 62.277344 192.886719 62.507812 193.070312 62.71875 193.28125 C 62.929688 193.492188 63.109375 193.71875 63.265625 193.960938 C 67.175781 197.796875 71.429688 201.285156 75.980469 204.375 C 76.230469 204.480469 76.476562 204.605469 76.707031 204.761719 C 76.9375 204.914062 77.144531 205.089844 77.332031 205.277344 C 81.976562 208.308594 86.921875 210.941406 92.113281 213.113281 C 92.300781 213.160156 92.488281 213.21875 92.667969 213.292969 C 92.847656 213.367188 93.011719 213.457031 93.175781 213.550781 C 98.535156 215.714844 104.152344 217.402344 109.980469 218.554688 C 111.046875 218.769531 111.984375 219.390625 112.585938 220.292969 Z M 143.414062 35.707031 C 142.8125 34.804688 142.59375 33.699219 142.804688 32.636719 L 144.238281 25.433594 C 144.675781 23.222656 146.828125 21.785156 149.039062 22.226562 C 151.253906 22.664062 152.691406 24.816406 152.25 27.027344 L 151.597656 30.300781 C 155.363281 31.207031 159.050781 32.335938 162.65625 33.660156 L 163.933594 30.574219 C 164.800781 28.488281 167.191406 27.5 169.273438 28.363281 C 171.355469 29.226562 172.347656 31.617188 171.484375 33.699219 L 170.207031 36.78125 C 173.703125 38.402344 177.105469 40.214844 180.398438 42.230469 L 182.25 39.457031 C 183.503906 37.578125 186.042969 37.074219 187.917969 38.328125 C 189.792969 39.582031 190.296875 42.117188 189.046875 43.996094 L 187.179688 46.785156 C 190.277344 49.050781 193.257812 51.492188 196.101562 54.121094 L 198.484375 51.742188 C 200.078125 50.144531 202.664062 50.144531 204.261719 51.742188 C 205.855469 53.335938 205.855469 55.921875 204.261719 57.519531 L 201.878906 59.898438 C 204.507812 62.742188 206.949219 65.726562 209.214844 68.824219 L 212.007812 66.957031 C 213.882812 65.703125 216.417969 66.207031 217.671875 68.085938 C 218.925781 69.960938 218.421875 72.496094 216.546875 73.75 L 213.769531 75.605469 C 215.785156 78.894531 217.597656 82.296875 219.21875 85.796875 L 222.300781 84.519531 C 224.386719 83.65625 226.777344 84.644531 227.640625 86.730469 C 228.503906 88.816406 227.511719 91.203125 225.429688 92.066406 L 222.34375 93.347656 C 223.664062 96.953125 224.792969 100.640625 225.699219 104.402344 L 228.972656 103.753906 C 231.183594 103.308594 233.335938 104.75 233.777344 106.960938 C 234.214844 109.175781 232.777344 111.324219 230.566406 111.765625 L 223.363281 113.199219 C 223.097656 113.25 222.832031 113.277344 222.566406 113.277344 C 221.761719 113.277344 220.972656 113.039062 220.292969 112.585938 C 219.394531 111.984375 218.769531 111.046875 218.558594 109.984375 C 217.40625 104.15625 215.71875 98.542969 213.554688 93.183594 C 213.457031 93.019531 213.371094 92.851562 213.296875 92.671875 C 213.21875 92.488281 213.164062 92.304688 213.117188 92.117188 C 210.9375 86.910156 208.300781 81.960938 205.257812 77.304688 C 205.078125 77.125 204.910156 76.929688 204.761719 76.710938 C 204.609375 76.476562 204.480469 76.234375 204.378906 75.984375 C 201.285156 71.429688 197.800781 67.175781 193.960938 63.265625 C 193.722656 63.113281 193.492188 62.929688 193.28125 62.71875 C 193.070312 62.507812 192.890625 62.28125 192.734375 62.039062 C 188.816406 58.191406 184.550781 54.695312 179.984375 51.601562 C 179.746094 51.5 179.511719 51.386719 179.292969 51.238281 C 179.0625 51.085938 178.855469 50.910156 178.667969 50.722656 C 174.023438 47.6875 169.078125 45.058594 163.886719 42.886719 C 163.699219 42.839844 163.511719 42.78125 163.328125 42.707031 C 163.152344 42.632812 162.984375 42.542969 162.824219 42.449219 C 157.464844 40.28125 151.84375 38.597656 146.015625 37.445312 C 144.953125 37.230469 144.015625 36.609375 143.414062 35.707031 Z M 22.226562 106.960938 C 22.664062 104.746094 24.8125 103.3125 27.027344 103.75 L 30.300781 104.402344 C 31.207031 100.636719 32.335938 96.949219 33.660156 93.34375 L 30.574219 92.066406 C 28.488281 91.203125 27.5 88.8125 28.363281 86.726562 C 29.226562 84.644531 31.617188 83.652344 33.699219 84.515625 L 36.78125 85.792969 C 38.402344 82.296875 40.214844 78.894531 42.230469 75.601562 L 39.457031 73.75 C 37.578125 72.496094 37.074219 69.957031 38.328125 68.082031 C 39.582031 66.207031 42.117188 65.703125 43.996094 66.953125 L 46.789062 68.820312 C 49.050781 65.722656 51.496094 62.742188 54.121094 59.898438 L 51.742188 57.515625 C 50.144531 55.921875 50.144531 53.335938 51.742188 51.738281 C 53.335938 50.144531 55.921875 50.144531 57.519531 51.738281 L 59.898438 54.121094 C 62.746094 51.492188 65.726562 49.050781 68.824219 46.785156 L 66.957031 43.992188 C 65.703125 42.117188 66.207031 39.582031 68.085938 38.328125 C 69.960938 37.074219 72.496094 37.578125 73.75 39.453125 L 75.605469 42.230469 C 78.894531 40.214844 82.296875 38.398438 85.796875 36.78125 L 84.519531 33.699219 C 83.65625 31.613281 84.644531 29.222656 86.730469 28.359375 C 88.816406 27.496094 91.203125 28.488281 92.066406 30.570312 L 93.347656 33.65625 C 96.953125 32.335938 100.640625 31.207031 104.402344 30.300781 L 103.753906 27.027344 C 103.3125 24.816406 104.75 22.664062 106.960938 22.222656 C 109.175781 21.785156 111.324219 23.222656 111.765625 25.433594 L 113.199219 32.636719 C 113.410156 33.699219 113.191406 34.804688 112.585938 35.703125 C 111.984375 36.605469 111.046875 37.230469 109.984375 37.441406 C 104.15625 38.59375 98.535156 40.28125 93.175781 42.445312 C 93.015625 42.542969 92.847656 42.628906 92.671875 42.703125 C 92.488281 42.777344 92.300781 42.835938 92.117188 42.882812 C 86.921875 45.058594 81.980469 47.6875 77.335938 50.722656 C 77.148438 50.910156 76.9375 51.082031 76.710938 51.234375 C 76.488281 51.382812 76.257812 51.496094 76.019531 51.597656 C 71.453125 54.695312 67.1875 58.1875 63.265625 62.035156 C 63.113281 62.277344 62.929688 62.507812 62.71875 62.71875 C 62.507812 62.929688 62.28125 63.109375 62.039062 63.265625 C 58.203125 67.171875 54.714844 71.425781 51.625 75.980469 C 51.523438 76.230469 51.394531 76.472656 51.238281 76.707031 C 51.089844 76.925781 50.921875 77.121094 50.742188 77.300781 C 47.699219 81.957031 45.066406 86.910156 42.886719 92.113281 C 42.839844 92.300781 42.78125 92.484375 42.707031 92.667969 C 42.632812 92.847656 42.542969 93.019531 42.445312 93.179688 C 40.28125 98.539062 38.597656 104.15625 37.445312 109.980469 C 37.234375 111.046875 36.609375 111.980469 35.707031 112.585938 C 35.03125 113.039062 34.238281 113.273438 33.4375 113.273438 C 33.171875 113.273438 32.902344 113.25 32.640625 113.195312 L 25.4375 111.761719 C 23.222656 111.324219 21.785156 109.171875 22.226562 106.960938 Z M 177.566406 124.726562 L 177.566406 116.261719 L 176.351562 117.261719 C 174.839844 118.503906 172.664062 118.503906 171.15625 117.261719 L 169.941406 116.261719 L 169.941406 124.726562 C 169.941406 126.984375 168.113281 128.8125 165.855469 128.8125 C 163.597656 128.8125 161.769531 126.984375 161.769531 124.726562 L 161.769531 107.609375 C 161.769531 106.027344 162.683594 104.589844 164.113281 103.914062 C 165.539062 103.238281 167.230469 103.449219 168.453125 104.453125 L 173.753906 108.820312 L 179.054688 104.453125 C 180.273438 103.449219 181.964844 103.238281 183.394531 103.914062 C 184.824219 104.589844 185.738281 106.027344 185.738281 107.609375 L 185.738281 124.726562 C 185.738281 126.984375 183.90625 128.8125 181.652344 128.8125 C 179.394531 128.8125 177.566406 126.984375 177.566406 124.726562 Z M 173.753906 102.671875 C 171.351562 102.671875 169.394531 100.71875 169.394531 98.316406 C 169.394531 95.914062 171.351562 93.957031 173.753906 93.957031 C 176.15625 93.957031 178.109375 95.914062 178.109375 98.316406 C 178.109375 100.71875 176.15625 102.671875 173.753906 102.671875 Z M 184.214844 65.980469 C 182.78125 67.722656 180.210938 67.972656 178.464844 66.539062 C 164.296875 54.890625 146.375 48.476562 128 48.476562 C 84.152344 48.476562 48.476562 84.152344 48.476562 128 C 48.476562 171.847656 84.152344 207.523438 128 207.523438 C 171.847656 207.523438 207.523438 171.847656 207.523438 128 C 207.523438 109.625 201.109375 91.703125 189.460938 77.535156 C 188.027344 75.789062 188.277344 73.21875 190.019531 71.785156 C 191.761719 70.351562 194.335938 70.601562 195.769531 72.34375 C 208.617188 87.972656 215.695312 107.738281 215.695312 128 C 215.695312 176.355469 176.355469 215.695312 128 215.695312 C 79.644531 215.695312 40.304688 176.355469 40.304688 128 C 40.304688 79.644531 79.644531 40.304688 128 40.304688 C 148.261719 40.304688 168.027344 47.382812 183.65625 60.230469 C 185.398438 61.660156 185.648438 64.238281 184.214844 65.980469 Z M 184.214844 65.980469 "/>
</g>
</svg>
