<?xml version="1.0" encoding="UTF-8"?><svg id="a" xmlns="http://www.w3.org/2000/svg" viewBox="0 0 1999.44 1999.44"><defs><style>.b{fill:#23b7a5;}.c{fill:#f5941f;}.d{opacity:.35;}.e{fill:#e51e25;}.f{fill:#e1ca20;}</style></defs><g class="d"><ellipse class="b" cx="1062.31" cy="1012.39" rx="663.5" ry="584.47"/><path class="f" d="M1650.74,1544.72l-173.9,299.8c149-85.28,273.01-209.27,359.06-358.13,.15-.26,.3-.52,.45-.78l-40.04-191.81-145.56,250.93Z"/><path class="c" d="M1796.3,1293.79l40.04,191.81c82.25-142.62,129.68-308.05,129.87-484.73l-169.91,292.91Z"/><path class="b" d="M696.02,1423.64c-87.88-56.5-167.35-143.59-202.11-242.86-40.85-116.64-49.97-252.78,1.34-367.74,35.36-79.25,95.69-145.35,163.91-197.91,23.51-18.11,48.17-34.81,73.82-49.74,6.74-3.95,21.74-16.25,30.04-16.25h1.39l-248.75-390.2L218.66,677.26,33.23,1000.88l315.47,543.84,173.9,299.8,216.08-397.79c-15.07-5.8-29.36-14.52-42.67-23.1Z"/><path class="c" d="M81.57,696.91c-31.13,95.34-48.39,196.99-48.39,302.81l.05,1.16,185.43-323.62-137.09,19.65Z"/><path class="f" d="M515.64,158.93C312.22,277.65,156.15,468.71,81.57,696.91l137.09-19.65L515.64,158.93Z"/><path class="f" d="M33.23,1000.88c.19,177,47.79,342.72,130.32,485.51,54.02,18.87,124.91,42.41,185.15,58.33L33.23,1000.88Z"/><path class="c" d="M163.55,1486.39c86.05,148.86,210.06,272.84,359.06,358.13l-173.9-299.8c-60.24-15.92-131.14-39.46-185.15-58.33Z"/><path class="e" d="M998.95,158.86l484.85,.07C1341.66,75.98,1176.68,28.12,1000.49,27.73h0c-.26-.01-.51,0-.77,0-.26,0-.51,0-.77,0h0c-176.19,.4-341.17,48.26-483.31,131.21l483.31-.07Z"/><polygon class="b" points="1235.04 549.14 1483.8 158.93 998.95 158.86 515.64 158.93 764.4 549.14 1235.04 549.14"/><path class="b" d="M1483.8,158.93l-248.75,390.2h1.39c8.3,0,23.29,12.3,30.04,16.25,25.64,14.94,50.3,31.64,73.82,49.74,68.22,52.56,128.54,118.66,163.91,197.91,51.31,114.96,42.19,251.11,1.34,367.74-34.76,99.27-114.23,186.36-202.11,242.86-13.31,8.58-27.6,17.3-42.67,23.1l216.08,397.79,173.9-299.8,315.47-543.84-185.43-323.62L1483.8,158.93Z"/><path class="f" d="M1780.78,677.26l185.43,323.62,.05-1.16c0-105.82-17.26-207.48-48.39-302.81l-137.09-19.65Z"/><path class="c" d="M1780.78,677.26l137.09,19.65c-74.58-228.19-230.65-419.26-434.07-537.97l296.98,518.32Z"/><path class="e" d="M998.95,1846.93h0l-476.34-2.41c140.58,80.47,303.05,126.81,476.34,127.19h0c.26,.01,.51,0,.77,0s.51,0,.77,0h0c173.29-.39,335.76-46.72,476.34-127.2l-477.88,2.41Z"/><path class="b" d="M1250.91,1450.21l-251.19,.92-251.19-.92c-3.34-.93-6.59-2.22-9.84-3.47l-216.08,397.79,476.34,2.4h0l477.88-2.4-216.08-397.79c-3.26,1.25-6.51,2.55-9.84,3.47Z"/></g><g><path class="e" d="M216.53,874.77h127.2c30.4,0,57.26,5.8,80.6,17.4,23.33,11.6,41.46,27.94,54.4,49,12.93,21.07,19.4,45.6,19.4,73.6s-6.47,52.54-19.4,73.6c-12.94,21.07-31.07,37.4-54.4,49-23.34,11.6-50.2,17.4-80.6,17.4h-127.2v-280Zm124,226.8c28,0,50.33-7.8,67-23.4,16.66-15.6,25-36.73,25-63.4s-8.34-47.8-25-63.4c-16.67-15.6-39-23.4-67-23.4h-59.2v173.6h59.2Z"/><path class="c" d="M600.92,927.57h-89.6v-52.8h244v52.8h-89.6v227.2h-64.8v-227.2Z"/><path class="c" d="M1006.92,1102.77v52h-216.8v-280h211.6v52h-147.2v60.8h130v50.4h-130v64.8h152.4Z"/><path class="c" d="M1086.32,1150.57c-20.67-6-37.27-13.8-49.8-23.4l22-48.8c12,8.8,26.26,15.87,42.8,21.2,16.53,5.34,33.06,8,49.6,8,18.4,0,32-2.73,40.8-8.2,8.8-5.46,13.2-12.73,13.2-21.8,0-6.66-2.6-12.2-7.8-16.6-5.2-4.4-11.87-7.93-20-10.6-8.14-2.66-19.14-5.6-33-8.8-21.34-5.06-38.8-10.13-52.4-15.2-13.6-5.06-25.27-13.2-35-24.4-9.74-11.2-14.6-26.13-14.6-44.8,0-16.26,4.4-31,13.2-44.2,8.8-13.2,22.06-23.66,39.8-31.4,17.73-7.73,39.4-11.6,65-11.6,17.86,0,35.33,2.14,52.4,6.4,17.06,4.27,32,10.4,44.8,18.4l-20,49.2c-25.87-14.66-51.74-22-77.6-22-18.14,0-31.54,2.94-40.2,8.8-8.67,5.87-13,13.6-13,23.2s5,16.74,15,21.4c10,4.67,25.26,9.27,45.8,13.8,21.33,5.07,38.8,10.14,52.4,15.2,13.6,5.07,25.26,13.07,35,24,9.73,10.94,14.6,25.74,14.6,44.4,0,16-4.47,30.6-13.4,43.8-8.94,13.2-22.34,23.67-40.2,31.4-17.87,7.73-39.6,11.6-65.2,11.6-22.14,0-43.54-3-64.2-9Z"/><path class="c" d="M1367.72,927.57h-89.6v-52.8h244v52.8h-89.6v227.2h-64.8v-227.2Z"/><path class="e" d="M1727.32,1094.77h-130l-24.8,60h-66.4l124.8-280h64l125.2,280h-68l-24.8-60Zm-20.4-49.2l-44.4-107.2-44.4,107.2h88.8Z"/></g></svg>