<svg id="Layer_1" data-name="Layer 1" xmlns="http://www.w3.org/2000/svg" xmlns:xlink="http://www.w3.org/1999/xlink" viewBox="0 0 255 255"><defs><style>.cls-1{fill:#06768d;}.cls-2{fill:url(#linear-gradient);}.cls-3{fill:#22bc29;}.cls-4{fill:none;}</style><linearGradient id="linear-gradient" x1="127" y1="61.79" x2="125.03" y2="193.24" gradientUnits="userSpaceOnUse"><stop offset="0" stop-color="#a67a90"/><stop offset="0.01" stop-color="#ab7d90"/><stop offset="0.1" stop-color="#c88d90"/><stop offset="0.16" stop-color="#d39390"/><stop offset="0.17" stop-color="#d69690"/><stop offset="0.3" stop-color="#eeb091"/><stop offset="0.38" stop-color="#f7ba91"/><stop offset="0.59" stop-color="#fec480"/><stop offset="0.88" stop-color="#fcfb91"/><stop offset="0.99" stop-color="#fdffb3"/></linearGradient></defs><path class="cls-1" d="M129,255.16a19.39,19.39,0,0,1-9.71-2.61L26.45,198.79a19.54,19.54,0,0,1-9.71-16.87V74.4a19.54,19.54,0,0,1,9.71-16.87L119.26,3.77a19.37,19.37,0,0,1,19.42,0L231.5,57.53a19.54,19.54,0,0,1,9.71,16.87V181.92a19.54,19.54,0,0,1-9.71,16.87l-92.82,53.76A19.36,19.36,0,0,1,129,255.16Z" transform="translate(-0.75 -0.66)"/><path d="M129,1.66a18.92,18.92,0,0,1,9.46,2.54L231.25,58a19.06,19.06,0,0,1,9.46,16.44V181.92a19.06,19.06,0,0,1-9.46,16.44l-92.82,53.76a18.87,18.87,0,0,1-18.91,0L26.7,198.36a19,19,0,0,1-9.46-16.44V74.4A19,19,0,0,1,26.7,58L119.52,4.2A18.91,18.91,0,0,1,129,1.66m0-1a19.83,19.83,0,0,0-10,2.68L26.2,57.1a20,20,0,0,0-10,17.3V181.92a20,20,0,0,0,10,17.3L119,253a19.85,19.85,0,0,0,19.92,0l92.82-53.76a20,20,0,0,0,10-17.3V74.4a20,20,0,0,0-10-17.3L138.93,3.34A19.8,19.8,0,0,0,129,.66Z" transform="translate(-0.75 -0.66)"/><ellipse class="cls-2" cx="126.01" cy="127.94" rx="65.06" ry="65.27"/><path d="M126.76,63.82A64.78,64.78,0,1,1,62.2,128.6a64.75,64.75,0,0,1,64.56-64.78m0-1a65.78,65.78,0,1,0,65.57,65.78,65.67,65.67,0,0,0-65.57-65.78Z" transform="translate(-0.75 -0.66)"/><path class="cls-3" d="M126.46,193.54c0-.21,0-.56.06-1,.93-14.19.68-22.12-.75-24.24-3-4.43-10.82-8.06-15.21-9.83l-.24-.09v0l-.1,0c-10.78-3-17.75-8.11-20.71-15.25-4.49-10.8-2.89-18.63-2.31-20.72,1.17,2,6,8.93,17,9.27,14.31.44,18.7,13.23,21.9,22.57.74,2.15,1.43,4.17,2.16,5.79l.64,1.41-.16-1.54c0-.34-3.32-34,19.58-39.81,18.86-4.76,24.21-12.81,25.48-15.42,5.37,35-13.75,42.44-26.45,47.39-2.15.84-4.18,1.63-5.81,2.46-13.83,7.06-10.34,34.85-9.73,39.07Z" transform="translate(-0.75 -0.66)"/><path d="M173.7,105.4c5,34.15-13.88,41.49-26.41,46.38-2.16.84-4.2,1.63-5.83,2.47-13.67,7-10.63,33.83-9.9,39h-4.84c0-.21,0-.47,0-.75.93-14.24.67-22.22-.8-24.39-3-4.49-10.9-8.14-15.31-9.92l-.16-.06,0,0-.21,0c-10.69-3-17.61-8-20.54-15.11-4.12-9.91-3.07-17.31-2.44-20,1.61,2.5,6.59,8.57,16.93,8.89,14.14.43,18.5,13.13,21.68,22.4.73,2.15,1.43,4.18,2.17,5.81l1.27,2.82-.32-3.08a63.05,63.05,0,0,1,1.11-17.69c2.64-12.1,8.79-19.45,18.28-21.85,17.52-4.42,23.47-11.71,25.29-14.88m.24-1.69s-3.27,10.44-25.66,16.09c-23.37,5.9-19.76,40.07-19.76,40.07-3.87-8.54-6.45-28-24.28-28.5-12.83-.4-17.11-9.66-17.11-9.66s-3.21,8.58,2.14,21.46c3.75,9,13,13.21,20.87,15.39,0,.06,11.64,4.29,15.42,9.87,2.45,3.61.56,25.33.64,25.36h5.93c0-.06-5.16-31.59,9.55-39.09,11-5.62,39.12-8.88,32.26-51Z" transform="translate(-0.75 -0.66)"/><path d="M128.86,161.31l-.15-.62h0a30.47,30.47,0,0,1,16.16-24.06,22.27,22.27,0,0,1,3.53-1.38c1.24-.3,2.45-.58,3.64-.85a22.85,22.85,0,0,0,6.78-2.79,19.66,19.66,0,0,0,8.75-11.49h.1a20,20,0,0,1-8.58,11.9,23.36,23.36,0,0,1-6.89,3c-1.23.31-2.43.61-3.6.92a20.65,20.65,0,0,0-3.37,1.4,25.76,25.76,0,0,0-5.92,4.28,38.46,38.46,0,0,0-4.75,5.59,34.4,34.4,0,0,0-3.59,6.41,30.29,30.29,0,0,0-2.1,7h0l.09.63Z" transform="translate(-0.75 -0.66)"/><path d="M128.86,160.8a39.2,39.2,0,0,0-3.41-5.05,36.89,36.89,0,0,0-4.08-4.48,33,33,0,0,0-10-6.71,21.82,21.82,0,0,0-2.84-1c-1-.31-2-.59-2.95-.89a31.58,31.58,0,0,1-5.67-2.44,23.47,23.47,0,0,1-5-3.66,15.36,15.36,0,0,1-3.55-5l.1,0a15,15,0,0,0,3.65,4.82,23.52,23.52,0,0,0,5,3.44,30.8,30.8,0,0,0,5.63,2.26c1,.27,1.94.52,2.94.82a21.66,21.66,0,0,1,2.95,1,29.2,29.2,0,0,1,10.36,6.74,33.37,33.37,0,0,1,3.94,4.78,27.61,27.61,0,0,1,2.94,5.42Z" transform="translate(-0.75 -0.66)"/><path d="M139.81,139.86a35.16,35.16,0,0,0,2-4.91,17.43,17.43,0,0,0,.66-2.58,8.78,8.78,0,0,0,.1-2.66,8.67,8.67,0,0,1,.15,2.69,19.93,19.93,0,0,1-.42,2.68,37.12,37.12,0,0,1-1.6,5.2Z" transform="translate(-0.75 -0.66)"/><path d="M147.23,135.43a42.85,42.85,0,0,1,5.66.67,23.13,23.13,0,0,1,2.75.72,5.67,5.67,0,0,1,2.43,1.44,5.65,5.65,0,0,0-2.5-1.2,21.32,21.32,0,0,0-2.75-.46,40.21,40.21,0,0,0-5.59-.17Z" transform="translate(-0.75 -0.66)"/><path d="M161.05,129.83a7.43,7.43,0,0,0,.3-1.39,6.92,6.92,0,0,0,.06-1.44,4.66,4.66,0,0,0-1-2.72,4.88,4.88,0,0,1,1.51,2.64,8.12,8.12,0,0,1,.2,1.56,8.71,8.71,0,0,1-.08,1.6Z" transform="translate(-0.75 -0.66)"/><path d="M121.53,151.07a20.26,20.26,0,0,0-4.73.12,9,9,0,0,0-2.29.63,4.26,4.26,0,0,0-1.86,1.45,4.4,4.4,0,0,1,1.75-1.67,9.57,9.57,0,0,1,2.29-.9,20.12,20.12,0,0,1,4.9-.62Z" transform="translate(-0.75 -0.66)"/><path d="M113,145.13a20.58,20.58,0,0,1-1.77-4,8.92,8.92,0,0,1-.45-2.11,3.69,3.69,0,0,1,.34-2.1A3.57,3.57,0,0,0,111,139a9.51,9.51,0,0,0,.66,2,20.66,20.66,0,0,0,2.13,3.57Z" transform="translate(-0.75 -0.66)"/><path d="M104.5,142.53a12.84,12.84,0,0,0-3.65.21,5.41,5.41,0,0,0-1.71.63,2.67,2.67,0,0,0-1.2,1.36A2.78,2.78,0,0,1,99,143.16a6.11,6.11,0,0,1,1.71-.91,14,14,0,0,1,3.82-.72Z" transform="translate(-0.75 -0.66)"/><path class="cls-4" d="M.75,124.28c206.64-.13,255,1.37,255,1.37" transform="translate(-0.75 -0.66)"/></svg>