<svg width="256" height="256" viewBox="0 0 256 256" fill="none" xmlns="http://www.w3.org/2000/svg">
<g clip-path="url(#clip0_1733_8721)">
<path d="M255.93 127.98C255.93 169.43 255.9 210.89 255.99 252.34C255.99 255.07 255.73 256.01 252.53 256C169.46 255.87 86.38 255.88 3.31 255.98C0.46 255.98 0.05 255.29 0.05 252.62C0.13 169.55 0.15 86.48 0 3.41C0 -0.02 1.25 0.05 3.76 0.05C86.67 0.1 169.58 0.11 252.49 0C255.58 0 256.01 0.77 256 3.62C255.89 45.07 255.93 86.53 255.93 127.98ZM135.41 205.01C140.27 206.37 140.72 203.67 140.58 199.72C140.49 197.11 138.82 193.22 143.14 192.33C159.95 188.88 171.43 178.2 180.39 164.53C188.04 152.86 191.73 139.75 190.71 125.74C190.35 120.82 188.83 115.68 188.76 110.97C188.68 104.82 197.23 106.94 200.41 102.98C200.58 102.76 201.02 102.78 201.28 102.61C207.89 98.27 211.85 91.63 211.69 84.28C211.54 77.37 209.03 70.16 201.41 66.82C199.79 66.11 198.21 65.2 196.36 66.09C199 67.83 194.51 69.97 196.99 72.35C200.09 75.32 199.34 79.27 197.43 83.07C192.83 92.22 182.68 93.74 176.28 86.24C168.53 77.16 159.66 69.08 147.87 66.27C141.06 64.64 139.67 61.48 140.43 55.58C140.87 52.11 140.91 49.59 135.65 49.6C130.38 49.61 130.06 51.84 130.48 55.75C130.64 57.23 130.51 58.73 130.5 60.23C130.5 61.57 130.68 62.94 128.56 62.81C127.07 62.72 125.87 62.3 125.61 60.76C125.39 59.47 125.55 58.11 125.52 56.79C125.44 53.29 127.01 49.56 120.42 49.58C113.51 49.6 115.35 53.89 115.71 57.01C116.27 61.99 114.52 63.98 109.73 65.31C96.93 68.86 86.7 76.34 78.73 87.05C77.56 88.63 77.03 91.47 74.53 91.53C68.59 91.67 63.38 89.19 60.28 84.35C57.64 80.25 57.83 75.34 61 71.02C61.92 69.77 64.9 69.16 62.93 66.85C61.34 64.99 58.93 65.36 56.95 66.22C49.78 69.33 46.57 75.43 45.98 82.72C44.86 96.53 54.22 102.66 65.13 107.19C67.44 108.15 67.79 108.48 67.13 111.13C64.96 119.86 64.16 128.64 65.66 137.78C69.97 164.06 84.35 182.01 109.19 191.09C114.63 193.08 116.47 195.39 115.58 200.64C115.05 203.77 115.87 204.99 119.61 205.32C125.59 205.85 126.03 203.03 125.59 198.47C125.42 196.68 124.35 193.94 128.25 194.11C131.91 194.27 130.19 196.84 130.45 198.43C130.96 201.55 128.55 206.62 135.39 204.99L135.41 205.01Z" fill="white"/>
<path d="M135.41 205C128.57 206.63 130.97 201.56 130.47 198.44C130.21 196.86 131.93 194.28 128.27 194.12C124.37 193.95 125.44 196.69 125.61 198.48C126.05 203.04 125.61 205.86 119.63 205.33C115.89 205 115.07 203.78 115.6 200.65C116.49 195.4 114.65 193.08 109.21 191.1C84.3701 182.02 69.9901 164.07 65.6801 137.79C64.1801 128.65 64.9801 119.86 67.1501 111.14C67.8101 108.49 67.4601 108.16 65.1501 107.2C54.2401 102.68 44.8801 96.5499 46.0001 82.7299C46.5901 75.4399 49.8001 69.3399 56.9701 66.2299C58.9501 65.3699 61.3701 64.9999 62.9501 66.8599C64.9301 69.1699 61.9401 69.7799 61.0201 71.0299C57.8501 75.3499 57.6601 80.2599 60.3001 84.3599C63.4101 89.1999 68.6101 91.6799 74.5501 91.5399C77.0401 91.4799 77.5801 88.6299 78.7501 87.0599C86.7201 76.3499 96.9501 68.8699 109.75 65.3199C114.54 63.9899 116.29 61.9899 115.73 57.0199C115.38 53.8999 113.53 49.6099 120.44 49.5899C127.03 49.5699 125.45 53.2999 125.54 56.7999C125.57 58.1299 125.41 59.4799 125.63 60.7699C125.89 62.3099 127.09 62.7299 128.58 62.8199C130.7 62.9499 130.52 61.5799 130.52 60.2399C130.52 58.7499 130.66 57.2399 130.5 55.7599C130.07 51.8499 130.4 49.6199 135.67 49.6099C140.93 49.5999 140.9 52.1199 140.45 55.5899C139.69 61.4899 141.08 64.6499 147.89 66.2799C159.68 69.0899 168.55 77.1799 176.3 86.2499C182.7 93.7399 192.85 92.2199 197.45 83.0799C199.36 79.2799 200.11 75.3199 197.01 72.3599C194.53 69.9799 199.01 67.8399 196.38 66.0999C198.23 65.2099 199.81 66.1199 201.43 66.8299C209.05 70.1699 211.56 77.3799 211.71 84.2899C211.87 91.6399 207.91 98.2799 201.3 102.62C201.04 102.79 200.6 102.77 200.43 102.99C197.26 106.95 188.7 104.83 188.78 110.98C188.84 115.69 190.37 120.83 190.73 125.75C191.75 139.77 188.06 152.88 180.41 164.54C171.44 178.21 159.97 188.89 143.16 192.34C138.84 193.23 140.5 197.12 140.6 199.73C140.74 203.69 140.29 206.38 135.43 205.02L135.41 205ZM177.82 107.98C176.68 108.17 175.55 108.48 174.4 108.52C173.16 108.57 171.91 108.37 170.66 108.27C171.72 107.98 172.77 107.67 173.83 107.41C182.88 105.17 190.85 100.74 198.18 95.1299C205.01 89.9099 208.33 79.6299 204.99 74.3499C204.14 73.0099 203.09 71.1099 201.23 71.9399C200.23 72.3899 200.89 74.1799 201.05 75.4799C201.99 82.9699 199.87 88.7099 192.36 92.1899C184.74 95.7199 177.01 94.9099 169.27 93.9399C167.19 93.6799 164.63 94.7099 162.78 92.5499C157.87 86.8099 151.79 82.5399 144.59 80.4599C139.23 78.9099 137.58 75.9299 138.46 70.8599C139 67.7299 137.91 66.7499 134.53 66.6199C127.85 66.3499 131.41 71.1699 130.49 73.7499C130.02 75.0699 131.78 77.5199 128.96 77.5899C126.37 77.6499 126.5 75.4599 126.52 73.5999C126.52 72.9399 126.47 72.2699 126.52 71.6099C126.8 68.5299 126.69 66.4999 122.32 66.5699C118.03 66.6299 118.18 68.8499 118.59 71.5199C119.35 76.3699 117.91 79.3199 112.68 80.1499C106.07 81.1899 101.12 85.5699 95.7001 89.0399C93.6801 90.3399 93.5001 93.2399 90.4901 93.7199C84.6001 94.6599 78.7101 94.7799 72.8101 94.5999C61.4001 94.2399 53.4501 84.7699 56.3101 74.8799C56.6901 73.5499 56.9301 72.4399 56.6101 71.1599C55.3501 71.8599 53.5901 72.2499 52.9301 73.3199C50.8101 76.7599 49.6501 81.6599 51.4201 84.4499C58.3501 95.3999 67.5301 104.02 80.9801 106.6C81.6301 106.72 82.9301 106.22 82.6701 107.55C82.4501 108.66 81.4301 108.09 80.6401 108.01C79.4801 107.9 78.1901 106.66 77.1401 108.26C80.9701 107.76 81.1901 113.19 84.9701 112.98C86.3301 112.9 87.7201 113.52 89.1001 113.83C88.2901 115.11 86.8201 115.08 85.6701 115.67C83.1001 116.98 80.7601 118.74 78.3901 120.41C77.2301 121.23 76.6101 123.2 78.5601 122.68C83.4301 121.39 87.9801 128.15 92.8201 122.99C93.3301 122.44 94.6801 122.64 95.6401 122.6C95.7701 122.6 96.1301 123.41 96.0301 123.51C93.0001 126.52 90.3901 130.46 85.0701 128.57C83.1301 127.88 81.1301 127.35 79.1501 126.75C79.1001 129.18 78.9601 131.61 79.0301 134.03C79.0601 135.13 79.6501 136.21 79.7401 137.32C81.0901 153.74 97.6101 174.53 113.75 177.38C119.89 178.46 118.97 180.61 118.53 184.26C118.2 187.04 118.8 188.36 122.14 188.34C125.46 188.31 127.03 187.71 126.61 184.03C126.47 182.8 125.32 180.43 128.21 180.29C129.16 180.24 130.97 180.53 130.97 180.66C130.96 182.4 130.52 184.14 130.53 185.87C130.57 190.15 133.88 187.73 135.69 188.14C138.94 188.88 138.64 186.36 138.4 184.45C138.2 182.87 139.87 180.15 136.18 180.2C135.1 180.21 133.54 181.86 132.99 179.74C132.92 179.46 135.07 178.67 136.12 177.99C137.18 177.3 138.15 176.47 139.15 175.7C137.81 174.72 136.78 175.91 135.6 176.12C134.84 176.25 133.92 175.48 133.07 175.11C133.77 174.74 134.51 174.41 135.17 173.98C135.82 173.56 136.41 173.05 137.02 172.57C136.37 172.47 135.32 172.59 135.14 172.24C132.25 166.87 125.33 169.42 121.74 165.4C121.19 164.79 119.79 164.75 120.18 163.57C120.28 163.27 121.92 163.05 122.5 163.4C126.69 165.9 130.76 165.21 134.94 163.4C135.75 163.05 136.89 163.45 137.88 163.51C137.18 164.09 136.57 164.87 135.76 165.2C133.73 166.02 132.43 167.39 134.09 169.2C136.12 171.4 139.16 170.85 141.37 169.65C144.86 167.76 146.58 164.25 145.27 160.43C144.1 157.02 141.62 159.8 139.71 160.16C138.6 160.37 137.5 160.67 136.38 160.8C135.98 160.85 135.38 160.64 135.14 160.34C134.38 159.36 135.44 159.45 135.9 159.3C139.04 158.26 137.79 156.65 136.71 154.73C135.29 152.2 133.76 149.57 134.47 146.43C134.69 145.46 133.76 143.91 135.57 143.76C135.79 143.74 136.39 145.34 136.39 146.2C136.4 150.34 138.58 153.58 140.62 156.88C141.11 157.68 141.89 158.82 142.93 158.09C144.11 157.27 142.76 156.41 142.47 155.57C141.44 152.53 140.39 149.5 139.46 146.43C139.3 145.9 139.72 145.19 139.87 144.57C140.36 144.85 141.14 145.02 141.29 145.42C144.79 154.6 154.99 163.61 142.09 173.34C141.22 174 141.15 175.71 140.7 176.94C141.99 177.39 143.16 177.32 144.48 176.72C163.33 168.15 174.49 154.25 176.44 133.06C177.03 126.62 176.11 126.72 170.94 128.99C167.05 130.7 165.11 126.43 162.62 124.3C162.2 123.94 162.04 123.26 161.76 122.73C164.47 121.47 165.82 124.44 167.95 124.69C169.37 124.86 170.88 124.12 172.37 123.91C174.57 123.59 176.55 121.68 178.93 122.85C179.7 123.23 180.49 123.84 180.94 122.94C181.15 122.52 180.48 121.5 180.02 120.91C177.82 118.07 174.24 117.41 171.4 115.58C170.71 115.14 169.07 113.79 170.18 113.89C174.41 114.28 175.03 108.94 178.79 109.19C179.47 108.8 180.15 108.4 180.83 108.01C179.8 106.95 178.77 107.69 177.73 107.99L177.82 107.98ZM74.2001 106.97C74.4001 107.16 74.5601 107.45 74.7401 107.46C75.0001 107.48 75.2801 107.29 75.5401 107.19C75.3801 107.01 75.2301 106.69 75.0601 106.68C74.7901 106.67 74.5101 106.85 74.1901 106.97H74.2001Z" fill="#37B44C"/>
<path d="M178.87 109.18C175.12 108.93 174.49 114.27 170.26 113.88C169.15 113.78 170.8 115.12 171.48 115.57C174.32 117.41 177.9 118.07 180.1 120.9C180.56 121.5 181.24 122.51 181.02 122.93C180.56 123.83 179.77 123.22 179.01 122.84C176.63 121.67 174.65 123.57 172.45 123.9C170.96 124.12 169.45 124.85 168.03 124.68C165.9 124.43 164.54 121.45 161.84 122.72C162.12 123.25 162.27 123.93 162.7 124.29C165.19 126.41 167.13 130.69 171.02 128.98C176.19 126.7 177.11 126.6 176.52 133.05C174.56 154.25 163.41 168.14 144.56 176.71C143.23 177.31 142.07 177.38 140.78 176.93C141.22 175.71 141.3 173.99 142.17 173.33C155.06 163.6 144.87 154.6 141.37 145.41C141.22 145 140.44 144.84 139.95 144.56C139.8 145.18 139.38 145.89 139.54 146.42C140.46 149.49 141.51 152.52 142.55 155.56C142.84 156.4 144.18 157.25 143.01 158.08C141.97 158.81 141.19 157.67 140.7 156.87C138.66 153.57 136.48 150.33 136.47 146.19C136.47 145.34 135.87 143.73 135.65 143.75C133.83 143.9 134.77 145.45 134.55 146.42C133.84 149.56 135.36 152.18 136.79 154.72C137.87 156.64 139.11 158.25 135.98 159.29C135.52 159.44 134.46 159.35 135.22 160.33C135.45 160.63 136.06 160.84 136.46 160.79C137.58 160.66 138.68 160.36 139.79 160.15C141.7 159.79 144.18 157 145.35 160.42C146.66 164.24 144.94 167.75 141.45 169.64C139.24 170.84 136.2 171.39 134.17 169.19C132.5 167.38 133.81 166 135.84 165.19C136.64 164.87 137.26 164.08 137.96 163.5C136.97 163.44 135.83 163.04 135.02 163.39C130.84 165.2 126.77 165.89 122.58 163.39C122 163.05 120.36 163.26 120.26 163.56C119.86 164.75 121.27 164.78 121.82 165.39C125.41 169.41 132.33 166.86 135.22 172.23C135.41 172.58 136.45 172.46 137.1 172.56C136.48 173.03 135.9 173.55 135.25 173.97C134.58 174.4 133.85 174.73 133.15 175.1C134 175.47 134.92 176.24 135.68 176.11C136.86 175.91 137.88 174.71 139.23 175.69C138.22 176.46 137.26 177.3 136.2 177.98C135.15 178.66 133 179.45 133.07 179.73C133.63 181.85 135.18 180.2 136.26 180.19C139.95 180.14 138.28 182.86 138.48 184.44C138.73 186.35 139.02 188.87 135.77 188.13C133.96 187.72 130.65 190.14 130.61 185.86C130.59 184.12 131.03 182.39 131.05 180.65C131.05 180.53 129.24 180.24 128.29 180.28C125.4 180.42 126.55 182.79 126.69 184.02C127.12 187.7 125.55 188.3 122.22 188.33C118.89 188.36 118.28 187.04 118.61 184.25C119.05 180.6 119.97 178.45 113.83 177.37C97.69 174.52 81.17 153.73 79.82 137.31C79.73 136.2 79.14 135.12 79.11 134.02C79.04 131.6 79.17 129.17 79.23 126.74C81.2 127.34 83.2 127.88 85.15 128.56C90.47 130.45 93.08 126.51 96.11 123.5C96.2 123.41 95.84 122.59 95.72 122.59C94.76 122.63 93.41 122.44 92.9 122.98C88.06 128.15 83.52 121.39 78.64 122.67C76.69 123.19 77.31 121.22 78.47 120.4C80.84 118.73 83.19 116.97 85.75 115.66C86.9 115.07 88.37 115.09 89.18 113.82C87.8 113.52 86.41 112.89 85.05 112.97C81.28 113.19 81.05 107.76 77.22 108.25C78.27 106.66 79.56 107.9 80.72 108C81.51 108.07 82.53 108.65 82.75 107.54C83.01 106.21 81.71 106.71 81.06 106.59C67.61 104.01 58.43 95.3899 51.5 84.4399C49.73 81.6499 50.89 76.7499 53.01 73.3099C53.67 72.2399 55.43 71.8499 56.69 71.1499C57.01 72.4299 56.78 73.5399 56.39 74.8699C53.54 84.7599 61.48 94.2399 72.89 94.5899C78.79 94.7699 84.68 94.6499 90.57 93.7099C93.57 93.2299 93.75 90.3199 95.78 89.0299C101.2 85.5599 106.14 81.1699 112.76 80.1399C118 79.3199 119.43 76.3699 118.67 71.5099C118.25 68.8399 118.11 66.6199 122.4 66.5599C126.76 66.4999 126.88 68.5199 126.6 71.5999C126.54 72.2599 126.6 72.9299 126.6 73.5899C126.58 75.4499 126.45 77.6499 129.04 77.5799C131.86 77.5099 130.1 75.0599 130.57 73.7399C131.5 71.1599 127.93 66.3399 134.61 66.6099C137.99 66.7499 139.08 67.7299 138.54 70.8499C137.67 75.9199 139.31 78.8999 144.67 80.4499C151.86 82.5199 157.95 86.7999 162.86 92.5399C164.7 94.6899 167.26 93.6699 169.35 93.9299C177.09 94.8999 184.82 95.7099 192.44 92.1799C199.96 88.6899 202.08 82.9599 201.13 75.4699C200.97 74.1699 200.31 72.3799 201.31 71.9299C203.17 71.0999 204.23 72.9999 205.07 74.3399C208.4 79.6199 205.09 89.8899 198.26 95.1199C190.93 100.73 182.96 105.15 173.91 107.4C172.85 107.66 171.8 107.97 170.74 108.26C171.99 108.35 173.23 108.55 174.48 108.51C175.62 108.47 176.76 108.16 177.9 107.97C178.25 108.37 178.6 108.77 178.95 109.17L178.87 109.18ZM110.27 93.7199C105.71 94.2299 97.28 90.3999 101.63 101.2C101.69 101.34 101.61 101.53 101.6 101.69C101.53 102.95 101.47 104.21 101.4 105.46C103.68 105.47 103.63 103.35 104.33 102.05C104.76 101.25 104.41 100.07 104.67 99.1399C105.5 96.1499 107.98 98.2099 109.63 97.6699C109.97 97.5599 110.54 98.1299 111.01 98.3799C106.38 100.2 107.29 106.94 102.97 108.33C96.08 110.54 98.14 113.72 101.14 117.37C103.73 120.52 108.45 121.89 108.79 127.01C108.87 128.2 110.71 128.67 112.14 128.48C112.76 128.39 113.37 128.23 113.99 128.1C113.57 127.71 113.21 127.13 112.71 126.96C110.79 126.31 108.98 125.62 108.86 123.17C110.62 123.69 112.39 124.17 114.14 124.74C114.92 125 115.64 125.45 116.39 125.81C115.92 125.03 115.62 124 114.94 123.5C111.81 121.18 108.47 119.14 105.44 116.71C104.34 115.83 101.65 113.96 103.05 113.14C109.42 109.43 109.78 95.7099 121.92 101.55C122.44 101.8 123.32 101.3 124.03 101.14C123.62 100.67 123.29 99.9599 122.78 99.7899C121.75 99.4299 120.39 99.7499 120.1 98.1799C121.28 97.9999 122.5 97.9199 123.64 97.6099C124.88 97.2699 126.95 98.7199 127.13 96.4099C127.17 95.9199 124.79 94.8999 123.45 94.7199C119.09 94.1399 114.75 92.9999 110.28 93.7199H110.27ZM147.84 93.6399C143.6 93.7599 139.37 93.4199 135.16 94.5599C133.37 95.0399 130.22 94.7199 130.25 96.2899C130.3 98.3799 133.19 97.3899 134.89 97.6499C135.6 97.7599 136.29 97.9799 136.99 98.1499C136.59 98.6299 136.28 99.3299 135.76 99.5499C134.7 99.9999 132.81 99.3899 133.25 101.42C133.31 101.69 135.81 101.81 136.99 101.42C140.94 100.12 144.74 99.4399 147.12 103.84C148.95 107.23 150 111.01 154.19 112.6C156.29 113.4 154.19 114.35 153.68 114.74C150.23 117.37 146.63 119.82 143.17 122.45C142.46 122.99 142.11 123.99 141.6 124.78C141.99 124.99 142.37 125.35 142.77 125.37C147.41 125.62 159.23 115.89 159.77 111.58C159.92 110.41 159.26 110.7 158.77 110.61C152.21 109.4 151.89 102.06 147.27 98.8899C146.08 98.0699 147.29 97.8199 148.11 97.6399C152.25 96.7199 152.83 99.5199 153.51 102.5C153.76 103.61 153.99 105.12 155.57 105.37C155.78 105.4 156.33 104.73 156.32 104.41C156.14 100.8 156.37 97.2599 157.75 93.8699C154.78 93.7999 151.81 93.7299 148.84 93.6599C148.51 93.6599 148.18 93.6599 147.85 93.6399H147.84ZM108.49 162.2C109.58 168.45 114.19 171.76 118.36 175.12C119.55 176.08 123.32 177.7 124.04 175.73C124.93 173.3 121.32 172.55 119.45 171.3C118.79 170.86 117.88 170.76 117.29 170.26C113.41 166.9 109.08 163.68 113.74 157.79C116.95 153.72 117.31 148.58 118.53 143.78C118.68 143.19 118.38 142.49 118.29 141.84C117.86 142.07 117.1 142.25 117.04 142.55C115.73 149.84 110.13 155.31 108.48 162.2H108.49ZM111.83 148.6C105.8 143.12 103.53 135.01 100.04 127.53C99.83 127.09 98.99 126.94 98.45 126.65C98.19 127.34 97.65 128.06 97.72 128.71C98.69 137.69 102.21 145.17 110.41 149.82C110.77 150.02 110.98 150.49 111.26 150.84C111.38 150.37 111.5 149.9 111.83 148.6ZM159.19 128.16C159.29 128.42 158.98 127.58 158.67 126.75C158.25 127.11 157.67 127.38 157.43 127.84C154.05 134.48 151.72 141.69 146.57 147.37C146.18 147.79 146.61 148.96 146.66 149.77C147.18 149.55 147.74 149.4 148.21 149.11C155.51 144.55 158.95 137.79 159.19 128.17V128.16ZM119.63 160.42C120.19 160.31 121.07 160.13 121.96 159.95C121.63 159.69 121.34 159.31 120.97 159.2C118.21 158.38 119.36 157.22 120.39 155.62C122.32 152.62 123.16 149.16 123.48 145.61C123.54 144.98 123 143.78 122.61 143.73C121.4 143.56 121.68 144.72 121.56 145.46C120.93 149.28 120.59 153.15 117.46 156.06C116.52 156.94 114.48 157.6 115.25 159.36C115.99 161.03 117.88 160.15 119.62 160.42H119.63ZM136.95 121.6C141.71 119.52 135.68 116.08 138.33 113.77C138.76 113.39 138.5 111.14 137.4 111.79C135.53 112.88 133.02 114.84 132.97 116.5C132.92 118.17 135.54 119.92 136.96 121.59L136.95 121.6ZM125.7 116.36C123.85 114.61 121.47 111.7 120.98 111.99C117.98 113.77 122.97 117.41 119.65 119.7C119.27 119.96 119.59 121.54 120.72 121.37C123.55 120.95 122.68 117.17 125.7 116.35V116.36ZM127.64 107.57C126.68 107.92 124.81 107.11 125.31 108.43C125.9 109.97 127.71 112.01 129.02 112.03C130.29 112.05 132.88 109.39 132.64 108.59C131.81 105.82 128.95 110 127.64 107.58V107.57ZM133.91 125.19C132 123.61 130.76 121.81 129.55 121.83C128.35 121.85 126 124.19 126.2 124.67C127.25 127.22 129.67 123.08 131.25 125.34C131.44 125.61 132.46 125.3 133.91 125.2V125.19ZM148.97 128.07C147.51 127.35 146.88 126.82 146.21 126.77C145.57 126.72 144.88 127.15 144.21 127.37C144.82 127.75 145.4 128.29 146.06 128.44C146.68 128.58 147.4 128.3 148.96 128.07H148.97ZM167.9 119.37C167.51 119.04 167.32 118.75 167.15 118.76C166.51 118.78 165.88 118.91 165.25 119C165.44 119.13 165.62 119.34 165.81 119.36C166.43 119.41 167.05 119.38 167.9 119.38V119.37ZM162.83 120.09L162.39 119.93L162.35 120.12L162.83 120.08V120.09Z" fill="white"/>
<path d="M177.82 107.98C178.85 107.68 179.89 106.94 180.92 108C180.24 108.39 179.56 108.79 178.88 109.18C178.53 108.78 178.18 108.38 177.83 107.98H177.82Z" fill="white"/>
<path d="M74.2 106.97C74.51 106.85 74.8 106.66 75.07 106.68C75.24 106.68 75.39 107.01 75.55 107.19C75.28 107.29 75.01 107.48 74.75 107.46C74.57 107.45 74.4 107.16 74.21 106.97H74.2Z" fill="white"/>
<path d="M110.27 93.7201C114.75 93.0001 119.08 94.1401 123.44 94.7201C124.78 94.9001 127.16 95.9201 127.12 96.4101C126.95 98.7101 124.87 97.2601 123.63 97.6101C122.48 97.9301 121.27 98.0001 120.09 98.1801C120.38 99.7501 121.74 99.4301 122.77 99.7901C123.28 99.9701 123.61 100.68 124.02 101.14C123.31 101.29 122.43 101.8 121.91 101.55C109.76 95.7101 109.41 109.43 103.04 113.14C101.64 113.95 104.33 115.82 105.43 116.71C108.46 119.14 111.8 121.18 114.93 123.5C115.61 124 115.91 125.03 116.38 125.81C115.63 125.45 114.91 125 114.13 124.74C112.39 124.17 110.62 123.69 108.85 123.17C108.97 125.62 110.78 126.31 112.7 126.96C113.2 127.13 113.56 127.71 113.98 128.1C113.36 128.23 112.75 128.39 112.13 128.48C110.7 128.68 108.86 128.2 108.78 127.01C108.45 121.89 103.73 120.52 101.13 117.37C98.1399 113.73 96.0699 110.54 102.96 108.33C107.28 106.95 106.37 100.2 111 98.3801C110.53 98.1201 109.97 97.5501 109.62 97.6701C107.97 98.2101 105.49 96.1401 104.66 99.1401C104.4 100.08 104.75 101.26 104.32 102.05C103.61 103.35 103.67 105.47 101.39 105.46C101.46 104.2 101.52 102.94 101.59 101.69C101.59 101.52 101.67 101.34 101.62 101.2C97.2799 90.3901 105.7 94.2201 110.26 93.7201H110.27Z" fill="#37B44C"/>
<path d="M147.84 93.6599C148.17 93.6599 148.5 93.6599 148.83 93.6599C151.8 93.7299 154.77 93.7999 157.74 93.8699C156.36 97.2599 156.14 100.8 156.31 104.41C156.33 104.73 155.77 105.4 155.56 105.37C153.98 105.12 153.75 103.61 153.5 102.5C152.82 99.5199 152.24 96.7199 148.1 97.6399C147.28 97.8199 146.07 98.0699 147.26 98.8899C151.88 102.06 152.2 109.4 158.76 110.61C159.24 110.7 159.91 110.41 159.76 111.58C159.21 115.89 147.4 125.62 142.76 125.37C142.36 125.35 141.98 124.98 141.59 124.78C142.1 123.99 142.45 122.98 143.16 122.45C146.62 119.83 150.21 117.38 153.67 114.74C154.18 114.35 156.28 113.39 154.18 112.6C149.99 111.01 148.94 107.23 147.11 103.84C144.73 99.4499 140.93 100.12 136.98 101.42C135.8 101.81 133.29 101.7 133.24 101.42C132.81 99.3899 134.7 99.9999 135.75 99.5499C136.27 99.3299 136.57 98.6299 136.98 98.1499C136.28 97.9799 135.59 97.7599 134.88 97.6499C133.18 97.3899 130.29 98.3899 130.24 96.2899C130.2 94.7199 133.36 95.0399 135.15 94.5599C139.36 93.4299 143.6 93.7599 147.84 93.6599Z" fill="#37B44C"/>
<path d="M108.48 162.2C110.13 155.31 115.73 149.84 117.04 142.55C117.09 142.25 117.85 142.08 118.29 141.84C118.38 142.49 118.68 143.19 118.53 143.78C117.31 148.58 116.95 153.72 113.74 157.79C109.09 163.68 113.41 166.9 117.29 170.26C117.87 170.76 118.79 170.87 119.45 171.3C121.32 172.54 124.93 173.3 124.04 175.73C123.32 177.7 119.55 176.08 118.36 175.12C114.19 171.76 109.58 168.45 108.49 162.2H108.48Z" fill="#37B44C"/>
<path d="M111.82 148.6C111.49 149.9 111.37 150.37 111.25 150.84C110.97 150.49 110.76 150.03 110.4 149.82C102.2 145.16 98.6801 137.69 97.7101 128.71C97.6401 128.06 98.1801 127.34 98.4401 126.65C98.9901 126.94 99.8301 127.08 100.03 127.53C103.52 135.01 105.8 143.12 111.82 148.6Z" fill="#37B44C"/>
<path d="M159.18 128.16C158.93 137.78 155.49 144.54 148.2 149.1C147.73 149.39 147.17 149.54 146.65 149.76C146.6 148.94 146.18 147.78 146.56 147.36C151.71 141.69 154.04 134.47 157.42 127.83C157.65 127.38 158.24 127.1 158.66 126.74C158.97 127.58 159.28 128.42 159.18 128.15V128.16Z" fill="#37B44C"/>
<path d="M119.63 160.42C117.89 160.15 116 161.03 115.26 159.36C114.48 157.6 116.53 156.94 117.47 156.06C120.59 153.14 120.94 149.27 121.57 145.46C121.69 144.73 121.41 143.56 122.62 143.73C123.01 143.79 123.55 144.98 123.49 145.61C123.17 149.15 122.33 152.61 120.4 155.62C119.37 157.22 118.22 158.38 120.98 159.2C121.35 159.31 121.64 159.7 121.97 159.95C121.08 160.13 120.2 160.3 119.64 160.42H119.63Z" fill="#37B44C"/>
<path d="M136.95 121.59C135.53 119.92 132.91 118.16 132.96 116.5C133.01 114.84 135.52 112.88 137.39 111.79C138.5 111.14 138.76 113.39 138.32 113.77C135.68 116.08 141.7 119.51 136.94 121.6L136.95 121.59Z" fill="#37B44C"/>
<path d="M125.7 116.35C122.68 117.17 123.55 120.94 120.72 121.37C119.6 121.54 119.27 119.96 119.65 119.7C122.97 117.41 117.97 113.77 120.98 111.99C121.47 111.7 123.85 114.6 125.7 116.36V116.35Z" fill="#37B44C"/>
<path d="M127.64 107.56C128.95 109.98 131.81 105.8 132.64 108.57C132.88 109.38 130.29 112.03 129.02 112.01C127.71 111.99 125.9 109.95 125.31 108.41C124.81 107.09 126.68 107.9 127.64 107.55V107.56Z" fill="#37B44C"/>
<path d="M133.92 125.18C132.48 125.28 131.45 125.59 131.26 125.32C129.68 123.06 127.25 127.2 126.21 124.65C126.01 124.17 128.37 121.83 129.56 121.81C130.77 121.79 132 123.6 133.92 125.17V125.18Z" fill="#37B44C"/>
<path d="M148.97 128.07C147.41 128.29 146.69 128.58 146.07 128.44C145.41 128.29 144.83 127.74 144.22 127.37C144.89 127.15 145.57 126.72 146.22 126.77C146.89 126.82 147.51 127.35 148.98 128.07H148.97Z" fill="#37B44C"/>
<path d="M167.9 119.37C167.05 119.37 166.42 119.4 165.81 119.35C165.61 119.34 165.44 119.12 165.25 118.99C165.88 118.9 166.52 118.78 167.15 118.75C167.32 118.75 167.51 119.03 167.9 119.36V119.37Z" fill="#37B44C"/>
<path d="M162.84 120.09L162.36 120.12L162.4 119.93L162.84 120.09Z" fill="#37B44C"/>
</g>
<defs>
<clipPath id="clip0_1733_8721">
<rect width="256" height="256" fill="white"/>
</clipPath>
</defs>
</svg>
