<svg width="256" height="256" viewBox="0 0 256 256" fill="none" xmlns="http://www.w3.org/2000/svg">
<circle cx="128" cy="128" r="128" fill="url(#paint0_radial_1_34)"/>
<path d="M125.118 199.571L125.171 170.359C125.17 169.849 125.034 169.349 124.779 168.908C124.524 168.467 124.157 168.101 123.715 167.846L93.5239 150.349C93.0813 150.093 92.5793 149.959 92.0682 149.959C91.5572 149.959 91.0551 150.093 90.6125 150.349L65.2832 164.901C64.8454 165.158 64.4824 165.525 64.2301 165.965C63.9779 166.406 63.8452 166.904 63.8452 167.412C63.8452 167.919 63.9779 168.418 64.2301 168.858C64.4824 169.299 64.8454 169.665 65.2832 169.922L120.76 202.069C121.201 202.321 121.7 202.454 122.208 202.454C122.715 202.453 123.214 202.32 123.655 202.068C124.095 201.815 124.462 201.452 124.719 201.014C124.975 200.576 125.113 200.079 125.118 199.571V199.571Z" fill="white"/>
<path d="M89.3339 143.049L89.397 108.161C89.3957 107.652 89.2605 107.151 89.005 106.71C88.7496 106.269 88.3828 105.903 87.9413 105.648L62.6605 90.9985C62.2196 90.744 61.7196 90.6095 61.2104 90.6085C60.7012 90.6075 60.2007 90.7401 59.7588 90.9929C59.3168 91.2457 58.949 91.6099 58.6918 92.0493C58.4347 92.4886 58.2973 92.9877 58.2934 93.4967L58.1818 157.602C58.1823 158.112 58.3173 158.614 58.573 159.056C58.8287 159.498 59.1963 159.865 59.6388 160.12C60.0813 160.375 60.5832 160.509 61.094 160.509C61.6048 160.509 62.1066 160.375 62.5489 160.119L87.8831 145.567C88.3243 145.311 88.6906 144.944 88.9453 144.502C89.1999 144.06 89.3339 143.559 89.3339 143.049V143.049Z" fill="white"/>
<path d="M190.584 165.122L165.304 150.472C164.861 150.217 164.359 150.082 163.848 150.082C163.337 150.082 162.835 150.217 162.392 150.472L132.138 167.858C131.697 168.112 131.331 168.478 131.075 168.918C130.82 169.358 130.684 169.857 130.682 170.366L130.634 199.578C130.636 200.085 130.772 200.583 131.026 201.021C131.281 201.46 131.646 201.825 132.084 202.079C132.523 202.334 133.021 202.469 133.528 202.472C134.035 202.475 134.535 202.345 134.976 202.096L190.56 170.143C190.999 169.888 191.364 169.523 191.618 169.084C191.873 168.645 192.008 168.147 192.01 167.639C192.013 167.132 191.883 166.633 191.632 166.191C191.382 165.749 191.021 165.381 190.584 165.122Z" fill="white"/>
<path d="M65.4403 86.2226L90.7211 100.872C91.1637 101.128 91.6657 101.262 92.1768 101.262C92.6879 101.262 93.1899 101.128 93.6325 100.872L123.887 83.4867C124.328 83.2323 124.694 82.8669 124.949 82.4268C125.205 81.9868 125.34 81.4875 125.343 80.9788L125.391 51.7665C125.388 51.2594 125.253 50.7618 124.998 50.3231C124.744 49.8845 124.379 49.5198 123.94 49.2655C123.501 49.0111 123.004 48.8757 122.497 48.8728C121.989 48.8699 121.49 48.9995 121.048 49.2489L65.45 81.2019C65.0117 81.4579 64.648 81.8239 64.3949 82.2638C64.1417 82.7036 64.0081 83.202 64.0071 83.7095C64.0061 84.2169 64.1379 84.7158 64.3893 85.1567C64.6407 85.5975 65.003 85.965 65.4403 86.2226V86.2226Z" fill="white"/>
<path d="M130.904 51.776L130.851 80.9883C130.852 81.4979 130.987 81.9982 131.243 82.4391C131.498 82.8801 131.865 83.2463 132.307 83.5011L162.498 100.998C162.94 101.254 163.443 101.388 163.954 101.388C164.465 101.388 164.967 101.254 165.409 100.998L190.739 86.4456C191.176 86.1888 191.539 85.822 191.792 85.3817C192.044 84.9413 192.177 84.4427 192.177 83.9352C192.177 83.4278 192.044 82.9292 191.792 82.4888C191.539 82.0484 191.176 81.6817 190.739 81.4249L135.252 49.273C134.811 49.023 134.313 48.8924 133.806 48.8941C133.299 48.8957 132.802 49.0296 132.363 49.2824C131.923 49.5352 131.558 49.8982 131.302 50.3356C131.046 50.7729 130.909 51.2695 130.904 51.776V51.776Z" fill="white"/>
<path d="M166.692 108.308L166.629 143.201C166.631 143.709 166.767 144.209 167.023 144.649C167.278 145.089 167.644 145.454 168.085 145.709L193.366 160.363C193.807 160.618 194.308 160.753 194.817 160.753C195.327 160.754 195.828 160.621 196.27 160.368C196.712 160.114 197.08 159.749 197.336 159.309C197.593 158.869 197.73 158.37 197.733 157.86L197.82 93.7552C197.816 93.2485 197.68 92.7516 197.426 92.3136C197.171 91.8756 196.806 91.5116 196.367 91.2578C195.929 91.004 195.431 90.8691 194.924 90.8664C194.418 90.8637 193.919 90.9933 193.477 91.2425L168.143 105.795C167.703 106.051 167.337 106.417 167.082 106.858C166.828 107.299 166.693 107.799 166.692 108.308Z" fill="white"/>
<defs>
<radialGradient id="paint0_radial_1_34" cx="0" cy="0" r="1" gradientUnits="userSpaceOnUse" gradientTransform="translate(68.4463 42.8463) rotate(56.9519) scale(253.492)">
<stop stop-color="#CECED1"/>
<stop offset="1" stop-color="#545961"/>
</radialGradient>
</defs>
</svg>
