<svg xmlns="http://www.w3.org/2000/svg" xmlns:xlink="http://www.w3.org/1999/xlink" width="256" height="256" viewBox="0 0 256 256"><defs><clipPath id="a"><circle cx="128" cy="128" r="128" fill="none"/></clipPath><linearGradient id="b" x1="-0.108" y1="0.5" x2="1.123" y2="0.5" gradientUnits="objectBoundingBox"><stop offset="0" stop-color="#424242"/><stop offset="0.536" stop-color="#535353"/><stop offset="1" stop-color="#a4a4a4"/></linearGradient></defs><g clip-path="url(#a)"><rect width="259.08" height="259.08" transform="translate(-1.94 -1.55)" fill="url(#b)"/><path d="M171.11,142.57a31.224,31.224,0,0,0-22.76-9.52,1.21,1.21,0,1,1,0-2.42,30.8,30.8,0,0,0,22.76-9.39,31.86,31.86,0,0,0,.41-45.06c-.14-.14-.27-.28-.41-.41a31.215,31.215,0,0,0-22.76-9.51H81.45a70.958,70.958,0,0,1,21.01,14.79,74.968,74.968,0,0,1,8.72,10.51h27.78a6.584,6.584,0,0,1,0,13.16H118.39a69.663,69.663,0,0,1,5.17,26.82,70.534,70.534,0,0,1-5.07,26.81h20.47a6.584,6.584,0,0,1,0,13.16H111.97a78.133,78.133,0,0,1-9.28,11.1,72.378,72.378,0,0,1-21.65,15.21h67.3a30.757,30.757,0,0,0,22.76-9.39,31.854,31.854,0,0,0,.42-45.04l-.42-.42" fill="#fff"/><path d="M98.68,84.98C85.71,71.89,69.97,65.24,52,65.24H35.5v61.73H67.29a5.234,5.234,0,0,1,5.3,4.61,5.06,5.06,0,0,1-5.04,5.51H35.5v61.73H52c18.12,0,33.83-6.57,46.68-19.53,12.99-13.1,19.57-29.01,19.57-47.28s-6.58-33.99-19.57-47.09" fill="#fff"/><path d="M215.34,85.62c-12.8-12.85-28.22-19.37-45.92-19.37h-1.3a39.663,39.663,0,0,1,6.43,5.2,37.536,37.536,0,0,1,.43,53.07c-.14.14-.28.29-.43.43h11.32a6.584,6.584,0,0,1,0,13.16H174.34l.13.13a38.164,38.164,0,0,1,.44,53.98c-.15.15-.29.3-.44.44a39.81,39.81,0,0,1-6.41,5.16h1.36c18.07,0,33.1-6.27,45.92-19.17s19.26-28.48,19.26-46.43-6.48-33.38-19.26-46.24" fill="#fff"/></g></svg>