<?xml version="1.0" encoding="UTF-8"?>
<svg width="256px" height="256px" viewBox="0 0 256 256" version="1.1" xmlns="http://www.w3.org/2000/svg" xmlns:xlink="http://www.w3.org/1999/xlink">
    <title>Group 4</title>
    <defs>
        <linearGradient x1="100%" y1="50%" x2="0%" y2="50%" id="linearGradient-1">
            <stop stop-color="#1D9DD8" offset="0%"></stop>
            <stop stop-color="#0D73CB" offset="100%"></stop>
        </linearGradient>
    </defs>
    <g id="Page-2" stroke="none" stroke-width="1" fill="none" fill-rule="evenodd">
        <g id="Group-4">
            <circle id="Oval" fill="url(#linearGradient-1)" cx="128" cy="128" r="128"></circle>
            <g id="Group" transform="translate(18.151171, 17.466221)" fill="#000000">
                <circle id="Oval" cx="110.619398" cy="110.619398" r="110.619398"></circle>
            </g>
            <g id="usdt" transform="translate(18.151171, 17.294983)" fill-rule="nonzero">
                <path d="M221.752508,110.876343 C221.752508,172.112992 172.113564,221.752508 110.876763,221.752508 C49.6415625,221.752508 0,172.112992 0,110.876343 C0,49.6403899 49.6415625,0 110.876763,0 C172.113564,0 221.752508,49.6403899 221.752508,110.876343 Z" id="Path" fill="#1BA27A"></path>
                <polygon id="Path" fill="#FFFFFF" points="164.045485 54.9672241 58.9056856 54.9672241 58.9056856 80.412439 98.7843992 80.412439 98.7843992 117.811371 124.16712 117.811371 124.16712 80.412439 164.045485 80.412439"></polygon>
                <path d="M111.818582,122.714906 C78.8881044,122.714906 52.1896249,117.492006 52.1896249,111.04729 C52.1896249,104.60397 78.886712,99.3796751 111.818582,99.3796751 C144.749757,99.3796751 171.446983,104.60397 171.446983,111.04729 C171.446983,117.492006 144.749757,122.714906 111.818582,122.714906 Z M178.771906,112.992707 C178.771906,104.682819 148.796183,97.9478261 111.818582,97.9478261 C74.8423739,97.9478261 44.864214,104.682819 44.864214,112.992707 C44.864214,120.310348 68.1085406,126.406871 98.9099798,127.757777 L98.9099798,181.340468 L124.246097,181.340468 L124.246097,127.778711 C155.284947,126.469671 178.771906,120.348029 178.771906,112.992707 Z" id="Shape" fill="#FFFFFF"></path>
            </g>
        </g>
    </g>
</svg>