<svg width="256" height="256" viewBox="0 0 256 256" fill="none" xmlns="http://www.w3.org/2000/svg">
<g clip-path="url(#clip0_288_1763)">
<path d="M127.86 256.11C198.552 256.11 255.86 198.803 255.86 128.11C255.86 57.4177 198.552 0.110107 127.86 0.110107C57.1674 0.110107 -0.140137 57.4177 -0.140137 128.11C-0.140137 198.803 57.1674 256.11 127.86 256.11Z" fill="#FFFF00"/>
<path d="M231.66 128.13C231.69 145.96 228.24 162.25 219.98 177.36C212.99 190.16 203.35 200.65 191.78 209.43C180.24 218.18 167.68 224.92 153.57 228.57C136.66 232.94 119.79 232.4 102.95 228.13C84.6401 223.48 68.4501 214.98 54.9501 201.65C38.8801 185.78 29.1201 166.61 25.4801 144.35C16.6901 90.6901 49.9001 48.6001 86.2101 32.5201C95.8801 28.2401 106.07 26.0001 116.56 25.1001C131.52 23.8201 146.27 25.0601 160.68 29.3501C196.55 40.0301 223.57 70.6601 229.8 107.51C230.99 114.57 231.59 121.69 231.66 128.13ZM214.69 127.84C214.79 79.9301 176.23 41.0201 128.5 40.8701C80.5501 40.7301 41.5401 79.6001 41.4001 127.66C41.2501 175.27 79.9501 213.96 128.76 213.96C175.53 213.97 214.59 174.94 214.69 127.84Z" fill="black"/>
<path d="M128.1 196.92C90.4602 196.89 58.5802 164.81 58.6202 127.01C58.6602 89.75 90.1802 58.09 127.18 58.16C166.68 58.23 197.47 89.08 197.41 128.53C197.35 165.02 164.99 196.95 128.1 196.92ZM128.11 144.62C137.69 144.64 145.32 136.96 145.33 127.28C145.34 118.11 137.2 110.01 127.96 110C118.96 109.99 110.88 118.08 110.87 127.13C110.86 136.54 118.81 144.61 128.11 144.62Z" fill="black"/>
</g>
<defs>
<clipPath id="clip0_288_1763">
<rect width="256" height="256" fill="white"/>
</clipPath>
</defs>
</svg>
