<svg width="256" height="256" viewBox="0 0 256 256" fill="none" xmlns="http://www.w3.org/2000/svg">
<path d="M128 256C57.3 256 0 198.7 0 128C0 57.3 57.3 0 128 0C198.7 0 256 57.3 256 128C256 198.7 198.7 256 128 256Z" fill="url(#paint0_linear_10_23)"/>
<path fill-rule="evenodd" clip-rule="evenodd" d="M137.3 128.1C136.9 127.7 136.5 127.4 136 127.1C136.091 127.032 136.187 126.964 136.284 126.895C136.616 126.659 136.968 126.409 137.2 126.1C138.255 125.065 139.314 124.029 140.374 122.993C144.638 118.825 148.915 114.645 153 110.4C161.6 101.5 164.9 90.8 162.5 78.7C158.9 59.9 140.7 47.5 121.9 51C108.6 53.4 99.4 61.3 94.9 73.8C90.4 86.3 92.7 98 101.1 108.3C103.351 111.002 105.884 113.478 108.403 115.941C109.241 116.759 110.077 117.577 110.9 118.4C123.499 130.899 136.098 143.498 148.697 156.097L148.7 156.1C150.2 157.6 152.3 158.2 154.3 157.8C155.8 157.5 157.1 156.7 158 155.5L209.6 104C211.9 101.6 215.1 100.2 218.5 100.3C223.1 100.2 227.3 103.1 229 107.4C230.9 111.8 229.9 116.9 226.5 120.2L155 191.7C153.5 193.1 152.5 193.1 151 191.7L136 176.7C122.45 163.2 108.925 149.675 95.4007 136.151C81.8755 122.625 68.3502 109.1 54.8 95.6C44.8 85.6 29.7 86 20.4 96.4C12.2 105.6 12.6 119.7 21.4 128.4L96.4 203.4C96.7 203.7 97 204 97.4 204.3C97.9 204.7 98.5 205 99.2 205.2C102.3 206.1 105.6 204.3 106.5 201.2C107.2 198.6 106.2 196.6 104.4 194.8L29.9 120.3C25.3 115.8 25.3 108.4 29.9 103.8C34.4 99.2 41.8 99.2 46.4 103.8C53.2343 110.609 60.0687 117.425 66.9062 124.244C87.3812 144.662 107.884 165.109 128.5 185.5C131.2 188.2 133.9 190.925 136.601 193.651C139.3 196.375 142 199.1 144.7 201.8C149.6 206.8 156.7 206.8 161.6 201.9C186 177.5 210.4 153.1 234.7 128.7C240.9 122.4 243 114.8 241 106.2C238.5 95.8 229.1 88.4 218.4 88.5C211.8 88.5 205.6 91.1 201 95.8L155.3 141.4C153.4 143.3 152.5 143.3 150.6 141.4C149.137 139.937 147.674 138.463 146.208 136.986C143.263 134.019 140.304 131.037 137.3 128.1ZM128.9 117.8L128 118.7C127.967 118.667 127.933 118.644 127.9 118.622C127.833 118.578 127.767 118.533 127.7 118.4C125.945 116.645 124.17 114.908 122.398 113.173C118.414 109.275 114.437 105.383 110.7 101.3C104.6 94.6 102.9 86.7 105.8 78.1C108.7 69.5 114.9 64.2 123.9 62.5C136.7 60 149.3 69.1 151.1 82.1C152.4 89.6 149.8 97.2 144.3 102.4L128.9 117.8ZM139.8 85.7C139.8 79.2 134.6 73.9 128.1 73.9L127.7 74C121.3 74.1 116.2 79.3 116.3 85.7C116.3 92.1 121.5 97.4 128 97.4C134.5 97.4 139.8 92.2 139.8 85.7Z" fill="white"/>
<defs>
<linearGradient id="paint0_linear_10_23" x1="38.6264" y1="217.374" x2="217.377" y2="38.6228" gradientUnits="userSpaceOnUse">
<stop stop-color="#F72D7F"/>
<stop offset="1" stop-color="#FD243D"/>
</linearGradient>
</defs>
</svg>
