<?xml version="1.0" encoding="utf-8"?>
<!-- Generator: Adobe Illustrator 24.3.0, SVG Export Plug-In . SVG Version: 6.00 Build 0)  -->
<svg version="1.1" id="Ebene_1" xmlns="http://www.w3.org/2000/svg" xmlns:xlink="http://www.w3.org/1999/xlink" x="0px" y="0px"
	 viewBox="0 0 256 256" style="enable-background:new 0 0 256 256;" xml:space="preserve">
<style type="text/css">
	.st0{fill:#1B4822;}
	.st1{fill:url(#SVGID_1_);}
</style>
<g>
	<circle class="st0" cx="127.9" cy="128.2" r="125"/>
	
		<linearGradient id="SVGID_1_" gradientUnits="userSpaceOnUse" x1="43.9431" y1="131.5419" x2="209.0627" y2="131.5419" gradientTransform="matrix(1 0 0 -1 0 258.45)">
		<stop  offset="0" style="stop-color:#B9842A"/>
		<stop  offset="6.320000e-02" style="stop-color:#C28C24"/>
		<stop  offset="0.1644" style="stop-color:#D9A215"/>
		<stop  offset="0.2405" style="stop-color:#EFB606"/>
		<stop  offset="0.6784" style="stop-color:#FBDE31"/>
		<stop  offset="0.8432" style="stop-color:#EBCA63"/>
		<stop  offset="1" style="stop-color:#B9842A"/>
	</linearGradient>
	<path class="st1" d="M209,100.3c-0.4-10.1-10.1-18.1-20-22.5c-11.1-4.9-22.9-6.9-34.9-8c-7-0.6-14.1-1.3-21.1-1.2
		c-0.3,0-1.7,0-3.4,0c-1.5-14.1,1.8-23.8,9.8-29.3c-1.4-9.3-5.7-14-12.9-14.1c-5.3,12.4-6.8,27.5-4.7,43.3c-1,0-1.7,0-1.9,0
		c-7.1-0.1-14.1,0.6-21.1,1.2c-12,1.1-23.8,3-34.9,8c-9.9,4.4-19.6,12.4-20,22.5c-0.1,2.2,0,2.9,0.5,6.1c0.4,2.8,1.5,5.5,2.6,8.3
		c3.3,8.4,8.8,15.4,14.7,22.1c0.8,0.9,1.6,1.6,1.6,3.1c-0.1,9.2,0.6,18.3,2.4,27.4c5.4,26.3,19.6,45.8,44.2,57
		c5.4,2.4,10.7,4.3,16.5,4.4l0,0c0,0,0,0,0,0c0,0,0,0,0,0l0,0c5.8,0,11.1-1.9,16.5-4.4c24.6-11.2,38.8-30.7,44.2-57
		c1.9-9.1,2.5-18.2,2.4-27.4c0-1.5,0.7-2.2,1.6-3.1c6-6.7,11.4-13.7,14.7-22.1c1.1-2.7,2.2-5.4,2.6-8.3
		C209,103.2,209.1,102.5,209,100.3z M125.5,133.3l1-2.3l1,2.3l14.1,33.2h-15.1h0h-15.1L125.5,133.3z M85,191.5
		c-5.5-8.6-9.2-18.6-11.1-30.3c-1.6-9.8-1.9-20.3-0.9-33c0-0.2,0.1-0.4,0.1-0.4c0,0,0.2-0.1,0.5-0.3c13.6-6.8,28.5-10.7,45.4-11.6
		L85,191.5z M139.6,215.8c-4.2,1.8-8.6,3.7-13.1,3.7c-4.5-0.1-8.9-1.9-13.1-3.7c-6.7-2.9-12.7-6.8-18-11.7l10.2-24h20.9h0h20.9
		l10.2,24C152.3,209,146.3,213,139.6,215.8z M179.2,161.1c-1.9,11.7-5.6,21.7-11.1,30.3l-33.9-75.6c16.9,1,31.9,4.8,45.4,11.6
		c0.3,0.2,0.4,0.3,0.5,0.3c0,0.1,0,0.2,0.1,0.4C181.1,140.9,180.8,151.3,179.2,161.1z"/>
</g>
</svg>
