<svg xmlns="http://www.w3.org/2000/svg" fill="none" viewBox="0 0 256 256">
<circle cx="128" cy="128" r="128" fill="#ECEFF0"/>
<path d="M59.1299 130.1C58.8299 129.9 59.1299 129.8 59.2299 129.7C64.0299 121.7 68.8299 113.8 73.5299 105.9C82.0299 91.9002 90.4299 77.8001 98.9299 63.8001C108.43 48.0001 117.93 32.2001 127.53 16.4001C127.63 16.3001 127.63 15.9002 127.93 16.1002C127.73 16.3002 127.83 16.6001 127.83 16.9001C127.83 44.2001 127.83 71.5002 127.83 98.8002C127.73 98.8002 127.73 98.8002 127.63 98.8002C121.83 101.5 115.93 104.1 110.13 106.8C100.83 111 91.4299 115.3 82.1299 119.5C74.7299 122.9 67.2299 126.3 59.8299 129.7C59.5299 129.8 59.2299 129.8 59.1299 130.1Z" fill="#8C8C8C"/>
<path d="M127.83 98.7C127.83 71.4 127.83 44.1 127.83 16.8C127.83 16.5 127.73 16.2 127.93 16C133.53 25.3 139.13 34.6 144.73 43.9C160.53 70.1 176.33 96.4 192.13 122.6C193.43 124.8 194.83 127 196.13 129.2C196.23 129.4 196.33 129.6 196.43 129.8C196.33 129.8 196.13 129.8 196.03 129.7C193.03 128.3 190.03 127 187.03 125.6C184.53 124.5 182.03 123.3 179.53 122.2C175.93 120.6 172.43 119 168.83 117.3C166.33 116.2 163.83 115 161.33 113.9C157.83 112.3 154.23 110.7 150.73 109.1C148.23 108 145.73 106.8 143.13 105.6C139.53 104 135.83 102.3 132.23 100.7C130.83 100 129.33 99.4 127.83 98.7Z" fill="#333333"/>
<path d="M127.83 98.7002C129.33 99.4002 130.83 100 132.33 100.7C135.93 102.3 139.63 104 143.23 105.6C145.73 106.7 148.23 107.9 150.83 109.1C154.33 110.7 157.93 112.3 161.43 113.9C163.93 115 166.43 116.2 168.93 117.3C172.53 118.9 176.03 120.5 179.63 122.2C182.13 123.3 184.63 124.5 187.13 125.6C190.13 127 193.13 128.3 196.13 129.7C196.23 129.8 196.33 129.8 196.53 129.8C196.63 130.2 196.33 130.2 196.13 130.3C187.93 135.2 179.73 140 171.43 144.9C157.23 153.3 142.93 161.7 128.73 170.2C128.43 170.4 128.23 170.6 127.93 170.6C127.93 166.2 127.93 161.8 127.93 157.4C127.83 137.8 127.83 118.3 127.83 98.7002Z" fill="#141414"/>
<path d="M127.83 98.7002C127.83 118.3 127.83 137.8 127.83 157.4C127.83 161.8 127.83 166.2 127.83 170.6C126.63 170.1 125.53 169.3 124.43 168.7C102.73 155.9 81.0299 143.1 59.3299 130.2C59.2299 130.2 59.2299 130.1 59.1299 130.1C59.2299 129.8 59.5299 129.8 59.7299 129.7C67.1299 126.3 74.6299 122.9 82.0299 119.5C91.3299 115.3 100.73 111 110.03 106.8C115.83 104.1 121.73 101.5 127.53 98.8002C127.63 98.7002 127.73 98.7002 127.83 98.7002Z" fill="#383838"/>
<path d="M127.83 183.6C132.43 180.9 137.03 178.2 141.73 175.4C159.83 164.7 177.93 154 196.03 143.3C196.13 143.2 196.33 143.1 196.53 143.1C195.83 144.1 195.13 145 194.43 146C172.83 176.4 151.23 206.8 129.63 237.2C129.03 238.1 128.43 239 127.73 239.8C127.73 239.5 127.73 239.3 127.73 239C127.73 220.8 127.73 202.5 127.73 184.3C127.83 184.2 127.83 183.9 127.83 183.6Z" fill="#333333"/>
<path d="M127.83 183.6C127.83 183.9 127.83 184.2 127.83 184.4C127.83 202.6 127.83 220.9 127.83 239.1C127.83 239.4 127.83 239.6 127.83 239.9C127.13 239.2 126.63 238.4 126.13 237.6C116.33 223.7 106.43 209.9 96.63 196C84.23 178.6 71.83 161.1 59.53 143.7C59.43 143.5 59.33 143.4 59.23 143.1C60.43 143.8 61.73 144.6 62.93 145.3C80.13 155.5 97.33 165.6 114.53 175.8C118.83 178.3 123.03 180.8 127.33 183.3C127.43 183.5 127.63 183.5 127.83 183.6Z" fill="#8C8C8C"/>
<path d="M213.5 256C236.972 256 256 236.972 256 213.5C256 190.028 236.972 171 213.5 171C190.028 171 171 190.028 171 213.5C171 236.972 190.028 256 213.5 256Z" fill="url(#paint0_linear_3_195)"/>
<path d="M213.715 244.021C205.52 244.021 197.671 240.905 191.784 235.249C185.898 229.593 182.781 221.975 183.012 214.011C183.243 206.046 186.936 198.428 192.708 192.772C198.594 187.116 205.982 184 213.715 184C221.449 184 228.836 187.116 234.723 192.772C240.494 198.428 244.187 206.046 244.418 214.011C244.649 221.975 241.417 229.593 235.646 235.249C229.759 240.905 221.91 244.021 213.715 244.021ZM213.715 186.309C206.559 186.309 199.633 189.194 194.208 194.388C188.783 199.582 185.551 206.623 185.32 214.011C185.09 221.398 188.091 228.439 193.4 233.633C198.825 238.827 206.097 241.713 213.6 241.713C221.218 241.713 228.49 238.827 233.799 233.633C239.224 228.439 242.11 221.398 241.879 214.011C241.648 206.623 238.301 199.582 232.991 194.388C227.797 189.194 220.872 186.309 213.715 186.309Z" fill="white"/>
<path d="M217.64 239.289C210.83 239.289 204.25 236.634 199.518 232.017C194.67 227.4 192.015 221.052 192.131 214.472C192.246 207.893 195.132 201.545 199.98 196.928C204.712 192.311 211.06 189.656 217.524 189.656C223.988 189.656 230.336 192.311 235.184 196.928C240.032 201.545 243.033 207.893 243.149 214.472C243.38 221.052 240.725 227.4 235.877 232.017C230.914 236.634 224.334 239.289 217.64 239.289ZM217.409 191.387C211.407 191.387 205.52 193.811 201.134 198.197C196.748 202.468 194.093 208.355 193.862 214.472C193.747 220.59 196.17 226.477 200.672 230.747C205.174 235.018 211.176 237.557 217.524 237.557C223.873 237.557 229.875 235.133 234.376 230.747C238.878 226.477 241.302 220.59 241.186 214.472C241.071 208.355 238.301 202.468 233.799 198.197C229.298 193.811 223.411 191.387 217.409 191.387Z" fill="white"/>
<path d="M221.564 234.557C216.139 234.557 210.945 232.479 207.136 228.785C203.327 225.092 201.249 220.128 201.249 214.819C201.364 209.625 203.558 204.546 207.251 200.852C211.06 197.159 216.023 195.081 221.218 195.081C226.412 195.081 231.491 197.159 235.3 200.852C239.109 204.546 241.533 209.509 241.648 214.819C241.763 220.013 239.686 225.092 235.877 228.785C232.068 232.479 226.873 234.557 221.564 234.557ZM221.218 196.351C216.37 196.351 211.637 198.313 208.175 201.776C204.712 205.238 202.634 209.971 202.519 214.819C202.519 219.667 204.481 224.399 208.059 227.862C211.637 231.325 216.485 233.287 221.564 233.287C226.643 233.287 231.491 231.325 235.069 227.862C238.647 224.399 240.609 219.667 240.494 214.819C240.378 209.971 238.185 205.238 234.607 201.776C230.798 198.313 226.066 196.351 221.218 196.351Z" fill="white"/>
<path d="M225.489 229.824C221.449 229.824 217.64 228.324 214.87 225.553C212.099 222.783 210.483 219.089 210.483 215.28C210.483 211.471 212.099 207.662 214.87 205.008C217.64 202.237 221.333 200.737 225.258 200.737C229.182 200.737 232.876 202.237 235.762 205.008C238.647 207.778 240.263 211.471 240.379 215.28C240.494 219.089 238.994 222.899 236.108 225.553C233.222 228.208 229.413 229.824 225.489 229.824ZM225.142 201.429C221.449 201.429 217.986 202.93 215.331 205.469C212.676 208.009 211.176 211.587 211.176 215.28C211.176 218.974 212.676 222.437 215.331 225.092C217.986 227.631 221.68 229.132 225.373 229.132C229.182 229.132 232.761 227.631 235.415 225.092C238.07 222.552 239.455 218.974 239.455 215.28C239.34 211.587 237.724 208.124 235.069 205.469C232.414 202.93 228.836 201.429 225.142 201.429Z" fill="white"/>
<defs>
<linearGradient id="paint0_linear_3_195" x1="184.382" y1="190.98" x2="251.189" y2="243.653" gradientUnits="userSpaceOnUse">
<stop offset="4.47534e-07" stop-color="#EB3057"/>
<stop offset="0.0321318" stop-color="#DE2E55"/>
<stop offset="0.1698" stop-color="#AA2850"/>
<stop offset="0.3098" stop-color="#7D224B"/>
<stop offset="0.4492" stop-color="#581D46"/>
<stop offset="0.5882" stop-color="#3B1A43"/>
<stop offset="0.7266" stop-color="#271741"/>
<stop offset="0.8641" stop-color="#1B163F"/>
<stop offset="1" stop-color="#17153F"/>
</linearGradient>
</defs>
</svg>