<svg width="256" height="256" viewBox="0 0 256 256" fill="none" xmlns="http://www.w3.org/2000/svg">
<circle cx="128" cy="128" r="128" fill="white"/>
<path d="M36.5159 126.017V108.395C36.9341 108.357 37.3523 108.319 37.7706 108.281C38.1888 108.243 38.607 108.224 39.0252 108.224C40.4699 108.224 41.6485 108.414 42.561 108.794C43.5115 109.175 44.2529 109.764 44.7851 110.562C45.3174 111.323 45.6976 112.311 45.9257 113.528C46.1538 114.706 46.2679 116.132 46.2679 117.805C46.2679 118.832 46.1919 119.839 46.0398 120.828C45.9257 121.816 45.6216 122.71 45.1273 123.508C44.6331 124.268 43.8917 124.877 42.9032 125.333C41.9147 125.789 40.565 126.017 38.8541 126.017H36.5159ZM36.5159 147.403V126.816H39.8236C41.7246 126.816 43.1883 127.215 44.2149 128.013C45.2794 128.774 46.0588 129.686 46.5531 130.751C47.0853 131.815 47.4085 132.899 47.5225 134.001C47.6366 135.066 47.6936 135.921 47.6936 136.568C47.6936 138.887 47.5035 140.769 47.1233 142.214C46.7812 143.62 46.2679 144.723 45.5836 145.521C44.8992 146.32 44.0628 146.871 43.0743 147.175C42.1238 147.441 41.0402 147.574 39.8236 147.574C38.645 147.574 37.5424 147.517 36.5159 147.403ZM28.2467 108.395V147.403H23V148.202H31.6114C33.2082 148.202 34.786 148.221 36.3448 148.259C37.9416 148.297 39.5385 148.316 41.1353 148.316C42.58 148.316 44.2149 148.164 46.0398 147.859C47.8647 147.517 49.5756 146.928 51.1724 146.092C52.8073 145.255 54.1759 144.114 55.2785 142.67C56.4191 141.225 56.9894 139.4 56.9894 137.195C56.9894 135.18 56.5522 133.507 55.6777 132.176C54.8033 130.846 53.7007 129.781 52.37 128.983C51.0393 128.146 49.5756 127.538 47.9788 127.158C46.382 126.778 44.8422 126.531 43.3594 126.416V126.188C44.2719 126.074 45.3744 125.827 46.6671 125.447C47.9978 125.067 49.2714 124.515 50.4881 123.793C51.7047 123.071 52.7312 122.158 53.5676 121.056C54.4421 119.915 54.8793 118.527 54.8793 116.893C54.8793 115.068 54.4421 113.547 53.5676 112.33C52.6932 111.114 51.5716 110.144 50.2029 109.422C48.8722 108.699 47.3895 108.186 45.7546 107.882C44.1198 107.578 42.561 107.426 41.0782 107.426C39.4814 107.426 37.9036 107.464 36.3448 107.54C34.786 107.578 33.2082 107.597 31.6114 107.597H23V108.395H28.2467Z" fill="black"/>
<path d="M72.3057 128.013C72.3057 125.01 72.4388 122.253 72.7049 119.744C72.9711 117.235 73.5224 115.068 74.3588 113.243C75.1952 111.418 76.4118 110.011 78.0087 109.023C79.6055 107.996 81.7346 107.483 84.3959 107.483C87.2474 107.483 89.4715 108.034 91.0683 109.137C92.7032 110.201 93.9198 111.665 94.7182 113.528C95.5166 115.353 95.9919 117.482 96.1439 119.915C96.334 122.31 96.4291 124.839 96.4291 127.5C96.4291 130.466 96.315 133.222 96.0869 135.769C95.8968 138.279 95.4026 140.465 94.6041 142.328C93.8057 144.153 92.6081 145.597 91.0113 146.662C89.4145 147.688 87.2094 148.202 84.3959 148.202C82.2668 148.202 80.4229 147.897 78.8641 147.289C77.3433 146.681 76.0887 145.616 75.1002 144.095C74.1497 142.537 73.4463 140.465 72.9901 137.879C72.5338 135.256 72.3057 131.967 72.3057 128.013ZM63.01 128.013C63.01 130.979 63.5993 133.735 64.7779 136.282C65.9565 138.83 67.5153 141.054 69.4543 142.955C71.4313 144.818 73.7124 146.301 76.2978 147.403C78.8831 148.468 81.5825 149 84.3959 149C87.2474 149 89.9468 148.449 92.4941 147.346C95.0794 146.206 97.3415 144.666 99.2805 142.727C101.258 140.788 102.816 138.545 103.957 135.997C105.136 133.412 105.725 130.694 105.725 127.842C105.725 124.573 105.098 121.645 103.843 119.06C102.626 116.436 101.01 114.212 98.9954 112.387C97.0184 110.562 94.7372 109.156 92.1519 108.167C89.6046 107.179 87.0193 106.684 84.3959 106.684C81.9627 106.684 79.4724 107.198 76.9251 108.224C74.3778 109.213 72.0776 110.638 70.0246 112.501C67.9715 114.364 66.2796 116.607 64.949 119.231C63.6563 121.854 63.01 124.782 63.01 128.013Z" fill="black"/>
<path d="M125.971 115.752L132.7 131.321H119.583L125.971 115.752ZM107.265 147.403V148.202H118.044V147.403H112.968L119.298 132.119H132.985L139.601 147.403H134.297V148.202H153.459V147.403H148.554L130.59 106H129.05L112.056 147.403H107.265Z" fill="black"/>
<path d="M168.046 126.017V108.395C168.464 108.357 168.883 108.319 169.301 108.281C169.719 108.243 170.137 108.224 170.555 108.224C172 108.224 173.179 108.414 174.091 108.794C175.042 109.175 175.783 109.764 176.315 110.562C176.848 111.323 177.228 112.311 177.456 113.528C177.684 114.706 177.798 116.132 177.798 117.805C177.798 118.832 177.722 119.839 177.57 120.828C177.456 121.816 177.152 122.71 176.658 123.508C176.163 124.268 175.422 124.877 174.433 125.333C173.445 125.789 172.095 126.017 170.384 126.017H168.046ZM159.777 108.395V147.403H154.53V148.202H173.293V147.403H168.046V126.816H171.81C173.597 126.816 174.985 127.158 175.973 127.842C176.962 128.527 177.703 129.439 178.197 130.58C178.692 131.72 178.996 133.032 179.11 134.515C179.262 135.959 179.376 137.461 179.452 139.02C179.49 140.046 179.566 141.149 179.68 142.328C179.832 143.468 180.193 144.533 180.764 145.521C181.334 146.51 182.208 147.346 183.387 148.031C184.566 148.677 186.2 149 188.291 149C189.318 149 190.173 148.924 190.858 148.772C191.542 148.658 192.112 148.487 192.569 148.259C193.063 148.031 193.481 147.764 193.823 147.46C194.203 147.118 194.584 146.757 194.964 146.377L194.394 145.863C194.013 146.244 193.576 146.662 193.082 147.118C192.588 147.536 191.96 147.745 191.2 147.745C190.516 147.745 189.983 147.612 189.603 147.346C189.261 147.08 188.976 146.548 188.748 145.749C188.558 144.951 188.406 143.829 188.291 142.385C188.177 140.94 188.025 139.02 187.835 136.625C187.683 134.572 187.284 132.937 186.638 131.72C186.029 130.504 185.193 129.553 184.128 128.869C183.064 128.184 181.79 127.671 180.307 127.329C178.863 126.987 177.209 126.645 175.346 126.302V126.017C176.639 125.903 177.95 125.675 179.281 125.333C180.612 124.953 181.809 124.42 182.874 123.736C183.976 123.052 184.87 122.177 185.554 121.113C186.238 120.01 186.581 118.698 186.581 117.178C186.581 115.277 186.124 113.699 185.212 112.444C184.337 111.19 183.216 110.201 181.847 109.479C180.478 108.718 178.958 108.186 177.285 107.882C175.65 107.578 174.091 107.426 172.608 107.426C171.012 107.426 169.434 107.464 167.875 107.54C166.316 107.578 164.738 107.597 163.142 107.597H154.53V108.395H159.777Z" fill="black"/>
<path d="M209.602 147.403V108.395C209.982 108.319 210.477 108.281 211.085 108.281C211.693 108.243 212.378 108.224 213.138 108.224C216.446 108.224 219.107 108.699 221.122 109.65C223.175 110.6 224.753 111.969 225.855 113.756C226.996 115.505 227.756 117.634 228.137 120.143C228.517 122.615 228.707 125.39 228.707 128.469C228.707 129.724 228.65 131.074 228.536 132.519C228.422 133.925 228.175 135.351 227.794 136.796C227.452 138.202 226.92 139.552 226.198 140.845C225.513 142.137 224.563 143.297 223.346 144.324C222.168 145.312 220.704 146.111 218.955 146.719C217.206 147.289 215.096 147.574 212.625 147.574C211.712 147.574 210.705 147.517 209.602 147.403ZM201.333 108.395V147.403H196.086V148.202H201.333C203.5 148.202 205.648 148.221 207.777 148.259C209.944 148.297 212.111 148.316 214.279 148.316C215.761 148.316 217.358 148.202 219.069 147.973C220.818 147.745 222.567 147.346 224.316 146.776C226.103 146.168 227.813 145.369 229.448 144.381C231.083 143.392 232.528 142.137 233.782 140.617C235.075 139.096 236.102 137.29 236.862 135.199C237.622 133.108 238.003 130.675 238.003 127.899C238.003 125.086 237.622 122.634 236.862 120.542C236.102 118.451 235.075 116.645 233.782 115.125C232.49 113.604 231.007 112.349 229.334 111.361C227.661 110.372 225.893 109.593 224.031 109.023C222.168 108.414 220.286 107.996 218.385 107.768C216.484 107.54 214.678 107.426 212.967 107.426C211.028 107.426 209.089 107.464 207.15 107.54C205.211 107.578 203.272 107.597 201.333 107.597H196.086V108.395H201.333Z" fill="black"/>
</svg>
