<?xml version="1.0" encoding="utf-8"?>
<!-- Generator: Adobe Illustrator 16.0.2, SVG Export Plug-In . SVG Version: 6.00 Build 0)  -->
<!DOCTYPE svg PUBLIC "-//W3C//DTD SVG 1.1//EN" "http://www.w3.org/Graphics/SVG/1.1/DTD/svg11.dtd">
<svg version="1.1" id="Layer_1" xmlns="http://www.w3.org/2000/svg" xmlns:xlink="http://www.w3.org/1999/xlink" x="0px" y="0px"
	 width="256px" height="256px" viewBox="0 0 256 256" enable-background="new 0 0 256 256" xml:space="preserve">
<g>
	<g>
		<circle fill-rule="evenodd" clip-rule="evenodd" fill="#FFFFFF" cx="128" cy="128" r="120.099"/>
		<path fill="#F29427" d="M128,250.974c-16.6,0-32.705-3.251-47.868-9.664c-14.645-6.194-27.795-15.062-39.088-26.354
			c-11.292-11.292-20.159-24.443-26.353-39.088C8.278,160.705,5.026,144.6,5.026,128c0-16.6,3.252-32.705,9.665-47.868
			c6.194-14.645,15.061-27.795,26.353-39.088c11.293-11.292,24.443-20.159,39.088-26.353C95.295,8.278,111.4,5.026,128,5.026
			c16.601,0,32.705,3.252,47.867,9.665c14.645,6.194,27.796,15.061,39.088,26.353c11.293,11.293,20.16,24.443,26.354,39.088
			c6.413,15.163,9.664,31.268,9.664,47.868c0,16.6-3.251,32.705-9.664,47.867c-6.194,14.645-15.062,27.796-26.354,39.088
			c-11.292,11.293-24.443,20.16-39.088,26.354C160.705,247.723,144.601,250.974,128,250.974z M128,10.775
			C63.362,10.775,10.775,63.362,10.775,128S63.362,245.225,128,245.225S245.225,192.638,245.225,128S192.638,10.775,128,10.775z"/>
	</g>
	<path fill-rule="evenodd" clip-rule="evenodd" d="M61.72,189.988c1.479,0,2.648-0.039,3.813,0.006
		c9.533,0.363,18.509-1.62,26.66-6.655c11.963-7.392,19.216-18.025,21.675-31.93c1.056-5.977,0.761-11.872-0.443-17.769
		c-0.047-0.229-0.158-0.448-0.268-0.654c-0.051-0.096-0.173-0.153-0.213-0.188c-2.792,1.195-5.482,2.599-8.328,3.521
		c-10.922,3.543-21.423,2.336-31.479-3.149c-1.02-0.557-1.391-1.241-1.455-2.421c-0.58-10.858,2.796-20.311,9.975-28.42
		c0.749-0.847,1.039-1.502,0.322-2.489c-2.018-2.779-3.738-5.82-6.026-8.352c-7.157-7.918-16.032-9.806-26.062-6.665
		c-2.697,0.844-5.285,2.035-8.232,3.187c-0.975-1.85-1.993-3.783-3.123-5.928c9.063-4.677,18.216-7.39,28.201-4.497
		c9.99,2.893,16.298,10.156,21.305,18.723c2.415-1.2,4.708-2.259,6.899-3.497c0.448-0.252,0.762-1.187,0.727-1.782
		c-0.423-7.081-3.651-12.668-9.312-16.846c-5.697-4.205-12.302-6.025-19.193-6.972c-2.437-0.334-2.469-0.247-2.317-2.65
		c0.068-1.083,0.301-2.157,0.331-3.239c0.031-1.104,0.62-1.332,1.534-1.212c9.286,1.223,18.125,3.636,25.481,9.83
		c5.89,4.96,9.364,11.269,10.273,18.95c0.175,1.485,0.238,2.665,2.38,3.026c9.647,1.628,15.35,7.73,18.221,16.819
		c0.217,0.687,0.658,1.304,0.995,1.953c0.198-0.054,0.396-0.109,0.594-0.164c0.264-1.089,0.504-2.185,0.793-3.268
		c4.688-17.563,14.123-31.648,30.126-40.846c4.8-2.76,9.999-4.486,15.505-5.291c1.179-0.172,1.725,0.207,2.28,1.172
		c2.557,4.443,4.224,9.2,5.245,14.205c0.115,0.564,0.311,1.111,0.455,1.625c3.821-0.904,7.419-1.91,11.079-2.588
		c8.873-1.646,17.649-1.188,26.294,1.549c1.336,0.422,1.725,1.081,1.771,2.438c0.584,17.363-6.299,31.761-17.841,44.135
		c-11.146,11.949-24.73,19.759-40.941,22.703c-0.471,0.086-0.927,0.248-1.574,0.425c4.004,17.846,0.796,34.142-11.034,48.335
		c-7.601,9.12-17.374,14.975-28.959,17.452C93.897,217.695,73.465,206.725,61.72,189.988z M174.068,112.432
		c0.064,0.094,0.132,0.188,0.198,0.282c-10.764,9.016-21.525,18.031-32.576,27.289c4.684,0.835,8.987,0.915,13.212,0.26
		c23.64-3.667,40.899-16.299,51.795-37.53c2.993-5.832,4.658-12.132,4.813-18.761c0.022-0.912-0.117-1.519-1.18-1.617
		c-3.657-0.341-7.315-1.071-10.962-1.012c-9.454,0.154-18.378,2.687-26.68,7.177c-15.64,8.458-27.139,20.599-32.78,37.742
		c-0.943,2.866-1.419,5.884-2.111,8.833c0.181,0.085,0.361,0.17,0.542,0.255C150.249,127.711,162.158,120.071,174.068,112.432z
		 M136.422,116.942c0.321-0.597,0.559-1.009,0.769-1.435c3.866-7.836,9.069-14.667,15.44-20.637
		c5.641-5.287,11.968-9.567,18.807-13.135c0.552-0.288,1.359-0.955,1.317-1.373c-0.429-4.343-1.612-8.486-3.559-12.372
		c-6.532,1.425-17.228,7.531-23.739,15.056c-7.699,8.897-12.528,19.075-14.457,30.633
		C132.854,114.796,134.554,115.818,136.422,116.942z M94.621,101.046c-0.436,0.059-0.574,0.039-0.664,0.094
		c-9.596,5.942-14.542,14.676-15.393,25.816c-0.04,0.523,0.533,1.394,1.035,1.612c5.324,2.33,10.735,3.727,16.386,0.99
		c1.901-0.921,3.891-1.671,5.735-2.691c6.236-3.453,10.667-8.375,11.61-15.677c0.299-2.318,0.476-5.152-0.575-7.033
		c-1.767-3.164-5.088-4.862-8.808-5.408c-1.127-0.166-1.701,0.117-1.966,1.417c-1.325,6.501-4.122,12.348-8.332,17.476
		c-1.472,1.793-3.152,3.414-4.873,5.257c-1.288-1.461-2.244-2.712-3.372-3.78c-1.161-1.099-1.052-1.782,0.109-2.888
		C89.875,112.075,92.848,107.041,94.621,101.046z M118.864,160.821c7.728,2.59,15.364,5.161,23.021,7.676
		c0.353,0.115,1.187-0.188,1.269-0.46c1.144-3.713,2.193-7.453,3.378-11.579c-1.245,0-1.885,0-2.523,0c-6.695,0-13.39,0-20.084,0
		C119.84,156.458,119.84,156.458,118.864,160.821z M113.827,171.596c5.872,4.454,11.663,8.875,17.517,13.211
		c0.339,0.251,1.444,0.024,1.758-0.348c1.746-2.068,3.389-4.228,4.999-6.404c0.615-0.832,1.052-1.797,1.646-2.836
		c-1.172-0.425-2.008-0.749-2.857-1.034c-5.538-1.851-11.08-3.688-16.616-5.54C115.93,167.191,115.932,167.184,113.827,171.596z
		 M109.764,177.273c-1.007,1.108-1.864,2.208-2.884,3.126c-0.968,0.869-1.017,1.496-0.177,2.535
		c2.353,2.911,4.571,5.932,6.854,8.899c1.205,1.566,2.432,3.113,3.842,4.916c3.264-2.106,6.391-4.125,9.781-6.313
		C121.071,185.82,115.449,181.57,109.764,177.273z M110.696,199.522c-3.63-4.726-6.88-8.957-10.186-13.26
		c-1.499,0.984-2.882,1.822-4.171,2.787c-0.294,0.22-0.486,0.955-0.351,1.312c1.292,3.434,2.636,6.849,4.049,10.234
		c0.176,0.421,0.9,0.967,1.269,0.899C104.307,200.942,107.283,200.259,110.696,199.522z M92.967,201.717
		c-1.199-3.012-2.387-5.991-3.518-8.828c-4.23,1.239-8.165,2.393-12.143,3.56C81.3,200.636,87.999,202.921,92.967,201.717z"/>
	<path fill-rule="evenodd" clip-rule="evenodd" fill="#FFFFFF" d="M174.068,112.432c-11.91,7.639-23.819,15.279-35.729,22.917
		c-0.181-0.085-0.361-0.17-0.542-0.255c0.692-2.948,1.168-5.967,2.111-8.833c5.642-17.144,17.141-29.284,32.78-37.742
		c8.302-4.49,17.226-7.023,26.68-7.177c3.646-0.059,7.305,0.671,10.962,1.012c1.063,0.099,1.202,0.705,1.18,1.617
		c-0.155,6.629-1.82,12.929-4.813,18.761c-10.896,21.231-28.155,33.863-51.795,37.53c-4.225,0.655-8.528,0.575-13.212-0.26
		c11.051-9.258,21.813-18.273,32.576-27.289C174.2,112.62,174.133,112.526,174.068,112.432z"/>
	<path fill-rule="evenodd" clip-rule="evenodd" fill="#FFFFFF" d="M136.422,116.942c-1.868-1.124-3.567-2.146-5.422-3.262
		c1.929-11.559,6.758-21.736,14.457-30.633c6.512-7.525,17.207-13.631,23.739-15.056c1.946,3.886,3.13,8.029,3.559,12.372
		c0.042,0.418-0.766,1.085-1.317,1.373c-6.839,3.567-13.166,7.848-18.807,13.135c-6.371,5.97-11.574,12.8-15.44,20.637
		C136.98,115.933,136.743,116.345,136.422,116.942z"/>
	<path fill-rule="evenodd" clip-rule="evenodd" fill="#F29427" d="M94.621,101.046c-1.773,5.995-4.746,11.029-9.106,15.185
		c-1.161,1.106-1.271,1.789-0.109,2.888c1.128,1.068,2.084,2.319,3.372,3.78c1.72-1.843,3.401-3.464,4.873-5.257
		c4.21-5.128,7.007-10.975,8.332-17.476c0.265-1.3,0.839-1.583,1.966-1.417c3.719,0.546,7.041,2.244,8.808,5.408
		c1.05,1.881,0.874,4.715,0.575,7.033c-0.942,7.302-5.374,12.224-11.61,15.677c-1.844,1.02-3.834,1.771-5.735,2.691
		c-5.65,2.737-11.062,1.34-16.386-0.99c-0.501-0.219-1.074-1.089-1.035-1.612c0.851-11.14,5.797-19.874,15.393-25.816
		C94.047,101.084,94.185,101.104,94.621,101.046z"/>
	<path fill-rule="evenodd" clip-rule="evenodd" fill="#F29427" d="M118.864,160.821c0.976-4.363,0.976-4.363,5.06-4.363
		c6.694,0,13.389,0,20.084,0c0.639,0,1.278,0,2.523,0c-1.185,4.126-2.234,7.866-3.378,11.579c-0.082,0.271-0.916,0.575-1.269,0.46
		C134.229,165.982,126.592,163.411,118.864,160.821z"/>
	<path fill-rule="evenodd" clip-rule="evenodd" fill="#F29427" d="M113.827,171.596c2.105-4.412,2.104-4.404,6.447-2.951
		c5.536,1.853,11.078,3.689,16.616,5.54c0.85,0.285,1.686,0.609,2.857,1.034c-0.595,1.039-1.031,2.004-1.646,2.836
		c-1.61,2.177-3.253,4.336-4.999,6.404c-0.313,0.372-1.419,0.599-1.758,0.348C125.49,180.471,119.699,176.05,113.827,171.596z"/>
	<path fill-rule="evenodd" clip-rule="evenodd" fill="#F29427" d="M109.764,177.273c5.685,4.297,11.308,8.547,17.415,13.163
		c-3.39,2.188-6.517,4.207-9.781,6.313c-1.41-1.803-2.637-3.35-3.842-4.916c-2.283-2.968-4.501-5.988-6.854-8.899
		c-0.839-1.039-0.791-1.666,0.177-2.535C107.9,179.481,108.756,178.382,109.764,177.273z"/>
	<path fill-rule="evenodd" clip-rule="evenodd" fill="#F29427" d="M110.696,199.522c-3.413,0.736-6.389,1.42-9.39,1.973
		c-0.368,0.067-1.093-0.479-1.269-0.899c-1.413-3.386-2.757-6.801-4.049-10.234c-0.135-0.356,0.057-1.092,0.351-1.312
		c1.289-0.965,2.672-1.803,4.171-2.787C103.816,190.565,107.066,194.797,110.696,199.522z"/>
	<path fill-rule="evenodd" clip-rule="evenodd" fill="#F29427" d="M92.967,201.717c-4.968,1.204-11.667-1.081-15.66-5.269
		c3.978-1.167,7.912-2.32,12.143-3.56C90.58,195.726,91.768,198.705,92.967,201.717z"/>
</g>
</svg>
