<?xml version="1.0" encoding="UTF-8"?>
<svg xmlns="http://www.w3.org/2000/svg" xmlns:xlink="http://www.w3.org/1999/xlink" width="256px" height="256px" viewBox="0 0 256 256" version="1.1">
<g id="surface1">
<path style=" stroke:none;fill-rule:nonzero;fill:rgb(24.705882%,74.117647%,32.156863%);fill-opacity:1;" d="M 243.199219 128 C 243.199219 191.625 191.625 243.199219 128 243.199219 C 64.375 243.199219 12.800781 191.625 12.800781 128 C 12.800781 64.375 64.375 12.800781 128 12.800781 C 191.625 12.800781 243.199219 64.375 243.199219 128 Z M 243.199219 128 "/>
<path style=" stroke:none;fill-rule:nonzero;fill:rgb(10.588235%,99.607843%,84.313725%);fill-opacity:1;" d="M 128 252 C 59.199219 252 4 196 4 128 C 4 60 59.199219 4 128 4 C 196.800781 4 252 60 252 128 C 252 196 196.800781 252 128 252 Z M 128 22.398438 C 69.601562 22.398438 22.398438 69.601562 22.398438 128 C 22.398438 186.398438 69.601562 233.601562 128 233.601562 C 186.398438 233.601562 233.601562 186.398438 233.601562 128 C 233.601562 69.601562 186.398438 22.398438 128 22.398438 Z M 128 22.398438 "/>
<path style=" stroke:none;fill-rule:nonzero;fill:rgb(100%,100%,100%);fill-opacity:1;" d="M 176 150.398438 C 176 171.199219 164 181.601562 144.800781 184.800781 L 144.800781 201.601562 L 113.601562 201.601562 L 113.601562 184.800781 C 100.800781 182.398438 88.800781 177.601562 80 172 L 95.199219 148 C 103.199219 153.601562 118.398438 159.199219 128.800781 159.199219 C 140 159.199219 144 157.601562 144 152 C 144 148 140 144.800781 124.800781 141.601562 C 96.800781 135.199219 84 128 84 104.800781 C 84 87.199219 95.199219 75.199219 114.398438 71.199219 L 114.398438 54.398438 L 145.601562 54.398438 L 145.601562 71.199219 C 157.601562 72.800781 166.398438 76.800781 175.199219 83.199219 L 160 107.199219 C 149.601562 100 140 96 128 96 C 118.398438 96 116 99.199219 116 103.199219 C 116 107.199219 120 109.601562 135.199219 112.800781 C 163.199219 120 176 128.800781 176 150.398438 Z M 176 150.398438 "/>
</g>
</svg>
