<svg width="256" height="256" viewBox="0 0 256 256" fill="none" xmlns="http://www.w3.org/2000/svg">
<circle cx="128" cy="128" r="128" fill="black"/>
<circle cx="127.999" cy="127.999" r="115.271" fill="white"/>
<path d="M184.338 67.8871C184.6 64.7736 182.042 62.2324 178.918 62.2324H123.757C120.633 62.2324 118.1 64.7654 118.1 67.8899V120.221C118.1 123.346 115.567 125.879 112.443 125.879H66.0932C61.0385 125.879 58.5209 132.003 62.114 135.558L117.861 190.718C118.92 191.766 120.35 192.354 121.84 192.354H171.019C176.045 192.354 178.576 186.29 175.041 182.718L121.52 128.621C154.763 126.936 181.563 100.831 184.338 67.8871Z" fill="black"/>
</svg>
