<?xml version="1.0" encoding="UTF-8" standalone="no"?>
<!-- Created with Inkscape (http://www.inkscape.org/) -->

<svg
   width="256"
   height="256"
   viewBox="0 0 67.733334 67.733334"
   version="1.1"
   id="svg1"
   xml:space="preserve"
   xmlns="http://www.w3.org/2000/svg"
   xmlns:svg="http://www.w3.org/2000/svg"><defs
     id="defs1" /><g
     id="g85"
     transform="matrix(0.06614583,0,0,0.06614583,0.17162117,0.23921111)"><path
       fill="#330911"
       d="m 493.089,30.2826 c 19.479,-1.5767 40.464,0.1639 59.778,2.8083 18.08,2.4756 35.443,6.4047 53.203,10.4366 13.045,2.9616 26.084,5.743 39.093,8.8883 32.232,7.7933 65.748,15.196 96.372,28.1177 q 5.437,2.233 10.783,4.6741 5.346,2.441 10.595,5.0864 5.248,2.6454 10.39,5.4912 5.143,2.8458 10.171,5.8878 5.029,3.042 9.937,6.276 4.908,3.233 9.687,6.654 4.78,3.421 9.423,7.023 4.644,3.602 9.146,7.381 c 77.613,64.521 120.189,166.546 129.168,265.509 12.758,140.62 -29.452,287.05 -110.868,401.887 -8.212,11.583 -16.563,23.167 -25.658,34.077 -49.115,58.916 -109.447,107.866 -180.921,136.836 -13.209,5.353 -26.468,10.278 -40.245,13.973 -20.91,5.608 -42.525,8.726 -64.057,10.659 -2.592,0.11 -5.179,0.291 -7.771,0.398 -47.86,1.962 -93.641,-9.279 -139.846,-20.195 C 335.532,961.299 295.863,952.793 253.615,930.63 229.506,917.982 208.289,900.832 188.375,882.396 164.025,859.851 142.025,830.2 125.849,801.26 88.1069,733.737 73.788,669.006 70.7925,592.098 q -0.1813,-6.221 -0.2256,-12.444 -0.0442,-6.223 0.0487,-12.445 0.0929,-6.222 0.3229,-12.441 0.23,-6.219 0.597,-12.432 0.367,-6.212 0.8707,-12.415 0.5038,-6.202 1.1442,-12.393 0.6403,-6.19 1.4169,-12.364 0.7766,-6.175 1.689,-12.331 0.9125,-6.155 1.9603,-12.29 1.0479,-6.134 2.2307,-12.244 1.1828,-6.11 2.5,-12.192 1.3171,-6.082 2.7679,-12.133 1.4509,-6.052 3.0347,-12.07 1.5839,-6.019 3.2999,-12 1.7161,-5.982 3.5636,-11.925 1.8474,-5.943 3.8254,-11.843 c 10.8532,-31.808 24.6122,-62.191 39.9052,-92.079 q 4.767,-9.522 9.861,-18.873 5.094,-9.351 10.509,-18.52 5.415,-9.169 11.145,-18.145 5.729,-8.976 11.766,-17.748 6.036,-8.772 12.373,-17.33 6.337,-8.558 12.967,-16.891 6.629,-8.334 13.543,-16.432 6.914,-8.099 14.105,-15.953 C 303.234,91.8159 391.894,34.1317 493.089,30.2826 Z"
       id="path2" /><path
       fill="#feeb92"
       d="m 172.596,850.039 13.736,3.879 c 4.633,7.51 10.268,14.381 15.914,21.145 2.365,2.834 6.311,6.363 7.946,9.559 -0.661,0.011 -1.461,0.068 -2.122,-0.052 -7.63,-1.382 -29.954,-27.691 -35.474,-34.531 z"
       id="path3" /><path
       fill="#feeb92"
       d="m 127.876,783.701 c 5.761,1.277 11.451,2.592 17.106,4.29 4.11,10.473 11.475,22.916 17.422,32.579 2.044,3.323 14.037,20.434 14.327,21.53 0.085,0.323 -0.127,1.366 -0.234,1.717 -4.357,-1.043 -8.637,-2.348 -12.929,-3.625 -13.252,-14.272 -26.484,-38.87 -35.692,-56.491 z"
       id="path4" /><path
       fill="#feeb92"
       d="m 79.9242,575.437 c 4.6924,1.076 9.3423,2.381 13.998,3.607 -0.1519,11.046 -1.7617,38.603 0.7957,48 0.6137,2.255 1.6088,2.966 3.5665,4.123 -0.7382,4.18 1.6519,11.047 0.8474,13.162 -5.0344,-1.196 -10.0401,-2.091 -15.204,-2.475 q -3.9357,-33.092 -4.0036,-66.417 z"
       id="path5" /><path
       fill="#feeb92"
       d="m 100.082,716.125 c 5.336,1.609 10.898,2.779 16.313,4.115 7.315,19.626 12.844,39.996 23.242,58.319 0.355,0.624 0.243,0.218 -0.035,1.235 -5.179,-0.831 -10.557,-2.046 -15.575,-3.57 -10.252,-18.951 -17.727,-39.52 -23.945,-60.099 z"
       id="path6" /><path
       fill="#feeb92"
       d="m 84.6712,648.22 c 5.3611,0.603 10.6428,1.763 15.9288,2.82 3.901,14.446 5.881,29.623 9.185,44.262 0.612,2.714 4.477,15.754 3.805,17.511 -5.195,-0.773 -10.414,-1.999 -15.5718,-3.017 -5.5996,-20.47 -9.5559,-40.708 -13.347,-61.576 z"
       id="path7" /><path
       fill="#feeb92"
       d="m 488.538,40.7096 c 14.389,-1.2713 29.663,-0.3857 44.062,0.7381 -29.682,3.7396 -60.946,9.3704 -89.705,17.4882 q -10.388,3.0543 -20.66,6.4778 c -5.63,-2.0667 -11.362,-3.8979 -17.045,-5.8152 q 4.969,-2.0254 10.017,-3.8451 5.049,-1.8198 10.167,-3.4309 5.119,-1.6111 10.299,-3.0109 5.181,-1.3998 10.414,-2.5858 5.234,-1.186 10.511,-2.1564 5.278,-0.9703 10.591,-1.7233 5.313,-0.7529 10.653,-1.2873 5.339,-0.5344 10.696,-0.8492 z"
       id="path8" /><path
       fill="#feeb92"
       d="m 392.97,62.4756 c 2.873,-0.1097 15.066,5.5417 18.732,6.9109 -9.875,4.6477 -20.134,8.4761 -30.011,13.1617 -13.573,6.4395 -26.2,13.9877 -38.912,21.9498 -0.111,0.071 -0.21,0.166 -0.334,0.212 -1.674,0.613 -14.719,-3.803 -17.402,-4.587 20.627,-15.2345 44.576,-27.1934 67.927,-37.6474 z"
       id="path9" /><path
       fill="#feeb92"
       d="m 317.952,104.501 c 4.767,2.184 10.347,3.623 15.315,5.429 -8.201,7.857 -18.06,14.358 -26.874,21.545 -10.529,8.584 -20.287,18.115 -30.125,27.47 -4.65,-1.386 -11.1,-2.392 -15.142,-4.939 0.008,-0.162 -0.008,-0.327 0.023,-0.487 0.81,-4.082 28.426,-27.011 33.149,-30.729 7.592,-5.977 15.909,-11.346 23.097,-17.785 z"
       id="path10" /><path
       fill="#feeb92"
       d="m 85.3107,499.814 c 5.6294,1.409 11.1643,3.009 16.7093,4.717 -3.8523,21.822 -5.5791,43.787 -7.3373,65.85 l -0.4308,1.353 c -2.8918,0.696 -11.0663,-1.76 -14.4071,-2.461 -0.4938,-23.064 2.5632,-46.596 5.4659,-69.459 z"
       id="path11" /><path
       fill="#feeb92"
       d="m 101.064,426.621 c 5.971,1.255 11.941,3.193 17.823,4.839 -1.93,8.713 -4.913,17.405 -7.159,26.073 -3.463,13.363 -6.098,26.717 -8.372,40.323 -0.63,0.404 -14.8163,-2.889 -17.0938,-3.131 2.906,-22.808 8.6994,-45.934 14.8018,-68.104 z"
       id="path12" /><path
       fill="#feeb92"
       d="m 254.189,159.353 c 5.249,0.671 11.761,3.012 16.722,4.94 -17.093,18.239 -32.62,37.488 -48.024,57.14 -2.985,-0.023 -13.013,-4.518 -16.462,-5.784 13.998,-20.263 30.571,-38.722 47.764,-56.296 z"
       id="path13" /><path
       fill="#feeb92"
       d="m 126.137,356.263 c 5.369,2.818 11.769,3.931 17.625,5.388 q -13.039,31.287 -23.167,63.635 c -6.058,-1.119 -11.888,-3.091 -18.013,-4.032 q 5.005,-17.097 11.411,-33.719 c 4.049,-10.433 8.62,-20.641 12.144,-31.272 z"
       id="path14" /><path
       fill="#feeb92"
       d="m 201.758,220.944 c 5.926,1.721 11.822,3.563 17.728,5.352 -13.868,19.269 -27.994,39.394 -38.914,60.529 -5.663,-1.783 -11.454,-3.174 -17.065,-5.114 10.941,-21.187 24.852,-41.065 38.251,-60.767 z"
       id="path15" /><path
       fill="#feeb92"
       d="m 160.167,287.244 c 5.553,0.621 11.656,3.176 17.018,4.81 q -17.174,30.991 -30.801,63.697 c -5.997,-1.925 -11.832,-3.234 -18.06,-4.201 9.407,-22.202 20.177,-43.226 31.843,-64.306 z"
       id="path16" /><path
       fill="#f3d069"
       d="m 217.826,893.811 c 3.567,0.627 7.473,2.529 10.902,3.776 q 10.563,3.884 21.248,7.42 c 16.109,5.177 32.444,9.727 48.614,14.721 6.199,1.915 13.33,3.414 19.121,6.242 2.317,1.131 4.309,2.584 6.362,4.122 6.877,5.152 13.565,10.473 20.955,14.887 7.301,4.361 15.725,7.736 22.354,13.063 -9.322,-1.092 -19.132,-4.266 -28.233,-6.557 -44.434,-11.181 -85.953,-27.723 -121.323,-57.674 z"
       id="path17" /><path
       fill="#f3d069"
       d="m 186.332,853.918 q 21.47,5.115 42.678,11.226 c 12.485,3.503 28.104,8.675 40.774,9.699 q 8.272,10.906 17.495,21.02 9.223,10.115 19.321,19.356 c -24.519,-8.947 -49.814,-16.309 -74.82,-23.775 -6.606,-1.973 -15.011,-5.869 -21.588,-6.822 -1.635,-3.196 -5.581,-6.725 -7.946,-9.559 -5.646,-6.764 -11.281,-13.635 -15.914,-21.145 z"
       id="path18" /><path
       fill="#f3d069"
       d="m 434.949,69.0848 c 35.634,-11.8109 73.366,-18.6265 110.705,-22.185 4.952,-0.4719 10.353,-1.9229 15.274,-1.7182 19.274,0.8018 37.914,7.1857 56.622,11.2964 13.379,2.9398 27.2,4.7502 40.426,8.2385 -17.803,0.2558 -34.923,0.1241 -52.633,2.6263 -77.027,10.8836 -145.692,48.2042 -204.49,97.9422 -12.174,10.298 -24.206,20.82 -35.333,32.258 q -15.524,15.792 -29.883,32.651 -14.358,16.859 -27.477,34.699 C 232.663,368.069 186.632,498.474 188.453,626.758 q 0.046,3.995 0.165,7.988 0.119,3.993 0.311,7.984 0.191,3.99 0.456,7.977 0.264,3.986 0.601,7.967 0.338,3.981 0.747,7.955 0.41,3.974 0.892,7.94 0.482,3.966 1.036,7.922 0.554,3.957 1.181,7.903 0.626,3.945 1.324,7.879 0.698,3.934 1.468,7.854 0.77,3.92 1.611,7.826 0.841,3.905 1.753,7.795 0.912,3.889 1.895,7.762 0.983,3.872 2.037,7.726 1.053,3.853 2.177,7.687 1.123,3.834 2.317,7.647 1.193,3.812 2.455,7.603 1.263,3.79 2.594,7.557 1.332,3.767 2.732,7.508 1.4,3.742 2.868,7.458 1.467,3.716 3.003,7.404 1.535,3.688 3.138,7.348 1.602,3.659 3.271,7.289 1.669,3.63 3.404,7.229 1.735,3.599 3.535,7.165 1.8,3.567 3.665,7.1 1.865,3.533 3.794,7.032 1.929,3.498 3.921,6.961 1.993,3.463 4.048,6.889 2.055,3.426 4.172,6.813 2.118,3.388 4.297,6.737 2.179,3.349 4.418,6.657 -31.224,-8.047 -62.292,-16.675 c -8.178,-2.269 -16.969,-4.036 -24.95,-6.828 0.107,-0.351 0.319,-1.394 0.234,-1.717 -0.29,-1.096 -12.283,-18.207 -14.327,-21.53 -5.947,-9.663 -13.312,-22.106 -17.422,-32.579 15.584,3.763 31.243,7.152 46.798,11.061 5.382,1.353 19.364,5.924 23.491,6.063 0.991,0.034 1.769,-0.282 2.341,-1.138 0.805,-1.205 0.674,-1.859 0.422,-3.16 -1.343,-1.696 -2.904,-2.369 -4.905,-3.073 -6.705,-2.357 -14.296,-3.495 -21.237,-5.209 l -52.29,-12.741 c 0.278,-1.017 0.39,-0.611 0.035,-1.235 -10.398,-18.323 -15.927,-38.693 -23.242,-58.319 13.72,3.358 27.588,6.163 41.339,9.402 6.541,1.541 24.779,7.327 30.469,7.026 1.533,-0.081 2.248,-0.504 3.233,-1.638 0.229,-1.258 0.078,-2.326 -0.572,-3.44 -0.564,-0.966 -1.342,-1.256 -2.351,-1.6 -4.613,-1.572 -9.805,-2.069 -14.559,-3.258 -20.036,-5.013 -40.344,-8.887 -60.364,-13.919 0.672,-1.757 -3.193,-14.797 -3.805,-17.511 -3.304,-14.639 -5.284,-29.816 -9.185,-44.262 8.704,1.552 67.189,15.781 69.157,15.22 1.077,-0.308 1.933,-0.812 2.318,-1.941 0.205,-0.6 0.289,-1.663 -0.064,-2.233 -0.823,-1.326 -2.745,-2.204 -4.186,-2.676 -3.698,-1.21 -7.826,-1.338 -11.619,-2.298 -18.76,-4.748 -38.055,-9.183 -57.0742,-12.783 0.8045,-2.115 -1.5856,-8.982 -0.8474,-13.162 1.1547,-1.345 1.7206,-2.346 1.9926,-4.12 0.894,-5.819 0.255,-12.459 0.215,-18.371 q -0.056,-14.059 0.15,-28.117 c 7.389,2.246 64.271,17.501 67.578,16.634 1.197,-0.809 1.67,-1.159 2.267,-2.538 -0.229,-1.448 -0.489,-2.068 -1.795,-2.945 -3.219,-2.162 -59.887,-16.052 -67.524,-17.556 q 1.556,-34.215 7.069,-68.019 23.247,6.08 46.42,12.439 c 4.504,1.2 11.339,3.836 15.733,4.336 1.431,0.163 3.404,-0.139 4.631,-0.914 0.826,-0.523 0.989,-0.706 1.392,-1.617 -0.555,-1.709 -1.493,-2.767 -3.168,-3.554 -2.36,-1.11 -5.235,-1.34 -7.745,-2.05 -12.791,-3.618 -25.594,-7.062 -38.451,-10.442 -5.847,-1.538 -11.556,-3.523 -17.506,-4.619 3.417,-22.054 7.934,-45.307 15.378,-66.381 l 40.772,11.069 c 6.157,1.669 12.867,3.988 19.099,5.098 1.491,0.266 2.559,0.18 3.904,-0.558 0.906,-1.239 1.004,-1.452 1.145,-2.977 -1.06,-2.089 -2.154,-2.44 -4.316,-3.143 -19.319,-6.281 -39.596,-9.782 -58.978,-15.941 6.408,-21.196 13.571,-43.466 23.659,-63.241 q 18.225,4.381 36.195,9.71 c 6.268,1.802 13.006,4.343 19.42,5.339 1.317,0.205 2.269,0.006 3.51,-0.429 0.969,-1.06 1.053,-1.328 1.376,-2.737 -0.409,-1.562 -1.165,-2.316 -2.546,-3.062 -3.846,-2.079 -8.798,-2.505 -12.986,-3.595 -14.246,-3.707 -28.351,-8.201 -42.737,-11.388 9.477,-22.664 19.27,-41.619 31.025,-63.041 q 21.113,6.721 42.442,12.726 c 4.058,1.132 8.36,2.997 12.472,3.682 2.002,0.334 3.655,0.425 5.498,-0.52 0.636,-1.052 0.904,-1.525 0.509,-2.824 -0.471,-1.554 -1.517,-2.204 -2.947,-2.771 -6.143,-2.435 -13.297,-4.024 -19.68,-5.808 q -17.727,-4.884 -35.334,-10.186 c 6.943,-11.547 13.85,-23.109 21.408,-34.269 5.691,-8.402 12.517,-16.799 17.462,-25.613 q 19.568,6.317 39.249,12.272 c 5.325,1.64 10.56,3.803 15.993,5.051 1.759,0.404 4.242,0.941 6.014,0.307 0.519,-0.185 0.786,-0.453 1.185,-0.783 0.282,-1.177 0.402,-2.06 -0.245,-3.174 -0.796,-1.372 -2.968,-2.164 -4.397,-2.715 -4.702,-1.813 -9.748,-2.973 -14.583,-4.402 -12.789,-3.779 -26.254,-7.364 -38.614,-12.334 6.914,-8.212 13.217,-16.898 20.005,-25.209 q 13.194,-16.11 27.849,-30.903 c 13.513,5.264 27.511,9.508 41.268,14.102 4.661,1.556 10.176,4.25 14.736,5.402 1.187,0.3 2.67,0.386 3.841,-0.016 0.943,-0.324 2.039,-1.051 2.342,-2.065 0.268,-0.897 0.007,-1.314 -0.296,-2.13 -3.551,-3.599 -48.207,-17.979 -55.7,-20.522 18.453,-17.755 37.097,-34.138 58.424,-48.463 13.361,4.21 26.338,9.553 39.402,14.587 4.301,1.657 8.691,3.955 13.094,5.246 1.812,0.531 3.59,1.123 5.425,0.337 0.847,-0.362 1.209,-0.877 1.721,-1.595 -0.032,-1.295 -0.144,-1.805 -1.069,-2.759 -3.431,-3.539 -43.42,-18.451 -50.426,-20.785 11.028,-6.556 21.901,-13.3378 33.362,-19.1289 12.318,-6.2241 25.174,-11.2633 37.921,-16.5249 10.971,3.2923 21.706,7.4179 32.4,11.5115 4.432,1.6968 8.969,4.1615 13.547,5.3082 1.812,0.4539 3.071,0.5975 4.816,-0.1901 0.665,-0.9904 1.043,-1.7536 0.794,-2.9998 -0.292,-1.4635 -1.302,-2.2477 -2.531,-2.9361 -4.201,-2.3536 -9.152,-3.9498 -13.625,-5.7393 -7.359,-2.9445 -14.714,-6.0392 -22.246,-8.5188 z"
       id="path19" /><path
       fill="#f3d069"
       d="m 630.805,71.7125 q 4.212,-0.2556 8.431,-0.2637 c 75.55,-0.7763 141.053,29.7812 194.617,82.3162 74.189,72.763 107.732,179.037 108.624,281.149 q 0.056,5.231 0.022,10.462 -0.035,5.231 -0.16,10.46 -0.125,5.23 -0.341,10.456 -0.216,5.227 -0.523,10.449 -0.306,5.222 -0.703,10.438 -0.397,5.216 -0.885,10.424 -0.487,5.208 -1.065,10.408 -0.578,5.199 -1.246,10.387 -0.668,5.188 -1.426,10.364 -0.758,5.176 -1.605,10.338 -0.848,5.162 -1.785,10.308 -0.936,5.147 -1.962,10.276 -1.027,5.129 -2.141,10.24 -1.115,5.111 -2.319,10.202 -1.203,5.091 -2.494,10.16 -1.292,5.069 -2.671,10.115 -1.38,5.046 -2.846,10.067 -1.467,5.022 -3.02,10.017 -1.553,4.995 -3.193,9.962 -1.64,4.967 -3.366,9.906 -1.726,4.938 -3.537,9.845 -1.811,4.908 -3.707,9.783 -1.896,4.875 -3.877,9.717 -1.98,4.842 -4.044,9.648 -2.064,4.807 -4.211,9.577 -2.147,4.77 -4.377,9.502 -2.229,4.733 -4.541,9.425 -2.311,4.693 -4.703,9.345 -2.393,4.652 -4.865,9.262 -2.473,4.609 -5.025,9.176 -2.553,4.566 -5.184,9.087 -2.631,4.521 -5.34,8.996 c -21.733,36.505 -47.612,71.895 -77.472,102.228 q -15.064,15.443 -31.362,29.578 -16.298,14.135 -33.717,26.863 -12.91,9.175 -26.533,17.254 -13.622,8.079 -27.865,15.007 c -47.652,23.695 -97.076,37.424 -150.484,37.835 q -3.295,0.041 -6.591,0.007 -3.295,-0.034 -6.589,-0.143 -3.294,-0.11 -6.584,-0.294 -3.291,-0.184 -6.576,-0.443 -3.285,-0.259 -6.564,-0.593 -3.279,-0.333 -6.549,-0.742 -3.27,-0.408 -6.53,-0.891 -3.26,-0.483 -6.508,-1.039 -3.249,-0.557 -6.483,-1.188 -3.235,-0.631 -6.455,-1.335 -3.219,-0.704 -6.422,-1.481 -3.202,-0.778 -6.386,-1.628 -3.184,-0.85 -6.348,-1.772 -3.164,-0.923 -6.306,-1.917 -3.142,-0.994 -6.261,-2.06 -3.119,-1.065 -6.212,-2.201 -3.094,-1.137 -6.161,-2.343 -3.066,-1.206 -6.105,-2.482 -3.038,-1.276 -6.047,-2.621 -3.009,-1.345 -5.986,-2.758 -2.978,-1.413 -5.922,-2.893 -2.944,-1.481 -5.854,-3.028 -2.91,-1.547 -5.784,-3.16 -2.874,-1.613 -5.71,-3.291 -2.837,-1.678 -5.634,-3.42 -2.798,-1.743 -5.555,-3.548 -2.757,-1.805 -5.472,-3.673 -2.715,-1.868 -5.387,-3.797 -2.672,-1.929 -5.299,-3.919 -2.628,-1.989 -5.209,-4.038 -2.582,-2.049 -5.116,-4.156 -2.534,-2.107 -5.019,-4.271 c -40.384,-35.383 -72.003,-84.89 -90.787,-134.945 -4.78,-12.737 -8.497,-25.871 -12.091,-38.981 -7.425,-27.088 -12.463,-54.044 -14.331,-82.095 -2.117,-31.793 -2.074,-63.184 1.309,-94.911 C 211.341,438.883 266.427,319.564 346.702,227.942 418.613,145.867 519.579,79.0511 630.805,71.7125 Z"
       id="path20" /><path
       fill="#330911"
       d="m 646.784,116.713 q 2.605,-0.155 5.214,-0.21 c 63.708,-1.408 120.12,22.523 165.744,66.506 10.68,10.295 20.918,21.013 29.921,32.818 48.951,64.182 69.384,149.335 70.714,228.819 1.612,96.306 -27.965,199.634 -75.289,283.253 q -16.302,28.359 -35.695,54.702 c -12.672,17.446 -26.135,34.88 -41.162,50.374 -10.407,10.73 -20.906,21.583 -32.119,31.477 -59.992,52.938 -135.794,92.249 -217.116,93.409 -64.465,0.65 -118.697,-18.929 -167.132,-61.372 -68.231,-59.79 -98.807,-151.282 -104.486,-239.605 -1.947,-30.264 -0.031,-60.6 3.953,-90.627 q 1.061,-8.168 2.353,-16.303 1.291,-8.135 2.813,-16.23 1.521,-8.095 3.271,-16.144 1.75,-8.049 3.726,-16.045 1.977,-7.996 4.179,-15.933 2.202,-7.937 4.628,-15.809 2.426,-7.871 5.074,-15.671 2.647,-7.8 5.514,-15.521 2.868,-7.722 5.952,-15.36 3.084,-7.637 6.384,-15.184 3.299,-7.548 6.81,-14.998 3.512,-7.451 7.233,-14.8 3.721,-7.348 7.648,-14.589 3.927,-7.24 8.058,-14.366 4.13,-7.127 8.461,-14.133 4.33,-7.007 8.857,-13.888 10.285,-15.906 21.665,-31.049 11.38,-15.142 23.798,-29.446 C 453.948,183.549 541.186,123.26 646.784,116.713 Z"
       id="path21" /><path
       fill="#f3d069"
       d="m 850.394,231.897 c 0.428,0.242 0.547,0.281 0.953,0.669 4.738,4.516 11.555,18.305 14.82,24.466 q 2.611,5.043 5.078,10.157 2.467,5.114 4.789,10.296 2.322,5.182 4.497,10.428 2.175,5.245 4.2,10.55 2.026,5.305 3.901,10.665 1.875,5.36 3.598,10.771 1.723,5.41 3.293,10.867 1.57,5.458 2.985,10.957 1.415,5.499 2.674,11.036 1.259,5.537 2.361,11.108 1.102,5.57 2.047,11.17 0.944,5.599 1.73,11.223 0.786,5.623 1.413,11.267 0.627,5.644 1.095,11.303 0.467,5.659 0.774,11.329 0.308,5.67 0.455,11.347 c 2.492,81.435 -16.104,170.386 -49.526,244.704 q -4.897,10.707 -10.218,21.21 -5.32,10.503 -11.056,20.786 -5.735,10.283 -11.876,20.328 -6.141,10.046 -12.678,19.838 -6.536,9.793 -13.459,19.317 -6.922,9.524 -14.218,18.765 -7.297,9.24 -14.956,18.182 -7.66,8.942 -15.67,17.571 c -50.057,53.133 -114.168,95.561 -185.925,111.954 -13.833,3.16 -28.133,5.933 -42.35,6.366 -5.872,0.212 -11.713,0.404 -17.589,0.272 10.91,-1.614 21.985,-3.216 32.715,-5.8 29.807,-7.181 60.238,-20.681 87.145,-35.241 110.092,-59.575 187.593,-170.324 230.204,-285.815 5.365,-14.539 9.615,-29.722 14.021,-44.577 4.263,-14.372 7.439,-29.07 10.444,-43.749 20.773,-101.503 14.356,-211.393 -35.671,-303.72 z"
       id="path22" /><path
       fill="#feeb92"
       d="m 645.449,123.714 c 0.05,-0.003 0.1,-0.006 0.15,-0.008 53.492,-2.034 110.53,14.11 150.746,50.478 62.53,56.546 88.961,147.208 93.002,229.119 4.789,97.093 -20.762,201.28 -64.888,287.705 q -8.82,17.016 -18.659,33.464 -9.839,16.447 -20.661,32.266 c -13.252,19.53 -27.175,38.57 -43.052,56.067 -49.916,55.01 -114.03,99.707 -185.258,121.898 -19.494,6.073 -40.567,10.857 -61.006,11.867 -0.863,0.125 -1.708,0.216 -2.58,0.272 -50.515,3.248 -101.745,-21.958 -138.833,-54.803 -49.129,-43.51 -78.138,-102.952 -92.497,-166.194 -4.767,-20.996 -8.129,-42 -9.433,-63.508 -8.806,-145.286 46.703,-293.406 142.718,-401.78 64.113,-72.365 151.357,-130.891 250.251,-136.843 z"
       id="path23" /><path
       fill="#330911"
       d="m 430.64,249.994 c 4.008,-0.064 6.233,0.811 9.254,3.535 6.231,5.62 9.683,15.762 10.065,23.975 0.398,8.567 -2.52,22.279 -8.399,28.665 -0.214,0.13 -0.424,0.269 -0.642,0.392 -1.276,0.723 -2.459,1.286 -3.916,0.932 -0.961,-2.186 0.863,-5.47 1.656,-7.616 1.943,-5.253 3.972,-10.421 4.721,-16.008 1.512,-11.291 -3.226,-18.546 -9.938,-26.864 -0.996,-1.233 -2.641,-2.892 -2.958,-4.503 -0.128,-0.647 0.113,-1.814 0.157,-2.508 z"
       id="path24" /><path
       fill="#330911"
       d="m 577.015,153.453 c 0.323,0.084 0.658,0.131 0.97,0.251 3.608,1.39 7.146,21.78 8.656,26.2 l 0.222,0.632 c 3.393,1.46 7.007,3.256 8.531,6.795 -0.214,4.469 -6.488,8.171 -8.602,12.208 -3.633,6.941 -5.701,14.406 -9.093,21.402 -1.298,2.677 -2.139,4.174 -5.042,5.174 -4.961,-3.548 -6.723,-20.094 -9.439,-26.574 -3.159,-2.694 -7.452,-3.008 -9.644,-6.768 -0.295,-3.423 4.584,-7.224 6.8,-9.698 7.304,-8.158 6.665,-18.102 12.072,-26.679 1.255,-1.991 2.313,-2.395 4.569,-2.943 z"
       id="path25" /><path
       fill="#feeb92"
       d="m 575.873,165.318 c 4.752,5.23 -1.024,14.028 10.752,22.281 -1.944,3.78 -4.647,7.238 -6.721,10.986 -2.652,4.79 -4.383,9.989 -6.342,15.083 -1.491,-5.481 -1.911,-12.378 -4.412,-17.413 -1.651,-3.325 -3.762,-4.239 -7.188,-5.289 8.547,-9.136 8.814,-14.262 13.632,-25.035 z"
       id="path26" /><path
       fill="#330911"
       d="m 297.702,612.863 c 0.801,0.085 1.649,0.164 2.405,0.464 2.586,1.027 3.754,5.261 4.5,7.688 2.224,7.228 3.481,16.179 7.026,22.839 1.73,3.252 4.627,6.039 6.12,9.392 0.586,1.316 0.583,2.23 -0.062,3.522 -2.022,4.053 -6.03,7.057 -7.934,11.242 -5.212,11.452 -6.906,24.471 -11.531,36.127 -0.819,2.063 -1.487,2.706 -3.515,3.599 -1.183,-0.723 -2.084,-1.223 -2.74,-2.505 -3.5,-6.84 -1.522,-22.799 -6.43,-31.876 -2.774,-5.128 -7.599,-5.846 -10.882,-9.826 -0.439,-0.532 -0.864,-1.081 -0.76,-1.796 0.533,-3.657 7.328,-10.601 9.534,-14.169 6.595,-10.667 6.976,-20.771 11.658,-31.399 0.648,-1.471 1.364,-2.309 2.611,-3.302 z"
       id="path27" /><path
       fill="#feeb92"
       d="m 299.237,625.382 c 1.318,2.694 1.978,6.207 2.839,9.096 2.218,7.44 4.59,14.439 8.669,21.089 -6.637,7.643 -9.453,17.021 -12.117,26.614 -0.845,3.044 -1.511,6.331 -2.854,9.19 l -0.323,-0.993 c -0.837,-6.095 -1.61,-12.463 -3.593,-18.311 -2.063,-6.082 -5.062,-8.714 -10.595,-11.444 9.415,-10.358 13.476,-22.243 17.974,-35.241 z"
       id="path28" /><path
       fill="#330911"
       d="m 818.85,542.216 c 0.958,0.401 1.813,0.826 2.543,1.581 4.092,4.233 5.493,18.091 8.476,24.299 1.676,3.491 3.677,6.429 6.132,9.411 0.781,0.949 3.392,3.457 3.703,4.424 0.075,0.231 0.001,0.488 -0.05,0.725 -0.773,3.595 -5.624,5.654 -8.469,7.551 -4.375,10.387 -10.394,40.198 -16.553,47.095 -0.924,0.078 -2.007,0.15 -2.901,-0.183 -1.382,-0.516 -1.972,-2.02 -2.347,-3.324 -1.111,-3.862 -1.327,-8.186 -1.856,-12.168 -1.243,-9.362 -2.977,-18.652 -6.748,-27.359 -1.31,-0.139 -3.341,-0.176 -4.528,-0.714 -1.039,-0.471 -1.85,-1.213 -2.08,-2.383 -0.739,-3.76 4.584,-5.008 6.478,-7.579 1.117,-1.514 1.636,-3.807 2.254,-5.57 2.939,-8.381 10.352,-29.991 15.946,-35.806 z"
       id="path29" /><path
       fill="#f3d069"
       d="m 818.634,554.84 c 2.617,10.324 6.122,19.301 12.265,28.046 -8.744,8.124 -13.007,27.053 -16.565,38.497 l -0.428,0.654 c -1.157,-1.754 -1.051,-6.775 -1.414,-9.06 -1.108,-6.969 -3.443,-17.75 -8.478,-22.956 5.436,-11.404 10.011,-23.419 14.62,-35.181 z"
       id="path30" /><path
       fill="#330911"
       d="m 401.738,746.979 c 0.335,0.029 0.671,0.053 1.006,0.086 2.793,0.279 4.07,1.429 5.285,3.853 1.782,3.554 2.525,7.482 3.432,11.32 2.194,9.284 3.966,19.388 8.812,27.731 5.076,8.737 10.769,6.89 12.605,9.838 0.412,0.663 0.723,2.256 0.285,2.943 -2.448,3.842 -10.554,6.891 -13.309,13.171 -7.153,16.306 -9.312,34.832 -15.403,51.666 -0.789,0.898 -1.262,1.1 -2.408,1.417 -1.647,-0.417 -2.501,-0.848 -3.457,-2.298 -5.888,-8.927 -5.185,-31.765 -11.257,-43.947 -3.241,-6.503 -8.962,-8.783 -13.227,-14.135 -0.132,-0.166 -0.26,-0.335 -0.39,-0.502 l 0.443,-0.736 c 2.987,-5.041 8.09,-8.707 10.595,-13.946 4.531,-9.475 9.29,-41.689 16.988,-46.461 z"
       id="path31" /><path
       fill="#f3d069"
       d="m 402.711,756.904 c 5.259,5.493 3.053,32.009 19.052,45.543 -12.929,15.421 -15.261,33.722 -19.932,52.725 -3.894,-3.71 -0.718,-34.124 -18.932,-47.979 12.337,-14.509 13.516,-32.98 19.812,-50.289 z"
       id="path32" /><path
       fill="#330911"
       d="m 826.868,300.011 c 1.452,0.07 2.602,0.116 3.895,0.896 7.069,4.264 8.783,31.707 11.323,40.185 2.188,7.3 5.668,9.885 12.043,13.27 0.612,1.135 1.019,2.004 0.685,3.334 -0.363,1.447 -1.286,2.553 -2.542,3.317 -2.378,1.447 -5.525,2.352 -7.38,4.479 -5.189,5.95 -11.798,35.559 -13.996,44.632 -1.219,5.031 -2.1,11.966 -4.86,16.354 -0.668,1.062 -1.742,1.713 -2.788,2.355 -0.824,-0.038 -1.991,0.02 -2.763,-0.239 -0.226,-0.076 -1.034,-0.468 -1.226,-0.756 -1.755,-2.625 -4.1,-23.408 -4.817,-27.926 -1.162,-7.325 -2.198,-22.383 -6.617,-28.324 -1.425,-1.916 -3.645,-3.04 -5.647,-4.25 -2.214,-1.338 -5.239,-2.713 -6.523,-5.054 0.441,-2.713 10.301,-10.949 12.787,-15.966 1.852,-3.737 2.671,-8.482 3.924,-12.515 2.481,-7.993 5.138,-16.01 7.997,-23.874 1.407,-3.871 2.536,-8.063 6.505,-9.918 z"
       id="path33" /><path
       fill="#f3d069"
       d="m 828.085,308.28 c 4.581,4.06 2.627,36.04 17.159,49.745 -2.592,1.73 -4.871,3.397 -6.671,6.01 -5.517,8.007 -9.135,28.41 -12.152,38.62 -0.898,3.038 -1.697,6.795 -3.686,9.3 -1.471,-11.696 -1.883,-24.733 -5.306,-35.985 -2.154,-7.078 -5.504,-11.346 -12.003,-14.81 2.893,-2.825 5.252,-5.627 7.191,-9.183 3.142,-5.765 4.841,-12.398 6.792,-18.643 2.644,-8.465 5.23,-16.87 8.676,-25.054 z"
       id="path34" /><path
       fill="#330911"
       d="m 712.598,187.162 c -0.577,-9.268 -0.365,-17.459 6.195,-24.875 4.308,-4.872 10.061,-7.743 16.565,-8.062 5.877,-0.289 11.971,1.507 16.352,5.531 4.407,4.049 6.402,9.637 6.558,15.532 0.19,7.185 -1.989,14.524 -7.05,19.765 -5.147,5.329 -11.784,8.441 -19.227,8.503 -3.108,0.025 -5.735,-0.533 -8.607,-1.67 -16.031,16.841 -32.72,40.986 -38.249,63.98 11.822,6.73 23.01,16.429 32.661,25.994 33.294,32.999 56.076,73.885 68.434,118.979 19.395,70.773 5.192,146.658 -30.846,209.743 -33.274,58.246 -84.413,96.613 -145.981,121.108 5.065,13.929 12.316,27.249 18.023,40.973 9.932,-0.704 19.691,-1.722 29.675,-1.251 14.508,0.686 47.361,7.832 58.214,17.128 0.768,0.658 1.161,1.249 1.494,2.216 -0.619,9.217 -28.442,35.88 -36.113,42.588 -36.031,31.51 -74.519,54.394 -121.668,64.381 -16.148,3.42 -33.449,5.374 -49.949,4.189 -1.721,-0.123 -2.912,-0.128 -4.275,-1.3 -0.879,-2.005 -0.419,-3.294 0.344,-5.288 1.837,-4.8 4.602,-9.497 6.982,-14.052 14.753,-28.236 32.32,-56.058 52.344,-80.867 3.531,-4.374 7.112,-9.231 11.134,-13.159 -3.789,-12.683 -14.684,-32.547 -22.1,-43.789 -47.315,5.529 -95.445,-6.369 -132.967,-36.238 -44.608,-35.51 -67.144,-99.159 -73.116,-154.176 -7.18,-66.149 3.325,-136.013 34.842,-195.063 8.215,-15.394 17.858,-29.606 28.507,-43.394 2.197,-2.844 4.539,-5.622 5.911,-8.985 3.133,-7.679 1.666,-17.941 -5.175,-23.186 -5.109,-3.919 -13.88,-3.787 -16.273,-7.268 -0.09,-1.403 -0.109,-1.599 0.558,-2.824 2.826,-1.672 6.731,-1.13 9.753,-0.298 6.663,1.836 12.764,5.956 16.084,12.126 3.6,6.691 3.899,14.636 1.711,21.832 -1.837,6.041 -20.441,30.671 -25.53,38.37 -4.488,6.79 -8.294,13.929 -11.885,21.226 q -1.634,3.317 -3.193,6.67 -1.56,3.353 -3.044,6.739 -1.485,3.387 -2.893,6.806 -1.409,3.419 -2.741,6.868 -1.333,3.449 -2.588,6.927 -1.255,3.478 -2.432,6.984 -1.178,3.505 -2.277,7.035 -1.099,3.531 -2.119,7.085 -1.02,3.554 -1.961,7.13 -0.941,3.576 -1.802,7.172 -0.861,3.596 -1.642,7.211 -0.78,3.614 -1.48,7.245 -0.7,3.631 -1.32,7.276 -0.619,3.646 -1.156,7.304 -0.538,3.658 -0.994,7.328 -0.456,3.669 -0.831,7.348 -0.374,3.679 -0.666,7.365 -0.293,3.686 -0.503,7.378 -0.21,3.691 -0.338,7.387 -0.128,3.695 -0.174,7.393 -0.046,3.697 -0.009,7.394 0.037,3.698 0.156,7.394 0.119,3.695 0.32,7.388 0.201,3.692 0.484,7.379 0.284,3.686 0.649,7.366 0.365,3.68 0.813,7.35 0.447,3.671 0.976,7.33 0.528,3.66 1.138,7.307 0.611,3.647 1.302,7.28 0.691,3.632 1.463,7.248 0.772,3.617 1.624,7.215 0.852,3.598 1.784,7.176 c 4.579,17.196 10.047,33.684 18.134,49.582 2.894,5.689 6.033,11.685 9.71,16.895 0.97,2.366 3.248,4.999 4.759,7.084 8.606,11.871 18.133,23.005 29.722,32.08 39.467,30.906 84.923,39.437 133.953,33.334 65.862,-8.198 129.642,-45.739 170.302,-97.961 43.019,-55.252 65.65,-130.657 56.714,-200.442 -7.265,-56.731 -33.568,-111.954 -75.132,-151.53 -8.987,-8.558 -18.762,-15.246 -28.431,-22.894 -1.535,-1.214 -3.737,-2.908 -3.909,-4.945 -0.325,-3.851 1.925,-8.178 3.207,-11.715 8.895,-24.537 19.074,-38.339 36.268,-57.573 l -3.141,-3.707 c -18.215,11.801 -32.089,30.88 -40.912,50.493 -2.189,4.867 -4.065,12.831 -7.584,16.668 -2.058,2.244 -8.081,-1.312 -10.392,-2.339 q -2.248,-1.022 -4.525,-1.978 -2.278,-0.956 -4.582,-1.845 -2.304,-0.89 -4.633,-1.711 -2.329,-0.822 -4.681,-1.575 -2.352,-0.753 -4.725,-1.438 -2.373,-0.684 -4.765,-1.299 -2.392,-0.615 -4.8,-1.16 -2.409,-0.545 -4.833,-1.019 -2.424,-0.474 -4.86,-0.878 -2.437,-0.403 -4.884,-0.735 -2.447,-0.332 -4.903,-0.593 -2.456,-0.261 -4.918,-0.45 -2.463,-0.188 -4.93,-0.305 -2.467,-0.117 -4.936,-0.162 -2.469,-0.045 -4.939,-0.018 -2.469,0.027 -4.937,0.126 c -26.427,0.931 -50.923,8.102 -74.488,19.867 -8.83,4.408 -17.659,9.656 -25.779,15.266 -4.767,3.294 -9.552,7.311 -14.56,10.148 -1.162,0.658 -2.339,0.78 -3.649,0.86 -2.01,-7.458 4.598,-15.416 4.704,-23.246 0.093,-6.83 -4.488,-12.436 -4.918,-18.827 0.598,-0.935 1.378,-1.679 2.556,-1.846 1.33,-0.189 2.095,0.168 3.096,1.011 4.18,3.521 5.506,15.744 5.282,20.938 -0.122,2.831 -0.651,5.559 -1.241,8.324 9.026,-5.956 18.023,-11.824 27.592,-16.877 38.78,-20.478 81.731,-28.043 124.914,-19.231 14.229,2.903 27.785,7.79 41.122,13.455 8.054,-25.293 26.16,-52.623 49.076,-66.729 z"
       id="path35" /><path
       fill="#d2dc7d"
       d="m 734.485,161.571 c 2.666,-0.238 5.161,0.043 7.687,0.945 3.66,1.307 6.447,3.718 7.992,7.315 1.951,4.539 1.643,9.878 -0.315,14.357 -2.743,6.277 -7.461,9.69 -13.672,11.985 -3.6,0.643 -6.854,0.6 -10.135,-1.159 -3.41,-1.827 -5.616,-5.244 -6.576,-8.923 -1.4,-5.367 -0.647,-11.76 2.365,-16.464 3.046,-4.757 7.371,-6.777 12.654,-8.056 z"
       id="path36" /><path
       fill="#feeb92"
       d="m 582.878,798.453 c 1.971,2.743 3.252,5.836 4.999,8.707 -3.426,7.455 -8.967,14.219 -13.653,20.918 q -7.342,10.46 -13.31,21.76 c -0.267,0.091 -0.533,0.187 -0.801,0.274 -2.454,0.8 -5.055,0.555 -7.371,1.792 l -0.191,0.796 c 1.095,1.003 1.964,1.426 3.307,1.992 l 0.917,0.472 c 0.758,4.115 -7.65,16.319 -9.916,20.1 -1.861,0.293 -3.134,0.486 -4.669,1.616 -0.245,0.832 -0.45,0.866 -0.022,1.693 0.361,0.698 0.559,0.927 1.174,1.367 -0.928,7.399 -10.51,17.123 -12.123,24.572 -6.109,0.795 -12.543,0.833 -18.696,0.783 13.081,-27.731 30.364,-55.896 48.802,-80.357 6.717,-8.911 14.621,-16.985 21.172,-25.954 z"
       id="path37" /><path
       fill="#d2dc7d"
       d="m 568.18,764.303 c 13.581,5.193 28.465,5.265 42.288,0.891 5.125,8.135 9.026,17.007 14.254,25.035 13.634,0.095 33.873,-3.901 46.572,0.311 q -7.965,7.722 -16.334,15.004 c -3.166,2.724 -16.428,12.192 -17.441,14.384 0.404,0.924 0.298,1.05 1.206,1.598 7.718,-1.612 28.682,-19.209 33.201,-26.026 0.72,-1.087 0.958,-1.872 0.926,-3.199 -0.458,-0.647 -0.833,-1.138 -1.415,-1.686 9.031,-0.173 29.596,7.367 37.914,11.403 -36.923,49.581 -99.129,91.664 -160.934,100.768 -5.661,0.834 -11.479,1.521 -17.198,1.726 1.613,-7.449 11.195,-17.173 12.123,-24.572 -0.615,-0.44 -0.813,-0.669 -1.174,-1.367 -0.428,-0.827 -0.223,-0.861 0.022,-1.693 1.535,-1.13 2.808,-1.323 4.669,-1.616 2.266,-3.781 10.674,-15.985 9.916,-20.1 l -0.917,-0.472 c -1.343,-0.566 -2.212,-0.989 -3.307,-1.992 l 0.191,-0.796 c 2.316,-1.237 4.917,-0.992 7.371,-1.792 0.268,-0.087 0.534,-0.183 0.801,-0.274 q 5.968,-11.3 13.31,-21.76 c 4.686,-6.699 10.227,-13.463 13.653,-20.918 -1.747,-2.871 -3.028,-5.964 -4.999,-8.707 -3.021,-11.516 -9.013,-23.7 -14.698,-34.15 z"
       id="path38" /><path
       fill="#330911"
       d="m 560.914,849.838 q 7.671,-0.935 15.14,-2.917 c 4.294,-1.102 18.176,-5.913 21.344,-5.813 0.356,0.012 0.669,0.245 1.003,0.368 l 0.315,0.971 c -2.299,4.083 -15.162,7.498 -19.796,8.799 -7.447,2.09 -15.363,2.971 -23.062,3.446 -1.343,-0.566 -2.212,-0.989 -3.307,-1.992 l 0.191,-0.796 c 2.316,-1.237 4.917,-0.992 7.371,-1.792 0.268,-0.087 0.534,-0.183 0.801,-0.274 z"
       id="path39" /><path
       fill="#330911"
       d="m 691.195,796.3 2.808,0.988 c 0.469,1.097 0.338,1.541 -0.148,2.592 -4.905,10.591 -37.902,35.776 -49.202,40.404 -1.1,0.155 -1.325,0.103 -2.369,-0.293 l -0.318,-0.944 c 1.026,-2.821 7.374,-6.059 9.934,-7.775 9.189,-6.158 17.774,-12.908 25.584,-20.771 4.627,-4.658 8.736,-9.912 13.711,-14.201 z"
       id="path40" /><path
       fill="#330911"
       d="m 546.859,875.264 c 11.635,-1.589 22.877,-2.873 34.249,-5.977 q 8.594,-2.39 17.024,-5.308 c 4.03,-1.386 9.238,-4.236 13.351,-4.512 l 0.91,0.781 c -0.164,1.318 -0.548,1.742 -1.641,2.523 -10.66,7.617 -38.739,14.114 -52.541,15.81 -4.606,0.566 -10.519,0.049 -14.869,1.359 -0.615,-0.44 -0.813,-0.669 -1.174,-1.367 -0.428,-0.827 -0.223,-0.861 0.022,-1.693 1.535,-1.13 2.808,-1.323 4.669,-1.616 z"
       id="path41" /><path
       fill="#d2dc7d"
       d="m 714.63,194.267 3.141,3.707 c -17.194,19.234 -27.373,33.036 -36.268,57.573 -1.282,3.537 -3.532,7.864 -3.207,11.715 0.172,2.037 2.374,3.731 3.909,4.945 9.669,7.648 19.444,14.336 28.431,22.894 41.564,39.576 67.867,94.799 75.132,151.53 8.936,69.785 -13.695,145.19 -56.714,200.442 -40.66,52.222 -104.44,89.763 -170.302,97.961 -49.03,6.103 -94.486,-2.428 -133.953,-33.334 -11.589,-9.075 -21.116,-20.209 -29.722,-32.08 -1.511,-2.085 -3.789,-4.718 -4.759,-7.084 0.372,-0.627 0.6,-0.998 0.584,-1.763 -0.076,-3.604 -5.012,-15.268 -6.329,-19.95 -7.384,-26.253 -10.43,-53.396 -11.055,-80.635 -1.516,-66.102 10.604,-138.33 37.278,-199.026 5.332,-12.133 11.763,-23.682 18.258,-35.223 9.622,-17.099 17.707,-31.437 31.361,-45.749 1.31,-0.08 2.487,-0.202 3.649,-0.86 5.008,-2.837 9.793,-6.854 14.56,-10.148 8.12,-5.61 16.949,-10.858 25.779,-15.266 23.565,-11.765 48.061,-18.936 74.488,-19.867 q 2.468,-0.099 4.937,-0.126 2.47,-0.027 4.939,0.018 2.469,0.045 4.936,0.162 2.467,0.117 4.93,0.305 2.462,0.189 4.918,0.45 2.456,0.261 4.903,0.593 2.447,0.332 4.884,0.735 2.436,0.404 4.86,0.878 2.424,0.474 4.833,1.019 2.408,0.545 4.8,1.16 2.392,0.615 4.765,1.299 2.373,0.685 4.725,1.438 2.352,0.753 4.681,1.575 2.329,0.821 4.633,1.711 2.304,0.889 4.582,1.845 2.277,0.956 4.525,1.978 c 2.311,1.027 8.334,4.583 10.392,2.339 3.519,-3.837 5.395,-11.801 7.584,-16.668 8.823,-19.613 22.697,-38.692 40.912,-50.493 z"
       id="path42" /><path
       fill="#330911"
       d="m 730.775,609.206 c 0.985,0.117 1.471,0.288 2.359,0.679 0.884,1.167 1.405,2.107 1.473,3.605 0.126,2.746 -0.814,4.992 -2.552,7.051 -0.173,-0.045 -0.356,-0.064 -0.52,-0.137 -1.006,-0.446 -1.478,-0.887 -1.927,-1.882 -1.183,-2.626 0.303,-6.761 1.167,-9.316 z"
       id="path43" /><path
       fill="#330911"
       d="m 715.83,613.222 c 0.249,0.095 0.502,0.182 0.747,0.285 1.241,0.52 1.956,1.559 2.408,2.785 1.289,3.489 0.528,7.659 -1.039,10.91 -0.345,-0.048 -0.728,-0.088 -1.055,-0.205 -1.177,-0.422 -1.633,-0.805 -2.095,-1.985 -1.204,-3.078 -0.406,-8.87 1.034,-11.79 z"
       id="path44" /><path
       fill="#330911"
       d="m 492.658,687.045 c 0.193,0.072 0.393,0.128 0.58,0.216 1.206,0.565 1.577,0.896 1.925,2.232 0.857,3.283 -0.648,10.425 -2.472,13.266 -1.527,-0.356 -1.653,-0.337 -2.668,-1.512 -1.198,-4.739 0.889,-9.82 2.635,-14.202 z"
       id="path45" /><path
       fill="#330911"
       d="m 507.988,683.696 c 0.979,0.139 1.356,0.351 2.109,0.987 0.306,0.856 0.471,1.546 0.489,2.464 0.073,3.709 -0.895,8.61 -3.587,11.303 -0.247,-0.125 -0.513,-0.219 -0.74,-0.377 -1.275,-0.882 -1.766,-2.168 -1.869,-3.667 -0.248,-3.632 1.274,-7.954 3.598,-10.71 z"
       id="path46" /><path
       fill="#330911"
       d="m 613.097,601.543 c 1.065,-0.085 2.205,-0.206 3.26,0 3.86,0.751 6.687,4.331 8.657,7.466 2.318,3.688 8.086,13.674 6.756,17.971 -0.25,0.807 -0.587,0.785 -1.262,1.16 -3.367,-1.149 -8.926,-14.771 -12.676,-18.27 -1.124,-1.049 -2.248,-1.579 -3.832,-1.37 -2.196,0.289 -3.006,1.935 -4.137,3.624 l -0.405,0.615 c -2.698,4.604 -10.007,22.409 -13.03,23.866 l -0.724,-0.863 c -0.444,-2.724 -0.112,-5.03 0.627,-7.682 2.622,-9.408 7.936,-21.519 16.766,-26.517 z"
       id="path47" /><path
       fill="#330911"
       d="m 462.835,363.629 c 7.202,-0.604 13.773,0.982 20.031,4.541 3.517,1.999 9.813,5.02 10.432,9.531 0.178,1.303 0.074,1.585 -0.649,2.568 -3.925,1.639 -11.228,-4.71 -14.808,-6.531 -2.511,-1.277 -5.265,-2.323 -8.037,-2.84 -6.187,-1.154 -11.906,0.804 -16.988,4.253 l -0.59,0.407 c -2.767,2.496 -5.071,5.184 -7.023,8.352 -1.892,3.073 -5.531,13.907 -7.706,15.09 -1.545,0.154 -1.748,0.227 -3.099,-0.497 -0.374,-0.588 -0.689,-1.12 -0.807,-1.82 -0.894,-5.28 4.574,-14.516 7.603,-18.945 5.583,-8.162 11.882,-12.33 21.641,-14.109 z"
       id="path48" /><path
       fill="#330911"
       d="m 687.903,334.204 c 0.231,-0.011 0.462,-0.025 0.694,-0.033 6.694,-0.237 13.402,1.893 18.212,6.666 3.833,3.803 8.991,12.151 8.9,17.624 -0.027,1.588 -0.521,2.597 -1.69,3.685 -0.448,0.073 -0.895,0.284 -1.344,0.218 -2.94,-0.427 -7.599,-15.494 -15.908,-19.51 -5.218,-2.521 -10.307,-1.566 -15.519,0.275 -7.927,3.448 -13.186,11.111 -16.979,18.595 -0.895,1.765 -2.031,4.862 -3.599,6.157 -1.039,0.858 -1.593,0.592 -2.852,0.468 -0.86,-0.797 -1.275,-1.359 -1.457,-2.556 -0.817,-5.374 5.886,-15.449 9.21,-19.531 6.099,-7.492 12.748,-11.099 22.332,-12.058 z"
       id="path49" /><path
       fill="#330911"
       d="m 648.093,638.514 c 1.671,-0.047 2.269,-0.039 3.717,0.941 0.7,0.994 1.082,1.757 1.064,3.004 -0.203,14.319 -18.446,42.115 -28.327,52.533 -9.113,9.607 -21.655,18.722 -35.417,19.009 -10.857,0.225 -18.893,-5.343 -26.357,-12.593 -5.31,-6.118 -9.589,-12.541 -12.735,-20.031 -2.224,-5.293 -6.23,-14.339 -3.918,-19.928 0.958,-0.836 1.28,-0.875 2.574,-0.961 3.538,-0.236 7.31,0.356 10.875,0.424 4.133,0.078 8.363,-0.449 12.463,-0.918 q 6.228,-0.717 12.405,-1.79 6.177,-1.072 12.282,-2.496 6.106,-1.423 12.12,-3.194 6.014,-1.77 11.917,-3.882 c 9.169,-3.222 18.128,-7.007 27.337,-10.118 z"
       id="path50" /><path
       fill="#fefefe"
       d="m 623.62,654.522 0.451,0.043 0.328,0.632 c -0.116,0.316 -0.228,0.634 -0.35,0.947 -2.383,6.101 -7.284,9.11 -13.059,11.418 -10.058,4.021 -22.226,6.851 -32.543,2.395 -1.585,-0.892 -3.379,-2.05 -4.306,-3.638 1.038,-1.301 4.489,-1.429 6.153,-1.61 15.316,-1.671 28.806,-5.305 43.326,-10.187 z"
       id="path51" /><path
       fill="#563236"
       d="m 641.392,648.113 c 1.331,-0.071 2.54,-0.031 3.867,0.092 l 0.529,0.958 c 0.337,9.908 -16.003,30.593 -22.52,38.657 -2.565,-2.32 -5.545,-4.308 -8.326,-6.371 -3.947,-2.67 -8.281,-4.724 -12.552,-6.812 5.718,-1.672 12.19,-3.293 17.302,-6.431 5.909,-3.627 7.476,-9.474 9.069,-15.761 4.164,-1.562 8.313,-3.246 12.631,-4.332 z"
       id="path52" /><path
       fill="#ee867c"
       d="m 583.262,678.711 c 2.062,-0.261 4.348,-0.236 6.426,-0.192 10.803,0.231 22.077,3.74 29.672,11.704 -6.554,7.534 -14.664,13.165 -24.323,15.996 -6.867,1.587 -12.858,0.467 -18.996,-2.853 -4.827,-2.611 -15.696,-11.341 -17.071,-16.622 -0.245,-0.94 -0.27,-1.66 0.397,-2.452 3.561,-4.234 18.337,-5.12 23.895,-5.581 z"
       id="path53" /><path
       fill="#330911"
       d="m 704.484,389.147 c 7.872,-1.031 15.934,0.106 23.035,3.72 15.258,7.768 24.354,23.356 29.392,39.134 12.883,40.35 3.485,90.413 -15.573,127.399 -12.48,24.219 -32.146,49.11 -58.977,57.657 -0.45,0.119 -0.901,0.237 -1.358,0.327 -11.117,2.172 -21.525,0.998 -31.051,-5.486 -13.756,-9.364 -18.39,-26.853 -21.339,-42.325 -9.104,-47.755 2.516,-106.438 30.114,-146.609 11.224,-16.337 25.628,-30.125 45.757,-33.817 z"
       id="path54" /><path
       fill="#563236"
       d="m 657.354,437.086 q 0.59,-0.04 1.181,-0.064 c 7.759,-0.3 15.379,1.565 21.086,7.128 15.972,15.571 21.944,45.96 21.827,67.35 -0.167,30.524 -9.568,68.744 -31.796,90.665 -3.136,2.831 -6.253,5.244 -10.136,6.974 -1.546,-0.639 -3.094,-1.289 -4.524,-2.164 -10.708,-6.556 -16.302,-20.99 -18.99,-32.611 -8.646,-37.376 -2.025,-77.753 10.903,-113.305 2.915,-8.018 5.899,-16.734 10.449,-23.973 z"
       id="path55" /><path
       fill="#330911"
       d="m 659.073,452.509 c 1.629,-0.079 3.329,-0.245 4.87,0.396 2.833,1.179 4.846,3.89 5.956,6.665 4.145,10.36 1.982,26.262 -2.246,36.295 -2.333,5.54 -5.586,9.951 -11.266,12.302 -1.408,0.038 -2.816,0.015 -4.16,-0.47 -2.708,-0.977 -4.8,-3.353 -6.032,-5.885 -4.931,-10.135 -1.789,-25.575 1.673,-35.678 2.119,-6.185 5.245,-10.671 11.205,-13.625 z"
       id="path56" /><path
       fill="#feeb92"
       d="m 659.548,458.237 c 1.038,0.339 2.09,0.697 2.906,1.451 3.025,2.796 3.875,7.25 4.019,11.177 0.39,10.687 -2.351,22.81 -9.812,30.772 -0.996,0.352 -0.683,0.346 -1.571,0.349 -0.84,0.004 -1.271,-0.497 -1.83,-1.106 -2.643,-2.879 -2.558,-10.748 -2.431,-14.535 0.287,-8.527 2.214,-22.056 8.719,-28.108 z"
       id="path57" /><path
       fill="#feeb92"
       d="m 704.816,396.601 c 8.585,-0.866 17.181,0.858 24.373,5.713 13.878,9.369 20.806,27.801 23.868,43.575 8.203,42.258 -3.909,91.32 -27.93,126.659 -11.834,17.41 -28.6,33.771 -49.9,37.899 l -6.605,0.607 c 1.867,-1.437 3.594,-3.015 5.291,-4.648 23.34,-22.472 33.336,-62.947 33.95,-94.406 0.46,-23.579 -5.094,-53.745 -22.236,-71.303 -6.794,-6.959 -13.483,-10.108 -23.28,-10.262 q 0.412,-0.682 0.844,-1.351 c 10.303,-15.738 22.718,-28.437 41.625,-32.483 z"
       id="path58" /><path
       fill="#330911"
       d="m 485.388,426.196 c 18.092,-1.532 33.195,2.823 47.716,13.817 26.341,19.942 40.507,53.178 44.839,85.242 4.904,36.299 -1.335,77.694 -24.03,107.191 -14.832,19.277 -35.544,32.375 -59.795,35.452 -19.213,1.203 -38.046,-2.031 -53.493,-14.133 -24.021,-18.819 -36.03,-49.539 -39.649,-79.068 -4.781,-39.01 6.243,-83.64 30.645,-114.663 13.613,-17.306 31.365,-31.093 53.767,-33.838 z"
       id="path59" /><path
       fill="#feeb92"
       d="m 488.34,432.693 c 11.541,-1.296 23.232,1.977 33.181,7.721 23.845,13.767 38.898,41.538 45.757,67.422 9.453,35.679 6.949,77.927 -11.881,110.152 -13.378,22.895 -29.662,35.361 -55.223,42.028 -8.396,1.571 -16.19,1.388 -24.664,0.872 19.663,-15.383 32.171,-39.353 38.267,-63.253 10.006,-39.23 6.209,-87.149 -14.666,-122.147 -10.003,-16.772 -21.923,-27.043 -40.876,-31.887 q 1.684,-1.118 3.431,-2.133 1.748,-1.015 3.552,-1.925 1.805,-0.909 3.661,-1.709 1.855,-0.801 3.755,-1.489 1.901,-0.689 3.838,-1.263 1.938,-0.574 3.906,-1.032 1.969,-0.457 3.961,-0.797 1.992,-0.34 4.001,-0.56 z"
       id="path60" /><path
       fill="#563236"
       d="m 452.124,448.852 c 17.933,3.95 28.937,11.974 39.305,27.134 20.208,29.549 24.718,76.637 18.174,111.244 -5.289,27.972 -18.238,55.429 -42.33,71.907 -0.524,0.176 -0.618,0.248 -1.254,0.227 -2.196,-0.072 -5.564,-1.88 -7.57,-2.891 -10.964,-5.527 -19.735,-12.643 -27.21,-22.461 -22.009,-28.906 -26.995,-65.6 -22.154,-100.797 4.119,-29.948 18.419,-65.662 43.039,-84.363 z"
       id="path61" /><path
       fill="#330911"
       d="m 468.418,482.658 c 2.59,0.182 4.886,0.541 7.142,1.879 5.064,3.001 7.624,8.639 9.094,14.106 3.446,12.808 2.592,30.137 -4.18,41.788 -3.465,5.962 -8.21,10.588 -15.028,12.382 -3.182,-0.141 -5.87,-0.479 -8.613,-2.25 -5.45,-3.521 -8.099,-9.767 -9.33,-15.909 -2.805,-14.001 0.49,-32.182 8.7,-43.968 3.194,-4.585 6.736,-7.076 12.215,-8.028 z"
       id="path62" /><path
       fill="#feeb92"
       d="m 467.159,488.981 c 1.101,-0.039 2.328,-0.128 3.393,0.189 3.206,0.955 5.675,4.34 7.006,7.22 4.845,10.479 3.947,25.886 0.008,36.501 -2.307,6.217 -5.639,10.732 -11.77,13.517 -1.361,0.052 -2.845,0.183 -4.159,-0.24 -2.866,-0.921 -5.049,-3.453 -6.327,-6.082 -4.899,-10.079 -2.92,-25.901 0.647,-36.096 2.112,-6.038 5.233,-12.096 11.202,-15.009 z"
       id="path63" /></g></svg>
