<?xml version="1.0" encoding="UTF-8"?>
<svg xmlns="http://www.w3.org/2000/svg" xmlns:xlink="http://www.w3.org/1999/xlink" width="256px" height="256px" viewBox="0 0 256 256" version="1.1">
<g id="surface1">
<rect x="0" y="0" width="256" height="256" style="fill:rgb(0.392157%,0.392157%,0.392157%);fill-opacity:1;stroke:none;"/>
<path style=" stroke:none;fill-rule:nonzero;fill:rgb(16.078431%,16.078431%,16.078431%);fill-opacity:1;" d="M 100.125 48.355469 L 101.261719 48.925781 Z M 100.125 48.355469 "/>
<path style=" stroke:none;fill-rule:nonzero;fill:rgb(35.686275%,35.686275%,35.686275%);fill-opacity:1;" d="M 124.585938 47.785156 L 124.585938 49.492188 L 158.71875 49.492188 L 124.585938 47.785156 M 98.988281 49.492188 L 100.691406 51.199219 Z M 98.988281 49.492188 "/>
<path style=" stroke:none;fill-rule:nonzero;fill:rgb(99.215686%,99.215686%,99.215686%);fill-opacity:1;" d="M 100.691406 49.492188 L 50.71875 138.238281 L 25.601562 186.027344 L 177.492188 186.027344 L 137.257812 112.640625 Z M 100.691406 49.492188 "/>
<path style=" stroke:none;fill-rule:nonzero;fill:rgb(63.137255%,63.137255%,63.137255%);fill-opacity:1;" d="M 124.585938 49.492188 L 126.292969 51.199219 Z M 124.585938 49.492188 "/>
<path style=" stroke:none;fill-rule:nonzero;fill:rgb(99.215686%,99.215686%,99.215686%);fill-opacity:1;" d="M 126.292969 49.492188 C 136.410156 83.890625 164.03125 119.03125 181.894531 150.1875 C 187.367188 159.730469 193.761719 178.5625 203.457031 184.273438 C 212.371094 189.523438 230.507812 186.027344 240.640625 186.027344 L 183.636719 90.453125 L 158.074219 51.246094 Z M 126.292969 49.492188 "/>
<path style=" stroke:none;fill-rule:nonzero;fill:rgb(63.137255%,63.137255%,63.137255%);fill-opacity:1;" d="M 158.71875 49.492188 L 160.425781 51.199219 L 158.71875 49.492188 M 98.988281 51.199219 L 100.691406 52.90625 Z M 98.988281 51.199219 "/>
<path style=" stroke:none;fill-rule:nonzero;fill:rgb(35.686275%,35.686275%,35.686275%);fill-opacity:1;" d="M 102.398438 51.199219 L 104.105469 52.90625 L 102.398438 51.199219 M 124.585938 51.199219 L 126.292969 52.90625 Z M 124.585938 51.199219 "/>
<path style=" stroke:none;fill-rule:nonzero;fill:rgb(16.078431%,16.078431%,16.078431%);fill-opacity:1;" d="M 160.425781 51.199219 L 162.132812 52.90625 Z M 160.425781 51.199219 "/>
<path style=" stroke:none;fill-rule:nonzero;fill:rgb(35.686275%,35.686275%,35.686275%);fill-opacity:1;" d="M 97.28125 52.90625 L 98.988281 54.613281 Z M 97.28125 52.90625 "/>
<path style=" stroke:none;fill-rule:nonzero;fill:rgb(16.078431%,16.078431%,16.078431%);fill-opacity:1;" d="M 104.105469 52.90625 L 105.8125 54.613281 Z M 104.105469 52.90625 "/>
<path style=" stroke:none;fill-rule:nonzero;fill:rgb(63.137255%,63.137255%,63.137255%);fill-opacity:1;" d="M 126.292969 52.90625 L 128 54.613281 L 126.292969 52.90625 M 160.425781 52.90625 L 162.132812 54.613281 Z M 160.425781 52.90625 "/>
<path style=" stroke:none;fill-rule:nonzero;fill:rgb(16.078431%,16.078431%,16.078431%);fill-opacity:1;" d="M 95.574219 54.613281 L 97.28125 56.320312 Z M 95.574219 54.613281 "/>
<path style=" stroke:none;fill-rule:nonzero;fill:rgb(63.137255%,63.137255%,63.137255%);fill-opacity:1;" d="M 104.105469 54.613281 L 105.8125 56.320312 Z M 104.105469 54.613281 "/>
<path style=" stroke:none;fill-rule:nonzero;fill:rgb(16.078431%,16.078431%,16.078431%);fill-opacity:1;" d="M 126.292969 54.613281 L 128 56.320312 Z M 126.292969 54.613281 "/>
<path style=" stroke:none;fill-rule:nonzero;fill:rgb(35.686275%,35.686275%,35.686275%);fill-opacity:1;" d="M 162.132812 54.613281 L 163.839844 56.320312 Z M 162.132812 54.613281 "/>
<path style=" stroke:none;fill-rule:nonzero;fill:rgb(63.137255%,63.137255%,63.137255%);fill-opacity:1;" d="M 95.574219 56.320312 L 97.28125 58.027344 Z M 95.574219 56.320312 "/>
<path style=" stroke:none;fill-rule:nonzero;fill:rgb(16.078431%,16.078431%,16.078431%);fill-opacity:1;" d="M 105.8125 56.320312 L 107.519531 58.027344 Z M 105.8125 56.320312 "/>
<path style=" stroke:none;fill-rule:nonzero;fill:rgb(63.137255%,63.137255%,63.137255%);fill-opacity:1;" d="M 128 56.320312 L 129.707031 58.027344 L 128 56.320312 M 162.132812 56.320312 L 163.839844 58.027344 Z M 162.132812 56.320312 "/>
<path style=" stroke:none;fill-rule:nonzero;fill:rgb(16.078431%,16.078431%,16.078431%);fill-opacity:1;" d="M 93.867188 58.027344 L 95.574219 59.734375 Z M 93.867188 58.027344 "/>
<path style=" stroke:none;fill-rule:nonzero;fill:rgb(63.137255%,63.137255%,63.137255%);fill-opacity:1;" d="M 105.8125 58.027344 L 107.519531 59.734375 Z M 105.8125 58.027344 "/>
<path style=" stroke:none;fill-rule:nonzero;fill:rgb(16.078431%,16.078431%,16.078431%);fill-opacity:1;" d="M 128 58.027344 L 129.707031 59.734375 Z M 128 58.027344 "/>
<path style=" stroke:none;fill-rule:nonzero;fill:rgb(35.686275%,35.686275%,35.686275%);fill-opacity:1;" d="M 163.839844 58.027344 L 165.546875 59.734375 Z M 163.839844 58.027344 "/>
<path style=" stroke:none;fill-rule:nonzero;fill:rgb(63.137255%,63.137255%,63.137255%);fill-opacity:1;" d="M 93.867188 59.734375 L 95.574219 61.441406 Z M 93.867188 59.734375 "/>
<path style=" stroke:none;fill-rule:nonzero;fill:rgb(35.686275%,35.686275%,35.686275%);fill-opacity:1;" d="M 107.519531 59.734375 L 109.226562 61.441406 L 107.519531 59.734375 M 129.707031 59.734375 L 131.414062 61.441406 Z M 129.707031 59.734375 "/>
<path style=" stroke:none;fill-rule:nonzero;fill:rgb(16.078431%,16.078431%,16.078431%);fill-opacity:1;" d="M 165.546875 59.734375 L 167.253906 61.441406 Z M 165.546875 59.734375 "/>
<path style=" stroke:none;fill-rule:nonzero;fill:rgb(35.686275%,35.686275%,35.686275%);fill-opacity:1;" d="M 92.160156 61.441406 L 93.867188 63.148438 Z M 92.160156 61.441406 "/>
<path style=" stroke:none;fill-rule:nonzero;fill:rgb(63.137255%,63.137255%,63.137255%);fill-opacity:1;" d="M 131.414062 61.441406 L 133.121094 63.148438 L 131.414062 61.441406 M 165.546875 61.441406 L 167.253906 63.148438 L 165.546875 61.441406 M 92.160156 63.148438 L 93.867188 64.851562 L 92.160156 63.148438 M 109.226562 63.148438 L 110.933594 64.851562 Z M 109.226562 63.148438 "/>
<path style=" stroke:none;fill-rule:nonzero;fill:rgb(35.686275%,35.686275%,35.686275%);fill-opacity:1;" d="M 131.414062 63.148438 L 133.121094 64.851562 L 131.414062 63.148438 M 167.253906 63.148438 L 168.960938 64.851562 L 167.253906 63.148438 M 90.453125 64.851562 L 92.160156 66.558594 Z M 90.453125 64.851562 "/>
<path style=" stroke:none;fill-rule:nonzero;fill:rgb(16.078431%,16.078431%,16.078431%);fill-opacity:1;" d="M 110.933594 64.851562 L 112.640625 66.558594 Z M 110.933594 64.851562 "/>
<path style=" stroke:none;fill-rule:nonzero;fill:rgb(63.137255%,63.137255%,63.137255%);fill-opacity:1;" d="M 133.121094 64.851562 L 134.828125 66.558594 L 133.121094 64.851562 M 167.253906 64.851562 L 168.960938 66.558594 L 167.253906 64.851562 M 110.933594 66.558594 L 112.640625 68.265625 Z M 110.933594 66.558594 "/>
<path style=" stroke:none;fill-rule:nonzero;fill:rgb(16.078431%,16.078431%,16.078431%);fill-opacity:1;" d="M 133.121094 66.558594 L 134.828125 68.265625 Z M 133.121094 66.558594 "/>
<path style=" stroke:none;fill-rule:nonzero;fill:rgb(63.137255%,63.137255%,63.137255%);fill-opacity:1;" d="M 168.960938 66.558594 L 170.667969 68.265625 L 168.960938 66.558594 M 88.746094 68.265625 L 90.453125 69.972656 Z M 88.746094 68.265625 "/>
<path style=" stroke:none;fill-rule:nonzero;fill:rgb(16.078431%,16.078431%,16.078431%);fill-opacity:1;" d="M 112.640625 68.265625 L 114.347656 69.972656 Z M 112.640625 68.265625 "/>
<path style=" stroke:none;fill-rule:nonzero;fill:rgb(63.137255%,63.137255%,63.137255%);fill-opacity:1;" d="M 134.828125 68.265625 L 136.535156 69.972656 Z M 134.828125 68.265625 "/>
<path style=" stroke:none;fill-rule:nonzero;fill:rgb(16.078431%,16.078431%,16.078431%);fill-opacity:1;" d="M 170.667969 68.265625 L 172.375 69.972656 L 170.667969 68.265625 M 87.039062 69.972656 L 88.746094 71.679688 Z M 87.039062 69.972656 "/>
<path style=" stroke:none;fill-rule:nonzero;fill:rgb(63.137255%,63.137255%,63.137255%);fill-opacity:1;" d="M 112.640625 69.972656 L 114.347656 71.679688 Z M 112.640625 69.972656 "/>
<path style=" stroke:none;fill-rule:nonzero;fill:rgb(16.078431%,16.078431%,16.078431%);fill-opacity:1;" d="M 134.828125 69.972656 L 136.535156 71.679688 Z M 134.828125 69.972656 "/>
<path style=" stroke:none;fill-rule:nonzero;fill:rgb(63.137255%,63.137255%,63.137255%);fill-opacity:1;" d="M 170.667969 69.972656 L 172.375 71.679688 L 170.667969 69.972656 M 87.039062 71.679688 L 88.746094 73.386719 Z M 87.039062 71.679688 "/>
<path style=" stroke:none;fill-rule:nonzero;fill:rgb(35.686275%,35.686275%,35.686275%);fill-opacity:1;" d="M 114.347656 71.679688 L 116.054688 73.386719 L 114.347656 71.679688 M 136.535156 71.679688 L 138.238281 73.386719 L 136.535156 71.679688 M 172.375 71.679688 L 174.078125 73.386719 L 172.375 71.679688 M 85.332031 73.386719 L 87.039062 75.09375 Z M 85.332031 73.386719 "/>
<path style=" stroke:none;fill-rule:nonzero;fill:rgb(63.137255%,63.137255%,63.137255%);fill-opacity:1;" d="M 114.347656 73.386719 L 116.054688 75.09375 L 114.347656 73.386719 M 138.238281 73.386719 L 139.945312 75.09375 L 138.238281 73.386719 M 85.332031 75.09375 L 87.039062 76.800781 Z M 85.332031 75.09375 "/>
<path style=" stroke:none;fill-rule:nonzero;fill:rgb(35.686275%,35.686275%,35.686275%);fill-opacity:1;" d="M 116.054688 75.09375 L 117.761719 76.800781 L 116.054688 75.09375 M 138.238281 75.09375 L 139.945312 76.800781 Z M 138.238281 75.09375 "/>
<path style=" stroke:none;fill-rule:nonzero;fill:rgb(63.137255%,63.137255%,63.137255%);fill-opacity:1;" d="M 174.078125 75.09375 L 175.785156 76.800781 Z M 174.078125 75.09375 "/>
<path style=" stroke:none;fill-rule:nonzero;fill:rgb(35.686275%,35.686275%,35.686275%);fill-opacity:1;" d="M 83.625 76.800781 L 85.332031 78.507812 Z M 83.625 76.800781 "/>
<path style=" stroke:none;fill-rule:nonzero;fill:rgb(16.078431%,16.078431%,16.078431%);fill-opacity:1;" d="M 117.761719 76.800781 L 119.464844 78.507812 Z M 117.761719 76.800781 "/>
<path style=" stroke:none;fill-rule:nonzero;fill:rgb(63.137255%,63.137255%,63.137255%);fill-opacity:1;" d="M 139.945312 76.800781 L 141.652344 78.507812 Z M 139.945312 76.800781 "/>
<path style=" stroke:none;fill-rule:nonzero;fill:rgb(16.078431%,16.078431%,16.078431%);fill-opacity:1;" d="M 175.785156 76.800781 L 177.492188 78.507812 Z M 175.785156 76.800781 "/>
<path style=" stroke:none;fill-rule:nonzero;fill:rgb(63.137255%,63.137255%,63.137255%);fill-opacity:1;" d="M 117.761719 78.507812 L 119.464844 80.214844 Z M 117.761719 78.507812 "/>
<path style=" stroke:none;fill-rule:nonzero;fill:rgb(16.078431%,16.078431%,16.078431%);fill-opacity:1;" d="M 139.945312 78.507812 L 141.652344 80.214844 Z M 139.945312 78.507812 "/>
<path style=" stroke:none;fill-rule:nonzero;fill:rgb(63.137255%,63.137255%,63.137255%);fill-opacity:1;" d="M 175.785156 78.507812 L 177.492188 80.214844 Z M 175.785156 78.507812 "/>
<path style=" stroke:none;fill-rule:nonzero;fill:rgb(35.686275%,35.686275%,35.686275%);fill-opacity:1;" d="M 81.921875 80.214844 L 83.625 81.921875 Z M 81.921875 80.214844 "/>
<path style=" stroke:none;fill-rule:nonzero;fill:rgb(16.078431%,16.078431%,16.078431%);fill-opacity:1;" d="M 119.464844 80.214844 L 121.171875 81.921875 Z M 119.464844 80.214844 "/>
<path style=" stroke:none;fill-rule:nonzero;fill:rgb(35.686275%,35.686275%,35.686275%);fill-opacity:1;" d="M 141.652344 80.214844 L 143.359375 81.921875 L 141.652344 80.214844 M 177.492188 80.214844 L 179.199219 81.921875 Z M 177.492188 80.214844 "/>
<path style=" stroke:none;fill-rule:nonzero;fill:rgb(16.078431%,16.078431%,16.078431%);fill-opacity:1;" d="M 80.214844 81.921875 L 81.921875 83.625 Z M 80.214844 81.921875 "/>
<path style=" stroke:none;fill-rule:nonzero;fill:rgb(63.137255%,63.137255%,63.137255%);fill-opacity:1;" d="M 119.464844 81.921875 L 121.171875 83.625 L 119.464844 81.921875 M 80.214844 83.625 L 81.921875 85.332031 Z M 80.214844 83.625 "/>
<path style=" stroke:none;fill-rule:nonzero;fill:rgb(16.078431%,16.078431%,16.078431%);fill-opacity:1;" d="M 121.171875 83.625 L 122.878906 85.332031 Z M 121.171875 83.625 "/>
<path style=" stroke:none;fill-rule:nonzero;fill:rgb(35.686275%,35.686275%,35.686275%);fill-opacity:1;" d="M 143.359375 83.625 L 145.066406 85.332031 Z M 143.359375 83.625 "/>
<path style=" stroke:none;fill-rule:nonzero;fill:rgb(63.137255%,63.137255%,63.137255%);fill-opacity:1;" d="M 179.199219 83.625 L 180.90625 85.332031 Z M 179.199219 83.625 "/>
<path style=" stroke:none;fill-rule:nonzero;fill:rgb(16.078431%,16.078431%,16.078431%);fill-opacity:1;" d="M 78.507812 85.332031 L 80.214844 87.039062 Z M 78.507812 85.332031 "/>
<path style=" stroke:none;fill-rule:nonzero;fill:rgb(63.137255%,63.137255%,63.137255%);fill-opacity:1;" d="M 121.171875 85.332031 L 122.878906 87.039062 L 121.171875 85.332031 M 145.066406 85.332031 L 146.773438 87.039062 Z M 145.066406 85.332031 "/>
<path style=" stroke:none;fill-rule:nonzero;fill:rgb(16.078431%,16.078431%,16.078431%);fill-opacity:1;" d="M 180.90625 85.332031 L 182.613281 87.039062 Z M 180.90625 85.332031 "/>
<path style=" stroke:none;fill-rule:nonzero;fill:rgb(63.137255%,63.137255%,63.137255%);fill-opacity:1;" d="M 78.507812 87.039062 L 80.214844 88.746094 Z M 78.507812 87.039062 "/>
<path style=" stroke:none;fill-rule:nonzero;fill:rgb(35.686275%,35.686275%,35.686275%);fill-opacity:1;" d="M 122.878906 87.039062 L 124.585938 88.746094 Z M 122.878906 87.039062 "/>
<path style=" stroke:none;fill-rule:nonzero;fill:rgb(16.078431%,16.078431%,16.078431%);fill-opacity:1;" d="M 145.066406 87.039062 L 146.773438 88.746094 Z M 145.066406 87.039062 "/>
<path style=" stroke:none;fill-rule:nonzero;fill:rgb(63.137255%,63.137255%,63.137255%);fill-opacity:1;" d="M 180.90625 87.039062 L 182.613281 88.746094 Z M 180.90625 87.039062 "/>
<path style=" stroke:none;fill-rule:nonzero;fill:rgb(35.686275%,35.686275%,35.686275%);fill-opacity:1;" d="M 76.800781 88.746094 L 78.507812 90.453125 Z M 76.800781 88.746094 "/>
<path style=" stroke:none;fill-rule:nonzero;fill:rgb(63.137255%,63.137255%,63.137255%);fill-opacity:1;" d="M 146.773438 88.746094 L 148.480469 90.453125 Z M 146.773438 88.746094 "/>
<path style=" stroke:none;fill-rule:nonzero;fill:rgb(35.686275%,35.686275%,35.686275%);fill-opacity:1;" d="M 182.613281 88.746094 L 184.320312 90.453125 L 182.613281 88.746094 M 124.585938 90.453125 L 126.292969 92.160156 Z M 124.585938 90.453125 "/>
<path style=" stroke:none;fill-rule:nonzero;fill:rgb(16.078431%,16.078431%,16.078431%);fill-opacity:1;" d="M 146.773438 90.453125 L 148.480469 92.160156 Z M 146.773438 90.453125 "/>
<path style=" stroke:none;fill-rule:nonzero;fill:rgb(35.686275%,35.686275%,35.686275%);fill-opacity:1;" d="M 75.09375 92.160156 L 76.800781 93.867188 Z M 75.09375 92.160156 "/>
<path style=" stroke:none;fill-rule:nonzero;fill:rgb(16.078431%,16.078431%,16.078431%);fill-opacity:1;" d="M 126.292969 92.160156 L 128 93.867188 Z M 126.292969 92.160156 "/>
<path style=" stroke:none;fill-rule:nonzero;fill:rgb(63.137255%,63.137255%,63.137255%);fill-opacity:1;" d="M 148.480469 92.160156 L 150.1875 93.867188 L 148.480469 92.160156 M 184.320312 92.160156 L 186.027344 93.867188 Z M 184.320312 92.160156 "/>
<path style=" stroke:none;fill-rule:nonzero;fill:rgb(16.078431%,16.078431%,16.078431%);fill-opacity:1;" d="M 73.386719 93.867188 L 75.09375 95.574219 Z M 73.386719 93.867188 "/>
<path style=" stroke:none;fill-rule:nonzero;fill:rgb(63.137255%,63.137255%,63.137255%);fill-opacity:1;" d="M 126.292969 93.867188 L 128 95.574219 Z M 126.292969 93.867188 "/>
<path style=" stroke:none;fill-rule:nonzero;fill:rgb(16.078431%,16.078431%,16.078431%);fill-opacity:1;" d="M 148.480469 93.867188 L 150.1875 95.574219 L 148.480469 93.867188 M 186.027344 93.867188 L 187.734375 95.574219 Z M 186.027344 93.867188 "/>
<path style=" stroke:none;fill-rule:nonzero;fill:rgb(63.137255%,63.137255%,63.137255%);fill-opacity:1;" d="M 73.386719 95.574219 L 75.09375 97.28125 Z M 73.386719 95.574219 "/>
<path style=" stroke:none;fill-rule:nonzero;fill:rgb(16.078431%,16.078431%,16.078431%);fill-opacity:1;" d="M 128 95.574219 L 129.707031 97.28125 Z M 128 95.574219 "/>
<path style=" stroke:none;fill-rule:nonzero;fill:rgb(35.686275%,35.686275%,35.686275%);fill-opacity:1;" d="M 150.1875 95.574219 L 151.894531 97.28125 Z M 150.1875 95.574219 "/>
<path style=" stroke:none;fill-rule:nonzero;fill:rgb(63.137255%,63.137255%,63.137255%);fill-opacity:1;" d="M 186.027344 95.574219 L 187.734375 97.28125 Z M 186.027344 95.574219 "/>
<path style=" stroke:none;fill-rule:nonzero;fill:rgb(16.078431%,16.078431%,16.078431%);fill-opacity:1;" d="M 71.679688 97.28125 L 73.386719 98.988281 Z M 71.679688 97.28125 "/>
<path style=" stroke:none;fill-rule:nonzero;fill:rgb(63.137255%,63.137255%,63.137255%);fill-opacity:1;" d="M 128 97.28125 L 129.707031 98.988281 L 128 97.28125 M 151.894531 97.28125 L 153.601562 98.988281 Z M 151.894531 97.28125 "/>
<path style=" stroke:none;fill-rule:nonzero;fill:rgb(35.686275%,35.686275%,35.686275%);fill-opacity:1;" d="M 187.734375 97.28125 L 189.441406 98.988281 Z M 187.734375 97.28125 "/>
<path style=" stroke:none;fill-rule:nonzero;fill:rgb(63.137255%,63.137255%,63.137255%);fill-opacity:1;" d="M 71.679688 98.988281 L 73.386719 100.691406 Z M 71.679688 98.988281 "/>
<path style=" stroke:none;fill-rule:nonzero;fill:rgb(35.686275%,35.686275%,35.686275%);fill-opacity:1;" d="M 129.707031 98.988281 L 131.414062 100.691406 L 129.707031 98.988281 M 151.894531 98.988281 L 153.601562 100.691406 L 151.894531 98.988281 M 69.972656 100.691406 L 71.679688 102.398438 Z M 69.972656 100.691406 "/>
<path style=" stroke:none;fill-rule:nonzero;fill:rgb(63.137255%,63.137255%,63.137255%);fill-opacity:1;" d="M 153.601562 100.691406 L 155.308594 102.398438 L 153.601562 100.691406 M 189.441406 100.691406 L 191.148438 102.398438 L 189.441406 100.691406 M 69.972656 102.398438 L 71.679688 104.105469 Z M 69.972656 102.398438 "/>
<path style=" stroke:none;fill-rule:nonzero;fill:rgb(35.686275%,35.686275%,35.686275%);fill-opacity:1;" d="M 131.414062 102.398438 L 133.121094 104.105469 Z M 131.414062 102.398438 "/>
<path style=" stroke:none;fill-rule:nonzero;fill:rgb(16.078431%,16.078431%,16.078431%);fill-opacity:1;" d="M 153.601562 102.398438 L 155.308594 104.105469 L 153.601562 102.398438 M 191.148438 102.398438 L 192.851562 104.105469 Z M 191.148438 102.398438 "/>
<path style=" stroke:none;fill-rule:nonzero;fill:rgb(35.686275%,35.686275%,35.686275%);fill-opacity:1;" d="M 68.265625 104.105469 L 69.972656 105.8125 Z M 68.265625 104.105469 "/>
<path style=" stroke:none;fill-rule:nonzero;fill:rgb(16.078431%,16.078431%,16.078431%);fill-opacity:1;" d="M 133.121094 104.105469 L 134.828125 105.8125 Z M 133.121094 104.105469 "/>
<path style=" stroke:none;fill-rule:nonzero;fill:rgb(63.137255%,63.137255%,63.137255%);fill-opacity:1;" d="M 155.308594 104.105469 L 157.011719 105.8125 L 155.308594 104.105469 M 191.148438 104.105469 L 192.851562 105.8125 L 191.148438 104.105469 M 133.121094 105.8125 L 134.828125 107.519531 Z M 133.121094 105.8125 "/>
<path style=" stroke:none;fill-rule:nonzero;fill:rgb(16.078431%,16.078431%,16.078431%);fill-opacity:1;" d="M 155.308594 105.8125 L 157.011719 107.519531 Z M 155.308594 105.8125 "/>
<path style=" stroke:none;fill-rule:nonzero;fill:rgb(35.686275%,35.686275%,35.686275%);fill-opacity:1;" d="M 192.851562 105.8125 L 194.558594 107.519531 Z M 192.851562 105.8125 "/>
<path style=" stroke:none;fill-rule:nonzero;fill:rgb(63.137255%,63.137255%,63.137255%);fill-opacity:1;" d="M 66.558594 107.519531 L 68.265625 109.226562 Z M 66.558594 107.519531 "/>
<path style=" stroke:none;fill-rule:nonzero;fill:rgb(16.078431%,16.078431%,16.078431%);fill-opacity:1;" d="M 134.828125 107.519531 L 136.535156 109.226562 Z M 134.828125 107.519531 "/>
<path style=" stroke:none;fill-rule:nonzero;fill:rgb(35.686275%,35.686275%,35.686275%);fill-opacity:1;" d="M 157.011719 107.519531 L 158.71875 109.226562 Z M 157.011719 107.519531 "/>
<path style=" stroke:none;fill-rule:nonzero;fill:rgb(16.078431%,16.078431%,16.078431%);fill-opacity:1;" d="M 64.851562 109.226562 L 66.558594 110.933594 Z M 64.851562 109.226562 "/>
<path style=" stroke:none;fill-rule:nonzero;fill:rgb(63.137255%,63.137255%,63.137255%);fill-opacity:1;" d="M 134.828125 109.226562 L 136.535156 110.933594 L 134.828125 109.226562 M 158.71875 109.226562 L 160.425781 110.933594 L 158.71875 109.226562 M 194.558594 109.226562 L 196.265625 110.933594 L 194.558594 109.226562 M 64.851562 110.933594 L 66.558594 112.640625 Z M 64.851562 110.933594 "/>
<path style=" stroke:none;fill-rule:nonzero;fill:rgb(35.686275%,35.686275%,35.686275%);fill-opacity:1;" d="M 136.535156 110.933594 L 138.238281 112.640625 L 136.535156 110.933594 M 158.71875 110.933594 L 160.425781 112.640625 Z M 158.71875 110.933594 "/>
<path style=" stroke:none;fill-rule:nonzero;fill:rgb(16.078431%,16.078431%,16.078431%);fill-opacity:1;" d="M 196.265625 110.933594 L 197.972656 112.640625 L 196.265625 110.933594 M 63.148438 112.640625 L 64.851562 114.347656 Z M 63.148438 112.640625 "/>
<path style=" stroke:none;fill-rule:nonzero;fill:rgb(63.137255%,63.137255%,63.137255%);fill-opacity:1;" d="M 136.535156 112.640625 L 138.238281 114.347656 L 136.535156 112.640625 M 160.425781 112.640625 L 162.132812 114.347656 L 160.425781 112.640625 M 196.265625 112.640625 L 197.972656 114.347656 L 196.265625 112.640625 M 63.148438 114.347656 L 64.851562 116.054688 Z M 63.148438 114.347656 "/>
<path style=" stroke:none;fill-rule:nonzero;fill:rgb(35.686275%,35.686275%,35.686275%);fill-opacity:1;" d="M 138.238281 114.347656 L 139.945312 116.054688 Z M 138.238281 114.347656 "/>
<path style=" stroke:none;fill-rule:nonzero;fill:rgb(16.078431%,16.078431%,16.078431%);fill-opacity:1;" d="M 160.425781 114.347656 L 162.132812 116.054688 Z M 160.425781 114.347656 "/>
<path style=" stroke:none;fill-rule:nonzero;fill:rgb(35.686275%,35.686275%,35.686275%);fill-opacity:1;" d="M 197.972656 114.347656 L 199.679688 116.054688 L 197.972656 114.347656 M 61.441406 116.054688 L 63.148438 117.761719 Z M 61.441406 116.054688 "/>
<path style=" stroke:none;fill-rule:nonzero;fill:rgb(63.137255%,63.137255%,63.137255%);fill-opacity:1;" d="M 91.589844 116.621094 L 92.730469 117.191406 Z M 91.589844 116.621094 "/>
<path style=" stroke:none;fill-rule:nonzero;fill:rgb(35.686275%,35.686275%,35.686275%);fill-opacity:1;" d="M 93.867188 116.054688 L 95.574219 117.761719 Z M 93.867188 116.054688 "/>
<path style=" stroke:none;fill-rule:nonzero;fill:rgb(16.078431%,16.078431%,16.078431%);fill-opacity:1;" d="M 95.574219 116.054688 L 95.574219 117.761719 L 102.398438 117.761719 Z M 95.574219 116.054688 "/>
<path style=" stroke:none;fill-rule:nonzero;fill:rgb(35.686275%,35.686275%,35.686275%);fill-opacity:1;" d="M 103.539062 116.621094 L 104.675781 117.191406 Z M 103.539062 116.621094 "/>
<path style=" stroke:none;fill-rule:nonzero;fill:rgb(63.137255%,63.137255%,63.137255%);fill-opacity:1;" d="M 105.8125 116.054688 L 107.519531 117.761719 L 105.8125 116.054688 M 162.132812 116.054688 L 163.839844 117.761719 Z M 162.132812 116.054688 "/>
<path style=" stroke:none;fill-rule:nonzero;fill:rgb(16.078431%,16.078431%,16.078431%);fill-opacity:1;" d="M 199.679688 116.054688 L 201.386719 117.761719 Z M 199.679688 116.054688 "/>
<path style=" stroke:none;fill-rule:nonzero;fill:rgb(63.137255%,63.137255%,63.137255%);fill-opacity:1;" d="M 87.039062 117.761719 L 88.746094 119.464844 Z M 87.039062 117.761719 "/>
<path style=" stroke:none;fill-rule:nonzero;fill:rgb(35.686275%,35.686275%,35.686275%);fill-opacity:1;" d="M 88.746094 117.761719 L 90.453125 119.464844 Z M 88.746094 117.761719 "/>
<path style=" stroke:none;fill-rule:nonzero;fill:rgb(0.392157%,0.392157%,0.392157%);fill-opacity:1;" d="M 90.460938 118.960938 C 62.136719 128.65625 76.824219 173.523438 105.8125 164.433594 C 134.238281 155.519531 120.363281 108.722656 90.460938 118.960938 Z M 90.460938 118.960938 "/>
<path style=" stroke:none;fill-rule:nonzero;fill:rgb(16.078431%,16.078431%,16.078431%);fill-opacity:1;" d="M 107.519531 117.761719 L 109.226562 119.464844 Z M 107.519531 117.761719 "/>
<path style=" stroke:none;fill-rule:nonzero;fill:rgb(63.137255%,63.137255%,63.137255%);fill-opacity:1;" d="M 109.226562 117.761719 L 110.933594 119.464844 L 109.226562 117.761719 M 139.945312 117.761719 L 141.652344 119.464844 Z M 139.945312 117.761719 "/>
<path style=" stroke:none;fill-rule:nonzero;fill:rgb(16.078431%,16.078431%,16.078431%);fill-opacity:1;" d="M 162.132812 117.761719 L 163.839844 119.464844 Z M 162.132812 117.761719 "/>
<path style=" stroke:none;fill-rule:nonzero;fill:rgb(63.137255%,63.137255%,63.137255%);fill-opacity:1;" d="M 199.679688 117.761719 L 201.386719 119.464844 L 199.679688 117.761719 M 59.734375 119.464844 L 61.441406 121.171875 Z M 59.734375 119.464844 "/>
<path style=" stroke:none;fill-rule:nonzero;fill:rgb(35.686275%,35.686275%,35.686275%);fill-opacity:1;" d="M 85.332031 119.464844 L 87.039062 121.171875 Z M 85.332031 119.464844 "/>
<path style=" stroke:none;fill-rule:nonzero;fill:rgb(16.078431%,16.078431%,16.078431%);fill-opacity:1;" d="M 110.933594 119.464844 L 112.640625 121.171875 L 110.933594 119.464844 M 141.652344 119.464844 L 143.359375 121.171875 Z M 141.652344 119.464844 "/>
<path style=" stroke:none;fill-rule:nonzero;fill:rgb(63.137255%,63.137255%,63.137255%);fill-opacity:1;" d="M 163.839844 119.464844 L 165.546875 121.171875 Z M 163.839844 119.464844 "/>
<path style=" stroke:none;fill-rule:nonzero;fill:rgb(16.078431%,16.078431%,16.078431%);fill-opacity:1;" d="M 201.386719 119.464844 L 203.09375 121.171875 L 201.386719 119.464844 M 58.027344 121.171875 L 59.734375 122.878906 Z M 58.027344 121.171875 "/>
<path style=" stroke:none;fill-rule:nonzero;fill:rgb(63.137255%,63.137255%,63.137255%);fill-opacity:1;" d="M 81.921875 121.171875 L 83.625 122.878906 Z M 81.921875 121.171875 "/>
<path style=" stroke:none;fill-rule:nonzero;fill:rgb(16.078431%,16.078431%,16.078431%);fill-opacity:1;" d="M 83.625 121.171875 L 85.332031 122.878906 L 83.625 121.171875 M 112.640625 121.171875 L 116.054688 124.585938 Z M 112.640625 121.171875 "/>
<path style=" stroke:none;fill-rule:nonzero;fill:rgb(63.137255%,63.137255%,63.137255%);fill-opacity:1;" d="M 114.347656 121.171875 L 116.054688 122.878906 L 114.347656 121.171875 M 141.652344 121.171875 L 143.359375 122.878906 L 141.652344 121.171875 M 165.546875 121.171875 L 167.253906 122.878906 L 165.546875 121.171875 M 201.386719 121.171875 L 203.09375 122.878906 L 201.386719 121.171875 M 58.027344 122.878906 L 59.734375 124.585938 L 58.027344 122.878906 M 80.214844 122.878906 L 81.921875 124.585938 Z M 80.214844 122.878906 "/>
<path style=" stroke:none;fill-rule:nonzero;fill:rgb(35.686275%,35.686275%,35.686275%);fill-opacity:1;" d="M 143.359375 122.878906 L 145.066406 124.585938 L 143.359375 122.878906 M 165.546875 122.878906 L 167.253906 124.585938 L 165.546875 122.878906 M 203.09375 122.878906 L 204.800781 124.585938 Z M 203.09375 122.878906 "/>
<path style=" stroke:none;fill-rule:nonzero;fill:rgb(16.078431%,16.078431%,16.078431%);fill-opacity:1;" d="M 56.320312 124.585938 L 58.027344 126.292969 Z M 56.320312 124.585938 "/>
<path style=" stroke:none;fill-rule:nonzero;fill:rgb(63.137255%,63.137255%,63.137255%);fill-opacity:1;" d="M 78.507812 124.585938 L 80.214844 126.292969 Z M 78.507812 124.585938 "/>
<path style=" stroke:none;fill-rule:nonzero;fill:rgb(16.078431%,16.078431%,16.078431%);fill-opacity:1;" d="M 116.054688 124.585938 L 117.761719 126.292969 Z M 116.054688 124.585938 "/>
<path style=" stroke:none;fill-rule:nonzero;fill:rgb(63.137255%,63.137255%,63.137255%);fill-opacity:1;" d="M 143.359375 124.585938 L 145.066406 126.292969 L 143.359375 124.585938 M 167.253906 124.585938 L 168.960938 126.292969 Z M 167.253906 124.585938 "/>
<path style=" stroke:none;fill-rule:nonzero;fill:rgb(16.078431%,16.078431%,16.078431%);fill-opacity:1;" d="M 204.800781 124.585938 L 206.507812 126.292969 Z M 204.800781 124.585938 "/>
<path style=" stroke:none;fill-rule:nonzero;fill:rgb(63.137255%,63.137255%,63.137255%);fill-opacity:1;" d="M 56.320312 126.292969 L 58.027344 128 Z M 56.320312 126.292969 "/>
<path style=" stroke:none;fill-rule:nonzero;fill:rgb(16.078431%,16.078431%,16.078431%);fill-opacity:1;" d="M 78.507812 126.292969 L 80.214844 128 Z M 78.507812 126.292969 "/>
<path style=" stroke:none;fill-rule:nonzero;fill:rgb(35.686275%,35.686275%,35.686275%);fill-opacity:1;" d="M 117.761719 126.292969 L 119.464844 128 L 117.761719 126.292969 M 145.066406 126.292969 L 146.773438 128 Z M 145.066406 126.292969 "/>
<path style=" stroke:none;fill-rule:nonzero;fill:rgb(16.078431%,16.078431%,16.078431%);fill-opacity:1;" d="M 167.253906 126.292969 L 168.960938 128 Z M 167.253906 126.292969 "/>
<path style=" stroke:none;fill-rule:nonzero;fill:rgb(63.137255%,63.137255%,63.137255%);fill-opacity:1;" d="M 204.800781 126.292969 L 206.507812 128 Z M 204.800781 126.292969 "/>
<path style=" stroke:none;fill-rule:nonzero;fill:rgb(35.686275%,35.686275%,35.686275%);fill-opacity:1;" d="M 54.613281 128 L 56.320312 129.707031 L 54.613281 128 M 76.800781 128 L 78.507812 129.707031 Z M 76.800781 128 "/>
<path style=" stroke:none;fill-rule:nonzero;fill:rgb(63.137255%,63.137255%,63.137255%);fill-opacity:1;" d="M 119.464844 128 L 121.171875 129.707031 L 119.464844 128 M 168.960938 128 L 170.667969 129.707031 Z M 168.960938 128 "/>
<path style=" stroke:none;fill-rule:nonzero;fill:rgb(16.078431%,16.078431%,16.078431%);fill-opacity:1;" d="M 206.507812 128 L 208.214844 129.707031 Z M 206.507812 128 "/>
<path style=" stroke:none;fill-rule:nonzero;fill:rgb(63.137255%,63.137255%,63.137255%);fill-opacity:1;" d="M 54.613281 129.707031 L 56.320312 131.414062 L 54.613281 129.707031 M 75.09375 129.707031 L 76.800781 131.414062 Z M 75.09375 129.707031 "/>
<path style=" stroke:none;fill-rule:nonzero;fill:rgb(35.686275%,35.686275%,35.686275%);fill-opacity:1;" d="M 119.464844 129.707031 L 121.171875 131.414062 Z M 119.464844 129.707031 "/>
<path style=" stroke:none;fill-rule:nonzero;fill:rgb(63.137255%,63.137255%,63.137255%);fill-opacity:1;" d="M 146.773438 129.707031 L 148.480469 131.414062 Z M 146.773438 129.707031 "/>
<path style=" stroke:none;fill-rule:nonzero;fill:rgb(16.078431%,16.078431%,16.078431%);fill-opacity:1;" d="M 168.960938 129.707031 L 170.667969 131.414062 Z M 168.960938 129.707031 "/>
<path style=" stroke:none;fill-rule:nonzero;fill:rgb(63.137255%,63.137255%,63.137255%);fill-opacity:1;" d="M 206.507812 129.707031 L 208.214844 131.414062 Z M 206.507812 129.707031 "/>
<path style=" stroke:none;fill-rule:nonzero;fill:rgb(35.686275%,35.686275%,35.686275%);fill-opacity:1;" d="M 52.90625 131.414062 L 54.613281 133.121094 L 52.90625 131.414062 M 75.09375 131.414062 L 76.800781 133.121094 Z M 75.09375 131.414062 "/>
<path style=" stroke:none;fill-rule:nonzero;fill:rgb(63.137255%,63.137255%,63.137255%);fill-opacity:1;" d="M 121.742188 132.550781 L 122.3125 133.6875 Z M 121.742188 132.550781 "/>
<path style=" stroke:none;fill-rule:nonzero;fill:rgb(16.078431%,16.078431%,16.078431%);fill-opacity:1;" d="M 148.480469 131.414062 L 150.1875 133.121094 Z M 148.480469 131.414062 "/>
<path style=" stroke:none;fill-rule:nonzero;fill:rgb(63.137255%,63.137255%,63.137255%);fill-opacity:1;" d="M 170.667969 131.414062 L 172.375 133.121094 Z M 170.667969 131.414062 "/>
<path style=" stroke:none;fill-rule:nonzero;fill:rgb(35.686275%,35.686275%,35.686275%);fill-opacity:1;" d="M 208.214844 131.414062 L 209.921875 133.121094 Z M 208.214844 131.414062 "/>
<path style=" stroke:none;fill-rule:nonzero;fill:rgb(16.078431%,16.078431%,16.078431%);fill-opacity:1;" d="M 51.199219 133.121094 L 52.90625 134.828125 Z M 51.199219 133.121094 "/>
<path style=" stroke:none;fill-rule:nonzero;fill:rgb(63.137255%,63.137255%,63.137255%);fill-opacity:1;" d="M 148.480469 133.121094 L 150.1875 134.828125 L 148.480469 133.121094 M 51.199219 134.828125 L 52.90625 136.535156 L 51.199219 134.828125 M 73.386719 134.828125 L 75.09375 136.535156 Z M 73.386719 134.828125 "/>
<path style=" stroke:none;fill-rule:nonzero;fill:rgb(35.686275%,35.686275%,35.686275%);fill-opacity:1;" d="M 121.742188 135.964844 L 122.3125 137.101562 Z M 121.742188 135.964844 "/>
<path style=" stroke:none;fill-rule:nonzero;fill:rgb(16.078431%,16.078431%,16.078431%);fill-opacity:1;" d="M 150.1875 134.828125 L 151.894531 136.535156 Z M 150.1875 134.828125 "/>
<path style=" stroke:none;fill-rule:nonzero;fill:rgb(35.686275%,35.686275%,35.686275%);fill-opacity:1;" d="M 172.375 134.828125 L 174.078125 136.535156 Z M 172.375 134.828125 "/>
<path style=" stroke:none;fill-rule:nonzero;fill:rgb(63.137255%,63.137255%,63.137255%);fill-opacity:1;" d="M 209.921875 134.828125 L 211.625 136.535156 Z M 209.921875 134.828125 "/>
<path style=" stroke:none;fill-rule:nonzero;fill:rgb(16.078431%,16.078431%,16.078431%);fill-opacity:1;" d="M 49.492188 136.535156 L 51.199219 138.238281 Z M 49.492188 136.535156 "/>
<path style=" stroke:none;fill-rule:nonzero;fill:rgb(35.686275%,35.686275%,35.686275%);fill-opacity:1;" d="M 73.957031 137.671875 L 74.523438 138.808594 Z M 73.957031 137.671875 "/>
<path style=" stroke:none;fill-rule:nonzero;fill:rgb(63.137255%,63.137255%,63.137255%);fill-opacity:1;" d="M 150.1875 136.535156 L 151.894531 138.238281 L 150.1875 136.535156 M 174.078125 136.535156 L 175.785156 138.238281 Z M 174.078125 136.535156 "/>
<path style=" stroke:none;fill-rule:nonzero;fill:rgb(16.078431%,16.078431%,16.078431%);fill-opacity:1;" d="M 211.625 136.535156 L 213.332031 138.238281 Z M 211.625 136.535156 "/>
<path style=" stroke:none;fill-rule:nonzero;fill:rgb(63.137255%,63.137255%,63.137255%);fill-opacity:1;" d="M 49.492188 138.238281 L 51.199219 139.945312 Z M 49.492188 138.238281 "/>
<path style=" stroke:none;fill-rule:nonzero;fill:rgb(16.078431%,16.078431%,16.078431%);fill-opacity:1;" d="M 121.171875 138.238281 L 121.171875 145.066406 L 122.878906 145.066406 Z M 121.171875 138.238281 "/>
<path style=" stroke:none;fill-rule:nonzero;fill:rgb(35.686275%,35.686275%,35.686275%);fill-opacity:1;" d="M 151.894531 138.238281 L 153.601562 139.945312 Z M 151.894531 138.238281 "/>
<path style=" stroke:none;fill-rule:nonzero;fill:rgb(16.078431%,16.078431%,16.078431%);fill-opacity:1;" d="M 174.078125 138.238281 L 175.785156 139.945312 Z M 174.078125 138.238281 "/>
<path style=" stroke:none;fill-rule:nonzero;fill:rgb(63.137255%,63.137255%,63.137255%);fill-opacity:1;" d="M 211.625 138.238281 L 213.332031 139.945312 Z M 211.625 138.238281 "/>
<path style=" stroke:none;fill-rule:nonzero;fill:rgb(35.686275%,35.686275%,35.686275%);fill-opacity:1;" d="M 47.785156 139.945312 L 49.492188 141.652344 Z M 47.785156 139.945312 "/>
<path style=" stroke:none;fill-rule:nonzero;fill:rgb(16.078431%,16.078431%,16.078431%);fill-opacity:1;" d="M 73.957031 141.085938 L 74.523438 142.222656 Z M 73.957031 141.085938 "/>
<path style=" stroke:none;fill-rule:nonzero;fill:rgb(63.137255%,63.137255%,63.137255%);fill-opacity:1;" d="M 175.785156 139.945312 L 177.492188 141.652344 Z M 175.785156 139.945312 "/>
<path style=" stroke:none;fill-rule:nonzero;fill:rgb(35.686275%,35.686275%,35.686275%);fill-opacity:1;" d="M 213.332031 139.945312 L 215.039062 141.652344 Z M 213.332031 139.945312 "/>
<path style=" stroke:none;fill-rule:nonzero;fill:rgb(63.137255%,63.137255%,63.137255%);fill-opacity:1;" d="M 47.785156 141.652344 L 49.492188 143.359375 Z M 47.785156 141.652344 "/>
<path style=" stroke:none;fill-rule:nonzero;fill:rgb(35.686275%,35.686275%,35.686275%);fill-opacity:1;" d="M 153.601562 141.652344 L 155.308594 143.359375 Z M 153.601562 141.652344 "/>
<path style=" stroke:none;fill-rule:nonzero;fill:rgb(16.078431%,16.078431%,16.078431%);fill-opacity:1;" d="M 175.785156 141.652344 L 177.492188 143.359375 L 175.785156 141.652344 M 215.039062 141.652344 L 216.746094 143.359375 Z M 215.039062 141.652344 "/>
<path style=" stroke:none;fill-rule:nonzero;fill:rgb(35.686275%,35.686275%,35.686275%);fill-opacity:1;" d="M 46.078125 143.359375 L 47.785156 145.066406 L 46.078125 143.359375 M 73.957031 144.496094 L 74.523438 145.636719 Z M 73.957031 144.496094 "/>
<path style=" stroke:none;fill-rule:nonzero;fill:rgb(16.078431%,16.078431%,16.078431%);fill-opacity:1;" d="M 155.308594 143.359375 L 157.011719 145.066406 Z M 155.308594 143.359375 "/>
<path style=" stroke:none;fill-rule:nonzero;fill:rgb(35.686275%,35.686275%,35.686275%);fill-opacity:1;" d="M 177.492188 143.359375 L 179.199219 145.066406 Z M 177.492188 143.359375 "/>
<path style=" stroke:none;fill-rule:nonzero;fill:rgb(63.137255%,63.137255%,63.137255%);fill-opacity:1;" d="M 215.039062 143.359375 L 216.746094 145.066406 Z M 215.039062 143.359375 "/>
<path style=" stroke:none;fill-rule:nonzero;fill:rgb(16.078431%,16.078431%,16.078431%);fill-opacity:1;" d="M 44.375 145.066406 L 46.078125 146.773438 Z M 44.375 145.066406 "/>
<path style=" stroke:none;fill-rule:nonzero;fill:rgb(35.686275%,35.686275%,35.686275%);fill-opacity:1;" d="M 121.171875 145.066406 L 122.878906 146.773438 Z M 121.171875 145.066406 "/>
<path style=" stroke:none;fill-rule:nonzero;fill:rgb(63.137255%,63.137255%,63.137255%);fill-opacity:1;" d="M 155.308594 145.066406 L 157.011719 146.773438 Z M 155.308594 145.066406 "/>
<path style=" stroke:none;fill-rule:nonzero;fill:rgb(35.686275%,35.686275%,35.686275%);fill-opacity:1;" d="M 216.746094 145.066406 L 218.453125 146.773438 L 216.746094 145.066406 M 44.375 146.773438 L 46.078125 148.480469 Z M 44.375 146.773438 "/>
<path style=" stroke:none;fill-rule:nonzero;fill:rgb(63.137255%,63.137255%,63.137255%);fill-opacity:1;" d="M 73.386719 146.773438 L 75.09375 148.480469 L 73.386719 146.773438 M 121.742188 147.910156 L 122.3125 149.050781 Z M 121.742188 147.910156 "/>
<path style=" stroke:none;fill-rule:nonzero;fill:rgb(16.078431%,16.078431%,16.078431%);fill-opacity:1;" d="M 157.011719 146.773438 L 158.71875 148.480469 Z M 157.011719 146.773438 "/>
<path style=" stroke:none;fill-rule:nonzero;fill:rgb(35.686275%,35.686275%,35.686275%);fill-opacity:1;" d="M 179.199219 146.773438 L 180.90625 148.480469 Z M 179.199219 146.773438 "/>
<path style=" stroke:none;fill-rule:nonzero;fill:rgb(63.137255%,63.137255%,63.137255%);fill-opacity:1;" d="M 216.746094 146.773438 L 218.453125 148.480469 Z M 216.746094 146.773438 "/>
<path style=" stroke:none;fill-rule:nonzero;fill:rgb(16.078431%,16.078431%,16.078431%);fill-opacity:1;" d="M 42.667969 148.480469 L 44.375 150.1875 Z M 42.667969 148.480469 "/>
<path style=" stroke:none;fill-rule:nonzero;fill:rgb(63.137255%,63.137255%,63.137255%);fill-opacity:1;" d="M 157.011719 148.480469 L 158.71875 150.1875 L 157.011719 148.480469 M 180.90625 148.480469 L 182.613281 150.1875 Z M 180.90625 148.480469 "/>
<path style=" stroke:none;fill-rule:nonzero;fill:rgb(35.686275%,35.686275%,35.686275%);fill-opacity:1;" d="M 218.453125 148.480469 L 220.160156 150.1875 Z M 218.453125 148.480469 "/>
<path style=" stroke:none;fill-rule:nonzero;fill:rgb(63.137255%,63.137255%,63.137255%);fill-opacity:1;" d="M 42.667969 150.1875 L 44.375 151.894531 Z M 42.667969 150.1875 "/>
<path style=" stroke:none;fill-rule:nonzero;fill:rgb(35.686275%,35.686275%,35.686275%);fill-opacity:1;" d="M 75.09375 150.1875 L 76.800781 151.894531 Z M 75.09375 150.1875 "/>
<path style=" stroke:none;fill-rule:nonzero;fill:rgb(16.078431%,16.078431%,16.078431%);fill-opacity:1;" d="M 119.464844 150.1875 L 121.171875 151.894531 Z M 119.464844 150.1875 "/>
<path style=" stroke:none;fill-rule:nonzero;fill:rgb(35.686275%,35.686275%,35.686275%);fill-opacity:1;" d="M 158.71875 150.1875 L 160.425781 151.894531 L 158.71875 150.1875 M 180.90625 150.1875 L 182.613281 151.894531 Z M 180.90625 150.1875 "/>
<path style=" stroke:none;fill-rule:nonzero;fill:rgb(16.078431%,16.078431%,16.078431%);fill-opacity:1;" d="M 220.160156 150.1875 L 221.867188 151.894531 Z M 220.160156 150.1875 "/>
<path style=" stroke:none;fill-rule:nonzero;fill:rgb(35.686275%,35.686275%,35.686275%);fill-opacity:1;" d="M 40.960938 151.894531 L 42.667969 153.601562 Z M 40.960938 151.894531 "/>
<path style=" stroke:none;fill-rule:nonzero;fill:rgb(63.137255%,63.137255%,63.137255%);fill-opacity:1;" d="M 75.09375 151.894531 L 76.800781 153.601562 L 75.09375 151.894531 M 119.464844 151.894531 L 121.171875 153.601562 L 119.464844 151.894531 M 158.71875 151.894531 L 160.425781 153.601562 L 158.71875 151.894531 M 182.613281 151.894531 L 184.320312 153.601562 L 182.613281 151.894531 M 220.160156 151.894531 L 221.867188 153.601562 L 220.160156 151.894531 M 40.960938 153.601562 L 42.667969 155.308594 Z M 40.960938 153.601562 "/>
<path style=" stroke:none;fill-rule:nonzero;fill:rgb(35.686275%,35.686275%,35.686275%);fill-opacity:1;" d="M 76.800781 153.601562 L 78.507812 155.308594 L 76.800781 153.601562 M 117.761719 153.601562 L 119.464844 155.308594 L 117.761719 153.601562 M 160.425781 153.601562 L 162.132812 155.308594 Z M 160.425781 153.601562 "/>
<path style=" stroke:none;fill-rule:nonzero;fill:rgb(16.078431%,16.078431%,16.078431%);fill-opacity:1;" d="M 182.613281 153.601562 L 184.320312 155.308594 Z M 182.613281 153.601562 "/>
<path style=" stroke:none;fill-rule:nonzero;fill:rgb(35.686275%,35.686275%,35.686275%);fill-opacity:1;" d="M 221.867188 153.601562 L 223.574219 155.308594 L 221.867188 153.601562 M 39.253906 155.308594 L 40.960938 157.011719 Z M 39.253906 155.308594 "/>
<path style=" stroke:none;fill-rule:nonzero;fill:rgb(16.078431%,16.078431%,16.078431%);fill-opacity:1;" d="M 78.507812 155.308594 L 80.214844 157.011719 Z M 78.507812 155.308594 "/>
<path style=" stroke:none;fill-rule:nonzero;fill:rgb(63.137255%,63.137255%,63.137255%);fill-opacity:1;" d="M 117.761719 155.308594 L 119.464844 157.011719 Z M 117.761719 155.308594 "/>
<path style=" stroke:none;fill-rule:nonzero;fill:rgb(16.078431%,16.078431%,16.078431%);fill-opacity:1;" d="M 162.132812 155.308594 L 163.839844 157.011719 Z M 162.132812 155.308594 "/>
<path style=" stroke:none;fill-rule:nonzero;fill:rgb(63.137255%,63.137255%,63.137255%);fill-opacity:1;" d="M 184.320312 155.308594 L 186.027344 157.011719 L 184.320312 155.308594 M 221.867188 155.308594 L 223.574219 157.011719 L 221.867188 155.308594 M 39.253906 157.011719 L 40.960938 158.71875 L 39.253906 157.011719 M 78.507812 157.011719 L 80.214844 158.71875 L 78.507812 157.011719 M 116.054688 157.011719 L 117.761719 158.71875 L 116.054688 157.011719 M 162.132812 157.011719 L 163.839844 158.71875 Z M 162.132812 157.011719 "/>
<path style=" stroke:none;fill-rule:nonzero;fill:rgb(35.686275%,35.686275%,35.686275%);fill-opacity:1;" d="M 223.574219 157.011719 L 225.28125 158.71875 L 223.574219 157.011719 M 37.546875 158.71875 L 39.253906 160.425781 Z M 37.546875 158.71875 "/>
<path style=" stroke:none;fill-rule:nonzero;fill:rgb(63.137255%,63.137255%,63.137255%);fill-opacity:1;" d="M 80.214844 158.71875 L 81.921875 160.425781 L 80.214844 158.71875 M 114.347656 158.71875 L 116.054688 160.425781 Z M 114.347656 158.71875 "/>
<path style=" stroke:none;fill-rule:nonzero;fill:rgb(16.078431%,16.078431%,16.078431%);fill-opacity:1;" d="M 163.839844 158.71875 L 165.546875 160.425781 Z M 163.839844 158.71875 "/>
<path style=" stroke:none;fill-rule:nonzero;fill:rgb(35.686275%,35.686275%,35.686275%);fill-opacity:1;" d="M 186.027344 158.71875 L 187.734375 160.425781 Z M 186.027344 158.71875 "/>
<path style=" stroke:none;fill-rule:nonzero;fill:rgb(16.078431%,16.078431%,16.078431%);fill-opacity:1;" d="M 225.28125 158.71875 L 226.988281 160.425781 L 225.28125 158.71875 M 35.839844 160.425781 L 37.546875 162.132812 Z M 35.839844 160.425781 "/>
<path style=" stroke:none;fill-rule:nonzero;fill:rgb(63.137255%,63.137255%,63.137255%);fill-opacity:1;" d="M 81.921875 160.425781 L 83.625 162.132812 Z M 81.921875 160.425781 "/>
<path style=" stroke:none;fill-rule:nonzero;fill:rgb(16.078431%,16.078431%,16.078431%);fill-opacity:1;" d="M 83.625 160.425781 L 85.332031 162.132812 Z M 83.625 160.425781 "/>
<path style=" stroke:none;fill-rule:nonzero;fill:rgb(63.137255%,63.137255%,63.137255%);fill-opacity:1;" d="M 112.640625 160.425781 L 114.347656 162.132812 L 112.640625 160.425781 M 163.839844 160.425781 L 165.546875 162.132812 L 163.839844 160.425781 M 187.734375 160.425781 L 189.441406 162.132812 L 187.734375 160.425781 M 225.28125 160.425781 L 226.988281 162.132812 L 225.28125 160.425781 M 35.839844 162.132812 L 37.546875 163.839844 Z M 35.839844 162.132812 "/>
<path style=" stroke:none;fill-rule:nonzero;fill:rgb(35.686275%,35.686275%,35.686275%);fill-opacity:1;" d="M 85.332031 162.132812 L 87.039062 163.839844 Z M 85.332031 162.132812 "/>
<path style=" stroke:none;fill-rule:nonzero;fill:rgb(16.078431%,16.078431%,16.078431%);fill-opacity:1;" d="M 109.226562 162.132812 L 110.933594 163.839844 Z M 109.226562 162.132812 "/>
<path style=" stroke:none;fill-rule:nonzero;fill:rgb(63.137255%,63.137255%,63.137255%);fill-opacity:1;" d="M 110.933594 162.132812 L 112.640625 163.839844 Z M 110.933594 162.132812 "/>
<path style=" stroke:none;fill-rule:nonzero;fill:rgb(35.686275%,35.686275%,35.686275%);fill-opacity:1;" d="M 165.546875 162.132812 L 167.253906 163.839844 Z M 165.546875 162.132812 "/>
<path style=" stroke:none;fill-rule:nonzero;fill:rgb(16.078431%,16.078431%,16.078431%);fill-opacity:1;" d="M 187.734375 162.132812 L 189.441406 163.839844 L 187.734375 162.132812 M 226.988281 162.132812 L 228.691406 163.839844 L 226.988281 162.132812 M 34.132812 163.839844 L 35.839844 165.546875 Z M 34.132812 163.839844 "/>
<path style=" stroke:none;fill-rule:nonzero;fill:rgb(63.137255%,63.137255%,63.137255%);fill-opacity:1;" d="M 87.039062 163.839844 L 88.746094 165.546875 Z M 87.039062 163.839844 "/>
<path style=" stroke:none;fill-rule:nonzero;fill:rgb(35.686275%,35.686275%,35.686275%);fill-opacity:1;" d="M 88.746094 163.839844 L 90.453125 165.546875 Z M 88.746094 163.839844 "/>
<path style=" stroke:none;fill-rule:nonzero;fill:rgb(16.078431%,16.078431%,16.078431%);fill-opacity:1;" d="M 90.453125 163.839844 L 92.160156 165.546875 L 90.453125 163.839844 M 105.8125 163.839844 L 107.519531 165.546875 Z M 105.8125 163.839844 "/>
<path style=" stroke:none;fill-rule:nonzero;fill:rgb(63.137255%,63.137255%,63.137255%);fill-opacity:1;" d="M 107.519531 163.839844 L 109.226562 165.546875 L 107.519531 163.839844 M 165.546875 163.839844 L 167.253906 165.546875 L 165.546875 163.839844 M 189.441406 163.839844 L 191.148438 165.546875 L 189.441406 163.839844 M 226.988281 163.839844 L 228.691406 165.546875 L 226.988281 163.839844 M 34.132812 165.546875 L 35.839844 167.253906 L 34.132812 165.546875 M 92.160156 165.546875 L 92.160156 167.253906 L 97.28125 167.253906 Z M 92.160156 165.546875 "/>
<path style=" stroke:none;fill-rule:nonzero;fill:rgb(35.686275%,35.686275%,35.686275%);fill-opacity:1;" d="M 98.417969 166.117188 L 99.554688 166.683594 Z M 98.417969 166.117188 "/>
<path style=" stroke:none;fill-rule:nonzero;fill:rgb(63.137255%,63.137255%,63.137255%);fill-opacity:1;" d="M 101.832031 166.117188 L 102.96875 166.683594 Z M 101.832031 166.117188 "/>
<path style=" stroke:none;fill-rule:nonzero;fill:rgb(35.686275%,35.686275%,35.686275%);fill-opacity:1;" d="M 167.253906 165.546875 L 168.960938 167.253906 Z M 167.253906 165.546875 "/>
<path style=" stroke:none;fill-rule:nonzero;fill:rgb(16.078431%,16.078431%,16.078431%);fill-opacity:1;" d="M 189.441406 165.546875 L 191.148438 167.253906 Z M 189.441406 165.546875 "/>
<path style=" stroke:none;fill-rule:nonzero;fill:rgb(35.686275%,35.686275%,35.686275%);fill-opacity:1;" d="M 228.691406 165.546875 L 230.398438 167.253906 Z M 228.691406 165.546875 "/>
<path style=" stroke:none;fill-rule:nonzero;fill:rgb(16.078431%,16.078431%,16.078431%);fill-opacity:1;" d="M 32.425781 167.253906 L 34.132812 168.960938 L 32.425781 167.253906 M 168.960938 167.253906 L 170.667969 168.960938 Z M 168.960938 167.253906 "/>
<path style=" stroke:none;fill-rule:nonzero;fill:rgb(63.137255%,63.137255%,63.137255%);fill-opacity:1;" d="M 191.148438 167.253906 L 192.851562 168.960938 Z M 191.148438 167.253906 "/>
<path style=" stroke:none;fill-rule:nonzero;fill:rgb(16.078431%,16.078431%,16.078431%);fill-opacity:1;" d="M 230.398438 167.253906 L 232.105469 168.960938 Z M 230.398438 167.253906 "/>
<path style=" stroke:none;fill-rule:nonzero;fill:rgb(63.137255%,63.137255%,63.137255%);fill-opacity:1;" d="M 32.425781 168.960938 L 34.132812 170.667969 L 32.425781 168.960938 M 168.960938 168.960938 L 170.667969 170.667969 L 168.960938 168.960938 M 230.398438 168.960938 L 232.105469 170.667969 Z M 230.398438 168.960938 "/>
<path style=" stroke:none;fill-rule:nonzero;fill:rgb(35.686275%,35.686275%,35.686275%);fill-opacity:1;" d="M 30.71875 170.667969 L 32.425781 172.375 Z M 30.71875 170.667969 "/>
<path style=" stroke:none;fill-rule:nonzero;fill:rgb(16.078431%,16.078431%,16.078431%);fill-opacity:1;" d="M 170.667969 170.667969 L 172.375 172.375 Z M 170.667969 170.667969 "/>
<path style=" stroke:none;fill-rule:nonzero;fill:rgb(35.686275%,35.686275%,35.686275%);fill-opacity:1;" d="M 192.851562 170.667969 L 194.558594 172.375 L 192.851562 170.667969 M 232.105469 170.667969 L 233.8125 172.375 Z M 232.105469 170.667969 "/>
<path style=" stroke:none;fill-rule:nonzero;fill:rgb(63.137255%,63.137255%,63.137255%);fill-opacity:1;" d="M 170.667969 172.375 L 172.375 174.078125 L 170.667969 172.375 M 194.558594 172.375 L 196.265625 174.078125 L 194.558594 172.375 M 232.105469 172.375 L 233.8125 174.078125 L 232.105469 172.375 M 29.011719 174.078125 L 30.71875 175.785156 Z M 29.011719 174.078125 "/>
<path style=" stroke:none;fill-rule:nonzero;fill:rgb(35.686275%,35.686275%,35.686275%);fill-opacity:1;" d="M 172.375 174.078125 L 174.078125 175.785156 L 172.375 174.078125 M 194.558594 174.078125 L 196.265625 175.785156 L 194.558594 174.078125 M 233.8125 174.078125 L 235.519531 175.785156 Z M 233.8125 174.078125 "/>
<path style=" stroke:none;fill-rule:nonzero;fill:rgb(16.078431%,16.078431%,16.078431%);fill-opacity:1;" d="M 27.308594 175.785156 L 29.011719 177.492188 Z M 27.308594 175.785156 "/>
<path style=" stroke:none;fill-rule:nonzero;fill:rgb(63.137255%,63.137255%,63.137255%);fill-opacity:1;" d="M 172.375 175.785156 L 174.078125 177.492188 L 172.375 175.785156 M 196.265625 175.785156 L 197.972656 177.492188 Z M 196.265625 175.785156 "/>
<path style=" stroke:none;fill-rule:nonzero;fill:rgb(16.078431%,16.078431%,16.078431%);fill-opacity:1;" d="M 235.519531 175.785156 L 237.226562 177.492188 Z M 235.519531 175.785156 "/>
<path style=" stroke:none;fill-rule:nonzero;fill:rgb(63.137255%,63.137255%,63.137255%);fill-opacity:1;" d="M 27.308594 177.492188 L 29.011719 179.199219 Z M 27.308594 177.492188 "/>
<path style=" stroke:none;fill-rule:nonzero;fill:rgb(35.686275%,35.686275%,35.686275%);fill-opacity:1;" d="M 174.078125 177.492188 L 175.785156 179.199219 Z M 174.078125 177.492188 "/>
<path style=" stroke:none;fill-rule:nonzero;fill:rgb(16.078431%,16.078431%,16.078431%);fill-opacity:1;" d="M 196.265625 177.492188 L 197.972656 179.199219 Z M 196.265625 177.492188 "/>
<path style=" stroke:none;fill-rule:nonzero;fill:rgb(63.137255%,63.137255%,63.137255%);fill-opacity:1;" d="M 235.519531 177.492188 L 237.226562 179.199219 Z M 235.519531 177.492188 "/>
<path style=" stroke:none;fill-rule:nonzero;fill:rgb(16.078431%,16.078431%,16.078431%);fill-opacity:1;" d="M 25.601562 179.199219 L 27.308594 180.90625 Z M 25.601562 179.199219 "/>
<path style=" stroke:none;fill-rule:nonzero;fill:rgb(63.137255%,63.137255%,63.137255%);fill-opacity:1;" d="M 197.972656 179.199219 L 199.679688 180.90625 Z M 197.972656 179.199219 "/>
<path style=" stroke:none;fill-rule:nonzero;fill:rgb(35.686275%,35.686275%,35.686275%);fill-opacity:1;" d="M 237.226562 179.199219 L 238.933594 180.90625 Z M 237.226562 179.199219 "/>
<path style=" stroke:none;fill-rule:nonzero;fill:rgb(63.137255%,63.137255%,63.137255%);fill-opacity:1;" d="M 25.601562 180.90625 L 27.308594 182.613281 Z M 25.601562 180.90625 "/>
<path style=" stroke:none;fill-rule:nonzero;fill:rgb(35.686275%,35.686275%,35.686275%);fill-opacity:1;" d="M 175.785156 180.90625 L 177.492188 182.613281 Z M 175.785156 180.90625 "/>
<path style=" stroke:none;fill-rule:nonzero;fill:rgb(16.078431%,16.078431%,16.078431%);fill-opacity:1;" d="M 197.972656 180.90625 L 199.679688 182.613281 Z M 197.972656 180.90625 "/>
<path style=" stroke:none;fill-rule:nonzero;fill:rgb(63.137255%,63.137255%,63.137255%);fill-opacity:1;" d="M 237.226562 180.90625 L 238.933594 182.613281 Z M 237.226562 180.90625 "/>
<path style=" stroke:none;fill-rule:nonzero;fill:rgb(35.686275%,35.686275%,35.686275%);fill-opacity:1;" d="M 23.894531 182.613281 L 25.601562 184.320312 Z M 23.894531 182.613281 "/>
<path style=" stroke:none;fill-rule:nonzero;fill:rgb(16.078431%,16.078431%,16.078431%);fill-opacity:1;" d="M 177.492188 182.613281 L 179.199219 184.320312 Z M 177.492188 182.613281 "/>
<path style=" stroke:none;fill-rule:nonzero;fill:rgb(35.686275%,35.686275%,35.686275%);fill-opacity:1;" d="M 199.679688 182.613281 L 201.386719 184.320312 L 199.679688 182.613281 M 238.933594 182.613281 L 240.640625 184.320312 Z M 238.933594 182.613281 "/>
<path style=" stroke:none;fill-rule:nonzero;fill:rgb(63.137255%,63.137255%,63.137255%);fill-opacity:1;" d="M 23.894531 184.320312 L 25.601562 186.027344 L 23.894531 184.320312 M 177.492188 184.320312 L 179.199219 186.027344 L 177.492188 184.320312 M 201.386719 184.320312 L 203.09375 186.027344 Z M 201.386719 184.320312 "/>
<path style=" stroke:none;fill-rule:nonzero;fill:rgb(16.078431%,16.078431%,16.078431%);fill-opacity:1;" d="M 240.640625 184.320312 L 242.347656 186.027344 L 240.640625 184.320312 M 23.894531 186.027344 L 23.894531 187.734375 L 179.199219 187.734375 L 131.414062 186.027344 L 23.894531 186.027344 M 201.386719 186.027344 L 203.09375 187.734375 Z M 201.386719 186.027344 "/>
<path style=" stroke:none;fill-rule:nonzero;fill:rgb(35.686275%,35.686275%,35.686275%);fill-opacity:1;" d="M 203.09375 186.027344 L 203.09375 187.734375 L 218.453125 187.734375 Z M 203.09375 186.027344 "/>
<path style=" stroke:none;fill-rule:nonzero;fill:rgb(16.078431%,16.078431%,16.078431%);fill-opacity:1;" d="M 218.453125 186.027344 L 218.453125 187.734375 L 240.640625 187.734375 Z M 218.453125 186.027344 "/>
</g>
</svg>
