<?xml version="1.0" encoding="UTF-8"?><svg id="Layer_1" xmlns="http://www.w3.org/2000/svg" xmlns:xlink="http://www.w3.org/1999/xlink" viewBox="0 0 240.9 221.8"><defs><style>.cls-1{fill:url(#Sky);}.cls-2{fill:url(#Plum);}.cls-3{fill:lime;}.cls-4{fill:#662d91;stroke:lime;stroke-miterlimit:10;stroke-width:2px;}.cls-5{fill:url(#Peach);}.cls-6{fill:url(#Summer);}</style><radialGradient id="Summer" cx="150.4" cy="130.6" fx="150.4" fy="130.6" r="79.9" gradientTransform="translate(240.9) rotate(-180) scale(1 -1)" gradientUnits="userSpaceOnUse"><stop offset="0" stop-color="#fff"/><stop offset="0" stop-color="#ffecd8"/><stop offset=".2" stop-color="#ffd4a7"/><stop offset=".3" stop-color="#ffc07d"/><stop offset=".5" stop-color="#ffb05a"/><stop offset=".6" stop-color="#ffa340"/><stop offset=".7" stop-color="#ff9a2d"/><stop offset=".9" stop-color="#ff9421"/><stop offset="1" stop-color="#ff931e"/></radialGradient><linearGradient id="Plum" x1="115.8" y1="109" x2="237.4" y2="109" gradientTransform="translate(240.9) rotate(-180) scale(1 -1)" gradientUnits="userSpaceOnUse"><stop offset="0" stop-color="#7e78a5"/><stop offset="0" stop-color="#89598d"/><stop offset=".2" stop-color="#973973"/><stop offset=".3" stop-color="#862370"/><stop offset=".4" stop-color="#821e70"/><stop offset=".6" stop-color="#a53962"/><stop offset=".7" stop-color="#a63a61"/><stop offset=".8" stop-color="#994e76"/><stop offset="1" stop-color="#7c82ac"/></linearGradient><linearGradient id="Sky" x1="169.8" y1="90.1" x2="238.2" y2="90.1" gradientUnits="userSpaceOnUse"><stop offset="0" stop-color="#cce0f4"/><stop offset="0" stop-color="#c2dcf2"/><stop offset=".2" stop-color="#a9d2ee"/><stop offset=".3" stop-color="#7fc2e7"/><stop offset=".5" stop-color="#46abdd"/><stop offset=".6" stop-color="#1e9cd7"/><stop offset=".9" stop-color="#0075be"/><stop offset="1" stop-color="#005b97"/></linearGradient><linearGradient id="Peach" x1="93.7" y1="28.2" x2="114.7" y2="28.2" gradientTransform="translate(240.9) rotate(-180) scale(1 -1)" gradientUnits="userSpaceOnUse"><stop offset="0" stop-color="#b76258"/><stop offset="0" stop-color="#c5564d"/><stop offset=".1" stop-color="#d24d44"/><stop offset=".1" stop-color="#d9574d"/><stop offset=".2" stop-color="#e76a5d"/><stop offset=".2" stop-color="#f07567"/><stop offset=".2" stop-color="#f3796b"/><stop offset=".4" stop-color="#ee8565"/><stop offset=".6" stop-color="#f4806d"/><stop offset=".9" stop-color="#f0976a"/><stop offset="1" stop-color="#f7af7f"/><stop offset="1" stop-color="#fcbf8d"/></linearGradient></defs><path d="m45.9,8.8c-1.3-4.2.2-5.8,3.5-6.5,19.6-3.9,39-4.4,55,9.6,7.4,6.4,13,14.8,18.7,21.4,3.2-6.4,6.6-14.1,10.9-21.3,5.4-9.3,8-9.4,16.4-2.4,5.2,4.4,5,5.7.5,10.7-5.9,6.5-11.2,13.4-16.4,19.7,13.5,1.1,25.9,2.2,38.9,3.3.5-4.6,4.1-3.8,8.2-2.2,5.8,2.1,11.7,4.2,17.6,6,7.1,2.2,14.5,3.6,21.4,6.3,14,5.4,22.6,18.8,19.5,30.2-4.8,18-10.1,36-14.9,54-11.1,41.7-40.7,65.4-79.8,79.3-10.8,3.8-22.3,7.4-34,2.9-14.9-5.6-30.3-10.2-44.3-17.4-25.1-12.8-43.3-32-50.2-60.1-.3-1.3-1.2-2.7-2.2-3.7C-11.2,111.5-1.7,71,33.4,58.7c4.9-1.7,10.1-2.6,14.6-4.8,7.5-3.6,14.6-7.9,22.3-12.2-13.7-6.8-20.1-19-24.4-32.8Zm65.3,162.7c1.2-.8,2.3-1.6,3.5-2.3,9.4-5.8,20.2-10.3,28.1-17.7,30.8-28.9,23.1-81.7-14.6-101.2-17.7-9.2-36.9-8.8-56.2-4.4,4.5,2.6,8.8,5.2,13.5,8,.3-.5,1-1.7,1.9-3.3.8,1.9,1.5,3.4,2.1,4.8,5.2-.5,10.2-1,15.1-1.5,0,.5.2,1.1.2,1.6-3.6.7-7.2,1.5-11.1,2.3.6,1.1,1.2,2.1,1.9,3.2-8.8,1.6-20.4-5.6-26,9.3,8.1,3.4,16,6.9,24,10.1,4.6,1.8,9.3,3.3,14,4.7,12.7,3.8,18.5,10.2,21.2,23.5,1.7-1,3.2-1.9,6.2-3.6-3.4,5.7-5.9,10-8.8,14.8-3.5-1.1-7.8-2.4-12.1-3.7,1.4-10-10.1-16.7-25.8-13.9,2.7,1.6,4.6,2.6,6.2,3.9,7.2,5.6,14.4,11.3,21.6,16.8,1.6,1.2,3.5,2.1,5.5,3.2-.4,2.5-.8,5.9-1.5,10.7-5.1,3.7-10.8,1.4-16.9-2.8-6.1-4.2-12.7-7.8-19.1-11.6-.3.4-.6.9-.9,1.3,8.4,6.1,16.7,12.1,25.8,18.7v5c-3.4,2.5-6.8,5.1-8.9,6.7-6.5-2.8-12.4-5.7-18.5-7.8-6-2.1-9.4-9.6-17.5-8.9,4.2,11.9,8.2,16.6,19.9,23.4,1.1-1,2.3-2.2,4-3.8-.3,4.6-.5,8.4-.8,12.4-3.7,1.7-7.5,3.4-11.9,5.4v-3.4c-8.1-.5-12.5-6.8-18.2-11.1-.5-.4-.7-1.1-1.1-1.5-6-7.3-11.1-15.1-21.2-18.4-5.6-1.9-10.1-6.9-16-11.1,0,10.4,3,19.3,7.2,27.8,10.4,21.3,28.3,35.2,49.2,45.2,12.3,5.9,25.6,9.9,38.4,14.8,5.2,2,9.1,1,13-3.4,14.7-16.3,19.7-35.3,17.4-57.8-10.5,8-20.3,14.7-33.2,15.5Zm-45.8-38.3c9,4.9,17.6,9.6,26.2,14.2,1.7.9,3.7,1.9,5.5,1.8,2.7-.3,5.3-1.6,8-2.5-1.1-2.1-1.7-4.7-3.4-6.1-4.7-4-10-7.4-14.7-11.4-4.1-3.4-7.8-7.3-11.7-11,.5-.7,1.1-1.5,1.6-2.2,8.2,4.6,16.4,9.1,24.6,13.7,3,1.7,5.7,4,8.9,5.2,1.9.7,4.8.3,6.4-.9.8-.6.6-4.4-.5-5.6-5.7-6-11.4-12-17.8-17.1-4.2-3.4-9.6-5.4-14.5-8.7,3.6-.5,3.7-6.5,8.9-4.3,3.7,1.6,7.9,2.3,11.9,2.6,6.6.5,10,4.2,12.6,9.8,1.1,2.4,3.6,4.2,5.9,6.8,5.3-11.8-.3-24.2-11.6-28.4-10.5-3.9-21.2-7.1-31.6-11-6-2.3-11.9-5-14.6-11.7,6.5-1.7,8.3-12,17.6-7.4-2.7-7.7-7.3-10.7-13.9-8.6-15.7,5-31.4,10.4-46.9,16-7.3,2.6-12,8.5-14.7,15.4-7.1,18.6-4.3,36.1,6,52.7.7-.2,1.4-.3,2.1-.5-.6-2.1-1.1-4.2-1.9-6.2-.7-1.8-1.9-3.3-2.8-5,.6-.5,1.1-1,1.7-1.4,4.4,3.2,8.7,6.4,13.2,9.5,6.2,4.2,11.1,10.8,19.8,10.6,1,0,2,2,2.9,3.2,3.7,4.7,7.2,9.6,11.1,14.1,5.7,6.5,13.2,9.4,21.7,9.7,1.1,0,2.2-.7,3.4-1.1-.5-1.3-.6-2.9-1.5-3.7-2.9-2.5-6-4.8-9.2-6.9-7.3-4.8-10.2-12.3-13-19.9,2.2-1.7,3.8-2.9,4.5-3.5Zm114.1-21.2c-4.3-2.1-7.6-3.8-11.5-5.7,0-3.5,0-7.7,0-11.9,1.9-.4,4-.3,5.4-1.3,7.5-5,14.6-10.5,22.2-15.4,4.4-2.9,4.7-6.7,4.1-11.1-.6-4.3-3.7-3.9-6.9-4.7-3.5-.9-6.4-4-9.8-5.8-3-1.6-6.5-2.4-9.4-4.1-1.7-1-2.5-3.4-4.1-4.7-5.2-4.1-31-3.8-37.4.3,39.1,22.1,42.7,76.2,15.5,105.5,6,9,15.2,12.8,26.6,13.8-6.3,4.3-11.7,3.1-25.3-5,.6,20.8-4.9,39.2-19.4,54.9,38.8-5.4,84.3-39.5,91.6-80.3-9.8,6.5-19.2,4.3-28.3-.3-2.4-1.2-4.3-3.7-6.6-5.7-.1.2-.5,1.1-1.1,2.3-5.9-6.9-3.7-13.9-.8-21.7,2.7,5.9,6.1,5.6,10.7,2.3,7-5,12.2-10.8,13.7-20.2-10.7,5.1-20.6,9.8-30.7,14.6.4,1.1.8,2.2,1.7,4.3Zm2.3-59.9c6.9,3.9,14.2,7,21.1,10.3-.1,2.5-.3,4.9-.4,7.7,1.8-.4,3-.6,4.3-.8.4.6.8,1.2,1.2,1.9-6.9,4.9-13.8,9.6-20.5,14.6-6.6,4.9-15,8.3-17.5,19.3,4.1-.5,7.4-.2,10-1.4,9-4,17.8-8.6,26.6-13,2.4-1.2,4.8-2.5,8.7-4.6-3.2,7.6-5.7,13.6-8.1,19.5-2,4.9-13.6,12.1-18.8,12.4-1.6,0-3.6,2.1-4.3,3.7-.4.9,1.4,3.7,2.5,4,2.8.6,6,.8,8.8.1,10.6-2.3,19.1-7.5,23.9-17.6,1-2.2,2.9-4,5.1-7-1.9,13-12.5,21.7-33.7,28.7,3.9,6.1,9.5,6.7,22.2-1.3,6.7-4.2,11.2-11.8,17.4-17.8-3.3,5.5-5.6,11.9-10,16.2-4.4,4.3-10.8,6.5-16.4,9.6,8.7,3.2,21.7-3.1,23.8-11.6,3.4-13.4,6.6-26.8,9.9-40.2,2-8.1.2-15.3-6-21.1-6-5.6-12.7-9.6-21.3-10.9-7.9-1.2-15.5-4.6-23.2-7-3.2-1-6.3-2.1-9.5-3.2-.7.8-1.4,1.5-2,2.3,2.1,2.5,3.8,5.7,6.5,7.2ZM63.4,32c6.7,6.5,14.1,9.7,24.3,8.7,10.9-1.1,22.1.6,32.8,1C110.6,8.9,79.7-2.6,49.5,6.7c2.4,10,6.8,18.4,14,25.2Zm76.1-22.2c-7.2,10.9-12.8,22.2-13.4,36.9,7.5-10.4,14.1-19.8,21-29.4-2.3-2.3-4.8-4.8-7.6-7.5Z"/><path class="cls-6" d="m144.4,156c-10.5,8-20.3,14.7-33.2,15.5,1.2-.8,2.3-1.6,3.5-2.3,9.4-5.8,20.2-10.3,28.1-17.7,30.8-28.9,23.1-81.7-14.6-101.2-17.7-9.2-36.9-8.8-56.2-4.4,4.5,2.6,8.8,5.2,13.5,8,.3-.5,1-1.7,1.9-3.3.8,1.9,1.5,3.4,2.1,4.8,5.2-.5,10.2-1,15.1-1.5,0,.5.2,1.1.2,1.6-3.6.7-7.2,1.5-11.1,2.3.6,1.1,1.2,2.1,1.9,3.2-8.8,1.6-20.4-5.6-26,9.3,8.1,3.4,16,6.9,24,10.1,4.6,1.8,9.3,3.3,14,4.7,12.7,3.8,18.5,10.2,21.2,23.5,1.7-1,3.2-1.9,6.2-3.6-3.4,5.7-5.9,10-8.8,14.8-3.5-1.1-7.8-2.4-12.1-3.7,1.4-10-10.1-16.7-25.8-13.9,2.7,1.6,4.6,2.6,6.2,3.9,7.2,5.6,14.4,11.3,21.6,16.8,1.6,1.2,3.5,2.1,5.5,3.2-.4,2.5-.8,5.9-1.5,10.7-5.1,3.7-10.8,1.4-16.9-2.8-6.1-4.2-12.7-7.8-19.1-11.6-.3.4-.6.9-.9,1.3,8.4,6.1,16.7,12.1,25.8,18.7v5c-3.4,2.5-6.8,5.1-8.9,6.7-6.5-2.8-12.4-5.7-18.5-7.8-6-2.1-9.4-9.6-17.5-8.9,4.2,11.9,8.2,16.6,19.9,23.4,1.1-1,2.3-2.2,4-3.8-.3,4.6-.5,8.4-.8,12.4-3.7,1.7-7.5,3.4-11.9,5.4v-3.4c-8.1-.5-12.5-6.8-18.2-11.1-.5-.4-.7-1.1-1.1-1.5-6-7.3-11.1-15.1-21.2-18.4-5.6-1.9-10.1-6.9-16-11.1,0,10.4,3,19.3,7.2,27.8,10.4,21.3,28.3,35.2,49.2,45.2,12.3,5.9,25.6,9.9,38.4,14.8,5.2,2,9.1,1,13-3.4,14.7-16.3,19.7-35.3,17.4-57.8Z"/><path class="cls-2" d="m60.9,136.8c2.2-1.7,3.8-2.9,4.5-3.5,9,4.9,17.6,9.6,26.2,14.2,1.7.9,3.7,1.9,5.5,1.8,2.7-.3,5.3-1.6,8-2.5-1.1-2.1-1.7-4.7-3.4-6.1-4.7-4-10-7.4-14.7-11.4-4.1-3.4-7.8-7.3-11.7-11,.5-.7,1.1-1.5,1.6-2.2,8.2,4.6,16.4,9.1,24.6,13.7,3,1.7,5.7,4,8.9,5.2,1.9.7,4.8.3,6.4-.9.8-.6.6-4.4-.5-5.6-5.7-6-11.4-12-17.8-17.1-4.2-3.4-9.6-5.4-14.5-8.7,3.6-.5,3.7-6.5,8.9-4.3,3.7,1.6,7.9,2.3,11.9,2.6,6.6.5,10,4.2,12.6,9.8,1.1,2.4,3.6,4.2,5.9,6.8,5.3-11.8-.3-24.2-11.6-28.4-10.5-3.9-21.2-7.1-31.6-11-6-2.3-11.9-5-14.6-11.7,6.5-1.7,8.3-12,17.6-7.4-2.7-7.7-7.3-10.7-13.9-8.6-15.7,5-31.4,10.4-46.9,16-7.3,2.6-12,8.5-14.7,15.4-7.1,18.6-4.3,36.1,6,52.7.7-.2,1.4-.3,2.1-.5-.6-2.1-1.1-4.2-1.9-6.2-.7-1.8-1.9-3.3-2.8-5,.6-.5,1.1-1,1.7-1.4,4.4,3.2,8.7,6.4,13.2,9.5,6.2,4.2,11.1,10.8,19.8,10.6,1,0,2,2,2.9,3.2,3.7,4.7,7.2,9.6,11.1,14.1,5.7,6.5,13.2,9.4,21.7,9.7,1.1,0,2.2-.7,3.4-1.1-.5-1.3-.6-2.9-1.5-3.7-2.9-2.5-6-4.8-9.2-6.9-7.3-4.8-10.2-12.3-13-19.9Z"/><path class="cls-4" d="m177.9,107.7c.4,1.1.8,2.2,1.7,4.3-4.3-2.1-7.6-3.8-11.5-5.7,0-3.5,0-7.7,0-11.9,1.9-.4,4-.3,5.4-1.3,7.5-5,14.6-10.5,22.2-15.4,4.4-2.9,4.7-6.7,4.1-11.1-.6-4.3-3.7-3.9-6.9-4.7-3.5-.9-6.4-4-9.8-5.8-3-1.6-6.5-2.4-9.4-4.1-1.7-1-2.5-3.4-4.1-4.7-5.2-4.1-31-3.8-37.4.3,39.1,22.1,42.7,76.2,15.5,105.5,6,9,15.2,12.8,26.6,13.8-6.3,4.3-11.7,3.1-25.3-5,.6,20.8-4.9,39.2-19.4,54.9,38.8-5.4,84.3-39.5,91.6-80.3-9.8,6.5-19.2,4.3-28.3-.3-2.4-1.2-4.3-3.7-6.6-5.7-.1.2-.5,1.1-1.1,2.3-5.9-6.9-3.7-13.9-.8-21.7,2.7,5.9,6.1,5.6,10.7,2.3,7-5,12.2-10.8,13.7-20.2-10.7,5.1-20.6,9.8-30.7,14.6Z"/><path class="cls-1" d="m175.3,45c2.1,2.5,3.8,5.7,6.5,7.2,6.9,3.9,14.2,7,21.1,10.3-.1,2.5-.3,4.9-.4,7.7,1.8-.4,3-.6,4.3-.8.4.6.8,1.2,1.2,1.9-6.9,4.9-13.8,9.6-20.5,14.6-6.6,4.9-15,8.3-17.5,19.3,4.1-.5,7.4-.2,10-1.4,9-4,17.8-8.6,26.6-13,2.4-1.2,4.8-2.5,8.7-4.6-3.2,7.6-5.7,13.6-8.1,19.5-2,4.9-13.6,12.1-18.8,12.4-1.6,0-3.6,2.1-4.3,3.7-.4.9,1.4,3.7,2.5,4,2.8.6,6,.8,8.8.1,10.6-2.3,19.1-7.5,23.9-17.6,1-2.2,2.9-4,5.1-7-1.9,13-12.5,21.7-33.7,28.7,3.9,6.1,9.5,6.7,22.2-1.3,6.7-4.2,11.2-11.8,17.4-17.8-3.3,5.5-5.6,11.9-10,16.2-4.4,4.3-10.8,6.5-16.4,9.6,8.7,3.2,21.7-3.1,23.8-11.6,3.4-13.4,6.6-26.8,9.9-40.2,2-8.1.2-15.3-6-21.1-6-5.6-12.7-9.6-21.3-10.9-7.9-1.2-15.5-4.6-23.2-7-3.2-1-6.3-2.1-9.5-3.2-.7.8-1.4,1.5-2,2.3Z"/><path class="cls-3" d="m120,42.6c-10.7-.7-21.8-2.7-32.7-1.8-10.2.8-17.5-2.7-24.1-9.3-7-7-11.2-15.5-13.3-25.6,30.4-8.6,61,3.7,70.1,36.7Zm-47.9-30.2c12.2,7,24.7,14.1,36.5,20.8-8.3-12.5-19.8-21.5-36.5-20.8Z"/><path class="cls-5" d="m147.1,17.3c-2.3-2.3-4.8-4.8-7.6-7.5-7.2,10.9-12.8,22.2-13.4,36.9,7.5-10.4,14.1-19.8,21-29.4Z"/><path d="m108.4,33.4c-8-12.7-19.3-21.9-36.1-21.6,12.1,7.2,24.4,14.6,36.1,21.6Z"/><polygon points="125.6 82.2 126.8 76.3 128.1 70.4 129.4 64.5 129.6 63.5 128.9 64 125.9 65.9 125.4 67.9 124.2 73.8 122.9 79.8 120.2 77.3 121.5 71.4 122.1 68.3 119.8 69.8 115.2 72.8 112.8 70.6 117.4 67.7 121.9 64.7 123.1 64 124 59.6 126.5 61.8 126.8 61.6 130.5 59.2 131 58.9 133.4 61 133.3 61.1 132.1 66.9 130.8 72.8 129.5 78.7 128.2 84.6 125.6 82.2"/></svg>