<svg width="256" height="256" viewBox="0 0 256 256" fill="none" xmlns="http://www.w3.org/2000/svg">
<path d="M0 0H256V256H0V0Z" fill="#0E4C80"/>
<path d="M21 128C21 223.211 117.371 271.526 172.642 204.737C208.073 162.105 208.073 93.8947 172.642 51.2632C117.371 -15.5263 21 32.7895 21 128ZM215.159 199.053H186.815C175.477 214.684 161.305 227.474 144.298 236C174.06 236 196.735 223.211 215.159 199.053ZM233.583 153.579H203.821C200.987 167.789 196.735 180.579 191.066 190.526H219.411C226.497 180.579 230.748 167.789 233.583 153.579ZM186.815 56.9474H215.159C196.735 32.7895 174.06 20 144.298 20C161.305 28.5263 175.477 41.3158 186.815 56.9474ZM203.821 102.421H233.583C230.748 88.2105 226.497 75.4211 219.411 64.0526H191.066C196.735 75.4211 200.987 88.2105 203.821 102.421ZM205.238 109.526V146.474H235V109.526H205.238Z" fill="#F0CC7D"/>
<path d="M140.609 143.077C142.046 145.899 142.968 148.821 143.376 151.843C143.783 154.865 143.74 157.88 143.247 160.886C142.754 163.892 141.839 166.817 140.503 169.661C139.167 172.505 137.492 175.152 135.479 177.604C133.466 180.055 131.146 182.243 128.519 184.167C125.891 186.092 123.029 187.628 119.932 188.776C117.892 189.532 115.703 190.057 113.366 190.35C111.028 190.643 108.601 190.488 106.085 189.883C103.973 190.973 101.848 192.236 99.7101 193.671C97.5723 195.107 95.4184 196.744 93.2484 198.583C93.0098 191.151 92.2866 183.864 91.0789 176.721C89.8712 169.579 88.0256 162.582 85.542 155.73C84.8275 156.443 84.1212 157.214 83.4231 158.046C82.725 158.878 82.0597 159.761 81.4272 160.694C81.2886 160.019 81.1262 159.373 80.9398 158.757C80.7535 158.141 80.5464 157.526 80.3187 156.912C79.2072 153.913 77.7209 151.242 75.8598 148.898C73.9987 146.555 71.7784 144.505 69.1986 142.75C69.9988 142.118 70.98 141.447 72.1425 140.736C73.3049 140.026 74.5564 139.31 75.8968 138.59C77.2372 137.869 78.6236 137.16 80.056 136.461C81.4884 135.762 82.8869 135.104 84.2515 134.487C85.6161 133.869 86.9037 133.308 88.1145 132.803C89.3252 132.298 90.3731 131.882 91.2579 131.554C94.8957 130.206 98.4361 129.236 101.879 128.645C105.322 128.053 108.598 127.803 111.708 127.895C114.817 127.987 117.719 128.407 120.415 129.155C123.11 129.903 125.539 130.931 127.702 132.241C129.865 133.55 131.735 135.128 133.315 136.975C134.894 138.821 136.112 140.9 136.968 143.211C137.105 143.579 137.244 143.954 137.385 144.335C137.526 144.716 137.64 145.1 137.728 145.487C138.269 145.063 138.776 144.658 139.249 144.273C139.721 143.888 140.175 143.49 140.609 143.077ZM124.88 152.346C123.839 150.97 122.659 149.842 121.34 148.961C120.021 148.08 118.634 147.392 117.179 146.897C115.723 146.403 114.236 146.087 112.718 145.951C111.2 145.815 109.706 145.781 108.236 145.851C106.766 145.92 105.353 146.088 103.998 146.352C102.642 146.617 101.393 146.906 100.251 147.217C102.335 153.294 104.48 159.306 106.685 165.254C108.707 170.711 110.794 176.116 112.946 181.469C115.091 179.863 116.982 178.044 118.619 176.011C120.255 173.979 121.483 171.784 122.3 169.426C123.117 167.068 123.458 164.573 123.32 161.94C123.183 159.307 122.434 156.607 121.073 153.841C121.638 153.631 122.241 153.408 122.88 153.171C123.519 152.934 124.186 152.659 124.88 152.346Z" fill="#0E4C80"/>
<path d="M178.221 130.192C177.168 128.509 175.846 127.007 174.308 125.742C175.569 115.703 176.055 105.585 175.762 95.4766C175.754 93.2072 175.73 90.8136 175.748 88.2466C175.723 86.6443 175.341 85.0681 174.629 83.6309C173.916 82.1937 172.891 80.9311 171.627 79.9335C169.888 78.5246 167.872 77.4888 165.707 76.8917C163.541 76.2946 161.273 76.1492 159.045 76.4646L150.255 77.8392C148.238 78.1435 146.324 78.9266 144.676 80.1214C143.029 81.3162 141.697 82.8874 140.794 84.7007L133.432 33.4033C132.888 28.9255 130.571 24.8491 126.989 22.0696C123.407 19.29 118.854 18.0347 114.33 18.5793C109.807 19.1292 105.684 21.4342 102.868 24.9877C100.052 28.5412 98.7733 33.0527 99.3119 37.5312L104.46 78.6157L91.4713 43.7692C90.1897 39.4569 87.2394 35.8243 83.2619 33.6614C79.2844 31.4985 74.6014 30.9802 70.2314 32.2192C68.057 32.8341 66.0266 33.8708 64.2585 35.2689C62.4905 36.667 61.0199 38.3985 59.9325 40.3629C58.8199 42.3518 58.1184 44.5394 57.869 46.7978C57.6196 49.0562 57.8272 51.34 58.4798 53.5157L73.5924 96.6733L56.1464 72.1817C54.2641 68.666 51.0723 66.0171 47.2465 64.7956C43.4207 63.574 39.2613 63.8758 35.6487 65.637C32.0361 67.3982 29.2539 70.4805 27.891 74.2316C26.5281 77.9827 26.6914 82.1081 28.3465 85.7346L56.6808 133.059C56.9093 139.968 59.4065 184.306 85.0614 208.211C96.4319 218.79 110.693 223.793 127.481 223.035C131.177 222.867 134.645 222.579 137.99 222.16C194.443 215.087 197.071 173.68 197.178 170.808C197.597 164.659 191.213 150.995 178.221 130.192ZM145.269 91.2665C145.913 84.8791 149.891 84.2546 151.159 84.0327L159.927 82.6607L160.241 82.6214C162.862 82.3404 165.485 83.1005 167.535 84.7348C168.089 85.1514 168.545 85.6826 168.871 86.2916C169.196 86.9006 169.384 87.5727 169.421 88.2615C169.427 90.8466 169.429 93.2428 169.44 95.5328C169.679 104.511 169.315 113.497 168.351 122.431C164.653 121.175 160.647 121.103 156.9 122.226L156.121 122.45C153.708 123.18 151.467 124.386 149.534 125.994C147.601 127.601 146.014 129.578 144.869 131.806C143.81 129.732 143.385 127.397 143.645 125.085C144.349 118.492 144.688 111.866 144.662 105.238C144.714 100.565 144.776 96.1425 145.269 91.2665ZM190.891 170.628C190.878 172.396 189.594 214.013 127.27 216.776C112.254 217.438 99.5316 213.02 89.5214 203.637C64.0753 180.042 62.9793 132.48 62.9928 132.079L62.889 131.251L33.9808 82.9054C33.031 80.7408 32.9719 78.2926 33.8162 76.0811C34.6604 73.8696 36.3414 72.069 38.502 71.062C40.6625 70.055 43.1324 69.9209 45.3867 70.6882C47.6411 71.4555 49.5022 73.0638 50.5747 75.1713L81.3198 118.346L81.3535 118.615C81.5583 118.859 81.7996 119.07 82.069 119.24C82.3467 119.402 82.648 119.52 82.9624 119.591L83.0878 119.575C83.397 119.639 83.7141 119.655 84.0285 119.626L85.1994 119.479L85.6231 119.132L85.9577 119.09L86.2061 118.869L86.4128 118.654L86.5959 118.421L86.7556 118.17L86.8917 117.9L87.0044 117.613L87.0935 117.308L87.0598 117.038C87.0522 116.934 87.0392 116.831 87.0209 116.728L86.9483 116.148C86.9405 116.037 86.9267 115.927 86.9068 115.817L86.8861 115.652L64.6124 51.6122C64.2114 50.2491 64.0864 48.8204 64.2448 47.408C64.4031 45.9956 64.8416 44.6274 65.535 43.3819C66.2115 42.1466 67.1274 41.0552 68.2301 40.1703C69.3329 39.2853 70.6007 38.6243 71.9608 38.2252C74.7337 37.4418 77.7042 37.7754 80.2241 39.1532C82.7441 40.531 84.609 42.8411 85.412 45.5795L107.974 106.156L108 106.363C108.049 106.479 108.106 106.591 108.169 106.699L108.347 106.929L108.548 107.178L108.762 107.361L109.002 107.583L109.279 107.759L109.6 107.95L109.788 107.926L110.165 108.047L112.214 107.79L112.514 107.648L112.768 107.469L113.001 107.292L113.226 107.054L113.411 106.841L113.731 106.339L113.924 106.189L114.037 105.901L113.967 105.342C113.959 105.224 113.944 105.107 113.923 104.99L105.375 36.7715C105.203 35.3682 105.313 33.9443 105.7 32.5822C106.087 31.2201 106.743 29.947 107.631 28.8368C108.494 27.7067 109.583 26.7646 110.829 26.0694C112.076 25.3742 113.454 24.9409 114.876 24.7966C116.297 24.6268 117.738 24.7364 119.115 25.1193C120.492 25.5022 121.778 26.1507 122.9 27.0278C124.023 27.9048 124.958 28.993 125.654 30.23C126.349 31.467 126.791 32.8284 126.953 34.2361L137.406 107.157C137.494 107.788 137.775 108.376 138.212 108.843C138.194 113.449 138.069 118.384 137.444 124.411C137.069 127.126 137.374 129.889 138.333 132.457C139.292 135.024 140.874 137.316 142.941 139.132C142.773 141.948 143.256 144.764 144.355 147.364L155.882 174.447C156.026 174.849 156.251 175.218 156.545 175.53C156.838 175.842 157.193 176.092 157.587 176.263C157.982 176.434 158.408 176.523 158.839 176.525C159.27 176.527 159.698 176.442 160.095 176.274C160.492 176.107 160.85 175.861 161.148 175.551C161.445 175.241 161.676 174.875 161.826 174.474C161.975 174.073 162.04 173.647 162.017 173.22C161.994 172.794 161.883 172.377 161.691 171.995L150.135 145.021C149.455 143.437 149.12 141.728 149.152 140.005C149.184 138.283 149.581 136.585 150.319 135.023C151.057 133.461 152.119 132.069 153.435 130.939C154.751 129.809 156.292 128.965 157.957 128.463L158.736 128.239C161.342 127.446 164.136 127.525 166.688 128.463C169.239 129.401 171.405 131.147 172.851 133.429C190.077 161.081 190.992 168.724 190.862 170.401L190.891 170.628Z" fill="#0E4C80"/>
</svg>
