<svg id="Circle_Logo" data-name="Circle Logo" xmlns="http://www.w3.org/2000/svg" width="256" height="256" viewBox="0 0 256 256">
  <defs>
    <style>
      .cls-1, .cls-2, .cls-3 {
        fill: none;
        stroke-width: 25px;
        fill-rule: evenodd;
      }

      .cls-1 {
        stroke: #fff;
      }

      .cls-2 {
        stroke: #1ba5de;
      }

      .cls-3 {
        stroke: #4d007a;
      }
    </style>
  </defs>
  <path id="Right" class="cls-1" d="M123.851,46.794a60.307,60.307,0,1,1-60.3,60.308A60.3,60.3,0,0,1,123.851,46.794Zm0,0a60.307,60.307,0,1,1-60.3,60.308A60.3,60.3,0,0,1,123.851,46.794Z"/>
  <path id="Right-2" data-name="Right" class="cls-2" d="M157.851,88.794a60.307,60.307,0,1,1-60.3,60.308A60.3,60.3,0,0,1,157.851,88.794Zm0,0a60.307,60.307,0,1,1-60.3,60.308A60.3,60.3,0,0,1,157.851,88.794Z"/>
  <path id="Left" class="cls-3" d="M98.155,88.794a60.307,60.307,0,1,1-60.3,60.308A60.3,60.3,0,0,1,98.155,88.794Zm0,0a60.307,60.307,0,1,1-60.3,60.308A60.3,60.3,0,0,1,98.155,88.794Z"/>
</svg>
