<?xml version="1.0" standalone="no"?>
<!DOCTYPE svg PUBLIC "-//W3C//DTD SVG 20010904//EN"
 "http://www.w3.org/TR/2001/REC-SVG-20010904/DTD/svg10.dtd">
<svg version="1.0" xmlns="http://www.w3.org/2000/svg"
 width="267.000000pt" height="267.000000pt" viewBox="0 0 267.000000 267.000000"
 preserveAspectRatio="xMidYMid meet">
<metadata>
Created by potrace 1.10, written by Peter Selinger 2001-2011
</metadata>
<g transform="translate(0.000000,267.000000) scale(0.100000,-0.100000)"
fill="#000000" stroke="none">
<path d="M1220 2659 c-172 -11 -290 -43 -455 -126 -141 -71 -240 -139 -339
-233 -81 -77 -186 -201 -186 -220 0 -6 -11 -27 -24 -48 -116 -185 -182 -401
-193 -634 -12 -272 49 -525 179 -742 23 -39 43 -75 43 -79 0 -5 29 -44 65 -88
194 -238 477 -406 780 -463 111 -21 370 -21 481 0 247 47 489 175 673 358 80
80 207 236 190 236 -3 0 8 24 25 53 174 304 217 692 116 1042 -14 50 -51 142
-82 205 -31 63 -57 118 -57 123 -1 4 -27 43 -60 87 -73 99 -207 228 -307 297
-80 55 -225 133 -247 133 -7 0 -11 4 -8 8 7 11 -180 69 -264 81 -91 14 -207
17 -330 10z m330 -35 c104 -18 191 -45 184 -56 -3 -4 2 -8 12 -8 9 0 60 -20
112 -45 265 -126 488 -340 598 -574 104 -222 144 -388 144 -600 0 -218 -38
-394 -127 -579 -20 -43 -37 -82 -39 -89 -1 -7 -25 -45 -53 -85 -194 -280 -522
-489 -852 -543 -407 -66 -827 76 -1124 379 -71 73 -175 206 -161 206 3 0 -9
24 -26 53 -109 185 -168 412 -168 652 0 226 46 410 157 626 122 240 323 430
585 554 52 25 103 45 112 45 10 0 15 4 12 8 -3 5 18 16 47 25 179 54 387 65
587 31z"/>
<path d="M1105 2595 c-38 -7 -79 -14 -90 -15 -12 -1 -15 -4 -7 -7 7 -3 -25
-18 -72 -34 -183 -61 -353 -165 -487 -298 -77 -77 -199 -233 -199 -255 0 -6
-16 -41 -35 -77 -47 -90 -101 -255 -120 -369 -42 -262 9 -587 126 -797 16 -29
29 -58 29 -64 0 -22 95 -145 179 -232 137 -141 267 -229 447 -300 167 -67 246
-81 449 -81 155 0 193 3 274 23 165 41 337 122 471 221 127 95 295 284 340
385 61 133 75 168 101 246 44 132 62 278 56 444 -8 187 -48 361 -116 492 -11
23 -21 48 -21 56 0 30 -129 207 -214 292 -102 103 -204 178 -318 236 -98 50
-222 99 -251 100 -15 0 -17 2 -7 7 35 14 -116 34 -285 37 -127 3 -200 0 -250
-10z m383 -13 c1 -4 17 -6 36 -4 18 2 37 -1 40 -7 4 -6 16 -11 26 -11 35 0
240 -82 233 -93 -3 -5 -1 -7 5 -3 13 8 105 -38 95 -47 -3 -4 3 -7 15 -7 12 0
22 -5 22 -11 0 -5 5 -7 10 -4 6 3 13 -1 16 -9 3 -9 10 -14 14 -11 5 3 12 -1
17 -9 4 -8 18 -18 30 -23 36 -14 193 -164 254 -244 32 -42 68 -99 80 -125 12
-27 33 -70 46 -96 13 -27 21 -53 17 -60 -4 -6 -3 -8 3 -5 18 11 87 -228 92
-318 1 -11 4 -62 7 -113 12 -189 -42 -464 -116 -589 -11 -19 -20 -40 -20 -48
0 -15 -50 -105 -80 -142 -9 -12 -21 -19 -25 -15 -5 4 -5 2 -1 -5 8 -14 -93
-130 -172 -196 -31 -26 -68 -57 -82 -69 -14 -11 -37 -25 -52 -30 -16 -6 -28
-14 -28 -19 0 -18 -234 -124 -316 -144 -10 -3 -44 -12 -74 -21 -75 -22 -327
-30 -428 -15 -79 13 -86 15 -207 52 -83 26 -215 88 -215 101 0 5 -4 7 -9 4 -4
-3 -16 3 -26 14 -10 11 -23 20 -30 20 -17 0 -116 76 -108 84 3 3 -1 6 -9 6 -9
0 -27 13 -41 29 -14 17 -27 28 -30 25 -3 -3 -22 16 -43 42 -22 26 -54 64 -72
83 -18 20 -35 46 -38 58 -4 13 -10 20 -15 17 -5 -3 -9 0 -9 6 0 6 -7 19 -16
27 -8 9 -13 24 -11 35 3 10 -1 21 -8 26 -29 16 -119 241 -108 269 4 10 2 14
-4 10 -25 -16 -57 240 -50 398 6 129 34 278 50 268 5 -3 6 3 3 15 -8 24 29
125 81 224 21 40 38 79 40 87 1 9 7 17 12 19 6 2 11 10 11 18 0 8 5 14 10 14
6 0 10 7 10 15 0 9 7 18 15 21 8 4 15 10 15 15 0 18 157 189 173 189 5 0 22
14 37 30 15 17 31 30 35 30 3 0 22 12 41 28 18 15 36 26 39 24 3 -1 13 4 21
13 9 8 20 12 26 9 7 -4 8 -2 4 4 -6 11 6 16 27 13 4 0 7 3 7 8 0 7 106 60 134
66 6 1 25 7 41 14 93 37 176 60 255 71 73 10 294 4 298 -8z"/>
<path d="M1633 2060 c-98 -20 -167 -76 -212 -170 l-26 -55 0 -505 c0 -557 -2
-535 64 -619 49 -62 119 -93 221 -99 90 -5 110 1 222 63 28 15 92 149 86 179
-3 15 -1 29 3 32 5 3 9 32 9 64 0 77 -17 90 -116 90 -87 0 -108 -17 -110 -88
-2 -97 -3 -98 -37 -117 -41 -22 -80 -15 -102 18 -14 22 -16 84 -14 402 0 11 0
136 0 278 -1 166 3 265 10 278 19 36 109 51 109 18 0 -6 7 -17 16 -26 10 -11
15 -31 13 -64 -4 -75 14 -89 116 -89 92 0 105 7 110 62 5 54 -15 160 -38 207
-27 54 -98 118 -146 131 -59 15 -133 19 -178 10z m156 -26 c72 -21 134 -80
161 -151 11 -31 18 -58 15 -61 -2 -3 1 -12 7 -20 10 -11 8 -16 -6 -24 -14 -8
-15 -12 -6 -18 7 -4 14 -24 15 -45 2 -44 -17 -55 -100 -55 -72 0 -85 14 -85
91 0 54 -3 64 -29 90 -65 64 -160 19 -162 -78 -1 -26 -1 -96 -2 -155 0 -60 -4
-108 -9 -108 -5 0 -6 -6 -1 -12 4 -7 8 -149 9 -316 0 -287 1 -304 21 -330 28
-38 79 -49 127 -27 26 13 39 26 43 46 3 17 12 29 22 30 13 1 13 2 -2 6 -15 4
-16 7 -6 20 10 12 10 16 -1 23 -10 6 -11 16 -4 42 l10 33 73 3 c91 4 101 -4
101 -73 0 -41 -4 -54 -17 -60 -17 -6 -17 -7 0 -19 16 -12 15 -18 -19 -85 -59
-117 -129 -157 -268 -149 -121 7 -184 46 -237 148 l-24 45 0 394 c0 307 3 395
13 399 17 5 15 22 -4 22 -14 0 -15 13 -11 99 5 98 17 145 31 122 4 -6 12 -11
17 -11 5 0 2 11 -6 24 -15 23 -15 25 2 35 10 6 14 11 10 11 -19 0 38 62 79 86
78 46 155 55 243 28z"/>
<path d="M856 2052 c-2 -1 -32 -4 -67 -6 -74 -5 -95 -11 -104 -34 -6 -17 -7
-1269 0 -1337 6 -64 15 -67 223 -64 100 2 182 6 182 11 0 4 12 11 27 14 15 4
33 13 40 20 7 7 23 21 36 31 40 32 67 80 86 155 17 66 18 114 17 508 -2 428
-2 436 -25 502 -39 111 -122 175 -241 185 -33 3 -58 8 -56 12 4 6 -112 9 -118
3z m174 -32 c133 -21 205 -87 229 -207 7 -39 11 -194 11 -461 0 -222 2 -406 4
-411 9 -14 -30 -157 -52 -193 -24 -38 -76 -78 -134 -103 -49 -20 -360 -22
-376 -2 -6 8 -10 248 -11 690 l-2 677 23 10 c31 12 228 12 308 0z"/>
<path d="M888 1678 c-2 -233 -1 -225 -23 -243 -20 -15 -20 -16 0 -13 19 3 20
-5 27 -181 4 -101 4 -218 0 -260 -4 -42 -6 -97 -4 -123 l3 -48 65 0 c124 0
126 6 124 537 -1 512 2 503 -129 503 l-61 0 -2 -172z m137 135 c9 -9 20 -26
24 -37 4 -12 7 -214 7 -451 -1 -392 -3 -433 -19 -462 -16 -31 -21 -33 -68 -33
-31 0 -48 4 -44 10 3 6 2 10 -4 10 -7 0 -10 65 -8 188 1 103 0 243 -2 312 -2
69 -3 205 -2 303 l1 177 49 0 c33 0 55 -6 66 -17z"/>
<path d="M1055 790 c-3 -5 1 -10 10 -10 9 0 13 5 10 10 -3 6 -8 10 -10 10 -2
0 -7 -4 -10 -10z"/>
<path d="M1133 103 c9 -2 25 -2 35 0 9 3 1 5 -18 5 -19 0 -27 -2 -17 -5z"/>
<path d="M1508 103 c7 -3 16 -2 19 1 4 3 -2 6 -13 5 -11 0 -14 -3 -6 -6z"/>
<path d="M2460 2040 c256 -446 263 -942 20 -1374 -58 -103 -65 -126 -15 -46
146 231 216 500 202 780 -7 133 -26 239 -68 364 -31 92 -114 263 -150 306 -11
14 -6 0 11 -30z"/>
</g>
</svg>
