<svg xmlns="http://www.w3.org/2000/svg" xmlns:xlink="http://www.w3.org/1999/xlink" width="256" zoomAndPan="magnify" viewBox="0 0 192 191.999996" height="256" preserveAspectRatio="xMidYMid meet" version="1.0"><rect x="-19.2" width="230.4" fill="#ffffff" y="-19.2" height="230.399995" fill-opacity="1"/><rect x="-19.2" width="230.4" fill="#ffffff" y="-19.2" height="230.399995" fill-opacity="1"/><path fill="#9823c6" d="M 61.382812 59.375 C 63.59375 57.121094 65.210938 55 66.253906 53.015625 L 92.285156 4.597656 C 93.367188 2.609375 93.585938 1.308594 92.933594 0.6875 C 92.328125 0.03125 91.03125 0.246094 89.039062 1.347656 L 41.707031 27.980469 C 39.71875 29.128906 37.660156 30.785156 35.539062 32.945312 C 33.332031 35.195312 31.710938 37.316406 30.671875 39.304688 L 4.574219 87.589844 C 3.445312 89.574219 3.210938 90.902344 3.855469 91.566406 C 4.460938 92.1875 5.757812 91.941406 7.75 90.839844 L 55.207031 64.339844 C 57.199219 63.191406 59.253906 61.535156 61.375 59.375 Z M 61.382812 59.375 " fill-opacity="1" fill-rule="evenodd"/><path fill="#ffc34e" d="M 171.25 77.511719 C 170.90625 74.953125 169.929688 72.851562 168.328125 71.21875 L 121.652344 23.625 C 120.050781 21.992188 118.320312 21.308594 116.460938 21.570312 C 114.558594 21.839844 113.0625 22.984375 111.980469 25.015625 L 85.878906 73.335938 C 84.800781 75.324219 84.453125 77.621094 84.839844 80.222656 C 85.1875 82.785156 86.140625 84.882812 87.695312 86.515625 L 134.375 134.066406 C 135.933594 135.699219 137.660156 136.363281 139.566406 136.054688 C 141.46875 135.785156 142.960938 134.664062 144.046875 132.675781 L 170.144531 84.390625 C 171.226562 82.355469 171.59375 80.0625 171.25 77.503906 Z M 171.25 77.511719 " fill-opacity="1" fill-rule="evenodd"/><path fill="#ff3e3c" d="M 116.5625 159.253906 C 116.859375 157.308594 116.214844 155.542969 114.613281 153.953125 L 67.96875 106.328125 C 66.367188 104.738281 64.3125 103.769531 61.804688 103.417969 C 59.25 103.019531 57 103.371094 55.050781 104.476562 L 7.660156 131.101562 C 5.714844 132.207031 4.613281 133.726562 4.351562 135.671875 C 4.050781 137.570312 4.699219 139.335938 6.300781 140.96875 L 52.976562 188.589844 C 54.578125 190.222656 56.632812 191.214844 59.140625 191.574219 C 61.652344 191.929688 63.90625 191.550781 65.894531 190.449219 L 113.222656 163.820312 C 115.171875 162.714844 116.269531 161.195312 116.53125 159.253906 Z M 116.5625 159.253906 " fill-opacity="1" fill-rule="evenodd"/><path fill="#26c4ff" d="M 189.898438 56.328125 C 190.160156 54.386719 189.511719 52.597656 187.953125 50.964844 L 141.273438 3.410156 C 139.714844 1.773438 137.683594 0.777344 135.175781 0.425781 C 132.621094 0.0742188 130.371094 0.449219 128.421875 1.550781 L 81.027344 28.113281 C 79.039062 29.21875 77.914062 30.738281 77.652344 32.683594 C 77.394531 34.625 78.066406 36.414062 79.667969 38.046875 L 126.34375 85.667969 C 127.945312 87.300781 130 88.292969 132.507812 88.648438 C 135.019531 89.003906 137.246094 88.628906 139.195312 87.523438 L 186.523438 60.898438 C 188.511719 59.792969 189.640625 58.273438 189.898438 56.328125 Z M 189.898438 56.328125 " fill-opacity="1" fill-rule="evenodd"/><path fill="#fe0fa6" d="M 190.417969 100.234375 C 189.8125 99.578125 188.515625 99.792969 186.523438 100.894531 L 139.132812 127.390625 C 137.144531 128.539062 135.0625 130.195312 132.902344 132.355469 C 130.738281 134.605469 129.113281 136.726562 128.03125 138.710938 L 102.0625 187.132812 C 100.980469 189.117188 100.742188 190.441406 101.347656 191.109375 C 101.996094 191.765625 103.292969 191.527344 105.242188 190.378906 L 152.570312 163.753906 C 154.519531 162.648438 156.59375 160.992188 158.800781 158.789062 C 160.894531 156.582031 162.546875 154.460938 163.671875 152.429688 L 189.769531 104.148438 C 190.851562 102.160156 191.070312 100.855469 190.417969 100.238281 Z M 190.417969 100.234375 " fill-opacity="1" fill-rule="evenodd"/><path fill="#98d843" d="M 108.652344 118.664062 C 109.734375 116.675781 110.101562 114.378906 109.757812 111.777344 C 109.414062 109.214844 108.4375 107.117188 106.835938 105.484375 L 60.15625 57.863281 C 58.558594 56.230469 56.824219 55.566406 54.964844 55.878906 C 53.0625 56.148438 51.570312 57.269531 50.484375 59.257812 L 24.386719 107.605469 C 23.308594 109.636719 22.960938 111.929688 23.347656 114.492188 C 23.695312 117.050781 24.648438 119.152344 26.203125 120.785156 L 72.882812 168.335938 C 74.441406 169.96875 76.167969 170.652344 78.074219 170.390625 C 79.980469 170.125 81.472656 168.976562 82.554688 166.945312 Z M 108.652344 118.664062 " fill-opacity="1" fill-rule="evenodd"/></svg>