<svg xmlns="http://www.w3.org/2000/svg" width="192" viewBox="0 0 192 192" height="192" version="1.0"><defs><clipPath id="a"><path d="M 17.972656 17.972656 L 173.972656 17.972656 L 173.972656 173.972656 L 17.972656 173.972656 Z M 17.972656 17.972656"/></clipPath><clipPath id="b"><path d="M 84 27.101562 L 108 27.101562 L 108 41 L 84 41 Z M 84 27.101562"/></clipPath><clipPath id="c"><path d="M 31.078125 56 L 43 56 L 43 76 L 31.078125 76 Z M 31.078125 56"/></clipPath><clipPath id="d"><path d="M 31.078125 116 L 43 116 L 43 137 L 31.078125 137 Z M 31.078125 116"/></clipPath><clipPath id="e"><path d="M 149 56 L 160.828125 56 L 160.828125 76 L 149 76 Z M 149 56"/></clipPath><clipPath id="f"><path d="M 149 116 L 160.828125 116 L 160.828125 137 L 149 137 Z M 149 116"/></clipPath><clipPath id="g"><path d="M 82 134 L 94 134 L 94 154.601562 L 82 154.601562 Z M 82 134"/></clipPath><clipPath id="h"><path d="M 98 134 L 110 134 L 110 154.601562 L 98 154.601562 Z M 98 134"/></clipPath><clipPath id="i"><path d="M 44 104 L 148 104 L 148 140.734375 L 44 140.734375 Z M 44 104"/></clipPath><clipPath id="j"><path d="M 71 76 L 94 76 L 94 97 L 71 97 Z M 71 76"/></clipPath><clipPath id="k"><path d="M 75.894531 76.882812 L 93.625 89.480469 L 88.847656 96.203125 L 71.113281 83.609375 Z M 75.894531 76.882812"/></clipPath><clipPath id="l"><path d="M 52.589844 -9.523438 L 188.332031 86.894531 L 104.945312 204.292969 L -30.796875 107.875 Z M 52.589844 -9.523438"/></clipPath><clipPath id="m"><path d="M 52.589844 -9.523438 L 188.332031 86.894531 L 104.945312 204.292969 L -30.796875 107.875 Z M 52.589844 -9.523438"/></clipPath><clipPath id="n"><path d="M 71 78 L 94 78 L 94 97 L 71 97 Z M 71 78"/></clipPath><clipPath id="o"><path d="M 75.894531 76.882812 L 93.625 89.480469 L 88.847656 96.203125 L 71.113281 83.609375 Z M 75.894531 76.882812"/></clipPath><clipPath id="p"><path d="M 52.589844 -9.523438 L 188.332031 86.894531 L 104.945312 204.292969 L -30.796875 107.875 Z M 52.589844 -9.523438"/></clipPath><clipPath id="q"><path d="M 52.589844 -9.523438 L 188.332031 86.894531 L 104.945312 204.292969 L -30.796875 107.875 Z M 52.589844 -9.523438"/></clipPath><clipPath id="r"><path d="M 71 77 L 94 77 L 94 97 L 71 97 Z M 71 77"/></clipPath><clipPath id="s"><path d="M 75.894531 76.882812 L 93.625 89.480469 L 88.847656 96.203125 L 71.113281 83.609375 Z M 75.894531 76.882812"/></clipPath><clipPath id="t"><path d="M 52.589844 -9.523438 L 188.332031 86.894531 L 104.945312 204.292969 L -30.796875 107.875 Z M 52.589844 -9.523438"/></clipPath><clipPath id="u"><path d="M 52.589844 -9.523438 L 188.332031 86.894531 L 104.945312 204.292969 L -30.796875 107.875 Z M 52.589844 -9.523438"/></clipPath><clipPath id="v"><path d="M 71 76 L 94 76 L 94 97 L 71 97 Z M 71 76"/></clipPath><clipPath id="w"><path d="M 75.894531 76.882812 L 93.625 89.480469 L 88.847656 96.203125 L 71.113281 83.609375 Z M 75.894531 76.882812"/></clipPath><clipPath id="x"><path d="M 52.589844 -9.523438 L 188.332031 86.894531 L 104.945312 204.292969 L -30.796875 107.875 Z M 52.589844 -9.523438"/></clipPath><clipPath id="y"><path d="M 52.589844 -9.523438 L 188.332031 86.894531 L 104.945312 204.292969 L -30.796875 107.875 Z M 52.589844 -9.523438"/></clipPath><clipPath id="z"><path d="M 99 76 L 122 76 L 122 96 L 99 96 Z M 99 76"/></clipPath><clipPath id="A"><path d="M 99.019531 89.171875 L 116.816406 76.667969 L 121.558594 83.417969 L 103.761719 95.921875 Z M 99.019531 89.171875"/></clipPath><clipPath id="B"><path d="M 9.796875 82.261719 L 146.03125 -13.460938 L 228.816406 104.367188 L 92.578125 200.085938 Z M 9.796875 82.261719"/></clipPath><clipPath id="C"><path d="M 9.796875 82.261719 L 146.03125 -13.460938 L 228.816406 104.367188 L 92.578125 200.085938 Z M 9.796875 82.261719"/></clipPath></defs><path fill="#FFF" d="M-19.2 -19.2H211.20000000000002V211.20000000000002H-19.2z"/><path fill="#FFF" d="M-19.2 -19.2H211.20000000000002V211.20000000000002H-19.2z"/><path d="M-19.2 -19.2H211.20000000000002V211.20000000000002H-19.2z"/><path fill="#F4900C" d="M 95.96875 20.003906 C 54.015625 20.003906 20.003906 54.015625 20.003906 95.96875 C 20.003906 137.925781 54.015625 171.941406 95.96875 171.941406 C 137.925781 171.941406 171.941406 137.925781 171.941406 95.96875 C 171.941406 54.015625 137.925781 20.003906 95.96875 20.003906 Z M 95.96875 162.824219 C 94.875 162.824219 93.78125 162.796875 92.691406 162.742188 C 91.597656 162.6875 90.507812 162.609375 89.417969 162.5 C 88.328125 162.394531 87.242188 162.261719 86.160156 162.101562 C 85.078125 161.9375 84 161.753906 82.925781 161.539062 C 81.851562 161.324219 80.785156 161.085938 79.726562 160.820312 C 78.664062 160.554688 77.609375 160.261719 76.5625 159.945312 C 75.515625 159.628906 74.476562 159.285156 73.445312 158.914062 C 72.414062 158.546875 71.394531 158.152344 70.382812 157.734375 C 69.375 157.316406 68.375 156.871094 67.382812 156.40625 C 66.394531 155.9375 65.417969 155.445312 64.453125 154.929688 C 63.488281 154.414062 62.535156 153.875 61.597656 153.3125 C 60.660156 152.75 59.734375 152.164062 58.824219 151.558594 C 57.914062 150.949219 57.019531 150.320312 56.140625 149.667969 C 55.261719 149.015625 54.402344 148.34375 53.554688 147.648438 C 52.707031 146.953125 51.878906 146.242188 51.070312 145.503906 C 50.257812 144.769531 49.464844 144.015625 48.691406 143.242188 C 47.917969 142.46875 47.164062 141.675781 46.429688 140.867188 C 45.695312 140.054688 44.980469 139.226562 44.285156 138.382812 C 43.59375 137.535156 42.917969 136.675781 42.265625 135.796875 C 41.617188 134.917969 40.984375 134.023438 40.378906 133.113281 C 39.769531 132.203125 39.183594 131.277344 38.621094 130.339844 C 38.058594 129.402344 37.519531 128.449219 37.003906 127.484375 C 36.488281 126.519531 35.996094 125.542969 35.527344 124.554688 C 35.0625 123.566406 34.617188 122.566406 34.199219 121.554688 C 33.78125 120.542969 33.386719 119.523438 33.019531 118.492188 C 32.648438 117.460938 32.304688 116.425781 31.988281 115.378906 C 31.671875 114.332031 31.378906 113.277344 31.113281 112.214844 C 30.847656 111.152344 30.609375 110.085938 30.394531 109.011719 C 30.179688 107.941406 29.992188 106.863281 29.832031 105.78125 C 29.671875 104.699219 29.539062 103.613281 29.433594 102.523438 C 29.324219 101.433594 29.242188 100.34375 29.191406 99.25 C 29.136719 98.15625 29.109375 97.066406 29.109375 95.96875 C 29.109375 94.875 29.136719 93.78125 29.191406 92.691406 C 29.242188 91.597656 29.324219 90.507812 29.429688 89.417969 C 29.539062 88.328125 29.671875 87.242188 29.832031 86.160156 C 29.992188 85.078125 30.179688 84 30.394531 82.929688 C 30.605469 81.855469 30.847656 80.789062 31.113281 79.726562 C 31.378906 78.664062 31.671875 77.609375 31.988281 76.5625 C 32.304688 75.515625 32.648438 74.480469 33.015625 73.449219 C 33.386719 72.417969 33.777344 71.398438 34.199219 70.386719 C 34.617188 69.375 35.058594 68.375 35.527344 67.386719 C 35.996094 66.398438 36.488281 65.421875 37.003906 64.457031 C 37.519531 63.492188 38.058594 62.539062 38.621094 61.601562 C 39.183594 60.664062 39.769531 59.738281 40.375 58.828125 C 40.984375 57.917969 41.613281 57.023438 42.265625 56.148438 C 42.917969 55.269531 43.589844 54.40625 44.285156 53.558594 C 44.976562 52.714844 45.691406 51.886719 46.425781 51.074219 C 47.160156 50.265625 47.914062 49.472656 48.691406 48.699219 C 49.464844 47.925781 50.253906 47.171875 51.066406 46.4375 C 51.875 45.703125 52.703125 44.988281 53.550781 44.292969 C 54.394531 43.597656 55.257812 42.925781 56.136719 42.273438 C 57.015625 41.621094 57.910156 40.992188 58.820312 40.382812 C 59.730469 39.777344 60.652344 39.191406 61.59375 38.628906 C 62.53125 38.066406 63.484375 37.527344 64.449219 37.011719 C 65.414062 36.496094 66.390625 36.003906 67.378906 35.535156 C 68.367188 35.070312 69.367188 34.625 70.378906 34.207031 C 71.390625 33.789062 72.410156 33.394531 73.441406 33.027344 C 74.46875 32.65625 75.507812 32.3125 76.554688 31.996094 C 77.601562 31.679688 78.65625 31.386719 79.71875 31.121094 C 80.78125 30.855469 81.847656 30.617188 82.917969 30.402344 C 83.992188 30.1875 85.070312 30 86.152344 29.839844 C 87.234375 29.679688 88.320312 29.546875 89.410156 29.441406 C 90.5 29.332031 91.589844 29.253906 92.683594 29.199219 C 93.773438 29.144531 94.867188 29.117188 95.960938 29.117188 C 97.054688 29.117188 98.148438 29.144531 99.242188 29.199219 C 100.335938 29.25 101.425781 29.332031 102.515625 29.4375 C 103.605469 29.546875 104.6875 29.679688 105.773438 29.839844 C 106.855469 30 107.929688 30.1875 109.003906 30.402344 C 110.078125 30.617188 111.144531 30.855469 112.207031 31.121094 C 113.265625 31.386719 114.320312 31.679688 115.367188 31.996094 C 116.414062 32.3125 117.453125 32.65625 118.484375 33.023438 C 119.515625 33.394531 120.535156 33.789062 121.546875 34.207031 C 122.554688 34.625 123.554688 35.066406 124.546875 35.535156 C 125.535156 36.003906 126.511719 36.496094 127.476562 37.011719 C 128.441406 37.527344 129.394531 38.066406 130.332031 38.628906 C 131.269531 39.191406 132.195312 39.777344 133.101562 40.382812 C 134.011719 40.992188 134.90625 41.621094 135.785156 42.273438 C 136.664062 42.925781 137.527344 43.597656 138.371094 44.292969 C 139.21875 44.984375 140.046875 45.699219 140.859375 46.433594 C 141.667969 47.167969 142.460938 47.925781 143.234375 48.699219 C 144.007812 49.472656 144.761719 50.261719 145.496094 51.074219 C 146.230469 51.882812 146.945312 52.710938 147.640625 53.558594 C 148.335938 54.40625 149.007812 55.265625 149.660156 56.144531 C 150.308594 57.023438 150.941406 57.917969 151.546875 58.828125 C 152.15625 59.738281 152.742188 60.660156 153.304688 61.601562 C 153.867188 62.539062 154.40625 63.492188 154.921875 64.457031 C 155.4375 65.421875 155.929688 66.398438 156.394531 67.386719 C 156.863281 68.375 157.308594 69.375 157.726562 70.386719 C 158.144531 71.398438 158.539062 72.417969 158.90625 73.449219 C 159.277344 74.476562 159.617188 75.515625 159.9375 76.5625 C 160.253906 77.609375 160.546875 78.664062 160.8125 79.726562 C 161.078125 80.789062 161.316406 81.855469 161.53125 82.925781 C 161.742188 84 161.929688 85.078125 162.089844 86.160156 C 162.25 87.242188 162.386719 88.328125 162.492188 89.417969 C 162.601562 90.507812 162.679688 91.597656 162.734375 92.691406 C 162.789062 93.78125 162.816406 94.875 162.816406 95.96875 C 162.816406 97.0625 162.789062 98.15625 162.734375 99.25 C 162.679688 100.34375 162.601562 101.433594 162.492188 102.523438 C 162.386719 103.613281 162.25 104.699219 162.089844 105.78125 C 161.929688 106.863281 161.742188 107.941406 161.53125 109.011719 C 161.316406 110.085938 161.078125 111.152344 160.8125 112.214844 C 160.546875 113.277344 160.253906 114.328125 159.9375 115.375 C 159.617188 116.421875 159.277344 117.460938 158.90625 118.492188 C 158.539062 119.523438 158.144531 120.542969 157.726562 121.554688 C 157.308594 122.566406 156.863281 123.566406 156.394531 124.554688 C 155.929688 125.542969 155.4375 126.519531 154.921875 127.484375 C 154.40625 128.449219 153.867188 129.402344 153.304688 130.339844 C 152.742188 131.277344 152.15625 132.203125 151.546875 133.113281 C 150.941406 134.019531 150.3125 134.914062 149.660156 135.792969 C 149.007812 136.671875 148.335938 137.535156 147.640625 138.382812 C 146.945312 139.226562 146.230469 140.054688 145.496094 140.867188 C 144.761719 141.675781 144.007812 142.46875 143.234375 143.242188 C 142.460938 144.015625 141.667969 144.769531 140.859375 145.503906 C 140.046875 146.238281 139.21875 146.953125 138.375 147.648438 C 137.527344 148.34375 136.664062 149.015625 135.785156 149.667969 C 134.90625 150.320312 134.011719 150.949219 133.105469 151.554688 C 132.195312 152.164062 131.269531 152.75 130.332031 153.3125 C 129.394531 153.875 128.441406 154.414062 127.476562 154.929688 C 126.511719 155.445312 125.535156 155.9375 124.546875 156.40625 C 123.554688 156.871094 122.554688 157.316406 121.546875 157.734375 C 120.535156 158.152344 119.515625 158.546875 118.484375 158.914062 C 117.453125 159.285156 116.414062 159.625 115.367188 159.945312 C 114.320312 160.261719 113.265625 160.554688 112.207031 160.820312 C 111.144531 161.085938 110.078125 161.324219 109.003906 161.539062 C 107.929688 161.75 106.855469 161.9375 105.773438 162.097656 C 104.6875 162.261719 103.605469 162.394531 102.515625 162.5 C 101.425781 162.609375 100.335938 162.6875 99.242188 162.742188 C 98.148438 162.796875 97.054688 162.824219 95.960938 162.824219 Z M 95.96875 162.824219"/><g clip-path="url(#a)"><path fill="#A0041E" d="M 95.96875 173.96875 C 52.964844 173.96875 17.972656 138.976562 17.972656 95.96875 C 17.972656 52.964844 52.964844 17.972656 95.96875 17.972656 C 138.976562 17.972656 173.96875 52.964844 173.96875 95.96875 C 173.96875 138.976562 138.976562 173.96875 95.96875 173.96875 Z M 95.96875 21.972656 C 55.164062 21.972656 21.972656 55.164062 21.972656 95.96875 C 21.972656 136.773438 55.164062 169.972656 95.96875 169.972656 C 136.773438 169.972656 169.972656 136.773438 169.972656 95.96875 C 169.972656 55.164062 136.773438 21.972656 95.96875 21.972656 Z M 95.96875 21.972656"/></g><path fill="#A0041E" d="M 95.96875 164.820312 C 58 164.820312 27.125 133.9375 27.125 95.96875 C 27.125 58.003906 58.007812 27.125 95.96875 27.125 C 133.933594 27.125 164.820312 58.007812 164.820312 95.96875 C 164.820312 133.933594 133.9375 164.820312 95.96875 164.820312 Z M 95.96875 31.121094 C 60.210938 31.121094 31.121094 60.210938 31.121094 95.96875 C 31.121094 131.730469 60.210938 160.824219 95.96875 160.824219 C 131.730469 160.824219 160.824219 131.730469 160.824219 95.96875 C 160.824219 60.210938 131.730469 31.121094 95.96875 31.121094 Z M 95.96875 31.121094"/><g clip-path="url(#b)"><path fill="#A0041E" d="M 84.4375 33.578125 L 95.953125 40.167969 L 107.46875 33.578125 L 95.953125 26.988281 L 84.4375 33.578125"/></g><path fill="#A0041E" d="M 58.984375 116.242188 L 47.429688 122.855469 L 47.429688 136.035156 L 58.984375 129.417969 L 58.984375 116.242188"/><path fill="#A0041E" d="M 56.636719 112.253906 L 45.121094 105.664062 L 33.601562 112.253906 L 45.121094 118.84375 L 56.636719 112.253906"/><path fill="#A0041E" d="M 109.816406 50.746094 L 109.816406 37.566406 L 98.261719 44.183594 L 98.261719 57.359375 L 109.816406 50.746094"/><path fill="#A0041E" d="M 84.4375 82.171875 L 95.953125 88.761719 L 107.46875 82.171875 L 95.953125 75.582031 L 84.4375 82.171875"/><path fill="#A0041E" d="M 58.984375 69.257812 L 58.984375 56.078125 L 47.429688 62.695312 L 47.429688 75.871094 L 58.984375 69.257812"/><g clip-path="url(#c)"><path fill="#A0041E" d="M 31.257812 69.257812 L 42.808594 75.871094 L 42.808594 62.695312 L 31.257812 56.078125 L 31.257812 69.257812"/></g><path fill="#A0041E" d="M 33.601562 52.089844 L 45.121094 58.679688 L 56.636719 52.089844 L 45.121094 45.5 L 33.601562 52.089844"/><path fill="#A0041E" d="M 109.816406 99.335938 L 109.816406 86.160156 L 98.261719 92.777344 L 98.261719 105.953125 L 109.816406 99.335938"/><g clip-path="url(#d)"><path fill="#A0041E" d="M 42.808594 122.855469 L 31.257812 116.242188 L 31.257812 129.417969 L 42.808594 136.035156 L 42.808594 122.855469"/></g><path fill="#A0041E" d="M 144.476562 122.855469 L 132.921875 116.242188 L 132.921875 129.417969 L 144.476562 136.035156 L 144.476562 122.855469"/><g clip-path="url(#e)"><path fill="#A0041E" d="M 160.648438 69.257812 L 160.648438 56.078125 L 149.097656 62.695312 L 149.097656 75.871094 L 160.648438 69.257812"/></g><path fill="#A0041E" d="M 132.921875 69.257812 L 144.476562 75.871094 L 144.476562 62.695312 L 132.921875 56.078125 L 132.921875 69.257812"/><g clip-path="url(#f)"><path fill="#A0041E" d="M 160.648438 116.242188 L 149.097656 122.855469 L 149.097656 136.035156 L 160.648438 129.417969 L 160.648438 116.242188"/></g><path fill="#A0041E" d="M 158.304688 112.253906 L 146.785156 105.664062 L 135.269531 112.253906 L 146.785156 118.84375 L 158.304688 112.253906"/><path fill="#A0041E" d="M 107.46875 130.765625 L 95.953125 124.175781 L 84.4375 130.765625 L 95.953125 137.355469 L 107.46875 130.765625"/><g clip-path="url(#g)"><path fill="#A0041E" d="M 93.640625 141.367188 L 82.089844 134.753906 L 82.089844 147.929688 L 93.640625 154.546875 L 93.640625 141.367188"/></g><path fill="#A0041E" d="M 82.089844 50.746094 L 93.640625 57.359375 L 93.640625 44.183594 L 82.089844 37.566406 L 82.089844 50.746094"/><path fill="#A0041E" d="M 82.089844 99.335938 L 93.640625 105.953125 L 93.640625 92.777344 L 82.089844 86.160156 L 82.089844 99.335938"/><path fill="#A0041E" d="M 135.269531 52.089844 L 146.785156 58.679688 L 158.304688 52.089844 L 146.785156 45.5 L 135.269531 52.089844"/><g clip-path="url(#h)"><path fill="#A0041E" d="M 109.816406 134.753906 L 98.261719 141.367188 L 98.261719 154.546875 L 109.816406 147.929688 L 109.816406 134.753906"/></g><path fill="#A0041E" d="M 95.953125 63.660156 L 93.640625 62.339844 L 93.640625 71.921875 L 95.953125 70.601562 L 98.261719 71.921875 L 98.261719 62.339844 L 95.953125 63.660156"/><path fill="#A0041E" d="M 63.605469 57.605469 L 63.605469 62.773438 L 77.46875 54.367188 L 77.46875 49.035156 L 63.605469 57.605469"/><path fill="#A0041E" d="M 128.300781 57.605469 L 128.300781 62.773438 L 114.4375 54.367188 L 114.4375 49.035156 L 128.300781 57.605469"/><path fill="#A0041E" d="M 63.605469 134.507812 L 63.605469 129.339844 L 77.46875 137.746094 L 77.46875 143.078125 L 63.605469 134.507812"/><path fill="#A0041E" d="M 128.300781 134.507812 L 128.300781 129.339844 L 114.4375 137.746094 L 114.4375 143.078125 L 128.300781 134.507812"/><path fill="#A0041E" d="M 95.953125 112.253906 L 93.640625 110.933594 L 93.640625 120.515625 L 95.953125 119.195312 L 98.261719 120.515625 L 98.261719 110.933594 L 95.953125 112.253906"/><path fill="#A0041E" d="M 146.785156 82.171875 L 144.476562 80.851562 L 144.476562 102.003906 L 146.785156 100.683594 L 149.097656 102.003906 L 149.097656 80.851562 L 146.785156 82.171875"/><path fill="#A0041E" d="M 45.121094 82.171875 L 47.429688 80.851562 L 47.429688 102.003906 L 45.121094 100.683594 L 42.808594 102.003906 L 42.808594 80.851562 L 45.121094 82.171875"/><path fill="#F4900C" d="M 81.953125 66.003906 C 83.984375 74.15625 82.496094 81.074219 74.351562 83.101562 C 66.199219 85.128906 55.171875 98.402344 47.230469 78.660156 C 42.628906 67.226562 38.605469 43.25 43.175781 42.113281 C 47.746094 40.976562 79.925781 57.855469 81.953125 66.003906 Z M 81.953125 66.003906"/><path fill="#A0041E" d="M 75.796875 67.714844 C 78.761719 72.460938 70.140625 81.796875 65.394531 84.765625 C 60.644531 87.734375 56.441406 83.0625 51.765625 71.136719 C 49.71875 65.917969 46.621094 51.773438 48.359375 50.683594 C 50.09375 49.601562 72.828125 62.964844 75.796875 67.714844 Z M 75.796875 67.714844"/><path fill="#F4900C" d="M 110.136719 66.003906 C 108.105469 74.15625 109.589844 81.074219 117.742188 83.101562 C 125.894531 85.128906 136.917969 98.402344 144.859375 78.660156 C 149.460938 67.226562 153.480469 43.25 148.910156 42.113281 C 144.339844 40.976562 112.167969 57.855469 110.136719 66.003906 Z M 110.136719 66.003906"/><path fill="#A0041E" d="M 116.296875 67.714844 C 113.332031 72.460938 121.949219 81.796875 126.695312 84.765625 C 131.441406 87.734375 135.644531 83.0625 140.324219 71.136719 C 142.367188 65.921875 145.46875 51.773438 143.734375 50.6875 C 141.996094 49.601562 119.261719 62.964844 116.296875 67.714844 Z M 116.296875 67.714844"/><path fill="#F4900C" d="M 96.066406 64.316406 C 75.617188 57.5 60.644531 70.414062 48.359375 94.992188 L 55.175781 94.992188 C 55.175781 94.992188 48.359375 101.804688 44.949219 112.03125 C 51.765625 108.621094 55.175781 108.621094 55.175781 108.621094 C 55.175781 108.621094 51.765625 115.4375 51.765625 118.847656 C 61.988281 112.03125 72.210938 112.03125 79.027344 122.253906 C 85.839844 132.480469 96.066406 122.253906 96.066406 108.621094 Z M 96.066406 64.316406"/><path fill="#F4900C" d="M 96.066406 64.316406 C 116.511719 57.5 131.488281 70.414062 143.769531 94.988281 L 136.957031 94.988281 C 136.957031 94.988281 143.769531 101.800781 147.175781 112.027344 C 140.363281 108.617188 136.957031 108.617188 136.957031 108.617188 C 136.957031 108.617188 140.363281 115.4375 140.363281 118.84375 C 130.140625 112.027344 119.917969 112.027344 113.101562 122.25 C 106.285156 132.476562 96.0625 122.25 96.0625 108.621094 Z M 96.066406 64.316406"/><path fill="#F4900C" d="M 96.066406 61.335938 L 96.058594 61.335938 C 61.058594 61.339844 66.394531 74.828125 70.148438 97.257812 C 73.898438 119.699219 78.332031 135.617188 96.066406 135.617188 C 113.792969 135.617188 118.222656 119.699219 121.976562 97.257812 C 125.722656 74.824219 131.058594 61.339844 96.066406 61.335938 Z M 96.066406 61.335938"/><g clip-path="url(#i)"><path fill="#F18F26" d="M 147.660156 116.160156 C 147.402344 98.53125 118.9375 104.59375 116.511719 106.980469 C 113.101562 110.328125 113.089844 130.773438 96.058594 130.773438 C 79.027344 130.773438 75.617188 110.328125 72.210938 106.980469 C 69.78125 104.59375 43.695312 102.648438 44.339844 116.160156 C 51.152344 112.75 55.171875 113.738281 55.171875 113.738281 C 55.171875 113.738281 50.769531 116.289062 51.414062 122.335938 C 61.324219 117.832031 65.953125 118.472656 71.359375 121.175781 C 75.105469 132.367188 84.347656 140.734375 96.066406 140.734375 C 107.777344 140.734375 116.898438 132.105469 120.640625 120.921875 C 125.144531 117.058594 132.089844 118.21875 140.453125 122.207031 C 141.355469 116.542969 136.957031 113.738281 136.957031 113.738281 C 136.957031 113.738281 140.847656 112.75 147.660156 116.160156 Z M 147.660156 116.160156"/></g><path fill="#FFD983" d="M 147.179688 112.027344 C 144.386719 103.632812 118.9375 99.476562 116.511719 101.863281 C 113.101562 105.210938 113.089844 125.65625 96.058594 125.65625 C 79.027344 125.65625 75.617188 105.210938 72.210938 101.863281 C 69.78125 99.476562 47.746094 103.632812 44.949219 112.027344 C 51.765625 108.617188 55.175781 108.617188 55.175781 108.617188 C 55.175781 108.617188 51.765625 115.4375 51.765625 118.84375 C 60.011719 113.347656 68.25 112.292969 74.707031 117.449219 C 78.453125 128.636719 84.347656 135.617188 96.066406 135.617188 C 107.777344 135.617188 113.667969 128.640625 117.410156 117.457031 C 123.871094 112.289062 132.117188 113.347656 140.367188 118.84375 C 140.367188 115.4375 136.960938 108.617188 136.960938 108.617188 C 136.960938 108.617188 140.367188 108.621094 147.179688 112.027344 Z M 147.179688 112.027344"/><path fill="#272B2B" d="M 74.445312 88.234375 C 74.445312 88.234375 74.445312 83.601562 79.078125 83.601562 C 83.710938 83.601562 83.710938 88.234375 83.710938 88.234375 L 83.710938 92.867188 C 83.710938 92.867188 83.710938 97.5 79.078125 97.5 C 74.445312 97.5 74.445312 92.867188 74.445312 92.867188 Z M 108.414062 88.234375 C 108.414062 88.234375 108.414062 83.601562 113.046875 83.601562 C 117.679688 83.601562 117.679688 88.234375 117.679688 88.234375 L 117.679688 92.867188 C 117.679688 92.867188 117.679688 97.5 113.046875 97.5 C 108.414062 97.5 108.414062 92.867188 108.414062 92.867188 Z M 86.609375 121.613281 C 83.457031 122.253906 92.914062 133.867188 96.066406 133.867188 C 99.214844 133.867188 108.671875 122.253906 105.523438 121.613281 C 102.367188 120.96875 89.761719 120.96875 86.609375 121.613281 Z M 86.609375 121.613281"/><g clip-path="url(#j)"><g clip-path="url(#k)"><g clip-path="url(#l)"><g clip-path="url(#m)" fill="#F4900C"><path d="M 100.960938 66.148438 C 82.625 41.054688 54.230469 43.75 19.246094 62.425781 L 27.257812 68.113281 C 27.257812 68.113281 13.550781 70.441406 0.996094 79.628906 C 11.855469 81.308594 15.863281 84.152344 15.863281 84.152344 C 15.863281 84.152344 6.15625 89.332031 3.304688 93.34375 C 21.023438 93.855469 33.035156 102.386719 32.5 120.113281 C 31.960938 137.835938 52.527344 134.335938 63.921875 118.292969 Z M 100.960938 66.148438"/><path d="M 100.960938 66.148438 C 130.6875 75.195312 137.496094 102.894531 131.386719 142.070312 L 123.378906 136.386719 C 123.378906 136.386719 125.691406 150.089844 121.144531 164.96875 C 115.988281 155.269531 111.988281 152.425781 111.988281 152.425781 C 111.988281 152.425781 110.289062 163.292969 107.4375 167.304688 C 101.121094 150.746094 89.109375 142.210938 72.550781 148.558594 C 55.988281 154.898438 52.523438 134.332031 63.921875 118.289062 Z M 100.960938 66.148438"/><path d="M 103.453125 62.640625 L 103.441406 62.632812 C 62.304688 33.417969 57.300781 53.75 42.960938 83.28125 C 28.609375 112.820312 20.511719 135.257812 41.355469 150.066406 C 62.191406 164.863281 80.703125 149.824219 103.875 126.550781 C 127.03125 103.277344 144.578125 91.859375 103.453125 62.640625 Z M 103.453125 62.640625"/></g></g></g></g><g clip-path="url(#n)"><g clip-path="url(#o)"><g clip-path="url(#p)"><g clip-path="url(#q)"><path fill="#F18F26" d="M 118.261719 170.234375 C 132.691406 149.273438 94.171875 132.644531 89.324219 133.429688 C 82.519531 134.523438 65.410156 158.578125 45.394531 144.359375 C 25.375 130.140625 38.460938 103.230469 37.257812 96.445312 C 36.398438 91.609375 7.367188 67.542969 -3.171875 83.980469 C 7.6875 85.65625 11.582031 90.171875 11.582031 90.171875 C 11.582031 90.171875 4.277344 89.5 -0.0195312 97.15625 C 15.390625 100.128906 20.296875 104.75 24.386719 112.441406 C 19.4375 128.738281 23.304688 146.304688 37.078125 156.085938 C 50.84375 165.867188 68.773438 163.324219 82.523438 153.28125 C 91.042969 152.5 98.238281 159.660156 104.734375 171.335938 C 110.527344 165.425781 107.707031 158.449219 107.707031 158.449219 C 107.707031 158.449219 113.105469 160.535156 118.261719 170.234375 Z M 118.261719 170.234375"/></g></g></g></g><g clip-path="url(#r)"><g clip-path="url(#s)"><g clip-path="url(#t)"><g clip-path="url(#u)"><path fill="#FFD983" d="M 121.148438 164.96875 C 124.886719 152.761719 98.449219 126.625 93.601562 127.40625 C 86.796875 128.5 69.6875 152.554688 49.671875 138.335938 C 29.652344 124.117188 42.742188 97.207031 41.535156 90.421875 C 40.675781 85.585938 11.304688 72.082031 1 79.625 C 11.859375 81.304688 15.867188 84.148438 15.867188 84.148438 C 15.867188 84.148438 6.160156 89.328125 3.308594 93.339844 C 17.59375 93.753906 28.164062 99.390625 31.4375 110.851562 C 26.488281 127.144531 27.582031 140.28125 41.355469 150.066406 C 55.121094 159.84375 67.875 156.546875 81.625 146.507812 C 93.535156 145.820312 102.34375 153.953125 107.441406 167.308594 C 110.292969 163.296875 111.988281 152.425781 111.988281 152.425781 C 111.988281 152.425781 115.992188 155.273438 121.148438 164.96875 Z M 121.148438 164.96875"/></g></g></g></g><g clip-path="url(#v)"><g clip-path="url(#w)"><g clip-path="url(#x)"><g clip-path="url(#y)"><path fill="#272B2B" d="M 55.554688 76.25 C 55.554688 76.25 59.429688 70.796875 64.875 74.664062 C 70.316406 78.53125 66.445312 83.984375 66.445312 83.984375 L 62.570312 89.4375 C 62.570312 89.4375 58.699219 94.886719 53.253906 91.019531 C 47.8125 87.152344 51.683594 81.703125 51.683594 81.703125 Z M 95.480469 104.609375 C 95.480469 104.609375 99.351562 99.15625 104.796875 103.023438 C 110.242188 106.890625 106.367188 112.34375 106.367188 112.34375 L 102.496094 117.792969 C 102.496094 117.792969 98.621094 123.246094 93.179688 119.378906 C 87.734375 115.511719 91.605469 110.058594 91.605469 110.058594 Z M 41.949219 125.6875 C 37.707031 123.8125 39.113281 145.371094 42.820312 148.003906 C 46.519531 150.632812 67.339844 144.859375 64.175781 141.476562 C 61.007812 138.085938 46.191406 127.5625 41.949219 125.6875 Z M 41.949219 125.6875"/></g></g></g></g><g clip-path="url(#z)"><g clip-path="url(#A)"><g clip-path="url(#B)"><g clip-path="url(#C)"><path fill="#F4900C" d="M 97.28125 61.957031 C 67.503906 70.855469 60.554688 98.515625 66.464844 137.730469 L 74.503906 132.082031 C 74.503906 132.082031 72.117188 145.777344 76.582031 160.679688 C 81.792969 151.003906 85.8125 148.179688 85.8125 148.179688 C 85.8125 148.179688 87.449219 159.058594 90.28125 163.085938 C 96.683594 146.558594 108.738281 138.085938 125.265625 144.515625 C 141.789062 150.945312 145.363281 130.394531 134.050781 114.292969 Z M 97.28125 61.957031"/><path fill="#F4900C" d="M 97.28125 61.957031 C 115.742188 36.960938 144.121094 39.800781 179.003906 58.652344 L 170.96875 64.296875 C 170.96875 64.296875 184.660156 66.699219 197.164062 75.953125 C 186.296875 77.574219 182.28125 80.394531 182.28125 80.394531 C 182.28125 80.394531 191.957031 85.628906 194.785156 89.65625 C 177.066406 90.074219 165.011719 98.546875 165.457031 116.269531 C 165.898438 134 145.359375 130.394531 134.042969 114.292969 Z M 97.28125 61.957031"/><path fill="#F4900C" d="M 94.804688 58.4375 L 94.796875 58.445312 C 53.511719 87.457031 71.007812 98.964844 94.046875 122.347656 C 117.089844 145.746094 135.535156 160.875 156.453125 146.179688 C 177.367188 131.484375 169.378906 109.011719 155.183594 79.394531 C 140.984375 49.792969 136.085938 29.4375 94.804688 58.4375 Z M 94.804688 58.4375"/><path fill="#F18F26" d="M 201.164062 80.433594 C 186.230469 59.828125 157.6875 90.574219 156.804688 95.40625 C 155.5625 102.1875 172.515625 126.347656 152.425781 140.464844 C 132.335938 154.582031 111.34375 133.253906 104.546875 132.121094 C 99.699219 131.316406 67.316406 150.636719 79.289062 166.0625 C 84.496094 156.386719 90.054688 154.226562 90.054688 154.226562 C 90.054688 154.226562 86.984375 160.886719 92.761719 167.492188 C 100.710938 153.964844 106.707031 150.886719 115.324219 149.597656 C 129.027344 159.710938 146.875 161.9375 160.699219 152.222656 C 174.515625 142.515625 178.113281 124.765625 173.242188 108.453125 C 175.351562 100.160156 184.507812 95.769531 197.679688 93.550781 C 194.046875 86.117188 186.53125 86.445312 186.53125 86.445312 C 186.53125 86.445312 190.300781 82.050781 201.164062 80.433594 Z M 201.164062 80.433594"/><path fill="#FFD983" d="M 197.167969 75.953125 C 186.90625 68.351562 153.441406 84.53125 152.558594 89.363281 C 151.316406 96.140625 168.269531 120.304688 148.179688 134.417969 C 128.089844 148.535156 107.097656 127.210938 100.300781 126.078125 C 95.453125 125.273438 72.914062 148.441406 76.578125 160.675781 C 81.789062 151 85.808594 148.175781 85.808594 148.175781 C 85.808594 148.175781 87.449219 159.054688 90.277344 163.082031 C 95.441406 149.757812 104.285156 141.679688 116.179688 142.421875 C 129.882812 152.53125 142.628906 155.890625 156.453125 146.179688 C 170.269531 136.472656 171.425781 123.351562 166.558594 107.035156 C 169.890625 95.578125 180.5 89.996094 194.789062 89.652344 C 191.960938 85.625 182.285156 80.394531 182.285156 80.394531 C 182.285156 80.394531 186.304688 77.574219 197.167969 75.953125 Z M 197.167969 75.953125"/><path fill="#272B2B" d="M 91.628906 108.128906 C 91.628906 108.128906 87.785156 102.65625 93.246094 98.816406 C 98.710938 94.976562 102.554688 100.449219 102.554688 100.449219 L 106.402344 105.921875 C 106.402344 105.921875 110.246094 111.394531 104.78125 115.230469 C 99.316406 119.070312 95.472656 113.597656 95.472656 113.597656 Z M 131.695312 79.976562 C 131.695312 79.976562 127.851562 74.503906 133.316406 70.664062 C 138.78125 66.824219 142.625 72.296875 142.625 72.296875 L 146.46875 77.769531 C 146.46875 77.769531 150.3125 83.242188 144.847656 87.078125 C 139.386719 90.917969 135.539062 85.445312 135.539062 85.445312 Z M 133.675781 137.472656 C 130.492188 140.84375 151.28125 146.722656 155 144.109375 C 158.714844 141.5 160.234375 119.949219 155.984375 121.800781 C 151.730469 123.652344 136.863281 134.101562 133.675781 137.472656 Z M 133.675781 137.472656"/></g></g></g></g></svg>