<?xml version="1.0" encoding="UTF-8"?>
<svg width="256px" height="256px" viewBox="0 0 256 256" version="1.1" xmlns="http://www.w3.org/2000/svg" xmlns:xlink="http://www.w3.org/1999/xlink">
    <title>Standard TinyBot Teal</title>
    <defs>
        <radialGradient cx="50%" cy="33.2367188%" fx="50%" fy="33.2367188%" r="86.4956615%" gradientTransform="translate(0.500000,0.332367),scale(0.991837,1.000000),rotate(88.634368),translate(-0.500000,-0.332367)" id="radialGradient-1">
            <stop stop-color="#636363" offset="0%"></stop>
            <stop stop-color="#000000" offset="100%"></stop>
            <stop stop-color="#000000" offset="100%"></stop>
        </radialGradient>
    </defs>
    <g id="Standard-TinyBot-Teal" stroke="none" stroke-width="1" fill="none" fill-rule="evenodd">
        <rect id="Rectangle" stroke="#979797" fill="#FFFFFF" x="58" y="95" width="139" height="130"></rect>
        <path d="M128.5,6 C140.112405,6 149.526119,15.4070697 149.526119,27.0112782 C149.526119,36.0454145 143.820494,43.7478713 135.813726,46.7165691 L135.813,77.255 L196.83209,77.2556391 C210.086924,77.2556391 220.83209,88.0008051 220.83209,101.255639 L220.832,126.586 L238,126.586466 C245.179702,126.586466 251,132.406764 251,139.586466 L251,183.928571 C251,191.108273 245.179702,196.928571 238,196.928571 L220.832,196.928 L220.83209,225 C220.83209,238.254834 210.086924,249 196.83209,249 L60.1679104,249 C46.9130765,249 36.1679104,238.254834 36.1679104,225 L36.167,196.928 L19,196.928571 C11.8202983,196.928571 6,191.108273 6,183.928571 L6,139.586466 C6,132.406764 11.8202983,126.586466 19,126.586466 L36.167,126.586 L36.1679104,101.255639 C36.1679104,88.0008051 46.9130765,77.2556391 60.1679104,77.2556391 L122.1,77.255 L122.10002,47.0315002 C113.61712,44.3258394 107.473881,36.3854676 107.473881,27.0112782 C107.473881,15.4070697 116.887595,6 128.5,6 Z M167,188 L91,188 C85.4771525,188 81,192.477153 81,198 L81,198 L81,202 C81,207.522847 85.4771525,212 91,212 L91,212 L167,212 C172.522847,212 177,207.522847 177,202 L177,202 L177,198 C177,192.477153 172.522847,188 167,188 L167,188 Z M162.5,114 C152.835017,114 145,125.192881 145,139 C145,152.807119 152.835017,164 162.5,164 C172.164983,164 180,152.807119 180,139 C180,125.192881 172.164983,114 162.5,114 Z M94.5,113 C84.8350169,113 77,124.192881 77,138 C77,151.807119 84.8350169,163 94.5,163 C104.164983,163 112,151.807119 112,138 C112,124.192881 104.164983,113 94.5,113 Z" id="Combined-Shape" stroke="#FFFFFF" stroke-width="4" fill="url(#radialGradient-1)"></path>
        <path d="M128.5,6 C140.112405,6 149.526119,15.4070697 149.526119,27.0112782 C149.526119,36.0454145 143.820494,43.7478713 135.813726,46.7165691 L135.813,77.255 L196.83209,77.2556391 C210.086924,77.2556391 220.83209,88.0008051 220.83209,101.255639 L220.832,126.586 L238,126.586466 C245.179702,126.586466 251,132.406764 251,139.586466 L251,183.928571 C251,191.108273 245.179702,196.928571 238,196.928571 L220.832,196.928 L220.83209,225 C220.83209,238.254834 210.086924,249 196.83209,249 L60.1679104,249 C46.9130765,249 36.1679104,238.254834 36.1679104,225 L36.167,196.928 L19,196.928571 C11.8202983,196.928571 6,191.108273 6,183.928571 L6,139.586466 C6,132.406764 11.8202983,126.586466 19,126.586466 L36.167,126.586 L36.1679104,101.255639 C36.1679104,88.0008051 46.9130765,77.2556391 60.1679104,77.2556391 L122.1,77.255 L122.10002,47.0315002 C113.61712,44.3258394 107.473881,36.3854676 107.473881,27.0112782 C107.473881,15.4070697 116.887595,6 128.5,6 Z" id="Combined-Shape" stroke="#22FCD3" stroke-width="6"></path>
    </g>
</svg>