<svg width="256" height="256" viewBox="0 0 256 256" fill="none" xmlns="http://www.w3.org/2000/svg">
<g clip-path="url(#clip0_153_518)">
<path d="M256 128C256 198.692 198.692 256 128 256C57.3075 256 0 198.692 0 128C0 57.3075 57.3075 0 128 0C198.692 0 256 57.3075 256 128Z" fill="white"/>
<path d="M118.359 256C85.6281 255.018 50.4579 238.45 24.4603 203.11C-12.6893 152.629 -6.87475 82.0964 37.5386 37.5086C87.6429 -12.7871 169.595 -12.4535 219.31 38.2313C281.008 101.129 262.327 206.186 182.726 243.88C165.282 252.127 146.973 256.185 118.359 256ZM242.215 124.442C242.074 107.522 237.001 88.1934 226.379 70.6251C190.732 11.5824 112.227 -3.55819 58.6054 38.1572C9.56156 76.3144 -0.529981 143.53 35.2411 193.955C64.4553 235.152 119.685 252.145 167.103 234.503C212.524 217.62 242.144 175.757 242.215 124.442Z" fill="black"/>
<path d="M168.817 150.516C160.493 150.516 153.141 150.627 145.789 150.461C142.042 150.368 138.242 150.183 134.601 149.33C128.08 147.811 125.676 144.512 125.641 138.174C125.606 131.91 128.557 126.332 134.478 126.165C152.381 125.665 170.372 125.758 188.24 126.87C195.045 127.296 197.66 134.449 197.837 141.046C198.226 154.686 198.137 168.363 197.89 182.021C197.766 189.229 193.896 194.437 188.134 198.125C168.976 210.411 148.334 216.879 125.729 216.286C114.489 215.99 103.549 214.396 93.0688 210.078C73.3098 201.924 59.4715 187.339 52.2961 166.472C43.5477 141.065 43.7598 115.38 52.9324 90.0837C59.9134 70.8105 72.7796 56.9486 91.1247 49.5358C116.787 39.195 142.59 38.3611 167.792 51.2963C179.58 57.3563 188.311 66.7705 192.199 80.3544C194.638 88.842 191.704 96.5328 184.847 99.9982C177.636 103.631 170.16 101.184 165.141 93.8827C161.253 88.2119 157.789 81.9111 152.858 77.4078C134.937 61.0627 103.408 66.3257 89.1453 87.4707C74.1582 109.709 75.0949 152.184 91.1954 173.477C100.704 186.061 113.8 190.249 128.522 190.212C141.83 190.175 154.148 186.116 165.795 179.63C167.085 178.907 168.64 177.165 168.676 175.849C168.959 167.658 168.817 159.449 168.817 150.516Z" fill="black"/>
</g>
<defs>
<clipPath id="clip0_153_518">
<rect width="256" height="256" fill="white"/>
</clipPath>
</defs>
</svg>
