<svg width="256" height="256" viewBox="0 0 256 256" fill="none" xmlns="http://www.w3.org/2000/svg">
<g clip-path="url(#clip0_10_31)">
<path d="M255.99 -0.0300293H-0.0100098V255.97H255.99V-0.0300293Z" fill="white"/>
<path d="M224.573 138.452C217.24 183.799 186.355 200.985 178.54 205.491C170.725 209.998 165.449 210.439 165.449 210.439C185.661 200.333 193.477 193.211 202.062 183.123C220.892 160.253 221.004 136.46 221.004 136.46C212.753 168.205 200.237 174.537 200.043 174.631C205.035 167.639 209.365 160.196 212.975 152.4C218.346 140.445 218.808 127.374 218.808 124.257C218.816 122.452 218.687 120.65 218.423 118.865C213.534 136.768 207.45 147.11 205.392 149.878C203.333 152.646 202.619 154.942 202.619 155.884C202.619 156.826 202.985 156.866 202.985 157.522C202.985 158.177 198.672 165.644 187.468 178.504C171.455 196.677 155.07 198.178 149.97 198.178C144.869 198.178 142.808 197.234 141.152 197.234C139.496 197.234 135.841 199.218 132.76 199.218C118.975 199.218 97.9168 183.394 92.4095 179.273C86.9022 175.152 83.236 168.224 82.169 166.173C81.102 164.122 79.5699 161.467 74.7772 153.378C69.8719 144.926 67.3196 135.314 67.3853 125.542C67.3961 114.792 70.0863 104.215 75.2125 94.7664C75.2125 94.7664 73.2491 94.1315 73.2491 92.3982C73.2491 90.6649 75.1803 87.8356 77.0005 84.7746C78.8207 81.7136 81.2477 76.3986 88.2348 69.6996C100.882 56.8246 114.916 53.7322 124.099 52.2861C133.282 50.8401 130.874 50.5255 139.114 50.5255C146.646 50.5359 154.103 52.0271 161.06 54.9143C182.545 64.0394 198.558 89.103 201.41 97.034C204.262 104.965 204.066 108.219 204.066 113.283C204.056 115.849 204.831 118.356 206.288 120.467C206.35 120.554 206.433 120.623 206.529 120.67C206.625 120.716 206.731 120.738 206.838 120.734C206.944 120.729 207.048 120.698 207.139 120.644C207.231 120.589 207.308 120.513 207.362 120.421C209.448 116.901 209.917 114.371 209.917 107.7C209.917 100.538 208.227 89.721 205.182 83.8299C199.637 73.0881 195.043 68.9786 193.082 67.4143C190.302 65.261 187.643 62.9575 185.115 60.5141C183.036 58.3495 183.625 57.3758 183.625 57.3758C194.519 65.1145 201.911 73.3521 206.726 81.4005C209.423 85.7537 211.606 90.405 213.231 95.2613C213.43 94.6906 213.565 94.0995 213.633 93.499C213.597 92.9959 213.504 92.4984 213.356 92.016C213.972 92.0727 214.59 92.0928 215.207 92.0763C214.881 90.9948 214.621 89.8947 214.427 88.7819C216.132 89.997 218.411 96.6679 218.411 96.6679C218.513 89.7922 216.65 83.0304 213.04 77.1775C212.029 75.3847 210.441 73.0736 209.864 71.2567C209.653 70.4512 209.343 69.6751 208.94 68.9464L208.824 70.8245C205.994 68.2238 205.705 65.9433 200.72 59.2258C176.925 26.8089 142.579 25 127.776 25C115.053 25 94.0679 29.5063 75.742 42.5961C35.8544 69.6996 31.3892 115.205 31.3892 126.835C31.3892 159.103 47.4025 179.042 50.6784 183.082C53.9543 187.123 58.9948 194.633 62.8823 199.447C66.7697 204.26 68.503 205.952 80.0527 213.228C100.691 226.322 121.327 231 138.595 231C155.862 231 166.066 226.939 171.762 224.321C177.371 221.746 188.651 217.34 189.002 217.201C185.144 217.744 175.227 221.473 173.841 221.473C172.454 221.473 171.686 222.783 170.415 222.783C169.144 222.783 150.491 225.324 137.497 225.324C105.39 225.324 87.253 217.196 73.6852 207.035C65.6786 201.113 58.7778 193.828 53.2993 185.512C67.0047 193.906 68.3147 199.755 84.8317 210.327C101.349 220.899 116.556 221.896 116.556 221.896C108.355 218.816 92.3789 209.23 92.3789 209.23C102.428 212.157 114.592 220.898 132.149 216.777C142.658 214.302 153.321 212.533 164.067 211.482C137.732 219.683 121.273 220.607 121.273 220.607C127.452 222.051 146.568 223.611 169.842 214.312C198.563 202.455 207.323 192.251 210.904 186.476C214.485 180.701 220.953 168.919 222.049 163.722C223.892 155.429 224.739 146.946 224.573 138.452V138.452ZM38.9726 102.619C45.2097 77.7851 62.3431 56.4568 81.8246 44.5201C96.0184 35.6682 112.399 30.9482 129.127 30.8903C139.06 30.8903 150.09 32.1609 165.337 38.398C180.585 44.6352 188.611 53.5865 188.611 53.5865C175.617 45.6201 159.292 40.0911 155.75 39.3218C152.209 38.5525 147.088 37.5515 143.547 36.7412C137.541 35.5377 131.436 34.8936 125.312 34.8172C116.735 34.6776 108.19 35.8999 99.9969 38.4383C73.6611 47.2898 62.9627 64.6453 62.6022 65.2344C72.9022 51.6883 90.8403 46.5391 91.1751 46.4441C84.2122 50.1172 77.6905 54.5717 71.7363 59.7215C68.7478 62.1566 66.1848 65.0714 64.1521 68.3469C61.3377 72.801 58.2784 77.0955 54.9883 81.2106C53.5656 82.8281 47.52 91.1437 45.4012 98.1895C28.9631 144.613 53.1769 183.808 53.7475 184.725C45.5432 172.898 39.9779 159.445 37.4286 145.279C34.8794 131.112 35.406 116.564 38.9726 102.619V102.619ZM46.5471 123.929C46.5793 127.006 46.7346 130.081 47.046 133.142C47.215 134.671 47.4114 136.2 47.6697 137.713C47.928 139.227 48.2611 140.737 48.6353 142.237C48.1223 140.776 47.689 139.288 47.3373 137.78C46.9953 136.27 46.725 134.742 46.5077 133.206C46.2904 131.67 46.1544 130.127 46.0361 128.582C45.9372 127.036 45.8816 125.486 45.8535 123.939C45.8444 122.389 45.8666 120.84 45.9203 119.293C45.9822 117.747 46.0707 116.202 46.2043 114.659C46.4519 111.576 46.8655 108.508 47.4435 105.469C47.289 107.007 47.141 108.543 47.0372 110.082C46.9197 111.621 46.8247 113.159 46.7435 114.698C46.589 117.772 46.5109 120.851 46.5479 123.928L46.5471 123.929ZM78.5512 203.11C75.1256 200.299 56.7208 185.824 46.9422 166.189C42.2066 156.524 40.5136 146.554 42.2066 142.241C43.1717 147.554 44.7213 152.745 46.8272 157.718C50.1191 165.168 56.7248 177.816 67.3467 188.055C77.9686 198.293 89.5231 206.845 91.4495 208.655C91.4503 208.65 81.9791 205.917 78.5512 203.106V203.11ZM90.5104 198.733L89.3645 198.188C88.9855 198.001 88.5953 197.835 88.2299 197.625L86.0009 196.412C85.6316 196.205 85.2502 196.019 84.8921 195.793L83.809 195.133C83.0848 194.687 82.3557 194.26 81.654 193.786C80.2611 192.82 78.8449 191.887 77.5236 190.822L76.5209 190.044L76.0196 189.651L75.5368 189.238L73.6104 187.579C73.2821 187.309 72.9892 187.004 72.6769 186.715L71.7523 185.834L70.835 184.953L69.9571 184.036L69.0768 183.119C68.7831 182.814 68.4901 182.509 68.2149 182.185L66.5356 180.281C64.3658 177.687 62.3506 174.967 60.5004 172.136C58.6569 169.309 56.9906 166.371 55.5113 163.337C55.1444 162.579 54.7928 161.812 54.4323 161.053C54.0903 160.286 53.7555 159.512 53.4248 158.737C53.1126 157.957 52.7899 157.18 52.4913 156.395C52.1928 155.61 51.8927 154.824 51.6271 154.025C51.0727 152.441 50.581 150.835 50.1328 149.216C49.6846 147.597 49.2967 145.965 49.0191 144.313C49.2251 145.125 49.4601 145.923 49.7144 146.723C49.9686 147.523 50.227 148.312 50.507 149.1C51.0662 150.673 51.648 152.238 52.3022 153.767C53.5755 156.842 55.0146 159.846 56.613 162.765L57.8393 164.938L59.1147 167.074L60.4569 169.166C60.91 169.861 61.3904 170.534 61.8571 171.222C65.6315 176.659 70.04 181.627 74.9896 186.02L76.8677 187.635L77.3345 188.038L77.8221 188.422L78.7926 189.188C80.0632 190.244 81.4263 191.175 82.7516 192.159C85.4586 194.06 88.2804 195.791 91.2008 197.343C91.9355 197.729 92.642 198.166 93.3928 198.521C94.1347 198.893 94.871 199.279 95.6057 199.672C96.3404 200.065 97.0936 200.425 97.8395 200.798C98.5855 201.172 99.3338 201.561 100.071 201.984C96.7711 201.266 93.5636 200.175 90.5104 198.732V198.733Z" fill="black"/>
</g>
<defs>
<clipPath id="clip0_10_31">
<rect width="256" height="256" fill="white"/>
</clipPath>
</defs>
</svg>
