<svg id="Layer_1" data-name="Layer 1" xmlns="http://www.w3.org/2000/svg" xmlns:xlink="http://www.w3.org/1999/xlink" viewBox="0 0 274.82 402.13"><defs><clipPath id="clip-path" transform="translate(20.05 -1.23)"><circle cx="128" cy="128" r="126.74" style="fill:#f28d1c"/></clipPath></defs><circle cx="148.05" cy="126.77" r="126.74" style="fill:#f28d1c"/><g style="clip-path:url(#clip-path)"><ellipse cx="75.61" cy="372.95" rx="21.7" ry="98" transform="translate(-284.76 362.23) rotate(-77.11)" style="fill:#010101"/><path d="M-2.67,270.89c.63-.19.22-1.32.52-1.91a26.76,26.76,0,0,1,2.66-4.14c3-3.95,7.67-5.72,10.78-9.47,4.29-5.17,5.67-11.91,8.94-17.62a.66.66,0,0,1,.22-.27c.9-.46,11.56,5.06,11.89,6.35.37,1.45-6.52,12.43-6.85,16-.51,5.45,5.53,14.45,2.79,19.73-1.13,2.18-6.05,2.79-7.84,1.27-1.12-.95-1.76-6.18-2.9-5.63-.56.27-.83,1.11-1,1.64-.51,1.36-.78,3.35-1.81,4.43-3.3,3.5-9.15.75-9-3.65,0-.94,1.78-6.66,1.72-6.8s-1.81,1-1.95,1.08c-4.87,2.94-9.06,3.26-7.45-3.8" transform="translate(20.05 -1.23)" style="fill:#355ca8;fill-rule:evenodd"/><path d="M169.29,270.59c-.08,0-.13,0-.15.06a50.81,50.81,0,0,0-.2,7.09,15.11,15.11,0,0,0,.88,6.44c2,4.39,7.31,7.17,7.88,13.11.35,3.59-1.67,6.49-5.62,5.23-2-.63-3.45-2.45-4.65-4-.09-.13-1.08-1.54-1.26-1.36-.74.72,2.1,12.2-5.1,10.37-1.69-.43-2.84-2.62-3.75-3.93-6.09-8.79-2.54-10.36-.15-21.34.2-.94,3-14.06,3.36-14.21.83-.42,2.93.29,3.81.38,2.09.23,4.5.44,6.22,1.77" transform="translate(20.05 -1.23)" style="fill:#355ca8;fill-rule:evenodd"/><path d="M29.2,321.85c-.06,0-.11,1.6-.12,1.68-.56,5.81-1.76,11.6-2.83,17.33-.92,4.88-3.64,13.11-2.2,18,1,3.44,5.51,5.7,8.15,7.76,4.32,3.35,12.7,11.81,18.73,10.9,1.78-.27,2.4-3.47,3-3.56,1.59-.25,3.58,1.84,5.88,1.3,4.91-1.17,3-4.74,3.77-5.68,1.11-1.31,4.19-.44,4.93-2.16.59-1.37-.36-3.16-1.25-4.15-1.77-2-4.95-2.63-7.27-3.74-2.57-1.22-20.3-9.59-21-11.14-.75-1.77,1.57-14.42,2.16-16.78.33-1.32,2.9-5.17,2-6.58-1.07-1.62-5-2-6.67-2.45-2-.54-4-.8-6-1.25" transform="translate(20.05 -1.23)" style="fill:#355ca8;fill-rule:evenodd"/><path d="M107.31,340.77c-1,3.49-7.74,31.1-6.5,33.5,2.55,4.94,20.13,19,25.61,18.67,5-.34,3-4,4-4.15,2.74-.49,6.11,3.4,9.32.49a2.85,2.85,0,0,0,.37-3.7c-.11-.13-.51-.53-.27-.7,1.57-1.14,4.46-.25,5.24-2.57,2.71-8.1-25.28-13.6-28.32-17-1.29-1.45,4.87-18.51,3.72-22.31-.61-2-9.67-1.82-11.65-2.16a3.09,3.09,0,0,1-1.16-.28s-.4-.43-.43-.41c-.57.46-.79,2.41-1,3.08" transform="translate(20.05 -1.23)" style="fill:#355ca8;fill-rule:evenodd"/><path d="M15.41,313.13c-.48-.63,1.39-8.67,1.61-9.84.42-2.26,2.57-19.73,4.16-21,.14-.11,3.13.31,3.54.3,1.28,0,2-1.26,3.18-1.28,2,0,12,6.25,14.26,7.65,15.22,9.58,37.89,15.57,55.52,18.67,12.77,2.25,26.13,3.64,39,4.87a15.72,15.72,0,0,0,5.12.12s.49-.11.49-.05c.09,4.54-3.44,12.81-4.92,17.37-3,9.42-2.57,11.43-12.3,12.57-3.11.37-5.15-.55-8.26-.41-4,.19-6-.73-10.62-2.77-3.75-1.68-8.3.39-11.42-2.3-1.66-1.43.17-11.38-4.09-14.93-3.8-3.16-18.1-5.07-22.95-5.78-12.16-1.78-8.3,13.12-15,11.76-7.08-1.43-31.82-7.81-36-12.55-1-1.17-.53-3-.31-4.42" transform="translate(20.05 -1.23)" style="fill:#e2ceba;fill-rule:evenodd"/><path d="M10.4,227.43c.07-.09.68-4.32.91-5.08a83.48,83.48,0,0,1,5-12.15c4-8.38,28.71-46.81,38.82-49.52,2.09-.56,2.68,3.28,3.32,4.67,1.1,2.39,3.34,3.65,5.17,5.45,9.21,9,19,17.84,31.54,21.77,15.63,4.91,31.86,11.82,48.56,11.63,8.59-.11,16.92-1.81,25.34-3.34.38-.07,1.64-.47,2.06-.21,8.69,5.55,13.18,61.37,6.31,69.42-2.47,2.9-16.33-5.19-18.93.55-2.89,6.39-7.1,39.33-8.75,40.68-1.33,1.09-4.71.55-6.36.69-19.53,1.68-35.74-1.93-54.64-6.26-8.12-1.86-18.82-2.74-25.69-7.43-4.43-3-31.67-13-34.86-17.07-.3-.38-.49-6.71-1.17-8.6-1.47-4.08-3-8.53-1.75-12.91s7.94-10.76,6.16-15.55c-1.95-5.24-18.9-9.12-21.12-15.47-3.52-10.06,35.3-65.54,43.17-69C33.37,177.92,18,199.79,10.4,227.43Z" transform="translate(20.05 -1.23)" style="fill:#462b13;fill-rule:evenodd"/><path d="M235.58,309.66a.46.46,0,0,0-.2,0" transform="translate(20.05 -1.23)" style="fill:none"/><path d="M21.61,282.3s-1.51,6.22-3,13.79c-1.66,8.27-2.76,17.12-2.76,17.12a70.77,70.77,0,0,0,20,10.4c15.35,5.25,20.11,5,20.11,5l6.62-13.4a152.73,152.73,0,0,0,30.19,6.5l2.18,14.77s11.59,4.14,19,5.31c12.58,2,19.18.83,19.18.83s2.56-6,4.71-13c1.87-6.12,3.24-11.58,4.39-16.59" transform="translate(20.05 -1.23)" style="fill:none;stroke:#010101;stroke-linecap:round;stroke-linejoin:round;stroke-width:4.527620519815985px"/><path d="M54.33,161a137.78,137.78,0,0,0-19.61,20.2c-6,7.92-24.32,34.73-24.1,46,.12,5.6,33.65,25.41,37.37,20.78,5.95-7.43,11.87-21.17,14.56-28.94" transform="translate(20.05 -1.23)" style="fill:none;stroke:#010101;stroke-linecap:square;stroke-linejoin:round;stroke-width:4.527620519815985px"/><path d="M171.34,201.31s.67,1.54.77,1.75a85.11,85.11,0,0,1,5.55,15.72A131.47,131.47,0,0,1,181,238.17c.44,5.47.09,27-1.62,31.9a.35.35,0,0,1-.19.22c-.47.26-16-1.73-18.84-2.39" transform="translate(20.05 -1.23)" style="fill:none;stroke:#010101;stroke-linecap:square;stroke-linejoin:round;stroke-width:4.527620519815985px"/><path d="M157,203c1.86,5.86,5.24,40.78.82,70.66-2.59,17.48-7.94,37.68-7.94,37.68s-5,.56-7.59.68a95.55,95.55,0,0,1-11,.16c-11.84-.78-23.34-3.06-35-5.34-15.42-3-28.4-5.52-42.45-12.6-7-3.54-17.48-8.27-24.44-12" transform="translate(20.05 -1.23)" style="fill:none;stroke:#010101;stroke-linecap:round;stroke-linejoin:round;stroke-width:4.527620519815985px"/><path d="M30.56,322.29l-7.07,36.32s15.77,14.95,20.76,17.57c1.29.68,7.41,3.87,8.69,0,1.18-3.56-3.12-6.66-3.12-6.66s8.78,7.93,12.82,4.52c3.81-3.22-6.45-8.28-6.45-8.28s10.39,6.57,11.62.57c.72-3.55-3.25-5.1-8.44-7.26-3.07-1.27-20-8.51-20.62-8.85,0,0,3.93-19.71,4.57-22.47" transform="translate(20.05 -1.23)" style="fill:none;stroke:#010101;stroke-linecap:round;stroke-linejoin:round;stroke-width:4.214124695199398px"/><path d="M107.17,340.87l-6.82,32.9s15.77,15,20.76,17.58c1.28.68,7.4,3.86,8.68,0,1.19-3.55-3.12-6.66-3.12-6.66s8.79,7.93,12.83,4.52c3.8-3.22-6.46-8.28-6.46-8.28s10.39,6.57,11.62.57c.73-3.55-3.24-5.1-8.44-7.26-3.06-1.27-20-8.51-20.61-8.84,0,0,3.53-19,4.16-21.72" transform="translate(20.05 -1.23)" style="fill:none;stroke:#010101;stroke-linecap:round;stroke-linejoin:round;stroke-width:4.214124695199398px"/><path d="M20.3,237.18,12,255.37s-19.35,12.21-12.67,18c3.92,3.4,9-3.15,9.06-3.07s-4.83,10.8.46,12.52c6.15,2,9.36-8.29,9.36-8.29s1.53,9.62,7.51,8c6.77-1.86-1.12-21.89-1.12-21.89S29.5,250,31.08,245.7" transform="translate(20.05 -1.23)" style="fill:none;stroke:#010101;stroke-linecap:round;stroke-linejoin:round;stroke-width:4.201777721941253px"/><path d="M169.49,269.06l-1.13,13.71s16.17,16.47,6.15,19.86c-5.07,1.71-9-7.44-9.12-7.4s2.76,11.64-3.3,12.27-8.2-11.68-8.2-11.68" transform="translate(20.05 -1.23)" style="fill:none;stroke:#010101;stroke-linecap:round;stroke-linejoin:round;stroke-width:4.185893283680159px"/><path d="M41.57,156.22c-2.85-21.54,26.72-56,28.94-61.3,7.34-17.45,2.12-45.26,17.35-58.66,4.36-3.83,9.67-3.1,15-2.6,4.15.39,8.86.32,12.18,3.25,8.64,7.64,0,41.1,3.55,44.33,2.89,2.62,19.58,4.69,24,5.47,4.2.74,10.48,2.62,14.7,1.37,2.64-.78,4.28-4.64,6.4-6.31,9.81-7.76,31.85-26,44.69-21.89,5.51,1.79,7.54,3.89,9.8,8.84,1.54,3.38,2.83,6.52,1.51,10.33,0,.11-18,21.67-19.44,22.86-3.24,2.65-9.93,5-10.84,9.59-.64,3.23,7.46,9.72,9.26,12.34,2.32,3.37,1.66,7.3,3.3,10.91,1.17,2.55,3.93,3.1,4.28,6.32a2.6,2.6,0,0,1,0,.4c0,2.15-2.8,2.77-2.62,4.87.27,3.12,2.61,4.83,1.48,8.36-1,3.21-4.43,5.28-6.13,8.14-1.51,2.55-1,6.41-2.89,8.59-2.91,3.39-8.36,4.46-11.5,7.58s-4.55,6.79-6.69,10.32c-5.07,8.38-12.72,12.32-21.91,15.37-4.12,1.37-9.33,1.08-13.59,1.32-4,.22-8.06,1.14-12.1,1-19.72-.59-50.3-10.51-66.18-21.75-4.93-3.5-8.06-8.39-12.09-12.8S42.42,162.62,41.57,156.22Z" transform="translate(20.05 -1.23)" style="fill:#355ca8;fill-rule:evenodd"/><path d="M87.27,73.37c.1,0-.2-.12-.21-.23A18.31,18.31,0,0,1,87.14,70c.39-6.66.47-18.13,7-22.34,14.42-9.29,23.83,20.1,15.35,25.22-2.31,1.39-9.66,1.21-12.48,1.43s-7.52.75-10.29-.69" transform="translate(20.05 -1.23)" style="fill:#e72261;fill-rule:evenodd"/><path d="M65.61,160.17c.12.27-.2-.56-.21-.85a9.33,9.33,0,0,1,.15-1.75,21,21,0,0,1,1.24-5c1.77-4,6.85-6.92,11.1-4.82,8.38,4.15,15.25,11.37,22.91,16.66a77.49,77.49,0,0,0,17,9c4.19,1.51,8.74,2,13.08,2.82,8.32,1.61,16.58,3.43,25.08,3.79a109.32,109.32,0,0,0,16.78-.37c3.79-.43,26.89-7.76,25.19,1.09-.76,4-4.84,3.07-7.66,4.23-1.94.81.1,3.07-1.88,4-2.9,1.37-18.74,2.3-22.3,2.47-7.95.4-16.55,1.47-24.43.33-12.94-1.87-17.56-.54-32.24-3.68-7-1.5-13.13-5.12-19-9.12-7.36-5-31.18-17.76-23.54-28" transform="translate(20.05 -1.23)" style="fill:#e72261;fill-rule:evenodd"/><path d="M74.76,125.05c.25.26,1.61-.25,1.83-.3,9.09-2.1,17.76-8.43,27.37-7.27,7.4.89,14.75,4.49,21.72,7,4.13,1.49,8.77,2.71,12.59,4.92,2.73,1.57,3.79,5.16,6.67,6.36,2.48,1,5.78.85,8.4,1.18,6.69.84,13.32,1.84,20,2.38,6.9.55,24.49-.59,29.44,5.82s.93,13.44-3.82,18.28c-1.7,1.72-3.22,3.58-5.65,4.25-5.82,1.62-12.27.15-18.05-1-9.05-1.81-18-4.09-26.26-8.24-3.38-1.69-5.92-5.43-9.65-6.42-2.11-.57-5.09,1.73-7.2,2.08a20.93,20.93,0,0,1-7.22-.56c-4.46-.86-8.48-2.63-12.7-4.22-15.15-5.67-26.52-12.06-37.4-24.06" transform="translate(20.05 -1.23)" style="fill:#fff;fill-rule:evenodd"/><path d="M94,141a.62.62,0,0,1-.07-.26,21.43,21.43,0,0,1,3.65-7,14.11,14.11,0,0,1,13.74-5.67c3.14.45,7,1.33,9.56,3.32,3,2.34,5.29,9.37,5.16,12.88a29.33,29.33,0,0,1-2.78,10" transform="translate(20.05 -1.23)" style="fill:#010101;fill-rule:evenodd"/><path d="M155.57,162.31c-1.11-3.82.65-8.16,3.31-10.86,10.83-11,32.14-3.36,25.89,12.83-.31.8-.75,3.18-1.49,3.71" transform="translate(20.05 -1.23)" style="fill:#010101;fill-rule:evenodd"/><ellipse cx="179.59" cy="154.17" rx="2.73" ry="2.76" transform="translate(18.89 305.74) rotate(-80.86)" style="fill:#fff"/><ellipse cx="170.03" cy="159.34" rx="1.19" ry="1.22" transform="translate(5.75 300.65) rotate(-80.86)" style="fill:#fff"/><ellipse cx="167.14" cy="149.3" rx="1.67" ry="1.57" transform="translate(13.22 289.36) rotate(-80.86)" style="fill:#fff"/><ellipse cx="118.06" cy="137.37" rx="2.8" ry="2.85" transform="translate(-16.27 230.86) rotate(-80.86)" style="fill:#fff"/><ellipse cx="110.53" cy="142.5" rx="1.36" ry="1.38" transform="translate(-27.67 227.74) rotate(-80.86)" style="fill:#fff"/><ellipse cx="106.59" cy="133.11" rx="1.59" ry="1.51" transform="translate(-21.72 215.95) rotate(-80.86)" style="fill:#fff"/><path d="M73.43,153.42c.48.74.95,1.49,1.49,2.39a16.67,16.67,0,0,0,5.15,4.95c9.84,6.69,18.28,12.69,29.75,16.44,17.1,5.6,37.39,8,55.36,7.83,8.62-.07,13.43-2.25,21.89-.88" transform="translate(20.05 -1.23)" style="fill:none;stroke:#010101;stroke-linecap:square;stroke-linejoin:round;stroke-width:3.22430451185045px"/><path d="M94.36,141.09h-.1c-.2,0-.05-.55,0-.62a15.74,15.74,0,0,1,.66-2,17.83,17.83,0,0,1,3-4.78c3.8-4.53,8.19-6.17,13.93-5.29a16,16,0,0,1,9.9,5.48c5.71,6.39,5.51,12.11,1.75,19.31" transform="translate(20.05 -1.23)" style="fill:none;stroke:#010101;stroke-linecap:round;stroke-linejoin:round;stroke-width:3.22430451185045px"/><path d="M155,160.4c-.54-.36.4-3.63.56-4.11a15.63,15.63,0,0,1,7.66-9c7.84-4,21.85.19,23.38,9.75a13.89,13.89,0,0,1-.82,6c-.62,2-1.31,4.18-2.91,5.68" transform="translate(20.05 -1.23)" style="fill:none;stroke:#010101;stroke-linecap:round;stroke-linejoin:round;stroke-width:3.22430451185045px"/><path d="M175.81,192.19c-6.69,12.09-32.89,16.19-48.16,13.47-8.37-1.48-20.68-3.87-30.17-5.89-22.78-4.84-35.61-15-50.1-34.57-3.21-4.35-6.1-9-6.31-14.53-.47-12.39,10-31,17.46-40,3.4-4.14,7.73-7.75,10.84-12.08A19.8,19.8,0,0,0,72.45,92c.88-3.69,1.5-10,2.18-15.65C76,65.14,76.18,46.23,85.92,38a19.36,19.36,0,0,1,10.22-4.15c4.69-.43,14.63.79,18.37,3.8,7.11,5.74,6.8,40.1.43,47.09-2.78,3-26.34,3.9-30.65,2.49A4.65,4.65,0,0,1,81.76,85C74.62,71,99,73.79,106.09,73.92c1.3,0,4.14-.19,4.35-1.46a54.37,54.37,0,0,0,.37-8.61c-.17-4.32-.85-9.32-3.4-13.09a11.15,11.15,0,0,0-8.25-5c-12.3-1-11.17,21.52-12.34,28.79" transform="translate(20.05 -1.23)" style="fill:none;stroke:#010101;stroke-linecap:round;stroke-linejoin:round;stroke-width:4.299421368087938px"/><path d="M186.09,184c2.36,0,9.27,1.22,11.13-.88,1.46-1.63,1.84-5.07.09-6.39-1-.73-2-.71-3.32-.94a21.78,21.78,0,0,0-6-.09c-7.19,1.2-14.2,4.19-21.51,4.29-13.17.18-47-5.67-58.9-11.18-6.51-3-30.06-24.86-35.83-22.3a11.2,11.2,0,0,0-5.34,5.54,10.68,10.68,0,0,0,.09,8c1.44,3.86,5,6.74,10.41,10.18,6.46,4.06,14.73,9.17,21.47,12.87,4.67,2.56,18,6.46,23.3,7,12,1.22,19.18,2.53,31,1.88,9.29-.5,18.2-.3,27.53-1.46,4-.51,8.37-1.24,9.61-3.26C191.31,185,188,184.29,186.09,184Z" transform="translate(20.05 -1.23)" style="fill:none;stroke:#010101;stroke-linecap:round;stroke-linejoin:round;stroke-width:3.22430451185045px"/><path d="M117.17,82.21c.17-.34,2.45,0,2.78,0,12.7.72,37,5.88,36.91,6-.3-.11,10-10.41,16-14.78,14-10.13,24.43-22.22,40.93-10.13,1.93,1.41,10.27,10.74,4.86,17.68-3,3.89-15.39,16.5-18,20.79-2.41,4-6.86,5-10.3,7.65a4.94,4.94,0,0,0-1.4,2.14c-2.92,7.27,7.08,8.34,10.18,11.76,1.94,2.14,2.26,5.72,2.53,8.46.21,2.18-.07,2.33-.25,4.71" transform="translate(20.05 -1.23)" style="fill:none;stroke:#010101;stroke-linecap:round;stroke-linejoin:round;stroke-width:4.299421368087938px"/><path d="M204.36,138.39c2.27,1.93.56,7.22-1,6.39-5.15-2.66-11.91-4.32-19-5.51-9.06-1.52-19.74-1.84-28.9-2.33-3.4-.18-8.46-.29-13-2,0,0,7.67-2.71,9.5-3.19a50.18,50.18,0,0,1,11.81-1.34,94.86,94.86,0,0,1,16.12.73C191,132.53,202.46,136.79,204.36,138.39Z" transform="translate(20.05 -1.23)" style="fill:none;stroke:#010101;stroke-linecap:round;stroke-linejoin:round;stroke-width:4.299421368087938px"/><path d="M125.45,154.47c2.85.64,6.33,1.15,8.72-.77,3.05-2.46,5.18-6.29,6.82-9.79,6.77-14.46-7.25-17.18-18.93-20.87-7.77-2.45-16.79-5.73-25-5.38-5.12.23-9.39,4-14.19,5.6-1.71.55-6.67.29-8.1,1.33a8.61,8.61,0,0,0,.74,1.18,46.11,46.11,0,0,0,6.21,7.71c6.14,6,13.15,9.48,20.84,13A138.36,138.36,0,0,0,125.45,154.47Z" transform="translate(20.05 -1.23)" style="fill:none;stroke:#010101;stroke-linecap:round;stroke-linejoin:round;stroke-width:4.299421368087938px"/><path d="M137.65,151.05a6.73,6.73,0,0,1,.87.65c4.32,3.11,8.44,6.52,13.42,8.6,3.37,1.4,6.84,2.34,10.28,3.54,9.42,3.27,19,6,29.08,4.72,5-.66,6.54-2,9.44-6.16,4.44-6.43,4.51-10.62,1.82-17.34" transform="translate(20.05 -1.23)" style="fill:none;stroke:#010101;stroke-linecap:round;stroke-linejoin:round;stroke-width:3.22430451185045px"/><path d="M142.93,133.74c-.38.09-.1-.78-.21-1.15a15.17,15.17,0,0,0-1.43-3.28,21.9,21.9,0,0,0-9.41-9,35.36,35.36,0,0,0-9-2.56l-2.84-.55-1.92-.36" transform="translate(20.05 -1.23)" style="fill:none;stroke:#010101;stroke-linecap:square;stroke-linejoin:round;stroke-width:3.22430451185045px"/><path d="M137.63,153.56s-1.92,4.68-3.33,5.87c-8.24,6.92-19.79,3.44-29.4,1.89" transform="translate(20.05 -1.23)" style="fill:none;stroke:#010101;stroke-linecap:square;stroke-linejoin:round;stroke-width:3.22430451185045px"/><path d="M195.29,167.61c-.15.24.58,0,.83.09,1.35.55,1.26,1.35.38,2.77-3.75,6.12-25.89,1.85-31.72.91" transform="translate(20.05 -1.23)" style="fill:none;stroke:#010101;stroke-linecap:round;stroke-linejoin:round;stroke-width:3.22430451185045px"/><path d="M163,168.57s.45,1.37.55,1.61a27,27,0,0,1,1.08,4.55" transform="translate(20.05 -1.23)" style="fill:none;stroke:#010101;stroke-linecap:square;stroke-linejoin:round;stroke-width:3.22430451185045px"/></g></svg>
