<svg width="256" height="256" viewBox="0 0 256 256" fill="none" xmlns="http://www.w3.org/2000/svg">
<path d="M147.103 127.832C147.103 127.832 146.56 104.757 158.097 91.0241C169.635 77.2915 184.475 66.8411 193.818 60.2567C203.161 53.6723 216.35 45.4166 214.699 33.6171C213.048 21.7974 203.826 13.9646 163.715 13.9646C123.605 13.9646 96.0189 17.6897 70.4667 31.1404C44.9144 44.5911 55.7474 61.9883 66.6207 64.9282C76.2255 67.5257 88.4479 68.5727 98.1332 78.9024C115.712 97.6286 113.859 126.463 113.859 126.463L147.103 127.832Z" fill="url(#paint0_radial_288_1763)"/>
<path d="M81.1586 137.175C81.1586 137.175 49.8475 180.588 41.5919 191.3C33.3362 202.012 16.3215 219.591 17.429 221.785C18.5365 223.98 31.4435 229.195 31.4435 229.195C31.4435 229.195 96.8242 238.538 102.039 238.538C107.255 238.538 214.397 208.053 214.397 208.053C214.397 208.053 176.763 127.55 164.662 132.222C152.56 136.893 81.1586 137.175 81.1586 137.175V137.175Z" fill="#717578"/>
<path d="M132.263 162.989C132.263 162.989 122.92 171.225 118.531 175.634C114.141 180.044 101.838 189.931 103.429 191.562C104.738 192.911 123.303 184.474 125.236 183.507C126.887 182.682 147.385 175.07 148.754 177.004C150.124 178.937 144.163 183.507 142.17 186.346C140.317 188.984 107.597 221.946 99.8648 223.98C94.3073 225.45 60.5799 227.282 59.4725 224.524C58.365 221.785 71.5539 203.099 68.2718 200.341C64.9695 197.602 51.4987 206.442 43.5451 211.113C35.5915 215.785 23.2281 221.765 21.2951 222.047C19.3621 222.329 17.4492 221.765 17.4492 221.765C17.4492 221.765 16.8652 225.208 33.9403 233.021C47.391 239.183 58.3851 244.841 95.2134 248.405C132.042 251.969 158.399 248.687 173.783 246.472C189.167 244.277 217.458 235.478 224.888 232.196C232.298 228.893 238.036 225.49 237.251 223.134C236.969 222.309 194.12 165.446 194.12 165.446L171.004 131.134L132.263 162.989Z" fill="#474B4E"/>
<path d="M105.261 106.81C96.7036 108.079 93.6631 117.784 84.7631 129.101C79.6285 135.625 75.2389 140.055 72.8025 143.035C70.064 146.397 66.4396 153.324 70.064 155.277C73.6884 157.23 79.2862 151.391 80.8165 148.169C82.3267 144.968 84.5819 141.686 86.6961 143.941C88.8104 146.196 88.9513 150.122 83.5348 154.653C78.0982 159.184 71.7554 164.459 72.3595 169.151C72.9635 173.842 76.1249 175.191 79.7493 174.124C83.3737 173.077 92.1328 162.949 95.4552 157.975C98.7776 153.002 104.053 144.384 107.678 144.384C111.302 144.384 111.242 151.935 104.053 160.392C95.7572 170.158 91.7099 173.54 81.8635 182.44C71.6346 191.663 72.9635 194.965 74.7758 196.777C76.588 198.589 81.7226 199.032 89.1124 192.71C96.5022 186.367 106.933 174.446 111.463 169.151C115.994 163.875 120.061 158.136 124.753 158.439C129.444 158.741 128.216 163.412 128.82 165.687C129.424 167.943 129.424 172.171 135.002 172.171C140.579 172.171 143.6 166.432 145.412 161.902C147.224 157.371 147.063 151.331 150.688 150.727C154.312 150.122 154.755 153.747 157.634 159.486C160.494 165.224 171.528 189.065 174.246 193.293C176.965 197.522 179.985 205.516 188.885 202.798C197.785 200.079 186.328 183.628 183.609 179.541C180.891 175.473 173.038 161.721 170.018 152.519C166.997 143.317 166.997 140.437 168.971 138.927C170.924 137.417 174.246 141.645 178.636 149.8C183.005 157.955 186.791 165.506 190.254 168.527C193.718 171.547 196.738 171.245 198.248 169.876C199.758 168.527 200.362 163.392 196.436 159.465C192.509 155.539 188.059 150.102 183.851 143.941C179.2 137.115 172.595 126.08 168.971 119.738C165.346 113.395 163.272 109.046 158.339 108.28C151.956 107.294 147.365 112.066 143.741 114.623C140.116 117.18 135.143 118.55 130.149 118.248C125.176 117.946 118.531 112.509 115.812 110.093C113.114 107.717 110.396 106.065 105.261 106.81V106.81Z" fill="url(#paint1_radial_288_1763)"/>
<path d="M109.711 114.986C109.711 114.986 113.134 115.71 115.631 117.583C118.128 119.456 124.269 124.47 132.263 124.349C140.257 124.248 144.707 120.402 147.929 118.529C151.151 116.657 154.151 116.979 154.151 116.979C154.151 116.979 148.734 138.101 132.646 138.726C111.604 139.551 109.711 114.986 109.711 114.986V114.986Z" fill="#EC5F32"/>
<path d="M209.746 117.845C206.806 118.268 208.336 122.476 208.759 132.423C209.182 142.37 209.081 146.558 213.813 146.579C219.733 146.599 217.88 134.094 216.753 130.309C215.645 126.523 213.29 117.341 209.746 117.845Z" fill="url(#paint2_radial_288_1763)"/>
<path d="M209.041 69.3378C207.752 71.9151 211.84 74.8147 215.625 79.2848C218.182 82.3253 221.928 89.7957 227.123 90.3595C232.318 90.9233 232.922 84.6812 230.344 81.097C227.827 77.5934 223.478 74.0898 218.565 71.5728C213.672 69.0559 210.028 67.3645 209.041 69.3378V69.3378Z" fill="url(#paint3_radial_288_1763)"/>
<path d="M142.734 44.3696C144.284 45.0743 145.815 44.0877 146.378 41.9936C146.741 40.6042 152.943 30.5363 162.084 24.3345C169.514 19.2805 173.018 19.2805 176.804 17.7501C179.099 16.8038 181.153 13.2599 180.025 10.6019C178.958 8.06484 176.663 7.09833 172.877 7.66213C170.481 8.02457 161.742 10.2596 153.104 19.5825C142.452 31.08 141.888 39.0739 141.606 40.4633C141.324 41.8526 141.244 43.685 142.734 44.3696Z" fill="url(#paint4_radial_288_1763)"/>
<path d="M122.256 45.6379C119.376 46.4031 116.92 42.2752 111.745 36.9393C106.55 31.6033 101.939 30.9187 99.4018 27.6768C96.8647 24.435 97.3077 20.8105 99.5427 18.8372C101.778 16.8841 105.704 16.6022 109.208 19.2601C112.712 21.918 117.202 26.9721 120.423 33.9793C122.175 37.7648 124.934 44.9332 122.256 45.6379V45.6379Z" fill="url(#paint5_radial_288_1763)"/>
<path d="M54.1768 67.0221C52.1431 65.1092 44.0485 68.492 37.8467 73.7072C34.8868 76.1839 31.9067 79.1237 30.6784 82.2045C29.6515 84.8221 29.6918 88.1445 32.1081 89.7554C34.2827 91.2052 36.9406 90.5205 38.7931 89.0909C41.3504 87.0975 43.1223 83.0905 44.6123 80.8755C47.23 77.0095 51.5793 73.3246 53.009 72.0963C54.3178 70.9486 55.7071 68.4518 54.1768 67.0221V67.0221Z" fill="url(#paint6_radial_288_1763)"/>
<path d="M60.8819 119.959C58.5462 119.234 55.0426 121.791 52.1028 133.027C49.5052 142.974 48.6998 151.935 55.2439 152.096C62.1304 152.277 59.2711 142.249 60.0765 133.208C60.8819 124.167 63.2177 120.664 60.8819 119.959Z" fill="url(#paint7_radial_288_1763)"/>
<path d="M60.2577 106.911C64.1036 107.676 66.1172 104.757 66.9025 102.079C67.5267 99.9442 70.1645 88.8292 83.8971 87.5808C97.1867 86.3727 106.691 99.7428 108.06 101.213C109.449 102.683 111.262 102.944 112.288 101.897C113.195 100.991 113.013 99.32 112.107 97.0648C111.161 94.6485 100.187 75.7813 80.6955 78.258C62.231 80.5937 55.848 94.8297 56.0091 100.266C56.15 104.072 57.2373 106.307 60.2577 106.911Z" fill="url(#paint8_radial_288_1763)"/>
<path d="M147.808 104.475C150.305 105.3 151.473 102.521 152.379 101.213C153.285 99.9038 158.097 90.6817 166.655 86.2719C175.233 81.8622 181.676 81.379 189.751 85.0437C194.04 86.9968 197.06 92.2724 198.892 95.4941C201.349 99.8233 204.772 100.971 208.034 99.1588C211.296 97.3667 211.779 91.9704 206.967 85.5269C203.081 80.3118 194.382 71.4118 178.958 72.9622C154.392 75.4188 147.768 96.9439 147.123 98.9977C146.419 101.374 146.097 103.911 147.808 104.475V104.475Z" fill="url(#paint9_radial_288_1763)"/>
<path d="M135.968 109.126C138.525 109.388 139.19 108.26 139.895 103.83C141.506 93.8631 143.982 75.0362 157.191 59.8136C167.622 47.7926 179.361 49.2423 184.536 52.464C189.066 55.283 190.174 57.9812 192.006 59.9344C193.838 61.8876 197.523 64.2233 200.825 61.8876C203.584 59.9545 204.269 55.0213 199.476 49.6249C194.684 44.2285 189.791 39.8188 177.77 38.8321C165.749 37.8455 153.869 45.5776 147.486 54.9005C141.103 64.2233 136.451 77.4525 134.982 86.4129C133.512 95.3733 133.391 103.327 133.391 105.179C133.391 107.012 133.874 108.905 135.968 109.126V109.126Z" fill="url(#paint10_radial_288_1763)"/>
<path d="M125.719 109.146C128.397 108.743 128.78 106.69 128.417 103.508C128.055 100.327 125.659 82.8288 120.866 69.217C116.094 55.6052 108.865 42.9197 94.7503 40.2819C80.6553 37.6442 69.4397 47.5509 67.8691 49.1819C65.4125 51.7392 62.8553 56.008 65.9159 59.4512C68.9766 62.8944 73.9299 60.2163 77.1114 56.7731C80.2928 53.3299 85.6489 48.6383 94.3677 51.3365C103.066 54.0347 107.194 62.1896 111 69.9218C114.806 77.6539 117.826 88.7889 119.417 94.6686C121.007 100.548 122.014 105.2 122.638 106.931C123.263 108.542 124.491 109.327 125.719 109.146V109.146Z" fill="url(#paint11_radial_288_1763)"/>
<defs>
<radialGradient id="paint0_radial_288_1763" cx="0" cy="0" r="1" gradientUnits="userSpaceOnUse" gradientTransform="translate(132.074 130.404) scale(106.534)">
<stop offset="0.174" stop-color="#E79F68"/>
<stop offset="0.278" stop-color="#E6A272"/>
<stop offset="0.453" stop-color="#E3AB8D"/>
<stop offset="0.531" stop-color="#E2AF9B"/>
<stop offset="0.783" stop-color="#E1D1CC"/>
<stop offset="0.883" stop-color="#E0E0E0"/>
</radialGradient>
<radialGradient id="paint1_radial_288_1763" cx="0" cy="0" r="1" gradientUnits="userSpaceOnUse" gradientTransform="translate(129.489 90.1663) rotate(90) scale(101.003 147.07)">
<stop offset="0.39" stop-color="#CB2D30"/>
<stop offset="0.492" stop-color="#D23730"/>
<stop offset="0.665" stop-color="#E45231"/>
<stop offset="0.715" stop-color="#EA5B31"/>
<stop offset="0.792" stop-color="#EA6032"/>
<stop offset="0.887" stop-color="#EC6F36"/>
<stop offset="0.967" stop-color="#ED823A"/>
</radialGradient>
<radialGradient id="paint2_radial_288_1763" cx="0" cy="0" r="1" gradientUnits="userSpaceOnUse" gradientTransform="translate(205.243 111.711) scale(24.6602)">
<stop offset="0.045" stop-color="#CB2D30"/>
<stop offset="0.344" stop-color="#D23730"/>
<stop offset="0.851" stop-color="#E45231"/>
<stop offset="1" stop-color="#EA5B31"/>
</radialGradient>
<radialGradient id="paint3_radial_288_1763" cx="0" cy="0" r="1" gradientUnits="userSpaceOnUse" gradientTransform="translate(201.993 65.361) scale(31.6655)">
<stop offset="0.294" stop-color="#CB2D30"/>
<stop offset="0.515" stop-color="#D23730"/>
<stop offset="0.89" stop-color="#E45231"/>
<stop offset="1" stop-color="#EA5B31"/>
</radialGradient>
<radialGradient id="paint4_radial_288_1763" cx="0" cy="0" r="1" gradientUnits="userSpaceOnUse" gradientTransform="translate(141.018 56.4188) scale(47.7197)">
<stop offset="0.045" stop-color="#CB2D30"/>
<stop offset="0.344" stop-color="#D23730"/>
<stop offset="0.851" stop-color="#E45231"/>
<stop offset="1" stop-color="#EA5B31"/>
</radialGradient>
<radialGradient id="paint5_radial_288_1763" cx="0" cy="0" r="1" gradientUnits="userSpaceOnUse" gradientTransform="translate(130.449 54.7916) scale(38.3767)">
<stop offset="0.423" stop-color="#CB2D30"/>
<stop offset="0.604" stop-color="#D23730"/>
<stop offset="0.91" stop-color="#E45231"/>
<stop offset="1" stop-color="#EA5B31"/>
</radialGradient>
<radialGradient id="paint6_radial_288_1763" cx="0" cy="0" r="1" gradientUnits="userSpaceOnUse" gradientTransform="translate(62.1546 60.482) scale(33.3428)">
<stop offset="0.341" stop-color="#CB2D30"/>
<stop offset="0.547" stop-color="#D23730"/>
<stop offset="0.897" stop-color="#E45231"/>
<stop offset="1" stop-color="#EA5B31"/>
</radialGradient>
<radialGradient id="paint7_radial_288_1763" cx="0" cy="0" r="1" gradientUnits="userSpaceOnUse" gradientTransform="translate(61.341 106.825) scale(38.4271)">
<stop offset="0.483" stop-color="#CB2D30"/>
<stop offset="0.645" stop-color="#D23730"/>
<stop offset="0.919" stop-color="#E45231"/>
<stop offset="1" stop-color="#EA5B31"/>
</radialGradient>
<radialGradient id="paint8_radial_288_1763" cx="0" cy="0" r="1" gradientUnits="userSpaceOnUse" gradientTransform="translate(84.4649 92.5403) scale(22.5702)">
<stop offset="0.045" stop-color="#CB2D30"/>
<stop offset="0.344" stop-color="#D23730"/>
<stop offset="0.851" stop-color="#E45231"/>
<stop offset="1" stop-color="#EA5B31"/>
</radialGradient>
<radialGradient id="paint9_radial_288_1763" cx="0" cy="0" r="1" gradientUnits="userSpaceOnUse" gradientTransform="translate(178.559 88.7064) scale(25.2724)">
<stop offset="0.045" stop-color="#CB2D30"/>
<stop offset="0.344" stop-color="#D23730"/>
<stop offset="0.851" stop-color="#E45231"/>
<stop offset="1" stop-color="#EA5B31"/>
</radialGradient>
<radialGradient id="paint10_radial_288_1763" cx="0" cy="0" r="1" gradientUnits="userSpaceOnUse" gradientTransform="translate(101.18 70.2399) scale(84.7453)">
<stop offset="0.394" stop-color="#CB2D30"/>
<stop offset="0.584" stop-color="#D23730"/>
<stop offset="0.906" stop-color="#E45231"/>
<stop offset="1" stop-color="#EA5B31"/>
</radialGradient>
<radialGradient id="paint11_radial_288_1763" cx="0" cy="0" r="1" gradientUnits="userSpaceOnUse" gradientTransform="translate(152.399 94.6303) scale(81.1471)">
<stop offset="0.42" stop-color="#CB2D30"/>
<stop offset="0.602" stop-color="#D23730"/>
<stop offset="0.91" stop-color="#E45231"/>
<stop offset="1" stop-color="#EA5B31"/>
</radialGradient>
</defs>
</svg>
