<?xml version="1.0" encoding="UTF-8"?>
<svg xmlns="http://www.w3.org/2000/svg" xmlns:xlink="http://www.w3.org/1999/xlink" width="256px" height="256px" viewBox="0 0 256 256" version="1.1">
<defs>
<clipPath id="clip1">
  <path d="M 113 73 L 221 73 L 221 182 L 113 182 Z M 113 73 "/>
</clipPath>
<clipPath id="clip2">
  <path d="M 113.847656 73.558594 C 115.554688 78.425781 117.261719 83.296875 118.96875 88.175781 C 124.894531 85.597656 131.074219 83.644531 137.40625 82.347656 C 143.496094 81.082031 149.695312 80.453125 155.914062 80.46875 C 161.144531 80.480469 166.371094 80.878906 171.546875 81.664062 C 173.476562 81.957031 174.988281 83.484375 175.261719 85.417969 C 175.535156 87.351562 174.503906 89.238281 172.726562 90.050781 C 168.613281 91.921875 164.644531 94.09375 160.851562 96.554688 L 167.472656 96.554688 C 170.6875 96.660156 173.75 97.941406 176.082031 100.160156 C 179.066406 102.90625 180.191406 107.1875 179.785156 111.125 C 179.15625 113.902344 177.953125 116.671875 175.757812 118.570312 C 174.394531 119.9375 172.558594 120.613281 170.804688 121.308594 C 169.304688 121.878906 167.71875 121.851562 166.140625 121.824219 C 165.644531 121.824219 165.152344 121.824219 164.664062 121.824219 C 162.4375 121.824219 160.203125 121.824219 157.972656 121.824219 C 154.851562 121.824219 151.726562 121.824219 148.585938 121.851562 C 148.316406 131.878906 145.644531 141.699219 140.800781 150.480469 C 142.484375 155.273438 144.179688 160.054688 145.839844 164.855469 C 147.585938 170.046875 149.621094 175.152344 151.152344 180.414062 C 151.304688 179.550781 151.378906 178.675781 151.371094 177.796875 C 151.289062 167.957031 151.273438 158.121094 151.226562 148.289062 C 153.679688 148.289062 156.132812 148.289062 158.585938 148.289062 C 162.21875 148.289062 165.839844 148.289062 169.484375 148.320312 C 175.675781 159.472656 182.003906 170.546875 188.203125 181.691406 C 199.035156 181.707031 209.867188 181.707031 220.699219 181.691406 C 213.382812 168.890625 206.09375 156.066406 198.832031 143.21875 L 199.257812 142.769531 C 199.09375 142.824219 198.777344 142.929688 198.613281 142.988281 C 197.59375 140.992188 196.4375 139.0625 195.332031 137.109375 C 202.035156 132.382812 207.113281 125.214844 208.804688 117.140625 C 210.359375 109.933594 209.257812 102.328125 206.484375 95.558594 C 203.84375 89.40625 199.007812 84.46875 193.722656 80.507812 C 188.441406 76.667969 182.203125 73.5625 175.554688 73.542969 L 113.847656 73.542969 "/>
</clipPath>
<clipPath id="clip3">
  <path d="M 70 111 L 138 111 L 138 167 L 70 167 Z M 70 111 "/>
</clipPath>
<clipPath id="clip4">
  <path d="M 133.546875 133.925781 C 133.566406 133.738281 133.585938 133.550781 133.601562 133.367188 C 133.601562 133.3125 133.601562 133.265625 133.601562 133.214844 C 133.601562 132.96875 133.632812 132.730469 133.640625 132.488281 C 133.644531 132.453125 133.644531 132.414062 133.640625 132.378906 C 133.640625 132.179688 133.640625 131.988281 133.640625 131.796875 C 133.640625 131.605469 133.640625 131.339844 133.640625 131.113281 C 133.640625 130.886719 133.640625 130.753906 133.613281 130.574219 C 133.617188 130.558594 133.617188 130.542969 133.613281 130.53125 C 133.613281 130.46875 133.613281 130.414062 133.613281 130.355469 C 133.613281 130.296875 133.613281 130.128906 133.589844 130.019531 C 133.589844 129.984375 133.589844 129.945312 133.589844 129.910156 C 133.589844 129.773438 133.5625 129.632812 133.546875 129.484375 C 133.53125 129.335938 133.515625 129.171875 133.496094 129.019531 C 133.496094 128.976562 133.496094 128.9375 133.496094 128.894531 C 133.496094 128.710938 133.453125 128.535156 133.421875 128.351562 L 133.421875 128.246094 C 133.371094 127.9375 133.320312 127.625 133.261719 127.316406 C 133.230469 127.140625 133.191406 126.972656 133.160156 126.800781 C 133.078125 126.410156 132.984375 126.011719 132.890625 125.625 L 132.683594 124.851562 C 132.675781 124.820312 132.667969 124.792969 132.664062 124.761719 C 132.566406 124.425781 132.46875 124.085938 132.363281 123.757812 C 132.308594 123.59375 132.257812 123.425781 132.203125 123.253906 L 132.035156 122.761719 C 131.921875 122.425781 131.804688 122.097656 131.683594 121.773438 C 131.558594 121.449219 131.488281 121.257812 131.386719 121 C 130.773438 119.257812 129.449219 117.652344 129.726562 115.710938 C 129.847656 115.476562 130.082031 115.007812 130.199219 114.773438 C 133.027344 115.460938 133.789062 118.796875 134.800781 121.136719 C 134.847656 121.351562 134.886719 121.5625 134.925781 121.796875 C 134.921875 121.804688 134.921875 121.816406 134.925781 121.824219 C 134.953125 122.019531 134.988281 122.214844 135.023438 122.402344 C 135.058594 122.589844 135.085938 122.828125 135.121094 123.015625 C 135.140625 123.152344 135.160156 123.28125 135.179688 123.414062 C 135.179688 123.457031 135.179688 123.496094 135.179688 123.535156 C 135.207031 123.691406 135.222656 123.847656 135.242188 124.003906 C 135.257812 124.15625 135.28125 124.359375 135.296875 124.539062 C 135.308594 124.71875 135.332031 124.847656 135.34375 125 C 135.34375 125.035156 135.34375 125.058594 135.34375 125.09375 C 135.34375 125.128906 135.34375 125.140625 135.34375 125.167969 C 135.34375 125.269531 135.34375 125.371094 135.34375 125.472656 C 135.34375 125.472656 135.34375 125.503906 135.34375 125.511719 C 135.34375 125.671875 135.363281 125.824219 135.367188 125.980469 L 135.367188 126.019531 C 135.367188 126.242188 135.367188 126.46875 135.367188 126.695312 C 135.367188 126.921875 135.367188 127.074219 135.367188 127.257812 C 135.367188 127.441406 135.367188 127.523438 135.367188 127.65625 C 135.367188 127.914062 135.335938 128.179688 135.308594 128.441406 C 135.308594 128.570312 135.277344 128.703125 135.265625 128.835938 C 135.222656 129.128906 135.179688 129.421875 135.128906 129.714844 C 135.128906 129.757812 135.128906 129.804688 135.128906 129.851562 C 135.101562 130.015625 135.074219 130.175781 135.042969 130.339844 L 134.980469 130.667969 C 134.925781 130.949219 134.867188 131.234375 134.800781 131.519531 C 134.800781 131.550781 134.800781 131.585938 134.78125 131.613281 C 134.714844 131.902344 134.644531 132.191406 134.570312 132.46875 C 134.539062 132.570312 134.519531 132.671875 134.488281 132.769531 C 134.460938 132.867188 134.402344 133.085938 134.355469 133.238281 C 134.210938 133.742188 134.054688 134.238281 133.875 134.730469 C 133.695312 135.21875 133.40625 135.765625 133.183594 136.28125 C 133.34375 135.492188 133.484375 134.703125 133.5625 133.902344 M 126.507812 113.65625 C 125.308594 114.035156 124.136719 114.507812 122.964844 114.957031 L 122.027344 115.199219 C 121.230469 115.46875 120.449219 115.761719 119.65625 116.054688 C 119.828125 117.175781 120.082031 118.277344 120.332031 119.382812 C 120.523438 120.210938 120.664062 121.050781 120.757812 121.898438 L 120.8125 122.410156 C 120.851562 123.265625 120.886719 124.117188 120.894531 124.945312 C 120.894531 125.558594 120.894531 126.175781 120.894531 126.792969 C 121.839844 126.960938 122.714844 127.394531 123.425781 128.039062 C 124.515625 129.019531 125.136719 130.414062 125.132812 131.878906 C 125.132812 132.140625 125.113281 132.402344 125.074219 132.664062 C 124.847656 134.132812 123.996094 135.429688 122.746094 136.226562 C 121.492188 137.027344 119.957031 137.246094 118.53125 136.832031 C 118.335938 137.347656 118.136719 137.863281 117.925781 138.378906 L 117.558594 138.976562 C 117.152344 139.648438 116.777344 140.328125 116.394531 141 C 116.292969 141.160156 116.1875 141.316406 116.085938 141.472656 C 115.625 142.136719 115.15625 142.796875 114.648438 143.433594 L 114.464844 143.640625 C 112.925781 145.308594 111.160156 146.761719 109.226562 147.949219 L 108.609375 148.308594 C 107.882812 148.707031 107.160156 149.097656 106.417969 149.46875 C 105.566406 149.839844 104.710938 150.199219 103.859375 150.527344 C 100.292969 151.898438 96.515625 152.800781 92.683594 152.316406 C 91.472656 152.125 90.28125 151.824219 89.121094 151.414062 C 88.5 151.199219 87.894531 150.953125 87.300781 150.667969 C 86.535156 150.277344 85.792969 149.855469 85.070312 149.390625 L 83.789062 148.535156 L 83.464844 148.328125 C 82.410156 147.285156 81.417969 146.191406 80.28125 145.214844 C 79.527344 144.007812 78.644531 142.894531 77.796875 141.746094 C 76.84375 142.800781 75.871094 143.84375 74.921875 144.90625 C 73.371094 146.617188 71.949219 148.445312 70.675781 150.375 C 71.160156 151.042969 71.632812 151.730469 72.101562 152.414062 C 72.917969 153.578125 73.808594 154.691406 74.769531 155.742188 C 76.003906 157.105469 77.335938 158.378906 78.753906 159.546875 C 79.882812 160.457031 81.066406 161.296875 82.296875 162.066406 L 82.667969 162.292969 C 84.257812 163.242188 85.925781 164.050781 87.660156 164.707031 C 90.195312 165.652344 92.851562 166.242188 95.550781 166.464844 C 100.015625 166.792969 104.503906 166.28125 108.777344 164.945312 C 112.960938 163.652344 116.910156 161.691406 120.46875 159.140625 C 123.378906 157.066406 126.015625 154.628906 128.3125 151.890625 C 129.1875 150.84375 130.019531 149.753906 130.789062 148.636719 C 132.269531 146.507812 133.554688 144.253906 134.628906 141.898438 C 135.289062 140.484375 135.835938 139.027344 136.273438 137.53125 C 136.742188 135.957031 137.09375 134.347656 137.328125 132.722656 C 137.6875 130.199219 137.714844 127.640625 137.40625 125.113281 C 137.320312 124 137.148438 122.894531 136.894531 121.808594 C 136.769531 121.21875 136.617188 120.640625 136.46875 120.058594 C 135.613281 117.15625 134.453125 114.347656 133.007812 111.683594 C 130.835938 112.320312 128.675781 112.988281 126.511719 113.660156 "/>
</clipPath>
</defs>
<g id="surface1">
<rect x="0" y="0" width="256" height="256" style="fill:rgb(100%,100%,100%);fill-opacity:1;stroke:none;"/>
<path style=" stroke:none;fill-rule:nonzero;fill:rgb(1.176471%,1.176471%,1.176471%);fill-opacity:1;" d="M 62.652344 169.167969 L 51.199219 206.253906 L 75.285156 173.003906 C 75.285156 173.003906 70.503906 170.125 62.632812 169.164062 "/>
<path style=" stroke:none;fill-rule:nonzero;fill:rgb(1.176471%,1.176471%,1.176471%);fill-opacity:1;" d="M 121.890625 96.546875 C 121.414062 95.148438 120.925781 93.757812 120.433594 92.367188 C 126.171875 89.851562 132.15625 87.949219 138.292969 86.6875 C 148.996094 84.414062 160.089844 84.421875 170.882812 86.042969 C 164.617188 88.859375 158.695312 92.386719 153.234375 96.554688 C 142.78125 96.554688 132.335938 96.554688 121.890625 96.554688 "/>
<path style=" stroke:none;fill-rule:nonzero;fill:rgb(1.176471%,1.176471%,1.176471%);fill-opacity:1;" d="M 133.582031 129.902344 C 133.460938 129.597656 133.335938 129.28125 133.234375 128.960938 C 132.503906 126.707031 131.667969 124.488281 130.921875 122.238281 L 130.792969 122.261719 C 130.792969 122.140625 130.792969 121.890625 130.792969 121.769531 L 131.648438 121.769531 C 131.773438 122.09375 131.886719 122.421875 132.003906 122.757812 L 132.167969 123.25 C 132.222656 123.421875 132.273438 123.589844 132.332031 123.753906 C 132.433594 124.082031 132.53125 124.421875 132.628906 124.757812 C 132.632812 124.789062 132.640625 124.816406 132.652344 124.847656 L 132.855469 125.621094 C 132.949219 126.007812 133.042969 126.402344 133.125 126.796875 C 133.164062 126.96875 133.195312 127.136719 133.226562 127.3125 C 133.285156 127.625 133.335938 127.933594 133.390625 128.242188 L 133.390625 128.34375 C 133.417969 128.527344 133.445312 128.707031 133.460938 128.890625 C 133.464844 128.933594 133.464844 128.972656 133.460938 129.015625 C 133.484375 129.167969 133.5 129.328125 133.511719 129.480469 C 133.523438 129.632812 133.542969 129.757812 133.554688 129.90625 "/>
<path style=" stroke:none;fill-rule:nonzero;fill:rgb(1.176471%,1.176471%,1.176471%);fill-opacity:1;" d="M 144.214844 121.835938 C 143.980469 129.753906 142.136719 137.539062 138.792969 144.722656 C 137.941406 142.324219 137.109375 139.925781 136.292969 137.527344 C 135.726562 135.847656 135.15625 134.171875 134.585938 132.492188 C 134.660156 132.207031 134.734375 131.921875 134.796875 131.640625 C 134.796875 131.609375 134.796875 131.578125 134.816406 131.546875 C 134.882812 131.265625 134.941406 130.972656 134.996094 130.691406 L 135.0625 130.363281 C 135.089844 130.203125 135.117188 130.039062 135.148438 129.878906 C 135.148438 129.832031 135.148438 129.785156 135.148438 129.742188 C 135.199219 129.445312 135.242188 129.15625 135.28125 128.859375 C 135.28125 128.730469 135.3125 128.597656 135.324219 128.464844 C 135.351562 128.203125 135.367188 127.941406 135.386719 127.679688 C 135.386719 127.546875 135.386719 127.414062 135.386719 127.28125 C 135.386719 127.152344 135.386719 126.90625 135.386719 126.71875 C 135.386719 126.53125 135.386719 126.269531 135.386719 126.046875 L 135.386719 126.007812 C 135.386719 125.847656 135.386719 125.695312 135.359375 125.539062 C 135.359375 125.539062 135.359375 125.511719 135.359375 125.5 C 135.359375 125.398438 135.359375 125.296875 135.359375 125.191406 C 135.359375 125.167969 135.359375 125.144531 135.359375 125.121094 C 135.359375 125.09375 135.359375 125.058594 135.359375 125.027344 C 135.359375 124.871094 135.335938 124.71875 135.3125 124.566406 C 135.292969 124.410156 135.277344 124.207031 135.257812 124.027344 C 135.234375 123.847656 135.222656 123.714844 135.199219 123.5625 C 135.199219 123.519531 135.199219 123.480469 135.199219 123.4375 C 135.175781 123.308594 135.160156 123.179688 135.136719 123.042969 C 135.105469 122.835938 135.074219 122.636719 135.039062 122.425781 C 135.007812 122.21875 134.972656 122.042969 134.941406 121.851562 C 134.941406 121.84375 134.941406 121.832031 134.941406 121.820312 L 136.953125 121.820312 C 139.382812 121.820312 141.816406 121.820312 144.246094 121.851562 "/>
<path style=" stroke:none;fill-rule:nonzero;fill:rgb(86.666667%,0%,0%);fill-opacity:1;" d="M 113.847656 73.558594 C 115.554688 78.425781 117.261719 83.296875 118.96875 88.175781 C 124.894531 85.597656 131.074219 83.644531 137.40625 82.347656 C 143.496094 81.082031 149.695312 80.453125 155.914062 80.46875 C 161.144531 80.480469 166.371094 80.878906 171.546875 81.664062 C 173.476562 81.957031 174.988281 83.484375 175.261719 85.417969 C 175.535156 87.351562 174.503906 89.238281 172.726562 90.050781 C 168.613281 91.921875 164.644531 94.09375 160.851562 96.554688 L 167.472656 96.554688 C 170.6875 96.660156 173.75 97.941406 176.082031 100.160156 C 179.066406 102.90625 180.191406 107.1875 179.785156 111.125 C 179.15625 113.902344 177.953125 116.671875 175.757812 118.570312 C 174.394531 119.9375 172.558594 120.613281 170.804688 121.308594 C 169.304688 121.878906 167.71875 121.851562 166.140625 121.824219 C 165.644531 121.824219 165.152344 121.824219 164.664062 121.824219 C 162.4375 121.824219 160.203125 121.824219 157.972656 121.824219 C 154.851562 121.824219 151.726562 121.824219 148.585938 121.851562 C 148.316406 131.878906 145.644531 141.699219 140.800781 150.480469 C 142.484375 155.273438 144.179688 160.054688 145.839844 164.855469 C 147.585938 170.046875 149.621094 175.152344 151.152344 180.414062 C 151.304688 179.550781 151.378906 178.675781 151.371094 177.796875 C 151.289062 167.957031 151.273438 158.121094 151.226562 148.289062 C 153.679688 148.289062 156.132812 148.289062 158.585938 148.289062 C 162.21875 148.289062 165.839844 148.289062 169.484375 148.320312 C 175.675781 159.472656 182.003906 170.546875 188.203125 181.691406 C 199.035156 181.707031 209.867188 181.707031 220.699219 181.691406 C 213.382812 168.890625 206.09375 156.066406 198.832031 143.21875 L 199.257812 142.769531 C 199.09375 142.824219 198.777344 142.929688 198.613281 142.988281 C 197.59375 140.992188 196.4375 139.0625 195.332031 137.109375 C 202.035156 132.382812 207.113281 125.214844 208.804688 117.140625 C 210.359375 109.933594 209.257812 102.328125 206.484375 95.558594 C 203.84375 89.40625 199.007812 84.46875 193.722656 80.507812 C 188.441406 76.667969 182.203125 73.5625 175.554688 73.542969 L 113.847656 73.542969 "/>
<g clip-path="url(#clip1)" clip-rule="nonzero">
<g clip-path="url(#clip2)" clip-rule="nonzero">
<path style=" stroke:none;fill-rule:nonzero;fill:rgb(86.666667%,0%,0%);fill-opacity:1;" d="M 256 87.707031 L 205.867188 217.753906 L 77.363281 167.554688 L 127.5 37.511719 Z M 256 87.707031 "/>
</g>
</g>
<path style=" stroke:none;fill-rule:nonzero;fill:rgb(1.176471%,1.176471%,1.176471%);fill-opacity:1;" d="M 51.554688 168.984375 L 52.40625 168.929688 C 47.851562 170.441406 43.296875 171.957031 38.78125 173.558594 C 52.027344 140.363281 65.230469 107.144531 78.378906 73.902344 C 86.863281 73.863281 95.355469 73.882812 103.84375 73.902344 C 103.925781 73.988281 104.097656 74.164062 104.1875 74.25 C 106.324219 80.257812 108.46875 86.261719 110.621094 92.261719 C 106.414062 94.566406 102.359375 97.140625 98.484375 99.96875 C 87.570312 107.054688 79.765625 115.679688 75.09375 121.726562 L 74.742188 121.636719 C 74.394531 121.550781 74.039062 121.503906 73.679688 121.5 C 72.039062 121.503906 70.535156 122.414062 69.773438 123.867188 L 69.050781 125.234375 C 67.394531 124.609375 65.523438 125.042969 64.308594 126.332031 C 62.296875 128.480469 60.480469 130.804688 58.878906 133.277344 L 58.839844 133.328125 C 53.199219 142.074219 49.191406 152.296875 46.894531 163.71875 C 46.636719 165.011719 46.96875 166.355469 47.800781 167.375 C 48.636719 168.398438 49.882812 168.996094 51.199219 169.003906 C 51.3125 169.007812 51.425781 169.007812 51.535156 169.003906 "/>
<path style=" stroke:none;fill-rule:nonzero;fill:rgb(1.176471%,1.176471%,1.176471%);fill-opacity:1;" d="M 132.882812 154.523438 C 130.125 158.171875 126.828125 161.386719 123.109375 164.050781 C 120.753906 165.652344 118.335938 167.273438 115.625 168.230469 C 114.109375 168.691406 112.738281 169.589844 111.136719 169.800781 C 111.113281 169.898438 111.058594 170.09375 111.035156 170.191406 L 110.992188 170.34375 L 110.625 170.421875 C 110.011719 168.597656 109.390625 166.769531 108.769531 164.945312 C 107.132812 160.136719 105.5 155.332031 103.867188 150.527344 C 100.421875 140.382812 96.972656 130.246094 93.523438 120.105469 C 92.875 118.355469 92.402344 116.546875 91.660156 114.828125 C 88.75 124.523438 85.820312 134.210938 82.871094 143.894531 C 87.101562 143.21875 91.277344 142.253906 95.5 141.554688 C 93.371094 144.835938 91.246094 148.121094 89.128906 151.414062 L 82.304688 162.082031 L 77.695312 169.285156 L 77.457031 169.167969 C 69.484375 164.84375 60.132812 163.921875 51.210938 164.605469 C 53.246094 154.4375 56.890625 144.480469 62.527344 135.742188 C 63.992188 133.484375 65.652344 131.359375 67.484375 129.386719 C 66.988281 131.390625 66.699219 133.4375 66.632812 135.5 C 66.636719 136.28125 66.910156 137.035156 67.410156 137.632812 C 69.542969 133.792969 71.613281 129.855469 73.667969 125.9375 C 73.71875 125.9375 73.835938 125.984375 73.886719 125.996094 C 73.492188 127.804688 73.4375 129.667969 73.722656 131.5 C 75.761719 128.136719 78.0625 124.9375 80.601562 121.933594 C 86.429688 114.839844 93.292969 108.671875 100.960938 103.628906 C 104.53125 101.019531 108.257812 98.636719 112.125 96.496094 C 114.855469 104.125 117.589844 111.761719 120.316406 119.398438 C 121.34375 122.28125 122.367188 125.167969 123.390625 128.054688 C 122.683594 127.410156 121.804688 126.980469 120.863281 126.808594 C 120.550781 126.75 120.234375 126.71875 119.917969 126.71875 C 117.171875 126.730469 114.914062 128.886719 114.773438 131.628906 C 114.636719 134.371094 116.671875 136.742188 119.402344 137.027344 C 122.132812 137.308594 124.609375 135.40625 125.039062 132.691406 C 125.238281 133.273438 125.464844 133.84375 125.648438 134.398438 L 125.800781 134.5 C 126.222656 136.195312 126.792969 137.851562 127.507812 139.449219 C 128.609375 142.515625 129.707031 145.585938 130.800781 148.652344 C 131.5 150.613281 132.199219 152.574219 132.898438 154.539062 "/>
<path style=" stroke:none;fill-rule:nonzero;fill:rgb(1.176471%,1.176471%,1.176471%);fill-opacity:1;" d="M 142.371094 180.941406 C 132.984375 181.03125 123.597656 180.976562 114.210938 180.96875 C 113.492188 178.855469 112.773438 176.738281 112.054688 174.625 C 112.746094 174.457031 113.386719 174.125 113.921875 173.652344 C 114.5625 173.429688 115.140625 173.179688 115.65625 172.957031 C 116.171875 172.734375 116.566406 172.566406 116.914062 172.457031 L 117.09375 172.398438 C 120.425781 171.226562 123.296875 169.269531 125.597656 167.707031 L 125.671875 167.65625 C 128.988281 165.289062 132 162.519531 134.628906 159.410156 C 137.191406 166.597656 139.773438 173.777344 142.378906 180.949219 "/>
<path style=" stroke:none;fill-rule:nonzero;fill:rgb(100%,100%,100%);fill-opacity:1;" d="M 138.292969 86.6875 C 132.15625 87.949219 126.171875 89.851562 120.433594 92.367188 C 117.605469 93.601562 114.828125 94.976562 112.125 96.472656 C 108.257812 98.613281 104.527344 100.996094 100.960938 103.609375 C 93.292969 108.648438 86.425781 114.820312 80.597656 121.910156 C 78.0625 124.917969 75.761719 128.113281 73.722656 131.476562 C 73.4375 129.648438 73.492188 127.78125 73.886719 125.972656 C 73.835938 125.972656 73.71875 125.929688 73.667969 125.917969 C 71.613281 129.832031 69.554688 133.75 67.410156 137.613281 C 66.910156 137.011719 66.636719 136.257812 66.632812 135.480469 C 66.699219 133.417969 66.984375 131.367188 67.484375 129.367188 C 65.648438 131.335938 63.988281 133.460938 62.523438 135.722656 C 56.886719 144.460938 53.242188 154.414062 51.207031 164.578125 C 60.128906 163.902344 69.476562 164.820312 77.453125 169.148438 L 77.691406 169.261719 C 85.410156 172.875 94.292969 173.375 102.644531 172.191406 C 105.351562 171.839844 107.960938 171.019531 110.617188 170.417969 L 110.984375 170.332031 L 111.027344 170.183594 C 111.046875 170.089844 111.105469 169.894531 111.128906 169.796875 C 112.730469 169.585938 114.117188 168.6875 115.617188 168.222656 C 118.328125 167.269531 120.738281 165.660156 123.101562 164.042969 C 126.820312 161.382812 130.117188 158.167969 132.871094 154.515625 C 135.1875 151.472656 137.164062 148.179688 138.765625 144.703125 C 142.113281 137.53125 143.96875 129.75 144.214844 121.835938 C 144.382812 117.011719 143.621094 112.199219 141.976562 107.660156 C 145.265625 103.511719 149.050781 99.785156 153.253906 96.566406 C 158.714844 92.398438 164.640625 88.871094 170.90625 86.054688 C 160.109375 84.433594 149.019531 84.429688 138.3125 86.699219 M 135.414062 127.28125 C 135.414062 127.414062 135.414062 127.546875 135.414062 127.679688 C 135.414062 127.941406 135.382812 128.203125 135.355469 128.464844 C 135.355469 128.597656 135.324219 128.730469 135.3125 128.859375 C 135.269531 129.15625 135.226562 129.445312 135.175781 129.742188 C 135.175781 129.785156 135.175781 129.832031 135.175781 129.878906 C 135.148438 130.039062 135.121094 130.203125 135.089844 130.363281 L 135.027344 130.691406 C 134.972656 130.976562 134.910156 131.269531 134.847656 131.546875 C 134.847656 131.578125 134.847656 131.609375 134.828125 131.640625 C 134.761719 131.929688 134.691406 132.214844 134.617188 132.492188 C 134.585938 132.59375 134.566406 132.699219 134.535156 132.796875 C 134.507812 132.894531 134.453125 133.113281 134.402344 133.265625 C 134.257812 133.769531 134.101562 134.261719 133.921875 134.753906 C 133.742188 135.246094 133.453125 135.789062 133.230469 136.308594 C 133.390625 135.519531 133.53125 134.730469 133.609375 133.925781 C 133.632812 133.738281 133.648438 133.550781 133.667969 133.367188 C 133.667969 133.316406 133.667969 133.265625 133.667969 133.214844 C 133.667969 132.96875 133.695312 132.730469 133.703125 132.488281 C 133.707031 132.453125 133.707031 132.414062 133.703125 132.378906 C 133.703125 132.179688 133.703125 131.988281 133.703125 131.796875 C 133.703125 131.605469 133.703125 131.339844 133.703125 131.113281 C 133.703125 130.886719 133.703125 130.753906 133.679688 130.574219 C 133.679688 130.558594 133.679688 130.542969 133.679688 130.53125 C 133.679688 130.46875 133.679688 130.414062 133.679688 130.355469 C 133.679688 130.296875 133.679688 130.128906 133.652344 130.019531 C 133.652344 129.984375 133.652344 129.949219 133.652344 129.914062 C 133.652344 129.773438 133.628906 129.632812 133.609375 129.488281 C 133.59375 129.34375 133.582031 129.175781 133.558594 129.023438 C 133.5625 128.984375 133.5625 128.941406 133.558594 128.898438 C 133.558594 128.71875 133.515625 128.539062 133.488281 128.355469 L 133.488281 128.25 C 133.4375 127.941406 133.382812 127.632812 133.324219 127.320312 C 133.296875 127.148438 133.261719 126.976562 133.222656 126.804688 C 133.140625 126.414062 133.046875 126.015625 132.953125 125.628906 L 132.75 124.855469 C 132.738281 124.828125 132.730469 124.796875 132.726562 124.765625 C 132.628906 124.429688 132.53125 124.089844 132.429688 123.761719 C 132.375 123.597656 132.320312 123.429688 132.265625 123.257812 L 132.101562 122.765625 C 131.984375 122.433594 131.871094 122.109375 131.746094 121.777344 C 131.652344 121.519531 131.554688 121.261719 131.453125 121.003906 C 130.835938 119.261719 129.515625 117.65625 129.792969 115.714844 C 129.910156 115.480469 130.144531 115.011719 130.261719 114.777344 C 133.089844 115.464844 133.855469 118.800781 134.863281 121.140625 C 134.910156 121.355469 134.949219 121.566406 134.988281 121.800781 C 134.988281 121.808594 134.988281 121.820312 134.988281 121.832031 C 135.019531 122.023438 135.054688 122.21875 135.085938 122.410156 C 135.121094 122.601562 135.152344 122.835938 135.183594 123.019531 C 135.207031 123.15625 135.222656 123.285156 135.246094 123.417969 C 135.246094 123.460938 135.246094 123.5 135.246094 123.542969 C 135.269531 123.695312 135.289062 123.851562 135.304688 124.007812 C 135.320312 124.160156 135.347656 124.367188 135.359375 124.542969 C 135.371094 124.71875 135.394531 124.851562 135.40625 125.003906 C 135.40625 125.039062 135.40625 125.066406 135.40625 125.097656 C 135.40625 125.132812 135.40625 125.144531 135.40625 125.171875 C 135.40625 125.273438 135.40625 125.375 135.40625 125.476562 C 135.40625 125.476562 135.40625 125.503906 135.40625 125.515625 C 135.40625 125.675781 135.429688 125.828125 135.433594 125.984375 L 135.433594 126.023438 C 135.433594 126.246094 135.433594 126.472656 135.433594 126.699219 C 135.433594 126.925781 135.433594 127.078125 135.433594 127.261719 M 119.957031 137.015625 C 117.105469 137.015625 114.792969 134.703125 114.792969 131.851562 C 114.792969 129 117.105469 126.691406 119.957031 126.691406 C 120.273438 126.6875 120.589844 126.71875 120.898438 126.78125 C 121.84375 126.949219 122.71875 127.382812 123.429688 128.027344 C 124.519531 129.003906 125.140625 130.402344 125.136719 131.867188 C 125.136719 132.128906 125.117188 132.390625 125.078125 132.652344 C 124.683594 135.171875 122.507812 137.023438 119.957031 137.019531 "/>
<path style=" stroke:none;fill-rule:nonzero;fill:rgb(86.666667%,0%,0%);fill-opacity:1;" d="M 133.546875 133.925781 C 133.566406 133.738281 133.585938 133.550781 133.601562 133.367188 C 133.601562 133.3125 133.601562 133.265625 133.601562 133.214844 C 133.601562 132.96875 133.632812 132.730469 133.640625 132.488281 C 133.644531 132.453125 133.644531 132.414062 133.640625 132.378906 C 133.640625 132.179688 133.640625 131.988281 133.640625 131.796875 C 133.640625 131.605469 133.640625 131.339844 133.640625 131.113281 C 133.640625 130.886719 133.640625 130.753906 133.613281 130.574219 C 133.617188 130.558594 133.617188 130.542969 133.613281 130.53125 C 133.613281 130.46875 133.613281 130.414062 133.613281 130.355469 C 133.613281 130.296875 133.613281 130.128906 133.589844 130.019531 C 133.589844 129.984375 133.589844 129.945312 133.589844 129.910156 C 133.589844 129.773438 133.5625 129.632812 133.546875 129.484375 C 133.53125 129.335938 133.515625 129.171875 133.496094 129.019531 C 133.496094 128.976562 133.496094 128.9375 133.496094 128.894531 C 133.496094 128.710938 133.453125 128.535156 133.421875 128.351562 L 133.421875 128.246094 C 133.371094 127.9375 133.320312 127.625 133.261719 127.316406 C 133.230469 127.140625 133.191406 126.972656 133.160156 126.800781 C 133.078125 126.410156 132.984375 126.011719 132.890625 125.625 L 132.683594 124.851562 C 132.675781 124.820312 132.667969 124.792969 132.664062 124.761719 C 132.566406 124.425781 132.46875 124.085938 132.363281 123.757812 C 132.308594 123.59375 132.257812 123.425781 132.203125 123.253906 L 132.035156 122.761719 C 131.921875 122.425781 131.804688 122.097656 131.683594 121.773438 C 131.558594 121.449219 131.488281 121.257812 131.386719 121 C 130.773438 119.257812 129.449219 117.652344 129.726562 115.710938 C 129.847656 115.476562 130.082031 115.007812 130.199219 114.773438 C 133.027344 115.460938 133.789062 118.796875 134.800781 121.136719 C 134.847656 121.351562 134.886719 121.5625 134.925781 121.796875 C 134.921875 121.804688 134.921875 121.816406 134.925781 121.824219 C 134.953125 122.019531 134.988281 122.214844 135.023438 122.402344 C 135.058594 122.589844 135.085938 122.828125 135.121094 123.015625 C 135.140625 123.152344 135.160156 123.28125 135.179688 123.414062 C 135.179688 123.457031 135.179688 123.496094 135.179688 123.535156 C 135.207031 123.691406 135.222656 123.847656 135.242188 124.003906 C 135.257812 124.15625 135.28125 124.359375 135.296875 124.539062 C 135.308594 124.71875 135.332031 124.847656 135.34375 125 C 135.34375 125.035156 135.34375 125.058594 135.34375 125.09375 C 135.34375 125.128906 135.34375 125.140625 135.34375 125.167969 C 135.34375 125.269531 135.34375 125.371094 135.34375 125.472656 C 135.34375 125.472656 135.34375 125.503906 135.34375 125.511719 C 135.34375 125.671875 135.363281 125.824219 135.367188 125.980469 L 135.367188 126.019531 C 135.367188 126.242188 135.367188 126.46875 135.367188 126.695312 C 135.367188 126.921875 135.367188 127.074219 135.367188 127.257812 C 135.367188 127.441406 135.367188 127.523438 135.367188 127.65625 C 135.367188 127.914062 135.335938 128.179688 135.308594 128.441406 C 135.308594 128.570312 135.277344 128.703125 135.265625 128.835938 C 135.222656 129.128906 135.179688 129.421875 135.128906 129.714844 C 135.128906 129.757812 135.128906 129.804688 135.128906 129.851562 C 135.101562 130.015625 135.074219 130.175781 135.042969 130.339844 L 134.980469 130.667969 C 134.925781 130.949219 134.867188 131.234375 134.800781 131.519531 C 134.800781 131.550781 134.800781 131.585938 134.78125 131.613281 C 134.714844 131.902344 134.644531 132.191406 134.570312 132.46875 C 134.539062 132.570312 134.519531 132.671875 134.488281 132.769531 C 134.460938 132.867188 134.402344 133.085938 134.355469 133.238281 C 134.210938 133.742188 134.054688 134.238281 133.875 134.730469 C 133.695312 135.21875 133.40625 135.765625 133.183594 136.28125 C 133.34375 135.492188 133.484375 134.703125 133.5625 133.902344 M 126.507812 113.65625 C 125.308594 114.035156 124.136719 114.507812 122.964844 114.957031 L 122.027344 115.199219 C 121.230469 115.46875 120.449219 115.761719 119.65625 116.054688 C 119.828125 117.175781 120.082031 118.277344 120.332031 119.382812 C 120.523438 120.210938 120.664062 121.050781 120.757812 121.898438 L 120.8125 122.410156 C 120.851562 123.265625 120.886719 124.117188 120.894531 124.945312 C 120.894531 125.558594 120.894531 126.175781 120.894531 126.792969 C 121.839844 126.960938 122.714844 127.394531 123.425781 128.039062 C 124.515625 129.019531 125.136719 130.414062 125.132812 131.878906 C 125.132812 132.140625 125.113281 132.402344 125.074219 132.664062 C 124.847656 134.132812 123.996094 135.429688 122.746094 136.226562 C 121.492188 137.027344 119.957031 137.246094 118.53125 136.832031 C 118.335938 137.347656 118.136719 137.863281 117.925781 138.378906 L 117.558594 138.976562 C 117.152344 139.648438 116.777344 140.328125 116.394531 141 C 116.292969 141.160156 116.1875 141.316406 116.085938 141.472656 C 115.625 142.136719 115.15625 142.796875 114.648438 143.433594 L 114.464844 143.640625 C 112.925781 145.308594 111.160156 146.761719 109.226562 147.949219 L 108.609375 148.308594 C 107.882812 148.707031 107.160156 149.097656 106.417969 149.46875 C 105.566406 149.839844 104.710938 150.199219 103.859375 150.527344 C 100.292969 151.898438 96.515625 152.800781 92.683594 152.316406 C 91.472656 152.125 90.28125 151.824219 89.121094 151.414062 C 88.5 151.199219 87.894531 150.953125 87.300781 150.667969 C 86.535156 150.277344 85.792969 149.855469 85.070312 149.390625 L 83.789062 148.535156 L 83.464844 148.328125 C 82.410156 147.285156 81.417969 146.191406 80.28125 145.214844 C 79.527344 144.007812 78.644531 142.894531 77.796875 141.746094 C 76.84375 142.800781 75.871094 143.84375 74.921875 144.90625 C 73.371094 146.617188 71.949219 148.445312 70.675781 150.375 C 71.160156 151.042969 71.632812 151.730469 72.101562 152.414062 C 72.917969 153.578125 73.808594 154.691406 74.769531 155.742188 C 76.003906 157.105469 77.335938 158.378906 78.753906 159.546875 C 79.882812 160.457031 81.066406 161.296875 82.296875 162.066406 L 82.667969 162.292969 C 84.257812 163.242188 85.925781 164.050781 87.660156 164.707031 C 90.195312 165.652344 92.851562 166.242188 95.550781 166.464844 C 100.015625 166.792969 104.503906 166.28125 108.777344 164.945312 C 112.960938 163.652344 116.910156 161.691406 120.46875 159.140625 C 123.378906 157.066406 126.015625 154.628906 128.3125 151.890625 C 129.1875 150.84375 130.019531 149.753906 130.789062 148.636719 C 132.269531 146.507812 133.554688 144.253906 134.628906 141.898438 C 135.289062 140.484375 135.835938 139.027344 136.273438 137.53125 C 136.742188 135.957031 137.09375 134.347656 137.328125 132.722656 C 137.6875 130.199219 137.714844 127.640625 137.40625 125.113281 C 137.320312 124 137.148438 122.894531 136.894531 121.808594 C 136.769531 121.21875 136.617188 120.640625 136.46875 120.058594 C 135.613281 117.15625 134.453125 114.347656 133.007812 111.683594 C 130.835938 112.320312 128.675781 112.988281 126.511719 113.660156 "/>
<g clip-path="url(#clip3)" clip-rule="nonzero">
<g clip-path="url(#clip4)" clip-rule="nonzero">
<path style=" stroke:none;fill-rule:nonzero;fill:rgb(86.666667%,0%,0%);fill-opacity:1;" d="M 70.691406 111.679688 L 137.71875 111.679688 L 137.71875 166.816406 L 70.691406 166.816406 Z M 70.691406 111.679688 "/>
</g>
</g>
<path style=" stroke:none;fill-rule:nonzero;fill:rgb(1.176471%,1.176471%,1.176471%);fill-opacity:1;" d="M 138.292969 86.6875 C 132.15625 87.949219 126.171875 89.851562 120.433594 92.367188 C 117.609375 93.601562 114.835938 94.96875 112.125 96.472656 C 108.257812 98.617188 104.53125 101 100.960938 103.609375 C 93.292969 108.648438 86.429688 114.820312 80.601562 121.910156 C 78.0625 124.914062 75.761719 128.113281 73.722656 131.476562 C 73.4375 129.648438 73.492188 127.78125 73.886719 125.972656 C 73.835938 125.972656 73.71875 125.929688 73.667969 125.917969 C 71.613281 129.832031 69.554688 133.75 67.410156 137.613281 C 66.910156 137.011719 66.636719 136.257812 66.632812 135.480469 C 66.699219 133.417969 66.988281 131.367188 67.484375 129.367188 C 65.652344 131.335938 63.992188 133.464844 62.527344 135.722656 C 56.890625 144.460938 53.246094 154.414062 51.210938 164.582031 C 60.132812 163.902344 69.484375 164.820312 77.457031 169.148438 L 77.695312 169.261719 C 85.414062 172.875 94.296875 173.375 102.648438 172.191406 C 105.351562 171.839844 107.964844 171.019531 110.621094 170.417969 L 110.988281 170.339844 L 111.03125 170.1875 C 111.054688 170.089844 111.109375 169.894531 111.132812 169.796875 C 112.734375 169.582031 114.121094 168.6875 115.621094 168.222656 C 118.332031 167.269531 120.742188 165.660156 123.105469 164.042969 C 126.828125 161.382812 130.121094 158.167969 132.875 154.515625 C 135.191406 151.472656 137.167969 148.179688 138.769531 144.703125 C 142.117188 137.527344 143.96875 129.75 144.214844 121.835938 C 144.382812 117.011719 143.621094 112.199219 141.976562 107.660156 C 145.265625 103.511719 149.050781 99.785156 153.253906 96.566406 C 158.714844 92.398438 164.640625 88.871094 170.90625 86.054688 C 160.109375 84.433594 149.019531 84.429688 138.3125 86.699219 M 137.429688 125.121094 C 137.734375 127.648438 137.707031 130.207031 137.347656 132.730469 C 137.113281 134.359375 136.761719 135.964844 136.292969 137.539062 C 135.859375 139.035156 135.308594 140.492188 134.652344 141.90625 C 133.574219 144.261719 132.289062 146.519531 130.8125 148.644531 C 130.035156 149.765625 129.207031 150.851562 128.332031 151.898438 C 126.035156 154.636719 123.402344 157.074219 120.492188 159.152344 C 116.929688 161.699219 112.984375 163.660156 108.800781 164.953125 C 104.527344 166.289062 100.039062 166.804688 95.574219 166.472656 C 92.875 166.25 90.21875 165.660156 87.679688 164.714844 C 85.949219 164.058594 84.277344 163.25 82.6875 162.300781 L 82.316406 162.074219 C 81.085938 161.304688 79.902344 160.464844 78.777344 159.554688 C 77.355469 158.386719 76.023438 157.113281 74.789062 155.75 C 73.832031 154.699219 72.941406 153.589844 72.128906 152.421875 C 71.65625 151.738281 71.179688 151.054688 70.699219 150.382812 C 71.972656 148.453125 73.390625 146.625 74.945312 144.914062 C 75.890625 143.851562 76.863281 142.808594 77.820312 141.753906 C 78.671875 142.902344 79.527344 144.015625 80.308594 145.222656 C 81.433594 146.1875 82.441406 147.292969 83.484375 148.335938 L 83.808594 148.542969 L 85.089844 149.398438 C 85.816406 149.859375 86.558594 150.28125 87.320312 150.675781 C 87.914062 150.960938 88.523438 151.210938 89.144531 151.425781 C 90.300781 151.832031 91.492188 152.132812 92.707031 152.324219 C 96.546875 152.8125 100.3125 151.898438 103.878906 150.535156 C 104.734375 150.207031 105.585938 149.847656 106.441406 149.476562 C 107.183594 149.105469 107.902344 148.714844 108.628906 148.316406 L 109.246094 147.960938 C 111.164062 146.761719 112.90625 145.308594 114.433594 143.640625 L 114.617188 143.433594 C 115.125 142.796875 115.59375 142.152344 116.054688 141.472656 C 116.152344 141.316406 116.257812 141.160156 116.359375 141 C 116.746094 140.328125 117.121094 139.648438 117.523438 138.976562 L 117.890625 138.378906 C 118.101562 137.863281 118.320312 137.347656 118.5 136.832031 C 116.046875 136.105469 114.5 133.695312 114.855469 131.164062 C 115.210938 128.632812 117.363281 126.742188 119.917969 126.71875 C 120.234375 126.71875 120.550781 126.746094 120.863281 126.808594 C 120.863281 126.191406 120.863281 125.578125 120.863281 124.960938 C 120.863281 124.109375 120.820312 123.253906 120.777344 122.425781 L 120.726562 121.914062 C 120.628906 121.070312 120.488281 120.230469 120.296875 119.398438 C 120.058594 118.292969 119.796875 117.191406 119.621094 116.070312 C 120.414062 115.792969 121.195312 115.5 121.992188 115.21875 L 122.949219 114.964844 C 124.121094 114.507812 125.289062 114.042969 126.488281 113.664062 C 128.652344 112.992188 130.816406 112.324219 132.992188 111.6875 C 134.433594 114.351562 135.589844 117.160156 136.449219 120.0625 C 136.601562 120.644531 136.75 121.222656 136.875 121.8125 C 137.125 122.898438 137.296875 124.003906 137.386719 125.117188 "/>
</g>
</svg>
