<?xml version="1.0" standalone="no"?>
<!DOCTYPE svg PUBLIC "-//W3C//DTD SVG 20010904//EN"
 "http://www.w3.org/TR/2001/REC-SVG-20010904/DTD/svg10.dtd">
<svg version="1.0" xmlns="http://www.w3.org/2000/svg"
 width="768.000000pt" height="768.000000pt" viewBox="0 0 768.000000 768.000000"
 preserveAspectRatio="xMidYMid meet">
<metadata>
Created by potrace 1.10, written by Peter Selinger 2001-2011
</metadata>
<g transform="translate(0.000000,768.000000) scale(0.100000,-0.100000)"
fill="#000000" stroke="none">
<path d="M3590 6620 c-96 -4 -145 -10 -169 -21 -25 -12 -51 -15 -93 -12 -43 4
-64 2 -82 -11 -14 -9 -45 -16 -69 -16 -24 0 -52 -7 -63 -15 -10 -8 -38 -15
-60 -15 -24 0 -47 -6 -54 -15 -7 -8 -29 -15 -50 -15 -21 0 -43 -7 -50 -15 -7
-8 -27 -15 -45 -15 -18 0 -38 -7 -45 -15 -7 -8 -25 -15 -39 -15 -15 0 -36 -7
-47 -15 -10 -8 -29 -15 -41 -15 -12 0 -29 -10 -37 -21 -11 -16 -21 -20 -40
-15 -19 5 -28 1 -35 -13 -7 -13 -18 -17 -36 -14 -18 4 -25 1 -25 -11 0 -11 -9
-16 -29 -16 -16 0 -31 -6 -35 -15 -3 -8 -15 -15 -26 -15 -11 0 -23 -7 -26 -15
-4 -8 -17 -15 -30 -15 -12 0 -27 -6 -31 -12 -4 -7 -26 -22 -48 -33 -22 -11
-44 -25 -48 -32 -4 -7 -16 -13 -25 -13 -9 0 -30 -14 -46 -30 -16 -17 -38 -30
-48 -30 -10 0 -29 -11 -42 -24 -12 -14 -45 -40 -73 -59 -28 -19 -64 -47 -80
-63 -15 -16 -46 -42 -68 -59 -40 -30 -211 -190 -249 -234 -12 -13 -28 -31 -37
-40 -8 -9 -36 -43 -62 -76 -25 -33 -60 -76 -76 -95 -17 -19 -31 -40 -31 -47 0
-7 -6 -16 -12 -20 -15 -9 -33 -37 -48 -70 -5 -13 -14 -23 -19 -23 -5 0 -11 -8
-15 -17 -3 -10 -15 -31 -26 -48 -11 -16 -24 -39 -30 -50 -23 -42 -38 -67 -49
-78 -6 -6 -11 -19 -11 -28 0 -9 -7 -22 -15 -29 -8 -7 -15 -20 -15 -30 0 -10
-7 -20 -15 -24 -8 -3 -15 -16 -15 -29 0 -14 -7 -30 -15 -37 -8 -7 -15 -20 -15
-30 0 -10 -7 -23 -15 -30 -8 -7 -15 -26 -15 -42 0 -16 -6 -31 -15 -34 -8 -4
-15 -18 -15 -34 0 -15 -7 -33 -15 -40 -8 -7 -15 -25 -15 -40 0 -15 -7 -33 -15
-40 -8 -7 -15 -29 -15 -50 0 -21 -7 -43 -15 -50 -8 -7 -15 -29 -15 -50 0 -21
-7 -43 -15 -50 -9 -8 -15 -30 -15 -59 0 -26 -7 -56 -15 -67 -9 -11 -15 -43
-15 -79 0 -33 -7 -71 -15 -85 -8 -15 -14 -53 -15 -94 0 -37 -7 -124 -17 -193
-14 -108 -15 -140 -3 -246 7 -67 15 -171 19 -232 3 -60 12 -120 19 -132 6 -12
12 -46 12 -75 1 -29 7 -64 15 -78 8 -14 14 -46 15 -71 0 -29 6 -51 15 -59 8
-7 15 -29 15 -50 0 -21 7 -43 15 -50 8 -7 15 -27 15 -45 0 -18 7 -38 15 -45 8
-7 15 -27 15 -45 0 -18 7 -38 15 -45 8 -7 15 -22 15 -34 0 -12 7 -31 15 -42 8
-10 15 -29 15 -40 0 -12 7 -27 15 -34 8 -7 15 -23 15 -35 0 -13 7 -25 15 -29
8 -3 15 -16 15 -30 0 -13 7 -26 15 -30 8 -3 15 -16 15 -30 0 -13 7 -26 15 -30
8 -3 15 -14 15 -24 0 -10 5 -23 11 -29 12 -12 33 -46 48 -80 5 -11 15 -24 20
-28 6 -3 11 -12 11 -20 0 -8 14 -29 30 -47 17 -18 30 -38 30 -45 0 -6 14 -27
30 -45 17 -18 30 -38 30 -46 0 -7 7 -15 15 -18 8 -4 15 -10 15 -15 0 -6 12
-22 28 -37 15 -15 36 -40 46 -57 25 -39 50 -66 166 -180 143 -141 182 -176
243 -220 31 -22 57 -45 57 -51 0 -7 8 -15 17 -18 28 -10 62 -31 91 -57 31 -27
59 -46 85 -55 9 -3 17 -13 17 -20 0 -8 8 -14 19 -14 10 0 24 -7 31 -15 7 -8
19 -15 27 -15 7 0 16 -7 19 -15 4 -8 14 -15 24 -15 10 0 23 -7 30 -15 7 -8 20
-15 30 -15 10 0 23 -7 30 -15 7 -8 18 -15 25 -15 7 0 18 -7 25 -15 7 -8 25
-15 40 -15 16 0 30 -7 34 -15 3 -8 16 -15 30 -15 13 0 26 -7 30 -15 3 -8 16
-15 29 -15 14 0 30 -7 37 -15 7 -8 25 -15 40 -15 15 0 33 -7 40 -15 7 -8 22
-15 34 -15 12 0 31 -7 42 -15 10 -8 30 -15 44 -15 14 0 34 -7 44 -15 11 -8 34
-15 51 -15 17 0 40 -7 51 -15 10 -8 35 -15 54 -15 19 0 44 -7 54 -15 12 -9 41
-15 71 -15 28 0 57 -6 63 -12 7 -7 43 -16 80 -19 37 -4 85 -12 107 -18 22 -6
96 -11 166 -11 75 0 129 -4 136 -11 7 -7 46 -8 114 -4 57 3 170 8 251 11 111
4 149 9 158 19 9 11 34 15 84 15 43 0 82 6 100 15 15 8 48 15 73 15 26 0 51 6
59 15 9 9 34 15 58 15 27 0 48 6 56 15 7 8 23 15 37 15 13 0 40 7 60 15 19 8
46 15 58 15 13 0 25 7 29 15 3 8 16 15 29 15 14 0 30 7 37 15 7 8 23 15 35 15
12 0 28 7 35 15 7 8 25 15 40 15 15 0 33 7 40 15 7 8 20 15 30 15 10 0 23 7
30 15 7 8 18 15 25 15 7 0 18 7 25 15 7 8 21 15 32 15 11 0 40 14 65 30 24 17
50 30 57 30 7 0 26 13 42 30 16 16 37 30 47 30 18 0 79 38 85 53 2 4 8 7 13 7
13 0 109 72 109 82 0 4 9 8 20 8 11 0 45 24 75 53 30 28 100 95 156 147 55 52
108 103 118 113 9 10 30 32 48 50 17 17 47 55 65 82 19 28 46 64 61 80 53 56
57 62 57 73 0 6 11 19 25 28 13 9 34 36 47 60 12 24 32 54 45 66 13 12 23 29
23 38 0 9 11 32 26 51 14 19 41 65 60 103 19 38 44 80 54 95 10 14 26 53 35
86 9 33 30 86 46 119 16 32 29 68 29 80 0 11 7 30 15 40 8 11 15 32 15 48 0
24 -4 28 -29 28 -17 0 -33 5 -36 10 -12 19 -24 10 -40 -27 -9 -21 -23 -53 -31
-71 -8 -18 -14 -39 -14 -47 0 -7 -11 -35 -24 -62 -14 -26 -34 -77 -47 -113
-12 -36 -32 -78 -44 -95 -12 -16 -33 -52 -46 -80 -13 -27 -31 -57 -40 -65 -8
-9 -30 -41 -47 -71 -17 -30 -42 -64 -56 -77 -14 -12 -26 -27 -26 -33 0 -6 -6
-17 -12 -24 -33 -37 -37 -45 -31 -61 5 -13 2 -15 -13 -11 -15 5 -27 -6 -54
-48 -19 -30 -41 -55 -48 -55 -7 0 -16 -8 -19 -18 -4 -9 -9 -19 -12 -22 -3 -3
-24 -27 -46 -55 -22 -27 -64 -75 -92 -105 -29 -30 -53 -60 -53 -67 0 -17 -19
-21 -80 -15 -67 6 -76 13 -103 74 -20 45 -22 47 -39 31 -10 -9 -18 -19 -18
-23 0 -4 23 -30 50 -57 83 -83 77 -94 -133 -238 -129 -88 -343 -205 -443 -240
l-51 -18 -54 26 c-64 31 -81 44 -99 77 l-13 24 -9 -24 c-7 -20 -5 -28 11 -39
12 -7 21 -17 21 -22 0 -14 43 -73 78 -106 37 -35 36 -48 -5 -56 -28 -5 -63 15
-63 37 0 6 -9 21 -18 34 l-18 24 -124 -31 c-68 -17 -147 -31 -175 -31 -28 0
-55 -4 -61 -9 -5 -5 -27 -14 -48 -20 -31 -8 -43 -7 -60 4 -26 19 -90 19 -108
2 -8 -8 -47 -16 -90 -20 -42 -3 -85 -10 -96 -16 -12 -7 -81 -11 -168 -11 -131
0 -150 -2 -180 -21 -31 -19 -39 -20 -101 -9 -38 7 -105 15 -151 19 -45 4 -88
13 -94 19 -7 7 -22 12 -34 12 -25 0 -84 45 -84 63 0 7 27 21 61 31 33 11 62
23 65 28 6 10 -350 11 -360 0 -4 -4 9 -12 30 -18 55 -15 52 -30 -6 -29 -27 1
-50 0 -50 -2 0 -2 7 -14 15 -27 17 -25 131 -67 231 -86 27 -5 67 -13 89 -19
95 -24 185 -41 220 -41 20 0 61 -7 90 -15 65 -19 435 -17 530 3 33 7 94 20
135 28 88 19 125 28 200 50 30 9 71 20 90 24 19 4 70 17 112 29 43 11 87 21
99 21 22 0 22 0 3 -21 -31 -34 -87 -58 -201 -85 -59 -14 -117 -30 -130 -35
-12 -4 -94 -20 -180 -35 -310 -52 -590 -51 -898 2 -49 8 -103 19 -120 24 -16
5 -48 12 -70 15 -22 4 -77 18 -122 31 -80 24 -113 48 -113 82 0 7 -13 26 -30
42 -34 33 -37 45 -15 54 18 7 21 60 3 54 -7 -3 -16 -16 -19 -29 -17 -70 -19
-72 -64 -67 -50 6 -150 50 -184 81 -13 12 -38 45 -56 72 -17 28 -90 105 -161
170 -150 140 -261 253 -307 312 -17 23 -35 43 -39 43 -14 0 -9 -27 7 -40 8 -7
15 -19 15 -28 0 -9 9 -25 20 -37 11 -12 33 -40 48 -62 51 -77 134 -173 148
-173 8 0 18 -10 23 -23 8 -20 51 -63 124 -124 15 -13 27 -27 27 -32 0 -6 11
-22 24 -36 28 -30 39 -74 21 -81 -7 -3 -25 7 -41 21 -26 24 -78 60 -191 130
-81 50 -115 85 -109 111 4 13 2 26 -4 29 -6 3 -20 27 -31 53 -12 25 -33 58
-48 72 -14 14 -41 43 -59 64 -31 36 -35 38 -75 32 -42 -7 -45 -5 -90 44 -25
27 -50 50 -56 50 -14 0 -53 68 -46 80 8 13 45 13 45 0 0 -5 4 -10 10 -10 6 0
6 9 -1 26 -8 22 -6 30 11 46 11 10 23 31 27 46 3 15 18 54 33 87 15 33 35 84
45 114 23 70 53 121 72 121 8 0 11 5 8 10 -3 5 -17 10 -30 10 -31 0 -55 10
-55 22 0 6 -22 37 -50 70 -27 33 -50 68 -50 77 0 29 -49 121 -65 121 -8 0 -15
8 -15 18 0 24 36 62 60 62 20 0 60 -56 60 -84 0 -9 4 -16 9 -16 5 0 13 -10 17
-22 3 -12 13 -28 20 -36 8 -7 14 -28 14 -46 0 -19 7 -39 15 -46 8 -7 15 -21
15 -31 0 -11 7 -19 15 -19 9 0 19 -9 23 -21 8 -21 8 -21 25 4 14 22 14 26 2
31 -17 6 -20 42 -6 51 6 3 26 -10 45 -30 19 -19 39 -35 44 -35 10 0 82 -113
82 -128 0 -18 20 -24 35 -12 30 25 20 51 -57 156 -20 29 -40 64 -44 78 -8 33
-38 50 -76 42 -16 -3 -38 -1 -48 4 -23 12 -120 182 -120 210 0 21 -15 27 -25
10 -9 -14 -58 -12 -87 3 -51 26 -76 61 -93 127 -9 36 -23 72 -30 80 -18 22
-47 80 -56 115 -4 17 -17 68 -29 115 -28 111 -38 128 -116 202 -71 68 -69 63
-88 196 -8 54 -21 101 -30 111 -9 10 -16 31 -16 47 -1 28 -1 28 -15 10 -8 -11
-18 -16 -22 -13 -38 39 -50 258 -20 358 20 65 43 89 111 114 75 27 122 58 155
99 30 38 71 132 71 164 0 9 11 37 25 61 14 23 25 57 25 73 0 16 7 44 16 61 32
62 35 68 28 78 -3 6 1 18 9 27 8 9 22 38 31 65 9 26 27 65 41 87 14 22 25 48
25 59 0 11 14 33 30 49 17 17 30 34 30 39 0 5 20 40 45 77 25 38 45 72 45 76
0 4 10 18 21 31 12 13 29 35 38 49 23 36 90 118 139 170 23 24 42 48 42 53 0
4 23 31 50 58 28 28 57 61 65 73 9 13 32 32 53 42 20 10 49 30 63 44 14 14 51
49 83 79 74 70 113 129 141 214 27 78 43 98 120 151 77 54 91 48 134 -48 35
-77 35 -79 18 -108 -9 -16 -17 -34 -17 -40 0 -5 -8 -22 -18 -36 -39 -56 -122
-253 -116 -276 3 -14 -1 -27 -10 -35 -9 -8 -16 -22 -16 -33 0 -10 -7 -21 -15
-24 -22 -9 -18 -24 5 -24 17 0 19 -6 19 -50 -1 -27 4 -57 11 -65 15 -18 6 -78
-15 -95 -9 -8 -12 -22 -8 -41 6 -32 5 -32 -60 -29 -29 1 -44 -4 -59 -20 -17
-18 -18 -24 -7 -31 8 -5 18 -9 22 -9 5 0 7 -8 5 -17 -3 -14 -13 -18 -43 -18
-38 0 -40 -2 -37 -27 2 -16 0 -28 -5 -29 -54 -5 -70 -20 -56 -53 16 -33 0 -45
-49 -38 -40 5 -41 4 -34 -19 14 -46 11 -52 -21 -61 -33 -9 -42 -21 -23 -33 6
-3 10 -15 10 -26 0 -17 -6 -19 -37 -17 -30 2 -37 0 -34 -12 15 -57 13 -70 -9
-70 -20 0 -49 -24 -50 -42 0 -4 9 -9 19 -13 15 -5 19 -15 19 -50 l0 -45 -38 0
c-50 0 -56 -12 -20 -39 43 -31 39 -51 -9 -51 -50 0 -58 -13 -32 -46 11 -15 19
-30 16 -34 -2 -4 -26 -15 -52 -25 -26 -10 -52 -21 -56 -25 -13 -12 4 -39 26
-42 12 -2 23 -11 25 -20 3 -15 -4 -18 -32 -18 -39 0 -48 -18 -21 -40 22 -18
19 -50 -5 -50 -10 0 -24 -9 -30 -19 -14 -26 -13 -28 10 -34 28 -7 25 -36 -5
-47 -30 -11 -33 -40 -5 -47 29 -8 24 -31 -7 -35 -39 -4 -45 -44 -9 -58 14 -5
26 -16 26 -25 0 -20 26 -19 34 1 3 9 6 29 6 44 0 16 4 31 9 34 4 3 11 20 15
38 8 38 33 68 57 68 22 0 35 22 69 120 24 70 28 75 55 75 44 1 40 18 -10 45
-25 14 -45 27 -45 29 0 17 36 81 46 81 6 0 22 -9 36 -20 23 -17 27 -18 46 -4
33 23 27 48 -15 70 -21 10 -45 28 -55 39 -14 17 -15 23 -3 46 12 22 33 39 49
39 2 0 20 -13 41 -30 47 -38 59 -38 75 0 7 17 20 34 28 39 14 8 14 12 3 25 -7
9 -11 25 -8 35 7 29 -15 31 -36 4 -25 -32 -67 -31 -67 1 0 13 8 27 17 30 12 5
14 9 5 18 -33 33 13 102 66 100 21 0 35 8 51 29 25 33 55 37 99 12 27 -16 31
-16 54 -1 25 16 38 54 38 107 0 14 7 40 16 56 8 17 18 53 21 80 3 28 12 57 19
65 8 9 13 39 12 76 0 33 4 70 11 81 6 12 11 51 11 87 0 41 5 70 13 78 8 7 16
36 19 63 4 27 11 51 17 53 6 2 11 16 11 32 0 16 7 35 15 44 8 8 15 26 15 39 0
14 7 30 15 37 8 7 15 21 15 32 0 10 7 21 15 24 8 4 15 15 15 25 0 11 19 38 43
60 41 41 43 41 103 36 49 -4 68 -10 94 -33 48 -42 73 -68 90 -94 8 -12 21 -28
28 -36 6 -7 12 -19 12 -26 0 -7 9 -21 20 -31 12 -10 18 -22 15 -27 -3 -5 4
-14 15 -20 11 -6 20 -21 20 -35 0 -13 3 -25 8 -27 4 -1 17 -24 30 -50 13 -26
27 -50 33 -53 5 -4 9 -14 9 -24 0 -10 7 -24 15 -31 8 -7 15 -19 15 -27 0 -15
17 -37 80 -102 44 -45 65 -78 74 -116 10 -40 24 -55 52 -55 25 0 40 15 25 25
-6 3 -22 32 -37 65 -14 32 -32 61 -40 64 -19 7 -18 25 2 33 11 4 29 -8 55 -37
44 -48 54 -45 62 17 6 50 0 53 -120 53 -73 0 -84 2 -94 21 -18 34 -2 108 25
121 31 14 71 -6 60 -30 -14 -34 -16 -60 -4 -67 16 -10 31 7 45 49 10 28 10 37
-2 49 -12 12 -11 17 4 35 10 12 32 25 49 28 31 6 31 5 37 -42 2 -26 0 -60 -5
-77 -8 -22 -8 -31 3 -38 20 -13 48 24 55 72 4 23 12 39 20 39 8 0 14 4 14 9 0
19 32 41 61 41 60 0 87 -66 54 -131 -19 -36 -13 -49 26 -49 29 0 39 13 19 25
-7 4 -7 13 0 24 5 10 7 34 3 54 l-5 36 48 3 c87 6 133 -42 84 -87 -12 -11 -18
-26 -15 -35 3 -10 -1 -23 -10 -30 -22 -18 -9 -30 35 -30 21 0 41 -4 45 -9 7
-12 109 -61 126 -61 8 0 5 -8 -6 -20 -18 -20 -17 -20 14 -20 61 0 120 48 182
150 18 30 36 57 39 60 11 8 40 72 40 87 0 7 7 16 15 19 8 4 15 12 15 20 0 7 6
17 13 21 7 4 20 20 29 34 10 15 38 48 62 73 37 37 53 46 81 46 45 0 91 -45
102 -100 3 -17 10 -33 14 -36 5 -3 9 -27 9 -53 0 -31 5 -53 15 -61 10 -8 15
-31 15 -70 0 -32 7 -71 15 -86 21 -41 21 -426 0 -458 -12 -18 -12 -28 1 -66
16 -45 15 -145 -3 -255 -11 -68 -7 -130 9 -155 12 -20 16 -58 17 -174 0 -86 5
-154 11 -160 5 -5 10 -25 10 -43 0 -18 9 -49 19 -69 16 -29 17 -41 9 -67 -6
-18 -15 -37 -20 -44 -5 -7 -7 -21 -3 -32 4 -14 0 -23 -15 -31 -29 -15 -29 -94
0 -110 11 -6 20 -19 20 -30 0 -10 4 -21 9 -24 16 -10 20 -109 4 -139 -7 -15
-14 -47 -13 -70 1 -54 -10 -107 -21 -107 -5 0 -9 -13 -9 -29 0 -49 -12 -91
-26 -91 -8 0 -14 6 -14 14 0 8 -6 21 -14 28 -7 8 -17 24 -20 36 -9 27 -32 28
-46 2 -6 -11 -17 -20 -25 -20 -8 0 -15 -9 -15 -20 0 -11 5 -20 11 -20 10 0 64
-21 99 -39 8 -5 16 -20 18 -35 4 -30 20 -35 28 -8 3 9 12 29 20 44 8 14 14 33
14 42 0 9 4 24 10 34 42 77 81 219 95 343 3 31 12 65 20 75 13 17 10 21 -28
39 -58 28 -59 48 -2 71 43 18 46 21 40 49 -3 17 -5 70 -5 118 1 62 -3 95 -13
110 -8 12 -18 54 -22 92 -4 39 -10 64 -12 58 -3 -7 -13 -13 -24 -13 -13 0 -19
7 -19 24 0 14 5 28 10 31 12 8 13 72 1 79 -9 6 -18 54 -25 139 -2 27 -11 56
-20 66 -15 17 -22 72 -10 84 3 3 19 1 35 -5 25 -9 31 -6 51 17 26 30 105 68
113 55 3 -5 -6 -21 -20 -35 -13 -15 -27 -36 -30 -46 -5 -14 -12 -18 -31 -13
-17 4 -31 0 -44 -11 -25 -23 -25 -46 0 -68 11 -9 20 -26 20 -37 0 -11 5 -20
10 -20 6 0 10 6 10 14 0 21 19 30 35 16 9 -8 13 -28 12 -59 -2 -44 2 -52 44
-99 37 -41 48 -61 53 -100 8 -64 -6 -102 -38 -102 -30 0 -42 -37 -19 -62 11
-12 14 -28 9 -55 -16 -100 -18 -131 -7 -150 8 -16 7 -24 -4 -33 -19 -16 -19
-26 1 -34 15 -6 53 3 113 26 29 11 52 -5 34 -23 -8 -8 -8 -18 -1 -35 14 -29
18 -29 51 -4 14 11 30 20 36 20 6 0 11 8 11 18 0 27 32 52 66 52 30 1 27 6
-21 35 -25 15 -9 45 25 45 21 0 30 7 40 30 15 36 30 30 30 -11 0 -26 3 -30 23
-27 21 3 22 7 19 68 -3 40 -10 72 -19 82 -13 14 -14 23 -4 46 7 16 23 35 36
42 33 18 39 43 21 79 -9 17 -16 38 -16 48 0 10 -7 27 -15 37 -8 11 -15 30 -15
42 0 12 -7 28 -16 35 -12 9 -14 23 -10 50 4 28 1 43 -14 62 -11 14 -20 32 -20
40 0 24 -29 87 -41 87 -6 0 -9 10 -8 23 3 26 -29 91 -64 130 -31 32 -79 36
-147 12 -24 -8 -45 -13 -48 -11 -2 3 0 17 5 33 8 23 16 28 43 28 42 0 47 15
16 44 l-25 23 -24 -27 c-17 -21 -28 -26 -45 -21 -46 15 -19 66 35 66 36 0 43
14 15 29 -11 6 -24 6 -33 0 -24 -15 -79 -11 -86 7 -8 21 13 34 55 34 23 0 32
5 32 17 0 9 7 24 15 33 19 21 11 43 -21 61 -14 7 -39 30 -56 51 -16 21 -36 38
-44 38 -8 0 -14 4 -14 8 0 4 -25 33 -55 62 -49 49 -55 59 -55 97 0 23 -5 45
-10 48 -6 3 -8 16 -5 28 4 15 -3 36 -19 60 -45 66 -32 87 29 51 44 -25 70 -19
45 11 -6 8 -9 19 -5 25 12 20 35 10 57 -25 13 -20 33 -38 45 -41 12 -3 24 -12
27 -19 3 -8 23 -26 45 -40 22 -14 59 -45 82 -70 23 -25 47 -45 53 -45 7 0 25
-13 41 -30 16 -16 33 -30 38 -30 17 0 87 -65 87 -82 0 -21 -32 -32 -75 -24
-27 5 -38 1 -64 -23 -17 -16 -31 -38 -31 -50 0 -27 72 -76 101 -68 24 6 69
-31 69 -58 0 -13 3 -13 21 -3 17 11 22 10 34 -6 17 -22 11 -36 -14 -36 -10 0
-24 -6 -30 -14 -10 -12 -6 -15 18 -21 17 -3 54 -8 83 -10 29 -2 57 -4 62 -4
16 -2 -15 -30 -37 -33 -18 -2 -22 -9 -21 -41 1 -20 9 -46 18 -56 9 -9 16 -25
16 -33 0 -9 7 -21 16 -29 9 -8 13 -21 10 -35 -5 -17 -1 -26 14 -34 13 -7 20
-21 20 -39 0 -15 11 -49 24 -74 20 -36 23 -52 16 -75 -4 -17 -4 -34 1 -39 20
-20 67 -125 62 -139 -3 -8 0 -14 6 -14 6 0 11 -8 11 -17 0 -19 -46 -63 -66
-63 -24 0 -31 -34 -28 -135 2 -55 3 -110 4 -122 0 -15 11 -28 30 -38 27 -14
80 -21 80 -10 0 2 -15 25 -32 51 -31 43 -33 50 -31 122 3 69 6 81 38 127 37
55 42 71 23 77 -6 2 -13 28 -15 59 -2 31 -9 58 -17 64 -9 7 -15 36 -17 79 -3
56 -1 71 13 79 13 9 22 5 45 -20 38 -41 92 -52 136 -28 25 13 40 15 67 8 30
-8 35 -13 35 -40 0 -17 8 -40 18 -50 9 -11 17 -28 17 -39 0 -10 7 -28 15 -38
8 -11 15 -30 15 -43 0 -13 7 -26 15 -29 37 -15 9 -75 -51 -110 -22 -13 -31
-61 -15 -77 8 -8 11 -4 11 12 0 24 61 91 83 91 19 0 52 -59 78 -137 23 -72 39
-93 39 -53 0 11 7 23 16 27 22 8 78 -62 84 -106 6 -40 25 -52 35 -22 10 33 28
25 84 -33 47 -51 51 -58 51 -105 0 -27 5 -53 10 -56 13 -8 13 -82 -1 -91 -15
-9 -2 -53 28 -92 19 -25 23 -40 19 -60 -12 -49 -27 -176 -26 -214 0 -21 -6
-54 -15 -74 -8 -20 -15 -47 -15 -59 0 -44 -40 -180 -56 -192 -14 -10 -14 -16
-3 -50 24 -71 61 -76 74 -10 9 42 25 95 42 134 7 17 13 55 13 84 0 33 6 59 16
70 10 12 15 37 15 82 0 45 5 69 15 78 11 9 11 15 3 25 -8 10 -8 26 0 61 6 27
11 71 10 98 -1 28 -1 124 0 215 1 137 -1 167 -14 176 -18 13 -20 51 -3 56 8 3
8 9 2 19 -5 8 -9 28 -10 44 -1 58 -16 180 -24 190 -4 6 -11 35 -15 65 -4 30
-14 64 -21 75 -8 11 -14 32 -14 48 0 16 -7 30 -16 34 -13 5 -15 15 -10 54 5
34 3 51 -8 61 -7 8 -17 38 -21 67 -5 40 -12 55 -26 58 -22 6 -24 14 -6 32 10
10 9 15 -5 25 -10 7 -18 21 -18 31 0 10 -6 26 -13 34 -8 9 -22 39 -32 66 -10
28 -24 55 -31 60 -6 6 -15 27 -18 47 -4 21 -17 50 -30 65 -13 15 -27 39 -31
52 -4 14 -16 39 -26 55 -10 17 -23 40 -28 51 -5 12 -21 32 -35 45 -14 14 -26
29 -26 34 0 4 -13 25 -30 46 -16 21 -30 43 -30 49 0 7 -19 31 -42 54 -24 23
-52 58 -62 77 -11 19 -39 52 -63 73 -24 21 -43 45 -43 53 0 7 -20 28 -44 46
-24 18 -52 45 -61 61 -9 15 -21 27 -26 27 -6 0 -26 15 -44 33 -63 61 -90 84
-108 90 -9 4 -20 14 -24 24 -7 18 -53 62 -66 63 -4 0 -20 11 -35 24 -64 57
-76 66 -118 86 -24 12 -54 32 -66 46 -13 13 -33 24 -45 24 -13 0 -23 5 -23 10
0 6 -10 14 -22 19 -13 5 -39 20 -58 33 -19 13 -43 27 -52 31 -10 3 -18 11 -18
17 0 5 -8 10 -17 10 -10 1 -36 12 -58 25 -58 35 -125 65 -145 65 -10 0 -20 7
-24 15 -3 10 -19 15 -45 15 -25 0 -41 5 -45 15 -3 8 -16 15 -30 15 -13 0 -26
7 -30 15 -3 10 -19 15 -43 15 -21 0 -47 7 -57 15 -11 8 -37 15 -58 15 -25 0
-41 5 -44 15 -4 10 -20 15 -48 15 -23 0 -51 7 -62 15 -11 8 -42 15 -74 15 -30
0 -66 7 -80 15 -14 8 -41 14 -60 15 -20 0 -60 6 -91 14 -60 16 -406 25 -639
16z m-232 -88 c-2 -11 3 -26 11 -35 17 -21 45 -23 38 -2 -8 20 11 29 29 14 12
-10 22 -10 49 0 21 7 92 12 182 12 81 1 184 1 228 2 44 0 127 -3 185 -7 127
-8 126 -8 172 0 34 6 39 4 48 -20 10 -27 4 -56 -11 -56 -5 0 -9 -17 -9 -37 0
-21 -6 -56 -14 -78 -7 -22 -16 -57 -19 -78 -5 -32 -3 -38 10 -35 9 2 21 18 25
36 10 37 16 39 34 15 11 -17 13 -16 19 9 4 14 2 35 -4 46 -12 23 -15 112 -3
112 4 0 8 -18 8 -40 1 -23 4 -43 7 -46 14 -14 27 11 27 52 0 24 5 44 10 44 6
0 16 11 22 25 13 28 25 31 47 11 23 -21 95 -46 186 -63 44 -8 87 -22 96 -29
24 -22 168 -58 234 -59 78 -1 89 -8 81 -54 -16 -90 -22 -158 -16 -191 5 -31 9
-35 34 -32 15 2 39 -4 52 -12 14 -10 45 -16 77 -16 46 0 58 4 90 34 20 18 37
38 37 44 0 14 -84 72 -103 72 -8 0 -22 9 -32 20 -10 11 -24 20 -31 20 -7 0
-16 5 -20 11 -13 21 83 3 142 -27 30 -15 68 -42 83 -59 32 -37 122 -90 168
-100 18 -3 36 -11 39 -17 4 -5 18 -15 33 -22 42 -19 121 -70 121 -78 0 -15
-36 -7 -80 18 -68 39 -141 38 -200 -3 -54 -37 -127 -63 -178 -63 -45 0 -119
26 -152 54 -58 49 -87 64 -128 64 -23 0 -52 8 -64 16 -12 9 -32 16 -43 16 -11
0 -29 7 -39 15 -11 8 -31 15 -45 15 -14 1 -37 7 -51 15 -14 8 -36 14 -49 15
-13 0 -44 7 -70 14 -79 25 -194 46 -248 46 -35 0 -63 7 -88 21 -26 16 -42 19
-56 13 -12 -6 -61 -6 -117 -1 -116 10 -463 1 -529 -13 -26 -6 -79 -15 -118
-20 -81 -10 -272 -53 -363 -81 -34 -10 -64 -19 -67 -19 -10 0 -44 84 -56 134
-8 39 -9 58 0 74 6 11 11 29 11 39 0 28 127 153 155 153 3 0 24 12 48 27 23
15 58 36 77 46 19 11 39 23 45 28 17 17 46 10 43 -9z m-358 -103 c0 -28 -33
-55 -208 -173 -212 -142 -229 -160 -220 -240 5 -39 2 -52 -17 -74 -12 -15 -24
-32 -26 -39 -5 -13 -235 -225 -290 -267 -22 -16 -39 -35 -39 -41 0 -14 -49
-67 -83 -90 -15 -9 -27 -23 -27 -31 0 -7 -11 -21 -25 -30 -14 -9 -25 -25 -25
-35 0 -10 -9 -23 -20 -29 -11 -6 -20 -17 -20 -24 0 -8 -16 -28 -35 -45 -19
-17 -35 -36 -35 -43 -1 -7 -14 -29 -30 -48 -17 -19 -30 -40 -30 -47 0 -7 -13
-27 -29 -45 -15 -18 -33 -49 -40 -69 -7 -21 -25 -51 -41 -68 -20 -20 -30 -41
-30 -61 0 -17 -9 -39 -20 -50 -11 -11 -20 -33 -20 -49 0 -16 -6 -36 -13 -43
-8 -7 -17 -26 -21 -41 -3 -15 -11 -27 -17 -27 -8 0 -8 -5 1 -15 10 -12 8 -23
-9 -58 -12 -24 -21 -54 -21 -67 0 -13 -12 -39 -27 -58 -14 -19 -28 -51 -30
-71 -7 -78 -10 -97 -21 -118 -7 -12 -12 -28 -12 -37 0 -8 -10 -18 -22 -22 -12
-3 -33 -19 -47 -34 -37 -39 -63 -50 -120 -50 -52 0 -76 16 -47 32 9 5 16 20
16 33 0 14 5 25 10 25 6 0 10 10 10 23 0 13 4 27 9 33 5 5 11 20 13 34 2 20
13 29 61 45 36 12 57 25 57 35 0 8 11 31 24 50 23 34 54 130 63 197 3 18 11
37 18 43 8 6 12 17 9 25 -3 7 -1 16 5 20 6 3 11 18 11 33 0 15 11 45 25 67 13
22 25 46 25 53 0 7 12 31 27 55 29 44 67 113 101 182 10 22 27 46 36 54 9 7
16 19 16 27 0 7 17 33 38 58 20 25 50 62 65 83 73 99 237 283 327 367 128 119
132 124 138 173 4 37 1 49 -13 60 -28 20 -42 16 -49 -12 -4 -14 -14 -29 -24
-32 -25 -10 -34 -18 -146 -128 -56 -55 -112 -116 -123 -135 -12 -19 -36 -44
-52 -55 -17 -11 -37 -36 -45 -55 -8 -19 -30 -48 -50 -64 -20 -15 -36 -32 -36
-37 0 -13 -50 -83 -66 -92 -8 -4 -14 -14 -14 -22 0 -8 -13 -30 -30 -48 -16
-19 -30 -43 -30 -53 0 -11 -12 -30 -25 -43 -14 -13 -25 -31 -25 -41 0 -9 -13
-34 -30 -55 -16 -21 -35 -55 -40 -75 -6 -21 -21 -45 -34 -53 -17 -12 -25 -28
-28 -62 -3 -25 -13 -54 -22 -64 -9 -10 -16 -29 -16 -44 0 -14 -4 -29 -10 -32
-5 -3 -10 -17 -10 -31 0 -13 -9 -29 -19 -36 -15 -9 -17 -15 -9 -25 11 -13 8
-25 -23 -85 -5 -10 -9 -31 -9 -46 0 -16 -9 -39 -20 -52 -13 -15 -20 -37 -20
-67 0 -31 -4 -43 -14 -43 -23 0 -46 29 -46 56 0 43 -33 25 -49 -26 -7 -25 -18
-53 -23 -63 -7 -14 -5 -22 8 -32 24 -17 22 -70 -5 -106 -13 -17 -24 -37 -25
-44 -1 -7 -8 -20 -15 -29 -7 -9 -11 -22 -8 -30 8 -19 -11 -138 -24 -150 -12
-13 -12 -63 1 -71 8 -5 7 -11 -1 -21 -7 -8 -12 -33 -11 -54 1 -21 -2 -41 -7
-44 -5 -4 -7 -14 -4 -24 2 -10 -3 -38 -11 -62 -22 -62 -20 -68 16 -78 31 -8
33 -12 35 -53 1 -24 5 -80 8 -124 4 -44 6 -97 5 -118 0 -25 5 -39 15 -43 11
-5 14 -21 12 -74 -1 -44 3 -73 12 -83 7 -9 10 -20 7 -25 -3 -6 1 -29 9 -52 8
-23 15 -60 15 -81 0 -21 4 -41 10 -44 5 -3 10 -25 10 -49 0 -23 5 -47 10 -52
6 -6 15 -33 20 -60 12 -66 35 -134 76 -222 19 -40 37 -84 40 -99 11 -42 123
-263 134 -263 5 0 17 -17 25 -37 9 -20 31 -53 50 -72 19 -19 35 -39 35 -44 0
-11 65 -77 76 -77 3 0 3 15 -1 32 -3 18 -7 46 -7 61 -1 20 -4 25 -11 18 -19
-19 -29 -12 -23 15 6 21 0 32 -32 62 -21 20 -53 56 -71 80 -36 47 -211 391
-211 415 0 8 -8 39 -19 69 -10 29 -24 69 -30 88 -31 87 -41 154 -38 249 2 82
6 104 22 121 16 18 17 23 5 30 -8 6 -18 10 -22 10 -4 0 -5 7 -2 14 3 8 -6 27
-20 42 -14 16 -30 46 -35 68 -5 23 -15 61 -21 86 -25 107 -30 133 -30 172 0
24 -7 49 -16 59 -29 32 15 76 52 51 19 -13 44 -91 38 -120 -4 -18 0 -41 10
-60 9 -17 16 -50 16 -74 0 -24 7 -53 15 -66 10 -13 15 -37 13 -59 l-3 -38 40
3 c60 4 81 -5 104 -42 17 -28 19 -39 11 -61 -8 -22 -7 -31 5 -45 8 -9 15 -24
15 -32 0 -9 9 -35 20 -59 11 -24 20 -56 20 -71 0 -15 7 -33 15 -42 8 -8 15
-29 15 -46 0 -18 9 -43 20 -57 11 -14 20 -35 20 -47 0 -11 11 -41 25 -65 14
-23 25 -51 25 -61 0 -10 20 -44 44 -77 24 -32 55 -81 69 -110 15 -28 42 -69
62 -90 19 -21 38 -47 41 -58 4 -11 15 -33 26 -48 16 -22 18 -33 10 -57 -6 -16
-8 -37 -5 -48 2 -11 -2 -33 -11 -50 -9 -17 -16 -40 -16 -51 0 -11 -7 -26 -15
-35 -8 -8 -15 -26 -15 -41 0 -14 -7 -28 -15 -31 -8 -4 -15 -14 -15 -25 0 -10
-9 -23 -19 -29 -11 -5 -21 -22 -23 -37 -2 -23 -7 -28 -28 -25 -14 1 -36 11
-50 21 -29 21 -162 208 -190 267 -11 22 -28 49 -40 59 -11 10 -20 24 -20 30 0
7 -7 18 -15 25 -8 7 -15 23 -15 36 0 12 -7 29 -15 38 -8 8 -15 21 -15 29 0 8
-6 20 -14 26 -7 6 -24 42 -36 79 -13 37 -34 84 -47 105 -13 20 -26 59 -30 85
-3 26 -12 56 -19 67 -8 11 -14 35 -14 55 0 19 -7 44 -15 54 -8 11 -15 35 -15
53 0 19 -6 44 -14 56 -8 12 -15 43 -14 69 0 25 -6 57 -13 70 -7 12 -14 67 -17
121 -3 66 -8 97 -16 94 -15 -5 -13 -171 3 -220 7 -21 17 -61 21 -90 15 -91 30
-151 40 -161 6 -6 10 -28 10 -51 0 -22 7 -53 15 -69 8 -15 15 -39 15 -52 0
-13 16 -59 36 -101 42 -90 50 -110 59 -140 4 -13 10 -23 15 -23 5 0 11 -14 15
-31 6 -28 43 -112 66 -149 5 -8 16 -28 23 -45 8 -16 23 -42 34 -56 12 -14 24
-39 28 -55 4 -16 18 -39 31 -51 12 -12 23 -28 23 -36 0 -8 7 -20 15 -27 8 -7
15 -20 15 -29 0 -9 25 -41 55 -71 30 -30 55 -60 55 -67 0 -7 11 -23 24 -34 14
-12 22 -27 20 -33 -3 -7 9 -25 26 -42 17 -16 36 -38 42 -49 11 -20 11 -20 -12
0 -41 36 -145 146 -149 158 -2 7 -10 17 -16 22 -17 14 -95 122 -95 132 -1 4
-14 24 -30 43 -17 19 -30 42 -30 52 0 10 -9 22 -19 26 -36 13 -107 131 -234
387 -89 178 -107 220 -107 248 0 13 -7 32 -15 43 -8 10 -15 37 -15 60 0 22 -7
49 -15 60 -8 10 -15 38 -15 60 0 23 -6 47 -14 53 -8 7 -17 38 -20 69 -10 94
-12 108 -22 123 -4 8 -8 42 -7 76 2 43 -2 65 -11 70 -9 5 -18 48 -26 123 -15
146 -22 478 -9 485 5 4 3 14 -3 25 -10 15 -9 30 2 67 7 26 16 80 19 120 3 40
12 78 19 85 6 6 12 23 12 36 0 35 37 90 71 107 36 19 36 28 1 54 -48 37 -52
41 -52 66 0 17 9 29 30 40 37 19 100 74 100 87 0 5 20 32 44 60 24 28 42 57
39 64 -2 7 5 17 16 24 12 6 21 19 21 29 0 10 7 24 15 31 8 7 15 19 15 26 0 8
11 31 23 52 13 20 26 57 30 81 3 25 12 48 21 53 11 6 16 24 16 57 0 31 5 53
15 61 9 8 15 30 15 59 0 25 4 53 9 60 6 9 6 22 1 31 -6 11 -4 24 6 39 9 12 14
31 13 44 -2 12 -1 27 2 32 4 6 9 22 13 38 4 16 13 27 24 27 9 0 46 31 82 69
36 38 97 90 135 117 63 43 104 82 191 179 102 114 221 225 257 238 12 4 28 15
37 23 26 26 201 151 244 174 23 12 60 32 82 45 23 12 52 29 65 38 30 22 39 21
39 -1 0 -17 -49 -62 -67 -62 -9 0 -109 -67 -135 -90 -9 -8 -42 -35 -72 -60
-48 -39 -55 -49 -51 -72 3 -19 -1 -30 -13 -37 -16 -10 -16 -10 0 -11 9 0 39
21 65 48 85 84 233 189 358 256 28 15 88 47 135 72 47 25 89 50 95 55 13 13
55 11 55 -2z m1165 -359 c127 -8 208 -20 318 -49 37 -9 77 -40 77 -60 0 -11
25 -21 55 -21 12 0 28 -7 35 -15 8 -9 30 -15 59 -15 53 -1 97 -29 87 -56 -5
-13 -15 -15 -54 -10 -125 17 -145 18 -167 6 -26 -14 -57 -10 -63 8 -2 8 7 12
29 12 19 0 29 4 23 9 -12 11 -196 1 -192 -11 5 -13 107 -47 144 -48 35 0 59
-22 70 -63 3 -16 17 -33 30 -39 27 -13 31 -40 9 -58 -8 -7 -15 -21 -15 -32 0
-16 -5 -19 -23 -14 -17 4 -30 -1 -47 -19 -13 -14 -29 -25 -37 -25 -18 0 -17
49 2 56 8 4 15 18 15 33 0 25 -5 29 -51 39 -28 7 -76 15 -107 18 -31 3 -68 10
-82 15 -25 10 -167 25 -322 35 -66 5 -78 3 -78 -10 0 -8 9 -20 20 -26 28 -15
25 -38 -6 -46 -30 -8 -44 8 -37 37 8 29 -26 24 -37 -5 -13 -36 -31 -42 -51
-18 -20 25 -37 28 -45 8 -9 -23 -35 -28 -55 -10 -16 15 -19 14 -34 -10 -23
-34 -40 -33 -62 4 -18 31 -27 35 -77 31 -50 -4 -76 7 -76 33 0 40 34 61 101
60 60 -1 79 14 43 34 -29 16 -5 35 37 29 25 -3 45 0 61 11 16 12 49 17 110 19
82 2 88 1 88 -17 0 -11 -4 -20 -10 -20 -5 0 -10 -7 -10 -15 0 -19 3 -19 52 6
24 12 50 18 63 15 13 -3 38 -3 57 1 29 7 25 8 -35 14 -72 6 -123 33 -121 63 1
9 -2 16 -7 16 -5 0 -9 -4 -9 -10 0 -6 -36 -10 -87 -10 -66 -1 -98 -6 -128 -20
-22 -11 -62 -20 -90 -20 -44 -1 -47 -3 -25 -11 23 -10 24 -11 7 -21 -10 -5
-30 -7 -45 -3 -40 10 -132 88 -132 112 0 21 56 43 109 43 27 0 53 5 56 10 8
13 115 13 115 1 0 -5 -9 -13 -20 -16 -42 -13 -6 -25 78 -25 91 0 130 12 102
30 -11 7 -12 12 -3 21 28 28 149 34 388 19z m922 -225 c35 -19 74 -41 86 -50
14 -10 45 -15 88 -15 73 0 137 -21 145 -48 26 -80 35 -84 59 -26 8 19 22 37
32 40 10 3 33 12 51 20 98 43 134 56 199 69 30 6 34 4 43 -22 9 -23 117 -136
140 -145 22 -9 190 -229 190 -248 0 -6 19 -32 43 -58 23 -26 49 -60 57 -77 23
-48 51 -76 66 -65 9 8 15 3 22 -20 6 -16 16 -30 21 -30 6 0 11 -4 11 -10 0 -5
14 -39 30 -73 17 -35 30 -80 30 -100 0 -24 6 -40 19 -49 11 -8 21 -32 25 -60
4 -26 11 -50 17 -53 5 -4 9 -17 9 -30 0 -13 8 -29 18 -34 16 -10 15 -12 -8
-30 -26 -21 -27 -20 24 -35 9 -3 12 -14 8 -31 -3 -17 0 -30 9 -36 10 -6 15
-32 16 -86 1 -43 2 -82 2 -86 1 -5 10 -5 21 -2 19 6 20 3 18 -59 -2 -39 1 -65
7 -65 14 0 23 -37 24 -106 1 -38 7 -69 17 -84 11 -15 14 -34 11 -55 -6 -39 20
-79 48 -74 20 3 55 -45 42 -58 -8 -8 -62 13 -152 60 -33 17 -74 37 -91 46 -40
19 -75 72 -82 122 -2 21 -9 41 -13 44 -5 3 -9 18 -9 33 0 15 -7 36 -15 47 -8
10 -15 31 -15 45 0 15 -7 32 -15 39 -8 7 -15 23 -15 35 0 12 -7 28 -16 35 -11
10 -14 23 -9 49 10 60 -5 70 -130 81 -121 11 -165 18 -180 30 -5 4 -21 11 -35
15 -38 12 -92 71 -85 94 3 11 1 22 -5 26 -5 3 -10 15 -10 25 0 11 -9 34 -20
52 -11 18 -20 48 -20 65 0 22 -7 37 -20 45 -15 10 -20 24 -20 60 0 49 -12 61
-29 31 -8 -16 -16 -11 -61 35 -49 50 -52 56 -45 90 4 20 18 49 33 65 l26 27
-58 55 c-31 30 -63 55 -71 55 -7 0 -22 11 -33 24 -10 14 -41 42 -68 62 -27 20
-70 56 -96 80 -26 24 -52 44 -59 44 -11 0 -71 45 -118 88 -13 12 -34 22 -47
22 -22 0 -44 19 -138 118 -79 86 -37 111 81 47z m-1079 -117 c7 -7 12 -20 12
-30 0 -23 -52 -25 -70 -3 -25 30 30 61 58 33z m100 -25 c3 -20 -1 -23 -27 -23
-35 0 -48 15 -30 36 18 22 53 14 57 -13z m78 19 c6 -4 15 -18 19 -31 7 -22 9
-23 20 -8 16 22 54 22 70 0 12 -15 16 -16 39 -4 20 11 31 12 49 3 12 -6 39
-16 60 -22 20 -6 37 -14 37 -18 0 -16 -46 -52 -67 -52 -19 0 -23 5 -24 33 0
30 -1 31 -11 10 -10 -21 -28 -26 -85 -23 -5 1 -7 10 -5 21 3 18 0 20 -20 14
-13 -4 -26 -12 -29 -18 -4 -5 -10 -3 -15 6 -5 9 -26 17 -49 19 -34 2 -41 7
-43 27 -3 15 3 30 14 38 20 15 25 15 40 5z m-626 -47 c0 -16 -35 -21 -44 -6
-8 12 4 21 26 21 10 0 18 -7 18 -15z m725 -145 c3 -5 17 -10 30 -10 13 0 41
-14 60 -32 30 -26 38 -29 46 -17 5 8 9 20 9 27 0 18 35 15 61 -7 21 -17 22
-22 12 -40 -7 -11 -13 -25 -13 -30 0 -6 -11 -22 -24 -36 -26 -28 -66 -28 -66
0 0 20 -13 26 -86 36 -76 11 -124 32 -124 56 0 40 76 83 95 53z m835 -275 c0
-9 -9 -15 -25 -15 -16 0 -25 6 -25 15 0 9 9 15 25 15 16 0 25 -6 25 -15z m44
-41 c24 -9 19 -39 -8 -52 -20 -9 -27 -7 -46 13 -21 22 -21 24 -3 34 21 12 35
13 57 5z m76 -87 c0 -29 -18 -47 -47 -47 -34 0 -41 29 -14 52 33 26 61 24 61
-5z m-70 -144 c34 -29 26 -59 -23 -82 -57 -27 -75 -27 -83 4 -5 19 1 34 22 59
33 39 55 44 84 19z m78 -108 c6 -14 16 -25 22 -25 18 0 10 -25 -12 -40 -48
-30 -93 -50 -115 -50 -17 0 -23 7 -29 35 -3 20 -5 37 -3 39 38 27 105 66 114
66 7 0 17 -11 23 -25z m196 -51 c9 -3 16 -15 16 -25 0 -14 -7 -19 -29 -19 -16
0 -36 -6 -44 -14 -16 -17 -37 -3 -37 24 0 34 49 51 94 34z m61 -104 c8 -16 15
-36 15 -45 0 -9 6 -18 14 -21 8 -3 22 -31 31 -62 29 -97 66 -206 74 -217 5 -5
13 -29 19 -53 12 -52 0 -107 -29 -125 -11 -7 -19 -23 -19 -39 0 -31 -12 -42
-40 -33 -30 9 -28 65 3 73 22 6 22 6 -3 12 -16 4 -28 16 -33 35 -5 17 -13 44
-19 60 -6 17 -12 44 -15 60 -2 17 -9 40 -15 52 -14 28 -5 51 24 62 24 10 23
11 -29 27 -7 2 -14 13 -14 24 -1 11 -2 26 -3 33 -1 6 6 11 14 9 19 -5 7 8 -22
22 -17 8 -24 22 -26 49 -3 30 -9 40 -28 47 -28 11 -33 46 -6 53 9 3 34 5 54 6
32 1 40 -3 53 -29z m-157 0 c20 -17 23 -27 20 -69 -3 -46 0 -52 30 -79 21 -19
35 -42 39 -65 5 -32 2 -37 -33 -61 -46 -31 -101 -35 -111 -8 -4 9 -13 23 -20
30 -17 18 -16 44 2 68 22 29 19 33 -27 36 -40 3 -43 5 -41 32 3 36 9 42 28 26
24 -20 55 14 55 60 0 55 17 64 58 30z m87 -316 c18 -12 25 -25 25 -50 0 -18 5
-36 11 -39 6 -4 9 -29 8 -57 -2 -41 1 -53 18 -66 14 -11 23 -31 25 -57 l3 -40
-64 -3 c-49 -2 -68 1 -82 14 -22 20 -25 52 -5 60 8 3 17 12 20 20 6 15 4 21
-28 81 -9 17 -16 44 -16 60 0 16 -6 35 -12 41 -10 10 -10 15 2 22 8 5 23 10
33 10 9 0 17 5 17 10 0 15 17 12 45 -6z m185 -349 c0 -20 -5 -25 -24 -25 -14
0 -28 5 -31 10 -12 19 4 40 30 40 20 0 25 -5 25 -25z m-129 -15 c14 -8 19 -21
19 -50 0 -34 -3 -39 -27 -44 -16 -2 -50 -4 -78 -3 l-50 2 0 45 0 45 50 6 c28
3 54 7 58 7 5 1 17 -3 28 -8z m-3470 -2583 c-16 -16 -26 20 -10 40 13 15 14
14 17 -7 2 -12 -1 -27 -7 -33z m1192 -354 c-7 -2 -13 -16 -13 -29 0 -23 -14
-32 -24 -16 -11 19 7 52 28 51 11 0 15 -3 9 -6z m587 -133 c0 -5 -15 -10 -32
-9 -28 0 -30 2 -13 9 28 12 45 12 45 0z"/>
<path d="M2141 5919 c-45 -44 -64 -79 -44 -79 3 0 25 20 48 44 23 24 50 48 59
53 15 8 15 11 3 21 -11 10 -24 2 -66 -39z"/>
<path d="M2034 5797 c-3 -9 -10 -17 -16 -17 -14 0 -78 -70 -78 -86 0 -25 17
-23 38 6 12 16 22 34 22 40 0 5 6 10 13 10 8 0 22 9 32 20 14 15 16 23 7 32
-8 8 -13 7 -18 -5z"/>
<path d="M1840 5570 c0 -24 25 -27 34 -4 9 23 8 24 -14 24 -13 0 -20 -7 -20
-20z"/>
<path d="M1782 5516 c-13 -15 -20 -30 -16 -41 6 -13 11 -11 35 17 15 18 28 36
29 41 0 15 -26 6 -48 -17z"/>
<path d="M1736 5414 c-4 -10 -1 -14 6 -12 15 5 23 28 10 28 -5 0 -13 -7 -16
-16z"/>
<path d="M1677 5383 c-4 -3 -7 -16 -7 -27 0 -12 -9 -29 -20 -39 -23 -20 -26
-40 -6 -56 11 -9 15 -6 20 15 4 15 18 41 32 59 13 17 24 37 24 43 0 13 -32 16
-43 5z"/>
<path d="M1564 5168 c-16 -24 -32 -45 -35 -48 -11 -10 -16 -48 -8 -61 8 -12
11 -11 19 1 5 8 10 23 10 33 0 10 6 20 14 23 8 3 17 13 20 22 3 9 11 25 18 34
9 12 9 21 2 28 -8 8 -19 -2 -40 -32z"/>
<path d="M1450 4944 c-11 -26 -20 -49 -20 -52 0 -3 -7 -13 -15 -22 -12 -13
-14 -28 -7 -71 l9 -54 8 62 c4 35 14 68 21 74 8 6 14 17 14 24 0 7 7 18 15 25
16 14 21 60 5 60 -5 0 -18 -21 -30 -46z"/>
<path d="M1355 4687 c-12 -17 -28 -46 -38 -63 -17 -31 -16 -32 8 -48 32 -21
38 -20 30 3 -3 11 -1 22 5 26 5 3 10 16 10 29 0 12 7 31 15 42 8 10 15 25 15
32 0 23 -25 12 -45 -21z"/>
<path d="M1106 3612 c-2 -4 -5 -57 -5 -117 0 -61 -1 -131 -1 -157 -1 -49 13
-65 23 -28 3 11 2 71 -2 133 -5 62 -6 127 -3 145 4 30 -1 41 -12 24z"/>
<path d="M1362 3046 c-34 -40 -36 -63 -8 -97 15 -18 26 -43 26 -60 0 -16 9
-42 21 -58 11 -15 22 -45 25 -67 3 -21 11 -49 19 -61 8 -12 15 -31 15 -41 0
-18 109 -245 130 -269 6 -7 15 -23 20 -35 6 -13 18 -34 28 -48 9 -14 31 -47
47 -73 17 -25 35 -47 40 -47 12 0 35 55 35 82 0 25 -38 103 -60 123 -11 10
-20 24 -20 31 0 7 -8 21 -18 31 -10 10 -27 41 -37 68 -10 28 -28 64 -40 80
-13 17 -25 46 -29 66 -4 21 -13 42 -21 49 -8 7 -15 27 -15 44 0 17 -6 40 -13
51 -17 24 -67 179 -67 205 0 11 -12 26 -29 34 -26 14 -29 14 -49 -8z"/>
<path d="M4163 5876 c4 -12 140 -31 162 -22 8 3 15 12 15 19 0 11 -21 14 -90
14 -61 0 -89 -4 -87 -11z"/>
<path d="M5205 5749 c-4 -6 -5 -11 -4 -13 66 -44 86 -46 51 -6 -29 32 -37 36
-47 19z"/>
<path d="M5403 5639 c-13 -4 -23 -11 -23 -14 0 -4 32 -45 72 -93 115 -139 158
-176 158 -137 0 8 -9 19 -20 25 -11 6 -20 19 -20 29 0 11 -7 21 -15 25 -8 3
-22 22 -30 43 -9 22 -28 45 -45 55 -16 9 -35 30 -42 46 -11 25 -16 29 -35 21z"/>
<path d="M5755 5631 c-51 -13 -77 -33 -69 -56 3 -11 8 -33 11 -48 3 -16 16
-40 28 -54 54 -60 60 -69 57 -84 -2 -9 4 -22 13 -29 8 -7 15 -25 15 -40 0 -15
9 -35 20 -45 10 -9 25 -34 31 -53 7 -20 18 -42 25 -50 7 -7 16 -29 20 -50 9
-49 38 -88 71 -97 l28 -7 -34 -17 -34 -18 32 -24 c39 -29 64 -73 56 -99 -8
-24 30 -50 85 -57 58 -8 72 7 64 71 -4 28 -12 58 -20 66 -7 8 -14 33 -16 55
-3 41 -17 49 -59 31 -13 -6 -25 9 -54 66 -21 40 -46 81 -56 91 -23 22 -24 40
-4 57 13 11 13 14 -2 26 -17 13 -17 15 1 29 10 8 22 12 26 10 18 -11 19 30 3
66 -17 37 -45 51 -58 29 -3 -5 -31 -10 -61 -10 -60 0 -80 18 -50 48 13 14 21
14 49 4 18 -7 40 -12 49 -12 26 0 30 30 8 57 -11 14 -20 34 -20 44 0 24 -83
109 -106 108 -11 -1 -32 -4 -49 -8z"/>
<path d="M6000 5266 c0 -17 85 -174 92 -170 15 10 8 43 -16 71 -14 16 -26 45
-28 64 -2 26 -8 35 -25 37 -13 2 -23 1 -23 -2z"/>
<path d="M5720 5118 c0 -16 5 -28 10 -28 13 0 13 20 0 40 -8 12 -10 9 -10 -12z"/>
<path d="M6287 5093 c-15 -15 -6 -33 17 -33 33 0 42 16 17 29 -23 13 -26 13
-34 4z"/>
<path d="M6237 4976 c-26 -21 -27 -24 -11 -30 12 -4 23 -1 29 7 6 8 22 17 35
19 14 1 24 8 23 13 -4 19 -48 14 -76 -9z"/>
<path d="M6020 4720 c0 -5 12 -10 26 -10 14 0 23 4 19 10 -3 6 -15 10 -26 10
-10 0 -19 -4 -19 -10z"/>
<path d="M6195 4720 c-8 -12 20 -24 35 -15 6 3 8 11 5 16 -8 12 -32 12 -40 -1z"/>
<path d="M6380 4715 c0 -10 7 -15 18 -13 21 4 19 22 -2 26 -10 2 -16 -3 -16
-13z"/>
<path d="M3062 5916 c-46 -53 -152 -286 -152 -336 0 -8 -6 -26 -13 -40 -17
-33 -29 -141 -17 -159 17 -29 38 7 45 77 3 37 15 99 25 139 11 39 20 79 20 88
0 9 10 31 23 48 12 18 30 48 41 67 10 19 32 50 49 68 26 27 38 32 76 32 l46 0
-30 25 c-43 35 -77 32 -113 -9z"/>
<path d="M3224 5871 c21 -23 26 -26 26 -11 0 5 -10 15 -22 21 -23 12 -23 12
-4 -10z"/>
<path d="M3151 5658 c-11 -18 -26 -40 -34 -48 -11 -11 -16 -59 -21 -190 -8
-208 -10 -220 -41 -220 -34 0 -49 -56 -21 -79 8 -7 17 -30 21 -52 4 -21 11
-41 16 -45 16 -10 10 -98 -10 -127 -27 -42 -59 -61 -76 -47 -8 6 -19 9 -24 5
-16 -9 -78 23 -95 50 -8 13 -20 44 -27 69 -6 25 -15 46 -19 46 -23 0 -14 -95
11 -124 20 -22 78 -112 93 -141 8 -16 30 -45 50 -64 29 -28 36 -41 36 -73 0
-75 36 -25 54 76 6 33 5 38 -8 32 -9 -3 -23 -9 -32 -13 -30 -12 -4 39 53 102
29 33 56 71 60 85 10 38 43 78 74 89 22 7 31 21 45 68 20 64 21 96 10 293 -7
131 -14 161 -63 298 -9 23 -20 42 -25 42 -4 0 -17 -15 -27 -32z m2 -474 c20
-26 16 -59 -9 -68 -22 -9 -47 68 -27 87 10 11 17 8 36 -19z"/>
<path d="M3380 5633 c0 -9 6 -24 14 -32 23 -27 68 -163 78 -237 9 -67 9 -74
-17 -125 -15 -30 -43 -76 -62 -103 -28 -40 -36 -60 -40 -112 -3 -41 -1 -64 5
-64 16 0 110 110 132 155 32 64 53 85 98 98 24 7 44 17 45 23 1 5 -13 16 -30
25 -50 25 -60 36 -65 77 -3 20 -26 78 -51 127 -25 50 -56 111 -68 138 -23 48
-39 60 -39 30z"/>
<path d="M4710 5628 c-7 -16 -17 -28 -22 -28 -4 0 -8 -9 -8 -20 0 -11 -6 -23
-14 -26 -8 -3 -17 -13 -20 -22 -3 -9 -15 -30 -26 -47 -11 -16 -24 -39 -30 -50
-6 -11 -23 -42 -39 -70 -17 -27 -30 -63 -30 -78 -1 -31 -24 -45 -46 -27 -10 9
-32 10 -70 5 -36 -4 -61 -3 -69 4 -16 13 -60 0 -88 -26 -16 -14 -18 -14 -24 1
-4 10 1 25 11 36 17 19 17 20 -31 40 -27 12 -56 25 -64 29 -9 5 -31 12 -50 16
-45 9 -152 46 -164 56 -5 5 -2 19 8 33 9 14 16 43 16 64 0 32 -4 41 -22 45
-29 8 -32 3 -16 -22 11 -18 10 -22 -6 -34 -15 -11 -18 -23 -14 -61 5 -39 2
-48 -13 -57 -12 -6 -19 -21 -19 -38 0 -35 -31 -65 -59 -56 -15 5 -21 2 -21 -9
0 -9 6 -16 14 -16 10 0 13 -13 12 -47 -1 -41 -5 -48 -31 -63 -31 -17 -42 -44
-44 -108 -1 -39 -56 -122 -80 -122 -9 0 -21 -8 -26 -18 -6 -10 -19 -35 -29
-55 -11 -20 -28 -39 -38 -43 -13 -4 -17 -12 -13 -24 4 -13 -1 -22 -15 -30 -11
-6 -20 -15 -20 -20 0 -18 21 -10 46 17 14 15 43 37 64 48 37 19 120 113 120
135 0 20 27 10 56 -21 l29 -31 -53 -48 c-34 -31 -74 -55 -109 -67 -60 -19 -69
-29 -53 -53 7 -12 12 -12 22 -2 17 17 58 15 58 -3 0 -19 17 -19 54 0 32 17
171 21 181 5 3 -5 16 -10 28 -10 36 0 118 -61 165 -122 38 -49 46 -67 55 -131
13 -94 0 -148 -58 -226 -79 -107 -182 -171 -275 -171 -27 0 -59 -5 -69 -12
-23 -14 -55 -3 -47 17 3 9 0 15 -9 15 -8 0 -36 22 -62 48 -57 57 -129 195
-144 277 -10 53 -9 60 21 121 17 35 35 64 41 64 6 0 8 4 5 9 -3 5 -15 7 -26 4
-32 -9 -23 14 20 48 22 18 40 36 40 41 0 29 -109 -23 -110 -53 0 -9 -7 -22
-15 -29 -8 -6 -13 -22 -12 -33 1 -16 -4 -23 -23 -25 -13 -2 -29 -11 -35 -19
-9 -12 -16 -13 -33 -4 -30 16 -42 14 -42 -8 0 -14 -5 -18 -19 -14 -11 3 -42
-10 -75 -31 -55 -35 -86 -45 -86 -27 0 8 29 49 55 77 5 7 39 48 75 93 36 44
75 84 88 87 12 3 22 10 22 14 0 4 15 18 34 31 19 13 37 31 39 40 4 15 1 16
-27 7 -17 -6 -37 -15 -43 -21 -15 -11 -43 8 -43 29 0 20 29 44 54 44 24 0 64
35 53 46 -12 12 -102 -17 -144 -46 -23 -17 -44 -30 -48 -30 -11 0 -53 -54 -72
-92 -10 -21 -25 -38 -34 -38 -29 0 -63 -100 -39 -115 15 -9 2 -25 -21 -25 -10
0 -19 -6 -19 -14 0 -7 -6 -19 -14 -25 -17 -15 -42 -90 -51 -156 -4 -27 -14
-65 -21 -84 -8 -18 -14 -40 -14 -48 0 -8 -26 -67 -58 -131 -80 -163 -84 -175
-117 -331 -10 -48 -12 -78 -6 -84 7 -7 6 -18 -1 -31 -6 -12 -12 -57 -12 -101
-1 -44 -5 -85 -9 -92 -4 -7 -5 -23 -1 -37 4 -18 15 -27 42 -33 30 -7 38 -14
40 -36 4 -36 17 -34 28 5 11 37 31 48 41 22 4 -10 22 -33 40 -52 19 -18 33
-43 33 -56 0 -13 7 -29 15 -36 9 -7 12 -22 9 -40 -6 -29 -8 -27 113 -152 25
-27 52 -48 60 -48 7 0 16 -7 19 -15 4 -8 12 -15 20 -15 8 0 14 -7 14 -15 0 -8
-7 -15 -15 -15 -9 0 -18 7 -21 15 -4 8 -14 15 -23 15 -28 0 -211 175 -235 224
-9 18 -22 39 -31 46 -8 7 -15 26 -15 43 0 33 -15 27 -22 -8 -2 -11 -13 -24
-26 -30 -12 -5 -22 -15 -22 -22 0 -7 -8 -17 -17 -22 -10 -6 -12 -11 -6 -11 7
0 27 9 45 20 43 26 50 25 42 -4 -3 -13 -1 -27 5 -30 6 -4 11 -14 11 -23 0 -13
65 -82 136 -144 11 -10 29 -29 41 -44 13 -14 28 -23 34 -20 6 4 26 -9 45 -29
20 -21 41 -35 47 -33 7 2 21 -3 32 -12 11 -10 40 -26 65 -36 25 -11 50 -25 55
-32 6 -6 21 -13 35 -15 17 -2 26 -10 28 -25 4 -25 12 -29 29 -12 17 17 60 2
66 -23 5 -18 8 -19 21 -8 11 8 30 10 60 6 36 -6 43 -10 39 -25 -7 -26 14 -35
40 -18 29 18 136 29 177 17 24 -7 47 -6 79 4 37 10 59 11 111 1 36 -6 72 -14
80 -17 40 -16 84 -28 88 -23 12 11 -10 35 -32 35 -36 0 -42 18 -9 31 34 13 93
3 108 -18 7 -9 17 -13 24 -9 9 6 8 12 -4 26 -16 17 -15 19 4 29 35 19 61 13
73 -16 7 -16 18 -36 26 -45 13 -16 12 -19 -12 -28 -15 -5 -33 -10 -41 -10 -8
0 -17 -4 -20 -10 -3 -5 -17 -10 -31 -10 -14 0 -34 -5 -45 -10 -28 -15 -118 -1
-141 22 -24 24 -52 16 -43 -12 9 -29 -17 -26 -46 5 -28 29 -99 36 -99 10 0 -8
5 -15 10 -15 15 0 12 -17 -5 -24 -25 -9 -47 5 -42 26 7 26 -12 32 -65 20 -37
-9 -40 -11 -20 -17 27 -9 27 -9 -3 -49 -14 -18 -25 -44 -25 -57 0 -39 -14 -53
-48 -46 -16 3 -34 1 -40 -5 -8 -8 -24 -7 -56 3 -45 13 -46 14 -40 46 8 41 -16
95 -48 110 -13 6 -43 14 -68 18 -24 3 -52 13 -61 21 -28 25 -63 14 -69 -21 -4
-21 -12 -31 -26 -33 -30 -4 -42 43 -19 69 10 10 14 22 11 27 -7 12 -164 37
-173 28 -4 -3 -13 0 -22 8 -9 7 -25 16 -36 18 -11 3 -28 9 -39 13 -16 7 -17 5
-8 -12 15 -28 108 -66 160 -65 23 0 42 -4 42 -9 0 -5 7 -9 15 -9 20 0 19 -29
0 -37 -14 -5 -14 -8 -2 -22 8 -9 18 -31 22 -48 6 -30 4 -33 -16 -33 -12 0 -37
11 -55 25 -18 14 -37 25 -42 25 -5 0 -17 9 -27 20 -26 28 -79 44 -105 30 -27
-14 -58 2 -66 35 -6 26 -18 32 -29 15 -3 -6 -17 -7 -31 -4 -28 7 -54 -10 -54
-37 0 -29 -23 -22 -48 15 -26 38 -29 84 -15 195 9 72 22 84 47 46 17 -26 68
-36 81 -15 3 5 -27 41 -67 80 -42 41 -75 65 -79 59 -3 -6 -7 -36 -7 -68 0 -31
-8 -69 -16 -85 -11 -22 -12 -35 -5 -49 8 -13 7 -38 -1 -82 -9 -47 -9 -68 0
-84 12 -24 6 -41 -15 -41 -8 0 -30 -10 -50 -21 -31 -19 -39 -20 -66 -9 -16 7
-36 25 -44 41 -19 36 -19 79 -1 79 18 0 30 17 17 25 -6 3 -18 -3 -28 -13 -42
-42 -50 -44 -77 -27 -26 17 -53 86 -41 105 3 6 15 10 26 10 10 0 19 6 19 14 0
11 22 25 51 30 3 1 22 -12 43 -29 32 -25 37 -34 32 -58 -5 -23 -1 -29 18 -37
13 -5 31 -19 39 -31 20 -28 53 -19 37 10 -5 11 -10 29 -10 41 0 11 -17 37 -38
58 -21 20 -46 54 -57 76 -11 21 -32 48 -48 59 -15 12 -37 41 -48 65 -12 24
-28 46 -35 49 -8 3 -14 18 -14 34 0 22 -5 29 -20 29 -16 0 -20 -7 -20 -35 0
-25 -6 -37 -22 -46 -13 -6 -34 -22 -48 -35 -23 -21 -29 -22 -63 -12 -20 6 -37
15 -37 20 0 5 -13 0 -29 -11 -37 -27 -48 -26 -53 2 -7 36 1 47 38 47 40 0 42
9 10 39 -15 14 -26 19 -31 12 -8 -14 -42 -14 -50 -1 -10 16 15 41 38 38 23 -3
34 13 42 65 4 23 11 37 20 37 20 0 19 29 0 36 -10 4 -15 20 -15 49 0 24 -4 47
-10 50 -19 12 -10 64 15 90 31 30 46 32 63 4 11 -16 16 -18 28 -9 16 14 19 46
4 55 -5 3 -30 -1 -55 -10 -67 -22 -93 -20 -107 10 -9 21 -8 32 5 60 17 36 17
36 99 20 23 -4 41 19 33 44 -3 11 -7 75 -9 143 l-4 123 -32 -3 c-31 -3 -31 -3
-28 35 3 36 5 38 36 35 40 -3 41 13 1 33 -22 12 -29 22 -27 38 4 29 75 76 116
77 37 0 41 -14 10 -40 -21 -16 -23 -26 -20 -92 2 -40 3 -119 3 -176 0 -116 9
-155 35 -145 12 4 15 18 13 57 -1 28 2 60 6 70 6 13 5 21 -3 24 -14 4 -16 58
-2 67 6 4 5 13 -2 25 -9 14 -9 33 1 83 7 36 14 91 16 122 4 63 -9 77 -47 51
-12 -9 -31 -16 -41 -16 -29 0 -83 -47 -127 -111 -44 -65 -49 -88 -21 -96 27
-7 47 -58 31 -78 -25 -30 -74 -16 -96 26 -12 24 -21 29 -49 29 -20 0 -35 -5
-35 -12 0 -6 -7 -20 -17 -30 -9 -10 -13 -21 -9 -26 4 -4 13 1 20 11 20 26 46
22 46 -8 0 -17 -7 -28 -23 -34 -31 -12 -50 -37 -43 -57 6 -15 8 -15 25 0 18
17 20 17 30 -2 9 -16 6 -23 -12 -36 l-22 -15 23 -7 c28 -8 28 -21 1 -50 -23
-25 -18 -44 12 -44 26 0 25 -34 -2 -59 l-21 -19 26 -17 c30 -20 33 -38 9 -64
-42 -46 -43 -50 -37 -107 7 -58 28 -82 46 -51 5 10 18 17 28 17 16 0 20 -7 20
-30 0 -27 -3 -30 -30 -30 -34 0 -37 -10 -14 -46 l17 -25 11 23 c6 13 20 24 29
26 15 3 18 -2 15 -30 -3 -31 -5 -33 -35 -30 -35 2 -42 -12 -23 -46 5 -9 21
-53 35 -97 15 -44 33 -94 41 -112 8 -17 14 -36 14 -43 0 -19 53 -89 73 -96 11
-3 26 1 36 10 21 19 61 21 61 3 0 -7 -9 -21 -21 -30 -27 -24 -19 -42 19 -43
42 -1 48 -9 32 -39 -18 -34 -2 -52 29 -34 29 19 49 -1 25 -25 -12 -13 -14 -20
-5 -29 14 -14 14 -50 0 -64 -15 -15 -1 -37 75 -117 59 -61 64 -74 44 -106 -10
-15 -9 -32 5 -86 10 -36 17 -68 15 -69 -2 -2 -25 8 -53 21 -31 15 -76 52 -117
96 -37 40 -70 69 -74 65 -13 -12 18 -96 37 -102 11 -4 19 -13 19 -22 0 -9 9
-25 20 -37 77 -82 120 -135 120 -149 0 -10 6 -17 14 -17 8 0 27 -16 43 -36 28
-35 33 -36 113 -45 72 -7 87 -6 102 8 17 15 20 15 38 -2 18 -17 27 -17 91 -8
39 6 74 14 77 18 4 4 -3 14 -15 22 -13 9 -23 20 -23 26 0 15 71 0 84 -19 16
-21 164 -43 293 -44 50 0 94 -4 97 -8 9 -14 258 -1 281 14 28 20 68 17 97 -5
21 -17 31 -18 69 -10 24 6 58 8 74 6 17 -3 41 1 55 8 14 7 43 16 63 20 31 6
42 4 61 -14 20 -19 31 -21 82 -16 32 3 84 10 114 16 108 21 135 22 149 5 17
-21 41 -21 41 0 0 12 6 15 23 10 12 -3 41 -6 64 -6 23 0 48 -6 55 -13 14 -14
67 -15 162 -4 34 4 58 1 78 -9 34 -17 64 -11 78 17 7 13 21 19 43 19 18 0 52
9 75 20 22 11 46 20 52 20 6 0 16 11 22 25 6 14 22 32 35 40 22 15 23 20 17
75 -7 66 6 114 37 131 12 6 19 21 19 41 l0 31 -22 -19 c-27 -23 -76 -49 -82
-43 -2 2 1 30 6 62 8 43 7 61 -2 72 -10 12 -6 26 20 72 39 69 121 183 132 183
4 0 15 15 24 33 9 17 37 54 60 81 24 26 44 56 44 65 0 9 7 27 17 40 15 23 15
25 -3 38 -26 19 -39 11 -42 -26 -2 -21 -20 -53 -48 -88 -24 -30 -52 -66 -61
-81 -9 -15 -39 -50 -67 -79 l-50 -52 -39 22 c-38 21 -77 65 -77 85 0 20 41 25
59 8 17 -15 19 -15 31 -1 11 14 10 17 -8 22 -29 7 -28 34 3 67 13 14 22 32 19
40 -6 16 14 33 46 38 28 3 33 26 9 41 -13 8 -24 4 -49 -21 -38 -39 -59 -40
-98 -7 -17 14 -34 25 -40 25 -5 0 -15 7 -22 15 -24 28 4 40 86 36 49 -2 80 1
90 10 8 7 32 15 52 18 28 5 38 11 40 29 3 19 -1 22 -28 22 -35 0 -98 37 -129
76 l-21 27 22 24 c26 28 40 29 76 4 15 -10 39 -26 55 -35 21 -13 27 -24 27
-51 0 -32 3 -35 29 -35 25 0 28 3 24 25 -7 32 30 51 70 36 29 -11 33 -22 17
-51 -7 -13 -6 -21 5 -30 26 -21 40 -6 36 38 -2 41 -2 42 30 42 31 0 32 1 14
14 -16 12 -18 19 -10 43 9 25 16 28 61 31 47 3 51 5 66 38 9 19 12 37 7 40
-14 8 -11 34 6 50 9 9 15 34 15 60 0 25 7 56 16 69 11 16 14 34 9 55 -4 20 -2
38 8 53 9 14 17 62 22 122 3 55 11 105 16 111 5 6 5 14 -1 20 -5 5 -10 27 -12
49 -3 34 -7 41 -28 43 -14 2 -29 10 -33 18 -8 15 -37 20 -37 6 0 -4 8 -18 17
-31 13 -19 17 -48 17 -125 1 -88 -1 -101 -16 -101 -27 0 -32 -13 -18 -40 7
-14 11 -27 9 -29 -5 -4 -98 25 -116 37 -23 15 -2 37 36 37 38 0 70 14 58 26
-4 4 -24 10 -44 13 -29 5 -39 11 -41 29 -4 29 -30 29 -34 0 -3 -21 -9 -23 -80
-26 -76 -3 -77 -3 -94 28 -22 36 -61 41 -88 11 -17 -19 -17 -21 9 -55 14 -19
31 -36 36 -38 5 -2 5 -16 -1 -37 -7 -25 -6 -42 5 -68 23 -54 18 -89 -19 -146
-76 -115 -101 -128 -101 -55 0 51 -18 67 -23 22 -2 -15 -15 -42 -29 -61 -14
-18 -20 -33 -14 -33 18 0 12 -34 -9 -53 -11 -9 -20 -23 -20 -31 0 -8 -11 -23
-25 -34 -15 -12 -25 -30 -25 -44 0 -30 -33 -63 -55 -55 -21 9 -19 23 7 49 20
20 20 22 3 35 -28 20 -45 16 -45 -12 0 -34 -37 -34 -50 -1 -5 14 -18 30 -29
35 -13 7 -21 24 -23 46 -4 46 -22 50 -26 6 -2 -19 -12 -46 -23 -59 -10 -14
-19 -35 -19 -48 0 -15 -6 -24 -15 -24 -10 0 -15 -10 -15 -27 -1 -25 -2 -26
-14 -10 -19 24 -25 22 -81 -29 -27 -25 -63 -52 -79 -60 -15 -9 -56 -34 -90
-57 -58 -40 -148 -82 -190 -89 -30 -5 -29 -23 1 -35 25 -9 26 -11 9 -18 -12
-5 -30 -2 -51 9 -39 21 -120 19 -120 -4 0 -9 12 -17 30 -20 20 -4 26 -8 17
-13 -7 -5 -27 -4 -45 1 -54 17 -97 21 -212 23 -60 1 -115 6 -122 11 -7 5 -39
12 -72 14 -32 2 -75 11 -95 19 -19 8 -47 15 -61 15 -32 0 -96 32 -129 65 -14
14 -34 25 -45 25 -19 0 -43 19 -150 118 -25 24 -56 51 -68 59 -13 8 -23 23
-23 33 0 10 -6 23 -14 29 -8 7 -12 20 -9 31 3 12 -7 38 -26 66 -17 26 -31 55
-31 64 0 9 -16 30 -35 47 -42 37 -44 60 -9 73 25 10 25 18 -1 50 -7 8 -15 26
-18 40 -30 146 -41 187 -54 202 -13 14 -12 20 10 55 25 38 36 117 17 128 -5 3
-4 21 1 40 6 19 7 40 4 46 -4 5 -2 15 3 22 5 7 13 34 17 61 3 27 13 63 20 80
8 17 21 58 30 91 10 33 19 66 21 74 3 10 17 12 54 8 32 -4 65 -1 95 9 41 14
49 14 95 -1 47 -15 53 -16 75 -1 33 22 38 20 31 -9 -5 -19 -2 -25 9 -25 9 0
25 -19 36 -46 11 -25 31 -61 45 -81 13 -20 24 -44 24 -53 0 -17 69 -70 90 -70
5 0 10 -6 10 -13 0 -15 -69 -47 -180 -84 -100 -34 -140 -55 -178 -94 l-33 -33
23 -18 c13 -10 26 -18 29 -18 3 0 40 22 80 50 41 27 101 59 133 71 53 20 60
21 70 7 6 -9 20 -18 31 -20 14 -3 19 -11 18 -26 -3 -21 0 -22 32 -16 20 3 59
7 89 8 29 1 64 9 77 17 32 22 109 99 109 110 0 5 20 22 44 38 25 15 78 62 118
104 40 42 89 83 108 92 19 9 55 27 79 40 24 14 53 25 63 25 11 0 29 6 41 12
12 7 56 15 97 18 l75 5 3 50 c1 28 7 60 14 72 19 38 5 50 -64 55 -35 3 -67 2
-72 -3 -20 -18 -74 -9 -104 16 l-30 25 -15 -23 -15 -22 -11 25 c-15 37 -49 76
-57 67 -5 -4 -1 -22 8 -40 40 -79 58 -125 58 -145 0 -27 -49 -104 -61 -96 -5
3 -9 43 -9 89 0 68 -4 93 -22 127 -32 62 -163 188 -196 188 -7 0 -20 7 -28 15
-23 22 -219 22 -228 -1 -3 -9 -15 -14 -26 -12 -27 4 -29 22 -4 27 10 2 22 9
27 16 4 8 21 17 39 20 17 4 51 18 76 31 25 13 49 24 53 24 5 0 27 -16 49 -37
50 -45 62 -36 51 35 -6 39 -5 55 5 63 25 21 15 32 -22 26 -59 -10 -109 16
-131 69 -20 49 -33 57 -33 20 0 -35 10 -56 26 -56 8 0 14 -7 14 -15 0 -8 -6
-15 -12 -15 -19 1 -58 36 -58 53 0 8 -7 20 -15 27 -18 15 -20 55 -2 76 38 48
59 64 82 64 20 0 25 5 25 25 0 14 -7 28 -15 31 -22 9 -19 51 4 64 27 14 57 14
121 -3 38 -9 55 -19 55 -30 0 -8 3 -18 6 -21 3 -3 64 -8 137 -11 72 -2 140 -9
149 -14 10 -5 26 -12 36 -15 30 -10 13 -31 -27 -34 -24 -2 -42 2 -49 11 -10
12 -34 14 -124 10 -74 -4 -113 -9 -113 -17 0 -7 37 -12 112 -14 62 -1 117 -7
122 -12 11 -11 85 -14 110 -4 12 5 16 20 16 60 0 47 2 54 20 54 11 0 23 0 27
1 4 0 11 -13 15 -30 5 -16 22 -45 39 -63 17 -18 37 -40 45 -49 21 -24 18 -69
-5 -69 -10 0 -21 -8 -24 -19 -6 -23 -51 -25 -202 -7 -60 8 -123 14 -140 15
-66 2 -118 40 -130 93 -4 18 -16 30 -36 37 -33 11 -35 16 -13 38 20 21 3 40
-45 49 -26 6 -33 4 -29 -7 3 -8 16 -14 29 -14 34 0 31 -29 -3 -33 -40 -5 -35
-17 17 -42 49 -24 55 -38 27 -63 -25 -23 -31 -21 -43 10 -12 31 -26 21 -31
-21 -4 -37 -28 -48 -28 -13 0 32 -9 57 -22 57 -17 0 4 -75 30 -102 19 -21 35
-28 61 -28 24 0 40 -6 48 -19 9 -15 29 -19 110 -25 260 -17 363 -19 377 -7 10
8 16 9 21 1 3 -5 29 -10 56 -10 47 0 50 -2 47 -22 l-3 -23 -233 -3 c-200 -2
-233 0 -238 13 -4 8 -15 15 -25 15 -16 0 -18 -6 -13 -44 4 -25 2 -52 -6 -65
-11 -21 -13 -21 -35 -7 -33 22 -55 20 -55 -3 0 -24 103 -96 125 -87 18 6 45
-2 45 -15 0 -5 -9 -9 -20 -9 -25 0 -25 -5 -1 -36 19 -25 19 -25 26 -3 5 16 12
19 28 14 12 -4 78 -10 147 -15 133 -8 160 -14 160 -36 0 -8 9 -14 20 -14 19 0
20 4 15 53 -12 105 4 95 -152 90 -94 -4 -143 -10 -153 -19 -22 -18 -42 -3 -55
42 -12 45 -35 57 -35 20 0 -16 -6 -26 -15 -26 -11 0 -15 12 -15 49 0 50 13 74
24 46 4 -12 24 -15 85 -15 95 0 111 -5 104 -31 -6 -22 23 -37 40 -20 8 8 6 15
-9 25 -18 14 -18 15 -2 21 11 4 32 -1 53 -14 44 -26 70 -27 87 -3 15 20 63 52
78 52 6 0 18 -17 27 -37 12 -31 14 -67 11 -188 -3 -82 0 -178 5 -213 9 -57 14
-67 52 -98 23 -19 45 -34 50 -34 4 0 16 -11 26 -24 11 -14 30 -28 42 -32 26
-8 46 -32 47 -56 0 -22 -28 -24 -36 -3 -4 10 -20 15 -45 15 -21 0 -61 9 -89
20 l-51 20 -29 -22 c-17 -12 -30 -30 -30 -40 0 -10 -7 -18 -15 -18 -12 0 -14
9 -11 36 6 43 27 61 84 70 74 11 42 34 -49 34 -40 0 -56 -7 -106 -44 -33 -24
-69 -49 -81 -55 -32 -17 -30 -74 3 -103 14 -12 25 -28 25 -35 0 -8 12 -13 30
-13 18 0 33 -6 37 -15 3 -9 19 -23 35 -31 21 -11 29 -21 25 -34 -3 -12 2 -20
14 -23 13 -4 19 -14 19 -36 0 -35 15 -42 23 -11 3 13 14 20 29 20 12 0 30 4
38 10 12 7 12 12 -4 29 -24 26 -13 61 20 61 21 0 24 -4 24 -40 0 -24 -5 -40
-12 -40 -9 0 -9 -3 0 -12 17 -17 15 -80 -3 -104 -20 -26 -19 -44 3 -44 22 0
91 -50 92 -66 0 -5 -23 -20 -50 -32 -52 -23 -152 -30 -179 -13 -24 15 -5 38
38 45 31 5 39 10 34 22 -3 8 2 20 11 27 14 10 11 15 -28 36 -52 27 -101 23
-92 -7 4 -12 -9 -26 -47 -50 -29 -18 -86 -64 -127 -103 -81 -77 -155 -119
-210 -119 -19 0 -52 -5 -73 -11 -41 -11 -147 4 -147 22 0 13 -76 49 -105 49
-14 0 -40 -7 -56 -16 -17 -8 -49 -16 -72 -17 l-42 -2 2 48 c2 36 -1 47 -12 47
-11 0 -15 -11 -15 -40 0 -36 6 -47 60 -99 33 -33 60 -68 60 -79 0 -26 50 -47
87 -36 16 4 51 8 78 9 53 2 120 16 220 46 33 10 87 23 120 30 45 10 77 26 135
70 l75 56 69 -2 c59 -2 71 -5 87 -26 16 -21 18 -22 24 -6 8 18 36 22 63 8 17
-9 91 -1 123 13 13 6 20 -1 28 -27 16 -48 6 -80 -40 -124 -46 -45 -48 -55 -13
-73 20 -11 29 -12 44 -2 11 7 25 12 32 12 7 1 25 19 41 41 22 31 25 44 17 59
-6 11 -12 69 -15 129 -3 69 -10 124 -21 148 -8 21 -17 58 -20 83 -2 25 -7 79
-11 120 l-8 75 -50 0 c-43 0 -50 3 -50 20 0 18 6 20 52 17 63 -4 80 3 60 26
-15 17 -20 35 -18 60 2 19 25 14 39 -8 12 -20 37 -27 45 -12 3 4 8 33 12 65
l7 58 -28 -7 c-51 -13 -79 -8 -108 19 -23 21 -26 30 -17 41 9 11 8 15 -4 20
-40 15 -2 96 46 96 44 0 71 -32 67 -83 -3 -42 -3 -42 -40 -41 -21 1 -38 -3
-38 -7 0 -5 19 -9 43 -9 33 0 48 6 64 24 39 45 43 60 28 107 -17 55 -44 109
-55 109 -4 0 -13 12 -18 28 -6 15 -15 33 -20 41 -14 20 -49 -3 -57 -39 -4 -16
-11 -32 -16 -35 -5 -4 -9 -14 -9 -25 0 -10 -15 -27 -35 -39 -30 -17 -39 -19
-56 -8 -28 17 -32 44 -27 162 5 121 20 155 68 155 26 0 33 -7 60 -60 26 -51
53 -80 74 -80 10 0 6 59 -4 65 -5 3 -10 19 -10 36 0 19 -5 29 -15 29 -8 0 -15
7 -15 15 0 8 -4 15 -8 15 -12 0 -116 102 -130 126 -10 18 -11 17 -21 -9 -13
-34 -31 -27 -31 13 0 19 7 33 20 40 23 12 27 30 7 30 -16 0 -57 41 -57 57 0 6
7 13 15 17 18 6 20 26 3 26 -7 0 -29 16 -49 36 -36 35 -42 64 -13 64 15 0 19
16 5 24 -19 12 -20 80 -1 135 51 149 78 222 87 233 21 26 44 80 40 91 -2 7
-10 0 -17 -15z m-640 -577 c0 -24 -13 -33 -34 -25 -19 7 -21 30 -3 37 25 11
37 6 37 -12z m264 -585 c11 -69 -14 -135 -27 -70 -6 32 3 114 13 114 4 0 11
-20 14 -44z m606 -21 c0 -16 -17 -19 -44 -9 -22 9 -10 24 20 24 15 0 24 -6 24
-15z m-532 -28 c2 -20 -1 -27 -14 -27 -13 0 -14 3 -4 15 9 10 9 15 1 15 -6 0
-11 7 -11 16 0 26 25 9 28 -19z m110 -4 c-2 -14 -8 -28 -14 -30 -17 -6 -26 27
-13 43 18 22 31 16 27 -13z m-1108 0 c-8 -3 -21 -12 -27 -21 -7 -9 -16 -12
-20 -8 -10 10 26 36 46 35 14 0 14 -1 1 -6z m1376 -264 c3 -6 2 -14 -2 -19
-12 -11 -57 7 -49 20 8 13 42 13 51 -1z m-76 -94 c0 -15 -6 -25 -14 -25 -8 0
-16 -7 -20 -15 -8 -23 -49 -18 -81 9 -44 38 -29 56 50 56 63 0 65 -1 65 -25z
m86 -173 c3 -9 19 -25 35 -35 17 -9 29 -23 27 -30 -6 -15 -48 -22 -48 -8 0 6
-5 11 -11 11 -6 0 -8 -9 -4 -20 5 -16 2 -20 -14 -20 -17 0 -20 5 -15 30 4 18
1 36 -6 45 -7 8 -10 22 -6 30 8 21 37 19 42 -3z m-2534 -113 c16 -9 19 -17 14
-42 -4 -17 -12 -35 -19 -39 -20 -13 -114 -9 -124 5 -17 21 -23 60 -11 74 13
16 111 17 140 2z m3213 -99 c3 -11 34 -33 70 -51 79 -39 95 -56 102 -110 5
-37 4 -41 -10 -36 -12 5 -17 1 -17 -12 0 -11 6 -21 12 -23 18 -6 -6 -58 -27
-58 -8 0 -15 -9 -15 -20 0 -11 5 -20 10 -20 12 0 13 -37 1 -44 -5 -4 -16 -3
-25 0 -12 5 -14 10 -6 19 12 14 -7 25 -44 25 -28 0 -59 32 -54 57 4 24 60 30
77 9 10 -12 18 -13 33 -5 17 9 18 13 7 20 -8 5 -23 9 -35 9 -27 0 -57 33 -52
57 4 22 43 29 74 12 13 -7 27 -9 31 -4 5 4 2 10 -6 13 -7 2 -23 14 -34 25 -18
18 -34 21 -109 22 -97 0 -108 6 -108 58 0 37 18 70 35 63 7 -2 26 -1 42 4 41
12 41 12 48 -10z m-657 -62 c3 -15 -4 -18 -35 -18 -51 0 -72 14 -47 29 28 16
78 9 82 -11z m639 -95 c3 -9 1 -34 -6 -57 -6 -23 -16 -57 -21 -76 -10 -39 -33
-60 -68 -60 -34 0 -18 -17 23 -24 28 -6 35 -11 35 -31 0 -19 10 -28 46 -44 58
-26 58 -54 1 -59 -31 -3 -39 1 -48 21 -10 22 -14 23 -40 14 -23 -9 -36 -7 -72
11 -24 12 -49 22 -56 22 -15 0 -14 27 2 33 9 3 9 9 -1 27 -16 26 -4 40 35 40
30 0 38 17 35 76 -3 36 1 54 12 63 9 8 16 21 16 31 0 25 9 30 57 30 31 0 45
-5 50 -17z m-2557 -84 c0 -12 -7 -19 -18 -19 -28 0 -34 11 -16 31 19 21 34 16
34 -12z m-792 -44 c11 -24 10 -25 -18 -25 -25 0 -30 4 -30 25 0 18 5 25 18 25
11 0 24 -11 30 -25z m3382 -65 c0 -5 15 -13 33 -18 35 -9 51 -47 23 -58 -41
-16 -121 43 -102 75 9 14 46 15 46 1z m-612 -179 c9 -17 24 -32 32 -34 25 -6
14 -88 -12 -95 -15 -3 -18 -10 -14 -28 3 -12 2 -26 -4 -29 -6 -4 -7 -13 -1
-23 7 -13 2 -24 -20 -46 -28 -28 -38 -56 -21 -56 12 0 52 39 52 50 0 6 7 10
15 10 16 0 13 -34 -8 -75 -13 -25 -88 -95 -103 -95 -6 0 -23 -11 -38 -25 -28
-26 -51 -32 -60 -16 -3 4 -33 -5 -66 -20 -93 -45 -122 -35 -54 18 20 15 53 43
73 61 19 17 39 32 44 32 5 0 26 18 48 41 l39 40 -27 25 c-28 26 -39 29 -48 14
-3 -6 1 -13 9 -16 9 -4 16 -18 16 -34 0 -37 -38 -48 -80 -23 -33 19 -54 10
-25 -11 18 -13 18 -15 2 -40 -12 -17 -26 -26 -43 -26 -15 0 -41 -13 -61 -30
-18 -16 -40 -30 -47 -30 -8 0 -25 20 -39 45 -21 36 -23 46 -12 55 8 7 23 9 34
5 14 -4 21 0 26 15 4 14 15 20 36 20 20 0 29 5 29 16 0 12 6 15 25 10 19 -5
25 -2 25 10 0 9 9 18 20 21 10 3 22 14 25 24 5 15 10 17 26 9 10 -6 19 -7 19
-2 0 4 14 23 31 40 17 18 29 38 26 45 -4 10 2 13 21 9 22 -4 25 -2 15 9 -18
18 -16 39 2 39 9 0 15 9 15 25 0 23 3 25 28 19 26 -7 27 -6 10 13 -18 20 -23
45 -11 56 14 15 35 6 51 -22z m272 -106 c0 -25 -32 -38 -105 -43 -41 -2 -75
-8 -75 -12 0 -4 -9 -10 -20 -13 -21 -6 -28 9 -7 16 6 2 12 17 12 33 0 26 4 29
41 34 23 4 52 13 65 21 21 15 26 14 56 -4 18 -10 33 -25 33 -32z m-420 0 c0
-8 -7 -15 -15 -15 -8 0 -15 -7 -15 -15 0 -8 -7 -15 -15 -15 -8 0 -15 -7 -15
-15 0 -8 -7 -15 -15 -15 -8 0 -15 -7 -15 -15 0 -8 -7 -15 -15 -15 -8 0 -15 7
-15 15 0 8 7 15 15 15 8 0 15 7 15 15 0 8 7 15 15 15 8 0 15 5 15 10 0 14 33
48 48 49 6 1 12 -6 12 -14z m-2237 -62 c8 -10 18 -30 22 -45 6 -22 3 -27 -17
-33 -12 -4 -39 -20 -58 -35 -19 -15 -42 -25 -50 -22 -41 13 -56 86 -20 97 11
3 20 10 20 15 0 5 14 11 30 15 17 4 30 11 30 16 0 15 26 10 43 -8z m-245 -30
c-3 -30 -25 -42 -34 -19 -9 22 2 46 21 46 12 0 15 -8 13 -27z m1068 -28 c4 -8
14 -15 24 -15 26 0 35 -19 14 -27 -10 -4 -22 0 -29 10 -7 10 -19 17 -28 17
-18 0 -30 14 -20 24 11 11 34 6 39 -9z m1269 4 c4 -6 -2 -13 -14 -16 -12 -3
-21 -12 -21 -19 0 -8 -9 -14 -20 -14 -11 0 -20 7 -20 15 0 8 9 15 20 15 11 0
20 7 20 15 0 17 26 20 35 4z m-2286 -47 c13 -25 -2 -46 -28 -37 -23 7 -27 25
-9 43 17 17 26 15 37 -6z m2753 -6 c8 -7 28 -21 46 -30 24 -13 32 -23 32 -45
0 -39 -41 -76 -74 -67 -21 5 -26 3 -26 -13 0 -11 -13 -30 -28 -43 -78 -64
-107 -83 -126 -83 -15 -1 -20 -6 -18 -20 2 -11 5 -33 5 -50 2 -28 -1 -30 -35
-33 -34 -3 -38 -1 -38 21 0 13 -9 36 -21 51 -14 18 -19 34 -15 51 6 25 30 34
41 15 12 -19 43 -10 49 14 3 13 27 47 54 75 49 52 84 65 110 39 18 -18 16 11
-2 31 -26 30 -28 59 -7 80 25 25 35 26 53 7z m-567 -5 c3 -5 1 -12 -4 -15 -13
-8 -42 4 -35 15 7 12 31 12 39 0z m-77 -38 c2 -8 -5 -13 -17 -13 -12 0 -21 6
-21 16 0 18 31 15 38 -3z m-1853 -233 c3 -6 -1 -13 -9 -16 -9 -3 -16 -12 -16
-19 0 -7 -7 -18 -16 -25 -21 -18 -49 9 -40 38 8 26 69 42 81 22z m586 -42 c16
-12 29 -29 29 -39 0 -9 7 -22 15 -29 13 -11 15 -34 11 -137 -3 -78 -9 -129
-17 -139 -21 -26 4 -38 39 -20 17 9 53 16 80 16 31 0 51 5 54 13 2 6 1 89 -3
182 -3 94 -3 173 0 176 3 4 46 4 95 1 l89 -5 -6 -164 c-4 -90 -12 -190 -19
-223 -9 -47 -9 -63 0 -72 9 -9 12 -8 12 4 0 9 4 28 10 43 8 20 13 24 27 17 25
-13 41 -5 58 27 12 25 12 31 -6 57 -32 49 -25 75 43 154 l37 43 35 -17 c59
-28 76 -59 76 -137 0 -37 -4 -69 -8 -71 -4 -1 -18 -20 -31 -41 -21 -34 -27
-37 -52 -32 -25 6 -29 3 -35 -20 -3 -14 -4 -41 -1 -60 5 -28 1 -36 -18 -49
-21 -14 -35 -14 -102 -5 -50 7 -159 9 -306 6 l-228 -6 -10 26 c-7 19 -4 39 12
85 11 33 19 61 17 63 -1 2 -27 -1 -56 -6 -30 -4 -84 -4 -120 0 -37 5 -68 8
-68 7 -1 0 5 -37 12 -80 10 -56 11 -83 4 -90 -11 -11 -129 -11 -162 0 -16 5
-18 24 -18 224 0 232 2 244 53 304 18 20 25 21 224 18 191 -3 207 -5 234 -24z
m919 22 l126 0 37 -57 c20 -32 52 -76 72 -97 19 -22 35 -47 35 -55 0 -9 9 -27
20 -41 11 -14 20 -30 20 -37 0 -14 28 -43 42 -43 12 0 2 69 -18 115 -7 18 -16
73 -20 123 l-7 92 183 -3 183 -2 -2 -151 c-1 -82 -6 -168 -11 -189 -5 -22 -8
-41 -6 -42 1 -2 17 2 34 8 34 12 166 8 196 -6 17 -7 18 -6 11 16 -4 13 -10
102 -12 197 l-5 172 91 0 91 0 0 -224 c0 -186 -2 -226 -15 -236 -8 -7 -15 -18
-15 -24 0 -6 -11 -21 -24 -33 -23 -22 -30 -23 -234 -23 l-210 0 -16 25 c-9 13
-16 33 -16 43 0 10 -4 22 -9 28 -6 5 -7 25 -1 49 12 54 6 273 -9 308 -16 40
-35 29 -43 -24 -13 -85 -9 -278 8 -351 11 -46 13 -73 6 -77 -5 -3 -46 -5 -91
-3 -62 3 -81 7 -81 18 0 8 -5 14 -10 14 -6 0 -13 8 -17 18 -7 18 -53 80 -90
121 -13 13 -23 30 -23 38 0 8 -8 27 -18 41 -10 15 -22 35 -25 45 -7 17 -34 34
-42 25 -5 -5 11 -63 25 -89 12 -23 25 -229 14 -230 -54 -6 -317 -2 -321 5 -3
5 -4 41 -3 80 2 39 2 157 1 263 -2 177 -1 192 16 196 10 3 27 3 38 1 11 -2 76
-4 145 -4z m-1492 -73 c2 -10 -3 -17 -12 -17 -10 0 -16 9 -16 21 0 24 23 21
28 -4z m690 -189 c-6 -18 -28 -21 -28 -4 0 9 7 16 16 16 9 0 14 -5 12 -12z
m570 -179 c-2 -6 -8 -10 -13 -10 -5 0 -11 4 -13 10 -2 6 4 11 13 11 9 0 15 -5
13 -11z m-873 -74 c1 -11 4 -27 6 -35 3 -11 -3 -14 -24 -12 -19 2 -34 -4 -45
-18 -11 -13 -30 -22 -51 -23 -46 -3 -51 20 -8 38 26 11 36 22 41 45 5 29 8 31
43 28 28 -2 37 -8 38 -23z m785 -40 c0 -16 -35 -21 -44 -6 -8 12 4 21 26 21
10 0 18 -7 18 -15z m80 0 c0 -9 -9 -15 -25 -15 -16 0 -25 6 -25 15 0 9 9 15
25 15 16 0 25 -6 25 -15z"/>
<path d="M4830 3041 l-25 -7 22 -8 c24 -8 43 -1 43 15 0 10 -4 10 -40 0z"/>
<path d="M4785 2963 c-19 -13 -19 -15 -2 -27 9 -7 17 -23 17 -35 0 -28 10 -26
38 10 18 22 20 29 8 29 -8 0 -21 9 -28 19 -12 17 -16 17 -33 4z"/>
<path d="M4492 2768 c5 -15 48 -24 48 -10 0 10 -23 22 -42 22 -5 0 -8 -6 -6
-12z"/>
<path d="M2789 2418 c-11 -75 -2 -111 25 -89 21 17 126 24 174 12 23 -7 46
-10 50 -7 4 2 6 23 4 46 -4 38 -6 41 -26 34 -28 -11 -175 -11 -203 -1 -13 5
-23 7 -24 5z"/>
<path d="M3350 2135 c0 -19 5 -35 10 -35 6 0 10 16 10 35 0 19 -4 35 -10 35
-5 0 -10 -16 -10 -35z"/>
<path d="M4016 2494 c-9 -24 -5 -403 5 -409 13 -9 16 25 18 215 2 173 -6 238
-23 194z"/>
<path d="M2445 5570 c-3 -6 1 -13 10 -16 19 -8 30 0 20 15 -8 14 -22 14 -30 1z"/>
<path d="M2343 5548 c-4 -7 -25 -22 -46 -33 -20 -11 -40 -29 -43 -40 -7 -20
-28 -46 -71 -90 -13 -12 -23 -27 -23 -33 0 -6 -13 -25 -30 -42 -16 -17 -30
-35 -30 -41 0 -6 -12 -26 -26 -45 l-26 -34 23 -20 c31 -26 54 -21 54 10 0 17
8 29 26 37 15 7 32 20 40 29 11 13 10 17 -4 25 -24 14 -21 26 9 33 14 4 35 16
47 27 21 20 22 21 3 34 -20 15 -18 17 34 29 28 7 66 74 50 90 -5 5 0 20 12 37
12 16 19 31 16 35 -4 3 -10 -1 -15 -8z"/>
<path d="M2506 5513 c4 -13 -5 -31 -25 -52 -16 -17 -33 -40 -36 -50 -3 -11
-14 -21 -25 -24 -11 -3 -23 -13 -27 -24 -3 -10 -21 -34 -40 -53 -57 -60 -103
-117 -103 -128 0 -6 -16 -26 -35 -45 -19 -19 -35 -39 -35 -44 0 -6 -7 -13 -15
-17 -8 -3 -15 -11 -15 -19 0 -7 -20 -32 -45 -54 -27 -24 -45 -49 -45 -62 0
-12 -7 -35 -15 -51 -9 -17 -11 -30 -5 -30 17 0 44 33 69 84 13 26 30 50 37 53
8 3 30 28 49 57 19 28 50 64 70 80 19 16 35 35 35 41 0 7 16 28 35 48 19 20
35 40 35 46 0 5 12 20 28 33 34 30 88 98 103 130 6 13 20 30 31 37 17 11 26
10 53 -5 38 -20 79 -13 96 17 14 27 -1 39 -52 39 -20 0 -57 3 -82 6 -42 6 -45
5 -41 -13z"/>
<path d="M4789 5513 c-38 -45 -89 -271 -89 -394 0 -57 3 -64 46 -120 25 -32
49 -59 54 -59 4 0 14 -2 22 -5 24 -9 20 56 -5 83 -19 21 -22 34 -22 115 0 51
5 112 12 137 19 73 26 222 10 243 -12 18 -13 18 -28 0z"/>
<path d="M5232 5508 c3 -7 13 -15 22 -16 12 -3 17 1 14 10 -3 7 -13 15 -22 16
-12 3 -17 -1 -14 -10z"/>
<path d="M2606 5394 c-9 -23 -9 -24 29 -40 40 -16 55 -12 55 16 0 35 -72 56
-84 24z"/>
<path d="M2820 5109 c0 -45 2 -50 15 -39 13 11 20 9 40 -10 14 -13 25 -29 25
-35 0 -13 48 -61 53 -54 12 14 37 75 37 89 0 26 -29 79 -50 90 -26 14 -30 13
-30 -10 0 -11 5 -20 10 -20 6 0 10 -6 10 -14 0 -30 -21 -25 -58 14 -22 22 -42
40 -46 40 -3 0 -6 -23 -6 -51z"/>
<path d="M2018 5128 c14 -14 16 -48 3 -48 -6 0 -13 5 -16 10 -10 17 -25 11
-25 -10 0 -11 2 -20 5 -20 15 0 75 30 75 37 -1 15 -27 43 -41 43 -10 0 -10 -3
-1 -12z"/>
<path d="M4167 5084 c-11 -12 3 -24 29 -24 15 0 24 6 24 15 0 15 -40 21 -53 9z"/>
<path d="M4365 5080 c-8 -12 59 -50 88 -50 14 0 30 8 36 18 9 15 13 15 31 4
20 -12 21 -11 18 10 -3 22 -7 23 -86 24 -45 1 -84 -2 -87 -6z"/>
<path d="M3650 5000 c-9 -16 -8 -20 5 -20 8 0 15 9 15 20 0 11 -2 20 -5 20 -2
0 -9 -9 -15 -20z"/>
<path d="M1945 4990 c-4 -6 -3 -16 3 -22 6 -6 12 -6 17 2 4 6 3 16 -3 22 -6 6
-12 6 -17 -2z"/>
<path d="M2185 4980 c3 -5 15 -10 26 -10 10 0 19 5 19 10 0 6 -12 10 -26 10
-14 0 -23 -4 -19 -10z"/>
<path d="M3506 4965 c-4 -10 1 -15 14 -15 11 0 20 7 20 15 0 8 -6 15 -14 15
-8 0 -16 -7 -20 -15z"/>
<path d="M4935 4950 c-3 -5 -14 -10 -24 -10 -10 0 -26 -9 -36 -20 -17 -19 -17
-21 1 -42 54 -63 48 -60 67 -29 24 41 17 141 -8 101z"/>
<path d="M2750 4915 c0 -8 5 -15 10 -15 6 0 10 7 10 15 0 8 -4 15 -10 15 -5 0
-10 -7 -10 -15z"/>
<path d="M1867 4913 c-10 -9 -9 -43 1 -43 4 0 13 5 20 12 9 9 13 7 18 -5 7
-20 34 -23 34 -4 0 21 -17 40 -29 32 -7 -4 -18 -2 -25 4 -7 6 -16 8 -19 4z"/>
<path d="M3495 4900 c-3 -6 1 -13 10 -16 19 -8 30 0 20 15 -8 14 -22 14 -30 1z"/>
<path d="M2768 4853 c-24 -28 -26 -45 -12 -82 8 -18 11 -37 8 -42 -15 -24 -96
9 -113 48 -10 21 -16 24 -39 18 -35 -9 -37 -11 -21 -31 12 -14 10 -19 -10 -36
-17 -13 -21 -22 -13 -30 7 -7 1 -24 -24 -59 -19 -27 -34 -52 -34 -55 0 -3 -13
-26 -30 -51 -16 -24 -30 -54 -30 -67 0 -13 -7 -29 -15 -36 -8 -7 -15 -29 -15
-49 0 -20 -4 -41 -9 -47 -14 -13 -25 -104 -14 -104 18 0 41 35 46 70 12 78 47
194 65 214 11 12 24 36 30 55 7 18 27 54 45 80 18 25 36 54 40 64 3 9 13 17
21 17 17 0 51 -50 39 -59 -20 -14 -62 -78 -69 -106 -4 -16 -20 -43 -36 -59
-15 -17 -28 -40 -28 -52 0 -13 -12 -59 -26 -104 -21 -65 -24 -83 -14 -95 7 -8
15 -15 19 -15 10 0 41 60 41 80 0 11 6 34 14 52 8 18 18 50 21 71 3 20 10 37
15 37 6 0 10 5 10 11 0 6 14 24 30 41 17 16 30 40 30 53 0 13 6 28 13 32 8 4
16 16 20 26 3 9 14 17 22 17 12 0 15 -6 9 -22 -10 -33 -52 -98 -85 -133 -23
-25 -30 -43 -35 -92 -4 -38 -12 -64 -20 -67 -8 -3 -14 -12 -14 -19 0 -8 -12
-40 -26 -71 -14 -32 -28 -80 -30 -109 -5 -71 -10 -95 -28 -142 -8 -22 -15 -55
-16 -73 0 -18 -5 -42 -10 -52 -7 -13 -6 -27 1 -44 8 -17 9 -30 2 -38 -5 -7 -8
-34 -5 -61 3 -39 8 -48 27 -53 31 -8 40 -51 14 -67 -23 -14 -25 -33 -4 -41 8
-3 15 -14 15 -25 0 -10 6 -21 14 -24 7 -3 18 -25 24 -49 6 -24 23 -65 37 -91
14 -27 25 -56 25 -66 0 -10 11 -23 25 -29 14 -6 25 -19 25 -28 0 -9 14 -33 30
-54 17 -21 30 -43 30 -49 0 -6 7 -11 15 -11 8 0 15 9 15 19 0 10 -7 21 -15 25
-10 3 -15 19 -15 43 0 21 -6 49 -13 63 -19 36 -46 122 -44 140 2 23 -13 89
-34 154 -22 66 -19 125 9 152 11 12 16 37 16 98 1 56 7 91 19 113 20 37 22 74
5 91 -9 9 -7 12 8 12 25 0 64 40 64 66 0 10 7 28 15 38 8 11 15 28 15 38 0 10
14 40 30 66 17 27 30 54 30 60 0 6 6 23 14 39 27 53 49 144 43 184 -7 50 -67
178 -87 184 -12 4 -15 15 -12 45 2 22 0 40 -6 40 -5 0 -13 11 -16 25 -8 29
-17 31 -38 8z m62 -231 c0 -36 -20 -84 -49 -118 -17 -19 -31 -43 -31 -54 0
-10 -4 -22 -10 -25 -5 -3 -10 -22 -10 -41 0 -22 -6 -37 -15 -40 -8 -4 -15 -18
-15 -33 0 -15 -6 -35 -14 -46 -7 -11 -16 -36 -19 -55 -10 -52 -23 -108 -41
-174 -9 -33 -16 -79 -15 -103 2 -23 0 -46 -4 -49 -3 -4 0 -22 8 -41 13 -30 12
-35 0 -40 -9 -3 -15 -19 -15 -42 0 -45 -15 -73 -23 -45 -12 39 -16 281 -6 334
5 30 14 78 19 105 5 28 16 68 24 90 8 22 15 50 16 61 0 12 7 35 15 50 8 16 15
39 15 52 0 12 5 22 10 22 6 0 10 12 10 28 0 18 10 36 29 53 16 14 32 39 35 56
5 21 19 39 39 52 40 25 47 25 47 3z m10 -134 c-1 -12 -16 -49 -90 -215 -12
-29 -26 -53 -30 -53 -11 0 5 82 23 117 9 18 17 41 17 53 0 20 20 58 48 93 18
20 32 22 32 5z"/>
<path d="M2000 4791 c-7 -25 -19 -53 -27 -62 -7 -9 -11 -24 -7 -34 4 -9 3 -20
-3 -24 -16 -11 -53 -78 -53 -96 0 -10 -27 -45 -60 -77 l-60 -58 -16 -105 c-8
-57 -14 -122 -12 -142 l3 -38 22 47 c17 35 53 196 53 240 0 9 58 28 86 28 27
0 99 92 90 115 -3 8 0 17 5 21 6 3 17 22 25 40 8 19 18 34 23 34 19 0 24 61 7
79 -9 10 -16 25 -16 33 0 9 -10 23 -23 31 -23 15 -24 14 -37 -32z"/>
<path d="M2497 4818 c-36 -10 -37 -11 -21 -29 14 -16 18 -16 31 -4 9 10 24 13
40 9 21 -6 24 -3 21 12 -4 23 -21 25 -71 12z"/>
<path d="M1812 4798 c-15 -15 -16 -38 -2 -38 6 0 10 9 10 19 0 11 8 22 18 24
13 4 13 5 2 6 -9 0 -21 -4 -28 -11z"/>
<path d="M1850 4783 c0 -5 5 -15 10 -23 8 -12 10 -11 10 8 0 12 -4 22 -10 22
-5 0 -10 -3 -10 -7z"/>
<path d="M3770 4671 c-43 -9 -116 -54 -130 -80 -5 -11 -17 -26 -25 -35 -17
-17 -45 -112 -45 -153 0 -15 4 -40 10 -57 5 -17 12 -43 15 -57 7 -36 85 -121
132 -143 21 -11 46 -23 55 -27 24 -12 125 -11 133 1 3 6 16 10 28 11 44 1 127
76 153 139 3 8 12 29 20 47 46 103 -16 260 -130 327 -48 28 -152 41 -216 27z
m84 -46 c11 -8 29 -12 41 -9 15 4 24 0 28 -10 4 -9 17 -16 31 -16 16 0 34 -13
55 -39 17 -21 31 -43 31 -49 0 -5 7 -15 15 -22 22 -18 18 -48 -7 -56 l-23 -7
23 -10 c26 -12 31 -61 7 -71 -9 -3 -15 -18 -15 -40 0 -29 -4 -37 -23 -41 -14
-4 -28 -19 -35 -37 -9 -24 -16 -29 -32 -25 -14 3 -24 -1 -31 -15 -7 -13 -19
-18 -37 -16 -25 3 -27 6 -24 46 3 34 1 42 -13 42 -15 0 -17 -6 -11 -39 7 -47
-11 -69 -43 -51 -12 6 -21 15 -21 20 0 6 -10 10 -23 10 -17 0 -33 15 -60 56
-20 31 -37 61 -37 66 0 5 -7 22 -15 38 -14 28 -14 31 4 46 15 14 17 21 9 40
-17 36 2 96 35 112 15 7 27 21 27 32 0 21 31 34 59 25 14 -4 23 0 31 15 13 23
28 25 54 5z"/>
<path d="M3835 4570 c-12 -20 6 -51 28 -48 31 4 31 52 0 56 -11 2 -24 -2 -28
-8z"/>
<path d="M3761 4551 l-24 -19 22 -12 c30 -15 48 0 35 29 -9 20 -10 20 -33 2z"/>
<path d="M3927 4544 c-4 -4 -7 -18 -7 -31 0 -26 27 -32 37 -7 6 17 -19 49 -30
38z"/>
<path d="M3742 4483 c-10 -4 -10 -8 -1 -19 15 -18 25 -18 32 0 6 16 -11 26
-31 19z"/>
<path d="M3807 4484 c-11 -11 -8 -44 3 -44 15 0 24 30 13 41 -5 5 -12 6 -16 3z"/>
<path d="M3880 4460 c0 -15 7 -20 25 -20 14 0 30 -9 37 -20 12 -19 57 -28 71
-13 4 3 -5 17 -19 30 -18 17 -32 21 -50 17 -18 -5 -24 -2 -24 10 0 9 -8 16
-20 16 -13 0 -20 -7 -20 -20z"/>
<path d="M3707 4424 c-3 -4 -2 -15 3 -25 6 -9 7 -25 4 -33 -4 -10 0 -18 10
-22 9 -3 16 -12 16 -20 0 -8 7 -14 16 -14 12 0 15 -9 12 -42 -2 -33 0 -43 12
-43 10 0 16 12 18 37 3 36 -3 48 -41 88 -25 24 -18 56 11 53 14 -2 22 3 22 12
0 11 -11 15 -38 15 -21 0 -42 -3 -45 -6z"/>
<path d="M3830 4415 c0 -9 -12 -27 -26 -40 -25 -24 -26 -25 -6 -25 11 0 24 5
27 10 8 14 35 13 35 -1 0 -7 -8 -18 -17 -24 -17 -12 -17 -14 1 -34 22 -24 76
-29 76 -7 0 8 7 17 16 20 8 3 12 11 8 17 -5 9 -11 7 -19 -4 -14 -19 -41 -22
-51 -6 -3 6 -1 16 5 22 15 15 14 27 -4 27 -10 0 -15 10 -15 30 0 20 -5 30 -15
30 -8 0 -15 -7 -15 -15z"/>
<path d="M3982 4344 c1 -9 9 -19 16 -22 9 -3 13 2 10 14 -1 9 -9 19 -16 22 -9
3 -13 -2 -10 -14z"/>
<path d="M3902 4238 c3 -7 13 -15 22 -16 12 -3 17 1 14 10 -3 7 -13 15 -22 16
-12 3 -17 -1 -14 -10z"/>
<path d="M1795 4660 c-4 -6 -3 -16 3 -22 6 -6 12 -6 17 2 4 6 3 16 -3 22 -6 6
-12 6 -17 -2z"/>
<path d="M5160 4485 c0 -8 5 -15 10 -15 6 0 10 7 10 15 0 8 -4 15 -10 15 -5 0
-10 -7 -10 -15z"/>
<path d="M6096 4238 c-9 -12 -14 -24 -12 -26 7 -6 46 18 46 28 0 20 -20 19
-34 -2z"/>
<path d="M2457 4148 c4 -18 7 -57 6 -85 -1 -29 2 -53 7 -53 6 0 10 24 10 54 0
38 6 60 20 79 27 34 26 37 -16 37 -35 0 -36 0 -27 -32z"/>
<path d="M1866 4107 c-9 -23 -16 -53 -16 -66 0 -20 2 -21 15 -11 8 7 15 21 15
31 0 10 5 21 10 24 12 8 13 52 1 59 -5 3 -16 -14 -25 -37z"/>
<path d="M1760 4123 c0 -7 -13 -31 -29 -55 -15 -24 -32 -64 -35 -90 -5 -33
-12 -48 -22 -48 -12 0 -14 -7 -9 -32 12 -60 16 -68 36 -68 20 0 24 24 20 116
-2 27 3 45 13 53 9 8 16 27 16 44 0 17 8 39 17 49 13 14 14 21 5 30 -9 9 -12
9 -12 1z"/>
<path d="M4380 3995 c0 -16 16 -20 24 -6 3 5 -1 11 -9 15 -9 3 -15 0 -15 -9z"/>
<path d="M6178 3978 c-5 -46 8 -71 48 -93 49 -26 53 -12 10 35 -21 23 -36 50
-36 65 0 37 -18 30 -22 -7z"/>
<path d="M4057 3968 c-30 -37 -33 -48 -14 -48 10 0 38 37 55 73 10 20 -17 3
-41 -25z"/>
<path d="M4260 3942 c0 -14 11 -21 26 -15 8 3 11 9 8 14 -7 11 -34 12 -34 1z"/>
<path d="M5612 3891 c4 -13 18 -16 19 -4 0 4 -5 9 -11 12 -7 2 -11 -2 -8 -8z"/>
<path d="M4245 3880 c-8 -12 20 -24 35 -15 6 3 8 11 5 16 -8 12 -32 12 -40 -1z"/>
<path d="M5924 3865 c-19 -14 -19 -14 0 -28 14 -10 17 -19 11 -33 -15 -34 -12
-85 5 -82 27 6 36 137 11 153 -5 2 -17 -2 -27 -10z"/>
<path d="M3897 3854 c-10 -11 3 -24 22 -24 10 0 24 -7 31 -15 16 -19 40 -3 40
26 0 16 -8 19 -43 19 -24 0 -47 -3 -50 -6z"/>
<path d="M6100 3841 c0 -20 20 -61 29 -61 5 0 17 8 26 17 16 16 16 18 -5 35
-24 19 -50 24 -50 9z"/>
<path d="M4014 3825 c-9 -22 5 -38 22 -24 18 15 18 25 -1 33 -9 3 -18 -1 -21
-9z"/>
<path d="M5550 3819 c0 -12 7 -19 20 -19 11 0 29 -6 40 -12 15 -10 22 -10 32
0 15 15 11 19 -45 36 -44 13 -47 13 -47 -5z"/>
<path d="M1580 3805 c12 -15 30 -12 30 6 0 5 -10 9 -21 9 -18 0 -19 -2 -9 -15z"/>
<path d="M3476 3785 c-33 -25 -27 -125 8 -125 23 0 34 22 41 83 7 52 6 57 -11
57 -11 0 -28 -7 -38 -15z"/>
<path d="M4182 3789 c5 -16 128 -23 128 -8 0 5 -12 9 -27 9 -16 0 -45 3 -67 7
-31 5 -38 3 -34 -8z"/>
<path d="M1628 3772 c-14 -15 -15 -24 -6 -62 6 -25 14 -53 19 -62 5 -10 9 -27
9 -38 0 -18 3 -19 21 -9 17 9 20 17 15 43 -4 18 -3 36 1 40 4 3 8 25 9 46 2
30 -3 43 -16 50 -25 13 -32 12 -52 -8z"/>
<path d="M3927 3783 c-10 -9 -8 -126 2 -142 14 -21 19 -1 20 77 1 66 -5 83
-22 65z"/>
<path d="M4116 3731 c-7 -10 41 -21 95 -21 28 0 39 4 39 15 0 12 -14 15 -64
15 -36 0 -67 -4 -70 -9z"/>
<path d="M4306 3730 c-15 -5 -16 -9 -7 -14 7 -5 18 -3 24 3 14 14 6 20 -17 11z"/>
<path d="M1850 3683 c0 -29 7 -43 36 -70 20 -18 40 -33 44 -33 11 0 20 27 16
43 -3 6 -7 24 -10 39 -6 26 -48 58 -76 58 -5 0 -10 -17 -10 -37z"/>
<path d="M4012 3698 c5 -15 68 -24 68 -10 0 12 -24 22 -52 22 -11 0 -18 -5
-16 -12z"/>
<path d="M3265 3670 c-3 -5 3 -10 15 -10 12 0 18 5 15 10 -3 6 -10 10 -15 10
-5 0 -12 -4 -15 -10z"/>
<path d="M3316 3672 c-3 -5 2 -21 10 -36 7 -16 14 -34 14 -41 0 -7 15 -22 33
-34 66 -42 97 -67 117 -93 11 -15 30 -28 43 -30 12 -2 23 -11 25 -23 7 -35 42
-59 90 -62 25 -1 49 0 54 3 9 6 -37 47 -64 57 -10 3 -18 11 -18 17 0 5 -9 10
-19 10 -11 0 -35 14 -53 31 -18 17 -50 42 -70 55 -21 13 -38 28 -38 32 0 9
-106 122 -114 122 -3 0 -7 -4 -10 -8z"/>
<path d="M3680 3665 c0 -8 7 -15 15 -15 8 0 15 7 15 15 0 8 -7 15 -15 15 -8 0
-15 -7 -15 -15z"/>
<path d="M5910 3650 c0 -16 5 -30 10 -30 6 0 10 14 10 30 0 17 -4 30 -10 30
-5 0 -10 -13 -10 -30z"/>
<path d="M1736 3611 c-3 -4 -3 -23 0 -42 6 -35 69 -118 80 -106 4 4 3 34 -2
68 -8 56 -12 62 -41 74 -18 8 -35 10 -37 6z"/>
<path d="M6566 3580 c-24 -60 -45 -234 -31 -248 13 -14 39 31 41 73 2 24 8 54
14 65 11 20 5 81 -11 110 -7 13 -8 13 -13 0z"/>
<path d="M2445 3550 c-10 -11 -23 -29 -29 -39 -6 -11 -28 -44 -48 -75 -21 -30
-38 -61 -38 -68 0 -8 -6 -22 -13 -32 -9 -12 -13 -44 -11 -92 2 -60 -1 -76 -14
-83 -14 -8 -15 -12 -4 -22 10 -11 12 -9 12 5 0 13 5 17 20 13 11 -3 23 -1 26
4 9 15 42 10 53 -8 9 -17 10 -17 16 2 4 11 10 27 14 34 7 14 -14 71 -25 71 -3
0 -5 -10 -4 -22 4 -43 0 -49 -22 -46 -19 2 -24 10 -26 41 -2 26 2 45 13 57 9
10 14 23 11 29 -9 13 23 121 35 121 5 0 9 4 9 9 0 6 14 30 30 54 30 45 37 67
22 67 -5 0 -17 -9 -27 -20z"/>
<path d="M1668 3503 c-7 -29 6 -136 17 -140 6 -2 9 24 7 69 -4 72 -15 107 -24
71z"/>
<path d="M1940 3485 c0 -8 5 -15 10 -15 6 0 10 7 10 15 0 8 -4 15 -10 15 -5 0
-10 -7 -10 -15z"/>
<path d="M4664 3475 c-9 -23 14 -45 26 -25 5 8 8 19 7 24 -6 17 -27 18 -33 1z"/>
<path d="M4730 3465 c0 -8 5 -15 10 -15 6 0 10 7 10 15 0 8 -4 15 -10 15 -5 0
-10 -7 -10 -15z"/>
<path d="M5871 3443 c-14 -49 -14 -53 3 -53 12 0 26 40 26 76 0 28 -19 13 -29
-23z"/>
<path d="M2485 3438 c-4 -10 -4 -26 0 -35 8 -17 8 -17 12 0 3 9 3 25 0 35 -4
16 -4 16 -12 0z"/>
<path d="M1797 3346 c-20 -63 -21 -66 -4 -66 14 1 57 65 57 85 0 8 -8 19 -18
24 -15 8 -20 1 -35 -43z"/>
<path d="M4140 3360 c-52 -30 -105 -50 -130 -50 -35 0 -40 -7 -33 -43 8 -40
30 -35 123 28 45 30 87 55 93 55 7 0 19 5 27 10 19 13 -58 13 -80 0z"/>
<path d="M2819 3348 c-1 -7 0 -24 1 -37 1 -13 -4 -28 -12 -32 -9 -6 -4 -9 15
-9 29 0 31 7 21 59 -6 30 -23 43 -25 19z"/>
<path d="M4311 3341 c-34 -9 -42 -36 -9 -28 13 4 51 10 83 14 l60 7 -40 7
c-48 9 -62 9 -94 0z"/>
<path d="M4650 3335 c-14 -8 -38 -14 -53 -15 -15 0 -38 -6 -50 -14 -12 -8 -42
-17 -67 -21 -25 -3 -61 -14 -80 -22 -19 -9 -88 -22 -153 -28 -111 -12 -120
-14 -151 -44 -17 -17 -52 -38 -77 -46 -53 -18 -141 -92 -163 -137 -19 -38 -16
-43 21 -33 15 5 32 7 37 6 15 -3 70 22 79 36 4 7 14 13 22 13 7 0 19 16 25 35
12 38 19 42 38 23 9 -9 12 -9 12 3 0 21 32 49 54 49 14 0 17 6 14 25 -8 38 32
34 54 -6 l18 -30 30 22 c21 16 46 23 83 24 28 1 72 8 97 15 73 21 191 83 202
107 6 13 19 25 30 28 10 4 18 11 18 16 0 12 -10 11 -40 -6z"/>
<path d="M5837 3321 c-16 -17 -16 -19 -2 -25 22 -8 35 1 35 25 0 23 -9 23 -33
0z"/>
<path d="M6522 3265 c-7 -14 -12 -35 -12 -46 0 -30 34 -20 38 11 2 14 8 30 13
36 5 6 6 14 2 17 -13 14 -30 6 -41 -18z"/>
<path d="M1686 3265 c-3 -8 -3 -29 1 -46 7 -39 38 -36 38 3 0 15 9 34 20 42
19 15 18 15 -16 16 -24 0 -39 -5 -43 -15z"/>
<path d="M1871 3250 c-8 -4 -11 -15 -8 -24 4 -9 2 -28 -4 -42 -7 -21 -6 -31 6
-44 8 -9 15 -25 15 -34 0 -39 45 -158 101 -268 11 -20 19 -44 19 -54 0 -25 42
-94 57 -94 7 0 13 6 13 13 -2 30 -27 105 -47 138 -13 20 -23 44 -23 54 0 9 -9
28 -20 42 -11 14 -20 38 -20 53 0 15 -7 41 -15 56 -8 16 -15 42 -15 57 0 15
-7 30 -15 33 -11 5 -15 21 -15 59 0 56 -7 69 -29 55z"/>
<path d="M2527 3195 c-9 -20 -17 -38 -17 -41 0 -3 18 -21 40 -42 22 -20 63
-68 93 -107 29 -38 57 -70 63 -70 5 0 10 15 12 33 2 17 7 32 13 32 34 0 -22
94 -75 125 -15 10 -37 37 -48 61 -25 57 -56 60 -81 9z"/>
<path d="M5981 3214 c-24 -7 -51 -20 -60 -28 -9 -7 -35 -23 -59 -35 -37 -19
-43 -20 -48 -6 -5 11 -22 15 -69 15 l-63 0 -17 -47 c-25 -72 -29 -93 -16 -93
6 0 22 18 35 39 25 39 33 44 94 56 30 6 32 5 32 -20 0 -15 -19 -69 -41 -121
-35 -79 -54 -106 -114 -167 -40 -40 -80 -88 -90 -107 -10 -19 -24 -39 -31 -43
-7 -4 -23 -29 -36 -55 -12 -26 -24 -51 -26 -55 -2 -4 7 -5 20 -2 22 6 26 0 57
-90 21 -61 31 -104 27 -120 -7 -29 3 -31 44 -10 38 20 38 39 1 66 -21 15 -31
33 -35 63 -6 40 6 104 21 115 11 8 103 147 103 156 0 3 16 27 35 52 19 25 35
54 35 65 0 10 11 36 25 56 14 20 25 43 25 50 0 8 6 26 14 40 7 15 23 47 35 72
33 69 52 86 117 102 51 13 59 18 59 39 0 29 -16 32 -74 13z"/>
<path d="M6171 3146 c-9 -11 -6 -18 18 -35 16 -12 42 -21 59 -21 16 0 35 -7
42 -15 13 -16 60 -21 60 -6 0 13 -82 51 -109 51 -14 0 -25 7 -28 20 -6 23 -26
26 -42 6z"/>
<path d="M6485 3140 c-3 -5 -3 -21 1 -35 5 -22 3 -25 -19 -25 -14 0 -29 -4
-32 -10 -3 -5 -19 -10 -36 -10 -19 0 -29 -5 -29 -15 0 -8 6 -15 14 -15 7 0 25
-9 39 -20 36 -29 71 -26 86 7 8 18 9 29 2 36 -8 8 -6 16 5 28 11 12 14 27 10
44 -6 25 -29 34 -41 15z"/>
<path d="M2785 3127 c-5 -11 -1 -25 10 -37 22 -24 35 -26 35 -5 0 8 -4 15 -8
15 -5 0 -14 10 -19 23 -10 20 -12 20 -18 4z"/>
<path d="M3374 3085 c25 -19 36 -19 36 0 0 10 -10 15 -27 15 -27 -1 -27 -1 -9
-15z"/>
<path d="M2884 3068 c-10 -16 4 -22 28 -11 l22 10 -22 5 c-12 4 -25 2 -28 -4z"/>
<path d="M5400 3045 c12 -15 30 -12 30 6 0 5 -10 9 -21 9 -18 0 -19 -2 -9 -15z"/>
<path d="M5945 3047 c-4 -10 -5 -21 -1 -24 10 -10 18 4 13 24 -4 17 -4 17 -12
0z"/>
<path d="M5613 2993 c-3 -10 -13 -26 -20 -35 -13 -15 -13 -20 0 -45 9 -15 18
-36 21 -45 3 -10 12 -18 21 -18 12 0 14 6 8 28 -5 15 -7 48 -6 74 3 48 -12 74
-24 41z"/>
<path d="M6457 2923 c-17 -16 -5 -33 22 -33 37 0 48 15 22 29 -23 13 -35 14
-44 4z"/>
<path d="M2977 2906 c-14 -11 -17 -25 -15 -70 2 -31 8 -56 13 -56 6 1 9 13 8
27 -3 41 14 63 48 63 26 0 30 3 27 23 -4 27 -53 35 -81 13z"/>
<path d="M5987 2872 c-10 -10 -17 -28 -17 -40 0 -11 -6 -27 -12 -34 -7 -8 -23
-25 -36 -39 l-22 -26 21 -26 c26 -34 39 -34 39 -2 0 29 31 95 53 113 31 26 72
25 106 -4 29 -24 32 -31 26 -62 -4 -23 -3 -32 4 -27 6 3 11 13 11 20 0 31 73
48 84 20 7 -19 36 -20 36 -1 0 15 -13 24 -117 75 -34 17 -64 35 -68 41 -11 18
-90 12 -108 -8z"/>
<path d="M5850 2840 c0 -16 4 -30 9 -30 10 0 22 40 15 52 -11 18 -24 6 -24
-22z"/>
<path d="M6502 2861 c4 -13 18 -16 19 -4 0 4 -5 9 -11 12 -7 2 -11 -2 -8 -8z"/>
<path d="M2875 2838 c-8 -20 12 -61 26 -53 13 9 11 28 -5 51 -13 17 -15 17
-21 2z"/>
<path d="M1800 2813 c0 -20 36 -93 44 -90 6 2 11 22 12 46 2 33 -1 41 -12 37
-8 -3 -14 -1 -14 4 0 6 -7 10 -15 10 -8 0 -15 -3 -15 -7z"/>
<path d="M6470 2796 c0 -8 5 -18 10 -21 6 -3 10 3 10 14 0 12 -4 21 -10 21 -5
0 -10 -6 -10 -14z"/>
<path d="M5797 2733 c-4 -3 -7 -16 -7 -27 1 -21 1 -21 15 -2 8 11 15 23 15 28
0 10 -14 11 -23 1z"/>
<path d="M6447 2733 c-11 -10 -8 -53 3 -53 6 0 10 14 10 30 0 31 -2 35 -13 23z"/>
<path d="M2151 2692 c-40 -4 -81 -28 -81 -48 0 -8 5 -14 10 -14 6 0 10 7 10
15 0 8 5 15 10 15 6 0 10 -15 10 -34 0 -47 27 -76 77 -83 47 -6 72 -28 88 -76
13 -42 51 -50 61 -13 6 27 -4 49 -56 120 -19 26 -40 61 -46 78 -11 35 -33 45
-83 40z"/>
<path d="M6410 2650 c0 -11 5 -20 10 -20 6 0 10 9 10 20 0 11 -4 20 -10 20 -5
0 -10 -9 -10 -20z"/>
<path d="M6200 2615 c0 -8 5 -15 10 -15 6 0 10 7 10 15 0 8 -4 15 -10 15 -5 0
-10 -7 -10 -15z"/>
<path d="M3705 2598 c3 -13 10 -36 14 -52 9 -41 25 -42 52 -5 l23 32 -30 23
c-39 32 -69 32 -59 2z"/>
<path d="M6387 2613 c-11 -10 -8 -63 3 -63 6 0 10 16 10 35 0 36 -2 40 -13 28z"/>
<path d="M6114 2568 c7 -30 -38 -96 -71 -104 -38 -10 -73 12 -91 56 -9 22 -21
40 -27 40 -10 0 -55 -49 -55 -60 0 -4 26 -25 58 -46 31 -22 59 -42 62 -45 3
-3 20 -13 38 -22 l33 -16 31 35 c47 53 64 76 82 112 19 36 14 52 -14 52 -10 0
-22 5 -25 10 -12 19 -27 10 -21 -12z"/>
<path d="M6356 2543 c-3 -3 -6 -19 -6 -35 0 -15 -5 -28 -10 -28 -6 0 -15 -10
-21 -22 -18 -41 -35 -67 -85 -131 -27 -34 -64 -84 -82 -112 -33 -51 -81 -109
-139 -170 -18 -18 -33 -38 -33 -43 0 -5 -25 -33 -56 -62 -31 -30 -75 -79 -98
-109 -23 -31 -54 -69 -69 -85 -15 -16 -27 -35 -27 -43 0 -33 76 33 153 133 25
34 60 73 77 87 16 14 30 28 30 31 0 7 22 33 78 90 23 24 42 48 42 53 0 5 13
22 28 39 15 16 48 58 72 94 61 91 83 122 98 138 6 7 12 24 12 38 0 13 4 24 9
24 11 0 51 75 51 95 0 16 -14 27 -24 18z"/>
<path d="M5366 2435 c-3 -9 0 -15 9 -15 8 0 15 7 15 15 0 8 -4 15 -9 15 -5 0
-11 -7 -15 -15z"/>
<path d="M5693 2255 c-13 -19 -23 -40 -23 -47 0 -6 -7 -20 -17 -30 -9 -10 -13
-21 -9 -26 4 -4 13 1 20 11 7 9 23 17 35 17 20 0 22 -4 16 -32 -4 -18 -14 -44
-23 -58 -10 -14 -22 -36 -28 -50 -6 -14 -28 -47 -48 -73 -20 -26 -34 -53 -30
-58 9 -16 -26 -49 -52 -49 -13 0 -26 -4 -29 -10 -3 -5 -2 -10 4 -10 5 0 24
-12 41 -26 17 -15 32 -25 34 -23 13 14 36 72 36 88 0 11 6 24 14 28 20 11 76
90 76 107 0 7 7 19 14 26 8 6 22 33 31 60 9 26 23 51 31 54 24 9 17 71 -12
105 -33 40 -54 39 -81 -4z"/>
<path d="M5550 2052 c-38 -17 -64 -42 -54 -52 7 -7 21 1 44 25 35 36 36 38 10
27z"/>
<path d="M5250 1951 c-22 -6 -36 -31 -17 -31 4 0 20 0 36 0 20 0 30 6 34 20 6
21 -6 24 -53 11z"/>
<path d="M2437 1871 c-24 -9 -14 -18 68 -60 69 -36 65 -35 65 -17 0 8 -17 25
-37 37 -21 13 -47 28 -58 35 -11 6 -28 9 -38 5z"/>
<path d="M2750 1865 c0 -18 50 -45 85 -45 14 0 37 -11 51 -25 30 -30 37 -31
80 -4 l34 21 52 -26 c29 -15 64 -33 78 -41 14 -8 37 -15 51 -15 30 0 41 -11
57 -55 10 -29 11 -29 18 -7 3 12 22 29 41 38 18 9 32 22 30 28 -2 6 -32 13
-66 16 -57 5 -66 9 -92 40 -16 19 -29 45 -29 57 0 23 -1 23 -145 23 -122 0
-145 -2 -145 -15 0 -24 -57 -19 -70 5 -13 23 -30 26 -30 5z"/>
<path d="M3625 1860 c3 -5 24 -10 46 -10 21 0 39 5 39 10 0 6 -21 10 -46 10
-27 0 -43 -4 -39 -10z"/>
<path d="M4575 1860 c-11 -5 -31 -9 -45 -9 -14 -1 -50 -17 -80 -37 -30 -20
-83 -43 -118 -52 -41 -11 -68 -24 -74 -37 -8 -14 -8 -20 1 -23 6 -2 11 -10 11
-18 0 -9 -12 -14 -37 -14 -20 0 -45 -7 -55 -17 -13 -12 -33 -16 -69 -14 -44 2
-92 -9 -225 -50 -17 -5 -43 -9 -58 -9 -14 0 -38 -7 -52 -16 -19 -13 -30 -15
-49 -6 -13 6 -39 8 -58 5 -20 -3 -66 0 -103 6 -47 9 -70 9 -77 2 -6 -6 -19
-11 -29 -11 -20 0 -24 -18 -5 -25 6 -2 73 -11 147 -19 115 -12 145 -12 200 0
36 7 92 14 126 14 46 0 66 5 84 20 13 11 27 20 31 20 5 0 6 7 3 15 -4 8 -1 15
5 15 7 0 14 -7 17 -15 7 -17 74 -21 90 -6 5 5 29 11 54 14 53 6 123 24 167 43
17 8 51 14 76 14 37 0 55 -7 93 -36 36 -28 49 -33 55 -22 5 7 9 16 9 20 0 13
-89 68 -110 68 -13 0 -24 8 -27 20 -3 10 -14 22 -25 26 -27 8 -19 40 10 37 13
-2 37 4 54 13 48 25 153 40 218 31 14 -2 40 -5 58 -5 20 -1 40 -11 53 -26 19
-21 24 -22 72 -14 29 6 57 13 62 18 6 4 25 11 43 15 42 9 41 32 -3 50 -27 12
-40 12 -59 3 -20 -9 -56 -7 -159 5 -146 19 -192 20 -222 7z"/>
<path d="M5165 1843 c-46 -16 -57 -30 -44 -54 5 -10 6 -25 3 -33 -12 -32 16
-15 40 23 14 22 35 42 46 46 20 7 23 27 4 31 -5 1 -27 -5 -49 -13z"/>
<path d="M3438 1842 c-10 -2 -18 -8 -18 -13 0 -11 11 -11 30 1 18 11 11 18
-12 12z"/>
<path d="M5420 1827 c-24 -8 -36 -19 -38 -34 -4 -30 12 -29 54 3 53 41 47 52
-16 31z"/>
<path d="M4030 1805 c-30 -8 -71 -14 -90 -15 -28 0 -38 -6 -52 -31 -36 -63
-18 -79 48 -44 26 14 57 25 69 25 13 0 25 7 29 15 10 28 63 18 105 -20 38 -34
61 -44 61 -26 0 6 -4 13 -10 16 -5 3 -10 19 -10 34 0 58 -45 72 -150 46z"/>
<path d="M3368 1723 c-37 -10 -11 -33 37 -33 21 0 43 16 33 25 -7 7 -54 13
-70 8z"/>
<path d="M4800 1720 c-12 -8 -9 -10 12 -10 15 0 30 5 33 10 8 13 -25 13 -45 0z"/>
<path d="M2868 1672 c-36 -22 -41 -37 -27 -79 12 -38 26 -43 31 -10 4 29 45
33 76 7 17 -14 22 -26 17 -40 -6 -17 -2 -20 29 -20 19 0 41 -6 49 -14 22 -22
125 -76 145 -76 16 1 16 1 0 14 -10 7 -20 31 -24 53 -6 38 -9 41 -46 47 -26 4
-53 19 -79 44 -110 103 -118 106 -171 74z"/>
<path d="M3830 1625 c0 -8 5 -15 10 -15 6 0 10 7 10 15 0 8 -4 15 -10 15 -5 0
-10 -7 -10 -15z"/>
<path d="M4375 1560 c-4 -6 12 -10 40 -10 28 0 44 4 40 10 -3 6 -21 10 -40 10
-19 0 -37 -4 -40 -10z"/>
<path d="M2913 1510 c-18 -11 -33 -22 -33 -25 0 -10 36 -4 54 10 31 24 14 37
-21 15z"/>
<path d="M4650 1492 c0 -20 35 -62 50 -62 6 0 10 -9 10 -21 0 -12 14 -38 30
-59 17 -21 30 -43 30 -49 0 -6 7 -11 15 -11 15 0 12 6 -42 103 -7 12 -13 39
-13 59 0 27 -6 40 -19 48 -31 16 -61 12 -61 -8z"/>
<path d="M4158 1493 c12 -2 30 -2 40 0 9 3 -1 5 -23 4 -22 0 -30 -2 -17 -4z"/>
<path d="M4015 1471 c-16 -7 -13 -9 18 -15 39 -7 61 -1 52 15 -7 11 -42 11
-70 0z"/>
<path d="M3418 1445 c-12 -12 -10 -43 3 -50 6 -4 16 0 22 10 10 13 32 16 122
17 71 0 111 -4 113 -11 5 -16 52 -14 52 3 0 7 -10 17 -22 20 -37 10 -282 19
-290 11z"/>
<path d="M3772 1441 c-19 -12 6 -21 40 -14 15 3 31 -2 41 -12 16 -15 20 -15
57 1 27 12 36 20 27 26 -16 10 -148 10 -165 -1z"/>
<path d="M4273 1439 c-5 -5 -36 -13 -67 -16 -90 -9 -63 -28 38 -26 49 1 90 4
93 7 6 5 -34 46 -45 46 -4 0 -13 -5 -19 -11z"/>
<path d="M3225 1410 c-6 -20 10 -60 24 -60 5 0 11 13 14 30 5 23 10 28 24 23
10 -3 24 -13 30 -21 11 -13 13 -13 19 2 9 24 -3 32 -58 39 -40 6 -48 4 -53
-13z"/>
<path d="M4407 1366 c-3 -8 -17 -16 -32 -18 -14 -2 -24 -7 -23 -13 2 -5 12 -9
22 -7 30 4 66 -36 66 -74 0 -50 -18 -60 -121 -68 -51 -4 -135 -18 -188 -32
-53 -14 -117 -29 -142 -34 -53 -10 -285 -6 -311 5 -14 5 -18 2 -18 -13 0 -11
7 -23 16 -26 9 -3 103 -6 210 -6 181 0 197 1 246 23 38 17 83 26 153 31 58 4
109 13 122 22 12 8 29 14 36 14 8 0 20 7 27 15 7 8 20 15 30 15 12 0 19 10 22
32 4 26 -2 41 -40 87 -48 60 -66 71 -75 47z"/>
<path d="M3090 1294 c-14 -7 -42 -13 -62 -14 -31 0 -40 -5 -53 -29 -8 -16 -20
-31 -27 -34 -7 -2 -10 -8 -6 -12 5 -5 25 -3 45 3 21 6 109 13 195 15 86 1 160
6 164 10 4 4 1 18 -6 32 -13 23 -15 24 -36 10 -27 -17 -70 -20 -79 -5 -3 6
-17 10 -31 10 -14 0 -37 6 -52 14 -23 12 -31 12 -52 0z"/>
<path d="M4476 1110 c-16 -5 -17 -8 -4 -12 16 -7 45 7 32 14 -5 3 -18 2 -28
-2z"/>
</g>
</svg>
