<?xml version="1.0" encoding="utf-8"?>
<!-- Generator: Adobe Illustrator 25.2.1, SVG Export Plug-In . SVG Version: 6.00 Build 0)  -->
<svg version="1.1" xmlns="http://www.w3.org/2000/svg" xmlns:xlink="http://www.w3.org/1999/xlink" x="0px" y="0px"
	 viewBox="0 0 256 256" style="enable-background:new 0 0 256 256;" xml:space="preserve">
<style type="text/css">
	.st0{fill:url(#SVGID_1_);}
	.st1{fill:url(#SVGID_2_);}
	.st2{fill:url(#SVGID_3_);}
	.st3{fill:url(#SVGID_4_);}
	.st4{fill:url(#SVGID_5_);}
	.st5{fill:url(#SVGID_6_);}
	.st6{fill:url(#SVGID_7_);}
	.st7{fill:url(#SVGID_8_);}
	.st8{fill:url(#SVGID_9_);}
	.st9{fill:url(#SVGID_10_);}
	.st10{fill:url(#SVGID_11_);}
	.st11{fill:#333333;}
	.st12{fill:#E470B9;}
</style>
<g id="Layer_2">
	<linearGradient id="SVGID_1_" gradientUnits="userSpaceOnUse" x1="127.5701" y1="254.1174" x2="128.4209" y2="4.513">
		<stop  offset="0" style="stop-color:#3E4040"/>
		<stop  offset="1" style="stop-color:#333333"/>
	</linearGradient>
	<circle class="st0" cx="128" cy="128" r="128"/>
</g>
<g id="Layer_1">
	
		<linearGradient id="SVGID_2_" gradientUnits="userSpaceOnUse" x1="39.9237" y1="315.6025" x2="39.9237" y2="278.1489" gradientTransform="matrix(1 0 0 -1 0 443.5)">
		<stop  offset="0" style="stop-color:#FFA7FF"/>
		<stop  offset="4.000000e-02" style="stop-color:#FF93E0"/>
		<stop  offset="9.000000e-02" style="stop-color:#FF7EBE"/>
		<stop  offset="0.12" style="stop-color:#FF71A9"/>
		<stop  offset="0.15" style="stop-color:#FF6CA1"/>
		<stop  offset="0.33" style="stop-color:#DD4FBD"/>
		<stop  offset="0.46" style="stop-color:#C745BE"/>
		<stop  offset="0.82" style="stop-color:#8D2ABF"/>
		<stop  offset="1" style="stop-color:#761FC0"/>
	</linearGradient>
	<rect x="32.2" y="129.6" class="st1" width="15.5" height="36.3"/>
	
		<linearGradient id="SVGID_3_" gradientUnits="userSpaceOnUse" x1="59.541" y1="339.9645" x2="59.541" y2="278.5998" gradientTransform="matrix(1 0 0 -1 0 443.5)">
		<stop  offset="0" style="stop-color:#FFA7FF"/>
		<stop  offset="4.000000e-02" style="stop-color:#FF93E0"/>
		<stop  offset="9.000000e-02" style="stop-color:#FF7EBE"/>
		<stop  offset="0.12" style="stop-color:#FF71A9"/>
		<stop  offset="0.15" style="stop-color:#FF6CA1"/>
		<stop  offset="0.33" style="stop-color:#DD4FBD"/>
		<stop  offset="0.46" style="stop-color:#C745BE"/>
		<stop  offset="0.82" style="stop-color:#8D2ABF"/>
		<stop  offset="1" style="stop-color:#761FC0"/>
	</linearGradient>
	<rect x="51.8" y="105.3" class="st2" width="15.5" height="61.1"/>
	
		<linearGradient id="SVGID_4_" gradientUnits="userSpaceOnUse" x1="78.9123" y1="356.9309" x2="78.9123" y2="278.6244" gradientTransform="matrix(1 0 0 -1 0 443.5)">
		<stop  offset="0" style="stop-color:#FF70A7"/>
		<stop  offset="0.15" style="stop-color:#FF6CA1"/>
		<stop  offset="0.33" style="stop-color:#DD4FBD"/>
		<stop  offset="0.46" style="stop-color:#C745BE"/>
		<stop  offset="0.82" style="stop-color:#8D2ABF"/>
		<stop  offset="1" style="stop-color:#761FC0"/>
	</linearGradient>
	<rect x="71.2" y="88.3" class="st3" width="15.5" height="77.6"/>
	
		<linearGradient id="SVGID_5_" gradientUnits="userSpaceOnUse" x1="98.2837" y1="350.4052" x2="98.2837" y2="279.2691" gradientTransform="matrix(1 0 0 -1 0 443.5)">
		<stop  offset="0" style="stop-color:#FFA7FF"/>
		<stop  offset="4.000000e-02" style="stop-color:#FF93E0"/>
		<stop  offset="9.000000e-02" style="stop-color:#FF7EBE"/>
		<stop  offset="0.12" style="stop-color:#FF71A9"/>
		<stop  offset="0.15" style="stop-color:#FF6CA1"/>
		<stop  offset="0.33" style="stop-color:#DD4FBD"/>
		<stop  offset="0.46" style="stop-color:#C745BE"/>
		<stop  offset="0.82" style="stop-color:#8D2ABF"/>
		<stop  offset="1" style="stop-color:#761FC0"/>
	</linearGradient>
	<rect x="90.5" y="98.7" class="st4" width="15.5" height="67.1"/>
	
		<linearGradient id="SVGID_6_" gradientUnits="userSpaceOnUse" x1="117.1013" y1="370.8521" x2="117.1013" y2="279.0585" gradientTransform="matrix(1 0 0 -1 0 443.5)">
		<stop  offset="0" style="stop-color:#FFA7FF"/>
		<stop  offset="4.000000e-02" style="stop-color:#FF93E0"/>
		<stop  offset="9.000000e-02" style="stop-color:#FF7EBE"/>
		<stop  offset="0.12" style="stop-color:#FF71A9"/>
		<stop  offset="0.15" style="stop-color:#FF6CA1"/>
		<stop  offset="0.33" style="stop-color:#DD4FBD"/>
		<stop  offset="0.46" style="stop-color:#C745BE"/>
		<stop  offset="0.82" style="stop-color:#8D2ABF"/>
		<stop  offset="1" style="stop-color:#761FC0"/>
	</linearGradient>
	<rect x="109.4" y="76.4" class="st5" width="15.5" height="89.5"/>
	
		<linearGradient id="SVGID_7_" gradientUnits="userSpaceOnUse" x1="136.2879" y1="377.8124" x2="136.2879" y2="278.9437" gradientTransform="matrix(1 0 0 -1 0 443.5)">
		<stop  offset="0" style="stop-color:#FFA7FF"/>
		<stop  offset="4.000000e-02" style="stop-color:#FF93E0"/>
		<stop  offset="9.000000e-02" style="stop-color:#FF7EBE"/>
		<stop  offset="0.12" style="stop-color:#FF71A9"/>
		<stop  offset="0.15" style="stop-color:#FF6CA1"/>
		<stop  offset="0.33" style="stop-color:#DD4FBD"/>
		<stop  offset="0.46" style="stop-color:#C745BE"/>
		<stop  offset="0.82" style="stop-color:#8D2ABF"/>
		<stop  offset="1" style="stop-color:#761FC0"/>
	</linearGradient>
	<rect x="128.5" y="67.8" class="st6" width="15.5" height="98.1"/>
	
		<linearGradient id="SVGID_8_" gradientUnits="userSpaceOnUse" x1="155.0137" y1="384.7733" x2="155.0137" y2="277.7109" gradientTransform="matrix(1 0 0 -1 0 443.5)">
		<stop  offset="0" style="stop-color:#FFA7FF"/>
		<stop  offset="4.000000e-02" style="stop-color:#FF93E0"/>
		<stop  offset="9.000000e-02" style="stop-color:#FF7EBE"/>
		<stop  offset="0.12" style="stop-color:#FF71A9"/>
		<stop  offset="0.15" style="stop-color:#FF6CA1"/>
		<stop  offset="0.33" style="stop-color:#DD4FBD"/>
		<stop  offset="0.46" style="stop-color:#C745BE"/>
		<stop  offset="0.82" style="stop-color:#8D2ABF"/>
		<stop  offset="1" style="stop-color:#761FC0"/>
	</linearGradient>
	<rect x="147.8" y="59.9" class="st7" width="14.3" height="106.8"/>
	
		<linearGradient id="SVGID_9_" gradientUnits="userSpaceOnUse" x1="173.4624" y1="374.7672" x2="173.4624" y2="279.4943" gradientTransform="matrix(1 0 0 -1 0 443.5)">
		<stop  offset="0" style="stop-color:#FFA7FF"/>
		<stop  offset="4.000000e-02" style="stop-color:#FF93E0"/>
		<stop  offset="9.000000e-02" style="stop-color:#FF7EBE"/>
		<stop  offset="0.12" style="stop-color:#FF71A9"/>
		<stop  offset="0.15" style="stop-color:#FF6CA1"/>
		<stop  offset="0.33" style="stop-color:#DD4FBD"/>
		<stop  offset="0.46" style="stop-color:#C745BE"/>
		<stop  offset="0.82" style="stop-color:#8D2ABF"/>
		<stop  offset="1" style="stop-color:#761FC0"/>
	</linearGradient>
	<rect x="166.1" y="73.5" class="st8" width="14.8" height="92.4"/>
	
		<linearGradient id="SVGID_10_" gradientUnits="userSpaceOnUse" x1="192.5907" y1="387.752" x2="191.7204" y2="281.1757" gradientTransform="matrix(1 0 0 -1 0 443.5)">
		<stop  offset="0" style="stop-color:#FFA7FF"/>
		<stop  offset="4.000000e-02" style="stop-color:#FF93E0"/>
		<stop  offset="9.000000e-02" style="stop-color:#FF7EBE"/>
		<stop  offset="0.12" style="stop-color:#FF71A9"/>
		<stop  offset="0.15" style="stop-color:#FF6CA1"/>
		<stop  offset="0.33" style="stop-color:#DD4FBD"/>
		<stop  offset="0.46" style="stop-color:#C745BE"/>
		<stop  offset="0.82" style="stop-color:#8D2ABF"/>
		<stop  offset="1" style="stop-color:#761FC0"/>
	</linearGradient>
	<rect x="184.9" y="59.1" class="st9" width="14.5" height="107"/>
	
		<linearGradient id="SVGID_11_" gradientUnits="userSpaceOnUse" x1="210.2061" y1="400.4341" x2="210.2061" y2="279.0596" gradientTransform="matrix(1 0 0 -1 0 443.5)">
		<stop  offset="0" style="stop-color:#FFA7FF"/>
		<stop  offset="4.000000e-02" style="stop-color:#FF93E0"/>
		<stop  offset="9.000000e-02" style="stop-color:#FF7EBE"/>
		<stop  offset="0.12" style="stop-color:#FF71A9"/>
		<stop  offset="0.15" style="stop-color:#FF6CA1"/>
		<stop  offset="0.33" style="stop-color:#DD4FBD"/>
		<stop  offset="0.46" style="stop-color:#C745BE"/>
		<stop  offset="0.82" style="stop-color:#8D2ABF"/>
		<stop  offset="1" style="stop-color:#761FC0"/>
	</linearGradient>
	<rect x="202.5" y="47.5" class="st10" width="15.5" height="118.4"/>
	<path class="st11" d="M159.7,79.4v9.8l-0.1,0v50.7c0,0.5,0,1-0.1,1.4c-0.8,4.6-5.2,8.2-10.5,8.2c-5.9,0-10.6-4.3-10.6-9.6
		s4.8-9.7,10.6-9.7c2.1,0,4.1,0.6,5.7,1.5V90.4l-35.3,8v50.9c0.1,0.6,0.2,1.2,0.2,1.7c0,5.3-4.8,9.6-10.6,9.6
		c-5.9,0-10.6-4.3-10.6-9.6c0-5.3,4.8-9.6,10.6-9.6c2,0,3.9,0.5,5.5,1.4V89.6L159.7,79.4z"/>
	<path d="M158.8,141.6v1.5h-0.1C158.7,142.6,158.8,142.1,158.8,141.6z"/>
	<path class="st12" d="M56,173.3l-1.9,3.6c-1.9-1.4-4.2-2.1-6.5-2.1c-6.6,0-12,5.7-12,12.7s5.4,12.7,12,12.7c2.4,0,4.6-0.7,6.5-2.1
		l1.9,3.6c-2.5,1.7-5.4,2.6-8.4,2.6c-8.8,0-15.8-7.5-15.8-16.7c0-9.3,7-16.7,15.8-16.7C50.5,170.8,53.5,171.7,56,173.3z M53.8,177.3
		l-1.8,3.6c-1.3-1-2.8-1.5-4.5-1.5c-4.3,0-7.7,3.6-7.7,8.2s3.4,8.2,7.7,8.2c1.7,0,3.1-0.5,4.5-1.5l1.8,3.6c-1.9,1.3-4,2-6.3,2
		c-6.4,0-11.6-5.5-11.6-12.2c0-6.7,5.2-12.2,11.6-12.2C49.8,175.3,52,176,53.8,177.3L53.8,177.3z"/>
	<path class="st12" d="M60.8,204h-3.6v-11c0-5.8,4-10.7,10.6-10.7v3.8c-4.4,0-7,3.1-7,6.9V204z M67.8,190.5v-3.9
		c-4,0-6.5,2.9-6.5,6.4v11h3.6v-11C64.9,191.7,65.7,190.5,67.8,190.5z"/>
	<path class="st12" d="M96.3,186.3h10.1v-4H96.3c-5.8,0-7.3,6.7-2.9,10.4c1.4,1.1,2.2,1.9,3.5,3l-5.6,0v3.9l10.1,0
		c1.7,0,2.1-1.4,0.9-2.6l-7.1-7.3C93.6,188.3,94.2,186.3,96.3,186.3z M77.1,193.1c0-1.4,1.1-2.5,2.3-2.5c2.5,0,2.5,3.5-0.2,3.5v0.9
		h4.5c1.2-1.6,1.3-3,1.2-4.3c-0.3-2.4-2.3-4.1-5.5-4.1c-3.4,0-6.1,2.9-6.1,6.4s2.7,6.5,6.1,6.5c1.9,0,3.9,0,9.7,0v-3.9l-9.6,0
		C78.2,195.7,77.1,194.5,77.1,193.1z M105,194.4l-4.2-3.9h5.6v-3.7H96.3c-1.7,0-2.1,1.5-0.9,2.6l7.2,7.2c1.5,1.6,0.8,3.5-1.2,3.5
		l-10.1,0v4h10C106.8,204,108.7,197.9,105,194.4z M72.8,193.1c0-3.8,3-6.9,6.6-6.9c3.3,0,5.6,2,5.9,4.6c0.2,1.3-0.1,3-1.1,4.3l3.7,0
		c1-1.3,1.3-3,1.2-4.6c-0.3-5.9-4.9-8.2-9.7-8.2c-5.7,0-10.3,4.8-10.4,10.9c0,6,4.5,11,10.2,11c0,0,0.1,0,0.1,0h9.7v-4l-9.7,0
		C75.8,200,72.8,196.9,72.8,193.1L72.8,193.1z"/>
	<path class="st12" d="M117.9,186.2c-3.6,0-6.5,3.1-6.5,7c0,3.9,3,6.9,6.6,6.9c2.8,0,5.2-1.7,6.1-4.5h4c-1.1,4.8-5.3,8.5-10.1,8.5
		c-5.6,0-10.3-5.1-10.3-11c0-6.1,4.7-11,10.3-11c4.9,0,9,3.6,10.1,8.5h-4C123.2,188,120.7,186.2,117.9,186.2z M118,199.7
		c-3.3,0-6.2-3-6.2-6.5c0-3.6,2.8-6.5,6.1-6.5c2.5,0,4.7,1.6,5.7,4h-5.7c-1.3,0-2.3,1.1-2.3,2.5c0,1.3,1.1,2.5,2.4,2.5h5.6
		C122.7,198,120.6,199.7,118,199.7L118,199.7z"/>
	<path class="st12" d="M132.7,193.1c0,3.8,3,6.9,6.6,6.9h9.3v4h-9.3c-5.7,0-10.3-4.8-10.4-10.9c0-6,4.5-11,10.2-11c0,0,0.1,0,0.1,0
		c4.7,0,9.3,2.4,9.7,8.2c0.1,1.6-0.1,3.3-1.2,4.6l-3.7,0c1.1-1.3,1.3-3,1.1-4.3c-0.3-2.6-2.6-4.6-5.9-4.6
		C135.7,186.2,132.7,189.3,132.7,193.1z M148.6,199.6c-3.1,0-6.2,0-9.3,0c-3.4,0-6.1-2.9-6.1-6.4s2.7-6.4,6.1-6.4
		c3.2,0,5.2,1.8,5.5,4.1c0.1,1.3,0,2.7-1.2,4.3h-4.5v-0.9c2.7,0,2.7-3.5,0.2-3.5c-1.3,0-2.3,1.1-2.3,2.5c0,1.4,1.1,2.5,2.4,2.5
		c0,0,0,0,0.1,0h9.3L148.6,199.6z"/>
	<path class="st12" d="M155,191c-0.5-2.1-2-3.8-3.9-4.6v-4.1c1.5,0.3,2.8,1,4,2c1.8-1.5,4-2.3,6.3-2.3c5.6,0,10.2,4.8,10.2,10.9V204
		h-3.7v-11.2c0-3.8-2.9-6.8-6.5-6.9C158.3,186,155.9,187.9,155,191z M151.1,204h3.7v-11.1c0-2.6-1.5-5-3.7-6V204z M163.6,192.9V204
		h3.7v-11.1c0-3.5-2.7-6.4-6-6.4s-6,2.9-6,6.4V204h3.7v-11.1c0-1.4,1-2.5,2.3-2.5C162.5,190.4,163.6,191.6,163.6,192.9L163.6,192.9z
		"/>
	<path class="st12" d="M185.4,182.4v4.1c-0.5-0.1-1.1-0.3-1.8-0.3c-3.6,0-6.6,3.2-6.6,7c0,3.8,3,7,6.6,7c3.6,0,6.6-3.2,6.6-7v-11.5
		c0-2.6,1.5-5,3.7-5.9v17.4c0,6-4.6,10.9-10.3,10.9c0,0,0,0,0,0c-5.7,0-10.3-4.9-10.3-10.9c0-5.9,4.7-10.9,10.3-10.9
		C184.2,182.3,184.9,182.3,185.4,182.4z M189.7,193.2c0,3.5-2.7,6.4-6.1,6.4c-3.4,0-6.1-2.9-6.1-6.4c0-3.5,2.7-6.4,6.1-6.4
		c0.6,0,1.3,0,1.8,0.3v4.3c-1.5-1.5-4.1-0.4-4.1,1.8c0.1,1.3,0.9,2.4,2.3,2.4c1.4,0,2.3-1.2,2.3-2.6v-11.3c0-5,3.4-9.5,8-10.6v4.2
		c-2.5,1-4.2,3.5-4.2,6.5L189.7,193.2z"/>
	<path class="st12" d="M216.2,193.3c0,6.1-4.8,11.1-10.6,11.1c-5.7,0-10.5-5-10.5-11.1c0-6.2,4.7-11.2,10.5-11.2
		C211.5,182.1,216.2,187.1,216.2,193.3z M212.4,193.3c0-4-3.1-7.1-6.8-7.1c-3.7,0-6.6,3.2-6.6,7.1c0,3.9,3,7.1,6.6,7.1
		C209.4,200.4,212.4,197.2,212.4,193.3L212.4,193.3z M211.9,193.3c0,3.7-2.8,6.6-6.2,6.6c-3.4,0-6.2-2.9-6.2-6.5c0,0,0,0,0,0
		c0-3.6,2.8-6.6,6.2-6.6C209.1,186.7,211.9,189.7,211.9,193.3z M208.1,193.3c0-1.4-1.1-2.5-2.4-2.5c-1.2,0-2.4,1.1-2.4,2.5
		c0,1.3,1.1,2.5,2.4,2.5C207,195.8,208.1,194.6,208.1,193.3L208.1,193.3z"/>
</g>
</svg>
