<svg width="256" height="256" viewBox="0 0 256 256" fill="none" xmlns="http://www.w3.org/2000/svg">
<circle cx="128" cy="128" r="128" fill="black"/>
<path fill-rule="evenodd" clip-rule="evenodd" d="M127.999 227.967C72.9592 227.967 28.0312 183.167 28.0312 127.999C28.0312 72.8312 72.9592 28.0312 127.999 28.0312C183.039 28.0312 227.967 72.8312 227.967 127.999C227.967 183.167 183.039 227.967 127.999 227.967ZM127.999 29.3113C73.5993 29.3113 29.3113 73.5993 29.3113 127.999C29.3113 182.399 73.5993 226.687 127.999 226.687C182.399 226.687 226.687 182.399 226.687 127.999C226.687 73.5993 182.399 29.3113 127.999 29.3113Z" fill="#FECB17"/>
<path d="M234.973 127.988L237.688 125.273L240.403 127.988L237.688 130.704L234.973 127.988Z" fill="#FECB17"/>
<path d="M236.41 111.533L234.053 114.564L237.084 116.921L239.441 113.89L236.41 111.533Z" fill="#FECB17"/>
<path d="M231.709 101.635L233.675 98.3362L236.973 100.302L235.008 103.6L231.709 101.635Z" fill="#FECB17"/>
<path d="M229.263 85.8383L227.713 89.3516L231.226 90.9014L232.776 87.3882L229.263 85.8383Z" fill="#FECB17"/>
<path d="M222.4 77.7812L223.518 74.1075L227.192 75.225L226.074 78.8987L222.4 77.7812Z" fill="#FECB17"/>
<path d="M216.424 63.1414L215.75 66.9219L219.53 67.5962L220.205 63.8157L216.424 63.1414Z" fill="#FECB17"/>
<path d="M207.984 56.9082L208.21 53.0747L212.043 53.3L211.818 57.1335L207.984 56.9082Z" fill="#FECB17"/>
<path d="M202.638 43.9251L198.805 44.1504L199.03 47.9839L202.863 47.7586L202.638 43.9251Z" fill="#FECB17"/>
<path d="M188.508 36.4434L192.288 35.7691L192.963 39.5495L189.182 40.2238L188.508 36.4434Z" fill="#FECB17"/>
<path d="M180.875 28.8181L177.201 29.9355L178.319 33.6093L181.992 32.4918L180.875 28.8181Z" fill="#FECB17"/>
<path d="M165.15 24.7305L168.664 23.1806L170.213 26.6939L166.7 28.2437L165.15 24.7305Z" fill="#FECB17"/>
<path d="M155.648 19.005L152.35 20.9707L154.315 24.2693L157.614 22.3036L155.648 19.005Z" fill="#FECB17"/>
<path d="M139.023 18.8984L142.055 16.5414L144.412 19.5727L141.38 21.9297L139.023 18.8984Z" fill="#FECB17"/>
<path d="M127.989 15.5933L125.273 18.3086L127.989 21.0239L130.704 18.3086L127.989 15.5933Z" fill="#FECB17"/>
<path d="M111.523 19.584L113.88 16.5527L116.912 18.9097L114.555 21.941L111.523 19.584Z" fill="#FECB17"/>
<path d="M100.292 19.0237L98.3262 22.3223L101.625 24.288L103.59 20.9894L100.292 19.0237Z" fill="#FECB17"/>
<path d="M85.832 26.7324L87.3819 23.2192L90.8951 24.769L89.3452 28.2822L85.832 26.7324Z" fill="#FECB17"/>
<path d="M75.2151 28.8204L74.0977 32.4941L77.7714 33.6116L78.8888 29.9379L75.2151 28.8204Z" fill="#FECB17"/>
<path d="M63.1484 39.5879L63.8227 35.8074L67.6032 36.4817L66.9289 40.2622L63.1484 39.5879Z" fill="#FECB17"/>
<path d="M53.3073 43.9575L53.082 47.791L56.9155 48.0163L57.1408 44.1828L53.3073 43.9575Z" fill="#FECB17"/>
<path d="M43.9238 53.3672L47.7573 53.1419L47.9826 56.9754L44.1491 57.2007L43.9238 53.3672Z" fill="#FECB17"/>
<path d="M39.5617 63.0464L35.7812 63.7207L36.4556 67.5012L40.236 66.8269L39.5617 63.0464Z" fill="#FECB17"/>
<path d="M28.8301 75.1172L32.5038 73.9997L33.6212 77.6735L29.9475 78.7909L28.8301 75.1172Z" fill="#FECB17"/>
<path d="M26.689 85.7803L23.1758 87.3301L24.7256 90.8433L28.2388 89.2935L26.689 85.7803Z" fill="#FECB17"/>
<path d="M19.002 100.342L22.3005 98.3761L24.2662 101.675L20.9676 103.64L19.002 100.342Z" fill="#FECB17"/>
<path d="M19.4883 111.477L16.457 113.834L18.814 116.865L21.8453 114.508L19.4883 111.477Z" fill="#FECB17"/>
<path d="M15.5918 128.012L18.3071 125.296L21.0223 128.012L18.3071 130.727L15.5918 128.012Z" fill="#FECB17"/>
<path d="M18.7964 139.002L16.4395 142.033L19.4707 144.39L21.8277 141.359L18.7964 139.002Z" fill="#FECB17"/>
<path d="M19.0137 155.705L20.9794 152.407L24.2779 154.372L22.3122 157.671L19.0137 155.705Z" fill="#FECB17"/>
<path d="M24.7627 165.1L23.2129 168.613L26.7261 170.163L28.2759 166.65L24.7627 165.1Z" fill="#FECB17"/>
<path d="M28.8105 180.797L29.928 177.123L33.6017 178.241L32.4843 181.914L28.8105 180.797Z" fill="#FECB17"/>
<path d="M36.4907 188.409L35.8164 192.189L39.5969 192.864L40.2712 189.083L36.4907 188.409Z" fill="#FECB17"/>
<path d="M43.9629 202.693L44.1882 198.86L48.0217 199.085L47.7964 202.919L43.9629 202.693Z" fill="#FECB17"/>
<path d="M56.9761 208.023L53.1426 208.248L53.3679 212.082L57.2013 211.856L56.9761 208.023Z" fill="#FECB17"/>
<path d="M63.0566 216.445L66.8371 215.771L67.5114 219.551L63.7309 220.226L63.0566 216.445Z" fill="#FECB17"/>
<path d="M77.6835 222.371L74.0098 223.488L75.1272 227.162L78.8009 226.045L77.6835 222.371Z" fill="#FECB17"/>
<path d="M85.7754 229.303L89.2886 227.753L90.8384 231.266L87.3252 232.816L85.7754 229.303Z" fill="#FECB17"/>
<path d="M101.672 231.724L98.373 233.689L100.339 236.988L103.637 235.022L101.672 231.724Z" fill="#FECB17"/>
<path d="M111.469 236.502L114.5 234.145L116.857 237.176L113.826 239.533L111.469 236.502Z" fill="#FECB17"/>
<path d="M128.01 234.974L125.295 237.689L128.01 240.405L130.725 237.689L128.01 234.974Z" fill="#FECB17"/>
<path d="M138.992 237.195L141.349 234.164L144.38 236.521L142.023 239.552L138.992 237.195Z" fill="#FECB17"/>
<path d="M154.362 231.719L152.396 235.018L155.695 236.983L157.661 233.685L154.362 231.719Z" fill="#FECB17"/>
<path d="M165.092 231.234L166.642 227.721L170.155 229.271L168.605 232.784L165.092 231.234Z" fill="#FECB17"/>
<path d="M178.231 222.41L177.113 226.084L180.787 227.201L181.904 223.528L178.231 222.41Z" fill="#FECB17"/>
<path d="M188.416 219.521L189.09 215.741L192.871 216.415L192.197 220.196L188.416 219.521Z" fill="#FECB17"/>
<path d="M199.091 207.979L198.865 211.812L202.699 212.038L202.924 208.204L199.091 207.979Z" fill="#FECB17"/>
<path d="M208.023 199.029L211.857 198.804L212.082 202.637L208.249 202.863L208.023 199.029Z" fill="#FECB17"/>
<path d="M219.564 188.496L215.783 189.17L216.458 192.95L220.238 192.276L219.564 188.496Z" fill="#FECB17"/>
<path d="M222.381 178.307L226.055 177.189L227.172 180.863L223.498 181.98L222.381 178.307Z" fill="#FECB17"/>
<path d="M231.263 165.155L227.75 166.705L229.3 170.218L232.813 168.668L231.263 165.155Z" fill="#FECB17"/>
<path d="M231.721 154.318L235.019 152.353L236.985 155.651L233.686 157.617L231.721 154.318Z" fill="#FECB17"/>
<path d="M237.09 139.03L234.059 141.387L236.416 144.418L239.447 142.061L237.09 139.03Z" fill="#FECB17"/>
<path fill-rule="evenodd" clip-rule="evenodd" d="M8.19141 127.999C8.19141 194.047 61.9514 247.807 127.999 247.807C194.047 247.807 247.807 194.047 247.807 127.999C247.807 61.9514 194.047 8.19141 127.999 8.19141C61.9514 8.19141 8.19141 61.9514 8.19141 127.999ZM9.34341 127.999C9.34341 62.5914 62.5914 9.34341 127.999 9.34341C193.407 9.34341 246.655 62.5914 246.655 127.999C246.655 193.407 193.407 246.655 127.999 246.655C62.5914 246.655 9.34341 193.407 9.34341 127.999Z" fill="#FECB17"/>
<path fill-rule="evenodd" clip-rule="evenodd" d="M0 128C0 198.528 57.472 256 128 256C198.528 256 256 198.528 256 128C256 57.472 198.528 0 128 0C57.472 0 0 57.472 0 128ZM4.864 128C4.864 60.032 60.032 4.864 128 4.864C195.968 4.864 251.136 60.16 251.136 128C251.136 195.84 195.84 251.136 128 251.136C60.16 251.136 4.864 195.968 4.864 128Z" fill="#FECB17"/>
<path d="M93.878 100.195H92.8027V80.9395C93.8812 81.4064 95.7588 81.847 98.4353 82.2613C101.118 82.669 103.591 82.8926 105.853 82.9321H150.302C152.571 82.8926 155.054 82.669 157.75 82.2613C160.446 81.847 162.333 81.4064 163.412 80.9395V100.195H162.278V98.9025C162.278 95.5223 161.281 92.8162 159.289 90.7841C157.29 88.752 154.6 87.6999 151.22 87.6275H136.384V152.417C136.456 154.317 137.176 155.945 138.544 157.3C139.912 158.648 141.549 159.322 143.456 159.322H144.857L144.906 160.397H111.298V159.322H112.709C114.61 159.322 116.244 158.664 117.612 157.349C118.98 156.034 119.7 154.426 119.772 152.525V87.6275H104.936C101.556 87.6999 98.866 88.752 96.8669 90.7841C94.8743 92.8162 93.878 95.5223 93.878 98.9025V100.195Z" fill="#FECB18"/>
</svg>
