<svg width="256" height="256" viewBox="0 0 256 256" fill="none" xmlns="http://www.w3.org/2000/svg">
<path d="M256 128C256 198.692 198.692 256 128 256C57.3075 256 0 198.692 0 128C0 57.3075 57.3075 0 128 0C198.692 0 256 57.3075 256 128Z" fill="white"/>
<path d="M119.725 0.517091C71.835 3.93042 30.4613 32.8403 11.119 76.4379C-1.49995 104.986 -3.10319 138.292 6.7748 168.132C18.1009 202.369 43.3906 230.193 76.4378 244.881C104.986 257.5 138.292 259.103 168.132 249.225C202.369 237.899 230.193 212.609 244.881 179.562C257.5 151.014 259.103 117.708 249.225 87.8674C244.467 73.3866 236.813 59.4229 227.245 47.528L224.194 43.8044L223.832 45.3042C223.677 46.1316 223.108 50.0621 222.642 54.0444C220.936 68.6286 216.022 95.6767 207.955 135.24C205.731 146.308 203.921 155.462 204.024 155.565C204.283 155.875 213.281 151.997 219.901 148.687C228.848 144.239 231.745 142.274 236.865 137.309C242.191 132.137 243.381 131.362 245.45 131.362C247.984 131.362 248.966 132.861 249.173 137.309C249.587 145.377 246.691 150.6 237.64 158.203C229.676 164.823 221.349 169.632 205.162 176.873C199.214 179.562 199.111 179.665 198.542 181.734C197.042 187.578 196.06 190.267 192.543 199.059C188.199 209.868 185.509 215.35 182.199 220.522C174.649 232.262 165.547 239.864 154.531 243.846C147.808 246.225 142.843 246.846 132.758 246.587C126.397 246.381 123.294 246.07 119.829 245.191C110.416 242.76 103.796 239.399 98.7279 234.33C93.4528 229.055 90.9704 222.642 90.8669 214.419C90.8152 209.196 92.1598 206.351 96.5041 202.162C105.141 193.991 118.122 187.63 149.721 175.993C156.237 173.614 161.616 171.597 161.668 171.546C161.771 171.494 162.392 167.46 163.116 162.65C166.012 143.567 169.167 126.707 172.27 113.364C176.562 95.1078 184.527 68.2666 190.112 53.0617C191.353 49.6484 192.388 46.7005 192.388 46.4937C192.388 45.7179 184.94 42.4597 181.269 41.5805C178.424 40.9082 176.097 40.8048 170.408 41.0116C161.202 41.3737 156.393 42.2011 140.412 46.1316C133.068 47.89 125.828 49.3898 123.604 49.4933C120.139 49.7001 119.518 49.5967 117.967 48.5106C116.932 47.8383 116.001 46.6488 115.795 45.8213C114.605 41.3737 121.897 34.185 133.378 28.4444C149.204 20.5316 167.46 17.17 186.957 18.5147C190.94 18.825 194.25 18.9801 194.353 18.9284C194.612 18.6181 184.578 13.3429 179.562 11.1191C161.357 3.10295 139.171 -0.879272 119.725 0.517091ZM42.2528 71.9385C45.0455 73.2831 48.0451 76.6965 51.0447 81.8682L53.372 85.8504L56.0095 83.5749C59.7332 80.4201 64.6463 77.8343 69.5594 76.4896C77.9893 74.1623 91.6944 75.3001 98.8831 78.9203C102.814 80.9373 106.796 84.9195 108.813 89.0052C111.192 93.7114 111.916 98.5211 111.554 106.279C111.088 114.709 109.795 122.001 105.813 137.568C101.779 153.445 101.417 157.324 103.641 158.306C106.641 159.703 115.019 153.186 127.638 139.843C133.844 133.275 136.223 131.362 138.033 131.362C140.05 131.362 140.826 133.068 141.084 138.136C141.601 148.118 136.895 158.565 127.793 167.564C125 170.305 122.725 171.804 115.588 175.683C105.968 180.855 98.3142 184.268 94.5388 185.096C92.8839 185.458 90.9186 185.509 88.6948 185.199C80.7304 184.061 76.6447 179.976 73.852 170.305C72.7659 166.684 72.6625 165.185 72.6625 155.151C72.6625 142.584 72.9728 140.153 76.3861 125.673C79.2823 113.364 79.8512 106.33 78.1445 103.589C76.6964 101.262 74.3691 100.228 70.5421 100.176C62.6293 100.073 55.2338 107.261 48.0968 121.897C45.3041 127.638 42.3562 135.913 41.3219 141.033C40.4427 145.273 41.2701 152.152 43.7009 161.616C46.4419 172.218 46.0798 174.959 41.4253 178.993C38.4774 181.579 27.5134 187.061 23.738 187.837C18.9283 188.819 15.4633 187.526 13.6015 183.958C11.4811 179.821 11.2225 177.597 11.0156 160.582C10.4984 124.535 13.0326 107.882 21.9796 89.1603C26.2722 80.1615 30.4613 73.852 33.254 72.1454C35.995 70.5421 39.2015 70.4387 42.2528 71.9385Z" fill="#C85AF3"/>
<path d="M141.446 200.611C125 206.351 120.035 208.472 116.984 211.265C110.985 216.695 116.053 224.349 127.896 227.814C131.62 228.9 137.361 228.9 139.998 227.814C144.032 226.107 149.411 219.281 152.359 212.04C153.341 209.558 157.22 196.577 157.22 195.646C157.22 195.232 154.944 195.956 141.446 200.611Z" fill="#C85AF3"/>
</svg>
