<svg width="256" height="256" viewBox="0 0 256 256" fill="none" xmlns="http://www.w3.org/2000/svg">
<g clip-path="url(#clip0_5897:47878)">
<circle cx="128" cy="128" r="128" fill="black"/>
<g filter="url(#filter0_f_5897:47878)">
<path d="M127.999 227.768C183.1 227.768 227.768 183.1 227.768 127.999C227.768 72.8985 183.1 28.2305 127.999 28.2305C72.8985 28.2305 28.2305 72.8985 28.2305 127.999C28.2305 183.1 72.8985 227.768 127.999 227.768Z" fill="#F1D4D4"/>
</g>
<path d="M138.932 36.8105L133.77 36.8453C130.931 36.8641 127.4 37.0065 125.921 37.1628C117.887 38.0119 109.016 40.1514 101.84 42.9712C78.1044 52.2974 59.2415 71.1453 49.9459 94.8246C44.5058 108.682 42.5581 124.802 44.507 139.827C45.9546 150.987 49.857 162.904 55.0887 172.139C59.6111 180.122 63.8689 185.725 70.3593 192.234C77.6592 199.556 83.3097 203.8 92.2015 208.64C102.493 214.243 115.579 218.08 127.648 219.034C128.188 219.077 131.019 219.13 133.939 219.153L139.248 219.194L138.982 202.835L140.157 202.674C140.803 202.586 141.84 202.512 142.462 202.51C144.394 202.504 151.282 201.365 154.906 200.452C179.118 194.355 198.845 177.018 207.536 154.198C214.7 135.386 213.623 114.16 204.587 96.1226C202.614 92.1851 199.529 87.1962 197.487 84.6447C196.731 83.7002 195.721 82.434 195.242 81.8301C189.182 74.1876 178.643 66.1098 168.614 61.42C160.761 57.7482 150.415 55.1088 141.327 54.4598L139.061 54.2986L138.932 36.8105ZM131.279 40.886C131.717 40.8839 132.141 40.8885 132.549 40.9016L134.997 40.9802L135.079 47.3145C135.134 51.5244 135.074 53.7535 134.902 53.9613C134.728 54.1706 133.533 54.3265 131.286 54.4342C121.049 54.9252 110.137 57.7815 100.91 62.3841C93.5627 66.0496 87.0971 70.7296 81.0155 76.7866C73.1899 84.5805 67.4937 93.2917 63.935 102.908C53.2894 131.675 61.3129 163.251 84.4369 183.591C90.2909 188.741 98.1169 193.667 105.344 196.749C112.849 199.951 122.814 202.199 131.696 202.696L135.008 202.881L135.022 208.768C135.03 212.006 134.99 214.794 134.935 214.963C134.767 215.468 129.807 215.317 124.337 214.64C110.579 212.937 97.8801 208.185 86.2686 200.396C70.2706 189.663 58.2666 173.885 52.2184 155.639C50.1488 149.396 48.6438 142.29 48.0652 136.036C47.7333 132.448 47.7276 123.726 48.0545 120.214C48.5736 114.637 49.8446 108.072 51.4032 102.92C59.6465 75.672 80.4155 54.2774 107.444 45.1904C114.959 42.6637 124.707 40.9208 131.279 40.886ZM135.744 64.0453C141.604 64.0501 143.126 64.1306 146.115 64.5951C157.336 66.3395 168.038 70.8315 176.995 77.5555C180.436 80.139 186.831 86.4117 189.224 89.5511C195.943 98.3649 200.033 107.701 201.901 118.497C202.385 121.294 202.452 122.528 202.448 128.554C202.445 134.543 202.374 135.831 201.895 138.611C199.378 153.225 192.389 165.906 181.376 175.843C171.723 184.553 159.003 190.538 146.046 192.466C142.744 192.957 132.791 193.318 130.101 193.045C123.83 192.406 117.927 191.095 112.414 189.116C89.751 180.981 73.5264 161.8 69.592 138.489C69.1051 135.604 69.0331 134.323 69.0356 128.554C69.0381 122.849 69.1157 121.472 69.5895 118.62C72.7301 99.7132 84.2897 82.9977 100.91 73.3288C108.718 68.7866 116.456 66.0215 125.318 64.6067C128.43 64.1099 129.734 64.0403 135.744 64.0453Z" fill="black"/>
<path d="M165.734 85.174C165.006 85.2228 163.044 85.7283 159.934 86.6698C144.82 91.2459 132.653 94.1578 117.506 96.8236C112.622 97.6831 110.2 98.2141 109.779 98.5182C108.659 99.3267 108.567 100.22 109.171 104.433C111.265 119.038 110.252 139.316 106.234 163.235C105.264 169.009 105.299 169.588 106.683 170.456C107.646 171.06 109.099 170.929 109.915 170.162C110.561 169.555 110.659 169.154 111.728 162.693C112.664 157.04 113.575 150.62 114.061 146.258C114.722 140.314 114.589 140.811 115.56 140.629C116.029 140.541 121.019 139.761 126.649 138.896L136.885 137.322L137.559 136.573C138.565 135.457 138.504 134.091 137.4 132.987C136.924 132.511 136.318 132.153 135.989 132.153C135.672 132.153 131.77 132.709 127.318 133.387C116.012 135.109 115.431 135.189 115.29 135.048C115.222 134.979 115.298 132.036 115.461 128.509C115.789 121.399 115.486 111.173 114.792 105.926C114.589 104.386 114.508 103.041 114.614 102.937C114.72 102.834 117.07 102.35 119.836 101.862C130.559 99.9711 146.103 96.3629 156.205 93.4204L157.862 92.9375L155.837 95.3901C154.722 96.739 153.658 98.0584 153.471 98.3222C153.002 98.9832 153.044 100.537 153.552 101.312C154.279 102.422 156.316 102.752 157.315 101.922C157.918 101.422 167.303 89.9254 167.745 89.1463C168.571 87.6886 167.611 85.5413 165.971 85.1812C165.918 85.17 165.839 85.1668 165.734 85.1732V85.174ZM165.734 85.174C165.006 85.2228 163.044 85.7283 159.934 86.6698C144.82 91.2459 132.653 94.1578 117.506 96.8236C112.622 97.6831 110.2 98.2141 109.779 98.5182C108.659 99.3267 108.567 100.22 109.171 104.433C111.265 119.038 110.252 139.316 106.234 163.235C105.264 169.009 105.299 169.588 106.683 170.456C107.646 171.06 109.099 170.929 109.915 170.162C110.561 169.555 110.659 169.154 111.728 162.693C112.664 157.04 113.575 150.62 114.061 146.258C114.722 140.314 114.589 140.811 115.56 140.629C116.029 140.541 121.019 139.761 126.649 138.896L136.885 137.322L137.559 136.573C138.565 135.457 138.504 134.091 137.4 132.987C136.924 132.511 136.318 132.153 135.989 132.153C135.672 132.153 131.77 132.709 127.318 133.387C116.012 135.109 115.431 135.189 115.29 135.048C115.222 134.979 115.298 132.036 115.461 128.509C115.789 121.399 115.486 111.173 114.792 105.926C114.589 104.386 114.508 103.041 114.614 102.937C114.72 102.834 117.07 102.35 119.836 101.862C130.559 99.9711 146.103 96.3629 156.205 93.4204L157.862 92.9375L155.837 95.3901C154.722 96.739 153.658 98.0584 153.471 98.3222C153.002 98.9832 153.044 100.537 153.552 101.312C154.279 102.422 156.316 102.752 157.315 101.922C157.918 101.422 167.303 89.9254 167.745 89.1463C168.571 87.6886 167.611 85.5413 165.971 85.1812C165.918 85.17 165.839 85.1668 165.734 85.1732V85.174Z" fill="black"/>
<path d="M136.013 172.762L140.599 159.521H142.914L136.961 175.573H135.087L129.145 159.521H131.449L136.013 172.762Z" fill="black"/>
<path d="M147.346 175.573H145.229V159.521H147.346V175.573Z" fill="black"/>
<path d="M153.343 169.289V175.573H151.226V159.521H157.146C158.903 159.521 160.277 159.97 161.269 160.866C162.269 161.763 162.769 162.95 162.769 164.427C162.769 165.985 162.28 167.187 161.302 168.032C160.332 168.87 158.94 169.289 157.124 169.289H153.343ZM153.343 167.558H157.146C158.278 167.558 159.145 167.294 159.748 166.764C160.351 166.228 160.652 165.456 160.652 164.449C160.652 163.494 160.351 162.73 159.748 162.156C159.145 161.583 158.319 161.285 157.268 161.263H153.343V167.558Z" fill="black"/>
</g>
<defs>
<filter id="filter0_f_5897:47878" x="-13.4568" y="-13.4568" width="282.912" height="282.912" filterUnits="userSpaceOnUse" color-interpolation-filters="sRGB">
<feFlood flood-opacity="0" result="BackgroundImageFix"/>
<feBlend mode="normal" in="SourceGraphic" in2="BackgroundImageFix" result="shape"/>
<feGaussianBlur stdDeviation="20.8436" result="effect1_foregroundBlur_5897:47878"/>
</filter>
<clipPath id="clip0_5897:47878">
<rect width="256" height="256" fill="white"/>
</clipPath>
</defs>
</svg>
