<?xml version="1.0" encoding="UTF-8"?>
<svg xmlns="http://www.w3.org/2000/svg" xmlns:xlink="http://www.w3.org/1999/xlink" width="256px" height="256px" viewBox="0 0 256 256" version="1.1">
<defs>
<clipPath id="clip1">
  <path d="M 151.394531 52.148438 L 186 52.148438 L 186 100.503906 L 151.394531 100.503906 Z M 151.394531 52.148438 "/>
</clipPath>
<clipPath id="clip2">
  <path d="M 135.972656 89.269531 L 170.894531 41.101562 L 201.601562 63.363281 L 166.675781 111.53125 Z M 135.972656 89.269531 "/>
</clipPath>
<clipPath id="clip3">
  <path d="M 135.972656 89.269531 L 170.894531 41.101562 L 201.601562 63.363281 L 166.675781 111.53125 Z M 135.972656 89.269531 "/>
</clipPath>
<clipPath id="clip4">
  <path d="M 151.0625 52 L 186.453125 52 L 186.453125 100.835938 L 151.0625 100.835938 Z M 151.0625 52 "/>
</clipPath>
<clipPath id="clip5">
  <path d="M 135.972656 89.269531 L 170.894531 41.101562 L 201.601562 63.363281 L 166.675781 111.53125 Z M 135.972656 89.269531 "/>
</clipPath>
<clipPath id="clip6">
  <path d="M 135.972656 89.269531 L 170.894531 41.101562 L 201.601562 63.363281 L 166.675781 111.53125 Z M 135.972656 89.269531 "/>
</clipPath>
</defs>
<g id="surface1">
<path style=" stroke:none;fill-rule:nonzero;fill:rgb(18.039216%,99.607843%,89.019608%);fill-opacity:1;" d="M 214.308594 47.5 C 168.132812 1.328125 93.273438 1.328125 47.101562 47.5 C 0.929688 93.675781 0.929688 168.535156 47.101562 214.707031 C 93.273438 260.882812 168.132812 260.882812 214.308594 214.707031 C 260.480469 168.535156 260.480469 93.675781 214.308594 47.5 Z M 214.308594 47.5 "/>
<path style=" stroke:none;fill-rule:nonzero;fill:rgb(100%,100%,100%);fill-opacity:1;" d="M 110.890625 85.347656 L 67.75 85.347656 L 67.75 199.71875 L 110.890625 199.71875 C 144.550781 199.71875 168.894531 175.707031 168.894531 142.546875 C 168.894531 109.382812 144.527344 85.347656 110.890625 85.347656 Z M 110.390625 176.820312 L 92.425781 176.820312 L 92.425781 108.367188 L 110.390625 108.367188 C 129.996094 108.367188 143.554688 122.253906 143.554688 142.5 C 143.554688 162.457031 129.996094 176.820312 110.390625 176.820312 Z M 110.390625 176.820312 "/>
<g clip-path="url(#clip1)" clip-rule="nonzero">
<g clip-path="url(#clip2)" clip-rule="nonzero">
<g clip-path="url(#clip3)" clip-rule="nonzero">
<path style=" stroke:none;fill-rule:nonzero;fill:rgb(100%,100%,100%);fill-opacity:1;" d="M 151.609375 100.3125 L 183.820312 87.441406 L 185.957031 52.335938 L 153.527344 65.46875 Z M 151.609375 100.3125 "/>
</g>
</g>
</g>
<g clip-path="url(#clip4)" clip-rule="nonzero">
<g clip-path="url(#clip5)" clip-rule="nonzero">
<g clip-path="url(#clip6)" clip-rule="nonzero">
<path style=" stroke:none;fill-rule:nonzero;fill:rgb(100%,100%,100%);fill-opacity:1;" d="M 184.035156 87.585938 C 184.011719 87.632812 183.964844 87.65625 183.917969 87.65625 L 151.703125 100.527344 C 151.632812 100.550781 151.539062 100.550781 151.464844 100.503906 C 151.394531 100.457031 151.347656 100.363281 151.371094 100.289062 L 153.292969 65.46875 C 153.292969 65.375 153.363281 65.28125 153.457031 65.257812 L 185.882812 52.125 C 185.957031 52.101562 186.074219 52.101562 186.121094 52.148438 C 186.191406 52.195312 186.238281 52.289062 186.214844 52.363281 L 184.082031 87.464844 C 184.082031 87.515625 184.058594 87.5625 184.035156 87.585938 Z M 151.894531 99.933594 L 183.585938 87.277344 L 185.671875 52.742188 L 153.789062 65.683594 Z M 151.894531 99.933594 "/>
</g>
</g>
</g>
</g>
</svg>
