<?xml version="1.0" encoding="UTF-8"?>
<svg xmlns="http://www.w3.org/2000/svg" xmlns:xlink="http://www.w3.org/1999/xlink" width="256px" height="256px" viewBox="0 0 256 256" version="1.1">
<defs>
<clipPath id="clip1">
  <path d="M 0 3.152344 L 256 3.152344 L 256 256 L 0 256 Z M 0 3.152344 "/>
</clipPath>
<clipPath id="clip2">
  <path d="M 151.386719 52.148438 L 186 52.148438 L 186 100.503906 L 151.386719 100.503906 Z M 151.386719 52.148438 "/>
</clipPath>
<clipPath id="clip3">
  <path d="M 135.976562 89.28125 L 170.902344 41.113281 L 201.605469 63.378906 L 166.679688 111.542969 Z M 135.976562 89.28125 "/>
</clipPath>
<clipPath id="clip4">
  <path d="M 135.976562 89.28125 L 170.902344 41.113281 L 201.605469 63.378906 L 166.679688 111.542969 Z M 135.976562 89.28125 "/>
</clipPath>
<clipPath id="clip5">
  <path d="M 151.070312 52 L 186.46875 52 L 186.46875 100.820312 L 151.070312 100.820312 Z M 151.070312 52 "/>
</clipPath>
<clipPath id="clip6">
  <path d="M 135.976562 89.28125 L 170.902344 41.113281 L 201.605469 63.378906 L 166.679688 111.542969 Z M 135.976562 89.28125 "/>
</clipPath>
<clipPath id="clip7">
  <path d="M 135.976562 89.28125 L 170.902344 41.113281 L 201.605469 63.378906 L 166.679688 111.542969 Z M 135.976562 89.28125 "/>
</clipPath>
</defs>
<g id="surface1">
<path style=" stroke:none;fill-rule:nonzero;fill:rgb(18.039216%,99.607843%,89.019608%);fill-opacity:1;" d="M 14.734375 14.105469 L 250.113281 14.105469 L 250.113281 249.484375 L 14.734375 249.484375 L 14.734375 14.105469 "/>
<path style=" stroke:none;fill-rule:nonzero;fill:rgb(96.470588%,96.470588%,96.470588%);fill-opacity:1;" d="M 130.703125 -16.691406 C 49.046875 -16.691406 -17.089844 49.445312 -17.089844 131.101562 C -17.089844 212.757812 49.046875 278.894531 130.703125 278.894531 C 212.359375 278.894531 278.496094 212.757812 278.496094 131.101562 C 278.496094 49.445312 212.359375 -16.691406 130.703125 -16.691406 Z M 130.703125 249.335938 C 65.378906 249.335938 12.46875 196.425781 12.46875 131.101562 C 12.46875 65.777344 65.378906 12.867188 130.703125 12.867188 C 196.027344 12.867188 248.9375 65.777344 248.9375 131.101562 C 248.9375 196.425781 196.027344 249.335938 130.703125 249.335938 Z M 130.703125 249.335938 "/>
<path style=" stroke:none;fill-rule:nonzero;fill:rgb(100%,100%,100%);fill-opacity:1;" d="M 126.199219 -45.289062 C 30.792969 -45.289062 -46.480469 31.984375 -46.480469 127.390625 C -46.480469 222.796875 30.792969 300.074219 126.199219 300.074219 C 221.605469 300.074219 298.882812 222.796875 298.882812 127.390625 C 298.882812 31.984375 221.605469 -45.289062 126.199219 -45.289062 Z M 126.199219 265.535156 C 49.875 265.535156 -11.945312 203.714844 -11.945312 127.390625 C -11.945312 51.066406 49.875 -10.753906 126.199219 -10.753906 C 202.527344 -10.753906 264.34375 51.066406 264.34375 127.390625 C 264.34375 203.714844 202.527344 265.535156 126.199219 265.535156 Z M 126.199219 265.535156 "/>
<path style=" stroke:none;fill-rule:nonzero;fill:rgb(96.470588%,96.470588%,96.470588%);fill-opacity:1;" d="M 128.019531 -54.042969 C 24.230469 -54.042969 -59.832031 30.019531 -59.832031 133.808594 C -59.832031 237.59375 24.230469 321.660156 128.019531 321.660156 C 231.808594 321.660156 315.871094 237.59375 315.871094 133.808594 C 315.871094 30.019531 231.808594 -54.042969 128.019531 -54.042969 Z M 128.019531 284.089844 C 44.988281 284.089844 -22.261719 216.839844 -22.261719 133.808594 C -22.261719 50.777344 44.988281 -16.472656 128.019531 -16.472656 C 211.050781 -16.472656 278.300781 50.777344 278.300781 133.808594 C 278.300781 216.839844 211.050781 284.089844 128.019531 284.089844 Z M 128.019531 284.089844 "/>
<g clip-path="url(#clip1)" clip-rule="nonzero">
<path style=" stroke:none;fill-rule:nonzero;fill:rgb(96.470588%,96.470588%,96.470588%);fill-opacity:1;" d="M 128 3.152344 C 57.28125 3.152344 0 60.433594 0 131.152344 C 0 201.871094 57.28125 259.152344 128 259.152344 C 198.71875 259.152344 256 201.871094 256 131.152344 C 256 60.433594 198.71875 3.152344 128 3.152344 Z M 128 233.554688 C 71.421875 233.554688 25.601562 187.730469 25.601562 131.152344 C 25.601562 74.578125 71.421875 28.753906 128 28.753906 C 184.578125 28.753906 230.398438 74.578125 230.398438 131.152344 C 230.398438 187.730469 184.578125 233.554688 128 233.554688 Z M 128 233.554688 "/>
</g>
<path style=" stroke:none;fill-rule:nonzero;fill:rgb(100%,100%,100%);fill-opacity:1;" d="M 110.882812 85.339844 L 67.75 85.339844 L 67.75 199.699219 L 110.882812 199.699219 C 144.535156 199.699219 168.878906 175.683594 168.878906 142.519531 C 168.878906 109.355469 144.535156 85.339844 110.882812 85.339844 Z M 110.390625 176.828125 L 92.421875 176.828125 L 92.421875 108.375 L 110.390625 108.375 C 129.996094 108.375 143.554688 122.261719 143.554688 142.519531 C 143.554688 162.453125 129.996094 176.828125 110.390625 176.828125 Z M 110.390625 176.828125 "/>
<g clip-path="url(#clip2)" clip-rule="nonzero">
<g clip-path="url(#clip3)" clip-rule="nonzero">
<g clip-path="url(#clip4)" clip-rule="nonzero">
<path style=" stroke:none;fill-rule:nonzero;fill:rgb(100%,100%,100%);fill-opacity:1;" d="M 151.617188 100.3125 L 183.832031 87.449219 L 185.96875 52.351562 L 153.554688 65.492188 Z M 151.617188 100.3125 "/>
</g>
</g>
</g>
<g clip-path="url(#clip5)" clip-rule="nonzero">
<g clip-path="url(#clip6)" clip-rule="nonzero">
<g clip-path="url(#clip7)" clip-rule="nonzero">
<path style=" stroke:none;fill-rule:nonzero;fill:rgb(100%,100%,100%);fill-opacity:1;" d="M 184.035156 87.597656 C 184.007812 87.636719 183.972656 87.664062 183.925781 87.679688 L 151.722656 100.546875 C 151.636719 100.578125 151.550781 100.574219 151.476562 100.523438 C 151.402344 100.46875 151.363281 100.390625 151.371094 100.308594 L 153.300781 65.484375 C 153.308594 65.390625 153.371094 65.296875 153.460938 65.265625 L 185.875 52.121094 C 185.957031 52.09375 186.054688 52.101562 186.117188 52.148438 C 186.191406 52.203125 186.234375 52.28125 186.21875 52.371094 L 184.082031 87.464844 C 184.082031 87.515625 184.066406 87.554688 184.035156 87.597656 Z M 151.894531 99.929688 L 183.585938 87.269531 L 185.683594 52.730469 L 153.800781 65.671875 Z M 151.894531 99.929688 "/>
</g>
</g>
</g>
<path style=" stroke:none;fill-rule:nonzero;fill:rgb(96.470588%,96.470588%,96.470588%);fill-opacity:1;" d="M 132.421875 -20.703125 C 47.035156 -20.703125 -22.128906 48.457031 -22.128906 133.84375 C -22.128906 219.230469 47.035156 288.390625 132.421875 288.390625 C 217.808594 288.390625 286.96875 219.230469 286.96875 133.84375 C 286.96875 48.457031 217.808594 -20.703125 132.421875 -20.703125 Z M 132.421875 257.480469 C 64.109375 257.480469 8.78125 202.152344 8.78125 133.84375 C 8.78125 65.535156 64.109375 10.203125 132.421875 10.203125 C 200.730469 10.203125 256.058594 65.535156 256.058594 133.84375 C 256.058594 202.152344 200.730469 257.480469 132.421875 257.480469 Z M 132.421875 257.480469 "/>
</g>
</svg>
