<?xml version="1.0" standalone="no"?>
<!DOCTYPE svg PUBLIC "-//W3C//DTD SVG 20010904//EN"
 "http://www.w3.org/TR/2001/REC-SVG-20010904/DTD/svg10.dtd">
<svg version="1.0" xmlns="http://www.w3.org/2000/svg"
 width="256.000000pt" height="256.000000pt" viewBox="0 0 256.000000 256.000000"
 preserveAspectRatio="xMidYMid meet">

<g transform="translate(0.000000,256.000000) scale(0.100000,-0.100000)"
fill="#000000" stroke="none">
<path d="M1141 2349 c-113 -13 -215 -45 -336 -104 -233 -115 -411 -304 -506
-541 -59 -145 -74 -227 -74 -399 0 -168 14 -248 69 -388 25 -66 30 -87 22
-109 -18 -51 45 -109 97 -89 62 24 69 89 14 135 -27 23 -45 52 -66 106 -49
126 -64 226 -58 380 6 165 28 256 97 396 124 251 354 439 627 511 137 36 336
38 467 4 153 -40 299 -113 393 -197 l48 -43 -177 -1 -178 0 0 -555 0 -555 35
0 35 0 0 515 0 515 183 0 183 0 29 30 28 30 -70 67 c-168 164 -385 266 -620
293 -100 11 -137 11 -242 -1z"/>
<path d="M670 1519 c0 -476 -1 -492 -20 -516 -27 -34 -25 -69 5 -98 30 -30 64
-32 99 -4 30 24 35 73 11 105 -12 16 -14 89 -15 472 l0 452 63 0 62 -1 210
-270 c184 -237 213 -269 235 -267 19 2 26 10 28 29 2 21 -19 54 -94 150 -54
68 -138 176 -188 239 -49 63 -105 134 -124 158 l-33 42 -120 0 -119 0 0 -491z"/>
<path d="M2091 1864 c-12 -15 -21 -36 -21 -48 0 -27 27 -66 46 -66 32 0 92
-148 115 -283 15 -91 7 -324 -15 -402 -97 -345 -343 -598 -683 -702 -79 -24
-104 -26 -253 -27 -142 -1 -177 2 -250 22 -139 37 -295 120 -400 211 l-35 30
183 1 182 0 0 545 0 545 -35 0 -35 0 -2 -507 -3 -508 -180 -5 c-162 -4 -183
-7 -209 -26 l-28 -20 65 -66 c414 -411 1088 -402 1495 21 286 298 371 766 206
1140 -17 38 -23 64 -18 87 13 70 -81 114 -125 58z"/>
<path d="M1780 1700 c-24 -24 -26 -67 -5 -97 13 -19 15 -86 15 -475 l0 -453
-58 -3 -59 -3 -156 200 c-86 110 -182 234 -214 275 -32 41 -64 77 -70 80 -18
7 -40 -3 -47 -21 -8 -20 0 -32 172 -252 80 -102 175 -223 210 -268 l63 -83
120 0 119 0 0 491 c0 476 1 492 20 516 25 33 25 54 -1 87 -26 33 -79 36 -109
6z"/>
</g>
</svg>
