<svg width="256" height="256" viewBox="0 0 256 256" fill="none" xmlns="http://www.w3.org/2000/svg">
<path d="M128 256C198.692 256 256 198.692 256 128C256 57.3076 198.692 0 128 0C57.3076 0 0 57.3076 0 128C0 198.692 57.3076 256 128 256Z" fill="url(#paint0_linear_5887:47960)"/>
<path fill-rule="evenodd" clip-rule="evenodd" d="M189.949 57.9824H129.493C126.86 57.9824 124.711 60.127 124.711 62.7535V116.282C124.711 122.604 118.908 128 112.215 128H66.0635C64.0875 128 62.3996 129.126 61.6434 130.946C60.8871 132.768 61.2833 134.753 62.6801 136.148L123.31 196.622C124.24 197.55 125.376 198.017 126.693 198.017H183.359C185.335 198.017 187.022 196.893 187.779 195.074C188.534 193.251 188.14 191.267 186.741 189.874L127.229 130.512L126.111 129.398L124.689 127.978L125.124 127.994C161.816 127.782 192.08 99.1071 194.722 63.1022C194.821 61.7314 194.39 60.5132 193.452 59.5059C192.515 58.4972 191.326 57.9824 189.949 57.9824Z" fill="white"/>
<defs>
<linearGradient id="paint0_linear_5887:47960" x1="214.534" y1="227.359" x2="48.8945" y2="30.823" gradientUnits="userSpaceOnUse">
<stop stop-color="#303030"/>
<stop offset="1"/>
</linearGradient>
</defs>
</svg>
