<svg width="256" height="256" viewBox="0 0 256 256" fill="none" xmlns="http://www.w3.org/2000/svg">
<path d="M128 248.099C194.329 248.099 248.099 194.329 248.099 128C248.099 61.6712 194.329 7.901 128 7.901C61.671 7.901 7.90088 61.6712 7.90088 128C7.90088 194.329 61.671 248.099 128 248.099Z" fill="white"/>
<path d="M128 250.974C111.4 250.974 95.2949 247.723 80.1319 241.31C65.4869 235.116 52.3369 226.248 41.0439 214.956C29.7519 203.664 20.8849 190.513 14.6909 175.868C8.27788 160.705 5.02588 144.6 5.02588 128C5.02588 111.4 8.27788 95.295 14.6909 80.132C20.8849 65.487 29.7519 52.337 41.0439 41.044C52.3369 29.752 65.4869 20.885 80.1319 14.691C95.2949 8.278 111.4 5.026 128 5.026C144.601 5.026 160.705 8.278 175.867 14.691C190.512 20.885 203.663 29.752 214.955 41.044C226.248 52.337 235.115 65.487 241.309 80.132C247.722 95.295 250.973 111.4 250.973 128C250.973 144.6 247.722 160.705 241.309 175.867C235.115 190.512 226.247 203.663 214.955 214.955C203.663 226.248 190.512 235.115 175.867 241.309C160.705 247.723 144.601 250.974 128 250.974ZM128 10.775C63.3619 10.775 10.7749 63.362 10.7749 128C10.7749 192.638 63.3619 245.225 128 245.225C192.638 245.225 245.225 192.638 245.225 128C245.225 63.362 192.638 10.775 128 10.775Z" fill="#F29427"/>
<path fill-rule="evenodd" clip-rule="evenodd" d="M61.7199 189.988C63.1989 189.988 64.3679 189.949 65.5329 189.994C75.0659 190.357 84.0419 188.374 92.1929 183.339C104.156 175.947 111.409 165.314 113.868 151.409C114.924 145.432 114.629 139.537 113.425 133.64C113.378 133.411 113.267 133.192 113.157 132.986C113.106 132.89 112.984 132.833 112.944 132.798C110.152 133.993 107.462 135.397 104.616 136.319C93.6939 139.862 83.1929 138.655 73.1369 133.17C72.1169 132.613 71.7459 131.929 71.6819 130.749C71.1019 119.891 74.4779 110.438 81.6569 102.329C82.4059 101.482 82.6959 100.827 81.9789 99.84C79.9609 97.061 78.2409 94.0201 75.9529 91.4881C68.7959 83.5701 59.9209 81.682 49.8909 84.823C47.1939 85.667 44.6059 86.8581 41.6589 88.0101C40.6839 86.1601 39.6659 84.2271 38.5359 82.0821C47.5989 77.4051 56.7519 74.6921 66.7369 77.5851C76.7269 80.4781 83.0349 87.741 88.0419 96.308C90.4569 95.108 92.7499 94.049 94.9409 92.811C95.3889 92.559 95.7029 91.6241 95.6679 91.0291C95.2449 83.9481 92.0169 78.361 86.3559 74.183C80.6589 69.978 74.0539 68.158 67.1629 67.211C64.7259 66.877 64.6939 66.964 64.8459 64.561C64.9139 63.478 65.1469 62.404 65.1769 61.322C65.2079 60.218 65.7969 59.9901 66.7109 60.1101C75.9969 61.3331 84.8359 63.7461 92.1919 69.9401C98.0819 74.9001 101.556 81.2091 102.465 88.8901C102.64 90.3751 102.703 91.5551 104.845 91.9161C114.492 93.5441 120.195 99.6461 123.066 108.735C123.283 109.422 123.724 110.039 124.061 110.688C124.259 110.634 124.457 110.579 124.655 110.524C124.919 109.435 125.159 108.339 125.448 107.256C130.136 89.693 139.571 75.6081 155.574 66.4101C160.374 63.6501 165.573 61.9241 171.079 61.1191C172.258 60.9471 172.804 61.3261 173.359 62.2911C175.916 66.7341 177.583 71.4911 178.604 76.4961C178.719 77.0601 178.915 77.6071 179.059 78.1211C182.88 77.2171 186.478 76.211 190.138 75.533C199.011 73.887 207.787 74.3451 216.432 77.0821C217.768 77.5041 218.157 78.163 218.203 79.52C218.787 96.883 211.904 111.281 200.362 123.655C189.216 135.604 175.632 143.414 159.421 146.358C158.95 146.444 158.494 146.606 157.847 146.783C161.851 164.629 158.643 180.925 146.813 195.118C139.212 204.238 129.439 210.093 117.854 212.57C93.8969 217.695 73.4649 206.725 61.7199 189.988ZM174.068 112.432C174.132 112.526 174.2 112.62 174.266 112.714C163.502 121.73 152.741 130.745 141.69 140.003C146.374 140.838 150.677 140.918 154.902 140.263C178.542 136.596 195.801 123.964 206.697 102.733C209.69 96.9011 211.355 90.6011 211.51 83.9721C211.532 83.0601 211.393 82.4531 210.33 82.3551C206.673 82.0141 203.015 81.2841 199.368 81.3431C189.914 81.4971 180.99 84.03 172.688 88.52C157.048 96.978 145.549 109.119 139.908 126.262C138.965 129.128 138.489 132.146 137.797 135.095C137.978 135.18 138.158 135.265 138.339 135.35C150.249 127.711 162.158 120.071 174.068 112.432ZM136.422 116.942C136.743 116.345 136.981 115.933 137.191 115.507C141.057 107.671 146.26 100.84 152.631 94.8701C158.272 89.5831 164.599 85.3031 171.438 81.7351C171.99 81.4471 172.797 80.7801 172.755 80.3621C172.326 76.0191 171.143 71.876 169.196 67.99C162.664 69.415 151.968 75.521 145.457 83.046C137.758 91.943 132.929 102.121 131 113.679C132.854 114.796 134.554 115.818 136.422 116.942ZM94.6209 101.046C94.1849 101.105 94.0469 101.085 93.9569 101.14C84.3609 107.082 79.4149 115.816 78.5639 126.956C78.5239 127.479 79.0969 128.35 79.5989 128.568C84.9229 130.898 90.3339 132.295 95.9849 129.558C97.8859 128.637 99.8759 127.887 101.72 126.867C107.956 123.414 112.387 118.492 113.33 111.19C113.629 108.872 113.806 106.038 112.755 104.157C110.988 100.993 107.667 99.2951 103.947 98.7491C102.82 98.5831 102.246 98.8661 101.981 100.166C100.656 106.667 97.8589 112.514 93.6489 117.642C92.1769 119.435 90.4969 121.056 88.7759 122.899C87.4879 121.438 86.5319 120.187 85.4039 119.119C84.2429 118.02 84.3519 117.337 85.5129 116.231C89.8749 112.075 92.8479 107.041 94.6209 101.046ZM118.864 160.821C126.592 163.411 134.228 165.982 141.885 168.497C142.238 168.612 143.072 168.309 143.154 168.037C144.298 164.324 145.347 160.584 146.532 156.458C145.287 156.458 144.647 156.458 144.009 156.458C137.314 156.458 130.619 156.458 123.925 156.458C119.84 156.458 119.84 156.458 118.864 160.821ZM113.827 171.596C119.699 176.05 125.49 180.471 131.344 184.807C131.683 185.058 132.788 184.831 133.102 184.459C134.848 182.391 136.491 180.231 138.101 178.055C138.716 177.223 139.153 176.258 139.747 175.219C138.575 174.794 137.739 174.47 136.89 174.185C131.352 172.334 125.81 170.497 120.274 168.645C115.93 167.191 115.932 167.184 113.827 171.596ZM109.764 177.273C108.757 178.381 107.9 179.481 106.88 180.399C105.912 181.268 105.863 181.895 106.703 182.934C109.056 185.845 111.274 188.866 113.557 191.833C114.762 193.399 115.989 194.946 117.399 196.749C120.663 194.643 123.79 192.624 127.18 190.436C121.071 185.82 115.449 181.57 109.764 177.273ZM110.696 199.522C107.066 194.796 103.816 190.565 100.51 186.262C99.0109 187.246 97.6279 188.084 96.3389 189.049C96.0449 189.269 95.8529 190.004 95.9879 190.361C97.2799 193.795 98.6239 197.21 100.037 200.595C100.213 201.016 100.937 201.562 101.306 201.494C104.307 200.942 107.283 200.259 110.696 199.522ZM92.9669 201.717C91.7679 198.705 90.5799 195.726 89.4489 192.889C85.2189 194.128 81.2839 195.282 77.3059 196.449C81.2999 200.636 87.9989 202.921 92.9669 201.717Z" fill="black"/>
<path fill-rule="evenodd" clip-rule="evenodd" d="M174.068 112.432C162.158 120.071 150.249 127.711 138.339 135.349C138.158 135.264 137.978 135.179 137.797 135.094C138.489 132.146 138.965 129.127 139.908 126.261C145.55 109.117 157.049 96.977 172.688 88.519C180.99 84.029 189.914 81.496 199.368 81.342C203.014 81.283 206.673 82.013 210.33 82.354C211.393 82.453 211.532 83.059 211.51 83.971C211.355 90.6 209.69 96.9 206.697 102.732C195.801 123.963 178.542 136.595 154.902 140.262C150.677 140.917 146.374 140.837 141.69 140.002C152.741 130.744 163.503 121.729 174.266 112.713C174.2 112.62 174.133 112.526 174.068 112.432Z" fill="white"/>
<path fill-rule="evenodd" clip-rule="evenodd" d="M136.422 116.942C134.554 115.818 132.855 114.796 131 113.68C132.929 102.121 137.758 91.944 145.457 83.047C151.969 75.522 162.664 69.416 169.196 67.991C171.142 71.877 172.326 76.02 172.755 80.363C172.797 80.781 171.989 81.448 171.438 81.736C164.599 85.303 158.272 89.584 152.631 94.871C146.26 100.841 141.057 107.671 137.191 115.508C136.98 115.933 136.743 116.345 136.422 116.942Z" fill="white"/>
<path fill-rule="evenodd" clip-rule="evenodd" d="M94.6209 101.046C92.8479 107.041 89.8748 112.075 85.5148 116.231C84.3538 117.337 84.2438 118.02 85.4058 119.119C86.5338 120.187 87.4898 121.438 88.7778 122.899C90.4978 121.056 92.1789 119.435 93.6509 117.642C97.8609 112.514 100.658 106.667 101.983 100.166C102.248 98.866 102.822 98.583 103.949 98.749C107.668 99.295 110.99 100.993 112.757 104.157C113.807 106.038 113.631 108.872 113.332 111.19C112.39 118.492 107.958 123.414 101.722 126.867C99.8778 127.887 97.8878 128.638 95.9868 129.558C90.3368 132.295 84.9248 130.898 79.6008 128.568C79.0998 128.349 78.5269 127.479 78.5659 126.956C79.4169 115.816 84.3628 107.082 93.9588 101.14C94.0468 101.084 94.1849 101.104 94.6209 101.046Z" fill="#F29427"/>
<path fill-rule="evenodd" clip-rule="evenodd" d="M118.864 160.821C119.84 156.458 119.84 156.458 123.924 156.458C130.618 156.458 137.313 156.458 144.008 156.458C144.647 156.458 145.286 156.458 146.531 156.458C145.346 160.584 144.297 164.324 143.153 168.037C143.071 168.308 142.237 168.612 141.884 168.497C134.229 165.982 126.592 163.411 118.864 160.821Z" fill="#F29427"/>
<path fill-rule="evenodd" clip-rule="evenodd" d="M113.827 171.596C115.932 167.184 115.931 167.192 120.274 168.645C125.81 170.498 131.352 172.334 136.89 174.185C137.74 174.47 138.576 174.794 139.747 175.219C139.152 176.258 138.716 177.223 138.101 178.055C136.491 180.232 134.848 182.391 133.102 184.459C132.789 184.831 131.683 185.058 131.344 184.807C125.49 180.471 119.699 176.05 113.827 171.596Z" fill="#F29427"/>
<path fill-rule="evenodd" clip-rule="evenodd" d="M109.764 177.273C115.449 181.57 121.072 185.82 127.179 190.436C123.789 192.624 120.662 194.643 117.398 196.749C115.988 194.946 114.761 193.399 113.556 191.833C111.273 188.865 109.055 185.845 106.702 182.934C105.863 181.895 105.911 181.268 106.879 180.399C107.9 179.481 108.756 178.382 109.764 177.273Z" fill="#F29427"/>
<path fill-rule="evenodd" clip-rule="evenodd" d="M110.696 199.522C107.283 200.258 104.307 200.942 101.306 201.495C100.938 201.562 100.213 201.016 100.037 200.596C98.6239 197.21 97.2799 193.795 95.9879 190.362C95.8529 190.006 96.0449 189.27 96.3389 189.05C97.6279 188.085 99.0109 187.247 100.51 186.263C103.816 190.565 107.066 194.797 110.696 199.522Z" fill="#F29427"/>
<path fill-rule="evenodd" clip-rule="evenodd" d="M92.9669 201.717C87.9989 202.921 81.2999 200.636 77.3069 196.448C81.2849 195.281 85.2189 194.128 89.4499 192.888C90.5799 195.726 91.7679 198.705 92.9669 201.717Z" fill="#F29427"/>
</svg>
