<?xml version="1.0" encoding="UTF-8"?><svg width="256" height="256" id="Layer_1" xmlns="http://www.w3.org/2000/svg" viewBox="0 0 255.92 220.81"><defs><style>.cls-1{fill:#ba000f;}.cls-1,.cls-2,.cls-3{fill-rule:evenodd;}.cls-2{fill:#82000e;}.cls-3{fill:#a3000f;}</style></defs><path class="cls-2" d="M115.4,75.88C72.48,48.92,55.97,6.26,0,.3,65.49-3.87,108.84,64.99,144.07,62.15c26.11-.11,35.89-29.21,52.72-47.82,21.16-23.39,59.2-18.02,59.13,15.08-.05,26.05-22.59,59.95-55.94,65.51-20.46,3.41-61.14-5.44-84.57-19.05Z"/><path class="cls-1" d="M165.83,131.32c-13.15,15.29-21.51,24.17-32.92,25.2-12.07,1.08-55.69-28.4-65.33-38.36l51.86,90.44c4.45,7.76,12.13,12.21,21.07,12.21,8.92,0,16.58-4.42,21.03-12.14,.01-.02,.03-.05,.04-.07l51.86-90.44,5.36-9.35c-29.79-.27-42.89,10.8-52.97,22.52Z"/><path class="cls-3" d="M15.6,3.03C10.58,1.8,5.39,.87,0,.3L15.44,27.22c-.11-.2-.22-.4-.33-.59,.13,.24,.26,.49,.4,.73l52.07,90.8c10.1,10.44,20.27,20.83,34.09,28.4,13.72,7.53,23.23,10.68,31.24,9.96-31.95-8.66-37.51-31.84-25.45-47.55,14.73-19.2,54.31-14.03,78.85-13.3h0c-16.68-.85-34.5-7.72-52.83-18.36C94.69,52.93,62.71,14.59,15.6,3.03h0Zm-1.63,21.15c-.04-.11-.09-.22-.13-.33l.13,.33Z"/></svg>