<svg width="256" height="256" viewBox="0 0 256 256" fill="none" xmlns="http://www.w3.org/2000/svg">
<path d="M256 128C256 198.692 198.692 256 128 256C57.3075 256 0 198.692 0 128C0 57.3075 57.3075 0 128 0C198.692 0 256 57.3075 256 128Z" fill="black"/>
<path fill-rule="evenodd" clip-rule="evenodd" d="M107.9 69.6998C109.7 69.9998 112.3 71.3998 113.6 72.5998C116.3 75.3998 117.9 75.4998 124.4 73.5998C128.5 72.2998 129.8 72.2998 134.1 73.5998C137.3 74.5998 140.7 74.8998 143.5 74.3998C146.8 73.9998 149.2 74.2998 152.5 75.5998C155 76.6998 157 77.7998 157 78.1998C157 78.6998 155.1 78.9998 152.7 78.9998C147.4 78.9998 139 83.8998 139 86.8998C139 88.7998 139.8 90.9998 144.1 100.7C146 105 145.1 106.8 143 103C142.4 101.9 141.5 101 141.1 101C140.6 101 140.4 101.9 140.7 103C141 104.1 140.7 105 140.1 105C139.5 105 139 104.2 139 103.2C138.953 102.454 138.928 102.055 138.783 102.005C138.617 101.948 138.294 102.346 137.6 103.2C135.8 105.6 135.1 105.5 135.7 103C136 101.9 136.6 101 137.1 101C138.6 101 138.1 98.2998 136.4 96.8998C135.5 96.1998 134.4 94.5998 134 93.3998C132.2 88.7998 125.3 94.5998 126.6 99.5998C126.9 100.6 126.4 102.4 125.5 103.5C124 105.4 123.9 105.4 124.5 102.2C125.2 98.8998 125.1 98.8998 123.2 100.6C122.1 101.5 121.4 102.9 121.7 103.6C122 104.4 121.7 105 121 105C120.4 105 120.2 104.5 120.5 104C120.8 103.4 120.7 103 120.1 103C119.6 103 119 103.6 118.7 104.2C118.5 104.9 117.9 105.1 117.4 104.7C116.9 104.2 117.7 102.8 119.4 101.5C122.1 99.2998 122.2 99.0998 120.9 95.5998C119.5 91.8998 118 90.7998 118 93.5998C118 94.8998 117.7 94.9998 116.7 94.0998C115.9 93.4998 115 93.3998 114.5 93.7998C114.1 94.1998 114 93.2998 114.2 91.6998C114.8 88.6998 113.6 88.0998 112.1 90.6998C111.105 92.3912 111.1 92.3008 111.002 90.5269L111 90.4998C110.9 89.3998 110.6 89.0998 110.3 89.6998C109.6 91.4998 108 91.2998 108 89.4998C108 87.9998 106.5 87.5998 102.2 87.9998C99.8 88.1998 96 85.4998 96 83.6998C96 83.1998 97.4 82.9998 99.2 83.3998L102.4 83.9998L100 81.4998C97.9 79.1998 98 78.4998 100.4 78.8998C100.9 78.9998 102 78.7998 102.8 78.4998C104 78.0998 103.5 77.1998 100.5 74.7998L96.7 71.5998L99 69.7998C100.3 68.6998 102 68.1998 102.9 68.4998C103.8 68.8998 106 69.3998 107.9 69.6998ZM100.5 70.8999C100.2 71.4999 101.9 73.6999 104.2 75.8999L108.5 79.9999L105 82.9999L101.5 85.8999L104.5 86.0999C105.535 86.1608 107.089 86.2217 108.642 86.2825C109.641 86.3217 110.639 86.3608 111.5 86.3999C113.7 86.4999 116.2 86.8999 117.2 87.3999C118.4 87.8999 119 87.5999 119.5 86.0999C120.4 83.1999 122.3 83.3999 121.5 86.1999C121.156 87.3313 120.981 87.9063 121.082 87.9602C121.187 88.0159 121.587 87.5161 122.4 86.5C124.1 84.2 124.6 85.9999 123 88.9999C121.6 91.5999 122.9 92.0999 127.8 90.7999L131.9 89.7999L129.8 86.9999C128.7 85.4999 128 83.5999 128.2 82.7999C128.5 81.9999 129.3 82.6999 130.3 84.5999C131.2 86.2999 132.6 87.9999 133.5 88.2999C134.3 88.6999 135 89.7999 135 90.8999C135 92.8999 139.9 99.4999 140.7 98.5999C141 98.3999 140.2 95.9999 139.1 93.4999C136.9 88.5999 136.2 79.9999 138 79.9999C138.6 79.9999 139 80.6999 139 81.4999C139 82.6999 139.8 82.4999 142.7 80.4999C144.8 79.0999 147.5 77.9999 148.8 77.9999C150.2 77.9999 150.9 77.5999 150.4 76.8999C150 76.1999 147.9 75.9999 144.6 76.2999C141.5 76.5999 137.4 76.1999 134.3 75.3999C129.7 74.0999 128.6 74.0999 123.6 75.4999C117.9 77.1999 116.1 76.7999 112 73.4999C110.7 72.4999 103.4 69.9999 101.7 69.9999C101.4 69.9999 100.9 70.3999 100.5 70.8999Z" fill="white"/>
<path d="M83 123.8C90.2 127.3 92 138.2 85.8 140.4C82 141.7 80.2 140.6 78 135.5C76.2 131.3 75.8 131 72.3 131C70.2 131 67.4 131.7 66.1 132.6C61.9 135.6 61 139.7 61 155.9C61 170 61.1 170.9 63 171.5C64.1 171.8 65 172.8 65 173.6C65 174.7 63 175 55 175C47 175 45 174.7 45 173.6C45 172.8 45.9 171.8 47 171.5C48.9 170.9 49 170 49 151.3C49 132.7 48.9 131.8 47 131.3C43.1 130.3 45.1 128.2 52.4 125.6C56.5 124.2 60.1 123 60.4 123C60.7 123 61 124.7 61 126.7C61 130.5 61.1 130.5 62.8 128.3C67.6 122.4 76.3 120.4 83 123.8Z" fill="white"/>
<path fill-rule="evenodd" clip-rule="evenodd" d="M133.7 124.8C141 128.6 144.9 135.1 145.3 144.2L145.5 148.5L126.3 148.8C125.282 148.814 124.314 148.826 123.393 148.838C112.103 148.984 107.911 149.039 107.115 150.71C106.645 151.697 107.359 153.248 108.494 155.715C108.624 155.998 108.76 156.292 108.9 156.6C114.1 168.1 130.2 170.4 141.1 161.3C143.2 159.5 144.4 159 145.2 159.8C147 161.6 140.8 169.2 134.8 172.5C130.3 175 128.4 175.4 122.5 175.4C105.9 175.2 95 164.7 95 148.7C95 145 95.6 140.5 96.4 138.6C99.2 131.8 106.5 125.7 115 122.9C119.1 121.5 129.2 122.6 133.7 124.8ZM106.8 140.1C107.2 135.1 110 131 114.5 128.9C124.5 124.3 132.8 128.9 134.6 139.9L135.3 144.1L106.5 143.5L106.8 140.1Z" fill="white"/>
<path d="M171 124C171 125.1 170.6 126 170 126C169.5 126 169 126.5 169 127.1C169 128.3 178.2 141.9 179 142C179.3 142 181.3 139.3 183.5 135.9C184.305 134.693 185.123 133.472 185.861 132.371C187.142 130.46 188.183 128.907 188.5 128.4C189.2 127.3 189 126.6 187.8 125.9C186.8 125.3 186 124.2 186 123.5C186 122.3 187.9 122 195.5 122C203.4 122 205 122.3 205 123.6C205 124.4 203.6 125.6 201.9 126.2C199.7 127 197.1 129.9 191.9 137.6L185 148L193.5 158.9C200 167.2 202.8 170 205 170.5C207.1 171 208 171.8 208 173.1C208 174.9 207.2 175 197 175C187.5 175 186 174.8 186 173.4C186 172.5 186.7 171.2 187.6 170.6C188.9 169.6 188.5 168.6 184.3 162.8C181.7 159.2 179.2 156.1 178.8 155.9C177.9 155.4 169 168 169 169.7C169 170.4 169.5 171 170 171C170.6 171 171 171.9 171 173C171 174.9 170.3 175 162 175C154 175 153 174.8 153 173.2C153 172.2 154.2 171 155.9 170.3C157.9 169.6 160.7 166.3 164.9 160.1C168.3 155.1 171.3 150.3 171.6 149.5C172.4 147.5 156.2 127.1 153.3 126.4C151.9 126 151 125 151 123.9C151 122.2 151.9 122 161 122C170.3 122 171 122.1 171 124Z" fill="white"/>
</svg>
