<?xml version="1.0" encoding="utf-8"?>
<!-- Generator: Adobe Illustrator 24.1.0, SVG Export Plug-In . SVG Version: 6.00 Build 0)  -->
<svg version="1.1" id="Layer_1" xmlns="http://www.w3.org/2000/svg" xmlns:xlink="http://www.w3.org/1999/xlink" x="0px" y="0px"
	 viewBox="0 0 256 256" style="enable-background:new 0 0 256 256;" xml:space="preserve">
<style type="text/css">
	.st0{fill:#FFFFFF;}
	.st1{fill:#262626;}
	.st2{fill:#6BB647;}
	.st3{fill:#1C1C1C;}
	.st4{fill:#438E43;}
	.st5{fill:#4B8F44;}
	.st6{fill:#609F52;}
	.st7{fill:#7EA266;}
	.st8{fill:#898C8A;}
</style>
<g>
	<path class="st0" d="M231.1,233.6c-68.7,0-137.5,0-206.2,0c0,0,0,0,0,0c0-68.7,0-137.4,0-206.1c0-0.1,0-0.1,0-0.2
		c68.7,0,137.5,0,206.2,0C231.1,96.1,231.1,164.9,231.1,233.6z M146.3,50.1c-0.1,0-0.1,0.1-0.1,0.2c-0.2,0.2-0.3,0.5-0.4,0.7
		c0,0-0.1,0.1-0.1,0.1c-0.4,0.7-0.7,1.5-1,2.2c-0.1,0.1,0,0.3-0.1,0.5l0,0c-0.1,0.1-0.2,0.2-0.2,0.4c0,0.1-0.1,0.2-0.1,0.2
		c-0.3,1.1-0.6,2.2-0.8,3.3c-0.1,0.6-0.2,1.2-0.2,1.7c0,1.1-0.1,2.2,0.1,3.2c0,0.1,0,0.2,0,0.3c0,0.6,0.2,1.2,0.3,1.8
		c0.2,1.2,0.6,2.3,1,3.4c0.1,0.3,0.3,0.6,0.2,0.9c0,0.1,0,0.1,0,0.2c0.2,0.4,0.3,0.9,0.5,1.3c-0.1,0.1-0.2,0.1-0.3,0.2
		c-1,0.8-2.1,1.4-3.3,1.8c-0.9,0.3-1.7,0.5-2.6,0.6c-0.9,0.1-1.8,0.3-2.8,0.3c-2.4,0.1-4.7,0-7.1-0.2c-0.1,0-0.1,0-0.2,0
		c-0.8-0.1-1.7-0.2-2.5-0.3c-0.8-0.1-1.6-0.1-2.4-0.3c-0.9-0.1-1.8-0.1-2.7-0.3c-1.9-0.1-3.8-0.1-5.7,0.1c-1.3,0.2-2.6,0.5-3.9,1
		c-1.4,0.6-2.7,1.4-3.8,2.5c-0.7,0.8-1.3,1.6-1.8,2.6c-0.8,1.6-1.3,3.3-1.4,5.2c0,0.1,0,0.2,0,0.3c0,0.1,0,0.1,0,0.2
		c0,0.1-0.1,0.1-0.2,0.2c-0.1,0-0.3,0-0.4,0.1c-0.1,0.1-0.2,0.2-0.4,0.2c-0.2,0-0.5,0-0.7,0c-2.2,0-4.4,0-6.6,0
		c-0.5,0-0.9,0-1.4,0.1c-1.9,0.4-3.6,2.2-3.6,4.5c0,0.2,0,0.5,0,0.7c0,3,0,6,0,8.9c0,0.2,0,0.5,0,0.7c0,0.1-0.1,0.1-0.1,0.1
		c-0.1,0-0.2,0.1-0.3,0.1c-1.1,0.3-2.3,0.6-3.4,1c-10.4,3.3-19.3,9.1-26.6,17.1c-2.1,2.3-3.9,4.7-5.7,7.1c-1.2,1.6-2.3,3.3-3.3,5.1
		c-0.1,0.1-0.2,0.3-0.2,0.4c-0.2,0.1-0.3,0.3-0.4,0.5c-3.4,6.1-5.7,12.6-6.9,19.5c-0.3,1.5-0.5,3-0.7,4.5c-0.1,1.2-0.3,2.3-0.3,3.5
		c0,0.3,0,0.6,0,0.8c-0.1,1.6-0.1,3.1,0,4.7c0.1,1.3,0.1,2.6,0.3,3.9c0.1,0.8,0.1,1.6,0.3,2.4c0.2,1.3,0.4,2.6,0.7,4
		c0.5,2.6,1.2,5.1,2,7.6c3.1,9.4,8.2,17.7,15.2,24.8c5.5,5.6,11.8,10,18.9,13.3c3.7,1.7,7.5,3,11.4,4c1.3,0.3,2.6,0.6,3.9,0.8
		c0.9,0.1,1.7,0.3,2.6,0.4c1,0.1,2,0.3,3,0.3c0.2,0,0.4,0,0.6,0c0.6,0.1,1.2,0.1,1.8,0.1c0.5,0,1.1,0,1.6,0.1c1.1,0,2.2,0,3.4,0
		c0.6,0,1.2-0.1,1.8-0.1c1.1,0,2.2-0.1,3.3-0.3c1.2-0.1,2.3-0.3,3.5-0.5c1.7-0.3,3.4-0.6,5.1-1c4.7-1.2,9.3-2.8,13.7-5.1
		c10.8-5.6,19.4-13.6,25.8-24c3-4.9,5.2-10.1,6.8-15.7c0.5-1.9,0.9-3.7,1.3-5.6c0.3-1.5,0.5-2.9,0.7-4.4c0.1-1,0.2-2.1,0.3-3.2
		c0-0.2,0-0.4,0-0.6c0.2-2.1,0.1-4.2,0-6.3c-0.1-1.2-0.1-2.4-0.3-3.5c-0.1-1.2-0.3-2.4-0.5-3.6c-0.2-1.5-0.5-2.9-0.9-4.4
		c-0.7-3-1.6-6-2.7-8.9c-3-7.7-7.4-14.5-13.1-20.6c-5.3-5.6-11.4-10.1-18.3-13.5c-3.1-1.5-6.4-2.8-9.7-3.8c-0.1,0-0.2,0-0.3,0
		c-0.2-0.1-0.5-0.2-0.7-0.2c-0.4-0.1-0.9-0.3-1.3-0.4c-0.1,0-0.2-0.1-0.2-0.2c0-0.3,0-0.6,0-0.8c0-3,0-6.1,0-9.1c0-0.3,0-0.6,0-0.8
		c0-0.4-0.1-0.9-0.2-1.3c-0.6-1.6-1.7-2.7-3.3-3.2c-0.5-0.1-1-0.2-1.5-0.2c-2.3,0-4.7,0-7,0c-0.3,0-0.6,0-0.9,0c-0.1-1,0.1-2,0.5-3
		c0.6-1.4,1.6-2.4,3-3c0.8-0.4,1.7-0.6,2.6-0.7c0.3,0,0.7-0.1,1-0.1c0.8-0.1,1.6-0.1,2.3,0c0.6,0,1.2,0.1,1.9,0.1
		c0.3,0,0.7,0.1,1,0.1c0.3,0,0.6,0.1,0.8,0.1c0.3,0,0.6,0.1,0.8,0.1c0.2,0,0.4,0.1,0.6,0.1c0.8,0.1,1.6,0.1,2.4,0.3
		c0.9,0.1,1.9,0.2,2.8,0.3c1.1,0.1,2.1,0.1,3.2,0.2c0.8,0,1.7,0,2.5-0.1c0.9-0.1,1.8-0.1,2.7-0.2c1.1-0.1,2.3-0.3,3.4-0.6
		c1.5-0.4,3-0.9,4.3-1.7c0.8-0.4,1.6-0.9,2.2-1.5c0.2,0,0.3,0,0.4,0.2c0.2,0.2,0.5,0.5,0.7,0.7c2,2,4.3,3.6,7,4.6
		c1.8,0.7,3.7,1.2,5.7,1.3c0.2,0,0.4,0,0.7,0.1c0.3,0.1,0.7,0.1,1,0.1c0.6,0,1.2,0,1.9-0.1c0.7-0.1,1.4-0.1,2-0.2
		c1.2-0.2,2.4-0.4,3.6-0.7c1.6-0.4,3.1-1,4.6-1.6c1.8-0.7,3.4-1.6,5-2.6c2.2-1.4,4.3-3,6.2-4.9c1.9-1.8,3.7-3.6,5.3-5.6
		c1.3-1.6,2.6-3.3,3.8-4.9c1.3-1.8,2.5-3.6,3.6-5.4c2.1-3.4,4.1-6.9,5.9-10.4c1.7-3.2,3.3-6.5,4.8-9.9c0.3-0.7,0.6-1.4,1-2.1
		c0.1-0.3,0.2-0.5,0.3-0.8c0-0.1,0-0.2,0-0.3c0.1-0.2,0.1-0.4,0.2-0.6c0.1-0.2,0.2-0.4,0.2-0.6c0,0,0-0.1,0-0.1
		c0-0.1-0.1-0.1-0.1-0.1c-0.2,0.1-0.5,0.3-0.7,0.4c-1.6,1-3.3,1.9-5.1,2.8c-2.3,1.1-4.7,2.1-7.1,2.9c-2.3,0.8-4.7,1.3-7.1,1.7
		c-1.3,0.2-2.5,0.3-3.8,0.4c-0.6,0-1.1,0.1-1.7,0.1c-0.5,0-1,0-1.5,0c-0.3,0-0.6,0-0.9,0c-1.8-0.1-3.7-0.2-5.5-0.4
		c-0.6-0.1-1.3-0.2-1.9-0.2c-0.8-0.1-1.5-0.2-2.3-0.3c-0.9-0.1-1.7-0.2-2.6-0.3c-0.7-0.1-1.5-0.1-2.2-0.2c-2.1-0.1-4.2,0-6.2,0.3
		c-1.9,0.3-3.7,0.9-5.4,1.7c-2.8,1.3-5.3,2.9-7.7,4.9c-1.3,1.1-2.5,2.4-3.5,3.7c-0.1,0.2-0.3,0.4-0.4,0.6c-0.1,0-0.2,0.1-0.1,0.2
		l0,0c-0.1,0.1-0.2,0.2-0.2,0.3l0,0C146.3,49.8,146.3,49.9,146.3,50.1L146.3,50.1z"/>
	<path class="st1" d="M52.1,130.8c0-0.2,0.1-0.3,0.2-0.4c1-1.8,2.1-3.5,3.3-5.1c1.8-2.5,3.7-4.9,5.7-7.1
		c7.4-8.1,16.2-13.8,26.6-17.1c1.1-0.4,2.3-0.7,3.4-1c0.1,0,0.2,0,0.3-0.1c0,0,0.1-0.1,0.1-0.1c0-0.2,0-0.5,0-0.7c0-3,0-6,0-8.9
		c0-0.2,0-0.5,0-0.7c0.1-2.3,1.8-4.1,3.6-4.5c0.5-0.1,0.9-0.1,1.4-0.1c2.2,0,4.4,0,6.6,0c0.2,0,0.5,0,0.7,0c0.2,0,0.3-0.1,0.4-0.2
		c0.2,0,0.3,0,0.5,0c0.2,0,0.5,0,0.7,0c1.3,0,2.5,0,3.8,0c0.3,0,0.5,0,0.7,0.1c0.1,0.1,0.3,0.1,0.5,0c0.3,0,0.6,0,0.9,0
		c2.3,0,4.7,0,7,0c0.5,0,1,0,1.5,0.2c1.7,0.5,2.8,1.5,3.3,3.2c0.1,0.4,0.2,0.8,0.2,1.3c0,0.3,0,0.6,0,0.8c0,3,0,6.1,0,9.1
		c0,0.3,0,0.6,0,0.8c0,0.1,0.1,0.2,0.2,0.2c0.4,0.1,0.9,0.3,1.3,0.4c0.2,0.1,0.5,0.1,0.7,0.2c0.1,0.2,0.2,0.4,0.2,0.6
		c0,0.2,0.1,0.4,0.3,0.4c0.3,0.1,0.5,0.2,0.8,0.3c0.3,0.1,0.5,0.2,0.8,0.3c0.3,0.1,0.6,0.2,0.9,0.4c0.3,0.1,0.6,0.3,0.9,0.4
		c0.1,0,0.1,0.1,0.2,0.1c0.5,0.1,0.9,0.4,1.3,0.6c0.9,0.5,1.8,0.9,2.8,1.4c0.2,0.1,0.4,0.1,0.5,0.3c0.3,0.2,0.6,0.4,1,0.6
		c0.3,0.2,0.6,0.4,1,0.6c0.2,0.1,0.4,0.2,0.5,0.3c0.3,0.2,0.6,0.4,0.9,0.5c0.6,0.3,1,0.7,1.6,1c0.5,0.5,1.2,0.8,1.8,1.3
		c0.2,0.1,0.4,0.2,0.5,0.4c0.2,0.2,0.4,0.3,0.6,0.4c0.2,0.2,0.5,0.3,0.7,0.5c0.2,0.2,0.4,0.4,0.6,0.6c0,0,0.1,0.1,0.1,0.1
		c0.4,0.2,0.6,0.5,0.9,0.8c0.1,0.1,0.3,0.3,0.4,0.4c0.3,0.2,0.5,0.4,0.8,0.7c0.5,0.5,0.9,0.9,1.4,1.4c0.2,0.2,0.4,0.4,0.7,0.5
		c0.2,0.1,0.3,0.2,0.4,0.4c0.1,0.3,0.4,0.5,0.6,0.7c0.6,0.6,1.1,1.1,1.7,1.7c0.1,0.1,0.3,0.3,0.4,0.4c0.1,0.2,0.2,0.4,0.4,0.5
		c0.2,0.2,0.5,0.5,0.6,0.8c0,0.1,0.1,0.2,0.2,0.3c0.5,0.4,0.7,0.9,1.1,1.4c0.1,0.2,0.3,0.4,0.4,0.6c0.2,0.2,0.3,0.5,0.5,0.7
		c0.1,0.1,0.2,0.3,0.3,0.4c0.4,0.5,0.7,1.1,1.1,1.6c0.2,0.2,0.4,0.5,0.5,0.8c0.2,0.4,0.5,0.8,0.7,1.2c0.1,0.1,0.2,0.2,0.2,0.3
		c0.3,0.6,0.7,1.1,0.9,1.7c0,0.1,0.1,0.1,0.1,0.2c0.2,0.3,0.4,0.6,0.5,0.9c0.5,1.1,1.1,2.1,1.6,3.2c0.3,0.6,0.7,1.3,0.9,1.9
		c0.3,0.5,0.4,1.1,0.7,1.6c0.1,0.1,0.1,0.3,0.2,0.4c0.1,0.3,0.2,0.7,0.4,1c0.1,0.1,0.1,0.3,0.2,0.4c0.2,0.5,0.4,1,0.5,1.5
		c0.2,0.5,0.4,1,0.5,1.6c0.1,0.3,0.2,0.7,0.3,1c0.1,0.3,0.2,0.7,0.3,1c0.1,0.2,0.1,0.5,0.2,0.7c0.1,0.2,0.1,0.5,0.2,0.7
		c0.1,0.2,0.1,0.5,0.1,0.7c0,0.1,0,0.1,0,0.2c0.1,0.2,0.1,0.5,0.2,0.7c0.1,0.3,0.1,0.5,0.2,0.8c0,0.1,0,0.1,0.1,0.2
		c0.1,0.2,0.1,0.4,0.1,0.5c0,0.2,0.1,0.4,0.2,0.6c0,0.2,0,0.5,0.1,0.7c0,0.1,0,0.1,0.1,0.2c0.1,0.2,0.1,0.4,0.1,0.5
		c0,0.2,0,0.4,0,0.6c0.2,0.3,0.1,0.7,0.1,1c0,0.2,0,0.3,0,0.5c0.2,0.4,0.1,0.7,0.1,1.1c0,0.4,0,0.7,0.1,1.1c0.1,0.1,0,0.3,0,0.5
		c0,0.7,0,1.3,0,2c0,0.2,0,0.4,0.1,0.6c0.1,0.1,0.1,0.3,0.1,0.5c0,1.1,0,2.3,0,3.4c0,0.2,0,0.3-0.1,0.5c-0.1,0.2-0.1,0.4-0.1,0.6
		c0,0.6,0,1.2,0,1.9c0,0.2,0,0.3-0.1,0.5c-0.1,0.2-0.1,0.5-0.1,0.7c0,0.3,0,0.6,0,0.9c0,0.1,0,0.3-0.1,0.4c-0.1,0.3-0.1,0.6-0.1,0.9
		c0,0.2,0,0.4,0,0.6c-0.2,0.3-0.1,0.7-0.1,1c0,0.2,0,0.3-0.1,0.5c-0.1,0.1-0.1,0.3-0.1,0.5c0,0.1,0,0.3-0.1,0.4
		c-0.1,0.2-0.1,0.5-0.1,0.7c0,0.2,0,0.4-0.1,0.5c0,0.1-0.1,0.2-0.1,0.4c0,0.2,0,0.4-0.1,0.6c0,0.4-0.3,0.8-0.2,1.3
		c0,0.1,0,0.1,0,0.2c-0.2,0.3-0.1,0.7-0.3,1.1c0,0.4-0.2,0.7-0.2,1c-0.2,0.3-0.1,0.7-0.3,1c-0.3,0.9-0.6,1.8-0.9,2.6
		c0,0.1-0.1,0.2-0.1,0.4c0,0.2-0.1,0.4-0.2,0.5c-0.1,0.2-0.2,0.5-0.3,0.8c-0.2,0.5-0.4,1-0.6,1.6c-0.1,0.3-0.2,0.6-0.4,0.9
		c-0.1,0.3-0.3,0.6-0.5,0.9c-0.1,0.1-0.1,0.2-0.2,0.3c-0.1,0.3-0.2,0.6-0.4,0.9c-0.5,1-1,2-1.5,3c-0.1,0.2-0.2,0.4-0.3,0.6
		c-0.2,0.2-0.3,0.5-0.5,0.8c-0.1,0.2-0.2,0.3-0.3,0.5c-0.2,0.2-0.3,0.4-0.4,0.6c-0.1,0.2-0.3,0.5-0.4,0.7c-0.2,0.4-0.5,0.7-0.7,1.1
		c-0.1,0.2-0.2,0.3-0.3,0.5c-0.1,0.2-0.3,0.3-0.4,0.5c-0.4,0.5-0.7,1.1-1.1,1.6c-0.2,0.3-0.4,0.5-0.6,0.8c-0.2,0.3-0.4,0.5-0.6,0.7
		c-0.2,0.3-0.4,0.5-0.6,0.8c0,0-0.1,0.1-0.1,0.1c-0.1,0.3-0.4,0.5-0.6,0.8c-0.1,0.1-0.2,0.2-0.2,0.3c-0.2,0.4-0.6,0.7-0.9,1.1
		c-0.1,0.1-0.2,0.2-0.3,0.4c-0.1,0.2-0.3,0.4-0.5,0.6c-1.3,1.3-2.6,2.6-4,4c-0.1,0.1-0.2,0.2-0.3,0.3c-0.3,0.2-0.6,0.5-0.9,0.7
		c-0.2,0.2-0.4,0.4-0.6,0.6c-0.3,0.1-0.5,0.4-0.8,0.6c-0.2,0.1-0.4,0.2-0.5,0.4c-0.2,0.2-0.4,0.3-0.5,0.5c0,0,0,0-0.1,0
		c-0.2,0.1-0.4,0.3-0.6,0.4c-0.2,0.2-0.5,0.3-0.7,0.5c-0.1,0.1-0.2,0.1-0.3,0.2c-0.5,0.4-1.2,0.7-1.7,1.2c-0.1,0.1-0.2,0.1-0.2,0.1
		c-0.3,0.2-0.6,0.4-1,0.6c-0.5,0.4-1.1,0.7-1.6,1c-0.3,0.2-0.6,0.3-0.9,0.5c-0.3,0.2-0.6,0.4-1,0.6c-0.6,0.3-1.2,0.6-1.8,1
		c-0.1,0.1-0.3,0.2-0.5,0.2c-0.2,0-0.3,0.1-0.4,0.2c-0.4,0.2-0.8,0.4-1.2,0.6c-0.4,0.2-0.8,0.3-1.2,0.5c-0.4,0.2-0.8,0.4-1.2,0.5
		c-0.4,0.2-0.8,0.3-1.2,0.5c-0.4,0.2-0.9,0.3-1.3,0.5c-0.6,0.2-1.1,0.4-1.7,0.6c-0.6,0.2-1.1,0.4-1.7,0.5c-0.5,0.2-0.9,0.3-1.4,0.4
		c-0.2,0.2-0.5,0.1-0.8,0.2c-0.3,0.1-0.6,0.1-0.9,0.2c-0.4,0-0.7,0.1-1.1,0.2c-0.2,0-0.4,0.1-0.6,0.2c-0.2,0-0.4,0-0.6,0
		c-0.1,0-0.1,0-0.2,0c-0.2,0.1-0.4,0.1-0.6,0.1c-0.1,0-0.2,0-0.4,0.1c-0.2,0.1-0.4,0.1-0.5,0.1c-0.2,0-0.4,0-0.6,0
		c-0.3,0.2-0.6,0.1-0.9,0.1c-0.1,0-0.3,0-0.4,0c-0.3,0.2-0.7,0.1-1,0.1c-0.4,0-0.8,0-1.2,0.1c-0.1,0.1-0.3,0-0.5,0
		c-0.6,0-1.2,0-1.8,0c-0.2,0-0.4,0-0.6,0.1c-0.1,0.1-0.3,0.1-0.5,0.1c-1.2,0-2.4,0-3.6,0c-0.2,0-0.3,0-0.5-0.1
		c-0.2-0.1-0.5-0.1-0.7-0.1c-0.5,0-1,0-1.5,0c-0.3,0-0.5,0-0.7-0.1c-0.1,0-0.2-0.1-0.4-0.1c-0.3,0-0.6,0-0.9,0c-0.1,0-0.3,0-0.4-0.1
		c-0.3-0.1-0.6-0.1-0.9-0.1c-0.2,0-0.4,0-0.6,0c-0.3-0.2-0.6-0.1-0.9-0.2c-0.1,0-0.2,0-0.3-0.1c-0.2-0.1-0.5-0.1-0.7-0.1
		c-0.1,0-0.3,0-0.4-0.1c-0.2-0.1-0.4-0.1-0.6-0.1c-0.2,0-0.4-0.2-0.6-0.2c-0.4,0-0.7-0.2-1.1-0.2c-0.4-0.1-0.7-0.2-1.1-0.2
		c0,0-0.1,0-0.1,0c-0.2-0.2-0.5-0.1-0.8-0.2c-0.3-0.1-0.5-0.2-0.8-0.3c-0.3-0.1-0.5-0.1-0.8-0.2c-0.2-0.1-0.4-0.1-0.6-0.2
		c-0.4-0.2-0.8-0.2-1.2-0.3c-0.7-0.2-1.4-0.4-2-0.7c-0.1,0-0.2,0-0.3-0.1c-0.3-0.1-0.6-0.2-0.9-0.3c-0.3-0.1-0.6-0.3-0.9-0.4
		c-0.3-0.1-0.6-0.2-0.9-0.4c-0.3-0.1-0.6-0.3-0.9-0.4c-0.1,0-0.2-0.1-0.3-0.1c-0.3,0-0.5-0.2-0.8-0.3c-0.8-0.4-1.6-0.8-2.4-1.2
		c-0.2-0.1-0.4-0.1-0.5-0.3c-0.3-0.3-0.7-0.4-1-0.6c-0.1-0.1-0.2-0.1-0.3-0.2c-0.2-0.2-0.5-0.3-0.8-0.5c-0.3-0.2-0.5-0.3-0.8-0.5
		c-0.1-0.1-0.3-0.2-0.4-0.2c-0.7-0.4-1.4-0.9-2-1.3c-0.5-0.4-1.1-0.7-1.6-1.1c-0.3-0.2-0.5-0.4-0.8-0.6c-0.3-0.2-0.5-0.4-0.7-0.6
		c-0.3-0.2-0.5-0.4-0.8-0.6c-0.1-0.1-0.1-0.1-0.2-0.2c-0.2-0.1-0.4-0.3-0.6-0.5c-0.3-0.3-0.5-0.6-0.9-0.8c-0.1,0-0.2-0.2-0.3-0.2
		c-0.3-0.3-0.6-0.6-0.9-0.9c-0.4-0.3-0.7-0.7-1.1-1c-0.1-0.1-0.2-0.2-0.3-0.2c-0.2-0.2-0.5-0.5-0.7-0.7c-0.3-0.3-0.6-0.5-0.8-0.9
		c-0.1-0.1-0.2-0.2-0.3-0.3c-0.3-0.4-0.7-0.7-1.1-1.1c-0.1-0.1-0.2-0.2-0.3-0.3c-0.2-0.4-0.6-0.7-0.9-1.1c-0.1-0.1-0.3-0.3-0.3-0.4
		c0-0.1-0.1-0.2-0.2-0.2c-0.3-0.3-0.5-0.5-0.7-0.9c-0.1-0.2-0.3-0.3-0.4-0.5c-0.1-0.2-0.2-0.4-0.4-0.5c-0.3-0.3-0.4-0.6-0.7-0.9
		c-0.1-0.4-0.5-0.6-0.7-1c-0.3-0.5-0.6-0.9-0.9-1.4c-0.4-0.6-0.8-1.1-1.1-1.7c-0.3-0.3-0.4-0.8-0.7-1.1c-0.2-0.2-0.3-0.5-0.4-0.7
		c-0.2-0.3-0.3-0.6-0.5-0.9c-0.2-0.3-0.4-0.7-0.6-1c-0.3-0.6-0.6-1.3-1-1.9c-0.1-0.2-0.3-0.4-0.3-0.7c-0.2-0.5-0.4-1-0.6-1.4
		c-0.1-0.1-0.1-0.2-0.2-0.3c-0.1-0.3-0.2-0.5-0.3-0.8c-0.1-0.3-0.2-0.6-0.3-0.9c-0.2-0.5-0.5-1.1-0.6-1.6c-0.2-0.7-0.5-1.4-0.7-2.1
		c-0.2-0.2-0.1-0.5-0.2-0.8c-0.2-0.6-0.4-1.2-0.5-1.8c-0.1-0.2-0.1-0.4-0.2-0.6c0-0.2-0.1-0.4-0.2-0.6c-0.1-0.3-0.1-0.7-0.2-1
		c-0.1-0.3-0.1-0.7-0.3-1c0-0.3-0.1-0.7-0.2-1c0-0.4-0.1-0.9-0.2-1.3c0,0,0-0.1,0-0.1c0-0.3-0.1-0.5-0.2-0.7c0-0.3,0-0.6,0-0.8
		c0-0.1,0-0.1-0.1-0.2c0-0.1-0.1-0.2-0.1-0.3c0-0.4,0-0.7-0.2-1.1c0-0.1,0-0.2,0-0.3c0-0.2,0-0.5,0-0.7c0-0.3,0-0.5-0.1-0.7
		c-0.1-0.1-0.1-0.3-0.1-0.5c0-0.4,0-0.9,0-1.3c0-0.2,0-0.3-0.1-0.5c-0.1-0.3-0.1-0.6-0.1-0.9c0-1.7,0-3.4,0-5c0-0.4,0-0.9,0-1.3
		c0-0.2,0-0.3,0.1-0.5c0.1-0.2,0.1-0.4,0.1-0.6c0-0.4,0-0.9,0-1.3c0-0.1,0-0.3,0-0.4c0.2-0.4,0.1-0.8,0.2-1.2c0-0.1,0-0.3,0.1-0.4
		c0.1-0.3,0.1-0.5,0.1-0.8c0-0.2,0-0.4,0-0.6c0.2-0.3,0.1-0.5,0.1-0.8c0-0.2,0-0.3,0.1-0.5c0-0.1,0.1-0.2,0.1-0.3
		c0-0.4,0-0.7,0.2-1.1c0-0.1,0-0.1,0-0.2c0-0.2,0-0.4,0.1-0.5c0.1-0.1,0.1-0.3,0.1-0.5c0-0.1,0-0.3,0.1-0.4c0.1-0.2,0.1-0.5,0.2-0.7
		c0.1-0.2,0.1-0.5,0.1-0.7c0-0.1,0-0.1,0-0.2c0.2-0.3,0.1-0.7,0.3-1.1c0-0.4,0.2-0.7,0.3-1c0.2-0.3,0.1-0.7,0.3-1
		c0.1-0.2,0.2-0.5,0.3-0.8c0.2-0.6,0.4-1.2,0.6-1.8c0.2-0.6,0.3-1.2,0.7-1.7c0-0.1,0-0.1,0-0.2c0.2-0.5,0.3-0.9,0.5-1.4
		c0.1-0.2,0.2-0.3,0.2-0.5c0.2-0.5,0.4-1,0.6-1.5c0.5-0.9,0.9-1.8,1.4-2.7c0-0.1,0.1-0.2,0.1-0.3c0-0.1,0.1-0.2,0-0.3
		C52.2,130.9,52.1,130.9,52.1,130.8z M49.7,157.5C49.7,157.5,49.7,157.5,49.7,157.5c0,0.5,0,1.1,0,1.6c0,0.1,0,0.3,0,0.4
		c0,0.1,0.1,0.2,0.1,0.2c0.1,0.1,0.2,0.2,0.3,0.2c0.5,0.1,1,0.3,1.5,0.1c0.1,0,0.2,0,0.3,0c0.4-0.1,0.8-0.2,1.2-0.4
		c0.4-0.2,0.6-0.6,0.6-1.1c0-0.3,0-0.6,0-0.8c0-1,0-2.1,0.2-3.1c0-0.7,0.1-1.4,0.2-2c0.1-0.7,0.2-1.3,0.3-1.9
		c0.1-0.5,0.2-0.9,0.3-1.4c0.2-1,0.4-1.9,0.7-2.9c0.3-1.3,0.7-2.5,1.2-3.7c0.4-1,0.7-1.9,1.1-2.9c0.4-0.9,0.9-1.9,1.3-2.8
		c0-0.1,0.1-0.2,0.2-0.3c0.3-0.5,0.5-1,0.8-1.5c0.4-0.7,0.7-1.4,1.2-2c0.5-0.9,1.1-1.7,1.7-2.6c0.8-1.1,1.6-2.3,2.5-3.4
		c0.7-0.9,1.5-1.8,2.3-2.7c0.1-0.1,0.2-0.2,0.3-0.3c0.3-0.4,0.7-0.8,1-1.1c0.9-0.9,1.7-1.7,2.6-2.5c0.6-0.5,1.1-1,1.7-1.5
		c0.8-0.6,1.5-1.3,2.3-1.9c1-0.7,1.9-1.5,2.9-2.2c1.4-1,2.9-2,4.4-2.8c1-0.6,2-1.2,3.1-1.8c0.6-0.3,1.2-0.6,1.7-0.9
		c0.3-0.2,0.7-0.4,1.1-0.5c1.1-0.5,2.2-1.1,3.4-1.5c0.3-0.1,0.5-0.3,0.7-0.4c0.2-0.1,0.3-0.3,0.4-0.5c0-0.1,0-0.2-0.1-0.4
		c-0.1-0.1-0.1-0.2-0.2-0.2c-0.2-0.2-0.5-0.3-0.8-0.4c-0.6-0.1-1.2,0-1.7,0.2c-0.3,0.1-0.6,0.2-0.9,0.3c-1.6,0.6-3.1,1.3-4.6,2
		c-0.9,0.4-1.8,0.9-2.6,1.4c-1.7,0.9-3.4,1.9-5,3c-1.2,0.8-2.4,1.6-3.5,2.5c-0.7,0.5-1.4,1.1-2.1,1.6c-0.4,0.3-0.9,0.7-1.3,1.1
		c-0.4,0.4-0.9,0.7-1.3,1.1c-0.4,0.4-0.8,0.8-1.2,1.2c-0.1,0.1-0.1,0.1-0.2,0.2c-0.3,0.2-0.5,0.5-0.8,0.7c-0.6,0.6-1.2,1.3-1.8,1.9
		c-1,1.1-2,2.2-3,3.4c-1,1.1-1.9,2.3-2.7,3.6c-1.5,2.2-2.9,4.4-4.1,6.8c-0.7,1.3-1.3,2.6-1.9,4c-0.7,1.6-1.3,3.3-1.8,5
		c-0.3,1-0.6,2-0.8,3.1c-0.2,0.8-0.4,1.6-0.5,2.5c-0.1,0.4-0.1,0.9-0.2,1.3c-0.1,0.3-0.1,0.7-0.1,1c0,0.1,0,0.3,0,0.4
		c-0.1,0.5-0.1,0.9-0.2,1.4c0,0.2,0,0.3-0.1,0.5c-0.1,0.3-0.1,0.6-0.1,0.9C49.7,156.6,49.7,157.1,49.7,157.5z"/>
	<path class="st2" d="M212.2,32.4c0,0.1,0.1,0.2,0,0.3c-0.1,0.3-0.2,0.5-0.3,0.8c-0.3,0.7-0.6,1.4-1,2.1c-1.5,3.3-3.1,6.6-4.8,9.9
		c-1.9,3.6-3.8,7-5.9,10.4c-1.2,1.8-2.4,3.7-3.6,5.4c-1.2,1.7-2.5,3.3-3.8,4.9c-1.6,2-3.4,3.9-5.3,5.6c-1.9,1.8-4,3.4-6.2,4.9
		c-1.6,1-3.3,1.9-5,2.6c-1.5,0.6-3,1.2-4.6,1.6c-1.2,0.3-2.4,0.6-3.6,0.7c-0.7,0.1-1.4,0.1-2,0.2c-0.6,0.1-1.2,0.1-1.9,0.1
		c-0.3,0-0.7,0-1-0.1c-0.2,0-0.4,0-0.7-0.1c-2-0.1-3.9-0.6-5.7-1.3c-2.6-1-5-2.6-7-4.6c-0.2-0.2-0.5-0.5-0.7-0.7
		c-0.1-0.1-0.3-0.2-0.4-0.2c0-0.2,0-0.4-0.2-0.6c-0.3-0.3-0.5-0.7-0.8-1c-0.4-0.5-0.8-1-1.1-1.6c-0.2-0.3-0.4-0.7-0.6-1
		c-0.1-0.2-0.3-0.2-0.5-0.2c-0.2-0.4-0.3-0.9-0.5-1.3c0-0.1,0-0.1,0-0.2c0-0.3-0.1-0.6-0.2-0.9c-0.4-1.1-0.8-2.2-1-3.4
		c-0.1-0.6-0.3-1.2-0.3-1.8c0-0.1,0-0.2,0-0.3c-0.2-1.1-0.2-2.2-0.1-3.2c0-0.6,0.1-1.2,0.2-1.7c0.2-1.1,0.5-2.2,0.8-3.3
		c0-0.1,0.1-0.2,0.1-0.2c0.2-0.1,0.2-0.2,0.2-0.4l0,0c0.1-0.1,0.2-0.1,0.2-0.2c0.1-0.2,0.2-0.5,0.3-0.8c0.2-0.2,0.3-0.5,0.4-0.7
		c0.1-0.2,0.2-0.4,0.2-0.6c0-0.1,0.1-0.2,0.2-0.3c0.2-0.1,0.2-0.3,0.3-0.4c0.2-0.2,0.3-0.4,0.3-0.7c0.2,0,0.3-0.1,0.4-0.2
		c0.1-0.1,0.2-0.2,0.2-0.3c0.1-0.3,0.3-0.5,0.5-0.7c0.3-0.3,0.6-0.5,0.8-0.9c0-0.1,0.1-0.1,0.2-0.2c0.5-0.4,0.8-0.9,1.4-1.2
		c0.1,0,0.1-0.1,0.2-0.2c0.4-0.3,0.7-0.7,1.1-1c0.1-0.1,0.2-0.2,0.3-0.2c0.1-0.1,0.2-0.2,0.3-0.3c0.3-0.2,0.5-0.3,0.8-0.5
		c0.3-0.2,0.5-0.4,0.8-0.6c0.2-0.1,0.5-0.3,0.7-0.4c0.2-0.1,0.5-0.3,0.7-0.4c0.4-0.2,0.8-0.4,1.2-0.7c0.7-0.4,1.4-0.7,2.2-1.1
		c0.3-0.2,0.7-0.3,1-0.4c0.4-0.1,0.8-0.3,1.1-0.4c0.4-0.1,0.8-0.3,1.1-0.4c0.4-0.1,0.8-0.3,1.3-0.2c0,0,0.1,0,0.1,0
		c0.3-0.1,0.5-0.1,0.8-0.1c0.2,0,0.3,0,0.5-0.1c0.1-0.1,0.3-0.1,0.5-0.1c0.2,0,0.5,0,0.7,0c0.1,0,0.3,0,0.4-0.1
		c0.3-0.1,0.5-0.1,0.8-0.1c0.9,0,1.9,0,2.8,0c0.4,0,0.7,0,1.1,0.1c0.1,0,0.2,0,0.4,0c0.4,0,0.8,0,1.2,0c0.2,0,0.3,0,0.5,0.1
		c0.2,0.1,0.4,0.1,0.6,0.1c0.4,0,0.9,0,1.3,0.2c0.1,0,0.2,0,0.4,0c0.2,0,0.4,0,0.7,0c0.1,0,0.3,0,0.4,0.1c0.3,0.1,0.6,0.1,0.9,0.1
		c0.3,0,0.7,0,1,0.1c0.1,0.1,0.2,0,0.4,0c0.2,0,0.5,0,0.7,0c0.1,0,0.3,0,0.4,0.1c0.2,0.1,0.5,0.1,0.7,0.1c0.3,0,0.6,0,0.9,0
		c0.1,0,0.3,0,0.4,0.1c0.3,0.1,0.5,0.1,0.8,0.1c0.8,0,1.7,0,2.5,0c0.2,0,0.5,0,0.7,0.1c0.4,0.1,0.8,0.1,1.2,0
		c0.2-0.1,0.4-0.1,0.6-0.1c0.8,0,1.6,0,2.3,0c0.2,0,0.3,0,0.5,0c0.4-0.2,0.8-0.1,1.2-0.2c0.1,0,0.3,0,0.4-0.1
		c0.3-0.1,0.5-0.1,0.8-0.1c0.2,0,0.3,0,0.5,0c0.3-0.1,0.6-0.1,0.9-0.1c0.1,0,0.2,0,0.3-0.1c0.2-0.1,0.4-0.1,0.6-0.1
		c0.1,0,0.2,0,0.3-0.1c0.3-0.2,0.7-0.1,1-0.3c0.4,0,0.7-0.2,1.1-0.2c0.5-0.1,1-0.2,1.4-0.4c0.6-0.2,1.1-0.4,1.7-0.6
		c0.6-0.2,1.2-0.4,1.7-0.7c0.4-0.1,0.8-0.4,1.2-0.5c0.6-0.3,1.2-0.4,1.7-0.7c1.4-0.7,2.7-1.4,4.1-2c0.2-0.1,0.3-0.1,0.5-0.3
		c0.3-0.2,0.6-0.4,0.9-0.5c0.3-0.1,0.6-0.4,1-0.6c0.3-0.1,0.6-0.3,0.8-0.6C212,32.4,212.1,32.4,212.2,32.4z"/>
	<path class="st3" d="M52.1,130.8c0,0,0.1,0.1,0.1,0.1c0.1,0.1,0,0.2,0,0.3c0,0.1-0.1,0.2-0.1,0.3c-0.5,0.9-0.9,1.8-1.4,2.7
		c-0.3,0.5-0.4,1-0.6,1.5c0,0.2-0.1,0.4-0.2,0.5c-0.2,0.4-0.4,0.9-0.5,1.4c0,0.1,0,0.1,0,0.2c-0.3,0.5-0.4,1.2-0.7,1.7
		c-0.2,0.6-0.4,1.2-0.6,1.8c-0.1,0.3-0.1,0.6-0.3,0.8c-0.2,0.3-0.1,0.7-0.3,1c-0.1,0.3-0.3,0.6-0.3,1c-0.2,0.3-0.1,0.7-0.3,1.1
		c0,0.1,0,0.1,0,0.2c0,0.2,0,0.5-0.1,0.7c-0.1,0.2-0.1,0.5-0.2,0.7c-0.1,0.1-0.1,0.2-0.1,0.4c0,0.2,0,0.3-0.1,0.5
		c-0.1,0.2-0.1,0.4-0.1,0.5c0,0.1,0,0.1,0,0.2c-0.2,0.3-0.2,0.7-0.2,1.1c0,0.1,0,0.2-0.1,0.3c-0.1,0.1-0.1,0.3-0.1,0.5
		c0,0.3,0,0.6-0.1,0.8c0,0.2,0,0.4,0,0.6c0,0.3,0,0.6-0.1,0.8c-0.1,0.1-0.1,0.2-0.1,0.4c0,0.4,0,0.8-0.2,1.2c-0.1,0.1,0,0.2,0,0.4
		c0,0.4,0,0.9,0,1.3c0,0.2,0,0.4-0.1,0.6c-0.1,0.1-0.1,0.3-0.1,0.5c0,0.4,0,0.9,0,1.3c0,1.7,0,3.4,0,5c0,0.3,0,0.6,0.1,0.9
		c0.1,0.1,0.1,0.3,0.1,0.5c0,0.4,0,0.9,0,1.3c0,0.2,0,0.3,0.1,0.5c0.1,0.2,0.1,0.5,0.1,0.7c0,0.2,0,0.5,0,0.7c0,0.1,0,0.2,0,0.3
		c0.2,0.3,0.1,0.7,0.2,1.1c0,0.1,0.1,0.2,0.1,0.3c0,0.1,0.1,0.1,0.1,0.2c0,0.3,0,0.6,0,0.8c0,0.2,0.2,0.5,0.2,0.7c0,0,0,0.1,0,0.1
		c0.1,0.4,0.2,0.8,0.2,1.3c0.1,0.3,0.2,0.7,0.2,1c0.2,0.3,0.2,0.7,0.3,1c0.1,0.3,0.2,0.7,0.2,1c0,0.2,0.1,0.4,0.2,0.6
		c0,0.2,0,0.4,0.2,0.6c0.1,0.6,0.3,1.2,0.5,1.8c0.1,0.3,0,0.6,0.2,0.8c0.2,0.7,0.5,1.4,0.7,2.1c0.2,0.6,0.4,1.1,0.6,1.6
		c0.1,0.3,0.2,0.6,0.3,0.9c0.1,0.3,0.3,0.5,0.3,0.8c0,0.1,0.1,0.2,0.2,0.3c0.2,0.5,0.5,0.9,0.6,1.4c0.1,0.2,0.2,0.4,0.3,0.7
		c0.3,0.6,0.6,1.3,1,1.9c0.2,0.4,0.4,0.7,0.6,1c0.2,0.3,0.3,0.6,0.5,0.9c0.1,0.2,0.3,0.5,0.4,0.7c0.2,0.4,0.4,0.8,0.7,1.1
		c0.3,0.6,0.7,1.2,1.1,1.7c0.3,0.5,0.6,0.9,0.9,1.4c0.1,0.4,0.5,0.6,0.7,1c0.3,0.3,0.4,0.6,0.7,0.9c0.2,0.1,0.2,0.4,0.4,0.5
		c0.1,0.2,0.3,0.3,0.4,0.5c0.2,0.3,0.4,0.6,0.7,0.9c0.1,0.1,0.1,0.1,0.2,0.2c0.1,0.2,0.2,0.3,0.3,0.4c0.3,0.3,0.7,0.6,0.9,1.1
		c0.1,0.1,0.2,0.2,0.3,0.3c0.4,0.4,0.7,0.7,1.1,1.1c0.1,0.1,0.2,0.2,0.3,0.3c0.2,0.4,0.5,0.6,0.8,0.9c0.2,0.2,0.5,0.5,0.7,0.7
		c0.1,0.1,0.2,0.2,0.3,0.2c0.5,0.2,0.8,0.6,1.1,1c0.3,0.3,0.6,0.6,0.9,0.9c0.1,0.1,0.2,0.2,0.3,0.2c0.4,0.2,0.6,0.5,0.9,0.8
		c0.2,0.2,0.3,0.4,0.6,0.5c0.1,0,0.2,0.1,0.2,0.2c0.3,0.2,0.5,0.5,0.8,0.6c0.3,0.1,0.5,0.4,0.7,0.6c0.3,0.2,0.5,0.4,0.8,0.6
		c0.5,0.5,1.1,0.8,1.6,1.1c0.7,0.5,1.3,0.9,2,1.3c0.1,0.1,0.3,0.2,0.4,0.2c0.3,0.1,0.5,0.3,0.8,0.5c0.3,0.2,0.6,0.3,0.8,0.5
		c0.1,0.1,0.2,0.1,0.3,0.2c0.4,0.2,0.7,0.3,1,0.6c0.1,0.1,0.3,0.2,0.5,0.3c0.8,0.4,1.6,0.8,2.4,1.2c0.2,0.1,0.5,0.3,0.8,0.3
		c0.1,0,0.2,0.1,0.3,0.1c0.3,0.1,0.6,0.3,0.9,0.4c0.3,0.1,0.6,0.3,0.9,0.4c0.3,0.1,0.6,0.2,0.9,0.4c0.3,0.1,0.6,0.2,0.9,0.3
		c0.1,0,0.2,0,0.3,0.1c0.6,0.3,1.3,0.5,2,0.7c0.4,0.1,0.8,0.2,1.2,0.3c0.2,0.1,0.4,0.1,0.6,0.2c0.3,0.1,0.5,0.2,0.8,0.2
		c0.3,0.1,0.5,0.2,0.8,0.3c0.3,0.1,0.6,0,0.8,0.2c0,0,0.1,0,0.1,0c0.4,0,0.7,0.1,1.1,0.2c0.4,0.1,0.7,0.2,1.1,0.2
		c0.2,0,0.4,0.2,0.6,0.2c0.2,0,0.4,0,0.6,0.1c0.1,0,0.2,0.1,0.4,0.1c0.2,0,0.5,0,0.7,0.1c0.1,0,0.2,0.1,0.3,0.1c0.3,0,0.6,0,0.9,0.2
		c0.2,0,0.4,0,0.6,0c0.3,0,0.6,0,0.9,0.1c0.1,0.1,0.2,0,0.4,0.1c0.3,0,0.6,0,0.9,0c0.1,0,0.3,0,0.4,0.1c0.2,0.1,0.5,0.1,0.7,0.1
		c0.5,0,1,0,1.5,0c0.2,0,0.5,0,0.7,0.1c0.1,0.1,0.3,0.1,0.5,0.1c1.2,0,2.4,0,3.6,0c0.2,0,0.3,0,0.5-0.1c0.2-0.1,0.4-0.1,0.6-0.1
		c0.6,0,1.2,0,1.8,0c0.2,0,0.3,0,0.5,0c0.4-0.2,0.8-0.1,1.2-0.1c0.3,0,0.7,0,1-0.1c0.1,0,0.2,0,0.4,0c0.3,0,0.6,0,0.9-0.1
		c0.2,0,0.4,0,0.6,0c0.2,0,0.4,0,0.5-0.1c0.1,0,0.2-0.1,0.4-0.1c0.2,0,0.4,0,0.6-0.1c0.1,0,0.1,0,0.2,0c0.2,0,0.4,0,0.6,0
		c0.2,0,0.4-0.1,0.6-0.2c0.4-0.1,0.7-0.2,1.1-0.2c0.3-0.2,0.6-0.1,0.9-0.2c0.3-0.1,0.6-0.1,0.8-0.2c0.5-0.1,1-0.2,1.4-0.4
		c0.6-0.1,1.1-0.3,1.7-0.5c0.6-0.2,1.1-0.4,1.7-0.6c0.4-0.2,0.9-0.3,1.3-0.5c0.4-0.2,0.8-0.3,1.2-0.5c0.4-0.1,0.8-0.3,1.2-0.5
		c0.4-0.2,0.8-0.3,1.2-0.5c0.4-0.2,0.8-0.4,1.2-0.6c0.1-0.1,0.3-0.1,0.4-0.2c0.2-0.1,0.4-0.1,0.5-0.2c0.6-0.4,1.2-0.7,1.8-1
		c0.3-0.2,0.7-0.3,1-0.6c0.3-0.2,0.6-0.3,0.9-0.5c0.6-0.3,1.1-0.6,1.6-1c0.3-0.1,0.7-0.3,1-0.6c0.1-0.1,0.2-0.1,0.2-0.1
		c0.5-0.5,1.1-0.8,1.7-1.2c0.1-0.1,0.2-0.1,0.3-0.2c0.2-0.2,0.5-0.3,0.7-0.5c0.2-0.1,0.3-0.4,0.6-0.4c0,0,0.1,0,0.1,0
		c0.2-0.2,0.4-0.3,0.5-0.5c0.2-0.1,0.4-0.2,0.5-0.4c0.3-0.2,0.5-0.5,0.8-0.6c0.2-0.2,0.4-0.4,0.6-0.6c0.3-0.3,0.5-0.5,0.9-0.7
		c0.1-0.1,0.2-0.2,0.3-0.3c1.3-1.3,2.6-2.6,4-4c0.2-0.2,0.3-0.3,0.5-0.6c0.1-0.1,0.2-0.2,0.3-0.4c0.3-0.3,0.7-0.6,0.9-1.1
		c0.1-0.1,0.2-0.2,0.2-0.3c0.2-0.2,0.5-0.5,0.6-0.8c0-0.1,0.1-0.1,0.1-0.1c0.2-0.2,0.5-0.5,0.6-0.8c0.1-0.3,0.4-0.5,0.6-0.7
		c0.2-0.3,0.4-0.5,0.6-0.8c0.5-0.5,0.7-1.1,1.1-1.6c0.1-0.2,0.3-0.4,0.4-0.5c0.1-0.2,0.2-0.3,0.3-0.5c0.2-0.4,0.5-0.7,0.7-1.1
		c0.1-0.2,0.3-0.5,0.4-0.7c0.1-0.2,0.2-0.4,0.4-0.6c0.1-0.1,0.2-0.3,0.3-0.5c0.1-0.3,0.3-0.6,0.5-0.8c0.1-0.2,0.2-0.4,0.3-0.6
		c0.5-1,1-2,1.5-3c0.2-0.3,0.3-0.6,0.4-0.9c0-0.1,0.1-0.2,0.2-0.3c0.2-0.3,0.3-0.6,0.5-0.9c0.1-0.3,0.3-0.6,0.4-0.9
		c0.2-0.5,0.4-1,0.6-1.6c0.1-0.3,0.2-0.5,0.3-0.8c0.1-0.2,0.1-0.3,0.2-0.5c0-0.1,0.1-0.2,0.1-0.4c0.3-0.9,0.6-1.8,0.9-2.6
		c0.2-0.3,0.1-0.7,0.3-1c0.1-0.3,0.3-0.6,0.2-1c0.2-0.3,0.1-0.7,0.3-1.1c0-0.1,0-0.1,0-0.2c0-0.4,0.2-0.8,0.2-1.3
		c0.1-0.2,0.1-0.4,0.1-0.6c0-0.1,0-0.2,0.1-0.4c0.1-0.2,0.1-0.4,0.1-0.5c0-0.3,0-0.5,0.1-0.7c0.1-0.1,0-0.2,0.1-0.4
		c0-0.2,0-0.3,0.1-0.5c0.1-0.1,0.1-0.3,0.1-0.5c0-0.3,0-0.7,0.1-1c0-0.2,0-0.4,0-0.6c0-0.3,0-0.6,0.1-0.9c0.1-0.1,0-0.2,0.1-0.4
		c0-0.3,0-0.6,0-0.9c0-0.3,0-0.5,0.1-0.7c0.1-0.1,0.1-0.3,0.1-0.5c0-0.6,0-1.2,0-1.9c0-0.2,0-0.4,0.1-0.6c0.1-0.1,0.1-0.3,0.1-0.5
		c0-1.1,0-2.3,0-3.4c0-0.2,0-0.3-0.1-0.5c-0.1-0.2-0.1-0.4-0.1-0.6c0-0.7,0-1.3,0-2c0-0.2,0-0.3,0-0.5c-0.2-0.4-0.1-0.7-0.1-1.1
		c0-0.4,0-0.7-0.1-1.1c-0.1-0.1,0-0.3,0-0.5c0-0.3,0-0.7-0.1-1c0-0.2,0-0.4,0-0.6c0-0.2,0-0.4-0.1-0.5c0-0.1-0.1-0.1-0.1-0.2
		c0-0.2,0-0.5-0.1-0.7c0-0.2-0.2-0.4-0.2-0.6c0-0.2,0-0.4-0.1-0.5c0-0.1,0-0.1-0.1-0.2c0-0.3,0-0.6-0.2-0.8
		c-0.1-0.2-0.1-0.5-0.2-0.7c0-0.1,0-0.1,0-0.2c0-0.2,0-0.5-0.1-0.7c-0.1-0.2-0.1-0.5-0.2-0.7c-0.1-0.2-0.1-0.5-0.2-0.7
		c-0.1-0.3-0.1-0.7-0.3-1c-0.1-0.3-0.3-0.6-0.3-1c-0.1-0.6-0.3-1.1-0.5-1.6c-0.1-0.5-0.3-1-0.5-1.5c-0.1-0.1-0.1-0.3-0.2-0.4
		c-0.2-0.3-0.3-0.7-0.4-1c-0.1-0.1-0.1-0.3-0.2-0.4c-0.3-0.5-0.4-1.1-0.7-1.6c-0.2-0.7-0.6-1.3-0.9-1.9c-0.5-1.1-1.1-2.1-1.6-3.2
		c-0.2-0.3-0.3-0.6-0.5-0.9c0,0-0.1-0.1-0.1-0.2c-0.2-0.6-0.7-1.1-0.9-1.7c-0.1-0.1-0.1-0.2-0.2-0.3c-0.2-0.4-0.5-0.8-0.7-1.2
		c-0.1-0.3-0.3-0.5-0.5-0.8c-0.4-0.5-0.7-1.1-1.1-1.6c-0.1-0.1-0.1-0.3-0.3-0.4c-0.2-0.2-0.3-0.5-0.5-0.7c-0.2-0.2-0.4-0.4-0.4-0.6
		c-0.4-0.4-0.7-1-1.1-1.4c-0.1-0.1-0.2-0.2-0.2-0.3c-0.1-0.3-0.4-0.5-0.6-0.8c-0.2-0.2-0.3-0.3-0.4-0.5c-0.1-0.2-0.2-0.3-0.4-0.4
		c-0.6-0.6-1.1-1.1-1.7-1.7c-0.2-0.2-0.4-0.4-0.6-0.7c-0.1-0.2-0.2-0.3-0.4-0.4c-0.3-0.1-0.5-0.3-0.7-0.5c-0.5-0.5-0.9-0.9-1.4-1.4
		c-0.2-0.2-0.5-0.5-0.8-0.7c-0.2-0.1-0.3-0.2-0.4-0.4c-0.3-0.3-0.5-0.6-0.9-0.8c-0.1,0-0.1-0.1-0.1-0.1c-0.2-0.2-0.4-0.4-0.6-0.6
		c-0.2-0.2-0.5-0.3-0.7-0.5c-0.2-0.2-0.4-0.3-0.6-0.4c-0.2-0.1-0.3-0.3-0.5-0.4c-0.5-0.5-1.2-0.8-1.8-1.3c-0.5-0.3-1-0.7-1.6-1
		c-0.3-0.2-0.6-0.3-0.9-0.5c-0.2-0.1-0.4-0.2-0.5-0.3c-0.3-0.2-0.6-0.4-1-0.6c-0.3-0.2-0.7-0.3-1-0.6c-0.1-0.1-0.3-0.2-0.5-0.3
		c-0.9-0.5-1.8-0.9-2.8-1.4c-0.4-0.2-0.8-0.5-1.3-0.6c-0.1,0-0.1-0.1-0.2-0.1c-0.3-0.2-0.6-0.3-0.9-0.4c-0.3-0.1-0.6-0.2-0.9-0.4
		c-0.3-0.1-0.5-0.2-0.8-0.3c-0.3-0.1-0.5-0.2-0.8-0.3c-0.2,0-0.3-0.2-0.3-0.4c0-0.2-0.1-0.4-0.2-0.6c0.1,0,0.2,0,0.3,0
		c3.3,1,6.6,2.3,9.7,3.8c6.9,3.4,13,7.9,18.3,13.5c5.7,6,10,12.9,13.1,20.6c1.1,2.9,2.1,5.9,2.7,8.9c0.3,1.5,0.6,2.9,0.9,4.4
		c0.2,1.2,0.3,2.4,0.5,3.6c0.1,1.2,0.2,2.4,0.3,3.5c0.1,2.1,0.1,4.2,0,6.3c0,0.2,0,0.4,0,0.6c0,1.1-0.1,2.1-0.3,3.2
		c-0.2,1.5-0.4,3-0.7,4.4c-0.4,1.9-0.8,3.8-1.3,5.6c-1.5,5.5-3.8,10.8-6.8,15.7c-6.3,10.4-14.9,18.4-25.8,24
		c-4.4,2.2-8.9,3.9-13.7,5.1c-1.7,0.4-3.4,0.8-5.1,1c-1.2,0.2-2.3,0.3-3.5,0.5c-1.1,0.1-2.2,0.2-3.3,0.3c-0.6,0-1.2,0-1.8,0.1
		c-1.1,0-2.2,0-3.4,0c-0.5,0-1.1,0-1.6-0.1c-0.6,0-1.2,0-1.8-0.1c-0.2,0-0.4,0-0.6,0c-1-0.1-2-0.2-3-0.3c-0.9-0.1-1.7-0.3-2.6-0.4
		c-1.3-0.2-2.6-0.5-3.9-0.8c-3.9-1-7.7-2.3-11.4-4c-7.1-3.3-13.4-7.7-18.9-13.3c-7-7.1-12-15.4-15.2-24.8c-0.8-2.5-1.5-5-2-7.6
		c-0.3-1.3-0.5-2.6-0.7-4c-0.1-0.8-0.2-1.6-0.3-2.4c-0.2-1.3-0.2-2.6-0.3-3.9c-0.1-1.6-0.1-3.1,0-4.7c0-0.3,0-0.6,0-0.8
		c0-1.2,0.1-2.4,0.3-3.5c0.2-1.5,0.4-3,0.7-4.5c1.2-6.9,3.6-13.4,6.9-19.5C51.8,131.2,51.9,131,52.1,130.8z"/>
	<path class="st4" d="M145.5,70.6c0.2,0,0.4,0.1,0.5,0.2c0.2,0.4,0.4,0.7,0.6,1c0.3,0.6,0.7,1.1,1.1,1.6c0.3,0.3,0.5,0.7,0.8,1
		c0.2,0.2,0.2,0.4,0.2,0.6c-0.7,0.6-1.4,1.1-2.2,1.5c-1.4,0.7-2.8,1.3-4.3,1.7c-1.1,0.3-2.2,0.5-3.4,0.6c-0.9,0.1-1.8,0.1-2.7,0.2
		c-0.8,0.1-1.7,0.1-2.5,0.1c-1.1,0-2.1-0.1-3.2-0.2c-0.9-0.1-1.9-0.1-2.8-0.3c-0.8-0.1-1.6-0.2-2.4-0.3c-0.2,0-0.4-0.1-0.6-0.1
		c-0.3,0-0.6-0.1-0.8-0.1c-0.3,0-0.6-0.1-0.8-0.1c-0.3,0-0.7-0.1-1-0.1c-0.6,0-1.2-0.1-1.9-0.1c-0.8,0-1.6-0.1-2.3,0
		c-0.3,0-0.7,0.1-1,0.1c-0.9,0.1-1.8,0.3-2.6,0.7c-1.4,0.6-2.4,1.6-3,3c-0.4,1-0.6,2-0.5,3c-0.2,0-0.3,0-0.5,0
		c-0.2-0.1-0.5-0.2-0.7-0.1c-1.3,0-2.5,0-3.8,0c-0.2,0-0.5,0-0.7,0c-0.2,0-0.3,0-0.5,0c0.1-0.2,0.3-0.1,0.4-0.1
		c0.1,0,0.2-0.1,0.2-0.2c0-0.1,0-0.1,0-0.2c0-0.1,0-0.2,0-0.3c0.1-1.8,0.6-3.5,1.4-5.2c0.5-0.9,1.1-1.8,1.8-2.6
		c1.1-1.1,2.4-1.9,3.8-2.5c1.2-0.5,2.5-0.8,3.9-1c1.9-0.3,3.8-0.2,5.7-0.1c0.9,0.1,1.8,0.1,2.7,0.3c0.8,0.1,1.6,0.2,2.4,0.3
		c0.8,0.1,1.7,0.2,2.5,0.3c0.1,0,0.1,0,0.2,0c2.4,0.2,4.7,0.3,7.1,0.2c0.9,0,1.9-0.2,2.8-0.3c0.9-0.1,1.8-0.4,2.6-0.6
		c1.2-0.4,2.3-1,3.3-1.8C145.3,70.8,145.4,70.7,145.5,70.6z"/>
	<path class="st5" d="M212.2,32.4c-0.1,0-0.2,0-0.3,0.1c-0.2,0.3-0.5,0.4-0.8,0.6c-0.3,0.2-0.6,0.4-1,0.6c-0.3,0.1-0.6,0.3-0.9,0.5
		c-0.1,0.1-0.3,0.2-0.5,0.3c-1.4,0.7-2.7,1.4-4.1,2c-0.6,0.3-1.2,0.5-1.7,0.7c-0.4,0.1-0.8,0.4-1.2,0.5c-0.5,0.3-1.2,0.4-1.7,0.7
		c-0.6,0.2-1.1,0.4-1.7,0.6c-0.5,0.2-0.9,0.3-1.4,0.4c-0.4,0.1-0.7,0.2-1.1,0.2c-0.3,0.2-0.7,0.1-1,0.3c-0.1,0-0.2,0-0.3,0.1
		c-0.2,0-0.4,0-0.6,0.1c-0.1,0-0.2,0.1-0.3,0.1c-0.3,0-0.6,0-0.9,0.1c-0.1,0.1-0.3,0-0.5,0c-0.3,0-0.6,0-0.8,0.1
		c-0.1,0.1-0.2,0-0.4,0.1c-0.4,0-0.8,0-1.2,0.2c-0.1,0.1-0.3,0-0.5,0c-0.8,0-1.6,0-2.3,0c-0.2,0-0.4,0-0.6,0.1
		c-0.4,0.1-0.8,0.1-1.2,0c-0.2-0.1-0.5-0.1-0.7-0.1c-0.8,0-1.7,0-2.5,0c-0.3,0-0.6,0-0.8-0.1c-0.1,0-0.2-0.1-0.4-0.1
		c-0.3,0-0.6,0-0.9,0c-0.2,0-0.5,0-0.7-0.1c-0.1,0-0.2-0.1-0.4-0.1c-0.2,0-0.5,0-0.7,0c-0.1,0-0.3,0-0.4,0c-0.3-0.2-0.7-0.1-1-0.1
		c-0.3,0-0.6,0-0.9-0.1c-0.1-0.1-0.2,0-0.4-0.1c-0.2,0-0.4,0-0.7,0c-0.1,0-0.3,0-0.4,0c-0.4-0.2-0.9-0.1-1.3-0.2
		c-0.2,0-0.4,0-0.6-0.1c-0.1-0.1-0.3-0.1-0.5-0.1c-0.4,0-0.8,0-1.2,0c-0.1,0-0.3,0-0.4,0c-0.4-0.2-0.7-0.1-1.1-0.1
		c-0.9,0-1.9,0-2.8,0c-0.3,0-0.6,0-0.8,0.1c-0.1,0-0.2,0.1-0.4,0.1c-0.2,0-0.5,0-0.7,0c-0.2,0-0.3,0-0.5,0.1
		c-0.1,0.1-0.3,0.1-0.5,0.1c-0.3,0-0.6,0-0.8,0.1c0,0-0.1,0-0.1,0c-0.4,0-0.8,0.2-1.3,0.2c-0.4,0.1-0.8,0.2-1.1,0.4
		c-0.4,0.1-0.8,0.3-1.1,0.4c-0.3,0.1-0.7,0.3-1,0.4c-0.7,0.3-1.4,0.7-2.2,1.1c-0.4,0.3-0.8,0.5-1.2,0.7c-0.2,0.1-0.5,0.3-0.7,0.4
		c-0.2,0.1-0.5,0.3-0.7,0.4c-0.3,0.2-0.5,0.4-0.8,0.6c-0.3,0.2-0.5,0.3-0.8,0.5c-0.1,0.1-0.2,0.2-0.3,0.3c-0.1,0.1-0.2,0.2-0.3,0.2
		c-0.4,0.2-0.8,0.6-1.1,1c-0.1,0.1-0.1,0.1-0.2,0.2c-0.6,0.3-0.9,0.8-1.4,1.2c-0.1,0.1-0.1,0.1-0.2,0.2c-0.2,0.4-0.5,0.6-0.8,0.9
		c-0.2,0.2-0.4,0.4-0.5,0.7c-0.1,0.1-0.2,0.2-0.2,0.3c-0.1,0.1-0.3,0.2-0.4,0.2c0,0,0,0,0,0c0-0.1,0-0.2,0-0.4l0,0
		c0.2-0.1,0.2-0.2,0.2-0.3l0,0c0.1,0,0.1-0.1,0.1-0.2c0.1-0.2,0.3-0.4,0.4-0.6c1-1.4,2.2-2.6,3.5-3.7c2.3-2,4.9-3.6,7.7-4.9
		c1.7-0.8,3.5-1.4,5.4-1.7c2.1-0.4,4.1-0.4,6.2-0.3c0.7,0,1.5,0.1,2.2,0.2c0.9,0.1,1.7,0.2,2.6,0.3c0.8,0.1,1.5,0.2,2.3,0.3
		c0.6,0.1,1.3,0.1,1.9,0.2c1.8,0.2,3.6,0.3,5.5,0.4c0.3,0,0.6,0,0.9,0c0.5,0,1,0,1.5,0c0.6,0,1.1-0.1,1.7-0.1c1.3,0,2.5-0.2,3.8-0.4
		c2.4-0.3,4.8-0.9,7.1-1.7c2.5-0.8,4.8-1.8,7.1-2.9c1.7-0.9,3.4-1.8,5.1-2.8c0.2-0.1,0.5-0.3,0.7-0.4c0.1,0,0.1,0,0.1,0.1
		c0,0,0,0.1,0,0.1c0,0.2-0.1,0.4-0.2,0.6C212.3,32,212.3,32.2,212.2,32.4z"/>
	<path class="st6" d="M145.9,51.3c-0.1,0.1-0.1,0.2-0.2,0.3c0,0.2-0.1,0.4-0.2,0.6c-0.1,0.2-0.3,0.5-0.4,0.7
		c-0.1,0.2-0.2,0.5-0.3,0.8c0,0.1-0.1,0.1-0.2,0.2c0-0.2,0-0.3,0.1-0.5c0.3-0.8,0.6-1.5,1-2.2c0-0.1,0.1-0.1,0.1-0.1
		C145.8,51.1,145.9,51.2,145.9,51.3z"/>
	<path class="st5" d="M145.9,51.3c0-0.1-0.1-0.2-0.2-0.2c0.1-0.3,0.2-0.5,0.4-0.7c0.1,0,0.1-0.1,0.1-0.2l0,0c0.1,0,0.1,0,0.2,0l0,0
		c0,0.3,0,0.5-0.3,0.7C146.1,51,146.1,51.2,145.9,51.3z"/>
	<path class="st7" d="M146.7,49.4c0,0.2-0.1,0.3-0.2,0.3C146.5,49.6,146.5,49.5,146.7,49.4z"/>
	<path class="st7" d="M146.4,50.1c-0.1,0-0.1,0-0.2,0c0-0.2,0.1-0.3,0.2-0.4C146.5,49.9,146.5,50,146.4,50.1z"/>
	<path class="st6" d="M144.6,53.8c0,0.2,0,0.3-0.2,0.4C144.4,54.1,144.4,53.9,144.6,53.8z"/>
	<path class="st7" d="M146.8,49.2c0,0.1-0.1,0.2-0.1,0.2C146.7,49.3,146.7,49.2,146.8,49.2z"/>
	<path class="st7" d="M146.3,50.1c0,0.1,0,0.2-0.1,0.2C146.1,50.2,146.2,50.1,146.3,50.1z"/>
	<path class="st8" d="M49.7,157.5c0-0.5,0-0.9,0-1.4c0-0.3,0-0.6,0.1-0.9c0-0.1,0-0.3,0.1-0.5c0-0.5,0-0.9,0.2-1.4
		c0-0.1,0-0.2,0-0.4c0-0.3,0.1-0.7,0.1-1c0.1-0.4,0.1-0.9,0.2-1.3c0.2-0.8,0.3-1.6,0.5-2.5c0.2-1,0.5-2,0.8-3.1
		c0.5-1.7,1.1-3.4,1.8-5c0.6-1.3,1.2-2.7,1.9-4c1.2-2.4,2.6-4.6,4.1-6.8c0.9-1.2,1.8-2.4,2.7-3.6c1-1.1,1.9-2.3,3-3.4
		c0.6-0.6,1.2-1.3,1.8-1.9c0.2-0.2,0.5-0.5,0.8-0.7c0.1-0.1,0.1-0.1,0.2-0.2c0.4-0.4,0.8-0.8,1.2-1.2c0.4-0.4,0.8-0.7,1.3-1.1
		c0.4-0.4,0.8-0.7,1.3-1.1c0.7-0.5,1.4-1.1,2.1-1.6c1.1-0.9,2.3-1.7,3.5-2.5c1.6-1.1,3.3-2,5-3c0.9-0.5,1.7-0.9,2.6-1.4
		c1.5-0.7,3-1.4,4.6-2c0.3-0.1,0.6-0.2,0.9-0.3c0.6-0.2,1.1-0.3,1.7-0.2c0.3,0,0.6,0.2,0.8,0.4c0.1,0.1,0.1,0.1,0.2,0.2
		c0.1,0.1,0.1,0.2,0.1,0.4c-0.1,0.2-0.2,0.4-0.4,0.5c-0.2,0.1-0.5,0.3-0.7,0.4c-1.2,0.5-2.3,1-3.4,1.5c-0.4,0.2-0.7,0.3-1.1,0.5
		c-0.6,0.3-1.1,0.6-1.7,0.9c-1,0.6-2.1,1.2-3.1,1.8c-1.5,0.9-2.9,1.9-4.4,2.8c-1,0.7-2,1.4-2.9,2.2c-0.8,0.6-1.6,1.2-2.3,1.9
		c-0.6,0.5-1.1,1-1.7,1.5c-0.9,0.8-1.8,1.7-2.6,2.5c-0.4,0.4-0.7,0.7-1,1.1c-0.1,0.1-0.2,0.2-0.3,0.3c-0.8,0.8-1.6,1.8-2.3,2.7
		c-0.9,1.1-1.7,2.2-2.5,3.4c-0.6,0.8-1.1,1.7-1.7,2.6c-0.4,0.7-0.8,1.3-1.2,2c-0.3,0.5-0.5,1-0.8,1.5c-0.1,0.1-0.1,0.2-0.2,0.3
		c-0.4,0.9-0.9,1.9-1.3,2.8c-0.4,0.9-0.8,1.9-1.1,2.9c-0.5,1.2-0.8,2.5-1.2,3.7c-0.3,1-0.5,1.9-0.7,2.9c-0.1,0.5-0.2,0.9-0.3,1.4
		c-0.1,0.6-0.2,1.3-0.3,1.9c-0.1,0.7-0.2,1.4-0.2,2c-0.2,1-0.1,2-0.2,3.1c0,0.3,0,0.6,0,0.8c0,0.5-0.2,0.8-0.6,1.1
		c-0.4,0.2-0.8,0.4-1.2,0.4c-0.1,0-0.2,0-0.3,0c-0.5,0.2-1,0-1.5-0.1c-0.1,0-0.2-0.1-0.3-0.2c-0.1-0.1-0.1-0.1-0.1-0.2
		c0-0.1,0-0.2,0-0.4C49.6,158.6,49.6,158.1,49.7,157.5C49.7,157.5,49.7,157.5,49.7,157.5z"/>
</g>
<g>
</g>
<g>
</g>
<g>
</g>
<g>
</g>
<g>
</g>
<g>
</g>
</svg>
