<svg id="svg" version="1.1" xmlns="http://www.w3.org/2000/svg" xmlns:xlink="http://www.w3.org/1999/xlink" width="400" height="400" viewBox="0, 0, 400,400"><g id="svgg"><path id="path0" d="M186.750 0.278 C 177.024 0.989,168.136 2.196,160.000 3.911 C 159.404 4.036,158.279 4.266,157.500 4.421 C 156.721 4.576,155.751 4.807,155.345 4.935 C 154.939 5.062,154.458 5.167,154.277 5.167 C 154.095 5.167,153.564 5.274,153.098 5.406 C 152.265 5.641,151.063 5.950,149.083 6.439 C 148.113 6.679,147.411 6.870,145.500 7.413 C 144.996 7.556,144.208 7.780,143.750 7.909 C 142.128 8.367,135.909 10.361,135.369 10.595 C 135.068 10.726,134.715 10.833,134.583 10.833 C 134.452 10.833,134.098 10.938,133.797 11.067 C 132.948 11.428,132.047 11.767,130.417 12.337 C 128.989 12.837,125.653 14.126,124.583 14.591 C 124.308 14.711,123.408 15.086,122.583 15.424 C 121.758 15.763,120.632 16.256,120.081 16.520 C 119.529 16.784,119.023 17.000,118.956 17.000 C 118.889 17.000,118.328 17.233,117.709 17.519 C 117.090 17.804,116.246 18.189,115.833 18.376 C 113.578 19.393,105.000 23.746,103.500 24.634 C 103.179 24.824,102.579 25.147,102.167 25.353 C 101.754 25.558,101.117 25.918,100.750 26.153 C 100.383 26.388,99.896 26.674,99.667 26.790 C 99.438 26.905,99.025 27.149,98.750 27.331 C 98.475 27.514,98.138 27.715,98.000 27.778 C 97.862 27.841,97.450 28.084,97.083 28.318 C 96.145 28.917,95.799 29.127,95.417 29.329 C 95.233 29.426,94.882 29.635,94.637 29.794 C 94.391 29.953,93.664 30.403,93.020 30.794 C 91.978 31.427,88.721 33.594,85.666 35.687 C 83.823 36.949,83.419 37.246,83.361 37.375 C 83.331 37.444,83.237 37.500,83.153 37.500 C 83.069 37.500,82.869 37.616,82.708 37.758 C 82.548 37.900,81.254 38.880,79.833 39.936 C 78.412 40.992,77.225 41.926,77.194 42.011 C 77.164 42.097,77.071 42.167,76.987 42.167 C 76.904 42.167,76.667 42.309,76.460 42.482 C 76.253 42.655,75.333 43.397,74.417 44.130 C 73.500 44.862,72.540 45.658,72.283 45.898 C 72.026 46.137,71.751 46.333,71.672 46.333 C 71.593 46.333,71.503 46.398,71.472 46.478 C 71.442 46.558,70.667 47.246,69.750 48.008 C 68.833 48.770,67.783 49.668,67.417 50.005 C 65.949 51.352,64.382 52.777,63.758 53.332 C 62.902 54.093,54.093 62.902,53.332 63.758 C 52.777 64.382,51.352 65.949,50.005 67.417 C 49.668 67.783,48.770 68.833,48.008 69.750 C 47.246 70.667,46.558 71.442,46.478 71.472 C 46.398 71.503,46.333 71.593,46.333 71.672 C 46.333 71.751,46.137 72.026,45.898 72.283 C 45.658 72.540,44.862 73.500,44.130 74.417 C 43.397 75.333,42.655 76.253,42.482 76.460 C 42.309 76.667,42.167 76.904,42.167 76.987 C 42.167 77.071,42.097 77.164,42.011 77.194 C 41.926 77.225,40.992 78.412,39.936 79.833 C 38.880 81.254,37.900 82.548,37.758 82.708 C 37.616 82.869,37.500 83.069,37.500 83.153 C 37.500 83.237,37.444 83.331,37.375 83.361 C 37.246 83.419,36.949 83.823,35.687 85.666 C 33.594 88.721,31.427 91.978,30.794 93.020 C 30.403 93.664,29.953 94.391,29.794 94.637 C 29.635 94.882,29.426 95.233,29.329 95.417 C 29.127 95.799,28.917 96.145,28.318 97.083 C 28.084 97.450,27.841 97.862,27.778 98.000 C 27.715 98.138,27.514 98.475,27.331 98.750 C 27.149 99.025,26.905 99.438,26.790 99.667 C 26.674 99.896,26.388 100.383,26.153 100.750 C 25.918 101.117,25.558 101.754,25.353 102.167 C 25.147 102.579,24.824 103.179,24.634 103.500 C 23.746 105.000,19.393 113.578,18.376 115.833 C 18.189 116.246,17.804 117.090,17.519 117.709 C 17.233 118.328,17.000 118.889,17.000 118.956 C 17.000 119.023,16.784 119.529,16.520 120.081 C 16.256 120.632,15.763 121.758,15.424 122.583 C 15.086 123.408,14.711 124.308,14.591 124.583 C 14.126 125.653,12.837 128.989,12.337 130.417 C 11.767 132.047,11.428 132.948,11.067 133.797 C 10.938 134.098,10.833 134.452,10.833 134.583 C 10.833 134.715,10.726 135.068,10.595 135.369 C 10.361 135.909,8.367 142.128,7.909 143.750 C 7.780 144.208,7.556 144.996,7.413 145.500 C 6.870 147.411,6.679 148.113,6.439 149.083 C 5.950 151.063,5.641 152.265,5.406 153.098 C 5.274 153.564,5.167 154.095,5.167 154.277 C 5.167 154.458,5.062 154.939,4.935 155.345 C 4.807 155.751,4.576 156.721,4.421 157.500 C 4.266 158.279,4.036 159.404,3.911 160.000 C 2.854 165.013,1.965 170.497,1.262 176.333 C -0.311 189.400,-0.503 205.848,0.763 219.000 C 1.466 226.306,2.554 233.563,3.911 240.000 C 4.036 240.596,4.266 241.721,4.421 242.500 C 4.576 243.279,4.807 244.249,4.935 244.655 C 5.062 245.061,5.167 245.542,5.167 245.723 C 5.167 245.905,5.274 246.436,5.406 246.902 C 5.641 247.735,5.950 248.937,6.439 250.917 C 6.679 251.887,6.870 252.589,7.413 254.500 C 7.556 255.004,7.780 255.792,7.909 256.250 C 8.367 257.872,10.361 264.091,10.595 264.631 C 10.726 264.932,10.833 265.285,10.833 265.417 C 10.833 265.548,10.938 265.902,11.067 266.203 C 11.428 267.052,11.767 267.953,12.337 269.583 C 12.840 271.019,14.132 274.364,14.592 275.417 C 14.712 275.692,15.235 276.929,15.755 278.167 C 16.275 279.404,16.768 280.488,16.850 280.575 C 16.933 280.662,17.000 280.831,17.000 280.950 C 17.000 281.068,17.233 281.672,17.519 282.291 C 17.804 282.910,18.189 283.754,18.376 284.167 C 19.393 286.422,23.746 295.000,24.634 296.500 C 24.824 296.821,25.147 297.421,25.353 297.833 C 25.558 298.246,25.918 298.883,26.153 299.250 C 26.388 299.617,26.674 300.104,26.790 300.333 C 26.905 300.563,27.149 300.975,27.331 301.250 C 27.514 301.525,27.715 301.862,27.778 302.000 C 27.841 302.137,28.084 302.550,28.318 302.917 C 28.917 303.855,29.127 304.201,29.329 304.583 C 29.426 304.767,29.635 305.118,29.794 305.363 C 29.953 305.609,30.403 306.336,30.794 306.980 C 31.427 308.022,33.594 311.279,35.687 314.334 C 36.949 316.177,37.246 316.581,37.375 316.639 C 37.444 316.669,37.500 316.763,37.500 316.847 C 37.500 316.931,37.616 317.131,37.758 317.292 C 37.900 317.452,38.880 318.746,39.936 320.167 C 40.992 321.587,41.926 322.775,42.011 322.806 C 42.097 322.836,42.167 322.929,42.167 323.013 C 42.167 323.096,42.309 323.333,42.482 323.540 C 42.655 323.747,43.397 324.667,44.130 325.583 C 44.862 326.500,45.658 327.460,45.898 327.717 C 46.137 327.974,46.333 328.249,46.333 328.328 C 46.333 328.407,46.398 328.497,46.478 328.528 C 46.558 328.558,47.246 329.333,48.008 330.250 C 48.770 331.167,49.668 332.217,50.005 332.583 C 51.352 334.051,52.777 335.618,53.332 336.242 C 54.093 337.098,62.902 345.907,63.758 346.668 C 64.382 347.223,65.949 348.648,67.417 349.995 C 67.783 350.332,68.833 351.230,69.750 351.992 C 70.667 352.754,71.442 353.442,71.472 353.522 C 71.503 353.602,71.593 353.667,71.672 353.667 C 71.751 353.667,72.026 353.863,72.283 354.102 C 72.540 354.342,73.500 355.138,74.417 355.870 C 75.333 356.603,76.253 357.345,76.460 357.518 C 76.667 357.691,76.883 357.833,76.941 357.833 C 76.999 357.833,77.130 357.935,77.232 358.060 C 77.333 358.185,78.542 359.121,79.917 360.140 C 81.292 361.159,82.548 362.107,82.708 362.246 C 82.869 362.386,83.069 362.500,83.153 362.500 C 83.237 362.500,83.331 362.556,83.361 362.625 C 83.419 362.754,83.823 363.051,85.666 364.313 C 88.721 366.406,91.978 368.573,93.020 369.206 C 93.664 369.597,94.391 370.047,94.637 370.206 C 94.882 370.365,95.233 370.574,95.417 370.671 C 95.818 370.884,96.190 371.111,97.122 371.712 C 97.509 371.962,97.859 372.167,97.899 372.167 C 97.938 372.167,98.369 372.429,98.857 372.750 C 99.344 373.071,99.797 373.333,99.864 373.333 C 99.931 373.333,100.270 373.527,100.618 373.764 C 100.965 374.001,101.625 374.380,102.083 374.606 C 102.542 374.833,103.179 375.174,103.500 375.365 C 105.024 376.270,113.462 380.553,115.833 381.624 C 116.246 381.810,117.090 382.196,117.709 382.481 C 118.328 382.767,118.889 383.000,118.956 383.000 C 119.023 383.000,119.529 383.214,120.081 383.476 C 120.632 383.738,121.758 384.235,122.583 384.580 C 123.408 384.926,124.308 385.302,124.583 385.417 C 125.978 386.001,129.089 387.198,130.417 387.663 C 132.047 388.233,132.948 388.572,133.797 388.933 C 134.098 389.062,134.452 389.167,134.583 389.167 C 134.715 389.167,135.068 389.274,135.369 389.405 C 135.909 389.639,142.128 391.633,143.750 392.091 C 144.208 392.220,144.996 392.444,145.500 392.587 C 147.889 393.266,148.249 393.362,151.250 394.107 C 151.800 394.243,152.632 394.463,153.098 394.594 C 153.564 394.726,154.095 394.833,154.277 394.833 C 154.458 394.833,154.939 394.938,155.345 395.065 C 155.751 395.193,156.721 395.424,157.500 395.579 C 158.279 395.734,159.404 395.964,160.000 396.089 C 165.013 397.146,170.497 398.035,176.333 398.738 C 189.400 400.311,205.848 400.503,219.000 399.237 C 226.306 398.534,233.563 397.446,240.000 396.089 C 240.596 395.964,241.721 395.734,242.500 395.579 C 243.279 395.424,244.249 395.193,244.655 395.065 C 245.061 394.938,245.542 394.833,245.723 394.833 C 245.905 394.833,246.436 394.726,246.902 394.594 C 247.696 394.370,248.267 394.224,250.875 393.574 C 251.888 393.321,252.603 393.127,254.500 392.587 C 255.004 392.444,255.792 392.220,256.250 392.091 C 257.872 391.633,264.091 389.639,264.631 389.405 C 264.932 389.274,265.285 389.167,265.417 389.167 C 265.548 389.167,265.902 389.062,266.203 388.933 C 267.052 388.572,267.953 388.233,269.583 387.663 C 270.911 387.198,274.022 386.001,275.417 385.417 C 275.692 385.302,276.592 384.926,277.417 384.580 C 278.242 384.235,279.368 383.738,279.919 383.476 C 280.471 383.214,280.977 383.000,281.044 383.000 C 281.111 383.000,281.672 382.767,282.291 382.481 C 282.910 382.196,283.754 381.810,284.167 381.624 C 286.538 380.553,294.976 376.270,296.500 375.365 C 296.821 375.174,297.458 374.833,297.917 374.606 C 298.375 374.380,299.035 374.001,299.382 373.764 C 299.730 373.527,300.069 373.333,300.136 373.333 C 300.203 373.333,300.656 373.071,301.143 372.750 C 301.631 372.429,302.062 372.167,302.101 372.167 C 302.141 372.167,302.491 371.962,302.878 371.712 C 303.810 371.111,304.182 370.884,304.583 370.671 C 304.767 370.574,305.118 370.365,305.363 370.206 C 305.609 370.047,306.336 369.597,306.980 369.206 C 308.022 368.573,311.279 366.406,314.334 364.313 C 316.177 363.051,316.581 362.754,316.639 362.625 C 316.669 362.556,316.763 362.500,316.847 362.500 C 316.931 362.500,317.131 362.386,317.292 362.246 C 317.452 362.107,318.708 361.159,320.083 360.140 C 321.458 359.121,322.667 358.185,322.768 358.060 C 322.870 357.935,323.001 357.833,323.059 357.833 C 323.117 357.833,323.333 357.691,323.540 357.518 C 323.747 357.345,324.667 356.603,325.583 355.870 C 326.500 355.138,327.460 354.342,327.717 354.102 C 327.974 353.863,328.249 353.667,328.328 353.667 C 328.407 353.667,328.497 353.602,328.528 353.522 C 328.558 353.442,329.333 352.754,330.250 351.992 C 331.167 351.230,332.217 350.332,332.583 349.995 C 334.051 348.648,335.618 347.223,336.242 346.668 C 337.098 345.907,345.907 337.098,346.668 336.242 C 347.223 335.618,348.648 334.051,349.995 332.583 C 350.332 332.217,351.230 331.167,351.992 330.250 C 352.754 329.333,353.442 328.558,353.522 328.528 C 353.602 328.497,353.667 328.407,353.667 328.328 C 353.667 328.249,353.863 327.974,354.102 327.717 C 354.342 327.460,355.138 326.500,355.870 325.583 C 356.603 324.667,357.345 323.747,357.518 323.540 C 357.691 323.333,357.833 323.117,357.833 323.059 C 357.833 323.001,357.935 322.870,358.060 322.768 C 358.185 322.667,359.121 321.458,360.140 320.083 C 361.159 318.708,362.107 317.452,362.246 317.292 C 362.386 317.131,362.500 316.931,362.500 316.847 C 362.500 316.763,362.556 316.669,362.625 316.639 C 362.754 316.581,363.051 316.177,364.313 314.334 C 366.406 311.279,368.573 308.022,369.206 306.980 C 369.597 306.336,370.047 305.609,370.206 305.363 C 370.365 305.118,370.574 304.767,370.671 304.583 C 370.884 304.182,371.111 303.810,371.712 302.878 C 371.962 302.491,372.167 302.141,372.167 302.101 C 372.167 302.062,372.429 301.631,372.750 301.143 C 373.071 300.656,373.333 300.203,373.333 300.136 C 373.333 300.069,373.527 299.730,373.764 299.382 C 374.001 299.035,374.380 298.375,374.606 297.917 C 374.833 297.458,375.174 296.821,375.365 296.500 C 376.270 294.976,380.553 286.538,381.624 284.167 C 381.810 283.754,382.196 282.910,382.481 282.291 C 382.767 281.672,383.000 281.111,383.000 281.044 C 383.000 280.977,383.214 280.471,383.476 279.919 C 383.738 279.368,384.235 278.242,384.580 277.417 C 384.926 276.592,385.302 275.692,385.417 275.417 C 386.001 274.022,387.198 270.911,387.663 269.583 C 388.233 267.953,388.572 267.052,388.933 266.203 C 389.062 265.902,389.167 265.548,389.167 265.417 C 389.167 265.285,389.274 264.932,389.405 264.631 C 389.639 264.091,391.633 257.872,392.091 256.250 C 392.220 255.792,392.444 255.004,392.587 254.500 C 393.266 252.111,393.362 251.751,394.107 248.750 C 394.243 248.200,394.463 247.368,394.594 246.902 C 394.726 246.436,394.833 245.905,394.833 245.723 C 394.833 245.542,394.938 245.061,395.065 244.655 C 395.193 244.249,395.424 243.279,395.579 242.500 C 395.734 241.721,395.964 240.596,396.089 240.000 C 397.146 234.987,398.035 229.503,398.738 223.667 C 400.311 210.600,400.503 194.152,399.237 181.000 C 398.534 173.694,397.446 166.437,396.089 160.000 C 395.964 159.404,395.734 158.279,395.579 157.500 C 395.424 156.721,395.193 155.751,395.065 155.345 C 394.938 154.939,394.833 154.458,394.833 154.277 C 394.833 154.095,394.726 153.564,394.594 153.098 C 394.370 152.304,394.224 151.733,393.574 149.125 C 393.321 148.112,393.127 147.397,392.587 145.500 C 392.444 144.996,392.220 144.208,392.091 143.750 C 391.633 142.128,389.639 135.909,389.405 135.369 C 389.274 135.068,389.167 134.715,389.167 134.583 C 389.167 134.452,389.062 134.098,388.933 133.797 C 388.572 132.948,388.233 132.047,387.663 130.417 C 387.198 129.089,386.001 125.978,385.417 124.583 C 385.302 124.308,384.926 123.408,384.580 122.583 C 384.235 121.758,383.738 120.632,383.476 120.081 C 383.214 119.529,383.000 119.023,383.000 118.956 C 383.000 118.889,382.767 118.328,382.481 117.709 C 382.196 117.090,381.810 116.246,381.624 115.833 C 380.553 113.462,376.270 105.024,375.365 103.500 C 375.174 103.179,374.833 102.542,374.606 102.083 C 374.380 101.625,374.001 100.965,373.764 100.618 C 373.527 100.270,373.333 99.931,373.333 99.864 C 373.333 99.797,373.071 99.344,372.750 98.857 C 372.429 98.369,372.167 97.938,372.167 97.899 C 372.167 97.859,371.962 97.509,371.712 97.122 C 371.111 96.190,370.884 95.818,370.671 95.417 C 370.574 95.233,370.365 94.882,370.206 94.637 C 370.047 94.391,369.597 93.664,369.206 93.020 C 368.573 91.978,366.406 88.721,364.313 85.666 C 363.051 83.823,362.754 83.419,362.625 83.361 C 362.556 83.331,362.500 83.237,362.500 83.153 C 362.500 83.069,362.386 82.869,362.246 82.708 C 362.107 82.548,361.159 81.292,360.140 79.917 C 359.121 78.542,358.185 77.333,358.060 77.232 C 357.935 77.130,357.833 76.999,357.833 76.941 C 357.833 76.883,357.691 76.667,357.518 76.460 C 357.345 76.253,356.603 75.333,355.870 74.417 C 355.138 73.500,354.342 72.540,354.102 72.283 C 353.863 72.026,353.667 71.751,353.667 71.672 C 353.667 71.593,353.602 71.503,353.522 71.472 C 353.442 71.442,352.754 70.667,351.992 69.750 C 351.230 68.833,350.332 67.783,349.995 67.417 C 348.648 65.949,347.223 64.382,346.668 63.758 C 345.907 62.902,337.098 54.093,336.242 53.332 C 335.618 52.777,334.051 51.352,332.583 50.005 C 332.217 49.668,331.167 48.770,330.250 48.008 C 329.333 47.246,328.558 46.558,328.528 46.478 C 328.497 46.398,328.407 46.333,328.328 46.333 C 328.249 46.333,327.974 46.137,327.717 45.898 C 327.460 45.658,326.500 44.862,325.583 44.130 C 324.667 43.397,323.747 42.655,323.540 42.482 C 323.333 42.309,323.096 42.167,323.013 42.167 C 322.929 42.167,322.836 42.097,322.806 42.011 C 322.775 41.926,321.587 40.992,320.167 39.936 C 318.746 38.880,317.452 37.900,317.292 37.758 C 317.131 37.616,316.931 37.500,316.847 37.500 C 316.763 37.500,316.669 37.444,316.639 37.375 C 316.581 37.246,316.177 36.949,314.334 35.687 C 311.279 33.594,308.022 31.427,306.980 30.794 C 306.336 30.403,305.609 29.953,305.363 29.794 C 305.118 29.635,304.767 29.426,304.583 29.329 C 304.201 29.127,303.855 28.917,302.917 28.318 C 302.550 28.084,302.137 27.841,302.000 27.778 C 301.862 27.715,301.525 27.514,301.250 27.331 C 300.975 27.149,300.563 26.905,300.333 26.790 C 300.104 26.674,299.617 26.388,299.250 26.153 C 298.883 25.918,298.246 25.558,297.833 25.353 C 297.421 25.147,296.821 24.824,296.500 24.634 C 295.000 23.746,286.422 19.393,284.167 18.376 C 283.754 18.189,282.910 17.804,282.291 17.519 C 281.672 17.233,281.068 17.000,280.950 17.000 C 280.831 17.000,280.662 16.933,280.575 16.850 C 280.488 16.768,279.404 16.275,278.167 15.755 C 276.929 15.235,275.692 14.712,275.417 14.592 C 274.364 14.132,271.019 12.840,269.583 12.337 C 267.953 11.767,267.052 11.428,266.203 11.067 C 265.902 10.938,265.548 10.833,265.417 10.833 C 265.285 10.833,264.932 10.726,264.631 10.595 C 264.091 10.361,257.872 8.367,256.250 7.909 C 255.792 7.780,255.004 7.556,254.500 7.413 C 252.111 6.734,251.751 6.638,248.750 5.893 C 248.200 5.757,247.368 5.537,246.902 5.406 C 246.436 5.274,245.905 5.167,245.723 5.167 C 245.542 5.167,245.061 5.062,244.655 4.935 C 244.249 4.807,243.279 4.576,242.500 4.421 C 241.721 4.266,240.596 4.036,240.000 3.911 C 234.987 2.854,229.503 1.965,223.667 1.262 C 213.324 0.017,196.465 -0.432,186.750 0.278 M206.250 16.499 C 235.832 17.519,264.611 25.622,290.167 40.127 C 319.368 56.700,344.725 82.088,360.287 110.333 C 360.565 110.837,361.187 111.962,361.670 112.833 C 369.848 127.581,376.071 144.535,380.083 163.000 C 380.348 164.219,381.252 169.062,381.405 170.083 C 381.461 170.450,381.657 171.725,381.843 172.917 C 388.087 213.065,380.497 254.494,360.256 290.750 C 350.342 308.508,334.899 327.324,319.833 340.005 C 319.237 340.506,318.712 340.954,318.667 341.000 C 317.751 341.916,311.137 347.120,308.167 349.262 C 304.350 352.015,303.765 352.421,301.250 354.075 C 297.337 356.647,297.246 356.705,294.250 358.506 C 278.346 368.070,257.543 376.519,241.750 379.828 C 241.383 379.905,240.371 380.128,239.500 380.324 C 218.983 384.938,196.785 385.860,175.136 382.998 C 172.647 382.669,166.961 381.762,165.750 381.501 C 165.383 381.422,164.446 381.235,163.667 381.086 C 153.699 379.177,140.903 375.359,131.250 371.413 C 127.788 369.998,126.990 369.661,125.167 368.843 C 119.934 366.496,113.066 363.038,109.695 361.053 C 109.022 360.657,108.447 360.333,108.416 360.333 C 108.158 360.333,101.284 356.068,97.833 353.767 C 63.754 331.039,37.900 297.255,25.057 258.667 C 23.434 253.788,20.877 244.670,20.175 241.250 C 20.099 240.883,19.845 239.683,19.610 238.583 C 19.189 236.612,18.294 231.883,18.096 230.583 C 18.040 230.217,17.851 228.979,17.675 227.833 C 15.067 210.801,15.012 191.848,17.519 174.253 C 18.099 170.178,18.916 165.580,19.667 162.167 C 19.858 161.296,20.082 160.246,20.163 159.833 C 20.790 156.671,23.380 147.381,24.972 142.583 C 28.152 133.002,33.445 120.754,37.615 113.333 C 37.795 113.013,38.230 112.225,38.583 111.583 C 71.793 51.066,136.959 14.110,206.250 16.499 M177.000 82.725 L 177.000 93.949 175.636 94.683 C 151.349 107.749,141.475 138.962,154.025 163.000 C 159.312 173.126,166.755 180.214,186.583 194.004 C 187.683 194.769,188.958 195.658,189.417 195.979 C 189.875 196.300,191.375 197.348,192.750 198.308 C 216.032 214.552,227.158 226.086,233.141 240.181 C 240.723 258.040,236.126 276.998,222.667 283.377 C 209.970 289.393,188.888 286.986,174.523 277.880 C 174.032 277.569,173.613 277.337,173.591 277.365 C 173.569 277.394,172.701 278.654,171.660 280.167 C 169.791 282.885,164.605 290.214,162.549 293.044 C 161.965 293.848,161.448 294.609,161.399 294.736 C 161.187 295.287,168.227 299.162,174.000 301.672 L 176.917 302.940 176.960 311.720 L 177.003 320.500 184.085 320.500 L 191.167 320.500 191.167 313.750 C 191.167 310.037,191.223 307.000,191.292 307.001 C 191.360 307.001,192.054 307.112,192.833 307.247 C 197.361 308.035,203.014 308.428,207.542 308.271 L 210.500 308.169 210.500 314.334 L 210.500 320.500 217.582 320.500 L 224.663 320.500 224.707 313.068 L 224.750 305.636 226.333 305.098 C 241.724 299.862,251.595 289.100,256.387 272.333 C 259.988 259.730,258.439 243.613,252.341 230.250 C 244.530 213.133,232.007 199.684,208.083 182.720 C 205.883 181.160,203.249 179.291,202.229 178.567 C 201.209 177.843,198.661 176.050,196.567 174.583 C 175.110 159.556,170.263 153.217,170.254 140.167 C 170.235 115.644,197.889 101.308,218.850 114.974 C 223.668 118.115,228.893 123.811,230.321 127.478 C 230.833 128.794,231.482 132.208,231.829 135.417 C 231.928 136.333,232.048 137.350,232.097 137.677 L 232.185 138.270 233.134 138.222 C 236.506 138.051,244.159 137.611,247.303 137.408 C 249.349 137.275,251.500 137.167,252.085 137.167 C 253.389 137.167,253.314 137.327,253.155 134.883 C 252.960 131.879,252.487 129.111,251.095 122.833 C 248.695 112.005,238.001 99.779,225.858 93.983 L 224.672 93.417 224.669 82.458 L 224.667 71.500 217.583 71.500 L 210.500 71.500 210.500 80.167 C 210.500 87.787,210.470 88.833,210.248 88.833 C 210.110 88.833,209.266 88.705,208.373 88.549 C 205.720 88.083,196.877 88.131,193.695 88.627 C 192.381 88.832,191.275 89.000,191.237 89.000 C 191.198 89.000,191.167 85.063,191.167 80.250 L 191.167 71.500 184.083 71.500 L 177.000 71.500 177.000 82.725 " stroke="none" fill="#08a4e7" fill-rule="evenodd"></path><path id="path1" d="M327.500 68.052 C 327.500 68.081,327.744 68.325,328.042 68.594 L 328.583 69.083 328.094 68.542 C 327.638 68.037,327.500 67.923,327.500 68.052 M331.833 72.417 C 332.144 72.737,332.436 73.000,332.482 73.000 C 332.528 73.000,332.311 72.737,332.000 72.417 C 331.689 72.096,331.397 71.833,331.351 71.833 C 331.305 71.833,331.522 72.096,331.833 72.417 M200.625 88.122 C 201.015 88.157,201.652 88.157,202.042 88.122 C 202.431 88.087,202.112 88.058,201.333 88.058 C 200.554 88.058,200.235 88.087,200.625 88.122 M239.167 103.385 C 239.167 103.414,239.410 103.658,239.708 103.927 L 240.250 104.417 239.760 103.875 C 239.304 103.370,239.167 103.257,239.167 103.385 M198.083 109.834 C 197.350 109.914,196.000 110.138,195.083 110.331 C 194.167 110.523,193.172 110.725,192.873 110.779 C 192.503 110.846,192.377 110.937,192.477 111.064 C 192.558 111.166,192.664 111.475,192.713 111.750 C 192.762 112.025,192.953 112.962,193.139 113.833 C 196.726 130.653,194.262 150.641,186.761 165.568 L 186.083 166.917 188.417 168.680 C 191.330 170.880,193.989 172.794,198.626 176.025 C 200.619 177.414,202.593 178.798,203.012 179.101 L 203.775 179.652 205.123 177.034 C 214.798 158.246,218.391 135.674,215.111 114.291 C 214.844 112.551,215.057 112.798,213.148 112.019 C 208.663 110.188,202.714 109.326,198.083 109.834 M252.583 137.121 C 247.653 137.400,242.005 137.732,238.915 137.926 C 236.805 138.058,234.518 138.168,233.831 138.169 C 232.120 138.173,232.252 137.683,232.237 144.083 C 232.208 156.753,229.615 167.748,223.794 179.881 C 222.786 181.983,222.776 182.017,223.094 182.324 C 226.744 185.855,239.254 196.616,239.423 196.372 C 240.358 195.026,243.401 189.010,244.753 185.833 C 246.318 182.157,248.259 176.536,249.069 173.333 C 249.127 173.104,249.358 172.204,249.582 171.333 C 251.048 165.631,252.123 159.552,252.750 153.417 C 253.141 149.593,253.355 144.631,253.300 140.667 L 253.250 137.083 252.583 137.121 M165.720 196.797 C 154.163 212.291,148.467 222.270,144.673 233.667 C 137.922 253.952,141.386 274.772,153.817 288.622 C 155.662 290.677,160.261 294.667,160.786 294.667 C 160.865 294.667,162.115 293.054,163.563 291.082 C 165.092 289.000,166.270 287.544,166.373 287.608 C 166.481 287.675,166.503 287.639,166.428 287.518 C 166.291 287.296,166.631 286.791,166.833 286.917 C 166.904 286.961,166.952 286.866,166.940 286.707 C 166.927 286.546,167.015 286.437,167.137 286.462 C 167.259 286.488,167.318 286.443,167.268 286.363 C 167.160 286.188,168.126 284.833,168.358 284.833 C 168.447 284.833,168.476 284.763,168.424 284.678 C 168.371 284.593,168.496 284.405,168.701 284.261 C 168.906 284.118,169.014 284.000,168.941 284.000 C 168.868 284.000,169.042 283.766,169.328 283.480 C 169.614 283.194,169.809 282.920,169.760 282.871 C 169.712 282.823,169.775 282.701,169.902 282.600 C 170.028 282.499,170.925 281.261,171.895 279.849 L 173.658 277.280 172.969 276.765 C 164.945 270.772,160.941 258.109,163.490 246.785 C 163.577 246.399,163.772 245.521,163.924 244.833 C 166.133 234.853,171.676 224.760,183.739 208.756 C 185.395 206.559,186.800 204.683,186.860 204.588 C 186.923 204.491,186.305 203.970,185.444 203.394 C 178.482 198.738,169.244 192.623,169.097 192.573 C 168.998 192.539,167.478 194.440,165.720 196.797 M383.903 200.500 C 383.903 202.196,383.927 202.890,383.958 202.042 C 383.988 201.194,383.988 199.806,383.958 198.958 C 383.927 198.110,383.903 198.804,383.903 200.500 M233.667 203.719 C 233.667 203.748,233.910 203.991,234.208 204.260 L 234.750 204.750 234.260 204.208 C 233.804 203.703,233.667 203.590,233.667 203.719 M205.243 207.489 C 205.309 207.596,203.933 209.591,202.041 212.130 C 182.013 239.007,175.626 257.728,179.257 278.917 L 179.543 280.583 180.813 281.154 C 186.669 283.784,192.423 285.465,198.250 286.249 C 200.365 286.534,205.500 286.790,205.500 286.611 C 205.500 286.553,205.274 286.138,204.998 285.689 C 201.821 280.526,200.116 274.055,200.095 267.083 C 200.083 262.965,200.105 262.758,200.937 259.083 C 202.631 251.600,206.565 243.350,212.979 233.833 C 215.343 230.325,220.981 222.584,221.360 222.325 C 221.683 222.105,215.105 215.643,210.833 211.985 C 208.947 210.369,205.122 207.293,205.243 207.489 M206.125 286.787 C 206.423 286.824,206.910 286.824,207.208 286.787 C 207.506 286.750,207.262 286.720,206.667 286.720 C 206.071 286.720,205.827 286.750,206.125 286.787 M201.794 308.285 C 202.001 308.324,202.301 308.323,202.460 308.281 C 202.620 308.239,202.450 308.207,202.083 308.209 C 201.717 308.211,201.586 308.245,201.794 308.285 M208.794 308.285 C 209.001 308.324,209.301 308.323,209.460 308.281 C 209.620 308.239,209.450 308.207,209.083 308.209 C 208.717 308.211,208.586 308.245,208.794 308.285 M70.667 331.750 C 70.978 332.071,71.270 332.333,71.315 332.333 C 71.361 332.333,71.144 332.071,70.833 331.750 C 70.522 331.429,70.230 331.167,70.185 331.167 C 70.139 331.167,70.356 331.429,70.667 331.750 M190.458 384.451 C 190.665 384.491,191.002 384.491,191.208 384.451 C 191.415 384.411,191.246 384.379,190.833 384.379 C 190.421 384.379,190.252 384.411,190.458 384.451 M208.460 384.451 C 208.668 384.491,208.968 384.490,209.127 384.448 C 209.286 384.406,209.117 384.374,208.750 384.375 C 208.383 384.377,208.253 384.411,208.460 384.451 M195.458 384.618 C 195.665 384.657,196.002 384.657,196.208 384.618 C 196.415 384.578,196.246 384.545,195.833 384.545 C 195.421 384.545,195.252 384.578,195.458 384.618 M203.292 384.618 C 203.498 384.657,203.835 384.657,204.042 384.618 C 204.248 384.578,204.079 384.545,203.667 384.545 C 203.254 384.545,203.085 384.578,203.292 384.618 " stroke="none" fill="#244ba3" fill-rule="evenodd"></path><path id="path2" d="M189.500 16.743 C 177.868 17.400,166.003 19.209,155.000 22.002 C 153.212 22.456,151.563 22.875,151.333 22.933 C 151.104 22.992,149.417 23.485,147.583 24.029 C 92.288 40.446,47.955 81.759,27.425 136.000 C 27.304 136.321,27.088 136.883,26.946 137.250 C 21.461 151.397,17.607 169.518,16.152 188.000 C 15.702 193.704,15.703 207.263,16.152 213.000 C 16.970 223.425,17.949 230.299,19.927 239.500 C 20.892 243.986,22.520 250.404,23.246 252.583 C 23.368 252.950,23.706 254.037,23.998 255.000 C 24.652 257.162,25.573 259.930,26.546 262.667 C 29.544 271.093,34.621 282.267,38.729 289.481 C 39.428 290.708,40.000 291.732,40.000 291.756 C 40.000 291.781,40.574 292.765,41.275 293.942 C 58.591 323.020,82.480 346.028,112.417 362.459 C 117.202 365.086,126.672 369.504,132.167 371.673 C 135.507 372.991,136.097 373.212,138.882 374.186 C 147.056 377.043,157.413 379.857,164.583 381.170 C 165.042 381.254,166.242 381.474,167.250 381.660 C 193.005 386.408,222.888 385.134,247.583 378.235 C 248.775 377.902,249.900 377.592,250.083 377.546 C 252.566 376.919,260.382 374.348,264.167 372.914 C 269.381 370.938,271.903 369.881,277.000 367.537 C 288.584 362.210,300.351 355.111,311.000 347.024 C 321.861 338.776,332.470 328.634,341.105 318.242 C 345.477 312.981,349.615 307.444,353.118 302.167 C 354.660 299.843,358.500 293.732,358.500 293.602 C 358.500 293.561,358.848 292.940,359.274 292.222 C 363.607 284.913,368.053 275.567,371.868 265.750 C 387.764 224.838,387.779 177.957,371.909 135.333 C 371.360 133.859,369.132 128.416,368.463 126.917 C 368.054 126.000,367.470 124.688,367.165 124.000 C 354.693 95.854,331.371 67.912,305.167 49.719 C 300.550 46.514,290.220 40.000,289.754 40.000 C 289.716 40.000,289.249 39.749,288.717 39.441 C 286.506 38.165,279.912 34.794,277.083 33.495 C 273.012 31.626,266.897 29.057,264.667 28.279 C 264.254 28.135,263.504 27.859,263.000 27.666 C 259.949 26.496,251.342 23.738,248.417 22.994 C 248.142 22.924,246.904 22.602,245.667 22.279 C 234.965 19.487,222.695 17.530,211.408 16.815 C 207.159 16.545,193.766 16.501,189.500 16.743 M191.167 80.177 C 191.167 85.040,191.227 88.983,191.300 88.937 C 192.535 88.174,204.072 87.790,207.904 88.384 C 208.905 88.540,209.861 88.667,210.028 88.667 C 210.316 88.667,210.332 88.250,210.374 80.042 L 210.417 71.417 217.583 71.417 L 224.750 71.417 224.793 82.374 L 224.836 93.331 226.210 94.017 C 235.306 98.563,243.111 106.033,248.396 115.250 C 250.931 119.672,253.036 129.112,253.338 137.417 C 253.951 154.289,250.723 172.202,244.444 186.779 C 242.977 190.184,239.529 196.690,239.225 196.624 C 239.057 196.588,237.328 195.100,234.337 192.417 C 233.826 191.958,232.847 191.088,232.162 190.483 C 231.477 189.877,229.117 187.785,226.917 185.834 C 224.717 183.883,222.859 182.235,222.789 182.174 C 222.719 182.112,223.252 180.829,223.973 179.322 C 227.281 172.415,229.675 165.077,230.983 157.833 C 232.690 148.386,232.518 136.134,230.573 128.628 C 229.379 124.019,222.580 116.861,216.205 113.501 C 214.899 112.812,214.951 112.713,215.324 115.176 C 216.330 121.811,216.637 133.959,215.951 140.000 C 214.329 154.287,211.066 165.574,205.269 176.942 L 203.897 179.633 208.319 182.775 C 227.204 196.193,238.320 206.786,246.081 218.763 C 246.611 219.581,247.217 220.512,247.427 220.833 C 254.243 231.231,258.401 244.993,258.406 257.167 C 258.415 280.419,245.361 299.708,225.761 305.406 L 224.837 305.675 224.793 313.129 L 224.750 320.583 217.583 320.583 L 210.417 320.583 210.373 314.458 L 210.329 308.333 205.519 308.333 C 200.657 308.333,197.200 308.079,193.157 307.423 C 192.291 307.283,191.490 307.168,191.375 307.167 C 191.212 307.167,191.167 308.627,191.167 313.917 L 191.167 320.667 184.001 320.667 L 176.836 320.667 176.793 311.812 L 176.750 302.958 174.167 301.846 C 170.959 300.465,169.062 299.558,166.917 298.381 C 164.689 297.158,161.347 295.156,161.237 294.979 C 161.161 294.856,161.900 293.761,164.289 290.458 C 164.604 290.023,164.826 289.667,164.782 289.667 C 164.738 289.667,163.857 290.810,162.824 292.208 C 161.791 293.606,160.921 294.780,160.891 294.817 C 160.802 294.929,157.835 292.609,156.500 291.383 C 146.745 282.428,141.168 268.800,141.168 253.917 C 141.167 237.972,147.939 220.932,161.833 201.917 C 165.575 196.795,168.847 192.500,169.006 192.500 C 169.205 192.500,187.000 204.286,187.000 204.418 C 187.000 204.467,185.665 206.287,184.033 208.462 C 165.910 232.616,160.667 246.204,163.679 261.212 C 165.426 269.917,169.456 275.145,177.897 279.651 L 179.544 280.530 179.424 280.057 C 177.479 272.356,177.939 260.530,180.530 251.583 C 184.284 238.621,190.030 228.081,202.372 211.513 L 205.280 207.610 204.765 207.165 C 203.685 206.232,195.608 200.388,191.219 197.364 C 176.482 187.209,169.438 181.776,164.068 176.422 C 152.331 164.721,147.271 151.218,148.672 135.333 C 150.155 118.514,160.684 102.651,175.790 94.479 L 176.829 93.917 176.831 82.625 L 176.833 71.333 184.000 71.333 L 191.167 71.333 191.167 80.177 M190.667 111.591 C 171.042 118.712,163.904 142.053,176.504 157.908 C 178.269 160.130,184.395 165.873,185.851 166.673 C 186.289 166.913,188.904 160.956,190.587 155.887 C 194.992 142.615,195.886 126.826,192.988 113.469 C 192.803 112.615,192.608 111.710,192.555 111.458 C 192.438 110.904,192.591 110.893,190.667 111.591 M218.465 226.285 C 213.450 233.136,211.444 236.103,208.967 240.333 C 198.549 258.123,197.311 272.752,205.127 285.730 L 205.718 286.711 208.067 286.595 C 222.402 285.888,231.148 280.076,234.852 268.796 C 238.988 256.201,236.040 242.000,226.539 228.750 C 225.099 226.741,222.041 222.880,221.602 222.515 C 221.409 222.355,220.847 223.031,218.465 226.285 " stroke="none" fill="#040404" fill-rule="evenodd"></path><path id="path3" d="M198.134 16.458 C 199.078 16.488,200.578 16.487,201.467 16.457 C 202.356 16.428,201.583 16.403,199.750 16.403 C 197.917 16.404,197.189 16.428,198.134 16.458 M328.500 69.052 C 328.500 69.081,328.744 69.325,329.042 69.594 L 329.583 70.083 329.094 69.542 C 328.638 69.037,328.500 68.923,328.500 69.052 M176.912 82.667 C 176.912 88.854,176.933 91.385,176.958 88.292 C 176.984 85.198,176.984 80.135,176.958 77.042 C 176.933 73.948,176.912 76.479,176.912 82.667 M199.208 88.115 C 199.369 88.157,199.631 88.157,199.792 88.115 C 199.952 88.073,199.821 88.039,199.500 88.039 C 199.179 88.039,199.048 88.073,199.208 88.115 M202.875 88.115 C 203.035 88.157,203.298 88.157,203.458 88.115 C 203.619 88.073,203.487 88.039,203.167 88.039 C 202.846 88.039,202.715 88.073,202.875 88.115 M15.709 195.083 C 15.711 195.450,15.745 195.580,15.785 195.373 C 15.824 195.166,15.823 194.866,15.781 194.706 C 15.739 194.547,15.707 194.717,15.709 195.083 M15.709 205.917 C 15.711 206.283,15.745 206.414,15.785 206.206 C 15.824 205.999,15.823 205.699,15.781 205.540 C 15.739 205.380,15.707 205.550,15.709 205.917 M236.709 256.250 C 236.711 256.617,236.745 256.747,236.785 256.540 C 236.824 256.332,236.823 256.032,236.781 255.873 C 236.739 255.714,236.707 255.883,236.709 256.250 M236.709 258.250 C 236.711 258.617,236.745 258.747,236.785 258.540 C 236.824 258.332,236.823 258.032,236.781 257.873 C 236.739 257.714,236.707 257.883,236.709 258.250 M244.573 293.875 L 244.083 294.417 244.625 293.927 C 245.130 293.471,245.243 293.333,245.115 293.333 C 245.086 293.333,244.842 293.577,244.573 293.875 M176.914 311.750 L 176.917 320.583 183.917 320.586 L 190.917 320.589 183.960 320.543 L 177.003 320.496 176.958 311.707 L 176.912 302.917 176.914 311.750 M214.053 320.625 C 216.053 320.651,219.278 320.651,221.220 320.625 C 223.161 320.598,221.525 320.576,217.583 320.576 C 213.642 320.576,212.053 320.598,214.053 320.625 M328.991 331.458 L 328.417 332.083 329.042 331.509 C 329.385 331.193,329.667 330.912,329.667 330.884 C 329.667 330.757,329.526 330.877,328.991 331.458 M198.134 384.624 C 199.078 384.654,200.578 384.654,201.467 384.624 C 202.356 384.594,201.583 384.570,199.750 384.570 C 197.917 384.570,197.189 384.595,198.134 384.624 " stroke="none" fill="#045c75" fill-rule="evenodd"></path><path id="path4" d="M192.375 16.615 C 192.535 16.657,192.798 16.657,192.958 16.615 C 193.119 16.573,192.987 16.539,192.667 16.539 C 192.346 16.539,192.215 16.573,192.375 16.615 M188.877 16.786 C 189.131 16.825,189.506 16.824,189.711 16.784 C 189.916 16.744,189.708 16.713,189.250 16.714 C 188.792 16.716,188.624 16.748,188.877 16.786 M209.877 16.786 C 210.131 16.825,210.506 16.824,210.711 16.784 C 210.916 16.744,210.708 16.713,210.250 16.714 C 209.792 16.716,209.624 16.748,209.877 16.786 M75.073 65.208 L 74.583 65.750 75.125 65.260 C 75.423 64.991,75.667 64.748,75.667 64.719 C 75.667 64.590,75.529 64.703,75.073 65.208 M326.000 66.750 C 326.311 67.071,326.603 67.333,326.649 67.333 C 326.695 67.333,326.478 67.071,326.167 66.750 C 325.856 66.429,325.564 66.167,325.518 66.167 C 325.472 66.167,325.689 66.429,326.000 66.750 M72.077 68.042 L 71.250 68.917 72.125 68.090 C 72.606 67.635,73.000 67.241,73.000 67.215 C 73.000 67.090,72.846 67.229,72.077 68.042 M180.375 71.458 C 182.369 71.485,185.631 71.485,187.625 71.458 C 189.619 71.432,187.987 71.410,184.000 71.410 C 180.012 71.410,178.381 71.432,180.375 71.458 M210.413 71.540 C 210.280 71.899,210.243 88.833,210.375 88.833 C 210.444 88.833,210.500 84.933,210.500 80.167 L 210.500 71.500 217.583 71.500 L 224.667 71.500 224.667 82.407 C 224.667 88.406,224.723 93.348,224.792 93.391 C 224.860 93.433,224.879 88.507,224.833 82.442 L 224.750 71.417 217.620 71.373 C 212.005 71.339,210.474 71.374,210.413 71.540 M67.167 72.917 C 66.762 73.329,66.468 73.667,66.514 73.667 C 66.560 73.667,66.928 73.329,67.333 72.917 C 67.738 72.504,68.032 72.167,67.986 72.167 C 67.940 72.167,67.572 72.504,67.167 72.917 M333.500 74.250 C 333.811 74.571,334.103 74.833,334.149 74.833 C 334.195 74.833,333.978 74.571,333.667 74.250 C 333.356 73.929,333.064 73.667,333.018 73.667 C 332.972 73.667,333.189 73.929,333.500 74.250 M198.127 88.118 C 198.334 88.158,198.634 88.156,198.794 88.115 C 198.953 88.073,198.783 88.040,198.417 88.042 C 198.050 88.044,197.920 88.078,198.127 88.118 M203.960 88.118 C 204.168 88.158,204.468 88.156,204.627 88.115 C 204.786 88.073,204.617 88.040,204.250 88.042 C 203.883 88.044,203.753 88.078,203.960 88.118 M178.994 118.958 L 178.083 119.917 179.042 119.006 C 179.932 118.159,180.076 118.000,179.953 118.000 C 179.927 118.000,179.495 118.431,178.994 118.958 M215.705 118.833 C 215.705 119.154,215.740 119.285,215.782 119.125 C 215.823 118.965,215.823 118.702,215.782 118.542 C 215.740 118.381,215.705 118.513,215.705 118.833 M224.333 119.583 C 224.831 120.087,225.276 120.500,225.322 120.500 C 225.368 120.500,224.998 120.087,224.500 119.583 C 224.002 119.079,223.557 118.667,223.511 118.667 C 223.466 118.667,223.835 119.079,224.333 119.583 M216.042 122.250 C 216.044 122.617,216.078 122.747,216.118 122.540 C 216.158 122.332,216.156 122.032,216.115 121.873 C 216.073 121.714,216.040 121.883,216.042 122.250 M194.552 124.750 C 194.553 125.300,194.584 125.505,194.621 125.205 C 194.658 124.906,194.657 124.456,194.619 124.205 C 194.581 123.955,194.551 124.200,194.552 124.750 M216.224 125.417 C 216.224 126.150,216.254 126.429,216.289 126.037 C 216.324 125.645,216.324 125.045,216.288 124.704 C 216.252 124.363,216.223 124.683,216.224 125.417 M194.735 130.083 C 194.735 131.642,194.760 132.302,194.791 131.550 C 194.821 130.798,194.821 129.523,194.791 128.717 C 194.760 127.910,194.735 128.525,194.735 130.083 M216.221 134.583 C 216.222 135.225,216.252 135.467,216.288 135.121 C 216.324 134.775,216.324 134.250,216.287 133.955 C 216.250 133.659,216.221 133.942,216.221 134.583 M253.212 135.000 C 253.212 135.412,253.245 135.581,253.284 135.375 C 253.324 135.169,253.324 134.831,253.284 134.625 C 253.245 134.419,253.212 134.587,253.212 135.000 M194.552 135.417 C 194.553 135.967,194.584 136.172,194.621 135.872 C 194.658 135.572,194.657 135.122,194.619 134.872 C 194.581 134.622,194.551 134.867,194.552 135.417 M216.045 137.833 C 216.045 138.246,216.078 138.415,216.118 138.208 C 216.157 138.002,216.157 137.665,216.118 137.458 C 216.078 137.252,216.045 137.421,216.045 137.833 M232.039 138.667 C 232.039 138.987,232.073 139.119,232.115 138.958 C 232.157 138.798,232.157 138.535,232.115 138.375 C 232.073 138.215,232.039 138.346,232.039 138.667 M253.394 141.417 C 253.395 142.333,253.423 142.687,253.456 142.203 C 253.490 141.718,253.490 140.968,253.456 140.536 C 253.421 140.104,253.394 140.500,253.394 141.417 M232.236 144.083 C 232.236 145.825,232.261 146.515,232.291 145.616 C 232.321 144.718,232.321 143.293,232.291 142.450 C 232.261 141.607,232.236 142.342,232.236 144.083 M253.218 147.250 C 253.219 147.800,253.250 148.005,253.287 147.705 C 253.325 147.406,253.324 146.956,253.286 146.705 C 253.248 146.455,253.217 146.700,253.218 147.250 M232.042 149.583 C 232.044 149.950,232.078 150.080,232.118 149.873 C 232.158 149.666,232.156 149.366,232.115 149.206 C 232.073 149.047,232.040 149.217,232.042 149.583 M252.705 153.833 C 252.705 154.154,252.740 154.285,252.782 154.125 C 252.823 153.965,252.823 153.702,252.782 153.542 C 252.740 153.381,252.705 153.512,252.705 153.833 M180.000 161.719 C 180.000 161.748,180.244 161.991,180.542 162.260 L 181.083 162.750 180.594 162.208 C 180.138 161.703,180.000 161.590,180.000 161.719 M16.209 186.583 C 16.211 186.950,16.245 187.080,16.285 186.873 C 16.324 186.666,16.323 186.366,16.281 186.206 C 16.239 186.047,16.207 186.217,16.209 186.583 M383.721 194.917 C 383.722 195.558,383.752 195.800,383.788 195.455 C 383.824 195.109,383.824 194.584,383.787 194.288 C 383.750 193.992,383.721 194.275,383.721 194.917 M15.731 197.750 C 15.732 198.942,15.758 199.407,15.790 198.785 C 15.823 198.162,15.822 197.187,15.790 196.618 C 15.757 196.049,15.731 196.558,15.731 197.750 M15.731 203.333 C 15.731 204.479,15.758 204.948,15.790 204.375 C 15.823 203.802,15.823 202.865,15.790 202.292 C 15.758 201.719,15.731 202.188,15.731 203.333 M383.721 206.083 C 383.722 206.725,383.752 206.967,383.788 206.621 C 383.824 206.275,383.824 205.750,383.787 205.455 C 383.750 205.159,383.721 205.442,383.721 206.083 M16.209 214.417 C 16.211 214.783,16.245 214.914,16.285 214.706 C 16.324 214.499,16.323 214.199,16.281 214.040 C 16.239 213.880,16.207 214.050,16.209 214.417 M188.417 232.500 C 188.274 232.775,188.196 233.000,188.241 233.000 C 188.287 233.000,188.441 232.775,188.583 232.500 C 188.726 232.225,188.804 232.000,188.759 232.000 C 188.713 232.000,188.559 232.225,188.417 232.500 M141.212 251.000 C 141.212 251.412,141.245 251.581,141.284 251.375 C 141.324 251.169,141.324 250.831,141.284 250.625 C 141.245 250.419,141.212 250.588,141.212 251.000 M162.875 251.917 C 162.877 252.283,162.911 252.414,162.951 252.206 C 162.991 251.999,162.990 251.699,162.948 251.540 C 162.906 251.380,162.874 251.550,162.875 251.917 M258.400 257.167 C 258.400 258.587,258.426 259.169,258.457 258.458 C 258.488 257.748,258.488 256.585,258.457 255.875 C 258.426 255.165,258.400 255.746,258.400 257.167 M162.875 255.583 C 162.877 255.950,162.911 256.080,162.951 255.873 C 162.991 255.666,162.990 255.366,162.948 255.206 C 162.906 255.047,162.874 255.217,162.875 255.583 M141.212 256.833 C 141.212 257.246,141.245 257.415,141.284 257.208 C 141.324 257.002,141.324 256.665,141.284 256.458 C 141.245 256.252,141.212 256.421,141.212 256.833 M200.039 264.667 C 200.039 264.987,200.073 265.119,200.115 264.958 C 200.157 264.798,200.157 264.535,200.115 264.375 C 200.073 264.215,200.039 264.346,200.039 264.667 M178.236 268.250 C 178.236 269.992,178.261 270.682,178.291 269.783 C 178.321 268.884,178.321 267.459,178.291 266.616 C 178.261 265.773,178.236 266.508,178.236 268.250 M200.039 269.167 C 200.039 269.487,200.073 269.619,200.115 269.458 C 200.157 269.298,200.157 269.035,200.115 268.875 C 200.073 268.715,200.039 268.846,200.039 269.167 M228.744 279.042 L 227.917 279.917 228.792 279.090 C 229.273 278.635,229.667 278.241,229.667 278.215 C 229.667 278.090,229.512 278.229,228.744 279.042 M166.617 286.922 C 166.453 287.148,166.378 287.331,166.451 287.328 C 166.524 287.325,166.718 287.138,166.883 286.911 C 167.047 286.685,167.122 286.502,167.049 286.505 C 166.976 286.508,166.782 286.696,166.617 286.922 M208.542 286.615 C 208.702 286.657,208.965 286.657,209.125 286.615 C 209.285 286.573,209.154 286.539,208.833 286.539 C 208.512 286.539,208.381 286.573,208.542 286.615 M224.743 313.083 C 224.743 317.208,224.765 318.872,224.792 316.780 C 224.818 314.689,224.818 311.314,224.791 309.280 C 224.765 307.247,224.743 308.958,224.743 313.083 M210.333 314.383 L 210.416 320.583 210.460 314.510 C 210.484 311.170,210.447 308.380,210.377 308.310 C 210.307 308.240,210.287 310.973,210.333 314.383 M333.740 326.542 L 333.250 327.083 333.792 326.594 C 334.297 326.138,334.410 326.000,334.281 326.000 C 334.252 326.000,334.009 326.244,333.740 326.542 M66.167 327.052 C 66.167 327.081,66.410 327.325,66.708 327.594 L 67.250 328.083 66.760 327.542 C 66.304 327.037,66.167 326.923,66.167 327.052 M72.500 333.417 C 72.811 333.737,73.103 334.000,73.149 334.000 C 73.195 334.000,72.978 333.737,72.667 333.417 C 72.356 333.096,72.064 332.833,72.018 332.833 C 71.972 332.833,72.189 333.096,72.500 333.417 M188.627 384.285 C 188.834 384.324,189.134 384.323,189.294 384.281 C 189.453 384.239,189.283 384.207,188.917 384.209 C 188.550 384.211,188.420 384.245,188.627 384.285 M210.294 384.285 C 210.501 384.324,210.801 384.323,210.960 384.281 C 211.120 384.239,210.950 384.207,210.583 384.209 C 210.217 384.211,210.086 384.245,210.294 384.285 M192.375 384.448 C 192.535 384.490,192.798 384.490,192.958 384.448 C 193.119 384.406,192.987 384.372,192.667 384.372 C 192.346 384.372,192.215 384.406,192.375 384.448 " stroke="none" fill="#0a3e62" fill-rule="evenodd"></path></g></svg>