<svg id="Layer_1" data-name="Layer 1" xmlns="http://www.w3.org/2000/svg" viewBox="0 0 256 256"><defs><style>.cls-1{fill:#2b65c1;}.cls-2{fill:#2649a6;}.cls-3{fill:#00adee;}</style></defs><circle cx="128" cy="128" r="122.74"/><path class="cls-1" d="M128,256A128,128,0,0,1,37.49,37.49a128,128,0,0,1,181,181A127.15,127.15,0,0,1,128,256Zm0-245.48A117.48,117.48,0,1,0,245.48,128,117.61,117.61,0,0,0,128,10.52Z"/><path class="cls-1" d="M120.09,130.57l-.51.67c-1.33,1.76-2.7,3.57-4,5.34-4.51,6.2-9.3,13.63-10.62,21.73-1,6.15-.25,13.74,5.19,17.78l.68.51.53.43h0l-.25.33-7.7,10.83,0,.06-.49-.37-.34-.26,0,0c-6.69-5-10.78-13.31-11.52-22.45v0a37,37,0,0,1,.38-9c1.79-11,7.93-20.55,13.08-27.62,1.36-1.87,2.76-3.73,4.12-5.52l0,0Z"/><path class="cls-2" d="M131.55,112.82c-.32.64-.65,1.26-1,1.89s-.56,1-.86,1.52a110,110,0,0,1-6.68,10l-11.22-8a83.86,83.86,0,0,0,7.43-11.61l0-.06a52.34,52.34,0,0,0,4.21-35.18l-.12-.52-.1-.44,13.42-3.16.23,1c.29,1.27.55,2.55.77,3.84A66.42,66.42,0,0,1,131.55,112.82Z"/><path class="cls-2" d="M139.66,121.29l10.44,9.21c-2.28,3.41-4.73,6.64-7.13,9.82-.39.5-.77,1-1.16,1.52L139,145.65c-4.51,6.2-9.3,13.63-10.62,21.73A23.57,23.57,0,0,0,131.79,183a13.66,13.66,0,0,0,3.25,3.51l.88.65L127,196l-.52.56-.71-.53-.24-.19a27.9,27.9,0,0,1-10.43-16.69,37.22,37.22,0,0,1-.37-14c1.81-11,8-20.55,13.09-27.62,1.24-1.71,2.52-3.4,3.76-5,.12-.17.25-.33.37-.49C134.71,128.38,137.35,124.88,139.66,121.29Z"/><path class="cls-1" d="M155.17,122c-.62,1.24-1.28,2.44-2,3.62l-10.57-9.38c.09-.16.17-.32.25-.48a51.84,51.84,0,0,0,5.74-27.46L162,85.54C162.88,97.36,160.51,111.46,155.17,122Z"/><path class="cls-3" d="M154.67,189.39c-4.72,4-11,6.45-18.26,7.19-.68.07-1.36.13-2,.17a48.59,48.59,0,0,1-7.14-.14l-1.47-.15a53.72,53.72,0,0,1-22.37-8.21l7.69-10.81.29-.41h0a41.38,41.38,0,0,0,3.74,2.08A37.93,37.93,0,0,0,131.79,183c.6,0,1.19,0,1.79-.06,3.57-.2,8.59-1.08,12.19-4.12,5.07-4.28,7.12-13,5-21.17a38.73,38.73,0,0,0-8.94-15.83,64.72,64.72,0,0,0-5.76-5.69c-1.45-1.27-2.94-2.48-4.47-3.66.12-.17.25-.33.37-.49,2.75-3.63,5.39-7.12,7.7-10.71q2.79,2.15,5.49,4.48c1.76,1.55,3.42,3.12,4.95,4.72,7.13,7.4,11.84,15.35,14,23.71C167.58,167.55,163.79,181.69,154.67,189.39Z"/><path class="cls-3" d="M162.15,87.48l-13.53.78a46.83,46.83,0,0,0-.87-6,5.58,5.58,0,0,0-.35-1.07h0a8.29,8.29,0,0,0-.68-1.24h0a.76.76,0,0,0-.11-.16c-.19-.29-.39-.57-.6-.85l-.06-.09c-.19-.24-.38-.49-.58-.73a22.63,22.63,0,0,0-7.66-6.1q-.54-.26-1.08-.48c-.52-.21-1-.41-1.57-.57a20,20,0,0,0-11.67-.14,18.69,18.69,0,0,0-3.67,1.45,20,20,0,0,0-9.6,11,18.7,18.7,0,0,0,1,14.59c1.82,3.34,4.91,6.15,8.14,8.66l.79.61.58.44c2.81,2.11,5.79,4.19,8.67,6.19l.45.32.81.57c3,2.1,6.1,4.27,9.11,6.59-2.31,3.59-4.95,7.08-7.7,10.71-.12.16-.25.32-.37.49-2.74-2.13-5.61-4.17-8.58-6.23h0l-.81-.56-.8-.56c-2.9-2-5.89-4.11-8.83-6.3l-.24-.18-.54-.41c-4.78-3.63-9.59-7.84-12.8-13.75a32.43,32.43,0,0,1-1.92-25.69,33.79,33.79,0,0,1,42.14-21,33.43,33.43,0,0,1,19.06,14.62l.51.82a12.58,12.58,0,0,1,1.22,2.6l.4,1.21a4.71,4.71,0,0,1,.19.64A46.92,46.92,0,0,1,162.15,87.48Z"/><rect class="cls-3" x="113.42" y="45.66" width="9.08" height="14.88"/><rect class="cls-3" x="134.83" y="45.66" width="9.08" height="14.88"/><rect class="cls-3" x="113.42" y="192.56" width="9.08" height="14.88"/><rect class="cls-3" x="134.83" y="192.56" width="9.08" height="14.88"/></svg>