<svg id="svg" version="1.1" xmlns="http://www.w3.org/2000/svg" xmlns:xlink="http://www.w3.org/1999/xlink" width="400" height="400" viewBox="0, 0, 400,400"><g id="svgg"><path id="path0" d="M155.700 36.664 C 155.311 36.822,155.200 40.637,155.200 53.843 L 155.200 70.820 156.226 71.210 C 156.877 71.457,180.330 71.600,220.377 71.600 C 273.174 71.600,283.576 71.689,283.954 72.145 C 284.289 72.548,284.380 102.588,284.303 187.645 L 284.200 302.600 283.152 304.800 C 282.161 306.878,281.295 309.220,280.341 312.400 C 280.110 313.170,279.702 314.070,279.435 314.400 C 279.168 314.730,278.623 315.755,278.224 316.678 C 277.331 318.743,276.537 319.469,273.118 321.347 C 271.642 322.157,270.335 322.981,270.213 323.179 C 270.091 323.377,269.119 323.828,268.053 324.182 C 266.987 324.536,265.711 325.256,265.218 325.781 C 264.598 326.441,263.684 326.817,262.260 326.997 C 261.127 327.141,259.390 327.561,258.400 327.930 C 255.666 328.948,144.899 328.961,141.800 327.943 C 140.700 327.582,138.958 327.168,137.930 327.023 C 136.757 326.858,135.509 326.322,134.582 325.585 C 133.769 324.940,132.527 324.252,131.821 324.057 C 131.115 323.862,129.652 323.085,128.569 322.331 C 127.486 321.577,126.028 320.728,125.329 320.443 C 123.146 319.556,121.035 316.056,118.885 309.763 C 118.215 307.803,117.383 305.643,117.035 304.961 C 115.724 302.394,115.600 299.504,115.595 271.445 C 115.592 256.020,115.481 242.995,115.348 242.500 L 115.107 241.600 92.633 241.600 C 75.687 241.600,70.042 241.718,69.680 242.080 C 68.751 243.009,69.039 296.984,70.007 303.600 C 70.442 306.570,70.798 309.861,70.799 310.913 C 70.800 311.965,71.044 313.410,71.343 314.125 C 71.642 314.840,72.019 316.486,72.181 317.784 C 72.343 319.082,72.729 320.530,73.039 321.003 C 73.349 321.476,73.873 322.773,74.203 323.884 C 74.533 324.995,75.077 326.132,75.412 326.410 C 76.395 327.226,78.370 330.336,78.653 331.514 C 79.091 333.338,80.269 335.309,82.077 337.244 C 83.025 338.258,84.539 339.971,85.443 341.051 C 86.346 342.132,87.935 343.452,88.973 343.986 C 90.012 344.520,91.252 345.441,91.731 346.031 C 92.209 346.622,93.043 347.661,93.585 348.340 C 94.126 349.018,95.116 349.692,95.785 349.836 C 97.596 350.226,99.663 351.396,100.891 352.727 C 101.491 353.377,102.481 354.027,103.091 354.171 C 103.701 354.315,105.010 354.812,106.000 355.275 C 109.458 356.891,110.211 357.169,111.800 357.417 C 112.680 357.554,114.210 357.906,115.200 358.198 C 116.190 358.490,117.810 358.843,118.800 358.983 C 119.790 359.122,121.758 359.800,123.174 360.488 C 125.243 361.493,126.656 361.837,130.374 362.237 C 132.918 362.510,135.970 362.929,137.155 363.167 C 140.017 363.742,260.682 363.759,263.000 363.185 C 263.880 362.967,266.867 362.539,269.637 362.235 C 273.810 361.777,275.080 361.473,277.037 360.461 C 278.337 359.790,280.390 359.113,281.600 358.957 C 282.810 358.800,284.340 358.454,285.000 358.186 C 285.660 357.918,287.058 357.575,288.107 357.424 C 289.905 357.165,292.548 356.220,294.800 355.031 C 295.350 354.741,296.481 354.284,297.314 354.016 C 298.147 353.748,299.117 353.088,299.470 352.549 C 300.076 351.624,302.165 350.460,304.400 349.800 C 305.711 349.414,306.690 348.536,307.853 346.706 C 308.422 345.811,309.566 344.825,310.709 344.246 C 311.758 343.715,313.422 342.385,314.408 341.292 C 319.343 335.818,320.286 334.551,321.157 332.222 C 321.938 330.135,322.775 328.735,324.900 325.961 C 325.505 325.171,326.000 324.179,326.000 323.756 C 326.000 323.334,326.355 322.326,326.789 321.517 C 327.223 320.707,327.770 318.839,328.006 317.365 C 328.241 315.890,328.606 314.362,328.817 313.968 C 329.028 313.575,329.200 312.529,329.200 311.646 C 329.200 310.762,329.560 307.542,330.001 304.492 C 330.790 299.022,330.800 297.140,330.701 167.773 L 330.600 36.600 243.400 36.531 C 195.440 36.493,155.975 36.553,155.700 36.664 " stroke="none" fill="#060504" fill-rule="evenodd"></path><path id="path1" d="M0.000 200.000 L 0.000 400.000 200.000 400.000 L 400.000 400.000 400.000 200.000 L 400.000 0.000 200.000 0.000 L 0.000 0.000 0.000 200.000 M332.084 34.893 C 333.274 36.439,333.182 304.261,331.990 309.200 C 330.605 314.935,330.400 315.968,330.400 317.201 C 330.400 317.856,330.040 319.338,329.600 320.496 C 329.160 321.653,328.794 322.870,328.787 323.200 C 328.779 323.530,328.425 324.520,328.000 325.400 C 327.575 326.280,327.221 327.295,327.214 327.657 C 327.206 328.018,326.750 328.426,326.200 328.564 C 325.650 328.702,325.200 328.984,325.200 329.190 C 325.200 329.396,324.680 330.447,324.044 331.525 C 323.409 332.602,322.769 334.032,322.622 334.701 C 322.475 335.370,322.005 336.234,321.577 336.621 C 321.150 337.007,320.800 337.460,320.800 337.626 C 320.800 338.137,318.679 341.200,318.324 341.200 C 318.141 341.200,316.868 342.276,315.495 343.591 C 314.123 344.906,312.749 345.986,312.443 345.991 C 311.932 345.999,311.177 346.712,308.986 349.255 C 307.825 350.603,306.067 351.777,303.659 352.813 C 302.509 353.308,301.384 354.057,301.159 354.478 C 300.617 355.490,298.433 356.797,297.280 356.799 C 296.774 356.799,295.784 357.099,295.080 357.463 C 294.376 357.828,293.260 358.263,292.600 358.429 C 289.069 359.317,286.599 360.067,286.223 360.366 C 285.990 360.550,284.742 360.829,283.448 360.986 C 281.787 361.187,280.847 361.533,280.248 362.165 C 279.150 363.323,278.424 363.575,274.800 364.051 C 259.500 366.064,254.773 366.200,200.200 366.200 C 144.913 366.200,140.976 366.085,125.600 364.029 C 121.221 363.443,120.317 363.169,120.106 362.363 C 119.971 361.845,119.275 361.518,117.659 361.213 C 116.416 360.978,114.320 360.449,113.000 360.038 C 111.680 359.626,109.790 359.070,108.800 358.803 C 107.810 358.536,106.260 357.976,105.356 357.558 C 104.452 357.141,103.261 356.800,102.710 356.800 C 101.681 356.800,99.904 355.635,98.746 354.201 C 98.387 353.756,97.217 353.074,96.146 352.687 C 94.339 352.034,89.995 348.625,89.998 347.864 C 90.001 347.392,88.304 346.029,87.694 346.013 C 87.263 346.002,85.955 344.886,82.766 341.811 C 82.418 341.475,81.933 341.200,81.688 341.200 C 81.252 341.200,80.621 340.236,79.429 337.749 C 79.100 337.060,78.553 336.391,78.215 336.261 C 77.853 336.122,77.600 335.537,77.600 334.836 C 77.600 334.182,77.402 333.525,77.159 333.375 C 76.917 333.225,76.451 332.539,76.124 331.851 C 74.875 329.221,74.606 328.840,73.716 328.435 C 73.212 328.205,72.800 327.792,72.800 327.516 C 72.800 327.241,72.452 326.112,72.027 325.008 C 70.777 321.763,69.690 317.629,69.185 314.200 C 68.925 312.440,68.372 309.666,67.956 308.036 C 67.245 305.250,67.200 303.143,67.200 272.952 L 67.200 240.831 68.075 240.016 C 69.421 238.762,115.436 238.737,117.489 239.989 C 119.274 241.077,119.177 239.355,119.324 272.600 L 119.457 302.600 120.491 306.827 C 121.477 310.859,121.844 311.796,123.890 315.512 C 125.040 317.601,129.831 320.842,133.604 322.084 C 135.288 322.638,136.478 323.269,136.615 323.680 C 136.879 324.474,137.371 324.657,140.600 325.163 C 141.920 325.370,144.350 325.778,146.000 326.070 C 150.250 326.821,250.099 326.850,254.000 326.101 C 255.430 325.826,257.950 325.416,259.600 325.190 C 261.935 324.870,262.777 324.572,263.400 323.845 C 263.840 323.332,265.460 322.481,267.000 321.956 C 268.540 321.430,269.980 320.863,270.200 320.695 C 270.420 320.528,271.300 319.853,272.155 319.195 C 273.010 318.538,273.865 318.000,274.055 318.000 C 274.601 318.000,276.000 316.456,276.000 315.854 C 276.000 315.554,276.321 314.879,276.714 314.354 C 277.882 312.794,279.122 309.911,279.360 308.200 C 279.483 307.320,279.802 305.790,280.069 304.800 C 280.633 302.706,281.237 74.497,280.680 73.800 C 280.470 73.537,258.878 73.366,217.712 73.301 C 162.330 73.214,154.955 73.132,154.132 72.592 L 153.200 71.982 153.209 53.891 C 153.219 34.054,153.196 34.244,155.600 33.931 C 156.150 33.859,195.927 33.842,243.993 33.893 L 331.386 33.986 332.084 34.893 " stroke="none" fill="#bc8b44" fill-rule="evenodd"></path><path id="path2" d="M154.582 35.382 L 153.600 36.364 153.600 53.782 C 153.600 70.667,153.624 71.224,154.400 72.000 C 155.193 72.793,155.733 72.800,218.151 72.800 C 270.856 72.800,281.176 72.889,281.555 73.346 C 282.315 74.261,282.169 296.237,281.407 299.400 C 281.089 300.720,280.818 302.700,280.805 303.800 C 280.793 304.900,280.426 306.585,279.991 307.544 C 279.556 308.503,279.218 309.853,279.241 310.544 L 279.282 311.800 279.571 310.600 C 279.731 309.940,280.061 309.027,280.306 308.571 C 280.551 308.116,280.968 306.496,281.232 304.971 C 281.496 303.447,282.002 301.480,282.356 300.600 C 283.148 298.633,283.577 74.651,282.791 73.184 C 282.377 72.410,281.531 72.400,219.062 72.400 C 165.017 72.400,155.639 72.317,154.976 71.832 C 153.984 71.107,153.740 36.900,154.720 35.920 C 155.490 35.150,330.510 35.150,331.280 35.920 C 331.705 36.345,331.800 61.039,331.800 170.520 L 331.800 304.600 330.900 307.626 C 330.405 309.290,330.000 311.462,330.000 312.453 C 330.000 313.444,329.719 315.200,329.376 316.356 C 329.033 317.511,328.825 318.759,328.913 319.128 C 329.226 320.435,330.018 317.559,330.369 313.841 C 330.558 311.838,331.047 309.390,331.456 308.400 C 332.176 306.659,332.204 302.156,332.307 171.563 L 332.415 36.527 331.578 35.463 L 330.742 34.400 243.153 34.400 L 155.564 34.400 154.582 35.382 M68.582 240.582 L 67.600 241.564 67.609 270.082 C 67.619 299.127,67.883 306.932,68.935 309.281 C 69.260 310.006,69.639 312.105,69.776 313.944 C 69.914 315.783,70.290 317.920,70.613 318.693 C 70.936 319.466,71.200 320.488,71.200 320.964 C 71.200 321.441,71.540 322.497,71.955 323.311 C 72.370 324.125,72.822 325.391,72.959 326.124 C 73.115 326.952,73.662 327.791,74.404 328.340 C 75.061 328.826,75.860 329.848,76.179 330.612 C 76.670 331.787,77.600 332.539,77.600 331.762 C 77.600 331.389,75.986 329.151,74.526 327.499 C 73.797 326.673,73.199 325.593,73.198 325.099 C 73.196 324.604,72.934 323.699,72.614 323.086 C 71.776 321.479,70.000 313.834,70.000 311.832 C 70.000 310.894,69.692 309.244,69.314 308.164 C 68.448 305.680,67.993 241.972,68.835 240.957 C 69.726 239.884,115.256 240.157,116.238 241.242 C 116.968 242.049,117.008 243.277,117.200 270.942 C 117.310 286.814,117.537 300.011,117.704 300.268 C 117.871 300.525,118.347 302.325,118.762 304.268 C 119.733 308.814,120.756 311.610,120.782 309.789 C 120.792 309.123,120.543 308.211,120.228 307.761 C 119.913 307.312,119.536 305.787,119.389 304.372 C 119.242 302.958,118.869 300.291,118.561 298.448 C 118.119 295.807,118.000 289.451,118.000 268.521 C 118.000 251.952,117.853 241.672,117.608 241.216 C 116.791 239.689,115.384 239.600,92.122 239.600 L 69.564 239.600 68.582 240.582 M120.812 311.930 C 120.734 315.265,128.635 322.303,133.653 323.368 C 134.233 323.491,135.258 324.107,135.932 324.737 C 136.896 325.637,137.674 325.936,139.577 326.134 C 140.907 326.273,142.648 326.660,143.446 326.994 C 144.245 327.327,145.821 327.584,146.949 327.564 L 149.000 327.528 146.265 326.799 C 144.760 326.398,142.420 325.944,141.065 325.789 C 138.383 325.484,137.587 325.170,135.869 323.741 C 135.247 323.223,134.347 322.799,133.869 322.798 C 132.750 322.796,129.640 321.216,127.645 319.636 C 126.787 318.956,125.883 318.400,125.637 318.400 C 125.390 318.400,124.835 317.815,124.404 317.100 C 123.972 316.385,123.430 315.530,123.199 315.200 C 122.968 314.870,122.340 313.880,121.802 313.000 C 121.265 312.120,120.819 311.639,120.812 311.930 M278.275 312.814 C 277.904 313.344,277.600 313.909,277.600 314.069 C 277.600 316.244,269.226 322.702,266.314 322.773 C 265.674 322.789,264.726 323.291,264.006 323.994 C 262.674 325.297,262.725 325.280,257.186 326.158 C 252.266 326.937,250.597 327.538,253.251 327.575 C 254.269 327.589,255.755 327.327,256.554 326.994 C 257.352 326.660,259.129 326.274,260.502 326.135 C 262.578 325.925,263.253 325.656,264.501 324.541 C 265.327 323.803,266.407 323.194,266.901 323.187 C 268.268 323.167,275.845 318.606,276.188 317.596 C 276.301 317.264,277.031 316.024,277.811 314.840 C 279.194 312.739,279.616 310.900,278.275 312.814 M328.460 320.611 C 328.427 321.057,328.145 321.786,327.833 322.231 C 327.521 322.677,327.140 323.752,326.986 324.620 C 326.820 325.555,326.182 326.772,325.424 327.600 C 323.723 329.459,322.699 331.097,322.173 332.800 C 321.935 333.570,321.214 334.991,320.570 335.957 C 319.927 336.924,319.184 338.088,318.919 338.546 C 318.655 339.003,317.665 340.070,316.719 340.917 C 315.774 341.764,314.360 343.049,313.577 343.773 C 312.795 344.497,311.715 345.319,311.177 345.600 C 310.640 345.882,309.390 346.976,308.400 348.032 C 306.740 349.803,303.265 352.000,302.124 352.000 C 301.858 352.000,301.169 352.618,300.592 353.374 C 299.958 354.206,299.042 354.859,298.272 355.028 C 297.572 355.181,296.373 355.643,295.606 356.053 C 294.839 356.464,293.905 356.800,293.530 356.800 C 293.154 356.800,292.738 356.977,292.604 357.194 C 292.470 357.410,291.784 357.754,291.080 357.958 C 289.935 358.289,289.906 358.332,290.800 358.365 C 291.350 358.385,292.520 358.059,293.400 357.639 C 294.280 357.219,296.080 356.463,297.400 355.959 C 298.720 355.455,300.395 354.465,301.123 353.759 C 301.850 353.053,302.880 352.366,303.412 352.233 C 305.266 351.767,308.611 349.271,309.789 347.473 C 310.189 346.862,311.121 346.110,311.859 345.801 C 312.596 345.493,313.200 345.052,313.200 344.820 C 313.200 344.589,313.458 344.400,313.773 344.400 C 314.088 344.400,314.460 344.040,314.600 343.600 C 314.740 343.160,315.103 342.800,315.407 342.800 C 315.711 342.800,316.104 342.566,316.280 342.280 C 316.456 341.994,317.185 341.352,317.900 340.853 C 318.615 340.354,319.200 339.701,319.200 339.401 C 319.200 339.102,319.425 338.619,319.701 338.329 C 320.710 337.263,322.400 334.398,322.400 333.753 C 322.400 332.837,324.650 329.261,326.048 327.955 C 326.733 327.315,327.200 326.467,327.200 325.862 C 327.200 325.303,327.573 324.214,328.028 323.442 C 328.529 322.594,328.790 321.594,328.688 320.919 C 328.582 320.213,328.498 320.099,328.460 320.611 M77.654 333.246 C 77.625 333.821,77.960 334.750,78.400 335.309 C 78.840 335.869,79.200 336.495,79.200 336.701 C 79.200 336.907,79.544 337.387,79.964 337.767 C 80.384 338.148,80.837 338.892,80.970 339.422 C 81.103 339.952,81.704 340.647,82.306 340.968 C 82.908 341.288,84.456 342.551,85.746 343.775 C 87.036 344.999,88.319 346.000,88.597 346.000 C 88.876 346.000,89.759 346.800,90.560 347.777 C 92.156 349.725,95.046 351.846,96.654 352.249 C 97.218 352.391,98.253 353.079,98.952 353.779 C 99.652 354.478,101.298 355.461,102.612 355.963 C 103.925 356.465,105.720 357.219,106.600 357.639 C 107.480 358.059,108.650 358.381,109.200 358.355 C 110.029 358.315,110.063 358.273,109.400 358.111 C 108.960 358.002,108.420 357.774,108.200 357.602 C 107.665 357.185,102.884 355.315,101.486 354.976 C 100.840 354.820,100.129 354.236,99.793 353.586 C 99.434 352.892,98.654 352.282,97.740 351.980 C 94.914 351.048,90.400 347.588,90.400 346.355 C 90.400 346.203,89.905 345.905,89.300 345.694 C 86.970 344.880,79.200 336.852,79.200 335.259 C 79.200 335.060,78.941 334.683,78.624 334.420 C 78.307 334.157,77.972 333.550,77.878 333.071 C 77.733 332.322,77.701 332.347,77.654 333.246 M112.485 359.056 C 112.846 359.417,114.450 359.960,116.050 360.262 C 117.650 360.565,119.397 361.125,119.933 361.506 C 121.966 362.956,122.669 363.188,125.039 363.194 C 126.472 363.198,128.011 363.467,128.774 363.847 C 133.200 366.055,267.255 366.047,271.526 363.838 C 272.209 363.485,273.725 363.200,274.920 363.200 C 277.235 363.200,279.600 362.563,279.600 361.940 C 279.600 361.398,281.858 360.548,284.195 360.211 C 286.512 359.876,289.008 358.728,287.924 358.495 C 287.552 358.416,286.801 358.643,286.255 359.001 C 285.709 359.359,284.213 359.756,282.931 359.885 C 281.166 360.061,280.289 360.388,279.317 361.232 C 278.447 361.987,277.416 362.419,276.117 362.571 C 274.265 362.789,271.880 363.168,266.400 364.115 C 262.778 364.741,137.311 364.748,133.600 364.123 C 132.170 363.882,130.010 363.485,128.800 363.242 C 127.590 362.998,125.602 362.701,124.381 362.581 C 122.728 362.418,121.825 362.075,120.840 361.234 C 119.836 360.377,118.943 360.045,117.131 359.856 C 115.818 359.719,114.357 359.335,113.883 359.003 C 112.642 358.134,111.602 358.173,112.485 359.056 " stroke="none" fill="#a47434" fill-rule="evenodd"></path><path id="path3" d="M155.600 33.931 C 153.196 34.244,153.219 34.054,153.209 53.891 L 153.200 71.982 154.132 72.592 C 154.955 73.132,162.330 73.214,217.712 73.301 C 258.878 73.366,280.470 73.537,280.680 73.800 C 281.194 74.442,280.638 302.692,280.118 304.600 C 279.878 305.480,279.572 306.830,279.437 307.600 L 279.191 309.000 279.985 307.400 C 280.439 306.484,280.790 304.944,280.804 303.800 C 280.817 302.700,281.089 300.720,281.407 299.400 C 282.169 296.237,282.315 74.261,281.555 73.346 C 281.176 72.889,270.856 72.800,218.151 72.800 C 155.733 72.800,155.193 72.793,154.400 72.000 C 153.624 71.224,153.600 70.667,153.600 53.782 L 153.600 36.364 154.582 35.382 L 155.564 34.400 243.153 34.400 L 330.742 34.400 331.578 35.463 L 332.415 36.527 332.307 171.563 C 332.203 303.159,332.181 306.646,331.441 308.400 C 331.023 309.390,330.627 311.370,330.562 312.800 C 330.428 315.692,330.539 315.422,331.956 309.400 L 332.803 305.800 332.792 170.800 C 332.783 42.989,332.745 35.752,332.084 34.893 L 331.386 33.986 243.993 33.893 C 195.927 33.842,156.150 33.859,155.600 33.931 M68.075 240.016 L 67.200 240.831 67.200 272.952 C 67.200 303.157,67.245 305.249,67.957 308.036 C 68.374 309.666,69.010 312.862,69.372 315.138 C 70.028 319.273,71.099 322.737,71.167 320.949 C 71.185 320.481,70.936 319.466,70.613 318.693 C 70.290 317.920,69.914 315.783,69.776 313.944 C 69.639 312.105,69.260 310.006,68.935 309.281 C 67.883 306.932,67.619 299.127,67.609 270.082 L 67.600 241.564 68.582 240.582 L 69.564 239.600 92.122 239.600 C 115.384 239.600,116.791 239.689,117.608 241.216 C 117.853 241.672,118.000 251.952,118.000 268.521 C 118.000 289.451,118.119 295.807,118.561 298.448 C 118.869 300.291,119.242 302.958,119.389 304.372 C 119.536 305.787,119.913 307.312,120.228 307.761 C 120.945 308.785,120.931 308.439,120.125 305.200 C 119.565 302.950,119.459 298.563,119.335 272.600 C 119.176 239.351,119.274 241.077,117.489 239.989 C 115.436 238.737,69.421 238.762,68.075 240.016 M120.813 309.929 C 120.802 311.067,122.410 314.581,123.225 315.200 C 123.370 315.310,123.793 315.994,124.165 316.721 C 124.537 317.447,125.147 318.152,125.521 318.287 C 125.894 318.422,126.876 319.059,127.702 319.702 C 129.678 321.239,132.779 322.796,133.869 322.798 C 134.347 322.799,135.247 323.223,135.869 323.741 C 137.568 325.154,138.372 325.473,141.000 325.779 C 142.320 325.933,144.780 326.406,146.467 326.829 C 150.540 327.853,249.519 328.041,252.845 327.031 C 253.859 326.723,256.109 326.270,257.845 326.023 C 262.468 325.366,262.671 325.299,264.006 323.994 C 264.752 323.265,265.650 322.799,266.314 322.797 C 266.911 322.796,267.940 322.437,268.600 322.000 C 269.260 321.563,269.591 321.204,269.336 321.203 C 268.212 321.196,264.127 323.025,263.400 323.860 C 262.784 324.567,261.909 324.873,259.600 325.190 C 257.950 325.416,255.430 325.826,254.000 326.101 C 250.099 326.850,150.250 326.821,146.000 326.070 C 144.350 325.778,141.920 325.370,140.600 325.163 C 137.371 324.657,136.879 324.474,136.615 323.680 C 136.478 323.269,135.288 322.638,133.604 322.084 C 130.118 320.937,125.013 317.581,124.145 315.866 C 123.792 315.170,123.271 314.330,122.987 314.000 C 122.702 313.670,122.100 312.320,121.648 311.000 C 120.925 308.886,120.825 308.758,120.813 309.929 M278.207 311.800 C 277.791 312.680,277.125 313.829,276.726 314.354 C 276.327 314.879,276.000 315.578,276.000 315.908 C 276.000 316.302,276.274 316.159,276.800 315.491 C 277.240 314.931,277.600 314.301,277.600 314.091 C 277.600 313.880,277.973 313.233,278.429 312.654 C 278.885 312.074,279.192 311.285,279.111 310.900 C 279.007 310.407,278.740 310.672,278.207 311.800 M330.064 316.540 C 330.029 317.166,329.716 318.278,329.368 319.010 C 329.021 319.742,328.801 320.760,328.880 321.271 C 329.108 322.752,330.486 318.302,330.291 316.717 C 330.139 315.487,330.124 315.475,330.064 316.540 M274.945 317.400 C 274.818 317.730,274.488 318.000,274.212 318.000 C 273.936 318.000,273.045 318.528,272.233 319.174 C 271.420 319.820,270.540 320.425,270.278 320.519 C 270.015 320.613,269.921 320.821,270.069 320.981 C 270.217 321.141,271.173 320.671,272.193 319.936 C 275.125 317.824,276.241 316.826,275.687 316.813 C 275.406 316.806,275.071 317.070,274.945 317.400 M71.209 322.615 C 71.214 323.047,71.574 324.185,72.009 325.144 C 72.444 326.103,72.800 327.142,72.800 327.452 C 72.800 327.763,73.212 328.205,73.716 328.435 C 74.606 328.840,74.875 329.221,76.124 331.851 C 76.879 333.442,77.600 333.916,77.600 332.824 C 77.600 332.371,77.411 332.000,77.180 332.000 C 76.948 332.000,76.498 331.375,76.179 330.612 C 75.860 329.848,75.061 328.826,74.404 328.340 C 73.662 327.791,73.115 326.952,72.959 326.124 C 72.638 324.409,71.197 321.521,71.209 322.615 M327.900 323.635 C 327.515 324.311,327.200 325.318,327.200 325.872 C 327.200 326.466,326.727 327.320,326.048 327.955 C 324.650 329.261,322.400 332.837,322.400 333.753 C 322.400 334.398,320.710 337.263,319.701 338.329 C 319.425 338.619,319.200 339.102,319.200 339.401 C 319.200 339.701,318.615 340.354,317.900 340.853 C 317.185 341.352,316.456 341.994,316.280 342.280 C 316.104 342.566,315.711 342.800,315.407 342.800 C 315.103 342.800,314.740 343.160,314.600 343.600 C 314.460 344.040,314.178 344.400,313.973 344.400 C 313.768 344.400,313.240 344.760,312.800 345.200 C 310.796 347.204,313.261 345.733,315.495 343.591 C 316.868 342.276,318.141 341.200,318.324 341.200 C 318.679 341.200,320.800 338.137,320.800 337.626 C 320.800 337.460,321.150 337.007,321.577 336.621 C 322.005 336.234,322.475 335.370,322.622 334.701 C 322.769 334.032,323.409 332.602,324.044 331.525 C 324.680 330.447,325.200 329.396,325.200 329.190 C 325.200 328.984,325.650 328.702,326.200 328.564 C 326.750 328.426,327.200 328.053,327.200 327.735 C 327.200 327.416,327.571 326.343,328.024 325.348 C 329.015 323.172,328.919 321.843,327.900 323.635 M77.600 335.132 C 77.600 335.594,77.960 336.165,78.400 336.400 C 78.840 336.635,79.200 336.715,79.200 336.577 C 79.200 336.439,78.840 335.869,78.400 335.309 C 77.644 334.348,77.600 334.338,77.600 335.132 M79.200 337.484 C 79.200 337.708,79.529 338.321,79.932 338.846 C 80.334 339.371,80.779 340.115,80.919 340.500 C 81.060 340.885,81.390 341.200,81.654 341.200 C 81.917 341.200,82.418 341.475,82.766 341.811 C 85.914 344.847,87.255 346.000,87.640 346.000 C 88.244 346.000,83.693 341.706,82.306 340.968 C 81.704 340.647,81.103 339.952,80.970 339.422 C 80.720 338.426,79.200 336.761,79.200 337.484 M89.100 346.777 C 89.595 347.190,89.999 347.679,89.998 347.864 C 89.995 348.625,94.339 352.034,96.146 352.687 C 97.217 353.074,98.387 353.756,98.746 354.201 C 99.921 355.657,101.687 356.800,102.760 356.800 C 103.338 356.800,104.501 357.169,105.343 357.621 C 106.186 358.072,107.083 358.367,107.337 358.275 C 107.821 358.102,106.623 357.518,102.612 355.971 C 101.298 355.465,99.652 354.478,98.952 353.779 C 98.253 353.079,97.218 352.391,96.654 352.249 C 95.046 351.846,92.156 349.725,90.560 347.777 C 89.759 346.800,88.900 346.006,88.652 346.013 C 88.403 346.021,88.605 346.364,89.100 346.777 M309.937 347.300 C 308.483 349.359,305.314 351.755,303.412 352.233 C 302.880 352.366,301.850 353.053,301.123 353.759 C 300.395 354.465,298.720 355.458,297.400 355.967 C 293.367 357.521,292.179 358.102,292.670 358.278 C 292.929 358.371,293.867 358.076,294.754 357.623 C 295.642 357.171,296.780 356.799,297.284 356.799 C 298.434 356.797,300.617 355.489,301.159 354.478 C 301.384 354.057,302.509 353.308,303.659 352.813 C 306.076 351.773,307.831 350.599,308.986 349.248 C 309.434 348.725,310.205 347.862,310.700 347.330 C 311.685 346.272,311.793 346.000,311.227 346.000 C 311.022 346.000,310.442 346.585,309.937 347.300 M109.000 358.770 C 110.711 359.447,115.508 360.797,117.659 361.208 C 119.272 361.516,119.971 361.846,120.106 362.363 C 120.355 363.313,124.134 364.102,130.800 364.595 L 133.000 364.758 130.859 364.418 C 129.681 364.230,128.520 363.880,128.279 363.639 C 128.037 363.397,126.661 363.197,125.220 363.194 C 122.672 363.188,121.986 362.968,119.907 361.490 C 119.358 361.099,117.759 360.588,116.354 360.354 C 114.949 360.120,113.312 359.585,112.716 359.164 C 112.033 358.683,110.997 358.410,109.916 358.427 C 108.649 358.447,108.409 358.537,109.000 358.770 M287.440 359.200 C 286.802 359.608,285.362 360.065,284.240 360.215 C 281.896 360.530,279.600 361.383,279.600 361.940 C 279.600 362.566,277.235 363.199,274.840 363.214 C 273.608 363.222,272.150 363.486,271.600 363.800 C 271.050 364.114,269.790 364.405,268.800 364.446 C 267.390 364.504,267.260 364.559,268.200 364.701 C 269.303 364.867,271.443 364.604,277.143 363.601 C 278.564 363.351,279.591 362.895,280.191 362.247 C 280.863 361.522,281.702 361.197,283.448 360.986 C 284.742 360.829,285.990 360.550,286.223 360.366 C 286.456 360.181,287.698 359.756,288.983 359.421 C 291.870 358.669,292.202 358.391,290.167 358.429 C 289.305 358.445,288.078 358.792,287.440 359.200 M134.090 365.008 C 135.619 366.616,258.237 366.763,264.800 365.165 C 265.617 364.966,263.034 364.929,258.600 365.078 C 247.707 365.442,150.459 365.392,141.400 365.018 C 137.220 364.845,133.930 364.841,134.090 365.008 " stroke="none" fill="#b27e3c" fill-rule="evenodd"></path><path id="path4" d="M155.322 35.603 C 154.011 36.133,153.950 37.076,154.081 54.933 C 154.195 70.565,154.233 71.289,154.976 71.833 C 155.639 72.317,165.031 72.400,219.062 72.400 C 281.531 72.400,282.377 72.410,282.791 73.184 C 283.577 74.651,283.148 298.633,282.356 300.600 C 282.002 301.480,281.496 303.444,281.233 304.964 C 280.970 306.484,280.519 308.194,280.231 308.764 C 279.943 309.334,279.586 310.470,279.437 311.290 C 279.289 312.109,278.543 313.727,277.780 314.886 C 277.017 316.045,276.301 317.264,276.188 317.596 C 275.845 318.606,268.268 323.167,266.901 323.187 C 266.407 323.194,265.327 323.803,264.501 324.541 C 263.253 325.656,262.578 325.925,260.502 326.135 C 259.129 326.274,257.352 326.660,256.554 326.994 C 254.354 327.912,145.646 327.912,143.446 326.994 C 142.648 326.660,140.907 326.273,139.577 326.134 C 137.674 325.936,136.896 325.637,135.932 324.737 C 135.258 324.107,134.233 323.491,133.653 323.368 C 128.046 322.178,121.525 315.997,120.620 311.014 C 120.461 310.141,120.087 308.955,119.789 308.378 C 119.490 307.801,119.031 306.084,118.769 304.564 C 118.507 303.044,118.092 301.350,117.847 300.800 C 117.537 300.108,117.338 290.915,117.200 270.942 C 117.008 243.277,116.968 242.049,116.238 241.242 C 115.256 240.157,69.726 239.884,68.835 240.957 C 67.993 241.972,68.448 305.680,69.314 308.164 C 69.692 309.244,70.000 310.894,70.000 311.832 C 70.000 313.834,71.776 321.479,72.614 323.086 C 72.934 323.699,73.196 324.590,73.198 325.067 C 73.199 325.544,74.000 326.872,74.979 328.018 C 76.796 330.148,78.000 332.257,78.000 333.311 C 78.000 333.636,78.270 334.126,78.600 334.400 C 78.930 334.674,79.200 335.060,79.200 335.259 C 79.200 336.852,86.970 344.880,89.300 345.694 C 89.905 345.905,90.400 346.203,90.400 346.355 C 90.400 347.588,94.914 351.048,97.740 351.980 C 98.654 352.282,99.434 352.892,99.793 353.586 C 100.129 354.236,100.840 354.820,101.486 354.976 C 102.996 355.342,107.690 357.202,108.258 357.659 C 108.509 357.862,109.679 358.133,110.858 358.261 C 112.036 358.390,113.402 358.746,113.894 359.053 C 114.386 359.360,115.853 359.722,117.153 359.858 C 118.943 360.045,119.839 360.380,120.840 361.234 C 121.825 362.075,122.728 362.418,124.381 362.581 C 125.602 362.701,127.590 362.998,128.800 363.242 C 130.010 363.485,132.170 363.882,133.600 364.123 C 137.311 364.748,262.778 364.741,266.400 364.115 C 271.880 363.168,274.265 362.789,276.117 362.571 C 277.416 362.419,278.447 361.987,279.317 361.232 C 280.289 360.388,281.166 360.061,282.931 359.885 C 284.213 359.756,285.653 359.398,286.131 359.089 C 286.609 358.779,287.968 358.413,289.151 358.276 C 290.333 358.138,291.722 357.750,292.237 357.413 C 292.751 357.076,293.406 356.800,293.692 356.800 C 293.978 356.800,294.839 356.464,295.606 356.053 C 296.373 355.643,297.572 355.181,298.272 355.028 C 299.042 354.859,299.958 354.206,300.592 353.374 C 301.169 352.618,301.858 352.000,302.124 352.000 C 303.265 352.000,306.740 349.803,308.400 348.032 C 309.390 346.976,310.640 345.882,311.177 345.600 C 311.715 345.319,312.795 344.497,313.577 343.773 C 314.360 343.049,315.774 341.764,316.719 340.917 C 317.665 340.070,318.655 339.003,318.919 338.546 C 319.184 338.088,319.927 336.924,320.570 335.957 C 321.214 334.991,321.935 333.570,322.173 332.800 C 322.699 331.097,323.723 329.459,325.424 327.600 C 326.175 326.780,326.820 325.554,326.982 324.642 C 327.134 323.784,327.502 322.704,327.800 322.242 C 328.097 321.779,328.462 320.680,328.610 319.800 C 328.758 318.920,329.131 317.312,329.439 316.227 C 329.748 315.142,330.000 313.444,330.000 312.453 C 330.000 311.462,330.405 309.290,330.900 307.626 L 331.800 304.600 331.800 170.520 C 331.800 61.041,331.705 36.345,331.280 35.920 C 330.658 35.298,156.850 34.985,155.322 35.603 M330.701 167.773 C 330.800 297.140,330.790 299.022,330.001 304.492 C 329.560 307.542,329.200 310.762,329.200 311.646 C 329.200 312.529,329.028 313.575,328.817 313.968 C 328.606 314.362,328.241 315.890,328.006 317.365 C 327.770 318.839,327.223 320.707,326.789 321.517 C 326.355 322.326,326.000 323.334,326.000 323.756 C 326.000 324.179,325.505 325.171,324.900 325.961 C 322.775 328.735,321.938 330.135,321.157 332.222 C 320.286 334.551,319.343 335.818,314.408 341.292 C 313.422 342.385,311.758 343.715,310.709 344.246 C 309.566 344.825,308.422 345.811,307.853 346.706 C 306.690 348.536,305.711 349.414,304.400 349.800 C 302.165 350.460,300.076 351.624,299.470 352.549 C 299.117 353.088,298.147 353.748,297.314 354.016 C 296.481 354.284,295.350 354.741,294.800 355.031 C 292.548 356.220,289.905 357.165,288.107 357.424 C 287.058 357.575,285.660 357.918,285.000 358.186 C 284.340 358.454,282.810 358.800,281.600 358.957 C 280.390 359.113,278.337 359.790,277.037 360.461 C 275.080 361.473,273.810 361.777,269.637 362.235 C 266.867 362.539,263.880 362.967,263.000 363.185 C 260.682 363.759,140.017 363.742,137.155 363.167 C 135.970 362.929,132.918 362.510,130.374 362.237 C 126.656 361.837,125.243 361.493,123.174 360.488 C 121.758 359.800,119.790 359.122,118.800 358.983 C 117.810 358.843,116.190 358.490,115.200 358.198 C 114.210 357.906,112.680 357.554,111.800 357.417 C 110.211 357.169,109.458 356.891,106.000 355.275 C 105.010 354.812,103.701 354.315,103.091 354.171 C 102.481 354.027,101.491 353.377,100.891 352.727 C 99.663 351.396,97.596 350.226,95.785 349.836 C 95.116 349.692,94.126 349.018,93.585 348.340 C 93.043 347.661,92.209 346.622,91.731 346.031 C 91.252 345.441,90.012 344.520,88.973 343.986 C 87.935 343.452,86.346 342.132,85.443 341.051 C 84.539 339.971,83.025 338.258,82.077 337.244 C 80.269 335.309,79.091 333.338,78.653 331.514 C 78.370 330.336,76.395 327.226,75.412 326.410 C 75.077 326.132,74.533 324.995,74.203 323.884 C 73.873 322.773,73.349 321.476,73.039 321.003 C 72.729 320.530,72.343 319.082,72.181 317.784 C 72.019 316.486,71.642 314.840,71.343 314.125 C 71.044 313.410,70.800 311.965,70.799 310.913 C 70.798 309.861,70.442 306.570,70.007 303.600 C 69.039 296.984,68.751 243.009,69.680 242.080 C 70.042 241.718,75.687 241.600,92.633 241.600 L 115.107 241.600 115.348 242.500 C 115.481 242.995,115.592 256.020,115.595 271.445 C 115.600 299.504,115.724 302.394,117.035 304.961 C 117.383 305.643,118.215 307.803,118.885 309.763 C 121.035 316.056,123.146 319.556,125.329 320.443 C 126.028 320.728,127.486 321.577,128.569 322.331 C 129.652 323.085,131.115 323.862,131.821 324.057 C 132.527 324.252,133.769 324.940,134.582 325.585 C 135.509 326.322,136.757 326.858,137.930 327.023 C 138.958 327.168,140.700 327.582,141.800 327.943 C 144.899 328.961,255.666 328.948,258.400 327.930 C 259.390 327.561,261.127 327.141,262.260 326.997 C 263.684 326.817,264.598 326.441,265.218 325.781 C 265.711 325.256,266.987 324.536,268.053 324.182 C 269.119 323.828,270.091 323.377,270.213 323.179 C 270.335 322.981,271.642 322.157,273.118 321.347 C 276.537 319.469,277.331 318.743,278.224 316.678 C 278.623 315.755,279.168 314.730,279.435 314.400 C 279.702 314.070,280.110 313.170,280.341 312.400 C 281.295 309.220,282.161 306.878,283.152 304.800 L 284.200 302.600 284.303 187.645 C 284.380 102.588,284.289 72.548,283.954 72.145 C 283.576 71.689,273.174 71.600,220.377 71.600 C 180.330 71.600,156.877 71.457,156.226 71.210 L 155.200 70.820 155.200 53.843 C 155.200 40.637,155.311 36.822,155.700 36.664 C 155.975 36.553,195.440 36.493,243.400 36.531 L 330.600 36.600 330.701 167.773 " stroke="none" fill="#79532a" fill-rule="evenodd"></path></g></svg>