<svg width="256" height="256" viewBox="0 0 256 256" fill="none" xmlns="http://www.w3.org/2000/svg">
<g clip-path="url(#clip0_288_1763)">
<circle cx="128" cy="128" r="128" fill="#26994B"/>
<path d="M117.023 0.251725C94.1355 3.014 75.9984 9.22913 59.416 20.1056C8.45947 53.1666 -12.5277 114.368 7.50944 171.513C13.7279 189.209 23.3146 203.97 37.9106 218.644C57.6022 238.326 79.7985 249.806 107.09 254.554C115.814 256.021 119.786 256.194 132.137 255.849C148.201 255.331 154.679 254.209 168.756 249.547C204.771 237.635 233.1 210.616 247.696 174.448C250.46 167.456 254.001 153.817 255.296 144.926C256.764 134.481 255.814 111.088 253.569 101.161C241.737 50.1454 202.699 11.9914 152.174 2.23711C143.796 0.59701 123.414 -0.525166 117.023 0.251725ZM156.061 5.25835C224.981 21.4004 267.215 90.0258 250.373 158.478C241.564 194.302 215.826 225.895 182.316 241.778C142.587 260.769 95.6037 257.575 59.2432 233.492C30.9149 214.76 11.8278 186.619 4.57296 153.127C1.89559 140.524 1.89559 115.404 4.57296 103.06C10.1868 77.5955 21.069 57.6553 39.2925 39.3552C59.6751 18.8971 82.8214 7.41638 113.136 2.84136C114.604 2.66872 122.723 2.5824 131.273 2.75504C144.142 3.014 148.374 3.44561 156.061 5.25835Z" fill="black"/>
<path d="M113.136 6.29468C98.6266 8.45271 85.1533 12.5961 73.4074 18.466C16.3189 47.0383 -9.50482 113.592 13.4688 172.808C22.8828 197.065 40.5016 218.386 63.1298 232.974C74.5302 240.311 92.3218 247.044 107.091 249.72C118.318 251.706 137.837 251.706 148.806 249.807C193.544 241.779 230.25 210.272 244.328 167.974C249.51 152.35 250.46 146.221 250.373 127.921C250.373 113.419 250.114 110.398 248.128 101.939C242.255 77.0781 231.113 57.4831 212.631 39.7873C195.53 23.3863 176.27 13.2004 152.433 7.93479C146.128 6.55365 119.096 5.43147 113.136 6.29468ZM151.138 10.0065C162.624 12.3372 169.188 14.5815 179.811 19.5881C214.79 36.1618 240.096 69.3092 247.091 107.636C249.337 119.634 249.078 139.834 246.659 151.314C241.65 175.484 231.632 194.648 215.222 211.825C198.035 229.78 177.566 241.347 153.21 246.786C145.61 248.426 141.81 248.771 128.25 248.771C114.691 248.771 110.891 248.512 103.204 246.786C69.3482 239.189 41.7108 219.422 24.1783 190.073C12.0005 169.614 6.55943 147.861 7.59583 123.26C8.28677 104.873 11.7414 91.7527 20.2918 74.4021C37.6515 39.2694 72.2847 14.4089 111.495 8.798C122.809 7.15789 139.91 7.67582 151.138 10.0065Z" fill="black"/>
<path d="M130.842 28.9969C130.842 29.5149 131.273 29.9465 131.792 29.9465C133.087 29.9465 132.31 38.5786 130.928 39.4418C130.323 39.7871 131.619 40.305 133.951 40.6503C139.997 41.4272 140.342 41.3409 140.342 39.0102C140.342 37.8017 139.997 36.8522 139.478 36.8522C139.046 36.8522 138.615 37.4564 138.615 38.147C138.615 38.9239 137.837 39.4418 136.455 39.4418C134.469 39.4418 134.383 39.2692 134.901 34.8668C135.16 32.4498 135.851 30.1191 136.369 29.7738C136.887 29.3422 136.542 29.0833 135.419 29.0833C134.383 29.0833 133.001 28.8243 132.223 28.5653C131.446 28.3064 130.842 28.479 130.842 28.9969Z" fill="black"/>
<path d="M108.991 31.5002C107.004 33.6582 107.177 38.2332 109.25 40.3049C114.432 45.4842 121.687 37.9742 117.368 31.8454C115.727 29.4284 110.977 29.2558 108.991 31.5002ZM114.864 32.8813C117.8 37.2837 114.259 43.0672 111.236 38.9238C109.768 36.9384 109.768 31.9318 111.236 31.4138C113.136 30.6369 113.482 30.8096 114.864 32.8813Z" fill="black"/>
<path d="M153.815 32.4498C155.11 33.8309 153.642 40.305 151.742 41.7725C150.101 43.1536 150.36 43.3262 154.074 44.1031C156.32 44.5347 156.751 44.3621 156.06 43.4989C154.851 42.0314 156.665 34.2625 158.22 34.2625C158.824 34.2625 159.342 33.8309 159.342 33.3993C159.342 32.8814 158.565 32.5361 157.701 32.5361C156.751 32.5361 155.283 32.2771 154.419 32.0182C153.21 31.5866 153.124 31.6729 153.815 32.4498Z" fill="black"/>
<path d="M89.3852 35.7299C84.9805 37.37 83.5123 43.0672 86.7942 46.3474C90.2489 49.8002 96.381 47.5559 96.0355 42.8945C95.8627 39.9596 95.7764 39.9596 92.8399 41.5997C91.1989 42.5492 91.0262 42.8082 92.2353 42.8945C93.7899 42.8945 94.3081 45.0526 92.8399 45.9158C90.2489 47.4696 85.8442 42.204 87.1397 39.0101C87.6579 37.5426 90.3353 37.2836 91.7171 38.6648C92.9263 39.8733 93.8763 38.4058 93.1854 36.5068C92.6672 35.1256 91.6308 34.8667 89.3852 35.7299Z" fill="black"/>
<path d="M170.57 39.4419C169.793 40.823 169.879 41.1683 171.002 41.1683C171.693 41.1683 172.297 40.823 172.297 40.3051C172.297 39.8735 172.902 39.7009 173.593 39.9598C174.629 40.3914 174.457 41.1683 172.643 44.7075C171.52 47.1245 170.138 48.7646 169.706 48.5056C169.188 48.2467 168.843 48.333 168.843 48.7646C168.843 49.1962 169.793 49.9731 171.002 50.491C173.679 51.6995 175.925 51.8721 174.198 50.75C173.247 50.232 173.42 49.2825 174.975 46.0023C176.875 42.2042 179.034 40.9957 178.516 44.1032C178.17 46.0023 179.811 45.8297 180.848 43.9306C181.539 42.5495 181.021 42.0315 176.961 40.0461C174.37 38.7513 172.125 37.7155 171.866 37.7155C171.693 37.7155 171.088 38.4924 170.57 39.4419Z" fill="black"/>
<path d="M65.2891 48.9372C64.0799 49.9731 63.7345 50.6637 64.4254 50.6637C66.0664 50.75 70.6438 57.483 70.0392 58.9505C69.3483 60.6769 69.8665 60.5043 74.2712 57.3967C78.5896 54.3755 78.5896 54.2892 76.9486 52.1311C75.6531 50.491 74.0985 51.6132 75.1349 53.3396C75.4804 53.8576 75.0485 54.7208 74.1849 55.4113C72.7166 56.4472 72.2848 56.1882 70.212 52.9943C68.8301 51.009 67.9664 48.8509 68.2255 48.2467C68.7437 46.7792 67.7073 47.0382 65.2891 48.9372Z" fill="black"/>
<path d="M192.594 50.6637C193.198 51.6995 188.189 58.26 186.462 58.6052C185.771 58.7779 186.721 60.0727 188.793 61.7128C191.557 64.1298 192.507 64.4751 193.457 63.6119C195.271 62.1444 195.098 60.7633 193.285 61.3675C192.421 61.6265 191.212 61.4538 190.521 61.1086C189.484 60.418 189.398 60.0727 190.434 58.9505C191.471 57.6557 191.644 57.6557 193.025 58.8642C193.975 59.7274 194.753 59.9001 195.098 59.3821C195.444 58.9505 194.839 58.001 193.889 57.3104C192.248 56.1019 192.162 56.1019 193.803 54.6345C195.185 53.426 195.53 53.3396 196.394 54.4618C196.998 55.1524 197.257 56.1882 196.912 56.7062C196.048 58.0873 197.862 57.742 199.071 56.2746C199.676 55.584 199.848 54.9797 199.417 54.9797C198.985 54.9797 197.43 53.7713 195.876 52.3901C193.112 49.8005 191.557 49.0236 192.594 50.6637Z" fill="black"/>
<path d="M113.913 59.7274C93.79 64.0435 75.1347 79.0634 65.4616 98.572C60.6251 108.154 59.1569 114.11 58.5523 125.763C58.2068 132.928 58.4659 136.208 60.5387 146.308C62.0933 154.163 69.9527 167.974 77.6394 176.434C86.2761 186.015 99.922 194.043 112.791 197.151C122.723 199.568 137.751 199.136 147.51 196.201C156.147 193.612 160.206 191.713 167.375 186.879C177.48 179.973 188.535 166.938 193.026 156.407C198.035 144.667 200.108 130.079 198.208 119.116C197.689 115.664 197.258 112.642 197.258 112.383C197.43 111.348 192.853 100.212 190.348 95.7234C184.648 85.1922 175.32 75.2653 165.129 68.7048C158.997 64.7341 148.806 60.677 141.724 59.3822C134.814 58.0873 120.477 58.26 113.913 59.7274ZM144.746 61.7992C153.124 63.9572 158.392 66.2879 165.302 70.9492C198.812 93.1337 207.362 137.589 184.13 168.147C178.084 176.175 177.22 177.038 171.952 181.354C164.697 187.224 160.724 189.555 152.606 192.748C132.914 200.517 109.854 198.1 92.149 186.447C65.0298 168.578 53.1975 135.604 63.5616 106.772C71.5937 84.6743 89.9035 67.7553 112.273 61.8855C120.736 59.6411 136.196 59.6411 144.746 61.7992Z" fill="black"/>
<path fill-rule="evenodd" clip-rule="evenodd" d="M99.0582 100.212C98.9719 98.7444 99.6628 98.2265 102.599 97.5359C107.695 96.2411 109.25 96.2411 109.25 97.4496C109.336 98.0538 113.482 108.671 118.577 121.015L127.818 143.459L130.669 143.718C133 143.977 133.432 144.322 133.432 146.135V148.293L121.168 148.034C107.868 147.775 105.449 146.825 111.841 144.236C113.827 143.459 115.209 142.337 115.036 141.819C114.863 141.301 114.172 139.402 113.482 137.589L112.359 134.395H103.031H93.7035L92.4943 137.244C89.7306 143.89 89.817 143.89 93.6171 143.89C96.8127 143.89 97.1582 144.063 97.1582 146.048V148.206H86.8805C78.9347 148.206 76.5165 147.947 76.171 146.998C75.8255 146.221 76.8619 145.272 79.0211 144.322C82.2167 142.855 82.4758 142.423 90.767 122.396C95.3445 111.175 99.1446 101.161 99.0582 100.212ZM109.941 128.353L106.486 119.462C105.83 117.793 105.215 116.216 104.688 114.864C103.687 112.299 103.002 110.541 102.945 110.484C102.859 110.484 101.218 114.455 99.2312 119.375L95.6902 128.353H102.859H109.941Z" fill="black"/>
<path d="M135.937 97.7086C135.16 100.989 135.764 102.025 138.442 102.284L141.206 102.543V122.742V142.855L138.183 143.89C136.11 144.581 135.16 145.444 135.16 146.566C135.16 148.12 136.024 148.207 156.233 148.207H177.221L177.825 140.006C178.171 135.517 178.171 131.46 177.912 130.942C177.652 130.511 176.098 130.079 174.457 130.079C171.607 130.079 171.52 130.252 170.052 135.258C169.275 138.107 168.152 140.438 167.634 140.524C167.116 140.524 163.661 140.869 160.034 141.128L153.297 141.819V122.742V103.665L156.32 102.197C158.306 101.248 159.343 100.126 159.343 99.0035C159.343 97.3634 158.824 97.277 147.683 97.277C141.292 97.277 136.024 97.4497 135.937 97.7086Z" fill="black"/>
<path d="M48.793 63.6121C48.793 64.13 49.3975 65.9427 50.1748 67.7555C50.9521 69.4819 52.0749 72.1579 52.5931 73.6253L53.5431 76.3013L55.2705 74.1432C56.566 72.3305 56.6524 72.0715 55.4432 72.5031C53.4568 73.28 53.1977 71.2946 55.0114 69.4819C56.566 67.9281 58.8115 68.1008 57.8615 69.7409C56.8251 71.381 58.8979 70.4314 60.798 68.446L62.698 66.3743H60.7116C59.5888 66.3743 56.8251 65.5974 54.5796 64.5616C49.8294 62.4899 48.793 62.3172 48.793 63.6121ZM54.5796 68.2734C53.975 69.9998 52.5067 69.6545 51.5567 67.5828C50.6067 65.5111 50.693 65.4248 52.7658 66.3743C53.8886 66.8923 54.7523 67.7555 54.5796 68.2734Z" fill="black"/>
<path d="M80.4895 206.646C79.6258 207.509 79.7986 210.358 80.6622 210.358C81.0941 210.358 81.6986 209.754 81.9577 208.977C82.2168 208.286 82.8214 207.855 83.2532 208.2C84.5488 208.977 80.7486 217.264 79.1076 217.264C78.3303 217.264 79.2804 218.041 81.1804 218.904C84.4624 220.371 86.7079 220.544 84.376 219.076C83.5123 218.558 83.6851 217.523 85.067 214.415C86.8807 210.444 89.1262 208.718 88.2625 212.084C87.7443 214.156 89.8171 214.501 90.5944 212.43C90.8535 211.653 91.1126 210.876 91.1126 210.703C91.1126 210.444 81.8714 206.042 81.1804 206.042C81.0941 206.042 80.7486 206.301 80.4895 206.646Z" fill="black"/>
<path d="M173.161 207.336C171.779 208.113 171.52 208.545 172.384 208.631C173.075 208.631 174.37 210.012 175.148 211.739C176.789 215.019 176.443 215.019 171.693 211.48C169.793 210.012 168.411 209.581 166.77 210.012C164.438 210.53 163.661 212.084 165.647 212.084C166.943 212.084 169.966 219.594 169.188 220.889C168.843 221.407 169.361 221.493 170.657 221.148C173.334 220.371 174.802 218.99 173.075 218.99C171.952 218.99 171.002 217.695 169.016 213.552C168.843 213.12 170.57 214.156 172.902 215.796C178.861 219.939 180.157 219.076 177.652 212.516C176.616 209.84 175.925 207.25 176.27 206.818C176.961 205.696 175.666 205.869 173.161 207.336Z" fill="black"/>
<path d="M102.686 214.846C100.786 215.71 98.8857 218.904 98.8857 221.234C98.8857 223.306 102.945 226.759 105.277 226.759C107.868 226.759 110.977 223.133 110.977 220.112C110.977 217.868 107.436 213.811 105.622 213.897C105.018 213.897 103.636 214.329 102.686 214.846ZM107.35 218.731C107.695 221.925 106.227 225.032 104.5 225.032C102.686 225.032 101.995 221.148 103.204 218.04C104.672 214.674 107.004 215.019 107.35 218.731Z" fill="black"/>
<path d="M149.238 215.019C146.733 215.451 144.66 216.141 144.66 216.487C144.66 216.918 145.006 217.263 145.351 217.263C146.733 217.263 148.115 225.291 146.992 226.672C146.128 227.708 146.301 227.795 148.115 227.363C149.324 227.018 151.742 226.5 153.556 226.241C155.974 225.809 156.752 225.291 156.406 224.428C156.061 223.738 155.888 222.702 155.888 222.184C155.888 221.666 155.111 222.097 154.161 223.133C151.915 225.464 151.051 225.55 150.447 223.392C150.188 222.097 150.533 221.58 151.829 221.407C152.779 221.234 153.729 220.63 153.988 220.026C154.247 219.249 153.729 219.076 152.174 219.421C150.533 219.853 150.015 219.594 149.583 218.213C149.238 216.832 149.583 216.4 150.706 216.4C151.57 216.4 152.433 216.918 152.692 217.436C152.951 218.213 153.383 218.299 153.988 217.695C154.42 217.177 154.592 216.228 154.247 215.537C153.815 214.501 152.951 214.329 149.238 215.019Z" fill="black"/>
<path d="M122.896 222.184C123.155 226.241 122.982 227.622 122.118 227.622C121.514 227.622 121.341 227.881 121.6 228.226C122.464 229.003 127.473 229.09 127.991 228.313C128.164 227.881 127.905 227.622 127.473 227.622C126.955 227.622 126.523 226.759 126.523 225.637C126.61 223.738 126.61 223.738 128.51 225.982C130.151 227.968 134.296 229.953 134.296 228.744C134.296 228.572 133.087 226.845 131.619 225.033C129.028 221.752 128.941 221.666 130.496 220.026C131.446 219.076 132.742 218.127 133.433 217.868C134.123 217.609 133.433 217.35 131.964 217.35C130.41 217.264 129.201 217.523 129.287 217.868C129.46 218.3 128.855 219.508 127.991 220.717L126.523 222.788V220.544C126.523 219.335 127.041 218.127 127.646 217.868C128.164 217.695 127.3 217.35 125.659 217.177L122.55 216.832L122.896 222.184Z" fill="black"/>
</g>
<defs>
<clipPath id="clip0_288_1763">
<rect width="256" height="256" fill="white"/>
</clipPath>
</defs>
</svg>
