<?xml version="1.0" standalone="no"?>
<!DOCTYPE svg PUBLIC "-//W3C//DTD SVG 20010904//EN"
 "http://www.w3.org/TR/2001/REC-SVG-20010904/DTD/svg10.dtd">
<svg version="1.0" xmlns="http://www.w3.org/2000/svg"
 width="300.000000pt" height="300.000000pt" viewBox="0 0 300.000000 300.000000"
 preserveAspectRatio="xMidYMid meet">
<metadata>
Created by potrace 1.10, written by Peter Selinger 2001-2011
</metadata>
<g transform="translate(0.000000,300.000000) scale(0.100000,-0.100000)"
fill="#000000" stroke="none">
<path d="M1370 2984 c-265 -32 -475 -104 -667 -230 -590 -383 -833 -1092 -601
-1754 72 -205 183 -376 352 -546 228 -228 485 -361 801 -416 101 -17 147 -19
290 -15 186 6 261 19 424 73 417 138 745 451 914 870 32 81 73 239 88 342 17
121 6 392 -20 507 -137 591 -589 1033 -1174 1146 -97 19 -333 32 -407 23z
m452 -58 c798 -187 1287 -982 1092 -1775 -102 -415 -400 -781 -788 -965 -460
-220 -1004 -183 -1425 96 -328 217 -549 543 -633 931 -31 146 -31 437 0 580
65 295 191 526 402 738 236 237 504 370 855 423 17 2 111 3 210 1 149 -3 198
-8 287 -29z"/>
<path d="M1325 2914 c-168 -25 -324 -73 -460 -141 -661 -331 -960 -1102 -694
-1788 109 -281 313 -528 575 -697 132 -85 338 -163 509 -194 130 -23 356 -23
483 -1 518 93 943 458 1106 948 60 181 71 252 70 464 0 168 -3 203 -26 301
-68 288 -197 515 -411 720 -198 190 -421 308 -697 369 -73 16 -386 29 -455 19z
m440 -43 c133 -27 209 -53 332 -111 405 -192 698 -576 779 -1020 26 -139 23
-373 -5 -506 -58 -280 -174 -502 -364 -701 -199 -208 -436 -342 -718 -405 -88
-19 -132 -23 -289 -23 -157 0 -201 3 -290 23 -392 88 -712 317 -915 657 -141
237 -204 489 -192 774 8 213 48 365 147 566 201 407 602 695 1056 760 131 19
329 13 459 -14z"/>
<path d="M1530 2651 c0 -6 5 -11 11 -11 15 0 6 -100 -10 -110 -7 -4 8 -10 35
-14 70 -9 74 -8 74 19 0 14 -4 25 -10 25 -5 0 -10 -7 -10 -15 0 -9 -9 -15 -25
-15 -23 0 -24 2 -18 53 3 28 11 55 17 59 6 5 2 8 -11 8 -12 0 -28 3 -37 6 -9
3 -16 1 -16 -5z"/>
<path d="M1277 2622 c-23 -25 -21 -78 3 -102 60 -60 144 27 94 98 -19 28 -74
30 -97 4z m68 -16 c34 -51 -7 -118 -42 -70 -17 23 -17 81 0 87 22 9 26 7 42
-17z"/>
<path d="M1796 2611 c15 -16 -2 -91 -24 -108 -19 -16 -16 -18 27 -27 26 -5 31
-3 23 7 -14 17 7 107 25 107 7 0 13 5 13 10 0 6 -9 10 -19 10 -11 0 -28 3 -38
6 -14 5 -15 4 -7 -5z"/>
<path d="M1050 2573 c-51 -19 -68 -85 -30 -123 40 -40 111 -14 107 40 -2 34
-3 34 -37 15 -19 -11 -21 -14 -7 -15 18 0 24 -25 7 -35 -30 -18 -81 43 -66 80
6 17 37 20 53 4 14 -14 25 3 17 25 -6 16 -18 19 -44 9z"/>
<path d="M1990 2530 c-9 -16 -8 -20 5 -20 8 0 15 4 15 10 0 5 7 7 15 4 12 -5
10 -14 -11 -55 -13 -28 -29 -47 -34 -44 -6 3 -10 2 -10 -3 0 -5 11 -14 25 -20
31 -14 57 -16 37 -3 -11 6 -9 17 9 55 22 44 47 58 41 22 -4 -22 15 -20 27 2 8
16 2 22 -45 45 -30 15 -56 27 -59 27 -2 0 -9 -9 -15 -20z"/>
<path d="M771 2420 c-14 -12 -18 -20 -10 -20 19 -1 72 -79 65 -96 -8 -20 -2
-18 49 18 50 35 50 36 31 61 -15 19 -33 6 -21 -14 4 -6 -1 -16 -11 -24 -17
-12 -22 -9 -46 28 -16 23 -26 48 -23 55 6 17 -6 14 -34 -8z"/>
<path d="M2245 2400 c7 -12 -51 -88 -71 -92 -8 -2 3 -17 27 -36 32 -28 43 -32
54 -22 21 17 19 33 -2 26 -10 -3 -24 -1 -32 3 -12 8 -13 12 -1 25 12 15 14 15
30 1 11 -10 20 -12 24 -6 4 5 -3 16 -14 24 -19 14 -20 14 -1 31 16 14 20 15
30 2 7 -8 10 -20 6 -26 -10 -16 11 -12 25 5 7 8 9 15 4 15 -5 0 -23 14 -41 30
-32 30 -50 39 -38 20z"/>
<path d="M1334 2295 c-233 -50 -449 -224 -561 -450 -56 -111 -73 -180 -80
-315 -4 -83 -1 -121 23 -238 18 -91 109 -251 198 -349 100 -111 258 -204 407
-240 115 -28 289 -23 402 11 100 30 147 52 230 108 117 80 245 231 297 353 58
136 82 305 60 432 -6 40 -11 75 -11 78 2 12 -51 141 -80 193 -66 122 -174 237
-292 313 -71 46 -189 93 -271 108 -80 15 -246 13 -322 -4z m357 -24 c97 -25
158 -52 238 -106 388 -257 487 -772 218 -1126 -70 -93 -80 -103 -141 -153 -84
-68 -130 -95 -224 -132 -228 -90 -495 -62 -700 73 -314 207 -451 589 -331 923
93 256 305 452 564 520 98 26 277 26 376 1z"/>
<path d="M1203 1857 c-34 -8 -42 -14 -41 -31 1 -11 -43 -127 -96 -257 -96
-232 -99 -237 -136 -254 -25 -11 -37 -22 -33 -31 4 -11 32 -14 124 -14 l119 0
0 25 c0 23 -4 25 -41 25 -44 0 -45 0 -13 77 l14 33 108 0 108 0 13 -37 c8 -21
16 -43 18 -49 2 -6 -14 -19 -37 -28 -74 -30 -46 -41 108 -44 l142 -3 0 25 c0
21 -5 25 -32 28 l-33 3 -107 260 c-59 143 -107 266 -108 273 0 14 -18 14 -77
-1z m84 -74 c51 -115 144 -353 146 -373 1 -11 3 -17 6 -14 3 3 13 -15 22 -38
13 -33 24 -46 50 -55 30 -10 19 -12 -86 -12 -112 0 -118 1 -92 15 30 16 33 33
16 85 -21 62 -27 64 -145 62 -116 -2 -124 -5 -143 -62 -21 -64 -16 -79 32 -89
38 -9 32 -10 -50 -11 -85 -1 -116 8 -78 23 8 3 23 24 34 48 46 100 181 437
181 451 0 14 37 34 66 36 6 1 25 -29 41 -66z"/>
<path d="M1192 1707 c-26 -32 -83 -193 -75 -213 4 -12 22 -14 92 -12 l86 3 0
38 c0 20 -2 37 -6 37 -3 0 -19 34 -35 75 -29 75 -45 94 -62 72z m56 -104 l40
-103 -82 0 -83 0 41 104 c23 57 42 103 43 103 1 -1 19 -48 41 -104z"/>
<path d="M1589 1855 c-9 -38 -2 -50 29 -53 l32 -3 0 -234 0 -233 -35 -12 c-24
-8 -35 -18 -35 -31 0 -18 10 -19 244 -19 l243 0 7 95 c4 52 4 99 1 105 -3 5
-21 10 -40 10 -33 0 -34 -2 -51 -60 -9 -33 -22 -60 -28 -61 -6 0 -46 -4 -88
-7 l-78 -8 0 221 0 221 35 17 c23 11 35 24 35 37 0 19 -6 20 -135 20 -74 0
-135 -2 -136 -5z m211 -24 l35 -1 -33 -20 -32 -20 2 -227 3 -228 94 3 c52 1
100 7 107 13 7 5 17 32 24 58 10 42 15 49 37 49 24 0 25 -1 19 -72 -3 -39 -5
-76 -6 -83 0 -9 -59 -12 -222 -12 l-223 -1 33 20 32 20 0 233 c0 241 -3 257
-42 257 -10 0 -18 3 -18 8 0 6 55 7 190 3z"/>
<path d="M580 2250 c0 -6 7 -27 16 -48 9 -20 22 -51 28 -68 l11 -31 20 25 c15
21 16 24 2 19 -23 -9 -26 14 -5 35 18 18 44 16 33 -3 -12 -19 12 -8 34 15 l22
24 -23 0 c-13 0 -45 9 -71 21 -55 24 -67 26 -67 11z m67 -54 c-7 -20 -24 -16
-35 8 -11 24 -10 25 14 14 13 -6 23 -16 21 -22z"/>
<path d="M947 593 c-10 -10 -8 -43 2 -43 5 0 12 7 15 16 3 8 10 13 15 9 15 -9
-29 -105 -48 -105 -9 0 2 -9 24 -19 38 -17 64 -19 37 -2 -10 6 -8 18 8 54 21
46 47 66 37 27 -6 -24 18 -28 27 -4 3 9 6 18 6 20 0 3 -107 54 -115 54 -1 0
-5 -3 -8 -7z"/>
<path d="M2020 585 c-16 -9 -19 -14 -9 -15 8 0 23 -16 32 -36 19 -38 15 -38
-40 3 -22 17 -38 22 -57 17 -27 -6 -36 -24 -13 -24 15 0 50 -87 41 -102 -4 -6
2 -7 17 -3 31 9 48 25 28 25 -13 0 -24 15 -47 63 -2 5 18 -7 45 -26 69 -48 84
-38 55 38 -12 31 -20 61 -16 66 8 13 -7 11 -36 -6z"/>
<path d="M1204 498 c-22 -10 -44 -47 -44 -74 0 -24 47 -64 74 -64 30 0 66 42
66 77 0 26 -41 73 -62 72 -7 0 -23 -5 -34 -11z m54 -45 c4 -37 -13 -73 -33
-73 -21 0 -29 45 -15 81 17 39 44 35 48 -8z"/>
<path d="M1743 496 c-29 -5 -53 -13 -53 -17 0 -5 4 -9 8 -9 16 0 32 -93 19
-109 -10 -12 -8 -13 13 -8 14 4 42 10 63 13 28 5 37 11 33 21 -4 8 -6 20 -6
26 0 6 -9 1 -20 -11 -26 -27 -36 -28 -43 -3 -3 15 1 21 16 23 11 2 22 9 25 16
3 9 -3 11 -21 7 -19 -5 -25 -2 -30 14 -4 16 0 21 13 21 10 0 20 -6 23 -12 3
-9 8 -10 15 -3 5 6 7 17 3 25 -5 12 -15 14 -58 6z"/>
<path d="M1438 413 c3 -47 1 -63 -9 -63 -7 0 -9 -3 -6 -7 10 -9 68 -10 74 -1
2 5 -1 8 -6 8 -6 0 -11 10 -11 23 1 22 1 22 23 -4 19 -23 67 -46 67 -32 0 2
-14 22 -31 43 -30 38 -31 39 -13 58 11 11 26 22 34 25 8 3 0 6 -17 6 -18 1
-32 -2 -31 -6 2 -5 -5 -19 -15 -33 l-17 -24 0 26 c0 14 6 28 13 31 6 2 -4 6
-23 8 l-36 4 4 -62z"/>
</g>
</svg>
