<?xml version="1.0" encoding="UTF-8"?>
<svg width="256px" height="256px" viewBox="0 0 256 256" version="1.1" xmlns="http://www.w3.org/2000/svg" xmlns:xlink="http://www.w3.org/1999/xlink">
    <title>Group 16</title>
    <defs>
        <polygon id="path-1" points="0 0 256 0 256 256 0 256"></polygon>
        <linearGradient x1="50%" y1="0%" x2="50%" y2="100%" id="linearGradient-3">
            <stop stop-color="#0C71CA" offset="0%"></stop>
            <stop stop-color="#1D9ED8" offset="100%"></stop>
        </linearGradient>
    </defs>
    <g id="Page-2" stroke="none" stroke-width="1" fill="none" fill-rule="evenodd">
        <g id="Group-16">
            <mask id="mask-2" fill="white">
                <use xlink:href="#path-1"></use>
            </mask>
            <g id="Path"></g>
            <g id="Group-3" mask="url(#mask-2)">
                <g transform="translate(30.000000, 30.000000)" id="goBTC" fill-rule="nonzero">
                    <circle id="Oval" fill="#F7931A" cx="99.9451737" cy="97.5111969" r="91.1220077"></circle>
                    <path d="M98.5,197 C43.8483871,197 0,152.516129 0,98.5 C0,44.483871 43.8483871,0 98.5,0 C153.151613,0 197,44.483871 197,98.5 C197,152.516129 153.151613,197 98.5,197 Z M98.5,14.616129 C52.1096774,14.616129 14.616129,52.1096774 14.616129,98.5 C14.616129,144.890323 52.1096774,182.383871 98.5,182.383871 C144.890323,182.383871 182.383871,144.890323 182.383871,98.5 C182.383871,52.1096774 144.890323,14.616129 98.5,14.616129 Z" id="Shape" fill="#1BFED7"></path>
                    <path d="M139.100629,85.310888 C141.016699,73.0933111 131.436347,66.019977 118.662545,61.5187645 L123.133376,44.799975 L112.914333,42.2278535 L109.082193,58.946643 C106.527432,58.3036126 103.333981,57.6605823 100.779221,57.0175519 L104.611362,40.2987624 L94.3923194,37.7266409 L89.9214884,54.4454304 C88.005418,53.8024001 85.4506574,53.1593697 83.534587,53.1593697 L83.534587,53.1593697 L69.483404,49.3011875 L66.9286434,60.2327037 C66.9286434,60.2327037 74.5929251,62.1617948 74.5929251,62.1617948 C78.4250659,63.4478556 79.7024462,66.019977 79.063756,67.9490681 L74.5929251,87.2399791 C75.2316152,87.2399791 75.2316152,87.2399791 75.8703054,87.8830095 L74.5929251,87.8830095 L68.2060237,114.890285 C67.5673336,116.176346 66.2899533,118.105437 63.7351927,117.462406 C63.7351927,117.462406 56.0709111,115.533315 56.0709111,115.533315 L50.96139,127.107862 L64.3738829,130.323014 C66.9286434,130.966044 69.483404,131.609074 71.3994744,132.252105 L66.9286434,149.613925 L77.1476856,152.186046 L81.6185166,135.467257 C84.1732772,136.110287 87.3667278,136.753317 89.9214884,137.396348 L85.4506574,154.115137 L95.6696996,156.687259 L100.140531,139.325439 C117.385164,142.540591 130.797657,141.25453 135.907178,125.178771 C140.378009,112.318163 135.907178,105.244829 126.326826,100.100586 C132.713728,98.8145257 137.823249,94.3133132 139.100629,85.310888 Z M116.107784,118.105437 C112.914333,130.966044 91.8375588,123.89271 84.8119673,121.963619 L90.5601785,99.4575561 C96.9470799,101.386647 119.301235,105.244829 116.107784,118.105437 L116.107784,118.105437 Z M119.301235,85.310888 C116.107784,96.8854346 98.8631503,91.0981613 93.1149391,89.8121006 L98.2244602,69.2351289 C103.333981,70.5211896 121.855995,73.0933111 119.301235,85.310888 L119.301235,85.310888 Z" id="Shape" fill="#FFFFFF"></path>
                </g>
            </g>
            <g id="exchange-cny-svgrepo-com-(1)" mask="url(#mask-2)" fill="url(#linearGradient-3)" fill-rule="nonzero">
                <g transform="translate(0.000000, 6.000000)" id="Shape">
                    <path d="M218.258999,160.506236 C234.540244,121.788253 224.355317,76.9910283 192.938337,49.1362289 C161.521357,21.2814294 115.861012,16.5653386 79.4225345,37.4115949 L67.2827573,16.1364316 C105.07748,-5.48330201 151.504308,-5.37135623 189.194512,16.4303889 C244.141689,48.1777829 265.190497,116.15542 239.577035,172.840196 L256,182.320321 L205.030068,209.437887 L203.010851,151.699764 L218.258999,160.506236 Z M37.7532387,84.4937641 C21.4719934,123.211747 31.6569203,168.008972 63.0739003,195.863771 C94.4908802,223.718571 140.151226,228.434661 176.589703,207.588405 L188.72948,228.863568 C150.934758,250.483302 104.507929,250.371356 66.8177255,228.569611 C11.8705483,196.822217 -9.178259,128.84458 16.4352024,72.1598035 L0,62.6919272 L50.9699316,35.5743615 L52.9891486,93.3124846 L37.741001,84.5060123 L37.7532387,84.4937641 Z"></path>
                </g>
            </g>
        </g>
    </g>
</svg>