<?xml version="1.0" encoding="UTF-8"?>
<!DOCTYPE svg PUBLIC "-//W3C//DTD SVG 1.1//EN" "http://www.w3.org/Graphics/SVG/1.1/DTD/svg11.dtd">
<svg xmlns="http://www.w3.org/2000/svg" version="1.1" width="256px" height="256px" style="shape-rendering:geometricPrecision; text-rendering:geometricPrecision; image-rendering:optimizeQuality; fill-rule:evenodd; clip-rule:evenodd" xmlns:xlink="http://www.w3.org/1999/xlink">
<g><path style="opacity:1" fill="#cd1001" d="M 221.5,50.5 C 221.738,52.4044 222.738,53.7377 224.5,54.5C 250.756,89.3752 256.923,127.709 243,169.5C 242.392,171.066 241.558,172.4 240.5,173.5C 239.504,173.414 238.671,173.748 238,174.5C 236.851,177.779 236.018,181.113 235.5,184.5C 221.049,210.782 200.049,229.948 172.5,242C 168.57,243.477 164.57,244.644 160.5,245.5C 157.918,245.025 155.918,245.692 154.5,247.5C 106.039,256.513 65.5388,242.513 33,205.5C 28.8581,200.537 25.3581,195.204 22.5,189.5C 22.6107,188.883 22.944,188.383 23.5,188C 22.2642,186.612 20.9308,185.446 19.5,184.5C 12.722,172.746 8.3887,160.08 6.5,146.5C 5.80085,136.849 5.46752,127.183 5.5,117.5C 7.39821,93.7788 15.7315,72.7788 30.5,54.5C 31.9063,54.0269 32.573,53.0269 32.5,51.5C 72.3589,5.95269 120.692,-5.88064 177.5,16C 194.746,24.4356 209.413,35.9356 221.5,50.5 Z"/></g>
<g><path style="opacity:1" fill="#fed403" d="M 142.5,34.5 C 147.05,35.4915 151.717,36.4915 156.5,37.5C 190.678,48.8529 211.845,72.1862 220,107.5C 226.337,145.732 215.171,177.566 186.5,203C 156.283,223.172 123.949,227.172 89.5,215C 51.985,197.168 33.3183,167.335 33.5,125.5C 34.7625,87.1041 52.4292,59.2707 86.5,42C 104.43,33.9806 123.096,31.4806 142.5,34.5 Z"/></g>
<g><path style="opacity:1" fill="#ba3f17" d="M 142.5,34.5 C 147.596,34.0439 152.262,35.0439 156.5,37.5C 151.717,36.4915 147.05,35.4915 142.5,34.5 Z"/></g>
<g><path style="opacity:1" fill="#cd0c01" d="M 148.5,101.5 C 169.5,102.167 190.5,102.833 211.5,103.5C 194.53,115.991 177.53,128.491 160.5,141C 167.63,161.388 174.13,181.888 180,202.5C 162.64,189.64 145.14,176.973 127.5,164.5C 110.677,177.078 93.677,189.411 76.5,201.5C 75.3861,200.277 75.2195,198.944 76,197.5C 82.2637,178.876 88.4303,160.209 94.5,141.5C 77.4233,128.114 60.0899,114.947 42.5,102C 64.1744,101.833 85.841,101.333 107.5,100.5C 113.851,80.2806 120.684,60.2806 128,40.5C 134.392,61.1094 141.226,81.4428 148.5,101.5 Z"/></g>
<g><path style="opacity:0.965" fill="#e88216" d="M 221.5,50.5 C 223.262,51.2623 224.262,52.5956 224.5,54.5C 222.738,53.7377 221.738,52.4044 221.5,50.5 Z"/></g>
<g><path style="opacity:0.816" fill="#f3951b" d="M 32.5,51.5 C 32.573,53.0269 31.9063,54.0269 30.5,54.5C 30.427,52.9731 31.0937,51.9731 32.5,51.5 Z"/></g>
<g><path style="opacity:1" fill="#e16f23" d="M 148.5,101.5 C 169.844,101.167 191.177,101.5 212.5,102.5C 212.376,103.107 212.043,103.44 211.5,103.5C 190.5,102.833 169.5,102.167 148.5,101.5 Z"/></g>
<g><path style="opacity:1" fill="#fcce07" d="M 130.5,105.5 C 139.684,108.144 146.517,114.144 151,123.5C 153.498,131.688 152.665,139.521 148.5,147C 149.944,149.449 151.778,151.615 154,153.5C 155.165,156.814 153.998,158.814 150.5,159.5C 148.424,156.419 145.757,154.086 142.5,152.5C 131.462,157.325 121.795,155.325 113.5,146.5C 109.647,150.518 105.981,154.685 102.5,159C 98.9124,159.611 97.7458,158.111 99,154.5C 104.115,149.7 109.448,145.367 115,141.5C 121.321,148.613 128.821,150.279 137.5,146.5C 129.983,138.817 122.65,130.984 115.5,123C 112.907,123.546 110.74,125.046 109,127.5C 106.833,125.333 104.667,123.167 102.5,121C 106.682,116.651 111.015,112.485 115.5,108.5C 118.709,109.215 121.709,110.382 124.5,112C 121.726,114.064 119.893,116.564 119,119.5C 126.808,127.397 134.808,135.064 143,142.5C 147.218,135.449 147.551,128.116 144,120.5C 140.868,114.212 136.368,109.212 130.5,105.5 Z"/></g>
<g><path style="opacity:0.894" fill="#d56416" d="M 5.5,117.5 C 5.46752,127.183 5.80085,136.849 6.5,146.5C 5.08933,140.559 4.42266,134.392 4.5,128C 4.50145,124.317 4.83478,120.817 5.5,117.5 Z"/></g>
<g><path style="opacity:1" fill="#d6530b" d="M 240.5,173.5 C 239.618,177.593 237.951,181.26 235.5,184.5C 236.018,181.113 236.851,177.779 238,174.5C 238.671,173.748 239.504,173.414 240.5,173.5 Z"/></g>
<g><path style="opacity:1" fill="#dc660c" d="M 19.5,184.5 C 20.9308,185.446 22.2642,186.612 23.5,188C 22.944,188.383 22.6107,188.883 22.5,189.5C 20.7497,188.341 19.7497,186.674 19.5,184.5 Z"/></g>
<g><path style="opacity:1" fill="#da6714" d="M 160.5,245.5 C 158.786,246.738 156.786,247.405 154.5,247.5C 155.918,245.692 157.918,245.025 160.5,245.5 Z"/></g>
</svg>
