<?xml version="1.0" encoding="UTF-8"?>
<svg width="256px" height="256px" viewBox="0 0 256 256" version="1.1" xmlns="http://www.w3.org/2000/svg" xmlns:xlink="http://www.w3.org/1999/xlink">
    <title>CLTR_Logo</title>
    <g id="Page-1" stroke="none" stroke-width="1" fill="none" fill-rule="evenodd">
        <g id="CLTR_Logo" fill-rule="nonzero">
            <rect id="Rectangle" fill="#FFFFFF" x="0" y="0" width="256" height="256"></rect>
            <g id="Collecteurs_CLTR_Logo" transform="translate(32.000000, 32.000000)" fill="#000000">
                <path d="M38.3976748,191.9904 L67.1976748,191.9904 L67.1976748,169.972171 C69.8323948,169.34434 72.4532908,168.511072 75.0411628,167.465648 L142.486059,140.216457 L163.199979,192 L191.999979,192 L166.927659,129.32062 C188.584299,115.431549 198.000939,87.6831648 188.011179,62.9571998 C178.070379,38.3527688 152.227179,24.9438819 127.115499,29.7915213 L115.199979,0.00278395825 L86.3999788,0.00278395825 L135.115179,121.788573 L67.6061548,149.063684 C67.4701228,149.118403 67.3339948,149.172163 67.1976748,149.225921 L67.1976748,0 L38.3976748,0 L38.3976748,64.538008 L34.1487148,66.2546543 C6.19975463,77.5466768 -7.30331737,109.35772 3.98877863,137.30578 C10.3710506,153.102343 23.3080106,164.284256 38.3976748,168.982425 L38.3976748,191.9904 Z M38.3976748,147.585306 L38.3976748,86.132788 C22.7975786,94.331065 15.6485546,113.183262 22.3910186,129.870692 C25.5923308,137.794413 31.3851628,143.893201 38.3976748,147.585306 Z M159.337899,110.346505 C170.851179,100.980885 175.459179,84.872327 169.608939,70.392 C163.790379,55.9904882 149.409579,47.6163417 134.705259,48.7663085 L159.337899,110.346505 Z" id="Shape"></path>
            </g>
        </g>
    </g>
</svg>