<?xml version="1.0" encoding="UTF-8"?>
<!DOCTYPE svg PUBLIC "-//W3C//DTD SVG 1.1//EN" "http://www.w3.org/Graphics/SVG/1.1/DTD/svg11.dtd">
<!-- Creator: CorelDRAW 2020 (64-Bit Evaluation Version) -->
<svg xmlns="http://www.w3.org/2000/svg" xml:space="preserve" width="21.6747mm" height="21.6747mm" version="1.1" style="shape-rendering:geometricPrecision; text-rendering:geometricPrecision; image-rendering:optimizeQuality; fill-rule:evenodd; clip-rule:evenodd"
viewBox="0 0 151.61 151.61"
 xmlns:xlink="http://www.w3.org/1999/xlink"
 xmlns:xodm="http://www.corel.com/coreldraw/odm/2003">
 <defs>
  <style type="text/css">
   <![CDATA[
    .str1 {stroke:#373435;stroke-width:0.73;stroke-linecap:round;stroke-linejoin:round;stroke-miterlimit:22.9256}
    .str0 {stroke:#373435;stroke-width:2.78;stroke-linecap:round;stroke-linejoin:round;stroke-miterlimit:22.9256}
    .str2 {stroke:#40342D;stroke-width:1.24;stroke-linecap:round;stroke-linejoin:round;stroke-miterlimit:22.9256}
    .str3 {stroke:#40342D;stroke-width:1.24;stroke-linecap:round;stroke-linejoin:round;stroke-miterlimit:22.9256}
    .fil1 {fill:none}
    .fil4 {fill:#FEFEFE}
    .fil9 {fill:#FAB692}
    .fil10 {fill:#FAB58E}
    .fil8 {fill:#F7996A}
    .fil6 {fill:#ED3237}
    .fil0 {fill:#ED3237}
    .fil3 {fill:#E2A36F}
    .fil2 {fill:#CF905C}
    .fil7 {fill:#CE905C}
    .fil5 {fill:#40342D}
   ]]>
  </style>
     <clipPath id="id0">
      <path d="M105.72 123.23c-1.01,0.73 -3.66,2.07 -4.84,2.06 -0.49,0.59 -0.34,0.48 -1.29,0.61 -1.91,0.55 -10.66,5.08 -13.42,6.2 -2.63,1.06 -7.29,1.91 -10.3,1.33 -7.49,-1.47 -5.15,-0.61 -12.64,-3.47 -2.41,-0.92 -9.87,-3.9 -11.85,-4.1 -1.97,-0.48 -3.25,-0.8 -5.13,-1.62 -0.74,-0.32 -4.28,-1.37 -4.67,-1.73 -1,-0.25 -1.15,-0.28 -1.79,-1.05 -0.45,0.07 -0.3,0.11 -0.14,-0.35 -0.82,-0.05 -0.77,-0 -1.07,-0.73 -1.88,-0.15 -5.24,-4.84 -5.64,-5.57 -2.63,-4.88 -1.79,-14.64 -1.27,-20.15 0.75,-8.07 3.75,-9.84 1.41,-13.68l-3.06 -8.13c-2.05,-5.72 -1.92,-9.61 -2.91,-14 -0.94,-4.14 -0.97,-11.34 -0.56,-15.75l0.79 -4.77c2.94,-11.76 10.45,-11.9 18.94,-4.25 2.98,2.68 7.74,8.93 9.77,12.66 1.38,2.53 5.05,8.62 5.66,11.18 1.62,6.75 2.12,3.87 6.41,3.82l0.3 0.03c1.51,-0.86 4.7,-0.33 6.6,-0.32 1.67,0.01 5.27,-0.44 6.47,0.22 1.7,-0.36 4.05,0.49 5.98,0.45 1.69,-5.35 3.06,-9.33 6.16,-14.18 2.48,-3.88 5,-8.73 8.38,-11.79 0.95,-0.86 1.51,-1.77 2.49,-2.63 2.8,-2.47 5.95,-5.18 10.08,-4.92 2.81,0.17 4.84,1.65 6.43,3.74 1.11,1.46 0.98,1.03 1.84,3.23 0.39,1 0.91,3.02 0.89,4.03 0.6,0.55 0.41,1.22 0.25,2.07 0.54,0.5 0.39,1.96 0.35,2.87 0.53,3.68 -0.36,14.17 -1.22,17.93 -0.36,1.59 -0.92,3.63 -1.19,5.18 -0.27,1.52 -0.68,3.84 -1.28,5.33 -0.54,1.34 -1.32,3.29 -1.72,4.68 -0.52,1.81 -1.34,2.92 -2.05,4.52 -0.92,2.07 0.33,3.2 0.63,5.15 0.27,1.73 0.97,3.68 1.22,5.36 0.28,1.9 0.46,3.79 0.73,5.68 0.47,3.19 0.06,9.22 -0.45,12.37 -0.63,3.89 -5.24,8.76 -8.65,10.53l-4.64 1.98z"/>
     </clipPath>
      <clipPath id="id1">
       <path d="M33.88 82.87l0.97 -1.11c5.46,-11.36 16.4,-17.44 28.54,-19.62 0.91,0.7 2.12,-0.39 4.75,-0.42l0.3 0.03c0.31,-0.18 0.7,-0.3 1.13,-0.37 0.66,-0.05 1.33,-0.09 1.99,-0.12 1.24,0.02 2.52,0.16 3.48,0.17 0.73,0 1.84,-0.08 2.96,-0.12 1.12,0.06 2.24,0.15 3.35,0.27 0.06,0.02 0.11,0.05 0.17,0.08 0.07,-0.01 0.14,-0.03 0.22,-0.04 17.58,1.93 33.34,10.47 34.84,21.67 -0.15,1.42 0.71,2.46 0.95,4.01 0.27,1.73 0.97,3.68 1.22,5.36 0.28,1.9 0.46,3.79 0.73,5.68 0.47,3.19 0.06,9.22 -0.45,12.37 -0.63,3.89 -5.24,8.76 -8.65,10.53l-4.64 1.98c-1.01,0.73 -3.66,2.07 -4.84,2.06 -0.49,0.59 -0.34,0.48 -1.29,0.61 -1.91,0.55 -10.66,5.08 -13.42,6.2 -2.63,1.06 -7.29,1.91 -10.3,1.33 -7.49,-1.47 -5.15,-0.61 -12.64,-3.47 -2.41,-0.92 -9.87,-3.9 -11.85,-4.1 -1.97,-0.48 -3.25,-0.8 -5.13,-1.62 -0.74,-0.32 -4.28,-1.37 -4.67,-1.73 -1,-0.25 -1.15,-0.28 -1.79,-1.05 -0.45,0.07 -0.3,0.11 -0.14,-0.35 -0.82,-0.05 -0.77,-0 -1.07,-0.73 -1.88,-0.15 -5.24,-4.84 -5.64,-5.57 -2.63,-4.88 -1.79,-14.64 -1.27,-20.15 0.62,-6.63 2.75,-9.01 2.2,-11.78z"/>
      </clipPath>
      <clipPath id="id2">
       <path d="M105.72 123.23c-1.01,0.73 -3.66,2.07 -4.84,2.06 -0.49,0.59 -0.34,0.48 -1.29,0.61 -1.91,0.55 -10.66,5.08 -13.42,6.2 -2.63,1.06 -7.29,1.91 -10.3,1.33 -7.49,-1.47 -5.15,-0.61 -12.64,-3.47 -2.41,-0.92 -9.87,-3.9 -11.85,-4.1 -1.97,-0.48 -3.25,-0.8 -5.13,-1.62 -0.74,-0.32 -4.28,-1.37 -4.67,-1.73 -1,-0.25 -1.15,-0.28 -1.79,-1.05 -0.45,0.07 -0.3,0.11 -0.14,-0.35 -0.82,-0.05 -0.77,-0 -1.07,-0.73 -1.88,-0.15 -5.24,-4.84 -5.64,-5.57 -2.63,-4.88 -1.79,-14.64 -1.27,-20.15 0.75,-8.07 3.75,-9.84 1.41,-13.68l-3.06 -8.13c-2.05,-5.72 -1.92,-9.61 -2.91,-14 -0.94,-4.14 -0.97,-11.34 -0.56,-15.75l0.79 -4.77c2.94,-11.76 10.45,-11.9 18.94,-4.25 2.98,2.68 7.74,8.93 9.77,12.66 1.38,2.53 5.05,8.62 5.66,11.18 1.62,6.75 2.12,3.87 6.41,3.82l0.3 0.03c1.51,-0.86 4.7,-0.33 6.6,-0.32 1.67,0.01 5.27,-0.44 6.47,0.22 1.7,-0.36 4.05,0.49 5.98,0.45 1.69,-5.35 3.06,-9.33 6.16,-14.18 2.48,-3.88 5,-8.73 8.38,-11.79 0.95,-0.86 1.51,-1.77 2.49,-2.63 2.8,-2.47 5.95,-5.18 10.08,-4.92 2.81,0.17 4.84,1.65 6.43,3.74 1.11,1.46 0.98,1.03 1.84,3.23 0.39,1 0.91,3.02 0.89,4.03 0.6,0.55 0.41,1.22 0.25,2.07 0.54,0.5 0.39,1.96 0.35,2.87 0.53,3.68 -0.36,14.17 -1.22,17.93 -0.36,1.59 -0.92,3.63 -1.19,5.18 -0.27,1.52 -0.68,3.84 -1.28,5.33 -0.54,1.34 -1.32,3.29 -1.72,4.68 -0.52,1.81 -1.34,2.92 -2.05,4.52 -0.92,2.07 0.33,3.2 0.63,5.15 0.27,1.73 0.97,3.68 1.22,5.36 0.28,1.9 0.46,3.79 0.73,5.68 0.47,3.19 0.06,9.22 -0.45,12.37 -0.63,3.89 -5.24,8.76 -8.65,10.53l-4.64 1.98z"/>
      </clipPath>
 </defs>
 <g id="Layer_x0020_1">
  <metadata id="CorelCorpID_0Corel-Layer"/>
  <g id="_2043682519232">
   <circle class="fil0" cx="75.81" cy="75.81" r="75.81"/>
   <g>
    <g>
     <path class="fil1 str0" d="M105.72 123.23c-1.01,0.73 -3.66,2.07 -4.84,2.06 -0.49,0.59 -0.34,0.48 -1.29,0.61 -1.91,0.55 -10.66,5.08 -13.42,6.2 -2.63,1.06 -7.29,1.91 -10.3,1.33 -7.49,-1.47 -5.15,-0.61 -12.64,-3.47 -2.41,-0.92 -9.87,-3.9 -11.85,-4.1 -1.97,-0.48 -3.25,-0.8 -5.13,-1.62 -0.74,-0.32 -4.28,-1.37 -4.67,-1.73 -1,-0.25 -1.15,-0.28 -1.79,-1.05 -0.45,0.07 -0.3,0.11 -0.14,-0.35 -0.82,-0.05 -0.77,-0 -1.07,-0.73 -1.88,-0.15 -5.24,-4.84 -5.64,-5.57 -2.63,-4.88 -1.79,-14.64 -1.27,-20.15 0.75,-8.07 3.75,-9.84 1.41,-13.68l-3.06 -8.13c-2.05,-5.72 -1.92,-9.61 -2.91,-14 -0.94,-4.14 -0.97,-11.34 -0.56,-15.75l0.79 -4.77c2.94,-11.76 10.45,-11.9 18.94,-4.25 2.98,2.68 7.74,8.93 9.77,12.66 1.38,2.53 5.05,8.62 5.66,11.18 1.62,6.75 2.12,3.87 6.41,3.82l0.3 0.03c1.51,-0.86 4.7,-0.33 6.6,-0.32 1.67,0.01 5.27,-0.44 6.47,0.22 1.7,-0.36 4.05,0.49 5.98,0.45 1.69,-5.35 3.06,-9.33 6.16,-14.18 2.48,-3.88 5,-8.73 8.38,-11.79 0.95,-0.86 1.51,-1.77 2.49,-2.63 2.8,-2.47 5.95,-5.18 10.08,-4.92 2.81,0.17 4.84,1.65 6.43,3.74 1.11,1.46 0.98,1.03 1.84,3.23 0.39,1 0.91,3.02 0.89,4.03 0.6,0.55 0.41,1.22 0.25,2.07 0.54,0.5 0.39,1.96 0.35,2.87 0.53,3.68 -0.36,14.17 -1.22,17.93 -0.36,1.59 -0.92,3.63 -1.19,5.18 -0.27,1.52 -0.68,3.84 -1.28,5.33 -0.54,1.34 -1.32,3.29 -1.72,4.68 -0.52,1.81 -1.34,2.92 -2.05,4.52 -0.92,2.07 0.33,3.2 0.63,5.15 0.27,1.73 0.97,3.68 1.22,5.36 0.28,1.9 0.46,3.79 0.73,5.68 0.47,3.19 0.06,9.22 -0.45,12.37 -0.63,3.89 -5.24,8.76 -8.65,10.53l-4.64 1.98z"/>
    </g>
    <path id="1" class="fil2" d="M105.72 123.23c-1.01,0.73 -3.66,2.07 -4.84,2.06 -0.49,0.59 -0.34,0.48 -1.29,0.61 -1.91,0.55 -10.66,5.08 -13.42,6.2 -2.63,1.06 -7.29,1.91 -10.3,1.33 -7.49,-1.47 -5.15,-0.61 -12.64,-3.47 -2.41,-0.92 -9.87,-3.9 -11.85,-4.1 -1.97,-0.48 -3.25,-0.8 -5.13,-1.62 -0.74,-0.32 -4.28,-1.37 -4.67,-1.73 -1,-0.25 -1.15,-0.28 -1.79,-1.05 -0.45,0.07 -0.3,0.11 -0.14,-0.35 -0.82,-0.05 -0.77,-0 -1.07,-0.73 -1.88,-0.15 -5.24,-4.84 -5.64,-5.57 -2.63,-4.88 -1.79,-14.64 -1.27,-20.15 0.75,-8.07 3.75,-9.84 1.41,-13.68l-3.06 -8.13c-2.05,-5.72 -1.92,-9.61 -2.91,-14 -0.94,-4.14 -0.97,-11.34 -0.56,-15.75l0.79 -4.77c2.94,-11.76 10.45,-11.9 18.94,-4.25 2.98,2.68 7.74,8.93 9.77,12.66 1.38,2.53 5.05,8.62 5.66,11.18 1.62,6.75 2.12,3.87 6.41,3.82l0.3 0.03c1.51,-0.86 4.7,-0.33 6.6,-0.32 1.67,0.01 5.27,-0.44 6.47,0.22 1.7,-0.36 4.05,0.49 5.98,0.45 1.69,-5.35 3.06,-9.33 6.16,-14.18 2.48,-3.88 5,-8.73 8.38,-11.79 0.95,-0.86 1.51,-1.77 2.49,-2.63 2.8,-2.47 5.95,-5.18 10.08,-4.92 2.81,0.17 4.84,1.65 6.43,3.74 1.11,1.46 0.98,1.03 1.84,3.23 0.39,1 0.91,3.02 0.89,4.03 0.6,0.55 0.41,1.22 0.25,2.07 0.54,0.5 0.39,1.96 0.35,2.87 0.53,3.68 -0.36,14.17 -1.22,17.93 -0.36,1.59 -0.92,3.63 -1.19,5.18 -0.27,1.52 -0.68,3.84 -1.28,5.33 -0.54,1.34 -1.32,3.29 -1.72,4.68 -0.52,1.81 -1.34,2.92 -2.05,4.52 -0.92,2.07 0.33,3.2 0.63,5.15 0.27,1.73 0.97,3.68 1.22,5.36 0.28,1.9 0.46,3.79 0.73,5.68 0.47,3.19 0.06,9.22 -0.45,12.37 -0.63,3.89 -5.24,8.76 -8.65,10.53l-4.64 1.98z"/>
    <g style="clip-path:url(#id0)">
     <g>
      <path id="2" class="fil3" d="M116.82 84.23c13.94,39.99 -9.69,38.28 -28.64,48.35 -7.86,2.26 -9.18,3.3 -21.56,-0.38 -21.36,-10.84 -44.87,-3.09 -33.13,-48.88l1.35 -1.55c15.97,-33.21 78.75,-21.36 81.72,1.57l0.25 0.89z"/>
     </g>
     <g style="clip-path:url(#id1)">
      <g>
       <path id="3" class="fil4" d="M66.41 59.81c4.99,14.68 12.48,30.63 3.21,33.72 -12.4,3.51 -21.45,7.91 -21.28,14.76 0.13,5.03 5.28,14.42 -5.24,15.16 4.27,1.36 6.34,8.55 10.67,9.9 7.56,2.36 15.95,1.84 23.41,4.21 6.29,-2.69 16.93,-3.15 23.44,-5.84 3.48,-1.44 4.36,-8.07 7.73,-9.51 -12.03,-0.39 -3.81,-9.81 -5.13,-14.71 -1.84,-6.8 -9.22,-10.49 -22.46,-13.96 -6.37,-0.7 -3.24,-17.6 1,-33.83 -5.12,0.04 -10.23,0.08 -15.35,0.12z"/>
      </g>
     </g>
     <g style="clip-path:url(#id2)">
      <path class="fil1" d="M116.82 84.23c13.94,39.99 -9.69,38.28 -28.64,48.35 -7.86,2.26 -9.18,3.3 -21.56,-0.38 -21.36,-10.84 -44.87,-3.09 -33.13,-48.88l1.35 -1.55c15.97,-33.21 78.75,-21.36 81.72,1.57l0.25 0.89z"/>
     </g>
    </g>
    <path class="fil5" d="M53.61 84.09c-0.21,0.68 -3.22,1.26 -4.14,3.15 1.59,2.39 1.05,0.38 1.43,3.74 2.25,-0.03 5.4,-2.13 6.62,-1.95 0.84,-0.91 3.27,-1.81 4.64,-2.25 -0.08,-1.21 -0.03,-0.61 -0.45,-1.43 0.17,-0.19 0.39,-0.33 0.5,-0.45 0.54,-0.61 0.37,-0.13 0.46,-1.01 -4.99,-0.74 -6.78,0.27 -9.07,0.19z"/>
    <path class="fil5" d="M88.8 86.88c1.33,0.08 7.97,3.87 11.02,4.11 -0.03,-1.58 -0.18,-2.74 1.31,-3.57 -0.91,-2.49 -3.47,-2.31 -4.58,-3.39 -1.12,0.1 -2.52,-0.32 -3.74,-0.4 -1.44,-0.09 -3.02,0.34 -4.34,0.1l-0.81 0.51 1.19 0.68c-0.05,1.64 -0.52,0.8 -0.05,1.96z"/>
    <path class="fil5" d="M82.09 105.28c1.28,-4.42 -3.7,-4.69 -6.7,-4.68 -3.16,0.01 -7.7,0.43 -6.47,4.83 1.65,5.94 10.89,7.74 13.17,-0.15z"/>
    <path class="fil6" d="M70.08 115.84l10.27 0 0 2.89c0,2.72 -2.23,4.95 -4.95,4.95l-0.37 0c-2.72,0 -4.95,-2.23 -4.95,-4.95l0 -2.89z"/>
    <g>
     <path class="fil1 str1" d="M75.21 115.84c0.61,1.58 -0.52,3 0.14,4.78"/>
    </g>
    <g>
     <path class="fil1 str2" d="M59.65 109.06c1.3,8.61 29.46,9.49 31.05,-0.14"/>
    </g>
    <path class="fil7" d="M65.82 75.48c0.91,0 1.73,0.31 2.3,0.82l-0.56 0.86 1.21 0.06c0.09,0.23 0.13,0.47 0.13,0.71 0,1.36 -1.38,2.46 -3.09,2.46 -1.71,0 -3.09,-1.1 -3.09,-2.46 0,-1.36 1.38,-2.46 3.09,-2.46z"/>
    <path class="fil7" d="M84.91 75.66c1.71,0 3.09,1.1 3.09,2.46 0,1.36 -1.38,2.46 -3.09,2.46 -0.23,0 -0.46,-0.02 -0.68,-0.06l-1.3 -2.08 -0.64 0.99c-0.3,-0.38 -0.47,-0.83 -0.47,-1.3 0,-1.36 1.38,-2.46 3.09,-2.46z"/>
    <path class="fil8" d="M112.44 31.95c-0.86,1.68 -5.15,4.45 -5.98,6.66 -0.58,1.56 -2.48,5.12 -3.34,7.62 -1.45,4.2 -1.25,2.75 -1.25,7.36 1.96,1.7 3.58,4.35 1.75,7.96 2.47,1.33 4.35,2.82 1.84,5.36 3.43,5.09 8.96,7.78 12,1.58 3.16,-6.44 3.4,-20.41 2.26,-27.69 -0.16,-1.03 -0.46,-1.1 -0.69,-2.41 -0.16,-0.93 -0.14,-1.73 -0.38,-2.5 -0.6,-1.95 -0.86,-2.73 -2.19,-4.2l-4.03 0.25z"/>
    <path class="fil8" d="M45.19 58.39l3.76 -1.16c-1.1,-0.69 -1.86,-6.36 -0.1,-9.36 -0.69,-2.73 -2.54,-7.53 -4.23,-9.69 -2.23,-2.87 -0.84,-1.5 -1.75,-2.88 -0.61,-0.92 -3.9,-2.85 -5.15,-4.01 -0.58,-0.08 -1.2,-0.05 -1.72,-0.14 -0.87,-0.15 -0.56,-0.3 -1.55,-0.56 -4.44,4.65 -4.49,17.26 -4.19,23.79 0.13,2.78 0.83,5.43 1.31,8.12 0.85,4.77 3.24,10.78 8.95,8.18 2.45,-1.11 3.07,-2.32 4.88,-4.29 1.24,-1.34 0.71,-6.06 -0.21,-8z"/>
    <path class="fil9" d="M44.98 57.54l1.19 -1.71c0.15,-1.35 0.22,-6.49 -0.08,-7.64 -0.59,-2.23 -2.17,-6.15 -3.6,-7.91 -1.9,-2.34 -0.72,-1.22 -1.49,-2.35 -0.52,-0.75 -3.32,-2.33 -4.39,-3.27 -0.49,-0.06 -1.02,-0.04 -1.46,-0.11 -0.74,-0.13 -0.48,-0.25 -1.32,-0.46 -3.78,3.8 -3.82,14.09 -3.57,19.42 0.11,2.27 0.71,4.43 1.11,6.63 0.72,3.89 2.76,8.8 7.62,6.68 2.08,-0.91 2.61,-1.9 4.16,-3.5 1.05,-1.1 2.63,-4.19 1.83,-5.77z"/>
    <path class="fil10" d="M113.3 33.84c-0.77,1.37 -4.59,3.62 -5.32,5.42 -0.52,1.27 -2.21,4.17 -2.98,6.21 -1.29,3.41 -1.11,4.82 -1.11,8.57 1.75,1.38 1.96,1.32 1.56,3.9 -0.39,2.5 0.78,2.73 1.13,3.32 0.17,0.28 0.18,0.61 0.5,1.04 3.05,4.14 7.98,6.33 10.69,1.28 2.81,-5.24 3.03,-16.61 2.02,-22.54 -0.14,-0.84 -0.41,-0.9 -0.61,-1.96 -0.15,-0.76 -0.12,-1.41 -0.34,-2.04 -0.54,-1.59 -0.76,-2.23 -1.95,-3.42l-3.59 0.2z"/>
   </g>
   <g>
    <path class="fil1 str3" d="M75.81 11.59c35.47,0 64.22,28.75 64.22,64.22 0,35.47 -28.75,64.22 -64.22,64.22 -35.47,0 -64.22,-28.75 -64.22,-64.22 0,-35.47 28.75,-64.22 64.22,-64.22z"/>
   </g>
  </g>
 </g>
</svg>
