<svg width="256" height="256" viewBox="0 0 256 256" fill="none" xmlns="http://www.w3.org/2000/svg">
<path fill-rule="evenodd" clip-rule="evenodd" d="M40.6363 39.5921C41.4102 39.4973 42.0467 39.0188 42.6657 38.7506C44.324 38.0319 45.9885 37.3973 47.5599 36.7068C52.7732 34.4162 58.0715 32.4593 63.1978 30.2143C65.7676 29.0884 68.2676 28.3331 70.8377 27.2086C82.0021 22.3236 93.4808 18.0604 104.74 13.1415C109.869 10.9004 115.152 8.91621 120.378 6.64907C122.152 5.8787 123.996 5.15396 125.869 4.36462C126.482 4.10625 127.234 3.56723 127.898 3.40273C128.69 3.20658 132.615 5.12279 133.389 5.4467C138.802 7.7104 144.319 9.54744 149.624 11.819C153.516 13.4851 157.412 14.6316 161.323 16.2674C173.266 21.2629 185.67 25.7015 197.612 30.6952C202.119 32.5796 206.697 34.1045 211.1 35.9852C212.235 36.4693 213.393 36.8701 214.444 37.3078C215.04 37.5567 215.759 37.5298 216.233 37.9089C216.812 38.3706 217.426 40.8039 217.786 41.6361C218.977 44.3912 220.136 47.2124 221.366 50.0522C225.73 60.121 229.876 70.3082 234.259 80.4706C238.636 90.6171 242.846 100.891 247.271 111.129C248.704 114.446 250.107 117.822 251.569 121.228C252.121 122.518 253.132 124.066 253.478 125.437C253.702 126.321 252.667 127.685 252.404 128.323C251.382 130.801 250.541 133.282 249.539 135.657C248.781 137.452 248.373 139.142 247.629 140.946C244.5 148.534 241.566 156.444 238.438 164.031C233.547 175.893 229.319 187.974 224.47 199.74C222.991 203.331 221.761 206.953 220.293 210.44C219.802 211.605 219.542 213.433 218.86 214.408C218.478 214.953 217.243 215.09 216.593 215.37C215.084 216.016 213.525 216.614 211.936 217.293C206.398 219.66 200.712 221.814 195.105 224.266C183.586 229.304 171.647 233.894 160.129 238.935C156.888 240.352 153.701 241.365 150.459 242.782C145.614 244.9 140.596 246.761 135.657 248.914C133.689 249.772 131.629 250.541 129.569 251.439C128.961 251.703 128.427 252.152 127.659 252.28C126.514 251.309 123.265 250.55 121.69 249.875C117.318 248.002 112.787 246.377 108.321 244.465C92.4634 237.68 76.0732 231.643 60.2145 224.868C55.3586 222.793 50.4117 221.007 45.651 218.976C44.031 218.285 42.4127 217.707 40.8761 217.053C40.319 216.816 39.7502 216.802 39.3242 216.452C38.9721 216.043 38.9679 215.565 38.7273 215.008C37.9203 213.143 37.1849 211.193 36.3399 209.238C33.8479 203.471 31.5852 197.542 29.0581 191.684C22.8226 177.229 17.1788 162.466 10.9129 147.92C8.95739 143.379 7.17191 138.725 5.18305 134.093C4.52006 132.549 2.79123 129.59 2.67627 127.842C3.13209 127.319 3.2083 126.616 3.51182 125.918C4.13594 124.483 4.7552 122.994 5.42175 121.469C7.90115 115.797 10.3066 110.042 12.8228 104.276C19.3998 89.2058 25.8253 74.0066 32.4 58.8291C34.3416 54.3469 36.2755 49.8127 38.2492 45.243C38.8818 43.7781 40.4653 41.2279 40.6363 39.5921Z" fill="black"/>
<path fill-rule="evenodd" clip-rule="evenodd" d="M128.018 0.0351562L218.502 36.5852C228.051 59.4268 237.601 82.2706 247.151 105.117C250.095 112.33 253.04 119.544 255.986 126.758C246.675 149.239 237.364 171.722 228.052 194.207C225.624 199.918 223.366 205.643 221.009 211.28C220.481 212.542 219.217 216.912 218.264 217.412C188.185 230.115 158.4 243.281 128.321 255.985C98.2028 243.802 67.7708 231.157 37.652 218.975C28.4612 196.774 19.2695 174.572 10.0769 152.368C7.67218 146.699 5.34578 140.94 2.91449 135.174C2.45547 134.086 0.484861 130.164 0.124802 128.971C7.60486 110.979 15.2505 92.6914 22.7304 74.6987C26.4186 66.0398 29.8264 57.2954 33.474 48.7288C34.5986 46.0875 35.6134 43.4637 36.697 40.9138C37.0526 40.0765 37.0688 39.9761 37.6673 38.4232C59.6696 29.0862 81.9019 19.592 103.904 10.2551C109.619 7.78899 115.307 5.31575 120.933 2.89003C122.759 2.10307 126.273 0.817378 128.018 0.0351562ZM128.136 5.92647C99.331 18.1089 70.5225 30.2923 41.7107 42.4766C32.8382 64.0761 23.9648 85.6776 15.0905 107.281C12.8768 112.5 10.7665 117.831 8.52504 123.152C8.13464 124.078 6.76931 126.845 6.1344 128.936C13.2961 146.007 20.4633 163.31 27.6248 180.381C31.2178 188.817 34.5799 197.288 38.1297 205.63C39.0829 207.87 39.972 210.083 40.8753 212.243C41.223 213.073 41.45 213.851 41.693 214.564C70.4192 226.186 99.5301 238.013 128.256 249.634C144.37 242.781 160.485 235.928 176.602 229.075C185.925 225.045 195.275 221.227 204.536 217.293C207.04 216.228 209.516 215.194 211.936 214.166C212.805 213.797 214.143 213.659 214.563 212.843C223.516 191.164 232.469 169.483 241.422 147.799C243.629 142.568 245.799 137.275 247.987 131.928C248.366 131.002 250.398 127.431 250.136 126.398C238.24 97.866 226.343 69.3311 214.444 40.7937C185.677 29.1726 156.908 17.55 128.136 5.92647ZM60.2133 42.717L79.0743 47.6464L89.9372 56.303L98.532 62.9157C102.431 70.209 108.195 80.8076 112.094 88.1009C112.112 88.1236 116.813 106.61 117.16 108.144C117.528 109.765 117.716 110.353 118.109 112.21C114.766 114.414 111.424 116.619 108.081 118.824C106.637 119.79 104.903 120.971 103.388 122.032C103.388 121.992 103.185 120.443 103.185 120.402C102.23 109.222 101.277 99.585 100.322 88.4047C98.9463 87.3942 97.7907 85.669 96.7406 84.3169C94.7918 81.8076 92.5332 79.5109 90.4139 77.1031C84.197 70.0408 78.3893 63.4056 72.2687 56.4234C69.5428 53.3131 65.8771 49.1514 64.0317 47.0454C62.8518 45.6969 61.4063 44.2588 60.2133 42.717ZM196.258 42.8085C187.768 52.2684 178.754 62.7409 156.188 88.4538C156.677 82.9742 153.87 114.721 153.151 121.948C143.525 115.72 141.167 114.034 138.361 112.131C140.35 104.276 142.263 96.2596 144.252 88.4053C148.827 79.9099 153.403 71.4136 157.98 62.9165C164.545 57.7871 171.111 52.6573 177.677 47.5269C179.07 47.2064 180.64 46.712 182.033 46.3914C184.897 45.59 187.585 44.962 190.45 44.1604C191.359 43.9861 192.079 43.6887 196.258 42.8085ZM61.0632 49.1911C61.881 50.1104 62.7128 51.1561 63.4366 51.9751C72.8671 62.6453 94.2145 86.7903 97.2872 90.2216C98.0432 101.001 98.9702 113.695 99.726 124.473C97.5775 125.877 95.4288 127.28 93.2799 128.682C92.0067 125.356 90.7334 122.03 89.4599 118.703L78.955 109.926C77.728 108.982 73.9745 105.88 72.8187 104.925C69.8745 96.2689 66.7387 87.3213 63.7947 78.6656C62.8398 68.8484 62.0181 59.0089 61.0632 49.1911ZM195.343 49.2098H195.583C194.957 51.3923 195.316 53.8954 194.866 56.3034C194.19 63.4765 193.514 70.6503 192.837 77.8247C189.814 86.8411 186.79 95.8584 183.764 104.877C178.194 109.485 172.623 114.094 167.052 118.703C166.15 120.906 163.981 126.683 163.176 128.666C161.067 127.223 158.776 125.796 156.667 124.354C157.463 113.013 158.258 101.671 159.054 90.3287C171.149 76.6239 183.245 62.9176 195.343 49.2098ZM129.927 228.113V219.095C131.519 217.333 133.111 215.57 134.702 213.806C133.867 204.548 133.031 195.291 132.196 186.032H124.316C123.521 195.289 122.726 204.546 121.929 213.806C123.481 215.568 125.033 217.331 126.585 219.095V228.113C123.243 227.311 119.986 226.42 116.643 225.619C113.5 222.093 110.27 218.654 107.127 215.129C105.719 213.636 103.042 210.753 101.39 209.098C100.316 201.645 99.129 193.366 98.0548 185.913C95.389 181.504 92.723 177.095 90.0568 172.687C89.1573 171.241 88.599 170.378 87.4702 168.727C88.0273 158.108 88.5447 146.395 89.1018 135.776C91.9266 133.933 94.7518 132.089 97.5772 130.246C98.7559 129.455 100.051 128.557 101.517 127.72L110.708 138.061C109.475 141.186 108.241 144.312 107.008 147.438C106.647 148.345 106.354 149.152 105.728 150.777C105.439 149.251 104.583 146.81 104.143 145.514C103.373 146.191 101.493 146.632 101.278 147.799L108.918 185.311H109.037C114.249 161.789 119.462 138.264 124.674 114.736H131.838V114.976C137.089 138.419 142.342 161.864 147.595 185.311V185.191C150.14 172.567 152.687 159.943 155.234 147.318C154.24 146.717 153.245 146.116 152.25 145.514C152.204 146.358 151.009 150.607 150.579 150.805C148.987 146.477 147.396 142.148 145.804 137.82C148.152 135.296 150.5 132.771 152.847 130.246C153.568 129.494 154.26 128.031 155.354 127.72C158.298 129.724 161.242 131.728 164.187 133.732C165.541 134.641 165.099 134.344 167.433 135.837C167.991 146.337 168.525 158.22 169.082 168.719C168.402 169.622 167.891 170.64 167.291 171.605C164.812 175.586 159.013 184.819 158.492 185.632C157.417 193.286 156.308 201.223 155.234 208.877C153.285 210.96 151.335 213.044 149.385 215.129C146.242 218.654 143.099 222.181 139.955 225.709C136.613 226.51 133.27 227.311 129.927 228.113Z" fill="#00C10E"/>
</svg>
