<?xml version="1.0" standalone="no"?>
<!DOCTYPE svg PUBLIC "-//W3C//DTD SVG 20010904//EN"
 "http://www.w3.org/TR/2001/REC-SVG-20010904/DTD/svg10.dtd">
<svg version="1.0" xmlns="http://www.w3.org/2000/svg"
 width="500.000000pt" height="500.000000pt" viewBox="0 0 500.000000 500.000000"
 preserveAspectRatio="xMidYMid meet">

<g transform="translate(0.000000,500.000000) scale(0.100000,-0.100000)"
fill="#000000" stroke="none">
<path d="M0 2500 l0 -2500 2500 0 2500 0 0 2500 0 2500 -2500 0 -2500 0 0
-2500z m3778 1379 c47 -10 57 -17 93 -65 22 -30 49 -56 62 -59 12 -2 60 -12
107 -20 46 -8 89 -20 94 -25 13 -13 -7 -113 -28 -145 -24 -36 -96 -55 -209
-55 -115 0 -136 -10 -201 -99 l-37 -50 -44 14 c-61 18 -121 55 -177 108 -56
55 -108 124 -108 146 0 16 58 81 72 81 4 0 8 -23 8 -50 0 -43 5 -55 33 -85 37
-41 182 -125 213 -125 42 0 63 31 80 114 21 104 15 158 -29 249 -19 42 -33 78
-30 81 6 6 13 5 101 -15z m-396 -455 c71 -66 157 -120 207 -130 17 -4 31 -9
31 -12 0 -3 -9 -35 -19 -71 -28 -94 -30 -141 -8 -141 22 0 230 -108 266 -139
l34 -28 -152 -182 c-84 -99 -156 -181 -161 -181 -12 0 -99 73 -99 84 -1 5 33
49 74 98 89 104 90 103 -60 103 -98 0 -102 -1 -190 -43 -209 -101 -294 -111
-540 -62 -141 28 -174 31 -275 27 -145 -6 -206 -27 -337 -114 -173 -114 -429
-230 -649 -293 l-81 -23 -45 -111 -45 -111 233 -3 c128 -1 341 -1 472 0 l240
3 -70 82 -69 82 40 68 c57 96 91 185 91 238 0 39 3 46 30 60 48 25 150 45 233
45 42 0 77 -4 77 -9 0 -20 -105 -165 -199 -273 l-99 -115 80 -91 79 -92 272
-2 272 -3 0 -68 0 -67 -1080 0 -1080 0 0 67 0 68 146 3 145 3 19 52 c33 95 96
221 123 251 35 37 85 68 147 91 138 50 294 148 345 216 48 64 60 89 86 181 15
51 35 111 46 132 18 36 19 41 4 50 -8 6 -81 51 -160 100 -206 127 -291 196
-240 196 8 0 117 -52 240 -114 l225 -115 47 29 c65 39 135 57 292 75 147 16
461 73 580 106 119 32 206 80 290 157 l74 69 27 -41 c14 -23 55 -69 91 -102z
m313 -189 c0 -73 -2 -80 -20 -80 -18 0 -20 8 -23 69 -3 81 1 99 25 94 15 -3
18 -15 18 -83z m-275 -825 l0 -320 280 0 281 0 -3 -70 -3 -71 -425 0 -425 0
-3 71 -3 70 76 0 75 0 2 190 c1 105 2 211 3 237 0 46 0 46 -56 77 l-57 32 112
51 c61 28 119 51 129 52 16 1 17 -21 17 -319z m-1890 -698 c22 -10 42 -32 54
-56 17 -36 18 -43 5 -79 -21 -61 -54 -79 -149 -85 l-80 -5 0 122 0 121 68 0
c44 0 79 -6 102 -18z m290 3 c82 -42 78 -170 -6 -210 -95 -45 -210 31 -189
126 8 35 41 78 69 89 34 14 95 11 126 -5z m291 -4 c23 -19 23 -20 6 -39 -18
-19 -20 -19 -48 -4 -26 15 -31 15 -56 2 -56 -31 -48 -111 12 -126 38 -9 55 2
55 36 0 25 4 30 25 30 23 0 25 -3 25 -49 0 -46 -2 -50 -31 -60 -97 -34 -189
19 -189 109 0 42 24 86 58 104 39 22 115 20 143 -3z m249 4 c34 -18 36 -22 14
-46 -14 -15 -18 -16 -42 -3 -36 18 -45 18 -76 -7 -49 -39 -18 -124 42 -117 22
2 28 9 30 36 3 28 7 32 33 32 28 0 29 -1 29 -49 0 -46 -2 -50 -31 -60 -82 -28
-164 3 -186 71 -19 58 9 127 62 149 33 13 94 10 125 -6z m139 -32 l29 -47 29
47 c22 38 33 47 55 47 16 0 28 -3 28 -7 0 -5 -17 -35 -37 -68 -24 -40 -39 -77
-42 -110 -6 -48 -7 -50 -36 -50 -29 0 -30 2 -36 50 -3 32 -18 72 -42 112 -20
34 -37 64 -37 67 0 3 13 6 30 6 25 0 35 -8 59 -47z m342 30 c34 -20 35 -24 10
-47 -17 -16 -20 -16 -49 1 -30 17 -32 17 -59 -3 -71 -53 -10 -155 68 -114 20
11 59 -2 59 -19 0 -15 -66 -41 -102 -41 -72 0 -137 75 -123 141 8 35 41 78 69
89 35 14 96 11 127 -7z m253 -14 c93 -81 28 -217 -98 -206 -92 8 -143 97 -101
177 20 39 60 59 117 60 39 0 54 -6 82 -31z m146 -89 l0 -120 -30 0 -30 0 0
120 0 120 30 0 30 0 0 -120z m147 61 c26 -33 52 -60 56 -60 5 -1 7 25 6 57
l-3 57 32 3 32 3 0 -120 0 -121 -27 1 c-22 0 -39 14 -78 62 l-50 61 -3 -62
c-3 -61 -3 -62 -32 -62 l-30 0 0 120 0 120 25 0 c18 0 37 -16 72 -59z"/>
<path d="M1422 1613 l3 -68 33 2 c98 4 94 133 -3 133 l-36 0 3 -67z"/>
<path d="M1723 1670 c-12 -5 -25 -21 -29 -36 -16 -65 39 -114 90 -80 35 22 37
87 4 110 -25 18 -33 19 -65 6z"/>
<path d="M2972 1664 c-16 -11 -22 -25 -22 -54 0 -62 58 -92 100 -50 38 38 13
120 -38 120 -10 0 -28 -7 -40 -16z"/>
</g>
</svg>
