<?xml version="1.0" standalone="no"?>
<!DOCTYPE svg PUBLIC "-//W3C//DTD SVG 20010904//EN"
 "http://www.w3.org/TR/2001/REC-SVG-20010904/DTD/svg10.dtd">
<svg version="1.0" xmlns="http://www.w3.org/2000/svg"
 width="256.000000pt" height="256.000000pt" viewBox="0 0 256.000000 256.000000"
 preserveAspectRatio="xMidYMid meet">
<metadata>
Created by potrace 1.16, written by Peter Selinger 2001-2019
</metadata>
<g transform="translate(0.000000,256.000000) scale(0.100000,-0.100000)"
fill="#000000" stroke="none">
<path d="M0 1280 l0 -1280 1280 0 1280 0 0 1280 0 1280 -1280 0 -1280 0 0
-1280z m1972 688 c5 -7 12 -19 17 -27 5 -8 35 -20 67 -26 59 -12 59 -12 57
-46 -2 -50 -32 -69 -108 -69 -61 0 -64 -1 -99 -41 l-37 -40 -44 21 c-25 12
-63 42 -85 67 -38 44 -39 47 -23 65 16 18 17 18 30 -14 15 -37 89 -88 128 -88
19 0 26 7 34 38 16 54 13 91 -9 141 l-20 44 41 -6 c23 -3 46 -11 51 -19z
m-256 -198 c25 -27 66 -59 91 -71 37 -18 44 -25 38 -43 -21 -75 -20 -79 37
-104 29 -12 66 -32 81 -45 l28 -22 -77 -92 c-42 -51 -80 -93 -84 -93 -3 0 -16
10 -28 23 l-21 22 39 47 c38 44 39 46 17 52 -47 12 -94 5 -157 -25 -83 -40
-159 -47 -264 -25 -138 28 -222 17 -307 -41 -68 -47 -164 -93 -278 -133 l-104
-37 -22 -54 -23 -54 235 -3 c130 -1 238 0 241 2 2 3 -9 21 -27 41 -17 20 -31
38 -31 40 0 2 14 31 30 63 17 33 30 68 30 79 0 36 23 53 88 64 105 19 103 0
-10 -133 -26 -31 -48 -59 -48 -63 0 -4 16 -27 36 -51 l36 -44 139 0 139 0 0
-35 0 -35 -550 0 -550 0 0 35 0 35 73 0 74 0 27 69 c32 82 50 100 139 140 85
38 148 83 170 120 9 16 28 60 41 99 l23 69 -78 47 c-83 49 -143 95 -135 103 2
3 58 -22 123 -54 l118 -59 38 19 c21 11 84 25 140 33 275 38 398 78 456 148 8
9 15 16 17 16 2 0 24 -22 50 -50z m34 -535 l0 -165 145 0 145 0 0 -35 0 -35
-220 0 -220 0 0 35 c0 34 1 35 40 35 l40 0 0 119 0 120 -29 17 -29 17 56 28
c32 15 60 28 65 28 4 1 7 -73 7 -164z"/>
</g>
</svg>
