<?xml version="1.0" encoding="UTF-8" standalone="no"?>
<!DOCTYPE svg PUBLIC "-//W3C//DTD SVG 1.1//EN" "http://www.w3.org/Graphics/SVG/1.1/DTD/svg11.dtd">
<svg xmlns="http://www.w3.org/2000/svg" version="1.1" viewBox="0 0 630 630" width="630.0pt" height="630.0pt">
<path d="M 0.00 0.00 L 630.00 0.00 L 630.00 630.00 L 0.00 630.00 L 0.00 0.00 Z" fill="#ffffff" />
<path d="M 303.79 15.51 C 309.21 17.00 314.72 18.77 319.65 21.51 C 318.03 22.22 316.42 22.94 314.79 23.62 C 313.29 22.37 311.91 20.74 309.89 20.44 C 304.03 19.44 298.61 18.23 292.68 19.38 C 288.37 20.18 283.08 19.73 279.54 22.36 C 275.49 25.10 271.39 27.35 266.94 29.36 C 266.32 28.79 265.71 28.21 265.09 27.63 C 268.21 24.97 270.81 22.28 274.71 20.74 C 278.91 19.13 283.30 18.01 287.55 16.48 C 292.76 14.64 298.41 14.26 303.79 15.51 Z" fill="#cce5fb" />
<path d="M 309.89 20.44 C 311.91 20.74 313.29 22.37 314.79 23.62 C 316.42 22.94 318.03 22.22 319.65 21.51 C 321.71 22.70 323.74 23.95 325.72 25.26 C 333.98 30.50 340.41 38.67 344.37 47.55 C 346.87 53.11 347.38 58.97 347.40 65.00 C 347.40 71.92 347.56 79.48 345.06 86.02 C 343.01 91.51 339.51 96.55 336.38 101.48 C 334.30 104.75 331.54 107.19 328.21 109.14 C 323.01 112.23 317.50 115.98 311.70 117.66 C 306.79 119.18 301.11 118.93 296.00 118.97 C 290.45 118.88 285.02 119.19 279.80 117.03 C 269.78 112.73 260.87 106.54 254.64 97.46 C 252.25 93.70 250.31 89.63 248.42 85.59 C 246.36 81.17 246.34 76.76 245.81 71.98 C 244.97 64.86 245.88 57.36 248.63 50.73 C 250.83 45.75 252.94 40.49 256.05 36.01 C 258.54 32.45 261.84 30.36 265.09 27.63 C 265.71 28.21 266.32 28.79 266.94 29.36 C 271.39 27.35 275.49 25.10 279.54 22.36 C 283.08 19.73 288.37 20.18 292.68 19.38 C 298.61 18.23 304.03 19.44 309.89 20.44 Z" fill="#afd2f7" />
<path d="M 406.00 32.35 C 414.90 31.17 424.15 31.21 433.08 32.05 C 439.57 32.60 444.14 36.16 449.34 39.67 C 454.45 43.15 458.72 47.59 462.49 52.47 C 465.81 56.75 467.85 62.29 469.62 67.38 C 471.51 72.87 471.46 78.27 471.42 83.99 C 471.89 100.81 461.84 117.03 447.72 125.73 C 442.66 128.80 436.93 132.01 430.99 132.74 C 420.53 134.02 410.03 133.31 400.11 129.62 C 395.11 127.47 390.56 124.10 386.49 120.52 C 382.33 116.61 378.16 112.56 375.71 107.32 C 372.57 100.48 369.95 93.65 369.75 86.02 C 368.85 72.63 372.83 58.87 381.58 48.58 C 384.60 44.33 388.73 41.68 393.08 38.97 C 397.32 36.29 400.85 33.08 406.00 32.35 Z" fill="#90b4db" />
<path d="M 174.99 51.61 C 185.64 51.09 196.10 53.62 205.12 59.36 C 205.46 61.06 205.05 63.34 206.60 64.42 C 209.39 66.75 212.69 68.53 215.69 70.59 C 216.39 74.25 217.00 77.66 219.47 80.63 C 222.40 84.17 224.57 88.15 227.80 91.43 C 228.64 97.20 228.60 103.19 228.43 109.01 C 228.27 113.73 227.57 118.37 225.74 122.74 C 223.90 127.52 219.66 131.43 216.52 135.55 C 212.61 140.66 207.72 144.85 202.31 148.30 C 197.64 151.25 192.48 152.20 187.16 153.40 C 181.16 154.68 175.00 154.79 168.92 154.05 C 163.15 153.39 157.52 150.50 152.11 148.27 C 151.48 146.82 150.88 145.27 150.02 143.94 C 148.54 143.52 146.97 143.35 145.45 143.14 C 142.16 139.79 138.59 137.10 135.77 133.27 C 131.91 128.11 129.92 121.58 127.54 115.55 C 130.85 106.88 130.87 99.14 127.55 90.47 C 129.36 86.21 130.93 81.86 132.70 77.59 C 135.16 71.74 139.58 67.40 144.06 63.04 C 146.73 60.46 149.67 58.50 153.13 57.14 C 160.38 54.38 167.09 51.65 174.99 51.61 Z" fill="#9fbfe1" />
<path d="M 205.12 59.36 C 212.94 63.29 217.40 69.72 222.58 76.44 C 225.91 80.90 227.09 86.02 227.80 91.43 C 224.57 88.15 222.40 84.17 219.47 80.63 C 217.00 77.66 216.39 74.25 215.69 70.59 C 212.69 68.53 209.39 66.75 206.60 64.42 C 205.05 63.34 205.46 61.06 205.12 59.36 Z" fill="#b2d0f0" />
<path d="M 127.55 90.47 C 130.87 99.14 130.85 106.88 127.54 115.55 C 126.33 112.46 125.82 109.33 125.77 106.01 C 125.74 100.67 125.42 95.47 127.55 90.47 Z" fill="#b8d4f2" />
<path d="M 523.00 114.40 C 531.75 114.11 540.64 118.39 547.53 123.50 C 552.52 127.87 558.62 132.39 561.85 138.20 C 564.24 142.27 566.43 146.16 567.14 150.91 C 567.90 156.19 567.64 161.67 567.70 167.00 C 567.59 173.40 568.18 179.18 565.05 185.04 C 561.85 190.91 559.36 196.84 553.98 200.96 C 546.72 206.70 538.41 214.06 529.16 215.92 C 518.17 218.22 506.97 217.25 496.72 212.57 C 495.57 210.85 494.38 208.61 492.59 207.49 C 490.77 206.62 488.51 206.51 486.54 206.22 C 478.73 199.82 472.42 191.93 468.56 182.56 C 466.61 177.77 466.62 172.11 466.52 167.00 C 466.53 161.07 466.41 154.56 468.08 148.84 C 470.10 141.27 475.45 134.33 480.53 128.50 C 486.06 122.26 493.09 119.65 500.59 116.52 C 507.46 113.60 515.59 114.46 523.00 114.40 Z" fill="#6f96c1" />
<path d="M 145.45 143.14 C 146.97 143.35 148.54 143.52 150.02 143.94 C 150.88 145.27 151.48 146.82 152.11 148.27 C 149.28 147.22 147.40 145.36 145.45 143.14 Z" fill="#c4d9ef" />
<path d="M 98.02 152.32 C 108.32 152.51 117.74 156.18 126.31 161.70 C 131.74 164.77 135.05 169.42 138.85 174.18 C 146.06 182.71 148.54 195.09 148.19 206.00 C 148.00 216.67 145.05 228.52 137.48 236.43 C 132.91 241.26 127.86 246.79 121.91 249.85 C 116.01 252.94 109.75 255.10 103.02 255.19 C 96.49 255.30 89.38 255.68 83.04 253.95 C 73.67 251.46 66.41 245.99 59.22 239.76 C 55.56 236.49 53.98 232.43 51.81 228.19 C 49.94 224.40 47.60 221.44 47.17 217.11 C 46.44 210.79 46.47 204.36 46.65 198.00 C 46.86 194.20 46.94 190.04 48.71 186.60 C 50.41 183.31 52.14 180.05 53.78 176.73 C 56.13 172.00 59.76 168.16 63.73 164.75 C 67.92 161.18 73.11 159.14 78.06 156.86 C 84.38 153.98 91.02 152.12 98.02 152.32 Z" fill="#a5f0c6" />
<path d="M 192.05 183.86 C 197.65 183.34 203.38 183.97 209.00 183.97 C 220.67 184.07 232.33 184.54 244.00 184.48 C 251.03 184.52 257.97 183.41 265.00 183.51 C 284.02 183.61 302.99 183.29 322.00 183.93 C 325.33 184.07 328.61 184.47 331.88 185.11 C 337.38 186.19 342.75 186.43 348.17 187.86 C 354.44 189.60 360.65 190.58 366.60 193.35 C 373.06 196.29 380.19 199.66 385.19 204.79 C 390.19 209.76 395.55 215.20 398.36 221.75 C 401.40 228.74 404.27 236.18 404.47 243.87 C 404.71 250.50 404.56 257.28 403.65 263.86 C 402.19 271.08 399.96 278.22 396.81 284.89 C 394.26 289.64 390.92 294.00 387.73 298.34 C 387.16 297.55 386.59 296.77 386.02 295.98 C 389.37 290.79 393.58 285.65 396.04 280.03 C 397.87 275.94 398.65 271.16 399.81 266.79 C 401.69 259.84 401.53 252.14 401.44 244.99 C 401.35 239.02 399.60 233.67 397.95 228.01 C 396.03 221.54 391.82 215.62 387.16 210.83 C 383.49 207.13 379.76 203.39 375.21 200.79 C 367.57 196.47 359.37 193.44 350.92 191.14 C 344.09 189.37 337.51 189.46 330.57 188.12 C 326.39 187.28 322.25 186.85 317.99 186.79 C 298.67 186.45 279.32 186.44 260.00 186.61 C 237.81 188.66 215.01 186.37 192.69 186.90 C 192.59 190.00 192.53 193.10 192.45 196.20 C 201.31 200.94 210.46 199.82 218.92 205.03 C 221.75 206.63 221.29 210.18 221.52 212.96 C 221.49 222.64 221.44 232.32 221.46 242.00 C 221.43 249.58 221.80 256.91 220.92 264.47 C 219.28 264.13 217.63 263.84 215.98 263.55 C 216.71 263.03 217.42 262.48 218.09 261.89 C 218.70 259.02 218.54 255.92 218.54 253.00 C 218.36 244.00 218.48 235.00 218.45 226.00 C 218.50 219.77 218.67 213.57 217.93 207.37 C 209.50 204.28 200.86 201.99 192.22 199.62 C 188.19 198.62 188.33 194.34 188.26 191.00 C 188.22 188.32 188.65 184.16 192.05 183.86 Z" fill="#a7bda7" />
<path d="M 192.69 186.90 C 215.01 186.37 237.81 188.66 260.00 186.61 C 279.32 186.44 298.67 186.45 317.99 186.79 C 322.25 186.85 326.39 187.28 330.57 188.12 C 337.51 189.46 344.09 189.37 350.92 191.14 C 359.37 193.44 367.57 196.47 375.21 200.79 C 379.76 203.39 383.49 207.13 387.16 210.83 C 391.82 215.62 396.03 221.54 397.95 228.01 C 399.60 233.67 401.35 239.02 401.44 244.99 C 401.53 252.14 401.69 259.84 399.81 266.79 C 398.65 271.16 397.87 275.94 396.04 280.03 C 393.58 285.65 389.37 290.79 386.02 295.98 C 377.53 284.73 369.33 273.26 360.81 262.03 C 354.62 261.98 348.42 261.99 342.22 262.00 C 342.55 253.77 342.58 245.18 340.79 237.11 C 337.97 227.70 334.24 218.94 325.86 213.20 C 318.58 208.48 309.68 205.93 301.02 205.82 C 292.66 205.25 284.37 205.78 276.05 206.63 C 275.04 213.26 275.64 220.29 275.54 227.00 C 275.62 238.64 275.29 250.31 275.75 261.94 C 274.92 262.01 274.09 262.10 273.25 262.20 C 273.19 299.40 273.27 336.74 273.22 373.95 C 274.06 373.97 274.91 373.99 275.76 374.01 C 275.26 387.33 275.68 400.67 275.51 414.00 C 275.54 418.53 275.20 423.39 276.18 427.83 C 276.39 430.11 279.34 431.03 281.12 431.88 C 287.17 434.20 293.56 435.35 299.54 437.96 C 299.45 441.17 299.35 444.37 299.18 447.57 C 270.12 447.49 241.06 447.56 212.00 447.53 C 205.04 447.48 198.30 447.97 191.37 446.93 C 191.42 444.09 191.43 441.26 191.43 438.42 C 199.28 434.79 207.31 432.88 215.62 430.60 C 218.06 429.89 220.74 428.73 221.17 425.91 C 221.88 421.03 221.40 415.93 221.47 411.00 C 221.26 397.59 221.91 384.11 221.08 370.72 C 233.50 366.44 244.20 358.06 250.33 346.33 C 255.76 336.33 257.52 325.27 257.19 313.99 C 256.95 301.92 254.18 289.19 246.31 279.70 C 239.80 271.69 230.74 267.09 220.92 264.47 C 221.80 256.91 221.43 249.58 221.46 242.00 C 221.44 232.32 221.49 222.64 221.52 212.96 C 221.29 210.18 221.75 206.63 218.92 205.03 C 210.46 199.82 201.31 200.94 192.45 196.20 C 192.53 193.10 192.59 190.00 192.69 186.90 Z" fill="#ffffff" />
<path d="M 276.05 206.63 C 284.37 205.78 292.66 205.25 301.02 205.82 C 309.68 205.93 318.58 208.48 325.86 213.20 C 334.24 218.94 337.97 227.70 340.79 237.11 C 342.58 245.18 342.55 253.77 342.22 262.00 C 341.24 262.00 340.25 262.00 339.26 261.99 C 339.89 249.04 339.27 236.75 332.92 225.14 C 328.88 218.07 322.05 213.07 314.34 210.67 C 308.23 208.97 301.32 208.90 295.00 208.65 C 289.53 208.43 284.15 209.07 278.75 209.86 C 278.32 218.25 278.59 226.60 278.54 235.00 C 278.57 243.99 278.40 252.97 278.69 261.93 C 277.71 261.92 276.73 261.92 275.75 261.94 C 275.29 250.31 275.62 238.64 275.54 227.00 C 275.64 220.29 275.04 213.26 276.05 206.63 Z" fill="#a8bea8" />
<path d="M 486.54 206.22 C 488.51 206.51 490.77 206.62 492.59 207.49 C 494.38 208.61 495.57 210.85 496.72 212.57 C 492.89 211.03 489.57 209.03 486.54 206.22 Z" fill="#aec6df" />
<path d="M 295.00 208.65 C 301.32 208.90 308.23 208.97 314.34 210.67 C 322.05 213.07 328.88 218.07 332.92 225.14 C 339.27 236.75 339.89 249.04 339.26 261.99 C 335.90 262.00 332.53 261.93 329.17 262.10 C 328.97 273.35 329.33 284.60 328.93 295.86 C 321.85 300.90 315.97 306.07 306.78 306.51 C 306.74 291.69 306.76 276.87 306.77 262.05 C 297.41 261.92 288.05 262.10 278.69 261.93 C 278.40 252.97 278.57 243.99 278.54 235.00 C 278.59 226.60 278.32 218.25 278.75 209.86 C 284.15 209.07 289.53 208.43 295.00 208.65 Z" fill="#ffffff" />
<path d="M 546.86 232.16 C 550.87 230.58 555.72 230.50 560.00 230.36 C 565.67 230.29 571.45 230.13 577.08 230.84 C 582.40 231.41 587.22 234.50 591.74 237.18 C 602.09 243.11 610.25 253.37 613.27 264.95 C 615.98 273.20 615.75 282.51 614.86 291.05 C 612.90 300.53 608.69 309.83 601.56 316.55 C 593.57 324.77 583.36 329.96 572.07 331.81 C 565.72 332.57 559.16 332.06 552.93 330.68 C 549.30 329.98 545.80 329.36 542.61 327.38 C 536.56 323.62 530.12 319.91 525.59 314.39 C 519.69 307.52 516.62 299.29 514.54 290.59 C 512.05 278.64 514.43 266.55 519.83 255.74 C 525.77 244.78 535.58 237.12 546.86 232.16 Z" fill="#608571" />
<path d="M 152.03 262.11 C 167.01 261.84 182.01 262.10 197.00 261.98 C 203.44 261.87 209.64 262.41 215.98 263.55 C 217.63 263.84 219.28 264.13 220.92 264.47 C 230.74 267.09 239.80 271.69 246.31 279.70 C 254.18 289.19 256.95 301.92 257.19 313.99 C 257.52 325.27 255.76 336.33 250.33 346.33 C 244.20 358.06 233.50 366.44 221.08 370.72 C 220.07 371.05 219.06 371.35 218.03 371.63 C 211.81 373.18 205.45 374.08 199.03 374.01 C 183.33 373.96 167.63 374.07 151.94 373.95 C 151.78 342.30 151.92 310.65 151.87 279.00 C 151.92 273.38 151.70 267.72 152.03 262.11 Z" fill="#4f8e40" />
<path d="M 273.25 262.20 C 274.09 262.10 274.92 262.01 275.75 261.94 C 276.73 261.92 277.71 261.92 278.69 261.93 C 288.05 262.10 297.41 261.92 306.77 262.05 C 306.76 276.87 306.74 291.69 306.78 306.51 C 306.78 307.62 306.78 308.74 306.78 309.85 C 306.82 324.45 306.61 339.06 306.90 353.66 C 306.92 355.62 306.88 357.58 306.86 359.55 C 306.75 364.35 306.74 369.15 306.78 373.95 C 297.41 374.05 288.05 373.96 278.68 374.02 C 277.71 374.03 276.73 374.02 275.76 374.01 C 274.91 373.99 274.06 373.97 273.22 373.95 C 273.27 336.74 273.19 299.40 273.25 262.20 Z" fill="#4f8e40" />
<path d="M 329.17 262.10 C 332.53 261.93 335.90 262.00 339.26 261.99 C 340.25 262.00 341.24 262.00 342.22 262.00 C 348.42 261.99 354.62 261.98 360.81 262.03 C 369.33 273.26 377.53 284.73 386.02 295.98 C 386.59 296.77 387.16 297.55 387.73 298.34 C 393.86 306.59 399.90 314.90 405.86 323.27 C 405.80 302.85 405.75 282.44 405.86 262.02 C 416.20 261.99 426.54 261.97 436.88 262.03 C 436.88 299.34 436.88 336.66 436.88 373.97 C 427.02 373.99 417.16 374.08 407.31 373.92 C 395.71 357.80 383.95 341.80 372.29 325.72 C 369.32 321.57 366.48 317.38 363.01 313.62 C 361.91 315.10 360.20 316.23 360.20 318.20 C 359.93 324.64 360.33 331.12 360.18 337.57 C 359.92 349.69 359.90 361.92 360.17 374.03 C 349.82 373.95 339.47 374.05 329.12 373.97 C 329.05 349.20 329.26 324.42 329.01 299.65 C 328.98 298.39 328.95 297.12 328.93 295.86 C 329.33 284.60 328.97 273.35 329.17 262.10 Z" fill="#4f8e40" />
<path d="M 459.34 262.20 C 470.44 261.72 481.65 262.10 492.77 262.05 C 492.76 299.35 492.76 336.65 492.77 373.95 C 481.59 374.03 470.40 374.03 459.22 373.95 C 459.24 340.63 459.23 307.32 459.23 274.00 C 459.26 270.08 459.05 266.12 459.34 262.20 Z" fill="#4f8e40" />
<path d="M 62.99 279.71 C 69.29 279.64 75.54 279.45 81.54 281.57 C 86.15 283.15 91.18 284.92 95.08 287.89 C 100.33 291.96 105.40 295.32 108.72 301.27 C 112.33 307.54 116.67 314.75 117.58 322.01 C 117.98 328.52 118.03 335.34 117.32 341.82 C 116.26 348.15 112.60 352.97 109.55 358.50 C 106.62 363.72 102.50 368.12 97.75 371.72 C 94.15 374.40 90.25 375.76 86.16 377.47 C 81.85 379.28 77.81 381.11 73.05 381.39 C 67.04 381.71 60.88 381.73 54.91 380.88 C 49.12 380.16 43.49 376.36 38.50 373.47 C 30.97 369.22 25.55 361.49 20.37 354.62 C 14.98 346.94 15.64 338.94 15.39 330.00 C 15.48 323.49 15.39 316.11 18.22 310.13 C 20.23 305.54 23.40 302.34 26.52 298.54 C 30.80 293.25 36.31 288.88 42.04 285.27 C 48.45 281.97 55.74 279.74 62.99 279.71 Z" fill="#6ba083" />
<path d="M 185.71 288.02 C 191.76 288.05 197.87 287.44 203.66 289.35 C 209.99 291.32 215.35 295.96 218.24 301.92 C 218.69 312.29 218.50 322.79 218.38 333.17 C 215.69 339.23 210.74 344.22 204.45 346.48 C 198.69 348.67 191.84 347.91 185.71 347.97 C 185.61 327.99 185.61 308.00 185.71 288.02 Z" fill="#ffffff" />
<path d="M 328.93 295.86 C 328.95 297.12 328.98 298.39 329.01 299.65 C 325.18 302.26 321.42 305.39 316.96 306.79 C 313.57 307.85 310.13 308.69 306.78 309.85 C 306.78 308.74 306.78 307.62 306.78 306.51 C 315.97 306.07 321.85 300.90 328.93 295.86 Z" fill="#a8bea8" />
<path d="M 329.01 299.65 C 329.26 324.42 329.05 349.20 329.12 373.97 C 339.47 374.05 349.82 373.95 360.17 374.03 C 360.99 363.88 359.77 353.78 360.85 343.62 C 364.58 349.51 368.09 355.51 371.56 361.55 C 375.21 367.48 378.97 373.41 382.37 379.49 C 386.78 387.97 392.14 395.88 396.64 404.31 C 399.88 410.61 404.23 415.86 408.61 421.40 C 412.77 426.76 417.17 430.59 423.04 434.02 C 428.66 437.81 434.88 439.85 441.50 441.10 C 441.41 443.97 441.32 446.84 441.20 449.70 C 424.44 451.14 407.43 452.01 390.62 451.34 C 382.37 451.03 373.31 449.49 366.48 444.54 C 359.17 438.73 353.14 431.73 348.02 423.95 C 339.61 412.03 332.29 399.49 325.08 386.83 C 321.24 380.29 319.31 372.99 315.45 366.45 C 312.84 362.08 310.16 357.58 306.90 353.66 C 306.61 339.06 306.82 324.45 306.78 309.85 C 310.13 308.69 313.57 307.85 316.96 306.79 C 321.42 305.39 325.18 302.26 329.01 299.65 Z" fill="#ffffff" />
<path d="M 218.24 301.92 C 223.04 311.77 222.75 323.23 218.38 333.17 C 218.50 322.79 218.69 312.29 218.24 301.92 Z" fill="#a7bda7" />
<path d="M 360.14 308.34 C 361.25 310.02 362.37 311.70 363.46 313.40 C 362.23 313.50 361.01 313.58 359.78 313.66 C 359.82 311.86 359.94 310.09 360.14 308.34 Z" fill="#f3f7eb" />
<path d="M 360.18 337.57 C 365.03 344.14 368.69 351.10 372.96 357.99 C 381.22 371.20 388.64 384.97 396.60 398.39 C 401.55 407.91 407.97 416.78 415.40 424.53 C 422.94 432.35 433.44 436.98 444.19 438.09 C 444.44 442.23 445.45 447.15 444.11 451.14 C 440.35 452.25 436.21 452.07 432.33 452.77 C 427.91 453.56 423.49 454.14 419.00 454.25 C 409.34 454.53 399.64 454.74 389.99 454.32 C 383.47 454.12 376.80 452.14 370.52 450.38 C 365.49 448.91 362.39 444.76 358.64 441.37 C 350.22 433.94 343.96 423.42 337.99 413.97 C 332.53 404.86 326.39 396.00 321.54 386.55 C 317.41 376.88 313.98 367.58 306.86 359.55 C 306.88 357.58 306.92 355.62 306.90 353.66 C 310.16 357.58 312.84 362.08 315.45 366.45 C 319.31 372.99 321.24 380.29 325.08 386.83 C 332.29 399.49 339.61 412.03 348.02 423.95 C 353.14 431.73 359.17 438.73 366.48 444.54 C 373.31 449.49 382.37 451.03 390.62 451.34 C 407.43 452.01 424.44 451.14 441.20 449.70 C 441.32 446.84 441.41 443.97 441.50 441.10 C 434.88 439.85 428.66 437.81 423.04 434.02 C 417.17 430.59 412.77 426.76 408.61 421.40 C 404.23 415.86 399.88 410.61 396.64 404.31 C 392.14 395.88 386.78 387.97 382.37 379.49 C 378.97 373.41 375.21 367.48 371.56 361.55 C 368.09 355.51 364.58 349.51 360.85 343.62 C 359.77 353.78 360.99 363.88 360.17 374.03 C 359.90 361.92 359.92 349.69 360.18 337.57 Z" fill="#aabfaa" />
<path d="M 530.81 361.90 C 537.84 359.93 545.76 360.51 553.01 360.62 C 561.94 360.67 570.23 364.30 577.08 369.88 C 585.73 376.10 592.43 385.56 595.41 395.78 C 597.79 402.68 597.49 410.82 597.17 418.05 C 596.74 427.37 592.08 435.36 586.75 442.72 C 581.67 449.68 574.84 454.22 567.33 458.22 C 561.37 461.46 553.64 460.57 547.00 460.80 C 539.03 460.54 531.59 461.75 524.43 457.61 C 510.24 450.72 499.48 437.33 496.25 421.85 C 494.94 410.75 494.92 397.81 500.74 387.87 C 503.53 383.30 506.30 377.92 510.34 374.38 C 516.54 369.01 522.74 364.13 530.81 361.90 Z" fill="#527060" />
<path d="M 221.08 370.72 C 221.91 384.11 221.26 397.59 221.47 411.00 C 221.40 415.93 221.88 421.03 221.17 425.91 C 220.74 428.73 218.06 429.89 215.62 430.60 C 207.31 432.88 199.28 434.79 191.43 438.42 C 191.43 441.26 191.42 444.09 191.37 446.93 C 198.30 447.97 205.04 447.48 212.00 447.53 C 241.06 447.56 270.12 447.49 299.18 447.57 C 299.35 444.37 299.45 441.17 299.54 437.96 C 293.56 435.35 287.17 434.20 281.12 431.88 C 279.34 431.03 276.39 430.11 276.18 427.83 C 275.20 423.39 275.54 418.53 275.51 414.00 C 275.68 400.67 275.26 387.33 275.76 374.01 C 276.73 374.02 277.71 374.03 278.68 374.02 C 278.37 388.01 278.72 402.01 278.49 415.99 C 278.54 419.68 278.21 423.95 279.52 427.44 C 281.41 430.10 284.85 430.52 287.78 431.24 C 292.81 432.23 297.61 433.90 302.41 435.66 C 302.54 440.37 303.21 445.54 302.10 450.14 C 297.59 451.18 292.62 450.42 288.00 450.54 C 259.99 450.56 232.01 450.53 204.00 450.54 C 199.66 450.43 194.95 451.15 190.71 450.19 C 187.97 447.91 188.27 444.23 188.30 441.01 C 188.42 438.65 188.69 436.41 190.97 435.16 C 196.64 432.40 203.20 431.45 208.96 429.79 C 212.01 428.85 215.00 427.73 218.02 426.68 C 218.91 417.81 218.25 408.97 218.46 400.00 C 218.31 390.56 218.86 381.03 218.03 371.63 C 219.06 371.35 220.07 371.05 221.08 370.72 Z" fill="#a7bda7" />
<path d="M 111.03 404.77 C 118.13 404.92 124.71 407.63 130.34 411.86 C 125.85 410.80 121.41 409.42 116.87 408.57 C 112.10 407.93 107.06 407.90 102.31 408.68 C 97.72 409.67 93.27 411.15 88.61 411.86 C 95.17 407.66 103.11 404.34 111.03 404.77 Z" fill="#ead8c8" />
<path d="M 102.31 408.68 C 107.06 407.90 112.10 407.93 116.87 408.57 C 121.41 409.42 125.85 410.80 130.34 411.86 C 131.58 412.54 132.82 413.22 134.05 413.91 C 143.72 418.88 151.40 427.88 156.05 437.59 C 156.25 440.21 156.23 442.83 156.35 445.45 C 157.52 445.47 158.70 445.48 159.87 445.49 C 162.01 454.61 161.87 465.65 159.24 474.65 C 158.04 475.33 156.85 476.02 155.76 476.88 C 154.76 478.83 154.62 481.30 154.20 483.43 C 150.27 490.93 144.07 497.29 137.22 502.17 C 130.40 506.52 122.17 509.61 114.00 509.49 C 108.20 509.52 102.00 509.81 96.34 508.43 C 90.93 506.93 85.61 505.32 81.03 501.95 C 77.45 499.29 73.99 496.37 70.87 493.16 C 67.28 489.42 65.54 485.10 63.07 480.63 C 61.69 477.99 59.89 475.07 59.47 472.08 C 58.42 464.89 58.22 457.19 58.84 449.95 C 59.25 443.02 63.30 436.59 66.62 430.61 C 72.00 422.35 79.64 415.94 88.61 411.86 C 93.27 411.15 97.72 409.67 102.31 408.68 Z" fill="#b67534" />
<path d="M 156.05 437.59 C 156.78 438.04 157.51 438.51 158.22 438.98 C 158.89 441.11 159.34 443.32 159.87 445.49 C 158.70 445.48 157.52 445.47 156.35 445.45 C 156.23 442.83 156.25 440.21 156.05 437.59 Z" fill="#ca9c6f" />
<path d="M 476.03 465.66 C 480.83 465.77 485.02 467.51 489.41 469.25 C 489.31 470.49 489.22 471.73 489.13 472.97 C 491.00 472.88 492.86 472.76 494.72 472.61 C 498.39 475.94 502.72 478.17 506.01 482.00 C 512.55 489.60 517.53 498.18 518.62 508.31 C 517.98 513.86 517.66 519.39 518.02 524.97 C 518.08 526.46 518.14 527.96 518.20 529.46 C 516.30 534.46 515.27 539.14 512.36 543.42 C 509.57 547.50 506.60 551.58 503.08 555.07 C 497.86 560.06 491.68 562.55 485.07 565.09 C 474.71 569.39 462.45 569.62 452.01 565.48 C 445.34 563.10 439.12 559.92 433.86 555.13 C 429.30 551.06 426.24 546.27 422.65 541.33 C 418.34 534.94 417.06 527.61 417.27 520.00 C 417.46 512.07 416.31 502.78 420.65 495.82 C 425.12 488.76 429.96 482.04 436.47 476.69 C 441.45 474.50 445.30 471.69 449.20 467.94 C 457.43 464.71 467.28 465.41 476.03 465.66 Z" fill="#704b25" />
<path d="M 449.20 467.94 C 445.30 471.69 441.45 474.50 436.47 476.69 C 438.19 474.75 439.87 472.56 441.89 470.93 C 443.90 469.35 446.79 468.68 449.20 467.94 Z" fill="#bdac9a" />
<path d="M 489.41 469.25 C 490.66 469.72 491.89 470.16 493.05 470.85 C 493.60 471.44 494.16 472.03 494.72 472.61 C 492.86 472.76 491.00 472.88 489.13 472.97 C 489.22 471.73 489.31 470.49 489.41 469.25 Z" fill="#957758" />
<path d="M 159.24 474.65 C 158.52 478.21 156.36 480.67 154.20 483.43 C 154.62 481.30 154.76 478.83 155.76 476.88 C 156.85 476.02 158.04 475.33 159.24 474.65 Z" fill="#cfa377" />
<path d="M 199.84 494.03 C 206.24 492.26 213.41 492.59 220.01 492.71 C 227.91 492.76 235.59 495.42 242.05 499.93 C 246.80 503.26 251.27 506.50 254.72 511.24 C 258.56 516.60 262.13 521.67 263.84 528.16 C 266.29 535.69 266.07 543.23 265.66 551.05 C 264.37 561.91 258.96 570.84 251.99 578.99 C 247.92 583.33 242.70 586.68 237.56 589.60 C 229.53 593.65 219.87 594.93 210.97 594.50 C 199.36 593.96 188.40 588.85 179.71 581.27 C 175.06 576.92 171.57 571.17 168.37 565.71 C 163.47 557.83 164.37 546.97 164.43 537.99 C 164.44 526.81 170.13 516.51 177.28 508.27 C 183.79 502.18 191.00 496.22 199.84 494.03 Z" fill="#da8835" />
<path d="M 518.62 508.31 C 520.90 513.32 520.15 519.63 519.96 525.05 L 518.02 524.97 C 517.66 519.39 517.98 513.86 518.62 508.31 Z" fill="#a8927b" />
<path d="M 335.93 511.00 C 341.90 510.37 348.14 510.48 354.10 511.19 C 358.26 511.64 361.58 513.74 365.43 515.37 C 370.73 517.53 375.69 520.13 379.81 524.20 C 385.81 529.74 388.69 536.47 392.25 543.64 C 395.16 549.58 394.56 556.55 394.67 563.00 C 394.51 569.13 395.08 576.51 391.99 581.99 C 389.23 586.97 386.36 592.32 382.49 596.48 C 378.65 600.60 375.59 604.75 370.58 607.51 C 364.88 610.63 358.61 613.02 352.04 613.26 C 345.45 613.55 338.66 613.77 332.12 612.73 C 319.57 610.25 310.45 601.91 303.04 591.95 C 299.40 586.72 295.51 580.56 294.89 574.08 C 294.24 568.09 294.21 562.01 294.45 555.99 C 294.69 546.22 298.75 536.52 305.11 529.14 C 308.63 524.52 312.71 520.62 317.90 517.93 C 323.44 515.05 329.65 511.53 335.93 511.00 Z" fill="#d29f6a" />
<path d="M 518.02 524.97 L 519.96 525.05 C 519.42 526.54 518.79 527.99 518.20 529.46 C 518.14 527.96 518.08 526.46 518.02 524.97 Z" fill="#ddd4cb" />
</svg>