<?xml version="1.0" encoding="UTF-8"?>
<svg width="256px" height="256px" viewBox="0 0 256 256" version="1.1" xmlns="http://www.w3.org/2000/svg" xmlns:xlink="http://www.w3.org/1999/xlink">
    <title>Group 7</title>
    <defs>
        <linearGradient x1="100%" y1="50%" x2="0%" y2="50%" id="linearGradient-1">
            <stop stop-color="#1D9DD8" offset="0%"></stop>
            <stop stop-color="#0D73CB" offset="100%"></stop>
        </linearGradient>
    </defs>
    <g id="Page-2" stroke="none" stroke-width="1" fill="none" fill-rule="evenodd">
        <g id="Group-7">
            <g id="Group-4">
                <circle id="Oval" fill="url(#linearGradient-1)" cx="128" cy="128" r="128"></circle>
                <g id="Group" transform="translate(18.151171, 17.466221)" fill="#000000">
                    <circle id="Oval" cx="110.619398" cy="110.619398" r="110.619398"></circle>
                </g>
            </g>
            <g id="goBTC" transform="translate(17.979933, 16.952508)" fill-rule="nonzero">
                <circle id="Oval" fill="#F7931A" cx="112.50301" cy="109.763211" r="102.571237"></circle>
                <path d="M110.876254,221.752508 C49.3578164,221.752508 0,171.679361 0,110.876254 C0,50.073147 49.3578164,0 110.876254,0 C172.394692,0 221.752508,50.073147 221.752508,110.876254 C221.752508,171.679361 172.394692,221.752508 110.876254,221.752508 Z M110.876254,16.4526055 C58.6571151,16.4526055 16.4526055,58.6571151 16.4526055,110.876254 C16.4526055,163.095393 58.6571151,205.299903 110.876254,205.299903 C163.095393,205.299903 205.299903,163.095393 205.299903,110.876254 C205.299903,58.6571151 163.095393,16.4526055 110.876254,16.4526055 Z" id="Shape" fill="#1BFED7"></path>
                <path d="M156.578241,96.0299666 C158.73506,82.2772846 147.950963,74.3152056 133.572167,69.2484281 L138.604746,50.4289686 L127.101709,47.5336672 L122.78807,66.3531266 C119.912311,65.6293013 116.317612,64.9054759 113.441853,64.1816505 L117.755492,45.3621911 L106.252455,42.4668896 L101.219876,61.2863491 C99.0630568,60.5625237 96.1872976,59.8386984 94.0304782,59.8386984 L94.0304782,59.8386984 L78.2138026,55.4957462 L75.3380434,67.8007774 C75.3380434,67.8007774 83.965321,69.9722535 83.965321,69.9722535 C88.2789598,71.4199042 89.7168394,74.3152056 88.9978996,76.4866817 L83.965321,98.2014426 C84.6842608,98.2014426 84.6842608,98.2014426 85.4032006,98.925268 L83.965321,98.925268 L76.775923,129.325933 C76.0569832,130.773584 74.6191036,132.94506 71.7433445,132.221235 C71.7433445,132.221235 63.1160669,130.049759 63.1160669,130.049759 L57.3645485,143.078615 L72.4622843,146.697742 C75.3380434,147.421567 78.2138026,148.145393 80.370622,148.869218 L75.3380434,168.412503 L86.8410802,171.307804 L91.8736588,152.488345 C94.749418,153.21217 98.344117,153.935996 101.219876,154.659821 L96.1872976,173.47928 L107.690334,176.374582 L112.722913,156.831297 C132.134287,160.450424 147.232023,159.002773 152.983542,140.907139 C158.01612,126.430632 152.983542,118.468553 142.199445,112.67795 C149.388843,111.230299 155.140361,106.163522 156.578241,96.0299666 Z M130.696408,132.94506 C127.101709,147.421567 103.376696,139.459488 95.4683578,137.288012 L101.938816,111.954125 C109.128214,114.125601 134.291107,118.468553 130.696408,132.94506 L130.696408,132.94506 Z M134.291107,96.0299666 C130.696408,109.058823 111.285033,102.544395 104.814575,101.096744 L110.566094,77.9343325 C116.317612,79.3819832 137.166866,82.2772846 134.291107,96.0299666 L134.291107,96.0299666 Z" id="Shape" fill="#FFFFFF"></path>
            </g>
        </g>
    </g>
</svg>