<svg xmlns="http://www.w3.org/2000/svg" fill="none" viewBox="0 0 256 256">
<circle cx="128" cy="128" r="128" fill="#E84142"/>
<path d="M69.6625 188.697H49.1593C43.6758 188.697 40.2189 182.668 42.9606 177.724L119.848 40.2558C122.232 35.9147 128.431 35.9147 130.815 40.2558L153.702 81.0139C156.086 85.355 156.205 90.5402 153.821 94.8813L109.835 177.242C106.139 184.236 98.8678 188.577 91.1195 188.577H69.6625V188.697Z" fill="white"/>
<path d="M168.484 129.611L141.782 177.363C138.921 182.427 142.497 188.698 148.219 188.698L201.504 188.818C207.225 188.818 210.802 182.548 208.06 177.483L181.477 129.49C178.616 124.546 171.345 124.546 168.484 129.611Z" fill="white"/>
<path d="M213.5 256C236.972 256 256 236.972 256 213.5C256 190.028 236.972 171 213.5 171C190.028 171 171 190.028 171 213.5C171 236.972 190.028 256 213.5 256Z" fill="url(#paint0_linear_3_212)"/>
<path d="M213.715 244.021C205.52 244.021 197.671 240.905 191.784 235.249C185.898 229.593 182.781 221.975 183.012 214.011C183.243 206.046 186.936 198.428 192.708 192.772C198.594 187.116 205.982 184 213.715 184C221.449 184 228.836 187.116 234.723 192.772C240.494 198.428 244.187 206.046 244.418 214.011C244.649 221.975 241.417 229.593 235.646 235.249C229.759 240.905 221.91 244.021 213.715 244.021ZM213.715 186.309C206.559 186.309 199.633 189.194 194.208 194.388C188.783 199.582 185.551 206.623 185.32 214.011C185.09 221.398 188.091 228.439 193.4 233.633C198.825 238.827 206.097 241.713 213.6 241.713C221.218 241.713 228.49 238.827 233.799 233.633C239.224 228.439 242.11 221.398 241.879 214.011C241.648 206.623 238.301 199.582 232.991 194.388C227.797 189.194 220.872 186.309 213.715 186.309Z" fill="white"/>
<path d="M217.64 239.289C210.83 239.289 204.25 236.634 199.518 232.017C194.67 227.4 192.015 221.052 192.131 214.472C192.246 207.893 195.132 201.545 199.98 196.928C204.712 192.311 211.06 189.656 217.524 189.656C223.988 189.656 230.336 192.311 235.184 196.928C240.032 201.545 243.033 207.893 243.149 214.472C243.38 221.052 240.725 227.4 235.877 232.017C230.914 236.634 224.334 239.289 217.64 239.289ZM217.409 191.387C211.407 191.387 205.52 193.811 201.134 198.197C196.748 202.468 194.093 208.355 193.862 214.472C193.747 220.59 196.17 226.477 200.672 230.747C205.174 235.018 211.176 237.557 217.524 237.557C223.873 237.557 229.875 235.133 234.376 230.747C238.878 226.477 241.302 220.59 241.186 214.472C241.071 208.355 238.301 202.468 233.799 198.197C229.298 193.811 223.411 191.387 217.409 191.387Z" fill="white"/>
<path d="M221.564 234.557C216.139 234.557 210.945 232.479 207.136 228.785C203.327 225.092 201.249 220.128 201.249 214.819C201.364 209.625 203.558 204.546 207.251 200.852C211.06 197.159 216.023 195.081 221.218 195.081C226.412 195.081 231.491 197.159 235.3 200.852C239.109 204.546 241.533 209.509 241.648 214.819C241.763 220.013 239.686 225.092 235.877 228.785C232.068 232.479 226.873 234.557 221.564 234.557ZM221.218 196.351C216.37 196.351 211.637 198.313 208.175 201.776C204.712 205.238 202.634 209.971 202.519 214.819C202.519 219.667 204.481 224.399 208.059 227.862C211.637 231.325 216.485 233.287 221.564 233.287C226.643 233.287 231.491 231.325 235.069 227.862C238.647 224.399 240.609 219.667 240.494 214.819C240.378 209.971 238.185 205.238 234.607 201.776C230.798 198.313 226.066 196.351 221.218 196.351Z" fill="white"/>
<path d="M225.489 229.824C221.449 229.824 217.64 228.324 214.87 225.553C212.099 222.783 210.483 219.089 210.483 215.28C210.483 211.471 212.099 207.662 214.87 205.008C217.64 202.237 221.333 200.737 225.258 200.737C229.182 200.737 232.876 202.237 235.762 205.008C238.647 207.778 240.263 211.471 240.379 215.28C240.494 219.089 238.994 222.899 236.108 225.553C233.222 228.208 229.413 229.824 225.489 229.824ZM225.142 201.429C221.449 201.429 217.986 202.93 215.331 205.469C212.676 208.009 211.176 211.587 211.176 215.28C211.176 218.974 212.676 222.437 215.331 225.092C217.986 227.631 221.68 229.132 225.373 229.132C229.182 229.132 232.761 227.631 235.415 225.092C238.07 222.552 239.455 218.974 239.455 215.28C239.34 211.587 237.724 208.124 235.069 205.469C232.414 202.93 228.836 201.429 225.142 201.429Z" fill="white"/>
<defs>
<linearGradient id="paint0_linear_3_212" x1="184.382" y1="190.98" x2="251.189" y2="243.653" gradientUnits="userSpaceOnUse">
<stop offset="4.47534e-07" stop-color="#EB3057"/>
<stop offset="0.0321318" stop-color="#DE2E55"/>
<stop offset="0.1698" stop-color="#AA2850"/>
<stop offset="0.3098" stop-color="#7D224B"/>
<stop offset="0.4492" stop-color="#581D46"/>
<stop offset="0.5882" stop-color="#3B1A43"/>
<stop offset="0.7266" stop-color="#271741"/>
<stop offset="0.8641" stop-color="#1B163F"/>
<stop offset="1" stop-color="#17153F"/>
</linearGradient>
</defs>
</svg>