<?xml version="1.0" encoding="utf-8"?>
<!DOCTYPE svg PUBLIC "-//W3C//DTD SVG 20010904//EN" "http://www.w3.org/TR/2001/REC-SVG-20010904/DTD/svg10.dtd">
<svg version="1.0" xmlns="http://www.w3.org/2000/svg" width="256px" height="256px" viewBox="0 0 256 256" preserveAspectRatio="xMidYMid meet">
 <g fill="#000000">
  <path d="M113.8 248.3 c-3.6 -0.4 -3.8 -0.6 -3.8 -3.9 0 -3 -0.3 -3.4 -2.5 -3.4 -1.9 0 -2.5 0.5 -2.5 2.1 0 2.1 -0.3 2.1 -5.8 1.6 -6.6 -0.7 -19.8 -5.9 -26.9 -10.6 -2.5 -1.7 -5 -3.1 -5.5 -3.1 -0.4 0 -0.8 -2 -0.8 -4.4 0 -4.7 0.9 -5.6 5.7 -5.6 1.3 0 3.1 -0.7 3.9 -1.5 1.4 -1.3 1.3 -1.5 -0.9 -1.5 -3.6 0 -13.3 -12.1 -14.2 -17.9 -0.9 -5 -2.6 -8.2 -5 -9.1 -4.5 -1.8 -11.5 -13 -11.5 -18.6 0 -2.2 -0.5 -3.4 -1.3 -3.4 -3.1 0 -6.2 -17.5 -5.2 -29.5 0.9 -11.9 0.6 -22.6 -0.7 -24.2 -1.7 -2.1 0 -16.1 2.3 -18.4 1 -1 1.9 -2.7 1.9 -3.7 0 -2.5 7.4 -17.4 9.6 -19.3 1.1 -0.9 2.9 -2 4.2 -2.3 1.6 -0.5 2.2 -1.5 2.2 -3.5 0 -4 4.2 -12.1 8.6 -16.3 2.2 -2.1 5.5 -5.4 7.4 -7.4 4.5 -4.7 13.5 -9 23 -10.8 4.1 -0.8 17.8 -1.9 30.4 -2.6 20.6 -1 23.7 -0.9 31.2 0.7 l8.4 1.7 0 3.2 c0 1.8 -0.5 3.4 -1.1 3.6 -0.8 0.3 -1.1 3.4 -1.1 9.1 0.1 16 -0.2 14.7 3.3 14.7 2.9 0 8.4 3 10.1 5.5 0.4 0.5 0.8 2.7 0.8 4.7 0 2.6 -0.5 3.8 -1.7 4.1 -1 0.3 0.7 0.5 3.8 0.6 4.8 0.1 5.9 0.5 7.2 2.5 1.2 1.7 2.7 2.5 5.7 2.8 3.6 0.3 4 0.1 4 -1.9 0 -2 0.5 -2.3 3.5 -2.3 2.8 0 3.5 0.4 3.5 2 0 1.1 0.5 2 1.1 2 0.6 0 0.8 -0.7 0.5 -1.6 -0.3 -0.9 -0.6 -2.4 -0.6 -3.5 0 -1 -0.7 -1.9 -1.5 -1.9 -0.8 0 -1.8 -1.2 -2.1 -2.7 -0.8 -3.2 -4 -8.9 -6.6 -11.5 -1.1 -1.1 -1.8 -3.3 -1.8 -5.8 l0 -4 4 0 c3.1 0 4.5 0.6 6.3 2.6 1.2 1.5 2.8 3.2 3.5 4 0.6 0.7 1.2 2.3 1.2 3.7 0 1.5 0.9 2.8 2.4 3.6 1.6 0.9 2.6 2.5 2.9 5 1.2 7.8 2 10.7 3.9 13.4 1.4 1.9 1.9 4 1.7 7.1 -0.2 2.8 0.3 5.3 1.4 6.9 0.9 1.5 1.7 3.5 1.7 4.6 0 1.1 0.5 2.3 1.1 2.7 0.7 0.4 0.8 2.2 0.4 4.8 -1 6.8 -0.9 10.4 0.4 13 0.7 1.3 1.2 4.4 1 6.9 -0.3 2.6 0.1 4.9 0.8 5.6 1.3 1.2 1.5 23.9 0.2 24.7 -0.4 0.2 -0.5 2.7 -0.2 5.6 0.5 4.1 0.3 5.2 -1 6 -1 0.5 -1.7 1.8 -1.7 2.8 0 1.7 -0.7 2 -4.8 2 -2.7 0 -5.5 0.6 -6.4 1.3 -1.6 1.2 -3.1 7.7 -1.8 7.7 2.5 0 7 6.8 7 10.5 0 1.4 0.5 2.5 1 2.5 0.6 0 1 1.3 1 3 0 3.1 -2.6 7 -4.6 7 -1.4 0 -9.6 8.4 -10.4 10.6 -0.9 2.5 -16.1 13.3 -24 17 -4.1 1.9 -8.3 3.9 -9.2 4.4 -1 0.6 -2.9 1 -4.3 1 -1.4 0 -3.8 0.6 -5.3 1.4 -3.6 1.9 -16.3 3.6 -26.3 3.6 l-7.9 0 -0.1 -3.2 c-0.2 -2.8 -0.2 -2.9 -0.6 -0.8 -0.9 5 -2.1 5.4 -12.5 4.3z m-2.2 -14.9 c-0.3 -0.8 -1.1 -1.4 -1.8 -1.3 -1 0 -1 0.2 0 0.6 0.6 0.2 1.3 2.3 1.4 4.6 0.1 3.9 0.2 3.9 0.5 0.9 0.3 -1.9 0.2 -4 -0.1 -4.8z m-11.2 -12.4 c2.6 0 10.4 -3.9 15.3 -7.6 1.7 -1.3 3.9 -2.4 4.8 -2.4 2.6 0 6.2 -2.9 7.5 -6 1.1 -2.6 1.8 -3 5.1 -3 l3.9 0 0 7.5 c0 5.8 0.3 7.3 1.3 6.9 1.9 -0.7 5.7 -7.7 5.7 -10.5 0 -3.2 0.9 -4.3 5 -5.9 5.9 -2.4 8.2 -5 7.4 -8.5 -0.3 -1.6 -1 -3.5 -1.5 -4 -0.4 -0.6 -1.1 -3.5 -1.5 -6.5 l-0.8 -5.5 -0.8 3.9 c-0.5 2.1 -1.5 4.4 -2.2 5 -0.8 0.6 -1.6 2 -1.8 3.1 -0.2 1.5 -1.2 2.1 -3.9 2.3 -4 0.3 -3.7 0.9 -5.5 -11 -0.8 -5 1.2 -10.8 3.7 -10.8 1.6 0 1.9 -0.7 1.9 -4.1 0 -3.9 1.7 -6.9 3.9 -6.9 0.6 0 1.1 -1.1 1.1 -2.5 0 -1.4 -0.4 -2.5 -1 -2.5 -0.5 0 -1 -1.3 -1 -3 0 -2.5 -0.4 -3 -2.4 -3 -1.4 0 -2.8 -0.4 -3.1 -1 -0.3 -0.5 -2.8 -1 -5.6 -1 -4 0 -4.9 -0.3 -5 -1.7 0 -1 -1.4 -2.9 -3 -4.2 -2.9 -2.3 -3.1 -2.3 -4.4 -0.5 -0.8 1.1 -1.5 3.4 -1.5 5.2 0 3 -0.2 3.2 -3.7 3.3 -2.1 0.1 -5.1 0.4 -6.8 0.8 l-2.9 0.6 2.7 1.8 c1.5 0.9 2.7 2.6 2.7 3.7 0 1.4 0.7 2 2.3 2 1.3 0 3.5 1.3 5 2.8 2.1 2.2 2.7 3.8 2.7 7.4 0 4.4 -0.2 4.7 -4.7 7.4 l-4.8 2.9 6.5 0.6 c10.6 1 12.9 2.7 13 9.4 0 3.5 -0.6 4.7 -4 8 l-4.1 4 -12.2 0.4 c-16.7 0.6 -22.2 0.6 -28.9 -0.4 -5.7 -0.8 -5.8 -0.8 -5.8 -4.1 0 -2.3 -1 -4.4 -3 -6.8 -3 -3.4 -3 -3.4 -2.4 -12.2 0.8 -11.7 3 -15.4 9 -15.4 3.5 0 4.3 0.4 4.8 2.3 1 3.9 0.6 7.2 -1.4 11.2 -1.1 2.1 -1.8 4 -1.6 4.2 0.2 0.2 1.5 0.1 3 -0.3 2 -0.5 2.6 -1.2 2.6 -3.5 0 -3.1 2.9 -9.9 4.2 -9.9 0.4 0 0.8 -1.5 0.8 -3.2 0 -3.9 2.6 -16.4 3.9 -19.3 1.3 -2.7 3.1 -10.9 3.1 -13.8 0 -2.2 0.5 -2.5 4.6 -3 2.8 -0.3 5.3 -1.3 6.5 -2.5 2.5 -2.8 7.2 -3.6 19.6 -3.7 8.9 0 10.3 -0.2 10.3 -1.6 0 -0.9 0.6 -1.9 1.3 -2.2 1 -0.4 1.3 -2 0.9 -6 -0.4 -4.5 -0.1 -5.6 1.2 -5.9 1.4 -0.3 1.3 -0.8 -0.7 -3.8 -1.3 -1.9 -2.7 -4.7 -3.1 -6.2 -0.4 -1.7 -1.9 -3.4 -3.9 -4.4 -1.7 -0.9 -3.4 -2 -3.7 -2.4 -0.7 -1.1 -8 -3 -11.7 -3 -2.4 0 -3.3 -0.5 -3.3 -1.6 0 -1.5 -1.1 -1.6 -9.4 -1 -7 0.5 -10 0.4 -11.5 -0.6 -1.6 -1 -2.3 -1 -3.3 0 -0.6 0.6 -2.5 1.2 -4.1 1.2 -5 0 -10.3 5.2 -14.9 14.8 -3.8 7.9 -4.2 9.5 -5 20.1 -0.5 6.4 -1.3 12.3 -1.8 13.2 -0.7 1.4 -0.5 1.6 1.1 1.2 1.3 -0.4 1.9 -1.4 1.9 -3.3 0 -1.6 0.3 -3.5 0.6 -4.4 0.9 -2.2 6.9 -2 12.3 0.4 2.4 1.1 5.4 2 6.6 2 2.1 0 2.4 0.6 3 5.9 0.4 3.3 0.4 6.4 0.1 6.9 -1.1 1.9 -7.5 4.2 -11.5 4.2 -2.7 0 -4.1 0.4 -4.1 1.3 0 0.7 -2.3 1.9 -5.2 2.8 -7.5 2.2 -8.1 4.4 -7.5 27.9 0.5 18.2 0.5 18.7 3.5 25 1.7 3.6 4.2 8 5.6 9.9 1.4 1.9 2.6 4.8 2.6 6.3 0 2.5 0.4 2.8 3.1 2.8 2.4 0 4.5 1.3 9.3 5.7 l6.1 5.7 0.3 -3.7 c0.3 -3.1 0.7 -3.7 2.6 -3.7z m113.3 -56.4 c0.2 -0.2 -0.3 -2 -1.1 -4 -2.6 -6.3 -7.7 -3.5 -5.9 3.3 0.5 1.9 1 2.2 3.6 1.7 1.7 -0.3 3.2 -0.8 3.4 -1z m-51.7 -94 c0 -1.9 -0.4 -2.3 -2 -1.9 -1.1 0.3 -2 1.4 -2 2.4 0 1.2 0.7 1.9 2 1.9 1.4 0 2 -0.7 2 -2.4z m-27 -21.5 l0 -6 -4.5 1.6 c-2.5 0.8 -6.1 1.3 -8 1.1 -3.3 -0.4 -3.5 -0.2 -3.5 2.4 0 2.6 0.3 2.8 3.9 2.8 2.4 0 4.8 0.8 6.2 2 1.3 1 3.2 1.9 4.2 2 1.4 0 1.7 -0.9 1.7 -5.9z"/>
 </g>
 <g fill="#444444">
  <path d="M111.3 248.3 c-3 -0.4 -3.3 -0.7 -3.3 -3.9 0 -3 0.3 -3.4 2.5 -3.4 2 0 2.5 -0.5 2.5 -2.5 0 -1.4 0.5 -2.5 1 -2.5 0.6 0 1 0.7 1 1.5 0 0.8 0.5 1.5 1 1.5 0.6 0 1 0.6 0.9 1.3 -0.3 2.8 0.2 3.5 2.3 2.9 1.7 -0.4 2 -0.2 1.4 1.3 -0.5 1.5 -0.4 1.6 0.9 0.5 0.9 -0.7 1.3 -2 1 -2.7 -0.6 -1.7 1.1 -5.3 2.5 -5.3 1.1 0 1.3 4.3 0.4 8.9 -0.6 3 -0.8 3.1 -5.8 2.9 -2.8 0 -6.6 -0.3 -8.3 -0.5z"/>
  <path d="M155 244 c0 -0.5 1.4 -1.7 3.1 -2.5 1.9 -1.1 2.9 -2.2 2.5 -3.1 -0.3 -0.8 0.1 -1.4 0.9 -1.4 0.8 0 1.5 0.4 1.5 0.9 0 1.4 3.7 2 4.9 0.8 0.8 -0.8 1.1 -0.4 1.1 1.5 0 2.2 -0.6 2.7 -4.4 3.7 -5.5 1.4 -9.6 1.4 -9.6 0.1z"/>
  <path d="M168.1 234.1 c-1.1 -0.7 -0.9 -1.1 0.9 -2.1 2.7 -1.4 3.4 -0.9 1.7 1.3 -0.8 1.1 -1.7 1.4 -2.6 0.8z"/>
  <path d="M69 222.5 c0 -1.5 0.6 -2.5 1.5 -2.5 1.3 0 1.3 -0.5 -0.1 -3.7 -0.9 -2.1 -2 -4.6 -2.5 -5.5 -0.5 -1 -0.9 -2.8 -0.8 -4 0 -2.2 0.1 -2.2 1.2 -0.4 1.6 2.5 8.1 9.5 7.1 7.6 -0.4 -0.8 -1.7 -2.8 -2.9 -4.5 -3.5 -4.8 -3.8 -6.5 -1.1 -6.5 1.6 0 3.3 1.4 5.6 4.8 1.9 2.6 3.8 4.9 4.2 5 0.4 0.2 0.8 1 0.8 1.8 0 0.8 0.7 1.4 1.5 1.4 1 0 1.5 1 1.5 3.2 0 2.4 -0.3 2.9 -1.2 2 -1.1 -1.1 -4.6 0 -5.8 1.9 -0.3 0.5 -2.5 1.1 -4.8 1.4 -4 0.5 -4.2 0.3 -4.2 -2z"/>
  <path d="M199 219.9 c1.4 -1.1 1.8 -1.7 1 -1.3 -0.8 0.4 0.5 -1.5 3 -4.3 2.5 -2.8 6 -5.8 7.8 -6.7 3.7 -1.9 3.8 -2.2 1.6 -4.4 -1.5 -1.4 -1.5 -1.7 0.1 -2.8 1.8 -1.3 1.4 -4.4 -0.4 -4.4 -0.6 0 -0.8 0.7 -0.4 1.6 0.4 1.2 0 1.5 -1.8 1.2 -1.6 -0.2 -2.5 -1.1 -2.7 -2.5 -0.2 -1.3 -0.8 -2.3 -1.3 -2.3 -0.5 0 -0.9 -1 -0.9 -2.1 0 -2 0.1 -2.1 2.5 -0.5 1.4 0.9 2.5 1.2 2.5 0.7 0 -0.5 -0.9 -1.2 -1.9 -1.6 -1.1 -0.3 -2.6 -1.7 -3.5 -3 -1.5 -2.3 -1.5 -2.5 0.4 -3.5 1.5 -0.8 1.9 -1.7 1.4 -3.4 -0.8 -3.3 2.8 -5.6 8.8 -5.6 4.1 0 4.8 -0.3 4.8 -2 0 -1 0.7 -2.3 1.5 -2.7 1.1 -0.7 1.3 -1.6 0.7 -3.8 -1.2 -4.4 -0.4 -7.5 1.9 -7.5 1.7 0 1.9 0.8 1.8 10 0 8 -0.3 10 -1.5 10 -0.8 0 -1.4 0.5 -1.4 1 0 0.6 -1.6 1 -3.5 1 -1.9 0 -3.5 -0.4 -3.5 -1 0 -1.9 -2.9 -1 -4.8 1.5 -2.3 2.9 -1.8 6.5 0.8 6.5 1.2 0 2 1.1 2.4 3.5 0.4 1.9 1.3 3.5 2 3.5 1.7 0 2.6 2.2 2.6 6.5 0 4.6 -0.9 6.5 -3.1 6.5 -1 0 -1.9 0.6 -1.9 1.3 0 0.7 -2.6 3.8 -5.8 7 -4.4 4.4 -6.4 5.7 -8.7 5.7 l-3 0 2.5 -2.1z"/>
  <path d="M187.5 216 c-0.4 -0.6 -0.3 -1.4 0 -2 0.9 -1.5 3.5 -1.2 3.5 0.4 0 1.7 -2.7 2.9 -3.5 1.6z"/>
  <path d="M192.3 209.5 c-0.7 -2 0.2 -2.9 2.1 -2.2 0.9 0.4 1.3 1.3 1 2.2 -0.8 1.9 -2.3 1.9 -3.1 0z"/>
  <path d="M146.2 204.3 c0.3 -3.5 0.6 -3.8 3.7 -4.1 4 -0.4 6.3 1.3 3.2 2.3 -1.2 0.3 -1.8 1.1 -1.5 1.7 0.5 0.7 0 0.9 -1.3 0.6 -1.6 -0.4 -1.9 -0.2 -1.6 1.3 0.4 1.3 0 1.9 -1.1 1.9 -1.4 0 -1.7 -0.8 -1.4 -3.7z"/>
  <path d="M80 190.9 c0 -1.3 -2 -3.3 -4.2 -4.2 -2.4 -0.9 -2.6 -7.7 -0.2 -7.7 0.8 0 1.3 0.4 1 0.9 -0.3 0.4 0.6 1.9 2.1 3.2 1.4 1.3 2.3 1.8 1.9 1.2 -0.4 -0.7 -0.2 -1.3 0.4 -1.3 0.7 0 0.8 -0.6 0.1 -1.8 -0.9 -1.6 -0.6 -1.8 2 -1.4 3.5 0.5 3.7 1.4 0.7 3.4 -1.7 1.2 -2.2 2.3 -2 5.1 0.2 2.1 -0.2 3.7 -0.8 3.7 -0.5 0 -1 -0.5 -1 -1.1z"/>
  <path d="M83 190.1 c0 -2.4 2.6 -3.5 3.4 -1.5 1 2.6 0.7 3.4 -1.4 3.4 -1.3 0 -2 -0.7 -2 -1.9z"/>
  <path d="M154 184.4 c-1.4 -3.6 -1.2 -8.4 0.3 -8.4 0.6 0 2 1.8 2.9 4 1 2.5 1.2 3.8 0.5 3.4 -0.8 -0.5 -0.8 -0.3 0.1 0.7 1.8 1.9 1.5 2.9 -0.8 2.9 -1.3 0 -2.4 -1 -3 -2.6z"/>
  <path d="M129 182.3 c0 -1.3 -6.8 -3.3 -11.4 -3.3 -2.9 0 -3.6 -0.4 -3.6 -2 0 -1.5 0.7 -2 2.5 -2 1.4 0 2.5 -0.4 2.5 -1 0 -0.5 2.2 -1 4.9 -1 l5 0 0.7 4.5 c0.3 2.5 0.4 4.9 0 5.2 -0.3 0.4 -0.6 0.2 -0.6 -0.4z"/>
  <path d="M196.8 181.9 c-2.2 -1.2 -2.3 -2.6 -0.4 -4.5 1.3 -1.2 1.7 -1 3.5 1.5 2.7 3.8 1 5.4 -3.1 3z"/>
  <path d="M148 174.7 c-2 -4.3 -4.5 -4.6 -5.8 -0.8 -0.9 2.6 -1.6 3.1 -4.1 3.1 -2.9 0 -3.1 -0.3 -3.1 -3.5 0 -1.9 0.5 -3.5 1 -3.5 0.6 0 1 -0.9 1 -2 0 -1.1 0.5 -2 1 -2 0.6 0 1 -1.7 1 -3.8 0 -4.5 1.4 -6.2 5.2 -6.2 2.4 0 2.8 -0.4 2.8 -3 0 -1.6 -0.4 -3 -1 -3 -1.3 0 -1.3 -6.7 -0.1 -7.4 0.5 -0.4 3.2 -0.1 6 0.5 4 0.8 5.1 1.5 5.1 3 0 2.3 -1.5 2.5 -2.4 0.4 -0.3 -0.8 -1.2 -1.5 -2 -1.5 -2 0 -3 3.2 -1.3 4.2 1 0.5 1.4 2.8 1.5 7.5 0 3.9 0.5 6.9 1.1 7.1 0.6 0.2 1.1 0.8 1.1 1.4 0 0.5 -1.6 0.1 -3.6 -1.1 -1.9 -1.2 -3.6 -2.1 -3.8 -2.1 -0.2 0 -0.3 1.9 -0.2 4.2 0.1 3.2 0.5 4.4 1.9 4.6 1.2 0.2 1.7 -0.3 1.7 -1.9 l0 -2.2 2 2.3 c2.2 2.5 2.6 4 1 4 -0.5 0 -1.2 1.1 -1.6 2.5 -0.8 3.4 -2.6 3.1 -4.4 -0.8z"/>
  <path d="M44.2 171.7 c-0.7 -1.8 -1.1 -4.7 -1.1 -6.3 0.1 -1.7 0.3 -2.2 0.6 -1.1 0.5 1.9 2.9 2.3 3.5 0.6 0.2 -0.6 1 0.1 1.7 1.4 0.8 1.5 1 3.3 0.6 4.4 -0.7 1.7 -0.8 1.7 -1.6 -0.2 -0.7 -1.6 -0.8 -1.3 -0.6 1.3 0.5 4.2 -1.5 4.2 -3.1 -0.1z"/>
  <path d="M205.9 171.3 c-0.1 -0.5 -0.1 -1.1 0 -1.5 0 -0.5 -0.3 -0.8 -0.9 -0.8 -0.5 0 -1 -0.7 -1 -1.5 0 -0.9 -0.6 -1.8 -1.4 -2.1 -1.7 -0.7 -0.9 -4.4 1 -4.4 0.8 0 1.4 0.6 1.4 1.4 0 1.4 4.2 2.6 9.1 2.6 1.8 0 2.9 0.6 3.2 1.8 0.4 1.3 0.5 1.1 0.6 -0.5 0.1 -1.8 -0.4 -2.3 -2.4 -2.3 -2.2 0 -2.5 -0.4 -2.5 -4 0 -3.3 -0.4 -4 -1.9 -4 -1 0 -2.1 0.7 -2.5 1.5 -0.3 0.8 -1.6 1.5 -3 1.5 -2.1 0 -2.4 -0.4 -2.2 -2.7 0.1 -1.9 0.7 -2.8 1.8 -2.7 1 0.1 1.8 -0.8 2.1 -2.2 0.2 -1.3 0 -2.1 -0.4 -1.8 -0.5 0.3 -0.9 -0.4 -0.9 -1.4 0 -1.1 0.7 -2.3 1.6 -2.6 1.2 -0.4 1.4 -1.4 0.9 -3.6 -0.4 -2 -0.3 -3 0.5 -3 0.7 0 1 0.7 0.6 1.5 -0.4 1 0.1 1.5 1.5 1.5 1.1 0 1.7 0.5 1.4 1 -0.3 0.6 -0.2 1 0.3 1 1.6 0 2.4 5.1 1.1 6.6 -0.9 1.1 -0.9 2 0.1 3.9 0.7 1.3 1.7 2.2 2.3 1.8 0.5 -0.3 0.7 0.3 0.3 1.4 -0.4 1.3 0.3 3.3 1.8 5.6 2.1 3 2.2 3.8 1 4.8 -0.7 0.6 -2.3 0.9 -3.4 0.6 -1.1 -0.3 -3 0.3 -4.4 1.4 -2.4 1.9 -5.5 2.5 -5.7 1.2z"/>
  <path d="M96.6 155.8 c-1 -3.9 -0.7 -7.6 0.9 -9.2 0.8 -0.8 1.5 -2.4 1.5 -3.6 0 -1.1 0.7 -2.3 1.5 -2.6 0.8 -0.4 1.5 -1.2 1.5 -2 0 -0.8 0.4 -1.4 0.9 -1.4 1.2 0 0.5 4.8 -0.9 6.5 -0.7 0.8 -1 2.2 -0.6 3 0.3 0.8 0 1.5 -0.7 1.5 -0.7 0.1 -0.5 0.6 0.6 1.4 2.3 1.8 2.2 3 -0.7 6 -2.9 3.2 -3.2 3.2 -4 0.4z"/>
  <path d="M37.4 152.6 c-0.7 -3.9 0.3 -9.6 1.7 -9.6 0.5 0 0.9 1.5 1 3.3 0 2.6 0.2 2.8 0.8 1.2 0.7 -1.7 0.9 -1.5 1.6 1.4 0.5 2.3 0.3 3.6 -0.5 4.1 -0.7 0.4 -0.9 1.3 -0.6 1.9 0.4 0.7 -0.1 1.1 -1.3 1.1 -1.5 0 -2.2 -0.9 -2.7 -3.4z"/>
  <path d="M107.2 151.5 c-1.9 -1.3 -2.9 -2.6 -2.3 -2.9 1.5 -1 0.1 -3.8 -1.6 -3.2 -0.9 0.4 -1.3 0.1 -1 -0.6 0.2 -0.7 1.2 -1.2 2.1 -1.1 1.3 0.1 1.6 -0.4 1.3 -1.7 -0.3 -1.2 0 -1.7 1.2 -1.5 0.9 0.1 1.5 1 1.4 2 -0.1 1.2 0.4 1.5 1.8 1.2 1.2 -0.3 1.9 0 1.9 0.9 0 0.8 -0.7 1.4 -1.5 1.4 -1.7 0 -2 1.7 -0.4 2.2 0.6 0.2 0.9 1.5 0.7 3 l-0.3 2.6 -3.3 -2.3z"/>
  <path d="M218 142.6 c0 -1.7 -0.5 -2.6 -1.6 -2.6 -1.2 0 -1.5 -0.7 -1.2 -2.4 0.4 -1.9 0.1 -2.3 -1.1 -1.8 -1.4 0.5 -1.4 0.3 0.1 -1.4 1.6 -1.9 1.6 -2 -0.3 -3.3 -1.2 -0.7 -1.8 -1.5 -1.5 -1.8 0.3 -0.3 -0.2 -1.2 -1 -2.1 -0.9 -0.8 -1.4 -2.5 -1.1 -3.9 0.2 -1.2 0 -2.3 -0.4 -2.3 -0.5 0 -0.9 -0.8 -0.9 -1.7 0.1 -1.7 0.1 -1.7 1.1 0 1.1 1.8 3.4 2.3 4.3 0.8 0.9 -1.3 -3.5 -6.3 -4.9 -5.7 -0.8 0.3 -1.8 -0.1 -2.4 -0.8 -0.8 -0.9 -0.3 -1.8 2 -3.5 1.7 -1.3 2.8 -2.5 2.5 -2.8 -0.3 -0.3 0.2 -1.2 1.2 -1.9 0.9 -0.7 1.2 -1.4 0.5 -1.4 -0.6 0 -1.5 -2 -1.8 -4.4 -0.5 -2.8 -1.6 -5.3 -3.1 -6.7 -1.3 -1.2 -2.4 -3.1 -2.4 -4.1 0 -1.9 -1.5 -2.4 -2.5 -0.8 -0.3 0.6 -1.3 1 -2.1 1 -0.9 0 -1.2 -0.5 -0.8 -1.2 0.4 -0.7 -0.7 -0.2 -2.4 1.1 l-3.2 2.2 0 -7 0 -7.1 3.5 0 c1.9 0 3.5 -0.5 3.5 -1.1 0 -0.6 0.6 -1.7 1.4 -2.5 1.6 -1.5 3 -1.9 2.2 -0.5 -0.6 1 3 2.2 3.8 1.3 1.3 -1.2 0.5 -2.9 -1.9 -4.2 -3.5 -1.9 -3.1 -3 1 -3 2.2 0 3.5 0.5 3.5 1.3 0 1.8 2.4 6.7 3.3 6.7 0.8 0 0.7 7.2 -0.2 11.5 -0.5 2.4 -0.8 2.6 -1.3 1.3 -0.4 -1 -1.2 -1.8 -1.7 -1.8 -1.4 0 -2.6 7.1 -1.4 7.9 0.5 0.3 1.7 1.7 2.6 3.1 l1.7 2.4 0 -2.7 c0 -4.4 3.4 -3.6 5 1.3 0.7 2.2 1.7 4 2.1 4 0.4 0 1 3.3 1.4 7.4 0.6 5.9 0.4 7.8 -0.9 9.8 -1.3 1.9 -1.3 3 -0.4 6.1 0.6 2 1.5 3.7 2 3.7 0.4 0 0.8 1.1 0.8 2.4 0 1.4 0.5 2.8 1 3.1 0.6 0.3 1 2.6 1 5.1 0 2.4 -0.4 4.4 -1 4.4 -0.5 0 -1.3 0 -1.7 0 -0.5 0 -0.9 -1 -0.9 -2.2 -0.1 -1.2 -0.7 -2.4 -1.3 -2.6 -0.6 -0.2 -1.1 -1 -1.1 -1.8 0 -0.9 -0.4 -1.3 -0.9 -1 -1.1 0.7 -0.3 4.6 0.9 4.6 1.6 0 0.3 3.5 -1.3 3.8 -1.2 0.3 -1.7 -0.4 -1.7 -2.2z m4 -12.4 c0 -1 -0.4 -2.2 -0.9 -2.7 -1.6 -1.8 -3.2 -11.5 -2.1 -13.4 0.5 -1 0.6 -2.1 0.3 -2.5 -0.3 -0.3 0 -0.6 0.7 -0.6 1.1 0 1.1 -0.3 0.2 -1.2 -0.7 -0.7 -1.2 -2 -1.2 -3 0 -2.5 -3 -6.9 -4.1 -6.2 -1 0.6 -0.1 5.3 1.4 7.2 0.5 0.6 1.1 4.5 1.2 8.5 0.3 7.5 2.2 15.7 3.7 15.7 0.4 0 0.8 -0.8 0.8 -1.8z m-10.5 -48.3 c-0.1 -1.6 -1 -3.8 -1.9 -4.7 -1.7 -1.6 -1.8 -1.5 -1.1 1.8 0.6 2.9 2.1 6 3 6 0.1 0 0.1 -1.4 0 -3.1z"/>
  <path d="M91.6 134.6 c1.8 -1.4 1.8 -1.5 -1.1 -2.7 -2.8 -1.2 -2.9 -1.3 -0.7 -1.6 1.2 -0.3 2.2 -1 2.2 -1.8 0 -0.7 -0.8 -1.2 -1.7 -1 -2.2 0.3 -5.3 -1.2 -5.3 -2.5 0 -0.6 1.9 -1 4.3 -1 4 0 4.4 0.3 5.5 3.3 0.7 1.8 1.2 4.5 1.2 6 0 2.4 -0.4 2.7 -3.2 2.7 -3 0 -3.1 -0.1 -1.2 -1.4z"/>
  <path d="M112 131.1 c0 -1.3 2.8 -3.3 3.8 -2.8 0.4 0.3 1.4 0.2 2.1 -0.3 1.1 -0.6 1.1 -1.2 -0.1 -2.9 -1.2 -1.7 -1.7 -1.9 -2.1 -0.8 -0.3 0.8 -1.5 1.7 -2.6 2 -1.7 0.4 -2.1 0.1 -2.1 -1.9 0 -1.5 0.6 -2.4 1.5 -2.4 0.8 0 1.5 -0.7 1.5 -1.6 0 -1.4 0.8 -1.6 4.9 -1.1 3.1 0.4 5.1 0.2 5.3 -0.5 0.2 -0.5 2.5 -1.2 5.1 -1.5 3.9 -0.5 4.7 -0.3 4.7 1.1 0 0.9 -0.7 1.6 -1.5 1.6 -3 0 -1.4 2.8 2 3.4 2 0.4 3.5 1.3 3.5 2.1 0 1.1 -1.5 1.4 -6.6 1.4 -5.5 -0.1 -7.2 0.4 -10.3 2.5 -3.6 2.5 -9.1 3.5 -9.1 1.7z m13.1 -7.5 c2.5 -1.1 3 -1.6 1.9 -2.1 -0.9 -0.3 -2.7 -0.3 -4 -0.1 -1.4 0.2 -3.2 0.5 -4 0.6 -1.2 0 -1.1 0.4 0.4 1.5 2.4 1.8 1.7 1.8 5.7 0.1z"/>
  <path d="M65 128.2 c0 -0.5 0.6 -1.5 1.4 -2.1 0.7 -0.6 1.1 -2.2 0.8 -3.7 -0.5 -2.5 -0.4 -2.5 5.9 -2.2 5.1 0.2 6.4 0.6 6.7 2 0.2 1.2 -0.1 1.6 -1.1 1.2 -0.8 -0.3 -1.7 0.1 -2 0.9 -0.4 1 0.2 1.7 1.6 2.1 1.2 0.3 1.9 0.7 1.7 0.9 -1.1 1 -15 1.8 -15 0.9z"/>
  <path d="M144 118 c0 -1.1 -0.6 -2 -1.4 -2 -1.7 0 -2.6 -2.2 -2.6 -6 0 -3.8 0.9 -6 2.6 -6 0.8 0 1.4 -0.7 1.4 -1.6 0 -1.2 0.9 -1.4 3.7 -1.2 5.4 0.4 6.5 4 3.2 10.3 -1.3 2.6 -3 4.9 -3.6 5.2 -0.7 0.3 -1.3 1.1 -1.3 1.9 0 0.8 -0.4 1.4 -1 1.4 -0.5 0 -1 -0.9 -1 -2z"/>
  <path d="M155.4 111.8 c0.4 -1.3 0.9 -3.5 1.2 -5 0.8 -3.5 3.2 -3.6 4 -0.2 0.5 2 0.1 3.1 -1.9 5 -3.3 3 -4.1 3 -3.3 0.2z"/>
  <path d="M156 100.7 c0 -0.7 -0.8 -2.9 -1.8 -4.9 -1 -1.9 -1.7 -4.3 -1.6 -5.2 0.1 -0.9 -0.2 -1.6 -0.7 -1.6 -0.5 0 -0.8 -1.6 -0.6 -3.5 0.3 -1.9 0 -3.5 -0.4 -3.5 -0.5 0 -0.9 -0.9 -0.9 -1.9 0 -1.1 -0.4 -2.3 -1 -2.6 -1.4 -0.8 -1.3 -3.5 0.1 -3.5 0.6 0 0.8 0.7 0.5 1.6 -0.3 0.9 -0.2 1.2 0.5 0.9 1.3 -0.9 5.9 2.2 5.9 3.9 0 0.7 1.1 3 2.5 5 2.8 4.2 3.6 9.7 1 7.6 -1.2 -1 -1.6 -0.9 -2.1 0.5 -0.4 1 -0.2 2.6 0.4 3.6 1.7 2.6 1.5 4.9 -0.3 4.9 -0.8 0 -1.5 -0.6 -1.5 -1.3z"/>
  <path d="M147 97 c0 -2.5 -0.4 -3 -2.5 -3 -1.5 0 -2.5 -0.6 -2.5 -1.4 0 -0.8 -0.7 -1.6 -1.5 -2 -0.8 -0.3 -1.5 -1.7 -1.5 -3.1 0 -2.2 -0.4 -2.5 -3.5 -2.5 -3.1 0 -3.5 -0.3 -3.5 -2.6 0 -2.4 0.3 -2.5 2.7 -1.9 1.5 0.3 3 1 3.3 1.4 0.3 0.5 2 1.6 3.8 2.5 2.2 1.1 3.5 2.6 3.9 4.6 0.3 1.6 1.5 4 2.7 5.3 2.9 3.2 3.2 5.7 0.6 5.7 -1.6 0 -2 -0.6 -2 -3z"/>
  <path d="M55.5 96.5 c0.3 -0.8 0.7 -2.3 1 -3.2 0.4 -1.1 0.9 -1.3 1.6 -0.6 0.8 0.8 0.8 1.7 0 3.2 -1.3 2.4 -3.3 2.9 -2.6 0.6z"/>
  <path d="M187.3 89.9 c-1.4 -0.5 -2.1 -1.4 -1.7 -2.3 0.3 -0.8 0 -1.7 -0.7 -2.2 -0.8 -0.5 -1 -0.3 -0.4 0.6 0.5 0.9 0.4 1.1 -0.4 0.6 -0.6 -0.4 -1 -1.5 -0.9 -2.3 0.4 -2 -3.8 -2.5 -5.3 -0.6 -1.7 2 -3.5 1.6 -5.3 -1.1 -2.1 -3.4 -0.8 -4 6.9 -3.1 6 0.6 6.5 0.9 8.5 4.2 2.7 4.6 2.4 7.4 -0.7 6.2z"/>
  <path d="M53.4 84.7 c1.1 -2.4 2.9 -5.2 3.9 -6.1 0.9 -1 1.5 -2.2 1.2 -2.7 -0.4 -0.5 0.1 -0.6 0.9 -0.3 2.3 0.9 2 2.7 -0.8 5.3 -1.4 1.3 -2.6 3.5 -2.8 5 -0.2 1.8 -1 2.7 -2.4 2.9 l-2.2 0.3 2.2 -4.4z"/>
  <path d="M117.8 80.3 c-1.2 -0.3 -1.8 -1.4 -1.8 -3.5 0 -2.5 0.2 -2.8 1.5 -1.8 0.8 0.6 2.3 0.9 3.5 0.6 1.1 -0.3 2.9 -0.9 4 -1.2 1.4 -0.4 1.8 -0.1 1.5 0.8 -0.3 0.8 0.5 2 2 2.8 1.4 0.7 2.5 1.7 2.5 2.2 0 0.8 -10.1 0.9 -13.2 0.1z"/>
  <path d="M50 76.8 c0 -2.8 0.7 -4.2 3 -6.1 1.7 -1.4 3 -3.3 3 -4.1 0 -0.9 0.5 -1.6 1 -1.6 0.6 0 1 -0.7 1 -1.5 0 -0.9 0.9 -1.5 2.5 -1.5 1.9 0 2.3 0.4 1.8 1.8 -0.3 0.9 -1.1 2.3 -1.7 3 -0.7 1 -0.6 1.6 0.7 2.3 2.3 1.3 1.1 3.5 -2.6 5 -1.8 0.7 -4.4 2.4 -5.9 3.7 l-2.8 2.6 0 -3.6z"/>
  <path d="M162.6 79.1 c-0.4 -0.6 -0.2 -1.1 0.3 -1.1 0.6 0 1.1 -0.5 1.1 -1.1 0 -0.8 -1.3 -1 -3.7 -0.6 -4.3 0.7 -8.1 -1.6 -6.2 -3.9 0.7 -0.9 0.6 -2.1 -0.6 -4.3 -0.8 -1.7 -1.1 -3.1 -0.6 -3.1 0.6 0 0.8 -0.8 0.4 -1.7 -0.5 -1.4 -0.1 -1.3 1.9 0.5 l2.6 2.3 1.4 -2 c1.6 -2.2 1.3 -7.1 -0.4 -7.1 -0.5 0 -0.2 -1 0.6 -2.2 1.4 -2 1.4 -2.3 -0.4 -3.5 -1.2 -0.8 -1.9 -2.4 -1.8 -3.8 0.3 -2.8 0.8 -3 2.8 -1.2 1.2 1 1.2 0.9 0.4 -0.3 -1.5 -2.2 -1.6 -7.3 -0.2 -8.2 2.3 -1.4 2.6 -0.8 2.7 5.4 0 4.5 0.4 6.4 1.5 7 1 0.5 1.6 2.3 1.6 4.3 0 2.7 0.4 3.4 2.3 3.7 1.8 0.2 2.3 1 2.5 4.1 0.2 2.1 -0.1 3.7 -0.7 3.7 -0.6 0 -0.8 0.8 -0.4 1.8 0.5 1.4 0.3 1.5 -0.8 0.5 -1.6 -1.6 -3.9 -1.7 -3.9 -0.2 0 0.6 1.2 2 2.6 3.1 2 1.6 2.3 2.3 1.2 2.9 -1 0.7 -1 0.9 0 0.9 0.6 0 1.2 0.9 1.2 2 0 1.1 -0.6 2 -1.2 2 -0.7 0 -2.3 0.3 -3.4 0.6 -1.2 0.3 -2.5 0.1 -2.8 -0.5z"/>
  <path d="M105.2 78.1 c-1.1 -0.7 -1.1 -0.9 0.2 -1.4 0.9 -0.4 1.6 -1.6 1.6 -2.7 0 -1.3 0.4 -1.8 1.1 -1.5 0.6 0.4 0.8 1.3 0.6 1.9 -0.4 0.9 0.5 1.2 2.4 1.1 2.2 -0.1 2.9 0.3 2.9 1.7 0 1.4 -0.8 1.8 -3.7 1.8 -2.1 0 -4.4 -0.4 -5.1 -0.9z"/>
  <path d="M74.5 65 c-0.9 -1.4 1.9 -5.5 5 -7.6 1.4 -0.9 2.5 -2.2 2.5 -3 0 -1.5 7.4 -9.4 8.8 -9.4 1.4 0 4.2 3.5 4.2 5.1 -0.1 3.7 -6.2 9.6 -14.4 14.1 -3.6 2 -5.2 2.2 -6.1 0.8z"/>
  <path d="M130 58.2 c-0.8 -0.4 -2.7 -1.5 -4.2 -2.6 -1.9 -1.2 -3.6 -1.6 -5.3 -1.2 -3.5 0.9 -7 -1 -5.5 -3 1.8 -2.1 0.5 -4.1 -3.1 -4.9 l-3.3 -0.7 2.8 -2.4 c2.8 -2.5 7.4 -3.1 10.6 -1.4 1.2 0.7 3.2 0.5 6.5 -0.6 4.8 -1.7 10.9 -1.4 12.9 0.6 0.6 0.6 0.3 1.7 -1.2 3.3 -2.3 2.4 -2.9 6.1 -1.2 7.2 1.2 0.7 1.3 4.2 0.2 4.9 -1.5 0.9 -7.8 1.5 -9.2 0.8z m0 -10.7 c0 -2.6 -1.6 -3.1 -5.3 -1.6 -1.6 0.6 -1.6 0.9 -0.5 1.8 1.3 1 3.6 2.1 5.1 2.2 0.4 0.1 0.7 -1 0.7 -2.4z"/>
 </g>
 <g fill="#ff0000">
  <path d="M114.9 255 c-44.6 -5.6 -81.8 -31.5 -101.2 -70.5 -15.1 -30.4 -17.3 -67.3 -6 -99 12.9 -35.9 41.9 -64.9 77.8 -77.8 26.5 -9.5 58.5 -9.5 85 0 35.9 12.9 64.9 41.9 77.8 77.8 9.5 26.5 9.5 58.5 0 85 -12.9 35.9 -41.9 64.9 -77.8 77.8 -15.9 5.7 -40.5 8.7 -55.6 6.7z m7.5 -10.4 c0.6 -0.8 3.1 -1.7 5.6 -2.1 4.2 -0.7 4.4 -0.7 3 1 -1.4 1.7 -1 1.8 8.5 1.2 9.8 -0.7 23 -3.4 29 -6.1 11.7 -5.3 14.8 -7 21 -11.4 9.9 -7.1 26.8 -23.8 26.2 -26 -0.3 -1.2 -0.5 -1.1 -0.6 0.6 -0.1 1.2 -0.7 2.2 -1.6 2.2 -2 0 -1.9 -3.6 0.1 -4.4 1.5 -0.6 1.5 -0.8 0.2 -2.4 -0.9 -0.9 -1.9 -2.7 -2.2 -3.9 -0.4 -1.3 -1.3 -2.3 -2 -2.3 -0.7 0 -2.2 -1.3 -3.4 -2.9 -1.8 -2.5 -1.9 -3.1 -0.7 -4.1 0.8 -0.7 1.5 -1.9 1.5 -2.8 0 -3.1 3.1 -5.2 7.7 -5.2 2.7 0 4.3 0.5 4.4 1.3 0 1 0.2 1 0.6 0 0.2 -0.7 1.2 -1.3 2 -1.3 1.4 0 1.4 -0.2 -0.1 -1.9 -1.5 -1.7 -1.5 -1.9 0 -3.2 1.3 -1 1.5 -2.5 1.1 -6.6 -0.3 -2.9 -0.2 -5.5 0.3 -5.8 0.5 -0.3 0.6 -1.6 0.1 -2.8 -0.4 -1.2 -0.6 -2.7 -0.4 -3.3 0.2 -0.6 -0.6 -1.4 -1.8 -1.7 -1.7 -0.5 -2 -1.1 -1.5 -2.9 0.3 -1.3 0.6 -3.4 0.6 -4.8 0 -1.9 0.3 -2.1 0.9 -1.1 0.5 0.8 0.7 1.9 0.5 2.6 -0.3 0.6 0 2.2 0.5 3.6 0.9 2.1 1 2.2 1.1 0.4 0.1 -1.1 0.4 -3.8 0.6 -6 0.3 -4.3 -0.9 -6.5 -3.6 -6.5 -1.3 0 -1.9 -1 -2.2 -3.7 -0.3 -2.1 -0.4 -3.9 -0.3 -4.1 0.1 -0.2 1.2 1.2 2.4 3 l2.1 3.3 0 -3.2 c0 -1.7 -0.4 -3.4 -0.9 -3.8 -1.6 -0.9 -2.5 -9.6 -1.2 -11.6 1.5 -2.5 0.5 -8.3 -2.6 -14.6 -1.7 -3.6 -2.3 -6.1 -1.9 -7.8 0.5 -1.8 0 -3.5 -1.5 -5.6 -1.6 -2.3 -2 -3.8 -1.5 -6.4 0.4 -2.1 0.3 -3.5 -0.3 -3.5 -0.6 0 -1.3 -1.6 -1.7 -3.6 -0.4 -2.4 -1.4 -3.9 -3 -4.6 -1.6 -0.7 -2.4 -2 -2.4 -3.5 0 -1.4 -0.6 -3 -1.2 -3.7 -0.7 -0.8 -2.3 -2.5 -3.5 -4 -2.3 -2.6 -4.3 -3.4 -4.3 -1.6 0 0.6 0.9 1.9 1.9 2.9 2.8 2.8 7.2 10.7 6.4 11.4 -0.3 0.4 0 0.7 0.7 0.7 0.7 0 1.1 0.2 0.8 0.5 -1.2 1.3 -3.8 -0.9 -3.8 -3.2 0 -1.3 -0.7 -3.1 -1.5 -3.9 -0.8 -0.8 -2 -2.3 -2.7 -3.2 -2.2 -3 -23.5 -16.2 -26.1 -16.2 -0.5 0 -2.4 -1.1 -4.1 -2.4 -1.7 -1.3 -4.1 -2.6 -5.3 -3 -2.7 -0.9 -3 -2.4 -0.6 -3.3 1.1 -0.4 -1.1 -1.3 -6.2 -2.4 -7.3 -1.6 -9.8 -1.6 -31.5 -0.4 -24.4 1.4 -31.4 2.6 -39.8 6.9 -4.7 2.4 -6.6 4.1 -15.3 13.2 -3.7 4 -9.9 13.3 -9.9 15 0 0.2 0.7 0.4 1.5 0.4 0.8 0 1.5 0.6 1.5 1.4 0 1.8 -2.7 2.9 -3.3 1.3 -0.8 -2.3 -5.7 3.7 -10.1 12.4 -3.2 6.4 -4.1 9.1 -3.4 10.3 1 1.8 -0.8 5 -2.3 4.1 -2 -1.3 -4.6 11.4 -2.7 13.3 0.5 0.5 0.9 6.9 0.8 14.3 -0.1 7.4 -0.2 16.1 -0.3 19.4 0 7.1 2.8 18.6 4.8 19.8 0.8 0.4 1.5 2.1 1.5 3.6 0 5 8.4 18.1 11.6 18.1 0.6 0 1.9 1.1 2.8 2.5 2 3.1 3.4 3.2 3.8 0.3 0.3 -2.1 0.4 -2.1 2.1 -0.3 1.3 1.2 1.7 3 1.6 5.6 -0.2 2.3 0.3 4.5 1.2 5.6 0.8 1 2.8 3.7 4.3 6.1 1.6 2.3 3.5 4.2 4.2 4.2 2.6 0 5.4 3.4 5.4 6.4 0 2.2 -0.3 2.7 -1.1 1.9 -0.9 -0.9 -1.5 -0.8 -2.6 0.3 -0.8 0.8 -1.9 1.1 -2.5 0.8 -0.6 -0.4 -2 0.4 -3 1.7 -1.1 1.3 -1.7 1.8 -1.3 1.2 0.8 -1.7 -0.5 -1.6 -2.7 0.1 -1.8 1.3 -2.4 3.6 -1 3.6 0.4 0 3.2 1.5 6.1 3.4 5.3 3.4 17.9 8.8 23.5 10.1 2.6 0.5 2.8 0.4 2.3 -1.5 -0.4 -1.7 -0.2 -2 1.1 -1.4 5.4 2.2 9 3.3 11.5 3.4 3.8 0 3.4 2 -0.5 2.1 l-3.3 0.2 3.5 0.7 c5.6 1.2 7.2 1.1 8.4 -0.4z m-44 -28.4 c-1.7 -1.2 -10.1 -13.5 -11.6 -16.9 -0.8 -2.2 -1.7 -3 -2.5 -2.5 -1.4 0.9 -0.3 3.2 6.6 13.6 3.1 4.6 5 6.6 6.5 6.6 1.2 0 1.6 -0.3 1 -0.8z"/>
  <path d="M208.9 197.2 c-0.6 -1.8 -1.7 -3.2 -2.5 -3.2 -0.8 0 -1.4 -0.7 -1.4 -1.6 0 -2.6 3.2 -1.1 5.3 2.4 1.5 2.5 1.7 3.6 0.8 4.5 -0.8 0.8 -1.4 0.2 -2.2 -2.1z"/>
  <path d="M216 119 c0 -1.9 0.3 -2.1 1.2 -1.2 0.9 0.9 0.9 1.5 0 2.4 -0.9 0.9 -1.2 0.7 -1.2 -1.2z"/>
  <path d="M213.1 101.9 c-1.4 -3.9 -1.5 -7.2 -0.2 -4.9 0.9 1.7 2.3 8 1.7 8 -0.2 0 -0.9 -1.4 -1.5 -3.1z"/>
  <path d="M210.2 90 c-0.6 -1.1 -1.2 -3.2 -1.2 -4.7 0.1 -3.4 1.4 -1.4 2.3 3.5 0.8 3.7 0.6 3.9 -1.1 1.2z"/>
 </g>
 <g fill="#585858">
  <path d="M188.7 215.3 c-1.2 -1.1 -0.8 -2.3 0.8 -2.3 0.8 0 1.5 0.7 1.5 1.5 0 1.6 -1.2 2 -2.3 0.8z"/>
  <path d="M192.5 210 c-0.7 -1.2 0.2 -3 1.6 -3 0.5 0 0.9 0.9 0.9 2 0 2.1 -1.5 2.7 -2.5 1z"/>
  <path d="M153 198 c0 -4.5 2.9 -12 4.6 -12 1.4 0 2.4 3.3 2.4 8.2 0 2.6 -0.6 4.1 -2 5.1 -1.1 0.8 -1.7 1.7 -1.3 2 0.3 0.4 -0.3 0.7 -1.5 0.7 -1.9 0 -2.2 -0.6 -2.2 -4z"/>
  <path d="M130.2 184 c-0.7 -1.6 -2.2 -3.2 -3.4 -3.5 -1.3 -0.5 -1.8 -1.3 -1.5 -2.6 0.6 -2.3 -2.8 -2.7 -3.6 -0.5 -0.3 0.8 -1.4 1.3 -2.4 1.2 -2.3 -0.4 -3.1 -3.6 -0.9 -3.6 0.9 0 1.6 -0.8 1.6 -2 0 -1.6 0.7 -2 3.5 -2 2.3 0 3.5 0.5 3.5 1.4 0 0.7 0.9 1.6 2 1.9 1.2 0.3 2 1.4 2 2.5 0 1.1 0.7 2.2 1.5 2.6 1.9 0.7 2.1 7.6 0.2 7.6 -0.6 0 -1.8 -1.3 -2.5 -3z"/>
  <path d="M195.3 180.5 c-0.8 -2.1 0.1 -2.8 2.6 -2 1.8 0.5 1.9 0.8 0.7 2.1 -1.9 1.8 -2.5 1.8 -3.3 -0.1z"/>
  <path d="M136 179.1 c-1.9 -3.6 -0.8 -11.1 1.6 -11.1 1.6 0 1.6 -0.1 1.4 -12.2 l-0.1 -8.8 3.5 0 c2.8 0 3.5 -0.4 3.8 -2.2 0.2 -1.8 1 -2.2 4.6 -2.4 4.5 -0.2 7.2 -1.7 7.2 -4 0 -0.8 0.7 -1.4 1.5 -1.4 2.1 0 1.9 1.3 -0.5 3.5 -1.2 1 -2 3.1 -2 4.8 0 2.9 -0.1 3 -2 1.2 -4.9 -4.4 -6.8 2.7 -2.5 9.1 1.4 2.1 2.5 5.1 2.5 7 0 3.2 -0.1 3.3 -2.5 2.2 -1.4 -0.6 -2.5 -1.9 -2.5 -2.8 0 -2.1 -5.3 -3.3 -7 -1.6 -1.9 1.9 -1.1 4.5 1.6 5.2 3.9 1 2.7 4 -1.4 3.6 -1.8 -0.2 -3.2 0.1 -3.2 0.7 0 0.6 0.4 1.1 1 1.1 0.5 0 0.8 2.2 0.7 5 -0.2 4.4 -0.5 5 -2.4 5 -1.2 0 -2.7 -0.9 -3.3 -1.9z"/>
  <path d="M150.8 176.3 c-2.7 -0.7 -2.8 -2.9 -0.3 -5.3 l2.3 -2.1 1.6 2.2 c3.2 4.6 1.8 6.6 -3.6 5.2z"/>
  <path d="M207 170.5 c-0.7 -0.8 -0.9 -1.5 -0.4 -1.5 0.5 0 -0.2 -0.9 -1.5 -1.9 -1.3 -1 -2.1 -2.3 -1.7 -3 0.9 -1.4 7.6 -1.5 7.6 -0.1 0 0.6 0.5 1 1 1 0.6 0 1 -1.6 1 -3.5 0 -2.4 0.5 -3.5 1.5 -3.5 0.8 0 1.5 0.5 1.5 1.2 0 0.6 1.1 2.6 2.5 4.4 2.1 2.7 2.2 3.4 1 4.4 -0.8 0.7 -2.6 0.9 -4.4 0.5 -2.4 -0.5 -3.2 -0.2 -4.1 1.4 -1.3 2.5 -2.3 2.6 -4 0.6z"/>
  <path d="M96.4 154.3 c0.9 -8 1.6 -10.3 3.1 -10.3 1.6 0 2.6 3.8 1.1 4.4 -0.7 0.3 -0.4 1.1 0.9 2.1 1.7 1.4 1.8 1.8 0.5 2.8 -0.8 0.7 -2.1 2.4 -2.9 4 -2.3 4.5 -3.4 3.2 -2.7 -3z"/>
  <path d="M204.8 155.8 c1.2 -1.3 2.2 -3.2 2.2 -4.1 0 -1 0.7 -2 1.5 -2.3 1 -0.4 1.2 -1.1 0.6 -2.1 -1.1 -2.1 -0.2 -5.3 1.5 -5.3 0.8 0 1.4 0.5 1.4 1.1 0 0.6 0.7 1.7 1.5 2.6 2 1.9 1.5 4.8 -0.8 4.7 -2.2 -0.2 -2.1 0.5 0.5 3.3 1.2 1.3 1.9 2.5 1.7 2.8 -0.3 0.2 -3.2 0.7 -6.5 1.1 l-5.9 0.7 2.3 -2.5z"/>
  <path d="M105.5 148.2 c0.3 -0.7 0.5 -2.7 0.5 -4.3 0 -1.9 0.5 -2.9 1.5 -2.9 0.9 0 1.2 0.6 0.9 1.5 -0.8 2 2 2 3.6 0 0.7 -0.8 1.6 -1.2 2.1 -0.9 0.5 0.3 0.9 0 0.9 -0.5 0 -0.6 0.9 -0.3 2 0.6 1.1 1 2 2.1 2 2.5 0 0.5 -0.9 0.8 -2 0.8 -1.5 0 -2 0.7 -2 2.5 0 2.5 -0.2 2.6 -5 2.4 -3.9 -0.2 -4.9 -0.6 -4.5 -1.7z"/>
  <path d="M128 144 c0 -0.5 -1.1 -1 -2.5 -1 -2.2 0 -2.5 -0.4 -2.5 -3.5 0 -3 0.3 -3.5 2.4 -3.5 1.4 0 2.8 -0.5 3.1 -1.1 0.5 -0.7 1.3 -0.5 2.5 0.6 1.5 1.4 2.2 1.4 4 0.5 1.5 -0.8 2.5 -0.9 3.3 -0.1 0.7 0.7 0.2 1.2 -1.7 1.7 -2.7 0.7 -3.7 3.4 -1.1 3.4 2 0 1.9 2.6 -0.1 3.4 -2.5 1 -7.4 0.7 -7.4 -0.4z"/>
  <path d="M82 141.2 c0 -2.5 0.5 -3 3 -3.5 4.1 -0.9 8.2 -3.7 7.6 -5.3 -0.3 -0.9 0.2 -1.4 1.4 -1.4 2.9 0 2.9 7 0.1 7.7 -1.1 0.3 -2.1 1.5 -2.3 2.7 -0.3 1.8 -1.1 2.1 -5 2.4 -4.7 0.3 -4.8 0.3 -4.8 -2.6z"/>
  <path d="M215.9 140.9 c-0.6 -1.2 -0.9 -3 -0.6 -4 0.3 -1 0.1 -1.7 -0.4 -1.3 -0.5 0.3 -0.9 0.1 -0.9 -0.5 0 -0.5 0.5 -1.3 1.1 -1.7 0.8 -0.5 0.6 -1 -0.5 -1.6 -0.9 -0.5 -1.6 -1.5 -1.6 -2.2 0 -0.8 -0.7 -1.9 -1.5 -2.6 -1.7 -1.4 -2 -5 -0.5 -5 0.6 0 1 0.7 1 1.5 0 0.8 0.4 1.5 1 1.5 0.5 0 2.5 1.6 4.5 3.5 3.7 3.8 4.6 7.5 1.9 7.5 -1.2 0 -1.4 0.4 -0.6 1.3 0.5 0.6 1.3 2.2 1.6 3.5 0.6 1.8 0.3 2.2 -1.3 2.2 -1.1 0 -2.5 -0.9 -3.2 -2.1z"/>
  <path d="M116.7 140.2 c-2.2 -2.4 -2.1 -3.2 0.3 -3.2 1.5 0 2 0.7 2 2.5 0 3 -0.2 3 -2.3 0.7z"/>
  <path d="M144.3 137.8 c-1.1 -1.3 -2.3 -3 -2.6 -4 -0.3 -0.9 -2.2 -2.2 -4.1 -2.9 -3.6 -1.3 -5 -3.9 -2.1 -3.9 0.8 0 1.5 -0.6 1.5 -1.4 0 -1.8 3.3 -1 5.5 1.4 0.9 1 1.7 2.9 1.9 4.2 0.1 1.3 0.9 3.8 1.8 5.6 1.9 3.7 1 4.2 -1.9 1z"/>
  <path d="M114.3 132.2 c-1.3 -0.2 -2.3 -0.7 -2.3 -1.2 0 -1.3 3.3 -2.8 4.8 -2.3 0.8 0.3 1.6 -0.4 1.9 -1.6 0.3 -1.2 1 -2.1 1.7 -2.1 0.6 0 2.1 -0.3 3.4 -0.7 2.1 -0.5 2.3 -0.3 2 2.3 -0.2 2.2 -0.8 2.9 -2.5 3 -1.2 0.1 -3.3 0.8 -4.5 1.5 -1.3 0.8 -3.3 1.3 -4.5 1.1z"/>
  <path d="M112 123.5 c0 -2.2 0.4 -2.5 3.5 -2.5 2.4 0 3.5 -0.5 3.5 -1.5 0 -1 1.1 -1.5 3.5 -1.5 2.4 0 3.5 0.5 3.5 1.5 0 0.8 -0.6 1.5 -1.2 1.6 -4.4 0.3 -7.5 1.3 -9.1 3 -2.4 2.6 -3.7 2.4 -3.7 -0.6z"/>
  <path d="M139.8 121.6 c-3 -1 -3.8 -3.6 -1.3 -3.6 0.8 0 1.5 -0.4 1.5 -1 0 -0.5 -0.7 -1 -1.6 -1 -1.2 0 -1.4 -1 -1.2 -4.7 0.3 -4.1 0.6 -4.8 2.6 -5.1 1.2 -0.2 2.2 -0.8 2.2 -1.4 0 -1.8 4.4 -5.8 6.6 -5.8 2.8 0 5.4 7.2 3.6 10.1 -0.7 1 -1.8 2.9 -2.4 4.2 -0.7 1.2 -1.9 2.6 -2.5 3 -0.7 0.4 -1.3 1.7 -1.3 2.7 0 2.7 -2.9 3.9 -6.2 2.6z m7 -11.3 c0.4 -2.4 -2.4 -3.9 -3.2 -1.7 -0.7 1.9 0.4 4.6 1.8 4.1 0.6 -0.2 1.2 -1.3 1.4 -2.4z m3.2 -4.3 c0 -1.1 -0.6 -2 -1.4 -2 -0.9 0 -1.2 0.7 -0.9 2 0.3 1.1 0.9 2 1.4 2 0.5 0 0.9 -0.9 0.9 -2z"/>
  <path d="M215.2 119.8 c-0.7 -0.7 -1.2 -1.7 -1.2 -2.3 0 -1.8 -3.9 -4.5 -5.5 -3.9 -1 0.4 -1.5 0 -1.5 -1 0 -0.9 0.4 -1.6 0.9 -1.6 0.5 0 1.6 -0.7 2.5 -1.5 2.2 -2.3 1.4 -13 -1.2 -15.9 -1.1 -1.1 -2.3 -3.4 -2.6 -5.1 -0.8 -3.3 -2.3 -5.5 -3.8 -5.5 -0.5 0 -0.7 0.8 -0.4 1.8 0.3 0.9 0.1 2.4 -0.4 3.2 -0.7 1.1 -1 1.1 -1 0.2 0 -0.7 -0.5 -1 -1.1 -0.7 -1.7 1.1 -3.8 -2.7 -3.9 -6.6 l0 -3.7 5.6 -0.7 c3.1 -0.4 5.8 -0.4 6.2 -0.1 0.3 0.3 -0.2 0.6 -1.1 0.6 -2.3 0 -2.1 2.1 0.2 2.7 1.9 0.5 3.5 4.3 5.1 12.3 1.6 8.1 4 17.1 5.1 19.2 0.8 1.6 0.8 2.3 -0.2 2.9 -1.2 0.7 -1.2 1.2 -0.1 3 1.6 2.4 0.3 4.6 -1.6 2.7z"/>
  <path d="M155.9 108.8 c-0.4 -8.8 -0.7 -11.6 -1.4 -13.8 l-0.8 -2.5 2.2 2.7 c2.5 3.1 4.8 10.3 4.3 13.6 -0.2 1.4 -1 2.2 -2.3 2.2 -1.3 0 -1.9 -0.7 -2 -2.2z"/>
  <path d="M158 92 c-1.4 -1.1 -3.1 -1.8 -3.7 -1.5 -0.8 0.2 -1.3 -0.4 -1.3 -1.5 0 -1.6 0.7 -2 3.5 -2 3.7 0 4.9 1.3 4.3 4.9 -0.3 2 -0.3 2 -2.8 0.1z"/>
  <path d="M141 92 c0 -0.5 -1.3 -1 -3 -1 -2 0 -3 -0.5 -3 -1.5 0 -0.8 -0.7 -1.5 -1.6 -1.5 -0.9 0 -1.8 -0.9 -2.1 -2 -0.3 -1.1 -1.6 -2.3 -2.9 -2.6 -1.3 -0.3 -2.4 -1.2 -2.4 -1.8 0 -0.8 -1.1 -1.1 -2.9 -0.8 -4.3 0.6 -9.1 -1.8 -9.1 -4.5 0 -2.6 2.2 -3 4 -0.8 0.9 1.1 1.6 1.3 2.4 0.5 1.5 -1.5 2.7 -1.2 2.4 0.8 -0.2 1.2 0.3 1.6 1.7 1.4 1.9 -0.4 9.6 1.7 10.5 2.8 0.3 0.3 2 1.2 3.8 1.9 1.7 0.8 3.2 1.9 3.2 2.7 0 0.7 0.6 1.7 1.3 2.1 0.6 0.4 1.8 1.8 2.5 3.1 1.1 2.1 1 2.2 -1.8 2.2 -1.6 0 -3 -0.4 -3 -1z"/>
  <path d="M58.7 79.3 c-0.3 -0.5 -0.2 -1.5 0.2 -2.2 0.7 -1 1 -1 1.6 -0.1 0.4 0.6 0.3 1.6 -0.3 2.2 -0.5 0.5 -1.2 0.6 -1.5 0.1z"/>
  <path d="M162.6 75.5 c-2.2 -1.2 -3.2 -1.2 -4.3 -0.4 -0.7 0.7 -1.5 1 -1.6 0.8 -1.1 -1.4 -2.8 -8.9 -2.3 -9.7 0.3 -0.6 0.2 -1.3 -0.4 -1.7 -0.5 -0.3 -1 -1.1 -1 -1.8 0 -0.6 1.5 0.3 3.3 1.9 1.7 1.7 4.4 3.5 5.9 4.2 1.6 0.6 3 2.2 3.4 3.6 1 4 0.2 4.7 -3 3.1z"/>
  <path d="M167 67 c-1.4 -1.1 -3.1 -2 -3.8 -2 -0.7 0 -1.1 -0.4 -0.8 -0.9 0.3 -0.5 -0.1 -1.4 -0.9 -2.1 -2 -1.7 -1.9 -4.7 0.3 -5.9 1.5 -0.9 1.4 -1.2 -1.2 -4 l-3 -3.1 3.7 0 c3.5 0 3.6 0.1 4.3 4.5 0.4 2.7 1.2 4.5 1.9 4.5 1.2 0 3.3 9.5 2.3 10.5 -0.2 0.2 -1.4 -0.5 -2.8 -1.5z"/>
  <path d="M79 61.9 c0 -2.1 6.2 -8.9 8.1 -8.9 2.9 0 2.3 1.4 -2.6 5.9 -4.7 4.3 -5.5 4.8 -5.5 3z"/>
  <path d="M128 55.4 c-0.7 -1.3 -2.5 -2.7 -4 -3.2 -2.8 -1 -7.6 -7.5 -6.6 -9 0.3 -0.5 4.3 -0.9 8.8 -0.8 7.7 0.1 8.3 0.2 8 2.1 -0.6 3.4 -0.5 4.9 0.2 7.6 0.7 2.3 0.3 2.9 -2.2 4.2 -2.8 1.4 -3.1 1.3 -4.2 -0.9z"/>
  <path d="M172.3 46 c-0.4 -1.3 -1.4 -2 -3 -2 -3.8 0 -6.3 -1.8 -6.3 -4.6 0 -2.2 0.3 -2.4 2.3 -1.8 1.2 0.4 3.6 1.7 5.3 3 1.7 1.3 3.6 2.4 4.3 2.4 1.6 0 6.1 3 6.1 4.1 0 0.5 -1.8 0.9 -4.1 0.9 -3.2 0 -4.2 -0.4 -4.6 -2z"/>
 </g>
 <g fill="#b0b0b0">
  <path d="M111.2 218 c-0.8 -1.6 -1.2 -4.4 -1 -6.2 0.3 -3.2 0.4 -3.3 5.1 -3.4 2.6 0 5.3 -0.6 5.9 -1.2 0.7 -0.7 2.2 -1.2 3.4 -1.2 1.3 0 2.6 -0.4 2.9 -1 0.3 -0.5 0.1 -1 -0.4 -1 -1.5 0 -1.4 -6.7 0.2 -7.3 0.6 -0.3 -0.3 -0.6 -2 -0.6 -1.8 -0.1 -3.3 -0.3 -3.3 -0.5 0 -0.4 10.2 -10.6 10.6 -10.6 0.2 0 0.4 1.4 0.4 3 0 2 0.5 3 1.5 3 1.1 0 1.5 1.2 1.5 4.5 0 3.3 -0.4 4.5 -1.5 4.5 -0.8 0 -1.5 0.7 -1.5 1.5 0 0.8 0.5 1.5 1 1.5 0.6 0 0.9 1.7 0.9 3.8 -0.2 3 -0.3 3.2 -0.6 1 -0.6 -3.6 -1.8 -3.5 -3.3 0.2 -1.3 3.1 -4.9 6 -7.5 6 -0.8 0 -3.6 1.5 -6.3 3.4 l-4.8 3.5 -1.2 -2.9z"/>
  <path d="M142 212.3 c0 -3.1 0.7 -5.9 2 -7.8 2.9 -4.3 2.5 -5.5 -1.5 -5.5 l-3.5 0 0 -5.5 0 -5.5 4.1 0 4.2 0 -0.5 5.3 c-0.3 2.8 -0.3 4.4 -0.1 3.5 0.3 -1.1 1.4 -1.8 2.8 -1.8 2.7 0 3.5 -1.7 3.5 -7 0 -7.1 2.4 -9.3 4.8 -4.3 1.6 3.6 1.5 6.4 -0.3 9.9 -0.8 1.6 -1.5 4.1 -1.5 5.5 0 2.1 -0.7 2.8 -3.9 3.7 -3.2 1 -3.8 1.6 -3.4 3.5 0.5 2.3 -4.2 10.7 -5.9 10.7 -0.4 0 -0.8 -2.1 -0.8 -4.7z"/>
  <path d="M70.2 205.5 l-2.2 -3.5 3 0 c2.8 0 3 0.3 3 3.5 0 4.4 -0.9 4.4 -3.8 0z"/>
  <path d="M205.1 201.3 c-0.1 -2.3 0.4 -3.3 1.4 -3.3 0.8 0 1.5 -0.9 1.5 -2 0 -1.1 0.4 -2 1 -2 1.5 0 3.1 3.7 2.3 5.5 -0.5 1.5 -0.3 1.6 1.5 0.6 2 -1.1 2.2 -0.9 2.2 1.4 0 1.6 -0.6 2.5 -1.5 2.5 -0.8 0 -1.5 -0.4 -1.5 -1 0 -1.5 -5.7 -1.2 -6.3 0.3 -0.3 0.6 -0.6 -0.3 -0.6 -2z"/>
  <path d="M106.5 198.3 c-5.3 -0.6 -7.5 -1.3 -7.5 -2.3 0 -0.6 0.9 -1 2 -1 1.1 0 1.9 -0.6 1.8 -1.2 -0.4 -2 5.4 -2.3 6.4 -0.4 0.5 0.9 2.2 1.6 3.8 1.6 2.3 0 3 0.5 3 2 0 2.1 -1.7 2.3 -9.5 1.3z"/>
  <path d="M98.2 187.6 c-1.7 -1.9 -1.6 -1.9 1.7 -1.3 1.8 0.4 4.4 0.7 5.7 0.7 1.6 0 2.2 0.4 1.8 1.4 -0.8 2.1 -7.1 1.6 -9.2 -0.8z"/>
  <path d="M146.9 181.1 c0.8 -0.5 1.5 -2.6 1.7 -4.8 0.1 -2.2 0.7 -3.7 1.3 -3.5 0.7 0.1 1.4 -0.5 1.7 -1.3 0.9 -2.2 1.9 -1.8 3.2 1 1.8 4 1.5 6.5 -0.8 6.5 -1.1 0 -2 0.7 -2 1.5 0 1 -1 1.5 -3.2 1.5 -2.3 0 -2.9 -0.3 -1.9 -0.9z"/>
  <path d="M125.8 176.9 c-2.5 -2.9 -2.7 -2.9 -3.3 -1 -0.3 1.2 -1.2 2.1 -1.8 2.2 -0.7 0 -2.2 0.2 -3.4 0.5 -1.7 0.3 -2.3 -0.1 -2.3 -1.5 0 -1 0.7 -2.1 1.5 -2.5 0.8 -0.3 2 -1.7 2.7 -3.1 0.9 -2 1.8 -2.5 4.9 -2.5 4.4 0 5.9 1.9 5.9 7.4 0 4.3 -0.7 4.4 -4.2 0.5z"/>
  <path d="M136.2 169.8 c-1.5 -3 -2.5 -12.2 -1.7 -14.7 0.3 -1.2 1.5 -2.1 2.6 -2.1 1.4 0 1.9 -0.7 1.9 -3 0 -2.5 -0.4 -3 -2.4 -3 -1.4 0 -2.8 -0.4 -3.1 -1 -0.3 -0.5 -1.5 -1 -2.6 -1 -1.4 0 -1.9 -0.7 -1.9 -2.5 0 -1.4 0.5 -2.5 1 -2.5 0.6 0 1 0.4 1 0.8 0 0.5 2.1 0.6 4.8 0.2 2.7 -0.5 5.8 -0.3 7.2 0.3 1.4 0.5 3.4 1 4.5 1.1 1.1 0.1 2.1 0.9 2.3 2 0.3 1.1 0 1.6 -0.7 1.2 -0.6 -0.4 -1.1 -0.3 -1.1 0.3 0 0.5 0.5 1.3 1 1.6 0.6 0.4 0.8 1.5 0.5 2.4 -0.3 1.1 0.3 2.5 1.5 3.6 2.4 2.1 2.6 4.5 0.5 4.5 -0.8 0 -1.5 0.5 -1.5 1.1 0 0.6 -0.6 0.9 -1.2 0.6 -0.8 -0.2 -1.2 -1.5 -1 -3 0.3 -2.2 -0.1 -2.7 -1.9 -2.7 -1.7 0 -1.9 -0.3 -1 -1.4 0.9 -1.1 0.7 -1.5 -0.7 -1.8 -1.8 -0.5 -1.9 0.1 -1.8 8.1 0.1 7.3 -0.1 8.9 -1.9 10.8 -2.5 2.8 -2.9 2.8 -4.3 0.1z"/>
  <path d="M208 167.3 c0 -0.7 -0.7 -1 -1.5 -0.7 -3.6 1.4 -5.8 -4.2 -3.5 -8.7 1.4 -2.5 3 -2.4 3 0.1 0 2 2.6 2.6 8.3 2.1 0.9 -0.1 1.8 0.4 1.8 1.1 0.1 0.7 0.3 2.7 0.5 4.3 0.3 2.9 0.2 3 -4.1 3 -2.9 0 -4.5 -0.4 -4.5 -1.2z"/>
  <path d="M110.2 156.9 c1.2 -1.8 0.9 -2.4 -1.8 -4.7 -2.9 -2.5 -3.1 -3.1 -2.5 -7 0.3 -2.3 1.1 -4.1 1.6 -4 0.6 0.2 0.9 0.7 0.7 1.1 -0.4 1.2 1.7 4.7 2.8 4.7 0.6 0 1 -1.1 1 -2.5 0 -1.8 0.5 -2.5 2 -2.5 1.7 0 2 0.7 2 4 0 2.2 -0.4 4 -0.9 4 -0.5 0 -0.6 2 -0.3 4.5 0.5 4.5 0.4 4.5 -2.7 4.5 -2.9 0 -3 -0.1 -1.9 -2.1z"/>
  <path d="M210.2 148.8 c-1.6 -1.6 -1.5 -6.8 0.1 -6.8 0.7 0 1.8 1.4 2.4 3.1 1.7 4.4 0.2 6.4 -2.5 3.7z"/>
  <path d="M100 140.5 c0 -2.7 0.4 -3.5 1.9 -3.5 1.3 0 1.8 0.6 1.6 2.4 -0.6 5.5 -3.5 6.4 -3.5 1.1z"/>
  <path d="M216.4 141.8 c-0.9 -1.4 -1.4 -5.8 -0.7 -5.8 1.1 0 3.2 3.5 3.3 5.3 0 1.9 -1.5 2.3 -2.6 0.5z"/>
  <path d="M144.2 137 c-1.3 -1.6 -1.8 -3 -1.3 -3 0.5 0 1.9 1.4 3.1 3 1.2 1.7 1.7 3 1.3 3 -0.5 0 -1.9 -1.3 -3.1 -3z"/>
  <path d="M135.6 136.6 c2.1 -1.5 3 -1.4 1.9 0.3 -0.3 0.6 -1.4 1.1 -2.3 1.1 -1.3 0 -1.3 -0.2 0.4 -1.4z"/>
  <path d="M121 134 c0 -1.8 3.9 -3.1 6 -2 3.2 1.7 2.3 3 -2 3 -2.2 0 -4 -0.4 -4 -1z"/>
  <path d="M114.3 133.3 c-0.7 -0.3 -1.3 -1.3 -1.3 -2.4 0 -1.4 0.7 -1.9 2.9 -1.9 1.6 0 3.9 -1 5.5 -2.5 2.8 -2.6 4.6 -3.2 4.6 -1.5 0 0.6 0.7 1 1.5 1 0.8 0 1.5 0.9 1.5 2 0 1.7 -0.6 2 -4.5 1.8 -3.3 -0.1 -5.1 0.4 -6.8 1.9 -1.2 1.1 -2.8 1.8 -3.4 1.6z"/>
  <path d="M138.9 130.9 c-0.8 -0.5 -2.4 -0.9 -3.6 -0.9 -1.4 0 -2.3 -0.6 -2.3 -1.5 0 -0.8 -0.7 -1.5 -1.5 -1.5 -0.8 0 -1.5 -0.9 -1.5 -2 0 -2.3 1 -2.4 6.3 -0.9 3.7 1 7.7 4 7.7 5.8 0 1.3 -3.6 2 -5.1 1z"/>
  <path d="M98 122 l0 -4 4 0 4 0 0 4 0 4 -4 0 -4 0 0 -4z"/>
  <path d="M137.8 120.8 c-3.7 -1 -5.3 -3.8 -2.2 -3.8 1.1 0 0.8 -0.6 -1 -2.2 -2 -1.8 -2.6 -3.6 -3.1 -8.9 l-0.7 -6.5 3.6 -1 3.7 -0.9 -2.7 -5.2 c-2.4 -4.6 -3.2 -5.3 -7.2 -6.3 -2.5 -0.6 -5.1 -1.8 -5.7 -2.7 -0.7 -0.9 -3.5 -1.8 -7.1 -2.2 -5.1 -0.5 -5.9 -0.9 -6.2 -2.8 -0.2 -1.6 0.2 -2.3 1.2 -2.3 0.9 0 2.5 -0.6 3.6 -1.2 1.5 -0.9 2.3 -1 2.8 -0.2 1.3 2 5.7 3.8 9 3.5 1.7 -0.1 3.2 0.3 3.2 0.8 0 0.5 1.3 1.2 2.9 1.6 1.9 0.4 2.8 1.2 2.7 2.3 0 0.9 0.5 1.6 1.2 1.4 0.8 -0.1 1.6 0.7 1.9 1.8 0.4 1.4 1.3 2.1 2.7 1.9 3.3 -0.2 5 0 4.3 0.7 -0.3 0.3 1 2.6 2.9 5.1 1.9 2.4 3.4 5 3.4 5.8 0 1.4 -7.3 9 -9.5 9.9 -2.7 1 -1.7 3.6 1.4 3.6 3.7 0 5.4 1.9 3.7 4.3 -0.7 0.9 -1.8 1.7 -2.5 1.7 -0.6 0 -1.1 0.7 -1.1 1.5 0 1.7 0 1.7 -5.2 0.3z"/>
  <path d="M147.5 112.1 c-0.8 -1.5 0.3 -3.1 2.1 -3.1 0.9 0 1.4 0.7 1.2 1.7 -0.4 2 -2.4 2.8 -3.3 1.4z"/>
  <path d="M212.2 104.6 c0 -1.9 -0.3 -4.3 -0.7 -5.5 -0.3 -1.2 -0.2 -2.1 0.4 -2.1 1.1 0 1.8 1.9 2.6 7.3 0.5 2.8 0.3 3.7 -0.8 3.7 -1 0 -1.5 -1.1 -1.5 -3.4z"/>
  <path d="M155.8 98.5 c-0.4 -2 -0.3 -2.3 0.8 -1.4 1.6 1.3 1.9 3.9 0.5 3.9 -0.5 0 -1.1 -1.1 -1.3 -2.5z"/>
  <path d="M197.7 96 c-0.9 -1.1 -2.5 -2 -3.5 -2 -2.4 0 -7.1 -4.3 -9.3 -8.4 -1.5 -2.8 -2.1 -3 -6.6 -3.1 -3.4 0 -5.7 -0.6 -7 -1.7 -1.1 -1 -2.5 -1.8 -3.1 -1.8 -0.7 0 -1.2 -0.7 -1.2 -1.5 0 -0.8 -0.6 -1.5 -1.4 -1.5 -2 0 -10.6 -4 -10.6 -4.9 0 -0.5 0.6 -1.4 1.4 -2 1.9 -1.6 5.8 -0.6 12.4 3.1 8.7 4.9 8.3 1.6 -0.5 -4.7 -6.1 -4.4 -8.4 -7.8 -6.5 -9.7 1.8 -1.8 1.4 -3.6 -1.3 -6 -2.3 -2 -2.4 -2.3 -0.9 -3.9 0.8 -0.9 1.1 -2 0.6 -2.3 -1.3 -0.8 -1.2 -5.8 0 -7.3 1.5 -1.8 3.9 -1.5 6.6 0.6 2.8 2.4 2.8 3.1 -0.2 3.1 -2.3 0 -2.4 0.3 -1.9 3.8 0.3 2 1 4.1 1.4 4.6 0.5 0.6 0.9 1.7 0.9 2.6 0 2.5 2.4 7 3.8 7 0.6 0 1.2 0.7 1.2 1.5 0 0.8 0.8 1.5 1.8 1.5 1 0 3 0.6 4.5 1.3 2.2 1 2.7 1.9 2.7 5 l0 3.7 4.3 0 c5.1 0 6.7 1.3 6.7 5.6 0 1.9 0.6 3.4 1.5 3.8 1.2 0.4 1.5 -0.3 1.5 -2.9 0 -2.8 0.4 -3.5 2 -3.5 1.8 0 2 -0.7 2 -6.5 0 -3.6 0.4 -6.5 0.8 -6.5 1.2 0 5.3 7.6 4.5 8.4 -0.3 0.3 -0.1 0.6 0.6 0.6 0.7 0 1 0.4 0.7 0.9 -0.3 0.5 0.1 1.1 0.9 1.5 1.9 0.7 1.9 2.6 0 2.6 -1.9 0 -2 2.9 -0.1 3.6 0.8 0.3 2.2 1.7 3.2 3.1 1.6 2.5 1.6 2.6 -0.4 2.1 -1.2 -0.3 -2.3 -0.1 -2.6 0.6 -0.2 0.6 -0.5 0 -0.5 -1.3 -0.1 -1.3 -0.4 -2.2 -0.7 -1.8 -0.3 0.3 -1.4 -0.3 -2.5 -1.4 -2 -2 -4.9 -2.6 -4.9 -0.9 0 0.5 1.1 1.7 2.5 2.6 2.9 1.9 2.9 3.6 0 4 -1 0.1 -2.8 1.2 -3.9 2.4 l-2.1 2 3 2.4 c1.7 1.3 2.8 2.7 2.4 3 -0.3 0.3 -1.3 -0.3 -2.2 -1.4z"/>
  <path d="M158.9 92.4 c-1.4 -1.4 -3.1 -2.3 -4.1 -2.1 -2 0.6 -3.8 -3.5 -1.9 -4.1 0.6 -0.2 1.1 -1.5 1.1 -2.8 0 -3.2 1.7 -3.1 3.3 0.3 0.6 1.5 2.4 4 3.9 5.5 1.6 1.6 2.5 3.4 2.2 4.3 -0.8 2.1 -1.7 1.9 -4.5 -1.1z"/>
  <path d="M91 79 c-1.3 -0.9 -1.3 -1.2 0.2 -2 0.9 -0.6 2.4 -1.7 3.2 -2.5 1.3 -1.3 2.1 -1.2 6.5 0.8 7.2 3.1 6.7 4.7 -1.6 4.7 -3.8 0 -7.5 -0.5 -8.3 -1z"/>
  <path d="M185 66.5 c0 -3.3 0.2 -3.5 3.5 -3.5 3.3 0 3.5 0.2 3.5 3.5 0 3.3 -0.2 3.5 -3.5 3.5 -3.3 0 -3.5 -0.2 -3.5 -3.5z"/>
  <path d="M178.5 50.1 c-0.3 -0.5 -1.9 -1.2 -3.5 -1.6 -2.5 -0.6 -3 -1.1 -3 -3.6 0 -3 0 -3 2.8 -1.6 1.5 0.8 4.8 2.4 7.5 3.6 2.6 1.1 4.7 2.5 4.7 3.1 0 1.3 -7.7 1.3 -8.5 0.1z"/>
  <path d="M124 46.5 c-0.7 -0.9 -1 -1.8 -0.7 -2.1 1 -1.1 3.7 0.5 3.7 2.1 0 1.9 -1.4 1.9 -3 0z"/>
 </g>
 <g fill="#d0d0d0">
  <path d="M123.2 246.2 c-1.4 -0.9 -0.7 -3.8 1.5 -6 0.7 -0.7 1.3 -2.4 1.3 -3.8 0 -1.6 0.6 -2.4 1.8 -2.4 0.9 0 3.4 -0.3 5.5 -0.6 3.4 -0.6 3.7 -0.5 3 1.2 -0.3 1.1 -1.8 3.7 -3.2 5.9 -1.4 2.2 -2.4 4.3 -2.3 4.8 0.1 0.4 -0.4 0.7 -1 0.7 -0.7 0 -2.2 0.3 -3.3 0.5 -1.1 0.3 -2.6 0.1 -3.3 -0.3z"/>
  <path d="M105.4 243.9 c-2.4 -0.7 -3.3 -1.6 -3.9 -4.1 -0.4 -1.8 -0.7 -3.6 -0.6 -4 0 -0.5 -1.5 -1.8 -3.4 -3 -1.9 -1.3 -3.5 -2.6 -3.5 -3 0 -0.5 2.3 -0.8 5.1 -0.8 4 0 5 -0.3 4.6 -1.4 -0.5 -1.1 0.2 -1.1 3.4 0.3 3.2 1.3 3.9 2 3.4 3.7 -0.3 1.5 0.2 2.4 1.9 3.3 1.8 1 5.3 7.9 4.3 8.7 -1.1 0.8 -8.9 1 -11.3 0.3z m2.6 -6.8 c0 -0.5 -0.7 -1.1 -1.5 -1.5 -1.5 -0.5 -2 0.5 -0.8 1.7 0.9 1 2.3 0.9 2.3 -0.2z"/>
  <path d="M103 221.5 c0 -1.4 0.5 -2.5 1 -2.5 0.6 0 1 -0.6 1 -1.4 0 -0.7 0.9 -2.5 2 -3.8 1 -1.4 2.2 -4.4 2.6 -6.7 0.6 -3.7 0.9 -4.1 3.6 -4.1 2.9 0 3 -0.1 2.3 -3.8 l-0.6 -3.8 6.5 -1.3 c3.6 -0.7 6.4 -1.7 6.1 -2.1 -0.2 -0.4 0.4 -1.5 1.5 -2.5 2 -1.8 2 -1.7 2.2 1.6 0 1.9 0.1 4 0.1 4.7 -0.1 0.6 0.3 1.2 0.8 1.2 0.5 0 0.9 -0.7 0.9 -1.5 0 -0.8 0.5 -1.5 1 -1.5 0.6 0 1 1.6 1 3.5 0 1.9 0.4 3.5 1 3.5 0.5 0 1.2 1.1 1.6 2.5 0.4 1.8 1.3 2.5 3 2.5 2 0 2.4 0.5 2.4 3.3 0 4.6 -1.2 5.9 -5.1 5.5 -3.3 -0.3 -3.4 -0.5 -3.7 -5 -0.3 -5.4 -1.7 -6.2 -3.4 -2 -0.7 1.5 -1.3 2.8 -1.4 3 -0.1 0.2 -1.1 -0.1 -2.2 -0.7 -1.5 -0.8 -2.3 -0.6 -3.6 0.8 -0.9 1 -1.3 2.1 -0.9 2.6 0.5 0.4 0.3 0.5 -0.4 0.2 -0.6 -0.4 -1.3 -0.4 -1.5 0.1 -0.9 2.3 -13.7 10.2 -16.5 10.2 -0.7 0 -1.3 -1.1 -1.3 -2.5z m13 -8.5 c0 -1.1 -0.4 -2 -0.9 -2 -1.4 0 -2.3 1.8 -1.6 3 1 1.7 2.5 1.1 2.5 -1z m11.8 -9.7 c-1 -0.2 -1.8 -1.1 -1.8 -1.9 0 -0.8 -0.4 -1.4 -1 -1.4 -0.5 0 -1 0.9 -1 2 0 1.5 0.6 2 2.8 1.9 1.6 -0.1 2 -0.3 1 -0.6z"/>
  <path d="M144.6 203.9 c-1 -5.2 -0.7 -7.9 0.9 -7.9 0.8 0 1.5 -0.9 1.5 -2 0 -1.6 0.7 -2 3.3 -2 4.6 0 5.9 1.2 5.1 4.4 -0.5 2.2 -1.1 2.6 -2.8 2.2 -1.8 -0.4 -2.4 0.1 -3.6 3.6 -1.9 5.2 -3.5 5.8 -4.4 1.7z"/>
  <path d="M201.7 201.4 c-2.2 -2 -2.6 -2.9 -1.6 -4 1.3 -1.6 3.9 -1.9 3.9 -0.4 0 0.6 0.6 1 1.3 1 0.9 0 1.2 -1.1 0.9 -3.5 -0.5 -4 0.9 -4.6 3.2 -1.3 2.5 3.6 2.1 7.5 -0.9 8.2 -1.4 0.4 -2.5 1.1 -2.5 1.6 0 1.6 -1.4 1.1 -4.3 -1.6z"/>
  <path d="M153 184.2 c0 -1.5 -0.7 -1.7 -4.2 -1.4 l-4.3 0.4 2.3 -2.2 c1.4 -1.4 2.3 -3.2 2.2 -4.8 -0.3 -4.1 0 -4.9 1.1 -3 0.5 0.9 1.5 1.5 2.3 1.2 2 -0.8 3.5 1.8 4.2 7 0.6 4.2 0.5 4.6 -1.5 4.6 -1.3 0 -2.1 -0.6 -2.1 -1.8z"/>
  <path d="M135.1 180.1 l-3.3 -3 0.6 -8.3 c0.3 -4.6 0.6 -10.4 0.6 -13 -0.1 -2.7 0.4 -4.8 0.9 -4.8 1.9 0 1.2 -3.5 -0.9 -4.8 -1.1 -0.7 -2 -1.8 -2 -2.6 0 -2.1 3.1 -2.8 5 -1.1 0.9 0.8 2.6 1.5 3.8 1.5 2 0 2.2 0.5 2.2 4.9 0 2.7 0.3 5.6 0.6 6.4 0.4 1.2 0 1.4 -1.6 1 -3 -0.8 -4.4 1.6 -2.2 4 1.4 1.5 1.4 2 0.2 2.7 -1.2 0.7 -1.2 1.2 0 3.4 1.1 2.1 1.1 3.1 0.1 5.2 -1 2.3 -0.9 3.1 1.4 6.3 1.4 2.1 2.5 4 2.5 4.4 0 1.8 -5 0.4 -7.9 -2.2z"/>
  <path d="M109 177.3 c0 -3.2 5 -7.3 8.8 -7.3 1.2 0 2.2 -0.5 2.2 -1.1 0 -0.6 1.7 -0.9 4.3 -0.7 4.1 0.3 4.2 0.4 4.5 4.1 0.3 4 -1.1 4.9 -2.8 1.7 -1.4 -2.7 -2.2 -2.5 -4.1 0.8 -1 1.8 -3 3.2 -5.6 4 -6.2 1.8 -7.3 1.6 -7.3 -1.5z"/>
  <path d="M92.6 165.9 c-0.9 -4.6 -0.7 -7.9 0.4 -7.9 0.6 0 1 -1.6 1 -3.6 0 -4.9 1.6 -7.4 4.6 -7.4 1.5 0 2.3 0.4 1.9 1.1 -0.4 0.6 -0.9 2.7 -1.1 4.7 -0.9 9.5 -1.5 12.2 -3.1 14.2 -2.4 2.7 -2.9 2.5 -3.7 -1.1z"/>
  <path d="M210.4 164.9 c-1.7 -1.9 -5 -2.7 -3.9 -1 0.8 1.4 -1 2.2 -3 1.5 -2.4 -0.9 -1.1 -7.2 2 -10.2 1.4 -1.2 2.2 -2.8 1.9 -3.6 -0.3 -0.8 0 -1.7 0.7 -2.2 0.8 -0.4 1 -0.3 0.5 0.4 -0.4 0.7 -0.3 1.2 0.3 1.2 0.6 0 2.4 1.3 4.1 3 2.2 2.2 3 3.8 3 6.5 0 1.9 0 3.8 0.1 4.2 0 0.4 -0.8 1 -1.9 1.4 -1.4 0.5 -2.6 0.2 -3.8 -1.2z"/>
  <path d="M110 162.6 c0 -0.9 -0.8 -1.6 -1.7 -1.6 -1.3 0 -1.1 -0.6 1.2 -2.9 l2.8 -3 -3.5 -3.4 c-3.2 -3.1 -3.4 -3.5 -1.8 -4.5 1 -0.6 2.7 -0.8 3.9 -0.5 1.8 0.4 2.1 0.1 1.9 -1.8 -0.3 -2.1 0.1 -2.4 2.9 -2.4 3.2 0 3.2 0 1.2 -2.1 -2.6 -2.8 -2.4 -4.4 0.6 -4.4 1.4 0 2.9 -0.8 3.5 -2 0.6 -1.1 2 -2 3.1 -2 1.9 0 2 0.4 1.4 4.3 -0.4 2.3 -1.1 4.4 -1.6 4.5 -0.5 0.2 -0.9 1.7 -0.9 3.3 0 2.6 -0.3 2.9 -3.4 2.9 -2.9 0 -3.4 0.4 -3.9 2.7 -0.7 3.6 0.1 5.3 2.4 5.3 1.5 0 1.9 0.7 1.9 3.7 l0 3.6 -2.4 -2.2 -2.4 -2.3 -1.4 2.8 c-1.5 3.1 -3.8 4.3 -3.8 2z"/>
  <path d="M210.7 149.2 c-2.2 -2.4 -0.6 -5.2 1.7 -3.3 1.7 1.5 2.1 3.7 0.7 4.5 -0.4 0.3 -1.5 -0.2 -2.4 -1.2z"/>
  <path d="M218.7 148.3 c-2.1 -4.2 -4 -12.3 -2.9 -12.2 1.9 0.1 5.4 6.3 5.8 10.4 0.5 5.1 -0.8 5.9 -2.9 1.8z"/>
  <path d="M79 140.9 c0 -3.3 0.3 -4 1.6 -3.5 0.9 0.3 2.5 0.6 3.6 0.6 1.4 0 1.8 0.5 1.4 1.6 -0.4 1.1 -0.1 1.4 1.2 1.2 0.9 -0.2 1.7 -1.2 1.7 -2.2 0 -1 1 -2.2 2.3 -2.7 2 -0.8 2.2 -0.6 2.2 3.1 0 3.3 -0.3 4 -2 4 -1.1 0 -2 0.5 -2 1 0 0.6 -2.2 1 -5 1 l-5 0 0 -4.1z"/>
  <path d="M214.1 130.5 c-1.8 -2.5 -2.9 -4.5 -2.4 -4.5 3 0.1 5.5 1.7 7.3 4.7 2.4 4.2 2.5 4.3 0.2 4.3 -1.1 0 -3.3 -2 -5.1 -4.5z"/>
  <path d="M100.6 130.8 c-0.4 -1.8 -1 -5 -1.3 -7 -0.5 -3.8 -0.5 -3.8 3.1 -3.8 2 0 3.6 0.5 3.6 1 0 0.6 0.7 1 1.5 1 0.9 0 1.5 0.9 1.5 2.5 0 1.8 -0.5 2.5 -2 2.5 -1.6 0 -2 0.7 -2 3.5 0 2.8 -0.4 3.5 -1.9 3.5 -1.3 0 -2.1 -1 -2.5 -3.2z"/>
  <path d="M113.4 132.6 c-2.3 -1.8 -1.4 -2.9 1.9 -2.4 2.2 0.3 2.4 0.5 1.3 2 -1.1 1.5 -1.5 1.6 -3.2 0.4z"/>
  <path d="M132 127.5 c0 -2.1 0.5 -2.5 3 -2.5 3.3 0 3.5 0.3 2 3.1 -1.6 2.9 -5 2.5 -5 -0.6z"/>
  <path d="M136.7 120.3 c-1.3 -0.3 -1.7 -1.1 -1.4 -2.4 0.4 -1.3 0 -1.9 -1.3 -1.9 -2.9 0 -3.7 -2.1 -4.5 -11.1 -0.5 -6.2 -0.3 -9.2 0.6 -10.6 2.1 -3.4 0.4 -6.9 -4.6 -9.3 -3.5 -1.7 -4.5 -2.7 -4.5 -4.6 0 -1.8 0.4 -2.2 1.8 -1.7 0.9 0.3 2.2 1.2 2.9 2 0.6 0.8 1.6 1.2 2.2 0.8 0.6 -0.3 1.1 -0.2 1.1 0.4 0 0.6 0.6 0.8 1.4 0.5 3.4 -1.3 11.6 11.2 11.6 17.8 0 1 0.5 1.8 1 1.8 0.6 0 1 0.5 1 1 0 0.6 -1 0.4 -2.2 -0.4 -1.3 -0.8 -3.5 -1.2 -5 -0.9 -2.4 0.4 -2.6 0.8 -1.7 2.4 0.5 1.1 0.7 2.8 0.4 3.9 -0.4 1.3 0.3 2.5 2.5 4.1 1.6 1.3 3 3.1 3 4 0 2.3 -1 4.9 -1.9 4.8 -0.3 -0.1 -1.4 -0.3 -2.4 -0.6z"/>
  <path d="M188.8 90.7 c-2.9 -2.3 -3.7 -4.7 -1.7 -4.7 0.6 0 0.1 -0.8 -1.2 -1.9 -2 -1.6 -2.2 -2.1 -1 -3.5 0.8 -0.9 2 -1.5 2.8 -1.2 1.7 0.7 1.7 -0.8 -0.1 -2.3 -1.9 -1.6 -4.5 -0.3 -5.2 2.5 -0.7 2.8 -1.7 3 -3.8 0.8 -1.3 -1.3 -2.2 -1.4 -4.6 -0.6 -1.7 0.6 -3 0.7 -3.2 0.1 -0.2 -0.5 -1.5 -1 -3 -1.1 -1.5 -0.1 -2.6 -0.5 -2.5 -0.8 0.1 -0.3 -1.4 -2 -3.3 -3.9 -3.1 -3.1 -3.3 -3.5 -1.6 -4.1 2 -0.7 9.1 2.4 11.1 4.7 0.5 0.7 2.6 1.6 4.5 2 l3.5 0.6 -3.2 -3.2 c-3.5 -3.4 -4.1 -5.6 -2 -6.4 0.8 -0.3 0.6 -0.7 -0.6 -1.2 -1 -0.4 -2.3 -0.3 -2.9 0.3 -0.8 0.8 -1.8 0.6 -3.4 -0.5 -3 -1.9 -3.1 -3.7 -0.3 -3 2 0.5 2 0.4 -0.5 -2.2 -1.4 -1.5 -2.6 -3.6 -2.6 -4.6 0 -1 -1.2 -3.2 -2.7 -4.7 -2.1 -2.2 -2.3 -2.8 -1 -2.8 2 0 2.1 -0.4 0.5 -3.3 -1.7 -3 -2 -5.7 -0.7 -5.7 0.5 0 0.8 -0.4 0.5 -0.8 -0.2 -0.4 0.4 -0.9 1.6 -0.9 2.2 -0.2 12.8 4.5 12.8 5.7 0 0.4 1.1 1.1 2.5 1.4 3.9 1 3.2 3.6 -1 3.6 -2.4 0 -3.5 -0.5 -3.5 -1.5 0 -0.8 -0.9 -1.5 -1.9 -1.5 -1.1 0 -2.3 -0.5 -2.6 -1 -1.2 -1.9 -2.5 -1 -2.5 1.6 0 3.4 2 5.2 6.1 5.6 3.1 0.3 3.4 0.6 3.7 4 0.2 2.4 -0.1 3.7 -1 4 -1 0.2 -0.9 0.7 0.4 2.1 1.7 1.6 1.8 1.6 1.8 -1.3 0 -2.9 0.2 -3 4.5 -3 3.3 0 4.5 0.4 4.5 1.5 0 1 1 1.5 2.9 1.5 1.6 0 3.1 0.4 3.3 0.8 0.6 1.5 7.5 6.2 9 6.2 0.9 0 1.8 0.9 2.1 2 0.3 1.1 0.1 2 -0.4 2 -1.4 0 -1.1 2.8 0.7 5.5 1.4 2.2 1.4 2.5 0.1 3.1 -0.9 0.3 -2.5 0.1 -3.6 -0.6 -3.2 -1.6 -2.8 1.3 0.5 3.9 2.7 2.1 2.5 4.1 -0.4 3.6 -0.9 -0.1 -2.2 0.2 -2.9 0.7 -0.9 0.7 -2.1 0.3 -3.9 -1.1 -1.5 -1.2 -3.1 -2.1 -3.6 -2.1 -1.3 0 -0.5 2.1 0.7 2.2 1.3 0.1 3.4 2.9 3.5 4.6 0 1.8 -2.2 1.4 -5.2 -1.1z m-5.8 -21.7 c0 -1.3 -0.7 -2 -2 -2 -1.9 0 -2.7 2 -1.3 3.3 1.3 1.4 3.3 0.6 3.3 -1.3z"/>
  <path d="M151.6 85.7 c-0.9 -3 -1.6 -6.2 -1.6 -7.1 0 -4 5.5 0.3 7 5.5 1.4 4.9 1.3 6.2 -0.7 5.5 -0.9 -0.4 -2 -0.1 -2.4 0.5 -0.4 0.7 -1.4 -1.2 -2.3 -4.4z"/>
  <path d="M97.8 80.3 c-2.8 -0.7 -2.1 -2.7 1.2 -4 1.7 -0.6 3 -0.7 3 -0.2 0 1.2 3.7 1.2 4.4 0 0.9 -1.4 6.1 0.3 6.4 2.1 0.4 2.2 -9.4 3.6 -15 2.1z"/>
  <path d="M183 50.5 c0 -2.9 1.1 -3.1 4.5 -0.9 3.5 2.3 3.1 3.4 -1 3.4 -3.1 0 -3.5 -0.3 -3.5 -2.5z"/>
 </g>
 <g fill="#ffffff">
  <path d="M122.8 245.5 c-0.3 -0.3 -0.1 -2.9 0.4 -5.8 0.9 -5 3 -8 7.5 -10.5 1.2 -0.7 2 -3.7 3 -11.3 1.3 -10.1 1.1 -13.9 -0.7 -13.9 -0.5 0 -1.1 0.8 -1.4 1.8 -0.4 1.1 -1.6 1.7 -3.6 1.7 -1.6 0 -3 0.5 -3 1 -0.1 0.6 -1.5 2.4 -3.2 4.2 -4 4.2 -6.2 3.4 -5.4 -1.9 0.5 -3 0.3 -4 -0.9 -4.4 -2.2 -0.9 -3.3 0.5 -1.5 1.7 1.3 0.8 1.3 1.1 -0.3 2 -0.9 0.6 -1.5 1.5 -1.1 2 0.3 0.5 -0.6 2.3 -2 4 -1.4 1.7 -2.6 3.5 -2.6 4 0 1.7 -2.8 3.9 -4.9 3.9 -1.2 0 -2.1 0.3 -2.1 0.8 0.1 1.1 7.4 4.2 10.1 4.2 1.3 0 2.9 0.4 3.5 0.8 1.4 0.9 0.6 11.2 -0.8 11.2 -0.6 0 -0.8 0.8 -0.4 1.8 0.3 0.9 -0.2 0.6 -1.2 -0.8 -0.9 -1.4 -3.4 -4.3 -5.5 -6.5 -3.7 -3.8 -3.9 -3.9 -5.3 -2.1 -0.8 1.1 -1.4 1.5 -1.4 0.9 0 -0.6 -1.5 -1.7 -3.2 -2.4 -4.5 -1.8 -19.6 -16.6 -24.8 -24.1 -6.7 -9.8 -7.2 -11.8 -7.7 -34.9 -0.5 -17.6 -0.3 -21.4 1.1 -26 2.9 -8.9 2.7 -8.6 3.6 -6.3 0.8 2 1.2 2 4.4 1 3.1 -0.9 3.3 -1.2 1.5 -1.8 -2.4 -0.9 -2.2 -3.6 0.3 -5.2 1.3 -0.8 2.2 -0.6 4.1 1.2 1.3 1.2 3.1 2.2 4 2.2 0.9 0 1.7 0.5 1.7 1 0 0.6 -0.7 1 -1.5 1 -0.8 0 -1.5 0.5 -1.5 1 0 0.6 0.7 1 1.5 1 2.6 0 6.5 -2.3 6.5 -3.8 0 -0.8 0.7 -2 1.5 -2.6 1.1 -0.8 1.3 -2.1 0.9 -4.8 -0.6 -3.2 -1.1 -3.8 -3.1 -3.8 -1.3 0 -3.8 -0.7 -5.5 -1.6 -3.3 -1.7 -6.1 -2.2 -12.7 -2.3 l-4.4 -0.1 0.8 -3.2 c0.4 -1.8 1 -6.9 1.4 -11.4 0.6 -6.5 1.5 -9.7 4.9 -16.6 6.6 -13.6 11.8 -16.7 24.8 -14.7 2.8 0.4 6.9 0.4 9 -0.1 2.4 -0.6 4.3 -0.5 5.1 0.1 0.7 0.6 2.6 0.8 4.3 0.4 2.4 -0.5 3.8 -0.1 6.3 1.8 1.8 1.4 5.3 3.2 7.7 4 2.5 0.9 3.9 1.6 3.1 1.7 -1.1 0 -1.1 0.3 -0.1 1.5 0.8 1 1 2.8 0.5 5.1 -0.5 3.2 -0.4 3.6 1 3 1 -0.3 2.7 0.2 4.2 1.4 l2.6 2 -3.1 0 c-1.7 0 -3.2 -0.6 -3.5 -1.2 -0.3 -1 -0.7 -1 -2 0.1 -1.9 1.5 -2.3 4.1 -0.6 4.1 0.5 0 0.7 0.5 0.4 1 -0.3 0.6 -0.2 1 0.3 1 2 0 2.3 3.4 0.5 4.8 -2.4 1.7 -0.6 4.5 3.3 5.2 2.1 0.4 2.9 1.1 2.9 2.5 0 3.4 -1.6 4 -12.2 5.2 -8.7 0.9 -10.8 1.5 -13.4 3.7 -3 2.6 -8.9 3.6 -8.9 1.6 0 -0.5 -0.6 -1 -1.4 -1 -1.1 0 -1.2 0.8 -0.5 3.8 1.1 5.2 -0.6 12.5 -5.1 21.2 -1.1 2.2 -1.6 4.7 -1.3 6.4 0.4 2.1 0.1 3.3 -1.2 4.3 -1.1 0.7 -1.3 1.3 -0.7 1.3 1.4 0 0.7 3.9 -1.4 8.2 -1.3 2.5 -1.2 2.7 2.7 4.7 2.2 1.2 4.8 2.1 5.9 2.1 2 0 8.5 -3.4 10.8 -5.7 0.8 -0.8 2.7 -2 4.3 -2.8 3.5 -1.9 3.6 -4.1 0.4 -7.7 -2.4 -2.8 -6.1 -2.9 -5.1 -0.1 0.3 0.8 -0.7 2.1 -2.7 3.3 -4.3 2.7 -6 2.6 -5.2 -0.2 0.9 -2.9 6 -7.9 7.1 -7 0.5 0.4 0.3 0 -0.4 -0.9 -1.2 -1.6 -1.3 -9.1 -0.1 -8.3 0.4 0.2 0.9 -1 1.3 -2.6 0.6 -3.2 3.1 -4 5.5 -1.8 1.1 1 1 0.8 0 -1 -0.8 -1.2 -1.8 -2.2 -2.3 -2.2 -0.4 0 -0.3 -0.6 0.3 -1.4 0.9 -1.1 0.9 -1.5 -0.1 -1.9 -0.7 -0.2 -0.7 -0.3 0.2 -0.2 0.8 0.2 2.4 0.6 3.4 1.1 1.6 0.6 1.8 0.4 1.3 -1.1 -1.8 -4.6 4.5 -6 8.4 -1.9 2.2 2.3 2.2 2.7 0.8 3.7 -1.4 1 -1.4 1.4 -0.3 2.5 0.8 0.7 1.8 1.1 2.3 0.8 0.5 -0.3 1.4 0.1 2.1 0.9 0.7 0.8 2.7 1.6 4.4 1.6 2.3 0.1 2.5 0.3 0.9 0.6 -2.7 0.5 -3 3.4 -0.8 5.7 2 2 1.9 2.3 -1.2 3.1 -1.8 0.4 -2.3 0.9 -1.4 1.4 0.8 0.5 1 1.8 0.5 3.6 -0.5 1.8 -0.2 3 0.7 3.6 1.1 0.7 1.1 0.9 -0.2 0.9 -0.9 0 -1.9 1 -2.3 2.3 -0.8 3.1 -0.8 3.4 1 5.1 1.4 1.5 1.4 1.6 0 1.6 -2.7 0 -1.8 2.4 2.4 5.9 3 2.5 4 4.1 4 6.3 0 1.7 0.4 2.7 1 2.3 0.6 -0.3 1 -1.5 1 -2.5 0 -1.1 0.9 -2.4 2.1 -3.1 1.7 -0.8 2 -1.8 1.7 -4.5 -0.2 -1.9 -0.3 -3.4 -0.1 -3.4 0.1 0 1.8 1.5 3.8 3.4 3.6 3.6 4 5 3.7 14.5 -0.2 5.3 -0.2 5.3 -3.2 4.9 -2.4 -0.4 -3 -0.1 -3 1.4 0 1 -0.7 1.8 -1.7 1.8 -1.5 0 -1.6 0.2 -0.3 1 1.2 0.7 1.1 1.6 -0.8 6.2 -1.2 2.9 -2.2 6.3 -2.2 7.5 0 2 -2.2 4.6 -6.5 7.8 -2 1.4 -2 1.4 0.3 0.8 1.2 -0.3 2.2 -0.4 2.2 -0.2 0 1.1 -4.4 11.8 -5.8 14.1 -1.6 2.7 -4.2 3.8 -4.2 1.8 0 -0.5 -0.5 -1 -1.1 -1 -0.6 0 -0.9 1 -0.7 2.3 0.4 2.3 -1.2 4.7 -3.2 4.7 -0.5 0 -1 0.5 -1 1 0 1.1 -1.3 1.3 -2.2 0.5z m10.2 -50.7 c0 -0.7 -0.9 0.2 -2 2 -2.6 4.2 -2.6 5.2 0 1.9 1.1 -1.4 2 -3.1 2 -3.9z m-7 0.7 c0 -0.8 0.5 -1.5 1 -1.5 0.6 0 1 -0.8 1 -1.7 0 -1 0.7 -2.7 1.5 -3.7 1.9 -2.5 1.9 -5 0.1 -6.5 -0.7 -0.6 -1.9 -3.2 -2.6 -5.6 -1.4 -4.8 -2.8 -6.5 -3.9 -4.6 -0.4 0.6 -2.5 1.3 -4.6 1.5 -3.9 0.4 -5.6 1.8 -3.6 3.1 2.4 1.4 0.7 2.4 -6.1 3.5 -5.2 0.9 -8.8 1 -12.8 0.2 -5.4 -0.9 -7.5 -0.6 -11.3 2 -1.5 1.1 -2.1 1 -3.3 -0.7 -1.7 -2.3 -1.2 -6 1.6 -11.8 1.8 -3.9 1.7 -7.7 -0.4 -7.7 -2.7 0 -5.5 6.4 -5.7 13.2 -0.2 6.2 0 7 2.4 9.2 2 1.8 2.7 3.6 2.8 6.3 0.1 3.6 0.2 3.6 0.8 0.9 0.8 -3.7 2.8 -4.4 4 -1.4 1.5 4 3.9 5.2 9.8 5.2 4.1 -0.1 5.7 -0.6 6.8 -2 0.7 -1 1.7 -1.5 2.1 -1.1 0.5 0.4 0.2 1.2 -0.6 1.7 -1.6 1 1.8 1.3 13.3 1.1 3.1 0 5.7 0.4 5.7 0.9 0 0.6 0.5 1 1 1 0.6 0 1 -0.7 1 -1.5z m17.2 -2 c0.3 -1.4 0.1 -2.5 -0.3 -2.5 -0.5 0 -0.9 1.1 -0.9 2.5 0 1.4 0.2 2.5 0.4 2.5 0.2 0 0.6 -1.1 0.8 -2.5z"/>
  <path d="M98.5 188 c-0.3 -0.5 -1.9 -0.7 -3.5 -0.3 -2.2 0.4 -3 0.2 -3 -0.9 0 -0.8 0.3 -1.7 0.6 -2 0.8 -0.9 9.4 2.2 9.4 3.3 0 1.2 -2.7 1.2 -3.5 -0.1z"/>
  <path d="M106.5 244.3 c-3 -0.8 -4.4 -2.2 -4 -4.1 0.2 -0.9 0.4 -2 0.4 -2.4 0.2 -1.4 1.6 -0.8 4.9 2.2 1.9 1.6 3.1 3.4 2.7 4 -0.7 1.1 -0.8 1.1 -4 0.3z"/>
  <path d="M201.2 201.2 c-1.6 -0.5 -0.1 -5 1.9 -5.5 1.1 -0.3 1.9 -1.4 1.9 -2.6 0 -1.2 0.6 -2.1 1.6 -2.1 1.8 0 4.6 6.2 3.8 8.3 -0.5 1.4 -6.9 2.7 -9.2 1.9z"/>
  <path d="M202 163.6 c0 -2.2 2.6 -6.5 4.1 -6.9 1.1 -0.3 1.9 -1.1 1.8 -1.9 -0.4 -3.5 0.4 -3.6 4 -0.2 2.9 2.7 3.9 4.3 3.9 6.5 -0.1 2.5 -0.5 2.9 -2.8 2.9 -1.5 0 -3.3 -0.7 -4 -1.5 -1.4 -1.6 -4 -2 -4 -0.6 0 0.5 -0.7 1.1 -1.5 1.5 -0.8 0.3 -1.5 0.4 -1.5 0.2z"/>
  <path d="M144 144.4 c0 -0.9 0.7 -1.4 1.7 -1.2 2.5 0.5 2.8 2.8 0.4 2.8 -1.2 0 -2.1 -0.6 -2.1 -1.6z"/>
  <path d="M218 143.6 c0 -0.8 -0.6 -1.6 -1.2 -1.9 -0.7 -0.2 -0.9 -0.8 -0.5 -1.3 0.4 -0.4 1.6 -0.3 2.5 0.2 2.3 1.5 2.8 4.4 0.8 4.4 -0.9 0 -1.6 -0.6 -1.6 -1.4z"/>
  <path d="M66 136 c-1.8 -3.4 -1.5 -8.1 0.6 -9.7 2.7 -2.1 11 -1.2 13.6 1.5 l2.1 2.1 -5.6 1.6 c-3.5 1 -6.4 2.6 -7.6 4.1 l-2 2.5 -1.1 -2.1z"/>
  <path d="M215.1 130.8 c-4.2 -4.3 -5.3 -7.2 -2.6 -6.2 0.8 0.4 1.5 1 1.5 1.5 0 0.5 0.7 0.9 1.5 0.9 1.4 0 5 6.8 4.1 7.7 -0.2 0.3 -2.3 -1.5 -4.5 -3.9z"/>
  <path d="M112.5 132 c-1.1 -1.7 0.5 -3 3.7 -3 3 0 3.1 0 1.3 2 -2 2.2 -4 2.6 -5 1z"/>
  <path d="M123.1 129 c-0.6 -0.3 -0.8 -1.5 -0.5 -2.7 0.7 -2.5 5.6 -3.7 10.9 -2.7 4.5 0.8 5.2 2.1 2.6 4.5 -1.6 1.5 -3.3 1.9 -7.1 1.8 -2.7 -0.2 -5.4 -0.5 -5.9 -0.9z"/>
  <path d="M187.8 89.2 l-2.3 -2.5 3 0.7 c1.7 0.4 3.6 1.3 4.3 2 1.1 1.1 1 1.4 -0.7 1.9 -1.3 0.3 -2.7 -0.4 -4.3 -2.1z"/>
  <path d="M153.5 85.7 c-1.2 -0.7 -2.2 -2.5 -2.3 -4.4 -0.5 -5.2 2.8 -4 5.3 2 1.7 4 0.8 4.7 -3 2.4z"/>
  <path d="M191 85.6 c-1.4 -0.6 -2.8 -1.5 -3.1 -2 -0.4 -0.4 -1.1 -0.6 -1.7 -0.2 -0.6 0.3 -1.4 0.1 -1.8 -0.5 -0.8 -1.4 1.4 -2.9 4.4 -2.9 1.2 0 2.2 -0.3 2.2 -0.7 0 -1.5 -1.7 -3.4 -3.1 -3.6 -0.8 -0.2 -1.9 -0.6 -2.6 -1 -1.5 -0.9 -4.5 0.2 -3.7 1.5 0.4 0.6 0 1.4 -0.7 1.9 -2 1.3 -2.9 1.1 -2.3 -0.4 0.3 -0.8 -0.6 -2.5 -2 -3.8 -2.7 -2.5 -3.5 -5.9 -1.4 -5.9 0.7 0 -0.8 -1.5 -3.3 -3.2 -6.4 -4.7 -7 -5.5 -7.1 -8.8 -0.1 -1.6 -0.4 -3 -0.8 -3 -1 0 -2.1 -8.8 -1.4 -11.5 0.5 -2.1 0.8 -2.2 3.7 -1.2 4.8 1.5 8.1 3.1 8.9 4.1 0.3 0.5 1.7 1.1 2.9 1.3 1.3 0.2 2.8 0.8 3.3 1.3 0.6 0.6 1.8 1 2.7 1 1 0 1.9 0.3 2.1 0.8 0.2 0.4 2.1 1.7 4.3 2.9 2.2 1.2 4.7 3.5 5.6 5.3 0.8 1.7 2 3.5 2.6 3.8 1.4 0.9 4.3 6.7 4.3 8.5 0 3 -4.4 2.7 -9.2 -0.6 -2.7 -1.7 -4.8 -3.5 -4.8 -3.9 0 -0.5 -0.6 -0.8 -1.3 -0.8 -0.7 0 -1.3 0.9 -1.3 2 0 1.4 1.7 2.8 6.1 4.9 3.3 1.7 7.3 4.1 9 5.5 2.6 2.3 2.7 2.6 1.1 3.2 -1 0.4 -2.7 0.2 -3.7 -0.4 -2.8 -1.8 -3.1 -1.5 -1.5 1.7 1.2 2.3 1.3 3.1 0.3 3.8 -2.2 1.8 -4.2 2 -6.7 0.9z m-8 -23.1 c0 -0.8 -0.7 -1.5 -1.5 -1.5 -1.6 0 -2 1.2 -0.8 2.3 1.1 1.2 2.3 0.8 2.3 -0.8z"/>
  <path d="M172 79.2 c0 -0.6 -0.7 -0.9 -1.5 -0.6 -0.8 0.4 -1.5 0.1 -1.5 -0.6 0 -0.6 -0.4 -0.8 -1 -0.5 -0.5 0.3 -2.1 -0.5 -3.3 -1.9 -1.3 -1.4 -2.7 -2.2 -3.2 -1.8 -0.4 0.4 -0.6 -0.2 -0.4 -1.2 0.5 -2.6 2.3 -3 4.3 -1.1 0.9 0.9 2.5 1.7 3.6 1.8 1.1 0.1 2 0.5 2 0.9 0 0.5 0.9 1.2 1.9 1.6 1.7 0.6 1.8 0.9 0.5 2.6 -0.8 1.1 -1.4 1.5 -1.4 0.8z"/>
 </g>
</svg>