<svg width="256" height="256" viewBox="0 0 256 256" fill="none" xmlns="http://www.w3.org/2000/svg">
<path d="M128 256C153.316 256 178.063 248.493 199.113 234.428C220.162 220.363 236.568 200.373 246.256 176.983C255.945 153.595 258.479 127.858 253.54 103.029C248.602 78.199 236.411 55.3916 218.51 37.4904C200.608 19.5893 177.801 7.39846 152.972 2.45954C128.142 -2.47936 102.405 0.0554533 79.0165 9.74347C55.6277 19.4315 35.6368 35.8375 21.5719 56.887C7.50709 77.9365 0 102.684 0 128C0 161.948 13.4857 194.505 37.4904 218.51C61.495 242.514 94.0522 256 128 256Z" fill="#0D0D19"/>
<g clip-path="url(#clip0)">
<g style="mix-blend-mode:difference">
<g style="mix-blend-mode:difference">
<g style="mix-blend-mode:difference">
<path d="M127.498 99.4435L152.445 113.474V141.536L127.498 155.567L102.551 141.536V113.467L127.498 99.4435ZM127.498 94.4141C126.595 94.413 125.706 94.6447 124.918 95.0868L99.9706 109.118C99.1922 109.548 98.5427 110.179 98.0891 110.945C97.6354 111.711 97.394 112.584 97.3898 113.474V141.536C97.3944 142.427 97.636 143.3 98.0896 144.065C98.5432 144.831 99.1925 145.462 99.9706 145.893L124.918 159.924C125.707 160.366 126.596 160.599 127.5 160.599C128.404 160.599 129.293 160.366 130.083 159.924L155.029 145.893C155.808 145.462 156.457 144.831 156.91 144.065C157.364 143.3 157.606 142.427 157.61 141.536V113.467C157.606 112.577 157.364 111.704 156.91 110.938C156.457 110.172 155.808 109.542 155.029 109.111L130.083 95.0797C129.294 94.638 128.405 94.4064 127.502 94.407" fill="white"/>
</g>
<g style="mix-blend-mode:difference">
<path d="M127.502 35.2223L209.534 81.362V173.638L127.502 219.778L91.9547 199.778V172.179L122.028 189.093C123.704 190.031 125.592 190.524 127.512 190.524C129.433 190.524 131.321 190.031 132.997 189.093L179.525 162.924C181.179 162.01 182.558 160.67 183.523 159.043C184.487 157.416 185 155.562 185.01 153.67V101.348C185 99.4562 184.486 97.6016 183.522 95.975C182.558 94.3483 181.178 93.0085 179.525 92.0934L132.983 65.9074C131.307 64.969 129.419 64.4764 127.498 64.4764C125.578 64.4764 123.69 64.969 122.013 65.9074L75.4857 92.0756C73.8324 92.9907 72.4526 94.3306 71.4885 95.9572C70.5244 97.5838 70.0109 99.4384 70.0008 101.33V187.438L45.4733 173.638V81.362L127.502 35.2223ZM127.502 26C125.844 25.9981 124.213 26.4234 122.767 27.2351L40.7349 73.3749C39.3076 74.1643 38.1164 75.3206 37.2841 76.7245C36.4518 78.1285 36.0085 79.7294 36 81.362V173.638C36.0085 175.271 36.4518 176.871 37.2841 178.275C38.1164 179.679 39.3076 180.836 40.7349 181.625L65.2624 195.425C66.7088 196.235 68.3383 196.66 69.9955 196.66C71.6526 196.66 73.2822 196.235 74.7286 195.425C76.1559 194.635 77.3471 193.479 78.1793 192.075C79.0116 190.671 79.4549 189.07 79.4634 187.438V101.33C79.4657 101.071 79.5367 100.817 79.6691 100.594C79.8015 100.372 79.9906 100.188 80.217 100.063L126.745 73.8945C126.974 73.7654 127.233 73.6976 127.496 73.6976C127.76 73.6976 128.019 73.7654 128.248 73.8945L174.776 100.063C175.002 100.189 175.19 100.372 175.322 100.595C175.454 100.818 175.524 101.071 175.526 101.33V153.652C175.524 153.911 175.453 154.165 175.321 154.388C175.188 154.611 174.999 154.794 174.772 154.919L128.252 181.105C128.022 181.234 127.763 181.302 127.5 181.302C127.237 181.302 126.978 181.234 126.748 181.105L96.6753 164.191C95.2291 163.381 93.5995 162.956 91.9422 162.956C90.285 162.956 88.6554 163.381 87.2091 164.191C85.7816 164.981 84.5902 166.137 83.7579 167.541C82.9255 168.945 82.4824 170.546 82.4743 172.179V199.778C82.4828 201.41 82.9261 203.011 83.7584 204.415C84.5907 205.819 85.7819 206.976 87.2091 207.765L122.756 227.765C124.203 228.575 125.832 229.001 127.489 229.001C129.147 229.001 130.776 228.575 132.222 227.765L214.265 181.625C215.692 180.836 216.884 179.679 217.716 178.275C218.548 176.871 218.991 175.271 219 173.638V81.362C218.992 79.7293 218.549 78.1283 217.716 76.7243C216.884 75.3202 215.693 74.164 214.265 73.3749L132.233 27.2351C130.788 26.4245 129.158 25.9992 127.502 26" fill="white"/>
</g>
</g>
</g>
</g>
<defs>
<clipPath id="clip0">
<rect width="183" height="203" fill="white" transform="translate(36 26)"/>
</clipPath>
</defs>
</svg>
