<?xml version="1.0" standalone="no"?>
<!DOCTYPE svg PUBLIC "-//W3C//DTD SVG 20010904//EN"
 "http://www.w3.org/TR/2001/REC-SVG-20010904/DTD/svg10.dtd">
<svg version="1.0" xmlns="http://www.w3.org/2000/svg"
 width="256.000000pt" height="256.000000pt" viewBox="0 0 256.000000 256.000000"
 preserveAspectRatio="xMidYMid meet">
<metadata>
Created by potrace 1.16, written by Peter Selinger 2001-2019
</metadata>
<g transform="translate(0.000000,256.000000) scale(0.100000,-0.100000)"
fill="#000000" stroke="none">
<path d="M0 1280 l0 -1280 1280 0 1280 0 0 1280 0 1280 -1280 0 -1280 0 0
-1280z m1079 583 c18 -3 44 -17 57 -29 27 -28 43 -29 108 -10 41 13 54 13 97
0 32 -10 66 -13 94 -8 33 4 57 1 90 -12 25 -11 45 -22 45 -26 0 -5 -19 -8 -43
-8 -53 0 -137 -49 -137 -79 0 -19 8 -41 51 -138 19 -43 10 -61 -11 -23 -6 11
-15 20 -19 20 -5 0 -7 -9 -4 -20 3 -11 0 -20 -6 -20 -6 0 -11 8 -11 18 -1 16
-1 16 -14 0 -18 -24 -25 -23 -19 2 3 11 9 20 14 20 15 0 10 27 -7 41 -9 7 -20
23 -24 35 -18 46 -87 -12 -74 -62 3 -10 -2 -28 -11 -39 -15 -19 -16 -19 -10
13 7 33 6 33 -13 16 -11 -9 -18 -23 -15 -30 3 -8 0 -14 -7 -14 -6 0 -8 5 -5
10 3 6 2 10 -4 10 -5 0 -11 -6 -14 -12 -2 -7 -8 -9 -13 -5 -5 5 3 19 20 32 27
22 28 24 15 59 -14 37 -29 48 -29 20 0 -13 -3 -14 -13 -5 -8 6 -17 7 -22 3 -4
-4 -5 5 -3 21 6 30 -6 36 -21 10 -10 -17 -10 -16 -11 2 -1 11 -4 14 -7 8 -7
-18 -23 -16 -23 2 0 15 -15 19 -58 15 -24 -2 -62 25 -62 43 0 5 14 7 32 3 l32
-6 -24 25 c-21 23 -20 30 4 26 5 -1 16 1 24 4 12 4 7 13 -23 37 l-38 32 23 18
c13 11 30 16 39 13 9 -4 31 -9 50 -12z m-249 -541 c72 -35 90 -144 28 -166
-38 -13 -56 -2 -78 49 -18 42 -22 45 -57 45 -21 0 -49 -7 -62 -16 -42 -30 -51
-71 -51 -233 0 -141 1 -150 20 -156 11 -3 20 -13 20 -21 0 -11 -20 -14 -100
-14 -80 0 -100 3 -100 14 0 8 9 18 20 21 19 6 20 15 20 202 0 186 -1 195 -20
200 -39 10 -19 31 54 57 41 14 77 26 80 26 3 0 6 -17 6 -37 0 -38 1 -38 18
-16 48 59 135 79 202 45z m507 -10 c73 -38 112 -103 116 -194 l2 -43 -192 -3
c-217 -3 -210 1 -174 -78 52 -115 213 -138 322 -47 21 18 33 23 41 15 18 -18
-44 -94 -104 -127 -45 -25 -64 -29 -123 -29 -166 2 -275 107 -275 267 0 37 6
82 14 101 28 68 101 129 186 157 41 14 142 3 187 -19z m373 8 c0 -11 -4 -20
-10 -20 -5 0 -10 -5 -10 -11 0 -12 92 -148 100 -149 3 0 23 27 45 61 22 33 45
67 50 75 7 11 5 18 -7 25 -10 6 -18 17 -18 24 0 12 19 15 95 15 79 0 95 -3 95
-16 0 -8 -14 -20 -31 -26 -22 -8 -48 -37 -100 -114 l-69 -104 85 -109 c65 -83
93 -111 115 -116 21 -5 30 -13 30 -26 0 -18 -8 -19 -110 -19 -95 0 -110 2
-110 16 0 9 7 22 16 28 13 10 9 20 -33 78 -26 36 -51 67 -55 69 -9 5 -98 -121
-98 -138 0 -7 5 -13 10 -13 6 0 10 -9 10 -20 0 -19 -7 -20 -90 -20 -80 0 -90
2 -90 18 0 10 12 22 29 29 20 7 48 40 90 102 34 50 64 98 67 106 8 20 -154
224 -183 231 -14 4 -23 14 -23 25 0 17 9 19 100 19 93 0 100 -1 100 -20z"/>
<path d="M1005 1851 c-3 -6 14 -28 37 -50 l43 -41 -35 -30 -35 -29 30 -2 c17
-1 48 -2 70 -3 22 -1 47 -5 57 -10 12 -5 18 -2 23 13 9 29 28 27 20 -1 -7 -23
-7 -23 9 -3 17 23 22 5 6 -25 -14 -26 -1 -31 48 -18 l41 10 -21 28 c-11 15
-18 34 -16 42 3 8 11 1 21 -18 9 -17 23 -34 32 -37 8 -4 15 -15 15 -26 0 -20
49 -86 57 -77 3 2 -5 26 -16 51 -22 49 -29 135 -11 135 6 0 10 -7 10 -15 0
-12 8 -10 37 10 21 14 48 25 61 25 14 0 21 4 16 11 -4 7 -25 9 -58 6 -31 -3
-72 1 -103 9 -46 13 -57 13 -107 -1 -57 -17 -75 -13 -116 20 -13 10 -86 35
-103 35 -3 0 -8 -4 -12 -9z"/>
<path d="M1145 1271 c-45 -21 -73 -62 -77 -112 l-3 -34 144 -3 144 -3 -7 42
c-18 110 -101 156 -201 110z"/>
</g>
</svg>
