<svg width="256" height="256" viewBox="0 0 256 256" fill="none" xmlns="http://www.w3.org/2000/svg">
<path d="M128 256C198.692 256 256 198.692 256 128C256 57.3075 198.692 0 128 0C57.3075 0 0 57.3075 0 128C0 198.692 57.3075 256 128 256Z" fill="black"/>
<path d="M128 250.56C195.688 250.56 250.56 195.688 250.56 128C250.56 60.3119 195.688 5.43994 128 5.43994C60.3119 5.43994 5.43994 60.3119 5.43994 128C5.43994 195.688 60.3119 250.56 128 250.56Z" stroke="white" stroke-miterlimit="10"/>
<path d="M86.6098 101.76C87.1298 98.6601 83.6798 97.1101 80.7498 97.0201C77.2198 96.8501 74.6298 97.5401 74.1998 99.7801C73.6798 102.88 81.8698 104.17 87.4698 105.98C95.6498 108.65 107.8 111.41 105.04 125.88C102.63 139.06 91.5998 144.66 73.7698 144.66C52.3198 144.66 42.8398 133.55 44.9098 122.69C51.1098 122.69 66.3598 122.69 66.3598 122.69C65.6698 126.74 69.2898 127.77 72.7298 128.03C76.7798 128.37 79.2798 127.69 79.6198 125.53C80.1398 122.77 79.0998 122 72.4698 119.84C58.1698 115.27 48.8698 110.11 51.0198 98.1301C53.8598 82.8801 71.0098 81.0701 83.1498 81.0701C93.7498 81.0701 110.72 86.5001 107.87 101.74C100.74 101.76 86.6098 101.76 86.6098 101.76Z" fill="white"/>
<path d="M99.2497 167.13C99.3897 166.7 99.6797 166.55 99.3897 166.12C99.3997 166.4 99.1097 166.69 99.2497 167.13Z" fill="white"/>
<path d="M211.31 68.41C211.17 68.12 211.17 67.83 210.88 67.54C210.74 67.4 210.59 67.4 210.44 67.25C209.86 66.67 209.14 66.24 208.27 65.95C207.83 65.66 207.26 65.52 206.82 65.23C206.53 64.94 206.24 64.8 205.95 64.8C205.08 64.66 204.07 64.37 203.2 64.07C202.77 63.93 202.33 63.93 201.9 63.78C200.89 63.64 199.87 63.64 198.86 63.49C198.28 63.49 197.85 63.78 197.41 64.22C196.83 64.8 196.25 65.67 195.67 66.25C195.38 66.69 195.09 67.26 194.94 67.7C194.65 68.14 194.51 68.71 194.36 69.15C194.07 69.44 193.78 69.73 193.78 70.31C193.78 70.45 193.64 70.6 193.49 70.74C193.2 71.03 192.76 71.47 192.62 71.9C192.33 72.48 192.04 73.2 191.61 73.64C191.47 73.93 191.47 74.07 191.32 74.36C190.88 75.23 190.16 75.95 189.87 76.82C189.87 76.96 189.87 76.96 189.73 77.11C189.58 77.54 189.29 77.83 189.15 78.27C189.01 78.85 188.86 79.43 188.42 79.86C188.13 80.29 188.13 80.73 187.99 81.02C187.56 81.6 187.27 82.18 186.98 82.9C186.55 83.48 186.55 84.35 185.97 84.93C185.83 85.51 185.54 85.94 185.25 86.38C185.11 86.96 184.81 87.54 184.52 87.97C184.23 88.55 184.09 89.27 183.51 89.85C183.51 89.85 183.51 89.99 183.51 90.14C183.37 90.72 183.08 91.3 182.79 91.73C182.21 93.18 181.48 94.48 180.91 95.93C180.77 96.07 180.48 96.36 180.48 96.66C180.33 97.53 179.75 98.11 179.47 98.98C179.32 99.27 179.18 99.7 179.03 99.99C178.6 100.57 178.31 101.3 178.16 101.87C177.87 102.74 177.44 103.46 177 104.19C176.86 104.62 176.57 105.06 176.57 105.49C176.43 106.07 176.28 106.65 176.14 107.23C175.85 107.52 175.56 107.81 175.42 108.24C174.69 109.69 173.83 111.28 173.25 112.73C173.11 113.17 172.96 113.46 172.67 113.74C172.53 114.47 172.23 115.04 171.95 115.62C171.52 116.78 171.08 117.79 170.65 118.95C170.36 119.67 170.07 120.25 170.07 121.12C169.35 121.26 168.77 121.26 168.19 120.68C167.75 120.54 167.32 120.39 167.03 120.39C166.3 120.39 165.58 120.1 165 120.1C164.42 120.1 163.84 119.96 163.41 120.1C163.12 119.96 162.83 119.81 162.4 119.81C161.53 119.95 160.66 119.66 159.79 119.66C158.63 119.66 157.47 119.52 156.31 119.52C155.44 119.52 154.57 119.38 153.7 119.38L153.56 119.24C152.98 119.53 152.4 119.38 151.97 119.1C151.68 119.1 151.68 119.39 151.53 119.39C150.66 119.25 149.79 119.1 149.07 119.25C148.93 119.25 148.78 119.25 148.64 119.25C147.63 119.25 146.47 119.25 145.45 119.25H145.31C144.3 119.39 143.43 119.39 142.41 119.25C142.26 119.25 141.97 119.39 141.83 119.54C141.69 119.4 141.54 119.25 141.4 119.25C139.66 119.54 138.07 119.39 136.47 119.54C135.31 119.4 134.15 119.83 132.99 119.54C132.99 119.25 132.99 118.96 133.14 118.82C133.14 118.53 133.28 118.24 133.43 117.95C133.43 117.81 133.57 117.66 133.57 117.37C133.57 117.08 133.71 116.79 133.86 116.5C134.15 116.06 134.44 115.63 134.44 115.05C134.58 114.04 134.87 113.02 135.16 112.01C135.74 110.56 136.32 109.11 136.47 107.52C136.61 107.38 136.61 107.23 136.76 106.94C136.9 106.51 137.19 105.93 137.34 105.35C137.63 104.62 137.92 103.9 138.35 103.18C138.93 102.31 139.22 101.15 139.51 100.14C139.94 99.13 140.09 97.97 140.81 97.1C140.95 96.96 140.95 96.81 140.95 96.67C141.39 95.8 141.68 95.08 141.82 94.21C141.96 93.63 142.25 93.2 142.4 92.62C142.69 91.61 142.98 90.45 143.41 89.43C143.7 88.56 143.99 87.69 144.28 86.82C144.42 86.39 144.57 85.95 144.72 85.52C144.86 84.51 145.15 83.49 145.59 82.62C145.88 81.75 146.17 81.03 146.03 80.01C145.89 79.14 145.45 78.42 144.58 77.84C144 77.55 143.28 77.12 142.7 76.68C142.12 76.39 141.54 76.1 141.11 75.81C140.53 75.37 139.8 75.23 139.23 75.09C138.36 74.8 137.49 74.65 136.77 74.22C136.04 73.79 135.32 73.64 134.74 73.35C133.73 72.92 132.86 73.06 131.99 73.5C131.85 73.5 131.7 73.64 131.55 73.79C131.41 74.22 131.12 74.66 130.83 75.09C130.68 75.38 130.39 75.67 130.39 76.1C130.1 76.97 129.81 77.69 129.38 78.56C128.8 79.57 128.37 80.59 128.08 81.75C128.08 82.33 127.79 82.91 127.5 83.49C127.36 83.63 127.36 83.78 127.21 83.92C126.63 85.51 125.9 87.11 125.33 88.7C125.04 89.28 124.75 90 124.46 90.58C124.03 91.59 123.73 92.46 123.45 93.48C122.87 94.93 122.15 96.52 121.57 97.97C121.13 98.98 120.84 100 120.27 101.01C120.27 101.15 120.27 101.45 120.27 101.74C120.12 101.74 119.98 101.88 119.98 102.03C119.69 102.9 119.26 103.77 119.11 104.64C119.11 105.08 118.97 105.51 118.68 105.95C118.39 106.24 118.25 106.53 118.25 106.82C118.11 107.11 118.11 107.26 117.96 107.54C117.81 108.27 117.52 108.84 117.52 109.71C117.52 110.14 117.23 110.58 117.09 111.01C116.8 111.3 116.65 111.73 116.65 112.17C116.36 112.46 116.22 112.75 116.07 113.18C116.21 113.32 116.36 113.18 116.21 113.32C116.07 113.46 115.78 113.75 115.78 114.04C115.78 114.04 115.92 114.04 115.92 114.19C115.34 114.91 114.91 115.64 114.62 116.51C114.47 117.09 114.18 117.67 114.04 118.25C113.9 118.98 113.46 119.41 113.17 119.99C113.17 120.42 112.88 120.57 112.59 120.57C111.72 120.71 110.71 120.57 109.84 120.86C109.41 121 108.97 120.86 108.39 121C108.21 121 108.04 121 107.9 120.96C107.98 122.42 107.87 124.04 107.53 125.85C106.19 133.17 102.18 138.15 95.8296 141.14C96.1296 141.19 96.4396 141.23 96.7896 141.3C96.9296 141.3 97.0796 141.3 97.3696 141.44C97.6596 141.58 97.9496 141.73 98.3796 141.73C98.8096 141.73 99.2496 141.59 99.5396 141.87C99.6796 142.02 99.5396 142.31 99.8296 142.45C99.9696 142.45 100.12 142.59 100.41 142.59C100.55 142.45 100.7 142.45 100.85 142.45C101.43 142.45 102.15 142.45 102.88 142.31C103.32 142.31 103.89 142.31 104.47 142.6C104.61 142.89 104.47 143.18 104.33 143.33C103.89 144.05 103.75 144.92 103.46 145.79C103.17 146.51 103.03 147.24 102.59 147.96C102.45 148.25 102.45 148.54 102.59 148.97C102.59 149.26 102.59 149.69 102.73 149.98C102.73 151.57 102.3 153.02 101.43 154.33C101 154.91 100.85 155.63 100.56 156.36C100.56 156.5 100.56 156.65 100.56 156.79C100.56 157.51 100.56 158.38 100.42 159.11C100.42 159.26 100.42 159.4 100.42 159.69C100.56 160.7 100.56 161.86 100.28 162.88C99.9896 163.75 99.9896 164.62 99.8496 165.63C99.9896 165.34 99.9896 165.2 99.9896 164.9C99.9896 164.61 100.13 164.47 100.28 164.18C100.57 164.61 100.42 164.9 100.28 165.19C100.28 165.62 100.14 166.06 100.14 166.64C100.28 166.64 100.28 166.64 100.43 166.64C100.43 166.5 100.43 166.35 100.57 166.21C101.01 166.21 100.72 165.77 101.01 165.63C101.15 166.36 100.57 167.22 100.72 167.95C100.86 168.09 101.01 167.81 101.3 167.95C101.3 168.53 101.16 168.96 101.16 169.4C101.16 169.98 100.87 170.41 101.02 170.85C101.31 170.99 101.31 170.7 101.45 170.85C101.45 171.14 101.16 171.57 101.31 171.86C101.6 171.86 101.45 171.57 101.75 171.57L101.89 171.71C102.32 171.28 102.32 170.55 102.76 170.12C103.05 170.26 102.9 170.55 102.76 170.7C102.62 171.14 102.47 171.57 102.47 172.15C102.76 171.72 102.9 171.28 103.05 170.85C103.19 170.41 103.48 169.98 103.92 169.69C103.78 171 103.05 172.15 102.91 173.31C103.06 173.31 103.2 173.6 103.35 173.6C103.49 173.02 104.22 173.02 104.51 172.73C104.8 173.16 104.8 173.6 104.51 174.03C104.37 174.32 104.22 174.61 103.93 174.9C103.21 175.48 103.06 176.21 103.21 177.07C103.21 177.22 103.5 177.36 103.5 177.51C103.5 177.8 103.36 177.94 103.21 178.09C103.07 178.38 102.92 178.52 102.92 178.81C102.78 178.81 102.92 178.81 102.92 178.95C103.07 178.95 103.21 178.95 103.36 178.81C103.79 178.23 104.23 177.65 104.52 177.22C105.24 176.64 105.97 176.78 106.69 176.64C106.98 175.92 107.27 175.34 107.85 174.9C107.85 174.76 107.99 174.61 107.99 174.47C108.42 173.89 109 173.17 109.29 172.59C109.58 172.15 109.87 171.72 110.02 171.28C110.45 170.41 110.89 169.69 111.18 168.67C111.32 168.67 111.32 168.53 111.47 168.38C111.61 168.09 111.9 167.66 112.05 167.37C112.34 166.5 112.92 165.92 113.21 165.2C113.36 164.91 113.5 164.76 113.5 164.47C113.5 164.33 113.5 164.04 113.79 163.89C113.93 163.6 114.08 163.31 114.22 163.02C114.36 162.58 114.51 162.15 114.66 161.86C114.95 161.14 115.24 160.56 115.53 159.98C115.53 159.69 115.68 159.26 115.82 159.11C116.4 158.24 116.69 157.23 117.12 156.36C117.55 155.35 117.99 154.33 118.42 153.32C118.85 152.45 119.14 151.58 119.58 150.71C119.72 150.13 120.01 149.55 120.3 148.97C120.44 148.39 120.73 147.96 120.88 147.52C121.17 147.09 121.31 146.36 121.89 146.22C121.89 145.79 122.18 145.5 122.32 145.06C122.32 144.77 122.32 144.63 122.18 144.48C122.62 144.04 122.47 143.32 122.91 142.89C123.49 142.75 124.07 142.75 124.5 142.6C124.94 142.46 125.22 142.46 125.66 142.46C126.24 142.46 126.96 142.6 127.54 142.32C127.83 142.32 128.26 142.18 128.55 142.18C129.13 142.32 129.71 142.18 130.29 142.18C131.02 142.18 131.59 141.89 132.32 142.18H132.46C132.89 142.04 133.47 142.04 133.91 141.74C134.35 141.88 134.63 141.88 135.07 141.88C135.8 141.74 136.52 141.74 137.24 141.59C137.96 141.59 138.11 141.73 138.4 142.32C138.98 142.46 139.7 142.61 140.28 142.32C140.57 142.03 140.57 141.74 140.86 141.59C141.15 141.73 141.44 141.73 141.73 141.73C141.44 142.02 141 142.02 141 142.31C141 142.45 141.15 142.45 141.29 142.45C141.29 142.45 141.43 142.31 141.58 142.31C141.87 142.6 142.16 142.6 142.45 142.45C142.45 142.31 142.3 142.31 142.16 142.16C142.45 142.02 142.6 141.87 142.89 141.58C143.18 141.58 143.47 141.72 143.62 141.72C143.76 141.86 143.48 142.01 143.62 142.16C144.05 142.16 144.49 142.45 145.07 142.02C144.93 141.87 144.78 141.87 144.63 141.73C144.92 141.59 145.36 141.73 145.64 141.44C145.79 141.44 145.79 141.58 145.93 141.58C146.36 141.72 146.94 141.72 147.38 141.58C147.81 141.58 148.11 141.44 148.54 141.44C148.83 141.44 149.26 141.44 149.7 141.44C150.28 141.58 150.86 141.44 151.29 141.73C152.16 141.44 153.17 141.44 153.9 141.73C155.78 141.73 157.67 141.59 159.84 141.44C160.13 141.58 160.71 141.58 161.29 141.44C161.29 141.58 161.43 141.73 161.29 141.73C161 142.46 160.85 143.04 160.56 143.76C160.42 144.48 160.13 144.92 159.84 145.5C159.7 145.93 159.7 146.37 159.4 146.8C158.97 147.67 158.68 148.54 158.39 149.41C157.96 150.86 157.38 152.31 156.94 153.76C156.65 154.34 156.36 155.06 156.36 155.79C156.21 156.08 155.92 156.23 155.92 156.51C155.78 157.09 155.63 157.52 155.34 158.1C154.9 159.26 154.47 160.42 154.04 161.72C153.89 162.3 153.75 162.88 153.46 163.6C153.17 164.47 152.74 165.48 152.45 166.5C152.16 167.51 151.73 168.38 151.44 169.25C151.3 169.54 151.15 169.83 151.15 170.12C151.01 170.99 150.72 171.71 150.43 172.58C150.43 172.87 150.28 173.16 150.14 173.45C150 174.32 149.71 175.19 149.42 175.91C149.27 176.63 149.13 177.36 148.84 178.23C148.7 179.1 148.41 180.11 148.26 181.13C147.82 182.87 147.53 184.75 147.39 186.64C147.39 187.07 147.39 187.51 147.68 187.94C147.54 187.94 147.54 187.94 147.39 187.94V188.08C147.39 188.66 147.39 189.24 147.53 189.82C147.67 189.96 147.82 189.96 147.96 190.11C147.96 190.25 147.96 190.25 148.11 190.25C148.11 190.39 148.11 190.39 147.82 190.39C147.68 190.68 147.39 190.53 147.24 190.68C147.24 191.12 147.53 191.26 147.53 191.55C148.11 191.55 147.67 191.41 147.96 191.41C148.11 191.41 148.4 191.7 148.69 191.84C148.4 191.98 148.26 191.98 148.11 191.7C147.67 191.27 147.96 191.99 148.25 192.28C148.39 192.57 148.25 192.71 148.25 193C148.11 193.14 148.11 193.29 148.25 193.43C148.25 193.43 148.11 193.43 148.11 193.58C148.11 193.87 148.25 194.16 148.54 194.3C148.83 194.3 148.97 194.16 149.26 194.01C149.26 193.87 149.26 193.72 149.41 193.58L149.55 193.72C150.13 193.72 150.27 194.15 150.42 194.44C150.56 194.73 150.42 195.02 150.42 195.31C150.71 195.89 150.42 196.33 150.27 196.9C150.27 197.04 150.27 197.19 150.27 197.33C150.27 197.62 150.13 197.76 150.13 197.91C150.27 198.35 150.57 198.49 150.71 198.93C151 198.64 151 198.21 151.43 197.91C151.72 197.91 152.01 197.62 152.44 197.62C152.58 197.48 152.44 197.19 152.73 197.19C152.73 197.48 152.73 197.62 152.58 197.91C152.44 198.35 152.29 198.93 152 199.36C151.86 199.5 151.86 199.65 151.86 199.94V200.08C152.15 200.08 152.15 199.79 152.44 199.94C152.88 200.38 152.58 200.96 152.58 201.39C152.87 201.68 153.02 201.97 153.02 202.4C153.02 202.84 152.88 203.42 152.73 203.85C152.58 203.99 152.58 204.28 152.87 204.43C153.16 204.29 153.3 204 153.45 203.71C153.45 203.28 153.74 202.99 154.03 202.55C154.17 202.55 154.17 202.55 154.32 202.69C154.75 202.26 154.9 201.68 155.19 201.24C155.62 200.52 156.06 199.79 156.49 199.07C157.07 198.2 157.5 197.33 157.94 196.46C158.52 195.44 159.24 194.43 159.68 193.27C159.82 192.98 160.11 192.55 160.11 192.11C160.11 191.68 160.4 191.1 160.54 190.66C161.12 189.65 161.27 188.34 161.7 187.33C161.7 187.19 161.7 187.19 161.7 187.19C161.84 186.76 161.99 186.17 162.43 185.88C162.57 185.74 162.72 185.45 162.72 185.3C162.86 184.87 162.86 184.43 162.86 183.99C163 183.27 163.15 182.54 163.73 181.96C164.16 181.67 164.46 181.38 164.74 180.94C165.03 180.8 165.32 180.51 165.32 180.07C165.32 179.93 165.32 179.78 165.46 179.49C165.9 178.62 166.47 177.61 166.91 176.59C167.05 176.45 167.05 176.3 167.2 176.3C167.49 175.87 167.63 175.58 167.78 175.14C168.07 174.41 168.36 173.69 168.65 172.97C168.94 172.39 169.09 171.81 169.38 171.38C169.67 170.51 169.96 169.79 170.1 168.92C170.1 168.63 170.25 168.34 170.39 168.05C171.11 166.89 171.69 165.73 172.27 164.43C172.41 164.14 172.56 163.71 172.71 163.27C172.71 162.98 172.85 162.69 173 162.55C173.29 162.12 173.58 161.68 173.73 161.39C174.02 160.67 174.45 159.94 174.45 159.22C174.45 158.78 174.59 158.5 174.89 158.06C175.18 157.48 175.47 156.61 175.76 155.89C176.2 155.17 176.34 154.15 176.77 153.43C177.21 152.56 177.5 151.69 177.78 150.82C177.78 150.68 177.92 150.53 177.92 150.53C178.21 149.95 178.36 149.37 178.64 148.94C178.78 148.5 178.93 148.22 179.07 147.78C179.36 146.91 179.8 146.19 179.94 145.17C179.94 145.03 180.08 144.88 180.08 144.74C180.52 143.87 180.81 143 181.24 142.13C181.53 141.84 181.67 141.55 181.82 141.26C181.96 140.68 182.25 140.1 182.25 139.52C182.39 139.38 182.39 139.23 182.54 139.09C182.83 138.37 183.27 137.79 183.41 137.06C183.55 136.77 183.7 136.48 183.84 136.19C183.98 135.61 184.42 135.03 184.56 134.45C184.7 133.73 184.85 133.15 185.14 132.71C185.43 132.42 185.43 132.13 185.57 131.7C185.57 131.12 185.86 130.54 186.15 129.96C186.44 129.67 186.59 129.24 186.73 128.8C187.02 128.22 187.16 127.64 187.45 127.21C187.74 126.49 188.17 125.91 188.17 125.18C188.75 124.31 189.04 123.59 189.18 122.57C189.32 122.28 189.32 121.99 189.47 121.7C189.91 121.27 190.34 120.69 190.48 119.96C190.48 119.82 190.62 119.67 190.77 119.52C190.91 119.23 191.06 119.09 191.21 118.8C191.5 118.08 191.64 117.35 192.08 116.77C192.08 116.63 192.22 116.33 192.22 116.19C192.65 115.47 192.94 114.74 193.09 113.87C193.23 113.58 193.53 113.44 193.53 113.15C193.67 112.57 193.82 112.14 193.96 111.7C194.1 111.41 194.4 111.12 194.54 110.83C194.68 110.11 194.97 109.53 195.26 108.8C195.55 108.37 195.84 108.07 195.99 107.5C195.99 107.06 196.28 106.78 196.57 106.49C196.57 105.91 196.72 105.48 197.01 105.04C197.3 104.75 197.44 104.46 197.3 104.17C197.73 103.59 197.88 102.87 198.17 102.29C198.46 101.57 198.6 100.99 199.18 100.55C199.18 100.41 199.18 100.11 199.32 99.97C199.61 99.1 199.9 98.23 200.19 97.51C200.48 96.93 200.77 96.35 201.06 95.77C201.2 95.33 201.5 95.04 201.5 94.47C201.64 94.47 201.64 94.33 201.64 94.33C202.07 93.75 202.22 93.02 202.51 92.45C202.8 91.44 203.24 90.42 203.67 89.55C203.96 88.54 204.54 87.81 204.97 86.94C205.4 85.93 205.84 85.06 206.27 84.19C206.41 84.05 206.41 83.9 206.56 83.75C206.85 82.88 206.99 82.01 207.28 81.14C207.57 80.42 207.86 79.55 208.15 78.82C208.44 78.24 208.73 77.66 208.88 76.94C209.02 76.07 209.46 75.35 209.89 74.62C210.18 74.04 210.32 73.61 210.47 73.03C210.47 72.6 210.62 72.16 210.76 71.87C211.31 70.73 211.45 69.57 211.31 68.41Z" fill="white"/>
<path d="M142.01 141.76C142.01 141.76 142.01 141.76 142.15 141.76C142.01 141.91 142.01 141.91 142.01 141.76Z" fill="white"/>
<path d="M148.83 186.12C148.69 186.12 148.69 185.98 148.69 185.98C148.83 185.97 148.83 185.97 148.83 186.12Z" fill="white"/>
<path d="M148.68 190.9C148.68 190.9 148.54 191.04 148.39 191.04C148.39 190.9 148.39 190.9 148.39 190.9C148.54 190.76 148.68 190.9 148.68 190.9C148.82 190.76 148.68 190.61 148.97 190.47C148.97 190.76 148.83 190.76 148.68 190.9Z" fill="white"/>
<path d="M148.83 188.29C148.97 188.29 148.97 188.29 149.12 188.43C148.97 188.44 148.83 188.44 148.83 188.29Z" fill="white"/>
<path d="M149.12 182.64C149.12 182.5 148.98 182.5 149.12 182.35C149.26 182.35 149.12 182.49 149.12 182.64Z" fill="white"/>
<path d="M150.13 176.41C149.84 176.41 149.7 176.27 149.7 175.98C149.99 175.97 150.13 176.12 150.13 176.41Z" fill="white"/>
<path d="M149.7 187.71C149.7 187.85 149.56 187.85 149.56 187.85C149.55 187.71 149.55 187.71 149.7 187.71Z" fill="white"/>
<path d="M149.55 185.83C149.55 185.97 149.41 185.97 149.26 185.83C149.26 185.68 149.41 185.68 149.55 185.83Z" fill="white"/>
<path d="M149.7 191.05C149.7 191.05 149.7 191.05 149.56 191.05C149.7 190.9 149.7 191.05 149.7 191.05C149.84 191.2 149.99 191.2 149.99 191.34C149.84 191.34 149.84 191.19 149.7 191.05Z" fill="white"/>
<path d="M149.55 189.89C149.41 189.75 149.26 189.46 149.55 189.46C149.84 189.46 149.84 189.75 149.98 189.89C149.84 190.03 149.7 189.89 149.55 189.89Z" fill="white"/>
<path d="M149.99 187.86C149.99 187.86 149.99 187.72 150.13 187.72C150.13 187.86 150.13 188 149.99 187.86Z" fill="white"/>
<path d="M150.57 190.03H150.43V189.89C150.57 189.89 150.57 189.89 150.57 189.89C150.57 189.89 150.57 189.89 150.57 190.03Z" fill="white"/>
<path d="M150.57 188.87C150.57 188.87 150.43 188.87 150.28 188.87C150.28 188.58 150.13 188.44 150.13 188.29C150.57 188.29 150.57 188.58 150.57 188.87C150.71 188.87 150.71 188.87 150.71 189.02C150.57 188.87 150.57 188.87 150.57 188.87Z" fill="white"/>
<path d="M150.57 184.81C150.43 184.67 150.57 184.67 150.57 184.67C150.71 184.67 150.71 184.67 150.71 184.81H150.57Z" fill="white"/>
<path d="M152.02 183.94C151.88 183.65 152.02 183.8 152.16 183.65C152.16 183.8 152.16 183.94 152.02 183.94Z" fill="white"/>
</svg>
