<?xml version="1.0" encoding="utf-8"?>
<!-- Generator: Adobe Illustrator 26.0.2, SVG Export Plug-In . SVG Version: 6.00 Build 0)  -->
<svg version="1.1" id="Layer_1" xmlns="http://www.w3.org/2000/svg" xmlns:xlink="http://www.w3.org/1999/xlink" x="0px" y="0px"
	 viewBox="0 0 256 256" style="enable-background:new 0 0 256 256;" xml:space="preserve">
<style type="text/css">
	.st0{fill:none;stroke:#FFFFFF;stroke-miterlimit:10;}
	.st1{fill:#FFFFFF;}
</style>
<circle cx="128" cy="128" r="128"/>
<circle class="st0" cx="128" cy="128" r="122.56"/>
<g>
	<path class="st1" d="M86.61,101.76c0.52-3.1-2.93-4.65-5.86-4.74c-3.53-0.17-6.12,0.52-6.55,2.76c-0.52,3.1,7.67,4.39,13.27,6.2
		c8.18,2.67,20.33,5.43,17.57,19.9c-2.41,13.18-13.44,18.78-31.27,18.78c-21.45,0-30.93-11.11-28.86-21.97c6.2,0,21.45,0,21.45,0
		c-0.69,4.05,2.93,5.08,6.37,5.34c4.05,0.34,6.55-0.34,6.89-2.5c0.52-2.76-0.52-3.53-7.15-5.69c-14.3-4.57-23.6-9.73-21.45-21.71
		c2.84-15.25,19.99-17.06,32.13-17.06c10.6,0,27.57,5.43,24.72,20.67C100.74,101.76,86.61,101.76,86.61,101.76z"/>
	<path class="st1" d="M99.25,167.13c0.14-0.43,0.43-0.58,0.14-1.01C99.4,166.4,99.11,166.69,99.25,167.13z"/>
	<path class="st1" d="M211.31,68.41c-0.14-0.29-0.14-0.58-0.43-0.87c-0.14-0.14-0.29-0.14-0.44-0.29c-0.58-0.58-1.3-1.01-2.17-1.3
		c-0.44-0.29-1.01-0.43-1.45-0.72c-0.29-0.29-0.58-0.43-0.87-0.43c-0.87-0.14-1.88-0.43-2.75-0.73c-0.43-0.14-0.87-0.14-1.3-0.29
		c-1.01-0.14-2.03-0.14-3.04-0.29c-0.58,0-1.01,0.29-1.45,0.73c-0.58,0.58-1.16,1.45-1.74,2.03c-0.29,0.44-0.58,1.01-0.73,1.45
		c-0.29,0.44-0.43,1.01-0.58,1.45c-0.29,0.29-0.58,0.58-0.58,1.16c0,0.14-0.14,0.29-0.29,0.43c-0.29,0.29-0.73,0.73-0.87,1.16
		c-0.29,0.58-0.58,1.3-1.01,1.74c-0.14,0.29-0.14,0.43-0.29,0.72c-0.44,0.87-1.16,1.59-1.45,2.46c0,0.14,0,0.14-0.14,0.29
		c-0.15,0.43-0.44,0.72-0.58,1.16c-0.14,0.58-0.29,1.16-0.73,1.59c-0.29,0.43-0.29,0.87-0.43,1.16c-0.43,0.58-0.72,1.16-1.01,1.88
		c-0.43,0.58-0.43,1.45-1.01,2.03c-0.14,0.58-0.43,1.01-0.72,1.45c-0.14,0.58-0.44,1.16-0.73,1.59c-0.29,0.58-0.43,1.3-1.01,1.88
		c0,0,0,0.14,0,0.29c-0.14,0.58-0.43,1.16-0.72,1.59c-0.58,1.45-1.31,2.75-1.88,4.2c-0.14,0.14-0.43,0.43-0.43,0.73
		c-0.15,0.87-0.73,1.45-1.01,2.32c-0.15,0.29-0.29,0.72-0.44,1.01c-0.43,0.58-0.72,1.31-0.87,1.88c-0.29,0.87-0.72,1.59-1.16,2.32
		c-0.14,0.43-0.43,0.87-0.43,1.3c-0.14,0.58-0.29,1.16-0.43,1.74c-0.29,0.29-0.58,0.58-0.72,1.01c-0.73,1.45-1.59,3.04-2.17,4.49
		c-0.14,0.44-0.29,0.73-0.58,1.01c-0.14,0.73-0.44,1.3-0.72,1.88c-0.43,1.16-0.87,2.17-1.3,3.33c-0.29,0.72-0.58,1.3-0.58,2.17
		c-0.72,0.14-1.3,0.14-1.88-0.44c-0.44-0.14-0.87-0.29-1.16-0.29c-0.73,0-1.45-0.29-2.03-0.29c-0.58,0-1.16-0.14-1.59,0
		c-0.29-0.14-0.58-0.29-1.01-0.29c-0.87,0.14-1.74-0.15-2.61-0.15c-1.16,0-2.32-0.14-3.48-0.14c-0.87,0-1.74-0.14-2.61-0.14
		l-0.14-0.14c-0.58,0.29-1.16,0.14-1.59-0.14c-0.29,0-0.29,0.29-0.44,0.29c-0.87-0.14-1.74-0.29-2.46-0.14c-0.14,0-0.29,0-0.43,0
		c-1.01,0-2.17,0-3.19,0h-0.14c-1.01,0.14-1.88,0.14-2.9,0c-0.15,0-0.44,0.14-0.58,0.29c-0.14-0.14-0.29-0.29-0.43-0.29
		c-1.74,0.29-3.33,0.14-4.93,0.29c-1.16-0.14-2.32,0.29-3.48,0c0-0.29,0-0.58,0.15-0.72c0-0.29,0.14-0.58,0.29-0.87
		c0-0.14,0.14-0.29,0.14-0.58c0-0.29,0.14-0.58,0.29-0.87c0.29-0.44,0.58-0.87,0.58-1.45c0.14-1.01,0.43-2.03,0.72-3.04
		c0.58-1.45,1.16-2.9,1.31-4.49c0.14-0.14,0.14-0.29,0.29-0.58c0.14-0.43,0.43-1.01,0.58-1.59c0.29-0.73,0.58-1.45,1.01-2.17
		c0.58-0.87,0.87-2.03,1.16-3.04c0.43-1.01,0.58-2.17,1.3-3.04c0.14-0.14,0.14-0.29,0.14-0.43c0.44-0.87,0.73-1.59,0.87-2.46
		c0.14-0.58,0.43-1.01,0.58-1.59c0.29-1.01,0.58-2.17,1.01-3.19c0.29-0.87,0.58-1.74,0.87-2.61c0.14-0.43,0.29-0.87,0.44-1.3
		c0.14-1.01,0.43-2.03,0.87-2.9c0.29-0.87,0.58-1.59,0.44-2.61c-0.14-0.87-0.58-1.59-1.45-2.17c-0.58-0.29-1.3-0.72-1.88-1.16
		c-0.58-0.29-1.16-0.58-1.59-0.87c-0.58-0.44-1.31-0.58-1.88-0.72c-0.87-0.29-1.74-0.44-2.46-0.87c-0.73-0.43-1.45-0.58-2.03-0.87
		c-1.01-0.43-1.88-0.29-2.75,0.15c-0.14,0-0.29,0.14-0.44,0.29c-0.14,0.43-0.43,0.87-0.72,1.3c-0.15,0.29-0.44,0.58-0.44,1.01
		c-0.29,0.87-0.58,1.59-1.01,2.46c-0.58,1.01-1.01,2.03-1.3,3.19c0,0.58-0.29,1.16-0.58,1.74c-0.14,0.14-0.14,0.29-0.29,0.43
		c-0.58,1.59-1.31,3.19-1.88,4.78c-0.29,0.58-0.58,1.3-0.87,1.88c-0.43,1.01-0.73,1.88-1.01,2.9c-0.58,1.45-1.3,3.04-1.88,4.49
		c-0.44,1.01-0.73,2.03-1.3,3.04c0,0.14,0,0.44,0,0.73c-0.15,0-0.29,0.14-0.29,0.29c-0.29,0.87-0.72,1.74-0.87,2.61
		c0,0.44-0.14,0.87-0.43,1.31c-0.29,0.29-0.43,0.58-0.43,0.87c-0.14,0.29-0.14,0.44-0.29,0.72c-0.15,0.73-0.44,1.3-0.44,2.17
		c0,0.43-0.29,0.87-0.43,1.3c-0.29,0.29-0.44,0.72-0.44,1.16c-0.29,0.29-0.43,0.58-0.58,1.01c0.14,0.14,0.29,0,0.14,0.14
		c-0.14,0.14-0.43,0.43-0.43,0.72c0,0,0.14,0,0.14,0.15c-0.58,0.72-1.01,1.45-1.3,2.32c-0.15,0.58-0.44,1.16-0.58,1.74
		c-0.14,0.73-0.58,1.16-0.87,1.74c0,0.43-0.29,0.58-0.58,0.58c-0.87,0.14-1.88,0-2.75,0.29c-0.43,0.14-0.87,0-1.45,0.14
		c-0.18,0-0.35,0-0.49-0.04c0.08,1.46-0.03,3.08-0.37,4.89c-1.34,7.32-5.35,12.3-11.7,15.29c0.3,0.05,0.61,0.09,0.96,0.16
		c0.14,0,0.29,0,0.58,0.14c0.29,0.14,0.58,0.29,1.01,0.29c0.43,0,0.87-0.14,1.16,0.14c0.14,0.15,0,0.44,0.29,0.58
		c0.14,0,0.29,0.14,0.58,0.14c0.14-0.14,0.29-0.14,0.44-0.14c0.58,0,1.3,0,2.03-0.14c0.44,0,1.01,0,1.59,0.29
		c0.14,0.29,0,0.58-0.14,0.73c-0.44,0.72-0.58,1.59-0.87,2.46c-0.29,0.72-0.43,1.45-0.87,2.17c-0.14,0.29-0.14,0.58,0,1.01
		c0,0.29,0,0.72,0.14,1.01c0,1.59-0.43,3.04-1.3,4.35c-0.43,0.58-0.58,1.3-0.87,2.03c0,0.14,0,0.29,0,0.43c0,0.72,0,1.59-0.14,2.32
		c0,0.15,0,0.29,0,0.58c0.14,1.01,0.14,2.17-0.14,3.19c-0.29,0.87-0.29,1.74-0.43,2.75c0.14-0.29,0.14-0.43,0.14-0.73
		c0-0.29,0.14-0.43,0.29-0.72c0.29,0.43,0.14,0.72,0,1.01c0,0.43-0.14,0.87-0.14,1.45c0.14,0,0.14,0,0.29,0c0-0.14,0-0.29,0.14-0.43
		c0.44,0,0.15-0.44,0.44-0.58c0.14,0.73-0.44,1.59-0.29,2.32c0.14,0.14,0.29-0.14,0.58,0c0,0.58-0.14,1.01-0.14,1.45
		c0,0.58-0.29,1.01-0.14,1.45c0.29,0.14,0.29-0.15,0.43,0c0,0.29-0.29,0.72-0.14,1.01c0.29,0,0.14-0.29,0.44-0.29l0.14,0.14
		c0.43-0.43,0.43-1.16,0.87-1.59c0.29,0.14,0.14,0.43,0,0.58c-0.14,0.44-0.29,0.87-0.29,1.45c0.29-0.43,0.43-0.87,0.58-1.3
		c0.14-0.44,0.43-0.87,0.87-1.16c-0.14,1.31-0.87,2.46-1.01,3.62c0.15,0,0.29,0.29,0.44,0.29c0.14-0.58,0.87-0.58,1.16-0.87
		c0.29,0.43,0.29,0.87,0,1.3c-0.14,0.29-0.29,0.58-0.58,0.87c-0.72,0.58-0.87,1.31-0.72,2.17c0,0.15,0.29,0.29,0.29,0.44
		c0,0.29-0.14,0.43-0.29,0.58c-0.14,0.29-0.29,0.43-0.29,0.72c-0.14,0,0,0,0,0.14c0.15,0,0.29,0,0.44-0.14
		c0.43-0.58,0.87-1.16,1.16-1.59c0.72-0.58,1.45-0.44,2.17-0.58c0.29-0.72,0.58-1.3,1.16-1.74c0-0.14,0.14-0.29,0.14-0.43
		c0.43-0.58,1.01-1.3,1.3-1.88c0.29-0.44,0.58-0.87,0.73-1.31c0.43-0.87,0.87-1.59,1.16-2.61c0.14,0,0.14-0.14,0.29-0.29
		c0.14-0.29,0.43-0.72,0.58-1.01c0.29-0.87,0.87-1.45,1.16-2.17c0.15-0.29,0.29-0.44,0.29-0.73c0-0.14,0-0.43,0.29-0.58
		c0.14-0.29,0.29-0.58,0.43-0.87c0.14-0.44,0.29-0.87,0.44-1.16c0.29-0.72,0.58-1.3,0.87-1.88c0-0.29,0.15-0.72,0.29-0.87
		c0.58-0.87,0.87-1.88,1.3-2.75c0.43-1.01,0.87-2.03,1.3-3.04c0.43-0.87,0.72-1.74,1.16-2.61c0.14-0.58,0.43-1.16,0.72-1.74
		c0.14-0.58,0.43-1.01,0.58-1.45c0.29-0.43,0.43-1.16,1.01-1.3c0-0.43,0.29-0.72,0.43-1.16c0-0.29,0-0.43-0.14-0.58
		c0.44-0.44,0.29-1.16,0.73-1.59c0.58-0.14,1.16-0.14,1.59-0.29c0.44-0.14,0.72-0.14,1.16-0.14c0.58,0,1.3,0.14,1.88-0.14
		c0.29,0,0.72-0.14,1.01-0.14c0.58,0.14,1.16,0,1.74,0c0.73,0,1.3-0.29,2.03,0h0.14c0.43-0.14,1.01-0.14,1.45-0.44
		c0.44,0.14,0.72,0.14,1.16,0.14c0.73-0.14,1.45-0.14,2.17-0.29c0.72,0,0.87,0.14,1.16,0.73c0.58,0.14,1.3,0.29,1.88,0
		c0.29-0.29,0.29-0.58,0.58-0.73c0.29,0.14,0.58,0.14,0.87,0.14c-0.29,0.29-0.73,0.29-0.73,0.58c0,0.14,0.15,0.14,0.29,0.14
		c0,0,0.14-0.14,0.29-0.14c0.29,0.29,0.58,0.29,0.87,0.14c0-0.14-0.15-0.14-0.29-0.29c0.29-0.14,0.44-0.29,0.73-0.58
		c0.29,0,0.58,0.14,0.73,0.14c0.14,0.14-0.14,0.29,0,0.44c0.43,0,0.87,0.29,1.45-0.14c-0.14-0.15-0.29-0.15-0.44-0.29
		c0.29-0.14,0.73,0,1.01-0.29c0.15,0,0.15,0.14,0.29,0.14c0.43,0.14,1.01,0.14,1.45,0c0.43,0,0.73-0.14,1.16-0.14
		c0.29,0,0.72,0,1.16,0c0.58,0.14,1.16,0,1.59,0.29c0.87-0.29,1.88-0.29,2.61,0c1.88,0,3.77-0.14,5.94-0.29
		c0.29,0.14,0.87,0.14,1.45,0c0,0.14,0.14,0.29,0,0.29c-0.29,0.73-0.44,1.31-0.73,2.03c-0.14,0.72-0.43,1.16-0.72,1.74
		c-0.14,0.43-0.14,0.87-0.44,1.3c-0.43,0.87-0.72,1.74-1.01,2.61c-0.43,1.45-1.01,2.9-1.45,4.35c-0.29,0.58-0.58,1.3-0.58,2.03
		c-0.15,0.29-0.44,0.44-0.44,0.72c-0.14,0.58-0.29,1.01-0.58,1.59c-0.44,1.16-0.87,2.32-1.3,3.62c-0.15,0.58-0.29,1.16-0.58,1.88
		c-0.29,0.87-0.72,1.88-1.01,2.9c-0.29,1.01-0.72,1.88-1.01,2.75c-0.14,0.29-0.29,0.58-0.29,0.87c-0.14,0.87-0.43,1.59-0.72,2.46
		c0,0.29-0.15,0.58-0.29,0.87c-0.14,0.87-0.43,1.74-0.72,2.46c-0.15,0.72-0.29,1.45-0.58,2.32c-0.14,0.87-0.43,1.88-0.58,2.9
		c-0.44,1.74-0.73,3.62-0.87,5.51c0,0.43,0,0.87,0.29,1.3c-0.14,0-0.14,0-0.29,0v0.14c0,0.58,0,1.16,0.14,1.74
		c0.14,0.14,0.29,0.14,0.43,0.29c0,0.14,0,0.14,0.15,0.14c0,0.14,0,0.14-0.29,0.14c-0.14,0.29-0.43,0.14-0.58,0.29
		c0,0.44,0.29,0.58,0.29,0.87c0.58,0,0.14-0.14,0.43-0.14c0.15,0,0.44,0.29,0.73,0.43c-0.29,0.14-0.43,0.14-0.58-0.14
		c-0.44-0.43-0.15,0.29,0.14,0.58c0.14,0.29,0,0.43,0,0.72c-0.14,0.14-0.14,0.29,0,0.43c0,0-0.14,0-0.14,0.15
		c0,0.29,0.14,0.58,0.43,0.72c0.29,0,0.43-0.14,0.72-0.29c0-0.14,0-0.29,0.15-0.43l0.14,0.14c0.58,0,0.72,0.43,0.87,0.72
		c0.14,0.29,0,0.58,0,0.87c0.29,0.58,0,1.02-0.15,1.59c0,0.14,0,0.29,0,0.43c0,0.29-0.14,0.43-0.14,0.58
		c0.14,0.44,0.44,0.58,0.58,1.02c0.29-0.29,0.29-0.72,0.72-1.02c0.29,0,0.58-0.29,1.01-0.29c0.14-0.14,0-0.43,0.29-0.43
		c0,0.29,0,0.43-0.15,0.72c-0.14,0.44-0.29,1.02-0.58,1.45c-0.14,0.14-0.14,0.29-0.14,0.58v0.14c0.29,0,0.29-0.29,0.58-0.14
		c0.44,0.44,0.14,1.02,0.14,1.45c0.29,0.29,0.44,0.58,0.44,1.01c0,0.44-0.14,1.02-0.29,1.45c-0.15,0.14-0.15,0.43,0.14,0.58
		c0.29-0.14,0.43-0.43,0.58-0.72c0-0.43,0.29-0.72,0.58-1.16c0.14,0,0.14,0,0.29,0.14c0.43-0.43,0.58-1.01,0.87-1.45
		c0.43-0.72,0.87-1.45,1.3-2.17c0.58-0.87,1.01-1.74,1.45-2.61c0.58-1.02,1.3-2.03,1.74-3.19c0.14-0.29,0.43-0.72,0.43-1.16
		c0-0.43,0.29-1.01,0.43-1.45c0.58-1.01,0.73-2.32,1.16-3.33c0-0.14,0-0.14,0-0.14c0.14-0.43,0.29-1.02,0.73-1.31
		c0.14-0.14,0.29-0.43,0.29-0.58c0.14-0.43,0.14-0.87,0.14-1.31c0.14-0.72,0.29-1.45,0.87-2.03c0.43-0.29,0.73-0.58,1.01-1.02
		c0.29-0.14,0.58-0.43,0.58-0.87c0-0.14,0-0.29,0.14-0.58c0.44-0.87,1.01-1.88,1.45-2.9c0.14-0.14,0.14-0.29,0.29-0.29
		c0.29-0.43,0.43-0.72,0.58-1.16c0.29-0.73,0.58-1.45,0.87-2.17c0.29-0.58,0.44-1.16,0.73-1.59c0.29-0.87,0.58-1.59,0.72-2.46
		c0-0.29,0.15-0.58,0.29-0.87c0.72-1.16,1.3-2.32,1.88-3.62c0.14-0.29,0.29-0.72,0.44-1.16c0-0.29,0.14-0.58,0.29-0.72
		c0.29-0.43,0.58-0.87,0.73-1.16c0.29-0.72,0.72-1.45,0.72-2.17c0-0.44,0.14-0.72,0.44-1.16c0.29-0.58,0.58-1.45,0.87-2.17
		c0.44-0.72,0.58-1.74,1.01-2.46c0.44-0.87,0.73-1.74,1.01-2.61c0-0.14,0.14-0.29,0.14-0.29c0.29-0.58,0.44-1.16,0.72-1.59
		c0.14-0.44,0.29-0.72,0.43-1.16c0.29-0.87,0.73-1.59,0.87-2.61c0-0.14,0.14-0.29,0.14-0.43c0.44-0.87,0.73-1.74,1.16-2.61
		c0.29-0.29,0.43-0.58,0.58-0.87c0.14-0.58,0.43-1.16,0.43-1.74c0.14-0.14,0.14-0.29,0.29-0.43c0.29-0.72,0.73-1.3,0.87-2.03
		c0.14-0.29,0.29-0.58,0.43-0.87c0.14-0.58,0.58-1.16,0.72-1.74c0.14-0.72,0.29-1.3,0.58-1.74c0.29-0.29,0.29-0.58,0.43-1.01
		c0-0.58,0.29-1.16,0.58-1.74c0.29-0.29,0.44-0.72,0.58-1.16c0.29-0.58,0.43-1.16,0.72-1.59c0.29-0.72,0.72-1.3,0.72-2.03
		c0.58-0.87,0.87-1.59,1.01-2.61c0.14-0.29,0.14-0.58,0.29-0.87c0.44-0.43,0.87-1.01,1.01-1.74c0-0.14,0.14-0.29,0.29-0.44
		c0.14-0.29,0.29-0.43,0.44-0.72c0.29-0.72,0.43-1.45,0.87-2.03c0-0.14,0.14-0.44,0.14-0.58c0.43-0.72,0.72-1.45,0.87-2.32
		c0.14-0.29,0.44-0.43,0.44-0.72c0.14-0.58,0.29-1.01,0.43-1.45c0.14-0.29,0.44-0.58,0.58-0.87c0.14-0.72,0.43-1.3,0.72-2.03
		c0.29-0.43,0.58-0.73,0.73-1.3c0-0.44,0.29-0.72,0.58-1.01c0-0.58,0.15-1.01,0.44-1.45c0.29-0.29,0.43-0.58,0.29-0.87
		c0.43-0.58,0.58-1.3,0.87-1.88c0.29-0.72,0.43-1.3,1.01-1.74c0-0.14,0-0.44,0.14-0.58c0.29-0.87,0.58-1.74,0.87-2.46
		c0.29-0.58,0.58-1.16,0.87-1.74c0.14-0.44,0.44-0.73,0.44-1.3c0.14,0,0.14-0.14,0.14-0.14c0.43-0.58,0.58-1.31,0.87-1.88
		c0.29-1.01,0.73-2.03,1.16-2.9c0.29-1.01,0.87-1.74,1.3-2.61c0.43-1.01,0.87-1.88,1.3-2.75c0.14-0.14,0.14-0.29,0.29-0.44
		c0.29-0.87,0.43-1.74,0.72-2.61c0.29-0.72,0.58-1.59,0.87-2.32c0.29-0.58,0.58-1.16,0.73-1.88c0.14-0.87,0.58-1.59,1.01-2.32
		c0.29-0.58,0.43-1.01,0.58-1.59c0-0.43,0.15-0.87,0.29-1.16C211.31,70.73,211.45,69.57,211.31,68.41z"/>
	<path class="st1" d="M142.01,141.76c0,0,0,0,0.14,0C142.01,141.91,142.01,141.91,142.01,141.76z"/>
	<path class="st1" d="M148.83,186.12c-0.14,0-0.14-0.14-0.14-0.14C148.83,185.97,148.83,185.97,148.83,186.12z"/>
	<path class="st1" d="M148.68,190.9c0,0-0.14,0.14-0.29,0.14c0-0.14,0-0.14,0-0.14C148.54,190.76,148.68,190.9,148.68,190.9
		c0.14-0.14,0-0.29,0.29-0.43C148.97,190.76,148.83,190.76,148.68,190.9z"/>
	<path class="st1" d="M148.83,188.29c0.14,0,0.14,0,0.29,0.14C148.97,188.44,148.83,188.44,148.83,188.29z"/>
	<path class="st1" d="M149.12,182.64c0-0.14-0.14-0.14,0-0.29C149.26,182.35,149.12,182.49,149.12,182.64z"/>
	<path class="st1" d="M150.13,176.41c-0.29,0-0.43-0.14-0.43-0.43C149.99,175.97,150.13,176.12,150.13,176.41z"/>
	<path class="st1" d="M149.7,187.71c0,0.14-0.14,0.14-0.14,0.14C149.55,187.71,149.55,187.71,149.7,187.71z"/>
	<path class="st1" d="M149.55,185.83c0,0.14-0.14,0.14-0.29,0C149.26,185.68,149.41,185.68,149.55,185.83z"/>
	<path class="st1" d="M149.7,191.05c0,0,0,0-0.14,0C149.7,190.9,149.7,191.05,149.7,191.05c0.14,0.15,0.29,0.15,0.29,0.29
		C149.84,191.34,149.84,191.19,149.7,191.05z"/>
	<path class="st1" d="M149.55,189.89c-0.14-0.14-0.29-0.43,0-0.43c0.29,0,0.29,0.29,0.43,0.43
		C149.84,190.03,149.7,189.89,149.55,189.89z"/>
	<path class="st1" d="M149.99,187.86c0,0,0-0.14,0.14-0.14C150.13,187.86,150.13,188,149.99,187.86z"/>
	<path class="st1" d="M150.57,190.03h-0.14v-0.14c0.14,0,0.14,0,0.14,0S150.57,189.89,150.57,190.03z"/>
	<path class="st1" d="M150.57,188.87c0,0-0.14,0-0.29,0c0-0.29-0.15-0.43-0.15-0.58C150.57,188.29,150.57,188.58,150.57,188.87
		c0.14,0,0.14,0,0.14,0.15C150.57,188.87,150.57,188.87,150.57,188.87z"/>
	<path class="st1" d="M150.57,184.81c-0.14-0.14,0-0.14,0-0.14c0.14,0,0.14,0,0.14,0.14H150.57z"/>
	<path class="st1" d="M152.02,183.94c-0.14-0.29,0-0.14,0.14-0.29C152.16,183.8,152.16,183.94,152.02,183.94z"/>
</g>
</svg>
