<svg version="1.0" xmlns="http://www.w3.org/2000/svg"
 width="256px" height="256px" viewBox="0 0 3383.000000 3383.000000"
 preserveAspectRatio="xMidYMid meet">
<g transform="translate(0.000000,3383.000000) scale(0.100000,-0.100000)"
fill="#266a55" stroke="none">
<path d="M0 16915 l0 -16915 16915 0 16915 0 0 16915 0 16915 -16915 0 -16915
0 0 -16915z m3850 14889 c470 -69 841 -301 986 -618 13 -29 34 -91 45 -136 30
-118 24 -300 -14 -415 -73 -222 -261 -410 -506 -506 -54 -21 -123 -44 -152
-50 l-54 -12 95 -24 c238 -60 433 -166 571 -310 162 -169 223 -323 223 -563 0
-157 -19 -243 -84 -375 -174 -353 -612 -602 -1169 -666 -138 -15 -523 -6 -651
15 -365 63 -653 193 -856 388 -189 182 -284 395 -284 639 0 416 296 742 799
880 l83 23 -78 21 c-236 64 -429 196 -545 373 -138 210 -153 515 -37 747 93
184 240 322 465 434 201 100 415 154 698 175 93 7 359 -4 465 -20z m3400 12
c199 -27 350 -75 530 -167 349 -180 609 -466 773 -851 114 -266 157 -492 157
-830 0 -261 -29 -456 -98 -658 -220 -647 -704 -1079 -1317 -1175 -153 -24
-465 -17 -619 14 -316 64 -599 209 -818 420 -291 279 -467 631 -535 1071 -24
159 -24 500 0 660 98 640 445 1134 970 1380 145 68 354 126 517 143 90 10 346
5 440 -7z m9939 -12 c446 -58 858 -237 1149 -499 l52 -47 0 251 0 251 180 0
180 0 0 -595 0 -595 -182 2 -182 3 -16 65 c-42 162 -117 289 -250 420 -207
205 -492 340 -870 413 -101 19 -149 22 -385 22 -236 0 -285 -3 -390 -22 -359
-66 -663 -220 -896 -452 -208 -208 -329 -430 -391 -716 -29 -132 -36 -414 -14
-563 48 -325 182 -591 412 -817 247 -243 572 -397 977 -461 130 -21 492 -24
627 -5 218 30 393 79 557 157 319 152 583 436 764 820 31 64 55 104 62 101 93
-37 327 -154 327 -164 0 -20 -81 -199 -133 -294 -74 -137 -164 -256 -287 -380
-212 -213 -432 -348 -730 -449 -493 -165 -1173 -172 -1685 -17 -650 198 -1118
648 -1275 1228 -39 146 -52 243 -57 440 -11 419 63 711 260 1024 335 532 915
838 1702 899 91 7 377 -4 494 -20z m13149 1 c311 -44 614 -159 814 -310 47
-36 88 -65 90 -65 1 0 3 73 3 162 l0 163 178 3 177 2 0 -495 0 -495 -177 2
-178 3 -5 90 c-5 76 -11 100 -39 155 -39 76 -144 185 -240 250 -352 237 -916
323 -1370 209 -267 -67 -480 -223 -552 -407 -31 -76 -33 -223 -5 -297 50 -132
154 -233 331 -320 191 -94 315 -128 885 -244 578 -118 807 -182 1025 -286 279
-134 458 -322 526 -553 30 -100 37 -286 14 -388 -110 -498 -670 -832 -1445
-861 -527 -19 -1046 144 -1336 419 -39 37 -74 68 -78 68 -3 0 -6 -95 -6 -210
l0 -210 -177 2 -178 3 0 615 0 615 178 3 177 2 0 -82 c0 -165 29 -268 109
-391 350 -536 1381 -719 1995 -356 41 25 107 79 156 128 141 142 197 278 187
456 -8 155 -67 261 -203 363 -204 153 -429 226 -1164 377 -254 52 -561 129
-663 165 -429 152 -658 347 -732 625 -26 96 -31 267 -10 360 88 398 560 692
1196 745 133 11 381 4 517 -15z m-17548 -150 l0 -165 -381 0 -380 0 39 -72
c136 -249 928 -1690 1205 -2193 182 -330 349 -635 371 -677 l41 -78 313 0 312
0 0 -170 0 -170 -830 0 -830 0 0 170 0 170 310 0 c171 0 310 2 310 3 0 2 -112
201 -248 443 -137 241 -286 505 -331 587 l-83 147 -968 0 -968 0 -52 -97 c-78
-145 -280 -523 -439 -818 l-139 -260 321 -5 322 -5 0 -165 0 -165 -845 0 -845
0 0 165 0 165 315 3 316 2 317 585 c174 321 317 586 317 589 0 3 -81 6 -180 6
l-180 0 0 165 0 165 274 0 273 0 407 750 c223 412 406 752 406 755 0 3 -171 5
-380 5 l-380 0 0 165 0 165 1145 0 1145 0 0 -165z m9098 154 c457 -49 812
-225 982 -485 92 -141 125 -271 117 -462 -9 -234 -75 -373 -258 -547 -176
-167 -394 -266 -742 -339 -59 -12 -109 -25 -110 -28 -2 -4 115 -195 763 -1247
l146 -236 402 -3 402 -2 0 -165 0 -164 -42 -6 c-24 -3 -256 -5 -517 -3 l-474
3 -550 898 -550 897 -569 0 -568 0 0 -730 0 -730 328 -2 327 -3 0 -165 0 -165
-860 0 -860 0 -3 168 -2 167 330 0 330 0 0 740 0 740 -200 0 -200 0 0 165 0
165 198 2 197 3 3 608 2 607 -330 0 -330 0 0 165 0 165 1270 0 c826 0 1305 -4
1368 -11z m6320 -436 l-3 -448 -177 -3 -178 -2 -2 282 -3 283 -1375 0 -1375 0
-3 -647 -2 -648 900 0 900 0 0 -170 0 -170 -897 -2 -898 -3 0 -690 0 -690
1375 0 1375 0 3 283 2 282 180 0 180 0 -2 -452 -3 -453 -2110 0 -2110 0 -3
168 -2 167 335 0 335 0 0 695 0 695 -199 0 -199 0 2 168 1 167 198 3 197 2 0
650 0 650 -335 0 -335 0 0 165 0 165 2115 0 2115 0 -2 -447z m-10618 -6694
c124 -4 297 -15 385 -23 1726 -172 3285 -667 4735 -1504 1213 -700 2314 -1649
3206 -2762 917 -1143 1605 -2470 2009 -3872 186 -645 325 -1379 390 -2060 38
-407 45 -1500 11 -1883 -60 -669 -155 -1245 -300 -1824 -492 -1957 -1501
-3732 -2946 -5182 -349 -350 -579 -557 -968 -870 l-197 -159 -7 -48 c-3 -26
-7 -95 -7 -153 -1 -136 -22 -255 -71 -400 -67 -201 -170 -382 -292 -516 l-66
-71 179 -415 179 -416 0 -129 c0 -102 -4 -144 -20 -195 -41 -132 -152 -257
-289 -325 -74 -36 -77 -37 -214 -40 -154 -4 -196 3 -294 50 -162 79 -192 128
-449 718 -73 168 -139 308 -146 312 -7 3 -78 11 -158 17 -335 25 -607 137
-862 355 -243 207 -449 567 -487 849 -14 100 -14 417 -1 525 27 215 166 502
347 715 l75 87 -318 743 c-564 1319 -1273 2969 -1276 2973 -2 2 -510 4 -1128
4 l-1125 2 -6 -604 c-4 -393 -10 -620 -18 -653 -19 -85 -62 -156 -141 -235
-86 -87 -147 -122 -256 -150 -136 -35 -280 -21 -402 38 -86 41 -200 158 -247
255 l-38 77 -8 208 c-4 114 -8 402 -8 640 l-1 432 -1128 0 -1127 0 -547 -1277
c-936 -2184 -1038 -2425 -1038 -2447 0 -12 30 -58 66 -101 179 -215 288 -438
341 -700 28 -140 25 -426 -5 -564 -89 -398 -305 -713 -642 -936 -223 -147
-466 -226 -743 -242 -59 -3 -114 -11 -121 -17 -7 -6 -59 -117 -114 -246 -160
-374 -241 -551 -274 -603 -41 -65 -126 -138 -212 -184 -71 -38 -71 -38 -210
-41 -232 -6 -311 20 -436 147 -125 126 -176 253 -167 411 6 102 31 175 218
622 71 170 129 315 129 324 0 9 -40 69 -89 134 -99 131 -167 250 -222 386 -75
185 -102 328 -102 531 l1 141 -67 53 c-434 346 -694 575 -1045 919 -852 837
-1538 1759 -2089 2805 -407 774 -727 1617 -941 2480 -138 559 -231 1122 -287
1740 -39 431 -35 1493 6 1935 84 872 271 1750 552 2573 823 2421 2498 4520
4723 5919 541 340 1167 659 1771 904 1017 412 2082 676 3164 784 450 45 515
48 1085 47 305 0 656 -4 780 -8z"/>
<path d="M3369 31560 c-301 -27 -541 -129 -699 -296 -122 -130 -165 -248 -157
-429 5 -126 27 -199 84 -285 108 -163 296 -273 565 -332 91 -20 132 -22 358
-23 208 0 271 3 345 18 445 91 674 314 675 659 0 111 -14 175 -55 263 -116
242 -411 389 -849 425 -140 11 -140 11 -267 0z"/>
<path d="M3355 29933 c-372 -30 -627 -132 -805 -319 -125 -132 -177 -279 -166
-469 10 -172 56 -291 159 -413 207 -245 606 -379 1067 -359 589 27 981 290
1050 707 37 220 -59 463 -238 605 -179 143 -387 217 -682 244 -107 10 -292 12
-385 4z"/>
<path d="M6895 31529 c-324 -22 -596 -149 -841 -394 -250 -249 -393 -567 -435
-965 -15 -141 -7 -399 16 -530 67 -379 260 -720 529 -936 304 -244 694 -339
1103 -268 604 104 1052 625 1134 1318 15 125 6 431 -15 544 -48 259 -148 501
-279 682 -55 74 -178 201 -257 264 -270 216 -586 310 -955 285z"/>
<path d="M11233 30693 l-381 -708 395 -3 c217 -1 569 -1 782 0 l388 3 -174
310 c-358 637 -615 1090 -622 1098 -4 4 -179 -311 -388 -700z"/>
<path d="M20328 31484 c-5 -4 -8 -281 -8 -616 l0 -609 703 4 c661 4 708 5 812
25 458 87 698 267 736 552 20 145 -26 277 -135 386 -127 126 -302 197 -596
241 -85 13 -239 16 -805 20 -385 3 -703 1 -707 -3z"/>
<path d="M16390 23584 c-489 -32 -831 -70 -1240 -140 -1491 -253 -2942 -847
-4175 -1707 -691 -483 -1333 -1058 -1885 -1688 -1160 -1325 -1954 -2928 -2299
-4644 -129 -644 -191 -1274 -191 -1951 0 -1594 374 -3138 1104 -4559 474 -923
1064 -1736 1806 -2489 303 -307 532 -517 875 -798 l81 -66 79 55 c98 67 262
151 376 191 115 41 295 80 399 87 117 9 125 11 140 42 15 34 279 650 915 2136
263 614 476 1119 473 1122 -3 3 -351 9 -774 13 l-769 9 -67 25 c-225 85 -358
275 -358 510 0 226 104 396 307 501 l91 47 754 1 c414 1 879 4 1032 8 l279 6
127 295 c482 1123 740 1723 1002 2330 608 1409 938 2178 938 2186 0 5 -26 28
-58 51 -88 64 -269 230 -350 322 -809 917 -866 2214 -139 3184 161 215 433
467 657 609 225 142 582 296 783 338 l57 11 1 562 c1 784 14 1512 29 1567 37
145 153 284 295 355 l80 40 166 0 165 0 86 -42 c158 -79 272 -226 299 -388 8
-49 13 -379 18 -1083 l6 -1014 120 -34 c923 -265 1621 -1014 1810 -1941 48
-236 55 -486 24 -813 -45 -476 -285 -980 -664 -1396 -42 -46 -136 -135 -211
-200 -75 -64 -138 -123 -141 -130 -3 -8 50 -144 117 -302 287 -674 555 -1302
1221 -2857 l707 -1650 273 -6 c151 -4 611 -7 1022 -8 l748 -1 87 -42 c246
-119 380 -386 317 -633 -40 -155 -153 -299 -287 -364 -89 -44 -168 -50 -684
-51 -565 0 -984 -10 -984 -24 0 -6 21 -60 46 -121 50 -117 1203 -2810 1299
-3030 l56 -131 122 -12 c156 -15 244 -34 388 -82 140 -46 232 -91 361 -176 53
-35 103 -64 111 -64 14 0 170 125 397 319 190 161 816 791 996 1001 507 592
899 1155 1246 1789 407 746 718 1541 923 2361 146 585 249 1241 276 1764 13
260 6 1351 -10 1526 -32 339 -111 858 -182 1193 -434 2050 -1495 3904 -3059
5347 -918 847 -1896 1470 -3090 1967 -924 385 -1963 639 -2995 732 -66 6 -172
16 -235 22 -108 10 -1120 21 -1240 13z"/>
<path d="M16695 18554 c-435 -67 -818 -333 -1039 -719 -220 -386 -234 -894
-35 -1290 74 -147 232 -366 250 -348 5 5 53 114 108 243 141 334 356 828 411
945 72 151 150 234 280 300 87 43 102 46 250 46 150 0 198 -14 316 -93 126
-84 157 -135 347 -573 218 -503 359 -831 369 -855 l10 -25 40 45 c48 53 152
209 201 300 43 79 92 216 118 330 29 124 36 374 15 505 -77 467 -362 847 -791
1056 -267 129 -569 177 -850 133z"/>
<path d="M16897 15699 c-8 -19 -124 -286 -257 -594 -326 -753 -669 -1549
-1105 -2565 -200 -465 -446 -1038 -548 -1275 -339 -790 -409 -957 -402 -963 4
-4 402 -8 884 -10 l878 -2 5 620 5 621 42 84 c73 147 201 263 339 305 90 28
264 28 354 0 138 -42 266 -158 339 -305 l42 -84 5 -621 5 -620 871 0 c479 0
877 4 884 9 11 6 -55 168 -293 722 -169 393 -535 1247 -815 1899 -846 1974
-1198 2791 -1210 2804 -5 5 -15 -6 -23 -25z"/>
<path d="M22336 4759 c-77 -12 -168 -62 -225 -124 -129 -142 -127 -341 4 -483
149 -161 366 -172 523 -27 70 65 107 129 123 215 21 117 -27 240 -132 334 -87
78 -174 104 -293 85z"/>
<path d="M11318 4751 c-72 -23 -178 -124 -220 -209 -34 -69 -37 -196 -8 -275
29 -77 74 -134 140 -179 70 -47 126 -62 218 -61 63 1 84 6 147 37 157 78 235
220 213 389 -15 112 -96 220 -207 275 -48 23 -70 27 -156 29 -55 1 -112 -2
-127 -6z"/>
</g>
</svg>
