<svg width="256" height="256" viewBox="0 0 256 256" fill="none" xmlns="http://www.w3.org/2000/svg">
<g clip-path="url(#clip0_10370_114040)">
<rect width="256" height="256" fill="white"/>
<path d="M0 128V256H128H256V128V-3.87058e-06H128H0V128ZM134.059 20.5143C137.837 20.6479 141.253 21.0105 146.081 21.812C163.79 24.7317 179.973 31.6303 194.218 42.3454C195.478 43.29 198.646 45.8186 199.275 46.3815C199.438 46.5151 199.953 46.9731 200.42 47.3834C205.325 51.658 209.962 56.5146 214.113 61.7339C222.719 72.5349 229.284 85.2347 233.053 98.3735C235.047 105.339 236.545 113.697 236.917 120.033C237.079 122.809 237.146 131.464 237.022 133.677C235.743 155.775 227.69 176.719 213.779 194.075C208.703 200.411 203.083 206.021 196.594 211.231L194.772 212.7L194.705 213.273C194.676 213.597 194.648 214.246 194.648 214.733C194.648 217.567 193.207 221.145 191.184 223.349C190.65 223.921 190.554 224.074 190.631 224.217C190.688 224.312 191.461 226.106 192.367 228.196L193.999 232.003L193.961 233.434L193.932 234.865L193.56 235.619C193.064 236.65 192.11 237.604 191.07 238.119C190.316 238.491 190.316 238.491 188.99 238.52C187.52 238.558 187.11 238.491 186.194 238.043C185.421 237.661 184.906 237.232 184.448 236.545C183.914 235.762 183.618 235.133 182.043 231.526C181.271 229.742 180.574 228.253 180.507 228.215C180.44 228.186 179.763 228.11 179 228.053C176.376 227.852 174.305 227.146 172.139 225.715C169.592 224.017 167.559 221.316 166.557 218.292C166.128 217.004 166.023 216.183 166.023 214.017C166.023 211.842 166.128 211.05 166.567 209.79C167.235 207.834 168.113 206.288 169.429 204.733L170.136 203.894L167.111 196.814C161.166 182.921 154.964 168.485 154.936 168.447C154.917 168.428 150.07 168.408 144.173 168.408L133.439 168.389L133.381 174.153C133.343 177.902 133.286 180.068 133.21 180.383C133.028 181.194 132.618 181.872 131.864 182.625C131.044 183.456 130.462 183.789 129.422 184.057C128.124 184.391 126.75 184.257 125.586 183.694C124.737 183.293 123.649 182.167 123.22 181.251L122.867 180.507L122.79 178.484C122.752 177.378 122.714 174.639 122.714 172.387L122.704 168.313H111.951H101.188L97.7819 176.261C95.9022 180.622 92.9729 187.482 91.2555 191.499C89.5475 195.516 87.6774 199.886 87.1049 201.212C86.5324 202.548 86.0649 203.731 86.0649 203.846C86.0649 203.96 86.3416 204.38 86.6946 204.81C88.3644 206.813 89.3758 208.855 89.9006 211.279C90.2059 212.681 90.2059 215.448 89.9006 216.851C89.08 220.62 86.9904 223.673 83.7749 225.801C81.7234 227.156 79.7674 227.824 77.2389 228.053C75.2734 228.225 75.6168 227.9 74.386 230.763C72.0865 236.096 71.9815 236.316 71.2277 237.06C70.7984 237.489 70.3022 237.861 69.8442 238.11L69.1286 238.491L67.8023 238.52C65.5887 238.577 64.8349 238.329 63.6422 237.117C62.4495 235.925 61.9629 234.703 62.0488 233.196C62.0965 232.232 62.4018 231.373 64.2433 226.965L65.436 224.122L64.4914 222.862C63.0124 220.897 61.9629 218.597 61.5812 216.498C61.4858 216.002 61.4286 215.114 61.4286 214.237V212.786L60.8942 212.376C43.6526 198.913 31.1723 181.557 24.4168 161.634C21.3922 152.722 19.5316 143.209 18.9877 133.916C18.7873 130.424 18.9209 121.369 19.2262 118.077C20.2472 107.171 23.0238 96.1694 27.2889 86.1603C38.3475 60.2168 59.9401 39.1204 86.437 28.3861C96.7609 24.1974 107.524 21.6402 118.649 20.7147C119.909 20.6098 121.111 20.5048 121.321 20.4857C122.18 20.4094 131.626 20.4285 134.059 20.5143Z" fill="#266A55"/>
<path d="M122.991 30.9814C103.02 32.0787 84.2043 38.8532 68.5561 50.5988C58.0699 58.4706 49.4253 68.0885 42.8225 79.2426C35.5996 91.4367 31.0864 105.472 29.9128 119.413C29.4739 124.679 29.4548 130.204 29.8651 135.204C30.4948 142.866 31.9261 150.003 34.2638 157.121C35.8572 161.987 37.4888 165.899 39.8837 170.651C41.8684 174.572 43.4618 177.292 45.8377 180.812C49.4157 186.108 52.8698 190.335 57.3448 194.877C60.2263 197.806 62.4209 199.8 65.6936 202.491L66.4665 203.121L67.2203 202.596C68.1554 201.957 69.7202 201.155 70.8079 200.773C71.9625 200.363 73.6895 200.001 74.7677 199.924C75.2829 199.896 75.7314 199.819 75.7982 199.743C75.9222 199.619 76.5424 198.207 80.0346 190.02C81.2941 187.081 83.8799 181.041 85.7786 176.586C87.6869 172.139 89.2231 168.475 89.1945 168.456C89.1659 168.428 85.8454 168.37 81.8093 168.332L74.4719 168.246L73.8326 168.008C71.6762 167.197 70.4167 165.393 70.4167 163.113C70.4167 160.995 71.4281 159.353 73.346 158.361L74.2143 157.913L81.4563 157.903C85.4351 157.894 89.8624 157.865 91.3032 157.827L93.9176 157.77L96.4365 151.902C99.3181 145.203 106.331 128.925 110.644 118.935C112.247 115.205 113.583 112.075 113.602 111.97C113.63 111.827 113.506 111.684 113.096 111.379C112.791 111.169 112.066 110.558 111.484 110.033C105.348 104.509 102.467 96.0834 103.955 88.0113C104.843 83.25 107.133 78.9182 110.625 75.4164C113.421 72.6303 116.436 70.7792 120.414 69.4148C121.073 69.1953 121.855 68.9568 122.161 68.89L122.704 68.785L122.714 63.4704C122.714 60.5507 122.752 56.047 122.79 53.4804C122.867 48.8145 122.867 48.805 123.105 48.1276C123.582 46.7726 124.489 45.7612 125.825 45.0743L126.569 44.7021H128.153H129.737L130.548 45.1029C132.055 45.8567 133.133 47.2593 133.401 48.805C133.477 49.2725 133.534 52.3831 133.572 59.1385L133.63 68.8136L134.775 69.1381C139.898 70.617 144.507 73.7753 147.703 78.0022C150.289 81.4276 151.94 85.6068 152.379 89.8337C152.57 91.618 152.369 95.5205 151.997 97.2761C151.415 100.091 150.232 102.858 148.514 105.434C147.083 107.571 145.843 108.993 143.925 110.644C143.209 111.254 142.608 111.817 142.58 111.884C142.522 112.037 144.812 117.437 155.184 141.644L162.082 157.77L164.554 157.817C165.918 157.855 170.298 157.884 174.305 157.894L181.585 157.913L182.416 158.313C184.763 159.449 186.041 161.996 185.44 164.353C185.059 165.832 183.98 167.206 182.702 167.826C181.853 168.246 181.099 168.303 176.233 168.313C170.345 168.313 166.786 168.408 166.786 168.561C166.786 168.628 166.853 168.828 166.93 169C167.006 169.172 169.773 175.622 173.074 183.341C176.376 191.051 179.324 197.93 179.62 198.607L180.154 199.857L181.318 199.972C182.807 200.115 183.646 200.296 185.02 200.754C186.356 201.193 187.234 201.623 188.465 202.434C188.971 202.768 189.438 203.044 189.505 203.044C189.658 203.044 190.049 202.748 191.785 201.289C194.066 199.38 194.705 198.798 197.31 196.222C200.02 193.55 201.527 191.957 203.14 190.068C213.836 177.568 220.963 163.199 224.313 147.36C225.038 143.925 225.763 139.135 226.059 135.729C226.23 133.753 226.23 121.598 226.059 119.651C225.772 116.378 225.076 111.751 224.36 108.297C222.309 98.4688 218.75 89.1085 213.655 80.1967C212.882 78.8323 212.729 78.5842 211.164 76.1416C206.184 68.3557 200.153 61.3999 192.873 55.0356C184.906 48.0703 176.051 42.6221 165.641 38.2902C155.699 34.1492 144.879 31.7161 133.296 31.01C131.903 30.9241 124.374 30.905 122.991 30.9814Z" fill="#266A55"/>
<path d="M125.901 78.9659C121.741 79.6147 118.105 82.1241 115.997 85.8263C113.888 89.5093 113.754 94.3564 115.653 98.1349C116.35 99.5184 117.867 101.637 118.029 101.455C118.067 101.417 118.945 99.423 119.966 97.0376C123.277 89.2994 123.391 89.0799 124.46 88.059C124.67 87.8586 125.185 87.5151 125.605 87.2957C126.273 86.9426 126.464 86.8854 127.208 86.8377C129.135 86.7041 129.927 86.8949 131.263 87.8491C132.332 88.6028 132.561 89.0036 134.698 93.9175C135.805 96.4651 137.389 100.148 137.847 101.226C137.98 101.541 137.98 101.541 138.181 101.369C138.467 101.102 139.603 99.4898 140.108 98.6024C140.614 97.7246 141.205 96.1407 141.463 94.9384C141.606 94.2992 141.644 93.7362 141.644 92.2668C141.635 90.5589 141.616 90.3203 141.377 89.3566C140.347 85.2442 137.837 82.1146 134.107 80.2921C131.492 79.004 128.63 78.546 125.901 78.9659Z" fill="#266A55"/>
<path d="M127.828 106.207C127.752 106.388 126.645 108.936 125.376 111.875C122.161 119.308 118.888 126.912 114.833 136.349C112.924 140.786 110.577 146.253 109.604 148.514C106.427 155.909 105.701 157.646 105.768 157.703C105.806 157.741 109.604 157.779 114.203 157.798L122.58 157.817L122.628 151.902L122.676 145.986L123.077 145.175C123.773 143.772 124.994 142.665 126.311 142.265C126.76 142.122 127.198 142.074 127.943 142.074C129.708 142.074 130.595 142.427 131.778 143.6C132.341 144.154 132.589 144.497 132.914 145.146L133.324 145.986L133.372 151.902L133.42 157.817L141.797 157.798C146.396 157.779 150.194 157.741 150.232 157.703C150.26 157.674 149.106 154.879 147.656 151.501C146.205 148.133 142.77 140.127 140.022 133.725C131.349 113.487 128.162 106.093 128.048 105.969C128 105.921 127.905 106.026 127.828 106.207Z" fill="#266A55"/>
<path d="M179.887 210.591C178.036 210.82 176.671 212.299 176.681 214.065C176.691 215.076 176.977 215.734 177.75 216.507C178.542 217.299 179.181 217.576 180.24 217.585C181.194 217.585 181.881 217.318 182.606 216.641C184.152 215.21 184.238 213.263 182.826 211.698C181.996 210.773 181.099 210.439 179.887 210.591Z" fill="#266A55"/>
<path d="M74.5959 210.668C73.9089 210.888 72.8975 211.851 72.4967 212.662C72.3154 213.044 72.2773 213.263 72.2773 214.065C72.2773 214.952 72.2964 215.067 72.5922 215.658C72.9643 216.412 73.47 216.899 74.3001 217.29C74.844 217.538 75.0348 217.576 75.7218 217.576C76.4565 217.576 76.5901 217.548 77.2294 217.223C78.7369 216.479 79.5193 215.048 79.2712 213.483C79.0995 212.405 78.3457 211.412 77.3057 210.897C76.8286 210.668 76.6378 210.63 75.8077 210.611C75.2829 210.601 74.739 210.63 74.5959 210.668Z" fill="#266A55"/>
</g>
<defs>
<clipPath id="clip0_10370_114040">
<rect width="256" height="256" fill="white"/>
</clipPath>
</defs>
</svg>
