<?xml version="1.0" standalone="no"?>
<!DOCTYPE svg PUBLIC "-//W3C//DTD SVG 20010904//EN"
 "http://www.w3.org/TR/2001/REC-SVG-20010904/DTD/svg10.dtd">
<svg version="1.0" xmlns="http://www.w3.org/2000/svg"
 width="256px" height="256px" viewBox="0 0 2683 2683"
 preserveAspectRatio="xMidYMid meet">
<metadata>
</metadata>
<g transform="translate(0,2683) scale(0.1,-0.1)"
fill="#266a55" stroke="none">
<path d="M0 13415 l0 -13415 13415 0 13415 0 0 13415 0 13415 -13415 0 -13415
0 0 -13415z m14050 11265 c396 -14 754 -52 1260 -136 1856 -306 3552 -1029
5045 -2152 132 -99 464 -364 530 -423 17 -14 71 -62 120 -105 514 -448 1000
-957 1435 -1504 902 -1132 1590 -2463 1985 -3840 209 -730 366 -1606 405
-2270 17 -291 24 -1198 11 -1430 -134 -2316 -978 -4511 -2436 -6330 -532 -664
-1121 -1252 -1801 -1798 l-191 -154 -7 -60 c-3 -34 -6 -102 -6 -153 0 -297
-151 -672 -363 -903 -56 -60 -66 -76 -58 -91 6 -10 87 -198 182 -417 l171
-399 -4 -150 -3 -150 -39 -79 c-52 -108 -152 -208 -261 -262 -79 -39 -79 -39
-218 -42 -154 -4 -197 3 -293 50 -81 40 -135 85 -183 157 -56 82 -87 148 -252
526 -81 187 -154 343 -161 347 -7 3 -78 11 -158 17 -275 21 -492 95 -719 245
-267 178 -480 461 -585 778 -45 135 -56 221 -56 448 0 228 11 311 57 443 70
205 162 367 300 530 l74 88 -317 742 c-623 1456 -1273 2969 -1276 2973 -2 2
-510 4 -1128 4 l-1125 2 -6 -604 c-4 -393 -10 -620 -18 -653 -19 -85 -62 -156
-141 -235 -86 -87 -147 -122 -256 -150 -136 -35 -280 -21 -402 38 -89 42 -203
160 -248 256 l-37 78 -8 212 c-4 116 -8 403 -8 639 l-1 427 -1127 0 -1128 0
-357 -833 c-197 -457 -504 -1176 -684 -1597 -179 -421 -375 -879 -435 -1018
-60 -140 -109 -264 -109 -276 0 -12 29 -56 66 -101 175 -210 281 -424 336
-678 32 -147 32 -437 0 -584 -86 -395 -305 -715 -642 -938 -215 -142 -420
-212 -685 -236 -206 -18 -170 16 -299 -284 -241 -559 -252 -582 -331 -660 -45
-45 -97 -84 -145 -110 l-75 -40 -139 -3 c-232 -6 -311 20 -436 147 -125 125
-176 253 -167 411 5 101 37 191 230 653 l125 298 -99 132 c-155 206 -265 447
-305 667 -10 52 -16 145 -16 237 l0 152 -56 43 c-1807 1411 -3115 3230 -3823
5318 -317 934 -512 1931 -569 2905 -21 366 -7 1315 25 1660 107 1143 398 2296
845 3345 1159 2719 3422 4930 6199 6055 1082 439 2210 707 3376 804 132 11
258 22 280 24 90 8 1080 6 1335 -3z"/>
<path d="M12890 23583 c-2093 -115 -4065 -825 -5705 -2056 -1099 -825 -2005
-1833 -2697 -3002 -757 -1278 -1230 -2749 -1353 -4210 -46 -552 -48 -1131 -5
-1655 66 -803 216 -1551 461 -2297 167 -510 338 -920 589 -1418 208 -411 375
-696 624 -1065 375 -555 737 -998 1206 -1474 302 -307 532 -516 875 -798 l81
-66 79 55 c98 67 262 151 376 191 121 43 302 81 415 89 54 3 101 11 108 19 13
13 78 161 444 1019 132 308 403 941 602 1408 200 466 361 850 358 852 -3 3
-351 9 -774 13 l-769 9 -67 25 c-226 85 -358 274 -358 513 0 222 106 394 307
498 l91 47 759 1 c417 1 881 4 1032 8 l274 6 264 615 c302 702 1037 2408 1489
3455 168 391 308 719 310 730 3 15 -10 30 -53 62 -32 22 -108 86 -169 141
-643 579 -945 1462 -789 2308 93 499 333 953 699 1320 293 292 609 486 1026
629 69 23 151 48 183 55 l57 11 1 557 c0 306 4 778 8 1047 8 489 8 490 33 561
50 142 145 248 285 320 l78 39 166 0 166 0 85 -42 c158 -79 271 -226 299 -388
8 -49 14 -375 18 -1083 l6 -1014 120 -34 c537 -155 1020 -486 1355 -929 271
-359 444 -797 490 -1240 20 -187 -1 -596 -40 -780 -61 -295 -185 -585 -365
-855 -150 -224 -280 -373 -481 -546 -75 -64 -138 -123 -141 -130 -6 -16 234
-582 1321 -3119 l723 -1690 259 -5 c143 -4 602 -7 1022 -8 l763 -2 87 -42
c246 -119 380 -386 317 -633 -40 -155 -153 -299 -287 -364 -89 -44 -168 -50
-678 -51 -617 0 -990 -10 -990 -26 0 -7 7 -28 15 -46 8 -18 298 -694 644
-1503 346 -808 655 -1529 686 -1600 l56 -131 122 -12 c156 -15 244 -34 388
-82 140 -46 232 -91 361 -176 53 -35 102 -64 109 -64 16 0 57 31 239 184 239
200 306 261 579 531 284 280 442 447 611 645 1121 1310 1868 2816 2219 4476
76 360 152 862 183 1219 18 207 18 1481 0 1685 -30 343 -103 828 -178 1190
-215 1030 -588 2011 -1122 2945 -81 143 -97 169 -261 425 -522 816 -1154 1545
-1917 2212 -835 730 -1763 1301 -2854 1755 -1042 434 -2176 689 -3390 763
-146 9 -935 11 -1080 3z"/>
<path d="M13195 18554 c-436 -68 -817 -331 -1038 -719 -221 -386 -235 -894
-36 -1290 73 -145 232 -367 249 -348 4 4 96 213 203 463 347 811 359 834 471
941 22 21 76 57 120 80 70 37 90 43 168 48 202 14 285 -6 425 -106 112 -79
136 -121 360 -636 116 -267 282 -653 330 -766 14 -33 14 -33 35 -15 30 28 149
197 202 290 53 92 115 258 142 384 15 67 19 126 19 280 -1 179 -3 204 -28 305
-108 431 -371 759 -762 950 -274 135 -574 183 -860 139z"/>
<path d="M13397 15699 c-8 -19 -124 -286 -257 -594 -337 -779 -680 -1576
-1105 -2565 -200 -465 -446 -1038 -548 -1275 -333 -775 -409 -957 -402 -963 4
-4 402 -8 884 -10 l878 -2 5 620 5 620 42 85 c73 147 201 263 339 305 47 15
93 20 171 20 185 0 278 -37 402 -160 59 -58 85 -94 119 -162 l43 -88 5 -620 5
-620 878 2 c482 2 880 6 884 10 3 3 -118 296 -270 650 -152 353 -512 1192
-800 1863 -909 2121 -1243 2896 -1255 2909 -5 5 -15 -6 -23 -25z"/>
<path d="M18853 4759 c-194 -24 -337 -179 -336 -364 1 -106 31 -175 112 -256
83 -83 150 -112 261 -113 100 0 172 28 248 99 162 150 171 354 23 518 -87 97
-181 132 -308 116z"/>
<path d="M7818 4751 c-72 -23 -178 -124 -220 -209 -19 -40 -23 -63 -23 -147 0
-93 2 -105 33 -167 39 -79 92 -130 179 -171 57 -26 77 -30 149 -30 77 0 91 3
158 37 158 78 240 228 214 392 -18 113 -97 217 -206 271 -50 24 -70 28 -157
30 -55 1 -112 -2 -127 -6z"/>
</g>
</svg>
