<?xml version="1.0" encoding="UTF-8"?>
<!DOCTYPE svg PUBLIC "-//W3C//DTD SVG 1.1//EN" "http://www.w3.org/Graphics/SVG/1.1/DTD/svg11.dtd">
<svg xmlns="http://www.w3.org/2000/svg" version="1.1" width="256px" height="256px" style="shape-rendering:geometricPrecision; text-rendering:geometricPrecision; image-rendering:optimizeQuality; fill-rule:evenodd; clip-rule:evenodd" xmlns:xlink="http://www.w3.org/1999/xlink">
<g><path style="opacity:0.016" fill="#320500" d="M 55.5,28.5 C 56.2506,27.4265 57.2506,27.2599 58.5,28C 57.552,28.4828 56.552,28.6495 55.5,28.5 Z"/></g>
<g><path style="opacity:0.967" fill="#561501" d="M 102.5,83.5 C 102.5,84.1667 102.833,84.5 103.5,84.5C 105.147,87.4735 107.147,90.1401 109.5,92.5C 109.427,94.0269 110.094,95.0269 111.5,95.5C 111.5,96.1667 111.833,96.5 112.5,96.5C 115.692,98.389 119.358,99.389 123.5,99.5C 127.097,101.756 130.431,104.423 133.5,107.5C 136.962,108.482 140.629,108.815 144.5,108.5C 144.467,104.131 144.8,99.7978 145.5,95.5C 153.608,80.2966 165.608,76.13 181.5,83C 184.667,84.8333 187.167,87.3333 189,90.5C 196.224,89.0978 202.724,90.7645 208.5,95.5C 208.5,96.1667 208.833,96.5 209.5,96.5C 209.5,97.1667 209.833,97.5 210.5,97.5C 210.5,98.1667 210.833,98.5 211.5,98.5C 216.393,105.463 217.726,113.13 215.5,121.5C 218.826,124.598 222.326,127.598 226,130.5C 231.276,143.373 236.776,156.04 242.5,168.5C 246.126,178.393 250.126,188.059 254.5,197.5C 254.5,199.167 254.5,200.833 254.5,202.5C 253.833,202.5 253.5,202.833 253.5,203.5C 252.833,203.5 252.5,203.833 252.5,204.5C 251.833,204.5 251.5,204.833 251.5,205.5C 250.508,205.328 249.842,205.662 249.5,206.5C 248.508,206.328 247.842,206.662 247.5,207.5C 246.508,207.328 245.842,207.662 245.5,208.5C 244.508,208.328 243.842,208.662 243.5,209.5C 242.209,209.263 241.209,209.596 240.5,210.5C 239.508,210.328 238.842,210.662 238.5,211.5C 237.209,211.263 236.209,211.596 235.5,212.5C 232.215,212.928 229.215,213.928 226.5,215.5C 220.012,217.003 213.679,218.67 207.5,220.5C 205.585,220.216 203.919,220.549 202.5,221.5C 195.964,222.051 189.631,223.051 183.5,224.5C 180.615,224.194 177.948,224.527 175.5,225.5C 159.503,226.167 143.503,226.833 127.5,227.5C 111.497,226.833 95.4965,226.167 79.5,225.5C 58.9284,222.851 38.5951,218.518 18.5,212.5C 13.2585,209.879 7.92521,207.213 2.5,204.5C 0.771113,202.149 0.104447,199.482 0.5,196.5C 2.68501,192.787 4.35167,188.787 5.5,184.5C 7.68501,180.787 9.35167,176.787 10.5,172.5C 12.685,168.787 14.3517,164.787 15.5,160.5C 20.208,150.725 24.5413,140.725 28.5,130.5C 29.1667,130.5 29.5,130.167 29.5,129.5C 30.1667,129.5 30.5,129.167 30.5,128.5C 31.1667,128.5 31.5,128.167 31.5,127.5C 41.5602,121.03 52.5602,116.697 64.5,114.5C 66.418,114.139 66.7514,113.472 65.5,112.5C 65.5,111.833 65.1667,111.5 64.5,111.5C 63.5514,109.223 62.2181,107.223 60.5,105.5C 60.5,104.833 60.1667,104.5 59.5,104.5C 59.0679,103.29 58.4013,102.29 57.5,101.5C 56.4884,100.128 55.4884,98.795 54.5,97.5C 53.1891,94.8646 51.5224,92.5313 49.5,90.5C 49.5,89.8333 49.1667,89.5 48.5,89.5C 48.1961,88.8501 47.8627,88.1835 47.5,87.5C 38.335,86.5891 31.0016,82.5891 25.5,75.5C 25.6716,74.5084 25.3382,73.8417 24.5,73.5C 24.6716,72.5084 24.3382,71.8417 23.5,71.5C 23.7678,69.901 23.4345,68.5676 22.5,67.5C 22.4708,61.2739 24.1375,55.6072 27.5,50.5C 28.1667,50.5 28.5,50.1667 28.5,49.5C 29.1667,49.5 29.5,49.1667 29.5,48.5C 30.1667,48.5 30.5,48.1667 30.5,47.5C 34.3319,44.6076 38.6653,42.7743 43.5,42C 38.502,41.5724 38.3353,40.7391 43,39.5C 43.3333,39.8333 43.6667,40.1667 44,40.5C 45.1764,38.8043 46.343,37.1376 47.5,35.5C 48.1667,35.5 48.5,35.1667 48.5,34.5C 58.3181,26.765 68.3181,26.5983 78.5,34C 85.1583,41.2922 87.3249,49.7922 85,59.5C 90.6101,67.7447 96.4434,75.7447 102.5,83.5 Z M 109.5,92.5 C 110.906,92.9731 111.573,93.9731 111.5,95.5C 110.094,95.0269 109.427,94.0269 109.5,92.5 Z M 112.5,96.5 C 116.42,96.9348 120.087,97.9348 123.5,99.5C 119.358,99.389 115.692,98.389 112.5,96.5 Z"/></g>
<g><path style="opacity:0.012" fill="#410700" d="M 48.5,34.5 C 47.8333,34.5 47.5,34.8333 47.5,35.5C 46.9569,35.44 46.6236,35.1067 46.5,34.5C 47.2565,33.2267 47.9232,33.2267 48.5,34.5 Z"/></g>
<g><path style="opacity:1" fill="#f8e1c3" d="M 67.5,38.5 C 73.3864,45.1056 74.0531,52.2723 69.5,60C 81.6667,76.8333 93.8333,93.6667 106,110.5C 115.906,109.203 123.406,112.87 128.5,121.5C 124.575,125.961 119.575,127.628 113.5,126.5C 112.835,134.664 108.335,138.997 100,139.5C 89.7252,137.307 85.7252,130.973 88,120.5C 88.6924,119.975 89.1924,119.308 89.5,118.5C 79.6225,104.578 69.6225,90.7449 59.5,77C 43.5283,76.7189 38.3617,69.2189 44,54.5C 47.8755,50.1555 52.7088,48.4888 58.5,49.5C 58.9236,43.7417 61.9236,40.075 67.5,38.5 Z"/></g>
<g><path style="opacity:1" fill="#f7f6f5" d="M 70.5,37.5 C 78.074,41.1791 80.574,47.1791 78,55.5C 75.9683,58.4226 76.3016,61.0892 79,63.5C 89.2444,76.9892 99.2444,90.6559 109,104.5C 116.745,103.425 123.078,106.092 128,112.5C 129.252,115.014 129.752,117.68 129.5,120.5C 128.833,120.5 128.5,120.833 128.5,121.5C 123.406,112.87 115.906,109.203 106,110.5C 93.8333,93.6667 81.6667,76.8333 69.5,60C 74.0531,52.2723 73.3864,45.1056 67.5,38.5C 68.209,37.596 69.209,37.2627 70.5,37.5 Z"/></g>
<g><path style="opacity:0.004" fill="#220900" d="M 30.5,47.5 C 29.8333,47.5 29.5,47.8333 29.5,48.5C 28.8333,48.5 28.5,48.8333 28.5,49.5C 27.8333,49.5 27.5,49.8333 27.5,50.5C 26.4925,48.732 27.1592,47.3987 29.5,46.5C 30.1067,46.6236 30.44,46.9569 30.5,47.5 Z"/></g>
<g><path style="opacity:0.016" fill="#490400" d="M 86.5,44.5 C 87.6453,48.3112 87.8119,52.3112 87,56.5C 86.5012,52.5138 86.3345,48.5138 86.5,44.5 Z"/></g>
<g><path style="opacity:0.008" fill="#6c0f04" d="M 21.5,67.5 C 20.3775,65.7116 20.2109,63.7116 21,61.5C 21.4955,63.4727 21.6621,65.4727 21.5,67.5 Z"/></g>
<g><path style="opacity:0.016" fill="#410500" d="M 21.5,67.5 C 21.8333,67.5 22.1667,67.5 22.5,67.5C 22.5,68.8333 22.5,70.1667 22.5,71.5C 21.5655,70.4324 21.2322,69.099 21.5,67.5 Z"/></g>
<g><path style="opacity:0.012" fill="#4d0000" d="M 22.5,71.5 C 22.8333,71.5 23.1667,71.5 23.5,71.5C 23.5,72.1667 23.5,72.8333 23.5,73.5C 22.6618,73.1583 22.3284,72.4916 22.5,71.5 Z"/></g>
<g><path style="opacity:0.012" fill="#620000" d="M 23.5,73.5 C 23.8333,73.5 24.1667,73.5 24.5,73.5C 24.5,74.1667 24.5,74.8333 24.5,75.5C 23.6618,75.1583 23.3284,74.4916 23.5,73.5 Z"/></g>
<g><path style="opacity:0.004" fill="#1e0300" d="M 24.5,75.5 C 24.8333,75.5 25.1667,75.5 25.5,75.5C 25.1667,78.1667 24.8333,78.1667 24.5,75.5 Z"/></g>
<g><path style="opacity:1" fill="#e1ac61" d="M 70.5,37.5 C 69.209,37.2627 68.209,37.596 67.5,38.5C 61.9236,40.075 58.9236,43.7417 58.5,49.5C 52.7088,48.4888 47.8755,50.1555 44,54.5C 38.3617,69.2189 43.5283,76.7189 59.5,77C 69.6225,90.7449 79.6225,104.578 89.5,118.5C 89.1924,119.308 88.6924,119.975 88,120.5C 85.7252,130.973 89.7252,137.307 100,139.5C 108.335,138.997 112.835,134.664 113.5,126.5C 119.575,127.628 124.575,125.961 128.5,121.5C 128.5,120.833 128.833,120.5 129.5,120.5C 128.305,130.967 122.305,136.134 111.5,136C 106.869,148.48 98.5353,151.813 86.5,146C 79.93,139.771 78.93,132.771 83.5,125C 72,109.5 60.5,94 49,78.5C 40.0114,80.5037 33.6781,77.1704 30,68.5C 28.8713,55.1281 35.038,48.7948 48.5,49.5C 51.4813,37.1404 58.8146,33.1404 70.5,37.5 Z"/></g>
<g><path style="opacity:0.016" fill="#460100" d="M 163.5,78.5 C 166.64,77.3592 169.973,77.1925 173.5,78C 170.183,78.4983 166.85,78.665 163.5,78.5 Z"/></g>
<g><path style="opacity:0.016" fill="#320500" d="M 174.5,79.5 C 175.251,78.4265 176.251,78.2599 177.5,79C 176.552,79.4828 175.552,79.6495 174.5,79.5 Z"/></g>
<g><path style="opacity:0.016" fill="#3f0000" d="M 156.5,80.5 C 157.833,81.1667 157.833,81.1667 156.5,80.5 Z"/></g>
<g><path style="opacity:0.02" fill="#540800" d="M 103.5,84.5 C 102.833,84.5 102.5,84.1667 102.5,83.5C 102.747,81.0248 103.413,81.0248 104.5,83.5C 104.376,84.1067 104.043,84.44 103.5,84.5 Z"/></g>
<g><path style="opacity:0.004" fill="#2b0b00" d="M 48.5,89.5 C 49.1667,89.5 49.5,89.8333 49.5,90.5C 49.2533,92.9752 48.5866,92.9752 47.5,90.5C 47.6236,89.8933 47.9569,89.56 48.5,89.5 Z"/></g>
<g><path style="opacity:1" fill="#f7f5f5" d="M 159.5,90.5 C 160.552,90.3505 161.552,90.5172 162.5,91C 156.886,99.7754 157.553,108.109 164.5,116C 158.805,129.891 152.971,143.724 147,157.5C 144.36,159.1 142.193,158.766 140.5,156.5C 146.154,143.188 151.821,129.855 157.5,116.5C 152.334,110.225 151.167,103.225 154,95.5C 155.076,92.921 156.909,91.2543 159.5,90.5 Z"/></g>
<g><path style="opacity:1" fill="#f7e0c2" d="M 159.5,90.5 C 159.5,89.8333 159.833,89.5 160.5,89.5C 167.876,90.1008 173.043,93.7674 176,100.5C 187.511,97.3357 194.678,101.502 197.5,113C 196.615,123.385 190.948,128.885 180.5,129.5C 176.538,138.418 172.871,147.418 169.5,156.5C 159.642,158.481 149.642,159.481 139.5,159.5C 139.263,158.209 139.596,157.209 140.5,156.5C 142.193,158.766 144.36,159.1 147,157.5C 152.971,143.724 158.805,129.891 164.5,116C 157.553,108.109 156.886,99.7754 162.5,91C 161.552,90.5172 160.552,90.3505 159.5,90.5 Z"/></g>
<g><path style="opacity:0.016" fill="#460000" d="M 145.5,95.5 C 145.167,95.5 144.833,95.5 144.5,95.5C 144.833,92.8333 145.167,92.8333 145.5,95.5 Z"/></g>
<g><path style="opacity:0.004" fill="#310a00" d="M 208.5,95.5 C 210.268,94.4925 211.601,95.1592 212.5,97.5C 212.376,98.1067 212.043,98.44 211.5,98.5C 210.833,98.5 210.5,98.1667 210.5,97.5C 209.833,97.5 209.5,97.1667 209.5,96.5C 208.833,96.5 208.5,96.1667 208.5,95.5 Z"/></g>
<g><path style="opacity:0.016" fill="#320500" d="M 144.5,95.5 C 144.649,96.552 144.483,97.552 144,98.5C 143.26,97.2506 143.427,96.2506 144.5,95.5 Z"/></g>
<g><path style="opacity:0.008" fill="#690001" d="M 54.5,97.5 C 54.631,98.2389 54.4643,98.9056 54,99.5C 53.3083,98.5632 53.475,97.8966 54.5,97.5 Z"/></g>
<g><path style="opacity:1" fill="#e0ac61" d="M 169.5,156.5 C 172.871,147.418 176.538,138.418 180.5,129.5C 190.948,128.885 196.615,123.385 197.5,113C 194.678,101.502 187.511,97.3357 176,100.5C 173.043,93.7674 167.876,90.1008 160.5,89.5C 166.445,85.5269 172.445,85.6935 178.5,90C 181.395,92.5571 183.895,95.3905 186,98.5C 201.547,95.428 209.214,101.761 209,117.5C 205.868,126.127 199.701,130.794 190.5,131.5C 187.442,139.283 184.108,146.95 180.5,154.5C 177.015,156.094 173.348,156.76 169.5,156.5 Z"/></g>
<g><path style="opacity:0.012" fill="#4f0a00" d="M 133.5,107.5 C 136.287,106.523 139.287,106.19 142.5,106.5C 142.337,104.143 142.503,101.81 143,99.5C 143.497,102.146 143.664,104.813 143.5,107.5C 140.167,107.5 136.833,107.5 133.5,107.5 Z"/></g>
<g><path style="opacity:0.008" fill="#710000" d="M 57.5,101.5 C 57.631,102.239 57.4643,102.906 57,103.5C 56.3083,102.563 56.475,101.897 57.5,101.5 Z"/></g>
<g><path style="opacity:0.004" fill="#2b0b00" d="M 59.5,104.5 C 60.1667,104.5 60.5,104.833 60.5,105.5C 60.2533,107.975 59.5866,107.975 58.5,105.5C 58.6236,104.893 58.9569,104.56 59.5,104.5 Z"/></g>
<g><path style="opacity:0.012" fill="#630800" d="M 64.5,111.5 C 65.1667,111.5 65.5,111.833 65.5,112.5C 64.7494,113.573 63.7494,113.74 62.5,113C 63.0442,112.283 63.7109,111.783 64.5,111.5 Z"/></g>
<g><path style="opacity:1" fill="#930503" d="M 136.5,119.5 C 140.555,119.176 144.555,119.509 148.5,120.5C 142.596,132.968 137.263,145.635 132.5,158.5C 111.32,159.426 90.3196,157.926 69.5,154C 59.3425,152.059 49.6758,148.725 40.5,144C 34.3417,141.204 34.0083,137.871 39.5,134C 50.6955,127.702 62.6955,124.202 75.5,123.5C 71.8053,138.274 76.8053,148.774 90.5,155C 102.54,156.646 111.207,151.979 116.5,141C 128.509,138.823 135.176,131.657 136.5,119.5 Z"/></g>
<g><path style="opacity:0.004" fill="#260800" d="M 31.5,127.5 C 30.8333,127.5 30.5,127.833 30.5,128.5C 29.8333,128.5 29.5,128.833 29.5,129.5C 28.8333,129.5 28.5,129.833 28.5,130.5C 27.4925,128.732 28.1592,127.399 30.5,126.5C 31.1067,126.624 31.44,126.957 31.5,127.5 Z"/></g>
<g><path style="opacity:1" fill="#930503" d="M 207.5,131.5 C 211.695,131.681 215.195,133.347 218,136.5C 217.9,141.296 215.4,144.462 210.5,146C 203.641,149.246 196.641,151.079 189.5,151.5C 191.305,146.751 193.305,142.085 195.5,137.5C 200.072,136.434 204.072,134.434 207.5,131.5 Z"/></g>
<g><path style="opacity:1" fill="#c60d0d" d="M 212.5,155.5 C 213.75,155.577 214.583,156.244 215,157.5C 219.167,168.667 223.333,179.833 227.5,191C 227.095,191.945 226.428,192.612 225.5,193C 200.596,201.651 174.929,206.318 148.5,207C 115.633,208.046 82.9668,206.046 50.5,201C 38.2374,198.694 26.2374,195.528 14.5,191.5C 19.5042,177.158 25.3375,163.158 32,149.5C 46.2419,158.247 61.7419,163.414 78.5,165C 114.259,168.844 149.926,168.177 185.5,163C 194.746,161.273 203.746,158.773 212.5,155.5 Z"/></g>
<g><path style="opacity:1" fill="#940806" d="M 14.5,191.5 C 26.2374,195.528 38.2374,198.694 50.5,201C 82.9668,206.046 115.633,208.046 148.5,207C 174.929,206.318 200.596,201.651 225.5,193C 226.428,192.612 227.095,191.945 227.5,191C 223.333,179.833 219.167,168.667 215,157.5C 214.583,156.244 213.75,155.577 212.5,155.5C 216.069,154.043 219.402,152.043 222.5,149.5C 229.549,164.975 236.216,180.641 242.5,196.5C 241.811,198.353 240.478,199.519 238.5,200C 213.015,209.297 186.682,214.63 159.5,216C 136.167,216.667 112.833,216.667 89.5,216C 62.8372,214.417 37.1705,208.584 12.5,198.5C 11.9053,195.934 12.572,193.601 14.5,191.5 Z"/></g>
<g><path style="opacity:0.016" fill="#460000" d="M 15.5,160.5 C 15.1667,160.5 14.8333,160.5 14.5,160.5C 14.8333,157.833 15.1667,157.833 15.5,160.5 Z"/></g>
<g><path style="opacity:0.016" fill="#560d01" d="M 14.5,160.5 C 14.631,161.239 14.4643,161.906 14,162.5C 13.3083,161.563 13.475,160.897 14.5,160.5 Z"/></g>
<g><path style="opacity:0.016" fill="#460000" d="M 243.5,168.5 C 243.167,168.5 242.833,168.5 242.5,168.5C 242.833,165.833 243.167,165.833 243.5,168.5 Z"/></g>
<g><path style="opacity:0.02" fill="#6e0000" d="M 243.5,168.5 C 244.525,168.897 244.692,169.563 244,170.5C 243.536,169.906 243.369,169.239 243.5,168.5 Z"/></g>
<g><path style="opacity:0.016" fill="#710000" d="M 10.5,172.5 C 10.1667,172.5 9.83333,172.5 9.5,172.5C 9.83333,169.833 10.1667,169.833 10.5,172.5 Z"/></g>
<g><path style="opacity:0.02" fill="#950005" d="M 9.5,172.5 C 9.63101,173.239 9.46434,173.906 9,174.5C 8.30831,173.563 8.47498,172.897 9.5,172.5 Z"/></g>
<g><path style="opacity:0.016" fill="#460000" d="M 5.5,184.5 C 5.16667,184.5 4.83333,184.5 4.5,184.5C 4.83333,181.833 5.16667,181.833 5.5,184.5 Z"/></g>
<g><path style="opacity:0.02" fill="#460a00" d="M 4.5,184.5 C 4.63101,185.239 4.46434,185.906 4,186.5C 3.30831,185.563 3.47498,184.897 4.5,184.5 Z"/></g>
<g><path style="opacity:0.016" fill="#460000" d="M -0.5,194.5 C 0.338246,194.842 0.67158,195.508 0.5,196.5C 0.166667,196.5 -0.166667,196.5 -0.5,196.5C -0.5,195.833 -0.5,195.167 -0.5,194.5 Z"/></g>
<g><path style="opacity:0.016" fill="#370500" d="M 255.5,194.5 C 255.5,195.5 255.5,196.5 255.5,197.5C 255.167,197.5 254.833,197.5 254.5,197.5C 254.263,196.209 254.596,195.209 255.5,194.5 Z"/></g>
<g><path style="opacity:0.016" fill="#3f0000" d="M 254.5,202.5 C 254.833,202.5 255.167,202.5 255.5,202.5C 255.5,202.833 255.5,203.167 255.5,203.5C 255.167,203.167 254.833,202.833 254.5,202.5 Z"/></g>
<g><path style="opacity:0.008" fill="#7f0000" d="M -0.5,203.5 C 0.833333,204.167 0.833333,204.167 -0.5,203.5 Z"/></g>
<g><path style="opacity:0.008" fill="#7f0000" d="M 253.5,203.5 C 253.833,203.5 254.167,203.5 254.5,203.5C 254.315,204.17 253.981,204.17 253.5,203.5 Z"/></g>
<g><path style="opacity:0.012" fill="#540000" d="M 252.5,204.5 C 252.833,204.5 253.167,204.5 253.5,204.5C 253.315,205.17 252.981,205.17 252.5,204.5 Z"/></g>
<g><path style="opacity:0.016" fill="#3f0000" d="M 251.5,205.5 C 251.833,205.5 252.167,205.5 252.5,205.5C 252.315,206.17 251.981,206.17 251.5,205.5 Z"/></g>
<g><path style="opacity:0.008" fill="#770000" d="M 249.5,207.5 C 249.5,207.167 249.5,206.833 249.5,206.5C 250.167,206.5 250.833,206.5 251.5,206.5C 251.158,207.338 250.492,207.672 249.5,207.5 Z"/></g>
<g><path style="opacity:0.008" fill="#690001" d="M 247.5,208.5 C 247.5,208.167 247.5,207.833 247.5,207.5C 248.167,207.5 248.833,207.5 249.5,207.5C 249.158,208.338 248.492,208.672 247.5,208.5 Z"/></g>
<g><path style="opacity:0.012" fill="#7f0000" d="M 245.5,209.5 C 245.5,209.167 245.5,208.833 245.5,208.5C 246.167,208.5 246.833,208.5 247.5,208.5C 247.158,209.338 246.492,209.672 245.5,209.5 Z"/></g>
<g><path style="opacity:0.008" fill="#770000" d="M 243.5,210.5 C 243.5,210.167 243.5,209.833 243.5,209.5C 244.167,209.5 244.833,209.5 245.5,209.5C 245.158,210.338 244.492,210.672 243.5,210.5 Z"/></g>
<g><path style="opacity:0.016" fill="#260500" d="M 240.5,211.5 C 240.5,211.167 240.5,210.833 240.5,210.5C 241.5,210.5 242.5,210.5 243.5,210.5C 242.791,211.404 241.791,211.737 240.5,211.5 Z"/></g>
<g><path style="opacity:0.012" fill="#4d0000" d="M 238.5,212.5 C 238.5,212.167 238.5,211.833 238.5,211.5C 239.167,211.5 239.833,211.5 240.5,211.5C 240.158,212.338 239.492,212.672 238.5,212.5 Z"/></g>
<g><path style="opacity:0.02" fill="#6e0000" d="M 18.5,212.5 C 18.1034,213.525 17.4368,213.692 16.5,213C 17.0944,212.536 17.7611,212.369 18.5,212.5 Z"/></g>
<g><path style="opacity:0.016" fill="#410700" d="M 235.5,213.5 C 235.5,213.167 235.5,212.833 235.5,212.5C 236.5,212.5 237.5,212.5 238.5,212.5C 237.791,213.404 236.791,213.737 235.5,213.5 Z"/></g>
<g><path style="opacity:0.012" fill="#7f0000" d="M 235.5,213.5 C 235.103,214.525 234.437,214.692 233.5,214C 234.094,213.536 234.761,213.369 235.5,213.5 Z"/></g>
<g><path style="opacity:0.012" fill="#620000" d="M 230.5,215.5 C 230.897,214.475 231.563,214.308 232.5,215C 231.906,215.464 231.239,215.631 230.5,215.5 Z"/></g>
<g><path style="opacity:0.02" fill="#490800" d="M 226.5,215.5 C 227.552,215.351 228.552,215.517 229.5,216C 228.251,216.74 227.251,216.573 226.5,215.5 Z"/></g>
<g><path style="opacity:0.016" fill="#410500" d="M 212.5,220.5 C 213.601,219.402 214.934,219.235 216.5,220C 215.207,220.49 213.873,220.657 212.5,220.5 Z"/></g>
<g><path style="opacity:0.012" fill="#720000" d="M 207.5,221.5 C 207.5,221.167 207.5,220.833 207.5,220.5C 212.833,220.833 212.833,221.167 207.5,221.5 Z"/></g>
<g><path style="opacity:0.016" fill="#440500" d="M 202.5,221.5 C 204.167,221.5 205.833,221.5 207.5,221.5C 205.833,222.833 204.167,222.833 202.5,221.5 Z"/></g>
<g><path style="opacity:0.016" fill="#3e0700" d="M 183.5,224.5 C 186.187,224.336 188.854,224.503 191.5,225C 186.207,225.977 180.874,226.477 175.5,226.5C 175.5,226.167 175.5,225.833 175.5,225.5C 178.385,225.806 181.052,225.473 183.5,224.5 Z"/></g>
<g><path style="opacity:0.012" fill="#440700" d="M 79.5,225.5 C 79.5,225.833 79.5,226.167 79.5,226.5C 67.5,226.167 67.5,225.833 79.5,225.5 Z"/></g>
<g><path style="opacity:0.016" fill="#5f0203" d="M 79.5,226.5 C 83.3714,226.185 87.0381,226.518 90.5,227.5C 86.6286,227.815 82.9619,227.482 79.5,226.5 Z"/></g>
<g><path style="opacity:0.012" fill="#4d0600" d="M 175.5,226.5 C 172.024,227.643 168.358,227.81 164.5,227C 168.152,226.501 171.818,226.335 175.5,226.5 Z"/></g>
<g><path style="opacity:0.012" fill="#4d0600" d="M 90.5,227.5 C 97.8409,227.334 105.174,227.5 112.5,228C 104.988,228.822 97.6549,228.655 90.5,227.5 Z"/></g>
<g><path style="opacity:0.012" fill="#4e0500" d="M 142.5,228.5 C 149.321,227.345 156.321,227.179 163.5,228C 156.508,228.5 149.508,228.666 142.5,228.5 Z"/></g>
</svg>
