<?xml version="1.0" encoding="UTF-8" standalone="no"?>
<!-- Generator: Adobe Illustrator 15.0.0, SVG Export Plug-In . SVG Version: 6.00 Build 0)  -->

<svg
   version="1.1"
   id="Layer_1"
   x="0px"
   y="0px"
   width="256"
   height="256"
   viewBox="0 0 256 256"
   enable-background="new 0 0 960 640"
   xml:space="preserve"
   sodipodi:docname="tinyman bearlogo.svg"
   inkscape:version="1.1 (c68e22c387, 2021-05-23)"
   xmlns:inkscape="http://www.inkscape.org/namespaces/inkscape"
   xmlns:sodipodi="http://sodipodi.sourceforge.net/DTD/sodipodi-0.dtd"
   xmlns="http://www.w3.org/2000/svg"
   xmlns:svg="http://www.w3.org/2000/svg"><defs
   id="defs15" /><sodipodi:namedview
   id="namedview13"
   pagecolor="#ffffff"
   bordercolor="#666666"
   borderopacity="1.0"
   inkscape:pageshadow="2"
   inkscape:pageopacity="0.0"
   inkscape:pagecheckerboard="0"
   showgrid="false"
   inkscape:zoom="3.8581514"
   inkscape:cx="218.75762"
   inkscape:cy="134.002"
   inkscape:window-width="3840"
   inkscape:window-height="2066"
   inkscape:window-x="-11"
   inkscape:window-y="-11"
   inkscape:window-maximized="1"
   inkscape:current-layer="Layer_1" />
<path
   fill="#4f3b36"
   stroke="#3a2f2d"
   stroke-width="0.030089"
   d="m 100.53657,58.518374 c 0.41701,-0.224543 0.89818,-0.384933 1.37935,-0.192472 6.25519,1.700133 12.47831,3.368185 18.7335,5.036236 0.54533,0.16039 1.09065,0.224224 1.6363,0.256626 9.52682,0.192462 19.05396,0.448767 28.58143,0.673631 1.41142,0 2.85493,0.224554 4.23428,-0.288376 5.77403,-1.828442 11.58013,-3.592729 17.35416,-5.453251 0.60948,-0.16039 1.25104,-0.481161 1.86052,-0.128309 16.58428,7.923251 33.16857,15.81442 49.75318,23.737661 3.81663,21.39566 7.44143,42.82371 11.19455,64.21968 0.0966,0.48117 0.32078,0.89818 0.57772,1.31519 4.74721,7.34585 9.43059,14.72377 14.14604,22.10169 0.64156,0.7378 0.28871,1.70013 0.22455,2.56624 -0.99474,6.99298 -1.86053,14.01773 -2.88701,21.01104 -5.35702,1.28311 -10.71403,2.56623 -16.07136,3.84935 -1.53974,0.35285 -3.07948,0.86578 -4.68338,0.80194 -3.91351,-0.0966 -7.8591,0.0962 -11.7726,-0.0966 -3.27194,-1.79636 -6.44766,-3.81695 -9.65545,-5.74163 0.60916,-1.70013 1.21895,-3.36818 1.92467,-5.00447 3.04741,-1.05858 6.2228,-1.79637 9.23845,-2.9191 2.34168,-1.09064 4.68337,-2.18129 6.99298,-3.3361 -0.35285,-3.07948 -0.73779,-6.19104 -1.15481,-9.2702 -4.65129,-2.34169 -9.4309,-4.45883 -14.01804,-6.89675 -1.34728,-1.12273 -2.30961,-2.56623 -3.40026,-3.94559 -3.94528,-4.81168 -7.73046,-9.78376 -11.64397,-14.62753 -1.37935,-1.86052 -3.33578,-3.43234 -3.81695,-5.8061 -1.50766,-6.70429 -3.17572,-13.34474 -4.6513,-20.0487 -0.48118,-2.40585 -2.05299,-4.29844 -3.24019,-6.38351 -1.05857,-1.82844 -2.11714,-3.65688 -3.23987,-5.42117 -2.40584,-3.78519 -4.42675,-7.85909 -7.31378,-11.291425 0.1604,2.662476 0.70573,5.260775 1.02651,7.891165 0.67363,4.6837 1.31519,9.36676 2.05266,14.05045 0.12831,0.96234 0.12831,1.95676 0.0641,2.91909 -0.99441,-1.15512 -1.7322,-2.47 -2.5983,-3.75311 -0.67397,2.88701 -0.16039,5.87026 -0.41733,8.78935 -0.48117,5.42085 0,10.87409 -0.7054,16.29558 -1.8926,-0.44909 -3.56097,-1.41143 -5.32525,-2.11746 -5.32494,-2.27753 -10.64988,-4.58714 -15.94273,-6.8326 -1.12273,-0.48117 -2.30929,-0.8661 -3.33578,-1.50766 -0.86611,-0.44877 -1.15514,-1.47559 -1.47592,-2.34169 -1.79635,-5.32494 -3.72103,-10.58571 -5.51708,-15.91065 -0.2887,-0.83403 -0.67395,-1.63597 -1.12272,-2.40584 -0.51356,2.24545 -0.48117,4.55506 -0.70572,6.83259 -0.25661,3.11156 -0.44908,6.19104 -0.73778,9.27052 -0.16039,0.41702 0.0321,1.18657 -0.60949,1.18657 -1.57181,-1.02618 -2.63039,-2.66247 -4.17012,-3.7852 -0.19247,6.96091 0,13.92182 -0.0642,20.88305 -0.0642,1.98851 -0.70571,3.88143 -1.21896,5.77402 -2.21338,8.46826 -4.49091,16.93715 -6.67221,25.4054 -0.35318,1.21928 -0.51357,2.53415 -1.18688,3.62512 -0.83403,1.02618 -2.02091,1.6039 -3.01533,2.43793 -1.89227,1.53974 -3.78519,3.07948 -5.64571,4.68337 -2.95117,2.37377 -5.83818,4.81169 -8.72519,7.21754 -0.38493,0.32077 -0.83403,0.64155 -1.34727,0.57772 -3.11156,0.0321 -6.223121,0 -9.334679,0.0321 -4.715457,-0.19248 -9.334678,1.12272 -14.018054,1.50765 -1.154807,-0.38493 -2.14922,-1.05857 -3.207792,-1.57181 -1.924677,-1.05858 -3.913505,-1.95676 -5.741947,-3.11156 1.026491,-2.24545 1.924675,-4.58715 3.079479,-6.80021 2.790779,-0.96233 5.741947,-1.41141 8.564806,-2.27784 3.881427,-1.15482 7.794936,-2.27754 11.676358,-3.43234 0.834032,-0.128 0.898185,-1.12272 1.186892,-1.76428 0.898176,-2.98326 2.052985,-5.87027 2.887007,-8.88528 -0.962339,-5.16486 -2.27753,-10.29732 -3.368185,-15.4298 -0.513242,-1.92467 -0.673631,-3.97734 -1.507658,-5.80609 -1.379348,-3.46443 -3.111559,-6.76876 -4.811687,-10.07248 -1.25104,-2.43791 -0.705714,-5.22869 -0.801947,-7.82669 -0.06415,-5.99856 0.160389,-11.99714 -0.09623,-17.99604 -1.347273,4.39468 -1.892597,8.98183 -2.854935,13.47273 -0.417012,1.76429 -0.545323,3.59273 -1.122727,5.29287 -0.09623,0.0641 -0.288702,0.1283 -0.384935,0.19278 -1.892596,-2.02122 -3.079481,-4.55506 -4.94,-6.57598 -1.186882,2.08508 -1.154807,4.58714 -2.181301,6.73637 -1.475581,-1.79669 -2.405845,-3.9135 -3.592726,-5.87059 -2.79078,-4.81168 -5.549479,-9.62304 -8.30818,-14.43474 -0.449094,-0.73811 -0.962336,-1.41142 -1.507665,-2.05298 1.251041,4.87585 3.207794,9.52714 4.587145,14.30675 0.352855,1.53974 -0.256623,3.0474 -0.673638,4.49091 -0.769867,2.34169 -1.283115,4.77961 -2.117141,7.08954 -1.443506,1.63598 -3.015325,3.14364 -4.61922,4.6189 -0.256624,-0.86611 -0.481171,-1.73189 -0.769869,-2.5983 -3.111559,1.79635 -6.094807,3.84934 -9.238445,5.6457 0.09623,-0.99442 0.192469,-1.98883 0.288703,-2.98325 -2.47,0.86611 -4.843766,1.89261 -7.313766,2.63039 -0.962337,-1.37934 -1.764284,-2.85493 -2.758703,-4.20253 -6.928829,0.86611 -13.825584,1.86086 -20.754412,2.6628 -1.764286,-1.25105 -3.304026,-2.82319 -4.843768,-4.29844 -1.411429,-1.4435 -2.95117,-2.79078 -4.234286,-4.36261 1.283116,-0.0965 2.630389,-0.064 3.913507,-0.25693 0.834027,-0.0321 1.347273,-0.76956 1.828443,-1.31521 0.673635,-0.93024 1.443506,-1.89258 1.700129,-3.0474 -0.192467,-0.60948 -0.705714,-0.9944 -1.122728,-1.4435 -1.635973,-1.47559 -3.143637,-3.0474 -4.683376,-4.61923 2.502078,-2.66245 5.292858,-5.06831 7.698701,-7.82668 0.128313,-2.63039 -0.03208,-5.26078 0.06416,-7.89117 5.26078,-4.52331 10.521559,-9.045976 15.846494,-13.505128 1.700127,-1.1548 4.234285,-1.347272 5.132466,-3.432338 0.962335,-1.892274 1.66805,-3.913187 2.726624,-5.741628 0.769869,-1.315511 1.700131,-2.566226 2.630389,-3.785191 1.924676,0.417016 3.785195,1.122729 5.741946,1.443508 1.026494,-0.288707 1.956755,-0.834351 2.951171,-1.283118 15.1411,-7.186097 30.346035,-14.339472 45.51889,-21.524927 z"
   id="path2"
   inkscape:export-filename="\\SERVER\x\Graphic files\Growling Bear Media\beer4.png"
   inkscape:export-xdpi="200"
   inkscape:export-ydpi="200" />
<path
   fill="#2c2322"
   stroke="#2c2322"
   stroke-width="0.030089"
   d="m 37.37514,81.806949 c 2.117143,0.577395 4.17013,1.346951 6.319351,1.860513 -1.058575,1.82844 -1.764289,3.849354 -2.726624,5.741628 -0.898181,2.085066 -3.432336,2.277858 -5.132466,3.432338 -1.026493,-1.603897 -2.117146,-3.175392 -3.079484,-4.843764 1.507667,-2.084746 3.047403,-4.137731 4.619223,-6.190715 z"
   id="path4"
   inkscape:export-filename="\\SERVER\x\Graphic files\Growling Bear Media\beer4.png"
   inkscape:export-xdpi="200"
   inkscape:export-ydpi="200" />
<path
   fill="#2c2322"
   stroke="#2c2322"
   stroke-width="0.030089"
   d="m 170.81928,97.236425 c 2.88703,3.432335 4.90794,7.506235 7.31378,11.291425 1.12273,1.76429 2.1813,3.59273 3.23987,5.42085 1.18688,2.08506 2.75901,3.97766 3.24019,6.38351 1.47558,6.70396 3.14364,13.34441 4.6513,20.0487 0.48117,2.37344 2.43792,3.94558 3.81695,5.8061 3.91351,4.84409 7.69869,9.81617 11.64429,14.62785 1.09033,1.37936 2.05266,2.82286 3.40026,3.94559 -0.76987,1.02649 -0.96234,2.30961 -1.3152,3.49617 -1.12273,3.91351 -2.24545,7.82701 -3.3361,11.7726 -0.16039,0.54532 -0.38494,1.09065 -0.96234,1.31551 -3.84935,2.1489 -7.6987,4.26637 -11.54805,6.41559 -0.80195,0.44877 -1.6039,1.02617 -2.53417,0.96234 -9.49505,-0.0324 -18.95804,0.0321 -28.45278,-0.0642 1.31519,-1.09066 2.82285,-1.98883 4.23396,-2.98326 4.0739,-2.72662 7.98741,-5.67779 11.99714,-8.53304 0.76987,-0.48117 0.99442,-1.4111 1.3152,-2.21305 1.28312,-3.43235 2.69454,-6.80053 3.91351,-10.23287 -5.77403,-5.45323 -11.58013,-10.8744 -17.38624,-16.23143 -5.16454,0.57742 -10.29701,1.28312 -15.42948,1.89228 -0.16039,4.87584 0,9.78377 -0.0642,14.65961 -0.64156,-0.83401 -1.28312,-1.73221 -1.92468,-2.5983 -5.29285,8.72518 -10.39324,17.57901 -15.6861,26.27213 -5.80643,0 -11.64461,0.12832 -17.45039,-0.0641 1.86053,-1.6039 3.75311,-3.14365 5.64571,-4.68338 0.99475,-0.83402 2.18162,-1.41144 3.01534,-2.43792 0.67362,-1.09065 0.83401,-2.40584 1.18688,-3.62513 2.18129,-8.46825 4.45883,-16.93683 6.67221,-25.40539 0.51323,-1.89261 1.15479,-3.78551 1.21895,-5.77402 0.0642,-6.96091 -0.12799,-13.92182 0.0642,-20.88305 1.53974,1.12272 2.59831,2.75902 4.17013,3.78519 0.64156,0 0.44909,-0.76956 0.60948,-1.18656 0.28838,-3.0798 0.48117,-6.15896 0.7378,-9.27052 0.22454,-2.27753 0.19246,-4.58714 0.70571,-6.8326 0.44877,0.76987 0.83403,1.57182 1.12272,2.40585 1.79637,5.32493 3.72105,10.58571 5.51709,15.91065 0.32078,0.8661 0.60948,1.89259 1.4759,2.34167 1.0265,0.64156 2.21306,1.02651 3.33579,1.50768 5.29285,2.24545 10.61811,4.55505 15.94272,6.83259 1.76429,0.70572 3.43233,1.66806 5.32526,2.11747 0.70539,-5.42117 0.22423,-10.87442 0.70539,-16.29559 0.25695,-2.91942 -0.25662,-5.90233 0.41734,-8.78935 0.86578,1.28312 1.60389,2.5983 2.59831,3.75312 0.0642,-0.96234 0.0642,-1.95675 -0.0642,-2.91909 -0.73779,-4.6837 -1.37935,-9.36675 -2.05266,-14.05045 -0.3211,-2.63039 -0.86642,-5.228703 -1.02682,-7.89117 z"
   id="path6"
   inkscape:export-filename="\\SERVER\x\Graphic files\Growling Bear Media\beer4.png"
   inkscape:export-xdpi="200"
   inkscape:export-ydpi="200" />
<path
   fill="#2c2322"
   stroke="#2c2322"
   stroke-width="0.030089"
   d="m 63.037475,109.74681 c 0.545329,0.64156 1.058574,1.3152 1.507664,2.05299 2.758702,4.81169 5.517402,9.62306 8.308181,14.43474 1.186881,1.95708 2.117145,4.0739 3.592728,5.87058 1.026492,-2.14922 0.994417,-4.65129 2.181299,-6.73636 1.860519,2.02091 3.047404,4.55474 4.94,6.57597 0.09623,-0.0642 0.288701,-0.12831 0.384935,-0.19278 0.577404,-1.70013 0.705714,-3.52858 1.122727,-5.29286 0.962338,-4.49091 1.507662,-9.07805 2.854934,-13.47273 0.256625,5.99857 0.03208,11.99714 0.09623,17.99604 0.09623,2.59831 -0.449093,5.38909 0.801947,7.82669 1.700128,3.30403 3.432339,6.60837 4.811687,10.07247 -0.545323,-0.12831 -1.026494,-0.2887 -1.53974,-0.51357 -9.078049,-4.26636 -18.188179,-8.46825 -27.266233,-12.73462 0.834026,-2.30961 1.347274,-4.74785 2.117141,-7.08954 0.417015,-1.4435 1.026494,-2.95117 0.673639,-4.49091 -1.379351,-4.77896 -3.336105,-9.43026 -4.587145,-14.30611 z"
   id="path8"
   inkscape:export-filename="\\SERVER\x\Graphic files\Growling Bear Media\beer4.png"
   inkscape:export-xdpi="200"
   inkscape:export-ydpi="200" />
<path
   fill="#2c2322"
   stroke="#2c2322"
   stroke-width="0.030089"
   d="m 6.3557894,122.09681 c 1.9567531,-0.0641 3.9135056,-0.0324 5.8702596,-0.0324 1.53974,1.57183 3.047404,3.14396 4.683377,4.61922 0.417014,0.44911 0.930261,0.83403 1.122728,1.44351 -0.256623,1.15482 -1.026493,2.11715 -1.700129,3.0474 -0.481169,0.54533 -0.994416,1.28312 -1.828443,1.3152 -1.283117,0.19279 -2.63039,0.16039 -3.913507,0.25694 l -0.192468,0.0321 c -1.9567527,-2.37377 -3.9776618,-4.65131 -5.9023372,-6.99299 0.5453249,-1.25105 1.2189612,-2.47 1.8605196,-3.68896 z"
   id="path10"
   inkscape:export-filename="\\SERVER\x\Graphic files\Growling Bear Media\beer4.png"
   inkscape:export-xdpi="200"
   inkscape:export-ydpi="200" />
<rect
   style="fill:none;fill-opacity:0;stroke-width:0.318148"
   id="rect876"
   width="265.32724"
   height="181.07675"
   x="-1.6582283"
   y="38.277203"
   rx="4.5279493"
   ry="2.4880698"
   inkscape:export-filename="\\SERVER\x\Graphic files\Growling Bear Media\beer4.png"
   inkscape:export-xdpi="200"
   inkscape:export-ydpi="200" /></svg>
