<svg xmlns="http://www.w3.org/2000/svg" viewBox="0 0 483.6 483.6">
  <title>Risorsa 1</title>
  <g id="Livello_2" data-name="Livello 2">
    <g id="Livello_1-2" data-name="Livello 1">
      <circle cx="241.8" cy="241.8" r="241.8" style="fill: #fff"/>
      <path d="M185.1,290.063c2.022,27.009,19.786,47.72,45.856,53.465,30.5,6.72,62.771-15.277,67.2-46.134,3.522-24.562-5.079-43.989-25.745-57.965q-27.659-18.705-30.317-52.037c-.329-4.164-.17-4.134,4.025-3.969,21.9.86,41.71,7.8,58.954,21.254,26.132,20.385,40.29,47.3,41.05,80.523,1.178,51.41-34.187,95.491-84.72,104.83-56.838,10.5-105.875-24.674-119.757-74.347a107.472,107.472,0,0,1-3.7-23.208c.037-.9.106-1.808.107-2.713q.012-35.357.008-70.712-.014-22.814-.089-45.627.042-15.3.081-30.591a1.966,1.966,0,0,0-.5-1.658c-.015-15.479.02-30.958-.1-46.436-.017-2.346.55-3.183,2.983-3.008,17.914,1.29,31.012,9.95,39.371,25.742a40.45,40.45,0,0,1,4.856,16.607c0,2.211.014,4.423.013,6.635q-.048,69.9-.056,139.8C184.622,283.692,184.225,286.92,185.1,290.063Z" style="fill: #808182"/>
    </g>
  </g>
</svg>
