<svg xmlns="http://www.w3.org/2000/svg" version="1.1" xmlns:xlink="http://www.w3.org/1999/xlink" xmlns:svgjs="http://svgjs.dev/svgjs" width="256" height="256" viewBox="0 0 256 256"><g transform="matrix(1,0,0,1,-0.21911425686964492,0.2817416581962533)"><svg viewBox="0 0 98 98" data-background-color="#ffffff" preserveAspectRatio="xMidYMid meet" height="255" width="256" xmlns="http://www.w3.org/2000/svg" xmlns:xlink="http://www.w3.org/1999/xlink"><g id="tight-bounds" transform="matrix(1,0,0,1,0.0838796764579115,0.0838796764579115)"><svg viewBox="0 0 97.83224064708416 97.83224064708416" height="97.83224064708416" width="97.83224064708416"><g><svg></svg></g><g><svg viewBox="0 0 97.83224064708416 97.83224064708416" height="97.83224064708416" width="97.83224064708416"><g><path d="M0 48.916c0-27.016 21.9-48.916 48.916-48.916 27.016 0 48.916 21.9 48.916 48.916 0 27.016-21.9 48.916-48.916 48.916-27.016 0-48.916-21.9-48.916-48.916zM48.916 93.664c24.713 0 44.748-20.034 44.748-44.748 0-24.713-20.034-44.748-44.748-44.747-24.713 0-44.748 20.034-44.747 44.747 0 24.713 20.034 44.748 44.747 44.748z" data-fill-palette-color="tertiary" fill="#ea3c12" stroke="transparent"></path><ellipse rx="46.9594755106004" ry="46.9594755106004" cx="48.91612032354208" cy="48.91612032354208" fill="#ea3c12" stroke="transparent" stroke-width="0" fill-opacity="1" data-fill-palette-color="tertiary"></ellipse></g><g transform="matrix(1,0,0,1,23.475393915029343,25.803634854174888)"><svg viewBox="0 0 50.881452817025476 46.22497093873439" height="46.22497093873439" width="50.881452817025476"><g><svg viewBox="0 0 50.881452817025476 46.22497093873439" height="46.22497093873439" width="50.881452817025476"><g><svg viewBox="0 0 50.881452817025476 46.22497093873439" height="46.22497093873439" width="50.881452817025476"><g><svg viewBox="0 0 50.881452817025476 46.22497093873439" height="46.22497093873439" width="50.881452817025476"><g><svg viewBox="0 0 50.881452817025476 46.22497093873439" height="46.22497093873439" width="50.881452817025476"><g><svg viewBox="0 0 50.881452817025476 46.22497093873439" height="46.22497093873439" width="50.881452817025476"><g><svg xmlns="http://www.w3.org/2000/svg" xmlns:xlink="http://www.w3.org/1999/xlink" version="1.1" x="0" y="0" viewBox="5.084999999999999 9.195 89.83100000000002 81.61000000000001" enable-background="new 0 0 100 100" xml:space="preserve" height="46.22497093873439" width="50.881452817025476" class="icon-icon-0" data-fill-palette-color="quaternary" id="icon-0"><g fill="#ffffff" data-fill-palette-color="quaternary"><polygon points="54.793,78.123 51.608,78.794 50,80.585 48.392,78.794 45.207,78.123 47.983,79.872 49.993,82.42 49.993,82.438    50,82.429 50.008,82.438 50.008,82.42 52.019,79.872  " fill="#ffffff" data-fill-palette-color="quaternary"></polygon><g fill="#ffffff" data-fill-palette-color="quaternary"><polygon points="17.006,12.151 16.89,11.021 17.784,9.721 11.044,11.155 15.829,11.307   " fill="#ffffff" data-fill-palette-color="quaternary"></polygon><polygon points="21.496,15.373 38.653,38.009 45.777,25.755 45.194,25.008 48.002,26.006 50.008,27.619 51.999,26.006     54.807,25.008 54.224,25.755 61.348,38.009 78.506,15.373 82.447,12.544 81.847,10.946 80.248,9.302 79.748,9.195 68.612,11.873     68.308,12.114 71.956,14.531 74.148,16.912 74.871,19.774 73.064,17.574 70.992,15.466 67.096,13.067 59.366,19.163 59.251,19.31     64.235,22.033 66.687,24.122 67.49,27.417 65.652,24.926 63.303,23.179 58.091,20.797 55.541,24.066 50,25.558 44.46,24.066     41.911,20.797 36.698,23.179 34.348,24.926 32.511,27.417 33.315,24.122 35.766,22.033 40.75,19.31 40.636,19.163 32.903,13.067     29.009,15.466 26.938,17.574 25.129,19.774 25.852,16.912 28.045,14.531 31.694,12.114 31.389,11.873 20.253,9.195 19.753,9.302     18.154,10.946 17.553,12.544   " fill="#ffffff" data-fill-palette-color="quaternary"></polygon><polygon points="82.994,12.151 84.172,11.307 88.957,11.155 82.217,9.721 83.111,11.021   " fill="#ffffff" data-fill-palette-color="quaternary"></polygon><path d="M92.968 61.819l-1.201-0.563-0.694-0.979 0.881 0.542 0.966 0.258 0.098-6.999 0.015-0.295-1.623-0.758-1.021-1.184 1.457 0.803 1.235 0.242 0.35-6.729-1.948-0.344-1.094-0.962 1.433 0.336 1.663-0.068 0.35-6.708-2.279-0.402-1.566-1.071 1.878 0.251 2.034-0.084 0.411-7.9h-2.716l-2.229-1.203 1.987 0.299 3.028-0.45 0.16-3.104-1.402-6.608-1.516 1.336-3.564 1.797 2.756-2.853 1.723-2.242-2.435-4.341-5.414 0.604-5.52 4.773L63.292 40.04l8.163-5.578 1.183-1.023 0.22 0.12-2.64 5.063-1.221 1.909-3.844 2.873-0.992 4.215-3.057 3.728-0.819 2.685 0.618-1.173 0.979 0.527 1.858-0.232 1.419-2.063 0.413-1.651-1.176 0.451-0.365 0.164 1.284-2.231 0.593-2.419 1.098 7.718L59.854 69.15l-4.09 11.76 4.244-14.855-1.269-6.485 1.061-4.426-2.557 4.463 0.987 6.14-2.705 15.849-0.148 0.425-2.304 1.436L50 83.662l-3.073-0.207-2.304-1.436-0.147-0.425-2.707-15.849 0.987-6.14L40.2 55.144l1.062 4.426-1.269 6.485 4.244 14.855-4.09-11.76-7.152-16.029 1.099-7.718 0.592 2.419 1.284 2.231-0.366-0.164-1.175-0.451 0.412 1.651 1.42 2.063 1.858 0.232 0.979-0.527 0.619 1.173-0.82-2.685-3.057-3.728-0.994-4.215-3.842-2.873-1.221-1.909-2.64-5.063 0.22-0.12 1.183 1.023 8.162 5.578L20.833 17.212l-5.519-4.773-5.415-0.604-2.434 4.341 1.722 2.242 2.756 2.853-3.565-1.797-1.514-1.336-1.404 6.608 0.161 3.104 3.028 0.45 1.989-0.299-2.229 1.203H5.691l0.41 7.9 2.035 0.084 1.878-0.251-1.565 1.071L6.17 38.411l0.349 6.708 1.663 0.068 1.432-0.336-1.093 0.962-1.948 0.344 0.35 6.729 1.236-0.242 1.456-0.803-1.021 1.184L6.97 53.783l0.015 0.295 0.097 6.999 0.966-0.258 0.882-0.542-0.696 0.979-1.201 0.563-1.948 2.096 0.132 2.874 3.49-2.639 3.72-24.245 5.518-11.746 5.085 1.528 2.825 2.445-1.394 0.645 5.296 9.242 3.388 2.171-2.522 9.564 8.483 15.781 6.332 17.241 2.169 3.231 2.385 0.789v0.007L50 90.8l0.008 0.005v-0.007l2.384-0.789 2.17-3.231 6.33-17.241 8.484-15.781-2.522-9.564 3.39-2.171 5.296-9.242-1.395-0.645 2.825-2.445 5.086-1.528 5.518 11.746 3.719 24.245 3.491 2.639 0.132-2.874L92.968 61.819zM53.809 86.532l-2.304 2.117L50 88.863l-1.504-0.214-2.303-2.117-1.551-4.461 2.13 2.213 3.222 0.933v0.005L50 85.219l0.008 0.003v-0.005l3.221-0.933 2.13-2.213L53.809 86.532z" fill="#ffffff" data-fill-palette-color="quaternary"></path></g></g></svg></g></svg></g></svg></g></svg></g></svg></g><g></g></svg></g></svg></g></svg></g><defs></defs></svg><rect width="97.83224064708416" height="97.83224064708416" fill="none" stroke="none" visibility="hidden"></rect></g></svg></g></svg>