<svg width="1024" height="1024" viewBox="0 0 1024 1024" fill="none" xmlns="http://www.w3.org/2000/svg">
<rect width="1024" height="1024" rx="512" fill="black"/>
<path d="M413.48 771V245.4H585.56C619.64 245.4 649.16 251.88 674.12 264.84C699.56 277.8 719 296.28 732.44 320.28C746.36 343.8 753.32 371.64 753.32 403.8C753.32 435.48 746.36 463.32 732.44 487.32C718.52 511.32 699.08 529.8 674.12 542.76C649.16 555.72 619.64 562.2 585.56 562.2H491.24V771H413.48ZM491.24 492.36H585.56C612.44 492.36 633.8 484.44 649.64 468.6C665.96 452.28 674.12 430.68 674.12 403.8C674.12 376.44 665.96 354.84 649.64 339C633.8 323.16 612.44 315.24 585.56 315.24H491.24V492.36Z" fill="white"/>
<line x1="239" y1="527.28" x2="479" y2="527.28" stroke="white" stroke-width="69.84"/>
</svg>
