<svg width="1024" height="1024" viewBox="0 0 1024 1024" fill="none" xmlns="http://www.w3.org/2000/svg">
<g clip-path="url(#clip0_20_7)">
<rect width="1024" height="1024" rx="512" fill="black"/>
<path d="M405.2 800V216H596.4C634.267 216 667.067 223.2 694.8 237.6C723.067 252 744.667 272.533 759.6 299.2C775.067 325.333 782.8 356.267 782.8 392C782.8 427.2 775.067 458.133 759.6 484.8C744.133 511.467 722.533 532 694.8 546.4C667.067 560.8 634.267 568 596.4 568H491.6V800H405.2ZM491.6 490.4H596.4C626.267 490.4 650 481.6 667.6 464C685.733 445.867 694.8 421.867 694.8 392C694.8 361.6 685.733 337.6 667.6 320C650 302.4 626.267 293.6 596.4 293.6H491.6V490.4Z" fill="white"/>
<line x1="206" y1="529.2" x2="526" y2="529.2" stroke="white" stroke-width="77.6"/>
</g>
<defs>
<clipPath id="clip0_20_7">
<rect width="1024" height="1024" rx="512" fill="white"/>
</clipPath>
</defs>
</svg>
