<?xml version="1.0" encoding="UTF-8"?><svg id="Layer_2" xmlns="http://www.w3.org/2000/svg" width="256px" height="256px" viewBox="0 0 256 256"><defs><style>.cls-1{fill:#228b22;}.cls-2{fill:#ff0;}</style></defs><g id="Layer_1-2"><path class="cls-2" d="m128,229.14c-62.8,0-113.88-51.2-113.88-114.12S65.2.9,128,.9c29.94,0,58.54,12.45,80.52,35.05,21.2,21.8,33.36,50.62,33.36,79.07,0,62.93-51.09,114.12-113.88,114.12Z"/><path d="m128,1.8c29.7,0,58.06,12.35,79.88,34.78,21.04,21.64,33.11,50.23,33.11,78.44,0,30.24-11.75,58.68-33.09,80.06-21.34,21.38-49.71,33.16-79.89,33.16s-58.55-11.78-79.89-33.16c-21.34-21.39-33.09-49.82-33.09-80.06s11.75-58.68,33.09-80.06C69.45,13.57,97.82,1.8,128,1.8m0-1.8C64.61,0,13.22,51.5,13.22,115.02s51.39,115.02,114.78,115.02,114.78-51.5,114.78-115.02C242.78,55.86,191.39,0,128,0h0Z"/><path class="cls-1" d="m128,255C57.97,255,1,197.91,1,127.73c0-33.38,12.82-64.9,36.1-88.82.8.3,1.61.59,2.43.87-17.63,20.94-27.32,47.4-27.32,74.7,0,63.97,51.94,116.02,115.78,116.02s115.78-52.05,115.78-116.02c0-26.42-10.13-52.76-28.56-74.34,1.19-.37,2.4-.77,3.67-1.23,23.29,23.92,36.1,55.44,36.1,88.82,0,70.17-56.97,127.26-127,127.26Z"/><path d="m218.63,40.07c22.82,23.68,35.37,54.75,35.37,87.66s-13.11,65.44-36.91,89.28c-23.8,23.85-55.44,36.98-89.09,36.98s-65.29-13.13-89.09-36.98C15.11,193.17,2,161.46,2,127.73S14.55,63.76,37.37,40.08c.16.06.32.12.48.17-17.19,20.94-26.63,47.18-26.63,74.23,0,64.53,52.39,117.02,116.78,117.02s116.78-52.5,116.78-117.02c0-26.19-9.86-52.3-27.83-73.84.55-.18,1.1-.37,1.67-.57m.53-2.32c-1.87.7-3.77,1.33-5.7,1.88,18.18,20.78,29.33,47.42,29.33,74.86,0,63.52-51.39,115.02-114.78,115.02S13.22,178.01,13.22,114.49c0-28.78,10.62-55.02,28.05-75.19-1.5-.45-2.96-1-4.43-1.55C14.08,60.9,0,92.66,0,127.73c0,70.84,57.31,128.27,128,128.27s128-57.43,128-128.27c0-35.07-14.08-66.83-36.84-89.98h0Z"/><path class="cls-1" d="m85.99,184.06V50.53h103.46v27.23h-79.25v106.3h-24.21Zm41.3-53.8v-22.76h57.12v22.76h-57.12Z"/><path d="m188.55,51.43v25.42h-79.25v106.3h-22.4V51.43h101.65m-5.04,56.97v20.95h-55.31v-20.95h55.31m6.85-58.78h-105.27v135.35h26.02v-106.3h79.25v-29.04h0Zm-5.04,56.97h-58.93v24.57h58.93v-24.57h0Z"/></g></svg>