<?xml version="1.0" encoding="UTF-8"?>
<!DOCTYPE svg PUBLIC "-//W3C//DTD SVG 1.1//EN" "http://www.w3.org/Graphics/SVG/1.1/DTD/svg11.dtd">
<svg xmlns="http://www.w3.org/2000/svg" version="1.1" width="256px" height="256px" style="shape-rendering:geometricPrecision; text-rendering:geometricPrecision; image-rendering:optimizeQuality; fill-rule:evenodd; clip-rule:evenodd" xmlns:xlink="http://www.w3.org/1999/xlink">
<g><path style="opacity:0.989" fill="#010100" d="M 111.5,-0.5 C 122.167,-0.5 132.833,-0.5 143.5,-0.5C 197.348,9.02157 233.181,39.6882 251,91.5C 252.585,97.9498 254.085,104.283 255.5,110.5C 255.5,121.833 255.5,133.167 255.5,144.5C 252.945,160.5 247.611,175.5 239.5,189.5C 235.241,189.831 231.241,188.998 227.5,187C 231.223,186.566 231.39,185.732 228,184.5C 224.933,185.403 224.433,186.57 226.5,188C 223.56,188.886 222.56,188.052 223.5,185.5C 221.377,182.754 219.377,179.921 217.5,177C 212.964,175.621 208.297,175.121 203.5,175.5C 203.831,148.661 203.498,121.995 202.5,95.5C 202.5,84.5 202.5,73.5 202.5,62.5C 188.5,62.5 174.5,62.5 160.5,62.5C 160.666,69.175 160.5,75.8417 160,82.5C 151.29,89.3831 142.457,96.0497 133.5,102.5C 132.167,103.167 131.167,104.167 130.5,105.5C 130.167,105.5 129.833,105.5 129.5,105.5C 118.198,95.533 107.198,85.1996 96.5,74.5C 95.5,73.1667 94.5,71.8333 93.5,70.5C 93.5,69.8333 93.5,69.1667 93.5,68.5C 93.5,66.5 93.5,64.5 93.5,62.5C 90.9387,61.2329 88.272,61.2329 85.5,62.5C 74.1667,62.5 62.8333,62.5 51.5,62.5C 51.5,67.1667 51.5,71.8333 51.5,76.5C 51.5,77.1667 51.5,77.8333 51.5,78.5C 51.5,79.8333 51.5,81.1667 51.5,82.5C 51.5,83.1667 51.5,83.8333 51.5,84.5C 51.5,92.1667 51.5,99.8333 51.5,107.5C 51.5,135.833 51.5,164.167 51.5,192.5C 65.6766,192.829 79.6766,192.496 93.5,191.5C 93.5,191.167 93.5,190.833 93.5,190.5C 93.5,188.833 93.5,187.167 93.5,185.5C 93.2256,180.737 93.559,176.07 94.5,171.5C 97.117,170.214 99.4504,168.547 101.5,166.5C 107.833,161.833 114.167,157.167 120.5,152.5C 121.167,152.5 121.5,152.167 121.5,151.5C 122.167,151.5 122.5,151.167 122.5,150.5C 123.5,150.167 124.167,149.5 124.5,148.5C 124.833,148.5 125.167,148.5 125.5,148.5C 137.193,159.861 148.86,171.194 160.5,182.5C 160.5,185.167 160.5,187.833 160.5,190.5C 157.5,190.5 154.5,190.5 151.5,190.5C 142.161,190.334 132.827,190.5 123.5,191C 123.167,191.333 122.833,191.667 122.5,192C 130.175,192.459 137.842,192.959 145.5,193.5C 146.842,194.793 148.509,195.626 150.5,196C 148.167,196.333 145.833,196.667 143.5,197C 151.218,197.188 158.885,197.854 166.5,199C 174.903,211.004 185.903,217.337 199.5,218C 197.099,218.805 197.266,219.638 200,220.5C 205.873,219.584 212.04,218.584 218.5,217.5C 198.165,238.479 173.498,251.145 144.5,255.5C 133.167,255.5 121.833,255.5 110.5,255.5C 57.1424,245.707 21.6424,215.04 4,163.5C 2.46365,156.701 0.963654,150.035 -0.5,143.5C -0.5,132.833 -0.5,122.167 -0.5,111.5C 7.97878,61.5119 35.6454,26.6785 82.5,7C 92.0953,3.68558 101.762,1.18558 111.5,-0.5 Z"/></g>
<g><path style="opacity:1" fill="#f9f9fa" d="M 202.5,95.5 C 202.5,107.167 202.5,118.833 202.5,130.5C 202.167,130.5 201.833,130.5 201.5,130.5C 201.672,129.508 201.338,128.842 200.5,128.5C 200.666,118.494 200.5,108.494 200,98.5C 198.913,96.0684 198.413,96.4017 198.5,99.5C 180.5,102.162 162.5,105.162 144.5,108.5C 141.785,107.622 139.451,106.122 137.5,104C 136.207,103.51 134.873,103.343 133.5,103.5C 133.5,103.167 133.5,102.833 133.5,102.5C 142.457,96.0497 151.29,89.3831 160,82.5C 160.5,75.8417 160.666,69.175 160.5,62.5C 174.5,62.5 188.5,62.5 202.5,62.5C 202.5,73.5 202.5,84.5 202.5,95.5 Z"/></g>
<g><path style="opacity:1" fill="#808080" d="M 96.5,77.5 C 105.167,86.5 113.833,95.5 122.5,104.5C 123.882,107.394 125.882,109.894 128.5,112C 120.437,112.961 112.437,114.295 104.5,116C 103.328,116.419 102.328,117.085 101.5,118C 103.464,119.451 104.797,121.284 105.5,123.5C 101.415,118.796 96.4154,115.63 90.5,114C 89.6195,113.292 88.9528,112.458 88.5,111.5C 89.552,111.649 90.552,111.483 91.5,111C 81.965,101.298 72.2984,91.7978 62.5,82.5C 60.8304,79.9984 58.6637,77.9984 56,76.5C 55.5014,72.8484 55.3347,69.1817 55.5,65.5C 64.8393,65.3335 74.1726,65.5002 83.5,66C 88.0017,69.6699 92.335,73.5032 96.5,77.5 Z"/></g>
<g><path style="opacity:1" fill="#a1a1a2" d="M 93.5,62.5 C 93.5,64.5 93.5,66.5 93.5,68.5C 91.3702,66.8729 89.3702,65.0396 87.5,63C 89.4727,62.5045 91.4727,62.3379 93.5,62.5 Z"/></g>
<g><path style="opacity:1" fill="#474747" d="M 93.5,62.5 C 91.4727,62.3379 89.4727,62.5045 87.5,63C 89.3702,65.0396 91.3702,66.8729 93.5,68.5C 93.5,69.1667 93.5,69.8333 93.5,70.5C 90.5,68.1667 87.8333,65.5 85.5,62.5C 88.272,61.2329 90.9387,61.2329 93.5,62.5 Z"/></g>
<g><path style="opacity:1" fill="#adacac" d="M 85.5,62.5 C 87.8333,65.5 90.5,68.1667 93.5,70.5C 94.5,71.8333 95.5,73.1667 96.5,74.5C 96.5,75.5 96.5,76.5 96.5,77.5C 92.335,73.5032 88.0017,69.6699 83.5,66C 74.1726,65.5002 64.8393,65.3335 55.5,65.5C 55.3347,69.1817 55.5014,72.8484 56,76.5C 58.6637,77.9984 60.8304,79.9984 62.5,82.5C 61.8826,82.6107 61.3826,82.944 61,83.5C 57.5454,80.7211 54.8787,77.3878 53,73.5C 52.5172,74.448 52.3505,75.448 52.5,76.5C 52.1667,76.5 51.8333,76.5 51.5,76.5C 51.5,71.8333 51.5,67.1667 51.5,62.5C 62.8333,62.5 74.1667,62.5 85.5,62.5 Z"/></g>
<g><path style="opacity:1" fill="#545454" d="M 51.5,78.5 C 65.2418,91.5751 78.5751,104.908 91.5,118.5C 78.2321,106.734 65.3988,94.401 53,81.5C 52.6174,82.056 52.1174,82.3893 51.5,82.5C 51.5,81.1667 51.5,79.8333 51.5,78.5 Z"/></g>
<g><path style="opacity:1" fill="#898989" d="M 91.5,118.5 C 92.7196,120.282 93.3862,122.282 93.5,124.5C 80.3117,110.81 66.8117,97.1433 53,83.5C 52.6174,84.056 52.1174,84.3893 51.5,84.5C 51.5,83.8333 51.5,83.1667 51.5,82.5C 52.1174,82.3893 52.6174,82.056 53,81.5C 65.3988,94.401 78.2321,106.734 91.5,118.5 Z"/></g>
<g><path style="opacity:1" fill="#1e1e1f" d="M 51.5,76.5 C 51.8333,76.5 52.1667,76.5 52.5,76.5C 63.8648,88.8654 75.8648,100.532 88.5,111.5C 88.9528,112.458 89.6195,113.292 90.5,114C 96.4154,115.63 101.415,118.796 105.5,123.5C 107.167,125.833 109.167,127.833 111.5,129.5C 112.8,130.601 113.3,131.934 113,133.5C 111.887,131.671 110.387,130.837 108.5,131C 112.369,135.037 116.369,138.87 120.5,142.5C 122.167,144.5 123.833,146.5 125.5,148.5C 125.167,148.5 124.833,148.5 124.5,148.5C 117.757,143.263 111.423,137.429 105.5,131C 103.104,129.446 100.771,128.946 98.5,129.5C 97.8333,129.5 97.5,129.833 97.5,130.5C 96.2794,131.028 95.1127,131.695 94,132.5C 93.5026,129.854 93.3359,127.187 93.5,124.5C 93.3862,122.282 92.7196,120.282 91.5,118.5C 78.5751,104.908 65.2418,91.5751 51.5,78.5C 51.5,77.8333 51.5,77.1667 51.5,76.5 Z"/></g>
<g><path style="opacity:1" fill="#d0cfcf" d="M 62.5,82.5 C 72.2984,91.7978 81.965,101.298 91.5,111C 90.552,111.483 89.552,111.649 88.5,111.5C 75.8648,100.532 63.8648,88.8654 52.5,76.5C 52.3505,75.448 52.5172,74.448 53,73.5C 54.8787,77.3878 57.5454,80.7211 61,83.5C 61.3826,82.944 61.8826,82.6107 62.5,82.5 Z"/></g>
<g><path style="opacity:1" fill="#e2e3e4" d="M 200.5,128.5 C 199.834,125.311 199.167,121.977 198.5,118.5C 187.602,121.039 176.602,123.039 165.5,124.5C 165.771,126.38 165.104,127.713 163.5,128.5C 163.843,126.517 163.176,125.183 161.5,124.5C 161.672,123.508 161.338,122.842 160.5,122.5C 159.395,123.6 158.062,124.267 156.5,124.5C 155.352,123.836 154.019,123.669 152.5,124C 146.329,116.996 139.995,110.163 133.5,103.5C 134.873,103.343 136.207,103.51 137.5,104C 139.451,106.122 141.785,107.622 144.5,108.5C 162.5,105.162 180.5,102.162 198.5,99.5C 198.413,96.4017 198.913,96.0684 200,98.5C 200.5,108.494 200.666,118.494 200.5,128.5 Z"/></g>
<g><path style="opacity:1" fill="#989899" d="M 133.5,102.5 C 133.5,102.833 133.5,103.167 133.5,103.5C 139.995,110.163 146.329,116.996 152.5,124C 154.019,123.669 155.352,123.836 156.5,124.5C 156.167,125.5 155.5,126.167 154.5,126.5C 152.05,125.223 149.717,123.723 147.5,122C 141.965,116.297 136.298,110.797 130.5,105.5C 131.167,104.167 132.167,103.167 133.5,102.5 Z"/></g>
<g><path style="opacity:1" fill="#cecccc" d="M 96.5,74.5 C 107.198,85.1996 118.198,95.533 129.5,105.5C 134.297,110.798 139.297,115.965 144.5,121C 143.906,121.464 143.239,121.631 142.5,121.5C 135.294,116.64 128.627,110.973 122.5,104.5C 113.833,95.5 105.167,86.5 96.5,77.5C 96.5,76.5 96.5,75.5 96.5,74.5 Z"/></g>
<g><path style="opacity:1" fill="#707171" d="M 122.5,104.5 C 128.627,110.973 135.294,116.64 142.5,121.5C 141.957,121.56 141.624,121.893 141.5,122.5C 144.521,124.854 147.188,127.521 149.5,130.5C 149.565,130.938 149.399,131.272 149,131.5C 146.297,128.462 143.297,125.795 140,123.5C 139.147,125.125 138.147,125.458 137,124.5C 128.843,126.483 120.343,128.15 111.5,129.5C 109.167,127.833 107.167,125.833 105.5,123.5C 104.797,121.284 103.464,119.451 101.5,118C 102.328,117.085 103.328,116.419 104.5,116C 112.437,114.295 120.437,112.961 128.5,112C 125.882,109.894 123.882,107.394 122.5,104.5 Z"/></g>
<g><path style="opacity:1" fill="#050505" d="M 160.5,122.5 C 160.5,126.5 160.5,130.5 160.5,134.5C 160.631,135.239 160.464,135.906 160,136.5C 157.667,134.167 155.333,131.833 153,129.5C 152.761,128.212 153.261,127.212 154.5,126.5C 155.5,126.167 156.167,125.5 156.5,124.5C 158.062,124.267 159.395,123.6 160.5,122.5 Z"/></g>
<g><path style="opacity:1" fill="#d2d3d5" d="M 200.5,128.5 C 201.338,128.842 201.672,129.508 201.5,130.5C 200.069,130.881 199.236,131.881 199,133.5C 190.59,133.983 182.09,135.316 173.5,137.5C 165.904,135.073 166.571,133.906 175.5,134C 171.358,133.673 167.358,132.839 163.5,131.5C 163.5,130.5 163.5,129.5 163.5,128.5C 165.104,127.713 165.771,126.38 165.5,124.5C 176.602,123.039 187.602,121.039 198.5,118.5C 199.167,121.977 199.834,125.311 200.5,128.5 Z"/></g>
<g><path style="opacity:1" fill="#5f6060" d="M 149.5,130.5 C 152.146,132.479 154.479,134.812 156.5,137.5C 146.381,139.84 136.381,142.173 126.5,144.5C 124.579,143.637 122.579,142.971 120.5,142.5C 116.369,138.87 112.369,135.037 108.5,131C 110.387,130.837 111.887,131.671 113,133.5C 113.3,131.934 112.8,130.601 111.5,129.5C 120.343,128.15 128.843,126.483 137,124.5C 138.147,125.458 139.147,125.125 140,123.5C 143.297,125.795 146.297,128.462 149,131.5C 149.399,131.272 149.565,130.938 149.5,130.5 Z"/></g>
<g><path style="opacity:1" fill="#4f5050" d="M 98.5,129.5 C 100.771,128.946 103.104,129.446 105.5,131C 111.423,137.429 117.757,143.263 124.5,148.5C 124.167,149.5 123.5,150.167 122.5,150.5C 115.686,142.012 107.686,135.012 98.5,129.5 Z"/></g>
<g><path style="opacity:1" fill="#606162" d="M 160.5,122.5 C 161.338,122.842 161.672,123.508 161.5,124.5C 160.908,129.542 162.242,133.875 165.5,137.5C 167.167,139.5 168.833,141.5 170.5,143.5C 166.538,141.205 163.205,138.205 160.5,134.5C 160.5,130.5 160.5,126.5 160.5,122.5 Z"/></g>
<g><path style="opacity:1" fill="#939395" d="M 97.5,130.5 C 97.5,129.833 97.8333,129.5 98.5,129.5C 107.686,135.012 115.686,142.012 122.5,150.5C 122.5,151.167 122.167,151.5 121.5,151.5C 115.615,146.96 109.948,141.96 104.5,136.5C 103.419,133.088 101.085,131.088 97.5,130.5 Z"/></g>
<g><path style="opacity:1" fill="#d1d2d4" d="M 93.5,124.5 C 93.3359,127.187 93.5026,129.854 94,132.5C 95.1127,131.695 96.2794,131.028 97.5,130.5C 101.085,131.088 103.419,133.088 104.5,136.5C 106.051,139.563 108.218,142.229 111,144.5C 111.49,145.793 111.657,147.127 111.5,148.5C 93.2835,151.119 75.1169,154.119 57,157.5C 55.1074,158.008 53.6074,159.008 52.5,160.5C 52.5,142.833 52.5,125.167 52.5,107.5C 52.1667,107.5 51.8333,107.5 51.5,107.5C 51.5,99.8333 51.5,92.1667 51.5,84.5C 52.1174,84.3893 52.6174,84.056 53,83.5C 66.8117,97.1433 80.3117,110.81 93.5,124.5 Z"/></g>
<g><path style="opacity:1" fill="#ecedee" d="M 52.5,107.5 C 52.3337,100.159 52.5003,92.8258 53,85.5C 64.2862,98.954 76.4528,111.621 89.5,123.5C 90.657,126.784 90.8236,130.118 90,133.5C 87.5676,132.707 85.2342,132.374 83,132.5C 73.6991,135.126 64.1991,136.793 54.5,137.5C 55.141,127.111 54.4743,117.111 52.5,107.5 Z"/></g>
<g><path style="opacity:1" fill="#383839" d="M 129.5,105.5 C 129.833,105.5 130.167,105.5 130.5,105.5C 136.298,110.797 141.965,116.297 147.5,122C 149.717,123.723 152.05,125.223 154.5,126.5C 153.261,127.212 152.761,128.212 153,129.5C 155.333,131.833 157.667,134.167 160,136.5C 160.464,135.906 160.631,135.239 160.5,134.5C 163.205,138.205 166.538,141.205 170.5,143.5C 180.131,153.632 189.964,163.632 200,173.5C 200.667,174.167 200.667,174.833 200,175.5C 188.876,163.369 176.876,152.369 164,142.5C 163.7,144.066 164.2,145.399 165.5,146.5C 164.711,146.783 164.044,147.283 163.5,148C 153.97,149.529 144.636,151.362 135.5,153.5C 132.167,150.833 129.167,147.833 126.5,144.5C 136.381,142.173 146.381,139.84 156.5,137.5C 154.479,134.812 152.146,132.479 149.5,130.5C 147.188,127.521 144.521,124.854 141.5,122.5C 141.624,121.893 141.957,121.56 142.5,121.5C 143.239,121.631 143.906,121.464 144.5,121C 139.297,115.965 134.297,110.798 129.5,105.5 Z"/></g>
<g><path style="opacity:1" fill="#b3b5b9" d="M 161.5,124.5 C 163.176,125.183 163.843,126.517 163.5,128.5C 163.5,129.5 163.5,130.5 163.5,131.5C 167.358,132.839 171.358,133.673 175.5,134C 166.571,133.906 165.904,135.073 173.5,137.5C 182.09,135.316 190.59,133.983 199,133.5C 199.236,131.881 200.069,130.881 201.5,130.5C 201.833,130.5 202.167,130.5 202.5,130.5C 202.5,136.167 202.5,141.833 202.5,147.5C 201.833,147.833 201.167,148.167 200.5,148.5C 200.5,147.167 200.5,145.833 200.5,144.5C 193.206,145.727 185.873,146.227 178.5,146C 175.203,143.705 172.203,141.038 169.5,138C 168.207,137.51 166.873,137.343 165.5,137.5C 162.242,133.875 160.908,129.542 161.5,124.5 Z"/></g>
<g><path style="opacity:1" fill="#0b0806" d="M 165.5,146.5 C 175.527,156.194 185.527,165.861 195.5,175.5C 192.658,174.388 189.992,174.888 187.5,177C 183.377,179.746 180.043,183.246 177.5,187.5C 175.591,188.348 173.591,188.682 171.5,188.5C 169.833,187.167 168.167,185.833 166.5,184.5C 156.473,173.806 146.14,163.473 135.5,153.5C 144.636,151.362 153.97,149.529 163.5,148C 164.044,147.283 164.711,146.783 165.5,146.5 Z"/></g>
<g><path style="opacity:1" fill="#ececed" d="M 120.5,152.5 C 114.167,157.167 107.833,161.833 101.5,166.5C 100.957,166.44 100.624,166.107 100.5,165.5C 105.091,160.867 110.091,156.701 115.5,153C 117.244,151.546 118.911,151.379 120.5,152.5 Z"/></g>
<g><path style="opacity:1" fill="#9899a0" d="M 165.5,137.5 C 166.873,137.343 168.207,137.51 169.5,138C 172.203,141.038 175.203,143.705 178.5,146C 185.873,146.227 193.206,145.727 200.5,144.5C 200.5,145.833 200.5,147.167 200.5,148.5C 200.5,156.167 200.5,163.833 200.5,171.5C 190.781,161.778 180.781,152.445 170.5,143.5C 168.833,141.5 167.167,139.5 165.5,137.5 Z"/></g>
<g><path style="opacity:1" fill="#b3b5ba" d="M 104.5,136.5 C 109.948,141.96 115.615,146.96 121.5,151.5C 121.5,152.167 121.167,152.5 120.5,152.5C 118.911,151.379 117.244,151.546 115.5,153C 110.091,156.701 105.091,160.867 100.5,165.5C 100.624,166.107 100.957,166.44 101.5,166.5C 99.4504,168.547 97.117,170.214 94.5,171.5C 93.475,171.103 93.3083,170.437 94,169.5C 95.9252,168.12 97.7585,166.62 99.5,165C 84.8351,167.073 70.1685,169.573 55.5,172.5C 54.7022,170.922 54.2022,169.256 54,167.5C 53.7216,168.416 53.2216,169.082 52.5,169.5C 52.5,166.5 52.5,163.5 52.5,160.5C 53.6074,159.008 55.1074,158.008 57,157.5C 75.1169,154.119 93.2835,151.119 111.5,148.5C 111.657,147.127 111.49,145.793 111,144.5C 108.218,142.229 106.051,139.563 104.5,136.5 Z"/></g>
<g><path style="opacity:1" fill="#767678" d="M 120.5,142.5 C 122.579,142.971 124.579,143.637 126.5,144.5C 129.167,147.833 132.167,150.833 135.5,153.5C 146.14,163.473 156.473,173.806 166.5,184.5C 164.421,184.029 162.421,183.363 160.5,182.5C 148.86,171.194 137.193,159.861 125.5,148.5C 123.833,146.5 122.167,144.5 120.5,142.5 Z"/></g>
<g><path style="opacity:1" fill="#9b9da4" d="M 94.5,171.5 C 93.559,176.07 93.2256,180.737 93.5,185.5C 91.8235,186.183 91.1568,187.517 91.5,189.5C 79.1667,189.5 66.8333,189.5 54.5,189.5C 54.8023,185.21 54.1357,181.21 52.5,177.5C 52.5,174.833 52.5,172.167 52.5,169.5C 53.2216,169.082 53.7216,168.416 54,167.5C 54.2022,169.256 54.7022,170.922 55.5,172.5C 70.1685,169.573 84.8351,167.073 99.5,165C 97.7585,166.62 95.9252,168.12 94,169.5C 93.3083,170.437 93.475,171.103 94.5,171.5 Z"/></g>
<g><path style="opacity:1" fill="#76716f" d="M 202.5,95.5 C 203.498,121.995 203.831,148.661 203.5,175.5C 203.5,176.833 203.5,178.167 203.5,179.5C 203.5,180.167 203.5,180.833 203.5,181.5C 202.5,181.5 201.5,181.5 200.5,181.5C 200.672,180.508 200.338,179.842 199.5,179.5C 198.5,177.833 197.167,176.5 195.5,175.5C 185.527,165.861 175.527,156.194 165.5,146.5C 164.2,145.399 163.7,144.066 164,142.5C 176.876,152.369 188.876,163.369 200,175.5C 200.667,174.833 200.667,174.167 200,173.5C 189.964,163.632 180.131,153.632 170.5,143.5C 180.781,152.445 190.781,161.778 200.5,171.5C 201.222,171.918 201.722,172.584 202,173.5C 202.5,164.84 202.666,156.173 202.5,147.5C 202.5,141.833 202.5,136.167 202.5,130.5C 202.5,118.833 202.5,107.167 202.5,95.5 Z"/></g>
<g><path style="opacity:1" fill="#dadadb" d="M 202.5,147.5 C 202.666,156.173 202.5,164.84 202,173.5C 201.722,172.584 201.222,171.918 200.5,171.5C 200.5,163.833 200.5,156.167 200.5,148.5C 201.167,148.167 201.833,147.833 202.5,147.5 Z"/></g>
<g><path style="opacity:1" fill="#371d10" d="M 195.5,175.5 C 197.167,176.5 198.5,177.833 199.5,179.5C 196.184,180.347 192.85,181.514 189.5,183C 187.561,184.432 186.228,186.265 185.5,188.5C 185.5,188.833 185.5,189.167 185.5,189.5C 182.833,189.5 180.167,189.5 177.5,189.5C 175.265,189.795 173.265,189.461 171.5,188.5C 173.591,188.682 175.591,188.348 177.5,187.5C 180.043,183.246 183.377,179.746 187.5,177C 189.992,174.888 192.658,174.388 195.5,175.5 Z"/></g>
<g><path style="opacity:1" fill="#7b3b17" d="M 203.5,179.5 C 210.178,179.851 214.511,183.184 216.5,189.5C 215.833,189.5 215.167,189.5 214.5,189.5C 212.326,187.919 209.993,186.419 207.5,185C 206.207,184.51 204.873,184.343 203.5,184.5C 203.5,183.5 203.5,182.5 203.5,181.5C 203.5,180.833 203.5,180.167 203.5,179.5 Z"/></g>
<g><path style="opacity:1" fill="#783917" d="M 199.5,179.5 C 200.338,179.842 200.672,180.508 200.5,181.5C 200.5,182.167 200.5,182.833 200.5,183.5C 197.813,183.336 195.146,183.503 192.5,184C 190.449,186.02 188.116,187.52 185.5,188.5C 186.228,186.265 187.561,184.432 189.5,183C 192.85,181.514 196.184,180.347 199.5,179.5 Z"/></g>
<g><path style="opacity:1" fill="#b85e20" d="M 200.5,183.5 C 200.5,184.167 200.5,184.833 200.5,185.5C 197.519,185.182 195.185,186.182 193.5,188.5C 193.5,188.833 193.5,189.167 193.5,189.5C 191.833,189.5 190.167,189.5 188.5,189.5C 187.5,189.5 186.5,189.5 185.5,189.5C 185.5,189.167 185.5,188.833 185.5,188.5C 188.116,187.52 190.449,186.02 192.5,184C 195.146,183.503 197.813,183.336 200.5,183.5 Z"/></g>
<g><path style="opacity:1" fill="#ce7424" d="M 203.5,184.5 C 204.873,184.343 206.207,184.51 207.5,185C 209.993,186.419 212.326,187.919 214.5,189.5C 213.833,189.5 213.167,189.5 212.5,189.5C 209.273,189.324 206.273,188.657 203.5,187.5C 203.5,186.5 203.5,185.5 203.5,184.5 Z"/></g>
<g><path style="opacity:1" fill="#301d12" d="M 203.5,175.5 C 208.297,175.121 212.964,175.621 217.5,177C 219.377,179.921 221.377,182.754 223.5,185.5C 222.56,188.052 223.56,188.886 226.5,188C 224.433,186.57 224.933,185.403 228,184.5C 231.39,185.732 231.223,186.566 227.5,187C 231.241,188.998 235.241,189.831 239.5,189.5C 239.5,189.833 239.5,190.167 239.5,190.5C 232.155,190.371 224.822,190.038 217.5,189.5C 217.167,189.5 216.833,189.5 216.5,189.5C 214.511,183.184 210.178,179.851 203.5,179.5C 203.5,178.167 203.5,176.833 203.5,175.5 Z"/></g>
<g><path style="opacity:1" fill="#f0932a" d="M 200.5,185.5 C 200.5,186.167 200.5,186.833 200.5,187.5C 198.393,188.468 196.059,188.802 193.5,188.5C 195.185,186.182 197.519,185.182 200.5,185.5 Z"/></g>
<g><path style="opacity:1" fill="#e7a56f" d="M 200.5,181.5 C 201.5,181.5 202.5,181.5 203.5,181.5C 203.5,182.5 203.5,183.5 203.5,184.5C 203.5,185.5 203.5,186.5 203.5,187.5C 202.5,187.5 201.5,187.5 200.5,187.5C 200.5,186.833 200.5,186.167 200.5,185.5C 200.5,184.833 200.5,184.167 200.5,183.5C 200.5,182.833 200.5,182.167 200.5,181.5 Z"/></g>
<g><path style="opacity:1" fill="#bdbdbe" d="M 52.5,177.5 C 54.1357,181.21 54.8023,185.21 54.5,189.5C 66.8333,189.5 79.1667,189.5 91.5,189.5C 91.1568,187.517 91.8235,186.183 93.5,185.5C 93.5,187.167 93.5,188.833 93.5,190.5C 80.1667,190.5 66.8333,190.5 53.5,190.5C 53.7845,188.585 53.4511,186.919 52.5,185.5C 52.5,182.833 52.5,180.167 52.5,177.5 Z"/></g>
<g><path style="opacity:1" fill="#302826" d="M 160.5,182.5 C 162.421,183.363 164.421,184.029 166.5,184.5C 168.167,185.833 169.833,187.167 171.5,188.5C 173.265,189.461 175.265,189.795 177.5,189.5C 172.025,190.489 166.358,190.822 160.5,190.5C 160.5,187.833 160.5,185.167 160.5,182.5 Z"/></g>
<g><path style="opacity:1" fill="#ededec" d="M 52.5,185.5 C 53.4511,186.919 53.7845,188.585 53.5,190.5C 66.8333,190.5 80.1667,190.5 93.5,190.5C 93.5,190.833 93.5,191.167 93.5,191.5C 79.8333,191.5 66.1667,191.5 52.5,191.5C 52.5,189.5 52.5,187.5 52.5,185.5 Z"/></g>
<g><path style="opacity:1" fill="#ae8759" d="M 177.5,189.5 C 180.167,189.5 182.833,189.5 185.5,189.5C 186.5,189.5 187.5,189.5 188.5,189.5C 189.211,191.201 190.545,192.201 192.5,192.5C 192.5,192.833 192.5,193.167 192.5,193.5C 191.167,193.5 189.833,193.5 188.5,193.5C 187.167,193.5 185.833,193.5 184.5,193.5C 183.167,193.5 181.833,193.5 180.5,193.5C 173.877,192.62 167.211,192.287 160.5,192.5C 160.5,191.833 160.5,191.167 160.5,190.5C 166.358,190.822 172.025,190.489 177.5,189.5 Z"/></g>
<g><path style="opacity:1" fill="#fde672" d="M 200.5,187.5 C 201.5,187.5 202.5,187.5 203.5,187.5C 206.273,188.657 209.273,189.324 212.5,189.5C 210.639,191.562 208.305,192.895 205.5,193.5C 201.167,193.5 196.833,193.5 192.5,193.5C 192.5,193.167 192.5,192.833 192.5,192.5C 197.58,192.75 202.58,192.25 207.5,191C 202.915,189.775 198.248,189.275 193.5,189.5C 193.5,189.167 193.5,188.833 193.5,188.5C 196.059,188.802 198.393,188.468 200.5,187.5 Z"/></g>
<g><path style="opacity:1" fill="#d59c5b" d="M 212.5,189.5 C 213.167,189.5 213.833,189.5 214.5,189.5C 215.167,189.5 215.833,189.5 216.5,189.5C 216.833,189.5 217.167,189.5 217.5,189.5C 218.952,190.302 220.618,190.802 222.5,191C 218.386,191.115 214.719,192.282 211.5,194.5C 210.833,194.5 210.167,194.5 209.5,194.5C 208.432,193.566 207.099,193.232 205.5,193.5C 208.305,192.895 210.639,191.562 212.5,189.5 Z"/></g>
<g><path style="opacity:1" fill="#886947" d="M 217.5,189.5 C 224.822,190.038 232.155,190.371 239.5,190.5C 239.5,191.167 239.167,191.5 238.5,191.5C 234.154,191.334 229.821,191.501 225.5,192C 221.867,192.149 218.534,192.982 215.5,194.5C 214.833,194.5 214.167,194.5 213.5,194.5C 212.833,194.5 212.167,194.5 211.5,194.5C 214.719,192.282 218.386,191.115 222.5,191C 220.618,190.802 218.952,190.302 217.5,189.5 Z"/></g>
<g><path style="opacity:1" fill="#757575" d="M 51.5,107.5 C 51.8333,107.5 52.1667,107.5 52.5,107.5C 52.5,125.167 52.5,142.833 52.5,160.5C 52.5,163.5 52.5,166.5 52.5,169.5C 52.5,172.167 52.5,174.833 52.5,177.5C 52.5,180.167 52.5,182.833 52.5,185.5C 52.5,187.5 52.5,189.5 52.5,191.5C 66.1667,191.5 79.8333,191.5 93.5,191.5C 79.6766,192.496 65.6766,192.829 51.5,192.5C 51.5,164.167 51.5,135.833 51.5,107.5 Z"/></g>
<g><path style="opacity:1" fill="#695e38" d="M 151.5,190.5 C 154.5,190.5 157.5,190.5 160.5,190.5C 160.5,191.167 160.5,191.833 160.5,192.5C 157.813,192.664 155.146,192.497 152.5,192C 151.944,191.617 151.611,191.117 151.5,190.5 Z"/></g>
<g><path style="opacity:1" fill="#fff7a5" d="M 188.5,189.5 C 190.167,189.5 191.833,189.5 193.5,189.5C 198.248,189.275 202.915,189.775 207.5,191C 202.58,192.25 197.58,192.75 192.5,192.5C 190.545,192.201 189.211,191.201 188.5,189.5 Z"/></g>
<g><path style="opacity:1" fill="#352d1b" d="M 151.5,190.5 C 151.611,191.117 151.944,191.617 152.5,192C 155.146,192.497 157.813,192.664 160.5,192.5C 167.211,192.287 173.877,192.62 180.5,193.5C 181.6,194.605 182.267,195.938 182.5,197.5C 179.188,195.421 175.521,194.421 171.5,194.5C 163.016,193.507 154.349,193.174 145.5,193.5C 137.842,192.959 130.175,192.459 122.5,192C 122.833,191.667 123.167,191.333 123.5,191C 132.827,190.5 142.161,190.334 151.5,190.5 Z"/></g>
<g><path style="opacity:1" fill="#4d503d" d="M 238.5,191.5 C 238.573,193.027 237.906,194.027 236.5,194.5C 231.5,194.5 226.5,194.5 221.5,194.5C 220.167,194.5 218.833,194.5 217.5,194.5C 216.833,194.5 216.167,194.5 215.5,194.5C 218.534,192.982 221.867,192.149 225.5,192C 229.821,191.501 234.154,191.334 238.5,191.5 Z"/></g>
<g><path style="opacity:1" fill="#ba6423" d="M 188.5,193.5 C 189.833,193.5 191.167,193.5 192.5,193.5C 195.897,196.392 199.897,197.226 204.5,196C 205.252,195.329 205.586,194.496 205.5,193.5C 207.099,193.232 208.432,193.566 209.5,194.5C 207.111,197.893 203.777,199.227 199.5,198.5C 197.5,198.333 195.5,198.167 193.5,198C 191.937,196.264 190.27,194.764 188.5,193.5 Z"/></g>
<g><path style="opacity:1" fill="#ed9a30" d="M 192.5,193.5 C 196.833,193.5 201.167,193.5 205.5,193.5C 205.586,194.496 205.252,195.329 204.5,196C 199.897,197.226 195.897,196.392 192.5,193.5 Z"/></g>
<g><path style="opacity:1" fill="#130d08" d="M 145.5,193.5 C 154.349,193.174 163.016,193.507 171.5,194.5C 172.263,195.268 173.263,195.768 174.5,196C 173.833,196.333 173.167,196.667 172.5,197C 177.363,197.465 181.03,199.798 183.5,204C 189.651,206.104 195.984,207.271 202.5,207.5C 207.632,207.879 212.465,206.879 217,204.5C 220.998,206 224.832,205.667 228.5,203.5C 229.631,201.926 229.798,200.259 229,198.5C 226.151,197.478 223.651,196.144 221.5,194.5C 226.5,194.5 231.5,194.5 236.5,194.5C 232.02,203.319 226.02,210.985 218.5,217.5C 212.04,218.584 205.873,219.584 200,220.5C 197.266,219.638 197.099,218.805 199.5,218C 185.903,217.337 174.903,211.004 166.5,199C 158.885,197.854 151.218,197.188 143.5,197C 145.833,196.667 148.167,196.333 150.5,196C 148.509,195.626 146.842,194.793 145.5,193.5 Z"/></g>
<g><path style="opacity:1" fill="#733a18" d="M 184.5,193.5 C 185.833,193.5 187.167,193.5 188.5,193.5C 190.27,194.764 191.937,196.264 193.5,198C 195.5,198.167 197.5,198.333 199.5,198.5C 203.777,199.227 207.111,197.893 209.5,194.5C 210.167,194.5 210.833,194.5 211.5,194.5C 212.167,194.5 212.833,194.5 213.5,194.5C 211.763,196.88 209.43,198.547 206.5,199.5C 205.614,200.325 205.281,201.325 205.5,202.5C 199.881,203.009 194.547,202.176 189.5,200C 188.27,197.394 186.603,195.227 184.5,193.5 Z"/></g>
<g><path style="opacity:1" fill="#442413" d="M 180.5,193.5 C 181.833,193.5 183.167,193.5 184.5,193.5C 186.603,195.227 188.27,197.394 189.5,200C 194.547,202.176 199.881,203.009 205.5,202.5C 205.281,201.325 205.614,200.325 206.5,199.5C 209.43,198.547 211.763,196.88 213.5,194.5C 214.167,194.5 214.833,194.5 215.5,194.5C 216.167,194.5 216.833,194.5 217.5,194.5C 217.369,195.376 217.702,196.043 218.5,196.5C 220.444,197.189 222.444,197.689 224.5,198C 222.928,202.267 220.094,203.433 216,201.5C 212.031,203.141 207.865,204.307 203.5,205C 207.424,205.799 207.424,206.299 203.5,206.5C 198.046,205.869 192.713,204.702 187.5,203C 184.887,201.893 183.22,200.06 182.5,197.5C 182.267,195.938 181.6,194.605 180.5,193.5 Z"/></g>
<g><path style="opacity:1" fill="#2b1a0f" d="M 171.5,194.5 C 175.521,194.421 179.188,195.421 182.5,197.5C 183.22,200.06 184.887,201.893 187.5,203C 192.713,204.702 198.046,205.869 203.5,206.5C 207.424,206.299 207.424,205.799 203.5,205C 207.865,204.307 212.031,203.141 216,201.5C 220.094,203.433 222.928,202.267 224.5,198C 222.444,197.689 220.444,197.189 218.5,196.5C 217.702,196.043 217.369,195.376 217.5,194.5C 218.833,194.5 220.167,194.5 221.5,194.5C 223.651,196.144 226.151,197.478 229,198.5C 229.798,200.259 229.631,201.926 228.5,203.5C 224.832,205.667 220.998,206 217,204.5C 212.465,206.879 207.632,207.879 202.5,207.5C 195.984,207.271 189.651,206.104 183.5,204C 181.03,199.798 177.363,197.465 172.5,197C 173.167,196.667 173.833,196.333 174.5,196C 173.263,195.768 172.263,195.268 171.5,194.5 Z"/></g>
</svg>
