<svg width="256" height="256" viewBox="0 0 256 256" fill="none" xmlns="http://www.w3.org/2000/svg">
<g clip-path="url(#clip0_10265_135978)">
<path d="M242.656 182.333C234.245 223.182 177.734 246.104 116.375 233.531C55.0416 220.932 12.0989 177.651 20.5052 136.802C28.8802 95.9428 85.4271 72.9845 146.766 85.5886C208.109 98.1511 251.016 141.469 242.656 182.333Z" fill="#B78800"/>
<path d="M242.656 182.333L248.734 152.729L230.87 164.495L242.656 182.333Z" fill="#B78800"/>
<path d="M26.5938 107.198L20.5052 136.802L38.3542 125.084L26.5938 107.198Z" fill="#B78800"/>
<path d="M248.734 152.73C240.344 193.573 183.823 216.49 122.469 203.938C61.1198 191.375 18.2083 148.047 26.5937 107.198C34.9896 66.3494 91.4896 43.4692 152.839 56.0317C214.182 68.589 257.104 111.86 248.734 152.73Z" fill="#FAD300"/>
<path d="M226.271 148.13C227.193 143.255 227.297 138.219 226.448 133.354C225.588 128.484 223.943 123.76 221.609 119.401C216.979 110.651 210.151 103.265 202.51 97.1873C194.781 91.1196 186.203 86.1873 177.245 82.2342C168.234 78.3071 158.885 75.3175 149.255 73.4165C139.667 71.4946 129.844 70.5727 120.083 70.6925C110.307 70.8332 100.531 72.2029 91.2083 74.9686C81.8802 77.8488 72.927 82.0623 65.4895 88.2238C61.802 91.3227 58.4895 94.8488 55.8281 98.8592C53.1718 102.87 51.2499 107.291 50.1458 112.083C48.0156 121.432 49.5416 131.656 53.8281 140.479C58.1249 149.354 64.6874 157.041 72.276 163.406C79.8593 169.771 88.5677 174.765 97.6041 178.666C106.698 182.531 116.213 185.281 125.943 187.078C145.193 190.713 165.312 190.776 184.354 185.682C193.812 183.104 202.937 178.974 210.661 172.765C214.542 169.666 217.906 165.953 220.641 161.818C223.333 157.666 225.229 153.005 226.271 148.13ZM226.745 148.245C224.807 158.125 218.979 167.005 211.526 173.739C204.01 180.562 194.865 185.385 185.281 188.708C175.641 192.047 165.526 193.771 155.344 194.104C145.151 194.416 135.016 193.364 125.052 191.172C105.318 186.724 86.4791 177.802 71.177 164.677C63.5989 158.094 56.8958 150.276 52.2968 141.219C50.0416 136.708 48.3385 131.844 47.4322 126.833C46.5208 121.771 46.5312 116.578 47.4583 111.469C49.2656 101.302 55.0989 91.9582 62.8854 85.1717C70.6562 78.3332 80.0416 73.5519 89.7864 70.4738C109.396 64.2967 130.432 64.0311 150.354 68.1457C170.156 72.3644 189.547 80.8904 204.651 94.6665C212.13 101.515 218.656 109.547 222.865 118.812C227.052 127.901 228.901 138.364 226.745 148.245Z" fill="#D3A300"/>
<path d="M76.2865 240.739L105.859 130.151L0 86.3538L110.677 115.849L154.578 10.0986L125.01 120.687L230.87 164.494L120.156 134.979L76.2865 240.739Z" fill="white"/>
<path d="M137.708 170.552L114.016 129.593L70.2656 147.713L111.229 124.01L93.1406 80.2861L116.865 121.26L160.604 103.14L119.641 126.838L137.708 170.552Z" fill="white"/>
<path d="M185.844 124.047C185.26 120.765 184.276 117.776 183.094 115.021C181.911 112.265 180.536 109.739 179.135 107.302C175.964 101.797 172.375 96.4632 168.193 91.6091C164.016 86.7549 159.224 82.3799 153.667 78.8538C151.161 77.2705 148.354 75.8122 145.344 74.4945C140.828 72.5205 135.854 70.859 130.792 69.6663C125.724 68.4788 120.578 67.7601 115.667 67.7549C113.479 67.7549 111.339 67.8955 109.255 68.2288C108.995 68.1195 108.734 68.0153 108.474 67.9268C107.208 67.4945 105.969 67.333 104.849 67.333C103.578 67.333 102.448 67.5309 101.458 67.8174C100.958 67.958 100.495 68.1247 100.052 68.307C99.6093 68.4945 99.1927 68.6976 98.7812 68.932C97.2239 69.833 95.3802 70.9424 93.4635 72.2913C92.0208 73.3018 90.5416 74.4528 89.1041 75.7705C86.9479 77.7497 84.875 80.109 83.2812 83.0049C82.4895 84.4476 81.8229 86.0257 81.3593 87.7236C80.8906 89.4215 80.6354 91.2393 80.6354 93.1195C80.6354 94.3122 80.7343 95.5309 80.9479 96.7601C81.0729 97.4945 81.3125 98.1507 81.6979 98.7913C82.3958 99.958 83.2291 100.869 83.9895 101.567C84.5625 102.088 85.0989 102.505 85.5625 102.854C86 103.172 86.375 103.442 86.677 103.661C87.177 108.646 87.6979 114.541 88.2864 120.828C88.9687 128.052 89.75 135.802 90.7448 143.369C90.8437 144.135 90.9739 144.953 91.125 145.833C91.3854 147.375 91.7135 149.093 92.0573 150.901C92.5729 153.604 93.125 156.489 93.5364 159.062C93.7395 160.349 93.9114 161.552 94.026 162.593C94.1406 163.63 94.1979 164.515 94.1979 165.067C94.1979 165.229 94.1927 165.359 94.1875 165.453C94.1823 165.494 94.1823 165.531 94.177 165.552C94.177 165.562 94.177 165.573 94.177 165.578C94.151 165.755 94.0937 165.968 93.9583 166.328C93.8541 166.588 93.6979 166.927 93.5 167.343C93.2031 167.974 92.7864 168.791 92.3854 169.869C92.1875 170.406 91.9948 171.01 91.8437 171.682C91.6927 172.349 91.5885 173.078 91.552 173.854C91.5364 174.229 91.526 174.609 91.526 174.984C91.526 177.588 91.9427 180.062 92.7812 182.323C93.5052 184.297 94.552 186.083 95.8125 187.619C96.9114 188.968 98.1666 190.13 99.5052 191.114C101.854 192.843 104.432 194.062 107.083 194.984C111.057 196.354 115.219 197.073 119.25 197.531C123.276 197.984 127.182 198.161 130.536 198.323C130.63 198.328 130.724 198.333 130.818 198.333C131.333 198.333 131.849 198.265 132.344 198.135C138.74 196.437 145.167 194.062 151.125 190.838C154.099 189.229 156.964 187.401 159.63 185.328C162.302 183.26 164.781 180.942 166.979 178.354C171.99 172.453 176.099 166.453 179.25 159.906C182.401 153.364 184.573 146.307 185.833 138.422C186.25 135.812 186.448 133.338 186.448 130.984C186.448 128.547 186.234 126.234 185.844 124.047Z" fill="white"/>
<path d="M131.344 156.355C141.323 154.261 148.109 148.552 146.302 136.771C145.719 132.99 143.448 127.172 141.599 123.141C138.328 116.021 131.328 110.188 125.786 108.24C127.484 123.584 129.802 142.631 131.344 156.355ZM152.286 139.75C156.276 114.62 141.219 96.3025 121.083 92.4848V98.8754C138.49 105.844 148.286 121.787 152.286 139.75ZM155.703 126.125C158.458 146.792 146.854 161.683 126.641 162.318C125.099 143.594 122.917 125.438 120.229 107.391C119.568 102.959 119.516 98.365 118.521 94.615C118 92.6619 116.323 91.9483 116.813 89.9327H117.667C123.651 88.6983 129.531 90.766 134.333 93.766C143.807 99.6723 154.167 114.579 155.703 126.125Z" fill="black"/>
<path d="M152.286 139.75C148.286 121.786 138.49 105.844 121.083 98.875V92.4844C141.219 96.3021 156.276 114.62 152.286 139.75Z" fill="#65C156"/>
<path d="M142.88 169.552C143.698 171.078 142.76 172.261 141.172 172.537C140.563 171.964 140.563 170.12 141.172 169.552H142.88Z" fill="black"/>
<path d="M135.615 167C136.005 166.109 136.88 165.703 138.182 165.724C138.057 166.411 138.583 166.458 138.609 167C138.552 168.365 137.641 168.875 136.047 168.703C136.005 168.031 136.25 167.078 135.615 167Z" fill="black"/>
<path d="M106.979 177.218C110.505 182.875 122.234 182.682 128.776 182.755C120.453 188.448 110.651 184.156 103.563 180.198C99.1251 174.729 102.089 167.343 104.844 162.317C101.99 148.005 99.7344 129.781 97.5782 112.5C96.9115 107.177 97.4063 101.234 95.8646 97.5934C94.9011 95.3122 90.8959 93.5205 90.3126 91.208C89.448 87.7809 92.7292 85.3851 93.3021 82.6924C94.3803 87.8643 96.9167 91.583 102.708 92.0622C105.719 117.364 110.266 140.161 114.245 163.593C107.396 164.531 103.703 171.958 106.979 177.218Z" fill="#65C156"/>
<path d="M103.135 75.8806C104.344 77.016 105.719 77.2295 107.208 77.0733C107.276 77.0681 107.344 77.0577 107.411 77.0525C107.687 77.016 107.969 76.9691 108.255 76.917C108.323 76.9014 108.396 76.8858 108.469 76.8754C108.505 76.865 108.536 76.8597 108.573 76.8493C108.682 76.8285 108.786 76.8077 108.896 76.7816C109.042 76.7504 109.187 76.7191 109.333 76.6827C109.479 76.6514 109.625 76.615 109.771 76.5785C109.88 76.5525 109.99 76.5264 110.099 76.5004C110.177 76.4795 110.25 76.4639 110.323 76.4483C110.474 76.4118 110.62 76.3754 110.771 76.3389C110.844 76.3233 110.917 76.3077 110.995 76.2868C111.104 76.2608 111.219 76.24 111.333 76.2139C111.406 76.1983 111.484 76.1827 111.557 76.167C111.672 76.141 111.786 76.1202 111.901 76.0941C112.052 76.0681 112.203 76.0368 112.354 76.016C112.432 76.0004 112.51 75.99 112.583 75.9795C112.698 75.9587 112.812 75.9431 112.932 75.9275C113.083 75.9118 113.24 75.8962 113.391 75.8806C128.536 74.5525 144.349 84.6723 153.141 90.3598C157.297 96.0004 162.417 100.198 166.391 106.11C180.214 126.677 170.38 161.021 151.859 172.537C141.682 178.865 120.594 184.089 108.26 174.667C107.458 168.177 113.089 166.037 117.24 167C117.505 161.438 115.375 156.23 114.245 150.823C109.859 129.797 108.068 109.813 104.417 89.5056C94.5521 89.6983 93.7239 77.0889 103.135 75.8806ZM118.521 94.615C119.516 98.3702 119.568 102.959 120.229 107.391C122.917 125.438 125.099 143.594 126.641 162.318C146.854 161.683 158.458 146.792 155.703 126.125C154.167 114.579 143.807 99.6723 134.333 93.766C129.531 90.766 123.651 88.6983 117.667 89.9327H116.807C116.323 91.9483 118 92.6618 118.521 94.615ZM136.047 168.704C137.641 168.875 138.552 168.365 138.609 167C138.583 166.459 138.057 166.412 138.182 165.724C136.88 165.704 136.005 166.11 135.615 167C136.25 167.079 136.005 168.032 136.047 168.704ZM141.172 172.537C142.76 172.261 143.698 171.079 142.88 169.552H141.172C140.562 170.12 140.562 171.964 141.172 172.537Z" fill="#85DB79"/>
<path d="M172.802 108.667C177.276 116.438 180.698 123.948 178.786 135.917C176.422 150.698 170.792 161.735 161.26 172.959C153.651 181.927 141.661 187.651 129.63 190.844C116.031 190.193 95.5573 189.302 96.2969 172.537C96.4167 169.73 98.4219 167.802 98.8594 164.875C99.5156 160.474 96.1927 146.74 95.4427 141.026C93.4844 126.131 92.3385 110.292 91.1667 99.2972C89.6302 97.2816 86.9375 96.4118 85.6094 94.1878C83.7031 83.042 94.125 76.1878 100.568 72.4743C101.87 71.7243 104.792 70.9431 106.979 72.9014C118.854 69.9743 138.458 75.4014 149.292 82.266C159.25 88.5785 166.734 98.1358 172.802 108.667ZM90.3125 91.2087C90.8958 93.5212 94.901 95.3128 95.8646 97.5941C97.4063 101.235 96.9115 107.177 97.5781 112.5C99.7344 129.782 101.99 148.006 104.844 162.318C102.089 167.344 99.125 174.73 103.563 180.198C110.651 184.157 120.453 188.448 128.776 182.756C122.234 182.683 110.505 182.875 106.979 177.219C103.703 171.959 107.396 164.532 114.245 163.594C110.266 140.162 105.719 117.365 102.708 92.0628C96.9167 91.5785 94.3802 87.8649 93.3021 82.6931C92.7292 85.3858 89.4479 87.7816 90.3125 91.2087ZM103.135 75.8806C93.724 77.0889 94.5521 89.6931 104.417 89.5056C108.068 109.813 109.859 129.797 114.245 150.823C115.375 156.23 117.505 161.438 117.24 167C113.089 166.037 107.458 168.177 108.26 174.667C120.594 184.089 141.682 178.865 151.859 172.537C170.38 161.021 180.214 126.677 166.391 106.11C162.417 100.198 157.297 96.0003 153.141 90.3597C144.349 84.6722 128.536 74.5524 113.391 75.8806C113.24 75.891 113.083 75.9118 112.932 75.9274C112.813 75.9431 112.698 75.9587 112.583 75.9795C112.51 75.9899 112.432 76.0003 112.354 76.016C112.203 76.0368 112.052 76.0681 111.901 76.0941C111.786 76.1201 111.672 76.141 111.557 76.1618C111.484 76.1774 111.406 76.1983 111.333 76.2139C111.219 76.2399 111.104 76.2608 110.995 76.2868C110.922 76.3076 110.844 76.3233 110.771 76.3389C110.62 76.3753 110.474 76.4118 110.323 76.4483C110.25 76.4639 110.177 76.4795 110.099 76.5003C109.99 76.5264 109.88 76.5524 109.771 76.5785C109.625 76.6149 109.479 76.6514 109.333 76.6826C109.188 76.7191 109.042 76.7503 108.896 76.7816C108.786 76.8076 108.682 76.8285 108.573 76.8493C108.536 76.8597 108.505 76.8649 108.469 76.8753C108.396 76.8858 108.323 76.9014 108.255 76.917C107.969 76.9691 107.693 77.016 107.411 77.0472C107.344 77.0576 107.276 77.0681 107.208 77.0733C105.719 77.2243 104.344 77.016 103.135 75.8806Z" fill="black"/>
</g>
<defs>
<clipPath id="clip0_10265_135978">
<rect width="256" height="256" fill="white"/>
</clipPath>
</defs>
</svg>
