<?xml version="1.0" encoding="UTF-8"?>
<svg xmlns="http://www.w3.org/2000/svg" xmlns:xlink="http://www.w3.org/1999/xlink" width="256px" height="256px" viewBox="0 0 256 256" version="1.1">
<g id="surface1">
<path style=" stroke:none;fill-rule:nonzero;fill:rgb(97.647059%,76.470588%,16.862745%);fill-opacity:1;" d="M 243.199219 128 C 243.199219 191.625 191.625 243.199219 128 243.199219 C 64.375 243.199219 12.800781 191.625 12.800781 128 C 12.800781 64.375 64.375 12.800781 128 12.800781 C 191.625 12.800781 243.199219 64.375 243.199219 128 Z M 243.199219 128 "/>
<path style=" stroke:none;fill-rule:nonzero;fill:rgb(10.588235%,99.607843%,84.313725%);fill-opacity:1;" d="M 128 252 C 59.199219 252 4 196 4 128 C 4 60 59.199219 4 128 4 C 196.800781 4 252 60 252 128 C 252 196 196.800781 252 128 252 Z M 128 22.398438 C 69.601562 22.398438 22.398438 69.601562 22.398438 128 C 22.398438 186.398438 69.601562 233.601562 128 233.601562 C 186.398438 233.601562 233.601562 186.398438 233.601562 128 C 233.601562 69.601562 186.398438 22.398438 128 22.398438 Z M 128 22.398438 "/>
<path style=" stroke:none;fill-rule:nonzero;fill:rgb(100%,100%,100%);fill-opacity:1;" d="M 129.601562 168 L 104.800781 168 L 100 153.601562 L 76 153.601562 L 72 168 L 48 168 L 77.601562 86.398438 L 100.800781 86.398438 Z M 95.199219 136 L 93.601562 130.398438 C 90.398438 120 89.601562 115.199219 88 109.601562 C 87.199219 115.199219 85.601562 120 82.398438 130.398438 L 81.601562 136 Z M 95.199219 136 "/>
<path style=" stroke:none;fill-rule:nonzero;fill:rgb(100%,100%,100%);fill-opacity:1;" d="M 208.800781 133.601562 C 208.800781 159.199219 193.601562 169.601562 172.800781 169.601562 C 152 169.601562 136.800781 159.199219 136.800781 133.601562 L 136.800781 86.398438 L 160 86.398438 L 160 133.601562 C 160 144 164 149.601562 172.800781 149.601562 C 181.601562 149.601562 185.601562 143.199219 185.601562 133.601562 L 185.601562 86.398438 L 208.800781 86.398438 Z M 208.800781 133.601562 "/>
</g>
</svg>
