<svg version="1.1" id="Layer_1" xmlns="http://www.w3.org/2000/svg" xmlns:xlink="http://www.w3.org/1999/xlink" x="0px" y="0px"
	 width="100%" viewBox="0 0 256 256" enable-background="new 0 0 256 256" xml:space="preserve">
<path fill="#071424" opacity="1.000000" stroke="none" 
	d="
M169.000000,257.000000 
	C112.666672,257.000000 56.833340,257.000000 1.000008,257.000000 
	C1.000005,171.666672 1.000005,86.333351 1.000003,1.000019 
	C86.333321,1.000013 171.666641,1.000013 257.000000,1.000006 
	C257.000000,86.333313 257.000000,171.666626 257.000000,256.999969 
	C227.833328,257.000000 198.666672,257.000000 169.000000,257.000000 
M143.079681,181.545242 
	C142.999496,182.717911 142.919312,183.890579 142.563721,185.758347 
	C142.563721,187.672897 142.563721,189.587463 142.563721,191.489761 
	C143.552567,191.622742 144.055313,191.806519 144.519531,191.736176 
	C169.626709,187.931778 194.479599,160.388885 195.926849,134.059952 
	C195.941147,130.372131 195.955429,126.684311 196.057861,122.162888 
	C195.500443,118.774261 194.943008,115.385628 194.287415,111.199020 
	C193.199417,108.130630 192.111435,105.062233 190.953659,101.307961 
	C190.033615,99.521721 189.113571,97.735489 188.037506,95.254173 
	C161.994720,49.668861 99.417770,51.058659 73.325127,93.278290 
	C72.848778,94.468689 72.372429,95.659096 71.382812,97.333702 
	C70.138771,100.537041 68.894737,103.740379 67.243484,107.532669 
	C66.692345,109.990044 66.141205,112.447418 65.273064,115.600075 
	C64.972824,119.381302 64.672585,123.162537 64.209534,127.813446 
	C65.403351,134.579620 66.597168,141.345810 67.946968,148.835373 
	C76.124367,172.803360 99.864723,190.438370 117.921448,191.305771 
	C117.921448,188.850723 117.921448,186.412048 117.950790,183.267761 
	C117.374031,181.774429 116.797264,180.281113 115.988838,178.154083 
	C110.521286,173.839691 105.155174,169.384827 99.513954,165.310913 
	C98.125641,164.308289 95.840744,164.547195 93.968033,164.215347 
	C94.628593,166.002914 94.839005,168.209564 96.037193,169.496628 
	C99.176231,172.868515 102.746399,175.839066 105.715332,179.403717 
	C105.142799,179.598465 104.570274,179.793198 103.397537,179.649033 
	C101.525772,178.579376 99.562569,177.641708 97.797081,176.418640 
	C86.443954,168.553604 79.116585,157.677155 74.255409,144.056686 
	C73.409668,138.355469 72.563927,132.654251 71.830826,126.080711 
	C72.172394,122.380150 72.513962,118.679581 73.044640,114.245956 
	C73.627251,112.155228 74.209854,110.064507 75.138603,107.354927 
	C76.357185,104.559799 77.575768,101.764671 79.088669,98.391411 
	C79.417580,97.607857 79.746490,96.824310 80.487175,95.517647 
	C85.217964,90.537788 89.347763,84.744850 94.787453,80.724060 
	C114.445099,66.194023 135.619415,64.447060 157.619949,75.249290 
	C168.064560,80.377586 175.446381,88.859474 181.930771,98.985031 
	C182.649628,100.313881 183.368484,101.642738 184.158142,103.719894 
	C185.433716,107.483704 186.709290,111.247520 187.921768,115.855072 
	C188.279785,118.570221 188.637787,121.285362 188.872467,124.867569 
	C188.698730,128.229050 188.524994,131.590515 188.106918,135.730362 
	C186.235916,146.983475 181.914078,157.168701 174.415695,165.811569 
	C169.054932,171.990585 163.359482,177.876740 154.561417,179.744385 
	C154.334412,179.490768 154.107391,179.237167 153.978271,178.511627 
	C153.978271,178.511627 154.065491,178.037628 154.689560,177.788422 
	C158.377945,174.742783 162.195831,171.834259 165.665573,168.557129 
	C166.556900,167.715286 166.350739,165.711456 166.648758,164.241455 
	C165.188782,164.248672 163.314743,163.670258 162.337921,164.360855 
	C157.100388,168.063828 152.086395,172.082993 146.363205,176.265900 
	C145.370880,177.813446 144.378540,179.360977 143.079681,181.545242 
M83.223282,111.185356 
	C83.199600,111.454582 83.175919,111.723808 82.977554,112.636681 
	C82.985786,113.078339 82.994026,113.519989 82.567291,114.572128 
	C82.009071,116.701141 81.450851,118.830162 80.585869,121.684700 
	C80.779839,125.448776 80.973808,129.212845 81.081123,133.769867 
	C83.887169,147.511353 83.887169,147.511353 97.854843,147.467514 
	C98.021347,147.466995 98.187859,147.466187 98.354362,147.465698 
	C106.151321,147.442398 106.151321,147.442429 109.301300,139.484985 
	C110.894821,136.334610 112.488350,133.184250 114.614059,129.602005 
	C117.342422,124.469788 119.700760,119.085533 122.953293,114.310349 
	C124.610947,111.876678 127.645836,109.659264 130.469955,108.922554 
	C134.093658,107.977257 136.397583,110.987831 138.068802,114.117210 
	C140.955627,119.522896 143.958496,124.866600 146.935135,130.688293 
	C146.935135,130.688293 147.235931,131.026382 147.271927,131.509720 
	C147.404022,131.828323 147.632446,132.045715 148.014664,132.834274 
	C148.780243,134.204651 149.545822,135.575043 150.431366,137.580261 
	C151.309128,139.054535 152.186905,140.528793 153.164200,142.717346 
	C154.481354,144.815918 154.756882,147.802689 158.474197,147.577576 
	C163.070999,147.299271 167.701447,147.604477 172.304886,147.389847 
	C173.566986,147.330994 175.641113,146.552322 175.878937,145.696991 
	C177.129272,141.200241 177.910294,136.572998 178.996536,131.294540 
	C179.291428,130.188339 179.586319,129.082138 180.057938,127.132973 
	C179.725998,124.726913 179.394058,122.320854 179.031891,119.969582 
	C179.031891,119.969582 179.089188,119.944237 179.035339,119.164162 
	C178.658737,117.708580 178.282135,116.252998 177.990677,113.991302 
	C177.519943,111.587845 177.420197,109.034721 176.520477,106.804321 
	C168.456573,86.814095 146.526215,73.619545 125.014122,76.255096 
	C116.554245,77.291557 108.046417,79.108177 101.103920,85.885811 
	C91.762848,91.228111 86.443901,99.660507 83.025970,109.524010 
	C82.936493,109.782204 83.563904,110.288826 83.223282,111.185356 
M139.975372,138.235138 
	C137.615417,133.516754 135.308090,128.771027 132.875961,124.090141 
	C131.392242,121.234573 129.678604,120.760849 128.030975,124.023842 
	C125.870918,128.301697 123.729980,132.589218 121.107788,137.333694 
	C119.622643,140.209900 118.137505,143.086105 116.079605,147.071533 
	C126.105499,147.709213 134.855743,147.598679 144.835648,147.210510 
	C142.738632,143.441208 141.479645,141.178238 139.975372,138.235138 
z"/>
<path fill="#F6BC39" opacity="1.000000" stroke="none" 
	d="
M177.905533,114.797409 
	C178.282135,116.252998 178.658737,117.708580 178.744415,119.379730 
	C168.737076,112.703911 151.202820,118.619492 146.912689,130.236313 
	C143.958496,124.866600 140.955627,119.522896 138.068802,114.117210 
	C136.397583,110.987831 134.093658,107.977257 130.469955,108.922554 
	C127.645836,109.659264 124.610947,111.876678 122.953293,114.310349 
	C119.700760,119.085533 117.342422,124.469788 114.056732,129.642426 
	C109.170105,125.942322 104.918983,122.104279 100.458069,118.527931 
	C99.302612,117.601593 97.437958,116.964081 95.988716,117.106453 
	C90.644333,117.631523 87.810669,114.691063 85.796959,110.115990 
	C86.307045,108.877937 86.744843,107.945183 87.585724,107.007782 
	C94.096367,107.001106 100.210190,107.154533 106.307869,106.908241 
	C108.298264,106.827850 110.921745,106.305000 112.108498,104.966995 
	C122.594887,93.144089 138.067307,93.910027 147.828247,104.401588 
	C151.650208,108.509628 156.294998,109.198631 161.436295,108.830750 
	C165.560745,108.535637 169.688538,108.286888 174.010437,108.306610 
	C175.439194,110.662910 176.672363,112.730164 177.905533,114.797409 
z"/>
<path fill="#6595A1" opacity="1.000000" stroke="none" 
	d="
M181.801910,98.344734 
	C175.446381,88.859474 168.064560,80.377586 157.619949,75.249290 
	C135.619415,64.447060 114.445099,66.194023 94.787453,80.724060 
	C89.347763,84.744850 85.217964,90.537788 79.985596,95.594788 
	C77.623184,94.772911 75.762352,93.873878 73.901527,92.974854 
	C99.417770,51.058659 161.994720,49.668861 187.714966,95.617989 
	C185.528900,96.769447 183.665405,97.557091 181.801910,98.344734 
z"/>
<path fill="#335C70" opacity="1.000000" stroke="none" 
	d="
M154.991516,180.020554 
	C163.359482,177.876740 169.054932,171.990585 174.415695,165.811569 
	C181.914078,157.168701 186.235916,146.983475 188.636841,135.350006 
	C191.367081,134.968491 193.567383,134.967331 195.767700,134.966171 
	C194.479599,160.388885 169.626709,187.931778 144.519531,191.736176 
	C144.055313,191.806519 143.552567,191.622742 142.563721,191.489761 
	C142.563721,189.587463 142.563721,187.672897 143.125687,185.392975 
	C147.991989,184.569534 152.385147,184.311935 154.991516,180.020554 
z"/>
<path fill="#F1B432" opacity="1.000000" stroke="none" 
	d="
M85.724663,110.421288 
	C87.810669,114.691063 90.644333,117.631523 95.988716,117.106453 
	C97.437958,116.964081 99.302612,117.601593 100.458069,118.527931 
	C104.918983,122.104279 109.170105,125.942322 113.790642,129.858368 
	C112.488350,133.184250 110.894821,136.334610 108.692673,139.546478 
	C99.816521,135.827850 91.548996,132.047729 83.026558,128.151047 
	C82.318069,129.990463 81.742928,131.483704 81.167786,132.976929 
	C80.973808,129.212845 80.779839,125.448776 80.846558,121.513657 
	C84.575676,119.610611 84.409721,116.945503 83.002258,113.961647 
	C82.994026,113.519989 82.985786,113.078339 83.232613,112.122734 
	C83.659721,111.314117 83.831772,111.019447 84.276459,110.611115 
	C84.940948,110.472069 85.332802,110.446678 85.724663,110.421288 
z"/>
<path fill="#345D71" opacity="1.000000" stroke="none" 
	d="
M74.407265,144.872147 
	C79.116585,157.677155 86.443954,168.553604 97.797081,176.418640 
	C99.562569,177.641708 101.525772,178.579376 103.838379,180.149719 
	C108.826622,181.758072 113.374039,182.865723 117.921448,183.973373 
	C117.921448,186.412048 117.921448,188.850723 117.921448,191.305771 
	C99.864723,190.438370 76.124367,172.803360 68.182404,148.288086 
	C70.414322,146.784576 72.410789,145.828354 74.407265,144.872147 
z"/>
<path fill="#EAA92B" opacity="1.000000" stroke="none" 
	d="
M81.124451,133.373398 
	C81.742928,131.483704 82.318069,129.990463 83.026558,128.151047 
	C91.548996,132.047729 99.816521,135.827850 108.411301,139.746902 
	C106.151321,147.442429 106.151321,147.442398 98.354362,147.465698 
	C98.187859,147.466187 98.021347,147.466995 97.854843,147.467514 
	C83.887169,147.511353 83.887169,147.511353 81.124451,133.373398 
z"/>
<path fill="#F5E9BD" opacity="1.000000" stroke="none" 
	d="
M177.948105,114.394356 
	C176.672363,112.730164 175.439194,110.662910 173.938141,107.971840 
	C171.556595,104.259041 169.442917,101.170059 167.227951,97.822525 
	C166.055344,96.389046 164.983994,95.214127 163.759521,93.751869 
	C162.065384,92.310654 160.524384,91.156776 158.835327,89.702545 
	C156.174469,87.884392 153.661667,86.366585 150.882324,84.618378 
	C137.945251,78.247169 125.090088,77.985321 111.713806,83.213882 
	C108.947777,84.510422 106.531578,85.770325 103.826691,86.901138 
	C102.969299,86.494949 102.400597,86.217842 101.831894,85.940742 
	C108.046417,79.108177 116.554245,77.291557 125.014122,76.255096 
	C146.526215,73.619545 168.456573,86.814095 176.520477,106.804321 
	C177.420197,109.034721 177.519943,111.587845 177.948105,114.394356 
z"/>
<path fill="#F3B733" opacity="1.000000" stroke="none" 
	d="
M146.923920,130.462311 
	C151.202820,118.619492 168.737076,112.703911 178.771332,119.769775 
	C179.089188,119.944237 179.031891,119.969582 179.034515,120.350052 
	C179.025177,121.818619 179.013199,122.906715 178.609619,124.026672 
	C174.850037,124.739494 171.498749,125.521278 168.110733,126.080765 
	C160.691406,127.305946 155.856201,132.691360 150.311417,136.945419 
	C149.545822,135.575043 148.780243,134.204651 147.878204,132.301132 
	C147.592148,131.507812 147.423553,131.260605 147.235931,131.026382 
	C147.235931,131.026382 146.935135,130.688293 146.923920,130.462311 
z"/>
<path fill="#EAA92B" opacity="1.000000" stroke="none" 
	d="
M178.854279,131.991074 
	C177.910294,136.572998 177.129272,141.200241 175.878937,145.696991 
	C175.641113,146.552322 173.566986,147.330994 172.304886,147.389847 
	C167.701447,147.604477 163.070999,147.299271 158.474197,147.577576 
	C154.756882,147.802689 154.481354,144.815918 153.495468,142.327209 
	C156.683640,140.768204 159.529648,139.571793 162.399780,138.436417 
	C167.877350,136.269592 173.368668,134.137558 178.854279,131.991074 
z"/>
<path fill="#EFB12F" opacity="1.000000" stroke="none" 
	d="
M178.925415,131.642807 
	C173.368668,134.137558 167.877350,136.269592 162.399780,138.436417 
	C159.529648,139.571793 156.683640,140.768204 153.445709,141.970062 
	C152.186905,140.528793 151.309128,139.054535 150.371399,137.262848 
	C155.856201,132.691360 160.691406,127.305946 168.110733,126.080765 
	C171.498749,125.521278 174.850037,124.739494 178.614548,124.375839 
	C179.301147,125.787407 179.591187,126.881668 179.881226,127.975929 
	C179.586319,129.082138 179.291428,130.188339 178.925415,131.642807 
z"/>
<path fill="#EBAF32" opacity="1.000000" stroke="none" 
	d="
M140.220673,138.915268 
	C141.479645,141.178238 142.738632,143.441208 144.835648,147.210510 
	C134.855743,147.598679 126.105499,147.709213 116.079605,147.071533 
	C118.137505,143.086105 119.622643,140.209900 121.747688,137.149200 
	C128.118484,139.566528 133.918747,141.534134 140.220673,138.915268 
z"/>
<path fill="#EFB639" opacity="1.000000" stroke="none" 
	d="
M140.098022,138.575195 
	C133.918747,141.534134 128.118484,139.566528 121.984207,136.918640 
	C123.729980,132.589218 125.870918,128.301697 128.030975,124.023842 
	C129.678604,120.760849 131.392242,121.234573 132.875961,124.090141 
	C135.308090,128.771027 137.615417,133.516754 140.098022,138.575195 
z"/>
<path fill="#3A6273" opacity="1.000000" stroke="none" 
	d="
M74.331337,144.464417 
	C72.410789,145.828354 70.414322,146.784576 68.104416,147.926392 
	C66.597168,141.345810 65.403351,134.579620 64.624054,127.356293 
	C67.265106,126.917107 69.491646,126.935074 71.718185,126.953041 
	C72.563927,132.654251 73.409668,138.355469 74.331337,144.464417 
z"/>
<path fill="#568490" opacity="1.000000" stroke="none" 
	d="
M106.144730,178.969574 
	C102.746399,175.839066 99.176231,172.868515 96.037193,169.496628 
	C94.839005,168.209564 94.628593,166.002914 93.968033,164.215347 
	C95.840744,164.547195 98.125641,164.308289 99.513954,165.310913 
	C105.155174,169.384827 110.521286,173.839691 115.785477,178.701141 
	C112.436325,179.155319 109.290527,179.062439 106.144730,178.969574 
z"/>
<path fill="#568490" opacity="1.000000" stroke="none" 
	d="
M146.995178,175.992920 
	C152.086395,172.082993 157.100388,168.063828 162.337921,164.360855 
	C163.314743,163.670258 165.188782,164.248672 166.648758,164.241455 
	C166.350739,165.711456 166.556900,167.715286 165.665573,168.557129 
	C162.195831,171.834259 158.377945,174.742783 154.030365,177.763306 
	C151.245834,177.156418 149.120499,176.574661 146.995178,175.992920 
z"/>
<path fill="#ECE7DF" opacity="1.000000" stroke="none" 
	d="
M101.467911,85.913277 
	C102.400597,86.217842 102.969299,86.494949 103.758102,87.079193 
	C103.978210,87.386345 103.907059,87.761307 103.585640,87.873268 
	C101.835144,89.319382 100.406059,90.653534 98.681656,92.123276 
	C96.917435,93.836250 95.448540,95.413635 93.733620,97.118904 
	C92.848053,97.896858 92.208519,98.546928 91.352066,99.479446 
	C89.817635,102.178734 88.500130,104.595581 87.182632,107.012428 
	C86.744843,107.945183 86.307045,108.877937 85.796959,110.115990 
	C85.332802,110.446678 84.940948,110.472069 84.245140,110.583038 
	C83.941193,110.668625 83.856995,110.679588 83.856995,110.679588 
	C83.563904,110.288826 82.936493,109.782204 83.025970,109.524010 
	C86.443901,99.660507 91.762848,91.228111 101.467911,85.913277 
z"/>
<path fill="#45707F" opacity="1.000000" stroke="none" 
	d="
M71.774506,126.516876 
	C69.491646,126.935074 67.265106,126.917107 64.705460,126.921448 
	C64.672585,123.162537 64.972824,119.381302 65.894440,115.272339 
	C68.629051,114.956070 70.742287,114.967545 72.855530,114.979019 
	C72.513962,118.679581 72.172394,122.380150 71.774506,126.516876 
z"/>
<path fill="#3F6978" opacity="1.000000" stroke="none" 
	d="
M195.847275,134.513062 
	C193.567383,134.967331 191.367081,134.968491 188.759018,134.960815 
	C188.524994,131.590515 188.698730,128.229050 189.315582,124.355881 
	C191.829041,123.561623 193.899384,123.279053 195.969727,122.996490 
	C195.955429,126.684311 195.941147,130.372131 195.847275,134.513062 
z"/>
<path fill="#568490" opacity="1.000000" stroke="none" 
	d="
M191.023453,101.993835 
	C192.111435,105.062233 193.199417,108.130630 193.923706,111.596565 
	C191.701614,112.999855 189.843231,114.005600 187.984863,115.011337 
	C186.709290,111.247520 185.433716,107.483704 184.517303,103.344467 
	C186.925461,102.643974 188.974457,102.318901 191.023453,101.993835 
z"/>
<path fill="#45707F" opacity="1.000000" stroke="none" 
	d="
M187.953308,115.433205 
	C189.843231,114.005600 191.701614,112.999855 193.972778,111.995560 
	C194.943008,115.385628 195.500443,118.774261 196.013794,122.579681 
	C193.899384,123.279053 191.829041,123.561623 189.377258,123.922348 
	C188.637787,121.285362 188.279785,118.570221 187.953308,115.433205 
z"/>
<path fill="#568490" opacity="1.000000" stroke="none" 
	d="
M78.794357,98.969536 
	C77.575768,101.764671 76.357185,104.559799 74.586555,107.577866 
	C71.906570,107.515106 69.778641,107.229416 67.650703,106.943718 
	C68.894737,103.740379 70.138771,100.537041 71.865807,97.390915 
	C74.497314,97.955254 76.645836,98.462395 78.794357,98.969536 
z"/>
<path fill="#507C89" opacity="1.000000" stroke="none" 
	d="
M67.447098,107.238190 
	C69.778641,107.229416 71.906570,107.515106 74.413483,107.887299 
	C74.209854,110.064507 73.627251,112.155228 72.950089,114.612488 
	C70.742287,114.967545 68.629051,114.956070 66.052933,114.924698 
	C66.141205,112.447418 66.692345,109.990044 67.447098,107.238190 
z"/>
<path fill="#63929F" opacity="1.000000" stroke="none" 
	d="
M190.988556,101.650894 
	C188.974457,102.318901 186.925461,102.643974 184.481903,102.970314 
	C183.368484,101.642738 182.649628,100.313881 181.866333,98.664879 
	C183.665405,97.557091 185.528900,96.769447 187.792969,95.965530 
	C189.113571,97.735489 190.033615,99.521721 190.988556,101.650894 
z"/>
<path fill="#45707F" opacity="1.000000" stroke="none" 
	d="
M105.930031,179.186646 
	C109.290527,179.062439 112.436325,179.155319 115.901306,179.017990 
	C116.797264,180.281113 117.374031,181.774429 117.936119,183.620575 
	C113.374039,182.865723 108.826622,181.758072 104.138474,180.319183 
	C104.570274,179.793198 105.142799,179.598465 105.930031,179.186646 
z"/>
<path fill="#45707F" opacity="1.000000" stroke="none" 
	d="
M154.776459,179.882477 
	C152.385147,184.311935 147.991989,184.569534 143.263397,185.045441 
	C142.919312,183.890579 142.999496,182.717911 143.680344,181.232590 
	C147.480804,180.274475 150.680588,179.629013 153.880386,178.983551 
	C154.107391,179.237167 154.334412,179.490768 154.776459,179.882477 
z"/>
<path fill="#63929F" opacity="1.000000" stroke="none" 
	d="
M78.941513,98.680473 
	C76.645836,98.462395 74.497314,97.955254 72.122437,97.148804 
	C72.372429,95.659096 72.848778,94.468689 73.613327,93.126572 
	C75.762352,93.873878 77.623184,94.772911 79.779709,95.856346 
	C79.746490,96.824310 79.417580,97.607857 78.941513,98.680473 
z"/>
<path fill="#507C89" opacity="1.000000" stroke="none" 
	d="
M153.929321,178.747589 
	C150.680588,179.629013 147.480804,180.274475 143.833618,180.914230 
	C144.378540,179.360977 145.370880,177.813446 146.679184,176.129410 
	C149.120499,176.574661 151.245834,177.156418 153.718323,177.887909 
	C154.065491,178.037628 153.978271,178.511627 153.929321,178.747589 
z"/>
<path fill="#F6BC39" opacity="1.000000" stroke="none" 
	d="
M82.784775,114.266891 
	C84.409721,116.945503 84.575676,119.610611 80.999939,121.150894 
	C81.450851,118.830162 82.009071,116.701141 82.784775,114.266891 
z"/>
<path fill="#F6BC39" opacity="1.000000" stroke="none" 
	d="
M179.969574,127.554451 
	C179.591187,126.881668 179.301147,125.787407 179.006165,124.343979 
	C179.013199,122.906715 179.025177,121.818619 179.049637,120.322662 
	C179.394058,122.320854 179.725998,124.726913 179.969574,127.554451 
z"/>
<path fill="#F6BC39" opacity="1.000000" stroke="none" 
	d="
M147.253937,131.268051 
	C147.423553,131.260605 147.592148,131.507812 147.849457,131.964935 
	C147.632446,132.045715 147.404022,131.828323 147.253937,131.268051 
z"/>
<path fill="#F6BC39" opacity="1.000000" stroke="none" 
	d="
M83.540138,110.932472 
	C83.856995,110.679588 83.941193,110.668625 83.972504,110.696701 
	C83.831772,111.019447 83.659721,111.314117 83.319962,111.800911 
	C83.175919,111.723808 83.199600,111.454582 83.540138,110.932472 
z"/>
<path fill="#F9C13F" opacity="1.000000" stroke="none" 
	d="
M87.585724,107.007782 
	C88.500130,104.595581 89.817635,102.178734 91.681229,99.812698 
	C100.397781,102.457413 108.352684,101.364624 115.679153,97.427368 
	C125.588936,92.101845 134.850632,92.409149 144.846344,97.572273 
	C149.947281,100.207069 156.184860,100.732391 161.969528,101.913101 
	C164.766983,102.484077 166.791809,101.108437 167.329224,98.081085 
	C169.442917,101.170059 171.556595,104.259041 173.742554,107.682793 
	C169.688538,108.286888 165.560745,108.535637 161.436295,108.830750 
	C156.294998,109.198631 151.650208,108.509628 147.828247,104.401588 
	C138.067307,93.910027 122.594887,93.144089 112.108498,104.966995 
	C110.921745,106.305000 108.298264,106.827850 106.307869,106.908241 
	C100.210190,107.154533 94.096367,107.001106 87.585724,107.007782 
z"/>
<path fill="#FBC546" opacity="1.000000" stroke="none" 
	d="
M167.227951,97.822525 
	C166.791809,101.108437 164.766983,102.484077 161.969528,101.913101 
	C156.184860,100.732391 149.947281,100.207069 144.846344,97.572273 
	C134.850632,92.409149 125.588936,92.101845 115.679153,97.427368 
	C108.352684,101.364624 100.397781,102.457413 91.898148,99.530258 
	C92.208519,98.546928 92.848053,97.896858 94.110672,97.196983 
	C99.731674,96.800323 104.764542,96.695679 109.709610,95.982391 
	C111.577606,95.712929 113.242699,94.036835 115.332657,93.000381 
	C116.108208,92.996773 116.551376,92.994713 117.351974,92.986038 
	C118.807411,92.322044 119.905411,91.664673 121.471130,91.006302 
	C127.624420,91.006203 133.309998,91.007111 139.128204,91.323593 
	C141.843323,92.755890 144.425812,93.872589 147.339783,94.988945 
	C148.113235,94.988579 148.555191,94.988571 149.300980,95.215988 
	C151.666122,95.958580 153.715607,96.826385 155.791885,96.896080 
	C158.173874,96.976036 161.437790,98.135208 162.321350,94.009476 
	C163.064041,94.022850 163.488358,94.031021 163.912659,94.039200 
	C164.983994,95.214127 166.055344,96.389046 167.227951,97.822525 
z"/>
<path fill="#FBCC55" opacity="1.000000" stroke="none" 
	d="
M163.759521,93.751862 
	C163.488358,94.031021 163.064041,94.022850 161.914276,94.005844 
	C159.590744,93.792892 157.959106,93.283279 156.402313,93.454422 
	C153.907852,93.728630 151.462982,94.453926 148.997162,94.988556 
	C148.555191,94.988571 148.113235,94.988579 147.241928,94.646866 
	C144.206924,93.206100 141.601242,92.107056 138.995575,91.008011 
	C133.309998,91.007111 127.624420,91.006203 121.113785,91.012375 
	C119.190659,91.677177 118.092606,92.334915 116.994553,92.992645 
	C116.551376,92.994713 116.108208,92.996773 115.012329,92.793793 
	C112.767662,92.591286 111.172852,92.656334 109.584351,92.583572 
	C106.046883,92.421516 102.512573,92.190559 98.976982,91.987686 
	C100.406059,90.653534 101.835144,89.319382 103.754135,88.231018 
	C107.036972,88.790886 110.221626,90.127655 112.552315,89.234940 
	C120.869179,86.049377 129.090988,86.816254 137.549820,88.034966 
	C144.641647,89.056732 151.834991,89.373802 158.983398,90.002899 
	C160.524384,91.156776 162.065384,92.310654 163.759521,93.751862 
z"/>
<path fill="#FBD363" opacity="1.000000" stroke="none" 
	d="
M158.835327,89.702545 
	C151.834991,89.373802 144.641647,89.056732 137.549820,88.034966 
	C129.090988,86.816254 120.869179,86.049377 112.552315,89.234940 
	C110.221626,90.127655 107.036972,88.790886 104.075546,88.119049 
	C103.907059,87.761307 103.978210,87.386345 104.046791,87.208282 
	C106.531578,85.770325 108.947777,84.510422 112.005730,83.439301 
	C116.516083,84.033859 120.376595,84.647789 124.255119,84.798813 
	C130.796753,85.053520 137.349625,85.045067 143.898148,85.083687 
	C146.314499,85.097939 148.731934,84.932343 151.148865,84.848770 
	C153.661667,86.366585 156.174469,87.884392 158.835327,89.702545 
z"/>
<path fill="#FBDC73" opacity="1.000000" stroke="none" 
	d="
M150.882324,84.618378 
	C148.731934,84.932343 146.314499,85.097939 143.898148,85.083687 
	C137.349625,85.045067 130.796753,85.053520 124.255119,84.798813 
	C120.376595,84.647789 116.516083,84.033859 112.355560,83.402664 
	C125.090088,77.985321 137.945251,78.247169 150.882324,84.618378 
z"/>
<path fill="#FAC84D" opacity="1.000000" stroke="none" 
	d="
M98.681656,92.123276 
	C102.512573,92.190559 106.046883,92.421516 109.584351,92.583572 
	C111.172852,92.656334 112.767662,92.591286 114.679947,92.795349 
	C113.242699,94.036835 111.577606,95.712929 109.709610,95.982391 
	C104.764542,96.695679 99.731674,96.800323 94.356705,97.069099 
	C95.448540,95.413635 96.917435,93.836250 98.681656,92.123276 
z"/>
<path fill="#FAC84D" opacity="1.000000" stroke="none" 
	d="
M149.300980,95.215988 
	C151.462982,94.453926 153.907852,93.728630 156.402313,93.454422 
	C157.959106,93.283279 159.590744,93.792892 161.595871,94.000641 
	C161.437790,98.135208 158.173874,96.976036 155.791885,96.896080 
	C153.715607,96.826385 151.666122,95.958580 149.300980,95.215988 
z"/>
<path fill="#FAC84D" opacity="1.000000" stroke="none" 
	d="
M139.128204,91.323593 
	C141.601242,92.107056 144.206924,93.206100 146.910461,94.647217 
	C144.425812,93.872589 141.843323,92.755890 139.128204,91.323593 
z"/>
<path fill="#FAC84D" opacity="1.000000" stroke="none" 
	d="
M117.351982,92.986038 
	C118.092606,92.334915 119.190659,91.677177 120.646065,91.013367 
	C119.905411,91.664673 118.807411,92.322044 117.351982,92.986038 
z"/>
</svg>