<svg width="256" height="256" viewBox="0 0 256 256" fill="none" xmlns="http://www.w3.org/2000/svg">
<circle cx="128" cy="128" r="128" fill="#FDB714"/>
<path fill-rule="evenodd" clip-rule="evenodd" d="M246 128C246 193.17 193.17 246 128 246C62.8304 246 10 193.17 10 128C10 62.8304 62.8304 10 128 10C193.17 10 246 62.8304 246 128ZM128 242C190.96 242 242 190.96 242 128C242 65.0395 190.96 14 128 14C65.0395 14 14 65.0395 14 128C14 190.96 65.0395 242 128 242Z" fill="#BA7A2A"/>
<path d="M101.419 196.403C100.827 196.403 100.412 196.347 100.011 196.347C97.6807 196.347 95.3506 196.347 93.0205 196.298C92.5277 196.298 92.0279 196.206 91.5351 196.164C91.2043 196.164 90.8734 196.101 90.5426 196.101C89.4162 196.101 88.2969 196.101 87.1706 196.065C86.2986 196.098 85.4256 196.039 84.566 195.889C84.0289 195.824 83.4872 195.806 82.9469 195.833C80.5464 195.742 78.1459 195.643 75.7525 195.368C75.4216 195.326 75.0837 195.368 74.7529 195.333C73.755 195.387 72.7544 195.314 71.7751 195.115C71.6512 195.101 71.526 195.101 71.402 195.115C69.9941 195.023 68.5017 194.988 67.0586 194.819C65.6953 194.699 64.3468 194.446 63.032 194.066C62.3292 193.869 61.7022 193.465 61.2325 192.906C60.7629 192.347 60.4725 191.66 60.3992 190.934C60.2481 189.237 60.1846 187.533 60.2092 185.83C60.2092 182.423 60.2092 179.009 60.1669 175.594C60.1669 174.144 59.8783 172.701 59.9628 171.244C59.9829 170.622 60.0559 170.002 60.181 169.393C60.407 168.417 60.8937 167.522 61.5889 166.802C62.4881 165.928 63.637 165.354 64.8764 165.162C65.7683 164.976 66.6757 164.875 67.5866 164.859C69.2409 164.768 70.8952 164.641 72.5143 164.437C73.6963 164.318 74.8712 164.137 76.0341 163.895C76.1991 163.872 76.3617 163.834 76.5198 163.782C77.1745 163.529 77.3786 163.289 77.3786 162.585C77.3786 160.086 77.3786 157.594 77.3786 155.095C77.3786 149.684 77.3786 144.273 77.3786 138.862C77.3423 138.199 77.3944 137.533 77.5335 136.884C77.5901 136.554 77.6043 136.218 77.5757 135.884C77.5757 121.862 77.5757 107.836 77.5757 93.8089C77.5757 93.5203 77.5757 93.2247 77.5757 92.936C77.5808 92.6396 77.4743 92.3522 77.2775 92.1305C77.0806 91.9089 76.8077 91.7693 76.5127 91.7393C75.8088 91.6056 75.1048 91.5352 74.4009 91.4577C72.993 91.2958 71.5147 91.155 70.0786 91.0072H69.8252C68.4595 90.9157 67.1009 90.796 65.7352 90.7256C64.1433 90.6717 62.6129 90.0981 61.3777 89.0924C60.9212 88.7263 60.5468 88.2682 60.2788 87.7479C60.0107 87.2276 59.8551 86.6568 59.822 86.0725C59.3785 79.3849 59.6319 72.6974 59.5826 65.9957C59.6079 65.1243 59.8166 64.2679 60.1951 63.4826C60.8568 61.9198 62.131 61.3074 63.7149 61.0047C64.9455 60.8045 66.1928 60.7267 67.4388 60.7724C70.7614 60.7724 74.0771 60.3922 77.4068 60.4837C79.054 60.1599 80.7435 60.4837 82.3696 60.2092C84.1507 59.9487 85.9457 60.2092 87.7056 59.815C87.9947 59.7749 88.2871 59.7631 88.5785 59.7798C89.6565 59.7819 90.7335 59.7137 91.8026 59.5756C92.6732 59.4968 93.5477 59.4709 94.4213 59.4982C95.4984 59.4489 96.5332 59.3293 97.6455 59.28C98.6856 59.3143 99.7268 59.2884 100.764 59.2026C102.209 59.0561 103.662 58.9903 105.114 59.0054C105.987 59.0408 106.861 58.977 107.719 58.8154C108.051 58.7763 108.387 58.7763 108.719 58.8154C110.422 58.8154 112.126 58.8154 113.836 58.7802C114.708 58.8224 115.582 58.7657 116.441 58.6112C116.855 58.5651 117.273 58.5651 117.687 58.6112L150.597 58.4282C152.35 58.4282 152.047 58.5408 152.835 57.0203C153.209 56.3163 153.631 55.5631 154.018 54.831C154.135 54.6095 154.301 54.4176 154.504 54.27C154.706 54.1224 154.94 54.023 155.187 53.9792C155.793 53.8419 156.41 53.7594 157.031 53.7328C159.53 53.7328 162.036 53.6061 164.521 53.7328C169.385 54.0215 174.25 53.8243 179.107 53.9159C180.445 53.9159 181.071 54.7958 180.642 56.07C180.17 57.4779 179.656 58.8858 179.128 60.2937C178.079 63.1095 177.016 65.8831 175.946 68.6778C175.651 69.4521 175.341 70.2265 175.052 71.0008C174.878 71.4238 174.728 71.8563 174.602 72.2961C174.546 72.4769 174.541 72.67 174.59 72.853C174.639 73.0361 174.738 73.2017 174.876 73.3309C175.059 73.4999 175.228 73.6829 175.404 73.8589C176.467 74.9148 177.516 75.9707 178.593 77.0267C180.317 78.7136 181.856 80.5804 183.183 82.595C184.673 84.7498 186.011 87.0056 187.188 89.3459C190.095 95.0967 192.497 101.089 194.369 107.254C194.918 109.08 195.32 110.947 195.573 112.837C195.798 114.393 196.079 115.941 196.276 117.504C196.438 118.912 196.445 120.32 196.6 121.728C197.044 125.712 196.833 129.704 196.783 133.695C196.782 135.346 196.647 136.993 196.382 138.623C196.347 138.87 196.333 139.119 196.34 139.369C196.34 140.699 196.044 142.002 195.903 143.318C195.763 144.634 195.558 145.859 195.34 147.126C194.54 151.584 193.273 155.944 191.56 160.136C190.678 162.334 189.679 164.484 188.568 166.577C187.023 169.524 185.201 172.317 183.127 174.919C182.031 176.322 180.856 177.662 179.607 178.931C177.797 180.669 175.883 182.296 173.877 183.802C171.312 185.785 168.607 187.578 165.781 189.167C164.085 190.124 162.367 191.053 160.586 191.863C158.127 192.983 155.608 193.965 153.04 194.805C150.733 195.527 148.382 196.094 146 196.502C145.029 196.692 144.022 196.699 143.036 196.819C139.263 197.276 135.476 196.959 131.696 197.058C131.238 197.058 130.781 197.058 130.323 197.058C130.072 197.028 129.818 197.093 129.613 197.24C129.407 197.387 129.263 197.606 129.211 197.853C128.943 198.635 128.669 199.423 128.394 200.205C128.314 200.484 128.213 200.757 128.091 201.021C127.963 201.355 127.729 201.638 127.426 201.827C127.122 202.016 126.765 202.102 126.409 202.07C126.163 202.07 125.916 202.07 125.663 202.07H102.974C102.559 202.091 102.143 202.091 101.728 202.07C101.475 202.077 101.224 202.019 100.999 201.902C100.774 201.786 100.582 201.614 100.441 201.403C100.301 201.192 100.216 200.949 100.195 200.696C100.174 200.443 100.217 200.19 100.32 199.958C100.602 199.085 100.94 198.234 101.229 197.368C101.315 197.051 101.378 196.729 101.419 196.403V196.403ZM112.168 131.738C112.168 137.398 112.168 143.06 112.168 148.724C112.168 149.14 112.168 149.555 112.224 149.963C112.281 150.372 112.351 150.956 112.358 151.449C112.358 154.49 112.358 157.524 112.358 160.565C112.358 161.149 112.358 161.733 112.358 162.311C112.338 162.732 112.451 163.148 112.682 163.5C112.805 163.66 112.979 163.772 113.175 163.817C113.3 163.831 113.426 163.803 113.534 163.736C113.641 163.67 113.723 163.57 113.766 163.451C113.822 163.346 113.843 163.219 113.893 163.099C114.294 162.057 114.709 160.987 115.096 159.96C116.26 156.754 117.412 153.549 118.553 150.344C120.003 146.275 121.432 142.199 122.868 138.123C123.931 135.11 124.98 132.09 126.057 129.077C127.657 124.53 129.253 119.982 130.844 115.434C131.998 112.149 133.155 108.864 134.314 105.579C135.628 101.825 136.947 98.0702 138.271 94.3158C138.489 93.6893 138.749 93.0768 138.975 92.4433C139.055 92.2609 139.088 92.0617 139.073 91.8632C139.057 91.6647 138.993 91.4731 138.886 91.3053C138.779 91.1376 138.632 90.9988 138.458 90.9014C138.285 90.8039 138.09 90.7508 137.891 90.7467C137.6 90.7291 137.308 90.7291 137.018 90.7467C135.272 90.7467 133.498 90.7467 131.773 90.7467C127.697 90.6552 123.628 90.8875 119.553 90.5496C117.61 90.3877 115.639 90.5496 113.689 90.5074C113.562 90.5004 113.435 90.5004 113.308 90.5074C113.143 90.5162 112.986 90.5831 112.865 90.6965C112.744 90.8098 112.666 90.9622 112.647 91.1269C112.636 91.251 112.636 91.3758 112.647 91.5C112.647 92.9079 112.647 94.2454 112.647 95.6181C112.647 96.9908 112.464 98.3565 112.457 99.7222C112.414 103.84 112.414 107.965 112.4 112.084C112.4 112.457 112.4 112.837 112.365 113.21C112.323 113.822 112.21 114.442 112.21 115.061C112.161 120.566 112.168 126.149 112.168 131.724V131.738ZM158.27 115.273C157.819 115.441 157.756 115.843 157.622 116.181C157.27 117.11 156.961 118.053 156.616 118.996C155.259 122.657 153.901 126.318 152.54 129.978C150.836 134.533 149.083 139.066 147.415 143.628C145.902 147.76 144.465 151.92 143.008 156.081C142.402 157.709 141.896 159.374 141.495 161.065C141.416 161.253 141.378 161.456 141.386 161.661C141.393 161.865 141.445 162.065 141.537 162.247C142.051 162.494 142.438 162.198 142.811 161.945C143.332 161.607 143.811 161.198 144.339 160.868C146.71 159.318 148.856 157.449 150.717 155.313C151.602 154.324 152.425 153.28 153.18 152.188C155.331 148.97 156.89 145.394 157.784 141.629C158.535 138.569 159.041 135.455 159.298 132.315C159.522 130.501 159.623 128.674 159.6 126.846C159.537 125.557 159.544 124.262 159.6 122.974C159.623 120.982 159.437 118.993 159.044 117.039C159.041 116.706 158.971 116.376 158.838 116.07C158.705 115.764 158.512 115.488 158.27 115.258V115.273Z" fill="#B9792A"/>
</svg>
