<svg id="svg" version="1.1" xmlns="http://www.w3.org/2000/svg" xmlns:xlink="http://www.w3.org/1999/xlink" width="400" height="400" viewBox="0, 0, 400,400"><g id="svgg"><path id="path0" d="M0.000 200.000 L 0.000 400.000 200.000 400.000 L 400.000 400.000 400.000 200.000 L 400.000 0.000 200.000 0.000 L 0.000 0.000 0.000 200.000 M218.000 13.337 C 219.430 13.645,221.950 14.016,223.600 14.162 C 225.250 14.309,227.770 14.686,229.200 15.002 C 230.630 15.317,232.790 15.752,234.000 15.969 C 238.322 16.741,240.629 17.257,242.600 17.890 C 243.700 18.243,245.320 18.663,246.200 18.823 C 247.080 18.983,248.340 19.307,249.000 19.542 C 249.660 19.778,251.550 20.362,253.200 20.841 C 254.850 21.320,257.145 22.047,258.300 22.456 C 264.700 24.724,269.502 26.537,271.400 27.404 C 272.060 27.705,273.500 28.342,274.600 28.818 C 277.316 29.996,286.362 34.484,287.600 35.268 C 288.150 35.617,289.680 36.491,291.000 37.210 C 295.268 39.535,294.487 39.061,301.186 43.390 C 328.747 61.198,352.419 88.232,366.993 118.542 C 371.088 127.057,375.792 139.128,376.758 143.600 C 376.924 144.370,377.276 145.402,377.541 145.894 C 377.806 146.386,378.179 147.556,378.371 148.494 C 378.962 151.384,380.016 155.710,380.588 157.600 C 380.888 158.590,381.239 160.390,381.369 161.600 C 381.498 162.810,381.865 164.520,382.184 165.400 C 382.504 166.280,382.776 167.900,382.789 169.000 C 382.803 170.100,383.090 172.260,383.426 173.800 C 384.945 180.742,385.290 206.103,384.010 216.800 C 382.999 225.257,382.698 227.276,381.981 230.442 C 381.551 232.335,381.200 234.366,381.200 234.955 C 381.200 235.544,380.942 236.643,380.627 237.398 C 380.312 238.152,379.929 239.631,379.778 240.685 C 379.626 241.738,379.254 243.207,378.951 243.949 C 378.648 244.691,378.392 245.681,378.382 246.149 C 378.373 246.617,378.089 247.720,377.751 248.600 C 377.414 249.480,376.981 250.830,376.790 251.600 C 375.099 258.413,366.559 278.714,362.823 284.800 C 362.621 285.130,361.199 287.560,359.665 290.200 C 344.379 316.497,321.329 339.815,294.800 355.820 C 290.308 358.530,278.655 364.558,274.400 366.372 C 272.750 367.076,270.770 367.934,270.000 368.280 C 266.679 369.769,266.108 370.006,264.400 370.596 C 252.696 374.644,247.515 376.181,239.400 378.013 C 232.257 379.626,230.280 380.000,228.890 380.000 C 228.030 380.000,226.444 380.266,225.364 380.592 C 224.284 380.918,221.780 381.292,219.800 381.424 C 217.820 381.556,214.377 381.920,212.149 382.232 C 207.318 382.909,187.083 383.016,183.400 382.383 C 182.080 382.156,178.840 381.800,176.200 381.592 C 173.560 381.383,170.140 380.950,168.600 380.629 C 167.060 380.308,164.720 379.873,163.400 379.663 C 159.678 379.071,154.347 378.024,153.009 377.624 C 152.344 377.425,150.270 376.869,148.400 376.389 C 140.833 374.444,130.265 370.930,124.400 368.410 C 118.908 366.049,117.805 365.553,117.200 365.174 C 116.870 364.967,116.150 364.610,115.600 364.381 C 110.582 362.286,95.032 353.499,91.400 350.706 C 91.180 350.537,90.100 349.771,89.000 349.005 C 84.510 345.876,83.194 344.892,78.600 341.231 C 68.405 333.105,57.085 321.572,47.786 309.836 C 44.995 306.313,37.600 295.800,37.600 295.355 C 37.600 295.278,36.946 294.193,36.146 292.942 C 32.067 286.566,26.427 275.609,23.822 269.000 C 23.215 267.460,22.557 266.029,22.359 265.820 C 22.162 265.611,21.994 265.161,21.986 264.820 C 21.979 264.479,21.625 263.480,21.200 262.600 C 20.775 261.720,20.421 260.763,20.414 260.474 C 20.406 260.185,20.067 259.105,19.661 258.074 C 18.124 254.177,16.877 250.281,15.798 246.000 C 14.949 242.635,14.369 240.452,13.549 237.538 C 13.137 236.074,12.800 234.375,12.800 233.763 C 12.800 233.152,12.544 231.560,12.230 230.226 C 7.931 211.927,8.626 176.147,13.638 157.800 C 14.058 156.260,14.402 154.674,14.401 154.275 C 14.401 153.876,14.752 152.436,15.182 151.075 C 15.612 149.714,16.262 147.520,16.626 146.200 C 17.243 143.963,17.951 141.798,19.174 138.400 C 19.451 137.630,19.951 136.100,20.284 135.000 C 20.618 133.900,21.051 132.829,21.246 132.620 C 21.440 132.411,21.601 131.961,21.602 131.620 C 21.604 131.279,21.884 130.466,22.224 129.812 C 22.565 129.159,23.353 127.359,23.976 125.812 C 26.229 120.216,31.987 108.865,35.314 103.463 C 39.109 97.301,46.632 86.365,47.602 85.600 C 47.742 85.490,48.647 84.320,49.614 83.000 C 53.381 77.858,65.088 65.478,71.032 60.352 C 72.150 59.389,74.109 57.700,75.386 56.600 C 79.327 53.204,86.826 47.535,91.215 44.631 C 93.517 43.108,95.850 41.563,96.400 41.197 C 108.018 33.471,128.623 24.240,142.886 20.372 C 144.363 19.971,145.926 19.454,146.360 19.222 C 146.793 18.990,147.564 18.800,148.074 18.800 C 148.583 18.800,150.080 18.450,151.400 18.023 C 153.719 17.272,155.758 16.805,160.400 15.963 C 161.610 15.743,163.770 15.309,165.200 14.998 C 166.630 14.687,169.687 14.230,171.992 13.983 C 174.298 13.735,176.368 13.415,176.592 13.271 C 178.086 12.309,213.488 12.366,218.000 13.337 M184.600 28.004 C 176.684 28.569,165.943 30.051,162.800 31.012 C 161.810 31.315,160.100 31.684,159.000 31.833 C 157.900 31.982,156.514 32.351,155.920 32.652 C 155.326 32.953,154.246 33.206,153.520 33.214 C 152.794 33.221,151.480 33.575,150.600 34.000 C 149.720 34.425,148.545 34.779,147.989 34.786 C 147.433 34.794,146.601 35.064,146.141 35.386 C 145.681 35.709,144.605 36.149,143.752 36.364 C 141.441 36.946,138.281 38.008,137.600 38.432 C 136.964 38.827,136.378 39.082,135.400 39.387 C 134.332 39.721,134.562 46.390,135.691 47.825 C 136.927 49.396,136.905 51.823,135.647 52.843 C 132.381 55.487,127.163 51.237,130.087 48.313 C 130.764 47.636,131.011 46.836,131.133 44.922 C 131.367 41.235,131.231 41.059,128.918 42.055 C 121.930 45.066,122.000 44.992,122.000 49.421 C 122.000 52.266,122.089 52.596,123.200 53.861 C 124.985 55.894,124.699 57.744,122.381 59.153 C 119.035 61.188,115.224 57.312,117.600 54.291 C 118.768 52.806,118.787 47.600,117.624 47.600 C 117.197 47.600,116.750 47.757,116.632 47.948 C 116.514 48.139,115.380 48.814,114.113 49.448 C 109.800 51.604,108.372 56.447,110.990 60.041 C 113.733 63.808,112.809 66.509,108.779 66.509 C 105.797 66.509,104.644 64.372,105.988 61.333 C 107.816 57.202,106.714 53.306,104.329 55.464 C 103.925 55.830,103.254 56.325,102.839 56.564 C 101.194 57.513,97.403 60.225,96.245 61.282 C 95.572 61.897,94.898 62.400,94.748 62.400 C 94.130 62.400,85.332 69.853,80.600 74.386 C 74.947 79.801,64.339 91.989,60.504 97.475 C 56.448 103.278,53.502 107.973,48.381 116.800 C 46.952 119.261,42.528 128.626,41.010 132.400 C 39.993 134.930,38.997 137.360,38.798 137.800 C 37.816 139.970,36.361 144.919,36.473 145.708 C 36.600 146.599,36.613 146.600,47.073 146.800 L 57.547 147.000 61.473 150.734 C 63.633 152.788,69.090 158.082,73.600 162.500 C 78.110 166.917,84.230 172.907,87.200 175.812 C 92.024 180.529,96.223 184.000,97.107 184.000 C 97.280 184.000,97.861 184.307,98.397 184.683 C 102.404 187.490,114.423 188.411,118.600 186.231 C 119.260 185.887,119.962 185.604,120.160 185.602 C 121.268 185.595,125.242 183.135,128.007 180.746 C 131.344 177.862,132.871 177.328,134.143 178.600 C 134.473 178.930,134.842 179.200,134.963 179.200 C 135.738 179.200,144.973 185.142,145.295 185.848 C 145.850 187.066,137.580 194.859,133.200 197.245 C 132.430 197.665,131.530 198.172,131.200 198.372 C 129.637 199.321,127.101 200.400,126.437 200.400 C 126.030 200.400,125.481 200.661,125.216 200.980 C 124.951 201.300,123.897 201.686,122.874 201.840 C 121.851 201.993,120.380 202.404,119.607 202.752 C 117.498 203.702,103.267 203.643,101.051 202.676 C 100.199 202.304,99.112 202.000,98.636 202.000 C 98.159 202.000,97.103 201.660,96.289 201.245 C 95.475 200.830,94.195 200.375,93.445 200.235 C 92.694 200.094,91.860 199.714,91.591 199.389 C 91.322 199.065,90.899 198.799,90.651 198.797 C 90.265 198.795,85.387 195.861,84.200 194.917 C 81.764 192.981,79.856 191.197,72.800 184.260 C 64.492 176.092,60.419 172.169,48.187 160.557 C 33.874 146.971,35.333 147.824,34.085 152.300 C 29.752 167.841,26.500 196.442,28.408 202.223 L 28.886 203.672 32.781 203.508 C 35.972 203.373,36.896 203.186,37.899 202.472 C 40.128 200.885,42.992 201.861,43.829 204.493 C 44.632 207.020,39.873 209.393,38.000 207.400 C 37.116 206.459,36.817 206.400,32.954 206.400 C 28.644 206.400,28.161 206.593,28.554 208.159 L 28.783 209.072 40.450 208.944 C 50.383 208.835,52.263 208.720,53.105 208.168 C 56.634 205.855,60.601 209.860,57.678 212.784 C 56.153 214.309,55.195 214.312,52.738 212.800 C 50.934 211.690,50.506 211.600,47.027 211.600 C 42.228 211.600,42.000 211.694,42.000 213.674 C 42.000 216.920,38.343 218.720,36.019 216.617 C 35.238 215.910,29.815 215.728,29.403 216.395 C 28.855 217.281,30.130 226.157,31.873 233.600 C 32.208 235.030,32.653 237.100,32.861 238.200 C 33.278 240.410,33.446 240.983,36.370 250.200 C 38.957 258.358,40.508 262.167,41.306 262.323 C 41.662 262.393,43.396 261.005,45.306 259.123 C 47.160 257.295,52.587 252.020,57.366 247.400 C 62.144 242.780,68.156 236.939,70.727 234.419 C 79.850 225.476,83.833 221.874,86.400 220.244 C 90.406 217.700,90.534 217.623,91.600 217.152 C 92.150 216.909,93.050 216.481,93.600 216.201 C 94.150 215.921,95.230 215.561,96.000 215.400 C 96.770 215.239,97.631 214.921,97.914 214.693 C 98.197 214.465,99.817 214.034,101.514 213.736 C 109.891 212.263,110.293 212.229,113.694 212.714 C 119.451 213.535,123.155 214.265,123.686 214.684 C 123.969 214.907,124.740 215.215,125.400 215.368 C 126.060 215.522,127.320 215.975,128.200 216.375 C 129.080 216.776,130.070 217.217,130.400 217.356 C 130.730 217.495,131.540 217.962,132.200 218.393 C 132.860 218.825,134.030 219.524,134.800 219.948 C 135.570 220.371,136.663 221.148,137.229 221.674 C 137.795 222.200,138.774 223.036,139.405 223.532 C 140.410 224.323,144.269 228.013,161.230 244.400 C 163.393 246.490,167.986 250.900,171.437 254.200 C 181.137 263.478,185.463 267.797,185.933 268.674 C 186.792 270.280,186.029 270.400,175.002 270.400 L 164.565 270.400 162.782 268.750 C 161.044 267.141,145.321 251.989,140.835 247.600 C 139.599 246.390,136.790 243.738,134.593 241.707 C 132.397 239.676,129.544 237.021,128.254 235.807 C 125.832 233.527,125.225 233.123,121.742 231.462 C 114.637 228.075,105.475 228.157,99.052 231.666 C 97.923 232.282,96.589 232.967,96.087 233.188 C 95.188 233.584,91.873 236.755,76.357 252.063 C 72.044 256.318,66.037 262.230,63.009 265.200 L 57.503 270.600 50.927 270.727 C 47.311 270.797,44.412 270.977,44.487 271.127 C 44.561 271.277,45.325 272.840,46.185 274.600 C 49.054 280.472,56.243 292.463,57.393 293.294 C 58.601 294.166,68.069 293.613,69.273 292.600 C 72.916 289.535,77.415 294.244,74.125 297.678 C 72.769 299.094,71.186 299.135,69.436 297.800 C 68.303 296.936,67.711 296.800,65.088 296.800 C 62.064 296.800,59.478 297.396,60.214 297.923 C 60.426 298.075,61.212 299.100,61.961 300.200 C 62.709 301.300,63.523 302.380,63.770 302.600 C 64.016 302.820,64.929 303.900,65.798 305.000 C 68.177 308.013,72.740 313.273,76.312 317.123 C 77.986 318.927,78.229 318.637,78.764 314.200 C 79.312 309.654,79.308 309.370,78.695 308.729 C 76.679 306.619,76.473 305.504,77.784 303.785 C 80.955 299.628,86.229 303.755,83.160 307.992 L 81.920 309.704 81.891 316.115 L 81.863 322.526 84.231 324.703 C 86.605 326.885,91.135 330.700,93.134 332.200 C 93.720 332.640,95.342 333.884,96.738 334.964 C 99.989 337.482,104.459 340.455,107.100 341.858 C 107.815 342.237,108.400 342.695,108.400 342.874 C 108.400 343.053,108.577 343.200,108.792 343.200 C 109.008 343.200,110.194 343.846,111.429 344.636 C 112.663 345.425,114.242 346.338,114.937 346.663 C 115.631 346.989,116.920 347.688,117.800 348.218 C 118.680 348.748,119.850 349.365,120.400 349.590 C 120.950 349.815,121.670 350.181,122.000 350.402 C 122.330 350.624,122.870 350.916,123.200 351.052 C 123.530 351.188,125.060 351.892,126.600 352.617 C 128.140 353.343,129.850 354.059,130.400 354.210 C 130.950 354.360,131.760 354.707,132.200 354.981 C 132.640 355.255,133.692 355.706,134.539 355.983 C 135.385 356.261,136.555 356.737,137.139 357.041 C 137.722 357.346,138.470 357.602,138.800 357.611 C 139.130 357.620,140.120 357.975,141.000 358.400 C 141.880 358.825,142.965 359.179,143.411 359.186 C 143.857 359.194,144.599 359.464,145.060 359.787 C 145.521 360.110,146.686 360.494,147.649 360.640 C 148.612 360.787,149.671 361.140,150.002 361.426 C 150.333 361.712,151.593 362.069,152.802 362.219 C 154.011 362.369,155.399 362.741,155.886 363.046 C 156.373 363.351,157.453 363.608,158.286 363.618 C 159.119 363.627,160.520 363.916,161.400 364.259 C 162.280 364.602,164.275 365.027,165.832 365.203 C 167.390 365.379,169.511 365.810,170.546 366.161 C 171.617 366.525,173.758 366.803,175.514 366.807 C 177.211 366.811,179.860 367.081,181.400 367.407 C 184.747 368.116,209.927 368.252,212.600 367.576 C 213.480 367.353,216.450 367.006,219.200 366.804 C 221.950 366.602,224.920 366.167,225.800 365.836 C 226.680 365.506,228.346 365.227,229.501 365.218 C 230.810 365.207,232.166 364.898,233.096 364.400 C 233.960 363.936,235.352 363.600,236.405 363.600 C 237.404 363.600,238.602 363.334,239.066 363.009 C 239.530 362.684,240.963 362.294,242.250 362.143 C 243.537 361.991,244.819 361.638,245.100 361.358 C 245.380 361.077,246.462 360.725,247.505 360.575 C 248.547 360.425,249.670 360.077,250.000 359.802 C 250.330 359.527,251.311 359.174,252.180 359.018 C 253.048 358.862,254.123 358.479,254.569 358.167 C 255.014 357.855,255.683 357.600,256.056 357.600 C 256.429 357.600,257.649 357.141,258.767 356.579 L 260.800 355.558 260.800 353.237 C 260.800 351.317,260.628 350.731,259.800 349.838 C 256.904 346.713,259.841 342.307,263.992 343.550 C 267.189 344.508,267.851 348.410,265.140 350.323 C 264.633 350.681,264.400 351.343,264.400 352.423 C 264.400 354.251,264.740 354.352,267.000 353.200 C 267.863 352.760,268.756 352.394,268.985 352.386 C 271.552 352.297,273.089 345.775,270.943 344.078 C 267.941 341.704,270.410 336.707,274.275 337.335 C 277.104 337.794,278.147 340.016,277.034 343.213 C 275.661 347.156,276.852 349.573,279.000 347.200 C 279.398 346.760,279.983 346.400,280.299 346.400 C 280.615 346.400,281.331 346.040,281.891 345.600 C 282.450 345.160,283.134 344.800,283.411 344.800 C 283.688 344.800,284.018 344.530,284.145 344.200 C 284.271 343.870,284.606 343.599,284.887 343.598 C 285.169 343.596,286.570 342.787,288.000 341.800 C 289.430 340.813,290.825 340.004,291.100 340.002 C 291.375 340.001,291.600 339.814,291.600 339.587 C 291.600 339.361,291.915 339.054,292.300 338.907 C 293.986 338.261,295.602 336.886,294.963 336.641 C 293.365 336.028,288.332 336.395,287.309 337.200 C 285.563 338.574,282.252 338.326,280.777 336.711 C 277.355 332.963,283.383 328.473,287.227 331.907 C 288.461 333.010,288.482 333.013,292.333 332.705 C 294.460 332.534,296.920 332.481,297.800 332.587 C 300.758 332.943,301.912 332.388,306.301 328.500 C 306.860 328.005,307.435 327.600,307.579 327.600 C 308.328 327.600,323.070 312.491,327.000 307.695 C 327.440 307.158,328.115 306.427,328.500 306.071 C 328.885 305.714,329.200 305.268,329.200 305.080 C 329.200 304.892,329.754 304.184,330.432 303.507 C 331.109 302.829,331.961 301.808,332.324 301.238 C 332.687 300.667,333.901 298.940,335.021 297.400 C 336.141 295.860,337.174 294.285,337.316 293.900 C 337.458 293.515,337.761 293.200,337.987 293.200 C 338.214 293.200,338.400 293.023,338.400 292.808 C 338.400 292.592,339.075 291.377,339.899 290.108 C 340.724 288.838,341.615 287.305,341.880 286.700 C 342.145 286.095,342.531 285.600,342.737 285.600 C 342.944 285.600,343.223 285.163,343.357 284.628 C 343.491 284.093,343.836 283.418,344.123 283.128 C 344.409 282.838,345.234 281.430,345.956 280.000 C 346.677 278.570,347.882 276.236,348.634 274.813 C 349.385 273.391,350.000 271.996,350.000 271.713 C 350.000 271.431,350.180 271.200,350.400 271.200 C 350.620 271.200,350.800 270.978,350.800 270.706 C 350.800 270.262,351.881 267.785,353.435 264.668 C 353.746 264.045,354.000 263.318,354.000 263.052 C 354.000 262.787,354.340 261.902,354.756 261.086 C 355.172 260.270,355.636 259.106,355.787 258.501 C 355.938 257.895,356.306 256.860,356.606 256.200 C 356.905 255.540,357.719 253.110,358.414 250.800 C 359.110 248.490,359.826 246.240,360.005 245.800 C 360.431 244.756,361.193 241.459,361.043 241.309 C 360.978 241.245,349.757 241.149,336.105 241.096 C 313.107 241.007,311.227 240.949,310.510 240.300 C 310.085 239.915,309.513 239.600,309.240 239.600 C 307.102 239.600,302.918 235.682,303.624 234.341 C 304.783 232.138,312.717 223.600,313.604 223.600 C 314.319 223.600,315.600 224.795,315.600 225.462 C 315.600 227.509,316.367 227.600,333.552 227.600 C 343.525 227.600,349.937 227.752,350.400 228.000 C 350.811 228.220,353.585 230.811,356.564 233.757 L 361.980 239.114 362.202 237.657 C 362.325 236.856,362.683 235.300,362.999 234.200 C 363.315 233.100,363.685 231.120,363.822 229.800 C 363.959 228.480,364.313 226.590,364.608 225.600 C 364.904 224.610,365.254 222.270,365.386 220.400 C 365.517 218.530,365.821 215.867,366.061 214.482 C 366.566 211.570,366.503 211.429,364.966 212.013 C 364.254 212.284,358.457 212.513,349.611 212.620 C 341.795 212.714,333.215 212.891,330.545 213.013 C 322.233 213.391,322.561 212.459,335.300 199.523 L 336.800 198.000 346.700 197.998 L 356.600 197.996 357.900 196.778 C 359.048 195.702,359.200 195.313,359.200 193.449 C 359.200 189.959,358.535 189.600,352.062 189.600 C 344.691 189.600,344.547 188.921,350.594 182.658 C 352.687 180.490,354.400 178.653,354.400 178.576 C 354.400 178.324,356.252 176.618,357.522 175.700 C 359.055 174.592,362.901 174.435,364.311 175.423 C 365.428 176.205,365.592 173.250,364.621 169.835 C 364.303 168.716,363.898 166.720,363.721 165.400 L 363.400 163.000 352.765 162.894 L 342.131 162.787 341.045 163.794 C 337.932 166.678,333.091 162.664,335.257 158.994 C 336.338 157.162,340.457 156.640,341.077 158.257 C 341.195 158.564,341.832 158.788,342.543 158.773 C 343.721 158.748,343.745 158.719,342.920 158.321 C 341.904 157.830,341.420 156.131,341.802 154.393 C 342.243 152.384,345.293 151.338,347.326 152.499 C 348.805 153.343,360.359 153.567,360.615 152.756 C 361.236 150.790,358.434 149.686,356.562 151.158 C 353.714 153.399,349.600 151.746,349.600 148.362 C 349.600 145.255,354.442 143.441,356.409 145.811 C 357.121 146.668,358.800 146.577,358.800 145.680 C 358.800 145.284,358.647 144.789,358.459 144.580 C 358.271 144.371,357.883 143.300,357.597 142.200 C 357.310 141.100,356.954 140.020,356.805 139.800 C 356.656 139.580,356.340 138.860,356.103 138.200 C 354.184 132.863,350.936 125.225,349.172 121.900 C 348.967 121.515,348.592 120.795,348.338 120.300 C 348.084 119.805,347.728 119.130,347.547 118.800 C 347.366 118.470,346.629 117.030,345.909 115.600 C 345.189 114.170,344.389 112.864,344.131 112.698 C 343.873 112.531,343.544 111.856,343.399 111.198 C 343.255 110.539,342.966 110.000,342.758 110.000 C 342.550 110.000,342.218 109.572,342.019 109.049 C 341.820 108.526,340.654 106.617,339.429 104.807 C 338.203 102.996,337.200 101.438,337.200 101.344 C 337.200 101.045,332.478 94.675,330.907 92.853 C 330.078 91.892,329.330 90.902,329.245 90.653 C 329.160 90.404,328.800 89.903,328.445 89.540 C 328.090 89.178,327.170 88.108,326.400 87.164 C 320.905 80.423,305.703 65.611,305.140 66.450 C 304.518 67.377,305.082 69.500,306.379 71.114 C 308.878 74.223,304.363 78.763,301.560 75.960 C 300.113 74.513,299.948 75.436,300.077 84.244 C 300.196 92.296,300.233 92.635,301.100 93.501 C 303.022 95.421,301.220 98.833,298.238 98.918 C 295.272 99.002,293.976 96.126,295.607 93.082 C 296.362 91.673,296.407 90.955,296.307 81.888 L 296.200 72.200 294.600 72.078 C 290.541 71.768,288.843 67.858,291.719 65.443 L 293.200 64.200 293.200 60.547 C 293.200 57.424,293.098 56.859,292.500 56.656 C 292.115 56.526,290.990 55.797,290.000 55.036 C 289.010 54.275,288.073 53.641,287.918 53.627 C 287.623 53.599,284.938 51.894,284.141 51.228 C 283.888 51.017,283.078 50.572,282.341 50.239 C 281.603 49.905,279.740 48.907,278.200 48.020 C 276.660 47.133,274.950 46.215,274.400 45.979 C 273.850 45.743,271.960 44.865,270.200 44.028 C 268.440 43.191,266.100 42.108,265.000 41.622 C 263.900 41.136,262.550 40.507,262.000 40.223 C 261.450 39.940,260.460 39.580,259.800 39.423 C 259.140 39.266,258.330 38.904,258.000 38.620 C 257.670 38.335,256.689 37.974,255.820 37.818 C 254.952 37.662,253.877 37.279,253.431 36.967 C 252.986 36.655,252.211 36.400,251.710 36.400 C 251.208 36.400,250.125 36.040,249.304 35.600 C 248.484 35.160,247.354 34.800,246.795 34.800 C 246.236 34.800,245.404 34.538,244.947 34.218 C 244.490 33.898,242.979 33.453,241.589 33.229 C 240.199 33.005,238.877 32.637,238.651 32.411 C 238.425 32.185,237.774 32.000,237.204 32.000 C 236.634 32.000,235.095 31.718,233.784 31.373 C 223.168 28.581,199.358 26.950,184.600 28.004 M300.280 66.473 C 300.024 70.433,300.359 71.971,301.156 70.483 C 301.638 69.582,301.324 62.800,300.800 62.800 C 300.645 62.800,300.411 64.453,300.280 66.473 M185.130 147.159 C 185.263 148.053,183.472 149.937,173.750 159.137 C 171.577 161.193,165.177 167.448,159.527 173.037 C 148.539 183.907,148.393 184.010,146.084 182.484 C 144.864 181.678,144.455 181.435,140.800 179.347 C 133.450 175.148,133.441 175.402,141.220 167.960 C 146.477 162.929,155.758 153.926,161.714 148.079 L 163.629 146.200 173.514 146.000 C 184.234 145.783,184.935 145.853,185.130 147.159 M348.600 158.209 C 347.526 158.706,348.192 158.766,354.933 158.782 C 360.788 158.796,362.430 158.689,362.300 158.300 C 362.048 157.542,350.213 157.464,348.600 158.209 M353.120 175.280 C 354.263 176.423,353.542 177.512,347.659 183.527 L 341.718 189.600 329.845 189.600 C 313.655 189.600,315.015 188.282,315.158 203.842 C 315.284 217.479,315.337 217.231,311.407 221.360 C 309.753 223.098,308.400 224.573,308.400 224.637 C 308.400 224.701,307.076 226.104,305.457 227.755 C 302.376 230.897,301.367 231.258,300.100 229.672 C 299.284 228.651,299.391 190.174,300.219 186.984 C 301.297 182.832,307.063 176.036,309.548 175.987 C 309.907 175.980,310.549 175.710,310.976 175.387 C 312.019 174.599,352.336 174.496,353.120 175.280 M213.600 176.181 C 217.832 177.598,220.999 180.436,221.988 183.697 C 222.496 185.375,222.651 225.271,222.152 226.078 C 221.635 226.914,218.108 225.327,212.869 221.901 C 212.281 221.517,211.301 221.003,210.692 220.759 C 208.851 220.023,208.800 219.603,208.800 205.080 C 208.800 191.753,208.773 191.274,207.971 190.254 L 207.142 189.200 187.001 189.200 L 166.860 189.200 165.263 190.879 C 163.448 192.786,163.796 192.836,159.200 190.009 C 157.770 189.129,156.060 188.153,155.400 187.840 C 152.156 186.299,151.790 184.600,154.031 181.479 C 155.059 180.046,159.266 176.436,159.970 176.382 C 160.096 176.373,161.100 176.111,162.200 175.800 C 165.583 174.846,210.608 175.179,213.600 176.181 M284.687 175.998 C 292.267 176.588,296.585 179.584,297.658 185.000 C 298.371 188.598,298.519 226.358,297.825 227.419 C 296.952 228.750,295.774 228.659,293.363 227.070 C 292.253 226.339,291.087 225.623,290.772 225.479 C 289.982 225.117,284.200 221.419,283.917 221.095 C 283.872 221.043,283.737 214.455,283.617 206.456 L 283.400 191.911 282.015 190.756 L 280.630 189.600 261.889 189.600 C 241.670 189.600,242.418 189.522,239.942 191.888 C 238.032 193.712,237.488 193.519,229.916 188.341 C 229.320 187.934,228.658 187.600,228.445 187.600 C 227.662 187.600,226.380 185.493,226.649 184.646 C 227.474 182.047,232.263 177.531,235.200 176.583 C 237.962 175.691,275.096 175.252,284.687 175.998 M154.910 190.600 C 156.054 191.370,157.103 192.000,157.242 192.000 C 157.626 192.000,162.879 195.439,163.900 196.360 C 164.797 197.169,164.800 197.211,164.800 209.806 C 164.800 228.264,162.376 226.473,186.956 226.176 L 205.800 225.949 207.277 224.775 C 209.532 222.980,210.398 223.260,218.100 228.263 C 221.150 230.244,221.336 230.782,219.700 232.885 C 218.612 234.283,217.902 234.805,214.400 236.783 L 212.600 237.800 186.800 237.800 L 161.000 237.800 158.800 236.465 C 155.827 234.661,153.352 232.212,152.066 229.800 L 151.000 227.800 151.000 209.162 C 151.000 187.100,150.840 187.859,154.910 190.600 M228.446 190.734 C 228.971 191.138,231.230 192.498,233.467 193.758 C 235.704 195.017,237.999 196.478,238.567 197.004 L 239.600 197.962 239.600 211.368 L 239.600 224.773 241.032 226.206 L 242.465 227.638 257.332 227.409 C 265.510 227.283,273.301 227.092,274.646 226.984 C 276.420 226.842,277.794 227.009,279.646 227.589 C 281.051 228.029,282.235 228.392,282.277 228.395 C 282.319 228.398,282.409 227.635,282.477 226.700 C 282.651 224.302,284.255 224.130,287.193 226.195 C 288.321 226.988,289.684 227.804,290.222 228.008 C 290.760 228.213,291.200 228.565,291.200 228.790 C 291.200 229.016,291.459 229.200,291.775 229.200 C 292.789 229.200,295.881 231.357,296.820 232.719 L 297.730 234.039 297.467 251.657 C 297.100 276.207,297.440 275.614,287.487 269.111 C 286.216 268.280,285.041 267.600,284.877 267.600 C 282.056 267.600,281.392 263.685,281.802 249.465 L 282.093 239.400 261.946 239.526 C 240.436 239.660,238.973 239.591,237.579 238.381 C 237.083 237.952,236.539 237.600,236.370 237.600 C 236.201 237.600,234.834 236.773,233.331 235.762 C 231.829 234.752,229.948 233.590,229.150 233.180 C 224.918 231.006,224.805 230.381,224.802 209.274 C 224.800 188.933,224.971 188.060,228.446 190.734 M29.600 212.200 C 30.248 212.981,33.538 212.973,34.576 212.187 C 35.280 211.655,35.061 211.600,32.227 211.600 C 29.495 211.600,29.165 211.675,29.600 212.200 M283.019 269.015 C 283.448 269.354,285.581 270.659,287.758 271.915 C 292.795 274.823,293.661 276.562,290.800 278.029 C 290.470 278.198,289.390 278.752,288.400 279.261 C 286.683 280.142,286.054 280.198,274.800 280.467 C 268.310 280.622,259.912 280.873,256.137 281.024 C 241.268 281.622,233.236 280.686,234.686 278.525 C 234.954 278.126,236.085 276.239,237.199 274.330 C 238.314 272.422,239.856 270.307,240.627 269.630 L 242.028 268.400 262.133 268.400 C 279.619 268.400,282.339 268.480,283.019 269.015 M121.169 312.031 C 123.541 314.403,122.553 317.221,119.161 317.756 C 116.269 318.212,111.200 323.471,111.200 326.016 C 111.200 329.842,106.276 331.784,104.396 328.700 C 102.875 326.207,103.757 323.912,106.520 323.168 C 109.915 322.253,115.095 317.168,115.129 314.716 C 115.176 311.230,118.770 309.632,121.169 312.031 " stroke="none" fill="#fafafa" fill-rule="evenodd"></path><path id="path1" d="M182.400 12.743 C 179.430 12.889,176.817 13.126,176.592 13.271 C 176.368 13.415,174.298 13.735,171.992 13.983 C 169.687 14.230,166.630 14.687,165.200 14.998 C 163.770 15.309,161.610 15.743,160.400 15.963 C 155.758 16.805,153.719 17.272,151.400 18.023 C 150.080 18.450,148.583 18.800,148.074 18.800 C 147.564 18.800,146.793 18.990,146.360 19.222 C 145.926 19.454,144.363 19.971,142.886 20.372 C 128.623 24.240,108.018 33.471,96.400 41.197 C 95.850 41.563,93.517 43.108,91.215 44.631 C 86.826 47.535,79.327 53.204,75.386 56.600 C 74.109 57.700,72.150 59.389,71.032 60.352 C 65.088 65.478,53.381 77.858,49.614 83.000 C 48.647 84.320,47.742 85.490,47.602 85.600 C 46.632 86.365,39.109 97.301,35.314 103.463 C 31.987 108.865,26.229 120.216,23.976 125.812 C 23.353 127.359,22.565 129.159,22.224 129.812 C 21.884 130.466,21.604 131.279,21.602 131.620 C 21.601 131.961,21.440 132.411,21.246 132.620 C 21.051 132.829,20.618 133.900,20.284 135.000 C 19.951 136.100,19.451 137.630,19.174 138.400 C 17.951 141.798,17.243 143.963,16.626 146.200 C 16.262 147.520,15.612 149.714,15.182 151.075 C 14.752 152.436,14.401 153.876,14.401 154.275 C 14.402 154.674,14.058 156.260,13.638 157.800 C 11.349 166.179,9.248 184.795,9.214 196.989 C 9.186 207.227,10.671 223.590,12.230 230.226 C 12.544 231.560,12.800 233.152,12.800 233.763 C 12.800 234.375,13.137 236.074,13.549 237.538 C 14.369 240.452,14.949 242.635,15.798 246.000 C 16.877 250.281,18.124 254.177,19.661 258.074 C 20.067 259.105,20.406 260.185,20.414 260.474 C 20.421 260.763,20.775 261.720,21.200 262.600 C 21.625 263.480,21.979 264.479,21.986 264.820 C 21.994 265.161,22.162 265.611,22.359 265.820 C 22.557 266.029,23.215 267.460,23.822 269.000 C 26.427 275.609,32.067 286.566,36.146 292.942 C 36.946 294.193,37.600 295.278,37.600 295.355 C 37.600 295.800,44.995 306.313,47.786 309.836 C 57.085 321.572,68.405 333.105,78.600 341.231 C 83.194 344.892,84.510 345.876,89.000 349.005 C 90.100 349.771,91.180 350.537,91.400 350.706 C 95.032 353.499,110.582 362.286,115.600 364.381 C 116.150 364.610,116.870 364.967,117.200 365.174 C 117.805 365.553,118.908 366.049,124.400 368.410 C 130.265 370.930,140.833 374.444,148.400 376.389 C 150.270 376.869,152.344 377.425,153.009 377.624 C 154.347 378.024,159.678 379.071,163.400 379.663 C 164.720 379.873,167.060 380.308,168.600 380.629 C 170.140 380.950,173.560 381.383,176.200 381.592 C 178.840 381.800,182.080 382.156,183.400 382.383 C 187.083 383.016,207.318 382.909,212.149 382.232 C 214.377 381.920,217.820 381.556,219.800 381.424 C 221.780 381.292,224.284 380.918,225.364 380.592 C 226.444 380.266,228.030 380.000,228.890 380.000 C 230.280 380.000,232.257 379.626,239.400 378.013 C 247.515 376.181,252.696 374.644,264.400 370.596 C 266.108 370.006,266.679 369.769,270.000 368.280 C 270.770 367.934,272.750 367.076,274.400 366.372 C 300.143 355.393,327.123 334.455,345.121 311.486 C 351.578 303.246,354.949 298.312,359.665 290.200 C 361.199 287.560,362.621 285.130,362.823 284.800 C 366.559 278.714,375.099 258.413,376.790 251.600 C 376.981 250.830,377.414 249.480,377.751 248.600 C 378.089 247.720,378.373 246.617,378.382 246.149 C 378.392 245.681,378.648 244.691,378.951 243.949 C 379.254 243.207,379.626 241.738,379.778 240.685 C 379.929 239.631,380.312 238.152,380.627 237.398 C 380.942 236.643,381.200 235.544,381.200 234.955 C 381.200 234.366,381.551 232.335,381.981 230.442 C 382.698 227.276,382.999 225.257,384.010 216.800 C 385.290 206.103,384.945 180.742,383.426 173.800 C 383.090 172.260,382.803 170.100,382.789 169.000 C 382.776 167.900,382.504 166.280,382.184 165.400 C 381.865 164.520,381.498 162.810,381.369 161.600 C 381.239 160.390,380.888 158.590,380.588 157.600 C 380.016 155.710,378.962 151.384,378.371 148.494 C 378.179 147.556,377.806 146.386,377.541 145.894 C 377.276 145.402,376.924 144.370,376.758 143.600 C 375.792 139.128,371.088 127.057,366.993 118.542 C 352.419 88.232,328.747 61.198,301.186 43.390 C 294.487 39.061,295.268 39.535,291.000 37.210 C 289.680 36.491,288.150 35.617,287.600 35.268 C 286.362 34.484,277.316 29.996,274.600 28.818 C 273.500 28.342,272.060 27.705,271.400 27.404 C 269.502 26.537,264.700 24.724,258.300 22.456 C 257.145 22.047,254.850 21.320,253.200 20.841 C 251.550 20.362,249.660 19.778,249.000 19.542 C 248.340 19.307,247.080 18.983,246.200 18.823 C 245.320 18.663,243.700 18.243,242.600 17.890 C 240.629 17.257,238.322 16.741,234.000 15.969 C 232.790 15.752,230.630 15.317,229.200 15.002 C 227.770 14.686,225.250 14.309,223.600 14.162 C 221.950 14.016,219.430 13.645,218.000 13.337 C 215.014 12.694,191.421 12.301,182.400 12.743 M216.614 28.575 C 223.111 29.320,230.650 30.549,233.784 31.373 C 235.095 31.718,236.634 32.000,237.204 32.000 C 237.774 32.000,238.425 32.185,238.651 32.411 C 238.877 32.637,240.199 33.005,241.589 33.229 C 242.979 33.453,244.490 33.898,244.947 34.218 C 245.404 34.538,246.236 34.800,246.795 34.800 C 247.354 34.800,248.484 35.160,249.304 35.600 C 250.125 36.040,251.208 36.400,251.710 36.400 C 252.211 36.400,252.986 36.655,253.431 36.967 C 253.877 37.279,254.952 37.662,255.820 37.818 C 256.689 37.974,257.670 38.335,258.000 38.620 C 258.330 38.904,259.140 39.266,259.800 39.423 C 260.460 39.580,261.450 39.940,262.000 40.223 C 262.550 40.507,263.900 41.136,265.000 41.622 C 266.100 42.108,268.440 43.191,270.200 44.028 C 271.960 44.865,273.850 45.743,274.400 45.979 C 274.950 46.215,276.660 47.133,278.200 48.020 C 279.740 48.907,281.603 49.905,282.341 50.239 C 283.078 50.572,283.888 51.017,284.141 51.228 C 284.938 51.894,287.623 53.599,287.918 53.627 C 288.073 53.641,289.010 54.275,290.000 55.036 C 290.990 55.797,292.115 56.526,292.500 56.656 C 293.098 56.859,293.200 57.424,293.200 60.547 L 293.200 64.200 291.719 65.443 C 288.843 67.858,290.541 71.768,294.600 72.078 L 296.200 72.200 296.307 81.888 C 296.407 90.955,296.362 91.673,295.607 93.082 C 293.976 96.126,295.272 99.002,298.238 98.918 C 301.220 98.833,303.022 95.421,301.100 93.501 C 300.233 92.635,300.196 92.296,300.077 84.244 C 299.948 75.436,300.113 74.513,301.560 75.960 C 304.363 78.763,308.878 74.223,306.379 71.114 C 305.082 69.500,304.518 67.377,305.140 66.450 C 305.703 65.611,320.905 80.423,326.400 87.164 C 327.170 88.108,328.090 89.178,328.445 89.540 C 328.800 89.903,329.160 90.404,329.245 90.653 C 329.330 90.902,330.078 91.892,330.907 92.853 C 332.478 94.675,337.200 101.045,337.200 101.344 C 337.200 101.438,338.203 102.996,339.429 104.807 C 340.654 106.617,341.820 108.526,342.019 109.049 C 342.218 109.572,342.550 110.000,342.758 110.000 C 342.966 110.000,343.255 110.539,343.399 111.198 C 343.544 111.856,343.873 112.531,344.131 112.698 C 344.389 112.864,345.189 114.170,345.909 115.600 C 346.629 117.030,347.366 118.470,347.547 118.800 C 347.728 119.130,348.084 119.805,348.338 120.300 C 348.592 120.795,348.967 121.515,349.172 121.900 C 350.936 125.225,354.184 132.863,356.103 138.200 C 356.340 138.860,356.656 139.580,356.805 139.800 C 356.954 140.020,357.310 141.100,357.597 142.200 C 357.883 143.300,358.271 144.371,358.459 144.580 C 358.647 144.789,358.800 145.284,358.800 145.680 C 358.800 146.577,357.121 146.668,356.409 145.811 C 354.442 143.441,349.600 145.255,349.600 148.362 C 349.600 151.746,353.714 153.399,356.562 151.158 C 358.434 149.686,361.236 150.790,360.615 152.756 C 360.359 153.567,348.805 153.343,347.326 152.499 C 345.293 151.338,342.243 152.384,341.802 154.393 C 341.420 156.131,341.904 157.830,342.920 158.321 C 343.745 158.719,343.721 158.748,342.543 158.773 C 341.832 158.788,341.195 158.564,341.077 158.257 C 340.457 156.640,336.338 157.162,335.257 158.994 C 333.091 162.664,337.932 166.678,341.045 163.794 L 342.131 162.787 352.765 162.894 L 363.400 163.000 363.721 165.400 C 363.898 166.720,364.303 168.716,364.621 169.835 C 365.592 173.250,365.428 176.205,364.311 175.423 C 362.901 174.435,359.055 174.592,357.522 175.700 C 356.252 176.618,354.400 178.324,354.400 178.576 C 354.400 178.653,352.687 180.490,350.594 182.658 C 344.547 188.921,344.691 189.600,352.062 189.600 C 358.535 189.600,359.200 189.959,359.200 193.449 C 359.200 195.313,359.048 195.702,357.900 196.778 L 356.600 197.996 346.700 197.998 L 336.800 198.000 335.300 199.523 C 322.561 212.459,322.233 213.391,330.545 213.013 C 333.215 212.891,341.795 212.714,349.611 212.620 C 358.457 212.513,364.254 212.284,364.966 212.013 C 366.503 211.429,366.566 211.570,366.061 214.482 C 365.821 215.867,365.517 218.530,365.386 220.400 C 365.254 222.270,364.904 224.610,364.608 225.600 C 364.313 226.590,363.959 228.480,363.822 229.800 C 363.685 231.120,363.315 233.100,362.999 234.200 C 362.683 235.300,362.325 236.856,362.202 237.657 L 361.980 239.114 356.564 233.757 C 353.585 230.811,350.811 228.220,350.400 228.000 C 349.937 227.752,343.525 227.600,333.552 227.600 C 316.367 227.600,315.600 227.509,315.600 225.462 C 315.600 224.795,314.319 223.600,313.604 223.600 C 312.717 223.600,304.783 232.138,303.624 234.341 C 302.918 235.682,307.102 239.600,309.240 239.600 C 309.513 239.600,310.085 239.915,310.510 240.300 C 311.227 240.949,313.107 241.007,336.105 241.096 C 349.757 241.149,360.978 241.245,361.043 241.309 C 361.193 241.459,360.431 244.756,360.005 245.800 C 359.826 246.240,359.110 248.490,358.414 250.800 C 357.719 253.110,356.905 255.540,356.606 256.200 C 356.306 256.860,355.938 257.895,355.787 258.501 C 355.636 259.106,355.172 260.270,354.756 261.086 C 354.340 261.902,354.000 262.787,354.000 263.052 C 354.000 263.318,353.746 264.045,353.435 264.668 C 351.881 267.785,350.800 270.262,350.800 270.706 C 350.800 270.978,350.620 271.200,350.400 271.200 C 350.180 271.200,350.000 271.431,350.000 271.713 C 350.000 271.996,349.385 273.391,348.634 274.813 C 347.882 276.236,346.677 278.570,345.956 280.000 C 345.234 281.430,344.409 282.838,344.123 283.128 C 343.836 283.418,343.491 284.093,343.357 284.628 C 343.223 285.163,342.944 285.600,342.737 285.600 C 342.531 285.600,342.145 286.095,341.880 286.700 C 341.615 287.305,340.724 288.838,339.899 290.108 C 339.075 291.377,338.400 292.592,338.400 292.808 C 338.400 293.023,338.214 293.200,337.987 293.200 C 337.761 293.200,337.458 293.515,337.316 293.900 C 337.174 294.285,336.141 295.860,335.021 297.400 C 333.901 298.940,332.687 300.667,332.324 301.238 C 331.961 301.808,331.109 302.829,330.432 303.507 C 329.754 304.184,329.200 304.892,329.200 305.080 C 329.200 305.268,328.885 305.714,328.500 306.071 C 328.115 306.427,327.440 307.158,327.000 307.695 C 323.070 312.491,308.328 327.600,307.579 327.600 C 307.435 327.600,306.860 328.005,306.301 328.500 C 301.912 332.388,300.758 332.943,297.800 332.587 C 296.920 332.481,294.460 332.534,292.333 332.705 C 288.482 333.013,288.461 333.010,287.227 331.907 C 283.383 328.473,277.355 332.963,280.777 336.711 C 282.252 338.326,285.563 338.574,287.309 337.200 C 288.332 336.395,293.365 336.028,294.963 336.641 C 295.602 336.886,293.986 338.261,292.300 338.907 C 291.915 339.054,291.600 339.361,291.600 339.587 C 291.600 339.814,291.375 340.001,291.100 340.002 C 290.825 340.004,289.430 340.813,288.000 341.800 C 286.570 342.787,285.169 343.596,284.887 343.598 C 284.606 343.599,284.271 343.870,284.145 344.200 C 284.018 344.530,283.688 344.800,283.411 344.800 C 283.134 344.800,282.450 345.160,281.891 345.600 C 281.331 346.040,280.615 346.400,280.299 346.400 C 279.983 346.400,279.398 346.760,279.000 347.200 C 276.852 349.573,275.661 347.156,277.034 343.213 C 278.147 340.016,277.104 337.794,274.275 337.335 C 270.410 336.707,267.941 341.704,270.943 344.078 C 273.089 345.775,271.552 352.297,268.985 352.386 C 268.756 352.394,267.863 352.760,267.000 353.200 C 264.740 354.352,264.400 354.251,264.400 352.423 C 264.400 351.343,264.633 350.681,265.140 350.323 C 267.851 348.410,267.189 344.508,263.992 343.550 C 259.841 342.307,256.904 346.713,259.800 349.838 C 260.628 350.731,260.800 351.317,260.800 353.237 L 260.800 355.558 258.767 356.579 C 257.649 357.141,256.429 357.600,256.056 357.600 C 255.683 357.600,255.014 357.855,254.569 358.167 C 254.123 358.479,253.048 358.862,252.180 359.018 C 251.311 359.174,250.330 359.527,250.000 359.802 C 249.670 360.077,248.547 360.425,247.505 360.575 C 246.462 360.725,245.380 361.077,245.100 361.358 C 244.819 361.638,243.537 361.991,242.250 362.143 C 240.963 362.294,239.530 362.684,239.066 363.009 C 238.602 363.334,237.404 363.600,236.405 363.600 C 235.352 363.600,233.960 363.936,233.096 364.400 C 232.166 364.898,230.810 365.207,229.501 365.218 C 228.346 365.227,226.680 365.506,225.800 365.836 C 224.920 366.167,221.950 366.602,219.200 366.804 C 216.450 367.006,213.480 367.353,212.600 367.576 C 209.927 368.252,184.747 368.116,181.400 367.407 C 179.860 367.081,177.211 366.811,175.514 366.807 C 173.758 366.803,171.617 366.525,170.546 366.161 C 169.511 365.810,167.390 365.379,165.832 365.203 C 164.275 365.027,162.280 364.602,161.400 364.259 C 160.520 363.916,159.119 363.627,158.286 363.618 C 157.453 363.608,156.373 363.351,155.886 363.046 C 155.399 362.741,154.011 362.369,152.802 362.219 C 151.593 362.069,150.333 361.712,150.002 361.426 C 149.671 361.140,148.612 360.787,147.649 360.640 C 146.686 360.494,145.521 360.110,145.060 359.787 C 144.599 359.464,143.857 359.194,143.411 359.186 C 142.965 359.179,141.880 358.825,141.000 358.400 C 140.120 357.975,139.130 357.620,138.800 357.611 C 138.470 357.602,137.722 357.346,137.139 357.041 C 136.555 356.737,135.385 356.261,134.539 355.983 C 133.692 355.706,132.640 355.255,132.200 354.981 C 131.760 354.707,130.950 354.360,130.400 354.210 C 129.850 354.059,128.140 353.343,126.600 352.617 C 125.060 351.892,123.530 351.188,123.200 351.052 C 122.870 350.916,122.330 350.624,122.000 350.402 C 121.670 350.181,120.950 349.815,120.400 349.590 C 119.850 349.365,118.680 348.748,117.800 348.218 C 116.920 347.688,115.631 346.989,114.937 346.663 C 114.242 346.338,112.663 345.425,111.429 344.636 C 110.194 343.846,109.008 343.200,108.792 343.200 C 108.577 343.200,108.400 343.053,108.400 342.874 C 108.400 342.695,107.815 342.237,107.100 341.858 C 104.459 340.455,99.989 337.482,96.738 334.964 C 95.342 333.884,93.720 332.640,93.134 332.200 C 91.135 330.700,86.605 326.885,84.231 324.703 L 81.863 322.526 81.891 316.115 L 81.920 309.704 83.160 307.992 C 86.229 303.755,80.955 299.628,77.784 303.785 C 76.473 305.504,76.679 306.619,78.695 308.729 C 79.308 309.370,79.312 309.654,78.764 314.200 C 78.229 318.637,77.986 318.927,76.312 317.123 C 72.740 313.273,68.177 308.013,65.798 305.000 C 64.929 303.900,64.016 302.820,63.770 302.600 C 63.523 302.380,62.709 301.300,61.961 300.200 C 61.212 299.100,60.426 298.075,60.214 297.923 C 59.478 297.396,62.064 296.800,65.088 296.800 C 67.711 296.800,68.303 296.936,69.436 297.800 C 71.186 299.135,72.769 299.094,74.125 297.678 C 77.415 294.244,72.916 289.535,69.273 292.600 C 68.069 293.613,58.601 294.166,57.393 293.294 C 56.243 292.463,49.054 280.472,46.185 274.600 C 45.325 272.840,44.561 271.277,44.487 271.127 C 44.412 270.977,47.311 270.797,50.927 270.727 L 57.503 270.600 63.009 265.200 C 66.037 262.230,72.044 256.318,76.357 252.063 C 91.873 236.755,95.188 233.584,96.087 233.188 C 96.589 232.967,97.923 232.282,99.052 231.666 C 105.475 228.157,114.637 228.075,121.742 231.462 C 125.225 233.123,125.832 233.527,128.254 235.807 C 129.544 237.021,132.397 239.676,134.593 241.707 C 136.790 243.738,139.599 246.390,140.835 247.600 C 145.321 251.989,161.044 267.141,162.782 268.750 L 164.565 270.400 175.002 270.400 C 186.029 270.400,186.792 270.280,185.933 268.674 C 185.463 267.797,181.137 263.478,171.437 254.200 C 167.986 250.900,163.393 246.490,161.230 244.400 C 144.269 228.013,140.410 224.323,139.405 223.532 C 138.774 223.036,137.795 222.200,137.229 221.674 C 136.663 221.148,135.570 220.371,134.800 219.948 C 134.030 219.524,132.860 218.825,132.200 218.393 C 131.540 217.962,130.730 217.495,130.400 217.356 C 130.070 217.217,129.080 216.776,128.200 216.375 C 127.320 215.975,126.060 215.522,125.400 215.368 C 124.740 215.215,123.969 214.907,123.686 214.684 C 123.155 214.265,119.451 213.535,113.694 212.714 C 110.293 212.229,109.891 212.263,101.514 213.736 C 99.817 214.034,98.197 214.465,97.914 214.693 C 97.631 214.921,96.770 215.239,96.000 215.400 C 95.230 215.561,94.150 215.921,93.600 216.201 C 93.050 216.481,92.150 216.909,91.600 217.152 C 90.534 217.623,90.406 217.700,86.400 220.244 C 83.833 221.874,79.850 225.476,70.727 234.419 C 68.156 236.939,62.144 242.780,57.366 247.400 C 52.587 252.020,47.160 257.295,45.306 259.123 C 43.396 261.005,41.662 262.393,41.306 262.323 C 40.508 262.167,38.957 258.358,36.370 250.200 C 33.446 240.983,33.278 240.410,32.861 238.200 C 32.653 237.100,32.208 235.030,31.873 233.600 C 30.130 226.157,28.855 217.281,29.403 216.395 C 29.815 215.728,35.238 215.910,36.019 216.617 C 38.343 218.720,42.000 216.920,42.000 213.674 C 42.000 211.694,42.228 211.600,47.027 211.600 C 50.506 211.600,50.934 211.690,52.738 212.800 C 55.195 214.312,56.153 214.309,57.678 212.784 C 60.601 209.860,56.634 205.855,53.105 208.168 C 52.263 208.720,50.383 208.835,40.450 208.944 L 28.783 209.072 28.554 208.159 C 28.161 206.593,28.644 206.400,32.954 206.400 C 36.817 206.400,37.116 206.459,38.000 207.400 C 39.873 209.393,44.632 207.020,43.829 204.493 C 42.992 201.861,40.128 200.885,37.899 202.472 C 36.896 203.186,35.972 203.373,32.781 203.508 L 28.886 203.672 28.408 202.223 C 26.500 196.442,29.752 167.841,34.085 152.300 C 35.333 147.824,33.874 146.971,48.187 160.557 C 60.419 172.169,64.492 176.092,72.800 184.260 C 79.856 191.197,81.764 192.981,84.200 194.917 C 85.387 195.861,90.265 198.795,90.651 198.797 C 90.899 198.799,91.322 199.065,91.591 199.389 C 91.860 199.714,92.694 200.094,93.445 200.235 C 94.195 200.375,95.475 200.830,96.289 201.245 C 97.103 201.660,98.159 202.000,98.636 202.000 C 99.112 202.000,100.199 202.304,101.051 202.676 C 103.267 203.643,117.498 203.702,119.607 202.752 C 120.380 202.404,121.851 201.993,122.874 201.840 C 123.897 201.686,124.951 201.300,125.216 200.980 C 125.481 200.661,126.030 200.400,126.437 200.400 C 127.101 200.400,129.637 199.321,131.200 198.372 C 131.530 198.172,132.430 197.665,133.200 197.245 C 137.580 194.859,145.850 187.066,145.295 185.848 C 144.973 185.142,135.738 179.200,134.963 179.200 C 134.842 179.200,134.473 178.930,134.143 178.600 C 132.871 177.328,131.344 177.862,128.007 180.746 C 125.242 183.135,121.268 185.595,120.160 185.602 C 119.962 185.604,119.260 185.887,118.600 186.231 C 114.423 188.411,102.404 187.490,98.397 184.683 C 97.861 184.307,97.280 184.000,97.107 184.000 C 96.223 184.000,92.024 180.529,87.200 175.812 C 84.230 172.907,78.110 166.917,73.600 162.500 C 69.090 158.082,63.633 152.788,61.473 150.734 L 57.547 147.000 47.073 146.800 C 36.613 146.600,36.600 146.599,36.473 145.708 C 36.361 144.919,37.816 139.970,38.798 137.800 C 38.997 137.360,39.993 134.930,41.010 132.400 C 42.528 128.626,46.952 119.261,48.381 116.800 C 53.502 107.973,56.448 103.278,60.504 97.475 C 64.339 91.989,74.947 79.801,80.600 74.386 C 85.332 69.853,94.130 62.400,94.748 62.400 C 94.898 62.400,95.572 61.897,96.245 61.282 C 97.403 60.225,101.194 57.513,102.839 56.564 C 103.254 56.325,103.925 55.830,104.329 55.464 C 106.714 53.306,107.816 57.202,105.988 61.333 C 104.644 64.372,105.797 66.509,108.779 66.509 C 112.809 66.509,113.733 63.808,110.990 60.041 C 108.372 56.447,109.800 51.604,114.113 49.448 C 115.380 48.814,116.514 48.139,116.632 47.948 C 116.750 47.757,117.197 47.600,117.624 47.600 C 118.787 47.600,118.768 52.806,117.600 54.291 C 115.224 57.312,119.035 61.188,122.381 59.153 C 124.699 57.744,124.985 55.894,123.200 53.861 C 122.089 52.596,122.000 52.266,122.000 49.421 C 122.000 44.992,121.930 45.066,128.918 42.055 C 131.231 41.059,131.367 41.235,131.133 44.922 C 131.011 46.836,130.764 47.636,130.087 48.313 C 127.163 51.237,132.381 55.487,135.647 52.843 C 136.905 51.823,136.927 49.396,135.691 47.825 C 134.562 46.390,134.332 39.721,135.400 39.387 C 136.378 39.082,136.964 38.827,137.600 38.432 C 138.281 38.008,141.441 36.946,143.752 36.364 C 144.605 36.149,145.681 35.709,146.141 35.386 C 146.601 35.064,147.433 34.794,147.989 34.786 C 148.545 34.779,149.720 34.425,150.600 34.000 C 151.480 33.575,152.794 33.221,153.520 33.214 C 154.246 33.206,155.326 32.953,155.920 32.652 C 156.514 32.351,157.900 31.982,159.000 31.833 C 160.100 31.684,161.810 31.315,162.800 31.012 C 172.327 28.099,201.111 26.796,216.614 28.575 M301.345 66.219 C 301.615 69.734,301.114 72.062,300.373 70.737 C 299.990 70.052,300.380 62.800,300.800 62.800 C 300.955 62.800,301.200 64.339,301.345 66.219 M173.514 146.000 L 163.629 146.200 161.714 148.079 C 155.758 153.926,146.477 162.929,141.220 167.960 C 133.441 175.402,133.450 175.148,140.800 179.347 C 144.455 181.435,144.864 181.678,146.084 182.484 C 148.393 184.010,148.539 183.907,159.527 173.037 C 165.177 167.448,171.577 161.193,173.750 159.137 C 188.783 144.913,188.796 145.691,173.514 146.000 M362.300 158.300 C 362.430 158.689,360.788 158.796,354.933 158.782 C 348.192 158.766,347.526 158.706,348.600 158.209 C 350.213 157.464,362.048 157.542,362.300 158.300 M310.976 175.387 C 310.549 175.710,309.907 175.980,309.548 175.987 C 307.063 176.036,301.297 182.832,300.219 186.984 C 299.391 190.174,299.284 228.651,300.100 229.672 C 301.367 231.258,302.376 230.897,305.457 227.755 C 307.076 226.104,308.400 224.701,308.400 224.637 C 308.400 224.573,309.753 223.098,311.407 221.360 C 315.337 217.231,315.284 217.479,315.158 203.842 C 315.015 188.282,313.655 189.600,329.845 189.600 L 341.718 189.600 347.659 183.527 C 353.542 177.512,354.263 176.423,353.120 175.280 C 352.336 174.496,312.019 174.599,310.976 175.387 M162.200 175.800 C 161.100 176.111,160.096 176.373,159.970 176.382 C 159.266 176.436,155.059 180.046,154.031 181.479 C 151.790 184.600,152.156 186.299,155.400 187.840 C 156.060 188.153,157.770 189.129,159.200 190.009 C 163.796 192.836,163.448 192.786,165.263 190.879 L 166.860 189.200 187.001 189.200 L 207.142 189.200 207.971 190.254 C 208.773 191.274,208.800 191.753,208.800 205.080 C 208.800 219.603,208.851 220.023,210.692 220.759 C 211.301 221.003,212.281 221.517,212.869 221.901 C 218.108 225.327,221.635 226.914,222.152 226.078 C 222.651 225.271,222.496 185.375,221.988 183.697 C 220.999 180.436,217.832 177.598,213.600 176.181 C 210.608 175.179,165.583 174.846,162.200 175.800 M240.200 175.993 C 233.555 176.436,228.161 179.881,226.649 184.646 C 226.380 185.493,227.662 187.600,228.445 187.600 C 228.658 187.600,229.320 187.934,229.916 188.341 C 237.488 193.519,238.032 193.712,239.942 191.888 C 242.418 189.522,241.670 189.600,261.889 189.600 L 280.630 189.600 282.015 190.756 L 283.400 191.911 283.617 206.456 C 283.737 214.455,283.872 221.043,283.917 221.095 C 284.200 221.419,289.982 225.117,290.772 225.479 C 291.087 225.623,292.253 226.339,293.363 227.070 C 298.533 230.476,298.519 230.539,298.221 206.519 C 297.905 180.955,297.961 181.205,291.687 177.594 C 288.503 175.762,257.901 174.811,240.200 175.993 M151.549 189.862 C 151.101 190.403,151.000 193.954,151.000 209.162 L 151.000 227.800 152.066 229.800 C 153.352 232.212,155.827 234.661,158.800 236.465 L 161.000 237.800 186.800 237.800 L 212.600 237.800 214.400 236.783 C 221.489 232.779,222.273 230.974,218.100 228.263 C 210.398 223.260,209.532 222.980,207.277 224.775 L 205.800 225.949 186.956 226.176 C 162.376 226.473,164.800 228.264,164.800 209.806 C 164.800 197.211,164.797 197.169,163.900 196.360 C 162.879 195.439,157.626 192.000,157.242 192.000 C 157.103 192.000,156.054 191.370,154.910 190.600 C 152.539 189.003,152.304 188.952,151.549 189.862 M225.214 190.774 C 224.651 191.826,224.654 226.459,225.218 228.488 C 225.742 230.376,227.292 232.225,229.150 233.180 C 229.948 233.590,231.829 234.752,233.331 235.762 C 234.834 236.773,236.201 237.600,236.370 237.600 C 236.539 237.600,237.083 237.952,237.579 238.381 C 238.973 239.591,240.436 239.660,261.946 239.526 L 282.093 239.400 281.802 249.465 C 281.392 263.685,282.056 267.600,284.877 267.600 C 285.041 267.600,286.216 268.280,287.487 269.111 C 297.440 275.614,297.100 276.207,297.467 251.657 L 297.730 234.039 296.820 232.719 C 295.881 231.357,292.789 229.200,291.775 229.200 C 291.459 229.200,291.200 229.016,291.200 228.790 C 291.200 228.565,290.760 228.213,290.222 228.008 C 289.684 227.804,288.321 226.988,287.193 226.195 C 284.255 224.130,282.651 224.302,282.477 226.700 C 282.409 227.635,282.319 228.398,282.277 228.395 C 282.235 228.392,281.051 228.029,279.646 227.589 C 277.794 227.009,276.420 226.842,274.646 226.984 C 273.301 227.092,265.510 227.283,257.332 227.409 L 242.465 227.638 241.032 226.206 L 239.600 224.773 239.600 211.368 L 239.600 197.962 238.567 197.004 C 237.999 196.478,235.704 195.017,233.467 193.758 C 231.230 192.498,228.971 191.138,228.446 190.734 C 227.206 189.780,225.736 189.798,225.214 190.774 M34.576 212.187 C 33.538 212.973,30.248 212.981,29.600 212.200 C 29.165 211.675,29.495 211.600,32.227 211.600 C 35.061 211.600,35.280 211.655,34.576 212.187 M240.627 269.630 C 239.856 270.307,238.314 272.422,237.199 274.330 C 236.085 276.239,234.954 278.126,234.686 278.525 C 233.236 280.686,241.268 281.622,256.137 281.024 C 259.912 280.873,268.310 280.622,274.800 280.467 C 286.054 280.198,286.683 280.142,288.400 279.261 C 289.390 278.752,290.470 278.198,290.800 278.029 C 293.661 276.562,292.795 274.823,287.758 271.915 C 285.581 270.659,283.448 269.354,283.019 269.015 C 282.339 268.480,279.619 268.400,262.133 268.400 L 242.028 268.400 240.627 269.630 M116.382 311.900 C 115.382 312.794,115.148 313.321,115.129 314.716 C 115.095 317.168,109.915 322.253,106.520 323.168 C 103.757 323.912,102.875 326.207,104.396 328.700 C 106.276 331.784,111.200 329.842,111.200 326.016 C 111.200 323.471,116.269 318.212,119.161 317.756 C 122.553 317.221,123.541 314.403,121.169 312.031 C 119.594 310.456,118.045 310.414,116.382 311.900 " stroke="none" fill="#0f0b06" fill-rule="evenodd"></path></g></svg>