<svg width="256" height="256" viewBox="0 0 256 256" fill="none" xmlns="http://www.w3.org/2000/svg">
<path d="M128 256C198.692 256 256 198.692 256 128C256 57.3075 198.692 0 128 0C57.3075 0 0 57.3075 0 128C0 198.692 57.3075 256 128 256Z" fill="white"/>
<path d="M176.755 107.699C176.649 107.708 176.584 107.652 176.509 107.615C173.345 111.269 170.179 114.924 167.014 118.578C166.57 119.093 165.772 118.403 166.216 117.888C171.656 111.605 177.097 105.322 182.537 99.0395C182.34 96.2816 182.143 93.5224 181.943 90.7631C181.894 90.085 182.946 90.0097 182.996 90.6877C183.168 93.0945 183.342 95.5027 183.514 97.9108C185.032 96.1579 186.548 94.4062 188.067 92.6546C188.512 92.1394 189.31 92.8309 188.864 93.3461C185.038 97.7628 181.215 102.18 177.389 106.595C179.983 106.411 182.579 106.224 185.173 106.037C185.852 105.988 185.928 107.042 185.248 107.09C182.418 107.293 179.586 107.496 176.755 107.699V107.699ZM201.991 78.5139C201.946 77.9367 201.449 77.5049 200.87 77.5412C200.072 77.5937 181.214 78.9753 170.468 92.1488C164.503 99.462 162.275 108.953 163.848 120.367C163.883 120.628 164.014 120.857 164.202 121.02C164.39 121.184 164.634 121.279 164.901 121.278C176.421 121.201 185.496 117.64 191.882 110.691C203.385 98.1718 202.054 79.3103 201.991 78.5139V78.5139Z" fill="#78A640"/>
<path d="M181.544 134.69C181.485 134.607 181.498 134.529 181.493 134.448C176.988 133.684 172.483 132.92 167.979 132.157C167.344 132.048 167.511 131.066 168.145 131.174C175.89 132.487 183.634 133.8 191.376 135.114C193.508 133.602 195.639 132.087 197.772 130.575C198.296 130.202 198.873 131.016 198.347 131.388C196.488 132.709 194.628 134.03 192.767 135.348C194.928 135.717 197.085 136.082 199.247 136.449C199.88 136.555 199.714 137.539 199.079 137.434C193.636 136.508 188.19 135.585 182.746 134.662C184.169 136.667 185.591 138.67 187.014 140.675C187.39 141.201 186.576 141.778 186.203 141.253C184.651 139.064 183.097 136.877 181.544 134.69ZM217.501 140.762C217.945 140.442 218.048 139.828 217.736 139.38C217.302 138.76 206.936 124.204 191.023 121.983C182.19 120.752 173.432 123.606 164.982 130.476C164.787 130.633 164.666 130.85 164.628 131.081C164.588 131.314 164.629 131.559 164.761 131.772C170.474 141.04 177.802 146.626 186.545 148.375C202.303 151.529 216.889 141.205 217.501 140.762V140.762Z" fill="#8DC43F"/>
<path d="M155.477 71.2084C155.333 71.2326 155.241 71.1653 155.134 71.121C151.248 76.431 147.366 81.7396 143.482 87.0497C142.936 87.7963 141.776 86.9474 142.322 86.2021C148.999 77.074 155.676 67.9446 162.353 58.8193C161.777 55.0994 161.198 51.3836 160.623 47.6638C160.479 46.749 161.899 46.5283 162.042 47.4445C162.544 50.6908 163.047 53.9357 163.551 57.1807C165.415 54.6353 167.274 52.0886 169.137 49.5432C169.683 48.7952 170.842 49.6428 170.297 50.3908C165.602 56.808 160.906 63.2252 156.214 69.6411C159.712 69.1016 163.208 68.5568 166.705 68.0146C167.621 67.8733 167.842 69.2926 166.925 69.4339C163.109 70.0259 159.293 70.6165 155.477 71.2084V71.2084ZM186.444 28.8117C186.314 28.0327 185.592 27.5027 184.812 27.6184C183.738 27.7798 158.317 31.7593 145.213 50.8226C137.942 61.4036 135.982 74.5273 139.385 89.8264C139.466 90.1775 139.668 90.4722 139.941 90.674C140.217 90.8744 140.557 90.978 140.915 90.9457C156.53 89.556 168.44 83.7146 176.323 73.5789C190.525 55.316 186.614 29.8853 186.444 28.8117V28.8117Z" fill="#78A640"/>
<path d="M98.5316 80.3193C98.5544 80.4269 98.5073 80.4982 98.4791 80.5817C102.635 83.3046 106.791 86.0249 110.946 88.7465C111.53 89.1299 110.935 90.0366 110.353 89.6532C103.208 84.9755 96.0629 80.2978 88.9192 75.6187C86.137 76.1986 83.3576 76.7798 80.5741 77.3582C79.8893 77.5035 79.6687 76.4407 80.3535 76.2981C82.7818 75.7923 85.2088 75.2851 87.6371 74.7779C85.6447 73.4729 83.6509 72.1693 81.6584 70.8643C81.0732 70.4823 81.6679 69.5742 82.2531 69.9562C87.2752 73.2469 92.2986 76.5363 97.3208 79.8242C96.7773 77.2076 96.2297 74.5922 95.6835 71.9769C95.5409 71.2908 96.6024 71.0702 96.745 71.7549C97.3423 74.6097 97.9356 77.4645 98.5316 80.3193V80.3193ZM65.349 58.6232C64.7651 58.751 64.3938 59.3174 64.5122 59.9013C64.6763 60.7044 68.6706 79.7193 83.558 88.8568C91.8224 93.9273 101.795 94.8919 113.201 91.7277C113.462 91.6524 113.677 91.4896 113.817 91.2757C113.958 91.0591 114.023 90.7981 113.985 90.529C112.327 78.8085 107.456 70.0545 99.5042 64.5063C85.1765 54.5092 66.1508 58.4523 65.349 58.6232V58.6232Z" fill="#78A640"/>
<path d="M125.3 85.8198C125.78 86.2046 126.426 86.1454 126.75 85.6812C127.201 85.0409 137.689 69.77 133.967 51.9888C131.899 42.1235 125.83 33.4852 115.926 26.3105C115.699 26.1464 115.44 26.0791 115.197 26.102C114.955 26.1235 114.727 26.2392 114.566 26.4424C107.558 35.2072 104.774 44.6796 106.3 54.5988C109.049 72.4674 124.638 85.283 125.3 85.8198V85.8198Z" fill="#8DC43F"/>
<path d="M144.558 93.627C144.267 93.5315 143.954 93.6848 143.851 93.9727C143.711 94.3723 140.48 103.847 144.673 111.814C146.999 116.234 151.166 119.286 157.052 120.883C157.189 120.92 157.326 120.905 157.446 120.846C157.564 120.788 157.66 120.69 157.714 120.559C160.064 114.93 160.209 109.77 158.143 105.22C154.424 97.0199 144.959 93.7629 144.558 93.627Z" fill="#8DC43F"/>
<path d="M63.0243 123.261C62.8763 123.757 63.1521 124.28 63.6472 124.435C64.3279 124.652 80.5176 129.613 93.7597 122.102C101.109 117.931 106.044 110.73 108.435 100.694C108.49 100.465 108.455 100.231 108.348 100.034C108.245 99.8385 108.073 99.6798 107.852 99.5937C98.2114 95.9223 89.4802 95.9505 81.8993 99.6798C68.2374 106.402 63.2315 122.576 63.0243 123.261V123.261Z" fill="#8DC43F"/>
<path d="M168.515 212.09H150.2L138.303 167.84L112.729 212.09H92.2823L131.809 143.596L125.451 119.811L72.1495 212.109H51.6924L119.237 95.1045H137.149L144.99 124.174H163.469L150.853 146.113L168.515 212.09V212.09Z" fill="#955900"/>
<path d="M75.7681 97.0831C77.5617 97.0831 79.0158 95.6291 79.0158 93.8355C79.0158 92.0419 77.5617 90.5879 75.7681 90.5879C73.9745 90.5879 72.5205 92.0419 72.5205 93.8355C72.5205 95.6291 73.9745 97.0831 75.7681 97.0831Z" fill="#72E100"/>
<path d="M99.105 58.1876C100.899 58.1876 102.353 56.7336 102.353 54.94C102.353 53.1464 100.899 51.6924 99.105 51.6924C97.3114 51.6924 95.8574 53.1464 95.8574 54.94C95.8574 56.7336 97.3114 58.1876 99.105 58.1876Z" fill="#72E100"/>
<path d="M161.838 96.5812C163.632 96.5812 165.086 95.1272 165.086 93.3336C165.086 91.54 163.632 90.0859 161.838 90.0859C160.045 90.0859 158.591 91.54 158.591 93.3336C158.591 95.1272 160.045 96.5812 161.838 96.5812Z" fill="#72E100"/>
<path d="M196.969 119.416C198.763 119.416 200.217 117.962 200.217 116.169C200.217 114.375 198.763 112.921 196.969 112.921C195.176 112.921 193.722 114.375 193.722 116.169C193.722 117.962 195.176 119.416 196.969 119.416Z" fill="#72E100"/>
<path d="M162.089 146.768C163.883 146.768 165.337 145.314 165.337 143.52C165.337 141.726 163.883 140.272 162.089 140.272C160.296 140.272 158.842 141.726 158.842 143.52C158.842 145.314 160.296 146.768 162.089 146.768Z" fill="#72E100"/>
<path d="M139.003 51.9142C140.797 51.9142 142.251 50.4602 142.251 48.6666C142.251 46.873 140.797 45.4189 139.003 45.4189C137.21 45.4189 135.756 46.873 135.756 48.6666C135.756 50.4602 137.21 51.9142 139.003 51.9142Z" fill="#72E100"/>
<path d="M132.228 212.262C134.022 212.262 135.476 210.808 135.476 209.014C135.476 207.221 134.022 205.767 132.228 205.767C130.434 205.767 128.98 207.221 128.98 209.014C128.98 210.808 130.434 212.262 132.228 212.262Z" fill="#72E100"/>
</svg>
