<svg width="257" height="257" viewBox="0 0 257 257" fill="none" xmlns="http://www.w3.org/2000/svg">
<path d="M106.993 170.036C106.993 144.809 106.993 120.012 106.993 94.7383C128.188 107.274 149.132 119.661 170.616 132.368C149.246 145.02 128.264 157.438 106.993 170.036Z" fill="#0B213C"/>
<path d="M1.04036 133.769C1.8462 132.638 49.9228 132.731 67.8337 132.794C68.3659 133.121 68.8905 133.441 69.4226 133.769C69.5214 135.789 69.7267 137.848 70.0536 139.955C73.3226 160.797 87.1891 175.252 96.5475 183.099C83.9581 200.517 71.3764 217.936 58.7871 235.354C56.1035 234.044 53.5719 232.624 51.1696 231.119C14.694 208.224 4.18769 161.476 0.71346 136.21C0.591824 135.906 0.477788 135.485 0.538606 134.994C0.546208 134.986 0.614631 134.362 1.04036 133.769Z" fill="#41938C"/>
<path d="M102.857 186.719C105.876 187.616 109.061 188.458 112.406 189.222C118.229 190.549 123.764 191.446 128.918 192.038C131.047 192.28 132.696 194.059 132.803 196.251L135.517 251.774C135.638 254.185 133.867 256.244 131.518 256.447C130.416 256.54 129.298 256.618 128.173 256.673C105.944 257.773 87.0143 250.675 73.3226 243.233" fill="#41938C"/>
<path d="M143.271 191.273C148.501 188.995 153.739 186.725 158.97 184.448C160.824 183.644 162.976 184.268 164.139 185.953C174.797 201.343 185.456 216.734 196.107 232.124C197.3 233.848 197.148 236.227 195.696 237.733C195.688 237.74 195.681 237.748 195.673 237.756C182.27 251.641 163.196 254.317 149.93 254.387" fill="#41938C"/>
<path d="M169.248 178.738C171.369 177.03 173.749 174.854 176.128 172.131C178.211 169.752 179.906 167.397 181.282 165.22C182.453 163.364 184.81 162.74 186.718 163.777C202.941 172.638 219.172 181.5 235.395 190.361C237.136 191.313 238.01 193.395 237.425 195.338C237.425 195.346 237.417 195.361 237.417 195.369C232.256 212.405 217.895 222.741 207.442 228.404" fill="#41938C"/>
<path d="M187.676 155.227C188.238 153.886 188.831 152.146 189.227 150.063C189.394 149.182 189.516 148.347 189.592 147.552C189.812 145.297 191.827 143.69 194.024 143.956C212.596 146.233 231.161 148.511 249.733 150.789C252.006 151.07 253.572 153.246 253.177 155.555C252.493 159.564 251.626 163.816 250.524 168.262C248.494 176.46 246.076 183.691 243.644 189.9" fill="#41938C"/>
<path d="M198.547 138.27C194.313 137.989 191.013 134.385 191.013 130.024V123.168C191.013 122.591 191.203 122.037 191.561 121.592L192.404 120.531C192.792 120.04 193.355 119.72 193.963 119.642L226.987 115.211L252.835 110.999C254.051 110.804 255.214 111.568 255.549 112.785L256.431 116.023C256.491 116.241 256.522 116.467 256.522 116.693V132.567V138.324C256.522 139.12 256.149 139.869 255.526 140.337L254.173 141.343C253.717 141.686 253.162 141.85 252.591 141.811L198.547 138.27Z" fill="#41938C"/>
<path d="M185.456 105.375C186.247 107.216 187.045 109.057 187.835 110.905C188.892 113.37 191.538 114.681 194.077 114.002C211.973 109.252 229.861 104.493 247.756 99.7428C250.478 99.0173 252.204 96.2638 251.687 93.4244C251.177 90.624 250.288 87.3791 248.745 83.9547C247.08 80.2728 245.111 77.3945 243.416 75.2961" fill="#41938C"/>
<path d="M179.442 95.3902C179.572 94.2435 180.126 93.4245 180.347 93.1124C181.32 91.724 182.681 91.1857 182.894 91.0921C184.543 90.3511 196.167 80.8579 228.059 53.4081C229.526 52.1444 231.731 52.4252 232.856 54.0087C234.505 56.3488 236.155 58.689 237.805 61.0291C238.915 62.6048 238.504 64.8124 236.908 65.8576C219.529 77.2697 202.158 88.6896 184.779 100.102C183.624 100.663 182.742 100.523 182.4 100.437C180.377 99.9534 179.214 97.3949 179.442 95.3902Z" fill="#41938C"/>
<path d="M136.946 70.1947C139.303 47.3783 141.659 24.5698 144.024 1.75339C143.91 1.61299 143.849 1.55058 143.735 1.41017L125.862 0.786133C125.55 1.09815 125.383 1.26196 125.079 1.57398C125.277 24.5073 125.474 47.4329 125.664 70.3663L126.66 71.0449C128.257 71.6534 132.24 72.8936 135.79 70.9591C136.163 70.7563 136.558 70.5067 136.946 70.1947Z" fill="#41938C"/>
<path d="M140.542 69.9297C140.496 71.0451 140.975 71.7394 140.975 71.7394C141.659 72.7145 142.982 72.8783 143.803 72.9797C144.388 73.0499 145.354 73.0889 146.525 72.7534C154.553 51.349 162.588 29.9445 170.616 8.54001C170.396 8.04858 170.282 7.79115 170.061 7.29972C169.293 7.03451 168.115 6.64449 166.648 6.23106C165.196 5.81764 164.375 5.64603 161.973 5.1C157.905 4.17954 154.142 3.29028 154.142 3.29028C154.142 3.29028 153.504 3.90653 152.508 4.87379C150.957 12.9551 140.671 66.8719 140.542 69.9297Z" fill="#41938C"/>
<path d="M174.683 11.106L176.531 9.88135L180.119 11.106L190.884 16.6833L191.538 18.6881L156.955 75.296H154.781C154.781 75.296 152.386 74.1415 152.059 74.1415C151.732 74.1415 150.751 71.9964 150.751 71.9964L174.683 11.106Z" fill="#41938C"/>
<path d="M161.22 75.9746L196.623 22.6428C196.927 22.1826 197.376 21.855 197.901 21.7067L197.984 21.6833C198.661 21.4883 199.383 21.6287 199.946 22.05L207.031 27.3699C207.616 27.8145 207.966 28.5166 207.966 29.2576V29.5774C207.966 30.1157 207.783 30.6383 207.449 31.0595L184.391 60.0928L168.085 80.6549C167.651 81.2009 166.997 81.5207 166.313 81.5207H165.295C164.762 81.5207 164.238 81.3257 163.827 80.9747L161.638 79.0948C161.121 78.6502 160.817 77.9871 160.817 77.2929C160.817 76.8171 160.961 76.3568 161.22 75.9746Z" fill="#41938C"/>
<path d="M222.996 46.2863L179.632 89.1108C178.051 90.6709 175.542 90.6163 174.022 89.0016L170.829 85.6006C169.309 83.9781 169.362 81.4039 170.935 79.8438L214.299 37.0193C215.88 35.4592 218.389 35.5138 219.909 37.1285L223.102 40.5295C224.623 42.152 224.569 44.7262 222.996 46.2863Z" fill="#41938C"/>
</svg>
