<?xml version="1.0" encoding="UTF-8"?>
<svg xmlns="http://www.w3.org/2000/svg" xmlns:xlink="http://www.w3.org/1999/xlink" width="255px" height="255px" viewBox="0 0 255 254" version="1.1">
<g id="surface1">
<path style=" stroke:none;fill-rule:evenodd;fill:rgb(10.196078%,49.411765%,83.137255%);fill-opacity:1;" d="M 117.113281 60.378906 C 117.5 60.4375 118.074219 60.4375 118.386719 60.378906 C 118.699219 60.316406 118.382812 60.269531 117.683594 60.269531 C 116.980469 60.273438 116.722656 60.320312 117.113281 60.378906 M 122.085938 60.382812 C 122.542969 60.4375 123.234375 60.4375 123.617188 60.378906 C 124 60.320312 123.625 60.277344 122.78125 60.277344 C 121.941406 60.277344 121.628906 60.324219 122.085938 60.382812 M 85.550781 68.34375 C 85.132812 68.613281 84.917969 68.832031 85.078125 68.832031 C 85.238281 68.832031 85.640625 68.609375 85.96875 68.335938 C 86.730469 67.707031 86.546875 67.710938 85.550781 68.34375 M 118.257812 68.503906 C 118.570312 68.566406 119.089844 68.566406 119.402344 68.503906 C 119.71875 68.445312 119.460938 68.394531 118.828125 68.394531 C 118.199219 68.394531 117.941406 68.445312 118.257812 68.503906 M 120.9375 68.507812 C 121.324219 68.566406 121.898438 68.566406 122.210938 68.503906 C 122.527344 68.445312 122.207031 68.398438 121.507812 68.398438 C 120.804688 68.398438 120.550781 68.449219 120.9375 68.507812 M 82.238281 70.078125 C 74.96875 74.363281 67.246094 80.445312 63.558594 84.785156 L 61.964844 86.664062 L 61.964844 166.28125 L 62.539062 166.789062 C 63.144531 167.324219 65.386719 168.800781 66.683594 169.519531 C 67.101562 169.75 67.792969 170.160156 68.210938 170.429688 C 68.632812 170.695312 69.820312 171.40625 70.847656 172.007812 C 71.875 172.609375 72.964844 173.25 73.269531 173.433594 C 73.574219 173.617188 74.25 174.015625 74.773438 174.320312 C 75.292969 174.628906 76.882812 175.566406 78.300781 176.402344 C 79.722656 177.242188 81.246094 178.128906 81.6875 178.375 C 82.128906 178.625 82.90625 179.082031 83.410156 179.394531 C 83.914062 179.703125 87.394531 181.730469 91.144531 183.894531 C 94.894531 186.0625 98.382812 188.078125 98.898438 188.378906 C 99.410156 188.679688 100.570312 189.300781 101.472656 189.757812 C 102.375 190.214844 104.382812 191.3125 105.9375 192.195312 L 108.757812 193.800781 L 113.601562 193.796875 C 118.28125 193.792969 127.222656 193.242188 127.734375 192.925781 C 127.871094 192.839844 129.109375 192.554688 130.484375 192.285156 C 133.117188 191.769531 134.527344 191.429688 138.4375 190.371094 C 141.730469 189.480469 141.695312 189.53125 140.761719 186.878906 C 140.480469 186.082031 140.25 185.160156 140.25 184.824219 C 140.25 183 139.40625 181.699219 138.640625 182.332031 C 138.332031 182.585938 135.695312 183.496094 133.109375 184.238281 C 130.652344 184.941406 126.925781 185.707031 124.824219 185.9375 C 123.699219 186.0625 122.117188 186.277344 121.304688 186.414062 C 119.695312 186.691406 118.746094 186.480469 118.484375 185.800781 C 118.105469 184.828125 118.300781 118.230469 118.679688 117.714844 C 118.988281 117.292969 119.46875 117.199219 121.933594 117.074219 L 124.824219 116.925781 L 122.625 116.882812 C 119.207031 116.816406 118.917969 116.714844 118.726562 115.539062 C 118.628906 114.929688 118.238281 114.179688 117.710938 113.597656 C 116.96875 112.773438 116.480469 112.007812 115.390625 109.949219 C 115.253906 109.6875 115.039062 109.472656 114.921875 109.472656 C 114.800781 109.472656 114.398438 109.238281 114.023438 108.945312 C 113.652344 108.65625 112.257812 107.628906 110.925781 106.664062 C 109.59375 105.695312 108.339844 104.761719 108.140625 104.585938 C 107.941406 104.410156 107.539062 104.128906 107.246094 103.957031 C 106.738281 103.664062 106.746094 103.648438 107.417969 103.640625 C 107.847656 103.636719 108.121094 103.765625 108.121094 103.980469 C 108.121094 104.1875 108.519531 104.394531 109.113281 104.488281 C 109.65625 104.574219 110.171875 104.816406 110.25 105.027344 C 110.332031 105.238281 110.617188 105.410156 110.882812 105.410156 C 111.148438 105.410156 111.640625 105.613281 111.972656 105.863281 C 112.308594 106.113281 113.242188 106.65625 114.046875 107.070312 C 116.230469 108.195312 116.855469 108.546875 117.546875 109.03125 C 117.894531 109.273438 118.28125 109.472656 118.410156 109.472656 C 118.726562 109.472656 117.511719 108.535156 116.757812 108.195312 C 116.425781 108.046875 115.695312 107.652344 115.132812 107.316406 C 114.570312 106.984375 113.824219 106.550781 113.476562 106.347656 C 108.164062 103.316406 84.585938 89.738281 84.023438 89.390625 C 83.601562 89.128906 82.914062 88.742188 82.492188 88.527344 C 82.070312 88.316406 81.324219 87.890625 80.835938 87.589844 C 80.34375 87.285156 79.195312 86.625 78.285156 86.121094 C 75.976562 84.851562 75.914062 84.230469 77.953125 82.898438 C 78.765625 82.367188 79.488281 81.871094 79.558594 81.792969 C 79.679688 81.660156 82.335938 79.910156 84.023438 78.851562 C 85.347656 78.019531 86.238281 77.535156 89.179688 76.039062 C 90.753906 75.234375 92.007812 74.542969 91.960938 74.496094 C 91.914062 74.449219 91.542969 74.585938 91.136719 74.796875 C 90.730469 75.007812 90.226562 75.183594 90.015625 75.183594 C 89.804688 75.1875 89.289062 75.414062 88.867188 75.691406 C 87.957031 76.292969 86.699219 76.371094 86.699219 75.828125 C 86.699219 75.625 86.929688 75.332031 87.210938 75.183594 C 87.949219 74.789062 87.847656 74.382812 86.703125 73.1875 C 86.144531 72.601562 85.613281 71.828125 85.523438 71.46875 C 85.382812 70.921875 85.253906 70.84375 84.691406 70.972656 C 83.023438 71.363281 82.167969 71.417969 82 71.148438 C 81.902344 70.988281 81.992188 70.867188 82.207031 70.867188 C 82.417969 70.867188 82.742188 70.664062 82.925781 70.417969 C 83.109375 70.171875 83.574219 69.832031 83.957031 69.660156 C 84.34375 69.492188 84.660156 69.234375 84.660156 69.09375 C 84.660156 68.695312 84.429688 68.789062 82.238281 70.078125 M 96 83.011719 C 94.195312 83.945312 90.195312 86.28125 89.519531 86.796875 C 89.214844 87.027344 91.078125 88.195312 98.941406 92.6875 C 108.496094 98.148438 108.234375 97.996094 109.203125 98.632812 C 109.589844 98.886719 110.109375 99.042969 110.351562 98.980469 C 110.726562 98.882812 110.71875 98.859375 110.289062 98.832031 C 110.007812 98.808594 109.492188 98.570312 109.140625 98.296875 C 108.789062 98.023438 108.359375 97.800781 108.183594 97.796875 C 108.007812 97.792969 107.863281 97.695312 107.863281 97.582031 C 107.863281 97.46875 107.492188 97.183594 107.035156 96.945312 C 106.582031 96.707031 105.863281 96.289062 105.441406 96.015625 C 105.023438 95.742188 104.230469 95.257812 103.6875 94.941406 C 103.140625 94.621094 102.484375 94.238281 102.222656 94.085938 C 101.960938 93.933594 101.539062 93.617188 101.28125 93.386719 C 101.023438 93.152344 100.621094 92.964844 100.386719 92.964844 C 100.152344 92.964844 99.960938 92.792969 99.960938 92.589844 C 99.960938 92.382812 99.671875 92.140625 99.316406 92.050781 C 98.960938 91.960938 98.554688 91.675781 98.414062 91.410156 C 98.269531 91.140625 97.882812 90.933594 97.527344 90.933594 C 97.183594 90.933594 96.898438 90.816406 96.898438 90.679688 C 96.898438 90.28125 97.839844 90.378906 98.285156 90.824219 C 98.503906 91.042969 98.683594 91.164062 98.683594 91.09375 C 98.683594 91.023438 99.035156 91.066406 99.464844 91.191406 C 100.863281 91.589844 100.652344 90.828125 98.8125 88.839844 C 97.871094 87.828125 96.988281 86.679688 96.851562 86.296875 C 96.585938 85.574219 96.433594 85.515625 94.757812 85.488281 C 93.582031 85.46875 93.261719 84.945312 94.203125 84.589844 C 94.5625 84.453125 94.859375 84.246094 94.859375 84.132812 C 94.859375 84.015625 95.609375 83.542969 96.523438 83.074219 C 97.441406 82.605469 98.25 82.125 98.324219 82.003906 C 98.507812 81.710938 98.589844 81.675781 96 83.011719 M 169.703125 89.40625 C 170.25 89.96875 170.753906 90.425781 170.824219 90.425781 C 170.894531 90.425781 170.503906 89.96875 169.957031 89.40625 C 169.410156 88.847656 168.90625 88.390625 168.835938 88.390625 C 168.765625 88.390625 169.15625 88.847656 169.703125 89.40625 M 71.226562 90.207031 C 71.53125 90.367188 71.839844 90.574219 71.910156 90.664062 C 71.980469 90.757812 75.011719 92.539062 78.644531 94.628906 C 85.238281 98.417969 86.726562 99.277344 88.027344 100.046875 C 88.40625 100.273438 91.882812 102.285156 95.753906 104.519531 C 99.625 106.757812 103.101562 108.769531 103.480469 108.992188 C 105.425781 110.152344 105.980469 110.476562 108.324219 111.820312 C 110.0625 112.816406 110.914062 113.460938 111.015625 113.851562 C 111.351562 115.105469 111.203125 186.011719 110.863281 186.222656 C 110.316406 186.570312 109.910156 186.464844 108.546875 185.605469 C 107.820312 185.152344 106.996094 184.636719 106.71875 184.460938 C 106.4375 184.285156 105.863281 183.96875 105.441406 183.757812 C 105.023438 183.546875 104.257812 183.121094 103.75 182.808594 C 103.238281 182.5 96.984375 178.894531 89.851562 174.796875 C 82.71875 170.703125 76.710938 167.25 76.5 167.128906 C 76.289062 167.003906 75.5625 166.585938 74.882812 166.191406 C 74.203125 165.800781 73.230469 165.230469 72.714844 164.925781 C 72.203125 164.621094 71.375 164.144531 70.871094 163.867188 C 70.371094 163.585938 69.828125 163.195312 69.660156 162.996094 C 69.34375 162.617188 69.183594 90.65625 69.5 90.152344 C 69.699219 89.828125 70.554688 89.855469 71.226562 90.207031 M 76.917969 99.746094 C 76.828125 99.835938 76.753906 112.570312 76.753906 128.046875 L 76.753906 156.191406 L 77.316406 156.710938 C 77.621094 156.996094 79.003906 157.886719 80.386719 158.6875 C 81.769531 159.492188 83.097656 160.261719 83.335938 160.40625 C 83.574219 160.546875 85.203125 161.519531 86.953125 162.5625 C 88.707031 163.609375 90.316406 164.554688 90.523438 164.667969 C 90.734375 164.78125 91.328125 165.121094 91.84375 165.429688 C 93.792969 166.59375 99.753906 170.070312 100.539062 170.503906 C 100.992188 170.75 101.707031 171.179688 102.128906 171.453125 C 102.546875 171.726562 103.179688 172.089844 103.53125 172.257812 C 103.878906 172.425781 104.398438 172.757812 104.675781 172.992188 C 105.40625 173.605469 106.332031 173.851562 106.347656 173.4375 C 106.5 168.660156 106.285156 151.25 106.070312 150.988281 C 105.914062 150.804688 104.132812 149.71875 102.105469 148.578125 C 100.082031 147.4375 98.082031 146.183594 97.660156 145.792969 L 96.898438 145.085938 L 96.894531 128.359375 C 96.890625 112.890625 96.855469 111.59375 96.449219 111.101562 C 96.09375 110.675781 90.878906 107.597656 80.355469 101.601562 C 79.988281 101.390625 79.34375 100.976562 78.921875 100.683594 C 77.789062 99.890625 77.097656 99.566406 76.917969 99.746094 M 192.882812 113.03125 C 192.882812 115.195312 192.921875 116.082031 192.96875 115 C 193.015625 113.914062 193.015625 112.144531 192.96875 111.0625 C 192.921875 109.980469 192.882812 110.863281 192.882812 113.03125 M 119.339844 109.726562 C 119.691406 109.839844 120.265625 109.929688 120.613281 109.925781 C 121.1875 109.921875 121.175781 109.902344 120.488281 109.726562 C 119.410156 109.453125 118.484375 109.453125 119.339844 109.726562 M 161.878906 122.871094 C 164.164062 122.914062 167.835938 122.914062 170.039062 122.871094 C 172.238281 122.828125 170.367188 122.796875 165.878906 122.796875 C 161.390625 122.796875 159.589844 122.828125 161.878906 122.871094 M 143.691406 147.222656 C 138.488281 152.117188 129.785156 156.609375 124.695312 157.027344 L 123.800781 157.097656 L 123.730469 166.625 C 123.648438 177.566406 123.632812 177.398438 124.769531 177.207031 C 135.800781 175.328125 140.25 173.710938 140.25 171.582031 C 140.25 171.125 140.480469 170.039062 140.761719 169.164062 C 141.039062 168.289062 141.269531 167.421875 141.269531 167.234375 C 141.269531 165.617188 145.769531 157.832031 148.328125 155.027344 C 148.816406 154.492188 149.578125 153.652344 150.023438 153.164062 L 150.832031 152.277344 L 150.066406 152.902344 C 149.648438 153.25 148.761719 154.039062 148.097656 154.664062 C 147.433594 155.289062 146.816406 155.722656 146.726562 155.632812 C 146.542969 155.453125 147.269531 153.773438 147.625 153.554688 C 148.425781 153.0625 148.152344 152.09375 146.890625 150.964844 C 146.183594 150.332031 145.605469 149.675781 145.605469 149.507812 C 145.605469 148.683594 143.945312 148.632812 143.144531 149.433594 C 141.933594 150.640625 142.449219 149.023438 143.691406 147.710938 C 146.21875 145.050781 146.21875 144.84375 143.691406 147.222656 M 157.84375 155.105469 C 141.273438 167.6875 143.269531 193.710938 161.496094 202.714844 C 162.363281 203.144531 163.257812 203.589844 163.484375 203.710938 C 169.648438 206.917969 182.3125 206.515625 187.933594 202.933594 C 188.144531 202.796875 188.605469 202.550781 188.953125 202.382812 C 189.546875 202.097656 192.523438 199.90625 192.523438 199.753906 C 192.523438 199.71875 192.09375 199.898438 191.570312 200.15625 C 190.453125 200.699219 190.105469 200.507812 190.472656 199.550781 C 190.746094 198.832031 190.730469 198.808594 187.054688 194.015625 C 186.515625 193.308594 186.148438 192.542969 186.148438 192.109375 C 186.140625 190.667969 185.792969 189.984375 185.644531 191.121094 C 185.441406 192.675781 184.355469 192.847656 182.304688 191.652344 C 181.460938 191.15625 180.652344 190.753906 180.507812 190.753906 C 180.367188 190.753906 179.144531 190.167969 177.796875 189.449219 C 175.007812 187.964844 174.976562 187.964844 172.109375 189.640625 C 171.296875 190.113281 170.542969 190.5 170.429688 190.5 C 170.316406 190.5 169.414062 190.90625 168.417969 191.402344 C 166.902344 192.160156 166.503906 192.261719 165.933594 192.046875 C 164.765625 191.601562 164.765625 191.460938 166.109375 184.191406 C 166.585938 181.601562 166.769531 181.925781 162.695312 178.089844 C 158.230469 173.882812 158.421875 173.285156 164.476562 172.550781 C 169.242188 171.972656 170.085938 171.574219 170.085938 169.886719 C 170.085938 169.183594 170.027344 169.136719 169.371094 169.28125 C 168.75 169.414062 168.605469 169.328125 168.257812 168.601562 C 168.035156 168.140625 166.488281 165.9375 164.8125 163.703125 C 163.136719 161.46875 161.257812 158.859375 160.636719 157.902344 C 159.507812 156.175781 159.5 156.167969 158.535156 156.320312 C 157.445312 156.492188 157.523438 155.824219 158.699219 154.894531 C 159.761719 154.054688 158.972656 154.25 157.84375 155.105469 "/>
<path style=" stroke:none;fill-rule:evenodd;fill:rgb(5.882353%,67.45098%,81.568627%);fill-opacity:1;" d="M 115.132812 60.488281 C 113.027344 60.609375 110.617188 60.820312 109.777344 60.964844 C 104.183594 61.910156 101.808594 62.425781 99.128906 63.285156 C 98.324219 63.542969 97.378906 63.753906 97.035156 63.753906 C 96.691406 63.753906 96.03125 63.914062 95.570312 64.113281 C 95.109375 64.308594 93.769531 64.832031 92.597656 65.273438 C 89.402344 66.472656 85.261719 68.550781 84.363281 69.40625 C 84.105469 69.648438 83.75 69.851562 83.574219 69.851562 C 83.398438 69.851562 83.109375 70.078125 82.933594 70.359375 C 82.757812 70.636719 82.4375 70.867188 82.21875 70.867188 C 81.996094 70.867188 81.898438 70.988281 82 71.148438 C 82.167969 71.417969 83.023438 71.363281 84.691406 70.972656 C 85.253906 70.84375 85.382812 70.921875 85.523438 71.46875 C 85.613281 71.828125 86.144531 72.601562 86.703125 73.1875 C 87.847656 74.382812 87.949219 74.789062 87.210938 75.183594 C 86.929688 75.332031 86.699219 75.625 86.699219 75.828125 C 86.699219 76.371094 87.957031 76.292969 88.867188 75.691406 C 89.289062 75.414062 89.804688 75.1875 90.015625 75.183594 C 90.226562 75.183594 90.6875 75.03125 91.039062 74.847656 C 91.394531 74.660156 92.027344 74.386719 92.441406 74.234375 C 92.859375 74.082031 94.003906 73.65625 94.988281 73.285156 C 98.664062 71.890625 103.203125 70.496094 105.316406 70.101562 C 105.945312 69.984375 106.921875 69.773438 107.484375 69.632812 C 113.449219 68.140625 126.761719 68.140625 132.726562 69.632812 C 133.289062 69.773438 134.265625 69.984375 134.894531 70.101562 C 140.351562 71.117188 150.53125 75.210938 155.496094 78.386719 C 158.71875 80.449219 160.5 81.609375 160.757812 81.8125 C 160.910156 81.929688 162.46875 83.152344 164.21875 84.527344 C 170.636719 89.558594 176.917969 96.382812 181.707031 103.527344 C 182.839844 105.214844 184.074219 106.996094 184.445312 107.488281 C 185.15625 108.410156 185.265625 108.867188 184.917969 109.414062 C 184.757812 109.667969 177.992188 109.734375 151.910156 109.738281 C 116.195312 109.742188 118.925781 109.847656 116.40625 108.359375 C 115.847656 108.027344 114.757812 107.429688 113.984375 107.035156 C 113.214844 106.640625 112.308594 106.113281 111.972656 105.863281 C 111.640625 105.613281 111.148438 105.410156 110.882812 105.410156 C 110.617188 105.410156 110.332031 105.238281 110.25 105.027344 C 110.171875 104.816406 109.65625 104.574219 109.113281 104.488281 C 108.519531 104.394531 108.121094 104.1875 108.121094 103.980469 C 108.121094 103.765625 107.847656 103.636719 107.417969 103.640625 C 106.746094 103.648438 106.738281 103.664062 107.246094 103.957031 C 107.539062 104.128906 107.941406 104.410156 108.140625 104.585938 C 108.339844 104.761719 109.59375 105.695312 110.925781 106.664062 C 112.257812 107.628906 113.652344 108.65625 114.023438 108.945312 C 114.398438 109.238281 114.800781 109.472656 114.921875 109.472656 C 115.039062 109.472656 115.253906 109.6875 115.390625 109.949219 C 116.480469 112.007812 116.96875 112.773438 117.710938 113.597656 C 118.238281 114.183594 118.628906 114.929688 118.726562 115.542969 C 118.957031 116.976562 117.191406 116.902344 152.6875 117.019531 L 185.140625 117.128906 L 185.535156 117.726562 C 185.910156 118.300781 185.457031 125.507812 184.996094 126.246094 C 184.929688 126.359375 184.703125 127.34375 184.5 128.441406 C 183.78125 132.261719 181.863281 138.621094 180.652344 141.191406 C 179.8125 142.96875 180.109375 143.371094 182.398438 143.585938 C 183.269531 143.667969 184.5 143.964844 185.132812 144.25 C 186.710938 144.964844 186.855469 144.929688 187.398438 143.699219 C 188.882812 140.363281 190.996094 132.964844 190.996094 131.125 C 190.996094 130.730469 191.171875 129.734375 191.386719 128.914062 C 192.066406 126.308594 192.738281 118.765625 192.8125 112.902344 L 192.882812 107.316406 L 191.335938 104.359375 C 187.015625 96.097656 178.550781 85.691406 171.105469 79.488281 C 170.195312 78.730469 169.390625 78.039062 169.320312 77.953125 C 168.78125 77.296875 163.757812 73.769531 159.757812 71.234375 C 158.875 70.671875 156.289062 69.242188 155.167969 68.691406 C 154.746094 68.488281 154.230469 68.210938 154.019531 68.078125 C 153.808594 67.945312 152.949219 67.539062 152.109375 67.175781 C 151.265625 66.8125 150.398438 66.421875 150.175781 66.304688 C 148.847656 65.601562 143.652344 63.753906 143 63.753906 C 142.75 63.753906 141.886719 63.542969 141.078125 63.28125 C 135.953125 61.636719 122.421875 59.75 119.203125 60.234375 C 119.070312 60.253906 117.234375 60.371094 115.132812 60.488281 M 115.132812 77.339844 C 110.617188 77.914062 109.527344 78.125 105.824219 79.140625 C 103.445312 79.796875 98.945312 81.5625 98.175781 82.140625 C 97.964844 82.300781 97.132812 82.773438 96.328125 83.1875 C 95.519531 83.605469 94.859375 84.035156 94.859375 84.144531 C 94.859375 84.25 94.5625 84.453125 94.203125 84.589844 C 93.261719 84.945312 93.582031 85.46875 94.757812 85.488281 C 96.433594 85.515625 96.585938 85.574219 96.851562 86.296875 C 96.988281 86.679688 97.871094 87.828125 98.8125 88.839844 C 100.652344 90.828125 100.863281 91.589844 99.464844 91.191406 C 99.035156 91.066406 98.683594 91.023438 98.683594 91.09375 C 98.683594 91.164062 98.503906 91.042969 98.285156 90.824219 C 97.839844 90.378906 96.898438 90.28125 96.898438 90.679688 C 96.898438 90.816406 97.183594 90.933594 97.527344 90.933594 C 97.882812 90.933594 98.269531 91.140625 98.414062 91.410156 C 98.554688 91.675781 98.960938 91.960938 99.316406 92.050781 C 99.671875 92.140625 99.960938 92.382812 99.960938 92.589844 C 99.960938 92.792969 100.152344 92.964844 100.386719 92.964844 C 100.621094 92.964844 101.023438 93.152344 101.28125 93.386719 C 101.539062 93.617188 101.960938 93.933594 102.222656 94.085938 C 102.484375 94.238281 103.140625 94.621094 103.6875 94.941406 C 104.230469 95.257812 105.023438 95.742188 105.441406 96.015625 C 105.863281 96.289062 106.582031 96.707031 107.035156 96.945312 C 107.492188 97.183594 107.863281 97.46875 107.863281 97.582031 C 107.863281 97.695312 107.992188 97.789062 108.144531 97.789062 C 108.296875 97.789062 108.726562 98 109.101562 98.257812 C 110.089844 98.945312 110.902344 99.078125 111.816406 98.695312 C 112.261719 98.511719 113.476562 98.21875 114.515625 98.050781 C 115.554688 97.878906 117.03125 97.636719 117.792969 97.511719 C 122.160156 96.789062 130.085938 97.792969 134.003906 99.5625 C 134.28125 99.6875 135.351562 100.148438 136.378906 100.585938 C 138.476562 101.476562 140.117188 102.394531 142.546875 104.039062 L 144.203125 105.160156 L 157.699219 105.09375 C 172.757812 105.019531 171.988281 105.140625 170.289062 103.164062 C 169.6875 102.464844 168.90625 101.5 168.554688 101.023438 C 162.632812 92.984375 152.050781 84.679688 143.171875 81.101562 C 140.820312 80.15625 137.632812 79.140625 135.390625 78.625 C 134.609375 78.445312 133.578125 78.171875 133.09375 78.019531 C 129.542969 76.878906 121.226562 76.5625 115.132812 77.339844 M 156.125 123.078125 C 155.910156 123.234375 155.667969 124.078125 155.546875 125.109375 C 155.429688 126.078125 155.214844 127.214844 155.070312 127.636719 C 154.925781 128.054688 154.5 129.425781 154.125 130.683594 C 153.75 131.941406 153.300781 133.253906 153.125 133.605469 C 152.953125 133.953125 152.4375 135.039062 151.980469 136.015625 C 150.5625 139.058594 146.34375 145.023438 143.699219 147.726562 C 142.621094 148.828125 142.179688 149.605469 142.628906 149.605469 C 142.816406 149.605469 143.046875 149.527344 143.144531 149.433594 C 143.945312 148.632812 145.605469 148.683594 145.605469 149.507812 C 145.605469 149.675781 146.183594 150.332031 146.890625 150.964844 C 148.152344 152.09375 148.425781 153.0625 147.625 153.554688 C 147.277344 153.769531 146.539062 155.449219 146.714844 155.625 C 146.804688 155.710938 147.484375 155.21875 148.234375 154.535156 C 151.019531 151.984375 151.480469 151.59375 153.585938 150.046875 C 158.457031 146.464844 163.375 144.21875 167.886719 143.511719 C 169.9375 143.1875 171.105469 142.65625 171.105469 142.042969 C 171.109375 141.800781 171.257812 141.320312 171.441406 140.96875 C 172.703125 138.546875 174.660156 131.082031 175.191406 126.644531 C 175.34375 125.398438 175.570312 124.183594 175.703125 123.9375 C 176.21875 122.980469 175.59375 122.910156 165.859375 122.859375 C 159.609375 122.824219 156.371094 122.898438 156.125 123.078125 M 170.722656 150 C 165.039062 150.746094 159.175781 153.4375 157.871094 155.898438 C 157.574219 156.457031 157.59375 156.46875 158.535156 156.320312 C 159.5 156.167969 159.507812 156.175781 160.636719 157.902344 C 161.257812 158.859375 163.136719 161.46875 164.8125 163.703125 C 166.488281 165.9375 168.035156 168.140625 168.257812 168.601562 C 168.605469 169.328125 168.75 169.414062 169.371094 169.28125 C 170.027344 169.136719 170.085938 169.183594 170.085938 169.886719 C 170.085938 171.574219 169.242188 171.972656 164.476562 172.550781 C 158.421875 173.285156 158.230469 173.882812 162.695312 178.089844 C 166.769531 181.925781 166.585938 181.601562 166.109375 184.191406 C 164.765625 191.460938 164.765625 191.601562 165.933594 192.046875 C 166.503906 192.261719 166.902344 192.160156 168.417969 191.402344 C 169.414062 190.90625 170.316406 190.5 170.429688 190.5 C 170.542969 190.5 171.296875 190.113281 172.109375 189.640625 C 174.976562 187.964844 175.007812 187.964844 177.796875 189.449219 C 179.144531 190.167969 180.367188 190.753906 180.507812 190.753906 C 180.652344 190.753906 181.460938 191.15625 182.304688 191.652344 C 184.355469 192.847656 185.441406 192.675781 185.644531 191.121094 C 185.792969 189.984375 186.140625 190.667969 186.148438 192.109375 C 186.148438 192.542969 186.515625 193.308594 187.054688 194.015625 C 190.730469 198.808594 190.746094 198.832031 190.472656 199.550781 C 189.550781 201.964844 193.261719 199.671875 196.457031 195.855469 C 197.378906 194.753906 198.136719 193.792969 198.136719 193.714844 C 198.136719 193.636719 198.503906 193.027344 198.953125 192.363281 C 199.890625 190.980469 201.175781 188.488281 201.1875 188.03125 C 201.191406 187.863281 201.359375 187.347656 201.558594 186.890625 C 203.019531 183.558594 203.445312 176.519531 202.453125 172.132812 C 202.164062 170.847656 201.761719 169.421875 201.558594 168.964844 C 201.359375 168.507812 201.195312 167.976562 201.195312 167.792969 C 201.195312 167.210938 199.015625 163.167969 197.746094 161.394531 C 191.464844 152.628906 181.777344 148.542969 170.722656 150 M 175.894531 163.773438 C 176.144531 164.023438 177.179688 165.898438 178.195312 167.941406 C 180.46875 172.511719 179.863281 172.082031 185.109375 172.828125 C 191.496094 173.742188 191.570312 173.914062 187.273438 177.945312 C 183.144531 181.824219 183.199219 181.734375 183.695312 183.84375 C 184.054688 185.363281 184.417969 187.496094 184.800781 190.304688 C 185.058594 192.226562 184.269531 192.144531 179.375 189.730469 L 175.113281 187.625 L 172.152344 189.085938 C 170.523438 189.886719 168.769531 190.761719 168.25 191.03125 C 165.5 192.445312 165.214844 191.789062 166.210938 186.351562 L 167.003906 182.011719 L 166.410156 181.238281 C 166.085938 180.808594 164.539062 179.261719 162.980469 177.796875 C 158.71875 173.796875 158.730469 173.777344 166.769531 172.691406 C 170.011719 172.253906 170 172.265625 172.109375 167.96875 C 174.488281 163.132812 174.847656 162.734375 175.894531 163.773438 "/>
<path style=" stroke:none;fill-rule:evenodd;fill:rgb(1.568627%,10.588235%,23.137255%);fill-opacity:1;" d="M 0 127 L 0 254 L 255 254 L 255 0 L 0 0 L 0 127 M 130.816406 60.164062 C 134.304688 60.738281 137.265625 61.375 140.3125 62.203125 C 141.402344 62.496094 143.121094 62.960938 144.140625 63.230469 C 147.339844 64.085938 152.773438 66.457031 156.953125 68.828125 C 157.933594 69.382812 159.082031 70.027344 159.503906 70.257812 C 161.066406 71.113281 166.867188 75.097656 168.78125 76.628906 C 177.414062 83.523438 186.910156 94.515625 191.125 102.488281 C 191.640625 103.46875 192.417969 104.890625 192.851562 105.652344 C 193.863281 107.425781 193.960938 109.027344 193.570312 117.238281 C 193.296875 122.941406 192.988281 125.566406 192.132812 129.539062 C 191.933594 130.449219 191.652344 131.992188 191.5 132.96875 C 191.183594 135.027344 190.8125 136.382812 189.402344 140.589844 C 187.625 145.882812 187.675781 145.839844 184.730469 144.921875 C 183.527344 144.550781 181.949219 144.175781 181.222656 144.097656 C 179.140625 143.863281 178.78125 143.179688 179.742188 141.277344 C 180.65625 139.464844 182.566406 133.515625 183.261719 130.300781 C 184.230469 125.832031 185.269531 118.792969 185.015625 118.382812 C 184.832031 118.089844 120.253906 117.972656 119.488281 118.265625 C 118.800781 118.527344 118.878906 185.320312 119.566406 185.539062 C 121.59375 186.179688 135.113281 183.433594 138.4375 181.707031 C 139.820312 180.988281 140.394531 181.363281 140.636719 183.148438 C 140.722656 183.769531 141.085938 185.390625 141.445312 186.75 C 142.144531 189.410156 141.964844 190.5 140.816406 190.5 C 140.574219 190.5 139 190.902344 137.316406 191.394531 C 129.003906 193.8125 124.828125 194.394531 115.640625 194.417969 L 108.246094 194.4375 L 107.101562 193.683594 C 105.632812 192.722656 104.863281 192.285156 102.492188 191.066406 C 100.851562 190.222656 95.285156 187.089844 92.800781 185.609375 C 91.117188 184.609375 90.332031 184.148438 85.375 181.277344 C 82.527344 179.625 78.304688 177.152344 75.988281 175.777344 C 73.675781 174.402344 70.492188 172.527344 68.914062 171.605469 C 64.644531 169.113281 61.792969 167.210938 61.609375 166.730469 C 61.492188 166.421875 61.390625 113.855469 61.453125 86.707031 C 61.457031 85.65625 66.015625 81.070312 71.46875 76.621094 C 73.292969 75.136719 79.015625 71.191406 80.707031 70.253906 C 81.128906 70.019531 81.929688 69.558594 82.492188 69.230469 C 86.882812 66.644531 93.480469 63.84375 97.75 62.75 C 99.410156 62.328125 100.851562 61.929688 100.949219 61.867188 C 101.265625 61.671875 108.691406 60.253906 110.925781 59.964844 C 112.117188 59.808594 113.4375 59.636719 113.859375 59.582031 C 116.269531 59.273438 127.792969 59.667969 130.816406 60.164062 M 114.113281 69.589844 C 111.304688 69.820312 105.835938 70.71875 104.039062 71.242188 C 103.410156 71.425781 101.800781 71.894531 100.46875 72.28125 C 97.621094 73.105469 92.183594 75.238281 89.492188 76.585938 C 85.808594 78.425781 83.828125 79.632812 78.539062 83.246094 C 77.234375 84.140625 76.957031 85.34375 78.054688 85.34375 C 78.230469 85.34375 94.804688 94.777344 97.28125 96.292969 C 97.703125 96.550781 98.390625 96.933594 98.8125 97.144531 C 99.234375 97.359375 99.949219 97.761719 100.40625 98.042969 C 101.71875 98.851562 102.277344 99.171875 111.050781 104.203125 L 119.359375 108.964844 L 151.734375 108.964844 C 187.957031 108.964844 185.050781 109.121094 183.511719 107.269531 C 183.183594 106.875 182.15625 105.410156 181.230469 104.011719 C 175.53125 95.425781 166.445312 86.300781 158.484375 81.175781 C 157.21875 80.359375 155.855469 79.464844 155.449219 79.183594 C 154.539062 78.550781 146.992188 74.800781 146.113281 74.546875 C 145.765625 74.445312 145.363281 74.273438 145.222656 74.167969 C 144.867188 73.898438 139.75 72.199219 137.445312 71.582031 C 130.828125 69.8125 121.289062 68.996094 114.113281 69.589844 M 126.734375 76.214844 C 135.898438 77.050781 144.765625 80.164062 152.617188 85.304688 C 154.273438 86.390625 157.042969 88.347656 157.335938 88.644531 C 157.40625 88.714844 158.152344 89.335938 158.992188 90.019531 C 161.953125 92.4375 166.679688 97.425781 169.449219 101.0625 C 170.128906 101.953125 171.0625 103.097656 171.53125 103.601562 C 172.398438 104.542969 172.667969 105.757812 172.0625 105.980469 C 171.886719 106.046875 165.660156 106.121094 158.226562 106.144531 C 143.101562 106.195312 144.234375 106.320312 141.707031 104.332031 C 139.496094 102.59375 133.804688 100.132812 129.15625 98.898438 C 126.101562 98.085938 116.714844 98.230469 113.40625 99.140625 C 112.039062 99.515625 110.722656 99.820312 110.484375 99.820312 C 110.121094 99.820312 107.164062 98.1875 100.519531 94.320312 C 100 94.019531 99.289062 93.609375 98.941406 93.410156 C 97.605469 92.648438 96.472656 91.992188 95.167969 91.222656 C 94.425781 90.78125 93.722656 90.425781 93.605469 90.425781 C 93.488281 90.425781 93.269531 90.277344 93.117188 90.09375 C 92.964844 89.910156 91.980469 89.332031 90.929688 88.808594 C 87.964844 87.328125 88.035156 86.847656 91.546875 84.734375 C 102.738281 78 114.660156 75.113281 126.734375 76.214844 M 70.039062 90.847656 C 69.945312 90.941406 69.871094 107.035156 69.871094 126.617188 L 69.871094 162.21875 L 70.445312 162.730469 C 70.757812 163.011719 73.691406 164.773438 76.957031 166.648438 C 80.222656 168.519531 83.320312 170.300781 83.84375 170.601562 C 85.601562 171.621094 86.058594 171.878906 87.59375 172.71875 C 88.433594 173.179688 89.238281 173.640625 89.378906 173.746094 C 89.519531 173.851562 90.089844 174.195312 90.652344 174.511719 C 92.851562 175.753906 92.191406 175.375 101.613281 180.847656 C 109.875 185.648438 109.9375 185.683594 110.203125 185.519531 C 110.730469 185.195312 110.449219 114.070312 109.921875 113.621094 C 109.648438 113.386719 106.578125 111.546875 103.097656 109.53125 C 99.621094 107.515625 96.355469 105.621094 95.847656 105.320312 C 95.339844 105.019531 91.460938 102.773438 87.226562 100.328125 C 82.996094 97.886719 79.222656 95.703125 78.84375 95.476562 C 71.164062 90.929688 70.375 90.515625 70.039062 90.847656 M 78.894531 99.910156 C 79.613281 100.375 81.667969 101.605469 83.460938 102.640625 C 85.257812 103.675781 87.035156 104.707031 87.414062 104.933594 C 87.792969 105.15625 90.054688 106.460938 92.4375 107.832031 C 94.820312 109.199219 96.972656 110.558594 97.214844 110.847656 C 97.621094 111.339844 97.652344 112.640625 97.664062 128.144531 C 97.667969 137.363281 97.757812 145.03125 97.859375 145.179688 C 97.964844 145.332031 99.515625 146.300781 101.3125 147.339844 C 103.109375 148.375 105 149.46875 105.511719 149.765625 C 107.183594 150.734375 107.117188 150.191406 107.140625 162.84375 L 107.164062 174.371094 L 106.5 174.449219 C 106.085938 174.5 105.425781 174.253906 104.746094 173.796875 C 104.148438 173.394531 102.222656 172.234375 100.46875 171.222656 C 87.550781 163.753906 77.457031 157.691406 76.691406 156.9375 L 75.988281 156.25 L 75.988281 127.824219 C 75.988281 112.191406 76.066406 99.320312 76.160156 99.230469 C 76.554688 98.835938 77.679688 99.117188 78.894531 99.910156 M 176.210938 122.308594 C 177.363281 123.691406 174.25 137.304688 171.589844 142.539062 C 170.992188 143.707031 170.945312 143.738281 169.003906 144.042969 C 154.800781 146.285156 143.238281 157.898438 140.648438 172.53125 C 140.449219 173.65625 140.019531 173.980469 137.574219 174.839844 C 131.933594 176.820312 124.625 178.332031 123.558594 177.742188 C 123.214844 177.546875 123.164062 176.253906 123.164062 167.253906 L 123.164062 156.984375 L 123.738281 156.632812 C 124.054688 156.441406 125 156.144531 125.84375 155.972656 C 140.230469 153.03125 151.449219 141.21875 154.59375 125.691406 C 154.921875 124.0625 155.34375 122.550781 155.53125 122.324219 C 156.03125 121.726562 175.710938 121.707031 176.210938 122.308594 M 180.03125 149.320312 C 203.210938 153.871094 211.746094 182.03125 194.917969 198.433594 C 180.300781 212.683594 156.664062 207.921875 147.960938 188.976562 C 145.027344 182.585938 145.007812 173.226562 147.921875 166.976562 C 148.191406 166.402344 148.410156 165.871094 148.410156 165.792969 C 148.410156 165.714844 148.886719 164.8125 149.472656 163.789062 C 155.628906 152.992188 168.261719 147.011719 180.03125 149.320312 "/>
<path style=" stroke:none;fill-rule:evenodd;fill:rgb(92.941176%,96.078431%,97.647059%);fill-opacity:1;" d="M 174.355469 163.765625 C 174.136719 164.011719 173.128906 165.902344 172.109375 167.96875 C 170 172.265625 170.011719 172.253906 166.769531 172.691406 C 158.730469 173.777344 158.71875 173.796875 162.980469 177.796875 C 164.539062 179.261719 166.085938 180.808594 166.410156 181.238281 L 167.003906 182.011719 L 166.210938 186.351562 C 165.214844 191.789062 165.5 192.445312 168.25 191.03125 C 168.769531 190.761719 170.523438 189.886719 172.152344 189.085938 L 175.113281 187.625 L 179.375 189.730469 C 184.269531 192.144531 185.058594 192.226562 184.800781 190.304688 C 184.417969 187.496094 184.054688 185.363281 183.695312 183.84375 C 183.199219 181.734375 183.144531 181.824219 187.273438 177.945312 C 191.570312 173.914062 191.496094 173.742188 185.109375 172.828125 C 179.863281 172.082031 180.46875 172.511719 178.195312 167.941406 C 175.882812 163.289062 175.324219 162.683594 174.355469 163.765625 "/>
<path style=" stroke:none;fill-rule:evenodd;fill:rgb(5.098039%,41.176471%,56.470588%);fill-opacity:1;" d="M 113.859375 59.582031 C 113.4375 59.636719 112.117188 59.808594 110.925781 59.964844 C 108.691406 60.253906 101.265625 61.671875 100.949219 61.867188 C 100.851562 61.929688 99.410156 62.328125 97.75 62.75 C 93.480469 63.84375 86.882812 66.644531 82.492188 69.230469 C 81.929688 69.558594 81.128906 70.019531 80.707031 70.253906 C 79.015625 71.191406 73.292969 75.136719 71.46875 76.621094 C 66.015625 81.070312 61.457031 85.65625 61.453125 86.707031 C 61.390625 113.855469 61.492188 166.421875 61.609375 166.730469 C 61.792969 167.210938 64.644531 169.113281 68.914062 171.605469 C 70.492188 172.527344 73.675781 174.402344 75.988281 175.777344 C 78.304688 177.152344 82.527344 179.625 85.375 181.277344 C 90.332031 184.148438 91.117188 184.609375 92.800781 185.609375 C 95.285156 187.089844 100.851562 190.222656 102.492188 191.066406 C 104.863281 192.285156 105.632812 192.722656 107.101562 193.683594 L 108.246094 194.4375 L 115.640625 194.417969 C 124.828125 194.394531 129.003906 193.8125 137.316406 191.394531 C 139 190.902344 140.574219 190.5 140.816406 190.5 C 141.964844 190.5 142.144531 189.410156 141.445312 186.75 C 141.085938 185.390625 140.722656 183.769531 140.636719 183.148438 C 140.394531 181.363281 139.820312 180.988281 138.4375 181.707031 C 135.113281 183.433594 121.59375 186.179688 119.566406 185.539062 C 118.878906 185.320312 118.800781 118.527344 119.488281 118.265625 C 120.253906 117.972656 184.832031 118.089844 185.015625 118.382812 C 185.269531 118.792969 184.230469 125.832031 183.261719 130.300781 C 182.566406 133.515625 180.65625 139.464844 179.742188 141.277344 C 178.78125 143.179688 179.140625 143.863281 181.222656 144.097656 C 181.949219 144.175781 183.527344 144.550781 184.730469 144.921875 C 187.675781 145.839844 187.625 145.882812 189.402344 140.589844 C 190.8125 136.382812 191.183594 135.027344 191.5 132.96875 C 191.652344 131.992188 191.933594 130.449219 192.132812 129.539062 C 193.964844 121.054688 194.351562 108.285156 192.851562 105.652344 C 192.417969 104.890625 191.640625 103.46875 191.125 102.488281 C 186.910156 94.515625 177.414062 83.523438 168.78125 76.628906 C 166.867188 75.097656 161.066406 71.113281 159.503906 70.257812 C 159.082031 70.027344 157.933594 69.382812 156.953125 68.828125 C 152.773438 66.457031 147.339844 64.085938 144.140625 63.230469 C 143.121094 62.960938 141.402344 62.496094 140.3125 62.203125 C 132.3125 60.027344 119.921875 58.800781 113.859375 59.582031 M 127.285156 60.578125 C 129.621094 60.785156 131.800781 61.054688 132.128906 61.175781 C 132.457031 61.296875 133.359375 61.476562 134.128906 61.570312 C 135.542969 61.75 138.628906 62.464844 140.761719 63.105469 C 141.390625 63.296875 142.308594 63.53125 142.800781 63.625 C 146.410156 64.316406 153.957031 67.703125 160.351562 71.5 C 168.050781 76.074219 177.472656 84.589844 183.671875 92.582031 C 184.652344 93.847656 186.226562 96.019531 187.171875 97.410156 C 187.800781 98.339844 188.460938 99.253906 188.636719 99.445312 C 188.8125 99.632812 188.953125 99.863281 188.953125 99.957031 C 188.953125 100.046875 189.167969 100.429688 189.433594 100.796875 C 189.695312 101.167969 190.625 102.84375 191.5 104.519531 L 193.085938 107.570312 L 192.953125 113.410156 C 192.824219 119.011719 192.066406 127.179688 191.550781 128.535156 C 191.417969 128.878906 191.238281 129.789062 191.144531 130.554688 C 190.726562 134.007812 188.277344 142.644531 187.269531 144.207031 C 186.820312 144.910156 186.433594 144.921875 185.027344 144.28125 C 184.425781 144.007812 183.160156 143.707031 182.210938 143.609375 C 180.027344 143.386719 179.683594 142.894531 180.542969 141.21875 C 181.65625 139.039062 183.664062 132.515625 184.367188 128.777344 C 184.511719 128.007812 184.746094 126.921875 184.890625 126.363281 C 185.3125 124.710938 185.839844 118.542969 185.613281 117.925781 C 185.289062 117.054688 186.148438 117.074219 151.640625 117.152344 C 119.710938 117.21875 119.035156 117.230469 118.683594 117.714844 C 118.300781 118.230469 118.105469 184.824219 118.484375 185.800781 C 118.746094 186.480469 119.695312 186.691406 121.304688 186.414062 C 122.117188 186.277344 123.699219 186.0625 124.824219 185.9375 C 126.925781 185.707031 130.652344 184.941406 133.109375 184.238281 C 135.695312 183.496094 138.332031 182.585938 138.640625 182.332031 C 139.40625 181.699219 140.25 183 140.25 184.824219 C 140.25 185.160156 140.480469 186.082031 140.761719 186.878906 C 141.695312 189.53125 141.730469 189.480469 138.4375 190.371094 C 134.527344 191.429688 133.117188 191.769531 130.484375 192.285156 C 129.109375 192.554688 127.871094 192.839844 127.734375 192.925781 C 127.222656 193.242188 118.28125 193.792969 113.601562 193.796875 L 108.757812 193.800781 L 105.9375 192.195312 C 104.382812 191.3125 102.375 190.214844 101.472656 189.757812 C 100.570312 189.300781 99.410156 188.679688 98.898438 188.378906 C 98.382812 188.078125 94.894531 186.0625 91.144531 183.894531 C 87.394531 181.730469 83.914062 179.703125 83.410156 179.394531 C 82.90625 179.082031 82.128906 178.625 81.6875 178.375 C 81.246094 178.128906 79.722656 177.242188 78.300781 176.402344 C 76.882812 175.566406 75.292969 174.628906 74.773438 174.320312 C 74.25 174.015625 73.574219 173.617188 73.269531 173.433594 C 72.964844 173.25 71.875 172.609375 70.847656 172.007812 C 69.820312 171.40625 68.632812 170.695312 68.210938 170.429688 C 67.792969 170.160156 67.101562 169.75 66.683594 169.519531 C 65.386719 168.800781 63.144531 167.324219 62.539062 166.789062 L 61.964844 166.28125 L 61.964844 86.664062 L 63.558594 84.785156 C 68.363281 79.128906 78.34375 71.8125 86.828125 67.734375 C 88.230469 67.058594 89.558594 66.414062 89.777344 66.300781 C 90.15625 66.105469 92.132812 65.335938 94.988281 64.273438 C 95.6875 64.011719 96.722656 63.726562 97.28125 63.636719 C 97.84375 63.546875 98.761719 63.316406 99.324219 63.128906 C 100.6875 62.667969 104.550781 61.789062 106.527344 61.484375 C 107.40625 61.351562 108.246094 61.164062 108.398438 61.074219 C 109.539062 60.371094 121.410156 60.058594 127.285156 60.578125 M 117.046875 68.617188 C 113.832031 68.796875 107.734375 69.488281 107.363281 69.71875 C 107.234375 69.796875 106.464844 69.984375 105.648438 70.132812 C 102.992188 70.617188 96.363281 72.683594 93.96875 73.769531 C 92.417969 74.476562 86.292969 77.5 85.550781 77.929688 C 84.09375 78.773438 79.777344 81.554688 79.558594 81.792969 C 79.488281 81.871094 78.765625 82.367188 77.953125 82.898438 C 75.914062 84.230469 75.976562 84.851562 78.285156 86.121094 C 79.195312 86.625 80.34375 87.285156 80.835938 87.589844 C 81.324219 87.890625 82.070312 88.316406 82.492188 88.527344 C 82.914062 88.742188 83.601562 89.128906 84.023438 89.390625 C 84.441406 89.652344 91.097656 93.488281 98.8125 97.917969 C 106.527344 102.347656 113.183594 106.1875 113.601562 106.445312 C 114.023438 106.707031 114.710938 107.089844 115.132812 107.300781 C 115.9375 107.707031 116.300781 107.921875 117.914062 108.960938 L 118.914062 109.601562 L 151.753906 109.667969 C 184.441406 109.738281 184.597656 109.734375 184.871094 109.226562 C 185.273438 108.480469 179.3125 99.683594 175.585938 95.519531 C 165.789062 84.582031 156.199219 77.675781 144.457031 73.105469 C 141.339844 71.890625 136.917969 70.5625 134.5625 70.132812 C 133.746094 69.984375 132.980469 69.800781 132.855469 69.722656 C 131.84375 69.101562 121.4375 68.371094 117.046875 68.617188 M 131.578125 70.347656 C 136.699219 71.285156 144.175781 73.378906 145.222656 74.167969 C 145.363281 74.273438 145.765625 74.445312 146.113281 74.546875 C 146.992188 74.800781 154.539062 78.550781 155.449219 79.183594 C 155.855469 79.464844 157.21875 80.359375 158.484375 81.175781 C 166.445312 86.300781 175.53125 95.425781 181.230469 104.011719 C 182.15625 105.410156 183.183594 106.875 183.511719 107.269531 C 185.050781 109.121094 187.957031 108.964844 151.734375 108.964844 L 119.359375 108.964844 L 111.050781 104.203125 C 102.277344 99.171875 101.71875 98.851562 100.40625 98.042969 C 99.949219 97.761719 99.234375 97.359375 98.8125 97.144531 C 98.390625 96.933594 97.703125 96.550781 97.28125 96.292969 C 94.804688 94.777344 78.230469 85.34375 78.054688 85.34375 C 76.957031 85.34375 77.234375 84.140625 78.539062 83.246094 C 83.828125 79.632812 85.808594 78.425781 89.492188 76.585938 C 92.183594 75.238281 97.621094 73.105469 100.46875 72.28125 C 101.800781 71.894531 103.410156 71.425781 104.039062 71.242188 C 110.816406 69.265625 123.441406 68.855469 131.578125 70.347656 M 116.789062 76.222656 C 108.246094 76.953125 99.679688 79.84375 91.546875 84.734375 C 88.035156 86.847656 87.964844 87.328125 90.929688 88.808594 C 91.980469 89.332031 92.964844 89.910156 93.117188 90.09375 C 93.269531 90.277344 93.488281 90.425781 93.605469 90.425781 C 93.722656 90.425781 94.425781 90.78125 95.167969 91.222656 C 96.472656 91.992188 97.605469 92.648438 98.941406 93.410156 C 99.289062 93.609375 100 94.019531 100.519531 94.320312 C 107.164062 98.1875 110.121094 99.820312 110.484375 99.820312 C 110.722656 99.820312 112.039062 99.515625 113.40625 99.140625 C 116.714844 98.230469 126.101562 98.085938 129.15625 98.898438 C 133.804688 100.132812 139.496094 102.59375 141.707031 104.332031 C 144.234375 106.320312 143.101562 106.195312 158.226562 106.144531 C 165.660156 106.121094 171.886719 106.046875 172.0625 105.980469 C 172.667969 105.757812 172.398438 104.542969 171.53125 103.601562 C 171.0625 103.097656 170.128906 101.953125 169.449219 101.0625 C 166.679688 97.425781 161.953125 92.4375 158.992188 90.019531 C 158.152344 89.335938 157.40625 88.714844 157.335938 88.644531 C 157.042969 88.347656 154.273438 86.390625 152.617188 85.304688 C 141.832031 78.246094 129.550781 75.132812 116.789062 76.222656 M 130.175781 77.449219 C 134.667969 78.175781 140.347656 79.757812 143.4375 81.136719 C 151.015625 84.523438 156.730469 88.410156 162.527344 94.121094 C 165.75 97.296875 171.738281 104.625 171.394531 104.96875 C 171.28125 105.082031 165.085938 105.167969 157.628906 105.160156 L 144.066406 105.148438 L 142.75 104.207031 C 140.0625 102.28125 135.6875 100.148438 131.890625 98.90625 C 126.085938 97.007812 116.65625 96.890625 112.398438 98.664062 C 111.15625 99.183594 110.015625 99.164062 109.179688 98.617188 C 108.234375 97.996094 108.445312 98.117188 98.941406 92.6875 C 91.066406 88.1875 89.214844 87.03125 89.519531 86.792969 C 91.175781 85.5 100.699219 80.519531 101.519531 80.519531 C 101.671875 80.519531 102.15625 80.355469 102.597656 80.15625 C 103.347656 79.820312 106.203125 78.957031 108.886719 78.253906 C 114.535156 76.773438 123.847656 76.421875 130.175781 77.449219 M 69.5 90.152344 C 69.183594 90.65625 69.34375 162.617188 69.660156 162.996094 C 69.828125 163.195312 70.371094 163.585938 70.871094 163.867188 C 71.375 164.144531 72.203125 164.621094 72.714844 164.925781 C 73.230469 165.230469 74.203125 165.800781 74.882812 166.191406 C 75.5625 166.585938 76.289062 167.003906 76.5 167.128906 C 76.710938 167.25 82.71875 170.703125 89.851562 174.796875 C 96.984375 178.894531 103.238281 182.5 103.75 182.808594 C 104.257812 183.121094 105.023438 183.546875 105.441406 183.757812 C 105.863281 183.96875 106.4375 184.285156 106.71875 184.460938 C 106.996094 184.636719 107.820312 185.152344 108.546875 185.605469 C 109.910156 186.464844 110.316406 186.570312 110.863281 186.222656 C 111.203125 186.011719 111.351562 115.105469 111.015625 113.851562 C 110.914062 113.460938 110.0625 112.816406 108.324219 111.820312 C 105.980469 110.476562 105.425781 110.152344 103.480469 108.992188 C 103.101562 108.769531 99.625 106.757812 95.753906 104.519531 C 91.882812 102.285156 88.40625 100.273438 88.027344 100.046875 C 86.726562 99.277344 85.238281 98.417969 78.644531 94.628906 C 75.011719 92.539062 71.980469 90.757812 71.910156 90.664062 C 71.429688 90.046875 69.78125 89.695312 69.5 90.152344 M 74.398438 92.875 C 76.464844 94.082031 78.464844 95.253906 78.84375 95.476562 C 79.222656 95.703125 82.996094 97.886719 87.226562 100.328125 C 91.460938 102.773438 95.339844 105.019531 95.847656 105.320312 C 96.355469 105.621094 99.621094 107.515625 103.097656 109.53125 C 106.578125 111.546875 109.648438 113.386719 109.921875 113.621094 C 110.449219 114.070312 110.730469 185.195312 110.203125 185.519531 C 109.9375 185.683594 109.875 185.648438 101.613281 180.847656 C 92.191406 175.375 92.851562 175.753906 90.652344 174.511719 C 90.089844 174.195312 89.519531 173.851562 89.378906 173.746094 C 89.238281 173.640625 88.433594 173.179688 87.59375 172.71875 C 86.058594 171.878906 85.601562 171.621094 83.84375 170.601562 C 83.320312 170.300781 80.222656 168.519531 76.957031 166.648438 C 73.691406 164.773438 70.757812 163.011719 70.445312 162.730469 L 69.871094 162.21875 L 69.871094 126.617188 C 69.871094 107.035156 69.945312 90.941406 70.039062 90.847656 C 70.347656 90.539062 70.613281 90.660156 74.398438 92.875 M 76.160156 99.230469 C 76.066406 99.320312 75.988281 112.191406 75.988281 127.824219 L 75.988281 156.25 L 76.691406 156.9375 C 77.457031 157.691406 87.550781 163.753906 100.46875 171.222656 C 102.222656 172.234375 104.148438 173.394531 104.746094 173.796875 C 105.425781 174.253906 106.085938 174.5 106.5 174.449219 L 107.164062 174.371094 L 107.140625 162.84375 C 107.117188 150.191406 107.183594 150.734375 105.511719 149.765625 C 105 149.46875 103.109375 148.375 101.3125 147.339844 C 99.515625 146.300781 97.964844 145.332031 97.859375 145.179688 C 97.757812 145.03125 97.667969 137.363281 97.664062 128.144531 C 97.652344 112.640625 97.621094 111.339844 97.214844 110.847656 C 96.972656 110.558594 94.820312 109.199219 92.4375 107.832031 C 90.054688 106.460938 87.792969 105.15625 87.414062 104.933594 C 87.035156 104.707031 85.257812 103.675781 83.460938 102.640625 C 81.667969 101.605469 79.613281 100.375 78.894531 99.910156 C 77.679688 99.117188 76.554688 98.835938 76.160156 99.230469 M 78.921875 100.683594 C 79.34375 100.976562 79.988281 101.390625 80.355469 101.601562 C 90.878906 107.597656 96.09375 110.675781 96.449219 111.101562 C 96.855469 111.59375 96.890625 112.890625 96.894531 128.359375 L 96.898438 145.085938 L 97.660156 145.792969 C 98.082031 146.183594 100.082031 147.4375 102.105469 148.578125 C 104.132812 149.71875 105.914062 150.804688 106.070312 150.988281 C 106.285156 151.25 106.5 168.660156 106.347656 173.4375 C 106.332031 173.851562 105.40625 173.605469 104.675781 172.992188 C 104.398438 172.757812 103.878906 172.425781 103.53125 172.257812 C 103.179688 172.089844 102.546875 171.726562 102.128906 171.453125 C 101.707031 171.179688 100.992188 170.75 100.539062 170.503906 C 99.753906 170.070312 93.792969 166.59375 91.84375 165.429688 C 91.328125 165.121094 90.734375 164.78125 90.523438 164.667969 C 90.316406 164.554688 88.707031 163.609375 86.953125 162.5625 C 85.203125 161.519531 83.574219 160.546875 83.335938 160.40625 C 83.097656 160.261719 81.769531 159.492188 80.386719 158.6875 C 79.003906 157.886719 77.621094 156.996094 77.316406 156.710938 L 76.753906 156.191406 L 76.753906 128.046875 C 76.753906 112.570312 76.828125 99.835938 76.917969 99.746094 C 77.097656 99.566406 77.789062 99.890625 78.921875 100.683594 M 155.53125 122.324219 C 155.34375 122.550781 154.921875 124.0625 154.59375 125.691406 C 151.449219 141.21875 140.230469 153.03125 125.84375 155.972656 C 125 156.144531 124.054688 156.441406 123.738281 156.632812 L 123.164062 156.984375 L 123.164062 167.253906 C 123.164062 176.253906 123.214844 177.546875 123.558594 177.742188 C 124.625 178.332031 131.933594 176.820312 137.574219 174.839844 C 140.019531 173.980469 140.449219 173.65625 140.648438 172.53125 C 143.238281 157.898438 154.800781 146.285156 169.003906 144.042969 C 170.945312 143.738281 170.992188 143.707031 171.589844 142.539062 C 174.25 137.304688 177.363281 123.691406 176.210938 122.308594 C 175.710938 121.707031 156.03125 121.726562 155.53125 122.324219 M 175.539062 123.15625 C 175.867188 123.519531 175.910156 123.773438 175.722656 124.238281 C 175.589844 124.570312 175.347656 125.925781 175.1875 127.253906 C 175.023438 128.582031 174.742188 130.296875 174.554688 131.0625 C 173.402344 135.851562 172.382812 139.175781 171.476562 141.136719 C 171.273438 141.574219 171.105469 142.046875 171.105469 142.183594 C 171.105469 142.691406 169.730469 143.308594 168.082031 143.539062 C 166.40625 143.777344 163.789062 144.503906 162.308594 145.152344 C 152.289062 149.519531 146.421875 155.394531 141.8125 165.679688 C 141.515625 166.347656 141.269531 167.046875 141.269531 167.234375 C 141.269531 167.421875 141.039062 168.289062 140.761719 169.164062 C 140.480469 170.039062 140.25 171.125 140.25 171.582031 C 140.25 173.710938 135.800781 175.328125 124.769531 177.207031 C 123.632812 177.398438 123.648438 177.566406 123.730469 166.625 L 123.800781 157.097656 L 124.695312 157.027344 C 127.277344 156.8125 134 154.203125 137.460938 152.070312 C 142.453125 148.992188 147.429688 143.871094 150.441406 138.703125 C 152.550781 135.09375 153.335938 133.136719 155.183594 126.90625 C 155.386719 126.226562 155.550781 125.179688 155.550781 124.578125 C 155.550781 122.609375 155.15625 122.683594 165.730469 122.683594 C 174.566406 122.683594 175.128906 122.710938 175.539062 123.15625 M 168.9375 149.484375 C 161.898438 151.074219 156.523438 154.472656 151.863281 160.273438 C 150.710938 161.707031 148.410156 165.386719 148.410156 165.792969 C 148.410156 165.871094 148.191406 166.402344 147.921875 166.976562 C 139.914062 184.152344 153.40625 205.425781 173.074219 206.644531 C 194.582031 207.976562 210.222656 185.425781 201.234375 166.042969 C 195.441406 153.550781 181.828125 146.574219 168.9375 149.484375 M 178.882812 149.878906 C 185.816406 150.695312 192.359375 154.527344 197.371094 160.707031 C 200.964844 165.144531 203.035156 171.488281 203.027344 178.066406 C 203.023438 180.167969 202.886719 182.269531 202.714844 182.902344 C 202.542969 183.519531 202.257812 184.652344 202.078125 185.421875 C 200.625 191.589844 194.199219 199.902344 188.953125 202.386719 C 188.605469 202.550781 188.144531 202.796875 187.933594 202.933594 C 182.3125 206.515625 169.648438 206.917969 163.484375 203.710938 C 163.257812 203.589844 162.363281 203.144531 161.496094 202.714844 C 144.988281 194.558594 141.339844 171.5 154.449219 158.171875 C 156.820312 155.761719 161.882812 152.144531 162.886719 152.144531 C 162.96875 152.144531 163.503906 151.929688 164.074219 151.664062 C 167.734375 149.957031 173.574219 149.253906 178.882812 149.878906 "/>
</g>
</svg>
