<?xml version="1.0" encoding="UTF-8"?>
<svg xmlns="http://www.w3.org/2000/svg" xmlns:xlink="http://www.w3.org/1999/xlink" width="256px" height="256px" viewBox="0 0 256 256" version="1.1">
<g id="surface1">
<path style=" stroke:none;fill-rule:nonzero;fill:rgb(100%,100%,100%);fill-opacity:1;" d="M 254.625 126.691406 C 254.625 196.199219 198.28125 252.542969 128.773438 252.542969 C 59.265625 252.542969 2.921875 196.199219 2.921875 126.691406 C 2.921875 57.183594 59.265625 0.839844 128.773438 0.839844 C 198.28125 0.839844 254.625 57.183594 254.625 126.691406 Z M 254.625 126.691406 "/>
<path style=" stroke:none;fill-rule:nonzero;fill:rgb(0%,0%,0%);fill-opacity:1;" d="M 128.773438 246.742188 C 112.566406 246.742188 96.84375 243.566406 82.042969 237.308594 C 67.75 231.261719 54.910156 222.605469 43.886719 211.582031 C 32.863281 200.558594 24.207031 187.71875 18.160156 173.421875 C 11.902344 158.621094 8.726562 142.898438 8.726562 126.695312 C 8.726562 110.488281 11.902344 94.765625 18.160156 79.964844 C 24.207031 65.671875 32.863281 52.832031 43.886719 41.808594 C 54.910156 30.78125 67.75 22.128906 82.042969 16.082031 C 96.847656 9.820312 112.566406 6.648438 128.773438 6.648438 C 144.976562 6.648438 160.703125 9.820312 175.5 16.082031 C 189.796875 22.128906 202.636719 30.785156 213.660156 41.808594 C 224.683594 52.832031 233.339844 65.671875 239.386719 79.964844 C 245.644531 94.769531 248.820312 110.488281 248.820312 126.695312 C 248.820312 142.898438 245.644531 158.621094 239.386719 173.421875 C 233.339844 187.71875 224.683594 200.558594 213.660156 211.582031 C 202.636719 222.605469 189.796875 231.261719 175.5 237.308594 C 160.699219 243.570312 144.976562 246.742188 128.773438 246.742188 Z M 128.773438 9.714844 C 64.269531 9.714844 11.792969 62.191406 11.792969 126.691406 C 11.792969 191.191406 64.269531 243.667969 128.769531 243.667969 C 193.273438 243.667969 245.75 191.191406 245.75 126.691406 C 245.75 62.1875 193.273438 9.714844 128.773438 9.714844 Z M 128.773438 9.714844 "/>
<path style=" stroke:none;fill-rule:nonzero;fill:rgb(0%,0%,0%);fill-opacity:1;" d="M 88.1875 182.578125 C 88.640625 181.757812 89.09375 180.910156 89.570312 180.074219 C 94.066406 172.234375 98.554688 164.386719 103.066406 156.554688 C 107.164062 149.445312 111.296875 142.355469 115.410156 135.25 C 119.9375 127.429688 124.457031 119.601562 128.980469 111.777344 C 129.753906 110.4375 130.523438 109.09375 131.320312 107.765625 C 131.585938 107.320312 131.65625 106.90625 131.515625 106.382812 C 129.632812 99.449219 127.765625 92.507812 125.902344 85.5625 C 125.480469 83.988281 125.089844 82.402344 124.628906 80.601562 C 123.949219 81.695312 123.347656 82.609375 122.804688 83.554688 C 116.941406 93.6875 111.089844 103.828125 105.234375 113.964844 C 98.949219 124.84375 92.660156 135.71875 86.378906 146.601562 C 80.515625 156.761719 74.667969 166.929688 68.8125 177.09375 C 67.824219 178.808594 66.835938 180.519531 65.855469 182.242188 C 65.667969 182.574219 65.4375 182.722656 65.035156 182.722656 C 57.867188 182.710938 50.699219 182.710938 43.53125 182.710938 C 43.484375 182.710938 43.433594 182.675781 43.304688 182.628906 C 44.457031 180.625 45.605469 178.640625 46.75 176.65625 C 55.886719 160.820312 65.015625 144.976562 74.15625 129.140625 C 88.507812 104.277344 102.871094 79.421875 117.207031 54.550781 C 117.640625 53.796875 118.128906 53.523438 118.992188 53.53125 C 124.828125 53.5625 130.667969 53.5625 136.507812 53.53125 C 137.179688 53.53125 137.429688 53.726562 137.601562 54.375 C 140.023438 63.5 142.472656 72.617188 144.917969 81.738281 C 145.035156 82.171875 144.933594 82.453125 144.621094 82.847656 C 143.433594 84.34375 143.039062 86.167969 142.867188 88.019531 C 142.316406 93.964844 143.769531 99.539062 146.097656 104.933594 C 146.886719 106.761719 147.785156 108.542969 148.957031 110.167969 C 149.296875 110.636719 149.351562 110.808594 148.652344 110.953125 C 144.554688 111.796875 141.246094 113.824219 139.191406 117.585938 C 137.519531 120.640625 137.242188 123.957031 137.546875 127.347656 C 137.710938 129.132812 138.0625 130.894531 138.648438 132.59375 C 138.929688 133.410156 138.433594 133.988281 138.101562 134.578125 C 136.160156 138 134.175781 141.394531 132.210938 144.796875 C 127.28125 153.347656 122.347656 161.894531 117.417969 170.441406 C 115.136719 174.390625 112.871094 178.351562 110.59375 182.304688 C 110.445312 182.5625 110.261719 182.722656 109.910156 182.722656 C 102.714844 182.707031 95.519531 182.703125 88.320312 182.691406 C 88.304688 182.691406 88.285156 182.660156 88.1875 182.578125 Z M 88.1875 182.578125 "/>
<path style=" stroke:none;fill-rule:nonzero;fill:rgb(0%,0%,0%);fill-opacity:1;" d="M 156.5 155.210938 C 156.144531 154.125 155.515625 153.761719 154.378906 154.054688 C 149.234375 155.386719 144.460938 157.613281 139.832031 160.175781 C 136.71875 161.898438 133.773438 163.875 131.300781 166.46875 C 129.308594 168.554688 127.878906 170.960938 127.40625 173.851562 C 127.042969 176.066406 127.710938 178.066406 128.769531 179.964844 C 130.910156 183.789062 134.292969 185.953125 138.394531 187.15625 C 138.589844 187.210938 138.730469 187.125 138.886719 187.050781 L 138.871094 190.527344 C 136.792969 189.933594 134.71875 189.347656 132.820312 188.269531 C 129.144531 186.183594 126.445312 183.222656 124.996094 179.246094 C 123.589844 175.375 124.179688 171.640625 126.199219 168.101562 C 127.992188 164.953125 130.5625 162.539062 133.464844 160.445312 C 136.445312 158.292969 139.609375 156.429688 143 155.019531 C 145.945312 153.792969 148.871094 152.5 151.957031 151.636719 C 152.710938 151.425781 152.757812 151.257812 152.203125 150.691406 C 150.445312 148.898438 148.773438 147.027344 147.261719 145.027344 C 143.5625 140.132812 140.554688 134.863281 139.503906 128.726562 C 138.839844 124.847656 138.957031 121.015625 141.277344 117.566406 C 143.128906 114.8125 145.777344 113.335938 148.945312 112.675781 C 149.640625 112.527344 150.308594 112.265625 151.058594 112.269531 C 151.710938 112.273438 152 111.460938 151.554688 110.875 C 149.59375 108.304688 148.164062 105.441406 146.988281 102.460938 C 145.710938 99.234375 144.859375 95.902344 144.578125 92.421875 C 144.40625 90.273438 144.40625 88.179688 145.097656 86.105469 C 146.285156 82.558594 148.335938 79.742188 151.789062 78.121094 C 154.527344 76.835938 157.414062 76.402344 160.445312 76.664062 C 162.875 76.871094 165.207031 77.410156 167.5 78.175781 C 168.25 78.429688 168.398438 78.207031 168.390625 77.5 C 168.382812 76.789062 168.234375 76.0625 168.496094 75.363281 C 168.511719 76.226562 168.546875 77.09375 168.53125 77.957031 C 168.523438 78.324219 168.617188 78.550781 168.960938 78.703125 C 170.355469 79.328125 171.746094 79.960938 173.132812 80.605469 C 173.40625 80.730469 173.5625 80.707031 173.597656 80.382812 C 173.746094 80.820312 174.085938 81.066406 174.46875 81.28125 C 179.003906 83.820312 183.058594 86.988281 186.621094 90.773438 C 189.773438 94.121094 192.34375 97.871094 193.898438 102.226562 C 195.175781 105.796875 194.8125 109.347656 193.269531 112.773438 C 191.6875 116.289062 189.195312 119.082031 186.179688 121.433594 C 185.238281 122.171875 185.195312 122.164062 184.546875 121.117188 C 183.570312 119.53125 183.617188 119.585938 185.003906 118.371094 C 187.820312 115.90625 190.105469 113.03125 191.101562 109.34375 C 191.761719 106.898438 191.417969 104.523438 190.433594 102.179688 C 188.539062 97.675781 185.597656 93.964844 182.027344 90.710938 C 180.753906 89.550781 179.445312 88.425781 177.96875 87.460938 C 177.746094 88.078125 178.070312 88.710938 177.753906 89.261719 C 177.742188 88.941406 177.675781 88.617188 177.726562 88.3125 C 177.871094 87.417969 177.476562 86.886719 176.738281 86.417969 C 175.351562 85.53125 174 84.585938 172.539062 83.832031 C 171.035156 83.054688 169.574219 82.175781 167.886719 81.820312 C 166.882812 81.230469 165.757812 80.988281 164.652344 80.671875 C 161.449219 79.742188 158.269531 79.460938 154.980469 80.339844 C 151.742188 81.210938 149.625 83.269531 148.269531 86.191406 C 147.148438 88.613281 147.097656 91.242188 147.429688 93.808594 C 148.292969 100.507812 151.703125 106.074219 155.550781 111.417969 C 155.808594 111.777344 156.132812 111.933594 156.570312 111.953125 C 159.171875 112.085938 161.679688 112.691406 164.171875 113.410156 C 165.089844 113.675781 165.964844 114.160156 166.972656 114.042969 C 167.179688 114.234375 167.378906 114.433594 167.65625 114.535156 C 169.449219 115.199219 171.238281 115.867188 173.023438 116.550781 C 173.304688 116.660156 173.511719 116.660156 173.722656 116.453125 C 173.738281 116.804688 173.984375 116.902344 174.269531 117.027344 C 181.261719 120.125 188.011719 123.6875 194.71875 127.355469 C 199.535156 129.988281 203.972656 133.085938 207.6875 137.152344 C 209.621094 139.265625 211.367188 141.511719 212.265625 144.296875 C 212.996094 146.558594 212.9375 148.667969 211.03125 150.390625 C 210.089844 151.238281 208.941406 151.59375 207.707031 151.675781 C 205.140625 151.84375 202.664062 151.378906 200.238281 150.550781 C 196.625 149.324219 193.167969 147.761719 189.808594 145.953125 C 187.066406 144.480469 184.421875 142.851562 181.800781 141.175781 C 181.679688 141.09375 181.4375 140.546875 181.183594 141.113281 C 181.046875 140.519531 180.542969 140.265625 180.101562 139.960938 C 174.996094 136.472656 170.238281 132.558594 165.808594 128.242188 C 165.132812 127.582031 164.503906 126.863281 163.6875 126.363281 C 163.691406 126.09375 163.464844 125.964844 163.316406 125.804688 C 160.179688 122.480469 157.171875 119.046875 154.46875 115.355469 C 154.304688 115.125 154.117188 114.882812 153.769531 114.925781 C 152.375 114.796875 150.988281 114.988281 149.667969 115.339844 C 144.230469 116.789062 141.683594 121.910156 142.070312 126.664062 C 142.347656 130.089844 143.539062 133.195312 145.140625 136.183594 C 147.816406 141.167969 151.441406 145.4375 155.242188 149.578125 C 156.082031 150.492188 157.078125 150.53125 158.160156 150.117188 C 158.5625 150.085938 158.964844 150.078125 159.363281 150.023438 C 161.785156 149.683594 164.210938 149.371094 166.648438 149.292969 C 171.085938 149.15625 175.488281 149.574219 179.855469 150.410156 C 181.34375 150.695312 182.78125 151.242188 184.3125 151.316406 C 185.457031 151.933594 186.742188 152.144531 187.949219 152.589844 C 191.195312 153.785156 194.355469 155.140625 197.328125 156.921875 C 200.433594 158.78125 203.324219 160.902344 205.644531 163.710938 C 207.097656 165.472656 207.960938 167.464844 207.925781 169.808594 C 207.90625 171.304688 207.28125 172.484375 206.164062 173.402344 C 204.441406 174.816406 202.375 175.445312 200.210938 175.671875 C 198.640625 175.832031 197.050781 175.757812 195.46875 175.789062 C 195.242188 175.644531 194.992188 175.605469 194.726562 175.59375 C 193.574219 175.546875 192.441406 175.335938 191.316406 175.09375 C 187.386719 174.25 183.640625 172.855469 180.011719 171.152344 C 172.527344 167.636719 165.765625 163.015625 159.488281 157.652344 C 158.511719 156.820312 157.648438 155.847656 156.507812 155.210938 Z M 173.902344 120.640625 C 173.699219 120.519531 173.769531 120.210938 173.511719 120.101562 C 171.875 119.410156 170.296875 118.574219 168.539062 118.203125 C 165.417969 116.839844 162.164062 115.964844 158.625 115.382812 C 160.789062 118.28125 163.015625 120.835938 165.382812 123.269531 C 165.546875 123.4375 165.714844 123.59375 165.964844 123.605469 C 165.882812 123.96875 166.195312 124.105469 166.382812 124.304688 C 170.007812 128.078125 173.976562 131.464844 178.132812 134.640625 C 178.992188 135.296875 179.804688 136.050781 180.859375 136.417969 C 180.953125 136.6875 181.191406 136.800781 181.402344 136.953125 C 183.601562 138.535156 185.875 140.015625 188.21875 141.371094 C 193.207031 144.261719 198.285156 146.960938 203.988281 148.214844 C 205.347656 148.511719 206.699219 148.664062 208.074219 148.375 C 209.097656 148.160156 209.496094 147.691406 209.457031 146.628906 C 209.417969 145.554688 209.171875 144.53125 208.621094 143.582031 C 207.511719 141.648438 206.191406 139.871094 204.628906 138.289062 C 201.902344 135.527344 198.800781 133.246094 195.445312 131.328125 C 191.996094 129.355469 188.488281 127.488281 184.996094 125.59375 C 184.34375 125.242188 183.707031 124.816406 182.921875 124.789062 C 181.917969 123.792969 180.640625 123.324219 179.328125 122.917969 C 177.808594 121.949219 176.15625 121.242188 174.507812 120.53125 C 174.308594 120.441406 174.0625 120.367188 173.902344 120.640625 Z M 196.25 172.652344 C 197.03125 172.652344 197.816406 172.710938 198.589844 172.632812 C 200.222656 172.476562 201.847656 172.28125 203.332031 171.484375 C 204.722656 170.734375 205.164062 169.777344 204.667969 168.269531 C 204.082031 166.492188 202.898438 165.089844 201.566406 163.855469 C 198.761719 161.261719 195.5625 159.234375 192.09375 157.636719 C 190.085938 156.710938 188.054688 155.839844 185.894531 155.320312 C 185.777344 155.25 185.671875 155.148438 185.542969 155.105469 C 181.765625 153.792969 177.867188 153.109375 173.902344 152.671875 C 169.953125 152.234375 166.015625 152.300781 162.074219 152.710938 C 161.125 152.808594 160.148438 152.839844 159.164062 153.242188 C 159.449219 153.511719 159.652344 153.710938 159.863281 153.902344 C 166.75 160 174.230469 165.203125 182.648438 168.96875 C 186.976562 170.90625 191.460938 172.371094 196.25 172.648438 Z M 196.25 172.652344 "/>
<path style=" stroke:none;fill-rule:nonzero;fill:rgb(0%,0%,0%);fill-opacity:1;" d="M 156.5 155.210938 C 157.644531 155.839844 158.507812 156.816406 159.484375 157.648438 C 165.761719 163.011719 172.519531 167.628906 180.003906 171.148438 C 183.632812 172.851562 187.378906 174.246094 191.3125 175.089844 C 192.4375 175.328125 193.570312 175.542969 194.722656 175.589844 C 194.988281 175.601562 195.238281 175.636719 195.460938 175.785156 C 193.070312 180.347656 189.167969 182.457031 184.144531 182.578125 C 180.304688 182.671875 176.457031 182.484375 172.617188 182.625 C 167.074219 182.832031 161.535156 182.652344 155.992188 182.734375 C 155.792969 182.734375 155.589844 182.707031 155.390625 182.691406 C 154.164062 182.332031 152.941406 181.976562 151.710938 181.621094 C 150.292969 180.738281 148.871094 179.855469 147.832031 178.507812 C 145.910156 176.007812 145.007812 173.269531 145.929688 170.113281 C 146.300781 168.839844 147.164062 167.914062 148.117188 167.085938 C 151.457031 164.1875 154.054688 160.746094 155.851562 156.703125 C 156.074219 156.210938 156.480469 155.792969 156.5 155.210938 Z M 156.5 155.210938 "/>
<path style=" stroke:none;fill-rule:nonzero;fill:rgb(0%,0%,0%);fill-opacity:1;" d="M 163.683594 126.359375 C 164.503906 126.859375 165.128906 127.578125 165.804688 128.238281 C 170.238281 132.554688 174.992188 136.46875 180.097656 139.957031 C 180.542969 140.261719 181.042969 140.515625 181.183594 141.109375 C 181.957031 144.113281 182.957031 147.046875 183.941406 149.988281 C 184.085938 150.421875 184.1875 150.871094 184.308594 151.3125 C 182.777344 151.238281 181.339844 150.695312 179.847656 150.410156 C 175.484375 149.570312 171.082031 149.152344 166.644531 149.289062 C 164.207031 149.367188 161.777344 149.679688 159.359375 150.019531 C 158.960938 150.078125 158.558594 150.085938 158.15625 150.113281 C 159.183594 146.765625 159.980469 143.359375 160.539062 139.898438 C 160.734375 139.0625 160.890625 138.214844 161.136719 137.394531 C 161.308594 136.816406 161.171875 136.425781 160.746094 136.019531 C 159.800781 135.117188 159.320312 133.964844 159.042969 132.699219 C 158.890625 132 159.042969 131.652344 159.824219 131.707031 C 160.398438 131.742188 160.980469 131.671875 161.550781 131.722656 C 162.273438 131.785156 162.527344 131.53125 162.449219 130.800781 C 162.28125 129.167969 162.613281 127.65625 163.683594 126.359375 Z M 163.683594 126.359375 "/>
<path style=" stroke:none;fill-rule:nonzero;fill:rgb(0%,0%,0%);fill-opacity:1;" d="M 173.46875 80.371094 C 173.433594 80.703125 173.273438 80.726562 172.996094 80.597656 C 171.589844 79.945312 170.183594 79.300781 168.769531 78.671875 C 168.417969 78.515625 168.328125 78.285156 168.332031 77.917969 C 168.347656 77.039062 168.3125 76.160156 168.296875 75.285156 C 168.304688 74.550781 168.304688 73.820312 168.324219 73.089844 C 168.34375 72.492188 168.035156 72.332031 167.496094 72.386719 C 166.308594 72.5 166.199219 72.398438 166.226562 71.28125 C 166.261719 69.957031 165.582031 69.292969 164.085938 69.1875 C 161.382812 69 159.257812 67.097656 158.714844 64.453125 C 158.5625 63.699219 158.785156 63.445312 159.539062 63.453125 C 161.847656 63.476562 164.15625 63.460938 166.648438 63.460938 C 166.304688 63.027344 166.078125 62.671875 165.789062 62.382812 C 164.648438 61.238281 164.085938 59.808594 163.785156 58.265625 C 163.515625 56.890625 163.320312 55.5 163.074219 54.117188 C 162.960938 53.476562 163.195312 53.152344 163.84375 53.183594 C 167.441406 53.382812 171.039062 53.03125 174.636719 53.234375 C 175.625 53.289062 176.625 53.222656 177.617188 53.171875 C 178.398438 53.132812 178.664062 53.425781 178.527344 54.210938 C 178.265625 55.679688 178.074219 57.160156 177.832031 58.628906 C 177.566406 60.246094 176.792969 61.585938 175.5625 62.667969 C 175.332031 62.871094 175 62.988281 174.910156 63.347656 C 175.175781 63.554688 175.476562 63.445312 175.753906 63.449219 C 177.859375 63.46875 179.96875 63.480469 182.078125 63.476562 C 182.738281 63.476562 182.945312 63.734375 182.832031 64.402344 C 182.398438 66.941406 180.238281 68.964844 177.683594 69.164062 C 175.859375 69.304688 175.328125 69.828125 175.261719 71.683594 C 175.242188 72.238281 175.039062 72.367188 174.53125 72.367188 C 173.359375 72.363281 173.269531 72.460938 173.304688 73.613281 C 173.375 75.863281 173.164062 78.121094 173.460938 80.367188 Z M 173.46875 80.371094 "/>
<path style=" stroke:none;fill-rule:nonzero;fill:rgb(0%,0%,0%);fill-opacity:1;" d="M 173.71875 116.449219 C 173.511719 116.65625 173.300781 116.652344 173.023438 116.546875 C 171.238281 115.859375 169.445312 115.195312 167.652344 114.53125 C 167.375 114.429688 167.175781 114.230469 166.96875 114.039062 C 166.714844 113.765625 166.464844 113.484375 166.199219 113.226562 C 163.453125 110.585938 163.339844 107.382812 166.183594 104.890625 C 169.421875 102.050781 169.246094 94.722656 166.046875 92.515625 C 165.140625 91.894531 164.511719 90.90625 164.390625 89.773438 C 164.160156 87.625 164.554688 85.65625 166.292969 84.132812 C 167.007812 83.507812 167.628906 82.773438 167.886719 81.8125 C 169.570312 82.171875 171.035156 83.050781 172.539062 83.828125 C 174 84.582031 175.351562 85.527344 176.738281 86.410156 C 177.472656 86.882812 177.867188 87.410156 177.726562 88.304688 C 177.675781 88.613281 177.738281 88.9375 177.75 89.253906 C 177.589844 90.511719 177.070312 91.628906 176.066406 92.375 C 172.59375 94.964844 172.445312 102.160156 175.988281 105.046875 C 178.257812 106.894531 178.628906 110.476562 176.175781 112.847656 C 175.121094 113.867188 174.140625 114.976562 173.71875 116.449219 Z M 173.71875 116.449219 "/>
<path style=" stroke:none;fill-rule:nonzero;fill:rgb(0%,0%,0%);fill-opacity:1;" d="M 138.871094 190.527344 L 138.882812 187.050781 C 139.074219 186.496094 139.542969 186.5625 139.96875 186.582031 C 141.875 186.675781 143.777344 186.65625 145.683594 186.589844 C 146.148438 186.574219 146.496094 186.46875 146.8125 186.105469 C 147.992188 184.761719 149.5 184.464844 151.152344 184.949219 C 152.664062 185.394531 154.128906 185.503906 155.652344 184.992188 C 156.515625 184.703125 157.425781 184.8125 158.292969 185.109375 C 159.507812 185.53125 160.71875 185.527344 161.945312 185.144531 C 163.375 184.695312 164.722656 184.851562 165.984375 185.722656 C 167.105469 186.5 168.367188 186.871094 169.738281 186.835938 C 169.992188 186.832031 170.320312 186.738281 170.402344 187.070312 C 170.5 187.453125 170.644531 187.746094 171.078125 187.691406 C 171.832031 187.597656 172.65625 187.996094 173.320312 187.394531 C 173.5625 187.179688 173.746094 186.917969 174.105469 186.914062 C 174.523438 186.902344 174.832031 186.976562 174.808594 187.527344 C 174.773438 188.421875 174.800781 189.320312 174.796875 190.214844 C 174.792969 190.527344 174.851562 190.914062 174.476562 191.035156 C 174.085938 191.164062 173.6875 191.121094 173.367188 190.769531 C 172.605469 189.945312 171.578125 190.429688 170.683594 190.25 C 169.902344 191.527344 168.46875 190.90625 167.402344 191.371094 C 166.847656 191.609375 166.265625 191.785156 165.765625 192.144531 C 164.621094 192.960938 163.371094 193.109375 162.0625 192.652344 C 160.789062 192.210938 159.539062 192.164062 158.246094 192.566406 C 157.230469 192.882812 156.1875 192.878906 155.1875 192.460938 C 154.074219 191.992188 152.941406 191.960938 151.804688 192.304688 C 150.035156 192.839844 148.382812 192.789062 146.949219 191.457031 C 146.667969 191.195312 146.3125 191.226562 145.964844 191.226562 C 143.914062 191.226562 141.863281 191.222656 139.808594 191.230469 C 139.296875 191.234375 138.867188 191.179688 138.871094 190.523438 Z M 138.871094 190.527344 "/>
<path style=" stroke:none;fill-rule:nonzero;fill:rgb(0%,0%,0%);fill-opacity:1;" d="M 196.25 172.652344 C 191.460938 172.375 186.980469 170.910156 182.648438 168.972656 C 174.230469 165.207031 166.75 160.003906 159.867188 153.90625 C 159.652344 153.714844 159.449219 153.515625 159.167969 153.246094 C 160.148438 152.84375 161.125 152.8125 162.074219 152.714844 C 166.015625 152.304688 169.953125 152.238281 173.90625 152.675781 C 177.871094 153.113281 181.769531 153.796875 185.542969 155.109375 C 185.671875 155.152344 185.777344 155.253906 185.898438 155.324219 C 186.585938 157.359375 187.523438 159.265625 188.839844 160.96875 C 190.464844 163.070312 192.339844 164.953125 194.125 166.914062 C 195.597656 168.535156 196.449219 170.40625 196.25 172.65625 Z M 196.25 172.652344 "/>
<path style=" stroke:none;fill-rule:nonzero;fill:rgb(0%,0%,0%);fill-opacity:1;" d="M 182.921875 124.789062 C 181.835938 125.59375 180.757812 126.410156 179.660156 127.195312 C 179.238281 127.496094 179.160156 127.824219 179.316406 128.304688 C 179.609375 129.1875 179.757812 130.09375 179.523438 131.019531 C 179.382812 131.574219 179.632812 131.742188 180.15625 131.71875 C 180.789062 131.6875 181.429688 131.757812 182.058594 131.695312 C 182.898438 131.613281 183.058594 132.015625 182.925781 132.726562 C 182.652344 134.191406 181.964844 135.421875 180.859375 136.414062 C 179.804688 136.046875 178.992188 135.292969 178.132812 134.636719 C 173.976562 131.464844 170.007812 128.078125 166.378906 124.300781 C 166.191406 124.105469 165.878906 123.96875 165.964844 123.605469 C 167.765625 122.253906 168.441406 120.367188 168.539062 118.203125 C 170.296875 118.574219 171.875 119.410156 173.511719 120.101562 C 173.769531 120.210938 173.699219 120.519531 173.902344 120.640625 C 174.378906 122.464844 175.867188 123.480469 177.109375 124.691406 C 177.367188 124.945312 177.574219 124.839844 177.769531 124.621094 C 178.277344 124.046875 178.90625 123.574219 179.328125 122.914062 C 180.640625 123.320312 181.917969 123.789062 182.921875 124.789062 Z M 182.921875 124.789062 "/>
<path style=" stroke:none;fill-rule:nonzero;fill:rgb(0%,0%,0%);fill-opacity:1;" d="M 184.308594 118.984375 L 181.589844 121.082031 L 184.308594 122.910156 L 185.488281 121.898438 Z M 184.308594 118.984375 "/>
<path style=" stroke:none;fill-rule:nonzero;fill:rgb(0%,0%,0%);fill-opacity:1;" d="M 128.773438 239.785156 C 113.503906 239.785156 98.695312 236.792969 84.753906 230.894531 C 71.285156 225.199219 59.191406 217.046875 48.804688 206.660156 C 38.417969 196.273438 30.265625 184.179688 24.570312 170.710938 C 18.671875 156.765625 15.679688 141.957031 15.679688 126.691406 C 15.679688 111.425781 18.671875 96.613281 24.570312 82.671875 C 30.265625 69.203125 38.417969 57.109375 48.804688 46.722656 C 59.191406 36.335938 71.285156 28.183594 84.753906 22.488281 C 98.695312 16.589844 113.507812 13.597656 128.773438 13.597656 C 144.039062 13.597656 158.851562 16.589844 172.792969 22.488281 C 186.261719 28.183594 198.355469 36.335938 208.742188 46.722656 C 219.128906 57.109375 227.28125 69.203125 232.976562 82.671875 C 238.875 96.613281 241.867188 111.425781 241.867188 126.691406 C 241.867188 141.957031 238.875 156.769531 232.976562 170.710938 C 227.28125 184.179688 219.128906 196.273438 208.742188 206.660156 C 198.355469 217.046875 186.261719 225.199219 172.792969 230.894531 C 158.851562 236.792969 144.039062 239.785156 128.773438 239.785156 Z M 128.773438 14.453125 C 66.882812 14.453125 16.535156 64.804688 16.535156 126.691406 C 16.535156 188.582031 66.882812 238.929688 128.773438 238.929688 C 190.660156 238.929688 241.011719 188.582031 241.011719 126.691406 C 241.011719 64.804688 190.660156 14.453125 128.773438 14.453125 Z M 128.773438 14.453125 "/>
</g>
</svg>
