<?xml version="1.0" encoding="UTF-8"?>
<svg xmlns="http://www.w3.org/2000/svg" xmlns:xlink="http://www.w3.org/1999/xlink" width="256px" height="256px" viewBox="0 0 256 256" version="1.1">
<g id="surface1">
<path style=" stroke:none;fill-rule:nonzero;fill:rgb(100%,11.372549%,14.509804%);fill-opacity:1;" d="M 189.191406 25.496094 C 157.824219 25.496094 131.925781 48.902344 128 79.199219 C 124.074219 48.902344 98.175781 25.496094 66.808594 25.496094 C 32.726562 25.496094 5.097656 53.125 5.097656 87.207031 C 5.097656 121.285156 46.039062 156.320312 64.484375 172.152344 C 81.714844 186.941406 128 230.503906 128 230.503906 C 128 230.503906 174.285156 186.941406 191.515625 172.152344 C 209.960938 156.320312 250.902344 121.285156 250.902344 87.207031 C 250.902344 53.125 223.273438 25.496094 189.191406 25.496094 Z M 189.191406 25.496094 "/>
<path style=" stroke:none;fill-rule:nonzero;fill:rgb(0%,0%,0%);fill-opacity:1;" d="M 128 235.601562 C 126.742188 235.601562 125.488281 235.140625 124.503906 234.214844 C 124.042969 233.78125 78.109375 190.566406 61.164062 176.019531 L 60.984375 175.867188 C 41.191406 158.878906 0 123.519531 0 87.207031 C 0 50.367188 29.96875 20.398438 66.808594 20.398438 C 93.816406 20.398438 117.574219 36.671875 128 60.367188 C 138.425781 36.671875 162.183594 20.398438 189.191406 20.398438 C 226.03125 20.398438 256 50.367188 256 87.207031 C 256 123.519531 214.808594 158.875 195.015625 175.867188 L 194.835938 176.019531 C 177.890625 190.566406 131.957031 233.78125 131.496094 234.214844 C 130.511719 235.140625 129.257812 235.601562 128 235.601562 Z M 66.808594 30.597656 C 35.59375 30.597656 10.199219 55.992188 10.199219 87.207031 C 10.199219 118.832031 50.445312 153.378906 67.628906 168.128906 L 67.804688 168.28125 C 82.15625 180.601562 116.867188 213.0625 128 223.507812 C 139.132812 213.0625 173.84375 180.601562 188.195312 168.28125 L 188.371094 168.128906 C 205.554688 153.378906 245.800781 118.832031 245.800781 87.207031 C 245.800781 55.992188 220.40625 30.597656 189.191406 30.597656 C 160.828125 30.597656 136.695312 51.773438 133.058594 79.855469 C 132.726562 82.394531 130.5625 84.296875 128 84.296875 C 125.4375 84.296875 123.273438 82.394531 122.941406 79.855469 C 119.304688 51.773438 95.171875 30.597656 66.808594 30.597656 Z M 66.808594 30.597656 "/>
<path style=" stroke:none;fill-rule:nonzero;fill:rgb(0%,0%,0%);fill-opacity:1;" d="M 128.515625 210.113281 C 127.265625 210.113281 126.019531 209.660156 125.035156 208.742188 C 111.300781 195.917969 86.546875 172.933594 75.105469 163.109375 L 74.949219 162.976562 C 73.027344 161.328125 70.847656 159.457031 68.496094 157.402344 C 66.378906 155.546875 66.164062 152.324219 68.015625 150.207031 C 69.871094 148.085938 73.09375 147.871094 75.210938 149.722656 C 77.527344 151.746094 79.6875 153.601562 81.59375 155.238281 L 81.75 155.371094 C 92.753906 164.816406 115.144531 185.554688 131.996094 201.289062 C 134.054688 203.210938 134.164062 206.4375 132.242188 208.496094 C 131.238281 209.570312 129.878906 210.113281 128.515625 210.113281 Z M 128.515625 210.113281 "/>
<path style=" stroke:none;fill-rule:nonzero;fill:rgb(0%,0%,0%);fill-opacity:1;" d="M 57.769531 145.75 C 56.488281 145.75 55.210938 145.269531 54.21875 144.308594 C 50.847656 141.035156 47.65625 137.777344 44.738281 134.628906 C 42.824219 132.5625 42.945312 129.335938 45.011719 127.421875 C 47.078125 125.507812 50.304688 125.628906 52.21875 127.695312 C 55.015625 130.714844 58.078125 133.839844 61.324219 136.988281 C 63.34375 138.953125 63.390625 142.179688 61.429688 144.199219 C 60.429688 145.230469 59.101562 145.75 57.769531 145.75 Z M 57.769531 145.75 "/>
</g>
</svg>
