<?xml version="1.0" encoding="utf-8"?>
<!-- Generator: Adobe Illustrator 26.0.1, SVG Export Plug-In . SVG Version: 6.00 Build 0)  -->
<svg version="1.1" id="Layer_1" xmlns="http://www.w3.org/2000/svg" xmlns:xlink="http://www.w3.org/1999/xlink" x="0px" y="0px"
	 viewBox="0 0 256 256" style="enable-background:new 0 0 256 256;" xml:space="preserve">
<style type="text/css">
	.st0{fill:#FFFF00;}
</style>
<g>
	<circle class="st0" cx="127.86" cy="128.11" r="128"/>
	<path d="M231.66,128.13c0.03,17.83-3.42,34.12-11.68,49.23c-6.99,12.8-16.63,23.29-28.2,32.07c-11.54,8.75-24.1,15.49-38.21,19.14
		c-16.91,4.37-33.78,3.83-50.62-0.44c-18.31-4.65-34.5-13.15-48-26.48c-16.07-15.87-25.83-35.04-29.47-57.3
		C16.69,90.69,49.9,48.6,86.21,32.52c9.67-4.28,19.86-6.52,30.35-7.42c14.96-1.28,29.71-0.04,44.12,4.25
		c35.87,10.68,62.89,41.31,69.12,78.16C230.99,114.57,231.59,121.69,231.66,128.13z M214.69,127.84
		c0.1-47.91-38.46-86.82-86.19-86.97C80.55,40.73,41.54,79.6,41.4,127.66c-0.15,47.61,38.55,86.3,87.36,86.3
		C175.53,213.97,214.59,174.94,214.69,127.84z"/>
	<path d="M128.1,196.92c-37.64-0.03-69.52-32.11-69.48-69.91c0.04-37.26,31.56-68.92,68.56-68.85c39.5,0.07,70.29,30.92,70.23,70.37
		C197.35,165.02,164.99,196.95,128.1,196.92z M128.11,144.62c9.58,0.02,17.21-7.66,17.22-17.34c0.01-9.17-8.13-17.27-17.37-17.28
		c-9-0.01-17.08,8.08-17.09,17.13C110.86,136.54,118.81,144.61,128.11,144.62z"/>
</g>
</svg>
