<svg xmlns="http://www.w3.org/2000/svg" fill="none" viewBox="0 0 256 256">
<circle cx="128" cy="128" r="128" fill="black"/>
<path d="M203.194 169.002L177.956 196.14C176.863 197.343 175.333 198 173.695 198H53.9499C52.3111 198 51 196.687 51 195.046C51 194.28 51.3278 193.623 51.7648 193.076L77.003 165.938C78.0955 164.735 79.6251 164.078 81.2639 164.078H201.009C202.647 164.078 203.959 165.282 203.959 166.923C204.068 167.689 203.74 168.455 203.194 169.002ZM177.956 114.399C176.863 113.196 175.333 112.539 173.695 112.539H53.9499C52.3111 112.539 51 113.852 51 115.494C51 116.26 51.3278 116.916 51.7648 117.463L77.003 144.601C78.0955 145.804 79.6251 146.461 81.2639 146.461H201.009C202.647 146.461 203.959 145.148 203.959 143.506C203.959 142.74 203.631 142.084 203.194 141.537L177.956 114.399ZM53.9499 94.9217H173.695C175.333 94.9217 176.863 94.2652 177.956 93.0615L203.194 65.9241C204.286 64.7204 204.286 62.8602 203.085 61.766C202.975 61.6566 202.757 61.5471 202.647 61.4377C202.21 61.1094 201.555 61 201.009 61H81.3732C79.7344 61 78.2048 61.6566 77.1122 62.8602L51.8741 89.9976C50.7815 91.2013 50.8907 93.0615 51.9833 94.1558C52.5296 94.7029 53.2944 94.9217 53.9499 94.9217Z" fill="url(#paint0_linear_3_168)"/>
<path d="M213.5 256C236.972 256 256 236.972 256 213.5C256 190.028 236.972 171 213.5 171C190.028 171 171 190.028 171 213.5C171 236.972 190.028 256 213.5 256Z" fill="url(#paint1_linear_3_168)"/>
<path d="M213.715 244.021C205.52 244.021 197.671 240.905 191.784 235.249C185.898 229.593 182.781 221.975 183.012 214.011C183.243 206.046 186.936 198.428 192.708 192.772C198.594 187.116 205.982 184 213.715 184C221.449 184 228.836 187.116 234.723 192.772C240.494 198.428 244.187 206.046 244.418 214.011C244.649 221.975 241.417 229.593 235.646 235.249C229.759 240.905 221.91 244.021 213.715 244.021ZM213.715 186.309C206.559 186.309 199.633 189.194 194.208 194.388C188.783 199.582 185.551 206.623 185.32 214.011C185.09 221.398 188.091 228.439 193.4 233.633C198.825 238.827 206.097 241.713 213.6 241.713C221.218 241.713 228.49 238.827 233.799 233.633C239.224 228.439 242.11 221.398 241.879 214.011C241.648 206.623 238.301 199.582 232.991 194.388C227.797 189.194 220.872 186.309 213.715 186.309Z" fill="white"/>
<path d="M217.64 239.289C210.83 239.289 204.25 236.634 199.518 232.017C194.67 227.4 192.015 221.052 192.131 214.472C192.246 207.893 195.132 201.545 199.98 196.928C204.712 192.311 211.06 189.656 217.524 189.656C223.988 189.656 230.336 192.311 235.184 196.928C240.032 201.545 243.033 207.893 243.149 214.472C243.38 221.052 240.725 227.4 235.877 232.017C230.914 236.634 224.334 239.289 217.64 239.289ZM217.409 191.387C211.407 191.387 205.52 193.811 201.134 198.197C196.748 202.468 194.093 208.355 193.862 214.472C193.747 220.59 196.17 226.477 200.672 230.747C205.174 235.018 211.176 237.557 217.524 237.557C223.873 237.557 229.875 235.133 234.376 230.747C238.878 226.477 241.302 220.59 241.186 214.472C241.071 208.355 238.301 202.468 233.799 198.197C229.298 193.811 223.411 191.387 217.409 191.387Z" fill="white"/>
<path d="M221.564 234.557C216.139 234.557 210.945 232.479 207.136 228.785C203.327 225.092 201.249 220.128 201.249 214.819C201.364 209.625 203.558 204.546 207.251 200.852C211.06 197.159 216.023 195.081 221.218 195.081C226.412 195.081 231.491 197.159 235.3 200.852C239.109 204.546 241.533 209.509 241.648 214.819C241.763 220.013 239.686 225.092 235.877 228.785C232.068 232.479 226.873 234.557 221.564 234.557ZM221.218 196.351C216.37 196.351 211.637 198.313 208.175 201.776C204.712 205.238 202.634 209.971 202.519 214.819C202.519 219.667 204.481 224.399 208.059 227.862C211.637 231.325 216.485 233.287 221.564 233.287C226.643 233.287 231.491 231.325 235.069 227.862C238.647 224.399 240.609 219.667 240.494 214.819C240.378 209.971 238.185 205.238 234.607 201.776C230.798 198.313 226.066 196.351 221.218 196.351Z" fill="white"/>
<path d="M225.489 229.824C221.449 229.824 217.64 228.324 214.87 225.553C212.099 222.783 210.483 219.089 210.483 215.28C210.483 211.471 212.099 207.662 214.87 205.008C217.64 202.237 221.333 200.737 225.258 200.737C229.182 200.737 232.876 202.237 235.762 205.008C238.647 207.778 240.263 211.471 240.379 215.28C240.494 219.089 238.994 222.899 236.108 225.553C233.222 228.208 229.413 229.824 225.489 229.824ZM225.142 201.429C221.449 201.429 217.986 202.93 215.331 205.469C212.676 208.009 211.176 211.587 211.176 215.28C211.176 218.974 212.676 222.437 215.331 225.092C217.986 227.631 221.68 229.132 225.373 229.132C229.182 229.132 232.761 227.631 235.415 225.092C238.07 222.552 239.455 218.974 239.455 215.28C239.34 211.587 237.724 208.124 235.069 205.469C232.414 202.93 228.836 201.429 225.142 201.429Z" fill="white"/>
<defs>
<linearGradient id="paint0_linear_3_168" x1="63.9653" y1="201.301" x2="189.716" y2="59.7501" gradientUnits="userSpaceOnUse">
<stop offset="0.08" stop-color="#9945FF"/>
<stop offset="0.3" stop-color="#8752F3"/>
<stop offset="0.5" stop-color="#5497D5"/>
<stop offset="0.6" stop-color="#43B4CA"/>
<stop offset="0.72" stop-color="#28E0B9"/>
<stop offset="0.97" stop-color="#19FB9B"/>
</linearGradient>
<linearGradient id="paint1_linear_3_168" x1="184.382" y1="190.98" x2="251.189" y2="243.653" gradientUnits="userSpaceOnUse">
<stop offset="4.47534e-07" stop-color="#EB3057"/>
<stop offset="0.0321318" stop-color="#DE2E55"/>
<stop offset="0.1698" stop-color="#AA2850"/>
<stop offset="0.3098" stop-color="#7D224B"/>
<stop offset="0.4492" stop-color="#581D46"/>
<stop offset="0.5882" stop-color="#3B1A43"/>
<stop offset="0.7266" stop-color="#271741"/>
<stop offset="0.8641" stop-color="#1B163F"/>
<stop offset="1" stop-color="#17153F"/>
</linearGradient>
</defs>
</svg>