<svg width="1024" height="1024" viewBox="0 0 1024 1024" fill="none" xmlns="http://www.w3.org/2000/svg">
<circle cx="512" cy="512" r="512" fill="#3F3D56"/>
<circle cx="512" cy="512" r="496" stroke="#6C63FF" stroke-width="32"/>
<g clip-path="url(#clip0_815_4)">
<path d="M767.489 727.122V770.769C767.487 772.421 766.832 774.005 765.668 775.173C764.504 776.341 762.925 776.998 761.278 777H267.919C266.273 776.996 264.695 776.339 263.531 775.171C262.367 774.003 261.711 772.421 261.708 770.769V715.48C262.293 714.857 262.879 714.243 263.482 713.629C296.254 679.555 335.71 652.663 379.362 634.65C423.014 616.636 469.914 607.892 517.103 608.97C564.292 610.047 610.747 620.921 653.537 640.908C696.326 660.894 734.522 689.559 765.715 725.093C766.318 725.76 766.904 726.446 767.489 727.122Z" fill="#6C63FF"/>
<path d="M466.264 707.058L448.666 707.546C445.993 707.684 443.349 706.94 441.137 705.428C439.226 704.003 438.349 702.075 438.733 700.139L442.196 682.683C442.849 679.39 446.872 676.901 451.762 676.765L461.48 676.496C466.37 676.361 470.524 678.624 471.357 681.876L475.775 699.114C476.265 701.025 475.496 702.998 473.666 704.528C471.54 706.159 468.941 707.048 466.264 707.058V707.058Z" fill="#3F3D56"/>
<path d="M573.304 706.559L555.706 707.047C553.033 707.185 550.388 706.441 548.176 704.929C546.265 703.504 545.389 701.576 545.773 699.64L549.236 682.184C549.888 678.891 553.912 676.402 558.801 676.266L568.52 675.997C573.409 675.862 577.563 678.125 578.396 681.377L582.814 698.614C583.305 700.526 582.535 702.499 580.706 704.029C578.58 705.66 575.98 706.549 573.304 706.559V706.559Z" fill="#3F3D56"/>
<path d="M405.158 558.364C404.354 558.017 403.692 557.405 403.282 556.629C402.872 555.853 402.739 554.96 402.904 554.097C403.069 553.235 403.523 552.455 404.19 551.886C404.857 551.318 405.698 550.995 406.573 550.97L606.638 545.429C607.143 545.415 607.645 545.501 608.116 545.681C608.588 545.862 609.019 546.134 609.386 546.482C609.752 546.83 610.047 547.246 610.253 547.708C610.459 548.17 610.572 548.669 610.586 549.175V549.175C610.613 550.196 610.235 551.187 609.535 551.929C608.834 552.671 607.869 553.105 606.851 553.134L606.851 553.134L406.785 558.675C406.226 558.692 405.671 558.586 405.158 558.364Z" fill="#3F3D56"/>
<path d="M478.992 491.932L421.804 493.516L427.136 687.185L484.324 685.601L478.992 491.932Z" fill="#E6E6E6"/>
<path d="M480.443 488.452L469.45 518.49L469.46 655.341L482.855 659.194L480.443 488.452Z" fill="#E6E6E6"/>
<path d="M450.1 441.319C439.401 441.624 431.238 460.196 431.434 467.443L431.795 480.564L470.536 479.491L470.175 466.37C469.972 459.123 460.799 441.031 450.1 441.319Z" fill="#3F3D56"/>
<path d="M422.546 573.719C420.547 573.772 418.609 573.027 417.156 571.649C415.704 570.27 414.856 568.37 414.798 566.365L414.21 545.012C414.155 543.007 414.897 541.061 416.271 539.604C417.646 538.146 419.542 537.297 421.542 537.241C423.541 537.186 425.481 537.929 426.934 539.309C428.387 540.688 429.234 542.589 429.289 544.595L429.877 565.948C429.93 567.953 429.188 569.897 427.814 571.354C426.439 572.81 424.545 573.661 422.546 573.719V573.719Z" fill="#3F3D56"/>
<path d="M437.058 493.975L436.788 479.863L440.477 479.771L440.748 493.838L444.092 698.854L440.402 698.956" fill="#3F3D56"/>
<path d="M485.55 526.974L419.231 528.811C412.897 521.063 412.322 488.054 425.541 481.772L430.725 472.942L470.693 470.985L475.364 480.282C481.94 485.894 485.331 518.697 485.55 526.974Z" fill="#E6E6E6"/>
<path d="M460.589 511.143L443.818 511.607C440.582 511.697 437.83 507.486 437.685 502.221C437.54 496.956 440.056 492.599 443.292 492.509L460.063 492.044C463.299 491.955 466.051 496.166 466.196 501.431C466.34 506.696 463.825 511.053 460.589 511.143Z" fill="#6C63FF"/>
<path d="M428.112 606.372L393.543 630.866L387.503 686.093L427.831 672.577L428.112 606.372Z" fill="#E6E6E6"/>
<path d="M589.386 489.56L532.198 491.144L537.53 684.813L594.718 683.229L589.386 489.56Z" fill="#E6E6E6"/>
<path d="M533.568 489.1L545.335 518.841L548.865 655.647L535.574 659.847L533.568 489.1Z" fill="#E6E6E6"/>
<path d="M617.985 435.791C622.125 435.791 625.481 431.277 625.481 425.709C625.481 420.141 622.125 415.627 617.985 415.627C613.846 415.627 610.49 420.141 610.49 425.709C610.49 431.277 613.846 435.791 617.985 435.791Z" fill="#E6E6E6"/>
<path d="M657.17 583.803C661.309 583.803 664.665 579.29 664.665 573.721C664.665 568.153 661.309 563.64 657.17 563.64C653.03 563.64 649.674 568.153 649.674 573.721C649.674 579.29 653.03 583.803 657.17 583.803Z" fill="#E6E6E6"/>
<path d="M365.492 555.509C369.631 555.509 372.987 550.996 372.987 545.428C372.987 539.859 369.631 535.346 365.492 535.346C361.352 535.346 357.996 539.859 357.996 545.428C357.996 550.996 361.352 555.509 365.492 555.509Z" fill="#E6E6E6"/>
<path d="M559.378 438.977C548.679 439.282 540.516 457.854 540.712 465.101L541.073 478.222L579.813 477.149L579.452 464.028C579.249 456.781 570.077 438.689 559.378 438.977Z" fill="#3F3D56"/>
<path d="M570.455 498.393L570.185 484.281L573.874 484.188L574.145 498.255L577.489 703.272L573.799 703.374" fill="#3F3D56"/>
<path d="M594.827 524.633L528.509 526.47C527.353 519.46 528.849 486.745 534.819 479.431L540.003 470.602L579.971 468.645L584.642 477.941C596.442 478.906 600.57 511.053 594.827 524.633Z" fill="#E6E6E6"/>
<path d="M569.947 511.748L553.177 512.213C549.94 512.303 547.171 507.43 547.003 501.353C546.836 495.276 549.334 490.258 552.57 490.168L569.34 489.703C572.577 489.614 575.346 494.486 575.514 500.563C575.681 506.64 573.184 511.659 569.947 511.748Z" fill="#6C63FF"/>
<path d="M592.212 592.215L625.631 618.264L629.151 673.711L589.481 658.363L592.212 592.215Z" fill="#E6E6E6"/>
<path d="M357.996 336.107C362.136 336.107 365.492 331.593 365.492 326.025C365.492 320.457 362.136 315.943 357.996 315.943C353.856 315.943 350.5 320.457 350.5 326.025C350.5 331.593 353.856 336.107 357.996 336.107Z" fill="#E6E6E6"/>
<path d="M590.478 254.223C594.618 254.223 597.974 249.709 597.974 244.141C597.974 238.573 594.618 234.06 590.478 234.06C586.338 234.06 582.982 238.573 582.982 244.141C582.982 249.709 586.338 254.223 590.478 254.223Z" fill="#E6E6E6"/>
<path d="M350.5 465.539C354.64 465.539 357.996 461.025 357.996 455.457C357.996 449.889 354.64 445.375 350.5 445.375C346.361 445.375 343.005 449.889 343.005 455.457C343.005 461.025 346.361 465.539 350.5 465.539Z" fill="#E6E6E6"/>
<path d="M426.621 376.798C423.194 379.088 419.687 373.637 423.18 371.448C426.606 369.158 430.114 374.609 426.621 376.798Z" fill="#E6E6E6"/>
<path d="M553.51 197.9C550.083 200.19 546.576 194.739 550.069 192.551C553.495 190.261 557.003 195.712 553.51 197.9Z" fill="#E6E6E6"/>
<path d="M628.293 303.967L626.113 303.488L626.591 301.3L625.137 300.98L624.659 303.168L622.479 302.689L622.16 304.147L624.34 304.627L623.863 306.814L625.316 307.133L625.795 304.946L627.975 305.425L628.293 303.967Z" fill="#E6E6E6"/>
<path d="M497.914 209.081C487.215 209.385 479.052 227.957 479.249 235.205L479.61 248.325L518.35 247.252L517.989 234.132C517.786 226.885 508.614 208.793 497.914 209.081Z" fill="#3F3D56"/>
<path d="M520.982 705.915L503.384 706.402C500.711 706.54 498.067 705.796 495.855 704.285C493.944 702.859 493.067 700.932 493.451 698.996L496.914 681.54C497.567 678.247 501.59 675.757 506.48 675.622L516.198 675.352C521.088 675.217 525.242 677.48 526.075 680.732L530.493 697.97C530.983 699.881 530.214 701.854 528.384 703.384C526.258 705.016 523.659 705.904 520.982 705.915V705.915Z" fill="#3F3D56"/>
<path d="M528.83 292.606L471.641 294.19L482.419 685.671L539.607 684.087L528.83 292.606Z" fill="#E6E6E6"/>
<path d="M505.947 482.107L505.676 467.995L509.366 467.903L509.636 481.969L512.981 686.986L509.29 687.088" fill="#3F3D56"/>
<path d="M540.089 328.435L462.601 330.581C461.25 322.389 462.998 284.165 469.974 275.619L471.886 265.417L525.389 263.936L528.188 273.878C535.871 280.436 539.833 318.764 540.089 328.435Z" fill="#E6E6E6"/>
<path d="M527.08 265.14L471.868 266.669C469.83 266.726 468.147 265.652 468.109 264.272C468.104 264.073 468.133 263.875 468.195 263.686L476.771 237.185C477.138 236.05 478.6 235.217 480.306 235.17L516.922 234.155C518.628 234.108 520.133 234.859 520.563 235.972L530.583 261.958C531.096 263.287 529.912 264.67 527.94 265.047C527.656 265.101 527.369 265.132 527.08 265.14V265.14Z" fill="#E6E6E6"/>
<path d="M477.314 480.306C476.816 480.092 476.345 479.819 475.911 479.492C475.29 479.055 474.777 478.481 474.411 477.814C474.045 477.148 473.836 476.406 473.8 475.646L471.794 402.772C471.712 399.755 474.656 397.217 478.358 397.115L527.786 395.745C531.489 395.642 534.568 398.014 534.651 401.031L536.657 473.905C536.663 474.666 536.495 475.418 536.167 476.104C535.838 476.79 535.357 477.391 534.761 477.862C533.441 478.941 531.796 479.54 530.093 479.562L480.666 480.93C479.517 480.969 478.373 480.756 477.314 480.306Z" fill="#3F3D56"/>
<path d="M508.95 260.45L492.179 260.914C488.943 261.004 486.206 257.336 486.08 252.74C485.953 248.144 488.484 244.33 491.72 244.241L508.491 243.776C511.727 243.686 514.464 247.354 514.59 251.95C514.717 256.547 512.186 260.36 508.95 260.45Z" fill="#6C63FF"/>
<path d="M590.803 568.989C588.804 569.042 586.865 568.298 585.413 566.919C583.96 565.541 583.112 563.64 583.055 561.635L582.467 540.283C582.413 538.278 583.155 536.334 584.53 534.877C585.905 533.421 587.8 532.572 589.798 532.517C591.797 532.461 593.736 533.204 595.189 534.582C596.642 535.96 597.489 537.86 597.546 539.865L598.134 561.218C598.187 563.223 597.445 565.167 596.07 566.624C594.696 568.081 592.801 568.931 590.803 568.989Z" fill="#3F3D56"/>
<path d="M315.339 629.537C306.247 629.537 300.336 627.271 297.72 622.766C292.561 613.883 301.201 598.297 323.4 576.439L325.265 578.345C304.645 598.649 295.679 613.947 300.02 621.423C302.767 626.151 310.942 627.846 323.666 626.321C336.297 624.809 353.037 620.301 373.42 612.922C415.383 597.732 468.031 572.108 521.663 540.772C575.294 509.436 623.485 476.141 657.361 447.02C663.867 441.426 669.772 436.044 674.912 431.025C681.658 424.597 687.882 417.64 693.524 410.218C701.122 399.87 703.687 391.9 700.94 387.171C696.353 379.273 677.082 380.015 646.674 389.265L645.902 386.71C678.526 376.787 697.818 376.489 703.24 385.827C706.61 391.629 704.062 400.368 695.668 411.802C689.939 419.341 683.619 426.409 676.769 432.938C671.589 437.996 665.642 443.416 659.093 449.047C625.099 478.27 576.769 511.665 523.003 543.079C469.236 574.494 416.434 600.19 374.324 615.434C353.751 622.881 336.814 627.436 323.981 628.972C321.114 629.331 318.228 629.52 315.339 629.537V629.537Z" fill="#FF6584"/>
<path d="M528.581 315.942L562 341.992L565.519 397.438L525.85 382.091L528.581 315.942Z" fill="#E6E6E6"/>
<path d="M478.095 315.942L444.676 341.992L441.157 397.438L480.826 382.091L478.095 315.942Z" fill="#E6E6E6"/>
<path d="M328.598 387.444C332.051 386.103 334.097 383.063 333.167 380.653C332.237 378.243 328.683 377.377 325.23 378.718C321.776 380.058 319.731 383.099 320.661 385.509C321.591 387.919 325.144 388.785 328.598 387.444Z" fill="#E6E6E6"/>
<path d="M372.08 381.849C375.534 380.508 377.579 377.468 376.65 375.058C375.72 372.648 372.166 371.782 368.712 373.123C365.259 374.464 363.213 377.504 364.143 379.914C365.073 382.324 368.627 383.19 372.08 381.849Z" fill="#E6E6E6"/>
<path d="M324.827 424.655C328.28 423.314 330.326 420.274 329.396 417.864C328.466 415.454 324.912 414.588 321.459 415.928C318.005 417.269 315.96 420.31 316.89 422.72C317.82 425.129 321.373 425.996 324.827 424.655Z" fill="#E6E6E6"/>
<path d="M312.247 441.068C313.832 440.692 314.679 438.535 314.14 436.251C313.601 433.966 311.88 432.419 310.295 432.795C308.711 433.172 307.864 435.328 308.403 437.613C308.942 439.897 310.663 441.444 312.247 441.068Z" fill="#E6E6E6"/>
<path d="M311.989 468.858C313.573 468.482 314.42 466.325 313.881 464.041C313.342 461.756 311.621 460.209 310.037 460.586C308.452 460.962 307.605 463.119 308.144 465.403C308.683 467.687 310.404 469.234 311.989 468.858Z" fill="#E6E6E6"/>
<path d="M350.152 411.3C351.736 410.923 352.584 408.767 352.045 406.482C351.506 404.198 349.784 402.651 348.2 403.027C346.616 403.403 345.768 405.56 346.307 407.844C346.846 410.129 348.568 411.676 350.152 411.3Z" fill="#E6E6E6"/>
<path d="M327.251 405.722C328.835 405.345 329.683 403.189 329.144 400.904C328.605 398.62 326.883 397.073 325.299 397.449C323.714 397.825 322.867 399.982 323.406 402.266C323.945 404.551 325.667 406.098 327.251 405.722Z" fill="#E6E6E6"/>
<path d="M351.524 380.133C353.109 379.757 353.956 377.6 353.417 375.315C352.878 373.031 351.157 371.484 349.572 371.86C347.988 372.236 347.141 374.393 347.68 376.677C348.219 378.962 349.94 380.509 351.524 380.133Z" fill="#E6E6E6"/>
<path d="M708.792 512.985C712.371 512.029 714.734 509.23 714.071 506.733C713.408 504.236 709.97 502.987 706.391 503.943C702.813 504.899 700.449 507.698 701.112 510.195C701.775 512.692 705.214 513.941 708.792 512.985Z" fill="#E6E6E6"/>
<path d="M664.961 513.8C668.539 512.844 670.903 510.045 670.24 507.548C669.577 505.051 666.139 503.802 662.56 504.757C658.982 505.713 656.618 508.512 657.281 511.009C657.944 513.506 661.382 514.756 664.961 513.8Z" fill="#E6E6E6"/>
<path d="M716.579 476.407C720.157 475.451 722.521 472.652 721.858 470.155C721.195 467.658 717.756 466.409 714.178 467.365C710.599 468.321 708.236 471.12 708.899 473.617C709.562 476.114 713 477.363 716.579 476.407Z" fill="#E6E6E6"/>
<path d="M729.506 460.859C731.122 460.658 732.198 458.607 731.911 456.277C731.623 453.947 730.079 452.221 728.464 452.422C726.848 452.623 725.771 454.675 726.059 457.004C726.347 459.334 727.891 461.06 729.506 460.859Z" fill="#E6E6E6"/>
<path d="M732.779 433.263C734.395 433.062 735.471 431.011 735.183 428.681C734.895 426.351 733.352 424.626 731.736 424.827C730.12 425.028 729.044 427.079 729.332 429.409C729.62 431.739 731.163 433.464 732.779 433.263Z" fill="#E6E6E6"/>
<path d="M688.597 486.313C690.212 486.112 691.289 484.061 691.001 481.731C690.713 479.401 689.17 477.675 687.554 477.876C685.938 478.077 684.862 480.129 685.15 482.459C685.438 484.788 686.981 486.514 688.597 486.313Z" fill="#E6E6E6"/>
<path d="M710.756 494.358C712.372 494.157 713.448 492.106 713.161 489.776C712.873 487.446 711.329 485.72 709.714 485.921C708.098 486.122 707.021 488.174 707.309 490.504C707.597 492.833 709.141 494.559 710.756 494.358Z" fill="#E6E6E6"/>
<path d="M683.85 517.145C685.466 516.944 686.542 514.893 686.254 512.563C685.966 510.233 684.423 508.507 682.807 508.708C681.192 508.909 680.115 510.961 680.403 513.291C680.691 515.62 682.234 517.346 683.85 517.145Z" fill="#E6E6E6"/>
<path d="M790.685 657.7C779.227 657.7 766.67 657.266 753.012 656.397C682.367 651.897 590.862 636.253 495.351 612.347C399.84 588.441 311.734 559.128 247.264 529.81C215.859 515.528 191.756 502.009 175.625 489.627C158.546 476.52 151.076 465.095 153.42 455.67C157.988 437.31 198.436 433.293 231.563 433.156L231.574 435.826C186.082 436.014 159.244 443.291 156.004 456.317C151.876 472.907 185.54 498.808 248.364 527.378C312.692 556.632 400.635 585.889 495.995 609.757C591.355 633.625 682.692 649.242 753.181 653.732C822.019 658.118 863.87 651.118 867.997 634.527C871.424 620.752 848.832 600.46 804.384 577.388L805.608 575.017C837.904 591.782 875.393 615.826 870.58 635.173C868.235 644.598 856.289 651.163 835.073 654.686C822.979 656.693 808.125 657.7 790.685 657.7Z" fill="#6C63FF"/>
</g>
<defs>
<clipPath id="clip0_815_4">
<rect width="718" height="585" fill="white" transform="translate(153 192)"/>
</clipPath>
</defs>
</svg>
