<svg id="svg" version="1.1" xmlns="http://www.w3.org/2000/svg" xmlns:xlink="http://www.w3.org/1999/xlink" width="400" height="400" viewBox="0, 0, 400,400"><g id="svgg"><path id="path0" d="M127.200 54.800 C 127.200 55.503,126.933 55.600,125.000 55.600 C 123.067 55.600,122.800 55.697,122.800 56.400 C 122.800 57.133,122.533 57.200,119.600 57.200 C 117.022 57.200,116.400 57.317,116.400 57.800 C 116.400 58.243,115.937 58.400,114.633 58.400 C 112.486 58.400,111.600 58.704,111.600 59.443 C 111.600 59.811,111.134 60.000,110.227 60.000 C 109.205 60.000,108.789 60.205,108.600 60.800 C 108.411 61.395,107.995 61.600,106.973 61.600 C 105.867 61.600,105.600 61.755,105.600 62.400 C 105.600 63.111,105.333 63.200,103.200 63.200 C 101.067 63.200,100.800 63.289,100.800 64.000 C 100.800 64.667,100.533 64.800,99.200 64.800 C 97.867 64.800,97.600 64.933,97.600 65.600 C 97.600 66.133,97.333 66.400,96.800 66.400 C 96.267 66.400,96.000 66.667,96.000 67.200 C 96.000 67.733,95.733 68.000,95.200 68.000 C 94.667 68.000,94.400 68.267,94.400 68.800 C 94.400 69.448,94.133 69.600,93.000 69.600 C 91.867 69.600,91.600 69.752,91.600 70.400 C 91.600 70.933,91.333 71.200,90.800 71.200 C 90.267 71.200,90.000 71.467,90.000 72.000 C 90.000 72.667,89.733 72.800,88.400 72.800 C 87.067 72.800,86.800 72.933,86.800 73.600 C 86.800 74.133,86.533 74.400,86.000 74.400 C 85.556 74.400,85.200 74.667,85.200 75.000 C 85.200 75.330,84.913 75.600,84.563 75.600 C 84.212 75.600,83.831 75.960,83.716 76.400 C 83.600 76.843,83.170 77.200,82.753 77.200 C 82.267 77.200,82.000 77.483,82.000 78.000 C 82.000 78.533,81.733 78.800,81.200 78.800 C 80.667 78.800,80.400 79.067,80.400 79.600 C 80.400 80.133,80.133 80.400,79.600 80.400 C 79.067 80.400,78.800 80.667,78.800 81.200 C 78.800 81.733,78.533 82.000,78.000 82.000 C 77.467 82.000,77.200 82.267,77.200 82.800 C 77.200 83.265,76.933 83.600,76.563 83.600 C 76.212 83.600,75.831 83.960,75.716 84.400 C 75.601 84.840,75.258 85.200,74.953 85.200 C 74.649 85.200,74.400 85.560,74.400 86.000 C 74.400 86.533,74.133 86.800,73.600 86.800 C 72.933 86.800,72.800 87.067,72.800 88.400 C 72.800 89.733,72.667 90.000,72.000 90.000 C 71.467 90.000,71.200 90.267,71.200 90.800 C 71.200 91.333,70.933 91.600,70.400 91.600 C 69.752 91.600,69.600 91.867,69.600 93.000 C 69.600 94.133,69.448 94.400,68.800 94.400 C 68.267 94.400,68.000 94.667,68.000 95.200 C 68.000 95.733,67.733 96.000,67.200 96.000 C 66.667 96.000,66.400 96.267,66.400 96.800 C 66.400 97.333,66.133 97.600,65.600 97.600 C 64.933 97.600,64.800 97.867,64.800 99.200 C 64.800 100.533,64.667 100.800,64.000 100.800 C 63.289 100.800,63.200 101.067,63.200 103.200 C 63.200 105.333,63.111 105.600,62.400 105.600 C 61.755 105.600,61.600 105.867,61.600 106.973 C 61.600 107.995,61.395 108.411,60.800 108.600 C 60.205 108.789,60.000 109.205,60.000 110.227 C 60.000 111.134,59.811 111.600,59.443 111.600 C 58.704 111.600,58.400 112.486,58.400 114.633 C 58.400 115.937,58.243 116.400,57.800 116.400 C 57.317 116.400,57.200 117.022,57.200 119.600 C 57.200 122.533,57.133 122.800,56.400 122.800 C 55.697 122.800,55.600 123.067,55.600 125.000 C 55.600 126.933,55.503 127.200,54.800 127.200 C 54.003 127.200,54.000 127.467,54.000 200.000 C 54.000 272.533,54.003 272.800,54.800 272.800 C 55.503 272.800,55.600 273.067,55.600 275.000 C 55.600 276.933,55.697 277.200,56.400 277.200 C 57.133 277.200,57.200 277.467,57.200 280.400 C 57.200 282.978,57.317 283.600,57.800 283.600 C 58.243 283.600,58.400 284.063,58.400 285.367 C 58.400 287.514,58.704 288.400,59.443 288.400 C 59.816 288.400,60.000 288.875,60.000 289.837 C 60.000 290.938,60.187 291.324,60.800 291.484 C 61.401 291.641,61.600 292.030,61.600 293.047 C 61.600 294.133,61.758 294.400,62.400 294.400 C 63.111 294.400,63.200 294.667,63.200 296.800 C 63.200 298.933,63.289 299.200,64.000 299.200 C 64.667 299.200,64.800 299.467,64.800 300.800 C 64.800 302.133,64.933 302.400,65.600 302.400 C 66.133 302.400,66.400 302.667,66.400 303.200 C 66.400 303.733,66.667 304.000,67.200 304.000 C 67.733 304.000,68.000 304.267,68.000 304.800 C 68.000 305.333,68.267 305.600,68.800 305.600 C 69.448 305.600,69.600 305.867,69.600 307.000 C 69.600 308.133,69.752 308.400,70.400 308.400 C 70.933 308.400,71.200 308.667,71.200 309.200 C 71.200 309.733,71.467 310.000,72.000 310.000 C 72.667 310.000,72.800 310.267,72.800 311.600 C 72.800 312.933,72.933 313.200,73.600 313.200 C 74.133 313.200,74.400 313.467,74.400 314.000 C 74.400 314.440,74.649 314.800,74.953 314.800 C 75.258 314.800,75.601 315.160,75.716 315.600 C 75.831 316.040,76.212 316.400,76.563 316.400 C 76.933 316.400,77.200 316.735,77.200 317.200 C 77.200 317.733,77.467 318.000,78.000 318.000 C 78.533 318.000,78.800 318.267,78.800 318.800 C 78.800 319.333,79.067 319.600,79.600 319.600 C 80.133 319.600,80.400 319.867,80.400 320.400 C 80.400 320.933,80.667 321.200,81.200 321.200 C 81.733 321.200,82.000 321.467,82.000 322.000 C 82.000 322.533,82.267 322.800,82.800 322.800 C 83.333 322.800,83.600 323.067,83.600 323.600 C 83.600 324.133,83.867 324.400,84.400 324.400 C 84.844 324.400,85.200 324.667,85.200 325.000 C 85.200 325.333,85.556 325.600,86.000 325.600 C 86.533 325.600,86.800 325.867,86.800 326.400 C 86.800 327.067,87.067 327.200,88.400 327.200 C 89.733 327.200,90.000 327.333,90.000 328.000 C 90.000 328.533,90.267 328.800,90.800 328.800 C 91.333 328.800,91.600 329.067,91.600 329.600 C 91.600 330.248,91.867 330.400,93.000 330.400 C 94.133 330.400,94.400 330.552,94.400 331.200 C 94.400 331.733,94.667 332.000,95.200 332.000 C 95.733 332.000,96.000 332.267,96.000 332.800 C 96.000 333.333,96.267 333.600,96.800 333.600 C 97.333 333.600,97.600 333.867,97.600 334.400 C 97.600 335.067,97.867 335.200,99.200 335.200 C 100.533 335.200,100.800 335.333,100.800 336.000 C 100.800 336.711,101.067 336.800,103.200 336.800 C 105.333 336.800,105.600 336.889,105.600 337.600 C 105.600 338.245,105.867 338.400,106.973 338.400 C 107.995 338.400,108.411 338.605,108.600 339.200 C 108.787 339.788,109.205 340.000,110.180 340.000 C 111.170 340.000,111.560 340.203,111.716 340.800 C 111.894 341.480,112.262 341.600,114.163 341.600 C 115.885 341.600,116.400 341.738,116.400 342.200 C 116.400 342.683,117.022 342.800,119.600 342.800 C 122.533 342.800,122.800 342.867,122.800 343.600 C 122.800 344.303,123.067 344.400,125.000 344.400 C 126.933 344.400,127.200 344.497,127.200 345.200 C 127.200 345.997,127.467 346.000,200.000 346.000 C 272.533 346.000,272.800 345.997,272.800 345.200 C 272.800 344.497,273.067 344.400,275.000 344.400 C 276.933 344.400,277.200 344.303,277.200 343.600 C 277.200 342.867,277.467 342.800,280.400 342.800 C 282.978 342.800,283.600 342.683,283.600 342.200 C 283.600 341.738,284.115 341.600,285.837 341.600 C 287.738 341.600,288.106 341.480,288.284 340.800 C 288.443 340.194,288.830 340.000,289.884 340.000 C 290.938 340.000,291.325 339.806,291.484 339.200 C 291.641 338.599,292.030 338.400,293.047 338.400 C 294.133 338.400,294.400 338.242,294.400 337.600 C 294.400 336.889,294.667 336.800,296.800 336.800 C 298.933 336.800,299.200 336.711,299.200 336.000 C 299.200 335.333,299.467 335.200,300.800 335.200 C 302.133 335.200,302.400 335.067,302.400 334.400 C 302.400 333.867,302.667 333.600,303.200 333.600 C 303.733 333.600,304.000 333.333,304.000 332.800 C 304.000 332.267,304.267 332.000,304.800 332.000 C 305.333 332.000,305.600 331.733,305.600 331.200 C 305.600 330.552,305.867 330.400,307.000 330.400 C 308.133 330.400,308.400 330.248,308.400 329.600 C 308.400 329.067,308.667 328.800,309.200 328.800 C 309.733 328.800,310.000 328.533,310.000 328.000 C 310.000 327.333,310.267 327.200,311.600 327.200 C 312.933 327.200,313.200 327.067,313.200 326.400 C 313.200 325.867,313.467 325.600,314.000 325.600 C 314.444 325.600,314.800 325.333,314.800 325.000 C 314.800 324.667,315.156 324.400,315.600 324.400 C 316.133 324.400,316.400 324.133,316.400 323.600 C 316.400 323.067,316.667 322.800,317.200 322.800 C 317.733 322.800,318.000 322.533,318.000 322.000 C 318.000 321.467,318.267 321.200,318.800 321.200 C 319.333 321.200,319.600 320.933,319.600 320.400 C 319.600 319.867,319.867 319.600,320.400 319.600 C 320.933 319.600,321.200 319.333,321.200 318.800 C 321.200 318.267,321.467 318.000,322.000 318.000 C 322.533 318.000,322.800 317.733,322.800 317.200 C 322.800 316.667,323.067 316.400,323.600 316.400 C 324.133 316.400,324.400 316.133,324.400 315.600 C 324.400 315.156,324.667 314.800,325.000 314.800 C 325.333 314.800,325.600 314.444,325.600 314.000 C 325.600 313.467,325.867 313.200,326.400 313.200 C 327.067 313.200,327.200 312.933,327.200 311.600 C 327.200 310.267,327.333 310.000,328.000 310.000 C 328.533 310.000,328.800 309.733,328.800 309.200 C 328.800 308.667,329.067 308.400,329.600 308.400 C 330.248 308.400,330.400 308.133,330.400 307.000 C 330.400 305.867,330.552 305.600,331.200 305.600 C 331.733 305.600,332.000 305.333,332.000 304.800 C 332.000 304.267,332.267 304.000,332.800 304.000 C 333.333 304.000,333.600 303.733,333.600 303.200 C 333.600 302.667,333.867 302.400,334.400 302.400 C 335.067 302.400,335.200 302.133,335.200 300.800 C 335.200 299.467,335.333 299.200,336.000 299.200 C 336.711 299.200,336.800 298.933,336.800 296.800 C 336.800 294.667,336.889 294.400,337.600 294.400 C 338.242 294.400,338.400 294.133,338.400 293.047 C 338.400 292.030,338.599 291.641,339.200 291.484 C 339.806 291.325,340.000 290.938,340.000 289.884 C 340.000 288.830,340.194 288.443,340.800 288.284 C 341.480 288.106,341.600 287.738,341.600 285.837 C 341.600 284.115,341.738 283.600,342.200 283.600 C 342.683 283.600,342.800 282.978,342.800 280.400 C 342.800 277.467,342.867 277.200,343.600 277.200 C 344.303 277.200,344.400 276.933,344.400 275.000 C 344.400 273.067,344.497 272.800,345.200 272.800 C 345.997 272.800,346.000 272.533,346.000 200.000 C 346.000 127.467,345.997 127.200,345.200 127.200 C 344.497 127.200,344.400 126.933,344.400 125.000 C 344.400 123.067,344.303 122.800,343.600 122.800 C 342.867 122.800,342.800 122.533,342.800 119.600 C 342.800 117.022,342.683 116.400,342.200 116.400 C 341.738 116.400,341.600 115.885,341.600 114.163 C 341.600 112.262,341.480 111.894,340.800 111.716 C 340.203 111.560,340.000 111.170,340.000 110.180 C 340.000 109.205,339.788 108.787,339.200 108.600 C 338.605 108.411,338.400 107.995,338.400 106.973 C 338.400 105.867,338.245 105.600,337.600 105.600 C 336.889 105.600,336.800 105.333,336.800 103.200 C 336.800 101.067,336.711 100.800,336.000 100.800 C 335.333 100.800,335.200 100.533,335.200 99.200 C 335.200 97.867,335.067 97.600,334.400 97.600 C 333.867 97.600,333.600 97.333,333.600 96.800 C 333.600 96.267,333.333 96.000,332.800 96.000 C 332.267 96.000,332.000 95.733,332.000 95.200 C 332.000 94.667,331.733 94.400,331.200 94.400 C 330.552 94.400,330.400 94.133,330.400 93.000 C 330.400 91.867,330.248 91.600,329.600 91.600 C 329.067 91.600,328.800 91.333,328.800 90.800 C 328.800 90.267,328.533 90.000,328.000 90.000 C 327.333 90.000,327.200 89.733,327.200 88.400 C 327.200 87.067,327.067 86.800,326.400 86.800 C 325.867 86.800,325.600 86.533,325.600 86.000 C 325.600 85.556,325.333 85.200,325.000 85.200 C 324.667 85.200,324.400 84.844,324.400 84.400 C 324.400 83.867,324.133 83.600,323.600 83.600 C 323.067 83.600,322.800 83.333,322.800 82.800 C 322.800 82.267,322.533 82.000,322.000 82.000 C 321.467 82.000,321.200 81.733,321.200 81.200 C 321.200 80.667,320.933 80.400,320.400 80.400 C 319.867 80.400,319.600 80.133,319.600 79.600 C 319.600 79.067,319.333 78.800,318.800 78.800 C 318.267 78.800,318.000 78.533,318.000 78.000 C 318.000 77.483,317.733 77.200,317.247 77.200 C 316.830 77.200,316.400 76.843,316.284 76.400 C 316.169 75.960,315.788 75.600,315.437 75.600 C 315.087 75.600,314.800 75.330,314.800 75.000 C 314.800 74.667,314.444 74.400,314.000 74.400 C 313.467 74.400,313.200 74.133,313.200 73.600 C 313.200 72.933,312.933 72.800,311.600 72.800 C 310.267 72.800,310.000 72.667,310.000 72.000 C 310.000 71.467,309.733 71.200,309.200 71.200 C 308.667 71.200,308.400 70.933,308.400 70.400 C 308.400 69.752,308.133 69.600,307.000 69.600 C 305.867 69.600,305.600 69.448,305.600 68.800 C 305.600 68.267,305.333 68.000,304.800 68.000 C 304.267 68.000,304.000 67.733,304.000 67.200 C 304.000 66.667,303.733 66.400,303.200 66.400 C 302.667 66.400,302.400 66.133,302.400 65.600 C 302.400 64.933,302.133 64.800,300.800 64.800 C 299.467 64.800,299.200 64.667,299.200 64.000 C 299.200 63.289,298.933 63.200,296.800 63.200 C 294.667 63.200,294.400 63.111,294.400 62.400 C 294.400 61.758,294.133 61.600,293.047 61.600 C 292.030 61.600,291.641 61.401,291.484 60.800 C 291.324 60.187,290.938 60.000,289.837 60.000 C 288.875 60.000,288.400 59.816,288.400 59.443 C 288.400 58.704,287.514 58.400,285.367 58.400 C 284.063 58.400,283.600 58.243,283.600 57.800 C 283.600 57.317,282.978 57.200,280.400 57.200 C 277.467 57.200,277.200 57.133,277.200 56.400 C 277.200 55.697,276.933 55.600,275.000 55.600 C 273.067 55.600,272.800 55.503,272.800 54.800 C 272.800 54.003,272.533 54.000,200.000 54.000 C 127.467 54.000,127.200 54.003,127.200 54.800 M266.200 66.515 C 276.517 68.564,281.551 70.003,286.400 72.289 C 293.585 75.676,294.732 76.292,298.276 78.661 C 310.076 86.550,319.098 96.454,325.160 108.170 C 326.062 109.914,326.800 111.520,326.800 111.739 C 326.800 111.958,327.045 112.421,327.343 112.769 C 327.642 113.116,328.079 113.940,328.315 114.600 C 328.550 115.260,329.280 117.283,329.936 119.095 C 330.591 120.907,331.255 123.157,331.410 124.095 C 331.566 125.033,331.849 126.098,332.040 126.462 C 332.231 126.827,332.667 128.897,333.009 131.062 C 333.351 133.228,333.800 136.080,334.007 137.400 C 334.511 140.607,334.511 259.393,334.007 262.600 C 332.400 272.831,331.953 274.944,330.327 280.000 C 329.417 282.831,328.713 284.522,326.414 289.400 C 325.584 291.160,324.790 292.870,324.650 293.200 C 324.510 293.530,323.680 294.880,322.807 296.200 C 321.934 297.520,320.871 299.230,320.445 300.000 C 320.019 300.770,319.096 302.030,318.394 302.800 C 317.692 303.570,316.653 304.830,316.086 305.600 C 314.477 307.786,308.414 313.914,306.200 315.594 C 305.100 316.428,303.570 317.687,302.800 318.391 C 302.030 319.095,300.770 320.019,300.000 320.445 C 299.230 320.871,297.520 321.933,296.200 322.805 C 294.880 323.678,293.350 324.585,292.800 324.821 C 292.250 325.057,290.360 325.933,288.600 326.768 C 284.018 328.940,282.916 329.396,280.000 330.331 C 274.919 331.958,272.819 332.402,262.600 334.007 C 259.393 334.511,140.607 334.511,137.400 334.007 C 136.080 333.800,133.228 333.351,131.062 333.009 C 128.897 332.667,126.827 332.231,126.462 332.040 C 126.098 331.849,125.033 331.566,124.095 331.410 C 123.157 331.255,120.907 330.591,119.095 329.936 C 117.283 329.280,115.260 328.550,114.600 328.315 C 113.940 328.079,113.116 327.642,112.769 327.343 C 112.421 327.045,111.958 326.800,111.739 326.800 C 111.189 326.800,105.501 323.831,102.655 322.060 C 91.850 315.332,79.909 302.371,74.932 291.968 C 70.321 282.332,69.869 281.128,68.255 274.200 C 65.602 262.810,65.811 268.648,65.688 202.704 C 65.617 165.185,65.723 141.499,65.970 139.304 C 66.591 133.786,67.574 127.599,67.946 126.868 C 68.133 126.501,68.499 125.080,68.761 123.711 C 69.022 122.342,69.497 120.722,69.815 120.111 C 70.134 119.500,70.396 118.757,70.398 118.460 C 70.400 117.863,70.958 116.554,73.232 111.800 C 74.075 110.040,74.954 108.150,75.186 107.600 C 76.030 105.601,79.286 100.622,82.326 96.677 C 87.193 90.365,95.636 82.542,101.836 78.600 C 105.655 76.172,106.621 75.599,107.600 75.186 C 108.150 74.954,110.040 74.075,111.800 73.232 C 116.554 70.958,117.863 70.400,118.460 70.398 C 118.757 70.396,119.503 70.133,120.118 69.812 C 120.733 69.491,122.348 69.027,123.708 68.780 C 125.067 68.534,126.483 68.169,126.856 67.970 C 127.506 67.622,133.586 66.601,138.600 65.998 C 144.541 65.284,262.404 65.761,266.200 66.515 M156.600 127.459 C 149.048 129.762,147.045 130.555,143.619 132.600 C 141.969 133.585,137.484 137.487,136.079 139.160 C 131.446 144.679,130.352 146.905,127.436 156.746 C 126.176 160.999,126.960 171.522,128.785 174.847 C 128.981 175.203,129.342 176.242,129.588 177.156 C 131.163 183.006,139.444 192.246,146.200 195.692 C 148.788 197.012,152.204 198.399,152.874 198.402 C 157.008 198.420,157.499 200.607,153.600 201.632 C 149.241 202.778,146.294 204.020,143.800 205.762 C 136.210 211.063,131.454 217.152,129.088 224.600 C 126.917 231.435,126.800 232.041,126.800 236.457 C 126.800 248.995,133.342 260.863,144.017 267.693 C 151.439 272.441,163.564 274.677,170.600 272.594 C 177.911 270.431,183.216 268.117,184.800 266.402 C 184.910 266.283,186.168 265.221,187.595 264.043 C 189.022 262.865,190.728 261.158,191.386 260.250 C 192.044 259.343,192.779 258.420,193.019 258.200 C 197.586 254.016,201.480 237.821,199.608 230.800 C 199.402 230.030,198.959 228.300,198.622 226.955 C 198.285 225.610,197.738 223.990,197.407 223.355 C 197.076 222.720,196.804 221.972,196.802 221.693 C 196.801 221.414,196.077 219.996,195.194 218.542 C 189.748 209.578,181.642 203.428,172.650 201.438 C 170.170 200.889,169.462 199.415,171.474 198.991 C 185.206 196.093,196.093 185.206,198.991 171.474 C 199.415 169.462,200.889 170.170,201.438 172.650 C 203.067 180.008,208.047 187.565,214.446 192.386 C 219.695 196.342,221.787 197.266,230.800 199.616 C 237.891 201.464,254.020 197.581,258.200 193.019 C 258.420 192.779,259.343 192.044,260.250 191.386 C 261.158 190.728,262.865 189.022,264.043 187.595 C 265.221 186.168,266.283 184.910,266.402 184.800 C 267.541 183.748,269.771 179.335,270.950 175.800 C 273.139 169.238,273.319 168.305,273.306 163.600 C 273.251 143.294,256.734 126.800,236.457 126.800 C 232.041 126.800,231.435 126.917,224.600 129.088 C 217.152 131.454,211.063 136.210,205.762 143.800 C 204.020 146.294,202.778 149.241,201.632 153.600 C 200.607 157.499,198.420 157.008,198.402 152.874 C 198.399 152.204,197.012 148.788,195.692 146.200 C 192.229 139.410,183.036 131.172,177.156 129.588 C 176.242 129.342,175.203 128.981,174.847 128.785 C 171.537 126.968,160.776 126.186,156.600 127.459 M171.040 140.434 C 197.095 149.029,190.888 187.600,163.450 187.600 C 144.727 187.600,134.133 169.933,141.987 151.807 C 143.413 148.518,149.467 142.864,153.000 141.523 C 154.540 140.938,156.520 140.185,157.400 139.850 C 160.369 138.720,166.661 138.989,171.040 140.434 M243.172 140.036 C 248.460 141.717,249.651 142.441,253.663 146.418 C 255.898 148.634,257.809 150.912,258.198 151.824 C 263.690 164.692,260.630 176.640,250.017 183.761 C 243.204 188.332,229.716 188.982,225.169 184.959 C 224.821 184.651,224.390 184.400,224.210 184.400 C 223.153 184.400,217.830 179.139,215.860 176.147 C 208.860 165.518,213.690 146.950,224.703 142.157 C 232.056 138.957,237.729 138.305,243.172 140.036 M171.400 213.634 C 174.561 214.700,177.315 216.388,179.879 218.832 C 181.898 220.756,184.400 223.732,184.400 224.210 C 184.400 224.390,184.651 224.821,184.959 225.169 C 187.535 228.081,188.429 238.557,186.584 244.211 C 184.674 250.062,179.502 256.164,174.600 258.351 C 166.672 261.888,160.369 261.845,151.824 258.198 C 149.513 257.212,142.804 250.301,141.730 247.800 C 138.117 239.388,138.221 233.769,142.158 224.703 C 146.154 215.503,160.659 210.012,171.400 213.634 " stroke="none" fill="#1d1d1c" fill-rule="evenodd"></path><path id="path1" d="M135.200 66.639 C 133.550 66.938,131.210 67.363,130.000 67.583 C 125.837 68.343,118.378 70.449,115.800 71.593 C 114.920 71.984,113.930 72.414,113.600 72.549 C 113.270 72.684,112.730 72.963,112.400 73.168 C 112.070 73.373,110.436 74.180,108.769 74.962 C 107.101 75.743,105.068 76.837,104.251 77.391 C 103.433 77.946,102.681 78.400,102.578 78.400 C 101.690 78.400,92.828 85.528,89.178 89.178 C 85.528 92.828,78.400 101.690,78.400 102.578 C 78.400 102.681,77.946 103.433,77.391 104.251 C 76.837 105.068,75.743 107.101,74.962 108.769 C 74.180 110.436,73.373 112.070,73.168 112.400 C 72.963 112.730,72.684 113.270,72.549 113.600 C 72.414 113.930,71.989 114.920,71.604 115.800 C 69.888 119.725,67.831 127.819,66.624 135.400 C 65.675 141.358,65.670 259.332,66.618 264.943 C 67.770 271.760,69.234 278.168,69.940 279.488 C 70.193 279.961,70.400 280.655,70.400 281.030 C 70.400 281.405,70.741 282.452,71.157 283.356 C 73.519 288.488,75.364 292.380,76.066 293.709 C 76.966 295.417,81.904 302.878,82.342 303.194 C 82.500 303.307,83.731 304.750,85.078 306.400 C 87.800 309.734,91.076 312.969,94.400 315.603 C 95.610 316.562,96.780 317.541,97.000 317.779 C 97.633 318.464,105.233 323.446,107.000 324.335 C 111.769 326.734,117.257 329.184,118.777 329.594 C 119.728 329.850,120.797 330.208,121.153 330.390 C 122.106 330.877,129.947 332.617,135.000 333.463 C 141.671 334.580,259.236 334.604,265.200 333.490 C 273.438 331.951,278.666 330.735,279.874 330.076 C 280.354 329.814,281.054 329.600,281.428 329.600 C 282.071 329.600,287.229 327.312,290.479 325.586 C 291.293 325.154,292.128 324.800,292.335 324.800 C 292.542 324.800,294.171 323.855,295.956 322.700 C 297.740 321.545,299.897 320.150,300.749 319.600 C 305.680 316.418,316.418 305.680,319.600 300.749 C 320.150 299.897,321.545 297.740,322.700 295.956 C 323.855 294.171,324.800 292.580,324.800 292.419 C 324.800 292.259,325.323 291.064,325.963 289.764 C 328.292 285.030,329.600 282.019,329.600 281.390 C 329.600 281.037,329.814 280.354,330.076 279.874 C 330.338 279.393,330.863 277.650,331.243 276.000 C 331.622 274.350,332.111 272.280,332.330 271.400 C 334.203 263.851,334.200 263.969,334.200 199.800 C 334.200 142.990,334.156 139.138,333.463 135.000 C 332.541 129.491,330.869 122.200,330.148 120.540 C 329.846 119.846,329.600 118.998,329.600 118.654 C 329.600 118.310,328.591 115.914,327.357 113.328 C 326.124 110.742,324.948 108.188,324.744 107.652 C 324.335 106.577,318.488 97.637,317.777 97.000 C 317.531 96.780,316.238 95.250,314.902 93.600 C 312.217 90.283,308.953 87.054,305.600 84.397 C 304.390 83.438,303.220 82.459,303.000 82.221 C 302.780 81.983,300.800 80.618,298.600 79.188 C 293.394 75.802,293.178 75.671,292.000 75.186 C 291.450 74.960,289.740 74.174,288.200 73.439 C 282.786 70.858,281.706 70.400,281.030 70.400 C 280.655 70.400,279.961 70.193,279.488 69.940 C 278.168 69.234,271.760 67.770,264.943 66.618 C 259.812 65.751,139.995 65.770,135.200 66.639 M171.014 127.400 C 177.361 129.249,181.890 131.104,182.833 132.239 C 183.089 132.548,183.482 132.800,183.708 132.800 C 184.179 132.800,186.805 134.898,189.082 137.094 C 194.042 141.878,197.755 148.391,198.979 154.452 C 199.228 155.686,200.674 156.278,200.951 155.259 C 201.050 154.897,201.344 153.654,201.605 152.499 C 201.867 151.343,202.242 150.297,202.440 150.175 C 202.638 150.053,202.800 149.646,202.800 149.270 C 202.800 147.143,207.903 139.891,212.027 136.156 C 215.426 133.079,220.525 129.894,222.851 129.396 C 223.593 129.238,224.382 128.962,224.605 128.784 C 225.110 128.380,229.416 127.281,232.600 126.744 C 241.114 125.307,252.083 128.683,260.218 135.245 C 264.382 138.603,268.829 144.416,270.212 148.308 C 270.582 149.349,271.052 150.560,271.256 151.000 C 271.460 151.440,271.899 152.880,272.231 154.200 C 272.564 155.520,273.003 157.230,273.208 158.000 C 273.690 159.811,273.690 166.991,273.208 168.800 C 273.002 169.570,272.543 171.368,272.187 172.795 C 271.831 174.222,271.394 175.572,271.216 175.795 C 271.038 176.018,270.766 176.790,270.612 177.511 C 270.367 178.658,268.805 181.847,267.925 183.000 C 258.191 195.742,250.567 199.823,236.600 199.771 C 221.817 199.715,211.913 193.841,203.939 180.400 C 203.142 179.057,201.679 174.976,201.286 173.000 C 200.877 170.943,199.363 170.461,199.008 172.274 C 198.313 175.834,195.601 182.307,194.549 182.920 C 194.247 183.096,194.000 183.430,194.000 183.662 C 194.000 184.080,192.334 186.337,190.405 188.532 C 189.056 190.067,184.216 194.000,183.675 194.000 C 183.436 194.000,183.096 194.247,182.920 194.549 C 182.307 195.601,175.834 198.313,172.274 199.008 C 170.461 199.363,170.943 200.877,173.000 201.286 C 174.976 201.679,179.057 203.142,180.400 203.939 C 193.859 211.923,199.715 221.797,199.771 236.600 C 199.817 248.920,195.678 257.966,186.800 264.946 C 184.930 266.416,183.207 267.772,182.971 267.959 C 181.880 268.823,177.714 270.798,176.980 270.799 C 176.529 270.800,175.989 270.968,175.780 271.173 C 175.571 271.378,174.230 271.835,172.800 272.190 C 171.370 272.544,169.570 273.002,168.800 273.208 C 166.991 273.690,159.811 273.690,158.000 273.208 C 157.230 273.003,155.520 272.564,154.200 272.231 C 152.880 271.899,151.440 271.460,151.000 271.256 C 150.560 271.052,149.355 270.585,148.323 270.218 C 143.707 268.579,136.346 262.414,133.019 257.402 C 130.295 253.298,129.695 251.869,127.310 243.800 C 126.326 240.474,126.327 232.129,127.311 229.692 C 127.690 228.752,128.001 227.582,128.002 227.092 C 128.004 226.601,128.257 225.717,128.565 225.127 C 128.873 224.537,129.251 223.480,129.405 222.778 C 129.903 220.510,133.135 215.364,136.156 212.027 C 139.839 207.960,147.141 202.800,149.214 202.800 C 149.558 202.800,150.015 202.625,150.228 202.412 C 150.442 202.198,151.693 201.779,153.008 201.482 C 155.807 200.848,156.652 199.453,154.526 198.975 C 149.146 197.767,144.925 195.728,140.600 192.251 C 137.437 189.708,132.800 184.629,132.800 183.708 C 132.800 183.482,132.548 183.089,132.239 182.833 C 131.058 181.852,129.410 177.766,127.305 170.600 C 126.328 167.274,126.330 159.512,127.310 156.200 C 129.488 148.833,130.002 147.569,132.518 143.402 C 134.603 139.949,139.943 134.607,143.400 132.516 C 148.301 129.552,152.544 127.975,158.800 126.794 C 161.533 126.278,168.319 126.615,171.014 127.400 " stroke="none" fill="#d3c4e3" fill-rule="evenodd"></path><path id="path2" d="M170.300 65.900 C 186.635 65.958,213.365 65.958,229.700 65.900 C 246.035 65.842,232.670 65.795,200.000 65.795 C 167.330 65.795,153.965 65.842,170.300 65.900 M279.200 69.800 C 279.750 70.114,280.470 70.371,280.800 70.370 C 281.130 70.369,280.794 70.106,280.054 69.784 C 278.351 69.045,277.894 69.053,279.200 69.800 M310.800 89.000 C 311.546 89.770,312.247 90.400,312.357 90.400 C 312.467 90.400,311.946 89.770,311.200 89.000 C 310.454 88.230,309.753 87.600,309.643 87.600 C 309.533 87.600,310.054 88.230,310.800 89.000 M315.355 94.119 C 316.203 95.153,316.980 96.000,317.082 96.000 C 317.355 96.000,314.821 92.860,314.277 92.524 C 314.022 92.366,314.507 93.084,315.355 94.119 M318.649 98.000 C 319.194 99.029,321.249 102.000,321.415 102.000 C 321.653 102.000,320.115 99.537,319.165 98.400 C 318.706 97.850,318.474 97.670,318.649 98.000 M161.900 126.693 C 162.835 126.777,164.365 126.777,165.300 126.693 C 166.235 126.609,165.470 126.540,163.600 126.540 C 161.730 126.540,160.965 126.609,161.900 126.693 M235.100 126.693 C 236.035 126.777,237.565 126.777,238.500 126.693 C 239.435 126.609,238.670 126.540,236.800 126.540 C 234.930 126.540,234.165 126.609,235.100 126.693 M147.376 130.222 C 146.612 130.834,146.613 130.838,147.400 130.476 C 147.840 130.274,148.470 130.008,148.800 129.886 C 149.318 129.693,149.315 129.659,148.776 129.632 C 148.434 129.614,147.804 129.880,147.376 130.222 M184.000 132.918 C 184.000 133.020,184.847 133.797,185.881 134.645 C 186.916 135.493,187.634 135.978,187.476 135.723 C 187.140 135.179,184.000 132.645,184.000 132.918 M262.804 137.760 C 263.576 138.662,264.715 140.030,265.336 140.800 C 265.957 141.570,266.287 141.840,266.069 141.400 C 265.851 140.960,264.711 139.592,263.536 138.360 C 262.361 137.127,262.032 136.857,262.804 137.760 M135.583 139.300 C 134.840 140.235,134.548 140.746,134.935 140.436 C 135.663 139.851,137.377 137.600,137.094 137.600 C 137.006 137.600,136.326 138.365,135.583 139.300 M334.120 140.800 C 334.120 142.010,334.195 142.505,334.287 141.900 C 334.378 141.295,334.378 140.305,334.287 139.700 C 334.195 139.095,334.120 139.590,334.120 140.800 M157.400 139.850 C 156.520 140.185,154.540 140.938,153.000 141.523 C 149.467 142.864,143.413 148.518,141.987 151.807 C 134.133 169.933,144.727 187.600,163.450 187.600 C 187.774 187.600,196.803 156.458,176.444 142.785 C 171.844 139.695,161.851 138.156,157.400 139.850 M229.200 140.388 C 224.011 142.320,223.275 142.743,220.421 145.435 C 210.300 154.984,209.598 170.190,218.832 179.879 C 220.756 181.898,223.732 184.400,224.210 184.400 C 224.390 184.400,224.821 184.651,225.169 184.959 C 228.081 187.535,238.557 188.429,244.211 186.584 C 258.634 181.876,264.647 166.933,258.198 151.824 C 257.212 149.513,250.301 142.804,247.800 141.730 C 240.958 138.791,234.702 138.340,229.200 140.388 M65.795 200.000 C 65.795 232.670,65.842 246.035,65.900 229.700 C 65.958 213.365,65.958 186.635,65.900 170.300 C 65.842 153.965,65.795 167.330,65.795 200.000 M193.199 142.300 C 193.722 143.015,194.213 143.600,194.289 143.600 C 194.593 143.600,193.601 142.100,192.945 141.567 C 192.513 141.216,192.610 141.496,193.199 142.300 M129.988 147.622 C 129.746 148.074,129.607 148.622,129.680 148.839 C 129.752 149.057,130.018 148.687,130.271 148.017 C 130.797 146.625,130.639 146.405,129.988 147.622 M198.812 155.000 C 198.812 156.309,200.788 156.922,201.037 155.690 C 201.094 155.410,201.052 155.354,200.944 155.568 C 200.720 156.012,199.543 155.667,199.106 155.029 C 198.930 154.771,198.812 154.760,198.812 155.000 M273.301 160.200 C 273.305 161.080,273.387 161.393,273.483 160.895 C 273.579 160.398,273.575 159.678,273.475 159.295 C 273.375 158.913,273.296 159.320,273.301 160.200 M126.542 163.400 C 126.541 165.380,126.608 166.240,126.692 165.312 C 126.776 164.384,126.777 162.764,126.695 161.712 C 126.612 160.660,126.543 161.420,126.542 163.400 M273.301 166.600 C 273.305 167.480,273.387 167.793,273.483 167.295 C 273.579 166.798,273.575 166.078,273.475 165.695 C 273.375 165.313,273.296 165.720,273.301 166.600 M199.041 171.036 C 198.898 171.409,198.875 171.809,198.991 171.924 C 199.106 172.039,199.200 171.902,199.200 171.620 C 199.200 171.286,199.555 171.175,200.216 171.301 C 200.857 171.423,201.177 171.330,201.085 171.048 C 200.840 170.304,199.326 170.295,199.041 171.036 M269.479 179.574 C 269.106 180.206,268.801 180.876,268.801 181.062 C 268.802 181.248,269.172 180.795,269.623 180.055 C 270.074 179.315,270.379 178.646,270.301 178.567 C 270.222 178.489,269.852 178.942,269.479 179.574 M134.058 185.544 C 136.258 188.404,136.940 189.166,136.436 188.200 C 136.206 187.760,135.274 186.590,134.366 185.600 L 132.715 183.800 134.058 185.544 M193.144 184.700 C 191.993 186.089,191.506 186.800,191.704 186.800 C 191.814 186.800,192.386 186.170,192.973 185.400 C 194.063 183.971,194.195 183.432,193.144 184.700 M207.596 185.994 C 208.290 186.871,209.067 187.718,209.323 187.876 C 209.578 188.034,209.093 187.316,208.245 186.281 C 207.397 185.247,206.620 184.400,206.518 184.400 C 206.416 184.400,206.901 185.118,207.596 185.994 M189.178 189.500 L 187.800 191.000 189.300 189.622 C 190.696 188.338,190.984 188.000,190.678 188.000 C 190.612 188.000,189.937 188.675,189.178 189.500 M185.185 192.829 L 183.800 194.058 185.300 192.981 C 186.626 192.030,187.057 191.600,186.685 191.600 C 186.622 191.600,185.947 192.153,185.185 192.829 M141.567 192.945 C 142.100 193.601,143.600 194.593,143.600 194.289 C 143.600 194.213,143.015 193.722,142.300 193.199 C 141.496 192.610,141.216 192.513,141.567 192.945 M249.000 197.814 C 248.340 198.117,248.070 198.366,248.400 198.368 C 248.730 198.370,249.450 198.114,250.000 197.800 C 251.265 197.077,250.589 197.087,249.000 197.814 M155.157 199.165 C 155.490 199.376,155.624 199.866,155.489 200.382 C 155.343 200.941,155.428 201.191,155.731 201.090 C 156.902 200.700,156.296 198.812,155.000 198.812 C 154.780 198.812,154.851 198.971,155.157 199.165 M170.861 199.154 C 170.237 199.549,170.378 200.860,171.069 201.090 C 171.372 201.191,171.457 200.941,171.311 200.382 C 171.176 199.866,171.310 199.376,171.643 199.165 C 171.949 198.971,172.020 198.812,171.800 198.812 C 171.580 198.812,171.157 198.966,170.861 199.154 M185.600 207.597 C 187.207 209.045,189.200 210.534,189.200 210.286 C 189.200 210.194,188.075 209.267,186.700 208.227 C 185.325 207.186,184.830 206.903,185.600 207.597 M157.800 212.976 C 152.081 214.611,149.385 216.235,145.435 220.421 C 142.706 223.315,142.274 224.077,140.354 229.397 C 138.328 235.010,138.768 240.905,141.730 247.800 C 142.804 250.301,149.513 257.212,151.824 258.198 C 160.369 261.845,166.672 261.888,174.600 258.351 C 179.502 256.164,184.674 250.062,186.584 244.211 C 188.429 238.557,187.535 228.081,184.959 225.169 C 184.651 224.821,184.400 224.390,184.400 224.210 C 184.400 223.157,179.141 217.831,176.167 215.873 C 171.689 212.924,162.855 211.531,157.800 212.976 M126.540 236.800 C 126.540 238.670,126.609 239.435,126.693 238.500 C 126.777 237.565,126.777 236.035,126.693 235.100 C 126.609 234.165,126.540 234.930,126.540 236.800 M197.665 249.417 C 196.995 250.888,197.123 251.202,197.847 249.865 C 198.186 249.240,198.388 248.654,198.296 248.563 C 198.205 248.471,197.921 248.856,197.665 249.417 M334.120 259.200 C 334.120 260.410,334.195 260.905,334.287 260.300 C 334.378 259.695,334.378 258.705,334.287 258.100 C 334.195 257.495,334.120 257.990,334.120 259.200 M133.914 258.604 C 134.141 259.047,134.748 259.766,135.263 260.202 C 136.167 260.966,136.165 260.952,135.206 259.797 C 133.613 257.879,133.479 257.755,133.914 258.604 M138.360 263.536 C 139.592 264.711,140.960 265.851,141.400 266.069 C 141.840 266.287,141.570 265.957,140.800 265.336 C 140.030 264.715,138.662 263.576,137.760 262.804 C 136.857 262.032,137.127 262.361,138.360 263.536 M179.400 269.600 C 177.836 270.636,178.392 270.637,180.090 269.601 C 180.811 269.162,181.220 268.804,181.000 268.804 C 180.780 268.805,180.060 269.163,179.400 269.600 M159.500 273.482 C 159.995 273.578,160.805 273.578,161.300 273.482 C 161.795 273.387,161.390 273.309,160.400 273.309 C 159.410 273.309,159.005 273.387,159.500 273.482 M165.500 273.482 C 165.995 273.578,166.805 273.578,167.300 273.482 C 167.795 273.387,167.390 273.309,166.400 273.309 C 165.410 273.309,165.005 273.387,165.500 273.482 M69.214 278.454 C 69.206 278.594,69.463 279.314,69.784 280.054 C 70.106 280.794,70.369 281.130,70.370 280.800 C 70.372 280.224,69.243 277.934,69.214 278.454 M330.065 279.817 C 329.809 280.378,329.607 281.054,329.616 281.319 C 329.624 281.583,329.897 281.188,330.222 280.439 C 330.905 278.865,330.761 278.290,330.065 279.817 M322.133 296.700 C 321.756 297.305,321.257 298.060,321.024 298.377 C 320.716 298.796,320.725 298.879,321.060 298.678 C 321.546 298.387,323.299 295.600,322.996 295.600 C 322.898 295.600,322.510 296.095,322.133 296.700 M310.793 311.100 L 306.600 315.400 310.900 311.207 C 313.265 308.901,315.200 306.966,315.200 306.907 C 315.200 306.618,314.687 307.106,310.793 311.100 M88.800 311.000 C 89.546 311.770,90.247 312.400,90.357 312.400 C 90.467 312.400,89.946 311.770,89.200 311.000 C 88.454 310.230,87.753 309.600,87.643 309.600 C 87.533 309.600,88.054 310.230,88.800 311.000 M92.524 314.277 C 92.860 314.821,96.000 317.355,96.000 317.082 C 96.000 316.980,95.153 316.203,94.119 315.355 C 93.084 314.507,92.366 314.022,92.524 314.277 M98.400 319.165 C 99.537 320.115,102.000 321.653,102.000 321.415 C 102.000 321.249,99.029 319.194,98.000 318.649 C 97.670 318.474,97.850 318.706,98.400 319.165 M297.100 321.829 C 296.275 322.370,295.600 322.893,295.600 322.992 C 295.600 323.257,298.363 321.583,298.625 321.160 C 298.936 320.657,298.798 320.717,297.100 321.829 M279.600 330.200 C 278.294 330.947,278.751 330.955,280.454 330.216 C 281.194 329.894,281.530 329.631,281.200 329.630 C 280.870 329.629,280.150 329.886,279.600 330.200 M139.700 334.287 C 140.305 334.378,141.295 334.378,141.900 334.287 C 142.505 334.195,142.010 334.120,140.800 334.120 C 139.590 334.120,139.095 334.195,139.700 334.287 M257.907 334.290 C 258.626 334.379,259.706 334.377,260.307 334.286 C 260.908 334.195,260.320 334.122,259.000 334.124 C 257.680 334.126,257.188 334.201,257.907 334.290 " stroke="none" fill="#fbbb83" fill-rule="evenodd"></path></g></svg>