<svg xmlns="http://www.w3.org/2000/svg" width="2475.031" height="2438.531" viewBox="0 0 2475.031 2438.531">
  <defs>
    <style>
      .cls-1 {
        fill: #5e9cd6;
      }

      .cls-1, .cls-2 {
        fill-rule: evenodd;
      }

      .cls-2 {
        fill: #2c006d;
      }
    </style>
  </defs>
  <path class="cls-1" d="M773,851c102.247-41.243,213.625-72.627,323.51-75.6,190.52-5.157,362.83,50.317,507.49,147.6,190.32,127.99,306.58,321.76,353,513,28.56,117.67,31.84,238.17,11,353-24.75,136.33-82.26,264.82-168,372a819.405,819.405,0,0,1-161,153,865.807,865.807,0,0,0,191-63c100.95-46.92,197.09-116.25,281-208,115.55-126.33,201.21-289.11,228-467,10.92-72.49,12.32-150.78,3-234a929.086,929.086,0,0,0-48-209c-28.12-78.84-64.35-148.748-107-210-57.63-82.772-133.51-159.3-228-224-103.75-71.041-211.92-115.77-318-138-82.74-17.339-177.3-23.354-289-11-84.56,9.353-161.05,27.806-230,54C987.845,654.968,871.447,742.363,773,851Z" transform="translate(-404.969 -543.469)"/>
  <path class="cls-2" d="M1543,950a763.574,763.574,0,0,0-141,107c-66.48,63.41-129.76,147.31-183,262-34.19,73.64-55.24,140.55-67,204a807.5,807.5,0,0,0-6,255c10.09,74.93,31.51,151.74,66,229,34.74,77.82,78.48,146.25,129,205a814.992,814.992,0,0,0,110,106,1017.371,1017.371,0,0,1-154-58c-77.5-36.6-139.14-75.7-191-118a858.283,858.283,0,0,1-162-175c-53.192-76.44-94.8-163.22-122-258a877.133,877.133,0,0,1,11-521c29.941-90.22,71.628-170.12,122-239a839.075,839.075,0,0,1,90-104,791.14,791.14,0,0,1,193-4c98.21,10.078,174.68,34.179,233,63C1497.08,916.889,1519.09,933.572,1543,950Z" transform="translate(-404.969 -543.469)"/>
  <path id="Shape_2_copy" data-name="Shape 2 copy" class="cls-2" d="M1958,633q52.995,35.5,106,71c16.24,12.5,31.74,25.355,47,39a833.634,833.634,0,0,1,108,117c19.64,6.271,38.67,12.831,58,20,25.14,9.323,49.46,19.183,74,30a962.605,962.605,0,0,0-269-220A949.851,949.851,0,0,0,1958,633Z" transform="translate(-404.969 -543.469)"/>
  <path id="tools" class="cls-1" d="M2067.62,2540.44c-14.72,0-25.63,7.09-25.63,19.63,0,17.45,13.09,24.54,60.54,37.63,103.08,28.36,133.62,63.27,133.62,124.9,0,90.53-76.9,125.44-171.25,125.44-94.26,0-147.4-40.72-163.47-97.92l123.49-31.34h0.16c2.18,30,16.37,42.54,41.45,42.54,20.18,0,30-8.72,30-24.54,0-17.45-12.54-27.82-62.72-41.45-101.45-27.27-126.53-68.72-126.53-117.81,0-82.35,67.62-123.26,158.16-123.26,83.26,0,143.74,32.23,158.96,97.42l-123.52,26.13C2100.27,2557.74,2090.98,2540.44,2067.62,2540.44ZM1883,2838.22H1568.85V2464.08h134.17v277.06H1883v97.08Zm-539.62,9.82c-128.17,0-184.34-81.81-184.34-198.52,0-109.63,56.17-195.26,190.89-195.26,130.89,0,186.52,88.9,186.52,194.16C1536.45,2760.78,1486.82,2848.04,1343.38,2848.04Zm4.37-299.97c-33.27,0-42,29.45-42,99.26,0,72,7.64,107.45,42.54,107.45,34.36,0,41.45-33.27,41.45-109.08C1389.74,2578.07,1383.2,2548.07,1347.75,2548.07ZM948.391,2848.04c-128.169,0-184.345-81.81-184.345-198.52,0-109.63,56.176-195.26,190.89-195.26,130.894,0,186.524,88.9,186.524,194.16C1141.46,2760.78,1091.83,2848.04,948.391,2848.04Zm4.363-299.97c-33.269,0-41.995,29.45-41.995,99.26,0,72,7.635,107.45,42.541,107.45,34.36,0,41.45-33.27,41.45-109.08C994.75,2578.07,988.205,2548.07,952.754,2548.07ZM643.686,2838.22H504.064V2559.53H404.982v-95.45H742.131v95.45H643.686v278.69Z" transform="translate(-404.969 -543.469)"/>
  <path id="tools_copy" data-name="tools copy" class="cls-2" d="M2865,2271H2638l-93,171-85-170H2178v31l198,308-197,334v36h204l103-195,97,196h297v-7l-224-363Z" transform="translate(-404.969 -543.469)"/>
</svg>
