<svg width="256" height="256" viewBox="0 0 256 256" fill="none" xmlns="http://www.w3.org/2000/svg">
<path fill-rule="evenodd" clip-rule="evenodd" d="M216.91 166.387H200.402L193.643 178.819L187.462 166.457H166.958V168.711L181.352 191.113L167.029 215.401V218.019H181.864L189.352 203.839L196.406 218.092H218V217.583L201.714 191.185L216.91 166.387Z" fill="#2C006D"/>
<path fill-rule="evenodd" clip-rule="evenodd" d="M159.263 186.29C158.193 186.29 157.4 186.805 157.4 187.717C157.4 188.986 158.351 189.502 161.801 190.453C169.295 192.516 171.517 195.055 171.517 199.536C171.517 206.12 165.926 208.658 159.065 208.658C152.204 208.658 148.35 205.697 147.179 201.538L156.159 199.258H156.17C156.329 201.44 157.36 202.352 159.181 202.352C160.649 202.352 161.362 201.718 161.362 200.567C161.362 199.298 160.452 198.545 156.802 197.556C149.425 195.573 147.602 192.559 147.602 188.989C147.602 183 152.519 180.025 159.102 180.025C165.156 180.025 169.554 182.369 170.657 187.109L161.676 189.009C161.637 187.548 160.962 186.29 159.263 186.29ZM145.839 207.944H122.997V180.737H132.753V200.884H145.839V207.944ZM106.603 208.658C97.2838 208.658 93.2 202.705 93.2 194.222C93.2 186.249 97.2845 180.022 107.08 180.022C116.597 180.022 120.641 186.487 120.641 194.142C120.641 202.312 117.033 208.658 106.603 208.658V208.658ZM106.921 186.845C104.502 186.845 103.867 188.986 103.867 194.062C103.867 199.299 104.422 201.876 106.96 201.876C109.459 201.876 109.971 199.457 109.971 193.944C109.974 189.026 109.496 186.845 106.921 186.845H106.921ZM77.8834 208.658C68.5639 208.658 64.4794 202.705 64.4794 194.222C64.4794 186.249 68.5639 180.022 78.3589 180.022C87.876 180.022 91.9212 186.487 91.9212 194.142C91.9212 202.312 88.3123 208.658 77.8834 208.658ZM78.2007 186.845C75.7816 186.845 75.1471 188.986 75.1471 194.062C75.1471 199.299 75.7025 201.876 78.2406 201.876C80.7387 201.876 81.2521 199.457 81.2521 193.944C81.2521 189.026 80.7765 186.845 78.1986 186.845H78.2007ZM55.7278 207.944H45.5756V187.678H38.3711V180.737H62.8833V187.678H55.7278V207.944Z" fill="#5E9CD6"/>
<path fill-rule="evenodd" clip-rule="evenodd" d="M64.4805 60.5755C71.9147 57.5766 80.0121 55.2948 88.0017 55.0791C101.124 54.6848 114.035 58.4402 124.899 65.8106C138.736 75.1161 147.189 89.2022 150.564 103.108C152.619 111.514 152.891 120.256 151.364 128.773C149.594 138.66 145.397 147.954 139.15 155.819C135.771 160.041 131.832 163.784 127.444 166.943C132.235 165.961 136.895 164.423 141.33 162.361C149.073 158.72 156.017 153.58 161.761 147.239C170.165 138.054 176.39 126.219 178.338 113.285C179.152 107.648 179.225 101.929 178.556 96.2723C177.983 91.0887 176.812 85.9889 175.066 81.0747C171.308 70.6983 164.983 61.4428 156.681 54.1714C148.379 46.9 138.37 41.8497 127.589 39.4915C120.673 38.103 113.58 37.833 106.578 38.6917C100.86 39.2876 95.2408 40.6068 89.8548 42.6178C80.1011 46.3234 71.638 52.6776 64.4805 60.5755Z" fill="#5E9CD6"/>
<path fill-rule="evenodd" clip-rule="evenodd" d="M120.537 67.1838C116.83 69.3711 113.389 71.982 110.285 74.964C104.683 80.4139 100.167 86.8783 96.9783 94.0135C94.7326 98.7316 93.0956 103.716 92.1067 108.847C90.9798 114.965 90.8325 121.224 91.6703 127.388C93.326 139.034 98.2413 149.974 105.849 158.945C108.268 161.757 110.946 164.337 113.848 166.649C110.007 165.548 106.262 164.137 102.65 162.431C97.6881 160.153 93.0253 157.274 88.766 153.858C84.2653 150.186 80.2994 145.903 76.9833 141.134C71.3412 132.963 67.6751 123.593 66.2745 113.763C64.8738 103.934 65.7769 93.9127 68.9125 84.4915C70.9473 78.2727 73.9402 72.4096 77.7831 67.1138C79.7538 64.4177 81.9425 61.8879 84.3272 59.55C88.9757 58.8811 93.6886 58.7839 98.3608 59.2608C104.236 59.7642 109.974 61.3157 115.302 63.8417C117.126 64.8271 118.876 65.9441 120.537 67.1838V67.1838ZM150.713 44.1367L158.416 49.299C159.597 50.2094 160.728 51.1423 161.834 52.1347C164.718 54.7135 167.349 57.5624 169.691 60.6426C171.119 61.0985 172.503 61.5754 173.907 62.0965C175.736 62.7744 177.504 63.4916 179.288 64.2781C173.793 57.8033 167.165 52.3828 159.729 48.2814C156.827 46.6854 153.814 45.3003 150.713 44.1367V44.1367Z" fill="#2C006D"/>
</svg>
