<svg width="48" height="48" viewBox="0 0 48 48" fill="none" xmlns="http://www.w3.org/2000/svg">
<circle cx="24" cy="24" r="24" fill="#979797" fill-opacity="0.2"/>
<path fill-rule="evenodd" clip-rule="evenodd" d="M12 21C12 16.0294 16.0294 12 21 12H27C31.9706 12 36 16.0294 36 21V27C36 31.9706 31.9706 36 27 36H21C16.0294 36 12 31.9706 12 27V21ZM21 15H27C30.3137 15 33 17.6863 33 21C33 24.3137 30.3137 27 27 27H21C17.6863 27 15 24.3137 15 21C15 17.6863 17.6863 15 21 15ZM15.0464 27.7495C15.4152 30.7095 17.9401 33 21 33H27C30.0599 33 32.5848 30.7095 32.9536 27.7495C31.367 29.1501 29.2828 30 27 30H21C18.7172 30 16.633 29.1501 15.0464 27.7495Z" fill="#8F8F8F"/>
</svg>
