<svg width="256" height="256" viewBox="0 0 256 256" fill="none" xmlns="http://www.w3.org/2000/svg">
<mask id="mask0_529_9093" style="mask-type:alpha" maskUnits="userSpaceOnUse" x="0" y="0" width="256" height="256">
<circle cx="128" cy="128" r="128" fill="#D9D9D9"/>
</mask>
<g mask="url(#mask0_529_9093)">
<path d="M132.58 327.946C11.3213 327.946 -109.937 327.939 -231.193 328C-233.483 328 -234 327.517 -233.998 325.368C-233.935 198.122 -233.935 70.8782 -234 -56.3678C-234 -58.5169 -233.485 -59 -231.195 -59C11.3213 -58.9436 253.835 -58.9436 496.352 -59C498.642 -59 499.159 -58.5169 499.159 -56.3678C499.094 70.8759 499.094 198.122 499.159 325.365C499.159 327.515 498.644 328 496.354 327.998C375.096 327.937 253.838 327.944 132.582 327.944L132.58 327.946ZM207.309 72.6932C205.481 72.6932 204.673 72.7203 203.867 72.6887C196.323 72.3907 188.824 72.5645 181.576 74.8559C180.655 75.1471 178.87 75.0365 179.218 76.5084C179.56 77.9509 181.102 77.6348 182.305 77.391C185.565 76.7318 188.807 76.0004 192.074 75.3706C198.553 74.1199 204.978 75.1764 211.373 75.9982C213.771 76.3052 216.302 76.9576 218.032 79.6666C208.993 77.163 200.215 77.0818 191.391 77.294C185.002 77.4475 179.757 80.1745 174.732 83.4547C173.243 84.4254 171.72 85.3984 170.628 86.8183C170.281 87.2698 169.726 87.6378 170.25 88.288C170.671 88.8117 171.251 88.8997 171.881 88.8681C172.778 88.823 173.262 88.1615 173.902 87.701C178.059 84.6986 182.182 81.6667 187.523 80.6125C189.955 80.1339 192.389 80.5606 194.8 80.2377C202.164 79.2512 209.34 79.8765 216.434 82.037C219.052 82.8339 220.096 84.1477 219.723 86.6264C219.598 87.464 219.908 88.6108 219.018 88.9833C217.866 89.4664 217.584 88.148 217.12 87.5452C214.007 83.4998 209.905 81.5674 204.548 81.8744C201.606 82.0437 198.642 81.8902 195.695 82.0099C191.384 82.1837 187.39 83.0461 183.794 85.6557C181.343 87.4346 178.761 89.1639 176.084 90.6561C170.043 94.0243 167.503 99.5325 165.665 105.391C164.671 108.56 166.131 110.064 169.634 110.818C180.111 113.073 190.708 112.186 201.262 111.87C208.137 111.664 214.219 109.551 218.08 103.664C218.327 103.287 218.626 102.813 219.456 103.163C219.494 105.199 219.189 107.1 217.76 108.908C213.74 113.994 209.102 117.805 201.716 116.893C200.946 116.798 199.919 116.755 199.797 117.8C199.686 118.739 200.552 119.168 201.36 119.261C202.866 119.432 204.396 119.43 205.917 119.498C206.499 119.523 207.257 119.299 207.437 120.053C207.584 120.665 207.069 121.114 206.597 121.489C204.954 122.789 202.934 122.358 201.043 122.579C199.457 122.764 196.736 122.171 196.859 124.191C196.97 126.029 199.587 125.108 201.04 125.044C204.824 124.884 208.938 125.173 210.745 120.827C210.983 120.252 211.57 119.981 212.455 120.543C218.736 124.521 220.983 135.944 216.131 141.655C209.604 149.34 201.437 154.198 190.398 154.092C175.538 153.952 160.668 154.017 145.825 153.342C136.296 152.909 126.849 151.685 117.931 148.112C116.17 147.405 114.193 147.382 112.252 147.267C106.709 146.935 101.219 146.071 96.1022 144.003C87.7882 140.642 79.5343 137.364 70.145 138.131C64.8068 138.569 62.7234 141.75 65.2566 146.193C67.1258 149.471 69.8683 152.36 73.4455 153.581C79.2504 155.564 83.4147 160.024 89.1883 161.916C91.6637 162.729 94.0742 163.745 96.249 165.169C100.757 168.124 105.097 171 110.664 172.54C116.5 174.154 122.165 176.235 128.269 176.938C135.315 177.748 141.938 180.586 149.239 180.369C159.92 180.051 170.613 180.093 181.304 180.069C186.503 180.057 191.668 179.818 196.813 179.091C200.691 178.545 204.257 177.317 207.588 175.378C208.558 174.813 208.936 173.059 210.401 173.664C211.904 174.285 211.76 175.874 211.842 177.199C211.926 178.531 211.618 179.692 210.944 180.974C209.674 183.389 207.656 185.292 206.354 187.652C203.939 192.027 203.946 191.997 199.741 189.171C192.474 184.286 188.56 183.184 179.127 189.347C172.559 193.638 167.228 199.318 160.813 203.799C158.837 205.179 157.5 206.308 154.892 204.391C151.339 201.781 146.097 202.528 143.196 205.386C140.908 207.639 141.197 211.414 143.578 215.087C146.451 219.518 150.846 222.756 153.872 227.052C156.237 230.411 156.629 239.05 154.062 241.8C150.139 246.006 146.766 250.559 143.432 255.162C142.363 256.638 140.679 257.796 140.16 259.544C139.792 260.779 138.081 262.551 139.886 263.37C141.952 264.312 142.229 261.885 143.008 260.742C146.754 255.264 150.899 250.053 154.976 244.796C156.42 242.935 157.348 243.394 158.164 245.312C159.617 248.733 160.952 252.317 163.692 254.99C167.423 258.629 171.551 261.907 175.492 265.357C176.252 266.023 177.005 266.352 177.878 265.594C178.821 264.774 177.955 264.23 177.469 263.684C175.441 261.404 173.096 259.431 170.721 257.476C168.431 255.591 165.585 253.963 164.113 251.604C160.447 245.728 157.153 239.606 158.315 232.327C158.792 229.347 157.336 226.765 155.395 224.469C152.446 220.983 149.361 217.593 146.552 214.012C145.541 212.726 143.749 211.389 144.492 209.529C145.231 207.685 146.376 205.743 148.984 205.908C151.854 206.089 155.491 206.651 156.119 209.285C157.23 213.96 160.493 215.626 164.628 216.712C167.568 217.484 169.093 219.191 169.242 221.981C169.379 224.584 170.515 226.697 172.485 228.481C173.803 229.675 175.052 230.937 176.372 232.129C181.268 236.551 186.368 240.685 193.275 242.091C194.242 242.287 195.028 242.479 195.271 243.518C196.087 247.012 198.866 248.559 202.149 249.669C205.991 250.968 210.139 251.484 213.427 254.198C214.599 255.164 216.655 255.695 218.255 255.604C222.99 255.336 227.214 256.625 231.474 258.298C234.691 259.56 237.217 258.625 239.149 256.024C239.692 255.293 240.303 254.451 239.315 253.774C238.417 253.157 237.472 253.39 236.62 254.214C234.198 256.566 231.133 256.623 228.414 254.417C225.771 252.275 227.707 250.338 229.016 248.685C230.991 246.193 232.413 243.297 235.042 241.26C236.04 240.486 236.221 239.38 235.369 238.468C234.215 237.228 233.577 238.599 232.988 239.172C229.319 242.734 225.737 246.383 224.654 251.471C224.375 252.783 223.704 253.18 222.362 253.164C219.677 253.13 217.175 252.288 214.736 251.475C212.13 250.606 211.741 248.493 213.307 246.229C215.518 243.03 218.012 240.062 221.036 237.497C222.333 236.398 223.387 235.111 224.026 233.567C224.303 232.896 224.349 232.217 223.526 231.847C222.898 231.564 222.27 231.747 221.929 232.294C219.035 236.924 213.67 239.601 211.067 244.527C210.406 245.78 210.754 248.191 208.373 248.137C206.696 248.098 205.026 247.423 203.369 246.983C202.792 246.83 202.241 246.563 201.707 246.297C199.744 245.312 197.595 244.371 197.489 241.926C197.372 239.21 199.426 237.24 200.788 235.129C203.21 231.375 206.636 228.354 209.97 225.298C210.456 224.853 211.18 224.39 210.576 223.62C209.884 222.738 208.936 223.187 208.459 223.677C204.218 228.052 198.238 231.068 196.246 237.206C195.454 239.639 193.907 239.98 191.581 239.104C187.116 237.425 183.488 234.522 179.586 232.023C178.559 231.366 178.463 230.42 179.187 229.528C180.975 227.32 182.709 224.663 185.55 223.927C194.615 221.579 199.857 214.225 207.346 209.861C207.942 209.513 208.452 208.949 208.171 208.17C207.853 207.29 207.014 207.59 206.354 207.547C205.387 207.484 204.702 208.055 203.891 208.441C202.106 209.285 201.141 211.206 199.053 211.701C198.18 204.373 194.913 202.382 187.244 204.213C182.998 205.226 179.825 207.849 176.931 210.574C173.464 213.839 169.694 214.949 165.09 213.737C162.956 213.175 160.358 212.694 159.716 210.479C159.107 208.382 161.515 207.283 162.802 205.881C163.12 205.535 163.637 205.355 164.043 205.075C165.256 204.242 166.514 203.549 167.825 204.833C169.038 206.019 168.864 207.457 168.325 208.854C168.164 209.272 167.681 209.572 167.416 209.967C166.976 210.626 166.548 211.358 167.356 212.021C168.109 212.638 168.84 212.328 169.557 211.836C171.895 210.229 172.713 204.802 170.517 203.1C168.422 201.476 169.492 200.587 170.806 199.517C171.792 198.711 172.86 197.991 173.887 197.23C177.621 194.465 180.727 190.966 185.177 189.033C188.533 187.575 191.807 187.033 194.942 189.288C204.868 196.431 215.838 202.393 223.476 212.105C228.756 218.821 236.206 223.83 240.621 231.284C243.941 236.888 247.015 242.558 247.301 249.08C247.491 253.401 245.69 257.356 243.688 261.189C243.147 262.226 241.903 263.546 243.585 264.345C245.17 265.099 245.783 263.431 246.262 262.44C248.312 258.194 249.736 253.812 249.945 249.062C250.123 245.064 247.946 241.768 247.034 238.125C245.18 230.72 240.034 225.194 235.206 219.679C231.578 215.536 226.971 212.091 223.516 207.705C222.075 205.876 220.497 204.183 218.727 202.61C215.474 199.718 211.712 197.483 208.106 195.049C206.879 194.221 206.4 193.577 207.295 192.024C208.69 189.602 210.247 187.308 211.887 185.042C214.002 182.123 215.332 178.924 214.154 175.402C213.136 172.371 213.98 170.384 216.533 168.276C221.609 164.081 222.263 159.814 219.225 154.166C218.392 152.618 218.64 151.484 219.891 150.34C221.496 148.875 223.05 147.362 224.623 145.868C228.696 141.998 228.725 137.264 225.275 132.896C224.07 131.368 221.84 130.749 221.354 128.747C220.379 124.749 218.046 121.525 214.899 118.798C213.403 117.502 213.699 116.764 215.246 115.71C221.424 111.504 223.16 105.682 222.097 98.8124C221.724 96.3969 220.586 93.9972 221.498 91.4801C222.398 88.9968 222.463 86.4391 222.444 83.8452C222.403 78.2444 220.914 76.2329 215.263 74.4134C212.977 73.6775 210.67 73.0205 209.15 71.0023C205.099 65.6205 199.895 61.2928 194.352 57.349C192.11 55.753 190.299 54.1637 189.5 51.4998C188.733 48.9444 187.518 46.4927 186.349 44.0591C181.812 34.6093 175.761 26.55 164.349 23.6175C156.696 21.6512 148.907 21.0778 141.122 22.5836C136.15 23.5453 132.231 26.471 128.639 29.776C126.029 32.1802 124.751 32.2366 123.087 29.5976C121.217 26.6313 118.427 25.2023 115.165 24.3602C104.69 21.6558 94.1007 21.1749 83.2824 22.3533C71.8482 23.5995 64.2847 29.855 58.4558 38.3477C54.2795 44.4339 50.238 50.3643 43.4275 54.3556C39.997 56.3647 36.4799 58.6764 34.209 62.0559C33.7639 62.7173 32.2603 63.3585 33.5329 64.4172C34.7719 65.4489 35.3685 64.1328 35.9531 63.539C39.0684 60.3853 42.7924 57.9585 46.3985 55.3579C49.8242 52.8859 53.4159 50.4727 55.7446 46.8945C58.5809 42.5376 61.2271 38.0926 65.146 34.4129C70.412 29.4689 76.0966 25.5815 83.8405 24.7711C91.6902 23.9494 99.4605 24.2519 107.272 25.0239C116.315 25.9179 126.404 32.8823 127.501 42.7227C127.669 44.2307 127.783 45.6755 125.552 45.1382C115.819 42.8017 106.088 43.3593 96.2514 44.5738C88.2501 45.5626 81.5599 48.5493 76.164 54.1388C75.5674 54.7574 74.5642 55.376 75.3436 56.297C76.2506 57.3648 77.131 56.5837 77.9345 55.9561C78.7958 55.2857 79.6642 54.6242 80.5471 53.9786C85.486 50.3711 90.6389 47.2445 97.2112 47.039C99.0323 46.9826 100.837 46.5649 102.658 46.4227C116.666 45.3278 129.835 46.2263 140.593 56.6605C144.514 60.4643 147.788 64.2592 149.657 69.1263C150.309 70.8195 152.376 72.034 151.669 74.603C146.607 70.3206 140.566 70.377 134.538 70.3838C133.826 70.3838 133.114 70.3454 132.401 70.3454C117.871 70.3544 103.312 69.5214 88.8924 72.1559C83.5013 73.1402 78.4926 74.4157 74.8144 78.7388C72.0478 81.9873 70.0054 85.5903 68.0159 89.2226C66.8131 91.4146 68.7978 94.162 71.4945 93.9949C76.9097 93.6608 81.8389 94.9363 86.5781 97.1847C90.2708 98.9366 94.1969 100.291 97.3532 102.948C101.33 106.298 105.958 108.258 111.277 109.12C114.364 109.621 117.537 109.628 120.553 110.667C131.826 114.549 143.056 115.489 154.074 109.818C155.566 109.05 156.6 109.996 157.627 110.727C158.883 111.621 157.894 112.362 157.327 113.12C154.899 116.367 151.856 118.378 147.35 117.997C143.619 117.681 139.84 117.1 136.169 117.134C127.374 117.213 118.932 115.419 110.414 113.938C105.463 113.078 100.36 112.482 96.2586 109.384C93.8264 107.549 91.0431 106.14 88.9381 103.896C87.9349 102.826 86.4097 102.885 85.3151 103.628C84.4948 104.183 85.2743 105.054 85.8925 105.533C91.1393 109.592 96.4077 113.737 103.228 115.195C116.211 117.969 129.38 119.57 142.691 120.121C143.537 120.157 144.723 119.742 145.111 120.776C145.426 121.618 144.411 122.078 143.845 122.57C136.763 128.702 129.195 134.099 119.632 136.402C118.631 136.643 117.219 136.77 117.479 137.903C117.741 139.039 119.055 139.061 120.267 138.702C129.123 136.086 137.314 132.431 143.963 126.112C146.516 123.688 149.378 121.602 152.729 120.067C156.028 118.556 158.958 116.461 160.875 113.38C161.825 111.854 162.152 109.883 160.558 109.048C156.206 106.772 154.596 102.973 153.384 98.9275C151.236 91.7645 146.778 86.9267 138.774 85.3645C137.882 85.1907 137.208 84.5699 136.455 84.0845C132.964 81.8428 129.75 78.8336 125.504 78.1631C117.113 76.838 108.65 75.9756 100.112 77.4633C95.2001 78.3211 90.3502 79.3731 85.6447 80.9127C80.9152 82.4614 78.6081 86.4842 75.9306 90.0172C74.8889 91.392 74.0806 92.0715 72.3052 91.2701C70.1016 90.2746 71.6653 89.1729 72.0238 88.0261C73.1063 84.5473 75.5024 81.8699 78.0284 79.2919C82.1782 75.0568 88.1394 75.0455 93.4487 74.2757C102.66 72.9415 111.97 73.6233 121.309 74.3863C130.92 75.1719 138.957 78.6688 146.285 84.0348C148.553 85.6964 151.005 87.236 152.761 89.5567C155.876 93.6721 158.886 97.7694 159.468 102.98C159.564 103.84 160.134 104.415 161.106 104.325C162.124 104.23 161.946 103.395 161.974 102.768C162.107 99.8576 161.344 97.099 159.809 94.6247C155.099 87.0373 148.118 81.7299 140.148 77.3188C137.54 75.8763 134.463 75.1967 131.747 73.0341C138.574 72.7451 144.815 72.6074 149.944 76.996C154.474 80.8721 159.677 84.2561 160.88 90.5003C161.202 92.1708 161.537 93.8391 161.866 95.5074C161.982 96.0944 162.217 96.6903 162.946 96.6339C163.519 96.5888 164.091 96.354 164.397 95.7377C164.796 94.934 165.018 94.1349 164.856 93.2522C163.976 88.4595 162.41 83.9197 158.4 80.5967C156.222 78.7952 155.621 76.5174 155.188 74.0703C155.089 73.5127 155.135 72.8941 154.883 72.4087C151.902 66.6476 149.751 60.4079 144.156 56.1548C142.775 55.1051 143.33 54.4978 144.817 54.1027C158.087 50.572 171.068 50.2221 184.215 55.2969C193.652 58.9405 200.112 65.4376 207.317 72.6774L207.309 72.6932ZM180.522 121.211C181.282 121.168 181.648 121.114 182.011 121.132C185.163 121.272 188.317 121.358 191.336 120.306C192.238 119.99 193.513 119.633 193.005 118.376C192.606 117.385 191.528 117.543 190.641 117.893C188.507 118.733 186.265 118.595 184.037 118.593C179.312 118.586 174.854 117.369 170.426 115.99C169.367 115.66 167.998 115.294 167.633 116.703C167.305 117.958 168.638 118.071 169.61 118.347C172.148 119.064 174.409 120.116 176.461 121.848C180.527 125.279 184.85 128.438 188.403 132.384C188.988 133.034 189.604 134.063 190.883 133.113C192.125 132.192 191.627 131.214 190.968 130.392C190.342 129.616 189.592 128.939 188.692 128.307C185.841 126.297 183.039 124.148 180.517 121.211H180.522ZM78.1895 132.659C78.1943 131.636 77.9129 131.345 76.2794 131.361C69.5075 131.435 63.9792 134.366 58.896 138.221C58.2994 138.673 57.6234 139.305 58.5352 140.118C59.2665 140.768 59.7741 140.298 60.3683 139.885C65.0666 136.63 70.1257 134.239 76.1495 134.232C77.3451 134.232 78.062 133.74 78.1895 132.657V132.659ZM73.7727 124.573C71.6124 124.925 68.8266 125.327 66.0721 125.862C65.247 126.022 64.0995 126.343 64.3497 127.467C64.6263 128.706 65.7931 128.591 66.8059 128.417C69.4762 127.961 72.1369 127.453 74.8072 126.993C75.6876 126.841 76.8207 126.79 76.585 125.663C76.3973 124.767 75.3965 124.462 73.7751 124.575L73.7727 124.573Z" fill="#4C9641"/>
<path d="M207.31 72.6937C200.105 65.4539 193.646 58.9568 184.208 55.3132C171.059 50.2361 158.08 50.5883 144.81 54.119C143.324 54.5141 142.768 55.1213 144.149 56.1711C149.745 60.4242 151.895 66.6639 154.876 72.425C155.126 72.9104 155.083 73.5312 155.181 74.0865C155.614 76.5359 156.218 78.8115 158.393 80.613C162.403 83.936 163.969 88.4758 164.85 93.2685C165.013 94.1534 164.79 94.9526 164.39 95.754C164.085 96.3703 163.512 96.605 162.94 96.6502C162.211 96.7066 161.975 96.1106 161.859 95.5237C161.53 93.8554 161.193 92.1871 160.873 90.5166C159.67 84.2724 154.469 80.8884 149.937 77.0122C144.806 72.6214 138.568 72.7614 131.74 73.0503C134.456 75.2153 137.533 75.8925 140.141 77.3351C148.111 81.744 155.092 87.0513 159.803 94.641C161.337 97.1152 162.1 99.8739 161.968 102.784C161.939 103.411 162.117 104.247 161.099 104.341C160.125 104.432 159.557 103.856 159.461 102.996C158.876 97.7857 155.869 93.6884 152.754 89.573C150.998 87.2522 148.544 85.7126 146.278 84.0511C138.95 78.6851 130.913 75.1905 121.302 74.4026C111.963 73.6396 102.656 72.9578 93.442 74.292C88.1327 75.0618 82.1714 75.0731 78.0216 79.3081C75.4957 81.8862 73.0996 84.5636 72.0171 88.0424C71.661 89.1892 70.0949 90.2908 72.2985 91.2864C74.0739 92.0878 74.8822 91.4083 75.9239 90.0335C78.6014 86.5028 80.9061 82.4799 85.638 80.929C90.3435 79.3894 95.1933 78.3351 100.106 77.4796C108.643 75.9896 117.107 76.8542 125.498 78.1794C129.744 78.8498 132.958 81.8568 136.448 84.1008C137.201 84.5839 137.875 85.2047 138.767 85.3808C146.771 86.9452 151.229 91.7808 153.377 98.9438C154.59 102.989 156.199 106.789 160.551 109.064C162.146 109.897 161.816 111.87 160.868 113.396C158.951 116.478 156.021 118.575 152.723 120.083C149.374 121.616 146.509 123.702 143.956 126.129C137.307 132.447 129.116 136.102 120.261 138.719C119.048 139.078 117.735 139.055 117.472 137.919C117.21 136.786 118.625 136.658 119.625 136.418C129.188 134.116 136.759 128.718 143.839 122.587C144.406 122.094 145.421 121.636 145.104 120.792C144.717 119.758 143.531 120.173 142.684 120.137C129.373 119.586 116.205 117.986 103.221 115.211C96.3986 113.753 91.1326 109.608 85.8858 105.549C85.2675 105.071 84.4905 104.202 85.3084 103.644C86.403 102.901 87.9258 102.843 88.9314 103.913C91.0339 106.157 93.8197 107.565 96.2519 109.401C100.354 112.498 105.456 113.094 110.407 113.954C118.928 115.435 127.367 117.23 136.162 117.15C139.833 117.117 143.615 117.697 147.344 118.013C151.847 118.394 154.893 116.383 157.32 113.137C157.888 112.376 158.874 111.638 157.621 110.744C156.593 110.01 155.559 109.066 154.068 109.834C143.049 115.505 131.82 114.566 120.547 110.683C117.53 109.644 114.357 109.638 111.27 109.136C105.952 108.274 101.325 106.315 97.3464 102.964C94.1902 100.305 90.2641 98.9528 86.5714 97.201C81.8298 94.9526 76.9006 93.6771 71.4878 94.0112C68.7886 94.1782 66.8064 91.4309 68.0092 89.2388C70.0011 85.6065 72.0435 82.0036 74.8077 78.755C78.4859 74.4342 83.4946 73.1587 88.8857 72.1722C103.305 69.5377 117.864 70.373 132.395 70.3617C133.107 70.3617 133.819 70.4001 134.531 70.4001C140.56 70.3933 146.6 70.3391 151.662 74.6193C152.369 72.0503 150.303 70.8357 149.651 69.1426C147.779 64.2732 144.507 60.4784 140.586 56.6767C129.828 46.2449 116.659 45.3441 102.651 46.439C100.83 46.5812 99.0256 46.9989 97.2045 47.0553C90.6322 47.2607 85.4792 50.3874 80.5404 53.9948C79.6575 54.6405 78.7866 55.3019 77.9278 55.9724C77.1243 56.6 76.2414 57.3811 75.3369 56.3133C74.5575 55.3922 75.5582 54.7737 76.1572 54.1551C81.5556 48.5656 88.2458 45.5789 96.2446 44.5901C106.079 43.3756 115.81 42.818 125.546 45.1545C127.778 45.6895 127.665 44.247 127.494 42.739C126.395 32.8986 116.308 25.9342 107.265 25.0402C99.4562 24.2682 91.6835 23.9679 83.8338 24.7874C76.0899 25.5978 70.4053 29.4852 65.1392 34.4291C61.2204 38.1088 58.5741 42.5539 55.7379 46.9108C53.4092 50.489 49.8175 52.9022 46.3918 55.3742C42.7857 57.9771 39.0617 60.4039 35.9463 63.5553C35.3618 64.1468 34.7676 65.4629 33.5262 64.4335C32.2536 63.3747 33.7572 62.7336 34.2022 62.0722C36.4732 58.6904 39.9927 56.381 43.4208 54.3718C50.2312 50.3806 54.2728 44.4502 58.4491 38.364C64.278 29.8713 71.839 23.6157 83.2756 22.3696C94.094 21.1912 104.686 21.672 115.158 24.3765C118.42 25.2186 121.208 26.6453 123.08 29.6139C124.745 32.2552 126.02 32.1965 128.632 29.7922C132.222 26.4873 136.14 23.5616 141.115 22.5999C148.898 21.0941 156.687 21.6675 164.342 23.6338C175.755 26.5663 181.805 34.6255 186.342 44.0754C187.511 46.509 188.724 48.9606 189.494 51.5161C190.295 54.18 192.104 55.7692 194.346 57.3653C199.888 61.3069 205.089 65.6367 209.143 71.0186C210.663 73.0368 212.968 73.6937 215.256 74.4297C220.907 76.2515 222.396 78.2606 222.437 83.8615C222.456 86.4531 222.391 89.0131 221.491 91.4963C220.58 94.0134 221.718 96.4132 222.09 98.8287C223.154 105.7 221.417 111.523 215.239 115.726C213.692 116.78 213.396 117.518 214.893 118.814C218.039 121.541 220.373 124.763 221.347 128.763C221.835 130.765 224.063 131.384 225.268 132.912C228.718 137.281 228.689 142.017 224.616 145.884C223.043 147.378 221.489 148.891 219.884 150.356C218.633 151.498 218.386 152.634 219.218 154.182C222.259 159.831 221.602 164.097 216.526 168.292C213.974 170.4 213.132 172.387 214.147 175.419C215.328 178.94 213.995 182.139 211.881 185.058C210.24 187.325 208.684 189.618 207.288 192.041C206.393 193.594 206.872 194.237 208.099 195.066C211.708 197.499 215.468 199.734 218.72 202.626C220.491 204.199 222.069 205.893 223.51 207.721C226.964 212.107 231.571 215.552 235.199 219.695C240.027 225.21 245.173 230.736 247.028 238.141C247.939 241.784 250.117 245.08 249.939 249.078C249.729 253.828 248.305 258.208 246.255 262.456C245.777 263.447 245.163 265.116 243.578 264.362C241.896 263.563 243.14 262.242 243.681 261.206C245.683 257.375 247.485 253.42 247.295 249.097C247.008 242.575 243.932 236.904 240.614 231.301C236.2 223.846 228.749 218.835 223.469 212.121C215.831 202.409 204.861 196.447 194.935 189.305C191.801 187.049 188.526 187.591 185.171 189.049C180.72 190.982 177.614 194.481 173.881 197.246C172.853 198.007 171.788 198.727 170.799 199.533C169.485 200.606 168.413 201.493 170.51 203.116C172.709 204.818 171.889 210.245 169.55 211.852C168.834 212.345 168.105 212.654 167.349 212.037C166.541 211.376 166.969 210.645 167.409 209.983C167.674 209.588 168.158 209.288 168.319 208.87C168.855 207.473 169.031 206.035 167.818 204.85C166.505 203.565 165.247 204.258 164.037 205.091C163.63 205.371 163.113 205.552 162.795 205.897C161.508 207.301 159.1 208.398 159.709 210.496C160.351 212.71 162.949 213.191 165.083 213.753C169.688 214.965 173.455 213.855 176.924 210.59C179.82 207.866 182.991 205.242 187.237 204.229C194.906 202.4 198.171 204.391 199.046 211.717C201.135 211.223 202.099 209.301 203.884 208.457C204.697 208.073 205.381 207.5 206.348 207.563C207.007 207.606 207.849 207.306 208.164 208.186C208.443 208.965 207.935 209.529 207.339 209.877C199.85 214.241 194.608 221.596 185.543 223.944C182.7 224.679 180.968 227.337 179.18 229.544C178.459 230.438 178.552 231.382 179.58 232.039C183.482 234.54 187.109 237.441 191.574 239.121C193.901 239.997 195.448 239.656 196.239 237.222C198.233 231.086 204.211 228.068 208.453 223.693C208.929 223.203 209.877 222.754 210.57 223.636C211.173 224.406 210.449 224.869 209.963 225.314C206.629 228.37 203.203 231.393 200.781 235.145C199.419 237.256 197.365 239.227 197.483 241.943C197.589 244.385 199.737 245.329 201.7 246.313C202.234 246.579 202.785 246.848 203.362 246.999C205.02 247.44 206.687 248.115 208.366 248.153C210.748 248.207 210.399 245.796 211.06 244.543C213.661 239.617 219.028 236.94 221.922 232.31C222.264 231.763 222.894 231.581 223.519 231.863C224.342 232.233 224.296 232.913 224.02 233.583C223.38 235.129 222.326 236.414 221.03 237.513C218.006 240.078 215.513 243.049 213.3 246.245C211.736 248.507 212.126 250.623 214.729 251.492C217.168 252.304 219.67 253.146 222.355 253.18C223.695 253.196 224.366 252.801 224.648 251.487C225.73 246.399 229.312 242.748 232.981 239.188C233.573 238.615 234.21 237.245 235.363 238.484C236.212 239.396 236.034 240.502 235.035 241.277C232.406 243.315 230.984 246.209 229.009 248.701C227.7 250.354 225.764 252.291 228.408 254.433C231.129 256.639 234.193 256.582 236.614 254.23C237.463 253.404 238.408 253.174 239.308 253.79C240.294 254.467 239.683 255.307 239.142 256.041C237.21 258.641 234.687 259.576 231.468 258.314C227.207 256.641 222.983 255.352 218.249 255.621C216.649 255.711 214.592 255.183 213.42 254.214C210.132 251.498 205.984 250.984 202.143 249.686C198.859 248.575 196.083 247.031 195.265 243.534C195.022 242.496 194.235 242.304 193.268 242.107C186.361 240.703 181.261 236.567 176.366 232.145C175.045 230.953 173.796 229.691 172.478 228.497C170.508 226.713 169.372 224.6 169.235 221.998C169.089 219.207 167.563 217.498 164.621 216.729C160.486 215.643 157.224 213.979 156.112 209.301C155.487 206.667 151.849 206.105 148.977 205.924C146.369 205.759 145.224 207.701 144.486 209.545C143.742 211.405 145.535 212.74 146.545 214.029C149.355 217.609 152.439 221 155.388 224.485C157.332 226.781 158.785 229.364 158.309 232.344C157.147 239.624 160.443 245.744 164.106 251.62C165.579 253.982 168.425 255.607 170.715 257.492C173.089 259.445 175.435 261.42 177.463 263.7C177.949 264.247 178.815 264.791 177.872 265.61C176.998 266.369 176.245 266.037 175.485 265.373C171.542 261.924 167.417 258.646 163.685 255.007C160.945 252.334 159.61 248.751 158.157 245.329C157.342 243.41 156.413 242.952 154.97 244.812C150.892 250.07 146.747 255.28 143.001 260.759C142.222 261.901 141.945 264.328 139.879 263.386C138.075 262.565 139.785 260.795 140.153 259.56C140.675 257.815 142.357 256.655 143.425 255.178C146.759 250.573 150.132 246.022 154.055 241.816C156.622 239.066 156.23 230.425 153.865 227.068C150.839 222.77 146.444 219.535 143.572 215.103C141.19 211.43 140.904 207.658 143.189 205.403C146.09 202.542 151.332 201.795 154.885 204.407C157.493 206.324 158.831 205.195 160.806 203.816C167.219 199.335 172.553 193.655 179.12 189.363C188.553 183.198 192.469 184.3 199.734 189.187C203.94 192.016 203.932 192.043 206.348 187.668C207.649 185.309 209.668 183.403 210.938 180.99C211.611 179.708 211.919 178.548 211.835 177.216C211.753 175.89 211.895 174.301 210.394 173.68C208.927 173.075 208.551 174.829 207.582 175.394C204.25 177.333 200.685 178.559 196.807 179.107C191.661 179.834 186.496 180.074 181.297 180.085C170.609 180.11 159.913 180.069 149.232 180.385C141.928 180.602 135.306 177.762 128.262 176.954C122.159 176.252 116.496 174.17 110.657 172.556C105.09 171.017 100.75 168.141 96.2422 165.185C94.0699 163.761 91.6594 162.745 89.1816 161.932C83.408 160.041 79.2437 155.58 73.4388 153.598C69.8616 152.376 67.1191 149.487 65.2499 146.209C62.7167 141.764 64.8024 138.583 70.1382 138.147C79.5276 137.378 87.7839 140.658 96.0955 144.019C101.212 146.089 106.7 146.954 112.245 147.284C114.186 147.399 116.164 147.423 117.925 148.128C126.845 151.701 136.29 152.925 145.818 153.358C160.661 154.033 175.529 153.968 190.391 154.108C201.43 154.212 209.598 149.356 216.124 141.671C220.974 135.96 218.727 124.537 212.448 120.559C211.563 119.999 210.976 120.27 210.738 120.844C208.929 125.189 204.818 124.9 201.034 125.061C199.581 125.122 196.963 126.045 196.852 124.207C196.732 122.187 199.451 122.781 201.036 122.596C202.927 122.374 204.948 122.806 206.591 121.505C207.065 121.13 207.577 120.681 207.43 120.069C207.25 119.315 206.49 119.539 205.91 119.514C204.389 119.446 202.862 119.451 201.353 119.277C200.548 119.185 199.682 118.756 199.79 117.816C199.912 116.771 200.94 116.814 201.71 116.909C209.095 117.821 213.733 114.01 217.753 108.924C219.182 107.116 219.485 105.215 219.449 103.179C218.619 102.829 218.321 103.305 218.073 103.68C214.212 109.568 208.13 111.681 201.255 111.886C190.701 112.202 180.104 113.089 169.627 110.834C166.122 110.08 164.665 108.577 165.658 105.407C167.494 99.5466 170.036 94.0405 176.077 90.6723C178.755 89.1801 181.336 87.4509 183.787 85.672C187.384 83.0623 191.377 82.1977 195.688 82.0261C198.635 81.9088 201.599 82.06 204.541 81.8907C209.898 81.5837 214.003 83.5138 217.113 87.5615C217.575 88.1643 217.859 89.4804 219.011 88.9996C219.901 88.6271 219.591 87.4803 219.716 86.6427C220.089 84.164 219.045 82.8501 216.427 82.0532C209.333 79.8928 202.157 79.2675 194.793 80.254C192.385 80.5768 189.948 80.1502 187.516 80.6288C182.173 81.683 178.05 84.7126 173.895 87.7173C173.255 88.1801 172.774 88.8393 171.874 88.8844C171.244 88.916 170.667 88.828 170.243 88.3042C169.719 87.6541 170.275 87.2838 170.621 86.8346C171.713 85.4146 173.236 84.4439 174.725 83.4709C179.753 80.1908 184.995 77.466 191.384 77.3102C200.208 77.098 208.987 77.1793 218.025 79.6829C216.295 76.9716 213.764 76.3215 211.366 76.0144C204.972 75.1927 198.546 74.1362 192.068 75.3869C188.801 76.0167 185.558 76.7481 182.298 77.4073C181.098 77.6511 179.553 77.9672 179.212 76.5246C178.863 75.0528 180.648 75.1611 181.569 74.8721C188.817 72.5808 196.316 72.407 203.86 72.7049C204.666 72.7366 205.474 72.7095 207.303 72.7095L207.31 72.6937ZM88.0341 143.913C87.8103 143.755 87.5842 143.599 87.3605 143.441C83.8987 142.495 80.4369 141.547 76.9752 140.601C76.6432 140.114 76.2054 140.021 75.6713 140.301C73.8983 139.985 72.1277 139.935 70.3644 140.36C68.168 139.734 66.7246 140.798 66.2916 142.568C65.8441 144.396 67.0445 145.726 68.9859 146.331C69.1375 147.613 70.22 148.306 71.1366 148.981C73.831 150.968 76.8573 152.453 79.9871 153.754C82.0584 156.535 85.3589 157.325 88.4984 158.375L88.532 158.366C88.7606 158.521 88.9891 158.679 89.2177 158.835C92.6482 159.418 95.4123 161.316 98.3352 162.901C98.4338 163.379 98.7153 163.707 99.0978 164.061C104.104 168.691 110.847 170.141 116.974 172.719C119.26 173.68 121.625 173.908 124.078 173.647C124.468 173.694 124.858 173.741 125.25 173.791C125.779 174.396 126.45 174.355 127.155 174.157C127.947 174.227 128.736 174.297 129.527 174.367C130.042 174.965 130.718 174.92 131.416 174.78C132.005 174.854 132.594 174.927 133.186 175.001C133.528 175.389 133.966 175.477 134.468 175.362C134.851 175.43 135.233 175.495 135.616 175.563C137.988 177.437 140.923 178.143 143.829 178.245C149.901 178.455 155.99 178.279 162.071 178.232C163.053 178.225 164.126 178.491 164.941 177.672C165.545 177.665 166.146 177.66 166.75 177.654C174.992 177.69 183.234 177.728 191.476 177.757C192.089 177.76 192.71 177.724 193.039 177.105C193.429 177.06 193.816 177.015 194.206 176.97C197.978 177.699 201.05 176.116 204.06 174.335C208.022 172.583 211.395 169.985 214.344 167.07C216.531 164.91 219.002 162.479 218.018 158.894C218.314 157.803 217.751 156.907 217.229 156.025C216.326 154.496 215.398 154.494 214.513 156.056C212.059 158.156 209.605 160.257 207.149 162.357C205.891 162.65 204.551 162.698 203.454 163.465C202.867 163.542 202.28 163.617 201.693 163.693C199.722 163.357 197.909 163.905 196.112 164.558C194.916 164.646 193.723 164.732 192.527 164.82C191.247 164.648 189.941 164.276 188.801 165.226C182.279 165.215 175.757 165.204 169.233 165.192C167.66 164.212 165.956 164.675 164.282 164.802C163.483 164.768 162.685 164.732 161.884 164.698C158.876 163.82 155.819 163.357 152.66 163.741C150.247 163.626 147.834 163.51 145.421 163.393C145.114 162.935 144.666 162.858 144.144 162.98C143.547 162.951 142.951 162.923 142.354 162.894C139.352 162.025 136.268 161.788 133.145 161.856C131.736 161.822 130.326 161.786 128.916 161.752C128.192 160.975 127.302 161.156 126.405 161.361C123.985 161.303 121.562 161.244 119.142 161.183C118.021 160.264 116.7 160.67 115.437 160.686C113.527 160.594 111.699 160.192 109.844 159.716C106.281 158.801 102.836 157.449 99.1363 157.022C98.9125 156.83 98.6888 156.641 98.4627 156.449C98.0248 156.302 97.5894 156.158 97.1516 156.011C96.8413 155.548 96.3962 155.451 95.8645 155.596C94.8662 155.365 93.8678 155.135 92.8671 154.905C91.5897 154.029 90.0933 153.862 88.585 153.729C88.1808 153.539 87.7791 153.347 87.3749 153.158C86.7567 152.431 85.9363 152.058 84.9668 151.95C84.6228 151.232 83.9949 150.873 83.2011 150.719C82.7656 150.374 82.3302 150.026 81.8972 149.681C81.3439 148.787 80.6462 148.067 79.4675 147.934C78.9599 147.426 78.2887 147.39 77.6151 147.365C77.081 146.771 76.4171 146.789 75.7098 147.006C74.8726 146.703 73.6625 146.963 73.4701 145.692C73.6409 145.315 73.8141 144.938 73.9849 144.561C74.1629 144.523 74.3409 144.482 74.519 144.441C75.1613 144.423 75.8012 144.405 76.4435 144.387L78.2165 144.552C79.2581 145.299 80.5067 145.548 81.7408 145.827C83.8001 147.572 85.9531 149.198 88.4093 150.435C88.9987 151.451 89.8816 151.934 91.1278 151.753C91.7123 151.835 92.2945 151.916 92.8791 151.995C93.2087 152.41 93.6441 152.528 94.1685 152.392C94.5462 152.498 94.9263 152.607 95.304 152.713C95.6192 153.137 96.0738 153.16 96.5574 153.097C102.458 154.643 108.357 156.189 114.258 157.738C115.548 158.776 117.188 158.334 118.637 158.533C124.699 159.357 130.788 160.072 136.944 159.711C142.212 160.192 147.478 160.673 152.747 161.151C153.697 161.953 154.789 161.713 155.872 161.522C156.868 161.585 157.861 161.648 158.857 161.713C160.007 162.594 161.309 162.257 162.584 162.124C163.989 162.174 165.396 162.224 166.801 162.273C168.79 163.328 170.895 162.79 172.971 162.677C178.216 162.928 183.458 162.971 188.7 162.583C189.21 162.822 189.647 162.736 190.013 162.325C191.019 162.291 192.027 162.26 193.032 162.226C194.598 162.278 196.299 162.874 197.444 161.251C201.168 161.409 204.683 160.935 207.673 158.562C212.713 154.562 216.759 149.686 221.224 145.177C222.627 144.931 223.507 144.218 223.625 142.82C224.013 142.051 224.397 141.281 224.785 140.509C225.439 140.236 225.345 139.775 225.129 139.285C225.273 138.337 225.598 137.369 224.751 136.542C224.619 134.935 223.317 133.549 222.095 133.565C220.455 133.587 221.465 135.606 220.895 136.63C220.731 136.924 220.854 137.36 220.847 137.73C220.794 138.093 220.743 138.459 220.69 138.822C219.8 139.599 219.567 140.631 219.425 141.698C219.187 142.071 218.949 142.446 218.708 142.818C218.532 143.008 218.357 143.2 218.181 143.389C218.095 143.532 218.034 143.683 217.998 143.841C217.344 144.051 216.94 144.444 216.935 145.128C216.524 145.518 216.115 145.911 215.703 146.302C214.476 147.046 213.211 147.755 212.552 149.071C207.709 153.243 202.061 155.792 195.513 156.528C195.024 156.104 194.418 156.083 193.802 156.083C182.722 156.072 171.641 156.052 160.56 156.063C159.988 156.063 159.415 156.336 158.843 156.483C157.195 156.465 155.581 155.853 153.909 156.214C148.477 154.821 142.876 155.79 137.389 155.171C136.749 155.207 136.112 155.241 135.472 155.277C135.359 154.535 135.079 154.243 134.437 154.943C134.228 154.914 134.019 154.885 133.809 154.855C133.6 154.873 133.393 154.894 133.184 154.912C131.618 154.295 130.107 153.476 128.3 153.765C127.814 153.09 127.136 153.112 126.412 153.309C125.822 153.255 125.233 153.203 124.644 153.149C124.338 152.686 123.891 152.591 123.359 152.717C122.972 152.679 122.584 152.638 122.195 152.6C121.348 151.799 120.222 151.663 119.123 151.467C117.523 150.986 116.084 149.965 114.278 150.166C113.347 149.426 112.254 149.672 111.194 149.722C110.592 149.679 109.991 149.638 109.389 149.595C106.964 149.02 104.571 148.214 101.997 148.652L99.5933 148.004C97.2237 146.864 94.9576 145.469 92.1863 145.292C91.6041 145.087 91.0243 144.879 90.4422 144.674C89.6435 144.417 88.8448 144.161 88.0461 143.904L88.0413 143.915L88.0341 143.913ZM133.208 111.017C140.122 112.356 146.42 110.522 152.504 107.674C153.252 107.324 153.671 106.854 153.069 105.865C151.294 102.942 150.748 99.5985 149.636 96.447C149.073 94.8532 148.621 92.8937 146.377 92.3926C141.486 91.2977 136.54 90.9049 131.454 91.3473C131.512 91.7063 131.497 91.9975 131.606 92.2391C134.334 98.235 134.868 104.129 131.108 110.008C130.03 111.692 131.69 111.184 132.558 111.166C132.775 111.116 132.991 111.069 133.21 111.019L133.208 111.017ZM186.876 52.1888C186.645 51.5522 186.474 50.8953 186.181 50.2948C185.017 47.9154 183.891 45.5157 182.613 43.1882C177.559 33.9799 170.708 26.8327 159.074 25.1079C147.702 23.4239 136.941 23.6045 128.856 32.9889C128.163 33.7925 127.107 34.3614 128.096 35.5601C130.292 38.224 130.396 41.3642 130.386 44.5269C130.384 45.4999 130.362 46.5361 131.541 46.9447C134.538 47.9831 136.929 49.8659 139.309 51.7622C140.083 52.3785 140.834 52.5117 141.825 52.3085C145.09 51.638 148.378 50.9946 151.609 50.2632C158.982 48.5927 166.223 48.0351 173.659 49.8411C177.472 50.7666 181.232 51.8028 184.952 52.997C185.871 53.2928 186.763 53.6066 186.874 52.1888H186.876ZM138.06 88.013C135.563 87.2116 133.499 85.9632 131.553 84.3559C128.563 81.8862 125.108 80.2743 120.977 79.8635C110.864 78.8611 100.948 79.2449 91.0845 81.9223C86.925 83.051 83.7375 85.0399 81.1514 88.0898C80.4995 88.8573 79.1403 89.7107 79.7922 90.7288C80.4418 91.7424 81.8322 90.9974 82.8811 90.8281C85.7727 90.3653 88.6379 89.7558 91.5391 89.3698C105.499 87.5096 119.551 88.4036 133.566 88.2049C135.01 88.1846 136.47 89.5459 138.058 88.0108L138.06 88.013ZM198.13 91.6837C201.726 95.0383 202.679 98.5352 202.258 102.465C202.078 104.138 202.294 105.809 201.71 107.493C201.329 108.588 201.187 109.498 203.584 109.231C209.36 108.59 213.276 105.825 216.461 101.592C217.613 100.061 218.14 99.1334 215.84 97.9415C210.481 95.1625 205.397 91.844 198.13 91.6837ZM184.584 88.776C187.87 88.776 190.391 88.8641 192.905 88.758C198.897 88.5074 204.669 89.2885 210.062 91.853C212.042 92.7944 213.904 93.9502 215.845 94.9661C216.338 95.2235 216.892 95.6569 217.496 95.3138C217.962 95.0474 217.95 94.6297 217.799 94.0812C216.387 88.907 210.647 84.5545 204.952 84.4846C201.799 84.4462 198.64 84.4642 195.486 84.5545C191.63 84.6652 188.137 85.7307 184.584 88.776ZM195.568 208.972C193.273 210.428 191.986 212.55 189.89 213.974C184.971 217.316 179.154 219.392 174.785 223.481C174.16 224.065 172.822 224.585 173.219 225.377C173.736 226.409 174.795 227.397 175.885 227.914C176.727 228.312 177.393 227.156 177.97 226.542C180.467 223.885 183.128 221.562 186.934 220.535C191.832 219.214 194.189 215.507 195.878 211.344C196.155 210.663 196.282 209.873 195.568 208.974V208.972ZM193.434 207.383C192.95 205.974 191.878 205.852 191.125 206.125C188.358 207.132 185.293 207.335 182.888 209.349C179.748 211.977 176.941 215.044 172.885 216.598C172.324 216.812 170.876 216.503 171.403 217.808C171.778 218.738 171.347 220.043 172.654 220.564C173.566 220.928 174.162 220.316 174.788 219.812C175.247 219.442 175.767 219.142 176.253 218.799C181.317 215.216 187.348 212.931 191.827 208.561C192.311 208.089 192.934 207.744 193.436 207.378L193.434 207.383ZM101.475 91.2029C96.1075 91.2683 91.1735 91.8643 86.237 92.4219C85.8305 92.4671 85.1785 92.9095 85.1593 93.1962C85.116 93.8577 85.8617 93.9705 86.4102 94.2234C90.1487 95.9368 93.8462 97.727 97.433 99.9619C98.2053 96.7721 99.0882 93.8622 101.472 91.2029H101.475ZM126.453 99.0115C126.489 96.7428 125.493 95.8149 123.015 95.8149C120.167 95.8149 118.637 97.1852 118.536 99.691C118.461 101.585 119.481 103.016 121.271 103.159C124.324 103.402 126.414 101.483 126.453 99.0115ZM194.873 104.378C197.728 104.373 198.532 103.633 198.505 100.763C198.481 97.9392 196.208 98.2033 194.182 98.0905C192.034 97.9708 190.627 98.5465 190.603 100.847C190.578 103.19 191.981 104.38 194.87 104.378H194.873ZM175.197 95.2889C174.773 95.1422 174.446 95.2709 174.136 95.5598C170.847 98.6187 169.522 102.655 168.153 106.603C167.679 107.967 169.281 108.294 170.508 108.45C171.711 108.604 172.221 108.324 172.365 106.994C172.752 103.409 173.068 99.7678 175.235 96.596C175.514 96.1874 175.589 95.7111 175.197 95.2889ZM179.541 97.0046C179.291 98.4381 180.285 99.2869 181.706 99.165C182.96 99.0567 184.466 98.7023 184.569 96.9504C184.697 94.8103 182.823 94.9909 181.545 94.7471C179.9 94.4356 179.56 95.605 179.541 97.0046ZM110.883 99.7813C109.166 99.9032 107.727 99.8445 107.575 101.506C107.477 102.578 108.061 103.879 109.149 103.714C110.352 103.533 112.367 103.696 112.418 101.653C112.449 100.443 111.918 99.6662 110.883 99.7791V99.7813ZM111.155 94.921C111.242 93.72 110.847 92.887 109.334 92.9885C107.833 93.0879 106.928 93.7741 106.885 95.2551C106.844 96.6502 107.744 96.9437 109.028 96.9617C110.561 96.982 111.275 96.3793 111.155 94.921ZM184.295 104.721C183.944 104.202 184.064 103.217 182.801 103.256C181.692 103.289 180.465 103.136 180.217 104.56C180.037 105.592 180.337 106.576 181.617 106.637C182.851 106.696 183.85 106.1 184.295 104.718V104.721Z" fill="black"/>
<path d="M180.523 121.211C183.041 124.148 185.844 126.297 188.697 128.306C189.597 128.938 190.347 129.616 190.973 130.392C191.635 131.212 192.13 132.189 190.889 133.113C189.609 134.063 188.993 133.034 188.409 132.383C184.853 128.437 180.532 125.279 176.467 121.848C174.415 120.116 172.153 119.064 169.615 118.346C168.643 118.071 167.311 117.96 167.638 116.703C168.004 115.294 169.372 115.66 170.431 115.989C174.86 117.369 179.317 118.586 184.042 118.592C186.27 118.595 188.512 118.732 190.646 117.893C191.533 117.543 192.611 117.385 193.011 118.376C193.518 119.633 192.246 119.99 191.341 120.306C188.322 121.36 185.168 121.272 182.017 121.132C181.653 121.116 181.285 121.168 180.528 121.211H180.523Z" fill="black"/>
<path d="M78.19 132.659C78.0625 133.741 77.3481 134.233 76.15 134.235C70.1286 134.242 65.0695 136.633 60.3688 139.888C59.7746 140.301 59.267 140.771 58.5357 140.12C57.6239 139.308 58.2999 138.676 58.8965 138.224C63.9797 134.368 69.508 131.438 76.2799 131.364C77.9134 131.346 78.1924 131.637 78.19 132.662V132.659Z" fill="black"/>
<path d="M73.7734 124.573C75.3972 124.46 76.398 124.765 76.5832 125.661C76.819 126.787 75.6835 126.839 74.8054 126.991C72.1351 127.453 69.4744 127.959 66.8041 128.415C65.7913 128.589 64.6246 128.704 64.3479 127.465C64.0977 126.34 65.2452 126.02 66.0704 125.86C68.8249 125.325 71.6106 124.923 73.7709 124.571L73.7734 124.573Z" fill="black"/>
<path d="M128.293 153.764C130.099 153.475 131.61 154.297 133.176 154.911C133.412 155.164 133.619 155.137 133.802 154.855C134.011 154.884 134.22 154.913 134.427 154.941C134.648 155.385 134.995 155.494 135.462 155.277C136.101 155.241 136.739 155.207 137.379 155.169C142.751 157.397 148.337 156.616 153.899 156.214C155.571 155.853 157.182 156.464 158.833 156.482C159.501 157.295 160.466 157.11 161.356 157.112C171.891 157.126 182.425 157.128 192.957 157.121C193.847 157.121 194.807 157.3 195.502 156.528C202.053 155.792 207.699 153.243 212.542 149.071C214.274 148.829 215.715 148.299 215.691 146.301C216.102 145.911 216.514 145.518 216.923 145.127C217.738 145.035 218.101 144.613 217.986 143.84C218.022 143.68 218.084 143.531 218.169 143.389C218.344 143.199 218.52 143.007 218.696 142.818C218.934 142.445 219.172 142.071 219.41 141.698C220.825 141.125 221.527 140.274 220.678 138.822C220.731 138.459 220.781 138.093 220.832 137.729C221.842 136.488 222.918 135.434 224.739 136.544C225.585 137.37 225.261 138.341 225.116 139.287C224.472 139.562 223.988 139.879 224.77 140.508C224.383 141.278 223.998 142.048 223.61 142.82C222.157 143.021 221.301 143.755 221.209 145.177C216.745 149.683 212.698 154.561 207.658 158.562C204.67 160.934 201.153 161.408 197.429 161.25C195.933 161.478 194.088 160.302 193.017 162.225C192.012 162.259 191.004 162.291 189.998 162.325C189.375 161.58 189 161.943 188.685 162.582C183.445 162.97 178.201 162.928 172.956 162.677C171.017 160.979 168.903 161.609 166.786 162.273C165.381 162.223 163.974 162.174 162.569 162.124C161.503 160.58 160.192 161.004 158.842 161.711C157.846 161.648 156.853 161.584 155.857 161.521C154.984 160.155 153.896 160.359 152.732 161.151C147.463 160.67 142.197 160.189 136.929 159.713C135.397 158.426 133.513 158.309 131.593 158.304C127.441 158.295 123.286 158.399 119.163 157.713C117.542 157.444 115.872 156.453 114.246 157.74C108.345 156.193 102.446 154.647 96.5449 153.098C96.3428 152.353 96.0975 151.721 95.2916 152.715C94.9139 152.609 94.5337 152.5 94.1561 152.394C93.9107 151.735 93.622 151.204 92.8666 151.997C92.282 151.915 91.6999 151.834 91.1153 151.755C90.574 150.654 89.6286 150.286 88.3969 150.435C85.9383 149.197 83.7876 147.572 81.7283 145.827C81.3771 143.389 79.9145 143.667 78.2016 144.554C77.6098 144.5 77.0204 144.443 76.4286 144.389C75.7454 143.057 75.1031 143.08 74.5041 144.443C74.3261 144.484 74.1481 144.522 73.97 144.563C73.0896 144.655 72.4881 144.861 73.4552 145.694C73.6477 146.963 74.8577 146.705 75.6949 147.005C76.1351 148.03 76.751 148.236 77.6002 147.367C78.2762 147.391 78.9474 147.428 79.4526 147.936C79.5392 149.403 80.5616 149.726 81.8823 149.683C82.3177 150.028 82.7532 150.376 83.1862 150.724C83.1332 151.943 84.0017 152.001 84.9519 151.956V151.954C85.2695 153.211 85.907 153.902 87.36 153.162C87.7642 153.351 88.1659 153.543 88.5701 153.733C89.6382 155.277 91.1297 155.462 92.8522 154.909C93.8506 155.139 94.8489 155.369 95.8497 155.6C96.0926 156.248 96.3789 156.771 97.1367 156.015C97.5745 156.162 98.01 156.306 98.4478 156.453C98.6715 156.645 98.8952 156.835 99.1214 157.026C102.824 157.453 106.266 158.805 109.829 159.72C111.684 160.196 113.512 160.598 115.422 160.688C116.425 162.372 117.77 161.81 119.127 161.185C121.547 161.243 123.97 161.302 126.392 161.361C127.037 162.575 127.908 162.512 128.904 161.751C130.313 161.785 131.723 161.821 133.133 161.855C136.063 163.293 139.094 163.943 142.342 162.894C142.938 162.923 143.535 162.95 144.132 162.979C144.35 163.679 144.622 164.232 145.409 163.393C147.822 163.508 150.235 163.623 152.648 163.738C155.602 165.079 158.655 165.569 161.871 164.697C162.67 164.731 163.468 164.767 164.27 164.801C165.785 166.418 167.498 165.86 169.22 165.194C175.742 165.205 182.264 165.217 188.788 165.228C190.128 165.876 191.434 166.271 192.515 164.822C193.71 164.734 194.903 164.648 196.099 164.56C198.209 165.691 199.994 164.971 201.68 163.695C202.267 163.618 202.854 163.544 203.441 163.467C205.091 164.329 206.258 163.77 207.136 162.359C209.59 160.259 212.044 158.157 214.5 156.058C216.09 156.546 216.42 158.404 218.005 158.896C218.989 162.481 216.518 164.912 214.332 167.072C211.382 169.987 208.012 172.583 204.047 174.337C200.617 174.736 197.158 175.037 194.194 176.971C193.804 177.017 193.417 177.062 193.029 177.109C192.77 176.971 192.512 176.714 192.252 176.714C184.287 176.682 176.32 176.678 168.354 176.664C167.575 176.664 166.971 176.888 166.74 177.658C166.136 177.664 165.535 177.669 164.931 177.676C163.863 176.868 162.605 177.267 161.426 177.213C153.131 176.834 144.654 178.441 136.628 175.163C136.217 174.996 135.861 175.238 135.606 175.567C135.223 175.5 134.841 175.434 134.458 175.366C134.225 174.644 133.929 174.109 133.176 175.003C132.587 174.928 131.997 174.856 131.406 174.782C131.009 173.712 130.4 173.49 129.517 174.369C128.726 174.299 127.937 174.229 127.145 174.159C126.707 173.14 126.094 172.921 125.24 173.791C124.85 173.743 124.46 173.696 124.068 173.648C123.828 172.678 122.976 172.734 122.175 172.592C116.019 171.492 110.707 168.406 105.01 166.223C102.617 165.307 101.477 162.307 98.3251 162.903C95.4022 161.318 92.6381 159.419 89.2076 158.837C88.9791 158.681 88.7505 158.523 88.522 158.367C88.522 158.367 88.4883 158.376 88.4907 158.376C86.5277 155.417 82.8566 155.229 79.977 153.755C76.8472 152.455 73.8209 150.97 71.1265 148.983C70.21 148.308 69.1298 147.615 68.9759 146.333C67.429 143.935 67.6094 141.888 70.3543 140.364C72.1177 139.939 73.8882 139.989 75.6636 140.303C75.9715 140.883 76.3372 141.242 76.9675 140.605C80.4293 141.551 83.8911 142.499 87.3528 143.445C87.5766 143.603 87.8027 143.759 88.0264 143.917L88.0312 143.906C88.3439 145.495 89.3471 145.19 90.4273 144.676C91.0094 144.881 91.5892 145.089 92.1714 145.294C93.7086 148.439 96.8889 147.629 99.5785 148.008C100.38 148.224 101.181 148.439 101.982 148.656C104.176 150.821 106.706 150.676 109.372 149.602C109.973 149.644 110.575 149.685 111.176 149.728C111.958 151.374 113.057 151.082 114.26 150.173C116.069 149.972 117.506 150.992 119.105 151.473C119.733 152.796 120.763 153.162 122.177 152.606C122.565 152.645 122.952 152.685 123.342 152.724C123.573 153.381 123.861 153.893 124.626 153.155C125.216 153.209 125.805 153.261 126.395 153.315C126.794 154.311 127.407 154.514 128.283 153.771L128.293 153.764Z" fill="#9F2A16"/>
<path d="M186.873 52.1906C186.763 53.6083 185.87 53.2923 184.951 52.9988C181.232 51.8046 177.472 50.7684 173.659 49.8428C166.223 48.0368 158.982 48.5944 151.609 50.265C148.378 50.9964 145.089 51.6398 141.825 52.3103C140.831 52.5134 140.081 52.3802 139.308 51.7639C136.927 49.8699 134.538 47.9849 131.54 46.9464C130.362 46.5378 130.381 45.4994 130.386 44.5287C130.398 41.3659 130.292 38.2257 128.095 35.5619C127.107 34.3632 128.163 33.7965 128.856 32.9906C136.941 23.6062 147.702 23.4234 159.073 25.1097C170.707 26.8344 177.556 33.9794 182.613 43.19C183.89 45.5175 185.016 47.9172 186.18 50.2966C186.474 50.8993 186.645 51.554 186.876 52.1906H186.873Z" fill="#4C9641"/>
<path d="M138.057 88.015C136.469 89.5501 135.009 88.1889 133.566 88.2092C119.55 88.4079 105.499 87.5139 91.5386 89.3741C88.6373 89.7601 85.7698 90.3696 82.8806 90.8324C81.8317 91.0017 80.4388 91.7467 79.7917 90.7331C79.1397 89.7127 80.499 88.8593 81.1509 88.0941C83.737 85.0442 86.9245 83.0553 91.0839 81.9266C100.947 79.2492 110.861 78.8654 120.977 79.8677C125.107 80.2764 128.562 81.8905 131.552 84.3602C133.498 85.9675 135.562 87.2136 138.06 88.0173L138.057 88.015Z" fill="#4C9641"/>
<path d="M132.556 111.163C131.69 111.179 130.03 111.689 131.105 110.005C134.865 104.126 134.331 98.2321 131.603 92.2362C131.493 91.9947 131.509 91.7034 131.452 91.3445C136.54 90.902 141.483 91.2971 146.374 92.3897C148.619 92.8909 149.071 94.8504 149.634 96.4442C150.745 99.5956 151.294 102.941 153.067 105.862C153.668 106.851 153.249 107.321 152.501 107.671C146.417 110.52 140.119 112.353 133.205 111.014C132.864 110.572 132.695 110.811 132.553 111.161L132.556 111.163Z" fill="#F6F5F4"/>
<path d="M198.127 91.6831C205.395 91.8434 210.478 95.1597 215.838 97.9409C218.138 99.1328 217.611 100.061 216.459 101.591C213.274 105.824 209.357 108.589 203.581 109.231C201.187 109.497 201.327 108.587 201.707 107.492C202.292 105.808 202.075 104.138 202.256 102.465C202.677 98.5323 201.726 95.0377 198.127 91.6831Z" fill="#F6F5F4"/>
<path d="M184.581 88.7753C188.134 85.73 191.627 84.6645 195.483 84.5538C198.637 84.4635 201.796 84.4432 204.949 84.4839C210.644 84.5538 216.384 88.9085 217.796 94.0805C217.945 94.629 217.959 95.0467 217.493 95.3131C216.889 95.6562 216.336 95.2228 215.842 94.9654C213.901 93.9495 212.039 92.7937 210.059 91.8523C204.666 89.2901 198.894 88.5067 192.902 88.7573C190.39 88.8634 187.867 88.7753 184.581 88.7753Z" fill="#4C9641"/>
<path d="M195.566 208.971C196.28 209.87 196.153 210.66 195.876 211.342C194.187 215.502 191.83 219.211 186.932 220.532C183.126 221.559 180.465 223.882 177.968 226.539C177.388 227.156 176.724 228.311 175.882 227.912C174.793 227.395 173.734 226.406 173.217 225.374C172.82 224.582 174.157 224.063 174.783 223.478C179.152 219.388 184.969 217.313 189.888 213.972C191.984 212.55 193.271 210.428 195.566 208.969V208.971Z" fill="#4C9641"/>
<path d="M193.433 207.382C192.93 207.746 192.307 208.094 191.824 208.565C187.344 212.936 181.313 215.22 176.249 218.803C175.766 219.146 175.244 219.447 174.784 219.817C174.161 220.318 173.562 220.932 172.65 220.568C171.344 220.047 171.777 218.742 171.4 217.812C170.873 216.505 172.321 216.817 172.881 216.602C176.937 215.049 179.747 211.981 182.884 209.353C185.29 207.34 188.355 207.136 191.121 206.13C191.874 205.856 192.947 205.978 193.431 207.387L193.433 207.382Z" fill="#4C9641"/>
<path d="M101.474 91.2026C99.0904 93.862 98.2075 96.7719 97.4352 99.9617C93.8484 97.7268 90.1509 95.9343 86.4124 94.2232C85.8639 93.9726 85.1182 93.8575 85.1615 93.196C85.1807 92.9093 85.8327 92.4691 86.2392 92.4217C91.1733 91.8618 96.1097 91.2681 101.477 91.2026H101.474Z" fill="#F6F5F4"/>
<path d="M126.45 99.0116C126.412 101.486 124.321 103.402 121.268 103.159C119.479 103.016 118.459 101.585 118.533 99.6911C118.632 97.183 120.164 95.8127 123.012 95.8149C125.49 95.8149 126.489 96.7428 126.45 99.0116Z" fill="#F6F5F4"/>
<path d="M194.872 104.377C191.985 104.381 190.58 103.189 190.604 100.846C190.628 98.5456 192.033 97.9699 194.184 98.0895C196.21 98.2024 198.48 97.9383 198.507 100.762C198.531 103.632 197.728 104.372 194.874 104.377H194.872Z" fill="#F6F5F4"/>
<path d="M195.502 156.529C194.807 157.301 193.845 157.123 192.957 157.123C182.423 157.13 171.888 157.125 161.356 157.114C160.468 157.114 159.504 157.297 158.833 156.484C159.405 156.338 159.978 156.064 160.55 156.064C171.631 156.053 182.711 156.073 193.792 156.085C194.41 156.085 195.014 156.105 195.502 156.529Z" fill="#9F2A16"/>
<path d="M98.3301 162.9C101.482 162.304 102.622 165.305 105.015 166.221C110.715 168.404 116.024 171.49 122.18 172.59C122.981 172.732 123.83 172.675 124.073 173.646C121.622 173.906 119.257 173.678 116.969 172.716C110.842 170.138 104.101 168.689 99.0927 164.059C98.7102 163.704 98.4287 163.377 98.3301 162.898V162.9Z" fill="#9F2A16"/>
<path d="M175.194 95.2838C175.591 95.7104 175.516 96.1868 175.237 96.5954C173.067 99.7671 172.755 103.411 172.367 106.993C172.223 108.323 171.713 108.603 170.51 108.449C169.283 108.294 167.681 107.966 168.155 106.603C169.524 102.654 170.849 98.6203 174.138 95.5592C174.448 95.2702 174.775 95.1415 175.196 95.2838H175.194Z" fill="#F6F5F4"/>
<path d="M135.606 175.565C135.861 175.235 136.217 174.994 136.628 175.161C144.654 178.439 153.134 176.831 161.426 177.211C162.602 177.265 163.863 176.865 164.931 177.673C164.116 178.491 163.043 178.224 162.061 178.233C155.98 178.281 149.891 178.457 143.819 178.247C140.913 178.145 137.978 177.439 135.606 175.565Z" fill="#9F2A16"/>
<path d="M166.741 177.655C166.972 176.885 167.575 176.659 168.355 176.662C176.322 176.675 184.288 176.68 192.253 176.711C192.513 176.711 192.772 176.969 193.03 177.106C192.698 177.725 192.08 177.761 191.464 177.759C183.222 177.729 174.98 177.691 166.738 177.655H166.741Z" fill="#9F2A16"/>
<path d="M114.251 157.74C115.88 156.453 117.547 157.444 119.168 157.713C123.291 158.399 127.446 158.293 131.598 158.304C133.518 158.308 135.402 158.426 136.934 159.713C130.778 160.072 124.689 159.356 118.627 158.532C117.179 158.336 115.538 158.778 114.249 157.737L114.251 157.74Z" fill="#9F2A16"/>
<path d="M179.543 97.0016C179.563 95.6019 179.902 94.4325 181.547 94.7441C182.827 94.9856 184.699 94.8073 184.571 96.9474C184.468 98.6992 182.959 99.0559 181.708 99.162C180.287 99.2839 179.296 98.4351 179.543 97.0016Z" fill="#F6F5F4"/>
<path d="M153.899 156.216C148.339 156.616 142.751 157.399 137.379 155.171C142.866 155.792 148.467 154.823 153.899 156.216Z" fill="#9F2A16"/>
<path d="M110.885 99.778C111.918 99.6651 112.449 100.442 112.42 101.652C112.37 103.692 110.354 103.53 109.151 103.713C108.064 103.878 107.481 102.577 107.578 101.505C107.729 99.8434 109.168 99.9021 110.885 99.7802V99.778Z" fill="#F6F5F4"/>
<path d="M111.157 94.9183C111.277 96.3767 110.563 96.9794 109.031 96.9591C107.746 96.9433 106.846 96.6476 106.887 95.2524C106.93 93.7693 107.835 93.0852 109.336 92.9859C110.849 92.8843 111.244 93.7173 111.157 94.9183Z" fill="#F6F5F4"/>
<path d="M194.199 176.971C197.163 175.037 200.622 174.736 204.052 174.337C201.043 176.118 197.971 177.701 194.199 176.971Z" fill="#9F2A16"/>
<path d="M70.3612 140.36C67.6163 141.886 67.4359 143.931 68.9827 146.328C67.0413 145.726 65.8409 144.396 66.2884 142.565C66.7214 140.795 68.1672 139.734 70.3612 140.357V140.36Z" fill="#9F2A16"/>
<path d="M184.297 104.716C183.852 106.095 182.856 106.691 181.619 106.635C180.34 106.574 180.041 105.59 180.219 104.558C180.467 103.131 181.692 103.287 182.803 103.253C184.064 103.215 183.946 104.199 184.297 104.718V104.716Z" fill="#F6F5F4"/>
<path d="M79.9814 153.753C82.861 155.227 86.5321 155.414 88.4951 158.374C85.3533 157.324 82.0551 156.534 79.9814 153.753Z" fill="#9F2A16"/>
<path d="M161.878 164.695C158.662 165.566 155.609 165.076 152.655 163.735C155.811 163.354 158.869 163.817 161.878 164.695Z" fill="#9F2A16"/>
<path d="M142.35 162.893C139.102 163.941 136.071 163.293 133.141 161.855C136.263 161.79 139.347 162.024 142.35 162.893Z" fill="#9F2A16"/>
<path d="M99.5863 148.003C96.8991 147.626 93.7164 148.434 92.1792 145.29C94.9505 145.466 97.2143 146.861 99.5863 148.003Z" fill="#9F2A16"/>
<path d="M109.382 149.595C106.716 150.671 104.186 150.814 101.992 148.649C104.563 148.213 106.957 149.019 109.382 149.595Z" fill="#9F2A16"/>
<path d="M224.744 136.544C222.923 135.433 221.847 136.488 220.837 137.729C220.847 137.359 220.724 136.926 220.887 136.63C221.46 135.605 220.447 133.587 222.088 133.564C223.31 133.546 224.611 134.934 224.744 136.542V136.544Z" fill="#9F2A16"/>
<path d="M218.008 158.896C216.422 158.401 216.093 156.544 214.502 156.058C215.388 154.496 216.316 154.501 217.218 156.027C217.74 156.909 218.303 157.806 218.008 158.896Z" fill="#9F2A16"/>
<path d="M166.793 162.273C168.91 161.61 171.025 160.98 172.964 162.677C170.887 162.79 168.782 163.325 166.793 162.273Z" fill="#9F2A16"/>
<path d="M201.686 163.693C199.999 164.968 198.214 165.688 196.104 164.557C197.902 163.902 199.715 163.354 201.686 163.693Z" fill="#9F2A16"/>
<path d="M169.226 165.191C167.503 165.857 165.79 166.417 164.275 164.799C165.947 164.674 167.65 164.212 169.226 165.191Z" fill="#9F2A16"/>
<path d="M78.207 144.554C79.9199 143.667 81.3825 143.389 81.7337 145.827C80.4972 145.549 79.2487 145.301 78.207 144.554Z" fill="#9F2A16"/>
<path d="M92.8597 154.907C91.1373 155.458 89.6458 155.275 88.5776 153.731C90.086 153.864 91.5823 154.033 92.8597 154.907Z" fill="#9F2A16"/>
<path d="M193.024 162.226C194.095 160.305 195.94 161.479 197.436 161.251C196.291 162.874 194.591 162.278 193.024 162.226Z" fill="#9F2A16"/>
<path d="M158.85 161.713C160.199 161.006 161.51 160.58 162.576 162.126C161.301 162.259 160 162.596 158.85 161.713Z" fill="#9F2A16"/>
<path d="M119.134 161.183C117.78 161.808 116.433 162.37 115.43 160.686C116.693 160.67 118.013 160.264 119.134 161.183Z" fill="#9F2A16"/>
<path d="M215.693 146.303C215.718 148.301 214.274 148.832 212.544 149.073C213.201 147.757 214.467 147.048 215.693 146.303Z" fill="#9F2A16"/>
<path d="M192.52 164.819C191.44 166.266 190.132 165.874 188.794 165.226C189.937 164.278 191.241 164.648 192.52 164.819Z" fill="#9F2A16"/>
<path d="M207.141 162.359C206.263 163.77 205.096 164.33 203.446 163.467C204.543 162.7 205.883 162.655 207.141 162.359Z" fill="#9F2A16"/>
<path d="M114.268 150.166C113.067 151.076 111.965 151.367 111.184 149.722C112.244 149.672 113.337 149.426 114.268 150.166Z" fill="#9F2A16"/>
<path d="M152.739 161.15C153.904 160.358 154.991 160.157 155.864 161.521C154.779 161.713 153.69 161.952 152.739 161.15Z" fill="#9F2A16"/>
<path d="M221.217 145.179C221.308 143.757 222.165 143.023 223.618 142.822C223.5 144.22 222.619 144.933 221.217 145.179Z" fill="#9F2A16"/>
<path d="M220.683 138.824C221.533 140.275 220.832 141.126 219.416 141.7C219.56 140.632 219.791 139.6 220.683 138.824Z" fill="#9F2A16"/>
<path d="M122.187 152.6C120.772 153.155 119.743 152.787 119.115 151.466C120.214 151.665 121.34 151.798 122.187 152.6Z" fill="#9F2A16"/>
<path d="M87.37 153.159C85.9146 153.9 85.2771 153.207 84.9619 151.952C85.9314 152.062 86.7541 152.433 87.37 153.159Z" fill="#9F2A16"/>
<path d="M88.4019 150.434C89.6336 150.287 90.579 150.653 91.1203 151.755C89.8717 151.933 88.9888 151.45 88.4019 150.434Z" fill="#9F2A16"/>
<path d="M128.909 161.751C127.913 162.509 127.042 162.573 126.397 161.36C127.295 161.157 128.185 160.976 128.909 161.751Z" fill="#9F2A16"/>
<path d="M81.8872 149.681C80.5665 149.724 79.5465 149.401 79.4575 147.934C80.6339 148.067 81.3315 148.785 81.8872 149.681Z" fill="#9F2A16"/>
<path d="M128.294 153.764C127.418 154.507 126.802 154.304 126.405 153.308C127.129 153.112 127.808 153.089 128.294 153.764Z" fill="#9F2A16"/>
<path d="M125.244 173.791C126.098 172.922 126.712 173.141 127.149 174.159C126.445 174.355 125.773 174.396 125.244 173.791Z" fill="#9F2A16"/>
<path d="M129.52 174.368C130.402 173.49 131.011 173.711 131.408 174.781C130.71 174.921 130.034 174.966 129.52 174.368Z" fill="#9F2A16"/>
<path d="M90.4346 144.674C89.3545 145.191 88.3513 145.493 88.0386 143.904C88.8373 144.161 89.6359 144.416 90.4346 144.674Z" fill="#9F2A16"/>
<path d="M74.5088 144.443C75.1078 143.079 75.7477 143.057 76.4333 144.389C75.791 144.407 75.1511 144.425 74.5088 144.443Z" fill="#9F2A16"/>
<path d="M77.605 147.365C76.7558 148.234 76.1399 148.028 75.6997 147.003C76.407 146.789 77.071 146.771 77.605 147.365Z" fill="#9F2A16"/>
<path d="M84.957 151.954C84.0068 151.999 83.1383 151.941 83.1913 150.722C83.9851 150.873 84.613 151.234 84.957 151.954Z" fill="#9F2A16"/>
<path d="M95.2939 152.714C96.1023 151.721 96.3452 152.353 96.5473 153.098C96.0638 153.161 95.6091 153.139 95.2939 152.714Z" fill="#9F2A16"/>
<path d="M188.692 162.582C189.007 161.943 189.382 161.58 190.005 162.325C189.64 162.736 189.202 162.822 188.692 162.582Z" fill="#9F2A16"/>
<path d="M145.417 163.391C144.63 164.23 144.358 163.675 144.139 162.977C144.659 162.856 145.109 162.932 145.417 163.391Z" fill="#9F2A16"/>
<path d="M97.1464 156.013C96.3886 156.77 96.0999 156.246 95.8594 155.598C96.391 155.456 96.8361 155.551 97.1464 156.013Z" fill="#9F2A16"/>
<path d="M135.464 155.277C134.997 155.494 134.651 155.385 134.43 154.941C135.072 154.243 135.351 154.532 135.464 155.277Z" fill="#9F2A16"/>
<path d="M124.633 153.148C123.868 153.886 123.582 153.374 123.349 152.717C123.88 152.59 124.325 152.685 124.633 153.148Z" fill="#9F2A16"/>
<path d="M92.8711 151.997C93.6265 151.204 93.9152 151.735 94.1605 152.394C93.6385 152.53 93.2031 152.412 92.8711 151.997Z" fill="#9F2A16"/>
<path d="M73.4601 145.691C72.493 144.858 73.0944 144.653 73.9749 144.56C73.8041 144.937 73.6333 145.314 73.4601 145.691Z" fill="#9F2A16"/>
<path d="M133.179 175.003C133.934 174.109 134.228 174.642 134.461 175.367C133.958 175.479 133.52 175.391 133.179 175.003Z" fill="#9F2A16"/>
<path d="M217.991 143.843C218.106 144.615 217.743 145.037 216.927 145.13C216.932 144.446 217.336 144.053 217.991 143.843Z" fill="#9F2A16"/>
<path d="M224.778 140.511C223.996 139.879 224.479 139.563 225.124 139.29C225.338 139.779 225.434 140.238 224.778 140.511Z" fill="#9F2A16"/>
<path d="M76.9748 140.601C76.3445 141.238 75.9788 140.879 75.6709 140.298C76.205 140.021 76.6428 140.113 76.9748 140.601Z" fill="#9F2A16"/>
<path d="M99.1287 157.024C98.905 156.834 98.6788 156.643 98.4551 156.451C98.6788 156.64 98.9025 156.832 99.1287 157.024Z" fill="#9F2A16"/>
<path d="M133.802 154.854C133.619 155.136 133.412 155.161 133.176 154.91C133.386 154.892 133.592 154.874 133.802 154.854Z" fill="#9F2A16"/>
<path d="M88.0335 143.913C87.8097 143.755 87.5836 143.597 87.3599 143.441C87.5836 143.599 87.8097 143.757 88.0335 143.913Z" fill="#9F2A16"/>
<path fill-rule="evenodd" clip-rule="evenodd" d="M38.6288 59.5123C39.1743 60.1357 39.1111 61.0834 38.4877 61.6289C36.6624 63.226 35.0531 65.5156 33.5218 67.9057C33.1963 68.4137 32.8712 68.932 32.5471 69.4487C31.4077 71.2651 30.2799 73.0631 29.1875 74.3326C28.2141 75.4639 27.2314 76.6566 26.2369 77.8638C24.7125 79.714 23.1602 81.5981 21.5703 83.3471C20.9947 83.9802 20.529 84.7184 20.0586 85.5693C19.9033 85.8501 19.7367 86.1649 19.5622 86.4945C19.2487 87.0867 18.9099 87.7268 18.566 88.304C15.5248 93.4089 14.4785 98.8681 13.3435 104.79C13.041 106.368 12.7323 107.979 12.3778 109.624C11.9115 111.789 11.6349 114.019 11.3816 116.316C11.3386 116.706 11.2962 117.099 11.2536 117.494C11.0478 119.401 10.8371 121.352 10.5279 123.277C10.4929 123.494 10.4577 123.713 10.4225 123.931C9.9884 126.622 9.55014 129.338 9.37584 131.953C9.02739 137.18 7.48511 142.85 5.32722 147.597C4.97508 148.372 4.70095 149.179 4.42043 150.058C4.37016 150.215 4.3194 150.376 4.2678 150.54C4.03853 151.266 3.79276 152.044 3.5003 152.818C3.36191 153.184 3.22241 153.735 3.03766 154.487L3.0157 154.577C2.84606 155.268 2.64765 156.077 2.40025 156.859C2.14431 157.667 1.81051 158.531 1.34344 159.27C0.879373 160.004 0.193358 160.757 -0.818708 161.094C-1.60462 161.356 -2.4541 160.931 -2.71607 160.145C-2.97805 159.359 -2.55331 158.51 -1.76739 158.248C-1.66708 158.215 -1.46183 158.093 -1.19254 157.667C-0.926251 157.246 -0.684602 156.663 -0.459797 155.953C-0.243033 155.268 -0.0654964 154.545 0.109975 153.83L0.127033 153.76C0.296034 153.072 0.478729 152.327 0.693883 151.758C0.954168 151.069 1.16953 150.387 1.39729 149.667C1.45141 149.495 1.50624 149.322 1.56253 149.146C1.84882 148.249 2.16678 147.301 2.59612 146.356C4.62175 141.9 6.06065 136.581 6.38249 131.753C6.5666 128.991 7.02708 126.139 7.45685 123.477C7.49348 123.25 7.52989 123.025 7.56589 122.801C7.86161 120.961 8.06246 119.101 8.26817 117.196C8.31149 116.795 8.35502 116.392 8.3997 115.987C8.65413 113.679 8.94408 111.319 9.44509 108.993C9.76595 107.503 10.0535 105.995 10.3426 104.478C11.4845 98.4888 12.6507 92.3717 15.9887 86.7686C16.3042 86.2391 16.5669 85.7411 16.8469 85.2104C17.0286 84.8659 17.2176 84.5075 17.4331 84.1177C17.9444 83.1929 18.5425 82.2178 19.3504 81.3291C20.9164 79.6065 22.3597 77.8526 23.8296 76.0665C24.8296 74.8513 25.8419 73.6212 26.9135 72.3758C27.844 71.2944 28.7998 69.7724 29.9109 68.003C30.2562 67.4531 30.6165 66.8792 30.9958 66.2873C32.5334 63.8874 34.3375 61.274 36.5122 59.3712C37.1356 58.8256 38.0833 58.8888 38.6288 59.5123Z" fill="black"/>
</g>
</svg>
