<svg width="256" height="256" viewBox="0 0 256 256" fill="none" xmlns="http://www.w3.org/2000/svg">
<path d="M128.35 238.85C188.936 238.85 238.05 189.736 238.05 129.15C238.05 68.5644 188.936 19.45 128.35 19.45C67.7643 19.45 18.6499 68.5644 18.6499 129.15C18.6499 189.736 67.7643 238.85 128.35 238.85Z" fill="#FBFBFB" stroke="black" stroke-width="25" stroke-miterlimit="10"/>
<path d="M128.35 238.85C188.936 238.85 238.05 189.736 238.05 129.15C238.05 68.5644 188.936 19.45 128.35 19.45C67.7643 19.45 18.6499 68.5644 18.6499 129.15C18.6499 189.736 67.7643 238.85 128.35 238.85Z" fill="#FBFBFB" stroke="#84CDE6" stroke-width="10" stroke-miterlimit="10"/>
<path d="M224.3 129.15C224.3 182.275 181.225 225.375 128.075 225.375C0.475189 220.275 0.500198 37.975 128.1 32.925C181.225 32.925 224.3 76 224.3 129.15Z" stroke="#D1B6AD" stroke-width="15" stroke-miterlimit="10" stroke-dasharray="9.03 9.03"/>
<path d="M74.1498 131.825L66.8748 136.625C66.4498 136.9 66.2248 137.375 66.2748 137.875L67.5748 155.175C67.6498 156.1 66.7998 156.8 65.9248 156.6L31.9498 149C31.5248 148.9 31.0748 149.025 30.7248 149.325L29.2248 150.675C28.5248 151.3 28.6748 152.45 29.4998 152.9L59.6748 168.925C60.2998 169.25 60.5748 170 60.2998 170.65L58.1748 175.85C57.7748 176.825 58.5748 177.85 59.6248 177.725L74.3248 175.8C74.6748 175.75 75.0248 175.85 75.2998 176.05L95.1998 190.55C95.6748 190.9 96.3498 190.9 96.8248 190.525L100.325 187.875C100.925 187.425 101.05 186.55 100.6 185.95L90.6998 172.9C90.1248 172.15 90.4748 171.05 91.3748 170.775L106.15 166.1C106.25 166.075 106.375 166.025 106.45 165.95L127.025 153.1C127.225 152.975 127.425 152.925 127.65 152.9L135.575 152.325C135.75 152.3 135.95 152.25 136.1 152.175L145.975 147.1C146.35 146.9 146.775 146.9 147.15 147.075L170.75 157.575C170.875 157.625 171 157.7 171.1 157.8L194.175 178.525C194.425 178.75 194.775 178.875 195.125 178.875L198.5 178.775C198.85 178.775 199.175 178.875 199.425 179.1L211.8 189.825C212.4 190.35 213.35 190.25 213.825 189.575L217.075 184.975C217.375 184.525 217.4 183.95 217.125 183.5L198.875 152.625C198.5 152 198.7 151.175 199.3 150.775L210.45 143.475C211.45 142.825 211.2 141.3 210.025 141L208.375 140.6C207.75 140.45 207.325 139.875 207.35 139.225L207.6 130.9C207.625 129.825 206.45 129.125 205.525 129.675L191.35 138.15C190.7 138.55 189.825 138.325 189.45 137.65L181.575 123.5C181.325 123.05 181.35 122.475 181.65 122.05L186.85 114.55C186.925 114.425 187.025 114.325 187.15 114.25L226.075 84.9C226.275 84.75 226.425 84.55 226.525 84.325L232.475 69.75C232.7 69.175 232.525 68.525 232.05 68.15L228.875 65.65C228.625 65.45 228.3 65.35 228 65.35L216.975 65.675C216.925 65.675 216.875 65.675 216.85 65.675L199.65 67.95C199.45 67.975 199.25 68.05 199.075 68.175L147.5 102.625C146.925 103 146.175 102.9 145.725 102.4L144.675 101.2L148.6 97.425C149.575 96.475 148.725 94.85 147.4 95.1L140.975 96.275C140.2 96.425 139.475 95.875 139.375 95.1L138.65 88.925C138.425 87 136.225 86.05 134.65 87.175L123.65 95.075C123.3 95.325 122.875 95.4 122.475 95.275L30.6248 69.2C30.3998 69.125 30.1498 69.125 29.9248 69.175L20.6248 71.475C19.3748 71.775 19.1998 73.5 20.3748 74.05L45.3248 85.45C46.0998 85.8 46.3748 86.775 45.8748 87.475L45.2248 88.425C44.7248 89.125 44.9998 90.1 45.7748 90.45L95.4748 112.6C95.5498 112.625 95.6498 112.675 95.7248 112.75L111.475 124.125C112.2 124.65 112.225 125.725 111.525 126.3L91.2998 142.475C90.7998 142.875 90.1248 142.875 89.6248 142.5L75.7248 131.9C75.2748 131.525 74.6248 131.525 74.1498 131.825Z" fill="#848484"/>
</svg>
