<svg width="256" height="256" viewBox="0 0 256 256" fill="none" xmlns="http://www.w3.org/2000/svg">
<path fill-rule="evenodd" clip-rule="evenodd" d="M92.9205 44.7042L92.9936 57.5676L97.2111 57.7082L101.429 57.8488L101.502 71.0004L101.575 84.1527L97.2842 84.0746L92.9936 83.9973L92.853 79.7798L92.7124 75.5623L88.4949 75.4217L84.2774 75.2811L84.1368 71.0636L83.9962 66.8461H75.4206H66.8451V70.923V75L70.903 75.078C76.0336 75.1771 75.7018 74.8502 75.7018 79.8143V83.8567H79.7443C84.7856 83.8567 84.4545 83.5011 84.3554 88.8151L84.2774 92.9947L80.0219 93.072L75.7658 93.1493L75.5591 101.426C75.3026 111.683 74.7712 110.568 79.9179 110.568H84.1509L84.0736 114.996L83.9962 119.424L79.849 119.502L75.7018 119.58V132.506V145.432H79.8891C84.8622 145.432 84.418 144.961 84.418 150.235V154.149L88.4246 154.153C90.6283 154.155 92.5873 154.256 92.7785 154.378C93.0386 154.543 93.1447 156.74 93.2003 163.16L93.2748 171.721L97.4923 171.862L101.71 172.003L101.85 176.22L101.991 180.438L106.049 180.516C111.365 180.618 110.848 179.638 110.848 189.61V198.011H128.135H145.423L145.497 189.365L145.572 180.719L149.853 180.641L154.133 180.563L154.211 176.283L154.288 172.003L158.506 171.862L162.723 171.721L162.798 163.31C162.847 157.677 162.975 154.775 163.183 154.524C163.417 154.243 164.511 154.149 167.537 154.149H171.58V150.106C171.58 145.142 171.248 145.469 176.379 145.37L180.437 145.292V132.499V119.706L176.219 119.565L172.002 119.424V115.066V110.708L176.219 110.568L180.437 110.427V101.851V93.2758L176.231 93.1978C171.207 93.1043 171.59 93.4818 171.584 88.6197C171.578 83.5903 171.288 83.8842 176.36 83.7914L180.437 83.7162L180.577 79.4986L180.718 75.2811L184.935 75.1406L189.153 75L189.231 70.8485L189.308 66.6971L180.655 66.7716L172.002 66.8461L171.861 71.0636L171.72 75.2811L167.503 75.4217L163.285 75.5623L163.145 79.7798L163.004 83.9973H158.787H154.569V70.923V57.8488L158.787 57.7082L163.004 57.5676L163.077 44.7042L163.15 31.8408H158.93H154.71V35.8615C154.71 40.8817 155.035 40.557 150.014 40.557H145.994V57.6548C145.994 70.8942 145.914 74.858 145.642 75.2228C145.347 75.6185 144.642 75.7057 141.214 75.7683L137.137 75.8435L136.996 80.061L136.856 84.2785H127.999H119.142L119.065 79.9977L118.987 75.7177L114.707 75.6396L110.426 75.5623L110.285 58.1299L110.145 40.6976L106.068 40.6224C100.991 40.5289 101.288 40.8332 101.288 35.7237V31.8408H97.0677H92.8474L92.9205 44.7042ZM49.3382 57.7708L49.4127 66.2838H57.8477H66.2827V62.0663V57.8488L62.0652 57.7082L57.8477 57.5676L57.7071 53.4907L57.5665 49.4138L53.4151 49.3357L49.2637 49.2584L49.3382 57.7708ZM198.478 49.4609C198.375 49.5635 198.291 51.4586 198.291 53.6706V57.6934L194.003 57.7715L189.715 57.8488V62.0663V66.2838L198.22 66.3583L206.726 66.4328V57.853V49.2732H202.696C200.479 49.2732 198.581 49.3575 198.478 49.4609ZM92.7869 110.497L92.7124 119.143L88.5722 119.221L84.4321 119.299L84.3547 114.863L84.2774 110.427L79.9896 110.35L75.7018 110.272V106.062V101.851H84.2816H92.8614L92.7869 110.497ZM180.296 106.062V110.272L176.008 110.35L171.72 110.427L171.643 114.863L171.566 119.299L167.426 119.221L163.285 119.143L163.211 110.852C163.169 106.292 163.197 102.401 163.272 102.206C163.377 101.932 165.315 101.851 171.852 101.851H180.296V106.062ZM101.506 123.712L101.584 128H105.737C108.593 128 109.997 128.105 110.229 128.337C110.481 128.59 110.567 131.91 110.567 141.545V154.415L114.854 154.493L119.142 154.57L119.22 158.717L119.297 162.865H127.999H136.7L136.778 158.717L136.856 154.57L141.143 154.493L145.431 154.415V141.545C145.431 131.91 145.516 128.59 145.769 128.337C146.001 128.105 147.404 128 150.26 128H154.414L154.492 123.712L154.569 119.424H158.787H163.004L163.082 123.705L163.16 127.985L158.864 128.063L154.569 128.141L154.429 141.215L154.288 154.289L149.962 154.367L145.636 154.444L145.84 162.967C146.092 173.411 146.59 172.424 141.061 172.424H137.011L136.933 176.712L136.856 181L128.561 181.079C117.802 181.181 119.002 181.739 119.002 176.636V172.424H115.088C112.936 172.424 110.975 172.348 110.73 172.254C110.337 172.103 110.285 171.047 110.285 163.264V154.444L105.998 154.366L101.71 154.289L101.637 141.152L101.564 128.015L97.2786 127.937L92.9936 127.859L92.9149 123.936C92.8115 118.783 92.3631 119.254 97.2758 119.346L101.429 119.424L101.506 123.712Z" fill="#DCCC94"/>
<path fill-rule="evenodd" clip-rule="evenodd" d="M119.565 53.3544V66.4329L128.07 66.3583L136.575 66.2838L136.653 53.9125C136.696 47.1082 136.662 41.2565 136.577 40.9085L136.424 40.2759H127.994H119.565V53.3544ZM40.2754 132.499V189.294H44.4367C49.6277 189.294 49.2727 188.939 49.2727 194.123V198.277L53.42 198.354L57.5672 198.432L57.7078 202.65L57.8483 206.867L62.2064 207.008L66.5645 207.149L66.7051 211.507L66.8457 215.865H128H189.153L189.294 211.507L189.435 207.149L193.793 207.008L198.151 206.867L198.291 202.65L198.432 198.432L202.649 198.292L206.867 198.151L206.945 193.946C207.038 188.909 206.634 189.304 211.717 189.299L215.724 189.294V132.499V75.7029H207.155H198.587L198.509 79.9907L198.432 84.2785L189.716 84.4191L181 84.5597V88.6366V92.7135L185.205 92.7916C188.138 92.8464 189.477 92.9736 189.629 93.2133C190.045 93.867 189.904 145.324 189.486 145.671C189.266 145.853 187.464 146.01 185.057 146.057L181 146.135L180.859 150.353L180.718 154.57L176.501 154.711L172.283 154.851L172.143 163.427L172.002 172.003L167.785 172.143L163.567 172.284L163.489 176.342C163.39 181.472 163.717 181.141 158.753 181.141H154.71V193.77C154.71 200.716 154.634 206.6 154.54 206.844C154.386 207.246 151.783 207.289 127.972 207.289H101.575L101.502 194.285L101.429 181.281L97.3713 181.203C92.266 181.104 92.6048 181.439 92.5092 176.403L92.4319 172.284L88.2144 172.143L83.9969 172.003L83.9224 163.364L83.8479 154.726L79.5643 154.648L75.2807 154.57L75.2034 150.283L75.1254 145.995H71.2192C69.0711 145.995 67.1135 145.918 66.8689 145.824C66.4675 145.67 66.4239 143.068 66.4239 119.261V92.8689L70.7117 92.7909L74.9995 92.7135V88.6366V84.5597L66.5884 84.4852C60.9552 84.4353 58.0529 84.3081 57.8019 84.0993C57.5208 83.8659 57.4266 82.7722 57.4266 79.7454V75.7029H48.851H40.2754V132.499Z" fill="#3CCC54"/>
<path fill-rule="evenodd" clip-rule="evenodd" d="M79.92 31.5555L66.8457 31.7003L66.7712 40.1114C66.7185 46.0912 66.6004 48.6392 66.3628 48.9253C66.0803 49.2662 64.7482 49.2958 57.6213 49.1214C50.5957 48.9492 49.1723 48.9794 48.9656 49.3049C48.534 49.9867 48.6465 66.0217 49.0858 66.3858C49.3368 66.5946 52.2391 66.7218 57.8723 66.7717L66.2834 66.8462L66.424 71.0637L66.5646 75.2812L70.7821 75.4218L74.9996 75.5624L75.0776 79.7679C75.1711 84.8043 74.7662 84.4093 79.8497 84.4149L83.8563 84.4192V88.6367V92.8542H79.4983H75.1402V101.681C75.1402 109.47 75.1922 110.528 75.5851 110.678C75.8297 110.772 77.7944 110.849 79.9502 110.849H83.8711L83.7938 114.996L83.7158 119.143L79.4983 119.284L75.2807 119.424L75.2076 132.562L75.1345 145.699L79.4251 145.777L83.7158 145.854L83.7931 149.973C83.8887 155.009 83.5499 154.674 88.6552 154.773L92.7131 154.852L92.7876 163.49L92.8621 172.129L97.1457 172.207L101.429 172.284L101.507 176.565L101.585 180.845L105.865 180.923L110.145 181L110.22 189.562C110.276 195.981 110.382 198.179 110.642 198.344C111.096 198.632 144.903 198.632 145.357 198.344C145.618 198.179 145.724 195.981 145.779 189.562L145.854 181L150.134 180.923L154.415 180.845L154.493 176.565L154.57 172.284L158.775 172.206C161.708 172.151 163.048 172.024 163.2 171.784C163.32 171.595 163.42 167.676 163.422 163.076L163.427 154.711L167.433 154.707C172.517 154.701 172.112 155.096 172.205 150.06L172.283 145.854L176.574 145.777L180.865 145.699L180.792 132.562L180.718 119.424L176.501 119.284L172.283 119.143L172.205 114.996L172.128 110.849H176.049C178.205 110.849 180.169 110.772 180.414 110.678C180.807 110.528 180.859 109.471 180.859 101.688V92.8689L176.571 92.7909L172.283 92.7136L172.205 88.5664L172.128 84.4192L176.142 84.4149C181.234 84.4093 180.828 84.8043 180.922 79.7679L181 75.5624L185.28 75.4851L189.56 75.407L189.638 71.127L189.716 66.8462L198.357 66.7717L206.999 66.6972L207.152 66.0688C207.237 65.7229 207.27 61.7711 207.227 57.2865L207.148 49.1327L198.556 49.2262C191.401 49.3042 189.909 49.2536 189.634 48.9218C189.4 48.6399 189.281 46.0483 189.228 40.1114L189.153 31.7003L172.002 31.5162C160.398 31.391 154.737 31.4248 154.5 31.6202C154.248 31.8276 154.148 33.0598 154.148 35.9523V39.9948H150.127C147.375 39.9948 146.001 40.1009 145.769 40.3322C145.514 40.5873 145.432 44.8744 145.432 57.9051V75.1406L141.425 75.1449C136.342 75.1505 136.747 74.7554 136.653 79.7918L136.575 83.9974H128H119.424L119.346 79.7918C119.252 74.7554 119.657 75.1505 114.574 75.1449L110.567 75.1406V57.9051C110.567 44.8744 110.485 40.5873 110.23 40.3322C109.999 40.1009 108.624 39.9948 105.872 39.9948H101.851V36.0816C101.851 30.7936 102.309 31.2659 97.2519 31.3446C94.9104 31.3812 87.1109 31.4761 79.92 31.5555ZM101.289 35.7238C101.289 40.8333 100.992 40.529 106.069 40.6225L110.145 40.6977L110.286 58.13L110.427 75.5624L114.707 75.6397L118.987 75.7177L119.065 79.9978L119.143 84.2786H128H136.856L136.997 80.0611L137.138 75.8436L141.214 75.7683C144.643 75.7058 145.348 75.6186 145.643 75.2229C145.915 74.8581 145.994 70.8943 145.994 57.6549V40.5571H150.015C155.035 40.5571 154.71 40.8818 154.71 35.8616V31.8409H158.931H163.151L163.078 44.7043L163.005 57.5677L158.787 57.7083L154.57 57.8489V70.9231V83.9974H158.787H163.005L163.145 79.7799L163.286 75.5624L167.504 75.4218L171.721 75.2812L171.862 71.0637L172.002 66.8462L180.656 66.7717L189.309 66.6972L189.231 70.8486L189.153 75.0001L184.936 75.1406L180.718 75.2812L180.578 79.4987L180.437 83.7162L176.36 83.7915C171.289 83.8842 171.579 83.5904 171.585 88.6198C171.59 93.4819 171.207 93.1044 176.232 93.1979L180.437 93.2759V101.852V110.427L176.22 110.568L172.002 110.708V115.066V119.424L176.22 119.565L180.437 119.706V132.499V145.292L176.379 145.37C171.249 145.469 171.58 145.142 171.58 150.106V154.149H167.538C164.511 154.149 163.417 154.243 163.184 154.524C162.975 154.775 162.848 157.677 162.798 163.31L162.724 171.722L158.506 171.862L154.289 172.003L154.211 176.283L154.133 180.564L149.853 180.642L145.573 180.719L145.498 189.365L145.424 198.011H128.136H110.848V189.61C110.848 179.638 111.366 180.618 106.05 180.516L101.992 180.438L101.851 176.22L101.71 172.003L97.493 171.862L93.2754 171.722L93.2009 163.16C93.1454 156.74 93.0393 154.543 92.7792 154.378C92.588 154.256 90.629 154.155 88.4253 154.153L84.4187 154.149V150.235C84.4187 144.961 84.8629 145.432 79.8898 145.432H75.7025V132.506V119.58L79.8497 119.502L83.9969 119.424L84.0742 114.996L84.1516 110.568H79.9186C74.7718 110.568 75.3032 111.683 75.5598 101.426L75.7665 93.1494L80.0226 93.0721L84.2781 92.9947L84.3561 88.8152C84.4552 83.5011 84.7863 83.8568 79.745 83.8568H75.7025V79.8143C75.7025 74.8503 76.0343 75.1772 70.9037 75.0781L66.8457 75.0001V70.9231V66.8462H75.4213H83.9969L84.1375 71.0637L84.2781 75.2812L88.4956 75.4218L92.7131 75.5624L92.8537 79.7799L92.9943 83.9974L97.2849 84.0747L101.576 84.1527L101.502 71.0005L101.429 57.8489L97.2118 57.7083L92.9943 57.5677L92.9212 44.7043L92.8481 31.8409H97.0684H101.289V35.7238ZM57.7078 53.4908L57.8484 57.5677L62.0659 57.7083L66.2834 57.8489V62.0664V66.2839H57.8484H49.4134L49.3389 57.7708L49.2644 49.2585L53.4158 49.3358L57.5672 49.4139L57.7078 53.4908ZM206.726 57.8531V66.4329L198.221 66.3584L189.716 66.2839V62.0664V57.8489L194.004 57.7715L198.291 57.6935V53.6707C198.291 48.8157 197.833 49.2733 202.697 49.2733H206.726V57.8531ZM92.9802 119.642C92.9015 119.846 92.8727 121.779 92.9155 123.936L92.9943 127.859L97.2793 127.937L101.564 128.015L101.637 141.152L101.71 154.289L105.998 154.367L110.286 154.445V163.264C110.286 171.047 110.338 172.103 110.731 172.254C110.976 172.348 112.937 172.424 115.089 172.424H119.002V176.636C119.002 181.739 117.802 181.181 128.562 181.079L136.856 181L136.934 176.712L137.012 172.424H141.061C146.591 172.424 146.093 173.411 145.841 162.967L145.636 154.445L149.962 154.367L154.289 154.289L154.429 141.215L154.57 128.141L158.865 128.063L163.16 127.985L163.082 123.705L163.005 119.424H158.787H154.57L154.493 123.712L154.415 128H150.261C147.405 128 146.001 128.105 145.769 128.337C145.517 128.59 145.432 131.91 145.432 141.545V154.415L141.144 154.493L136.856 154.57L136.778 158.718L136.701 162.865H128H119.298L119.221 158.718L119.143 154.57L114.855 154.493L110.567 154.415V141.545C110.567 131.91 110.482 128.59 110.23 128.337C109.998 128.105 108.594 128 105.738 128H101.585L101.507 123.712L101.429 119.424L97.2765 119.346C94.0318 119.286 93.092 119.351 92.9802 119.642ZM145.369 167.569L145.447 171.847L141.151 171.925L136.856 172.003L136.779 176.295L136.701 180.587L128.063 180.512L119.424 180.438L119.283 176.22L119.143 172.003L114.925 171.862L110.708 171.722L110.629 167.799C110.586 165.641 110.602 163.743 110.664 163.581C110.742 163.379 116.239 163.287 128.034 163.289L145.291 163.291L145.369 167.569Z" fill="#746C4C"/>
<path fill-rule="evenodd" clip-rule="evenodd" d="M66.5563 31.6298C66.4839 31.8231 66.3932 35.777 66.3538 40.4163L66.2828 48.8513L62.2059 49.0038L58.129 49.1564L62.1012 49.2147C65.1265 49.259 66.1479 49.1838 66.3848 48.8977C66.5935 48.6467 66.7208 45.7444 66.7707 40.1112L66.8452 31.7001L79.9195 31.5553L92.9937 31.4105L79.84 31.3444C69.5261 31.2924 66.6589 31.3543 66.5563 31.6298ZM176.079 31.5539L189.153 31.7001L189.227 40.1112C189.277 45.7444 189.405 48.6467 189.613 48.8977C189.852 49.1845 190.895 49.259 194.037 49.214L198.15 49.1557L193.933 49.0031L189.715 48.8513L189.575 40.1351L189.434 31.4189L176.219 31.4133L163.004 31.4077L176.079 31.5539ZM119.378 31.996C119.286 32.2364 119.196 40.1126 119.177 49.4987L119.142 66.5648H127.999H136.856L136.944 57.5675C136.994 52.6189 136.947 44.7427 136.842 40.0648L136.651 31.5595H128.098C120.625 31.5595 119.525 31.6143 119.378 31.996ZM110.213 40.3017C110.481 40.6454 110.58 44.7828 110.637 58.0152L110.711 75.281L110.78 57.9534C110.844 41.7385 110.816 40.6011 110.356 40.2398C109.921 39.8982 109.904 39.9053 110.213 40.3017ZM136.577 40.9083C136.662 41.2563 136.696 47.1081 136.653 53.9123L136.575 66.2836L128.069 66.3582L119.564 66.4327V53.3542V40.2757H127.993H136.423L136.577 40.9083ZM48.8976 48.8984C48.7943 49.001 48.712 49.2224 48.7141 49.3904C48.7169 49.5767 48.8034 49.5612 48.9369 49.3511C49.0895 49.1107 50.4644 48.9813 53.5017 48.9216L57.8478 48.8358L53.4666 48.7733C51.0562 48.7388 49.0002 48.7951 48.8976 48.8984ZM199.697 48.9005C203.464 49.1043 207.29 49.1149 207.289 48.9216C207.288 48.8056 205.232 48.7346 202.719 48.7641C200.206 48.7929 198.846 48.8548 199.697 48.9005ZM48.9552 66.4945C49.3074 66.9437 50.075 66.9866 57.734 66.9866H66.1268L66.2161 70.8526L66.306 74.7187L66.2941 70.7823L66.2828 66.846L57.8717 66.7715C51.7233 66.7166 49.3404 66.6035 49.015 66.3497C48.6213 66.0425 48.6143 66.0594 48.9552 66.4945ZM31.4652 66.8931C31.2073 67.1503 31.2354 188.793 31.4926 189.192C31.6346 189.412 34.3535 189.578 40.1709 189.72L48.6424 189.926L48.8484 198.432L49.0543 206.939L57.6686 207.184L66.2828 207.43L66.434 216.005C66.5169 220.722 66.6118 224.612 66.6448 224.652C66.6779 224.69 94.3187 224.69 128.069 224.652L189.434 224.581L189.715 216.005L189.996 207.43L198.466 207.186L206.935 206.942L207.182 198.469L207.429 189.997L216.004 189.716L224.58 189.435V128.14V66.846L220.3 66.7687L216.02 66.6906L215.942 70.8456L215.864 74.9998L207.312 75.0743C201.575 75.1242 198.637 75.2515 198.385 75.4602C198.104 75.6936 198.01 76.7866 198.01 79.8141V83.8566H189.575H181.14V79.7874V75.7175L185.217 75.6282L189.294 75.539L185.146 75.5502L180.999 75.5622L180.922 79.85C180.879 82.2083 180.752 84.1378 180.641 84.1371C180.528 84.1371 180.477 86.0314 180.527 88.3475L180.617 92.5573L176.45 92.6438L172.283 92.7295L176.571 92.7921L180.858 92.8539L180.925 101.64L180.991 110.427L181.069 101.773L181.148 93.1196L185.15 93.1977L189.153 93.2757L189.225 119.354L189.296 145.432H185.221H181.145L181.069 132.569L180.993 119.705L180.926 132.709L180.858 145.713H176.658C174.347 145.713 172.397 145.808 172.326 145.924C172.254 146.04 174.081 146.097 176.386 146.051L180.577 145.966V150.057V154.148L176.43 154.153C174.149 154.155 172.156 154.25 172.002 154.363C171.825 154.493 171.721 157.754 171.721 163.146V171.721H167.433C165.074 171.721 163.144 171.813 163.145 171.925C163.145 172.037 161.215 172.163 158.857 172.206L154.569 172.284L154.492 176.564L154.414 180.844L150.134 180.923L145.853 181L145.847 189.575L145.84 198.151L145.921 189.646L146.002 181.14H150.078H154.153L154.08 194.004L154.007 206.867H127.999H101.991L101.918 193.99L101.845 181.112L106.039 181.197C108.345 181.243 110.174 181.186 110.102 181.07C110.03 180.954 108.084 180.859 105.778 180.859H101.584L101.506 176.571L101.429 172.284L97.1409 172.206L92.8531 172.128L92.7871 163.49L92.721 154.851L92.6423 163.357L92.5635 171.862H88.4951H84.4259L84.3521 163.075L84.2775 154.289L79.9195 154.148L75.5614 154.008V150.071V146.135L79.6383 145.983L83.7152 145.83L79.4274 145.772C77.0691 145.739 75.1396 145.618 75.1396 145.502C75.1403 145.386 73.2741 145.292 70.9924 145.292H66.8452V119.284V93.2757H70.9924C73.2741 93.2757 75.1403 93.1808 75.1396 93.0648C75.1396 92.9488 77.1324 92.8258 79.568 92.7914L83.9964 92.7288L79.6882 92.6438L75.3807 92.558L75.4707 88.3503C75.5424 85.0417 75.4812 84.1125 75.1867 84C74.9808 83.9213 71.0304 83.8566 66.408 83.8566H58.0032L57.9252 79.5688L57.8478 75.281L48.9911 75.1404L40.1343 74.9998L40.0563 70.8526L39.979 66.7054H35.8156C33.5262 66.7054 31.5678 66.7898 31.4652 66.8931ZM189.698 67.0702C189.621 67.2712 189.597 69.2008 189.645 71.358L189.733 75.281L189.794 71.138L189.856 66.995L198.361 66.9163L206.866 66.8375L198.352 66.7715C191.584 66.7188 189.809 66.7799 189.698 67.0702ZM66.6477 75.4771C66.7559 75.5847 68.7058 75.7112 70.979 75.7583C73.253 75.8047 75.0243 75.7555 74.9154 75.6472C74.8071 75.5397 72.8572 75.4131 70.584 75.3661C68.3101 75.3197 66.5387 75.3689 66.6477 75.4771ZM57.4261 79.7452C57.4261 82.772 57.5203 83.8657 57.8014 84.0991C58.0524 84.3079 60.9547 84.4351 66.5879 84.485L74.999 84.5595V88.6364V92.7134L70.7112 92.7907L66.4234 92.8687V119.261C66.4234 143.068 66.467 145.67 66.8684 145.824C67.113 145.918 69.0706 145.995 71.2187 145.995H75.1249L75.2029 150.282L75.2802 154.57L79.5638 154.647L83.8474 154.725L83.9219 163.364L83.9964 172.002L88.2139 172.143L92.4314 172.284L92.5087 176.403C92.6043 181.438 92.2655 181.104 97.3708 181.203L101.429 181.281L101.502 194.285L101.575 207.289H127.972C151.783 207.289 154.385 207.245 154.539 206.844C154.633 206.599 154.71 200.716 154.71 193.77V181.14H158.752C163.716 181.14 163.39 181.472 163.489 176.342L163.567 172.284L167.784 172.143L172.002 172.002L172.142 163.427L172.283 154.851L176.5 154.711L180.718 154.57L180.858 150.353L180.999 146.135L185.057 146.057C187.463 146.01 189.265 145.853 189.485 145.671C189.904 145.324 190.044 93.8668 189.629 93.2131C189.477 92.9734 188.137 92.8462 185.205 92.7914L180.999 92.7134V88.6364V84.5595L189.715 84.4189L198.431 84.2783L198.509 79.9905L198.587 75.7027H207.155H215.723V132.498V189.294L211.717 189.298C206.633 189.304 207.038 188.909 206.944 193.945L206.866 198.151L202.649 198.292L198.431 198.432L198.291 202.65L198.15 206.867L193.792 207.008L189.434 207.148L189.293 211.506L189.153 215.865H127.999H66.8452L66.7046 211.506L66.564 207.148L62.2059 207.008L57.8478 206.867L57.7073 202.65L57.5667 198.432L53.4195 198.354L49.2722 198.277V194.123C49.2722 188.939 49.6272 189.294 44.4362 189.294H40.2749V132.498V75.7027H48.8505H57.4261V79.7452ZM119.411 79.7797L119.423 83.9972H127.999H136.575L136.586 79.9203L136.597 75.8433L136.508 79.85L136.419 83.8566H127.999H119.579L119.49 79.7094L119.4 75.5622L119.411 79.7797ZM74.9709 105.928C74.9716 108.248 75.0145 109.16 75.0679 107.954C75.1206 106.749 75.1199 104.851 75.0672 103.737C75.0138 102.622 74.9702 103.609 74.9709 105.928ZM172.271 114.926L172.283 119.143L176.545 119.284C178.888 119.361 180.747 119.329 180.675 119.213C180.603 119.097 178.72 119.002 176.491 119.002H172.438L172.349 114.855L172.259 110.708L172.271 114.926ZM75.3231 119.213C75.2507 119.329 76.4766 119.39 78.0476 119.35C83.2161 119.215 83.7792 119.107 79.5849 119.054C77.313 119.026 75.3948 119.097 75.3231 119.213ZM110.69 163.511C110.613 163.712 110.589 165.641 110.637 167.798L110.725 171.721L110.786 167.581L110.848 163.442L115.136 163.356L119.423 163.271L115.126 163.208C111.819 163.16 110.798 163.229 110.69 163.511ZM137.98 163.335C141.348 163.538 145.369 163.551 145.248 163.357C145.176 163.241 143.195 163.169 140.846 163.198C138.496 163.227 137.207 163.288 137.98 163.335ZM119.282 176.163L119.421 180.437L119.501 176.382C119.544 174.153 119.482 172.229 119.361 172.108C119.241 171.987 119.205 173.812 119.282 176.163ZM101.288 176.501V180.578H97.2112H93.1343V176.501V172.424H97.2112H101.288V176.501ZM136.547 176.501C136.547 178.821 136.59 179.732 136.644 178.527C136.696 177.321 136.696 175.424 136.643 174.309C136.589 173.195 136.546 174.182 136.547 176.501ZM162.864 176.501V180.578H158.787H154.71V176.501V172.424H158.787H162.864V176.501Z" fill="#1C6424"/>
<path fill-rule="evenodd" clip-rule="evenodd" d="M75.7031 106.062V110.272L79.9909 110.35L84.2787 110.427L84.356 114.863L84.4334 119.299L88.5736 119.221L92.7137 119.143L92.7882 110.497L92.8627 101.852H84.2829H75.7031V106.062ZM163.273 102.207C163.199 102.401 163.171 106.292 163.212 110.852L163.287 119.143L167.427 119.221L171.567 119.299L171.644 114.863L171.722 110.427L176.009 110.35L180.297 110.272V106.062V101.852H171.853C165.317 101.852 163.379 101.932 163.273 102.207Z" fill="#FCFCFC"/>
<path fill-rule="evenodd" clip-rule="evenodd" d="M65.8621 26.4987V30.9973H61.504H57.1459V35.3554V39.7135H52.7878H48.4297V44.0716V48.4297H44.0716H39.7135V52.7878V57.1459H35.2149H30.7162V61.6446V66.1432H26.3581H22V128.141V190.138H26.3581H30.7162V194.496V198.854H35.2149H39.7135V203.212V207.57H44.0716H48.4297V212.069V216.568H52.7878H57.1459V220.926V225.284H61.504H65.8621V229.642V234H128H190.138V229.642V225.284H194.496H198.854V220.926V216.568H203.212H207.57V212.069V207.57H211.928H216.286V203.212V198.854H220.785H225.284V194.496V190.138H229.642H234V128.141V66.1432H229.642H225.284V61.6446V57.1459H220.785H216.286V52.7878V48.4297H211.928H207.57V44.0716V39.7135H203.212H198.854V35.3554V30.9973H194.496H190.138V26.4987V22H128H65.8621V26.4987ZM101.851 35.6366L101.992 39.8541L106.05 39.9321C108.456 39.9792 110.258 40.136 110.478 40.318C110.778 40.5669 110.849 43.9451 110.849 57.8832V75.1406H115.036C120.009 75.1406 119.565 74.6696 119.565 79.9436V83.8568H128H136.435V79.8143C136.435 74.8503 136.103 75.1771 141.234 75.078L145.292 75L145.432 57.5676L145.573 40.1353L149.79 39.9947L154.008 39.8541L154.149 35.6366L154.289 31.4191H171.862H189.435L189.576 40.1353L189.716 48.8515L198.503 48.7502L207.289 48.6497V57.4805C207.289 63.9747 207.2 66.4012 206.952 66.6493C206.704 66.8968 204.378 66.9867 198.236 66.9867H189.857V71.0074C189.857 76.0277 190.182 75.7029 185.161 75.7029H181.141V79.7798V83.8568H189.576H198.011V79.8143C198.011 76.7868 198.105 75.6938 198.386 75.4604C198.638 75.2516 201.576 75.1244 207.313 75.0745L215.865 75L215.943 70.8458L216.021 66.6908L220.301 66.7688L224.581 66.8462V128.141V189.435L216.005 189.716L207.43 189.997L207.183 198.47L206.936 206.942L198.467 207.186L189.997 207.43L189.716 216.005L189.435 224.581L128.07 224.652C94.3197 224.691 66.6789 224.691 66.6458 224.652C66.6128 224.613 66.5179 220.722 66.4349 216.005L66.2838 207.43L57.6696 207.184L49.0553 206.939L48.8494 198.432L48.6434 189.924L40.0987 189.718C31.6883 189.514 31.552 189.501 31.41 188.911C31.3305 188.58 31.3003 160.981 31.3425 127.578L31.4191 66.8462L35.6992 66.7688L39.9792 66.6908L40.0573 70.8458L40.1353 75L48.992 75.1406L57.8488 75.2812L57.9261 79.569L58.0041 83.8568H66.5797H75.156L75.078 79.8501L75 75.8435L70.9231 75.7683C65.8466 75.6748 66.1432 75.9792 66.1432 70.8697V66.9867H57.7427C50.9722 66.9867 49.2802 66.9122 49.0223 66.6015C48.7952 66.3274 48.7242 63.7062 48.7769 57.5339L48.8515 48.8515H57.5676H66.2838L66.3548 40.4164C66.3942 35.7772 66.4856 31.8226 66.558 31.6279C66.662 31.3481 70.3397 31.2891 84.2005 31.3467L101.711 31.4191L101.851 35.6366ZM136.843 40.065C136.948 44.7429 136.995 52.6191 136.945 57.5676L136.857 66.565H128H119.143L119.178 49.4988C119.197 40.1128 119.287 32.2366 119.379 31.9962C119.526 31.6145 120.626 31.5597 128.099 31.5597H136.652L136.843 40.065ZM75.6165 84.599C75.5096 84.7066 75.4217 86.544 75.4217 88.6837V92.5729H79.647H83.8722L83.7942 88.5663L83.7162 84.5597L79.7637 84.4817C77.5903 84.4395 75.724 84.4922 75.6165 84.599ZM172.338 84.599C172.231 84.7066 172.143 86.544 172.143 88.6837V92.5729H176.368H180.594L180.516 88.5663L180.438 84.5597L176.485 84.4817C174.312 84.4395 172.445 84.4922 172.338 84.599ZM66.8377 93.479C66.7625 93.6765 66.7337 105.415 66.7738 119.565L66.8462 145.292H70.9231H75L75.1406 132.217L75.2812 119.143L79.5767 119.066L83.8722 118.988L83.7942 114.989L83.7162 110.989L79.5746 110.911C74.3147 110.813 74.7856 111.765 74.9051 101.472L75 93.2759L70.9877 93.1978C67.9322 93.1381 66.9425 93.2056 66.8377 93.479ZM181.141 101.647C181.141 107.904 181.051 110.264 180.803 110.511C180.572 110.743 179.198 110.849 176.445 110.849H172.424V114.926V119.003H176.491C180.225 119.003 180.582 119.048 180.85 119.547C181.038 119.898 181.141 124.565 181.141 132.762V145.432H185.219H189.297L189.226 119.354L189.154 93.2759L185.147 93.1978L181.141 93.1198V101.647ZM75.5448 146.361C75.4674 146.563 75.44 148.366 75.4829 150.368L75.5623 154.008L79.7096 154.086L83.8568 154.163V150.079V145.995H79.7707C76.6736 145.995 75.6516 146.083 75.5448 146.361ZM172.331 146.182C172.228 146.285 172.143 148.12 172.143 150.259V154.149H176.361H180.578V150.072V145.995H176.548C174.331 145.995 172.434 146.079 172.331 146.182ZM84.4191 163.286V171.862H88.496H92.5729V163.286V154.711H88.496H84.4191V163.286ZM163.557 155.058C163.481 155.258 163.452 159.089 163.493 163.571L163.568 171.721H167.645H171.721V163.286V154.851L167.709 154.773C164.635 154.714 163.664 154.78 163.557 155.058ZM110.849 167.635V171.847L115.137 171.925L119.424 172.003L119.502 176.29L119.58 180.578H128.007H136.435L136.439 176.572C136.445 171.488 136.05 171.893 141.086 171.8L145.292 171.721V167.645V163.568L128.07 163.495L110.849 163.423V167.635ZM93.1353 176.501V180.578H97.2122H101.289V176.501V172.424H97.2122H93.1353V176.501ZM154.711 176.501V180.578H158.788H162.865V176.501V172.424H158.788H154.711V176.501ZM101.919 193.996L101.992 206.867H128H154.008L154.081 194.004L154.154 181.141H150.074H145.995V189.541C145.995 196.286 145.919 198.004 145.612 198.259C145.334 198.49 140.447 198.557 127.828 198.505L110.427 198.432L110.286 189.857L110.146 181.281L105.996 181.203L101.846 181.126L101.919 193.996Z" fill="#040404"/>
</svg>
