<svg width="256" height="256" viewBox="0 0 256 256" fill="none" xmlns="http://www.w3.org/2000/svg">
<path d="M256 128C256 198.692 198.692 256 128 256C57.3075 256 0 198.692 0 128C0 57.3075 57.3075 0 128 0C198.692 0 256 57.3075 256 128Z" fill="white"/>
<path d="M116.106 0.48382C114.69 0.685172 110.237 1.38991 106.089 1.99396C82.8165 5.41695 58.6335 17.6994 38.599 36.4252C24.4332 49.6138 11.2792 71.3599 5.30933 91.5958C-5.11266 127.034 -0.0534407 164.687 19.2728 195.695C32.7303 217.24 49.6281 232.24 73.1028 243.516C92.8338 253.08 105.785 256 128.248 256C149.801 256 163.258 253.08 181.37 244.624C198.673 236.469 208.993 228.918 222.248 215.025C238.134 198.313 249.062 176.566 254.223 151.397C256.752 139.316 256.55 116.06 253.818 102.872C242.789 49.7145 200.19 9.24265 146.967 1.38991C137.557 -0.0195609 122.481 -0.422266 116.106 0.48382ZM116.713 19.3103C110.642 23.2366 105.077 28.5725 102.244 33.3043C99.5119 37.8347 87.3698 64.2119 74.1147 94.5154C72.2933 98.6431 64.0974 116.765 55.9015 134.786C47.7056 152.807 39.4084 171.231 37.3848 175.761C35.3611 180.392 33.3374 184.117 32.9326 184.117C32.5279 184.117 30.403 180.292 28.177 175.66C11.4816 140.927 14.3147 99.8512 35.6646 67.3328C41.7357 58.0706 57.7228 41.9624 66.5258 36.2239C81.9059 26.2569 103.256 18.5049 116.106 18.2028C118.433 18.1022 118.535 18.2028 116.713 19.3103ZM147.271 19.0082C187.947 25.6529 224.778 59.4801 235.402 100.053C242.182 125.725 239.45 153.109 227.712 176.869C225.79 180.795 223.867 184.117 223.463 184.117C223.159 184.117 220.832 179.687 218.302 174.251C215.874 168.915 212.332 161.062 210.41 156.935C208.487 152.807 203.125 141.028 198.571 130.759C194.018 120.49 188.959 109.415 187.441 106.093C184.001 98.3411 183.293 96.7303 176.311 80.9241C173.073 73.6754 168.924 64.5139 167.103 60.4868C165.181 56.3591 163.663 52.9361 163.663 52.7348C163.663 52.5334 161.841 48.4057 159.615 43.5732C154.253 32.0961 150.306 26.861 143.729 22.3306C140.795 20.317 138.367 18.5049 138.367 18.3035C138.367 17.8001 140.593 18.0015 147.271 19.0082ZM138.367 84.4478C139.986 88.0721 143.426 95.9249 146.158 102.066C174.186 164.284 196.042 213.515 196.042 214.622C196.042 216.132 182.584 224.992 174.692 228.717C167.609 232.039 153.14 236.267 144.438 237.476C135.837 238.784 119.243 238.684 111.35 237.476C102.649 236.066 88.584 231.838 81.8047 228.717C78.668 227.207 72.3945 223.582 67.8412 220.562L59.6453 215.226L61.669 210.494C64.0974 204.856 65.8175 201.031 72.091 187.137C79.1739 171.533 79.5786 170.526 90.8101 145.357C96.4764 132.571 102.143 119.886 103.357 117.168C104.672 114.349 110.339 101.663 116.106 88.9782C121.874 76.1923 127.034 65.2186 127.641 64.4132C128.653 63.1044 130.879 67.2321 138.367 84.4478Z" fill="black"/>
<path d="M116.612 152.606C110.541 166.398 103.964 181.198 101.839 185.627C94.8573 200.729 94.7561 200.83 96.6786 202.541C97.6905 203.346 100.827 205.259 103.66 206.669C119.142 214.32 137.658 214.219 153.342 206.367C162.145 201.937 162.145 201.937 157.794 192.675C155.669 188.245 148.283 171.835 141.402 156.23C134.42 140.524 128.552 127.739 128.248 127.739C127.945 127.739 122.784 138.914 116.612 152.606Z" fill="black"/>
</svg>
